<?xml version="1.0" encoding="UTF-8" standalone="no"?>
<!DOCTYPE svg PUBLIC "-//W3C//DTD SVG 1.1//EN"
 "http://www.w3.org/Graphics/SVG/1.1/DTD/svg11.dtd">
<!-- Generated by graphviz version 2.43.0 (0)
 -->
<!-- Title: G Pages: 1 -->
<svg width="1318pt" height="1970pt"
 viewBox="0.00 0.00 1317.50 1970.00" xmlns="http://www.w3.org/2000/svg" xmlns:xlink="http://www.w3.org/1999/xlink">
<g id="graph0" class="graph" transform="scale(1 1) rotate(0) translate(4 1966)">
<title>G</title>
<polygon fill="black" stroke="transparent" points="-4,4 -4,-1966 1313.5,-1966 1313.5,4 -4,4"/>
<text text-anchor="middle" x="319.5" y="-1946.8" font-family="Times,serif" font-size="14.00" fill="white">For tooltips with advanced information, hover your mouse over vertices or edge labels.</text>
<!-- 281468003102672 -->
<g id="node1" class="node">
<title>281468003102672</title>
<g id="a_node1"><a xlink:title="Output: 175 rows in 1 chunk, 3 µs 808 ns.">
<polygon fill="none" stroke="white" points="521,-1907 310,-1907 310,-1838 521,-1838 521,-1907"/>
<text text-anchor="middle" x="415.5" y="-1891.8" font-family="Times,serif" font-size="14.00" fill="white">Alias</text>
<text text-anchor="middle" x="415.5" y="-1876.8" font-family="Times,serif" font-size="14.00" fill="white">[nation, o_year, sum_profit]</text>
<text text-anchor="middle" x="415.5" y="-1845.8" font-family="Times,serif" font-size="14.00" fill="white">3 µs 808 ns</text>
</a>
</g>
</g>
<!-- 281468003102352 -->
<g id="node2" class="node">
<title>281468003102352</title>
<g id="a_node2"><a xlink:title="Output: 175 rows in 1 chunk, 101 µs 985 ns.&#10;Operator step runtimes:&#10; MaterializeSortColumns 32 µs 513 ns&#10; Sort 45 µs 760 ns&#10; TemporaryResultWriting 10 µs 752 ns&#10; WriteOutput 9 µs 184 ns.">
<polygon fill="none" stroke="white" points="474,-1787 357,-1787 357,-1733 474,-1733 474,-1787"/>
<text text-anchor="middle" x="415.5" y="-1771.8" font-family="Times,serif" font-size="14.00" fill="white">Sort</text>
<text text-anchor="middle" x="415.5" y="-1740.8" font-family="Times,serif" font-size="14.00" fill="white">101 µs 985 ns</text>
</a>
</g>
</g>
<!-- 281468003102352&#45;&gt;281468003102672 -->
<g id="edge1" class="edge">
<title>281468003102352&#45;&gt;281468003102672</title>
<path fill="none" stroke="white" d="M415.5,-1787.19C415.5,-1799.29 415.5,-1814 415.5,-1827.72"/>
<polygon fill="white" stroke="white" points="412,-1827.95 415.5,-1837.95 419,-1827.96 412,-1827.95"/>
<text text-anchor="middle" x="493.5" y="-1808.8" font-family="Times,serif" font-size="14.00" fill="white">175 row(s)/1 chunk(s)</text>
</g>
<!-- 281467999814160 -->
<g id="node3" class="node">
<title>281467999814160</title>
<g id="a_node3"><a xlink:title="Output: 175 rows in 1 chunk, 1 s 334 ms.&#10;Operator step runtimes:&#10; GroupByKeyPartitioning 951 ms 546 µs&#10; Aggregating 382 ms 138 µs&#10; GroupByColumnsWriting 14 µs 624 ns&#10; AggregateColumnsWriting 17 µs 441 ns&#10; OutputWriting 8 µs 416 ns.">
<polygon fill="none" stroke="white" stroke-width="8" points="566,-1682 265,-1682 265,-1568 566,-1568 566,-1682"/>
<text text-anchor="middle" x="415.5" y="-1666.8" font-family="Times,serif" font-size="14.00" fill="white">AggregateHash</text>
<text text-anchor="middle" x="415.5" y="-1651.8" font-family="Times,serif" font-size="14.00" fill="white">GroupBy {n_name,</text>
<text text-anchor="middle" x="415.5" y="-1636.8" font-family="Times,serif" font-size="14.00" fill="white">SUBSTR(o_orderdate,1,4)}</text>
<text text-anchor="middle" x="415.5" y="-1621.8" font-family="Times,serif" font-size="14.00" fill="white">SUM(l_extendedprice * (1 &#45; l_discount) &#45;</text>
<text text-anchor="middle" x="415.5" y="-1606.8" font-family="Times,serif" font-size="14.00" fill="white">ps_supplycost * l_quantity)</text>
<text text-anchor="middle" x="415.5" y="-1575.8" font-family="Times,serif" font-size="14.00" fill="white">1 s 334 ms</text>
</a>
</g>
</g>
<!-- 281467999814160&#45;&gt;281468003102352 -->
<g id="edge2" class="edge">
<title>281467999814160&#45;&gt;281468003102352</title>
<path fill="none" stroke="white" d="M415.5,-1682.02C415.5,-1695.77 415.5,-1710.14 415.5,-1722.69"/>
<polygon fill="white" stroke="white" points="412,-1722.75 415.5,-1732.75 419,-1722.75 412,-1722.75"/>
<text text-anchor="middle" x="493.5" y="-1703.8" font-family="Times,serif" font-size="14.00" fill="white">175 row(s)/1 chunk(s)</text>
</g>
<!-- 281468003102032 -->
<g id="node4" class="node">
<title>281468003102032</title>
<g id="a_node4"><a xlink:title="Output: 32624885 rows in 256 chunks, 145 µs 378 ns.">
<polygon fill="none" stroke="white" points="510,-1517 321,-1517 321,-1448 510,-1448 510,-1517"/>
<text text-anchor="middle" x="415.5" y="-1501.8" font-family="Times,serif" font-size="14.00" fill="white">Alias</text>
<text text-anchor="middle" x="415.5" y="-1486.8" font-family="Times,serif" font-size="14.00" fill="white">[nation, o_year, amount]</text>
<text text-anchor="middle" x="415.5" y="-1455.8" font-family="Times,serif" font-size="14.00" fill="white">145 µs 378 ns</text>
</a>
</g>
</g>
<!-- 281468003102032&#45;&gt;281467999814160 -->
<g id="edge3" class="edge">
<title>281468003102032&#45;&gt;281467999814160</title>
<path fill="none" stroke="white" d="M415.5,-1517.15C415.5,-1529.37 415.5,-1543.63 415.5,-1557.69"/>
<polygon fill="white" stroke="white" points="412,-1557.85 415.5,-1567.85 419,-1557.85 412,-1557.85"/>
<text text-anchor="middle" x="529.5" y="-1538.8" font-family="Times,serif" font-size="14.00" fill="white">32,624,885 row(s)/256 chunk(s)</text>
</g>
<!-- 281468003101712 -->
<g id="node5" class="node">
<title>281468003101712</title>
<g id="a_node5"><a xlink:title="Output: 32624885 rows in 256 chunks, 1 s 24 ms.&#10;Operator step runtimes:&#10; ForwardUnmodifiedColumns 210 µs 947 ns&#10; EvaluateNewColumns 1 s 23 ms&#10; BuildOutput 545 µs 703 ns.">
<polygon fill="none" stroke="white" stroke-width="7.35" points="460,-1397 371,-1397 371,-1343 460,-1343 460,-1397"/>
<text text-anchor="middle" x="415.5" y="-1381.8" font-family="Times,serif" font-size="14.00" fill="white">Projection</text>
<text text-anchor="middle" x="415.5" y="-1350.8" font-family="Times,serif" font-size="14.00" fill="white">1 s 24 ms</text>
</a>
</g>
</g>
<!-- 281468003101712&#45;&gt;281468003102032 -->
<g id="edge4" class="edge">
<title>281468003101712&#45;&gt;281468003102032</title>
<path fill="none" stroke="white" d="M415.5,-1397.19C415.5,-1409.29 415.5,-1424 415.5,-1437.72"/>
<polygon fill="white" stroke="white" points="412,-1437.95 415.5,-1447.95 419,-1437.96 412,-1437.95"/>
<text text-anchor="middle" x="529.5" y="-1418.8" font-family="Times,serif" font-size="14.00" fill="white">32,624,885 row(s)/256 chunk(s)</text>
</g>
<!-- 281468003101392 -->
<g id="node6" class="node">
<title>281468003101392</title>
<g id="a_node6"><a xlink:title="Output: 32624885 rows in 256 chunks, 375 ms 781 µs.&#10;Chunks: 0 skipped with no results, &#10;0 skipped with all matching, 0 scanned using binary search.">
<polygon fill="none" stroke="white" stroke-width="4.88" points="511,-1292 320,-1292 320,-1208 511,-1208 511,-1292"/>
<text text-anchor="middle" x="415.5" y="-1276.8" font-family="Times,serif" font-size="14.00" fill="white">TableScan</text>
<text text-anchor="middle" x="415.5" y="-1261.8" font-family="Times,serif" font-size="14.00" fill="white">Impl: ColumnVsColumn</text>
<text text-anchor="middle" x="415.5" y="-1246.8" font-family="Times,serif" font-size="14.00" fill="white">ps_suppkey = l_suppkey</text>
<text text-anchor="middle" x="415.5" y="-1215.8" font-family="Times,serif" font-size="14.00" fill="white">375 ms 781 µs</text>
</a>
</g>
</g>
<!-- 281468003101392&#45;&gt;281468003101712 -->
<g id="edge5" class="edge">
<title>281468003101392&#45;&gt;281468003101712</title>
<path fill="none" stroke="white" d="M415.5,-1292.27C415.5,-1305.36 415.5,-1319.72 415.5,-1332.45"/>
<polygon fill="white" stroke="white" points="412,-1332.69 415.5,-1342.69 419,-1332.69 412,-1332.69"/>
<text text-anchor="middle" x="529.5" y="-1313.8" font-family="Times,serif" font-size="14.00" fill="white">32,624,885 row(s)/256 chunk(s)</text>
</g>
<!-- 281468003099152 -->
<g id="node7" class="node">
<title>281468003099152</title>
<g id="a_node7"><a xlink:title="Output: 130499540 rows in 256 chunks, 412 ms 702 µs.&#10;Operator step runtimes:&#10; LeftSideMaterialize 32 ms 99 µs&#10; RightSideMaterialize 185 ms 214 µs&#10; LeftSideTransform 0 ns&#10; RightSideTransform 0 ns&#10; LeftSidePartition 1 ms 332 µs&#10; RightSidePartition 14 ms 205 µs&#10; LeftSideSortBuckets 504 µs 807 ns&#10; RightSideSortBuckets 7 ms 825 µs&#10; GatherRowIds 1 µs 664 ns&#10; FindJoinPartner 35 ms 916 µs&#10; OutputWriting 133 ms 866 µs.">
<polygon fill="none" stroke="white" stroke-width="5.11" points="521,-1157 310,-1157 310,-1088 521,-1088 521,-1157"/>
<text text-anchor="middle" x="415.5" y="-1141.8" font-family="Times,serif" font-size="14.00" fill="white">JoinSimdSortMerge (Inner)</text>
<text text-anchor="middle" x="415.5" y="-1126.8" font-family="Times,serif" font-size="14.00" fill="white">ps_partkey = l_partkey</text>
<text text-anchor="middle" x="415.5" y="-1095.8" font-family="Times,serif" font-size="14.00" fill="white">412 ms 702 µs</text>
</a>
</g>
</g>
<!-- 281468003099152&#45;&gt;281468003101392 -->
<g id="edge6" class="edge">
<title>281468003099152&#45;&gt;281468003101392</title>
<path fill="none" stroke="white" stroke-width="4.24" d="M415.5,-1157.13C415.5,-1169.51 415.5,-1183.84 415.5,-1197.44"/>
<polygon fill="white" stroke="white" stroke-width="4.24" points="411.79,-1197.65 415.5,-1207.65 419.21,-1197.65 411.79,-1197.65"/>
<text text-anchor="middle" x="534" y="-1178.8" font-family="Times,serif" font-size="14.00" fill="white">130,499,540 row(s)/256 chunk(s)</text>
</g>
<!-- 281468003099792 -->
<g id="node8" class="node">
<title>281468003099792</title>
<g id="a_node8"><a xlink:title="Output: 4349608 rows in 256 chunks, 840 ms 124 µs.&#10;Operator step runtimes:&#10; LeftSideMaterialize 219 ms 837 µs&#10; RightSideMaterialize 561 ms 9 µs&#10; LeftSideTransform 0 ns&#10; RightSideTransform 0 ns&#10; LeftSidePartition 21 ms 294 µs&#10; RightSidePartition 15 ms 882 µs&#10; LeftSideSortBuckets 10 ms 766 µs&#10; RightSideSortBuckets 2 ms 474 µs&#10; GatherRowIds 1 µs 440 ns&#10; FindJoinPartner 4 ms 137 µs&#10; OutputWriting 2 ms 265 µs.">
<polygon fill="none" stroke="white" stroke-width="6.86" points="472,-917 187,-917 187,-848 472,-848 472,-917"/>
<text text-anchor="middle" x="329.5" y="-901.8" font-family="Times,serif" font-size="14.00" fill="white">JoinSimdSortMerge (Semi Reduction)</text>
<text text-anchor="middle" x="329.5" y="-886.8" font-family="Times,serif" font-size="14.00" fill="white">ps_partkey = l_partkey</text>
<text text-anchor="middle" x="329.5" y="-855.8" font-family="Times,serif" font-size="14.00" fill="white">840 ms 124 µs</text>
</a>
</g>
</g>
<!-- 281468003099792&#45;&gt;281468003099152 -->
<g id="edge7" class="edge">
<title>281468003099792&#45;&gt;281468003099152</title>
<path fill="none" stroke="white" d="M341.64,-917.09C356.9,-959.32 383.11,-1031.88 399.86,-1078.22"/>
<polygon fill="white" stroke="white" points="399.89,-1078.29 396.59,-1079.48 403.28,-1087.69 399.89,-1078.29"/>
<text text-anchor="middle" x="494" y="-998.8" font-family="Times,serif" font-size="14.00" fill="white">4,349,608 row(s)/256 chunk(s)</text>
</g>
<!-- 281467997743888 -->
<g id="node9" class="node">
<title>281467997743888</title>
<g id="a_node9"><a xlink:title="Output: 80000000 rows in 1221 chunks, 4 ms 239 µs.">
<polygon fill="none" stroke="white" points="117.5,-767 13.5,-767 13.5,-713 117.5,-713 117.5,-767"/>
<text text-anchor="middle" x="65.5" y="-751.8" font-family="Times,serif" font-size="14.00" fill="white">Validate</text>
<text text-anchor="middle" x="65.5" y="-720.8" font-family="Times,serif" font-size="14.00" fill="white">4 ms 239 µs</text>
</a>
</g>
</g>
<!-- 281467997743888&#45;&gt;281468003099792 -->
<g id="edge8" class="edge">
<title>281467997743888&#45;&gt;281468003099792</title>
<path fill="none" stroke="white" stroke-width="3.03" d="M63.3,-767.1C63.13,-786.98 66.4,-813.62 82.5,-830 97.14,-844.89 135.12,-855.83 177.04,-863.7"/>
<polygon fill="white" stroke="white" stroke-width="3.03" points="177.05,-863.7 176.43,-867.14 186.89,-865.48 177.05,-863.7"/>
<text text-anchor="middle" x="203" y="-818.8" font-family="Times,serif" font-size="14.00" fill="white">80,000,000 row(s)/1,221 chunk(s)</text>
</g>
<!-- 281155542604560 -->
<g id="node10" class="node">
<title>281155542604560</title>
<g id="a_node10"><a xlink:title="Output: 80000000 rows in 1221 chunks, 7 ms 474 µs.">
<polygon fill="none" stroke="white" points="131,-632 0,-632 0,-518 131,-518 131,-632"/>
<text text-anchor="middle" x="65.5" y="-616.8" font-family="Times,serif" font-size="14.00" fill="white">GetTable</text>
<text text-anchor="middle" x="65.5" y="-601.8" font-family="Times,serif" font-size="14.00" fill="white">(partsupp)</text>
<text text-anchor="middle" x="65.5" y="-586.8" font-family="Times,serif" font-size="14.00" fill="white">pruned:</text>
<text text-anchor="middle" x="65.5" y="-571.8" font-family="Times,serif" font-size="14.00" fill="white">0/1221 chunk(s)</text>
<text text-anchor="middle" x="65.5" y="-556.8" font-family="Times,serif" font-size="14.00" fill="white">2/5 column(s)</text>
<text text-anchor="middle" x="65.5" y="-525.8" font-family="Times,serif" font-size="14.00" fill="white">7 ms 474 µs</text>
</a>
</g>
</g>
<!-- 281155542604560&#45;&gt;281467997743888 -->
<g id="edge9" class="edge">
<title>281155542604560&#45;&gt;281467997743888</title>
<path fill="none" stroke="white" stroke-width="3.03" d="M65.5,-632.1C65.5,-655.46 65.5,-681.93 65.5,-702.68"/>
<polygon fill="white" stroke="white" stroke-width="3.03" points="62,-702.97 65.5,-712.97 69,-702.97 62,-702.97"/>
<text text-anchor="middle" x="186" y="-653.8" font-family="Times,serif" font-size="14.00" fill="white">80,000,000 row(s)/1,221 chunk(s)</text>
</g>
<!-- 281467997740048 -->
<g id="node11" class="node">
<title>281467997740048</title>
<g id="a_node11"><a xlink:title="Output: 32624885 rows in 256 chunks, 108 ms 738 µs.">
<polygon fill="none" stroke="white" stroke-width="1.82" points="455.5,-767 333.5,-767 333.5,-713 455.5,-713 455.5,-767"/>
<text text-anchor="middle" x="394.5" y="-751.8" font-family="Times,serif" font-size="14.00" fill="white">Validate</text>
<text text-anchor="middle" x="394.5" y="-720.8" font-family="Times,serif" font-size="14.00" fill="white">108 ms 738 µs</text>
</a>
</g>
</g>
<!-- 281467997740048&#45;&gt;281468003099792 -->
<g id="edge10" class="edge">
<title>281467997740048&#45;&gt;281468003099792</title>
<path fill="none" stroke="white" d="M363.97,-767.01C351.08,-779.96 337.46,-796.75 330.5,-815 327.78,-822.13 326.4,-830 325.85,-837.77"/>
<polygon fill="white" stroke="white" points="325.55,-847.84 329.35,-837.95 325.85,-837.84 325.55,-847.84"/>
<text text-anchor="middle" x="444.5" y="-818.8" font-family="Times,serif" font-size="14.00" fill="white">32,624,885 row(s)/256 chunk(s)</text>
</g>
<!-- 281468003100752 -->
<g id="node20" class="node">
<title>281468003100752</title>
<g id="a_node20"><a xlink:title="Output: 32624885 rows in 256 chunks, 912 ms 433 µs.&#10;Operator step runtimes:&#10; LeftSideMaterialize 747 ms 339 µs&#10; RightSideMaterialize 113 ms 966 µs&#10; LeftSideTransform 0 ns&#10; RightSideTransform 0 ns&#10; LeftSidePartition 13 ms 187 µs&#10; RightSidePartition 4 ms 753 µs&#10; LeftSideSortBuckets 7 ms 58 µs&#10; RightSideSortBuckets 439 µs 622 ns&#10; GatherRowIds 1 µs 88 ns&#10; FindJoinPartner 9 ms 56 µs&#10; OutputWriting 15 ms 449 µs.">
<polygon fill="none" stroke="white" stroke-width="7.06" points="866,-917 655,-917 655,-848 866,-848 866,-917"/>
<text text-anchor="middle" x="760.5" y="-901.8" font-family="Times,serif" font-size="14.00" fill="white">JoinSimdSortMerge (Inner)</text>
<text text-anchor="middle" x="760.5" y="-886.8" font-family="Times,serif" font-size="14.00" fill="white">l_suppkey = s_suppkey</text>
<text text-anchor="middle" x="760.5" y="-855.8" font-family="Times,serif" font-size="14.00" fill="white">912 ms 433 µs</text>
</a>
</g>
</g>
<!-- 281467997740048&#45;&gt;281468003100752 -->
<g id="edge11" class="edge">
<title>281467997740048&#45;&gt;281468003100752</title>
<path fill="none" stroke="white" d="M455.88,-764.49C487.48,-777.62 526.07,-795.29 558.5,-815 567.69,-820.59 567.91,-825.11 577.5,-830 598.47,-840.69 621.96,-849.42 644.93,-856.45"/>
<polygon fill="white" stroke="white" points="645.15,-856.51 644.16,-859.87 654.74,-859.36 645.15,-856.51"/>
<text text-anchor="middle" x="691.5" y="-818.8" font-family="Times,serif" font-size="14.00" fill="white">32,624,885 row(s)/256 chunk(s)</text>
</g>
<!-- 281468003099472 -->
<g id="node12" class="node">
<title>281468003099472</title>
<g id="a_node12"><a xlink:title="Output: 32624885 rows in 256 chunks, 440 ms 268 µs.&#10;Operator step runtimes:&#10; LeftSideMaterialize 159 ms 531 µs&#10; RightSideMaterialize 5 ms 94 µs&#10; LeftSideTransform 0 ns&#10; RightSideTransform 0 ns&#10; LeftSidePartition 158 ms 755 µs&#10; RightSidePartition 412 µs 997 ns&#10; LeftSideSortBuckets 84 ms 589 µs&#10; RightSideSortBuckets 1 ms 326 µs&#10; GatherRowIds 1 µs 632 ns&#10; FindJoinPartner 18 ms 941 µs&#10; OutputWriting 949 µs 5 ns.">
<polygon fill="none" stroke="white" stroke-width="5.27" points="499,-609.5 290,-609.5 290,-540.5 499,-540.5 499,-609.5"/>
<text text-anchor="middle" x="394.5" y="-594.3" font-family="Times,serif" font-size="14.00" fill="white">JoinSimdSortMerge (Semi)</text>
<text text-anchor="middle" x="394.5" y="-579.3" font-family="Times,serif" font-size="14.00" fill="white">l_partkey = p_partkey</text>
<text text-anchor="middle" x="394.5" y="-548.3" font-family="Times,serif" font-size="14.00" fill="white">440 ms 268 µs</text>
</a>
</g>
</g>
<!-- 281468003099472&#45;&gt;281467997740048 -->
<g id="edge12" class="edge">
<title>281468003099472&#45;&gt;281467997740048</title>
<path fill="none" stroke="white" d="M394.5,-609.77C394.5,-636.89 394.5,-674.9 394.5,-702.68"/>
<polygon fill="white" stroke="white" points="391,-702.78 394.5,-712.78 398,-702.78 391,-702.78"/>
<text text-anchor="middle" x="508.5" y="-653.8" font-family="Times,serif" font-size="14.00" fill="white">32,624,885 row(s)/256 chunk(s)</text>
</g>
<!-- 281155542608144 -->
<g id="node13" class="node">
<title>281155542608144</title>
<g id="a_node13"><a xlink:title="Output: 600037902 rows in 9156 chunks, 16 ms 980 µs.">
<polygon fill="none" stroke="white" points="220,-467 89,-467 89,-353 220,-353 220,-467"/>
<text text-anchor="middle" x="154.5" y="-451.8" font-family="Times,serif" font-size="14.00" fill="white">GetTable</text>
<text text-anchor="middle" x="154.5" y="-436.8" font-family="Times,serif" font-size="14.00" fill="white">(lineitem)</text>
<text text-anchor="middle" x="154.5" y="-421.8" font-family="Times,serif" font-size="14.00" fill="white">pruned:</text>
<text text-anchor="middle" x="154.5" y="-406.8" font-family="Times,serif" font-size="14.00" fill="white">0/9156 chunk(s)</text>
<text text-anchor="middle" x="154.5" y="-391.8" font-family="Times,serif" font-size="14.00" fill="white">10/16 column(s)</text>
<text text-anchor="middle" x="154.5" y="-360.8" font-family="Times,serif" font-size="14.00" fill="white">16 ms 980 µs</text>
</a>
</g>
</g>
<!-- 281155542608144&#45;&gt;281468003099472 -->
<g id="edge13" class="edge">
<title>281155542608144&#45;&gt;281468003099472</title>
<path fill="none" stroke="white" stroke-width="8" d="M145.59,-467.21C146.38,-478.97 149.43,-490.62 156.5,-500 185.44,-538.39 234.08,-557.39 279.88,-566.61"/>
<polygon fill="white" stroke="white" stroke-width="8" points="280.08,-566.65 278.79,-573.53 289.91,-568.49 280.08,-566.65"/>
<text text-anchor="middle" x="281.5" y="-488.8" font-family="Times,serif" font-size="14.00" fill="white">600,037,902 row(s)/9,156 chunk(s)</text>
</g>
<!-- 281467997739792 -->
<g id="node14" class="node">
<title>281467997739792</title>
<g id="a_node14"><a xlink:title="Output: 1087402 rows in 306 chunks, 1 ms 52 µs.">
<polygon fill="none" stroke="white" points="475,-437 380,-437 380,-383 475,-383 475,-437"/>
<text text-anchor="middle" x="427.5" y="-421.8" font-family="Times,serif" font-size="14.00" fill="white">Validate</text>
<text text-anchor="middle" x="427.5" y="-390.8" font-family="Times,serif" font-size="14.00" fill="white">1 ms 52 µs</text>
</a>
</g>
</g>
<!-- 281467997739792&#45;&gt;281468003099472 -->
<g id="edge14" class="edge">
<title>281467997739792&#45;&gt;281468003099472</title>
<path fill="none" stroke="white" d="M422.2,-437.19C417.13,-462.22 409.39,-500.45 403.38,-530.13"/>
<polygon fill="white" stroke="white" points="401.33,-540.24 406.75,-531.13 403.32,-530.44 401.33,-540.24"/>
<text text-anchor="middle" x="522" y="-488.8" font-family="Times,serif" font-size="14.00" fill="white">1,087,402 row(s)/306 chunk(s)</text>
</g>
<!-- 281468003100432 -->
<g id="node15" class="node">
<title>281468003100432</title>
<g id="a_node15"><a xlink:title="Output: 1087402 rows in 306 chunks, 9 ms 938 µs.&#10;Chunks: 0 skipped with no results, &#10;0 skipped with all matching, 0 scanned using binary search.">
<polygon fill="none" stroke="white" points="520.5,-302 334.5,-302 334.5,-218 520.5,-218 520.5,-302"/>
<text text-anchor="middle" x="427.5" y="-286.8" font-family="Times,serif" font-size="14.00" fill="white">TableScan</text>
<text text-anchor="middle" x="427.5" y="-271.8" font-family="Times,serif" font-size="14.00" fill="white">Impl: ColumnLike</text>
<text text-anchor="middle" x="427.5" y="-256.8" font-family="Times,serif" font-size="14.00" fill="white">p_name LIKE &#39;%royal%&#39;</text>
<text text-anchor="middle" x="427.5" y="-225.8" font-family="Times,serif" font-size="14.00" fill="white">9 ms 938 µs</text>
</a>
</g>
</g>
<!-- 281468003100432&#45;&gt;281467997739792 -->
<g id="edge15" class="edge">
<title>281468003100432&#45;&gt;281467997739792</title>
<path fill="none" stroke="white" d="M427.5,-302.23C427.5,-324.32 427.5,-351.31 427.5,-372.62"/>
<polygon fill="white" stroke="white" points="424,-372.88 427.5,-382.88 431,-372.88 424,-372.88"/>
<text text-anchor="middle" x="537" y="-323.8" font-family="Times,serif" font-size="14.00" fill="white">1,087,402 row(s)/306 chunk(s)</text>
</g>
<!-- 281155542607696 -->
<g id="node16" class="node">
<title>281155542607696</title>
<g id="a_node16"><a xlink:title="Output: 20000000 rows in 306 chunks, 1 ms 291 µs.">
<polygon fill="none" stroke="white" points="488.5,-140.5 366.5,-140.5 366.5,-26.5 488.5,-26.5 488.5,-140.5"/>
<text text-anchor="middle" x="427.5" y="-125.3" font-family="Times,serif" font-size="14.00" fill="white">GetTable</text>
<text text-anchor="middle" x="427.5" y="-110.3" font-family="Times,serif" font-size="14.00" fill="white">(part)</text>
<text text-anchor="middle" x="427.5" y="-95.3" font-family="Times,serif" font-size="14.00" fill="white">pruned:</text>
<text text-anchor="middle" x="427.5" y="-80.3" font-family="Times,serif" font-size="14.00" fill="white">0/306 chunk(s)</text>
<text text-anchor="middle" x="427.5" y="-65.3" font-family="Times,serif" font-size="14.00" fill="white">7/9 column(s)</text>
<text text-anchor="middle" x="427.5" y="-34.3" font-family="Times,serif" font-size="14.00" fill="white">1 ms 291 µs</text>
</a>
</g>
</g>
<!-- 281155542607696&#45;&gt;281468003100432 -->
<g id="edge16" class="edge">
<title>281155542607696&#45;&gt;281468003100432</title>
<path fill="none" stroke="white" d="M427.5,-140.67C427.5,-162.25 427.5,-186.74 427.5,-207.83"/>
<polygon fill="white" stroke="white" points="424,-207.87 427.5,-217.87 431,-207.87 424,-207.87"/>
<text text-anchor="middle" x="541.5" y="-188.8" font-family="Times,serif" font-size="14.00" fill="white">20,000,000 row(s)/306 chunk(s)</text>
</g>
<!-- 281468003101072 -->
<g id="node17" class="node">
<title>281468003101072</title>
<g id="a_node17"><a xlink:title="Output: 32624885 rows in 64 chunks, 659 ms 896 µs.&#10;Operator step runtimes:&#10; LeftSideMaterialize 40 ms 252 µs&#10; RightSideMaterialize 434 ms 615 µs&#10; LeftSideTransform 0 ns&#10; RightSideTransform 0 ns&#10; LeftSidePartition 55 ms 92 µs&#10; RightSidePartition 12 ms 762 µs&#10; LeftSideSortBuckets 18 ms 914 µs&#10; RightSideSortBuckets 7 ms 372 µs&#10; GatherRowIds 1 µs 856 ns&#10; FindJoinPartner 32 ms 381 µs&#10; OutputWriting 55 ms 313 µs.">
<polygon fill="none" stroke="white" stroke-width="6.26" points="866,-1037 655,-1037 655,-968 866,-968 866,-1037"/>
<text text-anchor="middle" x="760.5" y="-1021.8" font-family="Times,serif" font-size="14.00" fill="white">JoinSimdSortMerge (Inner)</text>
<text text-anchor="middle" x="760.5" y="-1006.8" font-family="Times,serif" font-size="14.00" fill="white">o_orderkey = l_orderkey</text>
<text text-anchor="middle" x="760.5" y="-975.8" font-family="Times,serif" font-size="14.00" fill="white">659 ms 896 µs</text>
</a>
</g>
</g>
<!-- 281468003101072&#45;&gt;281468003099152 -->
<g id="edge17" class="edge">
<title>281468003101072&#45;&gt;281468003099152</title>
<path fill="none" stroke="white" d="M662.1,-1037.16C618.77,-1051.97 567.75,-1069.43 523.39,-1084.6"/>
<polygon fill="white" stroke="white" points="513.73,-1087.9 524.33,-1087.98 523.2,-1084.67 513.73,-1087.9"/>
<text text-anchor="middle" x="718" y="-1058.8" font-family="Times,serif" font-size="14.00" fill="white">32,624,885 row(s)/64 chunk(s)</text>
</g>
<!-- 281467997743632 -->
<g id="node18" class="node">
<title>281467997743632</title>
<g id="a_node18"><a xlink:title="Output: 150000000 rows in 2289 chunks, 8 ms 112 µs.">
<polygon fill="none" stroke="white" points="1107.5,-909.5 1003.5,-909.5 1003.5,-855.5 1107.5,-855.5 1107.5,-909.5"/>
<text text-anchor="middle" x="1055.5" y="-894.3" font-family="Times,serif" font-size="14.00" fill="white">Validate</text>
<text text-anchor="middle" x="1055.5" y="-863.3" font-family="Times,serif" font-size="14.00" fill="white">8 ms 112 µs</text>
</a>
</g>
</g>
<!-- 281467997743632&#45;&gt;281468003101072 -->
<g id="edge18" class="edge">
<title>281467997743632&#45;&gt;281468003101072</title>
<path fill="none" stroke="white" stroke-width="4.58" d="M1037.02,-909.56C1025.72,-923.6 1010.07,-940.04 992.5,-950 957.32,-969.93 915.08,-982.15 876.34,-989.64"/>
<polygon fill="white" stroke="white" stroke-width="4.58" points="875.88,-989.72 875.15,-985.78 866.05,-991.53 875.88,-989.72"/>
<text text-anchor="middle" x="1137.5" y="-938.8" font-family="Times,serif" font-size="14.00" fill="white">150,000,000 row(s)/2,289 chunk(s)</text>
</g>
<!-- 281155542607248 -->
<g id="node19" class="node">
<title>281155542607248</title>
<g id="a_node19"><a xlink:title="Output: 150000000 rows in 2289 chunks, 6 ms 517 µs.">
<polygon fill="none" stroke="white" points="1130,-797 999,-797 999,-683 1130,-683 1130,-797"/>
<text text-anchor="middle" x="1064.5" y="-781.8" font-family="Times,serif" font-size="14.00" fill="white">GetTable</text>
<text text-anchor="middle" x="1064.5" y="-766.8" font-family="Times,serif" font-size="14.00" fill="white">(orders)</text>
<text text-anchor="middle" x="1064.5" y="-751.8" font-family="Times,serif" font-size="14.00" fill="white">pruned:</text>
<text text-anchor="middle" x="1064.5" y="-736.8" font-family="Times,serif" font-size="14.00" fill="white">0/2289 chunk(s)</text>
<text text-anchor="middle" x="1064.5" y="-721.8" font-family="Times,serif" font-size="14.00" fill="white">7/9 column(s)</text>
<text text-anchor="middle" x="1064.5" y="-690.8" font-family="Times,serif" font-size="14.00" fill="white">6 ms 517 µs</text>
</a>
</g>
</g>
<!-- 281155542607248&#45;&gt;281467997743632 -->
<g id="edge19" class="edge">
<title>281155542607248&#45;&gt;281467997743632</title>
<path fill="none" stroke="white" stroke-width="4.58" d="M1060.89,-797.34C1059.86,-813.43 1058.76,-830.54 1057.83,-845.1"/>
<polygon fill="white" stroke="white" stroke-width="4.58" points="1053.82,-844.97 1057.18,-855.2 1061.82,-845.48 1053.82,-844.97"/>
<text text-anchor="middle" x="1184.5" y="-818.8" font-family="Times,serif" font-size="14.00" fill="white">150,000,000 row(s)/2,289 chunk(s)</text>
</g>
<!-- 281468003100752&#45;&gt;281468003101072 -->
<g id="edge20" class="edge">
<title>281468003100752&#45;&gt;281468003101072</title>
<path fill="none" stroke="white" d="M760.5,-917.31C760.5,-929.78 760.5,-944.1 760.5,-957.34"/>
<polygon fill="white" stroke="white" points="760.5,-967.68 764,-957.68 760.5,-957.68 760.5,-967.68"/>
<text text-anchor="middle" x="874.5" y="-938.8" font-family="Times,serif" font-size="14.00" fill="white">32,624,885 row(s)/256 chunk(s)</text>
</g>
<!-- 281468003100112 -->
<g id="node21" class="node">
<title>281468003100112</title>
<g id="a_node21"><a xlink:title="Output: 1000000 rows in 25 chunks, 14 ms 441 µs.&#10;Operator step runtimes:&#10; LeftSideMaterialize 481 µs 894 ns&#10; RightSideMaterialize 18 µs 176 ns&#10; LeftSideTransform 0 ns&#10; RightSideTransform 0 ns&#10; LeftSidePartition 10 ms 410 µs&#10; RightSidePartition 71 µs 361 ns&#10; LeftSideSortBuckets 2 ms 63 µs&#10; RightSideSortBuckets 445 µs 574 ns&#10; GatherRowIds 832 ns&#10; FindJoinPartner 402 µs 629 ns&#10; OutputWriting 382 µs 245 ns.">
<polygon fill="none" stroke="white" points="937,-774.5 726,-774.5 726,-705.5 937,-705.5 937,-774.5"/>
<text text-anchor="middle" x="831.5" y="-759.3" font-family="Times,serif" font-size="14.00" fill="white">JoinSimdSortMerge (Inner)</text>
<text text-anchor="middle" x="831.5" y="-744.3" font-family="Times,serif" font-size="14.00" fill="white">s_nationkey = n_nationkey</text>
<text text-anchor="middle" x="831.5" y="-713.3" font-family="Times,serif" font-size="14.00" fill="white">14 ms 441 µs</text>
</a>
</g>
</g>
<!-- 281468003100112&#45;&gt;281468003100752 -->
<g id="edge21" class="edge">
<title>281468003100112&#45;&gt;281468003100752</title>
<path fill="none" stroke="white" d="M827.4,-774.63C824.27,-791.96 818.83,-812.97 809.5,-830 807.62,-833.43 805.45,-836.81 803.1,-840.08"/>
<polygon fill="white" stroke="white" points="796.92,-848 805.83,-842.27 803.07,-840.11 796.92,-848"/>
<text text-anchor="middle" x="920.5" y="-818.8" font-family="Times,serif" font-size="14.00" fill="white">1,000,000 row(s)/25 chunk(s)</text>
</g>
<!-- 281467997742096 -->
<g id="node22" class="node">
<title>281467997742096</title>
<g id="a_node22"><a xlink:title="Output: 1000000 rows in 16 chunks, 88 µs 897 ns.">
<polygon fill="none" stroke="white" points="853.5,-602 745.5,-602 745.5,-548 853.5,-548 853.5,-602"/>
<text text-anchor="middle" x="799.5" y="-586.8" font-family="Times,serif" font-size="14.00" fill="white">Validate</text>
<text text-anchor="middle" x="799.5" y="-555.8" font-family="Times,serif" font-size="14.00" fill="white">88 µs 897 ns</text>
</a>
</g>
</g>
<!-- 281467997742096&#45;&gt;281468003100112 -->
<g id="edge22" class="edge">
<title>281467997742096&#45;&gt;281468003100112</title>
<path fill="none" stroke="white" d="M797.17,-602.38C796.23,-620.24 796.21,-644.27 800.5,-665 802.64,-675.34 806.23,-686.04 810.22,-695.98"/>
<polygon fill="white" stroke="white" points="810.24,-696.04 807.02,-697.4 814.14,-705.25 810.24,-696.04"/>
<text text-anchor="middle" x="905.5" y="-653.8" font-family="Times,serif" font-size="14.00" fill="white">1,000,000 row(s)/16 chunk(s)</text>
</g>
<!-- 281155542605008 -->
<g id="node23" class="node">
<title>281155542605008</title>
<g id="a_node23"><a xlink:title="Output: 1000000 rows in 16 chunks, 75 µs 137 ns.">
<polygon fill="none" stroke="white" points="856,-467 743,-467 743,-353 856,-353 856,-467"/>
<text text-anchor="middle" x="799.5" y="-451.8" font-family="Times,serif" font-size="14.00" fill="white">GetTable</text>
<text text-anchor="middle" x="799.5" y="-436.8" font-family="Times,serif" font-size="14.00" fill="white">(supplier)</text>
<text text-anchor="middle" x="799.5" y="-421.8" font-family="Times,serif" font-size="14.00" fill="white">pruned:</text>
<text text-anchor="middle" x="799.5" y="-406.8" font-family="Times,serif" font-size="14.00" fill="white">0/16 chunk(s)</text>
<text text-anchor="middle" x="799.5" y="-391.8" font-family="Times,serif" font-size="14.00" fill="white">5/7 column(s)</text>
<text text-anchor="middle" x="799.5" y="-360.8" font-family="Times,serif" font-size="14.00" fill="white">75 µs 137 ns</text>
</a>
</g>
</g>
<!-- 281155542605008&#45;&gt;281467997742096 -->
<g id="edge23" class="edge">
<title>281155542605008&#45;&gt;281467997742096</title>
<path fill="none" stroke="white" d="M799.5,-467.1C799.5,-490.46 799.5,-516.93 799.5,-537.68"/>
<polygon fill="white" stroke="white" points="796,-537.97 799.5,-547.97 803,-537.97 796,-537.97"/>
<text text-anchor="middle" x="904.5" y="-488.8" font-family="Times,serif" font-size="14.00" fill="white">1,000,000 row(s)/16 chunk(s)</text>
</g>
<!-- 281425656501520 -->
<g id="node24" class="node">
<title>281425656501520</title>
<g id="a_node24"><a xlink:title="Output: 25 rows in 1 chunk, 7 µs 712 ns.">
<polygon fill="none" stroke="white" points="1082,-602 983,-602 983,-548 1082,-548 1082,-602"/>
<text text-anchor="middle" x="1032.5" y="-586.8" font-family="Times,serif" font-size="14.00" fill="white">Validate</text>
<text text-anchor="middle" x="1032.5" y="-555.8" font-family="Times,serif" font-size="14.00" fill="white">7 µs 712 ns</text>
</a>
</g>
</g>
<!-- 281425656501520&#45;&gt;281468003100112 -->
<g id="edge24" class="edge">
<title>281425656501520&#45;&gt;281468003100112</title>
<path fill="none" stroke="white" d="M1032.14,-602.22C1030.54,-621.64 1025.45,-647.63 1010.5,-665 1000.31,-676.85 973.92,-689.84 944.45,-701.6"/>
<polygon fill="white" stroke="white" points="934.78,-705.36 945.37,-704.99 944.1,-701.73 934.78,-705.36"/>
<text text-anchor="middle" x="1093" y="-653.8" font-family="Times,serif" font-size="14.00" fill="white">25 row(s)/1 chunk(s)</text>
</g>
<!-- 281155542606800 -->
<g id="node25" class="node">
<title>281155542606800</title>
<g id="a_node25"><a xlink:title="Output: 25 rows in 1 chunk, 9 µs 344 ns.">
<polygon fill="none" stroke="white" points="1089,-467 976,-467 976,-353 1089,-353 1089,-467"/>
<text text-anchor="middle" x="1032.5" y="-451.8" font-family="Times,serif" font-size="14.00" fill="white">GetTable</text>
<text text-anchor="middle" x="1032.5" y="-436.8" font-family="Times,serif" font-size="14.00" fill="white">(nation)</text>
<text text-anchor="middle" x="1032.5" y="-421.8" font-family="Times,serif" font-size="14.00" fill="white">pruned:</text>
<text text-anchor="middle" x="1032.5" y="-406.8" font-family="Times,serif" font-size="14.00" fill="white">0/1 chunk(s)</text>
<text text-anchor="middle" x="1032.5" y="-391.8" font-family="Times,serif" font-size="14.00" fill="white">2/4 column(s)</text>
<text text-anchor="middle" x="1032.5" y="-360.8" font-family="Times,serif" font-size="14.00" fill="white">9 µs 344 ns</text>
</a>
</g>
</g>
<!-- 281155542606800&#45;&gt;281425656501520 -->
<g id="edge25" class="edge">
<title>281155542606800&#45;&gt;281425656501520</title>
<path fill="none" stroke="white" d="M1032.5,-467.1C1032.5,-490.46 1032.5,-516.93 1032.5,-537.68"/>
<polygon fill="white" stroke="white" points="1029,-537.97 1032.5,-547.97 1036,-537.97 1029,-537.97"/>
<text text-anchor="middle" x="1106" y="-488.8" font-family="Times,serif" font-size="14.00" fill="white">25 row(s)/1 chunk(s)</text>
</g>
<!-- 0 -->
<g id="node26" class="node">
<title>0</title>
<polygon fill="none" stroke="white" points="506.5,-0.5 506.5,-166.5 852.5,-166.5 852.5,-0.5 506.5,-0.5"/>
<text text-anchor="middle" x="679.5" y="-151.3" font-family="Times,serif" font-size="14.00" fill="white">Total by operator</text>
<polyline fill="none" stroke="white" points="506.5,-143.5 852.5,-143.5 "/>
<text text-anchor="end" x="660.5" y="-128.3" font-family="Times,serif" font-size="14.00" fill="white">JoinSimdSortMerge </text>
<text text-anchor="end" x="660.5" y="-113.3" font-family="Times,serif" font-size="14.00" fill="white"> AggregateHash </text>
<text text-anchor="end" x="660.5" y="-98.3" font-family="Times,serif" font-size="14.00" fill="white"> Projection </text>
<text text-anchor="end" x="660.5" y="-83.3" font-family="Times,serif" font-size="14.00" fill="white"> TableScan </text>
<text text-anchor="end" x="660.5" y="-68.3" font-family="Times,serif" font-size="14.00" fill="white"> Validate </text>
<text text-anchor="end" x="660.5" y="-53.3" font-family="Times,serif" font-size="14.00" fill="white"> GetTable </text>
<text text-anchor="end" x="660.5" y="-38.3" font-family="Times,serif" font-size="14.00" fill="white"> Alias </text>
<text text-anchor="end" x="660.5" y="-23.3" font-family="Times,serif" font-size="14.00" fill="white"> Sort </text>
<text text-anchor="end" x="660.5" y="-8.3" font-family="Times,serif" font-size="14.00" fill="white">total</text>
<polyline fill="none" stroke="white" points="668.5,-0.5 668.5,-143.5 "/>
<text text-anchor="start" x="676.5" y="-128.3" font-family="Times,serif" font-size="14.00" fill="white">3 s 280 ms </text>
<text text-anchor="start" x="676.5" y="-113.3" font-family="Times,serif" font-size="14.00" fill="white"> 1 s 334 ms </text>
<text text-anchor="start" x="676.5" y="-98.3" font-family="Times,serif" font-size="14.00" fill="white"> 1 s 24 ms </text>
<text text-anchor="start" x="676.5" y="-83.3" font-family="Times,serif" font-size="14.00" fill="white"> 385 ms 720 µs </text>
<text text-anchor="start" x="676.5" y="-68.3" font-family="Times,serif" font-size="14.00" fill="white"> 122 ms 237 µs </text>
<text text-anchor="start" x="676.5" y="-53.3" font-family="Times,serif" font-size="14.00" fill="white"> 32 ms 346 µs </text>
<text text-anchor="start" x="676.5" y="-38.3" font-family="Times,serif" font-size="14.00" fill="white"> 149 µs 186 ns </text>
<text text-anchor="start" x="676.5" y="-23.3" font-family="Times,serif" font-size="14.00" fill="white"> 101 µs 985 ns </text>
<text text-anchor="start" x="676.5" y="-8.3" font-family="Times,serif" font-size="14.00" fill="white"> 6 s 178 ms </text>
<polyline fill="none" stroke="white" points="799.5,-0.5 799.5,-143.5 "/>
<text text-anchor="start" x="807.5" y="-128.3" font-family="Times,serif" font-size="14.00" fill="white">53 %</text>
<text text-anchor="start" x="807.5" y="-113.3" font-family="Times,serif" font-size="14.00" fill="white">22 %</text>
<text text-anchor="start" x="807.5" y="-98.3" font-family="Times,serif" font-size="14.00" fill="white">17 %</text>
<text text-anchor="start" x="807.5" y="-83.3" font-family="Times,serif" font-size="14.00" fill="white">6 %</text>
<text text-anchor="start" x="807.5" y="-68.3" font-family="Times,serif" font-size="14.00" fill="white">2 %</text>
<text text-anchor="start" x="807.5" y="-53.3" font-family="Times,serif" font-size="14.00" fill="white">1 %</text>
<text text-anchor="start" x="807.5" y="-38.3" font-family="Times,serif" font-size="14.00" fill="white">0 %</text>
<text text-anchor="start" x="807.5" y="-23.3" font-family="Times,serif" font-size="14.00" fill="white">0 %</text>
<text text-anchor="start" x="807.5" y="-8.3" font-family="Times,serif" font-size="14.00" fill="white"> </text>
</g>
</g>
</svg>
