<?xml version="1.0" encoding="UTF-8" standalone="no"?>
<!DOCTYPE svg PUBLIC "-//W3C//DTD SVG 1.1//EN"
 "http://www.w3.org/Graphics/SVG/1.1/DTD/svg11.dtd">
<!-- Generated by graphviz version 2.43.0 (0)
 -->
<!-- Title: G Pages: 1 -->
<svg width="1403pt" height="1439pt"
 viewBox="0.00 0.00 1403.00 1439.00" xmlns="http://www.w3.org/2000/svg" xmlns:xlink="http://www.w3.org/1999/xlink">
<g id="graph0" class="graph" transform="scale(1 1) rotate(0) translate(4 1435)">
<title>G</title>
<polygon fill="black" stroke="transparent" points="-4,4 -4,-1435 1399,-1435 1399,4 -4,4"/>
<text text-anchor="middle" x="319.5" y="-1415.8" font-family="Times,serif" font-size="14.00" fill="white">For tooltips with advanced information, hover your mouse over vertices or edge labels.</text>
<!-- 281446524207376 -->
<g id="node1" class="node">
<title>281446524207376</title>
<polygon fill="none" stroke="white" points="1077.5,-1376 840.5,-1376 840.5,-1340 1077.5,-1340 1077.5,-1376"/>
<text text-anchor="middle" x="959" y="-1354.3" font-family="Times,serif" font-size="14.00" fill="white">[Projection] s_name, s_address</text>
</g>
<!-- 281411321567696 -->
<g id="node2" class="node">
<title>281411321567696</title>
<polygon fill="none" stroke="white" points="1061,-1289 857,-1289 857,-1253 1061,-1253 1061,-1289"/>
<text text-anchor="middle" x="959" y="-1267.3" font-family="Times,serif" font-size="14.00" fill="white">[Sort] s_name (Ascending)</text>
</g>
<!-- 281411321567696&#45;&gt;281446524207376 -->
<g id="edge1" class="edge">
<title>281411321567696&#45;&gt;281446524207376</title>
<path fill="none" stroke="white" d="M959,-1289.2C959,-1300.84 959,-1316.45 959,-1329.76"/>
<polygon fill="white" stroke="white" points="955.5,-1329.82 959,-1339.82 962.5,-1329.82 955.5,-1329.82"/>
<g id="a_edge1&#45;label"><a xlink:title="Output Expressions: &#10; (1) s_suppkey&#10; (2) s_name&#10; (3) s_address&#10; (4) s_nationkey&#10;&#10;Unique Column Combinations: &#10; (1) {s_suppkey}&#10;&#10;Functional Dependencies (trivial): &#10; (1) {s_suppkey} =&gt; {s_name, s_address, s_nationkey}&#10;&#10;Functional Dependencies (non&#45;trivial): &#10; &lt;none&gt;">
<text text-anchor="middle" x="1071.5" y="-1310.8" font-family="Times,serif" font-size="14.00" fill="white"> 40,000.0 row(s) | 100.0% estd.</text>
</a>
</g>
</g>
<!-- 281446803202768 -->
<g id="node3" class="node">
<title>281446803202768</title>
<polygon fill="none" stroke="white" points="1126.5,-1202 791.5,-1202 791.5,-1166 1126.5,-1166 1126.5,-1202"/>
<text text-anchor="middle" x="959" y="-1180.3" font-family="Times,serif" font-size="14.00" fill="white">[Join] Mode: Semi [s_suppkey = ps_suppkey]</text>
</g>
<!-- 281446803202768&#45;&gt;281411321567696 -->
<g id="edge2" class="edge">
<title>281446803202768&#45;&gt;281411321567696</title>
<path fill="none" stroke="white" d="M959,-1202.2C959,-1213.84 959,-1229.45 959,-1242.76"/>
<polygon fill="white" stroke="white" points="955.5,-1242.82 959,-1252.82 962.5,-1242.82 955.5,-1242.82"/>
<g id="a_edge2&#45;label"><a xlink:title="Output Expressions: &#10; (1) s_suppkey&#10; (2) s_name&#10; (3) s_address&#10; (4) s_nationkey&#10;&#10;Unique Column Combinations: &#10; (1) {s_suppkey}&#10;&#10;Functional Dependencies (trivial): &#10; (1) {s_suppkey} =&gt; {s_name, s_address, s_nationkey}&#10;&#10;Functional Dependencies (non&#45;trivial): &#10; &lt;none&gt;">
<text text-anchor="middle" x="1071.5" y="-1223.8" font-family="Times,serif" font-size="14.00" fill="white"> 40,000.0 row(s) | 100.0% estd.</text>
</a>
</g>
</g>
<!-- 281234211344944 -->
<g id="node4" class="node">
<title>281234211344944</title>
<polygon fill="none" stroke="white" points="992.5,-930.5 907.5,-930.5 907.5,-894.5 992.5,-894.5 992.5,-930.5"/>
<text text-anchor="middle" x="950" y="-908.8" font-family="Times,serif" font-size="14.00" fill="white">[Validate]</text>
</g>
<!-- 281234211344944&#45;&gt;281446803202768 -->
<g id="edge3" class="edge">
<title>281234211344944&#45;&gt;281446803202768</title>
<path fill="none" stroke="white" d="M992.67,-917.74C1018.22,-922.73 1048.8,-933.55 1065,-957 1113.25,-1026.84 1114.73,-1079.2 1065,-1148 1061.66,-1152.61 1057.7,-1156.63 1053.29,-1160.12"/>
<polygon fill="white" stroke="white" points="1053.17,-1160.21 1051.19,-1157.32 1044.92,-1165.87 1053.17,-1160.21"/>
<g id="a_edge3&#45;label"><a xlink:title="Output Expressions: &#10; (1) s_suppkey&#10; (2) s_name&#10; (3) s_address&#10; (4) s_nationkey&#10;&#10;Unique Column Combinations: &#10; (1) {s_suppkey}&#10;&#10;Functional Dependencies (trivial): &#10; (1) {s_suppkey} =&gt; {s_name, s_address, s_nationkey}&#10;&#10;Functional Dependencies (non&#45;trivial): &#10; &lt;none&gt;">
<text text-anchor="middle" x="1214.5" y="-1049.8" font-family="Times,serif" font-size="14.00" fill="white"> 40,000.0 row(s) | 100.0% estd.</text>
</a>
</g>
</g>
<!-- 281411094786640 -->
<g id="node11" class="node">
<title>281411094786640</title>
<polygon fill="none" stroke="white" points="1006.5,-1028 671.5,-1028 671.5,-990 1006.5,-990 1006.5,-1028"/>
<text text-anchor="middle" x="839" y="-1012.8" font-family="Times,serif" font-size="14.00" fill="white">[Join] Mode: Semi [s_suppkey = ps_suppkey]</text>
<text text-anchor="middle" x="839" y="-997.8" font-family="Times,serif" font-size="14.00" fill="white">(SemiJoinReductionRule)</text>
</g>
<!-- 281234211344944&#45;&gt;281411094786640 -->
<g id="edge4" class="edge">
<title>281234211344944&#45;&gt;281411094786640</title>
<path fill="none" stroke="white" d="M907.35,-918.8C883.35,-924.2 855.23,-935.07 840,-957 835.43,-963.58 833.97,-971.87 833.98,-979.84"/>
<polygon fill="white" stroke="white" points="834.72,-989.97 837.48,-979.74 833.99,-980 834.72,-989.97"/>
<g id="a_edge4&#45;label"><a xlink:title="Output Expressions: &#10; (1) s_suppkey&#10; (2) s_name&#10; (3) s_address&#10; (4) s_nationkey&#10;&#10;Unique Column Combinations: &#10; (1) {s_suppkey}&#10;&#10;Functional Dependencies (trivial): &#10; (1) {s_suppkey} =&gt; {s_name, s_address, s_nationkey}&#10;&#10;Functional Dependencies (non&#45;trivial): &#10; &lt;none&gt;">
<text text-anchor="middle" x="952.5" y="-960.8" font-family="Times,serif" font-size="14.00" fill="white"> 40,000.0 row(s) | 100.0% estd.</text>
</a>
</g>
</g>
<!-- 281446803196816 -->
<g id="node5" class="node">
<title>281446803196816</title>
<polygon fill="none" stroke="white" points="1124.5,-834 775.5,-834 775.5,-798 1124.5,-798 1124.5,-834"/>
<text text-anchor="middle" x="950" y="-812.3" font-family="Times,serif" font-size="14.00" fill="white">[Join] Mode: Semi [s_nationkey = n_nationkey]</text>
</g>
<!-- 281446803196816&#45;&gt;281234211344944 -->
<g id="edge5" class="edge">
<title>281446803196816&#45;&gt;281234211344944</title>
<path fill="none" stroke="white" d="M950,-834.33C950,-848.19 950,-867.87 950,-883.89"/>
<polygon fill="white" stroke="white" points="946.5,-884.28 950,-894.28 953.5,-884.28 946.5,-884.28"/>
<g id="a_edge5&#45;label"><a xlink:title="Output Expressions: &#10; (1) s_suppkey&#10; (2) s_name&#10; (3) s_address&#10; (4) s_nationkey&#10;&#10;Unique Column Combinations: &#10; (1) {s_suppkey}&#10;&#10;Functional Dependencies (trivial): &#10; (1) {s_suppkey} =&gt; {s_name, s_address, s_nationkey}&#10;&#10;Functional Dependencies (non&#45;trivial): &#10; &lt;none&gt;">
<text text-anchor="middle" x="1053.5" y="-856.8" font-family="Times,serif" font-size="14.00" fill="white"> 40,000.0 row(s) | 4.0% estd.</text>
</a>
</g>
</g>
<!-- 281446533854352 -->
<g id="node6" class="node">
<title>281446533854352</title>
<polygon fill="none" stroke="white" points="1097.5,-746 766.5,-746 766.5,-708 1097.5,-708 1097.5,-746"/>
<text text-anchor="middle" x="932" y="-730.8" font-family="Times,serif" font-size="14.00" fill="white">[StoredTable] Name: &#39;supplier&#39; pruned: 0/16</text>
<text text-anchor="middle" x="932" y="-715.8" font-family="Times,serif" font-size="14.00" fill="white">chunk(s), 3/7 column(s)</text>
</g>
<!-- 281446533854352&#45;&gt;281446803196816 -->
<g id="edge6" class="edge">
<title>281446533854352&#45;&gt;281446803196816</title>
<path fill="none" stroke="white" d="M930.52,-746.17C930.18,-756.01 930.49,-768.31 933,-779 933.76,-782.23 934.83,-785.51 936.07,-788.72"/>
<polygon fill="white" stroke="white" points="936.11,-788.81 932.91,-790.23 940.15,-797.96 936.11,-788.81"/>
<g id="a_edge6&#45;label"><a xlink:title="Output Expressions: &#10; (1) s_suppkey&#10; (2) s_name&#10; (3) s_address&#10; (4) s_nationkey&#10;&#10;Unique Column Combinations: &#10; (1) {s_suppkey}&#10;&#10;Functional Dependencies (trivial): &#10; (1) {s_suppkey} =&gt; {s_name, s_address, s_nationkey}&#10;&#10;Functional Dependencies (non&#45;trivial): &#10; &lt;none&gt;">
<text text-anchor="middle" x="1056.5" y="-767.8" font-family="Times,serif" font-size="14.00" fill="white"> 1,000,000.0 row(s) | 100.0% estd.</text>
</a>
</g>
</g>
<!-- 281446524202576 -->
<g id="node7" class="node">
<title>281446524202576</title>
<polygon fill="none" stroke="white" points="1244.5,-745 1159.5,-745 1159.5,-709 1244.5,-709 1244.5,-745"/>
<text text-anchor="middle" x="1202" y="-723.3" font-family="Times,serif" font-size="14.00" fill="white">[Validate]</text>
</g>
<!-- 281446524202576&#45;&gt;281446803196816 -->
<g id="edge7" class="edge">
<title>281446524202576&#45;&gt;281446803196816</title>
<path fill="none" stroke="white" d="M1198.99,-745.32C1196.09,-756.66 1190.52,-770.85 1180,-779 1170.9,-786.05 1154.46,-791.75 1134.39,-796.35"/>
<polygon fill="white" stroke="white" points="1124.6,-798.45 1135.11,-799.77 1134.38,-796.35 1124.6,-798.45"/>
<g id="a_edge7&#45;label"><a xlink:title="Output Expressions: &#10; (1) n_nationkey&#10; (2) n_name&#10;&#10;Unique Column Combinations: &#10; (1) {n_nationkey}&#10;&#10;Functional Dependencies (trivial): &#10; (1) {n_nationkey} =&gt; {n_name}&#10;&#10;Functional Dependencies (non&#45;trivial): &#10; &lt;none&gt;">
<text text-anchor="middle" x="1283" y="-767.8" font-family="Times,serif" font-size="14.00" fill="white"> 1.0 row(s) | 100.0% estd.</text>
</a>
</g>
</g>
<!-- 281446803199312 -->
<g id="node8" class="node">
<title>281446803199312</title>
<polygon fill="none" stroke="white" points="1312,-657 1092,-657 1092,-621 1312,-621 1312,-657"/>
<text text-anchor="middle" x="1202" y="-635.3" font-family="Times,serif" font-size="14.00" fill="white">[Predicate] n_name = &#39;IRAQ&#39;</text>
</g>
<!-- 281446803199312&#45;&gt;281446524202576 -->
<g id="edge8" class="edge">
<title>281446803199312&#45;&gt;281446524202576</title>
<path fill="none" stroke="white" d="M1202,-657.4C1202,-669.25 1202,-685.18 1202,-698.71"/>
<polygon fill="white" stroke="white" points="1198.5,-698.92 1202,-708.92 1205.5,-698.92 1198.5,-698.92"/>
<g id="a_edge8&#45;label"><a xlink:title="Output Expressions: &#10; (1) n_nationkey&#10; (2) n_name&#10;&#10;Unique Column Combinations: &#10; (1) {n_nationkey}&#10;&#10;Functional Dependencies (trivial): &#10; (1) {n_nationkey} =&gt; {n_name}&#10;&#10;Functional Dependencies (non&#45;trivial): &#10; &lt;none&gt;">
<text text-anchor="middle" x="1285" y="-678.8" font-family="Times,serif" font-size="14.00" fill="white"> 1.0 row(s) | 4.0% estd.</text>
</a>
</g>
</g>
<!-- 281446533855952 -->
<g id="node9" class="node">
<title>281446533855952</title>
<polygon fill="none" stroke="white" points="1391,-570 1013,-570 1013,-532 1391,-532 1391,-570"/>
<text text-anchor="middle" x="1202" y="-554.8" font-family="Times,serif" font-size="14.00" fill="white">[StoredTable] Name: &#39;nation&#39; pruned: 0/1 chunk(s),</text>
<text text-anchor="middle" x="1202" y="-539.8" font-family="Times,serif" font-size="14.00" fill="white">2/4 column(s)</text>
</g>
<!-- 281446533855952&#45;&gt;281446803199312 -->
<g id="edge9" class="edge">
<title>281446533855952&#45;&gt;281446803199312</title>
<path fill="none" stroke="white" d="M1202,-570.24C1202,-582.07 1202,-597.68 1202,-610.95"/>
<polygon fill="white" stroke="white" points="1198.5,-610.96 1202,-620.96 1205.5,-610.96 1198.5,-610.96"/>
<g id="a_edge9&#45;label"><a xlink:title="Output Expressions: &#10; (1) n_nationkey&#10; (2) n_name&#10;&#10;Unique Column Combinations: &#10; (1) {n_nationkey}&#10;&#10;Functional Dependencies (trivial): &#10; (1) {n_nationkey} =&gt; {n_name}&#10;&#10;Functional Dependencies (non&#45;trivial): &#10; &lt;none&gt;">
<text text-anchor="middle" x="1298.5" y="-591.8" font-family="Times,serif" font-size="14.00" fill="white"> 25.0 row(s) | 100.0% estd.</text>
</a>
</g>
</g>
<!-- 281446524215376 -->
<g id="node10" class="node">
<title>281446524215376</title>
<polygon fill="none" stroke="white" points="932.5,-1115 745.5,-1115 745.5,-1079 932.5,-1079 932.5,-1115"/>
<text text-anchor="middle" x="839" y="-1093.3" font-family="Times,serif" font-size="14.00" fill="white">[Projection] ps_suppkey</text>
</g>
<!-- 281446524215376&#45;&gt;281446803202768 -->
<g id="edge10" class="edge">
<title>281446524215376&#45;&gt;281446803202768</title>
<path fill="none" stroke="white" d="M834.58,-1115.42C832.99,-1125.88 833.04,-1138.89 840,-1148 843.51,-1152.6 847.6,-1156.62 852.1,-1160.13"/>
<polygon fill="white" stroke="white" points="860.62,-1165.91 854.31,-1157.4 852.35,-1160.29 860.62,-1165.91"/>
<g id="a_edge10&#45;label"><a xlink:title="Output Expressions: &#10; (1) ps_suppkey&#10;&#10;Unique Column Combinations: &#10; &lt;none&gt;&#10;&#10;Functional Dependencies (trivial): &#10; &lt;none&gt;&#10;&#10;Functional Dependencies (non&#45;trivial): &#10; &lt;none&gt;">
<text text-anchor="middle" x="952.5" y="-1136.8" font-family="Times,serif" font-size="14.00" fill="white"> 40,000.0 row(s) | 100.0% estd.</text>
</a>
</g>
</g>
<!-- 281411094786640&#45;&gt;281446524215376 -->
<g id="edge11" class="edge">
<title>281411094786640&#45;&gt;281446524215376</title>
<path fill="none" stroke="white" d="M839,-1028.24C839,-1040.07 839,-1055.68 839,-1068.95"/>
<polygon fill="white" stroke="white" points="835.5,-1068.96 839,-1078.96 842.5,-1068.96 835.5,-1068.96"/>
<g id="a_edge11&#45;label"><a xlink:title="Output Expressions: &#10; (1) ps_partkey&#10; (2) ps_suppkey&#10; (3) ps_availqty&#10;&#10;Unique Column Combinations: &#10; (1) {ps_partkey, ps_suppkey}&#10;&#10;Functional Dependencies (trivial): &#10; (1) {ps_partkey, ps_suppkey} =&gt; {ps_availqty}&#10;&#10;Functional Dependencies (non&#45;trivial): &#10; &lt;none&gt;">
<text text-anchor="middle" x="942.5" y="-1049.8" font-family="Times,serif" font-size="14.00" fill="white"> 40,000.0 row(s) | 5.0% estd.</text>
</a>
</g>
</g>
<!-- 281446803204112 -->
<g id="node12" class="node">
<title>281446803204112</title>
<polygon fill="none" stroke="white" points="768,-939 396,-939 396,-886 768,-886 768,-939"/>
<text text-anchor="middle" x="582" y="-923.8" font-family="Times,serif" font-size="14.00" fill="white">[Join] Mode: Semi [ps_suppkey = l_suppkey]</text>
<text text-anchor="middle" x="582" y="-908.8" font-family="Times,serif" font-size="14.00" fill="white">[ps_availqty &gt; 0.5 * SUM(l_quantity)] [ps_partkey</text>
<text text-anchor="middle" x="582" y="-893.8" font-family="Times,serif" font-size="14.00" fill="white">= l_partkey]</text>
</g>
<!-- 281446803204112&#45;&gt;281411094786640 -->
<g id="edge12" class="edge">
<title>281446803204112&#45;&gt;281411094786640</title>
<path fill="none" stroke="white" d="M582.41,-939.25C583.97,-950.86 587.89,-963.79 597,-972 608.37,-982.25 632.53,-989.59 661.38,-994.83"/>
<polygon fill="white" stroke="white" points="661.47,-994.85 660.88,-998.3 671.33,-996.53 661.47,-994.85"/>
<g id="a_edge12&#45;label"><a xlink:title="Output Expressions: &#10; (1) ps_partkey&#10; (2) ps_suppkey&#10; (3) ps_availqty&#10;&#10;Unique Column Combinations: &#10; (1) {ps_partkey, ps_suppkey}&#10;&#10;Functional Dependencies (trivial): &#10; (1) {ps_partkey, ps_suppkey} =&gt; {ps_availqty}&#10;&#10;Functional Dependencies (non&#45;trivial): &#10; &lt;none&gt;">
<text text-anchor="middle" x="714" y="-960.8" font-family="Times,serif" font-size="14.00" fill="white"> 799,989.1 row(s) | 100.0% estd.</text>
</a>
</g>
</g>
<!-- 281446524215216 -->
<g id="node13" class="node">
<title>281446524215216</title>
<polygon fill="none" stroke="white" points="681.5,-480 596.5,-480 596.5,-444 681.5,-444 681.5,-480"/>
<text text-anchor="middle" x="639" y="-458.3" font-family="Times,serif" font-size="14.00" fill="white">[Validate]</text>
</g>
<!-- 281446524215216&#45;&gt;281446803204112 -->
<g id="edge13" class="edge">
<title>281446524215216&#45;&gt;281446803204112</title>
<path fill="none" stroke="white" d="M681.82,-479.33C690.85,-484.46 699.58,-490.95 706,-499 720.65,-517.38 720,-526.49 720,-550 720,-550 720,-550 720,-817 720,-840.51 722.03,-850.81 706,-868 701.66,-872.65 696.79,-876.81 691.57,-880.52"/>
<polygon fill="white" stroke="white" points="691.49,-880.57 689.59,-877.63 683.08,-885.99 691.49,-880.57"/>
<g id="a_edge13&#45;label"><a xlink:title="Output Expressions: &#10; (1) ps_partkey&#10; (2) ps_suppkey&#10; (3) ps_availqty&#10;&#10;Unique Column Combinations: &#10; (1) {ps_partkey, ps_suppkey}&#10;&#10;Functional Dependencies (trivial): &#10; (1) {ps_partkey, ps_suppkey} =&gt; {ps_availqty}&#10;&#10;Functional Dependencies (non&#45;trivial): &#10; &lt;none&gt;">
<text text-anchor="middle" x="837" y="-678.8" font-family="Times,serif" font-size="14.00" fill="white"> 799,989.2 row(s) | 100.0% estd.</text>
</a>
</g>
</g>
<!-- 281411321565776 -->
<g id="node23" class="node">
<title>281411321565776</title>
<polygon fill="none" stroke="white" points="624.5,-570 301.5,-570 301.5,-532 624.5,-532 624.5,-570"/>
<text text-anchor="middle" x="463" y="-554.8" font-family="Times,serif" font-size="14.00" fill="white">[Join] Mode: Semi [ps_partkey = l_partkey]</text>
<text text-anchor="middle" x="463" y="-539.8" font-family="Times,serif" font-size="14.00" fill="white">(SemiJoinReductionRule)</text>
</g>
<!-- 281446524215216&#45;&gt;281411321565776 -->
<g id="edge14" class="edge">
<title>281446524215216&#45;&gt;281411321565776</title>
<path fill="none" stroke="white" d="M596.33,-466.82C552.66,-471.63 488.87,-481.48 472,-499 466.21,-505.01 463.44,-513.37 462.25,-521.58"/>
<polygon fill="white" stroke="white" points="461.49,-531.71 465.73,-522 462.24,-521.74 461.49,-531.71"/>
<g id="a_edge14&#45;label"><a xlink:title="Output Expressions: &#10; (1) ps_partkey&#10; (2) ps_suppkey&#10; (3) ps_availqty&#10;&#10;Unique Column Combinations: &#10; (1) {ps_partkey, ps_suppkey}&#10;&#10;Functional Dependencies (trivial): &#10; (1) {ps_partkey, ps_suppkey} =&gt; {ps_availqty}&#10;&#10;Functional Dependencies (non&#45;trivial): &#10; &lt;none&gt;">
<text text-anchor="middle" x="589" y="-502.8" font-family="Times,serif" font-size="14.00" fill="white"> 799,989.2 row(s) | 100.0% estd.</text>
</a>
</g>
</g>
<!-- 281446803203152 -->
<g id="node14" class="node">
<title>281446803203152</title>
<polygon fill="none" stroke="white" points="803,-391 475,-391 475,-355 803,-355 803,-391"/>
<text text-anchor="middle" x="639" y="-369.3" font-family="Times,serif" font-size="14.00" fill="white">[Join] Mode: Semi [ps_partkey = p_partkey]</text>
</g>
<!-- 281446803203152&#45;&gt;281446524215216 -->
<g id="edge15" class="edge">
<title>281446803203152&#45;&gt;281446524215216</title>
<path fill="none" stroke="white" d="M639,-391.19C639,-403.34 639,-419.89 639,-433.82"/>
<polygon fill="white" stroke="white" points="635.5,-433.85 639,-443.85 642.5,-433.85 635.5,-433.85"/>
<g id="a_edge15&#45;label"><a xlink:title="Output Expressions: &#10; (1) ps_partkey&#10; (2) ps_suppkey&#10; (3) ps_availqty&#10;&#10;Unique Column Combinations: &#10; (1) {ps_partkey, ps_suppkey}&#10;&#10;Functional Dependencies (trivial): &#10; (1) {ps_partkey, ps_suppkey} =&gt; {ps_availqty}&#10;&#10;Functional Dependencies (non&#45;trivial): &#10; &lt;none&gt;">
<text text-anchor="middle" x="747" y="-413.8" font-family="Times,serif" font-size="14.00" fill="white"> 799,989.2 row(s) | 1.0% estd.</text>
</a>
</g>
</g>
<!-- 281446533854992 -->
<g id="node15" class="node">
<title>281446533854992</title>
<polygon fill="none" stroke="white" points="676.5,-303 321.5,-303 321.5,-265 676.5,-265 676.5,-303"/>
<text text-anchor="middle" x="499" y="-287.8" font-family="Times,serif" font-size="14.00" fill="white">[StoredTable] Name: &#39;partsupp&#39; pruned: 0/1221</text>
<text text-anchor="middle" x="499" y="-272.8" font-family="Times,serif" font-size="14.00" fill="white">chunk(s), 2/5 column(s)</text>
</g>
<!-- 281446533854992&#45;&gt;281446803203152 -->
<g id="edge16" class="edge">
<title>281446533854992&#45;&gt;281446803203152</title>
<path fill="none" stroke="white" stroke-width="3.03" d="M495.15,-303.42C494.03,-314.07 494.69,-327.08 502,-336 507,-342.11 518.11,-347.41 531.94,-351.94"/>
<polygon fill="white" stroke="white" stroke-width="3.03" points="532.34,-352.06 531.33,-355.41 541.92,-354.95 532.34,-352.06"/>
<g id="a_edge16&#45;label"><a xlink:title="Output Expressions: &#10; (1) ps_partkey&#10; (2) ps_suppkey&#10; (3) ps_availqty&#10;&#10;Unique Column Combinations: &#10; (1) {ps_partkey, ps_suppkey}&#10;&#10;Functional Dependencies (trivial): &#10; (1) {ps_partkey, ps_suppkey} =&gt; {ps_availqty}&#10;&#10;Functional Dependencies (non&#45;trivial): &#10; &lt;none&gt;">
<text text-anchor="middle" x="630" y="-324.8" font-family="Times,serif" font-size="14.00" fill="white"> 80,000,000.0 row(s) | 100.0% estd.</text>
</a>
</g>
</g>
<!-- 281446524216176 -->
<g id="node16" class="node">
<title>281446524216176</title>
<polygon fill="none" stroke="white" points="869.5,-302 694.5,-302 694.5,-266 869.5,-266 869.5,-302"/>
<text text-anchor="middle" x="782" y="-280.3" font-family="Times,serif" font-size="14.00" fill="white">[Projection] p_partkey</text>
</g>
<!-- 281446524216176&#45;&gt;281446803203152 -->
<g id="edge17" class="edge">
<title>281446524216176&#45;&gt;281446803203152</title>
<path fill="none" stroke="white" d="M777.76,-302.38C774.22,-313.45 768.07,-327.3 758,-336 751.35,-341.74 743.81,-346.57 735.83,-350.62"/>
<polygon fill="white" stroke="white" points="726.66,-354.88 737.2,-353.84 735.73,-350.67 726.66,-354.88"/>
<g id="a_edge17&#45;label"><a xlink:title="Output Expressions: &#10; (1) p_partkey&#10;&#10;Unique Column Combinations: &#10; (1) {p_partkey}&#10;&#10;Functional Dependencies (trivial): &#10; &lt;none&gt;&#10;&#10;Functional Dependencies (non&#45;trivial): &#10; &lt;none&gt;">
<text text-anchor="middle" x="887" y="-324.8" font-family="Times,serif" font-size="14.00" fill="white"> 199,997.4 row(s) | 100.0% estd.</text>
</a>
</g>
</g>
<!-- 281446524216016 -->
<g id="node17" class="node">
<title>281446524216016</title>
<polygon fill="none" stroke="white" points="824.5,-214 739.5,-214 739.5,-178 824.5,-178 824.5,-214"/>
<text text-anchor="middle" x="782" y="-192.3" font-family="Times,serif" font-size="14.00" fill="white">[Validate]</text>
</g>
<!-- 281446524216016&#45;&gt;281446524216176 -->
<g id="edge18" class="edge">
<title>281446524216016&#45;&gt;281446524216176</title>
<path fill="none" stroke="white" d="M782,-214.4C782,-226.25 782,-242.18 782,-255.71"/>
<polygon fill="white" stroke="white" points="778.5,-255.92 782,-265.92 785.5,-255.92 778.5,-255.92"/>
<g id="a_edge18&#45;label"><a xlink:title="Output Expressions: &#10; (1) p_partkey&#10; (2) p_name&#10;&#10;Unique Column Combinations: &#10; (1) {p_partkey}&#10;&#10;Functional Dependencies (trivial): &#10; (1) {p_partkey} =&gt; {p_name}&#10;&#10;Functional Dependencies (non&#45;trivial): &#10; &lt;none&gt;">
<text text-anchor="middle" x="899" y="-235.8" font-family="Times,serif" font-size="14.00" fill="white"> 199,997.4 row(s) | 100.0% estd.</text>
</a>
</g>
</g>
<!-- 281446803203344 -->
<g id="node18" class="node">
<title>281446803203344</title>
<polygon fill="none" stroke="white" points="997.5,-127 566.5,-127 566.5,-89 997.5,-89 997.5,-127"/>
<text text-anchor="middle" x="782" y="-111.8" font-family="Times,serif" font-size="14.00" fill="white">[Predicate] p_name BETWEEN UPPER EXCLUSIVE &#39;deep&#39;</text>
<text text-anchor="middle" x="782" y="-96.8" font-family="Times,serif" font-size="14.00" fill="white">AND &#39;deeq&#39;</text>
</g>
<!-- 281446803203344&#45;&gt;281446524216016 -->
<g id="edge19" class="edge">
<title>281446803203344&#45;&gt;281446524216016</title>
<path fill="none" stroke="white" d="M782,-127.24C782,-139.07 782,-154.68 782,-167.95"/>
<polygon fill="white" stroke="white" points="778.5,-167.96 782,-177.96 785.5,-167.96 778.5,-167.96"/>
<g id="a_edge19&#45;label"><a xlink:title="Output Expressions: &#10; (1) p_partkey&#10; (2) p_name&#10;&#10;Unique Column Combinations: &#10; (1) {p_partkey}&#10;&#10;Functional Dependencies (trivial): &#10; (1) {p_partkey} =&gt; {p_name}&#10;&#10;Functional Dependencies (non&#45;trivial): &#10; &lt;none&gt;">
<text text-anchor="middle" x="890" y="-148.8" font-family="Times,serif" font-size="14.00" fill="white"> 199,997.4 row(s) | 1.0% estd.</text>
</a>
</g>
</g>
<!-- 281446533856912 -->
<g id="node19" class="node">
<title>281446533856912</title>
<polygon fill="none" stroke="white" points="972.5,-38 591.5,-38 591.5,0 972.5,0 972.5,-38"/>
<text text-anchor="middle" x="782" y="-22.8" font-family="Times,serif" font-size="14.00" fill="white">[StoredTable] Name: &#39;part&#39; pruned: 0/306 chunk(s),</text>
<text text-anchor="middle" x="782" y="-7.8" font-family="Times,serif" font-size="14.00" fill="white">7/9 column(s)</text>
</g>
<!-- 281446533856912&#45;&gt;281446803203344 -->
<g id="edge20" class="edge">
<title>281446533856912&#45;&gt;281446803203344</title>
<path fill="none" stroke="white" d="M782,-38.03C782,-49.81 782,-65.44 782,-78.84"/>
<polygon fill="white" stroke="white" points="778.5,-79 782,-89 785.5,-79 778.5,-79"/>
<g id="a_edge20&#45;label"><a xlink:title="Output Expressions: &#10; (1) p_partkey&#10; (2) p_name&#10;&#10;Unique Column Combinations: &#10; (1) {p_partkey}&#10;&#10;Functional Dependencies (trivial): &#10; (1) {p_partkey} =&gt; {p_name}&#10;&#10;Functional Dependencies (non&#45;trivial): &#10; &lt;none&gt;">
<text text-anchor="middle" x="910" y="-59.8" font-family="Times,serif" font-size="14.00" fill="white"> 20,000,000.0 row(s) | 100.0% estd.</text>
</a>
</g>
</g>
<!-- 281446524215696 -->
<g id="node20" class="node">
<title>281446524215696</title>
<polygon fill="none" stroke="white" points="642,-835 300,-835 300,-797 642,-797 642,-835"/>
<text text-anchor="middle" x="471" y="-819.8" font-family="Times,serif" font-size="14.00" fill="white">[Projection] 0.5 * SUM(l_quantity), l_suppkey,</text>
<text text-anchor="middle" x="471" y="-804.8" font-family="Times,serif" font-size="14.00" fill="white">l_partkey</text>
</g>
<!-- 281446524215696&#45;&gt;281446803204112 -->
<g id="edge21" class="edge">
<title>281446524215696&#45;&gt;281446803204112</title>
<path fill="none" stroke="white" d="M466.72,-835.03C465.28,-845.54 465.43,-858.54 472,-868 475,-872.32 478.5,-876.21 482.36,-879.71"/>
<polygon fill="white" stroke="white" points="490.22,-885.98 484.59,-877.01 482.41,-879.74 490.22,-885.98"/>
<g id="a_edge21&#45;label"><a xlink:title="Output Expressions: &#10; (1) 0.5 * SUM(l_quantity) NULL&#10; (2) l_suppkey&#10; (3) l_partkey&#10;&#10;Unique Column Combinations: &#10; (1) {l_partkey, l_suppkey}&#10;&#10;Functional Dependencies (trivial): &#10; (1) {l_partkey, l_suppkey} =&gt; {0.5 * SUM(l_quantity)}&#10;&#10;Functional Dependencies (non&#45;trivial): &#10; &lt;none&gt;">
<text text-anchor="middle" x="589" y="-856.8" font-family="Times,serif" font-size="14.00" fill="white"> 897,850.2 row(s) | 100.0% estd.</text>
</a>
</g>
</g>
<!-- 281446803203920 -->
<g id="node21" class="node">
<title>281446803203920</title>
<polygon fill="none" stroke="white" points="631,-746 299,-746 299,-708 631,-708 631,-746"/>
<text text-anchor="middle" x="465" y="-730.8" font-family="Times,serif" font-size="14.00" fill="white">[Aggregate] GroupBy: [l_suppkey, l_partkey]</text>
<text text-anchor="middle" x="465" y="-715.8" font-family="Times,serif" font-size="14.00" fill="white">Aggregates: [SUM(l_quantity)]</text>
</g>
<!-- 281446803203920&#45;&gt;281446524215696 -->
<g id="edge22" class="edge">
<title>281446803203920&#45;&gt;281446524215696</title>
<path fill="none" stroke="white" d="M466.24,-746.03C467.06,-757.81 468.13,-773.44 469.06,-786.84"/>
<polygon fill="white" stroke="white" points="465.58,-787.26 469.76,-797 472.56,-786.78 465.58,-787.26"/>
<g id="a_edge22&#45;label"><a xlink:title="Output Expressions: &#10; (1) l_suppkey&#10; (2) l_partkey&#10; (3) SUM(l_quantity) NULL&#10;&#10;Unique Column Combinations: &#10; (1) {l_partkey, l_suppkey}&#10;&#10;Functional Dependencies (trivial): &#10; (1) {l_partkey, l_suppkey} =&gt; {SUM(l_quantity)}&#10;&#10;Functional Dependencies (non&#45;trivial): &#10; &lt;none&gt;">
<text text-anchor="middle" x="586" y="-767.8" font-family="Times,serif" font-size="14.00" fill="white"> 897,850.2 row(s) | 100.0% estd.</text>
</a>
</g>
</g>
<!-- 281446524215536 -->
<g id="node22" class="node">
<title>281446524215536</title>
<polygon fill="none" stroke="white" points="505.5,-657 420.5,-657 420.5,-621 505.5,-621 505.5,-657"/>
<text text-anchor="middle" x="463" y="-635.3" font-family="Times,serif" font-size="14.00" fill="white">[Validate]</text>
</g>
<!-- 281446524215536&#45;&gt;281446803203920 -->
<g id="edge23" class="edge">
<title>281446524215536&#45;&gt;281446803203920</title>
<path fill="none" stroke="white" d="M463.31,-657.13C463.49,-666.78 463.74,-679.06 464,-690 464.06,-692.43 464.12,-694.94 464.19,-697.47"/>
<polygon fill="white" stroke="white" points="460.69,-697.79 464.46,-707.69 467.69,-697.6 460.69,-697.79"/>
<g id="a_edge23&#45;label"><a xlink:title="Output Expressions: &#10; (1) l_partkey&#10; (2) l_suppkey&#10; (3) l_quantity&#10; (4) l_shipdate&#10;&#10;Unique Column Combinations: &#10; &lt;none&gt;&#10;&#10;Functional Dependencies (trivial): &#10; &lt;none&gt;&#10;&#10;Functional Dependencies (non&#45;trivial): &#10; &lt;none&gt;">
<text text-anchor="middle" x="581" y="-678.8" font-family="Times,serif" font-size="14.00" fill="white"> 897,850.2 row(s) | 100.0% estd.</text>
</a>
</g>
</g>
<!-- 281411321565776&#45;&gt;281446524215536 -->
<g id="edge24" class="edge">
<title>281411321565776&#45;&gt;281446524215536</title>
<path fill="none" stroke="white" d="M463,-570.24C463,-582.07 463,-597.68 463,-610.95"/>
<polygon fill="white" stroke="white" points="459.5,-610.96 463,-620.96 466.5,-610.96 459.5,-610.96"/>
<g id="a_edge24&#45;label"><a xlink:title="Output Expressions: &#10; (1) l_partkey&#10; (2) l_suppkey&#10; (3) l_quantity&#10; (4) l_shipdate&#10;&#10;Unique Column Combinations: &#10; &lt;none&gt;&#10;&#10;Functional Dependencies (trivial): &#10; &lt;none&gt;&#10;&#10;Functional Dependencies (non&#45;trivial): &#10; &lt;none&gt;">
<text text-anchor="middle" x="571" y="-591.8" font-family="Times,serif" font-size="14.00" fill="white"> 897,850.2 row(s) | 1.0% estd.</text>
</a>
</g>
</g>
<!-- 281446803203728 -->
<g id="node24" class="node">
<title>281446803203728</title>
<polygon fill="none" stroke="white" points="402,-481 0,-481 0,-443 402,-443 402,-481"/>
<text text-anchor="middle" x="201" y="-465.8" font-family="Times,serif" font-size="14.00" fill="white">[Predicate] l_shipdate BETWEEN UPPER EXCLUSIVE</text>
<text text-anchor="middle" x="201" y="-450.8" font-family="Times,serif" font-size="14.00" fill="white">&#39;1996&#45;01&#45;01&#39; AND &#39;1997&#45;01&#45;01&#39;</text>
</g>
<!-- 281446803203728&#45;&gt;281411321565776 -->
<g id="edge25" class="edge">
<title>281446803203728&#45;&gt;281411321565776</title>
<path fill="none" stroke="white" stroke-width="3.32" d="M200.84,-481.13C201.76,-492.22 204.9,-505.81 214,-514 227.12,-525.8 256.75,-533.73 291.16,-539.07"/>
<polygon fill="white" stroke="white" stroke-width="3.32" points="291.59,-539.13 291.08,-542.59 301.48,-540.58 291.59,-539.13"/>
<g id="a_edge25&#45;label"><a xlink:title="Output Expressions: &#10; (1) l_partkey&#10; (2) l_suppkey&#10; (3) l_quantity&#10; (4) l_shipdate&#10;&#10;Unique Column Combinations: &#10; &lt;none&gt;&#10;&#10;Functional Dependencies (trivial): &#10; &lt;none&gt;&#10;&#10;Functional Dependencies (non&#45;trivial): &#10; &lt;none&gt;">
<text text-anchor="middle" x="337.5" y="-502.8" font-family="Times,serif" font-size="14.00" fill="white"> 89,786,168.0 row(s) | 15.0% estd.</text>
</a>
</g>
</g>
<!-- 281446533856592 -->
<g id="node25" class="node">
<title>281446533856592</title>
<polygon fill="none" stroke="white" points="375.5,-392 26.5,-392 26.5,-354 375.5,-354 375.5,-392"/>
<text text-anchor="middle" x="201" y="-376.8" font-family="Times,serif" font-size="14.00" fill="white">[StoredTable] Name: &#39;lineitem&#39; pruned: 0/9156</text>
<text text-anchor="middle" x="201" y="-361.8" font-family="Times,serif" font-size="14.00" fill="white">chunk(s), 12/16 column(s)</text>
</g>
<!-- 281446533856592&#45;&gt;281446803203728 -->
<g id="edge26" class="edge">
<title>281446533856592&#45;&gt;281446803203728</title>
<path fill="none" stroke="white" stroke-width="8" d="M201,-392.03C201,-403.81 201,-419.44 201,-432.84"/>
<polygon fill="white" stroke="white" stroke-width="8" points="194,-433 201,-443 208,-433 194,-433"/>
<g id="a_edge26&#45;label"><a xlink:title="Output Expressions: &#10; (1) l_partkey&#10; (2) l_suppkey&#10; (3) l_quantity&#10; (4) l_shipdate&#10;&#10;Unique Column Combinations: &#10; &lt;none&gt;&#10;&#10;Functional Dependencies (trivial): &#10; &lt;none&gt;&#10;&#10;Functional Dependencies (non&#45;trivial): &#10; &lt;none&gt;">
<text text-anchor="middle" x="333.5" y="-413.8" font-family="Times,serif" font-size="14.00" fill="white"> 600,037,888.0 row(s) | 100.0% estd.</text>
</a>
</g>
</g>
</g>
</svg>
