<?xml version="1.0" encoding="UTF-8" standalone="no"?>
<!DOCTYPE svg PUBLIC "-//W3C//DTD SVG 1.1//EN"
 "http://www.w3.org/Graphics/SVG/1.1/DTD/svg11.dtd">
<!-- Generated by graphviz version 2.43.0 (0)
 -->
<!-- Title: G Pages: 1 -->
<svg width="748pt" height="1805pt"
 viewBox="0.00 0.00 748.00 1805.00" xmlns="http://www.w3.org/2000/svg" xmlns:xlink="http://www.w3.org/1999/xlink">
<g id="graph0" class="graph" transform="scale(1 1) rotate(0) translate(4 1801)">
<title>G</title>
<polygon fill="black" stroke="transparent" points="-4,4 -4,-1801 744,-1801 744,4 -4,4"/>
<text text-anchor="middle" x="319.5" y="-1781.8" font-family="Times,serif" font-size="14.00" fill="white">For tooltips with advanced information, hover your mouse over vertices or edge labels.</text>
<!-- 281468057096336 -->
<g id="node1" class="node">
<title>281468057096336</title>
<g id="a_node1"><a xlink:title="Output: 7 rows in 1 chunk, 2 µs 560 ns.">
<polygon fill="none" stroke="white" points="441,-1742 193,-1742 193,-1673 441,-1673 441,-1742"/>
<text text-anchor="middle" x="317" y="-1726.8" font-family="Times,serif" font-size="14.00" fill="white">Alias</text>
<text text-anchor="middle" x="317" y="-1711.8" font-family="Times,serif" font-size="14.00" fill="white">[cntrycode, numcust, totacctbal]</text>
<text text-anchor="middle" x="317" y="-1680.8" font-family="Times,serif" font-size="14.00" fill="white">2 µs 560 ns</text>
</a>
</g>
</g>
<!-- 281468057096016 -->
<g id="node2" class="node">
<title>281468057096016</title>
<g id="a_node2"><a xlink:title="Output: 7 rows in 1 chunk, 17 µs 793 ns.&#10;Operator step runtimes:&#10; MaterializeSortColumns 5 µs 89 ns&#10; Sort 2 µs 496 ns&#10; TemporaryResultWriting 288 ns&#10; WriteOutput 7 µs 808 ns.">
<polygon fill="none" stroke="white" points="371,-1622 263,-1622 263,-1568 371,-1568 371,-1622"/>
<text text-anchor="middle" x="317" y="-1606.8" font-family="Times,serif" font-size="14.00" fill="white">Sort</text>
<text text-anchor="middle" x="317" y="-1575.8" font-family="Times,serif" font-size="14.00" fill="white">17 µs 793 ns</text>
</a>
</g>
</g>
<!-- 281468057096016&#45;&gt;281468057096336 -->
<g id="edge1" class="edge">
<title>281468057096016&#45;&gt;281468057096336</title>
<path fill="none" stroke="white" d="M317,-1622.19C317,-1634.29 317,-1649 317,-1662.72"/>
<polygon fill="white" stroke="white" points="313.5,-1662.95 317,-1672.95 320.5,-1662.96 313.5,-1662.95"/>
<text text-anchor="middle" x="386" y="-1643.8" font-family="Times,serif" font-size="14.00" fill="white">7 row(s)/1 chunk(s)</text>
</g>
<!-- 281467999816720 -->
<g id="node3" class="node">
<title>281467999816720</title>
<g id="a_node3"><a xlink:title="Output: 7 rows in 1 chunk, 87 ms 583 µs.&#10;Operator step runtimes:&#10; GroupByKeyPartitioning 3 ms 809 µs&#10; Aggregating 83 ms 731 µs&#10; GroupByColumnsWriting 7 µs 168 ns&#10; AggregateColumnsWriting 11 µs 104 ns&#10; OutputWriting 5 µs 984 ns.">
<polygon fill="none" stroke="white" stroke-width="6.93" points="446.5,-1517 187.5,-1517 187.5,-1418 446.5,-1418 446.5,-1517"/>
<text text-anchor="middle" x="317" y="-1501.8" font-family="Times,serif" font-size="14.00" fill="white">AggregateHash</text>
<text text-anchor="middle" x="317" y="-1486.8" font-family="Times,serif" font-size="14.00" fill="white">GroupBy {SUBSTR(c_phone,1,2)}</text>
<text text-anchor="middle" x="317" y="-1471.8" font-family="Times,serif" font-size="14.00" fill="white">COUNT(*), </text>
<text text-anchor="middle" x="317" y="-1456.8" font-family="Times,serif" font-size="14.00" fill="white">SUM(c_acctbal)</text>
<text text-anchor="middle" x="317" y="-1425.8" font-family="Times,serif" font-size="14.00" fill="white">87 ms 583 µs</text>
</a>
</g>
</g>
<!-- 281467999816720&#45;&gt;281468057096016 -->
<g id="edge2" class="edge">
<title>281467999816720&#45;&gt;281468057096016</title>
<path fill="none" stroke="white" d="M317,-1517.02C317,-1530.49 317,-1544.89 317,-1557.54"/>
<polygon fill="white" stroke="white" points="313.5,-1557.7 317,-1567.7 320.5,-1557.7 313.5,-1557.7"/>
<text text-anchor="middle" x="386" y="-1538.8" font-family="Times,serif" font-size="14.00" fill="white">7 row(s)/1 chunk(s)</text>
</g>
<!-- 281468057095696 -->
<g id="node4" class="node">
<title>281468057095696</title>
<g id="a_node4"><a xlink:title="Output: 634507 rows in 256 chunks, 74 µs 721 ns.">
<polygon fill="none" stroke="white" points="403,-1367 231,-1367 231,-1298 403,-1298 403,-1367"/>
<text text-anchor="middle" x="317" y="-1351.8" font-family="Times,serif" font-size="14.00" fill="white">Alias</text>
<text text-anchor="middle" x="317" y="-1336.8" font-family="Times,serif" font-size="14.00" fill="white">[cntrycode, c_acctbal]</text>
<text text-anchor="middle" x="317" y="-1305.8" font-family="Times,serif" font-size="14.00" fill="white">74 µs 721 ns</text>
</a>
</g>
</g>
<!-- 281468057095696&#45;&gt;281467999816720 -->
<g id="edge3" class="edge">
<title>281468057095696&#45;&gt;281467999816720</title>
<path fill="none" stroke="white" d="M317,-1367.06C317,-1379.45 317,-1393.87 317,-1407.83"/>
<polygon fill="white" stroke="white" points="313.5,-1407.87 317,-1417.87 320.5,-1407.87 313.5,-1407.87"/>
<text text-anchor="middle" x="419.5" y="-1388.8" font-family="Times,serif" font-size="14.00" fill="white">634,507 row(s)/256 chunk(s)</text>
</g>
<!-- 281468057095376 -->
<g id="node5" class="node">
<title>281468057095376</title>
<g id="a_node5"><a xlink:title="Output: 634507 rows in 256 chunks, 8 ms 82 µs.&#10;Operator step runtimes:&#10; ForwardUnmodifiedColumns 138 µs 754 ns&#10; EvaluateNewColumns 7 ms 563 µs&#10; BuildOutput 292 µs 195 ns.">
<polygon fill="none" stroke="white" stroke-width="1.05" points="364.5,-1247 269.5,-1247 269.5,-1193 364.5,-1193 364.5,-1247"/>
<text text-anchor="middle" x="317" y="-1231.8" font-family="Times,serif" font-size="14.00" fill="white">Projection</text>
<text text-anchor="middle" x="317" y="-1200.8" font-family="Times,serif" font-size="14.00" fill="white">8 ms 82 µs</text>
</a>
</g>
</g>
<!-- 281468057095376&#45;&gt;281468057095696 -->
<g id="edge4" class="edge">
<title>281468057095376&#45;&gt;281468057095696</title>
<path fill="none" stroke="white" d="M317,-1247.19C317,-1259.29 317,-1274 317,-1287.72"/>
<polygon fill="white" stroke="white" points="313.5,-1287.95 317,-1297.95 320.5,-1287.96 313.5,-1287.95"/>
<text text-anchor="middle" x="419.5" y="-1268.8" font-family="Times,serif" font-size="14.00" fill="white">634,507 row(s)/256 chunk(s)</text>
</g>
<!-- 281468057095056 -->
<g id="node6" class="node">
<title>281468057095056</title>
<g id="a_node6"><a xlink:title="Output: 634507 rows in 256 chunks, 135 ms 170 µs.&#10;Operator step runtimes:&#10; LeftSideMaterialize 3 ms 866 µs&#10; RightSideMaterialize 43 ms 731 µs&#10; LeftSideTransform 0 ns&#10; RightSideTransform 0 ns&#10; LeftSidePartition 672 µs 232 ns&#10; RightSidePartition 50 ms 580 µs&#10; LeftSideSortBuckets 1 ms 565 µs&#10; RightSideSortBuckets 26 ms 438 µs&#10; GatherRowIds 1 µs 920 ns&#10; FindJoinPartner 4 ms 839 µs&#10; OutputWriting 940 µs 108 ns.">
<polygon fill="none" stroke="white" stroke-width="8" points="460.5,-1142 173.5,-1142 173.5,-1073 460.5,-1073 460.5,-1142"/>
<text text-anchor="middle" x="317" y="-1126.8" font-family="Times,serif" font-size="14.00" fill="white">JoinSimdSortMerge (AntiNullAsFalse)</text>
<text text-anchor="middle" x="317" y="-1111.8" font-family="Times,serif" font-size="14.00" fill="white">c_custkey = o_custkey</text>
<text text-anchor="middle" x="317" y="-1080.8" font-family="Times,serif" font-size="14.00" fill="white">135 ms 170 µs</text>
</a>
</g>
</g>
<!-- 281468057095056&#45;&gt;281468057095376 -->
<g id="edge5" class="edge">
<title>281468057095056&#45;&gt;281468057095376</title>
<path fill="none" stroke="white" d="M317,-1142.25C317,-1155.07 317,-1169.73 317,-1182.77"/>
<polygon fill="white" stroke="white" points="313.5,-1182.81 317,-1192.81 320.5,-1182.81 313.5,-1182.81"/>
<text text-anchor="middle" x="419.5" y="-1163.8" font-family="Times,serif" font-size="14.00" fill="white">634,507 row(s)/256 chunk(s)</text>
</g>
<!-- 281468057094736 -->
<g id="node7" class="node">
<title>281468057094736</title>
<g id="a_node7"><a xlink:title="Output: 1907682 rows in 229 chunks, 27 ms 849 µs.&#10;Chunks: 0 skipped with no results, &#10;0 skipped with all matching, 0 scanned using binary search.">
<polygon fill="none" stroke="white" stroke-width="4.1" points="367.5,-1022 18.5,-1022 18.5,-923 367.5,-923 367.5,-1022"/>
<text text-anchor="middle" x="193" y="-1006.8" font-family="Times,serif" font-size="14.00" fill="white">TableScan</text>
<text text-anchor="middle" x="193" y="-991.8" font-family="Times,serif" font-size="14.00" fill="white">Impl: ExpressionEvaluator</text>
<text text-anchor="middle" x="193" y="-976.8" font-family="Times,serif" font-size="14.00" fill="white">(SUBSTR(c_phone,1,2)) IN (&#39;32&#39;, &#39;10&#39;, &#39;19&#39;, &#39;31&#39;,</text>
<text text-anchor="middle" x="193" y="-961.8" font-family="Times,serif" font-size="14.00" fill="white">&#39;24&#39;, &#39;33&#39;, &#39;23&#39;)</text>
<text text-anchor="middle" x="193" y="-930.8" font-family="Times,serif" font-size="14.00" fill="white">27 ms 849 µs</text>
</a>
</g>
</g>
<!-- 281468057094736&#45;&gt;281468057095056 -->
<g id="edge6" class="edge">
<title>281468057094736&#45;&gt;281468057095056</title>
<path fill="none" stroke="white" d="M188.92,-1022.14C190.07,-1033.76 193.23,-1045.53 200,-1055 202.91,-1059.07 206.22,-1062.83 209.83,-1066.29"/>
<polygon fill="white" stroke="white" points="210.05,-1066.48 207.77,-1069.13 217.64,-1072.99 210.05,-1066.48"/>
<text text-anchor="middle" x="309.5" y="-1043.8" font-family="Times,serif" font-size="14.00" fill="white">1,907,682 row(s)/229 chunk(s)</text>
</g>
<!-- 281468057094416 -->
<g id="node8" class="node">
<title>281468057094416</title>
<g id="a_node8"><a xlink:title="Output: 6818848 rows in 229 chunks, 1 ms 571 µs.&#10;Chunks: 0 skipped with no results, &#10;0 skipped with all matching, 0 scanned using binary search.">
<polygon fill="none" stroke="white" points="362,-857 10,-857 10,-773 362,-773 362,-857"/>
<text text-anchor="middle" x="186" y="-841.8" font-family="Times,serif" font-size="14.00" fill="white">TableScan</text>
<text text-anchor="middle" x="186" y="-826.8" font-family="Times,serif" font-size="14.00" fill="white">Impl: ColumnVsValue</text>
<text text-anchor="middle" x="186" y="-811.8" font-family="Times,serif" font-size="14.00" fill="white">c_acctbal &gt; SUBQUERY (PQP, 0xfffe60252210)</text>
<text text-anchor="middle" x="186" y="-780.8" font-family="Times,serif" font-size="14.00" fill="white">1 ms 571 µs</text>
</a>
</g>
</g>
<!-- 281468057094416&#45;&gt;281468057094736 -->
<g id="edge7" class="edge">
<title>281468057094416&#45;&gt;281468057094736</title>
<path fill="none" stroke="white" d="M187.86,-857.26C188.62,-874.27 189.52,-894.29 190.36,-912.77"/>
<polygon fill="white" stroke="white" points="186.86,-913.03 190.81,-922.86 193.86,-912.71 186.86,-913.03"/>
<text text-anchor="middle" x="299.5" y="-893.8" font-family="Times,serif" font-size="14.00" fill="white">6,818,848 row(s)/229 chunk(s)</text>
</g>
<!-- 281467997721872 -->
<g id="node9" class="node">
<title>281467997721872</title>
<g id="a_node9"><a xlink:title="Output: 15000000 rows in 229 chunks, 573 µs 671 ns.">
<polygon fill="none" stroke="white" points="119.5,-692 2.5,-692 2.5,-638 119.5,-638 119.5,-692"/>
<text text-anchor="middle" x="61" y="-676.8" font-family="Times,serif" font-size="14.00" fill="white">Validate</text>
<text text-anchor="middle" x="61" y="-645.8" font-family="Times,serif" font-size="14.00" fill="white">573 µs 671 ns</text>
</a>
</g>
</g>
<!-- 281467997721872&#45;&gt;281468057094416 -->
<g id="edge8" class="edge">
<title>281467997721872&#45;&gt;281468057094416</title>
<path fill="none" stroke="white" stroke-width="2.32" d="M55.34,-692.32C53.53,-707.25 53.78,-725.75 62,-740 67.76,-749.99 75.46,-758.79 84.21,-766.49"/>
<polygon fill="white" stroke="white" stroke-width="2.32" points="82.2,-769.36 92.15,-772.97 86.62,-763.94 82.2,-769.36"/>
<text text-anchor="middle" x="176" y="-728.8" font-family="Times,serif" font-size="14.00" fill="white">15,000,000 row(s)/229 chunk(s)</text>
</g>
<!-- 281155542586192 -->
<g id="node10" class="node">
<title>281155542586192</title>
<g id="a_node10"><a xlink:title="Output: 15000000 rows in 229 chunks, 337 µs 477 ns.">
<polygon fill="none" stroke="white" points="122,-572 0,-572 0,-458 122,-458 122,-572"/>
<text text-anchor="middle" x="61" y="-556.8" font-family="Times,serif" font-size="14.00" fill="white">GetTable</text>
<text text-anchor="middle" x="61" y="-541.8" font-family="Times,serif" font-size="14.00" fill="white">(customer)</text>
<text text-anchor="middle" x="61" y="-526.8" font-family="Times,serif" font-size="14.00" fill="white">pruned:</text>
<text text-anchor="middle" x="61" y="-511.8" font-family="Times,serif" font-size="14.00" fill="white">0/229 chunk(s)</text>
<text text-anchor="middle" x="61" y="-496.8" font-family="Times,serif" font-size="14.00" fill="white">5/8 column(s)</text>
<text text-anchor="middle" x="61" y="-465.8" font-family="Times,serif" font-size="14.00" fill="white">337 µs 477 ns</text>
</a>
</g>
</g>
<!-- 281155542586192&#45;&gt;281467997721872 -->
<g id="edge9" class="edge">
<title>281155542586192&#45;&gt;281467997721872</title>
<path fill="none" stroke="white" stroke-width="2.32" d="M61,-572.37C61,-590.87 61,-610.92 61,-627.54"/>
<polygon fill="white" stroke="white" stroke-width="2.32" points="57.5,-627.92 61,-637.92 64.5,-627.92 57.5,-627.92"/>
<text text-anchor="middle" x="175" y="-593.8" font-family="Times,serif" font-size="14.00" fill="white">15,000,000 row(s)/229 chunk(s)</text>
</g>
<!-- 281467999822352 -->
<g id="node11" class="node">
<title>281467999822352</title>
<g id="a_node11"><a xlink:title="Output: 1 row in 1 chunk, 23 ms 460 µs.&#10;Operator step runtimes:&#10; GroupByKeyPartitioning 64 ns&#10; Aggregating 23 ms 430 µs&#10; GroupByColumnsWriting 992 ns&#10; AggregateColumnsWriting 15 µs 232 ns&#10; OutputWriting 6 µs 592 ns.">
<polygon fill="none" stroke="white" stroke-width="3.68" points="376,-707 248,-707 248,-623 376,-623 376,-707"/>
<text text-anchor="middle" x="312" y="-691.8" font-family="Times,serif" font-size="14.00" fill="white">AggregateHash</text>
<text text-anchor="middle" x="312" y="-676.8" font-family="Times,serif" font-size="14.00" fill="white">GroupBy {}</text>
<text text-anchor="middle" x="312" y="-661.8" font-family="Times,serif" font-size="14.00" fill="white">AVG(c_acctbal)</text>
<text text-anchor="middle" x="312" y="-630.8" font-family="Times,serif" font-size="14.00" fill="white">23 ms 460 µs</text>
</a>
</g>
</g>
<!-- 281467999822352&#45;&gt;281468057094416 -->
<g id="edge10" class="edge">
<title>281467999822352&#45;&gt;281468057094416</title>
<path fill="none" stroke="white" stroke-dasharray="5,2" d="M304.87,-707.38C301.6,-718.66 296.86,-730.41 290,-740 283.1,-749.65 274.54,-758.49 265.32,-766.46"/>
<polygon fill="white" stroke="white" points="262.94,-763.88 257.44,-772.93 267.39,-769.29 262.94,-763.88"/>
<text text-anchor="middle" x="380.5" y="-728.8" font-family="Times,serif" font-size="14.00" fill="white">uncorrelated subquery</text>
</g>
<!-- 281468057094096 -->
<g id="node12" class="node">
<title>281468057094096</title>
<g id="a_node12"><a xlink:title="Output: 3816216 rows in 229 chunks, 58 ms 422 µs.&#10;Chunks: 0 skipped with no results, &#10;0 skipped with all matching, 0 scanned using binary search.">
<polygon fill="none" stroke="white" stroke-width="5.93" points="489.5,-564.5 140.5,-564.5 140.5,-465.5 489.5,-465.5 489.5,-564.5"/>
<text text-anchor="middle" x="315" y="-549.3" font-family="Times,serif" font-size="14.00" fill="white">TableScan</text>
<text text-anchor="middle" x="315" y="-534.3" font-family="Times,serif" font-size="14.00" fill="white">Impl: ExpressionEvaluator</text>
<text text-anchor="middle" x="315" y="-519.3" font-family="Times,serif" font-size="14.00" fill="white">(SUBSTR(c_phone,1,2)) IN (&#39;32&#39;, &#39;10&#39;, &#39;19&#39;, &#39;31&#39;,</text>
<text text-anchor="middle" x="315" y="-504.3" font-family="Times,serif" font-size="14.00" fill="white">&#39;24&#39;, &#39;33&#39;, &#39;23&#39;)</text>
<text text-anchor="middle" x="315" y="-473.3" font-family="Times,serif" font-size="14.00" fill="white">58 ms 422 µs</text>
</a>
</g>
</g>
<!-- 281468057094096&#45;&gt;281467999822352 -->
<g id="edge11" class="edge">
<title>281468057094096&#45;&gt;281467999822352</title>
<path fill="none" stroke="white" d="M314.01,-564.87C313.7,-580.06 313.36,-596.85 313.05,-612.23"/>
<polygon fill="white" stroke="white" points="309.54,-612.54 312.84,-622.61 316.54,-612.68 309.54,-612.54"/>
<text text-anchor="middle" x="423.5" y="-593.8" font-family="Times,serif" font-size="14.00" fill="white">3,816,216 row(s)/229 chunk(s)</text>
</g>
<!-- 281467997726736 -->
<g id="node13" class="node">
<title>281467997726736</title>
<g id="a_node13"><a xlink:title="Output: 13636094 rows in 229 chunks, 453 µs 189 ns.">
<polygon fill="none" stroke="white" points="373.5,-407 256.5,-407 256.5,-353 373.5,-353 373.5,-407"/>
<text text-anchor="middle" x="315" y="-391.8" font-family="Times,serif" font-size="14.00" fill="white">Validate</text>
<text text-anchor="middle" x="315" y="-360.8" font-family="Times,serif" font-size="14.00" fill="white">453 µs 189 ns</text>
</a>
</g>
</g>
<!-- 281467997726736&#45;&gt;281468057094096 -->
<g id="edge12" class="edge">
<title>281467997726736&#45;&gt;281468057094096</title>
<path fill="none" stroke="white" stroke-width="2.09" d="M315,-407.28C315,-421.01 315,-438.4 315,-455.14"/>
<polygon fill="white" stroke="white" stroke-width="2.09" points="311.5,-455.44 315,-465.44 318.5,-455.44 311.5,-455.44"/>
<text text-anchor="middle" x="429" y="-428.8" font-family="Times,serif" font-size="14.00" fill="white">13,636,094 row(s)/229 chunk(s)</text>
</g>
<!-- 281468057093136 -->
<g id="node14" class="node">
<title>281468057093136</title>
<g id="a_node14"><a xlink:title="Output: 13636094 rows in 229 chunks, 1 ms 197 µs.&#10;Chunks: 0 skipped with no results, &#10;0 skipped with all matching, 0 scanned using binary search.">
<polygon fill="none" stroke="white" points="399.5,-302 230.5,-302 230.5,-218 399.5,-218 399.5,-302"/>
<text text-anchor="middle" x="315" y="-286.8" font-family="Times,serif" font-size="14.00" fill="white">TableScan</text>
<text text-anchor="middle" x="315" y="-271.8" font-family="Times,serif" font-size="14.00" fill="white">Impl: ColumnVsValue</text>
<text text-anchor="middle" x="315" y="-256.8" font-family="Times,serif" font-size="14.00" fill="white">c_acctbal &gt; 0</text>
<text text-anchor="middle" x="315" y="-225.8" font-family="Times,serif" font-size="14.00" fill="white">1 ms 197 µs</text>
</a>
</g>
</g>
<!-- 281468057093136&#45;&gt;281467997726736 -->
<g id="edge13" class="edge">
<title>281468057093136&#45;&gt;281467997726736</title>
<path fill="none" stroke="white" stroke-width="2.09" d="M315,-302.27C315,-315.36 315,-329.72 315,-342.45"/>
<polygon fill="white" stroke="white" stroke-width="2.09" points="311.5,-342.69 315,-352.69 318.5,-342.69 311.5,-342.69"/>
<text text-anchor="middle" x="429" y="-323.8" font-family="Times,serif" font-size="14.00" fill="white">13,636,094 row(s)/229 chunk(s)</text>
</g>
<!-- 281155542585744 -->
<g id="node15" class="node">
<title>281155542585744</title>
<g id="a_node15"><a xlink:title="Output: 15000000 rows in 229 chunks, 482 µs 278 ns.">
<polygon fill="none" stroke="white" points="376,-140.5 254,-140.5 254,-26.5 376,-26.5 376,-140.5"/>
<text text-anchor="middle" x="315" y="-125.3" font-family="Times,serif" font-size="14.00" fill="white">GetTable</text>
<text text-anchor="middle" x="315" y="-110.3" font-family="Times,serif" font-size="14.00" fill="white">(customer)</text>
<text text-anchor="middle" x="315" y="-95.3" font-family="Times,serif" font-size="14.00" fill="white">pruned:</text>
<text text-anchor="middle" x="315" y="-80.3" font-family="Times,serif" font-size="14.00" fill="white">0/229 chunk(s)</text>
<text text-anchor="middle" x="315" y="-65.3" font-family="Times,serif" font-size="14.00" fill="white">5/8 column(s)</text>
<text text-anchor="middle" x="315" y="-34.3" font-family="Times,serif" font-size="14.00" fill="white">482 µs 278 ns</text>
</a>
</g>
</g>
<!-- 281155542585744&#45;&gt;281468057093136 -->
<g id="edge14" class="edge">
<title>281155542585744&#45;&gt;281468057093136</title>
<path fill="none" stroke="white" stroke-width="2.32" d="M315,-140.67C315,-162.25 315,-186.74 315,-207.83"/>
<polygon fill="white" stroke="white" stroke-width="2.32" points="311.5,-207.87 315,-217.87 318.5,-207.87 311.5,-207.87"/>
<text text-anchor="middle" x="429" y="-188.8" font-family="Times,serif" font-size="14.00" fill="white">15,000,000 row(s)/229 chunk(s)</text>
</g>
<!-- 281467997726480 -->
<g id="node16" class="node">
<title>281467997726480</title>
<g id="a_node16"><a xlink:title="Output: 150000000 rows in 2289 chunks, 52 ms 543 µs.">
<polygon fill="none" stroke="white" stroke-width="5.67" points="501.5,-999.5 388.5,-999.5 388.5,-945.5 501.5,-945.5 501.5,-999.5"/>
<text text-anchor="middle" x="445" y="-984.3" font-family="Times,serif" font-size="14.00" fill="white">Validate</text>
<text text-anchor="middle" x="445" y="-953.3" font-family="Times,serif" font-size="14.00" fill="white">52 ms 543 µs</text>
</a>
</g>
</g>
<!-- 281467997726480&#45;&gt;281468057095056 -->
<g id="edge15" class="edge">
<title>281467997726480&#45;&gt;281468057095056</title>
<path fill="none" stroke="white" stroke-width="8" d="M442,-999.54C438.81,-1016.94 432.3,-1039.4 419,-1055 415.46,-1059.15 411.5,-1063 407.26,-1066.58"/>
<polygon fill="white" stroke="white" stroke-width="8" points="399.34,-1072.71 411.54,-1072.12 407.25,-1066.58 399.34,-1072.71"/>
<text text-anchor="middle" x="554" y="-1043.8" font-family="Times,serif" font-size="14.00" fill="white">150,000,000 row(s)/2,289 chunk(s)</text>
</g>
<!-- 281155542586640 -->
<g id="node17" class="node">
<title>281155542586640</title>
<g id="a_node17"><a xlink:title="Output: 150000000 rows in 2289 chunks, 4 ms 370 µs.">
<polygon fill="none" stroke="white" points="511.5,-872 380.5,-872 380.5,-758 511.5,-758 511.5,-872"/>
<text text-anchor="middle" x="446" y="-856.8" font-family="Times,serif" font-size="14.00" fill="white">GetTable</text>
<text text-anchor="middle" x="446" y="-841.8" font-family="Times,serif" font-size="14.00" fill="white">(orders)</text>
<text text-anchor="middle" x="446" y="-826.8" font-family="Times,serif" font-size="14.00" fill="white">pruned:</text>
<text text-anchor="middle" x="446" y="-811.8" font-family="Times,serif" font-size="14.00" fill="white">0/2289 chunk(s)</text>
<text text-anchor="middle" x="446" y="-796.8" font-family="Times,serif" font-size="14.00" fill="white">8/9 column(s)</text>
<text text-anchor="middle" x="446" y="-765.8" font-family="Times,serif" font-size="14.00" fill="white">4 ms 370 µs</text>
</a>
</g>
</g>
<!-- 281155542586640&#45;&gt;281467997726480 -->
<g id="edge16" class="edge">
<title>281155542586640&#45;&gt;281467997726480</title>
<path fill="none" stroke="white" stroke-width="8" d="M445.64,-872.14C445.5,-893.18 445.35,-916.52 445.23,-935.28"/>
<polygon fill="white" stroke="white" stroke-width="8" points="438.23,-935.43 445.17,-945.47 452.23,-935.52 438.23,-935.43"/>
<text text-anchor="middle" x="570" y="-893.8" font-family="Times,serif" font-size="14.00" fill="white">150,000,000 row(s)/2,289 chunk(s)</text>
</g>
<!-- 0 -->
<g id="node18" class="node">
<title>0</title>
<polygon fill="none" stroke="white" points="394,-0.5 394,-166.5 740,-166.5 740,-0.5 394,-0.5"/>
<text text-anchor="middle" x="567" y="-151.3" font-family="Times,serif" font-size="14.00" fill="white">Total by operator</text>
<polyline fill="none" stroke="white" points="394,-143.5 740,-143.5 "/>
<text text-anchor="end" x="548" y="-128.3" font-family="Times,serif" font-size="14.00" fill="white">JoinSimdSortMerge </text>
<text text-anchor="end" x="548" y="-113.3" font-family="Times,serif" font-size="14.00" fill="white"> AggregateHash </text>
<text text-anchor="end" x="548" y="-98.3" font-family="Times,serif" font-size="14.00" fill="white"> TableScan </text>
<text text-anchor="end" x="548" y="-83.3" font-family="Times,serif" font-size="14.00" fill="white"> Validate </text>
<text text-anchor="end" x="548" y="-68.3" font-family="Times,serif" font-size="14.00" fill="white"> Projection </text>
<text text-anchor="end" x="548" y="-53.3" font-family="Times,serif" font-size="14.00" fill="white"> GetTable </text>
<text text-anchor="end" x="548" y="-38.3" font-family="Times,serif" font-size="14.00" fill="white"> Alias </text>
<text text-anchor="end" x="548" y="-23.3" font-family="Times,serif" font-size="14.00" fill="white"> Sort </text>
<text text-anchor="end" x="548" y="-8.3" font-family="Times,serif" font-size="14.00" fill="white">total</text>
<polyline fill="none" stroke="white" points="556,-0.5 556,-143.5 "/>
<text text-anchor="start" x="564" y="-128.3" font-family="Times,serif" font-size="14.00" fill="white">135 ms 170 µs </text>
<text text-anchor="start" x="564" y="-113.3" font-family="Times,serif" font-size="14.00" fill="white"> 111 ms 42 µs </text>
<text text-anchor="start" x="564" y="-98.3" font-family="Times,serif" font-size="14.00" fill="white"> 89 ms 39 µs </text>
<text text-anchor="start" x="564" y="-83.3" font-family="Times,serif" font-size="14.00" fill="white"> 53 ms 570 µs </text>
<text text-anchor="start" x="564" y="-68.3" font-family="Times,serif" font-size="14.00" fill="white"> 8 ms 82 µs </text>
<text text-anchor="start" x="564" y="-53.3" font-family="Times,serif" font-size="14.00" fill="white"> 5 ms 189 µs </text>
<text text-anchor="start" x="564" y="-38.3" font-family="Times,serif" font-size="14.00" fill="white"> 77 µs 281 ns </text>
<text text-anchor="start" x="564" y="-23.3" font-family="Times,serif" font-size="14.00" fill="white"> 17 µs 793 ns </text>
<text text-anchor="start" x="564" y="-8.3" font-family="Times,serif" font-size="14.00" fill="white"> 402 ms 187 µs </text>
<polyline fill="none" stroke="white" points="687,-0.5 687,-143.5 "/>
<text text-anchor="start" x="695" y="-128.3" font-family="Times,serif" font-size="14.00" fill="white">34 %</text>
<text text-anchor="start" x="695" y="-113.3" font-family="Times,serif" font-size="14.00" fill="white">28 %</text>
<text text-anchor="start" x="695" y="-98.3" font-family="Times,serif" font-size="14.00" fill="white">22 %</text>
<text text-anchor="start" x="695" y="-83.3" font-family="Times,serif" font-size="14.00" fill="white">13 %</text>
<text text-anchor="start" x="695" y="-68.3" font-family="Times,serif" font-size="14.00" fill="white">2 %</text>
<text text-anchor="start" x="695" y="-53.3" font-family="Times,serif" font-size="14.00" fill="white">1 %</text>
<text text-anchor="start" x="695" y="-38.3" font-family="Times,serif" font-size="14.00" fill="white">0 %</text>
<text text-anchor="start" x="695" y="-23.3" font-family="Times,serif" font-size="14.00" fill="white">0 %</text>
<text text-anchor="start" x="695" y="-8.3" font-family="Times,serif" font-size="14.00" fill="white"> </text>
</g>
</g>
</svg>
