<?xml version="1.0" encoding="UTF-8" standalone="no"?>
<!DOCTYPE svg PUBLIC "-//W3C//DTD SVG 1.1//EN"
 "http://www.w3.org/Graphics/SVG/1.1/DTD/svg11.dtd">
<!-- Generated by graphviz version 2.43.0 (0)
 -->
<!-- Title: G Pages: 1 -->
<svg width="1300pt" height="2525pt"
 viewBox="0.00 0.00 1300.00 2525.00" xmlns="http://www.w3.org/2000/svg" xmlns:xlink="http://www.w3.org/1999/xlink">
<g id="graph0" class="graph" transform="scale(1 1) rotate(0) translate(4 2521)">
<title>G</title>
<polygon fill="black" stroke="transparent" points="-4,4 -4,-2521 1296,-2521 1296,4 -4,4"/>
<text text-anchor="middle" x="319.5" y="-2501.8" font-family="Times,serif" font-size="14.00" fill="white">For tooltips with advanced information, hover your mouse over vertices or edge labels.</text>
<!-- 140585597569680 -->
<g id="node1" class="node">
<title>140585597569680</title>
<g id="a_node1"><a xlink:title="Output: 100 rows in 1 chunk filtered: 0, 2 µs 425 ns.">
<polygon fill="none" stroke="white" points="187,-2462 35,-2462 35,-2393 187,-2393 187,-2462"/>
<text text-anchor="middle" x="111" y="-2446.8" font-family="Times,serif" font-size="14.00" fill="white">Alias</text>
<text text-anchor="middle" x="111" y="-2431.8" font-family="Times,serif" font-size="14.00" fill="white">[s_name, numwait]</text>
<text text-anchor="middle" x="111" y="-2400.8" font-family="Times,serif" font-size="14.00" fill="white">2 µs 425 ns</text>
</a>
</g>
</g>
<!-- 140585597489424 -->
<g id="node2" class="node">
<title>140585597489424</title>
<g id="a_node2"><a xlink:title="Output: 100 rows in 1 chunk filtered: 0, 11 µs 622 ns.">
<polygon fill="none" stroke="white" points="165,-2342 57,-2342 57,-2288 165,-2288 165,-2342"/>
<text text-anchor="middle" x="111" y="-2326.8" font-family="Times,serif" font-size="14.00" fill="white">Limit</text>
<text text-anchor="middle" x="111" y="-2295.8" font-family="Times,serif" font-size="14.00" fill="white">11 µs 622 ns</text>
</a>
</g>
</g>
<!-- 140585597489424&#45;&gt;140585597569680 -->
<g id="edge1" class="edge">
<title>140585597489424&#45;&gt;140585597569680</title>
<path fill="none" stroke="white" d="M111,-2342.19C111,-2354.29 111,-2369 111,-2382.72"/>
<polygon fill="white" stroke="white" points="107.5,-2382.95 111,-2392.95 114.5,-2382.96 107.5,-2382.95"/>
<text text-anchor="middle" x="189" y="-2363.8" font-family="Times,serif" font-size="14.00" fill="white">100 row(s)/1 chunk(s)</text>
</g>
<!-- 140585597569360 -->
<g id="node3" class="node">
<title>140585597569360</title>
<g id="a_node3"><a xlink:title="Output: 4079 rows in 1 chunk filtered: 0, 2 ms 956 µs.&#10;Operator step runtimes:&#10; MaterializeSortColumns 506 µs 571 ns&#10; Sort 2 ms 316 µs&#10; TemporaryResultWriting 9 µs 338 ns&#10; WriteOutput 51 µs 798 ns.">
<polygon fill="none" stroke="white" points="163,-2237 59,-2237 59,-2183 163,-2183 163,-2237"/>
<text text-anchor="middle" x="111" y="-2221.8" font-family="Times,serif" font-size="14.00" fill="white">Sort</text>
<text text-anchor="middle" x="111" y="-2190.8" font-family="Times,serif" font-size="14.00" fill="white">2 ms 956 µs</text>
</a>
</g>
</g>
<!-- 140585597569360&#45;&gt;140585597489424 -->
<g id="edge2" class="edge">
<title>140585597569360&#45;&gt;140585597489424</title>
<path fill="none" stroke="white" d="M111,-2237.26C111,-2249.49 111,-2264.24 111,-2277.52"/>
<polygon fill="white" stroke="white" points="107.5,-2277.79 111,-2287.79 114.5,-2277.79 107.5,-2277.79"/>
<text text-anchor="middle" x="195.5" y="-2258.8" font-family="Times,serif" font-size="14.00" fill="white">4,079 row(s)/1 chunk(s)</text>
</g>
<!-- 140585597462032 -->
<g id="node4" class="node">
<title>140585597462032</title>
<g id="a_node4"><a xlink:title="Output: 4079 rows in 1 chunk filtered: 0, 6 ms 314 µs.&#10;Operator step runtimes:&#10; GroupByKeyPartitioning 5 ms 563 µs&#10; Aggregating 668 µs 796 ns&#10; GroupByColumnsWriting 41 µs 448 ns&#10; AggregateColumnsWriting 25 µs 338 ns&#10; OutputWriting 6 µs 292 ns.">
<polygon fill="none" stroke="white" points="188.5,-2132 33.5,-2132 33.5,-2048 188.5,-2048 188.5,-2132"/>
<text text-anchor="middle" x="111" y="-2116.8" font-family="Times,serif" font-size="14.00" fill="white">AggregateHash</text>
<text text-anchor="middle" x="111" y="-2101.8" font-family="Times,serif" font-size="14.00" fill="white">GroupBy {s_name}</text>
<text text-anchor="middle" x="111" y="-2086.8" font-family="Times,serif" font-size="14.00" fill="white">COUNT(*)</text>
<text text-anchor="middle" x="111" y="-2055.8" font-family="Times,serif" font-size="14.00" fill="white">6 ms 314 µs</text>
</a>
</g>
</g>
<!-- 140585597462032&#45;&gt;140585597569360 -->
<g id="edge3" class="edge">
<title>140585597462032&#45;&gt;140585597569360</title>
<path fill="none" stroke="white" d="M111,-2132.27C111,-2145.36 111,-2159.72 111,-2172.45"/>
<polygon fill="white" stroke="white" points="107.5,-2172.69 111,-2182.69 114.5,-2172.69 107.5,-2172.69"/>
<text text-anchor="middle" x="195.5" y="-2153.8" font-family="Times,serif" font-size="14.00" fill="white">4,079 row(s)/1 chunk(s)</text>
</g>
<!-- 140585597569040 -->
<g id="node5" class="node">
<title>140585597569040</title>
<g id="a_node5"><a xlink:title="Output: 40403 rows in 64 chunks filtered: 0, 28 ms 115 µs.&#10;Operator step runtimes:&#10; LeftSideMaterialize 3 ms 884 µs&#10; RightSideMaterialize 7 ms 69 µs&#10; LeftSideTransform 0 ns&#10; RightSideTransform 0 ns&#10; LeftSidePartition 874 µs 411 ns&#10; RightSidePartition 2 ms 500 µs&#10; LeftSideSortBuckets 923 µs 22 ns&#10; RightSideSortBuckets 1 ms 132 µs&#10; GatherRowIds 1 µs 614 ns&#10; FindJoinPartner 10 ms 494 µs&#10; OutputWriting 423 µs 745 ns.&#10;Radix bits: 8.">
<polygon fill="none" stroke="white" stroke-width="4.59" points="222,-1997 0,-1997 0,-1913 222,-1913 222,-1997"/>
<text text-anchor="middle" x="111" y="-1981.8" font-family="Times,serif" font-size="14.00" fill="white">JoinSimdSortMerge (Semi)</text>
<text text-anchor="middle" x="111" y="-1966.8" font-family="Times,serif" font-size="14.00" fill="white">l_orderkey = l_orderkey</text>
<text text-anchor="middle" x="111" y="-1951.8" font-family="Times,serif" font-size="14.00" fill="white">AND l_suppkey != l_suppkey</text>
<text text-anchor="middle" x="111" y="-1920.8" font-family="Times,serif" font-size="14.00" fill="white">28 ms 115 µs</text>
</a>
</g>
</g>
<!-- 140585597569040&#45;&gt;140585597462032 -->
<g id="edge4" class="edge">
<title>140585597569040&#45;&gt;140585597462032</title>
<path fill="none" stroke="white" d="M111,-1997.35C111,-2010.11 111,-2024.32 111,-2037.67"/>
<polygon fill="white" stroke="white" points="107.5,-2037.67 111,-2047.67 114.5,-2037.67 107.5,-2037.67"/>
<text text-anchor="middle" x="204.5" y="-2018.8" font-family="Times,serif" font-size="14.00" fill="white">40,403 row(s)/64 chunk(s)</text>
</g>
<!-- 140585597568720 -->
<g id="node6" class="node">
<title>140585597568720</title>
<g id="a_node6"><a xlink:title="Output: 67894 rows in 64 chunks filtered: 0, 97 ms 539 µs.&#10;Operator step runtimes:&#10; LeftSideMaterialize 14 ms 745 µs&#10; RightSideMaterialize 6 ms 392 µs&#10; LeftSideTransform 0 ns&#10; RightSideTransform 0 ns&#10; LeftSidePartition 7 ms 358 µs&#10; RightSidePartition 1 ms 408 µs&#10; LeftSideSortBuckets 695 µs 986 ns&#10; RightSideSortBuckets 973 µs 6 ns&#10; GatherRowIds 2 µs 144 ns&#10; FindJoinPartner 64 ms 116 µs&#10; OutputWriting 935 µs 155 ns.&#10;Radix bits: 8.">
<polygon fill="none" stroke="white" stroke-width="7.66" points="471.5,-1862 184.5,-1862 184.5,-1778 471.5,-1778 471.5,-1862"/>
<text text-anchor="middle" x="328" y="-1846.8" font-family="Times,serif" font-size="14.00" fill="white">JoinSimdSortMerge (AntiNullAsFalse)</text>
<text text-anchor="middle" x="328" y="-1831.8" font-family="Times,serif" font-size="14.00" fill="white">l_orderkey = l_orderkey</text>
<text text-anchor="middle" x="328" y="-1816.8" font-family="Times,serif" font-size="14.00" fill="white">AND l_suppkey != l_suppkey</text>
<text text-anchor="middle" x="328" y="-1785.8" font-family="Times,serif" font-size="14.00" fill="white">97 ms 539 µs</text>
</a>
</g>
</g>
<!-- 140585597568720&#45;&gt;140585597569040 -->
<g id="edge5" class="edge">
<title>140585597568720&#45;&gt;140585597569040</title>
<path fill="none" stroke="white" d="M260.83,-1862.17C237.43,-1876.51 211.03,-1892.69 186.98,-1907.43"/>
<polygon fill="white" stroke="white" points="186.76,-1907.57 184.93,-1904.58 178.23,-1912.79 186.76,-1907.57"/>
<text text-anchor="middle" x="320.5" y="-1883.8" font-family="Times,serif" font-size="14.00" fill="white">67,894 row(s)/64 chunk(s)</text>
</g>
<!-- 140585597567760 -->
<g id="node7" class="node">
<title>140585597567760</title>
<g id="a_node7"><a xlink:title="Output: 748067 rows in 256 chunks filtered: 0, 18 ms 208 µs.&#10;Operator step runtimes:&#10; LeftSideMaterialize 6 ms 26 µs&#10; RightSideMaterialize 82 µs 144 ns&#10; LeftSideTransform 0 ns&#10; RightSideTransform 0 ns&#10; LeftSidePartition 6 ms 29 µs&#10; RightSidePartition 866 µs 777 ns&#10; LeftSideSortBuckets 725 µs 572 ns&#10; RightSideSortBuckets 715 µs 512 ns&#10; GatherRowIds 2 µs 174 ns&#10; FindJoinPartner 1 ms 449 µs&#10; OutputWriting 1 ms 798 µs.&#10;Radix bits: 8.">
<polygon fill="none" stroke="white" stroke-width="3.52" points="658.5,-1367 447.5,-1367 447.5,-1298 658.5,-1298 658.5,-1367"/>
<text text-anchor="middle" x="553" y="-1351.8" font-family="Times,serif" font-size="14.00" fill="white">JoinSimdSortMerge (Inner)</text>
<text text-anchor="middle" x="553" y="-1336.8" font-family="Times,serif" font-size="14.00" fill="white">l_suppkey = s_suppkey</text>
<text text-anchor="middle" x="553" y="-1305.8" font-family="Times,serif" font-size="14.00" fill="white">18 ms 208 µs</text>
</a>
</g>
</g>
<!-- 140585597567760&#45;&gt;140585597568720 -->
<g id="edge6" class="edge">
<title>140585597567760&#45;&gt;140585597568720</title>
<path fill="none" stroke="white" d="M553,-1367.07C553,-1390.68 553,-1423.02 553,-1451.5 553,-1451.5 553,-1451.5 553,-1686 553,-1720.58 553.79,-1735.9 529,-1760 515.29,-1773.33 498.73,-1783.68 481.07,-1791.7"/>
<polygon fill="white" stroke="white" points="480.94,-1791.75 479.57,-1788.53 471.75,-1795.68 480.94,-1791.75"/>
<text text-anchor="middle" x="655.5" y="-1561.3" font-family="Times,serif" font-size="14.00" fill="white">748,067 row(s)/256 chunk(s)</text>
</g>
<!-- 140585597568080 -->
<g id="node24" class="node">
<title>140585597568080</title>
<g id="a_node24"><a xlink:title="Output: 3519174 rows in 64 chunks filtered: 0, 111 ms 948 µs.&#10;Operator step runtimes:&#10; LeftSideMaterialize 11 ms 106 µs&#10; RightSideMaterialize 14 ms 575 µs&#10; LeftSideTransform 0 ns&#10; RightSideTransform 0 ns&#10; LeftSidePartition 46 ms 619 µs&#10; RightSidePartition 5 ms 648 µs&#10; LeftSideSortBuckets 21 ms 839 µs&#10; RightSideSortBuckets 732 µs 54 ns&#10; GatherRowIds 1 µs 904 ns&#10; FindJoinPartner 9 ms 300 µs&#10; OutputWriting 449 µs 695 ns.&#10;Radix bits: 8.">
<polygon fill="none" stroke="white" stroke-width="8" points="353.5,-1487 68.5,-1487 68.5,-1418 353.5,-1418 353.5,-1487"/>
<text text-anchor="middle" x="211" y="-1471.8" font-family="Times,serif" font-size="14.00" fill="white">JoinSimdSortMerge (Semi Reduction)</text>
<text text-anchor="middle" x="211" y="-1456.8" font-family="Times,serif" font-size="14.00" fill="white">l_orderkey = l_orderkey</text>
<text text-anchor="middle" x="211" y="-1425.8" font-family="Times,serif" font-size="14.00" fill="white">111 ms 948 µs</text>
</a>
</g>
</g>
<!-- 140585597567760&#45;&gt;140585597568080 -->
<g id="edge7" class="edge">
<title>140585597567760&#45;&gt;140585597568080</title>
<path fill="none" stroke="white" d="M447.43,-1352.41C410.88,-1360.5 370.05,-1371.29 334,-1385 314.01,-1392.6 293.22,-1402.84 274.54,-1413.01"/>
<polygon fill="white" stroke="white" points="265.55,-1417.98 275.99,-1416.2 274.3,-1413.14 265.55,-1417.98"/>
<text text-anchor="middle" x="436.5" y="-1388.8" font-family="Times,serif" font-size="14.00" fill="white">748,067 row(s)/256 chunk(s)</text>
</g>
<!-- 140585597567440 -->
<g id="node8" class="node">
<title>140585597567440</title>
<g id="a_node8"><a xlink:title="Output: 748067 rows in 64 chunks filtered: 0, 17 ms 751 µs.&#10;Chunks: 0 skipped with no results, &#10;0 skipped with all matching, 0 scanned using binary search.">
<polygon fill="none" stroke="white" stroke-width="3.46" points="666.5,-1247 439.5,-1247 439.5,-1163 666.5,-1163 666.5,-1247"/>
<text text-anchor="middle" x="553" y="-1231.8" font-family="Times,serif" font-size="14.00" fill="white">TableScan</text>
<text text-anchor="middle" x="553" y="-1216.8" font-family="Times,serif" font-size="14.00" fill="white">Impl: ColumnVsColumn</text>
<text text-anchor="middle" x="553" y="-1201.8" font-family="Times,serif" font-size="14.00" fill="white">l_receiptdate &gt; l_commitdate</text>
<text text-anchor="middle" x="553" y="-1170.8" font-family="Times,serif" font-size="14.00" fill="white">17 ms 751 µs</text>
</a>
</g>
</g>
<!-- 140585597567440&#45;&gt;140585597567760 -->
<g id="edge8" class="edge">
<title>140585597567440&#45;&gt;140585597567760</title>
<path fill="none" stroke="white" d="M553,-1247.09C553,-1260.07 553,-1274.45 553,-1287.61"/>
<polygon fill="white" stroke="white" points="553,-1287.85 549.5,-1287.85 553,-1297.85 553,-1287.85"/>
<text text-anchor="middle" x="651" y="-1268.8" font-family="Times,serif" font-size="14.00" fill="white">748,067 row(s)/64 chunk(s)</text>
</g>
<!-- 140585597567120 -->
<g id="node9" class="node">
<title>140585597567120</title>
<g id="a_node9"><a xlink:title="Output: 1186197 rows in 64 chunks filtered: 0, 43 ms 571 µs.&#10;Operator step runtimes:&#10; LeftSideMaterialize 21 ms 113 µs&#10; RightSideMaterialize 2 ms 240 µs&#10; LeftSideTransform 0 ns&#10; RightSideTransform 0 ns&#10; LeftSidePartition 1 ms 344 µs&#10; RightSidePartition 3 ms 778 µs&#10; LeftSideSortBuckets 1 ms 551 µs&#10; RightSideSortBuckets 4 ms 588 µs&#10; GatherRowIds 3 µs 526 ns&#10; FindJoinPartner 5 ms 402 µs&#10; OutputWriting 1 ms 818 µs.&#10;Radix bits: 8.">
<polygon fill="none" stroke="white" stroke-width="5.67" points="657.5,-1112 448.5,-1112 448.5,-1043 657.5,-1043 657.5,-1112"/>
<text text-anchor="middle" x="553" y="-1096.8" font-family="Times,serif" font-size="14.00" fill="white">JoinSimdSortMerge (Semi)</text>
<text text-anchor="middle" x="553" y="-1081.8" font-family="Times,serif" font-size="14.00" fill="white">l_orderkey = o_orderkey</text>
<text text-anchor="middle" x="553" y="-1050.8" font-family="Times,serif" font-size="14.00" fill="white">43 ms 571 µs</text>
</a>
</g>
</g>
<!-- 140585597567120&#45;&gt;140585597567440 -->
<g id="edge9" class="edge">
<title>140585597567120&#45;&gt;140585597567440</title>
<path fill="none" stroke="white" d="M553,-1112.13C553,-1124.51 553,-1138.84 553,-1152.44"/>
<polygon fill="white" stroke="white" points="549.5,-1152.65 553,-1162.65 556.5,-1152.65 549.5,-1152.65"/>
<text text-anchor="middle" x="658" y="-1133.8" font-family="Times,serif" font-size="14.00" fill="white">1,186,197 row(s)/64 chunk(s)</text>
</g>
<!-- 140585597470992 -->
<g id="node10" class="node">
<title>140585597470992</title>
<g id="a_node10"><a xlink:title="Output: 2448321 rows in 256 chunks filtered: 0, 1 ms 904 µs.">
<polygon fill="none" stroke="white" points="669,-992 565,-992 565,-938 669,-938 669,-992"/>
<text text-anchor="middle" x="617" y="-976.8" font-family="Times,serif" font-size="14.00" fill="white">Validate</text>
<text text-anchor="middle" x="617" y="-945.8" font-family="Times,serif" font-size="14.00" fill="white">1 ms 904 µs</text>
</a>
</g>
</g>
<!-- 140585597470992&#45;&gt;140585597567120 -->
<g id="edge10" class="edge">
<title>140585597470992&#45;&gt;140585597567120</title>
<path fill="none" stroke="white" d="M608.76,-992.04C604.94,-1002.6 599.92,-1014.71 594,-1025 592.15,-1028.21 590.12,-1031.43 587.97,-1034.61"/>
<polygon fill="white" stroke="white" points="587.87,-1034.75 585.02,-1032.72 582.07,-1042.9 587.87,-1034.75"/>
<text text-anchor="middle" x="711.5" y="-1013.8" font-family="Times,serif" font-size="14.00" fill="white">2,448,321 row(s)/256 chunk(s)</text>
</g>
<!-- 140585597566480 -->
<g id="node11" class="node">
<title>140585597566480</title>
<g id="a_node11"><a xlink:title="Output: 2448321 rows in 256 chunks filtered: 0, 91 ms 982 µs.&#10;Operator step runtimes:&#10; LeftSideMaterialize 12 ms 686 µs&#10; RightSideMaterialize 114 µs 345 ns&#10; LeftSideTransform 0 ns&#10; RightSideTransform 0 ns&#10; LeftSidePartition 49 ms 33 µs&#10; RightSidePartition 962 µs 576 ns&#10; LeftSideSortBuckets 21 ms 938 µs&#10; RightSideSortBuckets 698 µs 782 ns&#10; GatherRowIds 2 µs 384 ns&#10; FindJoinPartner 3 ms 786 µs&#10; OutputWriting 1 ms 232 µs.&#10;Radix bits: 8.">
<polygon fill="none" stroke="white" stroke-width="7.52" points="761.5,-879.5 476.5,-879.5 476.5,-810.5 761.5,-810.5 761.5,-879.5"/>
<text text-anchor="middle" x="619" y="-864.3" font-family="Times,serif" font-size="14.00" fill="white">JoinSimdSortMerge (Semi Reduction)</text>
<text text-anchor="middle" x="619" y="-849.3" font-family="Times,serif" font-size="14.00" fill="white">l_suppkey = s_suppkey</text>
<text text-anchor="middle" x="619" y="-818.3" font-family="Times,serif" font-size="14.00" fill="white">91 ms 982 µs</text>
</a>
</g>
</g>
<!-- 140585597566480&#45;&gt;140585597470992 -->
<g id="edge11" class="edge">
<title>140585597566480&#45;&gt;140585597470992</title>
<path fill="none" stroke="white" d="M618.43,-879.81C618.17,-894.75 617.88,-912.35 617.62,-927.58"/>
<polygon fill="white" stroke="white" points="614.12,-927.62 617.45,-937.68 621.12,-927.74 614.12,-927.62"/>
<text text-anchor="middle" x="727.5" y="-908.8" font-family="Times,serif" font-size="14.00" fill="white">2,448,321 row(s)/256 chunk(s)</text>
</g>
<!-- 140542967562128 -->
<g id="node12" class="node">
<title>140542967562128</title>
<g id="a_node12"><a xlink:title="Output: 59986052 rows in 916 chunks filtered: 0, 1 ms 187 µs.">
<polygon fill="none" stroke="white" points="221.5,-752 90.5,-752 90.5,-638 221.5,-638 221.5,-752"/>
<text text-anchor="middle" x="156" y="-736.8" font-family="Times,serif" font-size="14.00" fill="white">GetTable</text>
<text text-anchor="middle" x="156" y="-721.8" font-family="Times,serif" font-size="14.00" fill="white">(lineitem)</text>
<text text-anchor="middle" x="156" y="-706.8" font-family="Times,serif" font-size="14.00" fill="white">pruned:</text>
<text text-anchor="middle" x="156" y="-691.8" font-family="Times,serif" font-size="14.00" fill="white">0/916 chunk(s)</text>
<text text-anchor="middle" x="156" y="-676.8" font-family="Times,serif" font-size="14.00" fill="white">12/16 column(s)</text>
<text text-anchor="middle" x="156" y="-645.8" font-family="Times,serif" font-size="14.00" fill="white">1 ms 187 µs</text>
</a>
</g>
</g>
<!-- 140542967562128&#45;&gt;140585597566480 -->
<g id="edge12" class="edge">
<title>140542967562128&#45;&gt;140585597566480</title>
<path fill="none" stroke="white" stroke-width="8" d="M152.94,-752.37C155.08,-764.69 159.8,-776.55 169,-785 193.43,-807.44 434.26,-797.65 467,-803 476.11,-804.49 485.46,-806.3 494.83,-808.32"/>
<polygon fill="white" stroke="white" stroke-width="8" points="494.83,-808.32 493.31,-815.15 504.59,-810.49 494.83,-808.32"/>
<text text-anchor="middle" x="283" y="-773.8" font-family="Times,serif" font-size="14.00" fill="white">59,986,052 row(s)/916 chunk(s)</text>
</g>
<!-- 140542967562128&#45;&gt;140585597568080 -->
<g id="edge13" class="edge">
<title>140542967562128&#45;&gt;140585597568080</title>
<path fill="none" stroke="white" stroke-width="8" d="M146.51,-752.05C142.61,-779.65 139,-813.48 139,-844 139,-844 139,-844 139,-1333.5 139,-1361.59 154.05,-1388.66 170.39,-1409.77"/>
<polygon fill="white" stroke="white" stroke-width="8" points="170.4,-1409.78 164.96,-1414.19 176.69,-1417.56 170.4,-1409.78"/>
<text text-anchor="middle" x="253" y="-1073.8" font-family="Times,serif" font-size="14.00" fill="white">59,986,052 row(s)/916 chunk(s)</text>
</g>
<!-- 140585597470736 -->
<g id="node13" class="node">
<title>140585597470736</title>
<g id="a_node13"><a xlink:title="Output: 4079 rows in 1 chunk filtered: 0, 26 µs 79 ns.">
<polygon fill="none" stroke="white" points="815.5,-722 716.5,-722 716.5,-668 815.5,-668 815.5,-722"/>
<text text-anchor="middle" x="766" y="-706.8" font-family="Times,serif" font-size="14.00" fill="white">Validate</text>
<text text-anchor="middle" x="766" y="-675.8" font-family="Times,serif" font-size="14.00" fill="white">26 µs 79 ns</text>
</a>
</g>
</g>
<!-- 140585597470736&#45;&gt;140585597567760 -->
<g id="edge15" class="edge">
<title>140585597470736&#45;&gt;140585597567760</title>
<path fill="none" stroke="white" d="M802.37,-722.14C817.52,-734.89 833.9,-751.48 844,-770 860.03,-799.39 858,-810.53 858,-844 858,-844 858,-844 858,-1206 858,-1248.59 755,-1284.06 668.71,-1306.31"/>
<polygon fill="white" stroke="white" points="658.82,-1308.82 669.37,-1309.75 668.51,-1306.36 658.82,-1308.82"/>
<text text-anchor="middle" x="942.5" y="-1013.8" font-family="Times,serif" font-size="14.00" fill="white">4,079 row(s)/1 chunk(s)</text>
</g>
<!-- 140585597470736&#45;&gt;140585597566480 -->
<g id="edge14" class="edge">
<title>140585597470736&#45;&gt;140585597566480</title>
<path fill="none" stroke="white" d="M729.73,-722.26C712.33,-735.64 691.69,-752.72 675,-770 665.55,-779.79 656.23,-791.18 648,-802.04"/>
<polygon fill="white" stroke="white" points="641.93,-810.21 650.7,-804.27 647.89,-802.18 641.93,-810.21"/>
<text text-anchor="middle" x="759.5" y="-773.8" font-family="Times,serif" font-size="14.00" fill="white">4,079 row(s)/1 chunk(s)</text>
</g>
<!-- 140585597566160 -->
<g id="node14" class="node">
<title>140585597566160</title>
<g id="a_node14"><a xlink:title="Output: 4079 rows in 1 chunk filtered: 0, 3 ms 566 µs.&#10;Operator step runtimes:&#10; LeftSideMaterialize 619 µs 493 ns&#10; RightSideMaterialize 4 µs 48 ns&#10; LeftSideTransform 0 ns&#10; RightSideTransform 0 ns&#10; LeftSidePartition 1 ms 29 µs&#10; RightSidePartition 15 µs 549 ns&#10; LeftSideSortBuckets 903 µs 205 ns&#10; RightSideSortBuckets 792 µs 627 ns&#10; GatherRowIds 2 µs 144 ns&#10; FindJoinPartner 72 µs 736 ns&#10; OutputWriting 24 µs 927 ns.&#10;Radix bits: 8.">
<polygon fill="none" stroke="white" points="870.5,-587 661.5,-587 661.5,-518 870.5,-518 870.5,-587"/>
<text text-anchor="middle" x="766" y="-571.8" font-family="Times,serif" font-size="14.00" fill="white">JoinSimdSortMerge (Semi)</text>
<text text-anchor="middle" x="766" y="-556.8" font-family="Times,serif" font-size="14.00" fill="white">s_nationkey = n_nationkey</text>
<text text-anchor="middle" x="766" y="-525.8" font-family="Times,serif" font-size="14.00" fill="white">3 ms 566 µs</text>
</a>
</g>
</g>
<!-- 140585597566160&#45;&gt;140585597470736 -->
<g id="edge16" class="edge">
<title>140585597566160&#45;&gt;140585597470736</title>
<path fill="none" stroke="white" d="M766,-587.15C766,-608.36 766,-635.75 766,-657.48"/>
<polygon fill="white" stroke="white" points="762.5,-657.65 766,-667.65 769.5,-657.65 762.5,-657.65"/>
<text text-anchor="middle" x="850.5" y="-608.8" font-family="Times,serif" font-size="14.00" fill="white">4,079 row(s)/1 chunk(s)</text>
</g>
<!-- 140542967562576 -->
<g id="node15" class="node">
<title>140542967562576</title>
<g id="a_node15"><a xlink:title="Output: 100000 rows in 2 chunks filtered: 0, 37 µs 831 ns.">
<polygon fill="none" stroke="white" points="717.5,-467 604.5,-467 604.5,-353 717.5,-353 717.5,-467"/>
<text text-anchor="middle" x="661" y="-451.8" font-family="Times,serif" font-size="14.00" fill="white">GetTable</text>
<text text-anchor="middle" x="661" y="-436.8" font-family="Times,serif" font-size="14.00" fill="white">(supplier)</text>
<text text-anchor="middle" x="661" y="-421.8" font-family="Times,serif" font-size="14.00" fill="white">pruned:</text>
<text text-anchor="middle" x="661" y="-406.8" font-family="Times,serif" font-size="14.00" fill="white">0/2 chunk(s)</text>
<text text-anchor="middle" x="661" y="-391.8" font-family="Times,serif" font-size="14.00" fill="white">4/7 column(s)</text>
<text text-anchor="middle" x="661" y="-360.8" font-family="Times,serif" font-size="14.00" fill="white">37 µs 831 ns</text>
</a>
</g>
</g>
<!-- 140542967562576&#45;&gt;140585597566160 -->
<g id="edge17" class="edge">
<title>140542967562576&#45;&gt;140585597566160</title>
<path fill="none" stroke="white" d="M652.57,-467.31C653.26,-478.8 655.92,-490.32 662,-500 664.48,-503.94 667.36,-507.6 670.55,-510.98"/>
<polygon fill="white" stroke="white" points="670.69,-511.11 668.29,-513.66 677.98,-517.95 670.69,-511.11"/>
<text text-anchor="middle" x="755.5" y="-488.8" font-family="Times,serif" font-size="14.00" fill="white">100,000 row(s)/2 chunk(s)</text>
</g>
<!-- 140585597468688 -->
<g id="node16" class="node">
<title>140585597468688</title>
<g id="a_node16"><a xlink:title="Output: 1 row in 1 chunk filtered: 0, 6 µs 853 ns.">
<polygon fill="none" stroke="white" points="920.5,-437 821.5,-437 821.5,-383 920.5,-383 920.5,-437"/>
<text text-anchor="middle" x="871" y="-421.8" font-family="Times,serif" font-size="14.00" fill="white">Validate</text>
<text text-anchor="middle" x="871" y="-390.8" font-family="Times,serif" font-size="14.00" fill="white">6 µs 853 ns</text>
</a>
</g>
</g>
<!-- 140585597468688&#45;&gt;140585597566160 -->
<g id="edge18" class="edge">
<title>140585597468688&#45;&gt;140585597566160</title>
<path fill="none" stroke="white" d="M869.71,-437.36C867.61,-456.34 862.3,-481.72 849,-500 846.16,-503.91 842.92,-507.58 839.41,-511.03"/>
<polygon fill="white" stroke="white" points="831.86,-517.79 841.64,-513.73 839.31,-511.12 831.86,-517.79"/>
<text text-anchor="middle" x="927" y="-488.8" font-family="Times,serif" font-size="14.00" fill="white">1 row(s)/1 chunk(s)</text>
</g>
<!-- 140585597561680 -->
<g id="node17" class="node">
<title>140585597561680</title>
<g id="a_node17"><a xlink:title="Output: 1 row in 1 chunk filtered: 0, 27 µs 641 ns.&#10;Chunks: 0 skipped with no results, &#10;0 skipped with all matching, 0 scanned using binary search.">
<polygon fill="none" stroke="white" points="955.5,-302 786.5,-302 786.5,-218 955.5,-218 955.5,-302"/>
<text text-anchor="middle" x="871" y="-286.8" font-family="Times,serif" font-size="14.00" fill="white">TableScan</text>
<text text-anchor="middle" x="871" y="-271.8" font-family="Times,serif" font-size="14.00" fill="white">Impl: ColumnVsValue</text>
<text text-anchor="middle" x="871" y="-256.8" font-family="Times,serif" font-size="14.00" fill="white">n_name = &#39;INDIA&#39;</text>
<text text-anchor="middle" x="871" y="-225.8" font-family="Times,serif" font-size="14.00" fill="white">27 µs 641 ns</text>
</a>
</g>
</g>
<!-- 140585597561680&#45;&gt;140585597468688 -->
<g id="edge19" class="edge">
<title>140585597561680&#45;&gt;140585597468688</title>
<path fill="none" stroke="white" d="M871,-302.23C871,-324.32 871,-351.31 871,-372.62"/>
<polygon fill="white" stroke="white" points="867.5,-372.88 871,-382.88 874.5,-372.88 867.5,-372.88"/>
<text text-anchor="middle" x="940" y="-323.8" font-family="Times,serif" font-size="14.00" fill="white">1 row(s)/1 chunk(s)</text>
</g>
<!-- 140542967563024 -->
<g id="node18" class="node">
<title>140542967563024</title>
<g id="a_node18"><a xlink:title="Output: 25 rows in 1 chunk filtered: 0, 41 µs 198 ns.">
<polygon fill="none" stroke="white" points="927.5,-140.5 814.5,-140.5 814.5,-26.5 927.5,-26.5 927.5,-140.5"/>
<text text-anchor="middle" x="871" y="-125.3" font-family="Times,serif" font-size="14.00" fill="white">GetTable</text>
<text text-anchor="middle" x="871" y="-110.3" font-family="Times,serif" font-size="14.00" fill="white">(nation)</text>
<text text-anchor="middle" x="871" y="-95.3" font-family="Times,serif" font-size="14.00" fill="white">pruned:</text>
<text text-anchor="middle" x="871" y="-80.3" font-family="Times,serif" font-size="14.00" fill="white">0/1 chunk(s)</text>
<text text-anchor="middle" x="871" y="-65.3" font-family="Times,serif" font-size="14.00" fill="white">2/4 column(s)</text>
<text text-anchor="middle" x="871" y="-34.3" font-family="Times,serif" font-size="14.00" fill="white">41 µs 198 ns</text>
</a>
</g>
</g>
<!-- 140542967563024&#45;&gt;140585597561680 -->
<g id="edge20" class="edge">
<title>140542967563024&#45;&gt;140585597561680</title>
<path fill="none" stroke="white" d="M871,-140.67C871,-162.25 871,-186.74 871,-207.83"/>
<polygon fill="white" stroke="white" points="867.5,-207.87 871,-217.87 874.5,-207.87 867.5,-207.87"/>
<text text-anchor="middle" x="944.5" y="-188.8" font-family="Times,serif" font-size="14.00" fill="white">25 row(s)/1 chunk(s)</text>
</g>
<!-- 140585597471504 -->
<g id="node19" class="node">
<title>140585597471504</title>
<g id="a_node19"><a xlink:title="Output: 7309184 rows in 229 chunks filtered: 0, 477 µs 236 ns.">
<polygon fill="none" stroke="white" points="432.5,-992 315.5,-992 315.5,-938 432.5,-938 432.5,-992"/>
<text text-anchor="middle" x="374" y="-976.8" font-family="Times,serif" font-size="14.00" fill="white">Validate</text>
<text text-anchor="middle" x="374" y="-945.8" font-family="Times,serif" font-size="14.00" fill="white">477 µs 236 ns</text>
</a>
</g>
</g>
<!-- 140585597471504&#45;&gt;140585597567120 -->
<g id="edge21" class="edge">
<title>140585597471504&#45;&gt;140585597567120</title>
<path fill="none" stroke="white" stroke-width="2.81" d="M365.69,-992.01C363.77,-1003.18 364.01,-1015.76 371,-1025 380.34,-1037.35 407.49,-1047.59 438.07,-1055.6"/>
<polygon fill="white" stroke="white" stroke-width="2.81" points="448.1,-1058.12 439.25,-1052.28 438.4,-1055.68 448.1,-1058.12"/>
<text text-anchor="middle" x="480.5" y="-1013.8" font-family="Times,serif" font-size="14.00" fill="white">7,309,184 row(s)/229 chunk(s)</text>
</g>
<!-- 140585597566800 -->
<g id="node20" class="node">
<title>140585597566800</title>
<g id="a_node20"><a xlink:title="Output: 7309184 rows in 229 chunks filtered: 0, 1 ms 837 µs.&#10;Chunks: 0 skipped with no results, &#10;0 skipped with all matching, 0 scanned using binary search.">
<polygon fill="none" stroke="white" points="458.5,-887 289.5,-887 289.5,-803 458.5,-803 458.5,-887"/>
<text text-anchor="middle" x="374" y="-871.8" font-family="Times,serif" font-size="14.00" fill="white">TableScan</text>
<text text-anchor="middle" x="374" y="-856.8" font-family="Times,serif" font-size="14.00" fill="white">Impl: ColumnVsValue</text>
<text text-anchor="middle" x="374" y="-841.8" font-family="Times,serif" font-size="14.00" fill="white">o_orderstatus = &#39;F&#39;</text>
<text text-anchor="middle" x="374" y="-810.8" font-family="Times,serif" font-size="14.00" fill="white">1 ms 837 µs</text>
</a>
</g>
</g>
<!-- 140585597566800&#45;&gt;140585597471504 -->
<g id="edge22" class="edge">
<title>140585597566800&#45;&gt;140585597471504</title>
<path fill="none" stroke="white" stroke-width="2.81" d="M374,-887.27C374,-900.36 374,-914.72 374,-927.45"/>
<polygon fill="white" stroke="white" stroke-width="2.81" points="370.5,-927.69 374,-937.69 377.5,-927.69 370.5,-927.69"/>
<text text-anchor="middle" x="483.5" y="-908.8" font-family="Times,serif" font-size="14.00" fill="white">7,309,184 row(s)/229 chunk(s)</text>
</g>
<!-- 140542967563472 -->
<g id="node21" class="node">
<title>140542967563472</title>
<g id="a_node21"><a xlink:title="Output: 15000000 rows in 229 chunks filtered: 0, 333 µs 827 ns.">
<polygon fill="none" stroke="white" points="484,-752 362,-752 362,-638 484,-638 484,-752"/>
<text text-anchor="middle" x="423" y="-736.8" font-family="Times,serif" font-size="14.00" fill="white">GetTable</text>
<text text-anchor="middle" x="423" y="-721.8" font-family="Times,serif" font-size="14.00" fill="white">(orders)</text>
<text text-anchor="middle" x="423" y="-706.8" font-family="Times,serif" font-size="14.00" fill="white">pruned:</text>
<text text-anchor="middle" x="423" y="-691.8" font-family="Times,serif" font-size="14.00" fill="white">0/229 chunk(s)</text>
<text text-anchor="middle" x="423" y="-676.8" font-family="Times,serif" font-size="14.00" fill="white">7/9 column(s)</text>
<text text-anchor="middle" x="423" y="-645.8" font-family="Times,serif" font-size="14.00" fill="white">333 µs 827 ns</text>
</a>
</g>
</g>
<!-- 140542967563472&#45;&gt;140585597566800 -->
<g id="edge23" class="edge">
<title>140542967563472&#45;&gt;140585597566800</title>
<path fill="none" stroke="white" stroke-width="4.58" d="M410.85,-752.02C407.98,-763.06 404.67,-774.48 401,-785 400.04,-787.74 399.01,-790.53 397.91,-793.33"/>
<polygon fill="white" stroke="white" stroke-width="4.58" points="394.11,-792.04 394.02,-802.82 401.52,-795.09 394.11,-792.04"/>
<text text-anchor="middle" x="520" y="-773.8" font-family="Times,serif" font-size="14.00" fill="white">15,000,000 row(s)/229 chunk(s)</text>
</g>
<!-- 140585597568400 -->
<g id="node22" class="node">
<title>140585597568400</title>
<g id="a_node22"><a xlink:title="Output: 2471560 rows in 64 chunks filtered: 0, 22 ms 907 µs.&#10;Chunks: 0 skipped with no results, &#10;0 skipped with all matching, 0 scanned using binary search.">
<polygon fill="none" stroke="white" stroke-width="4.09" points="412.5,-1727 185.5,-1727 185.5,-1643 412.5,-1643 412.5,-1727"/>
<text text-anchor="middle" x="299" y="-1711.8" font-family="Times,serif" font-size="14.00" fill="white">TableScan</text>
<text text-anchor="middle" x="299" y="-1696.8" font-family="Times,serif" font-size="14.00" fill="white">Impl: ColumnVsColumn</text>
<text text-anchor="middle" x="299" y="-1681.8" font-family="Times,serif" font-size="14.00" fill="white">l_receiptdate &gt; l_commitdate</text>
<text text-anchor="middle" x="299" y="-1650.8" font-family="Times,serif" font-size="14.00" fill="white">22 ms 907 µs</text>
</a>
</g>
</g>
<!-- 140585597568400&#45;&gt;140585597568720 -->
<g id="edge24" class="edge">
<title>140585597568400&#45;&gt;140585597568720</title>
<path fill="none" stroke="white" d="M308.02,-1727.35C310.8,-1740.11 313.9,-1754.32 316.81,-1767.67"/>
<polygon fill="white" stroke="white" points="318.99,-1777.67 320.28,-1767.16 316.86,-1767.9 318.99,-1777.67"/>
<text text-anchor="middle" x="420" y="-1748.8" font-family="Times,serif" font-size="14.00" fill="white">2,471,560 row(s)/64 chunk(s)</text>
</g>
<!-- 140585597472528 -->
<g id="node23" class="node">
<title>140585597472528</title>
<g id="a_node23"><a xlink:title="Output: 3519174 rows in 64 chunks filtered: 0, 1 ms 867 µs.">
<polygon fill="none" stroke="white" points="263,-1592 159,-1592 159,-1538 263,-1538 263,-1592"/>
<text text-anchor="middle" x="211" y="-1576.8" font-family="Times,serif" font-size="14.00" fill="white">Validate</text>
<text text-anchor="middle" x="211" y="-1545.8" font-family="Times,serif" font-size="14.00" fill="white">1 ms 867 µs</text>
</a>
</g>
</g>
<!-- 140585597472528&#45;&gt;140585597569040 -->
<g id="edge26" class="edge">
<title>140585597472528&#45;&gt;140585597569040</title>
<path fill="none" stroke="white" stroke-width="1.01" d="M187.88,-1592.17C160.46,-1625.12 116.3,-1684.75 99,-1745 84.01,-1797.23 90.62,-1859.74 98.72,-1902.71"/>
<polygon fill="white" stroke="white" stroke-width="1.01" points="100.68,-1912.65 102.18,-1902.16 98.74,-1902.84 100.68,-1912.65"/>
<text text-anchor="middle" x="204" y="-1748.8" font-family="Times,serif" font-size="14.00" fill="white">3,519,174 row(s)/64 chunk(s)</text>
</g>
<!-- 140585597472528&#45;&gt;140585597568400 -->
<g id="edge25" class="edge">
<title>140585597472528&#45;&gt;140585597568400</title>
<path fill="none" stroke="white" stroke-width="1.01" d="M230.53,-1592.19C239.76,-1604.56 251.09,-1619.76 261.86,-1634.2"/>
<polygon fill="white" stroke="white" stroke-width="1.01" points="259.33,-1636.67 268.12,-1642.59 264.94,-1632.48 259.33,-1636.67"/>
<text text-anchor="middle" x="360" y="-1613.8" font-family="Times,serif" font-size="14.00" fill="white">3,519,174 row(s)/64 chunk(s)</text>
</g>
<!-- 140585597568080&#45;&gt;140585597472528 -->
<g id="edge27" class="edge">
<title>140585597568080&#45;&gt;140585597472528</title>
<path fill="none" stroke="white" stroke-width="1.01" d="M211,-1487.25C211,-1500.07 211,-1514.73 211,-1527.77"/>
<polygon fill="white" stroke="white" stroke-width="1.01" points="207.5,-1527.81 211,-1537.81 214.5,-1527.81 207.5,-1527.81"/>
<text text-anchor="middle" x="316" y="-1508.8" font-family="Times,serif" font-size="14.00" fill="white">3,519,174 row(s)/64 chunk(s)</text>
</g>
<!-- 0 -->
<g id="node25" class="node">
<title>0</title>
<polygon fill="none" stroke="white" points="946,-0.5 946,-166.5 1292,-166.5 1292,-0.5 946,-0.5"/>
<text text-anchor="middle" x="1119" y="-151.3" font-family="Times,serif" font-size="14.00" fill="white">Total by operator</text>
<polyline fill="none" stroke="white" points="946,-143.5 1292,-143.5 "/>
<text text-anchor="end" x="1100" y="-128.3" font-family="Times,serif" font-size="14.00" fill="white">JoinSimdSortMerge </text>
<text text-anchor="end" x="1100" y="-113.3" font-family="Times,serif" font-size="14.00" fill="white"> TableScan </text>
<text text-anchor="end" x="1100" y="-98.3" font-family="Times,serif" font-size="14.00" fill="white"> AggregateHash </text>
<text text-anchor="end" x="1100" y="-83.3" font-family="Times,serif" font-size="14.00" fill="white"> Validate </text>
<text text-anchor="end" x="1100" y="-68.3" font-family="Times,serif" font-size="14.00" fill="white"> Sort </text>
<text text-anchor="end" x="1100" y="-53.3" font-family="Times,serif" font-size="14.00" fill="white"> GetTable </text>
<text text-anchor="end" x="1100" y="-38.3" font-family="Times,serif" font-size="14.00" fill="white"> Limit </text>
<text text-anchor="end" x="1100" y="-23.3" font-family="Times,serif" font-size="14.00" fill="white"> Alias </text>
<text text-anchor="end" x="1100" y="-8.3" font-family="Times,serif" font-size="14.00" fill="white">total</text>
<polyline fill="none" stroke="white" points="1108,-0.5 1108,-143.5 "/>
<text text-anchor="start" x="1116" y="-128.3" font-family="Times,serif" font-size="14.00" fill="white">394 ms 928 µs </text>
<text text-anchor="start" x="1116" y="-113.3" font-family="Times,serif" font-size="14.00" fill="white"> 42 ms 523 µs </text>
<text text-anchor="start" x="1116" y="-98.3" font-family="Times,serif" font-size="14.00" fill="white"> 6 ms 314 µs </text>
<text text-anchor="start" x="1116" y="-83.3" font-family="Times,serif" font-size="14.00" fill="white"> 4 ms 281 µs </text>
<text text-anchor="start" x="1116" y="-68.3" font-family="Times,serif" font-size="14.00" fill="white"> 2 ms 956 µs </text>
<text text-anchor="start" x="1116" y="-53.3" font-family="Times,serif" font-size="14.00" fill="white"> 1 ms 600 µs </text>
<text text-anchor="start" x="1116" y="-38.3" font-family="Times,serif" font-size="14.00" fill="white"> 11 µs 622 ns </text>
<text text-anchor="start" x="1116" y="-23.3" font-family="Times,serif" font-size="14.00" fill="white"> 2 µs 425 ns </text>
<text text-anchor="start" x="1116" y="-8.3" font-family="Times,serif" font-size="14.00" fill="white"> 452 ms 615 µs </text>
<polyline fill="none" stroke="white" points="1239,-0.5 1239,-143.5 "/>
<text text-anchor="start" x="1247" y="-128.3" font-family="Times,serif" font-size="14.00" fill="white">87 %</text>
<text text-anchor="start" x="1247" y="-113.3" font-family="Times,serif" font-size="14.00" fill="white">9 %</text>
<text text-anchor="start" x="1247" y="-98.3" font-family="Times,serif" font-size="14.00" fill="white">1 %</text>
<text text-anchor="start" x="1247" y="-83.3" font-family="Times,serif" font-size="14.00" fill="white">1 %</text>
<text text-anchor="start" x="1247" y="-68.3" font-family="Times,serif" font-size="14.00" fill="white">1 %</text>
<text text-anchor="start" x="1247" y="-53.3" font-family="Times,serif" font-size="14.00" fill="white">0 %</text>
<text text-anchor="start" x="1247" y="-38.3" font-family="Times,serif" font-size="14.00" fill="white">0 %</text>
<text text-anchor="start" x="1247" y="-23.3" font-family="Times,serif" font-size="14.00" fill="white">0 %</text>
<text text-anchor="start" x="1247" y="-8.3" font-family="Times,serif" font-size="14.00" fill="white"> </text>
</g>
</g>
</svg>
