<?xml version="1.0" encoding="UTF-8" standalone="no"?>
<!DOCTYPE svg PUBLIC "-//W3C//DTD SVG 1.1//EN"
 "http://www.w3.org/Graphics/SVG/1.1/DTD/svg11.dtd">
<!-- Generated by graphviz version 2.43.0 (0)
 -->
<!-- Title: G Pages: 1 -->
<svg width="1210pt" height="2225pt"
 viewBox="0.00 0.00 1210.00 2225.00" xmlns="http://www.w3.org/2000/svg" xmlns:xlink="http://www.w3.org/1999/xlink">
<g id="graph0" class="graph" transform="scale(1 1) rotate(0) translate(4 2221)">
<title>G</title>
<polygon fill="black" stroke="transparent" points="-4,4 -4,-2221 1206,-2221 1206,4 -4,4"/>
<text text-anchor="middle" x="319.5" y="-2201.8" font-family="Times,serif" font-size="14.00" fill="white">For tooltips with advanced information, hover your mouse over vertices or edge labels.</text>
<!-- 281446533859472 -->
<g id="node1" class="node">
<title>281446533859472</title>
<g id="a_node1"><a xlink:title="Output: 17829 rows in 1 chunk, 7 µs 328 ns.&#10;Operator step runtimes:&#10; ForwardUnmodifiedColumns 2 µs 752 ns&#10; EvaluateNewColumns 544 ns&#10; BuildOutput 2 µs 816 ns.">
<polygon fill="none" stroke="white" points="927.5,-2162 828.5,-2162 828.5,-2108 927.5,-2108 927.5,-2162"/>
<text text-anchor="middle" x="878" y="-2146.8" font-family="Times,serif" font-size="14.00" fill="white">Projection</text>
<text text-anchor="middle" x="878" y="-2115.8" font-family="Times,serif" font-size="14.00" fill="white">7 µs 328 ns</text>
</a>
</g>
</g>
<!-- 281446533859152 -->
<g id="node2" class="node">
<title>281446533859152</title>
<g id="a_node2"><a xlink:title="Output: 17829 rows in 1 chunk, 16 ms 485 µs.&#10;Operator step runtimes:&#10; MaterializeSortColumns 10 ms 265 µs&#10; Sort 5 ms 715 µs&#10; TemporaryResultWriting 59 µs 9 ns&#10; WriteOutput 257 µs 955 ns.">
<polygon fill="none" stroke="white" points="934.5,-2057 821.5,-2057 821.5,-2003 934.5,-2003 934.5,-2057"/>
<text text-anchor="middle" x="878" y="-2041.8" font-family="Times,serif" font-size="14.00" fill="white">Sort</text>
<text text-anchor="middle" x="878" y="-2010.8" font-family="Times,serif" font-size="14.00" fill="white">16 ms 485 µs</text>
</a>
</g>
</g>
<!-- 281446533859152&#45;&gt;281446533859472 -->
<g id="edge1" class="edge">
<title>281446533859152&#45;&gt;281446533859472</title>
<path fill="none" stroke="white" d="M878,-2057.26C878,-2069.49 878,-2084.24 878,-2097.52"/>
<polygon fill="white" stroke="white" points="874.5,-2097.79 878,-2107.79 881.5,-2097.79 874.5,-2097.79"/>
<text text-anchor="middle" x="967" y="-2078.8" font-family="Times,serif" font-size="14.00" fill="white">17,829 row(s)/1 chunk(s)</text>
</g>
<!-- 281446533858832 -->
<g id="node3" class="node">
<title>281446533858832</title>
<g id="a_node3"><a xlink:title="Output: 17829 rows in 34 chunks, 6 ms 73 µs.&#10;Operator step runtimes:&#10; LeftSideMaterialize 595 µs 560 ns&#10; RightSideMaterialize 2 ms 443 µs&#10; LeftSideTransform 0 ns&#10; RightSideTransform 0 ns&#10; LeftSidePartition 655 µs 497 ns&#10; RightSidePartition 730 µs 634 ns&#10; LeftSideSortBuckets 432 µs 805 ns&#10; RightSideSortBuckets 442 µs 789 ns&#10; GatherRowIds 352 ns&#10; FindJoinPartner 406 µs 693 ns&#10; OutputWriting 188 µs 291 ns.">
<polygon fill="none" stroke="white" points="982.5,-1952 773.5,-1952 773.5,-1883 982.5,-1883 982.5,-1952"/>
<text text-anchor="middle" x="878" y="-1936.8" font-family="Times,serif" font-size="14.00" fill="white">JoinSimdSortMerge (Semi)</text>
<text text-anchor="middle" x="878" y="-1921.8" font-family="Times,serif" font-size="14.00" fill="white">s_suppkey = ps_suppkey</text>
<text text-anchor="middle" x="878" y="-1890.8" font-family="Times,serif" font-size="14.00" fill="white">6 ms 73 µs</text>
</a>
</g>
</g>
<!-- 281446533858832&#45;&gt;281446533859152 -->
<g id="edge2" class="edge">
<title>281446533858832&#45;&gt;281446533859152</title>
<path fill="none" stroke="white" d="M878,-1952.25C878,-1965.07 878,-1979.73 878,-1992.77"/>
<polygon fill="white" stroke="white" points="874.5,-1992.81 878,-2002.81 881.5,-1992.81 874.5,-1992.81"/>
<text text-anchor="middle" x="971.5" y="-1973.8" font-family="Times,serif" font-size="14.00" fill="white">17,829 row(s)/34 chunk(s)</text>
</g>
<!-- 281446523171088 -->
<g id="node4" class="node">
<title>281446523171088</title>
<g id="a_node4"><a xlink:title="Output: 39917 rows in 1 chunk, 95 µs 554 ns.">
<polygon fill="none" stroke="white" points="924,-1584.5 816,-1584.5 816,-1530.5 924,-1530.5 924,-1584.5"/>
<text text-anchor="middle" x="870" y="-1569.3" font-family="Times,serif" font-size="14.00" fill="white">Validate</text>
<text text-anchor="middle" x="870" y="-1538.3" font-family="Times,serif" font-size="14.00" fill="white">95 µs 554 ns</text>
</a>
</g>
</g>
<!-- 281446523171088&#45;&gt;281446533858832 -->
<g id="edge3" class="edge">
<title>281446523171088&#45;&gt;281446533858832</title>
<path fill="none" stroke="white" d="M924.07,-1582.68C940.94,-1593.12 957.58,-1607.12 967,-1625 1016.72,-1719.37 1020.29,-1772.6 967,-1865 964.84,-1868.74 962.3,-1872.23 959.46,-1875.49"/>
<polygon fill="white" stroke="white" points="959.38,-1875.57 956.89,-1873.11 952.35,-1882.68 959.38,-1875.57"/>
<text text-anchor="middle" x="1094" y="-1748.8" font-family="Times,serif" font-size="14.00" fill="white">39,917 row(s)/1 chunk(s)</text>
</g>
<!-- 281446533858192 -->
<g id="node11" class="node">
<title>281446533858192</title>
<g id="a_node11"><a xlink:title="Output: 23545 rows in 43 chunks, 30 ms 217 µs.&#10;Operator step runtimes:&#10; LeftSideMaterialize 26 ms 4 µs&#10; RightSideMaterialize 559 µs 783 ns&#10; LeftSideTransform 0 ns&#10; RightSideTransform 0 ns&#10; LeftSidePartition 811 µs 755 ns&#10; RightSidePartition 743 µs 114 ns&#10; LeftSideSortBuckets 441 µs 765 ns&#10; RightSideSortBuckets 439 µs 909 ns&#10; GatherRowIds 544 ns&#10; FindJoinPartner 633 µs 512 ns&#10; OutputWriting 399 µs 845 ns.">
<polygon fill="none" stroke="white" points="913.5,-1727 628.5,-1727 628.5,-1658 913.5,-1658 913.5,-1727"/>
<text text-anchor="middle" x="771" y="-1711.8" font-family="Times,serif" font-size="14.00" fill="white">JoinSimdSortMerge (Semi Reduction)</text>
<text text-anchor="middle" x="771" y="-1696.8" font-family="Times,serif" font-size="14.00" fill="white">ps_suppkey = s_suppkey</text>
<text text-anchor="middle" x="771" y="-1665.8" font-family="Times,serif" font-size="14.00" fill="white">30 ms 217 µs</text>
</a>
</g>
</g>
<!-- 281446523171088&#45;&gt;281446533858192 -->
<g id="edge4" class="edge">
<title>281446523171088&#45;&gt;281446533858192</title>
<path fill="none" stroke="white" d="M828.69,-1584.5C814.27,-1595.42 799.17,-1609.26 789,-1625 784.52,-1631.93 781.15,-1639.95 778.61,-1647.97"/>
<polygon fill="white" stroke="white" points="775.92,-1657.68 781.97,-1648.98 778.59,-1648.05 775.92,-1657.68"/>
<text text-anchor="middle" x="878" y="-1628.8" font-family="Times,serif" font-size="14.00" fill="white">39,917 row(s)/1 chunk(s)</text>
</g>
<!-- 281446533853712 -->
<g id="node5" class="node">
<title>281446533853712</title>
<g id="a_node5"><a xlink:title="Output: 39917 rows in 1 chunk, 2 ms 492 µs.&#10;Operator step runtimes:&#10; LeftSideMaterialize 381 µs 605 ns&#10; RightSideMaterialize 28 µs 448 ns&#10; LeftSideTransform 0 ns&#10; RightSideTransform 0 ns&#10; LeftSidePartition 611 µs 144 ns&#10; RightSidePartition 8 µs 128 ns&#10; LeftSideSortBuckets 687 µs 881 ns&#10; RightSideSortBuckets 447 µs 110 ns&#10; GatherRowIds 1 µs 24 ns&#10; FindJoinPartner 166 µs 499 ns&#10; OutputWriting 16 µs 672 ns.">
<polygon fill="none" stroke="white" points="974.5,-1457 765.5,-1457 765.5,-1388 974.5,-1388 974.5,-1457"/>
<text text-anchor="middle" x="870" y="-1441.8" font-family="Times,serif" font-size="14.00" fill="white">JoinSimdSortMerge (Semi)</text>
<text text-anchor="middle" x="870" y="-1426.8" font-family="Times,serif" font-size="14.00" fill="white">s_nationkey = n_nationkey</text>
<text text-anchor="middle" x="870" y="-1395.8" font-family="Times,serif" font-size="14.00" fill="white">2 ms 492 µs</text>
</a>
</g>
</g>
<!-- 281446533853712&#45;&gt;281446523171088 -->
<g id="edge5" class="edge">
<title>281446533853712&#45;&gt;281446523171088</title>
<path fill="none" stroke="white" d="M870,-1457.06C870,-1476.24 870,-1500.31 870,-1519.96"/>
<polygon fill="white" stroke="white" points="866.5,-1520.07 870,-1530.07 873.5,-1520.07 866.5,-1520.07"/>
<text text-anchor="middle" x="959" y="-1478.8" font-family="Times,serif" font-size="14.00" fill="white">39,917 row(s)/1 chunk(s)</text>
</g>
<!-- 281446535362768 -->
<g id="node6" class="node">
<title>281446535362768</title>
<g id="a_node6"><a xlink:title="Output: 1000000 rows in 16 chunks, 61 µs 729 ns.">
<polygon fill="none" stroke="white" points="878.5,-1337 765.5,-1337 765.5,-1223 878.5,-1223 878.5,-1337"/>
<text text-anchor="middle" x="822" y="-1321.8" font-family="Times,serif" font-size="14.00" fill="white">GetTable</text>
<text text-anchor="middle" x="822" y="-1306.8" font-family="Times,serif" font-size="14.00" fill="white">(supplier)</text>
<text text-anchor="middle" x="822" y="-1291.8" font-family="Times,serif" font-size="14.00" fill="white">pruned:</text>
<text text-anchor="middle" x="822" y="-1276.8" font-family="Times,serif" font-size="14.00" fill="white">0/16 chunk(s)</text>
<text text-anchor="middle" x="822" y="-1261.8" font-family="Times,serif" font-size="14.00" fill="white">3/7 column(s)</text>
<text text-anchor="middle" x="822" y="-1230.8" font-family="Times,serif" font-size="14.00" fill="white">61 µs 729 ns</text>
</a>
</g>
</g>
<!-- 281446535362768&#45;&gt;281446533853712 -->
<g id="edge6" class="edge">
<title>281446535362768&#45;&gt;281446533853712</title>
<path fill="none" stroke="white" d="M816.51,-1337.27C817.11,-1348.4 818.98,-1359.79 823,-1370 824.28,-1373.25 825.87,-1376.43 827.69,-1379.5"/>
<polygon fill="white" stroke="white" points="827.73,-1379.57 824.83,-1381.52 833.31,-1387.86 827.73,-1379.57"/>
<text text-anchor="middle" x="928" y="-1358.8" font-family="Times,serif" font-size="14.00" fill="white">1,000,000 row(s)/16 chunk(s)</text>
</g>
<!-- 281446523164432 -->
<g id="node7" class="node">
<title>281446523164432</title>
<g id="a_node7"><a xlink:title="Output: 1 row in 1 chunk, 4 µs 705 ns.">
<polygon fill="none" stroke="white" points="1104.5,-1307 1005.5,-1307 1005.5,-1253 1104.5,-1253 1104.5,-1307"/>
<text text-anchor="middle" x="1055" y="-1291.8" font-family="Times,serif" font-size="14.00" fill="white">Validate</text>
<text text-anchor="middle" x="1055" y="-1260.8" font-family="Times,serif" font-size="14.00" fill="white">4 µs 705 ns</text>
</a>
</g>
</g>
<!-- 281446523164432&#45;&gt;281446533853712 -->
<g id="edge7" class="edge">
<title>281446523164432&#45;&gt;281446533853712</title>
<path fill="none" stroke="white" d="M1055.08,-1307.19C1053.75,-1326.85 1048.79,-1353.17 1033,-1370 1019.69,-1384.19 1002.5,-1394.49 984.29,-1401.96"/>
<polygon fill="white" stroke="white" points="974.7,-1405.62 985.29,-1405.33 984.04,-1402.06 974.7,-1405.62"/>
<text text-anchor="middle" x="1111" y="-1358.8" font-family="Times,serif" font-size="14.00" fill="white">1 row(s)/1 chunk(s)</text>
</g>
<!-- 281446533855312 -->
<g id="node8" class="node">
<title>281446533855312</title>
<g id="a_node8"><a xlink:title="Output: 1 row in 1 chunk, 18 µs 48 ns.&#10;Chunks: 0 skipped with no results, &#10;0 skipped with all matching, 0 scanned using binary search.">
<polygon fill="none" stroke="white" points="1139.5,-1172 970.5,-1172 970.5,-1088 1139.5,-1088 1139.5,-1172"/>
<text text-anchor="middle" x="1055" y="-1156.8" font-family="Times,serif" font-size="14.00" fill="white">TableScan</text>
<text text-anchor="middle" x="1055" y="-1141.8" font-family="Times,serif" font-size="14.00" fill="white">Impl: ColumnVsValue</text>
<text text-anchor="middle" x="1055" y="-1126.8" font-family="Times,serif" font-size="14.00" fill="white">n_name = &#39;IRAQ&#39;</text>
<text text-anchor="middle" x="1055" y="-1095.8" font-family="Times,serif" font-size="14.00" fill="white">18 µs 48 ns</text>
</a>
</g>
</g>
<!-- 281446533855312&#45;&gt;281446523164432 -->
<g id="edge8" class="edge">
<title>281446533855312&#45;&gt;281446523164432</title>
<path fill="none" stroke="white" d="M1055,-1172.23C1055,-1194.32 1055,-1221.31 1055,-1242.62"/>
<polygon fill="white" stroke="white" points="1051.5,-1242.88 1055,-1252.88 1058.5,-1242.88 1051.5,-1242.88"/>
<text text-anchor="middle" x="1124" y="-1193.8" font-family="Times,serif" font-size="14.00" fill="white">1 row(s)/1 chunk(s)</text>
</g>
<!-- 281446535363216 -->
<g id="node9" class="node">
<title>281446535363216</title>
<g id="a_node9"><a xlink:title="Output: 25 rows in 1 chunk, 9 µs 88 ns.">
<polygon fill="none" stroke="white" points="1111.5,-1037 998.5,-1037 998.5,-923 1111.5,-923 1111.5,-1037"/>
<text text-anchor="middle" x="1055" y="-1021.8" font-family="Times,serif" font-size="14.00" fill="white">GetTable</text>
<text text-anchor="middle" x="1055" y="-1006.8" font-family="Times,serif" font-size="14.00" fill="white">(nation)</text>
<text text-anchor="middle" x="1055" y="-991.8" font-family="Times,serif" font-size="14.00" fill="white">pruned:</text>
<text text-anchor="middle" x="1055" y="-976.8" font-family="Times,serif" font-size="14.00" fill="white">0/1 chunk(s)</text>
<text text-anchor="middle" x="1055" y="-961.8" font-family="Times,serif" font-size="14.00" fill="white">2/4 column(s)</text>
<text text-anchor="middle" x="1055" y="-930.8" font-family="Times,serif" font-size="14.00" fill="white">9 µs 88 ns</text>
</a>
</g>
</g>
<!-- 281446535363216&#45;&gt;281446533855312 -->
<g id="edge9" class="edge">
<title>281446535363216&#45;&gt;281446533855312</title>
<path fill="none" stroke="white" d="M1055,-1037.37C1055,-1050.65 1055,-1064.74 1055,-1077.77"/>
<polygon fill="white" stroke="white" points="1051.5,-1077.97 1055,-1087.97 1058.5,-1077.97 1051.5,-1077.97"/>
<text text-anchor="middle" x="1128.5" y="-1058.8" font-family="Times,serif" font-size="14.00" fill="white">25 row(s)/1 chunk(s)</text>
</g>
<!-- 281446533858512 -->
<g id="node10" class="node">
<title>281446533858512</title>
<g id="a_node10"><a xlink:title="Output: 23545 rows in 43 chunks, 33 µs 504 ns.&#10;Operator step runtimes:&#10; ForwardUnmodifiedColumns 13 µs 824 ns&#10; EvaluateNewColumns 96 ns&#10; BuildOutput 12 µs 288 ns.">
<polygon fill="none" stroke="white" points="827,-1832 719,-1832 719,-1778 827,-1778 827,-1832"/>
<text text-anchor="middle" x="773" y="-1816.8" font-family="Times,serif" font-size="14.00" fill="white">Projection</text>
<text text-anchor="middle" x="773" y="-1785.8" font-family="Times,serif" font-size="14.00" fill="white">33 µs 504 ns</text>
</a>
</g>
</g>
<!-- 281446533858512&#45;&gt;281446533858832 -->
<g id="edge10" class="edge">
<title>281446533858512&#45;&gt;281446533858832</title>
<path fill="none" stroke="white" d="M770.95,-1832.26C771.33,-1843.22 773.51,-1855.57 780,-1865 782.64,-1868.85 785.67,-1872.42 788.98,-1875.75"/>
<polygon fill="white" stroke="white" points="796.64,-1882.65 791.55,-1873.36 789.21,-1875.96 796.64,-1882.65"/>
<text text-anchor="middle" x="873.5" y="-1853.8" font-family="Times,serif" font-size="14.00" fill="white">23,545 row(s)/43 chunk(s)</text>
</g>
<!-- 281446533858192&#45;&gt;281446533858512 -->
<g id="edge11" class="edge">
<title>281446533858192&#45;&gt;281446533858512</title>
<path fill="none" stroke="white" d="M771.46,-1727.33C771.61,-1737.8 771.8,-1749.38 772,-1760 772.05,-1762.54 772.1,-1765.16 772.16,-1767.8"/>
<polygon fill="white" stroke="white" points="768.66,-1768.02 772.37,-1777.94 775.66,-1767.87 768.66,-1768.02"/>
<text text-anchor="middle" x="865.5" y="-1748.8" font-family="Times,serif" font-size="14.00" fill="white">23,545 row(s)/43 chunk(s)</text>
</g>
<!-- 281446533857872 -->
<g id="node12" class="node">
<title>281446533857872</title>
<g id="a_node12"><a xlink:title="Output: 591644 rows in 256 chunks, 215 ms 972 µs.&#10;Operator step runtimes:&#10; LeftSideMaterialize 16 ms 459 µs&#10; RightSideMaterialize 48 ms 46 µs&#10; LeftSideTransform 0 ns&#10; RightSideTransform 0 ns&#10; LeftSidePartition 3 ms 630 µs&#10; RightSidePartition 3 ms 129 µs&#10; LeftSideSortBuckets 445 µs 93 ns&#10; RightSideSortBuckets 436 µs 421 ns&#10; GatherRowIds 1 µs 56 ns&#10; FindJoinPartner 142 ms 565 µs&#10; OutputWriting 909 µs 900 ns.">
<polygon fill="none" stroke="white" stroke-width="2.87" points="715.5,-1607 404.5,-1607 404.5,-1508 715.5,-1508 715.5,-1607"/>
<text text-anchor="middle" x="560" y="-1591.8" font-family="Times,serif" font-size="14.00" fill="white">JoinSimdSortMerge (Semi)</text>
<text text-anchor="middle" x="560" y="-1576.8" font-family="Times,serif" font-size="14.00" fill="white">ps_suppkey = l_suppkey</text>
<text text-anchor="middle" x="560" y="-1561.8" font-family="Times,serif" font-size="14.00" fill="white">AND ps_availqty &gt; 0.5 * SUM(l_quantity)</text>
<text text-anchor="middle" x="560" y="-1546.8" font-family="Times,serif" font-size="14.00" fill="white">AND ps_partkey = l_partkey</text>
<text text-anchor="middle" x="560" y="-1515.8" font-family="Times,serif" font-size="14.00" fill="white">215 ms 972 µs</text>
</a>
</g>
</g>
<!-- 281446533857872&#45;&gt;281446533858192 -->
<g id="edge12" class="edge">
<title>281446533857872&#45;&gt;281446533858192</title>
<path fill="none" stroke="white" d="M559.42,-1607.4C561.53,-1619.29 565.85,-1631.12 574,-1640 581.77,-1648.47 598.31,-1655.96 618.66,-1662.42"/>
<polygon fill="white" stroke="white" points="618.69,-1662.43 617.68,-1665.78 628.26,-1665.32 618.69,-1662.43"/>
<text text-anchor="middle" x="676.5" y="-1628.8" font-family="Times,serif" font-size="14.00" fill="white">591,644 row(s)/256 chunk(s)</text>
</g>
<!-- 281446523163408 -->
<g id="node13" class="node">
<title>281446523163408</title>
<g id="a_node13"><a xlink:title="Output: 867928 rows in 256 chunks, 1 ms 525 µs.">
<polygon fill="none" stroke="white" points="638,-849.5 534,-849.5 534,-795.5 638,-795.5 638,-849.5"/>
<text text-anchor="middle" x="586" y="-834.3" font-family="Times,serif" font-size="14.00" fill="white">Validate</text>
<text text-anchor="middle" x="586" y="-803.3" font-family="Times,serif" font-size="14.00" fill="white">1 ms 525 µs</text>
</a>
</g>
</g>
<!-- 281446523163408&#45;&gt;281446533857872 -->
<g id="edge13" class="edge">
<title>281446523163408&#45;&gt;281446533857872</title>
<path fill="none" stroke="white" d="M635.25,-849.62C650.62,-860.16 666.13,-873.72 676,-890 696.77,-924.24 690,-938.96 690,-979 690,-979 690,-979 690,-1423.5 690,-1453.7 693.77,-1465.57 676,-1490 673.28,-1493.74 670.27,-1497.31 667.05,-1500.7"/>
<polygon fill="white" stroke="white" points="666.85,-1500.89 664.42,-1498.37 659.67,-1507.84 666.85,-1500.89"/>
<text text-anchor="middle" x="792.5" y="-1193.8" font-family="Times,serif" font-size="14.00" fill="white">867,928 row(s)/256 chunk(s)</text>
</g>
<!-- 281446533857232 -->
<g id="node23" class="node">
<title>281446533857232</title>
<g id="a_node23"><a xlink:title="Output: 989936 rows in 256 chunks, 218 ms 454 µs.&#10;Operator step runtimes:&#10; LeftSideMaterialize 161 ms 514 µs&#10; RightSideMaterialize 16 ms 73 µs&#10; LeftSideTransform 0 ns&#10; RightSideTransform 0 ns&#10; LeftSidePartition 9 ms 153 µs&#10; RightSidePartition 5 ms 72 µs&#10; LeftSideSortBuckets 5 ms 784 µs&#10; RightSideSortBuckets 427 µs 910 ns&#10; GatherRowIds 960 ns&#10; FindJoinPartner 1 ms 217 µs&#10; OutputWriting 15 ms 843 µs.">
<polygon fill="none" stroke="white" stroke-width="2.9" points="604.5,-1014.5 319.5,-1014.5 319.5,-945.5 604.5,-945.5 604.5,-1014.5"/>
<text text-anchor="middle" x="462" y="-999.3" font-family="Times,serif" font-size="14.00" fill="white">JoinSimdSortMerge (Semi Reduction)</text>
<text text-anchor="middle" x="462" y="-984.3" font-family="Times,serif" font-size="14.00" fill="white">l_partkey = ps_partkey</text>
<text text-anchor="middle" x="462" y="-953.3" font-family="Times,serif" font-size="14.00" fill="white">218 ms 454 µs</text>
</a>
</g>
</g>
<!-- 281446523163408&#45;&gt;281446533857232 -->
<g id="edge14" class="edge">
<title>281446523163408&#45;&gt;281446533857232</title>
<path fill="none" stroke="white" d="M533.76,-841.12C510.71,-851.63 485.58,-867.43 471,-890 462.51,-903.14 459.31,-919.72 458.55,-935"/>
<polygon fill="white" stroke="white" points="458.38,-945.32 462.04,-935.38 458.54,-935.32 458.38,-945.32"/>
<text text-anchor="middle" x="573.5" y="-893.8" font-family="Times,serif" font-size="14.00" fill="white">867,928 row(s)/256 chunk(s)</text>
</g>
<!-- 281446533855632 -->
<g id="node14" class="node">
<title>281446533855632</title>
<g id="a_node14"><a xlink:title="Output: 867928 rows in 256 chunks, 57 ms 35 µs.&#10;Operator step runtimes:&#10; LeftSideMaterialize 21 ms 230 µs&#10; RightSideMaterialize 4 ms 598 µs&#10; LeftSideTransform 0 ns&#10; RightSideTransform 0 ns&#10; LeftSidePartition 19 ms 960 µs&#10; RightSidePartition 1 ms 749 µs&#10; LeftSideSortBuckets 5 ms 546 µs&#10; RightSideSortBuckets 432 µs 549 ns&#10; GatherRowIds 736 ns&#10; FindJoinPartner 863 µs 531 ns&#10; OutputWriting 652 µs 393 ns.">
<polygon fill="none" stroke="white" points="690.5,-699.5 481.5,-699.5 481.5,-630.5 690.5,-630.5 690.5,-699.5"/>
<text text-anchor="middle" x="586" y="-684.3" font-family="Times,serif" font-size="14.00" fill="white">JoinSimdSortMerge (Semi)</text>
<text text-anchor="middle" x="586" y="-669.3" font-family="Times,serif" font-size="14.00" fill="white">ps_partkey = p_partkey</text>
<text text-anchor="middle" x="586" y="-638.3" font-family="Times,serif" font-size="14.00" fill="white">57 ms 35 µs</text>
</a>
</g>
</g>
<!-- 281446533855632&#45;&gt;281446523163408 -->
<g id="edge15" class="edge">
<title>281446533855632&#45;&gt;281446523163408</title>
<path fill="none" stroke="white" d="M586,-699.74C586,-724.86 586,-759.13 586,-784.91"/>
<polygon fill="white" stroke="white" points="582.5,-785.03 586,-795.03 589.5,-785.03 582.5,-785.03"/>
<text text-anchor="middle" x="688.5" y="-743.8" font-family="Times,serif" font-size="14.00" fill="white">867,928 row(s)/256 chunk(s)</text>
</g>
<!-- 281446535363664 -->
<g id="node15" class="node">
<title>281446535363664</title>
<g id="a_node15"><a xlink:title="Output: 80000000 rows in 1221 chunks, 4 ms 140 µs.">
<polygon fill="none" stroke="white" points="519.5,-557 388.5,-557 388.5,-443 519.5,-443 519.5,-557"/>
<text text-anchor="middle" x="454" y="-541.8" font-family="Times,serif" font-size="14.00" fill="white">GetTable</text>
<text text-anchor="middle" x="454" y="-526.8" font-family="Times,serif" font-size="14.00" fill="white">(partsupp)</text>
<text text-anchor="middle" x="454" y="-511.8" font-family="Times,serif" font-size="14.00" fill="white">pruned:</text>
<text text-anchor="middle" x="454" y="-496.8" font-family="Times,serif" font-size="14.00" fill="white">0/1221 chunk(s)</text>
<text text-anchor="middle" x="454" y="-481.8" font-family="Times,serif" font-size="14.00" fill="white">2/5 column(s)</text>
<text text-anchor="middle" x="454" y="-450.8" font-family="Times,serif" font-size="14.00" fill="white">4 ms 140 µs</text>
</a>
</g>
</g>
<!-- 281446535363664&#45;&gt;281446533855632 -->
<g id="edge16" class="edge">
<title>281446535363664&#45;&gt;281446533855632</title>
<path fill="none" stroke="white" stroke-width="3.03" d="M445.97,-557.06C446.64,-568.57 449.18,-580.16 455,-590 463.2,-603.87 475.06,-615.36 488.33,-624.8"/>
<polygon fill="white" stroke="white" stroke-width="3.03" points="488.44,-624.87 486.5,-627.78 496.76,-630.41 488.44,-624.87"/>
<text text-anchor="middle" x="575.5" y="-578.8" font-family="Times,serif" font-size="14.00" fill="white">80,000,000 row(s)/1,221 chunk(s)</text>
</g>
<!-- 281446533854672 -->
<g id="node16" class="node">
<title>281446533854672</title>
<g id="a_node16"><a xlink:title="Output: 216982 rows in 306 chunks, 281 µs 700 ns.&#10;Operator step runtimes:&#10; ForwardUnmodifiedColumns 108 µs 801 ns&#10; EvaluateNewColumns 256 ns&#10; BuildOutput 105 µs 474 ns.">
<polygon fill="none" stroke="white" points="776.5,-527 659.5,-527 659.5,-473 776.5,-473 776.5,-527"/>
<text text-anchor="middle" x="718" y="-511.8" font-family="Times,serif" font-size="14.00" fill="white">Projection</text>
<text text-anchor="middle" x="718" y="-480.8" font-family="Times,serif" font-size="14.00" fill="white">281 µs 700 ns</text>
</a>
</g>
</g>
<!-- 281446533854672&#45;&gt;281446533855632 -->
<g id="edge17" class="edge">
<title>281446533854672&#45;&gt;281446533855632</title>
<path fill="none" stroke="white" d="M716.51,-527.21C714.31,-546.12 708.96,-571.48 696,-590 686.77,-603.2 674.36,-614.71 661.21,-624.47"/>
<polygon fill="white" stroke="white" points="652.95,-630.32 663.13,-627.4 661.11,-624.54 652.95,-630.32"/>
<text text-anchor="middle" x="806.5" y="-578.8" font-family="Times,serif" font-size="14.00" fill="white">216,982 row(s)/306 chunk(s)</text>
</g>
<!-- 281446523163920 -->
<g id="node17" class="node">
<title>281446523163920</title>
<g id="a_node17"><a xlink:title="Output: 216982 rows in 306 chunks, 589 µs 992 ns.">
<polygon fill="none" stroke="white" points="776.5,-392 659.5,-392 659.5,-338 776.5,-338 776.5,-392"/>
<text text-anchor="middle" x="718" y="-376.8" font-family="Times,serif" font-size="14.00" fill="white">Validate</text>
<text text-anchor="middle" x="718" y="-345.8" font-family="Times,serif" font-size="14.00" fill="white">589 µs 992 ns</text>
</a>
</g>
</g>
<!-- 281446523163920&#45;&gt;281446533854672 -->
<g id="edge18" class="edge">
<title>281446523163920&#45;&gt;281446533854672</title>
<path fill="none" stroke="white" d="M718,-392.28C718,-412.41 718,-440.41 718,-462.68"/>
<polygon fill="white" stroke="white" points="714.5,-462.78 718,-472.78 721.5,-462.78 714.5,-462.78"/>
<text text-anchor="middle" x="820.5" y="-413.8" font-family="Times,serif" font-size="14.00" fill="white">216,982 row(s)/306 chunk(s)</text>
</g>
<!-- 281446533854032 -->
<g id="node18" class="node">
<title>281446533854032</title>
<g id="a_node18"><a xlink:title="Output: 216982 rows in 306 chunks, 1 ms 201 µs.&#10;Chunks: 0 skipped with no results, &#10;0 skipped with all matching, 0 scanned using binary search.">
<polygon fill="none" stroke="white" points="933.5,-287 502.5,-287 502.5,-203 933.5,-203 933.5,-287"/>
<text text-anchor="middle" x="718" y="-271.8" font-family="Times,serif" font-size="14.00" fill="white">TableScan</text>
<text text-anchor="middle" x="718" y="-256.8" font-family="Times,serif" font-size="14.00" fill="white">Impl: ColumnBetween</text>
<text text-anchor="middle" x="718" y="-241.8" font-family="Times,serif" font-size="14.00" fill="white">p_name BETWEEN UPPER EXCLUSIVE &#39;deep&#39; AND &#39;deeq&#39;</text>
<text text-anchor="middle" x="718" y="-210.8" font-family="Times,serif" font-size="14.00" fill="white">1 ms 201 µs</text>
</a>
</g>
</g>
<!-- 281446533854032&#45;&gt;281446523163920 -->
<g id="edge19" class="edge">
<title>281446533854032&#45;&gt;281446523163920</title>
<path fill="none" stroke="white" d="M718,-287.27C718,-300.36 718,-314.72 718,-327.45"/>
<polygon fill="white" stroke="white" points="714.5,-327.69 718,-337.69 721.5,-327.69 714.5,-327.69"/>
<text text-anchor="middle" x="820.5" y="-308.8" font-family="Times,serif" font-size="14.00" fill="white">216,982 row(s)/306 chunk(s)</text>
</g>
<!-- 281446535364112 -->
<g id="node19" class="node">
<title>281446535364112</title>
<g id="a_node19"><a xlink:title="Output: 20000000 rows in 306 chunks, 672 µs 9 ns.">
<polygon fill="none" stroke="white" points="779,-133 657,-133 657,-19 779,-19 779,-133"/>
<text text-anchor="middle" x="718" y="-117.8" font-family="Times,serif" font-size="14.00" fill="white">GetTable</text>
<text text-anchor="middle" x="718" y="-102.8" font-family="Times,serif" font-size="14.00" fill="white">(part)</text>
<text text-anchor="middle" x="718" y="-87.8" font-family="Times,serif" font-size="14.00" fill="white">pruned:</text>
<text text-anchor="middle" x="718" y="-72.8" font-family="Times,serif" font-size="14.00" fill="white">0/306 chunk(s)</text>
<text text-anchor="middle" x="718" y="-57.8" font-family="Times,serif" font-size="14.00" fill="white">7/9 column(s)</text>
<text text-anchor="middle" x="718" y="-26.8" font-family="Times,serif" font-size="14.00" fill="white">672 µs 9 ns</text>
</a>
</g>
</g>
<!-- 281446535364112&#45;&gt;281446533854032 -->
<g id="edge20" class="edge">
<title>281446535364112&#45;&gt;281446533854032</title>
<path fill="none" stroke="white" d="M718,-133.07C718,-152.34 718,-173.8 718,-192.67"/>
<polygon fill="white" stroke="white" points="714.5,-192.86 718,-202.86 721.5,-192.86 714.5,-192.86"/>
<text text-anchor="middle" x="832" y="-173.8" font-family="Times,serif" font-size="14.00" fill="white">20,000,000 row(s)/306 chunk(s)</text>
</g>
<!-- 281446533857552 -->
<g id="node20" class="node">
<title>281446533857552</title>
<g id="a_node20"><a xlink:title="Output: 592900 rows in 10 chunks, 285 µs 60 ns.&#10;Operator step runtimes:&#10; ForwardUnmodifiedColumns 10 µs 720 ns&#10; EvaluateNewColumns 230 µs 243 ns&#10; BuildOutput 36 µs 609 ns.">
<polygon fill="none" stroke="white" points="527,-1449.5 419,-1449.5 419,-1395.5 527,-1395.5 527,-1449.5"/>
<text text-anchor="middle" x="473" y="-1434.3" font-family="Times,serif" font-size="14.00" fill="white">Projection</text>
<text text-anchor="middle" x="473" y="-1403.3" font-family="Times,serif" font-size="14.00" fill="white">285 µs 60 ns</text>
</a>
</g>
</g>
<!-- 281446533857552&#45;&gt;281446533857872 -->
<g id="edge21" class="edge">
<title>281446533857552&#45;&gt;281446533857872</title>
<path fill="none" stroke="white" d="M471.27,-1449.78C471.51,-1462.59 473.49,-1477.82 480,-1490 481.86,-1493.48 483.99,-1496.86 486.33,-1500.12"/>
<polygon fill="white" stroke="white" points="492.53,-1507.97 489.08,-1497.95 486.33,-1500.12 492.53,-1507.97"/>
<text text-anchor="middle" x="578" y="-1478.8" font-family="Times,serif" font-size="14.00" fill="white">592,900 row(s)/10 chunk(s)</text>
</g>
<!-- 281446524986384 -->
<g id="node21" class="node">
<title>281446524986384</title>
<g id="a_node21"><a xlink:title="Output: 592900 rows in 10 chunks, 1 s 729 ms.&#10;Operator step runtimes:&#10; GroupByKeyPartitioning 952 ms 472 µs&#10; Aggregating 775 ms 606 µs&#10; GroupByColumnsWriting 660 µs 617 ns&#10; AggregateColumnsWriting 397 µs 93 ns&#10; OutputWriting 17 µs 504 ns.">
<polygon fill="none" stroke="white" stroke-width="8" points="550,-1329.5 384,-1329.5 384,-1230.5 550,-1230.5 550,-1329.5"/>
<text text-anchor="middle" x="467" y="-1314.3" font-family="Times,serif" font-size="14.00" fill="white">AggregateHash</text>
<text text-anchor="middle" x="467" y="-1299.3" font-family="Times,serif" font-size="14.00" fill="white">GroupBy {l_suppkey,</text>
<text text-anchor="middle" x="467" y="-1284.3" font-family="Times,serif" font-size="14.00" fill="white">l_partkey}</text>
<text text-anchor="middle" x="467" y="-1269.3" font-family="Times,serif" font-size="14.00" fill="white">SUM(l_quantity)</text>
<text text-anchor="middle" x="467" y="-1238.3" font-family="Times,serif" font-size="14.00" fill="white">1 s 729 ms</text>
</a>
</g>
</g>
<!-- 281446524986384&#45;&gt;281446533857552 -->
<g id="edge22" class="edge">
<title>281446524986384&#45;&gt;281446533857552</title>
<path fill="none" stroke="white" d="M469.08,-1329.75C469.86,-1347.99 470.73,-1368.38 471.45,-1385.3"/>
<polygon fill="white" stroke="white" points="467.96,-1385.49 471.88,-1395.33 474.95,-1385.19 467.96,-1385.49"/>
<text text-anchor="middle" x="569" y="-1358.8" font-family="Times,serif" font-size="14.00" fill="white">592,900 row(s)/10 chunk(s)</text>
</g>
<!-- 281446523171600 -->
<g id="node22" class="node">
<title>281446523171600</title>
<g id="a_node22"><a xlink:title="Output: 989936 rows in 256 chunks, 8 ms 788 µs.">
<polygon fill="none" stroke="white" points="514,-1157 410,-1157 410,-1103 514,-1103 514,-1157"/>
<text text-anchor="middle" x="462" y="-1141.8" font-family="Times,serif" font-size="14.00" fill="white">Validate</text>
<text text-anchor="middle" x="462" y="-1110.8" font-family="Times,serif" font-size="14.00" fill="white">8 ms 788 µs</text>
</a>
</g>
</g>
<!-- 281446523171600&#45;&gt;281446524986384 -->
<g id="edge23" class="edge">
<title>281446523171600&#45;&gt;281446524986384</title>
<path fill="none" stroke="white" d="M462.09,-1157.03C462.21,-1171.22 462.46,-1189.08 463,-1205 463.17,-1210.01 463.38,-1215.22 463.62,-1220.44"/>
<polygon fill="white" stroke="white" points="460.12,-1220.63 464.09,-1230.45 467.11,-1220.29 460.12,-1220.63"/>
<text text-anchor="middle" x="565.5" y="-1193.8" font-family="Times,serif" font-size="14.00" fill="white">989,936 row(s)/256 chunk(s)</text>
</g>
<!-- 281446533857232&#45;&gt;281446523171600 -->
<g id="edge24" class="edge">
<title>281446533857232&#45;&gt;281446523171600</title>
<path fill="none" stroke="white" d="M462,-1014.58C462,-1037.91 462,-1068.97 462,-1092.84"/>
<polygon fill="white" stroke="white" points="458.5,-1092.92 462,-1102.92 465.5,-1092.92 458.5,-1092.92"/>
<text text-anchor="middle" x="564.5" y="-1058.8" font-family="Times,serif" font-size="14.00" fill="white">989,936 row(s)/256 chunk(s)</text>
</g>
<!-- 281446533856272 -->
<g id="node24" class="node">
<title>281446533856272</title>
<g id="a_node24"><a xlink:title="Output: 91273923 rows in 9156 chunks, 39 ms 539 µs.&#10;Chunks: 0 skipped with no results, &#10;0 skipped with all matching, 0 scanned using binary search.">
<polygon fill="none" stroke="white" points="412,-872 0,-872 0,-773 412,-773 412,-872"/>
<text text-anchor="middle" x="206" y="-856.8" font-family="Times,serif" font-size="14.00" fill="white">TableScan</text>
<text text-anchor="middle" x="206" y="-841.8" font-family="Times,serif" font-size="14.00" fill="white">Impl: ColumnBetween</text>
<text text-anchor="middle" x="206" y="-826.8" font-family="Times,serif" font-size="14.00" fill="white">l_shipdate BETWEEN UPPER EXCLUSIVE &#39;1996&#45;01&#45;01&#39;</text>
<text text-anchor="middle" x="206" y="-811.8" font-family="Times,serif" font-size="14.00" fill="white">AND &#39;1997&#45;01&#45;01&#39;</text>
<text text-anchor="middle" x="206" y="-780.8" font-family="Times,serif" font-size="14.00" fill="white">39 ms 539 µs</text>
</a>
</g>
</g>
<!-- 281446533856272&#45;&gt;281446533857232 -->
<g id="edge25" class="edge">
<title>281446533856272&#45;&gt;281446533857232</title>
<path fill="none" stroke="white" stroke-width="3.36" d="M205.67,-872.18C207.78,-884.06 212.03,-895.95 220,-905 243.42,-931.6 276.11,-948.78 309.9,-959.84"/>
<polygon fill="white" stroke="white" stroke-width="3.36" points="309.91,-959.84 308.87,-963.18 319.46,-962.8 309.91,-959.84"/>
<text text-anchor="middle" x="340.5" y="-893.8" font-family="Times,serif" font-size="14.00" fill="white">91,273,923 row(s)/9,156 chunk(s)</text>
</g>
<!-- 281446535364560 -->
<g id="node25" class="node">
<title>281446535364560</title>
<g id="a_node25"><a xlink:title="Output: 600037902 rows in 9156 chunks, 12 ms 448 µs.">
<polygon fill="none" stroke="white" points="271.5,-722 140.5,-722 140.5,-608 271.5,-608 271.5,-722"/>
<text text-anchor="middle" x="206" y="-706.8" font-family="Times,serif" font-size="14.00" fill="white">GetTable</text>
<text text-anchor="middle" x="206" y="-691.8" font-family="Times,serif" font-size="14.00" fill="white">(lineitem)</text>
<text text-anchor="middle" x="206" y="-676.8" font-family="Times,serif" font-size="14.00" fill="white">pruned:</text>
<text text-anchor="middle" x="206" y="-661.8" font-family="Times,serif" font-size="14.00" fill="white">0/9156 chunk(s)</text>
<text text-anchor="middle" x="206" y="-646.8" font-family="Times,serif" font-size="14.00" fill="white">12/16 column(s)</text>
<text text-anchor="middle" x="206" y="-615.8" font-family="Times,serif" font-size="14.00" fill="white">12 ms 448 µs</text>
</a>
</g>
</g>
<!-- 281446535364560&#45;&gt;281446533856272 -->
<g id="edge26" class="edge">
<title>281446535364560&#45;&gt;281446533856272</title>
<path fill="none" stroke="white" stroke-width="8" d="M206,-722.14C206,-735.38 206,-749.53 206,-762.88"/>
<polygon fill="white" stroke="white" stroke-width="8" points="199,-762.9 206,-772.9 213,-762.9 199,-762.9"/>
<text text-anchor="middle" x="331" y="-743.8" font-family="Times,serif" font-size="14.00" fill="white">600,037,902 row(s)/9,156 chunk(s)</text>
</g>
<!-- 0 -->
<g id="node26" class="node">
<title>0</title>
<polygon fill="none" stroke="white" points="797.5,-0.5 797.5,-151.5 1148.5,-151.5 1148.5,-0.5 797.5,-0.5"/>
<text text-anchor="middle" x="973" y="-136.3" font-family="Times,serif" font-size="14.00" fill="white">Total by operator</text>
<polyline fill="none" stroke="white" points="797.5,-128.5 1148.5,-128.5 "/>
<text text-anchor="end" x="956.5" y="-113.3" font-family="Times,serif" font-size="14.00" fill="white">AggregateHash </text>
<text text-anchor="end" x="956.5" y="-98.3" font-family="Times,serif" font-size="14.00" fill="white"> JoinSimdSortMerge </text>
<text text-anchor="end" x="956.5" y="-83.3" font-family="Times,serif" font-size="14.00" fill="white"> TableScan </text>
<text text-anchor="end" x="956.5" y="-68.3" font-family="Times,serif" font-size="14.00" fill="white"> GetTable </text>
<text text-anchor="end" x="956.5" y="-53.3" font-family="Times,serif" font-size="14.00" fill="white"> Sort </text>
<text text-anchor="end" x="956.5" y="-38.3" font-family="Times,serif" font-size="14.00" fill="white"> Validate </text>
<text text-anchor="end" x="956.5" y="-23.3" font-family="Times,serif" font-size="14.00" fill="white"> Projection </text>
<text text-anchor="end" x="956.5" y="-8.3" font-family="Times,serif" font-size="14.00" fill="white">total</text>
<polyline fill="none" stroke="white" points="964.5,-0.5 964.5,-128.5 "/>
<text text-anchor="start" x="972.5" y="-113.3" font-family="Times,serif" font-size="14.00" fill="white">1 s 729 ms </text>
<text text-anchor="start" x="972.5" y="-98.3" font-family="Times,serif" font-size="14.00" fill="white"> 530 ms 242 µs </text>
<text text-anchor="start" x="972.5" y="-83.3" font-family="Times,serif" font-size="14.00" fill="white"> 40 ms 758 µs </text>
<text text-anchor="start" x="972.5" y="-68.3" font-family="Times,serif" font-size="14.00" fill="white"> 17 ms 330 µs </text>
<text text-anchor="start" x="972.5" y="-53.3" font-family="Times,serif" font-size="14.00" fill="white"> 16 ms 485 µs </text>
<text text-anchor="start" x="972.5" y="-38.3" font-family="Times,serif" font-size="14.00" fill="white"> 11 ms 3 µs </text>
<text text-anchor="start" x="972.5" y="-23.3" font-family="Times,serif" font-size="14.00" fill="white"> 607 µs 592 ns </text>
<text text-anchor="start" x="972.5" y="-8.3" font-family="Times,serif" font-size="14.00" fill="white"> 2 s 346 ms </text>
<polyline fill="none" stroke="white" points="1095.5,-0.5 1095.5,-128.5 "/>
<text text-anchor="start" x="1103.5" y="-113.3" font-family="Times,serif" font-size="14.00" fill="white">74 %</text>
<text text-anchor="start" x="1103.5" y="-98.3" font-family="Times,serif" font-size="14.00" fill="white">23 %</text>
<text text-anchor="start" x="1103.5" y="-83.3" font-family="Times,serif" font-size="14.00" fill="white">2 %</text>
<text text-anchor="start" x="1103.5" y="-68.3" font-family="Times,serif" font-size="14.00" fill="white">1 %</text>
<text text-anchor="start" x="1103.5" y="-53.3" font-family="Times,serif" font-size="14.00" fill="white">1 %</text>
<text text-anchor="start" x="1103.5" y="-38.3" font-family="Times,serif" font-size="14.00" fill="white">0 %</text>
<text text-anchor="start" x="1103.5" y="-23.3" font-family="Times,serif" font-size="14.00" fill="white">0 %</text>
<text text-anchor="start" x="1103.5" y="-8.3" font-family="Times,serif" font-size="14.00" fill="white"> </text>
</g>
</g>
</svg>
