<?xml version="1.0" encoding="UTF-8" standalone="no"?>
<!DOCTYPE svg PUBLIC "-//W3C//DTD SVG 1.1//EN"
 "http://www.w3.org/Graphics/SVG/1.1/DTD/svg11.dtd">
<!-- Generated by graphviz version 2.43.0 (0)
 -->
<!-- Title: G Pages: 1 -->
<svg width="904pt" height="1370pt"
 viewBox="0.00 0.00 904.00 1370.00" xmlns="http://www.w3.org/2000/svg" xmlns:xlink="http://www.w3.org/1999/xlink">
<g id="graph0" class="graph" transform="scale(1 1) rotate(0) translate(4 1366)">
<title>G</title>
<polygon fill="black" stroke="transparent" points="-4,4 -4,-1366 900,-1366 900,4 -4,4"/>
<text text-anchor="middle" x="319.5" y="-1346.8" font-family="Times,serif" font-size="14.00" fill="white">For tooltips with advanced information, hover your mouse over vertices or edge labels.</text>
<!-- 281425596344848 -->
<g id="node1" class="node">
<title>281425596344848</title>
<g id="a_node1"><a xlink:title="Output: 5 rows in 1 chunk, 2 µs 944 ns.">
<polygon fill="none" stroke="white" points="582,-1307 355,-1307 355,-1238 582,-1238 582,-1307"/>
<text text-anchor="middle" x="468.5" y="-1291.8" font-family="Times,serif" font-size="14.00" fill="white">Alias</text>
<text text-anchor="middle" x="468.5" y="-1276.8" font-family="Times,serif" font-size="14.00" fill="white">[o_orderpriority, order_count]</text>
<text text-anchor="middle" x="468.5" y="-1245.8" font-family="Times,serif" font-size="14.00" fill="white">2 µs 944 ns</text>
</a>
</g>
</g>
<!-- 281425596344528 -->
<g id="node2" class="node">
<title>281425596344528</title>
<g id="a_node2"><a xlink:title="Output: 5 rows in 1 chunk, 21 µs 952 ns.&#10;Operator step runtimes:&#10; MaterializeSortColumns 7 µs 40 ns&#10; Sort 3 µs 136 ns&#10; TemporaryResultWriting 288 ns&#10; WriteOutput 8 µs 64 ns.">
<polygon fill="none" stroke="white" points="522.5,-1187 414.5,-1187 414.5,-1133 522.5,-1133 522.5,-1187"/>
<text text-anchor="middle" x="468.5" y="-1171.8" font-family="Times,serif" font-size="14.00" fill="white">Sort</text>
<text text-anchor="middle" x="468.5" y="-1140.8" font-family="Times,serif" font-size="14.00" fill="white">21 µs 952 ns</text>
</a>
</g>
</g>
<!-- 281425596344528&#45;&gt;281425596344848 -->
<g id="edge1" class="edge">
<title>281425596344528&#45;&gt;281425596344848</title>
<path fill="none" stroke="white" d="M468.5,-1187.19C468.5,-1199.29 468.5,-1214 468.5,-1227.72"/>
<polygon fill="white" stroke="white" points="465,-1227.95 468.5,-1237.95 472,-1227.96 465,-1227.95"/>
<text text-anchor="middle" x="537.5" y="-1208.8" font-family="Times,serif" font-size="14.00" fill="white">5 row(s)/1 chunk(s)</text>
</g>
<!-- 281425584719888 -->
<g id="node3" class="node">
<title>281425584719888</title>
<g id="a_node3"><a xlink:title="Output: 5 rows in 1 chunk, 884 ms 221 µs.&#10;Operator step runtimes:&#10; GroupByKeyPartitioning 858 ms 987 µs&#10; Aggregating 25 ms 148 µs&#10; GroupByColumnsWriting 7 µs 552 ns&#10; AggregateColumnsWriting 13 µs 856 ns&#10; OutputWriting 8 µs 864 ns.">
<polygon fill="none" stroke="white" stroke-width="8" points="573.5,-1082 363.5,-1082 363.5,-998 573.5,-998 573.5,-1082"/>
<text text-anchor="middle" x="468.5" y="-1066.8" font-family="Times,serif" font-size="14.00" fill="white">AggregateHash</text>
<text text-anchor="middle" x="468.5" y="-1051.8" font-family="Times,serif" font-size="14.00" fill="white">GroupBy {o_orderpriority}</text>
<text text-anchor="middle" x="468.5" y="-1036.8" font-family="Times,serif" font-size="14.00" fill="white">COUNT(*)</text>
<text text-anchor="middle" x="468.5" y="-1005.8" font-family="Times,serif" font-size="14.00" fill="white">884 ms 221 µs</text>
</a>
</g>
</g>
<!-- 281425584719888&#45;&gt;281425596344528 -->
<g id="edge2" class="edge">
<title>281425584719888&#45;&gt;281425596344528</title>
<path fill="none" stroke="white" d="M468.5,-1082.27C468.5,-1095.36 468.5,-1109.72 468.5,-1122.45"/>
<polygon fill="white" stroke="white" points="465,-1122.69 468.5,-1132.69 472,-1122.69 465,-1122.69"/>
<text text-anchor="middle" x="537.5" y="-1103.8" font-family="Times,serif" font-size="14.00" fill="white">5 row(s)/1 chunk(s)</text>
</g>
<!-- 281425596344208 -->
<g id="node4" class="node">
<title>281425596344208</title>
<g id="a_node4"><a xlink:title="Output: 5143368 rows in 64 chunks, 127 ms 509 µs.&#10;Operator step runtimes:&#10; LeftSideMaterialize 34 ms 687 µs&#10; RightSideMaterialize 70 ms 291 µs&#10; LeftSideTransform 0 ns&#10; RightSideTransform 0 ns&#10; LeftSidePartition 2 ms 358 µs&#10; RightSidePartition 8 ms 15 µs&#10; LeftSideSortBuckets 1 ms 740 µs&#10; RightSideSortBuckets 1 ms 277 µs&#10; GatherRowIds 704 ns&#10; FindJoinPartner 3 ms 301 µs&#10; OutputWriting 4 ms 625 µs.">
<polygon fill="none" stroke="white" stroke-width="3.22" points="573,-947 364,-947 364,-878 573,-878 573,-947"/>
<text text-anchor="middle" x="468.5" y="-931.8" font-family="Times,serif" font-size="14.00" fill="white">JoinSimdSortMerge (Semi)</text>
<text text-anchor="middle" x="468.5" y="-916.8" font-family="Times,serif" font-size="14.00" fill="white">o_orderkey = l_orderkey</text>
<text text-anchor="middle" x="468.5" y="-885.8" font-family="Times,serif" font-size="14.00" fill="white">127 ms 509 µs</text>
</a>
</g>
</g>
<!-- 281425596344208&#45;&gt;281425584719888 -->
<g id="edge3" class="edge">
<title>281425596344208&#45;&gt;281425584719888</title>
<path fill="none" stroke="white" d="M468.5,-947.13C468.5,-959.51 468.5,-973.84 468.5,-987.44"/>
<polygon fill="white" stroke="white" points="465,-987.65 468.5,-997.65 472,-987.65 465,-987.65"/>
<text text-anchor="middle" x="573.5" y="-968.8" font-family="Times,serif" font-size="14.00" fill="white">5,143,368 row(s)/64 chunk(s)</text>
</g>
<!-- 281425586355216 -->
<g id="node5" class="node">
<title>281425586355216</title>
<g id="a_node5"><a xlink:title="Output: 5608959 rows in 2289 chunks, 3 ms 537 µs.">
<polygon fill="none" stroke="white" points="513.5,-437 409.5,-437 409.5,-383 513.5,-383 513.5,-437"/>
<text text-anchor="middle" x="461.5" y="-421.8" font-family="Times,serif" font-size="14.00" fill="white">Validate</text>
<text text-anchor="middle" x="461.5" y="-390.8" font-family="Times,serif" font-size="14.00" fill="white">3 ms 537 µs</text>
</a>
</g>
</g>
<!-- 281425586355216&#45;&gt;281425596344208 -->
<g id="edge4" class="edge">
<title>281425586355216&#45;&gt;281425596344208</title>
<path fill="none" stroke="white" d="M513.65,-434.94C534.64,-447.09 557.22,-463.81 571.5,-485 588.38,-510.05 585.5,-521.3 585.5,-551.5 585.5,-551.5 585.5,-551.5 585.5,-786 585.5,-819.47 591.68,-833.29 571.5,-860 568.49,-863.98 565.1,-867.67 561.41,-871.09"/>
<polygon fill="white" stroke="white" points="561.14,-871.32 558.89,-868.64 553.48,-877.75 561.14,-871.32"/>
<text text-anchor="middle" x="701.5" y="-661.3" font-family="Times,serif" font-size="14.00" fill="white">5,608,959 row(s)/2,289 chunk(s)</text>
</g>
<!-- 281425596343568 -->
<g id="node10" class="node">
<title>281425596343568</title>
<g id="a_node10"><a xlink:title="Output: 22435901 rows in 64 chunks, 599 ms 695 µs.&#10;Operator step runtimes:&#10; LeftSideMaterialize 153 ms 541 µs&#10; RightSideMaterialize 32 ms 602 µs&#10; LeftSideTransform 0 ns&#10; RightSideTransform 0 ns&#10; LeftSidePartition 290 ms 464 µs&#10; RightSidePartition 3 ms 602 µs&#10; LeftSideSortBuckets 68 ms 491 µs&#10; RightSideSortBuckets 1 ms 698 µs&#10; GatherRowIds 1 µs 312 ns&#10; FindJoinPartner 36 ms 850 µs&#10; OutputWriting 269 µs 763 ns.">
<polygon fill="none" stroke="white" stroke-width="7.04" points="481,-587 196,-587 196,-518 481,-518 481,-587"/>
<text text-anchor="middle" x="338.5" y="-571.8" font-family="Times,serif" font-size="14.00" fill="white">JoinSimdSortMerge (Semi Reduction)</text>
<text text-anchor="middle" x="338.5" y="-556.8" font-family="Times,serif" font-size="14.00" fill="white">l_orderkey = o_orderkey</text>
<text text-anchor="middle" x="338.5" y="-525.8" font-family="Times,serif" font-size="14.00" fill="white">599 ms 695 µs</text>
</a>
</g>
</g>
<!-- 281425586355216&#45;&gt;281425596343568 -->
<g id="edge5" class="edge">
<title>281425586355216&#45;&gt;281425596343568</title>
<path fill="none" stroke="white" d="M409.19,-428.76C383.4,-440.45 354.65,-458.56 339.5,-485 335.54,-491.9 333.65,-499.91 332.98,-507.92"/>
<polygon fill="white" stroke="white" points="332.74,-517.99 336.48,-508.08 332.98,-508 332.74,-517.99"/>
<text text-anchor="middle" x="455.5" y="-488.8" font-family="Times,serif" font-size="14.00" fill="white">5,608,959 row(s)/2,289 chunk(s)</text>
</g>
<!-- 281425596343248 -->
<g id="node6" class="node">
<title>281425596343248</title>
<g id="a_node6"><a xlink:title="Output: 5608959 rows in 2289 chunks, 4 ms 451 µs.&#10;Chunks: 0 skipped with no results, &#10;0 skipped with all matching, 0 scanned using binary search.">
<polygon fill="none" stroke="white" points="674,-302 249,-302 249,-203 674,-203 674,-302"/>
<text text-anchor="middle" x="461.5" y="-286.8" font-family="Times,serif" font-size="14.00" fill="white">TableScan</text>
<text text-anchor="middle" x="461.5" y="-271.8" font-family="Times,serif" font-size="14.00" fill="white">Impl: ColumnBetween</text>
<text text-anchor="middle" x="461.5" y="-256.8" font-family="Times,serif" font-size="14.00" fill="white">o_orderdate BETWEEN UPPER EXCLUSIVE &#39;1993&#45;12&#45;01&#39;</text>
<text text-anchor="middle" x="461.5" y="-241.8" font-family="Times,serif" font-size="14.00" fill="white">AND &#39;1994&#45;03&#45;01&#39;</text>
<text text-anchor="middle" x="461.5" y="-210.8" font-family="Times,serif" font-size="14.00" fill="white">4 ms 451 µs</text>
</a>
</g>
</g>
<!-- 281425596343248&#45;&gt;281425586355216 -->
<g id="edge6" class="edge">
<title>281425596343248&#45;&gt;281425586355216</title>
<path fill="none" stroke="white" d="M461.5,-302.27C461.5,-324.98 461.5,-351.53 461.5,-372.47"/>
<polygon fill="white" stroke="white" points="458,-372.56 461.5,-382.56 465,-372.56 458,-372.56"/>
<text text-anchor="middle" x="577.5" y="-323.8" font-family="Times,serif" font-size="14.00" fill="white">5,608,959 row(s)/2,289 chunk(s)</text>
</g>
<!-- 281425585326800 -->
<g id="node7" class="node">
<title>281425585326800</title>
<g id="a_node7"><a xlink:title="Output: 150000000 rows in 2289 chunks, 4 ms 2 µs.">
<polygon fill="none" stroke="white" points="527,-133 396,-133 396,-19 527,-19 527,-133"/>
<text text-anchor="middle" x="461.5" y="-117.8" font-family="Times,serif" font-size="14.00" fill="white">GetTable</text>
<text text-anchor="middle" x="461.5" y="-102.8" font-family="Times,serif" font-size="14.00" fill="white">(orders)</text>
<text text-anchor="middle" x="461.5" y="-87.8" font-family="Times,serif" font-size="14.00" fill="white">pruned:</text>
<text text-anchor="middle" x="461.5" y="-72.8" font-family="Times,serif" font-size="14.00" fill="white">0/2289 chunk(s)</text>
<text text-anchor="middle" x="461.5" y="-57.8" font-family="Times,serif" font-size="14.00" fill="white">6/9 column(s)</text>
<text text-anchor="middle" x="461.5" y="-26.8" font-family="Times,serif" font-size="14.00" fill="white">4 ms 2 µs</text>
</a>
</g>
</g>
<!-- 281425585326800&#45;&gt;281425596343248 -->
<g id="edge7" class="edge">
<title>281425585326800&#45;&gt;281425596343248</title>
<path fill="none" stroke="white" stroke-width="4.58" d="M461.5,-133.17C461.5,-152.18 461.5,-173.44 461.5,-192.64"/>
<polygon fill="white" stroke="white" stroke-width="4.58" points="457.49,-192.77 461.5,-202.77 465.51,-192.77 457.49,-192.77"/>
<text text-anchor="middle" x="586.5" y="-173.8" font-family="Times,serif" font-size="14.00" fill="white">150,000,000 row(s)/2,289 chunk(s)</text>
</g>
<!-- 281425596343888 -->
<g id="node8" class="node">
<title>281425596343888</title>
<g id="a_node8"><a xlink:title="Output: 14183773 rows in 64 chunks, 123 ms 32 µs.&#10;Chunks: 0 skipped with no results, &#10;0 skipped with all matching, 0 scanned using binary search.">
<polygon fill="none" stroke="white" stroke-width="3.14" points="465,-827 238,-827 238,-743 465,-743 465,-827"/>
<text text-anchor="middle" x="351.5" y="-811.8" font-family="Times,serif" font-size="14.00" fill="white">TableScan</text>
<text text-anchor="middle" x="351.5" y="-796.8" font-family="Times,serif" font-size="14.00" fill="white">Impl: ColumnVsColumn</text>
<text text-anchor="middle" x="351.5" y="-781.8" font-family="Times,serif" font-size="14.00" fill="white">l_commitdate &lt; l_receiptdate</text>
<text text-anchor="middle" x="351.5" y="-750.8" font-family="Times,serif" font-size="14.00" fill="white">123 ms 32 µs</text>
</a>
</g>
</g>
<!-- 281425596343888&#45;&gt;281425596344208 -->
<g id="edge8" class="edge">
<title>281425596343888&#45;&gt;281425596344208</title>
<path fill="none" stroke="white" d="M344.18,-827.2C344.16,-838.6 346.2,-850.46 352.5,-860 355.1,-863.93 358.07,-867.57 361.33,-870.93"/>
<polygon fill="white" stroke="white" points="368.93,-877.86 363.9,-868.53 361.54,-871.12 368.93,-877.86"/>
<text text-anchor="middle" x="462" y="-848.8" font-family="Times,serif" font-size="14.00" fill="white">14,183,773 row(s)/64 chunk(s)</text>
</g>
<!-- 281425656485648 -->
<g id="node9" class="node">
<title>281425656485648</title>
<g id="a_node9"><a xlink:title="Output: 22435901 rows in 64 chunks, 29 ms 437 µs.">
<polygon fill="none" stroke="white" points="408,-692 295,-692 295,-638 408,-638 408,-692"/>
<text text-anchor="middle" x="351.5" y="-676.8" font-family="Times,serif" font-size="14.00" fill="white">Validate</text>
<text text-anchor="middle" x="351.5" y="-645.8" font-family="Times,serif" font-size="14.00" fill="white">29 ms 437 µs</text>
</a>
</g>
</g>
<!-- 281425656485648&#45;&gt;281425596343888 -->
<g id="edge9" class="edge">
<title>281425656485648&#45;&gt;281425596343888</title>
<path fill="none" stroke="white" d="M351.5,-692.19C351.5,-704.1 351.5,-718.63 351.5,-732.58"/>
<polygon fill="white" stroke="white" points="348,-732.59 351.5,-742.59 355,-732.59 348,-732.59"/>
<text text-anchor="middle" x="461" y="-713.8" font-family="Times,serif" font-size="14.00" fill="white">22,435,901 row(s)/64 chunk(s)</text>
</g>
<!-- 281425596343568&#45;&gt;281425656485648 -->
<g id="edge10" class="edge">
<title>281425596343568&#45;&gt;281425656485648</title>
<path fill="none" stroke="white" d="M342.47,-587.25C343.98,-600.07 345.7,-614.73 347.24,-627.77"/>
<polygon fill="white" stroke="white" points="343.77,-628.29 348.42,-637.81 350.73,-627.47 343.77,-628.29"/>
<text text-anchor="middle" x="455" y="-608.8" font-family="Times,serif" font-size="14.00" fill="white">22,435,901 row(s)/64 chunk(s)</text>
</g>
<!-- 281425585327248 -->
<g id="node11" class="node">
<title>281425585327248</title>
<g id="a_node11"><a xlink:title="Output: 600037902 rows in 9156 chunks, 12 ms 578 µs.">
<polygon fill="none" stroke="white" points="131,-467 0,-467 0,-353 131,-353 131,-467"/>
<text text-anchor="middle" x="65.5" y="-451.8" font-family="Times,serif" font-size="14.00" fill="white">GetTable</text>
<text text-anchor="middle" x="65.5" y="-436.8" font-family="Times,serif" font-size="14.00" fill="white">(lineitem)</text>
<text text-anchor="middle" x="65.5" y="-421.8" font-family="Times,serif" font-size="14.00" fill="white">pruned:</text>
<text text-anchor="middle" x="65.5" y="-406.8" font-family="Times,serif" font-size="14.00" fill="white">0/9156 chunk(s)</text>
<text text-anchor="middle" x="65.5" y="-391.8" font-family="Times,serif" font-size="14.00" fill="white">13/16 column(s)</text>
<text text-anchor="middle" x="65.5" y="-360.8" font-family="Times,serif" font-size="14.00" fill="white">12 ms 578 µs</text>
</a>
</g>
</g>
<!-- 281425585327248&#45;&gt;281425596343568 -->
<g id="edge11" class="edge">
<title>281425585327248&#45;&gt;281425596343568</title>
<path fill="none" stroke="white" stroke-width="8" d="M64.05,-467.02C66.33,-479.2 70.94,-491.09 79.5,-500 95.47,-516.63 138.89,-528.14 185.71,-535.99"/>
<polygon fill="white" stroke="white" stroke-width="8" points="185.87,-536.02 184.75,-542.93 195.74,-537.61 185.87,-536.02"/>
<text text-anchor="middle" x="204.5" y="-488.8" font-family="Times,serif" font-size="14.00" fill="white">600,037,902 row(s)/9,156 chunk(s)</text>
</g>
<!-- 0 -->
<g id="node12" class="node">
<title>0</title>
<polygon fill="none" stroke="white" points="545,-0.5 545,-151.5 896,-151.5 896,-0.5 545,-0.5"/>
<text text-anchor="middle" x="720.5" y="-136.3" font-family="Times,serif" font-size="14.00" fill="white">Total by operator</text>
<polyline fill="none" stroke="white" points="545,-128.5 896,-128.5 "/>
<text text-anchor="end" x="704" y="-113.3" font-family="Times,serif" font-size="14.00" fill="white">AggregateHash </text>
<text text-anchor="end" x="704" y="-98.3" font-family="Times,serif" font-size="14.00" fill="white"> JoinSimdSortMerge </text>
<text text-anchor="end" x="704" y="-83.3" font-family="Times,serif" font-size="14.00" fill="white"> TableScan </text>
<text text-anchor="end" x="704" y="-68.3" font-family="Times,serif" font-size="14.00" fill="white"> Validate </text>
<text text-anchor="end" x="704" y="-53.3" font-family="Times,serif" font-size="14.00" fill="white"> GetTable </text>
<text text-anchor="end" x="704" y="-38.3" font-family="Times,serif" font-size="14.00" fill="white"> Sort </text>
<text text-anchor="end" x="704" y="-23.3" font-family="Times,serif" font-size="14.00" fill="white"> Alias </text>
<text text-anchor="end" x="704" y="-8.3" font-family="Times,serif" font-size="14.00" fill="white">total</text>
<polyline fill="none" stroke="white" points="712,-0.5 712,-128.5 "/>
<text text-anchor="start" x="720" y="-113.3" font-family="Times,serif" font-size="14.00" fill="white">884 ms 221 µs </text>
<text text-anchor="start" x="720" y="-98.3" font-family="Times,serif" font-size="14.00" fill="white"> 727 ms 204 µs </text>
<text text-anchor="start" x="720" y="-83.3" font-family="Times,serif" font-size="14.00" fill="white"> 127 ms 483 µs </text>
<text text-anchor="start" x="720" y="-68.3" font-family="Times,serif" font-size="14.00" fill="white"> 32 ms 973 µs </text>
<text text-anchor="start" x="720" y="-53.3" font-family="Times,serif" font-size="14.00" fill="white"> 16 ms 580 µs </text>
<text text-anchor="start" x="720" y="-38.3" font-family="Times,serif" font-size="14.00" fill="white"> 21 µs 952 ns </text>
<text text-anchor="start" x="720" y="-23.3" font-family="Times,serif" font-size="14.00" fill="white"> 2 µs 944 ns </text>
<text text-anchor="start" x="720" y="-8.3" font-family="Times,serif" font-size="14.00" fill="white"> 1 s 788 ms </text>
<polyline fill="none" stroke="white" points="843,-0.5 843,-128.5 "/>
<text text-anchor="start" x="851" y="-113.3" font-family="Times,serif" font-size="14.00" fill="white">49 %</text>
<text text-anchor="start" x="851" y="-98.3" font-family="Times,serif" font-size="14.00" fill="white">41 %</text>
<text text-anchor="start" x="851" y="-83.3" font-family="Times,serif" font-size="14.00" fill="white">7 %</text>
<text text-anchor="start" x="851" y="-68.3" font-family="Times,serif" font-size="14.00" fill="white">2 %</text>
<text text-anchor="start" x="851" y="-53.3" font-family="Times,serif" font-size="14.00" fill="white">1 %</text>
<text text-anchor="start" x="851" y="-38.3" font-family="Times,serif" font-size="14.00" fill="white">0 %</text>
<text text-anchor="start" x="851" y="-23.3" font-family="Times,serif" font-size="14.00" fill="white">0 %</text>
<text text-anchor="start" x="851" y="-8.3" font-family="Times,serif" font-size="14.00" fill="white"> </text>
</g>
</g>
</svg>
