<?xml version="1.0" encoding="UTF-8" standalone="no"?>
<!DOCTYPE svg PUBLIC "-//W3C//DTD SVG 1.1//EN"
 "http://www.w3.org/Graphics/SVG/1.1/DTD/svg11.dtd">
<!-- Generated by graphviz version 2.43.0 (0)
 -->
<!-- Title: G Pages: 1 -->
<svg width="1062pt" height="1895pt"
 viewBox="0.00 0.00 1061.50 1895.00" xmlns="http://www.w3.org/2000/svg" xmlns:xlink="http://www.w3.org/1999/xlink">
<g id="graph0" class="graph" transform="scale(1 1) rotate(0) translate(4 1891)">
<title>G</title>
<polygon fill="black" stroke="transparent" points="-4,4 -4,-1891 1057.5,-1891 1057.5,4 -4,4"/>
<text text-anchor="middle" x="319.5" y="-1871.8" font-family="Times,serif" font-size="14.00" fill="white">For tooltips with advanced information, hover your mouse over vertices or edge labels.</text>
<!-- 281450824606480 -->
<g id="node1" class="node">
<title>281450824606480</title>
<g id="a_node1"><a xlink:title="Output: 10 rows in 1 chunk, 2 µs 752 ns.">
<polygon fill="none" stroke="white" points="683,-1832 314,-1832 314,-1763 683,-1763 683,-1832"/>
<text text-anchor="middle" x="498.5" y="-1816.8" font-family="Times,serif" font-size="14.00" fill="white">Alias</text>
<text text-anchor="middle" x="498.5" y="-1801.8" font-family="Times,serif" font-size="14.00" fill="white">[l_orderkey, revenue, o_orderdate, o_shippriority]</text>
<text text-anchor="middle" x="498.5" y="-1770.8" font-family="Times,serif" font-size="14.00" fill="white">2 µs 752 ns</text>
</a>
</g>
</g>
<!-- 281450824606160 -->
<g id="node2" class="node">
<title>281450824606160</title>
<g id="a_node2"><a xlink:title="Output: 10 rows in 1 chunk, 10 µs 48 ns.&#10;Operator step runtimes:&#10; ForwardUnmodifiedColumns 3 µs 104 ns&#10; EvaluateNewColumns 1 µs 184 ns&#10; BuildOutput 4 µs 96 ns.">
<polygon fill="none" stroke="white" points="548,-1712 449,-1712 449,-1658 548,-1658 548,-1712"/>
<text text-anchor="middle" x="498.5" y="-1696.8" font-family="Times,serif" font-size="14.00" fill="white">Projection</text>
<text text-anchor="middle" x="498.5" y="-1665.8" font-family="Times,serif" font-size="14.00" fill="white">10 µs 48 ns</text>
</a>
</g>
</g>
<!-- 281450824606160&#45;&gt;281450824606480 -->
<g id="edge1" class="edge">
<title>281450824606160&#45;&gt;281450824606480</title>
<path fill="none" stroke="white" d="M498.5,-1712.19C498.5,-1724.29 498.5,-1739 498.5,-1752.72"/>
<polygon fill="white" stroke="white" points="495,-1752.95 498.5,-1762.95 502,-1752.96 495,-1752.95"/>
<text text-anchor="middle" x="572" y="-1733.8" font-family="Times,serif" font-size="14.00" fill="white">10 row(s)/1 chunk(s)</text>
</g>
<!-- 281450824605840 -->
<g id="node3" class="node">
<title>281450824605840</title>
<g id="a_node3"><a xlink:title="Output: 10 rows in 1 chunk, 9 µs 984 ns.">
<polygon fill="none" stroke="white" points="548,-1607 449,-1607 449,-1553 548,-1553 548,-1607"/>
<text text-anchor="middle" x="498.5" y="-1591.8" font-family="Times,serif" font-size="14.00" fill="white">Limit</text>
<text text-anchor="middle" x="498.5" y="-1560.8" font-family="Times,serif" font-size="14.00" fill="white">9 µs 984 ns</text>
</a>
</g>
</g>
<!-- 281450824605840&#45;&gt;281450824606160 -->
<g id="edge2" class="edge">
<title>281450824605840&#45;&gt;281450824606160</title>
<path fill="none" stroke="white" d="M498.5,-1607.26C498.5,-1619.49 498.5,-1634.24 498.5,-1647.52"/>
<polygon fill="white" stroke="white" points="495,-1647.79 498.5,-1657.79 502,-1647.79 495,-1647.79"/>
<text text-anchor="middle" x="572" y="-1628.8" font-family="Times,serif" font-size="14.00" fill="white">10 row(s)/1 chunk(s)</text>
</g>
<!-- 281450824605520 -->
<g id="node4" class="node">
<title>281450824605520</title>
<g id="a_node4"><a xlink:title="Output: 1131824 rows in 18 chunks, 764 ms 715 µs.&#10;Operator step runtimes:&#10; MaterializeSortColumns 303 ms 898 µs&#10; Sort 413 ms 216 µs&#10; TemporaryResultWriting 5 ms 512 µs&#10; WriteOutput 40 ms 460 µs.">
<polygon fill="none" stroke="white" stroke-width="8" points="559.5,-1502 437.5,-1502 437.5,-1448 559.5,-1448 559.5,-1502"/>
<text text-anchor="middle" x="498.5" y="-1486.8" font-family="Times,serif" font-size="14.00" fill="white">Sort</text>
<text text-anchor="middle" x="498.5" y="-1455.8" font-family="Times,serif" font-size="14.00" fill="white">764 ms 715 µs</text>
</a>
</g>
</g>
<!-- 281450824605520&#45;&gt;281450824605840 -->
<g id="edge3" class="edge">
<title>281450824605520&#45;&gt;281450824605840</title>
<path fill="none" stroke="white" d="M498.5,-1502.26C498.5,-1514.49 498.5,-1529.24 498.5,-1542.52"/>
<polygon fill="white" stroke="white" points="495,-1542.79 498.5,-1552.79 502,-1542.79 495,-1542.79"/>
<text text-anchor="middle" x="603.5" y="-1523.8" font-family="Times,serif" font-size="14.00" fill="white">1,131,824 row(s)/18 chunk(s)</text>
</g>
<!-- 281450841116688 -->
<g id="node5" class="node">
<title>281450841116688</title>
<g id="a_node5"><a xlink:title="Output: 1131824 rows in 18 chunks, 727 ms 631 µs.&#10;Operator step runtimes:&#10; GroupByKeyPartitioning 547 ms 526 µs&#10; Aggregating 162 ms 602 µs&#10; GroupByColumnsWriting 1 ms 4 µs&#10; AggregateColumnsWriting 442 µs 982 ns&#10; OutputWriting 25 µs 985 ns.">
<polygon fill="none" stroke="white" stroke-width="7.88" points="647,-1397 350,-1397 350,-1283 647,-1283 647,-1397"/>
<text text-anchor="middle" x="498.5" y="-1381.8" font-family="Times,serif" font-size="14.00" fill="white">AggregateHash</text>
<text text-anchor="middle" x="498.5" y="-1366.8" font-family="Times,serif" font-size="14.00" fill="white">GroupBy {l_orderkey,</text>
<text text-anchor="middle" x="498.5" y="-1351.8" font-family="Times,serif" font-size="14.00" fill="white">o_orderdate,</text>
<text text-anchor="middle" x="498.5" y="-1336.8" font-family="Times,serif" font-size="14.00" fill="white">o_shippriority}</text>
<text text-anchor="middle" x="498.5" y="-1321.8" font-family="Times,serif" font-size="14.00" fill="white">SUM(l_extendedprice * (1 &#45; l_discount))</text>
<text text-anchor="middle" x="498.5" y="-1290.8" font-family="Times,serif" font-size="14.00" fill="white">727 ms 631 µs</text>
</a>
</g>
</g>
<!-- 281450841116688&#45;&gt;281450824605520 -->
<g id="edge4" class="edge">
<title>281450841116688&#45;&gt;281450824605520</title>
<path fill="none" stroke="white" d="M498.5,-1397.02C498.5,-1410.77 498.5,-1425.14 498.5,-1437.69"/>
<polygon fill="white" stroke="white" points="495,-1437.75 498.5,-1447.75 502,-1437.75 495,-1437.75"/>
<text text-anchor="middle" x="603.5" y="-1418.8" font-family="Times,serif" font-size="14.00" fill="white">1,131,824 row(s)/18 chunk(s)</text>
</g>
<!-- 281450824603600 -->
<g id="node6" class="node">
<title>281450824603600</title>
<g id="a_node6"><a xlink:title="Output: 2992711 rows in 64 chunks, 96 ms 658 µs.&#10;Operator step runtimes:&#10; ForwardUnmodifiedColumns 51 µs 233 ns&#10; EvaluateNewColumns 96 ms 456 µs&#10; BuildOutput 126 µs 113 ns.">
<polygon fill="none" stroke="white" stroke-width="2.9" points="555,-1232 442,-1232 442,-1178 555,-1178 555,-1232"/>
<text text-anchor="middle" x="498.5" y="-1216.8" font-family="Times,serif" font-size="14.00" fill="white">Projection</text>
<text text-anchor="middle" x="498.5" y="-1185.8" font-family="Times,serif" font-size="14.00" fill="white">96 ms 658 µs</text>
</a>
</g>
</g>
<!-- 281450824603600&#45;&gt;281450841116688 -->
<g id="edge5" class="edge">
<title>281450824603600&#45;&gt;281450841116688</title>
<path fill="none" stroke="white" d="M498.5,-1232.28C498.5,-1243.91 498.5,-1258.18 498.5,-1272.45"/>
<polygon fill="white" stroke="white" points="495,-1272.8 498.5,-1282.8 502,-1272.8 495,-1272.8"/>
<text text-anchor="middle" x="603.5" y="-1253.8" font-family="Times,serif" font-size="14.00" fill="white">2,992,711 row(s)/64 chunk(s)</text>
</g>
<!-- 281450824604880 -->
<g id="node7" class="node">
<title>281450824604880</title>
<g id="a_node7"><a xlink:title="Output: 2992711 rows in 64 chunks, 218 ms 843 µs.&#10;Operator step runtimes:&#10; LeftSideMaterialize 51 ms 828 µs&#10; RightSideMaterialize 150 ms 198 µs&#10; LeftSideTransform 0 ns&#10; RightSideTransform 0 ns&#10; LeftSidePartition 1 ms 174 µs&#10; RightSidePartition 5 ms 748 µs&#10; LeftSideSortBuckets 520 µs 774 ns&#10; RightSideSortBuckets 3 ms 597 µs&#10; GatherRowIds 1 µs 984 ns&#10; FindJoinPartner 2 ms 603 µs&#10; OutputWriting 2 ms 194 µs.">
<polygon fill="none" stroke="white" stroke-width="4.91" points="604,-1127 393,-1127 393,-1058 604,-1058 604,-1127"/>
<text text-anchor="middle" x="498.5" y="-1111.8" font-family="Times,serif" font-size="14.00" fill="white">JoinSimdSortMerge (Inner)</text>
<text text-anchor="middle" x="498.5" y="-1096.8" font-family="Times,serif" font-size="14.00" fill="white">l_orderkey = o_orderkey</text>
<text text-anchor="middle" x="498.5" y="-1065.8" font-family="Times,serif" font-size="14.00" fill="white">218 ms 843 µs</text>
</a>
</g>
</g>
<!-- 281450824604880&#45;&gt;281450824603600 -->
<g id="edge6" class="edge">
<title>281450824604880&#45;&gt;281450824603600</title>
<path fill="none" stroke="white" d="M498.5,-1127.25C498.5,-1140.07 498.5,-1154.73 498.5,-1167.77"/>
<polygon fill="white" stroke="white" points="495,-1167.81 498.5,-1177.81 502,-1167.81 495,-1167.81"/>
<text text-anchor="middle" x="603.5" y="-1148.8" font-family="Times,serif" font-size="14.00" fill="white">2,992,711 row(s)/64 chunk(s)</text>
</g>
<!-- 281450817849104 -->
<g id="node8" class="node">
<title>281450817849104</title>
<g id="a_node8"><a xlink:title="Output: 2992711 rows in 64 chunks, 15 ms 656 µs.">
<polygon fill="none" stroke="white" points="438,-1007 325,-1007 325,-953 438,-953 438,-1007"/>
<text text-anchor="middle" x="381.5" y="-991.8" font-family="Times,serif" font-size="14.00" fill="white">Validate</text>
<text text-anchor="middle" x="381.5" y="-960.8" font-family="Times,serif" font-size="14.00" fill="white">15 ms 656 µs</text>
</a>
</g>
</g>
<!-- 281450817849104&#45;&gt;281450824604880 -->
<g id="edge7" class="edge">
<title>281450817849104&#45;&gt;281450824604880</title>
<path fill="none" stroke="white" d="M380.79,-1007.18C381.72,-1018.25 384.5,-1030.7 391.5,-1040 394.6,-1044.12 398.11,-1047.92 401.92,-1051.43"/>
<polygon fill="white" stroke="white" points="401.92,-1051.43 399.68,-1054.12 409.61,-1057.83 401.92,-1051.43"/>
<text text-anchor="middle" x="496.5" y="-1028.8" font-family="Times,serif" font-size="14.00" fill="white">2,992,711 row(s)/64 chunk(s)</text>
</g>
<!-- 281450824605200 -->
<g id="node9" class="node">
<title>281450824605200</title>
<g id="a_node9"><a xlink:title="Output: 2992711 rows in 64 chunks, 546 ms 335 µs.&#10;Operator step runtimes:&#10; LeftSideMaterialize 130 ms 914 µs&#10; RightSideMaterialize 149 ms 652 µs&#10; LeftSideTransform 0 ns&#10; RightSideTransform 0 ns&#10; LeftSidePartition 176 ms 207 µs&#10; RightSidePartition 6 ms 72 µs&#10; LeftSideSortBuckets 38 ms 763 µs&#10; RightSideSortBuckets 3 ms 434 µs&#10; GatherRowIds 1 µs 600 ns&#10; FindJoinPartner 19 ms 372 µs&#10; OutputWriting 16 ms 244 µs.">
<polygon fill="none" stroke="white" stroke-width="7.17" points="515,-902 230,-902 230,-833 515,-833 515,-902"/>
<text text-anchor="middle" x="372.5" y="-886.8" font-family="Times,serif" font-size="14.00" fill="white">JoinSimdSortMerge (Semi Reduction)</text>
<text text-anchor="middle" x="372.5" y="-871.8" font-family="Times,serif" font-size="14.00" fill="white">l_orderkey = o_orderkey</text>
<text text-anchor="middle" x="372.5" y="-840.8" font-family="Times,serif" font-size="14.00" fill="white">546 ms 335 µs</text>
</a>
</g>
</g>
<!-- 281450824605200&#45;&gt;281450817849104 -->
<g id="edge8" class="edge">
<title>281450824605200&#45;&gt;281450817849104</title>
<path fill="none" stroke="white" d="M375.25,-902.25C376.29,-915.07 377.49,-929.73 378.55,-942.77"/>
<polygon fill="white" stroke="white" points="375.07,-943.13 379.37,-952.81 382.04,-942.56 375.07,-943.13"/>
<text text-anchor="middle" x="483.5" y="-923.8" font-family="Times,serif" font-size="14.00" fill="white">2,992,711 row(s)/64 chunk(s)</text>
</g>
<!-- 281450824603280 -->
<g id="node10" class="node">
<title>281450824603280</title>
<g id="a_node10"><a xlink:title="Output: 326238919 rows in 9156 chunks, 36 ms 240 µs.&#10;Chunks: 0 skipped with no results, &#10;0 skipped with all matching, 0 scanned using binary search.">
<polygon fill="none" stroke="white" points="199,-782 0,-782 0,-698 199,-698 199,-782"/>
<text text-anchor="middle" x="99.5" y="-766.8" font-family="Times,serif" font-size="14.00" fill="white">TableScan</text>
<text text-anchor="middle" x="99.5" y="-751.8" font-family="Times,serif" font-size="14.00" fill="white">Impl: ColumnVsValue</text>
<text text-anchor="middle" x="99.5" y="-736.8" font-family="Times,serif" font-size="14.00" fill="white">l_shipdate &gt; &#39;1995&#45;03&#45;04&#39;</text>
<text text-anchor="middle" x="99.5" y="-705.8" font-family="Times,serif" font-size="14.00" fill="white">36 ms 240 µs</text>
</a>
</g>
</g>
<!-- 281450824603280&#45;&gt;281450824605200 -->
<g id="edge9" class="edge">
<title>281450824603280&#45;&gt;281450824605200</title>
<path fill="none" stroke="white" stroke-width="6.5" d="M99.5,-782.33C101.53,-794.27 105.87,-806.39 114.5,-815 130.69,-831.15 173.69,-842.54 220.04,-850.43"/>
<polygon fill="white" stroke="white" stroke-width="6.5" points="220.11,-850.44 219.19,-856.05 229.98,-852.06 220.11,-850.44"/>
<text text-anchor="middle" x="239.5" y="-803.8" font-family="Times,serif" font-size="14.00" fill="white">326,238,919 row(s)/9,156 chunk(s)</text>
</g>
<!-- 281450858285712 -->
<g id="node11" class="node">
<title>281450858285712</title>
<g id="a_node11"><a xlink:title="Output: 600037902 rows in 9156 chunks, 14 ms 407 µs.">
<polygon fill="none" stroke="white" points="165,-647 34,-647 34,-533 165,-533 165,-647"/>
<text text-anchor="middle" x="99.5" y="-631.8" font-family="Times,serif" font-size="14.00" fill="white">GetTable</text>
<text text-anchor="middle" x="99.5" y="-616.8" font-family="Times,serif" font-size="14.00" fill="white">(lineitem)</text>
<text text-anchor="middle" x="99.5" y="-601.8" font-family="Times,serif" font-size="14.00" fill="white">pruned:</text>
<text text-anchor="middle" x="99.5" y="-586.8" font-family="Times,serif" font-size="14.00" fill="white">0/9156 chunk(s)</text>
<text text-anchor="middle" x="99.5" y="-571.8" font-family="Times,serif" font-size="14.00" fill="white">12/16 column(s)</text>
<text text-anchor="middle" x="99.5" y="-540.8" font-family="Times,serif" font-size="14.00" fill="white">14 ms 407 µs</text>
</a>
</g>
</g>
<!-- 281450858285712&#45;&gt;281450824603280 -->
<g id="edge10" class="edge">
<title>281450858285712&#45;&gt;281450824603280</title>
<path fill="none" stroke="white" stroke-width="8" d="M99.5,-647.37C99.5,-660.65 99.5,-674.74 99.5,-687.77"/>
<polygon fill="white" stroke="white" stroke-width="8" points="92.5,-687.97 99.5,-697.97 106.5,-687.97 92.5,-687.97"/>
<text text-anchor="middle" x="224.5" y="-668.8" font-family="Times,serif" font-size="14.00" fill="white">600,037,902 row(s)/9,156 chunk(s)</text>
</g>
<!-- 281450817848336 -->
<g id="node12" class="node">
<title>281450817848336</title>
<g id="a_node12"><a xlink:title="Output: 14433552 rows in 256 chunks, 15 ms 335 µs.">
<polygon fill="none" stroke="white" points="550,-767 437,-767 437,-713 550,-713 550,-767"/>
<text text-anchor="middle" x="493.5" y="-751.8" font-family="Times,serif" font-size="14.00" fill="white">Validate</text>
<text text-anchor="middle" x="493.5" y="-720.8" font-family="Times,serif" font-size="14.00" fill="white">15 ms 335 µs</text>
</a>
</g>
</g>
<!-- 281450817848336&#45;&gt;281450824604880 -->
<g id="edge12" class="edge">
<title>281450817848336&#45;&gt;281450824604880</title>
<path fill="none" stroke="white" d="M550.24,-758.36C570.02,-767.44 590.11,-780.8 601.5,-800 655.92,-891.74 657.58,-949.26 601.5,-1040 599.07,-1043.93 596.24,-1047.58 593.1,-1050.95"/>
<polygon fill="white" stroke="white" points="585.76,-1057.91 595.43,-1053.56 593.02,-1051.02 585.76,-1057.91"/>
<text text-anchor="middle" x="756.5" y="-923.8" font-family="Times,serif" font-size="14.00" fill="white">14,433,552 row(s)/256 chunk(s)</text>
</g>
<!-- 281450817848336&#45;&gt;281450824605200 -->
<g id="edge11" class="edge">
<title>281450817848336&#45;&gt;281450824605200</title>
<path fill="none" stroke="white" d="M436.76,-754.68C413,-763.49 387.66,-777.64 373.5,-800 369.24,-806.72 367.21,-814.64 366.5,-822.63"/>
<polygon fill="white" stroke="white" points="366.26,-832.7 370,-822.79 366.5,-822.7 366.26,-832.7"/>
<text text-anchor="middle" x="487.5" y="-803.8" font-family="Times,serif" font-size="14.00" fill="white">14,433,552 row(s)/256 chunk(s)</text>
</g>
<!-- 281450824604560 -->
<g id="node13" class="node">
<title>281450824604560</title>
<g id="a_node13"><a xlink:title="Output: 14433552 rows in 256 chunks, 133 ms 793 µs.&#10;Operator step runtimes:&#10; LeftSideMaterialize 62 ms 452 µs&#10; RightSideMaterialize 4 ms 258 µs&#10; LeftSideTransform 0 ns&#10; RightSideTransform 0 ns&#10; LeftSidePartition 26 ms 905 µs&#10; RightSidePartition 991 µs 949 ns&#10; LeftSideSortBuckets 15 ms 273 µs&#10; RightSideSortBuckets 1 ms 544 µs&#10; GatherRowIds 1 µs 504 ns&#10; FindJoinPartner 6 ms 422 µs&#10; OutputWriting 13 ms 451 µs.">
<polygon fill="none" stroke="white" stroke-width="3.7" points="598,-624.5 389,-624.5 389,-555.5 598,-555.5 598,-624.5"/>
<text text-anchor="middle" x="493.5" y="-609.3" font-family="Times,serif" font-size="14.00" fill="white">JoinSimdSortMerge (Semi)</text>
<text text-anchor="middle" x="493.5" y="-594.3" font-family="Times,serif" font-size="14.00" fill="white">o_custkey = c_custkey</text>
<text text-anchor="middle" x="493.5" y="-563.3" font-family="Times,serif" font-size="14.00" fill="white">133 ms 793 µs</text>
</a>
</g>
</g>
<!-- 281450824604560&#45;&gt;281450817848336 -->
<g id="edge13" class="edge">
<title>281450824604560&#45;&gt;281450817848336</title>
<path fill="none" stroke="white" d="M493.5,-624.58C493.5,-647.91 493.5,-678.97 493.5,-702.84"/>
<polygon fill="white" stroke="white" points="490,-702.92 493.5,-712.92 497,-702.92 490,-702.92"/>
<text text-anchor="middle" x="607.5" y="-668.8" font-family="Times,serif" font-size="14.00" fill="white">14,433,552 row(s)/256 chunk(s)</text>
</g>
<!-- 281450824603920 -->
<g id="node14" class="node">
<title>281450824603920</title>
<g id="a_node14"><a xlink:title="Output: 72188667 rows in 2289 chunks, 11 ms 880 µs.&#10;Chunks: 0 skipped with no results, &#10;0 skipped with all matching, 0 scanned using binary search.">
<polygon fill="none" stroke="white" points="465.5,-482 253.5,-482 253.5,-398 465.5,-398 465.5,-482"/>
<text text-anchor="middle" x="359.5" y="-466.8" font-family="Times,serif" font-size="14.00" fill="white">TableScan</text>
<text text-anchor="middle" x="359.5" y="-451.8" font-family="Times,serif" font-size="14.00" fill="white">Impl: ColumnVsValue</text>
<text text-anchor="middle" x="359.5" y="-436.8" font-family="Times,serif" font-size="14.00" fill="white">o_orderdate &lt; &#39;1995&#45;03&#45;04&#39;</text>
<text text-anchor="middle" x="359.5" y="-405.8" font-family="Times,serif" font-size="14.00" fill="white">11 ms 880 µs</text>
</a>
</g>
</g>
<!-- 281450824603920&#45;&gt;281450824604560 -->
<g id="edge14" class="edge">
<title>281450824603920&#45;&gt;281450824604560</title>
<path fill="none" stroke="white" stroke-width="2.78" d="M354.72,-482.34C355.21,-493.62 357.55,-505.37 363.5,-515 372.04,-528.81 384.16,-540.29 397.61,-549.75"/>
<polygon fill="white" stroke="white" stroke-width="2.78" points="397.79,-549.87 395.86,-552.79 406.13,-555.39 397.79,-549.87"/>
<text text-anchor="middle" x="484" y="-503.8" font-family="Times,serif" font-size="14.00" fill="white">72,188,667 row(s)/2,289 chunk(s)</text>
</g>
<!-- 281450858285264 -->
<g id="node15" class="node">
<title>281450858285264</title>
<g id="a_node15"><a xlink:title="Output: 150000000 rows in 2289 chunks, 5 ms 556 µs.">
<polygon fill="none" stroke="white" points="421,-347 290,-347 290,-233 421,-233 421,-347"/>
<text text-anchor="middle" x="355.5" y="-331.8" font-family="Times,serif" font-size="14.00" fill="white">GetTable</text>
<text text-anchor="middle" x="355.5" y="-316.8" font-family="Times,serif" font-size="14.00" fill="white">(orders)</text>
<text text-anchor="middle" x="355.5" y="-301.8" font-family="Times,serif" font-size="14.00" fill="white">pruned:</text>
<text text-anchor="middle" x="355.5" y="-286.8" font-family="Times,serif" font-size="14.00" fill="white">0/2289 chunk(s)</text>
<text text-anchor="middle" x="355.5" y="-271.8" font-family="Times,serif" font-size="14.00" fill="white">5/9 column(s)</text>
<text text-anchor="middle" x="355.5" y="-240.8" font-family="Times,serif" font-size="14.00" fill="white">5 ms 556 µs</text>
</a>
</g>
</g>
<!-- 281450858285264&#45;&gt;281450824603920 -->
<g id="edge15" class="edge">
<title>281450858285264&#45;&gt;281450824603920</title>
<path fill="none" stroke="white" stroke-width="4.58" d="M357.02,-347.37C357.38,-360.65 357.76,-374.74 358.12,-387.77"/>
<polygon fill="white" stroke="white" stroke-width="4.58" points="354.11,-388.08 358.39,-397.97 362.13,-387.86 354.11,-388.08"/>
<text text-anchor="middle" x="483.5" y="-368.8" font-family="Times,serif" font-size="14.00" fill="white">150,000,000 row(s)/2,289 chunk(s)</text>
</g>
<!-- 281450817851664 -->
<g id="node16" class="node">
<title>281450817851664</title>
<g id="a_node16"><a xlink:title="Output: 3000019 rows in 229 chunks, 435 µs 973 ns.">
<polygon fill="none" stroke="white" points="686,-467 569,-467 569,-413 686,-413 686,-467"/>
<text text-anchor="middle" x="627.5" y="-451.8" font-family="Times,serif" font-size="14.00" fill="white">Validate</text>
<text text-anchor="middle" x="627.5" y="-420.8" font-family="Times,serif" font-size="14.00" fill="white">435 µs 973 ns</text>
</a>
</g>
</g>
<!-- 281450817851664&#45;&gt;281450824604560 -->
<g id="edge16" class="edge">
<title>281450817851664&#45;&gt;281450824604560</title>
<path fill="none" stroke="white" d="M623.81,-467.3C620.65,-482.42 614.89,-501.1 604.5,-515 594.68,-528.13 581.8,-539.66 568.31,-549.47"/>
<polygon fill="white" stroke="white" points="559.85,-555.35 570.05,-552.52 568.06,-549.64 559.85,-555.35"/>
<text text-anchor="middle" x="723" y="-503.8" font-family="Times,serif" font-size="14.00" fill="white">3,000,019 row(s)/229 chunk(s)</text>
</g>
<!-- 281450824604240 -->
<g id="node17" class="node">
<title>281450824604240</title>
<g id="a_node17"><a xlink:title="Output: 3000019 rows in 229 chunks, 855 µs 756 ns.&#10;Chunks: 0 skipped with no results, &#10;0 skipped with all matching, 0 scanned using binary search.">
<polygon fill="none" stroke="white" points="752.5,-332 504.5,-332 504.5,-248 752.5,-248 752.5,-332"/>
<text text-anchor="middle" x="628.5" y="-316.8" font-family="Times,serif" font-size="14.00" fill="white">TableScan</text>
<text text-anchor="middle" x="628.5" y="-301.8" font-family="Times,serif" font-size="14.00" fill="white">Impl: ColumnVsValue</text>
<text text-anchor="middle" x="628.5" y="-286.8" font-family="Times,serif" font-size="14.00" fill="white">c_mktsegment = &#39;HOUSEHOLD&#39;</text>
<text text-anchor="middle" x="628.5" y="-255.8" font-family="Times,serif" font-size="14.00" fill="white">855 µs 756 ns</text>
</a>
</g>
</g>
<!-- 281450824604240&#45;&gt;281450817851664 -->
<g id="edge17" class="edge">
<title>281450824604240&#45;&gt;281450817851664</title>
<path fill="none" stroke="white" d="M628.22,-332.23C628.07,-354.32 627.89,-381.31 627.75,-402.62"/>
<polygon fill="white" stroke="white" points="624.24,-402.86 627.68,-412.88 631.24,-402.91 624.24,-402.86"/>
<text text-anchor="middle" x="737" y="-368.8" font-family="Times,serif" font-size="14.00" fill="white">3,000,019 row(s)/229 chunk(s)</text>
</g>
<!-- 281450858284816 -->
<g id="node18" class="node">
<title>281450858284816</title>
<g id="a_node18"><a xlink:title="Output: 15000000 rows in 229 chunks, 699 µs 305 ns.">
<polygon fill="none" stroke="white" points="689.5,-148 567.5,-148 567.5,-34 689.5,-34 689.5,-148"/>
<text text-anchor="middle" x="628.5" y="-132.8" font-family="Times,serif" font-size="14.00" fill="white">GetTable</text>
<text text-anchor="middle" x="628.5" y="-117.8" font-family="Times,serif" font-size="14.00" fill="white">(customer)</text>
<text text-anchor="middle" x="628.5" y="-102.8" font-family="Times,serif" font-size="14.00" fill="white">pruned:</text>
<text text-anchor="middle" x="628.5" y="-87.8" font-family="Times,serif" font-size="14.00" fill="white">0/229 chunk(s)</text>
<text text-anchor="middle" x="628.5" y="-72.8" font-family="Times,serif" font-size="14.00" fill="white">6/8 column(s)</text>
<text text-anchor="middle" x="628.5" y="-41.8" font-family="Times,serif" font-size="14.00" fill="white">699 µs 305 ns</text>
</a>
</g>
</g>
<!-- 281450858284816&#45;&gt;281450824604240 -->
<g id="edge18" class="edge">
<title>281450858284816&#45;&gt;281450824604240</title>
<path fill="none" stroke="white" d="M628.5,-148.19C628.5,-176.32 628.5,-210.15 628.5,-237.59"/>
<polygon fill="white" stroke="white" points="625,-237.77 628.5,-247.77 632,-237.77 625,-237.77"/>
<text text-anchor="middle" x="742.5" y="-203.8" font-family="Times,serif" font-size="14.00" fill="white">15,000,000 row(s)/229 chunk(s)</text>
</g>
<!-- 0 -->
<g id="node19" class="node">
<title>0</title>
<polygon fill="none" stroke="white" points="707.5,-0.5 707.5,-181.5 1053.5,-181.5 1053.5,-0.5 707.5,-0.5"/>
<text text-anchor="middle" x="880.5" y="-166.3" font-family="Times,serif" font-size="14.00" fill="white">Total by operator</text>
<polyline fill="none" stroke="white" points="707.5,-158.5 1053.5,-158.5 "/>
<text text-anchor="end" x="861.5" y="-143.3" font-family="Times,serif" font-size="14.00" fill="white">JoinSimdSortMerge </text>
<text text-anchor="end" x="861.5" y="-128.3" font-family="Times,serif" font-size="14.00" fill="white"> Sort </text>
<text text-anchor="end" x="861.5" y="-113.3" font-family="Times,serif" font-size="14.00" fill="white"> AggregateHash </text>
<text text-anchor="end" x="861.5" y="-98.3" font-family="Times,serif" font-size="14.00" fill="white"> Projection </text>
<text text-anchor="end" x="861.5" y="-83.3" font-family="Times,serif" font-size="14.00" fill="white"> TableScan </text>
<text text-anchor="end" x="861.5" y="-68.3" font-family="Times,serif" font-size="14.00" fill="white"> Validate </text>
<text text-anchor="end" x="861.5" y="-53.3" font-family="Times,serif" font-size="14.00" fill="white"> GetTable </text>
<text text-anchor="end" x="861.5" y="-38.3" font-family="Times,serif" font-size="14.00" fill="white"> Limit </text>
<text text-anchor="end" x="861.5" y="-23.3" font-family="Times,serif" font-size="14.00" fill="white"> Alias </text>
<text text-anchor="end" x="861.5" y="-8.3" font-family="Times,serif" font-size="14.00" fill="white">total</text>
<polyline fill="none" stroke="white" points="869.5,-0.5 869.5,-158.5 "/>
<text text-anchor="start" x="877.5" y="-143.3" font-family="Times,serif" font-size="14.00" fill="white">898 ms 971 µs </text>
<text text-anchor="start" x="877.5" y="-128.3" font-family="Times,serif" font-size="14.00" fill="white"> 764 ms 715 µs </text>
<text text-anchor="start" x="877.5" y="-113.3" font-family="Times,serif" font-size="14.00" fill="white"> 727 ms 631 µs </text>
<text text-anchor="start" x="877.5" y="-98.3" font-family="Times,serif" font-size="14.00" fill="white"> 96 ms 668 µs </text>
<text text-anchor="start" x="877.5" y="-83.3" font-family="Times,serif" font-size="14.00" fill="white"> 48 ms 976 µs </text>
<text text-anchor="start" x="877.5" y="-68.3" font-family="Times,serif" font-size="14.00" fill="white"> 31 ms 427 µs </text>
<text text-anchor="start" x="877.5" y="-53.3" font-family="Times,serif" font-size="14.00" fill="white"> 20 ms 662 µs </text>
<text text-anchor="start" x="877.5" y="-38.3" font-family="Times,serif" font-size="14.00" fill="white"> 9 µs 984 ns </text>
<text text-anchor="start" x="877.5" y="-23.3" font-family="Times,serif" font-size="14.00" fill="white"> 2 µs 752 ns </text>
<text text-anchor="start" x="877.5" y="-8.3" font-family="Times,serif" font-size="14.00" fill="white"> 2 s 589 ms </text>
<polyline fill="none" stroke="white" points="1000.5,-0.5 1000.5,-158.5 "/>
<text text-anchor="start" x="1008.5" y="-143.3" font-family="Times,serif" font-size="14.00" fill="white">35 %</text>
<text text-anchor="start" x="1008.5" y="-128.3" font-family="Times,serif" font-size="14.00" fill="white">30 %</text>
<text text-anchor="start" x="1008.5" y="-113.3" font-family="Times,serif" font-size="14.00" fill="white">28 %</text>
<text text-anchor="start" x="1008.5" y="-98.3" font-family="Times,serif" font-size="14.00" fill="white">4 %</text>
<text text-anchor="start" x="1008.5" y="-83.3" font-family="Times,serif" font-size="14.00" fill="white">2 %</text>
<text text-anchor="start" x="1008.5" y="-68.3" font-family="Times,serif" font-size="14.00" fill="white">1 %</text>
<text text-anchor="start" x="1008.5" y="-53.3" font-family="Times,serif" font-size="14.00" fill="white">1 %</text>
<text text-anchor="start" x="1008.5" y="-38.3" font-family="Times,serif" font-size="14.00" fill="white">0 %</text>
<text text-anchor="start" x="1008.5" y="-23.3" font-family="Times,serif" font-size="14.00" fill="white">0 %</text>
<text text-anchor="start" x="1008.5" y="-8.3" font-family="Times,serif" font-size="14.00" fill="white"> </text>
</g>
</g>
</svg>
