<?xml version="1.0" encoding="UTF-8" standalone="no"?>
<!DOCTYPE svg PUBLIC "-//W3C//DTD SVG 1.1//EN"
 "http://www.w3.org/Graphics/SVG/1.1/DTD/svg11.dtd">
<!-- Generated by graphviz version 2.43.0 (0)
 -->
<!-- Title: G Pages: 1 -->
<svg width="1183pt" height="2303pt"
 viewBox="0.00 0.00 1182.50 2303.00" xmlns="http://www.w3.org/2000/svg" xmlns:xlink="http://www.w3.org/1999/xlink">
<g id="graph0" class="graph" transform="scale(1 1) rotate(0) translate(4 2299)">
<title>G</title>
<polygon fill="black" stroke="transparent" points="-4,4 -4,-2299 1178.5,-2299 1178.5,4 -4,4"/>
<text text-anchor="middle" x="319.5" y="-2279.8" font-family="Times,serif" font-size="14.00" fill="white">For tooltips with advanced information, hover your mouse over vertices or edge labels.</text>
<!-- 140067006092816 -->
<g id="node1" class="node">
<title>140067006092816</title>
<g id="a_node1"><a xlink:title="Output: 100 rows in 1 chunk, 24 µs 619 ns.&#10;Operator step runtimes:&#10; ForwardUnmodifiedColumns 7 µs 824 ns&#10; EvaluateNewColumns 2 µs 688 ns&#10; BuildOutput 9 µs 998 ns.">
<polygon fill="none" stroke="white" points="529.5,-2240 421.5,-2240 421.5,-2186 529.5,-2186 529.5,-2240"/>
<text text-anchor="middle" x="475.5" y="-2224.8" font-family="Times,serif" font-size="14.00" fill="white">Projection</text>
<text text-anchor="middle" x="475.5" y="-2193.8" font-family="Times,serif" font-size="14.00" fill="white">24 µs 619 ns</text>
</a>
</g>
</g>
<!-- 140204831999760 -->
<g id="node2" class="node">
<title>140204831999760</title>
<g id="a_node2"><a xlink:title="Output: 100 rows in 1 chunk, 40 µs 244 ns.">
<polygon fill="none" stroke="white" points="529.5,-2135 421.5,-2135 421.5,-2081 529.5,-2081 529.5,-2135"/>
<text text-anchor="middle" x="475.5" y="-2119.8" font-family="Times,serif" font-size="14.00" fill="white">Limit</text>
<text text-anchor="middle" x="475.5" y="-2088.8" font-family="Times,serif" font-size="14.00" fill="white">40 µs 244 ns</text>
</a>
</g>
</g>
<!-- 140204831999760&#45;&gt;140067006092816 -->
<g id="edge1" class="edge">
<title>140204831999760&#45;&gt;140067006092816</title>
<path fill="none" stroke="white" d="M475.5,-2135.26C475.5,-2147.49 475.5,-2162.24 475.5,-2175.52"/>
<polygon fill="white" stroke="white" points="472,-2175.79 475.5,-2185.79 479,-2175.79 472,-2175.79"/>
<text text-anchor="middle" x="553.5" y="-2156.8" font-family="Times,serif" font-size="14.00" fill="white">100 row(s)/1 chunk(s)</text>
</g>
<!-- 140067006093136 -->
<g id="node3" class="node">
<title>140067006093136</title>
<g id="a_node3"><a xlink:title="Output: 47337 rows in 1 chunk, 105 ms 192 µs.&#10;Operator step runtimes:&#10; MaterializeSortColumns 34 ms 346 µs&#10; Sort 65 ms 305 µs&#10; TemporaryResultWriting 481 µs 949 ns&#10; WriteOutput 4 ms 174 µs.">
<polygon fill="none" stroke="white" stroke-width="8" points="536.5,-2030 414.5,-2030 414.5,-1976 536.5,-1976 536.5,-2030"/>
<text text-anchor="middle" x="475.5" y="-2014.8" font-family="Times,serif" font-size="14.00" fill="white">Sort</text>
<text text-anchor="middle" x="475.5" y="-1983.8" font-family="Times,serif" font-size="14.00" fill="white">105 ms 192 µs</text>
</a>
</g>
</g>
<!-- 140067006093136&#45;&gt;140204831999760 -->
<g id="edge2" class="edge">
<title>140067006093136&#45;&gt;140204831999760</title>
<path fill="none" stroke="white" d="M475.5,-2030.26C475.5,-2042.49 475.5,-2057.24 475.5,-2070.52"/>
<polygon fill="white" stroke="white" points="472,-2070.79 475.5,-2080.79 479,-2070.79 472,-2070.79"/>
<text text-anchor="middle" x="564.5" y="-2051.8" font-family="Times,serif" font-size="14.00" fill="white">47,337 row(s)/1 chunk(s)</text>
</g>
<!-- 140067006092496 -->
<g id="node4" class="node">
<title>140067006092496</title>
<g id="a_node4"><a xlink:title="Output: 47337 rows in 29 chunks, 22 ms 153 µs.&#10;Operator step runtimes:&#10; LeftSideMaterialize 4 ms 625 µs&#10; RightSideMaterialize 439 µs 248 ns&#10; LeftSideTransform 0 ns&#10; RightSideTransform 0 ns&#10; LeftSidePartition 433 µs 238 ns&#10; RightSidePartition 450 µs 541 ns&#10; LeftSideSortBuckets 722 µs 281 ns&#10; RightSideSortBuckets 700 µs 209 ns&#10; GatherRowIds 1 µs 848 ns&#10; FindJoinPartner 13 ms 851 µs&#10; OutputWriting 792 µs 88 ns.">
<polygon fill="none" stroke="white" stroke-width="4.16" points="615,-1925 336,-1925 336,-1841 615,-1841 615,-1925"/>
<text text-anchor="middle" x="475.5" y="-1909.8" font-family="Times,serif" font-size="14.00" fill="white">JoinSimdSortMerge (Semi)</text>
<text text-anchor="middle" x="475.5" y="-1894.8" font-family="Times,serif" font-size="14.00" fill="white">ps_supplycost = MIN(ps_supplycost)</text>
<text text-anchor="middle" x="475.5" y="-1879.8" font-family="Times,serif" font-size="14.00" fill="white">AND p_partkey = ps_partkey</text>
<text text-anchor="middle" x="475.5" y="-1848.8" font-family="Times,serif" font-size="14.00" fill="white">22 ms 153 µs</text>
</a>
</g>
</g>
<!-- 140067006092496&#45;&gt;140067006093136 -->
<g id="edge3" class="edge">
<title>140067006092496&#45;&gt;140067006093136</title>
<path fill="none" stroke="white" d="M475.5,-1925.27C475.5,-1938.36 475.5,-1952.72 475.5,-1965.45"/>
<polygon fill="white" stroke="white" points="472,-1965.69 475.5,-1975.69 479,-1965.69 472,-1965.69"/>
<text text-anchor="middle" x="569" y="-1946.8" font-family="Times,serif" font-size="14.00" fill="white">47,337 row(s)/29 chunk(s)</text>
</g>
<!-- 140067006091536 -->
<g id="node5" class="node">
<title>140067006091536</title>
<g id="a_node5"><a xlink:title="Output: 64050 rows in 105 chunks, 21 ms 554 µs.&#10;Operator step runtimes:&#10; LeftSideMaterialize 4 ms 757 µs&#10; RightSideMaterialize 6 ms 595 µs&#10; LeftSideTransform 0 ns&#10; RightSideTransform 0 ns&#10; LeftSidePartition 2 ms 333 µs&#10; RightSidePartition 2 ms 304 µs&#10; LeftSideSortBuckets 739 µs 69 ns&#10; RightSideSortBuckets 709 µs 780 ns&#10; GatherRowIds 1 µs 377 ns&#10; FindJoinPartner 2 ms 403 µs&#10; OutputWriting 1 ms 544 µs.">
<polygon fill="none" stroke="white" stroke-width="4.09" points="436,-1790 225,-1790 225,-1721 436,-1721 436,-1790"/>
<text text-anchor="middle" x="330.5" y="-1774.8" font-family="Times,serif" font-size="14.00" fill="white">JoinSimdSortMerge (Inner)</text>
<text text-anchor="middle" x="330.5" y="-1759.8" font-family="Times,serif" font-size="14.00" fill="white">ps_partkey = p_partkey</text>
<text text-anchor="middle" x="330.5" y="-1728.8" font-family="Times,serif" font-size="14.00" fill="white">21 ms 554 µs</text>
</a>
</g>
</g>
<!-- 140067006091536&#45;&gt;140067006092496 -->
<g id="edge4" class="edge">
<title>140067006091536&#45;&gt;140067006092496</title>
<path fill="none" stroke="white" d="M358.95,-1790.33C368.79,-1801.25 380.2,-1813.08 391.5,-1823 395.96,-1826.92 400.68,-1830.81 405.52,-1834.63"/>
<polygon fill="white" stroke="white" points="405.83,-1834.86 403.7,-1837.64 413.76,-1840.96 405.83,-1834.86"/>
<text text-anchor="middle" x="489.5" y="-1811.8" font-family="Times,serif" font-size="14.00" fill="white">64,050 row(s)/105 chunk(s)</text>
</g>
<!-- 140067006091216 -->
<g id="node6" class="node">
<title>140067006091216</title>
<g id="a_node6"><a xlink:title="Output: 64050 rows in 104 chunks, 13 ms 792 µs.&#10;Operator step runtimes:&#10; LeftSideMaterialize 4 ms 725 µs&#10; RightSideMaterialize 936 µs 998 ns&#10; LeftSideTransform 0 ns&#10; RightSideTransform 0 ns&#10; LeftSidePartition 1 ms 623 µs&#10; RightSidePartition 2 ms 273 µs&#10; LeftSideSortBuckets 742 µs 31 ns&#10; RightSideSortBuckets 725 µs 96 ns&#10; GatherRowIds 744 ns&#10; FindJoinPartner 1 ms 770 µs&#10; OutputWriting 839 µs 289 ns.">
<polygon fill="none" stroke="white" stroke-width="2.99" points="436,-1601 225,-1601 225,-1532 436,-1532 436,-1601"/>
<text text-anchor="middle" x="330.5" y="-1585.8" font-family="Times,serif" font-size="14.00" fill="white">JoinSimdSortMerge (Inner)</text>
<text text-anchor="middle" x="330.5" y="-1570.8" font-family="Times,serif" font-size="14.00" fill="white">ps_suppkey = s_suppkey</text>
<text text-anchor="middle" x="330.5" y="-1539.8" font-family="Times,serif" font-size="14.00" fill="white">13 ms 792 µs</text>
</a>
</g>
</g>
<!-- 140067006091216&#45;&gt;140067006091536 -->
<g id="edge5" class="edge">
<title>140067006091216&#45;&gt;140067006091536</title>
<path fill="none" stroke="white" d="M330.5,-1601.36C330.5,-1631.95 330.5,-1677.13 330.5,-1710.5"/>
<polygon fill="white" stroke="white" points="330.5,-1710.89 327,-1710.89 330.5,-1720.89 330.5,-1710.89"/>
<text text-anchor="middle" x="428.5" y="-1657.3" font-family="Times,serif" font-size="14.00" fill="white">64,050 row(s)/104 chunk(s)</text>
</g>
<!-- 140204831998224 -->
<g id="node7" class="node">
<title>140204831998224</title>
<g id="a_node7"><a xlink:title="Output: 64050 rows in 104 chunks, 619 µs 354 ns.">
<polygon fill="none" stroke="white" points="548,-1481 431,-1481 431,-1427 548,-1427 548,-1481"/>
<text text-anchor="middle" x="489.5" y="-1465.8" font-family="Times,serif" font-size="14.00" fill="white">Validate</text>
<text text-anchor="middle" x="489.5" y="-1434.8" font-family="Times,serif" font-size="14.00" fill="white">619 µs 354 ns</text>
</a>
</g>
</g>
<!-- 140204831998224&#45;&gt;140067006091216 -->
<g id="edge6" class="edge">
<title>140204831998224&#45;&gt;140067006091216</title>
<path fill="none" stroke="white" d="M451.82,-1481.19C432.52,-1494.6 408.63,-1511.2 387.17,-1526.12"/>
<polygon fill="white" stroke="white" points="386.98,-1526.25 384.98,-1523.37 378.77,-1531.95 386.98,-1526.25"/>
<text text-anchor="middle" x="521.5" y="-1502.8" font-family="Times,serif" font-size="14.00" fill="white">64,050 row(s)/104 chunk(s)</text>
</g>
<!-- 140067006090896 -->
<g id="node8" class="node">
<title>140067006090896</title>
<g id="a_node8"><a xlink:title="Output: 64050 rows in 104 chunks, 21 ms 793 µs.&#10;Operator step runtimes:&#10; LeftSideMaterialize 12 ms 125 µs&#10; RightSideMaterialize 892 µs 2 ns&#10; LeftSideTransform 0 ns&#10; RightSideTransform 0 ns&#10; LeftSidePartition 2 ms 861 µs&#10; RightSidePartition 2 ms 151 µs&#10; LeftSideSortBuckets 915 µs 939 ns&#10; RightSideSortBuckets 742 µs 444 ns&#10; GatherRowIds 883 ns&#10; FindJoinPartner 702 µs 191 ns&#10; OutputWriting 1 ms 194 µs.">
<polygon fill="none" stroke="white" stroke-width="4.12" points="647,-1376 362,-1376 362,-1307 647,-1307 647,-1376"/>
<text text-anchor="middle" x="504.5" y="-1360.8" font-family="Times,serif" font-size="14.00" fill="white">JoinSimdSortMerge (Semi Reduction)</text>
<text text-anchor="middle" x="504.5" y="-1345.8" font-family="Times,serif" font-size="14.00" fill="white">ps_suppkey = s_suppkey</text>
<text text-anchor="middle" x="504.5" y="-1314.8" font-family="Times,serif" font-size="14.00" fill="white">21 ms 793 µs</text>
</a>
</g>
</g>
<!-- 140067006090896&#45;&gt;140204831998224 -->
<g id="edge7" class="edge">
<title>140067006090896&#45;&gt;140204831998224</title>
<path fill="none" stroke="white" d="M499.92,-1376.25C498.18,-1389.07 496.19,-1403.73 494.42,-1416.77"/>
<polygon fill="white" stroke="white" points="490.93,-1416.43 493.05,-1426.81 497.87,-1417.37 490.93,-1416.43"/>
<text text-anchor="middle" x="594.5" y="-1397.8" font-family="Times,serif" font-size="14.00" fill="white">64,050 row(s)/104 chunk(s)</text>
</g>
<!-- 140067006088016 -->
<g id="node9" class="node">
<title>140067006088016</title>
<g id="a_node9"><a xlink:title="Output: 320360 rows in 256 chunks, 39 ms 841 µs.&#10;Operator step runtimes:&#10; LeftSideMaterialize 15 ms 354 µs&#10; RightSideMaterialize 8 ms 377 µs&#10; LeftSideTransform 0 ns&#10; RightSideTransform 0 ns&#10; LeftSidePartition 2 ms 905 µs&#10; RightSidePartition 1 ms 978 µs&#10; LeftSideSortBuckets 5 ms 874 µs&#10; RightSideSortBuckets 743 µs 500 ns&#10; GatherRowIds 996 ns&#10; FindJoinPartner 1 ms 684 µs&#10; OutputWriting 1 ms 82 µs.">
<polygon fill="none" stroke="white" stroke-width="5.61" points="734,-1256 449,-1256 449,-1187 734,-1187 734,-1256"/>
<text text-anchor="middle" x="591.5" y="-1240.8" font-family="Times,serif" font-size="14.00" fill="white">JoinSimdSortMerge (Semi Reduction)</text>
<text text-anchor="middle" x="591.5" y="-1225.8" font-family="Times,serif" font-size="14.00" fill="white">ps_partkey = p_partkey</text>
<text text-anchor="middle" x="591.5" y="-1194.8" font-family="Times,serif" font-size="14.00" fill="white">39 ms 841 µs</text>
</a>
</g>
</g>
<!-- 140067006088016&#45;&gt;140067006090896 -->
<g id="edge8" class="edge">
<title>140067006088016&#45;&gt;140067006090896</title>
<path fill="none" stroke="white" d="M555.5,-1256.18C550.19,-1261.89 545,-1267.94 540.5,-1274 534.98,-1281.43 529.78,-1289.82 525.13,-1298.06"/>
<polygon fill="white" stroke="white" points="525.09,-1298.12 522.02,-1296.45 520.31,-1306.9 525.09,-1298.12"/>
<text text-anchor="middle" x="643" y="-1277.8" font-family="Times,serif" font-size="14.00" fill="white">320,360 row(s)/256 chunk(s)</text>
</g>
<!-- 140067006092176 -->
<g id="node27" class="node">
<title>140067006092176</title>
<g id="a_node27"><a xlink:title="Output: 64050 rows in 104 chunks, 21 ms 489 µs.&#10;Operator step runtimes:&#10; LeftSideMaterialize 12 ms 151 µs&#10; RightSideMaterialize 884 µs 377 ns&#10; LeftSideTransform 0 ns&#10; RightSideTransform 0 ns&#10; LeftSidePartition 2 ms 829 µs&#10; RightSidePartition 2 ms 101 µs&#10; LeftSideSortBuckets 590 µs 533 ns&#10; RightSideSortBuckets 1 ms 2 µs&#10; GatherRowIds 1 µs 557 ns&#10; FindJoinPartner 623 µs 316 ns&#10; OutputWriting 1 ms 98 µs.">
<polygon fill="none" stroke="white" stroke-width="4.08" points="874,-1376 665,-1376 665,-1307 874,-1307 874,-1376"/>
<text text-anchor="middle" x="769.5" y="-1360.8" font-family="Times,serif" font-size="14.00" fill="white">JoinSimdSortMerge (Semi)</text>
<text text-anchor="middle" x="769.5" y="-1345.8" font-family="Times,serif" font-size="14.00" fill="white">ps_suppkey = s_suppkey</text>
<text text-anchor="middle" x="769.5" y="-1314.8" font-family="Times,serif" font-size="14.00" fill="white">21 ms 489 µs</text>
</a>
</g>
</g>
<!-- 140067006088016&#45;&gt;140067006092176 -->
<g id="edge9" class="edge">
<title>140067006088016&#45;&gt;140067006092176</title>
<path fill="none" stroke="white" d="M722.24,-1256.18C730.66,-1261.31 738.54,-1267.2 745.5,-1274 752.01,-1280.36 756.76,-1288.6 760.22,-1297.12"/>
<polygon fill="white" stroke="white" points="760.3,-1297.32 757,-1298.48 763.62,-1306.75 760.3,-1297.32"/>
<text text-anchor="middle" x="858" y="-1277.8" font-family="Times,serif" font-size="14.00" fill="white">320,360 row(s)/256 chunk(s)</text>
</g>
<!-- 140066987452048 -->
<g id="node10" class="node">
<title>140066987452048</title>
<g id="a_node10"><a xlink:title="Output: 80000000 rows in 1221 chunks, 3 ms 781 µs.">
<polygon fill="none" stroke="white" points="657,-1097 526,-1097 526,-983 657,-983 657,-1097"/>
<text text-anchor="middle" x="591.5" y="-1081.8" font-family="Times,serif" font-size="14.00" fill="white">GetTable</text>
<text text-anchor="middle" x="591.5" y="-1066.8" font-family="Times,serif" font-size="14.00" fill="white">(partsupp)</text>
<text text-anchor="middle" x="591.5" y="-1051.8" font-family="Times,serif" font-size="14.00" fill="white">pruned:</text>
<text text-anchor="middle" x="591.5" y="-1036.8" font-family="Times,serif" font-size="14.00" fill="white">0/1221 chunk(s)</text>
<text text-anchor="middle" x="591.5" y="-1021.8" font-family="Times,serif" font-size="14.00" fill="white">2/5 column(s)</text>
<text text-anchor="middle" x="591.5" y="-990.8" font-family="Times,serif" font-size="14.00" fill="white">3 ms 781 µs</text>
</a>
</g>
</g>
<!-- 140066987452048&#45;&gt;140067006088016 -->
<g id="edge10" class="edge">
<title>140066987452048&#45;&gt;140067006088016</title>
<path fill="none" stroke="white" stroke-width="8" d="M591.5,-1097.3C591.5,-1122.92 591.5,-1152.77 591.5,-1176.68"/>
<polygon fill="white" stroke="white" stroke-width="8" points="591.5,-1176.87 584.5,-1176.87 591.5,-1186.87 591.5,-1176.87"/>
<text text-anchor="middle" x="712" y="-1138.3" font-family="Times,serif" font-size="14.00" fill="white">80,000,000 row(s)/1,221 chunk(s)</text>
</g>
<!-- 140068177309456 -->
<g id="node11" class="node">
<title>140068177309456</title>
<g id="a_node11"><a xlink:title="Output: 80090 rows in 306 chunks, 652 µs 561 ns.">
<polygon fill="none" stroke="white" points="148,-1067 31,-1067 31,-1013 148,-1013 148,-1067"/>
<text text-anchor="middle" x="89.5" y="-1051.8" font-family="Times,serif" font-size="14.00" fill="white">Validate</text>
<text text-anchor="middle" x="89.5" y="-1020.8" font-family="Times,serif" font-size="14.00" fill="white">652 µs 561 ns</text>
</a>
</g>
</g>
<!-- 140068177309456&#45;&gt;140067006091536 -->
<g id="edge12" class="edge">
<title>140068177309456&#45;&gt;140067006091536</title>
<path fill="none" stroke="white" d="M86.66,-1067.12C83.11,-1102.03 77.5,-1165.84 77.5,-1220.5 77.5,-1220.5 77.5,-1220.5 77.5,-1567.5 77.5,-1641.58 148.51,-1689.65 215.28,-1718.48"/>
<polygon fill="white" stroke="white" points="224.67,-1722.42 216.81,-1715.32 215.45,-1718.55 224.67,-1722.42"/>
<text text-anchor="middle" x="175.5" y="-1397.8" font-family="Times,serif" font-size="14.00" fill="white">80,090 row(s)/306 chunk(s)</text>
</g>
<!-- 140068177309456&#45;&gt;140067006088016 -->
<g id="edge11" class="edge">
<title>140068177309456&#45;&gt;140067006088016</title>
<path fill="none" stroke="white" d="M95.07,-1067.03C103.03,-1097.24 120.84,-1145.85 156.5,-1169 181.26,-1185.08 380.04,-1182.96 438.67,-1187.24"/>
<polygon fill="white" stroke="white" points="448.94,-1188.26 439.34,-1183.79 438.99,-1187.27 448.94,-1188.26"/>
<text text-anchor="middle" x="254.5" y="-1138.3" font-family="Times,serif" font-size="14.00" fill="white">80,090 row(s)/306 chunk(s)</text>
</g>
<!-- 140067006087696 -->
<g id="node12" class="node">
<title>140067006087696</title>
<g id="a_node12"><a xlink:title="Output: 80090 rows in 306 chunks, 1 ms 20 µs.&#10;Chunks: 0 skipped with no results, &#10;0 skipped with all matching, 0 scanned using binary search.">
<polygon fill="none" stroke="white" points="179,-932 0,-932 0,-848 179,-848 179,-932"/>
<text text-anchor="middle" x="89.5" y="-916.8" font-family="Times,serif" font-size="14.00" fill="white">TableScan</text>
<text text-anchor="middle" x="89.5" y="-901.8" font-family="Times,serif" font-size="14.00" fill="white">Impl: ColumnLike</text>
<text text-anchor="middle" x="89.5" y="-886.8" font-family="Times,serif" font-size="14.00" fill="white">p_type LIKE &#39;%BRASS&#39;</text>
<text text-anchor="middle" x="89.5" y="-855.8" font-family="Times,serif" font-size="14.00" fill="white">1 ms 20 µs</text>
</a>
</g>
</g>
<!-- 140067006087696&#45;&gt;140068177309456 -->
<g id="edge13" class="edge">
<title>140067006087696&#45;&gt;140068177309456</title>
<path fill="none" stroke="white" d="M89.5,-932.23C89.5,-954.32 89.5,-981.31 89.5,-1002.62"/>
<polygon fill="white" stroke="white" points="86,-1002.88 89.5,-1012.88 93,-1002.88 86,-1002.88"/>
<text text-anchor="middle" x="187.5" y="-953.8" font-family="Times,serif" font-size="14.00" fill="white">80,090 row(s)/306 chunk(s)</text>
</g>
<!-- 140067006087376 -->
<g id="node13" class="node">
<title>140067006087376</title>
<g id="a_node13"><a xlink:title="Output: 399972 rows in 306 chunks, 1 ms 645 µs.&#10;Chunks: 0 skipped with no results, &#10;0 skipped with all matching, 0 scanned using binary search.">
<polygon fill="none" stroke="white" points="174,-782 5,-782 5,-698 174,-698 174,-782"/>
<text text-anchor="middle" x="89.5" y="-766.8" font-family="Times,serif" font-size="14.00" fill="white">TableScan</text>
<text text-anchor="middle" x="89.5" y="-751.8" font-family="Times,serif" font-size="14.00" fill="white">Impl: ColumnVsValue</text>
<text text-anchor="middle" x="89.5" y="-736.8" font-family="Times,serif" font-size="14.00" fill="white">p_size = 36</text>
<text text-anchor="middle" x="89.5" y="-705.8" font-family="Times,serif" font-size="14.00" fill="white">1 ms 645 µs</text>
</a>
</g>
</g>
<!-- 140067006087376&#45;&gt;140067006087696 -->
<g id="edge14" class="edge">
<title>140067006087376&#45;&gt;140067006087696</title>
<path fill="none" stroke="white" d="M89.5,-782.23C89.5,-799.47 89.5,-819.68 89.5,-837.85"/>
<polygon fill="white" stroke="white" points="86,-837.99 89.5,-847.99 93,-837.99 86,-837.99"/>
<text text-anchor="middle" x="192" y="-818.8" font-family="Times,serif" font-size="14.00" fill="white">399,972 row(s)/306 chunk(s)</text>
</g>
<!-- 140066987452496 -->
<g id="node14" class="node">
<title>140066987452496</title>
<g id="a_node14"><a xlink:title="Output: 20000000 rows in 306 chunks, 881 µs 717 ns.">
<polygon fill="none" stroke="white" points="150.5,-632 28.5,-632 28.5,-518 150.5,-518 150.5,-632"/>
<text text-anchor="middle" x="89.5" y="-616.8" font-family="Times,serif" font-size="14.00" fill="white">GetTable</text>
<text text-anchor="middle" x="89.5" y="-601.8" font-family="Times,serif" font-size="14.00" fill="white">(part)</text>
<text text-anchor="middle" x="89.5" y="-586.8" font-family="Times,serif" font-size="14.00" fill="white">pruned:</text>
<text text-anchor="middle" x="89.5" y="-571.8" font-family="Times,serif" font-size="14.00" fill="white">0/306 chunk(s)</text>
<text text-anchor="middle" x="89.5" y="-556.8" font-family="Times,serif" font-size="14.00" fill="white">5/9 column(s)</text>
<text text-anchor="middle" x="89.5" y="-525.8" font-family="Times,serif" font-size="14.00" fill="white">881 µs 717 ns</text>
</a>
</g>
</g>
<!-- 140066987452496&#45;&gt;140067006087376 -->
<g id="edge15" class="edge">
<title>140066987452496&#45;&gt;140067006087376</title>
<path fill="none" stroke="white" stroke-width="4.58" d="M89.5,-632.1C89.5,-650.19 89.5,-670.13 89.5,-687.85"/>
<polygon fill="white" stroke="white" stroke-width="4.58" points="85.49,-687.99 89.5,-697.99 93.51,-687.99 85.49,-687.99"/>
<text text-anchor="middle" x="203.5" y="-653.8" font-family="Times,serif" font-size="14.00" fill="white">20,000,000 row(s)/306 chunk(s)</text>
</g>
<!-- 140067006090576 -->
<g id="node15" class="node">
<title>140067006090576</title>
<g id="a_node15"><a xlink:title="Output: 199889 rows in 5 chunks, 6 ms 234 µs.&#10;Operator step runtimes:&#10; LeftSideMaterialize 477 µs 197 ns&#10; RightSideMaterialize 15 µs 170 ns&#10; LeftSideTransform 0 ns&#10; RightSideTransform 0 ns&#10; LeftSidePartition 1 ms 700 µs&#10; RightSidePartition 18 µs 577 ns&#10; LeftSideSortBuckets 736 µs 121 ns&#10; RightSideSortBuckets 685 µs 312 ns&#10; GatherRowIds 508 ns&#10; FindJoinPartner 1 ms 995 µs&#10; OutputWriting 492 µs 4 ns.">
<polygon fill="none" stroke="white" stroke-width="1.03" points="431,-1256 220,-1256 220,-1187 431,-1187 431,-1256"/>
<text text-anchor="middle" x="325.5" y="-1240.8" font-family="Times,serif" font-size="14.00" fill="white">JoinSimdSortMerge (Inner)</text>
<text text-anchor="middle" x="325.5" y="-1225.8" font-family="Times,serif" font-size="14.00" fill="white">s_nationkey = n_nationkey</text>
<text text-anchor="middle" x="325.5" y="-1194.8" font-family="Times,serif" font-size="14.00" fill="white">6 ms 234 µs</text>
</a>
</g>
</g>
<!-- 140067006090576&#45;&gt;140067006091216 -->
<g id="edge17" class="edge">
<title>140067006090576&#45;&gt;140067006091216</title>
<path fill="none" stroke="white" d="M317.75,-1256.13C310.08,-1293.43 300.08,-1355.42 304.5,-1409 307.66,-1447.35 315.12,-1490.45 321.24,-1521.7"/>
<polygon fill="white" stroke="white" points="323.25,-1531.81 324.73,-1521.32 321.3,-1522.01 323.25,-1531.81"/>
<text text-anchor="middle" x="398" y="-1397.8" font-family="Times,serif" font-size="14.00" fill="white">199,889 row(s)/5 chunk(s)</text>
</g>
<!-- 140067006090576&#45;&gt;140067006090896 -->
<g id="edge16" class="edge">
<title>140067006090576&#45;&gt;140067006090896</title>
<path fill="none" stroke="white" d="M325.81,-1256.07C327.54,-1267.73 331.4,-1280.1 339.5,-1289 343.81,-1293.74 348.54,-1298.04 353.6,-1301.95"/>
<polygon fill="white" stroke="white" points="361.81,-1307.78 355.68,-1299.14 353.65,-1301.99 361.81,-1307.78"/>
<text text-anchor="middle" x="433" y="-1277.8" font-family="Times,serif" font-size="14.00" fill="white">199,889 row(s)/5 chunk(s)</text>
</g>
<!-- 140068177310736 -->
<g id="node16" class="node">
<title>140068177310736</title>
<g id="a_node16"><a xlink:title="Output: 199889 rows in 5 chunks, 246 µs 455 ns.">
<polygon fill="none" stroke="white" points="490,-1067 373,-1067 373,-1013 490,-1013 490,-1067"/>
<text text-anchor="middle" x="431.5" y="-1051.8" font-family="Times,serif" font-size="14.00" fill="white">Validate</text>
<text text-anchor="middle" x="431.5" y="-1020.8" font-family="Times,serif" font-size="14.00" fill="white">246 µs 455 ns</text>
</a>
</g>
</g>
<!-- 140068177310736&#45;&gt;140067006090576 -->
<g id="edge18" class="edge">
<title>140068177310736&#45;&gt;140067006090576</title>
<path fill="none" stroke="white" d="M416.09,-1067.1C398.96,-1096.11 371.03,-1143.4 350.71,-1177.81"/>
<polygon fill="white" stroke="white" points="350.54,-1178.09 347.53,-1176.31 345.46,-1186.71 350.54,-1178.09"/>
<text text-anchor="middle" x="478" y="-1138.3" font-family="Times,serif" font-size="14.00" fill="white">199,889 row(s)/5 chunk(s)</text>
</g>
<!-- 140067006090256 -->
<g id="node17" class="node">
<title>140067006090256</title>
<g id="a_node17"><a xlink:title="Output: 199889 rows in 5 chunks, 5 ms 240 µs.&#10;Operator step runtimes:&#10; LeftSideMaterialize 623 µs 967 ns&#10; RightSideMaterialize 27 µs 468 ns&#10; LeftSideTransform 0 ns&#10; RightSideTransform 0 ns&#10; LeftSidePartition 2 ms 29 µs&#10; RightSidePartition 36 µs 675 ns&#10; LeftSideSortBuckets 840 µs 94 ns&#10; RightSideSortBuckets 596 µs 657 ns&#10; GatherRowIds 437 ns&#10; FindJoinPartner 863 µs 689 ns&#10; OutputWriting 72 µs 221 ns.">
<polygon fill="none" stroke="white" points="639,-924.5 354,-924.5 354,-855.5 639,-855.5 639,-924.5"/>
<text text-anchor="middle" x="496.5" y="-909.3" font-family="Times,serif" font-size="14.00" fill="white">JoinSimdSortMerge (Semi Reduction)</text>
<text text-anchor="middle" x="496.5" y="-894.3" font-family="Times,serif" font-size="14.00" fill="white">s_nationkey = n_nationkey</text>
<text text-anchor="middle" x="496.5" y="-863.3" font-family="Times,serif" font-size="14.00" fill="white">5 ms 240 µs</text>
</a>
</g>
</g>
<!-- 140067006090256&#45;&gt;140068177310736 -->
<g id="edge19" class="edge">
<title>140067006090256&#45;&gt;140068177310736</title>
<path fill="none" stroke="white" d="M483.92,-924.75C479.02,-937.46 473.21,-951.98 467.5,-965 461.88,-977.83 455.28,-991.68 449.29,-1003.89"/>
<polygon fill="white" stroke="white" points="446.14,-1002.35 444.84,-1012.87 452.42,-1005.46 446.14,-1002.35"/>
<text text-anchor="middle" x="566" y="-953.8" font-family="Times,serif" font-size="14.00" fill="white">199,889 row(s)/5 chunk(s)</text>
</g>
<!-- 140066987452944 -->
<g id="node18" class="node">
<title>140066987452944</title>
<g id="a_node18"><a xlink:title="Output: 1000000 rows in 16 chunks, 31 µs 687 ns.">
<polygon fill="none" stroke="white" points="791,-797 678,-797 678,-683 791,-683 791,-797"/>
<text text-anchor="middle" x="734.5" y="-781.8" font-family="Times,serif" font-size="14.00" fill="white">GetTable</text>
<text text-anchor="middle" x="734.5" y="-766.8" font-family="Times,serif" font-size="14.00" fill="white">(supplier)</text>
<text text-anchor="middle" x="734.5" y="-751.8" font-family="Times,serif" font-size="14.00" fill="white">pruned:</text>
<text text-anchor="middle" x="734.5" y="-736.8" font-family="Times,serif" font-size="14.00" fill="white">0/16 chunk(s)</text>
<text text-anchor="middle" x="734.5" y="-721.8" font-family="Times,serif" font-size="14.00" fill="white">0/7 column(s)</text>
<text text-anchor="middle" x="734.5" y="-690.8" font-family="Times,serif" font-size="14.00" fill="white">31 µs 687 ns</text>
</a>
</g>
</g>
<!-- 140066987452944&#45;&gt;140067006090256 -->
<g id="edge20" class="edge">
<title>140066987452944&#45;&gt;140067006090256</title>
<path fill="none" stroke="white" d="M677.63,-751.55C635.34,-761.79 578.3,-780.95 538.5,-815 528.58,-823.49 520.5,-834.93 514.18,-846.28"/>
<polygon fill="white" stroke="white" points="514.1,-846.44 511,-844.82 509.48,-855.31 514.1,-846.44"/>
<text text-anchor="middle" x="643.5" y="-818.8" font-family="Times,serif" font-size="14.00" fill="white">1,000,000 row(s)/16 chunk(s)</text>
</g>
<!-- 140067006091856 -->
<g id="node29" class="node">
<title>140067006091856</title>
<g id="a_node29"><a xlink:title="Output: 199889 rows in 5 chunks, 5 ms 262 µs.&#10;Operator step runtimes:&#10; LeftSideMaterialize 803 µs 693 ns&#10; RightSideMaterialize 16 µs 711 ns&#10; LeftSideTransform 0 ns&#10; RightSideTransform 0 ns&#10; LeftSidePartition 2 ms 64 µs&#10; RightSidePartition 34 µs 387 ns&#10; LeftSideSortBuckets 639 µs 375 ns&#10; RightSideSortBuckets 720 µs 590 ns&#10; GatherRowIds 746 ns&#10; FindJoinPartner 778 µs 59 ns&#10; OutputWriting 80 µs 439 ns.">
<polygon fill="none" stroke="white" points="1036,-924.5 827,-924.5 827,-855.5 1036,-855.5 1036,-924.5"/>
<text text-anchor="middle" x="931.5" y="-909.3" font-family="Times,serif" font-size="14.00" fill="white">JoinSimdSortMerge (Semi)</text>
<text text-anchor="middle" x="931.5" y="-894.3" font-family="Times,serif" font-size="14.00" fill="white">s_nationkey = n_nationkey</text>
<text text-anchor="middle" x="931.5" y="-863.3" font-family="Times,serif" font-size="14.00" fill="white">5 ms 262 µs</text>
</a>
</g>
</g>
<!-- 140066987452944&#45;&gt;140067006091856 -->
<g id="edge21" class="edge">
<title>140066987452944&#45;&gt;140067006091856</title>
<path fill="none" stroke="white" d="M791.18,-751.72C829.61,-761.81 878.82,-780.71 909.5,-815 917.09,-823.49 922.07,-834.5 925.33,-845.42"/>
<polygon fill="white" stroke="white" points="925.39,-845.65 922,-846.52 927.87,-855.34 925.39,-845.65"/>
<text text-anchor="middle" x="1023.5" y="-818.8" font-family="Times,serif" font-size="14.00" fill="white">1,000,000 row(s)/16 chunk(s)</text>
</g>
<!-- 140204831998736 -->
<g id="node19" class="node">
<title>140204831998736</title>
<g id="a_node19"><a xlink:title="Output: 5 rows in 1 chunk, 4 µs 746 ns.">
<polygon fill="none" stroke="white" points="426,-767 327,-767 327,-713 426,-713 426,-767"/>
<text text-anchor="middle" x="376.5" y="-751.8" font-family="Times,serif" font-size="14.00" fill="white">Validate</text>
<text text-anchor="middle" x="376.5" y="-720.8" font-family="Times,serif" font-size="14.00" fill="white">4 µs 746 ns</text>
</a>
</g>
</g>
<!-- 140204831998736&#45;&gt;140067006090576 -->
<g id="edge23" class="edge">
<title>140204831998736&#45;&gt;140067006090576</title>
<path fill="none" stroke="white" d="M368.2,-767.21C361.55,-788.77 352.24,-820.18 345.5,-848 334.62,-892.9 329.97,-904.02 325.5,-950 317.78,-1029.53 320.32,-1122.84 322.89,-1176.48"/>
<polygon fill="white" stroke="white" points="323.41,-1186.66 326.4,-1176.5 322.9,-1176.67 323.41,-1186.66"/>
<text text-anchor="middle" x="394.5" y="-953.8" font-family="Times,serif" font-size="14.00" fill="white">5 row(s)/1 chunk(s)</text>
</g>
<!-- 140204831998736&#45;&gt;140067006090256 -->
<g id="edge22" class="edge">
<title>140204831998736&#45;&gt;140067006090256</title>
<path fill="none" stroke="white" d="M369.97,-767.17C366.8,-786.07 365.83,-811.42 377.5,-830 382.04,-837.23 387.76,-843.6 394.21,-849.21"/>
<polygon fill="white" stroke="white" points="402.1,-855.45 396.43,-846.5 394.26,-849.25 402.1,-855.45"/>
<text text-anchor="middle" x="446.5" y="-818.8" font-family="Times,serif" font-size="14.00" fill="white">5 row(s)/1 chunk(s)</text>
</g>
<!-- 140204831998736&#45;&gt;140067006091856 -->
<g id="edge24" class="edge">
<title>140204831998736&#45;&gt;140067006091856</title>
<path fill="none" stroke="white" d="M426.19,-750.25C524.11,-768.56 733.87,-808.25 748.5,-815 758.27,-819.51 758.09,-824.78 767.5,-830 783.12,-838.67 800.27,-846.49 817.4,-853.37"/>
<polygon fill="white" stroke="white" points="826.91,-857.1 818.88,-850.19 817.6,-853.45 826.91,-857.1"/>
<text text-anchor="middle" x="836.5" y="-818.8" font-family="Times,serif" font-size="14.00" fill="white">5 row(s)/1 chunk(s)</text>
</g>
<!-- 140067006089296 -->
<g id="node20" class="node">
<title>140067006089296</title>
<g id="a_node20"><a xlink:title="Output: 5 rows in 1 chunk, 1 ms 907 µs.&#10;Operator step runtimes:&#10; LeftSideMaterialize 14 µs 190 ns&#10; RightSideMaterialize 31 µs 210 ns&#10; LeftSideTransform 0 ns&#10; RightSideTransform 0 ns&#10; LeftSidePartition 21 µs 374 ns&#10; RightSidePartition 10 µs 557 ns&#10; LeftSideSortBuckets 762 µs 134 ns&#10; RightSideSortBuckets 920 µs 441 ns&#10; GatherRowIds 2 µs 154 ns&#10; FindJoinPartner 15 µs 229 ns&#10; OutputWriting 20 µs 961 ns.">
<polygon fill="none" stroke="white" points="481,-609.5 272,-609.5 272,-540.5 481,-540.5 481,-609.5"/>
<text text-anchor="middle" x="376.5" y="-594.3" font-family="Times,serif" font-size="14.00" fill="white">JoinSimdSortMerge (Semi)</text>
<text text-anchor="middle" x="376.5" y="-579.3" font-family="Times,serif" font-size="14.00" fill="white">n_regionkey = r_regionkey</text>
<text text-anchor="middle" x="376.5" y="-548.3" font-family="Times,serif" font-size="14.00" fill="white">1 ms 907 µs</text>
</a>
</g>
</g>
<!-- 140067006089296&#45;&gt;140204831998736 -->
<g id="edge25" class="edge">
<title>140067006089296&#45;&gt;140204831998736</title>
<path fill="none" stroke="white" d="M376.5,-609.77C376.5,-636.89 376.5,-674.9 376.5,-702.68"/>
<polygon fill="white" stroke="white" points="373,-702.78 376.5,-712.78 380,-702.78 373,-702.78"/>
<text text-anchor="middle" x="445.5" y="-653.8" font-family="Times,serif" font-size="14.00" fill="white">5 row(s)/1 chunk(s)</text>
</g>
<!-- 140066987451600 -->
<g id="node21" class="node">
<title>140066987451600</title>
<g id="a_node21"><a xlink:title="Output: 25 rows in 1 chunk, 30 µs 440 ns.">
<polygon fill="none" stroke="white" points="348,-467 235,-467 235,-353 348,-353 348,-467"/>
<text text-anchor="middle" x="291.5" y="-451.8" font-family="Times,serif" font-size="14.00" fill="white">GetTable</text>
<text text-anchor="middle" x="291.5" y="-436.8" font-family="Times,serif" font-size="14.00" fill="white">(nation)</text>
<text text-anchor="middle" x="291.5" y="-421.8" font-family="Times,serif" font-size="14.00" fill="white">pruned:</text>
<text text-anchor="middle" x="291.5" y="-406.8" font-family="Times,serif" font-size="14.00" fill="white">0/1 chunk(s)</text>
<text text-anchor="middle" x="291.5" y="-391.8" font-family="Times,serif" font-size="14.00" fill="white">1/4 column(s)</text>
<text text-anchor="middle" x="291.5" y="-360.8" font-family="Times,serif" font-size="14.00" fill="white">30 µs 440 ns</text>
</a>
</g>
</g>
<!-- 140066987451600&#45;&gt;140067006089296 -->
<g id="edge26" class="edge">
<title>140066987451600&#45;&gt;140067006089296</title>
<path fill="none" stroke="white" d="M285.12,-467.17C285.75,-478.42 287.86,-489.89 292.5,-500 298.24,-512.51 307.23,-523.76 317.23,-533.49"/>
<polygon fill="white" stroke="white" points="317.29,-533.55 314.93,-536.13 324.66,-540.31 317.29,-533.55"/>
<text text-anchor="middle" x="366" y="-488.8" font-family="Times,serif" font-size="14.00" fill="white">25 row(s)/1 chunk(s)</text>
</g>
<!-- 140204831999248 -->
<g id="node22" class="node">
<title>140204831999248</title>
<g id="a_node22"><a xlink:title="Output: 1 row in 1 chunk, 11 µs 131 ns.">
<polygon fill="none" stroke="white" points="515.5,-437 407.5,-437 407.5,-383 515.5,-383 515.5,-437"/>
<text text-anchor="middle" x="461.5" y="-421.8" font-family="Times,serif" font-size="14.00" fill="white">Validate</text>
<text text-anchor="middle" x="461.5" y="-390.8" font-family="Times,serif" font-size="14.00" fill="white">11 µs 131 ns</text>
</a>
</g>
</g>
<!-- 140204831999248&#45;&gt;140067006089296 -->
<g id="edge27" class="edge">
<title>140204831999248&#45;&gt;140067006089296</title>
<path fill="none" stroke="white" d="M458.31,-437.05C455.29,-455.41 449.67,-480.17 439.5,-500 433.67,-511.37 425.77,-522.49 417.54,-532.52"/>
<polygon fill="white" stroke="white" points="410.91,-540.3 420.06,-534.96 417.39,-532.69 410.91,-540.3"/>
<text text-anchor="middle" x="514.5" y="-488.8" font-family="Times,serif" font-size="14.00" fill="white">1 row(s)/1 chunk(s)</text>
</g>
<!-- 140067006088336 -->
<g id="node23" class="node">
<title>140067006088336</title>
<g id="a_node23"><a xlink:title="Output: 1 row in 1 chunk, 42 µs 250 ns.&#10;Chunks: 0 skipped with no results, &#10;0 skipped with all matching, 0 scanned using binary search.">
<polygon fill="none" stroke="white" points="546,-302 377,-302 377,-218 546,-218 546,-302"/>
<text text-anchor="middle" x="461.5" y="-286.8" font-family="Times,serif" font-size="14.00" fill="white">TableScan</text>
<text text-anchor="middle" x="461.5" y="-271.8" font-family="Times,serif" font-size="14.00" fill="white">Impl: ColumnVsValue</text>
<text text-anchor="middle" x="461.5" y="-256.8" font-family="Times,serif" font-size="14.00" fill="white">r_name = &#39;ASIA&#39;</text>
<text text-anchor="middle" x="461.5" y="-225.8" font-family="Times,serif" font-size="14.00" fill="white">42 µs 250 ns</text>
</a>
</g>
</g>
<!-- 140067006088336&#45;&gt;140204831999248 -->
<g id="edge28" class="edge">
<title>140067006088336&#45;&gt;140204831999248</title>
<path fill="none" stroke="white" d="M461.5,-302.23C461.5,-324.32 461.5,-351.31 461.5,-372.62"/>
<polygon fill="white" stroke="white" points="458,-372.88 461.5,-382.88 465,-372.88 458,-372.88"/>
<text text-anchor="middle" x="530.5" y="-323.8" font-family="Times,serif" font-size="14.00" fill="white">1 row(s)/1 chunk(s)</text>
</g>
<!-- 140066987453392 -->
<g id="node24" class="node">
<title>140066987453392</title>
<g id="a_node24"><a xlink:title="Output: 5 rows in 1 chunk, 30 µs 658 ns.">
<polygon fill="none" stroke="white" points="518,-140.5 405,-140.5 405,-26.5 518,-26.5 518,-140.5"/>
<text text-anchor="middle" x="461.5" y="-125.3" font-family="Times,serif" font-size="14.00" fill="white">GetTable</text>
<text text-anchor="middle" x="461.5" y="-110.3" font-family="Times,serif" font-size="14.00" fill="white">(region)</text>
<text text-anchor="middle" x="461.5" y="-95.3" font-family="Times,serif" font-size="14.00" fill="white">pruned:</text>
<text text-anchor="middle" x="461.5" y="-80.3" font-family="Times,serif" font-size="14.00" fill="white">0/1 chunk(s)</text>
<text text-anchor="middle" x="461.5" y="-65.3" font-family="Times,serif" font-size="14.00" fill="white">1/3 column(s)</text>
<text text-anchor="middle" x="461.5" y="-34.3" font-family="Times,serif" font-size="14.00" fill="white">30 µs 658 ns</text>
</a>
</g>
</g>
<!-- 140066987453392&#45;&gt;140067006088336 -->
<g id="edge29" class="edge">
<title>140066987453392&#45;&gt;140067006088336</title>
<path fill="none" stroke="white" d="M461.5,-140.67C461.5,-162.25 461.5,-186.74 461.5,-207.83"/>
<polygon fill="white" stroke="white" points="458,-207.87 461.5,-217.87 465,-207.87 458,-207.87"/>
<text text-anchor="middle" x="530.5" y="-188.8" font-family="Times,serif" font-size="14.00" fill="white">5 row(s)/1 chunk(s)</text>
</g>
<!-- 140204831033872 -->
<g id="node25" class="node">
<title>140204831033872</title>
<g id="a_node25"><a xlink:title="Output: 47337 rows in 1 chunk, 76 ms 741 µs.&#10;Operator step runtimes:&#10; GroupByKeyPartitioning 37 ms 564 µs&#10; Aggregating 38 ms 374 µs&#10; GroupByColumnsWriting 427 µs 674 ns&#10; AggregateColumnsWriting 342 µs 357 ns&#10; OutputWriting 12 µs 159 ns.">
<polygon fill="none" stroke="white" stroke-width="7.22" points="724.5,-1703 544.5,-1703 544.5,-1619 724.5,-1619 724.5,-1703"/>
<text text-anchor="middle" x="634.5" y="-1687.8" font-family="Times,serif" font-size="14.00" fill="white">AggregateHash</text>
<text text-anchor="middle" x="634.5" y="-1672.8" font-family="Times,serif" font-size="14.00" fill="white">GroupBy {ps_partkey}</text>
<text text-anchor="middle" x="634.5" y="-1657.8" font-family="Times,serif" font-size="14.00" fill="white">MIN(ps_supplycost)</text>
<text text-anchor="middle" x="634.5" y="-1626.8" font-family="Times,serif" font-size="14.00" fill="white">76 ms 741 µs</text>
</a>
</g>
</g>
<!-- 140204831033872&#45;&gt;140067006092496 -->
<g id="edge30" class="edge">
<title>140204831033872&#45;&gt;140067006092496</title>
<path fill="none" stroke="white" d="M631.4,-1703.15C626.82,-1738.39 615.5,-1788.72 587.5,-1823 584.2,-1827.04 580.54,-1830.85 576.63,-1834.42"/>
<polygon fill="white" stroke="white" points="568.8,-1841 578.71,-1837.24 576.46,-1834.56 568.8,-1841"/>
<text text-anchor="middle" x="716.5" y="-1751.8" font-family="Times,serif" font-size="14.00" fill="white">47,337 row(s)/1 chunk(s)</text>
</g>
<!-- 140204831999504 -->
<g id="node26" class="node">
<title>140204831999504</title>
<g id="a_node26"><a xlink:title="Output: 64050 rows in 104 chunks, 828 µs 962 ns.">
<polygon fill="none" stroke="white" points="737,-1481 620,-1481 620,-1427 737,-1427 737,-1481"/>
<text text-anchor="middle" x="678.5" y="-1465.8" font-family="Times,serif" font-size="14.00" fill="white">Validate</text>
<text text-anchor="middle" x="678.5" y="-1434.8" font-family="Times,serif" font-size="14.00" fill="white">828 µs 962 ns</text>
</a>
</g>
</g>
<!-- 140204831999504&#45;&gt;140204831033872 -->
<g id="edge31" class="edge">
<title>140204831999504&#45;&gt;140204831033872</title>
<path fill="none" stroke="white" d="M672.84,-1481.38C665.95,-1513.48 654.16,-1568.4 645.47,-1608.89"/>
<polygon fill="white" stroke="white" points="642.01,-1608.34 643.33,-1618.85 648.85,-1609.81 642.01,-1608.34"/>
<text text-anchor="middle" x="766.5" y="-1502.8" font-family="Times,serif" font-size="14.00" fill="white">64,050 row(s)/104 chunk(s)</text>
</g>
<!-- 140067006092176&#45;&gt;140204831999504 -->
<g id="edge32" class="edge">
<title>140067006092176&#45;&gt;140204831999504</title>
<path fill="none" stroke="white" d="M741.7,-1376.25C730.52,-1389.84 717.64,-1405.47 706.44,-1419.07"/>
<polygon fill="white" stroke="white" points="703.72,-1416.87 700.07,-1426.81 709.12,-1421.32 703.72,-1416.87"/>
<text text-anchor="middle" x="824.5" y="-1397.8" font-family="Times,serif" font-size="14.00" fill="white">64,050 row(s)/104 chunk(s)</text>
</g>
<!-- 140204831998480 -->
<g id="node28" class="node">
<title>140204831998480</title>
<g id="a_node28"><a xlink:title="Output: 199889 rows in 5 chunks, 241 µs 691 ns.">
<polygon fill="none" stroke="white" points="1037,-1169 920,-1169 920,-1115 1037,-1115 1037,-1169"/>
<text text-anchor="middle" x="978.5" y="-1153.8" font-family="Times,serif" font-size="14.00" fill="white">Validate</text>
<text text-anchor="middle" x="978.5" y="-1122.8" font-family="Times,serif" font-size="14.00" fill="white">241 µs 691 ns</text>
</a>
</g>
</g>
<!-- 140204831998480&#45;&gt;140067006092176 -->
<g id="edge33" class="edge">
<title>140204831998480&#45;&gt;140067006092176</title>
<path fill="none" stroke="white" d="M984.12,-1169.06C989.43,-1201.19 992.85,-1255.62 964.5,-1289 953,-1302.54 919.99,-1313.44 884.32,-1321.66"/>
<polygon fill="white" stroke="white" points="874.2,-1323.91 884.72,-1325.15 883.96,-1321.74 874.2,-1323.91"/>
<text text-anchor="middle" x="1081" y="-1217.8" font-family="Times,serif" font-size="14.00" fill="white">199,889 row(s)/5 chunk(s)</text>
</g>
<!-- 140067006091856&#45;&gt;140204831998480 -->
<g id="edge34" class="edge">
<title>140067006091856&#45;&gt;140204831998480</title>
<path fill="none" stroke="white" d="M937.84,-924.72C946.66,-971.65 962.58,-1056.34 971.67,-1104.65"/>
<polygon fill="white" stroke="white" points="968.26,-1105.48 973.55,-1114.66 975.14,-1104.19 968.26,-1105.48"/>
<text text-anchor="middle" x="1038" y="-953.8" font-family="Times,serif" font-size="14.00" fill="white">199,889 row(s)/5 chunk(s)</text>
</g>
<!-- 0 -->
<g id="node30" class="node">
<title>0</title>
<polygon fill="none" stroke="white" points="536.5,-0.5 536.5,-166.5 882.5,-166.5 882.5,-0.5 536.5,-0.5"/>
<text text-anchor="middle" x="709.5" y="-151.3" font-family="Times,serif" font-size="14.00" fill="white">Total by operator</text>
<polyline fill="none" stroke="white" points="536.5,-143.5 882.5,-143.5 "/>
<text text-anchor="end" x="690.5" y="-128.3" font-family="Times,serif" font-size="14.00" fill="white">JoinSimdSortMerge </text>
<text text-anchor="end" x="690.5" y="-113.3" font-family="Times,serif" font-size="14.00" fill="white"> Sort </text>
<text text-anchor="end" x="690.5" y="-98.3" font-family="Times,serif" font-size="14.00" fill="white"> AggregateHash </text>
<text text-anchor="end" x="690.5" y="-83.3" font-family="Times,serif" font-size="14.00" fill="white"> GetTable </text>
<text text-anchor="end" x="690.5" y="-68.3" font-family="Times,serif" font-size="14.00" fill="white"> TableScan </text>
<text text-anchor="end" x="690.5" y="-53.3" font-family="Times,serif" font-size="14.00" fill="white"> Validate </text>
<text text-anchor="end" x="690.5" y="-38.3" font-family="Times,serif" font-size="14.00" fill="white"> Limit </text>
<text text-anchor="end" x="690.5" y="-23.3" font-family="Times,serif" font-size="14.00" fill="white"> Projection </text>
<text text-anchor="end" x="690.5" y="-8.3" font-family="Times,serif" font-size="14.00" fill="white">total</text>
<polyline fill="none" stroke="white" points="698.5,-0.5 698.5,-143.5 "/>
<text text-anchor="start" x="706.5" y="-128.3" font-family="Times,serif" font-size="14.00" fill="white">159 ms 267 µs </text>
<text text-anchor="start" x="706.5" y="-113.3" font-family="Times,serif" font-size="14.00" fill="white"> 105 ms 192 µs </text>
<text text-anchor="start" x="706.5" y="-98.3" font-family="Times,serif" font-size="14.00" fill="white"> 76 ms 741 µs </text>
<text text-anchor="start" x="706.5" y="-83.3" font-family="Times,serif" font-size="14.00" fill="white"> 4 ms 755 µs </text>
<text text-anchor="start" x="706.5" y="-68.3" font-family="Times,serif" font-size="14.00" fill="white"> 2 ms 707 µs </text>
<text text-anchor="start" x="706.5" y="-53.3" font-family="Times,serif" font-size="14.00" fill="white"> 2 ms 605 µs </text>
<text text-anchor="start" x="706.5" y="-38.3" font-family="Times,serif" font-size="14.00" fill="white"> 40 µs 244 ns </text>
<text text-anchor="start" x="706.5" y="-23.3" font-family="Times,serif" font-size="14.00" fill="white"> 24 µs 619 ns </text>
<text text-anchor="start" x="706.5" y="-8.3" font-family="Times,serif" font-size="14.00" fill="white"> 351 ms 332 µs </text>
<polyline fill="none" stroke="white" points="829.5,-0.5 829.5,-143.5 "/>
<text text-anchor="start" x="837.5" y="-128.3" font-family="Times,serif" font-size="14.00" fill="white">45 %</text>
<text text-anchor="start" x="837.5" y="-113.3" font-family="Times,serif" font-size="14.00" fill="white">30 %</text>
<text text-anchor="start" x="837.5" y="-98.3" font-family="Times,serif" font-size="14.00" fill="white">22 %</text>
<text text-anchor="start" x="837.5" y="-83.3" font-family="Times,serif" font-size="14.00" fill="white">1 %</text>
<text text-anchor="start" x="837.5" y="-68.3" font-family="Times,serif" font-size="14.00" fill="white">1 %</text>
<text text-anchor="start" x="837.5" y="-53.3" font-family="Times,serif" font-size="14.00" fill="white">1 %</text>
<text text-anchor="start" x="837.5" y="-38.3" font-family="Times,serif" font-size="14.00" fill="white">0 %</text>
<text text-anchor="start" x="837.5" y="-23.3" font-family="Times,serif" font-size="14.00" fill="white">0 %</text>
<text text-anchor="start" x="837.5" y="-8.3" font-family="Times,serif" font-size="14.00" fill="white"> </text>
</g>
</g>
</svg>
