<?xml version="1.0" encoding="UTF-8" standalone="no"?>
<!DOCTYPE svg PUBLIC "-//W3C//DTD SVG 1.1//EN"
 "http://www.w3.org/Graphics/SVG/1.1/DTD/svg11.dtd">
<!-- Generated by graphviz version 2.43.0 (0)
 -->
<!-- Title: G Pages: 1 -->
<svg width="724pt" height="1115pt"
 viewBox="0.00 0.00 724.00 1115.00" xmlns="http://www.w3.org/2000/svg" xmlns:xlink="http://www.w3.org/1999/xlink">
<g id="graph0" class="graph" transform="scale(1 1) rotate(0) translate(4 1111)">
<title>G</title>
<polygon fill="black" stroke="transparent" points="-4,4 -4,-1111 720,-1111 720,4 -4,4"/>
<text text-anchor="middle" x="319.5" y="-1091.8" font-family="Times,serif" font-size="14.00" fill="white">For tooltips with advanced information, hover your mouse over vertices or edge labels.</text>
<!-- 281449213584912 -->
<g id="node1" class="node">
<title>281449213584912</title>
<g id="a_node1"><a xlink:title="Output: 1 row in 1 chunk, 1 µs 760 ns.">
<polygon fill="none" stroke="white" points="416.5,-1052 279.5,-1052 279.5,-983 416.5,-983 416.5,-1052"/>
<text text-anchor="middle" x="348" y="-1036.8" font-family="Times,serif" font-size="14.00" fill="white">Alias</text>
<text text-anchor="middle" x="348" y="-1021.8" font-family="Times,serif" font-size="14.00" fill="white">[promo_revenue]</text>
<text text-anchor="middle" x="348" y="-990.8" font-family="Times,serif" font-size="14.00" fill="white">1 µs 760 ns</text>
</a>
</g>
</g>
<!-- 281449213584592 -->
<g id="node2" class="node">
<title>281449213584592</title>
<g id="a_node2"><a xlink:title="Output: 1 row in 1 chunk, 31 µs 296 ns.&#10;Operator step runtimes:&#10; ForwardUnmodifiedColumns 1 µs 56 ns&#10; EvaluateNewColumns 14 µs 784 ns&#10; BuildOutput 13 µs 888 ns.">
<polygon fill="none" stroke="white" points="402,-932 294,-932 294,-878 402,-878 402,-932"/>
<text text-anchor="middle" x="348" y="-916.8" font-family="Times,serif" font-size="14.00" fill="white">Projection</text>
<text text-anchor="middle" x="348" y="-885.8" font-family="Times,serif" font-size="14.00" fill="white">31 µs 296 ns</text>
</a>
</g>
</g>
<!-- 281449213584592&#45;&gt;281449213584912 -->
<g id="edge1" class="edge">
<title>281449213584592&#45;&gt;281449213584912</title>
<path fill="none" stroke="white" d="M348,-932.19C348,-944.29 348,-959 348,-972.72"/>
<polygon fill="white" stroke="white" points="344.5,-972.95 348,-982.95 351.5,-972.96 344.5,-972.95"/>
<text text-anchor="middle" x="417" y="-953.8" font-family="Times,serif" font-size="14.00" fill="white">1 row(s)/1 chunk(s)</text>
</g>
<!-- 281449207048208 -->
<g id="node3" class="node">
<title>281449207048208</title>
<g id="a_node3"><a xlink:title="Output: 1 row in 1 chunk, 11 ms 756 µs.&#10;Operator step runtimes:&#10; GroupByKeyPartitioning 0 ns&#10; Aggregating 11 ms 733 µs&#10; GroupByColumnsWriting 1 µs 24 ns&#10; AggregateColumnsWriting 9 µs 856 ns&#10; OutputWriting 4 µs 960 ns.">
<polygon fill="none" stroke="white" stroke-width="2.09" points="564.5,-827 131.5,-827 131.5,-698 564.5,-698 564.5,-827"/>
<text text-anchor="middle" x="348" y="-811.8" font-family="Times,serif" font-size="14.00" fill="white">AggregateHash</text>
<text text-anchor="middle" x="348" y="-796.8" font-family="Times,serif" font-size="14.00" fill="white">GroupBy {}</text>
<text text-anchor="middle" x="348" y="-781.8" font-family="Times,serif" font-size="14.00" fill="white">SUM(l_extendedprice * (1 &#45; l_discount)), </text>
<text text-anchor="middle" x="348" y="-766.8" font-family="Times,serif" font-size="14.00" fill="white">SUM(CASE WHEN p_type BETWEEN UPPER EXCLUSIVE</text>
<text text-anchor="middle" x="348" y="-751.8" font-family="Times,serif" font-size="14.00" fill="white">&#39;PROMO&#39; AND &#39;PROMP&#39; THEN l_extendedprice * (1 &#45;</text>
<text text-anchor="middle" x="348" y="-736.8" font-family="Times,serif" font-size="14.00" fill="white">l_discount) ELSE 0 END)</text>
<text text-anchor="middle" x="348" y="-705.8" font-family="Times,serif" font-size="14.00" fill="white">11 ms 756 µs</text>
</a>
</g>
</g>
<!-- 281449207048208&#45;&gt;281449213584592 -->
<g id="edge2" class="edge">
<title>281449207048208&#45;&gt;281449213584592</title>
<path fill="none" stroke="white" d="M348,-827.17C348,-840.99 348,-855.14 348,-867.48"/>
<polygon fill="white" stroke="white" points="344.5,-867.8 348,-877.8 351.5,-867.8 344.5,-867.8"/>
<text text-anchor="middle" x="417" y="-848.8" font-family="Times,serif" font-size="14.00" fill="white">1 row(s)/1 chunk(s)</text>
</g>
<!-- 281449213584272 -->
<g id="node4" class="node">
<title>281449213584272</title>
<g id="a_node4"><a xlink:title="Output: 3744361 rows in 32 chunks, 61 ms 983 µs.&#10;Operator step runtimes:&#10; ForwardUnmodifiedColumns 28 µs 448 ns&#10; EvaluateNewColumns 61 ms 876 µs&#10; BuildOutput 49 µs 152 ns.">
<polygon fill="none" stroke="white" stroke-width="6.19" points="404.5,-647 291.5,-647 291.5,-593 404.5,-593 404.5,-647"/>
<text text-anchor="middle" x="348" y="-631.8" font-family="Times,serif" font-size="14.00" fill="white">Projection</text>
<text text-anchor="middle" x="348" y="-600.8" font-family="Times,serif" font-size="14.00" fill="white">61 ms 983 µs</text>
</a>
</g>
</g>
<!-- 281449213584272&#45;&gt;281449207048208 -->
<g id="edge3" class="edge">
<title>281449213584272&#45;&gt;281449207048208</title>
<path fill="none" stroke="white" d="M348,-647.1C348,-658.77 348,-673.17 348,-687.78"/>
<polygon fill="white" stroke="white" points="344.5,-687.89 348,-697.89 351.5,-687.89 344.5,-687.89"/>
<text text-anchor="middle" x="453" y="-668.8" font-family="Times,serif" font-size="14.00" fill="white">3,744,361 row(s)/32 chunk(s)</text>
</g>
<!-- 281449213583632 -->
<g id="node5" class="node">
<title>281449213583632</title>
<g id="a_node5"><a xlink:title="Output: 3744361 rows in 32 chunks, 129 ms 213 µs.&#10;Operator step runtimes:&#10; BuildSideMaterializing 79 ms 406 µs&#10; ProbeSideMaterializing 3 ms 254 µs&#10; Clustering 10 ms 634 µs&#10; Building 12 ms 213 µs&#10; Probing 14 ms 855 µs&#10; OutputWriting 8 ms 555 µs.&#10;Radix bits: 5.&#10;Build side is left.">
<polygon fill="none" stroke="white" stroke-width="8" points="435,-542 261,-542 261,-473 435,-473 435,-542"/>
<text text-anchor="middle" x="348" y="-526.8" font-family="Times,serif" font-size="14.00" fill="white">JoinHash (Inner)</text>
<text text-anchor="middle" x="348" y="-511.8" font-family="Times,serif" font-size="14.00" fill="white">l_partkey = p_partkey</text>
<text text-anchor="middle" x="348" y="-480.8" font-family="Times,serif" font-size="14.00" fill="white">129 ms 213 µs</text>
</a>
</g>
</g>
<!-- 281449213583632&#45;&gt;281449213584272 -->
<g id="edge4" class="edge">
<title>281449213583632&#45;&gt;281449213584272</title>
<path fill="none" stroke="white" d="M348,-542.25C348,-555.07 348,-569.73 348,-582.77"/>
<polygon fill="white" stroke="white" points="344.5,-582.81 348,-592.81 351.5,-582.81 344.5,-582.81"/>
<text text-anchor="middle" x="453" y="-563.8" font-family="Times,serif" font-size="14.00" fill="white">3,744,361 row(s)/32 chunk(s)</text>
</g>
<!-- 281449207202320 -->
<g id="node6" class="node">
<title>281449207202320</title>
<g id="a_node6"><a xlink:title="Output: 3744361 rows in 4578 chunks, 6 ms 465 µs.">
<polygon fill="none" stroke="white" points="273,-422 169,-422 169,-368 273,-368 273,-422"/>
<text text-anchor="middle" x="221" y="-406.8" font-family="Times,serif" font-size="14.00" fill="white">Validate</text>
<text text-anchor="middle" x="221" y="-375.8" font-family="Times,serif" font-size="14.00" fill="white">6 ms 465 µs</text>
</a>
</g>
</g>
<!-- 281449207202320&#45;&gt;281449213583632 -->
<g id="edge5" class="edge">
<title>281449207202320&#45;&gt;281449213583632</title>
<path fill="none" stroke="white" d="M219.11,-422.24C219.6,-433.33 222.01,-445.77 229,-455 235.34,-463.36 243.31,-470.39 252.12,-476.28"/>
<polygon fill="white" stroke="white" points="252.26,-476.37 250.43,-479.35 260.79,-481.6 252.26,-476.37"/>
<text text-anchor="middle" x="345" y="-443.8" font-family="Times,serif" font-size="14.00" fill="white">3,744,361 row(s)/4,578 chunk(s)</text>
</g>
<!-- 281449213583952 -->
<g id="node7" class="node">
<title>281449213583952</title>
<g id="a_node7"><a xlink:title="Output: 3744361 rows in 4578 chunks, 10 ms 966 µs.&#10;Chunks: 0 skipped with no results, &#10;0 skipped with all matching, 0 scanned using binary search.">
<polygon fill="none" stroke="white" stroke-width="1.92" points="412,-309.5 0,-309.5 0,-210.5 412,-210.5 412,-309.5"/>
<text text-anchor="middle" x="206" y="-294.3" font-family="Times,serif" font-size="14.00" fill="white">TableScan</text>
<text text-anchor="middle" x="206" y="-279.3" font-family="Times,serif" font-size="14.00" fill="white">Impl: ColumnBetween</text>
<text text-anchor="middle" x="206" y="-264.3" font-family="Times,serif" font-size="14.00" fill="white">l_shipdate BETWEEN UPPER EXCLUSIVE &#39;1993&#45;09&#45;01&#39;</text>
<text text-anchor="middle" x="206" y="-249.3" font-family="Times,serif" font-size="14.00" fill="white">AND &#39;1993&#45;10&#45;01&#39;</text>
<text text-anchor="middle" x="206" y="-218.3" font-family="Times,serif" font-size="14.00" fill="white">10 ms 966 µs</text>
</a>
</g>
</g>
<!-- 281449213583952&#45;&gt;281449207202320 -->
<g id="edge6" class="edge">
<title>281449213583952&#45;&gt;281449207202320</title>
<path fill="none" stroke="white" d="M211.5,-309.77C213.28,-325.52 215.21,-342.7 216.87,-357.41"/>
<polygon fill="white" stroke="white" points="213.43,-358.09 218.03,-367.63 220.38,-357.3 213.43,-358.09"/>
<text text-anchor="middle" x="332" y="-338.8" font-family="Times,serif" font-size="14.00" fill="white">3,744,361 row(s)/4,578 chunk(s)</text>
</g>
<!-- 281449214789136 -->
<g id="node8" class="node">
<title>281449214789136</title>
<g id="a_node8"><a xlink:title="Output: 300005811 rows in 4578 chunks, 3 ms 713 µs.">
<polygon fill="none" stroke="white" points="271.5,-133 140.5,-133 140.5,-19 271.5,-19 271.5,-133"/>
<text text-anchor="middle" x="206" y="-117.8" font-family="Times,serif" font-size="14.00" fill="white">GetTable</text>
<text text-anchor="middle" x="206" y="-102.8" font-family="Times,serif" font-size="14.00" fill="white">(lineitem)</text>
<text text-anchor="middle" x="206" y="-87.8" font-family="Times,serif" font-size="14.00" fill="white">pruned:</text>
<text text-anchor="middle" x="206" y="-72.8" font-family="Times,serif" font-size="14.00" fill="white">0/4578 chunk(s)</text>
<text text-anchor="middle" x="206" y="-57.8" font-family="Times,serif" font-size="14.00" fill="white">12/16 column(s)</text>
<text text-anchor="middle" x="206" y="-26.8" font-family="Times,serif" font-size="14.00" fill="white">3 ms 713 µs</text>
</a>
</g>
</g>
<!-- 281449214789136&#45;&gt;281449213583952 -->
<g id="edge7" class="edge">
<title>281449214789136&#45;&gt;281449213583952</title>
<path fill="none" stroke="white" stroke-width="8" d="M206,-133.09C206,-154.46 206,-178.86 206,-200.45"/>
<polygon fill="white" stroke="white" stroke-width="8" points="199,-200.47 206,-210.47 213,-200.47 199,-200.47"/>
<text text-anchor="middle" x="331" y="-173.8" font-family="Times,serif" font-size="14.00" fill="white">300,005,811 row(s)/4,578 chunk(s)</text>
</g>
<!-- 281449207202576 -->
<g id="node9" class="node">
<title>281449207202576</title>
<g id="a_node9"><a xlink:title="Output: 10000000 rows in 153 chunks, 449 µs 894 ns.">
<polygon fill="none" stroke="white" points="545.5,-422 428.5,-422 428.5,-368 545.5,-368 545.5,-422"/>
<text text-anchor="middle" x="487" y="-406.8" font-family="Times,serif" font-size="14.00" fill="white">Validate</text>
<text text-anchor="middle" x="487" y="-375.8" font-family="Times,serif" font-size="14.00" fill="white">449 µs 894 ns</text>
</a>
</g>
</g>
<!-- 281449207202576&#45;&gt;281449213583632 -->
<g id="edge8" class="edge">
<title>281449207202576&#45;&gt;281449213583632</title>
<path fill="none" stroke="white" d="M480.04,-422.24C476,-433.45 469.89,-446 461,-455 455.79,-460.27 449.95,-465.06 443.73,-469.39"/>
<polygon fill="white" stroke="white" points="435.04,-475.03 445.33,-472.52 443.43,-469.59 435.04,-475.03"/>
<text text-anchor="middle" x="585" y="-443.8" font-family="Times,serif" font-size="14.00" fill="white">10,000,000 row(s)/153 chunk(s)</text>
</g>
<!-- 281449214789584 -->
<g id="node10" class="node">
<title>281449214789584</title>
<g id="a_node10"><a xlink:title="Output: 10000000 rows in 153 chunks, 270 µs 531 ns.">
<polygon fill="none" stroke="white" points="552,-317 430,-317 430,-203 552,-203 552,-317"/>
<text text-anchor="middle" x="491" y="-301.8" font-family="Times,serif" font-size="14.00" fill="white">GetTable</text>
<text text-anchor="middle" x="491" y="-286.8" font-family="Times,serif" font-size="14.00" fill="white">(part)</text>
<text text-anchor="middle" x="491" y="-271.8" font-family="Times,serif" font-size="14.00" fill="white">pruned:</text>
<text text-anchor="middle" x="491" y="-256.8" font-family="Times,serif" font-size="14.00" fill="white">0/153 chunk(s)</text>
<text text-anchor="middle" x="491" y="-241.8" font-family="Times,serif" font-size="14.00" fill="white">7/9 column(s)</text>
<text text-anchor="middle" x="491" y="-210.8" font-family="Times,serif" font-size="14.00" fill="white">270 µs 531 ns</text>
</a>
</g>
</g>
<!-- 281449214789584&#45;&gt;281449207202576 -->
<g id="edge9" class="edge">
<title>281449214789584&#45;&gt;281449207202576</title>
<path fill="none" stroke="white" d="M489.32,-317.02C488.9,-330.77 488.47,-345.14 488.09,-357.69"/>
<polygon fill="white" stroke="white" points="484.59,-357.65 487.79,-367.75 491.59,-357.86 484.59,-357.65"/>
<text text-anchor="middle" x="602" y="-338.8" font-family="Times,serif" font-size="14.00" fill="white">10,000,000 row(s)/153 chunk(s)</text>
</g>
<!-- 0 -->
<g id="node11" class="node">
<title>0</title>
<polygon fill="none" stroke="white" points="289.5,-0.5 289.5,-151.5 610.5,-151.5 610.5,-0.5 289.5,-0.5"/>
<text text-anchor="middle" x="450" y="-136.3" font-family="Times,serif" font-size="14.00" fill="white">Total by operator</text>
<polyline fill="none" stroke="white" points="289.5,-128.5 610.5,-128.5 "/>
<text text-anchor="end" x="418.5" y="-113.3" font-family="Times,serif" font-size="14.00" fill="white">JoinHash </text>
<text text-anchor="end" x="418.5" y="-98.3" font-family="Times,serif" font-size="14.00" fill="white"> Projection </text>
<text text-anchor="end" x="418.5" y="-83.3" font-family="Times,serif" font-size="14.00" fill="white"> AggregateHash </text>
<text text-anchor="end" x="418.5" y="-68.3" font-family="Times,serif" font-size="14.00" fill="white"> TableScan </text>
<text text-anchor="end" x="418.5" y="-53.3" font-family="Times,serif" font-size="14.00" fill="white"> Validate </text>
<text text-anchor="end" x="418.5" y="-38.3" font-family="Times,serif" font-size="14.00" fill="white"> GetTable </text>
<text text-anchor="end" x="418.5" y="-23.3" font-family="Times,serif" font-size="14.00" fill="white"> Alias </text>
<text text-anchor="end" x="418.5" y="-8.3" font-family="Times,serif" font-size="14.00" fill="white">total</text>
<polyline fill="none" stroke="white" points="426.5,-0.5 426.5,-128.5 "/>
<text text-anchor="start" x="434.5" y="-113.3" font-family="Times,serif" font-size="14.00" fill="white">129 ms 213 µs </text>
<text text-anchor="start" x="434.5" y="-98.3" font-family="Times,serif" font-size="14.00" fill="white"> 62 ms 14 µs </text>
<text text-anchor="start" x="434.5" y="-83.3" font-family="Times,serif" font-size="14.00" fill="white"> 11 ms 756 µs </text>
<text text-anchor="start" x="434.5" y="-68.3" font-family="Times,serif" font-size="14.00" fill="white"> 10 ms 966 µs </text>
<text text-anchor="start" x="434.5" y="-53.3" font-family="Times,serif" font-size="14.00" fill="white"> 6 ms 915 µs </text>
<text text-anchor="start" x="434.5" y="-38.3" font-family="Times,serif" font-size="14.00" fill="white"> 3 ms 984 µs </text>
<text text-anchor="start" x="434.5" y="-23.3" font-family="Times,serif" font-size="14.00" fill="white"> 1 µs 760 ns </text>
<text text-anchor="start" x="434.5" y="-8.3" font-family="Times,serif" font-size="14.00" fill="white"> 224 ms 850 µs </text>
<polyline fill="none" stroke="white" points="557.5,-0.5 557.5,-128.5 "/>
<text text-anchor="start" x="565.5" y="-113.3" font-family="Times,serif" font-size="14.00" fill="white">57 %</text>
<text text-anchor="start" x="565.5" y="-98.3" font-family="Times,serif" font-size="14.00" fill="white">28 %</text>
<text text-anchor="start" x="565.5" y="-83.3" font-family="Times,serif" font-size="14.00" fill="white">5 %</text>
<text text-anchor="start" x="565.5" y="-68.3" font-family="Times,serif" font-size="14.00" fill="white">5 %</text>
<text text-anchor="start" x="565.5" y="-53.3" font-family="Times,serif" font-size="14.00" fill="white">3 %</text>
<text text-anchor="start" x="565.5" y="-38.3" font-family="Times,serif" font-size="14.00" fill="white">2 %</text>
<text text-anchor="start" x="565.5" y="-23.3" font-family="Times,serif" font-size="14.00" fill="white">0 %</text>
<text text-anchor="start" x="565.5" y="-8.3" font-family="Times,serif" font-size="14.00" fill="white"> </text>
</g>
</g>
</svg>
