<?xml version="1.0" encoding="UTF-8" standalone="no"?>
<!DOCTYPE svg PUBLIC "-//W3C//DTD SVG 1.1//EN"
 "http://www.w3.org/Graphics/SVG/1.1/DTD/svg11.dtd">
<!-- Generated by graphviz version 2.43.0 (0)
 -->
<!-- Title: G Pages: 1 -->
<svg width="1407pt" height="1910pt"
 viewBox="0.00 0.00 1407.00 1910.00" xmlns="http://www.w3.org/2000/svg" xmlns:xlink="http://www.w3.org/1999/xlink">
<g id="graph0" class="graph" transform="scale(1 1) rotate(0) translate(4 1906)">
<title>G</title>
<polygon fill="black" stroke="transparent" points="-4,4 -4,-1906 1403,-1906 1403,4 -4,4"/>
<text text-anchor="middle" x="319.5" y="-1886.8" font-family="Times,serif" font-size="14.00" fill="white">For tooltips with advanced information, hover your mouse over vertices or edge labels.</text>
<!-- 140588141839888 -->
<g id="node1" class="node">
<title>140588141839888</title>
<g id="a_node1"><a xlink:title="Output: 175 rows in 1 chunk filtered: 0, 4 µs 469 ns.">
<polygon fill="none" stroke="white" points="468.5,-1847 257.5,-1847 257.5,-1778 468.5,-1778 468.5,-1847"/>
<text text-anchor="middle" x="363" y="-1831.8" font-family="Times,serif" font-size="14.00" fill="white">Alias</text>
<text text-anchor="middle" x="363" y="-1816.8" font-family="Times,serif" font-size="14.00" fill="white">[nation, o_year, sum_profit]</text>
<text text-anchor="middle" x="363" y="-1785.8" font-family="Times,serif" font-size="14.00" fill="white">4 µs 469 ns</text>
</a>
</g>
</g>
<!-- 140588141839568 -->
<g id="node2" class="node">
<title>140588141839568</title>
<g id="a_node2"><a xlink:title="Output: 175 rows in 1 chunk filtered: 0, 147 µs 156 ns.&#10;Operator step runtimes:&#10; MaterializeSortColumns 29 µs 855 ns&#10; Sort 90 µs 180 ns&#10; TemporaryResultWriting 2 µs 995 ns&#10; WriteOutput 13 µs 626 ns.">
<polygon fill="none" stroke="white" points="421.5,-1727 304.5,-1727 304.5,-1673 421.5,-1673 421.5,-1727"/>
<text text-anchor="middle" x="363" y="-1711.8" font-family="Times,serif" font-size="14.00" fill="white">Sort</text>
<text text-anchor="middle" x="363" y="-1680.8" font-family="Times,serif" font-size="14.00" fill="white">147 µs 156 ns</text>
</a>
</g>
</g>
<!-- 140588141839568&#45;&gt;140588141839888 -->
<g id="edge1" class="edge">
<title>140588141839568&#45;&gt;140588141839888</title>
<path fill="none" stroke="white" d="M363,-1727.19C363,-1739.29 363,-1754 363,-1767.72"/>
<polygon fill="white" stroke="white" points="359.5,-1767.95 363,-1777.95 366.5,-1767.96 359.5,-1767.95"/>
<text text-anchor="middle" x="441" y="-1748.8" font-family="Times,serif" font-size="14.00" fill="white">175 row(s)/1 chunk(s)</text>
</g>
<!-- 140656846745104 -->
<g id="node3" class="node">
<title>140656846745104</title>
<g id="a_node3"><a xlink:title="Output: 175 rows in 1 chunk filtered: 0, 948 ms 389 µs.&#10;Operator step runtimes:&#10; GroupByKeyPartitioning 671 ms 201 µs&#10; Aggregating 277 ms 109 µs&#10; GroupByColumnsWriting 16 µs 651 ns&#10; AggregateColumnsWriting 23 µs 936 ns&#10; OutputWriting 11 µs 222 ns.">
<polygon fill="none" stroke="white" stroke-width="6.19" points="513.5,-1622 212.5,-1622 212.5,-1508 513.5,-1508 513.5,-1622"/>
<text text-anchor="middle" x="363" y="-1606.8" font-family="Times,serif" font-size="14.00" fill="white">AggregateHash</text>
<text text-anchor="middle" x="363" y="-1591.8" font-family="Times,serif" font-size="14.00" fill="white">GroupBy {n_name,</text>
<text text-anchor="middle" x="363" y="-1576.8" font-family="Times,serif" font-size="14.00" fill="white">SUBSTR(o_orderdate,1,4)}</text>
<text text-anchor="middle" x="363" y="-1561.8" font-family="Times,serif" font-size="14.00" fill="white">SUM(l_extendedprice * (1 &#45; l_discount) &#45;</text>
<text text-anchor="middle" x="363" y="-1546.8" font-family="Times,serif" font-size="14.00" fill="white">ps_supplycost * l_quantity)</text>
<text text-anchor="middle" x="363" y="-1515.8" font-family="Times,serif" font-size="14.00" fill="white">948 ms 389 µs</text>
</a>
</g>
</g>
<!-- 140656846745104&#45;&gt;140588141839568 -->
<g id="edge2" class="edge">
<title>140656846745104&#45;&gt;140588141839568</title>
<path fill="none" stroke="white" d="M363,-1622.02C363,-1635.77 363,-1650.14 363,-1662.69"/>
<polygon fill="white" stroke="white" points="359.5,-1662.75 363,-1672.75 366.5,-1662.75 359.5,-1662.75"/>
<text text-anchor="middle" x="441" y="-1643.8" font-family="Times,serif" font-size="14.00" fill="white">175 row(s)/1 chunk(s)</text>
</g>
<!-- 140588141839248 -->
<g id="node4" class="node">
<title>140588141839248</title>
<g id="a_node4"><a xlink:title="Output: 16329460 rows in 16 chunks filtered: 0, 39 µs 243 ns.">
<polygon fill="none" stroke="white" points="457.5,-1457 268.5,-1457 268.5,-1388 457.5,-1388 457.5,-1457"/>
<text text-anchor="middle" x="363" y="-1441.8" font-family="Times,serif" font-size="14.00" fill="white">Alias</text>
<text text-anchor="middle" x="363" y="-1426.8" font-family="Times,serif" font-size="14.00" fill="white">[nation, o_year, amount]</text>
<text text-anchor="middle" x="363" y="-1395.8" font-family="Times,serif" font-size="14.00" fill="white">39 µs 243 ns</text>
</a>
</g>
</g>
<!-- 140588141839248&#45;&gt;140656846745104 -->
<g id="edge3" class="edge">
<title>140588141839248&#45;&gt;140656846745104</title>
<path fill="none" stroke="white" d="M363,-1457.15C363,-1469.37 363,-1483.63 363,-1497.69"/>
<polygon fill="white" stroke="white" points="359.5,-1497.85 363,-1507.85 366.5,-1497.85 359.5,-1497.85"/>
<text text-anchor="middle" x="472.5" y="-1478.8" font-family="Times,serif" font-size="14.00" fill="white">16,329,460 row(s)/16 chunk(s)</text>
</g>
<!-- 140588141838928 -->
<g id="node5" class="node">
<title>140588141838928</title>
<g id="a_node5"><a xlink:title="Output: 16329460 rows in 16 chunks filtered: 0, 984 ms 250 µs.&#10;Operator step runtimes:&#10; ForwardUnmodifiedColumns 25 µs 649 ns&#10; EvaluateNewColumns 984 ms 96 µs&#10; BuildOutput 111 µs 359 ns.">
<polygon fill="none" stroke="white" stroke-width="6.28" points="424,-1337 302,-1337 302,-1283 424,-1283 424,-1337"/>
<text text-anchor="middle" x="363" y="-1321.8" font-family="Times,serif" font-size="14.00" fill="white">Projection</text>
<text text-anchor="middle" x="363" y="-1290.8" font-family="Times,serif" font-size="14.00" fill="white">984 ms 250 µs</text>
</a>
</g>
</g>
<!-- 140588141838928&#45;&gt;140588141839248 -->
<g id="edge4" class="edge">
<title>140588141838928&#45;&gt;140588141839248</title>
<path fill="none" stroke="white" d="M363,-1337.19C363,-1349.29 363,-1364 363,-1377.72"/>
<polygon fill="white" stroke="white" points="359.5,-1377.95 363,-1387.95 366.5,-1377.96 359.5,-1377.95"/>
<text text-anchor="middle" x="472.5" y="-1358.8" font-family="Times,serif" font-size="14.00" fill="white">16,329,460 row(s)/16 chunk(s)</text>
</g>
<!-- 140588141838608 -->
<g id="node6" class="node">
<title>140588141838608</title>
<g id="a_node6"><a xlink:title="Output: 16329460 rows in 16 chunks filtered: 0, 907 ms 273 µs.&#10;Chunks: 0 skipped with no results, &#10;0 skipped with all matching, 0 scanned using binary search.">
<polygon fill="none" stroke="white" stroke-width="6.08" points="458.5,-1232 267.5,-1232 267.5,-1148 458.5,-1148 458.5,-1232"/>
<text text-anchor="middle" x="363" y="-1216.8" font-family="Times,serif" font-size="14.00" fill="white">TableScan</text>
<text text-anchor="middle" x="363" y="-1201.8" font-family="Times,serif" font-size="14.00" fill="white">Impl: ColumnVsColumn</text>
<text text-anchor="middle" x="363" y="-1186.8" font-family="Times,serif" font-size="14.00" fill="white">ps_suppkey = l_suppkey</text>
<text text-anchor="middle" x="363" y="-1155.8" font-family="Times,serif" font-size="14.00" fill="white">907 ms 273 µs</text>
</a>
</g>
</g>
<!-- 140588141838608&#45;&gt;140588141838928 -->
<g id="edge5" class="edge">
<title>140588141838608&#45;&gt;140588141838928</title>
<path fill="none" stroke="white" d="M363,-1232.27C363,-1245.36 363,-1259.72 363,-1272.45"/>
<polygon fill="white" stroke="white" points="359.5,-1272.69 363,-1282.69 366.5,-1272.69 359.5,-1272.69"/>
<text text-anchor="middle" x="472.5" y="-1253.8" font-family="Times,serif" font-size="14.00" fill="white">16,329,460 row(s)/16 chunk(s)</text>
</g>
<!-- 140588141838288 -->
<g id="node7" class="node">
<title>140588141838288</title>
<g id="a_node7"><a xlink:title="Output: 65317840 rows in 16 chunks filtered: 0, 1 s 974 ms.&#10;Operator step runtimes:&#10; BuildSideMaterializing 70 ms 619 µs&#10; ProbeSideMaterializing 1 s 411 ms&#10; Clustering 41 ms 534 µs&#10; Building 8 ms 454 µs&#10; Probing 154 ms 984 µs&#10; OutputWriting 286 ms 977 µs.&#10;Radix bits: 4.&#10;Build side is left.">
<polygon fill="none" stroke="white" stroke-width="8" points="454,-1097 272,-1097 272,-1028 454,-1028 454,-1097"/>
<text text-anchor="middle" x="363" y="-1081.8" font-family="Times,serif" font-size="14.00" fill="white">JoinHash (Inner)</text>
<text text-anchor="middle" x="363" y="-1066.8" font-family="Times,serif" font-size="14.00" fill="white">ps_partkey = l_partkey</text>
<text text-anchor="middle" x="363" y="-1035.8" font-family="Times,serif" font-size="14.00" fill="white">1 s 974 ms</text>
</a>
</g>
</g>
<!-- 140588141838288&#45;&gt;140588141838608 -->
<g id="edge6" class="edge">
<title>140588141838288&#45;&gt;140588141838608</title>
<path fill="none" stroke="white" stroke-width="4.24" d="M363,-1097.13C363,-1109.51 363,-1123.84 363,-1137.44"/>
<polygon fill="white" stroke="white" stroke-width="4.24" points="359.29,-1137.65 363,-1147.65 366.71,-1137.65 359.29,-1137.65"/>
<text text-anchor="middle" x="472.5" y="-1118.8" font-family="Times,serif" font-size="14.00" fill="white">65,317,840 row(s)/16 chunk(s)</text>
</g>
<!-- 140588141837008 -->
<g id="node8" class="node">
<title>140588141837008</title>
<g id="a_node8"><a xlink:title="Output: 2177612 rows in 128 chunks filtered: 23429828, 727 ms 789 µs.&#10;Operator step runtimes:&#10; BuildSideMaterializing 648 ms 4 µs&#10; ProbeSideMaterializing 14 ms 586 µs&#10; Clustering 41 ms 562 µs&#10; Building 3 ms 883 µs&#10; Probing 12 ms 351 µs&#10; OutputWriting 1 ms 499 µs.&#10;Radix bits: 7.&#10;Build side is right.">
<polygon fill="none" stroke="white" stroke-width="5.54" points="416,-857 208,-857 208,-788 416,-788 416,-857"/>
<text text-anchor="middle" x="312" y="-841.8" font-family="Times,serif" font-size="14.00" fill="white">JoinHash (Semi Reduction)</text>
<text text-anchor="middle" x="312" y="-826.8" font-family="Times,serif" font-size="14.00" fill="white">ps_partkey = l_partkey</text>
<text text-anchor="middle" x="312" y="-795.8" font-family="Times,serif" font-size="14.00" fill="white">727 ms 789 µs</text>
</a>
</g>
</g>
<!-- 140588141837008&#45;&gt;140588141838288 -->
<g id="edge7" class="edge">
<title>140588141837008&#45;&gt;140588141838288</title>
<path fill="none" stroke="white" d="M319.2,-857.09C328.21,-899.15 343.66,-971.27 353.6,-1017.64"/>
<polygon fill="white" stroke="white" points="353.66,-1017.91 350.24,-1018.65 355.76,-1027.69 353.66,-1017.91"/>
<text text-anchor="middle" x="454.5" y="-938.8" font-family="Times,serif" font-size="14.00" fill="white">2,177,612 row(s)/128 chunk(s)</text>
</g>
<!-- 140656846599952 -->
<g id="node9" class="node">
<title>140656846599952</title>
<g id="a_node9"><a xlink:title="Output: 40000000 rows in 611 chunks filtered: 0, 6 ms 495 µs.">
<polygon fill="none" stroke="white" points="113,-737 9,-737 9,-683 113,-683 113,-737"/>
<text text-anchor="middle" x="61" y="-721.8" font-family="Times,serif" font-size="14.00" fill="white">Validate</text>
<text text-anchor="middle" x="61" y="-690.8" font-family="Times,serif" font-size="14.00" fill="white">6 ms 495 µs</text>
</a>
</g>
</g>
<!-- 140656846599952&#45;&gt;140588141837008 -->
<g id="edge8" class="edge">
<title>140656846599952&#45;&gt;140588141837008</title>
<path fill="none" stroke="white" stroke-width="3.03" d="M61.2,-737.26C62.66,-748.75 66.36,-761.52 75,-770 93.07,-787.73 146.46,-800.17 197.99,-808.37"/>
<polygon fill="white" stroke="white" stroke-width="3.03" points="198.04,-808.38 197.51,-811.84 207.93,-809.9 198.04,-808.38"/>
<text text-anchor="middle" x="189" y="-758.8" font-family="Times,serif" font-size="14.00" fill="white">40,000,000 row(s)/611 chunk(s)</text>
</g>
<!-- 140588017003984 -->
<g id="node10" class="node">
<title>140588017003984</title>
<g id="a_node10"><a xlink:title="Output: 40000000 rows in 611 chunks filtered: 0, 26 ms 275 µs.">
<polygon fill="none" stroke="white" points="122,-632 0,-632 0,-518 122,-518 122,-632"/>
<text text-anchor="middle" x="61" y="-616.8" font-family="Times,serif" font-size="14.00" fill="white">GetTable</text>
<text text-anchor="middle" x="61" y="-601.8" font-family="Times,serif" font-size="14.00" fill="white">(partsupp)</text>
<text text-anchor="middle" x="61" y="-586.8" font-family="Times,serif" font-size="14.00" fill="white">pruned:</text>
<text text-anchor="middle" x="61" y="-571.8" font-family="Times,serif" font-size="14.00" fill="white">0/611 chunk(s)</text>
<text text-anchor="middle" x="61" y="-556.8" font-family="Times,serif" font-size="14.00" fill="white">2/5 column(s)</text>
<text text-anchor="middle" x="61" y="-525.8" font-family="Times,serif" font-size="14.00" fill="white">26 ms 275 µs</text>
</a>
</g>
</g>
<!-- 140588017003984&#45;&gt;140656846599952 -->
<g id="edge9" class="edge">
<title>140588017003984&#45;&gt;140656846599952</title>
<path fill="none" stroke="white" stroke-width="3.03" d="M61,-632.02C61,-645.77 61,-660.14 61,-672.69"/>
<polygon fill="white" stroke="white" stroke-width="3.03" points="57.5,-672.75 61,-682.75 64.5,-672.75 57.5,-672.75"/>
<text text-anchor="middle" x="175" y="-653.8" font-family="Times,serif" font-size="14.00" fill="white">40,000,000 row(s)/611 chunk(s)</text>
</g>
<!-- 140656846704912 -->
<g id="node11" class="node">
<title>140656846704912</title>
<g id="a_node11"><a xlink:title="Output: 16329460 rows in 4 chunks filtered: 0, 24 ms 670 µs.">
<polygon fill="none" stroke="white" points="485.5,-737 372.5,-737 372.5,-683 485.5,-683 485.5,-737"/>
<text text-anchor="middle" x="429" y="-721.8" font-family="Times,serif" font-size="14.00" fill="white">Validate</text>
<text text-anchor="middle" x="429" y="-690.8" font-family="Times,serif" font-size="14.00" fill="white">24 ms 670 µs</text>
</a>
</g>
</g>
<!-- 140656846704912&#45;&gt;140588141837008 -->
<g id="edge10" class="edge">
<title>140656846704912&#45;&gt;140588141837008</title>
<path fill="none" stroke="white" d="M372.42,-718.6C350.15,-724.65 326.67,-735.51 313,-755 308.38,-761.58 306.21,-769.5 305.48,-777.54"/>
<polygon fill="white" stroke="white" points="305.26,-787.7 308.97,-777.78 305.48,-777.71 305.26,-787.7"/>
<text text-anchor="middle" x="418" y="-758.8" font-family="Times,serif" font-size="14.00" fill="white">16,329,460 row(s)/4 chunk(s)</text>
</g>
<!-- 140588141837328 -->
<g id="node18" class="node">
<title>140588141837328</title>
<g id="a_node18"><a xlink:title="Output: 16329460 rows in 32 chunks filtered: 0, 1 s 307 ms.&#10;Operator step runtimes:&#10; BuildSideMaterializing 959 ms 538 µs&#10; ProbeSideMaterializing 31 ms 200 µs&#10; Clustering 84 ms 112 µs&#10; Building 131 ms 162 µs&#10; Probing 70 ms 403 µs&#10; OutputWriting 29 ms 399 µs.&#10;Radix bits: 7.&#10;Build side is right.">
<polygon fill="none" stroke="white" stroke-width="6.98" points="804.5,-857 613.5,-857 613.5,-788 804.5,-788 804.5,-857"/>
<text text-anchor="middle" x="709" y="-841.8" font-family="Times,serif" font-size="14.00" fill="white">JoinHash (Inner)</text>
<text text-anchor="middle" x="709" y="-826.8" font-family="Times,serif" font-size="14.00" fill="white">o_orderkey = l_orderkey</text>
<text text-anchor="middle" x="709" y="-795.8" font-family="Times,serif" font-size="14.00" fill="white">1 s 307 ms</text>
</a>
</g>
</g>
<!-- 140656846704912&#45;&gt;140588141837328 -->
<g id="edge11" class="edge">
<title>140656846704912&#45;&gt;140588141837328</title>
<path fill="none" stroke="white" d="M485.78,-735C498.33,-741.01 511.35,-747.81 523,-755 532.16,-760.65 532.48,-765 542,-770 561.22,-780.09 582.73,-788.57 603.77,-795.54"/>
<polygon fill="white" stroke="white" points="613.39,-798.64 604.94,-792.24 603.87,-795.57 613.39,-798.64"/>
<text text-anchor="middle" x="647" y="-758.8" font-family="Times,serif" font-size="14.00" fill="white">16,329,460 row(s)/4 chunk(s)</text>
</g>
<!-- 140588141836048 -->
<g id="node12" class="node">
<title>140588141836048</title>
<g id="a_node12"><a xlink:title="Output: 16329460 rows in 4 chunks filtered: 175728598, 456 ms 422 µs.&#10;Operator step runtimes:&#10; BuildSideMaterializing 3 ms 377 µs&#10; ProbeSideMaterializing 90 ms 235 µs&#10; Clustering 116 ms 818 µs&#10; Building 2 ms 719 µs&#10; Probing 240 ms 647 µs&#10; OutputWriting 67 µs 728 ns.&#10;Radix bits: 2.&#10;Build side is right.">
<polygon fill="none" stroke="white" stroke-width="4.39" points="516,-609.5 342,-609.5 342,-540.5 516,-540.5 516,-609.5"/>
<text text-anchor="middle" x="429" y="-594.3" font-family="Times,serif" font-size="14.00" fill="white">JoinHash (Semi)</text>
<text text-anchor="middle" x="429" y="-579.3" font-family="Times,serif" font-size="14.00" fill="white">l_partkey = p_partkey</text>
<text text-anchor="middle" x="429" y="-548.3" font-family="Times,serif" font-size="14.00" fill="white">456 ms 422 µs</text>
</a>
</g>
</g>
<!-- 140588141836048&#45;&gt;140656846704912 -->
<g id="edge12" class="edge">
<title>140588141836048&#45;&gt;140656846704912</title>
<path fill="none" stroke="white" d="M429,-609.56C429,-628.74 429,-652.81 429,-672.46"/>
<polygon fill="white" stroke="white" points="425.5,-672.57 429,-682.57 432.5,-672.57 425.5,-672.57"/>
<text text-anchor="middle" x="534" y="-653.8" font-family="Times,serif" font-size="14.00" fill="white">16,329,460 row(s)/4 chunk(s)</text>
</g>
<!-- 140588017004880 -->
<g id="node13" class="node">
<title>140588017004880</title>
<g id="a_node13"><a xlink:title="Output: 300005811 rows in 4578 chunks filtered: 0, 38 ms 877 µs.">
<polygon fill="none" stroke="white" points="358.5,-467 227.5,-467 227.5,-353 358.5,-353 358.5,-467"/>
<text text-anchor="middle" x="293" y="-451.8" font-family="Times,serif" font-size="14.00" fill="white">GetTable</text>
<text text-anchor="middle" x="293" y="-436.8" font-family="Times,serif" font-size="14.00" fill="white">(lineitem)</text>
<text text-anchor="middle" x="293" y="-421.8" font-family="Times,serif" font-size="14.00" fill="white">pruned:</text>
<text text-anchor="middle" x="293" y="-406.8" font-family="Times,serif" font-size="14.00" fill="white">0/4578 chunk(s)</text>
<text text-anchor="middle" x="293" y="-391.8" font-family="Times,serif" font-size="14.00" fill="white">10/16 column(s)</text>
<text text-anchor="middle" x="293" y="-360.8" font-family="Times,serif" font-size="14.00" fill="white">38 ms 877 µs</text>
</a>
</g>
</g>
<!-- 140588017004880&#45;&gt;140588141836048 -->
<g id="edge13" class="edge">
<title>140588017004880&#45;&gt;140588141836048</title>
<path fill="none" stroke="white" stroke-width="8" d="M284.88,-467.12C285.55,-478.62 288.12,-490.19 294,-500 303.45,-515.76 317.57,-528.39 333.16,-538.44"/>
<polygon fill="white" stroke="white" stroke-width="8" points="333.4,-538.59 329.78,-544.58 341.95,-543.76 333.4,-538.59"/>
<text text-anchor="middle" x="419" y="-488.8" font-family="Times,serif" font-size="14.00" fill="white">300,005,811 row(s)/4,578 chunk(s)</text>
</g>
<!-- 140656846606864 -->
<g id="node14" class="node">
<title>140656846606864</title>
<g id="a_node14"><a xlink:title="Output: 544403 rows in 153 chunks filtered: 0, 228 µs 809 ns.">
<polygon fill="none" stroke="white" points="624.5,-437 507.5,-437 507.5,-383 624.5,-383 624.5,-437"/>
<text text-anchor="middle" x="566" y="-421.8" font-family="Times,serif" font-size="14.00" fill="white">Validate</text>
<text text-anchor="middle" x="566" y="-390.8" font-family="Times,serif" font-size="14.00" fill="white">228 µs 809 ns</text>
</a>
</g>
</g>
<!-- 140656846606864&#45;&gt;140588141836048 -->
<g id="edge14" class="edge">
<title>140656846606864&#45;&gt;140588141836048</title>
<path fill="none" stroke="white" d="M564.62,-437.29C562.48,-456.24 557.14,-481.61 544,-500 534.45,-513.35 521.67,-524.89 508.1,-534.62"/>
<polygon fill="white" stroke="white" points="499.57,-540.45 509.8,-537.7 507.83,-534.81 499.57,-540.45"/>
<text text-anchor="middle" x="654.5" y="-488.8" font-family="Times,serif" font-size="14.00" fill="white">544,403 row(s)/153 chunk(s)</text>
</g>
<!-- 140588141834448 -->
<g id="node15" class="node">
<title>140588141834448</title>
<g id="a_node15"><a xlink:title="Output: 544403 rows in 153 chunks filtered: 0, 9 ms 246 µs.&#10;Chunks: 0 skipped with no results, &#10;0 skipped with all matching, 0 scanned using binary search.">
<polygon fill="none" stroke="white" points="658.5,-302 473.5,-302 473.5,-218 658.5,-218 658.5,-302"/>
<text text-anchor="middle" x="566" y="-286.8" font-family="Times,serif" font-size="14.00" fill="white">TableScan</text>
<text text-anchor="middle" x="566" y="-271.8" font-family="Times,serif" font-size="14.00" fill="white">Impl: ColumnLike</text>
<text text-anchor="middle" x="566" y="-256.8" font-family="Times,serif" font-size="14.00" fill="white">p_name LIKE &#39;%steel%&#39;</text>
<text text-anchor="middle" x="566" y="-225.8" font-family="Times,serif" font-size="14.00" fill="white">9 ms 246 µs</text>
</a>
</g>
</g>
<!-- 140588141834448&#45;&gt;140656846606864 -->
<g id="edge15" class="edge">
<title>140588141834448&#45;&gt;140656846606864</title>
<path fill="none" stroke="white" d="M566,-302.23C566,-324.32 566,-351.31 566,-372.62"/>
<polygon fill="white" stroke="white" points="562.5,-372.88 566,-382.88 569.5,-372.88 562.5,-372.88"/>
<text text-anchor="middle" x="668.5" y="-323.8" font-family="Times,serif" font-size="14.00" fill="white">544,403 row(s)/153 chunk(s)</text>
</g>
<!-- 140588017003088 -->
<g id="node16" class="node">
<title>140588017003088</title>
<g id="a_node16"><a xlink:title="Output: 10000000 rows in 153 chunks filtered: 0, 438 µs 814 ns.">
<polygon fill="none" stroke="white" points="627,-140.5 505,-140.5 505,-26.5 627,-26.5 627,-140.5"/>
<text text-anchor="middle" x="566" y="-125.3" font-family="Times,serif" font-size="14.00" fill="white">GetTable</text>
<text text-anchor="middle" x="566" y="-110.3" font-family="Times,serif" font-size="14.00" fill="white">(part)</text>
<text text-anchor="middle" x="566" y="-95.3" font-family="Times,serif" font-size="14.00" fill="white">pruned:</text>
<text text-anchor="middle" x="566" y="-80.3" font-family="Times,serif" font-size="14.00" fill="white">0/153 chunk(s)</text>
<text text-anchor="middle" x="566" y="-65.3" font-family="Times,serif" font-size="14.00" fill="white">7/9 column(s)</text>
<text text-anchor="middle" x="566" y="-34.3" font-family="Times,serif" font-size="14.00" fill="white">438 µs 814 ns</text>
</a>
</g>
</g>
<!-- 140588017003088&#45;&gt;140588141834448 -->
<g id="edge16" class="edge">
<title>140588017003088&#45;&gt;140588141834448</title>
<path fill="none" stroke="white" d="M566,-140.67C566,-162.25 566,-186.74 566,-207.83"/>
<polygon fill="white" stroke="white" points="562.5,-207.87 566,-217.87 569.5,-207.87 562.5,-207.87"/>
<text text-anchor="middle" x="680" y="-188.8" font-family="Times,serif" font-size="14.00" fill="white">10,000,000 row(s)/153 chunk(s)</text>
</g>
<!-- 140588141837968 -->
<g id="node17" class="node">
<title>140588141837968</title>
<g id="a_node17"><a xlink:title="Output: 16329460 rows in 4 chunks filtered: 0, 481 ms 834 µs.&#10;Operator step runtimes:&#10; BuildSideMaterializing 631 µs 315 ns&#10; ProbeSideMaterializing 163 ms 464 µs&#10; Clustering 16 ms 755 µs&#10; Building 7 ms 382 µs&#10; Probing 149 ms 454 µs&#10; OutputWriting 144 ms 68 µs.&#10;Radix bits: 2.&#10;Build side is right.">
<polygon fill="none" stroke="white" stroke-width="4.52" points="800,-977 618,-977 618,-908 800,-908 800,-977"/>
<text text-anchor="middle" x="709" y="-961.8" font-family="Times,serif" font-size="14.00" fill="white">JoinHash (Inner)</text>
<text text-anchor="middle" x="709" y="-946.8" font-family="Times,serif" font-size="14.00" fill="white">l_suppkey = s_suppkey</text>
<text text-anchor="middle" x="709" y="-915.8" font-family="Times,serif" font-size="14.00" fill="white">481 ms 834 µs</text>
</a>
</g>
</g>
<!-- 140588141837968&#45;&gt;140588141838288 -->
<g id="edge17" class="edge">
<title>140588141837968&#45;&gt;140588141838288</title>
<path fill="none" stroke="white" d="M617.64,-974.66C570.34,-990.79 512.47,-1010.52 463.86,-1027.1"/>
<polygon fill="white" stroke="white" points="454.27,-1030.37 464.87,-1030.46 463.74,-1027.14 454.27,-1030.37"/>
<text text-anchor="middle" x="662" y="-998.8" font-family="Times,serif" font-size="14.00" fill="white">16,329,460 row(s)/4 chunk(s)</text>
</g>
<!-- 140588141837328&#45;&gt;140588141837968 -->
<g id="edge18" class="edge">
<title>140588141837328&#45;&gt;140588141837968</title>
<path fill="none" stroke="white" d="M709,-857.31C709,-869.78 709,-884.1 709,-897.34"/>
<polygon fill="white" stroke="white" points="709,-897.68 705.5,-897.68 709,-907.68 709,-897.68"/>
<text text-anchor="middle" x="818.5" y="-878.8" font-family="Times,serif" font-size="14.00" fill="white">16,329,460 row(s)/32 chunk(s)</text>
</g>
<!-- 140656846607376 -->
<g id="node19" class="node">
<title>140656846607376</title>
<g id="a_node19"><a xlink:title="Output: 75000000 rows in 1145 chunks filtered: 0, 21 ms 249 µs.">
<polygon fill="none" stroke="white" points="834.5,-737 721.5,-737 721.5,-683 834.5,-683 834.5,-737"/>
<text text-anchor="middle" x="778" y="-721.8" font-family="Times,serif" font-size="14.00" fill="white">Validate</text>
<text text-anchor="middle" x="778" y="-690.8" font-family="Times,serif" font-size="14.00" fill="white">21 ms 249 µs</text>
</a>
</g>
</g>
<!-- 140656846607376&#45;&gt;140588141837328 -->
<g id="edge19" class="edge">
<title>140656846607376&#45;&gt;140588141837328</title>
<path fill="none" stroke="white" stroke-width="4.58" d="M770.61,-737.26C767.03,-747.85 762.15,-759.92 756,-770 753.96,-773.33 751.69,-776.64 749.28,-779.89"/>
<polygon fill="white" stroke="white" stroke-width="4.58" points="749.25,-779.93 746.11,-777.44 743.05,-787.77 749.25,-779.93"/>
<text text-anchor="middle" x="883.5" y="-758.8" font-family="Times,serif" font-size="14.00" fill="white">75,000,000 row(s)/1,145 chunk(s)</text>
</g>
<!-- 140588017003536 -->
<g id="node20" class="node">
<title>140588017003536</title>
<g id="a_node20"><a xlink:title="Output: 75000000 rows in 1145 chunks filtered: 0, 11 ms 350 µs.">
<polygon fill="none" stroke="white" points="843.5,-632 712.5,-632 712.5,-518 843.5,-518 843.5,-632"/>
<text text-anchor="middle" x="778" y="-616.8" font-family="Times,serif" font-size="14.00" fill="white">GetTable</text>
<text text-anchor="middle" x="778" y="-601.8" font-family="Times,serif" font-size="14.00" fill="white">(orders)</text>
<text text-anchor="middle" x="778" y="-586.8" font-family="Times,serif" font-size="14.00" fill="white">pruned:</text>
<text text-anchor="middle" x="778" y="-571.8" font-family="Times,serif" font-size="14.00" fill="white">0/1145 chunk(s)</text>
<text text-anchor="middle" x="778" y="-556.8" font-family="Times,serif" font-size="14.00" fill="white">7/9 column(s)</text>
<text text-anchor="middle" x="778" y="-525.8" font-family="Times,serif" font-size="14.00" fill="white">11 ms 350 µs</text>
</a>
</g>
</g>
<!-- 140588017003536&#45;&gt;140656846607376 -->
<g id="edge20" class="edge">
<title>140588017003536&#45;&gt;140656846607376</title>
<path fill="none" stroke="white" stroke-width="4.58" d="M778,-632.02C778,-645.77 778,-660.14 778,-672.69"/>
<polygon fill="white" stroke="white" stroke-width="4.58" points="773.99,-672.75 778,-682.75 782.01,-672.75 773.99,-672.75"/>
<text text-anchor="middle" x="898.5" y="-653.8" font-family="Times,serif" font-size="14.00" fill="white">75,000,000 row(s)/1,145 chunk(s)</text>
</g>
<!-- 140588141837648 -->
<g id="node21" class="node">
<title>140588141837648</title>
<g id="a_node21"><a xlink:title="Output: 500000 rows in 8 chunks filtered: 0, 9 ms 553 µs.&#10;Operator step runtimes:&#10; BuildSideMaterializing 61 µs 94 ns&#10; ProbeSideMaterializing 3 ms 518 µs&#10; Clustering 0 ns&#10; Building 63 µs 650 ns&#10; Probing 4 ms 325 µs&#10; OutputWriting 1 ms 473 µs.&#10;Radix bits: 0.&#10;Build side is right.">
<polygon fill="none" stroke="white" points="1145.5,-857 938.5,-857 938.5,-788 1145.5,-788 1145.5,-857"/>
<text text-anchor="middle" x="1042" y="-841.8" font-family="Times,serif" font-size="14.00" fill="white">JoinHash (Inner)</text>
<text text-anchor="middle" x="1042" y="-826.8" font-family="Times,serif" font-size="14.00" fill="white">s_nationkey = n_nationkey</text>
<text text-anchor="middle" x="1042" y="-795.8" font-family="Times,serif" font-size="14.00" fill="white">9 ms 553 µs</text>
</a>
</g>
</g>
<!-- 140588141837648&#45;&gt;140588141837968 -->
<g id="edge21" class="edge">
<title>140588141837648&#45;&gt;140588141837968</title>
<path fill="none" stroke="white" d="M993.92,-857.11C975.27,-868.91 953.3,-881.36 932,-890 893.55,-905.6 849.37,-917.04 810.52,-925.12"/>
<polygon fill="white" stroke="white" points="800.25,-927.2 810.74,-928.65 810.05,-925.22 800.25,-927.2"/>
<text text-anchor="middle" x="1053.5" y="-878.8" font-family="Times,serif" font-size="14.00" fill="white">500,000 row(s)/8 chunk(s)</text>
</g>
<!-- 140656846607120 -->
<g id="node22" class="node">
<title>140656846607120</title>
<g id="a_node22"><a xlink:title="Output: 500000 rows in 8 chunks filtered: 0, 113 µs 544 ns.">
<polygon fill="none" stroke="white" points="1100.5,-737 983.5,-737 983.5,-683 1100.5,-683 1100.5,-737"/>
<text text-anchor="middle" x="1042" y="-721.8" font-family="Times,serif" font-size="14.00" fill="white">Validate</text>
<text text-anchor="middle" x="1042" y="-690.8" font-family="Times,serif" font-size="14.00" fill="white">113 µs 544 ns</text>
</a>
</g>
</g>
<!-- 140656846607120&#45;&gt;140588141837648 -->
<g id="edge22" class="edge">
<title>140656846607120&#45;&gt;140588141837648</title>
<path fill="none" stroke="white" d="M1042,-737.19C1042,-749.29 1042,-764 1042,-777.72"/>
<polygon fill="white" stroke="white" points="1042,-777.95 1038.5,-777.95 1042,-787.95 1042,-777.95"/>
<text text-anchor="middle" x="1135.5" y="-758.8" font-family="Times,serif" font-size="14.00" fill="white">500,000 row(s)/8 chunk(s)</text>
</g>
<!-- 140588017004432 -->
<g id="node23" class="node">
<title>140588017004432</title>
<g id="a_node23"><a xlink:title="Output: 500000 rows in 8 chunks filtered: 0, 82 µs 905 ns.">
<polygon fill="none" stroke="white" points="1098.5,-632 985.5,-632 985.5,-518 1098.5,-518 1098.5,-632"/>
<text text-anchor="middle" x="1042" y="-616.8" font-family="Times,serif" font-size="14.00" fill="white">GetTable</text>
<text text-anchor="middle" x="1042" y="-601.8" font-family="Times,serif" font-size="14.00" fill="white">(supplier)</text>
<text text-anchor="middle" x="1042" y="-586.8" font-family="Times,serif" font-size="14.00" fill="white">pruned:</text>
<text text-anchor="middle" x="1042" y="-571.8" font-family="Times,serif" font-size="14.00" fill="white">0/8 chunk(s)</text>
<text text-anchor="middle" x="1042" y="-556.8" font-family="Times,serif" font-size="14.00" fill="white">5/7 column(s)</text>
<text text-anchor="middle" x="1042" y="-525.8" font-family="Times,serif" font-size="14.00" fill="white">82 µs 905 ns</text>
</a>
</g>
</g>
<!-- 140588017004432&#45;&gt;140656846607120 -->
<g id="edge23" class="edge">
<title>140588017004432&#45;&gt;140656846607120</title>
<path fill="none" stroke="white" d="M1042,-632.02C1042,-645.77 1042,-660.14 1042,-672.69"/>
<polygon fill="white" stroke="white" points="1038.5,-672.75 1042,-682.75 1045.5,-672.75 1038.5,-672.75"/>
<text text-anchor="middle" x="1135.5" y="-653.8" font-family="Times,serif" font-size="14.00" fill="white">500,000 row(s)/8 chunk(s)</text>
</g>
<!-- 140656846606608 -->
<g id="node24" class="node">
<title>140656846606608</title>
<g id="a_node24"><a xlink:title="Output: 25 rows in 1 chunk filtered: 0, 16 µs 371 ns.">
<polygon fill="none" stroke="white" points="1306,-737 1198,-737 1198,-683 1306,-683 1306,-737"/>
<text text-anchor="middle" x="1252" y="-721.8" font-family="Times,serif" font-size="14.00" fill="white">Validate</text>
<text text-anchor="middle" x="1252" y="-690.8" font-family="Times,serif" font-size="14.00" fill="white">16 µs 371 ns</text>
</a>
</g>
</g>
<!-- 140656846606608&#45;&gt;140588141837648 -->
<g id="edge24" class="edge">
<title>140656846606608&#45;&gt;140588141837648</title>
<path fill="none" stroke="white" d="M1247.77,-737.26C1244.66,-748.75 1239.28,-761.52 1230,-770 1209.42,-788.81 1182.62,-800.85 1155.73,-808.52"/>
<polygon fill="white" stroke="white" points="1145.83,-811.16 1156.4,-811.97 1155.49,-808.59 1145.83,-811.16"/>
<text text-anchor="middle" x="1314.5" y="-758.8" font-family="Times,serif" font-size="14.00" fill="white">25 row(s)/1 chunk(s)</text>
</g>
<!-- 140588017005328 -->
<g id="node25" class="node">
<title>140588017005328</title>
<g id="a_node25"><a xlink:title="Output: 25 rows in 1 chunk filtered: 0, 56 µs 486 ns.">
<polygon fill="none" stroke="white" points="1308.5,-632 1195.5,-632 1195.5,-518 1308.5,-518 1308.5,-632"/>
<text text-anchor="middle" x="1252" y="-616.8" font-family="Times,serif" font-size="14.00" fill="white">GetTable</text>
<text text-anchor="middle" x="1252" y="-601.8" font-family="Times,serif" font-size="14.00" fill="white">(nation)</text>
<text text-anchor="middle" x="1252" y="-586.8" font-family="Times,serif" font-size="14.00" fill="white">pruned:</text>
<text text-anchor="middle" x="1252" y="-571.8" font-family="Times,serif" font-size="14.00" fill="white">0/1 chunk(s)</text>
<text text-anchor="middle" x="1252" y="-556.8" font-family="Times,serif" font-size="14.00" fill="white">2/4 column(s)</text>
<text text-anchor="middle" x="1252" y="-525.8" font-family="Times,serif" font-size="14.00" fill="white">56 µs 486 ns</text>
</a>
</g>
</g>
<!-- 140588017005328&#45;&gt;140656846606608 -->
<g id="edge25" class="edge">
<title>140588017005328&#45;&gt;140656846606608</title>
<path fill="none" stroke="white" d="M1252,-632.02C1252,-645.77 1252,-660.14 1252,-672.69"/>
<polygon fill="white" stroke="white" points="1248.5,-672.75 1252,-682.75 1255.5,-672.75 1248.5,-672.75"/>
<text text-anchor="middle" x="1325.5" y="-653.8" font-family="Times,serif" font-size="14.00" fill="white">25 row(s)/1 chunk(s)</text>
</g>
<!-- 0 -->
<g id="node26" class="node">
<title>0</title>
<polygon fill="none" stroke="white" points="645.5,-0.5 645.5,-166.5 966.5,-166.5 966.5,-0.5 645.5,-0.5"/>
<text text-anchor="middle" x="806" y="-151.3" font-family="Times,serif" font-size="14.00" fill="white">Total by operator</text>
<polyline fill="none" stroke="white" points="645.5,-143.5 966.5,-143.5 "/>
<text text-anchor="end" x="774.5" y="-128.3" font-family="Times,serif" font-size="14.00" fill="white">JoinHash </text>
<text text-anchor="end" x="774.5" y="-113.3" font-family="Times,serif" font-size="14.00" fill="white"> Projection </text>
<text text-anchor="end" x="774.5" y="-98.3" font-family="Times,serif" font-size="14.00" fill="white"> AggregateHash </text>
<text text-anchor="end" x="774.5" y="-83.3" font-family="Times,serif" font-size="14.00" fill="white"> TableScan </text>
<text text-anchor="end" x="774.5" y="-68.3" font-family="Times,serif" font-size="14.00" fill="white"> GetTable </text>
<text text-anchor="end" x="774.5" y="-53.3" font-family="Times,serif" font-size="14.00" fill="white"> Validate </text>
<text text-anchor="end" x="774.5" y="-38.3" font-family="Times,serif" font-size="14.00" fill="white"> Sort </text>
<text text-anchor="end" x="774.5" y="-23.3" font-family="Times,serif" font-size="14.00" fill="white"> Alias </text>
<text text-anchor="end" x="774.5" y="-8.3" font-family="Times,serif" font-size="14.00" fill="white">total</text>
<polyline fill="none" stroke="white" points="782.5,-0.5 782.5,-143.5 "/>
<text text-anchor="start" x="790.5" y="-128.3" font-family="Times,serif" font-size="14.00" fill="white">4 s 956 ms </text>
<text text-anchor="start" x="790.5" y="-113.3" font-family="Times,serif" font-size="14.00" fill="white"> 984 ms 250 µs </text>
<text text-anchor="start" x="790.5" y="-98.3" font-family="Times,serif" font-size="14.00" fill="white"> 948 ms 389 µs </text>
<text text-anchor="start" x="790.5" y="-83.3" font-family="Times,serif" font-size="14.00" fill="white"> 916 ms 519 µs </text>
<text text-anchor="start" x="790.5" y="-68.3" font-family="Times,serif" font-size="14.00" fill="white"> 77 ms 80 µs </text>
<text text-anchor="start" x="790.5" y="-53.3" font-family="Times,serif" font-size="14.00" fill="white"> 52 ms 773 µs </text>
<text text-anchor="start" x="790.5" y="-38.3" font-family="Times,serif" font-size="14.00" fill="white"> 147 µs 156 ns </text>
<text text-anchor="start" x="790.5" y="-23.3" font-family="Times,serif" font-size="14.00" fill="white"> 43 µs 712 ns </text>
<text text-anchor="start" x="790.5" y="-8.3" font-family="Times,serif" font-size="14.00" fill="white"> 7 s 935 ms </text>
<polyline fill="none" stroke="white" points="913.5,-0.5 913.5,-143.5 "/>
<text text-anchor="start" x="921.5" y="-128.3" font-family="Times,serif" font-size="14.00" fill="white">62 %</text>
<text text-anchor="start" x="921.5" y="-113.3" font-family="Times,serif" font-size="14.00" fill="white">12 %</text>
<text text-anchor="start" x="921.5" y="-98.3" font-family="Times,serif" font-size="14.00" fill="white">12 %</text>
<text text-anchor="start" x="921.5" y="-83.3" font-family="Times,serif" font-size="14.00" fill="white">12 %</text>
<text text-anchor="start" x="921.5" y="-68.3" font-family="Times,serif" font-size="14.00" fill="white">1 %</text>
<text text-anchor="start" x="921.5" y="-53.3" font-family="Times,serif" font-size="14.00" fill="white">1 %</text>
<text text-anchor="start" x="921.5" y="-38.3" font-family="Times,serif" font-size="14.00" fill="white">0 %</text>
<text text-anchor="start" x="921.5" y="-23.3" font-family="Times,serif" font-size="14.00" fill="white">0 %</text>
<text text-anchor="start" x="921.5" y="-8.3" font-family="Times,serif" font-size="14.00" fill="white"> </text>
</g>
</g>
</svg>
