<?xml version="1.0" encoding="UTF-8" standalone="no"?>
<!DOCTYPE svg PUBLIC "-//W3C//DTD SVG 1.1//EN"
 "http://www.w3.org/Graphics/SVG/1.1/DTD/svg11.dtd">
<!-- Generated by graphviz version 2.43.0 (0)
 -->
<!-- Title: G Pages: 1 -->
<svg width="863pt" height="1895pt"
 viewBox="0.00 0.00 863.00 1895.00" xmlns="http://www.w3.org/2000/svg" xmlns:xlink="http://www.w3.org/1999/xlink">
<g id="graph0" class="graph" transform="scale(1 1) rotate(0) translate(4 1891)">
<title>G</title>
<polygon fill="black" stroke="transparent" points="-4,4 -4,-1891 859,-1891 859,4 -4,4"/>
<text text-anchor="middle" x="319.5" y="-1871.8" font-family="Times,serif" font-size="14.00" fill="white">For tooltips with advanced information, hover your mouse over vertices or edge labels.</text>
<!-- 140657071412368 -->
<g id="node1" class="node">
<title>140657071412368</title>
<g id="a_node1"><a xlink:title="Output: 2 rows in 1 chunk filtered: 0, 4 µs 979 ns.">
<polygon fill="none" stroke="white" points="637,-1832 296,-1832 296,-1763 637,-1763 637,-1832"/>
<text text-anchor="middle" x="466.5" y="-1816.8" font-family="Times,serif" font-size="14.00" fill="white">Alias</text>
<text text-anchor="middle" x="466.5" y="-1801.8" font-family="Times,serif" font-size="14.00" fill="white">[l_shipmode, high_line_count, low_line_count]</text>
<text text-anchor="middle" x="466.5" y="-1770.8" font-family="Times,serif" font-size="14.00" fill="white">4 µs 979 ns</text>
</a>
</g>
</g>
<!-- 140657071412048 -->
<g id="node2" class="node">
<title>140657071412048</title>
<g id="a_node2"><a xlink:title="Output: 2 rows in 1 chunk filtered: 0, 47 µs 569 ns.&#10;Operator step runtimes:&#10; MaterializeSortColumns 26 µs 650 ns&#10; Sort 3 µs 737 ns&#10; TemporaryResultWriting 712 ns&#10; WriteOutput 14 µs 26 ns.">
<polygon fill="none" stroke="white" points="520.5,-1712 412.5,-1712 412.5,-1658 520.5,-1658 520.5,-1712"/>
<text text-anchor="middle" x="466.5" y="-1696.8" font-family="Times,serif" font-size="14.00" fill="white">Sort</text>
<text text-anchor="middle" x="466.5" y="-1665.8" font-family="Times,serif" font-size="14.00" fill="white">47 µs 569 ns</text>
</a>
</g>
</g>
<!-- 140657071412048&#45;&gt;140657071412368 -->
<g id="edge1" class="edge">
<title>140657071412048&#45;&gt;140657071412368</title>
<path fill="none" stroke="white" d="M466.5,-1712.19C466.5,-1724.29 466.5,-1739 466.5,-1752.72"/>
<polygon fill="white" stroke="white" points="463,-1752.95 466.5,-1762.95 470,-1752.96 463,-1752.95"/>
<text text-anchor="middle" x="535.5" y="-1733.8" font-family="Times,serif" font-size="14.00" fill="white">2 row(s)/1 chunk(s)</text>
</g>
<!-- 140657072418320 -->
<g id="node3" class="node">
<title>140657072418320</title>
<g id="a_node3"><a xlink:title="Output: 2 rows in 1 chunk filtered: 0, 311 ms 645 µs.&#10;Operator step runtimes:&#10; GroupByKeyPartitioning 277 ms 635 µs&#10; Aggregating 33 ms 934 µs&#10; GroupByColumnsWriting 12 µs 834 ns&#10; AggregateColumnsWriting 23 µs 505 ns&#10; OutputWriting 13 µs 906 ns.">
<polygon fill="none" stroke="white" stroke-width="7.5" points="674,-1607 259,-1607 259,-1478 674,-1478 674,-1607"/>
<text text-anchor="middle" x="466.5" y="-1591.8" font-family="Times,serif" font-size="14.00" fill="white">AggregateHash</text>
<text text-anchor="middle" x="466.5" y="-1576.8" font-family="Times,serif" font-size="14.00" fill="white">GroupBy {l_shipmode}</text>
<text text-anchor="middle" x="466.5" y="-1561.8" font-family="Times,serif" font-size="14.00" fill="white">SUM(CASE WHEN o_orderpriority = &#39;1&#45;URGENT&#39; OR</text>
<text text-anchor="middle" x="466.5" y="-1546.8" font-family="Times,serif" font-size="14.00" fill="white">o_orderpriority = &#39;2&#45;HIGH&#39; THEN 1 ELSE 0 END), </text>
<text text-anchor="middle" x="466.5" y="-1531.8" font-family="Times,serif" font-size="14.00" fill="white">SUM(CASE WHEN o_orderpriority != &#39;1&#45;URGENT&#39; AND</text>
<text text-anchor="middle" x="466.5" y="-1516.8" font-family="Times,serif" font-size="14.00" fill="white">o_orderpriority != &#39;2&#45;HIGH&#39; THEN 1 ELSE 0 END)</text>
<text text-anchor="middle" x="466.5" y="-1485.8" font-family="Times,serif" font-size="14.00" fill="white">311 ms 645 µs</text>
</a>
</g>
</g>
<!-- 140657072418320&#45;&gt;140657071412048 -->
<g id="edge2" class="edge">
<title>140657072418320&#45;&gt;140657071412048</title>
<path fill="none" stroke="white" d="M466.5,-1607.17C466.5,-1620.99 466.5,-1635.14 466.5,-1647.48"/>
<polygon fill="white" stroke="white" points="463,-1647.8 466.5,-1657.8 470,-1647.8 463,-1647.8"/>
<text text-anchor="middle" x="535.5" y="-1628.8" font-family="Times,serif" font-size="14.00" fill="white">2 row(s)/1 chunk(s)</text>
</g>
<!-- 140657071411728 -->
<g id="node4" class="node">
<title>140657071411728</title>
<g id="a_node4"><a xlink:title="Output: 1558317 rows in 8 chunks filtered: 0, 58 ms 739 µs.&#10;Operator step runtimes:&#10; ForwardUnmodifiedColumns 29 µs 946 ns&#10; EvaluateNewColumns 58 ms 609 µs&#10; BuildOutput 89 µs 909 ns.">
<polygon fill="none" stroke="white" stroke-width="3.38" points="523,-1427 410,-1427 410,-1373 523,-1373 523,-1427"/>
<text text-anchor="middle" x="466.5" y="-1411.8" font-family="Times,serif" font-size="14.00" fill="white">Projection</text>
<text text-anchor="middle" x="466.5" y="-1380.8" font-family="Times,serif" font-size="14.00" fill="white">58 ms 739 µs</text>
</a>
</g>
</g>
<!-- 140657071411728&#45;&gt;140657072418320 -->
<g id="edge3" class="edge">
<title>140657071411728&#45;&gt;140657072418320</title>
<path fill="none" stroke="white" d="M466.5,-1427.1C466.5,-1438.77 466.5,-1453.17 466.5,-1467.78"/>
<polygon fill="white" stroke="white" points="463,-1467.89 466.5,-1477.89 470,-1467.89 463,-1467.89"/>
<text text-anchor="middle" x="567" y="-1448.8" font-family="Times,serif" font-size="14.00" fill="white">1,558,317 row(s)/8 chunk(s)</text>
</g>
<!-- 140657071411408 -->
<g id="node5" class="node">
<title>140657071411408</title>
<g id="a_node5"><a xlink:title="Output: 1558317 rows in 8 chunks filtered: 0, 382 ms 20 µs.&#10;Operator step runtimes:&#10; BuildSideMaterializing 62 ms 15 µs&#10; ProbeSideMaterializing 236 ms 916 µs&#10; Clustering 51 ms 886 µs&#10; Building 11 ms 376 µs&#10; Probing 5 ms 689 µs&#10; OutputWriting 13 ms 956 µs.&#10;Radix bits: 4.&#10;Build side is right.">
<polygon fill="none" stroke="white" stroke-width="8" points="562,-1322 371,-1322 371,-1253 562,-1253 562,-1322"/>
<text text-anchor="middle" x="466.5" y="-1306.8" font-family="Times,serif" font-size="14.00" fill="white">JoinHash (Inner)</text>
<text text-anchor="middle" x="466.5" y="-1291.8" font-family="Times,serif" font-size="14.00" fill="white">l_orderkey = o_orderkey</text>
<text text-anchor="middle" x="466.5" y="-1260.8" font-family="Times,serif" font-size="14.00" fill="white">382 ms 20 µs</text>
</a>
</g>
</g>
<!-- 140657071411408&#45;&gt;140657071411728 -->
<g id="edge4" class="edge">
<title>140657071411408&#45;&gt;140657071411728</title>
<path fill="none" stroke="white" d="M466.5,-1322.25C466.5,-1335.07 466.5,-1349.73 466.5,-1362.77"/>
<polygon fill="white" stroke="white" points="463,-1362.81 466.5,-1372.81 470,-1362.81 463,-1362.81"/>
<text text-anchor="middle" x="567" y="-1343.8" font-family="Times,serif" font-size="14.00" fill="white">1,558,317 row(s)/8 chunk(s)</text>
</g>
<!-- 140657071410768 -->
<g id="node6" class="node">
<title>140657071410768</title>
<g id="a_node6"><a xlink:title="Output: 1558317 rows in 9156 chunks filtered: 0, 32 ms 194 µs.&#10;Chunks: 0 skipped with no results, &#10;0 skipped with all matching, 0 scanned using binary search.">
<polygon fill="none" stroke="white" stroke-width="1.9" points="555.5,-962 349.5,-962 349.5,-878 555.5,-878 555.5,-962"/>
<text text-anchor="middle" x="452.5" y="-946.8" font-family="Times,serif" font-size="14.00" fill="white">TableScan</text>
<text text-anchor="middle" x="452.5" y="-931.8" font-family="Times,serif" font-size="14.00" fill="white">Impl: ColumnVsColumn</text>
<text text-anchor="middle" x="452.5" y="-916.8" font-family="Times,serif" font-size="14.00" fill="white">l_commitdate &gt; l_shipdate</text>
<text text-anchor="middle" x="452.5" y="-885.8" font-family="Times,serif" font-size="14.00" fill="white">32 ms 194 µs</text>
</a>
</g>
</g>
<!-- 140657071410768&#45;&gt;140657071411408 -->
<g id="edge5" class="edge">
<title>140657071410768&#45;&gt;140657071411408</title>
<path fill="none" stroke="white" d="M534.44,-962.16C545.72,-971.39 555.74,-982.3 562.5,-995 612.63,-1089.15 617.27,-1143.47 562.5,-1235 560.14,-1238.94 557.37,-1242.6 554.28,-1245.99"/>
<polygon fill="white" stroke="white" points="554.23,-1246.04 551.79,-1243.52 547.05,-1252.99 554.23,-1246.04"/>
<text text-anchor="middle" x="718.5" y="-1118.8" font-family="Times,serif" font-size="14.00" fill="white">1,558,317 row(s)/9,156 chunk(s)</text>
</g>
<!-- 140657071411088 -->
<g id="node15" class="node">
<title>140657071411088</title>
<g id="a_node15"><a xlink:title="Output: 1462156 rows in 8 chunks filtered: 271787, 369 ms 874 µs.&#10;Operator step runtimes:&#10; BuildSideMaterializing 236 ms 381 µs&#10; ProbeSideMaterializing 24 ms 841 µs&#10; Clustering 42 ms 725 µs&#10; Building 3 ms 633 µs&#10; Probing 61 ms 2 µs&#10; OutputWriting 68 µs 278 ns.&#10;Radix bits: 4.&#10;Build side is right.">
<polygon fill="none" stroke="white" stroke-width="7.92" points="433.5,-1097 225.5,-1097 225.5,-1028 433.5,-1028 433.5,-1097"/>
<text text-anchor="middle" x="329.5" y="-1081.8" font-family="Times,serif" font-size="14.00" fill="white">JoinHash (Semi Reduction)</text>
<text text-anchor="middle" x="329.5" y="-1066.8" font-family="Times,serif" font-size="14.00" fill="white">o_orderkey = l_orderkey</text>
<text text-anchor="middle" x="329.5" y="-1035.8" font-family="Times,serif" font-size="14.00" fill="white">369 ms 874 µs</text>
</a>
</g>
</g>
<!-- 140657071410768&#45;&gt;140657071411088 -->
<g id="edge6" class="edge">
<title>140657071410768&#45;&gt;140657071411088</title>
<path fill="none" stroke="white" d="M360.46,-962.03C348.52,-971.19 337.89,-982.1 330.5,-995 326.54,-1001.9 324.65,-1009.91 323.98,-1017.92"/>
<polygon fill="white" stroke="white" points="323.74,-1027.99 327.48,-1018.08 323.98,-1018 323.74,-1027.99"/>
<text text-anchor="middle" x="446.5" y="-998.8" font-family="Times,serif" font-size="14.00" fill="white">1,558,317 row(s)/9,156 chunk(s)</text>
</g>
<!-- 140657071410448 -->
<g id="node7" class="node">
<title>140657071410448</title>
<g id="a_node7"><a xlink:title="Output: 8224650 rows in 9156 chunks filtered: 0, 35 ms 680 µs.&#10;Chunks: 0 skipped with no results, &#10;0 skipped with all matching, 0 scanned using binary search.">
<polygon fill="none" stroke="white" stroke-width="2.15" points="566,-812 339,-812 339,-728 566,-728 566,-812"/>
<text text-anchor="middle" x="452.5" y="-796.8" font-family="Times,serif" font-size="14.00" fill="white">TableScan</text>
<text text-anchor="middle" x="452.5" y="-781.8" font-family="Times,serif" font-size="14.00" fill="white">Impl: ColumnVsColumn</text>
<text text-anchor="middle" x="452.5" y="-766.8" font-family="Times,serif" font-size="14.00" fill="white">l_receiptdate &gt; l_commitdate</text>
<text text-anchor="middle" x="452.5" y="-735.8" font-family="Times,serif" font-size="14.00" fill="white">35 ms 680 µs</text>
</a>
</g>
</g>
<!-- 140657071410448&#45;&gt;140657071410768 -->
<g id="edge7" class="edge">
<title>140657071410448&#45;&gt;140657071410768</title>
<path fill="none" stroke="white" d="M452.5,-812.23C452.5,-829.47 452.5,-849.68 452.5,-867.85"/>
<polygon fill="white" stroke="white" points="449,-867.99 452.5,-877.99 456,-867.99 449,-867.99"/>
<text text-anchor="middle" x="568.5" y="-833.8" font-family="Times,serif" font-size="14.00" fill="white">8,224,650 row(s)/9,156 chunk(s)</text>
</g>
<!-- 140657071565072 -->
<g id="node8" class="node">
<title>140657071565072</title>
<g id="a_node8"><a xlink:title="Output: 13009043 rows in 9156 chunks filtered: 0, 14 ms 794 µs.">
<polygon fill="none" stroke="white" points="509,-677 396,-677 396,-623 509,-623 509,-677"/>
<text text-anchor="middle" x="452.5" y="-661.8" font-family="Times,serif" font-size="14.00" fill="white">Validate</text>
<text text-anchor="middle" x="452.5" y="-630.8" font-family="Times,serif" font-size="14.00" fill="white">14 ms 794 µs</text>
</a>
</g>
</g>
<!-- 140657071565072&#45;&gt;140657071410448 -->
<g id="edge8" class="edge">
<title>140657071565072&#45;&gt;140657071410448</title>
<path fill="none" stroke="white" d="M452.5,-677.19C452.5,-689.1 452.5,-703.63 452.5,-717.58"/>
<polygon fill="white" stroke="white" points="449,-717.59 452.5,-727.59 456,-717.59 449,-717.59"/>
<text text-anchor="middle" x="573" y="-698.8" font-family="Times,serif" font-size="14.00" fill="white">13,009,043 row(s)/9,156 chunk(s)</text>
</g>
<!-- 140657071410128 -->
<g id="node9" class="node">
<title>140657071410128</title>
<g id="a_node9"><a xlink:title="Output: 13009043 rows in 9156 chunks filtered: 0, 31 ms 597 µs.&#10;Chunks: 0 skipped with no results, &#10;0 skipped with all matching, 0 scanned using binary search.">
<polygon fill="none" stroke="white" stroke-width="1.85" points="668.5,-572 236.5,-572 236.5,-473 668.5,-473 668.5,-572"/>
<text text-anchor="middle" x="452.5" y="-556.8" font-family="Times,serif" font-size="14.00" fill="white">TableScan</text>
<text text-anchor="middle" x="452.5" y="-541.8" font-family="Times,serif" font-size="14.00" fill="white">Impl: ColumnBetween</text>
<text text-anchor="middle" x="452.5" y="-526.8" font-family="Times,serif" font-size="14.00" fill="white">l_receiptdate BETWEEN UPPER EXCLUSIVE &#39;1995&#45;01&#45;01&#39;</text>
<text text-anchor="middle" x="452.5" y="-511.8" font-family="Times,serif" font-size="14.00" fill="white">AND &#39;1996&#45;01&#45;01&#39;</text>
<text text-anchor="middle" x="452.5" y="-480.8" font-family="Times,serif" font-size="14.00" fill="white">31 ms 597 µs</text>
</a>
</g>
</g>
<!-- 140657071410128&#45;&gt;140657071565072 -->
<g id="edge9" class="edge">
<title>140657071410128&#45;&gt;140657071565072</title>
<path fill="none" stroke="white" d="M452.5,-572.02C452.5,-585.49 452.5,-599.89 452.5,-612.54"/>
<polygon fill="white" stroke="white" points="449,-612.7 452.5,-622.7 456,-612.7 449,-612.7"/>
<text text-anchor="middle" x="573" y="-593.8" font-family="Times,serif" font-size="14.00" fill="white">13,009,043 row(s)/9,156 chunk(s)</text>
</g>
<!-- 140657071566608 -->
<g id="node10" class="node">
<title>140657071566608</title>
<g id="a_node10"><a xlink:title="Output: 85725227 rows in 9156 chunks filtered: 0, 5 ms 682 µs.">
<polygon fill="none" stroke="white" points="504.5,-422 400.5,-422 400.5,-368 504.5,-368 504.5,-422"/>
<text text-anchor="middle" x="452.5" y="-406.8" font-family="Times,serif" font-size="14.00" fill="white">UnionAll</text>
<text text-anchor="middle" x="452.5" y="-375.8" font-family="Times,serif" font-size="14.00" fill="white">5 ms 682 µs</text>
</a>
</g>
</g>
<!-- 140657071566608&#45;&gt;140657071410128 -->
<g id="edge10" class="edge">
<title>140657071566608&#45;&gt;140657071410128</title>
<path fill="none" stroke="white" stroke-width="4.91" d="M452.5,-422C452.5,-433.85 452.5,-448.39 452.5,-462.66"/>
<polygon fill="white" stroke="white" stroke-width="4.91" points="448.2,-462.96 452.5,-472.96 456.8,-462.96 448.2,-462.96"/>
<text text-anchor="middle" x="573" y="-443.8" font-family="Times,serif" font-size="14.00" fill="white">85,725,227 row(s)/9,156 chunk(s)</text>
</g>
<!-- 140657071408848 -->
<g id="node11" class="node">
<title>140657071408848</title>
<g id="a_node11"><a xlink:title="Output: 42860070 rows in 4578 chunks filtered: 0, 23 ms 593 µs.&#10;Chunks: 0 skipped with no results, &#10;0 skipped with all matching, 0 scanned using binary search.">
<polygon fill="none" stroke="white" stroke-width="1.13" points="401,-317 232,-317 232,-233 401,-233 401,-317"/>
<text text-anchor="middle" x="316.5" y="-301.8" font-family="Times,serif" font-size="14.00" fill="white">TableScan</text>
<text text-anchor="middle" x="316.5" y="-286.8" font-family="Times,serif" font-size="14.00" fill="white">Impl: ColumnVsValue</text>
<text text-anchor="middle" x="316.5" y="-271.8" font-family="Times,serif" font-size="14.00" fill="white">l_shipmode = &#39;AIR&#39;</text>
<text text-anchor="middle" x="316.5" y="-240.8" font-family="Times,serif" font-size="14.00" fill="white">23 ms 593 µs</text>
</a>
</g>
</g>
<!-- 140657071408848&#45;&gt;140657071566608 -->
<g id="edge11" class="edge">
<title>140657071408848&#45;&gt;140657071566608</title>
<path fill="none" stroke="white" stroke-width="3.2" d="M309.22,-317.29C309.29,-328.82 311.59,-340.72 318.5,-350 335.23,-372.46 363.77,-383.63 390.21,-389.12"/>
<polygon fill="white" stroke="white" stroke-width="3.2" points="390.38,-389.15 389.75,-392.6 400.22,-390.96 390.38,-389.15"/>
<text text-anchor="middle" x="439" y="-338.8" font-family="Times,serif" font-size="14.00" fill="white">42,860,070 row(s)/4,578 chunk(s)</text>
</g>
<!-- 140657071285520 -->
<g id="node12" class="node">
<title>140657071285520</title>
<g id="a_node12"><a xlink:title="Output: 300005811 rows in 4578 chunks filtered: 0, 5 ms 683 µs.">
<polygon fill="none" stroke="white" points="516,-148 385,-148 385,-34 516,-34 516,-148"/>
<text text-anchor="middle" x="450.5" y="-132.8" font-family="Times,serif" font-size="14.00" fill="white">GetTable</text>
<text text-anchor="middle" x="450.5" y="-117.8" font-family="Times,serif" font-size="14.00" fill="white">(lineitem)</text>
<text text-anchor="middle" x="450.5" y="-102.8" font-family="Times,serif" font-size="14.00" fill="white">pruned:</text>
<text text-anchor="middle" x="450.5" y="-87.8" font-family="Times,serif" font-size="14.00" fill="white">0/4578 chunk(s)</text>
<text text-anchor="middle" x="450.5" y="-72.8" font-family="Times,serif" font-size="14.00" fill="white">11/16 column(s)</text>
<text text-anchor="middle" x="450.5" y="-41.8" font-family="Times,serif" font-size="14.00" fill="white">5 ms 683 µs</text>
</a>
</g>
</g>
<!-- 140657071285520&#45;&gt;140657071408848 -->
<g id="edge12" class="edge">
<title>140657071285520&#45;&gt;140657071408848</title>
<path fill="none" stroke="white" stroke-width="8" d="M384.94,-126.83C358.22,-144.81 330.19,-169.43 315.5,-200 312.17,-206.92 310.45,-214.65 309.77,-222.43"/>
<polygon fill="white" stroke="white" stroke-width="8" points="302.77,-222.39 309.43,-232.62 316.76,-222.86 302.77,-222.39"/>
<text text-anchor="middle" x="440.5" y="-203.8" font-family="Times,serif" font-size="14.00" fill="white">300,005,811 row(s)/4,578 chunk(s)</text>
</g>
<!-- 140657071409808 -->
<g id="node13" class="node">
<title>140657071409808</title>
<g id="a_node13"><a xlink:title="Output: 42865157 rows in 4578 chunks filtered: 0, 15 ms 530 µs.&#10;Chunks: 0 skipped with no results, &#10;0 skipped with all matching, 0 scanned using binary search.">
<polygon fill="none" stroke="white" points="671,-317 502,-317 502,-233 671,-233 671,-317"/>
<text text-anchor="middle" x="586.5" y="-301.8" font-family="Times,serif" font-size="14.00" fill="white">TableScan</text>
<text text-anchor="middle" x="586.5" y="-286.8" font-family="Times,serif" font-size="14.00" fill="white">Impl: ColumnVsValue</text>
<text text-anchor="middle" x="586.5" y="-271.8" font-family="Times,serif" font-size="14.00" fill="white">l_shipmode = &#39;RAIL&#39;</text>
<text text-anchor="middle" x="586.5" y="-240.8" font-family="Times,serif" font-size="14.00" fill="white">15 ms 530 µs</text>
</a>
</g>
</g>
<!-- 140657071285520&#45;&gt;140657071409808 -->
<g id="edge13" class="edge">
<title>140657071285520&#45;&gt;140657071409808</title>
<path fill="none" stroke="white" stroke-width="8" d="M489.83,-148.21C500.14,-160.4 511.92,-172.47 524.5,-182 540.36,-194.01 552.43,-185 565.5,-200 571.3,-206.66 575.51,-214.81 578.55,-223.25"/>
<polygon fill="white" stroke="white" stroke-width="8" points="571.88,-225.35 581.52,-232.82 585.25,-221.2 571.88,-225.35"/>
<text text-anchor="middle" x="700.5" y="-203.8" font-family="Times,serif" font-size="14.00" fill="white">300,005,811 row(s)/4,578 chunk(s)</text>
</g>
<!-- 140657071409808&#45;&gt;140657071566608 -->
<g id="edge14" class="edge">
<title>140657071409808&#45;&gt;140657071566608</title>
<path fill="none" stroke="white" stroke-width="3.2" d="M580.63,-317.02C577.25,-328.81 571.91,-340.92 563.5,-350 550.42,-364.11 532.24,-373.77 514.37,-380.36"/>
<polygon fill="white" stroke="white" stroke-width="3.2" points="504.51,-383.71 515.1,-383.81 513.97,-380.49 504.51,-383.71"/>
<text text-anchor="middle" x="694" y="-338.8" font-family="Times,serif" font-size="14.00" fill="white">42,865,157 row(s)/4,578 chunk(s)</text>
</g>
<!-- 140657071008016 -->
<g id="node14" class="node">
<title>140657071008016</title>
<g id="a_node14"><a xlink:title="Output: 1462156 rows in 8 chunks filtered: 0, 1 ms 742 µs.">
<polygon fill="none" stroke="white" points="406.5,-1202 302.5,-1202 302.5,-1148 406.5,-1148 406.5,-1202"/>
<text text-anchor="middle" x="354.5" y="-1186.8" font-family="Times,serif" font-size="14.00" fill="white">Validate</text>
<text text-anchor="middle" x="354.5" y="-1155.8" font-family="Times,serif" font-size="14.00" fill="white">1 ms 742 µs</text>
</a>
</g>
</g>
<!-- 140657071008016&#45;&gt;140657071411408 -->
<g id="edge15" class="edge">
<title>140657071008016&#45;&gt;140657071411408</title>
<path fill="none" stroke="white" d="M352.31,-1202.05C352.65,-1213.1 354.82,-1225.57 361.5,-1235 364.36,-1239.03 367.62,-1242.76 371.19,-1246.22"/>
<polygon fill="white" stroke="white" points="378.9,-1252.91 373.64,-1243.71 371.35,-1246.36 378.9,-1252.91"/>
<text text-anchor="middle" x="462" y="-1223.8" font-family="Times,serif" font-size="14.00" fill="white">1,462,156 row(s)/8 chunk(s)</text>
</g>
<!-- 140657071411088&#45;&gt;140657071008016 -->
<g id="edge16" class="edge">
<title>140657071411088&#45;&gt;140657071008016</title>
<path fill="none" stroke="white" d="M337.14,-1097.25C340.04,-1110.07 343.35,-1124.73 346.3,-1137.77"/>
<polygon fill="white" stroke="white" points="342.95,-1138.83 348.58,-1147.81 349.78,-1137.29 342.95,-1138.83"/>
<text text-anchor="middle" x="445" y="-1118.8" font-family="Times,serif" font-size="14.00" fill="white">1,462,156 row(s)/8 chunk(s)</text>
</g>
<!-- 140657071285072 -->
<g id="node16" class="node">
<title>140657071285072</title>
<g id="a_node16"><a xlink:title="Output: 75000000 rows in 1145 chunks filtered: 0, 2 ms 87 µs.">
<polygon fill="none" stroke="white" points="131,-977 0,-977 0,-863 131,-863 131,-977"/>
<text text-anchor="middle" x="65.5" y="-961.8" font-family="Times,serif" font-size="14.00" fill="white">GetTable</text>
<text text-anchor="middle" x="65.5" y="-946.8" font-family="Times,serif" font-size="14.00" fill="white">(orders)</text>
<text text-anchor="middle" x="65.5" y="-931.8" font-family="Times,serif" font-size="14.00" fill="white">pruned:</text>
<text text-anchor="middle" x="65.5" y="-916.8" font-family="Times,serif" font-size="14.00" fill="white">0/1145 chunk(s)</text>
<text text-anchor="middle" x="65.5" y="-901.8" font-family="Times,serif" font-size="14.00" fill="white">7/9 column(s)</text>
<text text-anchor="middle" x="65.5" y="-870.8" font-family="Times,serif" font-size="14.00" fill="white">2 ms 87 µs</text>
</a>
</g>
</g>
<!-- 140657071285072&#45;&gt;140657071411088 -->
<g id="edge17" class="edge">
<title>140657071285072&#45;&gt;140657071411088</title>
<path fill="none" stroke="white" stroke-width="4.58" d="M64.78,-977.02C67.19,-989.2 71.91,-1001.09 80.5,-1010 99.61,-1029.83 159.23,-1042.56 215.34,-1050.41"/>
<polygon fill="white" stroke="white" stroke-width="4.58" points="215.49,-1050.43 214.95,-1054.4 225.4,-1051.77 215.49,-1050.43"/>
<text text-anchor="middle" x="201" y="-998.8" font-family="Times,serif" font-size="14.00" fill="white">75,000,000 row(s)/1,145 chunk(s)</text>
</g>
<!-- 0 -->
<g id="node17" class="node">
<title>0</title>
<polygon fill="none" stroke="white" points="534,-0.5 534,-181.5 855,-181.5 855,-0.5 534,-0.5"/>
<text text-anchor="middle" x="694.5" y="-166.3" font-family="Times,serif" font-size="14.00" fill="white">Total by operator</text>
<polyline fill="none" stroke="white" points="534,-158.5 855,-158.5 "/>
<text text-anchor="end" x="663" y="-143.3" font-family="Times,serif" font-size="14.00" fill="white">JoinHash </text>
<text text-anchor="end" x="663" y="-128.3" font-family="Times,serif" font-size="14.00" fill="white"> AggregateHash </text>
<text text-anchor="end" x="663" y="-113.3" font-family="Times,serif" font-size="14.00" fill="white"> TableScan </text>
<text text-anchor="end" x="663" y="-98.3" font-family="Times,serif" font-size="14.00" fill="white"> Projection </text>
<text text-anchor="end" x="663" y="-83.3" font-family="Times,serif" font-size="14.00" fill="white"> Validate </text>
<text text-anchor="end" x="663" y="-68.3" font-family="Times,serif" font-size="14.00" fill="white"> GetTable </text>
<text text-anchor="end" x="663" y="-53.3" font-family="Times,serif" font-size="14.00" fill="white"> UnionAll </text>
<text text-anchor="end" x="663" y="-38.3" font-family="Times,serif" font-size="14.00" fill="white"> Sort </text>
<text text-anchor="end" x="663" y="-23.3" font-family="Times,serif" font-size="14.00" fill="white"> Alias </text>
<text text-anchor="end" x="663" y="-8.3" font-family="Times,serif" font-size="14.00" fill="white">total</text>
<polyline fill="none" stroke="white" points="671,-0.5 671,-158.5 "/>
<text text-anchor="start" x="679" y="-143.3" font-family="Times,serif" font-size="14.00" fill="white">751 ms 894 µs </text>
<text text-anchor="start" x="679" y="-128.3" font-family="Times,serif" font-size="14.00" fill="white"> 311 ms 645 µs </text>
<text text-anchor="start" x="679" y="-113.3" font-family="Times,serif" font-size="14.00" fill="white"> 138 ms 595 µs </text>
<text text-anchor="start" x="679" y="-98.3" font-family="Times,serif" font-size="14.00" fill="white"> 58 ms 739 µs </text>
<text text-anchor="start" x="679" y="-83.3" font-family="Times,serif" font-size="14.00" fill="white"> 16 ms 536 µs </text>
<text text-anchor="start" x="679" y="-68.3" font-family="Times,serif" font-size="14.00" fill="white"> 7 ms 770 µs </text>
<text text-anchor="start" x="679" y="-53.3" font-family="Times,serif" font-size="14.00" fill="white"> 5 ms 682 µs </text>
<text text-anchor="start" x="679" y="-38.3" font-family="Times,serif" font-size="14.00" fill="white"> 47 µs 569 ns </text>
<text text-anchor="start" x="679" y="-23.3" font-family="Times,serif" font-size="14.00" fill="white"> 4 µs 979 ns </text>
<text text-anchor="start" x="679" y="-8.3" font-family="Times,serif" font-size="14.00" fill="white"> 1 s 291 ms </text>
<polyline fill="none" stroke="white" points="802,-0.5 802,-158.5 "/>
<text text-anchor="start" x="810" y="-143.3" font-family="Times,serif" font-size="14.00" fill="white">58 %</text>
<text text-anchor="start" x="810" y="-128.3" font-family="Times,serif" font-size="14.00" fill="white">24 %</text>
<text text-anchor="start" x="810" y="-113.3" font-family="Times,serif" font-size="14.00" fill="white">11 %</text>
<text text-anchor="start" x="810" y="-98.3" font-family="Times,serif" font-size="14.00" fill="white">5 %</text>
<text text-anchor="start" x="810" y="-83.3" font-family="Times,serif" font-size="14.00" fill="white">1 %</text>
<text text-anchor="start" x="810" y="-68.3" font-family="Times,serif" font-size="14.00" fill="white">1 %</text>
<text text-anchor="start" x="810" y="-53.3" font-family="Times,serif" font-size="14.00" fill="white">0 %</text>
<text text-anchor="start" x="810" y="-38.3" font-family="Times,serif" font-size="14.00" fill="white">0 %</text>
<text text-anchor="start" x="810" y="-23.3" font-family="Times,serif" font-size="14.00" fill="white">0 %</text>
<text text-anchor="start" x="810" y="-8.3" font-family="Times,serif" font-size="14.00" fill="white"> </text>
</g>
</g>
</svg>
