<?xml version="1.0" encoding="UTF-8" standalone="no"?>
<!DOCTYPE svg PUBLIC "-//W3C//DTD SVG 1.1//EN"
 "http://www.w3.org/Graphics/SVG/1.1/DTD/svg11.dtd">
<!-- Generated by graphviz version 2.43.0 (0)
 -->
<!-- Title: G Pages: 1 -->
<svg width="1196pt" height="2303pt"
 viewBox="0.00 0.00 1195.50 2303.00" xmlns="http://www.w3.org/2000/svg" xmlns:xlink="http://www.w3.org/1999/xlink">
<g id="graph0" class="graph" transform="scale(1 1) rotate(0) translate(4 2299)">
<title>G</title>
<polygon fill="black" stroke="transparent" points="-4,4 -4,-2299 1191.5,-2299 1191.5,4 -4,4"/>
<text text-anchor="middle" x="319.5" y="-2279.8" font-family="Times,serif" font-size="14.00" fill="white">For tooltips with advanced information, hover your mouse over vertices or edge labels.</text>
<!-- 139964375792592 -->
<g id="node1" class="node">
<title>139964375792592</title>
<g id="a_node1"><a xlink:title="Output: 100 rows in 1 chunk, 16 µs 210 ns.&#10;Operator step runtimes:&#10; ForwardUnmodifiedColumns 5 µs 650 ns&#10; EvaluateNewColumns 1 µs 733 ns&#10; BuildOutput 7 µs 64 ns.">
<polygon fill="none" stroke="white" points="522.5,-2240 414.5,-2240 414.5,-2186 522.5,-2186 522.5,-2240"/>
<text text-anchor="middle" x="468.5" y="-2224.8" font-family="Times,serif" font-size="14.00" fill="white">Projection</text>
<text text-anchor="middle" x="468.5" y="-2193.8" font-family="Times,serif" font-size="14.00" fill="white">16 µs 210 ns</text>
</a>
</g>
</g>
<!-- 140282177172240 -->
<g id="node2" class="node">
<title>140282177172240</title>
<g id="a_node2"><a xlink:title="Output: 100 rows in 1 chunk, 21 µs 590 ns.">
<polygon fill="none" stroke="white" points="522.5,-2135 414.5,-2135 414.5,-2081 522.5,-2081 522.5,-2135"/>
<text text-anchor="middle" x="468.5" y="-2119.8" font-family="Times,serif" font-size="14.00" fill="white">Limit</text>
<text text-anchor="middle" x="468.5" y="-2088.8" font-family="Times,serif" font-size="14.00" fill="white">21 µs 590 ns</text>
</a>
</g>
</g>
<!-- 140282177172240&#45;&gt;139964375792592 -->
<g id="edge1" class="edge">
<title>140282177172240&#45;&gt;139964375792592</title>
<path fill="none" stroke="white" d="M468.5,-2135.26C468.5,-2147.49 468.5,-2162.24 468.5,-2175.52"/>
<polygon fill="white" stroke="white" points="465,-2175.79 468.5,-2185.79 472,-2175.79 465,-2175.79"/>
<text text-anchor="middle" x="546.5" y="-2156.8" font-family="Times,serif" font-size="14.00" fill="white">100 row(s)/1 chunk(s)</text>
</g>
<!-- 139964375792912 -->
<g id="node3" class="node">
<title>139964375792912</title>
<g id="a_node3"><a xlink:title="Output: 47578 rows in 1 chunk, 89 ms 798 µs.&#10;Operator step runtimes:&#10; MaterializeSortColumns 30 ms 695 µs&#10; Sort 50 ms 900 µs&#10; TemporaryResultWriting 540 µs 536 ns&#10; WriteOutput 6 ms 750 µs.">
<polygon fill="none" stroke="white" stroke-width="8" points="525,-2030 412,-2030 412,-1976 525,-1976 525,-2030"/>
<text text-anchor="middle" x="468.5" y="-2014.8" font-family="Times,serif" font-size="14.00" fill="white">Sort</text>
<text text-anchor="middle" x="468.5" y="-1983.8" font-family="Times,serif" font-size="14.00" fill="white">89 ms 798 µs</text>
</a>
</g>
</g>
<!-- 139964375792912&#45;&gt;140282177172240 -->
<g id="edge2" class="edge">
<title>139964375792912&#45;&gt;140282177172240</title>
<path fill="none" stroke="white" d="M468.5,-2030.26C468.5,-2042.49 468.5,-2057.24 468.5,-2070.52"/>
<polygon fill="white" stroke="white" points="465,-2070.79 468.5,-2080.79 472,-2070.79 465,-2070.79"/>
<text text-anchor="middle" x="557.5" y="-2051.8" font-family="Times,serif" font-size="14.00" fill="white">47,578 row(s)/1 chunk(s)</text>
</g>
<!-- 139964375792272 -->
<g id="node4" class="node">
<title>139964375792272</title>
<g id="a_node4"><a xlink:title="Output: 47578 rows in 52 chunks, 14 ms 101 µs.&#10;Operator step runtimes:&#10; BuildSideMaterializing 592 µs 933 ns&#10; ProbeSideMaterializing 2 ms 493 µs&#10; Clustering 0 ns&#10; Building 2 ms 547 µs&#10; Probing 7 ms 366 µs&#10; OutputWriting 940 µs 575 ns.&#10;Radix bits: 0.&#10;Build side is right.">
<polygon fill="none" stroke="white" stroke-width="3.43" points="608,-1925 329,-1925 329,-1841 608,-1841 608,-1925"/>
<text text-anchor="middle" x="468.5" y="-1909.8" font-family="Times,serif" font-size="14.00" fill="white">JoinHash (Semi)</text>
<text text-anchor="middle" x="468.5" y="-1894.8" font-family="Times,serif" font-size="14.00" fill="white">ps_supplycost = MIN(ps_supplycost)</text>
<text text-anchor="middle" x="468.5" y="-1879.8" font-family="Times,serif" font-size="14.00" fill="white">AND p_partkey = ps_partkey</text>
<text text-anchor="middle" x="468.5" y="-1848.8" font-family="Times,serif" font-size="14.00" fill="white">14 ms 101 µs</text>
</a>
</g>
</g>
<!-- 139964375792272&#45;&gt;139964375792912 -->
<g id="edge3" class="edge">
<title>139964375792272&#45;&gt;139964375792912</title>
<path fill="none" stroke="white" d="M468.5,-1925.27C468.5,-1938.36 468.5,-1952.72 468.5,-1965.45"/>
<polygon fill="white" stroke="white" points="465,-1965.69 468.5,-1975.69 472,-1965.69 465,-1965.69"/>
<text text-anchor="middle" x="562" y="-1946.8" font-family="Times,serif" font-size="14.00" fill="white">47,578 row(s)/52 chunk(s)</text>
</g>
<!-- 139964375791312 -->
<g id="node5" class="node">
<title>139964375791312</title>
<g id="a_node5"><a xlink:title="Output: 64408 rows in 102 chunks, 22 ms 16 µs.&#10;Operator step runtimes:&#10; BuildSideMaterializing 4 ms 46 µs&#10; ProbeSideMaterializing 10 ms 283 µs&#10; Clustering 0 ns&#10; Building 4 ms 787 µs&#10; Probing 1 ms 606 µs&#10; OutputWriting 1 ms 77 µs.&#10;Radix bits: 0.&#10;Build side is left.">
<polygon fill="none" stroke="white" stroke-width="4.53" points="421.5,-1790 235.5,-1790 235.5,-1721 421.5,-1721 421.5,-1790"/>
<text text-anchor="middle" x="328.5" y="-1774.8" font-family="Times,serif" font-size="14.00" fill="white">JoinHash (Inner)</text>
<text text-anchor="middle" x="328.5" y="-1759.8" font-family="Times,serif" font-size="14.00" fill="white">ps_partkey = p_partkey</text>
<text text-anchor="middle" x="328.5" y="-1728.8" font-family="Times,serif" font-size="14.00" fill="white">22 ms 16 µs</text>
</a>
</g>
</g>
<!-- 139964375791312&#45;&gt;139964375792272 -->
<g id="edge4" class="edge">
<title>139964375791312&#45;&gt;139964375792272</title>
<path fill="none" stroke="white" d="M352.85,-1790.27C361.57,-1801.3 371.9,-1813.22 382.5,-1823 386.76,-1826.93 391.31,-1830.8 395.99,-1834.57"/>
<polygon fill="white" stroke="white" points="396.1,-1834.65 393.95,-1837.41 403.99,-1840.8 396.1,-1834.65"/>
<text text-anchor="middle" x="480.5" y="-1811.8" font-family="Times,serif" font-size="14.00" fill="white">64,408 row(s)/102 chunk(s)</text>
</g>
<!-- 139964375790992 -->
<g id="node6" class="node">
<title>139964375790992</title>
<g id="a_node6"><a xlink:title="Output: 64408 rows in 16 chunks, 24 ms 887 µs.&#10;Operator step runtimes:&#10; BuildSideMaterializing 18 ms 927 µs&#10; ProbeSideMaterializing 585 µs 899 ns&#10; Clustering 0 ns&#10; Building 4 ms 333 µs&#10; Probing 556 µs 584 ns&#10; OutputWriting 376 µs 887 ns.&#10;Radix bits: 0.&#10;Build side is left.">
<polygon fill="none" stroke="white" stroke-width="4.84" points="425.5,-1601 231.5,-1601 231.5,-1532 425.5,-1532 425.5,-1601"/>
<text text-anchor="middle" x="328.5" y="-1585.8" font-family="Times,serif" font-size="14.00" fill="white">JoinHash (Inner)</text>
<text text-anchor="middle" x="328.5" y="-1570.8" font-family="Times,serif" font-size="14.00" fill="white">ps_suppkey = s_suppkey</text>
<text text-anchor="middle" x="328.5" y="-1539.8" font-family="Times,serif" font-size="14.00" fill="white">24 ms 887 µs</text>
</a>
</g>
</g>
<!-- 139964375790992&#45;&gt;139964375791312 -->
<g id="edge5" class="edge">
<title>139964375790992&#45;&gt;139964375791312</title>
<path fill="none" stroke="white" d="M328.5,-1601.36C328.5,-1631.95 328.5,-1677.13 328.5,-1710.5"/>
<polygon fill="white" stroke="white" points="328.5,-1710.89 325,-1710.89 328.5,-1720.89 328.5,-1710.89"/>
<text text-anchor="middle" x="422" y="-1657.3" font-family="Times,serif" font-size="14.00" fill="white">64,408 row(s)/16 chunk(s)</text>
</g>
<!-- 140282177167632 -->
<g id="node7" class="node">
<title>140282177167632</title>
<g id="a_node7"><a xlink:title="Output: 64408 rows in 2 chunks, 858 µs 622 ns.">
<polygon fill="none" stroke="white" points="536,-1481 419,-1481 419,-1427 536,-1427 536,-1481"/>
<text text-anchor="middle" x="477.5" y="-1465.8" font-family="Times,serif" font-size="14.00" fill="white">Validate</text>
<text text-anchor="middle" x="477.5" y="-1434.8" font-family="Times,serif" font-size="14.00" fill="white">858 µs 622 ns</text>
</a>
</g>
</g>
<!-- 140282177167632&#45;&gt;139964375790992 -->
<g id="edge6" class="edge">
<title>140282177167632&#45;&gt;139964375790992</title>
<path fill="none" stroke="white" d="M442.19,-1481.19C424.19,-1494.54 401.92,-1511.05 381.87,-1525.92"/>
<polygon fill="white" stroke="white" points="381.76,-1526 379.68,-1523.19 373.73,-1531.95 381.76,-1526"/>
<text text-anchor="middle" x="504.5" y="-1502.8" font-family="Times,serif" font-size="14.00" fill="white">64,408 row(s)/2 chunk(s)</text>
</g>
<!-- 139964375790672 -->
<g id="node8" class="node">
<title>139964375790672</title>
<g id="a_node8"><a xlink:title="Output: 64408 rows in 2 chunks, 14 ms 403 µs.&#10;Operator step runtimes:&#10; BuildSideMaterializing 528 µs 733 ns&#10; ProbeSideMaterializing 10 ms 328 µs&#10; Clustering 843 µs 103 ns&#10; Building 922 µs 40 ns&#10; Probing 681 µs 158 ns&#10; OutputWriting 1 ms 78 µs.&#10;Radix bits: 1.&#10;Build side is right.">
<polygon fill="none" stroke="white" stroke-width="3.49" points="616.5,-1376 408.5,-1376 408.5,-1307 616.5,-1307 616.5,-1376"/>
<text text-anchor="middle" x="512.5" y="-1360.8" font-family="Times,serif" font-size="14.00" fill="white">JoinHash (Semi Reduction)</text>
<text text-anchor="middle" x="512.5" y="-1345.8" font-family="Times,serif" font-size="14.00" fill="white">ps_suppkey = s_suppkey</text>
<text text-anchor="middle" x="512.5" y="-1314.8" font-family="Times,serif" font-size="14.00" fill="white">14 ms 403 µs</text>
</a>
</g>
</g>
<!-- 139964375790672&#45;&gt;140282177167632 -->
<g id="edge7" class="edge">
<title>139964375790672&#45;&gt;140282177167632</title>
<path fill="none" stroke="white" d="M501.81,-1376.25C497.71,-1389.2 493.02,-1404.02 488.85,-1417.15"/>
<polygon fill="white" stroke="white" points="485.48,-1416.22 485.79,-1426.81 492.15,-1418.34 485.48,-1416.22"/>
<text text-anchor="middle" x="584.5" y="-1397.8" font-family="Times,serif" font-size="14.00" fill="white">64,408 row(s)/2 chunk(s)</text>
</g>
<!-- 139964375787152 -->
<g id="node9" class="node">
<title>139964375787152</title>
<g id="a_node9"><a xlink:title="Output: 320148 rows in 533 chunks, 52 ms 325 µs.&#10;Operator step runtimes:&#10; BuildSideMaterializing 13 ms 506 µs&#10; ProbeSideMaterializing 24 ms 913 µs&#10; Clustering 0 ns&#10; Building 1 ms 134 µs&#10; Probing 3 ms 924 µs&#10; OutputWriting 4 ms 543 µs.&#10;Radix bits: 0.&#10;Build side is right.">
<polygon fill="none" stroke="white" stroke-width="6.67" points="666.5,-1256 458.5,-1256 458.5,-1187 666.5,-1187 666.5,-1256"/>
<text text-anchor="middle" x="562.5" y="-1240.8" font-family="Times,serif" font-size="14.00" fill="white">JoinHash (Semi Reduction)</text>
<text text-anchor="middle" x="562.5" y="-1225.8" font-family="Times,serif" font-size="14.00" fill="white">ps_partkey = p_partkey</text>
<text text-anchor="middle" x="562.5" y="-1194.8" font-family="Times,serif" font-size="14.00" fill="white">52 ms 325 µs</text>
</a>
</g>
</g>
<!-- 139964375787152&#45;&gt;139964375790672 -->
<g id="edge8" class="edge">
<title>139964375787152&#45;&gt;139964375790672</title>
<path fill="none" stroke="white" d="M548.17,-1256.31C542.78,-1269.03 536.58,-1283.66 530.88,-1297.13"/>
<polygon fill="white" stroke="white" points="530.73,-1297.47 527.51,-1296.11 526.83,-1306.68 530.73,-1297.47"/>
<text text-anchor="middle" x="642" y="-1277.8" font-family="Times,serif" font-size="14.00" fill="white">320,148 row(s)/533 chunk(s)</text>
</g>
<!-- 139964375791952 -->
<g id="node27" class="node">
<title>139964375791952</title>
<g id="a_node27"><a xlink:title="Output: 64408 rows in 2 chunks, 66 ms 116 µs.&#10;Operator step runtimes:&#10; BuildSideMaterializing 14 ms 484 µs&#10; ProbeSideMaterializing 26 ms 557 µs&#10; Clustering 22 ms 883 µs&#10; Building 867 µs 759 ns&#10; Probing 305 µs 784 ns&#10; OutputWriting 986 µs 872 ns.&#10;Radix bits: 1.&#10;Build side is right.">
<polygon fill="none" stroke="white" stroke-width="7.24" points="870.5,-1376 676.5,-1376 676.5,-1307 870.5,-1307 870.5,-1376"/>
<text text-anchor="middle" x="773.5" y="-1360.8" font-family="Times,serif" font-size="14.00" fill="white">JoinHash (Semi)</text>
<text text-anchor="middle" x="773.5" y="-1345.8" font-family="Times,serif" font-size="14.00" fill="white">ps_suppkey = s_suppkey</text>
<text text-anchor="middle" x="773.5" y="-1314.8" font-family="Times,serif" font-size="14.00" fill="white">66 ms 116 µs</text>
</a>
</g>
</g>
<!-- 139964375787152&#45;&gt;139964375791952 -->
<g id="edge9" class="edge">
<title>139964375787152&#45;&gt;139964375791952</title>
<path fill="none" stroke="white" d="M666.66,-1233.46C695.99,-1240.97 726,-1253.43 748.5,-1274 755.39,-1280.3 760.38,-1288.68 764.01,-1297.36"/>
<polygon fill="white" stroke="white" points="764.03,-1297.41 760.74,-1298.61 767.43,-1306.82 764.03,-1297.41"/>
<text text-anchor="middle" x="861" y="-1277.8" font-family="Times,serif" font-size="14.00" fill="white">320,148 row(s)/533 chunk(s)</text>
</g>
<!-- 140282177067472 -->
<g id="node10" class="node">
<title>140282177067472</title>
<g id="a_node10"><a xlink:title="Output: 80000000 rows in 1221 chunks, 3 ms 394 µs.">
<polygon fill="none" stroke="white" points="641,-1097 510,-1097 510,-983 641,-983 641,-1097"/>
<text text-anchor="middle" x="575.5" y="-1081.8" font-family="Times,serif" font-size="14.00" fill="white">GetTable</text>
<text text-anchor="middle" x="575.5" y="-1066.8" font-family="Times,serif" font-size="14.00" fill="white">(partsupp)</text>
<text text-anchor="middle" x="575.5" y="-1051.8" font-family="Times,serif" font-size="14.00" fill="white">pruned:</text>
<text text-anchor="middle" x="575.5" y="-1036.8" font-family="Times,serif" font-size="14.00" fill="white">0/1221 chunk(s)</text>
<text text-anchor="middle" x="575.5" y="-1021.8" font-family="Times,serif" font-size="14.00" fill="white">2/5 column(s)</text>
<text text-anchor="middle" x="575.5" y="-990.8" font-family="Times,serif" font-size="14.00" fill="white">3 ms 394 µs</text>
</a>
</g>
</g>
<!-- 140282177067472&#45;&gt;139964375787152 -->
<g id="edge10" class="edge">
<title>140282177067472&#45;&gt;139964375787152</title>
<path fill="none" stroke="white" stroke-width="8" d="M571.42,-1097.3C569.57,-1122.92 567.4,-1152.77 565.67,-1176.68"/>
<polygon fill="white" stroke="white" stroke-width="8" points="565.66,-1176.89 558.68,-1176.39 564.94,-1186.87 565.66,-1176.89"/>
<text text-anchor="middle" x="690" y="-1138.3" font-family="Times,serif" font-size="14.00" fill="white">80,000,000 row(s)/1,221 chunk(s)</text>
</g>
<!-- 140282177171472 -->
<g id="node11" class="node">
<title>140282177171472</title>
<g id="a_node11"><a xlink:title="Output: 80037 rows in 306 chunks, 439 µs 526 ns.">
<polygon fill="none" stroke="white" points="148,-1067 31,-1067 31,-1013 148,-1013 148,-1067"/>
<text text-anchor="middle" x="89.5" y="-1051.8" font-family="Times,serif" font-size="14.00" fill="white">Validate</text>
<text text-anchor="middle" x="89.5" y="-1020.8" font-family="Times,serif" font-size="14.00" fill="white">439 µs 526 ns</text>
</a>
</g>
</g>
<!-- 140282177171472&#45;&gt;139964375791312 -->
<g id="edge12" class="edge">
<title>140282177171472&#45;&gt;139964375791312</title>
<path fill="none" stroke="white" d="M85.95,-1067.1C81.51,-1101.99 74.5,-1165.77 74.5,-1220.5 74.5,-1220.5 74.5,-1220.5 74.5,-1567.5 74.5,-1646.63 155.44,-1696.01 225.94,-1724.02"/>
<polygon fill="white" stroke="white" points="235.36,-1727.66 227.3,-1720.79 226.03,-1724.05 235.36,-1727.66"/>
<text text-anchor="middle" x="172.5" y="-1397.8" font-family="Times,serif" font-size="14.00" fill="white">80,037 row(s)/306 chunk(s)</text>
</g>
<!-- 140282177171472&#45;&gt;139964375787152 -->
<g id="edge11" class="edge">
<title>140282177171472&#45;&gt;139964375787152</title>
<path fill="none" stroke="white" d="M91.82,-1067.09C96.01,-1097.12 107.74,-1145.31 140.5,-1169 167.29,-1188.37 404.87,-1181.69 437.5,-1187 441.15,-1187.59 444.85,-1188.25 448.58,-1188.96"/>
<polygon fill="white" stroke="white" points="458.49,-1190.95 449.37,-1185.55 448.68,-1188.98 458.49,-1190.95"/>
<text text-anchor="middle" x="238.5" y="-1138.3" font-family="Times,serif" font-size="14.00" fill="white">80,037 row(s)/306 chunk(s)</text>
</g>
<!-- 139964375786832 -->
<g id="node12" class="node">
<title>139964375786832</title>
<g id="a_node12"><a xlink:title="Output: 80037 rows in 306 chunks, 1 ms 273 µs.&#10;Chunks: 0 skipped with no results, &#10;0 skipped with all matching, 0 scanned using binary search.">
<polygon fill="none" stroke="white" points="179,-932 0,-932 0,-848 179,-848 179,-932"/>
<text text-anchor="middle" x="89.5" y="-916.8" font-family="Times,serif" font-size="14.00" fill="white">TableScan</text>
<text text-anchor="middle" x="89.5" y="-901.8" font-family="Times,serif" font-size="14.00" fill="white">Impl: ColumnLike</text>
<text text-anchor="middle" x="89.5" y="-886.8" font-family="Times,serif" font-size="14.00" fill="white">p_type LIKE &#39;%BRASS&#39;</text>
<text text-anchor="middle" x="89.5" y="-855.8" font-family="Times,serif" font-size="14.00" fill="white">1 ms 273 µs</text>
</a>
</g>
</g>
<!-- 139964375786832&#45;&gt;140282177171472 -->
<g id="edge13" class="edge">
<title>139964375786832&#45;&gt;140282177171472</title>
<path fill="none" stroke="white" d="M89.5,-932.23C89.5,-954.32 89.5,-981.31 89.5,-1002.62"/>
<polygon fill="white" stroke="white" points="86,-1002.88 89.5,-1012.88 93,-1002.88 86,-1002.88"/>
<text text-anchor="middle" x="187.5" y="-953.8" font-family="Times,serif" font-size="14.00" fill="white">80,037 row(s)/306 chunk(s)</text>
</g>
<!-- 139964375786512 -->
<g id="node13" class="node">
<title>139964375786512</title>
<g id="a_node13"><a xlink:title="Output: 400610 rows in 306 chunks, 1 ms 653 µs.&#10;Chunks: 0 skipped with no results, &#10;0 skipped with all matching, 0 scanned using binary search.">
<polygon fill="none" stroke="white" points="174,-782 5,-782 5,-698 174,-698 174,-782"/>
<text text-anchor="middle" x="89.5" y="-766.8" font-family="Times,serif" font-size="14.00" fill="white">TableScan</text>
<text text-anchor="middle" x="89.5" y="-751.8" font-family="Times,serif" font-size="14.00" fill="white">Impl: ColumnVsValue</text>
<text text-anchor="middle" x="89.5" y="-736.8" font-family="Times,serif" font-size="14.00" fill="white">p_size = 8</text>
<text text-anchor="middle" x="89.5" y="-705.8" font-family="Times,serif" font-size="14.00" fill="white">1 ms 653 µs</text>
</a>
</g>
</g>
<!-- 139964375786512&#45;&gt;139964375786832 -->
<g id="edge14" class="edge">
<title>139964375786512&#45;&gt;139964375786832</title>
<path fill="none" stroke="white" d="M89.5,-782.23C89.5,-799.47 89.5,-819.68 89.5,-837.85"/>
<polygon fill="white" stroke="white" points="86,-837.99 89.5,-847.99 93,-837.99 86,-837.99"/>
<text text-anchor="middle" x="192" y="-818.8" font-family="Times,serif" font-size="14.00" fill="white">400,610 row(s)/306 chunk(s)</text>
</g>
<!-- 140282177068368 -->
<g id="node14" class="node">
<title>140282177068368</title>
<g id="a_node14"><a xlink:title="Output: 20000000 rows in 306 chunks, 929 µs 174 ns.">
<polygon fill="none" stroke="white" points="150.5,-632 28.5,-632 28.5,-518 150.5,-518 150.5,-632"/>
<text text-anchor="middle" x="89.5" y="-616.8" font-family="Times,serif" font-size="14.00" fill="white">GetTable</text>
<text text-anchor="middle" x="89.5" y="-601.8" font-family="Times,serif" font-size="14.00" fill="white">(part)</text>
<text text-anchor="middle" x="89.5" y="-586.8" font-family="Times,serif" font-size="14.00" fill="white">pruned:</text>
<text text-anchor="middle" x="89.5" y="-571.8" font-family="Times,serif" font-size="14.00" fill="white">0/306 chunk(s)</text>
<text text-anchor="middle" x="89.5" y="-556.8" font-family="Times,serif" font-size="14.00" fill="white">5/9 column(s)</text>
<text text-anchor="middle" x="89.5" y="-525.8" font-family="Times,serif" font-size="14.00" fill="white">929 µs 174 ns</text>
</a>
</g>
</g>
<!-- 140282177068368&#45;&gt;139964375786512 -->
<g id="edge15" class="edge">
<title>140282177068368&#45;&gt;139964375786512</title>
<path fill="none" stroke="white" stroke-width="4.58" d="M89.5,-632.1C89.5,-650.19 89.5,-670.13 89.5,-687.85"/>
<polygon fill="white" stroke="white" stroke-width="4.58" points="85.49,-687.99 89.5,-697.99 93.51,-687.99 85.49,-687.99"/>
<text text-anchor="middle" x="203.5" y="-653.8" font-family="Times,serif" font-size="14.00" fill="white">20,000,000 row(s)/306 chunk(s)</text>
</g>
<!-- 139964375790352 -->
<g id="node15" class="node">
<title>139964375790352</title>
<g id="a_node15"><a xlink:title="Output: 199889 rows in 16 chunks, 1 ms 414 µs.&#10;Operator step runtimes:&#10; BuildSideMaterializing 27 µs 121 ns&#10; ProbeSideMaterializing 458 µs 310 ns&#10; Clustering 0 ns&#10; Building 2 µs 254 ns&#10; Probing 411 µs 703 ns&#10; OutputWriting 429 µs 326 ns.&#10;Radix bits: 0.&#10;Build side is right.">
<polygon fill="none" stroke="white" points="428,-1256 221,-1256 221,-1187 428,-1187 428,-1256"/>
<text text-anchor="middle" x="324.5" y="-1240.8" font-family="Times,serif" font-size="14.00" fill="white">JoinHash (Inner)</text>
<text text-anchor="middle" x="324.5" y="-1225.8" font-family="Times,serif" font-size="14.00" fill="white">s_nationkey = n_nationkey</text>
<text text-anchor="middle" x="324.5" y="-1194.8" font-family="Times,serif" font-size="14.00" fill="white">1 ms 414 µs</text>
</a>
</g>
</g>
<!-- 139964375790352&#45;&gt;139964375790992 -->
<g id="edge17" class="edge">
<title>139964375790352&#45;&gt;139964375790992</title>
<path fill="none" stroke="white" d="M312.57,-1256.02C300.74,-1293.21 285.22,-1355.11 291.5,-1409 296.02,-1447.79 306.65,-1490.9 315.36,-1522.04"/>
<polygon fill="white" stroke="white" points="318.11,-1531.71 318.74,-1521.14 315.37,-1522.09 318.11,-1531.71"/>
<text text-anchor="middle" x="389.5" y="-1397.8" font-family="Times,serif" font-size="14.00" fill="white">199,889 row(s)/16 chunk(s)</text>
</g>
<!-- 139964375790352&#45;&gt;139964375790672 -->
<g id="edge16" class="edge">
<title>139964375790352&#45;&gt;139964375790672</title>
<path fill="none" stroke="white" d="M322.49,-1256.02C323.47,-1267.66 326.65,-1280.04 334.5,-1289 351.15,-1308.02 374.35,-1320.21 398.51,-1327.98"/>
<polygon fill="white" stroke="white" points="408.16,-1330.85 399.57,-1324.65 398.58,-1328 408.16,-1330.85"/>
<text text-anchor="middle" x="432.5" y="-1277.8" font-family="Times,serif" font-size="14.00" fill="white">199,889 row(s)/16 chunk(s)</text>
</g>
<!-- 140145745513744 -->
<g id="node16" class="node">
<title>140145745513744</title>
<g id="a_node16"><a xlink:title="Output: 199889 rows in 16 chunks, 66 µs 575 ns.">
<polygon fill="none" stroke="white" points="475.5,-1067 367.5,-1067 367.5,-1013 475.5,-1013 475.5,-1067"/>
<text text-anchor="middle" x="421.5" y="-1051.8" font-family="Times,serif" font-size="14.00" fill="white">Validate</text>
<text text-anchor="middle" x="421.5" y="-1020.8" font-family="Times,serif" font-size="14.00" fill="white">66 µs 575 ns</text>
</a>
</g>
</g>
<!-- 140145745513744&#45;&gt;139964375790352 -->
<g id="edge18" class="edge">
<title>140145745513744&#45;&gt;139964375790352</title>
<path fill="none" stroke="white" d="M398.86,-1067.17C387.82,-1080.8 374.93,-1098.12 365.5,-1115 354.6,-1134.52 345.29,-1157.53 338.31,-1177.07"/>
<polygon fill="white" stroke="white" points="338.27,-1177.2 334.96,-1176.05 334.98,-1186.64 338.27,-1177.2"/>
<text text-anchor="middle" x="463.5" y="-1138.3" font-family="Times,serif" font-size="14.00" fill="white">199,889 row(s)/16 chunk(s)</text>
</g>
<!-- 139964375790032 -->
<g id="node17" class="node">
<title>139964375790032</title>
<g id="a_node17"><a xlink:title="Output: 199889 rows in 16 chunks, 1 ms 574 µs.&#10;Operator step runtimes:&#10; BuildSideMaterializing 33 µs 353 ns&#10; ProbeSideMaterializing 819 µs 388 ns&#10; Clustering 0 ns&#10; Building 1 µs 402 ns&#10; Probing 212 µs 138 ns&#10; OutputWriting 346 µs 140 ns.&#10;Radix bits: 0.&#10;Build side is right.">
<polygon fill="none" stroke="white" points="588.5,-924.5 380.5,-924.5 380.5,-855.5 588.5,-855.5 588.5,-924.5"/>
<text text-anchor="middle" x="484.5" y="-909.3" font-family="Times,serif" font-size="14.00" fill="white">JoinHash (Semi Reduction)</text>
<text text-anchor="middle" x="484.5" y="-894.3" font-family="Times,serif" font-size="14.00" fill="white">s_nationkey = n_nationkey</text>
<text text-anchor="middle" x="484.5" y="-863.3" font-family="Times,serif" font-size="14.00" fill="white">1 ms 574 µs</text>
</a>
</g>
</g>
<!-- 139964375790032&#45;&gt;140145745513744 -->
<g id="edge19" class="edge">
<title>139964375790032&#45;&gt;140145745513744</title>
<path fill="none" stroke="white" d="M476.15,-924.69C472.54,-937.52 467.9,-952.15 462.5,-965 456.97,-978.17 449.73,-992 442.87,-1004.11"/>
<polygon fill="white" stroke="white" points="439.72,-1002.57 437.74,-1012.98 445.78,-1006.08 439.72,-1002.57"/>
<text text-anchor="middle" x="565.5" y="-953.8" font-family="Times,serif" font-size="14.00" fill="white">199,889 row(s)/16 chunk(s)</text>
</g>
<!-- 140282177068816 -->
<g id="node18" class="node">
<title>140282177068816</title>
<g id="a_node18"><a xlink:title="Output: 1000000 rows in 16 chunks, 51 µs 186 ns.">
<polygon fill="none" stroke="white" points="791,-797 678,-797 678,-683 791,-683 791,-797"/>
<text text-anchor="middle" x="734.5" y="-781.8" font-family="Times,serif" font-size="14.00" fill="white">GetTable</text>
<text text-anchor="middle" x="734.5" y="-766.8" font-family="Times,serif" font-size="14.00" fill="white">(supplier)</text>
<text text-anchor="middle" x="734.5" y="-751.8" font-family="Times,serif" font-size="14.00" fill="white">pruned:</text>
<text text-anchor="middle" x="734.5" y="-736.8" font-family="Times,serif" font-size="14.00" fill="white">0/16 chunk(s)</text>
<text text-anchor="middle" x="734.5" y="-721.8" font-family="Times,serif" font-size="14.00" fill="white">0/7 column(s)</text>
<text text-anchor="middle" x="734.5" y="-690.8" font-family="Times,serif" font-size="14.00" fill="white">51 µs 186 ns</text>
</a>
</g>
</g>
<!-- 140282177068816&#45;&gt;139964375790032 -->
<g id="edge20" class="edge">
<title>140282177068816&#45;&gt;139964375790032</title>
<path fill="none" stroke="white" d="M677.84,-753.11C636.19,-764.1 579.88,-783.49 538.5,-815 527.1,-823.68 517.03,-835.42 508.77,-846.99"/>
<polygon fill="white" stroke="white" points="508.71,-847.08 505.82,-845.11 503.08,-855.34 508.71,-847.08"/>
<text text-anchor="middle" x="643.5" y="-818.8" font-family="Times,serif" font-size="14.00" fill="white">1,000,000 row(s)/16 chunk(s)</text>
</g>
<!-- 139964375791632 -->
<g id="node29" class="node">
<title>139964375791632</title>
<g id="a_node29"><a xlink:title="Output: 199889 rows in 16 chunks, 1 ms 412 µs.&#10;Operator step runtimes:&#10; BuildSideMaterializing 60 µs 82 ns&#10; ProbeSideMaterializing 837 µs 62 ns&#10; Clustering 0 ns&#10; Building 4 µs 619 ns&#10; Probing 199 µs 865 ns&#10; OutputWriting 171 µs 71 ns.&#10;Radix bits: 0.&#10;Build side is right.">
<polygon fill="none" stroke="white" points="1035,-924.5 828,-924.5 828,-855.5 1035,-855.5 1035,-924.5"/>
<text text-anchor="middle" x="931.5" y="-909.3" font-family="Times,serif" font-size="14.00" fill="white">JoinHash (Semi)</text>
<text text-anchor="middle" x="931.5" y="-894.3" font-family="Times,serif" font-size="14.00" fill="white">s_nationkey = n_nationkey</text>
<text text-anchor="middle" x="931.5" y="-863.3" font-family="Times,serif" font-size="14.00" fill="white">1 ms 412 µs</text>
</a>
</g>
</g>
<!-- 140282177068816&#45;&gt;139964375791632 -->
<g id="edge21" class="edge">
<title>140282177068816&#45;&gt;139964375791632</title>
<path fill="none" stroke="white" d="M791.18,-751.72C829.61,-761.81 878.82,-780.71 909.5,-815 917.09,-823.49 922.07,-834.5 925.33,-845.42"/>
<polygon fill="white" stroke="white" points="925.39,-845.65 922,-846.52 927.87,-855.34 925.39,-845.65"/>
<text text-anchor="middle" x="1023.5" y="-818.8" font-family="Times,serif" font-size="14.00" fill="white">1,000,000 row(s)/16 chunk(s)</text>
</g>
<!-- 140282177169936 -->
<g id="node19" class="node">
<title>140282177169936</title>
<g id="a_node19"><a xlink:title="Output: 5 rows in 1 chunk, 11 µs 141 ns.">
<polygon fill="none" stroke="white" points="430.5,-767 322.5,-767 322.5,-713 430.5,-713 430.5,-767"/>
<text text-anchor="middle" x="376.5" y="-751.8" font-family="Times,serif" font-size="14.00" fill="white">Validate</text>
<text text-anchor="middle" x="376.5" y="-720.8" font-family="Times,serif" font-size="14.00" fill="white">11 µs 141 ns</text>
</a>
</g>
</g>
<!-- 140282177169936&#45;&gt;139964375790352 -->
<g id="edge23" class="edge">
<title>140282177169936&#45;&gt;139964375790352</title>
<path fill="none" stroke="white" d="M367.07,-767.27C353.56,-806.45 329.35,-882.78 320.5,-950 310.07,-1029.23 315.27,-1122.64 319.93,-1176.38"/>
<polygon fill="white" stroke="white" points="320.85,-1186.58 323.44,-1176.31 319.96,-1176.62 320.85,-1186.58"/>
<text text-anchor="middle" x="389.5" y="-953.8" font-family="Times,serif" font-size="14.00" fill="white">5 row(s)/1 chunk(s)</text>
</g>
<!-- 140282177169936&#45;&gt;139964375790032 -->
<g id="edge22" class="edge">
<title>140282177169936&#45;&gt;139964375790032</title>
<path fill="none" stroke="white" d="M370.22,-767.03C367.16,-785.85 366.24,-811.17 377.5,-830 381.67,-836.98 386.99,-843.19 393.03,-848.7"/>
<polygon fill="white" stroke="white" points="401.01,-855.32 395.55,-846.25 393.32,-848.94 401.01,-855.32"/>
<text text-anchor="middle" x="446.5" y="-818.8" font-family="Times,serif" font-size="14.00" fill="white">5 row(s)/1 chunk(s)</text>
</g>
<!-- 140282177169936&#45;&gt;139964375791632 -->
<g id="edge24" class="edge">
<title>140282177169936&#45;&gt;139964375791632</title>
<path fill="none" stroke="white" d="M430.77,-751.1C530.49,-769.76 734.09,-808.35 748.5,-815 758.27,-819.51 758.09,-824.78 767.5,-830 783.35,-838.8 800.76,-846.71 818.14,-853.67"/>
<polygon fill="white" stroke="white" points="827.77,-857.44 819.73,-850.54 818.46,-853.8 827.77,-857.44"/>
<text text-anchor="middle" x="836.5" y="-818.8" font-family="Times,serif" font-size="14.00" fill="white">5 row(s)/1 chunk(s)</text>
</g>
<!-- 139964375788112 -->
<g id="node20" class="node">
<title>139964375788112</title>
<g id="a_node20"><a xlink:title="Output: 5 rows in 1 chunk, 99 µs 497 ns.&#10;Operator step runtimes:&#10; BuildSideMaterializing 42 µs 489 ns&#10; ProbeSideMaterializing 24 µs 657 ns&#10; Clustering 0 ns&#10; Building 4 µs 308 ns&#10; Probing 1 µs 563 ns&#10; OutputWriting 9 µs 327 ns.&#10;Radix bits: 0.&#10;Build side is right.">
<polygon fill="none" stroke="white" points="480.5,-609.5 272.5,-609.5 272.5,-540.5 480.5,-540.5 480.5,-609.5"/>
<text text-anchor="middle" x="376.5" y="-594.3" font-family="Times,serif" font-size="14.00" fill="white">JoinHash (Semi)</text>
<text text-anchor="middle" x="376.5" y="-579.3" font-family="Times,serif" font-size="14.00" fill="white">n_regionkey = r_regionkey</text>
<text text-anchor="middle" x="376.5" y="-548.3" font-family="Times,serif" font-size="14.00" fill="white">99 µs 497 ns</text>
</a>
</g>
</g>
<!-- 139964375788112&#45;&gt;140282177169936 -->
<g id="edge25" class="edge">
<title>139964375788112&#45;&gt;140282177169936</title>
<path fill="none" stroke="white" d="M376.5,-609.77C376.5,-636.89 376.5,-674.9 376.5,-702.68"/>
<polygon fill="white" stroke="white" points="373,-702.78 376.5,-712.78 380,-702.78 373,-702.78"/>
<text text-anchor="middle" x="445.5" y="-653.8" font-family="Times,serif" font-size="14.00" fill="white">5 row(s)/1 chunk(s)</text>
</g>
<!-- 140282177067920 -->
<g id="node21" class="node">
<title>140282177067920</title>
<g id="a_node21"><a xlink:title="Output: 25 rows in 1 chunk, 21 µs 430 ns.">
<polygon fill="none" stroke="white" points="348,-467 235,-467 235,-353 348,-353 348,-467"/>
<text text-anchor="middle" x="291.5" y="-451.8" font-family="Times,serif" font-size="14.00" fill="white">GetTable</text>
<text text-anchor="middle" x="291.5" y="-436.8" font-family="Times,serif" font-size="14.00" fill="white">(nation)</text>
<text text-anchor="middle" x="291.5" y="-421.8" font-family="Times,serif" font-size="14.00" fill="white">pruned:</text>
<text text-anchor="middle" x="291.5" y="-406.8" font-family="Times,serif" font-size="14.00" fill="white">0/1 chunk(s)</text>
<text text-anchor="middle" x="291.5" y="-391.8" font-family="Times,serif" font-size="14.00" fill="white">1/4 column(s)</text>
<text text-anchor="middle" x="291.5" y="-360.8" font-family="Times,serif" font-size="14.00" fill="white">21 µs 430 ns</text>
</a>
</g>
</g>
<!-- 140282177067920&#45;&gt;139964375788112 -->
<g id="edge26" class="edge">
<title>140282177067920&#45;&gt;139964375788112</title>
<path fill="none" stroke="white" d="M285.12,-467.17C285.75,-478.42 287.86,-489.89 292.5,-500 298.24,-512.51 307.23,-523.76 317.23,-533.49"/>
<polygon fill="white" stroke="white" points="317.29,-533.55 314.93,-536.13 324.66,-540.31 317.29,-533.55"/>
<text text-anchor="middle" x="366" y="-488.8" font-family="Times,serif" font-size="14.00" fill="white">25 row(s)/1 chunk(s)</text>
</g>
<!-- 140282177170704 -->
<g id="node22" class="node">
<title>140282177170704</title>
<g id="a_node22"><a xlink:title="Output: 1 row in 1 chunk, 7 µs 955 ns.">
<polygon fill="none" stroke="white" points="511,-437 412,-437 412,-383 511,-383 511,-437"/>
<text text-anchor="middle" x="461.5" y="-421.8" font-family="Times,serif" font-size="14.00" fill="white">Validate</text>
<text text-anchor="middle" x="461.5" y="-390.8" font-family="Times,serif" font-size="14.00" fill="white">7 µs 955 ns</text>
</a>
</g>
</g>
<!-- 140282177170704&#45;&gt;139964375788112 -->
<g id="edge27" class="edge">
<title>140282177170704&#45;&gt;139964375788112</title>
<path fill="none" stroke="white" d="M458.31,-437.05C455.29,-455.41 449.67,-480.17 439.5,-500 433.67,-511.37 425.77,-522.49 417.54,-532.52"/>
<polygon fill="white" stroke="white" points="410.91,-540.3 420.06,-534.96 417.39,-532.69 410.91,-540.3"/>
<text text-anchor="middle" x="514.5" y="-488.8" font-family="Times,serif" font-size="14.00" fill="white">1 row(s)/1 chunk(s)</text>
</g>
<!-- 139964375787472 -->
<g id="node23" class="node">
<title>139964375787472</title>
<g id="a_node23"><a xlink:title="Output: 1 row in 1 chunk, 32 µs 171 ns.&#10;Chunks: 0 skipped with no results, &#10;0 skipped with all matching, 0 scanned using binary search.">
<polygon fill="none" stroke="white" points="546,-302 377,-302 377,-218 546,-218 546,-302"/>
<text text-anchor="middle" x="461.5" y="-286.8" font-family="Times,serif" font-size="14.00" fill="white">TableScan</text>
<text text-anchor="middle" x="461.5" y="-271.8" font-family="Times,serif" font-size="14.00" fill="white">Impl: ColumnVsValue</text>
<text text-anchor="middle" x="461.5" y="-256.8" font-family="Times,serif" font-size="14.00" fill="white">r_name = &#39;ASIA&#39;</text>
<text text-anchor="middle" x="461.5" y="-225.8" font-family="Times,serif" font-size="14.00" fill="white">32 µs 171 ns</text>
</a>
</g>
</g>
<!-- 139964375787472&#45;&gt;140282177170704 -->
<g id="edge28" class="edge">
<title>139964375787472&#45;&gt;140282177170704</title>
<path fill="none" stroke="white" d="M461.5,-302.23C461.5,-324.32 461.5,-351.31 461.5,-372.62"/>
<polygon fill="white" stroke="white" points="458,-372.88 461.5,-382.88 465,-372.88 458,-372.88"/>
<text text-anchor="middle" x="530.5" y="-323.8" font-family="Times,serif" font-size="14.00" fill="white">1 row(s)/1 chunk(s)</text>
</g>
<!-- 140282177069264 -->
<g id="node24" class="node">
<title>140282177069264</title>
<g id="a_node24"><a xlink:title="Output: 5 rows in 1 chunk, 20 µs 859 ns.">
<polygon fill="none" stroke="white" points="518,-140.5 405,-140.5 405,-26.5 518,-26.5 518,-140.5"/>
<text text-anchor="middle" x="461.5" y="-125.3" font-family="Times,serif" font-size="14.00" fill="white">GetTable</text>
<text text-anchor="middle" x="461.5" y="-110.3" font-family="Times,serif" font-size="14.00" fill="white">(region)</text>
<text text-anchor="middle" x="461.5" y="-95.3" font-family="Times,serif" font-size="14.00" fill="white">pruned:</text>
<text text-anchor="middle" x="461.5" y="-80.3" font-family="Times,serif" font-size="14.00" fill="white">0/1 chunk(s)</text>
<text text-anchor="middle" x="461.5" y="-65.3" font-family="Times,serif" font-size="14.00" fill="white">1/3 column(s)</text>
<text text-anchor="middle" x="461.5" y="-34.3" font-family="Times,serif" font-size="14.00" fill="white">20 µs 859 ns</text>
</a>
</g>
</g>
<!-- 140282177069264&#45;&gt;139964375787472 -->
<g id="edge29" class="edge">
<title>140282177069264&#45;&gt;139964375787472</title>
<path fill="none" stroke="white" d="M461.5,-140.67C461.5,-162.25 461.5,-186.74 461.5,-207.83"/>
<polygon fill="white" stroke="white" points="458,-207.87 461.5,-217.87 465,-207.87 458,-207.87"/>
<text text-anchor="middle" x="530.5" y="-188.8" font-family="Times,serif" font-size="14.00" fill="white">5 row(s)/1 chunk(s)</text>
</g>
<!-- 140282175790608 -->
<g id="node25" class="node">
<title>140282175790608</title>
<g id="a_node25"><a xlink:title="Output: 47578 rows in 1 chunk, 27 ms 20 µs.&#10;Operator step runtimes:&#10; GroupByKeyPartitioning 9 ms 720 µs&#10; Aggregating 16 ms 706 µs&#10; GroupByColumnsWriting 407 µs 34 ns&#10; AggregateColumnsWriting 156 µs 554 ns&#10; OutputWriting 10 µs 130 ns.">
<polygon fill="none" stroke="white" stroke-width="5.04" points="718.5,-1703 538.5,-1703 538.5,-1619 718.5,-1619 718.5,-1703"/>
<text text-anchor="middle" x="628.5" y="-1687.8" font-family="Times,serif" font-size="14.00" fill="white">AggregateHash</text>
<text text-anchor="middle" x="628.5" y="-1672.8" font-family="Times,serif" font-size="14.00" fill="white">GroupBy {ps_partkey}</text>
<text text-anchor="middle" x="628.5" y="-1657.8" font-family="Times,serif" font-size="14.00" fill="white">MIN(ps_supplycost)</text>
<text text-anchor="middle" x="628.5" y="-1626.8" font-family="Times,serif" font-size="14.00" fill="white">27 ms 20 µs</text>
</a>
</g>
</g>
<!-- 140282175790608&#45;&gt;139964375792272 -->
<g id="edge30" class="edge">
<title>140282175790608&#45;&gt;139964375792272</title>
<path fill="none" stroke="white" d="M624.47,-1703.13C619.13,-1738.36 606.81,-1788.68 578.5,-1823 575.18,-1827.02 571.51,-1830.81 567.59,-1834.37"/>
<polygon fill="white" stroke="white" points="559.76,-1840.95 569.67,-1837.2 567.42,-1834.52 559.76,-1840.95"/>
<text text-anchor="middle" x="709.5" y="-1751.8" font-family="Times,serif" font-size="14.00" fill="white">47,578 row(s)/1 chunk(s)</text>
</g>
<!-- 140282177171984 -->
<g id="node26" class="node">
<title>140282177171984</title>
<g id="a_node26"><a xlink:title="Output: 64408 rows in 2 chunks, 988 µs 205 ns.">
<polygon fill="none" stroke="white" points="732,-1481 615,-1481 615,-1427 732,-1427 732,-1481"/>
<text text-anchor="middle" x="673.5" y="-1465.8" font-family="Times,serif" font-size="14.00" fill="white">Validate</text>
<text text-anchor="middle" x="673.5" y="-1434.8" font-family="Times,serif" font-size="14.00" fill="white">988 µs 205 ns</text>
</a>
</g>
</g>
<!-- 140282177171984&#45;&gt;140282175790608 -->
<g id="edge31" class="edge">
<title>140282177171984&#45;&gt;140282175790608</title>
<path fill="none" stroke="white" d="M667.71,-1481.38C660.66,-1513.48 648.61,-1568.4 639.72,-1608.89"/>
<polygon fill="white" stroke="white" points="636.26,-1608.33 637.53,-1618.85 643.1,-1609.83 636.26,-1608.33"/>
<text text-anchor="middle" x="752.5" y="-1502.8" font-family="Times,serif" font-size="14.00" fill="white">64,408 row(s)/2 chunk(s)</text>
</g>
<!-- 139964375791952&#45;&gt;140282177171984 -->
<g id="edge32" class="edge">
<title>139964375791952&#45;&gt;140282177171984</title>
<path fill="none" stroke="white" d="M742.95,-1376.25C730.66,-1389.84 716.51,-1405.47 704.2,-1419.07"/>
<polygon fill="white" stroke="white" points="701.31,-1417.05 697.2,-1426.81 706.5,-1421.75 701.31,-1417.05"/>
<text text-anchor="middle" x="814.5" y="-1397.8" font-family="Times,serif" font-size="14.00" fill="white">64,408 row(s)/2 chunk(s)</text>
</g>
<!-- 140282177170960 -->
<g id="node28" class="node">
<title>140282177170960</title>
<g id="a_node28"><a xlink:title="Output: 199889 rows in 16 chunks, 83 µs 106 ns.">
<polygon fill="none" stroke="white" points="1037.5,-1169 929.5,-1169 929.5,-1115 1037.5,-1115 1037.5,-1169"/>
<text text-anchor="middle" x="983.5" y="-1153.8" font-family="Times,serif" font-size="14.00" fill="white">Validate</text>
<text text-anchor="middle" x="983.5" y="-1122.8" font-family="Times,serif" font-size="14.00" fill="white">83 µs 106 ns</text>
</a>
</g>
</g>
<!-- 140282177170960&#45;&gt;139964375791952 -->
<g id="edge33" class="edge">
<title>140282177170960&#45;&gt;139964375791952</title>
<path fill="none" stroke="white" d="M988.7,-1169.1C993.49,-1201.27 996.1,-1255.75 967.5,-1289 955.25,-1303.25 918.88,-1314.63 880.89,-1323.04"/>
<polygon fill="white" stroke="white" points="870.69,-1325.22 881.2,-1326.55 880.47,-1323.13 870.69,-1325.22"/>
<text text-anchor="middle" x="1089.5" y="-1217.8" font-family="Times,serif" font-size="14.00" fill="white">199,889 row(s)/16 chunk(s)</text>
</g>
<!-- 139964375791632&#45;&gt;140282177170960 -->
<g id="edge34" class="edge">
<title>139964375791632&#45;&gt;140282177170960</title>
<path fill="none" stroke="white" d="M938.51,-924.72C948.28,-971.65 965.89,-1056.34 975.94,-1104.65"/>
<polygon fill="white" stroke="white" points="972.56,-1105.59 978.02,-1114.66 979.41,-1104.16 972.56,-1105.59"/>
<text text-anchor="middle" x="1044.5" y="-953.8" font-family="Times,serif" font-size="14.00" fill="white">199,889 row(s)/16 chunk(s)</text>
</g>
<!-- 0 -->
<g id="node30" class="node">
<title>0</title>
<polygon fill="none" stroke="white" points="535.5,-0.5 535.5,-166.5 851.5,-166.5 851.5,-0.5 535.5,-0.5"/>
<text text-anchor="middle" x="693.5" y="-151.3" font-family="Times,serif" font-size="14.00" fill="white">Total by operator</text>
<polyline fill="none" stroke="white" points="535.5,-143.5 851.5,-143.5 "/>
<text text-anchor="end" x="664.5" y="-128.3" font-family="Times,serif" font-size="14.00" fill="white">JoinHash </text>
<text text-anchor="end" x="664.5" y="-113.3" font-family="Times,serif" font-size="14.00" fill="white"> Sort </text>
<text text-anchor="end" x="664.5" y="-98.3" font-family="Times,serif" font-size="14.00" fill="white"> AggregateHash </text>
<text text-anchor="end" x="664.5" y="-83.3" font-family="Times,serif" font-size="14.00" fill="white"> GetTable </text>
<text text-anchor="end" x="664.5" y="-68.3" font-family="Times,serif" font-size="14.00" fill="white"> TableScan </text>
<text text-anchor="end" x="664.5" y="-53.3" font-family="Times,serif" font-size="14.00" fill="white"> Validate </text>
<text text-anchor="end" x="664.5" y="-38.3" font-family="Times,serif" font-size="14.00" fill="white"> Limit </text>
<text text-anchor="end" x="664.5" y="-23.3" font-family="Times,serif" font-size="14.00" fill="white"> Projection </text>
<text text-anchor="end" x="664.5" y="-8.3" font-family="Times,serif" font-size="14.00" fill="white">total</text>
<polyline fill="none" stroke="white" points="672.5,-0.5 672.5,-143.5 "/>
<text text-anchor="start" x="680.5" y="-128.3" font-family="Times,serif" font-size="14.00" fill="white">198 ms 348 µs </text>
<text text-anchor="start" x="680.5" y="-113.3" font-family="Times,serif" font-size="14.00" fill="white"> 89 ms 798 µs </text>
<text text-anchor="start" x="680.5" y="-98.3" font-family="Times,serif" font-size="14.00" fill="white"> 27 ms 20 µs </text>
<text text-anchor="start" x="680.5" y="-83.3" font-family="Times,serif" font-size="14.00" fill="white"> 4 ms 417 µs </text>
<text text-anchor="start" x="680.5" y="-68.3" font-family="Times,serif" font-size="14.00" fill="white"> 2 ms 959 µs </text>
<text text-anchor="start" x="680.5" y="-53.3" font-family="Times,serif" font-size="14.00" fill="white"> 2 ms 455 µs </text>
<text text-anchor="start" x="680.5" y="-38.3" font-family="Times,serif" font-size="14.00" fill="white"> 21 µs 590 ns </text>
<text text-anchor="start" x="680.5" y="-23.3" font-family="Times,serif" font-size="14.00" fill="white"> 16 µs 210 ns </text>
<text text-anchor="start" x="680.5" y="-8.3" font-family="Times,serif" font-size="14.00" fill="white"> 325 ms 35 µs </text>
<polyline fill="none" stroke="white" points="798.5,-0.5 798.5,-143.5 "/>
<text text-anchor="start" x="806.5" y="-128.3" font-family="Times,serif" font-size="14.00" fill="white">61 %</text>
<text text-anchor="start" x="806.5" y="-113.3" font-family="Times,serif" font-size="14.00" fill="white">28 %</text>
<text text-anchor="start" x="806.5" y="-98.3" font-family="Times,serif" font-size="14.00" fill="white">8 %</text>
<text text-anchor="start" x="806.5" y="-83.3" font-family="Times,serif" font-size="14.00" fill="white">1 %</text>
<text text-anchor="start" x="806.5" y="-68.3" font-family="Times,serif" font-size="14.00" fill="white">1 %</text>
<text text-anchor="start" x="806.5" y="-53.3" font-family="Times,serif" font-size="14.00" fill="white">1 %</text>
<text text-anchor="start" x="806.5" y="-38.3" font-family="Times,serif" font-size="14.00" fill="white">0 %</text>
<text text-anchor="start" x="806.5" y="-23.3" font-family="Times,serif" font-size="14.00" fill="white">0 %</text>
<text text-anchor="start" x="806.5" y="-8.3" font-family="Times,serif" font-size="14.00" fill="white"> </text>
</g>
</g>
</svg>
