<?xml version="1.0" encoding="UTF-8" standalone="no"?>
<!DOCTYPE svg PUBLIC "-//W3C//DTD SVG 1.1//EN"
 "http://www.w3.org/Graphics/SVG/1.1/DTD/svg11.dtd">
<!-- Generated by graphviz version 2.43.0 (0)
 -->
<!-- Title: G Pages: 1 -->
<svg width="726pt" height="1115pt"
 viewBox="0.00 0.00 726.00 1115.00" xmlns="http://www.w3.org/2000/svg" xmlns:xlink="http://www.w3.org/1999/xlink">
<g id="graph0" class="graph" transform="scale(1 1) rotate(0) translate(4 1111)">
<title>G</title>
<polygon fill="black" stroke="transparent" points="-4,4 -4,-1111 722,-1111 722,4 -4,4"/>
<text text-anchor="middle" x="319.5" y="-1091.8" font-family="Times,serif" font-size="14.00" fill="white">For tooltips with advanced information, hover your mouse over vertices or edge labels.</text>
<!-- 139867817603088 -->
<g id="node1" class="node">
<title>139867817603088</title>
<g id="a_node1"><a xlink:title="Output: 1 row in 1 chunk, 3 µs 396 ns.">
<polygon fill="none" stroke="white" points="424.5,-1052 287.5,-1052 287.5,-983 424.5,-983 424.5,-1052"/>
<text text-anchor="middle" x="356" y="-1036.8" font-family="Times,serif" font-size="14.00" fill="white">Alias</text>
<text text-anchor="middle" x="356" y="-1021.8" font-family="Times,serif" font-size="14.00" fill="white">[promo_revenue]</text>
<text text-anchor="middle" x="356" y="-990.8" font-family="Times,serif" font-size="14.00" fill="white">3 µs 396 ns</text>
</a>
</g>
</g>
<!-- 140282447539280 -->
<g id="node2" class="node">
<title>140282447539280</title>
<g id="a_node2"><a xlink:title="Output: 1 row in 1 chunk, 64 µs 621 ns.&#10;Operator step runtimes:&#10; ForwardUnmodifiedColumns 2 µs 444 ns&#10; EvaluateNewColumns 32 µs 541 ns&#10; BuildOutput 26 µs 711 ns.">
<polygon fill="none" stroke="white" points="410,-932 302,-932 302,-878 410,-878 410,-932"/>
<text text-anchor="middle" x="356" y="-916.8" font-family="Times,serif" font-size="14.00" fill="white">Projection</text>
<text text-anchor="middle" x="356" y="-885.8" font-family="Times,serif" font-size="14.00" fill="white">64 µs 621 ns</text>
</a>
</g>
</g>
<!-- 140282447539280&#45;&gt;139867817603088 -->
<g id="edge1" class="edge">
<title>140282447539280&#45;&gt;139867817603088</title>
<path fill="none" stroke="white" d="M356,-932.19C356,-944.29 356,-959 356,-972.72"/>
<polygon fill="white" stroke="white" points="352.5,-972.95 356,-982.95 359.5,-972.96 352.5,-972.95"/>
<text text-anchor="middle" x="425" y="-953.8" font-family="Times,serif" font-size="14.00" fill="white">1 row(s)/1 chunk(s)</text>
</g>
<!-- 140282447937552 -->
<g id="node3" class="node">
<title>140282447937552</title>
<g id="a_node3"><a xlink:title="Output: 1 row in 1 chunk, 34 ms 253 µs.&#10;Operator step runtimes:&#10; GroupByKeyPartitioning 21 ns&#10; Aggregating 34 ms 206 µs&#10; GroupByColumnsWriting 3 µs 416 ns&#10; AggregateColumnsWriting 20 µs 18 ns&#10; OutputWriting 12 µs 514 ns.">
<polygon fill="none" stroke="white" stroke-width="3" points="572.5,-827 139.5,-827 139.5,-698 572.5,-698 572.5,-827"/>
<text text-anchor="middle" x="356" y="-811.8" font-family="Times,serif" font-size="14.00" fill="white">AggregateHash</text>
<text text-anchor="middle" x="356" y="-796.8" font-family="Times,serif" font-size="14.00" fill="white">GroupBy {}</text>
<text text-anchor="middle" x="356" y="-781.8" font-family="Times,serif" font-size="14.00" fill="white">SUM(l_extendedprice * (1 &#45; l_discount)), </text>
<text text-anchor="middle" x="356" y="-766.8" font-family="Times,serif" font-size="14.00" fill="white">SUM(CASE WHEN p_type BETWEEN UPPER EXCLUSIVE</text>
<text text-anchor="middle" x="356" y="-751.8" font-family="Times,serif" font-size="14.00" fill="white">&#39;PROMO&#39; AND &#39;PROMP&#39; THEN l_extendedprice * (1 &#45;</text>
<text text-anchor="middle" x="356" y="-736.8" font-family="Times,serif" font-size="14.00" fill="white">l_discount) ELSE 0 END)</text>
<text text-anchor="middle" x="356" y="-705.8" font-family="Times,serif" font-size="14.00" fill="white">34 ms 253 µs</text>
</a>
</g>
</g>
<!-- 140282447937552&#45;&gt;140282447539280 -->
<g id="edge2" class="edge">
<title>140282447937552&#45;&gt;140282447539280</title>
<path fill="none" stroke="white" d="M356,-827.17C356,-840.99 356,-855.14 356,-867.48"/>
<polygon fill="white" stroke="white" points="352.5,-867.8 356,-877.8 359.5,-867.8 352.5,-867.8"/>
<text text-anchor="middle" x="425" y="-848.8" font-family="Times,serif" font-size="14.00" fill="white">1 row(s)/1 chunk(s)</text>
</g>
<!-- 140282447538960 -->
<g id="node4" class="node">
<title>140282447538960</title>
<g id="a_node4"><a xlink:title="Output: 7729088 rows in 64 chunks, 154 ms 141 µs.&#10;Operator step runtimes:&#10; ForwardUnmodifiedColumns 58 µs 811 ns&#10; EvaluateNewColumns 153 ms 856 µs&#10; BuildOutput 166 µs 974 ns.">
<polygon fill="none" stroke="white" stroke-width="6.71" points="417,-647 295,-647 295,-593 417,-593 417,-647"/>
<text text-anchor="middle" x="356" y="-631.8" font-family="Times,serif" font-size="14.00" fill="white">Projection</text>
<text text-anchor="middle" x="356" y="-600.8" font-family="Times,serif" font-size="14.00" fill="white">154 ms 141 µs</text>
</a>
</g>
</g>
<!-- 140282447538960&#45;&gt;140282447937552 -->
<g id="edge3" class="edge">
<title>140282447538960&#45;&gt;140282447937552</title>
<path fill="none" stroke="white" d="M356,-647.1C356,-658.77 356,-673.17 356,-687.78"/>
<polygon fill="white" stroke="white" points="352.5,-687.89 356,-697.89 359.5,-687.89 352.5,-687.89"/>
<text text-anchor="middle" x="461" y="-668.8" font-family="Times,serif" font-size="14.00" fill="white">7,729,088 row(s)/64 chunk(s)</text>
</g>
<!-- 140282447539600 -->
<g id="node5" class="node">
<title>140282447539600</title>
<g id="a_node5"><a xlink:title="Output: 7729088 rows in 64 chunks, 259 ms 878 µs.&#10;Operator step runtimes:&#10; BuildSideMaterializing 173 ms 347 µs&#10; ProbeSideMaterializing 7 ms 343 µs&#10; Clustering 22 ms 490 µs&#10; Building 23 ms 304 µs&#10; Probing 14 ms 110 µs&#10; OutputWriting 18 ms 528 µs.&#10;Radix bits: 6.&#10;Build side is left.">
<polygon fill="none" stroke="white" stroke-width="8" points="443,-542 269,-542 269,-473 443,-473 443,-542"/>
<text text-anchor="middle" x="356" y="-526.8" font-family="Times,serif" font-size="14.00" fill="white">JoinHash (Inner)</text>
<text text-anchor="middle" x="356" y="-511.8" font-family="Times,serif" font-size="14.00" fill="white">l_partkey = p_partkey</text>
<text text-anchor="middle" x="356" y="-480.8" font-family="Times,serif" font-size="14.00" fill="white">259 ms 878 µs</text>
</a>
</g>
</g>
<!-- 140282447539600&#45;&gt;140282447538960 -->
<g id="edge4" class="edge">
<title>140282447539600&#45;&gt;140282447538960</title>
<path fill="none" stroke="white" d="M356,-542.25C356,-555.07 356,-569.73 356,-582.77"/>
<polygon fill="white" stroke="white" points="352.5,-582.81 356,-592.81 359.5,-582.81 352.5,-582.81"/>
<text text-anchor="middle" x="461" y="-563.8" font-family="Times,serif" font-size="14.00" fill="white">7,729,088 row(s)/64 chunk(s)</text>
</g>
<!-- 140282446541584 -->
<g id="node6" class="node">
<title>140282446541584</title>
<g id="a_node6"><a xlink:title="Output: 7729088 rows in 9156 chunks, 15 ms 42 µs.">
<polygon fill="none" stroke="white" points="274,-422 170,-422 170,-368 274,-368 274,-422"/>
<text text-anchor="middle" x="222" y="-406.8" font-family="Times,serif" font-size="14.00" fill="white">Validate</text>
<text text-anchor="middle" x="222" y="-375.8" font-family="Times,serif" font-size="14.00" fill="white">15 ms 42 µs</text>
</a>
</g>
</g>
<!-- 140282446541584&#45;&gt;140282447539600 -->
<g id="edge5" class="edge">
<title>140282446541584&#45;&gt;140282447539600</title>
<path fill="none" stroke="white" d="M222.05,-422.11C223.3,-433.29 226.52,-445.86 234,-455 241.21,-463.81 250.19,-471.13 259.99,-477.22"/>
<polygon fill="white" stroke="white" points="260.11,-477.29 258.37,-480.33 268.79,-482.26 260.11,-477.29"/>
<text text-anchor="middle" x="350" y="-443.8" font-family="Times,serif" font-size="14.00" fill="white">7,729,088 row(s)/9,156 chunk(s)</text>
</g>
<!-- 140282447539920 -->
<g id="node7" class="node">
<title>140282447539920</title>
<g id="a_node7"><a xlink:title="Output: 7729088 rows in 9156 chunks, 20 ms 757 µs.&#10;Chunks: 0 skipped with no results, &#10;0 skipped with all matching, 0 scanned using binary search.">
<polygon fill="none" stroke="white" stroke-width="1.77" points="412,-309.5 0,-309.5 0,-210.5 412,-210.5 412,-309.5"/>
<text text-anchor="middle" x="206" y="-294.3" font-family="Times,serif" font-size="14.00" fill="white">TableScan</text>
<text text-anchor="middle" x="206" y="-279.3" font-family="Times,serif" font-size="14.00" fill="white">Impl: ColumnBetween</text>
<text text-anchor="middle" x="206" y="-264.3" font-family="Times,serif" font-size="14.00" fill="white">l_shipdate BETWEEN UPPER EXCLUSIVE &#39;1994&#45;10&#45;01&#39;</text>
<text text-anchor="middle" x="206" y="-249.3" font-family="Times,serif" font-size="14.00" fill="white">AND &#39;1994&#45;11&#45;01&#39;</text>
<text text-anchor="middle" x="206" y="-218.3" font-family="Times,serif" font-size="14.00" fill="white">20 ms 757 µs</text>
</a>
</g>
</g>
<!-- 140282447539920&#45;&gt;140282446541584 -->
<g id="edge6" class="edge">
<title>140282447539920&#45;&gt;140282446541584</title>
<path fill="none" stroke="white" d="M211.87,-309.77C213.76,-325.52 215.83,-342.7 217.6,-357.41"/>
<polygon fill="white" stroke="white" points="214.16,-358.12 218.83,-367.63 221.11,-357.29 214.16,-358.12"/>
<text text-anchor="middle" x="333" y="-338.8" font-family="Times,serif" font-size="14.00" fill="white">7,729,088 row(s)/9,156 chunk(s)</text>
</g>
<!-- 139964418526224 -->
<g id="node8" class="node">
<title>139964418526224</title>
<g id="a_node8"><a xlink:title="Output: 600037902 rows in 9156 chunks, 12 ms 644 µs.">
<polygon fill="none" stroke="white" points="271.5,-133 140.5,-133 140.5,-19 271.5,-19 271.5,-133"/>
<text text-anchor="middle" x="206" y="-117.8" font-family="Times,serif" font-size="14.00" fill="white">GetTable</text>
<text text-anchor="middle" x="206" y="-102.8" font-family="Times,serif" font-size="14.00" fill="white">(lineitem)</text>
<text text-anchor="middle" x="206" y="-87.8" font-family="Times,serif" font-size="14.00" fill="white">pruned:</text>
<text text-anchor="middle" x="206" y="-72.8" font-family="Times,serif" font-size="14.00" fill="white">0/9156 chunk(s)</text>
<text text-anchor="middle" x="206" y="-57.8" font-family="Times,serif" font-size="14.00" fill="white">12/16 column(s)</text>
<text text-anchor="middle" x="206" y="-26.8" font-family="Times,serif" font-size="14.00" fill="white">12 ms 644 µs</text>
</a>
</g>
</g>
<!-- 139964418526224&#45;&gt;140282447539920 -->
<g id="edge7" class="edge">
<title>139964418526224&#45;&gt;140282447539920</title>
<path fill="none" stroke="white" stroke-width="8" d="M206,-133.09C206,-154.46 206,-178.86 206,-200.45"/>
<polygon fill="white" stroke="white" stroke-width="8" points="199,-200.47 206,-210.47 213,-200.47 199,-200.47"/>
<text text-anchor="middle" x="331" y="-173.8" font-family="Times,serif" font-size="14.00" fill="white">600,037,902 row(s)/9,156 chunk(s)</text>
</g>
<!-- 140282446543376 -->
<g id="node9" class="node">
<title>140282446543376</title>
<g id="a_node9"><a xlink:title="Output: 20000000 rows in 306 chunks, 1 ms 339 µs.">
<polygon fill="none" stroke="white" points="542,-422 438,-422 438,-368 542,-368 542,-422"/>
<text text-anchor="middle" x="490" y="-406.8" font-family="Times,serif" font-size="14.00" fill="white">Validate</text>
<text text-anchor="middle" x="490" y="-375.8" font-family="Times,serif" font-size="14.00" fill="white">1 ms 339 µs</text>
</a>
</g>
</g>
<!-- 140282446543376&#45;&gt;140282447539600 -->
<g id="edge8" class="edge">
<title>140282446543376&#45;&gt;140282447539600</title>
<path fill="none" stroke="white" d="M483.96,-422.18C480.29,-433.38 474.61,-445.94 466,-455 461.62,-459.62 456.74,-463.86 451.54,-467.75"/>
<polygon fill="white" stroke="white" points="443.14,-473.59 453.35,-470.76 451.35,-467.88 443.14,-473.59"/>
<text text-anchor="middle" x="589" y="-443.8" font-family="Times,serif" font-size="14.00" fill="white">20,000,000 row(s)/306 chunk(s)</text>
</g>
<!-- 139964418526672 -->
<g id="node10" class="node">
<title>139964418526672</title>
<g id="a_node10"><a xlink:title="Output: 20000000 rows in 306 chunks, 878 µs 930 ns.">
<polygon fill="none" stroke="white" points="552,-317 430,-317 430,-203 552,-203 552,-317"/>
<text text-anchor="middle" x="491" y="-301.8" font-family="Times,serif" font-size="14.00" fill="white">GetTable</text>
<text text-anchor="middle" x="491" y="-286.8" font-family="Times,serif" font-size="14.00" fill="white">(part)</text>
<text text-anchor="middle" x="491" y="-271.8" font-family="Times,serif" font-size="14.00" fill="white">pruned:</text>
<text text-anchor="middle" x="491" y="-256.8" font-family="Times,serif" font-size="14.00" fill="white">0/306 chunk(s)</text>
<text text-anchor="middle" x="491" y="-241.8" font-family="Times,serif" font-size="14.00" fill="white">7/9 column(s)</text>
<text text-anchor="middle" x="491" y="-210.8" font-family="Times,serif" font-size="14.00" fill="white">878 µs 930 ns</text>
</a>
</g>
</g>
<!-- 139964418526672&#45;&gt;140282446543376 -->
<g id="edge9" class="edge">
<title>139964418526672&#45;&gt;140282446543376</title>
<path fill="none" stroke="white" d="M490.58,-317.02C490.48,-330.77 490.37,-345.14 490.27,-357.69"/>
<polygon fill="white" stroke="white" points="486.77,-357.72 490.2,-367.75 493.77,-357.77 486.77,-357.72"/>
<text text-anchor="middle" x="604" y="-338.8" font-family="Times,serif" font-size="14.00" fill="white">20,000,000 row(s)/306 chunk(s)</text>
</g>
<!-- 0 -->
<g id="node11" class="node">
<title>0</title>
<polygon fill="none" stroke="white" points="289.5,-0.5 289.5,-151.5 610.5,-151.5 610.5,-0.5 289.5,-0.5"/>
<text text-anchor="middle" x="450" y="-136.3" font-family="Times,serif" font-size="14.00" fill="white">Total by operator</text>
<polyline fill="none" stroke="white" points="289.5,-128.5 610.5,-128.5 "/>
<text text-anchor="end" x="418.5" y="-113.3" font-family="Times,serif" font-size="14.00" fill="white">JoinHash </text>
<text text-anchor="end" x="418.5" y="-98.3" font-family="Times,serif" font-size="14.00" fill="white"> Projection </text>
<text text-anchor="end" x="418.5" y="-83.3" font-family="Times,serif" font-size="14.00" fill="white"> AggregateHash </text>
<text text-anchor="end" x="418.5" y="-68.3" font-family="Times,serif" font-size="14.00" fill="white"> TableScan </text>
<text text-anchor="end" x="418.5" y="-53.3" font-family="Times,serif" font-size="14.00" fill="white"> Validate </text>
<text text-anchor="end" x="418.5" y="-38.3" font-family="Times,serif" font-size="14.00" fill="white"> GetTable </text>
<text text-anchor="end" x="418.5" y="-23.3" font-family="Times,serif" font-size="14.00" fill="white"> Alias </text>
<text text-anchor="end" x="418.5" y="-8.3" font-family="Times,serif" font-size="14.00" fill="white">total</text>
<polyline fill="none" stroke="white" points="426.5,-0.5 426.5,-128.5 "/>
<text text-anchor="start" x="434.5" y="-113.3" font-family="Times,serif" font-size="14.00" fill="white">259 ms 878 µs </text>
<text text-anchor="start" x="434.5" y="-98.3" font-family="Times,serif" font-size="14.00" fill="white"> 154 ms 206 µs </text>
<text text-anchor="start" x="434.5" y="-83.3" font-family="Times,serif" font-size="14.00" fill="white"> 34 ms 253 µs </text>
<text text-anchor="start" x="434.5" y="-68.3" font-family="Times,serif" font-size="14.00" fill="white"> 20 ms 757 µs </text>
<text text-anchor="start" x="434.5" y="-53.3" font-family="Times,serif" font-size="14.00" fill="white"> 16 ms 382 µs </text>
<text text-anchor="start" x="434.5" y="-38.3" font-family="Times,serif" font-size="14.00" fill="white"> 13 ms 523 µs </text>
<text text-anchor="start" x="434.5" y="-23.3" font-family="Times,serif" font-size="14.00" fill="white"> 3 µs 396 ns </text>
<text text-anchor="start" x="434.5" y="-8.3" font-family="Times,serif" font-size="14.00" fill="white"> 499 ms 3 µs </text>
<polyline fill="none" stroke="white" points="557.5,-0.5 557.5,-128.5 "/>
<text text-anchor="start" x="565.5" y="-113.3" font-family="Times,serif" font-size="14.00" fill="white">52 %</text>
<text text-anchor="start" x="565.5" y="-98.3" font-family="Times,serif" font-size="14.00" fill="white">31 %</text>
<text text-anchor="start" x="565.5" y="-83.3" font-family="Times,serif" font-size="14.00" fill="white">7 %</text>
<text text-anchor="start" x="565.5" y="-68.3" font-family="Times,serif" font-size="14.00" fill="white">4 %</text>
<text text-anchor="start" x="565.5" y="-53.3" font-family="Times,serif" font-size="14.00" fill="white">3 %</text>
<text text-anchor="start" x="565.5" y="-38.3" font-family="Times,serif" font-size="14.00" fill="white">3 %</text>
<text text-anchor="start" x="565.5" y="-23.3" font-family="Times,serif" font-size="14.00" fill="white">0 %</text>
<text text-anchor="start" x="565.5" y="-8.3" font-family="Times,serif" font-size="14.00" fill="white"> </text>
</g>
</g>
</svg>
