<?xml version="1.0" encoding="UTF-8" standalone="no"?>
<!DOCTYPE svg PUBLIC "-//W3C//DTD SVG 1.1//EN"
 "http://www.w3.org/Graphics/SVG/1.1/DTD/svg11.dtd">
<!-- Generated by graphviz version 2.43.0 (0)
 -->
<!-- Title: G Pages: 1 -->
<svg width="1247pt" height="2549pt"
 viewBox="0.00 0.00 1246.50 2549.00" xmlns="http://www.w3.org/2000/svg" xmlns:xlink="http://www.w3.org/1999/xlink">
<g id="graph0" class="graph" transform="scale(1 1) rotate(0) translate(4 2545)">
<title>G</title>
<polygon fill="black" stroke="transparent" points="-4,4 -4,-2545 1242.5,-2545 1242.5,4 -4,4"/>
<text text-anchor="middle" x="319.5" y="-2525.8" font-family="Times,serif" font-size="14.00" fill="white">For tooltips with advanced information, hover your mouse over vertices or edge labels.</text>
<!-- 140145461636112 -->
<g id="node1" class="node">
<title>140145461636112</title>
<g id="a_node1"><a xlink:title="Output: 2 rows in 1 chunk, 4 µs 478 ns.">
<polygon fill="none" stroke="white" points="865,-2486 710,-2486 710,-2417 865,-2417 865,-2486"/>
<text text-anchor="middle" x="787.5" y="-2470.8" font-family="Times,serif" font-size="14.00" fill="white">Alias</text>
<text text-anchor="middle" x="787.5" y="-2455.8" font-family="Times,serif" font-size="14.00" fill="white">[o_year, mkt_share]</text>
<text text-anchor="middle" x="787.5" y="-2424.8" font-family="Times,serif" font-size="14.00" fill="white">4 µs 478 ns</text>
</a>
</g>
</g>
<!-- 140145461635792 -->
<g id="node2" class="node">
<title>140145461635792</title>
<g id="a_node2"><a xlink:title="Output: 2 rows in 1 chunk, 38 µs 983 ns.&#10;Operator step runtimes:&#10; ForwardUnmodifiedColumns 5 µs 340 ns&#10; EvaluateNewColumns 23 µs 585 ns&#10; BuildOutput 7 µs 363 ns.">
<polygon fill="none" stroke="white" points="841.5,-2366 733.5,-2366 733.5,-2312 841.5,-2312 841.5,-2366"/>
<text text-anchor="middle" x="787.5" y="-2350.8" font-family="Times,serif" font-size="14.00" fill="white">Projection</text>
<text text-anchor="middle" x="787.5" y="-2319.8" font-family="Times,serif" font-size="14.00" fill="white">38 µs 983 ns</text>
</a>
</g>
</g>
<!-- 140145461635792&#45;&gt;140145461636112 -->
<g id="edge1" class="edge">
<title>140145461635792&#45;&gt;140145461636112</title>
<path fill="none" stroke="white" d="M787.5,-2366.19C787.5,-2378.29 787.5,-2393 787.5,-2406.72"/>
<polygon fill="white" stroke="white" points="784,-2406.95 787.5,-2416.95 791,-2406.96 784,-2406.95"/>
<text text-anchor="middle" x="856.5" y="-2387.8" font-family="Times,serif" font-size="14.00" fill="white">2 row(s)/1 chunk(s)</text>
</g>
<!-- 140145461635472 -->
<g id="node3" class="node">
<title>140145461635472</title>
<g id="a_node3"><a xlink:title="Output: 2 rows in 1 chunk, 26 µs 159 ns.&#10;Operator step runtimes:&#10; MaterializeSortColumns 8 µs 355 ns&#10; Sort 4 µs 308 ns&#10; TemporaryResultWriting 441 ns&#10; WriteOutput 10 µs 580 ns.">
<polygon fill="none" stroke="white" points="841.5,-2261 733.5,-2261 733.5,-2207 841.5,-2207 841.5,-2261"/>
<text text-anchor="middle" x="787.5" y="-2245.8" font-family="Times,serif" font-size="14.00" fill="white">Sort</text>
<text text-anchor="middle" x="787.5" y="-2214.8" font-family="Times,serif" font-size="14.00" fill="white">26 µs 159 ns</text>
</a>
</g>
</g>
<!-- 140145461635472&#45;&gt;140145461635792 -->
<g id="edge2" class="edge">
<title>140145461635472&#45;&gt;140145461635792</title>
<path fill="none" stroke="white" d="M787.5,-2261.26C787.5,-2273.49 787.5,-2288.24 787.5,-2301.52"/>
<polygon fill="white" stroke="white" points="784,-2301.79 787.5,-2311.79 791,-2301.79 784,-2301.79"/>
<text text-anchor="middle" x="856.5" y="-2282.8" font-family="Times,serif" font-size="14.00" fill="white">2 row(s)/1 chunk(s)</text>
</g>
<!-- 140282329245712 -->
<g id="node4" class="node">
<title>140282329245712</title>
<g id="a_node4"><a xlink:title="Output: 2 rows in 1 chunk, 7 ms 639 µs.&#10;Operator step runtimes:&#10; GroupByKeyPartitioning 2 ms 90 µs&#10; Aggregating 5 ms 506 µs&#10; GroupByColumnsWriting 7 µs 755 ns&#10; AggregateColumnsWriting 14 µs 908 ns&#10; OutputWriting 8 µs 245 ns.">
<polygon fill="none" stroke="white" points="968,-2156 607,-2156 607,-2042 968,-2042 968,-2156"/>
<text text-anchor="middle" x="787.5" y="-2140.8" font-family="Times,serif" font-size="14.00" fill="white">AggregateHash</text>
<text text-anchor="middle" x="787.5" y="-2125.8" font-family="Times,serif" font-size="14.00" fill="white">GroupBy {SUBSTR(o_orderdate,1,4)}</text>
<text text-anchor="middle" x="787.5" y="-2110.8" font-family="Times,serif" font-size="14.00" fill="white">SUM(CASE WHEN n_name = &#39;EGYPT&#39; THEN</text>
<text text-anchor="middle" x="787.5" y="-2095.8" font-family="Times,serif" font-size="14.00" fill="white">l_extendedprice * (1 &#45; l_discount) ELSE 0 END), </text>
<text text-anchor="middle" x="787.5" y="-2080.8" font-family="Times,serif" font-size="14.00" fill="white">SUM(l_extendedprice * (1 &#45; l_discount))</text>
<text text-anchor="middle" x="787.5" y="-2049.8" font-family="Times,serif" font-size="14.00" fill="white">7 ms 639 µs</text>
</a>
</g>
</g>
<!-- 140282329245712&#45;&gt;140145461635472 -->
<g id="edge3" class="edge">
<title>140282329245712&#45;&gt;140145461635472</title>
<path fill="none" stroke="white" d="M787.5,-2156.02C787.5,-2169.77 787.5,-2184.14 787.5,-2196.69"/>
<polygon fill="white" stroke="white" points="784,-2196.75 787.5,-2206.75 791,-2196.75 784,-2196.75"/>
<text text-anchor="middle" x="856.5" y="-2177.8" font-family="Times,serif" font-size="14.00" fill="white">2 row(s)/1 chunk(s)</text>
</g>
<!-- 140145461635152 -->
<g id="node5" class="node">
<title>140145461635152</title>
<g id="a_node5"><a xlink:title="Output: 243411 rows in 2 chunks, 6 ms 174 µs.&#10;Operator step runtimes:&#10; ForwardUnmodifiedColumns 9 µs 988 ns&#10; EvaluateNewColumns 6 ms 116 µs&#10; BuildOutput 41 µs 318 ns.">
<polygon fill="none" stroke="white" points="839.5,-1991 735.5,-1991 735.5,-1937 839.5,-1937 839.5,-1991"/>
<text text-anchor="middle" x="787.5" y="-1975.8" font-family="Times,serif" font-size="14.00" fill="white">Projection</text>
<text text-anchor="middle" x="787.5" y="-1944.8" font-family="Times,serif" font-size="14.00" fill="white">6 ms 174 µs</text>
</a>
</g>
</g>
<!-- 140145461635152&#45;&gt;140282329245712 -->
<g id="edge4" class="edge">
<title>140145461635152&#45;&gt;140282329245712</title>
<path fill="none" stroke="white" d="M787.5,-1991.28C787.5,-2002.91 787.5,-2017.18 787.5,-2031.45"/>
<polygon fill="white" stroke="white" points="784,-2031.8 787.5,-2041.8 791,-2031.8 784,-2031.8"/>
<text text-anchor="middle" x="881" y="-2012.8" font-family="Times,serif" font-size="14.00" fill="white">243,411 row(s)/2 chunk(s)</text>
</g>
<!-- 140145461634832 -->
<g id="node6" class="node">
<title>140145461634832</title>
<g id="a_node6"><a xlink:title="Output: 243411 rows in 2 chunks, 7 µs 754 ns.">
<polygon fill="none" stroke="white" points="881,-1886 694,-1886 694,-1817 881,-1817 881,-1886"/>
<text text-anchor="middle" x="787.5" y="-1870.8" font-family="Times,serif" font-size="14.00" fill="white">Alias</text>
<text text-anchor="middle" x="787.5" y="-1855.8" font-family="Times,serif" font-size="14.00" fill="white">[o_year, volume, nation]</text>
<text text-anchor="middle" x="787.5" y="-1824.8" font-family="Times,serif" font-size="14.00" fill="white">7 µs 754 ns</text>
</a>
</g>
</g>
<!-- 140145461634832&#45;&gt;140145461635152 -->
<g id="edge5" class="edge">
<title>140145461634832&#45;&gt;140145461635152</title>
<path fill="none" stroke="white" d="M787.5,-1886.25C787.5,-1899.07 787.5,-1913.73 787.5,-1926.77"/>
<polygon fill="white" stroke="white" points="784,-1926.81 787.5,-1936.81 791,-1926.81 784,-1926.81"/>
<text text-anchor="middle" x="881" y="-1907.8" font-family="Times,serif" font-size="14.00" fill="white">243,411 row(s)/2 chunk(s)</text>
</g>
<!-- 140145461634512 -->
<g id="node7" class="node">
<title>140145461634512</title>
<g id="a_node7"><a xlink:title="Output: 243411 rows in 2 chunks, 140 ms 779 µs.&#10;Operator step runtimes:&#10; ForwardUnmodifiedColumns 11 µs 91 ns&#10; EvaluateNewColumns 140 ms 702 µs&#10; BuildOutput 57 µs 377 ns.">
<polygon fill="none" stroke="white" stroke-width="5.94" points="848.5,-1766 726.5,-1766 726.5,-1712 848.5,-1712 848.5,-1766"/>
<text text-anchor="middle" x="787.5" y="-1750.8" font-family="Times,serif" font-size="14.00" fill="white">Projection</text>
<text text-anchor="middle" x="787.5" y="-1719.8" font-family="Times,serif" font-size="14.00" fill="white">140 ms 779 µs</text>
</a>
</g>
</g>
<!-- 140145461634512&#45;&gt;140145461634832 -->
<g id="edge6" class="edge">
<title>140145461634512&#45;&gt;140145461634832</title>
<path fill="none" stroke="white" d="M787.5,-1766.19C787.5,-1778.29 787.5,-1793 787.5,-1806.72"/>
<polygon fill="white" stroke="white" points="784,-1806.95 787.5,-1816.95 791,-1806.96 784,-1806.95"/>
<text text-anchor="middle" x="881" y="-1787.8" font-family="Times,serif" font-size="14.00" fill="white">243,411 row(s)/2 chunk(s)</text>
</g>
<!-- 140145461634192 -->
<g id="node8" class="node">
<title>140145461634192</title>
<g id="a_node8"><a xlink:title="Output: 243411 rows in 2 chunks, 7 ms 29 µs.&#10;Operator step runtimes:&#10; BuildSideMaterializing 64 µs 361 ns&#10; ProbeSideMaterializing 1 ms 387 µs&#10; Clustering 0 ns&#10; Building 7 µs 203 ns&#10; Probing 1 ms 561 µs&#10; OutputWriting 3 ms 985 µs.&#10;Radix bits: 0.&#10;Build side is right.">
<polygon fill="none" stroke="white" points="891,-1661 684,-1661 684,-1592 891,-1592 891,-1661"/>
<text text-anchor="middle" x="787.5" y="-1645.8" font-family="Times,serif" font-size="14.00" fill="white">JoinHash (Inner)</text>
<text text-anchor="middle" x="787.5" y="-1630.8" font-family="Times,serif" font-size="14.00" fill="white">s_nationkey = n_nationkey</text>
<text text-anchor="middle" x="787.5" y="-1599.8" font-family="Times,serif" font-size="14.00" fill="white">7 ms 29 µs</text>
</a>
</g>
</g>
<!-- 140145461634192&#45;&gt;140145461634512 -->
<g id="edge7" class="edge">
<title>140145461634192&#45;&gt;140145461634512</title>
<path fill="none" stroke="white" d="M787.5,-1661.25C787.5,-1674.07 787.5,-1688.73 787.5,-1701.77"/>
<polygon fill="white" stroke="white" points="784,-1701.81 787.5,-1711.81 791,-1701.81 784,-1701.81"/>
<text text-anchor="middle" x="881" y="-1682.8" font-family="Times,serif" font-size="14.00" fill="white">243,411 row(s)/2 chunk(s)</text>
</g>
<!-- 140145461633872 -->
<g id="node9" class="node">
<title>140145461633872</title>
<g id="a_node9"><a xlink:title="Output: 243411 rows in 2 chunks, 65 ms 294 µs.&#10;Operator step runtimes:&#10; BuildSideMaterializing 42 ms 81 µs&#10; ProbeSideMaterializing 607 µs 140 ns&#10; Clustering 1 ms 269 µs&#10; Building 8 ms 976 µs&#10; Probing 4 ms 908 µs&#10; OutputWriting 7 ms 404 µs.&#10;Radix bits: 1.&#10;Build side is right.">
<polygon fill="none" stroke="white" stroke-width="4.05" points="675.5,-1541 493.5,-1541 493.5,-1472 675.5,-1472 675.5,-1541"/>
<text text-anchor="middle" x="584.5" y="-1525.8" font-family="Times,serif" font-size="14.00" fill="white">JoinHash (Inner)</text>
<text text-anchor="middle" x="584.5" y="-1510.8" font-family="Times,serif" font-size="14.00" fill="white">s_suppkey = l_suppkey</text>
<text text-anchor="middle" x="584.5" y="-1479.8" font-family="Times,serif" font-size="14.00" fill="white">65 ms 294 µs</text>
</a>
</g>
</g>
<!-- 140145461633872&#45;&gt;140145461634192 -->
<g id="edge8" class="edge">
<title>140145461633872&#45;&gt;140145461634192</title>
<path fill="none" stroke="white" d="M642.4,-1541.16C666.83,-1555.35 695.41,-1571.97 720.72,-1586.68"/>
<polygon fill="white" stroke="white" points="720.88,-1586.77 719.12,-1589.8 729.52,-1591.8 720.88,-1586.77"/>
<text text-anchor="middle" x="791" y="-1562.8" font-family="Times,serif" font-size="14.00" fill="white">243,411 row(s)/2 chunk(s)</text>
</g>
<!-- 140282329010192 -->
<g id="node10" class="node">
<title>140282329010192</title>
<g id="a_node10"><a xlink:title="Output: 1000000 rows in 16 chunks, 122 µs 449 ns.">
<polygon fill="none" stroke="white" points="308,-1413.5 191,-1413.5 191,-1359.5 308,-1359.5 308,-1413.5"/>
<text text-anchor="middle" x="249.5" y="-1398.3" font-family="Times,serif" font-size="14.00" fill="white">Validate</text>
<text text-anchor="middle" x="249.5" y="-1367.3" font-family="Times,serif" font-size="14.00" fill="white">122 µs 449 ns</text>
</a>
</g>
</g>
<!-- 140282329010192&#45;&gt;140145461633872 -->
<g id="edge9" class="edge">
<title>140282329010192&#45;&gt;140145461633872</title>
<path fill="none" stroke="white" d="M290.45,-1413.59C313.29,-1427.2 342.67,-1443.23 370.5,-1454 406.33,-1467.87 447.03,-1478.79 483.24,-1486.94"/>
<polygon fill="white" stroke="white" points="483.56,-1487.01 482.81,-1490.43 493.33,-1489.16 483.56,-1487.01"/>
<text text-anchor="middle" x="475.5" y="-1442.8" font-family="Times,serif" font-size="14.00" fill="white">1,000,000 row(s)/16 chunk(s)</text>
</g>
<!-- 140282329104656 -->
<g id="node11" class="node">
<title>140282329104656</title>
<g id="a_node11"><a xlink:title="Output: 1000000 rows in 16 chunks, 80 µs 140 ns.">
<polygon fill="none" stroke="white" points="306,-1301 193,-1301 193,-1187 306,-1187 306,-1301"/>
<text text-anchor="middle" x="249.5" y="-1285.8" font-family="Times,serif" font-size="14.00" fill="white">GetTable</text>
<text text-anchor="middle" x="249.5" y="-1270.8" font-family="Times,serif" font-size="14.00" fill="white">(supplier)</text>
<text text-anchor="middle" x="249.5" y="-1255.8" font-family="Times,serif" font-size="14.00" fill="white">pruned:</text>
<text text-anchor="middle" x="249.5" y="-1240.8" font-family="Times,serif" font-size="14.00" fill="white">0/16 chunk(s)</text>
<text text-anchor="middle" x="249.5" y="-1225.8" font-family="Times,serif" font-size="14.00" fill="white">5/7 column(s)</text>
<text text-anchor="middle" x="249.5" y="-1194.8" font-family="Times,serif" font-size="14.00" fill="white">80 µs 140 ns</text>
</a>
</g>
</g>
<!-- 140282329104656&#45;&gt;140282329010192 -->
<g id="edge10" class="edge">
<title>140282329104656&#45;&gt;140282329010192</title>
<path fill="none" stroke="white" d="M249.5,-1301.34C249.5,-1317.43 249.5,-1334.54 249.5,-1349.1"/>
<polygon fill="white" stroke="white" points="246,-1349.2 249.5,-1359.2 253,-1349.2 246,-1349.2"/>
<text text-anchor="middle" x="354.5" y="-1322.8" font-family="Times,serif" font-size="14.00" fill="white">1,000,000 row(s)/16 chunk(s)</text>
</g>
<!-- 140145461633552 -->
<g id="node12" class="node">
<title>140145461633552</title>
<g id="a_node12"><a xlink:title="Output: 243411 rows in 8 chunks, 108 ms 82 µs.&#10;Operator step runtimes:&#10; BuildSideMaterializing 58 ms 281 µs&#10; ProbeSideMaterializing 5 ms 63 µs&#10; Clustering 1 ms 571 µs&#10; Building 31 ms 500 µs&#10; Probing 6 ms 999 µs&#10; OutputWriting 4 ms 525 µs.&#10;Radix bits: 3.&#10;Build side is right.">
<polygon fill="none" stroke="white" stroke-width="5.29" points="672.5,-1421 496.5,-1421 496.5,-1352 672.5,-1352 672.5,-1421"/>
<text text-anchor="middle" x="584.5" y="-1405.8" font-family="Times,serif" font-size="14.00" fill="white">JoinHash (Inner)</text>
<text text-anchor="middle" x="584.5" y="-1390.8" font-family="Times,serif" font-size="14.00" fill="white">c_custkey = o_custkey</text>
<text text-anchor="middle" x="584.5" y="-1359.8" font-family="Times,serif" font-size="14.00" fill="white">108 ms 82 µs</text>
</a>
</g>
</g>
<!-- 140145461633552&#45;&gt;140145461633872 -->
<g id="edge11" class="edge">
<title>140145461633552&#45;&gt;140145461633872</title>
<path fill="none" stroke="white" d="M584.5,-1421.31C584.5,-1433.78 584.5,-1448.1 584.5,-1461.34"/>
<polygon fill="white" stroke="white" points="584.5,-1471.68 588,-1461.68 584.5,-1461.68 584.5,-1471.68"/>
<text text-anchor="middle" x="678" y="-1442.8" font-family="Times,serif" font-size="14.00" fill="white">243,411 row(s)/8 chunk(s)</text>
</g>
<!-- 140282329011472 -->
<g id="node13" class="node">
<title>140282329011472</title>
<g id="a_node13"><a xlink:title="Output: 3001516 rows in 229 chunks, 499 µs 307 ns.">
<polygon fill="none" stroke="white" points="765,-1271 648,-1271 648,-1217 765,-1217 765,-1271"/>
<text text-anchor="middle" x="706.5" y="-1255.8" font-family="Times,serif" font-size="14.00" fill="white">Validate</text>
<text text-anchor="middle" x="706.5" y="-1224.8" font-family="Times,serif" font-size="14.00" fill="white">499 µs 307 ns</text>
</a>
</g>
</g>
<!-- 140282329011472&#45;&gt;140145461633552 -->
<g id="edge12" class="edge">
<title>140282329011472&#45;&gt;140145461633552</title>
<path fill="none" stroke="white" d="M705.67,-1271.28C703.82,-1290.46 698.61,-1316.14 684.5,-1334 681.25,-1338.11 677.59,-1341.92 673.63,-1345.45"/>
<polygon fill="white" stroke="white" points="673.45,-1345.6 671.24,-1342.89 665.69,-1351.91 673.45,-1345.6"/>
<text text-anchor="middle" x="803" y="-1322.8" font-family="Times,serif" font-size="14.00" fill="white">3,001,516 row(s)/229 chunk(s)</text>
</g>
<!-- 140145461631632 -->
<g id="node14" class="node">
<title>140145461631632</title>
<g id="a_node14"><a xlink:title="Output: 3001516 rows in 229 chunks, 17 ms 734 µs.&#10;Operator step runtimes:&#10; BuildSideMaterializing 105 µs 798 ns&#10; ProbeSideMaterializing 4 ms 836 µs&#10; Clustering 0 ns&#10; Building 1 µs 703 ns&#10; Probing 1 ms 682 µs&#10; OutputWriting 9 ms 624 µs.&#10;Radix bits: 0.&#10;Build side is right.">
<polygon fill="none" stroke="white" points="810,-1136 603,-1136 603,-1067 810,-1067 810,-1136"/>
<text text-anchor="middle" x="706.5" y="-1120.8" font-family="Times,serif" font-size="14.00" fill="white">JoinHash (Semi)</text>
<text text-anchor="middle" x="706.5" y="-1105.8" font-family="Times,serif" font-size="14.00" fill="white">c_nationkey = n_nationkey</text>
<text text-anchor="middle" x="706.5" y="-1074.8" font-family="Times,serif" font-size="14.00" fill="white">17 ms 734 µs</text>
</a>
</g>
</g>
<!-- 140145461631632&#45;&gt;140282329011472 -->
<g id="edge13" class="edge">
<title>140145461631632&#45;&gt;140282329011472</title>
<path fill="none" stroke="white" d="M706.5,-1136.15C706.5,-1157.36 706.5,-1184.75 706.5,-1206.48"/>
<polygon fill="white" stroke="white" points="703,-1206.65 706.5,-1216.65 710,-1206.65 703,-1206.65"/>
<text text-anchor="middle" x="816" y="-1157.8" font-family="Times,serif" font-size="14.00" fill="white">3,001,516 row(s)/229 chunk(s)</text>
</g>
<!-- 140282329105552 -->
<g id="node15" class="node">
<title>140282329105552</title>
<g id="a_node15"><a xlink:title="Output: 15000000 rows in 229 chunks, 643 µs 47 ns.">
<polygon fill="none" stroke="white" points="735.5,-1016 613.5,-1016 613.5,-902 735.5,-902 735.5,-1016"/>
<text text-anchor="middle" x="674.5" y="-1000.8" font-family="Times,serif" font-size="14.00" fill="white">GetTable</text>
<text text-anchor="middle" x="674.5" y="-985.8" font-family="Times,serif" font-size="14.00" fill="white">(customer)</text>
<text text-anchor="middle" x="674.5" y="-970.8" font-family="Times,serif" font-size="14.00" fill="white">pruned:</text>
<text text-anchor="middle" x="674.5" y="-955.8" font-family="Times,serif" font-size="14.00" fill="white">0/229 chunk(s)</text>
<text text-anchor="middle" x="674.5" y="-940.8" font-family="Times,serif" font-size="14.00" fill="white">6/8 column(s)</text>
<text text-anchor="middle" x="674.5" y="-909.8" font-family="Times,serif" font-size="14.00" fill="white">643 µs 47 ns</text>
</a>
</g>
</g>
<!-- 140282329105552&#45;&gt;140145461631632 -->
<g id="edge14" class="edge">
<title>140282329105552&#45;&gt;140145461631632</title>
<path fill="none" stroke="white" d="M670.64,-1016.2C671.13,-1027.22 672.55,-1038.59 675.5,-1049 676.3,-1051.82 677.3,-1054.65 678.45,-1057.44"/>
<polygon fill="white" stroke="white" points="678.57,-1057.7 675.4,-1059.19 682.82,-1066.75 678.57,-1057.7"/>
<text text-anchor="middle" x="789.5" y="-1037.8" font-family="Times,serif" font-size="14.00" fill="white">15,000,000 row(s)/229 chunk(s)</text>
</g>
<!-- 140282329012496 -->
<g id="node16" class="node">
<title>140282329012496</title>
<g id="a_node16"><a xlink:title="Output: 5 rows in 1 chunk, 4 µs 749 ns.">
<polygon fill="none" stroke="white" points="960,-986 861,-986 861,-932 960,-932 960,-986"/>
<text text-anchor="middle" x="910.5" y="-970.8" font-family="Times,serif" font-size="14.00" fill="white">Validate</text>
<text text-anchor="middle" x="910.5" y="-939.8" font-family="Times,serif" font-size="14.00" fill="white">4 µs 749 ns</text>
</a>
</g>
</g>
<!-- 140282329012496&#45;&gt;140145461631632 -->
<g id="edge15" class="edge">
<title>140282329012496&#45;&gt;140145461631632</title>
<path fill="none" stroke="white" d="M915.88,-986.37C918.25,-1005.86 917.82,-1031.88 903.5,-1049 891.73,-1063.06 857.16,-1074.18 820.19,-1082.44"/>
<polygon fill="white" stroke="white" points="810.24,-1084.58 820.75,-1085.9 820.01,-1082.48 810.24,-1084.58"/>
<text text-anchor="middle" x="980.5" y="-1037.8" font-family="Times,serif" font-size="14.00" fill="white">5 row(s)/1 chunk(s)</text>
</g>
<!-- 140145461631312 -->
<g id="node17" class="node">
<title>140145461631312</title>
<g id="a_node17"><a xlink:title="Output: 5 rows in 1 chunk, 92 µs 153 ns.&#10;Operator step runtimes:&#10; BuildSideMaterializing 43 µs 993 ns&#10; ProbeSideMaterializing 18 µs 314 ns&#10; Clustering 0 ns&#10; Building 4 µs 608 ns&#10; Probing 3 µs 777 ns&#10; OutputWriting 11 µs 251 ns.&#10;Radix bits: 0.&#10;Build side is right.">
<polygon fill="none" stroke="white" points="1006.5,-797 798.5,-797 798.5,-728 1006.5,-728 1006.5,-797"/>
<text text-anchor="middle" x="902.5" y="-781.8" font-family="Times,serif" font-size="14.00" fill="white">JoinHash (Semi)</text>
<text text-anchor="middle" x="902.5" y="-766.8" font-family="Times,serif" font-size="14.00" fill="white">n_regionkey = r_regionkey</text>
<text text-anchor="middle" x="902.5" y="-735.8" font-family="Times,serif" font-size="14.00" fill="white">92 µs 153 ns</text>
</a>
</g>
</g>
<!-- 140145461631312&#45;&gt;140282329012496 -->
<g id="edge16" class="edge">
<title>140145461631312&#45;&gt;140282329012496</title>
<path fill="none" stroke="white" d="M900.68,-797.32C900.19,-807.79 899.74,-819.37 899.5,-830 898.96,-853.99 897.73,-860.07 899.5,-884 900.41,-896.32 902.16,-909.71 904.01,-921.66"/>
<polygon fill="white" stroke="white" points="900.58,-922.42 905.63,-931.73 907.5,-921.3 900.58,-922.42"/>
<text text-anchor="middle" x="968.5" y="-853.3" font-family="Times,serif" font-size="14.00" fill="white">5 row(s)/1 chunk(s)</text>
</g>
<!-- 140282329105104 -->
<g id="node18" class="node">
<title>140282329105104</title>
<g id="a_node18"><a xlink:title="Output: 25 rows in 1 chunk, 12 µs 52 ns.">
<polygon fill="none" stroke="white" points="1067,-662 954,-662 954,-548 1067,-548 1067,-662"/>
<text text-anchor="middle" x="1010.5" y="-646.8" font-family="Times,serif" font-size="14.00" fill="white">GetTable</text>
<text text-anchor="middle" x="1010.5" y="-631.8" font-family="Times,serif" font-size="14.00" fill="white">(nation)</text>
<text text-anchor="middle" x="1010.5" y="-616.8" font-family="Times,serif" font-size="14.00" fill="white">pruned:</text>
<text text-anchor="middle" x="1010.5" y="-601.8" font-family="Times,serif" font-size="14.00" fill="white">0/1 chunk(s)</text>
<text text-anchor="middle" x="1010.5" y="-586.8" font-family="Times,serif" font-size="14.00" fill="white">1/4 column(s)</text>
<text text-anchor="middle" x="1010.5" y="-555.8" font-family="Times,serif" font-size="14.00" fill="white">12 µs 52 ns</text>
</a>
</g>
</g>
<!-- 140282329105104&#45;&gt;140145461631312 -->
<g id="edge17" class="edge">
<title>140282329105104&#45;&gt;140145461631312</title>
<path fill="none" stroke="white" d="M953.92,-647.85C943.68,-657.49 933.92,-668.36 926.5,-680 919.17,-691.5 914.01,-705.32 910.4,-718.28"/>
<polygon fill="white" stroke="white" points="910.4,-718.29 907,-717.43 907.93,-727.98 910.4,-718.29"/>
<text text-anchor="middle" x="1000" y="-683.8" font-family="Times,serif" font-size="14.00" fill="white">25 row(s)/1 chunk(s)</text>
</g>
<!-- 140282329011984 -->
<g id="node33" class="node">
<title>140282329011984</title>
<g id="a_node33"><a xlink:title="Output: 25 rows in 1 chunk, 8 µs 706 ns.">
<polygon fill="none" stroke="white" points="1145,-884 1046,-884 1046,-830 1145,-830 1145,-884"/>
<text text-anchor="middle" x="1095.5" y="-868.8" font-family="Times,serif" font-size="14.00" fill="white">Validate</text>
<text text-anchor="middle" x="1095.5" y="-837.8" font-family="Times,serif" font-size="14.00" fill="white">8 µs 706 ns</text>
</a>
</g>
</g>
<!-- 140282329105104&#45;&gt;140282329011984 -->
<g id="edge18" class="edge">
<title>140282329105104&#45;&gt;140282329011984</title>
<path fill="none" stroke="white" d="M1063.84,-662.39C1067.54,-668.07 1070.85,-673.98 1073.5,-680 1093.38,-725.14 1096.99,-782.7 1096.92,-819.46"/>
<polygon fill="white" stroke="white" points="1093.41,-819.67 1096.8,-829.71 1100.41,-819.75 1093.41,-819.67"/>
<text text-anchor="middle" x="1152" y="-683.8" font-family="Times,serif" font-size="14.00" fill="white">25 row(s)/1 chunk(s)</text>
</g>
<!-- 140282329841680 -->
<g id="node19" class="node">
<title>140282329841680</title>
<g id="a_node19"><a xlink:title="Output: 1 row in 1 chunk, 6 µs 231 ns.">
<polygon fill="none" stroke="white" points="814,-632 715,-632 715,-578 814,-578 814,-632"/>
<text text-anchor="middle" x="764.5" y="-616.8" font-family="Times,serif" font-size="14.00" fill="white">Validate</text>
<text text-anchor="middle" x="764.5" y="-585.8" font-family="Times,serif" font-size="14.00" fill="white">6 µs 231 ns</text>
</a>
</g>
</g>
<!-- 140282329841680&#45;&gt;140145461631312 -->
<g id="edge19" class="edge">
<title>140282329841680&#45;&gt;140145461631312</title>
<path fill="none" stroke="white" d="M761.99,-632.03C761.49,-651.09 763.74,-676.72 776.5,-695 783.89,-705.58 793.51,-714.62 804.13,-722.29"/>
<polygon fill="white" stroke="white" points="812.43,-727.9 806.11,-719.4 804.15,-722.3 812.43,-727.9"/>
<text text-anchor="middle" x="845.5" y="-683.8" font-family="Times,serif" font-size="14.00" fill="white">1 row(s)/1 chunk(s)</text>
</g>
<!-- 140145461628752 -->
<g id="node20" class="node">
<title>140145461628752</title>
<g id="a_node20"><a xlink:title="Output: 1 row in 1 chunk, 22 µs 201 ns.&#10;Chunks: 0 skipped with no results, &#10;0 skipped with all matching, 0 scanned using binary search.">
<polygon fill="none" stroke="white" points="866,-482 663,-482 663,-398 866,-398 866,-482"/>
<text text-anchor="middle" x="764.5" y="-466.8" font-family="Times,serif" font-size="14.00" fill="white">TableScan</text>
<text text-anchor="middle" x="764.5" y="-451.8" font-family="Times,serif" font-size="14.00" fill="white">Impl: ColumnVsValue</text>
<text text-anchor="middle" x="764.5" y="-436.8" font-family="Times,serif" font-size="14.00" fill="white">r_name = &#39;MIDDLE EAST&#39;</text>
<text text-anchor="middle" x="764.5" y="-405.8" font-family="Times,serif" font-size="14.00" fill="white">22 µs 201 ns</text>
</a>
</g>
</g>
<!-- 140145461628752&#45;&gt;140282329841680 -->
<g id="edge20" class="edge">
<title>140145461628752&#45;&gt;140282329841680</title>
<path fill="none" stroke="white" d="M764.5,-482.13C764.5,-508.37 764.5,-542.09 764.5,-567.4"/>
<polygon fill="white" stroke="white" points="761,-567.69 764.5,-577.69 768,-567.69 761,-567.69"/>
<text text-anchor="middle" x="833.5" y="-518.8" font-family="Times,serif" font-size="14.00" fill="white">1 row(s)/1 chunk(s)</text>
</g>
<!-- 140282329106000 -->
<g id="node21" class="node">
<title>140282329106000</title>
<g id="a_node21"><a xlink:title="Output: 5 rows in 1 chunk, 45 µs 766 ns.">
<polygon fill="none" stroke="white" points="821,-332 708,-332 708,-218 821,-218 821,-332"/>
<text text-anchor="middle" x="764.5" y="-316.8" font-family="Times,serif" font-size="14.00" fill="white">GetTable</text>
<text text-anchor="middle" x="764.5" y="-301.8" font-family="Times,serif" font-size="14.00" fill="white">(region)</text>
<text text-anchor="middle" x="764.5" y="-286.8" font-family="Times,serif" font-size="14.00" fill="white">pruned:</text>
<text text-anchor="middle" x="764.5" y="-271.8" font-family="Times,serif" font-size="14.00" fill="white">0/1 chunk(s)</text>
<text text-anchor="middle" x="764.5" y="-256.8" font-family="Times,serif" font-size="14.00" fill="white">1/3 column(s)</text>
<text text-anchor="middle" x="764.5" y="-225.8" font-family="Times,serif" font-size="14.00" fill="white">45 µs 766 ns</text>
</a>
</g>
</g>
<!-- 140282329106000&#45;&gt;140145461628752 -->
<g id="edge21" class="edge">
<title>140282329106000&#45;&gt;140145461628752</title>
<path fill="none" stroke="white" d="M764.5,-332.1C764.5,-350.19 764.5,-370.13 764.5,-387.85"/>
<polygon fill="white" stroke="white" points="761,-387.99 764.5,-397.99 768,-387.99 761,-387.99"/>
<text text-anchor="middle" x="833.5" y="-353.8" font-family="Times,serif" font-size="14.00" fill="white">5 row(s)/1 chunk(s)</text>
</g>
<!-- 140145461633232 -->
<g id="node22" class="node">
<title>140145461633232</title>
<g id="a_node22"><a xlink:title="Output: 1211713 rows in 8 chunks, 184 ms 632 µs.&#10;Operator step runtimes:&#10; BuildSideMaterializing 49 ms 238 µs&#10; ProbeSideMaterializing 88 ms 17 µs&#10; Clustering 19 ms 349 µs&#10; Building 7 ms 797 µs&#10; Probing 9 ms 66 µs&#10; OutputWriting 11 ms 9 µs.&#10;Radix bits: 3.&#10;Build side is left.">
<polygon fill="none" stroke="white" stroke-width="6.61" points="546,-1278.5 355,-1278.5 355,-1209.5 546,-1209.5 546,-1278.5"/>
<text text-anchor="middle" x="450.5" y="-1263.3" font-family="Times,serif" font-size="14.00" fill="white">JoinHash (Inner)</text>
<text text-anchor="middle" x="450.5" y="-1248.3" font-family="Times,serif" font-size="14.00" fill="white">o_orderkey = l_orderkey</text>
<text text-anchor="middle" x="450.5" y="-1217.3" font-family="Times,serif" font-size="14.00" fill="white">184 ms 632 µs</text>
</a>
</g>
</g>
<!-- 140145461633232&#45;&gt;140145461633552 -->
<g id="edge22" class="edge">
<title>140145461633232&#45;&gt;140145461633552</title>
<path fill="none" stroke="white" d="M454.96,-1278.58C458.84,-1296.74 466.08,-1318.54 479.5,-1334 483.16,-1338.22 487.25,-1342.12 491.62,-1345.73"/>
<polygon fill="white" stroke="white" points="499.79,-1351.92 493.93,-1343.09 491.82,-1345.88 499.79,-1351.92"/>
<text text-anchor="middle" x="580" y="-1322.8" font-family="Times,serif" font-size="14.00" fill="white">1,211,713 row(s)/8 chunk(s)</text>
</g>
<!-- 140282329010448 -->
<g id="node23" class="node">
<title>140282329010448</title>
<g id="a_node23"><a xlink:title="Output: 1195515 rows in 8 chunks, 1 ms 928 µs.">
<polygon fill="none" stroke="white" points="502.5,-1128.5 398.5,-1128.5 398.5,-1074.5 502.5,-1074.5 502.5,-1128.5"/>
<text text-anchor="middle" x="450.5" y="-1113.3" font-family="Times,serif" font-size="14.00" fill="white">Validate</text>
<text text-anchor="middle" x="450.5" y="-1082.3" font-family="Times,serif" font-size="14.00" fill="white">1 ms 928 µs</text>
</a>
</g>
</g>
<!-- 140282329010448&#45;&gt;140145461633232 -->
<g id="edge23" class="edge">
<title>140282329010448&#45;&gt;140145461633232</title>
<path fill="none" stroke="white" d="M450.5,-1128.6C450.5,-1148.35 450.5,-1175.93 450.5,-1199.06"/>
<polygon fill="white" stroke="white" points="450.5,-1199.33 447,-1199.33 450.5,-1209.33 450.5,-1199.33"/>
<text text-anchor="middle" x="551" y="-1157.8" font-family="Times,serif" font-size="14.00" fill="white">1,195,515 row(s)/8 chunk(s)</text>
</g>
<!-- 140145461632912 -->
<g id="node24" class="node">
<title>140145461632912</title>
<g id="a_node24"><a xlink:title="Output: 1195515 rows in 8 chunks, 252 ms 813 µs.&#10;Operator step runtimes:&#10; BuildSideMaterializing 92 ms 654 µs&#10; ProbeSideMaterializing 43 ms 307 µs&#10; Clustering 38 ms 453 µs&#10; Building 13 ms 572 µs&#10; Probing 56 ms 656 µs&#10; OutputWriting 7 ms 969 µs.&#10;Radix bits: 5.&#10;Build side is right.">
<polygon fill="none" stroke="white" stroke-width="7.39" points="554.5,-993.5 346.5,-993.5 346.5,-924.5 554.5,-924.5 554.5,-993.5"/>
<text text-anchor="middle" x="450.5" y="-978.3" font-family="Times,serif" font-size="14.00" fill="white">JoinHash (Semi Reduction)</text>
<text text-anchor="middle" x="450.5" y="-963.3" font-family="Times,serif" font-size="14.00" fill="white">o_orderkey = l_orderkey</text>
<text text-anchor="middle" x="450.5" y="-932.3" font-family="Times,serif" font-size="14.00" fill="white">252 ms 813 µs</text>
</a>
</g>
</g>
<!-- 140145461632912&#45;&gt;140282329010448 -->
<g id="edge24" class="edge">
<title>140145461632912&#45;&gt;140282329010448</title>
<path fill="none" stroke="white" d="M450.5,-993.65C450.5,-1014.86 450.5,-1042.25 450.5,-1063.98"/>
<polygon fill="white" stroke="white" points="447,-1064.15 450.5,-1074.15 454,-1064.15 447,-1064.15"/>
<text text-anchor="middle" x="551" y="-1037.8" font-family="Times,serif" font-size="14.00" fill="white">1,195,515 row(s)/8 chunk(s)</text>
</g>
<!-- 140145461631952 -->
<g id="node25" class="node">
<title>140145461631952</title>
<g id="a_node25"><a xlink:title="Output: 45574624 rows in 2289 chunks, 17 ms 378 µs.&#10;Chunks: 0 skipped with no results, &#10;0 skipped with all matching, 0 scanned using binary search.">
<polygon fill="none" stroke="white" points="684.5,-812 282.5,-812 282.5,-713 684.5,-713 684.5,-812"/>
<text text-anchor="middle" x="483.5" y="-796.8" font-family="Times,serif" font-size="14.00" fill="white">TableScan</text>
<text text-anchor="middle" x="483.5" y="-781.8" font-family="Times,serif" font-size="14.00" fill="white">Impl: ColumnBetween</text>
<text text-anchor="middle" x="483.5" y="-766.8" font-family="Times,serif" font-size="14.00" fill="white">o_orderdate BETWEEN INCLUSIVE &#39;1995&#45;01&#45;01&#39; AND</text>
<text text-anchor="middle" x="483.5" y="-751.8" font-family="Times,serif" font-size="14.00" fill="white">&#39;1996&#45;12&#45;31&#39;</text>
<text text-anchor="middle" x="483.5" y="-720.8" font-family="Times,serif" font-size="14.00" fill="white">17 ms 378 µs</text>
</a>
</g>
</g>
<!-- 140145461631952&#45;&gt;140145461632912 -->
<g id="edge25" class="edge">
<title>140145461631952&#45;&gt;140145461632912</title>
<path fill="none" stroke="white" stroke-width="1.64" d="M475.26,-812.08C469.92,-843.52 463.04,-884.1 457.88,-914.48"/>
<polygon fill="white" stroke="white" stroke-width="1.64" points="457.88,-914.51 454.43,-913.92 456.21,-924.37 457.88,-914.51"/>
<text text-anchor="middle" x="592" y="-853.3" font-family="Times,serif" font-size="14.00" fill="white">45,574,624 row(s)/2,289 chunk(s)</text>
</g>
<!-- 140282329106448 -->
<g id="node26" class="node">
<title>140282329106448</title>
<g id="a_node26"><a xlink:title="Output: 150000000 rows in 2289 chunks, 5 ms 926 µs.">
<polygon fill="none" stroke="white" points="549,-662 418,-662 418,-548 549,-548 549,-662"/>
<text text-anchor="middle" x="483.5" y="-646.8" font-family="Times,serif" font-size="14.00" fill="white">GetTable</text>
<text text-anchor="middle" x="483.5" y="-631.8" font-family="Times,serif" font-size="14.00" fill="white">(orders)</text>
<text text-anchor="middle" x="483.5" y="-616.8" font-family="Times,serif" font-size="14.00" fill="white">pruned:</text>
<text text-anchor="middle" x="483.5" y="-601.8" font-family="Times,serif" font-size="14.00" fill="white">0/2289 chunk(s)</text>
<text text-anchor="middle" x="483.5" y="-586.8" font-family="Times,serif" font-size="14.00" fill="white">6/9 column(s)</text>
<text text-anchor="middle" x="483.5" y="-555.8" font-family="Times,serif" font-size="14.00" fill="white">5 ms 926 µs</text>
</a>
</g>
</g>
<!-- 140282329106448&#45;&gt;140145461631952 -->
<g id="edge26" class="edge">
<title>140282329106448&#45;&gt;140145461631952</title>
<path fill="none" stroke="white" stroke-width="4.58" d="M483.5,-662.14C483.5,-675.38 483.5,-689.53 483.5,-702.88"/>
<polygon fill="white" stroke="white" stroke-width="4.58" points="479.49,-702.9 483.5,-712.9 487.51,-702.9 479.49,-702.9"/>
<text text-anchor="middle" x="608.5" y="-683.8" font-family="Times,serif" font-size="14.00" fill="white">150,000,000 row(s)/2,289 chunk(s)</text>
</g>
<!-- 140282328825104 -->
<g id="node27" class="node">
<title>140282328825104</title>
<g id="a_node27"><a xlink:title="Output: 3991392 rows in 4580 chunks, 23 ms 304 µs.">
<polygon fill="none" stroke="white" stroke-width="1.51" points="258,-789.5 145,-789.5 145,-735.5 258,-735.5 258,-789.5"/>
<text text-anchor="middle" x="201.5" y="-774.3" font-family="Times,serif" font-size="14.00" fill="white">Validate</text>
<text text-anchor="middle" x="201.5" y="-743.3" font-family="Times,serif" font-size="14.00" fill="white">23 ms 304 µs</text>
</a>
</g>
</g>
<!-- 140282328825104&#45;&gt;140145461633232 -->
<g id="edge28" class="edge">
<title>140282328825104&#45;&gt;140145461633232</title>
<path fill="none" stroke="white" d="M195.99,-789.67C186.32,-842.12 171.19,-962.48 214.5,-1049 249.04,-1117.99 320.53,-1171.22 375.82,-1204.32"/>
<polygon fill="white" stroke="white" points="384.55,-1209.46 377.71,-1201.37 375.93,-1204.38 384.55,-1209.46"/>
<text text-anchor="middle" x="330.5" y="-1037.8" font-family="Times,serif" font-size="14.00" fill="white">3,991,392 row(s)/4,580 chunk(s)</text>
</g>
<!-- 140282328825104&#45;&gt;140145461632912 -->
<g id="edge27" class="edge">
<title>140282328825104&#45;&gt;140145461632912</title>
<path fill="none" stroke="white" d="M203.89,-789.75C207.23,-820.89 214.31,-870.33 226.5,-884 254.64,-915.56 296.51,-933.7 336.46,-944.11"/>
<polygon fill="white" stroke="white" points="346.3,-946.53 337.42,-940.74 336.59,-944.14 346.3,-946.53"/>
<text text-anchor="middle" x="342.5" y="-853.3" font-family="Times,serif" font-size="14.00" fill="white">3,991,392 row(s)/4,580 chunk(s)</text>
</g>
<!-- 140145461632592 -->
<g id="node28" class="node">
<title>140145461632592</title>
<g id="a_node28"><a xlink:title="Output: 3991392 rows in 4580 chunks, 324 ms 261 µs.&#10;Operator step runtimes:&#10; BuildSideMaterializing 17 ms 9 µs&#10; ProbeSideMaterializing 180 ms 700 µs&#10; Clustering 0 ns&#10; Building 2 ms 130 µs&#10; Probing 19 ms 992 µs&#10; OutputWriting 71 ms 326 µs.&#10;Radix bits: 0.&#10;Build side is right.">
<polygon fill="none" stroke="white" stroke-width="8" points="288.5,-639.5 114.5,-639.5 114.5,-570.5 288.5,-570.5 288.5,-639.5"/>
<text text-anchor="middle" x="201.5" y="-624.3" font-family="Times,serif" font-size="14.00" fill="white">JoinHash (Semi)</text>
<text text-anchor="middle" x="201.5" y="-609.3" font-family="Times,serif" font-size="14.00" fill="white">l_partkey = p_partkey</text>
<text text-anchor="middle" x="201.5" y="-578.3" font-family="Times,serif" font-size="14.00" fill="white">324 ms 261 µs</text>
</a>
</g>
</g>
<!-- 140145461632592&#45;&gt;140282328825104 -->
<g id="edge29" class="edge">
<title>140145461632592&#45;&gt;140282328825104</title>
<path fill="none" stroke="white" d="M201.5,-639.74C201.5,-664.86 201.5,-699.13 201.5,-724.91"/>
<polygon fill="white" stroke="white" points="198,-725.03 201.5,-735.03 205,-725.03 198,-725.03"/>
<text text-anchor="middle" x="317.5" y="-683.8" font-family="Times,serif" font-size="14.00" fill="white">3,991,392 row(s)/4,580 chunk(s)</text>
</g>
<!-- 140282329106896 -->
<g id="node29" class="node">
<title>140282329106896</title>
<g id="a_node29"><a xlink:title="Output: 600037902 rows in 9156 chunks, 21 ms 405 µs.">
<polygon fill="none" stroke="white" stroke-width="1.3" points="131,-497 0,-497 0,-383 131,-383 131,-497"/>
<text text-anchor="middle" x="65.5" y="-481.8" font-family="Times,serif" font-size="14.00" fill="white">GetTable</text>
<text text-anchor="middle" x="65.5" y="-466.8" font-family="Times,serif" font-size="14.00" fill="white">(lineitem)</text>
<text text-anchor="middle" x="65.5" y="-451.8" font-family="Times,serif" font-size="14.00" fill="white">pruned:</text>
<text text-anchor="middle" x="65.5" y="-436.8" font-family="Times,serif" font-size="14.00" fill="white">0/9156 chunk(s)</text>
<text text-anchor="middle" x="65.5" y="-421.8" font-family="Times,serif" font-size="14.00" fill="white">11/16 column(s)</text>
<text text-anchor="middle" x="65.5" y="-390.8" font-family="Times,serif" font-size="14.00" fill="white">21 ms 405 µs</text>
</a>
</g>
</g>
<!-- 140282329106896&#45;&gt;140145461632592 -->
<g id="edge30" class="edge">
<title>140282329106896&#45;&gt;140145461632592</title>
<path fill="none" stroke="white" stroke-width="8" d="M57.38,-497.12C58.05,-508.62 60.62,-520.19 66.5,-530 75.95,-545.76 90.07,-558.39 105.66,-568.44"/>
<polygon fill="white" stroke="white" stroke-width="8" points="105.9,-568.59 102.28,-574.58 114.45,-573.76 105.9,-568.59"/>
<text text-anchor="middle" x="191.5" y="-518.8" font-family="Times,serif" font-size="14.00" fill="white">600,037,902 row(s)/9,156 chunk(s)</text>
</g>
<!-- 140282329011728 -->
<g id="node30" class="node">
<title>140282329011728</title>
<g id="a_node30"><a xlink:title="Output: 132991 rows in 306 chunks, 655 µs 931 ns.">
<polygon fill="none" stroke="white" points="397,-467 280,-467 280,-413 397,-413 397,-467"/>
<text text-anchor="middle" x="338.5" y="-451.8" font-family="Times,serif" font-size="14.00" fill="white">Validate</text>
<text text-anchor="middle" x="338.5" y="-420.8" font-family="Times,serif" font-size="14.00" fill="white">655 µs 931 ns</text>
</a>
</g>
</g>
<!-- 140282329011728&#45;&gt;140145461632592 -->
<g id="edge31" class="edge">
<title>140282329011728&#45;&gt;140145461632592</title>
<path fill="none" stroke="white" d="M337.12,-467.29C334.98,-486.24 329.64,-511.61 316.5,-530 306.95,-543.35 294.17,-554.89 280.6,-564.62"/>
<polygon fill="white" stroke="white" points="272.07,-570.45 282.3,-567.7 280.33,-564.81 272.07,-570.45"/>
<text text-anchor="middle" x="427" y="-518.8" font-family="Times,serif" font-size="14.00" fill="white">132,991 row(s)/306 chunk(s)</text>
</g>
<!-- 140145461632272 -->
<g id="node31" class="node">
<title>140145461632272</title>
<g id="a_node31"><a xlink:title="Output: 132991 rows in 306 chunks, 4 ms 744 µs.&#10;Chunks: 0 skipped with no results, &#10;0 skipped with all matching, 0 scanned using binary search.">
<polygon fill="none" stroke="white" points="468.5,-317 208.5,-317 208.5,-233 468.5,-233 468.5,-317"/>
<text text-anchor="middle" x="338.5" y="-301.8" font-family="Times,serif" font-size="14.00" fill="white">TableScan</text>
<text text-anchor="middle" x="338.5" y="-286.8" font-family="Times,serif" font-size="14.00" fill="white">Impl: ColumnVsValue</text>
<text text-anchor="middle" x="338.5" y="-271.8" font-family="Times,serif" font-size="14.00" fill="white">p_type = &#39;LARGE ANODIZED TIN&#39;</text>
<text text-anchor="middle" x="338.5" y="-240.8" font-family="Times,serif" font-size="14.00" fill="white">4 ms 744 µs</text>
</a>
</g>
</g>
<!-- 140145461632272&#45;&gt;140282329011728 -->
<g id="edge32" class="edge">
<title>140145461632272&#45;&gt;140282329011728</title>
<path fill="none" stroke="white" d="M338.5,-317.13C338.5,-343.37 338.5,-377.09 338.5,-402.4"/>
<polygon fill="white" stroke="white" points="335,-402.69 338.5,-412.69 342,-402.69 335,-402.69"/>
<text text-anchor="middle" x="441" y="-353.8" font-family="Times,serif" font-size="14.00" fill="white">132,991 row(s)/306 chunk(s)</text>
</g>
<!-- 140282329107344 -->
<g id="node32" class="node">
<title>140282329107344</title>
<g id="a_node32"><a xlink:title="Output: 20000000 rows in 306 chunks, 730 µs 742 ns.">
<polygon fill="none" stroke="white" points="399.5,-140.5 277.5,-140.5 277.5,-26.5 399.5,-26.5 399.5,-140.5"/>
<text text-anchor="middle" x="338.5" y="-125.3" font-family="Times,serif" font-size="14.00" fill="white">GetTable</text>
<text text-anchor="middle" x="338.5" y="-110.3" font-family="Times,serif" font-size="14.00" fill="white">(part)</text>
<text text-anchor="middle" x="338.5" y="-95.3" font-family="Times,serif" font-size="14.00" fill="white">pruned:</text>
<text text-anchor="middle" x="338.5" y="-80.3" font-family="Times,serif" font-size="14.00" fill="white">0/306 chunk(s)</text>
<text text-anchor="middle" x="338.5" y="-65.3" font-family="Times,serif" font-size="14.00" fill="white">7/9 column(s)</text>
<text text-anchor="middle" x="338.5" y="-34.3" font-family="Times,serif" font-size="14.00" fill="white">730 µs 742 ns</text>
</a>
</g>
</g>
<!-- 140282329107344&#45;&gt;140145461632272 -->
<g id="edge33" class="edge">
<title>140282329107344&#45;&gt;140145461632272</title>
<path fill="none" stroke="white" d="M338.5,-140.59C338.5,-166.58 338.5,-197.26 338.5,-222.65"/>
<polygon fill="white" stroke="white" points="335,-222.81 338.5,-232.81 342,-222.81 335,-222.81"/>
<text text-anchor="middle" x="452.5" y="-188.8" font-family="Times,serif" font-size="14.00" fill="white">20,000,000 row(s)/306 chunk(s)</text>
</g>
<!-- 140282329011984&#45;&gt;140145461634192 -->
<g id="edge34" class="edge">
<title>140282329011984&#45;&gt;140145461634192</title>
<path fill="none" stroke="white" d="M1094.56,-884.29C1093.38,-919.75 1091.5,-984.88 1091.5,-1040.5 1091.5,-1040.5 1091.5,-1040.5 1091.5,-1507.5 1091.5,-1549.88 987.51,-1583.06 901.17,-1603.29"/>
<polygon fill="white" stroke="white" points="891.27,-1605.57 901.8,-1606.74 901.01,-1603.33 891.27,-1605.57"/>
<text text-anchor="middle" x="1165" y="-1240.3" font-family="Times,serif" font-size="14.00" fill="white">25 row(s)/1 chunk(s)</text>
</g>
<!-- 0 -->
<g id="node34" class="node">
<title>0</title>
<polygon fill="none" stroke="white" points="418,-0.5 418,-166.5 739,-166.5 739,-0.5 418,-0.5"/>
<text text-anchor="middle" x="578.5" y="-151.3" font-family="Times,serif" font-size="14.00" fill="white">Total by operator</text>
<polyline fill="none" stroke="white" points="418,-143.5 739,-143.5 "/>
<text text-anchor="end" x="547" y="-128.3" font-family="Times,serif" font-size="14.00" fill="white">JoinHash </text>
<text text-anchor="end" x="547" y="-113.3" font-family="Times,serif" font-size="14.00" fill="white"> Projection </text>
<text text-anchor="end" x="547" y="-98.3" font-family="Times,serif" font-size="14.00" fill="white"> GetTable </text>
<text text-anchor="end" x="547" y="-83.3" font-family="Times,serif" font-size="14.00" fill="white"> Validate </text>
<text text-anchor="end" x="547" y="-68.3" font-family="Times,serif" font-size="14.00" fill="white"> TableScan </text>
<text text-anchor="end" x="547" y="-53.3" font-family="Times,serif" font-size="14.00" fill="white"> AggregateHash </text>
<text text-anchor="end" x="547" y="-38.3" font-family="Times,serif" font-size="14.00" fill="white"> Sort </text>
<text text-anchor="end" x="547" y="-23.3" font-family="Times,serif" font-size="14.00" fill="white"> Alias </text>
<text text-anchor="end" x="547" y="-8.3" font-family="Times,serif" font-size="14.00" fill="white">total</text>
<polyline fill="none" stroke="white" points="555,-0.5 555,-143.5 "/>
<text text-anchor="start" x="563" y="-128.3" font-family="Times,serif" font-size="14.00" fill="white">959 ms 937 µs </text>
<text text-anchor="start" x="563" y="-113.3" font-family="Times,serif" font-size="14.00" fill="white"> 146 ms 992 µs </text>
<text text-anchor="start" x="563" y="-98.3" font-family="Times,serif" font-size="14.00" fill="white"> 28 ms 843 µs </text>
<text text-anchor="start" x="563" y="-83.3" font-family="Times,serif" font-size="14.00" fill="white"> 26 ms 529 µs </text>
<text text-anchor="start" x="563" y="-68.3" font-family="Times,serif" font-size="14.00" fill="white"> 22 ms 144 µs </text>
<text text-anchor="start" x="563" y="-53.3" font-family="Times,serif" font-size="14.00" fill="white"> 7 ms 639 µs </text>
<text text-anchor="start" x="563" y="-38.3" font-family="Times,serif" font-size="14.00" fill="white"> 26 µs 159 ns </text>
<text text-anchor="start" x="563" y="-23.3" font-family="Times,serif" font-size="14.00" fill="white"> 12 µs 232 ns </text>
<text text-anchor="start" x="563" y="-8.3" font-family="Times,serif" font-size="14.00" fill="white"> 1 s 192 ms </text>
<polyline fill="none" stroke="white" points="686,-0.5 686,-143.5 "/>
<text text-anchor="start" x="694" y="-128.3" font-family="Times,serif" font-size="14.00" fill="white">81 %</text>
<text text-anchor="start" x="694" y="-113.3" font-family="Times,serif" font-size="14.00" fill="white">12 %</text>
<text text-anchor="start" x="694" y="-98.3" font-family="Times,serif" font-size="14.00" fill="white">2 %</text>
<text text-anchor="start" x="694" y="-83.3" font-family="Times,serif" font-size="14.00" fill="white">2 %</text>
<text text-anchor="start" x="694" y="-68.3" font-family="Times,serif" font-size="14.00" fill="white">2 %</text>
<text text-anchor="start" x="694" y="-53.3" font-family="Times,serif" font-size="14.00" fill="white">1 %</text>
<text text-anchor="start" x="694" y="-38.3" font-family="Times,serif" font-size="14.00" fill="white">0 %</text>
<text text-anchor="start" x="694" y="-23.3" font-family="Times,serif" font-size="14.00" fill="white">0 %</text>
<text text-anchor="start" x="694" y="-8.3" font-family="Times,serif" font-size="14.00" fill="white"> </text>
</g>
</g>
</svg>
