<?xml version="1.0" encoding="UTF-8" standalone="no"?>
<!DOCTYPE svg PUBLIC "-//W3C//DTD SVG 1.1//EN"
 "http://www.w3.org/Graphics/SVG/1.1/DTD/svg11.dtd">
<!-- Generated by graphviz version 2.43.0 (0)
 -->
<!-- Title: G Pages: 1 -->
<svg width="982pt" height="1829pt"
 viewBox="0.00 0.00 981.50 1829.00" xmlns="http://www.w3.org/2000/svg" xmlns:xlink="http://www.w3.org/1999/xlink">
<g id="graph0" class="graph" transform="scale(1 1) rotate(0) translate(4 1825)">
<title>G</title>
<polygon fill="black" stroke="transparent" points="-4,4 -4,-1825 977.5,-1825 977.5,4 -4,4"/>
<text text-anchor="middle" x="319.5" y="-1805.8" font-family="Times,serif" font-size="14.00" fill="white">For tooltips with advanced information, hover your mouse over vertices or edge labels.</text>
<!-- 140282447539280 -->
<g id="node1" class="node">
<title>140282447539280</title>
<g id="a_node1"><a xlink:title="Output: 89312 rows in 2 chunks, 4 µs 869 ns.">
<polygon fill="none" stroke="white" points="278.5,-1766 128.5,-1766 128.5,-1697 278.5,-1697 278.5,-1766"/>
<text text-anchor="middle" x="203.5" y="-1750.8" font-family="Times,serif" font-size="14.00" fill="white">Alias</text>
<text text-anchor="middle" x="203.5" y="-1735.8" font-family="Times,serif" font-size="14.00" fill="white">[ps_partkey, value]</text>
<text text-anchor="middle" x="203.5" y="-1704.8" font-family="Times,serif" font-size="14.00" fill="white">4 µs 869 ns</text>
</a>
</g>
</g>
<!-- 140282447538960 -->
<g id="node2" class="node">
<title>140282447538960</title>
<g id="a_node2"><a xlink:title="Output: 89312 rows in 2 chunks, 13 ms 748 µs.&#10;Operator step runtimes:&#10; MaterializeSortColumns 3 ms 302 µs&#10; Sort 8 ms 71 µs&#10; TemporaryResultWriting 79 µs 228 ns&#10; WriteOutput 2 ms 239 µs.">
<polygon fill="none" stroke="white" points="260,-1646 147,-1646 147,-1592 260,-1592 260,-1646"/>
<text text-anchor="middle" x="203.5" y="-1630.8" font-family="Times,serif" font-size="14.00" fill="white">Sort</text>
<text text-anchor="middle" x="203.5" y="-1599.8" font-family="Times,serif" font-size="14.00" fill="white">13 ms 748 µs</text>
</a>
</g>
</g>
<!-- 140282447538960&#45;&gt;140282447539280 -->
<g id="edge1" class="edge">
<title>140282447538960&#45;&gt;140282447539280</title>
<path fill="none" stroke="white" d="M203.5,-1646.19C203.5,-1658.29 203.5,-1673 203.5,-1686.72"/>
<polygon fill="white" stroke="white" points="200,-1686.95 203.5,-1696.95 207,-1686.96 200,-1686.95"/>
<text text-anchor="middle" x="292.5" y="-1667.8" font-family="Times,serif" font-size="14.00" fill="white">89,312 row(s)/2 chunk(s)</text>
</g>
<!-- 140282447538640 -->
<g id="node3" class="node">
<title>140282447538640</title>
<g id="a_node3"><a xlink:title="Output: 89312 rows in 47 chunks, 769 µs 595 ns.&#10;Chunks: 0 skipped with no results, &#10;0 skipped with all matching, 0 scanned using binary search.">
<polygon fill="none" stroke="white" points="407,-1541 0,-1541 0,-1442 407,-1442 407,-1541"/>
<text text-anchor="middle" x="203.5" y="-1525.8" font-family="Times,serif" font-size="14.00" fill="white">TableScan</text>
<text text-anchor="middle" x="203.5" y="-1510.8" font-family="Times,serif" font-size="14.00" fill="white">Impl: ColumnVsValue</text>
<text text-anchor="middle" x="203.5" y="-1495.8" font-family="Times,serif" font-size="14.00" fill="white">SUM(ps_supplycost * ps_availqty) &gt; SUBQUERY (PQP,</text>
<text text-anchor="middle" x="203.5" y="-1480.8" font-family="Times,serif" font-size="14.00" fill="white">0x7f960d742890)</text>
<text text-anchor="middle" x="203.5" y="-1449.8" font-family="Times,serif" font-size="14.00" fill="white">769 µs 595 ns</text>
</a>
</g>
</g>
<!-- 140282447538640&#45;&gt;140282447538960 -->
<g id="edge2" class="edge">
<title>140282447538640&#45;&gt;140282447538960</title>
<path fill="none" stroke="white" d="M203.5,-1541.02C203.5,-1554.49 203.5,-1568.89 203.5,-1581.54"/>
<polygon fill="white" stroke="white" points="200,-1581.7 203.5,-1591.7 207,-1581.7 200,-1581.7"/>
<text text-anchor="middle" x="297" y="-1562.8" font-family="Times,serif" font-size="14.00" fill="white">89,312 row(s)/47 chunk(s)</text>
</g>
<!-- 140282447937552 -->
<g id="node4" class="node">
<title>140282447937552</title>
<g id="a_node4"><a xlink:title="Output: 3032862 rows in 47 chunks, 383 ms 858 µs.&#10;Operator step runtimes:&#10; GroupByKeyPartitioning 29 ms 111 µs&#10; Aggregating 350 ms 907 µs&#10; GroupByColumnsWriting 1 ms 452 µs&#10; AggregateColumnsWriting 1 ms 849 µs&#10; OutputWriting 40 µs 586 ns.">
<polygon fill="none" stroke="white" stroke-width="8" points="324,-1319 65,-1319 65,-1235 324,-1235 324,-1319"/>
<text text-anchor="middle" x="194.5" y="-1303.8" font-family="Times,serif" font-size="14.00" fill="white">AggregateHash</text>
<text text-anchor="middle" x="194.5" y="-1288.8" font-family="Times,serif" font-size="14.00" fill="white">GroupBy {ps_partkey}</text>
<text text-anchor="middle" x="194.5" y="-1273.8" font-family="Times,serif" font-size="14.00" fill="white">SUM(ps_supplycost * ps_availqty)</text>
<text text-anchor="middle" x="194.5" y="-1242.8" font-family="Times,serif" font-size="14.00" fill="white">383 ms 858 µs</text>
</a>
</g>
</g>
<!-- 140282447937552&#45;&gt;140282447538640 -->
<g id="edge3" class="edge">
<title>140282447937552&#45;&gt;140282447538640</title>
<path fill="none" stroke="white" d="M194.71,-1319.08C194.95,-1340.52 195.45,-1367.18 196.5,-1391 197.08,-1404.23 197.94,-1418.44 198.86,-1431.87"/>
<polygon fill="white" stroke="white" points="195.38,-1432.22 199.57,-1441.95 202.36,-1431.72 195.38,-1432.22"/>
<text text-anchor="middle" x="301.5" y="-1360.3" font-family="Times,serif" font-size="14.00" fill="white">3,032,862 row(s)/47 chunk(s)</text>
</g>
<!-- 140282447537680 -->
<g id="node5" class="node">
<title>140282447537680</title>
<g id="a_node5"><a xlink:title="Output: 3222000 rows in 1221 chunks, 11 ms 451 µs.&#10;Operator step runtimes:&#10; ForwardUnmodifiedColumns 1 ms 688 µs&#10; EvaluateNewColumns 7 ms 962 µs&#10; BuildOutput 1 ms 590 µs.">
<polygon fill="none" stroke="white" points="264,-1082 151,-1082 151,-1028 264,-1028 264,-1082"/>
<text text-anchor="middle" x="207.5" y="-1066.8" font-family="Times,serif" font-size="14.00" fill="white">Projection</text>
<text text-anchor="middle" x="207.5" y="-1035.8" font-family="Times,serif" font-size="14.00" fill="white">11 ms 451 µs</text>
</a>
</g>
</g>
<!-- 140282447537680&#45;&gt;140282447937552 -->
<g id="edge4" class="edge">
<title>140282447537680&#45;&gt;140282447937552</title>
<path fill="none" stroke="white" d="M205.96,-1082.1C203.89,-1117.16 200.16,-1180.21 197.52,-1224.88"/>
<polygon fill="white" stroke="white" points="194.02,-1224.78 196.92,-1234.97 201.01,-1225.19 194.02,-1224.78"/>
<text text-anchor="middle" x="321.5" y="-1103.8" font-family="Times,serif" font-size="14.00" fill="white">3,222,000 row(s)/1,221 chunk(s)</text>
</g>
<!-- 140282446541072 -->
<g id="node6" class="node">
<title>140282446541072</title>
<g id="a_node6"><a xlink:title="Output: 3222000 rows in 1221 chunks, 2 ms 26 µs.">
<polygon fill="none" stroke="white" points="382,-977 287,-977 287,-923 382,-923 382,-977"/>
<text text-anchor="middle" x="334.5" y="-961.8" font-family="Times,serif" font-size="14.00" fill="white">Validate</text>
<text text-anchor="middle" x="334.5" y="-930.8" font-family="Times,serif" font-size="14.00" fill="white">2 ms 26 µs</text>
</a>
</g>
</g>
<!-- 140282446541072&#45;&gt;140282447537680 -->
<g id="edge5" class="edge">
<title>140282446541072&#45;&gt;140282447537680</title>
<path fill="none" stroke="white" d="M286.95,-954.85C259.65,-959.75 227.33,-970.7 209.5,-995 204.72,-1001.51 202.7,-1009.59 202.18,-1017.67"/>
<polygon fill="white" stroke="white" points="198.68,-1017.8 202.24,-1027.78 205.68,-1017.76 198.68,-1017.8"/>
<text text-anchor="middle" x="325.5" y="-998.8" font-family="Times,serif" font-size="14.00" fill="white">3,222,000 row(s)/1,221 chunk(s)</text>
</g>
<!-- 140282447538000 -->
<g id="node17" class="node">
<title>140282447538000</title>
<g id="a_node17"><a xlink:title="Output: 3222000 rows in 1221 chunks, 13 ms 221 µs.&#10;Operator step runtimes:&#10; ForwardUnmodifiedColumns 587 µs 494 ns&#10; EvaluateNewColumns 11 ms 996 µs&#10; BuildOutput 278 µs 643 ns.">
<polygon fill="none" stroke="white" points="521,-1082 408,-1082 408,-1028 521,-1028 521,-1082"/>
<text text-anchor="middle" x="464.5" y="-1066.8" font-family="Times,serif" font-size="14.00" fill="white">Projection</text>
<text text-anchor="middle" x="464.5" y="-1035.8" font-family="Times,serif" font-size="14.00" fill="white">13 ms 221 µs</text>
</a>
</g>
</g>
<!-- 140282446541072&#45;&gt;140282447538000 -->
<g id="edge6" class="edge">
<title>140282446541072&#45;&gt;140282447538000</title>
<path fill="none" stroke="white" d="M382.21,-961.6C402.69,-968.24 425.53,-978.73 441.5,-995 447.88,-1001.5 452.54,-1009.97 455.92,-1018.45"/>
<polygon fill="white" stroke="white" points="452.63,-1019.64 459.23,-1027.93 459.24,-1017.34 452.63,-1019.64"/>
<text text-anchor="middle" x="567.5" y="-998.8" font-family="Times,serif" font-size="14.00" fill="white">3,222,000 row(s)/1,221 chunk(s)</text>
</g>
<!-- 140282447537360 -->
<g id="node7" class="node">
<title>140282447537360</title>
<g id="a_node7"><a xlink:title="Output: 3222000 rows in 1221 chunks, 44 ms 818 µs.&#10;Operator step runtimes:&#10; BuildSideMaterializing 508 µs 996 ns&#10; ProbeSideMaterializing 24 ms 475 µs&#10; Clustering 0 ns&#10; Building 513 µs 925 ns&#10; Probing 2 ms 870 µs&#10; OutputWriting 11 ms 350 µs.&#10;Radix bits: 0.&#10;Build side is right.">
<polygon fill="none" stroke="white" stroke-width="2.7" points="431.5,-872 237.5,-872 237.5,-803 431.5,-803 431.5,-872"/>
<text text-anchor="middle" x="334.5" y="-856.8" font-family="Times,serif" font-size="14.00" fill="white">JoinHash (Semi)</text>
<text text-anchor="middle" x="334.5" y="-841.8" font-family="Times,serif" font-size="14.00" fill="white">ps_suppkey = s_suppkey</text>
<text text-anchor="middle" x="334.5" y="-810.8" font-family="Times,serif" font-size="14.00" fill="white">44 ms 818 µs</text>
</a>
</g>
</g>
<!-- 140282447537360&#45;&gt;140282446541072 -->
<g id="edge7" class="edge">
<title>140282447537360&#45;&gt;140282446541072</title>
<path fill="none" stroke="white" d="M334.5,-872.25C334.5,-885.07 334.5,-899.73 334.5,-912.77"/>
<polygon fill="white" stroke="white" points="331,-912.81 334.5,-922.81 338,-912.81 331,-912.81"/>
<text text-anchor="middle" x="450.5" y="-893.8" font-family="Times,serif" font-size="14.00" fill="white">3,222,000 row(s)/1,221 chunk(s)</text>
</g>
<!-- 139964418525328 -->
<g id="node8" class="node">
<title>139964418525328</title>
<g id="a_node8"><a xlink:title="Output: 80000000 rows in 1221 chunks, 2 ms 870 µs.">
<polygon fill="none" stroke="white" points="268,-752 137,-752 137,-638 268,-638 268,-752"/>
<text text-anchor="middle" x="202.5" y="-736.8" font-family="Times,serif" font-size="14.00" fill="white">GetTable</text>
<text text-anchor="middle" x="202.5" y="-721.8" font-family="Times,serif" font-size="14.00" fill="white">(partsupp)</text>
<text text-anchor="middle" x="202.5" y="-706.8" font-family="Times,serif" font-size="14.00" fill="white">pruned:</text>
<text text-anchor="middle" x="202.5" y="-691.8" font-family="Times,serif" font-size="14.00" fill="white">0/1221 chunk(s)</text>
<text text-anchor="middle" x="202.5" y="-676.8" font-family="Times,serif" font-size="14.00" fill="white">1/5 column(s)</text>
<text text-anchor="middle" x="202.5" y="-645.8" font-family="Times,serif" font-size="14.00" fill="white">2 ms 870 µs</text>
</a>
</g>
</g>
<!-- 139964418525328&#45;&gt;140282447537360 -->
<g id="edge8" class="edge">
<title>139964418525328&#45;&gt;140282447537360</title>
<path fill="none" stroke="white" stroke-width="8" d="M193.43,-752.25C194.11,-763.87 196.92,-775.46 203.5,-785 210.1,-794.57 218.77,-802.36 228.51,-808.7"/>
<polygon fill="white" stroke="white" stroke-width="8" points="228.72,-808.82 225.15,-814.85 237.32,-813.91 228.72,-808.82"/>
<text text-anchor="middle" x="324" y="-773.8" font-family="Times,serif" font-size="14.00" fill="white">80,000,000 row(s)/1,221 chunk(s)</text>
</g>
<!-- 140282446540816 -->
<g id="node9" class="node">
<title>140282446540816</title>
<g id="a_node9"><a xlink:title="Output: 40275 rows in 16 chunks, 56 µs 616 ns.">
<polygon fill="none" stroke="white" points="520.5,-722 412.5,-722 412.5,-668 520.5,-668 520.5,-722"/>
<text text-anchor="middle" x="466.5" y="-706.8" font-family="Times,serif" font-size="14.00" fill="white">Validate</text>
<text text-anchor="middle" x="466.5" y="-675.8" font-family="Times,serif" font-size="14.00" fill="white">56 µs 616 ns</text>
</a>
</g>
</g>
<!-- 140282446540816&#45;&gt;140282447537360 -->
<g id="edge9" class="edge">
<title>140282446540816&#45;&gt;140282447537360</title>
<path fill="none" stroke="white" d="M465.91,-722.03C464.19,-741.34 459.05,-767.29 444.5,-785 441.12,-789.12 437.33,-792.93 433.24,-796.45"/>
<polygon fill="white" stroke="white" points="425.07,-802.86 435.1,-799.45 432.93,-796.69 425.07,-802.86"/>
<text text-anchor="middle" x="548" y="-773.8" font-family="Times,serif" font-size="14.00" fill="white">40,275 row(s)/16 chunk(s)</text>
</g>
<!-- 140282447537040 -->
<g id="node10" class="node">
<title>140282447537040</title>
<g id="a_node10"><a xlink:title="Output: 40275 rows in 16 chunks, 826 µs 372 ns.&#10;Operator step runtimes:&#10; BuildSideMaterializing 55 µs 604 ns&#10; ProbeSideMaterializing 462 µs 729 ns&#10; Clustering 0 ns&#10; Building 4 µs 449 ns&#10; Probing 76 µs 995 ns&#10; OutputWriting 82 µs 205 ns.&#10;Radix bits: 0.&#10;Build side is right.">
<polygon fill="none" stroke="white" points="570,-587 363,-587 363,-518 570,-518 570,-587"/>
<text text-anchor="middle" x="466.5" y="-571.8" font-family="Times,serif" font-size="14.00" fill="white">JoinHash (Semi)</text>
<text text-anchor="middle" x="466.5" y="-556.8" font-family="Times,serif" font-size="14.00" fill="white">s_nationkey = n_nationkey</text>
<text text-anchor="middle" x="466.5" y="-525.8" font-family="Times,serif" font-size="14.00" fill="white">826 µs 372 ns</text>
</a>
</g>
</g>
<!-- 140282447537040&#45;&gt;140282446540816 -->
<g id="edge10" class="edge">
<title>140282447537040&#45;&gt;140282446540816</title>
<path fill="none" stroke="white" d="M466.5,-587.15C466.5,-608.36 466.5,-635.75 466.5,-657.48"/>
<polygon fill="white" stroke="white" points="463,-657.65 466.5,-667.65 470,-657.65 463,-657.65"/>
<text text-anchor="middle" x="560" y="-608.8" font-family="Times,serif" font-size="14.00" fill="white">40,275 row(s)/16 chunk(s)</text>
</g>
<!-- 139964418525776 -->
<g id="node11" class="node">
<title>139964418525776</title>
<g id="a_node11"><a xlink:title="Output: 1000000 rows in 16 chunks, 61 µs 436 ns.">
<polygon fill="none" stroke="white" points="407,-467 294,-467 294,-353 407,-353 407,-467"/>
<text text-anchor="middle" x="350.5" y="-451.8" font-family="Times,serif" font-size="14.00" fill="white">GetTable</text>
<text text-anchor="middle" x="350.5" y="-436.8" font-family="Times,serif" font-size="14.00" fill="white">(supplier)</text>
<text text-anchor="middle" x="350.5" y="-421.8" font-family="Times,serif" font-size="14.00" fill="white">pruned:</text>
<text text-anchor="middle" x="350.5" y="-406.8" font-family="Times,serif" font-size="14.00" fill="white">0/16 chunk(s)</text>
<text text-anchor="middle" x="350.5" y="-391.8" font-family="Times,serif" font-size="14.00" fill="white">5/7 column(s)</text>
<text text-anchor="middle" x="350.5" y="-360.8" font-family="Times,serif" font-size="14.00" fill="white">61 µs 436 ns</text>
</a>
</g>
</g>
<!-- 139964418525776&#45;&gt;140282447537040 -->
<g id="edge11" class="edge">
<title>139964418525776&#45;&gt;140282447537040</title>
<path fill="none" stroke="white" d="M341.76,-467.03C342.43,-478.66 345.14,-490.31 351.5,-500 354.1,-503.97 357.09,-507.63 360.37,-511.01"/>
<polygon fill="white" stroke="white" points="360.62,-511.24 358.27,-513.83 368.01,-517.98 360.62,-511.24"/>
<text text-anchor="middle" x="456.5" y="-488.8" font-family="Times,serif" font-size="14.00" fill="white">1,000,000 row(s)/16 chunk(s)</text>
</g>
<!-- 140282446491408 -->
<g id="node12" class="node">
<title>140282446491408</title>
<g id="a_node12"><a xlink:title="Output: 1 row in 1 chunk, 9 µs 508 ns.">
<polygon fill="none" stroke="white" points="633,-437 534,-437 534,-383 633,-383 633,-437"/>
<text text-anchor="middle" x="583.5" y="-421.8" font-family="Times,serif" font-size="14.00" fill="white">Validate</text>
<text text-anchor="middle" x="583.5" y="-390.8" font-family="Times,serif" font-size="14.00" fill="white">9 µs 508 ns</text>
</a>
</g>
</g>
<!-- 140282446491408&#45;&gt;140282447537040 -->
<g id="edge12" class="edge">
<title>140282446491408&#45;&gt;140282447537040</title>
<path fill="none" stroke="white" d="M582.56,-437.19C580.66,-456.33 575.42,-481.99 561.5,-500 558.35,-504.07 554.79,-507.86 550.94,-511.38"/>
<polygon fill="white" stroke="white" points="543.2,-517.83 553.12,-514.11 550.88,-511.42 543.2,-517.83"/>
<text text-anchor="middle" x="639.5" y="-488.8" font-family="Times,serif" font-size="14.00" fill="white">1 row(s)/1 chunk(s)</text>
</g>
<!-- 140282447536720 -->
<g id="node13" class="node">
<title>140282447536720</title>
<g id="a_node13"><a xlink:title="Output: 1 row in 1 chunk, 21 µs 170 ns.&#10;Chunks: 0 skipped with no results, &#10;0 skipped with all matching, 0 scanned using binary search.">
<polygon fill="none" stroke="white" points="703.5,-302 463.5,-302 463.5,-218 703.5,-218 703.5,-302"/>
<text text-anchor="middle" x="583.5" y="-286.8" font-family="Times,serif" font-size="14.00" fill="white">TableScan</text>
<text text-anchor="middle" x="583.5" y="-271.8" font-family="Times,serif" font-size="14.00" fill="white">Impl: ColumnVsValue</text>
<text text-anchor="middle" x="583.5" y="-256.8" font-family="Times,serif" font-size="14.00" fill="white">n_name = &#39;UNITED KINGDOM&#39;</text>
<text text-anchor="middle" x="583.5" y="-225.8" font-family="Times,serif" font-size="14.00" fill="white">21 µs 170 ns</text>
</a>
</g>
</g>
<!-- 140282447536720&#45;&gt;140282446491408 -->
<g id="edge13" class="edge">
<title>140282447536720&#45;&gt;140282446491408</title>
<path fill="none" stroke="white" d="M583.5,-302.23C583.5,-324.32 583.5,-351.31 583.5,-372.62"/>
<polygon fill="white" stroke="white" points="580,-372.88 583.5,-382.88 587,-372.88 580,-372.88"/>
<text text-anchor="middle" x="652.5" y="-323.8" font-family="Times,serif" font-size="14.00" fill="white">1 row(s)/1 chunk(s)</text>
</g>
<!-- 139964418526224 -->
<g id="node14" class="node">
<title>139964418526224</title>
<g id="a_node14"><a xlink:title="Output: 25 rows in 1 chunk, 19 µs 536 ns.">
<polygon fill="none" stroke="white" points="640,-140.5 527,-140.5 527,-26.5 640,-26.5 640,-140.5"/>
<text text-anchor="middle" x="583.5" y="-125.3" font-family="Times,serif" font-size="14.00" fill="white">GetTable</text>
<text text-anchor="middle" x="583.5" y="-110.3" font-family="Times,serif" font-size="14.00" fill="white">(nation)</text>
<text text-anchor="middle" x="583.5" y="-95.3" font-family="Times,serif" font-size="14.00" fill="white">pruned:</text>
<text text-anchor="middle" x="583.5" y="-80.3" font-family="Times,serif" font-size="14.00" fill="white">0/1 chunk(s)</text>
<text text-anchor="middle" x="583.5" y="-65.3" font-family="Times,serif" font-size="14.00" fill="white">2/4 column(s)</text>
<text text-anchor="middle" x="583.5" y="-34.3" font-family="Times,serif" font-size="14.00" fill="white">19 µs 536 ns</text>
</a>
</g>
</g>
<!-- 139964418526224&#45;&gt;140282447536720 -->
<g id="edge14" class="edge">
<title>139964418526224&#45;&gt;140282447536720</title>
<path fill="none" stroke="white" d="M583.5,-140.67C583.5,-162.25 583.5,-186.74 583.5,-207.83"/>
<polygon fill="white" stroke="white" points="580,-207.87 583.5,-217.87 587,-207.87 580,-207.87"/>
<text text-anchor="middle" x="657" y="-188.8" font-family="Times,serif" font-size="14.00" fill="white">25 row(s)/1 chunk(s)</text>
</g>
<!-- 140282447538320 -->
<g id="node15" class="node">
<title>140282447538320</title>
<g id="a_node15"><a xlink:title="Output: 1 row in 1 chunk, 50 µs 174 ns.&#10;Operator step runtimes:&#10; ForwardUnmodifiedColumns 1 µs 793 ns&#10; EvaluateNewColumns 21 µs 540 ns&#10; BuildOutput 23 µs 344 ns.">
<polygon fill="none" stroke="white" points="523.5,-1391 415.5,-1391 415.5,-1337 523.5,-1337 523.5,-1391"/>
<text text-anchor="middle" x="469.5" y="-1375.8" font-family="Times,serif" font-size="14.00" fill="white">Projection</text>
<text text-anchor="middle" x="469.5" y="-1344.8" font-family="Times,serif" font-size="14.00" fill="white">50 µs 174 ns</text>
</a>
</g>
</g>
<!-- 140282447538320&#45;&gt;140282447538640 -->
<g id="edge15" class="edge">
<title>140282447538320&#45;&gt;140282447538640</title>
<path fill="none" stroke="white" stroke-dasharray="5,2" d="M415.35,-1390.55C386.63,-1404.1 350.22,-1421.28 315.73,-1437.55"/>
<polygon fill="white" stroke="white" points="314.08,-1434.46 306.53,-1441.89 317.07,-1440.79 314.08,-1434.46"/>
<text text-anchor="middle" x="458" y="-1412.8" font-family="Times,serif" font-size="14.00" fill="white">uncorrelated subquery</text>
</g>
<!-- 140282447938064 -->
<g id="node16" class="node">
<title>140282447938064</title>
<g id="a_node16"><a xlink:title="Output: 1 row in 1 chunk, 3 ms 473 µs.&#10;Operator step runtimes:&#10; GroupByKeyPartitioning 30 ns&#10; Aggregating 3 ms 443 µs&#10; GroupByColumnsWriting 932 ns&#10; AggregateColumnsWriting 13 µs 987 ns&#10; OutputWriting 7 µs 103 ns.">
<polygon fill="none" stroke="white" points="597,-1217 338,-1217 338,-1133 597,-1133 597,-1217"/>
<text text-anchor="middle" x="467.5" y="-1201.8" font-family="Times,serif" font-size="14.00" fill="white">AggregateHash</text>
<text text-anchor="middle" x="467.5" y="-1186.8" font-family="Times,serif" font-size="14.00" fill="white">GroupBy {}</text>
<text text-anchor="middle" x="467.5" y="-1171.8" font-family="Times,serif" font-size="14.00" fill="white">SUM(ps_supplycost * ps_availqty)</text>
<text text-anchor="middle" x="467.5" y="-1140.8" font-family="Times,serif" font-size="14.00" fill="white">3 ms 473 µs</text>
</a>
</g>
</g>
<!-- 140282447938064&#45;&gt;140282447538320 -->
<g id="edge16" class="edge">
<title>140282447938064&#45;&gt;140282447538320</title>
<path fill="none" stroke="white" d="M467.94,-1217.04C468.29,-1249.78 468.78,-1295.22 469.11,-1326.66"/>
<polygon fill="white" stroke="white" points="465.61,-1326.79 469.22,-1336.75 472.61,-1326.71 465.61,-1326.79"/>
<text text-anchor="middle" x="538.5" y="-1273.3" font-family="Times,serif" font-size="14.00" fill="white">1 row(s)/1 chunk(s)</text>
</g>
<!-- 140282447538000&#45;&gt;140282447938064 -->
<g id="edge17" class="edge">
<title>140282447538000&#45;&gt;140282447938064</title>
<path fill="none" stroke="white" d="M465.17,-1082.19C465.47,-1094.1 465.84,-1108.63 466.19,-1122.58"/>
<polygon fill="white" stroke="white" points="462.69,-1122.68 466.45,-1132.59 469.69,-1122.5 462.69,-1122.68"/>
<text text-anchor="middle" x="582.5" y="-1103.8" font-family="Times,serif" font-size="14.00" fill="white">3,222,000 row(s)/1,221 chunk(s)</text>
</g>
<!-- 0 -->
<g id="node18" class="node">
<title>0</title>
<polygon fill="none" stroke="white" points="657.5,-0.5 657.5,-166.5 973.5,-166.5 973.5,-0.5 657.5,-0.5"/>
<text text-anchor="middle" x="815.5" y="-151.3" font-family="Times,serif" font-size="14.00" fill="white">Total by operator</text>
<polyline fill="none" stroke="white" points="657.5,-143.5 973.5,-143.5 "/>
<text text-anchor="end" x="781.5" y="-128.3" font-family="Times,serif" font-size="14.00" fill="white">AggregateHash </text>
<text text-anchor="end" x="781.5" y="-113.3" font-family="Times,serif" font-size="14.00" fill="white"> JoinHash </text>
<text text-anchor="end" x="781.5" y="-98.3" font-family="Times,serif" font-size="14.00" fill="white"> Projection </text>
<text text-anchor="end" x="781.5" y="-83.3" font-family="Times,serif" font-size="14.00" fill="white"> Sort </text>
<text text-anchor="end" x="781.5" y="-68.3" font-family="Times,serif" font-size="14.00" fill="white"> GetTable </text>
<text text-anchor="end" x="781.5" y="-53.3" font-family="Times,serif" font-size="14.00" fill="white"> Validate </text>
<text text-anchor="end" x="781.5" y="-38.3" font-family="Times,serif" font-size="14.00" fill="white"> TableScan </text>
<text text-anchor="end" x="781.5" y="-23.3" font-family="Times,serif" font-size="14.00" fill="white"> Alias </text>
<text text-anchor="end" x="781.5" y="-8.3" font-family="Times,serif" font-size="14.00" fill="white">total</text>
<polyline fill="none" stroke="white" points="789.5,-0.5 789.5,-143.5 "/>
<text text-anchor="start" x="797.5" y="-128.3" font-family="Times,serif" font-size="14.00" fill="white">387 ms 330 µs </text>
<text text-anchor="start" x="797.5" y="-113.3" font-family="Times,serif" font-size="14.00" fill="white"> 45 ms 644 µs </text>
<text text-anchor="start" x="797.5" y="-98.3" font-family="Times,serif" font-size="14.00" fill="white"> 24 ms 721 µs </text>
<text text-anchor="start" x="797.5" y="-83.3" font-family="Times,serif" font-size="14.00" fill="white"> 13 ms 748 µs </text>
<text text-anchor="start" x="797.5" y="-68.3" font-family="Times,serif" font-size="14.00" fill="white"> 2 ms 951 µs </text>
<text text-anchor="start" x="797.5" y="-53.3" font-family="Times,serif" font-size="14.00" fill="white"> 2 ms 93 µs </text>
<text text-anchor="start" x="797.5" y="-38.3" font-family="Times,serif" font-size="14.00" fill="white"> 790 µs 765 ns </text>
<text text-anchor="start" x="797.5" y="-23.3" font-family="Times,serif" font-size="14.00" fill="white"> 4 µs 869 ns </text>
<text text-anchor="start" x="797.5" y="-8.3" font-family="Times,serif" font-size="14.00" fill="white"> 477 ms 283 µs </text>
<polyline fill="none" stroke="white" points="920.5,-0.5 920.5,-143.5 "/>
<text text-anchor="start" x="928.5" y="-128.3" font-family="Times,serif" font-size="14.00" fill="white">81 %</text>
<text text-anchor="start" x="928.5" y="-113.3" font-family="Times,serif" font-size="14.00" fill="white">10 %</text>
<text text-anchor="start" x="928.5" y="-98.3" font-family="Times,serif" font-size="14.00" fill="white">5 %</text>
<text text-anchor="start" x="928.5" y="-83.3" font-family="Times,serif" font-size="14.00" fill="white">3 %</text>
<text text-anchor="start" x="928.5" y="-68.3" font-family="Times,serif" font-size="14.00" fill="white">1 %</text>
<text text-anchor="start" x="928.5" y="-53.3" font-family="Times,serif" font-size="14.00" fill="white">0 %</text>
<text text-anchor="start" x="928.5" y="-38.3" font-family="Times,serif" font-size="14.00" fill="white">0 %</text>
<text text-anchor="start" x="928.5" y="-23.3" font-family="Times,serif" font-size="14.00" fill="white">0 %</text>
<text text-anchor="start" x="928.5" y="-8.3" font-family="Times,serif" font-size="14.00" fill="white"> </text>
</g>
</g>
</svg>
