<?xml version="1.0" encoding="UTF-8" standalone="no"?>
<!DOCTYPE svg PUBLIC "-//W3C//DTD SVG 1.1//EN"
 "http://www.w3.org/Graphics/SVG/1.1/DTD/svg11.dtd">
<!-- Generated by graphviz version 2.43.0 (0)
 -->
<!-- Title: G Pages: 1 -->
<svg width="1165pt" height="1725pt"
 viewBox="0.00 0.00 1165.00 1725.00" xmlns="http://www.w3.org/2000/svg" xmlns:xlink="http://www.w3.org/1999/xlink">
<g id="graph0" class="graph" transform="scale(1 1) rotate(0) translate(4 1721)">
<title>G</title>
<polygon fill="black" stroke="transparent" points="-4,4 -4,-1721 1161,-1721 1161,4 -4,4"/>
<text text-anchor="middle" x="319.5" y="-1701.8" font-family="Times,serif" font-size="14.00" fill="white">For tooltips with advanced information, hover your mouse over vertices or edge labels.</text>
<!-- 139855116865968 -->
<g id="node1" class="node">
<title>139855116865968</title>
<polygon fill="none" stroke="white" points="581.5,-1662 344.5,-1662 344.5,-1626 581.5,-1626 581.5,-1662"/>
<text text-anchor="middle" x="463" y="-1640.3" font-family="Times,serif" font-size="14.00" fill="white">[Projection] s_name, s_address</text>
</g>
<!-- 140017504749136 -->
<g id="node2" class="node">
<title>140017504749136</title>
<polygon fill="none" stroke="white" points="565,-1575 361,-1575 361,-1539 565,-1539 565,-1575"/>
<text text-anchor="middle" x="463" y="-1553.3" font-family="Times,serif" font-size="14.00" fill="white">[Sort] s_name (Ascending)</text>
</g>
<!-- 140017504749136&#45;&gt;139855116865968 -->
<g id="edge1" class="edge">
<title>140017504749136&#45;&gt;139855116865968</title>
<path fill="none" stroke="white" d="M463,-1575.2C463,-1586.84 463,-1602.45 463,-1615.76"/>
<polygon fill="white" stroke="white" points="459.5,-1615.82 463,-1625.82 466.5,-1615.82 459.5,-1615.82"/>
<g id="a_edge1&#45;label"><a xlink:title="Output Expressions: &#10; (1) s_suppkey&#10; (2) s_name&#10; (3) s_address&#10; (4) s_nationkey&#10;&#10;Unique Column Combinations: &#10; (1) {s_suppkey}&#10;&#10;Functional Dependencies (trivial): &#10; (1) {s_suppkey} =&gt; {s_name, s_address, s_nationkey}&#10;&#10;Functional Dependencies (non&#45;trivial): &#10; &lt;none&gt;">
<text text-anchor="middle" x="555" y="-1596.8" font-family="Times,serif" font-size="14.00" fill="white"> 0.0 row(s) | 100.0% estd.</text>
</a>
</g>
</g>
<!-- 139841029871568 -->
<g id="node3" class="node">
<title>139841029871568</title>
<polygon fill="none" stroke="white" points="637.5,-1488 288.5,-1488 288.5,-1452 637.5,-1452 637.5,-1488"/>
<text text-anchor="middle" x="463" y="-1466.3" font-family="Times,serif" font-size="14.00" fill="white">[Join] Mode: Semi [s_nationkey = n_nationkey]</text>
</g>
<!-- 139841029871568&#45;&gt;140017504749136 -->
<g id="edge2" class="edge">
<title>139841029871568&#45;&gt;140017504749136</title>
<path fill="none" stroke="white" d="M463,-1488.2C463,-1499.84 463,-1515.45 463,-1528.76"/>
<polygon fill="white" stroke="white" points="459.5,-1528.82 463,-1538.82 466.5,-1528.82 459.5,-1528.82"/>
<g id="a_edge2&#45;label"><a xlink:title="Output Expressions: &#10; (1) s_suppkey&#10; (2) s_name&#10; (3) s_address&#10; (4) s_nationkey&#10;&#10;Unique Column Combinations: &#10; (1) {s_suppkey}&#10;&#10;Functional Dependencies (trivial): &#10; (1) {s_suppkey} =&gt; {s_name, s_address, s_nationkey}&#10;&#10;Functional Dependencies (non&#45;trivial): &#10; &lt;none&gt;">
<text text-anchor="middle" x="555" y="-1509.8" font-family="Times,serif" font-size="14.00" fill="white"> 0.0 row(s) | 100.0% estd.</text>
</a>
</g>
</g>
<!-- 140017454400784 -->
<g id="node4" class="node">
<title>140017454400784</title>
<polygon fill="none" stroke="white" points="609.5,-1347 524.5,-1347 524.5,-1311 609.5,-1311 609.5,-1347"/>
<text text-anchor="middle" x="567" y="-1325.3" font-family="Times,serif" font-size="14.00" fill="white">[Validate]</text>
</g>
<!-- 140017454400784&#45;&gt;139841029871568 -->
<g id="edge3" class="edge">
<title>140017454400784&#45;&gt;139841029871568</title>
<path fill="none" stroke="white" d="M569.19,-1347.14C571.08,-1369.57 570.91,-1408.99 551,-1434 547.19,-1438.78 542.64,-1442.91 537.63,-1446.48"/>
<polygon fill="white" stroke="white" points="537.32,-1446.67 535.47,-1443.7 528.84,-1451.96 537.32,-1446.67"/>
<g id="a_edge3&#45;label"><a xlink:title="Output Expressions: &#10; (1) s_suppkey&#10; (2) s_name&#10; (3) s_address&#10; (4) s_nationkey&#10;&#10;Unique Column Combinations: &#10; (1) {s_suppkey}&#10;&#10;Functional Dependencies (trivial): &#10; (1) {s_suppkey} =&gt; {s_name, s_address, s_nationkey}&#10;&#10;Functional Dependencies (non&#45;trivial): &#10; &lt;none&gt;">
<text text-anchor="middle" x="662" y="-1379.3" font-family="Times,serif" font-size="14.00" fill="white"> 0.0 row(s) | 100.0% estd.</text>
</a>
</g>
</g>
<!-- 139841029872144 -->
<g id="node5" class="node">
<title>139841029872144</title>
<polygon fill="none" stroke="white" points="699.5,-1204 364.5,-1204 364.5,-1168 699.5,-1168 699.5,-1204"/>
<text text-anchor="middle" x="532" y="-1182.3" font-family="Times,serif" font-size="14.00" fill="white">[Join] Mode: Semi [s_suppkey = ps_suppkey]</text>
</g>
<!-- 139841029872144&#45;&gt;140017454400784 -->
<g id="edge4" class="edge">
<title>139841029872144&#45;&gt;140017454400784</title>
<path fill="none" stroke="white" d="M539.01,-1204.27C541.12,-1209.87 543.32,-1216.14 545,-1222 552.6,-1248.42 558.7,-1279.26 562.53,-1300.84"/>
<polygon fill="white" stroke="white" points="559.12,-1301.66 564.27,-1310.92 566.02,-1300.47 559.12,-1301.66"/>
<g id="a_edge4&#45;label"><a xlink:title="Output Expressions: &#10; (1) s_suppkey&#10; (2) s_name&#10; (3) s_address&#10; (4) s_nationkey&#10;&#10;Unique Column Combinations: &#10; (1) {s_suppkey}&#10;&#10;Functional Dependencies (trivial): &#10; (1) {s_suppkey} =&gt; {s_name, s_address, s_nationkey}&#10;&#10;Functional Dependencies (non&#45;trivial): &#10; &lt;none&gt;">
<text text-anchor="middle" x="632" y="-1225.8" font-family="Times,serif" font-size="14.00" fill="white"> 0.0 row(s) | 0.0% estd.</text>
</a>
</g>
</g>
<!-- 139841029871376 -->
<g id="node24" class="node">
<title>139841029871376</title>
<polygon fill="none" stroke="white" points="527.5,-1293 178.5,-1293 178.5,-1255 527.5,-1255 527.5,-1293"/>
<text text-anchor="middle" x="353" y="-1277.8" font-family="Times,serif" font-size="14.00" fill="white">[Join] Mode: Semi [s_nationkey = n_nationkey]</text>
<text text-anchor="middle" x="353" y="-1262.8" font-family="Times,serif" font-size="14.00" fill="white">(SemiJoinReductionRule)</text>
</g>
<!-- 139841029872144&#45;&gt;139841029871376 -->
<g id="edge5" class="edge">
<title>139841029872144&#45;&gt;139841029871376</title>
<path fill="none" stroke="white" d="M410.46,-1204.09C399.18,-1208.76 388.46,-1214.63 379,-1222 371.37,-1227.95 365.78,-1236.75 361.79,-1245.37"/>
<polygon fill="white" stroke="white" points="357.93,-1254.87 364.94,-1246.92 361.69,-1245.6 357.93,-1254.87"/>
<g id="a_edge5&#45;label"><a xlink:title="Output Expressions: &#10; (1) s_suppkey&#10; (2) s_name&#10; (3) s_address&#10; (4) s_nationkey&#10;&#10;Unique Column Combinations: &#10; (1) {s_suppkey}&#10;&#10;Functional Dependencies (trivial): &#10; (1) {s_suppkey} =&gt; {s_name, s_address, s_nationkey}&#10;&#10;Functional Dependencies (non&#45;trivial): &#10; &lt;none&gt;">
<text text-anchor="middle" x="462" y="-1225.8" font-family="Times,serif" font-size="14.00" fill="white"> 0.0 row(s) | 0.0% estd.</text>
</a>
</g>
</g>
<!-- 140017024726480 -->
<g id="node6" class="node">
<title>140017024726480</title>
<polygon fill="none" stroke="white" points="928,-1117 606,-1117 606,-1079 928,-1079 928,-1117"/>
<text text-anchor="middle" x="767" y="-1101.8" font-family="Times,serif" font-size="14.00" fill="white">[StoredTable] Name: &#39;supplier&#39; pruned: 0/8</text>
<text text-anchor="middle" x="767" y="-1086.8" font-family="Times,serif" font-size="14.00" fill="white">chunk(s), 3/7 column(s)</text>
</g>
<!-- 140017024726480&#45;&gt;139841029872144 -->
<g id="edge6" class="edge">
<title>140017024726480&#45;&gt;139841029872144</title>
<path fill="none" stroke="white" d="M749.67,-1117.24C738.06,-1128.38 721.87,-1141.98 705,-1150 692.3,-1156.04 678.59,-1161.04 664.64,-1165.18"/>
<polygon fill="white" stroke="white" points="664.58,-1165.2 663.63,-1161.83 654.95,-1167.91 664.58,-1165.2"/>
<g id="a_edge6&#45;label"><a xlink:title="Output Expressions: &#10; (1) s_suppkey&#10; (2) s_name&#10; (3) s_address&#10; (4) s_nationkey&#10;&#10;Unique Column Combinations: &#10; (1) {s_suppkey}&#10;&#10;Functional Dependencies (trivial): &#10; (1) {s_suppkey} =&gt; {s_name, s_address, s_nationkey}&#10;&#10;Functional Dependencies (non&#45;trivial): &#10; &lt;none&gt;">
<text text-anchor="middle" x="844" y="-1138.8" font-family="Times,serif" font-size="14.00" fill="white"> 500,000.0 row(s) | 100.0% estd.</text>
</a>
</g>
</g>
<!-- 139855116867408 -->
<g id="node7" class="node">
<title>139855116867408</title>
<polygon fill="none" stroke="white" points="587.5,-1116 400.5,-1116 400.5,-1080 587.5,-1080 587.5,-1116"/>
<text text-anchor="middle" x="494" y="-1094.3" font-family="Times,serif" font-size="14.00" fill="white">[Projection] ps_suppkey</text>
</g>
<!-- 139855116867408&#45;&gt;139841029872144 -->
<g id="edge7" class="edge">
<title>139855116867408&#45;&gt;139841029872144</title>
<path fill="none" stroke="white" d="M501.69,-1116.4C507.03,-1128.49 514.24,-1144.82 520.29,-1158.51"/>
<polygon fill="white" stroke="white" points="524.45,-1167.92 523.61,-1157.35 520.41,-1158.77 524.45,-1167.92"/>
<g id="a_edge7&#45;label"><a xlink:title="Output Expressions: &#10; (1) ps_suppkey&#10;&#10;Unique Column Combinations: &#10; &lt;none&gt;&#10;&#10;Functional Dependencies (trivial): &#10; &lt;none&gt;&#10;&#10;Functional Dependencies (non&#45;trivial): &#10; &lt;none&gt;">
<text text-anchor="middle" x="609" y="-1138.8" font-family="Times,serif" font-size="14.00" fill="white"> 0.0 row(s) | 100.0% estd.</text>
</a>
</g>
</g>
<!-- 139841029873488 -->
<g id="node8" class="node">
<title>139841029873488</title>
<polygon fill="none" stroke="white" points="680,-1028 308,-1028 308,-975 680,-975 680,-1028"/>
<text text-anchor="middle" x="494" y="-1012.8" font-family="Times,serif" font-size="14.00" fill="white">[Join] Mode: Semi [ps_suppkey = l_suppkey]</text>
<text text-anchor="middle" x="494" y="-997.8" font-family="Times,serif" font-size="14.00" fill="white">[ps_availqty &gt; 0.5 * SUM(l_quantity)] [ps_partkey</text>
<text text-anchor="middle" x="494" y="-982.8" font-family="Times,serif" font-size="14.00" fill="white">= l_partkey]</text>
</g>
<!-- 139841029873488&#45;&gt;139855116867408 -->
<g id="edge8" class="edge">
<title>139841029873488&#45;&gt;139855116867408</title>
<path fill="none" stroke="white" d="M494,-1028.32C494,-1041.13 494,-1056.6 494,-1069.62"/>
<polygon fill="white" stroke="white" points="490.5,-1069.86 494,-1079.86 497.5,-1069.86 490.5,-1069.86"/>
<g id="a_edge8&#45;label"><a xlink:title="Output Expressions: &#10; (1) ps_partkey&#10; (2) ps_suppkey&#10; (3) ps_availqty&#10;&#10;Unique Column Combinations: &#10; (1) {ps_partkey, ps_suppkey}&#10;&#10;Functional Dependencies (trivial): &#10; (1) {ps_partkey, ps_suppkey} =&gt; {ps_availqty}&#10;&#10;Functional Dependencies (non&#45;trivial): &#10; &lt;none&gt;">
<text text-anchor="middle" x="581.5" y="-1049.8" font-family="Times,serif" font-size="14.00" fill="white"> 0.0 row(s) | 25.0% estd.</text>
</a>
</g>
</g>
<!-- 139855116867248 -->
<g id="node9" class="node">
<title>139855116867248</title>
<polygon fill="none" stroke="white" points="566.5,-480 481.5,-480 481.5,-444 566.5,-444 566.5,-480"/>
<text text-anchor="middle" x="524" y="-458.3" font-family="Times,serif" font-size="14.00" fill="white">[Validate]</text>
</g>
<!-- 139855116867248&#45;&gt;139841029873488 -->
<g id="edge9" class="edge">
<title>139855116867248&#45;&gt;139841029873488</title>
<path fill="none" stroke="white" d="M508.43,-480.25C495.08,-496.87 478,-523.35 478,-550 478,-550 478,-550 478,-906 478,-925.61 481.39,-947.2 485.05,-964.78"/>
<polygon fill="white" stroke="white" points="485.07,-964.86 481.65,-965.61 487.21,-974.63 485.07,-964.86"/>
<g id="a_edge9&#45;label"><a xlink:title="Output Expressions: &#10; (1) ps_partkey&#10; (2) ps_suppkey&#10; (3) ps_availqty&#10;&#10;Unique Column Combinations: &#10; (1) {ps_partkey, ps_suppkey}&#10;&#10;Functional Dependencies (trivial): &#10; (1) {ps_partkey, ps_suppkey} =&gt; {ps_availqty}&#10;&#10;Functional Dependencies (non&#45;trivial): &#10; &lt;none&gt;">
<text text-anchor="middle" x="570" y="-724.3" font-family="Times,serif" font-size="14.00" fill="white"> 0.0 row(s) | 100.0% estd.</text>
</a>
</g>
</g>
<!-- 139841029869456 -->
<g id="node19" class="node">
<title>139841029869456</title>
<polygon fill="none" stroke="white" points="884.5,-659 561.5,-659 561.5,-621 884.5,-621 884.5,-659"/>
<text text-anchor="middle" x="723" y="-643.8" font-family="Times,serif" font-size="14.00" fill="white">[Join] Mode: Semi [ps_partkey = l_partkey]</text>
<text text-anchor="middle" x="723" y="-628.8" font-family="Times,serif" font-size="14.00" fill="white">(SemiJoinReductionRule)</text>
</g>
<!-- 139855116867248&#45;&gt;139841029869456 -->
<g id="edge11" class="edge">
<title>139855116867248&#45;&gt;139841029869456</title>
<path fill="none" stroke="white" d="M520.25,-480.18C516.28,-503.14 513.06,-543.94 533,-570 549.91,-592.09 574.56,-607.12 600.54,-617.34"/>
<polygon fill="white" stroke="white" points="610.16,-620.89 601.99,-614.14 600.78,-617.42 610.16,-620.89"/>
<g id="a_edge11&#45;label"><a xlink:title="Output Expressions: &#10; (1) ps_partkey&#10; (2) ps_suppkey&#10; (3) ps_availqty&#10;&#10;Unique Column Combinations: &#10; (1) {ps_partkey, ps_suppkey}&#10;&#10;Functional Dependencies (trivial): &#10; (1) {ps_partkey, ps_suppkey} =&gt; {ps_availqty}&#10;&#10;Functional Dependencies (non&#45;trivial): &#10; &lt;none&gt;">
<text text-anchor="middle" x="625" y="-547.3" font-family="Times,serif" font-size="14.00" fill="white"> 0.0 row(s) | 100.0% estd.</text>
</a>
</g>
</g>
<!-- 140017442035216 -->
<g id="node20" class="node">
<title>140017442035216</title>
<polygon fill="none" stroke="white" points="1058,-570 726,-570 726,-532 1058,-532 1058,-570"/>
<text text-anchor="middle" x="892" y="-554.8" font-family="Times,serif" font-size="14.00" fill="white">[Join] Mode: Semi [ps_suppkey = l_suppkey]</text>
<text text-anchor="middle" x="892" y="-539.8" font-family="Times,serif" font-size="14.00" fill="white">(SemiJoinReductionRule)</text>
</g>
<!-- 139855116867248&#45;&gt;140017442035216 -->
<g id="edge10" class="edge">
<title>139855116867248&#45;&gt;140017442035216</title>
<path fill="none" stroke="white" d="M566.64,-476.21C602.94,-487.19 656.59,-502.77 704,-514 728.27,-519.75 754.46,-525.22 779.36,-530.08"/>
<polygon fill="white" stroke="white" points="789.21,-531.99 780.05,-526.65 779.39,-530.09 789.21,-531.99"/>
<g id="a_edge10&#45;label"><a xlink:title="Output Expressions: &#10; (1) ps_partkey&#10; (2) ps_suppkey&#10; (3) ps_availqty&#10;&#10;Unique Column Combinations: &#10; (1) {ps_partkey, ps_suppkey}&#10;&#10;Functional Dependencies (trivial): &#10; (1) {ps_partkey, ps_suppkey} =&gt; {ps_availqty}&#10;&#10;Functional Dependencies (non&#45;trivial): &#10; &lt;none&gt;">
<text text-anchor="middle" x="796" y="-502.8" font-family="Times,serif" font-size="14.00" fill="white"> 0.0 row(s) | 100.0% estd.</text>
</a>
</g>
</g>
<!-- 139841029872528 -->
<g id="node10" class="node">
<title>139841029872528</title>
<polygon fill="none" stroke="white" points="688,-391 360,-391 360,-355 688,-355 688,-391"/>
<text text-anchor="middle" x="524" y="-369.3" font-family="Times,serif" font-size="14.00" fill="white">[Join] Mode: Semi [ps_partkey = p_partkey]</text>
</g>
<!-- 139841029872528&#45;&gt;139855116867248 -->
<g id="edge12" class="edge">
<title>139841029872528&#45;&gt;139855116867248</title>
<path fill="none" stroke="white" d="M524,-391.19C524,-403.34 524,-419.89 524,-433.82"/>
<polygon fill="white" stroke="white" points="520.5,-433.85 524,-443.85 527.5,-433.85 520.5,-433.85"/>
<g id="a_edge12&#45;label"><a xlink:title="Output Expressions: &#10; (1) ps_partkey&#10; (2) ps_suppkey&#10; (3) ps_availqty&#10;&#10;Unique Column Combinations: &#10; (1) {ps_partkey, ps_suppkey}&#10;&#10;Functional Dependencies (trivial): &#10; (1) {ps_partkey, ps_suppkey} =&gt; {ps_availqty}&#10;&#10;Functional Dependencies (non&#45;trivial): &#10; &lt;none&gt;">
<text text-anchor="middle" x="607" y="-413.8" font-family="Times,serif" font-size="14.00" fill="white"> 0.0 row(s) | 0.0% estd.</text>
</a>
</g>
</g>
<!-- 140017024727120 -->
<g id="node11" class="node">
<title>140017024727120</title>
<polygon fill="none" stroke="white" points="558,-303 212,-303 212,-265 558,-265 558,-303"/>
<text text-anchor="middle" x="385" y="-287.8" font-family="Times,serif" font-size="14.00" fill="white">[StoredTable] Name: &#39;partsupp&#39; pruned: 0/611</text>
<text text-anchor="middle" x="385" y="-272.8" font-family="Times,serif" font-size="14.00" fill="white">chunk(s), 2/5 column(s)</text>
</g>
<!-- 140017024727120&#45;&gt;139841029872528 -->
<g id="edge13" class="edge">
<title>140017024727120&#45;&gt;139841029872528</title>
<path fill="none" stroke="white" stroke-width="3.03" d="M380.31,-303.33C378.73,-313.95 378.87,-326.96 386,-336 390.86,-342.16 401.77,-347.48 415.44,-351.99"/>
<polygon fill="white" stroke="white" stroke-width="3.03" points="415.73,-352.08 414.71,-355.43 425.3,-354.99 415.73,-352.08"/>
<g id="a_edge13&#45;label"><a xlink:title="Output Expressions: &#10; (1) ps_partkey&#10; (2) ps_suppkey&#10; (3) ps_availqty&#10;&#10;Unique Column Combinations: &#10; (1) {ps_partkey, ps_suppkey}&#10;&#10;Functional Dependencies (trivial): &#10; (1) {ps_partkey, ps_suppkey} =&gt; {ps_availqty}&#10;&#10;Functional Dependencies (non&#45;trivial): &#10; &lt;none&gt;">
<text text-anchor="middle" x="514" y="-324.8" font-family="Times,serif" font-size="14.00" fill="white"> 40,000,000.0 row(s) | 100.0% estd.</text>
</a>
</g>
</g>
<!-- 139855116868208 -->
<g id="node12" class="node">
<title>139855116868208</title>
<polygon fill="none" stroke="white" points="751.5,-302 576.5,-302 576.5,-266 751.5,-266 751.5,-302"/>
<text text-anchor="middle" x="664" y="-280.3" font-family="Times,serif" font-size="14.00" fill="white">[Projection] p_partkey</text>
</g>
<!-- 139855116868208&#45;&gt;139841029872528 -->
<g id="edge14" class="edge">
<title>139855116868208&#45;&gt;139841029872528</title>
<path fill="none" stroke="white" d="M660.47,-302.35C657.37,-313.41 651.77,-327.26 642,-336 635.63,-341.7 628.38,-346.49 620.68,-350.53"/>
<polygon fill="white" stroke="white" points="611.46,-354.93 622,-353.78 620.49,-350.62 611.46,-354.93"/>
<g id="a_edge14&#45;label"><a xlink:title="Output Expressions: &#10; (1) p_partkey&#10;&#10;Unique Column Combinations: &#10; (1) {p_partkey}&#10;&#10;Functional Dependencies (trivial): &#10; &lt;none&gt;&#10;&#10;Functional Dependencies (non&#45;trivial): &#10; &lt;none&gt;">
<text text-anchor="middle" x="745" y="-324.8" font-family="Times,serif" font-size="14.00" fill="white"> 0.0 row(s) | 100.0% estd.</text>
</a>
</g>
</g>
<!-- 139855116868048 -->
<g id="node13" class="node">
<title>139855116868048</title>
<polygon fill="none" stroke="white" points="706.5,-214 621.5,-214 621.5,-178 706.5,-178 706.5,-214"/>
<text text-anchor="middle" x="664" y="-192.3" font-family="Times,serif" font-size="14.00" fill="white">[Validate]</text>
</g>
<!-- 139855116868048&#45;&gt;139855116868208 -->
<g id="edge15" class="edge">
<title>139855116868048&#45;&gt;139855116868208</title>
<path fill="none" stroke="white" d="M664,-214.4C664,-226.25 664,-242.18 664,-255.71"/>
<polygon fill="white" stroke="white" points="660.5,-255.92 664,-265.92 667.5,-255.92 660.5,-255.92"/>
<g id="a_edge15&#45;label"><a xlink:title="Output Expressions: &#10; (1) p_partkey&#10; (2) p_name&#10;&#10;Unique Column Combinations: &#10; (1) {p_partkey}&#10;&#10;Functional Dependencies (trivial): &#10; (1) {p_partkey} =&gt; {p_name}&#10;&#10;Functional Dependencies (non&#45;trivial): &#10; &lt;none&gt;">
<text text-anchor="middle" x="756" y="-235.8" font-family="Times,serif" font-size="14.00" fill="white"> 0.0 row(s) | 100.0% estd.</text>
</a>
</g>
</g>
<!-- 139841029872720 -->
<g id="node14" class="node">
<title>139841029872720</title>
<polygon fill="none" stroke="white" points="856,-127 472,-127 472,-89 856,-89 856,-127"/>
<text text-anchor="middle" x="664" y="-111.8" font-family="Times,serif" font-size="14.00" fill="white">[Predicate] p_name BETWEEN UPPER EXCLUSIVE</text>
<text text-anchor="middle" x="664" y="-96.8" font-family="Times,serif" font-size="14.00" fill="white">&#39;moccasin&#39; AND &#39;moccasio&#39;</text>
</g>
<!-- 139841029872720&#45;&gt;139855116868048 -->
<g id="edge16" class="edge">
<title>139841029872720&#45;&gt;139855116868048</title>
<path fill="none" stroke="white" d="M664,-127.24C664,-139.07 664,-154.68 664,-167.95"/>
<polygon fill="white" stroke="white" points="660.5,-167.96 664,-177.96 667.5,-167.96 660.5,-167.96"/>
<g id="a_edge16&#45;label"><a xlink:title="Output Expressions: &#10; (1) p_partkey&#10; (2) p_name&#10;&#10;Unique Column Combinations: &#10; (1) {p_partkey}&#10;&#10;Functional Dependencies (trivial): &#10; (1) {p_partkey} =&gt; {p_name}&#10;&#10;Functional Dependencies (non&#45;trivial): &#10; &lt;none&gt;">
<text text-anchor="middle" x="747" y="-148.8" font-family="Times,serif" font-size="14.00" fill="white"> 0.0 row(s) | 0.0% estd.</text>
</a>
</g>
</g>
<!-- 140017024729040 -->
<g id="node15" class="node">
<title>140017024729040</title>
<polygon fill="none" stroke="white" points="854.5,-38 473.5,-38 473.5,0 854.5,0 854.5,-38"/>
<text text-anchor="middle" x="664" y="-22.8" font-family="Times,serif" font-size="14.00" fill="white">[StoredTable] Name: &#39;part&#39; pruned: 0/153 chunk(s),</text>
<text text-anchor="middle" x="664" y="-7.8" font-family="Times,serif" font-size="14.00" fill="white">7/9 column(s)</text>
</g>
<!-- 140017024729040&#45;&gt;139841029872720 -->
<g id="edge17" class="edge">
<title>140017024729040&#45;&gt;139841029872720</title>
<path fill="none" stroke="white" d="M664,-38.03C664,-49.81 664,-65.44 664,-78.84"/>
<polygon fill="white" stroke="white" points="660.5,-79 664,-89 667.5,-79 660.5,-79"/>
<g id="a_edge17&#45;label"><a xlink:title="Output Expressions: &#10; (1) p_partkey&#10; (2) p_name&#10;&#10;Unique Column Combinations: &#10; (1) {p_partkey}&#10;&#10;Functional Dependencies (trivial): &#10; (1) {p_partkey} =&gt; {p_name}&#10;&#10;Functional Dependencies (non&#45;trivial): &#10; &lt;none&gt;">
<text text-anchor="middle" x="792" y="-59.8" font-family="Times,serif" font-size="14.00" fill="white"> 10,000,000.0 row(s) | 100.0% estd.</text>
</a>
</g>
</g>
<!-- 139855116867728 -->
<g id="node16" class="node">
<title>139855116867728</title>
<polygon fill="none" stroke="white" points="871,-924 529,-924 529,-886 871,-886 871,-924"/>
<text text-anchor="middle" x="700" y="-908.8" font-family="Times,serif" font-size="14.00" fill="white">[Projection] 0.5 * SUM(l_quantity), l_suppkey,</text>
<text text-anchor="middle" x="700" y="-893.8" font-family="Times,serif" font-size="14.00" fill="white">l_partkey</text>
</g>
<!-- 139855116867728&#45;&gt;139841029873488 -->
<g id="edge18" class="edge">
<title>139855116867728&#45;&gt;139841029873488</title>
<path fill="none" stroke="white" d="M660.28,-924.22C631.64,-937.36 592.34,-955.39 559.14,-970.62"/>
<polygon fill="white" stroke="white" points="549.95,-974.83 560.5,-973.85 559.04,-970.66 549.95,-974.83"/>
<g id="a_edge18&#45;label"><a xlink:title="Output Expressions: &#10; (1) 0.5 * SUM(l_quantity) NULL&#10; (2) l_suppkey&#10; (3) l_partkey&#10;&#10;Unique Column Combinations: &#10; (1) {l_partkey, l_suppkey}&#10;&#10;Functional Dependencies (trivial): &#10; (1) {l_partkey, l_suppkey} =&gt; {0.5 * SUM(l_quantity)}&#10;&#10;Functional Dependencies (non&#45;trivial): &#10; &lt;none&gt;">
<text text-anchor="middle" x="714" y="-945.8" font-family="Times,serif" font-size="14.00" fill="white"> 0.0 row(s) | 100.0% estd.</text>
</a>
</g>
</g>
<!-- 139841029873296 -->
<g id="node17" class="node">
<title>139841029873296</title>
<polygon fill="none" stroke="white" points="880,-835 548,-835 548,-797 880,-797 880,-835"/>
<text text-anchor="middle" x="714" y="-819.8" font-family="Times,serif" font-size="14.00" fill="white">[Aggregate] GroupBy: [l_suppkey, l_partkey]</text>
<text text-anchor="middle" x="714" y="-804.8" font-family="Times,serif" font-size="14.00" fill="white">Aggregates: [SUM(l_quantity)]</text>
</g>
<!-- 139841029873296&#45;&gt;139855116867728 -->
<g id="edge19" class="edge">
<title>139841029873296&#45;&gt;139855116867728</title>
<path fill="none" stroke="white" d="M711.1,-835.03C709.2,-846.81 706.69,-862.44 704.53,-875.84"/>
<polygon fill="white" stroke="white" points="701.03,-875.57 702.9,-886 707.94,-876.68 701.03,-875.57"/>
<g id="a_edge19&#45;label"><a xlink:title="Output Expressions: &#10; (1) l_suppkey&#10; (2) l_partkey&#10; (3) SUM(l_quantity) NULL&#10;&#10;Unique Column Combinations: &#10; (1) {l_partkey, l_suppkey}&#10;&#10;Functional Dependencies (trivial): &#10; (1) {l_partkey, l_suppkey} =&gt; {SUM(l_quantity)}&#10;&#10;Functional Dependencies (non&#45;trivial): &#10; &lt;none&gt;">
<text text-anchor="middle" x="799" y="-856.8" font-family="Times,serif" font-size="14.00" fill="white"> 0.0 row(s) | 100.0% estd.</text>
</a>
</g>
</g>
<!-- 139855116867568 -->
<g id="node18" class="node">
<title>139855116867568</title>
<polygon fill="none" stroke="white" points="765.5,-746 680.5,-746 680.5,-710 765.5,-710 765.5,-746"/>
<text text-anchor="middle" x="723" y="-724.3" font-family="Times,serif" font-size="14.00" fill="white">[Validate]</text>
</g>
<!-- 139855116867568&#45;&gt;139841029873296 -->
<g id="edge20" class="edge">
<title>139855116867568&#45;&gt;139841029873296</title>
<path fill="none" stroke="white" d="M721.18,-746.4C719.97,-757.94 718.36,-773.35 716.97,-786.64"/>
<polygon fill="white" stroke="white" points="713.47,-786.42 715.91,-796.73 720.43,-787.15 713.47,-786.42"/>
<g id="a_edge20&#45;label"><a xlink:title="Output Expressions: &#10; (1) l_partkey&#10; (2) l_suppkey&#10; (3) l_quantity&#10; (4) l_shipdate&#10;&#10;Unique Column Combinations: &#10; &lt;none&gt;&#10;&#10;Functional Dependencies (trivial): &#10; &lt;none&gt;&#10;&#10;Functional Dependencies (non&#45;trivial): &#10; &lt;none&gt;">
<text text-anchor="middle" x="811" y="-767.8" font-family="Times,serif" font-size="14.00" fill="white"> 0.0 row(s) | 100.0% estd.</text>
</a>
</g>
</g>
<!-- 139841029869456&#45;&gt;139855116867568 -->
<g id="edge21" class="edge">
<title>139841029869456&#45;&gt;139855116867568</title>
<path fill="none" stroke="white" d="M723,-659.24C723,-671.07 723,-686.68 723,-699.95"/>
<polygon fill="white" stroke="white" points="719.5,-699.96 723,-709.96 726.5,-699.96 719.5,-699.96"/>
<g id="a_edge21&#45;label"><a xlink:title="Output Expressions: &#10; (1) l_partkey&#10; (2) l_suppkey&#10; (3) l_quantity&#10; (4) l_shipdate&#10;&#10;Unique Column Combinations: &#10; &lt;none&gt;&#10;&#10;Functional Dependencies (trivial): &#10; &lt;none&gt;&#10;&#10;Functional Dependencies (non&#45;trivial): &#10; &lt;none&gt;">
<text text-anchor="middle" x="806" y="-680.8" font-family="Times,serif" font-size="14.00" fill="white"> 0.0 row(s) | 0.3% estd.</text>
</a>
</g>
</g>
<!-- 140017442035216&#45;&gt;139841029869456 -->
<g id="edge22" class="edge">
<title>140017442035216&#45;&gt;139841029869456</title>
<path fill="none" stroke="white" d="M856.98,-570.03C830.92,-583.44 795.17,-601.85 767.15,-616.27"/>
<polygon fill="white" stroke="white" points="766.86,-616.42 765.26,-613.31 757.97,-621 766.86,-616.42"/>
<g id="a_edge22&#45;label"><a xlink:title="Output Expressions: &#10; (1) l_partkey&#10; (2) l_suppkey&#10; (3) l_quantity&#10; (4) l_shipdate&#10;&#10;Unique Column Combinations: &#10; &lt;none&gt;&#10;&#10;Functional Dependencies (trivial): &#10; &lt;none&gt;&#10;&#10;Functional Dependencies (non&#45;trivial): &#10; &lt;none&gt;">
<text text-anchor="middle" x="900" y="-591.8" font-family="Times,serif" font-size="14.00" fill="white"> 0.0 row(s) | 0.0% estd.</text>
</a>
</g>
</g>
<!-- 139841029873104 -->
<g id="node21" class="node">
<title>139841029873104</title>
<polygon fill="none" stroke="white" points="1093,-481 691,-481 691,-443 1093,-443 1093,-481"/>
<text text-anchor="middle" x="892" y="-465.8" font-family="Times,serif" font-size="14.00" fill="white">[Predicate] l_shipdate BETWEEN UPPER EXCLUSIVE</text>
<text text-anchor="middle" x="892" y="-450.8" font-family="Times,serif" font-size="14.00" fill="white">&#39;1997&#45;01&#45;01&#39; AND &#39;1998&#45;01&#45;01&#39;</text>
</g>
<!-- 139841029873104&#45;&gt;140017442035216 -->
<g id="edge23" class="edge">
<title>139841029873104&#45;&gt;140017442035216</title>
<path fill="none" stroke="white" stroke-width="3.42" d="M892,-481.03C892,-492.81 892,-508.44 892,-521.84"/>
<polygon fill="white" stroke="white" stroke-width="3.42" points="892,-522 888.5,-522 892,-532 892,-522"/>
<g id="a_edge23&#45;label"><a xlink:title="Output Expressions: &#10; (1) l_partkey&#10; (2) l_suppkey&#10; (3) l_quantity&#10; (4) l_shipdate&#10;&#10;Unique Column Combinations: &#10; &lt;none&gt;&#10;&#10;Functional Dependencies (trivial): &#10; &lt;none&gt;&#10;&#10;Functional Dependencies (non&#45;trivial): &#10; &lt;none&gt;">
<text text-anchor="middle" x="1015.5" y="-502.8" font-family="Times,serif" font-size="14.00" fill="white"> 46,785,116.0 row(s) | 15.6% estd.</text>
</a>
</g>
</g>
<!-- 140017024725840 -->
<g id="node22" class="node">
<title>140017024725840</title>
<polygon fill="none" stroke="white" points="1066.5,-392 717.5,-392 717.5,-354 1066.5,-354 1066.5,-392"/>
<text text-anchor="middle" x="892" y="-376.8" font-family="Times,serif" font-size="14.00" fill="white">[StoredTable] Name: &#39;lineitem&#39; pruned: 0/4578</text>
<text text-anchor="middle" x="892" y="-361.8" font-family="Times,serif" font-size="14.00" fill="white">chunk(s), 12/16 column(s)</text>
</g>
<!-- 140017024725840&#45;&gt;139841029873104 -->
<g id="edge24" class="edge">
<title>140017024725840&#45;&gt;139841029873104</title>
<path fill="none" stroke="white" stroke-width="8" d="M892,-392.03C892,-403.81 892,-419.44 892,-432.84"/>
<polygon fill="white" stroke="white" stroke-width="8" points="885,-433 892,-443 899,-433 885,-433"/>
<g id="a_edge24&#45;label"><a xlink:title="Output Expressions: &#10; (1) l_partkey&#10; (2) l_suppkey&#10; (3) l_quantity&#10; (4) l_shipdate&#10;&#10;Unique Column Combinations: &#10; &lt;none&gt;&#10;&#10;Functional Dependencies (trivial): &#10; &lt;none&gt;&#10;&#10;Functional Dependencies (non&#45;trivial): &#10; &lt;none&gt;">
<text text-anchor="middle" x="1024.5" y="-413.8" font-family="Times,serif" font-size="14.00" fill="white"> 300,005,824.0 row(s) | 100.0% estd.</text>
</a>
</g>
</g>
<!-- 139855116862608 -->
<g id="node23" class="node">
<title>139855116862608</title>
<polygon fill="none" stroke="white" points="402.5,-1401 317.5,-1401 317.5,-1365 402.5,-1365 402.5,-1401"/>
<text text-anchor="middle" x="360" y="-1379.3" font-family="Times,serif" font-size="14.00" fill="white">[Validate]</text>
</g>
<!-- 139855116862608&#45;&gt;139841029871568 -->
<g id="edge25" class="edge">
<title>139855116862608&#45;&gt;139841029871568</title>
<path fill="none" stroke="white" d="M358.22,-1401.02C358.04,-1411.6 359.61,-1424.87 367,-1434 370.86,-1438.77 375.43,-1442.89 380.45,-1446.45"/>
<polygon fill="white" stroke="white" points="389.27,-1451.93 382.62,-1443.68 380.77,-1446.65 389.27,-1451.93"/>
<g id="a_edge25&#45;label"><a xlink:title="Output Expressions: &#10; (1) n_nationkey&#10; (2) n_name&#10;&#10;Unique Column Combinations: &#10; (1) {n_nationkey}&#10;&#10;Functional Dependencies (trivial): &#10; (1) {n_nationkey} =&gt; {n_name}&#10;&#10;Functional Dependencies (non&#45;trivial): &#10; &lt;none&gt;">
<text text-anchor="middle" x="459" y="-1422.8" font-family="Times,serif" font-size="14.00" fill="white"> 0.0 row(s) | 100.0% estd.</text>
</a>
</g>
</g>
<!-- 139841029871376&#45;&gt;139855116862608 -->
<g id="edge26" class="edge">
<title>139841029871376&#45;&gt;139855116862608</title>
<path fill="none" stroke="white" d="M349.92,-1293.15C347.94,-1307.77 346.21,-1328.81 349,-1347 349.41,-1349.68 349.99,-1352.44 350.67,-1355.17"/>
<polygon fill="white" stroke="white" points="347.31,-1356.17 353.45,-1364.8 354.04,-1354.22 347.31,-1356.17"/>
<g id="a_edge26&#45;label"><a xlink:title="Output Expressions: &#10; (1) n_nationkey&#10; (2) n_name&#10;&#10;Unique Column Combinations: &#10; (1) {n_nationkey}&#10;&#10;Functional Dependencies (trivial): &#10; (1) {n_nationkey} =&gt; {n_name}&#10;&#10;Functional Dependencies (non&#45;trivial): &#10; &lt;none&gt;">
<text text-anchor="middle" x="432" y="-1325.3" font-family="Times,serif" font-size="14.00" fill="white"> 0.0 row(s) | 0.0% estd.</text>
</a>
</g>
</g>
<!-- 139841029870800 -->
<g id="node25" class="node">
<title>139841029870800</title>
<polygon fill="none" stroke="white" points="312,-1204 66,-1204 66,-1168 312,-1168 312,-1204"/>
<text text-anchor="middle" x="189" y="-1182.3" font-family="Times,serif" font-size="14.00" fill="white">[Predicate] n_name = &#39;FRANCE&#39;</text>
</g>
<!-- 139841029870800&#45;&gt;139841029871376 -->
<g id="edge27" class="edge">
<title>139841029870800&#45;&gt;139841029871376</title>
<path fill="none" stroke="white" d="M184.44,-1204.11C182.7,-1214.73 182.62,-1228 190,-1237 194.76,-1242.8 204.26,-1247.73 216.4,-1251.9"/>
<polygon fill="white" stroke="white" points="216.61,-1251.97 215.57,-1255.31 226.16,-1254.95 216.61,-1251.97"/>
<g id="a_edge27&#45;label"><a xlink:title="Output Expressions: &#10; (1) n_nationkey&#10; (2) n_name&#10;&#10;Unique Column Combinations: &#10; (1) {n_nationkey}&#10;&#10;Functional Dependencies (trivial): &#10; (1) {n_nationkey} =&gt; {n_name}&#10;&#10;Functional Dependencies (non&#45;trivial): &#10; &lt;none&gt;">
<text text-anchor="middle" x="273" y="-1225.8" font-family="Times,serif" font-size="14.00" fill="white"> 1.0 row(s) | 4.0% estd.</text>
</a>
</g>
</g>
<!-- 140017024728080 -->
<g id="node26" class="node">
<title>140017024728080</title>
<polygon fill="none" stroke="white" points="378,-1117 0,-1117 0,-1079 378,-1079 378,-1117"/>
<text text-anchor="middle" x="189" y="-1101.8" font-family="Times,serif" font-size="14.00" fill="white">[StoredTable] Name: &#39;nation&#39; pruned: 0/1 chunk(s),</text>
<text text-anchor="middle" x="189" y="-1086.8" font-family="Times,serif" font-size="14.00" fill="white">2/4 column(s)</text>
</g>
<!-- 140017024728080&#45;&gt;139841029870800 -->
<g id="edge28" class="edge">
<title>140017024728080&#45;&gt;139841029870800</title>
<path fill="none" stroke="white" d="M189,-1117.24C189,-1129.07 189,-1144.68 189,-1157.95"/>
<polygon fill="white" stroke="white" points="185.5,-1157.96 189,-1167.96 192.5,-1157.96 185.5,-1157.96"/>
<g id="a_edge28&#45;label"><a xlink:title="Output Expressions: &#10; (1) n_nationkey&#10; (2) n_name&#10;&#10;Unique Column Combinations: &#10; (1) {n_nationkey}&#10;&#10;Functional Dependencies (trivial): &#10; (1) {n_nationkey} =&gt; {n_name}&#10;&#10;Functional Dependencies (non&#45;trivial): &#10; &lt;none&gt;">
<text text-anchor="middle" x="285.5" y="-1138.8" font-family="Times,serif" font-size="14.00" fill="white"> 25.0 row(s) | 100.0% estd.</text>
</a>
</g>
</g>
</g>
</svg>
