<?xml version="1.0" encoding="UTF-8" standalone="no"?>
<!DOCTYPE svg PUBLIC "-//W3C//DTD SVG 1.1//EN"
 "http://www.w3.org/Graphics/SVG/1.1/DTD/svg11.dtd">
<!-- Generated by graphviz version 2.43.0 (0)
 -->
<!-- Title: G Pages: 1 -->
<svg width="1174pt" height="2303pt"
 viewBox="0.00 0.00 1174.00 2303.00" xmlns="http://www.w3.org/2000/svg" xmlns:xlink="http://www.w3.org/1999/xlink">
<g id="graph0" class="graph" transform="scale(1 1) rotate(0) translate(4 2299)">
<title>G</title>
<polygon fill="black" stroke="transparent" points="-4,4 -4,-2299 1170,-2299 1170,4 -4,4"/>
<text text-anchor="middle" x="319.5" y="-2279.8" font-family="Times,serif" font-size="14.00" fill="white">For tooltips with advanced information, hover your mouse over vertices or edge labels.</text>
<!-- 140017382558928 -->
<g id="node1" class="node">
<title>140017382558928</title>
<g id="a_node1"><a xlink:title="Output: 100 rows in 1 chunk filtered: 0, 8 µs 681 ns.&#10;Operator step runtimes:&#10; ForwardUnmodifiedColumns 2 µs 737 ns&#10; EvaluateNewColumns 372 ns&#10; BuildOutput 4 µs 186 ns.">
<polygon fill="none" stroke="white" points="514.5,-2240 415.5,-2240 415.5,-2186 514.5,-2186 514.5,-2240"/>
<text text-anchor="middle" x="465" y="-2224.8" font-family="Times,serif" font-size="14.00" fill="white">Projection</text>
<text text-anchor="middle" x="465" y="-2193.8" font-family="Times,serif" font-size="14.00" fill="white">8 µs 681 ns</text>
</a>
</g>
</g>
<!-- 140017381018128 -->
<g id="node2" class="node">
<title>140017381018128</title>
<g id="a_node2"><a xlink:title="Output: 100 rows in 1 chunk filtered: 0, 20 µs 355 ns.">
<polygon fill="none" stroke="white" points="519,-2135 411,-2135 411,-2081 519,-2081 519,-2135"/>
<text text-anchor="middle" x="465" y="-2119.8" font-family="Times,serif" font-size="14.00" fill="white">Limit</text>
<text text-anchor="middle" x="465" y="-2088.8" font-family="Times,serif" font-size="14.00" fill="white">20 µs 355 ns</text>
</a>
</g>
</g>
<!-- 140017381018128&#45;&gt;140017382558928 -->
<g id="edge1" class="edge">
<title>140017381018128&#45;&gt;140017382558928</title>
<path fill="none" stroke="white" d="M465,-2135.26C465,-2147.49 465,-2162.24 465,-2175.52"/>
<polygon fill="white" stroke="white" points="461.5,-2175.79 465,-2185.79 468.5,-2175.79 461.5,-2175.79"/>
<text text-anchor="middle" x="543" y="-2156.8" font-family="Times,serif" font-size="14.00" fill="white">100 row(s)/1 chunk(s)</text>
</g>
<!-- 140017382559248 -->
<g id="node3" class="node">
<title>140017382559248</title>
<g id="a_node3"><a xlink:title="Output: 23712 rows in 1 chunk filtered: 0, 40 ms 95 µs.&#10;Operator step runtimes:&#10; MaterializeSortColumns 13 ms 160 µs&#10; Sort 23 ms 947 µs&#10; TemporaryResultWriting 175 µs 493 ns&#10; WriteOutput 2 ms 396 µs.">
<polygon fill="none" stroke="white" stroke-width="6.84" points="517,-2030 413,-2030 413,-1976 517,-1976 517,-2030"/>
<text text-anchor="middle" x="465" y="-2014.8" font-family="Times,serif" font-size="14.00" fill="white">Sort</text>
<text text-anchor="middle" x="465" y="-1983.8" font-family="Times,serif" font-size="14.00" fill="white">40 ms 95 µs</text>
</a>
</g>
</g>
<!-- 140017382559248&#45;&gt;140017381018128 -->
<g id="edge2" class="edge">
<title>140017382559248&#45;&gt;140017381018128</title>
<path fill="none" stroke="white" d="M465,-2030.26C465,-2042.49 465,-2057.24 465,-2070.52"/>
<polygon fill="white" stroke="white" points="461.5,-2070.79 465,-2080.79 468.5,-2070.79 461.5,-2070.79"/>
<text text-anchor="middle" x="554" y="-2051.8" font-family="Times,serif" font-size="14.00" fill="white">23,712 row(s)/1 chunk(s)</text>
</g>
<!-- 140017382558608 -->
<g id="node4" class="node">
<title>140017382558608</title>
<g id="a_node4"><a xlink:title="Output: 23712 rows in 25 chunks filtered: 0, 21 ms 614 µs.&#10;Operator step runtimes:&#10; LeftSideMaterialize 6 ms 466 µs&#10; RightSideMaterialize 416 µs 691 ns&#10; LeftSideTransform 0 ns&#10; RightSideTransform 0 ns&#10; LeftSidePartition 445 µs 369 ns&#10; RightSidePartition 311 µs 624 ns&#10; LeftSideSortBuckets 735 µs 34 ns&#10; RightSideSortBuckets 776 µs 720 ns&#10; GatherRowIds 446 ns&#10; FindJoinPartner 11 ms 706 µs&#10; OutputWriting 643 µs 101 ns.&#10;Radix bits: 8.">
<polygon fill="none" stroke="white" stroke-width="5.31" points="604.5,-1925 325.5,-1925 325.5,-1841 604.5,-1841 604.5,-1925"/>
<text text-anchor="middle" x="465" y="-1909.8" font-family="Times,serif" font-size="14.00" fill="white">JoinSimdSortMerge (Semi)</text>
<text text-anchor="middle" x="465" y="-1894.8" font-family="Times,serif" font-size="14.00" fill="white">ps_supplycost = MIN(ps_supplycost)</text>
<text text-anchor="middle" x="465" y="-1879.8" font-family="Times,serif" font-size="14.00" fill="white">AND p_partkey = ps_partkey</text>
<text text-anchor="middle" x="465" y="-1848.8" font-family="Times,serif" font-size="14.00" fill="white">21 ms 614 µs</text>
</a>
</g>
</g>
<!-- 140017382558608&#45;&gt;140017382559248 -->
<g id="edge3" class="edge">
<title>140017382558608&#45;&gt;140017382559248</title>
<path fill="none" stroke="white" d="M465,-1925.27C465,-1938.36 465,-1952.72 465,-1965.45"/>
<polygon fill="white" stroke="white" points="461.5,-1965.69 465,-1975.69 468.5,-1965.69 461.5,-1965.69"/>
<text text-anchor="middle" x="558.5" y="-1946.8" font-family="Times,serif" font-size="14.00" fill="white">23,712 row(s)/25 chunk(s)</text>
</g>
<!-- 140017382557648 -->
<g id="node5" class="node">
<title>140017382557648</title>
<g id="a_node5"><a xlink:title="Output: 32157 rows in 58 chunks filtered: 0, 18 ms 397 µs.&#10;Operator step runtimes:&#10; LeftSideMaterialize 7 ms 16 µs&#10; RightSideMaterialize 4 ms 188 µs&#10; LeftSideTransform 0 ns&#10; RightSideTransform 0 ns&#10; LeftSidePartition 2 ms 101 µs&#10; RightSidePartition 1 ms 704 µs&#10; LeftSideSortBuckets 674 µs 939 ns&#10; RightSideSortBuckets 664 µs 353 ns&#10; GatherRowIds 909 ns&#10; FindJoinPartner 1 ms 2 µs&#10; OutputWriting 868 µs 80 ns.&#10;Radix bits: 8.">
<polygon fill="none" stroke="white" stroke-width="4.92" points="429.5,-1790 218.5,-1790 218.5,-1721 429.5,-1721 429.5,-1790"/>
<text text-anchor="middle" x="324" y="-1774.8" font-family="Times,serif" font-size="14.00" fill="white">JoinSimdSortMerge (Inner)</text>
<text text-anchor="middle" x="324" y="-1759.8" font-family="Times,serif" font-size="14.00" fill="white">ps_partkey = p_partkey</text>
<text text-anchor="middle" x="324" y="-1728.8" font-family="Times,serif" font-size="14.00" fill="white">18 ms 397 µs</text>
</a>
</g>
</g>
<!-- 140017382557648&#45;&gt;140017382558608 -->
<g id="edge4" class="edge">
<title>140017382557648&#45;&gt;140017382558608</title>
<path fill="none" stroke="white" d="M352.59,-1790.18C362.44,-1801.08 373.81,-1812.95 385,-1823 389.28,-1826.84 393.79,-1830.68 398.42,-1834.46"/>
<polygon fill="white" stroke="white" points="398.47,-1834.5 396.28,-1837.23 406.28,-1840.74 398.47,-1834.5"/>
<text text-anchor="middle" x="478.5" y="-1811.8" font-family="Times,serif" font-size="14.00" fill="white">32,157 row(s)/58 chunk(s)</text>
</g>
<!-- 140017382557328 -->
<g id="node6" class="node">
<title>140017382557328</title>
<g id="a_node6"><a xlink:title="Output: 32157 rows in 58 chunks filtered: 0, 14 ms 757 µs.&#10;Operator step runtimes:&#10; LeftSideMaterialize 6 ms 859 µs&#10; RightSideMaterialize 1 ms 26 µs&#10; LeftSideTransform 0 ns&#10; RightSideTransform 0 ns&#10; LeftSidePartition 1 ms 263 µs&#10; RightSidePartition 1 ms 945 µs&#10; LeftSideSortBuckets 679 µs 979 ns&#10; RightSideSortBuckets 647 µs 563 ns&#10; GatherRowIds 1 µs 123 ns&#10; FindJoinPartner 1 ms 459 µs&#10; OutputWriting 653 µs 271 ns.&#10;Radix bits: 8.">
<polygon fill="none" stroke="white" stroke-width="4.37" points="429.5,-1601 218.5,-1601 218.5,-1532 429.5,-1532 429.5,-1601"/>
<text text-anchor="middle" x="324" y="-1585.8" font-family="Times,serif" font-size="14.00" fill="white">JoinSimdSortMerge (Inner)</text>
<text text-anchor="middle" x="324" y="-1570.8" font-family="Times,serif" font-size="14.00" fill="white">ps_suppkey = s_suppkey</text>
<text text-anchor="middle" x="324" y="-1539.8" font-family="Times,serif" font-size="14.00" fill="white">14 ms 757 µs</text>
</a>
</g>
</g>
<!-- 140017382557328&#45;&gt;140017382557648 -->
<g id="edge5" class="edge">
<title>140017382557328&#45;&gt;140017382557648</title>
<path fill="none" stroke="white" d="M324,-1601.36C324,-1631.95 324,-1677.13 324,-1710.5"/>
<polygon fill="white" stroke="white" points="324,-1710.89 320.5,-1710.89 324,-1720.89 324,-1710.89"/>
<text text-anchor="middle" x="417.5" y="-1657.3" font-family="Times,serif" font-size="14.00" fill="white">32,157 row(s)/58 chunk(s)</text>
</g>
<!-- 140017381016080 -->
<g id="node7" class="node">
<title>140017381016080</title>
<g id="a_node7"><a xlink:title="Output: 32157 rows in 58 chunks filtered: 0, 337 µs 656 ns.">
<polygon fill="none" stroke="white" points="540.5,-1481 423.5,-1481 423.5,-1427 540.5,-1427 540.5,-1481"/>
<text text-anchor="middle" x="482" y="-1465.8" font-family="Times,serif" font-size="14.00" fill="white">Validate</text>
<text text-anchor="middle" x="482" y="-1434.8" font-family="Times,serif" font-size="14.00" fill="white">337 µs 656 ns</text>
</a>
</g>
</g>
<!-- 140017381016080&#45;&gt;140017382557328 -->
<g id="edge6" class="edge">
<title>140017381016080&#45;&gt;140017382557328</title>
<path fill="none" stroke="white" d="M444.56,-1481.19C425.38,-1494.6 401.64,-1511.2 380.31,-1526.12"/>
<polygon fill="white" stroke="white" points="380.16,-1526.22 378.15,-1523.36 371.96,-1531.95 380.16,-1526.22"/>
<text text-anchor="middle" x="510.5" y="-1502.8" font-family="Times,serif" font-size="14.00" fill="white">32,157 row(s)/58 chunk(s)</text>
</g>
<!-- 140017382557008 -->
<g id="node8" class="node">
<title>140017382557008</title>
<g id="a_node8"><a xlink:title="Output: 32157 rows in 58 chunks filtered: 0, 38 ms 386 µs.&#10;Operator step runtimes:&#10; LeftSideMaterialize 23 ms 16 µs&#10; RightSideMaterialize 1 ms 1 µs&#10; LeftSideTransform 0 ns&#10; RightSideTransform 0 ns&#10; LeftSidePartition 2 ms 983 µs&#10; RightSidePartition 7 ms 665 µs&#10; LeftSideSortBuckets 784 µs 614 ns&#10; RightSideSortBuckets 673 µs 46 ns&#10; GatherRowIds 1 µs 334 ns&#10; FindJoinPartner 1 ms 294 µs&#10; OutputWriting 721 µs 167 ns.&#10;Radix bits: 8.">
<polygon fill="none" stroke="white" stroke-width="6.73" points="640.5,-1376 355.5,-1376 355.5,-1307 640.5,-1307 640.5,-1376"/>
<text text-anchor="middle" x="498" y="-1360.8" font-family="Times,serif" font-size="14.00" fill="white">JoinSimdSortMerge (Semi Reduction)</text>
<text text-anchor="middle" x="498" y="-1345.8" font-family="Times,serif" font-size="14.00" fill="white">ps_suppkey = s_suppkey</text>
<text text-anchor="middle" x="498" y="-1314.8" font-family="Times,serif" font-size="14.00" fill="white">38 ms 386 µs</text>
</a>
</g>
</g>
<!-- 140017382557008&#45;&gt;140017381016080 -->
<g id="edge7" class="edge">
<title>140017382557008&#45;&gt;140017381016080</title>
<path fill="none" stroke="white" d="M493.11,-1376.25C491.26,-1389.07 489.13,-1403.73 487.25,-1416.77"/>
<polygon fill="white" stroke="white" points="483.76,-1416.41 485.79,-1426.81 490.69,-1417.42 483.76,-1416.41"/>
<text text-anchor="middle" x="583.5" y="-1397.8" font-family="Times,serif" font-size="14.00" fill="white">32,157 row(s)/58 chunk(s)</text>
</g>
<!-- 140017382554768 -->
<g id="node9" class="node">
<title>140017382554768</title>
<g id="a_node9"><a xlink:title="Output: 160176 rows in 256 chunks filtered: 0, 64 ms 250 µs.&#10;Operator step runtimes:&#10; LeftSideMaterialize 33 ms 779 µs&#10; RightSideMaterialize 9 ms 964 µs&#10; LeftSideTransform 0 ns&#10; RightSideTransform 0 ns&#10; LeftSidePartition 2 ms 424 µs&#10; RightSidePartition 3 ms 525 µs&#10; LeftSideSortBuckets 9 ms 244 µs&#10; RightSideSortBuckets 887 µs 346 ns&#10; GatherRowIds 2 µs 863 ns&#10; FindJoinPartner 1 ms 463 µs&#10; OutputWriting 1 ms 202 µs.&#10;Radix bits: 8.">
<polygon fill="none" stroke="white" stroke-width="8" points="729.5,-1256 444.5,-1256 444.5,-1187 729.5,-1187 729.5,-1256"/>
<text text-anchor="middle" x="587" y="-1240.8" font-family="Times,serif" font-size="14.00" fill="white">JoinSimdSortMerge (Semi Reduction)</text>
<text text-anchor="middle" x="587" y="-1225.8" font-family="Times,serif" font-size="14.00" fill="white">ps_partkey = p_partkey</text>
<text text-anchor="middle" x="587" y="-1194.8" font-family="Times,serif" font-size="14.00" fill="white">64 ms 250 µs</text>
</a>
</g>
</g>
<!-- 140017382554768&#45;&gt;140017382557008 -->
<g id="edge8" class="edge">
<title>140017382554768&#45;&gt;140017382557008</title>
<path fill="none" stroke="white" d="M549.54,-1256.05C544.03,-1261.77 538.65,-1267.86 534,-1274 528.41,-1281.38 523.17,-1289.74 518.51,-1297.98"/>
<polygon fill="white" stroke="white" points="518.48,-1298.04 515.41,-1296.36 513.7,-1306.82 518.48,-1298.04"/>
<text text-anchor="middle" x="636.5" y="-1277.8" font-family="Times,serif" font-size="14.00" fill="white">160,176 row(s)/256 chunk(s)</text>
</g>
<!-- 140017382558288 -->
<g id="node27" class="node">
<title>140017382558288</title>
<g id="a_node27"><a xlink:title="Output: 32157 rows in 58 chunks filtered: 0, 32 ms 164 µs.&#10;Operator step runtimes:&#10; LeftSideMaterialize 16 ms 476 µs&#10; RightSideMaterialize 975 µs 571 ns&#10; LeftSideTransform 0 ns&#10; RightSideTransform 0 ns&#10; LeftSidePartition 5 ms 503 µs&#10; RightSidePartition 4 ms 794 µs&#10; LeftSideSortBuckets 795 µs 697 ns&#10; RightSideSortBuckets 823 µs 451 ns&#10; GatherRowIds 1 µs 601 ns&#10; FindJoinPartner 1 ms 571 µs&#10; OutputWriting 930 µs 927 ns.&#10;Radix bits: 8.">
<polygon fill="none" stroke="white" stroke-width="6.29" points="867.5,-1376 658.5,-1376 658.5,-1307 867.5,-1307 867.5,-1376"/>
<text text-anchor="middle" x="763" y="-1360.8" font-family="Times,serif" font-size="14.00" fill="white">JoinSimdSortMerge (Semi)</text>
<text text-anchor="middle" x="763" y="-1345.8" font-family="Times,serif" font-size="14.00" fill="white">ps_suppkey = s_suppkey</text>
<text text-anchor="middle" x="763" y="-1314.8" font-family="Times,serif" font-size="14.00" fill="white">32 ms 164 µs</text>
</a>
</g>
</g>
<!-- 140017382554768&#45;&gt;140017382558288 -->
<g id="edge9" class="edge">
<title>140017382554768&#45;&gt;140017382558288</title>
<path fill="none" stroke="white" d="M715.69,-1256.11C724.14,-1261.25 732.04,-1267.17 739,-1274 745.49,-1280.37 750.24,-1288.62 753.71,-1297.14"/>
<polygon fill="white" stroke="white" points="753.78,-1297.34 750.48,-1298.5 757.1,-1306.77 753.78,-1297.34"/>
<text text-anchor="middle" x="851.5" y="-1277.8" font-family="Times,serif" font-size="14.00" fill="white">160,176 row(s)/256 chunk(s)</text>
</g>
<!-- 140017381360080 -->
<g id="node10" class="node">
<title>140017381360080</title>
<g id="a_node10"><a xlink:title="Output: 40000000 rows in 611 chunks filtered: 0, 3 ms 501 µs.">
<polygon fill="none" stroke="white" points="648,-1097 526,-1097 526,-983 648,-983 648,-1097"/>
<text text-anchor="middle" x="587" y="-1081.8" font-family="Times,serif" font-size="14.00" fill="white">GetTable</text>
<text text-anchor="middle" x="587" y="-1066.8" font-family="Times,serif" font-size="14.00" fill="white">(partsupp)</text>
<text text-anchor="middle" x="587" y="-1051.8" font-family="Times,serif" font-size="14.00" fill="white">pruned:</text>
<text text-anchor="middle" x="587" y="-1036.8" font-family="Times,serif" font-size="14.00" fill="white">0/611 chunk(s)</text>
<text text-anchor="middle" x="587" y="-1021.8" font-family="Times,serif" font-size="14.00" fill="white">2/5 column(s)</text>
<text text-anchor="middle" x="587" y="-990.8" font-family="Times,serif" font-size="14.00" fill="white">3 ms 501 µs</text>
</a>
</g>
</g>
<!-- 140017381360080&#45;&gt;140017382554768 -->
<g id="edge10" class="edge">
<title>140017381360080&#45;&gt;140017382554768</title>
<path fill="none" stroke="white" stroke-width="8" d="M587,-1097.3C587,-1122.92 587,-1152.77 587,-1176.68"/>
<polygon fill="white" stroke="white" stroke-width="8" points="587,-1176.87 580,-1176.87 587,-1186.87 587,-1176.87"/>
<text text-anchor="middle" x="701" y="-1138.3" font-family="Times,serif" font-size="14.00" fill="white">40,000,000 row(s)/611 chunk(s)</text>
</g>
<!-- 140017381015824 -->
<g id="node11" class="node">
<title>140017381015824</title>
<g id="a_node11"><a xlink:title="Output: 40044 rows in 153 chunks filtered: 0, 853 µs 397 ns.">
<polygon fill="none" stroke="white" points="147.5,-1067 30.5,-1067 30.5,-1013 147.5,-1013 147.5,-1067"/>
<text text-anchor="middle" x="89" y="-1051.8" font-family="Times,serif" font-size="14.00" fill="white">Validate</text>
<text text-anchor="middle" x="89" y="-1020.8" font-family="Times,serif" font-size="14.00" fill="white">853 µs 397 ns</text>
</a>
</g>
</g>
<!-- 140017381015824&#45;&gt;140017382557648 -->
<g id="edge12" class="edge">
<title>140017381015824&#45;&gt;140017382557648</title>
<path fill="none" stroke="white" d="M84.73,-1067.08C79.41,-1101.94 71,-1165.69 71,-1220.5 71,-1220.5 71,-1220.5 71,-1567.5 71,-1641.58 142.01,-1689.65 208.78,-1718.48"/>
<polygon fill="white" stroke="white" points="218.17,-1722.42 210.31,-1715.32 208.95,-1718.55 218.17,-1722.42"/>
<text text-anchor="middle" x="169" y="-1397.8" font-family="Times,serif" font-size="14.00" fill="white">40,044 row(s)/153 chunk(s)</text>
</g>
<!-- 140017381015824&#45;&gt;140017382554768 -->
<g id="edge11" class="edge">
<title>140017381015824&#45;&gt;140017382554768</title>
<path fill="none" stroke="white" d="M93.82,-1067.25C100.88,-1097.43 117.18,-1145.77 152,-1169 176.56,-1185.38 375.51,-1183 434.17,-1187.24"/>
<polygon fill="white" stroke="white" points="444.44,-1188.26 434.84,-1183.79 434.49,-1187.27 444.44,-1188.26"/>
<text text-anchor="middle" x="250" y="-1138.3" font-family="Times,serif" font-size="14.00" fill="white">40,044 row(s)/153 chunk(s)</text>
</g>
<!-- 140017382554448 -->
<g id="node12" class="node">
<title>140017382554448</title>
<g id="a_node12"><a xlink:title="Output: 40044 rows in 153 chunks filtered: 0, 1 ms 233 µs.&#10;Chunks: 0 skipped with no results, &#10;0 skipped with all matching, 0 scanned using binary search.">
<polygon fill="none" stroke="white" points="178,-932 0,-932 0,-848 178,-848 178,-932"/>
<text text-anchor="middle" x="89" y="-916.8" font-family="Times,serif" font-size="14.00" fill="white">TableScan</text>
<text text-anchor="middle" x="89" y="-901.8" font-family="Times,serif" font-size="14.00" fill="white">Impl: ColumnLike</text>
<text text-anchor="middle" x="89" y="-886.8" font-family="Times,serif" font-size="14.00" fill="white">p_type LIKE &#39;%STEEL&#39;</text>
<text text-anchor="middle" x="89" y="-855.8" font-family="Times,serif" font-size="14.00" fill="white">1 ms 233 µs</text>
</a>
</g>
</g>
<!-- 140017382554448&#45;&gt;140017381015824 -->
<g id="edge13" class="edge">
<title>140017382554448&#45;&gt;140017381015824</title>
<path fill="none" stroke="white" d="M89,-932.23C89,-954.32 89,-981.31 89,-1002.62"/>
<polygon fill="white" stroke="white" points="85.5,-1002.88 89,-1012.88 92.5,-1002.88 85.5,-1002.88"/>
<text text-anchor="middle" x="187" y="-953.8" font-family="Times,serif" font-size="14.00" fill="white">40,044 row(s)/153 chunk(s)</text>
</g>
<!-- 140017382554128 -->
<g id="node13" class="node">
<title>140017382554128</title>
<g id="a_node13"><a xlink:title="Output: 200082 rows in 153 chunks filtered: 0, 1 ms 445 µs.&#10;Chunks: 0 skipped with no results, &#10;0 skipped with all matching, 0 scanned using binary search.">
<polygon fill="none" stroke="white" points="173.5,-782 4.5,-782 4.5,-698 173.5,-698 173.5,-782"/>
<text text-anchor="middle" x="89" y="-766.8" font-family="Times,serif" font-size="14.00" fill="white">TableScan</text>
<text text-anchor="middle" x="89" y="-751.8" font-family="Times,serif" font-size="14.00" fill="white">Impl: ColumnVsValue</text>
<text text-anchor="middle" x="89" y="-736.8" font-family="Times,serif" font-size="14.00" fill="white">p_size = 1</text>
<text text-anchor="middle" x="89" y="-705.8" font-family="Times,serif" font-size="14.00" fill="white">1 ms 445 µs</text>
</a>
</g>
</g>
<!-- 140017382554128&#45;&gt;140017382554448 -->
<g id="edge14" class="edge">
<title>140017382554128&#45;&gt;140017382554448</title>
<path fill="none" stroke="white" d="M89,-782.23C89,-799.47 89,-819.68 89,-837.85"/>
<polygon fill="white" stroke="white" points="85.5,-837.99 89,-847.99 92.5,-837.99 85.5,-837.99"/>
<text text-anchor="middle" x="191.5" y="-818.8" font-family="Times,serif" font-size="14.00" fill="white">200,082 row(s)/153 chunk(s)</text>
</g>
<!-- 140017381360976 -->
<g id="node14" class="node">
<title>140017381360976</title>
<g id="a_node14"><a xlink:title="Output: 10000000 rows in 153 chunks filtered: 0, 981 µs 174 ns.">
<polygon fill="none" stroke="white" points="150,-632 28,-632 28,-518 150,-518 150,-632"/>
<text text-anchor="middle" x="89" y="-616.8" font-family="Times,serif" font-size="14.00" fill="white">GetTable</text>
<text text-anchor="middle" x="89" y="-601.8" font-family="Times,serif" font-size="14.00" fill="white">(part)</text>
<text text-anchor="middle" x="89" y="-586.8" font-family="Times,serif" font-size="14.00" fill="white">pruned:</text>
<text text-anchor="middle" x="89" y="-571.8" font-family="Times,serif" font-size="14.00" fill="white">0/153 chunk(s)</text>
<text text-anchor="middle" x="89" y="-556.8" font-family="Times,serif" font-size="14.00" fill="white">5/9 column(s)</text>
<text text-anchor="middle" x="89" y="-525.8" font-family="Times,serif" font-size="14.00" fill="white">981 µs 174 ns</text>
</a>
</g>
</g>
<!-- 140017381360976&#45;&gt;140017382554128 -->
<g id="edge15" class="edge">
<title>140017381360976&#45;&gt;140017382554128</title>
<path fill="none" stroke="white" stroke-width="4.58" d="M89,-632.1C89,-650.19 89,-670.13 89,-687.85"/>
<polygon fill="white" stroke="white" stroke-width="4.58" points="84.99,-687.99 89,-697.99 93.01,-687.99 84.99,-687.99"/>
<text text-anchor="middle" x="203" y="-653.8" font-family="Times,serif" font-size="14.00" fill="white">10,000,000 row(s)/153 chunk(s)</text>
</g>
<!-- 140017382556688 -->
<g id="node15" class="node">
<title>140017382556688</title>
<g id="a_node15"><a xlink:title="Output: 100090 rows in 5 chunks filtered: 0, 7 ms 766 µs.&#10;Operator step runtimes:&#10; LeftSideMaterialize 953 µs 91 ns&#10; RightSideMaterialize 125 µs 500 ns&#10; LeftSideTransform 0 ns&#10; RightSideTransform 0 ns&#10; LeftSidePartition 1 ms 606 µs&#10; RightSidePartition 27 µs 893 ns&#10; LeftSideSortBuckets 747 µs 850 ns&#10; RightSideSortBuckets 709 µs 726 ns&#10; GatherRowIds 828 ns&#10; FindJoinPartner 2 ms 34 µs&#10; OutputWriting 1 ms 469 µs.&#10;Radix bits: 8.">
<polygon fill="none" stroke="white" stroke-width="2.79" points="426.5,-1256 215.5,-1256 215.5,-1187 426.5,-1187 426.5,-1256"/>
<text text-anchor="middle" x="321" y="-1240.8" font-family="Times,serif" font-size="14.00" fill="white">JoinSimdSortMerge (Inner)</text>
<text text-anchor="middle" x="321" y="-1225.8" font-family="Times,serif" font-size="14.00" fill="white">s_nationkey = n_nationkey</text>
<text text-anchor="middle" x="321" y="-1194.8" font-family="Times,serif" font-size="14.00" fill="white">7 ms 766 µs</text>
</a>
</g>
</g>
<!-- 140017382556688&#45;&gt;140017382557328 -->
<g id="edge17" class="edge">
<title>140017382556688&#45;&gt;140017382557328</title>
<path fill="none" stroke="white" d="M312.32,-1256.1C303.7,-1293.37 292.4,-1355.33 297,-1409 300.29,-1447.38 308.03,-1490.48 314.38,-1521.72"/>
<polygon fill="white" stroke="white" points="316.47,-1531.83 317.88,-1521.33 314.45,-1522.04 316.47,-1531.83"/>
<text text-anchor="middle" x="390.5" y="-1397.8" font-family="Times,serif" font-size="14.00" fill="white">100,090 row(s)/5 chunk(s)</text>
</g>
<!-- 140017382556688&#45;&gt;140017382557008 -->
<g id="edge16" class="edge">
<title>140017382556688&#45;&gt;140017382557008</title>
<path fill="none" stroke="white" d="M320.2,-1256C321.57,-1267.65 325.08,-1280.03 333,-1289 337.3,-1293.87 342.06,-1298.29 347.16,-1302.29"/>
<polygon fill="white" stroke="white" points="355.44,-1308.24 349.36,-1299.57 347.32,-1302.41 355.44,-1308.24"/>
<text text-anchor="middle" x="426.5" y="-1277.8" font-family="Times,serif" font-size="14.00" fill="white">100,090 row(s)/5 chunk(s)</text>
</g>
<!-- 140017381017872 -->
<g id="node16" class="node">
<title>140017381017872</title>
<g id="a_node16"><a xlink:title="Output: 100090 rows in 5 chunks filtered: 0, 614 µs 569 ns.">
<polygon fill="none" stroke="white" points="487.5,-1067 370.5,-1067 370.5,-1013 487.5,-1013 487.5,-1067"/>
<text text-anchor="middle" x="429" y="-1051.8" font-family="Times,serif" font-size="14.00" fill="white">Validate</text>
<text text-anchor="middle" x="429" y="-1020.8" font-family="Times,serif" font-size="14.00" fill="white">614 µs 569 ns</text>
</a>
</g>
</g>
<!-- 140017381017872&#45;&gt;140017382556688 -->
<g id="edge18" class="edge">
<title>140017381017872&#45;&gt;140017382556688</title>
<path fill="none" stroke="white" d="M413.3,-1067.1C395.84,-1096.11 367.39,-1143.4 346.69,-1177.81"/>
<polygon fill="white" stroke="white" points="346.49,-1178.14 343.49,-1176.33 341.33,-1186.71 346.49,-1178.14"/>
<text text-anchor="middle" x="474.5" y="-1138.3" font-family="Times,serif" font-size="14.00" fill="white">100,090 row(s)/5 chunk(s)</text>
</g>
<!-- 140017382556368 -->
<g id="node17" class="node">
<title>140017382556368</title>
<g id="a_node17"><a xlink:title="Output: 100090 rows in 5 chunks filtered: 0, 9 ms 694 µs.&#10;Operator step runtimes:&#10; LeftSideMaterialize 1 ms 536 µs&#10; RightSideMaterialize 77 µs 914 ns&#10; LeftSideTransform 0 ns&#10; RightSideTransform 0 ns&#10; LeftSidePartition 3 ms 377 µs&#10; RightSidePartition 165 µs 7 ns&#10; LeftSideSortBuckets 1 ms 682 µs&#10; RightSideSortBuckets 1 ms 268 µs&#10; GatherRowIds 2 µs 682 ns&#10; FindJoinPartner 1 ms 98 µs&#10; OutputWriting 198 µs 515 ns.&#10;Radix bits: 8.">
<polygon fill="none" stroke="white" stroke-width="3.34" points="634.5,-924.5 349.5,-924.5 349.5,-855.5 634.5,-855.5 634.5,-924.5"/>
<text text-anchor="middle" x="492" y="-909.3" font-family="Times,serif" font-size="14.00" fill="white">JoinSimdSortMerge (Semi Reduction)</text>
<text text-anchor="middle" x="492" y="-894.3" font-family="Times,serif" font-size="14.00" fill="white">s_nationkey = n_nationkey</text>
<text text-anchor="middle" x="492" y="-863.3" font-family="Times,serif" font-size="14.00" fill="white">9 ms 694 µs</text>
</a>
</g>
</g>
<!-- 140017382556368&#45;&gt;140017381017872 -->
<g id="edge19" class="edge">
<title>140017382556368&#45;&gt;140017381017872</title>
<path fill="none" stroke="white" d="M479.27,-924.69C474.34,-937.39 468.56,-951.92 463,-965 457.63,-977.63 451.44,-991.32 445.83,-1003.45"/>
<polygon fill="white" stroke="white" points="442.53,-1002.25 441.48,-1012.79 448.88,-1005.2 442.53,-1002.25"/>
<text text-anchor="middle" x="561.5" y="-953.8" font-family="Times,serif" font-size="14.00" fill="white">100,090 row(s)/5 chunk(s)</text>
</g>
<!-- 140017381361424 -->
<g id="node18" class="node">
<title>140017381361424</title>
<g id="a_node18"><a xlink:title="Output: 500000 rows in 8 chunks filtered: 0, 78 µs 527 ns.">
<polygon fill="none" stroke="white" points="768.5,-797 655.5,-797 655.5,-683 768.5,-683 768.5,-797"/>
<text text-anchor="middle" x="712" y="-781.8" font-family="Times,serif" font-size="14.00" fill="white">GetTable</text>
<text text-anchor="middle" x="712" y="-766.8" font-family="Times,serif" font-size="14.00" fill="white">(supplier)</text>
<text text-anchor="middle" x="712" y="-751.8" font-family="Times,serif" font-size="14.00" fill="white">pruned:</text>
<text text-anchor="middle" x="712" y="-736.8" font-family="Times,serif" font-size="14.00" fill="white">0/8 chunk(s)</text>
<text text-anchor="middle" x="712" y="-721.8" font-family="Times,serif" font-size="14.00" fill="white">0/7 column(s)</text>
<text text-anchor="middle" x="712" y="-690.8" font-family="Times,serif" font-size="14.00" fill="white">78 µs 527 ns</text>
</a>
</g>
</g>
<!-- 140017381361424&#45;&gt;140017382556368 -->
<g id="edge20" class="edge">
<title>140017381361424&#45;&gt;140017382556368</title>
<path fill="none" stroke="white" d="M655.47,-752.34C615.73,-762.81 563.52,-781.9 528,-815 518.85,-823.52 511.76,-834.86 506.37,-846.1"/>
<polygon fill="white" stroke="white" points="506.28,-846.3 503.08,-844.89 502.25,-855.45 506.28,-846.3"/>
<text text-anchor="middle" x="621.5" y="-818.8" font-family="Times,serif" font-size="14.00" fill="white">500,000 row(s)/8 chunk(s)</text>
</g>
<!-- 140017382557968 -->
<g id="node29" class="node">
<title>140017382557968</title>
<g id="a_node29"><a xlink:title="Output: 100090 rows in 5 chunks filtered: 0, 6 ms 917 µs.&#10;Operator step runtimes:&#10; LeftSideMaterialize 1 ms 465 µs&#10; RightSideMaterialize 40 µs 333 ns&#10; LeftSideTransform 0 ns&#10; RightSideTransform 0 ns&#10; LeftSidePartition 2 ms 488 µs&#10; RightSidePartition 34 µs 273 ns&#10; LeftSideSortBuckets 907 µs 184 ns&#10; RightSideSortBuckets 1 ms 34 µs&#10; GatherRowIds 981 ns&#10; FindJoinPartner 719 µs 248 ns&#10; OutputWriting 84 µs 283 ns.&#10;Radix bits: 8.">
<polygon fill="none" stroke="white" stroke-width="2.5" points="1002.5,-924.5 793.5,-924.5 793.5,-855.5 1002.5,-855.5 1002.5,-924.5"/>
<text text-anchor="middle" x="898" y="-909.3" font-family="Times,serif" font-size="14.00" fill="white">JoinSimdSortMerge (Semi)</text>
<text text-anchor="middle" x="898" y="-894.3" font-family="Times,serif" font-size="14.00" fill="white">s_nationkey = n_nationkey</text>
<text text-anchor="middle" x="898" y="-863.3" font-family="Times,serif" font-size="14.00" fill="white">6 ms 917 µs</text>
</a>
</g>
</g>
<!-- 140017381361424&#45;&gt;140017382557968 -->
<g id="edge21" class="edge">
<title>140017381361424&#45;&gt;140017382557968</title>
<path fill="none" stroke="white" d="M768.69,-753.68C804.17,-764.4 848.26,-783.24 876,-815 883.49,-823.58 888.44,-834.62 891.7,-845.54"/>
<polygon fill="white" stroke="white" points="891.76,-845.77 888.37,-846.64 894.24,-855.46 891.76,-845.77"/>
<text text-anchor="middle" x="978.5" y="-818.8" font-family="Times,serif" font-size="14.00" fill="white">500,000 row(s)/8 chunk(s)</text>
</g>
<!-- 140017381016592 -->
<g id="node19" class="node">
<title>140017381016592</title>
<g id="a_node19"><a xlink:title="Output: 5 rows in 1 chunk filtered: 0, 8 µs 960 ns.">
<polygon fill="none" stroke="white" points="415.5,-767 316.5,-767 316.5,-713 415.5,-713 415.5,-767"/>
<text text-anchor="middle" x="366" y="-751.8" font-family="Times,serif" font-size="14.00" fill="white">Validate</text>
<text text-anchor="middle" x="366" y="-720.8" font-family="Times,serif" font-size="14.00" fill="white">8 µs 960 ns</text>
</a>
</g>
</g>
<!-- 140017381016592&#45;&gt;140017382556688 -->
<g id="edge23" class="edge">
<title>140017381016592&#45;&gt;140017382556688</title>
<path fill="none" stroke="white" d="M359.57,-767.32C354.36,-788.95 346.93,-820.4 341,-848 331.3,-893.17 325.47,-904.02 321,-950 313.28,-1029.53 315.82,-1122.84 318.39,-1176.48"/>
<polygon fill="white" stroke="white" points="318.91,-1186.66 321.9,-1176.5 318.4,-1176.67 318.91,-1186.66"/>
<text text-anchor="middle" x="390" y="-953.8" font-family="Times,serif" font-size="14.00" fill="white">5 row(s)/1 chunk(s)</text>
</g>
<!-- 140017381016592&#45;&gt;140017382556368 -->
<g id="edge22" class="edge">
<title>140017381016592&#45;&gt;140017382556368</title>
<path fill="none" stroke="white" d="M359.37,-767.24C356.14,-786.17 355.15,-811.53 367,-830 371.66,-837.26 377.47,-843.64 384.02,-849.25"/>
<polygon fill="white" stroke="white" points="392.03,-855.49 386.29,-846.58 384.14,-849.34 392.03,-855.49"/>
<text text-anchor="middle" x="436" y="-818.8" font-family="Times,serif" font-size="14.00" fill="white">5 row(s)/1 chunk(s)</text>
</g>
<!-- 140017381016592&#45;&gt;140017382557968 -->
<g id="edge24" class="edge">
<title>140017381016592&#45;&gt;140017382557968</title>
<path fill="none" stroke="white" d="M415.82,-750.94C508.99,-769.62 701.44,-808.64 715,-815 724.74,-819.57 724.59,-824.78 734,-830 749.62,-838.67 766.77,-846.49 783.9,-853.37"/>
<polygon fill="white" stroke="white" points="793.41,-857.1 785.38,-850.19 784.1,-853.45 793.41,-857.1"/>
<text text-anchor="middle" x="803" y="-818.8" font-family="Times,serif" font-size="14.00" fill="white">5 row(s)/1 chunk(s)</text>
</g>
<!-- 140017382556048 -->
<g id="node20" class="node">
<title>140017382556048</title>
<g id="a_node20"><a xlink:title="Output: 5 rows in 1 chunk filtered: 0, 2 ms 110 µs.&#10;Operator step runtimes:&#10; LeftSideMaterialize 49 µs 462 ns&#10; RightSideMaterialize 64 µs 674 ns&#10; LeftSideTransform 0 ns&#10; RightSideTransform 0 ns&#10; LeftSidePartition 22 µs 988 ns&#10; RightSidePartition 21 µs 787 ns&#10; LeftSideSortBuckets 835 µs 739 ns&#10; RightSideSortBuckets 861 µs 796 ns&#10; GatherRowIds 1 µs 472 ns&#10; FindJoinPartner 7 µs 343 ns&#10; OutputWriting 127 µs 379 ns.&#10;Radix bits: 8.">
<polygon fill="none" stroke="white" points="470.5,-609.5 261.5,-609.5 261.5,-540.5 470.5,-540.5 470.5,-609.5"/>
<text text-anchor="middle" x="366" y="-594.3" font-family="Times,serif" font-size="14.00" fill="white">JoinSimdSortMerge (Semi)</text>
<text text-anchor="middle" x="366" y="-579.3" font-family="Times,serif" font-size="14.00" fill="white">n_regionkey = r_regionkey</text>
<text text-anchor="middle" x="366" y="-548.3" font-family="Times,serif" font-size="14.00" fill="white">2 ms 110 µs</text>
</a>
</g>
</g>
<!-- 140017382556048&#45;&gt;140017381016592 -->
<g id="edge25" class="edge">
<title>140017382556048&#45;&gt;140017381016592</title>
<path fill="none" stroke="white" d="M366,-609.77C366,-636.89 366,-674.9 366,-702.68"/>
<polygon fill="white" stroke="white" points="362.5,-702.78 366,-712.78 369.5,-702.78 362.5,-702.78"/>
<text text-anchor="middle" x="435" y="-653.8" font-family="Times,serif" font-size="14.00" fill="white">5 row(s)/1 chunk(s)</text>
</g>
<!-- 140017381360528 -->
<g id="node21" class="node">
<title>140017381360528</title>
<g id="a_node21"><a xlink:title="Output: 25 rows in 1 chunk filtered: 0, 3 µs 339 ns.">
<polygon fill="none" stroke="white" points="337.5,-467 224.5,-467 224.5,-353 337.5,-353 337.5,-467"/>
<text text-anchor="middle" x="281" y="-451.8" font-family="Times,serif" font-size="14.00" fill="white">GetTable</text>
<text text-anchor="middle" x="281" y="-436.8" font-family="Times,serif" font-size="14.00" fill="white">(nation)</text>
<text text-anchor="middle" x="281" y="-421.8" font-family="Times,serif" font-size="14.00" fill="white">pruned:</text>
<text text-anchor="middle" x="281" y="-406.8" font-family="Times,serif" font-size="14.00" fill="white">0/1 chunk(s)</text>
<text text-anchor="middle" x="281" y="-391.8" font-family="Times,serif" font-size="14.00" fill="white">1/4 column(s)</text>
<text text-anchor="middle" x="281" y="-360.8" font-family="Times,serif" font-size="14.00" fill="white">3 µs 339 ns</text>
</a>
</g>
</g>
<!-- 140017381360528&#45;&gt;140017382556048 -->
<g id="edge26" class="edge">
<title>140017381360528&#45;&gt;140017382556048</title>
<path fill="none" stroke="white" d="M274.62,-467.17C275.25,-478.42 277.36,-489.89 282,-500 287.74,-512.51 296.73,-523.76 306.73,-533.49"/>
<polygon fill="white" stroke="white" points="306.79,-533.55 304.43,-536.13 314.16,-540.31 306.79,-533.55"/>
<text text-anchor="middle" x="355.5" y="-488.8" font-family="Times,serif" font-size="14.00" fill="white">25 row(s)/1 chunk(s)</text>
</g>
<!-- 140017381017104 -->
<g id="node22" class="node">
<title>140017381017104</title>
<g id="a_node22"><a xlink:title="Output: 1 row in 1 chunk filtered: 0, 5 µs 39 ns.">
<polygon fill="none" stroke="white" points="496,-437 406,-437 406,-383 496,-383 496,-437"/>
<text text-anchor="middle" x="451" y="-421.8" font-family="Times,serif" font-size="14.00" fill="white">Validate</text>
<text text-anchor="middle" x="451" y="-390.8" font-family="Times,serif" font-size="14.00" fill="white">5 µs 39 ns</text>
</a>
</g>
</g>
<!-- 140017381017104&#45;&gt;140017382556048 -->
<g id="edge27" class="edge">
<title>140017381017104&#45;&gt;140017382556048</title>
<path fill="none" stroke="white" d="M447.81,-437.05C444.79,-455.41 439.17,-480.17 429,-500 423.17,-511.37 415.27,-522.49 407.04,-532.52"/>
<polygon fill="white" stroke="white" points="400.41,-540.3 409.56,-534.96 406.89,-532.69 400.41,-540.3"/>
<text text-anchor="middle" x="504" y="-488.8" font-family="Times,serif" font-size="14.00" fill="white">1 row(s)/1 chunk(s)</text>
</g>
<!-- 140017382555088 -->
<g id="node23" class="node">
<title>140017382555088</title>
<g id="a_node23"><a xlink:title="Output: 1 row in 1 chunk filtered: 0, 14 µs 191 ns.&#10;Chunks: 0 skipped with no results, &#10;0 skipped with all matching, 0 scanned using binary search.">
<polygon fill="none" stroke="white" points="535.5,-302 366.5,-302 366.5,-218 535.5,-218 535.5,-302"/>
<text text-anchor="middle" x="451" y="-286.8" font-family="Times,serif" font-size="14.00" fill="white">TableScan</text>
<text text-anchor="middle" x="451" y="-271.8" font-family="Times,serif" font-size="14.00" fill="white">Impl: ColumnVsValue</text>
<text text-anchor="middle" x="451" y="-256.8" font-family="Times,serif" font-size="14.00" fill="white">r_name = &#39;ASIA&#39;</text>
<text text-anchor="middle" x="451" y="-225.8" font-family="Times,serif" font-size="14.00" fill="white">14 µs 191 ns</text>
</a>
</g>
</g>
<!-- 140017382555088&#45;&gt;140017381017104 -->
<g id="edge28" class="edge">
<title>140017382555088&#45;&gt;140017381017104</title>
<path fill="none" stroke="white" d="M451,-302.23C451,-324.32 451,-351.31 451,-372.62"/>
<polygon fill="white" stroke="white" points="447.5,-372.88 451,-382.88 454.5,-372.88 447.5,-372.88"/>
<text text-anchor="middle" x="520" y="-323.8" font-family="Times,serif" font-size="14.00" fill="white">1 row(s)/1 chunk(s)</text>
</g>
<!-- 140017381361872 -->
<g id="node24" class="node">
<title>140017381361872</title>
<g id="a_node24"><a xlink:title="Output: 5 rows in 1 chunk filtered: 0, 7 µs 907 ns.">
<polygon fill="none" stroke="white" points="507.5,-140.5 394.5,-140.5 394.5,-26.5 507.5,-26.5 507.5,-140.5"/>
<text text-anchor="middle" x="451" y="-125.3" font-family="Times,serif" font-size="14.00" fill="white">GetTable</text>
<text text-anchor="middle" x="451" y="-110.3" font-family="Times,serif" font-size="14.00" fill="white">(region)</text>
<text text-anchor="middle" x="451" y="-95.3" font-family="Times,serif" font-size="14.00" fill="white">pruned:</text>
<text text-anchor="middle" x="451" y="-80.3" font-family="Times,serif" font-size="14.00" fill="white">0/1 chunk(s)</text>
<text text-anchor="middle" x="451" y="-65.3" font-family="Times,serif" font-size="14.00" fill="white">1/3 column(s)</text>
<text text-anchor="middle" x="451" y="-34.3" font-family="Times,serif" font-size="14.00" fill="white">7 µs 907 ns</text>
</a>
</g>
</g>
<!-- 140017381361872&#45;&gt;140017382555088 -->
<g id="edge29" class="edge">
<title>140017381361872&#45;&gt;140017382555088</title>
<path fill="none" stroke="white" d="M451,-140.67C451,-162.25 451,-186.74 451,-207.83"/>
<polygon fill="white" stroke="white" points="447.5,-207.87 451,-217.87 454.5,-207.87 447.5,-207.87"/>
<text text-anchor="middle" x="520" y="-188.8" font-family="Times,serif" font-size="14.00" fill="white">5 row(s)/1 chunk(s)</text>
</g>
<!-- 140017381188112 -->
<g id="node25" class="node">
<title>140017381188112</title>
<g id="a_node25"><a xlink:title="Output: 23712 rows in 1 chunk filtered: 0, 48 ms 190 µs.&#10;Operator step runtimes:&#10; GroupByKeyPartitioning 31 ms 440 µs&#10; Aggregating 16 ms 455 µs&#10; GroupByColumnsWriting 163 µs 874 ns&#10; AggregateColumnsWriting 106 µs 286 ns&#10; OutputWriting 8 µs 406 ns.">
<polygon fill="none" stroke="white" stroke-width="7.29" points="712,-1703 532,-1703 532,-1619 712,-1619 712,-1703"/>
<text text-anchor="middle" x="622" y="-1687.8" font-family="Times,serif" font-size="14.00" fill="white">AggregateHash</text>
<text text-anchor="middle" x="622" y="-1672.8" font-family="Times,serif" font-size="14.00" fill="white">GroupBy {ps_partkey}</text>
<text text-anchor="middle" x="622" y="-1657.8" font-family="Times,serif" font-size="14.00" fill="white">MIN(ps_supplycost)</text>
<text text-anchor="middle" x="622" y="-1626.8" font-family="Times,serif" font-size="14.00" fill="white">48 ms 190 µs</text>
</a>
</g>
</g>
<!-- 140017381188112&#45;&gt;140017382558608 -->
<g id="edge30" class="edge">
<title>140017381188112&#45;&gt;140017382558608</title>
<path fill="none" stroke="white" d="M617.87,-1703.05C612.47,-1738.23 600.11,-1788.52 572,-1823 568.73,-1827.01 565.12,-1830.79 561.25,-1834.35"/>
<polygon fill="white" stroke="white" points="553.53,-1840.92 563.41,-1837.1 561.14,-1834.44 553.53,-1840.92"/>
<text text-anchor="middle" x="703" y="-1751.8" font-family="Times,serif" font-size="14.00" fill="white">23,712 row(s)/1 chunk(s)</text>
</g>
<!-- 140017381017616 -->
<g id="node26" class="node">
<title>140017381017616</title>
<g id="a_node26"><a xlink:title="Output: 32157 rows in 58 chunks filtered: 0, 494 µs 156 ns.">
<polygon fill="none" stroke="white" points="728.5,-1481 611.5,-1481 611.5,-1427 728.5,-1427 728.5,-1481"/>
<text text-anchor="middle" x="670" y="-1465.8" font-family="Times,serif" font-size="14.00" fill="white">Validate</text>
<text text-anchor="middle" x="670" y="-1434.8" font-family="Times,serif" font-size="14.00" fill="white">494 µs 156 ns</text>
</a>
</g>
</g>
<!-- 140017381017616&#45;&gt;140017381188112 -->
<g id="edge31" class="edge">
<title>140017381017616&#45;&gt;140017381188112</title>
<path fill="none" stroke="white" d="M663.82,-1481.38C656.31,-1513.48 643.45,-1568.4 633.97,-1608.89"/>
<polygon fill="white" stroke="white" points="630.51,-1608.31 631.64,-1618.85 637.32,-1609.91 630.51,-1608.31"/>
<text text-anchor="middle" x="752.5" y="-1502.8" font-family="Times,serif" font-size="14.00" fill="white">32,157 row(s)/58 chunk(s)</text>
</g>
<!-- 140017382558288&#45;&gt;140017381017616 -->
<g id="edge32" class="edge">
<title>140017382558288&#45;&gt;140017381017616</title>
<path fill="none" stroke="white" d="M734.59,-1376.25C723.16,-1389.84 710,-1405.47 698.55,-1419.07"/>
<polygon fill="white" stroke="white" points="695.8,-1416.91 692.04,-1426.81 701.16,-1421.42 695.8,-1416.91"/>
<text text-anchor="middle" x="812.5" y="-1397.8" font-family="Times,serif" font-size="14.00" fill="white">32,157 row(s)/58 chunk(s)</text>
</g>
<!-- 140017381017360 -->
<g id="node28" class="node">
<title>140017381017360</title>
<g id="a_node28"><a xlink:title="Output: 100090 rows in 5 chunks filtered: 0, 331 µs 406 ns.">
<polygon fill="none" stroke="white" points="1027.5,-1169 910.5,-1169 910.5,-1115 1027.5,-1115 1027.5,-1169"/>
<text text-anchor="middle" x="969" y="-1153.8" font-family="Times,serif" font-size="14.00" fill="white">Validate</text>
<text text-anchor="middle" x="969" y="-1122.8" font-family="Times,serif" font-size="14.00" fill="white">331 µs 406 ns</text>
</a>
</g>
</g>
<!-- 140017381017360&#45;&gt;140017382558288 -->
<g id="edge33" class="edge">
<title>140017381017360&#45;&gt;140017382558288</title>
<path fill="none" stroke="white" d="M975.31,-1169.27C981.34,-1201.35 985.88,-1255.49 958,-1289 946.61,-1302.69 913.51,-1313.63 877.73,-1321.84"/>
<polygon fill="white" stroke="white" points="867.58,-1324.09 878.1,-1325.34 877.35,-1321.93 867.58,-1324.09"/>
<text text-anchor="middle" x="1072.5" y="-1217.8" font-family="Times,serif" font-size="14.00" fill="white">100,090 row(s)/5 chunk(s)</text>
</g>
<!-- 140017382557968&#45;&gt;140017381017360 -->
<g id="edge34" class="edge">
<title>140017382557968&#45;&gt;140017381017360</title>
<path fill="none" stroke="white" d="M907.58,-924.72C920.93,-971.75 945.06,-1056.7 958.76,-1104.95"/>
<polygon fill="white" stroke="white" points="955.42,-1106 961.52,-1114.66 962.16,-1104.09 955.42,-1106"/>
<text text-anchor="middle" x="1011.5" y="-953.8" font-family="Times,serif" font-size="14.00" fill="white">100,090 row(s)/5 chunk(s)</text>
</g>
<!-- 0 -->
<g id="node30" class="node">
<title>0</title>
<polygon fill="none" stroke="white" points="526,-0.5 526,-166.5 872,-166.5 872,-0.5 526,-0.5"/>
<text text-anchor="middle" x="699" y="-151.3" font-family="Times,serif" font-size="14.00" fill="white">Total by operator</text>
<polyline fill="none" stroke="white" points="526,-143.5 872,-143.5 "/>
<text text-anchor="end" x="680" y="-128.3" font-family="Times,serif" font-size="14.00" fill="white">JoinSimdSortMerge </text>
<text text-anchor="end" x="680" y="-113.3" font-family="Times,serif" font-size="14.00" fill="white"> AggregateHash </text>
<text text-anchor="end" x="680" y="-98.3" font-family="Times,serif" font-size="14.00" fill="white"> Sort </text>
<text text-anchor="end" x="680" y="-83.3" font-family="Times,serif" font-size="14.00" fill="white"> GetTable </text>
<text text-anchor="end" x="680" y="-68.3" font-family="Times,serif" font-size="14.00" fill="white"> TableScan </text>
<text text-anchor="end" x="680" y="-53.3" font-family="Times,serif" font-size="14.00" fill="white"> Validate </text>
<text text-anchor="end" x="680" y="-38.3" font-family="Times,serif" font-size="14.00" fill="white"> Limit </text>
<text text-anchor="end" x="680" y="-23.3" font-family="Times,serif" font-size="14.00" fill="white"> Projection </text>
<text text-anchor="end" x="680" y="-8.3" font-family="Times,serif" font-size="14.00" fill="white">total</text>
<polyline fill="none" stroke="white" points="688,-0.5 688,-143.5 "/>
<text text-anchor="start" x="696" y="-128.3" font-family="Times,serif" font-size="14.00" fill="white">216 ms 56 µs </text>
<text text-anchor="start" x="696" y="-113.3" font-family="Times,serif" font-size="14.00" fill="white"> 48 ms 190 µs </text>
<text text-anchor="start" x="696" y="-98.3" font-family="Times,serif" font-size="14.00" fill="white"> 40 ms 95 µs </text>
<text text-anchor="start" x="696" y="-83.3" font-family="Times,serif" font-size="14.00" fill="white"> 4 ms 572 µs </text>
<text text-anchor="start" x="696" y="-68.3" font-family="Times,serif" font-size="14.00" fill="white"> 2 ms 692 µs </text>
<text text-anchor="start" x="696" y="-53.3" font-family="Times,serif" font-size="14.00" fill="white"> 2 ms 645 µs </text>
<text text-anchor="start" x="696" y="-38.3" font-family="Times,serif" font-size="14.00" fill="white"> 20 µs 355 ns </text>
<text text-anchor="start" x="696" y="-23.3" font-family="Times,serif" font-size="14.00" fill="white"> 8 µs 681 ns </text>
<text text-anchor="start" x="696" y="-8.3" font-family="Times,serif" font-size="14.00" fill="white"> 314 ms 280 µs </text>
<polyline fill="none" stroke="white" points="819,-0.5 819,-143.5 "/>
<text text-anchor="start" x="827" y="-128.3" font-family="Times,serif" font-size="14.00" fill="white">69 %</text>
<text text-anchor="start" x="827" y="-113.3" font-family="Times,serif" font-size="14.00" fill="white">15 %</text>
<text text-anchor="start" x="827" y="-98.3" font-family="Times,serif" font-size="14.00" fill="white">13 %</text>
<text text-anchor="start" x="827" y="-83.3" font-family="Times,serif" font-size="14.00" fill="white">1 %</text>
<text text-anchor="start" x="827" y="-68.3" font-family="Times,serif" font-size="14.00" fill="white">1 %</text>
<text text-anchor="start" x="827" y="-53.3" font-family="Times,serif" font-size="14.00" fill="white">1 %</text>
<text text-anchor="start" x="827" y="-38.3" font-family="Times,serif" font-size="14.00" fill="white">0 %</text>
<text text-anchor="start" x="827" y="-23.3" font-family="Times,serif" font-size="14.00" fill="white">0 %</text>
<text text-anchor="start" x="827" y="-8.3" font-family="Times,serif" font-size="14.00" fill="white"> </text>
</g>
</g>
</svg>
