<?xml version="1.0" encoding="UTF-8" standalone="no"?>
<!DOCTYPE svg PUBLIC "-//W3C//DTD SVG 1.1//EN"
 "http://www.w3.org/Graphics/SVG/1.1/DTD/svg11.dtd">
<!-- Generated by graphviz version 2.43.0 (0)
 -->
<!-- Title: G Pages: 1 -->
<svg width="1055pt" height="1895pt"
 viewBox="0.00 0.00 1054.50 1895.00" xmlns="http://www.w3.org/2000/svg" xmlns:xlink="http://www.w3.org/1999/xlink">
<g id="graph0" class="graph" transform="scale(1 1) rotate(0) translate(4 1891)">
<title>G</title>
<polygon fill="black" stroke="transparent" points="-4,4 -4,-1891 1050.5,-1891 1050.5,4 -4,4"/>
<text text-anchor="middle" x="319.5" y="-1871.8" font-family="Times,serif" font-size="14.00" fill="white">For tooltips with advanced information, hover your mouse over vertices or edge labels.</text>
<!-- 140017387012176 -->
<g id="node1" class="node">
<title>140017387012176</title>
<g id="a_node1"><a xlink:title="Output: 10 rows in 1 chunk filtered: 0, 2 µs 362 ns.">
<polygon fill="none" stroke="white" points="676,-1832 307,-1832 307,-1763 676,-1763 676,-1832"/>
<text text-anchor="middle" x="491.5" y="-1816.8" font-family="Times,serif" font-size="14.00" fill="white">Alias</text>
<text text-anchor="middle" x="491.5" y="-1801.8" font-family="Times,serif" font-size="14.00" fill="white">[l_orderkey, revenue, o_orderdate, o_shippriority]</text>
<text text-anchor="middle" x="491.5" y="-1770.8" font-family="Times,serif" font-size="14.00" fill="white">2 µs 362 ns</text>
</a>
</g>
</g>
<!-- 140017387011856 -->
<g id="node2" class="node">
<title>140017387011856</title>
<g id="a_node2"><a xlink:title="Output: 10 rows in 1 chunk filtered: 0, 7 µs 849 ns.&#10;Operator step runtimes:&#10; ForwardUnmodifiedColumns 2 µs 792 ns&#10; EvaluateNewColumns 794 ns&#10; BuildOutput 3 µs 141 ns.">
<polygon fill="none" stroke="white" points="541,-1712 442,-1712 442,-1658 541,-1658 541,-1712"/>
<text text-anchor="middle" x="491.5" y="-1696.8" font-family="Times,serif" font-size="14.00" fill="white">Projection</text>
<text text-anchor="middle" x="491.5" y="-1665.8" font-family="Times,serif" font-size="14.00" fill="white">7 µs 849 ns</text>
</a>
</g>
</g>
<!-- 140017387011856&#45;&gt;140017387012176 -->
<g id="edge1" class="edge">
<title>140017387011856&#45;&gt;140017387012176</title>
<path fill="none" stroke="white" d="M491.5,-1712.19C491.5,-1724.29 491.5,-1739 491.5,-1752.72"/>
<polygon fill="white" stroke="white" points="488,-1752.95 491.5,-1762.95 495,-1752.96 488,-1752.95"/>
<text text-anchor="middle" x="565" y="-1733.8" font-family="Times,serif" font-size="14.00" fill="white">10 row(s)/1 chunk(s)</text>
</g>
<!-- 140017385120784 -->
<g id="node3" class="node">
<title>140017385120784</title>
<g id="a_node3"><a xlink:title="Output: 10 rows in 1 chunk filtered: 0, 10 µs 26 ns.">
<polygon fill="none" stroke="white" points="541,-1607 442,-1607 442,-1553 541,-1553 541,-1607"/>
<text text-anchor="middle" x="491.5" y="-1591.8" font-family="Times,serif" font-size="14.00" fill="white">Limit</text>
<text text-anchor="middle" x="491.5" y="-1560.8" font-family="Times,serif" font-size="14.00" fill="white">10 µs 26 ns</text>
</a>
</g>
</g>
<!-- 140017385120784&#45;&gt;140017387011856 -->
<g id="edge2" class="edge">
<title>140017385120784&#45;&gt;140017387011856</title>
<path fill="none" stroke="white" d="M491.5,-1607.26C491.5,-1619.49 491.5,-1634.24 491.5,-1647.52"/>
<polygon fill="white" stroke="white" points="488,-1647.79 491.5,-1657.79 495,-1647.79 488,-1647.79"/>
<text text-anchor="middle" x="565" y="-1628.8" font-family="Times,serif" font-size="14.00" fill="white">10 row(s)/1 chunk(s)</text>
</g>
<!-- 140017387011536 -->
<g id="node4" class="node">
<title>140017387011536</title>
<g id="a_node4"><a xlink:title="Output: 565840 rows in 9 chunks filtered: 0, 428 ms 734 µs.&#10;Operator step runtimes:&#10; MaterializeSortColumns 104 ms 132 µs&#10; Sort 295 ms 561 µs&#10; TemporaryResultWriting 2 ms 436 µs&#10; WriteOutput 25 ms 342 µs.">
<polygon fill="none" stroke="white" stroke-width="6.83" points="552.5,-1502 430.5,-1502 430.5,-1448 552.5,-1448 552.5,-1502"/>
<text text-anchor="middle" x="491.5" y="-1486.8" font-family="Times,serif" font-size="14.00" fill="white">Sort</text>
<text text-anchor="middle" x="491.5" y="-1455.8" font-family="Times,serif" font-size="14.00" fill="white">428 ms 734 µs</text>
</a>
</g>
</g>
<!-- 140017387011536&#45;&gt;140017385120784 -->
<g id="edge3" class="edge">
<title>140017387011536&#45;&gt;140017385120784</title>
<path fill="none" stroke="white" d="M491.5,-1502.26C491.5,-1514.49 491.5,-1529.24 491.5,-1542.52"/>
<polygon fill="white" stroke="white" points="488,-1542.79 491.5,-1552.79 495,-1542.79 488,-1542.79"/>
<text text-anchor="middle" x="585" y="-1523.8" font-family="Times,serif" font-size="14.00" fill="white">565,840 row(s)/9 chunk(s)</text>
</g>
<!-- 140017385230352 -->
<g id="node5" class="node">
<title>140017385230352</title>
<g id="a_node5"><a xlink:title="Output: 565840 rows in 9 chunks filtered: 0, 546 ms 952 µs.&#10;Operator step runtimes:&#10; GroupByKeyPartitioning 304 ms 91 µs&#10; Aggregating 213 ms 646 µs&#10; GroupByColumnsWriting 6 ms 887 µs&#10; AggregateColumnsWriting 11 ms 27 µs&#10; OutputWriting 17 µs 655 ns.">
<polygon fill="none" stroke="white" stroke-width="7.43" points="640,-1397 343,-1397 343,-1283 640,-1283 640,-1397"/>
<text text-anchor="middle" x="491.5" y="-1381.8" font-family="Times,serif" font-size="14.00" fill="white">AggregateHash</text>
<text text-anchor="middle" x="491.5" y="-1366.8" font-family="Times,serif" font-size="14.00" fill="white">GroupBy {l_orderkey,</text>
<text text-anchor="middle" x="491.5" y="-1351.8" font-family="Times,serif" font-size="14.00" fill="white">o_orderdate,</text>
<text text-anchor="middle" x="491.5" y="-1336.8" font-family="Times,serif" font-size="14.00" fill="white">o_shippriority}</text>
<text text-anchor="middle" x="491.5" y="-1321.8" font-family="Times,serif" font-size="14.00" fill="white">SUM(l_extendedprice * (1 &#45; l_discount))</text>
<text text-anchor="middle" x="491.5" y="-1290.8" font-family="Times,serif" font-size="14.00" fill="white">546 ms 952 µs</text>
</a>
</g>
</g>
<!-- 140017385230352&#45;&gt;140017387011536 -->
<g id="edge4" class="edge">
<title>140017385230352&#45;&gt;140017387011536</title>
<path fill="none" stroke="white" d="M491.5,-1397.02C491.5,-1410.77 491.5,-1425.14 491.5,-1437.69"/>
<polygon fill="white" stroke="white" points="488,-1437.75 491.5,-1447.75 495,-1437.75 488,-1437.75"/>
<text text-anchor="middle" x="585" y="-1418.8" font-family="Times,serif" font-size="14.00" fill="white">565,840 row(s)/9 chunk(s)</text>
</g>
<!-- 140017387011216 -->
<g id="node6" class="node">
<title>140017387011216</title>
<g id="a_node6"><a xlink:title="Output: 1495238 rows in 64 chunks filtered: 0, 55 ms 489 µs.&#10;Operator step runtimes:&#10; ForwardUnmodifiedColumns 43 µs 321 ns&#10; EvaluateNewColumns 55 ms 286 µs&#10; BuildOutput 143 µs 28 ns.">
<polygon fill="none" stroke="white" stroke-width="1.78" points="548,-1232 435,-1232 435,-1178 548,-1178 548,-1232"/>
<text text-anchor="middle" x="491.5" y="-1216.8" font-family="Times,serif" font-size="14.00" fill="white">Projection</text>
<text text-anchor="middle" x="491.5" y="-1185.8" font-family="Times,serif" font-size="14.00" fill="white">55 ms 489 µs</text>
</a>
</g>
</g>
<!-- 140017387011216&#45;&gt;140017385230352 -->
<g id="edge5" class="edge">
<title>140017387011216&#45;&gt;140017385230352</title>
<path fill="none" stroke="white" d="M491.5,-1232.28C491.5,-1243.91 491.5,-1258.18 491.5,-1272.45"/>
<polygon fill="white" stroke="white" points="488,-1272.8 491.5,-1282.8 495,-1272.8 488,-1272.8"/>
<text text-anchor="middle" x="596.5" y="-1253.8" font-family="Times,serif" font-size="14.00" fill="white">1,495,238 row(s)/64 chunk(s)</text>
</g>
<!-- 140017387010896 -->
<g id="node7" class="node">
<title>140017387010896</title>
<g id="a_node7"><a xlink:title="Output: 1495238 rows in 64 chunks filtered: 0, 169 ms 914 µs.&#10;Operator step runtimes:&#10; LeftSideMaterialize 74 ms 201 µs&#10; RightSideMaterialize 61 ms 62 µs&#10; LeftSideTransform 0 ns&#10; RightSideTransform 0 ns&#10; LeftSidePartition 1 ms 806 µs&#10; RightSidePartition 8 ms 677 µs&#10; LeftSideSortBuckets 719 µs 94 ns&#10; RightSideSortBuckets 9 ms 707 µs&#10; GatherRowIds 3 µs 954 ns&#10; FindJoinPartner 9 ms 567 µs&#10; OutputWriting 3 ms 385 µs.&#10;Radix bits: 8.">
<polygon fill="none" stroke="white" stroke-width="4.54" points="597,-1127 386,-1127 386,-1058 597,-1058 597,-1127"/>
<text text-anchor="middle" x="491.5" y="-1111.8" font-family="Times,serif" font-size="14.00" fill="white">JoinSimdSortMerge (Inner)</text>
<text text-anchor="middle" x="491.5" y="-1096.8" font-family="Times,serif" font-size="14.00" fill="white">l_orderkey = o_orderkey</text>
<text text-anchor="middle" x="491.5" y="-1065.8" font-family="Times,serif" font-size="14.00" fill="white">169 ms 914 µs</text>
</a>
</g>
</g>
<!-- 140017387010896&#45;&gt;140017387011216 -->
<g id="edge6" class="edge">
<title>140017387010896&#45;&gt;140017387011216</title>
<path fill="none" stroke="white" d="M491.5,-1127.25C491.5,-1140.07 491.5,-1154.73 491.5,-1167.77"/>
<polygon fill="white" stroke="white" points="488,-1167.81 491.5,-1177.81 495,-1167.81 488,-1167.81"/>
<text text-anchor="middle" x="596.5" y="-1148.8" font-family="Times,serif" font-size="14.00" fill="white">1,495,238 row(s)/64 chunk(s)</text>
</g>
<!-- 140017385120272 -->
<g id="node8" class="node">
<title>140017385120272</title>
<g id="a_node8"><a xlink:title="Output: 1495238 rows in 64 chunks filtered: 0, 10 ms 172 µs.">
<polygon fill="none" stroke="white" points="434,-1007 321,-1007 321,-953 434,-953 434,-1007"/>
<text text-anchor="middle" x="377.5" y="-991.8" font-family="Times,serif" font-size="14.00" fill="white">Validate</text>
<text text-anchor="middle" x="377.5" y="-960.8" font-family="Times,serif" font-size="14.00" fill="white">10 ms 172 µs</text>
</a>
</g>
</g>
<!-- 140017385120272&#45;&gt;140017387010896 -->
<g id="edge7" class="edge">
<title>140017385120272&#45;&gt;140017387010896</title>
<path fill="none" stroke="white" d="M374.23,-1007.03C374.16,-1018.07 375.93,-1030.54 382.5,-1040 385.19,-1043.88 388.25,-1047.47 391.6,-1050.8"/>
<polygon fill="white" stroke="white" points="391.87,-1051.04 389.55,-1053.66 399.35,-1057.67 391.87,-1051.04"/>
<text text-anchor="middle" x="487.5" y="-1028.8" font-family="Times,serif" font-size="14.00" fill="white">1,495,238 row(s)/64 chunk(s)</text>
</g>
<!-- 140017387010576 -->
<g id="node9" class="node">
<title>140017387010576</title>
<g id="a_node9"><a xlink:title="Output: 1495238 rows in 64 chunks filtered: 0, 690 ms 362 µs.&#10;Operator step runtimes:&#10; LeftSideMaterialize 235 ms 238 µs&#10; RightSideMaterialize 62 ms 125 µs&#10; LeftSideTransform 0 ns&#10; RightSideTransform 0 ns&#10; LeftSidePartition 229 ms 408 µs&#10; RightSidePartition 9 ms 731 µs&#10; LeftSideSortBuckets 85 ms 96 µs&#10; RightSideSortBuckets 10 ms 488 µs&#10; GatherRowIds 3 µs 829 ns&#10; FindJoinPartner 47 ms 93 µs&#10; OutputWriting 7 ms 860 µs.&#10;Radix bits: 8.">
<polygon fill="none" stroke="white" stroke-width="8" points="515,-902 230,-902 230,-833 515,-833 515,-902"/>
<text text-anchor="middle" x="372.5" y="-886.8" font-family="Times,serif" font-size="14.00" fill="white">JoinSimdSortMerge (Semi Reduction)</text>
<text text-anchor="middle" x="372.5" y="-871.8" font-family="Times,serif" font-size="14.00" fill="white">l_orderkey = o_orderkey</text>
<text text-anchor="middle" x="372.5" y="-840.8" font-family="Times,serif" font-size="14.00" fill="white">690 ms 362 µs</text>
</a>
</g>
</g>
<!-- 140017387010576&#45;&gt;140017385120272 -->
<g id="edge8" class="edge">
<title>140017387010576&#45;&gt;140017385120272</title>
<path fill="none" stroke="white" d="M373.27,-902.34C373.57,-912.81 373.98,-924.39 374.5,-935 374.62,-937.54 374.77,-940.17 374.92,-942.81"/>
<polygon fill="white" stroke="white" points="371.44,-943.19 375.56,-952.95 378.43,-942.75 371.44,-943.19"/>
<text text-anchor="middle" x="479.5" y="-923.8" font-family="Times,serif" font-size="14.00" fill="white">1,495,238 row(s)/64 chunk(s)</text>
</g>
<!-- 140017387008976 -->
<g id="node10" class="node">
<title>140017387008976</title>
<g id="a_node10"><a xlink:title="Output: 161869992 rows in 4578 chunks filtered: 0, 69 ms 96 µs.&#10;Chunks: 0 skipped with no results, &#10;0 skipped with all matching, 0 scanned using binary search.">
<polygon fill="none" stroke="white" stroke-width="2.32" points="199,-782 0,-782 0,-698 199,-698 199,-782"/>
<text text-anchor="middle" x="99.5" y="-766.8" font-family="Times,serif" font-size="14.00" fill="white">TableScan</text>
<text text-anchor="middle" x="99.5" y="-751.8" font-family="Times,serif" font-size="14.00" fill="white">Impl: ColumnVsValue</text>
<text text-anchor="middle" x="99.5" y="-736.8" font-family="Times,serif" font-size="14.00" fill="white">l_shipdate &gt; &#39;1995&#45;03&#45;14&#39;</text>
<text text-anchor="middle" x="99.5" y="-705.8" font-family="Times,serif" font-size="14.00" fill="white">69 ms 96 µs</text>
</a>
</g>
</g>
<!-- 140017387008976&#45;&gt;140017387010576 -->
<g id="edge9" class="edge">
<title>140017387008976&#45;&gt;140017387010576</title>
<path fill="none" stroke="white" stroke-width="6.48" d="M99.5,-782.33C101.53,-794.27 105.87,-806.39 114.5,-815 130.69,-831.15 173.69,-842.54 220.04,-850.43"/>
<polygon fill="white" stroke="white" stroke-width="6.48" points="220.11,-850.44 219.19,-856.03 229.98,-852.06 220.11,-850.44"/>
<text text-anchor="middle" x="239.5" y="-803.8" font-family="Times,serif" font-size="14.00" fill="white">161,869,992 row(s)/4,578 chunk(s)</text>
</g>
<!-- 140017385593488 -->
<g id="node11" class="node">
<title>140017385593488</title>
<g id="a_node11"><a xlink:title="Output: 300005811 rows in 4578 chunks filtered: 0, 20 ms 972 µs.">
<polygon fill="none" stroke="white" points="165,-647 34,-647 34,-533 165,-533 165,-647"/>
<text text-anchor="middle" x="99.5" y="-631.8" font-family="Times,serif" font-size="14.00" fill="white">GetTable</text>
<text text-anchor="middle" x="99.5" y="-616.8" font-family="Times,serif" font-size="14.00" fill="white">(lineitem)</text>
<text text-anchor="middle" x="99.5" y="-601.8" font-family="Times,serif" font-size="14.00" fill="white">pruned:</text>
<text text-anchor="middle" x="99.5" y="-586.8" font-family="Times,serif" font-size="14.00" fill="white">0/4578 chunk(s)</text>
<text text-anchor="middle" x="99.5" y="-571.8" font-family="Times,serif" font-size="14.00" fill="white">12/16 column(s)</text>
<text text-anchor="middle" x="99.5" y="-540.8" font-family="Times,serif" font-size="14.00" fill="white">20 ms 972 µs</text>
</a>
</g>
</g>
<!-- 140017385593488&#45;&gt;140017387008976 -->
<g id="edge10" class="edge">
<title>140017385593488&#45;&gt;140017387008976</title>
<path fill="none" stroke="white" stroke-width="8" d="M99.5,-647.37C99.5,-660.65 99.5,-674.74 99.5,-687.77"/>
<polygon fill="white" stroke="white" stroke-width="8" points="92.5,-687.97 99.5,-697.97 106.5,-687.97 92.5,-687.97"/>
<text text-anchor="middle" x="224.5" y="-668.8" font-family="Times,serif" font-size="14.00" fill="white">300,005,811 row(s)/4,578 chunk(s)</text>
</g>
<!-- 140017385121040 -->
<g id="node12" class="node">
<title>140017385121040</title>
<g id="a_node12"><a xlink:title="Output: 7280560 rows in 256 chunks filtered: 0, 7 ms 349 µs.">
<polygon fill="none" stroke="white" points="541.5,-767 437.5,-767 437.5,-713 541.5,-713 541.5,-767"/>
<text text-anchor="middle" x="489.5" y="-751.8" font-family="Times,serif" font-size="14.00" fill="white">Validate</text>
<text text-anchor="middle" x="489.5" y="-720.8" font-family="Times,serif" font-size="14.00" fill="white">7 ms 349 µs</text>
</a>
</g>
</g>
<!-- 140017385121040&#45;&gt;140017387010896 -->
<g id="edge12" class="edge">
<title>140017385121040&#45;&gt;140017387010896</title>
<path fill="none" stroke="white" d="M541.51,-757.92C561.08,-767.11 581.29,-780.66 592.5,-800 645.99,-892.29 648.22,-949.04 592.5,-1040 590.19,-1043.78 587.5,-1047.29 584.52,-1050.55"/>
<polygon fill="white" stroke="white" points="577.09,-1057.72 586.72,-1053.29 584.29,-1050.78 577.09,-1057.72"/>
<text text-anchor="middle" x="742" y="-923.8" font-family="Times,serif" font-size="14.00" fill="white">7,280,560 row(s)/256 chunk(s)</text>
</g>
<!-- 140017385121040&#45;&gt;140017387010576 -->
<g id="edge11" class="edge">
<title>140017385121040&#45;&gt;140017387010576</title>
<path fill="none" stroke="white" d="M437.32,-754.12C413.58,-762.95 387.67,-777.28 373.5,-800 369.29,-806.75 367.27,-814.69 366.58,-822.68"/>
<polygon fill="white" stroke="white" points="366.33,-832.75 370.07,-822.83 366.57,-822.75 366.33,-832.75"/>
<text text-anchor="middle" x="483" y="-803.8" font-family="Times,serif" font-size="14.00" fill="white">7,280,560 row(s)/256 chunk(s)</text>
</g>
<!-- 140017387010256 -->
<g id="node13" class="node">
<title>140017387010256</title>
<g id="a_node13"><a xlink:title="Output: 7280560 rows in 256 chunks filtered: 0, 164 ms 65 µs.&#10;Operator step runtimes:&#10; LeftSideMaterialize 25 ms 280 µs&#10; RightSideMaterialize 3 ms 511 µs&#10; LeftSideTransform 0 ns&#10; RightSideTransform 0 ns&#10; LeftSidePartition 39 ms 161 µs&#10; RightSidePartition 2 ms 282 µs&#10; LeftSideSortBuckets 38 ms 813 µs&#10; RightSideSortBuckets 9 ms 147 µs&#10; GatherRowIds 2 µs 774 ns&#10; FindJoinPartner 30 ms 559 µs&#10; OutputWriting 13 ms 577 µs.&#10;Radix bits: 8.">
<polygon fill="none" stroke="white" stroke-width="4.46" points="594,-624.5 385,-624.5 385,-555.5 594,-555.5 594,-624.5"/>
<text text-anchor="middle" x="489.5" y="-609.3" font-family="Times,serif" font-size="14.00" fill="white">JoinSimdSortMerge (Semi)</text>
<text text-anchor="middle" x="489.5" y="-594.3" font-family="Times,serif" font-size="14.00" fill="white">o_custkey = c_custkey</text>
<text text-anchor="middle" x="489.5" y="-563.3" font-family="Times,serif" font-size="14.00" fill="white">164 ms 65 µs</text>
</a>
</g>
</g>
<!-- 140017387010256&#45;&gt;140017385121040 -->
<g id="edge13" class="edge">
<title>140017387010256&#45;&gt;140017385121040</title>
<path fill="none" stroke="white" d="M489.5,-624.58C489.5,-647.91 489.5,-678.97 489.5,-702.84"/>
<polygon fill="white" stroke="white" points="486,-702.92 489.5,-712.92 493,-702.92 486,-702.92"/>
<text text-anchor="middle" x="599" y="-668.8" font-family="Times,serif" font-size="14.00" fill="white">7,280,560 row(s)/256 chunk(s)</text>
</g>
<!-- 140017387009296 -->
<g id="node14" class="node">
<title>140017387009296</title>
<g id="a_node14"><a xlink:title="Output: 36405823 rows in 1145 chunks filtered: 0, 77 ms 689 µs.&#10;Chunks: 0 skipped with no results, &#10;0 skipped with all matching, 0 scanned using binary search.">
<polygon fill="none" stroke="white" stroke-width="2.61" points="463.5,-482 251.5,-482 251.5,-398 463.5,-398 463.5,-482"/>
<text text-anchor="middle" x="357.5" y="-466.8" font-family="Times,serif" font-size="14.00" fill="white">TableScan</text>
<text text-anchor="middle" x="357.5" y="-451.8" font-family="Times,serif" font-size="14.00" fill="white">Impl: ColumnVsValue</text>
<text text-anchor="middle" x="357.5" y="-436.8" font-family="Times,serif" font-size="14.00" fill="white">o_orderdate &lt; &#39;1995&#45;03&#45;14&#39;</text>
<text text-anchor="middle" x="357.5" y="-405.8" font-family="Times,serif" font-size="14.00" fill="white">77 ms 689 µs</text>
</a>
</g>
</g>
<!-- 140017387009296&#45;&gt;140017387010256 -->
<g id="edge14" class="edge">
<title>140017387009296&#45;&gt;140017387010256</title>
<path fill="none" stroke="white" stroke-width="2.8" d="M350.78,-482.21C350.82,-493.49 352.73,-505.27 358.5,-515 366.72,-528.86 378.58,-540.34 391.86,-549.78"/>
<polygon fill="white" stroke="white" stroke-width="2.8" points="391.97,-549.85 390.03,-552.77 400.29,-555.4 391.97,-549.85"/>
<text text-anchor="middle" x="479" y="-503.8" font-family="Times,serif" font-size="14.00" fill="white">36,405,823 row(s)/1,145 chunk(s)</text>
</g>
<!-- 140017385594832 -->
<g id="node15" class="node">
<title>140017385594832</title>
<g id="a_node15"><a xlink:title="Output: 75000000 rows in 1145 chunks filtered: 0, 4 ms 190 µs.">
<polygon fill="none" stroke="white" points="423,-347 292,-347 292,-233 423,-233 423,-347"/>
<text text-anchor="middle" x="357.5" y="-331.8" font-family="Times,serif" font-size="14.00" fill="white">GetTable</text>
<text text-anchor="middle" x="357.5" y="-316.8" font-family="Times,serif" font-size="14.00" fill="white">(orders)</text>
<text text-anchor="middle" x="357.5" y="-301.8" font-family="Times,serif" font-size="14.00" fill="white">pruned:</text>
<text text-anchor="middle" x="357.5" y="-286.8" font-family="Times,serif" font-size="14.00" fill="white">0/1145 chunk(s)</text>
<text text-anchor="middle" x="357.5" y="-271.8" font-family="Times,serif" font-size="14.00" fill="white">5/9 column(s)</text>
<text text-anchor="middle" x="357.5" y="-240.8" font-family="Times,serif" font-size="14.00" fill="white">4 ms 190 µs</text>
</a>
</g>
</g>
<!-- 140017385594832&#45;&gt;140017387009296 -->
<g id="edge15" class="edge">
<title>140017385594832&#45;&gt;140017387009296</title>
<path fill="none" stroke="white" stroke-width="4.58" d="M357.5,-347.37C357.5,-360.65 357.5,-374.74 357.5,-387.77"/>
<polygon fill="white" stroke="white" stroke-width="4.58" points="353.49,-387.97 357.5,-397.97 361.51,-387.97 353.49,-387.97"/>
<text text-anchor="middle" x="478" y="-368.8" font-family="Times,serif" font-size="14.00" fill="white">75,000,000 row(s)/1,145 chunk(s)</text>
</g>
<!-- 140017385120528 -->
<g id="node16" class="node">
<title>140017385120528</title>
<g id="a_node16"><a xlink:title="Output: 1501166 rows in 115 chunks filtered: 0, 343 µs 211 ns.">
<polygon fill="none" stroke="white" points="680,-467 563,-467 563,-413 680,-413 680,-467"/>
<text text-anchor="middle" x="621.5" y="-451.8" font-family="Times,serif" font-size="14.00" fill="white">Validate</text>
<text text-anchor="middle" x="621.5" y="-420.8" font-family="Times,serif" font-size="14.00" fill="white">343 µs 211 ns</text>
</a>
</g>
</g>
<!-- 140017385120528&#45;&gt;140017387010256 -->
<g id="edge16" class="edge">
<title>140017385120528&#45;&gt;140017387010256</title>
<path fill="none" stroke="white" d="M618.19,-467.28C615.25,-482.39 609.74,-501.07 599.5,-515 589.85,-528.13 577.12,-539.66 563.76,-549.47"/>
<polygon fill="white" stroke="white" points="555.38,-555.35 565.57,-552.47 563.56,-549.61 555.38,-555.35"/>
<text text-anchor="middle" x="718" y="-503.8" font-family="Times,serif" font-size="14.00" fill="white">1,501,166 row(s)/115 chunk(s)</text>
</g>
<!-- 140017387009616 -->
<g id="node17" class="node">
<title>140017387009616</title>
<g id="a_node17"><a xlink:title="Output: 1501166 rows in 115 chunks filtered: 0, 1 ms 588 µs.&#10;Chunks: 0 skipped with no results, &#10;0 skipped with all matching, 0 scanned using binary search.">
<polygon fill="none" stroke="white" points="747,-332 496,-332 496,-248 747,-248 747,-332"/>
<text text-anchor="middle" x="621.5" y="-316.8" font-family="Times,serif" font-size="14.00" fill="white">TableScan</text>
<text text-anchor="middle" x="621.5" y="-301.8" font-family="Times,serif" font-size="14.00" fill="white">Impl: ColumnVsValue</text>
<text text-anchor="middle" x="621.5" y="-286.8" font-family="Times,serif" font-size="14.00" fill="white">c_mktsegment = &#39;AUTOMOBILE&#39;</text>
<text text-anchor="middle" x="621.5" y="-255.8" font-family="Times,serif" font-size="14.00" fill="white">1 ms 588 µs</text>
</a>
</g>
</g>
<!-- 140017387009616&#45;&gt;140017385120528 -->
<g id="edge17" class="edge">
<title>140017387009616&#45;&gt;140017385120528</title>
<path fill="none" stroke="white" d="M621.5,-332.23C621.5,-354.32 621.5,-381.31 621.5,-402.62"/>
<polygon fill="white" stroke="white" points="618,-402.88 621.5,-412.88 625,-402.88 618,-402.88"/>
<text text-anchor="middle" x="731" y="-368.8" font-family="Times,serif" font-size="14.00" fill="white">1,501,166 row(s)/115 chunk(s)</text>
</g>
<!-- 140017385595280 -->
<g id="node18" class="node">
<title>140017385595280</title>
<g id="a_node18"><a xlink:title="Output: 7500000 rows in 115 chunks filtered: 0, 434 µs 185 ns.">
<polygon fill="none" stroke="white" points="682.5,-148 560.5,-148 560.5,-34 682.5,-34 682.5,-148"/>
<text text-anchor="middle" x="621.5" y="-132.8" font-family="Times,serif" font-size="14.00" fill="white">GetTable</text>
<text text-anchor="middle" x="621.5" y="-117.8" font-family="Times,serif" font-size="14.00" fill="white">(customer)</text>
<text text-anchor="middle" x="621.5" y="-102.8" font-family="Times,serif" font-size="14.00" fill="white">pruned:</text>
<text text-anchor="middle" x="621.5" y="-87.8" font-family="Times,serif" font-size="14.00" fill="white">0/115 chunk(s)</text>
<text text-anchor="middle" x="621.5" y="-72.8" font-family="Times,serif" font-size="14.00" fill="white">6/8 column(s)</text>
<text text-anchor="middle" x="621.5" y="-41.8" font-family="Times,serif" font-size="14.00" fill="white">434 µs 185 ns</text>
</a>
</g>
</g>
<!-- 140017385595280&#45;&gt;140017387009616 -->
<g id="edge18" class="edge">
<title>140017385595280&#45;&gt;140017387009616</title>
<path fill="none" stroke="white" d="M621.5,-148.19C621.5,-176.32 621.5,-210.15 621.5,-237.59"/>
<polygon fill="white" stroke="white" points="618,-237.77 621.5,-247.77 625,-237.77 618,-237.77"/>
<text text-anchor="middle" x="731" y="-203.8" font-family="Times,serif" font-size="14.00" fill="white">7,500,000 row(s)/115 chunk(s)</text>
</g>
<!-- 0 -->
<g id="node19" class="node">
<title>0</title>
<polygon fill="none" stroke="white" points="700.5,-0.5 700.5,-181.5 1046.5,-181.5 1046.5,-0.5 700.5,-0.5"/>
<text text-anchor="middle" x="873.5" y="-166.3" font-family="Times,serif" font-size="14.00" fill="white">Total by operator</text>
<polyline fill="none" stroke="white" points="700.5,-158.5 1046.5,-158.5 "/>
<text text-anchor="end" x="854.5" y="-143.3" font-family="Times,serif" font-size="14.00" fill="white">JoinSimdSortMerge </text>
<text text-anchor="end" x="854.5" y="-128.3" font-family="Times,serif" font-size="14.00" fill="white"> AggregateHash </text>
<text text-anchor="end" x="854.5" y="-113.3" font-family="Times,serif" font-size="14.00" fill="white"> Sort </text>
<text text-anchor="end" x="854.5" y="-98.3" font-family="Times,serif" font-size="14.00" fill="white"> TableScan </text>
<text text-anchor="end" x="854.5" y="-83.3" font-family="Times,serif" font-size="14.00" fill="white"> Projection </text>
<text text-anchor="end" x="854.5" y="-68.3" font-family="Times,serif" font-size="14.00" fill="white"> GetTable </text>
<text text-anchor="end" x="854.5" y="-53.3" font-family="Times,serif" font-size="14.00" fill="white"> Validate </text>
<text text-anchor="end" x="854.5" y="-38.3" font-family="Times,serif" font-size="14.00" fill="white"> Limit </text>
<text text-anchor="end" x="854.5" y="-23.3" font-family="Times,serif" font-size="14.00" fill="white"> Alias </text>
<text text-anchor="end" x="854.5" y="-8.3" font-family="Times,serif" font-size="14.00" fill="white">total</text>
<polyline fill="none" stroke="white" points="862.5,-0.5 862.5,-158.5 "/>
<text text-anchor="start" x="870.5" y="-143.3" font-family="Times,serif" font-size="14.00" fill="white">1 s 24 ms </text>
<text text-anchor="start" x="870.5" y="-128.3" font-family="Times,serif" font-size="14.00" fill="white"> 546 ms 952 µs </text>
<text text-anchor="start" x="870.5" y="-113.3" font-family="Times,serif" font-size="14.00" fill="white"> 428 ms 734 µs </text>
<text text-anchor="start" x="870.5" y="-98.3" font-family="Times,serif" font-size="14.00" fill="white"> 148 ms 372 µs </text>
<text text-anchor="start" x="870.5" y="-83.3" font-family="Times,serif" font-size="14.00" fill="white"> 55 ms 496 µs </text>
<text text-anchor="start" x="870.5" y="-68.3" font-family="Times,serif" font-size="14.00" fill="white"> 25 ms 596 µs </text>
<text text-anchor="start" x="870.5" y="-53.3" font-family="Times,serif" font-size="14.00" fill="white"> 17 ms 864 µs </text>
<text text-anchor="start" x="870.5" y="-38.3" font-family="Times,serif" font-size="14.00" fill="white"> 10 µs 26 ns </text>
<text text-anchor="start" x="870.5" y="-23.3" font-family="Times,serif" font-size="14.00" fill="white"> 2 µs 362 ns </text>
<text text-anchor="start" x="870.5" y="-8.3" font-family="Times,serif" font-size="14.00" fill="white"> 2 s 247 ms </text>
<polyline fill="none" stroke="white" points="993.5,-0.5 993.5,-158.5 "/>
<text text-anchor="start" x="1001.5" y="-143.3" font-family="Times,serif" font-size="14.00" fill="white">46 %</text>
<text text-anchor="start" x="1001.5" y="-128.3" font-family="Times,serif" font-size="14.00" fill="white">24 %</text>
<text text-anchor="start" x="1001.5" y="-113.3" font-family="Times,serif" font-size="14.00" fill="white">19 %</text>
<text text-anchor="start" x="1001.5" y="-98.3" font-family="Times,serif" font-size="14.00" fill="white">7 %</text>
<text text-anchor="start" x="1001.5" y="-83.3" font-family="Times,serif" font-size="14.00" fill="white">2 %</text>
<text text-anchor="start" x="1001.5" y="-68.3" font-family="Times,serif" font-size="14.00" fill="white">1 %</text>
<text text-anchor="start" x="1001.5" y="-53.3" font-family="Times,serif" font-size="14.00" fill="white">1 %</text>
<text text-anchor="start" x="1001.5" y="-38.3" font-family="Times,serif" font-size="14.00" fill="white">0 %</text>
<text text-anchor="start" x="1001.5" y="-23.3" font-family="Times,serif" font-size="14.00" fill="white">0 %</text>
<text text-anchor="start" x="1001.5" y="-8.3" font-family="Times,serif" font-size="14.00" fill="white"> </text>
</g>
</g>
</svg>
