<?xml version="1.0" encoding="UTF-8" standalone="no"?>
<!DOCTYPE svg PUBLIC "-//W3C//DTD SVG 1.1//EN"
 "http://www.w3.org/Graphics/SVG/1.1/DTD/svg11.dtd">
<!-- Generated by graphviz version 2.43.0 (0)
 -->
<!-- Title: G Pages: 1 -->
<svg width="873pt" height="1610pt"
 viewBox="0.00 0.00 872.50 1610.00" xmlns="http://www.w3.org/2000/svg" xmlns:xlink="http://www.w3.org/1999/xlink">
<g id="graph0" class="graph" transform="scale(1 1) rotate(0) translate(4 1606)">
<title>G</title>
<polygon fill="black" stroke="transparent" points="-4,4 -4,-1606 868.5,-1606 868.5,4 -4,4"/>
<text text-anchor="middle" x="319.5" y="-1586.8" font-family="Times,serif" font-size="14.00" fill="white">For tooltips with advanced information, hover your mouse over vertices or edge labels.</text>
<!-- 139854212627024 -->
<g id="node1" class="node">
<title>139854212627024</title>
<g id="a_node1"><a xlink:title="Output: 1 row in 1 chunk filtered: 0, 1 µs 611 ns.">
<polygon fill="none" stroke="white" points="264.5,-1547 160.5,-1547 160.5,-1478 264.5,-1478 264.5,-1547"/>
<text text-anchor="middle" x="212.5" y="-1531.8" font-family="Times,serif" font-size="14.00" fill="white">Alias</text>
<text text-anchor="middle" x="212.5" y="-1516.8" font-family="Times,serif" font-size="14.00" fill="white">[avg_yearly]</text>
<text text-anchor="middle" x="212.5" y="-1485.8" font-family="Times,serif" font-size="14.00" fill="white">1 µs 611 ns</text>
</a>
</g>
</g>
<!-- 139854212626704 -->
<g id="node2" class="node">
<title>139854212626704</title>
<g id="a_node2"><a xlink:title="Output: 1 row in 1 chunk filtered: 0, 25 µs 992 ns.&#10;Operator step runtimes:&#10; ForwardUnmodifiedColumns 1 µs 424 ns&#10; EvaluateNewColumns 10 µs 909 ns&#10; BuildOutput 11 µs 393 ns.">
<polygon fill="none" stroke="white" points="266.5,-1427 158.5,-1427 158.5,-1373 266.5,-1373 266.5,-1427"/>
<text text-anchor="middle" x="212.5" y="-1411.8" font-family="Times,serif" font-size="14.00" fill="white">Projection</text>
<text text-anchor="middle" x="212.5" y="-1380.8" font-family="Times,serif" font-size="14.00" fill="white">25 µs 992 ns</text>
</a>
</g>
</g>
<!-- 139854212626704&#45;&gt;139854212627024 -->
<g id="edge1" class="edge">
<title>139854212626704&#45;&gt;139854212627024</title>
<path fill="none" stroke="white" d="M212.5,-1427.19C212.5,-1439.29 212.5,-1454 212.5,-1467.72"/>
<polygon fill="white" stroke="white" points="209,-1467.95 212.5,-1477.95 216,-1467.96 209,-1467.95"/>
<text text-anchor="middle" x="281.5" y="-1448.8" font-family="Times,serif" font-size="14.00" fill="white">1 row(s)/1 chunk(s)</text>
</g>
<!-- 140017280888336 -->
<g id="node3" class="node">
<title>140017280888336</title>
<g id="a_node3"><a xlink:title="Output: 1 row in 1 chunk filtered: 0, 19 ms 809 µs.&#10;Operator step runtimes:&#10; GroupByKeyPartitioning 34 ns&#10; Aggregating 19 ms 787 µs&#10; GroupByColumnsWriting 555 ns&#10; AggregateColumnsWriting 12 µs 677 ns&#10; OutputWriting 4 µs 338 ns.">
<polygon fill="none" stroke="white" points="300.5,-1322 124.5,-1322 124.5,-1238 300.5,-1238 300.5,-1322"/>
<text text-anchor="middle" x="212.5" y="-1306.8" font-family="Times,serif" font-size="14.00" fill="white">AggregateHash</text>
<text text-anchor="middle" x="212.5" y="-1291.8" font-family="Times,serif" font-size="14.00" fill="white">GroupBy {}</text>
<text text-anchor="middle" x="212.5" y="-1276.8" font-family="Times,serif" font-size="14.00" fill="white">SUM(l_extendedprice)</text>
<text text-anchor="middle" x="212.5" y="-1245.8" font-family="Times,serif" font-size="14.00" fill="white">19 ms 809 µs</text>
</a>
</g>
</g>
<!-- 140017280888336&#45;&gt;139854212626704 -->
<g id="edge2" class="edge">
<title>140017280888336&#45;&gt;139854212626704</title>
<path fill="none" stroke="white" d="M212.5,-1322.27C212.5,-1335.36 212.5,-1349.72 212.5,-1362.45"/>
<polygon fill="white" stroke="white" points="209,-1362.69 212.5,-1372.69 216,-1362.69 209,-1362.69"/>
<text text-anchor="middle" x="281.5" y="-1343.8" font-family="Times,serif" font-size="14.00" fill="white">1 row(s)/1 chunk(s)</text>
</g>
<!-- 139854212626384 -->
<g id="node4" class="node">
<title>139854212626384</title>
<g id="a_node4"><a xlink:title="Output: 26341 rows in 48 chunks filtered: 0, 62 ms 409 µs.&#10;Operator step runtimes:&#10; LeftSideMaterialize 10 ms 760 µs&#10; RightSideMaterialize 2 ms 874 µs&#10; LeftSideTransform 0 ns&#10; RightSideTransform 0 ns&#10; LeftSidePartition 2 ms 848 µs&#10; RightSidePartition 1 ms 209 µs&#10; LeftSideSortBuckets 739 µs 787 ns&#10; RightSideSortBuckets 677 µs 109 ns&#10; GatherRowIds 2 µs 543 ns&#10; FindJoinPartner 42 ms 122 µs&#10; OutputWriting 862 µs 390 ns.&#10;Radix bits: 8.">
<polygon fill="none" stroke="white" stroke-width="3.61" points="361,-1187 64,-1187 64,-1103 361,-1103 361,-1187"/>
<text text-anchor="middle" x="212.5" y="-1171.8" font-family="Times,serif" font-size="14.00" fill="white">JoinSimdSortMerge (Semi)</text>
<text text-anchor="middle" x="212.5" y="-1156.8" font-family="Times,serif" font-size="14.00" fill="white">p_partkey = l_partkey</text>
<text text-anchor="middle" x="212.5" y="-1141.8" font-family="Times,serif" font-size="14.00" fill="white">AND l_quantity &lt; 0.2 * AVG(l_quantity)</text>
<text text-anchor="middle" x="212.5" y="-1110.8" font-family="Times,serif" font-size="14.00" fill="white">62 ms 409 µs</text>
</a>
</g>
</g>
<!-- 139854212626384&#45;&gt;140017280888336 -->
<g id="edge3" class="edge">
<title>139854212626384&#45;&gt;140017280888336</title>
<path fill="none" stroke="white" d="M212.5,-1187.35C212.5,-1200.11 212.5,-1214.32 212.5,-1227.67"/>
<polygon fill="white" stroke="white" points="209,-1227.67 212.5,-1237.67 216,-1227.67 209,-1227.67"/>
<text text-anchor="middle" x="306" y="-1208.8" font-family="Times,serif" font-size="14.00" fill="white">26,341 row(s)/48 chunk(s)</text>
</g>
<!-- 139854212625744 -->
<g id="node5" class="node">
<title>139854212625744</title>
<g id="a_node5"><a xlink:title="Output: 298072 rows in 256 chunks filtered: 0, 51 ms 645 µs.&#10;Operator step runtimes:&#10; LeftSideMaterialize 39 ms 932 µs&#10; RightSideMaterialize 3 ms 333 µs&#10; LeftSideTransform 0 ns&#10; RightSideTransform 0 ns&#10; LeftSidePartition 2 ms 905 µs&#10; RightSidePartition 1 ms 141 µs&#10; LeftSideSortBuckets 651 µs 957 ns&#10; RightSideSortBuckets 513 µs 414 ns&#10; GatherRowIds 1 µs 342 ns&#10; FindJoinPartner 1 ms 307 µs&#10; OutputWriting 1 ms 456 µs.&#10;Radix bits: 8.">
<polygon fill="none" stroke="white" stroke-width="3.14" points="426,-939.5 215,-939.5 215,-870.5 426,-870.5 426,-939.5"/>
<text text-anchor="middle" x="320.5" y="-924.3" font-family="Times,serif" font-size="14.00" fill="white">JoinSimdSortMerge (Inner)</text>
<text text-anchor="middle" x="320.5" y="-909.3" font-family="Times,serif" font-size="14.00" fill="white">l_partkey = p_partkey</text>
<text text-anchor="middle" x="320.5" y="-878.3" font-family="Times,serif" font-size="14.00" fill="white">51 ms 645 µs</text>
</a>
</g>
</g>
<!-- 139854212625744&#45;&gt;139854212626384 -->
<g id="edge4" class="edge">
<title>139854212625744&#45;&gt;139854212626384</title>
<path fill="none" stroke="white" d="M322.03,-939.54C322.22,-977.53 317.76,-1039.99 290.5,-1085 288.32,-1088.59 285.84,-1092.05 283.12,-1095.35"/>
<polygon fill="white" stroke="white" points="283.12,-1095.35 280.52,-1093.01 276.42,-1102.78 283.12,-1095.35"/>
<text text-anchor="middle" x="421" y="-1021.3" font-family="Times,serif" font-size="14.00" fill="white">298,072 row(s)/256 chunk(s)</text>
</g>
<!-- 140017280525328 -->
<g id="node6" class="node">
<title>140017280525328</title>
<g id="a_node6"><a xlink:title="Output: 298072 rows in 256 chunks filtered: 0, 3 ms 384 µs.">
<polygon fill="none" stroke="white" points="254.5,-812 150.5,-812 150.5,-758 254.5,-758 254.5,-812"/>
<text text-anchor="middle" x="202.5" y="-796.8" font-family="Times,serif" font-size="14.00" fill="white">Validate</text>
<text text-anchor="middle" x="202.5" y="-765.8" font-family="Times,serif" font-size="14.00" fill="white">3 ms 384 µs</text>
</a>
</g>
</g>
<!-- 140017280525328&#45;&gt;139854212625744 -->
<g id="edge5" class="edge">
<title>140017280525328&#45;&gt;139854212625744</title>
<path fill="none" stroke="white" d="M254.6,-800.5C270.58,-807.2 286.96,-816.71 298.5,-830 305.97,-838.6 310.9,-849.65 314.16,-860.57"/>
<polygon fill="white" stroke="white" points="314.22,-860.8 310.83,-861.67 316.71,-870.48 314.22,-860.8"/>
<text text-anchor="middle" x="411" y="-833.8" font-family="Times,serif" font-size="14.00" fill="white">298,072 row(s)/256 chunk(s)</text>
</g>
<!-- 140017280887824 -->
<g id="node14" class="node">
<title>140017280887824</title>
<g id="a_node14"><a xlink:title="Output: 9929 rows in 1 chunk filtered: 0, 370 ms 88 µs.&#10;Operator step runtimes:&#10; GroupByKeyPartitioning 218 ms 200 µs&#10; Aggregating 151 ms 584 µs&#10; GroupByColumnsWriting 215 µs 60 ns&#10; AggregateColumnsWriting 40 µs 476 ns&#10; OutputWriting 5 µs 852 ns.">
<polygon fill="none" stroke="white" stroke-width="8" points="186.5,-947 18.5,-947 18.5,-863 186.5,-863 186.5,-947"/>
<text text-anchor="middle" x="102.5" y="-931.8" font-family="Times,serif" font-size="14.00" fill="white">AggregateHash</text>
<text text-anchor="middle" x="102.5" y="-916.8" font-family="Times,serif" font-size="14.00" fill="white">GroupBy {l_partkey}</text>
<text text-anchor="middle" x="102.5" y="-901.8" font-family="Times,serif" font-size="14.00" fill="white">AVG(l_quantity)</text>
<text text-anchor="middle" x="102.5" y="-870.8" font-family="Times,serif" font-size="14.00" fill="white">370 ms 88 µs</text>
</a>
</g>
</g>
<!-- 140017280525328&#45;&gt;140017280887824 -->
<g id="edge6" class="edge">
<title>140017280525328&#45;&gt;140017280887824</title>
<path fill="none" stroke="white" d="M150.25,-794.04C128.95,-800.17 106.34,-810.97 93.5,-830 88.97,-836.71 87.19,-844.57 87.09,-852.6"/>
<polygon fill="white" stroke="white" points="83.62,-853.06 87.78,-862.8 90.6,-852.59 83.62,-853.06"/>
<text text-anchor="middle" x="196" y="-833.8" font-family="Times,serif" font-size="14.00" fill="white">298,072 row(s)/256 chunk(s)</text>
</g>
<!-- 139854212625424 -->
<g id="node7" class="node">
<title>139854212625424</title>
<g id="a_node7"><a xlink:title="Output: 298072 rows in 256 chunks filtered: 0, 282 ms 574 µs.&#10;Operator step runtimes:&#10; LeftSideMaterialize 250 ms 976 µs&#10; RightSideMaterialize 3 ms 143 µs&#10; LeftSideTransform 0 ns&#10; RightSideTransform 0 ns&#10; LeftSidePartition 10 ms 13 µs&#10; RightSidePartition 1 ms 772 µs&#10; LeftSideSortBuckets 8 ms 710 µs&#10; RightSideSortBuckets 627 µs 24 ns&#10; GatherRowIds 2 µs 473 ns&#10; FindJoinPartner 1 ms 698 µs&#10; OutputWriting 966 µs 477 ns.&#10;Radix bits: 8.">
<polygon fill="none" stroke="white" stroke-width="7.33" points="345,-707 60,-707 60,-638 345,-638 345,-707"/>
<text text-anchor="middle" x="202.5" y="-691.8" font-family="Times,serif" font-size="14.00" fill="white">JoinSimdSortMerge (Semi Reduction)</text>
<text text-anchor="middle" x="202.5" y="-676.8" font-family="Times,serif" font-size="14.00" fill="white">l_partkey = p_partkey</text>
<text text-anchor="middle" x="202.5" y="-645.8" font-family="Times,serif" font-size="14.00" fill="white">282 ms 574 µs</text>
</a>
</g>
</g>
<!-- 139854212625424&#45;&gt;140017280525328 -->
<g id="edge7" class="edge">
<title>139854212625424&#45;&gt;140017280525328</title>
<path fill="none" stroke="white" d="M202.5,-707.25C202.5,-720.07 202.5,-734.73 202.5,-747.77"/>
<polygon fill="white" stroke="white" points="199,-747.81 202.5,-757.81 206,-747.81 199,-747.81"/>
<text text-anchor="middle" x="305" y="-728.8" font-family="Times,serif" font-size="14.00" fill="white">298,072 row(s)/256 chunk(s)</text>
</g>
<!-- 139854212929296 -->
<g id="node8" class="node">
<title>139854212929296</title>
<g id="a_node8"><a xlink:title="Output: 300005811 rows in 4578 chunks filtered: 0, 7 ms 992 µs.">
<polygon fill="none" stroke="white" points="131,-587 0,-587 0,-473 131,-473 131,-587"/>
<text text-anchor="middle" x="65.5" y="-571.8" font-family="Times,serif" font-size="14.00" fill="white">GetTable</text>
<text text-anchor="middle" x="65.5" y="-556.8" font-family="Times,serif" font-size="14.00" fill="white">(lineitem)</text>
<text text-anchor="middle" x="65.5" y="-541.8" font-family="Times,serif" font-size="14.00" fill="white">pruned:</text>
<text text-anchor="middle" x="65.5" y="-526.8" font-family="Times,serif" font-size="14.00" fill="white">0/4578 chunk(s)</text>
<text text-anchor="middle" x="65.5" y="-511.8" font-family="Times,serif" font-size="14.00" fill="white">13/16 column(s)</text>
<text text-anchor="middle" x="65.5" y="-480.8" font-family="Times,serif" font-size="14.00" fill="white">7 ms 992 µs</text>
</a>
</g>
</g>
<!-- 139854212929296&#45;&gt;139854212625424 -->
<g id="edge8" class="edge">
<title>139854212929296&#45;&gt;139854212625424</title>
<path fill="none" stroke="white" stroke-width="8" d="M56.34,-587.31C57.03,-598.93 59.86,-610.5 66.5,-620 69.33,-624.05 72.53,-627.79 76.02,-631.23"/>
<polygon fill="white" stroke="white" stroke-width="8" points="76.07,-631.27 71.43,-636.52 83.56,-637.89 76.07,-631.27"/>
<text text-anchor="middle" x="191.5" y="-608.8" font-family="Times,serif" font-size="14.00" fill="white">300,005,811 row(s)/4,578 chunk(s)</text>
</g>
<!-- 140017280734736 -->
<g id="node9" class="node">
<title>140017280734736</title>
<g id="a_node9"><a xlink:title="Output: 9929 rows in 153 chunks filtered: 0, 328 µs 578 ns.">
<polygon fill="none" stroke="white" points="498,-557 381,-557 381,-503 498,-503 498,-557"/>
<text text-anchor="middle" x="439.5" y="-541.8" font-family="Times,serif" font-size="14.00" fill="white">Validate</text>
<text text-anchor="middle" x="439.5" y="-510.8" font-family="Times,serif" font-size="14.00" fill="white">328 µs 578 ns</text>
</a>
</g>
</g>
<!-- 140017280734736&#45;&gt;139854212625744 -->
<g id="edge10" class="edge">
<title>140017280734736&#45;&gt;139854212625744</title>
<path fill="none" stroke="white" d="M484.1,-557.11C500.63,-569.35 517.51,-585.56 526.5,-605 555.67,-668.11 943.16,-296.42 517.5,-845 497.7,-870.52 467.3,-885.37 436.25,-893.9"/>
<polygon fill="white" stroke="white" points="426.17,-896.46 436.72,-897.4 435.86,-894 426.17,-896.46"/>
<text text-anchor="middle" x="695" y="-728.8" font-family="Times,serif" font-size="14.00" fill="white">9,929 row(s)/153 chunk(s)</text>
</g>
<!-- 140017280734736&#45;&gt;139854212625424 -->
<g id="edge9" class="edge">
<title>140017280734736&#45;&gt;139854212625424</title>
<path fill="none" stroke="white" d="M405.13,-557.06C375.27,-579.49 334.12,-609.79 316.5,-620 308.48,-624.65 299.97,-629.18 291.35,-633.5"/>
<polygon fill="white" stroke="white" points="282.34,-637.92 292.86,-636.66 291.32,-633.51 282.34,-637.92"/>
<text text-anchor="middle" x="432" y="-608.8" font-family="Times,serif" font-size="14.00" fill="white">9,929 row(s)/153 chunk(s)</text>
</g>
<!-- 139854212624464 -->
<g id="node10" class="node">
<title>139854212624464</title>
<g id="a_node10"><a xlink:title="Output: 9929 rows in 153 chunks filtered: 0, 466 µs 830 ns.&#10;Chunks: 0 skipped with no results, &#10;0 skipped with all matching, 0 scanned using binary search.">
<polygon fill="none" stroke="white" points="527.5,-422 351.5,-422 351.5,-338 527.5,-338 527.5,-422"/>
<text text-anchor="middle" x="439.5" y="-406.8" font-family="Times,serif" font-size="14.00" fill="white">TableScan</text>
<text text-anchor="middle" x="439.5" y="-391.8" font-family="Times,serif" font-size="14.00" fill="white">Impl: ColumnVsValue</text>
<text text-anchor="middle" x="439.5" y="-376.8" font-family="Times,serif" font-size="14.00" fill="white">p_brand = &#39;Brand#43&#39;</text>
<text text-anchor="middle" x="439.5" y="-345.8" font-family="Times,serif" font-size="14.00" fill="white">466 µs 830 ns</text>
</a>
</g>
</g>
<!-- 139854212624464&#45;&gt;140017280734736 -->
<g id="edge11" class="edge">
<title>139854212624464&#45;&gt;140017280734736</title>
<path fill="none" stroke="white" d="M439.5,-422.23C439.5,-444.32 439.5,-471.31 439.5,-492.62"/>
<polygon fill="white" stroke="white" points="436,-492.88 439.5,-502.88 443,-492.88 436,-492.88"/>
<text text-anchor="middle" x="533" y="-443.8" font-family="Times,serif" font-size="14.00" fill="white">9,929 row(s)/153 chunk(s)</text>
</g>
<!-- 139854212624784 -->
<g id="node11" class="node">
<title>139854212624784</title>
<g id="a_node11"><a xlink:title="Output: 250544 rows in 153 chunks filtered: 0, 814 µs 515 ns.&#10;Chunks: 0 skipped with no results, &#10;0 skipped with all matching, 0 scanned using binary search.">
<polygon fill="none" stroke="white" points="529,-287 350,-287 350,-203 529,-203 529,-287"/>
<text text-anchor="middle" x="439.5" y="-271.8" font-family="Times,serif" font-size="14.00" fill="white">TableScan</text>
<text text-anchor="middle" x="439.5" y="-256.8" font-family="Times,serif" font-size="14.00" fill="white">Impl: ColumnVsValue</text>
<text text-anchor="middle" x="439.5" y="-241.8" font-family="Times,serif" font-size="14.00" fill="white">p_container = &#39;LG JAR&#39;</text>
<text text-anchor="middle" x="439.5" y="-210.8" font-family="Times,serif" font-size="14.00" fill="white">814 µs 515 ns</text>
</a>
</g>
</g>
<!-- 139854212624784&#45;&gt;139854212624464 -->
<g id="edge12" class="edge">
<title>139854212624784&#45;&gt;139854212624464</title>
<path fill="none" stroke="white" d="M439.5,-287.35C439.5,-300.11 439.5,-314.32 439.5,-327.67"/>
<polygon fill="white" stroke="white" points="436,-327.67 439.5,-337.67 443,-327.67 436,-327.67"/>
<text text-anchor="middle" x="542" y="-308.8" font-family="Times,serif" font-size="14.00" fill="white">250,544 row(s)/153 chunk(s)</text>
</g>
<!-- 139854212929744 -->
<g id="node12" class="node">
<title>139854212929744</title>
<g id="a_node12"><a xlink:title="Output: 10000000 rows in 153 chunks filtered: 0, 219 µs 849 ns.">
<polygon fill="none" stroke="white" points="500.5,-133 378.5,-133 378.5,-19 500.5,-19 500.5,-133"/>
<text text-anchor="middle" x="439.5" y="-117.8" font-family="Times,serif" font-size="14.00" fill="white">GetTable</text>
<text text-anchor="middle" x="439.5" y="-102.8" font-family="Times,serif" font-size="14.00" fill="white">(part)</text>
<text text-anchor="middle" x="439.5" y="-87.8" font-family="Times,serif" font-size="14.00" fill="white">pruned:</text>
<text text-anchor="middle" x="439.5" y="-72.8" font-family="Times,serif" font-size="14.00" fill="white">0/153 chunk(s)</text>
<text text-anchor="middle" x="439.5" y="-57.8" font-family="Times,serif" font-size="14.00" fill="white">6/9 column(s)</text>
<text text-anchor="middle" x="439.5" y="-26.8" font-family="Times,serif" font-size="14.00" fill="white">219 µs 849 ns</text>
</a>
</g>
</g>
<!-- 139854212929744&#45;&gt;139854212624784 -->
<g id="edge13" class="edge">
<title>139854212929744&#45;&gt;139854212624784</title>
<path fill="none" stroke="white" d="M439.5,-133.07C439.5,-152.34 439.5,-173.8 439.5,-192.67"/>
<polygon fill="white" stroke="white" points="436,-192.86 439.5,-202.86 443,-192.86 436,-192.86"/>
<text text-anchor="middle" x="553.5" y="-173.8" font-family="Times,serif" font-size="14.00" fill="white">10,000,000 row(s)/153 chunk(s)</text>
</g>
<!-- 139854212626064 -->
<g id="node13" class="node">
<title>139854212626064</title>
<g id="a_node13"><a xlink:title="Output: 9929 rows in 1 chunk filtered: 0, 111 µs 967 ns.&#10;Operator step runtimes:&#10; ForwardUnmodifiedColumns 4 µs 45 ns&#10; EvaluateNewColumns 86 µs 456 ns&#10; BuildOutput 18 µs 907 ns.">
<polygon fill="none" stroke="white" points="179,-1052 62,-1052 62,-998 179,-998 179,-1052"/>
<text text-anchor="middle" x="120.5" y="-1036.8" font-family="Times,serif" font-size="14.00" fill="white">Projection</text>
<text text-anchor="middle" x="120.5" y="-1005.8" font-family="Times,serif" font-size="14.00" fill="white">111 µs 967 ns</text>
</a>
</g>
</g>
<!-- 139854212626064&#45;&gt;139854212626384 -->
<g id="edge14" class="edge">
<title>139854212626064&#45;&gt;139854212626384</title>
<path fill="none" stroke="white" d="M115.77,-1052.07C115.08,-1062.87 116.04,-1075.14 121.5,-1085 123.5,-1088.6 125.82,-1092.02 128.39,-1095.26"/>
<polygon fill="white" stroke="white" points="135.27,-1102.94 131.21,-1093.15 128.6,-1095.49 135.27,-1102.94"/>
<text text-anchor="middle" x="206" y="-1073.8" font-family="Times,serif" font-size="14.00" fill="white">9,929 row(s)/1 chunk(s)</text>
</g>
<!-- 140017280887824&#45;&gt;139854212626064 -->
<g id="edge15" class="edge">
<title>140017280887824&#45;&gt;139854212626064</title>
<path fill="none" stroke="white" d="M108.8,-947.27C110.79,-960.36 112.98,-974.72 114.92,-987.45"/>
<polygon fill="white" stroke="white" points="111.52,-988.34 116.49,-997.69 118.44,-987.28 111.52,-988.34"/>
<text text-anchor="middle" x="199" y="-968.8" font-family="Times,serif" font-size="14.00" fill="white">9,929 row(s)/1 chunk(s)</text>
</g>
<!-- 0 -->
<g id="node15" class="node">
<title>0</title>
<polygon fill="none" stroke="white" points="518.5,-0.5 518.5,-151.5 864.5,-151.5 864.5,-0.5 518.5,-0.5"/>
<text text-anchor="middle" x="691.5" y="-136.3" font-family="Times,serif" font-size="14.00" fill="white">Total by operator</text>
<polyline fill="none" stroke="white" points="518.5,-128.5 864.5,-128.5 "/>
<text text-anchor="end" x="672.5" y="-113.3" font-family="Times,serif" font-size="14.00" fill="white">JoinSimdSortMerge </text>
<text text-anchor="end" x="672.5" y="-98.3" font-family="Times,serif" font-size="14.00" fill="white"> AggregateHash </text>
<text text-anchor="end" x="672.5" y="-83.3" font-family="Times,serif" font-size="14.00" fill="white"> GetTable </text>
<text text-anchor="end" x="672.5" y="-68.3" font-family="Times,serif" font-size="14.00" fill="white"> Validate </text>
<text text-anchor="end" x="672.5" y="-53.3" font-family="Times,serif" font-size="14.00" fill="white"> TableScan </text>
<text text-anchor="end" x="672.5" y="-38.3" font-family="Times,serif" font-size="14.00" fill="white"> Projection </text>
<text text-anchor="end" x="672.5" y="-23.3" font-family="Times,serif" font-size="14.00" fill="white"> Alias </text>
<text text-anchor="end" x="672.5" y="-8.3" font-family="Times,serif" font-size="14.00" fill="white">total</text>
<polyline fill="none" stroke="white" points="680.5,-0.5 680.5,-128.5 "/>
<text text-anchor="start" x="688.5" y="-113.3" font-family="Times,serif" font-size="14.00" fill="white">396 ms 629 µs </text>
<text text-anchor="start" x="688.5" y="-98.3" font-family="Times,serif" font-size="14.00" fill="white"> 389 ms 897 µs </text>
<text text-anchor="start" x="688.5" y="-83.3" font-family="Times,serif" font-size="14.00" fill="white"> 8 ms 211 µs </text>
<text text-anchor="start" x="688.5" y="-68.3" font-family="Times,serif" font-size="14.00" fill="white"> 3 ms 712 µs </text>
<text text-anchor="start" x="688.5" y="-53.3" font-family="Times,serif" font-size="14.00" fill="white"> 1 ms 281 µs </text>
<text text-anchor="start" x="688.5" y="-38.3" font-family="Times,serif" font-size="14.00" fill="white"> 137 µs 959 ns </text>
<text text-anchor="start" x="688.5" y="-23.3" font-family="Times,serif" font-size="14.00" fill="white"> 1 µs 611 ns </text>
<text text-anchor="start" x="688.5" y="-8.3" font-family="Times,serif" font-size="14.00" fill="white"> 799 ms 871 µs </text>
<polyline fill="none" stroke="white" points="811.5,-0.5 811.5,-128.5 "/>
<text text-anchor="start" x="819.5" y="-113.3" font-family="Times,serif" font-size="14.00" fill="white">50 %</text>
<text text-anchor="start" x="819.5" y="-98.3" font-family="Times,serif" font-size="14.00" fill="white">49 %</text>
<text text-anchor="start" x="819.5" y="-83.3" font-family="Times,serif" font-size="14.00" fill="white">1 %</text>
<text text-anchor="start" x="819.5" y="-68.3" font-family="Times,serif" font-size="14.00" fill="white">0 %</text>
<text text-anchor="start" x="819.5" y="-53.3" font-family="Times,serif" font-size="14.00" fill="white">0 %</text>
<text text-anchor="start" x="819.5" y="-38.3" font-family="Times,serif" font-size="14.00" fill="white">0 %</text>
<text text-anchor="start" x="819.5" y="-23.3" font-family="Times,serif" font-size="14.00" fill="white">0 %</text>
<text text-anchor="start" x="819.5" y="-8.3" font-family="Times,serif" font-size="14.00" fill="white"> </text>
</g>
</g>
</svg>
