<?xml version="1.0" encoding="UTF-8" standalone="no"?>
<!DOCTYPE svg PUBLIC "-//W3C//DTD SVG 1.1//EN"
 "http://www.w3.org/Graphics/SVG/1.1/DTD/svg11.dtd">
<!-- Generated by graphviz version 2.43.0 (0)
 -->
<!-- Title: G Pages: 1 -->
<svg width="2110pt" height="1909pt"
 viewBox="0.00 0.00 2110.00 1909.00" xmlns="http://www.w3.org/2000/svg" xmlns:xlink="http://www.w3.org/1999/xlink">
<g id="graph0" class="graph" transform="scale(1 1) rotate(0) translate(4 1905)">
<title>G</title>
<polygon fill="black" stroke="transparent" points="-4,4 -4,-1905 2106,-1905 2106,4 -4,4"/>
<text text-anchor="middle" x="319.5" y="-1885.8" font-family="Times,serif" font-size="14.00" fill="white">For tooltips with advanced information, hover your mouse over vertices or edge labels.</text>
<!-- 140017077622096 -->
<g id="node1" class="node">
<title>140017077622096</title>
<polygon fill="none" stroke="white" points="1090,-1846 716,-1846 716,-1808 1090,-1808 1090,-1846"/>
<text text-anchor="middle" x="903" y="-1830.8" font-family="Times,serif" font-size="14.00" fill="white">[Alias] p_brand, p_type, p_size, COUNT(DISTINCT</text>
<text text-anchor="middle" x="903" y="-1815.8" font-family="Times,serif" font-size="14.00" fill="white">ps_suppkey) AS supplier_cnt</text>
</g>
<!-- 140017077620752 -->
<g id="node2" class="node">
<title>140017077620752</title>
<polygon fill="none" stroke="white" points="1097.5,-1757 708.5,-1757 708.5,-1704 1097.5,-1704 1097.5,-1757"/>
<text text-anchor="middle" x="903" y="-1741.8" font-family="Times,serif" font-size="14.00" fill="white">[Sort] COUNT(DISTINCT ps_suppkey) (Descending),</text>
<text text-anchor="middle" x="903" y="-1726.8" font-family="Times,serif" font-size="14.00" fill="white">p_brand (Ascending), p_type (Ascending), p_size</text>
<text text-anchor="middle" x="903" y="-1711.8" font-family="Times,serif" font-size="14.00" fill="white">(Ascending)</text>
</g>
<!-- 140017077620752&#45;&gt;140017077622096 -->
<g id="edge1" class="edge">
<title>140017077620752&#45;&gt;140017077622096</title>
<path fill="none" stroke="white" d="M903,-1757.32C903,-1769.87 903,-1784.99 903,-1797.83"/>
<polygon fill="white" stroke="white" points="899.5,-1797.99 903,-1807.99 906.5,-1797.99 899.5,-1797.99"/>
<g id="a_edge1&#45;label"><a xlink:title="Output Expressions: &#10; (1) p_brand&#10; (2) p_type&#10; (3) p_size&#10; (4) COUNT(DISTINCT ps_suppkey)&#10;&#10;Unique Column Combinations: &#10; (1) {p_brand, p_type, p_size}&#10;&#10;Functional Dependencies (trivial): &#10; (1) {p_brand, p_type, p_size} =&gt; {COUNT(DISTINCT ps_suppkey)}&#10;&#10;Functional Dependencies (non&#45;trivial): &#10; &lt;none&gt;">
<text text-anchor="middle" x="1011" y="-1778.8" font-family="Times,serif" font-size="14.00" fill="white"> 6,897.9 row(s) | 100.0% estd.</text>
</a>
</g>
</g>
<!-- 140017582095632 -->
<g id="node3" class="node">
<title>140017582095632</title>
<polygon fill="none" stroke="white" points="1080.5,-1653 725.5,-1653 725.5,-1615 1080.5,-1615 1080.5,-1653"/>
<text text-anchor="middle" x="903" y="-1637.8" font-family="Times,serif" font-size="14.00" fill="white">[Aggregate] GroupBy: [p_brand, p_type, p_size]</text>
<text text-anchor="middle" x="903" y="-1622.8" font-family="Times,serif" font-size="14.00" fill="white">Aggregates: [COUNT(DISTINCT ps_suppkey)]</text>
</g>
<!-- 140017582095632&#45;&gt;140017077620752 -->
<g id="edge2" class="edge">
<title>140017582095632&#45;&gt;140017077620752</title>
<path fill="none" stroke="white" d="M903,-1653.22C903,-1664.67 903,-1679.84 903,-1693.64"/>
<polygon fill="white" stroke="white" points="899.5,-1693.83 903,-1703.83 906.5,-1693.83 899.5,-1693.83"/>
<g id="a_edge2&#45;label"><a xlink:title="Output Expressions: &#10; (1) p_brand&#10; (2) p_type&#10; (3) p_size&#10; (4) COUNT(DISTINCT ps_suppkey)&#10;&#10;Unique Column Combinations: &#10; (1) {p_brand, p_type, p_size}&#10;&#10;Functional Dependencies (trivial): &#10; (1) {p_brand, p_type, p_size} =&gt; {COUNT(DISTINCT ps_suppkey)}&#10;&#10;Functional Dependencies (non&#45;trivial): &#10; &lt;none&gt;">
<text text-anchor="middle" x="1011" y="-1674.8" font-family="Times,serif" font-size="14.00" fill="white"> 6,897.9 row(s) | 100.0% estd.</text>
</a>
</g>
</g>
<!-- 140017077621712 -->
<g id="node4" class="node">
<title>140017077621712</title>
<polygon fill="none" stroke="white" points="1068,-1564 738,-1564 738,-1528 1068,-1528 1068,-1564"/>
<text text-anchor="middle" x="903" y="-1542.3" font-family="Times,serif" font-size="14.00" fill="white">[Join] Mode: Inner [p_partkey = ps_partkey]</text>
</g>
<!-- 140017077621712&#45;&gt;140017582095632 -->
<g id="edge3" class="edge">
<title>140017077621712&#45;&gt;140017582095632</title>
<path fill="none" stroke="white" d="M903,-1564.4C903,-1575.94 903,-1591.35 903,-1604.64"/>
<polygon fill="white" stroke="white" points="899.5,-1604.73 903,-1614.73 906.5,-1604.73 899.5,-1604.73"/>
<g id="a_edge3&#45;label"><a xlink:title="Output Expressions: &#10; (1) ps_partkey&#10; (2) ps_suppkey&#10; (3) p_partkey&#10; (4) p_brand&#10; (5) p_type&#10; (6) p_size&#10;&#10;Unique Column Combinations: &#10; &lt;none&gt;&#10;&#10;Functional Dependencies (trivial): &#10; &lt;none&gt;&#10;&#10;Functional Dependencies (non&#45;trivial): &#10; (1) {p_partkey} =&gt; {p_brand, p_type, p_size}&#10;">
<text text-anchor="middle" x="1002" y="-1585.8" font-family="Times,serif" font-size="14.00" fill="white"> 6,897.9 row(s) | 0.0% estd.</text>
</a>
</g>
</g>
<!-- 140017582093712 -->
<g id="node5" class="node">
<title>140017582093712</title>
<polygon fill="none" stroke="white" points="789,-1477 463,-1477 463,-1439 789,-1439 789,-1477"/>
<text text-anchor="middle" x="626" y="-1461.8" font-family="Times,serif" font-size="14.00" fill="white">[Join] Mode: AntiNullAsTrue [ps_suppkey =</text>
<text text-anchor="middle" x="626" y="-1446.8" font-family="Times,serif" font-size="14.00" fill="white">s_suppkey]</text>
</g>
<!-- 140017582093712&#45;&gt;140017077621712 -->
<g id="edge4" class="edge">
<title>140017582093712&#45;&gt;140017077621712</title>
<path fill="none" stroke="white" d="M684.07,-1477.03C729.09,-1491.01 791.47,-1510.37 838.13,-1524.86"/>
<polygon fill="white" stroke="white" points="838.29,-1524.91 837.25,-1528.25 847.84,-1527.87 838.29,-1524.91"/>
<g id="a_edge4&#45;label"><a xlink:title="Output Expressions: &#10; (1) ps_partkey&#10; (2) ps_suppkey&#10;&#10;Unique Column Combinations: &#10; (1) {ps_partkey, ps_suppkey}&#10;&#10;Functional Dependencies (trivial): &#10; &lt;none&gt;&#10;&#10;Functional Dependencies (non&#45;trivial): &#10; &lt;none&gt;">
<text text-anchor="middle" x="897" y="-1498.8" font-family="Times,serif" font-size="14.00" fill="white"> 6,897.9 row(s) | 100.0% estd.</text>
</a>
</g>
</g>
<!-- 140017580393488 -->
<g id="node6" class="node">
<title>140017580393488</title>
<polygon fill="none" stroke="white" points="429.5,-1388 344.5,-1388 344.5,-1352 429.5,-1352 429.5,-1388"/>
<text text-anchor="middle" x="387" y="-1366.3" font-family="Times,serif" font-size="14.00" fill="white">[Validate]</text>
</g>
<!-- 140017580393488&#45;&gt;140017582093712 -->
<g id="edge5" class="edge">
<title>140017580393488&#45;&gt;140017582093712</title>
<path fill="none" stroke="white" d="M388.43,-1388.35C390.28,-1399.34 394.48,-1412.95 404,-1421 413.28,-1428.85 431.19,-1435.01 452.98,-1439.84"/>
<polygon fill="white" stroke="white" points="453.1,-1439.87 452.39,-1443.29 462.89,-1441.9 453.1,-1439.87"/>
<g id="a_edge5&#45;label"><a xlink:title="Output Expressions: &#10; (1) ps_partkey&#10; (2) ps_suppkey&#10;&#10;Unique Column Combinations: &#10; (1) {ps_partkey, ps_suppkey}&#10;&#10;Functional Dependencies (trivial): &#10; &lt;none&gt;&#10;&#10;Functional Dependencies (non&#45;trivial): &#10; &lt;none&gt;">
<text text-anchor="middle" x="512" y="-1409.8" font-family="Times,serif" font-size="14.00" fill="white"> 6,897.9 row(s) | 100.0% estd.</text>
</a>
</g>
</g>
<!-- 140017582091408 -->
<g id="node7" class="node">
<title>140017582091408</title>
<polygon fill="none" stroke="white" points="551,-1301 223,-1301 223,-1263 551,-1263 551,-1301"/>
<text text-anchor="middle" x="387" y="-1285.8" font-family="Times,serif" font-size="14.00" fill="white">[Join] Mode: Semi [p_partkey = ps_partkey]</text>
<text text-anchor="middle" x="387" y="-1270.8" font-family="Times,serif" font-size="14.00" fill="white">(SemiJoinReductionRule)</text>
</g>
<!-- 140017582091408&#45;&gt;140017580393488 -->
<g id="edge6" class="edge">
<title>140017582091408&#45;&gt;140017580393488</title>
<path fill="none" stroke="white" d="M387,-1301.24C387,-1313.07 387,-1328.68 387,-1341.95"/>
<polygon fill="white" stroke="white" points="383.5,-1341.96 387,-1351.96 390.5,-1341.96 383.5,-1341.96"/>
<g id="a_edge6&#45;label"><a xlink:title="Output Expressions: &#10; (1) ps_partkey&#10; (2) ps_suppkey&#10;&#10;Unique Column Combinations: &#10; (1) {ps_partkey, ps_suppkey}&#10;&#10;Functional Dependencies (trivial): &#10; &lt;none&gt;&#10;&#10;Functional Dependencies (non&#45;trivial): &#10; &lt;none&gt;">
<text text-anchor="middle" x="486" y="-1322.8" font-family="Times,serif" font-size="14.00" fill="white"> 6,897.9 row(s) | 0.0% estd.</text>
</a>
</g>
</g>
<!-- 140017656292688 -->
<g id="node8" class="node">
<title>140017656292688</title>
<polygon fill="none" stroke="white" points="346,-1212 0,-1212 0,-1174 346,-1174 346,-1212"/>
<text text-anchor="middle" x="173" y="-1196.8" font-family="Times,serif" font-size="14.00" fill="white">[StoredTable] Name: &#39;partsupp&#39; pruned: 0/611</text>
<text text-anchor="middle" x="173" y="-1181.8" font-family="Times,serif" font-size="14.00" fill="white">chunk(s), 3/5 column(s)</text>
</g>
<!-- 140017656292688&#45;&gt;140017582091408 -->
<g id="edge7" class="edge">
<title>140017656292688&#45;&gt;140017582091408</title>
<path fill="none" stroke="white" stroke-width="8" d="M217.34,-1212.03C251.06,-1225.73 297.59,-1244.65 333.39,-1259.21"/>
<polygon fill="white" stroke="white" stroke-width="8" points="333.45,-1259.23 330.82,-1265.72 342.72,-1263 333.45,-1259.23"/>
<g id="a_edge7&#45;label"><a xlink:title="Output Expressions: &#10; (1) ps_partkey&#10; (2) ps_suppkey&#10;&#10;Unique Column Combinations: &#10; (1) {ps_partkey, ps_suppkey}&#10;&#10;Functional Dependencies (trivial): &#10; &lt;none&gt;&#10;&#10;Functional Dependencies (non&#45;trivial): &#10; &lt;none&gt;">
<text text-anchor="middle" x="421" y="-1233.8" font-family="Times,serif" font-size="14.00" fill="white"> 40,000,000.0 row(s) | 100.0% estd.</text>
</a>
</g>
</g>
<!-- 140017582095440 -->
<g id="node9" class="node">
<title>140017582095440</title>
<polygon fill="none" stroke="white" points="1083.5,-1211 904.5,-1211 904.5,-1175 1083.5,-1175 1083.5,-1211"/>
<text text-anchor="middle" x="994" y="-1189.3" font-family="Times,serif" font-size="14.00" fill="white">[UnionNode] Mode: All</text>
</g>
<!-- 140017582095440&#45;&gt;140017077621712 -->
<g id="edge9" class="edge">
<title>140017582095440&#45;&gt;140017077621712</title>
<path fill="none" stroke="white" d="M1003.34,-1211.1C1011.81,-1228.26 1023,-1255.69 1023,-1281 1023,-1281 1023,-1281 1023,-1459 1023,-1482.51 1025.19,-1492.96 1009,-1510 1004.25,-1515 998.76,-1519.29 992.85,-1522.97"/>
<polygon fill="white" stroke="white" points="983.9,-1527.93 994.35,-1526.14 992.65,-1523.08 983.9,-1527.93"/>
<g id="a_edge9&#45;label"><a xlink:title="Output Expressions: &#10; (1) p_partkey&#10; (2) p_brand&#10; (3) p_type&#10; (4) p_size&#10;&#10;Unique Column Combinations: &#10; &lt;none&gt;&#10;&#10;Functional Dependencies (trivial): &#10; &lt;none&gt;&#10;&#10;Functional Dependencies (non&#45;trivial): &#10; (1) {p_partkey} =&gt; {p_brand, p_type, p_size}&#10;">
<text text-anchor="middle" x="1126.5" y="-1366.3" font-family="Times,serif" font-size="14.00" fill="white"> 23,390.0 row(s) | 0.0% estd.</text>
</a>
</g>
</g>
<!-- 140017582095440&#45;&gt;140017582091408 -->
<g id="edge8" class="edge">
<title>140017582095440&#45;&gt;140017582091408</title>
<path fill="none" stroke="white" d="M904.49,-1203.34C871.47,-1208.7 834.26,-1217.05 802,-1230 790.67,-1234.55 790.54,-1241.03 779,-1245 689.58,-1275.76 661.16,-1254.3 567,-1263 565.23,-1263.16 563.44,-1263.33 561.65,-1263.5"/>
<polygon fill="white" stroke="white" points="551.3,-1264.47 561.59,-1267.02 561.26,-1263.53 551.3,-1264.47"/>
<g id="a_edge8&#45;label"><a xlink:title="Output Expressions: &#10; (1) p_partkey&#10; (2) p_brand&#10; (3) p_type&#10; (4) p_size&#10;&#10;Unique Column Combinations: &#10; &lt;none&gt;&#10;&#10;Functional Dependencies (trivial): &#10; &lt;none&gt;&#10;&#10;Functional Dependencies (non&#45;trivial): &#10; (1) {p_partkey} =&gt; {p_brand, p_type, p_size}&#10;">
<text text-anchor="middle" x="905.5" y="-1233.8" font-family="Times,serif" font-size="14.00" fill="white"> 23,390.0 row(s) | 0.0% estd.</text>
</a>
</g>
</g>
<!-- 140017582095248 -->
<g id="node10" class="node">
<title>140017582095248</title>
<polygon fill="none" stroke="white" points="1144.5,-1122 813.5,-1122 813.5,-1086 1144.5,-1086 1144.5,-1122"/>
<text text-anchor="middle" x="979" y="-1100.3" font-family="Times,serif" font-size="14.00" fill="white">[Predicate] p_type &lt; &#39;PROMO BURNISHED&#39;</text>
</g>
<!-- 140017582095248&#45;&gt;140017582095440 -->
<g id="edge10" class="edge">
<title>140017582095248&#45;&gt;140017582095440</title>
<path fill="none" stroke="white" d="M981.96,-1122.19C984.06,-1134.34 986.91,-1150.89 989.31,-1164.82"/>
<polygon fill="white" stroke="white" points="989.34,-1164.99 985.89,-1165.59 991.04,-1174.85 989.34,-1164.99"/>
<g id="a_edge10&#45;label"><a xlink:title="Output Expressions: &#10; (1) p_partkey&#10; (2) p_brand&#10; (3) p_type&#10; (4) p_size&#10;&#10;Unique Column Combinations: &#10; &lt;none&gt;&#10;&#10;Functional Dependencies (trivial): &#10; &lt;none&gt;&#10;&#10;Functional Dependencies (non&#45;trivial): &#10; (1) {p_partkey} =&gt; {p_brand, p_type, p_size}&#10;">
<text text-anchor="middle" x="1090.5" y="-1144.8" font-family="Times,serif" font-size="14.00" fill="white"> 13,774.9 row(s) | 7.2% estd.</text>
</a>
</g>
</g>
<!-- 140017580408528 -->
<g id="node11" class="node">
<title>140017580408528</title>
<polygon fill="none" stroke="white" points="1198.5,-1034 1113.5,-1034 1113.5,-998 1198.5,-998 1198.5,-1034"/>
<text text-anchor="middle" x="1156" y="-1012.3" font-family="Times,serif" font-size="14.00" fill="white">[Validate]</text>
</g>
<!-- 140017580408528&#45;&gt;140017582095248 -->
<g id="edge11" class="edge">
<title>140017580408528&#45;&gt;140017582095248</title>
<path fill="none" stroke="white" d="M1113.34,-1028.59C1094.37,-1034.48 1072.07,-1042.42 1053,-1052 1037.56,-1059.76 1021.63,-1070.35 1008.52,-1079.87"/>
<polygon fill="white" stroke="white" points="1006.3,-1077.16 1000.35,-1085.93 1010.47,-1082.78 1006.3,-1077.16"/>
<g id="a_edge11&#45;label"><a xlink:title="Output Expressions: &#10; (1) p_partkey&#10; (2) p_brand&#10; (3) p_type&#10; (4) p_size&#10;&#10;Unique Column Combinations: &#10; &lt;none&gt;&#10;&#10;Functional Dependencies (trivial): &#10; &lt;none&gt;&#10;&#10;Functional Dependencies (non&#45;trivial): &#10; (1) {p_partkey} =&gt; {p_brand, p_type, p_size}&#10;">
<text text-anchor="middle" x="1170" y="-1055.8" font-family="Times,serif" font-size="14.00" fill="white"> 191,957.2 row(s) | 100.0% estd.</text>
</a>
</g>
</g>
<!-- 140017582094672 -->
<g id="node29" class="node">
<title>140017582094672</title>
<polygon fill="none" stroke="white" points="1505,-1122 1163,-1122 1163,-1086 1505,-1086 1505,-1122"/>
<text text-anchor="middle" x="1334" y="-1100.3" font-family="Times,serif" font-size="14.00" fill="white">[Predicate] p_type &gt;= &#39;PROMO BURNISHEE&#39;</text>
</g>
<!-- 140017580408528&#45;&gt;140017582094672 -->
<g id="edge12" class="edge">
<title>140017580408528&#45;&gt;140017582094672</title>
<path fill="none" stroke="white" d="M1198.5,-1022.15C1225.38,-1026.86 1260,-1035.68 1287,-1052 1298,-1058.65 1308,-1068.62 1315.92,-1077.98"/>
<polygon fill="white" stroke="white" points="1313.33,-1080.35 1322.31,-1085.96 1318.79,-1075.97 1313.33,-1080.35"/>
<g id="a_edge12&#45;label"><a xlink:title="Output Expressions: &#10; (1) p_partkey&#10; (2) p_brand&#10; (3) p_type&#10; (4) p_size&#10;&#10;Unique Column Combinations: &#10; &lt;none&gt;&#10;&#10;Functional Dependencies (trivial): &#10; &lt;none&gt;&#10;&#10;Functional Dependencies (non&#45;trivial): &#10; (1) {p_partkey} =&gt; {p_brand, p_type, p_size}&#10;">
<text text-anchor="middle" x="1421" y="-1055.8" font-family="Times,serif" font-size="14.00" fill="white"> 191,957.2 row(s) | 100.0% estd.</text>
</a>
</g>
</g>
<!-- 140017582088528 -->
<g id="node12" class="node">
<title>140017582088528</title>
<polygon fill="none" stroke="white" points="1289,-947 1023,-947 1023,-911 1289,-911 1289,-947"/>
<text text-anchor="middle" x="1156" y="-925.3" font-family="Times,serif" font-size="14.00" fill="white">[Predicate] p_brand != &#39;Brand#33&#39;</text>
</g>
<!-- 140017582088528&#45;&gt;140017580408528 -->
<g id="edge13" class="edge">
<title>140017582088528&#45;&gt;140017580408528</title>
<path fill="none" stroke="white" d="M1156,-947.2C1156,-958.84 1156,-974.45 1156,-987.76"/>
<polygon fill="white" stroke="white" points="1152.5,-987.82 1156,-997.82 1159.5,-987.82 1152.5,-987.82"/>
<g id="a_edge13&#45;label"><a xlink:title="Output Expressions: &#10; (1) p_partkey&#10; (2) p_brand&#10; (3) p_type&#10; (4) p_size&#10;&#10;Unique Column Combinations: &#10; &lt;none&gt;&#10;&#10;Functional Dependencies (trivial): &#10; &lt;none&gt;&#10;&#10;Functional Dependencies (non&#45;trivial): &#10; (1) {p_partkey} =&gt; {p_brand, p_type, p_size}&#10;">
<text text-anchor="middle" x="1268.5" y="-968.8" font-family="Times,serif" font-size="14.00" fill="white"> 191,957.2 row(s) | 12.0% estd.</text>
</a>
</g>
</g>
<!-- 140017077623824 -->
<g id="node13" class="node">
<title>140017077623824</title>
<polygon fill="none" stroke="white" points="1245.5,-860 1066.5,-860 1066.5,-824 1245.5,-824 1245.5,-860"/>
<text text-anchor="middle" x="1156" y="-838.3" font-family="Times,serif" font-size="14.00" fill="white">[UnionNode] Mode: All</text>
</g>
<!-- 140017077623824&#45;&gt;140017582088528 -->
<g id="edge14" class="edge">
<title>140017077623824&#45;&gt;140017582088528</title>
<path fill="none" stroke="white" d="M1156,-860.2C1156,-871.84 1156,-887.45 1156,-900.76"/>
<polygon fill="white" stroke="white" points="1152.5,-900.82 1156,-910.82 1159.5,-900.82 1152.5,-900.82"/>
<g id="a_edge14&#45;label"><a xlink:title="Output Expressions: &#10; (1) p_partkey&#10; (2) p_brand&#10; (3) p_type&#10; (4) p_size&#10;&#10;Unique Column Combinations: &#10; &lt;none&gt;&#10;&#10;Functional Dependencies (trivial): &#10; &lt;none&gt;&#10;&#10;Functional Dependencies (non&#45;trivial): &#10; (1) {p_partkey} =&gt; {p_brand, p_type, p_size}&#10;">
<text text-anchor="middle" x="1270.5" y="-881.8" font-family="Times,serif" font-size="14.00" fill="white"> 1,597,120.0 row(s) | 0.0% estd.</text>
</a>
</g>
</g>
<!-- 140017077623632 -->
<g id="node14" class="node">
<title>140017077623632</title>
<polygon fill="none" stroke="white" points="1083.5,-773 904.5,-773 904.5,-737 1083.5,-737 1083.5,-773"/>
<text text-anchor="middle" x="994" y="-751.3" font-family="Times,serif" font-size="14.00" fill="white">[UnionNode] Mode: All</text>
</g>
<!-- 140017077623632&#45;&gt;140017077623824 -->
<g id="edge15" class="edge">
<title>140017077623632&#45;&gt;140017077623824</title>
<path fill="none" stroke="white" d="M1026.78,-773.2C1052.12,-786.49 1087.35,-804.98 1114.62,-819.29"/>
<polygon fill="white" stroke="white" points="1114.69,-819.32 1113.06,-822.42 1123.54,-823.97 1114.69,-819.32"/>
<g id="a_edge15&#45;label"><a xlink:title="Output Expressions: &#10; (1) p_partkey&#10; (2) p_brand&#10; (3) p_type&#10; (4) p_size&#10;&#10;Unique Column Combinations: &#10; &lt;none&gt;&#10;&#10;Functional Dependencies (trivial): &#10; &lt;none&gt;&#10;&#10;Functional Dependencies (non&#45;trivial): &#10; (1) {p_partkey} =&gt; {p_brand, p_type, p_size}&#10;">
<text text-anchor="middle" x="1198.5" y="-794.8" font-family="Times,serif" font-size="14.00" fill="white"> 1,397,963.0 row(s) | 0.0% estd.</text>
</a>
</g>
</g>
<!-- 140017077623440 -->
<g id="node15" class="node">
<title>140017077623440</title>
<polygon fill="none" stroke="white" points="1083.5,-665 904.5,-665 904.5,-629 1083.5,-629 1083.5,-665"/>
<text text-anchor="middle" x="994" y="-643.3" font-family="Times,serif" font-size="14.00" fill="white">[UnionNode] Mode: All</text>
</g>
<!-- 140017077623440&#45;&gt;140017077623632 -->
<g id="edge16" class="edge">
<title>140017077623440&#45;&gt;140017077623632</title>
<path fill="none" stroke="white" d="M994,-665.03C994,-681.62 994,-707.12 994,-726.57"/>
<polygon fill="white" stroke="white" points="994,-726.66 990.5,-726.66 994,-736.66 994,-726.66"/>
<g id="a_edge16&#45;label"><a xlink:title="Output Expressions: &#10; (1) p_partkey&#10; (2) p_brand&#10; (3) p_type&#10; (4) p_size&#10;&#10;Unique Column Combinations: &#10; &lt;none&gt;&#10;&#10;Functional Dependencies (trivial): &#10; &lt;none&gt;&#10;&#10;Functional Dependencies (non&#45;trivial): &#10; (1) {p_partkey} =&gt; {p_brand, p_type, p_size}&#10;">
<text text-anchor="middle" x="1108.5" y="-697.3" font-family="Times,serif" font-size="14.00" fill="white"> 1,198,983.0 row(s) | 0.0% estd.</text>
</a>
</g>
</g>
<!-- 140017077623248 -->
<g id="node16" class="node">
<title>140017077623248</title>
<polygon fill="none" stroke="white" points="1239.5,-557 1060.5,-557 1060.5,-521 1239.5,-521 1239.5,-557"/>
<text text-anchor="middle" x="1150" y="-535.3" font-family="Times,serif" font-size="14.00" fill="white">[UnionNode] Mode: All</text>
</g>
<!-- 140017077623248&#45;&gt;140017077623440 -->
<g id="edge17" class="edge">
<title>140017077623248&#45;&gt;140017077623440</title>
<path fill="none" stroke="white" d="M1124.94,-557.03C1098.63,-574.9 1057.12,-603.11 1027.9,-622.96"/>
<polygon fill="white" stroke="white" points="1027.53,-623.22 1025.56,-620.32 1019.26,-628.84 1027.53,-623.22"/>
<g id="a_edge17&#45;label"><a xlink:title="Output Expressions: &#10; (1) p_partkey&#10; (2) p_brand&#10; (3) p_type&#10; (4) p_size&#10;&#10;Unique Column Combinations: &#10; &lt;none&gt;&#10;&#10;Functional Dependencies (trivial): &#10; &lt;none&gt;&#10;&#10;Functional Dependencies (non&#45;trivial): &#10; (1) {p_partkey} =&gt; {p_brand, p_type, p_size}&#10;">
<text text-anchor="middle" x="1203" y="-589.3" font-family="Times,serif" font-size="14.00" fill="white"> 999,010.0 row(s) | 0.0% estd.</text>
</a>
</g>
</g>
<!-- 140017077623056 -->
<g id="node17" class="node">
<title>140017077623056</title>
<polygon fill="none" stroke="white" points="1239.5,-449 1060.5,-449 1060.5,-413 1239.5,-413 1239.5,-449"/>
<text text-anchor="middle" x="1150" y="-427.3" font-family="Times,serif" font-size="14.00" fill="white">[UnionNode] Mode: All</text>
</g>
<!-- 140017077623056&#45;&gt;140017077623248 -->
<g id="edge18" class="edge">
<title>140017077623056&#45;&gt;140017077623248</title>
<path fill="none" stroke="white" d="M1150,-449.03C1150,-465.62 1150,-491.12 1150,-510.57"/>
<polygon fill="white" stroke="white" points="1150,-510.66 1146.5,-510.66 1150,-520.66 1150,-510.66"/>
<g id="a_edge18&#45;label"><a xlink:title="Output Expressions: &#10; (1) p_partkey&#10; (2) p_brand&#10; (3) p_type&#10; (4) p_size&#10;&#10;Unique Column Combinations: &#10; &lt;none&gt;&#10;&#10;Functional Dependencies (trivial): &#10; &lt;none&gt;&#10;&#10;Functional Dependencies (non&#45;trivial): &#10; (1) {p_partkey} =&gt; {p_brand, p_type, p_size}&#10;">
<text text-anchor="middle" x="1258" y="-481.3" font-family="Times,serif" font-size="14.00" fill="white"> 799,087.0 row(s) | 0.0% estd.</text>
</a>
</g>
</g>
<!-- 140017077621136 -->
<g id="node18" class="node">
<title>140017077621136</title>
<polygon fill="none" stroke="white" points="1136.5,-341 957.5,-341 957.5,-305 1136.5,-305 1136.5,-341"/>
<text text-anchor="middle" x="1047" y="-319.3" font-family="Times,serif" font-size="14.00" fill="white">[UnionNode] Mode: All</text>
</g>
<!-- 140017077621136&#45;&gt;140017077623056 -->
<g id="edge19" class="edge">
<title>140017077621136&#45;&gt;140017077623056</title>
<path fill="none" stroke="white" d="M1043.65,-341.03C1041.6,-356.67 1041.25,-379.69 1053,-395 1056.63,-399.73 1060.96,-403.82 1065.74,-407.37"/>
<polygon fill="white" stroke="white" points="1065.78,-407.39 1063.88,-410.33 1074.18,-412.82 1065.78,-407.39"/>
<g id="a_edge19&#45;label"><a xlink:title="Output Expressions: &#10; (1) p_partkey&#10; (2) p_brand&#10; (3) p_type&#10; (4) p_size&#10;&#10;Unique Column Combinations: &#10; &lt;none&gt;&#10;&#10;Functional Dependencies (trivial): &#10; &lt;none&gt;&#10;&#10;Functional Dependencies (non&#45;trivial): &#10; (1) {p_partkey} =&gt; {p_brand, p_type, p_size}&#10;">
<text text-anchor="middle" x="1161" y="-373.3" font-family="Times,serif" font-size="14.00" fill="white"> 599,605.0 row(s) | 0.0% estd.</text>
</a>
</g>
</g>
<!-- 140017077621328 -->
<g id="node19" class="node">
<title>140017077621328</title>
<polygon fill="none" stroke="white" points="888.5,-233 709.5,-233 709.5,-197 888.5,-197 888.5,-233"/>
<text text-anchor="middle" x="799" y="-211.3" font-family="Times,serif" font-size="14.00" fill="white">[UnionNode] Mode: All</text>
</g>
<!-- 140017077621328&#45;&gt;140017077621136 -->
<g id="edge20" class="edge">
<title>140017077621328&#45;&gt;140017077621136</title>
<path fill="none" stroke="white" d="M798.34,-233C798.71,-249.32 802.02,-273.42 817,-287 836.25,-304.46 894.28,-313.21 947.23,-317.6"/>
<polygon fill="white" stroke="white" points="947.42,-317.61 947.15,-321.1 957.39,-318.39 947.42,-317.61"/>
<g id="a_edge20&#45;label"><a xlink:title="Output Expressions: &#10; (1) p_partkey&#10; (2) p_brand&#10; (3) p_type&#10; (4) p_size&#10;&#10;Unique Column Combinations: &#10; &lt;none&gt;&#10;&#10;Functional Dependencies (trivial): &#10; &lt;none&gt;&#10;&#10;Functional Dependencies (non&#45;trivial): &#10; (1) {p_partkey} =&gt; {p_brand, p_type, p_size}&#10;">
<text text-anchor="middle" x="925" y="-265.3" font-family="Times,serif" font-size="14.00" fill="white"> 399,802.0 row(s) | 0.0% estd.</text>
</a>
</g>
</g>
<!-- 140017582091984 -->
<g id="node20" class="node">
<title>140017582091984</title>
<polygon fill="none" stroke="white" points="645,-125 463,-125 463,-89 645,-89 645,-125"/>
<text text-anchor="middle" x="554" y="-103.3" font-family="Times,serif" font-size="14.00" fill="white">[Predicate] p_size = 28</text>
</g>
<!-- 140017582091984&#45;&gt;140017077621328 -->
<g id="edge21" class="edge">
<title>140017582091984&#45;&gt;140017077621328</title>
<path fill="none" stroke="white" d="M544.5,-125.07C537.08,-140.97 529.99,-164.36 543,-179 565.59,-204.43 661.32,-192.26 695,-197 696.47,-197.21 697.96,-197.42 699.45,-197.63"/>
<polygon fill="white" stroke="white" points="699.51,-197.64 699,-201.11 709.41,-199.1 699.51,-197.64"/>
<g id="a_edge21&#45;label"><a xlink:title="Output Expressions: &#10; (1) p_partkey&#10; (2) p_brand&#10; (3) p_type&#10; (4) p_size&#10;&#10;Unique Column Combinations: &#10; (1) {p_partkey}&#10;&#10;Functional Dependencies (trivial): &#10; (1) {p_partkey} =&gt; {p_brand, p_type, p_size}&#10;&#10;Functional Dependencies (non&#45;trivial): &#10; &lt;none&gt;">
<text text-anchor="middle" x="651" y="-157.3" font-family="Times,serif" font-size="14.00" fill="white"> 199,941.0 row(s) | 2.0% estd.</text>
</a>
</g>
</g>
<!-- 140017656293008 -->
<g id="node21" class="node">
<title>140017656293008</title>
<polygon fill="none" stroke="white" points="1076.5,-38 695.5,-38 695.5,0 1076.5,0 1076.5,-38"/>
<text text-anchor="middle" x="886" y="-22.8" font-family="Times,serif" font-size="14.00" fill="white">[StoredTable] Name: &#39;part&#39; pruned: 0/153 chunk(s),</text>
<text text-anchor="middle" x="886" y="-7.8" font-family="Times,serif" font-size="14.00" fill="white">5/9 column(s)</text>
</g>
<!-- 140017656293008&#45;&gt;140017582091984 -->
<g id="edge22" class="edge">
<title>140017656293008&#45;&gt;140017582091984</title>
<path fill="none" stroke="white" stroke-width="4.58" d="M695.5,-25.63C599.04,-30.51 499.09,-39.5 484,-56 474.41,-66.49 481.62,-76.09 494.47,-84.01"/>
<polygon fill="white" stroke="white" stroke-width="4.58" points="492.9,-87.72 503.6,-88.97 496.72,-80.67 492.9,-87.72"/>
<g id="a_edge22&#45;label"><a xlink:title="Output Expressions: &#10; (1) p_partkey&#10; (2) p_brand&#10; (3) p_type&#10; (4) p_size&#10;&#10;Unique Column Combinations: &#10; (1) {p_partkey}&#10;&#10;Functional Dependencies (trivial): &#10; (1) {p_partkey} =&gt; {p_brand, p_type, p_size}&#10;&#10;Functional Dependencies (non&#45;trivial): &#10; &lt;none&gt;">
<text text-anchor="middle" x="612" y="-59.8" font-family="Times,serif" font-size="14.00" fill="white"> 10,000,000.0 row(s) | 100.0% estd.</text>
</a>
</g>
</g>
<!-- 140017077622480 -->
<g id="node22" class="node">
<title>140017077622480</title>
<polygon fill="none" stroke="white" points="855,-125 673,-125 673,-89 855,-89 855,-125"/>
<text text-anchor="middle" x="764" y="-103.3" font-family="Times,serif" font-size="14.00" fill="white">[Predicate] p_size = 18</text>
</g>
<!-- 140017656293008&#45;&gt;140017077622480 -->
<g id="edge23" class="edge">
<title>140017656293008&#45;&gt;140017077622480</title>
<path fill="none" stroke="white" stroke-width="4.58" d="M783.39,-38.03C766.93,-42.93 753.49,-48.9 748,-56 742.71,-62.84 743.54,-71.48 746.68,-79.64"/>
<polygon fill="white" stroke="white" stroke-width="4.58" points="743.2,-81.65 751.2,-88.87 750.4,-78.13 743.2,-81.65"/>
<g id="a_edge23&#45;label"><a xlink:title="Output Expressions: &#10; (1) p_partkey&#10; (2) p_brand&#10; (3) p_type&#10; (4) p_size&#10;&#10;Unique Column Combinations: &#10; (1) {p_partkey}&#10;&#10;Functional Dependencies (trivial): &#10; (1) {p_partkey} =&gt; {p_brand, p_type, p_size}&#10;&#10;Functional Dependencies (non&#45;trivial): &#10; &lt;none&gt;">
<text text-anchor="middle" x="876" y="-59.8" font-family="Times,serif" font-size="14.00" fill="white"> 10,000,000.0 row(s) | 100.0% estd.</text>
</a>
</g>
</g>
<!-- 140017077622672 -->
<g id="node23" class="node">
<title>140017077622672</title>
<polygon fill="none" stroke="white" points="1168.5,-179 995.5,-179 995.5,-143 1168.5,-143 1168.5,-179"/>
<text text-anchor="middle" x="1082" y="-157.3" font-family="Times,serif" font-size="14.00" fill="white">[Predicate] p_size = 5</text>
</g>
<!-- 140017656293008&#45;&gt;140017077622672 -->
<g id="edge24" class="edge">
<title>140017656293008&#45;&gt;140017077622672</title>
<path fill="none" stroke="white" stroke-width="4.58" d="M969.09,-38.02C981.41,-42.72 993.48,-48.62 1004,-56 1032.87,-76.25 1055.56,-110.53 1068.85,-134.16"/>
<polygon fill="white" stroke="white" stroke-width="4.58" points="1065.34,-136.09 1073.64,-142.95 1072.38,-132.26 1065.34,-136.09"/>
<g id="a_edge24&#45;label"><a xlink:title="Output Expressions: &#10; (1) p_partkey&#10; (2) p_brand&#10; (3) p_type&#10; (4) p_size&#10;&#10;Unique Column Combinations: &#10; (1) {p_partkey}&#10;&#10;Functional Dependencies (trivial): &#10; (1) {p_partkey} =&gt; {p_brand, p_type, p_size}&#10;&#10;Functional Dependencies (non&#45;trivial): &#10; &lt;none&gt;">
<text text-anchor="middle" x="1149" y="-59.8" font-family="Times,serif" font-size="14.00" fill="white"> 10,000,000.0 row(s) | 100.0% estd.</text>
</a>
</g>
</g>
<!-- 140017077621904 -->
<g id="node24" class="node">
<title>140017077621904</title>
<polygon fill="none" stroke="white" points="1376,-287 1194,-287 1194,-251 1376,-251 1376,-287"/>
<text text-anchor="middle" x="1285" y="-265.3" font-family="Times,serif" font-size="14.00" fill="white">[Predicate] p_size = 45</text>
</g>
<!-- 140017656293008&#45;&gt;140017077621904 -->
<g id="edge25" class="edge">
<title>140017656293008&#45;&gt;140017077621904</title>
<path fill="none" stroke="white" stroke-width="4.58" d="M1076.7,-26.14C1170.31,-31.15 1266.22,-40.12 1281,-56 1305.23,-82.04 1295.16,-189.58 1288.76,-240.73"/>
<polygon fill="white" stroke="white" stroke-width="4.58" points="1284.78,-240.31 1287.47,-250.74 1292.73,-241.34 1284.78,-240.31"/>
<g id="a_edge25&#45;label"><a xlink:title="Output Expressions: &#10; (1) p_partkey&#10; (2) p_brand&#10; (3) p_type&#10; (4) p_size&#10;&#10;Unique Column Combinations: &#10; (1) {p_partkey}&#10;&#10;Functional Dependencies (trivial): &#10; (1) {p_partkey} =&gt; {p_brand, p_type, p_size}&#10;&#10;Functional Dependencies (non&#45;trivial): &#10; &lt;none&gt;">
<text text-anchor="middle" x="1424" y="-103.3" font-family="Times,serif" font-size="14.00" fill="white"> 10,000,000.0 row(s) | 100.0% estd.</text>
</a>
</g>
</g>
<!-- 140017582092368 -->
<g id="node25" class="node">
<title>140017582092368</title>
<polygon fill="none" stroke="white" points="1571,-395 1389,-395 1389,-359 1571,-359 1571,-395"/>
<text text-anchor="middle" x="1480" y="-373.3" font-family="Times,serif" font-size="14.00" fill="white">[Predicate] p_size = 20</text>
</g>
<!-- 140017656293008&#45;&gt;140017582092368 -->
<g id="edge26" class="edge">
<title>140017656293008&#45;&gt;140017582092368</title>
<path fill="none" stroke="white" stroke-width="4.58" d="M1076.55,-25.65C1280.48,-34.31 1575,-55.56 1575,-106 1575,-106 1575,-106 1575,-270 1575,-305.57 1544.97,-334.65 1518.68,-353.29"/>
<polygon fill="white" stroke="white" stroke-width="4.58" points="1516.34,-350.04 1510.32,-358.97 1520.84,-356.67 1516.34,-350.04"/>
<g id="a_edge26&#45;label"><a xlink:title="Output Expressions: &#10; (1) p_partkey&#10; (2) p_brand&#10; (3) p_type&#10; (4) p_size&#10;&#10;Unique Column Combinations: &#10; (1) {p_partkey}&#10;&#10;Functional Dependencies (trivial): &#10; (1) {p_partkey} =&gt; {p_brand, p_type, p_size}&#10;&#10;Functional Dependencies (non&#45;trivial): &#10; &lt;none&gt;">
<text text-anchor="middle" x="1703" y="-157.3" font-family="Times,serif" font-size="14.00" fill="white"> 10,000,000.0 row(s) | 100.0% estd.</text>
</a>
</g>
</g>
<!-- 140017582092752 -->
<g id="node26" class="node">
<title>140017582092752</title>
<polygon fill="none" stroke="white" points="626,-503 444,-503 444,-467 626,-467 626,-503"/>
<text text-anchor="middle" x="535" y="-481.3" font-family="Times,serif" font-size="14.00" fill="white">[Predicate] p_size = 19</text>
</g>
<!-- 140017656293008&#45;&gt;140017582092752 -->
<g id="edge27" class="edge">
<title>140017656293008&#45;&gt;140017582092752</title>
<path fill="none" stroke="white" stroke-width="4.58" d="M695.27,-22.67C607.33,-26.73 514.11,-35.88 476,-56 450.59,-69.42 435,-77.26 435,-106 435,-106 435,-106 435,-378 435,-414.07 466.02,-442.84 493.5,-461.25"/>
<polygon fill="white" stroke="white" stroke-width="4.58" points="491.67,-464.84 502.26,-466.87 496,-458.1 491.67,-464.84"/>
<g id="a_edge27&#45;label"><a xlink:title="Output Expressions: &#10; (1) p_partkey&#10; (2) p_brand&#10; (3) p_type&#10; (4) p_size&#10;&#10;Unique Column Combinations: &#10; (1) {p_partkey}&#10;&#10;Functional Dependencies (trivial): &#10; (1) {p_partkey} =&gt; {p_brand, p_type, p_size}&#10;&#10;Functional Dependencies (non&#45;trivial): &#10; &lt;none&gt;">
<text text-anchor="middle" x="563" y="-211.3" font-family="Times,serif" font-size="14.00" fill="white"> 10,000,000.0 row(s) | 100.0% estd.</text>
</a>
</g>
</g>
<!-- 140017077622864 -->
<g id="node27" class="node">
<title>140017077622864</title>
<polygon fill="none" stroke="white" points="439.5,-611 266.5,-611 266.5,-575 439.5,-575 439.5,-611"/>
<text text-anchor="middle" x="353" y="-589.3" font-family="Times,serif" font-size="14.00" fill="white">[Predicate] p_size = 2</text>
</g>
<!-- 140017656293008&#45;&gt;140017077622864 -->
<g id="edge28" class="edge">
<title>140017656293008&#45;&gt;140017077622864</title>
<path fill="none" stroke="white" stroke-width="4.58" d="M695.36,-24.47C481.45,-32.09 164,-52.43 164,-106 164,-106 164,-106 164,-486 164,-533.51 210,-559.95 256.62,-574.53"/>
<polygon fill="white" stroke="white" stroke-width="4.58" points="255.52,-578.39 266.24,-577.38 257.79,-570.7 255.52,-578.39"/>
<g id="a_edge28&#45;label"><a xlink:title="Output Expressions: &#10; (1) p_partkey&#10; (2) p_brand&#10; (3) p_type&#10; (4) p_size&#10;&#10;Unique Column Combinations: &#10; (1) {p_partkey}&#10;&#10;Functional Dependencies (trivial): &#10; (1) {p_partkey} =&gt; {p_brand, p_type, p_size}&#10;&#10;Functional Dependencies (non&#45;trivial): &#10; &lt;none&gt;">
<text text-anchor="middle" x="292" y="-265.3" font-family="Times,serif" font-size="14.00" fill="white"> 10,000,000.0 row(s) | 100.0% estd.</text>
</a>
</g>
</g>
<!-- 140017077621520 -->
<g id="node28" class="node">
<title>140017077621520</title>
<polygon fill="none" stroke="white" points="1622,-719 1440,-719 1440,-683 1622,-683 1622,-719"/>
<text text-anchor="middle" x="1531" y="-697.3" font-family="Times,serif" font-size="14.00" fill="white">[Predicate] p_size = 30</text>
</g>
<!-- 140017656293008&#45;&gt;140017077621520 -->
<g id="edge29" class="edge">
<title>140017656293008&#45;&gt;140017077621520</title>
<path fill="none" stroke="white" stroke-width="4.58" d="M1076.53,-27.69C1356.44,-40.28 1846,-67.76 1846,-106 1846,-106 1846,-106 1846,-594 1846,-639.93 1724.18,-669.73 1632.06,-685.7"/>
<polygon fill="white" stroke="white" stroke-width="4.58" points="1631.3,-681.76 1622.11,-687.39 1632.64,-689.66 1631.3,-681.76"/>
<g id="a_edge29&#45;label"><a xlink:title="Output Expressions: &#10; (1) p_partkey&#10; (2) p_brand&#10; (3) p_type&#10; (4) p_size&#10;&#10;Unique Column Combinations: &#10; (1) {p_partkey}&#10;&#10;Functional Dependencies (trivial): &#10; (1) {p_partkey} =&gt; {p_brand, p_type, p_size}&#10;&#10;Functional Dependencies (non&#45;trivial): &#10; &lt;none&gt;">
<text text-anchor="middle" x="1974" y="-319.3" font-family="Times,serif" font-size="14.00" fill="white"> 10,000,000.0 row(s) | 100.0% estd.</text>
</a>
</g>
</g>
<!-- 140017077622480&#45;&gt;140017077621328 -->
<g id="edge30" class="edge">
<title>140017077622480&#45;&gt;140017077621328</title>
<path fill="none" stroke="white" d="M763.01,-125.29C762.78,-140.09 763.95,-161.68 771,-179 772.33,-182.27 774.07,-185.48 776.03,-188.55"/>
<polygon fill="white" stroke="white" points="781.99,-196.76 778.95,-186.61 776.11,-188.66 781.99,-196.76"/>
<g id="a_edge30&#45;label"><a xlink:title="Output Expressions: &#10; (1) p_partkey&#10; (2) p_brand&#10; (3) p_type&#10; (4) p_size&#10;&#10;Unique Column Combinations: &#10; (1) {p_partkey}&#10;&#10;Functional Dependencies (trivial): &#10; (1) {p_partkey} =&gt; {p_brand, p_type, p_size}&#10;&#10;Functional Dependencies (non&#45;trivial): &#10; &lt;none&gt;">
<text text-anchor="middle" x="879" y="-157.3" font-family="Times,serif" font-size="14.00" fill="white"> 199,861.0 row(s) | 2.0% estd.</text>
</a>
</g>
</g>
<!-- 140017077622672&#45;&gt;140017077621136 -->
<g id="edge31" class="edge">
<title>140017077622672&#45;&gt;140017077621136</title>
<path fill="none" stroke="white" d="M1069.76,-179.08C1066.39,-184.57 1063.09,-190.82 1061,-197 1050.05,-229.4 1047.26,-268.95 1046.74,-294.76"/>
<polygon fill="white" stroke="white" points="1046.64,-304.93 1050.24,-294.96 1046.74,-294.93 1046.64,-304.93"/>
<g id="a_edge31&#45;label"><a xlink:title="Output Expressions: &#10; (1) p_partkey&#10; (2) p_brand&#10; (3) p_type&#10; (4) p_size&#10;&#10;Unique Column Combinations: &#10; (1) {p_partkey}&#10;&#10;Functional Dependencies (trivial): &#10; (1) {p_partkey} =&gt; {p_brand, p_type, p_size}&#10;&#10;Functional Dependencies (non&#45;trivial): &#10; &lt;none&gt;">
<text text-anchor="middle" x="1169" y="-211.3" font-family="Times,serif" font-size="14.00" fill="white"> 199,803.0 row(s) | 2.0% estd.</text>
</a>
</g>
</g>
<!-- 140017077621904&#45;&gt;140017077623056 -->
<g id="edge32" class="edge">
<title>140017077621904&#45;&gt;140017077623056</title>
<path fill="none" stroke="white" d="M1288.18,-287.26C1291.99,-313.75 1294.98,-364.53 1269,-395 1263.33,-401.65 1256.46,-407.08 1248.92,-411.5"/>
<polygon fill="white" stroke="white" points="1239.79,-416.23 1250.28,-414.73 1248.66,-411.63 1239.79,-416.23"/>
<g id="a_edge32&#45;label"><a xlink:title="Output Expressions: &#10; (1) p_partkey&#10; (2) p_brand&#10; (3) p_type&#10; (4) p_size&#10;&#10;Unique Column Combinations: &#10; (1) {p_partkey}&#10;&#10;Functional Dependencies (trivial): &#10; (1) {p_partkey} =&gt; {p_brand, p_type, p_size}&#10;&#10;Functional Dependencies (non&#45;trivial): &#10; &lt;none&gt;">
<text text-anchor="middle" x="1398" y="-319.3" font-family="Times,serif" font-size="14.00" fill="white"> 199,482.0 row(s) | 2.0% estd.</text>
</a>
</g>
</g>
<!-- 140017582092368&#45;&gt;140017077623248 -->
<g id="edge33" class="edge">
<title>140017582092368&#45;&gt;140017077623248</title>
<path fill="none" stroke="white" d="M1470.39,-395.11C1453.82,-422.83 1417.1,-477.06 1370,-503 1349.21,-514.45 1297.76,-522.97 1249.84,-528.73"/>
<polygon fill="white" stroke="white" points="1239.69,-529.92 1250.02,-532.24 1249.62,-528.76 1239.69,-529.92"/>
<g id="a_edge33&#45;label"><a xlink:title="Output Expressions: &#10; (1) p_partkey&#10; (2) p_brand&#10; (3) p_type&#10; (4) p_size&#10;&#10;Unique Column Combinations: &#10; (1) {p_partkey}&#10;&#10;Functional Dependencies (trivial): &#10; (1) {p_partkey} =&gt; {p_brand, p_type, p_size}&#10;&#10;Functional Dependencies (non&#45;trivial): &#10; &lt;none&gt;">
<text text-anchor="middle" x="1566" y="-427.3" font-family="Times,serif" font-size="14.00" fill="white"> 199,923.0 row(s) | 2.0% estd.</text>
</a>
</g>
</g>
<!-- 140017582092752&#45;&gt;140017077623440 -->
<g id="edge34" class="edge">
<title>140017582092752&#45;&gt;140017077623440</title>
<path fill="none" stroke="white" d="M584.12,-503.12C669.25,-532.8 843.82,-593.65 935.23,-625.51"/>
<polygon fill="white" stroke="white" points="944.89,-628.88 936.6,-622.28 935.44,-625.59 944.89,-628.88"/>
<g id="a_edge34&#45;label"><a xlink:title="Output Expressions: &#10; (1) p_partkey&#10; (2) p_brand&#10; (3) p_type&#10; (4) p_size&#10;&#10;Unique Column Combinations: &#10; (1) {p_partkey}&#10;&#10;Functional Dependencies (trivial): &#10; (1) {p_partkey} =&gt; {p_brand, p_type, p_size}&#10;&#10;Functional Dependencies (non&#45;trivial): &#10; &lt;none&gt;">
<text text-anchor="middle" x="843" y="-535.3" font-family="Times,serif" font-size="14.00" fill="white"> 199,973.0 row(s) | 2.0% estd.</text>
</a>
</g>
</g>
<!-- 140017077622864&#45;&gt;140017077623632 -->
<g id="edge35" class="edge">
<title>140017077622864&#45;&gt;140017077623632</title>
<path fill="none" stroke="white" d="M421.29,-611.05C541.27,-641 789.15,-702.87 915.8,-734.48"/>
<polygon fill="white" stroke="white" points="925.82,-736.98 916.96,-731.16 916.12,-734.56 925.82,-736.98"/>
<g id="a_edge35&#45;label"><a xlink:title="Output Expressions: &#10; (1) p_partkey&#10; (2) p_brand&#10; (3) p_type&#10; (4) p_size&#10;&#10;Unique Column Combinations: &#10; (1) {p_partkey}&#10;&#10;Functional Dependencies (trivial): &#10; (1) {p_partkey} =&gt; {p_brand, p_type, p_size}&#10;&#10;Functional Dependencies (non&#45;trivial): &#10; &lt;none&gt;">
<text text-anchor="middle" x="740" y="-643.3" font-family="Times,serif" font-size="14.00" fill="white"> 198,980.0 row(s) | 2.0% estd.</text>
</a>
</g>
</g>
<!-- 140017077621520&#45;&gt;140017077623824 -->
<g id="edge36" class="edge">
<title>140017077621520&#45;&gt;140017077623824</title>
<path fill="none" stroke="white" d="M1501.49,-719.15C1461.09,-741.98 1385.7,-782.22 1317,-806 1297.49,-812.75 1276.18,-818.48 1255.63,-823.23"/>
<polygon fill="white" stroke="white" points="1245.62,-825.48 1256.15,-826.7 1255.38,-823.28 1245.62,-825.48"/>
<g id="a_edge36&#45;label"><a xlink:title="Output Expressions: &#10; (1) p_partkey&#10; (2) p_brand&#10; (3) p_type&#10; (4) p_size&#10;&#10;Unique Column Combinations: &#10; (1) {p_partkey}&#10;&#10;Functional Dependencies (trivial): &#10; (1) {p_partkey} =&gt; {p_brand, p_type, p_size}&#10;&#10;Functional Dependencies (non&#45;trivial): &#10; &lt;none&gt;">
<text text-anchor="middle" x="1576" y="-751.3" font-family="Times,serif" font-size="14.00" fill="white"> 199,157.0 row(s) | 2.0% estd.</text>
</a>
</g>
</g>
<!-- 140017582094672&#45;&gt;140017582095440 -->
<g id="edge37" class="edge">
<title>140017582094672&#45;&gt;140017582095440</title>
<path fill="none" stroke="white" d="M1294.47,-1122.03C1267.66,-1133.03 1231.2,-1146.93 1198,-1156 1164.52,-1165.15 1127.28,-1172.52 1093.89,-1178.14"/>
<polygon fill="white" stroke="white" points="1083.66,-1179.84 1094.09,-1181.66 1093.52,-1178.21 1083.66,-1179.84"/>
<g id="a_edge37&#45;label"><a xlink:title="Output Expressions: &#10; (1) p_partkey&#10; (2) p_brand&#10; (3) p_type&#10; (4) p_size&#10;&#10;Unique Column Combinations: &#10; &lt;none&gt;&#10;&#10;Functional Dependencies (trivial): &#10; &lt;none&gt;&#10;&#10;Functional Dependencies (non&#45;trivial): &#10; (1) {p_partkey} =&gt; {p_brand, p_type, p_size}&#10;">
<text text-anchor="middle" x="1342" y="-1144.8" font-family="Times,serif" font-size="14.00" fill="white"> 9,615.1 row(s) | 5.0% estd.</text>
</a>
</g>
</g>
<!-- 140017580710736 -->
<g id="node30" class="node">
<title>140017580710736</title>
<polygon fill="none" stroke="white" points="712,-1388 534,-1388 534,-1352 712,-1352 712,-1388"/>
<text text-anchor="middle" x="623" y="-1366.3" font-family="Times,serif" font-size="14.00" fill="white">[Projection] s_suppkey</text>
</g>
<!-- 140017580710736&#45;&gt;140017582093712 -->
<g id="edge38" class="edge">
<title>140017580710736&#45;&gt;140017582093712</title>
<path fill="none" stroke="white" d="M623.61,-1388.4C624.01,-1399.94 624.55,-1415.35 625.01,-1428.64"/>
<polygon fill="white" stroke="white" points="625.36,-1438.73 628.51,-1428.62 625.01,-1428.74 625.36,-1438.73"/>
<g id="a_edge38&#45;label"><a xlink:title="Output Expressions: &#10; (1) s_suppkey&#10;&#10;Unique Column Combinations: &#10; (1) {s_suppkey}&#10;&#10;Functional Dependencies (trivial): &#10; &lt;none&gt;&#10;&#10;Functional Dependencies (non&#45;trivial): &#10; &lt;none&gt;">
<text text-anchor="middle" x="736.5" y="-1409.8" font-family="Times,serif" font-size="14.00" fill="white"> 50,000.0 row(s) | 100.0% estd.</text>
</a>
</g>
</g>
<!-- 140017580711216 -->
<g id="node31" class="node">
<title>140017580711216</title>
<polygon fill="none" stroke="white" points="661.5,-1300 576.5,-1300 576.5,-1264 661.5,-1264 661.5,-1300"/>
<text text-anchor="middle" x="619" y="-1278.3" font-family="Times,serif" font-size="14.00" fill="white">[Validate]</text>
</g>
<!-- 140017580711216&#45;&gt;140017580710736 -->
<g id="edge39" class="edge">
<title>140017580711216&#45;&gt;140017580710736</title>
<path fill="none" stroke="white" d="M619.81,-1300.4C620.36,-1312.25 621.1,-1328.18 621.73,-1341.71"/>
<polygon fill="white" stroke="white" points="618.24,-1342.09 622.21,-1351.92 625.24,-1341.76 618.24,-1342.09"/>
<g id="a_edge39&#45;label"><a xlink:title="Output Expressions: &#10; (1) s_suppkey&#10; (2) s_comment&#10;&#10;Unique Column Combinations: &#10; (1) {s_suppkey}&#10;&#10;Functional Dependencies (trivial): &#10; (1) {s_suppkey} =&gt; {s_comment}&#10;&#10;Functional Dependencies (non&#45;trivial): &#10; &lt;none&gt;">
<text text-anchor="middle" x="733.5" y="-1322.8" font-family="Times,serif" font-size="14.00" fill="white"> 50,000.0 row(s) | 100.0% estd.</text>
</a>
</g>
</g>
<!-- 140017582094288 -->
<g id="node32" class="node">
<title>140017582094288</title>
<polygon fill="none" stroke="white" points="787.5,-1211 364.5,-1211 364.5,-1175 787.5,-1175 787.5,-1211"/>
<text text-anchor="middle" x="576" y="-1189.3" font-family="Times,serif" font-size="14.00" fill="white">[Predicate] s_comment LIKE &#39;%Customer%Complaints%&#39;</text>
</g>
<!-- 140017582094288&#45;&gt;140017580711216 -->
<g id="edge40" class="edge">
<title>140017582094288&#45;&gt;140017580711216</title>
<path fill="none" stroke="white" d="M565.52,-1211.33C560.75,-1221.59 557.31,-1234.57 563,-1245 565.53,-1249.64 568.94,-1253.76 572.84,-1257.42"/>
<polygon fill="white" stroke="white" points="570.85,-1260.31 580.83,-1263.87 575.25,-1254.86 570.85,-1260.31"/>
<g id="a_edge40&#45;label"><a xlink:title="Output Expressions: &#10; (1) s_suppkey&#10; (2) s_comment&#10;&#10;Unique Column Combinations: &#10; (1) {s_suppkey}&#10;&#10;Functional Dependencies (trivial): &#10; (1) {s_suppkey} =&gt; {s_comment}&#10;&#10;Functional Dependencies (non&#45;trivial): &#10; &lt;none&gt;">
<text text-anchor="middle" x="671" y="-1233.8" font-family="Times,serif" font-size="14.00" fill="white"> 50,000.0 row(s) | 10.0% estd.</text>
</a>
</g>
</g>
<!-- 140017656294928 -->
<g id="node33" class="node">
<title>140017656294928</title>
<polygon fill="none" stroke="white" points="737,-1123 415,-1123 415,-1085 737,-1085 737,-1123"/>
<text text-anchor="middle" x="576" y="-1107.8" font-family="Times,serif" font-size="14.00" fill="white">[StoredTable] Name: &#39;supplier&#39; pruned: 0/8</text>
<text text-anchor="middle" x="576" y="-1092.8" font-family="Times,serif" font-size="14.00" fill="white">chunk(s), 5/7 column(s)</text>
</g>
<!-- 140017656294928&#45;&gt;140017582094288 -->
<g id="edge41" class="edge">
<title>140017656294928&#45;&gt;140017582094288</title>
<path fill="none" stroke="white" d="M576,-1123.03C576,-1135.04 576,-1151.07 576,-1164.64"/>
<polygon fill="white" stroke="white" points="572.5,-1164.88 576,-1174.88 579.5,-1164.88 572.5,-1164.88"/>
<g id="a_edge41&#45;label"><a xlink:title="Output Expressions: &#10; (1) s_suppkey&#10; (2) s_comment&#10;&#10;Unique Column Combinations: &#10; (1) {s_suppkey}&#10;&#10;Functional Dependencies (trivial): &#10; (1) {s_suppkey} =&gt; {s_comment}&#10;&#10;Functional Dependencies (non&#45;trivial): &#10; &lt;none&gt;">
<text text-anchor="middle" x="693" y="-1144.8" font-family="Times,serif" font-size="14.00" fill="white"> 500,000.0 row(s) | 100.0% estd.</text>
</a>
</g>
</g>
</g>
</svg>
