<?xml version="1.0" encoding="UTF-8" standalone="no"?>
<!DOCTYPE svg PUBLIC "-//W3C//DTD SVG 1.1//EN"
 "http://www.w3.org/Graphics/SVG/1.1/DTD/svg11.dtd">
<!-- Generated by graphviz version 2.43.0 (0)
 -->
<!-- Title: G Pages: 1 -->
<svg width="1383pt" height="2615pt"
 viewBox="0.00 0.00 1383.00 2615.00" xmlns="http://www.w3.org/2000/svg" xmlns:xlink="http://www.w3.org/1999/xlink">
<g id="graph0" class="graph" transform="scale(1 1) rotate(0) translate(4 2611)">
<title>G</title>
<polygon fill="black" stroke="transparent" points="-4,4 -4,-2611 1379,-2611 1379,4 -4,4"/>
<text text-anchor="middle" x="319.5" y="-2591.8" font-family="Times,serif" font-size="14.00" fill="white">For tooltips with advanced information, hover your mouse over vertices or edge labels.</text>
<!-- 140017274042704 -->
<g id="node1" class="node">
<title>140017274042704</title>
<g id="a_node1"><a xlink:title="Output: 5 rows in 1 chunk filtered: 0, 2 µs 171 ns.">
<polygon fill="none" stroke="white" points="808,-2552 659,-2552 659,-2483 808,-2483 808,-2552"/>
<text text-anchor="middle" x="733.5" y="-2536.8" font-family="Times,serif" font-size="14.00" fill="white">Alias</text>
<text text-anchor="middle" x="733.5" y="-2521.8" font-family="Times,serif" font-size="14.00" fill="white">[n_name, revenue]</text>
<text text-anchor="middle" x="733.5" y="-2490.8" font-family="Times,serif" font-size="14.00" fill="white">2 µs 171 ns</text>
</a>
</g>
</g>
<!-- 140017274042384 -->
<g id="node2" class="node">
<title>140017274042384</title>
<g id="a_node2"><a xlink:title="Output: 5 rows in 1 chunk filtered: 0, 9 µs 324 ns.&#10;Operator step runtimes:&#10; MaterializeSortColumns 1 µs 507 ns&#10; Sort 969 ns&#10; TemporaryResultWriting 189 ns&#10; WriteOutput 4 µs 853 ns.">
<polygon fill="none" stroke="white" points="783,-2432 684,-2432 684,-2378 783,-2378 783,-2432"/>
<text text-anchor="middle" x="733.5" y="-2416.8" font-family="Times,serif" font-size="14.00" fill="white">Sort</text>
<text text-anchor="middle" x="733.5" y="-2385.8" font-family="Times,serif" font-size="14.00" fill="white">9 µs 324 ns</text>
</a>
</g>
</g>
<!-- 140017274042384&#45;&gt;140017274042704 -->
<g id="edge1" class="edge">
<title>140017274042384&#45;&gt;140017274042704</title>
<path fill="none" stroke="white" d="M733.5,-2432.19C733.5,-2444.29 733.5,-2459 733.5,-2472.72"/>
<polygon fill="white" stroke="white" points="730,-2472.95 733.5,-2482.95 737,-2472.96 730,-2472.95"/>
<text text-anchor="middle" x="802.5" y="-2453.8" font-family="Times,serif" font-size="14.00" fill="white">5 row(s)/1 chunk(s)</text>
</g>
<!-- 140017274754064 -->
<g id="node3" class="node">
<title>140017274754064</title>
<g id="a_node3"><a xlink:title="Output: 5 rows in 1 chunk filtered: 0, 14 ms 840 µs.&#10;Operator step runtimes:&#10; GroupByKeyPartitioning 11 ms 126 µs&#10; Aggregating 3 ms 661 µs&#10; GroupByColumnsWriting 4 µs 783 ns&#10; AggregateColumnsWriting 6 µs 428 ns&#10; OutputWriting 3 µs 579 ns.">
<polygon fill="none" stroke="white" points="882,-2327 585,-2327 585,-2243 882,-2243 882,-2327"/>
<text text-anchor="middle" x="733.5" y="-2311.8" font-family="Times,serif" font-size="14.00" fill="white">AggregateHash</text>
<text text-anchor="middle" x="733.5" y="-2296.8" font-family="Times,serif" font-size="14.00" fill="white">GroupBy {n_name}</text>
<text text-anchor="middle" x="733.5" y="-2281.8" font-family="Times,serif" font-size="14.00" fill="white">SUM(l_extendedprice * (1 &#45; l_discount))</text>
<text text-anchor="middle" x="733.5" y="-2250.8" font-family="Times,serif" font-size="14.00" fill="white">14 ms 840 µs</text>
</a>
</g>
</g>
<!-- 140017274754064&#45;&gt;140017274042384 -->
<g id="edge2" class="edge">
<title>140017274754064&#45;&gt;140017274042384</title>
<path fill="none" stroke="white" d="M733.5,-2327.27C733.5,-2340.36 733.5,-2354.72 733.5,-2367.45"/>
<polygon fill="white" stroke="white" points="730,-2367.69 733.5,-2377.69 737,-2367.69 730,-2367.69"/>
<text text-anchor="middle" x="802.5" y="-2348.8" font-family="Times,serif" font-size="14.00" fill="white">5 row(s)/1 chunk(s)</text>
</g>
<!-- 140017274042064 -->
<g id="node4" class="node">
<title>140017274042064</title>
<g id="a_node4"><a xlink:title="Output: 364636 rows in 256 chunks filtered: 0, 62 ms 100 µs.&#10;Operator step runtimes:&#10; ForwardUnmodifiedColumns 945 µs 735 ns&#10; EvaluateNewColumns 60 ms 764 µs&#10; BuildOutput 339 µs 404 ns.">
<polygon fill="none" stroke="white" stroke-width="1.61" points="790,-2192 677,-2192 677,-2138 790,-2138 790,-2192"/>
<text text-anchor="middle" x="733.5" y="-2176.8" font-family="Times,serif" font-size="14.00" fill="white">Projection</text>
<text text-anchor="middle" x="733.5" y="-2145.8" font-family="Times,serif" font-size="14.00" fill="white">62 ms 100 µs</text>
</a>
</g>
</g>
<!-- 140017274042064&#45;&gt;140017274754064 -->
<g id="edge3" class="edge">
<title>140017274042064&#45;&gt;140017274754064</title>
<path fill="none" stroke="white" d="M733.5,-2192.19C733.5,-2204.1 733.5,-2218.63 733.5,-2232.58"/>
<polygon fill="white" stroke="white" points="730,-2232.59 733.5,-2242.59 737,-2232.59 730,-2232.59"/>
<text text-anchor="middle" x="836" y="-2213.8" font-family="Times,serif" font-size="14.00" fill="white">364,636 row(s)/256 chunk(s)</text>
</g>
<!-- 140017274041744 -->
<g id="node5" class="node">
<title>140017274041744</title>
<g id="a_node5"><a xlink:title="Output: 364636 rows in 256 chunks filtered: 0, 13 ms 421 µs.&#10;Chunks: 0 skipped with no results, &#10;0 skipped with all matching, 0 scanned using binary search.">
<polygon fill="none" stroke="white" points="836.5,-2087 630.5,-2087 630.5,-2003 836.5,-2003 836.5,-2087"/>
<text text-anchor="middle" x="733.5" y="-2071.8" font-family="Times,serif" font-size="14.00" fill="white">TableScan</text>
<text text-anchor="middle" x="733.5" y="-2056.8" font-family="Times,serif" font-size="14.00" fill="white">Impl: ColumnVsColumn</text>
<text text-anchor="middle" x="733.5" y="-2041.8" font-family="Times,serif" font-size="14.00" fill="white">c_nationkey = s_nationkey</text>
<text text-anchor="middle" x="733.5" y="-2010.8" font-family="Times,serif" font-size="14.00" fill="white">13 ms 421 µs</text>
</a>
</g>
</g>
<!-- 140017274041744&#45;&gt;140017274042064 -->
<g id="edge4" class="edge">
<title>140017274041744&#45;&gt;140017274042064</title>
<path fill="none" stroke="white" d="M733.5,-2087.27C733.5,-2100.36 733.5,-2114.72 733.5,-2127.45"/>
<polygon fill="white" stroke="white" points="730,-2127.69 733.5,-2137.69 737,-2127.69 730,-2127.69"/>
<text text-anchor="middle" x="836" y="-2108.8" font-family="Times,serif" font-size="14.00" fill="white">364,636 row(s)/256 chunk(s)</text>
</g>
<!-- 140017274041424 -->
<g id="node6" class="node">
<title>140017274041424</title>
<g id="a_node6"><a xlink:title="Output: 9112509 rows in 256 chunks filtered: 0, 198 ms 371 µs.&#10;Operator step runtimes:&#10; LeftSideMaterialize 39 ms 245 µs&#10; RightSideMaterialize 4 ms 482 µs&#10; LeftSideTransform 0 ns&#10; RightSideTransform 0 ns&#10; LeftSidePartition 13 ms 706 µs&#10; RightSidePartition 12 ms 620 µs&#10; LeftSideSortBuckets 17 ms 825 µs&#10; RightSideSortBuckets 16 ms 45 µs&#10; GatherRowIds 3 µs 13 ns&#10; FindJoinPartner 45 ms 282 µs&#10; OutputWriting 47 ms 935 µs.&#10;Radix bits: 8.">
<polygon fill="none" stroke="white" stroke-width="4.47" points="839,-1952 628,-1952 628,-1883 839,-1883 839,-1952"/>
<text text-anchor="middle" x="733.5" y="-1936.8" font-family="Times,serif" font-size="14.00" fill="white">JoinSimdSortMerge (Inner)</text>
<text text-anchor="middle" x="733.5" y="-1921.8" font-family="Times,serif" font-size="14.00" fill="white">o_custkey = c_custkey</text>
<text text-anchor="middle" x="733.5" y="-1890.8" font-family="Times,serif" font-size="14.00" fill="white">198 ms 371 µs</text>
</a>
</g>
</g>
<!-- 140017274041424&#45;&gt;140017274041744 -->
<g id="edge5" class="edge">
<title>140017274041424&#45;&gt;140017274041744</title>
<path fill="none" stroke="white" d="M733.5,-1952.13C733.5,-1964.51 733.5,-1978.84 733.5,-1992.44"/>
<polygon fill="white" stroke="white" points="730,-1992.65 733.5,-2002.65 737,-1992.65 730,-1992.65"/>
<text text-anchor="middle" x="843" y="-1973.8" font-family="Times,serif" font-size="14.00" fill="white">9,112,509 row(s)/256 chunk(s)</text>
</g>
<!-- 140017274041104 -->
<g id="node7" class="node">
<title>140017274041104</title>
<g id="a_node7"><a xlink:title="Output: 9112509 rows in 64 chunks filtered: 0, 352 ms 389 µs.&#10;Operator step runtimes:&#10; LeftSideMaterialize 147 ms 890 µs&#10; RightSideMaterialize 42 ms 3 µs&#10; LeftSideTransform 0 ns&#10; RightSideTransform 0 ns&#10; LeftSidePartition 14 ms 829 µs&#10; RightSidePartition 15 ms 19 µs&#10; LeftSideSortBuckets 12 ms 749 µs&#10; RightSideSortBuckets 14 ms 32 µs&#10; GatherRowIds 4 µs 71 ns&#10; FindJoinPartner 44 ms 567 µs&#10; OutputWriting 59 ms 716 µs.&#10;Radix bits: 8.">
<polygon fill="none" stroke="white" stroke-width="5.89" points="719,-1832 508,-1832 508,-1763 719,-1763 719,-1832"/>
<text text-anchor="middle" x="613.5" y="-1816.8" font-family="Times,serif" font-size="14.00" fill="white">JoinSimdSortMerge (Inner)</text>
<text text-anchor="middle" x="613.5" y="-1801.8" font-family="Times,serif" font-size="14.00" fill="white">l_orderkey = o_orderkey</text>
<text text-anchor="middle" x="613.5" y="-1770.8" font-family="Times,serif" font-size="14.00" fill="white">352 ms 389 µs</text>
</a>
</g>
</g>
<!-- 140017274041104&#45;&gt;140017274041424 -->
<g id="edge6" class="edge">
<title>140017274041104&#45;&gt;140017274041424</title>
<path fill="none" stroke="white" d="M610.59,-1832.33C611.22,-1843.61 613.78,-1855.67 620.5,-1865 623.42,-1869.05 626.73,-1872.79 630.35,-1876.24"/>
<polygon fill="white" stroke="white" points="630.56,-1876.43 628.29,-1879.09 638.16,-1882.93 630.56,-1876.43"/>
<text text-anchor="middle" x="725.5" y="-1853.8" font-family="Times,serif" font-size="14.00" fill="white">9,112,509 row(s)/64 chunk(s)</text>
</g>
<!-- 140017274040784 -->
<g id="node8" class="node">
<title>140017274040784</title>
<g id="a_node8"><a xlink:title="Output: 9112509 rows in 256 chunks filtered: 0, 158 ms 266 µs.&#10;Operator step runtimes:&#10; LeftSideMaterialize 68 ms 269 µs&#10; RightSideMaterialize 652 µs 594 ns&#10; LeftSideTransform 0 ns&#10; RightSideTransform 0 ns&#10; LeftSidePartition 14 ms 708 µs&#10; RightSidePartition 3 ms 323 µs&#10; LeftSideSortBuckets 17 ms 680 µs&#10; RightSideSortBuckets 602 µs 377 ns&#10; GatherRowIds 1 µs 365 ns&#10; FindJoinPartner 34 ms 227 µs&#10; OutputWriting 18 ms 92 µs.&#10;Radix bits: 8.">
<polygon fill="none" stroke="white" stroke-width="3.91" points="748,-1689.5 537,-1689.5 537,-1620.5 748,-1620.5 748,-1689.5"/>
<text text-anchor="middle" x="642.5" y="-1674.3" font-family="Times,serif" font-size="14.00" fill="white">JoinSimdSortMerge (Inner)</text>
<text text-anchor="middle" x="642.5" y="-1659.3" font-family="Times,serif" font-size="14.00" fill="white">l_suppkey = s_suppkey</text>
<text text-anchor="middle" x="642.5" y="-1628.3" font-family="Times,serif" font-size="14.00" fill="white">158 ms 266 µs</text>
</a>
</g>
</g>
<!-- 140017274040784&#45;&gt;140017274041104 -->
<g id="edge7" class="edge">
<title>140017274040784&#45;&gt;140017274041104</title>
<path fill="none" stroke="white" d="M635.55,-1689.65C631.65,-1708.54 626.74,-1732.33 622.55,-1752.66"/>
<polygon fill="white" stroke="white" points="622.51,-1752.84 619.08,-1752.13 620.49,-1762.63 622.51,-1752.84"/>
<text text-anchor="middle" x="737" y="-1733.8" font-family="Times,serif" font-size="14.00" fill="white">9,112,509 row(s)/256 chunk(s)</text>
</g>
<!-- 140017274027024 -->
<g id="node9" class="node">
<title>140017274027024</title>
<g id="a_node9"><a xlink:title="Output: 9112509 rows in 64 chunks filtered: 0, 20 ms 61 µs.">
<polygon fill="none" stroke="white" points="694.5,-1547 590.5,-1547 590.5,-1493 694.5,-1493 694.5,-1547"/>
<text text-anchor="middle" x="642.5" y="-1531.8" font-family="Times,serif" font-size="14.00" fill="white">Validate</text>
<text text-anchor="middle" x="642.5" y="-1500.8" font-family="Times,serif" font-size="14.00" fill="white">20 ms 61 µs</text>
</a>
</g>
</g>
<!-- 140017274027024&#45;&gt;140017274040784 -->
<g id="edge8" class="edge">
<title>140017274027024&#45;&gt;140017274040784</title>
<path fill="none" stroke="white" d="M642.5,-1547.28C642.5,-1565.15 642.5,-1589.24 642.5,-1610"/>
<polygon fill="white" stroke="white" points="642.5,-1610.2 639,-1610.2 642.5,-1620.2 642.5,-1610.2"/>
<text text-anchor="middle" x="747.5" y="-1568.8" font-family="Times,serif" font-size="14.00" fill="white">9,112,509 row(s)/64 chunk(s)</text>
</g>
<!-- 140017274040464 -->
<g id="node10" class="node">
<title>140017274040464</title>
<g id="a_node10"><a xlink:title="Output: 9112509 rows in 64 chunks filtered: 0, 830 ms 110 µs.&#10;Operator step runtimes:&#10; LeftSideMaterialize 525 ms 169 µs&#10; RightSideMaterialize 49 ms 305 µs&#10; LeftSideTransform 0 ns&#10; RightSideTransform 0 ns&#10; LeftSidePartition 79 ms 50 µs&#10; RightSidePartition 14 ms 623 µs&#10; LeftSideSortBuckets 67 ms 436 µs&#10; RightSideSortBuckets 14 ms 966 µs&#10; GatherRowIds 3 µs 932 ns&#10; FindJoinPartner 56 ms 582 µs&#10; OutputWriting 21 ms 349 µs.&#10;Radix bits: 8.">
<polygon fill="none" stroke="white" stroke-width="8" points="781,-1442 496,-1442 496,-1373 781,-1373 781,-1442"/>
<text text-anchor="middle" x="638.5" y="-1426.8" font-family="Times,serif" font-size="14.00" fill="white">JoinSimdSortMerge (Semi Reduction)</text>
<text text-anchor="middle" x="638.5" y="-1411.8" font-family="Times,serif" font-size="14.00" fill="white">l_orderkey = o_orderkey</text>
<text text-anchor="middle" x="638.5" y="-1380.8" font-family="Times,serif" font-size="14.00" fill="white">830 ms 110 µs</text>
</a>
</g>
</g>
<!-- 140017274040464&#45;&gt;140017274027024 -->
<g id="edge9" class="edge">
<title>140017274040464&#45;&gt;140017274027024</title>
<path fill="none" stroke="white" d="M639.72,-1442.25C640.19,-1455.07 640.72,-1469.73 641.19,-1482.77"/>
<polygon fill="white" stroke="white" points="637.69,-1482.95 641.55,-1492.81 644.69,-1482.69 637.69,-1482.95"/>
<text text-anchor="middle" x="746.5" y="-1463.8" font-family="Times,serif" font-size="14.00" fill="white">9,112,509 row(s)/64 chunk(s)</text>
</g>
<!-- 140017274039824 -->
<g id="node11" class="node">
<title>140017274039824</title>
<g id="a_node11"><a xlink:title="Output: 60064410 rows in 256 chunks filtered: 0, 594 ms 856 µs.&#10;Operator step runtimes:&#10; LeftSideMaterialize 223 ms 967 µs&#10; RightSideMaterialize 1 ms 475 µs&#10; LeftSideTransform 0 ns&#10; RightSideTransform 0 ns&#10; LeftSidePartition 83 ms 853 µs&#10; RightSidePartition 3 ms 284 µs&#10; LeftSideSortBuckets 68 ms 427 µs&#10; RightSideSortBuckets 604 µs 134 ns&#10; GatherRowIds 1 µs 276 ns&#10; FindJoinPartner 207 ms 320 µs&#10; OutputWriting 972 µs 145 ns.&#10;Radix bits: 8.">
<polygon fill="none" stroke="white" stroke-width="7.18" points="781,-1322 496,-1322 496,-1253 781,-1253 781,-1322"/>
<text text-anchor="middle" x="638.5" y="-1306.8" font-family="Times,serif" font-size="14.00" fill="white">JoinSimdSortMerge (Semi Reduction)</text>
<text text-anchor="middle" x="638.5" y="-1291.8" font-family="Times,serif" font-size="14.00" fill="white">l_suppkey = s_suppkey</text>
<text text-anchor="middle" x="638.5" y="-1260.8" font-family="Times,serif" font-size="14.00" fill="white">594 ms 856 µs</text>
</a>
</g>
</g>
<!-- 140017274039824&#45;&gt;140017274040464 -->
<g id="edge10" class="edge">
<title>140017274039824&#45;&gt;140017274040464</title>
<path fill="none" stroke="white" stroke-width="4.03" d="M638.5,-1322.31C638.5,-1334.78 638.5,-1349.1 638.5,-1362.34"/>
<polygon fill="white" stroke="white" stroke-width="4.03" points="638.5,-1362.68 634.97,-1362.68 638.5,-1372.68 638.5,-1362.68"/>
<text text-anchor="middle" x="752.5" y="-1343.8" font-family="Times,serif" font-size="14.00" fill="white">60,064,410 row(s)/256 chunk(s)</text>
</g>
<!-- 140017274279248 -->
<g id="node12" class="node">
<title>140017274279248</title>
<g id="a_node12"><a xlink:title="Output: 300005811 rows in 4578 chunks filtered: 0, 15 ms 542 µs.">
<polygon fill="none" stroke="white" points="574,-1202 443,-1202 443,-1088 574,-1088 574,-1202"/>
<text text-anchor="middle" x="508.5" y="-1186.8" font-family="Times,serif" font-size="14.00" fill="white">GetTable</text>
<text text-anchor="middle" x="508.5" y="-1171.8" font-family="Times,serif" font-size="14.00" fill="white">(lineitem)</text>
<text text-anchor="middle" x="508.5" y="-1156.8" font-family="Times,serif" font-size="14.00" fill="white">pruned:</text>
<text text-anchor="middle" x="508.5" y="-1141.8" font-family="Times,serif" font-size="14.00" fill="white">0/4578 chunk(s)</text>
<text text-anchor="middle" x="508.5" y="-1126.8" font-family="Times,serif" font-size="14.00" fill="white">12/16 column(s)</text>
<text text-anchor="middle" x="508.5" y="-1095.8" font-family="Times,serif" font-size="14.00" fill="white">15 ms 542 µs</text>
</a>
</g>
</g>
<!-- 140017274279248&#45;&gt;140017274039824 -->
<g id="edge11" class="edge">
<title>140017274279248&#45;&gt;140017274039824</title>
<path fill="none" stroke="white" stroke-width="8" d="M499.46,-1202.23C500.15,-1213.85 502.95,-1225.44 509.5,-1235 512.29,-1239.07 515.47,-1242.83 518.94,-1246.28"/>
<polygon fill="white" stroke="white" stroke-width="8" points="518.99,-1246.32 514.34,-1251.56 526.46,-1252.96 518.99,-1246.32"/>
<text text-anchor="middle" x="634.5" y="-1223.8" font-family="Times,serif" font-size="14.00" fill="white">300,005,811 row(s)/4,578 chunk(s)</text>
</g>
<!-- 140017274039184 -->
<g id="node13" class="node">
<title>140017274039184</title>
<g id="a_node13"><a xlink:title="Output: 100102 rows in 5 chunks filtered: 0, 11 ms 455 µs.&#10;Operator step runtimes:&#10; LeftSideMaterialize 2 ms 181 µs&#10; RightSideMaterialize 53 µs 690 ns&#10; LeftSideTransform 0 ns&#10; RightSideTransform 0 ns&#10; LeftSidePartition 2 ms 329 µs&#10; RightSidePartition 26 µs 665 ns&#10; LeftSideSortBuckets 651 µs 668 ns&#10; RightSideSortBuckets 1 ms 780 µs&#10; GatherRowIds 1 µs 874 ns&#10; FindJoinPartner 1 ms 881 µs&#10; OutputWriting 2 ms 443 µs.&#10;Radix bits: 8.">
<polygon fill="none" stroke="white" points="988,-1179.5 777,-1179.5 777,-1110.5 988,-1110.5 988,-1179.5"/>
<text text-anchor="middle" x="882.5" y="-1164.3" font-family="Times,serif" font-size="14.00" fill="white">JoinSimdSortMerge (Inner)</text>
<text text-anchor="middle" x="882.5" y="-1149.3" font-family="Times,serif" font-size="14.00" fill="white">s_nationkey = n_nationkey</text>
<text text-anchor="middle" x="882.5" y="-1118.3" font-family="Times,serif" font-size="14.00" fill="white">11 ms 455 µs</text>
</a>
</g>
</g>
<!-- 140017274039184&#45;&gt;140017274040784 -->
<g id="edge13" class="edge">
<title>140017274039184&#45;&gt;140017274040784</title>
<path fill="none" stroke="white" d="M933.29,-1179.65C946.91,-1190.96 960.37,-1204.66 969.5,-1220 984.94,-1245.96 983.5,-1256.3 983.5,-1286.5 983.5,-1286.5 983.5,-1286.5 983.5,-1521 983.5,-1615.42 875.4,-1569.13 785.5,-1598 768.26,-1603.54 750.1,-1610.08 732.72,-1616.7"/>
<polygon fill="white" stroke="white" points="723.16,-1620.38 733.75,-1620.06 732.49,-1616.79 723.16,-1620.38"/>
<text text-anchor="middle" x="1077" y="-1403.8" font-family="Times,serif" font-size="14.00" fill="white">100,102 row(s)/5 chunk(s)</text>
</g>
<!-- 140017274039184&#45;&gt;140017274039824 -->
<g id="edge12" class="edge">
<title>140017274039184&#45;&gt;140017274039824</title>
<path fill="none" stroke="white" d="M837.21,-1179.52C805.65,-1202.75 767.76,-1230.33 759.5,-1235 751.08,-1239.76 742.13,-1244.35 733.06,-1248.71"/>
<polygon fill="white" stroke="white" points="723.96,-1252.98 734.5,-1251.9 733.01,-1248.73 723.96,-1252.98"/>
<text text-anchor="middle" x="874" y="-1223.8" font-family="Times,serif" font-size="14.00" fill="white">100,102 row(s)/5 chunk(s)</text>
</g>
<!-- 140017274025488 -->
<g id="node14" class="node">
<title>140017274025488</title>
<g id="a_node14"><a xlink:title="Output: 100102 rows in 5 chunks filtered: 0, 717 µs 164 ns.">
<polygon fill="none" stroke="white" points="1065,-1007 948,-1007 948,-953 1065,-953 1065,-1007"/>
<text text-anchor="middle" x="1006.5" y="-991.8" font-family="Times,serif" font-size="14.00" fill="white">Validate</text>
<text text-anchor="middle" x="1006.5" y="-960.8" font-family="Times,serif" font-size="14.00" fill="white">717 µs 164 ns</text>
</a>
</g>
</g>
<!-- 140017274025488&#45;&gt;140017274039184 -->
<g id="edge14" class="edge">
<title>140017274025488&#45;&gt;140017274039184</title>
<path fill="none" stroke="white" d="M986.58,-1007.19C967.12,-1032.77 937.18,-1072.12 914.4,-1102.06"/>
<polygon fill="white" stroke="white" points="914.24,-1102.28 911.45,-1100.16 908.18,-1110.24 914.24,-1102.28"/>
<text text-anchor="middle" x="1041" y="-1058.8" font-family="Times,serif" font-size="14.00" fill="white">100,102 row(s)/5 chunk(s)</text>
</g>
<!-- 140017274038864 -->
<g id="node15" class="node">
<title>140017274038864</title>
<g id="a_node15"><a xlink:title="Output: 100102 rows in 5 chunks filtered: 0, 5 ms 335 µs.&#10;Operator step runtimes:&#10; LeftSideMaterialize 690 µs 175 ns&#10; RightSideMaterialize 52 µs 325 ns&#10; LeftSideTransform 0 ns&#10; RightSideTransform 0 ns&#10; LeftSidePartition 1 ms 290 µs&#10; RightSidePartition 22 µs 889 ns&#10; LeftSideSortBuckets 714 µs 703 ns&#10; RightSideSortBuckets 899 µs 967 ns&#10; GatherRowIds 2 µs 109 ns&#10; FindJoinPartner 1 ms 287 µs&#10; OutputWriting 258 µs 348 ns.&#10;Radix bits: 8.">
<polygon fill="none" stroke="white" points="1175,-872 890,-872 890,-803 1175,-803 1175,-872"/>
<text text-anchor="middle" x="1032.5" y="-856.8" font-family="Times,serif" font-size="14.00" fill="white">JoinSimdSortMerge (Semi Reduction)</text>
<text text-anchor="middle" x="1032.5" y="-841.8" font-family="Times,serif" font-size="14.00" fill="white">s_nationkey = n_nationkey</text>
<text text-anchor="middle" x="1032.5" y="-810.8" font-family="Times,serif" font-size="14.00" fill="white">5 ms 335 µs</text>
</a>
</g>
</g>
<!-- 140017274038864&#45;&gt;140017274025488 -->
<g id="edge15" class="edge">
<title>140017274038864&#45;&gt;140017274025488</title>
<path fill="none" stroke="white" d="M1026.27,-872.15C1022.33,-893.46 1017.23,-920.99 1013.2,-942.78"/>
<polygon fill="white" stroke="white" points="1009.76,-942.18 1011.38,-952.65 1016.64,-943.45 1009.76,-942.18"/>
<text text-anchor="middle" x="1116" y="-893.8" font-family="Times,serif" font-size="14.00" fill="white">100,102 row(s)/5 chunk(s)</text>
</g>
<!-- 140017274279696 -->
<g id="node16" class="node">
<title>140017274279696</title>
<g id="a_node16"><a xlink:title="Output: 500000 rows in 8 chunks filtered: 0, 26 µs 759 ns.">
<polygon fill="none" stroke="white" points="1112,-752 999,-752 999,-638 1112,-638 1112,-752"/>
<text text-anchor="middle" x="1055.5" y="-736.8" font-family="Times,serif" font-size="14.00" fill="white">GetTable</text>
<text text-anchor="middle" x="1055.5" y="-721.8" font-family="Times,serif" font-size="14.00" fill="white">(supplier)</text>
<text text-anchor="middle" x="1055.5" y="-706.8" font-family="Times,serif" font-size="14.00" fill="white">pruned:</text>
<text text-anchor="middle" x="1055.5" y="-691.8" font-family="Times,serif" font-size="14.00" fill="white">0/8 chunk(s)</text>
<text text-anchor="middle" x="1055.5" y="-676.8" font-family="Times,serif" font-size="14.00" fill="white">5/7 column(s)</text>
<text text-anchor="middle" x="1055.5" y="-645.8" font-family="Times,serif" font-size="14.00" fill="white">26 µs 759 ns</text>
</a>
</g>
</g>
<!-- 140017274279696&#45;&gt;140017274038864 -->
<g id="edge16" class="edge">
<title>140017274279696&#45;&gt;140017274038864</title>
<path fill="none" stroke="white" d="M1046.28,-752.34C1044.07,-765.83 1041.74,-780.04 1039.64,-792.86"/>
<polygon fill="white" stroke="white" points="1039.63,-792.93 1036.18,-792.37 1038.02,-802.8 1039.63,-792.93"/>
<text text-anchor="middle" x="1136" y="-773.8" font-family="Times,serif" font-size="14.00" fill="white">500,000 row(s)/8 chunk(s)</text>
</g>
<!-- 140017274026000 -->
<g id="node17" class="node">
<title>140017274026000</title>
<g id="a_node17"><a xlink:title="Output: 5 rows in 1 chunk filtered: 0, 7 µs 900 ns.">
<polygon fill="none" stroke="white" points="928,-722 829,-722 829,-668 928,-668 928,-722"/>
<text text-anchor="middle" x="878.5" y="-706.8" font-family="Times,serif" font-size="14.00" fill="white">Validate</text>
<text text-anchor="middle" x="878.5" y="-675.8" font-family="Times,serif" font-size="14.00" fill="white">7 µs 900 ns</text>
</a>
</g>
</g>
<!-- 140017274026000&#45;&gt;140017274039184 -->
<g id="edge18" class="edge">
<title>140017274026000&#45;&gt;140017274039184</title>
<path fill="none" stroke="white" d="M878.32,-722.04C878.08,-759.28 877.65,-829.88 877.5,-890 877.31,-963.71 879.5,-1049.42 881.04,-1100.06"/>
<polygon fill="white" stroke="white" points="881.36,-1110.31 884.55,-1100.21 881.05,-1100.32 881.36,-1110.31"/>
<text text-anchor="middle" x="946.5" y="-893.8" font-family="Times,serif" font-size="14.00" fill="white">5 row(s)/1 chunk(s)</text>
</g>
<!-- 140017274026000&#45;&gt;140017274038864 -->
<g id="edge17" class="edge">
<title>140017274026000&#45;&gt;140017274038864</title>
<path fill="none" stroke="white" d="M878.07,-722.29C879.13,-741.74 883.59,-767.74 898.5,-785 902.17,-789.24 906.22,-793.14 910.57,-796.71"/>
<polygon fill="white" stroke="white" points="918.7,-802.81 912.8,-794.01 910.7,-796.81 918.7,-802.81"/>
<text text-anchor="middle" x="967.5" y="-773.8" font-family="Times,serif" font-size="14.00" fill="white">5 row(s)/1 chunk(s)</text>
</g>
<!-- 140017274038544 -->
<g id="node18" class="node">
<title>140017274038544</title>
<g id="a_node18"><a xlink:title="Output: 5 rows in 1 chunk filtered: 0, 1 ms 902 µs.&#10;Operator step runtimes:&#10; LeftSideMaterialize 42 µs 828 ns&#10; RightSideMaterialize 61 µs 386 ns&#10; LeftSideTransform 0 ns&#10; RightSideTransform 0 ns&#10; LeftSidePartition 29 µs 774 ns&#10; RightSidePartition 16 µs 21 ns&#10; LeftSideSortBuckets 1 ms 8 µs&#10; RightSideSortBuckets 636 µs 180 ns&#10; GatherRowIds 2 µs 209 ns&#10; FindJoinPartner 5 µs 337 ns&#10; OutputWriting 17 µs 100 ns.&#10;Radix bits: 8.">
<polygon fill="none" stroke="white" points="983,-587 774,-587 774,-518 983,-518 983,-587"/>
<text text-anchor="middle" x="878.5" y="-571.8" font-family="Times,serif" font-size="14.00" fill="white">JoinSimdSortMerge (Semi)</text>
<text text-anchor="middle" x="878.5" y="-556.8" font-family="Times,serif" font-size="14.00" fill="white">n_regionkey = r_regionkey</text>
<text text-anchor="middle" x="878.5" y="-525.8" font-family="Times,serif" font-size="14.00" fill="white">1 ms 902 µs</text>
</a>
</g>
</g>
<!-- 140017274038544&#45;&gt;140017274026000 -->
<g id="edge19" class="edge">
<title>140017274038544&#45;&gt;140017274026000</title>
<path fill="none" stroke="white" d="M878.5,-587.15C878.5,-608.36 878.5,-635.75 878.5,-657.48"/>
<polygon fill="white" stroke="white" points="875,-657.65 878.5,-667.65 882,-657.65 875,-657.65"/>
<text text-anchor="middle" x="947.5" y="-608.8" font-family="Times,serif" font-size="14.00" fill="white">5 row(s)/1 chunk(s)</text>
</g>
<!-- 140017274280144 -->
<g id="node19" class="node">
<title>140017274280144</title>
<g id="a_node19"><a xlink:title="Output: 25 rows in 1 chunk filtered: 0, 13 µs 51 ns.">
<polygon fill="none" stroke="white" points="850,-467 737,-467 737,-353 850,-353 850,-467"/>
<text text-anchor="middle" x="793.5" y="-451.8" font-family="Times,serif" font-size="14.00" fill="white">GetTable</text>
<text text-anchor="middle" x="793.5" y="-436.8" font-family="Times,serif" font-size="14.00" fill="white">(nation)</text>
<text text-anchor="middle" x="793.5" y="-421.8" font-family="Times,serif" font-size="14.00" fill="white">pruned:</text>
<text text-anchor="middle" x="793.5" y="-406.8" font-family="Times,serif" font-size="14.00" fill="white">0/1 chunk(s)</text>
<text text-anchor="middle" x="793.5" y="-391.8" font-family="Times,serif" font-size="14.00" fill="white">1/4 column(s)</text>
<text text-anchor="middle" x="793.5" y="-360.8" font-family="Times,serif" font-size="14.00" fill="white">13 µs 51 ns</text>
</a>
</g>
</g>
<!-- 140017274280144&#45;&gt;140017274038544 -->
<g id="edge20" class="edge">
<title>140017274280144&#45;&gt;140017274038544</title>
<path fill="none" stroke="white" d="M785.77,-467.38C786.46,-478.74 788.93,-490.19 794.5,-500 796.64,-503.77 799.17,-507.29 802.01,-510.59"/>
<polygon fill="white" stroke="white" points="802.13,-510.71 799.62,-513.15 809.11,-517.86 802.13,-510.71"/>
<text text-anchor="middle" x="868" y="-488.8" font-family="Times,serif" font-size="14.00" fill="white">25 row(s)/1 chunk(s)</text>
</g>
<!-- 140017274026256 -->
<g id="node20" class="node">
<title>140017274026256</title>
<g id="a_node20"><a xlink:title="Output: 1 row in 1 chunk filtered: 0, 10 µs 207 ns.">
<polygon fill="none" stroke="white" points="1017.5,-437 909.5,-437 909.5,-383 1017.5,-383 1017.5,-437"/>
<text text-anchor="middle" x="963.5" y="-421.8" font-family="Times,serif" font-size="14.00" fill="white">Validate</text>
<text text-anchor="middle" x="963.5" y="-390.8" font-family="Times,serif" font-size="14.00" fill="white">10 µs 207 ns</text>
</a>
</g>
</g>
<!-- 140017274026256&#45;&gt;140017274038544 -->
<g id="edge21" class="edge">
<title>140017274026256&#45;&gt;140017274038544</title>
<path fill="none" stroke="white" d="M961.43,-437.26C958.95,-455.96 953.5,-481.03 941.5,-500 939.21,-503.63 936.57,-507.12 933.7,-510.45"/>
<polygon fill="white" stroke="white" points="926.66,-517.95 936.06,-513.06 933.51,-510.66 926.66,-517.95"/>
<text text-anchor="middle" x="1016.5" y="-488.8" font-family="Times,serif" font-size="14.00" fill="white">1 row(s)/1 chunk(s)</text>
</g>
<!-- 140017274037904 -->
<g id="node21" class="node">
<title>140017274037904</title>
<g id="a_node21"><a xlink:title="Output: 1 row in 1 chunk filtered: 0, 18 µs 920 ns.&#10;Chunks: 0 skipped with no results, &#10;0 skipped with all matching, 0 scanned using binary search.">
<polygon fill="none" stroke="white" points="1065,-302 862,-302 862,-218 1065,-218 1065,-302"/>
<text text-anchor="middle" x="963.5" y="-286.8" font-family="Times,serif" font-size="14.00" fill="white">TableScan</text>
<text text-anchor="middle" x="963.5" y="-271.8" font-family="Times,serif" font-size="14.00" fill="white">Impl: ColumnVsValue</text>
<text text-anchor="middle" x="963.5" y="-256.8" font-family="Times,serif" font-size="14.00" fill="white">r_name = &#39;MIDDLE EAST&#39;</text>
<text text-anchor="middle" x="963.5" y="-225.8" font-family="Times,serif" font-size="14.00" fill="white">18 µs 920 ns</text>
</a>
</g>
</g>
<!-- 140017274037904&#45;&gt;140017274026256 -->
<g id="edge22" class="edge">
<title>140017274037904&#45;&gt;140017274026256</title>
<path fill="none" stroke="white" d="M963.5,-302.23C963.5,-324.32 963.5,-351.31 963.5,-372.62"/>
<polygon fill="white" stroke="white" points="960,-372.88 963.5,-382.88 967,-372.88 960,-372.88"/>
<text text-anchor="middle" x="1032.5" y="-323.8" font-family="Times,serif" font-size="14.00" fill="white">1 row(s)/1 chunk(s)</text>
</g>
<!-- 140017274282832 -->
<g id="node22" class="node">
<title>140017274282832</title>
<g id="a_node22"><a xlink:title="Output: 5 rows in 1 chunk filtered: 0, 33 µs 701 ns.">
<polygon fill="none" stroke="white" points="1020,-140.5 907,-140.5 907,-26.5 1020,-26.5 1020,-140.5"/>
<text text-anchor="middle" x="963.5" y="-125.3" font-family="Times,serif" font-size="14.00" fill="white">GetTable</text>
<text text-anchor="middle" x="963.5" y="-110.3" font-family="Times,serif" font-size="14.00" fill="white">(region)</text>
<text text-anchor="middle" x="963.5" y="-95.3" font-family="Times,serif" font-size="14.00" fill="white">pruned:</text>
<text text-anchor="middle" x="963.5" y="-80.3" font-family="Times,serif" font-size="14.00" fill="white">0/1 chunk(s)</text>
<text text-anchor="middle" x="963.5" y="-65.3" font-family="Times,serif" font-size="14.00" fill="white">1/3 column(s)</text>
<text text-anchor="middle" x="963.5" y="-34.3" font-family="Times,serif" font-size="14.00" fill="white">33 µs 701 ns</text>
</a>
</g>
</g>
<!-- 140017274282832&#45;&gt;140017274037904 -->
<g id="edge23" class="edge">
<title>140017274282832&#45;&gt;140017274037904</title>
<path fill="none" stroke="white" d="M963.5,-140.67C963.5,-162.25 963.5,-186.74 963.5,-207.83"/>
<polygon fill="white" stroke="white" points="960,-207.87 963.5,-217.87 967,-207.87 960,-207.87"/>
<text text-anchor="middle" x="1032.5" y="-188.8" font-family="Times,serif" font-size="14.00" fill="white">5 row(s)/1 chunk(s)</text>
</g>
<!-- 140017274532112 -->
<g id="node23" class="node">
<title>140017274532112</title>
<g id="a_node23"><a xlink:title="Output: 11379462 rows in 1145 chunks filtered: 0, 2 ms 873 µs.">
<polygon fill="none" stroke="white" points="383.5,-1314.5 279.5,-1314.5 279.5,-1260.5 383.5,-1260.5 383.5,-1314.5"/>
<text text-anchor="middle" x="331.5" y="-1299.3" font-family="Times,serif" font-size="14.00" fill="white">Validate</text>
<text text-anchor="middle" x="331.5" y="-1268.3" font-family="Times,serif" font-size="14.00" fill="white">2 ms 873 µs</text>
</a>
</g>
</g>
<!-- 140017274532112&#45;&gt;140017274041104 -->
<g id="edge25" class="edge">
<title>140017274532112&#45;&gt;140017274041104</title>
<path fill="none" stroke="white" d="M331.5,-1314.75C331.5,-1338.66 331.5,-1374.95 331.5,-1406.5 331.5,-1406.5 331.5,-1406.5 331.5,-1656 331.5,-1734.42 419.95,-1769.07 497.77,-1784.38"/>
<polygon fill="white" stroke="white" points="507.69,-1786.24 498.51,-1780.96 497.86,-1784.4 507.69,-1786.24"/>
<text text-anchor="middle" x="452" y="-1516.3" font-family="Times,serif" font-size="14.00" fill="white">11,379,462 row(s)/1,145 chunk(s)</text>
</g>
<!-- 140017274532112&#45;&gt;140017274040464 -->
<g id="edge24" class="edge">
<title>140017274532112&#45;&gt;140017274040464</title>
<path fill="none" stroke="white" d="M349.56,-1314.63C360.65,-1328.7 376.04,-1345.15 393.5,-1355 421.63,-1370.87 454.07,-1381.87 485.95,-1389.49"/>
<polygon fill="white" stroke="white" points="495.83,-1391.74 486.86,-1386.1 486.08,-1389.52 495.83,-1391.74"/>
<text text-anchor="middle" x="514" y="-1343.8" font-family="Times,serif" font-size="14.00" fill="white">11,379,462 row(s)/1,145 chunk(s)</text>
</g>
<!-- 140017274040144 -->
<g id="node24" class="node">
<title>140017274040144</title>
<g id="a_node24"><a xlink:title="Output: 11379462 rows in 1145 chunks filtered: 0, 9 ms 565 µs.&#10;Chunks: 0 skipped with no results, &#10;0 skipped with all matching, 0 scanned using binary search.">
<polygon fill="none" stroke="white" points="425,-1194.5 0,-1194.5 0,-1095.5 425,-1095.5 425,-1194.5"/>
<text text-anchor="middle" x="212.5" y="-1179.3" font-family="Times,serif" font-size="14.00" fill="white">TableScan</text>
<text text-anchor="middle" x="212.5" y="-1164.3" font-family="Times,serif" font-size="14.00" fill="white">Impl: ColumnBetween</text>
<text text-anchor="middle" x="212.5" y="-1149.3" font-family="Times,serif" font-size="14.00" fill="white">o_orderdate BETWEEN UPPER EXCLUSIVE &#39;1995&#45;01&#45;01&#39;</text>
<text text-anchor="middle" x="212.5" y="-1134.3" font-family="Times,serif" font-size="14.00" fill="white">AND &#39;1996&#45;01&#45;01&#39;</text>
<text text-anchor="middle" x="212.5" y="-1103.3" font-family="Times,serif" font-size="14.00" fill="white">9 ms 565 µs</text>
</a>
</g>
</g>
<!-- 140017274040144&#45;&gt;140017274532112 -->
<g id="edge26" class="edge">
<title>140017274040144&#45;&gt;140017274532112</title>
<path fill="none" stroke="white" d="M224.01,-1194.88C228.98,-1208.88 235.92,-1223.46 245.5,-1235 252.57,-1243.51 261.42,-1250.96 270.75,-1257.37"/>
<polygon fill="white" stroke="white" points="269.1,-1260.47 279.4,-1262.95 272.9,-1254.59 269.1,-1260.47"/>
<text text-anchor="middle" x="366" y="-1223.8" font-family="Times,serif" font-size="14.00" fill="white">11,379,462 row(s)/1,145 chunk(s)</text>
</g>
<!-- 140017274284176 -->
<g id="node25" class="node">
<title>140017274284176</title>
<g id="a_node25"><a xlink:title="Output: 75000000 rows in 1145 chunks filtered: 0, 3 ms 781 µs.">
<polygon fill="none" stroke="white" points="278,-1037 147,-1037 147,-923 278,-923 278,-1037"/>
<text text-anchor="middle" x="212.5" y="-1021.8" font-family="Times,serif" font-size="14.00" fill="white">GetTable</text>
<text text-anchor="middle" x="212.5" y="-1006.8" font-family="Times,serif" font-size="14.00" fill="white">(orders)</text>
<text text-anchor="middle" x="212.5" y="-991.8" font-family="Times,serif" font-size="14.00" fill="white">pruned:</text>
<text text-anchor="middle" x="212.5" y="-976.8" font-family="Times,serif" font-size="14.00" fill="white">0/1145 chunk(s)</text>
<text text-anchor="middle" x="212.5" y="-961.8" font-family="Times,serif" font-size="14.00" fill="white">6/9 column(s)</text>
<text text-anchor="middle" x="212.5" y="-930.8" font-family="Times,serif" font-size="14.00" fill="white">3 ms 781 µs</text>
</a>
</g>
</g>
<!-- 140017274284176&#45;&gt;140017274040144 -->
<g id="edge27" class="edge">
<title>140017274284176&#45;&gt;140017274040144</title>
<path fill="none" stroke="white" stroke-width="4.58" d="M212.5,-1037.1C212.5,-1052.66 212.5,-1069.59 212.5,-1085.3"/>
<polygon fill="white" stroke="white" stroke-width="4.58" points="208.49,-1085.42 212.5,-1095.42 216.51,-1085.42 208.49,-1085.42"/>
<text text-anchor="middle" x="333" y="-1058.8" font-family="Times,serif" font-size="14.00" fill="white">75,000,000 row(s)/1,145 chunk(s)</text>
</g>
<!-- 140017274025744 -->
<g id="node26" class="node">
<title>140017274025744</title>
<g id="a_node26"><a xlink:title="Output: 7500000 rows in 115 chunks filtered: 0, 708 µs 462 ns.">
<polygon fill="none" stroke="white" points="912,-1824.5 795,-1824.5 795,-1770.5 912,-1770.5 912,-1824.5"/>
<text text-anchor="middle" x="853.5" y="-1809.3" font-family="Times,serif" font-size="14.00" fill="white">Validate</text>
<text text-anchor="middle" x="853.5" y="-1778.3" font-family="Times,serif" font-size="14.00" fill="white">708 µs 462 ns</text>
</a>
</g>
</g>
<!-- 140017274025744&#45;&gt;140017274041424 -->
<g id="edge28" class="edge">
<title>140017274025744&#45;&gt;140017274041424</title>
<path fill="none" stroke="white" d="M849.16,-1824.78C845.87,-1838.04 840.19,-1853.68 830.5,-1865 826.94,-1869.16 822.95,-1873.04 818.68,-1876.65"/>
<polygon fill="white" stroke="white" points="810.72,-1882.84 820.76,-1879.46 818.61,-1876.7 810.72,-1882.84"/>
<text text-anchor="middle" x="949" y="-1853.8" font-family="Times,serif" font-size="14.00" fill="white">7,500,000 row(s)/115 chunk(s)</text>
</g>
<!-- 140017274284624 -->
<g id="node27" class="node">
<title>140017274284624</title>
<g id="a_node27"><a xlink:title="Output: 7500000 rows in 115 chunks filtered: 0, 443 µs 618 ns.">
<polygon fill="none" stroke="white" points="916.5,-1712 794.5,-1712 794.5,-1598 916.5,-1598 916.5,-1712"/>
<text text-anchor="middle" x="855.5" y="-1696.8" font-family="Times,serif" font-size="14.00" fill="white">GetTable</text>
<text text-anchor="middle" x="855.5" y="-1681.8" font-family="Times,serif" font-size="14.00" fill="white">(customer)</text>
<text text-anchor="middle" x="855.5" y="-1666.8" font-family="Times,serif" font-size="14.00" fill="white">pruned:</text>
<text text-anchor="middle" x="855.5" y="-1651.8" font-family="Times,serif" font-size="14.00" fill="white">0/115 chunk(s)</text>
<text text-anchor="middle" x="855.5" y="-1636.8" font-family="Times,serif" font-size="14.00" fill="white">6/8 column(s)</text>
<text text-anchor="middle" x="855.5" y="-1605.8" font-family="Times,serif" font-size="14.00" fill="white">443 µs 618 ns</text>
</a>
</g>
</g>
<!-- 140017274284624&#45;&gt;140017274025744 -->
<g id="edge29" class="edge">
<title>140017274284624&#45;&gt;140017274025744</title>
<path fill="none" stroke="white" d="M854.7,-1712.34C854.47,-1728.43 854.23,-1745.54 854.02,-1760.1"/>
<polygon fill="white" stroke="white" points="850.52,-1760.16 853.87,-1770.2 857.52,-1760.26 850.52,-1760.16"/>
<text text-anchor="middle" x="963" y="-1733.8" font-family="Times,serif" font-size="14.00" fill="white">7,500,000 row(s)/115 chunk(s)</text>
</g>
<!-- 0 -->
<g id="node28" class="node">
<title>0</title>
<polygon fill="none" stroke="white" points="1038,-0.5 1038,-166.5 1375,-166.5 1375,-0.5 1038,-0.5"/>
<text text-anchor="middle" x="1206.5" y="-151.3" font-family="Times,serif" font-size="14.00" fill="white">Total by operator</text>
<polyline fill="none" stroke="white" points="1038,-143.5 1375,-143.5 "/>
<text text-anchor="end" x="1192" y="-128.3" font-family="Times,serif" font-size="14.00" fill="white">JoinSimdSortMerge </text>
<text text-anchor="end" x="1192" y="-113.3" font-family="Times,serif" font-size="14.00" fill="white"> Projection </text>
<text text-anchor="end" x="1192" y="-98.3" font-family="Times,serif" font-size="14.00" fill="white"> Validate </text>
<text text-anchor="end" x="1192" y="-83.3" font-family="Times,serif" font-size="14.00" fill="white"> TableScan </text>
<text text-anchor="end" x="1192" y="-68.3" font-family="Times,serif" font-size="14.00" fill="white"> GetTable </text>
<text text-anchor="end" x="1192" y="-53.3" font-family="Times,serif" font-size="14.00" fill="white"> AggregateHash </text>
<text text-anchor="end" x="1192" y="-38.3" font-family="Times,serif" font-size="14.00" fill="white"> Sort </text>
<text text-anchor="end" x="1192" y="-23.3" font-family="Times,serif" font-size="14.00" fill="white"> Alias </text>
<text text-anchor="end" x="1192" y="-8.3" font-family="Times,serif" font-size="14.00" fill="white">total</text>
<polyline fill="none" stroke="white" points="1200,-0.5 1200,-143.5 "/>
<text text-anchor="start" x="1208" y="-128.3" font-family="Times,serif" font-size="14.00" fill="white">2 s 153 ms </text>
<text text-anchor="start" x="1208" y="-113.3" font-family="Times,serif" font-size="14.00" fill="white"> 62 ms 100 µs </text>
<text text-anchor="start" x="1208" y="-98.3" font-family="Times,serif" font-size="14.00" fill="white"> 24 ms 378 µs </text>
<text text-anchor="start" x="1208" y="-83.3" font-family="Times,serif" font-size="14.00" fill="white"> 23 ms 4 µs </text>
<text text-anchor="start" x="1208" y="-68.3" font-family="Times,serif" font-size="14.00" fill="white"> 19 ms 840 µs </text>
<text text-anchor="start" x="1208" y="-53.3" font-family="Times,serif" font-size="14.00" fill="white"> 14 ms 840 µs </text>
<text text-anchor="start" x="1208" y="-38.3" font-family="Times,serif" font-size="14.00" fill="white"> 9 µs 324 ns </text>
<text text-anchor="start" x="1208" y="-23.3" font-family="Times,serif" font-size="14.00" fill="white"> 2 µs 171 ns </text>
<text text-anchor="start" x="1208" y="-8.3" font-family="Times,serif" font-size="14.00" fill="white"> 2 s 297 ms </text>
<polyline fill="none" stroke="white" points="1322,-0.5 1322,-143.5 "/>
<text text-anchor="start" x="1330" y="-128.3" font-family="Times,serif" font-size="14.00" fill="white">94 %</text>
<text text-anchor="start" x="1330" y="-113.3" font-family="Times,serif" font-size="14.00" fill="white">3 %</text>
<text text-anchor="start" x="1330" y="-98.3" font-family="Times,serif" font-size="14.00" fill="white">1 %</text>
<text text-anchor="start" x="1330" y="-83.3" font-family="Times,serif" font-size="14.00" fill="white">1 %</text>
<text text-anchor="start" x="1330" y="-68.3" font-family="Times,serif" font-size="14.00" fill="white">1 %</text>
<text text-anchor="start" x="1330" y="-53.3" font-family="Times,serif" font-size="14.00" fill="white">1 %</text>
<text text-anchor="start" x="1330" y="-38.3" font-family="Times,serif" font-size="14.00" fill="white">0 %</text>
<text text-anchor="start" x="1330" y="-23.3" font-family="Times,serif" font-size="14.00" fill="white">0 %</text>
<text text-anchor="start" x="1330" y="-8.3" font-family="Times,serif" font-size="14.00" fill="white"> </text>
</g>
</g>
</svg>
