<?xml version="1.0" encoding="UTF-8" standalone="no"?>
<!DOCTYPE svg PUBLIC "-//W3C//DTD SVG 1.1//EN"
 "http://www.w3.org/Graphics/SVG/1.1/DTD/svg11.dtd">
<!-- Generated by graphviz version 2.43.0 (0)
 -->
<!-- Title: G Pages: 1 -->
<svg width="1249pt" height="1068pt"
 viewBox="0.00 0.00 1248.50 1068.00" xmlns="http://www.w3.org/2000/svg" xmlns:xlink="http://www.w3.org/1999/xlink">
<g id="graph0" class="graph" transform="scale(1 1) rotate(0) translate(4 1064)">
<title>G</title>
<polygon fill="black" stroke="transparent" points="-4,4 -4,-1064 1244.5,-1064 1244.5,4 -4,4"/>
<text text-anchor="middle" x="319.5" y="-1044.8" font-family="Times,serif" font-size="14.00" fill="white">For tooltips with advanced information, hover your mouse over vertices or edge labels.</text>
<!-- 139854213604240 -->
<g id="node1" class="node">
<title>139854213604240</title>
<polygon fill="none" stroke="white" points="760,-1005 407,-1005 407,-969 760,-969 760,-1005"/>
<text text-anchor="middle" x="583.5" y="-983.3" font-family="Times,serif" font-size="14.00" fill="white">[Alias] SUM(l_extendedprice) / 7 AS avg_yearly</text>
</g>
<!-- 140017280390320 -->
<g id="node2" class="node">
<title>140017280390320</title>
<polygon fill="none" stroke="white" points="727,-918 440,-918 440,-882 727,-882 727,-918"/>
<text text-anchor="middle" x="583.5" y="-896.3" font-family="Times,serif" font-size="14.00" fill="white">[Projection] SUM(l_extendedprice) / 7</text>
</g>
<!-- 140017280390320&#45;&gt;139854213604240 -->
<g id="edge1" class="edge">
<title>140017280390320&#45;&gt;139854213604240</title>
<path fill="none" stroke="white" d="M583.5,-918.2C583.5,-929.84 583.5,-945.45 583.5,-958.76"/>
<polygon fill="white" stroke="white" points="580,-958.82 583.5,-968.82 587,-958.82 580,-958.82"/>
<g id="a_edge1&#45;label"><a xlink:title="Output Expressions: &#10; (1) SUM(l_extendedprice) / 7 NULL&#10;&#10;Unique Column Combinations: &#10; &lt;none&gt;&#10;&#10;Functional Dependencies (trivial): &#10; &lt;none&gt;&#10;&#10;Functional Dependencies (non&#45;trivial): &#10; &lt;none&gt;">
<text text-anchor="middle" x="700.5" y="-939.8" font-family="Times,serif" font-size="14.00" fill="white"> 301,051.7 row(s) | 100.0% estd.</text>
</a>
</g>
</g>
<!-- 139854213604048 -->
<g id="node3" class="node">
<title>139854213604048</title>
<polygon fill="none" stroke="white" points="723,-831 444,-831 444,-793 723,-793 723,-831"/>
<text text-anchor="middle" x="583.5" y="-815.8" font-family="Times,serif" font-size="14.00" fill="white">[Aggregate] GroupBy: [] Aggregates:</text>
<text text-anchor="middle" x="583.5" y="-800.8" font-family="Times,serif" font-size="14.00" fill="white">[SUM(l_extendedprice)]</text>
</g>
<!-- 139854213604048&#45;&gt;140017280390320 -->
<g id="edge2" class="edge">
<title>139854213604048&#45;&gt;140017280390320</title>
<path fill="none" stroke="white" d="M583.5,-831.24C583.5,-843.07 583.5,-858.68 583.5,-871.95"/>
<polygon fill="white" stroke="white" points="580,-871.96 583.5,-881.96 587,-871.96 580,-871.96"/>
<g id="a_edge2&#45;label"><a xlink:title="Output Expressions: &#10; (1) SUM(l_extendedprice) NULL&#10;&#10;Unique Column Combinations: &#10; &lt;none&gt;&#10;&#10;Functional Dependencies (trivial): &#10; &lt;none&gt;&#10;&#10;Functional Dependencies (non&#45;trivial): &#10; &lt;none&gt;">
<text text-anchor="middle" x="700.5" y="-852.8" font-family="Times,serif" font-size="14.00" fill="white"> 301,051.7 row(s) | 100.0% estd.</text>
</a>
</g>
</g>
<!-- 140017054182288 -->
<g id="node4" class="node">
<title>140017054182288</title>
<polygon fill="none" stroke="white" points="741.5,-742 425.5,-742 425.5,-704 741.5,-704 741.5,-742"/>
<text text-anchor="middle" x="583.5" y="-726.8" font-family="Times,serif" font-size="14.00" fill="white">[Join] Mode: Semi [p_partkey = l_partkey]</text>
<text text-anchor="middle" x="583.5" y="-711.8" font-family="Times,serif" font-size="14.00" fill="white">[l_quantity &lt; 0.2 * AVG(l_quantity)]</text>
</g>
<!-- 140017054182288&#45;&gt;139854213604048 -->
<g id="edge3" class="edge">
<title>140017054182288&#45;&gt;139854213604048</title>
<path fill="none" stroke="white" d="M583.5,-742.03C583.5,-753.81 583.5,-769.44 583.5,-782.84"/>
<polygon fill="white" stroke="white" points="580,-783 583.5,-793 587,-783 580,-783"/>
<g id="a_edge3&#45;label"><a xlink:title="Output Expressions: &#10; (1) l_partkey&#10; (2) l_quantity&#10; (3) l_extendedprice&#10; (4) p_partkey&#10; (5) p_brand&#10; (6) p_container&#10;&#10;Unique Column Combinations: &#10; &lt;none&gt;&#10;&#10;Functional Dependencies (trivial): &#10; &lt;none&gt;&#10;&#10;Functional Dependencies (non&#45;trivial): &#10; (1) {p_partkey} =&gt; {p_brand, p_container}&#10;">
<text text-anchor="middle" x="700.5" y="-763.8" font-family="Times,serif" font-size="14.00" fill="white"> 301,051.7 row(s) | 100.0% estd.</text>
</a>
</g>
</g>
<!-- 139854213605584 -->
<g id="node5" class="node">
<title>139854213605584</title>
<polygon fill="none" stroke="white" points="726.5,-565 408.5,-565 408.5,-529 726.5,-529 726.5,-565"/>
<text text-anchor="middle" x="567.5" y="-543.3" font-family="Times,serif" font-size="14.00" fill="white">[Join] Mode: Inner [p_partkey = l_partkey]</text>
</g>
<!-- 139854213605584&#45;&gt;140017054182288 -->
<g id="edge4" class="edge">
<title>139854213605584&#45;&gt;140017054182288</title>
<path fill="none" stroke="white" d="M568.88,-565.1C570.58,-585.89 573.6,-622.03 576.5,-653 577.75,-666.35 579.24,-681.15 580.52,-693.6"/>
<polygon fill="white" stroke="white" points="580.55,-693.9 577.07,-694.26 581.58,-703.85 580.55,-693.9"/>
<g id="a_edge4&#45;label"><a xlink:title="Output Expressions: &#10; (1) l_partkey&#10; (2) l_quantity&#10; (3) l_extendedprice&#10; (4) p_partkey&#10; (5) p_brand&#10; (6) p_container&#10;&#10;Unique Column Combinations: &#10; &lt;none&gt;&#10;&#10;Functional Dependencies (trivial): &#10; &lt;none&gt;&#10;&#10;Functional Dependencies (non&#45;trivial): &#10; (1) {p_partkey} =&gt; {p_brand, p_container}&#10;">
<text text-anchor="middle" x="684.5" y="-631.3" font-family="Times,serif" font-size="14.00" fill="white"> 301,051.7 row(s) | 0.0% estd.</text>
</a>
</g>
</g>
<!-- 140017280386320 -->
<g id="node6" class="node">
<title>140017280386320</title>
<polygon fill="none" stroke="white" points="496,-477 411,-477 411,-441 496,-441 496,-477"/>
<text text-anchor="middle" x="453.5" y="-455.3" font-family="Times,serif" font-size="14.00" fill="white">[Validate]</text>
</g>
<!-- 140017280386320&#45;&gt;139854213605584 -->
<g id="edge5" class="edge">
<title>140017280386320&#45;&gt;139854213605584</title>
<path fill="none" stroke="white" d="M449.15,-477.36C447.59,-487.81 447.64,-500.82 454.5,-510 458.34,-515.14 462.92,-519.57 468,-523.37"/>
<polygon fill="white" stroke="white" points="468,-523.37 466.09,-526.3 476.37,-528.86 468,-523.37"/>
<g id="a_edge5&#45;label"><a xlink:title="Output Expressions: &#10; (1) l_partkey&#10; (2) l_quantity&#10; (3) l_extendedprice&#10;&#10;Unique Column Combinations: &#10; &lt;none&gt;&#10;&#10;Functional Dependencies (trivial): &#10; &lt;none&gt;&#10;&#10;Functional Dependencies (non&#45;trivial): &#10; &lt;none&gt;">
<text text-anchor="middle" x="571.5" y="-498.8" font-family="Times,serif" font-size="14.00" fill="white"> 301,051.7 row(s) | 100.0% estd.</text>
</a>
</g>
</g>
<!-- 139854213603472 -->
<g id="node7" class="node">
<title>139854213603472</title>
<polygon fill="none" stroke="white" points="611.5,-390 295.5,-390 295.5,-352 611.5,-352 611.5,-390"/>
<text text-anchor="middle" x="453.5" y="-374.8" font-family="Times,serif" font-size="14.00" fill="white">[Join] Mode: Semi [p_partkey = l_partkey]</text>
<text text-anchor="middle" x="453.5" y="-359.8" font-family="Times,serif" font-size="14.00" fill="white">(SemiJoinReductionRule)</text>
</g>
<!-- 139854213603472&#45;&gt;140017280386320 -->
<g id="edge6" class="edge">
<title>139854213603472&#45;&gt;140017280386320</title>
<path fill="none" stroke="white" d="M453.5,-390.24C453.5,-402.07 453.5,-417.68 453.5,-430.95"/>
<polygon fill="white" stroke="white" points="450,-430.96 453.5,-440.96 457,-430.96 450,-430.96"/>
<g id="a_edge6&#45;label"><a xlink:title="Output Expressions: &#10; (1) l_partkey&#10; (2) l_quantity&#10; (3) l_extendedprice&#10;&#10;Unique Column Combinations: &#10; &lt;none&gt;&#10;&#10;Functional Dependencies (trivial): &#10; &lt;none&gt;&#10;&#10;Functional Dependencies (non&#45;trivial): &#10; &lt;none&gt;">
<text text-anchor="middle" x="561.5" y="-411.8" font-family="Times,serif" font-size="14.00" fill="white"> 301,051.7 row(s) | 0.1% estd.</text>
</a>
</g>
</g>
<!-- 139850877920528 -->
<g id="node8" class="node">
<title>139850877920528</title>
<polygon fill="none" stroke="white" points="349,-301 0,-301 0,-263 349,-263 349,-301"/>
<text text-anchor="middle" x="174.5" y="-285.8" font-family="Times,serif" font-size="14.00" fill="white">[StoredTable] Name: &#39;lineitem&#39; pruned: 0/4578</text>
<text text-anchor="middle" x="174.5" y="-270.8" font-family="Times,serif" font-size="14.00" fill="white">chunk(s), 13/16 column(s)</text>
</g>
<!-- 139850877920528&#45;&gt;139854213603472 -->
<g id="edge7" class="edge">
<title>139850877920528&#45;&gt;139854213603472</title>
<path fill="none" stroke="white" stroke-width="8" d="M173.93,-301.13C174.61,-312.22 177.47,-325.81 186.5,-334 202.52,-348.54 241.83,-357.27 285.5,-362.49"/>
<polygon fill="white" stroke="white" stroke-width="8" points="285.53,-362.5 284.75,-369.45 295.47,-363.62 285.53,-362.5"/>
<g id="a_edge7&#45;label"><a xlink:title="Output Expressions: &#10; (1) l_partkey&#10; (2) l_quantity&#10; (3) l_extendedprice&#10;&#10;Unique Column Combinations: &#10; &lt;none&gt;&#10;&#10;Functional Dependencies (trivial): &#10; &lt;none&gt;&#10;&#10;Functional Dependencies (non&#45;trivial): &#10; &lt;none&gt;">
<text text-anchor="middle" x="319" y="-322.8" font-family="Times,serif" font-size="14.00" fill="white"> 300,005,824.0 row(s) | 100.0% estd.</text>
</a>
</g>
</g>
<!-- 140017280391120 -->
<g id="node9" class="node">
<title>140017280391120</title>
<polygon fill="none" stroke="white" points="745,-300 660,-300 660,-264 745,-264 745,-300"/>
<text text-anchor="middle" x="702.5" y="-278.3" font-family="Times,serif" font-size="14.00" fill="white">[Validate]</text>
</g>
<!-- 140017280391120&#45;&gt;139854213605584 -->
<g id="edge9" class="edge">
<title>140017280391120&#45;&gt;139854213605584</title>
<path fill="none" stroke="white" d="M707.36,-300.09C717.95,-341.28 738.38,-447.25 688.5,-510 684.43,-515.12 679.66,-519.54 674.41,-523.35"/>
<polygon fill="white" stroke="white" points="665.81,-528.84 676.12,-526.41 674.23,-523.46 665.81,-528.84"/>
<g id="a_edge9&#45;label"><a xlink:title="Output Expressions: &#10; (1) p_partkey&#10; (2) p_brand&#10; (3) p_container&#10;&#10;Unique Column Combinations: &#10; (1) {p_partkey}&#10;&#10;Functional Dependencies (trivial): &#10; (1) {p_partkey} =&gt; {p_brand, p_container}&#10;&#10;Functional Dependencies (non&#45;trivial): &#10; &lt;none&gt;">
<text text-anchor="middle" x="833" y="-411.8" font-family="Times,serif" font-size="14.00" fill="white"> 10,034.9 row(s) | 100.0% estd.</text>
</a>
</g>
</g>
<!-- 140017280391120&#45;&gt;139854213603472 -->
<g id="edge8" class="edge">
<title>140017280391120&#45;&gt;139854213603472</title>
<path fill="none" stroke="white" d="M659.79,-283.71C598.75,-285.64 490.9,-292.78 463.5,-319 457.29,-324.94 454.32,-333.52 453.03,-341.96"/>
<polygon fill="white" stroke="white" points="452.2,-351.99 456.51,-342.31 453.03,-342.02 452.2,-351.99"/>
<g id="a_edge8&#45;label"><a xlink:title="Output Expressions: &#10; (1) p_partkey&#10; (2) p_brand&#10; (3) p_container&#10;&#10;Unique Column Combinations: &#10; (1) {p_partkey}&#10;&#10;Functional Dependencies (trivial): &#10; (1) {p_partkey} =&gt; {p_brand, p_container}&#10;&#10;Functional Dependencies (non&#45;trivial): &#10; &lt;none&gt;">
<text text-anchor="middle" x="576" y="-322.8" font-family="Times,serif" font-size="14.00" fill="white"> 10,034.9 row(s) | 100.0% estd.</text>
</a>
</g>
</g>
<!-- 139854213605776 -->
<g id="node16" class="node">
<title>139854213605776</title>
<polygon fill="none" stroke="white" points="1124.5,-390 808.5,-390 808.5,-352 1124.5,-352 1124.5,-390"/>
<text text-anchor="middle" x="966.5" y="-374.8" font-family="Times,serif" font-size="14.00" fill="white">[Join] Mode: Semi [p_partkey = l_partkey]</text>
<text text-anchor="middle" x="966.5" y="-359.8" font-family="Times,serif" font-size="14.00" fill="white">(SemiJoinReductionRule)</text>
</g>
<!-- 140017280391120&#45;&gt;139854213605776 -->
<g id="edge10" class="edge">
<title>140017280391120&#45;&gt;139854213605776</title>
<path fill="none" stroke="white" d="M712.3,-300.49C719.64,-311.91 730.77,-326.12 744.5,-334 755.51,-340.32 775.26,-345.76 798.59,-350.35"/>
<polygon fill="white" stroke="white" points="808.42,-352.19 799.24,-346.91 798.59,-350.35 808.42,-352.19"/>
<g id="a_edge10&#45;label"><a xlink:title="Output Expressions: &#10; (1) p_partkey&#10; (2) p_brand&#10; (3) p_container&#10;&#10;Unique Column Combinations: &#10; (1) {p_partkey}&#10;&#10;Functional Dependencies (trivial): &#10; (1) {p_partkey} =&gt; {p_brand, p_container}&#10;&#10;Functional Dependencies (non&#45;trivial): &#10; &lt;none&gt;">
<text text-anchor="middle" x="857" y="-322.8" font-family="Times,serif" font-size="14.00" fill="white"> 10,034.9 row(s) | 100.0% estd.</text>
</a>
</g>
</g>
<!-- 139854213604432 -->
<g id="node10" class="node">
<title>139854213604432</title>
<polygon fill="none" stroke="white" points="832.5,-212 572.5,-212 572.5,-176 832.5,-176 832.5,-212"/>
<text text-anchor="middle" x="702.5" y="-190.3" font-family="Times,serif" font-size="14.00" fill="white">[Predicate] p_brand = &#39;Brand#43&#39;</text>
</g>
<!-- 139854213604432&#45;&gt;140017280391120 -->
<g id="edge11" class="edge">
<title>139854213604432&#45;&gt;140017280391120</title>
<path fill="none" stroke="white" d="M702.5,-212.4C702.5,-224.25 702.5,-240.18 702.5,-253.71"/>
<polygon fill="white" stroke="white" points="699,-253.92 702.5,-263.92 706,-253.92 699,-253.92"/>
<g id="a_edge11&#45;label"><a xlink:title="Output Expressions: &#10; (1) p_partkey&#10; (2) p_brand&#10; (3) p_container&#10;&#10;Unique Column Combinations: &#10; (1) {p_partkey}&#10;&#10;Functional Dependencies (trivial): &#10; (1) {p_partkey} =&gt; {p_brand, p_container}&#10;&#10;Functional Dependencies (non&#45;trivial): &#10; &lt;none&gt;">
<text text-anchor="middle" x="806" y="-233.8" font-family="Times,serif" font-size="14.00" fill="white"> 10,034.9 row(s) | 4.0% estd.</text>
</a>
</g>
</g>
<!-- 139854213604624 -->
<g id="node11" class="node">
<title>139854213604624</title>
<polygon fill="none" stroke="white" points="833.5,-125 571.5,-125 571.5,-89 833.5,-89 833.5,-125"/>
<text text-anchor="middle" x="702.5" y="-103.3" font-family="Times,serif" font-size="14.00" fill="white">[Predicate] p_container = &#39;LG JAR&#39;</text>
</g>
<!-- 139854213604624&#45;&gt;139854213604432 -->
<g id="edge12" class="edge">
<title>139854213604624&#45;&gt;139854213604432</title>
<path fill="none" stroke="white" d="M702.5,-125.2C702.5,-136.84 702.5,-152.45 702.5,-165.76"/>
<polygon fill="white" stroke="white" points="699,-165.82 702.5,-175.82 706,-165.82 699,-165.82"/>
<g id="a_edge12&#45;label"><a xlink:title="Output Expressions: &#10; (1) p_partkey&#10; (2) p_brand&#10; (3) p_container&#10;&#10;Unique Column Combinations: &#10; (1) {p_partkey}&#10;&#10;Functional Dependencies (trivial): &#10; (1) {p_partkey} =&gt; {p_brand, p_container}&#10;&#10;Functional Dependencies (non&#45;trivial): &#10; &lt;none&gt;">
<text text-anchor="middle" x="810.5" y="-146.8" font-family="Times,serif" font-size="14.00" fill="white"> 250,544.0 row(s) | 2.5% estd.</text>
</a>
</g>
</g>
<!-- 139854212624144 -->
<g id="node12" class="node">
<title>139854212624144</title>
<polygon fill="none" stroke="white" points="893,-38 512,-38 512,0 893,0 893,-38"/>
<text text-anchor="middle" x="702.5" y="-22.8" font-family="Times,serif" font-size="14.00" fill="white">[StoredTable] Name: &#39;part&#39; pruned: 0/153 chunk(s),</text>
<text text-anchor="middle" x="702.5" y="-7.8" font-family="Times,serif" font-size="14.00" fill="white">6/9 column(s)</text>
</g>
<!-- 139854212624144&#45;&gt;139854213604624 -->
<g id="edge13" class="edge">
<title>139854212624144&#45;&gt;139854213604624</title>
<path fill="none" stroke="white" d="M702.5,-38.24C702.5,-50.07 702.5,-65.68 702.5,-78.95"/>
<polygon fill="white" stroke="white" points="699,-78.96 702.5,-88.96 706,-78.96 699,-78.96"/>
<g id="a_edge13&#45;label"><a xlink:title="Output Expressions: &#10; (1) p_partkey&#10; (2) p_brand&#10; (3) p_container&#10;&#10;Unique Column Combinations: &#10; (1) {p_partkey}&#10;&#10;Functional Dependencies (trivial): &#10; (1) {p_partkey} =&gt; {p_brand, p_container}&#10;&#10;Functional Dependencies (non&#45;trivial): &#10; &lt;none&gt;">
<text text-anchor="middle" x="830.5" y="-59.8" font-family="Times,serif" font-size="14.00" fill="white"> 10,000,000.0 row(s) | 100.0% estd.</text>
</a>
</g>
</g>
<!-- 140017280392720 -->
<g id="node13" class="node">
<title>140017280392720</title>
<polygon fill="none" stroke="white" points="1131.5,-653 801.5,-653 801.5,-617 1131.5,-617 1131.5,-653"/>
<text text-anchor="middle" x="966.5" y="-631.3" font-family="Times,serif" font-size="14.00" fill="white">[Projection] 0.2 * AVG(l_quantity), l_partkey</text>
</g>
<!-- 140017280392720&#45;&gt;140017054182288 -->
<g id="edge14" class="edge">
<title>140017280392720&#45;&gt;140017054182288</title>
<path fill="none" stroke="white" d="M890.37,-653.09C828.02,-667.09 739.65,-686.94 673.74,-701.74"/>
<polygon fill="white" stroke="white" points="663.77,-703.98 674.3,-705.2 673.53,-701.78 663.77,-703.98"/>
<g id="a_edge14&#45;label"><a xlink:title="Output Expressions: &#10; (1) 0.2 * AVG(l_quantity) NULL&#10; (2) l_partkey&#10;&#10;Unique Column Combinations: &#10; (1) {l_partkey}&#10;&#10;Functional Dependencies (trivial): &#10; (1) {l_partkey} =&gt; {0.2 * AVG(l_quantity)}&#10;&#10;Functional Dependencies (non&#45;trivial): &#10; &lt;none&gt;">
<text text-anchor="middle" x="926.5" y="-674.8" font-family="Times,serif" font-size="14.00" fill="white"> 301,051.7 row(s) | 100.0% estd.</text>
</a>
</g>
</g>
<!-- 140017054182864 -->
<g id="node14" class="node">
<title>140017054182864</title>
<polygon fill="none" stroke="white" points="1139,-566 794,-566 794,-528 1139,-528 1139,-566"/>
<text text-anchor="middle" x="966.5" y="-550.8" font-family="Times,serif" font-size="14.00" fill="white">[Aggregate] GroupBy: [l_partkey] Aggregates:</text>
<text text-anchor="middle" x="966.5" y="-535.8" font-family="Times,serif" font-size="14.00" fill="white">[AVG(l_quantity)]</text>
</g>
<!-- 140017054182864&#45;&gt;140017280392720 -->
<g id="edge15" class="edge">
<title>140017054182864&#45;&gt;140017280392720</title>
<path fill="none" stroke="white" d="M966.5,-566.24C966.5,-578.07 966.5,-593.68 966.5,-606.95"/>
<polygon fill="white" stroke="white" points="963,-606.96 966.5,-616.96 970,-606.96 963,-606.96"/>
<g id="a_edge15&#45;label"><a xlink:title="Output Expressions: &#10; (1) l_partkey&#10; (2) AVG(l_quantity) NULL&#10;&#10;Unique Column Combinations: &#10; (1) {l_partkey}&#10;&#10;Functional Dependencies (trivial): &#10; (1) {l_partkey} =&gt; {AVG(l_quantity)}&#10;&#10;Functional Dependencies (non&#45;trivial): &#10; &lt;none&gt;">
<text text-anchor="middle" x="1083.5" y="-587.8" font-family="Times,serif" font-size="14.00" fill="white"> 301,051.7 row(s) | 100.0% estd.</text>
</a>
</g>
</g>
<!-- 140017280392560 -->
<g id="node15" class="node">
<title>140017280392560</title>
<polygon fill="none" stroke="white" points="1009,-477 924,-477 924,-441 1009,-441 1009,-477"/>
<text text-anchor="middle" x="966.5" y="-455.3" font-family="Times,serif" font-size="14.00" fill="white">[Validate]</text>
</g>
<!-- 140017280392560&#45;&gt;140017054182864 -->
<g id="edge16" class="edge">
<title>140017280392560&#45;&gt;140017054182864</title>
<path fill="none" stroke="white" d="M966.5,-477.4C966.5,-488.94 966.5,-504.35 966.5,-517.64"/>
<polygon fill="white" stroke="white" points="963,-517.73 966.5,-527.73 970,-517.73 963,-517.73"/>
<g id="a_edge16&#45;label"><a xlink:title="Output Expressions: &#10; (1) l_partkey&#10; (2) l_quantity&#10; (3) l_extendedprice&#10;&#10;Unique Column Combinations: &#10; &lt;none&gt;&#10;&#10;Functional Dependencies (trivial): &#10; &lt;none&gt;&#10;&#10;Functional Dependencies (non&#45;trivial): &#10; &lt;none&gt;">
<text text-anchor="middle" x="1083.5" y="-498.8" font-family="Times,serif" font-size="14.00" fill="white"> 301,051.7 row(s) | 100.0% estd.</text>
</a>
</g>
</g>
<!-- 139854213605776&#45;&gt;140017280392560 -->
<g id="edge17" class="edge">
<title>139854213605776&#45;&gt;140017280392560</title>
<path fill="none" stroke="white" d="M966.5,-390.24C966.5,-402.07 966.5,-417.68 966.5,-430.95"/>
<polygon fill="white" stroke="white" points="963,-430.96 966.5,-440.96 970,-430.96 963,-430.96"/>
<g id="a_edge17&#45;label"><a xlink:title="Output Expressions: &#10; (1) l_partkey&#10; (2) l_quantity&#10; (3) l_extendedprice&#10;&#10;Unique Column Combinations: &#10; &lt;none&gt;&#10;&#10;Functional Dependencies (trivial): &#10; &lt;none&gt;&#10;&#10;Functional Dependencies (non&#45;trivial): &#10; &lt;none&gt;">
<text text-anchor="middle" x="1074.5" y="-411.8" font-family="Times,serif" font-size="14.00" fill="white"> 301,051.7 row(s) | 0.1% estd.</text>
</a>
</g>
</g>
<!-- 139854212625104 -->
<g id="node17" class="node">
<title>139854212625104</title>
<polygon fill="none" stroke="white" points="1158,-301 809,-301 809,-263 1158,-263 1158,-301"/>
<text text-anchor="middle" x="983.5" y="-285.8" font-family="Times,serif" font-size="14.00" fill="white">[StoredTable] Name: &#39;lineitem&#39; pruned: 0/4578</text>
<text text-anchor="middle" x="983.5" y="-270.8" font-family="Times,serif" font-size="14.00" fill="white">chunk(s), 13/16 column(s)</text>
</g>
<!-- 139854212625104&#45;&gt;139854213605776 -->
<g id="edge18" class="edge">
<title>139854212625104&#45;&gt;139854213605776</title>
<path fill="none" stroke="white" stroke-width="8" d="M979.98,-301.03C977.68,-312.81 974.62,-328.44 972,-341.84"/>
<polygon fill="white" stroke="white" stroke-width="8" points="971.94,-342.18 965.07,-340.84 970.02,-352 971.94,-342.18"/>
<g id="a_edge18&#45;label"><a xlink:title="Output Expressions: &#10; (1) l_partkey&#10; (2) l_quantity&#10; (3) l_extendedprice&#10;&#10;Unique Column Combinations: &#10; &lt;none&gt;&#10;&#10;Functional Dependencies (trivial): &#10; &lt;none&gt;&#10;&#10;Functional Dependencies (non&#45;trivial): &#10; &lt;none&gt;">
<text text-anchor="middle" x="1108" y="-322.8" font-family="Times,serif" font-size="14.00" fill="white"> 300,005,824.0 row(s) | 100.0% estd.</text>
</a>
</g>
</g>
</g>
</svg>
