<?xml version="1.0" encoding="UTF-8" standalone="no"?>
<!DOCTYPE svg PUBLIC "-//W3C//DTD SVG 1.1//EN"
 "http://www.w3.org/Graphics/SVG/1.1/DTD/svg11.dtd">
<!-- Generated by graphviz version 2.43.0 (0)
 -->
<!-- Title: G Pages: 1 -->
<svg width="755pt" height="1220pt"
 viewBox="0.00 0.00 754.50 1220.00" xmlns="http://www.w3.org/2000/svg" xmlns:xlink="http://www.w3.org/1999/xlink">
<g id="graph0" class="graph" transform="scale(1 1) rotate(0) translate(4 1216)">
<title>G</title>
<polygon fill="black" stroke="transparent" points="-4,4 -4,-1216 750.5,-1216 750.5,4 -4,4"/>
<text text-anchor="middle" x="319.5" y="-1196.8" font-family="Times,serif" font-size="14.00" fill="white">For tooltips with advanced information, hover your mouse over vertices or edge labels.</text>
<!-- 139948403612880 -->
<g id="node1" class="node">
<title>139948403612880</title>
<g id="a_node1"><a xlink:title="Output: 46 rows in 1 chunk filtered: 0, 2 µs 648 ns.">
<polygon fill="none" stroke="white" points="255.5,-1157 108.5,-1157 108.5,-1088 255.5,-1088 255.5,-1157"/>
<text text-anchor="middle" x="182" y="-1141.8" font-family="Times,serif" font-size="14.00" fill="white">Alias</text>
<text text-anchor="middle" x="182" y="-1126.8" font-family="Times,serif" font-size="14.00" fill="white">[c_count, custdist]</text>
<text text-anchor="middle" x="182" y="-1095.8" font-family="Times,serif" font-size="14.00" fill="white">2 µs 648 ns</text>
</a>
</g>
</g>
<!-- 139948403612560 -->
<g id="node2" class="node">
<title>139948403612560</title>
<g id="a_node2"><a xlink:title="Output: 46 rows in 1 chunk filtered: 0, 21 µs 521 ns.&#10;Operator step runtimes:&#10; MaterializeSortColumns 9 µs 729 ns&#10; Sort 3 µs 95 ns&#10; TemporaryResultWriting 646 ns&#10; WriteOutput 6 µs 517 ns.">
<polygon fill="none" stroke="white" points="236,-1037 128,-1037 128,-983 236,-983 236,-1037"/>
<text text-anchor="middle" x="182" y="-1021.8" font-family="Times,serif" font-size="14.00" fill="white">Sort</text>
<text text-anchor="middle" x="182" y="-990.8" font-family="Times,serif" font-size="14.00" fill="white">21 µs 521 ns</text>
</a>
</g>
</g>
<!-- 139948403612560&#45;&gt;139948403612880 -->
<g id="edge1" class="edge">
<title>139948403612560&#45;&gt;139948403612880</title>
<path fill="none" stroke="white" d="M182,-1037.19C182,-1049.29 182,-1064 182,-1077.72"/>
<polygon fill="white" stroke="white" points="178.5,-1077.95 182,-1087.95 185.5,-1077.96 178.5,-1077.95"/>
<text text-anchor="middle" x="255.5" y="-1058.8" font-family="Times,serif" font-size="14.00" fill="white">46 row(s)/1 chunk(s)</text>
</g>
<!-- 140017054100496 -->
<g id="node3" class="node">
<title>140017054100496</title>
<g id="a_node3"><a xlink:title="Output: 46 rows in 1 chunk filtered: 0, 101 ms 404 µs.&#10;Operator step runtimes:&#10; GroupByKeyPartitioning 57 ms 289 µs&#10; Aggregating 44 ms 34 µs&#10; GroupByColumnsWriting 8 µs 438 ns&#10; AggregateColumnsWriting 9 µs 310 ns&#10; OutputWriting 4 µs 31 ns.">
<polygon fill="none" stroke="white" points="305,-932 59,-932 59,-848 305,-848 305,-932"/>
<text text-anchor="middle" x="182" y="-916.8" font-family="Times,serif" font-size="14.00" fill="white">AggregateHash</text>
<text text-anchor="middle" x="182" y="-901.8" font-family="Times,serif" font-size="14.00" fill="white">GroupBy {COUNT(o_orderkey)}</text>
<text text-anchor="middle" x="182" y="-886.8" font-family="Times,serif" font-size="14.00" fill="white">COUNT(*)</text>
<text text-anchor="middle" x="182" y="-855.8" font-family="Times,serif" font-size="14.00" fill="white">101 ms 404 µs</text>
</a>
</g>
</g>
<!-- 140017054100496&#45;&gt;139948403612560 -->
<g id="edge2" class="edge">
<title>140017054100496&#45;&gt;139948403612560</title>
<path fill="none" stroke="white" d="M182,-932.27C182,-945.36 182,-959.72 182,-972.45"/>
<polygon fill="white" stroke="white" points="178.5,-972.69 182,-982.69 185.5,-972.69 178.5,-972.69"/>
<text text-anchor="middle" x="255.5" y="-953.8" font-family="Times,serif" font-size="14.00" fill="white">46 row(s)/1 chunk(s)</text>
</g>
<!-- 139948403612240 -->
<g id="node4" class="node">
<title>139948403612240</title>
<g id="a_node4"><a xlink:title="Output: 7500000 rows in 115 chunks filtered: 0, 45 µs 888 ns.">
<polygon fill="none" stroke="white" points="260.5,-797 103.5,-797 103.5,-728 260.5,-728 260.5,-797"/>
<text text-anchor="middle" x="182" y="-781.8" font-family="Times,serif" font-size="14.00" fill="white">Alias</text>
<text text-anchor="middle" x="182" y="-766.8" font-family="Times,serif" font-size="14.00" fill="white">[c_custkey, c_count]</text>
<text text-anchor="middle" x="182" y="-735.8" font-family="Times,serif" font-size="14.00" fill="white">45 µs 888 ns</text>
</a>
</g>
</g>
<!-- 139948403612240&#45;&gt;140017054100496 -->
<g id="edge3" class="edge">
<title>139948403612240&#45;&gt;140017054100496</title>
<path fill="none" stroke="white" stroke-width="2.27" d="M182,-797.13C182,-809.51 182,-823.84 182,-837.44"/>
<polygon fill="white" stroke="white" stroke-width="2.27" points="178.5,-837.65 182,-847.65 185.5,-837.65 178.5,-837.65"/>
<text text-anchor="middle" x="291.5" y="-818.8" font-family="Times,serif" font-size="14.00" fill="white">7,500,000 row(s)/115 chunk(s)</text>
</g>
<!-- 140017054099984 -->
<g id="node5" class="node">
<title>140017054099984</title>
<g id="a_node5"><a xlink:title="Output: 7500000 rows in 115 chunks filtered: 0, 12 s 781 ms.&#10;Operator step runtimes:&#10; GroupByKeyPartitioning 1 s 78 ms&#10; Aggregating 11 s 674 ms&#10; GroupByColumnsWriting 15 ms 370 µs&#10; AggregateColumnsWriting 14 ms 215 µs&#10; OutputWriting 89 µs 96 ns.">
<polygon fill="none" stroke="white" stroke-width="8" points="267.5,-677 96.5,-677 96.5,-593 267.5,-593 267.5,-677"/>
<text text-anchor="middle" x="182" y="-661.8" font-family="Times,serif" font-size="14.00" fill="white">AggregateHash</text>
<text text-anchor="middle" x="182" y="-646.8" font-family="Times,serif" font-size="14.00" fill="white">GroupBy {c_custkey}</text>
<text text-anchor="middle" x="182" y="-631.8" font-family="Times,serif" font-size="14.00" fill="white">COUNT(o_orderkey)</text>
<text text-anchor="middle" x="182" y="-600.8" font-family="Times,serif" font-size="14.00" fill="white">12 s 781 ms</text>
</a>
</g>
</g>
<!-- 140017054099984&#45;&gt;139948403612240 -->
<g id="edge4" class="edge">
<title>140017054099984&#45;&gt;139948403612240</title>
<path fill="none" stroke="white" stroke-width="2.27" d="M182,-677.09C182,-690.07 182,-704.45 182,-717.61"/>
<polygon fill="white" stroke="white" stroke-width="2.27" points="178.5,-717.85 182,-727.85 185.5,-717.85 178.5,-717.85"/>
<text text-anchor="middle" x="291.5" y="-698.8" font-family="Times,serif" font-size="14.00" fill="white">7,500,000 row(s)/115 chunk(s)</text>
</g>
<!-- 139948403611280 -->
<g id="node6" class="node">
<title>139948403611280</title>
<g id="a_node6"><a xlink:title="Output: 76692987 rows in 256 chunks filtered: 0, 826 ms 243 µs.&#10;Operator step runtimes:&#10; LeftSideMaterialize 11 ms 930 µs&#10; RightSideMaterialize 51 ms 970 µs&#10; LeftSideTransform 0 ns&#10; RightSideTransform 0 ns&#10; LeftSidePartition 127 ms 259 µs&#10; RightSidePartition 108 ms 542 µs&#10; LeftSideSortBuckets 14 ms 123 µs&#10; RightSideSortBuckets 79 ms 141 µs&#10; GatherRowIds 5 µs 380 ns&#10; FindJoinPartner 254 ms 464 µs&#10; OutputWriting 160 ms 746 µs.&#10;Radix bits: 8.">
<polygon fill="none" stroke="white" stroke-width="1.25" points="282.5,-542 81.5,-542 81.5,-473 282.5,-473 282.5,-542"/>
<text text-anchor="middle" x="182" y="-526.8" font-family="Times,serif" font-size="14.00" fill="white">JoinSimdSortMerge (Left)</text>
<text text-anchor="middle" x="182" y="-511.8" font-family="Times,serif" font-size="14.00" fill="white">c_custkey = o_custkey</text>
<text text-anchor="middle" x="182" y="-480.8" font-family="Times,serif" font-size="14.00" fill="white">826 ms 243 µs</text>
</a>
</g>
</g>
<!-- 139948403611280&#45;&gt;140017054099984 -->
<g id="edge5" class="edge">
<title>139948403611280&#45;&gt;140017054099984</title>
<path fill="none" stroke="white" stroke-width="8" d="M182,-542.13C182,-554.51 182,-568.84 182,-582.44"/>
<polygon fill="white" stroke="white" stroke-width="8" points="175,-582.65 182,-592.65 189,-582.65 175,-582.65"/>
<text text-anchor="middle" x="296" y="-563.8" font-family="Times,serif" font-size="14.00" fill="white">76,692,987 row(s)/256 chunk(s)</text>
</g>
<!-- 140017053813520 -->
<g id="node7" class="node">
<title>140017053813520</title>
<g id="a_node7"><a xlink:title="Output: 7500000 rows in 115 chunks filtered: 0, 25 ms 585 µs.">
<polygon fill="none" stroke="white" points="117.5,-422 4.5,-422 4.5,-368 117.5,-368 117.5,-422"/>
<text text-anchor="middle" x="61" y="-406.8" font-family="Times,serif" font-size="14.00" fill="white">Validate</text>
<text text-anchor="middle" x="61" y="-375.8" font-family="Times,serif" font-size="14.00" fill="white">25 ms 585 µs</text>
</a>
</g>
</g>
<!-- 140017053813520&#45;&gt;139948403611280 -->
<g id="edge6" class="edge">
<title>140017053813520&#45;&gt;139948403611280</title>
<path fill="none" stroke="white" stroke-width="2.27" d="M56.58,-422.03C56.08,-433.08 57.47,-445.55 64,-455 66.83,-459.09 70.06,-462.86 73.6,-466.34"/>
<polygon fill="white" stroke="white" stroke-width="2.27" points="73.75,-466.47 71.45,-469.1 81.27,-473.06 73.75,-466.47"/>
<text text-anchor="middle" x="173.5" y="-443.8" font-family="Times,serif" font-size="14.00" fill="white">7,500,000 row(s)/115 chunk(s)</text>
</g>
<!-- 140017054046416 -->
<g id="node8" class="node">
<title>140017054046416</title>
<g id="a_node8"><a xlink:title="Output: 7500000 rows in 115 chunks filtered: 0, 441 µs 639 ns.">
<polygon fill="none" stroke="white" points="122,-317 0,-317 0,-203 122,-203 122,-317"/>
<text text-anchor="middle" x="61" y="-301.8" font-family="Times,serif" font-size="14.00" fill="white">GetTable</text>
<text text-anchor="middle" x="61" y="-286.8" font-family="Times,serif" font-size="14.00" fill="white">(customer)</text>
<text text-anchor="middle" x="61" y="-271.8" font-family="Times,serif" font-size="14.00" fill="white">pruned:</text>
<text text-anchor="middle" x="61" y="-256.8" font-family="Times,serif" font-size="14.00" fill="white">0/115 chunk(s)</text>
<text text-anchor="middle" x="61" y="-241.8" font-family="Times,serif" font-size="14.00" fill="white">7/8 column(s)</text>
<text text-anchor="middle" x="61" y="-210.8" font-family="Times,serif" font-size="14.00" fill="white">441 µs 639 ns</text>
</a>
</g>
</g>
<!-- 140017054046416&#45;&gt;140017053813520 -->
<g id="edge7" class="edge">
<title>140017054046416&#45;&gt;140017053813520</title>
<path fill="none" stroke="white" stroke-width="2.27" d="M61,-317.02C61,-330.77 61,-345.14 61,-357.69"/>
<polygon fill="white" stroke="white" stroke-width="2.27" points="57.5,-357.75 61,-367.75 64.5,-357.75 57.5,-357.75"/>
<text text-anchor="middle" x="170.5" y="-338.8" font-family="Times,serif" font-size="14.00" fill="white">7,500,000 row(s)/115 chunk(s)</text>
</g>
<!-- 140017053813264 -->
<g id="node9" class="node">
<title>140017053813264</title>
<g id="a_node9"><a xlink:title="Output: 74192868 rows in 1145 chunks filtered: 0, 1 ms 977 µs.">
<polygon fill="none" stroke="white" points="358,-422 254,-422 254,-368 358,-368 358,-422"/>
<text text-anchor="middle" x="306" y="-406.8" font-family="Times,serif" font-size="14.00" fill="white">Validate</text>
<text text-anchor="middle" x="306" y="-375.8" font-family="Times,serif" font-size="14.00" fill="white">1 ms 977 µs</text>
</a>
</g>
</g>
<!-- 140017053813264&#45;&gt;139948403611280 -->
<g id="edge8" class="edge">
<title>140017053813264&#45;&gt;139948403611280</title>
<path fill="none" stroke="white" stroke-width="7.92" d="M300.29,-422.04C296.79,-433.21 291.34,-445.79 283,-455 279.2,-459.2 274.99,-463.1 270.49,-466.72"/>
<polygon fill="white" stroke="white" stroke-width="7.92" points="262.13,-472.94 274.28,-472.53 270.15,-466.98 262.13,-472.94"/>
<text text-anchor="middle" x="413.5" y="-443.8" font-family="Times,serif" font-size="14.00" fill="white">74,192,868 row(s)/1,145 chunk(s)</text>
</g>
<!-- 139948403611600 -->
<g id="node10" class="node">
<title>139948403611600</title>
<g id="a_node10"><a xlink:title="Output: 74192868 rows in 1145 chunks filtered: 0, 159 ms 882 µs.&#10;Chunks: 0 skipped with no results, &#10;0 skipped with all matching, 0 scanned using binary search.">
<polygon fill="none" stroke="white" points="484,-302 140,-302 140,-218 484,-218 484,-302"/>
<text text-anchor="middle" x="312" y="-286.8" font-family="Times,serif" font-size="14.00" fill="white">TableScan</text>
<text text-anchor="middle" x="312" y="-271.8" font-family="Times,serif" font-size="14.00" fill="white">Impl: ColumnLike</text>
<text text-anchor="middle" x="312" y="-256.8" font-family="Times,serif" font-size="14.00" fill="white">o_comment NOT LIKE &#39;%express%requests%&#39;</text>
<text text-anchor="middle" x="312" y="-225.8" font-family="Times,serif" font-size="14.00" fill="white">159 ms 882 µs</text>
</a>
</g>
</g>
<!-- 139948403611600&#45;&gt;140017053813264 -->
<g id="edge9" class="edge">
<title>139948403611600&#45;&gt;140017053813264</title>
<path fill="none" stroke="white" stroke-width="7.92" d="M310.13,-302.35C309.34,-320.03 308.41,-340.5 307.64,-357.6"/>
<polygon fill="white" stroke="white" stroke-width="7.92" points="300.71,-357.45 307.18,-367.75 314.56,-358.08 300.71,-357.45"/>
<text text-anchor="middle" x="428.5" y="-338.8" font-family="Times,serif" font-size="14.00" fill="white">74,192,868 row(s)/1,145 chunk(s)</text>
</g>
<!-- 140017054046864 -->
<g id="node11" class="node">
<title>140017054046864</title>
<g id="a_node11"><a xlink:title="Output: 75000000 rows in 1145 chunks filtered: 0, 63 ms 490 µs.">
<polygon fill="none" stroke="white" points="377.5,-133 246.5,-133 246.5,-19 377.5,-19 377.5,-133"/>
<text text-anchor="middle" x="312" y="-117.8" font-family="Times,serif" font-size="14.00" fill="white">GetTable</text>
<text text-anchor="middle" x="312" y="-102.8" font-family="Times,serif" font-size="14.00" fill="white">(orders)</text>
<text text-anchor="middle" x="312" y="-87.8" font-family="Times,serif" font-size="14.00" fill="white">pruned:</text>
<text text-anchor="middle" x="312" y="-72.8" font-family="Times,serif" font-size="14.00" fill="white">0/1145 chunk(s)</text>
<text text-anchor="middle" x="312" y="-57.8" font-family="Times,serif" font-size="14.00" fill="white">6/9 column(s)</text>
<text text-anchor="middle" x="312" y="-26.8" font-family="Times,serif" font-size="14.00" fill="white">63 ms 490 µs</text>
</a>
</g>
</g>
<!-- 140017054046864&#45;&gt;139948403611600 -->
<g id="edge10" class="edge">
<title>140017054046864&#45;&gt;139948403611600</title>
<path fill="none" stroke="white" stroke-width="7.94" d="M312,-133.09C312,-156.93 312,-184.53 312,-207.81"/>
<polygon fill="white" stroke="white" stroke-width="7.94" points="305.05,-207.83 312,-217.83 318.95,-207.83 305.05,-207.83"/>
<text text-anchor="middle" x="432.5" y="-173.8" font-family="Times,serif" font-size="14.00" fill="white">75,000,000 row(s)/1,145 chunk(s)</text>
</g>
<!-- 0 -->
<g id="node12" class="node">
<title>0</title>
<polygon fill="none" stroke="white" points="395.5,-0.5 395.5,-151.5 746.5,-151.5 746.5,-0.5 395.5,-0.5"/>
<text text-anchor="middle" x="571" y="-136.3" font-family="Times,serif" font-size="14.00" fill="white">Total by operator</text>
<polyline fill="none" stroke="white" points="395.5,-128.5 746.5,-128.5 "/>
<text text-anchor="end" x="554.5" y="-113.3" font-family="Times,serif" font-size="14.00" fill="white">AggregateHash </text>
<text text-anchor="end" x="554.5" y="-98.3" font-family="Times,serif" font-size="14.00" fill="white"> JoinSimdSortMerge </text>
<text text-anchor="end" x="554.5" y="-83.3" font-family="Times,serif" font-size="14.00" fill="white"> TableScan </text>
<text text-anchor="end" x="554.5" y="-68.3" font-family="Times,serif" font-size="14.00" fill="white"> GetTable </text>
<text text-anchor="end" x="554.5" y="-53.3" font-family="Times,serif" font-size="14.00" fill="white"> Validate </text>
<text text-anchor="end" x="554.5" y="-38.3" font-family="Times,serif" font-size="14.00" fill="white"> Alias </text>
<text text-anchor="end" x="554.5" y="-23.3" font-family="Times,serif" font-size="14.00" fill="white"> Sort </text>
<text text-anchor="end" x="554.5" y="-8.3" font-family="Times,serif" font-size="14.00" fill="white">total</text>
<polyline fill="none" stroke="white" points="562.5,-0.5 562.5,-128.5 "/>
<text text-anchor="start" x="570.5" y="-113.3" font-family="Times,serif" font-size="14.00" fill="white">12 s 883 ms </text>
<text text-anchor="start" x="570.5" y="-98.3" font-family="Times,serif" font-size="14.00" fill="white"> 826 ms 243 µs </text>
<text text-anchor="start" x="570.5" y="-83.3" font-family="Times,serif" font-size="14.00" fill="white"> 159 ms 882 µs </text>
<text text-anchor="start" x="570.5" y="-68.3" font-family="Times,serif" font-size="14.00" fill="white"> 63 ms 932 µs </text>
<text text-anchor="start" x="570.5" y="-53.3" font-family="Times,serif" font-size="14.00" fill="white"> 27 ms 562 µs </text>
<text text-anchor="start" x="570.5" y="-38.3" font-family="Times,serif" font-size="14.00" fill="white"> 48 µs 536 ns </text>
<text text-anchor="start" x="570.5" y="-23.3" font-family="Times,serif" font-size="14.00" fill="white"> 21 µs 521 ns </text>
<text text-anchor="start" x="570.5" y="-8.3" font-family="Times,serif" font-size="14.00" fill="white"> 13 s 960 ms </text>
<polyline fill="none" stroke="white" points="693.5,-0.5 693.5,-128.5 "/>
<text text-anchor="start" x="701.5" y="-113.3" font-family="Times,serif" font-size="14.00" fill="white">92 %</text>
<text text-anchor="start" x="701.5" y="-98.3" font-family="Times,serif" font-size="14.00" fill="white">6 %</text>
<text text-anchor="start" x="701.5" y="-83.3" font-family="Times,serif" font-size="14.00" fill="white">1 %</text>
<text text-anchor="start" x="701.5" y="-68.3" font-family="Times,serif" font-size="14.00" fill="white">0 %</text>
<text text-anchor="start" x="701.5" y="-53.3" font-family="Times,serif" font-size="14.00" fill="white">0 %</text>
<text text-anchor="start" x="701.5" y="-38.3" font-family="Times,serif" font-size="14.00" fill="white">0 %</text>
<text text-anchor="start" x="701.5" y="-23.3" font-family="Times,serif" font-size="14.00" fill="white">0 %</text>
<text text-anchor="start" x="701.5" y="-8.3" font-family="Times,serif" font-size="14.00" fill="white"> </text>
</g>
</g>
</svg>
