<?xml version="1.0" encoding="UTF-8" standalone="no"?>
<!DOCTYPE svg PUBLIC "-//W3C//DTD SVG 1.1//EN"
 "http://www.w3.org/Graphics/SVG/1.1/DTD/svg11.dtd">
<!-- Generated by graphviz version 2.43.0 (0)
 -->
<!-- Title: G Pages: 1 -->
<svg width="937pt" height="2594pt"
 viewBox="0.00 0.00 936.50 2594.00" xmlns="http://www.w3.org/2000/svg" xmlns:xlink="http://www.w3.org/1999/xlink">
<g id="graph0" class="graph" transform="scale(1 1) rotate(0) translate(4 2590)">
<title>G</title>
<polygon fill="black" stroke="transparent" points="-4,4 -4,-2590 932.5,-2590 932.5,4 -4,4"/>
<text text-anchor="middle" x="319.5" y="-2570.8" font-family="Times,serif" font-size="14.00" fill="white">For tooltips with advanced information, hover your mouse over vertices or edge labels.</text>
<!-- 138870360898384 -->
<g id="node1" class="node">
<title>138870360898384</title>
<g id="a_node1"><a xlink:title="Output: 1747 rows in 1 chunk, 8 µs 979 ns.&#10;Operator step runtimes:&#10; ForwardUnmodifiedColumns 2 µs 309 ns&#10; EvaluateNewColumns 590 ns&#10; BuildOutput 4 µs 414 ns.">
<polygon fill="none" stroke="white" points="409,-2531 310,-2531 310,-2477 409,-2477 409,-2531"/>
<text text-anchor="middle" x="359.5" y="-2515.8" font-family="Times,serif" font-size="14.00" fill="white">Projection</text>
<text text-anchor="middle" x="359.5" y="-2484.8" font-family="Times,serif" font-size="14.00" fill="white">8 µs 979 ns</text>
</a>
</g>
</g>
<!-- 138870360898064 -->
<g id="node2" class="node">
<title>138870360898064</title>
<g id="a_node2"><a xlink:title="Output: 1747 rows in 1 chunk, 1 ms 789 µs.&#10;Operator step runtimes:&#10; MaterializeSortColumns 617 µs 440 ns&#10; Sort 1 ms 81 µs&#10; TemporaryResultWriting 4 µs 998 ns&#10; WriteOutput 51 µs 629 ns.">
<polygon fill="none" stroke="white" points="411.5,-2426 307.5,-2426 307.5,-2372 411.5,-2372 411.5,-2426"/>
<text text-anchor="middle" x="359.5" y="-2410.8" font-family="Times,serif" font-size="14.00" fill="white">Sort</text>
<text text-anchor="middle" x="359.5" y="-2379.8" font-family="Times,serif" font-size="14.00" fill="white">1 ms 789 µs</text>
</a>
</g>
</g>
<!-- 138870360898064&#45;&gt;138870360898384 -->
<g id="edge1" class="edge">
<title>138870360898064&#45;&gt;138870360898384</title>
<path fill="none" stroke="white" d="M359.5,-2426.26C359.5,-2438.49 359.5,-2453.24 359.5,-2466.52"/>
<polygon fill="white" stroke="white" points="356,-2466.79 359.5,-2476.79 363,-2466.79 356,-2466.79"/>
<text text-anchor="middle" x="444" y="-2447.8" font-family="Times,serif" font-size="14.00" fill="white">1,747 row(s)/1 chunk(s)</text>
</g>
<!-- 138870360897744 -->
<g id="node3" class="node">
<title>138870360897744</title>
<g id="a_node3"><a xlink:title="Output: 1747 rows in 1 chunk, 2 ms 858 µs.&#10;Operator step runtimes:&#10; LeftSideMaterialize 1 ms 100 µs&#10; RightSideMaterialize 15 µs 808 ns&#10; LeftSideTransform 0 ns&#10; RightSideTransform 0 ns&#10; LeftSidePartition 71 µs 373 ns&#10; RightSidePartition 18 µs 410 ns&#10; LeftSideSortBuckets 694 µs 869 ns&#10; RightSideSortBuckets 708 µs 225 ns&#10; GatherRowIds 299 ns&#10; FindJoinPartner 35 µs 158 ns&#10; OutputWriting 135 µs 529 ns.">
<polygon fill="none" stroke="white" points="464,-2321 255,-2321 255,-2252 464,-2252 464,-2321"/>
<text text-anchor="middle" x="359.5" y="-2305.8" font-family="Times,serif" font-size="14.00" fill="white">JoinSimdSortMerge (Semi)</text>
<text text-anchor="middle" x="359.5" y="-2290.8" font-family="Times,serif" font-size="14.00" fill="white">s_nationkey = n_nationkey</text>
<text text-anchor="middle" x="359.5" y="-2259.8" font-family="Times,serif" font-size="14.00" fill="white">2 ms 858 µs</text>
</a>
</g>
</g>
<!-- 138870360897744&#45;&gt;138870360898064 -->
<g id="edge2" class="edge">
<title>138870360897744&#45;&gt;138870360898064</title>
<path fill="none" stroke="white" d="M359.5,-2321.25C359.5,-2334.07 359.5,-2348.73 359.5,-2361.77"/>
<polygon fill="white" stroke="white" points="356,-2361.81 359.5,-2371.81 363,-2361.81 356,-2361.81"/>
<text text-anchor="middle" x="444" y="-2342.8" font-family="Times,serif" font-size="14.00" fill="white">1,747 row(s)/1 chunk(s)</text>
</g>
<!-- 138886750806032 -->
<g id="node4" class="node">
<title>138886750806032</title>
<g id="a_node4"><a xlink:title="Output: 44332 rows in 82 chunks, 415 µs 945 ns.">
<polygon fill="none" stroke="white" points="512,-2129 395,-2129 395,-2075 512,-2075 512,-2129"/>
<text text-anchor="middle" x="453.5" y="-2113.8" font-family="Times,serif" font-size="14.00" fill="white">Validate</text>
<text text-anchor="middle" x="453.5" y="-2082.8" font-family="Times,serif" font-size="14.00" fill="white">415 µs 945 ns</text>
</a>
</g>
</g>
<!-- 138886750806032&#45;&gt;138870360897744 -->
<g id="edge3" class="edge">
<title>138886750806032&#45;&gt;138870360897744</title>
<path fill="none" stroke="white" d="M453.94,-2129.12C453.24,-2157.1 448.64,-2201.81 428.5,-2234 426.23,-2237.64 423.59,-2241.1 420.71,-2244.39"/>
<polygon fill="white" stroke="white" points="420.55,-2244.56 418.04,-2242.13 413.6,-2251.75 420.55,-2244.56"/>
<text text-anchor="middle" x="547" y="-2170.3" font-family="Times,serif" font-size="14.00" fill="white">44,332 row(s)/82 chunk(s)</text>
</g>
<!-- 138870360896784 -->
<g id="node5" class="node">
<title>138870360896784</title>
<g id="a_node5"><a xlink:title="Output: 44332 rows in 82 chunks, 8 ms 373 µs.&#10;Operator step runtimes:&#10; LeftSideMaterialize 399 µs 250 ns&#10; RightSideMaterialize 1 ms 708 µs&#10; LeftSideTransform 0 ns&#10; RightSideTransform 0 ns&#10; LeftSidePartition 1 ms 200 µs&#10; RightSidePartition 1 ms 478 µs&#10; LeftSideSortBuckets 757 µs 54 ns&#10; RightSideSortBuckets 767 µs 258 ns&#10; GatherRowIds 568 ns&#10; FindJoinPartner 1 ms 416 µs&#10; OutputWriting 500 µs 185 ns.">
<polygon fill="none" stroke="white" stroke-width="2.18" points="478,-1929.5 269,-1929.5 269,-1860.5 478,-1860.5 478,-1929.5"/>
<text text-anchor="middle" x="373.5" y="-1914.3" font-family="Times,serif" font-size="14.00" fill="white">JoinSimdSortMerge (Semi)</text>
<text text-anchor="middle" x="373.5" y="-1899.3" font-family="Times,serif" font-size="14.00" fill="white">s_suppkey = ps_suppkey</text>
<text text-anchor="middle" x="373.5" y="-1868.3" font-family="Times,serif" font-size="14.00" fill="white">8 ms 373 µs</text>
</a>
</g>
</g>
<!-- 138870360896784&#45;&gt;138886750806032 -->
<g id="edge4" class="edge">
<title>138870360896784&#45;&gt;138886750806032</title>
<path fill="none" stroke="white" d="M415.23,-1929.7C422.35,-1937.31 428.91,-1945.86 433.5,-1955 450.79,-1989.47 454.65,-2033.96 454.91,-2064.72"/>
<polygon fill="white" stroke="white" points="451.41,-2064.98 454.86,-2074.99 458.41,-2065.01 451.41,-2064.98"/>
<text text-anchor="middle" x="533" y="-1958.8" font-family="Times,serif" font-size="14.00" fill="white">44,332 row(s)/82 chunk(s)</text>
</g>
<!-- 138870360897424 -->
<g id="node24" class="node">
<title>138870360897424</title>
<g id="a_node24"><a xlink:title="Output: 1 row in 1 chunk, 2 ms 810 µs.&#10;Operator step runtimes:&#10; LeftSideMaterialize 27 µs 408 ns&#10; RightSideMaterialize 1 ms 173 µs&#10; LeftSideTransform 0 ns&#10; RightSideTransform 0 ns&#10; LeftSidePartition 12 µs 855 ns&#10; RightSidePartition 49 µs 702 ns&#10; LeftSideSortBuckets 747 µs 149 ns&#10; RightSideSortBuckets 693 µs 906 ns&#10; GatherRowIds 625 ns&#10; FindJoinPartner 10 µs 129 ns&#10; OutputWriting 18 µs 61 ns.">
<polygon fill="none" stroke="white" points="388,-2057 103,-2057 103,-1988 388,-1988 388,-2057"/>
<text text-anchor="middle" x="245.5" y="-2041.8" font-family="Times,serif" font-size="14.00" fill="white">JoinSimdSortMerge (Semi Reduction)</text>
<text text-anchor="middle" x="245.5" y="-2026.8" font-family="Times,serif" font-size="14.00" fill="white">n_nationkey = s_nationkey</text>
<text text-anchor="middle" x="245.5" y="-1995.8" font-family="Times,serif" font-size="14.00" fill="white">2 ms 810 µs</text>
</a>
</g>
</g>
<!-- 138870360896784&#45;&gt;138870360897424 -->
<g id="edge5" class="edge">
<title>138870360896784&#45;&gt;138870360897424</title>
<path fill="none" stroke="white" d="M271.69,-1929.53C261.81,-1936.51 253.05,-1944.9 246.5,-1955 242.13,-1961.74 240.06,-1969.74 239.36,-1977.8"/>
<polygon fill="white" stroke="white" points="239.15,-1987.96 242.86,-1978.04 239.36,-1977.97 239.15,-1987.96"/>
<text text-anchor="middle" x="340" y="-1958.8" font-family="Times,serif" font-size="14.00" fill="white">44,332 row(s)/82 chunk(s)</text>
</g>
<!-- 138870289082896 -->
<g id="node6" class="node">
<title>138870289082896</title>
<g id="a_node6"><a xlink:title="Output: 100000 rows in 2 chunks, 16 µs 322 ns.">
<polygon fill="none" stroke="white" points="580,-1802 467,-1802 467,-1688 580,-1688 580,-1802"/>
<text text-anchor="middle" x="523.5" y="-1786.8" font-family="Times,serif" font-size="14.00" fill="white">GetTable</text>
<text text-anchor="middle" x="523.5" y="-1771.8" font-family="Times,serif" font-size="14.00" fill="white">(supplier)</text>
<text text-anchor="middle" x="523.5" y="-1756.8" font-family="Times,serif" font-size="14.00" fill="white">pruned:</text>
<text text-anchor="middle" x="523.5" y="-1741.8" font-family="Times,serif" font-size="14.00" fill="white">0/2 chunk(s)</text>
<text text-anchor="middle" x="523.5" y="-1726.8" font-family="Times,serif" font-size="14.00" fill="white">3/7 column(s)</text>
<text text-anchor="middle" x="523.5" y="-1695.8" font-family="Times,serif" font-size="14.00" fill="white">16 µs 322 ns</text>
</a>
</g>
</g>
<!-- 138870289082896&#45;&gt;138870360896784 -->
<g id="edge6" class="edge">
<title>138870289082896&#45;&gt;138870360896784</title>
<path fill="none" stroke="white" d="M517.59,-1802.3C514.27,-1814.04 509.21,-1825.68 501.5,-1835 495.43,-1842.34 488.25,-1848.81 480.44,-1854.51"/>
<polygon fill="white" stroke="white" points="480.01,-1854.8 478.05,-1851.9 471.73,-1860.4 480.01,-1854.8"/>
<text text-anchor="middle" x="604" y="-1823.8" font-family="Times,serif" font-size="14.00" fill="white">100,000 row(s)/2 chunk(s)</text>
</g>
<!-- 138870360868944 -->
<g id="node7" class="node">
<title>138870360868944</title>
<g id="a_node7"><a xlink:title="Output: 58450 rows in 86 chunks, 115 µs 213 ns.&#10;Operator step runtimes:&#10; ForwardUnmodifiedColumns 48 µs 749 ns&#10; EvaluateNewColumns 230 ns&#10; BuildOutput 42 µs 930 ns.">
<polygon fill="none" stroke="white" points="372,-1772 255,-1772 255,-1718 372,-1718 372,-1772"/>
<text text-anchor="middle" x="313.5" y="-1756.8" font-family="Times,serif" font-size="14.00" fill="white">Projection</text>
<text text-anchor="middle" x="313.5" y="-1725.8" font-family="Times,serif" font-size="14.00" fill="white">115 µs 213 ns</text>
</a>
</g>
</g>
<!-- 138870360868944&#45;&gt;138870360896784 -->
<g id="edge7" class="edge">
<title>138870360868944&#45;&gt;138870360896784</title>
<path fill="none" stroke="white" d="M308.72,-1772.37C306.59,-1790.67 306.17,-1815.2 314.5,-1835 317.1,-1841.19 320.7,-1847.07 324.84,-1852.56"/>
<polygon fill="white" stroke="white" points="331.25,-1860.3 327.57,-1850.36 324.88,-1852.59 331.25,-1860.3"/>
<text text-anchor="middle" x="408" y="-1823.8" font-family="Times,serif" font-size="14.00" fill="white">58,450 row(s)/86 chunk(s)</text>
</g>
<!-- 138870360868624 -->
<g id="node8" class="node">
<title>138870360868624</title>
<g id="a_node8"><a xlink:title="Output: 58450 rows in 86 chunks, 73 ms 415 µs.&#10;Operator step runtimes:&#10; LeftSideMaterialize 2 ms 205 µs&#10; RightSideMaterialize 8 ms 100 µs&#10; LeftSideTransform 0 ns&#10; RightSideTransform 0 ns&#10; LeftSidePartition 1 ms 988 µs&#10; RightSidePartition 2 ms 301 µs&#10; LeftSideSortBuckets 741 µs 655 ns&#10; RightSideSortBuckets 738 µs 218 ns&#10; GatherRowIds 1 µs 129 ns&#10; FindJoinPartner 56 ms 371 µs&#10; OutputWriting 766 µs 537 ns.">
<polygon fill="none" stroke="white" stroke-width="7.53" points="469,-1637 158,-1637 158,-1538 469,-1538 469,-1637"/>
<text text-anchor="middle" x="313.5" y="-1621.8" font-family="Times,serif" font-size="14.00" fill="white">JoinSimdSortMerge (Semi)</text>
<text text-anchor="middle" x="313.5" y="-1606.8" font-family="Times,serif" font-size="14.00" fill="white">ps_suppkey = l_suppkey</text>
<text text-anchor="middle" x="313.5" y="-1591.8" font-family="Times,serif" font-size="14.00" fill="white">AND ps_availqty &gt; 0.5 * SUM(l_quantity)</text>
<text text-anchor="middle" x="313.5" y="-1576.8" font-family="Times,serif" font-size="14.00" fill="white">AND ps_partkey = l_partkey</text>
<text text-anchor="middle" x="313.5" y="-1545.8" font-family="Times,serif" font-size="14.00" fill="white">73 ms 415 µs</text>
</a>
</g>
</g>
<!-- 138870360868624&#45;&gt;138870360868944 -->
<g id="edge8" class="edge">
<title>138870360868624&#45;&gt;138870360868944</title>
<path fill="none" stroke="white" d="M313.5,-1637.27C313.5,-1659.98 313.5,-1686.53 313.5,-1707.47"/>
<polygon fill="white" stroke="white" points="310,-1707.56 313.5,-1717.56 317,-1707.56 310,-1707.56"/>
<text text-anchor="middle" x="407" y="-1658.8" font-family="Times,serif" font-size="14.00" fill="white">58,450 row(s)/86 chunk(s)</text>
</g>
<!-- 138886750802448 -->
<g id="node9" class="node">
<title>138886750802448</title>
<g id="a_node9"><a xlink:title="Output: 86276 rows in 128 chunks, 471 µs 71 ns.">
<polygon fill="none" stroke="white" points="397.5,-864.5 289.5,-864.5 289.5,-810.5 397.5,-810.5 397.5,-864.5"/>
<text text-anchor="middle" x="343.5" y="-849.3" font-family="Times,serif" font-size="14.00" fill="white">Validate</text>
<text text-anchor="middle" x="343.5" y="-818.3" font-family="Times,serif" font-size="14.00" fill="white">471 µs 71 ns</text>
</a>
</g>
</g>
<!-- 138886750802448&#45;&gt;138870360868624 -->
<g id="edge9" class="edge">
<title>138886750802448&#45;&gt;138870360868624</title>
<path fill="none" stroke="white" d="M328.69,-864.58C315.24,-890.76 297.5,-932.65 297.5,-971.5 297.5,-971.5 297.5,-971.5 297.5,-1461 297.5,-1482.9 299.93,-1506.77 302.89,-1527.76"/>
<polygon fill="white" stroke="white" points="302.91,-1527.92 299.45,-1528.43 304.38,-1537.81 302.91,-1527.92"/>
<text text-anchor="middle" x="395.5" y="-1201.3" font-family="Times,serif" font-size="14.00" fill="white">86,276 row(s)/128 chunk(s)</text>
</g>
<!-- 138870360867984 -->
<g id="node19" class="node">
<title>138870360867984</title>
<g id="a_node19"><a xlink:title="Output: 97891 rows in 129 chunks, 48 ms 147 µs.&#10;Operator step runtimes:&#10; LeftSideMaterialize 38 ms 15 µs&#10; RightSideMaterialize 2 ms 111 µs&#10; LeftSideTransform 0 ns&#10; RightSideTransform 0 ns&#10; LeftSidePartition 2 ms 118 µs&#10; RightSidePartition 2 ms 209 µs&#10; LeftSideSortBuckets 709 µs 753 ns&#10; RightSideSortBuckets 740 µs 181 ns&#10; GatherRowIds 1 µs 231 ns&#10; FindJoinPartner 628 µs 523 ns&#10; OutputWriting 1 ms 252 µs.">
<polygon fill="none" stroke="white" stroke-width="6.49" points="713,-1127 428,-1127 428,-1058 713,-1058 713,-1127"/>
<text text-anchor="middle" x="570.5" y="-1111.8" font-family="Times,serif" font-size="14.00" fill="white">JoinSimdSortMerge (Semi Reduction)</text>
<text text-anchor="middle" x="570.5" y="-1096.8" font-family="Times,serif" font-size="14.00" fill="white">l_partkey = ps_partkey</text>
<text text-anchor="middle" x="570.5" y="-1065.8" font-family="Times,serif" font-size="14.00" fill="white">48 ms 147 µs</text>
</a>
</g>
</g>
<!-- 138886750802448&#45;&gt;138870360867984 -->
<g id="edge11" class="edge">
<title>138886750802448&#45;&gt;138870360867984</title>
<path fill="none" stroke="white" d="M337.05,-864.76C329.88,-900.57 322.97,-965.07 353.5,-1007 369.87,-1029.49 393.12,-1045.99 418.36,-1058.1"/>
<polygon fill="white" stroke="white" points="427.74,-1062.37 420.09,-1055.04 418.64,-1058.23 427.74,-1062.37"/>
<text text-anchor="middle" x="451.5" y="-968.8" font-family="Times,serif" font-size="14.00" fill="white">86,276 row(s)/128 chunk(s)</text>
</g>
<!-- 138870360867664 -->
<g id="node20" class="node">
<title>138870360867664</title>
<g id="a_node20"><a xlink:title="Output: 5291620 rows in 256 chunks, 47 ms 736 µs.&#10;Operator step runtimes:&#10; LeftSideMaterialize 14 ms 84 µs&#10; RightSideMaterialize 2 ms 159 µs&#10; LeftSideTransform 0 ns&#10; RightSideTransform 0 ns&#10; LeftSidePartition 5 ms 694 µs&#10; RightSidePartition 2 ms 394 µs&#10; LeftSideSortBuckets 6 ms 201 µs&#10; RightSideSortBuckets 726 µs 537 ns&#10; GatherRowIds 939 ns&#10; FindJoinPartner 6 ms 337 µs&#10; OutputWriting 9 ms 261 µs.">
<polygon fill="none" stroke="white" stroke-width="6.47" points="843,-1007 558,-1007 558,-938 843,-938 843,-1007"/>
<text text-anchor="middle" x="700.5" y="-991.8" font-family="Times,serif" font-size="14.00" fill="white">JoinSimdSortMerge (Semi Reduction)</text>
<text text-anchor="middle" x="700.5" y="-976.8" font-family="Times,serif" font-size="14.00" fill="white">l_suppkey = ps_suppkey</text>
<text text-anchor="middle" x="700.5" y="-945.8" font-family="Times,serif" font-size="14.00" fill="white">47 ms 736 µs</text>
</a>
</g>
</g>
<!-- 138886750802448&#45;&gt;138870360867664 -->
<g id="edge10" class="edge">
<title>138886750802448&#45;&gt;138870360867664</title>
<path fill="none" stroke="white" d="M387.26,-864.64C418.08,-882.19 460.77,-904.8 500.5,-920 515.61,-925.78 531.61,-931.13 547.72,-936.01"/>
<polygon fill="white" stroke="white" points="557.76,-938.99 549.16,-932.79 548.17,-936.14 557.76,-938.99"/>
<text text-anchor="middle" x="598.5" y="-908.8" font-family="Times,serif" font-size="14.00" fill="white">86,276 row(s)/128 chunk(s)</text>
</g>
<!-- 138870360863184 -->
<g id="node10" class="node">
<title>138870360863184</title>
<g id="a_node10"><a xlink:title="Output: 86276 rows in 128 chunks, 12 ms 38 µs.&#10;Operator step runtimes:&#10; LeftSideMaterialize 1 ms 792 µs&#10; RightSideMaterialize 535 µs 873 ns&#10; LeftSideTransform 0 ns&#10; RightSideTransform 0 ns&#10; LeftSidePartition 4 ms 986 µs&#10; RightSidePartition 1 ms 483 µs&#10; LeftSideSortBuckets 802 µs 810 ns&#10; RightSideSortBuckets 732 µs 319 ns&#10; GatherRowIds 967 ns&#10; FindJoinPartner 599 µs 315 ns&#10; OutputWriting 816 µs 714 ns.">
<polygon fill="none" stroke="white" stroke-width="3.07" points="448,-714.5 239,-714.5 239,-645.5 448,-645.5 448,-714.5"/>
<text text-anchor="middle" x="343.5" y="-699.3" font-family="Times,serif" font-size="14.00" fill="white">JoinSimdSortMerge (Semi)</text>
<text text-anchor="middle" x="343.5" y="-684.3" font-family="Times,serif" font-size="14.00" fill="white">ps_partkey = p_partkey</text>
<text text-anchor="middle" x="343.5" y="-653.3" font-family="Times,serif" font-size="14.00" fill="white">12 ms 38 µs</text>
</a>
</g>
</g>
<!-- 138870360863184&#45;&gt;138886750802448 -->
<g id="edge12" class="edge">
<title>138870360863184&#45;&gt;138886750802448</title>
<path fill="none" stroke="white" d="M343.5,-714.74C343.5,-739.86 343.5,-774.13 343.5,-799.91"/>
<polygon fill="white" stroke="white" points="340,-800.03 343.5,-810.03 347,-800.03 340,-800.03"/>
<text text-anchor="middle" x="441.5" y="-758.8" font-family="Times,serif" font-size="14.00" fill="white">86,276 row(s)/128 chunk(s)</text>
</g>
<!-- 138870289083344 -->
<g id="node11" class="node">
<title>138870289083344</title>
<g id="a_node11"><a xlink:title="Output: 8000000 rows in 123 chunks, 400 µs 469 ns.">
<polygon fill="none" stroke="white" points="283.5,-572 161.5,-572 161.5,-458 283.5,-458 283.5,-572"/>
<text text-anchor="middle" x="222.5" y="-556.8" font-family="Times,serif" font-size="14.00" fill="white">GetTable</text>
<text text-anchor="middle" x="222.5" y="-541.8" font-family="Times,serif" font-size="14.00" fill="white">(partsupp)</text>
<text text-anchor="middle" x="222.5" y="-526.8" font-family="Times,serif" font-size="14.00" fill="white">pruned:</text>
<text text-anchor="middle" x="222.5" y="-511.8" font-family="Times,serif" font-size="14.00" fill="white">0/123 chunk(s)</text>
<text text-anchor="middle" x="222.5" y="-496.8" font-family="Times,serif" font-size="14.00" fill="white">2/5 column(s)</text>
<text text-anchor="middle" x="222.5" y="-465.8" font-family="Times,serif" font-size="14.00" fill="white">400 µs 469 ns</text>
</a>
</g>
</g>
<!-- 138870289083344&#45;&gt;138870360863184 -->
<g id="edge13" class="edge">
<title>138870289083344&#45;&gt;138870360863184</title>
<path fill="none" stroke="white" stroke-width="3.03" d="M214.79,-572.36C215.48,-583.73 217.95,-595.18 223.5,-605 231.16,-618.54 242.42,-629.93 255.01,-639.38"/>
<polygon fill="white" stroke="white" stroke-width="3.03" points="255.28,-639.57 253.26,-642.43 263.45,-645.32 255.28,-639.57"/>
<text text-anchor="middle" x="333" y="-593.8" font-family="Times,serif" font-size="14.00" fill="white">8,000,000 row(s)/123 chunk(s)</text>
</g>
<!-- 138870360862544 -->
<g id="node12" class="node">
<title>138870360862544</title>
<g id="a_node12"><a xlink:title="Output: 21569 rows in 31 chunks, 30 µs 746 ns.&#10;Operator step runtimes:&#10; ForwardUnmodifiedColumns 9 µs 691 ns&#10; EvaluateNewColumns 131 ns&#10; BuildOutput 8 µs 937 ns.">
<polygon fill="none" stroke="white" points="518.5,-542 410.5,-542 410.5,-488 518.5,-488 518.5,-542"/>
<text text-anchor="middle" x="464.5" y="-526.8" font-family="Times,serif" font-size="14.00" fill="white">Projection</text>
<text text-anchor="middle" x="464.5" y="-495.8" font-family="Times,serif" font-size="14.00" fill="white">30 µs 746 ns</text>
</a>
</g>
</g>
<!-- 138870360862544&#45;&gt;138870360863184 -->
<g id="edge14" class="edge">
<title>138870360862544&#45;&gt;138870360863184</title>
<path fill="none" stroke="white" d="M462.73,-542.02C460.39,-560.84 454.99,-586.16 442.5,-605 433.99,-617.84 422.46,-629.29 410.29,-639.13"/>
<polygon fill="white" stroke="white" points="402.22,-645.36 412.28,-642.02 410.14,-639.25 402.22,-645.36"/>
<text text-anchor="middle" x="544" y="-593.8" font-family="Times,serif" font-size="14.00" fill="white">21,569 row(s)/31 chunk(s)</text>
</g>
<!-- 138886750798096 -->
<g id="node13" class="node">
<title>138886750798096</title>
<g id="a_node13"><a xlink:title="Output: 21569 rows in 31 chunks, 76 µs 787 ns.">
<polygon fill="none" stroke="white" points="518.5,-407 410.5,-407 410.5,-353 518.5,-353 518.5,-407"/>
<text text-anchor="middle" x="464.5" y="-391.8" font-family="Times,serif" font-size="14.00" fill="white">Validate</text>
<text text-anchor="middle" x="464.5" y="-360.8" font-family="Times,serif" font-size="14.00" fill="white">76 µs 787 ns</text>
</a>
</g>
</g>
<!-- 138886750798096&#45;&gt;138870360862544 -->
<g id="edge15" class="edge">
<title>138886750798096&#45;&gt;138870360862544</title>
<path fill="none" stroke="white" d="M464.5,-407.28C464.5,-427.41 464.5,-455.41 464.5,-477.68"/>
<polygon fill="white" stroke="white" points="461,-477.78 464.5,-487.78 468,-477.78 461,-477.78"/>
<text text-anchor="middle" x="558" y="-428.8" font-family="Times,serif" font-size="14.00" fill="white">21,569 row(s)/31 chunk(s)</text>
</g>
<!-- 138870360842384 -->
<g id="node14" class="node">
<title>138870360842384</title>
<g id="a_node14"><a xlink:title="Output: 21569 rows in 31 chunks, 314 µs 29 ns.&#10;Chunks: 0 skipped with no results, &#10;0 skipped with all matching, 0 scanned using binary search.">
<polygon fill="none" stroke="white" points="663.5,-302 265.5,-302 265.5,-203 663.5,-203 663.5,-302"/>
<text text-anchor="middle" x="464.5" y="-286.8" font-family="Times,serif" font-size="14.00" fill="white">TableScan</text>
<text text-anchor="middle" x="464.5" y="-271.8" font-family="Times,serif" font-size="14.00" fill="white">Impl: ColumnBetween</text>
<text text-anchor="middle" x="464.5" y="-256.8" font-family="Times,serif" font-size="14.00" fill="white">p_name BETWEEN UPPER EXCLUSIVE &#39;chiffon&#39; AND</text>
<text text-anchor="middle" x="464.5" y="-241.8" font-family="Times,serif" font-size="14.00" fill="white">&#39;chiffoo&#39;</text>
<text text-anchor="middle" x="464.5" y="-210.8" font-family="Times,serif" font-size="14.00" fill="white">314 µs 29 ns</text>
</a>
</g>
</g>
<!-- 138870360842384&#45;&gt;138886750798096 -->
<g id="edge16" class="edge">
<title>138870360842384&#45;&gt;138886750798096</title>
<path fill="none" stroke="white" d="M464.5,-302.02C464.5,-315.49 464.5,-329.89 464.5,-342.54"/>
<polygon fill="white" stroke="white" points="461,-342.7 464.5,-352.7 468,-342.7 461,-342.7"/>
<text text-anchor="middle" x="558" y="-323.8" font-family="Times,serif" font-size="14.00" fill="white">21,569 row(s)/31 chunk(s)</text>
</g>
<!-- 138870289089616 -->
<g id="node15" class="node">
<title>138870289089616</title>
<g id="a_node15"><a xlink:title="Output: 2000000 rows in 31 chunks, 75 µs 973 ns.">
<polygon fill="none" stroke="white" points="521,-133 408,-133 408,-19 521,-19 521,-133"/>
<text text-anchor="middle" x="464.5" y="-117.8" font-family="Times,serif" font-size="14.00" fill="white">GetTable</text>
<text text-anchor="middle" x="464.5" y="-102.8" font-family="Times,serif" font-size="14.00" fill="white">(part)</text>
<text text-anchor="middle" x="464.5" y="-87.8" font-family="Times,serif" font-size="14.00" fill="white">pruned:</text>
<text text-anchor="middle" x="464.5" y="-72.8" font-family="Times,serif" font-size="14.00" fill="white">0/31 chunk(s)</text>
<text text-anchor="middle" x="464.5" y="-57.8" font-family="Times,serif" font-size="14.00" fill="white">7/9 column(s)</text>
<text text-anchor="middle" x="464.5" y="-26.8" font-family="Times,serif" font-size="14.00" fill="white">75 µs 973 ns</text>
</a>
</g>
</g>
<!-- 138870289089616&#45;&gt;138870360842384 -->
<g id="edge17" class="edge">
<title>138870289089616&#45;&gt;138870360842384</title>
<path fill="none" stroke="white" d="M464.5,-133.17C464.5,-152.18 464.5,-173.44 464.5,-192.64"/>
<polygon fill="white" stroke="white" points="461,-192.77 464.5,-202.77 468,-192.77 461,-192.77"/>
<text text-anchor="middle" x="569.5" y="-173.8" font-family="Times,serif" font-size="14.00" fill="white">2,000,000 row(s)/31 chunk(s)</text>
</g>
<!-- 138870360868304 -->
<g id="node16" class="node">
<title>138870360868304</title>
<g id="a_node16"><a xlink:title="Output: 58570 rows in 1 chunk, 323 µs 885 ns.&#10;Operator step runtimes:&#10; ForwardUnmodifiedColumns 12 µs 94 ns&#10; EvaluateNewColumns 256 µs 133 ns&#10; BuildOutput 46 µs 248 ns.">
<polygon fill="none" stroke="white" points="455,-1487 338,-1487 338,-1433 455,-1433 455,-1487"/>
<text text-anchor="middle" x="396.5" y="-1471.8" font-family="Times,serif" font-size="14.00" fill="white">Projection</text>
<text text-anchor="middle" x="396.5" y="-1440.8" font-family="Times,serif" font-size="14.00" fill="white">323 µs 885 ns</text>
</a>
</g>
</g>
<!-- 138870360868304&#45;&gt;138870360868624 -->
<g id="edge18" class="edge">
<title>138870360868304&#45;&gt;138870360868624</title>
<path fill="none" stroke="white" d="M379.3,-1487C371.17,-1499.31 361.1,-1514.52 351.32,-1529.32"/>
<polygon fill="white" stroke="white" points="345.6,-1537.96 354.04,-1531.55 351.12,-1529.62 345.6,-1537.96"/>
<text text-anchor="middle" x="456.5" y="-1508.8" font-family="Times,serif" font-size="14.00" fill="white">58,570 row(s)/1 chunk(s)</text>
</g>
<!-- 138886750936592 -->
<g id="node17" class="node">
<title>138886750936592</title>
<g id="a_node17"><a xlink:title="Output: 58570 rows in 1 chunk, 88 ms 711 µs.&#10;Operator step runtimes:&#10; GroupByKeyPartitioning 44 ms 499 µs&#10; Aggregating 42 ms 671 µs&#10; GroupByColumnsWriting 1 ms 27 µs&#10; AggregateColumnsWriting 461 µs 1 ns&#10; OutputWriting 16 µs 612 ns.">
<polygon fill="none" stroke="white" stroke-width="8" points="572.5,-1382 406.5,-1382 406.5,-1283 572.5,-1283 572.5,-1382"/>
<text text-anchor="middle" x="489.5" y="-1366.8" font-family="Times,serif" font-size="14.00" fill="white">AggregateHash</text>
<text text-anchor="middle" x="489.5" y="-1351.8" font-family="Times,serif" font-size="14.00" fill="white">GroupBy {l_suppkey,</text>
<text text-anchor="middle" x="489.5" y="-1336.8" font-family="Times,serif" font-size="14.00" fill="white">l_partkey}</text>
<text text-anchor="middle" x="489.5" y="-1321.8" font-family="Times,serif" font-size="14.00" fill="white">SUM(l_quantity)</text>
<text text-anchor="middle" x="489.5" y="-1290.8" font-family="Times,serif" font-size="14.00" fill="white">88 ms 711 µs</text>
</a>
</g>
</g>
<!-- 138886750936592&#45;&gt;138870360868304 -->
<g id="edge19" class="edge">
<title>138886750936592&#45;&gt;138870360868304</title>
<path fill="none" stroke="white" d="M453.54,-1382.02C443.06,-1396.17 431.82,-1411.33 422.12,-1424.43"/>
<polygon fill="white" stroke="white" points="419.13,-1422.59 415.99,-1432.7 424.75,-1426.75 419.13,-1422.59"/>
<text text-anchor="middle" x="529.5" y="-1403.8" font-family="Times,serif" font-size="14.00" fill="white">58,570 row(s)/1 chunk(s)</text>
</g>
<!-- 138886750805520 -->
<g id="node18" class="node">
<title>138886750805520</title>
<g id="a_node18"><a xlink:title="Output: 97891 rows in 129 chunks, 720 µs 447 ns.">
<polygon fill="none" stroke="white" points="629,-1232 512,-1232 512,-1178 629,-1178 629,-1232"/>
<text text-anchor="middle" x="570.5" y="-1216.8" font-family="Times,serif" font-size="14.00" fill="white">Validate</text>
<text text-anchor="middle" x="570.5" y="-1185.8" font-family="Times,serif" font-size="14.00" fill="white">720 µs 447 ns</text>
</a>
</g>
</g>
<!-- 138886750805520&#45;&gt;138886750936592 -->
<g id="edge20" class="edge">
<title>138886750805520&#45;&gt;138886750936592</title>
<path fill="none" stroke="white" d="M553.72,-1232C545.78,-1244.31 535.96,-1259.52 526.41,-1274.32"/>
<polygon fill="white" stroke="white" points="523.31,-1272.66 520.83,-1282.96 529.19,-1276.45 523.31,-1272.66"/>
<text text-anchor="middle" x="639.5" y="-1253.8" font-family="Times,serif" font-size="14.00" fill="white">97,891 row(s)/129 chunk(s)</text>
</g>
<!-- 138870360867984&#45;&gt;138886750805520 -->
<g id="edge21" class="edge">
<title>138870360867984&#45;&gt;138886750805520</title>
<path fill="none" stroke="white" d="M570.5,-1127.25C570.5,-1140.07 570.5,-1154.73 570.5,-1167.77"/>
<polygon fill="white" stroke="white" points="567,-1167.81 570.5,-1177.81 574,-1167.81 567,-1167.81"/>
<text text-anchor="middle" x="668.5" y="-1148.8" font-family="Times,serif" font-size="14.00" fill="white">97,891 row(s)/129 chunk(s)</text>
</g>
<!-- 138870360867664&#45;&gt;138870360867984 -->
<g id="edge22" class="edge">
<title>138870360867664&#45;&gt;138870360867984</title>
<path fill="none" stroke="white" stroke-width="2.01" d="M663.25,-1007.31C648.29,-1020.89 630.92,-1036.66 615.28,-1050.86"/>
<polygon fill="white" stroke="white" stroke-width="2.01" points="615.16,-1050.96 612.81,-1048.37 607.76,-1057.68 615.16,-1050.96"/>
<text text-anchor="middle" x="752" y="-1028.8" font-family="Times,serif" font-size="14.00" fill="white">5,291,620 row(s)/256 chunk(s)</text>
</g>
<!-- 138870360864464 -->
<g id="node21" class="node">
<title>138870360864464</title>
<g id="a_node21"><a xlink:title="Output: 9123688 rows in 916 chunks, 6 ms 493 µs.&#10;Chunks: 0 skipped with no results, &#10;0 skipped with all matching, 0 scanned using binary search.">
<polygon fill="none" stroke="white" stroke-width="1.55" points="906.5,-887 494.5,-887 494.5,-788 906.5,-788 906.5,-887"/>
<text text-anchor="middle" x="700.5" y="-871.8" font-family="Times,serif" font-size="14.00" fill="white">TableScan</text>
<text text-anchor="middle" x="700.5" y="-856.8" font-family="Times,serif" font-size="14.00" fill="white">Impl: ColumnBetween</text>
<text text-anchor="middle" x="700.5" y="-841.8" font-family="Times,serif" font-size="14.00" fill="white">l_shipdate BETWEEN UPPER EXCLUSIVE &#39;1996&#45;01&#45;01&#39;</text>
<text text-anchor="middle" x="700.5" y="-826.8" font-family="Times,serif" font-size="14.00" fill="white">AND &#39;1997&#45;01&#45;01&#39;</text>
<text text-anchor="middle" x="700.5" y="-795.8" font-family="Times,serif" font-size="14.00" fill="white">6 ms 493 µs</text>
</a>
</g>
</g>
<!-- 138870360864464&#45;&gt;138870360867664 -->
<g id="edge23" class="edge">
<title>138870360864464&#45;&gt;138870360867664</title>
<path fill="none" stroke="white" stroke-width="3.36" d="M700.5,-887.27C700.5,-900.49 700.5,-914.72 700.5,-927.65"/>
<polygon fill="white" stroke="white" stroke-width="3.36" points="700.5,-927.7 697,-927.7 700.5,-937.7 700.5,-927.7"/>
<text text-anchor="middle" x="810" y="-908.8" font-family="Times,serif" font-size="14.00" fill="white">9,123,688 row(s)/916 chunk(s)</text>
</g>
<!-- 138870289090064 -->
<g id="node22" class="node">
<title>138870289090064</title>
<g id="a_node22"><a xlink:title="Output: 59986052 rows in 916 chunks, 2 ms 275 µs.">
<polygon fill="none" stroke="white" points="766,-737 635,-737 635,-623 766,-623 766,-737"/>
<text text-anchor="middle" x="700.5" y="-721.8" font-family="Times,serif" font-size="14.00" fill="white">GetTable</text>
<text text-anchor="middle" x="700.5" y="-706.8" font-family="Times,serif" font-size="14.00" fill="white">(lineitem)</text>
<text text-anchor="middle" x="700.5" y="-691.8" font-family="Times,serif" font-size="14.00" fill="white">pruned:</text>
<text text-anchor="middle" x="700.5" y="-676.8" font-family="Times,serif" font-size="14.00" fill="white">0/916 chunk(s)</text>
<text text-anchor="middle" x="700.5" y="-661.8" font-family="Times,serif" font-size="14.00" fill="white">12/16 column(s)</text>
<text text-anchor="middle" x="700.5" y="-630.8" font-family="Times,serif" font-size="14.00" fill="white">2 ms 275 µs</text>
</a>
</g>
</g>
<!-- 138870289090064&#45;&gt;138870360864464 -->
<g id="edge24" class="edge">
<title>138870289090064&#45;&gt;138870360864464</title>
<path fill="none" stroke="white" stroke-width="8" d="M700.5,-737.14C700.5,-750.38 700.5,-764.53 700.5,-777.88"/>
<polygon fill="white" stroke="white" stroke-width="8" points="693.5,-777.9 700.5,-787.9 707.5,-777.9 693.5,-777.9"/>
<text text-anchor="middle" x="814.5" y="-758.8" font-family="Times,serif" font-size="14.00" fill="white">59,986,052 row(s)/916 chunk(s)</text>
</g>
<!-- 138886750802704 -->
<g id="node23" class="node">
<title>138886750802704</title>
<g id="a_node23"><a xlink:title="Output: 1 row in 1 chunk, 8 µs 621 ns.">
<polygon fill="none" stroke="white" points="321,-2201 222,-2201 222,-2147 321,-2147 321,-2201"/>
<text text-anchor="middle" x="271.5" y="-2185.8" font-family="Times,serif" font-size="14.00" fill="white">Validate</text>
<text text-anchor="middle" x="271.5" y="-2154.8" font-family="Times,serif" font-size="14.00" fill="white">8 µs 621 ns</text>
</a>
</g>
</g>
<!-- 138886750802704&#45;&gt;138870360897744 -->
<g id="edge25" class="edge">
<title>138886750802704&#45;&gt;138870360897744</title>
<path fill="none" stroke="white" d="M276.27,-2201.28C279.14,-2212.12 283.62,-2224.37 290.5,-2234 293.16,-2237.73 296.18,-2241.3 299.42,-2244.7"/>
<polygon fill="white" stroke="white" points="306.84,-2251.87 302.08,-2242.4 299.65,-2244.92 306.84,-2251.87"/>
<text text-anchor="middle" x="359.5" y="-2222.8" font-family="Times,serif" font-size="14.00" fill="white">1 row(s)/1 chunk(s)</text>
</g>
<!-- 138870360897424&#45;&gt;138886750802704 -->
<g id="edge26" class="edge">
<title>138870360897424&#45;&gt;138886750802704</title>
<path fill="none" stroke="white" d="M242.09,-2057.33C240.97,-2078.31 241.3,-2105.63 247.5,-2129 248.25,-2131.84 249.22,-2134.69 250.34,-2137.51"/>
<polygon fill="white" stroke="white" points="247.28,-2139.23 254.62,-2146.87 253.65,-2136.32 247.28,-2139.23"/>
<text text-anchor="middle" x="316.5" y="-2098.3" font-family="Times,serif" font-size="14.00" fill="white">1 row(s)/1 chunk(s)</text>
</g>
<!-- 138870360897104 -->
<g id="node25" class="node">
<title>138870360897104</title>
<g id="a_node25"><a xlink:title="Output: 1 row in 1 chunk, 41 µs 660 ns.&#10;Chunks: 0 skipped with no results, &#10;0 skipped with all matching, 0 scanned using binary search.">
<polygon fill="none" stroke="white" points="169,-1937 0,-1937 0,-1853 169,-1853 169,-1937"/>
<text text-anchor="middle" x="84.5" y="-1921.8" font-family="Times,serif" font-size="14.00" fill="white">TableScan</text>
<text text-anchor="middle" x="84.5" y="-1906.8" font-family="Times,serif" font-size="14.00" fill="white">Impl: ColumnVsValue</text>
<text text-anchor="middle" x="84.5" y="-1891.8" font-family="Times,serif" font-size="14.00" fill="white">n_name = &#39;JORDAN&#39;</text>
<text text-anchor="middle" x="84.5" y="-1860.8" font-family="Times,serif" font-size="14.00" fill="white">41 µs 660 ns</text>
</a>
</g>
</g>
<!-- 138870360897104&#45;&gt;138870360897424 -->
<g id="edge27" class="edge">
<title>138870360897104&#45;&gt;138870360897424</title>
<path fill="none" stroke="white" d="M85.41,-1937.38C87.51,-1949.05 91.67,-1961 99.5,-1970 103.19,-1974.25 107.26,-1978.14 111.61,-1981.72"/>
<polygon fill="white" stroke="white" points="111.74,-1981.81 109.64,-1984.61 119.74,-1987.81 111.74,-1981.81"/>
<text text-anchor="middle" x="168.5" y="-1958.8" font-family="Times,serif" font-size="14.00" fill="white">1 row(s)/1 chunk(s)</text>
</g>
<!-- 138870289108432 -->
<g id="node26" class="node">
<title>138870289108432</title>
<g id="a_node26"><a xlink:title="Output: 25 rows in 1 chunk, 15 µs 850 ns.">
<polygon fill="none" stroke="white" points="141,-1802 28,-1802 28,-1688 141,-1688 141,-1802"/>
<text text-anchor="middle" x="84.5" y="-1786.8" font-family="Times,serif" font-size="14.00" fill="white">GetTable</text>
<text text-anchor="middle" x="84.5" y="-1771.8" font-family="Times,serif" font-size="14.00" fill="white">(nation)</text>
<text text-anchor="middle" x="84.5" y="-1756.8" font-family="Times,serif" font-size="14.00" fill="white">pruned:</text>
<text text-anchor="middle" x="84.5" y="-1741.8" font-family="Times,serif" font-size="14.00" fill="white">0/1 chunk(s)</text>
<text text-anchor="middle" x="84.5" y="-1726.8" font-family="Times,serif" font-size="14.00" fill="white">2/4 column(s)</text>
<text text-anchor="middle" x="84.5" y="-1695.8" font-family="Times,serif" font-size="14.00" fill="white">15 µs 850 ns</text>
</a>
</g>
</g>
<!-- 138870289108432&#45;&gt;138870360897104 -->
<g id="edge28" class="edge">
<title>138870289108432&#45;&gt;138870360897104</title>
<path fill="none" stroke="white" d="M84.5,-1802.37C84.5,-1815.65 84.5,-1829.74 84.5,-1842.77"/>
<polygon fill="white" stroke="white" points="81,-1842.97 84.5,-1852.97 88,-1842.97 81,-1842.97"/>
<text text-anchor="middle" x="158" y="-1823.8" font-family="Times,serif" font-size="14.00" fill="white">25 row(s)/1 chunk(s)</text>
</g>
<!-- 0 -->
<g id="node27" class="node">
<title>0</title>
<polygon fill="none" stroke="white" points="539.5,-0.5 539.5,-151.5 885.5,-151.5 885.5,-0.5 539.5,-0.5"/>
<text text-anchor="middle" x="712.5" y="-136.3" font-family="Times,serif" font-size="14.00" fill="white">Total by operator</text>
<polyline fill="none" stroke="white" points="539.5,-128.5 885.5,-128.5 "/>
<text text-anchor="end" x="693.5" y="-113.3" font-family="Times,serif" font-size="14.00" fill="white">JoinSimdSortMerge </text>
<text text-anchor="end" x="693.5" y="-98.3" font-family="Times,serif" font-size="14.00" fill="white"> AggregateHash </text>
<text text-anchor="end" x="693.5" y="-83.3" font-family="Times,serif" font-size="14.00" fill="white"> TableScan </text>
<text text-anchor="end" x="693.5" y="-68.3" font-family="Times,serif" font-size="14.00" fill="white"> GetTable </text>
<text text-anchor="end" x="693.5" y="-53.3" font-family="Times,serif" font-size="14.00" fill="white"> Sort </text>
<text text-anchor="end" x="693.5" y="-38.3" font-family="Times,serif" font-size="14.00" fill="white"> Validate </text>
<text text-anchor="end" x="693.5" y="-23.3" font-family="Times,serif" font-size="14.00" fill="white"> Projection </text>
<text text-anchor="end" x="693.5" y="-8.3" font-family="Times,serif" font-size="14.00" fill="white">total</text>
<polyline fill="none" stroke="white" points="701.5,-0.5 701.5,-128.5 "/>
<text text-anchor="start" x="709.5" y="-113.3" font-family="Times,serif" font-size="14.00" fill="white">195 ms 377 µs </text>
<text text-anchor="start" x="709.5" y="-98.3" font-family="Times,serif" font-size="14.00" fill="white"> 88 ms 711 µs </text>
<text text-anchor="start" x="709.5" y="-83.3" font-family="Times,serif" font-size="14.00" fill="white"> 6 ms 849 µs </text>
<text text-anchor="start" x="709.5" y="-68.3" font-family="Times,serif" font-size="14.00" fill="white"> 2 ms 784 µs </text>
<text text-anchor="start" x="709.5" y="-53.3" font-family="Times,serif" font-size="14.00" fill="white"> 1 ms 789 µs </text>
<text text-anchor="start" x="709.5" y="-38.3" font-family="Times,serif" font-size="14.00" fill="white"> 1 ms 693 µs </text>
<text text-anchor="start" x="709.5" y="-23.3" font-family="Times,serif" font-size="14.00" fill="white"> 478 µs 823 ns </text>
<text text-anchor="start" x="709.5" y="-8.3" font-family="Times,serif" font-size="14.00" fill="white"> 297 ms 681 µs </text>
<polyline fill="none" stroke="white" points="832.5,-0.5 832.5,-128.5 "/>
<text text-anchor="start" x="840.5" y="-113.3" font-family="Times,serif" font-size="14.00" fill="white">66 %</text>
<text text-anchor="start" x="840.5" y="-98.3" font-family="Times,serif" font-size="14.00" fill="white">30 %</text>
<text text-anchor="start" x="840.5" y="-83.3" font-family="Times,serif" font-size="14.00" fill="white">2 %</text>
<text text-anchor="start" x="840.5" y="-68.3" font-family="Times,serif" font-size="14.00" fill="white">1 %</text>
<text text-anchor="start" x="840.5" y="-53.3" font-family="Times,serif" font-size="14.00" fill="white">1 %</text>
<text text-anchor="start" x="840.5" y="-38.3" font-family="Times,serif" font-size="14.00" fill="white">1 %</text>
<text text-anchor="start" x="840.5" y="-23.3" font-family="Times,serif" font-size="14.00" fill="white">0 %</text>
<text text-anchor="start" x="840.5" y="-8.3" font-family="Times,serif" font-size="14.00" fill="white"> </text>
</g>
</g>
</svg>
