<?xml version="1.0" encoding="UTF-8" standalone="no"?>
<!DOCTYPE svg PUBLIC "-//W3C//DTD SVG 1.1//EN"
 "http://www.w3.org/Graphics/SVG/1.1/DTD/svg11.dtd">
<!-- Generated by graphviz version 2.43.0 (0)
 -->
<!-- Title: G Pages: 1 -->
<svg width="977pt" height="1829pt"
 viewBox="0.00 0.00 976.50 1829.00" xmlns="http://www.w3.org/2000/svg" xmlns:xlink="http://www.w3.org/1999/xlink">
<g id="graph0" class="graph" transform="scale(1 1) rotate(0) translate(4 1825)">
<title>G</title>
<polygon fill="black" stroke="transparent" points="-4,4 -4,-1825 972.5,-1825 972.5,4 -4,4"/>
<text text-anchor="middle" x="319.5" y="-1805.8" font-family="Times,serif" font-size="14.00" fill="white">For tooltips with advanced information, hover your mouse over vertices or edge labels.</text>
<!-- 138870535902864 -->
<g id="node1" class="node">
<title>138870535902864</title>
<g id="a_node1"><a xlink:title="Output: 8440 rows in 1 chunk, 6 µs 173 ns.">
<polygon fill="none" stroke="white" points="278.5,-1766 128.5,-1766 128.5,-1697 278.5,-1697 278.5,-1766"/>
<text text-anchor="middle" x="203.5" y="-1750.8" font-family="Times,serif" font-size="14.00" fill="white">Alias</text>
<text text-anchor="middle" x="203.5" y="-1735.8" font-family="Times,serif" font-size="14.00" fill="white">[ps_partkey, value]</text>
<text text-anchor="middle" x="203.5" y="-1704.8" font-family="Times,serif" font-size="14.00" fill="white">6 µs 173 ns</text>
</a>
</g>
</g>
<!-- 138870535902544 -->
<g id="node2" class="node">
<title>138870535902544</title>
<g id="a_node2"><a xlink:title="Output: 8440 rows in 1 chunk, 711 µs 816 ns.&#10;Operator step runtimes:&#10; MaterializeSortColumns 100 µs 346 ns&#10; Sort 489 µs 929 ns&#10; TemporaryResultWriting 19 µs 719 ns&#10; WriteOutput 98 µs 382 ns.">
<polygon fill="none" stroke="white" points="262,-1646 145,-1646 145,-1592 262,-1592 262,-1646"/>
<text text-anchor="middle" x="203.5" y="-1630.8" font-family="Times,serif" font-size="14.00" fill="white">Sort</text>
<text text-anchor="middle" x="203.5" y="-1599.8" font-family="Times,serif" font-size="14.00" fill="white">711 µs 816 ns</text>
</a>
</g>
</g>
<!-- 138870535902544&#45;&gt;138870535902864 -->
<g id="edge1" class="edge">
<title>138870535902544&#45;&gt;138870535902864</title>
<path fill="none" stroke="white" d="M203.5,-1646.19C203.5,-1658.29 203.5,-1673 203.5,-1686.72"/>
<polygon fill="white" stroke="white" points="200,-1686.95 203.5,-1696.95 207,-1686.96 200,-1686.95"/>
<text text-anchor="middle" x="288" y="-1667.8" font-family="Times,serif" font-size="14.00" fill="white">8,440 row(s)/1 chunk(s)</text>
</g>
<!-- 138870535902224 -->
<g id="node3" class="node">
<title>138870535902224</title>
<g id="a_node3"><a xlink:title="Output: 8440 rows in 5 chunks, 173 µs 691 ns.&#10;Chunks: 0 skipped with no results, &#10;0 skipped with all matching, 0 scanned using binary search.">
<polygon fill="none" stroke="white" points="407,-1541 0,-1541 0,-1442 407,-1442 407,-1541"/>
<text text-anchor="middle" x="203.5" y="-1525.8" font-family="Times,serif" font-size="14.00" fill="white">TableScan</text>
<text text-anchor="middle" x="203.5" y="-1510.8" font-family="Times,serif" font-size="14.00" fill="white">Impl: ColumnVsValue</text>
<text text-anchor="middle" x="203.5" y="-1495.8" font-family="Times,serif" font-size="14.00" fill="white">SUM(ps_supplycost * ps_availqty) &gt; SUBQUERY (PQP,</text>
<text text-anchor="middle" x="203.5" y="-1480.8" font-family="Times,serif" font-size="14.00" fill="white">0x7e4d50f652d0)</text>
<text text-anchor="middle" x="203.5" y="-1449.8" font-family="Times,serif" font-size="14.00" fill="white">173 µs 691 ns</text>
</a>
</g>
</g>
<!-- 138870535902224&#45;&gt;138870535902544 -->
<g id="edge2" class="edge">
<title>138870535902224&#45;&gt;138870535902544</title>
<path fill="none" stroke="white" d="M203.5,-1541.02C203.5,-1554.49 203.5,-1568.89 203.5,-1581.54"/>
<polygon fill="white" stroke="white" points="200,-1581.7 203.5,-1591.7 207,-1581.7 200,-1581.7"/>
<text text-anchor="middle" x="288" y="-1562.8" font-family="Times,serif" font-size="14.00" fill="white">8,440 row(s)/5 chunk(s)</text>
</g>
<!-- 138887085491216 -->
<g id="node4" class="node">
<title>138887085491216</title>
<g id="a_node4"><a xlink:title="Output: 306965 rows in 5 chunks, 56 ms 107 µs.&#10;Operator step runtimes:&#10; GroupByKeyPartitioning 34 ms 981 µs&#10; Aggregating 14 ms 383 µs&#10; GroupByColumnsWriting 566 µs 563 ns&#10; AggregateColumnsWriting 6 ms 134 µs&#10; OutputWriting 9 µs 446 ns.">
<polygon fill="none" stroke="white" stroke-width="8" points="324,-1319 65,-1319 65,-1235 324,-1235 324,-1319"/>
<text text-anchor="middle" x="194.5" y="-1303.8" font-family="Times,serif" font-size="14.00" fill="white">AggregateHash</text>
<text text-anchor="middle" x="194.5" y="-1288.8" font-family="Times,serif" font-size="14.00" fill="white">GroupBy {ps_partkey}</text>
<text text-anchor="middle" x="194.5" y="-1273.8" font-family="Times,serif" font-size="14.00" fill="white">SUM(ps_supplycost * ps_availqty)</text>
<text text-anchor="middle" x="194.5" y="-1242.8" font-family="Times,serif" font-size="14.00" fill="white">56 ms 107 µs</text>
</a>
</g>
</g>
<!-- 138887085491216&#45;&gt;138870535902224 -->
<g id="edge3" class="edge">
<title>138887085491216&#45;&gt;138870535902224</title>
<path fill="none" stroke="white" d="M194.71,-1319.08C194.95,-1340.52 195.45,-1367.18 196.5,-1391 197.08,-1404.23 197.94,-1418.44 198.86,-1431.87"/>
<polygon fill="white" stroke="white" points="195.38,-1432.22 199.57,-1441.95 202.36,-1431.72 195.38,-1432.22"/>
<text text-anchor="middle" x="290" y="-1360.3" font-family="Times,serif" font-size="14.00" fill="white">306,965 row(s)/5 chunk(s)</text>
</g>
<!-- 138870535901264 -->
<g id="node5" class="node">
<title>138870535901264</title>
<g id="a_node5"><a xlink:title="Output: 326320 rows in 256 chunks, 13 ms 30 µs.&#10;Operator step runtimes:&#10; ForwardUnmodifiedColumns 624 µs 617 ns&#10; EvaluateNewColumns 11 ms 786 µs&#10; BuildOutput 527 µs 488 ns.">
<polygon fill="none" stroke="white" stroke-width="4.4" points="259.5,-1082 155.5,-1082 155.5,-1028 259.5,-1028 259.5,-1082"/>
<text text-anchor="middle" x="207.5" y="-1066.8" font-family="Times,serif" font-size="14.00" fill="white">Projection</text>
<text text-anchor="middle" x="207.5" y="-1035.8" font-family="Times,serif" font-size="14.00" fill="white">13 ms 30 µs</text>
</a>
</g>
</g>
<!-- 138870535901264&#45;&gt;138887085491216 -->
<g id="edge4" class="edge">
<title>138870535901264&#45;&gt;138887085491216</title>
<path fill="none" stroke="white" d="M205.96,-1082.1C203.89,-1117.16 200.16,-1180.21 197.52,-1224.88"/>
<polygon fill="white" stroke="white" points="194.02,-1224.78 196.92,-1234.97 201.01,-1225.19 194.02,-1224.78"/>
<text text-anchor="middle" x="308" y="-1103.8" font-family="Times,serif" font-size="14.00" fill="white">326,320 row(s)/256 chunk(s)</text>
</g>
<!-- 138887085588240 -->
<g id="node6" class="node">
<title>138887085588240</title>
<g id="a_node6"><a xlink:title="Output: 326320 rows in 256 chunks, 714 µs 317 ns.">
<polygon fill="none" stroke="white" points="380,-977 263,-977 263,-923 380,-923 380,-977"/>
<text text-anchor="middle" x="321.5" y="-961.8" font-family="Times,serif" font-size="14.00" fill="white">Validate</text>
<text text-anchor="middle" x="321.5" y="-930.8" font-family="Times,serif" font-size="14.00" fill="white">714 µs 317 ns</text>
</a>
</g>
</g>
<!-- 138887085588240&#45;&gt;138870535901264 -->
<g id="edge5" class="edge">
<title>138887085588240&#45;&gt;138870535901264</title>
<path fill="none" stroke="white" d="M262.9,-960.44C242.67,-966.77 221.98,-977.34 209.5,-995 204.84,-1001.59 202.86,-1009.71 202.35,-1017.79"/>
<polygon fill="white" stroke="white" points="198.85,-1017.91 202.4,-1027.9 205.85,-1017.88 198.85,-1017.91"/>
<text text-anchor="middle" x="312" y="-998.8" font-family="Times,serif" font-size="14.00" fill="white">326,320 row(s)/256 chunk(s)</text>
</g>
<!-- 138870535901584 -->
<g id="node17" class="node">
<title>138870535901584</title>
<g id="a_node17"><a xlink:title="Output: 326320 rows in 256 chunks, 13 ms 837 µs.&#10;Operator step runtimes:&#10; ForwardUnmodifiedColumns 124 µs 345 ns&#10; EvaluateNewColumns 13 ms 538 µs&#10; BuildOutput 78 µs 223 ns.">
<polygon fill="none" stroke="white" stroke-width="4.55" points="494,-1082 381,-1082 381,-1028 494,-1028 494,-1082"/>
<text text-anchor="middle" x="437.5" y="-1066.8" font-family="Times,serif" font-size="14.00" fill="white">Projection</text>
<text text-anchor="middle" x="437.5" y="-1035.8" font-family="Times,serif" font-size="14.00" fill="white">13 ms 837 µs</text>
</a>
</g>
</g>
<!-- 138887085588240&#45;&gt;138870535901584 -->
<g id="edge6" class="edge">
<title>138887085588240&#45;&gt;138870535901584</title>
<path fill="none" stroke="white" d="M380.08,-970.45C392.66,-976.74 405,-984.81 414.5,-995 420.59,-1001.53 425.13,-1009.86 428.49,-1018.18"/>
<polygon fill="white" stroke="white" points="425.28,-1019.59 431.92,-1027.84 431.87,-1017.25 425.28,-1019.59"/>
<text text-anchor="middle" x="527" y="-998.8" font-family="Times,serif" font-size="14.00" fill="white">326,320 row(s)/256 chunk(s)</text>
</g>
<!-- 138870535900944 -->
<g id="node7" class="node">
<title>138870535900944</title>
<g id="a_node7"><a xlink:title="Output: 326320 rows in 256 chunks, 8 ms 872 µs.&#10;Operator step runtimes:&#10; LeftSideMaterialize 2 ms 81 µs&#10; RightSideMaterialize 111 µs 599 ns&#10; LeftSideTransform 0 ns&#10; RightSideTransform 0 ns&#10; LeftSidePartition 2 ms 380 µs&#10; RightSidePartition 1 ms 5 µs&#10; LeftSideSortBuckets 730 µs 309 ns&#10; RightSideSortBuckets 724 µs 783 ns&#10; GatherRowIds 811 ns&#10; FindJoinPartner 594 µs 679 ns&#10; OutputWriting 946 µs 541 ns.">
<polygon fill="none" stroke="white" stroke-width="3.45" points="426,-872 217,-872 217,-803 426,-803 426,-872"/>
<text text-anchor="middle" x="321.5" y="-856.8" font-family="Times,serif" font-size="14.00" fill="white">JoinSimdSortMerge (Semi)</text>
<text text-anchor="middle" x="321.5" y="-841.8" font-family="Times,serif" font-size="14.00" fill="white">ps_suppkey = s_suppkey</text>
<text text-anchor="middle" x="321.5" y="-810.8" font-family="Times,serif" font-size="14.00" fill="white">8 ms 872 µs</text>
</a>
</g>
</g>
<!-- 138870535900944&#45;&gt;138887085588240 -->
<g id="edge7" class="edge">
<title>138870535900944&#45;&gt;138887085588240</title>
<path fill="none" stroke="white" d="M321.5,-872.25C321.5,-885.07 321.5,-899.73 321.5,-912.77"/>
<polygon fill="white" stroke="white" points="318,-912.81 321.5,-922.81 325,-912.81 318,-912.81"/>
<text text-anchor="middle" x="424" y="-893.8" font-family="Times,serif" font-size="14.00" fill="white">326,320 row(s)/256 chunk(s)</text>
</g>
<!-- 138870566513360 -->
<g id="node8" class="node">
<title>138870566513360</title>
<g id="a_node8"><a xlink:title="Output: 8000000 rows in 123 chunks, 324 µs 811 ns.">
<polygon fill="none" stroke="white" points="261.5,-752 139.5,-752 139.5,-638 261.5,-638 261.5,-752"/>
<text text-anchor="middle" x="200.5" y="-736.8" font-family="Times,serif" font-size="14.00" fill="white">GetTable</text>
<text text-anchor="middle" x="200.5" y="-721.8" font-family="Times,serif" font-size="14.00" fill="white">(partsupp)</text>
<text text-anchor="middle" x="200.5" y="-706.8" font-family="Times,serif" font-size="14.00" fill="white">pruned:</text>
<text text-anchor="middle" x="200.5" y="-691.8" font-family="Times,serif" font-size="14.00" fill="white">0/123 chunk(s)</text>
<text text-anchor="middle" x="200.5" y="-676.8" font-family="Times,serif" font-size="14.00" fill="white">1/5 column(s)</text>
<text text-anchor="middle" x="200.5" y="-645.8" font-family="Times,serif" font-size="14.00" fill="white">324 µs 811 ns</text>
</a>
</g>
</g>
<!-- 138870566513360&#45;&gt;138870535900944 -->
<g id="edge8" class="edge">
<title>138870566513360&#45;&gt;138870535900944</title>
<path fill="none" stroke="white" stroke-width="8" d="M191.65,-752.1C192.32,-763.73 195.07,-775.36 201.5,-785 204.12,-788.93 207.1,-792.55 210.38,-795.9"/>
<polygon fill="white" stroke="white" stroke-width="8" points="210.58,-796.09 205.88,-801.27 217.99,-802.81 210.58,-796.09"/>
<text text-anchor="middle" x="311" y="-773.8" font-family="Times,serif" font-size="14.00" fill="white">8,000,000 row(s)/123 chunk(s)</text>
</g>
<!-- 138887085587984 -->
<g id="node9" class="node">
<title>138887085587984</title>
<g id="a_node9"><a xlink:title="Output: 4079 rows in 1 chunk, 23 µs 799 ns.">
<polygon fill="none" stroke="white" points="496.5,-722 388.5,-722 388.5,-668 496.5,-668 496.5,-722"/>
<text text-anchor="middle" x="442.5" y="-706.8" font-family="Times,serif" font-size="14.00" fill="white">Validate</text>
<text text-anchor="middle" x="442.5" y="-675.8" font-family="Times,serif" font-size="14.00" fill="white">23 µs 799 ns</text>
</a>
</g>
</g>
<!-- 138887085587984&#45;&gt;138870535900944 -->
<g id="edge9" class="edge">
<title>138887085587984&#45;&gt;138870535900944</title>
<path fill="none" stroke="white" d="M441.65,-722.26C439.79,-741.44 434.58,-767.11 420.5,-785 417.29,-789.08 413.66,-792.87 409.75,-796.39"/>
<polygon fill="white" stroke="white" points="401.89,-802.82 411.84,-799.2 409.62,-796.49 401.89,-802.82"/>
<text text-anchor="middle" x="515" y="-773.8" font-family="Times,serif" font-size="14.00" fill="white">4,079 row(s)/1 chunk(s)</text>
</g>
<!-- 138870535900624 -->
<g id="node10" class="node">
<title>138870535900624</title>
<g id="a_node10"><a xlink:title="Output: 4079 rows in 1 chunk, 2 ms 29 µs.&#10;Operator step runtimes:&#10; LeftSideMaterialize 188 µs 564 ns&#10; RightSideMaterialize 40 µs 564 ns&#10; LeftSideTransform 0 ns&#10; RightSideTransform 0 ns&#10; LeftSidePartition 102 µs 819 ns&#10; RightSidePartition 12 µs 881 ns&#10; LeftSideSortBuckets 756 µs 255 ns&#10; RightSideSortBuckets 701 µs 240 ns&#10; GatherRowIds 2 µs 72 ns&#10; FindJoinPartner 47 µs 935 ns&#10; OutputWriting 41 µs 774 ns.">
<polygon fill="none" stroke="white" points="547,-587 338,-587 338,-518 547,-518 547,-587"/>
<text text-anchor="middle" x="442.5" y="-571.8" font-family="Times,serif" font-size="14.00" fill="white">JoinSimdSortMerge (Semi)</text>
<text text-anchor="middle" x="442.5" y="-556.8" font-family="Times,serif" font-size="14.00" fill="white">s_nationkey = n_nationkey</text>
<text text-anchor="middle" x="442.5" y="-525.8" font-family="Times,serif" font-size="14.00" fill="white">2 ms 29 µs</text>
</a>
</g>
</g>
<!-- 138870535900624&#45;&gt;138887085587984 -->
<g id="edge10" class="edge">
<title>138870535900624&#45;&gt;138887085587984</title>
<path fill="none" stroke="white" d="M442.5,-587.15C442.5,-608.36 442.5,-635.75 442.5,-657.48"/>
<polygon fill="white" stroke="white" points="439,-657.65 442.5,-667.65 446,-657.65 439,-657.65"/>
<text text-anchor="middle" x="527" y="-608.8" font-family="Times,serif" font-size="14.00" fill="white">4,079 row(s)/1 chunk(s)</text>
</g>
<!-- 138870566513808 -->
<g id="node11" class="node">
<title>138870566513808</title>
<g id="a_node11"><a xlink:title="Output: 100000 rows in 2 chunks, 37 µs 215 ns.">
<polygon fill="none" stroke="white" points="394,-467 281,-467 281,-353 394,-353 394,-467"/>
<text text-anchor="middle" x="337.5" y="-451.8" font-family="Times,serif" font-size="14.00" fill="white">GetTable</text>
<text text-anchor="middle" x="337.5" y="-436.8" font-family="Times,serif" font-size="14.00" fill="white">(supplier)</text>
<text text-anchor="middle" x="337.5" y="-421.8" font-family="Times,serif" font-size="14.00" fill="white">pruned:</text>
<text text-anchor="middle" x="337.5" y="-406.8" font-family="Times,serif" font-size="14.00" fill="white">0/2 chunk(s)</text>
<text text-anchor="middle" x="337.5" y="-391.8" font-family="Times,serif" font-size="14.00" fill="white">5/7 column(s)</text>
<text text-anchor="middle" x="337.5" y="-360.8" font-family="Times,serif" font-size="14.00" fill="white">37 µs 215 ns</text>
</a>
</g>
</g>
<!-- 138870566513808&#45;&gt;138870535900624 -->
<g id="edge11" class="edge">
<title>138870566513808&#45;&gt;138870535900624</title>
<path fill="none" stroke="white" d="M329.07,-467.31C329.76,-478.8 332.42,-490.32 338.5,-500 340.98,-503.94 343.86,-507.6 347.05,-510.98"/>
<polygon fill="white" stroke="white" points="347.19,-511.11 344.79,-513.66 354.48,-517.95 347.19,-511.11"/>
<text text-anchor="middle" x="432" y="-488.8" font-family="Times,serif" font-size="14.00" fill="white">100,000 row(s)/2 chunk(s)</text>
</g>
<!-- 138887085587728 -->
<g id="node12" class="node">
<title>138887085587728</title>
<g id="a_node12"><a xlink:title="Output: 1 row in 1 chunk, 14 µs 510 ns.">
<polygon fill="none" stroke="white" points="601.5,-437 493.5,-437 493.5,-383 601.5,-383 601.5,-437"/>
<text text-anchor="middle" x="547.5" y="-421.8" font-family="Times,serif" font-size="14.00" fill="white">Validate</text>
<text text-anchor="middle" x="547.5" y="-390.8" font-family="Times,serif" font-size="14.00" fill="white">14 µs 510 ns</text>
</a>
</g>
</g>
<!-- 138887085587728&#45;&gt;138870535900624 -->
<g id="edge12" class="edge">
<title>138887085587728&#45;&gt;138870535900624</title>
<path fill="none" stroke="white" d="M546.21,-437.36C544.11,-456.34 538.8,-481.72 525.5,-500 522.66,-503.91 519.42,-507.58 515.91,-511.03"/>
<polygon fill="white" stroke="white" points="508.36,-517.79 518.14,-513.73 515.81,-511.12 508.36,-517.79"/>
<text text-anchor="middle" x="603.5" y="-488.8" font-family="Times,serif" font-size="14.00" fill="white">1 row(s)/1 chunk(s)</text>
</g>
<!-- 138870535900304 -->
<g id="node13" class="node">
<title>138870535900304</title>
<g id="a_node13"><a xlink:title="Output: 1 row in 1 chunk, 42 µs 662 ns.&#10;Chunks: 0 skipped with no results, &#10;0 skipped with all matching, 0 scanned using binary search.">
<polygon fill="none" stroke="white" points="632,-302 463,-302 463,-218 632,-218 632,-302"/>
<text text-anchor="middle" x="547.5" y="-286.8" font-family="Times,serif" font-size="14.00" fill="white">TableScan</text>
<text text-anchor="middle" x="547.5" y="-271.8" font-family="Times,serif" font-size="14.00" fill="white">Impl: ColumnVsValue</text>
<text text-anchor="middle" x="547.5" y="-256.8" font-family="Times,serif" font-size="14.00" fill="white">n_name = &#39;INDIA&#39;</text>
<text text-anchor="middle" x="547.5" y="-225.8" font-family="Times,serif" font-size="14.00" fill="white">42 µs 662 ns</text>
</a>
</g>
</g>
<!-- 138870535900304&#45;&gt;138887085587728 -->
<g id="edge13" class="edge">
<title>138870535900304&#45;&gt;138887085587728</title>
<path fill="none" stroke="white" d="M547.5,-302.23C547.5,-324.32 547.5,-351.31 547.5,-372.62"/>
<polygon fill="white" stroke="white" points="544,-372.88 547.5,-382.88 551,-372.88 544,-372.88"/>
<text text-anchor="middle" x="616.5" y="-323.8" font-family="Times,serif" font-size="14.00" fill="white">1 row(s)/1 chunk(s)</text>
</g>
<!-- 138870566515600 -->
<g id="node14" class="node">
<title>138870566515600</title>
<g id="a_node14"><a xlink:title="Output: 25 rows in 1 chunk, 37 µs 506 ns.">
<polygon fill="none" stroke="white" points="604,-140.5 491,-140.5 491,-26.5 604,-26.5 604,-140.5"/>
<text text-anchor="middle" x="547.5" y="-125.3" font-family="Times,serif" font-size="14.00" fill="white">GetTable</text>
<text text-anchor="middle" x="547.5" y="-110.3" font-family="Times,serif" font-size="14.00" fill="white">(nation)</text>
<text text-anchor="middle" x="547.5" y="-95.3" font-family="Times,serif" font-size="14.00" fill="white">pruned:</text>
<text text-anchor="middle" x="547.5" y="-80.3" font-family="Times,serif" font-size="14.00" fill="white">0/1 chunk(s)</text>
<text text-anchor="middle" x="547.5" y="-65.3" font-family="Times,serif" font-size="14.00" fill="white">2/4 column(s)</text>
<text text-anchor="middle" x="547.5" y="-34.3" font-family="Times,serif" font-size="14.00" fill="white">37 µs 506 ns</text>
</a>
</g>
</g>
<!-- 138870566515600&#45;&gt;138870535900304 -->
<g id="edge14" class="edge">
<title>138870566515600&#45;&gt;138870535900304</title>
<path fill="none" stroke="white" d="M547.5,-140.67C547.5,-162.25 547.5,-186.74 547.5,-207.83"/>
<polygon fill="white" stroke="white" points="544,-207.87 547.5,-217.87 551,-207.87 544,-207.87"/>
<text text-anchor="middle" x="621" y="-188.8" font-family="Times,serif" font-size="14.00" fill="white">25 row(s)/1 chunk(s)</text>
</g>
<!-- 138870535901904 -->
<g id="node15" class="node">
<title>138870535901904</title>
<g id="a_node15"><a xlink:title="Output: 1 row in 1 chunk, 62 µs 87 ns.&#10;Operator step runtimes:&#10; ForwardUnmodifiedColumns 2 µs 184 ns&#10; EvaluateNewColumns 31 µs 347 ns&#10; BuildOutput 25 µs 905 ns.">
<polygon fill="none" stroke="white" points="492,-1391 393,-1391 393,-1337 492,-1337 492,-1391"/>
<text text-anchor="middle" x="442.5" y="-1375.8" font-family="Times,serif" font-size="14.00" fill="white">Projection</text>
<text text-anchor="middle" x="442.5" y="-1344.8" font-family="Times,serif" font-size="14.00" fill="white">62 µs 87 ns</text>
</a>
</g>
</g>
<!-- 138870535901904&#45;&gt;138870535902224 -->
<g id="edge15" class="edge">
<title>138870535901904&#45;&gt;138870535902224</title>
<path fill="none" stroke="white" stroke-dasharray="5,2" d="M392.98,-1391C367.47,-1404.4 335.39,-1421.25 304.91,-1437.25"/>
<polygon fill="white" stroke="white" points="303.17,-1434.21 295.94,-1441.96 306.42,-1440.41 303.17,-1434.21"/>
<text text-anchor="middle" x="440" y="-1412.8" font-family="Times,serif" font-size="14.00" fill="white">uncorrelated subquery</text>
</g>
<!-- 138887085491728 -->
<g id="node16" class="node">
<title>138887085491728</title>
<g id="a_node16"><a xlink:title="Output: 1 row in 1 chunk, 672 µs 783 ns.&#10;Operator step runtimes:&#10; GroupByKeyPartitioning 287 ns&#10; Aggregating 634 µs 25 ns&#10; GroupByColumnsWriting 2 µs 27 ns&#10; AggregateColumnsWriting 18 µs 506 ns&#10; OutputWriting 9 µs 400 ns.">
<polygon fill="none" stroke="white" points="570,-1217 311,-1217 311,-1133 570,-1133 570,-1217"/>
<text text-anchor="middle" x="440.5" y="-1201.8" font-family="Times,serif" font-size="14.00" fill="white">AggregateHash</text>
<text text-anchor="middle" x="440.5" y="-1186.8" font-family="Times,serif" font-size="14.00" fill="white">GroupBy {}</text>
<text text-anchor="middle" x="440.5" y="-1171.8" font-family="Times,serif" font-size="14.00" fill="white">SUM(ps_supplycost * ps_availqty)</text>
<text text-anchor="middle" x="440.5" y="-1140.8" font-family="Times,serif" font-size="14.00" fill="white">672 µs 783 ns</text>
</a>
</g>
</g>
<!-- 138887085491728&#45;&gt;138870535901904 -->
<g id="edge16" class="edge">
<title>138887085491728&#45;&gt;138870535901904</title>
<path fill="none" stroke="white" d="M440.94,-1217.04C441.29,-1249.78 441.78,-1295.22 442.11,-1326.66"/>
<polygon fill="white" stroke="white" points="438.61,-1326.79 442.22,-1336.75 445.61,-1326.71 438.61,-1326.79"/>
<text text-anchor="middle" x="511.5" y="-1273.3" font-family="Times,serif" font-size="14.00" fill="white">1 row(s)/1 chunk(s)</text>
</g>
<!-- 138870535901584&#45;&gt;138887085491728 -->
<g id="edge17" class="edge">
<title>138870535901584&#45;&gt;138887085491728</title>
<path fill="none" stroke="white" d="M438.17,-1082.19C438.47,-1094.1 438.84,-1108.63 439.19,-1122.58"/>
<polygon fill="white" stroke="white" points="435.69,-1122.68 439.45,-1132.59 442.69,-1122.5 435.69,-1122.68"/>
<text text-anchor="middle" x="542" y="-1103.8" font-family="Times,serif" font-size="14.00" fill="white">326,320 row(s)/256 chunk(s)</text>
</g>
<!-- 0 -->
<g id="node18" class="node">
<title>0</title>
<polygon fill="none" stroke="white" points="622.5,-0.5 622.5,-166.5 968.5,-166.5 968.5,-0.5 622.5,-0.5"/>
<text text-anchor="middle" x="795.5" y="-151.3" font-family="Times,serif" font-size="14.00" fill="white">Total by operator</text>
<polyline fill="none" stroke="white" points="622.5,-143.5 968.5,-143.5 "/>
<text text-anchor="end" x="781.5" y="-128.3" font-family="Times,serif" font-size="14.00" fill="white">AggregateHash </text>
<text text-anchor="end" x="781.5" y="-113.3" font-family="Times,serif" font-size="14.00" fill="white"> Projection </text>
<text text-anchor="end" x="781.5" y="-98.3" font-family="Times,serif" font-size="14.00" fill="white"> JoinSimdSortMerge </text>
<text text-anchor="end" x="781.5" y="-83.3" font-family="Times,serif" font-size="14.00" fill="white"> Validate </text>
<text text-anchor="end" x="781.5" y="-68.3" font-family="Times,serif" font-size="14.00" fill="white"> Sort </text>
<text text-anchor="end" x="781.5" y="-53.3" font-family="Times,serif" font-size="14.00" fill="white"> GetTable </text>
<text text-anchor="end" x="781.5" y="-38.3" font-family="Times,serif" font-size="14.00" fill="white"> TableScan </text>
<text text-anchor="end" x="781.5" y="-23.3" font-family="Times,serif" font-size="14.00" fill="white"> Alias </text>
<text text-anchor="end" x="781.5" y="-8.3" font-family="Times,serif" font-size="14.00" fill="white">total</text>
<polyline fill="none" stroke="white" points="789.5,-0.5 789.5,-143.5 "/>
<text text-anchor="start" x="797.5" y="-128.3" font-family="Times,serif" font-size="14.00" fill="white">56 ms 780 µs </text>
<text text-anchor="start" x="797.5" y="-113.3" font-family="Times,serif" font-size="14.00" fill="white"> 26 ms 929 µs </text>
<text text-anchor="start" x="797.5" y="-98.3" font-family="Times,serif" font-size="14.00" fill="white"> 10 ms 901 µs </text>
<text text-anchor="start" x="797.5" y="-83.3" font-family="Times,serif" font-size="14.00" fill="white"> 752 µs 626 ns </text>
<text text-anchor="start" x="797.5" y="-68.3" font-family="Times,serif" font-size="14.00" fill="white"> 711 µs 816 ns </text>
<text text-anchor="start" x="797.5" y="-53.3" font-family="Times,serif" font-size="14.00" fill="white"> 399 µs 532 ns </text>
<text text-anchor="start" x="797.5" y="-38.3" font-family="Times,serif" font-size="14.00" fill="white"> 216 µs 353 ns </text>
<text text-anchor="start" x="797.5" y="-23.3" font-family="Times,serif" font-size="14.00" fill="white"> 6 µs 173 ns </text>
<text text-anchor="start" x="797.5" y="-8.3" font-family="Times,serif" font-size="14.00" fill="white"> 96 ms 697 µs </text>
<polyline fill="none" stroke="white" points="915.5,-0.5 915.5,-143.5 "/>
<text text-anchor="start" x="923.5" y="-128.3" font-family="Times,serif" font-size="14.00" fill="white">59 %</text>
<text text-anchor="start" x="923.5" y="-113.3" font-family="Times,serif" font-size="14.00" fill="white">28 %</text>
<text text-anchor="start" x="923.5" y="-98.3" font-family="Times,serif" font-size="14.00" fill="white">11 %</text>
<text text-anchor="start" x="923.5" y="-83.3" font-family="Times,serif" font-size="14.00" fill="white">1 %</text>
<text text-anchor="start" x="923.5" y="-68.3" font-family="Times,serif" font-size="14.00" fill="white">1 %</text>
<text text-anchor="start" x="923.5" y="-53.3" font-family="Times,serif" font-size="14.00" fill="white">0 %</text>
<text text-anchor="start" x="923.5" y="-38.3" font-family="Times,serif" font-size="14.00" fill="white">0 %</text>
<text text-anchor="start" x="923.5" y="-23.3" font-family="Times,serif" font-size="14.00" fill="white">0 %</text>
<text text-anchor="start" x="923.5" y="-8.3" font-family="Times,serif" font-size="14.00" fill="white"> </text>
</g>
</g>
</svg>
