<?xml version="1.0" encoding="UTF-8" standalone="no"?>
<!DOCTYPE svg PUBLIC "-//W3C//DTD SVG 1.1//EN"
 "http://www.w3.org/Graphics/SVG/1.1/DTD/svg11.dtd">
<!-- Generated by graphviz version 2.43.0 (0)
 -->
<!-- Title: G Pages: 1 -->
<svg width="1025pt" height="1895pt"
 viewBox="0.00 0.00 1025.00 1895.00" xmlns="http://www.w3.org/2000/svg" xmlns:xlink="http://www.w3.org/1999/xlink">
<g id="graph0" class="graph" transform="scale(1 1) rotate(0) translate(4 1891)">
<title>G</title>
<polygon fill="black" stroke="transparent" points="-4,4 -4,-1891 1021,-1891 1021,4 -4,4"/>
<text text-anchor="middle" x="319.5" y="-1871.8" font-family="Times,serif" font-size="14.00" fill="white">For tooltips with advanced information, hover your mouse over vertices or edge labels.</text>
<!-- 281399818667216 -->
<g id="node1" class="node">
<title>281399818667216</title>
<g id="a_node1"><a xlink:title="Output: 10 rows in 1 chunk, 2 µs 145 ns.">
<polygon fill="none" stroke="white" points="658,-1832 289,-1832 289,-1763 658,-1763 658,-1832"/>
<text text-anchor="middle" x="473.5" y="-1816.8" font-family="Times,serif" font-size="14.00" fill="white">Alias</text>
<text text-anchor="middle" x="473.5" y="-1801.8" font-family="Times,serif" font-size="14.00" fill="white">[l_orderkey, revenue, o_orderdate, o_shippriority]</text>
<text text-anchor="middle" x="473.5" y="-1770.8" font-family="Times,serif" font-size="14.00" fill="white">2 µs 145 ns</text>
</a>
</g>
</g>
<!-- 281399818666576 -->
<g id="node2" class="node">
<title>281399818666576</title>
<g id="a_node2"><a xlink:title="Output: 10 rows in 1 chunk, 6 µs 752 ns.&#10;Operator step runtimes:&#10; ForwardUnmodifiedColumns 2 µs 112 ns&#10; EvaluateNewColumns 416 ns&#10; BuildOutput 2 µs 912 ns.">
<polygon fill="none" stroke="white" points="523,-1712 424,-1712 424,-1658 523,-1658 523,-1712"/>
<text text-anchor="middle" x="473.5" y="-1696.8" font-family="Times,serif" font-size="14.00" fill="white">Projection</text>
<text text-anchor="middle" x="473.5" y="-1665.8" font-family="Times,serif" font-size="14.00" fill="white">6 µs 752 ns</text>
</a>
</g>
</g>
<!-- 281399818666576&#45;&gt;281399818667216 -->
<g id="edge1" class="edge">
<title>281399818666576&#45;&gt;281399818667216</title>
<path fill="none" stroke="white" d="M473.5,-1712.19C473.5,-1724.29 473.5,-1739 473.5,-1752.72"/>
<polygon fill="white" stroke="white" points="470,-1752.95 473.5,-1762.95 477,-1752.96 470,-1752.95"/>
<text text-anchor="middle" x="547" y="-1733.8" font-family="Times,serif" font-size="14.00" fill="white">10 row(s)/1 chunk(s)</text>
</g>
<!-- 281399818666256 -->
<g id="node3" class="node">
<title>281399818666256</title>
<g id="a_node3"><a xlink:title="Output: 10 rows in 1 chunk, 7 µs 552 ns.">
<polygon fill="none" stroke="white" points="523,-1607 424,-1607 424,-1553 523,-1553 523,-1607"/>
<text text-anchor="middle" x="473.5" y="-1591.8" font-family="Times,serif" font-size="14.00" fill="white">Limit</text>
<text text-anchor="middle" x="473.5" y="-1560.8" font-family="Times,serif" font-size="14.00" fill="white">7 µs 552 ns</text>
</a>
</g>
</g>
<!-- 281399818666256&#45;&gt;281399818666576 -->
<g id="edge2" class="edge">
<title>281399818666256&#45;&gt;281399818666576</title>
<path fill="none" stroke="white" d="M473.5,-1607.26C473.5,-1619.49 473.5,-1634.24 473.5,-1647.52"/>
<polygon fill="white" stroke="white" points="470,-1647.79 473.5,-1657.79 477,-1647.79 470,-1647.79"/>
<text text-anchor="middle" x="547" y="-1628.8" font-family="Times,serif" font-size="14.00" fill="white">10 row(s)/1 chunk(s)</text>
</g>
<!-- 281399818665936 -->
<g id="node4" class="node">
<title>281399818665936</title>
<g id="a_node4"><a xlink:title="Output: 113400 rows in 2 chunks, 53 ms 46 µs.&#10;Operator step runtimes:&#10; MaterializeSortColumns 14 ms 531 µs&#10; Sort 35 ms 652 µs&#10; TemporaryResultWriting 618 µs 599 ns&#10; WriteOutput 2 ms 112 µs.">
<polygon fill="none" stroke="white" stroke-width="7.36" points="525.5,-1502 421.5,-1502 421.5,-1448 525.5,-1448 525.5,-1502"/>
<text text-anchor="middle" x="473.5" y="-1486.8" font-family="Times,serif" font-size="14.00" fill="white">Sort</text>
<text text-anchor="middle" x="473.5" y="-1455.8" font-family="Times,serif" font-size="14.00" fill="white">53 ms 46 µs</text>
</a>
</g>
</g>
<!-- 281399818665936&#45;&gt;281399818666256 -->
<g id="edge3" class="edge">
<title>281399818665936&#45;&gt;281399818666256</title>
<path fill="none" stroke="white" d="M473.5,-1502.26C473.5,-1514.49 473.5,-1529.24 473.5,-1542.52"/>
<polygon fill="white" stroke="white" points="470,-1542.79 473.5,-1552.79 477,-1542.79 470,-1542.79"/>
<text text-anchor="middle" x="567" y="-1523.8" font-family="Times,serif" font-size="14.00" fill="white">113,400 row(s)/2 chunk(s)</text>
</g>
<!-- 281399815575056 -->
<g id="node5" class="node">
<title>281399815575056</title>
<g id="a_node5"><a xlink:title="Output: 113400 rows in 2 chunks, 68 ms 702 µs.&#10;Operator step runtimes:&#10; GroupByKeyPartitioning 50 ms 855 µs&#10; Aggregating 15 ms 687 µs&#10; GroupByColumnsWriting 888 µs 810 ns&#10; AggregateColumnsWriting 221 µs 315 ns&#10; OutputWriting 8 µs 608 ns.">
<polygon fill="none" stroke="white" stroke-width="8" points="622,-1397 325,-1397 325,-1283 622,-1283 622,-1397"/>
<text text-anchor="middle" x="473.5" y="-1381.8" font-family="Times,serif" font-size="14.00" fill="white">AggregateHash</text>
<text text-anchor="middle" x="473.5" y="-1366.8" font-family="Times,serif" font-size="14.00" fill="white">GroupBy {l_orderkey,</text>
<text text-anchor="middle" x="473.5" y="-1351.8" font-family="Times,serif" font-size="14.00" fill="white">o_orderdate,</text>
<text text-anchor="middle" x="473.5" y="-1336.8" font-family="Times,serif" font-size="14.00" fill="white">o_shippriority}</text>
<text text-anchor="middle" x="473.5" y="-1321.8" font-family="Times,serif" font-size="14.00" fill="white">SUM(l_extendedprice * (1 &#45; l_discount))</text>
<text text-anchor="middle" x="473.5" y="-1290.8" font-family="Times,serif" font-size="14.00" fill="white">68 ms 702 µs</text>
</a>
</g>
</g>
<!-- 281399815575056&#45;&gt;281399818665936 -->
<g id="edge4" class="edge">
<title>281399815575056&#45;&gt;281399818665936</title>
<path fill="none" stroke="white" d="M473.5,-1397.02C473.5,-1410.77 473.5,-1425.14 473.5,-1437.69"/>
<polygon fill="white" stroke="white" points="470,-1437.75 473.5,-1447.75 477,-1437.75 470,-1437.75"/>
<text text-anchor="middle" x="567" y="-1418.8" font-family="Times,serif" font-size="14.00" fill="white">113,400 row(s)/2 chunk(s)</text>
</g>
<!-- 281399818665616 -->
<g id="node6" class="node">
<title>281399818665616</title>
<g id="a_node6"><a xlink:title="Output: 299829 rows in 64 chunks, 10 ms 935 µs.&#10;Operator step runtimes:&#10; ForwardUnmodifiedColumns 53 µs 984 ns&#10; EvaluateNewColumns 10 ms 766 µs&#10; BuildOutput 92 µs 929 ns.">
<polygon fill="none" stroke="white" stroke-width="3.47" points="530,-1232 417,-1232 417,-1178 530,-1178 530,-1232"/>
<text text-anchor="middle" x="473.5" y="-1216.8" font-family="Times,serif" font-size="14.00" fill="white">Projection</text>
<text text-anchor="middle" x="473.5" y="-1185.8" font-family="Times,serif" font-size="14.00" fill="white">10 ms 935 µs</text>
</a>
</g>
</g>
<!-- 281399818665616&#45;&gt;281399815575056 -->
<g id="edge5" class="edge">
<title>281399818665616&#45;&gt;281399815575056</title>
<path fill="none" stroke="white" d="M473.5,-1232.28C473.5,-1243.91 473.5,-1258.18 473.5,-1272.45"/>
<polygon fill="white" stroke="white" points="470,-1272.8 473.5,-1282.8 477,-1272.8 470,-1272.8"/>
<text text-anchor="middle" x="571.5" y="-1253.8" font-family="Times,serif" font-size="14.00" fill="white">299,829 row(s)/64 chunk(s)</text>
</g>
<!-- 281399818665296 -->
<g id="node7" class="node">
<title>281399818665296</title>
<g id="a_node7"><a xlink:title="Output: 299829 rows in 64 chunks, 17 ms 886 µs.&#10;Operator step runtimes:&#10; LeftSideMaterialize 5 ms 819 µs&#10; RightSideMaterialize 7 ms 277 µs&#10; LeftSideTransform 0 ns&#10; RightSideTransform 0 ns&#10; LeftSidePartition 1 ms 818 µs&#10; RightSidePartition 355 µs 172 ns&#10; LeftSideSortBuckets 445 µs 29 ns&#10; RightSideSortBuckets 726 µs 537 ns&#10; GatherRowIds 736 ns&#10; FindJoinPartner 367 µs 333 ns&#10; OutputWriting 681 µs 736 ns.">
<polygon fill="none" stroke="white" stroke-width="4.68" points="579,-1127 368,-1127 368,-1058 579,-1058 579,-1127"/>
<text text-anchor="middle" x="473.5" y="-1111.8" font-family="Times,serif" font-size="14.00" fill="white">JoinSimdSortMerge (Inner)</text>
<text text-anchor="middle" x="473.5" y="-1096.8" font-family="Times,serif" font-size="14.00" fill="white">l_orderkey = o_orderkey</text>
<text text-anchor="middle" x="473.5" y="-1065.8" font-family="Times,serif" font-size="14.00" fill="white">17 ms 886 µs</text>
</a>
</g>
</g>
<!-- 281399818665296&#45;&gt;281399818665616 -->
<g id="edge6" class="edge">
<title>281399818665296&#45;&gt;281399818665616</title>
<path fill="none" stroke="white" d="M473.5,-1127.25C473.5,-1140.07 473.5,-1154.73 473.5,-1167.77"/>
<polygon fill="white" stroke="white" points="470,-1167.81 473.5,-1177.81 477,-1167.81 470,-1167.81"/>
<text text-anchor="middle" x="571.5" y="-1148.8" font-family="Times,serif" font-size="14.00" fill="white">299,829 row(s)/64 chunk(s)</text>
</g>
<!-- 281399815505936 -->
<g id="node8" class="node">
<title>281399815505936</title>
<g id="a_node8"><a xlink:title="Output: 299829 rows in 64 chunks, 647 µs 304 ns.">
<polygon fill="none" stroke="white" points="421,-1007 304,-1007 304,-953 421,-953 421,-1007"/>
<text text-anchor="middle" x="362.5" y="-991.8" font-family="Times,serif" font-size="14.00" fill="white">Validate</text>
<text text-anchor="middle" x="362.5" y="-960.8" font-family="Times,serif" font-size="14.00" fill="white">647 µs 304 ns</text>
</a>
</g>
</g>
<!-- 281399815505936&#45;&gt;281399818665296 -->
<g id="edge7" class="edge">
<title>281399815505936&#45;&gt;281399818665296</title>
<path fill="none" stroke="white" d="M362.93,-1007.13C364.28,-1018.19 367.45,-1030.65 374.5,-1040 377.48,-1043.95 380.85,-1047.62 384.5,-1051.04"/>
<polygon fill="white" stroke="white" points="384.72,-1051.23 382.46,-1053.9 392.36,-1057.69 384.72,-1051.23"/>
<text text-anchor="middle" x="472.5" y="-1028.8" font-family="Times,serif" font-size="14.00" fill="white">299,829 row(s)/64 chunk(s)</text>
</g>
<!-- 281399818664976 -->
<g id="node9" class="node">
<title>281399818664976</title>
<g id="a_node9"><a xlink:title="Output: 299829 rows in 64 chunks, 35 ms 153 µs.&#10;Operator step runtimes:&#10; LeftSideMaterialize 4 ms 11 µs&#10; RightSideMaterialize 7 ms 392 µs&#10; LeftSideTransform 0 ns&#10; RightSideTransform 0 ns&#10; LeftSidePartition 11 ms 1000 µs&#10; RightSidePartition 500 µs 613 ns&#10; LeftSideSortBuckets 5 ms 373 µs&#10; RightSideSortBuckets 823 µs 178 ns&#10; GatherRowIds 1 µs 184 ns&#10; FindJoinPartner 2 ms 98 µs&#10; OutputWriting 1 ms 656 µs.">
<polygon fill="none" stroke="white" stroke-width="6.35" points="493,-902 208,-902 208,-833 493,-833 493,-902"/>
<text text-anchor="middle" x="350.5" y="-886.8" font-family="Times,serif" font-size="14.00" fill="white">JoinSimdSortMerge (Semi Reduction)</text>
<text text-anchor="middle" x="350.5" y="-871.8" font-family="Times,serif" font-size="14.00" fill="white">l_orderkey = o_orderkey</text>
<text text-anchor="middle" x="350.5" y="-840.8" font-family="Times,serif" font-size="14.00" fill="white">35 ms 153 µs</text>
</a>
</g>
</g>
<!-- 281399818664976&#45;&gt;281399815505936 -->
<g id="edge8" class="edge">
<title>281399818664976&#45;&gt;281399815505936</title>
<path fill="none" stroke="white" d="M354.17,-902.25C355.56,-915.07 357.15,-929.73 358.57,-942.77"/>
<polygon fill="white" stroke="white" points="355.1,-943.25 359.66,-952.81 362.06,-942.49 355.1,-943.25"/>
<text text-anchor="middle" x="456.5" y="-923.8" font-family="Times,serif" font-size="14.00" fill="white">299,829 row(s)/64 chunk(s)</text>
</g>
<!-- 281399818666896 -->
<g id="node10" class="node">
<title>281399818666896</title>
<g id="a_node10"><a xlink:title="Output: 32359449 rows in 916 chunks, 4 ms 196 µs.&#10;Chunks: 0 skipped with no results, &#10;0 skipped with all matching, 0 scanned using binary search.">
<polygon fill="none" stroke="white" stroke-width="1.11" points="199,-782 0,-782 0,-698 199,-698 199,-782"/>
<text text-anchor="middle" x="99.5" y="-766.8" font-family="Times,serif" font-size="14.00" fill="white">TableScan</text>
<text text-anchor="middle" x="99.5" y="-751.8" font-family="Times,serif" font-size="14.00" fill="white">Impl: ColumnVsValue</text>
<text text-anchor="middle" x="99.5" y="-736.8" font-family="Times,serif" font-size="14.00" fill="white">l_shipdate &gt; &#39;1995&#45;03&#45;14&#39;</text>
<text text-anchor="middle" x="99.5" y="-705.8" font-family="Times,serif" font-size="14.00" fill="white">4 ms 196 µs</text>
</a>
</g>
</g>
<!-- 281399818666896&#45;&gt;281399818664976 -->
<g id="edge9" class="edge">
<title>281399818666896&#45;&gt;281399818664976</title>
<path fill="none" stroke="white" stroke-width="6.48" d="M99.59,-782.24C101.62,-794.18 105.94,-806.32 114.5,-815 127.71,-828.4 160.65,-838.74 197.87,-846.51"/>
<polygon fill="white" stroke="white" stroke-width="6.48" points="198.14,-846.56 197.02,-852.12 207.94,-848.53 198.14,-846.56"/>
<text text-anchor="middle" x="228.5" y="-803.8" font-family="Times,serif" font-size="14.00" fill="white">32,359,449 row(s)/916 chunk(s)</text>
</g>
<!-- 281399876326672 -->
<g id="node11" class="node">
<title>281399876326672</title>
<g id="a_node11"><a xlink:title="Output: 59986052 rows in 916 chunks, 1 ms 104 µs.">
<polygon fill="none" stroke="white" points="165,-647 34,-647 34,-533 165,-533 165,-647"/>
<text text-anchor="middle" x="99.5" y="-631.8" font-family="Times,serif" font-size="14.00" fill="white">GetTable</text>
<text text-anchor="middle" x="99.5" y="-616.8" font-family="Times,serif" font-size="14.00" fill="white">(lineitem)</text>
<text text-anchor="middle" x="99.5" y="-601.8" font-family="Times,serif" font-size="14.00" fill="white">pruned:</text>
<text text-anchor="middle" x="99.5" y="-586.8" font-family="Times,serif" font-size="14.00" fill="white">0/916 chunk(s)</text>
<text text-anchor="middle" x="99.5" y="-571.8" font-family="Times,serif" font-size="14.00" fill="white">12/16 column(s)</text>
<text text-anchor="middle" x="99.5" y="-540.8" font-family="Times,serif" font-size="14.00" fill="white">1 ms 104 µs</text>
</a>
</g>
</g>
<!-- 281399876326672&#45;&gt;281399818666896 -->
<g id="edge10" class="edge">
<title>281399876326672&#45;&gt;281399818666896</title>
<path fill="none" stroke="white" stroke-width="8" d="M99.5,-647.37C99.5,-660.65 99.5,-674.74 99.5,-687.77"/>
<polygon fill="white" stroke="white" stroke-width="8" points="92.5,-687.97 99.5,-697.97 106.5,-687.97 92.5,-687.97"/>
<text text-anchor="middle" x="213.5" y="-668.8" font-family="Times,serif" font-size="14.00" fill="white">59,986,052 row(s)/916 chunk(s)</text>
</g>
<!-- 281399815510288 -->
<g id="node12" class="node">
<title>281399815510288</title>
<g id="a_node12"><a xlink:title="Output: 1456066 rows in 256 chunks, 769 µs 385 ns.">
<polygon fill="none" stroke="white" points="526,-767 409,-767 409,-713 526,-713 526,-767"/>
<text text-anchor="middle" x="467.5" y="-751.8" font-family="Times,serif" font-size="14.00" fill="white">Validate</text>
<text text-anchor="middle" x="467.5" y="-720.8" font-family="Times,serif" font-size="14.00" fill="white">769 µs 385 ns</text>
</a>
</g>
</g>
<!-- 281399815510288&#45;&gt;281399818665296 -->
<g id="edge12" class="edge">
<title>281399815510288&#45;&gt;281399818665296</title>
<path fill="none" stroke="white" d="M526.01,-761.13C543.44,-770.18 560.53,-782.79 570.5,-800 623.99,-892.29 625.47,-948.59 570.5,-1040 568.23,-1043.77 565.59,-1047.28 562.65,-1050.54"/>
<polygon fill="white" stroke="white" points="555.31,-1057.72 564.91,-1053.23 562.46,-1050.73 555.31,-1057.72"/>
<text text-anchor="middle" x="720" y="-923.8" font-family="Times,serif" font-size="14.00" fill="white">1,456,066 row(s)/256 chunk(s)</text>
</g>
<!-- 281399815510288&#45;&gt;281399818664976 -->
<g id="edge11" class="edge">
<title>281399815510288&#45;&gt;281399818664976</title>
<path fill="none" stroke="white" d="M408.96,-756.6C387.08,-765.56 364.41,-779.3 351.5,-800 347.29,-806.75 345.27,-814.69 344.58,-822.68"/>
<polygon fill="white" stroke="white" points="344.33,-832.75 348.07,-822.83 344.57,-822.75 344.33,-832.75"/>
<text text-anchor="middle" x="461" y="-803.8" font-family="Times,serif" font-size="14.00" fill="white">1,456,066 row(s)/256 chunk(s)</text>
</g>
<!-- 281399818664656 -->
<g id="node13" class="node">
<title>281399818664656</title>
<g id="a_node13"><a xlink:title="Output: 1456066 rows in 256 chunks, 12 ms 972 µs.&#10;Operator step runtimes:&#10; LeftSideMaterialize 3 ms 150 µs&#10; RightSideMaterialize 139 µs 9 ns&#10; LeftSideTransform 0 ns&#10; RightSideTransform 0 ns&#10; LeftSidePartition 2 ms 102 µs&#10; RightSidePartition 1 ms 902 µs&#10; LeftSideSortBuckets 2 ms 289 µs&#10; RightSideSortBuckets 434 µs 885 ns&#10; GatherRowIds 768 ns&#10; FindJoinPartner 735 µs 176 ns&#10; OutputWriting 1 ms 469 µs.">
<polygon fill="none" stroke="white" stroke-width="3.89" points="572,-624.5 363,-624.5 363,-555.5 572,-555.5 572,-624.5"/>
<text text-anchor="middle" x="467.5" y="-609.3" font-family="Times,serif" font-size="14.00" fill="white">JoinSimdSortMerge (Semi)</text>
<text text-anchor="middle" x="467.5" y="-594.3" font-family="Times,serif" font-size="14.00" fill="white">o_custkey = c_custkey</text>
<text text-anchor="middle" x="467.5" y="-563.3" font-family="Times,serif" font-size="14.00" fill="white">12 ms 972 µs</text>
</a>
</g>
</g>
<!-- 281399818664656&#45;&gt;281399815510288 -->
<g id="edge13" class="edge">
<title>281399818664656&#45;&gt;281399815510288</title>
<path fill="none" stroke="white" d="M467.5,-624.58C467.5,-647.91 467.5,-678.97 467.5,-702.84"/>
<polygon fill="white" stroke="white" points="464,-702.92 467.5,-712.92 471,-702.92 464,-702.92"/>
<text text-anchor="middle" x="577" y="-668.8" font-family="Times,serif" font-size="14.00" fill="white">1,456,066 row(s)/256 chunk(s)</text>
</g>
<!-- 281399818663056 -->
<g id="node14" class="node">
<title>281399818663056</title>
<g id="a_node14"><a xlink:title="Output: 7283089 rows in 229 chunks, 1 ms 497 µs.&#10;Chunks: 0 skipped with no results, &#10;0 skipped with all matching, 0 scanned using binary search.">
<polygon fill="none" stroke="white" points="450.5,-482 238.5,-482 238.5,-398 450.5,-398 450.5,-482"/>
<text text-anchor="middle" x="344.5" y="-466.8" font-family="Times,serif" font-size="14.00" fill="white">TableScan</text>
<text text-anchor="middle" x="344.5" y="-451.8" font-family="Times,serif" font-size="14.00" fill="white">Impl: ColumnVsValue</text>
<text text-anchor="middle" x="344.5" y="-436.8" font-family="Times,serif" font-size="14.00" fill="white">o_orderdate &lt; &#39;1995&#45;03&#45;14&#39;</text>
<text text-anchor="middle" x="344.5" y="-405.8" font-family="Times,serif" font-size="14.00" fill="white">1 ms 497 µs</text>
</a>
</g>
</g>
<!-- 281399818663056&#45;&gt;281399818664656 -->
<g id="edge14" class="edge">
<title>281399818663056&#45;&gt;281399818664656</title>
<path fill="none" stroke="white" stroke-width="2.8" d="M339.96,-482.19C340.46,-493.47 342.74,-505.26 348.5,-515 356.48,-528.48 367.97,-539.87 380.71,-549.35"/>
<polygon fill="white" stroke="white" stroke-width="2.8" points="381.04,-549.58 379.03,-552.45 389.23,-555.31 381.04,-549.58"/>
<text text-anchor="middle" x="458" y="-503.8" font-family="Times,serif" font-size="14.00" fill="white">7,283,089 row(s)/229 chunk(s)</text>
</g>
<!-- 281399876323536 -->
<g id="node15" class="node">
<title>281399876323536</title>
<g id="a_node15"><a xlink:title="Output: 15000000 rows in 229 chunks, 470 µs 981 ns.">
<polygon fill="none" stroke="white" points="401.5,-347 279.5,-347 279.5,-233 401.5,-233 401.5,-347"/>
<text text-anchor="middle" x="340.5" y="-331.8" font-family="Times,serif" font-size="14.00" fill="white">GetTable</text>
<text text-anchor="middle" x="340.5" y="-316.8" font-family="Times,serif" font-size="14.00" fill="white">(orders)</text>
<text text-anchor="middle" x="340.5" y="-301.8" font-family="Times,serif" font-size="14.00" fill="white">pruned:</text>
<text text-anchor="middle" x="340.5" y="-286.8" font-family="Times,serif" font-size="14.00" fill="white">0/229 chunk(s)</text>
<text text-anchor="middle" x="340.5" y="-271.8" font-family="Times,serif" font-size="14.00" fill="white">5/9 column(s)</text>
<text text-anchor="middle" x="340.5" y="-240.8" font-family="Times,serif" font-size="14.00" fill="white">470 µs 981 ns</text>
</a>
</g>
</g>
<!-- 281399876323536&#45;&gt;281399818663056 -->
<g id="edge15" class="edge">
<title>281399876323536&#45;&gt;281399818663056</title>
<path fill="none" stroke="white" stroke-width="4.58" d="M342.02,-347.37C342.38,-360.65 342.76,-374.74 343.12,-387.77"/>
<polygon fill="white" stroke="white" stroke-width="4.58" points="339.11,-388.08 343.39,-397.97 347.13,-387.86 339.11,-388.08"/>
<text text-anchor="middle" x="457.5" y="-368.8" font-family="Times,serif" font-size="14.00" fill="white">15,000,000 row(s)/229 chunk(s)</text>
</g>
<!-- 281399815509264 -->
<g id="node16" class="node">
<title>281399815509264</title>
<g id="a_node16"><a xlink:title="Output: 300441 rows in 23 chunks, 58 µs 881 ns.">
<polygon fill="none" stroke="white" points="644.5,-467 536.5,-467 536.5,-413 644.5,-413 644.5,-467"/>
<text text-anchor="middle" x="590.5" y="-451.8" font-family="Times,serif" font-size="14.00" fill="white">Validate</text>
<text text-anchor="middle" x="590.5" y="-420.8" font-family="Times,serif" font-size="14.00" fill="white">58 µs 881 ns</text>
</a>
</g>
</g>
<!-- 281399815509264&#45;&gt;281399818664656 -->
<g id="edge16" class="edge">
<title>281399815509264&#45;&gt;281399818664656</title>
<path fill="none" stroke="white" d="M586.55,-467.12C583.31,-482.17 577.55,-500.85 567.5,-515 558.42,-527.78 546.45,-539.27 533.96,-549.16"/>
<polygon fill="white" stroke="white" points="525.7,-555.43 535.78,-552.17 533.66,-549.39 525.7,-555.43"/>
<text text-anchor="middle" x="674.5" y="-503.8" font-family="Times,serif" font-size="14.00" fill="white">300,441 row(s)/23 chunk(s)</text>
</g>
<!-- 281399818664336 -->
<g id="node17" class="node">
<title>281399818664336</title>
<g id="a_node17"><a xlink:title="Output: 300441 rows in 23 chunks, 206 µs 786 ns.&#10;Chunks: 0 skipped with no results, &#10;0 skipped with all matching, 0 scanned using binary search.">
<polygon fill="none" stroke="white" points="712.5,-332 470.5,-332 470.5,-248 712.5,-248 712.5,-332"/>
<text text-anchor="middle" x="591.5" y="-316.8" font-family="Times,serif" font-size="14.00" fill="white">TableScan</text>
<text text-anchor="middle" x="591.5" y="-301.8" font-family="Times,serif" font-size="14.00" fill="white">Impl: ColumnVsValue</text>
<text text-anchor="middle" x="591.5" y="-286.8" font-family="Times,serif" font-size="14.00" fill="white">c_mktsegment = &#39;MACHINERY&#39;</text>
<text text-anchor="middle" x="591.5" y="-255.8" font-family="Times,serif" font-size="14.00" fill="white">206 µs 786 ns</text>
</a>
</g>
</g>
<!-- 281399818664336&#45;&gt;281399815509264 -->
<g id="edge17" class="edge">
<title>281399818664336&#45;&gt;281399815509264</title>
<path fill="none" stroke="white" d="M591.22,-332.23C591.07,-354.32 590.89,-381.31 590.75,-402.62"/>
<polygon fill="white" stroke="white" points="587.24,-402.86 590.68,-412.88 594.24,-402.91 587.24,-402.86"/>
<text text-anchor="middle" x="688.5" y="-368.8" font-family="Times,serif" font-size="14.00" fill="white">300,441 row(s)/23 chunk(s)</text>
</g>
<!-- 281399876325776 -->
<g id="node18" class="node">
<title>281399876325776</title>
<g id="a_node18"><a xlink:title="Output: 1500000 rows in 23 chunks, 69 µs 729 ns.">
<polygon fill="none" stroke="white" points="648,-148 535,-148 535,-34 648,-34 648,-148"/>
<text text-anchor="middle" x="591.5" y="-132.8" font-family="Times,serif" font-size="14.00" fill="white">GetTable</text>
<text text-anchor="middle" x="591.5" y="-117.8" font-family="Times,serif" font-size="14.00" fill="white">(customer)</text>
<text text-anchor="middle" x="591.5" y="-102.8" font-family="Times,serif" font-size="14.00" fill="white">pruned:</text>
<text text-anchor="middle" x="591.5" y="-87.8" font-family="Times,serif" font-size="14.00" fill="white">0/23 chunk(s)</text>
<text text-anchor="middle" x="591.5" y="-72.8" font-family="Times,serif" font-size="14.00" fill="white">6/8 column(s)</text>
<text text-anchor="middle" x="591.5" y="-41.8" font-family="Times,serif" font-size="14.00" fill="white">69 µs 729 ns</text>
</a>
</g>
</g>
<!-- 281399876325776&#45;&gt;281399818664336 -->
<g id="edge18" class="edge">
<title>281399876325776&#45;&gt;281399818664336</title>
<path fill="none" stroke="white" d="M591.5,-148.19C591.5,-176.32 591.5,-210.15 591.5,-237.59"/>
<polygon fill="white" stroke="white" points="588,-237.77 591.5,-247.77 595,-237.77 588,-237.77"/>
<text text-anchor="middle" x="696.5" y="-203.8" font-family="Times,serif" font-size="14.00" fill="white">1,500,000 row(s)/23 chunk(s)</text>
</g>
<!-- 0 -->
<g id="node19" class="node">
<title>0</title>
<polygon fill="none" stroke="white" points="666,-0.5 666,-181.5 1017,-181.5 1017,-0.5 666,-0.5"/>
<text text-anchor="middle" x="841.5" y="-166.3" font-family="Times,serif" font-size="14.00" fill="white">Total by operator</text>
<polyline fill="none" stroke="white" points="666,-158.5 1017,-158.5 "/>
<text text-anchor="end" x="825" y="-143.3" font-family="Times,serif" font-size="14.00" fill="white">AggregateHash </text>
<text text-anchor="end" x="825" y="-128.3" font-family="Times,serif" font-size="14.00" fill="white"> JoinSimdSortMerge </text>
<text text-anchor="end" x="825" y="-113.3" font-family="Times,serif" font-size="14.00" fill="white"> Sort </text>
<text text-anchor="end" x="825" y="-98.3" font-family="Times,serif" font-size="14.00" fill="white"> Projection </text>
<text text-anchor="end" x="825" y="-83.3" font-family="Times,serif" font-size="14.00" fill="white"> TableScan </text>
<text text-anchor="end" x="825" y="-68.3" font-family="Times,serif" font-size="14.00" fill="white"> GetTable </text>
<text text-anchor="end" x="825" y="-53.3" font-family="Times,serif" font-size="14.00" fill="white"> Validate </text>
<text text-anchor="end" x="825" y="-38.3" font-family="Times,serif" font-size="14.00" fill="white"> Limit </text>
<text text-anchor="end" x="825" y="-23.3" font-family="Times,serif" font-size="14.00" fill="white"> Alias </text>
<text text-anchor="end" x="825" y="-8.3" font-family="Times,serif" font-size="14.00" fill="white">total</text>
<polyline fill="none" stroke="white" points="833,-0.5 833,-158.5 "/>
<text text-anchor="start" x="841" y="-143.3" font-family="Times,serif" font-size="14.00" fill="white">68 ms 702 µs </text>
<text text-anchor="start" x="841" y="-128.3" font-family="Times,serif" font-size="14.00" fill="white"> 66 ms 11 µs </text>
<text text-anchor="start" x="841" y="-113.3" font-family="Times,serif" font-size="14.00" fill="white"> 53 ms 46 µs </text>
<text text-anchor="start" x="841" y="-98.3" font-family="Times,serif" font-size="14.00" fill="white"> 10 ms 942 µs </text>
<text text-anchor="start" x="841" y="-83.3" font-family="Times,serif" font-size="14.00" fill="white"> 5 ms 901 µs </text>
<text text-anchor="start" x="841" y="-68.3" font-family="Times,serif" font-size="14.00" fill="white"> 1 ms 645 µs </text>
<text text-anchor="start" x="841" y="-53.3" font-family="Times,serif" font-size="14.00" fill="white"> 1 ms 476 µs </text>
<text text-anchor="start" x="841" y="-38.3" font-family="Times,serif" font-size="14.00" fill="white"> 7 µs 552 ns </text>
<text text-anchor="start" x="841" y="-23.3" font-family="Times,serif" font-size="14.00" fill="white"> 2 µs 145 ns </text>
<text text-anchor="start" x="841" y="-8.3" font-family="Times,serif" font-size="14.00" fill="white"> 207 ms 731 µs </text>
<polyline fill="none" stroke="white" points="964,-0.5 964,-158.5 "/>
<text text-anchor="start" x="972" y="-143.3" font-family="Times,serif" font-size="14.00" fill="white">33 %</text>
<text text-anchor="start" x="972" y="-128.3" font-family="Times,serif" font-size="14.00" fill="white">32 %</text>
<text text-anchor="start" x="972" y="-113.3" font-family="Times,serif" font-size="14.00" fill="white">26 %</text>
<text text-anchor="start" x="972" y="-98.3" font-family="Times,serif" font-size="14.00" fill="white">5 %</text>
<text text-anchor="start" x="972" y="-83.3" font-family="Times,serif" font-size="14.00" fill="white">3 %</text>
<text text-anchor="start" x="972" y="-68.3" font-family="Times,serif" font-size="14.00" fill="white">1 %</text>
<text text-anchor="start" x="972" y="-53.3" font-family="Times,serif" font-size="14.00" fill="white">1 %</text>
<text text-anchor="start" x="972" y="-38.3" font-family="Times,serif" font-size="14.00" fill="white">0 %</text>
<text text-anchor="start" x="972" y="-23.3" font-family="Times,serif" font-size="14.00" fill="white">0 %</text>
<text text-anchor="start" x="972" y="-8.3" font-family="Times,serif" font-size="14.00" fill="white"> </text>
</g>
</g>
</svg>
