<?xml version="1.0" encoding="UTF-8" standalone="no"?>
<!DOCTYPE svg PUBLIC "-//W3C//DTD SVG 1.1//EN"
 "http://www.w3.org/Graphics/SVG/1.1/DTD/svg11.dtd">
<!-- Generated by graphviz version 2.43.0 (0)
 -->
<!-- Title: G Pages: 1 -->
<svg width="1395pt" height="1165pt"
 viewBox="0.00 0.00 1395.00 1165.00" xmlns="http://www.w3.org/2000/svg" xmlns:xlink="http://www.w3.org/1999/xlink">
<g id="graph0" class="graph" transform="scale(1 1) rotate(0) translate(4 1161)">
<title>G</title>
<polygon fill="black" stroke="transparent" points="-4,4 -4,-1161 1391,-1161 1391,4 -4,4"/>
<text text-anchor="middle" x="319.5" y="-1141.8" font-family="Times,serif" font-size="14.00" fill="white">For tooltips with advanced information, hover your mouse over vertices or edge labels.</text>
<!-- 126690817361104 -->
<g id="node1" class="node">
<title>126690817361104</title>
<polygon fill="none" stroke="white" points="778.5,-1102 475.5,-1102 475.5,-1064 778.5,-1064 778.5,-1102"/>
<text text-anchor="middle" x="627" y="-1086.8" font-family="Times,serif" font-size="14.00" fill="white">[Alias] ps_partkey, SUM(ps_supplycost *</text>
<text text-anchor="middle" x="627" y="-1071.8" font-family="Times,serif" font-size="14.00" fill="white">ps_availqty) AS value</text>
</g>
<!-- 126718300604688 -->
<g id="node2" class="node">
<title>126718300604688</title>
<polygon fill="none" stroke="white" points="779.5,-1013 474.5,-1013 474.5,-975 779.5,-975 779.5,-1013"/>
<text text-anchor="middle" x="627" y="-997.8" font-family="Times,serif" font-size="14.00" fill="white">[Sort] SUM(ps_supplycost * ps_availqty)</text>
<text text-anchor="middle" x="627" y="-982.8" font-family="Times,serif" font-size="14.00" fill="white">(Descending)</text>
</g>
<!-- 126718300604688&#45;&gt;126690817361104 -->
<g id="edge1" class="edge">
<title>126718300604688&#45;&gt;126690817361104</title>
<path fill="none" stroke="white" d="M627,-1013.03C627,-1024.81 627,-1040.44 627,-1053.84"/>
<polygon fill="white" stroke="white" points="623.5,-1054 627,-1064 630.5,-1054 623.5,-1054"/>
<g id="a_edge1&#45;label"><a xlink:title="Output Expressions: &#10; (1) ps_partkey&#10; (2) SUM(ps_supplycost * ps_availqty) NULL&#10;&#10;Unique Column Combinations: &#10; (1) {ps_partkey}&#10;&#10;Functional Dependencies (trivial): &#10; (1) {ps_partkey} =&gt; {SUM(ps_supplycost * ps_availqty)}&#10;&#10;Functional Dependencies (non&#45;trivial): &#10; &lt;none&gt;">
<text text-anchor="middle" x="744" y="-1034.8" font-family="Times,serif" font-size="14.00" fill="white"> 320,000.0 row(s) | 100.0% estd.</text>
</a>
</g>
</g>
<!-- 126718300602768 -->
<g id="node3" class="node">
<title>126718300602768</title>
<polygon fill="none" stroke="white" points="806.5,-924 447.5,-924 447.5,-886 806.5,-886 806.5,-924"/>
<text text-anchor="middle" x="627" y="-908.8" font-family="Times,serif" font-size="14.00" fill="white">[Predicate] SUM(ps_supplycost * ps_availqty) &gt;</text>
<text text-anchor="middle" x="627" y="-893.8" font-family="Times,serif" font-size="14.00" fill="white">SUBQUERY (LQP, 0x73434622d030)</text>
</g>
<!-- 126718300602768&#45;&gt;126718300604688 -->
<g id="edge2" class="edge">
<title>126718300602768&#45;&gt;126718300604688</title>
<path fill="none" stroke="white" d="M627,-924.03C627,-935.81 627,-951.44 627,-964.84"/>
<polygon fill="white" stroke="white" points="623.5,-965 627,-975 630.5,-965 623.5,-965"/>
<g id="a_edge2&#45;label"><a xlink:title="Output Expressions: &#10; (1) ps_partkey&#10; (2) SUM(ps_supplycost * ps_availqty) NULL&#10;&#10;Unique Column Combinations: &#10; (1) {ps_partkey}&#10;&#10;Functional Dependencies (trivial): &#10; (1) {ps_partkey} =&gt; {SUM(ps_supplycost * ps_availqty)}&#10;&#10;Functional Dependencies (non&#45;trivial): &#10; &lt;none&gt;">
<text text-anchor="middle" x="744" y="-945.8" font-family="Times,serif" font-size="14.00" fill="white"> 320,000.0 row(s) | 100.0% estd.</text>
</a>
</g>
</g>
<!-- 126690825862608 -->
<g id="node4" class="node">
<title>126690825862608</title>
<polygon fill="none" stroke="white" points="618.5,-835 261.5,-835 261.5,-797 618.5,-797 618.5,-835"/>
<text text-anchor="middle" x="440" y="-819.8" font-family="Times,serif" font-size="14.00" fill="white">[Aggregate] GroupBy: [ps_partkey] Aggregates:</text>
<text text-anchor="middle" x="440" y="-804.8" font-family="Times,serif" font-size="14.00" fill="white">[SUM(ps_supplycost * ps_availqty)]</text>
</g>
<!-- 126690825862608&#45;&gt;126718300602768 -->
<g id="edge3" class="edge">
<title>126690825862608&#45;&gt;126718300602768</title>
<path fill="none" stroke="white" d="M469.37,-835.23C486.66,-845.55 509.16,-858.3 530,-868 540.88,-873.06 552.68,-877.93 564.19,-882.37"/>
<polygon fill="white" stroke="white" points="563.17,-885.72 573.76,-885.99 565.65,-879.18 563.17,-885.72"/>
<g id="a_edge3&#45;label"><a xlink:title="Output Expressions: &#10; (1) ps_partkey&#10; (2) SUM(ps_supplycost * ps_availqty) NULL&#10;&#10;Unique Column Combinations: &#10; (1) {ps_partkey}&#10;&#10;Functional Dependencies (trivial): &#10; (1) {ps_partkey} =&gt; {SUM(ps_supplycost * ps_availqty)}&#10;&#10;Functional Dependencies (non&#45;trivial): &#10; &lt;none&gt;">
<text text-anchor="middle" x="647" y="-856.8" font-family="Times,serif" font-size="14.00" fill="white"> 320,000.0 row(s) | 100.0% estd.</text>
</a>
</g>
</g>
<!-- 126732776688752 -->
<g id="node5" class="node">
<title>126732776688752</title>
<polygon fill="none" stroke="white" points="591,-746 289,-746 289,-708 591,-708 591,-746"/>
<text text-anchor="middle" x="440" y="-730.8" font-family="Times,serif" font-size="14.00" fill="white">[Projection] ps_supplycost * ps_availqty,</text>
<text text-anchor="middle" x="440" y="-715.8" font-family="Times,serif" font-size="14.00" fill="white">ps_partkey</text>
</g>
<!-- 126732776688752&#45;&gt;126690825862608 -->
<g id="edge4" class="edge">
<title>126732776688752&#45;&gt;126690825862608</title>
<path fill="none" stroke="white" d="M440,-746.03C440,-757.81 440,-773.44 440,-786.84"/>
<polygon fill="white" stroke="white" points="436.5,-787 440,-797 443.5,-787 436.5,-787"/>
<g id="a_edge4&#45;label"><a xlink:title="Output Expressions: &#10; (1) ps_supplycost * ps_availqty&#10; (2) ps_partkey&#10;&#10;Unique Column Combinations: &#10; &lt;none&gt;&#10;&#10;Functional Dependencies (trivial): &#10; &lt;none&gt;&#10;&#10;Functional Dependencies (non&#45;trivial): &#10; &lt;none&gt;">
<text text-anchor="middle" x="557" y="-767.8" font-family="Times,serif" font-size="14.00" fill="white"> 320,000.0 row(s) | 100.0% estd.</text>
</a>
</g>
</g>
<!-- 126732776671952 -->
<g id="node6" class="node">
<title>126732776671952</title>
<polygon fill="none" stroke="white" points="482.5,-657 397.5,-657 397.5,-621 482.5,-621 482.5,-657"/>
<text text-anchor="middle" x="440" y="-635.3" font-family="Times,serif" font-size="14.00" fill="white">[Validate]</text>
</g>
<!-- 126732776671952&#45;&gt;126732776688752 -->
<g id="edge5" class="edge">
<title>126732776671952&#45;&gt;126732776688752</title>
<path fill="none" stroke="white" d="M440,-657.4C440,-668.94 440,-684.35 440,-697.64"/>
<polygon fill="white" stroke="white" points="436.5,-697.73 440,-707.73 443.5,-697.73 436.5,-697.73"/>
<g id="a_edge5&#45;label"><a xlink:title="Output Expressions: &#10; (1) ps_partkey&#10; (2) ps_suppkey&#10; (3) ps_availqty&#10; (4) ps_supplycost&#10;&#10;Unique Column Combinations: &#10; (1) {ps_partkey, ps_suppkey}&#10;&#10;Functional Dependencies (trivial): &#10; (1) {ps_partkey, ps_suppkey} =&gt; {ps_availqty, ps_supplycost}&#10;&#10;Functional Dependencies (non&#45;trivial): &#10; &lt;none&gt;">
<text text-anchor="middle" x="557" y="-678.8" font-family="Times,serif" font-size="14.00" fill="white"> 320,000.0 row(s) | 100.0% estd.</text>
</a>
</g>
</g>
<!-- 126732774844368 -->
<g id="node7" class="node">
<title>126732774844368</title>
<polygon fill="none" stroke="white" points="607.5,-570 272.5,-570 272.5,-534 607.5,-534 607.5,-570"/>
<text text-anchor="middle" x="440" y="-548.3" font-family="Times,serif" font-size="14.00" fill="white">[Join] Mode: Semi [ps_suppkey = s_suppkey]</text>
</g>
<!-- 126732774844368&#45;&gt;126732776671952 -->
<g id="edge6" class="edge">
<title>126732774844368&#45;&gt;126732776671952</title>
<path fill="none" stroke="white" d="M440,-570.2C440,-581.84 440,-597.45 440,-610.76"/>
<polygon fill="white" stroke="white" points="436.5,-610.82 440,-620.82 443.5,-610.82 436.5,-610.82"/>
<g id="a_edge6&#45;label"><a xlink:title="Output Expressions: &#10; (1) ps_partkey&#10; (2) ps_suppkey&#10; (3) ps_availqty&#10; (4) ps_supplycost&#10;&#10;Unique Column Combinations: &#10; (1) {ps_partkey, ps_suppkey}&#10;&#10;Functional Dependencies (trivial): &#10; (1) {ps_partkey, ps_suppkey} =&gt; {ps_availqty, ps_supplycost}&#10;&#10;Functional Dependencies (non&#45;trivial): &#10; &lt;none&gt;">
<text text-anchor="middle" x="548" y="-591.8" font-family="Times,serif" font-size="14.00" fill="white"> 320,000.0 row(s) | 4.0% estd.</text>
</a>
</g>
</g>
<!-- 126690601726032 -->
<g id="node8" class="node">
<title>126690601726032</title>
<polygon fill="none" stroke="white" points="346,-483 0,-483 0,-445 346,-445 346,-483"/>
<text text-anchor="middle" x="173" y="-467.8" font-family="Times,serif" font-size="14.00" fill="white">[StoredTable] Name: &#39;partsupp&#39; pruned: 0/123</text>
<text text-anchor="middle" x="173" y="-452.8" font-family="Times,serif" font-size="14.00" fill="white">chunk(s), 1/5 column(s)</text>
</g>
<!-- 126690601726032&#45;&gt;126732774844368 -->
<g id="edge7" class="edge">
<title>126690601726032&#45;&gt;126732774844368</title>
<path fill="none" stroke="white" stroke-width="8" d="M174.69,-483.03C176.72,-494.23 181.19,-507.97 191,-516 203.79,-526.46 230.77,-533.79 262.44,-538.93"/>
<polygon fill="white" stroke="white" stroke-width="8" points="262.52,-538.95 261.46,-545.86 272.41,-540.46 262.52,-538.95"/>
<g id="a_edge7&#45;label"><a xlink:title="Output Expressions: &#10; (1) ps_partkey&#10; (2) ps_suppkey&#10; (3) ps_availqty&#10; (4) ps_supplycost&#10;&#10;Unique Column Combinations: &#10; (1) {ps_partkey, ps_suppkey}&#10;&#10;Functional Dependencies (trivial): &#10; (1) {ps_partkey, ps_suppkey} =&gt; {ps_availqty, ps_supplycost}&#10;&#10;Functional Dependencies (non&#45;trivial): &#10; &lt;none&gt;">
<text text-anchor="middle" x="314.5" y="-504.8" font-family="Times,serif" font-size="14.00" fill="white"> 8,000,000.0 row(s) | 100.0% estd.</text>
</a>
</g>
</g>
<!-- 126732776687792 -->
<g id="node9" class="node">
<title>126732776687792</title>
<polygon fill="none" stroke="white" points="485.5,-482 400.5,-482 400.5,-446 485.5,-446 485.5,-482"/>
<text text-anchor="middle" x="443" y="-460.3" font-family="Times,serif" font-size="14.00" fill="white">[Validate]</text>
</g>
<!-- 126732776687792&#45;&gt;126732774844368 -->
<g id="edge8" class="edge">
<title>126732776687792&#45;&gt;126732774844368</title>
<path fill="none" stroke="white" d="M442.39,-482.4C441.98,-494.25 441.42,-510.18 440.95,-523.71"/>
<polygon fill="white" stroke="white" points="440.6,-533.92 444.44,-524.04 440.94,-523.92 440.6,-533.92"/>
<g id="a_edge8&#45;label"><a xlink:title="Output Expressions: &#10; (1) s_suppkey&#10; (2) s_nationkey&#10;&#10;Unique Column Combinations: &#10; (1) {s_suppkey}&#10;&#10;Functional Dependencies (trivial): &#10; (1) {s_suppkey} =&gt; {s_nationkey}&#10;&#10;Functional Dependencies (non&#45;trivial): &#10; &lt;none&gt;">
<text text-anchor="middle" x="550" y="-504.8" font-family="Times,serif" font-size="14.00" fill="white"> 4,000.0 row(s) | 100.0% estd.</text>
</a>
</g>
</g>
<!-- 126718071240528 -->
<g id="node10" class="node">
<title>126718071240528</title>
<polygon fill="none" stroke="white" points="617.5,-393 268.5,-393 268.5,-357 617.5,-357 617.5,-393"/>
<text text-anchor="middle" x="443" y="-371.3" font-family="Times,serif" font-size="14.00" fill="white">[Join] Mode: Semi [s_nationkey = n_nationkey]</text>
</g>
<!-- 126718071240528&#45;&gt;126732776687792 -->
<g id="edge9" class="edge">
<title>126718071240528&#45;&gt;126732776687792</title>
<path fill="none" stroke="white" d="M443,-393.19C443,-405.34 443,-421.89 443,-435.82"/>
<polygon fill="white" stroke="white" points="439.5,-435.85 443,-445.85 446.5,-435.85 439.5,-435.85"/>
<g id="a_edge9&#45;label"><a xlink:title="Output Expressions: &#10; (1) s_suppkey&#10; (2) s_nationkey&#10;&#10;Unique Column Combinations: &#10; (1) {s_suppkey}&#10;&#10;Functional Dependencies (trivial): &#10; (1) {s_suppkey} =&gt; {s_nationkey}&#10;&#10;Functional Dependencies (non&#45;trivial): &#10; &lt;none&gt;">
<text text-anchor="middle" x="542" y="-415.8" font-family="Times,serif" font-size="14.00" fill="white"> 4,000.0 row(s) | 4.0% estd.</text>
</a>
</g>
</g>
<!-- 126690601726352 -->
<g id="node11" class="node">
<title>126690601726352</title>
<polygon fill="none" stroke="white" points="489,-305 167,-305 167,-267 489,-267 489,-305"/>
<text text-anchor="middle" x="328" y="-289.8" font-family="Times,serif" font-size="14.00" fill="white">[StoredTable] Name: &#39;supplier&#39; pruned: 0/2</text>
<text text-anchor="middle" x="328" y="-274.8" font-family="Times,serif" font-size="14.00" fill="white">chunk(s), 5/7 column(s)</text>
</g>
<!-- 126690601726352&#45;&gt;126718071240528 -->
<g id="edge10" class="edge">
<title>126690601726352&#45;&gt;126718071240528</title>
<path fill="none" stroke="white" d="M323.48,-305.2C321.95,-315.77 322.1,-328.78 329,-338 332.88,-343.18 337.5,-347.63 342.63,-351.46"/>
<polygon fill="white" stroke="white" points="342.69,-351.5 340.78,-354.43 351.07,-356.97 342.69,-351.5"/>
<g id="a_edge10&#45;label"><a xlink:title="Output Expressions: &#10; (1) s_suppkey&#10; (2) s_nationkey&#10;&#10;Unique Column Combinations: &#10; (1) {s_suppkey}&#10;&#10;Functional Dependencies (trivial): &#10; (1) {s_suppkey} =&gt; {s_nationkey}&#10;&#10;Functional Dependencies (non&#45;trivial): &#10; &lt;none&gt;">
<text text-anchor="middle" x="446" y="-326.8" font-family="Times,serif" font-size="14.00" fill="white"> 100,000.0 row(s) | 100.0% estd.</text>
</a>
</g>
</g>
<!-- 126732776688272 -->
<g id="node12" class="node">
<title>126732776688272</title>
<polygon fill="none" stroke="white" points="627.5,-304 542.5,-304 542.5,-268 627.5,-268 627.5,-304"/>
<text text-anchor="middle" x="585" y="-282.3" font-family="Times,serif" font-size="14.00" fill="white">[Validate]</text>
</g>
<!-- 126732776688272&#45;&gt;126718071240528 -->
<g id="edge11" class="edge">
<title>126732776688272&#45;&gt;126718071240528</title>
<path fill="none" stroke="white" d="M581.49,-304.36C578.39,-315.43 572.79,-329.28 563,-338 556.58,-343.72 549.28,-348.53 541.53,-352.58"/>
<polygon fill="white" stroke="white" points="532.24,-356.98 542.77,-355.86 541.27,-352.69 532.24,-356.98"/>
<g id="a_edge11&#45;label"><a xlink:title="Output Expressions: &#10; (1) n_nationkey&#10; (2) n_name&#10;&#10;Unique Column Combinations: &#10; (1) {n_nationkey}&#10;&#10;Functional Dependencies (trivial): &#10; (1) {n_nationkey} =&gt; {n_name}&#10;&#10;Functional Dependencies (non&#45;trivial): &#10; &lt;none&gt;">
<text text-anchor="middle" x="666" y="-326.8" font-family="Times,serif" font-size="14.00" fill="white"> 1.0 row(s) | 100.0% estd.</text>
</a>
</g>
</g>
<!-- 126718300602000 -->
<g id="node13" class="node">
<title>126718300602000</title>
<polygon fill="none" stroke="white" points="731,-215 439,-215 439,-179 731,-179 731,-215"/>
<text text-anchor="middle" x="585" y="-193.3" font-family="Times,serif" font-size="14.00" fill="white">[Predicate] n_name = &#39;MOZAMBIQUE&#39;</text>
</g>
<!-- 126718300602000&#45;&gt;126732776688272 -->
<g id="edge12" class="edge">
<title>126718300602000&#45;&gt;126732776688272</title>
<path fill="none" stroke="white" d="M585,-215.19C585,-227.34 585,-243.89 585,-257.82"/>
<polygon fill="white" stroke="white" points="581.5,-257.85 585,-267.85 588.5,-257.85 581.5,-257.85"/>
<g id="a_edge12&#45;label"><a xlink:title="Output Expressions: &#10; (1) n_nationkey&#10; (2) n_name&#10;&#10;Unique Column Combinations: &#10; (1) {n_nationkey}&#10;&#10;Functional Dependencies (trivial): &#10; (1) {n_nationkey} =&gt; {n_name}&#10;&#10;Functional Dependencies (non&#45;trivial): &#10; &lt;none&gt;">
<text text-anchor="middle" x="668" y="-237.8" font-family="Times,serif" font-size="14.00" fill="white"> 1.0 row(s) | 4.0% estd.</text>
</a>
</g>
</g>
<!-- 126690601729232 -->
<g id="node14" class="node">
<title>126690601729232</title>
<polygon fill="none" stroke="white" points="774,-127 396,-127 396,-89 774,-89 774,-127"/>
<text text-anchor="middle" x="585" y="-111.8" font-family="Times,serif" font-size="14.00" fill="white">[StoredTable] Name: &#39;nation&#39; pruned: 0/1 chunk(s),</text>
<text text-anchor="middle" x="585" y="-96.8" font-family="Times,serif" font-size="14.00" fill="white">2/4 column(s)</text>
</g>
<!-- 126690601729232&#45;&gt;126718300602000 -->
<g id="edge13" class="edge">
<title>126690601729232&#45;&gt;126718300602000</title>
<path fill="none" stroke="white" d="M585,-127.03C585,-139.04 585,-155.07 585,-168.64"/>
<polygon fill="white" stroke="white" points="581.5,-168.88 585,-178.88 588.5,-168.88 581.5,-168.88"/>
<g id="a_edge13&#45;label"><a xlink:title="Output Expressions: &#10; (1) n_nationkey&#10; (2) n_name&#10;&#10;Unique Column Combinations: &#10; (1) {n_nationkey}&#10;&#10;Functional Dependencies (trivial): &#10; (1) {n_nationkey} =&gt; {n_name}&#10;&#10;Functional Dependencies (non&#45;trivial): &#10; &lt;none&gt;">
<text text-anchor="middle" x="681.5" y="-148.8" font-family="Times,serif" font-size="14.00" fill="white"> 25.0 row(s) | 100.0% estd.</text>
</a>
</g>
</g>
<!-- 126732776689712 -->
<g id="node15" class="node">
<title>126732776689712</title>
<polygon fill="none" stroke="white" points="995,-835 637,-835 637,-797 995,-797 995,-835"/>
<text text-anchor="middle" x="816" y="-819.8" font-family="Times,serif" font-size="14.00" fill="white">[Projection] SUM(ps_supplycost * ps_availqty) *</text>
<text text-anchor="middle" x="816" y="-804.8" font-family="Times,serif" font-size="14.00" fill="white">1e&#45;05</text>
</g>
<!-- 126732776689712&#45;&gt;126718300602768 -->
<g id="edge14" class="edge">
<title>126732776689712&#45;&gt;126718300602768</title>
<path fill="none" stroke="white" stroke-dasharray="5,2" d="M801.87,-835.01C792.29,-846.05 778.74,-859.63 764,-868 753.89,-873.74 742.85,-878.59 731.55,-882.67"/>
<polygon fill="white" stroke="white" points="730.35,-879.38 722.02,-885.93 732.62,-886.01 730.35,-879.38"/>
<text text-anchor="middle" x="865.5" y="-856.8" font-family="Times,serif" font-size="14.00" fill="white">uncorrelated subquery</text>
</g>
<!-- 126718300602576 -->
<g id="node16" class="node">
<title>126718300602576</title>
<polygon fill="none" stroke="white" points="955.5,-746 676.5,-746 676.5,-708 955.5,-708 955.5,-746"/>
<text text-anchor="middle" x="816" y="-730.8" font-family="Times,serif" font-size="14.00" fill="white">[Aggregate] GroupBy: [] Aggregates:</text>
<text text-anchor="middle" x="816" y="-715.8" font-family="Times,serif" font-size="14.00" fill="white">[SUM(ps_supplycost * ps_availqty)]</text>
</g>
<!-- 126718300602576&#45;&gt;126732776689712 -->
<g id="edge15" class="edge">
<title>126718300602576&#45;&gt;126732776689712</title>
<path fill="none" stroke="white" d="M816,-746.03C816,-757.81 816,-773.44 816,-786.84"/>
<polygon fill="white" stroke="white" points="812.5,-787 816,-797 819.5,-787 812.5,-787"/>
<g id="a_edge15&#45;label"><a xlink:title="Output Expressions: &#10; (1) SUM(ps_supplycost * ps_availqty) NULL&#10;&#10;Unique Column Combinations: &#10; &lt;none&gt;&#10;&#10;Functional Dependencies (trivial): &#10; &lt;none&gt;&#10;&#10;Functional Dependencies (non&#45;trivial): &#10; &lt;none&gt;">
<text text-anchor="middle" x="933" y="-767.8" font-family="Times,serif" font-size="14.00" fill="white"> 320,000.0 row(s) | 100.0% estd.</text>
</a>
</g>
</g>
<!-- 126732776689552 -->
<g id="node17" class="node">
<title>126732776689552</title>
<polygon fill="none" stroke="white" points="966,-657 666,-657 666,-621 966,-621 966,-657"/>
<text text-anchor="middle" x="816" y="-635.3" font-family="Times,serif" font-size="14.00" fill="white">[Projection] ps_supplycost * ps_availqty</text>
</g>
<!-- 126732776689552&#45;&gt;126718300602576 -->
<g id="edge16" class="edge">
<title>126732776689552&#45;&gt;126718300602576</title>
<path fill="none" stroke="white" d="M816,-657.4C816,-668.94 816,-684.35 816,-697.64"/>
<polygon fill="white" stroke="white" points="812.5,-697.73 816,-707.73 819.5,-697.73 812.5,-697.73"/>
<g id="a_edge16&#45;label"><a xlink:title="Output Expressions: &#10; (1) ps_supplycost * ps_availqty&#10;&#10;Unique Column Combinations: &#10; &lt;none&gt;&#10;&#10;Functional Dependencies (trivial): &#10; &lt;none&gt;&#10;&#10;Functional Dependencies (non&#45;trivial): &#10; &lt;none&gt;">
<text text-anchor="middle" x="933" y="-678.8" font-family="Times,serif" font-size="14.00" fill="white"> 320,000.0 row(s) | 100.0% estd.</text>
</a>
</g>
</g>
<!-- 126732776689232 -->
<g id="node18" class="node">
<title>126732776689232</title>
<polygon fill="none" stroke="white" points="858.5,-570 773.5,-570 773.5,-534 858.5,-534 858.5,-570"/>
<text text-anchor="middle" x="816" y="-548.3" font-family="Times,serif" font-size="14.00" fill="white">[Validate]</text>
</g>
<!-- 126732776689232&#45;&gt;126732776689552 -->
<g id="edge17" class="edge">
<title>126732776689232&#45;&gt;126732776689552</title>
<path fill="none" stroke="white" d="M816,-570.2C816,-581.84 816,-597.45 816,-610.76"/>
<polygon fill="white" stroke="white" points="812.5,-610.82 816,-620.82 819.5,-610.82 812.5,-610.82"/>
<g id="a_edge17&#45;label"><a xlink:title="Output Expressions: &#10; (1) ps_partkey&#10; (2) ps_suppkey&#10; (3) ps_availqty&#10; (4) ps_supplycost&#10;&#10;Unique Column Combinations: &#10; (1) {ps_partkey, ps_suppkey}&#10;&#10;Functional Dependencies (trivial): &#10; (1) {ps_partkey, ps_suppkey} =&gt; {ps_availqty, ps_supplycost}&#10;&#10;Functional Dependencies (non&#45;trivial): &#10; &lt;none&gt;">
<text text-anchor="middle" x="933" y="-591.8" font-family="Times,serif" font-size="14.00" fill="white"> 320,000.0 row(s) | 100.0% estd.</text>
</a>
</g>
</g>
<!-- 126718300603152 -->
<g id="node19" class="node">
<title>126718300603152</title>
<polygon fill="none" stroke="white" points="983.5,-482 648.5,-482 648.5,-446 983.5,-446 983.5,-482"/>
<text text-anchor="middle" x="816" y="-460.3" font-family="Times,serif" font-size="14.00" fill="white">[Join] Mode: Semi [ps_suppkey = s_suppkey]</text>
</g>
<!-- 126718300603152&#45;&gt;126732776689232 -->
<g id="edge18" class="edge">
<title>126718300603152&#45;&gt;126732776689232</title>
<path fill="none" stroke="white" d="M816,-482.4C816,-494.25 816,-510.18 816,-523.71"/>
<polygon fill="white" stroke="white" points="812.5,-523.92 816,-533.92 819.5,-523.92 812.5,-523.92"/>
<g id="a_edge18&#45;label"><a xlink:title="Output Expressions: &#10; (1) ps_partkey&#10; (2) ps_suppkey&#10; (3) ps_availqty&#10; (4) ps_supplycost&#10;&#10;Unique Column Combinations: &#10; (1) {ps_partkey, ps_suppkey}&#10;&#10;Functional Dependencies (trivial): &#10; (1) {ps_partkey, ps_suppkey} =&gt; {ps_availqty, ps_supplycost}&#10;&#10;Functional Dependencies (non&#45;trivial): &#10; &lt;none&gt;">
<text text-anchor="middle" x="924" y="-504.8" font-family="Times,serif" font-size="14.00" fill="white"> 320,000.0 row(s) | 4.0% estd.</text>
</a>
</g>
</g>
<!-- 126690601727952 -->
<g id="node20" class="node">
<title>126690601727952</title>
<polygon fill="none" stroke="white" points="984,-394 638,-394 638,-356 984,-356 984,-394"/>
<text text-anchor="middle" x="811" y="-378.8" font-family="Times,serif" font-size="14.00" fill="white">[StoredTable] Name: &#39;partsupp&#39; pruned: 0/123</text>
<text text-anchor="middle" x="811" y="-363.8" font-family="Times,serif" font-size="14.00" fill="white">chunk(s), 1/5 column(s)</text>
</g>
<!-- 126690601727952&#45;&gt;126718300603152 -->
<g id="edge19" class="edge">
<title>126690601727952&#45;&gt;126718300603152</title>
<path fill="none" stroke="white" stroke-width="8" d="M810.96,-394.43C811.04,-404.13 811.3,-416.22 812,-427 812.18,-429.79 812.42,-432.69 812.69,-435.58"/>
<polygon fill="white" stroke="white" stroke-width="8" points="812.72,-435.87 805.76,-436.6 813.77,-445.82 812.72,-435.87"/>
<g id="a_edge19&#45;label"><a xlink:title="Output Expressions: &#10; (1) ps_partkey&#10; (2) ps_suppkey&#10; (3) ps_availqty&#10; (4) ps_supplycost&#10;&#10;Unique Column Combinations: &#10; (1) {ps_partkey, ps_suppkey}&#10;&#10;Functional Dependencies (trivial): &#10; (1) {ps_partkey, ps_suppkey} =&gt; {ps_availqty, ps_supplycost}&#10;&#10;Functional Dependencies (non&#45;trivial): &#10; &lt;none&gt;">
<text text-anchor="middle" x="935.5" y="-415.8" font-family="Times,serif" font-size="14.00" fill="white"> 8,000,000.0 row(s) | 100.0% estd.</text>
</a>
</g>
</g>
<!-- 126732776688592 -->
<g id="node21" class="node">
<title>126732776688592</title>
<polygon fill="none" stroke="white" points="1123.5,-393 1038.5,-393 1038.5,-357 1123.5,-357 1123.5,-393"/>
<text text-anchor="middle" x="1081" y="-371.3" font-family="Times,serif" font-size="14.00" fill="white">[Validate]</text>
</g>
<!-- 126732776688592&#45;&gt;126718300603152 -->
<g id="edge20" class="edge">
<title>126732776688592&#45;&gt;126718300603152</title>
<path fill="none" stroke="white" d="M1078.01,-393.35C1075.12,-404.7 1069.55,-418.89 1059,-427 1046.89,-436.31 1022.52,-443.23 993.7,-448.37"/>
<polygon fill="white" stroke="white" points="983.77,-450.04 994.22,-451.83 993.63,-448.38 983.77,-450.04"/>
<g id="a_edge20&#45;label"><a xlink:title="Output Expressions: &#10; (1) s_suppkey&#10; (2) s_nationkey&#10;&#10;Unique Column Combinations: &#10; (1) {s_suppkey}&#10;&#10;Functional Dependencies (trivial): &#10; (1) {s_suppkey} =&gt; {s_nationkey}&#10;&#10;Functional Dependencies (non&#45;trivial): &#10; &lt;none&gt;">
<text text-anchor="middle" x="1179" y="-415.8" font-family="Times,serif" font-size="14.00" fill="white"> 4,000.0 row(s) | 100.0% estd.</text>
</a>
</g>
</g>
<!-- 126718300602960 -->
<g id="node22" class="node">
<title>126718300602960</title>
<polygon fill="none" stroke="white" points="1255.5,-304 906.5,-304 906.5,-268 1255.5,-268 1255.5,-304"/>
<text text-anchor="middle" x="1081" y="-282.3" font-family="Times,serif" font-size="14.00" fill="white">[Join] Mode: Semi [s_nationkey = n_nationkey]</text>
</g>
<!-- 126718300602960&#45;&gt;126732776688592 -->
<g id="edge21" class="edge">
<title>126718300602960&#45;&gt;126732776688592</title>
<path fill="none" stroke="white" d="M1081,-304.19C1081,-316.34 1081,-332.89 1081,-346.82"/>
<polygon fill="white" stroke="white" points="1077.5,-346.85 1081,-356.85 1084.5,-346.85 1077.5,-346.85"/>
<g id="a_edge21&#45;label"><a xlink:title="Output Expressions: &#10; (1) s_suppkey&#10; (2) s_nationkey&#10;&#10;Unique Column Combinations: &#10; (1) {s_suppkey}&#10;&#10;Functional Dependencies (trivial): &#10; (1) {s_suppkey} =&gt; {s_nationkey}&#10;&#10;Functional Dependencies (non&#45;trivial): &#10; &lt;none&gt;">
<text text-anchor="middle" x="1180" y="-326.8" font-family="Times,serif" font-size="14.00" fill="white"> 4,000.0 row(s) | 4.0% estd.</text>
</a>
</g>
</g>
<!-- 126690601726672 -->
<g id="node23" class="node">
<title>126690601726672</title>
<polygon fill="none" stroke="white" points="1098,-216 776,-216 776,-178 1098,-178 1098,-216"/>
<text text-anchor="middle" x="937" y="-200.8" font-family="Times,serif" font-size="14.00" fill="white">[StoredTable] Name: &#39;supplier&#39; pruned: 0/2</text>
<text text-anchor="middle" x="937" y="-185.8" font-family="Times,serif" font-size="14.00" fill="white">chunk(s), 5/7 column(s)</text>
</g>
<!-- 126690601726672&#45;&gt;126718300602960 -->
<g id="edge22" class="edge">
<title>126690601726672&#45;&gt;126718300602960</title>
<path fill="none" stroke="white" d="M930.36,-216.31C927.77,-226.92 926.88,-239.93 934,-249 938.91,-255.26 949.72,-260.57 963.36,-265.03"/>
<polygon fill="white" stroke="white" points="963.63,-265.11 962.63,-268.46 973.21,-267.98 963.63,-265.11"/>
<g id="a_edge22&#45;label"><a xlink:title="Output Expressions: &#10; (1) s_suppkey&#10; (2) s_nationkey&#10;&#10;Unique Column Combinations: &#10; (1) {s_suppkey}&#10;&#10;Functional Dependencies (trivial): &#10; (1) {s_suppkey} =&gt; {s_nationkey}&#10;&#10;Functional Dependencies (non&#45;trivial): &#10; &lt;none&gt;">
<text text-anchor="middle" x="1051" y="-237.8" font-family="Times,serif" font-size="14.00" fill="white"> 100,000.0 row(s) | 100.0% estd.</text>
</a>
</g>
</g>
<!-- 126732776689072 -->
<g id="node24" class="node">
<title>126732776689072</title>
<polygon fill="none" stroke="white" points="1236.5,-215 1151.5,-215 1151.5,-179 1236.5,-179 1236.5,-215"/>
<text text-anchor="middle" x="1194" y="-193.3" font-family="Times,serif" font-size="14.00" fill="white">[Validate]</text>
</g>
<!-- 126732776689072&#45;&gt;126718300602960 -->
<g id="edge23" class="edge">
<title>126732776689072&#45;&gt;126718300602960</title>
<path fill="none" stroke="white" d="M1190.24,-215.09C1187.03,-226.05 1181.41,-239.87 1172,-249 1166.34,-254.49 1159.74,-259.17 1152.73,-263.16"/>
<polygon fill="white" stroke="white" points="1143.67,-267.85 1154.16,-266.36 1152.55,-263.25 1143.67,-267.85"/>
<g id="a_edge23&#45;label"><a xlink:title="Output Expressions: &#10; (1) n_nationkey&#10; (2) n_name&#10;&#10;Unique Column Combinations: &#10; (1) {n_nationkey}&#10;&#10;Functional Dependencies (trivial): &#10; (1) {n_nationkey} =&gt; {n_name}&#10;&#10;Functional Dependencies (non&#45;trivial): &#10; &lt;none&gt;">
<text text-anchor="middle" x="1274" y="-237.8" font-family="Times,serif" font-size="14.00" fill="white"> 1.0 row(s) | 100.0% estd.</text>
</a>
</g>
</g>
<!-- 126718216384912 -->
<g id="node25" class="node">
<title>126718216384912</title>
<polygon fill="none" stroke="white" points="1340,-126 1048,-126 1048,-90 1340,-90 1340,-126"/>
<text text-anchor="middle" x="1194" y="-104.3" font-family="Times,serif" font-size="14.00" fill="white">[Predicate] n_name = &#39;MOZAMBIQUE&#39;</text>
</g>
<!-- 126718216384912&#45;&gt;126732776689072 -->
<g id="edge24" class="edge">
<title>126718216384912&#45;&gt;126732776689072</title>
<path fill="none" stroke="white" d="M1194,-126.19C1194,-138.34 1194,-154.89 1194,-168.82"/>
<polygon fill="white" stroke="white" points="1190.5,-168.85 1194,-178.85 1197.5,-168.85 1190.5,-168.85"/>
<g id="a_edge24&#45;label"><a xlink:title="Output Expressions: &#10; (1) n_nationkey&#10; (2) n_name&#10;&#10;Unique Column Combinations: &#10; (1) {n_nationkey}&#10;&#10;Functional Dependencies (trivial): &#10; (1) {n_nationkey} =&gt; {n_name}&#10;&#10;Functional Dependencies (non&#45;trivial): &#10; &lt;none&gt;">
<text text-anchor="middle" x="1277" y="-148.8" font-family="Times,serif" font-size="14.00" fill="white"> 1.0 row(s) | 4.0% estd.</text>
</a>
</g>
</g>
<!-- 126690601728272 -->
<g id="node26" class="node">
<title>126690601728272</title>
<polygon fill="none" stroke="white" points="1383,-38 1005,-38 1005,0 1383,0 1383,-38"/>
<text text-anchor="middle" x="1194" y="-22.8" font-family="Times,serif" font-size="14.00" fill="white">[StoredTable] Name: &#39;nation&#39; pruned: 0/1 chunk(s),</text>
<text text-anchor="middle" x="1194" y="-7.8" font-family="Times,serif" font-size="14.00" fill="white">2/4 column(s)</text>
</g>
<!-- 126690601728272&#45;&gt;126718216384912 -->
<g id="edge25" class="edge">
<title>126690601728272&#45;&gt;126718216384912</title>
<path fill="none" stroke="white" d="M1194,-38.03C1194,-50.04 1194,-66.07 1194,-79.64"/>
<polygon fill="white" stroke="white" points="1190.5,-79.88 1194,-89.88 1197.5,-79.88 1190.5,-79.88"/>
<g id="a_edge25&#45;label"><a xlink:title="Output Expressions: &#10; (1) n_nationkey&#10; (2) n_name&#10;&#10;Unique Column Combinations: &#10; (1) {n_nationkey}&#10;&#10;Functional Dependencies (trivial): &#10; (1) {n_nationkey} =&gt; {n_name}&#10;&#10;Functional Dependencies (non&#45;trivial): &#10; &lt;none&gt;">
<text text-anchor="middle" x="1290.5" y="-59.8" font-family="Times,serif" font-size="14.00" fill="white"> 25.0 row(s) | 100.0% estd.</text>
</a>
</g>
</g>
</g>
</svg>
