<?xml version="1.0" encoding="UTF-8" standalone="no"?>
<!DOCTYPE svg PUBLIC "-//W3C//DTD SVG 1.1//EN"
 "http://www.w3.org/Graphics/SVG/1.1/DTD/svg11.dtd">
<!-- Generated by graphviz version 2.43.0 (0)
 -->
<!-- Title: G Pages: 1 -->
<svg width="2068pt" height="1909pt"
 viewBox="0.00 0.00 2068.00 1909.00" xmlns="http://www.w3.org/2000/svg" xmlns:xlink="http://www.w3.org/1999/xlink">
<g id="graph0" class="graph" transform="scale(1 1) rotate(0) translate(4 1905)">
<title>G</title>
<polygon fill="black" stroke="transparent" points="-4,4 -4,-1905 2064,-1905 2064,4 -4,4"/>
<text text-anchor="middle" x="319.5" y="-1885.8" font-family="Times,serif" font-size="14.00" fill="white">For tooltips with advanced information, hover your mouse over vertices or edge labels.</text>
<!-- 126718228829008 -->
<g id="node1" class="node">
<title>126718228829008</title>
<polygon fill="none" stroke="white" points="1088,-1846 714,-1846 714,-1808 1088,-1808 1088,-1846"/>
<text text-anchor="middle" x="901" y="-1830.8" font-family="Times,serif" font-size="14.00" fill="white">[Alias] p_brand, p_type, p_size, COUNT(DISTINCT</text>
<text text-anchor="middle" x="901" y="-1815.8" font-family="Times,serif" font-size="14.00" fill="white">ps_suppkey) AS supplier_cnt</text>
</g>
<!-- 126718228828432 -->
<g id="node2" class="node">
<title>126718228828432</title>
<polygon fill="none" stroke="white" points="1095.5,-1757 706.5,-1757 706.5,-1704 1095.5,-1704 1095.5,-1757"/>
<text text-anchor="middle" x="901" y="-1741.8" font-family="Times,serif" font-size="14.00" fill="white">[Sort] COUNT(DISTINCT ps_suppkey) (Descending),</text>
<text text-anchor="middle" x="901" y="-1726.8" font-family="Times,serif" font-size="14.00" fill="white">p_brand (Ascending), p_type (Ascending), p_size</text>
<text text-anchor="middle" x="901" y="-1711.8" font-family="Times,serif" font-size="14.00" fill="white">(Ascending)</text>
</g>
<!-- 126718228828432&#45;&gt;126718228829008 -->
<g id="edge1" class="edge">
<title>126718228828432&#45;&gt;126718228829008</title>
<path fill="none" stroke="white" d="M901,-1757.32C901,-1769.87 901,-1784.99 901,-1797.83"/>
<polygon fill="white" stroke="white" points="897.5,-1797.99 901,-1807.99 904.5,-1797.99 897.5,-1797.99"/>
<g id="a_edge1&#45;label"><a xlink:title="Output Expressions: &#10; (1) p_brand&#10; (2) p_type&#10; (3) p_size&#10; (4) COUNT(DISTINCT ps_suppkey)&#10;&#10;Unique Column Combinations: &#10; (1) {p_brand, p_type, p_size}&#10;&#10;Functional Dependencies (trivial): &#10; (1) {p_brand, p_type, p_size} =&gt; {COUNT(DISTINCT ps_suppkey)}&#10;&#10;Functional Dependencies (non&#45;trivial): &#10; &lt;none&gt;">
<text text-anchor="middle" x="1009" y="-1778.8" font-family="Times,serif" font-size="14.00" fill="white"> 1,370.6 row(s) | 100.0% estd.</text>
</a>
</g>
</g>
<!-- 126718228827664 -->
<g id="node3" class="node">
<title>126718228827664</title>
<polygon fill="none" stroke="white" points="1078.5,-1653 723.5,-1653 723.5,-1615 1078.5,-1615 1078.5,-1653"/>
<text text-anchor="middle" x="901" y="-1637.8" font-family="Times,serif" font-size="14.00" fill="white">[Aggregate] GroupBy: [p_brand, p_type, p_size]</text>
<text text-anchor="middle" x="901" y="-1622.8" font-family="Times,serif" font-size="14.00" fill="white">Aggregates: [COUNT(DISTINCT ps_suppkey)]</text>
</g>
<!-- 126718228827664&#45;&gt;126718228828432 -->
<g id="edge2" class="edge">
<title>126718228827664&#45;&gt;126718228828432</title>
<path fill="none" stroke="white" d="M901,-1653.22C901,-1664.67 901,-1679.84 901,-1693.64"/>
<polygon fill="white" stroke="white" points="897.5,-1693.83 901,-1703.83 904.5,-1693.83 897.5,-1693.83"/>
<g id="a_edge2&#45;label"><a xlink:title="Output Expressions: &#10; (1) p_brand&#10; (2) p_type&#10; (3) p_size&#10; (4) COUNT(DISTINCT ps_suppkey)&#10;&#10;Unique Column Combinations: &#10; (1) {p_brand, p_type, p_size}&#10;&#10;Functional Dependencies (trivial): &#10; (1) {p_brand, p_type, p_size} =&gt; {COUNT(DISTINCT ps_suppkey)}&#10;&#10;Functional Dependencies (non&#45;trivial): &#10; &lt;none&gt;">
<text text-anchor="middle" x="1009" y="-1674.8" font-family="Times,serif" font-size="14.00" fill="white"> 1,370.6 row(s) | 100.0% estd.</text>
</a>
</g>
</g>
<!-- 126718228832080 -->
<g id="node4" class="node">
<title>126718228832080</title>
<polygon fill="none" stroke="white" points="1066,-1564 736,-1564 736,-1528 1066,-1528 1066,-1564"/>
<text text-anchor="middle" x="901" y="-1542.3" font-family="Times,serif" font-size="14.00" fill="white">[Join] Mode: Inner [p_partkey = ps_partkey]</text>
</g>
<!-- 126718228832080&#45;&gt;126718228827664 -->
<g id="edge3" class="edge">
<title>126718228832080&#45;&gt;126718228827664</title>
<path fill="none" stroke="white" d="M901,-1564.4C901,-1575.94 901,-1591.35 901,-1604.64"/>
<polygon fill="white" stroke="white" points="897.5,-1604.73 901,-1614.73 904.5,-1604.73 897.5,-1604.73"/>
<g id="a_edge3&#45;label"><a xlink:title="Output Expressions: &#10; (1) ps_partkey&#10; (2) ps_suppkey&#10; (3) p_partkey&#10; (4) p_brand&#10; (5) p_type&#10; (6) p_size&#10;&#10;Unique Column Combinations: &#10; &lt;none&gt;&#10;&#10;Functional Dependencies (trivial): &#10; &lt;none&gt;&#10;&#10;Functional Dependencies (non&#45;trivial): &#10; (1) {p_partkey} =&gt; {p_brand, p_type, p_size}&#10;">
<text text-anchor="middle" x="1000" y="-1585.8" font-family="Times,serif" font-size="14.00" fill="white"> 1,370.6 row(s) | 0.0% estd.</text>
</a>
</g>
</g>
<!-- 126718228831696 -->
<g id="node5" class="node">
<title>126718228831696</title>
<polygon fill="none" stroke="white" points="941,-1477 615,-1477 615,-1439 941,-1439 941,-1477"/>
<text text-anchor="middle" x="778" y="-1461.8" font-family="Times,serif" font-size="14.00" fill="white">[Join] Mode: AntiNullAsTrue [ps_suppkey =</text>
<text text-anchor="middle" x="778" y="-1446.8" font-family="Times,serif" font-size="14.00" fill="white">s_suppkey]</text>
</g>
<!-- 126718228831696&#45;&gt;126718228832080 -->
<g id="edge4" class="edge">
<title>126718228831696&#45;&gt;126718228832080</title>
<path fill="none" stroke="white" d="M778.37,-1477.13C779.53,-1487.94 782.72,-1501.23 791,-1510 795.71,-1515 801.13,-1519.28 806.99,-1522.96"/>
<polygon fill="white" stroke="white" points="807.12,-1523.03 805.41,-1526.09 815.85,-1527.92 807.12,-1523.03"/>
<g id="a_edge4&#45;label"><a xlink:title="Output Expressions: &#10; (1) ps_partkey&#10; (2) ps_suppkey&#10;&#10;Unique Column Combinations: &#10; (1) {ps_partkey, ps_suppkey}&#10;&#10;Functional Dependencies (trivial): &#10; &lt;none&gt;&#10;&#10;Functional Dependencies (non&#45;trivial): &#10; &lt;none&gt;">
<text text-anchor="middle" x="899" y="-1498.8" font-family="Times,serif" font-size="14.00" fill="white"> 1,370.6 row(s) | 100.0% estd.</text>
</a>
</g>
</g>
<!-- 126734111409008 -->
<g id="node6" class="node">
<title>126734111409008</title>
<polygon fill="none" stroke="white" points="581.5,-1388 496.5,-1388 496.5,-1352 581.5,-1352 581.5,-1388"/>
<text text-anchor="middle" x="539" y="-1366.3" font-family="Times,serif" font-size="14.00" fill="white">[Validate]</text>
</g>
<!-- 126734111409008&#45;&gt;126718228831696 -->
<g id="edge5" class="edge">
<title>126734111409008&#45;&gt;126718228831696</title>
<path fill="none" stroke="white" d="M540.43,-1388.35C542.28,-1399.34 546.48,-1412.95 556,-1421 565.28,-1428.85 583.19,-1435.01 604.98,-1439.84"/>
<polygon fill="white" stroke="white" points="605.1,-1439.87 604.39,-1443.29 614.89,-1441.9 605.1,-1439.87"/>
<g id="a_edge5&#45;label"><a xlink:title="Output Expressions: &#10; (1) ps_partkey&#10; (2) ps_suppkey&#10;&#10;Unique Column Combinations: &#10; (1) {ps_partkey, ps_suppkey}&#10;&#10;Functional Dependencies (trivial): &#10; &lt;none&gt;&#10;&#10;Functional Dependencies (non&#45;trivial): &#10; &lt;none&gt;">
<text text-anchor="middle" x="664" y="-1409.8" font-family="Times,serif" font-size="14.00" fill="white"> 1,370.6 row(s) | 100.0% estd.</text>
</a>
</g>
</g>
<!-- 126718228829968 -->
<g id="node7" class="node">
<title>126718228829968</title>
<polygon fill="none" stroke="white" points="703,-1301 375,-1301 375,-1263 703,-1263 703,-1301"/>
<text text-anchor="middle" x="539" y="-1285.8" font-family="Times,serif" font-size="14.00" fill="white">[Join] Mode: Semi [p_partkey = ps_partkey]</text>
<text text-anchor="middle" x="539" y="-1270.8" font-family="Times,serif" font-size="14.00" fill="white">(SemiJoinReductionRule)</text>
</g>
<!-- 126718228829968&#45;&gt;126734111409008 -->
<g id="edge6" class="edge">
<title>126718228829968&#45;&gt;126734111409008</title>
<path fill="none" stroke="white" d="M539,-1301.24C539,-1313.07 539,-1328.68 539,-1341.95"/>
<polygon fill="white" stroke="white" points="535.5,-1341.96 539,-1351.96 542.5,-1341.96 535.5,-1341.96"/>
<g id="a_edge6&#45;label"><a xlink:title="Output Expressions: &#10; (1) ps_partkey&#10; (2) ps_suppkey&#10;&#10;Unique Column Combinations: &#10; (1) {ps_partkey, ps_suppkey}&#10;&#10;Functional Dependencies (trivial): &#10; &lt;none&gt;&#10;&#10;Functional Dependencies (non&#45;trivial): &#10; &lt;none&gt;">
<text text-anchor="middle" x="638" y="-1322.8" font-family="Times,serif" font-size="14.00" fill="white"> 1,370.6 row(s) | 0.0% estd.</text>
</a>
</g>
</g>
<!-- 126718229320400 -->
<g id="node8" class="node">
<title>126718229320400</title>
<polygon fill="none" stroke="white" points="346,-1212 0,-1212 0,-1174 346,-1174 346,-1212"/>
<text text-anchor="middle" x="173" y="-1196.8" font-family="Times,serif" font-size="14.00" fill="white">[StoredTable] Name: &#39;partsupp&#39; pruned: 0/123</text>
<text text-anchor="middle" x="173" y="-1181.8" font-family="Times,serif" font-size="14.00" fill="white">chunk(s), 3/5 column(s)</text>
</g>
<!-- 126718229320400&#45;&gt;126718228829968 -->
<g id="edge7" class="edge">
<title>126718229320400&#45;&gt;126718228829968</title>
<path fill="none" stroke="white" stroke-width="8" d="M216.16,-1212.01C243.73,-1222.91 280.48,-1236.34 314,-1245 338.35,-1251.29 364.47,-1256.68 389.99,-1261.22"/>
<polygon fill="white" stroke="white" stroke-width="8" points="390.27,-1261.27 389.07,-1268.16 400.12,-1262.98 390.27,-1261.27"/>
<g id="a_edge7&#45;label"><a xlink:title="Output Expressions: &#10; (1) ps_partkey&#10; (2) ps_suppkey&#10;&#10;Unique Column Combinations: &#10; (1) {ps_partkey, ps_suppkey}&#10;&#10;Functional Dependencies (trivial): &#10; &lt;none&gt;&#10;&#10;Functional Dependencies (non&#45;trivial): &#10; &lt;none&gt;">
<text text-anchor="middle" x="437.5" y="-1233.8" font-family="Times,serif" font-size="14.00" fill="white"> 8,000,000.0 row(s) | 100.0% estd.</text>
</a>
</g>
</g>
<!-- 126718228827472 -->
<g id="node9" class="node">
<title>126718228827472</title>
<polygon fill="none" stroke="white" points="1097.5,-1211 918.5,-1211 918.5,-1175 1097.5,-1175 1097.5,-1211"/>
<text text-anchor="middle" x="1008" y="-1189.3" font-family="Times,serif" font-size="14.00" fill="white">[UnionNode] Mode: All</text>
</g>
<!-- 126718228827472&#45;&gt;126718228832080 -->
<g id="edge9" class="edge">
<title>126718228827472&#45;&gt;126718228832080</title>
<path fill="none" stroke="white" d="M1012.11,-1211.22C1015.92,-1228.69 1021,-1256.57 1021,-1281 1021,-1281 1021,-1281 1021,-1459 1021,-1482.51 1023.19,-1492.96 1007,-1510 1002.25,-1515 996.76,-1519.29 990.85,-1522.97"/>
<polygon fill="white" stroke="white" points="981.9,-1527.93 992.35,-1526.14 990.65,-1523.08 981.9,-1527.93"/>
<g id="a_edge9&#45;label"><a xlink:title="Output Expressions: &#10; (1) p_partkey&#10; (2) p_brand&#10; (3) p_type&#10; (4) p_size&#10;&#10;Unique Column Combinations: &#10; &lt;none&gt;&#10;&#10;Functional Dependencies (trivial): &#10; &lt;none&gt;&#10;&#10;Functional Dependencies (non&#45;trivial): &#10; (1) {p_partkey} =&gt; {p_brand, p_type, p_size}&#10;">
<text text-anchor="middle" x="1120" y="-1366.3" font-family="Times,serif" font-size="14.00" fill="white"> 4,662.8 row(s) | 0.1% estd.</text>
</a>
</g>
</g>
<!-- 126718228827472&#45;&gt;126718228829968 -->
<g id="edge8" class="edge">
<title>126718228827472&#45;&gt;126718228829968</title>
<path fill="none" stroke="white" d="M918.22,-1202.51C883.27,-1207.8 843.42,-1216.31 809,-1230 797.66,-1234.51 797.42,-1240.69 786,-1245 770.39,-1250.9 741.81,-1256.51 709.47,-1261.47"/>
<polygon fill="white" stroke="white" points="699.33,-1262.99 709.74,-1264.97 709.22,-1261.51 699.33,-1262.99"/>
<g id="a_edge8&#45;label"><a xlink:title="Output Expressions: &#10; (1) p_partkey&#10; (2) p_brand&#10; (3) p_type&#10; (4) p_size&#10;&#10;Unique Column Combinations: &#10; &lt;none&gt;&#10;&#10;Functional Dependencies (trivial): &#10; &lt;none&gt;&#10;&#10;Functional Dependencies (non&#45;trivial): &#10; (1) {p_partkey} =&gt; {p_brand, p_type, p_size}&#10;">
<text text-anchor="middle" x="908" y="-1233.8" font-family="Times,serif" font-size="14.00" fill="white"> 4,662.8 row(s) | 0.1% estd.</text>
</a>
</g>
</g>
<!-- 126718228827280 -->
<g id="node10" class="node">
<title>126718228827280</title>
<polygon fill="none" stroke="white" points="1139.5,-1122 808.5,-1122 808.5,-1086 1139.5,-1086 1139.5,-1122"/>
<text text-anchor="middle" x="974" y="-1100.3" font-family="Times,serif" font-size="14.00" fill="white">[Predicate] p_type &lt; &#39;PROMO BURNISHED&#39;</text>
</g>
<!-- 126718228827280&#45;&gt;126718228827472 -->
<g id="edge10" class="edge">
<title>126718228827280&#45;&gt;126718228827472</title>
<path fill="none" stroke="white" d="M980.72,-1122.19C985.51,-1134.46 992.06,-1151.21 997.54,-1165.23"/>
<polygon fill="white" stroke="white" points="997.66,-1165.53 994.4,-1166.81 1001.3,-1174.85 997.66,-1165.53"/>
<g id="a_edge10&#45;label"><a xlink:title="Output Expressions: &#10; (1) p_partkey&#10; (2) p_brand&#10; (3) p_type&#10; (4) p_size&#10;&#10;Unique Column Combinations: &#10; &lt;none&gt;&#10;&#10;Functional Dependencies (trivial): &#10; &lt;none&gt;&#10;&#10;Functional Dependencies (non&#45;trivial): &#10; (1) {p_partkey} =&gt; {p_brand, p_type, p_size}&#10;">
<text text-anchor="middle" x="1092" y="-1144.8" font-family="Times,serif" font-size="14.00" fill="white"> 2,748.9 row(s) | 7.2% estd.</text>
</a>
</g>
</g>
<!-- 126734111409968 -->
<g id="node11" class="node">
<title>126734111409968</title>
<polygon fill="none" stroke="white" points="1193.5,-1034 1108.5,-1034 1108.5,-998 1193.5,-998 1193.5,-1034"/>
<text text-anchor="middle" x="1151" y="-1012.3" font-family="Times,serif" font-size="14.00" fill="white">[Validate]</text>
</g>
<!-- 126734111409968&#45;&gt;126718228827280 -->
<g id="edge11" class="edge">
<title>126734111409968&#45;&gt;126718228827280</title>
<path fill="none" stroke="white" d="M1108.14,-1030.44C1091.25,-1036.3 1071.88,-1043.72 1055,-1052 1038.44,-1060.12 1021.02,-1070.78 1006.59,-1080.26"/>
<polygon fill="white" stroke="white" points="1004.41,-1077.51 998.03,-1085.97 1008.29,-1083.33 1004.41,-1077.51"/>
<g id="a_edge11&#45;label"><a xlink:title="Output Expressions: &#10; (1) p_partkey&#10; (2) p_brand&#10; (3) p_type&#10; (4) p_size&#10;&#10;Unique Column Combinations: &#10; &lt;none&gt;&#10;&#10;Functional Dependencies (trivial): &#10; &lt;none&gt;&#10;&#10;Functional Dependencies (non&#45;trivial): &#10; (1) {p_partkey} =&gt; {p_brand, p_type, p_size}&#10;">
<text text-anchor="middle" x="1167.5" y="-1055.8" font-family="Times,serif" font-size="14.00" fill="white"> 38,430.8 row(s) | 100.0% estd.</text>
</a>
</g>
</g>
<!-- 126718228826896 -->
<g id="node29" class="node">
<title>126718228826896</title>
<polygon fill="none" stroke="white" points="1500,-1122 1158,-1122 1158,-1086 1500,-1086 1500,-1122"/>
<text text-anchor="middle" x="1329" y="-1100.3" font-family="Times,serif" font-size="14.00" fill="white">[Predicate] p_type &gt;= &#39;PROMO BURNISHEE&#39;</text>
</g>
<!-- 126734111409968&#45;&gt;126718228826896 -->
<g id="edge12" class="edge">
<title>126734111409968&#45;&gt;126718228826896</title>
<path fill="none" stroke="white" d="M1193.63,-1022.63C1219.92,-1027.49 1253.55,-1036.32 1280,-1052 1291.39,-1058.75 1301.87,-1068.86 1310.2,-1078.3"/>
<polygon fill="white" stroke="white" points="1307.54,-1080.58 1316.66,-1085.99 1312.9,-1076.08 1307.54,-1080.58"/>
<g id="a_edge12&#45;label"><a xlink:title="Output Expressions: &#10; (1) p_partkey&#10; (2) p_brand&#10; (3) p_type&#10; (4) p_size&#10;&#10;Unique Column Combinations: &#10; &lt;none&gt;&#10;&#10;Functional Dependencies (trivial): &#10; &lt;none&gt;&#10;&#10;Functional Dependencies (non&#45;trivial): &#10; (1) {p_partkey} =&gt; {p_brand, p_type, p_size}&#10;">
<text text-anchor="middle" x="1410.5" y="-1055.8" font-family="Times,serif" font-size="14.00" fill="white"> 38,430.8 row(s) | 100.0% estd.</text>
</a>
</g>
</g>
<!-- 126718228829584 -->
<g id="node12" class="node">
<title>126718228829584</title>
<polygon fill="none" stroke="white" points="1284,-947 1018,-947 1018,-911 1284,-911 1284,-947"/>
<text text-anchor="middle" x="1151" y="-925.3" font-family="Times,serif" font-size="14.00" fill="white">[Predicate] p_brand != &#39;Brand#34&#39;</text>
</g>
<!-- 126718228829584&#45;&gt;126734111409968 -->
<g id="edge13" class="edge">
<title>126718228829584&#45;&gt;126734111409968</title>
<path fill="none" stroke="white" d="M1151,-947.2C1151,-958.84 1151,-974.45 1151,-987.76"/>
<polygon fill="white" stroke="white" points="1147.5,-987.82 1151,-997.82 1154.5,-987.82 1147.5,-987.82"/>
<g id="a_edge13&#45;label"><a xlink:title="Output Expressions: &#10; (1) p_partkey&#10; (2) p_brand&#10; (3) p_type&#10; (4) p_size&#10;&#10;Unique Column Combinations: &#10; &lt;none&gt;&#10;&#10;Functional Dependencies (trivial): &#10; &lt;none&gt;&#10;&#10;Functional Dependencies (non&#45;trivial): &#10; (1) {p_partkey} =&gt; {p_brand, p_type, p_size}&#10;">
<text text-anchor="middle" x="1259" y="-968.8" font-family="Times,serif" font-size="14.00" fill="white"> 38,430.8 row(s) | 12.0% estd.</text>
</a>
</g>
</g>
<!-- 126718228833616 -->
<g id="node13" class="node">
<title>126718228833616</title>
<polygon fill="none" stroke="white" points="1240.5,-860 1061.5,-860 1061.5,-824 1240.5,-824 1240.5,-860"/>
<text text-anchor="middle" x="1151" y="-838.3" font-family="Times,serif" font-size="14.00" fill="white">[UnionNode] Mode: All</text>
</g>
<!-- 126718228833616&#45;&gt;126718228829584 -->
<g id="edge14" class="edge">
<title>126718228833616&#45;&gt;126718228829584</title>
<path fill="none" stroke="white" d="M1151,-860.2C1151,-871.84 1151,-887.45 1151,-900.76"/>
<polygon fill="white" stroke="white" points="1147.5,-900.82 1151,-910.82 1154.5,-900.82 1147.5,-900.82"/>
<g id="a_edge14&#45;label"><a xlink:title="Output Expressions: &#10; (1) p_partkey&#10; (2) p_brand&#10; (3) p_type&#10; (4) p_size&#10;&#10;Unique Column Combinations: &#10; &lt;none&gt;&#10;&#10;Functional Dependencies (trivial): &#10; &lt;none&gt;&#10;&#10;Functional Dependencies (non&#45;trivial): &#10; (1) {p_partkey} =&gt; {p_brand, p_type, p_size}&#10;">
<text text-anchor="middle" x="1259" y="-881.8" font-family="Times,serif" font-size="14.00" fill="white"> 321,164.0 row(s) | 0.0% estd.</text>
</a>
</g>
</g>
<!-- 126718228833424 -->
<g id="node14" class="node">
<title>126718228833424</title>
<polygon fill="none" stroke="white" points="1085.5,-773 906.5,-773 906.5,-737 1085.5,-737 1085.5,-773"/>
<text text-anchor="middle" x="996" y="-751.3" font-family="Times,serif" font-size="14.00" fill="white">[UnionNode] Mode: All</text>
</g>
<!-- 126718228833424&#45;&gt;126718228833616 -->
<g id="edge15" class="edge">
<title>126718228833424&#45;&gt;126718228833616</title>
<path fill="none" stroke="white" d="M1027.37,-773.2C1051.5,-786.44 1085.02,-804.82 1111.07,-819.1"/>
<polygon fill="white" stroke="white" points="1111.18,-819.16 1109.49,-822.23 1119.94,-823.97 1111.18,-819.16"/>
<g id="a_edge15&#45;label"><a xlink:title="Output Expressions: &#10; (1) p_partkey&#10; (2) p_brand&#10; (3) p_type&#10; (4) p_size&#10;&#10;Unique Column Combinations: &#10; &lt;none&gt;&#10;&#10;Functional Dependencies (trivial): &#10; &lt;none&gt;&#10;&#10;Functional Dependencies (non&#45;trivial): &#10; (1) {p_partkey} =&gt; {p_brand, p_type, p_size}&#10;">
<text text-anchor="middle" x="1190" y="-794.8" font-family="Times,serif" font-size="14.00" fill="white"> 281,252.0 row(s) | 0.0% estd.</text>
</a>
</g>
</g>
<!-- 126718228833232 -->
<g id="node15" class="node">
<title>126718228833232</title>
<polygon fill="none" stroke="white" points="1085.5,-665 906.5,-665 906.5,-629 1085.5,-629 1085.5,-665"/>
<text text-anchor="middle" x="996" y="-643.3" font-family="Times,serif" font-size="14.00" fill="white">[UnionNode] Mode: All</text>
</g>
<!-- 126718228833232&#45;&gt;126718228833424 -->
<g id="edge16" class="edge">
<title>126718228833232&#45;&gt;126718228833424</title>
<path fill="none" stroke="white" d="M996,-665.03C996,-681.62 996,-707.12 996,-726.57"/>
<polygon fill="white" stroke="white" points="996,-726.66 992.5,-726.66 996,-736.66 996,-726.66"/>
<g id="a_edge16&#45;label"><a xlink:title="Output Expressions: &#10; (1) p_partkey&#10; (2) p_brand&#10; (3) p_type&#10; (4) p_size&#10;&#10;Unique Column Combinations: &#10; &lt;none&gt;&#10;&#10;Functional Dependencies (trivial): &#10; &lt;none&gt;&#10;&#10;Functional Dependencies (non&#45;trivial): &#10; (1) {p_partkey} =&gt; {p_brand, p_type, p_size}&#10;">
<text text-anchor="middle" x="1104" y="-697.3" font-family="Times,serif" font-size="14.00" fill="white"> 241,319.0 row(s) | 0.0% estd.</text>
</a>
</g>
</g>
<!-- 126718228832848 -->
<g id="node16" class="node">
<title>126718228832848</title>
<polygon fill="none" stroke="white" points="1245.5,-557 1066.5,-557 1066.5,-521 1245.5,-521 1245.5,-557"/>
<text text-anchor="middle" x="1156" y="-535.3" font-family="Times,serif" font-size="14.00" fill="white">[UnionNode] Mode: All</text>
</g>
<!-- 126718228832848&#45;&gt;126718228833232 -->
<g id="edge17" class="edge">
<title>126718228832848&#45;&gt;126718228833232</title>
<path fill="none" stroke="white" d="M1130.29,-557.03C1103.2,-574.98 1060.37,-603.35 1030.39,-623.22"/>
<polygon fill="white" stroke="white" points="1030.24,-623.31 1028.31,-620.4 1021.91,-628.84 1030.24,-623.31"/>
<g id="a_edge17&#45;label"><a xlink:title="Output Expressions: &#10; (1) p_partkey&#10; (2) p_brand&#10; (3) p_type&#10; (4) p_size&#10;&#10;Unique Column Combinations: &#10; &lt;none&gt;&#10;&#10;Functional Dependencies (trivial): &#10; &lt;none&gt;&#10;&#10;Functional Dependencies (non&#45;trivial): &#10; (1) {p_partkey} =&gt; {p_brand, p_type, p_size}&#10;">
<text text-anchor="middle" x="1207" y="-589.3" font-family="Times,serif" font-size="14.00" fill="white"> 201,077.0 row(s) | 0.0% estd.</text>
</a>
</g>
</g>
<!-- 126718228832656 -->
<g id="node17" class="node">
<title>126718228832656</title>
<polygon fill="none" stroke="white" points="1245.5,-449 1066.5,-449 1066.5,-413 1245.5,-413 1245.5,-449"/>
<text text-anchor="middle" x="1156" y="-427.3" font-family="Times,serif" font-size="14.00" fill="white">[UnionNode] Mode: All</text>
</g>
<!-- 126718228832656&#45;&gt;126718228832848 -->
<g id="edge18" class="edge">
<title>126718228832656&#45;&gt;126718228832848</title>
<path fill="none" stroke="white" d="M1156,-449.03C1156,-465.62 1156,-491.12 1156,-510.57"/>
<polygon fill="white" stroke="white" points="1156,-510.66 1152.5,-510.66 1156,-520.66 1156,-510.66"/>
<g id="a_edge18&#45;label"><a xlink:title="Output Expressions: &#10; (1) p_partkey&#10; (2) p_brand&#10; (3) p_type&#10; (4) p_size&#10;&#10;Unique Column Combinations: &#10; &lt;none&gt;&#10;&#10;Functional Dependencies (trivial): &#10; &lt;none&gt;&#10;&#10;Functional Dependencies (non&#45;trivial): &#10; (1) {p_partkey} =&gt; {p_brand, p_type, p_size}&#10;">
<text text-anchor="middle" x="1264" y="-481.3" font-family="Times,serif" font-size="14.00" fill="white"> 160,514.0 row(s) | 0.0% estd.</text>
</a>
</g>
</g>
<!-- 126718228830544 -->
<g id="node18" class="node">
<title>126718228830544</title>
<polygon fill="none" stroke="white" points="1130.5,-341 951.5,-341 951.5,-305 1130.5,-305 1130.5,-341"/>
<text text-anchor="middle" x="1041" y="-319.3" font-family="Times,serif" font-size="14.00" fill="white">[UnionNode] Mode: All</text>
</g>
<!-- 126718228830544&#45;&gt;126718228832656 -->
<g id="edge19" class="edge">
<title>126718228830544&#45;&gt;126718228832656</title>
<path fill="none" stroke="white" d="M1036.35,-341.02C1033.17,-356.66 1031.37,-379.68 1043,-395 1047.17,-400.5 1052.19,-405.15 1057.77,-409.09"/>
<polygon fill="white" stroke="white" points="1057.8,-409.11 1055.96,-412.09 1066.31,-414.37 1057.8,-409.11"/>
<g id="a_edge19&#45;label"><a xlink:title="Output Expressions: &#10; (1) p_partkey&#10; (2) p_brand&#10; (3) p_type&#10; (4) p_size&#10;&#10;Unique Column Combinations: &#10; &lt;none&gt;&#10;&#10;Functional Dependencies (trivial): &#10; &lt;none&gt;&#10;&#10;Functional Dependencies (non&#45;trivial): &#10; (1) {p_partkey} =&gt; {p_brand, p_type, p_size}&#10;">
<text text-anchor="middle" x="1151" y="-373.3" font-family="Times,serif" font-size="14.00" fill="white"> 120,368.0 row(s) | 0.0% estd.</text>
</a>
</g>
</g>
<!-- 126718228830928 -->
<g id="node19" class="node">
<title>126718228830928</title>
<polygon fill="none" stroke="white" points="891.5,-233 712.5,-233 712.5,-197 891.5,-197 891.5,-233"/>
<text text-anchor="middle" x="802" y="-211.3" font-family="Times,serif" font-size="14.00" fill="white">[UnionNode] Mode: All</text>
</g>
<!-- 126718228830928&#45;&gt;126718228830544 -->
<g id="edge20" class="edge">
<title>126718228830928&#45;&gt;126718228830544</title>
<path fill="none" stroke="white" d="M801.37,-233.29C801.78,-249.58 805.16,-273.46 820,-287 837.98,-303.41 891.35,-312.15 941.14,-316.78"/>
<polygon fill="white" stroke="white" points="941.4,-316.81 941.09,-320.29 951.36,-317.68 941.4,-316.81"/>
<g id="a_edge20&#45;label"><a xlink:title="Output Expressions: &#10; (1) p_partkey&#10; (2) p_brand&#10; (3) p_type&#10; (4) p_size&#10;&#10;Unique Column Combinations: &#10; &lt;none&gt;&#10;&#10;Functional Dependencies (trivial): &#10; &lt;none&gt;&#10;&#10;Functional Dependencies (non&#45;trivial): &#10; (1) {p_partkey} =&gt; {p_brand, p_type, p_size}&#10;">
<text text-anchor="middle" x="923.5" y="-265.3" font-family="Times,serif" font-size="14.00" fill="white"> 80,452.0 row(s) | 0.0% estd.</text>
</a>
</g>
</g>
<!-- 126718228829392 -->
<g id="node20" class="node">
<title>126718228829392</title>
<polygon fill="none" stroke="white" points="657,-125 475,-125 475,-89 657,-89 657,-125"/>
<text text-anchor="middle" x="566" y="-103.3" font-family="Times,serif" font-size="14.00" fill="white">[Predicate] p_size = 27</text>
</g>
<!-- 126718228829392&#45;&gt;126718228830928 -->
<g id="edge21" class="edge">
<title>126718228829392&#45;&gt;126718228830928</title>
<path fill="none" stroke="white" d="M558.25,-125.09C552.35,-141.01 547.19,-164.41 560,-179 580.41,-202.24 667.4,-192.5 698,-197 699.47,-197.22 700.95,-197.44 702.44,-197.66"/>
<polygon fill="white" stroke="white" points="702.51,-197.67 701.99,-201.13 712.4,-199.16 702.51,-197.67"/>
<g id="a_edge21&#45;label"><a xlink:title="Output Expressions: &#10; (1) p_partkey&#10; (2) p_brand&#10; (3) p_type&#10; (4) p_size&#10;&#10;Unique Column Combinations: &#10; (1) {p_partkey}&#10;&#10;Functional Dependencies (trivial): &#10; (1) {p_partkey} =&gt; {p_brand, p_type, p_size}&#10;&#10;Functional Dependencies (non&#45;trivial): &#10; &lt;none&gt;">
<text text-anchor="middle" x="663.5" y="-157.3" font-family="Times,serif" font-size="14.00" fill="white"> 40,033.0 row(s) | 2.0% estd.</text>
</a>
</g>
</g>
<!-- 126718229320720 -->
<g id="node21" class="node">
<title>126718229320720</title>
<polygon fill="none" stroke="white" points="1071,-38 699,-38 699,0 1071,0 1071,-38"/>
<text text-anchor="middle" x="885" y="-22.8" font-family="Times,serif" font-size="14.00" fill="white">[StoredTable] Name: &#39;part&#39; pruned: 0/31 chunk(s),</text>
<text text-anchor="middle" x="885" y="-7.8" font-family="Times,serif" font-size="14.00" fill="white">5/9 column(s)</text>
</g>
<!-- 126718229320720&#45;&gt;126718228829392 -->
<g id="edge22" class="edge">
<title>126718229320720&#45;&gt;126718228829392</title>
<path fill="none" stroke="white" stroke-width="4.58" d="M699,-26.1C606.17,-31.12 510.49,-40.1 496,-56 486.43,-66.5 493.64,-76.1 506.49,-84.03"/>
<polygon fill="white" stroke="white" stroke-width="4.58" points="504.92,-87.74 515.62,-88.98 508.74,-80.69 504.92,-87.74"/>
<g id="a_edge22&#45;label"><a xlink:title="Output Expressions: &#10; (1) p_partkey&#10; (2) p_brand&#10; (3) p_type&#10; (4) p_size&#10;&#10;Unique Column Combinations: &#10; (1) {p_partkey}&#10;&#10;Functional Dependencies (trivial): &#10; (1) {p_partkey} =&gt; {p_brand, p_type, p_size}&#10;&#10;Functional Dependencies (non&#45;trivial): &#10; &lt;none&gt;">
<text text-anchor="middle" x="619.5" y="-59.8" font-family="Times,serif" font-size="14.00" fill="white"> 2,000,000.0 row(s) | 100.0% estd.</text>
</a>
</g>
</g>
<!-- 126718228831504 -->
<g id="node22" class="node">
<title>126718228831504</title>
<polygon fill="none" stroke="white" points="865,-125 683,-125 683,-89 865,-89 865,-125"/>
<text text-anchor="middle" x="774" y="-103.3" font-family="Times,serif" font-size="14.00" fill="white">[Predicate] p_size = 42</text>
</g>
<!-- 126718229320720&#45;&gt;126718228831504 -->
<g id="edge23" class="edge">
<title>126718229320720&#45;&gt;126718228831504</title>
<path fill="none" stroke="white" stroke-width="4.58" d="M786.01,-38.09C769.73,-43.02 756.39,-48.97 751,-56 745.45,-63.24 747.24,-72.03 751.66,-80.21"/>
<polygon fill="white" stroke="white" stroke-width="4.58" points="748.43,-82.6 757.28,-88.75 755.13,-78.19 748.43,-82.6"/>
<g id="a_edge23&#45;label"><a xlink:title="Output Expressions: &#10; (1) p_partkey&#10; (2) p_brand&#10; (3) p_type&#10; (4) p_size&#10;&#10;Unique Column Combinations: &#10; (1) {p_partkey}&#10;&#10;Functional Dependencies (trivial): &#10; (1) {p_partkey} =&gt; {p_brand, p_type, p_size}&#10;&#10;Functional Dependencies (non&#45;trivial): &#10; &lt;none&gt;">
<text text-anchor="middle" x="874.5" y="-59.8" font-family="Times,serif" font-size="14.00" fill="white"> 2,000,000.0 row(s) | 100.0% estd.</text>
</a>
</g>
</g>
<!-- 126718228832464 -->
<g id="node23" class="node">
<title>126718228832464</title>
<polygon fill="none" stroke="white" points="1175,-179 993,-179 993,-143 1175,-143 1175,-179"/>
<text text-anchor="middle" x="1084" y="-157.3" font-family="Times,serif" font-size="14.00" fill="white">[Predicate] p_size = 12</text>
</g>
<!-- 126718229320720&#45;&gt;126718228832464 -->
<g id="edge24" class="edge">
<title>126718229320720&#45;&gt;126718228832464</title>
<path fill="none" stroke="white" stroke-width="4.58" d="M962.21,-38.04C974.75,-42.78 987.17,-48.68 998,-56 1028.16,-76.38 1053.39,-110.33 1068.57,-133.87"/>
<polygon fill="white" stroke="white" stroke-width="4.58" points="1065.36,-136.3 1074.06,-142.64 1072.15,-132.04 1065.36,-136.3"/>
<g id="a_edge24&#45;label"><a xlink:title="Output Expressions: &#10; (1) p_partkey&#10; (2) p_brand&#10; (3) p_type&#10; (4) p_size&#10;&#10;Unique Column Combinations: &#10; (1) {p_partkey}&#10;&#10;Functional Dependencies (trivial): &#10; (1) {p_partkey} =&gt; {p_brand, p_type, p_size}&#10;&#10;Functional Dependencies (non&#45;trivial): &#10; &lt;none&gt;">
<text text-anchor="middle" x="1139.5" y="-59.8" font-family="Times,serif" font-size="14.00" fill="white"> 2,000,000.0 row(s) | 100.0% estd.</text>
</a>
</g>
</g>
<!-- 126718228829200 -->
<g id="node24" class="node">
<title>126718228829200</title>
<polygon fill="none" stroke="white" points="1365,-287 1183,-287 1183,-251 1365,-251 1365,-287"/>
<text text-anchor="middle" x="1274" y="-265.3" font-family="Times,serif" font-size="14.00" fill="white">[Predicate] p_size = 17</text>
</g>
<!-- 126718229320720&#45;&gt;126718228829200 -->
<g id="edge25" class="edge">
<title>126718229320720&#45;&gt;126718228829200</title>
<path fill="none" stroke="white" stroke-width="4.58" d="M1071.24,-26.71C1161.14,-31.88 1252.72,-40.82 1267,-56 1291.38,-81.92 1282.94,-189.52 1277.34,-240.71"/>
<polygon fill="white" stroke="white" stroke-width="4.58" points="1273.35,-240.33 1276.2,-250.72 1281.31,-241.24 1273.35,-240.33"/>
<g id="a_edge25&#45;label"><a xlink:title="Output Expressions: &#10; (1) p_partkey&#10; (2) p_brand&#10; (3) p_type&#10; (4) p_size&#10;&#10;Unique Column Combinations: &#10; (1) {p_partkey}&#10;&#10;Functional Dependencies (trivial): &#10; (1) {p_partkey} =&gt; {p_brand, p_type, p_size}&#10;&#10;Functional Dependencies (non&#45;trivial): &#10; &lt;none&gt;">
<text text-anchor="middle" x="1406.5" y="-103.3" font-family="Times,serif" font-size="14.00" fill="white"> 2,000,000.0 row(s) | 100.0% estd.</text>
</a>
</g>
</g>
<!-- 126718228832272 -->
<g id="node25" class="node">
<title>126718228832272</title>
<polygon fill="none" stroke="white" points="1560,-395 1378,-395 1378,-359 1560,-359 1560,-395"/>
<text text-anchor="middle" x="1469" y="-373.3" font-family="Times,serif" font-size="14.00" fill="white">[Predicate] p_size = 24</text>
</g>
<!-- 126718229320720&#45;&gt;126718228832272 -->
<g id="edge26" class="edge">
<title>126718229320720&#45;&gt;126718228832272</title>
<path fill="none" stroke="white" stroke-width="4.58" d="M1071.4,-26.35C1268.43,-35.62 1551,-57.4 1551,-106 1551,-106 1551,-106 1551,-270 1551,-303.72 1524.72,-333.23 1501.92,-352.49"/>
<polygon fill="white" stroke="white" stroke-width="4.58" points="1499.3,-349.46 1494.05,-358.87 1504.34,-355.69 1499.3,-349.46"/>
<g id="a_edge26&#45;label"><a xlink:title="Output Expressions: &#10; (1) p_partkey&#10; (2) p_brand&#10; (3) p_type&#10; (4) p_size&#10;&#10;Unique Column Combinations: &#10; (1) {p_partkey}&#10;&#10;Functional Dependencies (trivial): &#10; (1) {p_partkey} =&gt; {p_brand, p_type, p_size}&#10;&#10;Functional Dependencies (non&#45;trivial): &#10; &lt;none&gt;">
<text text-anchor="middle" x="1674.5" y="-157.3" font-family="Times,serif" font-size="14.00" fill="white"> 2,000,000.0 row(s) | 100.0% estd.</text>
</a>
</g>
</g>
<!-- 126718228830160 -->
<g id="node26" class="node">
<title>126718228830160</title>
<polygon fill="none" stroke="white" points="669,-503 487,-503 487,-467 669,-467 669,-503"/>
<text text-anchor="middle" x="578" y="-481.3" font-family="Times,serif" font-size="14.00" fill="white">[Predicate] p_size = 36</text>
</g>
<!-- 126718229320720&#45;&gt;126718228830160 -->
<g id="edge27" class="edge">
<title>126718229320720&#45;&gt;126718228830160</title>
<path fill="none" stroke="white" stroke-width="4.58" d="M698.98,-23.23C614.22,-27.44 524.69,-36.56 488,-56 462.61,-69.45 447,-77.26 447,-106 447,-106 447,-106 447,-378 447,-418.15 484.65,-445.71 519.58,-462.65"/>
<polygon fill="white" stroke="white" stroke-width="4.58" points="518.09,-466.38 528.85,-466.94 521.45,-459.1 518.09,-466.38"/>
<g id="a_edge27&#45;label"><a xlink:title="Output Expressions: &#10; (1) p_partkey&#10; (2) p_brand&#10; (3) p_type&#10; (4) p_size&#10;&#10;Unique Column Combinations: &#10; (1) {p_partkey}&#10;&#10;Functional Dependencies (trivial): &#10; (1) {p_partkey} =&gt; {p_brand, p_type, p_size}&#10;&#10;Functional Dependencies (non&#45;trivial): &#10; &lt;none&gt;">
<text text-anchor="middle" x="570.5" y="-211.3" font-family="Times,serif" font-size="14.00" fill="white"> 2,000,000.0 row(s) | 100.0% estd.</text>
</a>
</g>
</g>
<!-- 126718228831312 -->
<g id="node27" class="node">
<title>126718228831312</title>
<polygon fill="none" stroke="white" points="351.5,-611 178.5,-611 178.5,-575 351.5,-575 351.5,-611"/>
<text text-anchor="middle" x="265" y="-589.3" font-family="Times,serif" font-size="14.00" fill="white">[Predicate] p_size = 1</text>
</g>
<!-- 126718229320720&#45;&gt;126718228831312 -->
<g id="edge28" class="edge">
<title>126718229320720&#45;&gt;126718228831312</title>
<path fill="none" stroke="white" stroke-width="4.58" d="M698.79,-25.07C491.42,-33.27 185,-54.15 185,-106 185,-106 185,-106 185,-486 185,-519.41 210.63,-548.96 232.88,-568.32"/>
<polygon fill="white" stroke="white" stroke-width="4.58" points="230.32,-571.4 240.56,-574.73 235.45,-565.24 230.32,-571.4"/>
<g id="a_edge28&#45;label"><a xlink:title="Output Expressions: &#10; (1) p_partkey&#10; (2) p_brand&#10; (3) p_type&#10; (4) p_size&#10;&#10;Unique Column Combinations: &#10; (1) {p_partkey}&#10;&#10;Functional Dependencies (trivial): &#10; (1) {p_partkey} =&gt; {p_brand, p_type, p_size}&#10;&#10;Functional Dependencies (non&#45;trivial): &#10; &lt;none&gt;">
<text text-anchor="middle" x="308.5" y="-265.3" font-family="Times,serif" font-size="14.00" fill="white"> 2,000,000.0 row(s) | 100.0% estd.</text>
</a>
</g>
</g>
<!-- 126718228831888 -->
<g id="node28" class="node">
<title>126718228831888</title>
<polygon fill="none" stroke="white" points="1648,-719 1466,-719 1466,-683 1648,-683 1648,-719"/>
<text text-anchor="middle" x="1557" y="-697.3" font-family="Times,serif" font-size="14.00" fill="white">[Predicate] p_size = 39</text>
</g>
<!-- 126718229320720&#45;&gt;126718228831888 -->
<g id="edge29" class="edge">
<title>126718229320720&#45;&gt;126718228831888</title>
<path fill="none" stroke="white" stroke-width="4.58" d="M1071.12,-28.1C1342.02,-41.14 1813,-69.11 1813,-106 1813,-106 1813,-106 1813,-594 1813,-664.18 1729.86,-688.79 1658.34,-696.99"/>
<polygon fill="white" stroke="white" stroke-width="4.58" points="1657.86,-693.01 1648.34,-698.04 1658.7,-700.98 1657.86,-693.01"/>
<g id="a_edge29&#45;label"><a xlink:title="Output Expressions: &#10; (1) p_partkey&#10; (2) p_brand&#10; (3) p_type&#10; (4) p_size&#10;&#10;Unique Column Combinations: &#10; (1) {p_partkey}&#10;&#10;Functional Dependencies (trivial): &#10; (1) {p_partkey} =&gt; {p_brand, p_type, p_size}&#10;&#10;Functional Dependencies (non&#45;trivial): &#10; &lt;none&gt;">
<text text-anchor="middle" x="1936.5" y="-319.3" font-family="Times,serif" font-size="14.00" fill="white"> 2,000,000.0 row(s) | 100.0% estd.</text>
</a>
</g>
</g>
<!-- 126718228831504&#45;&gt;126718228830928 -->
<g id="edge30" class="edge">
<title>126718228831504&#45;&gt;126718228830928</title>
<path fill="none" stroke="white" d="M772.04,-125.14C770.99,-139.85 770.94,-161.38 777,-179 778.09,-182.18 779.57,-185.32 781.27,-188.34"/>
<polygon fill="white" stroke="white" points="786.85,-196.95 784.35,-186.66 781.42,-188.56 786.85,-196.95"/>
<g id="a_edge30&#45;label"><a xlink:title="Output Expressions: &#10; (1) p_partkey&#10; (2) p_brand&#10; (3) p_type&#10; (4) p_size&#10;&#10;Unique Column Combinations: &#10; (1) {p_partkey}&#10;&#10;Functional Dependencies (trivial): &#10; (1) {p_partkey} =&gt; {p_brand, p_type, p_size}&#10;&#10;Functional Dependencies (non&#45;trivial): &#10; &lt;none&gt;">
<text text-anchor="middle" x="880.5" y="-157.3" font-family="Times,serif" font-size="14.00" fill="white"> 40,419.0 row(s) | 2.0% estd.</text>
</a>
</g>
</g>
<!-- 126718228832464&#45;&gt;126718228830544 -->
<g id="edge31" class="edge">
<title>126718228832464&#45;&gt;126718228830544</title>
<path fill="none" stroke="white" d="M1066.43,-179.18C1061.99,-184.48 1057.72,-190.61 1055,-197 1041.63,-228.48 1039.38,-268.23 1039.65,-294.35"/>
<polygon fill="white" stroke="white" points="1039.89,-304.64 1043.15,-294.56 1039.65,-294.64 1039.89,-304.64"/>
<g id="a_edge31&#45;label"><a xlink:title="Output Expressions: &#10; (1) p_partkey&#10; (2) p_brand&#10; (3) p_type&#10; (4) p_size&#10;&#10;Unique Column Combinations: &#10; (1) {p_partkey}&#10;&#10;Functional Dependencies (trivial): &#10; (1) {p_partkey} =&gt; {p_brand, p_type, p_size}&#10;&#10;Functional Dependencies (non&#45;trivial): &#10; &lt;none&gt;">
<text text-anchor="middle" x="1158.5" y="-211.3" font-family="Times,serif" font-size="14.00" fill="white"> 39,916.0 row(s) | 2.0% estd.</text>
</a>
</g>
</g>
<!-- 126718228829200&#45;&gt;126718228832656 -->
<g id="edge32" class="edge">
<title>126718228829200&#45;&gt;126718228832656</title>
<path fill="none" stroke="white" d="M1277.18,-287.12C1281.03,-313.41 1284.19,-363.93 1259,-395 1255.19,-399.7 1250.72,-403.77 1245.82,-407.3"/>
<polygon fill="white" stroke="white" points="1237.19,-412.73 1247.52,-410.36 1245.65,-407.4 1237.19,-412.73"/>
<g id="a_edge32&#45;label"><a xlink:title="Output Expressions: &#10; (1) p_partkey&#10; (2) p_brand&#10; (3) p_type&#10; (4) p_size&#10;&#10;Unique Column Combinations: &#10; (1) {p_partkey}&#10;&#10;Functional Dependencies (trivial): &#10; (1) {p_partkey} =&gt; {p_brand, p_type, p_size}&#10;&#10;Functional Dependencies (non&#45;trivial): &#10; &lt;none&gt;">
<text text-anchor="middle" x="1382.5" y="-319.3" font-family="Times,serif" font-size="14.00" fill="white"> 40,146.0 row(s) | 2.0% estd.</text>
</a>
</g>
</g>
<!-- 126718228832272&#45;&gt;126718228832848 -->
<g id="edge33" class="edge">
<title>126718228832272&#45;&gt;126718228832848</title>
<path fill="none" stroke="white" d="M1461.6,-395.08C1448.63,-422.76 1419.04,-476.94 1376,-503 1355.65,-515.32 1304.07,-523.88 1255.97,-529.45"/>
<polygon fill="white" stroke="white" points="1245.77,-530.59 1256.09,-532.96 1255.7,-529.48 1245.77,-530.59"/>
<g id="a_edge33&#45;label"><a xlink:title="Output Expressions: &#10; (1) p_partkey&#10; (2) p_brand&#10; (3) p_type&#10; (4) p_size&#10;&#10;Unique Column Combinations: &#10; (1) {p_partkey}&#10;&#10;Functional Dependencies (trivial): &#10; (1) {p_partkey} =&gt; {p_brand, p_type, p_size}&#10;&#10;Functional Dependencies (non&#45;trivial): &#10; &lt;none&gt;">
<text text-anchor="middle" x="1555.5" y="-427.3" font-family="Times,serif" font-size="14.00" fill="white"> 40,563.0 row(s) | 2.0% estd.</text>
</a>
</g>
</g>
<!-- 126718228830160&#45;&gt;126718228833232 -->
<g id="edge34" class="edge">
<title>126718228830160&#45;&gt;126718228833232</title>
<path fill="none" stroke="white" d="M622.73,-503.12C700.02,-532.71 858.27,-593.28 941.72,-625.22"/>
<polygon fill="white" stroke="white" points="951.27,-628.88 943.18,-622.04 941.93,-625.3 951.27,-628.88"/>
<g id="a_edge34&#45;label"><a xlink:title="Output Expressions: &#10; (1) p_partkey&#10; (2) p_brand&#10; (3) p_type&#10; (4) p_size&#10;&#10;Unique Column Combinations: &#10; (1) {p_partkey}&#10;&#10;Functional Dependencies (trivial): &#10; (1) {p_partkey} =&gt; {p_brand, p_type, p_size}&#10;&#10;Functional Dependencies (non&#45;trivial): &#10; &lt;none&gt;">
<text text-anchor="middle" x="863.5" y="-535.3" font-family="Times,serif" font-size="14.00" fill="white"> 40,242.0 row(s) | 2.0% estd.</text>
</a>
</g>
</g>
<!-- 126718228831312&#45;&gt;126718228833424 -->
<g id="edge35" class="edge">
<title>126718228831312&#45;&gt;126718228833424</title>
<path fill="none" stroke="white" d="M342.88,-611.05C480.12,-641.09 764.09,-703.24 908.12,-734.77"/>
<polygon fill="white" stroke="white" points="918.24,-736.98 909.22,-731.42 908.48,-734.84 918.24,-736.98"/>
<g id="a_edge35&#45;label"><a xlink:title="Output Expressions: &#10; (1) p_partkey&#10; (2) p_brand&#10; (3) p_type&#10; (4) p_size&#10;&#10;Unique Column Combinations: &#10; (1) {p_partkey}&#10;&#10;Functional Dependencies (trivial): &#10; (1) {p_partkey} =&gt; {p_brand, p_type, p_size}&#10;&#10;Functional Dependencies (non&#45;trivial): &#10; &lt;none&gt;">
<text text-anchor="middle" x="687.5" y="-643.3" font-family="Times,serif" font-size="14.00" fill="white"> 39,933.0 row(s) | 2.0% estd.</text>
</a>
</g>
</g>
<!-- 126718228831888&#45;&gt;126718228833616 -->
<g id="edge36" class="edge">
<title>126718228831888&#45;&gt;126718228833616</title>
<path fill="none" stroke="white" d="M1520.52,-719.04C1471.63,-741.37 1381.74,-780.67 1302,-806 1283.87,-811.76 1264.24,-817 1245.33,-821.58"/>
<polygon fill="white" stroke="white" points="1235.51,-823.91 1246.05,-825.01 1245.24,-821.6 1235.51,-823.91"/>
<g id="a_edge36&#45;label"><a xlink:title="Output Expressions: &#10; (1) p_partkey&#10; (2) p_brand&#10; (3) p_type&#10; (4) p_size&#10;&#10;Unique Column Combinations: &#10; (1) {p_partkey}&#10;&#10;Functional Dependencies (trivial): &#10; (1) {p_partkey} =&gt; {p_brand, p_type, p_size}&#10;&#10;Functional Dependencies (non&#45;trivial): &#10; &lt;none&gt;">
<text text-anchor="middle" x="1580.5" y="-751.3" font-family="Times,serif" font-size="14.00" fill="white"> 39,912.0 row(s) | 2.0% estd.</text>
</a>
</g>
</g>
<!-- 126718228826896&#45;&gt;126718228827472 -->
<g id="edge37" class="edge">
<title>126718228826896&#45;&gt;126718228827472</title>
<path fill="none" stroke="white" d="M1289.74,-1122.01C1263.35,-1132.93 1227.56,-1146.74 1195,-1156 1166.98,-1163.96 1136.09,-1170.71 1107.64,-1176.13"/>
<polygon fill="white" stroke="white" points="1097.68,-1178 1108.15,-1179.6 1107.51,-1176.16 1097.68,-1178"/>
<g id="a_edge37&#45;label"><a xlink:title="Output Expressions: &#10; (1) p_partkey&#10; (2) p_brand&#10; (3) p_type&#10; (4) p_size&#10;&#10;Unique Column Combinations: &#10; &lt;none&gt;&#10;&#10;Functional Dependencies (trivial): &#10; &lt;none&gt;&#10;&#10;Functional Dependencies (non&#45;trivial): &#10; (1) {p_partkey} =&gt; {p_brand, p_type, p_size}&#10;">
<text text-anchor="middle" x="1338" y="-1144.8" font-family="Times,serif" font-size="14.00" fill="white"> 1,913.9 row(s) | 5.0% estd.</text>
</a>
</g>
</g>
<!-- 126734111409328 -->
<g id="node30" class="node">
<title>126734111409328</title>
<polygon fill="none" stroke="white" points="865,-1388 687,-1388 687,-1352 865,-1352 865,-1388"/>
<text text-anchor="middle" x="776" y="-1366.3" font-family="Times,serif" font-size="14.00" fill="white">[Projection] s_suppkey</text>
</g>
<!-- 126734111409328&#45;&gt;126718228831696 -->
<g id="edge38" class="edge">
<title>126734111409328&#45;&gt;126718228831696</title>
<path fill="none" stroke="white" d="M776.4,-1388.4C776.67,-1399.94 777.03,-1415.35 777.34,-1428.64"/>
<polygon fill="white" stroke="white" points="777.58,-1438.73 780.84,-1428.65 777.34,-1428.73 777.58,-1438.73"/>
<g id="a_edge38&#45;label"><a xlink:title="Output Expressions: &#10; (1) s_suppkey&#10;&#10;Unique Column Combinations: &#10; (1) {s_suppkey}&#10;&#10;Functional Dependencies (trivial): &#10; &lt;none&gt;&#10;&#10;Functional Dependencies (non&#45;trivial): &#10; &lt;none&gt;">
<text text-anchor="middle" x="889.5" y="-1409.8" font-family="Times,serif" font-size="14.00" fill="white"> 10,000.0 row(s) | 100.0% estd.</text>
</a>
</g>
</g>
<!-- 126734111408848 -->
<g id="node31" class="node">
<title>126734111408848</title>
<polygon fill="none" stroke="white" points="811.5,-1300 726.5,-1300 726.5,-1264 811.5,-1264 811.5,-1300"/>
<text text-anchor="middle" x="769" y="-1278.3" font-family="Times,serif" font-size="14.00" fill="white">[Validate]</text>
</g>
<!-- 126734111408848&#45;&gt;126734111409328 -->
<g id="edge39" class="edge">
<title>126734111408848&#45;&gt;126734111409328</title>
<path fill="none" stroke="white" d="M770.42,-1300.4C771.38,-1312.25 772.68,-1328.18 773.78,-1341.71"/>
<polygon fill="white" stroke="white" points="770.31,-1342.23 774.61,-1351.92 777.29,-1341.66 770.31,-1342.23"/>
<g id="a_edge39&#45;label"><a xlink:title="Output Expressions: &#10; (1) s_suppkey&#10; (2) s_comment&#10;&#10;Unique Column Combinations: &#10; (1) {s_suppkey}&#10;&#10;Functional Dependencies (trivial): &#10; (1) {s_suppkey} =&gt; {s_comment}&#10;&#10;Functional Dependencies (non&#45;trivial): &#10; &lt;none&gt;">
<text text-anchor="middle" x="885.5" y="-1322.8" font-family="Times,serif" font-size="14.00" fill="white"> 10,000.0 row(s) | 100.0% estd.</text>
</a>
</g>
</g>
<!-- 126718228825360 -->
<g id="node32" class="node">
<title>126718228825360</title>
<polygon fill="none" stroke="white" points="787.5,-1211 364.5,-1211 364.5,-1175 787.5,-1175 787.5,-1211"/>
<text text-anchor="middle" x="576" y="-1189.3" font-family="Times,serif" font-size="14.00" fill="white">[Predicate] s_comment LIKE &#39;%Customer%Complaints%&#39;</text>
</g>
<!-- 126718228825360&#45;&gt;126734111408848 -->
<g id="edge40" class="edge">
<title>126718228825360&#45;&gt;126734111408848</title>
<path fill="none" stroke="white" d="M568,-1211.12C564.18,-1222.08 561.98,-1235.9 570,-1245 591.03,-1268.86 680.93,-1256.18 712,-1263 713.46,-1263.32 714.93,-1263.66 716.41,-1264.02"/>
<polygon fill="white" stroke="white" points="715.71,-1267.45 726.27,-1266.6 717.49,-1260.68 715.71,-1267.45"/>
<g id="a_edge40&#45;label"><a xlink:title="Output Expressions: &#10; (1) s_suppkey&#10; (2) s_comment&#10;&#10;Unique Column Combinations: &#10; (1) {s_suppkey}&#10;&#10;Functional Dependencies (trivial): &#10; (1) {s_suppkey} =&gt; {s_comment}&#10;&#10;Functional Dependencies (non&#45;trivial): &#10; &lt;none&gt;">
<text text-anchor="middle" x="678" y="-1233.8" font-family="Times,serif" font-size="14.00" fill="white"> 10,000.0 row(s) | 10.0% estd.</text>
</a>
</g>
</g>
<!-- 126718229321680 -->
<g id="node33" class="node">
<title>126718229321680</title>
<polygon fill="none" stroke="white" points="737,-1123 415,-1123 415,-1085 737,-1085 737,-1123"/>
<text text-anchor="middle" x="576" y="-1107.8" font-family="Times,serif" font-size="14.00" fill="white">[StoredTable] Name: &#39;supplier&#39; pruned: 0/2</text>
<text text-anchor="middle" x="576" y="-1092.8" font-family="Times,serif" font-size="14.00" fill="white">chunk(s), 5/7 column(s)</text>
</g>
<!-- 126718229321680&#45;&gt;126718228825360 -->
<g id="edge41" class="edge">
<title>126718229321680&#45;&gt;126718228825360</title>
<path fill="none" stroke="white" d="M576,-1123.03C576,-1135.04 576,-1151.07 576,-1164.64"/>
<polygon fill="white" stroke="white" points="572.5,-1164.88 576,-1174.88 579.5,-1164.88 572.5,-1164.88"/>
<g id="a_edge41&#45;label"><a xlink:title="Output Expressions: &#10; (1) s_suppkey&#10; (2) s_comment&#10;&#10;Unique Column Combinations: &#10; (1) {s_suppkey}&#10;&#10;Functional Dependencies (trivial): &#10; (1) {s_suppkey} =&gt; {s_comment}&#10;&#10;Functional Dependencies (non&#45;trivial): &#10; &lt;none&gt;">
<text text-anchor="middle" x="693" y="-1144.8" font-family="Times,serif" font-size="14.00" fill="white"> 100,000.0 row(s) | 100.0% estd.</text>
</a>
</g>
</g>
</g>
</svg>
