<?xml version="1.0" encoding="UTF-8" standalone="no"?>
<!DOCTYPE svg PUBLIC "-//W3C//DTD SVG 1.1//EN"
 "http://www.w3.org/Graphics/SVG/1.1/DTD/svg11.dtd">
<!-- Generated by graphviz version 2.43.0 (0)
 -->
<!-- Title: G Pages: 1 -->
<svg width="1106pt" height="2303pt"
 viewBox="0.00 0.00 1106.00 2303.00" xmlns="http://www.w3.org/2000/svg" xmlns:xlink="http://www.w3.org/1999/xlink">
<g id="graph0" class="graph" transform="scale(1 1) rotate(0) translate(4 2299)">
<title>G</title>
<polygon fill="black" stroke="transparent" points="-4,4 -4,-2299 1102,-2299 1102,4 -4,4"/>
<text text-anchor="middle" x="319.5" y="-2279.8" font-family="Times,serif" font-size="14.00" fill="white">For tooltips with advanced information, hover your mouse over vertices or edge labels.</text>
<!-- 126690072565264 -->
<g id="node1" class="node">
<title>126690072565264</title>
<g id="a_node1"><a xlink:title="Output: 100 rows in 1 chunk, 20 µs 29 ns.&#10;Operator step runtimes:&#10; ForwardUnmodifiedColumns 5 µs 561 ns&#10; EvaluateNewColumns 1 µs 791 ns&#10; BuildOutput 9 µs 86 ns.">
<polygon fill="none" stroke="white" points="492.5,-2240 393.5,-2240 393.5,-2186 492.5,-2186 492.5,-2240"/>
<text text-anchor="middle" x="443" y="-2224.8" font-family="Times,serif" font-size="14.00" fill="white">Projection</text>
<text text-anchor="middle" x="443" y="-2193.8" font-family="Times,serif" font-size="14.00" fill="white">20 µs 29 ns</text>
</a>
</g>
</g>
<!-- 126734611657488 -->
<g id="node2" class="node">
<title>126734611657488</title>
<g id="a_node2"><a xlink:title="Output: 100 rows in 1 chunk, 31 µs 250 ns.">
<polygon fill="none" stroke="white" points="497,-2135 389,-2135 389,-2081 497,-2081 497,-2135"/>
<text text-anchor="middle" x="443" y="-2119.8" font-family="Times,serif" font-size="14.00" fill="white">Limit</text>
<text text-anchor="middle" x="443" y="-2088.8" font-family="Times,serif" font-size="14.00" fill="white">31 µs 250 ns</text>
</a>
</g>
</g>
<!-- 126734611657488&#45;&gt;126690072565264 -->
<g id="edge1" class="edge">
<title>126734611657488&#45;&gt;126690072565264</title>
<path fill="none" stroke="white" d="M443,-2135.26C443,-2147.49 443,-2162.24 443,-2175.52"/>
<polygon fill="white" stroke="white" points="439.5,-2175.79 443,-2185.79 446.5,-2175.79 439.5,-2175.79"/>
<text text-anchor="middle" x="521" y="-2156.8" font-family="Times,serif" font-size="14.00" fill="white">100 row(s)/1 chunk(s)</text>
</g>
<!-- 126690072565584 -->
<g id="node3" class="node">
<title>126690072565584</title>
<g id="a_node3"><a xlink:title="Output: 4759 rows in 1 chunk, 7 ms 557 µs.&#10;Operator step runtimes:&#10; MaterializeSortColumns 1 ms 743 µs&#10; Sort 5 ms 137 µs&#10; TemporaryResultWriting 45 µs 517 ns&#10; WriteOutput 544 µs 783 ns.">
<polygon fill="none" stroke="white" stroke-width="8" points="495,-2030 391,-2030 391,-1976 495,-1976 495,-2030"/>
<text text-anchor="middle" x="443" y="-2014.8" font-family="Times,serif" font-size="14.00" fill="white">Sort</text>
<text text-anchor="middle" x="443" y="-1983.8" font-family="Times,serif" font-size="14.00" fill="white">7 ms 557 µs</text>
</a>
</g>
</g>
<!-- 126690072565584&#45;&gt;126734611657488 -->
<g id="edge2" class="edge">
<title>126690072565584&#45;&gt;126734611657488</title>
<path fill="none" stroke="white" d="M443,-2030.26C443,-2042.49 443,-2057.24 443,-2070.52"/>
<polygon fill="white" stroke="white" points="439.5,-2070.79 443,-2080.79 446.5,-2070.79 439.5,-2070.79"/>
<text text-anchor="middle" x="527.5" y="-2051.8" font-family="Times,serif" font-size="14.00" fill="white">4,759 row(s)/1 chunk(s)</text>
</g>
<!-- 126690072564944 -->
<g id="node4" class="node">
<title>126690072564944</title>
<g id="a_node4"><a xlink:title="Output: 4759 rows in 6 chunks, 1 ms 244 µs.&#10;Operator step runtimes:&#10; BuildSideMaterializing 77 µs 156 ns&#10; ProbeSideMaterializing 166 µs 758 ns&#10; Clustering 0 ns&#10; Building 202 µs 193 ns&#10; Probing 665 µs 439 ns&#10; OutputWriting 118 µs 89 ns.&#10;Radix bits: 0.&#10;Build side is right.">
<polygon fill="none" stroke="white" stroke-width="3.55" points="582.5,-1925 303.5,-1925 303.5,-1841 582.5,-1841 582.5,-1925"/>
<text text-anchor="middle" x="443" y="-1909.8" font-family="Times,serif" font-size="14.00" fill="white">JoinHash (Semi)</text>
<text text-anchor="middle" x="443" y="-1894.8" font-family="Times,serif" font-size="14.00" fill="white">ps_supplycost = MIN(ps_supplycost)</text>
<text text-anchor="middle" x="443" y="-1879.8" font-family="Times,serif" font-size="14.00" fill="white">AND p_partkey = ps_partkey</text>
<text text-anchor="middle" x="443" y="-1848.8" font-family="Times,serif" font-size="14.00" fill="white">1 ms 244 µs</text>
</a>
</g>
</g>
<!-- 126690072564944&#45;&gt;126690072565584 -->
<g id="edge3" class="edge">
<title>126690072564944&#45;&gt;126690072565584</title>
<path fill="none" stroke="white" d="M443,-1925.27C443,-1938.36 443,-1952.72 443,-1965.45"/>
<polygon fill="white" stroke="white" points="439.5,-1965.69 443,-1975.69 446.5,-1965.69 439.5,-1965.69"/>
<text text-anchor="middle" x="527.5" y="-1946.8" font-family="Times,serif" font-size="14.00" fill="white">4,759 row(s)/6 chunk(s)</text>
</g>
<!-- 126690072563984 -->
<g id="node5" class="node">
<title>126690072563984</title>
<g id="a_node5"><a xlink:title="Output: 6415 rows in 11 chunks, 1 ms 347 µs.&#10;Operator step runtimes:&#10; BuildSideMaterializing 279 µs 209 ns&#10; ProbeSideMaterializing 447 µs 447 ns&#10; Clustering 0 ns&#10; Building 333 µs 450 ns&#10; Probing 120 µs 711 ns&#10; OutputWriting 148 µs 816 ns.&#10;Radix bits: 0.&#10;Build side is left.">
<polygon fill="none" stroke="white" stroke-width="3.75" points="405,-1790 219,-1790 219,-1721 405,-1721 405,-1790"/>
<text text-anchor="middle" x="312" y="-1774.8" font-family="Times,serif" font-size="14.00" fill="white">JoinHash (Inner)</text>
<text text-anchor="middle" x="312" y="-1759.8" font-family="Times,serif" font-size="14.00" fill="white">ps_partkey = p_partkey</text>
<text text-anchor="middle" x="312" y="-1728.8" font-family="Times,serif" font-size="14.00" fill="white">1 ms 347 µs</text>
</a>
</g>
</g>
<!-- 126690072563984&#45;&gt;126690072564944 -->
<g id="edge4" class="edge">
<title>126690072563984&#45;&gt;126690072564944</title>
<path fill="none" stroke="white" d="M336.92,-1790.3C345.61,-1801.21 355.76,-1813.05 366,-1823 369.92,-1826.82 374.09,-1830.61 378.38,-1834.34"/>
<polygon fill="white" stroke="white" points="378.56,-1834.49 376.3,-1837.16 386.2,-1840.94 378.56,-1834.49"/>
<text text-anchor="middle" x="455" y="-1811.8" font-family="Times,serif" font-size="14.00" fill="white">6,415 row(s)/11 chunk(s)</text>
</g>
<!-- 126690072563664 -->
<g id="node6" class="node">
<title>126690072563664</title>
<g id="a_node6"><a xlink:title="Output: 6415 rows in 2 chunks, 804 µs 488 ns.&#10;Operator step runtimes:&#10; BuildSideMaterializing 184 µs 155 ns&#10; ProbeSideMaterializing 117 µs 591 ns&#10; Clustering 0 ns&#10; Building 304 µs 668 ns&#10; Probing 83 µs 196 ns&#10; OutputWriting 107 µs 541 ns.&#10;Radix bits: 0.&#10;Build side is left.">
<polygon fill="none" stroke="white" stroke-width="2.48" points="409,-1601 215,-1601 215,-1532 409,-1532 409,-1601"/>
<text text-anchor="middle" x="312" y="-1585.8" font-family="Times,serif" font-size="14.00" fill="white">JoinHash (Inner)</text>
<text text-anchor="middle" x="312" y="-1570.8" font-family="Times,serif" font-size="14.00" fill="white">ps_suppkey = s_suppkey</text>
<text text-anchor="middle" x="312" y="-1539.8" font-family="Times,serif" font-size="14.00" fill="white">804 µs 488 ns</text>
</a>
</g>
</g>
<!-- 126690072563664&#45;&gt;126690072563984 -->
<g id="edge5" class="edge">
<title>126690072563664&#45;&gt;126690072563984</title>
<path fill="none" stroke="white" d="M312,-1601.36C312,-1631.95 312,-1677.13 312,-1710.5"/>
<polygon fill="white" stroke="white" points="312,-1710.89 308.5,-1710.89 312,-1720.89 312,-1710.89"/>
<text text-anchor="middle" x="396.5" y="-1657.3" font-family="Times,serif" font-size="14.00" fill="white">6,415 row(s)/2 chunk(s)</text>
</g>
<!-- 126734611654928 -->
<g id="node7" class="node">
<title>126734611654928</title>
<g id="a_node7"><a xlink:title="Output: 6415 rows in 12 chunks, 70 µs 344 ns.">
<polygon fill="none" stroke="white" points="520,-1481 412,-1481 412,-1427 520,-1427 520,-1481"/>
<text text-anchor="middle" x="466" y="-1465.8" font-family="Times,serif" font-size="14.00" fill="white">Validate</text>
<text text-anchor="middle" x="466" y="-1434.8" font-family="Times,serif" font-size="14.00" fill="white">70 µs 344 ns</text>
</a>
</g>
</g>
<!-- 126734611654928&#45;&gt;126690072563664 -->
<g id="edge6" class="edge">
<title>126734611654928&#45;&gt;126690072563664</title>
<path fill="none" stroke="white" d="M429.5,-1481.19C410.82,-1494.6 387.68,-1511.2 366.89,-1526.12"/>
<polygon fill="white" stroke="white" points="366.88,-1526.13 364.83,-1523.28 358.75,-1531.95 366.88,-1526.13"/>
<text text-anchor="middle" x="491" y="-1502.8" font-family="Times,serif" font-size="14.00" fill="white">6,415 row(s)/12 chunk(s)</text>
</g>
<!-- 126690072563344 -->
<g id="node8" class="node">
<title>126690072563344</title>
<g id="a_node8"><a xlink:title="Output: 6415 rows in 12 chunks, 1 ms 281 µs.&#10;Operator step runtimes:&#10; BuildSideMaterializing 80 µs 157 ns&#10; ProbeSideMaterializing 823 µs 779 ns&#10; Clustering 0 ns&#10; Building 148 µs 652 ns&#10; Probing 71 µs 442 ns&#10; OutputWriting 126 µs 402 ns.&#10;Radix bits: 0.&#10;Build side is right.">
<polygon fill="none" stroke="white" stroke-width="3.62" points="580,-1376 372,-1376 372,-1307 580,-1307 580,-1376"/>
<text text-anchor="middle" x="476" y="-1360.8" font-family="Times,serif" font-size="14.00" fill="white">JoinHash (Semi Reduction)</text>
<text text-anchor="middle" x="476" y="-1345.8" font-family="Times,serif" font-size="14.00" fill="white">ps_suppkey = s_suppkey</text>
<text text-anchor="middle" x="476" y="-1314.8" font-family="Times,serif" font-size="14.00" fill="white">1 ms 281 µs</text>
</a>
</g>
</g>
<!-- 126690072563344&#45;&gt;126734611654928 -->
<g id="edge7" class="edge">
<title>126690072563344&#45;&gt;126734611654928</title>
<path fill="none" stroke="white" d="M472.95,-1376.25C471.79,-1389.07 470.46,-1403.73 469.28,-1416.77"/>
<polygon fill="white" stroke="white" points="465.79,-1416.54 468.37,-1426.81 472.76,-1417.17 465.79,-1416.54"/>
<text text-anchor="middle" x="560" y="-1397.8" font-family="Times,serif" font-size="14.00" fill="white">6,415 row(s)/12 chunk(s)</text>
</g>
<!-- 126690072560144 -->
<g id="node9" class="node">
<title>126690072560144</title>
<g id="a_node9"><a xlink:title="Output: 31996 rows in 52 chunks, 3 ms 803 µs.&#10;Operator step runtimes:&#10; BuildSideMaterializing 711 µs 494 ns&#10; ProbeSideMaterializing 1 ms 806 µs&#10; Clustering 0 ns&#10; Building 122 µs 852 ns&#10; Probing 446 µs 127 ns&#10; OutputWriting 378 µs 323 ns.&#10;Radix bits: 0.&#10;Build side is right.">
<polygon fill="none" stroke="white" stroke-width="6.31" points="639,-1256 431,-1256 431,-1187 639,-1187 639,-1256"/>
<text text-anchor="middle" x="535" y="-1240.8" font-family="Times,serif" font-size="14.00" fill="white">JoinHash (Semi Reduction)</text>
<text text-anchor="middle" x="535" y="-1225.8" font-family="Times,serif" font-size="14.00" fill="white">ps_partkey = p_partkey</text>
<text text-anchor="middle" x="535" y="-1194.8" font-family="Times,serif" font-size="14.00" fill="white">3 ms 803 µs</text>
</a>
</g>
</g>
<!-- 126690072560144&#45;&gt;126690072563344 -->
<g id="edge8" class="edge">
<title>126690072560144&#45;&gt;126690072563344</title>
<path fill="none" stroke="white" d="M518.09,-1256.31C511.67,-1269.15 504.28,-1283.95 497.49,-1297.52"/>
<polygon fill="white" stroke="white" points="497.38,-1297.74 494.25,-1296.17 492.91,-1306.68 497.38,-1297.74"/>
<text text-anchor="middle" x="602.5" y="-1277.8" font-family="Times,serif" font-size="14.00" fill="white">31,996 row(s)/52 chunk(s)</text>
</g>
<!-- 126690072564624 -->
<g id="node27" class="node">
<title>126690072564624</title>
<g id="a_node27"><a xlink:title="Output: 6415 rows in 12 chunks, 1 ms 216 µs.&#10;Operator step runtimes:&#10; BuildSideMaterializing 99 µs 566 ns&#10; ProbeSideMaterializing 761 µs 273 ns&#10; Clustering 0 ns&#10; Building 150 µs 469 ns&#10; Probing 74 µs 814 ns&#10; OutputWriting 108 µs 594 ns.&#10;Radix bits: 0.&#10;Build side is right.">
<polygon fill="none" stroke="white" stroke-width="3.5" points="816,-1376 622,-1376 622,-1307 816,-1307 816,-1376"/>
<text text-anchor="middle" x="719" y="-1360.8" font-family="Times,serif" font-size="14.00" fill="white">JoinHash (Semi)</text>
<text text-anchor="middle" x="719" y="-1345.8" font-family="Times,serif" font-size="14.00" fill="white">ps_suppkey = s_suppkey</text>
<text text-anchor="middle" x="719" y="-1314.8" font-family="Times,serif" font-size="14.00" fill="white">1 ms 216 µs</text>
</a>
</g>
</g>
<!-- 126690072560144&#45;&gt;126690072564624 -->
<g id="edge9" class="edge">
<title>126690072560144&#45;&gt;126690072564624</title>
<path fill="none" stroke="white" d="M639.4,-1239.84C660.56,-1247.43 681.15,-1258.34 697,-1274 703.41,-1280.34 707.95,-1288.58 711.17,-1297.09"/>
<polygon fill="white" stroke="white" points="711.21,-1297.21 707.88,-1298.28 714.27,-1306.72 711.21,-1297.21"/>
<text text-anchor="middle" x="799.5" y="-1277.8" font-family="Times,serif" font-size="14.00" fill="white">31,996 row(s)/52 chunk(s)</text>
</g>
<!-- 126718234274320 -->
<g id="node10" class="node">
<title>126718234274320</title>
<g id="a_node10"><a xlink:title="Output: 8000000 rows in 123 chunks, 371 µs 119 ns.">
<polygon fill="none" stroke="white" points="600,-1097 478,-1097 478,-983 600,-983 600,-1097"/>
<text text-anchor="middle" x="539" y="-1081.8" font-family="Times,serif" font-size="14.00" fill="white">GetTable</text>
<text text-anchor="middle" x="539" y="-1066.8" font-family="Times,serif" font-size="14.00" fill="white">(partsupp)</text>
<text text-anchor="middle" x="539" y="-1051.8" font-family="Times,serif" font-size="14.00" fill="white">pruned:</text>
<text text-anchor="middle" x="539" y="-1036.8" font-family="Times,serif" font-size="14.00" fill="white">0/123 chunk(s)</text>
<text text-anchor="middle" x="539" y="-1021.8" font-family="Times,serif" font-size="14.00" fill="white">2/5 column(s)</text>
<text text-anchor="middle" x="539" y="-990.8" font-family="Times,serif" font-size="14.00" fill="white">371 µs 119 ns</text>
</a>
</g>
</g>
<!-- 126718234274320&#45;&gt;126690072560144 -->
<g id="edge10" class="edge">
<title>126718234274320&#45;&gt;126690072560144</title>
<path fill="none" stroke="white" stroke-width="8" d="M537.75,-1097.3C537.17,-1122.92 536.51,-1152.77 535.98,-1176.68"/>
<polygon fill="white" stroke="white" stroke-width="8" points="535.97,-1176.87 528.97,-1176.71 535.75,-1186.87 535.97,-1176.87"/>
<text text-anchor="middle" x="646.5" y="-1138.3" font-family="Times,serif" font-size="14.00" fill="white">8,000,000 row(s)/123 chunk(s)</text>
</g>
<!-- 126734611654672 -->
<g id="node11" class="node">
<title>126734611654672</title>
<g id="a_node11"><a xlink:title="Output: 7999 rows in 31 chunks, 62 µs 412 ns.">
<polygon fill="none" stroke="white" points="143,-1067 35,-1067 35,-1013 143,-1013 143,-1067"/>
<text text-anchor="middle" x="89" y="-1051.8" font-family="Times,serif" font-size="14.00" fill="white">Validate</text>
<text text-anchor="middle" x="89" y="-1020.8" font-family="Times,serif" font-size="14.00" fill="white">62 µs 412 ns</text>
</a>
</g>
</g>
<!-- 126734611654672&#45;&gt;126690072563984 -->
<g id="edge12" class="edge">
<title>126734611654672&#45;&gt;126690072563984</title>
<path fill="none" stroke="white" d="M85.45,-1067.1C81.01,-1101.99 74,-1165.77 74,-1220.5 74,-1220.5 74,-1220.5 74,-1567.5 74,-1641 145.05,-1690.01 209.51,-1719.34"/>
<polygon fill="white" stroke="white" points="218.96,-1723.53 211.23,-1716.28 209.82,-1719.48 218.96,-1723.53"/>
<text text-anchor="middle" x="163" y="-1397.8" font-family="Times,serif" font-size="14.00" fill="white">7,999 row(s)/31 chunk(s)</text>
</g>
<!-- 126734611654672&#45;&gt;126690072560144 -->
<g id="edge11" class="edge">
<title>126734611654672&#45;&gt;126690072560144</title>
<path fill="none" stroke="white" d="M92.8,-1067.17C98.68,-1097.26 113.1,-1145.53 147,-1169 171.9,-1186.24 389.17,-1181.77 419,-1187 419.61,-1187.11 420.23,-1187.22 420.84,-1187.33"/>
<polygon fill="white" stroke="white" points="430.91,-1189.3 421.77,-1183.94 421.09,-1187.38 430.91,-1189.3"/>
<text text-anchor="middle" x="236" y="-1138.3" font-family="Times,serif" font-size="14.00" fill="white">7,999 row(s)/31 chunk(s)</text>
</g>
<!-- 126690072559824 -->
<g id="node12" class="node">
<title>126690072559824</title>
<g id="a_node12"><a xlink:title="Output: 7999 rows in 31 chunks, 131 µs 720 ns.&#10;Chunks: 0 skipped with no results, &#10;0 skipped with all matching, 0 scanned using binary search.">
<polygon fill="none" stroke="white" points="178,-932 0,-932 0,-848 178,-848 178,-932"/>
<text text-anchor="middle" x="89" y="-916.8" font-family="Times,serif" font-size="14.00" fill="white">TableScan</text>
<text text-anchor="middle" x="89" y="-901.8" font-family="Times,serif" font-size="14.00" fill="white">Impl: ColumnLike</text>
<text text-anchor="middle" x="89" y="-886.8" font-family="Times,serif" font-size="14.00" fill="white">p_type LIKE &#39;%STEEL&#39;</text>
<text text-anchor="middle" x="89" y="-855.8" font-family="Times,serif" font-size="14.00" fill="white">131 µs 720 ns</text>
</a>
</g>
</g>
<!-- 126690072559824&#45;&gt;126734611654672 -->
<g id="edge13" class="edge">
<title>126690072559824&#45;&gt;126734611654672</title>
<path fill="none" stroke="white" d="M89,-932.23C89,-954.32 89,-981.31 89,-1002.62"/>
<polygon fill="white" stroke="white" points="85.5,-1002.88 89,-1012.88 92.5,-1002.88 85.5,-1002.88"/>
<text text-anchor="middle" x="178" y="-953.8" font-family="Times,serif" font-size="14.00" fill="white">7,999 row(s)/31 chunk(s)</text>
</g>
<!-- 126690072561424 -->
<g id="node13" class="node">
<title>126690072561424</title>
<g id="a_node13"><a xlink:title="Output: 39840 rows in 31 chunks, 336 µs 223 ns.&#10;Chunks: 0 skipped with no results, &#10;0 skipped with all matching, 0 scanned using binary search.">
<polygon fill="none" stroke="white" points="173.5,-782 4.5,-782 4.5,-698 173.5,-698 173.5,-782"/>
<text text-anchor="middle" x="89" y="-766.8" font-family="Times,serif" font-size="14.00" fill="white">TableScan</text>
<text text-anchor="middle" x="89" y="-751.8" font-family="Times,serif" font-size="14.00" fill="white">Impl: ColumnVsValue</text>
<text text-anchor="middle" x="89" y="-736.8" font-family="Times,serif" font-size="14.00" fill="white">p_size = 30</text>
<text text-anchor="middle" x="89" y="-705.8" font-family="Times,serif" font-size="14.00" fill="white">336 µs 223 ns</text>
</a>
</g>
</g>
<!-- 126690072561424&#45;&gt;126690072559824 -->
<g id="edge14" class="edge">
<title>126690072561424&#45;&gt;126690072559824</title>
<path fill="none" stroke="white" d="M89,-782.23C89,-799.47 89,-819.68 89,-837.85"/>
<polygon fill="white" stroke="white" points="85.5,-837.99 89,-847.99 92.5,-837.99 85.5,-837.99"/>
<text text-anchor="middle" x="182.5" y="-818.8" font-family="Times,serif" font-size="14.00" fill="white">39,840 row(s)/31 chunk(s)</text>
</g>
<!-- 126718234272976 -->
<g id="node14" class="node">
<title>126718234272976</title>
<g id="a_node14"><a xlink:title="Output: 2000000 rows in 31 chunks, 80 µs 949 ns.">
<polygon fill="none" stroke="white" points="145.5,-632 32.5,-632 32.5,-518 145.5,-518 145.5,-632"/>
<text text-anchor="middle" x="89" y="-616.8" font-family="Times,serif" font-size="14.00" fill="white">GetTable</text>
<text text-anchor="middle" x="89" y="-601.8" font-family="Times,serif" font-size="14.00" fill="white">(part)</text>
<text text-anchor="middle" x="89" y="-586.8" font-family="Times,serif" font-size="14.00" fill="white">pruned:</text>
<text text-anchor="middle" x="89" y="-571.8" font-family="Times,serif" font-size="14.00" fill="white">0/31 chunk(s)</text>
<text text-anchor="middle" x="89" y="-556.8" font-family="Times,serif" font-size="14.00" fill="white">5/9 column(s)</text>
<text text-anchor="middle" x="89" y="-525.8" font-family="Times,serif" font-size="14.00" fill="white">80 µs 949 ns</text>
</a>
</g>
</g>
<!-- 126718234272976&#45;&gt;126690072561424 -->
<g id="edge15" class="edge">
<title>126718234272976&#45;&gt;126690072561424</title>
<path fill="none" stroke="white" stroke-width="4.58" d="M89,-632.1C89,-650.19 89,-670.13 89,-687.85"/>
<polygon fill="white" stroke="white" stroke-width="4.58" points="84.99,-687.99 89,-697.99 93.01,-687.99 84.99,-687.99"/>
<text text-anchor="middle" x="194" y="-653.8" font-family="Times,serif" font-size="14.00" fill="white">2,000,000 row(s)/31 chunk(s)</text>
</g>
<!-- 126690072563024 -->
<g id="node15" class="node">
<title>126690072563024</title>
<g id="a_node15"><a xlink:title="Output: 20051 rows in 2 chunks, 440 µs 255 ns.&#10;Operator step runtimes:&#10; BuildSideMaterializing 9 µs 375 ns&#10; ProbeSideMaterializing 75 µs 72 ns&#10; Clustering 0 ns&#10; Building 3 µs 371 ns&#10; Probing 191 µs 447 ns&#10; OutputWriting 155 µs 375 ns.&#10;Radix bits: 0.&#10;Build side is right.">
<polygon fill="none" stroke="white" points="409.5,-1256 202.5,-1256 202.5,-1187 409.5,-1187 409.5,-1256"/>
<text text-anchor="middle" x="306" y="-1240.8" font-family="Times,serif" font-size="14.00" fill="white">JoinHash (Inner)</text>
<text text-anchor="middle" x="306" y="-1225.8" font-family="Times,serif" font-size="14.00" fill="white">s_nationkey = n_nationkey</text>
<text text-anchor="middle" x="306" y="-1194.8" font-family="Times,serif" font-size="14.00" fill="white">440 µs 255 ns</text>
</a>
</g>
</g>
<!-- 126690072563024&#45;&gt;126690072563664 -->
<g id="edge17" class="edge">
<title>126690072563024&#45;&gt;126690072563664</title>
<path fill="none" stroke="white" d="M299.25,-1256.16C292.58,-1293.48 283.92,-1355.48 288,-1409 290.92,-1447.29 297.8,-1490.4 303.45,-1521.66"/>
<polygon fill="white" stroke="white" points="305.31,-1531.78 306.94,-1521.32 303.5,-1521.95 305.31,-1531.78"/>
<text text-anchor="middle" x="377" y="-1397.8" font-family="Times,serif" font-size="14.00" fill="white">20,051 row(s)/2 chunk(s)</text>
</g>
<!-- 126690072563024&#45;&gt;126690072563344 -->
<g id="edge16" class="edge">
<title>126690072563024&#45;&gt;126690072563344</title>
<path fill="none" stroke="white" d="M305.88,-1256.32C307.45,-1267.87 311.13,-1280.09 319,-1289 330.67,-1302.21 345.78,-1312.05 362.01,-1319.37"/>
<polygon fill="white" stroke="white" points="371.67,-1323.39 363.79,-1316.32 362.44,-1319.55 371.67,-1323.39"/>
<text text-anchor="middle" x="408" y="-1277.8" font-family="Times,serif" font-size="14.00" fill="white">20,051 row(s)/2 chunk(s)</text>
</g>
<!-- 126734611657232 -->
<g id="node16" class="node">
<title>126734611657232</title>
<g id="a_node16"><a xlink:title="Output: 20051 rows in 2 chunks, 10 µs 66 ns.">
<polygon fill="none" stroke="white" points="446.5,-1067 347.5,-1067 347.5,-1013 446.5,-1013 446.5,-1067"/>
<text text-anchor="middle" x="397" y="-1051.8" font-family="Times,serif" font-size="14.00" fill="white">Validate</text>
<text text-anchor="middle" x="397" y="-1020.8" font-family="Times,serif" font-size="14.00" fill="white">10 µs 66 ns</text>
</a>
</g>
</g>
<!-- 126734611657232&#45;&gt;126690072563024 -->
<g id="edge18" class="edge">
<title>126734611657232&#45;&gt;126690072563024</title>
<path fill="none" stroke="white" d="M381.03,-1067.02C372.64,-1081.04 362.39,-1098.76 354,-1115 343.53,-1135.28 332.91,-1158.3 324.33,-1177.66"/>
<polygon fill="white" stroke="white" points="324.32,-1177.68 321.12,-1176.27 320.3,-1186.83 324.32,-1177.68"/>
<text text-anchor="middle" x="443" y="-1138.3" font-family="Times,serif" font-size="14.00" fill="white">20,051 row(s)/2 chunk(s)</text>
</g>
<!-- 126690072562704 -->
<g id="node17" class="node">
<title>126690072562704</title>
<g id="a_node17"><a xlink:title="Output: 20051 rows in 2 chunks, 631 µs 596 ns.&#10;Operator step runtimes:&#10; BuildSideMaterializing 30 µs 998 ns&#10; ProbeSideMaterializing 368 µs 715 ns&#10; Clustering 0 ns&#10; Building 2 µs 810 ns&#10; Probing 100 µs 363 ns&#10; OutputWriting 107 µs 789 ns.&#10;Radix bits: 0.&#10;Build side is right.">
<polygon fill="none" stroke="white" stroke-width="1.88" points="570,-924.5 362,-924.5 362,-855.5 570,-855.5 570,-924.5"/>
<text text-anchor="middle" x="466" y="-909.3" font-family="Times,serif" font-size="14.00" fill="white">JoinHash (Semi Reduction)</text>
<text text-anchor="middle" x="466" y="-894.3" font-family="Times,serif" font-size="14.00" fill="white">s_nationkey = n_nationkey</text>
<text text-anchor="middle" x="466" y="-863.3" font-family="Times,serif" font-size="14.00" fill="white">631 µs 596 ns</text>
</a>
</g>
</g>
<!-- 126690072562704&#45;&gt;126734611657232 -->
<g id="edge19" class="edge">
<title>126690072562704&#45;&gt;126734611657232</title>
<path fill="none" stroke="white" d="M458.05,-924.87C454.49,-937.72 449.78,-952.31 444,-965 437.86,-978.49 429.59,-992.42 421.7,-1004.51"/>
<polygon fill="white" stroke="white" points="418.7,-1002.69 416.06,-1012.95 424.52,-1006.58 418.7,-1002.69"/>
<text text-anchor="middle" x="538" y="-953.8" font-family="Times,serif" font-size="14.00" fill="white">20,051 row(s)/2 chunk(s)</text>
</g>
<!-- 126718234273424 -->
<g id="node18" class="node">
<title>126718234273424</title>
<g id="a_node18"><a xlink:title="Output: 100000 rows in 2 chunks, 15 µs 636 ns.">
<polygon fill="none" stroke="white" points="764.5,-797 651.5,-797 651.5,-683 764.5,-683 764.5,-797"/>
<text text-anchor="middle" x="708" y="-781.8" font-family="Times,serif" font-size="14.00" fill="white">GetTable</text>
<text text-anchor="middle" x="708" y="-766.8" font-family="Times,serif" font-size="14.00" fill="white">(supplier)</text>
<text text-anchor="middle" x="708" y="-751.8" font-family="Times,serif" font-size="14.00" fill="white">pruned:</text>
<text text-anchor="middle" x="708" y="-736.8" font-family="Times,serif" font-size="14.00" fill="white">0/2 chunk(s)</text>
<text text-anchor="middle" x="708" y="-721.8" font-family="Times,serif" font-size="14.00" fill="white">0/7 column(s)</text>
<text text-anchor="middle" x="708" y="-690.8" font-family="Times,serif" font-size="14.00" fill="white">15 µs 636 ns</text>
</a>
</g>
</g>
<!-- 126718234273424&#45;&gt;126690072562704 -->
<g id="edge20" class="edge">
<title>126718234273424&#45;&gt;126690072562704</title>
<path fill="none" stroke="white" d="M651.39,-755.36C612.86,-767.05 562.13,-786.36 524,-815 512.34,-823.76 501.76,-835.41 492.92,-846.87"/>
<polygon fill="white" stroke="white" points="492.75,-847.11 489.93,-845.02 486.8,-855.14 492.75,-847.11"/>
<text text-anchor="middle" x="617.5" y="-818.8" font-family="Times,serif" font-size="14.00" fill="white">100,000 row(s)/2 chunk(s)</text>
</g>
<!-- 126690072564304 -->
<g id="node29" class="node">
<title>126690072564304</title>
<g id="a_node29"><a xlink:title="Output: 20051 rows in 2 chunks, 666 µs 285 ns.&#10;Operator step runtimes:&#10; BuildSideMaterializing 28 µs 971 ns&#10; ProbeSideMaterializing 402 µs 898 ns&#10; Clustering 0 ns&#10; Building 1 µs 407 ns&#10; Probing 113 µs 528 ns&#10; OutputWriting 106 µs 598 ns.&#10;Radix bits: 0.&#10;Build side is right.">
<polygon fill="none" stroke="white" stroke-width="2.01" points="997.5,-924.5 790.5,-924.5 790.5,-855.5 997.5,-855.5 997.5,-924.5"/>
<text text-anchor="middle" x="894" y="-909.3" font-family="Times,serif" font-size="14.00" fill="white">JoinHash (Semi)</text>
<text text-anchor="middle" x="894" y="-894.3" font-family="Times,serif" font-size="14.00" fill="white">s_nationkey = n_nationkey</text>
<text text-anchor="middle" x="894" y="-863.3" font-family="Times,serif" font-size="14.00" fill="white">666 µs 285 ns</text>
</a>
</g>
</g>
<!-- 126718234273424&#45;&gt;126690072564304 -->
<g id="edge21" class="edge">
<title>126718234273424&#45;&gt;126690072564304</title>
<path fill="none" stroke="white" d="M764.69,-753.68C800.17,-764.4 844.26,-783.24 872,-815 879.49,-823.58 884.44,-834.62 887.7,-845.54"/>
<polygon fill="white" stroke="white" points="887.76,-845.77 884.37,-846.64 890.24,-855.46 887.76,-845.77"/>
<text text-anchor="middle" x="974.5" y="-818.8" font-family="Times,serif" font-size="14.00" fill="white">100,000 row(s)/2 chunk(s)</text>
</g>
<!-- 126734611655696 -->
<g id="node19" class="node">
<title>126734611655696</title>
<g id="a_node19"><a xlink:title="Output: 5 rows in 1 chunk, 9 µs 129 ns.">
<polygon fill="none" stroke="white" points="411.5,-767 312.5,-767 312.5,-713 411.5,-713 411.5,-767"/>
<text text-anchor="middle" x="362" y="-751.8" font-family="Times,serif" font-size="14.00" fill="white">Validate</text>
<text text-anchor="middle" x="362" y="-720.8" font-family="Times,serif" font-size="14.00" fill="white">9 µs 129 ns</text>
</a>
</g>
</g>
<!-- 126734611655696&#45;&gt;126690072563024 -->
<g id="edge23" class="edge">
<title>126734611655696&#45;&gt;126690072563024</title>
<path fill="none" stroke="white" d="M351.9,-767.21C337.43,-806.3 311.49,-882.53 302,-950 290.83,-1029.36 296.33,-1123.09 301.24,-1176.79"/>
<polygon fill="white" stroke="white" points="302.21,-1186.98 304.74,-1176.69 301.26,-1177.02 302.21,-1186.98"/>
<text text-anchor="middle" x="371" y="-953.8" font-family="Times,serif" font-size="14.00" fill="white">5 row(s)/1 chunk(s)</text>
</g>
<!-- 126734611655696&#45;&gt;126690072562704 -->
<g id="edge22" class="edge">
<title>126734611655696&#45;&gt;126690072562704</title>
<path fill="none" stroke="white" d="M355.75,-767.37C352.79,-786.12 351.97,-811.21 363,-830 367.11,-837 372.39,-843.24 378.39,-848.79"/>
<polygon fill="white" stroke="white" points="386.33,-855.46 380.92,-846.35 378.67,-849.03 386.33,-855.46"/>
<text text-anchor="middle" x="432" y="-818.8" font-family="Times,serif" font-size="14.00" fill="white">5 row(s)/1 chunk(s)</text>
</g>
<!-- 126734611655696&#45;&gt;126690072564304 -->
<g id="edge24" class="edge">
<title>126734611655696&#45;&gt;126690072564304</title>
<path fill="none" stroke="white" d="M411.82,-750.94C504.99,-769.62 697.44,-808.64 711,-815 720.74,-819.57 720.59,-824.78 730,-830 745.85,-838.8 763.26,-846.71 780.64,-853.67"/>
<polygon fill="white" stroke="white" points="790.27,-857.44 782.23,-850.54 780.96,-853.8 790.27,-857.44"/>
<text text-anchor="middle" x="799" y="-818.8" font-family="Times,serif" font-size="14.00" fill="white">5 row(s)/1 chunk(s)</text>
</g>
<!-- 126690072560784 -->
<g id="node20" class="node">
<title>126690072560784</title>
<g id="a_node20"><a xlink:title="Output: 5 rows in 1 chunk, 83 µs 564 ns.&#10;Operator step runtimes:&#10; BuildSideMaterializing 23 µs 281 ns&#10; ProbeSideMaterializing 13 µs 594 ns&#10; Clustering 0 ns&#10; Building 6 µs 371 ns&#10; Probing 3 µs 350 ns&#10; OutputWriting 14 µs 475 ns.&#10;Radix bits: 0.&#10;Build side is right.">
<polygon fill="none" stroke="white" points="466,-609.5 258,-609.5 258,-540.5 466,-540.5 466,-609.5"/>
<text text-anchor="middle" x="362" y="-594.3" font-family="Times,serif" font-size="14.00" fill="white">JoinHash (Semi)</text>
<text text-anchor="middle" x="362" y="-579.3" font-family="Times,serif" font-size="14.00" fill="white">n_regionkey = r_regionkey</text>
<text text-anchor="middle" x="362" y="-548.3" font-family="Times,serif" font-size="14.00" fill="white">83 µs 564 ns</text>
</a>
</g>
</g>
<!-- 126690072560784&#45;&gt;126734611655696 -->
<g id="edge25" class="edge">
<title>126690072560784&#45;&gt;126734611655696</title>
<path fill="none" stroke="white" d="M362,-609.77C362,-636.89 362,-674.9 362,-702.68"/>
<polygon fill="white" stroke="white" points="358.5,-702.78 362,-712.78 365.5,-702.78 358.5,-702.78"/>
<text text-anchor="middle" x="431" y="-653.8" font-family="Times,serif" font-size="14.00" fill="white">5 row(s)/1 chunk(s)</text>
</g>
<!-- 126718234274768 -->
<g id="node21" class="node">
<title>126718234274768</title>
<g id="a_node21"><a xlink:title="Output: 25 rows in 1 chunk, 14 µs 869 ns.">
<polygon fill="none" stroke="white" points="333.5,-467 220.5,-467 220.5,-353 333.5,-353 333.5,-467"/>
<text text-anchor="middle" x="277" y="-451.8" font-family="Times,serif" font-size="14.00" fill="white">GetTable</text>
<text text-anchor="middle" x="277" y="-436.8" font-family="Times,serif" font-size="14.00" fill="white">(nation)</text>
<text text-anchor="middle" x="277" y="-421.8" font-family="Times,serif" font-size="14.00" fill="white">pruned:</text>
<text text-anchor="middle" x="277" y="-406.8" font-family="Times,serif" font-size="14.00" fill="white">0/1 chunk(s)</text>
<text text-anchor="middle" x="277" y="-391.8" font-family="Times,serif" font-size="14.00" fill="white">1/4 column(s)</text>
<text text-anchor="middle" x="277" y="-360.8" font-family="Times,serif" font-size="14.00" fill="white">14 µs 869 ns</text>
</a>
</g>
</g>
<!-- 126718234274768&#45;&gt;126690072560784 -->
<g id="edge26" class="edge">
<title>126718234274768&#45;&gt;126690072560784</title>
<path fill="none" stroke="white" d="M270.62,-467.17C271.25,-478.42 273.36,-489.89 278,-500 283.74,-512.51 292.73,-523.76 302.73,-533.49"/>
<polygon fill="white" stroke="white" points="302.79,-533.55 300.43,-536.13 310.16,-540.31 302.79,-533.55"/>
<text text-anchor="middle" x="351.5" y="-488.8" font-family="Times,serif" font-size="14.00" fill="white">25 row(s)/1 chunk(s)</text>
</g>
<!-- 126734611656208 -->
<g id="node22" class="node">
<title>126734611656208</title>
<g id="a_node22"><a xlink:title="Output: 1 row in 1 chunk, 8 µs 840 ns.">
<polygon fill="none" stroke="white" points="496.5,-437 397.5,-437 397.5,-383 496.5,-383 496.5,-437"/>
<text text-anchor="middle" x="447" y="-421.8" font-family="Times,serif" font-size="14.00" fill="white">Validate</text>
<text text-anchor="middle" x="447" y="-390.8" font-family="Times,serif" font-size="14.00" fill="white">8 µs 840 ns</text>
</a>
</g>
</g>
<!-- 126734611656208&#45;&gt;126690072560784 -->
<g id="edge27" class="edge">
<title>126734611656208&#45;&gt;126690072560784</title>
<path fill="none" stroke="white" d="M443.81,-437.05C440.79,-455.41 435.17,-480.17 425,-500 419.17,-511.37 411.27,-522.49 403.04,-532.52"/>
<polygon fill="white" stroke="white" points="396.41,-540.3 405.56,-534.96 402.89,-532.69 396.41,-540.3"/>
<text text-anchor="middle" x="500" y="-488.8" font-family="Times,serif" font-size="14.00" fill="white">1 row(s)/1 chunk(s)</text>
</g>
<!-- 126690072560464 -->
<g id="node23" class="node">
<title>126690072560464</title>
<g id="a_node23"><a xlink:title="Output: 1 row in 1 chunk, 32 µs 660 ns.&#10;Chunks: 0 skipped with no results, &#10;0 skipped with all matching, 0 scanned using binary search.">
<polygon fill="none" stroke="white" points="531.5,-302 362.5,-302 362.5,-218 531.5,-218 531.5,-302"/>
<text text-anchor="middle" x="447" y="-286.8" font-family="Times,serif" font-size="14.00" fill="white">TableScan</text>
<text text-anchor="middle" x="447" y="-271.8" font-family="Times,serif" font-size="14.00" fill="white">Impl: ColumnVsValue</text>
<text text-anchor="middle" x="447" y="-256.8" font-family="Times,serif" font-size="14.00" fill="white">r_name = &#39;AMERICA&#39;</text>
<text text-anchor="middle" x="447" y="-225.8" font-family="Times,serif" font-size="14.00" fill="white">32 µs 660 ns</text>
</a>
</g>
</g>
<!-- 126690072560464&#45;&gt;126734611656208 -->
<g id="edge28" class="edge">
<title>126690072560464&#45;&gt;126734611656208</title>
<path fill="none" stroke="white" d="M447,-302.23C447,-324.32 447,-351.31 447,-372.62"/>
<polygon fill="white" stroke="white" points="443.5,-372.88 447,-382.88 450.5,-372.88 443.5,-372.88"/>
<text text-anchor="middle" x="516" y="-323.8" font-family="Times,serif" font-size="14.00" fill="white">1 row(s)/1 chunk(s)</text>
</g>
<!-- 126718234273872 -->
<g id="node24" class="node">
<title>126718234273872</title>
<g id="a_node24"><a xlink:title="Output: 5 rows in 1 chunk, 14 µs 841 ns.">
<polygon fill="none" stroke="white" points="503.5,-140.5 390.5,-140.5 390.5,-26.5 503.5,-26.5 503.5,-140.5"/>
<text text-anchor="middle" x="447" y="-125.3" font-family="Times,serif" font-size="14.00" fill="white">GetTable</text>
<text text-anchor="middle" x="447" y="-110.3" font-family="Times,serif" font-size="14.00" fill="white">(region)</text>
<text text-anchor="middle" x="447" y="-95.3" font-family="Times,serif" font-size="14.00" fill="white">pruned:</text>
<text text-anchor="middle" x="447" y="-80.3" font-family="Times,serif" font-size="14.00" fill="white">0/1 chunk(s)</text>
<text text-anchor="middle" x="447" y="-65.3" font-family="Times,serif" font-size="14.00" fill="white">1/3 column(s)</text>
<text text-anchor="middle" x="447" y="-34.3" font-family="Times,serif" font-size="14.00" fill="white">14 µs 841 ns</text>
</a>
</g>
</g>
<!-- 126718234273872&#45;&gt;126690072560464 -->
<g id="edge29" class="edge">
<title>126718234273872&#45;&gt;126690072560464</title>
<path fill="none" stroke="white" d="M447,-140.67C447,-162.25 447,-186.74 447,-207.83"/>
<polygon fill="white" stroke="white" points="443.5,-207.87 447,-217.87 450.5,-207.87 443.5,-207.87"/>
<text text-anchor="middle" x="516" y="-188.8" font-family="Times,serif" font-size="14.00" fill="white">5 row(s)/1 chunk(s)</text>
</g>
<!-- 126734611519504 -->
<g id="node25" class="node">
<title>126734611519504</title>
<g id="a_node25"><a xlink:title="Output: 4759 rows in 1 chunk, 1 ms 749 µs.&#10;Operator step runtimes:&#10; GroupByKeyPartitioning 283 µs 156 ns&#10; Aggregating 1 ms 358 µs&#10; GroupByColumnsWriting 41 µs 789 ns&#10; AggregateColumnsWriting 51 µs 800 ns&#10; OutputWriting 7 µs 311 ns.">
<polygon fill="none" stroke="white" stroke-width="4.39" points="697,-1703 517,-1703 517,-1619 697,-1619 697,-1703"/>
<text text-anchor="middle" x="607" y="-1687.8" font-family="Times,serif" font-size="14.00" fill="white">AggregateHash</text>
<text text-anchor="middle" x="607" y="-1672.8" font-family="Times,serif" font-size="14.00" fill="white">GroupBy {ps_partkey}</text>
<text text-anchor="middle" x="607" y="-1657.8" font-family="Times,serif" font-size="14.00" fill="white">MIN(ps_supplycost)</text>
<text text-anchor="middle" x="607" y="-1626.8" font-family="Times,serif" font-size="14.00" fill="white">1 ms 749 µs</text>
</a>
</g>
</g>
<!-- 126734611519504&#45;&gt;126690072564944 -->
<g id="edge30" class="edge">
<title>126734611519504&#45;&gt;126690072564944</title>
<path fill="none" stroke="white" d="M598.85,-1703.31C590.19,-1738.4 573.56,-1788.44 544,-1823 540.62,-1826.95 536.91,-1830.7 532.96,-1834.25"/>
<polygon fill="white" stroke="white" points="525.11,-1840.83 535.03,-1837.09 532.78,-1834.41 525.11,-1840.83"/>
<text text-anchor="middle" x="677.5" y="-1751.8" font-family="Times,serif" font-size="14.00" fill="white">4,759 row(s)/1 chunk(s)</text>
</g>
<!-- 126734611656720 -->
<g id="node26" class="node">
<title>126734611656720</title>
<g id="a_node26"><a xlink:title="Output: 6415 rows in 12 chunks, 69 µs 533 ns.">
<polygon fill="none" stroke="white" points="689,-1481 581,-1481 581,-1427 689,-1427 689,-1481"/>
<text text-anchor="middle" x="635" y="-1465.8" font-family="Times,serif" font-size="14.00" fill="white">Validate</text>
<text text-anchor="middle" x="635" y="-1434.8" font-family="Times,serif" font-size="14.00" fill="white">69 µs 533 ns</text>
</a>
</g>
</g>
<!-- 126734611656720&#45;&gt;126734611519504 -->
<g id="edge31" class="edge">
<title>126734611656720&#45;&gt;126734611519504</title>
<path fill="none" stroke="white" d="M631.4,-1481.38C627.01,-1513.48 619.51,-1568.4 613.98,-1608.89"/>
<polygon fill="white" stroke="white" points="610.51,-1608.47 612.62,-1618.85 617.44,-1609.41 610.51,-1608.47"/>
<text text-anchor="middle" x="717" y="-1502.8" font-family="Times,serif" font-size="14.00" fill="white">6,415 row(s)/12 chunk(s)</text>
</g>
<!-- 126690072564624&#45;&gt;126734611656720 -->
<g id="edge32" class="edge">
<title>126690072564624&#45;&gt;126734611656720</title>
<path fill="none" stroke="white" d="M693.34,-1376.25C683.11,-1389.71 671.35,-1405.18 661.08,-1418.69"/>
<polygon fill="white" stroke="white" points="658.17,-1416.73 654.91,-1426.81 663.74,-1420.97 658.17,-1416.73"/>
<text text-anchor="middle" x="768" y="-1397.8" font-family="Times,serif" font-size="14.00" fill="white">6,415 row(s)/12 chunk(s)</text>
</g>
<!-- 126734611656464 -->
<g id="node28" class="node">
<title>126734611656464</title>
<g id="a_node28"><a xlink:title="Output: 20051 rows in 2 chunks, 8 µs 275 ns.">
<polygon fill="none" stroke="white" points="962.5,-1169 863.5,-1169 863.5,-1115 962.5,-1115 962.5,-1169"/>
<text text-anchor="middle" x="913" y="-1153.8" font-family="Times,serif" font-size="14.00" fill="white">Validate</text>
<text text-anchor="middle" x="913" y="-1122.8" font-family="Times,serif" font-size="14.00" fill="white">8 µs 275 ns</text>
</a>
</g>
</g>
<!-- 126734611656464&#45;&gt;126690072564624 -->
<g id="edge33" class="edge">
<title>126734611656464&#45;&gt;126690072564624</title>
<path fill="none" stroke="white" d="M918.12,-1169.28C922.76,-1201.38 925.14,-1255.53 897,-1289 879.11,-1310.27 853.03,-1323.05 826.31,-1330.65"/>
<polygon fill="white" stroke="white" points="816.46,-1333.22 827.02,-1334.08 826.14,-1330.69 816.46,-1333.22"/>
<text text-anchor="middle" x="1009" y="-1217.8" font-family="Times,serif" font-size="14.00" fill="white">20,051 row(s)/2 chunk(s)</text>
</g>
<!-- 126690072564304&#45;&gt;126734611656464 -->
<g id="edge34" class="edge">
<title>126690072564304&#45;&gt;126734611656464</title>
<path fill="none" stroke="white" d="M896.56,-924.72C900.13,-971.65 906.57,-1056.34 910.24,-1104.65"/>
<polygon fill="white" stroke="white" points="906.75,-1104.96 911,-1114.66 913.73,-1104.43 906.75,-1104.96"/>
<text text-anchor="middle" x="988" y="-953.8" font-family="Times,serif" font-size="14.00" fill="white">20,051 row(s)/2 chunk(s)</text>
</g>
<!-- 0 -->
<g id="node30" class="node">
<title>0</title>
<polygon fill="none" stroke="white" points="521,-0.5 521,-166.5 837,-166.5 837,-0.5 521,-0.5"/>
<text text-anchor="middle" x="679" y="-151.3" font-family="Times,serif" font-size="14.00" fill="white">Total by operator</text>
<polyline fill="none" stroke="white" points="521,-143.5 837,-143.5 "/>
<text text-anchor="end" x="650" y="-128.3" font-family="Times,serif" font-size="14.00" fill="white">JoinHash </text>
<text text-anchor="end" x="650" y="-113.3" font-family="Times,serif" font-size="14.00" fill="white"> Sort </text>
<text text-anchor="end" x="650" y="-98.3" font-family="Times,serif" font-size="14.00" fill="white"> AggregateHash </text>
<text text-anchor="end" x="650" y="-83.3" font-family="Times,serif" font-size="14.00" fill="white"> TableScan </text>
<text text-anchor="end" x="650" y="-68.3" font-family="Times,serif" font-size="14.00" fill="white"> GetTable </text>
<text text-anchor="end" x="650" y="-53.3" font-family="Times,serif" font-size="14.00" fill="white"> Validate </text>
<text text-anchor="end" x="650" y="-38.3" font-family="Times,serif" font-size="14.00" fill="white"> Limit </text>
<text text-anchor="end" x="650" y="-23.3" font-family="Times,serif" font-size="14.00" fill="white"> Projection </text>
<text text-anchor="end" x="650" y="-8.3" font-family="Times,serif" font-size="14.00" fill="white">total</text>
<polyline fill="none" stroke="white" points="658,-0.5 658,-143.5 "/>
<text text-anchor="start" x="666" y="-128.3" font-family="Times,serif" font-size="14.00" fill="white">11 ms 518 µs </text>
<text text-anchor="start" x="666" y="-113.3" font-family="Times,serif" font-size="14.00" fill="white"> 7 ms 557 µs </text>
<text text-anchor="start" x="666" y="-98.3" font-family="Times,serif" font-size="14.00" fill="white"> 1 ms 749 µs </text>
<text text-anchor="start" x="666" y="-83.3" font-family="Times,serif" font-size="14.00" fill="white"> 500 µs 603 ns </text>
<text text-anchor="start" x="666" y="-68.3" font-family="Times,serif" font-size="14.00" fill="white"> 497 µs 414 ns </text>
<text text-anchor="start" x="666" y="-53.3" font-family="Times,serif" font-size="14.00" fill="white"> 238 µs 599 ns </text>
<text text-anchor="start" x="666" y="-38.3" font-family="Times,serif" font-size="14.00" fill="white"> 31 µs 250 ns </text>
<text text-anchor="start" x="666" y="-23.3" font-family="Times,serif" font-size="14.00" fill="white"> 20 µs 29 ns </text>
<text text-anchor="start" x="666" y="-8.3" font-family="Times,serif" font-size="14.00" fill="white"> 22 ms 112 µs </text>
<polyline fill="none" stroke="white" points="784,-0.5 784,-143.5 "/>
<text text-anchor="start" x="792" y="-128.3" font-family="Times,serif" font-size="14.00" fill="white">52 %</text>
<text text-anchor="start" x="792" y="-113.3" font-family="Times,serif" font-size="14.00" fill="white">34 %</text>
<text text-anchor="start" x="792" y="-98.3" font-family="Times,serif" font-size="14.00" fill="white">8 %</text>
<text text-anchor="start" x="792" y="-83.3" font-family="Times,serif" font-size="14.00" fill="white">2 %</text>
<text text-anchor="start" x="792" y="-68.3" font-family="Times,serif" font-size="14.00" fill="white">2 %</text>
<text text-anchor="start" x="792" y="-53.3" font-family="Times,serif" font-size="14.00" fill="white">1 %</text>
<text text-anchor="start" x="792" y="-38.3" font-family="Times,serif" font-size="14.00" fill="white">0 %</text>
<text text-anchor="start" x="792" y="-23.3" font-family="Times,serif" font-size="14.00" fill="white">0 %</text>
<text text-anchor="start" x="792" y="-8.3" font-family="Times,serif" font-size="14.00" fill="white"> </text>
</g>
</g>
</svg>
