<?xml version="1.0" encoding="UTF-8" standalone="no"?>
<!DOCTYPE svg PUBLIC "-//W3C//DTD SVG 1.1//EN"
 "http://www.w3.org/Graphics/SVG/1.1/DTD/svg11.dtd">
<!-- Generated by graphviz version 2.43.0 (0)
 -->
<!-- Title: G Pages: 1 -->
<svg width="744pt" height="1220pt"
 viewBox="0.00 0.00 744.00 1220.00" xmlns="http://www.w3.org/2000/svg" xmlns:xlink="http://www.w3.org/1999/xlink">
<g id="graph0" class="graph" transform="scale(1 1) rotate(0) translate(4 1216)">
<title>G</title>
<polygon fill="black" stroke="transparent" points="-4,4 -4,-1216 740,-1216 740,4 -4,4"/>
<text text-anchor="middle" x="319.5" y="-1196.8" font-family="Times,serif" font-size="14.00" fill="white">For tooltips with advanced information, hover your mouse over vertices or edge labels.</text>
<!-- 139773489086352 -->
<g id="node1" class="node">
<title>139773489086352</title>
<g id="a_node1"><a xlink:title="Output: 46 rows in 1 chunk filtered: 0, 2 µs 472 ns.">
<polygon fill="none" stroke="white" points="248,-1157 101,-1157 101,-1088 248,-1088 248,-1157"/>
<text text-anchor="middle" x="174.5" y="-1141.8" font-family="Times,serif" font-size="14.00" fill="white">Alias</text>
<text text-anchor="middle" x="174.5" y="-1126.8" font-family="Times,serif" font-size="14.00" fill="white">[c_count, custdist]</text>
<text text-anchor="middle" x="174.5" y="-1095.8" font-family="Times,serif" font-size="14.00" fill="white">2 µs 472 ns</text>
</a>
</g>
</g>
<!-- 139773489086032 -->
<g id="node2" class="node">
<title>139773489086032</title>
<g id="a_node2"><a xlink:title="Output: 46 rows in 1 chunk filtered: 0, 24 µs 38 ns.&#10;Operator step runtimes:&#10; MaterializeSortColumns 9 µs 736 ns&#10; Sort 4 µs 775 ns&#10; TemporaryResultWriting 638 ns&#10; WriteOutput 6 µs 166 ns.">
<polygon fill="none" stroke="white" points="224,-1037 125,-1037 125,-983 224,-983 224,-1037"/>
<text text-anchor="middle" x="174.5" y="-1021.8" font-family="Times,serif" font-size="14.00" fill="white">Sort</text>
<text text-anchor="middle" x="174.5" y="-990.8" font-family="Times,serif" font-size="14.00" fill="white">24 µs 38 ns</text>
</a>
</g>
</g>
<!-- 139773489086032&#45;&gt;139773489086352 -->
<g id="edge1" class="edge">
<title>139773489086032&#45;&gt;139773489086352</title>
<path fill="none" stroke="white" d="M174.5,-1037.19C174.5,-1049.29 174.5,-1064 174.5,-1077.72"/>
<polygon fill="white" stroke="white" points="171,-1077.95 174.5,-1087.95 178,-1077.96 171,-1077.95"/>
<text text-anchor="middle" x="248" y="-1058.8" font-family="Times,serif" font-size="14.00" fill="white">46 row(s)/1 chunk(s)</text>
</g>
<!-- 139773488485392 -->
<g id="node3" class="node">
<title>139773488485392</title>
<g id="a_node3"><a xlink:title="Output: 46 rows in 1 chunk filtered: 0, 21 ms 256 µs.&#10;Operator step runtimes:&#10; GroupByKeyPartitioning 11 ms 782 µs&#10; Aggregating 9 ms 435 µs&#10; GroupByColumnsWriting 6 µs 865 ns&#10; AggregateColumnsWriting 10 µs 780 ns&#10; OutputWriting 3 µs 727 ns.">
<polygon fill="none" stroke="white" points="297.5,-932 51.5,-932 51.5,-848 297.5,-848 297.5,-932"/>
<text text-anchor="middle" x="174.5" y="-916.8" font-family="Times,serif" font-size="14.00" fill="white">AggregateHash</text>
<text text-anchor="middle" x="174.5" y="-901.8" font-family="Times,serif" font-size="14.00" fill="white">GroupBy {COUNT(o_orderkey)}</text>
<text text-anchor="middle" x="174.5" y="-886.8" font-family="Times,serif" font-size="14.00" fill="white">COUNT(*)</text>
<text text-anchor="middle" x="174.5" y="-855.8" font-family="Times,serif" font-size="14.00" fill="white">21 ms 256 µs</text>
</a>
</g>
</g>
<!-- 139773488485392&#45;&gt;139773489086032 -->
<g id="edge2" class="edge">
<title>139773488485392&#45;&gt;139773489086032</title>
<path fill="none" stroke="white" d="M174.5,-932.27C174.5,-945.36 174.5,-959.72 174.5,-972.45"/>
<polygon fill="white" stroke="white" points="171,-972.69 174.5,-982.69 178,-972.69 171,-972.69"/>
<text text-anchor="middle" x="248" y="-953.8" font-family="Times,serif" font-size="14.00" fill="white">46 row(s)/1 chunk(s)</text>
</g>
<!-- 139773489085712 -->
<g id="node4" class="node">
<title>139773489085712</title>
<g id="a_node4"><a xlink:title="Output: 1500000 rows in 23 chunks filtered: 0, 17 µs 675 ns.">
<polygon fill="none" stroke="white" points="253,-797 96,-797 96,-728 253,-728 253,-797"/>
<text text-anchor="middle" x="174.5" y="-781.8" font-family="Times,serif" font-size="14.00" fill="white">Alias</text>
<text text-anchor="middle" x="174.5" y="-766.8" font-family="Times,serif" font-size="14.00" fill="white">[c_custkey, c_count]</text>
<text text-anchor="middle" x="174.5" y="-735.8" font-family="Times,serif" font-size="14.00" fill="white">17 µs 675 ns</text>
</a>
</g>
</g>
<!-- 139773489085712&#45;&gt;139773488485392 -->
<g id="edge3" class="edge">
<title>139773489085712&#45;&gt;139773488485392</title>
<path fill="none" stroke="white" stroke-width="2.27" d="M174.5,-797.13C174.5,-809.51 174.5,-823.84 174.5,-837.44"/>
<polygon fill="white" stroke="white" stroke-width="2.27" points="171,-837.65 174.5,-847.65 178,-837.65 171,-837.65"/>
<text text-anchor="middle" x="279.5" y="-818.8" font-family="Times,serif" font-size="14.00" fill="white">1,500,000 row(s)/23 chunk(s)</text>
</g>
<!-- 139773488486928 -->
<g id="node5" class="node">
<title>139773488486928</title>
<g id="a_node5"><a xlink:title="Output: 1500000 rows in 23 chunks filtered: 0, 1 s 485 ms.&#10;Operator step runtimes:&#10; GroupByKeyPartitioning 230 ms 748 µs&#10; Aggregating 1 s 248 ms&#10; GroupByColumnsWriting 4 ms 15 µs&#10; AggregateColumnsWriting 1 ms 957 µs&#10; OutputWriting 30 µs 194 ns.">
<polygon fill="none" stroke="white" stroke-width="8" points="260,-677 89,-677 89,-593 260,-593 260,-677"/>
<text text-anchor="middle" x="174.5" y="-661.8" font-family="Times,serif" font-size="14.00" fill="white">AggregateHash</text>
<text text-anchor="middle" x="174.5" y="-646.8" font-family="Times,serif" font-size="14.00" fill="white">GroupBy {c_custkey}</text>
<text text-anchor="middle" x="174.5" y="-631.8" font-family="Times,serif" font-size="14.00" fill="white">COUNT(o_orderkey)</text>
<text text-anchor="middle" x="174.5" y="-600.8" font-family="Times,serif" font-size="14.00" fill="white">1 s 485 ms</text>
</a>
</g>
</g>
<!-- 139773488486928&#45;&gt;139773489085712 -->
<g id="edge4" class="edge">
<title>139773488486928&#45;&gt;139773489085712</title>
<path fill="none" stroke="white" stroke-width="2.27" d="M174.5,-677.09C174.5,-690.07 174.5,-704.45 174.5,-717.61"/>
<polygon fill="white" stroke="white" stroke-width="2.27" points="171,-717.85 174.5,-727.85 178,-717.85 171,-717.85"/>
<text text-anchor="middle" x="279.5" y="-698.8" font-family="Times,serif" font-size="14.00" fill="white">1,500,000 row(s)/23 chunk(s)</text>
</g>
<!-- 139773489085392 -->
<g id="node6" class="node">
<title>139773489085392</title>
<g id="a_node6"><a xlink:title="Output: 15338712 rows in 256 chunks filtered: 0, 140 ms 130 µs.&#10;Operator step runtimes:&#10; LeftSideMaterialize 1 ms 409 µs&#10; RightSideMaterialize 10 ms 702 µs&#10; LeftSideTransform 0 ns&#10; RightSideTransform 0 ns&#10; LeftSidePartition 9 ms 457 µs&#10; RightSidePartition 26 ms 60 µs&#10; LeftSideSortBuckets 5 ms 339 µs&#10; RightSideSortBuckets 14 ms 306 µs&#10; GatherRowIds 4 µs 78 ns&#10; FindJoinPartner 47 ms 777 µs&#10; OutputWriting 20 ms 878 µs.&#10;Radix bits: 8.">
<polygon fill="none" stroke="white" stroke-width="2.18" points="275,-542 74,-542 74,-473 275,-473 275,-542"/>
<text text-anchor="middle" x="174.5" y="-526.8" font-family="Times,serif" font-size="14.00" fill="white">JoinSimdSortMerge (Left)</text>
<text text-anchor="middle" x="174.5" y="-511.8" font-family="Times,serif" font-size="14.00" fill="white">c_custkey = o_custkey</text>
<text text-anchor="middle" x="174.5" y="-480.8" font-family="Times,serif" font-size="14.00" fill="white">140 ms 130 µs</text>
</a>
</g>
</g>
<!-- 139773489085392&#45;&gt;139773488486928 -->
<g id="edge5" class="edge">
<title>139773489085392&#45;&gt;139773488486928</title>
<path fill="none" stroke="white" stroke-width="8" d="M174.5,-542.13C174.5,-554.51 174.5,-568.84 174.5,-582.44"/>
<polygon fill="white" stroke="white" stroke-width="8" points="167.5,-582.65 174.5,-592.65 181.5,-582.65 167.5,-582.65"/>
<text text-anchor="middle" x="288.5" y="-563.8" font-family="Times,serif" font-size="14.00" fill="white">15,338,712 row(s)/256 chunk(s)</text>
</g>
<!-- 139773488402192 -->
<g id="node7" class="node">
<title>139773488402192</title>
<g id="a_node7"><a xlink:title="Output: 1500000 rows in 23 chunks filtered: 0, 109 µs 579 ns.">
<polygon fill="none" stroke="white" points="117,-422 0,-422 0,-368 117,-368 117,-422"/>
<text text-anchor="middle" x="58.5" y="-406.8" font-family="Times,serif" font-size="14.00" fill="white">Validate</text>
<text text-anchor="middle" x="58.5" y="-375.8" font-family="Times,serif" font-size="14.00" fill="white">109 µs 579 ns</text>
</a>
</g>
</g>
<!-- 139773488402192&#45;&gt;139773489085392 -->
<g id="edge6" class="edge">
<title>139773488402192&#45;&gt;139773489085392</title>
<path fill="none" stroke="white" stroke-width="2.27" d="M54.68,-422.02C54.39,-433.06 55.97,-445.53 62.5,-455 65.28,-459.03 68.45,-462.75 71.93,-466.18"/>
<polygon fill="white" stroke="white" stroke-width="2.27" points="71.97,-466.21 69.65,-468.84 79.47,-472.83 71.97,-466.21"/>
<text text-anchor="middle" x="167.5" y="-443.8" font-family="Times,serif" font-size="14.00" fill="white">1,500,000 row(s)/23 chunk(s)</text>
</g>
<!-- 139773488611152 -->
<g id="node8" class="node">
<title>139773488611152</title>
<g id="a_node8"><a xlink:title="Output: 1500000 rows in 23 chunks filtered: 0, 38 µs 823 ns.">
<polygon fill="none" stroke="white" points="115,-317 2,-317 2,-203 115,-203 115,-317"/>
<text text-anchor="middle" x="58.5" y="-301.8" font-family="Times,serif" font-size="14.00" fill="white">GetTable</text>
<text text-anchor="middle" x="58.5" y="-286.8" font-family="Times,serif" font-size="14.00" fill="white">(customer)</text>
<text text-anchor="middle" x="58.5" y="-271.8" font-family="Times,serif" font-size="14.00" fill="white">pruned:</text>
<text text-anchor="middle" x="58.5" y="-256.8" font-family="Times,serif" font-size="14.00" fill="white">0/23 chunk(s)</text>
<text text-anchor="middle" x="58.5" y="-241.8" font-family="Times,serif" font-size="14.00" fill="white">7/8 column(s)</text>
<text text-anchor="middle" x="58.5" y="-210.8" font-family="Times,serif" font-size="14.00" fill="white">38 µs 823 ns</text>
</a>
</g>
</g>
<!-- 139773488611152&#45;&gt;139773488402192 -->
<g id="edge7" class="edge">
<title>139773488611152&#45;&gt;139773488402192</title>
<path fill="none" stroke="white" stroke-width="2.27" d="M58.5,-317.02C58.5,-330.77 58.5,-345.14 58.5,-357.69"/>
<polygon fill="white" stroke="white" stroke-width="2.27" points="55,-357.75 58.5,-367.75 62,-357.75 55,-357.75"/>
<text text-anchor="middle" x="163.5" y="-338.8" font-family="Times,serif" font-size="14.00" fill="white">1,500,000 row(s)/23 chunk(s)</text>
</g>
<!-- 139773488427024 -->
<g id="node9" class="node">
<title>139773488427024</title>
<g id="a_node9"><a xlink:title="Output: 14838692 rows in 229 chunks filtered: 0, 457 µs 535 ns.">
<polygon fill="none" stroke="white" points="355,-422 238,-422 238,-368 355,-368 355,-422"/>
<text text-anchor="middle" x="296.5" y="-406.8" font-family="Times,serif" font-size="14.00" fill="white">Validate</text>
<text text-anchor="middle" x="296.5" y="-375.8" font-family="Times,serif" font-size="14.00" fill="white">457 µs 535 ns</text>
</a>
</g>
</g>
<!-- 139773488427024&#45;&gt;139773489085392 -->
<g id="edge8" class="edge">
<title>139773488427024&#45;&gt;139773489085392</title>
<path fill="none" stroke="white" stroke-width="7.92" d="M290.16,-422.29C286.45,-433.39 280.82,-445.83 272.5,-455 268.71,-459.18 264.49,-463.08 260.01,-466.71"/>
<polygon fill="white" stroke="white" stroke-width="7.92" points="251.67,-472.95 263.83,-472.51 259.68,-466.96 251.67,-472.95"/>
<text text-anchor="middle" x="396.5" y="-443.8" font-family="Times,serif" font-size="14.00" fill="white">14,838,692 row(s)/229 chunk(s)</text>
</g>
<!-- 139773489084752 -->
<g id="node10" class="node">
<title>139773489084752</title>
<g id="a_node10"><a xlink:title="Output: 14838692 rows in 229 chunks filtered: 0, 41 ms 757 µs.&#10;Chunks: 0 skipped with no results, &#10;0 skipped with all matching, 0 scanned using binary search.">
<polygon fill="none" stroke="white" points="478,-302 133,-302 133,-218 478,-218 478,-302"/>
<text text-anchor="middle" x="305.5" y="-286.8" font-family="Times,serif" font-size="14.00" fill="white">TableScan</text>
<text text-anchor="middle" x="305.5" y="-271.8" font-family="Times,serif" font-size="14.00" fill="white">Impl: ColumnLike</text>
<text text-anchor="middle" x="305.5" y="-256.8" font-family="Times,serif" font-size="14.00" fill="white">o_comment NOT LIKE &#39;%unusual%requests%&#39;</text>
<text text-anchor="middle" x="305.5" y="-225.8" font-family="Times,serif" font-size="14.00" fill="white">41 ms 757 µs</text>
</a>
</g>
</g>
<!-- 139773489084752&#45;&gt;139773488427024 -->
<g id="edge9" class="edge">
<title>139773489084752&#45;&gt;139773488427024</title>
<path fill="none" stroke="white" stroke-width="7.92" d="M302.7,-302.35C301.51,-320.03 300.12,-340.5 298.96,-357.6"/>
<polygon fill="white" stroke="white" stroke-width="7.92" points="292.04,-357.31 298.28,-367.75 305.86,-358.24 292.04,-357.31"/>
<text text-anchor="middle" x="413.5" y="-338.8" font-family="Times,serif" font-size="14.00" fill="white">14,838,692 row(s)/229 chunk(s)</text>
</g>
<!-- 139773488612048 -->
<g id="node11" class="node">
<title>139773488612048</title>
<g id="a_node11"><a xlink:title="Output: 15000000 rows in 229 chunks filtered: 0, 314 µs 882 ns.">
<polygon fill="none" stroke="white" points="366.5,-133 244.5,-133 244.5,-19 366.5,-19 366.5,-133"/>
<text text-anchor="middle" x="305.5" y="-117.8" font-family="Times,serif" font-size="14.00" fill="white">GetTable</text>
<text text-anchor="middle" x="305.5" y="-102.8" font-family="Times,serif" font-size="14.00" fill="white">(orders)</text>
<text text-anchor="middle" x="305.5" y="-87.8" font-family="Times,serif" font-size="14.00" fill="white">pruned:</text>
<text text-anchor="middle" x="305.5" y="-72.8" font-family="Times,serif" font-size="14.00" fill="white">0/229 chunk(s)</text>
<text text-anchor="middle" x="305.5" y="-57.8" font-family="Times,serif" font-size="14.00" fill="white">6/9 column(s)</text>
<text text-anchor="middle" x="305.5" y="-26.8" font-family="Times,serif" font-size="14.00" fill="white">314 µs 882 ns</text>
</a>
</g>
</g>
<!-- 139773488612048&#45;&gt;139773489084752 -->
<g id="edge10" class="edge">
<title>139773488612048&#45;&gt;139773489084752</title>
<path fill="none" stroke="white" stroke-width="7.94" d="M305.5,-133.09C305.5,-156.93 305.5,-184.53 305.5,-207.81"/>
<polygon fill="white" stroke="white" stroke-width="7.94" points="298.55,-207.83 305.5,-217.83 312.45,-207.83 298.55,-207.83"/>
<text text-anchor="middle" x="419.5" y="-173.8" font-family="Times,serif" font-size="14.00" fill="white">15,000,000 row(s)/229 chunk(s)</text>
</g>
<!-- 0 -->
<g id="node12" class="node">
<title>0</title>
<polygon fill="none" stroke="white" points="385,-0.5 385,-151.5 736,-151.5 736,-0.5 385,-0.5"/>
<text text-anchor="middle" x="560.5" y="-136.3" font-family="Times,serif" font-size="14.00" fill="white">Total by operator</text>
<polyline fill="none" stroke="white" points="385,-128.5 736,-128.5 "/>
<text text-anchor="end" x="544" y="-113.3" font-family="Times,serif" font-size="14.00" fill="white">AggregateHash </text>
<text text-anchor="end" x="544" y="-98.3" font-family="Times,serif" font-size="14.00" fill="white"> JoinSimdSortMerge </text>
<text text-anchor="end" x="544" y="-83.3" font-family="Times,serif" font-size="14.00" fill="white"> TableScan </text>
<text text-anchor="end" x="544" y="-68.3" font-family="Times,serif" font-size="14.00" fill="white"> Validate </text>
<text text-anchor="end" x="544" y="-53.3" font-family="Times,serif" font-size="14.00" fill="white"> GetTable </text>
<text text-anchor="end" x="544" y="-38.3" font-family="Times,serif" font-size="14.00" fill="white"> Sort </text>
<text text-anchor="end" x="544" y="-23.3" font-family="Times,serif" font-size="14.00" fill="white"> Alias </text>
<text text-anchor="end" x="544" y="-8.3" font-family="Times,serif" font-size="14.00" fill="white">total</text>
<polyline fill="none" stroke="white" points="552,-0.5 552,-128.5 "/>
<text text-anchor="start" x="560" y="-113.3" font-family="Times,serif" font-size="14.00" fill="white">1 s 506 ms </text>
<text text-anchor="start" x="560" y="-98.3" font-family="Times,serif" font-size="14.00" fill="white"> 140 ms 130 µs </text>
<text text-anchor="start" x="560" y="-83.3" font-family="Times,serif" font-size="14.00" fill="white"> 41 ms 757 µs </text>
<text text-anchor="start" x="560" y="-68.3" font-family="Times,serif" font-size="14.00" fill="white"> 567 µs 114 ns </text>
<text text-anchor="start" x="560" y="-53.3" font-family="Times,serif" font-size="14.00" fill="white"> 353 µs 705 ns </text>
<text text-anchor="start" x="560" y="-38.3" font-family="Times,serif" font-size="14.00" fill="white"> 24 µs 38 ns </text>
<text text-anchor="start" x="560" y="-23.3" font-family="Times,serif" font-size="14.00" fill="white"> 20 µs 147 ns </text>
<text text-anchor="start" x="560" y="-8.3" font-family="Times,serif" font-size="14.00" fill="white"> 1 s 689 ms </text>
<polyline fill="none" stroke="white" points="683,-0.5 683,-128.5 "/>
<text text-anchor="start" x="691" y="-113.3" font-family="Times,serif" font-size="14.00" fill="white">89 %</text>
<text text-anchor="start" x="691" y="-98.3" font-family="Times,serif" font-size="14.00" fill="white">8 %</text>
<text text-anchor="start" x="691" y="-83.3" font-family="Times,serif" font-size="14.00" fill="white">2 %</text>
<text text-anchor="start" x="691" y="-68.3" font-family="Times,serif" font-size="14.00" fill="white">0 %</text>
<text text-anchor="start" x="691" y="-53.3" font-family="Times,serif" font-size="14.00" fill="white">0 %</text>
<text text-anchor="start" x="691" y="-38.3" font-family="Times,serif" font-size="14.00" fill="white">0 %</text>
<text text-anchor="start" x="691" y="-23.3" font-family="Times,serif" font-size="14.00" fill="white">0 %</text>
<text text-anchor="start" x="691" y="-8.3" font-family="Times,serif" font-size="14.00" fill="white"> </text>
</g>
</g>
</svg>
