<?xml version="1.0" encoding="UTF-8" standalone="no"?>
<!DOCTYPE svg PUBLIC "-//W3C//DTD SVG 1.1//EN"
 "http://www.w3.org/Graphics/SVG/1.1/DTD/svg11.dtd">
<!-- Generated by graphviz version 2.43.0 (0)
 -->
<!-- Title: G Pages: 1 -->
<svg width="1482pt" height="1691pt"
 viewBox="0.00 0.00 1481.50 1691.00" xmlns="http://www.w3.org/2000/svg" xmlns:xlink="http://www.w3.org/1999/xlink">
<g id="graph0" class="graph" transform="scale(1 1) rotate(0) translate(4 1687)">
<title>G</title>
<polygon fill="black" stroke="transparent" points="-4,4 -4,-1687 1477.5,-1687 1477.5,4 -4,4"/>
<text text-anchor="middle" x="319.5" y="-1667.8" font-family="Times,serif" font-size="14.00" fill="white">For tooltips with advanced information, hover your mouse over vertices or edge labels.</text>
<!-- 139773302040784 -->
<g id="node1" class="node">
<title>139773302040784</title>
<polygon fill="none" stroke="white" points="1152,-1628 829,-1628 829,-1590 1152,-1590 1152,-1628"/>
<text text-anchor="middle" x="990.5" y="-1612.8" font-family="Times,serif" font-size="14.00" fill="white">[Alias] n_name, SUM(l_extendedprice * (1 &#45;</text>
<text text-anchor="middle" x="990.5" y="-1597.8" font-family="Times,serif" font-size="14.00" fill="white">l_discount)) AS revenue</text>
</g>
<!-- 139773302041168 -->
<g id="node2" class="node">
<title>139773302041168</title>
<polygon fill="none" stroke="white" points="1162,-1539 819,-1539 819,-1501 1162,-1501 1162,-1539"/>
<text text-anchor="middle" x="990.5" y="-1523.8" font-family="Times,serif" font-size="14.00" fill="white">[Sort] SUM(l_extendedprice * (1 &#45; l_discount))</text>
<text text-anchor="middle" x="990.5" y="-1508.8" font-family="Times,serif" font-size="14.00" fill="white">(Descending)</text>
</g>
<!-- 139773302041168&#45;&gt;139773302040784 -->
<g id="edge1" class="edge">
<title>139773302041168&#45;&gt;139773302040784</title>
<path fill="none" stroke="white" d="M990.5,-1539.03C990.5,-1550.81 990.5,-1566.44 990.5,-1579.84"/>
<polygon fill="white" stroke="white" points="987,-1580 990.5,-1590 994,-1580 987,-1580"/>
<g id="a_edge1&#45;label"><a xlink:title="Output Expressions: &#10; (1) n_name&#10; (2) SUM(l_extendedprice * (1 &#45; l_discount)) NULL&#10;&#10;Unique Column Combinations: &#10; (1) {n_name}&#10;&#10;Functional Dependencies (trivial): &#10; (1) {n_name} =&gt; {SUM(l_extendedprice * (1 &#45; l_discount))}&#10;&#10;Functional Dependencies (non&#45;trivial): &#10; &lt;none&gt;">
<text text-anchor="middle" x="1114" y="-1560.8" font-family="Times,serif" font-size="14.00" fill="white"> 2,233,427.0 row(s) | 100.0% estd.</text>
</a>
</g>
</g>
<!-- 139773302041552 -->
<g id="node3" class="node">
<title>139773302041552</title>
<polygon fill="none" stroke="white" points="1157.5,-1450 823.5,-1450 823.5,-1412 1157.5,-1412 1157.5,-1450"/>
<text text-anchor="middle" x="990.5" y="-1434.8" font-family="Times,serif" font-size="14.00" fill="white">[Aggregate] GroupBy: [n_name] Aggregates:</text>
<text text-anchor="middle" x="990.5" y="-1419.8" font-family="Times,serif" font-size="14.00" fill="white">[SUM(l_extendedprice * (1 &#45; l_discount))]</text>
</g>
<!-- 139773302041552&#45;&gt;139773302041168 -->
<g id="edge2" class="edge">
<title>139773302041552&#45;&gt;139773302041168</title>
<path fill="none" stroke="white" d="M990.5,-1450.03C990.5,-1461.81 990.5,-1477.44 990.5,-1490.84"/>
<polygon fill="white" stroke="white" points="987,-1491 990.5,-1501 994,-1491 987,-1491"/>
<g id="a_edge2&#45;label"><a xlink:title="Output Expressions: &#10; (1) n_name&#10; (2) SUM(l_extendedprice * (1 &#45; l_discount)) NULL&#10;&#10;Unique Column Combinations: &#10; (1) {n_name}&#10;&#10;Functional Dependencies (trivial): &#10; (1) {n_name} =&gt; {SUM(l_extendedprice * (1 &#45; l_discount))}&#10;&#10;Functional Dependencies (non&#45;trivial): &#10; &lt;none&gt;">
<text text-anchor="middle" x="1114" y="-1471.8" font-family="Times,serif" font-size="14.00" fill="white"> 2,233,427.0 row(s) | 100.0% estd.</text>
</a>
</g>
</g>
<!-- 139773301881712 -->
<g id="node4" class="node">
<title>139773301881712</title>
<polygon fill="none" stroke="white" points="1162,-1361 819,-1361 819,-1323 1162,-1323 1162,-1361"/>
<text text-anchor="middle" x="990.5" y="-1345.8" font-family="Times,serif" font-size="14.00" fill="white">[Projection] l_extendedprice * (1 &#45; l_discount),</text>
<text text-anchor="middle" x="990.5" y="-1330.8" font-family="Times,serif" font-size="14.00" fill="white">n_name</text>
</g>
<!-- 139773301881712&#45;&gt;139773302041552 -->
<g id="edge3" class="edge">
<title>139773301881712&#45;&gt;139773302041552</title>
<path fill="none" stroke="white" d="M990.5,-1361.03C990.5,-1372.81 990.5,-1388.44 990.5,-1401.84"/>
<polygon fill="white" stroke="white" points="987,-1402 990.5,-1412 994,-1402 987,-1402"/>
<g id="a_edge3&#45;label"><a xlink:title="Output Expressions: &#10; (1) l_extendedprice * (1 &#45; l_discount)&#10; (2) n_name&#10;&#10;Unique Column Combinations: &#10; &lt;none&gt;&#10;&#10;Functional Dependencies (trivial): &#10; &lt;none&gt;&#10;&#10;Functional Dependencies (non&#45;trivial): &#10; &lt;none&gt;">
<text text-anchor="middle" x="1114" y="-1382.8" font-family="Times,serif" font-size="14.00" fill="white"> 2,233,427.0 row(s) | 100.0% estd.</text>
</a>
</g>
</g>
<!-- 139773302041936 -->
<g id="node5" class="node">
<title>139773302041936</title>
<polygon fill="none" stroke="white" points="1135,-1272 846,-1272 846,-1236 1135,-1236 1135,-1272"/>
<text text-anchor="middle" x="990.5" y="-1250.3" font-family="Times,serif" font-size="14.00" fill="white">[Predicate] c_nationkey = s_nationkey</text>
</g>
<!-- 139773302041936&#45;&gt;139773301881712 -->
<g id="edge4" class="edge">
<title>139773302041936&#45;&gt;139773301881712</title>
<path fill="none" stroke="white" d="M990.5,-1272.4C990.5,-1283.94 990.5,-1299.35 990.5,-1312.64"/>
<polygon fill="white" stroke="white" points="987,-1312.73 990.5,-1322.73 994,-1312.73 987,-1312.73"/>
<g id="a_edge4&#45;label"><a xlink:title="Output Expressions: &#10; (1) l_orderkey&#10; (2) l_suppkey&#10; (3) l_extendedprice&#10; (4) l_discount&#10; (5) s_suppkey&#10; (6) s_nationkey&#10; (7) n_nationkey&#10; (8) n_name&#10; (9) n_regionkey&#10; (10) o_orderkey&#10; (11) o_custkey&#10; (12) o_orderdate&#10; (13) c_custkey&#10; (14) c_nationkey&#10;&#10;Unique Column Combinations: &#10; &lt;none&gt;&#10;&#10;Functional Dependencies (trivial): &#10; &lt;none&gt;&#10;&#10;Functional Dependencies (non&#45;trivial): &#10; (1) {o_orderkey} =&gt; {o_custkey, o_orderdate}&#10; (2) {n_nationkey} =&gt; {n_name, n_regionkey, s_nationkey}&#10; (3) {s_suppkey} =&gt; {n_nationkey, n_name, n_regionkey, s_nationkey}&#10; (4) {s_nationkey} =&gt; {n_nationkey}&#10; (5) {c_custkey} =&gt; {c_nationkey}&#10;">
<text text-anchor="middle" x="1109.5" y="-1293.8" font-family="Times,serif" font-size="14.00" fill="white"> 2,233,427.0 row(s) | 99.5% estd.</text>
</a>
</g>
</g>
<!-- 139773302042320 -->
<g id="node6" class="node">
<title>139773302042320</title>
<polygon fill="none" stroke="white" points="1150.5,-1185 830.5,-1185 830.5,-1149 1150.5,-1149 1150.5,-1185"/>
<text text-anchor="middle" x="990.5" y="-1163.3" font-family="Times,serif" font-size="14.00" fill="white">[Join] Mode: Inner [c_custkey = o_custkey]</text>
</g>
<!-- 139773302042320&#45;&gt;139773302041936 -->
<g id="edge5" class="edge">
<title>139773302042320&#45;&gt;139773302041936</title>
<path fill="none" stroke="white" d="M990.5,-1185.2C990.5,-1196.84 990.5,-1212.45 990.5,-1225.76"/>
<polygon fill="white" stroke="white" points="987,-1225.82 990.5,-1235.82 994,-1225.82 987,-1225.82"/>
<g id="a_edge5&#45;label"><a xlink:title="Output Expressions: &#10; (1) l_orderkey&#10; (2) l_suppkey&#10; (3) l_extendedprice&#10; (4) l_discount&#10; (5) s_suppkey&#10; (6) s_nationkey&#10; (7) n_nationkey&#10; (8) n_name&#10; (9) n_regionkey&#10; (10) o_orderkey&#10; (11) o_custkey&#10; (12) o_orderdate&#10; (13) c_custkey&#10; (14) c_nationkey&#10;&#10;Unique Column Combinations: &#10; &lt;none&gt;&#10;&#10;Functional Dependencies (trivial): &#10; &lt;none&gt;&#10;&#10;Functional Dependencies (non&#45;trivial): &#10; (1) {o_orderkey} =&gt; {o_custkey, o_orderdate}&#10; (2) {n_nationkey} =&gt; {n_name, n_regionkey, s_nationkey}&#10; (3) {s_suppkey} =&gt; {n_nationkey, n_name, n_regionkey, s_nationkey}&#10; (4) {s_nationkey} =&gt; {n_nationkey}&#10; (5) {c_custkey} =&gt; {c_nationkey}&#10;">
<text text-anchor="middle" x="1105" y="-1206.8" font-family="Times,serif" font-size="14.00" fill="white"> 2,244,023.0 row(s) | 0.0% estd.</text>
</a>
</g>
</g>
<!-- 139773302037520 -->
<g id="node7" class="node">
<title>139773302037520</title>
<polygon fill="none" stroke="white" points="1019,-1098 684,-1098 684,-1062 1019,-1062 1019,-1098"/>
<text text-anchor="middle" x="851.5" y="-1076.3" font-family="Times,serif" font-size="14.00" fill="white">[Join] Mode: Inner [l_orderkey = o_orderkey]</text>
</g>
<!-- 139773302037520&#45;&gt;139773302042320 -->
<g id="edge6" class="edge">
<title>139773302037520&#45;&gt;139773302042320</title>
<path fill="none" stroke="white" d="M861.46,-1098.38C868.39,-1109.1 878.52,-1122.4 890.5,-1131 897.96,-1136.36 906.32,-1140.95 914.94,-1144.89"/>
<polygon fill="white" stroke="white" points="915.16,-1144.98 913.79,-1148.2 924.36,-1148.9 915.16,-1144.98"/>
<g id="a_edge6&#45;label"><a xlink:title="Output Expressions: &#10; (1) l_orderkey&#10; (2) l_suppkey&#10; (3) l_extendedprice&#10; (4) l_discount&#10; (5) s_suppkey&#10; (6) s_nationkey&#10; (7) n_nationkey&#10; (8) n_name&#10; (9) n_regionkey&#10; (10) o_orderkey&#10; (11) o_custkey&#10; (12) o_orderdate&#10;&#10;Unique Column Combinations: &#10; &lt;none&gt;&#10;&#10;Functional Dependencies (trivial): &#10; &lt;none&gt;&#10;&#10;Functional Dependencies (non&#45;trivial): &#10; (1) {s_nationkey} =&gt; {n_nationkey}&#10; (2) {s_suppkey} =&gt; {n_nationkey, n_name, n_regionkey, s_nationkey}&#10; (3) {n_nationkey} =&gt; {n_name, n_regionkey, s_nationkey}&#10; (4) {o_orderkey} =&gt; {o_custkey, o_orderdate}&#10;">
<text text-anchor="middle" x="1005" y="-1119.8" font-family="Times,serif" font-size="14.00" fill="white"> 2,244,022.8 row(s) | 0.0% estd.</text>
</a>
</g>
</g>
<!-- 139773302037904 -->
<g id="node8" class="node">
<title>139773302037904</title>
<polygon fill="none" stroke="white" points="1014.5,-1010 688.5,-1010 688.5,-974 1014.5,-974 1014.5,-1010"/>
<text text-anchor="middle" x="851.5" y="-988.3" font-family="Times,serif" font-size="14.00" fill="white">[Join] Mode: Inner [l_suppkey = s_suppkey]</text>
</g>
<!-- 139773302037904&#45;&gt;139773302037520 -->
<g id="edge7" class="edge">
<title>139773302037904&#45;&gt;139773302037520</title>
<path fill="none" stroke="white" d="M851.5,-1010.4C851.5,-1022.25 851.5,-1038.18 851.5,-1051.71"/>
<polygon fill="white" stroke="white" points="851.5,-1051.92 848,-1051.92 851.5,-1061.92 851.5,-1051.92"/>
<g id="a_edge7&#45;label"><a xlink:title="Output Expressions: &#10; (1) l_orderkey&#10; (2) l_suppkey&#10; (3) l_extendedprice&#10; (4) l_discount&#10; (5) s_suppkey&#10; (6) s_nationkey&#10; (7) n_nationkey&#10; (8) n_name&#10; (9) n_regionkey&#10;&#10;Unique Column Combinations: &#10; &lt;none&gt;&#10;&#10;Functional Dependencies (trivial): &#10; &lt;none&gt;&#10;&#10;Functional Dependencies (non&#45;trivial): &#10; (1) {n_nationkey} =&gt; {n_name, n_regionkey, s_nationkey}&#10; (2) {s_suppkey} =&gt; {n_nationkey, n_name, n_regionkey, s_nationkey}&#10; (3) {s_nationkey} =&gt; {n_nationkey}&#10;">
<text text-anchor="middle" x="966" y="-1032.8" font-family="Times,serif" font-size="14.00" fill="white"> 2,244,023.0 row(s) | 0.0% estd.</text>
</a>
</g>
</g>
<!-- 139773301881392 -->
<g id="node9" class="node">
<title>139773301881392</title>
<polygon fill="none" stroke="white" points="894,-922 809,-922 809,-886 894,-886 894,-922"/>
<text text-anchor="middle" x="851.5" y="-900.3" font-family="Times,serif" font-size="14.00" fill="white">[Validate]</text>
</g>
<!-- 139773301881392&#45;&gt;139773302037904 -->
<g id="edge8" class="edge">
<title>139773301881392&#45;&gt;139773302037904</title>
<path fill="none" stroke="white" d="M851.5,-922.4C851.5,-934.25 851.5,-950.18 851.5,-963.71"/>
<polygon fill="white" stroke="white" points="851.5,-963.92 848,-963.92 851.5,-973.92 851.5,-963.92"/>
<g id="a_edge8&#45;label"><a xlink:title="Output Expressions: &#10; (1) l_orderkey&#10; (2) l_suppkey&#10; (3) l_extendedprice&#10; (4) l_discount&#10;&#10;Unique Column Combinations: &#10; &lt;none&gt;&#10;&#10;Functional Dependencies (trivial): &#10; &lt;none&gt;&#10;&#10;Functional Dependencies (non&#45;trivial): &#10; &lt;none&gt;">
<text text-anchor="middle" x="975" y="-943.8" font-family="Times,serif" font-size="14.00" fill="white"> 2,244,022.8 row(s) | 100.0% estd.</text>
</a>
</g>
</g>
<!-- 139773302038288 -->
<g id="node10" class="node">
<title>139773302038288</title>
<polygon fill="none" stroke="white" points="1017,-835 684,-835 684,-797 1017,-797 1017,-835"/>
<text text-anchor="middle" x="850.5" y="-819.8" font-family="Times,serif" font-size="14.00" fill="white">[Join] Mode: Semi [l_orderkey = o_orderkey]</text>
<text text-anchor="middle" x="850.5" y="-804.8" font-family="Times,serif" font-size="14.00" fill="white">(SemiJoinReductionRule)</text>
</g>
<!-- 139773302038288&#45;&gt;139773301881392 -->
<g id="edge9" class="edge">
<title>139773302038288&#45;&gt;139773301881392</title>
<path fill="none" stroke="white" d="M850.71,-835.24C850.85,-847.07 851.03,-862.68 851.19,-875.95"/>
<polygon fill="white" stroke="white" points="847.69,-876 851.3,-885.96 854.69,-875.92 847.69,-876"/>
<g id="a_edge9&#45;label"><a xlink:title="Output Expressions: &#10; (1) l_orderkey&#10; (2) l_suppkey&#10; (3) l_extendedprice&#10; (4) l_discount&#10;&#10;Unique Column Combinations: &#10; &lt;none&gt;&#10;&#10;Functional Dependencies (trivial): &#10; &lt;none&gt;&#10;&#10;Functional Dependencies (non&#45;trivial): &#10; &lt;none&gt;">
<text text-anchor="middle" x="970.5" y="-856.8" font-family="Times,serif" font-size="14.00" fill="white"> 2,244,022.8 row(s) | 18.7% estd.</text>
</a>
</g>
</g>
<!-- 139773302036560 -->
<g id="node11" class="node">
<title>139773302036560</title>
<polygon fill="none" stroke="white" points="1012,-746 689,-746 689,-708 1012,-708 1012,-746"/>
<text text-anchor="middle" x="850.5" y="-730.8" font-family="Times,serif" font-size="14.00" fill="white">[Join] Mode: Semi [l_suppkey = s_suppkey]</text>
<text text-anchor="middle" x="850.5" y="-715.8" font-family="Times,serif" font-size="14.00" fill="white">(SemiJoinReductionRule)</text>
</g>
<!-- 139773302036560&#45;&gt;139773302038288 -->
<g id="edge10" class="edge">
<title>139773302036560&#45;&gt;139773302038288</title>
<path fill="none" stroke="white" stroke-width="4.03" d="M850.5,-746.03C850.5,-757.81 850.5,-773.44 850.5,-786.84"/>
<polygon fill="white" stroke="white" stroke-width="4.03" points="850.5,-787 846.97,-787 850.5,-797 850.5,-787"/>
<g id="a_edge10&#45;label"><a xlink:title="Output Expressions: &#10; (1) l_orderkey&#10; (2) l_suppkey&#10; (3) l_extendedprice&#10; (4) l_discount&#10;&#10;Unique Column Combinations: &#10; &lt;none&gt;&#10;&#10;Functional Dependencies (trivial): &#10; &lt;none&gt;&#10;&#10;Functional Dependencies (non&#45;trivial): &#10; &lt;none&gt;">
<text text-anchor="middle" x="974" y="-767.8" font-family="Times,serif" font-size="14.00" fill="white"> 11,997,209.0 row(s) | 20.0% estd.</text>
</a>
</g>
</g>
<!-- 139731042747024 -->
<g id="node12" class="node">
<title>139731042747024</title>
<polygon fill="none" stroke="white" points="773.5,-657 433.5,-657 433.5,-619 773.5,-619 773.5,-657"/>
<text text-anchor="middle" x="603.5" y="-641.8" font-family="Times,serif" font-size="14.00" fill="white">[StoredTable] Name: &#39;lineitem&#39; pruned: 0/916</text>
<text text-anchor="middle" x="603.5" y="-626.8" font-family="Times,serif" font-size="14.00" fill="white">chunk(s), 12/16 column(s)</text>
</g>
<!-- 139731042747024&#45;&gt;139773302036560 -->
<g id="edge11" class="edge">
<title>139731042747024&#45;&gt;139773302036560</title>
<path fill="none" stroke="white" stroke-width="8" d="M601,-657.4C600.61,-668.31 602.21,-681.61 610.5,-690 621.82,-701.46 647.79,-709.29 678.66,-714.63"/>
<polygon fill="white" stroke="white" stroke-width="8" points="678.96,-714.68 677.85,-721.59 688.84,-716.28 678.96,-714.68"/>
<g id="a_edge11&#45;label"><a xlink:title="Output Expressions: &#10; (1) l_orderkey&#10; (2) l_suppkey&#10; (3) l_extendedprice&#10; (4) l_discount&#10;&#10;Unique Column Combinations: &#10; &lt;none&gt;&#10;&#10;Functional Dependencies (trivial): &#10; &lt;none&gt;&#10;&#10;Functional Dependencies (non&#45;trivial): &#10; &lt;none&gt;">
<text text-anchor="middle" x="738.5" y="-678.8" font-family="Times,serif" font-size="14.00" fill="white"> 59,986,052.0 row(s) | 100.0% estd.</text>
</a>
</g>
</g>
<!-- 139773302037136 -->
<g id="node13" class="node">
<title>139773302037136</title>
<polygon fill="none" stroke="white" points="1216,-656 865,-656 865,-620 1216,-620 1216,-656"/>
<text text-anchor="middle" x="1040.5" y="-634.3" font-family="Times,serif" font-size="14.00" fill="white">[Join] Mode: Inner [s_nationkey = n_nationkey]</text>
</g>
<!-- 139773302037136&#45;&gt;139773302037904 -->
<g id="edge13" class="edge">
<title>139773302037136&#45;&gt;139773302037904</title>
<path fill="none" stroke="white" d="M1078.24,-656.17C1086.19,-661.26 1093.87,-667.52 1099.5,-675 1113.64,-693.78 1113.5,-702.49 1113.5,-726 1113.5,-726 1113.5,-726 1113.5,-905 1113.5,-928.08 1116.83,-939.77 1099.5,-955 1092.45,-961.2 1061.98,-967.3 1024.67,-972.68"/>
<polygon fill="white" stroke="white" points="1014.52,-974.1 1024.91,-976.18 1024.42,-972.72 1014.52,-974.1"/>
<g id="a_edge13&#45;label"><a xlink:title="Output Expressions: &#10; (1) s_suppkey&#10; (2) s_nationkey&#10; (3) n_nationkey&#10; (4) n_name&#10; (5) n_regionkey&#10;&#10;Unique Column Combinations: &#10; (1) {s_suppkey}&#10;&#10;Functional Dependencies (trivial): &#10; (1) {s_suppkey} =&gt; {n_nationkey, n_name, n_regionkey, s_nationkey}&#10;&#10;Functional Dependencies (non&#45;trivial): &#10; (1) {n_nationkey} =&gt; {n_name, n_regionkey}&#10;">
<text text-anchor="middle" x="1221.5" y="-812.3" font-family="Times,serif" font-size="14.00" fill="white"> 20,000.0 row(s) | 20.0% estd.</text>
</a>
</g>
</g>
<!-- 139773302037136&#45;&gt;139773302036560 -->
<g id="edge12" class="edge">
<title>139773302037136&#45;&gt;139773302036560</title>
<path fill="none" stroke="white" d="M920.57,-656.13C907.4,-660.97 894.72,-667.14 883.5,-675 874.91,-681.02 868.01,-690.06 862.79,-698.86"/>
<polygon fill="white" stroke="white" points="857.95,-707.81 865.79,-700.68 862.71,-699.02 857.95,-707.81"/>
<g id="a_edge12&#45;label"><a xlink:title="Output Expressions: &#10; (1) s_suppkey&#10; (2) s_nationkey&#10; (3) n_nationkey&#10; (4) n_name&#10; (5) n_regionkey&#10;&#10;Unique Column Combinations: &#10; (1) {s_suppkey}&#10;&#10;Functional Dependencies (trivial): &#10; (1) {s_suppkey} =&gt; {n_nationkey, n_name, n_regionkey, s_nationkey}&#10;&#10;Functional Dependencies (non&#45;trivial): &#10; (1) {n_nationkey} =&gt; {n_name, n_regionkey}&#10;">
<text text-anchor="middle" x="991.5" y="-678.8" font-family="Times,serif" font-size="14.00" fill="white"> 20,000.0 row(s) | 20.0% estd.</text>
</a>
</g>
</g>
<!-- 139773301881072 -->
<g id="node14" class="node">
<title>139773301881072</title>
<polygon fill="none" stroke="white" points="1238,-567 1153,-567 1153,-531 1238,-531 1238,-567"/>
<text text-anchor="middle" x="1195.5" y="-545.3" font-family="Times,serif" font-size="14.00" fill="white">[Validate]</text>
</g>
<!-- 139773301881072&#45;&gt;139773302037136 -->
<g id="edge14" class="edge">
<title>139773301881072&#45;&gt;139773302037136</title>
<path fill="none" stroke="white" d="M1164.88,-567.19C1140.49,-580.88 1106.18,-600.13 1079.78,-614.95"/>
<polygon fill="white" stroke="white" points="1079.52,-615.1 1077.8,-612.05 1070.8,-620 1079.52,-615.1"/>
<g id="a_edge14&#45;label"><a xlink:title="Output Expressions: &#10; (1) s_suppkey&#10; (2) s_nationkey&#10;&#10;Unique Column Combinations: &#10; (1) {s_suppkey}&#10;&#10;Functional Dependencies (trivial): &#10; (1) {s_suppkey} =&gt; {s_nationkey}&#10;&#10;Functional Dependencies (non&#45;trivial): &#10; &lt;none&gt;">
<text text-anchor="middle" x="1240" y="-589.8" font-family="Times,serif" font-size="14.00" fill="white"> 20,000.0 row(s) | 100.0% estd.</text>
</a>
</g>
</g>
<!-- 139773302035600 -->
<g id="node15" class="node">
<title>139773302035600</title>
<polygon fill="none" stroke="white" points="1396,-479 1047,-479 1047,-441 1396,-441 1396,-479"/>
<text text-anchor="middle" x="1221.5" y="-463.8" font-family="Times,serif" font-size="14.00" fill="white">[Join] Mode: Semi [s_nationkey = n_nationkey]</text>
<text text-anchor="middle" x="1221.5" y="-448.8" font-family="Times,serif" font-size="14.00" fill="white">(SemiJoinReductionRule)</text>
</g>
<!-- 139773302035600&#45;&gt;139773301881072 -->
<g id="edge15" class="edge">
<title>139773302035600&#45;&gt;139773301881072</title>
<path fill="none" stroke="white" d="M1216.11,-479.03C1212.49,-491.16 1207.64,-507.38 1203.56,-521.05"/>
<polygon fill="white" stroke="white" points="1200.12,-520.3 1200.61,-530.88 1206.83,-522.31 1200.12,-520.3"/>
<g id="a_edge15&#45;label"><a xlink:title="Output Expressions: &#10; (1) s_suppkey&#10; (2) s_nationkey&#10;&#10;Unique Column Combinations: &#10; (1) {s_suppkey}&#10;&#10;Functional Dependencies (trivial): &#10; (1) {s_suppkey} =&gt; {s_nationkey}&#10;&#10;Functional Dependencies (non&#45;trivial): &#10; &lt;none&gt;">
<text text-anchor="middle" x="1317.5" y="-500.8" font-family="Times,serif" font-size="14.00" fill="white"> 20,000.0 row(s) | 20.0% estd.</text>
</a>
</g>
</g>
<!-- 139731042747344 -->
<g id="node16" class="node">
<title>139731042747344</title>
<polygon fill="none" stroke="white" points="1415.5,-390 1093.5,-390 1093.5,-352 1415.5,-352 1415.5,-390"/>
<text text-anchor="middle" x="1254.5" y="-374.8" font-family="Times,serif" font-size="14.00" fill="white">[StoredTable] Name: &#39;supplier&#39; pruned: 0/2</text>
<text text-anchor="middle" x="1254.5" y="-359.8" font-family="Times,serif" font-size="14.00" fill="white">chunk(s), 5/7 column(s)</text>
</g>
<!-- 139731042747344&#45;&gt;139773302035600 -->
<g id="edge16" class="edge">
<title>139731042747344&#45;&gt;139773302035600</title>
<path fill="none" stroke="white" d="M1247.66,-390.03C1243.1,-402.04 1237.03,-418.06 1231.88,-431.64"/>
<polygon fill="white" stroke="white" points="1231.88,-431.65 1228.6,-430.41 1228.33,-441 1231.88,-431.65"/>
<g id="a_edge16&#45;label"><a xlink:title="Output Expressions: &#10; (1) s_suppkey&#10; (2) s_nationkey&#10;&#10;Unique Column Combinations: &#10; (1) {s_suppkey}&#10;&#10;Functional Dependencies (trivial): &#10; (1) {s_suppkey} =&gt; {s_nationkey}&#10;&#10;Functional Dependencies (non&#45;trivial): &#10; &lt;none&gt;">
<text text-anchor="middle" x="1356.5" y="-411.8" font-family="Times,serif" font-size="14.00" fill="white"> 100,000.0 row(s) | 100.0% estd.</text>
</a>
</g>
</g>
<!-- 139773301880912 -->
<g id="node17" class="node">
<title>139773301880912</title>
<polygon fill="none" stroke="white" points="1066,-389 981,-389 981,-353 1066,-353 1066,-389"/>
<text text-anchor="middle" x="1023.5" y="-367.3" font-family="Times,serif" font-size="14.00" fill="white">[Validate]</text>
</g>
<!-- 139773301880912&#45;&gt;139773302037136 -->
<g id="edge18" class="edge">
<title>139773301880912&#45;&gt;139773302037136</title>
<path fill="none" stroke="white" d="M1021.52,-389.28C1018.8,-415.75 1014.65,-467.9 1018.5,-512 1021.47,-546 1028.9,-584.61 1034.3,-609.81"/>
<polygon fill="white" stroke="white" points="1036.48,-619.74 1037.76,-609.22 1034.34,-609.97 1036.48,-619.74"/>
<g id="a_edge18&#45;label"><a xlink:title="Output Expressions: &#10; (1) n_nationkey&#10; (2) n_name&#10; (3) n_regionkey&#10;&#10;Unique Column Combinations: &#10; (1) {n_nationkey}&#10;&#10;Functional Dependencies (trivial): &#10; (1) {n_nationkey} =&gt; {n_name, n_regionkey}&#10;&#10;Functional Dependencies (non&#45;trivial): &#10; &lt;none&gt;">
<text text-anchor="middle" x="1110.5" y="-500.8" font-family="Times,serif" font-size="14.00" fill="white"> 5.0 row(s) | 100.0% estd.</text>
</a>
</g>
</g>
<!-- 139773301880912&#45;&gt;139773302035600 -->
<g id="edge17" class="edge">
<title>139773301880912&#45;&gt;139773302035600</title>
<path fill="none" stroke="white" d="M1027.34,-389.19C1030.75,-400.47 1036.89,-414.64 1047.5,-423 1055.06,-428.96 1069.29,-434.16 1086.47,-438.6"/>
<polygon fill="white" stroke="white" points="1096.3,-441 1087.42,-435.23 1086.59,-438.63 1096.3,-441"/>
<g id="a_edge17&#45;label"><a xlink:title="Output Expressions: &#10; (1) n_nationkey&#10; (2) n_name&#10; (3) n_regionkey&#10;&#10;Unique Column Combinations: &#10; (1) {n_nationkey}&#10;&#10;Functional Dependencies (trivial): &#10; (1) {n_nationkey} =&gt; {n_name, n_regionkey}&#10;&#10;Functional Dependencies (non&#45;trivial): &#10; &lt;none&gt;">
<text text-anchor="middle" x="1139.5" y="-411.8" font-family="Times,serif" font-size="14.00" fill="white"> 5.0 row(s) | 100.0% estd.</text>
</a>
</g>
</g>
<!-- 139773302035984 -->
<g id="node18" class="node">
<title>139773302035984</title>
<polygon fill="none" stroke="white" points="1198.5,-301 848.5,-301 848.5,-265 1198.5,-265 1198.5,-301"/>
<text text-anchor="middle" x="1023.5" y="-279.3" font-family="Times,serif" font-size="14.00" fill="white">[Join] Mode: Semi [n_regionkey = r_regionkey]</text>
</g>
<!-- 139773302035984&#45;&gt;139773301880912 -->
<g id="edge19" class="edge">
<title>139773302035984&#45;&gt;139773301880912</title>
<path fill="none" stroke="white" d="M1023.5,-301.4C1023.5,-313.25 1023.5,-329.18 1023.5,-342.71"/>
<polygon fill="white" stroke="white" points="1020,-342.92 1023.5,-352.92 1027,-342.92 1020,-342.92"/>
<g id="a_edge19&#45;label"><a xlink:title="Output Expressions: &#10; (1) n_nationkey&#10; (2) n_name&#10; (3) n_regionkey&#10;&#10;Unique Column Combinations: &#10; (1) {n_nationkey}&#10;&#10;Functional Dependencies (trivial): &#10; (1) {n_nationkey} =&gt; {n_name, n_regionkey}&#10;&#10;Functional Dependencies (non&#45;trivial): &#10; &lt;none&gt;">
<text text-anchor="middle" x="1111" y="-322.8" font-family="Times,serif" font-size="14.00" fill="white"> 5.0 row(s) | 20.0% estd.</text>
</a>
</g>
</g>
<!-- 139731042747664 -->
<g id="node19" class="node">
<title>139731042747664</title>
<polygon fill="none" stroke="white" points="1104.5,-214 726.5,-214 726.5,-176 1104.5,-176 1104.5,-214"/>
<text text-anchor="middle" x="915.5" y="-198.8" font-family="Times,serif" font-size="14.00" fill="white">[StoredTable] Name: &#39;nation&#39; pruned: 0/1 chunk(s),</text>
<text text-anchor="middle" x="915.5" y="-183.8" font-family="Times,serif" font-size="14.00" fill="white">1/4 column(s)</text>
</g>
<!-- 139731042747664&#45;&gt;139773302035984 -->
<g id="edge20" class="edge">
<title>139731042747664&#45;&gt;139773302035984</title>
<path fill="none" stroke="white" d="M918.01,-214.04C920.36,-224.82 924.88,-238.1 933.5,-247 938.28,-251.93 943.84,-256.19 949.8,-259.85"/>
<polygon fill="white" stroke="white" points="950.02,-259.97 948.33,-263.04 958.78,-264.8 950.02,-259.97"/>
<g id="a_edge20&#45;label"><a xlink:title="Output Expressions: &#10; (1) n_nationkey&#10; (2) n_name&#10; (3) n_regionkey&#10;&#10;Unique Column Combinations: &#10; (1) {n_nationkey}&#10;&#10;Functional Dependencies (trivial): &#10; (1) {n_nationkey} =&gt; {n_name, n_regionkey}&#10;&#10;Functional Dependencies (non&#45;trivial): &#10; &lt;none&gt;">
<text text-anchor="middle" x="1030" y="-235.8" font-family="Times,serif" font-size="14.00" fill="white"> 25.0 row(s) | 100.0% estd.</text>
</a>
</g>
</g>
<!-- 139774008976976 -->
<g id="node20" class="node">
<title>139774008976976</title>
<polygon fill="none" stroke="white" points="1208,-213 1123,-213 1123,-177 1208,-177 1208,-213"/>
<text text-anchor="middle" x="1165.5" y="-191.3" font-family="Times,serif" font-size="14.00" fill="white">[Validate]</text>
</g>
<!-- 139774008976976&#45;&gt;139773302035984 -->
<g id="edge21" class="edge">
<title>139774008976976&#45;&gt;139773302035984</title>
<path fill="none" stroke="white" d="M1155.94,-213.28C1149.05,-224.32 1138.81,-238.16 1126.5,-247 1119.01,-252.38 1110.63,-256.98 1101.97,-260.9"/>
<polygon fill="white" stroke="white" points="1092.49,-264.9 1103.06,-264.24 1101.7,-261.01 1092.49,-264.9"/>
<g id="a_edge21&#45;label"><a xlink:title="Output Expressions: &#10; (1) r_regionkey&#10; (2) r_name&#10;&#10;Unique Column Combinations: &#10; (1) {r_regionkey}&#10;&#10;Functional Dependencies (trivial): &#10; (1) {r_regionkey} =&gt; {r_name}&#10;&#10;Functional Dependencies (non&#45;trivial): &#10; &lt;none&gt;">
<text text-anchor="middle" x="1234.5" y="-235.8" font-family="Times,serif" font-size="14.00" fill="white"> 1.0 row(s) | 100.0% estd.</text>
</a>
</g>
</g>
<!-- 139773302035792 -->
<g id="node21" class="node">
<title>139773302035792</title>
<polygon fill="none" stroke="white" points="1283.5,-125 1047.5,-125 1047.5,-89 1283.5,-89 1283.5,-125"/>
<text text-anchor="middle" x="1165.5" y="-103.3" font-family="Times,serif" font-size="14.00" fill="white">[Predicate] r_name = &#39;AFRICA&#39;</text>
</g>
<!-- 139773302035792&#45;&gt;139774008976976 -->
<g id="edge22" class="edge">
<title>139773302035792&#45;&gt;139774008976976</title>
<path fill="none" stroke="white" d="M1165.5,-125.4C1165.5,-137.25 1165.5,-153.18 1165.5,-166.71"/>
<polygon fill="white" stroke="white" points="1162,-166.92 1165.5,-176.92 1169,-166.92 1162,-166.92"/>
<g id="a_edge22&#45;label"><a xlink:title="Output Expressions: &#10; (1) r_regionkey&#10; (2) r_name&#10;&#10;Unique Column Combinations: &#10; (1) {r_regionkey}&#10;&#10;Functional Dependencies (trivial): &#10; (1) {r_regionkey} =&gt; {r_name}&#10;&#10;Functional Dependencies (non&#45;trivial): &#10; &lt;none&gt;">
<text text-anchor="middle" x="1253" y="-146.8" font-family="Times,serif" font-size="14.00" fill="white"> 1.0 row(s) | 20.0% estd.</text>
</a>
</g>
</g>
<!-- 139731042747984 -->
<g id="node22" class="node">
<title>139731042747984</title>
<polygon fill="none" stroke="white" points="1355,-38 976,-38 976,0 1355,0 1355,-38"/>
<text text-anchor="middle" x="1165.5" y="-22.8" font-family="Times,serif" font-size="14.00" fill="white">[StoredTable] Name: &#39;region&#39; pruned: 0/1 chunk(s),</text>
<text text-anchor="middle" x="1165.5" y="-7.8" font-family="Times,serif" font-size="14.00" fill="white">1/3 column(s)</text>
</g>
<!-- 139731042747984&#45;&gt;139773302035792 -->
<g id="edge23" class="edge">
<title>139731042747984&#45;&gt;139773302035792</title>
<path fill="none" stroke="white" d="M1165.5,-38.24C1165.5,-50.07 1165.5,-65.68 1165.5,-78.95"/>
<polygon fill="white" stroke="white" points="1162,-78.96 1165.5,-88.96 1169,-78.96 1162,-78.96"/>
<g id="a_edge23&#45;label"><a xlink:title="Output Expressions: &#10; (1) r_regionkey&#10; (2) r_name&#10;&#10;Unique Column Combinations: &#10; (1) {r_regionkey}&#10;&#10;Functional Dependencies (trivial): &#10; (1) {r_regionkey} =&gt; {r_name}&#10;&#10;Functional Dependencies (non&#45;trivial): &#10; &lt;none&gt;">
<text text-anchor="middle" x="1257.5" y="-59.8" font-family="Times,serif" font-size="14.00" fill="white"> 5.0 row(s) | 100.0% estd.</text>
</a>
</g>
</g>
<!-- 139773301881232 -->
<g id="node23" class="node">
<title>139773301881232</title>
<polygon fill="none" stroke="white" points="586,-745 501,-745 501,-709 586,-709 586,-745"/>
<text text-anchor="middle" x="543.5" y="-723.3" font-family="Times,serif" font-size="14.00" fill="white">[Validate]</text>
</g>
<!-- 139773301881232&#45;&gt;139773302037520 -->
<g id="edge25" class="edge">
<title>139773301881232&#45;&gt;139773302037520</title>
<path fill="none" stroke="white" d="M543.5,-745C543.5,-762.54 543.5,-790.68 543.5,-815 543.5,-815 543.5,-815 543.5,-993 543.5,-1026.34 611.29,-1047.32 683.26,-1060.21"/>
<polygon fill="white" stroke="white" points="693.44,-1061.97 684.19,-1056.82 683.59,-1060.27 693.44,-1061.97"/>
<g id="a_edge25&#45;label"><a xlink:title="Output Expressions: &#10; (1) o_orderkey&#10; (2) o_custkey&#10; (3) o_orderdate&#10;&#10;Unique Column Combinations: &#10; (1) {o_orderkey}&#10;&#10;Functional Dependencies (trivial): &#10; (1) {o_orderkey} =&gt; {o_custkey, o_orderdate}&#10;&#10;Functional Dependencies (non&#45;trivial): &#10; &lt;none&gt;">
<text text-anchor="middle" x="667" y="-900.3" font-family="Times,serif" font-size="14.00" fill="white"> 2,244,021.0 row(s) | 100.0% estd.</text>
</a>
</g>
</g>
<!-- 139773301881232&#45;&gt;139773302038288 -->
<g id="edge24" class="edge">
<title>139773301881232&#45;&gt;139773302038288</title>
<path fill="none" stroke="white" d="M557.32,-745.09C567.66,-756.63 582.85,-771.15 599.5,-779 614.43,-786.04 642.15,-792.04 673.89,-797.02"/>
<polygon fill="white" stroke="white" points="683.86,-798.53 674.5,-793.57 673.97,-797.03 683.86,-798.53"/>
<g id="a_edge24&#45;label"><a xlink:title="Output Expressions: &#10; (1) o_orderkey&#10; (2) o_custkey&#10; (3) o_orderdate&#10;&#10;Unique Column Combinations: &#10; (1) {o_orderkey}&#10;&#10;Functional Dependencies (trivial): &#10; (1) {o_orderkey} =&gt; {o_custkey, o_orderdate}&#10;&#10;Functional Dependencies (non&#45;trivial): &#10; &lt;none&gt;">
<text text-anchor="middle" x="723" y="-767.8" font-family="Times,serif" font-size="14.00" fill="white"> 2,244,021.0 row(s) | 100.0% estd.</text>
</a>
</g>
</g>
<!-- 139773302039056 -->
<g id="node24" class="node">
<title>139773302039056</title>
<polygon fill="none" stroke="white" points="415,-657 0,-657 0,-619 415,-619 415,-657"/>
<text text-anchor="middle" x="207.5" y="-641.8" font-family="Times,serif" font-size="14.00" fill="white">[Predicate] o_orderdate BETWEEN UPPER EXCLUSIVE</text>
<text text-anchor="middle" x="207.5" y="-626.8" font-family="Times,serif" font-size="14.00" fill="white">&#39;1995&#45;01&#45;01&#39; AND &#39;1996&#45;01&#45;01&#39;</text>
</g>
<!-- 139773302039056&#45;&gt;139773301881232 -->
<g id="edge26" class="edge">
<title>139773302039056&#45;&gt;139773301881232</title>
<path fill="none" stroke="white" d="M256.62,-657C286.63,-667.57 325.96,-680.64 361.5,-690 404.63,-701.36 454.36,-710.96 490.92,-717.39"/>
<polygon fill="white" stroke="white" points="490.42,-720.85 500.87,-719.11 491.61,-713.96 490.42,-720.85"/>
<g id="a_edge26&#45;label"><a xlink:title="Output Expressions: &#10; (1) o_orderkey&#10; (2) o_custkey&#10; (3) o_orderdate&#10;&#10;Unique Column Combinations: &#10; (1) {o_orderkey}&#10;&#10;Functional Dependencies (trivial): &#10; (1) {o_orderkey} =&gt; {o_custkey, o_orderdate}&#10;&#10;Functional Dependencies (non&#45;trivial): &#10; &lt;none&gt;">
<text text-anchor="middle" x="480.5" y="-678.8" font-family="Times,serif" font-size="14.00" fill="white"> 2,244,021.0 row(s) | 15.0% estd.</text>
</a>
</g>
</g>
<!-- 139731042748304 -->
<g id="node25" class="node">
<title>139731042748304</title>
<polygon fill="none" stroke="white" points="371.5,-568 43.5,-568 43.5,-530 371.5,-530 371.5,-568"/>
<text text-anchor="middle" x="207.5" y="-552.8" font-family="Times,serif" font-size="14.00" fill="white">[StoredTable] Name: &#39;orders&#39; pruned: 0/229</text>
<text text-anchor="middle" x="207.5" y="-537.8" font-family="Times,serif" font-size="14.00" fill="white">chunk(s), 6/9 column(s)</text>
</g>
<!-- 139731042748304&#45;&gt;139773302039056 -->
<g id="edge27" class="edge">
<title>139731042748304&#45;&gt;139773302039056</title>
<path fill="none" stroke="white" stroke-width="4.58" d="M207.5,-568.03C207.5,-579.81 207.5,-595.44 207.5,-608.84"/>
<polygon fill="white" stroke="white" stroke-width="4.58" points="203.49,-609 207.5,-619 211.51,-609 203.49,-609"/>
<g id="a_edge27&#45;label"><a xlink:title="Output Expressions: &#10; (1) o_orderkey&#10; (2) o_custkey&#10; (3) o_orderdate&#10;&#10;Unique Column Combinations: &#10; (1) {o_orderkey}&#10;&#10;Functional Dependencies (trivial): &#10; (1) {o_orderkey} =&gt; {o_custkey, o_orderdate}&#10;&#10;Functional Dependencies (non&#45;trivial): &#10; &lt;none&gt;">
<text text-anchor="middle" x="335.5" y="-589.8" font-family="Times,serif" font-size="14.00" fill="white"> 15,000,000.0 row(s) | 100.0% estd.</text>
</a>
</g>
</g>
<!-- 139773301881552 -->
<g id="node26" class="node">
<title>139773301881552</title>
<polygon fill="none" stroke="white" points="1196,-1098 1111,-1098 1111,-1062 1196,-1062 1196,-1098"/>
<text text-anchor="middle" x="1153.5" y="-1076.3" font-family="Times,serif" font-size="14.00" fill="white">[Validate]</text>
</g>
<!-- 139773301881552&#45;&gt;139773302042320 -->
<g id="edge28" class="edge">
<title>139773301881552&#45;&gt;139773302042320</title>
<path fill="none" stroke="white" d="M1145.75,-1098.2C1139.99,-1109.12 1131.13,-1122.71 1119.5,-1131 1111.72,-1136.55 1103.1,-1141.22 1094.11,-1145.15"/>
<polygon fill="white" stroke="white" points="1084.64,-1148.98 1095.22,-1148.47 1093.91,-1145.23 1084.64,-1148.98"/>
<g id="a_edge28&#45;label"><a xlink:title="Output Expressions: &#10; (1) c_custkey&#10; (2) c_nationkey&#10;&#10;Unique Column Combinations: &#10; (1) {c_custkey}&#10;&#10;Functional Dependencies (trivial): &#10; (1) {c_custkey} =&gt; {c_nationkey}&#10;&#10;Functional Dependencies (non&#45;trivial): &#10; &lt;none&gt;">
<text text-anchor="middle" x="1258" y="-1119.8" font-family="Times,serif" font-size="14.00" fill="white"> 1,500,000.0 row(s) | 100.0% estd.</text>
</a>
</g>
</g>
<!-- 139731042748624 -->
<g id="node27" class="node">
<title>139731042748624</title>
<polygon fill="none" stroke="white" points="1372,-1011 1033,-1011 1033,-973 1372,-973 1372,-1011"/>
<text text-anchor="middle" x="1202.5" y="-995.8" font-family="Times,serif" font-size="14.00" fill="white">[StoredTable] Name: &#39;customer&#39; pruned: 0/23</text>
<text text-anchor="middle" x="1202.5" y="-980.8" font-family="Times,serif" font-size="14.00" fill="white">chunk(s), 6/8 column(s)</text>
</g>
<!-- 139731042748624&#45;&gt;139773301881552 -->
<g id="edge29" class="edge">
<title>139731042748624&#45;&gt;139773301881552</title>
<path fill="none" stroke="white" d="M1192.11,-1011.24C1185.17,-1023.42 1175.94,-1039.62 1168.25,-1053.12"/>
<polygon fill="white" stroke="white" points="1165.12,-1051.54 1163.21,-1061.96 1171.2,-1055 1165.12,-1051.54"/>
<g id="a_edge29&#45;label"><a xlink:title="Output Expressions: &#10; (1) c_custkey&#10; (2) c_nationkey&#10;&#10;Unique Column Combinations: &#10; (1) {c_custkey}&#10;&#10;Functional Dependencies (trivial): &#10; (1) {c_custkey} =&gt; {c_nationkey}&#10;&#10;Functional Dependencies (non&#45;trivial): &#10; &lt;none&gt;">
<text text-anchor="middle" x="1304" y="-1032.8" font-family="Times,serif" font-size="14.00" fill="white"> 1,500,000.0 row(s) | 100.0% estd.</text>
</a>
</g>
</g>
</g>
</svg>
