<?xml version="1.0" encoding="UTF-8" standalone="no"?>
<!DOCTYPE svg PUBLIC "-//W3C//DTD SVG 1.1//EN"
 "http://www.w3.org/Graphics/SVG/1.1/DTD/svg11.dtd">
<!-- Generated by graphviz version 2.43.0 (0)
 -->
<!-- Title: G Pages: 1 -->
<svg width="1939pt" height="1706pt"
 viewBox="0.00 0.00 1938.50 1706.00" xmlns="http://www.w3.org/2000/svg" xmlns:xlink="http://www.w3.org/1999/xlink">
<g id="graph0" class="graph" transform="scale(1 1) rotate(0) translate(4 1702)">
<title>G</title>
<polygon fill="black" stroke="transparent" points="-4,4 -4,-1702 1934.5,-1702 1934.5,4 -4,4"/>
<text text-anchor="middle" x="319.5" y="-1682.8" font-family="Times,serif" font-size="14.00" fill="white">For tooltips with advanced information, hover your mouse over vertices or edge labels.</text>
<!-- 131389298075920 -->
<g id="node1" class="node">
<title>131389298075920</title>
<polygon fill="none" stroke="white" points="1406,-1643 1115,-1643 1115,-1607 1406,-1607 1406,-1643"/>
<text text-anchor="middle" x="1260.5" y="-1621.3" font-family="Times,serif" font-size="14.00" fill="white">[Alias] s_name, COUNT(*) AS numwait</text>
</g>
<!-- 131389281942704 -->
<g id="node2" class="node">
<title>131389281942704</title>
<polygon fill="none" stroke="white" points="1308.5,-1556 1212.5,-1556 1212.5,-1520 1308.5,-1520 1308.5,-1556"/>
<text text-anchor="middle" x="1260.5" y="-1534.3" font-family="Times,serif" font-size="14.00" fill="white">[Limit] 100</text>
</g>
<!-- 131389281942704&#45;&gt;131389298075920 -->
<g id="edge1" class="edge">
<title>131389281942704&#45;&gt;131389298075920</title>
<path fill="none" stroke="white" d="M1260.5,-1556.2C1260.5,-1567.84 1260.5,-1583.45 1260.5,-1596.76"/>
<polygon fill="white" stroke="white" points="1257,-1596.82 1260.5,-1606.82 1264,-1596.82 1257,-1596.82"/>
<g id="a_edge1&#45;label"><a xlink:title="Output Expressions: &#10; (1) s_name&#10; (2) COUNT(*)&#10;&#10;Unique Column Combinations: &#10; (1) {s_name}&#10;&#10;Functional Dependencies (trivial): &#10; (1) {s_name} =&gt; {COUNT(*)}&#10;&#10;Functional Dependencies (non&#45;trivial): &#10; &lt;none&gt;">
<text text-anchor="middle" x="1352.5" y="-1577.8" font-family="Times,serif" font-size="14.00" fill="white"> 100.0 row(s) | 0.0% estd.</text>
</a>
</g>
</g>
<!-- 131389298075536 -->
<g id="node3" class="node">
<title>131389298075536</title>
<polygon fill="none" stroke="white" points="1452,-1469 1069,-1469 1069,-1433 1452,-1433 1452,-1469"/>
<text text-anchor="middle" x="1260.5" y="-1447.3" font-family="Times,serif" font-size="14.00" fill="white">[Sort] COUNT(*) (Descending), s_name (Ascending)</text>
</g>
<!-- 131389298075536&#45;&gt;131389281942704 -->
<g id="edge2" class="edge">
<title>131389298075536&#45;&gt;131389281942704</title>
<path fill="none" stroke="white" d="M1260.5,-1469.2C1260.5,-1480.84 1260.5,-1496.45 1260.5,-1509.76"/>
<polygon fill="white" stroke="white" points="1257,-1509.82 1260.5,-1519.82 1264,-1509.82 1257,-1509.82"/>
<g id="a_edge2&#45;label"><a xlink:title="Output Expressions: &#10; (1) s_name&#10; (2) COUNT(*)&#10;&#10;Unique Column Combinations: &#10; (1) {s_name}&#10;&#10;Functional Dependencies (trivial): &#10; (1) {s_name} =&gt; {COUNT(*)}&#10;&#10;Functional Dependencies (non&#45;trivial): &#10; &lt;none&gt;">
<text text-anchor="middle" x="1388.5" y="-1490.8" font-family="Times,serif" font-size="14.00" fill="white"> 12,000,234.0 row(s) | 100.0% estd.</text>
</a>
</g>
</g>
<!-- 131389298075344 -->
<g id="node4" class="node">
<title>131389298075344</title>
<polygon fill="none" stroke="white" points="1426.5,-1382 1094.5,-1382 1094.5,-1344 1426.5,-1344 1426.5,-1382"/>
<text text-anchor="middle" x="1260.5" y="-1366.8" font-family="Times,serif" font-size="14.00" fill="white">[Aggregate] GroupBy: [s_name] Aggregates:</text>
<text text-anchor="middle" x="1260.5" y="-1351.8" font-family="Times,serif" font-size="14.00" fill="white">[COUNT(*)]</text>
</g>
<!-- 131389298075344&#45;&gt;131389298075536 -->
<g id="edge3" class="edge">
<title>131389298075344&#45;&gt;131389298075536</title>
<path fill="none" stroke="white" d="M1260.5,-1382.24C1260.5,-1394.07 1260.5,-1409.68 1260.5,-1422.95"/>
<polygon fill="white" stroke="white" points="1257,-1422.96 1260.5,-1432.96 1264,-1422.96 1257,-1422.96"/>
<g id="a_edge3&#45;label"><a xlink:title="Output Expressions: &#10; (1) s_name&#10; (2) COUNT(*)&#10;&#10;Unique Column Combinations: &#10; (1) {s_name}&#10;&#10;Functional Dependencies (trivial): &#10; (1) {s_name} =&gt; {COUNT(*)}&#10;&#10;Functional Dependencies (non&#45;trivial): &#10; &lt;none&gt;">
<text text-anchor="middle" x="1388.5" y="-1403.8" font-family="Times,serif" font-size="14.00" fill="white"> 12,000,234.0 row(s) | 100.0% estd.</text>
</a>
</g>
</g>
<!-- 131389298074960 -->
<g id="node5" class="node">
<title>131389298074960</title>
<polygon fill="none" stroke="white" points="1425,-1293 1096,-1293 1096,-1255 1425,-1255 1425,-1293"/>
<text text-anchor="middle" x="1260.5" y="-1277.8" font-family="Times,serif" font-size="14.00" fill="white">[Join] Mode: Semi [l_orderkey = l_orderkey]</text>
<text text-anchor="middle" x="1260.5" y="-1262.8" font-family="Times,serif" font-size="14.00" fill="white">[l_suppkey != l_suppkey]</text>
</g>
<!-- 131389298074960&#45;&gt;131389298075344 -->
<g id="edge4" class="edge">
<title>131389298074960&#45;&gt;131389298075344</title>
<path fill="none" stroke="white" d="M1260.5,-1293.03C1260.5,-1304.81 1260.5,-1320.44 1260.5,-1333.84"/>
<polygon fill="white" stroke="white" points="1257,-1334 1260.5,-1344 1264,-1334 1257,-1334"/>
<g id="a_edge4&#45;label"><a xlink:title="Output Expressions: &#10; (1) l_orderkey&#10; (2) l_suppkey&#10; (3) l_commitdate&#10; (4) l_receiptdate&#10; (5) s_suppkey&#10; (6) s_name&#10; (7) s_nationkey&#10;&#10;Unique Column Combinations: &#10; &lt;none&gt;&#10;&#10;Functional Dependencies (trivial): &#10; &lt;none&gt;&#10;&#10;Functional Dependencies (non&#45;trivial): &#10; (1) {s_suppkey} =&gt; {s_name, s_nationkey}&#10;">
<text text-anchor="middle" x="1388.5" y="-1314.8" font-family="Times,serif" font-size="14.00" fill="white"> 12,000,234.0 row(s) | 100.0% estd.</text>
</a>
</g>
</g>
<!-- 131389298074576 -->
<g id="node6" class="node">
<title>131389298074576</title>
<polygon fill="none" stroke="white" points="1276,-1204 953,-1204 953,-1166 1276,-1166 1276,-1204"/>
<text text-anchor="middle" x="1114.5" y="-1188.8" font-family="Times,serif" font-size="14.00" fill="white">[Join] Mode: AntiNullAsFalse [l_orderkey =</text>
<text text-anchor="middle" x="1114.5" y="-1173.8" font-family="Times,serif" font-size="14.00" fill="white">l_orderkey] [l_suppkey != l_suppkey]</text>
</g>
<!-- 131389298074576&#45;&gt;131389298074960 -->
<g id="edge5" class="edge">
<title>131389298074576&#45;&gt;131389298074960</title>
<path fill="none" stroke="white" d="M1120.56,-1204.39C1125.03,-1215.29 1132.15,-1228.59 1142.5,-1237 1149.01,-1242.29 1156.29,-1246.81 1163.96,-1250.66"/>
<polygon fill="white" stroke="white" points="1164.03,-1250.69 1162.56,-1253.87 1173.1,-1254.88 1164.03,-1250.69"/>
<g id="a_edge5&#45;label"><a xlink:title="Output Expressions: &#10; (1) l_orderkey&#10; (2) l_suppkey&#10; (3) l_commitdate&#10; (4) l_receiptdate&#10; (5) s_suppkey&#10; (6) s_name&#10; (7) s_nationkey&#10;&#10;Unique Column Combinations: &#10; &lt;none&gt;&#10;&#10;Functional Dependencies (trivial): &#10; &lt;none&gt;&#10;&#10;Functional Dependencies (non&#45;trivial): &#10; (1) {s_suppkey} =&gt; {s_name, s_nationkey}&#10;">
<text text-anchor="middle" x="1270.5" y="-1225.8" font-family="Times,serif" font-size="14.00" fill="white"> 12,000,233.0 row(s) | 100.0% estd.</text>
</a>
</g>
</g>
<!-- 131389298074000 -->
<g id="node7" class="node">
<title>131389298074000</title>
<polygon fill="none" stroke="white" points="1011.5,-830 685.5,-830 685.5,-794 1011.5,-794 1011.5,-830"/>
<text text-anchor="middle" x="848.5" y="-808.3" font-family="Times,serif" font-size="14.00" fill="white">[Join] Mode: Inner [s_suppkey = l_suppkey]</text>
</g>
<!-- 131389298074000&#45;&gt;131389298074576 -->
<g id="edge6" class="edge">
<title>131389298074000&#45;&gt;131389298074576</title>
<path fill="none" stroke="white" d="M837.69,-830.27C828.07,-847.32 815.5,-874.48 815.5,-900 815.5,-900 815.5,-900 815.5,-1098 815.5,-1130.11 880,-1150.95 949.09,-1164.05"/>
<polygon fill="white" stroke="white" points="949.47,-1164.12 948.84,-1167.57 959.31,-1165.93 949.47,-1164.12"/>
<g id="a_edge6&#45;label"><a xlink:title="Output Expressions: &#10; (1) l_orderkey&#10; (2) l_suppkey&#10; (3) l_commitdate&#10; (4) l_receiptdate&#10; (5) s_suppkey&#10; (6) s_name&#10; (7) s_nationkey&#10;&#10;Unique Column Combinations: &#10; &lt;none&gt;&#10;&#10;Functional Dependencies (trivial): &#10; &lt;none&gt;&#10;&#10;Functional Dependencies (non&#45;trivial): &#10; (1) {s_suppkey} =&gt; {s_name, s_nationkey}&#10;">
<text text-anchor="middle" x="934.5" y="-985.3" font-family="Times,serif" font-size="14.00" fill="white"> 12,000,233.0 row(s) | 0.0% estd.</text>
</a>
</g>
</g>
<!-- 131389298074192 -->
<g id="node24" class="node">
<title>131389298074192</title>
<polygon fill="none" stroke="white" points="1273,-920 944,-920 944,-882 1273,-882 1273,-920"/>
<text text-anchor="middle" x="1108.5" y="-904.8" font-family="Times,serif" font-size="14.00" fill="white">[Join] Mode: Semi [l_orderkey = l_orderkey]</text>
<text text-anchor="middle" x="1108.5" y="-889.8" font-family="Times,serif" font-size="14.00" fill="white">(SemiJoinReductionRule)</text>
</g>
<!-- 131389298074000&#45;&gt;131389298074192 -->
<g id="edge7" class="edge">
<title>131389298074000&#45;&gt;131389298074192</title>
<path fill="none" stroke="white" d="M843.68,-830.18C841.72,-841.16 841.5,-854.99 849.5,-864 862.33,-878.45 895.28,-887.27 933.54,-892.61"/>
<polygon fill="white" stroke="white" points="943.91,-893.96 934.45,-889.2 934,-892.67 943.91,-893.96"/>
<g id="a_edge7&#45;label"><a xlink:title="Output Expressions: &#10; (1) l_orderkey&#10; (2) l_suppkey&#10; (3) l_commitdate&#10; (4) l_receiptdate&#10; (5) s_suppkey&#10; (6) s_name&#10; (7) s_nationkey&#10;&#10;Unique Column Combinations: &#10; &lt;none&gt;&#10;&#10;Functional Dependencies (trivial): &#10; &lt;none&gt;&#10;&#10;Functional Dependencies (non&#45;trivial): &#10; (1) {s_suppkey} =&gt; {s_name, s_nationkey}&#10;">
<text text-anchor="middle" x="968.5" y="-852.8" font-family="Times,serif" font-size="14.00" fill="white"> 12,000,233.0 row(s) | 0.0% estd.</text>
</a>
</g>
</g>
<!-- 131389298074768 -->
<g id="node27" class="node">
<title>131389298074768</title>
<polygon fill="none" stroke="white" points="1620,-920 1291,-920 1291,-882 1620,-882 1620,-920"/>
<text text-anchor="middle" x="1455.5" y="-904.8" font-family="Times,serif" font-size="14.00" fill="white">[Join] Mode: Semi [l_orderkey = l_orderkey]</text>
<text text-anchor="middle" x="1455.5" y="-889.8" font-family="Times,serif" font-size="14.00" fill="white">(SemiJoinReductionRule)</text>
</g>
<!-- 131389298074000&#45;&gt;131389298074768 -->
<g id="edge8" class="edge">
<title>131389298074000&#45;&gt;131389298074768</title>
<path fill="none" stroke="white" d="M1011.74,-826C1037.73,-831.33 1063.82,-838.74 1087.5,-849 1097.37,-853.28 1096.53,-859.96 1106.5,-864 1176.38,-892.33 1202.16,-875.46 1280.35,-881.89"/>
<polygon fill="white" stroke="white" points="1290.68,-882.84 1281.04,-878.44 1280.72,-881.92 1290.68,-882.84"/>
<g id="a_edge8&#45;label"><a xlink:title="Output Expressions: &#10; (1) l_orderkey&#10; (2) l_suppkey&#10; (3) l_commitdate&#10; (4) l_receiptdate&#10; (5) s_suppkey&#10; (6) s_name&#10; (7) s_nationkey&#10;&#10;Unique Column Combinations: &#10; &lt;none&gt;&#10;&#10;Functional Dependencies (trivial): &#10; &lt;none&gt;&#10;&#10;Functional Dependencies (non&#45;trivial): &#10; (1) {s_suppkey} =&gt; {s_name, s_nationkey}&#10;">
<text text-anchor="middle" x="1225.5" y="-852.8" font-family="Times,serif" font-size="14.00" fill="white"> 12,000,233.0 row(s) | 0.0% estd.</text>
</a>
</g>
</g>
<!-- 131389298073808 -->
<g id="node8" class="node">
<title>131389298073808</title>
<polygon fill="none" stroke="white" points="867.5,-742 557.5,-742 557.5,-706 867.5,-706 867.5,-742"/>
<text text-anchor="middle" x="712.5" y="-720.3" font-family="Times,serif" font-size="14.00" fill="white">[Predicate] l_receiptdate &gt; l_commitdate</text>
</g>
<!-- 131389298073808&#45;&gt;131389298074000 -->
<g id="edge9" class="edge">
<title>131389298073808&#45;&gt;131389298074000</title>
<path fill="none" stroke="white" d="M708.48,-742.05C707.03,-752.63 707.23,-765.91 714.5,-775 719.36,-781.08 730.29,-786.38 743.93,-790.91"/>
<polygon fill="white" stroke="white" points="744.21,-791 743.18,-794.34 753.77,-793.93 744.21,-791"/>
<g id="a_edge9&#45;label"><a xlink:title="Output Expressions: &#10; (1) l_orderkey&#10; (2) l_suppkey&#10; (3) l_commitdate&#10; (4) l_receiptdate&#10;&#10;Unique Column Combinations: &#10; &lt;none&gt;&#10;&#10;Functional Dependencies (trivial): &#10; &lt;none&gt;&#10;&#10;Functional Dependencies (non&#45;trivial): &#10; &lt;none&gt;">
<text text-anchor="middle" x="842.5" y="-763.8" font-family="Times,serif" font-size="14.00" fill="white"> 12,000,234.0 row(s) | 100.0% estd.</text>
</a>
</g>
</g>
<!-- 131389281942064 -->
<g id="node9" class="node">
<title>131389281942064</title>
<polygon fill="none" stroke="white" points="749,-655 664,-655 664,-619 749,-619 749,-655"/>
<text text-anchor="middle" x="706.5" y="-633.3" font-family="Times,serif" font-size="14.00" fill="white">[Validate]</text>
</g>
<!-- 131389281942064&#45;&gt;131389298073808 -->
<g id="edge10" class="edge">
<title>131389281942064&#45;&gt;131389298073808</title>
<path fill="none" stroke="white" d="M707.71,-655.2C708.54,-666.84 709.64,-682.45 710.58,-695.76"/>
<polygon fill="white" stroke="white" points="707.09,-696.1 711.29,-705.82 714.07,-695.6 707.09,-696.1"/>
<g id="a_edge10&#45;label"><a xlink:title="Output Expressions: &#10; (1) l_orderkey&#10; (2) l_suppkey&#10; (3) l_commitdate&#10; (4) l_receiptdate&#10;&#10;Unique Column Combinations: &#10; &lt;none&gt;&#10;&#10;Functional Dependencies (trivial): &#10; &lt;none&gt;&#10;&#10;Functional Dependencies (non&#45;trivial): &#10; &lt;none&gt;">
<text text-anchor="middle" x="837.5" y="-676.8" font-family="Times,serif" font-size="14.00" fill="white"> 12,000,234.0 row(s) | 100.0% estd.</text>
</a>
</g>
</g>
<!-- 131389298073616 -->
<g id="node10" class="node">
<title>131389298073616</title>
<polygon fill="none" stroke="white" points="708,-568 375,-568 375,-532 708,-532 708,-568"/>
<text text-anchor="middle" x="541.5" y="-546.3" font-family="Times,serif" font-size="14.00" fill="white">[Join] Mode: Semi [o_orderkey = l_orderkey]</text>
</g>
<!-- 131389298073616&#45;&gt;131389281942064 -->
<g id="edge11" class="edge">
<title>131389298073616&#45;&gt;131389281942064</title>
<path fill="none" stroke="white" d="M574.89,-568.2C600.69,-581.49 636.58,-599.98 664.36,-614.29"/>
<polygon fill="white" stroke="white" points="662.95,-617.5 673.44,-618.97 666.15,-611.28 662.95,-617.5"/>
<g id="a_edge11&#45;label"><a xlink:title="Output Expressions: &#10; (1) l_orderkey&#10; (2) l_suppkey&#10; (3) l_commitdate&#10; (4) l_receiptdate&#10;&#10;Unique Column Combinations: &#10; &lt;none&gt;&#10;&#10;Functional Dependencies (trivial): &#10; &lt;none&gt;&#10;&#10;Functional Dependencies (non&#45;trivial): &#10; &lt;none&gt;">
<text text-anchor="middle" x="761.5" y="-589.8" font-family="Times,serif" font-size="14.00" fill="white"> 12,000,234.0 row(s) | 100.0% estd.</text>
</a>
</g>
</g>
<!-- 131389298071120 -->
<g id="node11" class="node">
<title>131389298071120</title>
<polygon fill="none" stroke="white" points="442,-481 119,-481 119,-443 442,-443 442,-481"/>
<text text-anchor="middle" x="280.5" y="-465.8" font-family="Times,serif" font-size="14.00" fill="white">[Join] Mode: Semi [s_suppkey = l_suppkey]</text>
<text text-anchor="middle" x="280.5" y="-450.8" font-family="Times,serif" font-size="14.00" fill="white">(SemiJoinReductionRule)</text>
</g>
<!-- 131389298071120&#45;&gt;131389298073616 -->
<g id="edge12" class="edge">
<title>131389298071120&#45;&gt;131389298073616</title>
<path fill="none" stroke="white" d="M278.77,-481.01C278.77,-492.06 280.83,-505.64 289.5,-514 302.05,-526.1 330.84,-534.07 364.64,-539.3"/>
<polygon fill="white" stroke="white" points="364.89,-539.33 364.39,-542.8 374.79,-540.77 364.89,-539.33"/>
<g id="a_edge12&#45;label"><a xlink:title="Output Expressions: &#10; (1) l_orderkey&#10; (2) l_suppkey&#10; (3) l_commitdate&#10; (4) l_receiptdate&#10;&#10;Unique Column Combinations: &#10; &lt;none&gt;&#10;&#10;Functional Dependencies (trivial): &#10; &lt;none&gt;&#10;&#10;Functional Dependencies (non&#45;trivial): &#10; &lt;none&gt;">
<text text-anchor="middle" x="408.5" y="-502.8" font-family="Times,serif" font-size="14.00" fill="white"> 12,000,233.0 row(s) | 4.0% estd.</text>
</a>
</g>
</g>
<!-- 131389276277392 -->
<g id="node12" class="node">
<title>131389276277392</title>
<polygon fill="none" stroke="white" points="349,-392 0,-392 0,-354 349,-354 349,-392"/>
<text text-anchor="middle" x="174.5" y="-376.8" font-family="Times,serif" font-size="14.00" fill="white">[StoredTable] Name: &#39;lineitem&#39; pruned: 0/4578</text>
<text text-anchor="middle" x="174.5" y="-361.8" font-family="Times,serif" font-size="14.00" fill="white">chunk(s), 12/16 column(s)</text>
</g>
<!-- 131389276277392&#45;&gt;131389298071120 -->
<g id="edge13" class="edge">
<title>131389276277392&#45;&gt;131389298071120</title>
<path fill="none" stroke="white" stroke-width="8" d="M181.99,-392.35C187.06,-402.98 194.64,-415.99 204.5,-425 209.83,-429.88 215.95,-434.21 222.34,-438.04"/>
<polygon fill="white" stroke="white" stroke-width="8" points="222.43,-438.09 219.04,-444.21 231.18,-442.93 222.43,-438.09"/>
<g id="a_edge13&#45;label"><a xlink:title="Output Expressions: &#10; (1) l_orderkey&#10; (2) l_suppkey&#10; (3) l_commitdate&#10; (4) l_receiptdate&#10;&#10;Unique Column Combinations: &#10; &lt;none&gt;&#10;&#10;Functional Dependencies (trivial): &#10; &lt;none&gt;&#10;&#10;Functional Dependencies (non&#45;trivial): &#10; &lt;none&gt;">
<text text-anchor="middle" x="337" y="-413.8" font-family="Times,serif" font-size="14.00" fill="white"> 300,005,824.0 row(s) | 100.0% estd.</text>
</a>
</g>
</g>
<!-- 131389281941744 -->
<g id="node13" class="node">
<title>131389281941744</title>
<polygon fill="none" stroke="white" points="963,-391 878,-391 878,-355 963,-355 963,-391"/>
<text text-anchor="middle" x="920.5" y="-369.3" font-family="Times,serif" font-size="14.00" fill="white">[Validate]</text>
</g>
<!-- 131389281941744&#45;&gt;131389298074000 -->
<g id="edge15" class="edge">
<title>131389281941744&#45;&gt;131389298074000</title>
<path fill="none" stroke="white" d="M951.2,-391.11C958.4,-396.36 965.43,-402.71 970.5,-410 983.91,-429.3 984.5,-437.49 984.5,-461 984.5,-461 984.5,-461 984.5,-725 984.5,-748.08 986.7,-758.57 970.5,-775 965.17,-780.41 959.07,-785.01 952.51,-788.93"/>
<polygon fill="white" stroke="white" points="943.3,-793.86 953.76,-792.22 952.11,-789.14 943.3,-793.86"/>
<g id="a_edge15&#45;label"><a xlink:title="Output Expressions: &#10; (1) s_suppkey&#10; (2) s_name&#10; (3) s_nationkey&#10;&#10;Unique Column Combinations: &#10; (1) {s_suppkey}&#10;&#10;Functional Dependencies (trivial): &#10; (1) {s_suppkey} =&gt; {s_name, s_nationkey}&#10;&#10;Functional Dependencies (non&#45;trivial): &#10; &lt;none&gt;">
<text text-anchor="middle" x="1097" y="-589.8" font-family="Times,serif" font-size="14.00" fill="white"> 20,000.0 row(s) | 100.0% estd.</text>
</a>
</g>
</g>
<!-- 131389281941744&#45;&gt;131389298071120 -->
<g id="edge14" class="edge">
<title>131389281941744&#45;&gt;131389298071120</title>
<path fill="none" stroke="white" d="M877.83,-378.25C841.56,-382.92 788.67,-392.23 745.5,-410 734.21,-414.64 734.07,-421.11 722.5,-425 669.29,-442.91 526.45,-438.35 470.5,-443 464.58,-443.49 458.55,-444 452.47,-444.53"/>
<polygon fill="white" stroke="white" points="442.18,-445.43 452.44,-448.04 452.14,-444.56 442.18,-445.43"/>
<g id="a_edge14&#45;label"><a xlink:title="Output Expressions: &#10; (1) s_suppkey&#10; (2) s_name&#10; (3) s_nationkey&#10;&#10;Unique Column Combinations: &#10; (1) {s_suppkey}&#10;&#10;Functional Dependencies (trivial): &#10; (1) {s_suppkey} =&gt; {s_name, s_nationkey}&#10;&#10;Functional Dependencies (non&#45;trivial): &#10; &lt;none&gt;">
<text text-anchor="middle" x="858" y="-413.8" font-family="Times,serif" font-size="14.00" fill="white"> 20,000.0 row(s) | 100.0% estd.</text>
</a>
</g>
</g>
<!-- 131389298070736 -->
<g id="node14" class="node">
<title>131389298070736</title>
<polygon fill="none" stroke="white" points="1095,-302 746,-302 746,-266 1095,-266 1095,-302"/>
<text text-anchor="middle" x="920.5" y="-280.3" font-family="Times,serif" font-size="14.00" fill="white">[Join] Mode: Semi [s_nationkey = n_nationkey]</text>
</g>
<!-- 131389298070736&#45;&gt;131389281941744 -->
<g id="edge16" class="edge">
<title>131389298070736&#45;&gt;131389281941744</title>
<path fill="none" stroke="white" d="M920.5,-302.19C920.5,-314.34 920.5,-330.89 920.5,-344.82"/>
<polygon fill="white" stroke="white" points="917,-344.85 920.5,-354.85 924,-344.85 917,-344.85"/>
<g id="a_edge16&#45;label"><a xlink:title="Output Expressions: &#10; (1) s_suppkey&#10; (2) s_name&#10; (3) s_nationkey&#10;&#10;Unique Column Combinations: &#10; (1) {s_suppkey}&#10;&#10;Functional Dependencies (trivial): &#10; (1) {s_suppkey} =&gt; {s_name, s_nationkey}&#10;&#10;Functional Dependencies (non&#45;trivial): &#10; &lt;none&gt;">
<text text-anchor="middle" x="1024" y="-324.8" font-family="Times,serif" font-size="14.00" fill="white"> 20,000.0 row(s) | 4.0% estd.</text>
</a>
</g>
</g>
<!-- 131389276277712 -->
<g id="node15" class="node">
<title>131389276277712</title>
<polygon fill="none" stroke="white" points="953.5,-214 631.5,-214 631.5,-176 953.5,-176 953.5,-214"/>
<text text-anchor="middle" x="792.5" y="-198.8" font-family="Times,serif" font-size="14.00" fill="white">[StoredTable] Name: &#39;supplier&#39; pruned: 0/8</text>
<text text-anchor="middle" x="792.5" y="-183.8" font-family="Times,serif" font-size="14.00" fill="white">chunk(s), 4/7 column(s)</text>
</g>
<!-- 131389276277712&#45;&gt;131389298070736 -->
<g id="edge17" class="edge">
<title>131389276277712&#45;&gt;131389298070736</title>
<path fill="none" stroke="white" d="M787.88,-214.28C786.32,-224.88 786.47,-237.88 793.5,-247 798.13,-253.01 808.87,-258.32 822.24,-262.89"/>
<polygon fill="white" stroke="white" points="822.34,-262.92 821.28,-266.25 831.87,-265.93 822.34,-262.92"/>
<g id="a_edge17&#45;label"><a xlink:title="Output Expressions: &#10; (1) s_suppkey&#10; (2) s_name&#10; (3) s_nationkey&#10;&#10;Unique Column Combinations: &#10; (1) {s_suppkey}&#10;&#10;Functional Dependencies (trivial): &#10; (1) {s_suppkey} =&gt; {s_name, s_nationkey}&#10;&#10;Functional Dependencies (non&#45;trivial): &#10; &lt;none&gt;">
<text text-anchor="middle" x="910.5" y="-235.8" font-family="Times,serif" font-size="14.00" fill="white"> 500,000.0 row(s) | 100.0% estd.</text>
</a>
</g>
</g>
<!-- 131389281941424 -->
<g id="node16" class="node">
<title>131389281941424</title>
<polygon fill="none" stroke="white" points="1092,-213 1007,-213 1007,-177 1092,-177 1092,-213"/>
<text text-anchor="middle" x="1049.5" y="-191.3" font-family="Times,serif" font-size="14.00" fill="white">[Validate]</text>
</g>
<!-- 131389281941424&#45;&gt;131389298070736 -->
<g id="edge18" class="edge">
<title>131389281941424&#45;&gt;131389298070736</title>
<path fill="none" stroke="white" d="M1045.89,-213.26C1042.75,-224.28 1037.15,-238.12 1027.5,-247 1021.33,-252.68 1014.24,-257.46 1006.7,-261.49"/>
<polygon fill="white" stroke="white" points="997.68,-265.89 1008.2,-264.66 1006.67,-261.51 997.68,-265.89"/>
<g id="a_edge18&#45;label"><a xlink:title="Output Expressions: &#10; (1) n_nationkey&#10; (2) n_name&#10;&#10;Unique Column Combinations: &#10; (1) {n_nationkey}&#10;&#10;Functional Dependencies (trivial): &#10; (1) {n_nationkey} =&gt; {n_name}&#10;&#10;Functional Dependencies (non&#45;trivial): &#10; &lt;none&gt;">
<text text-anchor="middle" x="1129.5" y="-235.8" font-family="Times,serif" font-size="14.00" fill="white"> 1.0 row(s) | 100.0% estd.</text>
</a>
</g>
</g>
<!-- 131389298068432 -->
<g id="node17" class="node">
<title>131389298068432</title>
<polygon fill="none" stroke="white" points="1201.5,-125 897.5,-125 897.5,-89 1201.5,-89 1201.5,-125"/>
<text text-anchor="middle" x="1049.5" y="-103.3" font-family="Times,serif" font-size="14.00" fill="white">[Predicate] n_name = &#39;UNITED STATES&#39;</text>
</g>
<!-- 131389298068432&#45;&gt;131389281941424 -->
<g id="edge19" class="edge">
<title>131389298068432&#45;&gt;131389281941424</title>
<path fill="none" stroke="white" d="M1049.5,-125.4C1049.5,-137.25 1049.5,-153.18 1049.5,-166.71"/>
<polygon fill="white" stroke="white" points="1046,-166.92 1049.5,-176.92 1053,-166.92 1046,-166.92"/>
<g id="a_edge19&#45;label"><a xlink:title="Output Expressions: &#10; (1) n_nationkey&#10; (2) n_name&#10;&#10;Unique Column Combinations: &#10; (1) {n_nationkey}&#10;&#10;Functional Dependencies (trivial): &#10; (1) {n_nationkey} =&gt; {n_name}&#10;&#10;Functional Dependencies (non&#45;trivial): &#10; &lt;none&gt;">
<text text-anchor="middle" x="1132.5" y="-146.8" font-family="Times,serif" font-size="14.00" fill="white"> 1.0 row(s) | 4.0% estd.</text>
</a>
</g>
</g>
<!-- 131389276278032 -->
<g id="node18" class="node">
<title>131389276278032</title>
<polygon fill="none" stroke="white" points="1238.5,-38 860.5,-38 860.5,0 1238.5,0 1238.5,-38"/>
<text text-anchor="middle" x="1049.5" y="-22.8" font-family="Times,serif" font-size="14.00" fill="white">[StoredTable] Name: &#39;nation&#39; pruned: 0/1 chunk(s),</text>
<text text-anchor="middle" x="1049.5" y="-7.8" font-family="Times,serif" font-size="14.00" fill="white">2/4 column(s)</text>
</g>
<!-- 131389276278032&#45;&gt;131389298068432 -->
<g id="edge20" class="edge">
<title>131389276278032&#45;&gt;131389298068432</title>
<path fill="none" stroke="white" d="M1049.5,-38.24C1049.5,-50.07 1049.5,-65.68 1049.5,-78.95"/>
<polygon fill="white" stroke="white" points="1046,-78.96 1049.5,-88.96 1053,-78.96 1046,-78.96"/>
<g id="a_edge20&#45;label"><a xlink:title="Output Expressions: &#10; (1) n_nationkey&#10; (2) n_name&#10;&#10;Unique Column Combinations: &#10; (1) {n_nationkey}&#10;&#10;Functional Dependencies (trivial): &#10; (1) {n_nationkey} =&gt; {n_name}&#10;&#10;Functional Dependencies (non&#45;trivial): &#10; &lt;none&gt;">
<text text-anchor="middle" x="1146" y="-59.8" font-family="Times,serif" font-size="14.00" fill="white"> 25.0 row(s) | 100.0% estd.</text>
</a>
</g>
</g>
<!-- 131389281941904 -->
<g id="node19" class="node">
<title>131389281941904</title>
<polygon fill="none" stroke="white" points="565,-480 480,-480 480,-444 565,-444 565,-480"/>
<text text-anchor="middle" x="522.5" y="-458.3" font-family="Times,serif" font-size="14.00" fill="white">[Validate]</text>
</g>
<!-- 131389281941904&#45;&gt;131389298073616 -->
<g id="edge21" class="edge">
<title>131389281941904&#45;&gt;131389298073616</title>
<path fill="none" stroke="white" d="M526.34,-480.4C528.99,-492.37 532.55,-508.5 535.56,-522.11"/>
<polygon fill="white" stroke="white" points="537.73,-531.92 538.99,-521.4 535.57,-522.15 537.73,-531.92"/>
<g id="a_edge21&#45;label"><a xlink:title="Output Expressions: &#10; (1) o_orderkey&#10; (2) o_orderstatus&#10;&#10;Unique Column Combinations: &#10; (1) {o_orderkey}&#10;&#10;Functional Dependencies (trivial): &#10; (1) {o_orderkey} =&gt; {o_orderstatus}&#10;&#10;Functional Dependencies (non&#45;trivial): &#10; &lt;none&gt;">
<text text-anchor="middle" x="662.5" y="-502.8" font-family="Times,serif" font-size="14.00" fill="white"> 16,777,216.0 row(s) | 100.0% estd.</text>
</a>
</g>
</g>
<!-- 131389298073424 -->
<g id="node20" class="node">
<title>131389298073424</title>
<polygon fill="none" stroke="white" points="603.5,-391 367.5,-391 367.5,-355 603.5,-355 603.5,-391"/>
<text text-anchor="middle" x="485.5" y="-369.3" font-family="Times,serif" font-size="14.00" fill="white">[Predicate] o_orderstatus = &#39;F&#39;</text>
</g>
<!-- 131389298073424&#45;&gt;131389281941904 -->
<g id="edge22" class="edge">
<title>131389298073424&#45;&gt;131389281941904</title>
<path fill="none" stroke="white" d="M476.84,-391.26C472.97,-401.5 470.31,-414.48 475.5,-425 477.66,-429.38 480.64,-433.37 484.05,-436.97"/>
<polygon fill="white" stroke="white" points="481.81,-439.66 491.56,-443.8 486.52,-434.48 481.81,-439.66"/>
<g id="a_edge22&#45;label"><a xlink:title="Output Expressions: &#10; (1) o_orderkey&#10; (2) o_orderstatus&#10;&#10;Unique Column Combinations: &#10; (1) {o_orderkey}&#10;&#10;Functional Dependencies (trivial): &#10; (1) {o_orderkey} =&gt; {o_orderstatus}&#10;&#10;Functional Dependencies (non&#45;trivial): &#10; &lt;none&gt;">
<text text-anchor="middle" x="599" y="-413.8" font-family="Times,serif" font-size="14.00" fill="white"> 16,777,216.0 row(s) | 22.4% estd.</text>
</a>
</g>
</g>
<!-- 131389276278352 -->
<g id="node21" class="node">
<title>131389276278352</title>
<polygon fill="none" stroke="white" points="654,-303 317,-303 317,-265 654,-265 654,-303"/>
<text text-anchor="middle" x="485.5" y="-287.8" font-family="Times,serif" font-size="14.00" fill="white">[StoredTable] Name: &#39;orders&#39; pruned: 0/1145</text>
<text text-anchor="middle" x="485.5" y="-272.8" font-family="Times,serif" font-size="14.00" fill="white">chunk(s), 7/9 column(s)</text>
</g>
<!-- 131389276278352&#45;&gt;131389298073424 -->
<g id="edge23" class="edge">
<title>131389276278352&#45;&gt;131389298073424</title>
<path fill="none" stroke="white" stroke-width="4.58" d="M485.5,-303.03C485.5,-315.04 485.5,-331.07 485.5,-344.64"/>
<polygon fill="white" stroke="white" stroke-width="4.58" points="481.49,-344.88 485.5,-354.88 489.51,-344.88 481.49,-344.88"/>
<g id="a_edge23&#45;label"><a xlink:title="Output Expressions: &#10; (1) o_orderkey&#10; (2) o_orderstatus&#10;&#10;Unique Column Combinations: &#10; (1) {o_orderkey}&#10;&#10;Functional Dependencies (trivial): &#10; (1) {o_orderkey} =&gt; {o_orderstatus}&#10;&#10;Functional Dependencies (non&#45;trivial): &#10; &lt;none&gt;">
<text text-anchor="middle" x="613.5" y="-324.8" font-family="Times,serif" font-size="14.00" fill="white"> 75,000,000.0 row(s) | 100.0% estd.</text>
</a>
</g>
</g>
<!-- 131389298074384 -->
<g id="node22" class="node">
<title>131389298074384</title>
<polygon fill="none" stroke="white" points="1269.5,-1115 959.5,-1115 959.5,-1079 1269.5,-1079 1269.5,-1115"/>
<text text-anchor="middle" x="1114.5" y="-1093.3" font-family="Times,serif" font-size="14.00" fill="white">[Predicate] l_receiptdate &gt; l_commitdate</text>
</g>
<!-- 131389298074384&#45;&gt;131389298074576 -->
<g id="edge24" class="edge">
<title>131389298074384&#45;&gt;131389298074576</title>
<path fill="none" stroke="white" stroke-width="3.48" d="M1114.5,-1115.4C1114.5,-1126.94 1114.5,-1142.35 1114.5,-1155.64"/>
<polygon fill="white" stroke="white" stroke-width="3.48" points="1114.5,-1165.73 1118,-1155.73 1114.5,-1155.73 1114.5,-1165.73"/>
<g id="a_edge24&#45;label"><a xlink:title="Output Expressions: &#10; (1) l_orderkey&#10; (2) l_suppkey&#10; (3) l_commitdate&#10; (4) l_receiptdate&#10;&#10;Unique Column Combinations: &#10; &lt;none&gt;&#10;&#10;Functional Dependencies (trivial): &#10; &lt;none&gt;&#10;&#10;Functional Dependencies (non&#45;trivial): &#10; &lt;none&gt;">
<text text-anchor="middle" x="1242.5" y="-1136.8" font-family="Times,serif" font-size="14.00" fill="white"> 48,001,872.0 row(s) | 100.0% estd.</text>
</a>
</g>
</g>
<!-- 131389281942384 -->
<g id="node23" class="node">
<title>131389281942384</title>
<polygon fill="none" stroke="white" points="1157,-1007 1072,-1007 1072,-971 1157,-971 1157,-1007"/>
<text text-anchor="middle" x="1114.5" y="-985.3" font-family="Times,serif" font-size="14.00" fill="white">[Validate]</text>
</g>
<!-- 131389281942384&#45;&gt;131389298074384 -->
<g id="edge25" class="edge">
<title>131389281942384&#45;&gt;131389298074384</title>
<path fill="none" stroke="white" stroke-width="3.48" d="M1114.5,-1007.03C1114.5,-1023.62 1114.5,-1049.12 1114.5,-1068.57"/>
<polygon fill="white" stroke="white" stroke-width="3.48" points="1111,-1068.66 1114.5,-1078.66 1118,-1068.66 1111,-1068.66"/>
<g id="a_edge25&#45;label"><a xlink:title="Output Expressions: &#10; (1) l_orderkey&#10; (2) l_suppkey&#10; (3) l_commitdate&#10; (4) l_receiptdate&#10;&#10;Unique Column Combinations: &#10; &lt;none&gt;&#10;&#10;Functional Dependencies (trivial): &#10; &lt;none&gt;&#10;&#10;Functional Dependencies (non&#45;trivial): &#10; &lt;none&gt;">
<text text-anchor="middle" x="1242.5" y="-1039.3" font-family="Times,serif" font-size="14.00" fill="white"> 48,001,872.0 row(s) | 100.0% estd.</text>
</a>
</g>
</g>
<!-- 131389298074192&#45;&gt;131389281942384 -->
<g id="edge26" class="edge">
<title>131389298074192&#45;&gt;131389281942384</title>
<path fill="none" stroke="white" stroke-width="3.48" d="M1109.77,-920.24C1110.6,-932.07 1111.69,-947.68 1112.61,-960.95"/>
<polygon fill="white" stroke="white" stroke-width="3.48" points="1109.12,-961.23 1113.31,-970.96 1116.11,-960.74 1109.12,-961.23"/>
<g id="a_edge26&#45;label"><a xlink:title="Output Expressions: &#10; (1) l_orderkey&#10; (2) l_suppkey&#10; (3) l_commitdate&#10; (4) l_receiptdate&#10;&#10;Unique Column Combinations: &#10; &lt;none&gt;&#10;&#10;Functional Dependencies (trivial): &#10; &lt;none&gt;&#10;&#10;Functional Dependencies (non&#45;trivial): &#10; &lt;none&gt;">
<text text-anchor="middle" x="1235" y="-941.8" font-family="Times,serif" font-size="14.00" fill="white"> 48,001,872.0 row(s) | 16.0% estd.</text>
</a>
</g>
</g>
<!-- 131389276278672 -->
<g id="node25" class="node">
<title>131389276278672</title>
<polygon fill="none" stroke="white" points="1545,-831 1196,-831 1196,-793 1545,-793 1545,-831"/>
<text text-anchor="middle" x="1370.5" y="-815.8" font-family="Times,serif" font-size="14.00" fill="white">[StoredTable] Name: &#39;lineitem&#39; pruned: 0/4578</text>
<text text-anchor="middle" x="1370.5" y="-800.8" font-family="Times,serif" font-size="14.00" fill="white">chunk(s), 12/16 column(s)</text>
</g>
<!-- 131389276278672&#45;&gt;131389298074192 -->
<g id="edge27" class="edge">
<title>131389276278672&#45;&gt;131389298074192</title>
<path fill="none" stroke="white" stroke-width="8" d="M1367.31,-831.09C1364.37,-842.31 1358.81,-856.06 1348.5,-864 1341.44,-869.43 1312.87,-875.21 1277.76,-880.5"/>
<polygon fill="white" stroke="white" stroke-width="8" points="1277.59,-880.52 1276.57,-873.6 1267.7,-881.98 1277.59,-880.52"/>
<g id="a_edge27&#45;label"><a xlink:title="Output Expressions: &#10; (1) l_orderkey&#10; (2) l_suppkey&#10; (3) l_commitdate&#10; (4) l_receiptdate&#10;&#10;Unique Column Combinations: &#10; &lt;none&gt;&#10;&#10;Functional Dependencies (trivial): &#10; &lt;none&gt;&#10;&#10;Functional Dependencies (non&#45;trivial): &#10; &lt;none&gt;">
<text text-anchor="middle" x="1493" y="-852.8" font-family="Times,serif" font-size="14.00" fill="white"> 300,005,824.0 row(s) | 100.0% estd.</text>
</a>
</g>
</g>
<!-- 131389281942544 -->
<g id="node26" class="node">
<title>131389281942544</title>
<polygon fill="none" stroke="white" points="1466,-1061 1381,-1061 1381,-1025 1466,-1025 1466,-1061"/>
<text text-anchor="middle" x="1423.5" y="-1039.3" font-family="Times,serif" font-size="14.00" fill="white">[Validate]</text>
</g>
<!-- 131389281942544&#45;&gt;131389298074960 -->
<g id="edge28" class="edge">
<title>131389281942544&#45;&gt;131389298074960</title>
<path fill="none" stroke="white" stroke-width="3.48" d="M1426.99,-1061.22C1433.45,-1098.36 1442.83,-1186.68 1398.5,-1237 1393.56,-1242.61 1383.28,-1247.57 1370.45,-1251.88"/>
<polygon fill="white" stroke="white" stroke-width="3.48" points="1360.7,-1254.91 1371.29,-1255.29 1370.25,-1251.94 1360.7,-1254.91"/>
<g id="a_edge28&#45;label"><a xlink:title="Output Expressions: &#10; (1) l_orderkey&#10; (2) l_suppkey&#10; (3) l_commitdate&#10; (4) l_receiptdate&#10;&#10;Unique Column Combinations: &#10; &lt;none&gt;&#10;&#10;Functional Dependencies (trivial): &#10; &lt;none&gt;&#10;&#10;Functional Dependencies (non&#45;trivial): &#10; &lt;none&gt;">
<text text-anchor="middle" x="1559.5" y="-1136.8" font-family="Times,serif" font-size="14.00" fill="white"> 48,001,872.0 row(s) | 100.0% estd.</text>
</a>
</g>
</g>
<!-- 131389298074768&#45;&gt;131389281942544 -->
<g id="edge29" class="edge">
<title>131389298074768&#45;&gt;131389281942544</title>
<path fill="none" stroke="white" stroke-width="3.48" d="M1451.38,-920.02C1445.87,-944.11 1436.06,-987.04 1429.67,-1015.01"/>
<polygon fill="white" stroke="white" stroke-width="3.48" points="1426.22,-1014.4 1427.4,-1024.93 1433.04,-1015.96 1426.22,-1014.4"/>
<g id="a_edge29&#45;label"><a xlink:title="Output Expressions: &#10; (1) l_orderkey&#10; (2) l_suppkey&#10; (3) l_commitdate&#10; (4) l_receiptdate&#10;&#10;Unique Column Combinations: &#10; &lt;none&gt;&#10;&#10;Functional Dependencies (trivial): &#10; &lt;none&gt;&#10;&#10;Functional Dependencies (non&#45;trivial): &#10; &lt;none&gt;">
<text text-anchor="middle" x="1570" y="-941.8" font-family="Times,serif" font-size="14.00" fill="white"> 48,001,872.0 row(s) | 16.0% estd.</text>
</a>
</g>
</g>
<!-- 131389276278992 -->
<g id="node28" class="node">
<title>131389276278992</title>
<polygon fill="none" stroke="white" points="1912,-831 1563,-831 1563,-793 1912,-793 1912,-831"/>
<text text-anchor="middle" x="1737.5" y="-815.8" font-family="Times,serif" font-size="14.00" fill="white">[StoredTable] Name: &#39;lineitem&#39; pruned: 0/4578</text>
<text text-anchor="middle" x="1737.5" y="-800.8" font-family="Times,serif" font-size="14.00" fill="white">chunk(s), 12/16 column(s)</text>
</g>
<!-- 131389276278992&#45;&gt;131389298074768 -->
<g id="edge30" class="edge">
<title>131389276278992&#45;&gt;131389298074768</title>
<path fill="none" stroke="white" stroke-width="8" d="M1704.3,-831.2C1683.36,-842.03 1655.46,-855.32 1629.5,-864 1611.44,-870.04 1591.97,-875.26 1572.82,-879.7"/>
<polygon fill="white" stroke="white" stroke-width="8" points="1572.6,-879.75 1571.05,-872.92 1562.84,-881.96 1572.6,-879.75"/>
<g id="a_edge30&#45;label"><a xlink:title="Output Expressions: &#10; (1) l_orderkey&#10; (2) l_suppkey&#10; (3) l_commitdate&#10; (4) l_receiptdate&#10;&#10;Unique Column Combinations: &#10; &lt;none&gt;&#10;&#10;Functional Dependencies (trivial): &#10; &lt;none&gt;&#10;&#10;Functional Dependencies (non&#45;trivial): &#10; &lt;none&gt;">
<text text-anchor="middle" x="1798" y="-852.8" font-family="Times,serif" font-size="14.00" fill="white"> 300,005,824.0 row(s) | 100.0% estd.</text>
</a>
</g>
</g>
</g>
</svg>
