<?xml version="1.0" encoding="UTF-8" standalone="no"?>
<!DOCTYPE svg PUBLIC "-//W3C//DTD SVG 1.1//EN"
 "http://www.w3.org/Graphics/SVG/1.1/DTD/svg11.dtd">
<!-- Generated by graphviz version 2.43.0 (0)
 -->
<!-- Title: G Pages: 1 -->
<svg width="755pt" height="1220pt"
 viewBox="0.00 0.00 754.50 1220.00" xmlns="http://www.w3.org/2000/svg" xmlns:xlink="http://www.w3.org/1999/xlink">
<g id="graph0" class="graph" transform="scale(1 1) rotate(0) translate(4 1216)">
<title>G</title>
<polygon fill="black" stroke="transparent" points="-4,4 -4,-1216 750.5,-1216 750.5,4 -4,4"/>
<text text-anchor="middle" x="319.5" y="-1196.8" font-family="Times,serif" font-size="14.00" fill="white">For tooltips with advanced information, hover your mouse over vertices or edge labels.</text>
<!-- 129825915471440 -->
<g id="node1" class="node">
<title>129825915471440</title>
<g id="a_node1"><a xlink:title="Output: 45 rows in 1 chunk filtered: 0, 8 µs 844 ns.">
<polygon fill="none" stroke="white" points="259.5,-1157 112.5,-1157 112.5,-1088 259.5,-1088 259.5,-1157"/>
<text text-anchor="middle" x="186" y="-1141.8" font-family="Times,serif" font-size="14.00" fill="white">Alias</text>
<text text-anchor="middle" x="186" y="-1126.8" font-family="Times,serif" font-size="14.00" fill="white">[c_count, custdist]</text>
<text text-anchor="middle" x="186" y="-1095.8" font-family="Times,serif" font-size="14.00" fill="white">8 µs 844 ns</text>
</a>
</g>
</g>
<!-- 129825915471120 -->
<g id="node2" class="node">
<title>129825915471120</title>
<g id="a_node2"><a xlink:title="Output: 45 rows in 1 chunk filtered: 0, 68 µs 748 ns.&#10;Operator step runtimes:&#10; MaterializeSortColumns 28 µs 770 ns&#10; Sort 7 µs 755 ns&#10; TemporaryResultWriting 992 ns&#10; WriteOutput 25 µs 30 ns.">
<polygon fill="none" stroke="white" points="240,-1037 132,-1037 132,-983 240,-983 240,-1037"/>
<text text-anchor="middle" x="186" y="-1021.8" font-family="Times,serif" font-size="14.00" fill="white">Sort</text>
<text text-anchor="middle" x="186" y="-990.8" font-family="Times,serif" font-size="14.00" fill="white">68 µs 748 ns</text>
</a>
</g>
</g>
<!-- 129825915471120&#45;&gt;129825915471440 -->
<g id="edge1" class="edge">
<title>129825915471120&#45;&gt;129825915471440</title>
<path fill="none" stroke="white" d="M186,-1037.19C186,-1049.29 186,-1064 186,-1077.72"/>
<polygon fill="white" stroke="white" points="182.5,-1077.95 186,-1087.95 189.5,-1077.96 182.5,-1077.95"/>
<text text-anchor="middle" x="259.5" y="-1058.8" font-family="Times,serif" font-size="14.00" fill="white">45 row(s)/1 chunk(s)</text>
</g>
<!-- 129964747063824 -->
<g id="node3" class="node">
<title>129964747063824</title>
<g id="a_node3"><a xlink:title="Output: 45 rows in 1 chunk filtered: 0, 276 ms 703 µs.&#10;Operator step runtimes:&#10; GroupByKeyPartitioning 141 ms 169 µs&#10; Aggregating 135 ms 327 µs&#10; GroupByColumnsWriting 30 µs 787 ns&#10; AggregateColumnsWriting 24 µs 629 ns&#10; OutputWriting 16 µs 683 ns.">
<polygon fill="none" stroke="white" points="309,-932 63,-932 63,-848 309,-848 309,-932"/>
<text text-anchor="middle" x="186" y="-916.8" font-family="Times,serif" font-size="14.00" fill="white">AggregateHash</text>
<text text-anchor="middle" x="186" y="-901.8" font-family="Times,serif" font-size="14.00" fill="white">GroupBy {COUNT(o_orderkey)}</text>
<text text-anchor="middle" x="186" y="-886.8" font-family="Times,serif" font-size="14.00" fill="white">COUNT(*)</text>
<text text-anchor="middle" x="186" y="-855.8" font-family="Times,serif" font-size="14.00" fill="white">276 ms 703 µs</text>
</a>
</g>
</g>
<!-- 129964747063824&#45;&gt;129825915471120 -->
<g id="edge2" class="edge">
<title>129964747063824&#45;&gt;129825915471120</title>
<path fill="none" stroke="white" d="M186,-932.27C186,-945.36 186,-959.72 186,-972.45"/>
<polygon fill="white" stroke="white" points="182.5,-972.69 186,-982.69 189.5,-972.69 182.5,-972.69"/>
<text text-anchor="middle" x="259.5" y="-953.8" font-family="Times,serif" font-size="14.00" fill="white">45 row(s)/1 chunk(s)</text>
</g>
<!-- 129825915470800 -->
<g id="node4" class="node">
<title>129825915470800</title>
<g id="a_node4"><a xlink:title="Output: 15000000 rows in 229 chunks filtered: 0, 156 µs 871 ns.">
<polygon fill="none" stroke="white" points="264.5,-797 107.5,-797 107.5,-728 264.5,-728 264.5,-797"/>
<text text-anchor="middle" x="186" y="-781.8" font-family="Times,serif" font-size="14.00" fill="white">Alias</text>
<text text-anchor="middle" x="186" y="-766.8" font-family="Times,serif" font-size="14.00" fill="white">[c_custkey, c_count]</text>
<text text-anchor="middle" x="186" y="-735.8" font-family="Times,serif" font-size="14.00" fill="white">156 µs 871 ns</text>
</a>
</g>
</g>
<!-- 129825915470800&#45;&gt;129964747063824 -->
<g id="edge3" class="edge">
<title>129825915470800&#45;&gt;129964747063824</title>
<path fill="none" stroke="white" stroke-width="2.27" d="M186,-797.13C186,-809.51 186,-823.84 186,-837.44"/>
<polygon fill="white" stroke="white" stroke-width="2.27" points="182.5,-837.65 186,-847.65 189.5,-837.65 182.5,-837.65"/>
<text text-anchor="middle" x="300" y="-818.8" font-family="Times,serif" font-size="14.00" fill="white">15,000,000 row(s)/229 chunk(s)</text>
</g>
<!-- 129964747063312 -->
<g id="node5" class="node">
<title>129964747063312</title>
<g id="a_node5"><a xlink:title="Output: 15000000 rows in 229 chunks filtered: 0, 28 s 319 ms.&#10;Operator step runtimes:&#10; GroupByKeyPartitioning 1 s 398 ms&#10; Aggregating 26 s 879 ms&#10; GroupByColumnsWriting 33 ms 734 µs&#10; AggregateColumnsWriting 8 ms 273 µs&#10; OutputWriting 280 µs 655 ns.">
<polygon fill="none" stroke="white" stroke-width="8" points="271.5,-677 100.5,-677 100.5,-593 271.5,-593 271.5,-677"/>
<text text-anchor="middle" x="186" y="-661.8" font-family="Times,serif" font-size="14.00" fill="white">AggregateHash</text>
<text text-anchor="middle" x="186" y="-646.8" font-family="Times,serif" font-size="14.00" fill="white">GroupBy {c_custkey}</text>
<text text-anchor="middle" x="186" y="-631.8" font-family="Times,serif" font-size="14.00" fill="white">COUNT(o_orderkey)</text>
<text text-anchor="middle" x="186" y="-600.8" font-family="Times,serif" font-size="14.00" fill="white">28 s 319 ms</text>
</a>
</g>
</g>
<!-- 129964747063312&#45;&gt;129825915470800 -->
<g id="edge4" class="edge">
<title>129964747063312&#45;&gt;129825915470800</title>
<path fill="none" stroke="white" stroke-width="2.27" d="M186,-677.09C186,-690.07 186,-704.45 186,-717.61"/>
<polygon fill="white" stroke="white" stroke-width="2.27" points="182.5,-717.85 186,-727.85 189.5,-717.85 182.5,-717.85"/>
<text text-anchor="middle" x="300" y="-698.8" font-family="Times,serif" font-size="14.00" fill="white">15,000,000 row(s)/229 chunk(s)</text>
</g>
<!-- 129825915470480 -->
<g id="node6" class="node">
<title>129825915470480</title>
<g id="a_node6"><a xlink:title="Output: 153391145 rows in 256 chunks filtered: 0, 1 s 33 ms.&#10;Operator step runtimes:&#10; LeftSideMaterialize 11 ms 4 µs&#10; RightSideMaterialize 71 ms 101 µs&#10; LeftSideTransform 0 ns&#10; RightSideTransform 0 ns&#10; LeftSidePartition 11 ms 705 µs&#10; RightSidePartition 174 ms 814 µs&#10; LeftSideSortBuckets 11 ms 388 µs&#10; RightSideSortBuckets 110 ms 220 µs&#10; GatherRowIds 3 µs 904 ns&#10; FindJoinPartner 246 ms 885 µs&#10; OutputWriting 392 ms 962 µs.&#10;Radix bits: 8.">
<polygon fill="none" stroke="white" points="286.5,-542 85.5,-542 85.5,-473 286.5,-473 286.5,-542"/>
<text text-anchor="middle" x="186" y="-526.8" font-family="Times,serif" font-size="14.00" fill="white">JoinSimdSortMerge (Left)</text>
<text text-anchor="middle" x="186" y="-511.8" font-family="Times,serif" font-size="14.00" fill="white">c_custkey = o_custkey</text>
<text text-anchor="middle" x="186" y="-480.8" font-family="Times,serif" font-size="14.00" fill="white">1 s 33 ms</text>
</a>
</g>
</g>
<!-- 129825915470480&#45;&gt;129964747063312 -->
<g id="edge5" class="edge">
<title>129825915470480&#45;&gt;129964747063312</title>
<path fill="none" stroke="white" stroke-width="8" d="M186,-542.13C186,-554.51 186,-568.84 186,-582.44"/>
<polygon fill="white" stroke="white" stroke-width="8" points="179,-582.65 186,-592.65 193,-582.65 179,-582.65"/>
<text text-anchor="middle" x="304.5" y="-563.8" font-family="Times,serif" font-size="14.00" fill="white">153,391,145 row(s)/256 chunk(s)</text>
</g>
<!-- 129964746932752 -->
<g id="node7" class="node">
<title>129964746932752</title>
<g id="a_node7"><a xlink:title="Output: 15000000 rows in 229 chunks filtered: 0, 927 µs 584 ns.">
<polygon fill="none" stroke="white" points="119.5,-422 2.5,-422 2.5,-368 119.5,-368 119.5,-422"/>
<text text-anchor="middle" x="61" y="-406.8" font-family="Times,serif" font-size="14.00" fill="white">Validate</text>
<text text-anchor="middle" x="61" y="-375.8" font-family="Times,serif" font-size="14.00" fill="white">927 µs 584 ns</text>
</a>
</g>
</g>
<!-- 129964746932752&#45;&gt;129825915470480 -->
<g id="edge6" class="edge">
<title>129964746932752&#45;&gt;129825915470480</title>
<path fill="none" stroke="white" stroke-width="2.27" d="M55.45,-422.29C54.57,-433.25 55.61,-445.6 62,-455 66.23,-461.23 71.38,-466.71 77.13,-471.52"/>
<polygon fill="white" stroke="white" stroke-width="2.27" points="77.33,-471.67 75.23,-474.47 85.32,-477.69 77.33,-471.67"/>
<text text-anchor="middle" x="176" y="-443.8" font-family="Times,serif" font-size="14.00" fill="white">15,000,000 row(s)/229 chunk(s)</text>
</g>
<!-- 129815675208144 -->
<g id="node8" class="node">
<title>129815675208144</title>
<g id="a_node8"><a xlink:title="Output: 15000000 rows in 229 chunks filtered: 0, 680 µs 721 ns.">
<polygon fill="none" stroke="white" points="122,-317 0,-317 0,-203 122,-203 122,-317"/>
<text text-anchor="middle" x="61" y="-301.8" font-family="Times,serif" font-size="14.00" fill="white">GetTable</text>
<text text-anchor="middle" x="61" y="-286.8" font-family="Times,serif" font-size="14.00" fill="white">(customer)</text>
<text text-anchor="middle" x="61" y="-271.8" font-family="Times,serif" font-size="14.00" fill="white">pruned:</text>
<text text-anchor="middle" x="61" y="-256.8" font-family="Times,serif" font-size="14.00" fill="white">0/229 chunk(s)</text>
<text text-anchor="middle" x="61" y="-241.8" font-family="Times,serif" font-size="14.00" fill="white">7/8 column(s)</text>
<text text-anchor="middle" x="61" y="-210.8" font-family="Times,serif" font-size="14.00" fill="white">680 µs 721 ns</text>
</a>
</g>
</g>
<!-- 129815675208144&#45;&gt;129964746932752 -->
<g id="edge7" class="edge">
<title>129815675208144&#45;&gt;129964746932752</title>
<path fill="none" stroke="white" stroke-width="2.27" d="M61,-317.02C61,-330.77 61,-345.14 61,-357.69"/>
<polygon fill="white" stroke="white" stroke-width="2.27" points="57.5,-357.75 61,-367.75 64.5,-357.75 57.5,-357.75"/>
<text text-anchor="middle" x="175" y="-338.8" font-family="Times,serif" font-size="14.00" fill="white">15,000,000 row(s)/229 chunk(s)</text>
</g>
<!-- 129964746933008 -->
<g id="node9" class="node">
<title>129964746933008</title>
<g id="a_node9"><a xlink:title="Output: 148390963 rows in 2289 chunks filtered: 0, 4 ms 518 µs.">
<polygon fill="none" stroke="white" points="364,-422 260,-422 260,-368 364,-368 364,-422"/>
<text text-anchor="middle" x="312" y="-406.8" font-family="Times,serif" font-size="14.00" fill="white">Validate</text>
<text text-anchor="middle" x="312" y="-375.8" font-family="Times,serif" font-size="14.00" fill="white">4 ms 518 µs</text>
</a>
</g>
</g>
<!-- 129964746933008&#45;&gt;129825915470480 -->
<g id="edge8" class="edge">
<title>129964746933008&#45;&gt;129825915470480</title>
<path fill="none" stroke="white" stroke-width="7.92" d="M306.82,-422.08C303.53,-433.26 298.27,-445.83 290,-455 286.2,-459.21 281.99,-463.11 277.49,-466.73"/>
<polygon fill="white" stroke="white" stroke-width="7.92" points="269.11,-472.93 281.27,-472.55 277.15,-466.98 269.11,-472.93"/>
<text text-anchor="middle" x="425" y="-443.8" font-family="Times,serif" font-size="14.00" fill="white">148,390,963 row(s)/2,289 chunk(s)</text>
</g>
<!-- 129825915470160 -->
<g id="node10" class="node">
<title>129825915470160</title>
<g id="a_node10"><a xlink:title="Output: 148390963 rows in 2289 chunks filtered: 0, 381 ms 341 µs.&#10;Chunks: 0 skipped with no results, &#10;0 skipped with all matching, 0 scanned using binary search.">
<polygon fill="none" stroke="white" points="481.5,-302 142.5,-302 142.5,-218 481.5,-218 481.5,-302"/>
<text text-anchor="middle" x="312" y="-286.8" font-family="Times,serif" font-size="14.00" fill="white">TableScan</text>
<text text-anchor="middle" x="312" y="-271.8" font-family="Times,serif" font-size="14.00" fill="white">Impl: ColumnLike</text>
<text text-anchor="middle" x="312" y="-256.8" font-family="Times,serif" font-size="14.00" fill="white">o_comment NOT LIKE &#39;%special%accounts%&#39;</text>
<text text-anchor="middle" x="312" y="-225.8" font-family="Times,serif" font-size="14.00" fill="white">381 ms 341 µs</text>
</a>
</g>
</g>
<!-- 129825915470160&#45;&gt;129964746933008 -->
<g id="edge9" class="edge">
<title>129825915470160&#45;&gt;129964746933008</title>
<path fill="none" stroke="white" stroke-width="7.92" d="M312,-302.35C312,-320.03 312,-340.5 312,-357.6"/>
<polygon fill="white" stroke="white" stroke-width="7.92" points="305.07,-357.75 312,-367.75 318.93,-357.75 305.07,-357.75"/>
<text text-anchor="middle" x="437" y="-338.8" font-family="Times,serif" font-size="14.00" fill="white">148,390,963 row(s)/2,289 chunk(s)</text>
</g>
<!-- 129815675208592 -->
<g id="node11" class="node">
<title>129815675208592</title>
<g id="a_node11"><a xlink:title="Output: 150000000 rows in 2289 chunks filtered: 0, 6 ms 546 µs.">
<polygon fill="none" stroke="white" points="377.5,-133 246.5,-133 246.5,-19 377.5,-19 377.5,-133"/>
<text text-anchor="middle" x="312" y="-117.8" font-family="Times,serif" font-size="14.00" fill="white">GetTable</text>
<text text-anchor="middle" x="312" y="-102.8" font-family="Times,serif" font-size="14.00" fill="white">(orders)</text>
<text text-anchor="middle" x="312" y="-87.8" font-family="Times,serif" font-size="14.00" fill="white">pruned:</text>
<text text-anchor="middle" x="312" y="-72.8" font-family="Times,serif" font-size="14.00" fill="white">0/2289 chunk(s)</text>
<text text-anchor="middle" x="312" y="-57.8" font-family="Times,serif" font-size="14.00" fill="white">6/9 column(s)</text>
<text text-anchor="middle" x="312" y="-26.8" font-family="Times,serif" font-size="14.00" fill="white">6 ms 546 µs</text>
</a>
</g>
</g>
<!-- 129815675208592&#45;&gt;129825915470160 -->
<g id="edge10" class="edge">
<title>129815675208592&#45;&gt;129825915470160</title>
<path fill="none" stroke="white" stroke-width="7.94" d="M312,-133.09C312,-156.93 312,-184.53 312,-207.81"/>
<polygon fill="white" stroke="white" stroke-width="7.94" points="305.05,-207.83 312,-217.83 318.95,-207.83 305.05,-207.83"/>
<text text-anchor="middle" x="437" y="-173.8" font-family="Times,serif" font-size="14.00" fill="white">150,000,000 row(s)/2,289 chunk(s)</text>
</g>
<!-- 0 -->
<g id="node12" class="node">
<title>0</title>
<polygon fill="none" stroke="white" points="395.5,-0.5 395.5,-151.5 746.5,-151.5 746.5,-0.5 395.5,-0.5"/>
<text text-anchor="middle" x="571" y="-136.3" font-family="Times,serif" font-size="14.00" fill="white">Total by operator</text>
<polyline fill="none" stroke="white" points="395.5,-128.5 746.5,-128.5 "/>
<text text-anchor="end" x="554.5" y="-113.3" font-family="Times,serif" font-size="14.00" fill="white">AggregateHash </text>
<text text-anchor="end" x="554.5" y="-98.3" font-family="Times,serif" font-size="14.00" fill="white"> JoinSimdSortMerge </text>
<text text-anchor="end" x="554.5" y="-83.3" font-family="Times,serif" font-size="14.00" fill="white"> TableScan </text>
<text text-anchor="end" x="554.5" y="-68.3" font-family="Times,serif" font-size="14.00" fill="white"> GetTable </text>
<text text-anchor="end" x="554.5" y="-53.3" font-family="Times,serif" font-size="14.00" fill="white"> Validate </text>
<text text-anchor="end" x="554.5" y="-38.3" font-family="Times,serif" font-size="14.00" fill="white"> Alias </text>
<text text-anchor="end" x="554.5" y="-23.3" font-family="Times,serif" font-size="14.00" fill="white"> Sort </text>
<text text-anchor="end" x="554.5" y="-8.3" font-family="Times,serif" font-size="14.00" fill="white">total</text>
<polyline fill="none" stroke="white" points="562.5,-0.5 562.5,-128.5 "/>
<text text-anchor="start" x="570.5" y="-113.3" font-family="Times,serif" font-size="14.00" fill="white">28 s 596 ms </text>
<text text-anchor="start" x="570.5" y="-98.3" font-family="Times,serif" font-size="14.00" fill="white"> 1 s 33 ms </text>
<text text-anchor="start" x="570.5" y="-83.3" font-family="Times,serif" font-size="14.00" fill="white"> 381 ms 341 µs </text>
<text text-anchor="start" x="570.5" y="-68.3" font-family="Times,serif" font-size="14.00" fill="white"> 7 ms 227 µs </text>
<text text-anchor="start" x="570.5" y="-53.3" font-family="Times,serif" font-size="14.00" fill="white"> 5 ms 445 µs </text>
<text text-anchor="start" x="570.5" y="-38.3" font-family="Times,serif" font-size="14.00" fill="white"> 165 µs 715 ns </text>
<text text-anchor="start" x="570.5" y="-23.3" font-family="Times,serif" font-size="14.00" fill="white"> 68 µs 748 ns </text>
<text text-anchor="start" x="570.5" y="-8.3" font-family="Times,serif" font-size="14.00" fill="white"> 30 s 24 ms </text>
<polyline fill="none" stroke="white" points="693.5,-0.5 693.5,-128.5 "/>
<text text-anchor="start" x="701.5" y="-113.3" font-family="Times,serif" font-size="14.00" fill="white">95 %</text>
<text text-anchor="start" x="701.5" y="-98.3" font-family="Times,serif" font-size="14.00" fill="white">3 %</text>
<text text-anchor="start" x="701.5" y="-83.3" font-family="Times,serif" font-size="14.00" fill="white">1 %</text>
<text text-anchor="start" x="701.5" y="-68.3" font-family="Times,serif" font-size="14.00" fill="white">0 %</text>
<text text-anchor="start" x="701.5" y="-53.3" font-family="Times,serif" font-size="14.00" fill="white">0 %</text>
<text text-anchor="start" x="701.5" y="-38.3" font-family="Times,serif" font-size="14.00" fill="white">0 %</text>
<text text-anchor="start" x="701.5" y="-23.3" font-family="Times,serif" font-size="14.00" fill="white">0 %</text>
<text text-anchor="start" x="701.5" y="-8.3" font-family="Times,serif" font-size="14.00" fill="white"> </text>
</g>
</g>
</svg>
