<?xml version="1.0" encoding="UTF-8" standalone="no"?>
<!DOCTYPE svg PUBLIC "-//W3C//DTD SVG 1.1//EN"
 "http://www.w3.org/Graphics/SVG/1.1/DTD/svg11.dtd">
<!-- Generated by graphviz version 2.43.0 (0)
 -->
<!-- Title: G Pages: 1 -->
<svg width="1421pt" height="1165pt"
 viewBox="0.00 0.00 1420.50 1165.00" xmlns="http://www.w3.org/2000/svg" xmlns:xlink="http://www.w3.org/1999/xlink">
<g id="graph0" class="graph" transform="scale(1 1) rotate(0) translate(4 1161)">
<title>G</title>
<polygon fill="black" stroke="transparent" points="-4,4 -4,-1161 1416.5,-1161 1416.5,4 -4,4"/>
<text text-anchor="middle" x="319.5" y="-1141.8" font-family="Times,serif" font-size="14.00" fill="white">For tooltips with advanced information, hover your mouse over vertices or edge labels.</text>
<!-- 281382641285008 -->
<g id="node1" class="node">
<title>281382641285008</title>
<polygon fill="none" stroke="white" points="794,-1102 491,-1102 491,-1064 794,-1064 794,-1102"/>
<text text-anchor="middle" x="642.5" y="-1086.8" font-family="Times,serif" font-size="14.00" fill="white">[Alias] ps_partkey, SUM(ps_supplycost *</text>
<text text-anchor="middle" x="642.5" y="-1071.8" font-family="Times,serif" font-size="14.00" fill="white">ps_availqty) AS value</text>
</g>
<!-- 281416999315216 -->
<g id="node2" class="node">
<title>281416999315216</title>
<polygon fill="none" stroke="white" points="795,-1013 490,-1013 490,-975 795,-975 795,-1013"/>
<text text-anchor="middle" x="642.5" y="-997.8" font-family="Times,serif" font-size="14.00" fill="white">[Sort] SUM(ps_supplycost * ps_availqty)</text>
<text text-anchor="middle" x="642.5" y="-982.8" font-family="Times,serif" font-size="14.00" fill="white">(Descending)</text>
</g>
<!-- 281416999315216&#45;&gt;281382641285008 -->
<g id="edge1" class="edge">
<title>281416999315216&#45;&gt;281382641285008</title>
<path fill="none" stroke="white" d="M642.5,-1013.03C642.5,-1024.81 642.5,-1040.44 642.5,-1053.84"/>
<polygon fill="white" stroke="white" points="639,-1054 642.5,-1064 646,-1054 639,-1054"/>
<g id="a_edge1&#45;label"><a xlink:title="Output Expressions: &#10; (1) ps_partkey&#10; (2) SUM(ps_supplycost * ps_availqty) NULL&#10;&#10;Unique Column Combinations: &#10; (1) {ps_partkey}&#10;&#10;Functional Dependencies (trivial): &#10; (1) {ps_partkey} =&gt; {SUM(ps_supplycost * ps_availqty)}&#10;&#10;Functional Dependencies (non&#45;trivial): &#10; &lt;none&gt;">
<text text-anchor="middle" x="766" y="-1034.8" font-family="Times,serif" font-size="14.00" fill="white"> 3,200,000.0 row(s) | 100.0% estd.</text>
</a>
</g>
</g>
<!-- 281403061060240 -->
<g id="node3" class="node">
<title>281403061060240</title>
<polygon fill="none" stroke="white" points="822,-924 463,-924 463,-886 822,-886 822,-924"/>
<text text-anchor="middle" x="642.5" y="-908.8" font-family="Times,serif" font-size="14.00" fill="white">[Predicate] SUM(ps_supplycost * ps_availqty) &gt;</text>
<text text-anchor="middle" x="642.5" y="-893.8" font-family="Times,serif" font-size="14.00" fill="white">SUBQUERY (LQP, 0xfff1c0b262d0)</text>
</g>
<!-- 281403061060240&#45;&gt;281416999315216 -->
<g id="edge2" class="edge">
<title>281403061060240&#45;&gt;281416999315216</title>
<path fill="none" stroke="white" d="M642.5,-924.03C642.5,-935.81 642.5,-951.44 642.5,-964.84"/>
<polygon fill="white" stroke="white" points="639,-965 642.5,-975 646,-965 639,-965"/>
<g id="a_edge2&#45;label"><a xlink:title="Output Expressions: &#10; (1) ps_partkey&#10; (2) SUM(ps_supplycost * ps_availqty) NULL&#10;&#10;Unique Column Combinations: &#10; (1) {ps_partkey}&#10;&#10;Functional Dependencies (trivial): &#10; (1) {ps_partkey} =&gt; {SUM(ps_supplycost * ps_availqty)}&#10;&#10;Functional Dependencies (non&#45;trivial): &#10; &lt;none&gt;">
<text text-anchor="middle" x="766" y="-945.8" font-family="Times,serif" font-size="14.00" fill="white"> 3,200,000.0 row(s) | 100.0% estd.</text>
</a>
</g>
</g>
<!-- 281397679733072 -->
<g id="node4" class="node">
<title>281397679733072</title>
<polygon fill="none" stroke="white" points="633,-835 276,-835 276,-797 633,-797 633,-835"/>
<text text-anchor="middle" x="454.5" y="-819.8" font-family="Times,serif" font-size="14.00" fill="white">[Aggregate] GroupBy: [ps_partkey] Aggregates:</text>
<text text-anchor="middle" x="454.5" y="-804.8" font-family="Times,serif" font-size="14.00" fill="white">[SUM(ps_supplycost * ps_availqty)]</text>
</g>
<!-- 281397679733072&#45;&gt;281403061060240 -->
<g id="edge3" class="edge">
<title>281397679733072&#45;&gt;281403061060240</title>
<path fill="none" stroke="white" d="M479.51,-835.21C494.84,-845.78 515.17,-858.79 534.5,-868 545.76,-873.37 558.04,-878.28 570.14,-882.63"/>
<polygon fill="white" stroke="white" points="569.19,-886 579.79,-885.99 571.5,-879.39 569.19,-886"/>
<g id="a_edge3&#45;label"><a xlink:title="Output Expressions: &#10; (1) ps_partkey&#10; (2) SUM(ps_supplycost * ps_availqty) NULL&#10;&#10;Unique Column Combinations: &#10; (1) {ps_partkey}&#10;&#10;Functional Dependencies (trivial): &#10; (1) {ps_partkey} =&gt; {SUM(ps_supplycost * ps_availqty)}&#10;&#10;Functional Dependencies (non&#45;trivial): &#10; &lt;none&gt;">
<text text-anchor="middle" x="658" y="-856.8" font-family="Times,serif" font-size="14.00" fill="white"> 3,200,000.0 row(s) | 100.0% estd.</text>
</a>
</g>
</g>
<!-- 281413785116592 -->
<g id="node5" class="node">
<title>281413785116592</title>
<polygon fill="none" stroke="white" points="605.5,-746 303.5,-746 303.5,-708 605.5,-708 605.5,-746"/>
<text text-anchor="middle" x="454.5" y="-730.8" font-family="Times,serif" font-size="14.00" fill="white">[Projection] ps_supplycost * ps_availqty,</text>
<text text-anchor="middle" x="454.5" y="-715.8" font-family="Times,serif" font-size="14.00" fill="white">ps_partkey</text>
</g>
<!-- 281413785116592&#45;&gt;281397679733072 -->
<g id="edge4" class="edge">
<title>281413785116592&#45;&gt;281397679733072</title>
<path fill="none" stroke="white" d="M454.5,-746.03C454.5,-757.81 454.5,-773.44 454.5,-786.84"/>
<polygon fill="white" stroke="white" points="451,-787 454.5,-797 458,-787 451,-787"/>
<g id="a_edge4&#45;label"><a xlink:title="Output Expressions: &#10; (1) ps_supplycost * ps_availqty&#10; (2) ps_partkey&#10;&#10;Unique Column Combinations: &#10; &lt;none&gt;&#10;&#10;Functional Dependencies (trivial): &#10; &lt;none&gt;&#10;&#10;Functional Dependencies (non&#45;trivial): &#10; &lt;none&gt;">
<text text-anchor="middle" x="578" y="-767.8" font-family="Times,serif" font-size="14.00" fill="white"> 3,200,000.0 row(s) | 100.0% estd.</text>
</a>
</g>
</g>
<!-- 281413785116272 -->
<g id="node6" class="node">
<title>281413785116272</title>
<polygon fill="none" stroke="white" points="497,-657 412,-657 412,-621 497,-621 497,-657"/>
<text text-anchor="middle" x="454.5" y="-635.3" font-family="Times,serif" font-size="14.00" fill="white">[Validate]</text>
</g>
<!-- 281413785116272&#45;&gt;281413785116592 -->
<g id="edge5" class="edge">
<title>281413785116272&#45;&gt;281413785116592</title>
<path fill="none" stroke="white" d="M454.5,-657.4C454.5,-668.94 454.5,-684.35 454.5,-697.64"/>
<polygon fill="white" stroke="white" points="451,-697.73 454.5,-707.73 458,-697.73 451,-697.73"/>
<g id="a_edge5&#45;label"><a xlink:title="Output Expressions: &#10; (1) ps_partkey&#10; (2) ps_suppkey&#10; (3) ps_availqty&#10; (4) ps_supplycost&#10;&#10;Unique Column Combinations: &#10; (1) {ps_partkey, ps_suppkey}&#10;&#10;Functional Dependencies (trivial): &#10; (1) {ps_partkey, ps_suppkey} =&gt; {ps_availqty, ps_supplycost}&#10;&#10;Functional Dependencies (non&#45;trivial): &#10; &lt;none&gt;">
<text text-anchor="middle" x="578" y="-678.8" font-family="Times,serif" font-size="14.00" fill="white"> 3,200,000.0 row(s) | 100.0% estd.</text>
</a>
</g>
</g>
<!-- 281421342317712 -->
<g id="node7" class="node">
<title>281421342317712</title>
<polygon fill="none" stroke="white" points="622,-570 287,-570 287,-534 622,-534 622,-570"/>
<text text-anchor="middle" x="454.5" y="-548.3" font-family="Times,serif" font-size="14.00" fill="white">[Join] Mode: Semi [ps_suppkey = s_suppkey]</text>
</g>
<!-- 281421342317712&#45;&gt;281413785116272 -->
<g id="edge6" class="edge">
<title>281421342317712&#45;&gt;281413785116272</title>
<path fill="none" stroke="white" d="M454.5,-570.2C454.5,-581.84 454.5,-597.45 454.5,-610.76"/>
<polygon fill="white" stroke="white" points="451,-610.82 454.5,-620.82 458,-610.82 451,-610.82"/>
<g id="a_edge6&#45;label"><a xlink:title="Output Expressions: &#10; (1) ps_partkey&#10; (2) ps_suppkey&#10; (3) ps_availqty&#10; (4) ps_supplycost&#10;&#10;Unique Column Combinations: &#10; (1) {ps_partkey, ps_suppkey}&#10;&#10;Functional Dependencies (trivial): &#10; (1) {ps_partkey, ps_suppkey} =&gt; {ps_availqty, ps_supplycost}&#10;&#10;Functional Dependencies (non&#45;trivial): &#10; &lt;none&gt;">
<text text-anchor="middle" x="569" y="-591.8" font-family="Times,serif" font-size="14.00" fill="white"> 3,200,000.0 row(s) | 4.0% estd.</text>
</a>
</g>
</g>
<!-- 281413780548816 -->
<g id="node8" class="node">
<title>281413780548816</title>
<polygon fill="none" stroke="white" points="355,-483 0,-483 0,-445 355,-445 355,-483"/>
<text text-anchor="middle" x="177.5" y="-467.8" font-family="Times,serif" font-size="14.00" fill="white">[StoredTable] Name: &#39;partsupp&#39; pruned: 0/1221</text>
<text text-anchor="middle" x="177.5" y="-452.8" font-family="Times,serif" font-size="14.00" fill="white">chunk(s), 1/5 column(s)</text>
</g>
<!-- 281413780548816&#45;&gt;281421342317712 -->
<g id="edge7" class="edge">
<title>281413780548816&#45;&gt;281421342317712</title>
<path fill="none" stroke="white" stroke-width="8" d="M179.17,-483.05C181.2,-494.26 185.67,-508 195.5,-516 209.74,-527.58 240.84,-535.34 276.72,-540.53"/>
<polygon fill="white" stroke="white" stroke-width="8" points="277.05,-540.58 276.11,-547.51 286.96,-541.93 277.05,-540.58"/>
<g id="a_edge7&#45;label"><a xlink:title="Output Expressions: &#10; (1) ps_partkey&#10; (2) ps_suppkey&#10; (3) ps_availqty&#10; (4) ps_supplycost&#10;&#10;Unique Column Combinations: &#10; (1) {ps_partkey, ps_suppkey}&#10;&#10;Functional Dependencies (trivial): &#10; (1) {ps_partkey, ps_suppkey} =&gt; {ps_availqty, ps_supplycost}&#10;&#10;Functional Dependencies (non&#45;trivial): &#10; &lt;none&gt;">
<text text-anchor="middle" x="323.5" y="-504.8" font-family="Times,serif" font-size="14.00" fill="white"> 80,000,000.0 row(s) | 100.0% estd.</text>
</a>
</g>
</g>
<!-- 281413785116112 -->
<g id="node9" class="node">
<title>281413785116112</title>
<polygon fill="none" stroke="white" points="499,-482 414,-482 414,-446 499,-446 499,-482"/>
<text text-anchor="middle" x="456.5" y="-460.3" font-family="Times,serif" font-size="14.00" fill="white">[Validate]</text>
</g>
<!-- 281413785116112&#45;&gt;281421342317712 -->
<g id="edge8" class="edge">
<title>281413785116112&#45;&gt;281421342317712</title>
<path fill="none" stroke="white" d="M456.1,-482.4C455.82,-494.25 455.45,-510.18 455.13,-523.71"/>
<polygon fill="white" stroke="white" points="454.9,-533.92 458.63,-524 455.13,-523.92 454.9,-533.92"/>
<g id="a_edge8&#45;label"><a xlink:title="Output Expressions: &#10; (1) s_suppkey&#10; (2) s_nationkey&#10;&#10;Unique Column Combinations: &#10; (1) {s_suppkey}&#10;&#10;Functional Dependencies (trivial): &#10; (1) {s_suppkey} =&gt; {s_nationkey}&#10;&#10;Functional Dependencies (non&#45;trivial): &#10; &lt;none&gt;">
<text text-anchor="middle" x="569" y="-504.8" font-family="Times,serif" font-size="14.00" fill="white"> 40,000.0 row(s) | 100.0% estd.</text>
</a>
</g>
</g>
<!-- 281413809647824 -->
<g id="node10" class="node">
<title>281413809647824</title>
<polygon fill="none" stroke="white" points="631,-393 282,-393 282,-357 631,-357 631,-393"/>
<text text-anchor="middle" x="456.5" y="-371.3" font-family="Times,serif" font-size="14.00" fill="white">[Join] Mode: Semi [s_nationkey = n_nationkey]</text>
</g>
<!-- 281413809647824&#45;&gt;281413785116112 -->
<g id="edge9" class="edge">
<title>281413809647824&#45;&gt;281413785116112</title>
<path fill="none" stroke="white" d="M456.5,-393.19C456.5,-405.34 456.5,-421.89 456.5,-435.82"/>
<polygon fill="white" stroke="white" points="453,-435.85 456.5,-445.85 460,-435.85 453,-435.85"/>
<g id="a_edge9&#45;label"><a xlink:title="Output Expressions: &#10; (1) s_suppkey&#10; (2) s_nationkey&#10;&#10;Unique Column Combinations: &#10; (1) {s_suppkey}&#10;&#10;Functional Dependencies (trivial): &#10; (1) {s_suppkey} =&gt; {s_nationkey}&#10;&#10;Functional Dependencies (non&#45;trivial): &#10; &lt;none&gt;">
<text text-anchor="middle" x="560" y="-415.8" font-family="Times,serif" font-size="14.00" fill="white"> 40,000.0 row(s) | 4.0% estd.</text>
</a>
</g>
</g>
<!-- 281413780549136 -->
<g id="node11" class="node">
<title>281413780549136</title>
<polygon fill="none" stroke="white" points="509,-305 178,-305 178,-267 509,-267 509,-305"/>
<text text-anchor="middle" x="343.5" y="-289.8" font-family="Times,serif" font-size="14.00" fill="white">[StoredTable] Name: &#39;supplier&#39; pruned: 0/16</text>
<text text-anchor="middle" x="343.5" y="-274.8" font-family="Times,serif" font-size="14.00" fill="white">chunk(s), 5/7 column(s)</text>
</g>
<!-- 281413780549136&#45;&gt;281413809647824 -->
<g id="edge10" class="edge">
<title>281413780549136&#45;&gt;281413809647824</title>
<path fill="none" stroke="white" d="M338.99,-305.19C337.48,-315.76 337.63,-328.76 344.5,-338 348.34,-343.16 352.93,-347.6 358.03,-351.41"/>
<polygon fill="white" stroke="white" points="358.06,-351.43 356.14,-354.36 366.43,-356.9 358.06,-351.43"/>
<g id="a_edge10&#45;label"><a xlink:title="Output Expressions: &#10; (1) s_suppkey&#10; (2) s_nationkey&#10;&#10;Unique Column Combinations: &#10; (1) {s_suppkey}&#10;&#10;Functional Dependencies (trivial): &#10; (1) {s_suppkey} =&gt; {s_nationkey}&#10;&#10;Functional Dependencies (non&#45;trivial): &#10; &lt;none&gt;">
<text text-anchor="middle" x="468" y="-326.8" font-family="Times,serif" font-size="14.00" fill="white"> 1,000,000.0 row(s) | 100.0% estd.</text>
</a>
</g>
</g>
<!-- 281413785108112 -->
<g id="node12" class="node">
<title>281413785108112</title>
<polygon fill="none" stroke="white" points="656,-304 571,-304 571,-268 656,-268 656,-304"/>
<text text-anchor="middle" x="613.5" y="-282.3" font-family="Times,serif" font-size="14.00" fill="white">[Validate]</text>
</g>
<!-- 281413785108112&#45;&gt;281413809647824 -->
<g id="edge11" class="edge">
<title>281413785108112&#45;&gt;281413809647824</title>
<path fill="none" stroke="white" d="M610.07,-304.46C607.02,-315.57 601.43,-329.43 591.5,-338 584.83,-343.76 577.33,-348.61 569.38,-352.69"/>
<polygon fill="white" stroke="white" points="560.23,-356.98 570.77,-355.9 569.28,-352.73 560.23,-356.98"/>
<g id="a_edge11&#45;label"><a xlink:title="Output Expressions: &#10; (1) n_nationkey&#10; (2) n_name&#10;&#10;Unique Column Combinations: &#10; (1) {n_nationkey}&#10;&#10;Functional Dependencies (trivial): &#10; (1) {n_nationkey} =&gt; {n_name}&#10;&#10;Functional Dependencies (non&#45;trivial): &#10; &lt;none&gt;">
<text text-anchor="middle" x="694.5" y="-326.8" font-family="Times,serif" font-size="14.00" fill="white"> 1.0 row(s) | 100.0% estd.</text>
</a>
</g>
</g>
<!-- 281413809681232 -->
<g id="node13" class="node">
<title>281413809681232</title>
<polygon fill="none" stroke="white" points="723.5,-215 503.5,-215 503.5,-179 723.5,-179 723.5,-215"/>
<text text-anchor="middle" x="613.5" y="-193.3" font-family="Times,serif" font-size="14.00" fill="white">[Predicate] n_name = &#39;IRAQ&#39;</text>
</g>
<!-- 281413809681232&#45;&gt;281413785108112 -->
<g id="edge12" class="edge">
<title>281413809681232&#45;&gt;281413785108112</title>
<path fill="none" stroke="white" d="M613.5,-215.19C613.5,-227.34 613.5,-243.89 613.5,-257.82"/>
<polygon fill="white" stroke="white" points="610,-257.85 613.5,-267.85 617,-257.85 610,-257.85"/>
<g id="a_edge12&#45;label"><a xlink:title="Output Expressions: &#10; (1) n_nationkey&#10; (2) n_name&#10;&#10;Unique Column Combinations: &#10; (1) {n_nationkey}&#10;&#10;Functional Dependencies (trivial): &#10; (1) {n_nationkey} =&gt; {n_name}&#10;&#10;Functional Dependencies (non&#45;trivial): &#10; &lt;none&gt;">
<text text-anchor="middle" x="696.5" y="-237.8" font-family="Times,serif" font-size="14.00" fill="white"> 1.0 row(s) | 4.0% estd.</text>
</a>
</g>
</g>
<!-- 281413780549456 -->
<g id="node14" class="node">
<title>281413780549456</title>
<polygon fill="none" stroke="white" points="802.5,-127 424.5,-127 424.5,-89 802.5,-89 802.5,-127"/>
<text text-anchor="middle" x="613.5" y="-111.8" font-family="Times,serif" font-size="14.00" fill="white">[StoredTable] Name: &#39;nation&#39; pruned: 0/1 chunk(s),</text>
<text text-anchor="middle" x="613.5" y="-96.8" font-family="Times,serif" font-size="14.00" fill="white">2/4 column(s)</text>
</g>
<!-- 281413780549456&#45;&gt;281413809681232 -->
<g id="edge13" class="edge">
<title>281413780549456&#45;&gt;281413809681232</title>
<path fill="none" stroke="white" d="M613.5,-127.03C613.5,-139.04 613.5,-155.07 613.5,-168.64"/>
<polygon fill="white" stroke="white" points="610,-168.88 613.5,-178.88 617,-168.88 610,-168.88"/>
<g id="a_edge13&#45;label"><a xlink:title="Output Expressions: &#10; (1) n_nationkey&#10; (2) n_name&#10;&#10;Unique Column Combinations: &#10; (1) {n_nationkey}&#10;&#10;Functional Dependencies (trivial): &#10; (1) {n_nationkey} =&gt; {n_name}&#10;&#10;Functional Dependencies (non&#45;trivial): &#10; &lt;none&gt;">
<text text-anchor="middle" x="710" y="-148.8" font-family="Times,serif" font-size="14.00" fill="white"> 25.0 row(s) | 100.0% estd.</text>
</a>
</g>
</g>
<!-- 281413785117392 -->
<g id="node15" class="node">
<title>281413785117392</title>
<polygon fill="none" stroke="white" points="1009.5,-835 651.5,-835 651.5,-797 1009.5,-797 1009.5,-835"/>
<text text-anchor="middle" x="830.5" y="-819.8" font-family="Times,serif" font-size="14.00" fill="white">[Projection] SUM(ps_supplycost * ps_availqty) *</text>
<text text-anchor="middle" x="830.5" y="-804.8" font-family="Times,serif" font-size="14.00" fill="white">1e&#45;06</text>
</g>
<!-- 281413785117392&#45;&gt;281403061060240 -->
<g id="edge14" class="edge">
<title>281413785117392&#45;&gt;281403061060240</title>
<path fill="none" stroke="white" stroke-dasharray="5,2" d="M817.4,-835.05C808.46,-846.11 795.7,-859.69 781.5,-868 771.77,-873.7 761.13,-878.5 750.21,-882.56"/>
<polygon fill="white" stroke="white" points="748.85,-879.33 740.57,-885.93 751.16,-885.93 748.85,-879.33"/>
<text text-anchor="middle" x="882" y="-856.8" font-family="Times,serif" font-size="14.00" fill="white">uncorrelated subquery</text>
</g>
<!-- 281436457546960 -->
<g id="node16" class="node">
<title>281436457546960</title>
<polygon fill="none" stroke="white" points="970,-746 691,-746 691,-708 970,-708 970,-746"/>
<text text-anchor="middle" x="830.5" y="-730.8" font-family="Times,serif" font-size="14.00" fill="white">[Aggregate] GroupBy: [] Aggregates:</text>
<text text-anchor="middle" x="830.5" y="-715.8" font-family="Times,serif" font-size="14.00" fill="white">[SUM(ps_supplycost * ps_availqty)]</text>
</g>
<!-- 281436457546960&#45;&gt;281413785117392 -->
<g id="edge15" class="edge">
<title>281436457546960&#45;&gt;281413785117392</title>
<path fill="none" stroke="white" d="M830.5,-746.03C830.5,-757.81 830.5,-773.44 830.5,-786.84"/>
<polygon fill="white" stroke="white" points="827,-787 830.5,-797 834,-787 827,-787"/>
<g id="a_edge15&#45;label"><a xlink:title="Output Expressions: &#10; (1) SUM(ps_supplycost * ps_availqty) NULL&#10;&#10;Unique Column Combinations: &#10; &lt;none&gt;&#10;&#10;Functional Dependencies (trivial): &#10; &lt;none&gt;&#10;&#10;Functional Dependencies (non&#45;trivial): &#10; &lt;none&gt;">
<text text-anchor="middle" x="954" y="-767.8" font-family="Times,serif" font-size="14.00" fill="white"> 3,200,000.0 row(s) | 100.0% estd.</text>
</a>
</g>
</g>
<!-- 281413785117232 -->
<g id="node17" class="node">
<title>281413785117232</title>
<polygon fill="none" stroke="white" points="980.5,-657 680.5,-657 680.5,-621 980.5,-621 980.5,-657"/>
<text text-anchor="middle" x="830.5" y="-635.3" font-family="Times,serif" font-size="14.00" fill="white">[Projection] ps_supplycost * ps_availqty</text>
</g>
<!-- 281413785117232&#45;&gt;281436457546960 -->
<g id="edge16" class="edge">
<title>281413785117232&#45;&gt;281436457546960</title>
<path fill="none" stroke="white" d="M830.5,-657.4C830.5,-668.94 830.5,-684.35 830.5,-697.64"/>
<polygon fill="white" stroke="white" points="827,-697.73 830.5,-707.73 834,-697.73 827,-697.73"/>
<g id="a_edge16&#45;label"><a xlink:title="Output Expressions: &#10; (1) ps_supplycost * ps_availqty&#10;&#10;Unique Column Combinations: &#10; &lt;none&gt;&#10;&#10;Functional Dependencies (trivial): &#10; &lt;none&gt;&#10;&#10;Functional Dependencies (non&#45;trivial): &#10; &lt;none&gt;">
<text text-anchor="middle" x="954" y="-678.8" font-family="Times,serif" font-size="14.00" fill="white"> 3,200,000.0 row(s) | 100.0% estd.</text>
</a>
</g>
</g>
<!-- 281413785117072 -->
<g id="node18" class="node">
<title>281413785117072</title>
<polygon fill="none" stroke="white" points="873,-570 788,-570 788,-534 873,-534 873,-570"/>
<text text-anchor="middle" x="830.5" y="-548.3" font-family="Times,serif" font-size="14.00" fill="white">[Validate]</text>
</g>
<!-- 281413785117072&#45;&gt;281413785117232 -->
<g id="edge17" class="edge">
<title>281413785117072&#45;&gt;281413785117232</title>
<path fill="none" stroke="white" d="M830.5,-570.2C830.5,-581.84 830.5,-597.45 830.5,-610.76"/>
<polygon fill="white" stroke="white" points="827,-610.82 830.5,-620.82 834,-610.82 827,-610.82"/>
<g id="a_edge17&#45;label"><a xlink:title="Output Expressions: &#10; (1) ps_partkey&#10; (2) ps_suppkey&#10; (3) ps_availqty&#10; (4) ps_supplycost&#10;&#10;Unique Column Combinations: &#10; (1) {ps_partkey, ps_suppkey}&#10;&#10;Functional Dependencies (trivial): &#10; (1) {ps_partkey, ps_suppkey} =&gt; {ps_availqty, ps_supplycost}&#10;&#10;Functional Dependencies (non&#45;trivial): &#10; &lt;none&gt;">
<text text-anchor="middle" x="954" y="-591.8" font-family="Times,serif" font-size="14.00" fill="white"> 3,200,000.0 row(s) | 100.0% estd.</text>
</a>
</g>
</g>
<!-- 281426672331920 -->
<g id="node19" class="node">
<title>281426672331920</title>
<polygon fill="none" stroke="white" points="998,-482 663,-482 663,-446 998,-446 998,-482"/>
<text text-anchor="middle" x="830.5" y="-460.3" font-family="Times,serif" font-size="14.00" fill="white">[Join] Mode: Semi [ps_suppkey = s_suppkey]</text>
</g>
<!-- 281426672331920&#45;&gt;281413785117072 -->
<g id="edge18" class="edge">
<title>281426672331920&#45;&gt;281413785117072</title>
<path fill="none" stroke="white" d="M830.5,-482.4C830.5,-494.25 830.5,-510.18 830.5,-523.71"/>
<polygon fill="white" stroke="white" points="827,-523.92 830.5,-533.92 834,-523.92 827,-523.92"/>
<g id="a_edge18&#45;label"><a xlink:title="Output Expressions: &#10; (1) ps_partkey&#10; (2) ps_suppkey&#10; (3) ps_availqty&#10; (4) ps_supplycost&#10;&#10;Unique Column Combinations: &#10; (1) {ps_partkey, ps_suppkey}&#10;&#10;Functional Dependencies (trivial): &#10; (1) {ps_partkey, ps_suppkey} =&gt; {ps_availqty, ps_supplycost}&#10;&#10;Functional Dependencies (non&#45;trivial): &#10; &lt;none&gt;">
<text text-anchor="middle" x="945" y="-504.8" font-family="Times,serif" font-size="14.00" fill="white"> 3,200,000.0 row(s) | 4.0% estd.</text>
</a>
</g>
</g>
<!-- 281413780549776 -->
<g id="node20" class="node">
<title>281413780549776</title>
<polygon fill="none" stroke="white" points="1007,-394 652,-394 652,-356 1007,-356 1007,-394"/>
<text text-anchor="middle" x="829.5" y="-378.8" font-family="Times,serif" font-size="14.00" fill="white">[StoredTable] Name: &#39;partsupp&#39; pruned: 0/1221</text>
<text text-anchor="middle" x="829.5" y="-363.8" font-family="Times,serif" font-size="14.00" fill="white">chunk(s), 1/5 column(s)</text>
</g>
<!-- 281413780549776&#45;&gt;281426672331920 -->
<g id="edge19" class="edge">
<title>281413780549776&#45;&gt;281426672331920</title>
<path fill="none" stroke="white" stroke-width="8" d="M829.71,-394.03C829.85,-406.04 830.03,-422.07 830.19,-435.64"/>
<polygon fill="white" stroke="white" stroke-width="8" points="830.19,-435.89 823.19,-435.97 830.3,-445.88 830.19,-435.89"/>
<g id="a_edge19&#45;label"><a xlink:title="Output Expressions: &#10; (1) ps_partkey&#10; (2) ps_suppkey&#10; (3) ps_availqty&#10; (4) ps_supplycost&#10;&#10;Unique Column Combinations: &#10; (1) {ps_partkey, ps_suppkey}&#10;&#10;Functional Dependencies (trivial): &#10; (1) {ps_partkey, ps_suppkey} =&gt; {ps_availqty, ps_supplycost}&#10;&#10;Functional Dependencies (non&#45;trivial): &#10; &lt;none&gt;">
<text text-anchor="middle" x="958.5" y="-415.8" font-family="Times,serif" font-size="14.00" fill="white"> 80,000,000.0 row(s) | 100.0% estd.</text>
</a>
</g>
</g>
<!-- 281413785116912 -->
<g id="node21" class="node">
<title>281413785116912</title>
<polygon fill="none" stroke="white" points="1151,-393 1066,-393 1066,-357 1151,-357 1151,-393"/>
<text text-anchor="middle" x="1108.5" y="-371.3" font-family="Times,serif" font-size="14.00" fill="white">[Validate]</text>
</g>
<!-- 281413785116912&#45;&gt;281426672331920 -->
<g id="edge20" class="edge">
<title>281413785116912&#45;&gt;281426672331920</title>
<path fill="none" stroke="white" d="M1105.53,-393.37C1102.65,-404.74 1097.08,-418.93 1086.5,-427 1072.45,-437.71 1042.83,-445.24 1008.55,-450.53"/>
<polygon fill="white" stroke="white" points="998.27,-452.04 1008.67,-454.05 1008.17,-450.59 998.27,-452.04"/>
<g id="a_edge20&#45;label"><a xlink:title="Output Expressions: &#10; (1) s_suppkey&#10; (2) s_nationkey&#10;&#10;Unique Column Combinations: &#10; (1) {s_suppkey}&#10;&#10;Functional Dependencies (trivial): &#10; (1) {s_suppkey} =&gt; {s_nationkey}&#10;&#10;Functional Dependencies (non&#45;trivial): &#10; &lt;none&gt;">
<text text-anchor="middle" x="1212" y="-415.8" font-family="Times,serif" font-size="14.00" fill="white"> 40,000.0 row(s) | 100.0% estd.</text>
</a>
</g>
</g>
<!-- 281437968491024 -->
<g id="node22" class="node">
<title>281437968491024</title>
<polygon fill="none" stroke="white" points="1283,-304 934,-304 934,-268 1283,-268 1283,-304"/>
<text text-anchor="middle" x="1108.5" y="-282.3" font-family="Times,serif" font-size="14.00" fill="white">[Join] Mode: Semi [s_nationkey = n_nationkey]</text>
</g>
<!-- 281437968491024&#45;&gt;281413785116912 -->
<g id="edge21" class="edge">
<title>281437968491024&#45;&gt;281413785116912</title>
<path fill="none" stroke="white" d="M1108.5,-304.19C1108.5,-316.34 1108.5,-332.89 1108.5,-346.82"/>
<polygon fill="white" stroke="white" points="1105,-346.85 1108.5,-356.85 1112,-346.85 1105,-346.85"/>
<g id="a_edge21&#45;label"><a xlink:title="Output Expressions: &#10; (1) s_suppkey&#10; (2) s_nationkey&#10;&#10;Unique Column Combinations: &#10; (1) {s_suppkey}&#10;&#10;Functional Dependencies (trivial): &#10; (1) {s_suppkey} =&gt; {s_nationkey}&#10;&#10;Functional Dependencies (non&#45;trivial): &#10; &lt;none&gt;">
<text text-anchor="middle" x="1212" y="-326.8" font-family="Times,serif" font-size="14.00" fill="white"> 40,000.0 row(s) | 4.0% estd.</text>
</a>
</g>
</g>
<!-- 281413780550096 -->
<g id="node23" class="node">
<title>281413780550096</title>
<polygon fill="none" stroke="white" points="1115,-216 784,-216 784,-178 1115,-178 1115,-216"/>
<text text-anchor="middle" x="949.5" y="-200.8" font-family="Times,serif" font-size="14.00" fill="white">[StoredTable] Name: &#39;supplier&#39; pruned: 0/16</text>
<text text-anchor="middle" x="949.5" y="-185.8" font-family="Times,serif" font-size="14.00" fill="white">chunk(s), 5/7 column(s)</text>
</g>
<!-- 281413780550096&#45;&gt;281437968491024 -->
<g id="edge22" class="edge">
<title>281413780550096&#45;&gt;281437968491024</title>
<path fill="none" stroke="white" d="M942.79,-216.37C940.17,-226.99 939.29,-240.01 946.5,-249 951.59,-255.35 962.32,-260.64 975.95,-265.05"/>
<polygon fill="white" stroke="white" points="976.22,-265.13 975.23,-268.48 985.81,-267.95 976.22,-265.13"/>
<g id="a_edge22&#45;label"><a xlink:title="Output Expressions: &#10; (1) s_suppkey&#10; (2) s_nationkey&#10;&#10;Unique Column Combinations: &#10; (1) {s_suppkey}&#10;&#10;Functional Dependencies (trivial): &#10; (1) {s_suppkey} =&gt; {s_nationkey}&#10;&#10;Functional Dependencies (non&#45;trivial): &#10; &lt;none&gt;">
<text text-anchor="middle" x="1070" y="-237.8" font-family="Times,serif" font-size="14.00" fill="white"> 1,000,000.0 row(s) | 100.0% estd.</text>
</a>
</g>
</g>
<!-- 281413785116752 -->
<g id="node24" class="node">
<title>281413785116752</title>
<polygon fill="none" stroke="white" points="1262,-215 1177,-215 1177,-179 1262,-179 1262,-215"/>
<text text-anchor="middle" x="1219.5" y="-193.3" font-family="Times,serif" font-size="14.00" fill="white">[Validate]</text>
</g>
<!-- 281413785116752&#45;&gt;281437968491024 -->
<g id="edge23" class="edge">
<title>281413785116752&#45;&gt;281437968491024</title>
<path fill="none" stroke="white" d="M1215.71,-215.07C1212.5,-226.01 1206.88,-239.83 1197.5,-249 1191.88,-254.49 1185.32,-259.18 1178.35,-263.17"/>
<polygon fill="white" stroke="white" points="1169.34,-267.87 1179.83,-266.35 1178.21,-263.25 1169.34,-267.87"/>
<g id="a_edge23&#45;label"><a xlink:title="Output Expressions: &#10; (1) n_nationkey&#10; (2) n_name&#10;&#10;Unique Column Combinations: &#10; (1) {n_nationkey}&#10;&#10;Functional Dependencies (trivial): &#10; (1) {n_nationkey} =&gt; {n_name}&#10;&#10;Functional Dependencies (non&#45;trivial): &#10; &lt;none&gt;">
<text text-anchor="middle" x="1299.5" y="-237.8" font-family="Times,serif" font-size="14.00" fill="white"> 1.0 row(s) | 100.0% estd.</text>
</a>
</g>
</g>
<!-- 281398745881168 -->
<g id="node25" class="node">
<title>281398745881168</title>
<polygon fill="none" stroke="white" points="1329.5,-126 1109.5,-126 1109.5,-90 1329.5,-90 1329.5,-126"/>
<text text-anchor="middle" x="1219.5" y="-104.3" font-family="Times,serif" font-size="14.00" fill="white">[Predicate] n_name = &#39;IRAQ&#39;</text>
</g>
<!-- 281398745881168&#45;&gt;281413785116752 -->
<g id="edge24" class="edge">
<title>281398745881168&#45;&gt;281413785116752</title>
<path fill="none" stroke="white" d="M1219.5,-126.19C1219.5,-138.34 1219.5,-154.89 1219.5,-168.82"/>
<polygon fill="white" stroke="white" points="1216,-168.85 1219.5,-178.85 1223,-168.85 1216,-168.85"/>
<g id="a_edge24&#45;label"><a xlink:title="Output Expressions: &#10; (1) n_nationkey&#10; (2) n_name&#10;&#10;Unique Column Combinations: &#10; (1) {n_nationkey}&#10;&#10;Functional Dependencies (trivial): &#10; (1) {n_nationkey} =&gt; {n_name}&#10;&#10;Functional Dependencies (non&#45;trivial): &#10; &lt;none&gt;">
<text text-anchor="middle" x="1302.5" y="-148.8" font-family="Times,serif" font-size="14.00" fill="white"> 1.0 row(s) | 4.0% estd.</text>
</a>
</g>
</g>
<!-- 281413780550416 -->
<g id="node26" class="node">
<title>281413780550416</title>
<polygon fill="none" stroke="white" points="1408.5,-38 1030.5,-38 1030.5,0 1408.5,0 1408.5,-38"/>
<text text-anchor="middle" x="1219.5" y="-22.8" font-family="Times,serif" font-size="14.00" fill="white">[StoredTable] Name: &#39;nation&#39; pruned: 0/1 chunk(s),</text>
<text text-anchor="middle" x="1219.5" y="-7.8" font-family="Times,serif" font-size="14.00" fill="white">2/4 column(s)</text>
</g>
<!-- 281413780550416&#45;&gt;281398745881168 -->
<g id="edge25" class="edge">
<title>281413780550416&#45;&gt;281398745881168</title>
<path fill="none" stroke="white" d="M1219.5,-38.03C1219.5,-50.04 1219.5,-66.07 1219.5,-79.64"/>
<polygon fill="white" stroke="white" points="1216,-79.88 1219.5,-89.88 1223,-79.88 1216,-79.88"/>
<g id="a_edge25&#45;label"><a xlink:title="Output Expressions: &#10; (1) n_nationkey&#10; (2) n_name&#10;&#10;Unique Column Combinations: &#10; (1) {n_nationkey}&#10;&#10;Functional Dependencies (trivial): &#10; (1) {n_nationkey} =&gt; {n_name}&#10;&#10;Functional Dependencies (non&#45;trivial): &#10; &lt;none&gt;">
<text text-anchor="middle" x="1316" y="-59.8" font-family="Times,serif" font-size="14.00" fill="white"> 25.0 row(s) | 100.0% estd.</text>
</a>
</g>
</g>
</g>
</svg>
