<?xml version="1.0" encoding="UTF-8" standalone="no"?>
<!DOCTYPE svg PUBLIC "-//W3C//DTD SVG 1.1//EN"
 "http://www.w3.org/Graphics/SVG/1.1/DTD/svg11.dtd">
<!-- Generated by graphviz version 2.43.0 (0)
 -->
<!-- Title: G Pages: 1 -->
<svg width="842pt" height="1610pt"
 viewBox="0.00 0.00 841.50 1610.00" xmlns="http://www.w3.org/2000/svg" xmlns:xlink="http://www.w3.org/1999/xlink">
<g id="graph0" class="graph" transform="scale(1 1) rotate(0) translate(4 1606)">
<title>G</title>
<polygon fill="black" stroke="transparent" points="-4,4 -4,-1606 837.5,-1606 837.5,4 -4,4"/>
<text text-anchor="middle" x="319.5" y="-1586.8" font-family="Times,serif" font-size="14.00" fill="white">For tooltips with advanced information, hover your mouse over vertices or edge labels.</text>
<!-- 281422369918096 -->
<g id="node1" class="node">
<title>281422369918096</title>
<g id="a_node1"><a xlink:title="Output: 1 row in 1 chunk, 1 µs 920 ns.">
<polygon fill="none" stroke="white" points="247.5,-1547 143.5,-1547 143.5,-1478 247.5,-1478 247.5,-1547"/>
<text text-anchor="middle" x="195.5" y="-1531.8" font-family="Times,serif" font-size="14.00" fill="white">Alias</text>
<text text-anchor="middle" x="195.5" y="-1516.8" font-family="Times,serif" font-size="14.00" fill="white">[avg_yearly]</text>
<text text-anchor="middle" x="195.5" y="-1485.8" font-family="Times,serif" font-size="14.00" fill="white">1 µs 920 ns</text>
</a>
</g>
</g>
<!-- 281422369917776 -->
<g id="node2" class="node">
<title>281422369917776</title>
<g id="a_node2"><a xlink:title="Output: 1 row in 1 chunk, 17 µs 856 ns.&#10;Operator step runtimes:&#10; ForwardUnmodifiedColumns 832 ns&#10; EvaluateNewColumns 7 µs 936 ns&#10; BuildOutput 7 µs 360 ns.">
<polygon fill="none" stroke="white" points="249.5,-1427 141.5,-1427 141.5,-1373 249.5,-1373 249.5,-1427"/>
<text text-anchor="middle" x="195.5" y="-1411.8" font-family="Times,serif" font-size="14.00" fill="white">Projection</text>
<text text-anchor="middle" x="195.5" y="-1380.8" font-family="Times,serif" font-size="14.00" fill="white">17 µs 856 ns</text>
</a>
</g>
</g>
<!-- 281422369917776&#45;&gt;281422369918096 -->
<g id="edge1" class="edge">
<title>281422369917776&#45;&gt;281422369918096</title>
<path fill="none" stroke="white" d="M195.5,-1427.19C195.5,-1439.29 195.5,-1454 195.5,-1467.72"/>
<polygon fill="white" stroke="white" points="192,-1467.95 195.5,-1477.95 199,-1467.96 192,-1467.95"/>
<text text-anchor="middle" x="264.5" y="-1448.8" font-family="Times,serif" font-size="14.00" fill="white">1 row(s)/1 chunk(s)</text>
</g>
<!-- 281422363430416 -->
<g id="node3" class="node">
<title>281422363430416</title>
<g id="a_node3"><a xlink:title="Output: 1 row in 1 chunk, 4 ms 334 µs.&#10;Operator step runtimes:&#10; GroupByKeyPartitioning 32 ns&#10; Aggregating 4 ms 315 µs&#10; GroupByColumnsWriting 896 ns&#10; AggregateColumnsWriting 9 µs 376 ns&#10; OutputWriting 4 µs 352 ns.">
<polygon fill="none" stroke="white" stroke-width="1.43" points="283.5,-1322 107.5,-1322 107.5,-1238 283.5,-1238 283.5,-1322"/>
<text text-anchor="middle" x="195.5" y="-1306.8" font-family="Times,serif" font-size="14.00" fill="white">AggregateHash</text>
<text text-anchor="middle" x="195.5" y="-1291.8" font-family="Times,serif" font-size="14.00" fill="white">GroupBy {}</text>
<text text-anchor="middle" x="195.5" y="-1276.8" font-family="Times,serif" font-size="14.00" fill="white">SUM(l_extendedprice)</text>
<text text-anchor="middle" x="195.5" y="-1245.8" font-family="Times,serif" font-size="14.00" fill="white">4 ms 334 µs</text>
</a>
</g>
</g>
<!-- 281422363430416&#45;&gt;281422369917776 -->
<g id="edge2" class="edge">
<title>281422363430416&#45;&gt;281422369917776</title>
<path fill="none" stroke="white" d="M195.5,-1322.27C195.5,-1335.36 195.5,-1349.72 195.5,-1362.45"/>
<polygon fill="white" stroke="white" points="192,-1362.69 195.5,-1372.69 199,-1362.69 192,-1362.69"/>
<text text-anchor="middle" x="264.5" y="-1343.8" font-family="Times,serif" font-size="14.00" fill="white">1 row(s)/1 chunk(s)</text>
</g>
<!-- 281422369917456 -->
<g id="node4" class="node">
<title>281422369917456</title>
<g id="a_node4"><a xlink:title="Output: 5687 rows in 12 chunks, 35 ms 269 µs.&#10;Operator step runtimes:&#10; LeftSideMaterialize 1 ms 909 µs&#10; RightSideMaterialize 384 µs 4 ns&#10; LeftSideTransform 0 ns&#10; RightSideTransform 0 ns&#10; LeftSidePartition 1 ms 174 µs&#10; RightSidePartition 530 µs 503 ns&#10; LeftSideSortBuckets 460 µs 678 ns&#10; RightSideSortBuckets 444 µs 38 ns&#10; GatherRowIds 416 ns&#10; FindJoinPartner 30 ms 1 µs&#10; OutputWriting 207 µs 458 ns.">
<polygon fill="none" stroke="white" stroke-width="6.6" points="344,-1187 47,-1187 47,-1103 344,-1103 344,-1187"/>
<text text-anchor="middle" x="195.5" y="-1171.8" font-family="Times,serif" font-size="14.00" fill="white">JoinSimdSortMerge (Semi)</text>
<text text-anchor="middle" x="195.5" y="-1156.8" font-family="Times,serif" font-size="14.00" fill="white">p_partkey = l_partkey</text>
<text text-anchor="middle" x="195.5" y="-1141.8" font-family="Times,serif" font-size="14.00" fill="white">AND l_quantity &lt; 0.2 * AVG(l_quantity)</text>
<text text-anchor="middle" x="195.5" y="-1110.8" font-family="Times,serif" font-size="14.00" fill="white">35 ms 269 µs</text>
</a>
</g>
</g>
<!-- 281422369917456&#45;&gt;281422363430416 -->
<g id="edge3" class="edge">
<title>281422369917456&#45;&gt;281422363430416</title>
<path fill="none" stroke="white" d="M195.5,-1187.35C195.5,-1200.11 195.5,-1214.32 195.5,-1227.67"/>
<polygon fill="white" stroke="white" points="192,-1227.67 195.5,-1237.67 199,-1227.67 192,-1227.67"/>
<text text-anchor="middle" x="284.5" y="-1208.8" font-family="Times,serif" font-size="14.00" fill="white">5,687 row(s)/12 chunk(s)</text>
</g>
<!-- 281422369916816 -->
<g id="node5" class="node">
<title>281422369916816</title>
<g id="a_node5"><a xlink:title="Output: 63033 rows in 100 chunks, 9 ms 444 µs.&#10;Operator step runtimes:&#10; LeftSideMaterialize 5 ms 88 µs&#10; RightSideMaterialize 468 µs 422 ns&#10; LeftSideTransform 0 ns&#10; RightSideTransform 0 ns&#10; LeftSidePartition 1 ms 176 µs&#10; RightSidePartition 589 µs 671 ns&#10; LeftSideSortBuckets 456 µs 357 ns&#10; RightSideSortBuckets 451 µs 430 ns&#10; GatherRowIds 864 ns&#10; FindJoinPartner 466 µs 278 ns&#10; OutputWriting 559 µs 47 ns.">
<polygon fill="none" stroke="white" stroke-width="3.35" points="404,-939.5 193,-939.5 193,-870.5 404,-870.5 404,-939.5"/>
<text text-anchor="middle" x="298.5" y="-924.3" font-family="Times,serif" font-size="14.00" fill="white">JoinSimdSortMerge (Inner)</text>
<text text-anchor="middle" x="298.5" y="-909.3" font-family="Times,serif" font-size="14.00" fill="white">l_partkey = p_partkey</text>
<text text-anchor="middle" x="298.5" y="-878.3" font-family="Times,serif" font-size="14.00" fill="white">9 ms 444 µs</text>
</a>
</g>
</g>
<!-- 281422369916816&#45;&gt;281422369917456 -->
<g id="edge4" class="edge">
<title>281422369916816&#45;&gt;281422369917456</title>
<path fill="none" stroke="white" d="M301.17,-939.82C302.57,-977.78 299.96,-1039.95 273.5,-1085 271.43,-1088.52 269.06,-1091.91 266.47,-1095.14"/>
<polygon fill="white" stroke="white" points="266.23,-1095.4 263.62,-1093.08 259.6,-1102.88 266.23,-1095.4"/>
<text text-anchor="middle" x="397.5" y="-1021.3" font-family="Times,serif" font-size="14.00" fill="white">63,033 row(s)/100 chunk(s)</text>
</g>
<!-- 281422365721104 -->
<g id="node6" class="node">
<title>281422365721104</title>
<g id="a_node6"><a xlink:title="Output: 63033 rows in 100 chunks, 309 µs 827 ns.">
<polygon fill="none" stroke="white" points="243,-812 126,-812 126,-758 243,-758 243,-812"/>
<text text-anchor="middle" x="184.5" y="-796.8" font-family="Times,serif" font-size="14.00" fill="white">Validate</text>
<text text-anchor="middle" x="184.5" y="-765.8" font-family="Times,serif" font-size="14.00" fill="white">309 µs 827 ns</text>
</a>
</g>
</g>
<!-- 281422365721104&#45;&gt;281422369916816 -->
<g id="edge5" class="edge">
<title>281422365721104&#45;&gt;281422369916816</title>
<path fill="none" stroke="white" d="M243.07,-805C255.49,-811.31 267.53,-819.5 276.5,-830 283.83,-838.58 288.72,-849.53 291.98,-860.35"/>
<polygon fill="white" stroke="white" points="292.02,-860.51 288.63,-861.39 294.54,-870.19 292.02,-860.51"/>
<text text-anchor="middle" x="384.5" y="-833.8" font-family="Times,serif" font-size="14.00" fill="white">63,033 row(s)/100 chunk(s)</text>
</g>
<!-- 281422363431952 -->
<g id="node14" class="node">
<title>281422363431952</title>
<g id="a_node14"><a xlink:title="Output: 2094 rows in 1 chunk, 62 ms 255 µs.&#10;Operator step runtimes:&#10; GroupByKeyPartitioning 31 ms 956 µs&#10; Aggregating 30 ms 210 µs&#10; GroupByColumnsWriting 55 µs 713 ns&#10; AggregateColumnsWriting 17 µs 280 ns&#10; OutputWriting 5 µs 472 ns.">
<polygon fill="none" stroke="white" stroke-width="8" points="169.5,-947 1.5,-947 1.5,-863 169.5,-863 169.5,-947"/>
<text text-anchor="middle" x="85.5" y="-931.8" font-family="Times,serif" font-size="14.00" fill="white">AggregateHash</text>
<text text-anchor="middle" x="85.5" y="-916.8" font-family="Times,serif" font-size="14.00" fill="white">GroupBy {l_partkey}</text>
<text text-anchor="middle" x="85.5" y="-901.8" font-family="Times,serif" font-size="14.00" fill="white">AVG(l_quantity)</text>
<text text-anchor="middle" x="85.5" y="-870.8" font-family="Times,serif" font-size="14.00" fill="white">62 ms 255 µs</text>
</a>
</g>
</g>
<!-- 281422365721104&#45;&gt;281422363431952 -->
<g id="edge6" class="edge">
<title>281422365721104&#45;&gt;281422363431952</title>
<path fill="none" stroke="white" d="M125.86,-797.59C108.3,-804.1 90.95,-814.23 80.5,-830 76.05,-836.72 74.07,-844.57 73.63,-852.61"/>
<polygon fill="white" stroke="white" points="70.13,-852.87 73.81,-862.81 77.13,-852.75 70.13,-852.87"/>
<text text-anchor="middle" x="178.5" y="-833.8" font-family="Times,serif" font-size="14.00" fill="white">63,033 row(s)/100 chunk(s)</text>
</g>
<!-- 281422369916496 -->
<g id="node7" class="node">
<title>281422369916496</title>
<g id="a_node7"><a xlink:title="Output: 63033 rows in 100 chunks, 22 ms 412 µs.&#10;Operator step runtimes:&#10; LeftSideMaterialize 16 ms 470 µs&#10; RightSideMaterialize 422 µs 949 ns&#10; LeftSideTransform 0 ns&#10; RightSideTransform 0 ns&#10; LeftSidePartition 2 ms 189 µs&#10; RightSidePartition 573 µs 255 ns&#10; LeftSideSortBuckets 440 µs 870 ns&#10; RightSideSortBuckets 433 µs 701 ns&#10; GatherRowIds 640 ns&#10; FindJoinPartner 456 µs 166 ns&#10; OutputWriting 500 µs 582 ns.">
<polygon fill="none" stroke="white" stroke-width="5.48" points="327,-707 42,-707 42,-638 327,-638 327,-707"/>
<text text-anchor="middle" x="184.5" y="-691.8" font-family="Times,serif" font-size="14.00" fill="white">JoinSimdSortMerge (Semi Reduction)</text>
<text text-anchor="middle" x="184.5" y="-676.8" font-family="Times,serif" font-size="14.00" fill="white">l_partkey = p_partkey</text>
<text text-anchor="middle" x="184.5" y="-645.8" font-family="Times,serif" font-size="14.00" fill="white">22 ms 412 µs</text>
</a>
</g>
</g>
<!-- 281422369916496&#45;&gt;281422365721104 -->
<g id="edge7" class="edge">
<title>281422369916496&#45;&gt;281422365721104</title>
<path fill="none" stroke="white" d="M184.5,-707.25C184.5,-720.07 184.5,-734.73 184.5,-747.77"/>
<polygon fill="white" stroke="white" points="181,-747.81 184.5,-757.81 188,-747.81 181,-747.81"/>
<text text-anchor="middle" x="282.5" y="-728.8" font-family="Times,serif" font-size="14.00" fill="white">63,033 row(s)/100 chunk(s)</text>
</g>
<!-- 281422372995088 -->
<g id="node8" class="node">
<title>281422372995088</title>
<g id="a_node8"><a xlink:title="Output: 59986052 rows in 916 chunks, 842 µs 987 ns.">
<polygon fill="none" stroke="white" points="131,-587 0,-587 0,-473 131,-473 131,-587"/>
<text text-anchor="middle" x="65.5" y="-571.8" font-family="Times,serif" font-size="14.00" fill="white">GetTable</text>
<text text-anchor="middle" x="65.5" y="-556.8" font-family="Times,serif" font-size="14.00" fill="white">(lineitem)</text>
<text text-anchor="middle" x="65.5" y="-541.8" font-family="Times,serif" font-size="14.00" fill="white">pruned:</text>
<text text-anchor="middle" x="65.5" y="-526.8" font-family="Times,serif" font-size="14.00" fill="white">0/916 chunk(s)</text>
<text text-anchor="middle" x="65.5" y="-511.8" font-family="Times,serif" font-size="14.00" fill="white">13/16 column(s)</text>
<text text-anchor="middle" x="65.5" y="-480.8" font-family="Times,serif" font-size="14.00" fill="white">842 µs 987 ns</text>
</a>
</g>
</g>
<!-- 281422372995088&#45;&gt;281422369916496 -->
<g id="edge8" class="edge">
<title>281422372995088&#45;&gt;281422369916496</title>
<path fill="none" stroke="white" stroke-width="8" d="M56.69,-587.07C57.36,-598.7 60.1,-610.34 66.5,-620 69.11,-623.93 72.08,-627.57 75.35,-630.92"/>
<polygon fill="white" stroke="white" stroke-width="8" points="75.56,-631.11 70.85,-636.28 82.95,-637.84 75.56,-631.11"/>
<text text-anchor="middle" x="180.5" y="-608.8" font-family="Times,serif" font-size="14.00" fill="white">59,986,052 row(s)/916 chunk(s)</text>
</g>
<!-- 281422365720848 -->
<g id="node9" class="node">
<title>281422365720848</title>
<g id="a_node9"><a xlink:title="Output: 2094 rows in 31 chunks, 82 µs 721 ns.">
<polygon fill="none" stroke="white" points="466.5,-557 358.5,-557 358.5,-503 466.5,-503 466.5,-557"/>
<text text-anchor="middle" x="412.5" y="-541.8" font-family="Times,serif" font-size="14.00" fill="white">Validate</text>
<text text-anchor="middle" x="412.5" y="-510.8" font-family="Times,serif" font-size="14.00" fill="white">82 µs 721 ns</text>
</a>
</g>
</g>
<!-- 281422365720848&#45;&gt;281422369916816 -->
<g id="edge10" class="edge">
<title>281422365720848&#45;&gt;281422369916816</title>
<path fill="none" stroke="white" d="M454.66,-557.18C470.57,-569.53 486.89,-585.8 495.5,-605 523.97,-668.53 901.64,-302.68 486.5,-845 468.74,-868.21 441.89,-882.49 414.01,-891.23"/>
<polygon fill="white" stroke="white" points="404.12,-894.1 414.69,-894.68 413.72,-891.31 404.12,-894.1"/>
<text text-anchor="middle" x="664.5" y="-728.8" font-family="Times,serif" font-size="14.00" fill="white">2,094 row(s)/31 chunk(s)</text>
</g>
<!-- 281422365720848&#45;&gt;281422369916496 -->
<g id="edge9" class="edge">
<title>281422365720848&#45;&gt;281422369916496</title>
<path fill="none" stroke="white" d="M379.57,-557.06C350.94,-579.47 311.48,-609.77 294.5,-620 286.87,-624.59 278.77,-629.07 270.55,-633.35"/>
<polygon fill="white" stroke="white" points="261.61,-637.91 272.11,-636.49 270.52,-633.37 261.61,-637.91"/>
<text text-anchor="middle" x="404.5" y="-608.8" font-family="Times,serif" font-size="14.00" fill="white">2,094 row(s)/31 chunk(s)</text>
</g>
<!-- 281422369916176 -->
<g id="node10" class="node">
<title>281422369916176</title>
<g id="a_node10"><a xlink:title="Output: 2094 rows in 31 chunks, 95 µs 457 ns.&#10;Chunks: 0 skipped with no results, &#10;0 skipped with all matching, 0 scanned using binary search.">
<polygon fill="none" stroke="white" points="500.5,-422 324.5,-422 324.5,-338 500.5,-338 500.5,-422"/>
<text text-anchor="middle" x="412.5" y="-406.8" font-family="Times,serif" font-size="14.00" fill="white">TableScan</text>
<text text-anchor="middle" x="412.5" y="-391.8" font-family="Times,serif" font-size="14.00" fill="white">Impl: ColumnVsValue</text>
<text text-anchor="middle" x="412.5" y="-376.8" font-family="Times,serif" font-size="14.00" fill="white">p_brand = &#39;Brand#45&#39;</text>
<text text-anchor="middle" x="412.5" y="-345.8" font-family="Times,serif" font-size="14.00" fill="white">95 µs 457 ns</text>
</a>
</g>
</g>
<!-- 281422369916176&#45;&gt;281422365720848 -->
<g id="edge11" class="edge">
<title>281422369916176&#45;&gt;281422365720848</title>
<path fill="none" stroke="white" d="M412.5,-422.23C412.5,-444.32 412.5,-471.31 412.5,-492.62"/>
<polygon fill="white" stroke="white" points="409,-492.88 412.5,-502.88 416,-492.88 409,-492.88"/>
<text text-anchor="middle" x="501.5" y="-443.8" font-family="Times,serif" font-size="14.00" fill="white">2,094 row(s)/31 chunk(s)</text>
</g>
<!-- 281422369915856 -->
<g id="node11" class="node">
<title>281422369915856</title>
<g id="a_node11"><a xlink:title="Output: 50003 rows in 31 chunks, 176 µs 643 ns.&#10;Chunks: 0 skipped with no results, &#10;0 skipped with all matching, 0 scanned using binary search.">
<polygon fill="none" stroke="white" points="520.5,-287 304.5,-287 304.5,-203 520.5,-203 520.5,-287"/>
<text text-anchor="middle" x="412.5" y="-271.8" font-family="Times,serif" font-size="14.00" fill="white">TableScan</text>
<text text-anchor="middle" x="412.5" y="-256.8" font-family="Times,serif" font-size="14.00" fill="white">Impl: ColumnVsValue</text>
<text text-anchor="middle" x="412.5" y="-241.8" font-family="Times,serif" font-size="14.00" fill="white">p_container = &#39;WRAP PACK&#39;</text>
<text text-anchor="middle" x="412.5" y="-210.8" font-family="Times,serif" font-size="14.00" fill="white">176 µs 643 ns</text>
</a>
</g>
</g>
<!-- 281422369915856&#45;&gt;281422369916176 -->
<g id="edge12" class="edge">
<title>281422369915856&#45;&gt;281422369916176</title>
<path fill="none" stroke="white" d="M412.5,-287.35C412.5,-300.11 412.5,-314.32 412.5,-327.67"/>
<polygon fill="white" stroke="white" points="409,-327.67 412.5,-337.67 416,-327.67 409,-327.67"/>
<text text-anchor="middle" x="506" y="-308.8" font-family="Times,serif" font-size="14.00" fill="white">50,003 row(s)/31 chunk(s)</text>
</g>
<!-- 281422372995536 -->
<g id="node12" class="node">
<title>281422372995536</title>
<g id="a_node12"><a xlink:title="Output: 2000000 rows in 31 chunks, 64 µs 512 ns.">
<polygon fill="none" stroke="white" points="469,-133 356,-133 356,-19 469,-19 469,-133"/>
<text text-anchor="middle" x="412.5" y="-117.8" font-family="Times,serif" font-size="14.00" fill="white">GetTable</text>
<text text-anchor="middle" x="412.5" y="-102.8" font-family="Times,serif" font-size="14.00" fill="white">(part)</text>
<text text-anchor="middle" x="412.5" y="-87.8" font-family="Times,serif" font-size="14.00" fill="white">pruned:</text>
<text text-anchor="middle" x="412.5" y="-72.8" font-family="Times,serif" font-size="14.00" fill="white">0/31 chunk(s)</text>
<text text-anchor="middle" x="412.5" y="-57.8" font-family="Times,serif" font-size="14.00" fill="white">6/9 column(s)</text>
<text text-anchor="middle" x="412.5" y="-26.8" font-family="Times,serif" font-size="14.00" fill="white">64 µs 512 ns</text>
</a>
</g>
</g>
<!-- 281422372995536&#45;&gt;281422369915856 -->
<g id="edge13" class="edge">
<title>281422372995536&#45;&gt;281422369915856</title>
<path fill="none" stroke="white" d="M412.5,-133.07C412.5,-152.34 412.5,-173.8 412.5,-192.67"/>
<polygon fill="white" stroke="white" points="409,-192.86 412.5,-202.86 416,-192.86 409,-192.86"/>
<text text-anchor="middle" x="517.5" y="-173.8" font-family="Times,serif" font-size="14.00" fill="white">2,000,000 row(s)/31 chunk(s)</text>
</g>
<!-- 281422369917136 -->
<g id="node13" class="node">
<title>281422369917136</title>
<g id="a_node13"><a xlink:title="Output: 2094 rows in 1 chunk, 49 µs 952 ns.&#10;Operator step runtimes:&#10; ForwardUnmodifiedColumns 3 µs 264 ns&#10; EvaluateNewColumns 25 µs 856 ns&#10; BuildOutput 17 µs 920 ns.">
<polygon fill="none" stroke="white" points="157.5,-1052 49.5,-1052 49.5,-998 157.5,-998 157.5,-1052"/>
<text text-anchor="middle" x="103.5" y="-1036.8" font-family="Times,serif" font-size="14.00" fill="white">Projection</text>
<text text-anchor="middle" x="103.5" y="-1005.8" font-family="Times,serif" font-size="14.00" fill="white">49 µs 952 ns</text>
</a>
</g>
</g>
<!-- 281422369917136&#45;&gt;281422369917456 -->
<g id="edge14" class="edge">
<title>281422369917136&#45;&gt;281422369917456</title>
<path fill="none" stroke="white" d="M98.77,-1052.07C98.08,-1062.87 99.04,-1075.14 104.5,-1085 106.5,-1088.6 108.82,-1092.02 111.39,-1095.26"/>
<polygon fill="white" stroke="white" points="118.27,-1102.94 114.21,-1093.15 111.6,-1095.49 118.27,-1102.94"/>
<text text-anchor="middle" x="189" y="-1073.8" font-family="Times,serif" font-size="14.00" fill="white">2,094 row(s)/1 chunk(s)</text>
</g>
<!-- 281422363431952&#45;&gt;281422369917136 -->
<g id="edge15" class="edge">
<title>281422363431952&#45;&gt;281422369917136</title>
<path fill="none" stroke="white" d="M91.8,-947.27C93.79,-960.36 95.98,-974.72 97.92,-987.45"/>
<polygon fill="white" stroke="white" points="94.52,-988.34 99.49,-997.69 101.44,-987.28 94.52,-988.34"/>
<text text-anchor="middle" x="182" y="-968.8" font-family="Times,serif" font-size="14.00" fill="white">2,094 row(s)/1 chunk(s)</text>
</g>
<!-- 0 -->
<g id="node15" class="node">
<title>0</title>
<polygon fill="none" stroke="white" points="487.5,-0.5 487.5,-151.5 833.5,-151.5 833.5,-0.5 487.5,-0.5"/>
<text text-anchor="middle" x="660.5" y="-136.3" font-family="Times,serif" font-size="14.00" fill="white">Total by operator</text>
<polyline fill="none" stroke="white" points="487.5,-128.5 833.5,-128.5 "/>
<text text-anchor="end" x="641.5" y="-113.3" font-family="Times,serif" font-size="14.00" fill="white">JoinSimdSortMerge </text>
<text text-anchor="end" x="641.5" y="-98.3" font-family="Times,serif" font-size="14.00" fill="white"> AggregateHash </text>
<text text-anchor="end" x="641.5" y="-83.3" font-family="Times,serif" font-size="14.00" fill="white"> GetTable </text>
<text text-anchor="end" x="641.5" y="-68.3" font-family="Times,serif" font-size="14.00" fill="white"> Validate </text>
<text text-anchor="end" x="641.5" y="-53.3" font-family="Times,serif" font-size="14.00" fill="white"> TableScan </text>
<text text-anchor="end" x="641.5" y="-38.3" font-family="Times,serif" font-size="14.00" fill="white"> Projection </text>
<text text-anchor="end" x="641.5" y="-23.3" font-family="Times,serif" font-size="14.00" fill="white"> Alias </text>
<text text-anchor="end" x="641.5" y="-8.3" font-family="Times,serif" font-size="14.00" fill="white">total</text>
<polyline fill="none" stroke="white" points="649.5,-0.5 649.5,-128.5 "/>
<text text-anchor="start" x="657.5" y="-113.3" font-family="Times,serif" font-size="14.00" fill="white">67 ms 126 µs </text>
<text text-anchor="start" x="657.5" y="-98.3" font-family="Times,serif" font-size="14.00" fill="white"> 66 ms 589 µs </text>
<text text-anchor="start" x="657.5" y="-83.3" font-family="Times,serif" font-size="14.00" fill="white"> 907 µs 499 ns </text>
<text text-anchor="start" x="657.5" y="-68.3" font-family="Times,serif" font-size="14.00" fill="white"> 392 µs 548 ns </text>
<text text-anchor="start" x="657.5" y="-53.3" font-family="Times,serif" font-size="14.00" fill="white"> 272 µs 100 ns </text>
<text text-anchor="start" x="657.5" y="-38.3" font-family="Times,serif" font-size="14.00" fill="white"> 67 µs 808 ns </text>
<text text-anchor="start" x="657.5" y="-23.3" font-family="Times,serif" font-size="14.00" fill="white"> 1 µs 920 ns </text>
<text text-anchor="start" x="657.5" y="-8.3" font-family="Times,serif" font-size="14.00" fill="white"> 135 ms 357 µs </text>
<polyline fill="none" stroke="white" points="780.5,-0.5 780.5,-128.5 "/>
<text text-anchor="start" x="788.5" y="-113.3" font-family="Times,serif" font-size="14.00" fill="white">50 %</text>
<text text-anchor="start" x="788.5" y="-98.3" font-family="Times,serif" font-size="14.00" fill="white">49 %</text>
<text text-anchor="start" x="788.5" y="-83.3" font-family="Times,serif" font-size="14.00" fill="white">1 %</text>
<text text-anchor="start" x="788.5" y="-68.3" font-family="Times,serif" font-size="14.00" fill="white">0 %</text>
<text text-anchor="start" x="788.5" y="-53.3" font-family="Times,serif" font-size="14.00" fill="white">0 %</text>
<text text-anchor="start" x="788.5" y="-38.3" font-family="Times,serif" font-size="14.00" fill="white">0 %</text>
<text text-anchor="start" x="788.5" y="-23.3" font-family="Times,serif" font-size="14.00" fill="white">0 %</text>
<text text-anchor="start" x="788.5" y="-8.3" font-family="Times,serif" font-size="14.00" fill="white"> </text>
</g>
</g>
</svg>
