<?xml version="1.0" encoding="UTF-8" standalone="no"?>
<!DOCTYPE svg PUBLIC "-//W3C//DTD SVG 1.1//EN"
 "http://www.w3.org/Graphics/SVG/1.1/DTD/svg11.dtd">
<!-- Generated by graphviz version 2.43.0 (0)
 -->
<!-- Title: G Pages: 1 -->
<svg width="739pt" height="1805pt"
 viewBox="0.00 0.00 738.50 1805.00" xmlns="http://www.w3.org/2000/svg" xmlns:xlink="http://www.w3.org/1999/xlink">
<g id="graph0" class="graph" transform="scale(1 1) rotate(0) translate(4 1801)">
<title>G</title>
<polygon fill="black" stroke="transparent" points="-4,4 -4,-1801 734.5,-1801 734.5,4 -4,4"/>
<text text-anchor="middle" x="319.5" y="-1781.8" font-family="Times,serif" font-size="14.00" fill="white">For tooltips with advanced information, hover your mouse over vertices or edge labels.</text>
<!-- 281438484505360 -->
<g id="node1" class="node">
<title>281438484505360</title>
<g id="a_node1"><a xlink:title="Output: 7 rows in 1 chunk, 1 µs 600 ns.">
<polygon fill="none" stroke="white" points="428.5,-1742 180.5,-1742 180.5,-1673 428.5,-1673 428.5,-1742"/>
<text text-anchor="middle" x="304.5" y="-1726.8" font-family="Times,serif" font-size="14.00" fill="white">Alias</text>
<text text-anchor="middle" x="304.5" y="-1711.8" font-family="Times,serif" font-size="14.00" fill="white">[cntrycode, numcust, totacctbal]</text>
<text text-anchor="middle" x="304.5" y="-1680.8" font-family="Times,serif" font-size="14.00" fill="white">1 µs 600 ns</text>
</a>
</g>
</g>
<!-- 281438484505040 -->
<g id="node2" class="node">
<title>281438484505040</title>
<g id="a_node2"><a xlink:title="Output: 7 rows in 1 chunk, 18 µs 80 ns.&#10;Operator step runtimes:&#10; MaterializeSortColumns 5 µs 88 ns&#10; Sort 2 µs 784 ns&#10; TemporaryResultWriting 288 ns&#10; WriteOutput 7 µs 616 ns.">
<polygon fill="none" stroke="white" points="354,-1622 255,-1622 255,-1568 354,-1568 354,-1622"/>
<text text-anchor="middle" x="304.5" y="-1606.8" font-family="Times,serif" font-size="14.00" fill="white">Sort</text>
<text text-anchor="middle" x="304.5" y="-1575.8" font-family="Times,serif" font-size="14.00" fill="white">18 µs 80 ns</text>
</a>
</g>
</g>
<!-- 281438484505040&#45;&gt;281438484505360 -->
<g id="edge1" class="edge">
<title>281438484505040&#45;&gt;281438484505360</title>
<path fill="none" stroke="white" d="M304.5,-1622.19C304.5,-1634.29 304.5,-1649 304.5,-1662.72"/>
<polygon fill="white" stroke="white" points="301,-1662.95 304.5,-1672.95 308,-1662.96 301,-1662.95"/>
<text text-anchor="middle" x="373.5" y="-1643.8" font-family="Times,serif" font-size="14.00" fill="white">7 row(s)/1 chunk(s)</text>
</g>
<!-- 281432029204496 -->
<g id="node3" class="node">
<title>281432029204496</title>
<g id="a_node3"><a xlink:title="Output: 7 rows in 1 chunk, 6 ms 953 µs.&#10;Operator step runtimes:&#10; GroupByKeyPartitioning 465 µs 733 ns&#10; Aggregating 6 ms 461 µs&#10; GroupByColumnsWriting 4 µs 832 ns&#10; AggregateColumnsWriting 9 µs 312 ns&#10; OutputWriting 4 µs 160 ns.">
<polygon fill="none" stroke="white" stroke-width="6.81" points="434,-1517 175,-1517 175,-1418 434,-1418 434,-1517"/>
<text text-anchor="middle" x="304.5" y="-1501.8" font-family="Times,serif" font-size="14.00" fill="white">AggregateHash</text>
<text text-anchor="middle" x="304.5" y="-1486.8" font-family="Times,serif" font-size="14.00" fill="white">GroupBy {SUBSTR(c_phone,1,2)}</text>
<text text-anchor="middle" x="304.5" y="-1471.8" font-family="Times,serif" font-size="14.00" fill="white">COUNT(*), </text>
<text text-anchor="middle" x="304.5" y="-1456.8" font-family="Times,serif" font-size="14.00" fill="white">SUM(c_acctbal)</text>
<text text-anchor="middle" x="304.5" y="-1425.8" font-family="Times,serif" font-size="14.00" fill="white">6 ms 953 µs</text>
</a>
</g>
</g>
<!-- 281432029204496&#45;&gt;281438484505040 -->
<g id="edge2" class="edge">
<title>281432029204496&#45;&gt;281438484505040</title>
<path fill="none" stroke="white" d="M304.5,-1517.02C304.5,-1530.49 304.5,-1544.89 304.5,-1557.54"/>
<polygon fill="white" stroke="white" points="301,-1557.7 304.5,-1567.7 308,-1557.7 301,-1557.7"/>
<text text-anchor="middle" x="373.5" y="-1538.8" font-family="Times,serif" font-size="14.00" fill="white">7 row(s)/1 chunk(s)</text>
</g>
<!-- 281438484503760 -->
<g id="node4" class="node">
<title>281438484503760</title>
<g id="a_node4"><a xlink:title="Output: 63711 rows in 102 chunks, 31 µs 904 ns.">
<polygon fill="none" stroke="white" points="390.5,-1367 218.5,-1367 218.5,-1298 390.5,-1298 390.5,-1367"/>
<text text-anchor="middle" x="304.5" y="-1351.8" font-family="Times,serif" font-size="14.00" fill="white">Alias</text>
<text text-anchor="middle" x="304.5" y="-1336.8" font-family="Times,serif" font-size="14.00" fill="white">[cntrycode, c_acctbal]</text>
<text text-anchor="middle" x="304.5" y="-1305.8" font-family="Times,serif" font-size="14.00" fill="white">31 µs 904 ns</text>
</a>
</g>
</g>
<!-- 281438484503760&#45;&gt;281432029204496 -->
<g id="edge3" class="edge">
<title>281438484503760&#45;&gt;281432029204496</title>
<path fill="none" stroke="white" d="M304.5,-1367.06C304.5,-1379.45 304.5,-1393.87 304.5,-1407.83"/>
<polygon fill="white" stroke="white" points="301,-1407.87 304.5,-1417.87 308,-1407.87 301,-1407.87"/>
<text text-anchor="middle" x="402.5" y="-1388.8" font-family="Times,serif" font-size="14.00" fill="white">63,711 row(s)/102 chunk(s)</text>
</g>
<!-- 281438484503440 -->
<g id="node5" class="node">
<title>281438484503440</title>
<g id="a_node5"><a xlink:title="Output: 63711 rows in 102 chunks, 911 µs 179 ns.&#10;Operator step runtimes:&#10; ForwardUnmodifiedColumns 63 µs 489 ns&#10; EvaluateNewColumns 681 µs 896 ns&#10; BuildOutput 132 µs 258 ns.">
<polygon fill="none" stroke="white" stroke-width="1.8" points="363,-1247 246,-1247 246,-1193 363,-1193 363,-1247"/>
<text text-anchor="middle" x="304.5" y="-1231.8" font-family="Times,serif" font-size="14.00" fill="white">Projection</text>
<text text-anchor="middle" x="304.5" y="-1200.8" font-family="Times,serif" font-size="14.00" fill="white">911 µs 179 ns</text>
</a>
</g>
</g>
<!-- 281438484503440&#45;&gt;281438484503760 -->
<g id="edge4" class="edge">
<title>281438484503440&#45;&gt;281438484503760</title>
<path fill="none" stroke="white" d="M304.5,-1247.19C304.5,-1259.29 304.5,-1274 304.5,-1287.72"/>
<polygon fill="white" stroke="white" points="301,-1287.95 304.5,-1297.95 308,-1287.96 301,-1287.95"/>
<text text-anchor="middle" x="402.5" y="-1268.8" font-family="Times,serif" font-size="14.00" fill="white">63,711 row(s)/102 chunk(s)</text>
</g>
<!-- 281438484503120 -->
<g id="node6" class="node">
<title>281438484503120</title>
<g id="a_node6"><a xlink:title="Output: 63711 rows in 102 chunks, 11 ms 251 µs.&#10;Operator step runtimes:&#10; LeftSideMaterialize 504 µs 198 ns&#10; RightSideMaterialize 4 ms 619 µs&#10; LeftSideTransform 0 ns&#10; RightSideTransform 0 ns&#10; LeftSidePartition 1 ms 518 µs&#10; RightSidePartition 863 µs 627 ns&#10; LeftSideSortBuckets 441 µs 413 ns&#10; RightSideSortBuckets 1 ms 415 µs&#10; GatherRowIds 1 µs 24 ns&#10; FindJoinPartner 499 µs 783 ns&#10; OutputWriting 624 µs 903 ns.">
<polygon fill="none" stroke="white" stroke-width="8" points="448,-1142 161,-1142 161,-1073 448,-1073 448,-1142"/>
<text text-anchor="middle" x="304.5" y="-1126.8" font-family="Times,serif" font-size="14.00" fill="white">JoinSimdSortMerge (AntiNullAsFalse)</text>
<text text-anchor="middle" x="304.5" y="-1111.8" font-family="Times,serif" font-size="14.00" fill="white">c_custkey = o_custkey</text>
<text text-anchor="middle" x="304.5" y="-1080.8" font-family="Times,serif" font-size="14.00" fill="white">11 ms 251 µs</text>
</a>
</g>
</g>
<!-- 281438484503120&#45;&gt;281438484503440 -->
<g id="edge5" class="edge">
<title>281438484503120&#45;&gt;281438484503440</title>
<path fill="none" stroke="white" d="M304.5,-1142.25C304.5,-1155.07 304.5,-1169.73 304.5,-1182.77"/>
<polygon fill="white" stroke="white" points="301,-1182.81 304.5,-1192.81 308,-1182.81 301,-1182.81"/>
<text text-anchor="middle" x="402.5" y="-1163.8" font-family="Times,serif" font-size="14.00" fill="white">63,711 row(s)/102 chunk(s)</text>
</g>
<!-- 281438484502800 -->
<g id="node7" class="node">
<title>281438484502800</title>
<g id="a_node7"><a xlink:title="Output: 190402 rows in 23 chunks, 5 ms 73 µs.&#10;Chunks: 0 skipped with no results, &#10;0 skipped with all matching, 0 scanned using binary search.">
<polygon fill="none" stroke="white" stroke-width="6.04" points="354,-1022 5,-1022 5,-923 354,-923 354,-1022"/>
<text text-anchor="middle" x="179.5" y="-1006.8" font-family="Times,serif" font-size="14.00" fill="white">TableScan</text>
<text text-anchor="middle" x="179.5" y="-991.8" font-family="Times,serif" font-size="14.00" fill="white">Impl: ExpressionEvaluator</text>
<text text-anchor="middle" x="179.5" y="-976.8" font-family="Times,serif" font-size="14.00" fill="white">(SUBSTR(c_phone,1,2)) IN (&#39;29&#39;, &#39;32&#39;, &#39;11&#39;, &#39;18&#39;,</text>
<text text-anchor="middle" x="179.5" y="-961.8" font-family="Times,serif" font-size="14.00" fill="white">&#39;27&#39;, &#39;10&#39;, &#39;31&#39;)</text>
<text text-anchor="middle" x="179.5" y="-930.8" font-family="Times,serif" font-size="14.00" fill="white">5 ms 73 µs</text>
</a>
</g>
</g>
<!-- 281438484502800&#45;&gt;281438484503120 -->
<g id="edge6" class="edge">
<title>281438484502800&#45;&gt;281438484503120</title>
<path fill="none" stroke="white" d="M187.66,-1022.37C191.35,-1033.98 196.71,-1045.69 204.5,-1055 208.02,-1059.21 211.98,-1063.12 216.23,-1066.74"/>
<polygon fill="white" stroke="white" points="216.29,-1066.79 214.14,-1069.55 224.17,-1072.95 216.29,-1066.79"/>
<text text-anchor="middle" x="302.5" y="-1043.8" font-family="Times,serif" font-size="14.00" fill="white">190,402 row(s)/23 chunk(s)</text>
</g>
<!-- 281438484502480 -->
<g id="node8" class="node">
<title>281438484502480</title>
<g id="a_node8"><a xlink:title="Output: 681619 rows in 23 chunks, 417 µs 925 ns.&#10;Chunks: 0 skipped with no results, &#10;0 skipped with all matching, 0 scanned using binary search.">
<polygon fill="none" stroke="white" points="353,-857 0,-857 0,-773 353,-773 353,-857"/>
<text text-anchor="middle" x="176.5" y="-841.8" font-family="Times,serif" font-size="14.00" fill="white">TableScan</text>
<text text-anchor="middle" x="176.5" y="-826.8" font-family="Times,serif" font-size="14.00" fill="white">Impl: ColumnVsValue</text>
<text text-anchor="middle" x="176.5" y="-811.8" font-family="Times,serif" font-size="14.00" fill="white">c_acctbal &gt; SUBQUERY (PQP, 0xfff780231610)</text>
<text text-anchor="middle" x="176.5" y="-780.8" font-family="Times,serif" font-size="14.00" fill="white">417 µs 925 ns</text>
</a>
</g>
</g>
<!-- 281438484502480&#45;&gt;281438484502800 -->
<g id="edge7" class="edge">
<title>281438484502480&#45;&gt;281438484502800</title>
<path fill="none" stroke="white" d="M177.3,-857.26C177.62,-874.27 178.01,-894.29 178.37,-912.77"/>
<polygon fill="white" stroke="white" points="174.87,-912.93 178.56,-922.86 181.87,-912.79 174.87,-912.93"/>
<text text-anchor="middle" x="276.5" y="-893.8" font-family="Times,serif" font-size="14.00" fill="white">681,619 row(s)/23 chunk(s)</text>
</g>
<!-- 281438470931728 -->
<g id="node9" class="node">
<title>281438470931728</title>
<g id="a_node9"><a xlink:title="Output: 1500000 rows in 23 chunks, 65 µs 345 ns.">
<polygon fill="none" stroke="white" points="114.5,-692 6.5,-692 6.5,-638 114.5,-638 114.5,-692"/>
<text text-anchor="middle" x="60.5" y="-676.8" font-family="Times,serif" font-size="14.00" fill="white">Validate</text>
<text text-anchor="middle" x="60.5" y="-645.8" font-family="Times,serif" font-size="14.00" fill="white">65 µs 345 ns</text>
</a>
</g>
</g>
<!-- 281438470931728&#45;&gt;281438484502480 -->
<g id="edge8" class="edge">
<title>281438470931728&#45;&gt;281438484502480</title>
<path fill="none" stroke="white" stroke-width="2.32" d="M56.8,-692.3C55.99,-707.24 57.24,-725.74 65.5,-740 71.2,-749.84 78.8,-758.63 87.36,-766.41"/>
<polygon fill="white" stroke="white" stroke-width="2.32" points="85.22,-769.18 95.11,-772.99 89.75,-763.85 85.22,-769.18"/>
<text text-anchor="middle" x="170.5" y="-728.8" font-family="Times,serif" font-size="14.00" fill="white">1,500,000 row(s)/23 chunk(s)</text>
</g>
<!-- 281438576576720 -->
<g id="node10" class="node">
<title>281438576576720</title>
<g id="a_node10"><a xlink:title="Output: 1500000 rows in 23 chunks, 61 µs 825 ns.">
<polygon fill="none" stroke="white" points="117,-572 4,-572 4,-458 117,-458 117,-572"/>
<text text-anchor="middle" x="60.5" y="-556.8" font-family="Times,serif" font-size="14.00" fill="white">GetTable</text>
<text text-anchor="middle" x="60.5" y="-541.8" font-family="Times,serif" font-size="14.00" fill="white">(customer)</text>
<text text-anchor="middle" x="60.5" y="-526.8" font-family="Times,serif" font-size="14.00" fill="white">pruned:</text>
<text text-anchor="middle" x="60.5" y="-511.8" font-family="Times,serif" font-size="14.00" fill="white">0/23 chunk(s)</text>
<text text-anchor="middle" x="60.5" y="-496.8" font-family="Times,serif" font-size="14.00" fill="white">5/8 column(s)</text>
<text text-anchor="middle" x="60.5" y="-465.8" font-family="Times,serif" font-size="14.00" fill="white">61 µs 825 ns</text>
</a>
</g>
</g>
<!-- 281438576576720&#45;&gt;281438470931728 -->
<g id="edge9" class="edge">
<title>281438576576720&#45;&gt;281438470931728</title>
<path fill="none" stroke="white" stroke-width="2.32" d="M60.5,-572.37C60.5,-590.87 60.5,-610.92 60.5,-627.54"/>
<polygon fill="white" stroke="white" stroke-width="2.32" points="57,-627.92 60.5,-637.92 64,-627.92 57,-627.92"/>
<text text-anchor="middle" x="165.5" y="-593.8" font-family="Times,serif" font-size="14.00" fill="white">1,500,000 row(s)/23 chunk(s)</text>
</g>
<!-- 281438471788048 -->
<g id="node11" class="node">
<title>281438471788048</title>
<g id="a_node11"><a xlink:title="Output: 1 row in 1 chunk, 2 ms 357 µs.&#10;Operator step runtimes:&#10; GroupByKeyPartitioning 32 ns&#10; Aggregating 2 ms 339 µs&#10; GroupByColumnsWriting 896 ns&#10; AggregateColumnsWriting 7 µs 456 ns&#10; OutputWriting 4 µs 832 ns.">
<polygon fill="none" stroke="white" stroke-width="4.15" points="363.5,-707 235.5,-707 235.5,-623 363.5,-623 363.5,-707"/>
<text text-anchor="middle" x="299.5" y="-691.8" font-family="Times,serif" font-size="14.00" fill="white">AggregateHash</text>
<text text-anchor="middle" x="299.5" y="-676.8" font-family="Times,serif" font-size="14.00" fill="white">GroupBy {}</text>
<text text-anchor="middle" x="299.5" y="-661.8" font-family="Times,serif" font-size="14.00" fill="white">AVG(c_acctbal)</text>
<text text-anchor="middle" x="299.5" y="-630.8" font-family="Times,serif" font-size="14.00" fill="white">2 ms 357 µs</text>
</a>
</g>
</g>
<!-- 281438471788048&#45;&gt;281438484502480 -->
<g id="edge10" class="edge">
<title>281438471788048&#45;&gt;281438484502480</title>
<path fill="none" stroke="white" stroke-dasharray="5,2" d="M291,-707.29C287.42,-718.57 282.42,-730.34 275.5,-740 268.67,-749.54 260.24,-758.38 251.2,-766.39"/>
<polygon fill="white" stroke="white" points="248.87,-763.78 243.5,-772.92 253.39,-769.13 248.87,-763.78"/>
<text text-anchor="middle" x="366" y="-728.8" font-family="Times,serif" font-size="14.00" fill="white">uncorrelated subquery</text>
</g>
<!-- 281438484502160 -->
<g id="node12" class="node">
<title>281438484502160</title>
<g id="a_node12"><a xlink:title="Output: 381379 rows in 23 chunks, 9 ms 361 µs.&#10;Chunks: 0 skipped with no results, &#10;0 skipped with all matching, 0 scanned using binary search.">
<polygon fill="none" stroke="white" stroke-width="7.55" points="484,-564.5 135,-564.5 135,-465.5 484,-465.5 484,-564.5"/>
<text text-anchor="middle" x="309.5" y="-549.3" font-family="Times,serif" font-size="14.00" fill="white">TableScan</text>
<text text-anchor="middle" x="309.5" y="-534.3" font-family="Times,serif" font-size="14.00" fill="white">Impl: ExpressionEvaluator</text>
<text text-anchor="middle" x="309.5" y="-519.3" font-family="Times,serif" font-size="14.00" fill="white">(SUBSTR(c_phone,1,2)) IN (&#39;29&#39;, &#39;32&#39;, &#39;11&#39;, &#39;18&#39;,</text>
<text text-anchor="middle" x="309.5" y="-504.3" font-family="Times,serif" font-size="14.00" fill="white">&#39;27&#39;, &#39;10&#39;, &#39;31&#39;)</text>
<text text-anchor="middle" x="309.5" y="-473.3" font-family="Times,serif" font-size="14.00" fill="white">9 ms 361 µs</text>
</a>
</g>
</g>
<!-- 281438484502160&#45;&gt;281438471788048 -->
<g id="edge11" class="edge">
<title>281438484502160&#45;&gt;281438471788048</title>
<path fill="none" stroke="white" d="M306.2,-564.87C305.17,-580.06 304.04,-596.85 303,-612.23"/>
<polygon fill="white" stroke="white" points="299.48,-612.4 302.3,-622.61 306.46,-612.87 299.48,-612.4"/>
<text text-anchor="middle" x="402.5" y="-593.8" font-family="Times,serif" font-size="14.00" fill="white">381,379 row(s)/23 chunk(s)</text>
</g>
<!-- 281438470935568 -->
<g id="node13" class="node">
<title>281438470935568</title>
<g id="a_node13"><a xlink:title="Output: 1363614 rows in 23 chunks, 72 µs 641 ns.">
<polygon fill="none" stroke="white" points="363.5,-407 255.5,-407 255.5,-353 363.5,-353 363.5,-407"/>
<text text-anchor="middle" x="309.5" y="-391.8" font-family="Times,serif" font-size="14.00" fill="white">Validate</text>
<text text-anchor="middle" x="309.5" y="-360.8" font-family="Times,serif" font-size="14.00" fill="white">72 µs 641 ns</text>
</a>
</g>
</g>
<!-- 281438470935568&#45;&gt;281438484502160 -->
<g id="edge12" class="edge">
<title>281438470935568&#45;&gt;281438484502160</title>
<path fill="none" stroke="white" stroke-width="2.09" d="M309.5,-407.28C309.5,-421.01 309.5,-438.4 309.5,-455.14"/>
<polygon fill="white" stroke="white" stroke-width="2.09" points="306,-455.44 309.5,-465.44 313,-455.44 306,-455.44"/>
<text text-anchor="middle" x="414.5" y="-428.8" font-family="Times,serif" font-size="14.00" fill="white">1,363,614 row(s)/23 chunk(s)</text>
</g>
<!-- 281438484498960 -->
<g id="node14" class="node">
<title>281438484498960</title>
<g id="a_node14"><a xlink:title="Output: 1363614 rows in 23 chunks, 280 µs 644 ns.&#10;Chunks: 0 skipped with no results, &#10;0 skipped with all matching, 0 scanned using binary search.">
<polygon fill="none" stroke="white" points="394,-302 225,-302 225,-218 394,-218 394,-302"/>
<text text-anchor="middle" x="309.5" y="-286.8" font-family="Times,serif" font-size="14.00" fill="white">TableScan</text>
<text text-anchor="middle" x="309.5" y="-271.8" font-family="Times,serif" font-size="14.00" fill="white">Impl: ColumnVsValue</text>
<text text-anchor="middle" x="309.5" y="-256.8" font-family="Times,serif" font-size="14.00" fill="white">c_acctbal &gt; 0</text>
<text text-anchor="middle" x="309.5" y="-225.8" font-family="Times,serif" font-size="14.00" fill="white">280 µs 644 ns</text>
</a>
</g>
</g>
<!-- 281438484498960&#45;&gt;281438470935568 -->
<g id="edge13" class="edge">
<title>281438484498960&#45;&gt;281438470935568</title>
<path fill="none" stroke="white" stroke-width="2.09" d="M309.5,-302.27C309.5,-315.36 309.5,-329.72 309.5,-342.45"/>
<polygon fill="white" stroke="white" stroke-width="2.09" points="306,-342.69 309.5,-352.69 313,-342.69 306,-342.69"/>
<text text-anchor="middle" x="414.5" y="-323.8" font-family="Times,serif" font-size="14.00" fill="white">1,363,614 row(s)/23 chunk(s)</text>
</g>
<!-- 281438576577168 -->
<g id="node15" class="node">
<title>281438576577168</title>
<g id="a_node15"><a xlink:title="Output: 1500000 rows in 23 chunks, 48 µs 608 ns.">
<polygon fill="none" stroke="white" points="366,-140.5 253,-140.5 253,-26.5 366,-26.5 366,-140.5"/>
<text text-anchor="middle" x="309.5" y="-125.3" font-family="Times,serif" font-size="14.00" fill="white">GetTable</text>
<text text-anchor="middle" x="309.5" y="-110.3" font-family="Times,serif" font-size="14.00" fill="white">(customer)</text>
<text text-anchor="middle" x="309.5" y="-95.3" font-family="Times,serif" font-size="14.00" fill="white">pruned:</text>
<text text-anchor="middle" x="309.5" y="-80.3" font-family="Times,serif" font-size="14.00" fill="white">0/23 chunk(s)</text>
<text text-anchor="middle" x="309.5" y="-65.3" font-family="Times,serif" font-size="14.00" fill="white">5/8 column(s)</text>
<text text-anchor="middle" x="309.5" y="-34.3" font-family="Times,serif" font-size="14.00" fill="white">48 µs 608 ns</text>
</a>
</g>
</g>
<!-- 281438576577168&#45;&gt;281438484498960 -->
<g id="edge14" class="edge">
<title>281438576577168&#45;&gt;281438484498960</title>
<path fill="none" stroke="white" stroke-width="2.32" d="M309.5,-140.67C309.5,-162.25 309.5,-186.74 309.5,-207.83"/>
<polygon fill="white" stroke="white" stroke-width="2.32" points="306,-207.87 309.5,-217.87 313,-207.87 306,-207.87"/>
<text text-anchor="middle" x="414.5" y="-188.8" font-family="Times,serif" font-size="14.00" fill="white">1,500,000 row(s)/23 chunk(s)</text>
</g>
<!-- 281438470935056 -->
<g id="node16" class="node">
<title>281438470935056</title>
<g id="a_node16"><a xlink:title="Output: 15000000 rows in 229 chunks, 731 µs 561 ns.">
<polygon fill="none" stroke="white" stroke-width="1.26" points="490,-999.5 373,-999.5 373,-945.5 490,-945.5 490,-999.5"/>
<text text-anchor="middle" x="431.5" y="-984.3" font-family="Times,serif" font-size="14.00" fill="white">Validate</text>
<text text-anchor="middle" x="431.5" y="-953.3" font-family="Times,serif" font-size="14.00" fill="white">731 µs 561 ns</text>
</a>
</g>
</g>
<!-- 281438470935056&#45;&gt;281438484503120 -->
<g id="edge15" class="edge">
<title>281438470935056&#45;&gt;281438484503120</title>
<path fill="none" stroke="white" stroke-width="8" d="M426.51,-999.86C422.11,-1017.18 414.19,-1039.42 400.5,-1055 396.83,-1059.17 392.74,-1063.07 388.38,-1066.69"/>
<polygon fill="white" stroke="white" stroke-width="8" points="380.25,-1072.92 392.44,-1072.39 388.18,-1066.84 380.25,-1072.92"/>
<text text-anchor="middle" x="524.5" y="-1043.8" font-family="Times,serif" font-size="14.00" fill="white">15,000,000 row(s)/229 chunk(s)</text>
</g>
<!-- 281438576578512 -->
<g id="node17" class="node">
<title>281438576578512</title>
<g id="a_node17"><a xlink:title="Output: 15000000 rows in 229 chunks, 244 µs 227 ns.">
<polygon fill="none" stroke="white" points="493.5,-872 371.5,-872 371.5,-758 493.5,-758 493.5,-872"/>
<text text-anchor="middle" x="432.5" y="-856.8" font-family="Times,serif" font-size="14.00" fill="white">GetTable</text>
<text text-anchor="middle" x="432.5" y="-841.8" font-family="Times,serif" font-size="14.00" fill="white">(orders)</text>
<text text-anchor="middle" x="432.5" y="-826.8" font-family="Times,serif" font-size="14.00" fill="white">pruned:</text>
<text text-anchor="middle" x="432.5" y="-811.8" font-family="Times,serif" font-size="14.00" fill="white">0/229 chunk(s)</text>
<text text-anchor="middle" x="432.5" y="-796.8" font-family="Times,serif" font-size="14.00" fill="white">8/9 column(s)</text>
<text text-anchor="middle" x="432.5" y="-765.8" font-family="Times,serif" font-size="14.00" fill="white">244 µs 227 ns</text>
</a>
</g>
</g>
<!-- 281438576578512&#45;&gt;281438470935056 -->
<g id="edge16" class="edge">
<title>281438576578512&#45;&gt;281438470935056</title>
<path fill="none" stroke="white" stroke-width="8" d="M432.14,-872.14C432,-893.18 431.85,-916.52 431.73,-935.28"/>
<polygon fill="white" stroke="white" stroke-width="8" points="424.73,-935.43 431.67,-945.47 438.73,-935.52 424.73,-935.43"/>
<text text-anchor="middle" x="545.5" y="-893.8" font-family="Times,serif" font-size="14.00" fill="white">15,000,000 row(s)/229 chunk(s)</text>
</g>
<!-- 0 -->
<g id="node18" class="node">
<title>0</title>
<polygon fill="none" stroke="white" points="384.5,-0.5 384.5,-166.5 730.5,-166.5 730.5,-0.5 384.5,-0.5"/>
<text text-anchor="middle" x="557.5" y="-151.3" font-family="Times,serif" font-size="14.00" fill="white">Total by operator</text>
<polyline fill="none" stroke="white" points="384.5,-143.5 730.5,-143.5 "/>
<text text-anchor="end" x="543.5" y="-128.3" font-family="Times,serif" font-size="14.00" fill="white">TableScan </text>
<text text-anchor="end" x="543.5" y="-113.3" font-family="Times,serif" font-size="14.00" fill="white"> JoinSimdSortMerge </text>
<text text-anchor="end" x="543.5" y="-98.3" font-family="Times,serif" font-size="14.00" fill="white"> AggregateHash </text>
<text text-anchor="end" x="543.5" y="-83.3" font-family="Times,serif" font-size="14.00" fill="white"> Projection </text>
<text text-anchor="end" x="543.5" y="-68.3" font-family="Times,serif" font-size="14.00" fill="white"> Validate </text>
<text text-anchor="end" x="543.5" y="-53.3" font-family="Times,serif" font-size="14.00" fill="white"> GetTable </text>
<text text-anchor="end" x="543.5" y="-38.3" font-family="Times,serif" font-size="14.00" fill="white"> Alias </text>
<text text-anchor="end" x="543.5" y="-23.3" font-family="Times,serif" font-size="14.00" fill="white"> Sort </text>
<text text-anchor="end" x="543.5" y="-8.3" font-family="Times,serif" font-size="14.00" fill="white">total</text>
<polyline fill="none" stroke="white" points="551.5,-0.5 551.5,-143.5 "/>
<text text-anchor="start" x="559.5" y="-128.3" font-family="Times,serif" font-size="14.00" fill="white">15 ms 132 µs </text>
<text text-anchor="start" x="559.5" y="-113.3" font-family="Times,serif" font-size="14.00" fill="white"> 11 ms 251 µs </text>
<text text-anchor="start" x="559.5" y="-98.3" font-family="Times,serif" font-size="14.00" fill="white"> 9 ms 311 µs </text>
<text text-anchor="start" x="559.5" y="-83.3" font-family="Times,serif" font-size="14.00" fill="white"> 911 µs 179 ns </text>
<text text-anchor="start" x="559.5" y="-68.3" font-family="Times,serif" font-size="14.00" fill="white"> 869 µs 547 ns </text>
<text text-anchor="start" x="559.5" y="-53.3" font-family="Times,serif" font-size="14.00" fill="white"> 354 µs 660 ns </text>
<text text-anchor="start" x="559.5" y="-38.3" font-family="Times,serif" font-size="14.00" fill="white"> 33 µs 504 ns </text>
<text text-anchor="start" x="559.5" y="-23.3" font-family="Times,serif" font-size="14.00" fill="white"> 18 µs 80 ns </text>
<text text-anchor="start" x="559.5" y="-8.3" font-family="Times,serif" font-size="14.00" fill="white"> 37 ms 882 µs </text>
<polyline fill="none" stroke="white" points="677.5,-0.5 677.5,-143.5 "/>
<text text-anchor="start" x="685.5" y="-128.3" font-family="Times,serif" font-size="14.00" fill="white">40 %</text>
<text text-anchor="start" x="685.5" y="-113.3" font-family="Times,serif" font-size="14.00" fill="white">30 %</text>
<text text-anchor="start" x="685.5" y="-98.3" font-family="Times,serif" font-size="14.00" fill="white">25 %</text>
<text text-anchor="start" x="685.5" y="-83.3" font-family="Times,serif" font-size="14.00" fill="white">2 %</text>
<text text-anchor="start" x="685.5" y="-68.3" font-family="Times,serif" font-size="14.00" fill="white">2 %</text>
<text text-anchor="start" x="685.5" y="-53.3" font-family="Times,serif" font-size="14.00" fill="white">1 %</text>
<text text-anchor="start" x="685.5" y="-38.3" font-family="Times,serif" font-size="14.00" fill="white">0 %</text>
<text text-anchor="start" x="685.5" y="-23.3" font-family="Times,serif" font-size="14.00" fill="white">0 %</text>
<text text-anchor="start" x="685.5" y="-8.3" font-family="Times,serif" font-size="14.00" fill="white"> </text>
</g>
</g>
</svg>
