<?xml version="1.0" encoding="UTF-8" standalone="no"?>
<!DOCTYPE svg PUBLIC "-//W3C//DTD SVG 1.1//EN"
 "http://www.w3.org/Graphics/SVG/1.1/DTD/svg11.dtd">
<!-- Generated by graphviz version 2.43.0 (0)
 -->
<!-- Title: G Pages: 1 -->
<svg width="1021pt" height="1829pt"
 viewBox="0.00 0.00 1021.00 1829.00" xmlns="http://www.w3.org/2000/svg" xmlns:xlink="http://www.w3.org/1999/xlink">
<g id="graph0" class="graph" transform="scale(1 1) rotate(0) translate(4 1825)">
<title>G</title>
<polygon fill="black" stroke="transparent" points="-4,4 -4,-1825 1017,-1825 1017,4 -4,4"/>
<text text-anchor="middle" x="319.5" y="-1805.8" font-family="Times,serif" font-size="14.00" fill="white">For tooltips with advanced information, hover your mouse over vertices or edge labels.</text>
<!-- 125282218973072 -->
<g id="node1" class="node">
<title>125282218973072</title>
<g id="a_node1"><a xlink:title="Output: 96163 rows in 2 chunks, 11 µs 84 ns.">
<polygon fill="none" stroke="white" points="278.5,-1766 128.5,-1766 128.5,-1697 278.5,-1697 278.5,-1766"/>
<text text-anchor="middle" x="203.5" y="-1750.8" font-family="Times,serif" font-size="14.00" fill="white">Alias</text>
<text text-anchor="middle" x="203.5" y="-1735.8" font-family="Times,serif" font-size="14.00" fill="white">[ps_partkey, value]</text>
<text text-anchor="middle" x="203.5" y="-1704.8" font-family="Times,serif" font-size="14.00" fill="white">11 µs 84 ns</text>
</a>
</g>
</g>
<!-- 125282218972752 -->
<g id="node2" class="node">
<title>125282218972752</title>
<g id="a_node2"><a xlink:title="Output: 96163 rows in 2 chunks, 9 ms 602 µs.&#10;Operator step runtimes:&#10; MaterializeSortColumns 1 ms 250 µs&#10; Sort 7 ms 41 µs&#10; TemporaryResultWriting 228 µs 948 ns&#10; WriteOutput 1 ms 69 µs.">
<polygon fill="none" stroke="white" points="255.5,-1646 151.5,-1646 151.5,-1592 255.5,-1592 255.5,-1646"/>
<text text-anchor="middle" x="203.5" y="-1630.8" font-family="Times,serif" font-size="14.00" fill="white">Sort</text>
<text text-anchor="middle" x="203.5" y="-1599.8" font-family="Times,serif" font-size="14.00" fill="white">9 ms 602 µs</text>
</a>
</g>
</g>
<!-- 125282218972752&#45;&gt;125282218973072 -->
<g id="edge1" class="edge">
<title>125282218972752&#45;&gt;125282218973072</title>
<path fill="none" stroke="white" d="M203.5,-1646.19C203.5,-1658.29 203.5,-1673 203.5,-1686.72"/>
<polygon fill="white" stroke="white" points="200,-1686.95 203.5,-1696.95 207,-1686.96 200,-1686.95"/>
<text text-anchor="middle" x="292.5" y="-1667.8" font-family="Times,serif" font-size="14.00" fill="white">96,163 row(s)/2 chunk(s)</text>
</g>
<!-- 125282218972432 -->
<g id="node3" class="node">
<title>125282218972432</title>
<g id="a_node3"><a xlink:title="Output: 96163 rows in 46 chunks, 502 µs 613 ns.&#10;Chunks: 0 skipped with no results, &#10;0 skipped with all matching, 0 scanned using binary search.">
<polygon fill="none" stroke="white" points="407,-1541 0,-1541 0,-1442 407,-1442 407,-1541"/>
<text text-anchor="middle" x="203.5" y="-1525.8" font-family="Times,serif" font-size="14.00" fill="white">TableScan</text>
<text text-anchor="middle" x="203.5" y="-1510.8" font-family="Times,serif" font-size="14.00" fill="white">Impl: ColumnVsValue</text>
<text text-anchor="middle" x="203.5" y="-1495.8" font-family="Times,serif" font-size="14.00" fill="white">SUM(ps_supplycost * ps_availqty) &gt; SUBQUERY (PQP,</text>
<text text-anchor="middle" x="203.5" y="-1480.8" font-family="Times,serif" font-size="14.00" fill="white">0x71f18a2893d0)</text>
<text text-anchor="middle" x="203.5" y="-1449.8" font-family="Times,serif" font-size="14.00" fill="white">502 µs 613 ns</text>
</a>
</g>
</g>
<!-- 125282218972432&#45;&gt;125282218972752 -->
<g id="edge2" class="edge">
<title>125282218972432&#45;&gt;125282218972752</title>
<path fill="none" stroke="white" d="M203.5,-1541.02C203.5,-1554.49 203.5,-1568.89 203.5,-1581.54"/>
<polygon fill="white" stroke="white" points="200,-1581.7 203.5,-1591.7 207,-1581.7 200,-1581.7"/>
<text text-anchor="middle" x="297" y="-1562.8" font-family="Times,serif" font-size="14.00" fill="white">96,163 row(s)/46 chunk(s)</text>
</g>
<!-- 125418753623568 -->
<g id="node4" class="node">
<title>125418753623568</title>
<g id="a_node4"><a xlink:title="Output: 2996326 rows in 46 chunks, 628 ms 298 µs.&#10;Operator step runtimes:&#10; GroupByKeyPartitioning 449 ms 787 µs&#10; Aggregating 170 ms 598 µs&#10; GroupByColumnsWriting 1 ms 757 µs&#10; AggregateColumnsWriting 5 ms 986 µs&#10; OutputWriting 70 µs 130 ns.">
<polygon fill="none" stroke="white" stroke-width="8" points="327,-1319 68,-1319 68,-1235 327,-1235 327,-1319"/>
<text text-anchor="middle" x="197.5" y="-1303.8" font-family="Times,serif" font-size="14.00" fill="white">AggregateHash</text>
<text text-anchor="middle" x="197.5" y="-1288.8" font-family="Times,serif" font-size="14.00" fill="white">GroupBy {ps_partkey}</text>
<text text-anchor="middle" x="197.5" y="-1273.8" font-family="Times,serif" font-size="14.00" fill="white">SUM(ps_supplycost * ps_availqty)</text>
<text text-anchor="middle" x="197.5" y="-1242.8" font-family="Times,serif" font-size="14.00" fill="white">628 ms 298 µs</text>
</a>
</g>
</g>
<!-- 125418753623568&#45;&gt;125282218972432 -->
<g id="edge3" class="edge">
<title>125418753623568&#45;&gt;125282218972432</title>
<path fill="none" stroke="white" d="M196.71,-1319.26C196.62,-1325.21 196.55,-1331.26 196.5,-1337 196.3,-1361 195.66,-1367.01 196.5,-1391 196.97,-1404.24 197.78,-1418.45 198.69,-1431.87"/>
<polygon fill="white" stroke="white" points="195.2,-1432.22 199.4,-1441.95 202.19,-1431.73 195.2,-1432.22"/>
<text text-anchor="middle" x="301.5" y="-1360.3" font-family="Times,serif" font-size="14.00" fill="white">2,996,326 row(s)/46 chunk(s)</text>
</g>
<!-- 125282218971472 -->
<g id="node5" class="node">
<title>125282218971472</title>
<g id="a_node5"><a xlink:title="Output: 3180720 rows in 256 chunks, 124 ms 381 µs.&#10;Operator step runtimes:&#10; ForwardUnmodifiedColumns 271 µs 838 ns&#10; EvaluateNewColumns 122 ms 292 µs&#10; BuildOutput 1 ms 490 µs.">
<polygon fill="none" stroke="white" stroke-width="4.01" points="278.5,-1082 156.5,-1082 156.5,-1028 278.5,-1028 278.5,-1082"/>
<text text-anchor="middle" x="217.5" y="-1066.8" font-family="Times,serif" font-size="14.00" fill="white">Projection</text>
<text text-anchor="middle" x="217.5" y="-1035.8" font-family="Times,serif" font-size="14.00" fill="white">124 ms 381 µs</text>
</a>
</g>
</g>
<!-- 125282218971472&#45;&gt;125418753623568 -->
<g id="edge4" class="edge">
<title>125282218971472&#45;&gt;125418753623568</title>
<path fill="none" stroke="white" d="M215.13,-1082.1C211.94,-1117.16 206.21,-1180.21 202.15,-1224.88"/>
<polygon fill="white" stroke="white" points="198.65,-1224.69 201.23,-1234.97 205.62,-1225.32 198.65,-1224.69"/>
<text text-anchor="middle" x="323" y="-1103.8" font-family="Times,serif" font-size="14.00" fill="white">3,180,720 row(s)/256 chunk(s)</text>
</g>
<!-- 125418753725456 -->
<g id="node6" class="node">
<title>125418753725456</title>
<g id="a_node6"><a xlink:title="Output: 3180720 rows in 256 chunks, 2 ms 775 µs.">
<polygon fill="none" stroke="white" points="390.5,-977 286.5,-977 286.5,-923 390.5,-923 390.5,-977"/>
<text text-anchor="middle" x="338.5" y="-961.8" font-family="Times,serif" font-size="14.00" fill="white">Validate</text>
<text text-anchor="middle" x="338.5" y="-930.8" font-family="Times,serif" font-size="14.00" fill="white">2 ms 775 µs</text>
</a>
</g>
</g>
<!-- 125418753725456&#45;&gt;125282218971472 -->
<g id="edge5" class="edge">
<title>125418753725456&#45;&gt;125282218971472</title>
<path fill="none" stroke="white" d="M286.5,-957.28C262.46,-963.03 235.88,-974.01 220.5,-995 215.73,-1001.52 213.61,-1009.6 212.96,-1017.68"/>
<polygon fill="white" stroke="white" points="209.46,-1017.75 212.84,-1027.79 216.46,-1017.84 209.46,-1017.75"/>
<text text-anchor="middle" x="330" y="-998.8" font-family="Times,serif" font-size="14.00" fill="white">3,180,720 row(s)/256 chunk(s)</text>
</g>
<!-- 125282218971792 -->
<g id="node17" class="node">
<title>125282218971792</title>
<g id="a_node17"><a xlink:title="Output: 3180720 rows in 256 chunks, 131 ms 786 µs.&#10;Operator step runtimes:&#10; ForwardUnmodifiedColumns 260 µs 500 ns&#10; EvaluateNewColumns 131 ms 57 µs&#10; BuildOutput 283 µs 8 ns.">
<polygon fill="none" stroke="white" stroke-width="4.15" points="523.5,-1082 401.5,-1082 401.5,-1028 523.5,-1028 523.5,-1082"/>
<text text-anchor="middle" x="462.5" y="-1066.8" font-family="Times,serif" font-size="14.00" fill="white">Projection</text>
<text text-anchor="middle" x="462.5" y="-1035.8" font-family="Times,serif" font-size="14.00" fill="white">131 ms 786 µs</text>
</a>
</g>
</g>
<!-- 125418753725456&#45;&gt;125282218971792 -->
<g id="edge6" class="edge">
<title>125418753725456&#45;&gt;125282218971792</title>
<path fill="none" stroke="white" d="M390.54,-964.75C407.93,-971.48 426.24,-981.21 439.5,-995 445.69,-1001.44 450.27,-1009.73 453.63,-1018.05"/>
<polygon fill="white" stroke="white" points="450.42,-1019.46 457.05,-1027.72 457.02,-1017.13 450.42,-1019.46"/>
<text text-anchor="middle" x="559" y="-998.8" font-family="Times,serif" font-size="14.00" fill="white">3,180,720 row(s)/256 chunk(s)</text>
</g>
<!-- 125282218971152 -->
<g id="node7" class="node">
<title>125282218971152</title>
<g id="a_node7"><a xlink:title="Output: 3180720 rows in 256 chunks, 181 ms 475 µs.&#10;Operator step runtimes:&#10; LeftSideMaterialize 18 ms 444 µs&#10; RightSideMaterialize 468 µs 837 ns&#10; LeftSideTransform 0 ns&#10; RightSideTransform 0 ns&#10; LeftSidePartition 85 ms 620 µs&#10; RightSidePartition 1 ms 221 µs&#10; LeftSideSortBuckets 65 ms 250 µs&#10; RightSideSortBuckets 740 µs 443 ns&#10; GatherRowIds 631 ns&#10; FindJoinPartner 6 ms 937 µs&#10; OutputWriting 1 ms 96 µs.">
<polygon fill="none" stroke="white" stroke-width="4.94" points="443,-872 234,-872 234,-803 443,-803 443,-872"/>
<text text-anchor="middle" x="338.5" y="-856.8" font-family="Times,serif" font-size="14.00" fill="white">JoinSimdSortMerge (Semi)</text>
<text text-anchor="middle" x="338.5" y="-841.8" font-family="Times,serif" font-size="14.00" fill="white">ps_suppkey = s_suppkey</text>
<text text-anchor="middle" x="338.5" y="-810.8" font-family="Times,serif" font-size="14.00" fill="white">181 ms 475 µs</text>
</a>
</g>
</g>
<!-- 125282218971152&#45;&gt;125418753725456 -->
<g id="edge7" class="edge">
<title>125282218971152&#45;&gt;125418753725456</title>
<path fill="none" stroke="white" d="M338.5,-872.25C338.5,-885.07 338.5,-899.73 338.5,-912.77"/>
<polygon fill="white" stroke="white" points="335,-912.81 338.5,-922.81 342,-912.81 335,-912.81"/>
<text text-anchor="middle" x="448" y="-893.8" font-family="Times,serif" font-size="14.00" fill="white">3,180,720 row(s)/256 chunk(s)</text>
</g>
<!-- 125282326055952 -->
<g id="node8" class="node">
<title>125282326055952</title>
<g id="a_node8"><a xlink:title="Output: 80000000 rows in 1221 chunks, 2 ms 99 µs.">
<polygon fill="none" stroke="white" points="272,-752 141,-752 141,-638 272,-638 272,-752"/>
<text text-anchor="middle" x="206.5" y="-736.8" font-family="Times,serif" font-size="14.00" fill="white">GetTable</text>
<text text-anchor="middle" x="206.5" y="-721.8" font-family="Times,serif" font-size="14.00" fill="white">(partsupp)</text>
<text text-anchor="middle" x="206.5" y="-706.8" font-family="Times,serif" font-size="14.00" fill="white">pruned:</text>
<text text-anchor="middle" x="206.5" y="-691.8" font-family="Times,serif" font-size="14.00" fill="white">0/1221 chunk(s)</text>
<text text-anchor="middle" x="206.5" y="-676.8" font-family="Times,serif" font-size="14.00" fill="white">1/5 column(s)</text>
<text text-anchor="middle" x="206.5" y="-645.8" font-family="Times,serif" font-size="14.00" fill="white">2 ms 99 µs</text>
</a>
</g>
</g>
<!-- 125282326055952&#45;&gt;125282218971152 -->
<g id="edge8" class="edge">
<title>125282326055952&#45;&gt;125282218971152</title>
<path fill="none" stroke="white" stroke-width="8" d="M197.43,-752.25C198.11,-763.87 200.92,-775.46 207.5,-785 212.44,-792.16 218.53,-798.32 225.37,-803.63"/>
<polygon fill="white" stroke="white" stroke-width="8" points="225.52,-803.73 221.5,-809.46 233.7,-809.47 225.52,-803.73"/>
<text text-anchor="middle" x="328" y="-773.8" font-family="Times,serif" font-size="14.00" fill="white">80,000,000 row(s)/1,221 chunk(s)</text>
</g>
<!-- 125418753725200 -->
<g id="node9" class="node">
<title>125418753725200</title>
<g id="a_node9"><a xlink:title="Output: 39759 rows in 1 chunk, 200 µs 750 ns.">
<polygon fill="none" stroke="white" points="529,-722 412,-722 412,-668 529,-668 529,-722"/>
<text text-anchor="middle" x="470.5" y="-706.8" font-family="Times,serif" font-size="14.00" fill="white">Validate</text>
<text text-anchor="middle" x="470.5" y="-675.8" font-family="Times,serif" font-size="14.00" fill="white">200 µs 750 ns</text>
</a>
</g>
</g>
<!-- 125418753725200&#45;&gt;125282218971152 -->
<g id="edge9" class="edge">
<title>125418753725200&#45;&gt;125282218971152</title>
<path fill="none" stroke="white" d="M469.91,-722.03C468.19,-741.34 463.05,-767.29 448.5,-785 445.12,-789.12 441.33,-792.93 437.24,-796.45"/>
<polygon fill="white" stroke="white" points="429.07,-802.86 439.1,-799.45 436.93,-796.69 429.07,-802.86"/>
<text text-anchor="middle" x="547.5" y="-773.8" font-family="Times,serif" font-size="14.00" fill="white">39,759 row(s)/1 chunk(s)</text>
</g>
<!-- 125282218970832 -->
<g id="node10" class="node">
<title>125282218970832</title>
<g id="a_node10"><a xlink:title="Output: 39759 rows in 1 chunk, 8 ms 382 µs.&#10;Operator step runtimes:&#10; LeftSideMaterialize 423 µs 937 ns&#10; RightSideMaterialize 9 µs 260 ns&#10; LeftSideTransform 0 ns&#10; RightSideTransform 0 ns&#10; LeftSidePartition 5 ms 826 µs&#10; RightSidePartition 18 µs 154 ns&#10; LeftSideSortBuckets 872 µs 691 ns&#10; RightSideSortBuckets 706 µs 474 ns&#10; GatherRowIds 1 µs 531 ns&#10; FindJoinPartner 323 µs 189 ns&#10; OutputWriting 47 µs 943 ns.">
<polygon fill="none" stroke="white" points="575,-587 366,-587 366,-518 575,-518 575,-587"/>
<text text-anchor="middle" x="470.5" y="-571.8" font-family="Times,serif" font-size="14.00" fill="white">JoinSimdSortMerge (Semi)</text>
<text text-anchor="middle" x="470.5" y="-556.8" font-family="Times,serif" font-size="14.00" fill="white">s_nationkey = n_nationkey</text>
<text text-anchor="middle" x="470.5" y="-525.8" font-family="Times,serif" font-size="14.00" fill="white">8 ms 382 µs</text>
</a>
</g>
</g>
<!-- 125282218970832&#45;&gt;125418753725200 -->
<g id="edge10" class="edge">
<title>125282218970832&#45;&gt;125418753725200</title>
<path fill="none" stroke="white" d="M470.5,-587.15C470.5,-608.36 470.5,-635.75 470.5,-657.48"/>
<polygon fill="white" stroke="white" points="467,-657.65 470.5,-667.65 474,-657.65 467,-657.65"/>
<text text-anchor="middle" x="559.5" y="-608.8" font-family="Times,serif" font-size="14.00" fill="white">39,759 row(s)/1 chunk(s)</text>
</g>
<!-- 125282326056400 -->
<g id="node11" class="node">
<title>125282326056400</title>
<g id="a_node11"><a xlink:title="Output: 1000000 rows in 16 chunks, 56 µs 375 ns.">
<polygon fill="none" stroke="white" points="411,-467 298,-467 298,-353 411,-353 411,-467"/>
<text text-anchor="middle" x="354.5" y="-451.8" font-family="Times,serif" font-size="14.00" fill="white">GetTable</text>
<text text-anchor="middle" x="354.5" y="-436.8" font-family="Times,serif" font-size="14.00" fill="white">(supplier)</text>
<text text-anchor="middle" x="354.5" y="-421.8" font-family="Times,serif" font-size="14.00" fill="white">pruned:</text>
<text text-anchor="middle" x="354.5" y="-406.8" font-family="Times,serif" font-size="14.00" fill="white">0/16 chunk(s)</text>
<text text-anchor="middle" x="354.5" y="-391.8" font-family="Times,serif" font-size="14.00" fill="white">5/7 column(s)</text>
<text text-anchor="middle" x="354.5" y="-360.8" font-family="Times,serif" font-size="14.00" fill="white">56 µs 375 ns</text>
</a>
</g>
</g>
<!-- 125282326056400&#45;&gt;125282218970832 -->
<g id="edge11" class="edge">
<title>125282326056400&#45;&gt;125282218970832</title>
<path fill="none" stroke="white" d="M345.76,-467.03C346.43,-478.66 349.14,-490.31 355.5,-500 358.1,-503.97 361.09,-507.63 364.37,-511.01"/>
<polygon fill="white" stroke="white" points="364.62,-511.24 362.27,-513.83 372.01,-517.98 364.62,-511.24"/>
<text text-anchor="middle" x="460.5" y="-488.8" font-family="Times,serif" font-size="14.00" fill="white">1,000,000 row(s)/16 chunk(s)</text>
</g>
<!-- 125418753724432 -->
<g id="node12" class="node">
<title>125418753724432</title>
<g id="a_node12"><a xlink:title="Output: 1 row in 1 chunk, 12 µs 677 ns.">
<polygon fill="none" stroke="white" points="641.5,-437 533.5,-437 533.5,-383 641.5,-383 641.5,-437"/>
<text text-anchor="middle" x="587.5" y="-421.8" font-family="Times,serif" font-size="14.00" fill="white">Validate</text>
<text text-anchor="middle" x="587.5" y="-390.8" font-family="Times,serif" font-size="14.00" fill="white">12 µs 677 ns</text>
</a>
</g>
</g>
<!-- 125418753724432&#45;&gt;125282218970832 -->
<g id="edge12" class="edge">
<title>125418753724432&#45;&gt;125282218970832</title>
<path fill="none" stroke="white" d="M586.56,-437.19C584.66,-456.33 579.42,-481.99 565.5,-500 562.35,-504.07 558.79,-507.86 554.94,-511.38"/>
<polygon fill="white" stroke="white" points="547.2,-517.83 557.12,-514.11 554.88,-511.42 547.2,-517.83"/>
<text text-anchor="middle" x="643.5" y="-488.8" font-family="Times,serif" font-size="14.00" fill="white">1 row(s)/1 chunk(s)</text>
</g>
<!-- 125282218970192 -->
<g id="node13" class="node">
<title>125282218970192</title>
<g id="a_node13"><a xlink:title="Output: 1 row in 1 chunk, 33 µs 838 ns.&#10;Chunks: 0 skipped with no results, &#10;0 skipped with all matching, 0 scanned using binary search.">
<polygon fill="none" stroke="white" points="681,-302 494,-302 494,-218 681,-218 681,-302"/>
<text text-anchor="middle" x="587.5" y="-286.8" font-family="Times,serif" font-size="14.00" fill="white">TableScan</text>
<text text-anchor="middle" x="587.5" y="-271.8" font-family="Times,serif" font-size="14.00" fill="white">Impl: ColumnVsValue</text>
<text text-anchor="middle" x="587.5" y="-256.8" font-family="Times,serif" font-size="14.00" fill="white">n_name = &#39;INDONESIA&#39;</text>
<text text-anchor="middle" x="587.5" y="-225.8" font-family="Times,serif" font-size="14.00" fill="white">33 µs 838 ns</text>
</a>
</g>
</g>
<!-- 125282218970192&#45;&gt;125418753724432 -->
<g id="edge13" class="edge">
<title>125282218970192&#45;&gt;125418753724432</title>
<path fill="none" stroke="white" d="M587.5,-302.23C587.5,-324.32 587.5,-351.31 587.5,-372.62"/>
<polygon fill="white" stroke="white" points="584,-372.88 587.5,-382.88 591,-372.88 584,-372.88"/>
<text text-anchor="middle" x="656.5" y="-323.8" font-family="Times,serif" font-size="14.00" fill="white">1 row(s)/1 chunk(s)</text>
</g>
<!-- 125282326056848 -->
<g id="node14" class="node">
<title>125282326056848</title>
<g id="a_node14"><a xlink:title="Output: 25 rows in 1 chunk, 25 µs 750 ns.">
<polygon fill="none" stroke="white" points="644,-140.5 531,-140.5 531,-26.5 644,-26.5 644,-140.5"/>
<text text-anchor="middle" x="587.5" y="-125.3" font-family="Times,serif" font-size="14.00" fill="white">GetTable</text>
<text text-anchor="middle" x="587.5" y="-110.3" font-family="Times,serif" font-size="14.00" fill="white">(nation)</text>
<text text-anchor="middle" x="587.5" y="-95.3" font-family="Times,serif" font-size="14.00" fill="white">pruned:</text>
<text text-anchor="middle" x="587.5" y="-80.3" font-family="Times,serif" font-size="14.00" fill="white">0/1 chunk(s)</text>
<text text-anchor="middle" x="587.5" y="-65.3" font-family="Times,serif" font-size="14.00" fill="white">2/4 column(s)</text>
<text text-anchor="middle" x="587.5" y="-34.3" font-family="Times,serif" font-size="14.00" fill="white">25 µs 750 ns</text>
</a>
</g>
</g>
<!-- 125282326056848&#45;&gt;125282218970192 -->
<g id="edge14" class="edge">
<title>125282326056848&#45;&gt;125282218970192</title>
<path fill="none" stroke="white" d="M587.5,-140.67C587.5,-162.25 587.5,-186.74 587.5,-207.83"/>
<polygon fill="white" stroke="white" points="584,-207.87 587.5,-217.87 591,-207.87 584,-207.87"/>
<text text-anchor="middle" x="661" y="-188.8" font-family="Times,serif" font-size="14.00" fill="white">25 row(s)/1 chunk(s)</text>
</g>
<!-- 125282218972112 -->
<g id="node15" class="node">
<title>125282218972112</title>
<g id="a_node15"><a xlink:title="Output: 1 row in 1 chunk, 78 µs 381 ns.&#10;Operator step runtimes:&#10; ForwardUnmodifiedColumns 2 µs 184 ns&#10; EvaluateNewColumns 37 µs 509 ns&#10; BuildOutput 32 µs 655 ns.">
<polygon fill="none" stroke="white" points="523.5,-1391 415.5,-1391 415.5,-1337 523.5,-1337 523.5,-1391"/>
<text text-anchor="middle" x="469.5" y="-1375.8" font-family="Times,serif" font-size="14.00" fill="white">Projection</text>
<text text-anchor="middle" x="469.5" y="-1344.8" font-family="Times,serif" font-size="14.00" fill="white">78 µs 381 ns</text>
</a>
</g>
</g>
<!-- 125282218972112&#45;&gt;125282218972432 -->
<g id="edge15" class="edge">
<title>125282218972112&#45;&gt;125282218972432</title>
<path fill="none" stroke="white" stroke-dasharray="5,2" d="M415.35,-1390.55C386.63,-1404.1 350.22,-1421.28 315.73,-1437.55"/>
<polygon fill="white" stroke="white" points="314.08,-1434.46 306.53,-1441.89 317.07,-1440.79 314.08,-1434.46"/>
<text text-anchor="middle" x="458" y="-1412.8" font-family="Times,serif" font-size="14.00" fill="white">uncorrelated subquery</text>
</g>
<!-- 125418753626128 -->
<g id="node16" class="node">
<title>125418753626128</title>
<g id="a_node16"><a xlink:title="Output: 1 row in 1 chunk, 4 ms 393 µs.&#10;Operator step runtimes:&#10; GroupByKeyPartitioning 63 ns&#10; Aggregating 4 ms 321 µs&#10; GroupByColumnsWriting 2 µs 938 ns&#10; AggregateColumnsWriting 34 µs 2 ns&#10; OutputWriting 17 µs 65 ns.">
<polygon fill="none" stroke="white" points="596,-1217 337,-1217 337,-1133 596,-1133 596,-1217"/>
<text text-anchor="middle" x="466.5" y="-1201.8" font-family="Times,serif" font-size="14.00" fill="white">AggregateHash</text>
<text text-anchor="middle" x="466.5" y="-1186.8" font-family="Times,serif" font-size="14.00" fill="white">GroupBy {}</text>
<text text-anchor="middle" x="466.5" y="-1171.8" font-family="Times,serif" font-size="14.00" fill="white">SUM(ps_supplycost * ps_availqty)</text>
<text text-anchor="middle" x="466.5" y="-1140.8" font-family="Times,serif" font-size="14.00" fill="white">4 ms 393 µs</text>
</a>
</g>
</g>
<!-- 125418753626128&#45;&gt;125282218972112 -->
<g id="edge16" class="edge">
<title>125418753626128&#45;&gt;125282218972112</title>
<path fill="none" stroke="white" d="M467.16,-1217.04C467.68,-1249.78 468.41,-1295.22 468.92,-1326.66"/>
<polygon fill="white" stroke="white" points="465.42,-1326.81 469.08,-1336.75 472.42,-1326.7 465.42,-1326.81"/>
<text text-anchor="middle" x="538.5" y="-1273.3" font-family="Times,serif" font-size="14.00" fill="white">1 row(s)/1 chunk(s)</text>
</g>
<!-- 125282218971792&#45;&gt;125418753626128 -->
<g id="edge17" class="edge">
<title>125282218971792&#45;&gt;125418753626128</title>
<path fill="none" stroke="white" d="M463.39,-1082.19C463.79,-1094.1 464.28,-1108.63 464.76,-1122.58"/>
<polygon fill="white" stroke="white" points="461.26,-1122.71 465.1,-1132.59 468.26,-1122.48 461.26,-1122.71"/>
<text text-anchor="middle" x="574" y="-1103.8" font-family="Times,serif" font-size="14.00" fill="white">3,180,720 row(s)/256 chunk(s)</text>
</g>
<!-- 0 -->
<g id="node18" class="node">
<title>0</title>
<polygon fill="none" stroke="white" points="662,-0.5 662,-166.5 1013,-166.5 1013,-0.5 662,-0.5"/>
<text text-anchor="middle" x="837.5" y="-151.3" font-family="Times,serif" font-size="14.00" fill="white">Total by operator</text>
<polyline fill="none" stroke="white" points="662,-143.5 1013,-143.5 "/>
<text text-anchor="end" x="821" y="-128.3" font-family="Times,serif" font-size="14.00" fill="white">AggregateHash </text>
<text text-anchor="end" x="821" y="-113.3" font-family="Times,serif" font-size="14.00" fill="white"> Projection </text>
<text text-anchor="end" x="821" y="-98.3" font-family="Times,serif" font-size="14.00" fill="white"> JoinSimdSortMerge </text>
<text text-anchor="end" x="821" y="-83.3" font-family="Times,serif" font-size="14.00" fill="white"> Sort </text>
<text text-anchor="end" x="821" y="-68.3" font-family="Times,serif" font-size="14.00" fill="white"> Validate </text>
<text text-anchor="end" x="821" y="-53.3" font-family="Times,serif" font-size="14.00" fill="white"> GetTable </text>
<text text-anchor="end" x="821" y="-38.3" font-family="Times,serif" font-size="14.00" fill="white"> TableScan </text>
<text text-anchor="end" x="821" y="-23.3" font-family="Times,serif" font-size="14.00" fill="white"> Alias </text>
<text text-anchor="end" x="821" y="-8.3" font-family="Times,serif" font-size="14.00" fill="white">total</text>
<polyline fill="none" stroke="white" points="829,-0.5 829,-143.5 "/>
<text text-anchor="start" x="837" y="-128.3" font-family="Times,serif" font-size="14.00" fill="white">632 ms 691 µs </text>
<text text-anchor="start" x="837" y="-113.3" font-family="Times,serif" font-size="14.00" fill="white"> 256 ms 246 µs </text>
<text text-anchor="start" x="837" y="-98.3" font-family="Times,serif" font-size="14.00" fill="white"> 189 ms 857 µs </text>
<text text-anchor="start" x="837" y="-83.3" font-family="Times,serif" font-size="14.00" fill="white"> 9 ms 602 µs </text>
<text text-anchor="start" x="837" y="-68.3" font-family="Times,serif" font-size="14.00" fill="white"> 2 ms 988 µs </text>
<text text-anchor="start" x="837" y="-53.3" font-family="Times,serif" font-size="14.00" fill="white"> 2 ms 181 µs </text>
<text text-anchor="start" x="837" y="-38.3" font-family="Times,serif" font-size="14.00" fill="white"> 536 µs 451 ns </text>
<text text-anchor="start" x="837" y="-23.3" font-family="Times,serif" font-size="14.00" fill="white"> 11 µs 84 ns </text>
<text text-anchor="start" x="837" y="-8.3" font-family="Times,serif" font-size="14.00" fill="white"> 1 s 94 ms </text>
<polyline fill="none" stroke="white" points="960,-0.5 960,-143.5 "/>
<text text-anchor="start" x="968" y="-128.3" font-family="Times,serif" font-size="14.00" fill="white">58 %</text>
<text text-anchor="start" x="968" y="-113.3" font-family="Times,serif" font-size="14.00" fill="white">23 %</text>
<text text-anchor="start" x="968" y="-98.3" font-family="Times,serif" font-size="14.00" fill="white">17 %</text>
<text text-anchor="start" x="968" y="-83.3" font-family="Times,serif" font-size="14.00" fill="white">1 %</text>
<text text-anchor="start" x="968" y="-68.3" font-family="Times,serif" font-size="14.00" fill="white">0 %</text>
<text text-anchor="start" x="968" y="-53.3" font-family="Times,serif" font-size="14.00" fill="white">0 %</text>
<text text-anchor="start" x="968" y="-38.3" font-family="Times,serif" font-size="14.00" fill="white">0 %</text>
<text text-anchor="start" x="968" y="-23.3" font-family="Times,serif" font-size="14.00" fill="white">0 %</text>
<text text-anchor="start" x="968" y="-8.3" font-family="Times,serif" font-size="14.00" fill="white"> </text>
</g>
</g>
</svg>
