<?xml version="1.0" encoding="UTF-8" standalone="no"?>
<!DOCTYPE svg PUBLIC "-//W3C//DTD SVG 1.1//EN"
 "http://www.w3.org/Graphics/SVG/1.1/DTD/svg11.dtd">
<!-- Generated by graphviz version 2.43.0 (0)
 -->
<!-- Title: G Pages: 1 -->
<svg width="1258pt" height="2549pt"
 viewBox="0.00 0.00 1257.50 2549.00" xmlns="http://www.w3.org/2000/svg" xmlns:xlink="http://www.w3.org/1999/xlink">
<g id="graph0" class="graph" transform="scale(1 1) rotate(0) translate(4 2545)">
<title>G</title>
<polygon fill="black" stroke="transparent" points="-4,4 -4,-2545 1253.5,-2545 1253.5,4 -4,4"/>
<text text-anchor="middle" x="319.5" y="-2525.8" font-family="Times,serif" font-size="14.00" fill="white">For tooltips with advanced information, hover your mouse over vertices or edge labels.</text>
<!-- 125280029911440 -->
<g id="node1" class="node">
<title>125280029911440</title>
<g id="a_node1"><a xlink:title="Output: 2 rows in 1 chunk, 5 µs 707 ns.">
<polygon fill="none" stroke="white" points="864,-2486 709,-2486 709,-2417 864,-2417 864,-2486"/>
<text text-anchor="middle" x="786.5" y="-2470.8" font-family="Times,serif" font-size="14.00" fill="white">Alias</text>
<text text-anchor="middle" x="786.5" y="-2455.8" font-family="Times,serif" font-size="14.00" fill="white">[o_year, mkt_share]</text>
<text text-anchor="middle" x="786.5" y="-2424.8" font-family="Times,serif" font-size="14.00" fill="white">5 µs 707 ns</text>
</a>
</g>
</g>
<!-- 125280029911120 -->
<g id="node2" class="node">
<title>125280029911120</title>
<g id="a_node2"><a xlink:title="Output: 2 rows in 1 chunk, 56 µs 537 ns.&#10;Operator step runtimes:&#10; ForwardUnmodifiedColumns 6 µs 398 ns&#10; EvaluateNewColumns 30 µs 592 ns&#10; BuildOutput 13 µs 941 ns.">
<polygon fill="none" stroke="white" points="840.5,-2366 732.5,-2366 732.5,-2312 840.5,-2312 840.5,-2366"/>
<text text-anchor="middle" x="786.5" y="-2350.8" font-family="Times,serif" font-size="14.00" fill="white">Projection</text>
<text text-anchor="middle" x="786.5" y="-2319.8" font-family="Times,serif" font-size="14.00" fill="white">56 µs 537 ns</text>
</a>
</g>
</g>
<!-- 125280029911120&#45;&gt;125280029911440 -->
<g id="edge1" class="edge">
<title>125280029911120&#45;&gt;125280029911440</title>
<path fill="none" stroke="white" d="M786.5,-2366.19C786.5,-2378.29 786.5,-2393 786.5,-2406.72"/>
<polygon fill="white" stroke="white" points="783,-2406.95 786.5,-2416.95 790,-2406.96 783,-2406.95"/>
<text text-anchor="middle" x="855.5" y="-2387.8" font-family="Times,serif" font-size="14.00" fill="white">2 row(s)/1 chunk(s)</text>
</g>
<!-- 125280029910800 -->
<g id="node3" class="node">
<title>125280029910800</title>
<g id="a_node3"><a xlink:title="Output: 2 rows in 1 chunk, 47 µs 100 ns.&#10;Operator step runtimes:&#10; MaterializeSortColumns 11 µs 713 ns&#10; Sort 6 µs 466 ns&#10; TemporaryResultWriting 594 ns&#10; WriteOutput 22 µs 844 ns.">
<polygon fill="none" stroke="white" points="840.5,-2261 732.5,-2261 732.5,-2207 840.5,-2207 840.5,-2261"/>
<text text-anchor="middle" x="786.5" y="-2245.8" font-family="Times,serif" font-size="14.00" fill="white">Sort</text>
<text text-anchor="middle" x="786.5" y="-2214.8" font-family="Times,serif" font-size="14.00" fill="white">47 µs 100 ns</text>
</a>
</g>
</g>
<!-- 125280029910800&#45;&gt;125280029911120 -->
<g id="edge2" class="edge">
<title>125280029910800&#45;&gt;125280029911120</title>
<path fill="none" stroke="white" d="M786.5,-2261.26C786.5,-2273.49 786.5,-2288.24 786.5,-2301.52"/>
<polygon fill="white" stroke="white" points="783,-2301.79 786.5,-2311.79 790,-2301.79 783,-2301.79"/>
<text text-anchor="middle" x="855.5" y="-2282.8" font-family="Times,serif" font-size="14.00" fill="white">2 row(s)/1 chunk(s)</text>
</g>
<!-- 125418625768976 -->
<g id="node4" class="node">
<title>125418625768976</title>
<g id="a_node4"><a xlink:title="Output: 2 rows in 1 chunk, 7 ms 833 µs.&#10;Operator step runtimes:&#10; GroupByKeyPartitioning 2 ms 816 µs&#10; Aggregating 4 ms 925 µs&#10; GroupByColumnsWriting 20 µs 461 ns&#10; AggregateColumnsWriting 29 µs 448 ns&#10; OutputWriting 18 µs 966 ns.">
<polygon fill="none" stroke="white" points="1000.5,-2156 572.5,-2156 572.5,-2042 1000.5,-2042 1000.5,-2156"/>
<text text-anchor="middle" x="786.5" y="-2140.8" font-family="Times,serif" font-size="14.00" fill="white">AggregateHash</text>
<text text-anchor="middle" x="786.5" y="-2125.8" font-family="Times,serif" font-size="14.00" fill="white">GroupBy {SUBSTR(o_orderdate,1,4)}</text>
<text text-anchor="middle" x="786.5" y="-2110.8" font-family="Times,serif" font-size="14.00" fill="white">SUM(CASE WHEN n_name = &#39;UNITED KINGDOM&#39; THEN</text>
<text text-anchor="middle" x="786.5" y="-2095.8" font-family="Times,serif" font-size="14.00" fill="white">l_extendedprice * (1 &#45; l_discount) ELSE 0 END), </text>
<text text-anchor="middle" x="786.5" y="-2080.8" font-family="Times,serif" font-size="14.00" fill="white">SUM(l_extendedprice * (1 &#45; l_discount))</text>
<text text-anchor="middle" x="786.5" y="-2049.8" font-family="Times,serif" font-size="14.00" fill="white">7 ms 833 µs</text>
</a>
</g>
</g>
<!-- 125418625768976&#45;&gt;125280029910800 -->
<g id="edge3" class="edge">
<title>125418625768976&#45;&gt;125280029910800</title>
<path fill="none" stroke="white" d="M786.5,-2156.02C786.5,-2169.77 786.5,-2184.14 786.5,-2196.69"/>
<polygon fill="white" stroke="white" points="783,-2196.75 786.5,-2206.75 790,-2196.75 783,-2196.75"/>
<text text-anchor="middle" x="855.5" y="-2177.8" font-family="Times,serif" font-size="14.00" fill="white">2 row(s)/1 chunk(s)</text>
</g>
<!-- 125280029910480 -->
<g id="node5" class="node">
<title>125280029910480</title>
<g id="a_node5"><a xlink:title="Output: 241841 rows in 25 chunks, 1 ms 348 µs.&#10;Operator step runtimes:&#10; ForwardUnmodifiedColumns 28 µs 935 ns&#10; EvaluateNewColumns 1 ms 258 µs&#10; BuildOutput 52 µs 588 ns.">
<polygon fill="none" stroke="white" points="838.5,-1991 734.5,-1991 734.5,-1937 838.5,-1937 838.5,-1991"/>
<text text-anchor="middle" x="786.5" y="-1975.8" font-family="Times,serif" font-size="14.00" fill="white">Projection</text>
<text text-anchor="middle" x="786.5" y="-1944.8" font-family="Times,serif" font-size="14.00" fill="white">1 ms 348 µs</text>
</a>
</g>
</g>
<!-- 125280029910480&#45;&gt;125418625768976 -->
<g id="edge4" class="edge">
<title>125280029910480&#45;&gt;125418625768976</title>
<path fill="none" stroke="white" d="M786.5,-1991.28C786.5,-2002.91 786.5,-2017.18 786.5,-2031.45"/>
<polygon fill="white" stroke="white" points="783,-2031.8 786.5,-2041.8 790,-2031.8 783,-2031.8"/>
<text text-anchor="middle" x="884.5" y="-2012.8" font-family="Times,serif" font-size="14.00" fill="white">241,841 row(s)/25 chunk(s)</text>
</g>
<!-- 125280029910160 -->
<g id="node6" class="node">
<title>125280029910160</title>
<g id="a_node6"><a xlink:title="Output: 241841 rows in 25 chunks, 33 µs 348 ns.">
<polygon fill="none" stroke="white" points="880,-1886 693,-1886 693,-1817 880,-1817 880,-1886"/>
<text text-anchor="middle" x="786.5" y="-1870.8" font-family="Times,serif" font-size="14.00" fill="white">Alias</text>
<text text-anchor="middle" x="786.5" y="-1855.8" font-family="Times,serif" font-size="14.00" fill="white">[o_year, volume, nation]</text>
<text text-anchor="middle" x="786.5" y="-1824.8" font-family="Times,serif" font-size="14.00" fill="white">33 µs 348 ns</text>
</a>
</g>
</g>
<!-- 125280029910160&#45;&gt;125280029910480 -->
<g id="edge5" class="edge">
<title>125280029910160&#45;&gt;125280029910480</title>
<path fill="none" stroke="white" d="M786.5,-1886.25C786.5,-1899.07 786.5,-1913.73 786.5,-1926.77"/>
<polygon fill="white" stroke="white" points="783,-1926.81 786.5,-1936.81 790,-1926.81 783,-1926.81"/>
<text text-anchor="middle" x="884.5" y="-1907.8" font-family="Times,serif" font-size="14.00" fill="white">241,841 row(s)/25 chunk(s)</text>
</g>
<!-- 125280029909840 -->
<g id="node7" class="node">
<title>125280029909840</title>
<g id="a_node7"><a xlink:title="Output: 241841 rows in 25 chunks, 40 ms 711 µs.&#10;Operator step runtimes:&#10; ForwardUnmodifiedColumns 32 µs 341 ns&#10; EvaluateNewColumns 40 ms 522 µs&#10; BuildOutput 136 µs 375 ns.">
<polygon fill="none" stroke="white" points="843,-1766 730,-1766 730,-1712 843,-1712 843,-1766"/>
<text text-anchor="middle" x="786.5" y="-1750.8" font-family="Times,serif" font-size="14.00" fill="white">Projection</text>
<text text-anchor="middle" x="786.5" y="-1719.8" font-family="Times,serif" font-size="14.00" fill="white">40 ms 711 µs</text>
</a>
</g>
</g>
<!-- 125280029909840&#45;&gt;125280029910160 -->
<g id="edge6" class="edge">
<title>125280029909840&#45;&gt;125280029910160</title>
<path fill="none" stroke="white" d="M786.5,-1766.19C786.5,-1778.29 786.5,-1793 786.5,-1806.72"/>
<polygon fill="white" stroke="white" points="783,-1806.95 786.5,-1816.95 790,-1806.96 783,-1806.95"/>
<text text-anchor="middle" x="884.5" y="-1787.8" font-family="Times,serif" font-size="14.00" fill="white">241,841 row(s)/25 chunk(s)</text>
</g>
<!-- 125280029909520 -->
<g id="node8" class="node">
<title>125280029909520</title>
<g id="a_node8"><a xlink:title="Output: 241841 rows in 25 chunks, 7 ms 118 µs.&#10;Operator step runtimes:&#10; LeftSideMaterialize 992 µs 131 ns&#10; RightSideMaterialize 9 µs 713 ns&#10; LeftSideTransform 0 ns&#10; RightSideTransform 0 ns&#10; LeftSidePartition 1 ms 514 µs&#10; RightSidePartition 94 µs 965 ns&#10; LeftSideSortBuckets 722 µs 408 ns&#10; RightSideSortBuckets 688 µs 103 ns&#10; GatherRowIds 533 ns&#10; FindJoinPartner 1 ms 207 µs&#10; OutputWriting 1 ms 746 µs.">
<polygon fill="none" stroke="white" points="892,-1661 681,-1661 681,-1592 892,-1592 892,-1661"/>
<text text-anchor="middle" x="786.5" y="-1645.8" font-family="Times,serif" font-size="14.00" fill="white">JoinSimdSortMerge (Inner)</text>
<text text-anchor="middle" x="786.5" y="-1630.8" font-family="Times,serif" font-size="14.00" fill="white">s_nationkey = n_nationkey</text>
<text text-anchor="middle" x="786.5" y="-1599.8" font-family="Times,serif" font-size="14.00" fill="white">7 ms 118 µs</text>
</a>
</g>
</g>
<!-- 125280029909520&#45;&gt;125280029909840 -->
<g id="edge7" class="edge">
<title>125280029909520&#45;&gt;125280029909840</title>
<path fill="none" stroke="white" d="M786.5,-1661.25C786.5,-1674.07 786.5,-1688.73 786.5,-1701.77"/>
<polygon fill="white" stroke="white" points="783,-1701.81 786.5,-1711.81 790,-1701.81 783,-1701.81"/>
<text text-anchor="middle" x="884.5" y="-1682.8" font-family="Times,serif" font-size="14.00" fill="white">241,841 row(s)/25 chunk(s)</text>
</g>
<!-- 125280029909200 -->
<g id="node9" class="node">
<title>125280029909200</title>
<g id="a_node9"><a xlink:title="Output: 241841 rows in 256 chunks, 30 ms 72 µs.&#10;Operator step runtimes:&#10; LeftSideMaterialize 332 µs 242 ns&#10; RightSideMaterialize 18 ms 274 µs&#10; LeftSideTransform 0 ns&#10; RightSideTransform 0 ns&#10; LeftSidePartition 4 ms 736 µs&#10; RightSidePartition 1 ms 989 µs&#10; LeftSideSortBuckets 740 µs 541 ns&#10; RightSideSortBuckets 677 µs 738 ns&#10; GatherRowIds 1 µs 691 ns&#10; FindJoinPartner 1 ms 365 µs&#10; OutputWriting 1 ms 662 µs.">
<polygon fill="none" stroke="white" points="679,-1541 468,-1541 468,-1472 679,-1472 679,-1541"/>
<text text-anchor="middle" x="573.5" y="-1525.8" font-family="Times,serif" font-size="14.00" fill="white">JoinSimdSortMerge (Inner)</text>
<text text-anchor="middle" x="573.5" y="-1510.8" font-family="Times,serif" font-size="14.00" fill="white">s_suppkey = l_suppkey</text>
<text text-anchor="middle" x="573.5" y="-1479.8" font-family="Times,serif" font-size="14.00" fill="white">30 ms 72 µs</text>
</a>
</g>
</g>
<!-- 125280029909200&#45;&gt;125280029909520 -->
<g id="edge8" class="edge">
<title>125280029909200&#45;&gt;125280029909520</title>
<path fill="none" stroke="white" d="M634.25,-1541.16C659.99,-1555.42 690.14,-1572.11 716.78,-1586.87"/>
<polygon fill="white" stroke="white" points="716.92,-1586.95 715.22,-1590.01 725.67,-1591.8 716.92,-1586.95"/>
<text text-anchor="middle" x="795" y="-1562.8" font-family="Times,serif" font-size="14.00" fill="white">241,841 row(s)/256 chunk(s)</text>
</g>
<!-- 125418625656080 -->
<g id="node10" class="node">
<title>125418625656080</title>
<g id="a_node10"><a xlink:title="Output: 1000000 rows in 16 chunks, 136 µs 746 ns.">
<polygon fill="none" stroke="white" points="296,-1413.5 179,-1413.5 179,-1359.5 296,-1359.5 296,-1413.5"/>
<text text-anchor="middle" x="237.5" y="-1398.3" font-family="Times,serif" font-size="14.00" fill="white">Validate</text>
<text text-anchor="middle" x="237.5" y="-1367.3" font-family="Times,serif" font-size="14.00" fill="white">136 µs 746 ns</text>
</a>
</g>
</g>
<!-- 125418625656080&#45;&gt;125280029909200 -->
<g id="edge9" class="edge">
<title>125418625656080&#45;&gt;125280029909200</title>
<path fill="none" stroke="white" d="M278.82,-1413.57C301.85,-1427.18 331.47,-1443.21 359.5,-1454 390.69,-1466.01 425.54,-1475.82 457.91,-1483.54"/>
<polygon fill="white" stroke="white" points="458.14,-1483.59 457.34,-1487 467.87,-1485.87 458.14,-1483.59"/>
<text text-anchor="middle" x="464.5" y="-1442.8" font-family="Times,serif" font-size="14.00" fill="white">1,000,000 row(s)/16 chunk(s)</text>
</g>
<!-- 125193979646544 -->
<g id="node11" class="node">
<title>125193979646544</title>
<g id="a_node11"><a xlink:title="Output: 1000000 rows in 16 chunks, 70 µs 283 ns.">
<polygon fill="none" stroke="white" points="294,-1301 181,-1301 181,-1187 294,-1187 294,-1301"/>
<text text-anchor="middle" x="237.5" y="-1285.8" font-family="Times,serif" font-size="14.00" fill="white">GetTable</text>
<text text-anchor="middle" x="237.5" y="-1270.8" font-family="Times,serif" font-size="14.00" fill="white">(supplier)</text>
<text text-anchor="middle" x="237.5" y="-1255.8" font-family="Times,serif" font-size="14.00" fill="white">pruned:</text>
<text text-anchor="middle" x="237.5" y="-1240.8" font-family="Times,serif" font-size="14.00" fill="white">0/16 chunk(s)</text>
<text text-anchor="middle" x="237.5" y="-1225.8" font-family="Times,serif" font-size="14.00" fill="white">5/7 column(s)</text>
<text text-anchor="middle" x="237.5" y="-1194.8" font-family="Times,serif" font-size="14.00" fill="white">70 µs 283 ns</text>
</a>
</g>
</g>
<!-- 125193979646544&#45;&gt;125418625656080 -->
<g id="edge10" class="edge">
<title>125193979646544&#45;&gt;125418625656080</title>
<path fill="none" stroke="white" d="M237.5,-1301.34C237.5,-1317.43 237.5,-1334.54 237.5,-1349.1"/>
<polygon fill="white" stroke="white" points="234,-1349.2 237.5,-1359.2 241,-1349.2 234,-1349.2"/>
<text text-anchor="middle" x="342.5" y="-1322.8" font-family="Times,serif" font-size="14.00" fill="white">1,000,000 row(s)/16 chunk(s)</text>
</g>
<!-- 125280029908880 -->
<g id="node12" class="node">
<title>125280029908880</title>
<g id="a_node12"><a xlink:title="Output: 241841 rows in 256 chunks, 45 ms 321 µs.&#10;Operator step runtimes:&#10; LeftSideMaterialize 9 ms 323 µs&#10; RightSideMaterialize 19 ms 312 µs&#10; LeftSideTransform 0 ns&#10; RightSideTransform 0 ns&#10; LeftSidePartition 1 ms 797 µs&#10; RightSidePartition 1 ms 322 µs&#10; LeftSideSortBuckets 4 ms 269 µs&#10; RightSideSortBuckets 3 ms 508 µs&#10; GatherRowIds 1 µs 649 ns&#10; FindJoinPartner 3 ms 509 µs&#10; OutputWriting 1 ms 665 µs.">
<polygon fill="none" stroke="white" points="679,-1421 468,-1421 468,-1352 679,-1352 679,-1421"/>
<text text-anchor="middle" x="573.5" y="-1405.8" font-family="Times,serif" font-size="14.00" fill="white">JoinSimdSortMerge (Inner)</text>
<text text-anchor="middle" x="573.5" y="-1390.8" font-family="Times,serif" font-size="14.00" fill="white">c_custkey = o_custkey</text>
<text text-anchor="middle" x="573.5" y="-1359.8" font-family="Times,serif" font-size="14.00" fill="white">45 ms 321 µs</text>
</a>
</g>
</g>
<!-- 125280029908880&#45;&gt;125280029909200 -->
<g id="edge11" class="edge">
<title>125280029908880&#45;&gt;125280029909200</title>
<path fill="none" stroke="white" d="M573.5,-1421.31C573.5,-1433.78 573.5,-1448.1 573.5,-1461.34"/>
<polygon fill="white" stroke="white" points="573.5,-1471.68 577,-1461.68 573.5,-1461.68 573.5,-1471.68"/>
<text text-anchor="middle" x="676" y="-1442.8" font-family="Times,serif" font-size="14.00" fill="white">241,841 row(s)/256 chunk(s)</text>
</g>
<!-- 125418625652240 -->
<g id="node13" class="node">
<title>125418625652240</title>
<g id="a_node13"><a xlink:title="Output: 2998599 rows in 5 chunks, 56 ms 893 µs.">
<polygon fill="none" stroke="white" points="760,-1271 647,-1271 647,-1217 760,-1217 760,-1271"/>
<text text-anchor="middle" x="703.5" y="-1255.8" font-family="Times,serif" font-size="14.00" fill="white">Validate</text>
<text text-anchor="middle" x="703.5" y="-1224.8" font-family="Times,serif" font-size="14.00" fill="white">56 ms 893 µs</text>
</a>
</g>
</g>
<!-- 125418625652240&#45;&gt;125280029908880 -->
<g id="edge12" class="edge">
<title>125418625652240&#45;&gt;125280029908880</title>
<path fill="none" stroke="white" d="M702.87,-1271C701.13,-1290.3 695.98,-1316.24 681.5,-1334 678.14,-1338.12 674.37,-1341.93 670.31,-1345.45"/>
<polygon fill="white" stroke="white" points="670.02,-1345.68 667.85,-1342.94 662.17,-1351.88 670.02,-1345.68"/>
<text text-anchor="middle" x="791" y="-1322.8" font-family="Times,serif" font-size="14.00" fill="white">2,998,599 row(s)/5 chunk(s)</text>
</g>
<!-- 125280029906960 -->
<g id="node14" class="node">
<title>125280029906960</title>
<g id="a_node14"><a xlink:title="Output: 2998599 rows in 5 chunks, 58 ms 604 µs.&#10;Operator step runtimes:&#10; LeftSideMaterialize 2 ms 506 µs&#10; RightSideMaterialize 16 µs 168 ns&#10; LeftSideTransform 0 ns&#10; RightSideTransform 0 ns&#10; LeftSidePartition 12 ms 563 µs&#10; RightSidePartition 1 ms 219 µs&#10; LeftSideSortBuckets 11 ms 67 µs&#10; RightSideSortBuckets 11 ms 598 µs&#10; GatherRowIds 3 µs 287 ns&#10; FindJoinPartner 17 ms 940 µs&#10; OutputWriting 292 µs 379 ns.">
<polygon fill="none" stroke="white" points="808,-1136 599,-1136 599,-1067 808,-1067 808,-1136"/>
<text text-anchor="middle" x="703.5" y="-1120.8" font-family="Times,serif" font-size="14.00" fill="white">JoinSimdSortMerge (Semi)</text>
<text text-anchor="middle" x="703.5" y="-1105.8" font-family="Times,serif" font-size="14.00" fill="white">c_nationkey = n_nationkey</text>
<text text-anchor="middle" x="703.5" y="-1074.8" font-family="Times,serif" font-size="14.00" fill="white">58 ms 604 µs</text>
</a>
</g>
</g>
<!-- 125280029906960&#45;&gt;125418625652240 -->
<g id="edge13" class="edge">
<title>125280029906960&#45;&gt;125418625652240</title>
<path fill="none" stroke="white" d="M703.5,-1136.15C703.5,-1157.36 703.5,-1184.75 703.5,-1206.48"/>
<polygon fill="white" stroke="white" points="700,-1206.65 703.5,-1216.65 707,-1206.65 700,-1206.65"/>
<text text-anchor="middle" x="804" y="-1157.8" font-family="Times,serif" font-size="14.00" fill="white">2,998,599 row(s)/5 chunk(s)</text>
</g>
<!-- 125193979645648 -->
<g id="node15" class="node">
<title>125193979645648</title>
<g id="a_node15"><a xlink:title="Output: 15000000 rows in 229 chunks, 731 µs 318 ns.">
<polygon fill="none" stroke="white" points="737.5,-1016 615.5,-1016 615.5,-902 737.5,-902 737.5,-1016"/>
<text text-anchor="middle" x="676.5" y="-1000.8" font-family="Times,serif" font-size="14.00" fill="white">GetTable</text>
<text text-anchor="middle" x="676.5" y="-985.8" font-family="Times,serif" font-size="14.00" fill="white">(customer)</text>
<text text-anchor="middle" x="676.5" y="-970.8" font-family="Times,serif" font-size="14.00" fill="white">pruned:</text>
<text text-anchor="middle" x="676.5" y="-955.8" font-family="Times,serif" font-size="14.00" fill="white">0/229 chunk(s)</text>
<text text-anchor="middle" x="676.5" y="-940.8" font-family="Times,serif" font-size="14.00" fill="white">6/8 column(s)</text>
<text text-anchor="middle" x="676.5" y="-909.8" font-family="Times,serif" font-size="14.00" fill="white">731 µs 318 ns</text>
</a>
</g>
</g>
<!-- 125193979645648&#45;&gt;125280029906960 -->
<g id="edge14" class="edge">
<title>125193979645648&#45;&gt;125280029906960</title>
<path fill="none" stroke="white" d="M673.26,-1016.03C673.7,-1027.08 674.94,-1038.49 677.5,-1049 678.19,-1051.83 679.06,-1054.68 680.06,-1057.51"/>
<polygon fill="white" stroke="white" points="680.14,-1057.72 676.89,-1059.02 683.87,-1066.99 680.14,-1057.72"/>
<text text-anchor="middle" x="791.5" y="-1037.8" font-family="Times,serif" font-size="14.00" fill="white">15,000,000 row(s)/229 chunk(s)</text>
</g>
<!-- 125418625657360 -->
<g id="node16" class="node">
<title>125418625657360</title>
<g id="a_node16"><a xlink:title="Output: 5 rows in 1 chunk, 5 µs 595 ns.">
<polygon fill="none" stroke="white" points="966,-986 867,-986 867,-932 966,-932 966,-986"/>
<text text-anchor="middle" x="916.5" y="-970.8" font-family="Times,serif" font-size="14.00" fill="white">Validate</text>
<text text-anchor="middle" x="916.5" y="-939.8" font-family="Times,serif" font-size="14.00" fill="white">5 µs 595 ns</text>
</a>
</g>
</g>
<!-- 125418625657360&#45;&gt;125280029906960 -->
<g id="edge15" class="edge">
<title>125418625657360&#45;&gt;125280029906960</title>
<path fill="none" stroke="white" d="M920.5,-986.13C921.97,-1005.76 920.42,-1032.06 905.5,-1049 892.9,-1063.3 856.48,-1074.55 817.97,-1082.84"/>
<polygon fill="white" stroke="white" points="808.14,-1084.89 818.65,-1086.28 817.93,-1082.85 808.14,-1084.89"/>
<text text-anchor="middle" x="982.5" y="-1037.8" font-family="Times,serif" font-size="14.00" fill="white">5 row(s)/1 chunk(s)</text>
</g>
<!-- 125280029906640 -->
<g id="node17" class="node">
<title>125280029906640</title>
<g id="a_node17"><a xlink:title="Output: 5 rows in 1 chunk, 2 ms 19 µs.&#10;Operator step runtimes:&#10; LeftSideMaterialize 25 µs 783 ns&#10; RightSideMaterialize 14 µs 551 ns&#10; LeftSideTransform 0 ns&#10; RightSideTransform 0 ns&#10; LeftSidePartition 62 µs 895 ns&#10; RightSidePartition 22 µs 345 ns&#10; LeftSideSortBuckets 813 µs 373 ns&#10; RightSideSortBuckets 889 µs 848 ns&#10; GatherRowIds 1 µs 664 ns&#10; FindJoinPartner 18 µs 525 ns&#10; OutputWriting 35 µs 604 ns.">
<polygon fill="none" stroke="white" points="1010,-797 801,-797 801,-728 1010,-728 1010,-797"/>
<text text-anchor="middle" x="905.5" y="-781.8" font-family="Times,serif" font-size="14.00" fill="white">JoinSimdSortMerge (Semi)</text>
<text text-anchor="middle" x="905.5" y="-766.8" font-family="Times,serif" font-size="14.00" fill="white">n_regionkey = r_regionkey</text>
<text text-anchor="middle" x="905.5" y="-735.8" font-family="Times,serif" font-size="14.00" fill="white">2 ms 19 µs</text>
</a>
</g>
</g>
<!-- 125280029906640&#45;&gt;125418625657360 -->
<g id="edge16" class="edge">
<title>125280029906640&#45;&gt;125418625657360</title>
<path fill="none" stroke="white" d="M903.07,-797.31C902.43,-807.78 901.82,-819.36 901.5,-830 900.78,-853.99 899.1,-860.12 901.5,-884 902.74,-896.41 905.14,-909.81 907.65,-921.76"/>
<polygon fill="white" stroke="white" points="904.3,-922.81 909.86,-931.82 911.13,-921.31 904.3,-922.81"/>
<text text-anchor="middle" x="970.5" y="-853.3" font-family="Times,serif" font-size="14.00" fill="white">5 row(s)/1 chunk(s)</text>
</g>
<!-- 125193979646096 -->
<g id="node18" class="node">
<title>125193979646096</title>
<g id="a_node18"><a xlink:title="Output: 25 rows in 1 chunk, 35 µs 871 ns.">
<polygon fill="none" stroke="white" points="1074,-662 961,-662 961,-548 1074,-548 1074,-662"/>
<text text-anchor="middle" x="1017.5" y="-646.8" font-family="Times,serif" font-size="14.00" fill="white">GetTable</text>
<text text-anchor="middle" x="1017.5" y="-631.8" font-family="Times,serif" font-size="14.00" fill="white">(nation)</text>
<text text-anchor="middle" x="1017.5" y="-616.8" font-family="Times,serif" font-size="14.00" fill="white">pruned:</text>
<text text-anchor="middle" x="1017.5" y="-601.8" font-family="Times,serif" font-size="14.00" fill="white">0/1 chunk(s)</text>
<text text-anchor="middle" x="1017.5" y="-586.8" font-family="Times,serif" font-size="14.00" fill="white">1/4 column(s)</text>
<text text-anchor="middle" x="1017.5" y="-555.8" font-family="Times,serif" font-size="14.00" fill="white">35 µs 871 ns</text>
</a>
</g>
</g>
<!-- 125193979646096&#45;&gt;125280029906640 -->
<g id="edge17" class="edge">
<title>125193979646096&#45;&gt;125280029906640</title>
<path fill="none" stroke="white" d="M960.89,-648.52C950.78,-658.04 941.07,-668.69 933.5,-680 925.81,-691.49 920.02,-705.31 915.76,-718.28"/>
<polygon fill="white" stroke="white" points="915.72,-718.41 912.38,-717.39 912.8,-727.98 915.72,-718.41"/>
<text text-anchor="middle" x="1007" y="-683.8" font-family="Times,serif" font-size="14.00" fill="white">25 row(s)/1 chunk(s)</text>
</g>
<!-- 125418625655824 -->
<g id="node33" class="node">
<title>125418625655824</title>
<g id="a_node33"><a xlink:title="Output: 25 rows in 1 chunk, 16 µs 131 ns.">
<polygon fill="none" stroke="white" points="1156.5,-884 1048.5,-884 1048.5,-830 1156.5,-830 1156.5,-884"/>
<text text-anchor="middle" x="1102.5" y="-868.8" font-family="Times,serif" font-size="14.00" fill="white">Validate</text>
<text text-anchor="middle" x="1102.5" y="-837.8" font-family="Times,serif" font-size="14.00" fill="white">16 µs 131 ns</text>
</a>
</g>
</g>
<!-- 125193979646096&#45;&gt;125418625655824 -->
<g id="edge18" class="edge">
<title>125193979646096&#45;&gt;125418625655824</title>
<path fill="none" stroke="white" d="M1070.84,-662.39C1074.54,-668.07 1077.85,-673.98 1080.5,-680 1100.38,-725.14 1103.99,-782.7 1103.92,-819.46"/>
<polygon fill="white" stroke="white" points="1100.41,-819.67 1103.8,-829.71 1107.41,-819.75 1100.41,-819.67"/>
<text text-anchor="middle" x="1159" y="-683.8" font-family="Times,serif" font-size="14.00" fill="white">25 row(s)/1 chunk(s)</text>
</g>
<!-- 125418625651216 -->
<g id="node19" class="node">
<title>125418625651216</title>
<g id="a_node19"><a xlink:title="Output: 1 row in 1 chunk, 34 µs 124 ns.">
<polygon fill="none" stroke="white" points="825.5,-632 717.5,-632 717.5,-578 825.5,-578 825.5,-632"/>
<text text-anchor="middle" x="771.5" y="-616.8" font-family="Times,serif" font-size="14.00" fill="white">Validate</text>
<text text-anchor="middle" x="771.5" y="-585.8" font-family="Times,serif" font-size="14.00" fill="white">34 µs 124 ns</text>
</a>
</g>
</g>
<!-- 125418625651216&#45;&gt;125280029906640 -->
<g id="edge19" class="edge">
<title>125418625651216&#45;&gt;125280029906640</title>
<path fill="none" stroke="white" d="M768.69,-632.37C768.01,-651.36 770.03,-676.74 782.5,-695 789.63,-705.44 798.95,-714.39 809.27,-722.01"/>
<polygon fill="white" stroke="white" points="817.74,-727.85 811.49,-719.29 809.51,-722.17 817.74,-727.85"/>
<text text-anchor="middle" x="851.5" y="-683.8" font-family="Times,serif" font-size="14.00" fill="white">1 row(s)/1 chunk(s)</text>
</g>
<!-- 125280029906320 -->
<g id="node20" class="node">
<title>125280029906320</title>
<g id="a_node20"><a xlink:title="Output: 1 row in 1 chunk, 57 µs 561 ns.&#10;Chunks: 0 skipped with no results, &#10;0 skipped with all matching, 0 scanned using binary search.">
<polygon fill="none" stroke="white" points="856,-482 687,-482 687,-398 856,-398 856,-482"/>
<text text-anchor="middle" x="771.5" y="-466.8" font-family="Times,serif" font-size="14.00" fill="white">TableScan</text>
<text text-anchor="middle" x="771.5" y="-451.8" font-family="Times,serif" font-size="14.00" fill="white">Impl: ColumnVsValue</text>
<text text-anchor="middle" x="771.5" y="-436.8" font-family="Times,serif" font-size="14.00" fill="white">r_name = &#39;EUROPE&#39;</text>
<text text-anchor="middle" x="771.5" y="-405.8" font-family="Times,serif" font-size="14.00" fill="white">57 µs 561 ns</text>
</a>
</g>
</g>
<!-- 125280029906320&#45;&gt;125418625651216 -->
<g id="edge20" class="edge">
<title>125280029906320&#45;&gt;125418625651216</title>
<path fill="none" stroke="white" d="M771.5,-482.13C771.5,-508.37 771.5,-542.09 771.5,-567.4"/>
<polygon fill="white" stroke="white" points="768,-567.69 771.5,-577.69 775,-567.69 768,-567.69"/>
<text text-anchor="middle" x="840.5" y="-518.8" font-family="Times,serif" font-size="14.00" fill="white">1 row(s)/1 chunk(s)</text>
</g>
<!-- 125193979646992 -->
<g id="node21" class="node">
<title>125193979646992</title>
<g id="a_node21"><a xlink:title="Output: 5 rows in 1 chunk, 41 µs 812 ns.">
<polygon fill="none" stroke="white" points="828,-332 715,-332 715,-218 828,-218 828,-332"/>
<text text-anchor="middle" x="771.5" y="-316.8" font-family="Times,serif" font-size="14.00" fill="white">GetTable</text>
<text text-anchor="middle" x="771.5" y="-301.8" font-family="Times,serif" font-size="14.00" fill="white">(region)</text>
<text text-anchor="middle" x="771.5" y="-286.8" font-family="Times,serif" font-size="14.00" fill="white">pruned:</text>
<text text-anchor="middle" x="771.5" y="-271.8" font-family="Times,serif" font-size="14.00" fill="white">0/1 chunk(s)</text>
<text text-anchor="middle" x="771.5" y="-256.8" font-family="Times,serif" font-size="14.00" fill="white">1/3 column(s)</text>
<text text-anchor="middle" x="771.5" y="-225.8" font-family="Times,serif" font-size="14.00" fill="white">41 µs 812 ns</text>
</a>
</g>
</g>
<!-- 125193979646992&#45;&gt;125280029906320 -->
<g id="edge21" class="edge">
<title>125193979646992&#45;&gt;125280029906320</title>
<path fill="none" stroke="white" d="M771.5,-332.1C771.5,-350.19 771.5,-370.13 771.5,-387.85"/>
<polygon fill="white" stroke="white" points="768,-387.99 771.5,-397.99 775,-387.99 768,-387.99"/>
<text text-anchor="middle" x="840.5" y="-353.8" font-family="Times,serif" font-size="14.00" fill="white">5 row(s)/1 chunk(s)</text>
</g>
<!-- 125280029908560 -->
<g id="node22" class="node">
<title>125280029908560</title>
<g id="a_node22"><a xlink:title="Output: 1209961 rows in 64 chunks, 199 ms 942 µs.&#10;Operator step runtimes:&#10; LeftSideMaterialize 19 ms 123 µs&#10; RightSideMaterialize 159 ms 617 µs&#10; LeftSideTransform 0 ns&#10; RightSideTransform 0 ns&#10; LeftSidePartition 1 ms 27 µs&#10; RightSidePartition 3 ms 34 µs&#10; LeftSideSortBuckets 1 ms 132 µs&#10; RightSideSortBuckets 4 ms 109 µs&#10; GatherRowIds 3 µs 475 ns&#10; FindJoinPartner 8 ms 66 µs&#10; OutputWriting 3 ms 148 µs.">
<polygon fill="none" stroke="white" stroke-width="3.14" points="549,-1278.5 338,-1278.5 338,-1209.5 549,-1209.5 549,-1278.5"/>
<text text-anchor="middle" x="443.5" y="-1263.3" font-family="Times,serif" font-size="14.00" fill="white">JoinSimdSortMerge (Inner)</text>
<text text-anchor="middle" x="443.5" y="-1248.3" font-family="Times,serif" font-size="14.00" fill="white">o_orderkey = l_orderkey</text>
<text text-anchor="middle" x="443.5" y="-1217.3" font-family="Times,serif" font-size="14.00" fill="white">199 ms 942 µs</text>
</a>
</g>
</g>
<!-- 125280029908560&#45;&gt;125280029908880 -->
<g id="edge22" class="edge">
<title>125280029908560&#45;&gt;125280029908880</title>
<path fill="none" stroke="white" d="M445.84,-1278.52C448.63,-1296.66 454.65,-1318.46 467.5,-1334 471,-1338.24 474.94,-1342.15 479.18,-1345.77"/>
<polygon fill="white" stroke="white" points="487.11,-1351.95 481.38,-1343.04 479.23,-1345.8 487.11,-1351.95"/>
<text text-anchor="middle" x="572.5" y="-1322.8" font-family="Times,serif" font-size="14.00" fill="white">1,209,961 row(s)/64 chunk(s)</text>
</g>
<!-- 125418625655568 -->
<g id="node23" class="node">
<title>125418625655568</title>
<g id="a_node23"><a xlink:title="Output: 1193955 rows in 64 chunks, 2 ms 954 µs.">
<polygon fill="none" stroke="white" points="495.5,-1128.5 391.5,-1128.5 391.5,-1074.5 495.5,-1074.5 495.5,-1128.5"/>
<text text-anchor="middle" x="443.5" y="-1113.3" font-family="Times,serif" font-size="14.00" fill="white">Validate</text>
<text text-anchor="middle" x="443.5" y="-1082.3" font-family="Times,serif" font-size="14.00" fill="white">2 ms 954 µs</text>
</a>
</g>
</g>
<!-- 125418625655568&#45;&gt;125280029908560 -->
<g id="edge23" class="edge">
<title>125418625655568&#45;&gt;125280029908560</title>
<path fill="none" stroke="white" d="M443.5,-1128.6C443.5,-1148.35 443.5,-1175.93 443.5,-1199.06"/>
<polygon fill="white" stroke="white" points="443.5,-1199.33 440,-1199.33 443.5,-1209.33 443.5,-1199.33"/>
<text text-anchor="middle" x="548.5" y="-1157.8" font-family="Times,serif" font-size="14.00" fill="white">1,193,955 row(s)/64 chunk(s)</text>
</g>
<!-- 125280029908240 -->
<g id="node24" class="node">
<title>125280029908240</title>
<g id="a_node24"><a xlink:title="Output: 1193955 rows in 64 chunks, 327 ms 294 µs.&#10;Operator step runtimes:&#10; LeftSideMaterialize 17 ms 912 µs&#10; RightSideMaterialize 164 ms 112 µs&#10; LeftSideTransform 0 ns&#10; RightSideTransform 0 ns&#10; LeftSidePartition 47 ms 179 µs&#10; RightSidePartition 3 ms 23 µs&#10; LeftSideSortBuckets 24 ms 167 µs&#10; RightSideSortBuckets 4 ms 364 µs&#10; GatherRowIds 3 µs 779 ns&#10; FindJoinPartner 58 ms 353 µs&#10; OutputWriting 5 ms 542 µs.">
<polygon fill="none" stroke="white" stroke-width="4.36" points="586,-993.5 301,-993.5 301,-924.5 586,-924.5 586,-993.5"/>
<text text-anchor="middle" x="443.5" y="-978.3" font-family="Times,serif" font-size="14.00" fill="white">JoinSimdSortMerge (Semi Reduction)</text>
<text text-anchor="middle" x="443.5" y="-963.3" font-family="Times,serif" font-size="14.00" fill="white">o_orderkey = l_orderkey</text>
<text text-anchor="middle" x="443.5" y="-932.3" font-family="Times,serif" font-size="14.00" fill="white">327 ms 294 µs</text>
</a>
</g>
</g>
<!-- 125280029908240&#45;&gt;125418625655568 -->
<g id="edge24" class="edge">
<title>125280029908240&#45;&gt;125418625655568</title>
<path fill="none" stroke="white" d="M443.5,-993.65C443.5,-1014.86 443.5,-1042.25 443.5,-1063.98"/>
<polygon fill="white" stroke="white" points="440,-1064.15 443.5,-1074.15 447,-1064.15 440,-1064.15"/>
<text text-anchor="middle" x="548.5" y="-1037.8" font-family="Times,serif" font-size="14.00" fill="white">1,193,955 row(s)/64 chunk(s)</text>
</g>
<!-- 125280029907280 -->
<g id="node25" class="node">
<title>125280029907280</title>
<g id="a_node25"><a xlink:title="Output: 45574624 rows in 2289 chunks, 31 ms 310 µs.&#10;Chunks: 0 skipped with no results, &#10;0 skipped with all matching, 0 scanned using binary search.">
<polygon fill="none" stroke="white" points="678.5,-812 276.5,-812 276.5,-713 678.5,-713 678.5,-812"/>
<text text-anchor="middle" x="477.5" y="-796.8" font-family="Times,serif" font-size="14.00" fill="white">TableScan</text>
<text text-anchor="middle" x="477.5" y="-781.8" font-family="Times,serif" font-size="14.00" fill="white">Impl: ColumnBetween</text>
<text text-anchor="middle" x="477.5" y="-766.8" font-family="Times,serif" font-size="14.00" fill="white">o_orderdate BETWEEN INCLUSIVE &#39;1995&#45;01&#45;01&#39; AND</text>
<text text-anchor="middle" x="477.5" y="-751.8" font-family="Times,serif" font-size="14.00" fill="white">&#39;1996&#45;12&#45;31&#39;</text>
<text text-anchor="middle" x="477.5" y="-720.8" font-family="Times,serif" font-size="14.00" fill="white">31 ms 310 µs</text>
</a>
</g>
</g>
<!-- 125280029907280&#45;&gt;125280029908240 -->
<g id="edge25" class="edge">
<title>125280029907280&#45;&gt;125280029908240</title>
<path fill="none" stroke="white" stroke-width="1.64" d="M469.01,-812.08C463.51,-843.52 456.42,-884.1 451.11,-914.48"/>
<polygon fill="white" stroke="white" stroke-width="1.64" points="451.1,-914.52 447.65,-913.92 449.38,-924.37 451.1,-914.52"/>
<text text-anchor="middle" x="586" y="-853.3" font-family="Times,serif" font-size="14.00" fill="white">45,574,624 row(s)/2,289 chunk(s)</text>
</g>
<!-- 125193979647440 -->
<g id="node26" class="node">
<title>125193979647440</title>
<g id="a_node26"><a xlink:title="Output: 150000000 rows in 2289 chunks, 13 ms 585 µs.">
<polygon fill="none" stroke="white" points="543,-662 412,-662 412,-548 543,-548 543,-662"/>
<text text-anchor="middle" x="477.5" y="-646.8" font-family="Times,serif" font-size="14.00" fill="white">GetTable</text>
<text text-anchor="middle" x="477.5" y="-631.8" font-family="Times,serif" font-size="14.00" fill="white">(orders)</text>
<text text-anchor="middle" x="477.5" y="-616.8" font-family="Times,serif" font-size="14.00" fill="white">pruned:</text>
<text text-anchor="middle" x="477.5" y="-601.8" font-family="Times,serif" font-size="14.00" fill="white">0/2289 chunk(s)</text>
<text text-anchor="middle" x="477.5" y="-586.8" font-family="Times,serif" font-size="14.00" fill="white">6/9 column(s)</text>
<text text-anchor="middle" x="477.5" y="-555.8" font-family="Times,serif" font-size="14.00" fill="white">13 ms 585 µs</text>
</a>
</g>
</g>
<!-- 125193979647440&#45;&gt;125280029907280 -->
<g id="edge26" class="edge">
<title>125193979647440&#45;&gt;125280029907280</title>
<path fill="none" stroke="white" stroke-width="4.58" d="M477.5,-662.14C477.5,-675.38 477.5,-689.53 477.5,-702.88"/>
<polygon fill="white" stroke="white" stroke-width="4.58" points="473.49,-702.9 477.5,-712.9 481.51,-702.9 473.49,-702.9"/>
<text text-anchor="middle" x="602.5" y="-683.8" font-family="Times,serif" font-size="14.00" fill="white">150,000,000 row(s)/2,289 chunk(s)</text>
</g>
<!-- 125418625654032 -->
<g id="node27" class="node">
<title>125418625654032</title>
<g id="a_node27"><a xlink:title="Output: 3980429 rows in 256 chunks, 18 ms 456 µs.">
<polygon fill="none" stroke="white" points="258,-789.5 145,-789.5 145,-735.5 258,-735.5 258,-789.5"/>
<text text-anchor="middle" x="201.5" y="-774.3" font-family="Times,serif" font-size="14.00" fill="white">Validate</text>
<text text-anchor="middle" x="201.5" y="-743.3" font-family="Times,serif" font-size="14.00" fill="white">18 ms 456 µs</text>
</a>
</g>
</g>
<!-- 125418625654032&#45;&gt;125280029908560 -->
<g id="edge28" class="edge">
<title>125418625654032&#45;&gt;125280029908560</title>
<path fill="none" stroke="white" d="M196.89,-789.63C188.96,-842 177.44,-962.23 220.5,-1049 253.94,-1116.38 322.2,-1170.21 374.44,-1203.91"/>
<polygon fill="white" stroke="white" points="383.01,-1209.35 376.44,-1201.03 374.57,-1203.99 383.01,-1209.35"/>
<text text-anchor="middle" x="330" y="-1037.8" font-family="Times,serif" font-size="14.00" fill="white">3,980,429 row(s)/256 chunk(s)</text>
</g>
<!-- 125418625654032&#45;&gt;125280029908240 -->
<g id="edge27" class="edge">
<title>125418625654032&#45;&gt;125280029908240</title>
<path fill="none" stroke="white" d="M206.87,-789.68C213.9,-822.98 226.09,-877.02 232.5,-884 248.77,-901.72 269.52,-915.2 291.63,-925.45"/>
<polygon fill="white" stroke="white" points="300.84,-929.5 293.1,-922.27 291.69,-925.47 300.84,-929.5"/>
<text text-anchor="middle" x="342" y="-853.3" font-family="Times,serif" font-size="14.00" fill="white">3,980,429 row(s)/256 chunk(s)</text>
</g>
<!-- 125280029907920 -->
<g id="node28" class="node">
<title>125280029907920</title>
<g id="a_node28"><a xlink:title="Output: 3980429 rows in 256 chunks, 1 s 433 ms.&#10;Operator step runtimes:&#10; LeftSideMaterialize 167 ms 756 µs&#10; RightSideMaterialize 5 ms 754 µs&#10; LeftSideTransform 0 ns&#10; RightSideTransform 0 ns&#10; LeftSidePartition 753 ms 545 µs&#10; RightSidePartition 1 ms 792 µs&#10; LeftSideSortBuckets 450 ms 173 µs&#10; RightSideSortBuckets 746 µs 347 ns&#10; GatherRowIds 1 µs 842 ns&#10; FindJoinPartner 43 ms 50 µs&#10; OutputWriting 1 ms 244 µs.">
<polygon fill="none" stroke="white" stroke-width="8" points="306,-639.5 97,-639.5 97,-570.5 306,-570.5 306,-639.5"/>
<text text-anchor="middle" x="201.5" y="-624.3" font-family="Times,serif" font-size="14.00" fill="white">JoinSimdSortMerge (Semi)</text>
<text text-anchor="middle" x="201.5" y="-609.3" font-family="Times,serif" font-size="14.00" fill="white">l_partkey = p_partkey</text>
<text text-anchor="middle" x="201.5" y="-578.3" font-family="Times,serif" font-size="14.00" fill="white">1 s 433 ms</text>
</a>
</g>
</g>
<!-- 125280029907920&#45;&gt;125418625654032 -->
<g id="edge29" class="edge">
<title>125280029907920&#45;&gt;125418625654032</title>
<path fill="none" stroke="white" d="M201.5,-639.74C201.5,-664.86 201.5,-699.13 201.5,-724.91"/>
<polygon fill="white" stroke="white" points="198,-725.03 201.5,-735.03 205,-725.03 198,-725.03"/>
<text text-anchor="middle" x="311" y="-683.8" font-family="Times,serif" font-size="14.00" fill="white">3,980,429 row(s)/256 chunk(s)</text>
</g>
<!-- 125193979647888 -->
<g id="node29" class="node">
<title>125193979647888</title>
<g id="a_node29"><a xlink:title="Output: 600037902 rows in 9156 chunks, 46 ms 754 µs.">
<polygon fill="none" stroke="white" points="131,-497 0,-497 0,-383 131,-383 131,-497"/>
<text text-anchor="middle" x="65.5" y="-481.8" font-family="Times,serif" font-size="14.00" fill="white">GetTable</text>
<text text-anchor="middle" x="65.5" y="-466.8" font-family="Times,serif" font-size="14.00" fill="white">(lineitem)</text>
<text text-anchor="middle" x="65.5" y="-451.8" font-family="Times,serif" font-size="14.00" fill="white">pruned:</text>
<text text-anchor="middle" x="65.5" y="-436.8" font-family="Times,serif" font-size="14.00" fill="white">0/9156 chunk(s)</text>
<text text-anchor="middle" x="65.5" y="-421.8" font-family="Times,serif" font-size="14.00" fill="white">11/16 column(s)</text>
<text text-anchor="middle" x="65.5" y="-390.8" font-family="Times,serif" font-size="14.00" fill="white">46 ms 754 µs</text>
</a>
</g>
</g>
<!-- 125193979647888&#45;&gt;125280029907920 -->
<g id="edge30" class="edge">
<title>125193979647888&#45;&gt;125280029907920</title>
<path fill="none" stroke="white" stroke-width="8" d="M57.38,-497.12C58.05,-508.62 60.62,-520.19 66.5,-530 74.87,-543.95 86.89,-555.45 100.35,-564.88"/>
<polygon fill="white" stroke="white" stroke-width="8" points="100.54,-565 96.7,-570.85 108.9,-570.48 100.54,-565"/>
<text text-anchor="middle" x="191.5" y="-518.8" font-family="Times,serif" font-size="14.00" fill="white">600,037,902 row(s)/9,156 chunk(s)</text>
</g>
<!-- 125418625654800 -->
<g id="node30" class="node">
<title>125418625654800</title>
<g id="a_node30"><a xlink:title="Output: 132695 rows in 306 chunks, 3 ms 247 µs.">
<polygon fill="none" stroke="white" points="390.5,-467 286.5,-467 286.5,-413 390.5,-413 390.5,-467"/>
<text text-anchor="middle" x="338.5" y="-451.8" font-family="Times,serif" font-size="14.00" fill="white">Validate</text>
<text text-anchor="middle" x="338.5" y="-420.8" font-family="Times,serif" font-size="14.00" fill="white">3 ms 247 µs</text>
</a>
</g>
</g>
<!-- 125418625654800&#45;&gt;125280029907920 -->
<g id="edge31" class="edge">
<title>125418625654800&#45;&gt;125280029907920</title>
<path fill="none" stroke="white" d="M337.12,-467.29C334.98,-486.24 329.64,-511.61 316.5,-530 306.95,-543.35 294.17,-554.89 280.6,-564.62"/>
<polygon fill="white" stroke="white" points="272.07,-570.45 282.3,-567.7 280.33,-564.81 272.07,-570.45"/>
<text text-anchor="middle" x="427" y="-518.8" font-family="Times,serif" font-size="14.00" fill="white">132,695 row(s)/306 chunk(s)</text>
</g>
<!-- 125280029907600 -->
<g id="node31" class="node">
<title>125280029907600</title>
<g id="a_node31"><a xlink:title="Output: 132695 rows in 306 chunks, 4 ms 349 µs.&#10;Chunks: 0 skipped with no results, &#10;0 skipped with all matching, 0 scanned using binary search.">
<polygon fill="none" stroke="white" points="483,-317 194,-317 194,-233 483,-233 483,-317"/>
<text text-anchor="middle" x="338.5" y="-301.8" font-family="Times,serif" font-size="14.00" fill="white">TableScan</text>
<text text-anchor="middle" x="338.5" y="-286.8" font-family="Times,serif" font-size="14.00" fill="white">Impl: ColumnVsValue</text>
<text text-anchor="middle" x="338.5" y="-271.8" font-family="Times,serif" font-size="14.00" fill="white">p_type = &#39;STANDARD POLISHED TIN&#39;</text>
<text text-anchor="middle" x="338.5" y="-240.8" font-family="Times,serif" font-size="14.00" fill="white">4 ms 349 µs</text>
</a>
</g>
</g>
<!-- 125280029907600&#45;&gt;125418625654800 -->
<g id="edge32" class="edge">
<title>125280029907600&#45;&gt;125418625654800</title>
<path fill="none" stroke="white" d="M338.5,-317.13C338.5,-343.37 338.5,-377.09 338.5,-402.4"/>
<polygon fill="white" stroke="white" points="335,-402.69 338.5,-412.69 342,-402.69 335,-402.69"/>
<text text-anchor="middle" x="441" y="-353.8" font-family="Times,serif" font-size="14.00" fill="white">132,695 row(s)/306 chunk(s)</text>
</g>
<!-- 125193979648336 -->
<g id="node32" class="node">
<title>125193979648336</title>
<g id="a_node32"><a xlink:title="Output: 20000000 rows in 306 chunks, 1 ms 142 µs.">
<polygon fill="none" stroke="white" points="399.5,-140.5 277.5,-140.5 277.5,-26.5 399.5,-26.5 399.5,-140.5"/>
<text text-anchor="middle" x="338.5" y="-125.3" font-family="Times,serif" font-size="14.00" fill="white">GetTable</text>
<text text-anchor="middle" x="338.5" y="-110.3" font-family="Times,serif" font-size="14.00" fill="white">(part)</text>
<text text-anchor="middle" x="338.5" y="-95.3" font-family="Times,serif" font-size="14.00" fill="white">pruned:</text>
<text text-anchor="middle" x="338.5" y="-80.3" font-family="Times,serif" font-size="14.00" fill="white">0/306 chunk(s)</text>
<text text-anchor="middle" x="338.5" y="-65.3" font-family="Times,serif" font-size="14.00" fill="white">7/9 column(s)</text>
<text text-anchor="middle" x="338.5" y="-34.3" font-family="Times,serif" font-size="14.00" fill="white">1 ms 142 µs</text>
</a>
</g>
</g>
<!-- 125193979648336&#45;&gt;125280029907600 -->
<g id="edge33" class="edge">
<title>125193979648336&#45;&gt;125280029907600</title>
<path fill="none" stroke="white" d="M338.5,-140.59C338.5,-166.58 338.5,-197.26 338.5,-222.65"/>
<polygon fill="white" stroke="white" points="335,-222.81 338.5,-232.81 342,-222.81 335,-222.81"/>
<text text-anchor="middle" x="452.5" y="-188.8" font-family="Times,serif" font-size="14.00" fill="white">20,000,000 row(s)/306 chunk(s)</text>
</g>
<!-- 125418625655824&#45;&gt;125280029909520 -->
<g id="edge34" class="edge">
<title>125418625655824&#45;&gt;125280029909520</title>
<path fill="none" stroke="white" d="M1102.5,-884.29C1102.5,-919.76 1102.5,-984.89 1102.5,-1040.5 1102.5,-1040.5 1102.5,-1040.5 1102.5,-1507.5 1102.5,-1551.78 992.21,-1584.93 901.94,-1604.64"/>
<polygon fill="white" stroke="white" points="892.16,-1606.74 902.67,-1608.06 901.94,-1604.64 892.16,-1606.74"/>
<text text-anchor="middle" x="1176" y="-1240.3" font-family="Times,serif" font-size="14.00" fill="white">25 row(s)/1 chunk(s)</text>
</g>
<!-- 0 -->
<g id="node34" class="node">
<title>0</title>
<polygon fill="none" stroke="white" points="418,-0.5 418,-166.5 755,-166.5 755,-0.5 418,-0.5"/>
<text text-anchor="middle" x="586.5" y="-151.3" font-family="Times,serif" font-size="14.00" fill="white">Total by operator</text>
<polyline fill="none" stroke="white" points="418,-143.5 755,-143.5 "/>
<text text-anchor="end" x="572" y="-128.3" font-family="Times,serif" font-size="14.00" fill="white">JoinSimdSortMerge </text>
<text text-anchor="end" x="572" y="-113.3" font-family="Times,serif" font-size="14.00" fill="white"> Validate </text>
<text text-anchor="end" x="572" y="-98.3" font-family="Times,serif" font-size="14.00" fill="white"> GetTable </text>
<text text-anchor="end" x="572" y="-83.3" font-family="Times,serif" font-size="14.00" fill="white"> Projection </text>
<text text-anchor="end" x="572" y="-68.3" font-family="Times,serif" font-size="14.00" fill="white"> TableScan </text>
<text text-anchor="end" x="572" y="-53.3" font-family="Times,serif" font-size="14.00" fill="white"> AggregateHash </text>
<text text-anchor="end" x="572" y="-38.3" font-family="Times,serif" font-size="14.00" fill="white"> Sort </text>
<text text-anchor="end" x="572" y="-23.3" font-family="Times,serif" font-size="14.00" fill="white"> Alias </text>
<text text-anchor="end" x="572" y="-8.3" font-family="Times,serif" font-size="14.00" fill="white">total</text>
<polyline fill="none" stroke="white" points="580,-0.5 580,-143.5 "/>
<text text-anchor="start" x="588" y="-128.3" font-family="Times,serif" font-size="14.00" fill="white">2 s 104 ms </text>
<text text-anchor="start" x="588" y="-113.3" font-family="Times,serif" font-size="14.00" fill="white"> 81 ms 743 µs </text>
<text text-anchor="start" x="588" y="-98.3" font-family="Times,serif" font-size="14.00" fill="white"> 62 ms 360 µs </text>
<text text-anchor="start" x="588" y="-83.3" font-family="Times,serif" font-size="14.00" fill="white"> 42 ms 116 µs </text>
<text text-anchor="start" x="588" y="-68.3" font-family="Times,serif" font-size="14.00" fill="white"> 35 ms 716 µs </text>
<text text-anchor="start" x="588" y="-53.3" font-family="Times,serif" font-size="14.00" fill="white"> 7 ms 833 µs </text>
<text text-anchor="start" x="588" y="-38.3" font-family="Times,serif" font-size="14.00" fill="white"> 47 µs 100 ns </text>
<text text-anchor="start" x="588" y="-23.3" font-family="Times,serif" font-size="14.00" fill="white"> 39 µs 55 ns </text>
<text text-anchor="start" x="588" y="-8.3" font-family="Times,serif" font-size="14.00" fill="white"> 2 s 334 ms </text>
<polyline fill="none" stroke="white" points="702,-0.5 702,-143.5 "/>
<text text-anchor="start" x="710" y="-128.3" font-family="Times,serif" font-size="14.00" fill="white">90 %</text>
<text text-anchor="start" x="710" y="-113.3" font-family="Times,serif" font-size="14.00" fill="white">4 %</text>
<text text-anchor="start" x="710" y="-98.3" font-family="Times,serif" font-size="14.00" fill="white">3 %</text>
<text text-anchor="start" x="710" y="-83.3" font-family="Times,serif" font-size="14.00" fill="white">2 %</text>
<text text-anchor="start" x="710" y="-68.3" font-family="Times,serif" font-size="14.00" fill="white">2 %</text>
<text text-anchor="start" x="710" y="-53.3" font-family="Times,serif" font-size="14.00" fill="white">0 %</text>
<text text-anchor="start" x="710" y="-38.3" font-family="Times,serif" font-size="14.00" fill="white">0 %</text>
<text text-anchor="start" x="710" y="-23.3" font-family="Times,serif" font-size="14.00" fill="white">0 %</text>
<text text-anchor="start" x="710" y="-8.3" font-family="Times,serif" font-size="14.00" fill="white"> </text>
</g>
</g>
</svg>
