<?xml version="1.0" encoding="UTF-8" standalone="no"?>
<!DOCTYPE svg PUBLIC "-//W3C//DTD SVG 1.1//EN"
 "http://www.w3.org/Graphics/SVG/1.1/DTD/svg11.dtd">
<!-- Generated by graphviz version 2.43.0 (0)
 -->
<!-- Title: G Pages: 1 -->
<svg width="867pt" height="1895pt"
 viewBox="0.00 0.00 867.00 1895.00" xmlns="http://www.w3.org/2000/svg" xmlns:xlink="http://www.w3.org/1999/xlink">
<g id="graph0" class="graph" transform="scale(1 1) rotate(0) translate(4 1891)">
<title>G</title>
<polygon fill="black" stroke="transparent" points="-4,4 -4,-1891 863,-1891 863,4 -4,4"/>
<text text-anchor="middle" x="319.5" y="-1871.8" font-family="Times,serif" font-size="14.00" fill="white">For tooltips with advanced information, hover your mouse over vertices or edge labels.</text>
<!-- 281413306736272 -->
<g id="node1" class="node">
<title>281413306736272</title>
<g id="a_node1"><a xlink:title="Output: 2 rows in 1 chunk filtered: 0, 2 µs 656 ns.">
<polygon fill="none" stroke="white" points="608.5,-1832 267.5,-1832 267.5,-1763 608.5,-1763 608.5,-1832"/>
<text text-anchor="middle" x="438" y="-1816.8" font-family="Times,serif" font-size="14.00" fill="white">Alias</text>
<text text-anchor="middle" x="438" y="-1801.8" font-family="Times,serif" font-size="14.00" fill="white">[l_shipmode, high_line_count, low_line_count]</text>
<text text-anchor="middle" x="438" y="-1770.8" font-family="Times,serif" font-size="14.00" fill="white">2 µs 656 ns</text>
</a>
</g>
</g>
<!-- 281413306735952 -->
<g id="node2" class="node">
<title>281413306735952</title>
<g id="a_node2"><a xlink:title="Output: 2 rows in 1 chunk filtered: 0, 16 µs 1 ns.&#10;Operator step runtimes:&#10; MaterializeSortColumns 5 µs 217 ns&#10; Sort 2 µs 304 ns&#10; TemporaryResultWriting 288 ns&#10; WriteOutput 5 µs 952 ns.">
<polygon fill="none" stroke="white" points="483,-1712 393,-1712 393,-1658 483,-1658 483,-1712"/>
<text text-anchor="middle" x="438" y="-1696.8" font-family="Times,serif" font-size="14.00" fill="white">Sort</text>
<text text-anchor="middle" x="438" y="-1665.8" font-family="Times,serif" font-size="14.00" fill="white">16 µs 1 ns</text>
</a>
</g>
</g>
<!-- 281413306735952&#45;&gt;281413306736272 -->
<g id="edge1" class="edge">
<title>281413306735952&#45;&gt;281413306736272</title>
<path fill="none" stroke="white" d="M438,-1712.19C438,-1724.29 438,-1739 438,-1752.72"/>
<polygon fill="white" stroke="white" points="434.5,-1752.95 438,-1762.95 441.5,-1752.96 434.5,-1752.95"/>
<text text-anchor="middle" x="507" y="-1733.8" font-family="Times,serif" font-size="14.00" fill="white">2 row(s)/1 chunk(s)</text>
</g>
<!-- 281413307205136 -->
<g id="node3" class="node">
<title>281413307205136</title>
<g id="a_node3"><a xlink:title="Output: 2 rows in 1 chunk filtered: 0, 77 ms 897 µs.&#10;Operator step runtimes:&#10; GroupByKeyPartitioning 73 ms 265 µs&#10; Aggregating 4 ms 599 µs&#10; GroupByColumnsWriting 5 µs 152 ns&#10; AggregateColumnsWriting 8 µs 512 ns&#10; OutputWriting 5 µs 472 ns.">
<polygon fill="none" stroke="white" stroke-width="8" points="645.5,-1607 230.5,-1607 230.5,-1478 645.5,-1478 645.5,-1607"/>
<text text-anchor="middle" x="438" y="-1591.8" font-family="Times,serif" font-size="14.00" fill="white">AggregateHash</text>
<text text-anchor="middle" x="438" y="-1576.8" font-family="Times,serif" font-size="14.00" fill="white">GroupBy {l_shipmode}</text>
<text text-anchor="middle" x="438" y="-1561.8" font-family="Times,serif" font-size="14.00" fill="white">SUM(CASE WHEN o_orderpriority = &#39;1&#45;URGENT&#39; OR</text>
<text text-anchor="middle" x="438" y="-1546.8" font-family="Times,serif" font-size="14.00" fill="white">o_orderpriority = &#39;2&#45;HIGH&#39; THEN 1 ELSE 0 END), </text>
<text text-anchor="middle" x="438" y="-1531.8" font-family="Times,serif" font-size="14.00" fill="white">SUM(CASE WHEN o_orderpriority != &#39;1&#45;URGENT&#39; AND</text>
<text text-anchor="middle" x="438" y="-1516.8" font-family="Times,serif" font-size="14.00" fill="white">o_orderpriority != &#39;2&#45;HIGH&#39; THEN 1 ELSE 0 END)</text>
<text text-anchor="middle" x="438" y="-1485.8" font-family="Times,serif" font-size="14.00" fill="white">77 ms 897 µs</text>
</a>
</g>
</g>
<!-- 281413307205136&#45;&gt;281413306735952 -->
<g id="edge2" class="edge">
<title>281413307205136&#45;&gt;281413306735952</title>
<path fill="none" stroke="white" d="M438,-1607.17C438,-1620.99 438,-1635.14 438,-1647.48"/>
<polygon fill="white" stroke="white" points="434.5,-1647.8 438,-1657.8 441.5,-1647.8 434.5,-1647.8"/>
<text text-anchor="middle" x="507" y="-1628.8" font-family="Times,serif" font-size="14.00" fill="white">2 row(s)/1 chunk(s)</text>
</g>
<!-- 281413306735632 -->
<g id="node4" class="node">
<title>281413306735632</title>
<g id="a_node4"><a xlink:title="Output: 311575 rows in 64 chunks filtered: 0, 2 ms 638 µs.&#10;Operator step runtimes:&#10; ForwardUnmodifiedColumns 47 µs 873 ns&#10; EvaluateNewColumns 2 ms 446 µs&#10; BuildOutput 117 µs 985 ns.">
<polygon fill="none" stroke="white" points="490,-1427 386,-1427 386,-1373 490,-1373 490,-1427"/>
<text text-anchor="middle" x="438" y="-1411.8" font-family="Times,serif" font-size="14.00" fill="white">Projection</text>
<text text-anchor="middle" x="438" y="-1380.8" font-family="Times,serif" font-size="14.00" fill="white">2 ms 638 µs</text>
</a>
</g>
</g>
<!-- 281413306735632&#45;&gt;281413307205136 -->
<g id="edge3" class="edge">
<title>281413306735632&#45;&gt;281413307205136</title>
<path fill="none" stroke="white" d="M438,-1427.1C438,-1438.77 438,-1453.17 438,-1467.78"/>
<polygon fill="white" stroke="white" points="434.5,-1467.89 438,-1477.89 441.5,-1467.89 434.5,-1467.89"/>
<text text-anchor="middle" x="536" y="-1448.8" font-family="Times,serif" font-size="14.00" fill="white">311,575 row(s)/64 chunk(s)</text>
</g>
<!-- 281413306735312 -->
<g id="node5" class="node">
<title>281413306735312</title>
<g id="a_node5"><a xlink:title="Output: 311575 rows in 64 chunks filtered: 0, 45 ms 252 µs.&#10;Operator step runtimes:&#10; LeftSideMaterialize 34 ms 224 µs&#10; RightSideMaterialize 3 ms 620 µs&#10; LeftSideTransform 0 ns&#10; RightSideTransform 0 ns&#10; LeftSidePartition 1 ms 265 µs&#10; RightSidePartition 1 ms 758 µs&#10; LeftSideSortBuckets 457 µs 411 ns&#10; RightSideSortBuckets 433 µs 763 ns&#10; GatherRowIds 352 ns&#10; FindJoinPartner 212 µs 418 ns&#10; OutputWriting 3 ms 60 µs.&#10;Radix bits: 8.">
<polygon fill="none" stroke="white" stroke-width="6.66" points="543.5,-1322 332.5,-1322 332.5,-1253 543.5,-1253 543.5,-1322"/>
<text text-anchor="middle" x="438" y="-1306.8" font-family="Times,serif" font-size="14.00" fill="white">JoinSimdSortMerge (Inner)</text>
<text text-anchor="middle" x="438" y="-1291.8" font-family="Times,serif" font-size="14.00" fill="white">l_orderkey = o_orderkey</text>
<text text-anchor="middle" x="438" y="-1260.8" font-family="Times,serif" font-size="14.00" fill="white">45 ms 252 µs</text>
</a>
</g>
</g>
<!-- 281413306735312&#45;&gt;281413306735632 -->
<g id="edge4" class="edge">
<title>281413306735312&#45;&gt;281413306735632</title>
<path fill="none" stroke="white" d="M438,-1322.25C438,-1335.07 438,-1349.73 438,-1362.77"/>
<polygon fill="white" stroke="white" points="434.5,-1362.81 438,-1372.81 441.5,-1362.81 434.5,-1362.81"/>
<text text-anchor="middle" x="536" y="-1343.8" font-family="Times,serif" font-size="14.00" fill="white">311,575 row(s)/64 chunk(s)</text>
</g>
<!-- 281413306734672 -->
<g id="node6" class="node">
<title>281413306734672</title>
<g id="a_node6"><a xlink:title="Output: 311575 rows in 1832 chunks filtered: 0, 4 ms 383 µs.&#10;Chunks: 0 skipped with no results, &#10;0 skipped with all matching, 0 scanned using binary search.">
<polygon fill="none" stroke="white" points="532,-962 326,-962 326,-878 532,-878 532,-962"/>
<text text-anchor="middle" x="429" y="-946.8" font-family="Times,serif" font-size="14.00" fill="white">TableScan</text>
<text text-anchor="middle" x="429" y="-931.8" font-family="Times,serif" font-size="14.00" fill="white">Impl: ColumnVsColumn</text>
<text text-anchor="middle" x="429" y="-916.8" font-family="Times,serif" font-size="14.00" fill="white">l_commitdate &gt; l_shipdate</text>
<text text-anchor="middle" x="429" y="-885.8" font-family="Times,serif" font-size="14.00" fill="white">4 ms 383 µs</text>
</a>
</g>
</g>
<!-- 281413306734672&#45;&gt;281413306735312 -->
<g id="edge5" class="edge">
<title>281413306734672&#45;&gt;281413306735312</title>
<path fill="none" stroke="white" d="M504.8,-962.06C515.77,-971.4 525.52,-982.36 532,-995 580.68,-1089.91 586.36,-1143.23 532,-1235 529.76,-1238.78 527.13,-1242.31 524.21,-1245.58"/>
<polygon fill="white" stroke="white" points="524.01,-1245.78 521.55,-1243.29 516.89,-1252.8 524.01,-1245.78"/>
<text text-anchor="middle" x="680.5" y="-1118.8" font-family="Times,serif" font-size="14.00" fill="white">311,575 row(s)/1,832 chunk(s)</text>
</g>
<!-- 281413306734992 -->
<g id="node15" class="node">
<title>281413306734992</title>
<g id="a_node15"><a xlink:title="Output: 292368 rows in 64 chunks filtered: 4861295, 47 ms 174 µs.&#10;Operator step runtimes:&#10; LeftSideMaterialize 4 ms 485 µs&#10; RightSideMaterialize 33 ms 258 µs&#10; LeftSideTransform 0 ns&#10; RightSideTransform 0 ns&#10; LeftSidePartition 3 ms 377 µs&#10; RightSidePartition 1 ms 331 µs&#10; LeftSideSortBuckets 2 ms 339 µs&#10; RightSideSortBuckets 420 µs 387 ns&#10; GatherRowIds 1 µs 280 ns&#10; FindJoinPartner 971 µs 815 ns&#10; OutputWriting 204 µs 1 ns.&#10;Radix bits: 8.">
<polygon fill="none" stroke="white" stroke-width="6.76" points="454.5,-1097 169.5,-1097 169.5,-1028 454.5,-1028 454.5,-1097"/>
<text text-anchor="middle" x="312" y="-1081.8" font-family="Times,serif" font-size="14.00" fill="white">JoinSimdSortMerge (Semi Reduction)</text>
<text text-anchor="middle" x="312" y="-1066.8" font-family="Times,serif" font-size="14.00" fill="white">o_orderkey = l_orderkey</text>
<text text-anchor="middle" x="312" y="-1035.8" font-family="Times,serif" font-size="14.00" fill="white">47 ms 174 µs</text>
</a>
</g>
</g>
<!-- 281413306734672&#45;&gt;281413306734992 -->
<g id="edge6" class="edge">
<title>281413306734672&#45;&gt;281413306734992</title>
<path fill="none" stroke="white" d="M342.26,-962.02C330.57,-971.24 320.16,-982.17 313,-995 309.21,-1001.8 307.34,-1009.63 306.65,-1017.48"/>
<polygon fill="white" stroke="white" points="306.36,-1027.73 310.14,-1017.83 306.65,-1017.73 306.36,-1027.73"/>
<text text-anchor="middle" x="422.5" y="-998.8" font-family="Times,serif" font-size="14.00" fill="white">311,575 row(s)/1,832 chunk(s)</text>
</g>
<!-- 281413306733712 -->
<g id="node7" class="node">
<title>281413306733712</title>
<g id="a_node7"><a xlink:title="Output: 1644840 rows in 1832 chunks filtered: 0, 4 ms 858 µs.&#10;Chunks: 0 skipped with no results, &#10;0 skipped with all matching, 0 scanned using binary search.">
<polygon fill="none" stroke="white" stroke-width="1.16" points="542.5,-812 315.5,-812 315.5,-728 542.5,-728 542.5,-812"/>
<text text-anchor="middle" x="429" y="-796.8" font-family="Times,serif" font-size="14.00" fill="white">TableScan</text>
<text text-anchor="middle" x="429" y="-781.8" font-family="Times,serif" font-size="14.00" fill="white">Impl: ColumnVsColumn</text>
<text text-anchor="middle" x="429" y="-766.8" font-family="Times,serif" font-size="14.00" fill="white">l_receiptdate &gt; l_commitdate</text>
<text text-anchor="middle" x="429" y="-735.8" font-family="Times,serif" font-size="14.00" fill="white">4 ms 858 µs</text>
</a>
</g>
</g>
<!-- 281413306733712&#45;&gt;281413306734672 -->
<g id="edge7" class="edge">
<title>281413306733712&#45;&gt;281413306734672</title>
<path fill="none" stroke="white" d="M429,-812.23C429,-829.47 429,-849.68 429,-867.85"/>
<polygon fill="white" stroke="white" points="425.5,-867.99 429,-877.99 432.5,-867.99 425.5,-867.99"/>
<text text-anchor="middle" x="545" y="-833.8" font-family="Times,serif" font-size="14.00" fill="white">1,644,840 row(s)/1,832 chunk(s)</text>
</g>
<!-- 281413306618384 -->
<g id="node8" class="node">
<title>281413306618384</title>
<g id="a_node8"><a xlink:title="Output: 2600521 rows in 1832 chunks filtered: 0, 2 ms 546 µs.">
<polygon fill="none" stroke="white" points="481,-677 377,-677 377,-623 481,-623 481,-677"/>
<text text-anchor="middle" x="429" y="-661.8" font-family="Times,serif" font-size="14.00" fill="white">Validate</text>
<text text-anchor="middle" x="429" y="-630.8" font-family="Times,serif" font-size="14.00" fill="white">2 ms 546 µs</text>
</a>
</g>
</g>
<!-- 281413306618384&#45;&gt;281413306733712 -->
<g id="edge8" class="edge">
<title>281413306618384&#45;&gt;281413306733712</title>
<path fill="none" stroke="white" d="M429,-677.19C429,-689.1 429,-703.63 429,-717.58"/>
<polygon fill="white" stroke="white" points="425.5,-717.59 429,-727.59 432.5,-717.59 425.5,-717.59"/>
<text text-anchor="middle" x="545" y="-698.8" font-family="Times,serif" font-size="14.00" fill="white">2,600,521 row(s)/1,832 chunk(s)</text>
</g>
<!-- 281413306622480 -->
<g id="node9" class="node">
<title>281413306622480</title>
<g id="a_node9"><a xlink:title="Output: 2600521 rows in 1832 chunks filtered: 0, 1 ms 225 µs.">
<polygon fill="none" stroke="white" points="481,-572 377,-572 377,-518 481,-518 481,-572"/>
<text text-anchor="middle" x="429" y="-556.8" font-family="Times,serif" font-size="14.00" fill="white">UnionAll</text>
<text text-anchor="middle" x="429" y="-525.8" font-family="Times,serif" font-size="14.00" fill="white">1 ms 225 µs</text>
</a>
</g>
</g>
<!-- 281413306622480&#45;&gt;281413306618384 -->
<g id="edge9" class="edge">
<title>281413306622480&#45;&gt;281413306618384</title>
<path fill="none" stroke="white" d="M429,-572.26C429,-584.49 429,-599.24 429,-612.52"/>
<polygon fill="white" stroke="white" points="425.5,-612.79 429,-622.79 432.5,-612.79 425.5,-612.79"/>
<text text-anchor="middle" x="545" y="-593.8" font-family="Times,serif" font-size="14.00" fill="white">2,600,521 row(s)/1,832 chunk(s)</text>
</g>
<!-- 281413306734352 -->
<g id="node10" class="node">
<title>281413306734352</title>
<g id="a_node10"><a xlink:title="Output: 1300628 rows in 916 chunks filtered: 0, 3 ms 423 µs.&#10;Chunks: 0 skipped with no results, &#10;0 skipped with all matching, 0 scanned using binary search.">
<polygon fill="none" stroke="white" points="392.5,-467 223.5,-467 223.5,-383 392.5,-383 392.5,-467"/>
<text text-anchor="middle" x="308" y="-451.8" font-family="Times,serif" font-size="14.00" fill="white">TableScan</text>
<text text-anchor="middle" x="308" y="-436.8" font-family="Times,serif" font-size="14.00" fill="white">Impl: ColumnVsValue</text>
<text text-anchor="middle" x="308" y="-421.8" font-family="Times,serif" font-size="14.00" fill="white">l_shipmode = &#39;FOB&#39;</text>
<text text-anchor="middle" x="308" y="-390.8" font-family="Times,serif" font-size="14.00" fill="white">3 ms 423 µs</text>
</a>
</g>
</g>
<!-- 281413306734352&#45;&gt;281413306622480 -->
<g id="edge10" class="edge">
<title>281413306734352&#45;&gt;281413306622480</title>
<path fill="none" stroke="white" d="M300.28,-467.09C300.21,-478.62 302.31,-490.56 309,-500 322.41,-518.92 344.86,-529.72 366.74,-535.89"/>
<polygon fill="white" stroke="white" points="367.03,-535.96 366.17,-539.35 376.72,-538.41 367.03,-535.96"/>
<text text-anchor="middle" x="418.5" y="-488.8" font-family="Times,serif" font-size="14.00" fill="white">1,300,628 row(s)/916 chunk(s)</text>
</g>
<!-- 281413306734032 -->
<g id="node11" class="node">
<title>281413306734032</title>
<g id="a_node11"><a xlink:title="Output: 9098427 rows in 916 chunks filtered: 0, 2 ms 28 µs.&#10;Chunks: 0 skipped with no results, &#10;0 skipped with all matching, 0 scanned using binary search.">
<polygon fill="none" stroke="white" points="645,-332 213,-332 213,-233 645,-233 645,-332"/>
<text text-anchor="middle" x="429" y="-316.8" font-family="Times,serif" font-size="14.00" fill="white">TableScan</text>
<text text-anchor="middle" x="429" y="-301.8" font-family="Times,serif" font-size="14.00" fill="white">Impl: ColumnBetween</text>
<text text-anchor="middle" x="429" y="-286.8" font-family="Times,serif" font-size="14.00" fill="white">l_receiptdate BETWEEN UPPER EXCLUSIVE &#39;1994&#45;01&#45;01&#39;</text>
<text text-anchor="middle" x="429" y="-271.8" font-family="Times,serif" font-size="14.00" fill="white">AND &#39;1995&#45;01&#45;01&#39;</text>
<text text-anchor="middle" x="429" y="-240.8" font-family="Times,serif" font-size="14.00" fill="white">2 ms 28 µs</text>
</a>
</g>
</g>
<!-- 281413306734032&#45;&gt;281413306734352 -->
<g id="edge11" class="edge">
<title>281413306734032&#45;&gt;281413306734352</title>
<path fill="none" stroke="white" stroke-width="3.35" d="M323.14,-332.12C317.72,-337.51 312.91,-343.46 309,-350 304.92,-356.82 302.75,-364.67 301.81,-372.65"/>
<polygon fill="white" stroke="white" stroke-width="3.35" points="298.31,-372.57 301.23,-382.76 305.3,-372.98 298.31,-372.57"/>
<text text-anchor="middle" x="418.5" y="-353.8" font-family="Times,serif" font-size="14.00" fill="white">9,098,427 row(s)/916 chunk(s)</text>
</g>
<!-- 281413306733392 -->
<g id="node13" class="node">
<title>281413306733392</title>
<g id="a_node13"><a xlink:title="Output: 1299893 rows in 916 chunks filtered: 0, 3 ms 647 µs.&#10;Chunks: 0 skipped with no results, &#10;0 skipped with all matching, 0 scanned using binary search.">
<polygon fill="none" stroke="white" points="634.5,-467 465.5,-467 465.5,-383 634.5,-383 634.5,-467"/>
<text text-anchor="middle" x="550" y="-451.8" font-family="Times,serif" font-size="14.00" fill="white">TableScan</text>
<text text-anchor="middle" x="550" y="-436.8" font-family="Times,serif" font-size="14.00" fill="white">Impl: ColumnVsValue</text>
<text text-anchor="middle" x="550" y="-421.8" font-family="Times,serif" font-size="14.00" fill="white">l_shipmode = &#39;RAIL&#39;</text>
<text text-anchor="middle" x="550" y="-390.8" font-family="Times,serif" font-size="14.00" fill="white">3 ms 647 µs</text>
</a>
</g>
</g>
<!-- 281413306734032&#45;&gt;281413306733392 -->
<g id="edge12" class="edge">
<title>281413306734032&#45;&gt;281413306733392</title>
<path fill="none" stroke="white" stroke-width="3.35" d="M511.96,-332.25C517.88,-337.74 523.34,-343.66 528,-350 533.08,-356.91 536.99,-364.98 540.01,-373.21"/>
<polygon fill="white" stroke="white" stroke-width="3.35" points="536.73,-374.45 543.15,-382.88 543.39,-372.29 536.73,-374.45"/>
<text text-anchor="middle" x="646.5" y="-353.8" font-family="Times,serif" font-size="14.00" fill="white">9,098,427 row(s)/916 chunk(s)</text>
</g>
<!-- 281413299548880 -->
<g id="node12" class="node">
<title>281413299548880</title>
<g id="a_node12"><a xlink:title="Output: 59986052 rows in 916 chunks filtered: 0, 1 ms 47 µs.">
<polygon fill="none" stroke="white" points="494.5,-148 363.5,-148 363.5,-34 494.5,-34 494.5,-148"/>
<text text-anchor="middle" x="429" y="-132.8" font-family="Times,serif" font-size="14.00" fill="white">GetTable</text>
<text text-anchor="middle" x="429" y="-117.8" font-family="Times,serif" font-size="14.00" fill="white">(lineitem)</text>
<text text-anchor="middle" x="429" y="-102.8" font-family="Times,serif" font-size="14.00" fill="white">pruned:</text>
<text text-anchor="middle" x="429" y="-87.8" font-family="Times,serif" font-size="14.00" fill="white">0/916 chunk(s)</text>
<text text-anchor="middle" x="429" y="-72.8" font-family="Times,serif" font-size="14.00" fill="white">11/16 column(s)</text>
<text text-anchor="middle" x="429" y="-41.8" font-family="Times,serif" font-size="14.00" fill="white">1 ms 47 µs</text>
</a>
</g>
</g>
<!-- 281413299548880&#45;&gt;281413306734032 -->
<g id="edge13" class="edge">
<title>281413299548880&#45;&gt;281413306734032</title>
<path fill="none" stroke="white" stroke-width="8" d="M429,-148.09C429,-171.57 429,-198.88 429,-222.65"/>
<polygon fill="white" stroke="white" stroke-width="8" points="422,-222.94 429,-232.94 436,-222.94 422,-222.94"/>
<text text-anchor="middle" x="543" y="-203.8" font-family="Times,serif" font-size="14.00" fill="white">59,986,052 row(s)/916 chunk(s)</text>
</g>
<!-- 281413306733392&#45;&gt;281413306622480 -->
<g id="edge14" class="edge">
<title>281413306733392&#45;&gt;281413306622480</title>
<path fill="none" stroke="white" d="M544.39,-467.18C541.16,-478.84 536.05,-490.84 528,-500 518.02,-511.37 504.53,-519.93 490.73,-526.34"/>
<polygon fill="white" stroke="white" points="481.17,-530.44 491.74,-529.72 490.36,-526.5 481.17,-530.44"/>
<text text-anchor="middle" x="647.5" y="-488.8" font-family="Times,serif" font-size="14.00" fill="white">1,299,893 row(s)/916 chunk(s)</text>
</g>
<!-- 281413306625808 -->
<g id="node14" class="node">
<title>281413306625808</title>
<g id="a_node14"><a xlink:title="Output: 292368 rows in 64 chunks filtered: 0, 327 µs 906 ns.">
<polygon fill="none" stroke="white" points="387.5,-1202 270.5,-1202 270.5,-1148 387.5,-1148 387.5,-1202"/>
<text text-anchor="middle" x="329" y="-1186.8" font-family="Times,serif" font-size="14.00" fill="white">Validate</text>
<text text-anchor="middle" x="329" y="-1155.8" font-family="Times,serif" font-size="14.00" fill="white">327 µs 906 ns</text>
</a>
</g>
</g>
<!-- 281413306625808&#45;&gt;281413306735312 -->
<g id="edge15" class="edge">
<title>281413306625808&#45;&gt;281413306735312</title>
<path fill="none" stroke="white" d="M326.86,-1202.02C327.21,-1213.06 329.38,-1225.54 336,-1235 338.7,-1238.85 341.77,-1242.43 345.12,-1245.76"/>
<polygon fill="white" stroke="white" points="352.88,-1252.64 347.72,-1243.39 345.4,-1246 352.88,-1252.64"/>
<text text-anchor="middle" x="434" y="-1223.8" font-family="Times,serif" font-size="14.00" fill="white">292,368 row(s)/64 chunk(s)</text>
</g>
<!-- 281413306734992&#45;&gt;281413306625808 -->
<g id="edge16" class="edge">
<title>281413306734992&#45;&gt;281413306625808</title>
<path fill="none" stroke="white" d="M317.19,-1097.25C319.17,-1110.07 321.42,-1124.73 323.43,-1137.77"/>
<polygon fill="white" stroke="white" points="319.99,-1138.46 324.97,-1147.81 326.91,-1137.4 319.99,-1138.46"/>
<text text-anchor="middle" x="421" y="-1118.8" font-family="Times,serif" font-size="14.00" fill="white">292,368 row(s)/64 chunk(s)</text>
</g>
<!-- 281413299549328 -->
<g id="node16" class="node">
<title>281413299549328</title>
<g id="a_node16"><a xlink:title="Output: 15000000 rows in 229 chunks filtered: 0, 345 µs 923 ns.">
<polygon fill="none" stroke="white" points="122,-977 0,-977 0,-863 122,-863 122,-977"/>
<text text-anchor="middle" x="61" y="-961.8" font-family="Times,serif" font-size="14.00" fill="white">GetTable</text>
<text text-anchor="middle" x="61" y="-946.8" font-family="Times,serif" font-size="14.00" fill="white">(orders)</text>
<text text-anchor="middle" x="61" y="-931.8" font-family="Times,serif" font-size="14.00" fill="white">pruned:</text>
<text text-anchor="middle" x="61" y="-916.8" font-family="Times,serif" font-size="14.00" fill="white">0/229 chunk(s)</text>
<text text-anchor="middle" x="61" y="-901.8" font-family="Times,serif" font-size="14.00" fill="white">7/9 column(s)</text>
<text text-anchor="middle" x="61" y="-870.8" font-family="Times,serif" font-size="14.00" fill="white">345 µs 923 ns</text>
</a>
</g>
</g>
<!-- 281413299549328&#45;&gt;281413306734992 -->
<g id="edge17" class="edge">
<title>281413299549328&#45;&gt;281413306734992</title>
<path fill="none" stroke="white" stroke-width="4.58" d="M61.13,-977.45C63.7,-989.47 68.51,-1001.18 77,-1010 89.93,-1023.43 122.42,-1033.76 159.26,-1041.51"/>
<polygon fill="white" stroke="white" stroke-width="4.58" points="159.42,-1041.54 158.63,-1045.47 169.22,-1043.53 159.42,-1041.54"/>
<text text-anchor="middle" x="191" y="-998.8" font-family="Times,serif" font-size="14.00" fill="white">15,000,000 row(s)/229 chunk(s)</text>
</g>
<!-- 0 -->
<g id="node17" class="node">
<title>0</title>
<polygon fill="none" stroke="white" points="513,-0.5 513,-181.5 859,-181.5 859,-0.5 513,-0.5"/>
<text text-anchor="middle" x="686" y="-166.3" font-family="Times,serif" font-size="14.00" fill="white">Total by operator</text>
<polyline fill="none" stroke="white" points="513,-158.5 859,-158.5 "/>
<text text-anchor="end" x="667" y="-143.3" font-family="Times,serif" font-size="14.00" fill="white">JoinSimdSortMerge </text>
<text text-anchor="end" x="667" y="-128.3" font-family="Times,serif" font-size="14.00" fill="white"> AggregateHash </text>
<text text-anchor="end" x="667" y="-113.3" font-family="Times,serif" font-size="14.00" fill="white"> TableScan </text>
<text text-anchor="end" x="667" y="-98.3" font-family="Times,serif" font-size="14.00" fill="white"> Validate </text>
<text text-anchor="end" x="667" y="-83.3" font-family="Times,serif" font-size="14.00" fill="white"> Projection </text>
<text text-anchor="end" x="667" y="-68.3" font-family="Times,serif" font-size="14.00" fill="white"> GetTable </text>
<text text-anchor="end" x="667" y="-53.3" font-family="Times,serif" font-size="14.00" fill="white"> UnionAll </text>
<text text-anchor="end" x="667" y="-38.3" font-family="Times,serif" font-size="14.00" fill="white"> Sort </text>
<text text-anchor="end" x="667" y="-23.3" font-family="Times,serif" font-size="14.00" fill="white"> Alias </text>
<text text-anchor="end" x="667" y="-8.3" font-family="Times,serif" font-size="14.00" fill="white">total</text>
<polyline fill="none" stroke="white" points="675,-0.5 675,-158.5 "/>
<text text-anchor="start" x="683" y="-143.3" font-family="Times,serif" font-size="14.00" fill="white">92 ms 426 µs </text>
<text text-anchor="start" x="683" y="-128.3" font-family="Times,serif" font-size="14.00" fill="white"> 77 ms 897 µs </text>
<text text-anchor="start" x="683" y="-113.3" font-family="Times,serif" font-size="14.00" fill="white"> 18 ms 339 µs </text>
<text text-anchor="start" x="683" y="-98.3" font-family="Times,serif" font-size="14.00" fill="white"> 2 ms 874 µs </text>
<text text-anchor="start" x="683" y="-83.3" font-family="Times,serif" font-size="14.00" fill="white"> 2 ms 638 µs </text>
<text text-anchor="start" x="683" y="-68.3" font-family="Times,serif" font-size="14.00" fill="white"> 1 ms 393 µs </text>
<text text-anchor="start" x="683" y="-53.3" font-family="Times,serif" font-size="14.00" fill="white"> 1 ms 225 µs </text>
<text text-anchor="start" x="683" y="-38.3" font-family="Times,serif" font-size="14.00" fill="white"> 16 µs 1 ns </text>
<text text-anchor="start" x="683" y="-23.3" font-family="Times,serif" font-size="14.00" fill="white"> 2 µs 656 ns </text>
<text text-anchor="start" x="683" y="-8.3" font-family="Times,serif" font-size="14.00" fill="white"> 196 ms 811 µs </text>
<polyline fill="none" stroke="white" points="806,-0.5 806,-158.5 "/>
<text text-anchor="start" x="814" y="-143.3" font-family="Times,serif" font-size="14.00" fill="white">47 %</text>
<text text-anchor="start" x="814" y="-128.3" font-family="Times,serif" font-size="14.00" fill="white">40 %</text>
<text text-anchor="start" x="814" y="-113.3" font-family="Times,serif" font-size="14.00" fill="white">9 %</text>
<text text-anchor="start" x="814" y="-98.3" font-family="Times,serif" font-size="14.00" fill="white">1 %</text>
<text text-anchor="start" x="814" y="-83.3" font-family="Times,serif" font-size="14.00" fill="white">1 %</text>
<text text-anchor="start" x="814" y="-68.3" font-family="Times,serif" font-size="14.00" fill="white">1 %</text>
<text text-anchor="start" x="814" y="-53.3" font-family="Times,serif" font-size="14.00" fill="white">1 %</text>
<text text-anchor="start" x="814" y="-38.3" font-family="Times,serif" font-size="14.00" fill="white">0 %</text>
<text text-anchor="start" x="814" y="-23.3" font-family="Times,serif" font-size="14.00" fill="white">0 %</text>
<text text-anchor="start" x="814" y="-8.3" font-family="Times,serif" font-size="14.00" fill="white"> </text>
</g>
</g>
</svg>
