<?xml version="1.0" encoding="UTF-8" standalone="no"?>
<!DOCTYPE svg PUBLIC "-//W3C//DTD SVG 1.1//EN"
 "http://www.w3.org/Graphics/SVG/1.1/DTD/svg11.dtd">
<!-- Generated by graphviz version 2.43.0 (0)
 -->
<!-- Title: G Pages: 1 -->
<svg width="1482pt" height="1691pt"
 viewBox="0.00 0.00 1481.50 1691.00" xmlns="http://www.w3.org/2000/svg" xmlns:xlink="http://www.w3.org/1999/xlink">
<g id="graph0" class="graph" transform="scale(1 1) rotate(0) translate(4 1687)">
<title>G</title>
<polygon fill="black" stroke="transparent" points="-4,4 -4,-1687 1477.5,-1687 1477.5,4 -4,4"/>
<text text-anchor="middle" x="319.5" y="-1667.8" font-family="Times,serif" font-size="14.00" fill="white">For tooltips with advanced information, hover your mouse over vertices or edge labels.</text>
<!-- 281415385997840 -->
<g id="node1" class="node">
<title>281415385997840</title>
<polygon fill="none" stroke="white" points="1029,-1628 706,-1628 706,-1590 1029,-1590 1029,-1628"/>
<text text-anchor="middle" x="867.5" y="-1612.8" font-family="Times,serif" font-size="14.00" fill="white">[Alias] n_name, SUM(l_extendedprice * (1 &#45;</text>
<text text-anchor="middle" x="867.5" y="-1597.8" font-family="Times,serif" font-size="14.00" fill="white">l_discount)) AS revenue</text>
</g>
<!-- 281415385998224 -->
<g id="node2" class="node">
<title>281415385998224</title>
<polygon fill="none" stroke="white" points="1039,-1539 696,-1539 696,-1501 1039,-1501 1039,-1539"/>
<text text-anchor="middle" x="867.5" y="-1523.8" font-family="Times,serif" font-size="14.00" fill="white">[Sort] SUM(l_extendedprice * (1 &#45; l_discount))</text>
<text text-anchor="middle" x="867.5" y="-1508.8" font-family="Times,serif" font-size="14.00" fill="white">(Descending)</text>
</g>
<!-- 281415385998224&#45;&gt;281415385997840 -->
<g id="edge1" class="edge">
<title>281415385998224&#45;&gt;281415385997840</title>
<path fill="none" stroke="white" d="M867.5,-1539.03C867.5,-1550.81 867.5,-1566.44 867.5,-1579.84"/>
<polygon fill="white" stroke="white" points="864,-1580 867.5,-1590 871,-1580 864,-1580"/>
<g id="a_edge1&#45;label"><a xlink:title="Output Expressions: &#10; (1) n_name&#10; (2) SUM(l_extendedprice * (1 &#45; l_discount)) NULL&#10;&#10;Unique Column Combinations: &#10; (1) {n_name}&#10;&#10;Functional Dependencies (trivial): &#10; (1) {n_name} =&gt; {SUM(l_extendedprice * (1 &#45; l_discount))}&#10;&#10;Functional Dependencies (non&#45;trivial): &#10; &lt;none&gt;">
<text text-anchor="middle" x="991" y="-1560.8" font-family="Times,serif" font-size="14.00" fill="white"> 2,383,556.0 row(s) | 100.0% estd.</text>
</a>
</g>
</g>
<!-- 281415385998608 -->
<g id="node3" class="node">
<title>281415385998608</title>
<polygon fill="none" stroke="white" points="1034.5,-1450 700.5,-1450 700.5,-1412 1034.5,-1412 1034.5,-1450"/>
<text text-anchor="middle" x="867.5" y="-1434.8" font-family="Times,serif" font-size="14.00" fill="white">[Aggregate] GroupBy: [n_name] Aggregates:</text>
<text text-anchor="middle" x="867.5" y="-1419.8" font-family="Times,serif" font-size="14.00" fill="white">[SUM(l_extendedprice * (1 &#45; l_discount))]</text>
</g>
<!-- 281415385998608&#45;&gt;281415385998224 -->
<g id="edge2" class="edge">
<title>281415385998608&#45;&gt;281415385998224</title>
<path fill="none" stroke="white" d="M867.5,-1450.03C867.5,-1461.81 867.5,-1477.44 867.5,-1490.84"/>
<polygon fill="white" stroke="white" points="864,-1491 867.5,-1501 871,-1491 864,-1491"/>
<g id="a_edge2&#45;label"><a xlink:title="Output Expressions: &#10; (1) n_name&#10; (2) SUM(l_extendedprice * (1 &#45; l_discount)) NULL&#10;&#10;Unique Column Combinations: &#10; (1) {n_name}&#10;&#10;Functional Dependencies (trivial): &#10; (1) {n_name} =&gt; {SUM(l_extendedprice * (1 &#45; l_discount))}&#10;&#10;Functional Dependencies (non&#45;trivial): &#10; &lt;none&gt;">
<text text-anchor="middle" x="991" y="-1471.8" font-family="Times,serif" font-size="14.00" fill="white"> 2,383,556.0 row(s) | 100.0% estd.</text>
</a>
</g>
</g>
<!-- 281415391454288 -->
<g id="node4" class="node">
<title>281415391454288</title>
<polygon fill="none" stroke="white" points="1039,-1361 696,-1361 696,-1323 1039,-1323 1039,-1361"/>
<text text-anchor="middle" x="867.5" y="-1345.8" font-family="Times,serif" font-size="14.00" fill="white">[Projection] l_extendedprice * (1 &#45; l_discount),</text>
<text text-anchor="middle" x="867.5" y="-1330.8" font-family="Times,serif" font-size="14.00" fill="white">n_name</text>
</g>
<!-- 281415391454288&#45;&gt;281415385998608 -->
<g id="edge3" class="edge">
<title>281415391454288&#45;&gt;281415385998608</title>
<path fill="none" stroke="white" d="M867.5,-1361.03C867.5,-1372.81 867.5,-1388.44 867.5,-1401.84"/>
<polygon fill="white" stroke="white" points="864,-1402 867.5,-1412 871,-1402 864,-1402"/>
<g id="a_edge3&#45;label"><a xlink:title="Output Expressions: &#10; (1) l_extendedprice * (1 &#45; l_discount)&#10; (2) n_name&#10;&#10;Unique Column Combinations: &#10; &lt;none&gt;&#10;&#10;Functional Dependencies (trivial): &#10; &lt;none&gt;&#10;&#10;Functional Dependencies (non&#45;trivial): &#10; &lt;none&gt;">
<text text-anchor="middle" x="991" y="-1382.8" font-family="Times,serif" font-size="14.00" fill="white"> 2,383,556.0 row(s) | 100.0% estd.</text>
</a>
</g>
</g>
<!-- 281415385998992 -->
<g id="node5" class="node">
<title>281415385998992</title>
<polygon fill="none" stroke="white" points="1012,-1272 723,-1272 723,-1236 1012,-1236 1012,-1272"/>
<text text-anchor="middle" x="867.5" y="-1250.3" font-family="Times,serif" font-size="14.00" fill="white">[Predicate] c_nationkey = s_nationkey</text>
</g>
<!-- 281415385998992&#45;&gt;281415391454288 -->
<g id="edge4" class="edge">
<title>281415385998992&#45;&gt;281415391454288</title>
<path fill="none" stroke="white" d="M867.5,-1272.4C867.5,-1283.94 867.5,-1299.35 867.5,-1312.64"/>
<polygon fill="white" stroke="white" points="864,-1312.73 867.5,-1322.73 871,-1312.73 864,-1312.73"/>
<g id="a_edge4&#45;label"><a xlink:title="Output Expressions: &#10; (1) o_orderkey&#10; (2) o_custkey&#10; (3) o_orderdate&#10; (4) l_orderkey&#10; (5) l_suppkey&#10; (6) l_extendedprice&#10; (7) l_discount&#10; (8) s_suppkey&#10; (9) s_nationkey&#10; (10) n_nationkey&#10; (11) n_name&#10; (12) n_regionkey&#10; (13) c_custkey&#10; (14) c_nationkey&#10;&#10;Unique Column Combinations: &#10; &lt;none&gt;&#10;&#10;Functional Dependencies (trivial): &#10; &lt;none&gt;&#10;&#10;Functional Dependencies (non&#45;trivial): &#10; (1) {s_nationkey} =&gt; {n_nationkey}&#10; (2) {s_suppkey} =&gt; {n_nationkey, n_name, n_regionkey, s_nationkey}&#10; (3) {n_nationkey} =&gt; {n_name, n_regionkey, s_nationkey}&#10; (4) {o_orderkey} =&gt; {o_custkey, o_orderdate}&#10; (5) {c_custkey} =&gt; {c_nationkey}&#10;">
<text text-anchor="middle" x="986.5" y="-1293.8" font-family="Times,serif" font-size="14.00" fill="white"> 2,383,556.0 row(s) | 99.5% estd.</text>
</a>
</g>
</g>
<!-- 281415385999376 -->
<g id="node6" class="node">
<title>281415385999376</title>
<polygon fill="none" stroke="white" points="1027.5,-1185 707.5,-1185 707.5,-1149 1027.5,-1149 1027.5,-1185"/>
<text text-anchor="middle" x="867.5" y="-1163.3" font-family="Times,serif" font-size="14.00" fill="white">[Join] Mode: Inner [c_custkey = o_custkey]</text>
</g>
<!-- 281415385999376&#45;&gt;281415385998992 -->
<g id="edge5" class="edge">
<title>281415385999376&#45;&gt;281415385998992</title>
<path fill="none" stroke="white" d="M867.5,-1185.2C867.5,-1196.84 867.5,-1212.45 867.5,-1225.76"/>
<polygon fill="white" stroke="white" points="864,-1225.82 867.5,-1235.82 871,-1225.82 864,-1225.82"/>
<g id="a_edge5&#45;label"><a xlink:title="Output Expressions: &#10; (1) o_orderkey&#10; (2) o_custkey&#10; (3) o_orderdate&#10; (4) l_orderkey&#10; (5) l_suppkey&#10; (6) l_extendedprice&#10; (7) l_discount&#10; (8) s_suppkey&#10; (9) s_nationkey&#10; (10) n_nationkey&#10; (11) n_name&#10; (12) n_regionkey&#10; (13) c_custkey&#10; (14) c_nationkey&#10;&#10;Unique Column Combinations: &#10; &lt;none&gt;&#10;&#10;Functional Dependencies (trivial): &#10; &lt;none&gt;&#10;&#10;Functional Dependencies (non&#45;trivial): &#10; (1) {s_nationkey} =&gt; {n_nationkey}&#10; (2) {s_suppkey} =&gt; {n_nationkey, n_name, n_regionkey, s_nationkey}&#10; (3) {n_nationkey} =&gt; {n_name, n_regionkey, s_nationkey}&#10; (4) {o_orderkey} =&gt; {o_custkey, o_orderdate}&#10; (5) {c_custkey} =&gt; {c_nationkey}&#10;">
<text text-anchor="middle" x="982" y="-1206.8" font-family="Times,serif" font-size="14.00" fill="white"> 2,394,864.5 row(s) | 0.0% estd.</text>
</a>
</g>
</g>
<!-- 281415385995152 -->
<g id="node7" class="node">
<title>281415385995152</title>
<polygon fill="none" stroke="white" points="896,-1098 561,-1098 561,-1062 896,-1062 896,-1098"/>
<text text-anchor="middle" x="728.5" y="-1076.3" font-family="Times,serif" font-size="14.00" fill="white">[Join] Mode: Inner [l_orderkey = o_orderkey]</text>
</g>
<!-- 281415385995152&#45;&gt;281415385999376 -->
<g id="edge6" class="edge">
<title>281415385995152&#45;&gt;281415385999376</title>
<path fill="none" stroke="white" d="M738.46,-1098.38C745.39,-1109.1 755.52,-1122.4 767.5,-1131 774.96,-1136.36 783.32,-1140.95 791.94,-1144.89"/>
<polygon fill="white" stroke="white" points="792.16,-1144.98 790.79,-1148.2 801.36,-1148.9 792.16,-1144.98"/>
<g id="a_edge6&#45;label"><a xlink:title="Output Expressions: &#10; (1) o_orderkey&#10; (2) o_custkey&#10; (3) o_orderdate&#10; (4) l_orderkey&#10; (5) l_suppkey&#10; (6) l_extendedprice&#10; (7) l_discount&#10; (8) s_suppkey&#10; (9) s_nationkey&#10; (10) n_nationkey&#10; (11) n_name&#10; (12) n_regionkey&#10;&#10;Unique Column Combinations: &#10; &lt;none&gt;&#10;&#10;Functional Dependencies (trivial): &#10; &lt;none&gt;&#10;&#10;Functional Dependencies (non&#45;trivial): &#10; (1) {o_orderkey} =&gt; {o_custkey, o_orderdate}&#10; (2) {n_nationkey} =&gt; {n_name, n_regionkey, s_nationkey}&#10; (3) {s_suppkey} =&gt; {n_nationkey, n_name, n_regionkey, s_nationkey}&#10; (4) {s_nationkey} =&gt; {n_nationkey}&#10;">
<text text-anchor="middle" x="882" y="-1119.8" font-family="Times,serif" font-size="14.00" fill="white"> 2,394,864.2 row(s) | 0.0% estd.</text>
</a>
</g>
</g>
<!-- 281415391453328 -->
<g id="node8" class="node">
<title>281415391453328</title>
<polygon fill="none" stroke="white" points="463,-745 378,-745 378,-709 463,-709 463,-745"/>
<text text-anchor="middle" x="420.5" y="-723.3" font-family="Times,serif" font-size="14.00" fill="white">[Validate]</text>
</g>
<!-- 281415391453328&#45;&gt;281415385995152 -->
<g id="edge7" class="edge">
<title>281415391453328&#45;&gt;281415385995152</title>
<path fill="none" stroke="white" d="M420.5,-745C420.5,-762.54 420.5,-790.68 420.5,-815 420.5,-815 420.5,-815 420.5,-993 420.5,-1026.34 488.29,-1047.32 560.26,-1060.21"/>
<polygon fill="white" stroke="white" points="560.59,-1060.27 559.99,-1063.71 570.44,-1061.97 560.59,-1060.27"/>
<g id="a_edge7&#45;label"><a xlink:title="Output Expressions: &#10; (1) o_orderkey&#10; (2) o_custkey&#10; (3) o_orderdate&#10;&#10;Unique Column Combinations: &#10; (1) {o_orderkey}&#10;&#10;Functional Dependencies (trivial): &#10; (1) {o_orderkey} =&gt; {o_custkey, o_orderdate}&#10;&#10;Functional Dependencies (non&#45;trivial): &#10; &lt;none&gt;">
<text text-anchor="middle" x="544" y="-900.3" font-family="Times,serif" font-size="14.00" fill="white"> 2,394,863.0 row(s) | 100.0% estd.</text>
</a>
</g>
</g>
<!-- 281415385995920 -->
<g id="node13" class="node">
<title>281415385995920</title>
<polygon fill="none" stroke="white" points="892,-835 559,-835 559,-797 892,-797 892,-835"/>
<text text-anchor="middle" x="725.5" y="-819.8" font-family="Times,serif" font-size="14.00" fill="white">[Join] Mode: Semi [l_orderkey = o_orderkey]</text>
<text text-anchor="middle" x="725.5" y="-804.8" font-family="Times,serif" font-size="14.00" fill="white">(SemiJoinReductionRule)</text>
</g>
<!-- 281415391453328&#45;&gt;281415385995920 -->
<g id="edge8" class="edge">
<title>281415391453328&#45;&gt;281415385995920</title>
<path fill="none" stroke="white" d="M433.7,-745.09C443.62,-756.64 458.24,-771.15 474.5,-779 489.37,-786.17 517.06,-792.23 548.79,-797.22"/>
<polygon fill="white" stroke="white" points="558.76,-798.73 549.4,-793.77 548.87,-797.23 558.76,-798.73"/>
<g id="a_edge8&#45;label"><a xlink:title="Output Expressions: &#10; (1) o_orderkey&#10; (2) o_custkey&#10; (3) o_orderdate&#10;&#10;Unique Column Combinations: &#10; (1) {o_orderkey}&#10;&#10;Functional Dependencies (trivial): &#10; (1) {o_orderkey} =&gt; {o_custkey, o_orderdate}&#10;&#10;Functional Dependencies (non&#45;trivial): &#10; &lt;none&gt;">
<text text-anchor="middle" x="598" y="-767.8" font-family="Times,serif" font-size="14.00" fill="white"> 2,394,863.0 row(s) | 100.0% estd.</text>
</a>
</g>
</g>
<!-- 281415385993808 -->
<g id="node9" class="node">
<title>281415385993808</title>
<polygon fill="none" stroke="white" points="415,-657 0,-657 0,-619 415,-619 415,-657"/>
<text text-anchor="middle" x="207.5" y="-641.8" font-family="Times,serif" font-size="14.00" fill="white">[Predicate] o_orderdate BETWEEN UPPER EXCLUSIVE</text>
<text text-anchor="middle" x="207.5" y="-626.8" font-family="Times,serif" font-size="14.00" fill="white">&#39;1993&#45;01&#45;01&#39; AND &#39;1994&#45;01&#45;01&#39;</text>
</g>
<!-- 281415385993808&#45;&gt;281415391453328 -->
<g id="edge9" class="edge">
<title>281415385993808&#45;&gt;281415391453328</title>
<path fill="none" stroke="white" d="M251.63,-657.03C285.86,-671.01 333.36,-690.41 369.27,-705.07"/>
<polygon fill="white" stroke="white" points="368.02,-708.34 378.6,-708.88 370.66,-701.86 368.02,-708.34"/>
<g id="a_edge9&#45;label"><a xlink:title="Output Expressions: &#10; (1) o_orderkey&#10; (2) o_custkey&#10; (3) o_orderdate&#10;&#10;Unique Column Combinations: &#10; (1) {o_orderkey}&#10;&#10;Functional Dependencies (trivial): &#10; (1) {o_orderkey} =&gt; {o_custkey, o_orderdate}&#10;&#10;Functional Dependencies (non&#45;trivial): &#10; &lt;none&gt;">
<text text-anchor="middle" x="446.5" y="-678.8" font-family="Times,serif" font-size="14.00" fill="white"> 2,394,863.0 row(s) | 16.0% estd.</text>
</a>
</g>
</g>
<!-- 281415426334160 -->
<g id="node10" class="node">
<title>281415426334160</title>
<polygon fill="none" stroke="white" points="371.5,-568 43.5,-568 43.5,-530 371.5,-530 371.5,-568"/>
<text text-anchor="middle" x="207.5" y="-552.8" font-family="Times,serif" font-size="14.00" fill="white">[StoredTable] Name: &#39;orders&#39; pruned: 0/229</text>
<text text-anchor="middle" x="207.5" y="-537.8" font-family="Times,serif" font-size="14.00" fill="white">chunk(s), 6/9 column(s)</text>
</g>
<!-- 281415426334160&#45;&gt;281415385993808 -->
<g id="edge10" class="edge">
<title>281415426334160&#45;&gt;281415385993808</title>
<path fill="none" stroke="white" stroke-width="4.58" d="M207.5,-568.03C207.5,-579.81 207.5,-595.44 207.5,-608.84"/>
<polygon fill="white" stroke="white" stroke-width="4.58" points="203.49,-609 207.5,-619 211.51,-609 203.49,-609"/>
<g id="a_edge10&#45;label"><a xlink:title="Output Expressions: &#10; (1) o_orderkey&#10; (2) o_custkey&#10; (3) o_orderdate&#10;&#10;Unique Column Combinations: &#10; (1) {o_orderkey}&#10;&#10;Functional Dependencies (trivial): &#10; (1) {o_orderkey} =&gt; {o_custkey, o_orderdate}&#10;&#10;Functional Dependencies (non&#45;trivial): &#10; &lt;none&gt;">
<text text-anchor="middle" x="335.5" y="-589.8" font-family="Times,serif" font-size="14.00" fill="white"> 15,000,000.0 row(s) | 100.0% estd.</text>
</a>
</g>
</g>
<!-- 281415385995536 -->
<g id="node11" class="node">
<title>281415385995536</title>
<polygon fill="none" stroke="white" points="891.5,-1010 565.5,-1010 565.5,-974 891.5,-974 891.5,-1010"/>
<text text-anchor="middle" x="728.5" y="-988.3" font-family="Times,serif" font-size="14.00" fill="white">[Join] Mode: Inner [l_suppkey = s_suppkey]</text>
</g>
<!-- 281415385995536&#45;&gt;281415385995152 -->
<g id="edge11" class="edge">
<title>281415385995536&#45;&gt;281415385995152</title>
<path fill="none" stroke="white" d="M728.5,-1010.4C728.5,-1022.25 728.5,-1038.18 728.5,-1051.71"/>
<polygon fill="white" stroke="white" points="728.5,-1061.92 732,-1051.92 728.5,-1051.92 728.5,-1061.92"/>
<g id="a_edge11&#45;label"><a xlink:title="Output Expressions: &#10; (1) l_orderkey&#10; (2) l_suppkey&#10; (3) l_extendedprice&#10; (4) l_discount&#10; (5) s_suppkey&#10; (6) s_nationkey&#10; (7) n_nationkey&#10; (8) n_name&#10; (9) n_regionkey&#10;&#10;Unique Column Combinations: &#10; &lt;none&gt;&#10;&#10;Functional Dependencies (trivial): &#10; &lt;none&gt;&#10;&#10;Functional Dependencies (non&#45;trivial): &#10; (1) {n_nationkey} =&gt; {n_name, n_regionkey, s_nationkey}&#10; (2) {s_suppkey} =&gt; {n_nationkey, n_name, n_regionkey, s_nationkey}&#10; (3) {s_nationkey} =&gt; {n_nationkey}&#10;">
<text text-anchor="middle" x="843" y="-1032.8" font-family="Times,serif" font-size="14.00" fill="white"> 2,394,864.2 row(s) | 0.0% estd.</text>
</a>
</g>
</g>
<!-- 281415391453808 -->
<g id="node12" class="node">
<title>281415391453808</title>
<polygon fill="none" stroke="white" points="771,-922 686,-922 686,-886 771,-886 771,-922"/>
<text text-anchor="middle" x="728.5" y="-900.3" font-family="Times,serif" font-size="14.00" fill="white">[Validate]</text>
</g>
<!-- 281415391453808&#45;&gt;281415385995536 -->
<g id="edge12" class="edge">
<title>281415391453808&#45;&gt;281415385995536</title>
<path fill="none" stroke="white" d="M728.5,-922.4C728.5,-934.25 728.5,-950.18 728.5,-963.71"/>
<polygon fill="white" stroke="white" points="728.5,-963.92 725,-963.92 728.5,-973.92 728.5,-963.92"/>
<g id="a_edge12&#45;label"><a xlink:title="Output Expressions: &#10; (1) l_orderkey&#10; (2) l_suppkey&#10; (3) l_extendedprice&#10; (4) l_discount&#10;&#10;Unique Column Combinations: &#10; &lt;none&gt;&#10;&#10;Functional Dependencies (trivial): &#10; &lt;none&gt;&#10;&#10;Functional Dependencies (non&#45;trivial): &#10; &lt;none&gt;">
<text text-anchor="middle" x="852" y="-943.8" font-family="Times,serif" font-size="14.00" fill="white"> 2,394,864.2 row(s) | 100.0% estd.</text>
</a>
</g>
</g>
<!-- 281415385995920&#45;&gt;281415391453808 -->
<g id="edge13" class="edge">
<title>281415385995920&#45;&gt;281415391453808</title>
<path fill="none" stroke="white" d="M726.14,-835.24C726.55,-847.07 727.09,-862.68 727.56,-875.95"/>
<polygon fill="white" stroke="white" points="724.06,-876.09 727.91,-885.96 731.05,-875.84 724.06,-876.09"/>
<g id="a_edge13&#45;label"><a xlink:title="Output Expressions: &#10; (1) l_orderkey&#10; (2) l_suppkey&#10; (3) l_extendedprice&#10; (4) l_discount&#10;&#10;Unique Column Combinations: &#10; &lt;none&gt;&#10;&#10;Functional Dependencies (trivial): &#10; &lt;none&gt;&#10;&#10;Functional Dependencies (non&#45;trivial): &#10; &lt;none&gt;">
<text text-anchor="middle" x="846.5" y="-856.8" font-family="Times,serif" font-size="14.00" fill="white"> 2,394,864.2 row(s) | 20.0% estd.</text>
</a>
</g>
</g>
<!-- 281415385996304 -->
<g id="node14" class="node">
<title>281415385996304</title>
<polygon fill="none" stroke="white" points="887,-746 564,-746 564,-708 887,-708 887,-746"/>
<text text-anchor="middle" x="725.5" y="-730.8" font-family="Times,serif" font-size="14.00" fill="white">[Join] Mode: Semi [l_suppkey = s_suppkey]</text>
<text text-anchor="middle" x="725.5" y="-715.8" font-family="Times,serif" font-size="14.00" fill="white">(SemiJoinReductionRule)</text>
</g>
<!-- 281415385996304&#45;&gt;281415385995920 -->
<g id="edge14" class="edge">
<title>281415385996304&#45;&gt;281415385995920</title>
<path fill="none" stroke="white" stroke-width="4.03" d="M725.5,-746.03C725.5,-757.81 725.5,-773.44 725.5,-786.84"/>
<polygon fill="white" stroke="white" stroke-width="4.03" points="725.5,-787 721.97,-787 725.5,-797 725.5,-787"/>
<g id="a_edge14&#45;label"><a xlink:title="Output Expressions: &#10; (1) l_orderkey&#10; (2) l_suppkey&#10; (3) l_extendedprice&#10; (4) l_discount&#10;&#10;Unique Column Combinations: &#10; &lt;none&gt;&#10;&#10;Functional Dependencies (trivial): &#10; &lt;none&gt;&#10;&#10;Functional Dependencies (non&#45;trivial): &#10; &lt;none&gt;">
<text text-anchor="middle" x="849" y="-767.8" font-family="Times,serif" font-size="14.00" fill="white"> 11,997,209.0 row(s) | 20.0% estd.</text>
</a>
</g>
</g>
<!-- 281415426334480 -->
<g id="node15" class="node">
<title>281415426334480</title>
<polygon fill="none" stroke="white" points="773.5,-657 433.5,-657 433.5,-619 773.5,-619 773.5,-657"/>
<text text-anchor="middle" x="603.5" y="-641.8" font-family="Times,serif" font-size="14.00" fill="white">[StoredTable] Name: &#39;lineitem&#39; pruned: 0/916</text>
<text text-anchor="middle" x="603.5" y="-626.8" font-family="Times,serif" font-size="14.00" fill="white">chunk(s), 12/16 column(s)</text>
</g>
<!-- 281415426334480&#45;&gt;281415385996304 -->
<g id="edge15" class="edge">
<title>281415426334480&#45;&gt;281415385996304</title>
<path fill="none" stroke="white" stroke-width="8" d="M598.92,-657.24C597.38,-667.83 597.53,-680.84 604.5,-690 607.98,-694.58 612.03,-698.6 616.48,-702.12"/>
<polygon fill="white" stroke="white" stroke-width="8" points="616.67,-702.25 612.68,-708.01 624.89,-707.94 616.67,-702.25"/>
<g id="a_edge15&#45;label"><a xlink:title="Output Expressions: &#10; (1) l_orderkey&#10; (2) l_suppkey&#10; (3) l_extendedprice&#10; (4) l_discount&#10;&#10;Unique Column Combinations: &#10; &lt;none&gt;&#10;&#10;Functional Dependencies (trivial): &#10; &lt;none&gt;&#10;&#10;Functional Dependencies (non&#45;trivial): &#10; &lt;none&gt;">
<text text-anchor="middle" x="732.5" y="-678.8" font-family="Times,serif" font-size="14.00" fill="white"> 59,986,052.0 row(s) | 100.0% estd.</text>
</a>
</g>
</g>
<!-- 281415385994384 -->
<g id="node16" class="node">
<title>281415385994384</title>
<polygon fill="none" stroke="white" points="1216,-656 865,-656 865,-620 1216,-620 1216,-656"/>
<text text-anchor="middle" x="1040.5" y="-634.3" font-family="Times,serif" font-size="14.00" fill="white">[Join] Mode: Inner [s_nationkey = n_nationkey]</text>
</g>
<!-- 281415385994384&#45;&gt;281415385995536 -->
<g id="edge17" class="edge">
<title>281415385994384&#45;&gt;281415385995536</title>
<path fill="none" stroke="white" d="M1078.24,-656.17C1086.19,-661.26 1093.87,-667.52 1099.5,-675 1113.64,-693.78 1113.5,-702.49 1113.5,-726 1113.5,-726 1113.5,-726 1113.5,-905 1113.5,-968.57 1041.09,-939.29 979.5,-955 952.22,-961.96 922.9,-967.69 894.27,-972.37"/>
<polygon fill="white" stroke="white" points="884.17,-973.98 894.6,-975.86 894.05,-972.4 884.17,-973.98"/>
<g id="a_edge17&#45;label"><a xlink:title="Output Expressions: &#10; (1) s_suppkey&#10; (2) s_nationkey&#10; (3) n_nationkey&#10; (4) n_name&#10; (5) n_regionkey&#10;&#10;Unique Column Combinations: &#10; (1) {s_suppkey}&#10;&#10;Functional Dependencies (trivial): &#10; (1) {s_suppkey} =&gt; {n_nationkey, n_name, n_regionkey, s_nationkey}&#10;&#10;Functional Dependencies (non&#45;trivial): &#10; (1) {n_nationkey} =&gt; {n_name, n_regionkey}&#10;">
<text text-anchor="middle" x="1221.5" y="-812.3" font-family="Times,serif" font-size="14.00" fill="white"> 20,000.0 row(s) | 20.0% estd.</text>
</a>
</g>
</g>
<!-- 281415385994384&#45;&gt;281415385996304 -->
<g id="edge16" class="edge">
<title>281415385994384&#45;&gt;281415385996304</title>
<path fill="none" stroke="white" d="M941.66,-656.07C921.99,-661.01 901.77,-667.24 883.5,-675 872.27,-679.77 871.65,-685.03 860.5,-690 847.54,-695.78 833.45,-700.79 819.43,-705.09"/>
<polygon fill="white" stroke="white" points="809.75,-707.96 820.33,-708.48 819.34,-705.12 809.75,-707.96"/>
<g id="a_edge16&#45;label"><a xlink:title="Output Expressions: &#10; (1) s_suppkey&#10; (2) s_nationkey&#10; (3) n_nationkey&#10; (4) n_name&#10; (5) n_regionkey&#10;&#10;Unique Column Combinations: &#10; (1) {s_suppkey}&#10;&#10;Functional Dependencies (trivial): &#10; (1) {s_suppkey} =&gt; {n_nationkey, n_name, n_regionkey, s_nationkey}&#10;&#10;Functional Dependencies (non&#45;trivial): &#10; (1) {n_nationkey} =&gt; {n_name, n_regionkey}&#10;">
<text text-anchor="middle" x="991.5" y="-678.8" font-family="Times,serif" font-size="14.00" fill="white"> 20,000.0 row(s) | 20.0% estd.</text>
</a>
</g>
</g>
<!-- 281415391453648 -->
<g id="node17" class="node">
<title>281415391453648</title>
<polygon fill="none" stroke="white" points="1238,-567 1153,-567 1153,-531 1238,-531 1238,-567"/>
<text text-anchor="middle" x="1195.5" y="-545.3" font-family="Times,serif" font-size="14.00" fill="white">[Validate]</text>
</g>
<!-- 281415391453648&#45;&gt;281415385994384 -->
<g id="edge18" class="edge">
<title>281415391453648&#45;&gt;281415385994384</title>
<path fill="none" stroke="white" d="M1164.88,-567.19C1140.49,-580.88 1106.18,-600.13 1079.78,-614.95"/>
<polygon fill="white" stroke="white" points="1079.52,-615.1 1077.8,-612.05 1070.8,-620 1079.52,-615.1"/>
<g id="a_edge18&#45;label"><a xlink:title="Output Expressions: &#10; (1) s_suppkey&#10; (2) s_nationkey&#10;&#10;Unique Column Combinations: &#10; (1) {s_suppkey}&#10;&#10;Functional Dependencies (trivial): &#10; (1) {s_suppkey} =&gt; {s_nationkey}&#10;&#10;Functional Dependencies (non&#45;trivial): &#10; &lt;none&gt;">
<text text-anchor="middle" x="1239" y="-589.8" font-family="Times,serif" font-size="14.00" fill="white"> 20,000.0 row(s) | 100.0% estd.</text>
</a>
</g>
</g>
<!-- 281415385994768 -->
<g id="node18" class="node">
<title>281415385994768</title>
<polygon fill="none" stroke="white" points="1396,-479 1047,-479 1047,-441 1396,-441 1396,-479"/>
<text text-anchor="middle" x="1221.5" y="-463.8" font-family="Times,serif" font-size="14.00" fill="white">[Join] Mode: Semi [s_nationkey = n_nationkey]</text>
<text text-anchor="middle" x="1221.5" y="-448.8" font-family="Times,serif" font-size="14.00" fill="white">(SemiJoinReductionRule)</text>
</g>
<!-- 281415385994768&#45;&gt;281415391453648 -->
<g id="edge19" class="edge">
<title>281415385994768&#45;&gt;281415391453648</title>
<path fill="none" stroke="white" d="M1216.11,-479.03C1212.49,-491.16 1207.64,-507.38 1203.56,-521.05"/>
<polygon fill="white" stroke="white" points="1200.12,-520.3 1200.61,-530.88 1206.83,-522.31 1200.12,-520.3"/>
<g id="a_edge19&#45;label"><a xlink:title="Output Expressions: &#10; (1) s_suppkey&#10; (2) s_nationkey&#10;&#10;Unique Column Combinations: &#10; (1) {s_suppkey}&#10;&#10;Functional Dependencies (trivial): &#10; (1) {s_suppkey} =&gt; {s_nationkey}&#10;&#10;Functional Dependencies (non&#45;trivial): &#10; &lt;none&gt;">
<text text-anchor="middle" x="1317.5" y="-500.8" font-family="Times,serif" font-size="14.00" fill="white"> 20,000.0 row(s) | 20.0% estd.</text>
</a>
</g>
</g>
<!-- 281415426334800 -->
<g id="node19" class="node">
<title>281415426334800</title>
<polygon fill="none" stroke="white" points="1415.5,-390 1093.5,-390 1093.5,-352 1415.5,-352 1415.5,-390"/>
<text text-anchor="middle" x="1254.5" y="-374.8" font-family="Times,serif" font-size="14.00" fill="white">[StoredTable] Name: &#39;supplier&#39; pruned: 0/2</text>
<text text-anchor="middle" x="1254.5" y="-359.8" font-family="Times,serif" font-size="14.00" fill="white">chunk(s), 5/7 column(s)</text>
</g>
<!-- 281415426334800&#45;&gt;281415385994768 -->
<g id="edge20" class="edge">
<title>281415426334800&#45;&gt;281415385994768</title>
<path fill="none" stroke="white" d="M1247.66,-390.03C1243.1,-402.04 1237.03,-418.06 1231.88,-431.64"/>
<polygon fill="white" stroke="white" points="1231.88,-431.65 1228.6,-430.41 1228.33,-441 1231.88,-431.65"/>
<g id="a_edge20&#45;label"><a xlink:title="Output Expressions: &#10; (1) s_suppkey&#10; (2) s_nationkey&#10;&#10;Unique Column Combinations: &#10; (1) {s_suppkey}&#10;&#10;Functional Dependencies (trivial): &#10; (1) {s_suppkey} =&gt; {s_nationkey}&#10;&#10;Functional Dependencies (non&#45;trivial): &#10; &lt;none&gt;">
<text text-anchor="middle" x="1356.5" y="-411.8" font-family="Times,serif" font-size="14.00" fill="white"> 100,000.0 row(s) | 100.0% estd.</text>
</a>
</g>
</g>
<!-- 281415391453488 -->
<g id="node20" class="node">
<title>281415391453488</title>
<polygon fill="none" stroke="white" points="1066,-389 981,-389 981,-353 1066,-353 1066,-389"/>
<text text-anchor="middle" x="1023.5" y="-367.3" font-family="Times,serif" font-size="14.00" fill="white">[Validate]</text>
</g>
<!-- 281415391453488&#45;&gt;281415385994384 -->
<g id="edge22" class="edge">
<title>281415391453488&#45;&gt;281415385994384</title>
<path fill="none" stroke="white" d="M1021.52,-389.28C1018.8,-415.75 1014.65,-467.9 1018.5,-512 1021.47,-546 1028.9,-584.61 1034.3,-609.81"/>
<polygon fill="white" stroke="white" points="1036.48,-619.74 1037.76,-609.22 1034.34,-609.97 1036.48,-619.74"/>
<g id="a_edge22&#45;label"><a xlink:title="Output Expressions: &#10; (1) n_nationkey&#10; (2) n_name&#10; (3) n_regionkey&#10;&#10;Unique Column Combinations: &#10; (1) {n_nationkey}&#10;&#10;Functional Dependencies (trivial): &#10; (1) {n_nationkey} =&gt; {n_name, n_regionkey}&#10;&#10;Functional Dependencies (non&#45;trivial): &#10; &lt;none&gt;">
<text text-anchor="middle" x="1110.5" y="-500.8" font-family="Times,serif" font-size="14.00" fill="white"> 5.0 row(s) | 100.0% estd.</text>
</a>
</g>
</g>
<!-- 281415391453488&#45;&gt;281415385994768 -->
<g id="edge21" class="edge">
<title>281415391453488&#45;&gt;281415385994768</title>
<path fill="none" stroke="white" d="M1027.34,-389.19C1030.75,-400.47 1036.89,-414.64 1047.5,-423 1055.06,-428.96 1069.29,-434.16 1086.47,-438.6"/>
<polygon fill="white" stroke="white" points="1096.3,-441 1087.42,-435.23 1086.59,-438.63 1096.3,-441"/>
<g id="a_edge21&#45;label"><a xlink:title="Output Expressions: &#10; (1) n_nationkey&#10; (2) n_name&#10; (3) n_regionkey&#10;&#10;Unique Column Combinations: &#10; (1) {n_nationkey}&#10;&#10;Functional Dependencies (trivial): &#10; (1) {n_nationkey} =&gt; {n_name, n_regionkey}&#10;&#10;Functional Dependencies (non&#45;trivial): &#10; &lt;none&gt;">
<text text-anchor="middle" x="1139.5" y="-411.8" font-family="Times,serif" font-size="14.00" fill="white"> 5.0 row(s) | 100.0% estd.</text>
</a>
</g>
</g>
<!-- 281415385993616 -->
<g id="node21" class="node">
<title>281415385993616</title>
<polygon fill="none" stroke="white" points="1198.5,-301 848.5,-301 848.5,-265 1198.5,-265 1198.5,-301"/>
<text text-anchor="middle" x="1023.5" y="-279.3" font-family="Times,serif" font-size="14.00" fill="white">[Join] Mode: Semi [n_regionkey = r_regionkey]</text>
</g>
<!-- 281415385993616&#45;&gt;281415391453488 -->
<g id="edge23" class="edge">
<title>281415385993616&#45;&gt;281415391453488</title>
<path fill="none" stroke="white" d="M1023.5,-301.4C1023.5,-313.25 1023.5,-329.18 1023.5,-342.71"/>
<polygon fill="white" stroke="white" points="1020,-342.92 1023.5,-352.92 1027,-342.92 1020,-342.92"/>
<g id="a_edge23&#45;label"><a xlink:title="Output Expressions: &#10; (1) n_nationkey&#10; (2) n_name&#10; (3) n_regionkey&#10;&#10;Unique Column Combinations: &#10; (1) {n_nationkey}&#10;&#10;Functional Dependencies (trivial): &#10; (1) {n_nationkey} =&gt; {n_name, n_regionkey}&#10;&#10;Functional Dependencies (non&#45;trivial): &#10; &lt;none&gt;">
<text text-anchor="middle" x="1111" y="-322.8" font-family="Times,serif" font-size="14.00" fill="white"> 5.0 row(s) | 20.0% estd.</text>
</a>
</g>
</g>
<!-- 281415426335120 -->
<g id="node22" class="node">
<title>281415426335120</title>
<polygon fill="none" stroke="white" points="1104.5,-214 726.5,-214 726.5,-176 1104.5,-176 1104.5,-214"/>
<text text-anchor="middle" x="915.5" y="-198.8" font-family="Times,serif" font-size="14.00" fill="white">[StoredTable] Name: &#39;nation&#39; pruned: 0/1 chunk(s),</text>
<text text-anchor="middle" x="915.5" y="-183.8" font-family="Times,serif" font-size="14.00" fill="white">1/4 column(s)</text>
</g>
<!-- 281415426335120&#45;&gt;281415385993616 -->
<g id="edge24" class="edge">
<title>281415426335120&#45;&gt;281415385993616</title>
<path fill="none" stroke="white" d="M918.01,-214.04C920.36,-224.82 924.88,-238.1 933.5,-247 938.28,-251.93 943.84,-256.19 949.8,-259.85"/>
<polygon fill="white" stroke="white" points="950.02,-259.97 948.33,-263.04 958.78,-264.8 950.02,-259.97"/>
<g id="a_edge24&#45;label"><a xlink:title="Output Expressions: &#10; (1) n_nationkey&#10; (2) n_name&#10; (3) n_regionkey&#10;&#10;Unique Column Combinations: &#10; (1) {n_nationkey}&#10;&#10;Functional Dependencies (trivial): &#10; (1) {n_nationkey} =&gt; {n_name, n_regionkey}&#10;&#10;Functional Dependencies (non&#45;trivial): &#10; &lt;none&gt;">
<text text-anchor="middle" x="1030" y="-235.8" font-family="Times,serif" font-size="14.00" fill="white"> 25.0 row(s) | 100.0% estd.</text>
</a>
</g>
</g>
<!-- 281415391453168 -->
<g id="node23" class="node">
<title>281415391453168</title>
<polygon fill="none" stroke="white" points="1208,-213 1123,-213 1123,-177 1208,-177 1208,-213"/>
<text text-anchor="middle" x="1165.5" y="-191.3" font-family="Times,serif" font-size="14.00" fill="white">[Validate]</text>
</g>
<!-- 281415391453168&#45;&gt;281415385993616 -->
<g id="edge25" class="edge">
<title>281415391453168&#45;&gt;281415385993616</title>
<path fill="none" stroke="white" d="M1155.94,-213.28C1149.05,-224.32 1138.81,-238.16 1126.5,-247 1119.01,-252.38 1110.63,-256.98 1101.97,-260.9"/>
<polygon fill="white" stroke="white" points="1092.49,-264.9 1103.06,-264.24 1101.7,-261.01 1092.49,-264.9"/>
<g id="a_edge25&#45;label"><a xlink:title="Output Expressions: &#10; (1) r_regionkey&#10; (2) r_name&#10;&#10;Unique Column Combinations: &#10; (1) {r_regionkey}&#10;&#10;Functional Dependencies (trivial): &#10; (1) {r_regionkey} =&gt; {r_name}&#10;&#10;Functional Dependencies (non&#45;trivial): &#10; &lt;none&gt;">
<text text-anchor="middle" x="1233.5" y="-235.8" font-family="Times,serif" font-size="14.00" fill="white"> 1.0 row(s) | 100.0% estd.</text>
</a>
</g>
</g>
<!-- 281415385994000 -->
<g id="node24" class="node">
<title>281415385994000</title>
<polygon fill="none" stroke="white" points="1283.5,-125 1047.5,-125 1047.5,-89 1283.5,-89 1283.5,-125"/>
<text text-anchor="middle" x="1165.5" y="-103.3" font-family="Times,serif" font-size="14.00" fill="white">[Predicate] r_name = &#39;AFRICA&#39;</text>
</g>
<!-- 281415385994000&#45;&gt;281415391453168 -->
<g id="edge26" class="edge">
<title>281415385994000&#45;&gt;281415391453168</title>
<path fill="none" stroke="white" d="M1165.5,-125.4C1165.5,-137.25 1165.5,-153.18 1165.5,-166.71"/>
<polygon fill="white" stroke="white" points="1162,-166.92 1165.5,-176.92 1169,-166.92 1162,-166.92"/>
<g id="a_edge26&#45;label"><a xlink:title="Output Expressions: &#10; (1) r_regionkey&#10; (2) r_name&#10;&#10;Unique Column Combinations: &#10; (1) {r_regionkey}&#10;&#10;Functional Dependencies (trivial): &#10; (1) {r_regionkey} =&gt; {r_name}&#10;&#10;Functional Dependencies (non&#45;trivial): &#10; &lt;none&gt;">
<text text-anchor="middle" x="1253" y="-146.8" font-family="Times,serif" font-size="14.00" fill="white"> 1.0 row(s) | 20.0% estd.</text>
</a>
</g>
</g>
<!-- 281415426335440 -->
<g id="node25" class="node">
<title>281415426335440</title>
<polygon fill="none" stroke="white" points="1355,-38 976,-38 976,0 1355,0 1355,-38"/>
<text text-anchor="middle" x="1165.5" y="-22.8" font-family="Times,serif" font-size="14.00" fill="white">[StoredTable] Name: &#39;region&#39; pruned: 0/1 chunk(s),</text>
<text text-anchor="middle" x="1165.5" y="-7.8" font-family="Times,serif" font-size="14.00" fill="white">1/3 column(s)</text>
</g>
<!-- 281415426335440&#45;&gt;281415385994000 -->
<g id="edge27" class="edge">
<title>281415426335440&#45;&gt;281415385994000</title>
<path fill="none" stroke="white" d="M1165.5,-38.24C1165.5,-50.07 1165.5,-65.68 1165.5,-78.95"/>
<polygon fill="white" stroke="white" points="1162,-78.96 1165.5,-88.96 1169,-78.96 1162,-78.96"/>
<g id="a_edge27&#45;label"><a xlink:title="Output Expressions: &#10; (1) r_regionkey&#10; (2) r_name&#10;&#10;Unique Column Combinations: &#10; (1) {r_regionkey}&#10;&#10;Functional Dependencies (trivial): &#10; (1) {r_regionkey} =&gt; {r_name}&#10;&#10;Functional Dependencies (non&#45;trivial): &#10; &lt;none&gt;">
<text text-anchor="middle" x="1257.5" y="-59.8" font-family="Times,serif" font-size="14.00" fill="white"> 5.0 row(s) | 100.0% estd.</text>
</a>
</g>
</g>
<!-- 281415391453968 -->
<g id="node26" class="node">
<title>281415391453968</title>
<polygon fill="none" stroke="white" points="1073,-1098 988,-1098 988,-1062 1073,-1062 1073,-1098"/>
<text text-anchor="middle" x="1030.5" y="-1076.3" font-family="Times,serif" font-size="14.00" fill="white">[Validate]</text>
</g>
<!-- 281415391453968&#45;&gt;281415385999376 -->
<g id="edge28" class="edge">
<title>281415391453968&#45;&gt;281415385999376</title>
<path fill="none" stroke="white" d="M1022.75,-1098.2C1016.99,-1109.12 1008.13,-1122.71 996.5,-1131 988.72,-1136.55 980.1,-1141.22 971.11,-1145.15"/>
<polygon fill="white" stroke="white" points="961.64,-1148.98 972.22,-1148.47 970.91,-1145.23 961.64,-1148.98"/>
<g id="a_edge28&#45;label"><a xlink:title="Output Expressions: &#10; (1) c_custkey&#10; (2) c_nationkey&#10;&#10;Unique Column Combinations: &#10; (1) {c_custkey}&#10;&#10;Functional Dependencies (trivial): &#10; (1) {c_custkey} =&gt; {c_nationkey}&#10;&#10;Functional Dependencies (non&#45;trivial): &#10; &lt;none&gt;">
<text text-anchor="middle" x="1135" y="-1119.8" font-family="Times,serif" font-size="14.00" fill="white"> 1,500,000.0 row(s) | 100.0% estd.</text>
</a>
</g>
</g>
<!-- 281415426335760 -->
<g id="node27" class="node">
<title>281415426335760</title>
<polygon fill="none" stroke="white" points="1249,-1011 910,-1011 910,-973 1249,-973 1249,-1011"/>
<text text-anchor="middle" x="1079.5" y="-995.8" font-family="Times,serif" font-size="14.00" fill="white">[StoredTable] Name: &#39;customer&#39; pruned: 0/23</text>
<text text-anchor="middle" x="1079.5" y="-980.8" font-family="Times,serif" font-size="14.00" fill="white">chunk(s), 6/8 column(s)</text>
</g>
<!-- 281415426335760&#45;&gt;281415391453968 -->
<g id="edge29" class="edge">
<title>281415426335760&#45;&gt;281415391453968</title>
<path fill="none" stroke="white" d="M1069.11,-1011.24C1062.17,-1023.42 1052.94,-1039.62 1045.25,-1053.12"/>
<polygon fill="white" stroke="white" points="1042.12,-1051.54 1040.21,-1061.96 1048.2,-1055 1042.12,-1051.54"/>
<g id="a_edge29&#45;label"><a xlink:title="Output Expressions: &#10; (1) c_custkey&#10; (2) c_nationkey&#10;&#10;Unique Column Combinations: &#10; (1) {c_custkey}&#10;&#10;Functional Dependencies (trivial): &#10; (1) {c_custkey} =&gt; {c_nationkey}&#10;&#10;Functional Dependencies (non&#45;trivial): &#10; &lt;none&gt;">
<text text-anchor="middle" x="1181" y="-1032.8" font-family="Times,serif" font-size="14.00" fill="white"> 1,500,000.0 row(s) | 100.0% estd.</text>
</a>
</g>
</g>
</g>
</svg>
