<?xml version="1.0" encoding="UTF-8" standalone="no"?>
<!DOCTYPE svg PUBLIC "-//W3C//DTD SVG 1.1//EN"
 "http://www.w3.org/Graphics/SVG/1.1/DTD/svg11.dtd">
<!-- Generated by graphviz version 2.43.0 (0)
 -->
<!-- Title: G Pages: 1 -->
<svg width="732pt" height="1805pt"
 viewBox="0.00 0.00 732.00 1805.00" xmlns="http://www.w3.org/2000/svg" xmlns:xlink="http://www.w3.org/1999/xlink">
<g id="graph0" class="graph" transform="scale(1 1) rotate(0) translate(4 1801)">
<title>G</title>
<polygon fill="black" stroke="transparent" points="-4,4 -4,-1801 728,-1801 728,4 -4,4"/>
<text text-anchor="middle" x="319.5" y="-1781.8" font-family="Times,serif" font-size="14.00" fill="white">For tooltips with advanced information, hover your mouse over vertices or edge labels.</text>
<!-- 281413784049616 -->
<g id="node1" class="node">
<title>281413784049616</title>
<g id="a_node1"><a xlink:title="Output: 7 rows in 1 chunk, 1 µs 696 ns.">
<polygon fill="none" stroke="white" points="427.5,-1742 179.5,-1742 179.5,-1673 427.5,-1673 427.5,-1742"/>
<text text-anchor="middle" x="303.5" y="-1726.8" font-family="Times,serif" font-size="14.00" fill="white">Alias</text>
<text text-anchor="middle" x="303.5" y="-1711.8" font-family="Times,serif" font-size="14.00" fill="white">[cntrycode, numcust, totacctbal]</text>
<text text-anchor="middle" x="303.5" y="-1680.8" font-family="Times,serif" font-size="14.00" fill="white">1 µs 696 ns</text>
</a>
</g>
</g>
<!-- 281413784049296 -->
<g id="node2" class="node">
<title>281413784049296</title>
<g id="a_node2"><a xlink:title="Output: 7 rows in 1 chunk, 16 µs 64 ns.&#10;Operator step runtimes:&#10; MaterializeSortColumns 4 µs 640 ns&#10; Sort 2 µs 752 ns&#10; TemporaryResultWriting 288 ns&#10; WriteOutput 6 µs 400 ns.">
<polygon fill="none" stroke="white" points="353,-1622 254,-1622 254,-1568 353,-1568 353,-1622"/>
<text text-anchor="middle" x="303.5" y="-1606.8" font-family="Times,serif" font-size="14.00" fill="white">Sort</text>
<text text-anchor="middle" x="303.5" y="-1575.8" font-family="Times,serif" font-size="14.00" fill="white">16 µs 64 ns</text>
</a>
</g>
</g>
<!-- 281413784049296&#45;&gt;281413784049616 -->
<g id="edge1" class="edge">
<title>281413784049296&#45;&gt;281413784049616</title>
<path fill="none" stroke="white" d="M303.5,-1622.19C303.5,-1634.29 303.5,-1649 303.5,-1662.72"/>
<polygon fill="white" stroke="white" points="300,-1662.95 303.5,-1672.95 307,-1662.96 300,-1662.95"/>
<text text-anchor="middle" x="372.5" y="-1643.8" font-family="Times,serif" font-size="14.00" fill="white">7 row(s)/1 chunk(s)</text>
</g>
<!-- 281413781948432 -->
<g id="node3" class="node">
<title>281413781948432</title>
<g id="a_node3"><a xlink:title="Output: 7 rows in 1 chunk, 7 ms 35 µs.&#10;Operator step runtimes:&#10; GroupByKeyPartitioning 454 µs 85 ns&#10; Aggregating 6 ms 551 µs&#10; GroupByColumnsWriting 4 µs 160 ns&#10; AggregateColumnsWriting 8 µs 993 ns&#10; OutputWriting 3 µs 712 ns.">
<polygon fill="none" stroke="white" stroke-width="5.66" points="433,-1517 174,-1517 174,-1418 433,-1418 433,-1517"/>
<text text-anchor="middle" x="303.5" y="-1501.8" font-family="Times,serif" font-size="14.00" fill="white">AggregateHash</text>
<text text-anchor="middle" x="303.5" y="-1486.8" font-family="Times,serif" font-size="14.00" fill="white">GroupBy {SUBSTR(c_phone,1,2)}</text>
<text text-anchor="middle" x="303.5" y="-1471.8" font-family="Times,serif" font-size="14.00" fill="white">COUNT(*), </text>
<text text-anchor="middle" x="303.5" y="-1456.8" font-family="Times,serif" font-size="14.00" fill="white">SUM(c_acctbal)</text>
<text text-anchor="middle" x="303.5" y="-1425.8" font-family="Times,serif" font-size="14.00" fill="white">7 ms 35 µs</text>
</a>
</g>
</g>
<!-- 281413781948432&#45;&gt;281413784049296 -->
<g id="edge2" class="edge">
<title>281413781948432&#45;&gt;281413784049296</title>
<path fill="none" stroke="white" d="M303.5,-1517.02C303.5,-1530.49 303.5,-1544.89 303.5,-1557.54"/>
<polygon fill="white" stroke="white" points="300,-1557.7 303.5,-1567.7 307,-1557.7 300,-1557.7"/>
<text text-anchor="middle" x="372.5" y="-1538.8" font-family="Times,serif" font-size="14.00" fill="white">7 row(s)/1 chunk(s)</text>
</g>
<!-- 281413784048976 -->
<g id="node4" class="node">
<title>281413784048976</title>
<g id="a_node4"><a xlink:title="Output: 63348 rows in 99 chunks, 32 µs 545 ns.">
<polygon fill="none" stroke="white" points="389.5,-1367 217.5,-1367 217.5,-1298 389.5,-1298 389.5,-1367"/>
<text text-anchor="middle" x="303.5" y="-1351.8" font-family="Times,serif" font-size="14.00" fill="white">Alias</text>
<text text-anchor="middle" x="303.5" y="-1336.8" font-family="Times,serif" font-size="14.00" fill="white">[cntrycode, c_acctbal]</text>
<text text-anchor="middle" x="303.5" y="-1305.8" font-family="Times,serif" font-size="14.00" fill="white">32 µs 545 ns</text>
</a>
</g>
</g>
<!-- 281413784048976&#45;&gt;281413781948432 -->
<g id="edge3" class="edge">
<title>281413784048976&#45;&gt;281413781948432</title>
<path fill="none" stroke="white" d="M303.5,-1367.06C303.5,-1379.45 303.5,-1393.87 303.5,-1407.83"/>
<polygon fill="white" stroke="white" points="300,-1407.87 303.5,-1417.87 307,-1407.87 300,-1407.87"/>
<text text-anchor="middle" x="397" y="-1388.8" font-family="Times,serif" font-size="14.00" fill="white">63,348 row(s)/99 chunk(s)</text>
</g>
<!-- 281413784048656 -->
<g id="node5" class="node">
<title>281413784048656</title>
<g id="a_node5"><a xlink:title="Output: 63348 rows in 99 chunks, 945 µs 548 ns.&#10;Operator step runtimes:&#10; ForwardUnmodifiedColumns 57 µs 121 ns&#10; EvaluateNewColumns 735 µs 113 ns&#10; BuildOutput 124 µs 353 ns.">
<polygon fill="none" stroke="white" points="362,-1247 245,-1247 245,-1193 362,-1193 362,-1247"/>
<text text-anchor="middle" x="303.5" y="-1231.8" font-family="Times,serif" font-size="14.00" fill="white">Projection</text>
<text text-anchor="middle" x="303.5" y="-1200.8" font-family="Times,serif" font-size="14.00" fill="white">945 µs 548 ns</text>
</a>
</g>
</g>
<!-- 281413784048656&#45;&gt;281413784048976 -->
<g id="edge4" class="edge">
<title>281413784048656&#45;&gt;281413784048976</title>
<path fill="none" stroke="white" d="M303.5,-1247.19C303.5,-1259.29 303.5,-1274 303.5,-1287.72"/>
<polygon fill="white" stroke="white" points="300,-1287.95 303.5,-1297.95 307,-1287.96 300,-1287.95"/>
<text text-anchor="middle" x="397" y="-1268.8" font-family="Times,serif" font-size="14.00" fill="white">63,348 row(s)/99 chunk(s)</text>
</g>
<!-- 281413784048336 -->
<g id="node6" class="node">
<title>281413784048336</title>
<g id="a_node6"><a xlink:title="Output: 63348 rows in 99 chunks, 18 ms 170 µs.&#10;Operator step runtimes:&#10; LeftSideMaterialize 112 µs 33 ns&#10; RightSideMaterialize 1 ms 572 µs&#10; LeftSideTransform 0 ns&#10; RightSideTransform 0 ns&#10; LeftSidePartition 1 ms 460 µs&#10; RightSidePartition 7 ms 691 µs&#10; LeftSideSortBuckets 421 µs 253 ns&#10; RightSideSortBuckets 4 ms 535 µs&#10; GatherRowIds 1 µs 248 ns&#10; FindJoinPartner 879 µs 658 ns&#10; OutputWriting 663 µs 336 ns.">
<polygon fill="none" stroke="white" stroke-width="8" points="447,-1142 160,-1142 160,-1073 447,-1073 447,-1142"/>
<text text-anchor="middle" x="303.5" y="-1126.8" font-family="Times,serif" font-size="14.00" fill="white">JoinSimdSortMerge (AntiNullAsFalse)</text>
<text text-anchor="middle" x="303.5" y="-1111.8" font-family="Times,serif" font-size="14.00" fill="white">c_custkey = o_custkey</text>
<text text-anchor="middle" x="303.5" y="-1080.8" font-family="Times,serif" font-size="14.00" fill="white">18 ms 170 µs</text>
</a>
</g>
</g>
<!-- 281413784048336&#45;&gt;281413784048656 -->
<g id="edge5" class="edge">
<title>281413784048336&#45;&gt;281413784048656</title>
<path fill="none" stroke="white" d="M303.5,-1142.25C303.5,-1155.07 303.5,-1169.73 303.5,-1182.77"/>
<polygon fill="white" stroke="white" points="300,-1182.81 303.5,-1192.81 307,-1182.81 300,-1182.81"/>
<text text-anchor="middle" x="397" y="-1163.8" font-family="Times,serif" font-size="14.00" fill="white">63,348 row(s)/99 chunk(s)</text>
</g>
<!-- 281413784047056 -->
<g id="node7" class="node">
<title>281413784047056</title>
<g id="a_node7"><a xlink:title="Output: 190657 rows in 23 chunks, 4 ms 981 µs.&#10;Chunks: 0 skipped with no results, &#10;0 skipped with all matching, 0 scanned using binary search.">
<polygon fill="none" stroke="white" stroke-width="4.81" points="353,-1022 4,-1022 4,-923 353,-923 353,-1022"/>
<text text-anchor="middle" x="178.5" y="-1006.8" font-family="Times,serif" font-size="14.00" fill="white">TableScan</text>
<text text-anchor="middle" x="178.5" y="-991.8" font-family="Times,serif" font-size="14.00" fill="white">Impl: ExpressionEvaluator</text>
<text text-anchor="middle" x="178.5" y="-976.8" font-family="Times,serif" font-size="14.00" fill="white">(SUBSTR(c_phone,1,2)) IN (&#39;31&#39;, &#39;16&#39;, &#39;18&#39;, &#39;17&#39;,</text>
<text text-anchor="middle" x="178.5" y="-961.8" font-family="Times,serif" font-size="14.00" fill="white">&#39;23&#39;, &#39;10&#39;, &#39;24&#39;)</text>
<text text-anchor="middle" x="178.5" y="-930.8" font-family="Times,serif" font-size="14.00" fill="white">4 ms 981 µs</text>
</a>
</g>
</g>
<!-- 281413784047056&#45;&gt;281413784048336 -->
<g id="edge6" class="edge">
<title>281413784047056&#45;&gt;281413784048336</title>
<path fill="none" stroke="white" d="M186.66,-1022.37C190.35,-1033.98 195.71,-1045.69 203.5,-1055 207.02,-1059.21 210.98,-1063.12 215.23,-1066.74"/>
<polygon fill="white" stroke="white" points="215.29,-1066.79 213.14,-1069.55 223.17,-1072.95 215.29,-1066.79"/>
<text text-anchor="middle" x="301.5" y="-1043.8" font-family="Times,serif" font-size="14.00" fill="white">190,657 row(s)/23 chunk(s)</text>
</g>
<!-- 281413784046416 -->
<g id="node8" class="node">
<title>281413784046416</title>
<g id="a_node8"><a xlink:title="Output: 681721 rows in 23 chunks, 441 µs 413 ns.&#10;Chunks: 0 skipped with no results, &#10;0 skipped with all matching, 0 scanned using binary search.">
<polygon fill="none" stroke="white" points="351,-857 0,-857 0,-773 351,-773 351,-857"/>
<text text-anchor="middle" x="175.5" y="-841.8" font-family="Times,serif" font-size="14.00" fill="white">TableScan</text>
<text text-anchor="middle" x="175.5" y="-826.8" font-family="Times,serif" font-size="14.00" fill="white">Impl: ColumnVsValue</text>
<text text-anchor="middle" x="175.5" y="-811.8" font-family="Times,serif" font-size="14.00" fill="white">c_acctbal &gt; SUBQUERY (PQP, 0xfff1c0821010)</text>
<text text-anchor="middle" x="175.5" y="-780.8" font-family="Times,serif" font-size="14.00" fill="white">441 µs 413 ns</text>
</a>
</g>
</g>
<!-- 281413784046416&#45;&gt;281413784047056 -->
<g id="edge7" class="edge">
<title>281413784046416&#45;&gt;281413784047056</title>
<path fill="none" stroke="white" d="M176.3,-857.26C176.62,-874.27 177.01,-894.29 177.37,-912.77"/>
<polygon fill="white" stroke="white" points="173.87,-912.93 177.56,-922.86 180.87,-912.79 173.87,-912.93"/>
<text text-anchor="middle" x="275.5" y="-893.8" font-family="Times,serif" font-size="14.00" fill="white">681,721 row(s)/23 chunk(s)</text>
</g>
<!-- 281413781880848 -->
<g id="node9" class="node">
<title>281413781880848</title>
<g id="a_node9"><a xlink:title="Output: 1500000 rows in 23 chunks, 65 µs 601 ns.">
<polygon fill="none" stroke="white" points="113.5,-692 5.5,-692 5.5,-638 113.5,-638 113.5,-692"/>
<text text-anchor="middle" x="59.5" y="-676.8" font-family="Times,serif" font-size="14.00" fill="white">Validate</text>
<text text-anchor="middle" x="59.5" y="-645.8" font-family="Times,serif" font-size="14.00" fill="white">65 µs 601 ns</text>
</a>
</g>
</g>
<!-- 281413781880848&#45;&gt;281413784046416 -->
<g id="edge8" class="edge">
<title>281413781880848&#45;&gt;281413784046416</title>
<path fill="none" stroke="white" stroke-width="2.32" d="M55.8,-692.3C54.99,-707.24 56.24,-725.74 64.5,-740 70.2,-749.84 77.8,-758.63 86.36,-766.41"/>
<polygon fill="white" stroke="white" stroke-width="2.32" points="84.22,-769.18 94.11,-772.99 88.75,-763.85 84.22,-769.18"/>
<text text-anchor="middle" x="169.5" y="-728.8" font-family="Times,serif" font-size="14.00" fill="white">1,500,000 row(s)/23 chunk(s)</text>
</g>
<!-- 281413815369744 -->
<g id="node10" class="node">
<title>281413815369744</title>
<g id="a_node10"><a xlink:title="Output: 1500000 rows in 23 chunks, 59 µs 393 ns.">
<polygon fill="none" stroke="white" points="116,-572 3,-572 3,-458 116,-458 116,-572"/>
<text text-anchor="middle" x="59.5" y="-556.8" font-family="Times,serif" font-size="14.00" fill="white">GetTable</text>
<text text-anchor="middle" x="59.5" y="-541.8" font-family="Times,serif" font-size="14.00" fill="white">(customer)</text>
<text text-anchor="middle" x="59.5" y="-526.8" font-family="Times,serif" font-size="14.00" fill="white">pruned:</text>
<text text-anchor="middle" x="59.5" y="-511.8" font-family="Times,serif" font-size="14.00" fill="white">0/23 chunk(s)</text>
<text text-anchor="middle" x="59.5" y="-496.8" font-family="Times,serif" font-size="14.00" fill="white">5/8 column(s)</text>
<text text-anchor="middle" x="59.5" y="-465.8" font-family="Times,serif" font-size="14.00" fill="white">59 µs 393 ns</text>
</a>
</g>
</g>
<!-- 281413815369744&#45;&gt;281413781880848 -->
<g id="edge9" class="edge">
<title>281413815369744&#45;&gt;281413781880848</title>
<path fill="none" stroke="white" stroke-width="2.32" d="M59.5,-572.37C59.5,-590.87 59.5,-610.92 59.5,-627.54"/>
<polygon fill="white" stroke="white" stroke-width="2.32" points="56,-627.92 59.5,-637.92 63,-627.92 56,-627.92"/>
<text text-anchor="middle" x="164.5" y="-593.8" font-family="Times,serif" font-size="14.00" fill="white">1,500,000 row(s)/23 chunk(s)</text>
</g>
<!-- 281413781950480 -->
<g id="node11" class="node">
<title>281413781950480</title>
<g id="a_node11"><a xlink:title="Output: 1 row in 1 chunk, 2 ms 311 µs.&#10;Operator step runtimes:&#10; GroupByKeyPartitioning 32 ns&#10; Aggregating 2 ms 291 µs&#10; GroupByColumnsWriting 832 ns&#10; AggregateColumnsWriting 9 µs 88 ns&#10; OutputWriting 5 µs 88 ns.">
<polygon fill="none" stroke="white" stroke-width="2.91" points="362.5,-707 234.5,-707 234.5,-623 362.5,-623 362.5,-707"/>
<text text-anchor="middle" x="298.5" y="-691.8" font-family="Times,serif" font-size="14.00" fill="white">AggregateHash</text>
<text text-anchor="middle" x="298.5" y="-676.8" font-family="Times,serif" font-size="14.00" fill="white">GroupBy {}</text>
<text text-anchor="middle" x="298.5" y="-661.8" font-family="Times,serif" font-size="14.00" fill="white">AVG(c_acctbal)</text>
<text text-anchor="middle" x="298.5" y="-630.8" font-family="Times,serif" font-size="14.00" fill="white">2 ms 311 µs</text>
</a>
</g>
</g>
<!-- 281413781950480&#45;&gt;281413784046416 -->
<g id="edge10" class="edge">
<title>281413781950480&#45;&gt;281413784046416</title>
<path fill="none" stroke="white" stroke-dasharray="5,2" d="M290,-707.29C286.42,-718.57 281.42,-730.34 274.5,-740 267.67,-749.54 259.24,-758.38 250.2,-766.39"/>
<polygon fill="white" stroke="white" points="247.87,-763.78 242.5,-772.92 252.39,-769.13 247.87,-763.78"/>
<text text-anchor="middle" x="365" y="-728.8" font-family="Times,serif" font-size="14.00" fill="white">uncorrelated subquery</text>
</g>
<!-- 281413784046096 -->
<g id="node12" class="node">
<title>281413784046096</title>
<g id="a_node12"><a xlink:title="Output: 381642 rows in 23 chunks, 9 ms 281 µs.&#10;Chunks: 0 skipped with no results, &#10;0 skipped with all matching, 0 scanned using binary search.">
<polygon fill="none" stroke="white" stroke-width="6.34" points="483,-564.5 134,-564.5 134,-465.5 483,-465.5 483,-564.5"/>
<text text-anchor="middle" x="308.5" y="-549.3" font-family="Times,serif" font-size="14.00" fill="white">TableScan</text>
<text text-anchor="middle" x="308.5" y="-534.3" font-family="Times,serif" font-size="14.00" fill="white">Impl: ExpressionEvaluator</text>
<text text-anchor="middle" x="308.5" y="-519.3" font-family="Times,serif" font-size="14.00" fill="white">(SUBSTR(c_phone,1,2)) IN (&#39;31&#39;, &#39;16&#39;, &#39;18&#39;, &#39;17&#39;,</text>
<text text-anchor="middle" x="308.5" y="-504.3" font-family="Times,serif" font-size="14.00" fill="white">&#39;23&#39;, &#39;10&#39;, &#39;24&#39;)</text>
<text text-anchor="middle" x="308.5" y="-473.3" font-family="Times,serif" font-size="14.00" fill="white">9 ms 281 µs</text>
</a>
</g>
</g>
<!-- 281413784046096&#45;&gt;281413781950480 -->
<g id="edge11" class="edge">
<title>281413784046096&#45;&gt;281413781950480</title>
<path fill="none" stroke="white" d="M305.2,-564.87C304.17,-580.06 303.04,-596.85 302,-612.23"/>
<polygon fill="white" stroke="white" points="298.48,-612.4 301.3,-622.61 305.46,-612.87 298.48,-612.4"/>
<text text-anchor="middle" x="401.5" y="-593.8" font-family="Times,serif" font-size="14.00" fill="white">381,642 row(s)/23 chunk(s)</text>
</g>
<!-- 281413781885712 -->
<g id="node13" class="node">
<title>281413781885712</title>
<g id="a_node13"><a xlink:title="Output: 1363614 rows in 23 chunks, 70 µs 785 ns.">
<polygon fill="none" stroke="white" points="362.5,-407 254.5,-407 254.5,-353 362.5,-353 362.5,-407"/>
<text text-anchor="middle" x="308.5" y="-391.8" font-family="Times,serif" font-size="14.00" fill="white">Validate</text>
<text text-anchor="middle" x="308.5" y="-360.8" font-family="Times,serif" font-size="14.00" fill="white">70 µs 785 ns</text>
</a>
</g>
</g>
<!-- 281413781885712&#45;&gt;281413784046096 -->
<g id="edge12" class="edge">
<title>281413781885712&#45;&gt;281413784046096</title>
<path fill="none" stroke="white" stroke-width="2.09" d="M308.5,-407.28C308.5,-421.01 308.5,-438.4 308.5,-455.14"/>
<polygon fill="white" stroke="white" stroke-width="2.09" points="305,-455.44 308.5,-465.44 312,-455.44 305,-455.44"/>
<text text-anchor="middle" x="413.5" y="-428.8" font-family="Times,serif" font-size="14.00" fill="white">1,363,614 row(s)/23 chunk(s)</text>
</g>
<!-- 281413784044816 -->
<g id="node14" class="node">
<title>281413784044816</title>
<g id="a_node14"><a xlink:title="Output: 1363614 rows in 23 chunks, 287 µs 747 ns.&#10;Chunks: 0 skipped with no results, &#10;0 skipped with all matching, 0 scanned using binary search.">
<polygon fill="none" stroke="white" points="393,-302 224,-302 224,-218 393,-218 393,-302"/>
<text text-anchor="middle" x="308.5" y="-286.8" font-family="Times,serif" font-size="14.00" fill="white">TableScan</text>
<text text-anchor="middle" x="308.5" y="-271.8" font-family="Times,serif" font-size="14.00" fill="white">Impl: ColumnVsValue</text>
<text text-anchor="middle" x="308.5" y="-256.8" font-family="Times,serif" font-size="14.00" fill="white">c_acctbal &gt; 0</text>
<text text-anchor="middle" x="308.5" y="-225.8" font-family="Times,serif" font-size="14.00" fill="white">287 µs 747 ns</text>
</a>
</g>
</g>
<!-- 281413784044816&#45;&gt;281413781885712 -->
<g id="edge13" class="edge">
<title>281413784044816&#45;&gt;281413781885712</title>
<path fill="none" stroke="white" stroke-width="2.09" d="M308.5,-302.27C308.5,-315.36 308.5,-329.72 308.5,-342.45"/>
<polygon fill="white" stroke="white" stroke-width="2.09" points="305,-342.69 308.5,-352.69 312,-342.69 305,-342.69"/>
<text text-anchor="middle" x="413.5" y="-323.8" font-family="Times,serif" font-size="14.00" fill="white">1,363,614 row(s)/23 chunk(s)</text>
</g>
<!-- 281413815370192 -->
<g id="node15" class="node">
<title>281413815370192</title>
<g id="a_node15"><a xlink:title="Output: 1500000 rows in 23 chunks, 41 µs 345 ns.">
<polygon fill="none" stroke="white" points="365,-140.5 252,-140.5 252,-26.5 365,-26.5 365,-140.5"/>
<text text-anchor="middle" x="308.5" y="-125.3" font-family="Times,serif" font-size="14.00" fill="white">GetTable</text>
<text text-anchor="middle" x="308.5" y="-110.3" font-family="Times,serif" font-size="14.00" fill="white">(customer)</text>
<text text-anchor="middle" x="308.5" y="-95.3" font-family="Times,serif" font-size="14.00" fill="white">pruned:</text>
<text text-anchor="middle" x="308.5" y="-80.3" font-family="Times,serif" font-size="14.00" fill="white">0/23 chunk(s)</text>
<text text-anchor="middle" x="308.5" y="-65.3" font-family="Times,serif" font-size="14.00" fill="white">5/8 column(s)</text>
<text text-anchor="middle" x="308.5" y="-34.3" font-family="Times,serif" font-size="14.00" fill="white">41 µs 345 ns</text>
</a>
</g>
</g>
<!-- 281413815370192&#45;&gt;281413784044816 -->
<g id="edge14" class="edge">
<title>281413815370192&#45;&gt;281413784044816</title>
<path fill="none" stroke="white" stroke-width="2.32" d="M308.5,-140.67C308.5,-162.25 308.5,-186.74 308.5,-207.83"/>
<polygon fill="white" stroke="white" stroke-width="2.32" points="305,-207.87 308.5,-217.87 312,-207.87 305,-207.87"/>
<text text-anchor="middle" x="413.5" y="-188.8" font-family="Times,serif" font-size="14.00" fill="white">1,500,000 row(s)/23 chunk(s)</text>
</g>
<!-- 281413781885456 -->
<g id="node16" class="node">
<title>281413781885456</title>
<g id="a_node16"><a xlink:title="Output: 15000000 rows in 229 chunks, 662 µs 920 ns.">
<polygon fill="none" stroke="white" points="489,-999.5 372,-999.5 372,-945.5 489,-945.5 489,-999.5"/>
<text text-anchor="middle" x="430.5" y="-984.3" font-family="Times,serif" font-size="14.00" fill="white">Validate</text>
<text text-anchor="middle" x="430.5" y="-953.3" font-family="Times,serif" font-size="14.00" fill="white">662 µs 920 ns</text>
</a>
</g>
</g>
<!-- 281413781885456&#45;&gt;281413784048336 -->
<g id="edge15" class="edge">
<title>281413781885456&#45;&gt;281413784048336</title>
<path fill="none" stroke="white" stroke-width="8" d="M425.51,-999.86C421.11,-1017.18 413.19,-1039.42 399.5,-1055 395.83,-1059.17 391.74,-1063.07 387.38,-1066.69"/>
<polygon fill="white" stroke="white" stroke-width="8" points="379.25,-1072.92 391.44,-1072.39 387.18,-1066.84 379.25,-1072.92"/>
<text text-anchor="middle" x="523.5" y="-1043.8" font-family="Times,serif" font-size="14.00" fill="white">15,000,000 row(s)/229 chunk(s)</text>
</g>
<!-- 281413815370640 -->
<g id="node17" class="node">
<title>281413815370640</title>
<g id="a_node17"><a xlink:title="Output: 15000000 rows in 229 chunks, 233 µs 763 ns.">
<polygon fill="none" stroke="white" points="491.5,-872 369.5,-872 369.5,-758 491.5,-758 491.5,-872"/>
<text text-anchor="middle" x="430.5" y="-856.8" font-family="Times,serif" font-size="14.00" fill="white">GetTable</text>
<text text-anchor="middle" x="430.5" y="-841.8" font-family="Times,serif" font-size="14.00" fill="white">(orders)</text>
<text text-anchor="middle" x="430.5" y="-826.8" font-family="Times,serif" font-size="14.00" fill="white">pruned:</text>
<text text-anchor="middle" x="430.5" y="-811.8" font-family="Times,serif" font-size="14.00" fill="white">0/229 chunk(s)</text>
<text text-anchor="middle" x="430.5" y="-796.8" font-family="Times,serif" font-size="14.00" fill="white">8/9 column(s)</text>
<text text-anchor="middle" x="430.5" y="-765.8" font-family="Times,serif" font-size="14.00" fill="white">233 µs 763 ns</text>
</a>
</g>
</g>
<!-- 281413815370640&#45;&gt;281413781885456 -->
<g id="edge16" class="edge">
<title>281413815370640&#45;&gt;281413781885456</title>
<path fill="none" stroke="white" stroke-width="8" d="M430.5,-872.14C430.5,-893.18 430.5,-916.52 430.5,-935.28"/>
<polygon fill="white" stroke="white" stroke-width="8" points="423.5,-935.47 430.5,-945.47 437.5,-935.47 423.5,-935.47"/>
<text text-anchor="middle" x="544.5" y="-893.8" font-family="Times,serif" font-size="14.00" fill="white">15,000,000 row(s)/229 chunk(s)</text>
</g>
<!-- 0 -->
<g id="node18" class="node">
<title>0</title>
<polygon fill="none" stroke="white" points="383,-0.5 383,-166.5 724,-166.5 724,-0.5 383,-0.5"/>
<text text-anchor="middle" x="553.5" y="-151.3" font-family="Times,serif" font-size="14.00" fill="white">Total by operator</text>
<polyline fill="none" stroke="white" points="383,-143.5 724,-143.5 "/>
<text text-anchor="end" x="537" y="-128.3" font-family="Times,serif" font-size="14.00" fill="white">JoinSimdSortMerge </text>
<text text-anchor="end" x="537" y="-113.3" font-family="Times,serif" font-size="14.00" fill="white"> TableScan </text>
<text text-anchor="end" x="537" y="-98.3" font-family="Times,serif" font-size="14.00" fill="white"> AggregateHash </text>
<text text-anchor="end" x="537" y="-83.3" font-family="Times,serif" font-size="14.00" fill="white"> Projection </text>
<text text-anchor="end" x="537" y="-68.3" font-family="Times,serif" font-size="14.00" fill="white"> Validate </text>
<text text-anchor="end" x="537" y="-53.3" font-family="Times,serif" font-size="14.00" fill="white"> GetTable </text>
<text text-anchor="end" x="537" y="-38.3" font-family="Times,serif" font-size="14.00" fill="white"> Alias </text>
<text text-anchor="end" x="537" y="-23.3" font-family="Times,serif" font-size="14.00" fill="white"> Sort </text>
<text text-anchor="end" x="537" y="-8.3" font-family="Times,serif" font-size="14.00" fill="white">total</text>
<polyline fill="none" stroke="white" points="545,-0.5 545,-143.5 "/>
<text text-anchor="start" x="553" y="-128.3" font-family="Times,serif" font-size="14.00" fill="white">18 ms 170 µs </text>
<text text-anchor="start" x="553" y="-113.3" font-family="Times,serif" font-size="14.00" fill="white"> 14 ms 991 µs </text>
<text text-anchor="start" x="553" y="-98.3" font-family="Times,serif" font-size="14.00" fill="white"> 9 ms 346 µs </text>
<text text-anchor="start" x="553" y="-83.3" font-family="Times,serif" font-size="14.00" fill="white"> 945 µs 548 ns </text>
<text text-anchor="start" x="553" y="-68.3" font-family="Times,serif" font-size="14.00" fill="white"> 799 µs 306 ns </text>
<text text-anchor="start" x="553" y="-53.3" font-family="Times,serif" font-size="14.00" fill="white"> 334 µs 501 ns </text>
<text text-anchor="start" x="553" y="-38.3" font-family="Times,serif" font-size="14.00" fill="white"> 34 µs 241 ns </text>
<text text-anchor="start" x="553" y="-23.3" font-family="Times,serif" font-size="14.00" fill="white"> 16 µs 64 ns </text>
<text text-anchor="start" x="553" y="-8.3" font-family="Times,serif" font-size="14.00" fill="white"> 44 ms 636 µs </text>
<polyline fill="none" stroke="white" points="671,-0.5 671,-143.5 "/>
<text text-anchor="start" x="679" y="-128.3" font-family="Times,serif" font-size="14.00" fill="white">41 %</text>
<text text-anchor="start" x="679" y="-113.3" font-family="Times,serif" font-size="14.00" fill="white">34 %</text>
<text text-anchor="start" x="679" y="-98.3" font-family="Times,serif" font-size="14.00" fill="white">21 %</text>
<text text-anchor="start" x="679" y="-83.3" font-family="Times,serif" font-size="14.00" fill="white">2 %</text>
<text text-anchor="start" x="679" y="-68.3" font-family="Times,serif" font-size="14.00" fill="white">2 %</text>
<text text-anchor="start" x="679" y="-53.3" font-family="Times,serif" font-size="14.00" fill="white">1 %</text>
<text text-anchor="start" x="679" y="-38.3" font-family="Times,serif" font-size="14.00" fill="white">0 %</text>
<text text-anchor="start" x="679" y="-23.3" font-family="Times,serif" font-size="14.00" fill="white">0 %</text>
<text text-anchor="start" x="679" y="-8.3" font-family="Times,serif" font-size="14.00" fill="white"> </text>
</g>
</g>
</svg>
