<?xml version="1.0" encoding="UTF-8" standalone="no"?>
<!DOCTYPE svg PUBLIC "-//W3C//DTD SVG 1.1//EN"
 "http://www.w3.org/Graphics/SVG/1.1/DTD/svg11.dtd">
<!-- Generated by graphviz version 2.43.0 (0)
 -->
<!-- Title: G Pages: 1 -->
<svg width="950pt" height="2579pt"
 viewBox="0.00 0.00 950.00 2579.00" xmlns="http://www.w3.org/2000/svg" xmlns:xlink="http://www.w3.org/1999/xlink">
<g id="graph0" class="graph" transform="scale(1 1) rotate(0) translate(4 2575)">
<title>G</title>
<polygon fill="black" stroke="transparent" points="-4,4 -4,-2575 946,-2575 946,4 -4,4"/>
<text text-anchor="middle" x="319.5" y="-2555.8" font-family="Times,serif" font-size="14.00" fill="white">For tooltips with advanced information, hover your mouse over vertices or edge labels.</text>
<!-- 281392304407056 -->
<g id="node1" class="node">
<title>281392304407056</title>
<g id="a_node1"><a xlink:title="Output: 1796 rows in 1 chunk, 5 µs 24 ns.&#10;Operator step runtimes:&#10; ForwardUnmodifiedColumns 1 µs 504 ns&#10; EvaluateNewColumns 256 ns&#10; BuildOutput 1 µs 952 ns.">
<polygon fill="none" stroke="white" points="415,-2516 325,-2516 325,-2462 415,-2462 415,-2516"/>
<text text-anchor="middle" x="370" y="-2500.8" font-family="Times,serif" font-size="14.00" fill="white">Projection</text>
<text text-anchor="middle" x="370" y="-2469.8" font-family="Times,serif" font-size="14.00" fill="white">5 µs 24 ns</text>
</a>
</g>
</g>
<!-- 281392304406736 -->
<g id="node2" class="node">
<title>281392304406736</title>
<g id="a_node2"><a xlink:title="Output: 1796 rows in 1 chunk, 1 ms 632 µs.&#10;Operator step runtimes:&#10; MaterializeSortColumns 988 µs 716 ns&#10; Sort 592 µs 775 ns&#10; TemporaryResultWriting 3 µs 840 ns&#10; WriteOutput 27 µs 200 ns.">
<polygon fill="none" stroke="white" points="422,-2411 318,-2411 318,-2357 422,-2357 422,-2411"/>
<text text-anchor="middle" x="370" y="-2395.8" font-family="Times,serif" font-size="14.00" fill="white">Sort</text>
<text text-anchor="middle" x="370" y="-2364.8" font-family="Times,serif" font-size="14.00" fill="white">1 ms 632 µs</text>
</a>
</g>
</g>
<!-- 281392304406736&#45;&gt;281392304407056 -->
<g id="edge1" class="edge">
<title>281392304406736&#45;&gt;281392304407056</title>
<path fill="none" stroke="white" d="M370,-2411.26C370,-2423.49 370,-2438.24 370,-2451.52"/>
<polygon fill="white" stroke="white" points="366.5,-2451.79 370,-2461.79 373.5,-2451.79 366.5,-2451.79"/>
<text text-anchor="middle" x="454.5" y="-2432.8" font-family="Times,serif" font-size="14.00" fill="white">1,796 row(s)/1 chunk(s)</text>
</g>
<!-- 281392304388816 -->
<g id="node3" class="node">
<title>281392304388816</title>
<g id="a_node3"><a xlink:title="Output: 1796 rows in 1 chunk, 1 ms 673 µs.&#10;Operator step runtimes:&#10; LeftSideMaterialize 209 µs 251 ns&#10; RightSideMaterialize 1 µs 504 ns&#10; LeftSideTransform 0 ns&#10; RightSideTransform 0 ns&#10; LeftSidePartition 288 µs 643 ns&#10; RightSidePartition 6 µs 944 ns&#10; LeftSideSortBuckets 461 µs 542 ns&#10; RightSideSortBuckets 445 µs 382 ns&#10; GatherRowIds 352 ns&#10; FindJoinPartner 51 µs 649 ns&#10; OutputWriting 95 µs 297 ns.">
<polygon fill="none" stroke="white" points="474.5,-2306 265.5,-2306 265.5,-2237 474.5,-2237 474.5,-2306"/>
<text text-anchor="middle" x="370" y="-2290.8" font-family="Times,serif" font-size="14.00" fill="white">JoinSimdSortMerge (Semi)</text>
<text text-anchor="middle" x="370" y="-2275.8" font-family="Times,serif" font-size="14.00" fill="white">s_nationkey = n_nationkey</text>
<text text-anchor="middle" x="370" y="-2244.8" font-family="Times,serif" font-size="14.00" fill="white">1 ms 673 µs</text>
</a>
</g>
</g>
<!-- 281392304388816&#45;&gt;281392304406736 -->
<g id="edge2" class="edge">
<title>281392304388816&#45;&gt;281392304406736</title>
<path fill="none" stroke="white" d="M370,-2306.25C370,-2319.07 370,-2333.73 370,-2346.77"/>
<polygon fill="white" stroke="white" points="366.5,-2346.81 370,-2356.81 373.5,-2346.81 366.5,-2346.81"/>
<text text-anchor="middle" x="454.5" y="-2327.8" font-family="Times,serif" font-size="14.00" fill="white">1,796 row(s)/1 chunk(s)</text>
</g>
<!-- 281392298667536 -->
<g id="node4" class="node">
<title>281392298667536</title>
<g id="a_node4"><a xlink:title="Output: 44415 rows in 82 chunks, 260 µs 483 ns.">
<polygon fill="none" stroke="white" points="522.5,-2114 405.5,-2114 405.5,-2060 522.5,-2060 522.5,-2114"/>
<text text-anchor="middle" x="464" y="-2098.8" font-family="Times,serif" font-size="14.00" fill="white">Validate</text>
<text text-anchor="middle" x="464" y="-2067.8" font-family="Times,serif" font-size="14.00" fill="white">260 µs 483 ns</text>
</a>
</g>
</g>
<!-- 281392298667536&#45;&gt;281392304388816 -->
<g id="edge3" class="edge">
<title>281392298667536&#45;&gt;281392304388816</title>
<path fill="none" stroke="white" d="M464.44,-2114.12C463.74,-2142.1 459.14,-2186.81 439,-2219 436.73,-2222.64 434.09,-2226.1 431.21,-2229.39"/>
<polygon fill="white" stroke="white" points="431.05,-2229.56 428.54,-2227.13 424.1,-2236.75 431.05,-2229.56"/>
<text text-anchor="middle" x="557.5" y="-2155.3" font-family="Times,serif" font-size="14.00" fill="white">44,415 row(s)/82 chunk(s)</text>
</g>
<!-- 281392304387856 -->
<g id="node5" class="node">
<title>281392304387856</title>
<g id="a_node5"><a xlink:title="Output: 44415 rows in 82 chunks, 5 ms 909 µs.&#10;Operator step runtimes:&#10; LeftSideMaterialize 143 µs 234 ns&#10; RightSideMaterialize 1 ms 545 µs&#10; LeftSideTransform 0 ns&#10; RightSideTransform 0 ns&#10; LeftSidePartition 1 ms 251 µs&#10; RightSidePartition 1 ms 8 µs&#10; LeftSideSortBuckets 427 µs 365 ns&#10; RightSideSortBuckets 452 µs 197 ns&#10; GatherRowIds 416 ns&#10; FindJoinPartner 493 µs 990 ns&#10; OutputWriting 381 µs 956 ns.">
<polygon fill="none" stroke="white" points="493.5,-1914.5 284.5,-1914.5 284.5,-1845.5 493.5,-1845.5 493.5,-1914.5"/>
<text text-anchor="middle" x="389" y="-1899.3" font-family="Times,serif" font-size="14.00" fill="white">JoinSimdSortMerge (Semi)</text>
<text text-anchor="middle" x="389" y="-1884.3" font-family="Times,serif" font-size="14.00" fill="white">s_suppkey = ps_suppkey</text>
<text text-anchor="middle" x="389" y="-1853.3" font-family="Times,serif" font-size="14.00" fill="white">5 ms 909 µs</text>
</a>
</g>
</g>
<!-- 281392304387856&#45;&gt;281392298667536 -->
<g id="edge4" class="edge">
<title>281392304387856&#45;&gt;281392298667536</title>
<path fill="none" stroke="white" d="M426.69,-1914.51C433.43,-1922.24 439.68,-1930.89 444,-1940 460.49,-1974.73 464.51,-2019 465.02,-2049.64"/>
<polygon fill="white" stroke="white" points="461.52,-2049.89 465.07,-2059.87 468.52,-2049.85 461.52,-2049.89"/>
<text text-anchor="middle" x="543.5" y="-1943.8" font-family="Times,serif" font-size="14.00" fill="white">44,415 row(s)/82 chunk(s)</text>
</g>
<!-- 281392304388496 -->
<g id="node24" class="node">
<title>281392304388496</title>
<g id="a_node24"><a xlink:title="Output: 1 row in 1 chunk, 1 ms 800 µs.&#10;Operator step runtimes:&#10; LeftSideMaterialize 4 µs 640 ns&#10; RightSideMaterialize 454 µs 789 ns&#10; LeftSideTransform 0 ns&#10; RightSideTransform 0 ns&#10; LeftSidePartition 8 µs 384 ns&#10; RightSidePartition 277 µs 284 ns&#10; LeftSideSortBuckets 431 µs 142 ns&#10; RightSideSortBuckets 449 µs 93 ns&#10; GatherRowIds 448 ns&#10; FindJoinPartner 45 µs 824 ns&#10; OutputWriting 10 µs 688 ns.">
<polygon fill="none" stroke="white" points="398.5,-2042 113.5,-2042 113.5,-1973 398.5,-1973 398.5,-2042"/>
<text text-anchor="middle" x="256" y="-2026.8" font-family="Times,serif" font-size="14.00" fill="white">JoinSimdSortMerge (Semi Reduction)</text>
<text text-anchor="middle" x="256" y="-2011.8" font-family="Times,serif" font-size="14.00" fill="white">n_nationkey = s_nationkey</text>
<text text-anchor="middle" x="256" y="-1980.8" font-family="Times,serif" font-size="14.00" fill="white">1 ms 800 µs</text>
</a>
</g>
</g>
<!-- 281392304387856&#45;&gt;281392304388496 -->
<g id="edge5" class="edge">
<title>281392304387856&#45;&gt;281392304388496</title>
<path fill="none" stroke="white" d="M284.5,-1913.13C273.71,-1920.37 264.11,-1929.21 257,-1940 252.58,-1946.71 250.49,-1954.69 249.78,-1962.75"/>
<polygon fill="white" stroke="white" points="249.57,-1972.91 253.28,-1962.99 249.78,-1962.92 249.57,-1972.91"/>
<text text-anchor="middle" x="350.5" y="-1943.8" font-family="Times,serif" font-size="14.00" fill="white">44,415 row(s)/82 chunk(s)</text>
</g>
<!-- 281392388592208 -->
<g id="node6" class="node">
<title>281392388592208</title>
<g id="a_node6"><a xlink:title="Output: 100000 rows in 2 chunks, 9 µs 824 ns.">
<polygon fill="none" stroke="white" points="593.5,-1787 480.5,-1787 480.5,-1673 593.5,-1673 593.5,-1787"/>
<text text-anchor="middle" x="537" y="-1771.8" font-family="Times,serif" font-size="14.00" fill="white">GetTable</text>
<text text-anchor="middle" x="537" y="-1756.8" font-family="Times,serif" font-size="14.00" fill="white">(supplier)</text>
<text text-anchor="middle" x="537" y="-1741.8" font-family="Times,serif" font-size="14.00" fill="white">pruned:</text>
<text text-anchor="middle" x="537" y="-1726.8" font-family="Times,serif" font-size="14.00" fill="white">0/2 chunk(s)</text>
<text text-anchor="middle" x="537" y="-1711.8" font-family="Times,serif" font-size="14.00" fill="white">3/7 column(s)</text>
<text text-anchor="middle" x="537" y="-1680.8" font-family="Times,serif" font-size="14.00" fill="white">9 µs 824 ns</text>
</a>
</g>
</g>
<!-- 281392388592208&#45;&gt;281392304387856 -->
<g id="edge6" class="edge">
<title>281392388592208&#45;&gt;281392304387856</title>
<path fill="none" stroke="white" d="M531.05,-1787.26C527.74,-1799.01 522.68,-1810.65 515,-1820 508.98,-1827.33 501.83,-1833.81 494.06,-1839.51"/>
<polygon fill="white" stroke="white" points="493.67,-1839.78 491.7,-1836.88 485.4,-1845.4 493.67,-1839.78"/>
<text text-anchor="middle" x="617.5" y="-1808.8" font-family="Times,serif" font-size="14.00" fill="white">100,000 row(s)/2 chunk(s)</text>
</g>
<!-- 281392304387536 -->
<g id="node7" class="node">
<title>281392304387536</title>
<g id="a_node7"><a xlink:title="Output: 58496 rows in 86 chunks, 48 µs 1 ns.&#10;Operator step runtimes:&#10; ForwardUnmodifiedColumns 20 µs 896 ns&#10; EvaluateNewColumns 128 ns&#10; BuildOutput 17 µs 408 ns.">
<polygon fill="none" stroke="white" points="372,-1757 282,-1757 282,-1703 372,-1703 372,-1757"/>
<text text-anchor="middle" x="327" y="-1741.8" font-family="Times,serif" font-size="14.00" fill="white">Projection</text>
<text text-anchor="middle" x="327" y="-1710.8" font-family="Times,serif" font-size="14.00" fill="white">48 µs 1 ns</text>
</a>
</g>
</g>
<!-- 281392304387536&#45;&gt;281392304387856 -->
<g id="edge7" class="edge">
<title>281392304387536&#45;&gt;281392304387856</title>
<path fill="none" stroke="white" d="M322.16,-1757.02C319.95,-1775.38 319.44,-1800.13 328,-1820 330.7,-1826.27 334.43,-1832.21 338.71,-1837.72"/>
<polygon fill="white" stroke="white" points="345.34,-1845.49 341.51,-1835.62 338.85,-1837.89 345.34,-1845.49"/>
<text text-anchor="middle" x="421.5" y="-1808.8" font-family="Times,serif" font-size="14.00" fill="white">58,496 row(s)/86 chunk(s)</text>
</g>
<!-- 281392304380496 -->
<g id="node8" class="node">
<title>281392304380496</title>
<g id="a_node8"><a xlink:title="Output: 58496 rows in 86 chunks, 30 ms 917 µs.&#10;Operator step runtimes:&#10; LeftSideMaterialize 1 ms 715 µs&#10; RightSideMaterialize 3 ms 809 µs&#10; LeftSideTransform 0 ns&#10; RightSideTransform 0 ns&#10; LeftSidePartition 1 ms 584 µs&#10; RightSidePartition 1 ms 15 µs&#10; LeftSideSortBuckets 431 µs 877 ns&#10; RightSideSortBuckets 452 µs 69 ns&#10; GatherRowIds 352 ns&#10; FindJoinPartner 21 ms 164 µs&#10; OutputWriting 547 µs 174 ns.">
<polygon fill="none" stroke="white" stroke-width="4.72" points="482.5,-1622 171.5,-1622 171.5,-1523 482.5,-1523 482.5,-1622"/>
<text text-anchor="middle" x="327" y="-1606.8" font-family="Times,serif" font-size="14.00" fill="white">JoinSimdSortMerge (Semi)</text>
<text text-anchor="middle" x="327" y="-1591.8" font-family="Times,serif" font-size="14.00" fill="white">ps_suppkey = l_suppkey</text>
<text text-anchor="middle" x="327" y="-1576.8" font-family="Times,serif" font-size="14.00" fill="white">AND ps_availqty &gt; 0.5 * SUM(l_quantity)</text>
<text text-anchor="middle" x="327" y="-1561.8" font-family="Times,serif" font-size="14.00" fill="white">AND ps_partkey = l_partkey</text>
<text text-anchor="middle" x="327" y="-1530.8" font-family="Times,serif" font-size="14.00" fill="white">30 ms 917 µs</text>
</a>
</g>
</g>
<!-- 281392304380496&#45;&gt;281392304387536 -->
<g id="edge8" class="edge">
<title>281392304380496&#45;&gt;281392304387536</title>
<path fill="none" stroke="white" d="M327,-1622.27C327,-1644.98 327,-1671.53 327,-1692.47"/>
<polygon fill="white" stroke="white" points="323.5,-1692.56 327,-1702.56 330.5,-1692.56 323.5,-1692.56"/>
<text text-anchor="middle" x="420.5" y="-1643.8" font-family="Times,serif" font-size="14.00" fill="white">58,496 row(s)/86 chunk(s)</text>
</g>
<!-- 281392298668816 -->
<g id="node9" class="node">
<title>281392298668816</title>
<g id="a_node9"><a xlink:title="Output: 86500 rows in 128 chunks, 426 µs 342 ns.">
<polygon fill="none" stroke="white" points="415.5,-849.5 298.5,-849.5 298.5,-795.5 415.5,-795.5 415.5,-849.5"/>
<text text-anchor="middle" x="357" y="-834.3" font-family="Times,serif" font-size="14.00" fill="white">Validate</text>
<text text-anchor="middle" x="357" y="-803.3" font-family="Times,serif" font-size="14.00" fill="white">426 µs 342 ns</text>
</a>
</g>
</g>
<!-- 281392298668816&#45;&gt;281392304380496 -->
<g id="edge9" class="edge">
<title>281392298668816&#45;&gt;281392304380496</title>
<path fill="none" stroke="white" d="M342.19,-849.58C328.74,-875.76 311,-917.65 311,-956.5 311,-956.5 311,-956.5 311,-1446 311,-1467.9 313.43,-1491.77 316.39,-1512.76"/>
<polygon fill="white" stroke="white" points="316.41,-1512.92 312.95,-1513.43 317.88,-1522.81 316.41,-1512.92"/>
<text text-anchor="middle" x="409" y="-1186.3" font-family="Times,serif" font-size="14.00" fill="white">86,500 row(s)/128 chunk(s)</text>
</g>
<!-- 281392304379536 -->
<g id="node19" class="node">
<title>281392304379536</title>
<g id="a_node19"><a xlink:title="Output: 97988 rows in 128 chunks, 13 ms 878 µs.&#10;Operator step runtimes:&#10; LeftSideMaterialize 6 ms 441 µs&#10; RightSideMaterialize 1 ms 746 µs&#10; LeftSideTransform 0 ns&#10; RightSideTransform 0 ns&#10; LeftSidePartition 1 ms 830 µs&#10; RightSidePartition 1 ms 552 µs&#10; LeftSideSortBuckets 431 µs 877 ns&#10; RightSideSortBuckets 432 µs 38 ns&#10; GatherRowIds 512 ns&#10; FindJoinPartner 508 µs 294 ns&#10; OutputWriting 704 µs 713 ns.">
<polygon fill="none" stroke="white" stroke-width="2.75" points="726.5,-1112 441.5,-1112 441.5,-1043 726.5,-1043 726.5,-1112"/>
<text text-anchor="middle" x="584" y="-1096.8" font-family="Times,serif" font-size="14.00" fill="white">JoinSimdSortMerge (Semi Reduction)</text>
<text text-anchor="middle" x="584" y="-1081.8" font-family="Times,serif" font-size="14.00" fill="white">l_suppkey = ps_suppkey</text>
<text text-anchor="middle" x="584" y="-1050.8" font-family="Times,serif" font-size="14.00" fill="white">13 ms 878 µs</text>
</a>
</g>
</g>
<!-- 281392298668816&#45;&gt;281392304379536 -->
<g id="edge11" class="edge">
<title>281392298668816&#45;&gt;281392304379536</title>
<path fill="none" stroke="white" d="M350.55,-849.76C343.38,-885.57 336.47,-950.07 367,-992 383.37,-1014.49 406.62,-1030.99 431.86,-1043.1"/>
<polygon fill="white" stroke="white" points="441.24,-1047.37 433.59,-1040.04 432.14,-1043.23 441.24,-1047.37"/>
<text text-anchor="middle" x="465" y="-953.8" font-family="Times,serif" font-size="14.00" fill="white">86,500 row(s)/128 chunk(s)</text>
</g>
<!-- 281392304379216 -->
<g id="node20" class="node">
<title>281392304379216</title>
<g id="a_node20"><a xlink:title="Output: 97988 rows in 128 chunks, 17 ms 216 µs.&#10;Operator step runtimes:&#10; LeftSideMaterialize 3 ms 472 µs&#10; RightSideMaterialize 1 ms 454 µs&#10; LeftSideTransform 0 ns&#10; RightSideTransform 0 ns&#10; LeftSidePartition 3 ms 834 µs&#10; RightSidePartition 1 ms 517 µs&#10; LeftSideSortBuckets 2 ms 929 µs&#10; RightSideSortBuckets 438 µs 150 ns&#10; GatherRowIds 1 µs 152 ns&#10; FindJoinPartner 618 µs 759 ns&#10; OutputWriting 1 ms 990 µs.">
<polygon fill="none" stroke="white" stroke-width="3.28" points="856.5,-992 571.5,-992 571.5,-923 856.5,-923 856.5,-992"/>
<text text-anchor="middle" x="714" y="-976.8" font-family="Times,serif" font-size="14.00" fill="white">JoinSimdSortMerge (Semi Reduction)</text>
<text text-anchor="middle" x="714" y="-961.8" font-family="Times,serif" font-size="14.00" fill="white">l_partkey = ps_partkey</text>
<text text-anchor="middle" x="714" y="-930.8" font-family="Times,serif" font-size="14.00" fill="white">17 ms 216 µs</text>
</a>
</g>
</g>
<!-- 281392298668816&#45;&gt;281392304379216 -->
<g id="edge10" class="edge">
<title>281392298668816&#45;&gt;281392304379216</title>
<path fill="none" stroke="white" d="M400.76,-849.64C431.58,-867.19 474.27,-889.8 514,-905 529.11,-910.78 545.11,-916.13 561.22,-921.01"/>
<polygon fill="white" stroke="white" points="571.26,-923.99 562.66,-917.79 561.67,-921.14 571.26,-923.99"/>
<text text-anchor="middle" x="612" y="-893.8" font-family="Times,serif" font-size="14.00" fill="white">86,500 row(s)/128 chunk(s)</text>
</g>
<!-- 281392304377616 -->
<g id="node10" class="node">
<title>281392304377616</title>
<g id="a_node10"><a xlink:title="Output: 86500 rows in 128 chunks, 9 ms 25 µs.&#10;Operator step runtimes:&#10; LeftSideMaterialize 553 µs 479 ns&#10; RightSideMaterialize 114 µs 849 ns&#10; LeftSideTransform 0 ns&#10; RightSideTransform 0 ns&#10; LeftSidePartition 2 ms 324 µs&#10; RightSidePartition 911 µs 563 ns&#10; LeftSideSortBuckets 2 ms 816 µs&#10; RightSideSortBuckets 432 µs 389 ns&#10; GatherRowIds 1 µs 152 ns&#10; FindJoinPartner 480 µs 262 ns&#10; OutputWriting 645 µs 832 ns.">
<polygon fill="none" stroke="white" stroke-width="1.69" points="461.5,-699.5 252.5,-699.5 252.5,-630.5 461.5,-630.5 461.5,-699.5"/>
<text text-anchor="middle" x="357" y="-684.3" font-family="Times,serif" font-size="14.00" fill="white">JoinSimdSortMerge (Semi)</text>
<text text-anchor="middle" x="357" y="-669.3" font-family="Times,serif" font-size="14.00" fill="white">ps_partkey = p_partkey</text>
<text text-anchor="middle" x="357" y="-638.3" font-family="Times,serif" font-size="14.00" fill="white">9 ms 25 µs</text>
</a>
</g>
</g>
<!-- 281392304377616&#45;&gt;281392298668816 -->
<g id="edge12" class="edge">
<title>281392304377616&#45;&gt;281392298668816</title>
<path fill="none" stroke="white" d="M357,-699.74C357,-724.86 357,-759.13 357,-784.91"/>
<polygon fill="white" stroke="white" points="353.5,-785.03 357,-795.03 360.5,-785.03 353.5,-785.03"/>
<text text-anchor="middle" x="455" y="-743.8" font-family="Times,serif" font-size="14.00" fill="white">86,500 row(s)/128 chunk(s)</text>
</g>
<!-- 281392388585936 -->
<g id="node11" class="node">
<title>281392388585936</title>
<g id="a_node11"><a xlink:title="Output: 8000000 rows in 123 chunks, 315 µs 556 ns.">
<polygon fill="none" stroke="white" points="297,-557 175,-557 175,-443 297,-443 297,-557"/>
<text text-anchor="middle" x="236" y="-541.8" font-family="Times,serif" font-size="14.00" fill="white">GetTable</text>
<text text-anchor="middle" x="236" y="-526.8" font-family="Times,serif" font-size="14.00" fill="white">(partsupp)</text>
<text text-anchor="middle" x="236" y="-511.8" font-family="Times,serif" font-size="14.00" fill="white">pruned:</text>
<text text-anchor="middle" x="236" y="-496.8" font-family="Times,serif" font-size="14.00" fill="white">0/123 chunk(s)</text>
<text text-anchor="middle" x="236" y="-481.8" font-family="Times,serif" font-size="14.00" fill="white">2/5 column(s)</text>
<text text-anchor="middle" x="236" y="-450.8" font-family="Times,serif" font-size="14.00" fill="white">315 µs 556 ns</text>
</a>
</g>
</g>
<!-- 281392388585936&#45;&gt;281392304377616 -->
<g id="edge13" class="edge">
<title>281392388585936&#45;&gt;281392304377616</title>
<path fill="none" stroke="white" stroke-width="3.03" d="M228.29,-557.36C228.98,-568.73 231.45,-580.18 237,-590 244.66,-603.54 255.92,-614.93 268.51,-624.38"/>
<polygon fill="white" stroke="white" stroke-width="3.03" points="268.78,-624.57 266.76,-627.43 276.95,-630.32 268.78,-624.57"/>
<text text-anchor="middle" x="346.5" y="-578.8" font-family="Times,serif" font-size="14.00" fill="white">8,000,000 row(s)/123 chunk(s)</text>
</g>
<!-- 281392304376656 -->
<g id="node12" class="node">
<title>281392304376656</title>
<g id="a_node12"><a xlink:title="Output: 21625 rows in 31 chunks, 27 µs 168 ns.&#10;Operator step runtimes:&#10; ForwardUnmodifiedColumns 8 µs 544 ns&#10; EvaluateNewColumns 320 ns&#10; BuildOutput 10 µs 720 ns.">
<polygon fill="none" stroke="white" points="532,-527 424,-527 424,-473 532,-473 532,-527"/>
<text text-anchor="middle" x="478" y="-511.8" font-family="Times,serif" font-size="14.00" fill="white">Projection</text>
<text text-anchor="middle" x="478" y="-480.8" font-family="Times,serif" font-size="14.00" fill="white">27 µs 168 ns</text>
</a>
</g>
</g>
<!-- 281392304376656&#45;&gt;281392304377616 -->
<g id="edge14" class="edge">
<title>281392304376656&#45;&gt;281392304377616</title>
<path fill="none" stroke="white" d="M476.23,-527.02C473.89,-545.84 468.49,-571.16 456,-590 447.49,-602.84 435.96,-614.29 423.79,-624.13"/>
<polygon fill="white" stroke="white" points="415.72,-630.36 425.78,-627.02 423.64,-624.25 415.72,-630.36"/>
<text text-anchor="middle" x="557.5" y="-578.8" font-family="Times,serif" font-size="14.00" fill="white">21,625 row(s)/31 chunk(s)</text>
</g>
<!-- 281392298668048 -->
<g id="node13" class="node">
<title>281392298668048</title>
<g id="a_node13"><a xlink:title="Output: 21625 rows in 31 chunks, 65 µs 569 ns.">
<polygon fill="none" stroke="white" points="532,-392 424,-392 424,-338 532,-338 532,-392"/>
<text text-anchor="middle" x="478" y="-376.8" font-family="Times,serif" font-size="14.00" fill="white">Validate</text>
<text text-anchor="middle" x="478" y="-345.8" font-family="Times,serif" font-size="14.00" fill="white">65 µs 569 ns</text>
</a>
</g>
</g>
<!-- 281392298668048&#45;&gt;281392304376656 -->
<g id="edge15" class="edge">
<title>281392298668048&#45;&gt;281392304376656</title>
<path fill="none" stroke="white" d="M478,-392.28C478,-412.41 478,-440.41 478,-462.68"/>
<polygon fill="white" stroke="white" points="474.5,-462.78 478,-472.78 481.5,-462.78 474.5,-462.78"/>
<text text-anchor="middle" x="571.5" y="-413.8" font-family="Times,serif" font-size="14.00" fill="white">21,625 row(s)/31 chunk(s)</text>
</g>
<!-- 281392304378256 -->
<g id="node14" class="node">
<title>281392304378256</title>
<g id="a_node14"><a xlink:title="Output: 21625 rows in 31 chunks, 172 µs 98 ns.&#10;Chunks: 0 skipped with no results, &#10;0 skipped with all matching, 0 scanned using binary search.">
<polygon fill="none" stroke="white" points="700.5,-287 255.5,-287 255.5,-203 700.5,-203 700.5,-287"/>
<text text-anchor="middle" x="478" y="-271.8" font-family="Times,serif" font-size="14.00" fill="white">TableScan</text>
<text text-anchor="middle" x="478" y="-256.8" font-family="Times,serif" font-size="14.00" fill="white">Impl: ColumnBetween</text>
<text text-anchor="middle" x="478" y="-241.8" font-family="Times,serif" font-size="14.00" fill="white">p_name BETWEEN UPPER EXCLUSIVE &#39;ghost&#39; AND &#39;ghosu&#39;</text>
<text text-anchor="middle" x="478" y="-210.8" font-family="Times,serif" font-size="14.00" fill="white">172 µs 98 ns</text>
</a>
</g>
</g>
<!-- 281392304378256&#45;&gt;281392298668048 -->
<g id="edge16" class="edge">
<title>281392304378256&#45;&gt;281392298668048</title>
<path fill="none" stroke="white" d="M478,-287.27C478,-300.36 478,-314.72 478,-327.45"/>
<polygon fill="white" stroke="white" points="474.5,-327.69 478,-337.69 481.5,-327.69 474.5,-327.69"/>
<text text-anchor="middle" x="571.5" y="-308.8" font-family="Times,serif" font-size="14.00" fill="white">21,625 row(s)/31 chunk(s)</text>
</g>
<!-- 281392388586384 -->
<g id="node15" class="node">
<title>281392388586384</title>
<g id="a_node15"><a xlink:title="Output: 2000000 rows in 31 chunks, 82 µs 529 ns.">
<polygon fill="none" stroke="white" points="534.5,-133 421.5,-133 421.5,-19 534.5,-19 534.5,-133"/>
<text text-anchor="middle" x="478" y="-117.8" font-family="Times,serif" font-size="14.00" fill="white">GetTable</text>
<text text-anchor="middle" x="478" y="-102.8" font-family="Times,serif" font-size="14.00" fill="white">(part)</text>
<text text-anchor="middle" x="478" y="-87.8" font-family="Times,serif" font-size="14.00" fill="white">pruned:</text>
<text text-anchor="middle" x="478" y="-72.8" font-family="Times,serif" font-size="14.00" fill="white">0/31 chunk(s)</text>
<text text-anchor="middle" x="478" y="-57.8" font-family="Times,serif" font-size="14.00" fill="white">7/9 column(s)</text>
<text text-anchor="middle" x="478" y="-26.8" font-family="Times,serif" font-size="14.00" fill="white">82 µs 529 ns</text>
</a>
</g>
</g>
<!-- 281392388586384&#45;&gt;281392304378256 -->
<g id="edge17" class="edge">
<title>281392388586384&#45;&gt;281392304378256</title>
<path fill="none" stroke="white" d="M478,-133.07C478,-152.34 478,-173.8 478,-192.67"/>
<polygon fill="white" stroke="white" points="474.5,-192.86 478,-202.86 481.5,-192.86 474.5,-192.86"/>
<text text-anchor="middle" x="583" y="-173.8" font-family="Times,serif" font-size="14.00" fill="white">2,000,000 row(s)/31 chunk(s)</text>
</g>
<!-- 281392304380176 -->
<g id="node16" class="node">
<title>281392304380176</title>
<g id="a_node16"><a xlink:title="Output: 58630 rows in 1 chunk, 192 µs 130 ns.&#10;Operator step runtimes:&#10; ForwardUnmodifiedColumns 4 µs 544 ns&#10; EvaluateNewColumns 163 µs 330 ns&#10; BuildOutput 21 µs 440 ns.">
<polygon fill="none" stroke="white" points="468.5,-1472 351.5,-1472 351.5,-1418 468.5,-1418 468.5,-1472"/>
<text text-anchor="middle" x="410" y="-1456.8" font-family="Times,serif" font-size="14.00" fill="white">Projection</text>
<text text-anchor="middle" x="410" y="-1425.8" font-family="Times,serif" font-size="14.00" fill="white">192 µs 130 ns</text>
</a>
</g>
</g>
<!-- 281392304380176&#45;&gt;281392304380496 -->
<g id="edge18" class="edge">
<title>281392304380176&#45;&gt;281392304380496</title>
<path fill="none" stroke="white" d="M392.8,-1472C384.67,-1484.31 374.6,-1499.52 364.82,-1514.32"/>
<polygon fill="white" stroke="white" points="359.1,-1522.96 367.54,-1516.55 364.62,-1514.62 359.1,-1522.96"/>
<text text-anchor="middle" x="470" y="-1493.8" font-family="Times,serif" font-size="14.00" fill="white">58,630 row(s)/1 chunk(s)</text>
</g>
<!-- 281392298726928 -->
<g id="node17" class="node">
<title>281392298726928</title>
<g id="a_node17"><a xlink:title="Output: 58630 rows in 1 chunk, 116 ms 772 µs.&#10;Operator step runtimes:&#10; GroupByKeyPartitioning 66 ms 55 µs&#10; Aggregating 49 ms 938 µs&#10; GroupByColumnsWriting 593 µs 863 ns&#10; AggregateColumnsWriting 156 µs 130 ns&#10; OutputWriting 6 µs 272 ns.">
<polygon fill="none" stroke="white" stroke-width="8" points="586,-1367 420,-1367 420,-1268 586,-1268 586,-1367"/>
<text text-anchor="middle" x="503" y="-1351.8" font-family="Times,serif" font-size="14.00" fill="white">AggregateHash</text>
<text text-anchor="middle" x="503" y="-1336.8" font-family="Times,serif" font-size="14.00" fill="white">GroupBy {l_suppkey,</text>
<text text-anchor="middle" x="503" y="-1321.8" font-family="Times,serif" font-size="14.00" fill="white">l_partkey}</text>
<text text-anchor="middle" x="503" y="-1306.8" font-family="Times,serif" font-size="14.00" fill="white">SUM(l_quantity)</text>
<text text-anchor="middle" x="503" y="-1275.8" font-family="Times,serif" font-size="14.00" fill="white">116 ms 772 µs</text>
</a>
</g>
</g>
<!-- 281392298726928&#45;&gt;281392304380176 -->
<g id="edge19" class="edge">
<title>281392298726928&#45;&gt;281392304380176</title>
<path fill="none" stroke="white" d="M467.04,-1367.02C456.56,-1381.17 445.32,-1396.33 435.62,-1409.43"/>
<polygon fill="white" stroke="white" points="432.63,-1407.59 429.49,-1417.7 438.25,-1411.75 432.63,-1407.59"/>
<text text-anchor="middle" x="543" y="-1388.8" font-family="Times,serif" font-size="14.00" fill="white">58,630 row(s)/1 chunk(s)</text>
</g>
<!-- 281392298669328 -->
<g id="node18" class="node">
<title>281392298669328</title>
<g id="a_node18"><a xlink:title="Output: 97988 rows in 128 chunks, 524 µs 646 ns.">
<polygon fill="none" stroke="white" points="642.5,-1217 525.5,-1217 525.5,-1163 642.5,-1163 642.5,-1217"/>
<text text-anchor="middle" x="584" y="-1201.8" font-family="Times,serif" font-size="14.00" fill="white">Validate</text>
<text text-anchor="middle" x="584" y="-1170.8" font-family="Times,serif" font-size="14.00" fill="white">524 µs 646 ns</text>
</a>
</g>
</g>
<!-- 281392298669328&#45;&gt;281392298726928 -->
<g id="edge20" class="edge">
<title>281392298669328&#45;&gt;281392298726928</title>
<path fill="none" stroke="white" d="M567.22,-1217C559.28,-1229.31 549.46,-1244.52 539.91,-1259.32"/>
<polygon fill="white" stroke="white" points="536.81,-1257.66 534.33,-1267.96 542.69,-1261.45 536.81,-1257.66"/>
<text text-anchor="middle" x="653" y="-1238.8" font-family="Times,serif" font-size="14.00" fill="white">97,988 row(s)/128 chunk(s)</text>
</g>
<!-- 281392304379536&#45;&gt;281392298669328 -->
<g id="edge21" class="edge">
<title>281392304379536&#45;&gt;281392298669328</title>
<path fill="none" stroke="white" d="M584,-1112.25C584,-1125.07 584,-1139.73 584,-1152.77"/>
<polygon fill="white" stroke="white" points="580.5,-1152.81 584,-1162.81 587.5,-1152.81 580.5,-1152.81"/>
<text text-anchor="middle" x="682" y="-1133.8" font-family="Times,serif" font-size="14.00" fill="white">97,988 row(s)/128 chunk(s)</text>
</g>
<!-- 281392304379216&#45;&gt;281392304379536 -->
<g id="edge22" class="edge">
<title>281392304379216&#45;&gt;281392304379536</title>
<path fill="none" stroke="white" d="M676.75,-992.31C661.79,-1005.89 644.42,-1021.66 628.78,-1035.86"/>
<polygon fill="white" stroke="white" points="628.66,-1035.96 626.31,-1033.37 621.26,-1042.68 628.66,-1035.96"/>
<text text-anchor="middle" x="754" y="-1013.8" font-family="Times,serif" font-size="14.00" fill="white">97,988 row(s)/128 chunk(s)</text>
</g>
<!-- 281392304378576 -->
<g id="node21" class="node">
<title>281392304378576</title>
<g id="a_node21"><a xlink:title="Output: 9102166 rows in 916 chunks, 4 ms 855 µs.&#10;Chunks: 0 skipped with no results, &#10;0 skipped with all matching, 0 scanned using binary search.">
<polygon fill="none" stroke="white" points="920,-872 508,-872 508,-773 920,-773 920,-872"/>
<text text-anchor="middle" x="714" y="-856.8" font-family="Times,serif" font-size="14.00" fill="white">TableScan</text>
<text text-anchor="middle" x="714" y="-841.8" font-family="Times,serif" font-size="14.00" fill="white">Impl: ColumnBetween</text>
<text text-anchor="middle" x="714" y="-826.8" font-family="Times,serif" font-size="14.00" fill="white">l_shipdate BETWEEN UPPER EXCLUSIVE &#39;1997&#45;01&#45;01&#39;</text>
<text text-anchor="middle" x="714" y="-811.8" font-family="Times,serif" font-size="14.00" fill="white">AND &#39;1998&#45;01&#45;01&#39;</text>
<text text-anchor="middle" x="714" y="-780.8" font-family="Times,serif" font-size="14.00" fill="white">4 ms 855 µs</text>
</a>
</g>
</g>
<!-- 281392304378576&#45;&gt;281392304379216 -->
<g id="edge23" class="edge">
<title>281392304378576&#45;&gt;281392304379216</title>
<path fill="none" stroke="white" stroke-width="3.35" d="M714,-872.27C714,-885.49 714,-899.72 714,-912.65"/>
<polygon fill="white" stroke="white" stroke-width="3.35" points="714,-912.7 710.5,-912.7 714,-922.7 714,-912.7"/>
<text text-anchor="middle" x="823.5" y="-893.8" font-family="Times,serif" font-size="14.00" fill="white">9,102,166 row(s)/916 chunk(s)</text>
</g>
<!-- 281392388586832 -->
<g id="node22" class="node">
<title>281392388586832</title>
<g id="a_node22"><a xlink:title="Output: 59986052 rows in 916 chunks, 1 ms 420 µs.">
<polygon fill="none" stroke="white" points="779.5,-722 648.5,-722 648.5,-608 779.5,-608 779.5,-722"/>
<text text-anchor="middle" x="714" y="-706.8" font-family="Times,serif" font-size="14.00" fill="white">GetTable</text>
<text text-anchor="middle" x="714" y="-691.8" font-family="Times,serif" font-size="14.00" fill="white">(lineitem)</text>
<text text-anchor="middle" x="714" y="-676.8" font-family="Times,serif" font-size="14.00" fill="white">pruned:</text>
<text text-anchor="middle" x="714" y="-661.8" font-family="Times,serif" font-size="14.00" fill="white">0/916 chunk(s)</text>
<text text-anchor="middle" x="714" y="-646.8" font-family="Times,serif" font-size="14.00" fill="white">12/16 column(s)</text>
<text text-anchor="middle" x="714" y="-615.8" font-family="Times,serif" font-size="14.00" fill="white">1 ms 420 µs</text>
</a>
</g>
</g>
<!-- 281392388586832&#45;&gt;281392304378576 -->
<g id="edge24" class="edge">
<title>281392388586832&#45;&gt;281392304378576</title>
<path fill="none" stroke="white" stroke-width="8" d="M714,-722.14C714,-735.38 714,-749.53 714,-762.88"/>
<polygon fill="white" stroke="white" stroke-width="8" points="707,-762.9 714,-772.9 721,-762.9 707,-762.9"/>
<text text-anchor="middle" x="828" y="-743.8" font-family="Times,serif" font-size="14.00" fill="white">59,986,052 row(s)/916 chunk(s)</text>
</g>
<!-- 281392298661904 -->
<g id="node23" class="node">
<title>281392298661904</title>
<g id="a_node23"><a xlink:title="Output: 1 row in 1 chunk, 3 µs 200 ns.">
<polygon fill="none" stroke="white" points="331.5,-2186 232.5,-2186 232.5,-2132 331.5,-2132 331.5,-2186"/>
<text text-anchor="middle" x="282" y="-2170.8" font-family="Times,serif" font-size="14.00" fill="white">Validate</text>
<text text-anchor="middle" x="282" y="-2139.8" font-family="Times,serif" font-size="14.00" fill="white">3 µs 200 ns</text>
</a>
</g>
</g>
<!-- 281392298661904&#45;&gt;281392304388816 -->
<g id="edge25" class="edge">
<title>281392298661904&#45;&gt;281392304388816</title>
<path fill="none" stroke="white" d="M286.77,-2186.28C289.64,-2197.12 294.12,-2209.37 301,-2219 303.66,-2222.73 306.68,-2226.3 309.92,-2229.7"/>
<polygon fill="white" stroke="white" points="317.34,-2236.87 312.58,-2227.4 310.15,-2229.92 317.34,-2236.87"/>
<text text-anchor="middle" x="370" y="-2207.8" font-family="Times,serif" font-size="14.00" fill="white">1 row(s)/1 chunk(s)</text>
</g>
<!-- 281392304388496&#45;&gt;281392298661904 -->
<g id="edge26" class="edge">
<title>281392304388496&#45;&gt;281392298661904</title>
<path fill="none" stroke="white" d="M252.59,-2042.33C251.47,-2063.31 251.8,-2090.63 258,-2114 258.75,-2116.84 259.72,-2119.69 260.84,-2122.51"/>
<polygon fill="white" stroke="white" points="257.78,-2124.23 265.12,-2131.87 264.15,-2121.32 257.78,-2124.23"/>
<text text-anchor="middle" x="327" y="-2083.3" font-family="Times,serif" font-size="14.00" fill="white">1 row(s)/1 chunk(s)</text>
</g>
<!-- 281392304388176 -->
<g id="node25" class="node">
<title>281392304388176</title>
<g id="a_node25"><a xlink:title="Output: 1 row in 1 chunk, 15 µs 264 ns.&#10;Chunks: 0 skipped with no results, &#10;0 skipped with all matching, 0 scanned using binary search.">
<polygon fill="none" stroke="white" points="190,-1922 0,-1922 0,-1838 190,-1838 190,-1922"/>
<text text-anchor="middle" x="95" y="-1906.8" font-family="Times,serif" font-size="14.00" fill="white">TableScan</text>
<text text-anchor="middle" x="95" y="-1891.8" font-family="Times,serif" font-size="14.00" fill="white">Impl: ColumnVsValue</text>
<text text-anchor="middle" x="95" y="-1876.8" font-family="Times,serif" font-size="14.00" fill="white">n_name = &#39;ARGENTINA&#39;</text>
<text text-anchor="middle" x="95" y="-1845.8" font-family="Times,serif" font-size="14.00" fill="white">15 µs 264 ns</text>
</a>
</g>
</g>
<!-- 281392304388176&#45;&gt;281392304388496 -->
<g id="edge27" class="edge">
<title>281392304388176&#45;&gt;281392304388496</title>
<path fill="none" stroke="white" d="M95.91,-1922.38C98.01,-1934.05 102.17,-1946 110,-1955 113.69,-1959.25 117.76,-1963.14 122.11,-1966.72"/>
<polygon fill="white" stroke="white" points="122.24,-1966.81 120.14,-1969.61 130.24,-1972.81 122.24,-1966.81"/>
<text text-anchor="middle" x="179" y="-1943.8" font-family="Times,serif" font-size="14.00" fill="white">1 row(s)/1 chunk(s)</text>
</g>
<!-- 281439001201040 -->
<g id="node26" class="node">
<title>281439001201040</title>
<g id="a_node26"><a xlink:title="Output: 25 rows in 1 chunk, 6 µs 464 ns.">
<polygon fill="none" stroke="white" points="151.5,-1787 38.5,-1787 38.5,-1673 151.5,-1673 151.5,-1787"/>
<text text-anchor="middle" x="95" y="-1771.8" font-family="Times,serif" font-size="14.00" fill="white">GetTable</text>
<text text-anchor="middle" x="95" y="-1756.8" font-family="Times,serif" font-size="14.00" fill="white">(nation)</text>
<text text-anchor="middle" x="95" y="-1741.8" font-family="Times,serif" font-size="14.00" fill="white">pruned:</text>
<text text-anchor="middle" x="95" y="-1726.8" font-family="Times,serif" font-size="14.00" fill="white">0/1 chunk(s)</text>
<text text-anchor="middle" x="95" y="-1711.8" font-family="Times,serif" font-size="14.00" fill="white">2/4 column(s)</text>
<text text-anchor="middle" x="95" y="-1680.8" font-family="Times,serif" font-size="14.00" fill="white">6 µs 464 ns</text>
</a>
</g>
</g>
<!-- 281439001201040&#45;&gt;281392304388176 -->
<g id="edge28" class="edge">
<title>281439001201040&#45;&gt;281392304388176</title>
<path fill="none" stroke="white" d="M95,-1787.37C95,-1800.65 95,-1814.74 95,-1827.77"/>
<polygon fill="white" stroke="white" points="91.5,-1827.97 95,-1837.97 98.5,-1827.97 91.5,-1827.97"/>
<text text-anchor="middle" x="168.5" y="-1808.8" font-family="Times,serif" font-size="14.00" fill="white">25 row(s)/1 chunk(s)</text>
</g>
<!-- 0 -->
<g id="node27" class="node">
<title>0</title>
<polygon fill="none" stroke="white" points="552.5,-0.5 552.5,-151.5 903.5,-151.5 903.5,-0.5 552.5,-0.5"/>
<text text-anchor="middle" x="728" y="-136.3" font-family="Times,serif" font-size="14.00" fill="white">Total by operator</text>
<polyline fill="none" stroke="white" points="552.5,-128.5 903.5,-128.5 "/>
<text text-anchor="end" x="711.5" y="-113.3" font-family="Times,serif" font-size="14.00" fill="white">AggregateHash </text>
<text text-anchor="end" x="711.5" y="-98.3" font-family="Times,serif" font-size="14.00" fill="white"> JoinSimdSortMerge </text>
<text text-anchor="end" x="711.5" y="-83.3" font-family="Times,serif" font-size="14.00" fill="white"> TableScan </text>
<text text-anchor="end" x="711.5" y="-68.3" font-family="Times,serif" font-size="14.00" fill="white"> GetTable </text>
<text text-anchor="end" x="711.5" y="-53.3" font-family="Times,serif" font-size="14.00" fill="white"> Sort </text>
<text text-anchor="end" x="711.5" y="-38.3" font-family="Times,serif" font-size="14.00" fill="white"> Validate </text>
<text text-anchor="end" x="711.5" y="-23.3" font-family="Times,serif" font-size="14.00" fill="white"> Projection </text>
<text text-anchor="end" x="711.5" y="-8.3" font-family="Times,serif" font-size="14.00" fill="white">total</text>
<polyline fill="none" stroke="white" points="719.5,-0.5 719.5,-128.5 "/>
<text text-anchor="start" x="727.5" y="-113.3" font-family="Times,serif" font-size="14.00" fill="white">116 ms 772 µs </text>
<text text-anchor="start" x="727.5" y="-98.3" font-family="Times,serif" font-size="14.00" fill="white"> 80 ms 418 µs </text>
<text text-anchor="start" x="727.5" y="-83.3" font-family="Times,serif" font-size="14.00" fill="white"> 5 ms 42 µs </text>
<text text-anchor="start" x="727.5" y="-68.3" font-family="Times,serif" font-size="14.00" fill="white"> 1 ms 834 µs </text>
<text text-anchor="start" x="727.5" y="-53.3" font-family="Times,serif" font-size="14.00" fill="white"> 1 ms 632 µs </text>
<text text-anchor="start" x="727.5" y="-38.3" font-family="Times,serif" font-size="14.00" fill="white"> 1 ms 280 µs </text>
<text text-anchor="start" x="727.5" y="-23.3" font-family="Times,serif" font-size="14.00" fill="white"> 272 µs 323 ns </text>
<text text-anchor="start" x="727.5" y="-8.3" font-family="Times,serif" font-size="14.00" fill="white"> 207 ms 251 µs </text>
<polyline fill="none" stroke="white" points="850.5,-0.5 850.5,-128.5 "/>
<text text-anchor="start" x="858.5" y="-113.3" font-family="Times,serif" font-size="14.00" fill="white">56 %</text>
<text text-anchor="start" x="858.5" y="-98.3" font-family="Times,serif" font-size="14.00" fill="white">39 %</text>
<text text-anchor="start" x="858.5" y="-83.3" font-family="Times,serif" font-size="14.00" fill="white">2 %</text>
<text text-anchor="start" x="858.5" y="-68.3" font-family="Times,serif" font-size="14.00" fill="white">1 %</text>
<text text-anchor="start" x="858.5" y="-53.3" font-family="Times,serif" font-size="14.00" fill="white">1 %</text>
<text text-anchor="start" x="858.5" y="-38.3" font-family="Times,serif" font-size="14.00" fill="white">1 %</text>
<text text-anchor="start" x="858.5" y="-23.3" font-family="Times,serif" font-size="14.00" fill="white">0 %</text>
<text text-anchor="start" x="858.5" y="-8.3" font-family="Times,serif" font-size="14.00" fill="white"> </text>
</g>
</g>
</svg>
