<?xml version="1.0" encoding="UTF-8" standalone="no"?>
<!DOCTYPE svg PUBLIC "-//W3C//DTD SVG 1.1//EN"
 "http://www.w3.org/Graphics/SVG/1.1/DTD/svg11.dtd">
<!-- Generated by graphviz version 2.43.0 (0)
 -->
<!-- Title: G Pages: 1 -->
<svg width="1282pt" height="1970pt"
 viewBox="0.00 0.00 1281.50 1970.00" xmlns="http://www.w3.org/2000/svg" xmlns:xlink="http://www.w3.org/1999/xlink">
<g id="graph0" class="graph" transform="scale(1 1) rotate(0) translate(4 1966)">
<title>G</title>
<polygon fill="black" stroke="transparent" points="-4,4 -4,-1966 1277.5,-1966 1277.5,4 -4,4"/>
<text text-anchor="middle" x="319.5" y="-1946.8" font-family="Times,serif" font-size="14.00" fill="white">For tooltips with advanced information, hover your mouse over vertices or edge labels.</text>
<!-- 140409382668048 -->
<g id="node1" class="node">
<title>140409382668048</title>
<g id="a_node1"><a xlink:title="Output: 175 rows in 1 chunk filtered: 0, 3 µs 928 ns.">
<polygon fill="none" stroke="white" points="517,-1907 306,-1907 306,-1838 517,-1838 517,-1907"/>
<text text-anchor="middle" x="411.5" y="-1891.8" font-family="Times,serif" font-size="14.00" fill="white">Alias</text>
<text text-anchor="middle" x="411.5" y="-1876.8" font-family="Times,serif" font-size="14.00" fill="white">[nation, o_year, sum_profit]</text>
<text text-anchor="middle" x="411.5" y="-1845.8" font-family="Times,serif" font-size="14.00" fill="white">3 µs 928 ns</text>
</a>
</g>
</g>
<!-- 140409382667728 -->
<g id="node2" class="node">
<title>140409382667728</title>
<g id="a_node2"><a xlink:title="Output: 175 rows in 1 chunk filtered: 0, 150 µs 92 ns.&#10;Operator step runtimes:&#10; MaterializeSortColumns 32 µs 160 ns&#10; Sort 91 µs 111 ns&#10; TemporaryResultWriting 6 µs 613 ns&#10; WriteOutput 16 µs 992 ns.">
<polygon fill="none" stroke="white" points="465.5,-1787 357.5,-1787 357.5,-1733 465.5,-1733 465.5,-1787"/>
<text text-anchor="middle" x="411.5" y="-1771.8" font-family="Times,serif" font-size="14.00" fill="white">Sort</text>
<text text-anchor="middle" x="411.5" y="-1740.8" font-family="Times,serif" font-size="14.00" fill="white">150 µs 92 ns</text>
</a>
</g>
</g>
<!-- 140409382667728&#45;&gt;140409382668048 -->
<g id="edge1" class="edge">
<title>140409382667728&#45;&gt;140409382668048</title>
<path fill="none" stroke="white" d="M411.5,-1787.19C411.5,-1799.29 411.5,-1814 411.5,-1827.72"/>
<polygon fill="white" stroke="white" points="408,-1827.95 411.5,-1837.95 415,-1827.96 408,-1827.95"/>
<text text-anchor="middle" x="489.5" y="-1808.8" font-family="Times,serif" font-size="14.00" fill="white">175 row(s)/1 chunk(s)</text>
</g>
<!-- 140548149829648 -->
<g id="node3" class="node">
<title>140548149829648</title>
<g id="a_node3"><a xlink:title="Output: 175 rows in 1 chunk filtered: 0, 1 s 965 ms.&#10;Operator step runtimes:&#10; GroupByKeyPartitioning 1 s 416 ms&#10; Aggregating 548 ms 981 µs&#10; GroupByColumnsWriting 21 µs 300 ns&#10; AggregateColumnsWriting 23 µs 744 ns&#10; OutputWriting 11 µs 121 ns.">
<polygon fill="none" stroke="white" stroke-width="7.59" points="562,-1682 261,-1682 261,-1568 562,-1568 562,-1682"/>
<text text-anchor="middle" x="411.5" y="-1666.8" font-family="Times,serif" font-size="14.00" fill="white">AggregateHash</text>
<text text-anchor="middle" x="411.5" y="-1651.8" font-family="Times,serif" font-size="14.00" fill="white">GroupBy {n_name,</text>
<text text-anchor="middle" x="411.5" y="-1636.8" font-family="Times,serif" font-size="14.00" fill="white">SUBSTR(o_orderdate,1,4)}</text>
<text text-anchor="middle" x="411.5" y="-1621.8" font-family="Times,serif" font-size="14.00" fill="white">SUM(l_extendedprice * (1 &#45; l_discount) &#45;</text>
<text text-anchor="middle" x="411.5" y="-1606.8" font-family="Times,serif" font-size="14.00" fill="white">ps_supplycost * l_quantity)</text>
<text text-anchor="middle" x="411.5" y="-1575.8" font-family="Times,serif" font-size="14.00" fill="white">1 s 965 ms</text>
</a>
</g>
</g>
<!-- 140548149829648&#45;&gt;140409382667728 -->
<g id="edge2" class="edge">
<title>140548149829648&#45;&gt;140409382667728</title>
<path fill="none" stroke="white" d="M411.5,-1682.02C411.5,-1695.77 411.5,-1710.14 411.5,-1722.69"/>
<polygon fill="white" stroke="white" points="408,-1722.75 411.5,-1732.75 415,-1722.75 408,-1722.75"/>
<text text-anchor="middle" x="489.5" y="-1703.8" font-family="Times,serif" font-size="14.00" fill="white">175 row(s)/1 chunk(s)</text>
</g>
<!-- 140409382667408 -->
<g id="node4" class="node">
<title>140409382667408</title>
<g id="a_node4"><a xlink:title="Output: 32598244 rows in 32 chunks filtered: 0, 66 µs 976 ns.">
<polygon fill="none" stroke="white" points="506,-1517 317,-1517 317,-1448 506,-1448 506,-1517"/>
<text text-anchor="middle" x="411.5" y="-1501.8" font-family="Times,serif" font-size="14.00" fill="white">Alias</text>
<text text-anchor="middle" x="411.5" y="-1486.8" font-family="Times,serif" font-size="14.00" fill="white">[nation, o_year, amount]</text>
<text text-anchor="middle" x="411.5" y="-1455.8" font-family="Times,serif" font-size="14.00" fill="white">66 µs 976 ns</text>
</a>
</g>
</g>
<!-- 140409382667408&#45;&gt;140548149829648 -->
<g id="edge3" class="edge">
<title>140409382667408&#45;&gt;140548149829648</title>
<path fill="none" stroke="white" d="M411.5,-1517.15C411.5,-1529.37 411.5,-1543.63 411.5,-1557.69"/>
<polygon fill="white" stroke="white" points="408,-1557.85 411.5,-1567.85 415,-1557.85 408,-1557.85"/>
<text text-anchor="middle" x="521" y="-1538.8" font-family="Times,serif" font-size="14.00" fill="white">32,598,244 row(s)/32 chunk(s)</text>
</g>
<!-- 140409382667088 -->
<g id="node5" class="node">
<title>140409382667088</title>
<g id="a_node5"><a xlink:title="Output: 32598244 rows in 32 chunks filtered: 0, 1 s 629 ms.&#10;Operator step runtimes:&#10; ForwardUnmodifiedColumns 36 µs 709 ns&#10; EvaluateNewColumns 1 s 629 ms&#10; BuildOutput 113 µs 72 ns.">
<polygon fill="none" stroke="white" stroke-width="7.13" points="459,-1397 364,-1397 364,-1343 459,-1343 459,-1397"/>
<text text-anchor="middle" x="411.5" y="-1381.8" font-family="Times,serif" font-size="14.00" fill="white">Projection</text>
<text text-anchor="middle" x="411.5" y="-1350.8" font-family="Times,serif" font-size="14.00" fill="white">1 s 629 ms</text>
</a>
</g>
</g>
<!-- 140409382667088&#45;&gt;140409382667408 -->
<g id="edge4" class="edge">
<title>140409382667088&#45;&gt;140409382667408</title>
<path fill="none" stroke="white" d="M411.5,-1397.19C411.5,-1409.29 411.5,-1424 411.5,-1437.72"/>
<polygon fill="white" stroke="white" points="408,-1437.95 411.5,-1447.95 415,-1437.96 408,-1437.95"/>
<text text-anchor="middle" x="521" y="-1418.8" font-family="Times,serif" font-size="14.00" fill="white">32,598,244 row(s)/32 chunk(s)</text>
</g>
<!-- 140409382666768 -->
<g id="node6" class="node">
<title>140409382666768</title>
<g id="a_node6"><a xlink:title="Output: 32598244 rows in 32 chunks filtered: 0, 1 s 119 ms.&#10;Chunks: 0 skipped with no results, &#10;0 skipped with all matching, 0 scanned using binary search.">
<polygon fill="none" stroke="white" stroke-width="6.2" points="507,-1292 316,-1292 316,-1208 507,-1208 507,-1292"/>
<text text-anchor="middle" x="411.5" y="-1276.8" font-family="Times,serif" font-size="14.00" fill="white">TableScan</text>
<text text-anchor="middle" x="411.5" y="-1261.8" font-family="Times,serif" font-size="14.00" fill="white">Impl: ColumnVsColumn</text>
<text text-anchor="middle" x="411.5" y="-1246.8" font-family="Times,serif" font-size="14.00" fill="white">ps_suppkey = l_suppkey</text>
<text text-anchor="middle" x="411.5" y="-1215.8" font-family="Times,serif" font-size="14.00" fill="white">1 s 119 ms</text>
</a>
</g>
</g>
<!-- 140409382666768&#45;&gt;140409382667088 -->
<g id="edge5" class="edge">
<title>140409382666768&#45;&gt;140409382667088</title>
<path fill="none" stroke="white" d="M411.5,-1292.27C411.5,-1305.36 411.5,-1319.72 411.5,-1332.45"/>
<polygon fill="white" stroke="white" points="408,-1332.69 411.5,-1342.69 415,-1332.69 408,-1332.69"/>
<text text-anchor="middle" x="521" y="-1313.8" font-family="Times,serif" font-size="14.00" fill="white">32,598,244 row(s)/32 chunk(s)</text>
</g>
<!-- 140409382666448 -->
<g id="node7" class="node">
<title>140409382666448</title>
<g id="a_node7"><a xlink:title="Output: 130392976 rows in 32 chunks filtered: 0, 1 s 184 ms.&#10;Operator step runtimes:&#10; BuildSideMaterializing 31 ms 899 µs&#10; ProbeSideMaterializing 263 ms 185 µs&#10; Clustering 14 ms 502 µs&#10; Building 11 ms 588 µs&#10; Probing 325 ms 52 µs&#10; OutputWriting 536 ms 963 µs.&#10;Radix bits: 5.&#10;Build side is left.">
<polygon fill="none" stroke="white" stroke-width="6.34" points="502.5,-1157 320.5,-1157 320.5,-1088 502.5,-1088 502.5,-1157"/>
<text text-anchor="middle" x="411.5" y="-1141.8" font-family="Times,serif" font-size="14.00" fill="white">JoinHash (Inner)</text>
<text text-anchor="middle" x="411.5" y="-1126.8" font-family="Times,serif" font-size="14.00" fill="white">ps_partkey = l_partkey</text>
<text text-anchor="middle" x="411.5" y="-1095.8" font-family="Times,serif" font-size="14.00" fill="white">1 s 184 ms</text>
</a>
</g>
</g>
<!-- 140409382666448&#45;&gt;140409382666768 -->
<g id="edge6" class="edge">
<title>140409382666448&#45;&gt;140409382666768</title>
<path fill="none" stroke="white" stroke-width="4.24" d="M411.5,-1157.13C411.5,-1169.51 411.5,-1183.84 411.5,-1197.44"/>
<polygon fill="white" stroke="white" stroke-width="4.24" points="407.79,-1197.65 411.5,-1207.65 415.21,-1197.65 407.79,-1197.65"/>
<text text-anchor="middle" x="525.5" y="-1178.8" font-family="Times,serif" font-size="14.00" fill="white">130,392,976 row(s)/32 chunk(s)</text>
</g>
<!-- 140409382665168 -->
<g id="node8" class="node">
<title>140409382665168</title>
<g id="a_node8"><a xlink:title="Output: 4347444 rows in 256 chunks filtered: 27559488, 956 ms 380 µs.&#10;Operator step runtimes:&#10; BuildSideMaterializing 832 ms 208 µs&#10; ProbeSideMaterializing 25 ms 555 µs&#10; Clustering 77 ms 796 µs&#10; Building 7 ms 161 µs&#10; Probing 9 ms 684 µs&#10; OutputWriting 2 ms 379 µs.&#10;Radix bits: 8.&#10;Build side is right.">
<polygon fill="none" stroke="white" stroke-width="5.81" points="433.5,-917 225.5,-917 225.5,-848 433.5,-848 433.5,-917"/>
<text text-anchor="middle" x="329.5" y="-901.8" font-family="Times,serif" font-size="14.00" fill="white">JoinHash (Semi Reduction)</text>
<text text-anchor="middle" x="329.5" y="-886.8" font-family="Times,serif" font-size="14.00" fill="white">ps_partkey = l_partkey</text>
<text text-anchor="middle" x="329.5" y="-855.8" font-family="Times,serif" font-size="14.00" fill="white">956 ms 380 µs</text>
</a>
</g>
</g>
<!-- 140409382665168&#45;&gt;140409382666448 -->
<g id="edge7" class="edge">
<title>140409382665168&#45;&gt;140409382666448</title>
<path fill="none" stroke="white" d="M341.07,-917.09C355.62,-959.32 380.62,-1031.88 396.59,-1078.22"/>
<polygon fill="white" stroke="white" points="396.59,-1078.24 393.29,-1079.38 399.85,-1087.69 396.59,-1078.24"/>
<text text-anchor="middle" x="491" y="-998.8" font-family="Times,serif" font-size="14.00" fill="white">4,347,444 row(s)/256 chunk(s)</text>
</g>
<!-- 140548148786960 -->
<g id="node9" class="node">
<title>140548148786960</title>
<g id="a_node9"><a xlink:title="Output: 80000000 rows in 1221 chunks filtered: 0, 29 ms 186 µs.">
<polygon fill="none" stroke="white" points="122,-767 9,-767 9,-713 122,-713 122,-767"/>
<text text-anchor="middle" x="65.5" y="-751.8" font-family="Times,serif" font-size="14.00" fill="white">Validate</text>
<text text-anchor="middle" x="65.5" y="-720.8" font-family="Times,serif" font-size="14.00" fill="white">29 ms 186 µs</text>
</a>
</g>
</g>
<!-- 140548148786960&#45;&gt;140409382665168 -->
<g id="edge8" class="edge">
<title>140548148786960&#45;&gt;140409382665168</title>
<path fill="none" stroke="white" stroke-width="3.03" d="M63.3,-767.1C63.13,-786.98 66.4,-813.62 82.5,-830 101.55,-849.37 160.14,-862.06 215.47,-870"/>
<polygon fill="white" stroke="white" stroke-width="3.03" points="215.49,-870 215.01,-873.47 225.39,-871.38 215.49,-870"/>
<text text-anchor="middle" x="203" y="-818.8" font-family="Times,serif" font-size="14.00" fill="white">80,000,000 row(s)/1,221 chunk(s)</text>
</g>
<!-- 140548148912464 -->
<g id="node10" class="node">
<title>140548148912464</title>
<g id="a_node10"><a xlink:title="Output: 80000000 rows in 1221 chunks filtered: 0, 18 ms 788 µs.">
<polygon fill="none" stroke="white" points="131,-632 0,-632 0,-518 131,-518 131,-632"/>
<text text-anchor="middle" x="65.5" y="-616.8" font-family="Times,serif" font-size="14.00" fill="white">GetTable</text>
<text text-anchor="middle" x="65.5" y="-601.8" font-family="Times,serif" font-size="14.00" fill="white">(partsupp)</text>
<text text-anchor="middle" x="65.5" y="-586.8" font-family="Times,serif" font-size="14.00" fill="white">pruned:</text>
<text text-anchor="middle" x="65.5" y="-571.8" font-family="Times,serif" font-size="14.00" fill="white">0/1221 chunk(s)</text>
<text text-anchor="middle" x="65.5" y="-556.8" font-family="Times,serif" font-size="14.00" fill="white">2/5 column(s)</text>
<text text-anchor="middle" x="65.5" y="-525.8" font-family="Times,serif" font-size="14.00" fill="white">18 ms 788 µs</text>
</a>
</g>
</g>
<!-- 140548148912464&#45;&gt;140548148786960 -->
<g id="edge9" class="edge">
<title>140548148912464&#45;&gt;140548148786960</title>
<path fill="none" stroke="white" stroke-width="3.03" d="M65.5,-632.1C65.5,-655.46 65.5,-681.93 65.5,-702.68"/>
<polygon fill="white" stroke="white" stroke-width="3.03" points="62,-702.97 65.5,-712.97 69,-702.97 62,-702.97"/>
<text text-anchor="middle" x="186" y="-653.8" font-family="Times,serif" font-size="14.00" fill="white">80,000,000 row(s)/1,221 chunk(s)</text>
</g>
<!-- 140548148715792 -->
<g id="node11" class="node">
<title>140548148715792</title>
<g id="a_node11"><a xlink:title="Output: 32598244 rows in 8 chunks filtered: 0, 26 ms 394 µs.">
<polygon fill="none" stroke="white" points="442,-767 329,-767 329,-713 442,-713 442,-767"/>
<text text-anchor="middle" x="385.5" y="-751.8" font-family="Times,serif" font-size="14.00" fill="white">Validate</text>
<text text-anchor="middle" x="385.5" y="-720.8" font-family="Times,serif" font-size="14.00" fill="white">26 ms 394 µs</text>
</a>
</g>
</g>
<!-- 140548148715792&#45;&gt;140409382665168 -->
<g id="edge10" class="edge">
<title>140548148715792&#45;&gt;140409382665168</title>
<path fill="none" stroke="white" d="M359.79,-767.07C348.52,-780.28 336.52,-797.26 330.5,-815 328.1,-822.07 326.85,-829.8 326.32,-837.42"/>
<polygon fill="white" stroke="white" points="326.01,-847.66 329.81,-837.77 326.31,-837.67 326.01,-847.66"/>
<text text-anchor="middle" x="435.5" y="-818.8" font-family="Times,serif" font-size="14.00" fill="white">32,598,244 row(s)/8 chunk(s)</text>
</g>
<!-- 140409382665808 -->
<g id="node20" class="node">
<title>140409382665808</title>
<g id="a_node20"><a xlink:title="Output: 32598244 rows in 8 chunks filtered: 0, 2 s 323 ms.&#10;Operator step runtimes:&#10; BuildSideMaterializing 1 s 82 ms&#10; ProbeSideMaterializing 854 ms 654 µs&#10; Clustering 56 ms 271 µs&#10; Building 5 ms 829 µs&#10; Probing 184 ms 243 µs&#10; OutputWriting 139 ms 836 µs.&#10;Radix bits: 3.&#10;Build side is right.">
<polygon fill="none" stroke="white" stroke-width="8" points="836.5,-917 654.5,-917 654.5,-848 836.5,-848 836.5,-917"/>
<text text-anchor="middle" x="745.5" y="-901.8" font-family="Times,serif" font-size="14.00" fill="white">JoinHash (Inner)</text>
<text text-anchor="middle" x="745.5" y="-886.8" font-family="Times,serif" font-size="14.00" fill="white">l_suppkey = s_suppkey</text>
<text text-anchor="middle" x="745.5" y="-855.8" font-family="Times,serif" font-size="14.00" fill="white">2 s 323 ms</text>
</a>
</g>
</g>
<!-- 140548148715792&#45;&gt;140409382665808 -->
<g id="edge11" class="edge">
<title>140548148715792&#45;&gt;140409382665808</title>
<path fill="none" stroke="white" d="M442.33,-764.47C472.37,-777.78 509.36,-795.62 540.5,-815 549.63,-820.69 549.9,-825.14 559.5,-830 585.83,-843.35 616.07,-853.61 644.41,-861.33"/>
<polygon fill="white" stroke="white" points="644.68,-861.4 643.78,-864.78 654.35,-863.95 644.68,-861.4"/>
<text text-anchor="middle" x="664.5" y="-818.8" font-family="Times,serif" font-size="14.00" fill="white">32,598,244 row(s)/8 chunk(s)</text>
</g>
<!-- 140409382664848 -->
<g id="node12" class="node">
<title>140409382664848</title>
<g id="a_node12"><a xlink:title="Output: 32598244 rows in 8 chunks filtered: 206726160, 888 ms 288 µs.&#10;Operator step runtimes:&#10; BuildSideMaterializing 8 ms 38 µs&#10; ProbeSideMaterializing 190 ms 209 µs&#10; Clustering 318 ms 11 µs&#10; Building 2 ms 768 µs&#10; Probing 363 ms 811 µs&#10; OutputWriting 81 µs 62 ns.&#10;Radix bits: 3.&#10;Build side is right.">
<polygon fill="none" stroke="white" stroke-width="5.63" points="472.5,-609.5 298.5,-609.5 298.5,-540.5 472.5,-540.5 472.5,-609.5"/>
<text text-anchor="middle" x="385.5" y="-594.3" font-family="Times,serif" font-size="14.00" fill="white">JoinHash (Semi)</text>
<text text-anchor="middle" x="385.5" y="-579.3" font-family="Times,serif" font-size="14.00" fill="white">l_partkey = p_partkey</text>
<text text-anchor="middle" x="385.5" y="-548.3" font-family="Times,serif" font-size="14.00" fill="white">888 ms 288 µs</text>
</a>
</g>
</g>
<!-- 140409382664848&#45;&gt;140548148715792 -->
<g id="edge12" class="edge">
<title>140409382664848&#45;&gt;140548148715792</title>
<path fill="none" stroke="white" d="M385.5,-609.77C385.5,-636.89 385.5,-674.9 385.5,-702.68"/>
<polygon fill="white" stroke="white" points="382,-702.78 385.5,-712.78 389,-702.78 382,-702.78"/>
<text text-anchor="middle" x="490.5" y="-653.8" font-family="Times,serif" font-size="14.00" fill="white">32,598,244 row(s)/8 chunk(s)</text>
</g>
<!-- 140548148913808 -->
<g id="node13" class="node">
<title>140548148913808</title>
<g id="a_node13"><a xlink:title="Output: 600037902 rows in 9156 chunks filtered: 0, 30 ms 26 µs.">
<polygon fill="none" stroke="white" points="206,-467 75,-467 75,-353 206,-353 206,-467"/>
<text text-anchor="middle" x="140.5" y="-451.8" font-family="Times,serif" font-size="14.00" fill="white">GetTable</text>
<text text-anchor="middle" x="140.5" y="-436.8" font-family="Times,serif" font-size="14.00" fill="white">(lineitem)</text>
<text text-anchor="middle" x="140.5" y="-421.8" font-family="Times,serif" font-size="14.00" fill="white">pruned:</text>
<text text-anchor="middle" x="140.5" y="-406.8" font-family="Times,serif" font-size="14.00" fill="white">0/9156 chunk(s)</text>
<text text-anchor="middle" x="140.5" y="-391.8" font-family="Times,serif" font-size="14.00" fill="white">10/16 column(s)</text>
<text text-anchor="middle" x="140.5" y="-360.8" font-family="Times,serif" font-size="14.00" fill="white">30 ms 26 µs</text>
</a>
</g>
</g>
<!-- 140548148913808&#45;&gt;140409382664848 -->
<g id="edge13" class="edge">
<title>140548148913808&#45;&gt;140409382664848</title>
<path fill="none" stroke="white" stroke-width="8" d="M133.69,-467.39C134.87,-479.13 138.25,-490.74 145.5,-500 179.25,-543.14 237.67,-561.76 288.42,-569.54"/>
<polygon fill="white" stroke="white" stroke-width="8" points="288.56,-569.56 287.58,-576.49 298.46,-570.95 288.56,-569.56"/>
<text text-anchor="middle" x="270.5" y="-488.8" font-family="Times,serif" font-size="14.00" fill="white">600,037,902 row(s)/9,156 chunk(s)</text>
</g>
<!-- 140548148787728 -->
<g id="node14" class="node">
<title>140548148787728</title>
<g id="a_node14"><a xlink:title="Output: 1086861 rows in 306 chunks filtered: 0, 10 ms 570 µs.">
<polygon fill="none" stroke="white" points="470,-437 357,-437 357,-383 470,-383 470,-437"/>
<text text-anchor="middle" x="413.5" y="-421.8" font-family="Times,serif" font-size="14.00" fill="white">Validate</text>
<text text-anchor="middle" x="413.5" y="-390.8" font-family="Times,serif" font-size="14.00" fill="white">10 ms 570 µs</text>
</a>
</g>
</g>
<!-- 140548148787728&#45;&gt;140409382664848 -->
<g id="edge14" class="edge">
<title>140548148787728&#45;&gt;140409382664848</title>
<path fill="none" stroke="white" d="M409,-437.19C404.7,-462.22 398.14,-500.45 393.04,-530.13"/>
<polygon fill="white" stroke="white" points="391.3,-540.24 396.44,-530.98 392.99,-530.38 391.3,-540.24"/>
<text text-anchor="middle" x="510" y="-488.8" font-family="Times,serif" font-size="14.00" fill="white">1,086,861 row(s)/306 chunk(s)</text>
</g>
<!-- 140409382664528 -->
<g id="node15" class="node">
<title>140409382664528</title>
<g id="a_node15"><a xlink:title="Output: 1086861 rows in 306 chunks filtered: 0, 30 ms 285 µs.&#10;Chunks: 0 skipped with no results, &#10;0 skipped with all matching, 0 scanned using binary search.">
<polygon fill="none" stroke="white" points="505,-302 322,-302 322,-218 505,-218 505,-302"/>
<text text-anchor="middle" x="413.5" y="-286.8" font-family="Times,serif" font-size="14.00" fill="white">TableScan</text>
<text text-anchor="middle" x="413.5" y="-271.8" font-family="Times,serif" font-size="14.00" fill="white">Impl: ColumnLike</text>
<text text-anchor="middle" x="413.5" y="-256.8" font-family="Times,serif" font-size="14.00" fill="white">p_name LIKE &#39;%peru%&#39;</text>
<text text-anchor="middle" x="413.5" y="-225.8" font-family="Times,serif" font-size="14.00" fill="white">30 ms 285 µs</text>
</a>
</g>
</g>
<!-- 140409382664528&#45;&gt;140548148787728 -->
<g id="edge15" class="edge">
<title>140409382664528&#45;&gt;140548148787728</title>
<path fill="none" stroke="white" d="M413.5,-302.23C413.5,-324.32 413.5,-351.31 413.5,-372.62"/>
<polygon fill="white" stroke="white" points="410,-372.88 413.5,-382.88 417,-372.88 410,-372.88"/>
<text text-anchor="middle" x="523" y="-323.8" font-family="Times,serif" font-size="14.00" fill="white">1,086,861 row(s)/306 chunk(s)</text>
</g>
<!-- 140548148912016 -->
<g id="node16" class="node">
<title>140548148912016</title>
<g id="a_node16"><a xlink:title="Output: 20000000 rows in 306 chunks filtered: 0, 988 µs 475 ns.">
<polygon fill="none" stroke="white" points="474.5,-140.5 352.5,-140.5 352.5,-26.5 474.5,-26.5 474.5,-140.5"/>
<text text-anchor="middle" x="413.5" y="-125.3" font-family="Times,serif" font-size="14.00" fill="white">GetTable</text>
<text text-anchor="middle" x="413.5" y="-110.3" font-family="Times,serif" font-size="14.00" fill="white">(part)</text>
<text text-anchor="middle" x="413.5" y="-95.3" font-family="Times,serif" font-size="14.00" fill="white">pruned:</text>
<text text-anchor="middle" x="413.5" y="-80.3" font-family="Times,serif" font-size="14.00" fill="white">0/306 chunk(s)</text>
<text text-anchor="middle" x="413.5" y="-65.3" font-family="Times,serif" font-size="14.00" fill="white">7/9 column(s)</text>
<text text-anchor="middle" x="413.5" y="-34.3" font-family="Times,serif" font-size="14.00" fill="white">988 µs 475 ns</text>
</a>
</g>
</g>
<!-- 140548148912016&#45;&gt;140409382664528 -->
<g id="edge16" class="edge">
<title>140548148912016&#45;&gt;140409382664528</title>
<path fill="none" stroke="white" d="M413.5,-140.67C413.5,-162.25 413.5,-186.74 413.5,-207.83"/>
<polygon fill="white" stroke="white" points="410,-207.87 413.5,-217.87 417,-207.87 410,-207.87"/>
<text text-anchor="middle" x="527.5" y="-188.8" font-family="Times,serif" font-size="14.00" fill="white">20,000,000 row(s)/306 chunk(s)</text>
</g>
<!-- 140409382666128 -->
<g id="node17" class="node">
<title>140409382666128</title>
<g id="a_node17"><a xlink:title="Output: 32598244 rows in 64 chunks filtered: 0, 2 s 38 ms.&#10;Operator step runtimes:&#10; BuildSideMaterializing 1 s 63 ms&#10; ProbeSideMaterializing 356 ms 464 µs&#10; Clustering 186 ms 440 µs&#10; Building 263 ms 51 µs&#10; Probing 81 ms 525 µs&#10; OutputWriting 84 ms 939 µs.&#10;Radix bits: 8.&#10;Build side is right.">
<polygon fill="none" stroke="white" stroke-width="7.68" points="841,-1037 650,-1037 650,-968 841,-968 841,-1037"/>
<text text-anchor="middle" x="745.5" y="-1021.8" font-family="Times,serif" font-size="14.00" fill="white">JoinHash (Inner)</text>
<text text-anchor="middle" x="745.5" y="-1006.8" font-family="Times,serif" font-size="14.00" fill="white">o_orderkey = l_orderkey</text>
<text text-anchor="middle" x="745.5" y="-975.8" font-family="Times,serif" font-size="14.00" fill="white">2 s 38 ms</text>
</a>
</g>
</g>
<!-- 140409382666128&#45;&gt;140409382666448 -->
<g id="edge17" class="edge">
<title>140409382666128&#45;&gt;140409382666448</title>
<path fill="none" stroke="white" d="M650.24,-1037.16C607.03,-1052.42 555.92,-1070.48 512.1,-1085.96"/>
<polygon fill="white" stroke="white" points="502.58,-1089.32 513.17,-1089.29 512.01,-1085.99 502.58,-1089.32"/>
<text text-anchor="middle" x="707" y="-1058.8" font-family="Times,serif" font-size="14.00" fill="white">32,598,244 row(s)/64 chunk(s)</text>
</g>
<!-- 140548148717072 -->
<g id="node18" class="node">
<title>140548148717072</title>
<g id="a_node18"><a xlink:title="Output: 150000000 rows in 2289 chunks filtered: 0, 16 ms 523 µs.">
<polygon fill="none" stroke="white" points="1076,-909.5 963,-909.5 963,-855.5 1076,-855.5 1076,-909.5"/>
<text text-anchor="middle" x="1019.5" y="-894.3" font-family="Times,serif" font-size="14.00" fill="white">Validate</text>
<text text-anchor="middle" x="1019.5" y="-863.3" font-family="Times,serif" font-size="14.00" fill="white">16 ms 523 µs</text>
</a>
</g>
</g>
<!-- 140548148717072&#45;&gt;140409382666128 -->
<g id="edge18" class="edge">
<title>140548148717072&#45;&gt;140409382666128</title>
<path fill="none" stroke="white" stroke-width="4.58" d="M1001.83,-909.78C991.14,-923.72 976.34,-939.99 959.5,-950 926.85,-969.41 887.29,-981.52 851.11,-989.06"/>
<polygon fill="white" stroke="white" stroke-width="4.58" points="850.81,-989.12 850.03,-985.19 841,-991.07 850.81,-989.12"/>
<text text-anchor="middle" x="1103.5" y="-938.8" font-family="Times,serif" font-size="14.00" fill="white">150,000,000 row(s)/2,289 chunk(s)</text>
</g>
<!-- 140548148912912 -->
<g id="node19" class="node">
<title>140548148912912</title>
<g id="a_node19"><a xlink:title="Output: 150000000 rows in 2289 chunks filtered: 0, 4 ms 593 µs.">
<polygon fill="none" stroke="white" points="1094,-797 963,-797 963,-683 1094,-683 1094,-797"/>
<text text-anchor="middle" x="1028.5" y="-781.8" font-family="Times,serif" font-size="14.00" fill="white">GetTable</text>
<text text-anchor="middle" x="1028.5" y="-766.8" font-family="Times,serif" font-size="14.00" fill="white">(orders)</text>
<text text-anchor="middle" x="1028.5" y="-751.8" font-family="Times,serif" font-size="14.00" fill="white">pruned:</text>
<text text-anchor="middle" x="1028.5" y="-736.8" font-family="Times,serif" font-size="14.00" fill="white">0/2289 chunk(s)</text>
<text text-anchor="middle" x="1028.5" y="-721.8" font-family="Times,serif" font-size="14.00" fill="white">7/9 column(s)</text>
<text text-anchor="middle" x="1028.5" y="-690.8" font-family="Times,serif" font-size="14.00" fill="white">4 ms 593 µs</text>
</a>
</g>
</g>
<!-- 140548148912912&#45;&gt;140548148717072 -->
<g id="edge19" class="edge">
<title>140548148912912&#45;&gt;140548148717072</title>
<path fill="none" stroke="white" stroke-width="4.58" d="M1024.89,-797.34C1023.86,-813.43 1022.76,-830.54 1021.83,-845.1"/>
<polygon fill="white" stroke="white" stroke-width="4.58" points="1017.82,-844.97 1021.18,-855.2 1025.82,-845.48 1017.82,-844.97"/>
<text text-anchor="middle" x="1148.5" y="-818.8" font-family="Times,serif" font-size="14.00" fill="white">150,000,000 row(s)/2,289 chunk(s)</text>
</g>
<!-- 140409382665808&#45;&gt;140409382666128 -->
<g id="edge20" class="edge">
<title>140409382665808&#45;&gt;140409382666128</title>
<path fill="none" stroke="white" d="M745.5,-917.31C745.5,-929.78 745.5,-944.1 745.5,-957.34"/>
<polygon fill="white" stroke="white" points="745.5,-967.68 749,-957.68 745.5,-957.68 745.5,-967.68"/>
<text text-anchor="middle" x="850.5" y="-938.8" font-family="Times,serif" font-size="14.00" fill="white">32,598,244 row(s)/8 chunk(s)</text>
</g>
<!-- 140409382665488 -->
<g id="node21" class="node">
<title>140409382665488</title>
<g id="a_node21"><a xlink:title="Output: 1000000 rows in 16 chunks filtered: 0, 2 ms 885 µs.&#10;Operator step runtimes:&#10; BuildSideMaterializing 39 µs 43 ns&#10; ProbeSideMaterializing 933 µs 412 ns&#10; Clustering 0 ns&#10; Building 18 µs 285 ns&#10; Probing 911 µs 280 ns&#10; OutputWriting 857 µs 921 ns.&#10;Radix bits: 0.&#10;Build side is right.">
<polygon fill="none" stroke="white" points="899,-774.5 692,-774.5 692,-705.5 899,-705.5 899,-774.5"/>
<text text-anchor="middle" x="795.5" y="-759.3" font-family="Times,serif" font-size="14.00" fill="white">JoinHash (Inner)</text>
<text text-anchor="middle" x="795.5" y="-744.3" font-family="Times,serif" font-size="14.00" fill="white">s_nationkey = n_nationkey</text>
<text text-anchor="middle" x="795.5" y="-713.3" font-family="Times,serif" font-size="14.00" fill="white">2 ms 885 µs</text>
</a>
</g>
</g>
<!-- 140409382665488&#45;&gt;140409382665808 -->
<g id="edge21" class="edge">
<title>140409382665488&#45;&gt;140409382665808</title>
<path fill="none" stroke="white" d="M789.32,-774.59C785.68,-791.53 780.41,-812.19 773.5,-830 772.39,-832.85 771.16,-835.74 769.85,-838.62"/>
<polygon fill="white" stroke="white" points="765.44,-847.73 772.95,-840.26 769.8,-838.73 765.44,-847.73"/>
<text text-anchor="middle" x="882.5" y="-818.8" font-family="Times,serif" font-size="14.00" fill="white">1,000,000 row(s)/16 chunk(s)</text>
</g>
<!-- 140548148716304 -->
<g id="node22" class="node">
<title>140548148716304</title>
<g id="a_node22"><a xlink:title="Output: 1000000 rows in 16 chunks filtered: 0, 108 µs 634 ns.">
<polygon fill="none" stroke="white" points="826,-602 709,-602 709,-548 826,-548 826,-602"/>
<text text-anchor="middle" x="767.5" y="-586.8" font-family="Times,serif" font-size="14.00" fill="white">Validate</text>
<text text-anchor="middle" x="767.5" y="-555.8" font-family="Times,serif" font-size="14.00" fill="white">108 µs 634 ns</text>
</a>
</g>
</g>
<!-- 140548148716304&#45;&gt;140409382665488 -->
<g id="edge22" class="edge">
<title>140548148716304&#45;&gt;140409382665488</title>
<path fill="none" stroke="white" d="M765.48,-602.31C764.68,-620.15 764.7,-644.17 768.5,-665 770.36,-675.19 773.48,-685.83 776.96,-695.76"/>
<polygon fill="white" stroke="white" points="777.06,-696.03 773.77,-697.24 780.52,-705.41 777.06,-696.03"/>
<text text-anchor="middle" x="873.5" y="-653.8" font-family="Times,serif" font-size="14.00" fill="white">1,000,000 row(s)/16 chunk(s)</text>
</g>
<!-- 140548148913360 -->
<g id="node23" class="node">
<title>140548148913360</title>
<g id="a_node23"><a xlink:title="Output: 1000000 rows in 16 chunks filtered: 0, 74 µs 691 ns.">
<polygon fill="none" stroke="white" points="824,-467 711,-467 711,-353 824,-353 824,-467"/>
<text text-anchor="middle" x="767.5" y="-451.8" font-family="Times,serif" font-size="14.00" fill="white">GetTable</text>
<text text-anchor="middle" x="767.5" y="-436.8" font-family="Times,serif" font-size="14.00" fill="white">(supplier)</text>
<text text-anchor="middle" x="767.5" y="-421.8" font-family="Times,serif" font-size="14.00" fill="white">pruned:</text>
<text text-anchor="middle" x="767.5" y="-406.8" font-family="Times,serif" font-size="14.00" fill="white">0/16 chunk(s)</text>
<text text-anchor="middle" x="767.5" y="-391.8" font-family="Times,serif" font-size="14.00" fill="white">5/7 column(s)</text>
<text text-anchor="middle" x="767.5" y="-360.8" font-family="Times,serif" font-size="14.00" fill="white">74 µs 691 ns</text>
</a>
</g>
</g>
<!-- 140548148913360&#45;&gt;140548148716304 -->
<g id="edge23" class="edge">
<title>140548148913360&#45;&gt;140548148716304</title>
<path fill="none" stroke="white" d="M767.5,-467.1C767.5,-490.46 767.5,-516.93 767.5,-537.68"/>
<polygon fill="white" stroke="white" points="764,-537.97 767.5,-547.97 771,-537.97 764,-537.97"/>
<text text-anchor="middle" x="872.5" y="-488.8" font-family="Times,serif" font-size="14.00" fill="white">1,000,000 row(s)/16 chunk(s)</text>
</g>
<!-- 140548148716048 -->
<g id="node24" class="node">
<title>140548148716048</title>
<g id="a_node24"><a xlink:title="Output: 25 rows in 1 chunk filtered: 0, 11 µs 702 ns.">
<polygon fill="none" stroke="white" points="1054.5,-602 946.5,-602 946.5,-548 1054.5,-548 1054.5,-602"/>
<text text-anchor="middle" x="1000.5" y="-586.8" font-family="Times,serif" font-size="14.00" fill="white">Validate</text>
<text text-anchor="middle" x="1000.5" y="-555.8" font-family="Times,serif" font-size="14.00" fill="white">11 µs 702 ns</text>
</a>
</g>
</g>
<!-- 140548148716048&#45;&gt;140409382665488 -->
<g id="edge24" class="edge">
<title>140548148716048&#45;&gt;140409382665488</title>
<path fill="none" stroke="white" d="M1000.17,-602.26C998.6,-621.69 993.52,-647.68 978.5,-665 967.82,-677.32 939.79,-690.7 908.79,-702.66"/>
<polygon fill="white" stroke="white" points="899.09,-706.32 909.68,-706.06 908.45,-702.79 899.09,-706.32"/>
<text text-anchor="middle" x="1061" y="-653.8" font-family="Times,serif" font-size="14.00" fill="white">25 row(s)/1 chunk(s)</text>
</g>
<!-- 140548148914256 -->
<g id="node25" class="node">
<title>140548148914256</title>
<g id="a_node25"><a xlink:title="Output: 25 rows in 1 chunk filtered: 0, 56 µs 386 ns.">
<polygon fill="none" stroke="white" points="1057,-467 944,-467 944,-353 1057,-353 1057,-467"/>
<text text-anchor="middle" x="1000.5" y="-451.8" font-family="Times,serif" font-size="14.00" fill="white">GetTable</text>
<text text-anchor="middle" x="1000.5" y="-436.8" font-family="Times,serif" font-size="14.00" fill="white">(nation)</text>
<text text-anchor="middle" x="1000.5" y="-421.8" font-family="Times,serif" font-size="14.00" fill="white">pruned:</text>
<text text-anchor="middle" x="1000.5" y="-406.8" font-family="Times,serif" font-size="14.00" fill="white">0/1 chunk(s)</text>
<text text-anchor="middle" x="1000.5" y="-391.8" font-family="Times,serif" font-size="14.00" fill="white">2/4 column(s)</text>
<text text-anchor="middle" x="1000.5" y="-360.8" font-family="Times,serif" font-size="14.00" fill="white">56 µs 386 ns</text>
</a>
</g>
</g>
<!-- 140548148914256&#45;&gt;140548148716048 -->
<g id="edge25" class="edge">
<title>140548148914256&#45;&gt;140548148716048</title>
<path fill="none" stroke="white" d="M1000.5,-467.1C1000.5,-490.46 1000.5,-516.93 1000.5,-537.68"/>
<polygon fill="white" stroke="white" points="997,-537.97 1000.5,-547.97 1004,-537.97 997,-537.97"/>
<text text-anchor="middle" x="1074" y="-488.8" font-family="Times,serif" font-size="14.00" fill="white">25 row(s)/1 chunk(s)</text>
</g>
<!-- 0 -->
<g id="node26" class="node">
<title>0</title>
<polygon fill="none" stroke="white" points="492.5,-0.5 492.5,-166.5 804.5,-166.5 804.5,-0.5 492.5,-0.5"/>
<text text-anchor="middle" x="648.5" y="-151.3" font-family="Times,serif" font-size="14.00" fill="white">Total by operator</text>
<polyline fill="none" stroke="white" points="492.5,-143.5 804.5,-143.5 "/>
<text text-anchor="end" x="621.5" y="-128.3" font-family="Times,serif" font-size="14.00" fill="white">JoinHash </text>
<text text-anchor="end" x="621.5" y="-113.3" font-family="Times,serif" font-size="14.00" fill="white"> AggregateHash </text>
<text text-anchor="end" x="621.5" y="-98.3" font-family="Times,serif" font-size="14.00" fill="white"> Projection </text>
<text text-anchor="end" x="621.5" y="-83.3" font-family="Times,serif" font-size="14.00" fill="white"> TableScan </text>
<text text-anchor="end" x="621.5" y="-68.3" font-family="Times,serif" font-size="14.00" fill="white"> Validate </text>
<text text-anchor="end" x="621.5" y="-53.3" font-family="Times,serif" font-size="14.00" fill="white"> GetTable </text>
<text text-anchor="end" x="621.5" y="-38.3" font-family="Times,serif" font-size="14.00" fill="white"> Sort </text>
<text text-anchor="end" x="621.5" y="-23.3" font-family="Times,serif" font-size="14.00" fill="white"> Alias </text>
<text text-anchor="end" x="621.5" y="-8.3" font-family="Times,serif" font-size="14.00" fill="white">total</text>
<polyline fill="none" stroke="white" points="629.5,-0.5 629.5,-143.5 "/>
<text text-anchor="start" x="637.5" y="-128.3" font-family="Times,serif" font-size="14.00" fill="white">7 s 392 ms </text>
<text text-anchor="start" x="637.5" y="-113.3" font-family="Times,serif" font-size="14.00" fill="white"> 1 s 965 ms </text>
<text text-anchor="start" x="637.5" y="-98.3" font-family="Times,serif" font-size="14.00" fill="white"> 1 s 629 ms </text>
<text text-anchor="start" x="637.5" y="-83.3" font-family="Times,serif" font-size="14.00" fill="white"> 1 s 149 ms </text>
<text text-anchor="start" x="637.5" y="-68.3" font-family="Times,serif" font-size="14.00" fill="white"> 82 ms 793 µs </text>
<text text-anchor="start" x="637.5" y="-53.3" font-family="Times,serif" font-size="14.00" fill="white"> 54 ms 527 µs </text>
<text text-anchor="start" x="637.5" y="-38.3" font-family="Times,serif" font-size="14.00" fill="white"> 150 µs 92 ns </text>
<text text-anchor="start" x="637.5" y="-23.3" font-family="Times,serif" font-size="14.00" fill="white"> 70 µs 904 ns </text>
<text text-anchor="start" x="637.5" y="-8.3" font-family="Times,serif" font-size="14.00" fill="white"> 12 s 273 ms </text>
<polyline fill="none" stroke="white" points="751.5,-0.5 751.5,-143.5 "/>
<text text-anchor="start" x="759.5" y="-128.3" font-family="Times,serif" font-size="14.00" fill="white">60 %</text>
<text text-anchor="start" x="759.5" y="-113.3" font-family="Times,serif" font-size="14.00" fill="white">16 %</text>
<text text-anchor="start" x="759.5" y="-98.3" font-family="Times,serif" font-size="14.00" fill="white">13 %</text>
<text text-anchor="start" x="759.5" y="-83.3" font-family="Times,serif" font-size="14.00" fill="white">9 %</text>
<text text-anchor="start" x="759.5" y="-68.3" font-family="Times,serif" font-size="14.00" fill="white">1 %</text>
<text text-anchor="start" x="759.5" y="-53.3" font-family="Times,serif" font-size="14.00" fill="white">0 %</text>
<text text-anchor="start" x="759.5" y="-38.3" font-family="Times,serif" font-size="14.00" fill="white">0 %</text>
<text text-anchor="start" x="759.5" y="-23.3" font-family="Times,serif" font-size="14.00" fill="white">0 %</text>
<text text-anchor="start" x="759.5" y="-8.3" font-family="Times,serif" font-size="14.00" fill="white"> </text>
</g>
</g>
</svg>
