<?xml version="1.0" encoding="UTF-8" standalone="no"?>
<!DOCTYPE svg PUBLIC "-//W3C//DTD SVG 1.1//EN"
 "http://www.w3.org/Graphics/SVG/1.1/DTD/svg11.dtd">
<!-- Generated by graphviz version 2.43.0 (0)
 -->
<!-- Title: G Pages: 1 -->
<svg width="1371pt" height="2615pt"
 viewBox="0.00 0.00 1371.00 2615.00" xmlns="http://www.w3.org/2000/svg" xmlns:xlink="http://www.w3.org/1999/xlink">
<g id="graph0" class="graph" transform="scale(1 1) rotate(0) translate(4 2611)">
<title>G</title>
<polygon fill="black" stroke="transparent" points="-4,4 -4,-2611 1367,-2611 1367,4 -4,4"/>
<text text-anchor="middle" x="319.5" y="-2591.8" font-family="Times,serif" font-size="14.00" fill="white">For tooltips with advanced information, hover your mouse over vertices or edge labels.</text>
<!-- 140230114537872 -->
<g id="node1" class="node">
<title>140230114537872</title>
<g id="a_node1"><a xlink:title="Output: 5 rows in 1 chunk filtered: 0, 3 µs 907 ns.">
<polygon fill="none" stroke="white" points="806,-2552 657,-2552 657,-2483 806,-2483 806,-2552"/>
<text text-anchor="middle" x="731.5" y="-2536.8" font-family="Times,serif" font-size="14.00" fill="white">Alias</text>
<text text-anchor="middle" x="731.5" y="-2521.8" font-family="Times,serif" font-size="14.00" fill="white">[n_name, revenue]</text>
<text text-anchor="middle" x="731.5" y="-2490.8" font-family="Times,serif" font-size="14.00" fill="white">3 µs 907 ns</text>
</a>
</g>
</g>
<!-- 140230114537552 -->
<g id="node2" class="node">
<title>140230114537552</title>
<g id="a_node2"><a xlink:title="Output: 5 rows in 1 chunk filtered: 0, 22 µs 713 ns.&#10;Operator step runtimes:&#10; MaterializeSortColumns 3 µs 797 ns&#10; Sort 2 µs 394 ns&#10; TemporaryResultWriting 1 µs 122 ns&#10; WriteOutput 12 µs 122 ns.">
<polygon fill="none" stroke="white" points="785.5,-2432 677.5,-2432 677.5,-2378 785.5,-2378 785.5,-2432"/>
<text text-anchor="middle" x="731.5" y="-2416.8" font-family="Times,serif" font-size="14.00" fill="white">Sort</text>
<text text-anchor="middle" x="731.5" y="-2385.8" font-family="Times,serif" font-size="14.00" fill="white">22 µs 713 ns</text>
</a>
</g>
</g>
<!-- 140230114537552&#45;&gt;140230114537872 -->
<g id="edge1" class="edge">
<title>140230114537552&#45;&gt;140230114537872</title>
<path fill="none" stroke="white" d="M731.5,-2432.19C731.5,-2444.29 731.5,-2459 731.5,-2472.72"/>
<polygon fill="white" stroke="white" points="728,-2472.95 731.5,-2482.95 735,-2472.96 728,-2472.95"/>
<text text-anchor="middle" x="800.5" y="-2453.8" font-family="Times,serif" font-size="14.00" fill="white">5 row(s)/1 chunk(s)</text>
</g>
<!-- 140548088287248 -->
<g id="node3" class="node">
<title>140548088287248</title>
<g id="a_node3"><a xlink:title="Output: 5 rows in 1 chunk filtered: 0, 38 ms 906 µs.&#10;Operator step runtimes:&#10; GroupByKeyPartitioning 30 ms 337 µs&#10; Aggregating 8 ms 487 µs&#10; GroupByColumnsWriting 7 µs 334 ns&#10; AggregateColumnsWriting 16 µs 521 ns&#10; OutputWriting 8 µs 566 ns.">
<polygon fill="none" stroke="white" points="880,-2327 583,-2327 583,-2243 880,-2243 880,-2327"/>
<text text-anchor="middle" x="731.5" y="-2311.8" font-family="Times,serif" font-size="14.00" fill="white">AggregateHash</text>
<text text-anchor="middle" x="731.5" y="-2296.8" font-family="Times,serif" font-size="14.00" fill="white">GroupBy {n_name}</text>
<text text-anchor="middle" x="731.5" y="-2281.8" font-family="Times,serif" font-size="14.00" fill="white">SUM(l_extendedprice * (1 &#45; l_discount))</text>
<text text-anchor="middle" x="731.5" y="-2250.8" font-family="Times,serif" font-size="14.00" fill="white">38 ms 906 µs</text>
</a>
</g>
</g>
<!-- 140548088287248&#45;&gt;140230114537552 -->
<g id="edge2" class="edge">
<title>140548088287248&#45;&gt;140230114537552</title>
<path fill="none" stroke="white" d="M731.5,-2327.27C731.5,-2340.36 731.5,-2354.72 731.5,-2367.45"/>
<polygon fill="white" stroke="white" points="728,-2367.69 731.5,-2377.69 735,-2367.69 728,-2367.69"/>
<text text-anchor="middle" x="800.5" y="-2348.8" font-family="Times,serif" font-size="14.00" fill="white">5 row(s)/1 chunk(s)</text>
</g>
<!-- 140230114537232 -->
<g id="node4" class="node">
<title>140230114537232</title>
<g id="a_node4"><a xlink:title="Output: 728917 rows in 128 chunks filtered: 0, 120 ms 327 µs.&#10;Operator step runtimes:&#10; ForwardUnmodifiedColumns 96 µs 571 ns&#10; EvaluateNewColumns 119 ms 928 µs&#10; BuildOutput 265 µs 849 ns.">
<polygon fill="none" stroke="white" points="792.5,-2192 670.5,-2192 670.5,-2138 792.5,-2138 792.5,-2192"/>
<text text-anchor="middle" x="731.5" y="-2176.8" font-family="Times,serif" font-size="14.00" fill="white">Projection</text>
<text text-anchor="middle" x="731.5" y="-2145.8" font-family="Times,serif" font-size="14.00" fill="white">120 ms 327 µs</text>
</a>
</g>
</g>
<!-- 140230114537232&#45;&gt;140548088287248 -->
<g id="edge3" class="edge">
<title>140230114537232&#45;&gt;140548088287248</title>
<path fill="none" stroke="white" d="M731.5,-2192.19C731.5,-2204.1 731.5,-2218.63 731.5,-2232.58"/>
<polygon fill="white" stroke="white" points="728,-2232.59 731.5,-2242.59 735,-2232.59 728,-2232.59"/>
<text text-anchor="middle" x="834" y="-2213.8" font-family="Times,serif" font-size="14.00" fill="white">728,917 row(s)/128 chunk(s)</text>
</g>
<!-- 140230114536912 -->
<g id="node5" class="node">
<title>140230114536912</title>
<g id="a_node5"><a xlink:title="Output: 728917 rows in 128 chunks filtered: 0, 44 ms 390 µs.&#10;Chunks: 0 skipped with no results, &#10;0 skipped with all matching, 0 scanned using binary search.">
<polygon fill="none" stroke="white" points="834.5,-2087 628.5,-2087 628.5,-2003 834.5,-2003 834.5,-2087"/>
<text text-anchor="middle" x="731.5" y="-2071.8" font-family="Times,serif" font-size="14.00" fill="white">TableScan</text>
<text text-anchor="middle" x="731.5" y="-2056.8" font-family="Times,serif" font-size="14.00" fill="white">Impl: ColumnVsColumn</text>
<text text-anchor="middle" x="731.5" y="-2041.8" font-family="Times,serif" font-size="14.00" fill="white">c_nationkey = s_nationkey</text>
<text text-anchor="middle" x="731.5" y="-2010.8" font-family="Times,serif" font-size="14.00" fill="white">44 ms 390 µs</text>
</a>
</g>
</g>
<!-- 140230114536912&#45;&gt;140230114537232 -->
<g id="edge4" class="edge">
<title>140230114536912&#45;&gt;140230114537232</title>
<path fill="none" stroke="white" d="M731.5,-2087.27C731.5,-2100.36 731.5,-2114.72 731.5,-2127.45"/>
<polygon fill="white" stroke="white" points="728,-2127.69 731.5,-2137.69 735,-2127.69 728,-2127.69"/>
<text text-anchor="middle" x="834" y="-2108.8" font-family="Times,serif" font-size="14.00" fill="white">728,917 row(s)/128 chunk(s)</text>
</g>
<!-- 140230114536592 -->
<g id="node6" class="node">
<title>140230114536592</title>
<g id="a_node6"><a xlink:title="Output: 18217985 rows in 128 chunks filtered: 0, 300 ms 193 µs.&#10;Operator step runtimes:&#10; BuildSideMaterializing 5 ms 274 µs&#10; ProbeSideMaterializing 140 ms 968 µs&#10; Clustering 18 ms 210 µs&#10; Building 39 ms 95 µs&#10; Probing 29 ms 613 µs&#10; OutputWriting 65 ms 424 µs.&#10;Radix bits: 7.&#10;Build side is right.">
<polygon fill="none" stroke="white" stroke-width="2.18" points="819.5,-1952 643.5,-1952 643.5,-1883 819.5,-1883 819.5,-1952"/>
<text text-anchor="middle" x="731.5" y="-1936.8" font-family="Times,serif" font-size="14.00" fill="white">JoinHash (Inner)</text>
<text text-anchor="middle" x="731.5" y="-1921.8" font-family="Times,serif" font-size="14.00" fill="white">o_custkey = c_custkey</text>
<text text-anchor="middle" x="731.5" y="-1890.8" font-family="Times,serif" font-size="14.00" fill="white">300 ms 193 µs</text>
</a>
</g>
</g>
<!-- 140230114536592&#45;&gt;140230114536912 -->
<g id="edge5" class="edge">
<title>140230114536592&#45;&gt;140230114536912</title>
<path fill="none" stroke="white" d="M731.5,-1952.13C731.5,-1964.51 731.5,-1978.84 731.5,-1992.44"/>
<polygon fill="white" stroke="white" points="728,-1992.65 731.5,-2002.65 735,-1992.65 728,-1992.65"/>
<text text-anchor="middle" x="845.5" y="-1973.8" font-family="Times,serif" font-size="14.00" fill="white">18,217,985 row(s)/128 chunk(s)</text>
</g>
<!-- 140230114536272 -->
<g id="node7" class="node">
<title>140230114536272</title>
<g id="a_node7"><a xlink:title="Output: 18217985 rows in 32 chunks filtered: 0, 3 s 179 ms.&#10;Operator step runtimes:&#10; BuildSideMaterializing 2 s 692 ms&#10; ProbeSideMaterializing 79 ms 837 µs&#10; Clustering 165 ms 110 µs&#10; Building 148 ms 512 µs&#10; Probing 50 ms 13 µs&#10; OutputWriting 43 ms 165 µs.&#10;Radix bits: 7.&#10;Build side is right.">
<polygon fill="none" stroke="white" stroke-width="8" points="706,-1832 515,-1832 515,-1763 706,-1763 706,-1832"/>
<text text-anchor="middle" x="610.5" y="-1816.8" font-family="Times,serif" font-size="14.00" fill="white">JoinHash (Inner)</text>
<text text-anchor="middle" x="610.5" y="-1801.8" font-family="Times,serif" font-size="14.00" fill="white">o_orderkey = l_orderkey</text>
<text text-anchor="middle" x="610.5" y="-1770.8" font-family="Times,serif" font-size="14.00" fill="white">3 s 179 ms</text>
</a>
</g>
</g>
<!-- 140230114536272&#45;&gt;140230114536592 -->
<g id="edge6" class="edge">
<title>140230114536272&#45;&gt;140230114536592</title>
<path fill="none" stroke="white" d="M603.99,-1832.14C603.55,-1843.41 605.14,-1855.5 611.5,-1865 617.59,-1874.09 625.64,-1881.57 634.7,-1887.75"/>
<polygon fill="white" stroke="white" points="634.78,-1887.79 632.93,-1890.77 643.28,-1893.06 634.78,-1887.79"/>
<text text-anchor="middle" x="721" y="-1853.8" font-family="Times,serif" font-size="14.00" fill="white">18,217,985 row(s)/32 chunk(s)</text>
</g>
<!-- 140548088295952 -->
<g id="node8" class="node">
<title>140548088295952</title>
<g id="a_node8"><a xlink:title="Output: 22760815 rows in 2289 chunks filtered: 0, 4 ms 547 µs.">
<polygon fill="none" stroke="white" points="387.5,-1314.5 283.5,-1314.5 283.5,-1260.5 387.5,-1260.5 387.5,-1314.5"/>
<text text-anchor="middle" x="335.5" y="-1299.3" font-family="Times,serif" font-size="14.00" fill="white">Validate</text>
<text text-anchor="middle" x="335.5" y="-1268.3" font-family="Times,serif" font-size="14.00" fill="white">4 ms 547 µs</text>
</a>
</g>
</g>
<!-- 140548088295952&#45;&gt;140230114536272 -->
<g id="edge7" class="edge">
<title>140548088295952&#45;&gt;140230114536272</title>
<path fill="none" stroke="white" d="M335.5,-1314.75C335.5,-1338.66 335.5,-1374.95 335.5,-1406.5 335.5,-1406.5 335.5,-1406.5 335.5,-1656 335.5,-1735.31 427.32,-1769.87 504.84,-1784.92"/>
<polygon fill="white" stroke="white" points="504.87,-1784.93 504.23,-1788.37 514.7,-1786.75 504.87,-1784.93"/>
<text text-anchor="middle" x="456" y="-1516.3" font-family="Times,serif" font-size="14.00" fill="white">22,760,815 row(s)/2,289 chunk(s)</text>
</g>
<!-- 140230114535632 -->
<g id="node13" class="node">
<title>140230114535632</title>
<g id="a_node13"><a xlink:title="Output: 18217985 rows in 64 chunks filtered: 0, 1 s 779 ms.&#10;Operator step runtimes:&#10; BuildSideMaterializing 48 ms 118 µs&#10; ProbeSideMaterializing 991 ms 437 µs&#10; Clustering 566 ms 637 µs&#10; Building 21 ms 104 µs&#10; Probing 43 ms 722 µs&#10; OutputWriting 18 ms 187 µs.&#10;Radix bits: 8.&#10;Build side is right.">
<polygon fill="none" stroke="white" stroke-width="6.57" points="744.5,-1442 536.5,-1442 536.5,-1373 744.5,-1373 744.5,-1442"/>
<text text-anchor="middle" x="640.5" y="-1426.8" font-family="Times,serif" font-size="14.00" fill="white">JoinHash (Semi Reduction)</text>
<text text-anchor="middle" x="640.5" y="-1411.8" font-family="Times,serif" font-size="14.00" fill="white">l_orderkey = o_orderkey</text>
<text text-anchor="middle" x="640.5" y="-1380.8" font-family="Times,serif" font-size="14.00" fill="white">1 s 779 ms</text>
</a>
</g>
</g>
<!-- 140548088295952&#45;&gt;140230114535632 -->
<g id="edge8" class="edge">
<title>140548088295952&#45;&gt;140230114535632</title>
<path fill="none" stroke="white" d="M352.81,-1314.64C363.48,-1328.71 378.38,-1345.15 395.5,-1355 435,-1377.72 483.23,-1390.47 526.42,-1397.6"/>
<polygon fill="white" stroke="white" points="536.42,-1399.17 527.08,-1394.16 526.54,-1397.62 536.42,-1399.17"/>
<text text-anchor="middle" x="516" y="-1343.8" font-family="Times,serif" font-size="14.00" fill="white">22,760,815 row(s)/2,289 chunk(s)</text>
</g>
<!-- 140230114533712 -->
<g id="node9" class="node">
<title>140230114533712</title>
<g id="a_node9"><a xlink:title="Output: 22760815 rows in 2289 chunks filtered: 0, 9 ms 422 µs.&#10;Chunks: 0 skipped with no results, &#10;0 skipped with all matching, 0 scanned using binary search.">
<polygon fill="none" stroke="white" points="425,-1194.5 0,-1194.5 0,-1095.5 425,-1095.5 425,-1194.5"/>
<text text-anchor="middle" x="212.5" y="-1179.3" font-family="Times,serif" font-size="14.00" fill="white">TableScan</text>
<text text-anchor="middle" x="212.5" y="-1164.3" font-family="Times,serif" font-size="14.00" fill="white">Impl: ColumnBetween</text>
<text text-anchor="middle" x="212.5" y="-1149.3" font-family="Times,serif" font-size="14.00" fill="white">o_orderdate BETWEEN UPPER EXCLUSIVE &#39;1997&#45;01&#45;01&#39;</text>
<text text-anchor="middle" x="212.5" y="-1134.3" font-family="Times,serif" font-size="14.00" fill="white">AND &#39;1998&#45;01&#45;01&#39;</text>
<text text-anchor="middle" x="212.5" y="-1103.3" font-family="Times,serif" font-size="14.00" fill="white">9 ms 422 µs</text>
</a>
</g>
</g>
<!-- 140230114533712&#45;&gt;140548088295952 -->
<g id="edge9" class="edge">
<title>140230114533712&#45;&gt;140548088295952</title>
<path fill="none" stroke="white" d="M223.71,-1194.54C228.68,-1208.69 235.7,-1223.43 245.5,-1235 253.58,-1244.54 263.9,-1252.69 274.65,-1259.5"/>
<polygon fill="white" stroke="white" points="272.95,-1262.56 283.33,-1264.69 276.54,-1256.55 272.95,-1262.56"/>
<text text-anchor="middle" x="366" y="-1223.8" font-family="Times,serif" font-size="14.00" fill="white">22,760,815 row(s)/2,289 chunk(s)</text>
</g>
<!-- 140230114553872 -->
<g id="node10" class="node">
<title>140230114553872</title>
<g id="a_node10"><a xlink:title="Output: 150000000 rows in 2289 chunks filtered: 0, 4 ms 118 µs.">
<polygon fill="none" stroke="white" points="278,-1037 147,-1037 147,-923 278,-923 278,-1037"/>
<text text-anchor="middle" x="212.5" y="-1021.8" font-family="Times,serif" font-size="14.00" fill="white">GetTable</text>
<text text-anchor="middle" x="212.5" y="-1006.8" font-family="Times,serif" font-size="14.00" fill="white">(orders)</text>
<text text-anchor="middle" x="212.5" y="-991.8" font-family="Times,serif" font-size="14.00" fill="white">pruned:</text>
<text text-anchor="middle" x="212.5" y="-976.8" font-family="Times,serif" font-size="14.00" fill="white">0/2289 chunk(s)</text>
<text text-anchor="middle" x="212.5" y="-961.8" font-family="Times,serif" font-size="14.00" fill="white">6/9 column(s)</text>
<text text-anchor="middle" x="212.5" y="-930.8" font-family="Times,serif" font-size="14.00" fill="white">4 ms 118 µs</text>
</a>
</g>
</g>
<!-- 140230114553872&#45;&gt;140230114533712 -->
<g id="edge10" class="edge">
<title>140230114553872&#45;&gt;140230114533712</title>
<path fill="none" stroke="white" stroke-width="4.58" d="M212.5,-1037.1C212.5,-1052.66 212.5,-1069.59 212.5,-1085.3"/>
<polygon fill="white" stroke="white" stroke-width="4.58" points="208.49,-1085.42 212.5,-1095.42 216.51,-1085.42 208.49,-1085.42"/>
<text text-anchor="middle" x="337.5" y="-1058.8" font-family="Times,serif" font-size="14.00" fill="white">150,000,000 row(s)/2,289 chunk(s)</text>
</g>
<!-- 140230114535952 -->
<g id="node11" class="node">
<title>140230114535952</title>
<g id="a_node11"><a xlink:title="Output: 18217985 rows in 2 chunks filtered: 0, 1 s 14 ms.&#10;Operator step runtimes:&#10; BuildSideMaterializing 422 µs 383 ns&#10; ProbeSideMaterializing 433 ms 905 µs&#10; Clustering 16 ms 782 µs&#10; Building 3 ms 808 µs&#10; Probing 331 ms 581 µs&#10; OutputWriting 227 ms 250 µs.&#10;Radix bits: 1.&#10;Build side is right.">
<polygon fill="none" stroke="white" stroke-width="5.18" points="742.5,-1689.5 560.5,-1689.5 560.5,-1620.5 742.5,-1620.5 742.5,-1689.5"/>
<text text-anchor="middle" x="651.5" y="-1674.3" font-family="Times,serif" font-size="14.00" fill="white">JoinHash (Inner)</text>
<text text-anchor="middle" x="651.5" y="-1659.3" font-family="Times,serif" font-size="14.00" fill="white">l_suppkey = s_suppkey</text>
<text text-anchor="middle" x="651.5" y="-1628.3" font-family="Times,serif" font-size="14.00" fill="white">1 s 14 ms</text>
</a>
</g>
</g>
<!-- 140230114535952&#45;&gt;140230114536272 -->
<g id="edge11" class="edge">
<title>140230114535952&#45;&gt;140230114536272</title>
<path fill="none" stroke="white" d="M641.68,-1689.65C636.14,-1708.63 629.16,-1732.55 623.21,-1752.94"/>
<polygon fill="white" stroke="white" points="620.38,-1762.63 626.54,-1754.02 623.18,-1753.03 620.38,-1762.63"/>
<text text-anchor="middle" x="735.5" y="-1733.8" font-family="Times,serif" font-size="14.00" fill="white">18,217,985 row(s)/2 chunk(s)</text>
</g>
<!-- 140548088297232 -->
<g id="node12" class="node">
<title>140548088297232</title>
<g id="a_node12"><a xlink:title="Output: 18217985 rows in 64 chunks filtered: 0, 21 ms 359 µs.">
<polygon fill="none" stroke="white" points="708,-1547 595,-1547 595,-1493 708,-1493 708,-1547"/>
<text text-anchor="middle" x="651.5" y="-1531.8" font-family="Times,serif" font-size="14.00" fill="white">Validate</text>
<text text-anchor="middle" x="651.5" y="-1500.8" font-family="Times,serif" font-size="14.00" fill="white">21 ms 359 µs</text>
</a>
</g>
</g>
<!-- 140548088297232&#45;&gt;140230114535952 -->
<g id="edge12" class="edge">
<title>140548088297232&#45;&gt;140230114535952</title>
<path fill="none" stroke="white" d="M651.5,-1547.28C651.5,-1565.15 651.5,-1589.24 651.5,-1610"/>
<polygon fill="white" stroke="white" points="651.5,-1610.2 648,-1610.2 651.5,-1620.2 651.5,-1610.2"/>
<text text-anchor="middle" x="761" y="-1568.8" font-family="Times,serif" font-size="14.00" fill="white">18,217,985 row(s)/64 chunk(s)</text>
</g>
<!-- 140230114535632&#45;&gt;140548088297232 -->
<g id="edge13" class="edge">
<title>140230114535632&#45;&gt;140548088297232</title>
<path fill="none" stroke="white" d="M643.86,-1442.25C645.14,-1455.07 646.59,-1469.73 647.89,-1482.77"/>
<polygon fill="white" stroke="white" points="644.42,-1483.21 648.89,-1492.81 651.39,-1482.52 644.42,-1483.21"/>
<text text-anchor="middle" x="757" y="-1463.8" font-family="Times,serif" font-size="14.00" fill="white">18,217,985 row(s)/64 chunk(s)</text>
</g>
<!-- 140230114535312 -->
<g id="node14" class="node">
<title>140230114535312</title>
<g id="a_node14"><a xlink:title="Output: 120078639 rows in 2 chunks filtered: 479959263, 1 s 138 ms.&#10;Operator step runtimes:&#10; BuildSideMaterializing 1 ms 336 µs&#10; ProbeSideMaterializing 183 ms 864 µs&#10; Clustering 99 ms 19 µs&#10; Building 1 ms 409 µs&#10; Probing 847 ms 768 µs&#10; OutputWriting 69 µs 741 ns.&#10;Radix bits: 1.&#10;Build side is right.">
<polygon fill="none" stroke="white" stroke-width="5.47" points="744.5,-1322 536.5,-1322 536.5,-1253 744.5,-1253 744.5,-1322"/>
<text text-anchor="middle" x="640.5" y="-1306.8" font-family="Times,serif" font-size="14.00" fill="white">JoinHash (Semi Reduction)</text>
<text text-anchor="middle" x="640.5" y="-1291.8" font-family="Times,serif" font-size="14.00" fill="white">l_suppkey = s_suppkey</text>
<text text-anchor="middle" x="640.5" y="-1260.8" font-family="Times,serif" font-size="14.00" fill="white">1 s 138 ms</text>
</a>
</g>
</g>
<!-- 140230114535312&#45;&gt;140230114535632 -->
<g id="edge14" class="edge">
<title>140230114535312&#45;&gt;140230114535632</title>
<path fill="none" stroke="white" stroke-width="4.03" d="M640.5,-1322.31C640.5,-1334.78 640.5,-1349.1 640.5,-1362.34"/>
<polygon fill="white" stroke="white" stroke-width="4.03" points="640.5,-1362.68 636.97,-1362.68 640.5,-1372.68 640.5,-1362.68"/>
<text text-anchor="middle" x="750" y="-1343.8" font-family="Times,serif" font-size="14.00" fill="white">120,078,639 row(s)/2 chunk(s)</text>
</g>
<!-- 140230114554320 -->
<g id="node15" class="node">
<title>140230114554320</title>
<g id="a_node15"><a xlink:title="Output: 600037902 rows in 9156 chunks filtered: 0, 19 ms 794 µs.">
<polygon fill="none" stroke="white" points="574,-1202 443,-1202 443,-1088 574,-1088 574,-1202"/>
<text text-anchor="middle" x="508.5" y="-1186.8" font-family="Times,serif" font-size="14.00" fill="white">GetTable</text>
<text text-anchor="middle" x="508.5" y="-1171.8" font-family="Times,serif" font-size="14.00" fill="white">(lineitem)</text>
<text text-anchor="middle" x="508.5" y="-1156.8" font-family="Times,serif" font-size="14.00" fill="white">pruned:</text>
<text text-anchor="middle" x="508.5" y="-1141.8" font-family="Times,serif" font-size="14.00" fill="white">0/9156 chunk(s)</text>
<text text-anchor="middle" x="508.5" y="-1126.8" font-family="Times,serif" font-size="14.00" fill="white">12/16 column(s)</text>
<text text-anchor="middle" x="508.5" y="-1095.8" font-family="Times,serif" font-size="14.00" fill="white">19 ms 794 µs</text>
</a>
</g>
</g>
<!-- 140230114554320&#45;&gt;140230114535312 -->
<g id="edge15" class="edge">
<title>140230114554320&#45;&gt;140230114535312</title>
<path fill="none" stroke="white" stroke-width="8" d="M499.43,-1202.25C500.11,-1213.87 502.92,-1225.46 509.5,-1235 514.54,-1242.3 520.78,-1248.57 527.78,-1253.95"/>
<polygon fill="white" stroke="white" stroke-width="8" points="528.1,-1254.17 524.12,-1259.93 536.33,-1259.86 528.1,-1254.17"/>
<text text-anchor="middle" x="634.5" y="-1223.8" font-family="Times,serif" font-size="14.00" fill="white">600,037,902 row(s)/9,156 chunk(s)</text>
</g>
<!-- 140230114534992 -->
<g id="node16" class="node">
<title>140230114534992</title>
<g id="a_node16"><a xlink:title="Output: 200123 rows in 16 chunks filtered: 0, 1 ms 165 µs.&#10;Operator step runtimes:&#10; BuildSideMaterializing 24 µs 336 ns&#10; ProbeSideMaterializing 384 µs 301 ns&#10; Clustering 0 ns&#10; Building 2 µs 285 ns&#10; Probing 303 µs 690 ns&#10; OutputWriting 353 µs 584 ns.&#10;Radix bits: 0.&#10;Build side is right.">
<polygon fill="none" stroke="white" points="990,-1179.5 783,-1179.5 783,-1110.5 990,-1110.5 990,-1179.5"/>
<text text-anchor="middle" x="886.5" y="-1164.3" font-family="Times,serif" font-size="14.00" fill="white">JoinHash (Inner)</text>
<text text-anchor="middle" x="886.5" y="-1149.3" font-family="Times,serif" font-size="14.00" fill="white">s_nationkey = n_nationkey</text>
<text text-anchor="middle" x="886.5" y="-1118.3" font-family="Times,serif" font-size="14.00" fill="white">1 ms 165 µs</text>
</a>
</g>
</g>
<!-- 140230114534992&#45;&gt;140230114535952 -->
<g id="edge17" class="edge">
<title>140230114534992&#45;&gt;140230114535952</title>
<path fill="none" stroke="white" d="M940.69,-1179.54C954.93,-1190.77 968.96,-1204.45 978.5,-1220 994.3,-1245.74 992.5,-1256.3 992.5,-1286.5 992.5,-1286.5 992.5,-1286.5 992.5,-1521 992.5,-1620.41 877.51,-1568.76 782.5,-1598 765.9,-1603.11 748.55,-1609.63 732.11,-1616.4"/>
<polygon fill="white" stroke="white" points="722.55,-1620.41 733.13,-1619.77 731.77,-1616.54 722.55,-1620.41"/>
<text text-anchor="middle" x="1090.5" y="-1403.8" font-family="Times,serif" font-size="14.00" fill="white">200,123 row(s)/16 chunk(s)</text>
</g>
<!-- 140230114534992&#45;&gt;140230114535312 -->
<g id="edge16" class="edge">
<title>140230114534992&#45;&gt;140230114535312</title>
<path fill="none" stroke="white" d="M839.36,-1179.73C806.81,-1202.89 767.93,-1230.29 759.5,-1235 751.19,-1239.65 742.37,-1244.17 733.45,-1248.47"/>
<polygon fill="white" stroke="white" points="724.13,-1252.87 734.66,-1251.77 733.17,-1248.6 724.13,-1252.87"/>
<text text-anchor="middle" x="878.5" y="-1223.8" font-family="Times,serif" font-size="14.00" fill="white">200,123 row(s)/16 chunk(s)</text>
</g>
<!-- 140548088296720 -->
<g id="node17" class="node">
<title>140548088296720</title>
<g id="a_node17"><a xlink:title="Output: 200123 rows in 16 chunks filtered: 0, 65 µs 803 ns.">
<polygon fill="none" stroke="white" points="1060.5,-1007 952.5,-1007 952.5,-953 1060.5,-953 1060.5,-1007"/>
<text text-anchor="middle" x="1006.5" y="-991.8" font-family="Times,serif" font-size="14.00" fill="white">Validate</text>
<text text-anchor="middle" x="1006.5" y="-960.8" font-family="Times,serif" font-size="14.00" fill="white">65 µs 803 ns</text>
</a>
</g>
</g>
<!-- 140548088296720&#45;&gt;140230114534992 -->
<g id="edge18" class="edge">
<title>140548088296720&#45;&gt;140230114534992</title>
<path fill="none" stroke="white" d="M987.22,-1007.19C968.39,-1032.77 939.42,-1072.12 917.37,-1102.06"/>
<polygon fill="white" stroke="white" points="917.28,-1102.19 914.46,-1100.11 911.35,-1110.24 917.28,-1102.19"/>
<text text-anchor="middle" x="1047.5" y="-1058.8" font-family="Times,serif" font-size="14.00" fill="white">200,123 row(s)/16 chunk(s)</text>
</g>
<!-- 140230114534672 -->
<g id="node18" class="node">
<title>140230114534672</title>
<g id="a_node18"><a xlink:title="Output: 200123 rows in 16 chunks filtered: 799877, 1 ms 146 µs.&#10;Operator step runtimes:&#10; BuildSideMaterializing 25 µs 809 ns&#10; ProbeSideMaterializing 631 µs 555 ns&#10; Clustering 0 ns&#10; Building 1 µs 223 ns&#10; Probing 174 µs 858 ns&#10; OutputWriting 144 µs 852 ns.&#10;Radix bits: 0.&#10;Build side is right.">
<polygon fill="none" stroke="white" points="1130.5,-872 922.5,-872 922.5,-803 1130.5,-803 1130.5,-872"/>
<text text-anchor="middle" x="1026.5" y="-856.8" font-family="Times,serif" font-size="14.00" fill="white">JoinHash (Semi Reduction)</text>
<text text-anchor="middle" x="1026.5" y="-841.8" font-family="Times,serif" font-size="14.00" fill="white">s_nationkey = n_nationkey</text>
<text text-anchor="middle" x="1026.5" y="-810.8" font-family="Times,serif" font-size="14.00" fill="white">1 ms 146 µs</text>
</a>
</g>
</g>
<!-- 140230114534672&#45;&gt;140548088296720 -->
<g id="edge19" class="edge">
<title>140230114534672&#45;&gt;140548088296720</title>
<path fill="none" stroke="white" d="M1021.71,-872.15C1018.69,-893.36 1014.79,-920.75 1011.7,-942.48"/>
<polygon fill="white" stroke="white" points="1008.2,-942.25 1010.25,-952.65 1015.13,-943.24 1008.2,-942.25"/>
<text text-anchor="middle" x="1116.5" y="-893.8" font-family="Times,serif" font-size="14.00" fill="white">200,123 row(s)/16 chunk(s)</text>
</g>
<!-- 140230114554768 -->
<g id="node19" class="node">
<title>140230114554768</title>
<g id="a_node19"><a xlink:title="Output: 1000000 rows in 16 chunks filtered: 0, 111 µs 720 ns.">
<polygon fill="none" stroke="white" points="1118,-752 1001,-752 1001,-638 1118,-638 1118,-752"/>
<text text-anchor="middle" x="1059.5" y="-736.8" font-family="Times,serif" font-size="14.00" fill="white">GetTable</text>
<text text-anchor="middle" x="1059.5" y="-721.8" font-family="Times,serif" font-size="14.00" fill="white">(supplier)</text>
<text text-anchor="middle" x="1059.5" y="-706.8" font-family="Times,serif" font-size="14.00" fill="white">pruned:</text>
<text text-anchor="middle" x="1059.5" y="-691.8" font-family="Times,serif" font-size="14.00" fill="white">0/16 chunk(s)</text>
<text text-anchor="middle" x="1059.5" y="-676.8" font-family="Times,serif" font-size="14.00" fill="white">5/7 column(s)</text>
<text text-anchor="middle" x="1059.5" y="-645.8" font-family="Times,serif" font-size="14.00" fill="white">111 µs 720 ns</text>
</a>
</g>
</g>
<!-- 140230114554768&#45;&gt;140230114534672 -->
<g id="edge20" class="edge">
<title>140230114554768&#45;&gt;140230114534672</title>
<path fill="none" stroke="white" d="M1046.27,-752.34C1043.1,-765.83 1039.76,-780.04 1036.75,-792.86"/>
<polygon fill="white" stroke="white" points="1036.7,-793.07 1033.29,-792.27 1034.41,-802.8 1036.7,-793.07"/>
<text text-anchor="middle" x="1146.5" y="-773.8" font-family="Times,serif" font-size="14.00" fill="white">1,000,000 row(s)/16 chunk(s)</text>
</g>
<!-- 140548088296464 -->
<g id="node20" class="node">
<title>140548088296464</title>
<g id="a_node20"><a xlink:title="Output: 5 rows in 1 chunk filtered: 0, 4 µs 379 ns.">
<polygon fill="none" stroke="white" points="932,-722 833,-722 833,-668 932,-668 932,-722"/>
<text text-anchor="middle" x="882.5" y="-706.8" font-family="Times,serif" font-size="14.00" fill="white">Validate</text>
<text text-anchor="middle" x="882.5" y="-675.8" font-family="Times,serif" font-size="14.00" fill="white">4 µs 379 ns</text>
</a>
</g>
</g>
<!-- 140548088296464&#45;&gt;140230114534992 -->
<g id="edge22" class="edge">
<title>140548088296464&#45;&gt;140230114534992</title>
<path fill="none" stroke="white" d="M881.09,-722.03C879.14,-759.26 875.74,-829.84 874.5,-890 872.98,-963.76 878.56,-1049.46 882.61,-1100.08"/>
<polygon fill="white" stroke="white" points="883.45,-1110.33 886.13,-1100.08 882.64,-1100.36 883.45,-1110.33"/>
<text text-anchor="middle" x="943.5" y="-893.8" font-family="Times,serif" font-size="14.00" fill="white">5 row(s)/1 chunk(s)</text>
</g>
<!-- 140548088296464&#45;&gt;140230114534672 -->
<g id="edge21" class="edge">
<title>140548088296464&#45;&gt;140230114534672</title>
<path fill="none" stroke="white" d="M880.11,-722.1C879.76,-741.45 882.43,-767.41 896.5,-785 901.51,-791.26 907.4,-796.77 913.84,-801.61"/>
<polygon fill="white" stroke="white" points="922.29,-807.38 916.01,-798.85 914.04,-801.74 922.29,-807.38"/>
<text text-anchor="middle" x="965.5" y="-773.8" font-family="Times,serif" font-size="14.00" fill="white">5 row(s)/1 chunk(s)</text>
</g>
<!-- 140230114534352 -->
<g id="node21" class="node">
<title>140230114534352</title>
<g id="a_node21"><a xlink:title="Output: 5 rows in 1 chunk filtered: 20, 112 µs 792 ns.&#10;Operator step runtimes:&#10; BuildSideMaterializing 43 µs 362 ns&#10; ProbeSideMaterializing 27 µs 40 ns&#10; Clustering 0 ns&#10; Building 5 µs 541 ns&#10; Probing 3 µs 437 ns&#10; OutputWriting 13 µs 786 ns.&#10;Radix bits: 0.&#10;Build side is right.">
<polygon fill="none" stroke="white" points="986.5,-587 778.5,-587 778.5,-518 986.5,-518 986.5,-587"/>
<text text-anchor="middle" x="882.5" y="-571.8" font-family="Times,serif" font-size="14.00" fill="white">JoinHash (Semi)</text>
<text text-anchor="middle" x="882.5" y="-556.8" font-family="Times,serif" font-size="14.00" fill="white">n_regionkey = r_regionkey</text>
<text text-anchor="middle" x="882.5" y="-525.8" font-family="Times,serif" font-size="14.00" fill="white">112 µs 792 ns</text>
</a>
</g>
</g>
<!-- 140230114534352&#45;&gt;140548088296464 -->
<g id="edge23" class="edge">
<title>140230114534352&#45;&gt;140548088296464</title>
<path fill="none" stroke="white" d="M882.5,-587.15C882.5,-608.36 882.5,-635.75 882.5,-657.48"/>
<polygon fill="white" stroke="white" points="879,-657.65 882.5,-667.65 886,-657.65 879,-657.65"/>
<text text-anchor="middle" x="951.5" y="-608.8" font-family="Times,serif" font-size="14.00" fill="white">5 row(s)/1 chunk(s)</text>
</g>
<!-- 140230114555216 -->
<g id="node22" class="node">
<title>140230114555216</title>
<g id="a_node22"><a xlink:title="Output: 25 rows in 1 chunk filtered: 0, 27 µs 882 ns.">
<polygon fill="none" stroke="white" points="854,-467 741,-467 741,-353 854,-353 854,-467"/>
<text text-anchor="middle" x="797.5" y="-451.8" font-family="Times,serif" font-size="14.00" fill="white">GetTable</text>
<text text-anchor="middle" x="797.5" y="-436.8" font-family="Times,serif" font-size="14.00" fill="white">(nation)</text>
<text text-anchor="middle" x="797.5" y="-421.8" font-family="Times,serif" font-size="14.00" fill="white">pruned:</text>
<text text-anchor="middle" x="797.5" y="-406.8" font-family="Times,serif" font-size="14.00" fill="white">0/1 chunk(s)</text>
<text text-anchor="middle" x="797.5" y="-391.8" font-family="Times,serif" font-size="14.00" fill="white">1/4 column(s)</text>
<text text-anchor="middle" x="797.5" y="-360.8" font-family="Times,serif" font-size="14.00" fill="white">27 µs 882 ns</text>
</a>
</g>
</g>
<!-- 140230114555216&#45;&gt;140230114534352 -->
<g id="edge24" class="edge">
<title>140230114555216&#45;&gt;140230114534352</title>
<path fill="none" stroke="white" d="M789.77,-467.38C790.46,-478.74 792.93,-490.19 798.5,-500 800.64,-503.77 803.17,-507.29 806.01,-510.59"/>
<polygon fill="white" stroke="white" points="806.13,-510.71 803.62,-513.15 813.11,-517.86 806.13,-510.71"/>
<text text-anchor="middle" x="872" y="-488.8" font-family="Times,serif" font-size="14.00" fill="white">25 row(s)/1 chunk(s)</text>
</g>
<!-- 140548088296208 -->
<g id="node23" class="node">
<title>140548088296208</title>
<g id="a_node23"><a xlink:title="Output: 1 row in 1 chunk filtered: 0, 8 µs 356 ns.">
<polygon fill="none" stroke="white" points="1017,-437 918,-437 918,-383 1017,-383 1017,-437"/>
<text text-anchor="middle" x="967.5" y="-421.8" font-family="Times,serif" font-size="14.00" fill="white">Validate</text>
<text text-anchor="middle" x="967.5" y="-390.8" font-family="Times,serif" font-size="14.00" fill="white">8 µs 356 ns</text>
</a>
</g>
</g>
<!-- 140548088296208&#45;&gt;140230114534352 -->
<g id="edge25" class="edge">
<title>140548088296208&#45;&gt;140230114534352</title>
<path fill="none" stroke="white" d="M965.43,-437.26C962.95,-455.96 957.5,-481.03 945.5,-500 943.21,-503.63 940.57,-507.12 937.7,-510.45"/>
<polygon fill="white" stroke="white" points="930.66,-517.95 940.06,-513.06 937.51,-510.66 930.66,-517.95"/>
<text text-anchor="middle" x="1020.5" y="-488.8" font-family="Times,serif" font-size="14.00" fill="white">1 row(s)/1 chunk(s)</text>
</g>
<!-- 140230114534032 -->
<g id="node24" class="node">
<title>140230114534032</title>
<g id="a_node24"><a xlink:title="Output: 1 row in 1 chunk filtered: 0, 28 µs 112 ns.&#10;Chunks: 0 skipped with no results, &#10;0 skipped with all matching, 0 scanned using binary search.">
<polygon fill="none" stroke="white" points="1052,-302 883,-302 883,-218 1052,-218 1052,-302"/>
<text text-anchor="middle" x="967.5" y="-286.8" font-family="Times,serif" font-size="14.00" fill="white">TableScan</text>
<text text-anchor="middle" x="967.5" y="-271.8" font-family="Times,serif" font-size="14.00" fill="white">Impl: ColumnVsValue</text>
<text text-anchor="middle" x="967.5" y="-256.8" font-family="Times,serif" font-size="14.00" fill="white">r_name = &#39;AFRICA&#39;</text>
<text text-anchor="middle" x="967.5" y="-225.8" font-family="Times,serif" font-size="14.00" fill="white">28 µs 112 ns</text>
</a>
</g>
</g>
<!-- 140230114534032&#45;&gt;140548088296208 -->
<g id="edge26" class="edge">
<title>140230114534032&#45;&gt;140548088296208</title>
<path fill="none" stroke="white" d="M967.5,-302.23C967.5,-324.32 967.5,-351.31 967.5,-372.62"/>
<polygon fill="white" stroke="white" points="964,-372.88 967.5,-382.88 971,-372.88 964,-372.88"/>
<text text-anchor="middle" x="1036.5" y="-323.8" font-family="Times,serif" font-size="14.00" fill="white">1 row(s)/1 chunk(s)</text>
</g>
<!-- 140230114555664 -->
<g id="node25" class="node">
<title>140230114555664</title>
<g id="a_node25"><a xlink:title="Output: 5 rows in 1 chunk filtered: 0, 32 µs 571 ns.">
<polygon fill="none" stroke="white" points="1024,-140.5 911,-140.5 911,-26.5 1024,-26.5 1024,-140.5"/>
<text text-anchor="middle" x="967.5" y="-125.3" font-family="Times,serif" font-size="14.00" fill="white">GetTable</text>
<text text-anchor="middle" x="967.5" y="-110.3" font-family="Times,serif" font-size="14.00" fill="white">(region)</text>
<text text-anchor="middle" x="967.5" y="-95.3" font-family="Times,serif" font-size="14.00" fill="white">pruned:</text>
<text text-anchor="middle" x="967.5" y="-80.3" font-family="Times,serif" font-size="14.00" fill="white">0/1 chunk(s)</text>
<text text-anchor="middle" x="967.5" y="-65.3" font-family="Times,serif" font-size="14.00" fill="white">1/3 column(s)</text>
<text text-anchor="middle" x="967.5" y="-34.3" font-family="Times,serif" font-size="14.00" fill="white">32 µs 571 ns</text>
</a>
</g>
</g>
<!-- 140230114555664&#45;&gt;140230114534032 -->
<g id="edge27" class="edge">
<title>140230114555664&#45;&gt;140230114534032</title>
<path fill="none" stroke="white" d="M967.5,-140.67C967.5,-162.25 967.5,-186.74 967.5,-207.83"/>
<polygon fill="white" stroke="white" points="964,-207.87 967.5,-217.87 971,-207.87 964,-207.87"/>
<text text-anchor="middle" x="1036.5" y="-188.8" font-family="Times,serif" font-size="14.00" fill="white">5 row(s)/1 chunk(s)</text>
</g>
<!-- 140548088297488 -->
<g id="node26" class="node">
<title>140548088297488</title>
<g id="a_node26"><a xlink:title="Output: 15000000 rows in 229 chunks filtered: 0, 1 ms 181 µs.">
<polygon fill="none" stroke="white" points="904.5,-1824.5 800.5,-1824.5 800.5,-1770.5 904.5,-1770.5 904.5,-1824.5"/>
<text text-anchor="middle" x="852.5" y="-1809.3" font-family="Times,serif" font-size="14.00" fill="white">Validate</text>
<text text-anchor="middle" x="852.5" y="-1778.3" font-family="Times,serif" font-size="14.00" fill="white">1 ms 181 µs</text>
</a>
</g>
</g>
<!-- 140548088297488&#45;&gt;140230114536592 -->
<g id="edge28" class="edge">
<title>140548088297488&#45;&gt;140230114536592</title>
<path fill="none" stroke="white" d="M848.63,-1824.8C845.56,-1838.07 840.12,-1853.7 830.5,-1865 826.97,-1869.15 823.02,-1873.01 818.78,-1876.59"/>
<polygon fill="white" stroke="white" points="810.88,-1882.74 820.92,-1879.36 818.77,-1876.6 810.88,-1882.74"/>
<text text-anchor="middle" x="953.5" y="-1853.8" font-family="Times,serif" font-size="14.00" fill="white">15,000,000 row(s)/229 chunk(s)</text>
</g>
<!-- 140230114556112 -->
<g id="node27" class="node">
<title>140230114556112</title>
<g id="a_node27"><a xlink:title="Output: 15000000 rows in 229 chunks filtered: 0, 686 µs 529 ns.">
<polygon fill="none" stroke="white" points="913.5,-1712 791.5,-1712 791.5,-1598 913.5,-1598 913.5,-1712"/>
<text text-anchor="middle" x="852.5" y="-1696.8" font-family="Times,serif" font-size="14.00" fill="white">GetTable</text>
<text text-anchor="middle" x="852.5" y="-1681.8" font-family="Times,serif" font-size="14.00" fill="white">(customer)</text>
<text text-anchor="middle" x="852.5" y="-1666.8" font-family="Times,serif" font-size="14.00" fill="white">pruned:</text>
<text text-anchor="middle" x="852.5" y="-1651.8" font-family="Times,serif" font-size="14.00" fill="white">0/229 chunk(s)</text>
<text text-anchor="middle" x="852.5" y="-1636.8" font-family="Times,serif" font-size="14.00" fill="white">6/8 column(s)</text>
<text text-anchor="middle" x="852.5" y="-1605.8" font-family="Times,serif" font-size="14.00" fill="white">686 µs 529 ns</text>
</a>
</g>
</g>
<!-- 140230114556112&#45;&gt;140548088297488 -->
<g id="edge29" class="edge">
<title>140230114556112&#45;&gt;140548088297488</title>
<path fill="none" stroke="white" d="M852.5,-1712.34C852.5,-1728.43 852.5,-1745.54 852.5,-1760.1"/>
<polygon fill="white" stroke="white" points="849,-1760.2 852.5,-1770.2 856,-1760.2 849,-1760.2"/>
<text text-anchor="middle" x="966.5" y="-1733.8" font-family="Times,serif" font-size="14.00" fill="white">15,000,000 row(s)/229 chunk(s)</text>
</g>
<!-- 0 -->
<g id="node28" class="node">
<title>0</title>
<polygon fill="none" stroke="white" points="1042,-0.5 1042,-166.5 1363,-166.5 1363,-0.5 1042,-0.5"/>
<text text-anchor="middle" x="1202.5" y="-151.3" font-family="Times,serif" font-size="14.00" fill="white">Total by operator</text>
<polyline fill="none" stroke="white" points="1042,-143.5 1363,-143.5 "/>
<text text-anchor="end" x="1171" y="-128.3" font-family="Times,serif" font-size="14.00" fill="white">JoinHash </text>
<text text-anchor="end" x="1171" y="-113.3" font-family="Times,serif" font-size="14.00" fill="white"> Projection </text>
<text text-anchor="end" x="1171" y="-98.3" font-family="Times,serif" font-size="14.00" fill="white"> TableScan </text>
<text text-anchor="end" x="1171" y="-83.3" font-family="Times,serif" font-size="14.00" fill="white"> AggregateHash </text>
<text text-anchor="end" x="1171" y="-68.3" font-family="Times,serif" font-size="14.00" fill="white"> Validate </text>
<text text-anchor="end" x="1171" y="-53.3" font-family="Times,serif" font-size="14.00" fill="white"> GetTable </text>
<text text-anchor="end" x="1171" y="-38.3" font-family="Times,serif" font-size="14.00" fill="white"> Sort </text>
<text text-anchor="end" x="1171" y="-23.3" font-family="Times,serif" font-size="14.00" fill="white"> Alias </text>
<text text-anchor="end" x="1171" y="-8.3" font-family="Times,serif" font-size="14.00" fill="white">total</text>
<polyline fill="none" stroke="white" points="1179,-0.5 1179,-143.5 "/>
<text text-anchor="start" x="1187" y="-128.3" font-family="Times,serif" font-size="14.00" fill="white">7 s 412 ms </text>
<text text-anchor="start" x="1187" y="-113.3" font-family="Times,serif" font-size="14.00" fill="white"> 120 ms 327 µs </text>
<text text-anchor="start" x="1187" y="-98.3" font-family="Times,serif" font-size="14.00" fill="white"> 53 ms 840 µs </text>
<text text-anchor="start" x="1187" y="-83.3" font-family="Times,serif" font-size="14.00" fill="white"> 38 ms 906 µs </text>
<text text-anchor="start" x="1187" y="-68.3" font-family="Times,serif" font-size="14.00" fill="white"> 27 ms 165 µs </text>
<text text-anchor="start" x="1187" y="-53.3" font-family="Times,serif" font-size="14.00" fill="white"> 24 ms 771 µs </text>
<text text-anchor="start" x="1187" y="-38.3" font-family="Times,serif" font-size="14.00" fill="white"> 22 µs 713 ns </text>
<text text-anchor="start" x="1187" y="-23.3" font-family="Times,serif" font-size="14.00" fill="white"> 3 µs 907 ns </text>
<text text-anchor="start" x="1187" y="-8.3" font-family="Times,serif" font-size="14.00" fill="white"> 7 s 677 ms </text>
<polyline fill="none" stroke="white" points="1310,-0.5 1310,-143.5 "/>
<text text-anchor="start" x="1318" y="-128.3" font-family="Times,serif" font-size="14.00" fill="white">97 %</text>
<text text-anchor="start" x="1318" y="-113.3" font-family="Times,serif" font-size="14.00" fill="white">2 %</text>
<text text-anchor="start" x="1318" y="-98.3" font-family="Times,serif" font-size="14.00" fill="white">1 %</text>
<text text-anchor="start" x="1318" y="-83.3" font-family="Times,serif" font-size="14.00" fill="white">1 %</text>
<text text-anchor="start" x="1318" y="-68.3" font-family="Times,serif" font-size="14.00" fill="white">0 %</text>
<text text-anchor="start" x="1318" y="-53.3" font-family="Times,serif" font-size="14.00" fill="white">0 %</text>
<text text-anchor="start" x="1318" y="-38.3" font-family="Times,serif" font-size="14.00" fill="white">0 %</text>
<text text-anchor="start" x="1318" y="-23.3" font-family="Times,serif" font-size="14.00" fill="white">0 %</text>
<text text-anchor="start" x="1318" y="-8.3" font-family="Times,serif" font-size="14.00" fill="white"> </text>
</g>
</g>
</svg>
