<?xml version="1.0" encoding="UTF-8" standalone="no"?>
<!DOCTYPE svg PUBLIC "-//W3C//DTD SVG 1.1//EN"
 "http://www.w3.org/Graphics/SVG/1.1/DTD/svg11.dtd">
<!-- Generated by graphviz version 2.43.0 (0)
 -->
<!-- Title: G Pages: 1 -->
<svg width="1040pt" height="1670pt"
 viewBox="0.00 0.00 1039.50 1670.00" xmlns="http://www.w3.org/2000/svg" xmlns:xlink="http://www.w3.org/1999/xlink">
<g id="graph0" class="graph" transform="scale(1 1) rotate(0) translate(4 1666)">
<title>G</title>
<polygon fill="black" stroke="transparent" points="-4,4 -4,-1666 1035.5,-1666 1035.5,4 -4,4"/>
<text text-anchor="middle" x="319.5" y="-1646.8" font-family="Times,serif" font-size="14.00" fill="white">For tooltips with advanced information, hover your mouse over vertices or edge labels.</text>
<!-- 139965762617424 -->
<g id="node1" class="node">
<title>139965762617424</title>
<g id="a_node1"><a xlink:title="Output: 100 rows in 1 chunk, 13 µs 134 ns.&#10;Operator step runtimes:&#10; ForwardUnmodifiedColumns 4 µs 759 ns&#10; EvaluateNewColumns 821 ns&#10; BuildOutput 5 µs 771 ns.">
<polygon fill="none" stroke="white" points="633,-1607 525,-1607 525,-1553 633,-1553 633,-1607"/>
<text text-anchor="middle" x="579" y="-1591.8" font-family="Times,serif" font-size="14.00" fill="white">Projection</text>
<text text-anchor="middle" x="579" y="-1560.8" font-family="Times,serif" font-size="14.00" fill="white">13 µs 134 ns</text>
</a>
</g>
</g>
<!-- 140075338259472 -->
<g id="node2" class="node">
<title>140075338259472</title>
<g id="a_node2"><a xlink:title="Output: 100 rows in 1 chunk, 13 µs 636 ns.">
<polygon fill="none" stroke="white" points="633,-1502 525,-1502 525,-1448 633,-1448 633,-1502"/>
<text text-anchor="middle" x="579" y="-1486.8" font-family="Times,serif" font-size="14.00" fill="white">Limit</text>
<text text-anchor="middle" x="579" y="-1455.8" font-family="Times,serif" font-size="14.00" fill="white">13 µs 636 ns</text>
</a>
</g>
</g>
<!-- 140075338259472&#45;&gt;139965762617424 -->
<g id="edge1" class="edge">
<title>140075338259472&#45;&gt;139965762617424</title>
<path fill="none" stroke="white" d="M579,-1502.26C579,-1514.49 579,-1529.24 579,-1542.52"/>
<polygon fill="white" stroke="white" points="575.5,-1542.79 579,-1552.79 582.5,-1542.79 575.5,-1542.79"/>
<text text-anchor="middle" x="657" y="-1523.8" font-family="Times,serif" font-size="14.00" fill="white">100 row(s)/1 chunk(s)</text>
</g>
<!-- 139965762617744 -->
<g id="node3" class="node">
<title>139965762617744</title>
<g id="a_node3"><a xlink:title="Output: 529 rows in 1 chunk, 1 ms 813 µs.&#10;Operator step runtimes:&#10; MaterializeSortColumns 1 ms 592 µs&#10; Sort 186 µs 781 ns&#10; TemporaryResultWriting 1 µs 914 ns&#10; WriteOutput 26 µs 961 ns.">
<polygon fill="none" stroke="white" points="631,-1397 527,-1397 527,-1343 631,-1343 631,-1397"/>
<text text-anchor="middle" x="579" y="-1381.8" font-family="Times,serif" font-size="14.00" fill="white">Sort</text>
<text text-anchor="middle" x="579" y="-1350.8" font-family="Times,serif" font-size="14.00" fill="white">1 ms 813 µs</text>
</a>
</g>
</g>
<!-- 139965762617744&#45;&gt;140075338259472 -->
<g id="edge2" class="edge">
<title>139965762617744&#45;&gt;140075338259472</title>
<path fill="none" stroke="white" d="M579,-1397.26C579,-1409.49 579,-1424.24 579,-1437.52"/>
<polygon fill="white" stroke="white" points="575.5,-1437.79 579,-1447.79 582.5,-1437.79 575.5,-1437.79"/>
<text text-anchor="middle" x="657" y="-1418.8" font-family="Times,serif" font-size="14.00" fill="white">529 row(s)/1 chunk(s)</text>
</g>
<!-- 140075328803344 -->
<g id="node4" class="node">
<title>140075328803344</title>
<g id="a_node4"><a xlink:title="Output: 529 rows in 1 chunk, 2 ms 335 µs.&#10;Operator step runtimes:&#10; GroupByKeyPartitioning 1 ms 25 µs&#10; Aggregating 1 ms 239 µs&#10; GroupByColumnsWriting 35 µs 116 ns&#10; AggregateColumnsWriting 18 µs 53 ns&#10; OutputWriting 8 µs 706 ns.">
<polygon fill="none" stroke="white" points="661,-1292 497,-1292 497,-1148 661,-1148 661,-1292"/>
<text text-anchor="middle" x="579" y="-1276.8" font-family="Times,serif" font-size="14.00" fill="white">AggregateHash</text>
<text text-anchor="middle" x="579" y="-1261.8" font-family="Times,serif" font-size="14.00" fill="white">GroupBy {c_custkey,</text>
<text text-anchor="middle" x="579" y="-1246.8" font-family="Times,serif" font-size="14.00" fill="white">o_orderkey}</text>
<text text-anchor="middle" x="579" y="-1231.8" font-family="Times,serif" font-size="14.00" fill="white">SUM(l_quantity), </text>
<text text-anchor="middle" x="579" y="-1216.8" font-family="Times,serif" font-size="14.00" fill="white">ANY(c_name), </text>
<text text-anchor="middle" x="579" y="-1201.8" font-family="Times,serif" font-size="14.00" fill="white">ANY(o_totalprice), </text>
<text text-anchor="middle" x="579" y="-1186.8" font-family="Times,serif" font-size="14.00" fill="white">ANY(o_orderdate)</text>
<text text-anchor="middle" x="579" y="-1155.8" font-family="Times,serif" font-size="14.00" fill="white">2 ms 335 µs</text>
</a>
</g>
</g>
<!-- 140075328803344&#45;&gt;139965762617744 -->
<g id="edge3" class="edge">
<title>140075328803344&#45;&gt;139965762617744</title>
<path fill="none" stroke="white" d="M579,-1292.4C579,-1306.35 579,-1320.42 579,-1332.63"/>
<polygon fill="white" stroke="white" points="575.5,-1332.83 579,-1342.83 582.5,-1332.83 575.5,-1332.83"/>
<text text-anchor="middle" x="657" y="-1313.8" font-family="Times,serif" font-size="14.00" fill="white">529 row(s)/1 chunk(s)</text>
</g>
<!-- 139965762618064 -->
<g id="node5" class="node">
<title>139965762618064</title>
<g id="a_node5"><a xlink:title="Output: 3703 rows in 8 chunks, 104 ms 684 µs.&#10;Operator step runtimes:&#10; LeftSideMaterialize 89 ms 102 µs&#10; RightSideMaterialize 816 µs 934 ns&#10; LeftSideTransform 0 ns&#10; RightSideTransform 0 ns&#10; LeftSidePartition 7 ms 322 µs&#10; RightSidePartition 247 µs 244 ns&#10; LeftSideSortBuckets 871 µs 766 ns&#10; RightSideSortBuckets 823 µs 406 ns&#10; GatherRowIds 2 µs 304 ns&#10; FindJoinPartner 289 µs 254 ns&#10; OutputWriting 2 ms 541 µs.">
<polygon fill="none" stroke="white" points="684.5,-1097 473.5,-1097 473.5,-1028 684.5,-1028 684.5,-1097"/>
<text text-anchor="middle" x="579" y="-1081.8" font-family="Times,serif" font-size="14.00" fill="white">JoinSimdSortMerge (Inner)</text>
<text text-anchor="middle" x="579" y="-1066.8" font-family="Times,serif" font-size="14.00" fill="white">l_orderkey = o_orderkey</text>
<text text-anchor="middle" x="579" y="-1035.8" font-family="Times,serif" font-size="14.00" fill="white">104 ms 684 µs</text>
</a>
</g>
</g>
<!-- 139965762618064&#45;&gt;140075328803344 -->
<g id="edge4" class="edge">
<title>139965762618064&#45;&gt;140075328803344</title>
<path fill="none" stroke="white" d="M579,-1097.24C579,-1109.24 579,-1123.34 579,-1137.59"/>
<polygon fill="white" stroke="white" points="575.5,-1137.97 579,-1147.97 582.5,-1137.97 575.5,-1137.97"/>
<text text-anchor="middle" x="663.5" y="-1118.8" font-family="Times,serif" font-size="14.00" fill="white">3,703 row(s)/8 chunk(s)</text>
</g>
<!-- 140075336434192 -->
<g id="node6" class="node">
<title>140075336434192</title>
<g id="a_node6"><a xlink:title="Output: 300005811 rows in 4578 chunks, 12 ms 455 µs.">
<polygon fill="none" stroke="white" points="653.5,-272 540.5,-272 540.5,-218 653.5,-218 653.5,-272"/>
<text text-anchor="middle" x="597" y="-256.8" font-family="Times,serif" font-size="14.00" fill="white">Validate</text>
<text text-anchor="middle" x="597" y="-225.8" font-family="Times,serif" font-size="14.00" fill="white">12 ms 455 µs</text>
</a>
</g>
</g>
<!-- 140075336434192&#45;&gt;139965762618064 -->
<g id="edge5" class="edge">
<title>140075336434192&#45;&gt;139965762618064</title>
<path fill="none" stroke="white" stroke-width="8" d="M653.71,-249.38C684.1,-254.2 719.77,-265.24 742,-290 764.36,-314.91 756,-330.53 756,-364 756,-364 756,-364 756,-943.5 756,-981.3 727.71,-1007.74 693.74,-1025.86"/>
<polygon fill="white" stroke="white" stroke-width="8" points="693.44,-1026.01 690.29,-1019.76 684.52,-1030.51 693.44,-1026.01"/>
<text text-anchor="middle" x="881" y="-676.3" font-family="Times,serif" font-size="14.00" fill="white">300,005,811 row(s)/4,578 chunk(s)</text>
</g>
<!-- 140075328804368 -->
<g id="node14" class="node">
<title>140075328804368</title>
<g id="a_node14"><a xlink:title="Output: 75000000 rows in 4578 chunks, 7 s 434 ms.&#10;Operator step runtimes:&#10; GroupByKeyPartitioning 1 s 354 ms&#10; Aggregating 5 s 689 ms&#10; GroupByColumnsWriting 70 ms 397 µs&#10; AggregateColumnsWriting 67 ms 264 µs&#10; OutputWriting 2 ms 24 µs.">
<polygon fill="none" stroke="white" stroke-width="8" points="526.5,-407 349.5,-407 349.5,-323 526.5,-323 526.5,-407"/>
<text text-anchor="middle" x="438" y="-391.8" font-family="Times,serif" font-size="14.00" fill="white">AggregateHash</text>
<text text-anchor="middle" x="438" y="-376.8" font-family="Times,serif" font-size="14.00" fill="white">GroupBy {l_orderkey}</text>
<text text-anchor="middle" x="438" y="-361.8" font-family="Times,serif" font-size="14.00" fill="white">SUM(l_quantity)</text>
<text text-anchor="middle" x="438" y="-330.8" font-family="Times,serif" font-size="14.00" fill="white">7 s 434 ms</text>
</a>
</g>
</g>
<!-- 140075336434192&#45;&gt;140075328804368 -->
<g id="edge6" class="edge">
<title>140075336434192&#45;&gt;140075328804368</title>
<path fill="none" stroke="white" stroke-width="8" d="M540.23,-263.27C523.65,-269.97 506.19,-278.79 492,-290 483.21,-296.94 475.17,-305.67 468.13,-314.67"/>
<polygon fill="white" stroke="white" stroke-width="8" points="462.31,-310.77 461.95,-322.97 473.54,-319.12 462.31,-310.77"/>
<text text-anchor="middle" x="617" y="-293.8" font-family="Times,serif" font-size="14.00" fill="white">300,005,811 row(s)/4,578 chunk(s)</text>
</g>
<!-- 140075233131984 -->
<g id="node7" class="node">
<title>140075233131984</title>
<g id="a_node7"><a xlink:title="Output: 300005811 rows in 4578 chunks, 6 ms 945 µs.">
<polygon fill="none" stroke="white" points="662.5,-140.5 531.5,-140.5 531.5,-26.5 662.5,-26.5 662.5,-140.5"/>
<text text-anchor="middle" x="597" y="-125.3" font-family="Times,serif" font-size="14.00" fill="white">GetTable</text>
<text text-anchor="middle" x="597" y="-110.3" font-family="Times,serif" font-size="14.00" fill="white">(lineitem)</text>
<text text-anchor="middle" x="597" y="-95.3" font-family="Times,serif" font-size="14.00" fill="white">pruned:</text>
<text text-anchor="middle" x="597" y="-80.3" font-family="Times,serif" font-size="14.00" fill="white">0/4578 chunk(s)</text>
<text text-anchor="middle" x="597" y="-65.3" font-family="Times,serif" font-size="14.00" fill="white">14/16 column(s)</text>
<text text-anchor="middle" x="597" y="-34.3" font-family="Times,serif" font-size="14.00" fill="white">6 ms 945 µs</text>
</a>
</g>
</g>
<!-- 140075233131984&#45;&gt;140075336434192 -->
<g id="edge7" class="edge">
<title>140075233131984&#45;&gt;140075336434192</title>
<path fill="none" stroke="white" stroke-width="8" d="M597,-140.73C597,-162.93 597,-187.8 597,-207.57"/>
<polygon fill="white" stroke="white" stroke-width="8" points="590,-207.69 597,-217.69 604,-207.69 590,-207.69"/>
<text text-anchor="middle" x="722" y="-188.8" font-family="Times,serif" font-size="14.00" fill="white">300,005,811 row(s)/4,578 chunk(s)</text>
</g>
<!-- 139965762619024 -->
<g id="node8" class="node">
<title>139965762619024</title>
<g id="a_node8"><a xlink:title="Output: 529 rows in 2 chunks, 9 ms 142 µs.&#10;Operator step runtimes:&#10; LeftSideMaterialize 1 ms 78 µs&#10; RightSideMaterialize 2 ms 475 µs&#10; LeftSideTransform 0 ns&#10; RightSideTransform 0 ns&#10; LeftSidePartition 819 µs 338 ns&#10; RightSidePartition 910 µs 259 ns&#10; LeftSideSortBuckets 775 µs 897 ns&#10; RightSideSortBuckets 829 µs 287 ns&#10; GatherRowIds 2 µs 935 ns&#10; FindJoinPartner 165 µs 351 ns&#10; OutputWriting 115 µs 617 ns.">
<polygon fill="none" stroke="white" points="507.5,-977 296.5,-977 296.5,-908 507.5,-908 507.5,-977"/>
<text text-anchor="middle" x="402" y="-961.8" font-family="Times,serif" font-size="14.00" fill="white">JoinSimdSortMerge (Inner)</text>
<text text-anchor="middle" x="402" y="-946.8" font-family="Times,serif" font-size="14.00" fill="white">o_custkey = c_custkey</text>
<text text-anchor="middle" x="402" y="-915.8" font-family="Times,serif" font-size="14.00" fill="white">9 ms 142 µs</text>
</a>
</g>
</g>
<!-- 139965762619024&#45;&gt;139965762618064 -->
<g id="edge8" class="edge">
<title>139965762619024&#45;&gt;139965762618064</title>
<path fill="none" stroke="white" d="M452.72,-977.31C473.73,-991.32 498.24,-1007.66 520.05,-1022.2"/>
<polygon fill="white" stroke="white" points="528.58,-1027.89 522.2,-1019.43 520.26,-1022.34 528.58,-1027.89"/>
<text text-anchor="middle" x="580" y="-998.8" font-family="Times,serif" font-size="14.00" fill="white">529 row(s)/2 chunk(s)</text>
</g>
<!-- 139965762619344 -->
<g id="node9" class="node">
<title>139965762619344</title>
<g id="a_node9"><a xlink:title="Output: 529 rows in 2 chunks, 327 ms 103 µs.&#10;Operator step runtimes:&#10; LeftSideMaterialize 26 ms 378 µs&#10; RightSideMaterialize 5 ms 327 µs&#10; LeftSideTransform 0 ns&#10; RightSideTransform 0 ns&#10; LeftSidePartition 1 ms 937 µs&#10; RightSidePartition 265 µs 960 ns&#10; LeftSideSortBuckets 267 ms 499 µs&#10; RightSideSortBuckets 787 µs 638 ns&#10; GatherRowIds 6 µs 1 ns&#10; FindJoinPartner 297 µs 368 ns&#10; OutputWriting 1 ms 179 µs.">
<polygon fill="none" stroke="white" points="506.5,-857 297.5,-857 297.5,-788 506.5,-788 506.5,-857"/>
<text text-anchor="middle" x="402" y="-841.8" font-family="Times,serif" font-size="14.00" fill="white">JoinSimdSortMerge (Semi)</text>
<text text-anchor="middle" x="402" y="-826.8" font-family="Times,serif" font-size="14.00" fill="white">o_orderkey = l_orderkey</text>
<text text-anchor="middle" x="402" y="-795.8" font-family="Times,serif" font-size="14.00" fill="white">327 ms 103 µs</text>
</a>
</g>
</g>
<!-- 139965762619344&#45;&gt;139965762619024 -->
<g id="edge9" class="edge">
<title>139965762619344&#45;&gt;139965762619024</title>
<path fill="none" stroke="white" d="M402,-857.31C402,-869.78 402,-884.1 402,-897.34"/>
<polygon fill="white" stroke="white" points="402,-897.68 398.5,-897.68 402,-907.68 402,-897.68"/>
<text text-anchor="middle" x="480" y="-878.8" font-family="Times,serif" font-size="14.00" fill="white">529 row(s)/2 chunk(s)</text>
</g>
<!-- 140075336436496 -->
<g id="node10" class="node">
<title>140075336436496</title>
<g id="a_node10"><a xlink:title="Output: 75000000 rows in 1145 chunks, 4 ms 824 µs.">
<polygon fill="none" stroke="white" points="552,-707 448,-707 448,-653 552,-653 552,-707"/>
<text text-anchor="middle" x="500" y="-691.8" font-family="Times,serif" font-size="14.00" fill="white">Validate</text>
<text text-anchor="middle" x="500" y="-660.8" font-family="Times,serif" font-size="14.00" fill="white">4 ms 824 µs</text>
</a>
</g>
</g>
<!-- 140075336436496&#45;&gt;139965762619344 -->
<g id="edge10" class="edge">
<title>140075336436496&#45;&gt;139965762619344</title>
<path fill="none" stroke="white" stroke-width="4.58" d="M498.49,-707.2C496.28,-726.1 490.93,-751.46 478,-770 475.37,-773.78 472.36,-777.36 469.09,-780.74"/>
<polygon fill="white" stroke="white" stroke-width="4.58" points="468.86,-780.97 466.11,-778.05 461.58,-787.83 468.86,-780.97"/>
<text text-anchor="middle" x="606.5" y="-758.8" font-family="Times,serif" font-size="14.00" fill="white">75,000,000 row(s)/1,145 chunk(s)</text>
</g>
<!-- 140075233132432 -->
<g id="node11" class="node">
<title>140075233132432</title>
<g id="a_node11"><a xlink:title="Output: 75000000 rows in 1145 chunks, 2 ms 85 µs.">
<polygon fill="none" stroke="white" points="565.5,-572 434.5,-572 434.5,-458 565.5,-458 565.5,-572"/>
<text text-anchor="middle" x="500" y="-556.8" font-family="Times,serif" font-size="14.00" fill="white">GetTable</text>
<text text-anchor="middle" x="500" y="-541.8" font-family="Times,serif" font-size="14.00" fill="white">(orders)</text>
<text text-anchor="middle" x="500" y="-526.8" font-family="Times,serif" font-size="14.00" fill="white">pruned:</text>
<text text-anchor="middle" x="500" y="-511.8" font-family="Times,serif" font-size="14.00" fill="white">0/1145 chunk(s)</text>
<text text-anchor="middle" x="500" y="-496.8" font-family="Times,serif" font-size="14.00" fill="white">5/9 column(s)</text>
<text text-anchor="middle" x="500" y="-465.8" font-family="Times,serif" font-size="14.00" fill="white">2 ms 85 µs</text>
</a>
</g>
</g>
<!-- 140075233132432&#45;&gt;140075336436496 -->
<g id="edge11" class="edge">
<title>140075233132432&#45;&gt;140075336436496</title>
<path fill="none" stroke="white" stroke-width="4.58" d="M500,-572.1C500,-595.46 500,-621.93 500,-642.68"/>
<polygon fill="white" stroke="white" stroke-width="4.58" points="495.99,-642.97 500,-652.97 504.01,-642.97 495.99,-642.97"/>
<text text-anchor="middle" x="620.5" y="-593.8" font-family="Times,serif" font-size="14.00" fill="white">75,000,000 row(s)/1,145 chunk(s)</text>
</g>
<!-- 139965762618384 -->
<g id="node12" class="node">
<title>139965762618384</title>
<g id="a_node12"><a xlink:title="Output: 529 rows in 500 chunks, 229 µs 591 ns.&#10;Operator step runtimes:&#10; ForwardUnmodifiedColumns 74 µs 691 ns&#10; EvaluateNewColumns 100 ns&#10; BuildOutput 121 µs 969 ns.">
<polygon fill="none" stroke="white" points="361.5,-707 244.5,-707 244.5,-653 361.5,-653 361.5,-707"/>
<text text-anchor="middle" x="303" y="-691.8" font-family="Times,serif" font-size="14.00" fill="white">Projection</text>
<text text-anchor="middle" x="303" y="-660.8" font-family="Times,serif" font-size="14.00" fill="white">229 µs 591 ns</text>
</a>
</g>
</g>
<!-- 139965762618384&#45;&gt;139965762619344 -->
<g id="edge12" class="edge">
<title>139965762618384&#45;&gt;139965762619344</title>
<path fill="none" stroke="white" d="M294.9,-707.11C290.68,-725.96 288.49,-751.3 300,-770 302.4,-773.91 305.21,-777.53 308.31,-780.88"/>
<polygon fill="white" stroke="white" points="315.57,-787.81 310.76,-778.38 308.34,-780.91 315.57,-787.81"/>
<text text-anchor="middle" x="387" y="-758.8" font-family="Times,serif" font-size="14.00" fill="white">529 row(s)/500 chunk(s)</text>
</g>
<!-- 139965762618704 -->
<g id="node13" class="node">
<title>139965762618704</title>
<g id="a_node13"><a xlink:title="Output: 529 rows in 500 chunks, 15 ms 184 µs.&#10;Chunks: 0 skipped with no results, &#10;0 skipped with all matching, 0 scanned using binary search.">
<polygon fill="none" stroke="white" points="405,-557 223,-557 223,-473 405,-473 405,-557"/>
<text text-anchor="middle" x="314" y="-541.8" font-family="Times,serif" font-size="14.00" fill="white">TableScan</text>
<text text-anchor="middle" x="314" y="-526.8" font-family="Times,serif" font-size="14.00" fill="white">Impl: ColumnVsValue</text>
<text text-anchor="middle" x="314" y="-511.8" font-family="Times,serif" font-size="14.00" fill="white">SUM(l_quantity) &gt; 312</text>
<text text-anchor="middle" x="314" y="-480.8" font-family="Times,serif" font-size="14.00" fill="white">15 ms 184 µs</text>
</a>
</g>
</g>
<!-- 139965762618704&#45;&gt;139965762618384 -->
<g id="edge13" class="edge">
<title>139965762618704&#45;&gt;139965762618384</title>
<path fill="none" stroke="white" d="M311.22,-557.13C309.45,-583.37 307.18,-617.09 305.47,-642.4"/>
<polygon fill="white" stroke="white" points="301.96,-642.47 304.78,-652.69 308.94,-642.95 301.96,-642.47"/>
<text text-anchor="middle" x="396" y="-593.8" font-family="Times,serif" font-size="14.00" fill="white">529 row(s)/500 chunk(s)</text>
</g>
<!-- 140075328804368&#45;&gt;139965762618704 -->
<g id="edge14" class="edge">
<title>140075328804368&#45;&gt;139965762618704</title>
<path fill="none" stroke="white" stroke-width="4.58" d="M403.46,-407.23C388.41,-425.19 370.66,-446.38 354.95,-465.13"/>
<polygon fill="white" stroke="white" stroke-width="4.58" points="351.71,-462.76 348.36,-472.99 357.85,-467.9 351.71,-462.76"/>
<text text-anchor="middle" x="508.5" y="-428.8" font-family="Times,serif" font-size="14.00" fill="white">75,000,000 row(s)/4,578 chunk(s)</text>
</g>
<!-- 140075336437008 -->
<g id="node15" class="node">
<title>140075336437008</title>
<g id="a_node15"><a xlink:title="Output: 7500000 rows in 115 chunks, 544 µs 372 ns.">
<polygon fill="none" stroke="white" points="144.5,-849.5 27.5,-849.5 27.5,-795.5 144.5,-795.5 144.5,-849.5"/>
<text text-anchor="middle" x="86" y="-834.3" font-family="Times,serif" font-size="14.00" fill="white">Validate</text>
<text text-anchor="middle" x="86" y="-803.3" font-family="Times,serif" font-size="14.00" fill="white">544 µs 372 ns</text>
</a>
</g>
</g>
<!-- 140075336437008&#45;&gt;139965762619024 -->
<g id="edge15" class="edge">
<title>140075336437008&#45;&gt;139965762619024</title>
<path fill="none" stroke="white" d="M115.95,-849.57C133.32,-863.44 156.2,-879.71 179,-890 212.52,-905.12 250.95,-916.04 286.36,-923.82"/>
<polygon fill="white" stroke="white" points="296.26,-925.93 287.21,-920.43 286.48,-923.85 296.26,-925.93"/>
<text text-anchor="middle" x="288.5" y="-878.8" font-family="Times,serif" font-size="14.00" fill="white">7,500,000 row(s)/115 chunk(s)</text>
</g>
<!-- 140075233132880 -->
<g id="node16" class="node">
<title>140075233132880</title>
<g id="a_node16"><a xlink:title="Output: 7500000 rows in 115 chunks, 321 µs 563 ns.">
<polygon fill="none" stroke="white" points="122,-737 0,-737 0,-623 122,-623 122,-737"/>
<text text-anchor="middle" x="61" y="-721.8" font-family="Times,serif" font-size="14.00" fill="white">GetTable</text>
<text text-anchor="middle" x="61" y="-706.8" font-family="Times,serif" font-size="14.00" fill="white">(customer)</text>
<text text-anchor="middle" x="61" y="-691.8" font-family="Times,serif" font-size="14.00" fill="white">pruned:</text>
<text text-anchor="middle" x="61" y="-676.8" font-family="Times,serif" font-size="14.00" fill="white">0/115 chunk(s)</text>
<text text-anchor="middle" x="61" y="-661.8" font-family="Times,serif" font-size="14.00" fill="white">6/8 column(s)</text>
<text text-anchor="middle" x="61" y="-630.8" font-family="Times,serif" font-size="14.00" fill="white">321 µs 563 ns</text>
</a>
</g>
</g>
<!-- 140075233132880&#45;&gt;140075336437008 -->
<g id="edge16" class="edge">
<title>140075233132880&#45;&gt;140075336437008</title>
<path fill="none" stroke="white" d="M58.04,-737.45C58.47,-748.35 59.64,-759.6 62,-770 63.22,-775.35 65.04,-780.81 67.14,-786.07"/>
<polygon fill="white" stroke="white" points="63.96,-787.52 71.17,-795.27 70.37,-784.71 63.96,-787.52"/>
<text text-anchor="middle" x="171.5" y="-758.8" font-family="Times,serif" font-size="14.00" fill="white">7,500,000 row(s)/115 chunk(s)</text>
</g>
<!-- 0 -->
<g id="node17" class="node">
<title>0</title>
<polygon fill="none" stroke="white" points="680.5,-0.5 680.5,-166.5 1031.5,-166.5 1031.5,-0.5 680.5,-0.5"/>
<text text-anchor="middle" x="856" y="-151.3" font-family="Times,serif" font-size="14.00" fill="white">Total by operator</text>
<polyline fill="none" stroke="white" points="680.5,-143.5 1031.5,-143.5 "/>
<text text-anchor="end" x="839.5" y="-128.3" font-family="Times,serif" font-size="14.00" fill="white">AggregateHash </text>
<text text-anchor="end" x="839.5" y="-113.3" font-family="Times,serif" font-size="14.00" fill="white"> JoinSimdSortMerge </text>
<text text-anchor="end" x="839.5" y="-98.3" font-family="Times,serif" font-size="14.00" fill="white"> Validate </text>
<text text-anchor="end" x="839.5" y="-83.3" font-family="Times,serif" font-size="14.00" fill="white"> TableScan </text>
<text text-anchor="end" x="839.5" y="-68.3" font-family="Times,serif" font-size="14.00" fill="white"> GetTable </text>
<text text-anchor="end" x="839.5" y="-53.3" font-family="Times,serif" font-size="14.00" fill="white"> Sort </text>
<text text-anchor="end" x="839.5" y="-38.3" font-family="Times,serif" font-size="14.00" fill="white"> Projection </text>
<text text-anchor="end" x="839.5" y="-23.3" font-family="Times,serif" font-size="14.00" fill="white"> Limit </text>
<text text-anchor="end" x="839.5" y="-8.3" font-family="Times,serif" font-size="14.00" fill="white">total</text>
<polyline fill="none" stroke="white" points="847.5,-0.5 847.5,-143.5 "/>
<text text-anchor="start" x="855.5" y="-128.3" font-family="Times,serif" font-size="14.00" fill="white">7 s 436 ms </text>
<text text-anchor="start" x="855.5" y="-113.3" font-family="Times,serif" font-size="14.00" fill="white"> 440 ms 929 µs </text>
<text text-anchor="start" x="855.5" y="-98.3" font-family="Times,serif" font-size="14.00" fill="white"> 17 ms 824 µs </text>
<text text-anchor="start" x="855.5" y="-83.3" font-family="Times,serif" font-size="14.00" fill="white"> 15 ms 184 µs </text>
<text text-anchor="start" x="855.5" y="-68.3" font-family="Times,serif" font-size="14.00" fill="white"> 9 ms 351 µs </text>
<text text-anchor="start" x="855.5" y="-53.3" font-family="Times,serif" font-size="14.00" fill="white"> 1 ms 813 µs </text>
<text text-anchor="start" x="855.5" y="-38.3" font-family="Times,serif" font-size="14.00" fill="white"> 242 µs 725 ns </text>
<text text-anchor="start" x="855.5" y="-23.3" font-family="Times,serif" font-size="14.00" fill="white"> 13 µs 636 ns </text>
<text text-anchor="start" x="855.5" y="-8.3" font-family="Times,serif" font-size="14.00" fill="white"> 7 s 922 ms </text>
<polyline fill="none" stroke="white" points="978.5,-0.5 978.5,-143.5 "/>
<text text-anchor="start" x="986.5" y="-128.3" font-family="Times,serif" font-size="14.00" fill="white">94 %</text>
<text text-anchor="start" x="986.5" y="-113.3" font-family="Times,serif" font-size="14.00" fill="white">6 %</text>
<text text-anchor="start" x="986.5" y="-98.3" font-family="Times,serif" font-size="14.00" fill="white">0 %</text>
<text text-anchor="start" x="986.5" y="-83.3" font-family="Times,serif" font-size="14.00" fill="white">0 %</text>
<text text-anchor="start" x="986.5" y="-68.3" font-family="Times,serif" font-size="14.00" fill="white">0 %</text>
<text text-anchor="start" x="986.5" y="-53.3" font-family="Times,serif" font-size="14.00" fill="white">0 %</text>
<text text-anchor="start" x="986.5" y="-38.3" font-family="Times,serif" font-size="14.00" fill="white">0 %</text>
<text text-anchor="start" x="986.5" y="-23.3" font-family="Times,serif" font-size="14.00" fill="white">0 %</text>
<text text-anchor="start" x="986.5" y="-8.3" font-family="Times,serif" font-size="14.00" fill="white"> </text>
</g>
</g>
</svg>
