<?xml version="1.0" encoding="UTF-8" standalone="no"?>
<!DOCTYPE svg PUBLIC "-//W3C//DTD SVG 1.1//EN"
 "http://www.w3.org/Graphics/SVG/1.1/DTD/svg11.dtd">
<!-- Generated by graphviz version 2.43.0 (0)
 -->
<!-- Title: G Pages: 1 -->
<svg width="860pt" height="1370pt"
 viewBox="0.00 0.00 859.50 1370.00" xmlns="http://www.w3.org/2000/svg" xmlns:xlink="http://www.w3.org/1999/xlink">
<g id="graph0" class="graph" transform="scale(1 1) rotate(0) translate(4 1366)">
<title>G</title>
<polygon fill="black" stroke="transparent" points="-4,4 -4,-1366 855.5,-1366 855.5,4 -4,4"/>
<text text-anchor="middle" x="319.5" y="-1346.8" font-family="Times,serif" font-size="14.00" fill="white">For tooltips with advanced information, hover your mouse over vertices or edge labels.</text>
<!-- 139876048520912 -->
<g id="node1" class="node">
<title>139876048520912</title>
<g id="a_node1"><a xlink:title="Output: 5 rows in 1 chunk, 5 µs 821 ns.">
<polygon fill="none" stroke="white" points="537,-1307 310,-1307 310,-1238 537,-1238 537,-1307"/>
<text text-anchor="middle" x="423.5" y="-1291.8" font-family="Times,serif" font-size="14.00" fill="white">Alias</text>
<text text-anchor="middle" x="423.5" y="-1276.8" font-family="Times,serif" font-size="14.00" fill="white">[o_orderpriority, order_count]</text>
<text text-anchor="middle" x="423.5" y="-1245.8" font-family="Times,serif" font-size="14.00" fill="white">5 µs 821 ns</text>
</a>
</g>
</g>
<!-- 139876048520592 -->
<g id="node2" class="node">
<title>139876048520592</title>
<g id="a_node2"><a xlink:title="Output: 5 rows in 1 chunk, 23 µs 465 ns.&#10;Operator step runtimes:&#10; MaterializeSortColumns 5 µs 380 ns&#10; Sort 5 µs 40 ns&#10; TemporaryResultWriting 301 ns&#10; WriteOutput 9 µs 839 ns.">
<polygon fill="none" stroke="white" points="477.5,-1187 369.5,-1187 369.5,-1133 477.5,-1133 477.5,-1187"/>
<text text-anchor="middle" x="423.5" y="-1171.8" font-family="Times,serif" font-size="14.00" fill="white">Sort</text>
<text text-anchor="middle" x="423.5" y="-1140.8" font-family="Times,serif" font-size="14.00" fill="white">23 µs 465 ns</text>
</a>
</g>
</g>
<!-- 139876048520592&#45;&gt;139876048520912 -->
<g id="edge1" class="edge">
<title>139876048520592&#45;&gt;139876048520912</title>
<path fill="none" stroke="white" d="M423.5,-1187.19C423.5,-1199.29 423.5,-1214 423.5,-1227.72"/>
<polygon fill="white" stroke="white" points="420,-1227.95 423.5,-1237.95 427,-1227.96 420,-1227.95"/>
<text text-anchor="middle" x="492.5" y="-1208.8" font-family="Times,serif" font-size="14.00" fill="white">5 row(s)/1 chunk(s)</text>
</g>
<!-- 139876048184848 -->
<g id="node3" class="node">
<title>139876048184848</title>
<g id="a_node3"><a xlink:title="Output: 5 rows in 1 chunk, 55 ms 208 µs.&#10;Operator step runtimes:&#10; GroupByKeyPartitioning 51 ms 658 µs&#10; Aggregating 3 ms 482 µs&#10; GroupByColumnsWriting 7 µs 945 ns&#10; AggregateColumnsWriting 16 µs 992 ns&#10; OutputWriting 10 µs 29 ns.">
<polygon fill="none" stroke="white" stroke-width="7.04" points="528.5,-1082 318.5,-1082 318.5,-998 528.5,-998 528.5,-1082"/>
<text text-anchor="middle" x="423.5" y="-1066.8" font-family="Times,serif" font-size="14.00" fill="white">AggregateHash</text>
<text text-anchor="middle" x="423.5" y="-1051.8" font-family="Times,serif" font-size="14.00" fill="white">GroupBy {o_orderpriority}</text>
<text text-anchor="middle" x="423.5" y="-1036.8" font-family="Times,serif" font-size="14.00" fill="white">COUNT(*)</text>
<text text-anchor="middle" x="423.5" y="-1005.8" font-family="Times,serif" font-size="14.00" fill="white">55 ms 208 µs</text>
</a>
</g>
</g>
<!-- 139876048184848&#45;&gt;139876048520592 -->
<g id="edge2" class="edge">
<title>139876048184848&#45;&gt;139876048520592</title>
<path fill="none" stroke="white" d="M423.5,-1082.27C423.5,-1095.36 423.5,-1109.72 423.5,-1122.45"/>
<polygon fill="white" stroke="white" points="420,-1122.69 423.5,-1132.69 427,-1122.69 420,-1122.69"/>
<text text-anchor="middle" x="492.5" y="-1103.8" font-family="Times,serif" font-size="14.00" fill="white">5 row(s)/1 chunk(s)</text>
</g>
<!-- 139876048520272 -->
<g id="node4" class="node">
<title>139876048520272</title>
<g id="a_node4"><a xlink:title="Output: 525915 rows in 64 chunks, 23 ms 153 µs.&#10;Operator step runtimes:&#10; LeftSideMaterialize 4 ms 875 µs&#10; RightSideMaterialize 6 ms 656 µs&#10; LeftSideTransform 0 ns&#10; RightSideTransform 0 ns&#10; LeftSidePartition 3 ms 542 µs&#10; RightSidePartition 1 ms 230 µs&#10; LeftSideSortBuckets 871 µs 35 ns&#10; RightSideSortBuckets 934 µs 946 ns&#10; GatherRowIds 2 µs 315 ns&#10; FindJoinPartner 3 ms 183 µs&#10; OutputWriting 978 µs 777 ns.">
<polygon fill="none" stroke="white" stroke-width="4.89" points="528,-947 319,-947 319,-878 528,-878 528,-947"/>
<text text-anchor="middle" x="423.5" y="-931.8" font-family="Times,serif" font-size="14.00" fill="white">JoinSimdSortMerge (Semi)</text>
<text text-anchor="middle" x="423.5" y="-916.8" font-family="Times,serif" font-size="14.00" fill="white">o_orderkey = l_orderkey</text>
<text text-anchor="middle" x="423.5" y="-885.8" font-family="Times,serif" font-size="14.00" fill="white">23 ms 153 µs</text>
</a>
</g>
</g>
<!-- 139876048520272&#45;&gt;139876048184848 -->
<g id="edge3" class="edge">
<title>139876048520272&#45;&gt;139876048184848</title>
<path fill="none" stroke="white" d="M423.5,-947.13C423.5,-959.51 423.5,-973.84 423.5,-987.44"/>
<polygon fill="white" stroke="white" points="420,-987.65 423.5,-997.65 427,-987.65 420,-987.65"/>
<text text-anchor="middle" x="521.5" y="-968.8" font-family="Times,serif" font-size="14.00" fill="white">525,915 row(s)/64 chunk(s)</text>
</g>
<!-- 139876047705872 -->
<g id="node5" class="node">
<title>139876047705872</title>
<g id="a_node5"><a xlink:title="Output: 573962 rows in 229 chunks, 395 µs 523 ns.">
<polygon fill="none" stroke="white" points="485,-437 368,-437 368,-383 485,-383 485,-437"/>
<text text-anchor="middle" x="426.5" y="-421.8" font-family="Times,serif" font-size="14.00" fill="white">Validate</text>
<text text-anchor="middle" x="426.5" y="-390.8" font-family="Times,serif" font-size="14.00" fill="white">395 µs 523 ns</text>
</a>
</g>
</g>
<!-- 139876047705872&#45;&gt;139876048520272 -->
<g id="edge4" class="edge">
<title>139876047705872&#45;&gt;139876048520272</title>
<path fill="none" stroke="white" d="M473.54,-437.3C491.44,-449.58 510.41,-465.75 522.5,-485 538.56,-510.58 536.5,-521.3 536.5,-551.5 536.5,-551.5 536.5,-551.5 536.5,-786 536.5,-819.47 542.46,-833.13 522.5,-860 519.55,-863.97 516.2,-867.66 512.57,-871.09"/>
<polygon fill="white" stroke="white" points="512.35,-871.27 510.08,-868.61 504.74,-877.76 512.35,-871.27"/>
<text text-anchor="middle" x="639" y="-661.3" font-family="Times,serif" font-size="14.00" fill="white">573,962 row(s)/229 chunk(s)</text>
</g>
<!-- 139876048519632 -->
<g id="node10" class="node">
<title>139876048519632</title>
<g id="a_node10"><a xlink:title="Output: 2293597 rows in 64 chunks, 81 ms 570 µs.&#10;Operator step runtimes:&#10; LeftSideMaterialize 19 ms 144 µs&#10; RightSideMaterialize 5 ms 113 µs&#10; LeftSideTransform 0 ns&#10; RightSideTransform 0 ns&#10; LeftSidePartition 29 ms 36 µs&#10; RightSidePartition 3 ms 436 µs&#10; LeftSideSortBuckets 14 ms 687 µs&#10; RightSideSortBuckets 783 µs 832 ns&#10; GatherRowIds 1 µs 82 ns&#10; FindJoinPartner 7 ms 228 µs&#10; OutputWriting 443 µs 392 ns.">
<polygon fill="none" stroke="white" stroke-width="8" points="454,-587 169,-587 169,-518 454,-518 454,-587"/>
<text text-anchor="middle" x="311.5" y="-571.8" font-family="Times,serif" font-size="14.00" fill="white">JoinSimdSortMerge (Semi Reduction)</text>
<text text-anchor="middle" x="311.5" y="-556.8" font-family="Times,serif" font-size="14.00" fill="white">l_orderkey = o_orderkey</text>
<text text-anchor="middle" x="311.5" y="-525.8" font-family="Times,serif" font-size="14.00" fill="white">81 ms 570 µs</text>
</a>
</g>
</g>
<!-- 139876047705872&#45;&gt;139876048519632 -->
<g id="edge5" class="edge">
<title>139876047705872&#45;&gt;139876048519632</title>
<path fill="none" stroke="white" d="M368.76,-437.12C349.24,-448.91 329.4,-464.8 317.5,-485 313.45,-491.88 311.14,-499.88 309.94,-507.89"/>
<polygon fill="white" stroke="white" points="308.95,-517.96 313.41,-508.35 309.92,-508.01 308.95,-517.96"/>
<text text-anchor="middle" x="420" y="-488.8" font-family="Times,serif" font-size="14.00" fill="white">573,962 row(s)/229 chunk(s)</text>
</g>
<!-- 139876048519312 -->
<g id="node6" class="node">
<title>139876048519312</title>
<g id="a_node6"><a xlink:title="Output: 573962 rows in 229 chunks, 1 ms 526 µs.&#10;Chunks: 0 skipped with no results, &#10;0 skipped with all matching, 0 scanned using binary search.">
<polygon fill="none" stroke="white" points="639,-302 214,-302 214,-203 639,-203 639,-302"/>
<text text-anchor="middle" x="426.5" y="-286.8" font-family="Times,serif" font-size="14.00" fill="white">TableScan</text>
<text text-anchor="middle" x="426.5" y="-271.8" font-family="Times,serif" font-size="14.00" fill="white">Impl: ColumnBetween</text>
<text text-anchor="middle" x="426.5" y="-256.8" font-family="Times,serif" font-size="14.00" fill="white">o_orderdate BETWEEN UPPER EXCLUSIVE &#39;1997&#45;07&#45;01&#39;</text>
<text text-anchor="middle" x="426.5" y="-241.8" font-family="Times,serif" font-size="14.00" fill="white">AND &#39;1997&#45;10&#45;01&#39;</text>
<text text-anchor="middle" x="426.5" y="-210.8" font-family="Times,serif" font-size="14.00" fill="white">1 ms 526 µs</text>
</a>
</g>
</g>
<!-- 139876048519312&#45;&gt;139876047705872 -->
<g id="edge6" class="edge">
<title>139876048519312&#45;&gt;139876047705872</title>
<path fill="none" stroke="white" d="M426.5,-302.27C426.5,-324.98 426.5,-351.53 426.5,-372.47"/>
<polygon fill="white" stroke="white" points="423,-372.56 426.5,-382.56 430,-372.56 423,-372.56"/>
<text text-anchor="middle" x="529" y="-323.8" font-family="Times,serif" font-size="14.00" fill="white">573,962 row(s)/229 chunk(s)</text>
</g>
<!-- 139832058624208 -->
<g id="node7" class="node">
<title>139832058624208</title>
<g id="a_node7"><a xlink:title="Output: 15000000 rows in 229 chunks, 440 µs 176 ns.">
<polygon fill="none" stroke="white" points="487.5,-133 365.5,-133 365.5,-19 487.5,-19 487.5,-133"/>
<text text-anchor="middle" x="426.5" y="-117.8" font-family="Times,serif" font-size="14.00" fill="white">GetTable</text>
<text text-anchor="middle" x="426.5" y="-102.8" font-family="Times,serif" font-size="14.00" fill="white">(orders)</text>
<text text-anchor="middle" x="426.5" y="-87.8" font-family="Times,serif" font-size="14.00" fill="white">pruned:</text>
<text text-anchor="middle" x="426.5" y="-72.8" font-family="Times,serif" font-size="14.00" fill="white">0/229 chunk(s)</text>
<text text-anchor="middle" x="426.5" y="-57.8" font-family="Times,serif" font-size="14.00" fill="white">6/9 column(s)</text>
<text text-anchor="middle" x="426.5" y="-26.8" font-family="Times,serif" font-size="14.00" fill="white">440 µs 176 ns</text>
</a>
</g>
</g>
<!-- 139832058624208&#45;&gt;139876048519312 -->
<g id="edge7" class="edge">
<title>139832058624208&#45;&gt;139876048519312</title>
<path fill="none" stroke="white" stroke-width="4.58" d="M426.5,-133.17C426.5,-152.18 426.5,-173.44 426.5,-192.64"/>
<polygon fill="white" stroke="white" stroke-width="4.58" points="422.49,-192.77 426.5,-202.77 430.51,-192.77 422.49,-192.77"/>
<text text-anchor="middle" x="540.5" y="-173.8" font-family="Times,serif" font-size="14.00" fill="white">15,000,000 row(s)/229 chunk(s)</text>
</g>
<!-- 139876048519952 -->
<g id="node8" class="node">
<title>139876048519952</title>
<g id="a_node8"><a xlink:title="Output: 1449346 rows in 64 chunks, 19 ms 47 µs.&#10;Chunks: 0 skipped with no results, &#10;0 skipped with all matching, 0 scanned using binary search.">
<polygon fill="none" stroke="white" stroke-width="4.41" points="425,-827 198,-827 198,-743 425,-743 425,-827"/>
<text text-anchor="middle" x="311.5" y="-811.8" font-family="Times,serif" font-size="14.00" fill="white">TableScan</text>
<text text-anchor="middle" x="311.5" y="-796.8" font-family="Times,serif" font-size="14.00" fill="white">Impl: ColumnVsColumn</text>
<text text-anchor="middle" x="311.5" y="-781.8" font-family="Times,serif" font-size="14.00" fill="white">l_commitdate &lt; l_receiptdate</text>
<text text-anchor="middle" x="311.5" y="-750.8" font-family="Times,serif" font-size="14.00" fill="white">19 ms 47 µs</text>
</a>
</g>
</g>
<!-- 139876048519952&#45;&gt;139876048520272 -->
<g id="edge8" class="edge">
<title>139876048519952&#45;&gt;139876048520272</title>
<path fill="none" stroke="white" d="M304.28,-827.14C304.27,-838.54 306.28,-850.4 312.5,-860 315.04,-863.92 317.96,-867.54 321.18,-870.89"/>
<polygon fill="white" stroke="white" points="328.66,-877.81 323.69,-868.45 321.31,-871.02 328.66,-877.81"/>
<text text-anchor="middle" x="417.5" y="-848.8" font-family="Times,serif" font-size="14.00" fill="white">1,449,346 row(s)/64 chunk(s)</text>
</g>
<!-- 139876047706128 -->
<g id="node9" class="node">
<title>139876047706128</title>
<g id="a_node9"><a xlink:title="Output: 2293597 rows in 64 chunks, 1 ms 690 µs.">
<polygon fill="none" stroke="white" points="363.5,-692 259.5,-692 259.5,-638 363.5,-638 363.5,-692"/>
<text text-anchor="middle" x="311.5" y="-676.8" font-family="Times,serif" font-size="14.00" fill="white">Validate</text>
<text text-anchor="middle" x="311.5" y="-645.8" font-family="Times,serif" font-size="14.00" fill="white">1 ms 690 µs</text>
</a>
</g>
</g>
<!-- 139876047706128&#45;&gt;139876048519952 -->
<g id="edge9" class="edge">
<title>139876047706128&#45;&gt;139876048519952</title>
<path fill="none" stroke="white" d="M311.5,-692.19C311.5,-704.1 311.5,-718.63 311.5,-732.58"/>
<polygon fill="white" stroke="white" points="308,-732.59 311.5,-742.59 315,-732.59 308,-732.59"/>
<text text-anchor="middle" x="416.5" y="-713.8" font-family="Times,serif" font-size="14.00" fill="white">2,293,597 row(s)/64 chunk(s)</text>
</g>
<!-- 139876048519632&#45;&gt;139876047706128 -->
<g id="edge10" class="edge">
<title>139876048519632&#45;&gt;139876047706128</title>
<path fill="none" stroke="white" d="M311.5,-587.25C311.5,-600.07 311.5,-614.73 311.5,-627.77"/>
<polygon fill="white" stroke="white" points="308,-627.81 311.5,-637.81 315,-627.81 308,-627.81"/>
<text text-anchor="middle" x="416.5" y="-608.8" font-family="Times,serif" font-size="14.00" fill="white">2,293,597 row(s)/64 chunk(s)</text>
</g>
<!-- 139832058624656 -->
<g id="node11" class="node">
<title>139832058624656</title>
<g id="a_node11"><a xlink:title="Output: 59986052 rows in 916 chunks, 1 ms 274 µs.">
<polygon fill="none" stroke="white" points="131,-467 0,-467 0,-353 131,-353 131,-467"/>
<text text-anchor="middle" x="65.5" y="-451.8" font-family="Times,serif" font-size="14.00" fill="white">GetTable</text>
<text text-anchor="middle" x="65.5" y="-436.8" font-family="Times,serif" font-size="14.00" fill="white">(lineitem)</text>
<text text-anchor="middle" x="65.5" y="-421.8" font-family="Times,serif" font-size="14.00" fill="white">pruned:</text>
<text text-anchor="middle" x="65.5" y="-406.8" font-family="Times,serif" font-size="14.00" fill="white">0/916 chunk(s)</text>
<text text-anchor="middle" x="65.5" y="-391.8" font-family="Times,serif" font-size="14.00" fill="white">13/16 column(s)</text>
<text text-anchor="middle" x="65.5" y="-360.8" font-family="Times,serif" font-size="14.00" fill="white">1 ms 274 µs</text>
</a>
</g>
</g>
<!-- 139832058624656&#45;&gt;139876048519632 -->
<g id="edge11" class="edge">
<title>139832058624656&#45;&gt;139876048519632</title>
<path fill="none" stroke="white" stroke-width="8" d="M64.28,-467.35C66.58,-479.37 71.15,-491.11 79.5,-500 91.89,-513.19 123.05,-523.39 158.65,-531.1"/>
<polygon fill="white" stroke="white" stroke-width="8" points="159.01,-531.17 157.58,-538.03 168.8,-533.21 159.01,-531.17"/>
<text text-anchor="middle" x="193.5" y="-488.8" font-family="Times,serif" font-size="14.00" fill="white">59,986,052 row(s)/916 chunk(s)</text>
</g>
<!-- 0 -->
<g id="node12" class="node">
<title>0</title>
<polygon fill="none" stroke="white" points="505.5,-0.5 505.5,-151.5 851.5,-151.5 851.5,-0.5 505.5,-0.5"/>
<text text-anchor="middle" x="678.5" y="-136.3" font-family="Times,serif" font-size="14.00" fill="white">Total by operator</text>
<polyline fill="none" stroke="white" points="505.5,-128.5 851.5,-128.5 "/>
<text text-anchor="end" x="659.5" y="-113.3" font-family="Times,serif" font-size="14.00" fill="white">JoinSimdSortMerge </text>
<text text-anchor="end" x="659.5" y="-98.3" font-family="Times,serif" font-size="14.00" fill="white"> AggregateHash </text>
<text text-anchor="end" x="659.5" y="-83.3" font-family="Times,serif" font-size="14.00" fill="white"> TableScan </text>
<text text-anchor="end" x="659.5" y="-68.3" font-family="Times,serif" font-size="14.00" fill="white"> Validate </text>
<text text-anchor="end" x="659.5" y="-53.3" font-family="Times,serif" font-size="14.00" fill="white"> GetTable </text>
<text text-anchor="end" x="659.5" y="-38.3" font-family="Times,serif" font-size="14.00" fill="white"> Sort </text>
<text text-anchor="end" x="659.5" y="-23.3" font-family="Times,serif" font-size="14.00" fill="white"> Alias </text>
<text text-anchor="end" x="659.5" y="-8.3" font-family="Times,serif" font-size="14.00" fill="white">total</text>
<polyline fill="none" stroke="white" points="667.5,-0.5 667.5,-128.5 "/>
<text text-anchor="start" x="675.5" y="-113.3" font-family="Times,serif" font-size="14.00" fill="white">104 ms 722 µs </text>
<text text-anchor="start" x="675.5" y="-98.3" font-family="Times,serif" font-size="14.00" fill="white"> 55 ms 208 µs </text>
<text text-anchor="start" x="675.5" y="-83.3" font-family="Times,serif" font-size="14.00" fill="white"> 20 ms 573 µs </text>
<text text-anchor="start" x="675.5" y="-68.3" font-family="Times,serif" font-size="14.00" fill="white"> 2 ms 86 µs </text>
<text text-anchor="start" x="675.5" y="-53.3" font-family="Times,serif" font-size="14.00" fill="white"> 1 ms 714 µs </text>
<text text-anchor="start" x="675.5" y="-38.3" font-family="Times,serif" font-size="14.00" fill="white"> 23 µs 465 ns </text>
<text text-anchor="start" x="675.5" y="-23.3" font-family="Times,serif" font-size="14.00" fill="white"> 5 µs 821 ns </text>
<text text-anchor="start" x="675.5" y="-8.3" font-family="Times,serif" font-size="14.00" fill="white"> 184 ms 333 µs </text>
<polyline fill="none" stroke="white" points="798.5,-0.5 798.5,-128.5 "/>
<text text-anchor="start" x="806.5" y="-113.3" font-family="Times,serif" font-size="14.00" fill="white">57 %</text>
<text text-anchor="start" x="806.5" y="-98.3" font-family="Times,serif" font-size="14.00" fill="white">30 %</text>
<text text-anchor="start" x="806.5" y="-83.3" font-family="Times,serif" font-size="14.00" fill="white">11 %</text>
<text text-anchor="start" x="806.5" y="-68.3" font-family="Times,serif" font-size="14.00" fill="white">1 %</text>
<text text-anchor="start" x="806.5" y="-53.3" font-family="Times,serif" font-size="14.00" fill="white">1 %</text>
<text text-anchor="start" x="806.5" y="-38.3" font-family="Times,serif" font-size="14.00" fill="white">0 %</text>
<text text-anchor="start" x="806.5" y="-23.3" font-family="Times,serif" font-size="14.00" fill="white">0 %</text>
<text text-anchor="start" x="806.5" y="-8.3" font-family="Times,serif" font-size="14.00" fill="white"> </text>
</g>
</g>
</svg>
