<?xml version="1.0" encoding="UTF-8" standalone="no"?>
<!DOCTYPE svg PUBLIC "-//W3C//DTD SVG 1.1//EN"
 "http://www.w3.org/Graphics/SVG/1.1/DTD/svg11.dtd">
<!-- Generated by graphviz version 2.43.0 (0)
 -->
<!-- Title: G Pages: 1 -->
<svg width="1248pt" height="1835pt"
 viewBox="0.00 0.00 1247.50 1835.00" xmlns="http://www.w3.org/2000/svg" xmlns:xlink="http://www.w3.org/1999/xlink">
<g id="graph0" class="graph" transform="scale(1 1) rotate(0) translate(4 1831)">
<title>G</title>
<polygon fill="black" stroke="transparent" points="-4,4 -4,-1831 1243.5,-1831 1243.5,4 -4,4"/>
<text text-anchor="middle" x="319.5" y="-1811.8" font-family="Times,serif" font-size="14.00" fill="white">For tooltips with advanced information, hover your mouse over vertices or edge labels.</text>
<!-- 140520727960528 -->
<g id="node1" class="node">
<title>140520727960528</title>
<g id="a_node1"><a xlink:title="Output: 20 rows in 1 chunk filtered: 0, 2 µs 887 ns.">
<polygon fill="none" stroke="white" points="897.5,-1772 537.5,-1772 537.5,-1688 897.5,-1688 897.5,-1772"/>
<text text-anchor="middle" x="717.5" y="-1756.8" font-family="Times,serif" font-size="14.00" fill="white">Alias</text>
<text text-anchor="middle" x="717.5" y="-1741.8" font-family="Times,serif" font-size="14.00" fill="white">[c_custkey, c_name, revenue, c_acctbal, n_name,</text>
<text text-anchor="middle" x="717.5" y="-1726.8" font-family="Times,serif" font-size="14.00" fill="white">c_address, c_phone, c_comment]</text>
<text text-anchor="middle" x="717.5" y="-1695.8" font-family="Times,serif" font-size="14.00" fill="white">2 µs 887 ns</text>
</a>
</g>
</g>
<!-- 140520727960208 -->
<g id="node2" class="node">
<title>140520727960208</title>
<g id="a_node2"><a xlink:title="Output: 20 rows in 1 chunk filtered: 0, 13 µs 714 ns.&#10;Operator step runtimes:&#10; ForwardUnmodifiedColumns 4 µs 469 ns&#10; EvaluateNewColumns 1 µs 293 ns&#10; BuildOutput 5 µs 253 ns.">
<polygon fill="none" stroke="white" points="771.5,-1637 663.5,-1637 663.5,-1583 771.5,-1583 771.5,-1637"/>
<text text-anchor="middle" x="717.5" y="-1621.8" font-family="Times,serif" font-size="14.00" fill="white">Projection</text>
<text text-anchor="middle" x="717.5" y="-1590.8" font-family="Times,serif" font-size="14.00" fill="white">13 µs 714 ns</text>
</a>
</g>
</g>
<!-- 140520727960208&#45;&gt;140520727960528 -->
<g id="edge1" class="edge">
<title>140520727960208&#45;&gt;140520727960528</title>
<path fill="none" stroke="white" d="M717.5,-1637.19C717.5,-1649.1 717.5,-1663.63 717.5,-1677.58"/>
<polygon fill="white" stroke="white" points="714,-1677.59 717.5,-1687.59 721,-1677.59 714,-1677.59"/>
<text text-anchor="middle" x="791" y="-1658.8" font-family="Times,serif" font-size="14.00" fill="white">20 row(s)/1 chunk(s)</text>
</g>
<!-- 140521067326480 -->
<g id="node3" class="node">
<title>140521067326480</title>
<g id="a_node3"><a xlink:title="Output: 20 rows in 1 chunk filtered: 0, 17 µs 873 ns.">
<polygon fill="none" stroke="white" points="771.5,-1532 663.5,-1532 663.5,-1478 771.5,-1478 771.5,-1532"/>
<text text-anchor="middle" x="717.5" y="-1516.8" font-family="Times,serif" font-size="14.00" fill="white">Limit</text>
<text text-anchor="middle" x="717.5" y="-1485.8" font-family="Times,serif" font-size="14.00" fill="white">17 µs 873 ns</text>
</a>
</g>
</g>
<!-- 140521067326480&#45;&gt;140520727960208 -->
<g id="edge2" class="edge">
<title>140521067326480&#45;&gt;140520727960208</title>
<path fill="none" stroke="white" d="M717.5,-1532.26C717.5,-1544.49 717.5,-1559.24 717.5,-1572.52"/>
<polygon fill="white" stroke="white" points="714,-1572.79 717.5,-1582.79 721,-1572.79 714,-1572.79"/>
<text text-anchor="middle" x="791" y="-1553.8" font-family="Times,serif" font-size="14.00" fill="white">20 row(s)/1 chunk(s)</text>
</g>
<!-- 140520727959888 -->
<g id="node4" class="node">
<title>140520727959888</title>
<g id="a_node4"><a xlink:title="Output: 1892550 rows in 29 chunks filtered: 0, 459 ms 358 µs.&#10;Operator step runtimes:&#10; MaterializeSortColumns 10 ms 446 µs&#10; Sort 230 ms 606 µs&#10; TemporaryResultWriting 4 ms 584 µs&#10; WriteOutput 213 ms 688 µs.">
<polygon fill="none" stroke="white" stroke-width="7.96" points="778.5,-1427 656.5,-1427 656.5,-1373 778.5,-1373 778.5,-1427"/>
<text text-anchor="middle" x="717.5" y="-1411.8" font-family="Times,serif" font-size="14.00" fill="white">Sort</text>
<text text-anchor="middle" x="717.5" y="-1380.8" font-family="Times,serif" font-size="14.00" fill="white">459 ms 358 µs</text>
</a>
</g>
</g>
<!-- 140520727959888&#45;&gt;140521067326480 -->
<g id="edge3" class="edge">
<title>140520727959888&#45;&gt;140521067326480</title>
<path fill="none" stroke="white" d="M717.5,-1427.26C717.5,-1439.49 717.5,-1454.24 717.5,-1467.52"/>
<polygon fill="white" stroke="white" points="714,-1467.79 717.5,-1477.79 721,-1467.79 714,-1467.79"/>
<text text-anchor="middle" x="822.5" y="-1448.8" font-family="Times,serif" font-size="14.00" fill="white">1,892,550 row(s)/29 chunk(s)</text>
</g>
<!-- 140681542867984 -->
<g id="node5" class="node">
<title>140681542867984</title>
<g id="a_node5"><a xlink:title="Output: 1892550 rows in 29 chunks filtered: 0, 467 ms 639 µs.&#10;Operator step runtimes:&#10; GroupByKeyPartitioning 122 ms 894 µs&#10; Aggregating 318 ms 620 µs&#10; GroupByColumnsWriting 10 ms 334 µs&#10; AggregateColumnsWriting 15 ms 353 µs&#10; OutputWriting 258 µs 738 ns.">
<polygon fill="none" stroke="white" stroke-width="8" points="870.5,-1322 564.5,-1322 564.5,-1148 870.5,-1148 870.5,-1322"/>
<text text-anchor="middle" x="717.5" y="-1306.8" font-family="Times,serif" font-size="14.00" fill="white">AggregateHash</text>
<text text-anchor="middle" x="717.5" y="-1291.8" font-family="Times,serif" font-size="14.00" fill="white">GroupBy {c_custkey}</text>
<text text-anchor="middle" x="717.5" y="-1276.8" font-family="Times,serif" font-size="14.00" fill="white">SUM(l_extendedprice * (1 &#45; l_discount)), </text>
<text text-anchor="middle" x="717.5" y="-1261.8" font-family="Times,serif" font-size="14.00" fill="white">ANY(n_name), </text>
<text text-anchor="middle" x="717.5" y="-1246.8" font-family="Times,serif" font-size="14.00" fill="white">ANY(c_comment), </text>
<text text-anchor="middle" x="717.5" y="-1231.8" font-family="Times,serif" font-size="14.00" fill="white">ANY(c_phone), </text>
<text text-anchor="middle" x="717.5" y="-1216.8" font-family="Times,serif" font-size="14.00" fill="white">ANY(c_acctbal), </text>
<text text-anchor="middle" x="717.5" y="-1201.8" font-family="Times,serif" font-size="14.00" fill="white">ANY(c_address), </text>
<text text-anchor="middle" x="717.5" y="-1186.8" font-family="Times,serif" font-size="14.00" fill="white">ANY(c_name)</text>
<text text-anchor="middle" x="717.5" y="-1155.8" font-family="Times,serif" font-size="14.00" fill="white">467 ms 639 µs</text>
</a>
</g>
</g>
<!-- 140681542867984&#45;&gt;140520727959888 -->
<g id="edge4" class="edge">
<title>140681542867984&#45;&gt;140520727959888</title>
<path fill="none" stroke="white" d="M717.5,-1322.27C717.5,-1336.57 717.5,-1350.66 717.5,-1362.8"/>
<polygon fill="white" stroke="white" points="714,-1362.91 717.5,-1372.91 721,-1362.91 714,-1362.91"/>
<text text-anchor="middle" x="822.5" y="-1343.8" font-family="Times,serif" font-size="14.00" fill="white">1,892,550 row(s)/29 chunk(s)</text>
</g>
<!-- 140520727959568 -->
<g id="node6" class="node">
<title>140520727959568</title>
<g id="a_node6"><a xlink:title="Output: 5607656 rows in 256 chunks filtered: 0, 196 ms 289 µs.&#10;Operator step runtimes:&#10; ForwardUnmodifiedColumns 390 µs 294 ns&#10; EvaluateNewColumns 195 ms 469 µs&#10; BuildOutput 380 µs 84 ns.">
<polygon fill="none" stroke="white" stroke-width="5.86" points="778.5,-1097 656.5,-1097 656.5,-1043 778.5,-1043 778.5,-1097"/>
<text text-anchor="middle" x="717.5" y="-1081.8" font-family="Times,serif" font-size="14.00" fill="white">Projection</text>
<text text-anchor="middle" x="717.5" y="-1050.8" font-family="Times,serif" font-size="14.00" fill="white">196 ms 289 µs</text>
</a>
</g>
</g>
<!-- 140520727959568&#45;&gt;140681542867984 -->
<g id="edge5" class="edge">
<title>140520727959568&#45;&gt;140681542867984</title>
<path fill="none" stroke="white" d="M717.5,-1097.19C717.5,-1108.6 717.5,-1122.74 717.5,-1137.57"/>
<polygon fill="white" stroke="white" points="714,-1137.91 717.5,-1147.91 721,-1137.91 714,-1137.91"/>
<text text-anchor="middle" x="827" y="-1118.8" font-family="Times,serif" font-size="14.00" fill="white">5,607,656 row(s)/256 chunk(s)</text>
</g>
<!-- 140520727959248 -->
<g id="node7" class="node">
<title>140520727959248</title>
<g id="a_node7"><a xlink:title="Output: 5607656 rows in 256 chunks filtered: 0, 141 ms 395 µs.&#10;Operator step runtimes:&#10; LeftSideMaterialize 29 ms 62 µs&#10; RightSideMaterialize 22 ms 906 µs&#10; LeftSideTransform 0 ns&#10; RightSideTransform 0 ns&#10; LeftSidePartition 13 ms 328 µs&#10; RightSidePartition 12 ms 681 µs&#10; LeftSideSortBuckets 8 ms 738 µs&#10; RightSideSortBuckets 8 ms 255 µs&#10; GatherRowIds 2 µs 530 ns&#10; FindJoinPartner 26 ms 185 µs&#10; OutputWriting 18 ms 922 µs.&#10;Radix bits: 8.">
<polygon fill="none" stroke="white" stroke-width="5.05" points="823,-992 612,-992 612,-923 823,-923 823,-992"/>
<text text-anchor="middle" x="717.5" y="-976.8" font-family="Times,serif" font-size="14.00" fill="white">JoinSimdSortMerge (Inner)</text>
<text text-anchor="middle" x="717.5" y="-961.8" font-family="Times,serif" font-size="14.00" fill="white">o_custkey = c_custkey</text>
<text text-anchor="middle" x="717.5" y="-930.8" font-family="Times,serif" font-size="14.00" fill="white">141 ms 395 µs</text>
</a>
</g>
</g>
<!-- 140520727959248&#45;&gt;140520727959568 -->
<g id="edge6" class="edge">
<title>140520727959248&#45;&gt;140520727959568</title>
<path fill="none" stroke="white" d="M717.5,-992.25C717.5,-1005.07 717.5,-1019.73 717.5,-1032.77"/>
<polygon fill="white" stroke="white" points="714,-1032.81 717.5,-1042.81 721,-1032.81 714,-1032.81"/>
<text text-anchor="middle" x="827" y="-1013.8" font-family="Times,serif" font-size="14.00" fill="white">5,607,656 row(s)/256 chunk(s)</text>
</g>
<!-- 140520727958608 -->
<g id="node8" class="node">
<title>140520727958608</title>
<g id="a_node8"><a xlink:title="Output: 5607656 rows in 64 chunks filtered: 0, 182 ms 902 µs.&#10;Operator step runtimes:&#10; LeftSideMaterialize 37 ms 826 µs&#10; RightSideMaterialize 91 ms 434 µs&#10; LeftSideTransform 0 ns&#10; RightSideTransform 0 ns&#10; LeftSidePartition 3 ms 796 µs&#10; RightSidePartition 8 ms 360 µs&#10; LeftSideSortBuckets 3 ms 138 µs&#10; RightSideSortBuckets 3 ms 352 µs&#10; GatherRowIds 2 µs 130 ns&#10; FindJoinPartner 26 ms 160 µs&#10; OutputWriting 7 ms 226 µs.&#10;Radix bits: 8.">
<polygon fill="none" stroke="white" stroke-width="5.68" points="701,-872 490,-872 490,-803 701,-803 701,-872"/>
<text text-anchor="middle" x="595.5" y="-856.8" font-family="Times,serif" font-size="14.00" fill="white">JoinSimdSortMerge (Inner)</text>
<text text-anchor="middle" x="595.5" y="-841.8" font-family="Times,serif" font-size="14.00" fill="white">o_orderkey = l_orderkey</text>
<text text-anchor="middle" x="595.5" y="-810.8" font-family="Times,serif" font-size="14.00" fill="white">182 ms 902 µs</text>
</a>
</g>
</g>
<!-- 140520727958608&#45;&gt;140520727959248 -->
<g id="edge7" class="edge">
<title>140520727958608&#45;&gt;140520727959248</title>
<path fill="none" stroke="white" d="M598.95,-872.19C601.5,-883.59 605.91,-895.76 613.5,-905 616.85,-909.08 620.61,-912.86 624.65,-916.37"/>
<polygon fill="white" stroke="white" points="624.9,-916.57 622.72,-919.31 632.74,-922.77 624.9,-916.57"/>
<text text-anchor="middle" x="718.5" y="-893.8" font-family="Times,serif" font-size="14.00" fill="white">5,607,656 row(s)/64 chunk(s)</text>
</g>
<!-- 140521067326992 -->
<g id="node9" class="node">
<title>140521067326992</title>
<g id="a_node9"><a xlink:title="Output: 2803905 rows in 1145 chunks filtered: 0, 12 ms 230 µs.">
<polygon fill="none" stroke="white" points="544,-467 431,-467 431,-413 544,-413 544,-467"/>
<text text-anchor="middle" x="487.5" y="-451.8" font-family="Times,serif" font-size="14.00" fill="white">Validate</text>
<text text-anchor="middle" x="487.5" y="-420.8" font-family="Times,serif" font-size="14.00" fill="white">12 ms 230 µs</text>
</a>
</g>
</g>
<!-- 140521067326992&#45;&gt;140520727958608 -->
<g id="edge8" class="edge">
<title>140521067326992&#45;&gt;140520727958608</title>
<path fill="none" stroke="white" d="M544.33,-464.63C558.91,-473.52 572.89,-485.17 581.5,-500 609.63,-548.46 603.49,-712.95 598.62,-792.58"/>
<polygon fill="white" stroke="white" points="598.61,-792.8 595.12,-792.58 597.98,-802.78 598.61,-792.8"/>
<text text-anchor="middle" x="719.5" y="-668.8" font-family="Times,serif" font-size="14.00" fill="white">2,803,905 row(s)/1,145 chunk(s)</text>
</g>
<!-- 140520727957648 -->
<g id="node13" class="node">
<title>140520727957648</title>
<g id="a_node13"><a xlink:title="Output: 5607656 rows in 64 chunks filtered: 0, 388 ms 965 µs.&#10;Operator step runtimes:&#10; LeftSideMaterialize 171 ms 772 µs&#10; RightSideMaterialize 38 ms 923 µs&#10; LeftSideTransform 0 ns&#10; RightSideTransform 0 ns&#10; LeftSidePartition 75 ms 413 µs&#10; RightSidePartition 2 ms 2 µs&#10; LeftSideSortBuckets 40 ms 651 µs&#10; RightSideSortBuckets 2 ms 724 µs&#10; GatherRowIds 1 µs 889 ns&#10; FindJoinPartner 34 ms 995 µs&#10; OutputWriting 8 ms 512 µs.&#10;Radix bits: 8.">
<polygon fill="none" stroke="white" stroke-width="7.55" points="491,-624.5 206,-624.5 206,-555.5 491,-555.5 491,-624.5"/>
<text text-anchor="middle" x="348.5" y="-609.3" font-family="Times,serif" font-size="14.00" fill="white">JoinSimdSortMerge (Semi Reduction)</text>
<text text-anchor="middle" x="348.5" y="-594.3" font-family="Times,serif" font-size="14.00" fill="white">l_orderkey = o_orderkey</text>
<text text-anchor="middle" x="348.5" y="-563.3" font-family="Times,serif" font-size="14.00" fill="white">388 ms 965 µs</text>
</a>
</g>
</g>
<!-- 140521067326992&#45;&gt;140520727957648 -->
<g id="edge9" class="edge">
<title>140521067326992&#45;&gt;140520727957648</title>
<path fill="none" stroke="white" d="M430.99,-450.07C401.45,-457.98 367.74,-472.7 349.5,-500 340.85,-512.94 338.86,-529.49 339.61,-544.79"/>
<polygon fill="white" stroke="white" points="340.53,-555.12 343.13,-544.85 339.65,-545.16 340.53,-555.12"/>
<text text-anchor="middle" x="465.5" y="-503.8" font-family="Times,serif" font-size="14.00" fill="white">2,803,905 row(s)/1,145 chunk(s)</text>
</g>
<!-- 140520727958288 -->
<g id="node10" class="node">
<title>140520727958288</title>
<g id="a_node10"><a xlink:title="Output: 2803905 rows in 1145 chunks filtered: 0, 39 ms 395 µs.&#10;Chunks: 0 skipped with no results, &#10;0 skipped with all matching, 0 scanned using binary search.">
<polygon fill="none" stroke="white" stroke-width="1.9" points="700,-339.5 275,-339.5 275,-240.5 700,-240.5 700,-339.5"/>
<text text-anchor="middle" x="487.5" y="-324.3" font-family="Times,serif" font-size="14.00" fill="white">TableScan</text>
<text text-anchor="middle" x="487.5" y="-309.3" font-family="Times,serif" font-size="14.00" fill="white">Impl: ColumnBetween</text>
<text text-anchor="middle" x="487.5" y="-294.3" font-family="Times,serif" font-size="14.00" fill="white">o_orderdate BETWEEN UPPER EXCLUSIVE &#39;1994&#45;01&#45;01&#39;</text>
<text text-anchor="middle" x="487.5" y="-279.3" font-family="Times,serif" font-size="14.00" fill="white">AND &#39;1994&#45;04&#45;01&#39;</text>
<text text-anchor="middle" x="487.5" y="-248.3" font-family="Times,serif" font-size="14.00" fill="white">39 ms 395 µs</text>
</a>
</g>
</g>
<!-- 140520727958288&#45;&gt;140521067326992 -->
<g id="edge10" class="edge">
<title>140520727958288&#45;&gt;140521067326992</title>
<path fill="none" stroke="white" d="M487.5,-339.87C487.5,-360.24 487.5,-383.48 487.5,-402.34"/>
<polygon fill="white" stroke="white" points="484,-402.6 487.5,-412.6 491,-402.6 484,-402.6"/>
<text text-anchor="middle" x="603.5" y="-368.8" font-family="Times,serif" font-size="14.00" fill="white">2,803,905 row(s)/1,145 chunk(s)</text>
</g>
<!-- 140521143101968 -->
<g id="node11" class="node">
<title>140521143101968</title>
<g id="a_node11"><a xlink:title="Output: 75000000 rows in 1145 chunks filtered: 0, 3 ms 497 µs.">
<polygon fill="none" stroke="white" points="553,-148 422,-148 422,-34 553,-34 553,-148"/>
<text text-anchor="middle" x="487.5" y="-132.8" font-family="Times,serif" font-size="14.00" fill="white">GetTable</text>
<text text-anchor="middle" x="487.5" y="-117.8" font-family="Times,serif" font-size="14.00" fill="white">(orders)</text>
<text text-anchor="middle" x="487.5" y="-102.8" font-family="Times,serif" font-size="14.00" fill="white">pruned:</text>
<text text-anchor="middle" x="487.5" y="-87.8" font-family="Times,serif" font-size="14.00" fill="white">0/1145 chunk(s)</text>
<text text-anchor="middle" x="487.5" y="-72.8" font-family="Times,serif" font-size="14.00" fill="white">6/9 column(s)</text>
<text text-anchor="middle" x="487.5" y="-41.8" font-family="Times,serif" font-size="14.00" fill="white">3 ms 497 µs</text>
</a>
</g>
</g>
<!-- 140521143101968&#45;&gt;140520727958288 -->
<g id="edge11" class="edge">
<title>140521143101968&#45;&gt;140520727958288</title>
<path fill="none" stroke="white" stroke-width="4.58" d="M487.5,-148.19C487.5,-173.89 487.5,-204.34 487.5,-230.33"/>
<polygon fill="white" stroke="white" stroke-width="4.58" points="483.49,-230.43 487.5,-240.43 491.51,-230.43 483.49,-230.43"/>
<text text-anchor="middle" x="608" y="-203.8" font-family="Times,serif" font-size="14.00" fill="white">75,000,000 row(s)/1,145 chunk(s)</text>
</g>
<!-- 140521067323408 -->
<g id="node12" class="node">
<title>140521067323408</title>
<g id="a_node12"><a xlink:title="Output: 5607656 rows in 64 chunks filtered: 0, 19 ms 627 µs.">
<polygon fill="none" stroke="white" points="416,-752 303,-752 303,-698 416,-698 416,-752"/>
<text text-anchor="middle" x="359.5" y="-736.8" font-family="Times,serif" font-size="14.00" fill="white">Validate</text>
<text text-anchor="middle" x="359.5" y="-705.8" font-family="Times,serif" font-size="14.00" fill="white">19 ms 627 µs</text>
</a>
</g>
</g>
<!-- 140521067323408&#45;&gt;140520727958608 -->
<g id="edge12" class="edge">
<title>140521067323408&#45;&gt;140520727958608</title>
<path fill="none" stroke="white" d="M358.77,-752.15C359.83,-763.61 363.11,-776.39 371.5,-785 387.4,-801.3 433.64,-813.31 480.02,-821.6"/>
<polygon fill="white" stroke="white" points="489.9,-823.32 480.65,-818.16 480.05,-821.61 489.9,-823.32"/>
<text text-anchor="middle" x="476.5" y="-773.8" font-family="Times,serif" font-size="14.00" fill="white">5,607,656 row(s)/64 chunk(s)</text>
</g>
<!-- 140520727957648&#45;&gt;140521067323408 -->
<g id="edge13" class="edge">
<title>140520727957648&#45;&gt;140521067323408</title>
<path fill="none" stroke="white" d="M351.28,-624.56C352.86,-643.74 354.85,-667.81 356.48,-687.46"/>
<polygon fill="white" stroke="white" points="353,-687.9 357.31,-697.57 359.98,-687.32 353,-687.9"/>
<text text-anchor="middle" x="461.5" y="-668.8" font-family="Times,serif" font-size="14.00" fill="white">5,607,656 row(s)/64 chunk(s)</text>
</g>
<!-- 140520727957328 -->
<g id="node14" class="node">
<title>140520727957328</title>
<g id="a_node14"><a xlink:title="Output: 74026400 rows in 4578 chunks filtered: 0, 53 ms 775 µs.&#10;Chunks: 0 skipped with no results, &#10;0 skipped with all matching, 0 scanned using binary search.">
<polygon fill="none" stroke="white" stroke-width="2.67" points="169,-482 0,-482 0,-398 169,-398 169,-482"/>
<text text-anchor="middle" x="84.5" y="-466.8" font-family="Times,serif" font-size="14.00" fill="white">TableScan</text>
<text text-anchor="middle" x="84.5" y="-451.8" font-family="Times,serif" font-size="14.00" fill="white">Impl: ColumnVsValue</text>
<text text-anchor="middle" x="84.5" y="-436.8" font-family="Times,serif" font-size="14.00" fill="white">l_returnflag = &#39;R&#39;</text>
<text text-anchor="middle" x="84.5" y="-405.8" font-family="Times,serif" font-size="14.00" fill="white">53 ms 775 µs</text>
</a>
</g>
</g>
<!-- 140520727957328&#45;&gt;140520727957648 -->
<g id="edge14" class="edge">
<title>140520727957328&#45;&gt;140520727957648</title>
<path fill="none" stroke="white" stroke-width="4.55" d="M84.44,-482.21C86.36,-494.01 90.43,-506.08 98.5,-515 124,-543.2 159.67,-560.87 196.11,-571.87"/>
<polygon fill="white" stroke="white" stroke-width="4.55" points="196.27,-571.92 195.18,-575.74 205.89,-574.66 196.27,-571.92"/>
<text text-anchor="middle" x="219" y="-503.8" font-family="Times,serif" font-size="14.00" fill="white">74,026,400 row(s)/4,578 chunk(s)</text>
</g>
<!-- 140521143102416 -->
<g id="node15" class="node">
<title>140521143102416</title>
<g id="a_node15"><a xlink:title="Output: 300005811 rows in 4578 chunks filtered: 0, 18 ms 488 µs.">
<polygon fill="none" stroke="white" points="150,-347 19,-347 19,-233 150,-233 150,-347"/>
<text text-anchor="middle" x="84.5" y="-331.8" font-family="Times,serif" font-size="14.00" fill="white">GetTable</text>
<text text-anchor="middle" x="84.5" y="-316.8" font-family="Times,serif" font-size="14.00" fill="white">(lineitem)</text>
<text text-anchor="middle" x="84.5" y="-301.8" font-family="Times,serif" font-size="14.00" fill="white">pruned:</text>
<text text-anchor="middle" x="84.5" y="-286.8" font-family="Times,serif" font-size="14.00" fill="white">0/4578 chunk(s)</text>
<text text-anchor="middle" x="84.5" y="-271.8" font-family="Times,serif" font-size="14.00" fill="white">12/16 column(s)</text>
<text text-anchor="middle" x="84.5" y="-240.8" font-family="Times,serif" font-size="14.00" fill="white">18 ms 488 µs</text>
</a>
</g>
</g>
<!-- 140521143102416&#45;&gt;140520727957328 -->
<g id="edge15" class="edge">
<title>140521143102416&#45;&gt;140520727957328</title>
<path fill="none" stroke="white" stroke-width="8" d="M84.5,-347.37C84.5,-360.65 84.5,-374.74 84.5,-387.77"/>
<polygon fill="white" stroke="white" stroke-width="8" points="77.5,-387.97 84.5,-397.97 91.5,-387.97 77.5,-387.97"/>
<text text-anchor="middle" x="209.5" y="-368.8" font-family="Times,serif" font-size="14.00" fill="white">300,005,811 row(s)/4,578 chunk(s)</text>
</g>
<!-- 140520727958928 -->
<g id="node16" class="node">
<title>140520727958928</title>
<g id="a_node16"><a xlink:title="Output: 7500000 rows in 25 chunks filtered: 0, 353 ms 839 µs.&#10;Operator step runtimes:&#10; LeftSideMaterialize 10 ms 323 µs&#10; RightSideMaterialize 63 µs 319 ns&#10; LeftSideTransform 0 ns&#10; RightSideTransform 0 ns&#10; LeftSidePartition 28 ms 799 µs&#10; RightSidePartition 27 ms 93 µs&#10; LeftSideSortBuckets 33 ms 941 µs&#10; RightSideSortBuckets 7 ms 94 µs&#10; GatherRowIds 6 µs 324 ns&#10; FindJoinPartner 72 ms 632 µs&#10; OutputWriting 173 ms 66 µs.&#10;Radix bits: 8.">
<polygon fill="none" stroke="white" stroke-width="7.31" points="956,-872 745,-872 745,-803 956,-803 956,-872"/>
<text text-anchor="middle" x="850.5" y="-856.8" font-family="Times,serif" font-size="14.00" fill="white">JoinSimdSortMerge (Inner)</text>
<text text-anchor="middle" x="850.5" y="-841.8" font-family="Times,serif" font-size="14.00" fill="white">c_nationkey = n_nationkey</text>
<text text-anchor="middle" x="850.5" y="-810.8" font-family="Times,serif" font-size="14.00" fill="white">353 ms 839 µs</text>
</a>
</g>
</g>
<!-- 140520727958928&#45;&gt;140520727959248 -->
<g id="edge16" class="edge">
<title>140520727958928&#45;&gt;140520727959248</title>
<path fill="none" stroke="white" d="M842.25,-872.01C838.11,-883.52 832.1,-895.81 823.5,-905 819.47,-909.31 815,-913.3 810.25,-916.99"/>
<polygon fill="white" stroke="white" points="802.01,-922.92 812.17,-919.92 810.12,-917.08 802.01,-922.92"/>
<text text-anchor="middle" x="939.5" y="-893.8" font-family="Times,serif" font-size="14.00" fill="white">7,500,000 row(s)/25 chunk(s)</text>
</g>
<!-- 140681542860048 -->
<g id="node17" class="node">
<title>140681542860048</title>
<g id="a_node17"><a xlink:title="Output: 7500000 rows in 115 chunks filtered: 0, 644 µs 551 ns.">
<polygon fill="none" stroke="white" points="909,-752 792,-752 792,-698 909,-698 909,-752"/>
<text text-anchor="middle" x="850.5" y="-736.8" font-family="Times,serif" font-size="14.00" fill="white">Validate</text>
<text text-anchor="middle" x="850.5" y="-705.8" font-family="Times,serif" font-size="14.00" fill="white">644 µs 551 ns</text>
</a>
</g>
</g>
<!-- 140681542860048&#45;&gt;140520727958928 -->
<g id="edge17" class="edge">
<title>140681542860048&#45;&gt;140520727958928</title>
<path fill="none" stroke="white" d="M850.5,-752.19C850.5,-764.29 850.5,-779 850.5,-792.72"/>
<polygon fill="white" stroke="white" points="850.5,-792.95 847,-792.95 850.5,-802.95 850.5,-792.95"/>
<text text-anchor="middle" x="960" y="-773.8" font-family="Times,serif" font-size="14.00" fill="white">7,500,000 row(s)/115 chunk(s)</text>
</g>
<!-- 140521143102864 -->
<g id="node18" class="node">
<title>140521143102864</title>
<g id="a_node18"><a xlink:title="Output: 7500000 rows in 115 chunks filtered: 0, 635 µs 341 ns.">
<polygon fill="none" stroke="white" points="911.5,-647 789.5,-647 789.5,-533 911.5,-533 911.5,-647"/>
<text text-anchor="middle" x="850.5" y="-631.8" font-family="Times,serif" font-size="14.00" fill="white">GetTable</text>
<text text-anchor="middle" x="850.5" y="-616.8" font-family="Times,serif" font-size="14.00" fill="white">(customer)</text>
<text text-anchor="middle" x="850.5" y="-601.8" font-family="Times,serif" font-size="14.00" fill="white">pruned:</text>
<text text-anchor="middle" x="850.5" y="-586.8" font-family="Times,serif" font-size="14.00" fill="white">0/115 chunk(s)</text>
<text text-anchor="middle" x="850.5" y="-571.8" font-family="Times,serif" font-size="14.00" fill="white">1/8 column(s)</text>
<text text-anchor="middle" x="850.5" y="-540.8" font-family="Times,serif" font-size="14.00" fill="white">635 µs 341 ns</text>
</a>
</g>
</g>
<!-- 140521143102864&#45;&gt;140681542860048 -->
<g id="edge18" class="edge">
<title>140521143102864&#45;&gt;140681542860048</title>
<path fill="none" stroke="white" d="M850.5,-647.02C850.5,-660.77 850.5,-675.14 850.5,-687.69"/>
<polygon fill="white" stroke="white" points="847,-687.75 850.5,-697.75 854,-687.75 847,-687.75"/>
<text text-anchor="middle" x="960" y="-668.8" font-family="Times,serif" font-size="14.00" fill="white">7,500,000 row(s)/115 chunk(s)</text>
</g>
<!-- 140520727692304 -->
<g id="node19" class="node">
<title>140520727692304</title>
<g id="a_node19"><a xlink:title="Output: 25 rows in 1 chunk filtered: 0, 10 µs 474 ns.">
<polygon fill="none" stroke="white" points="1146.5,-752 1038.5,-752 1038.5,-698 1146.5,-698 1146.5,-752"/>
<text text-anchor="middle" x="1092.5" y="-736.8" font-family="Times,serif" font-size="14.00" fill="white">Validate</text>
<text text-anchor="middle" x="1092.5" y="-705.8" font-family="Times,serif" font-size="14.00" fill="white">10 µs 474 ns</text>
</a>
</g>
</g>
<!-- 140520727692304&#45;&gt;140520727958928 -->
<g id="edge19" class="edge">
<title>140520727692304&#45;&gt;140520727958928</title>
<path fill="none" stroke="white" d="M1088.5,-752.12C1085.43,-763.72 1080.02,-776.62 1070.5,-785 1054.11,-799.43 1010.37,-811.05 966.17,-819.57"/>
<polygon fill="white" stroke="white" points="956.14,-821.45 966.61,-823.05 965.97,-819.61 956.14,-821.45"/>
<text text-anchor="middle" x="1155" y="-773.8" font-family="Times,serif" font-size="14.00" fill="white">25 row(s)/1 chunk(s)</text>
</g>
<!-- 140521143103312 -->
<g id="node20" class="node">
<title>140521143103312</title>
<g id="a_node20"><a xlink:title="Output: 25 rows in 1 chunk filtered: 0, 35 µs 460 ns.">
<polygon fill="none" stroke="white" points="1149,-647 1036,-647 1036,-533 1149,-533 1149,-647"/>
<text text-anchor="middle" x="1092.5" y="-631.8" font-family="Times,serif" font-size="14.00" fill="white">GetTable</text>
<text text-anchor="middle" x="1092.5" y="-616.8" font-family="Times,serif" font-size="14.00" fill="white">(nation)</text>
<text text-anchor="middle" x="1092.5" y="-601.8" font-family="Times,serif" font-size="14.00" fill="white">pruned:</text>
<text text-anchor="middle" x="1092.5" y="-586.8" font-family="Times,serif" font-size="14.00" fill="white">0/1 chunk(s)</text>
<text text-anchor="middle" x="1092.5" y="-571.8" font-family="Times,serif" font-size="14.00" fill="white">2/4 column(s)</text>
<text text-anchor="middle" x="1092.5" y="-540.8" font-family="Times,serif" font-size="14.00" fill="white">35 µs 460 ns</text>
</a>
</g>
</g>
<!-- 140521143103312&#45;&gt;140520727692304 -->
<g id="edge20" class="edge">
<title>140521143103312&#45;&gt;140520727692304</title>
<path fill="none" stroke="white" d="M1092.5,-647.02C1092.5,-660.77 1092.5,-675.14 1092.5,-687.69"/>
<polygon fill="white" stroke="white" points="1089,-687.75 1092.5,-697.75 1096,-687.75 1089,-687.75"/>
<text text-anchor="middle" x="1166" y="-668.8" font-family="Times,serif" font-size="14.00" fill="white">25 row(s)/1 chunk(s)</text>
</g>
<!-- 0 -->
<g id="node21" class="node">
<title>0</title>
<polygon fill="none" stroke="white" points="571.5,-0.5 571.5,-181.5 917.5,-181.5 917.5,-0.5 571.5,-0.5"/>
<text text-anchor="middle" x="744.5" y="-166.3" font-family="Times,serif" font-size="14.00" fill="white">Total by operator</text>
<polyline fill="none" stroke="white" points="571.5,-158.5 917.5,-158.5 "/>
<text text-anchor="end" x="725.5" y="-143.3" font-family="Times,serif" font-size="14.00" fill="white">JoinSimdSortMerge </text>
<text text-anchor="end" x="725.5" y="-128.3" font-family="Times,serif" font-size="14.00" fill="white"> AggregateHash </text>
<text text-anchor="end" x="725.5" y="-113.3" font-family="Times,serif" font-size="14.00" fill="white"> Sort </text>
<text text-anchor="end" x="725.5" y="-98.3" font-family="Times,serif" font-size="14.00" fill="white"> Projection </text>
<text text-anchor="end" x="725.5" y="-83.3" font-family="Times,serif" font-size="14.00" fill="white"> TableScan </text>
<text text-anchor="end" x="725.5" y="-68.3" font-family="Times,serif" font-size="14.00" fill="white"> Validate </text>
<text text-anchor="end" x="725.5" y="-53.3" font-family="Times,serif" font-size="14.00" fill="white"> GetTable </text>
<text text-anchor="end" x="725.5" y="-38.3" font-family="Times,serif" font-size="14.00" fill="white"> Limit </text>
<text text-anchor="end" x="725.5" y="-23.3" font-family="Times,serif" font-size="14.00" fill="white"> Alias </text>
<text text-anchor="end" x="725.5" y="-8.3" font-family="Times,serif" font-size="14.00" fill="white">total</text>
<polyline fill="none" stroke="white" points="733.5,-0.5 733.5,-158.5 "/>
<text text-anchor="start" x="741.5" y="-143.3" font-family="Times,serif" font-size="14.00" fill="white">1 s 67 ms </text>
<text text-anchor="start" x="741.5" y="-128.3" font-family="Times,serif" font-size="14.00" fill="white"> 467 ms 639 µs </text>
<text text-anchor="start" x="741.5" y="-113.3" font-family="Times,serif" font-size="14.00" fill="white"> 459 ms 358 µs </text>
<text text-anchor="start" x="741.5" y="-98.3" font-family="Times,serif" font-size="14.00" fill="white"> 196 ms 303 µs </text>
<text text-anchor="start" x="741.5" y="-83.3" font-family="Times,serif" font-size="14.00" fill="white"> 93 ms 170 µs </text>
<text text-anchor="start" x="741.5" y="-68.3" font-family="Times,serif" font-size="14.00" fill="white"> 32 ms 512 µs </text>
<text text-anchor="start" x="741.5" y="-53.3" font-family="Times,serif" font-size="14.00" fill="white"> 22 ms 656 µs </text>
<text text-anchor="start" x="741.5" y="-38.3" font-family="Times,serif" font-size="14.00" fill="white"> 17 µs 873 ns </text>
<text text-anchor="start" x="741.5" y="-23.3" font-family="Times,serif" font-size="14.00" fill="white"> 2 µs 887 ns </text>
<text text-anchor="start" x="741.5" y="-8.3" font-family="Times,serif" font-size="14.00" fill="white"> 2 s 339 ms </text>
<polyline fill="none" stroke="white" points="864.5,-0.5 864.5,-158.5 "/>
<text text-anchor="start" x="872.5" y="-143.3" font-family="Times,serif" font-size="14.00" fill="white">46 %</text>
<text text-anchor="start" x="872.5" y="-128.3" font-family="Times,serif" font-size="14.00" fill="white">20 %</text>
<text text-anchor="start" x="872.5" y="-113.3" font-family="Times,serif" font-size="14.00" fill="white">20 %</text>
<text text-anchor="start" x="872.5" y="-98.3" font-family="Times,serif" font-size="14.00" fill="white">8 %</text>
<text text-anchor="start" x="872.5" y="-83.3" font-family="Times,serif" font-size="14.00" fill="white">4 %</text>
<text text-anchor="start" x="872.5" y="-68.3" font-family="Times,serif" font-size="14.00" fill="white">1 %</text>
<text text-anchor="start" x="872.5" y="-53.3" font-family="Times,serif" font-size="14.00" fill="white">1 %</text>
<text text-anchor="start" x="872.5" y="-38.3" font-family="Times,serif" font-size="14.00" fill="white">0 %</text>
<text text-anchor="start" x="872.5" y="-23.3" font-family="Times,serif" font-size="14.00" fill="white">0 %</text>
<text text-anchor="start" x="872.5" y="-8.3" font-family="Times,serif" font-size="14.00" fill="white"> </text>
</g>
</g>
</svg>
