<?xml version="1.0" encoding="UTF-8" standalone="no"?>
<!DOCTYPE svg PUBLIC "-//W3C//DTD SVG 1.1//EN"
 "http://www.w3.org/Graphics/SVG/1.1/DTD/svg11.dtd">
<!-- Generated by graphviz version 2.43.0 (0)
 -->
<!-- Title: G Pages: 1 -->
<svg width="842pt" height="1895pt"
 viewBox="0.00 0.00 841.50 1895.00" xmlns="http://www.w3.org/2000/svg" xmlns:xlink="http://www.w3.org/1999/xlink">
<g id="graph0" class="graph" transform="scale(1 1) rotate(0) translate(4 1891)">
<title>G</title>
<polygon fill="black" stroke="transparent" points="-4,4 -4,-1891 837.5,-1891 837.5,4 -4,4"/>
<text text-anchor="middle" x="319.5" y="-1871.8" font-family="Times,serif" font-size="14.00" fill="white">For tooltips with advanced information, hover your mouse over vertices or edge labels.</text>
<!-- 139910454796944 -->
<g id="node1" class="node">
<title>139910454796944</title>
<g id="a_node1"><a xlink:title="Output: 2 rows in 1 chunk filtered: 0, 4 µs 297 ns.">
<polygon fill="none" stroke="white" points="613.5,-1832 272.5,-1832 272.5,-1763 613.5,-1763 613.5,-1832"/>
<text text-anchor="middle" x="443" y="-1816.8" font-family="Times,serif" font-size="14.00" fill="white">Alias</text>
<text text-anchor="middle" x="443" y="-1801.8" font-family="Times,serif" font-size="14.00" fill="white">[l_shipmode, high_line_count, low_line_count]</text>
<text text-anchor="middle" x="443" y="-1770.8" font-family="Times,serif" font-size="14.00" fill="white">4 µs 297 ns</text>
</a>
</g>
</g>
<!-- 139910454796624 -->
<g id="node2" class="node">
<title>139910454796624</title>
<g id="a_node2"><a xlink:title="Output: 2 rows in 1 chunk filtered: 0, 28 µs 13 ns.&#10;Operator step runtimes:&#10; MaterializeSortColumns 7 µs 364 ns&#10; Sort 4 µs 418 ns&#10; TemporaryResultWriting 471 ns&#10; WriteOutput 13 µs 235 ns.">
<polygon fill="none" stroke="white" points="492.5,-1712 393.5,-1712 393.5,-1658 492.5,-1658 492.5,-1712"/>
<text text-anchor="middle" x="443" y="-1696.8" font-family="Times,serif" font-size="14.00" fill="white">Sort</text>
<text text-anchor="middle" x="443" y="-1665.8" font-family="Times,serif" font-size="14.00" fill="white">28 µs 13 ns</text>
</a>
</g>
</g>
<!-- 139910454796624&#45;&gt;139910454796944 -->
<g id="edge1" class="edge">
<title>139910454796624&#45;&gt;139910454796944</title>
<path fill="none" stroke="white" d="M443,-1712.19C443,-1724.29 443,-1739 443,-1752.72"/>
<polygon fill="white" stroke="white" points="439.5,-1752.95 443,-1762.95 446.5,-1752.96 439.5,-1752.95"/>
<text text-anchor="middle" x="512" y="-1733.8" font-family="Times,serif" font-size="14.00" fill="white">2 row(s)/1 chunk(s)</text>
</g>
<!-- 139926712682512 -->
<g id="node3" class="node">
<title>139926712682512</title>
<g id="a_node3"><a xlink:title="Output: 2 rows in 1 chunk filtered: 0, 44 ms 465 µs.&#10;Operator step runtimes:&#10; GroupByKeyPartitioning 37 ms 294 µs&#10; Aggregating 7 ms 124 µs&#10; GroupByColumnsWriting 7 µs 465 ns&#10; AggregateColumnsWriting 15 µs 649 ns&#10; OutputWriting 11 µs 451 ns.">
<polygon fill="none" stroke="white" stroke-width="6.3" points="650.5,-1607 235.5,-1607 235.5,-1478 650.5,-1478 650.5,-1607"/>
<text text-anchor="middle" x="443" y="-1591.8" font-family="Times,serif" font-size="14.00" fill="white">AggregateHash</text>
<text text-anchor="middle" x="443" y="-1576.8" font-family="Times,serif" font-size="14.00" fill="white">GroupBy {l_shipmode}</text>
<text text-anchor="middle" x="443" y="-1561.8" font-family="Times,serif" font-size="14.00" fill="white">SUM(CASE WHEN o_orderpriority = &#39;1&#45;URGENT&#39; OR</text>
<text text-anchor="middle" x="443" y="-1546.8" font-family="Times,serif" font-size="14.00" fill="white">o_orderpriority = &#39;2&#45;HIGH&#39; THEN 1 ELSE 0 END), </text>
<text text-anchor="middle" x="443" y="-1531.8" font-family="Times,serif" font-size="14.00" fill="white">SUM(CASE WHEN o_orderpriority != &#39;1&#45;URGENT&#39; AND</text>
<text text-anchor="middle" x="443" y="-1516.8" font-family="Times,serif" font-size="14.00" fill="white">o_orderpriority != &#39;2&#45;HIGH&#39; THEN 1 ELSE 0 END)</text>
<text text-anchor="middle" x="443" y="-1485.8" font-family="Times,serif" font-size="14.00" fill="white">44 ms 465 µs</text>
</a>
</g>
</g>
<!-- 139926712682512&#45;&gt;139910454796624 -->
<g id="edge2" class="edge">
<title>139926712682512&#45;&gt;139910454796624</title>
<path fill="none" stroke="white" d="M443,-1607.17C443,-1620.99 443,-1635.14 443,-1647.48"/>
<polygon fill="white" stroke="white" points="439.5,-1647.8 443,-1657.8 446.5,-1647.8 439.5,-1647.8"/>
<text text-anchor="middle" x="512" y="-1628.8" font-family="Times,serif" font-size="14.00" fill="white">2 row(s)/1 chunk(s)</text>
</g>
<!-- 139910454796304 -->
<g id="node4" class="node">
<title>139910454796304</title>
<g id="a_node4"><a xlink:title="Output: 312800 rows in 2 chunks filtered: 0, 39 ms 187 µs.&#10;Operator step runtimes:&#10; ForwardUnmodifiedColumns 10 µs 720 ns&#10; EvaluateNewColumns 39 ms 104 µs&#10; BuildOutput 62 µs 186 ns.">
<polygon fill="none" stroke="white" stroke-width="5.99" points="499.5,-1427 386.5,-1427 386.5,-1373 499.5,-1373 499.5,-1427"/>
<text text-anchor="middle" x="443" y="-1411.8" font-family="Times,serif" font-size="14.00" fill="white">Projection</text>
<text text-anchor="middle" x="443" y="-1380.8" font-family="Times,serif" font-size="14.00" fill="white">39 ms 187 µs</text>
</a>
</g>
</g>
<!-- 139910454796304&#45;&gt;139926712682512 -->
<g id="edge3" class="edge">
<title>139910454796304&#45;&gt;139926712682512</title>
<path fill="none" stroke="white" d="M443,-1427.1C443,-1438.77 443,-1453.17 443,-1467.78"/>
<polygon fill="white" stroke="white" points="439.5,-1467.89 443,-1477.89 446.5,-1467.89 439.5,-1467.89"/>
<text text-anchor="middle" x="536.5" y="-1448.8" font-family="Times,serif" font-size="14.00" fill="white">312,800 row(s)/2 chunk(s)</text>
</g>
<!-- 139926712704720 -->
<g id="node5" class="node">
<title>139926712704720</title>
<g id="a_node5"><a xlink:title="Output: 312800 rows in 2 chunks filtered: 0, 88 ms 577 µs.&#10;Operator step runtimes:&#10; BuildSideMaterializing 21 ms 848 µs&#10; ProbeSideMaterializing 46 ms 208 µs&#10; Clustering 2 ms 558 µs&#10; Building 7 ms 394 µs&#10; Probing 5 ms 507 µs&#10; OutputWriting 5 ms 6 µs.&#10;Radix bits: 1.&#10;Build side is right.">
<polygon fill="none" stroke="white" stroke-width="8" points="538.5,-1322 347.5,-1322 347.5,-1253 538.5,-1253 538.5,-1322"/>
<text text-anchor="middle" x="443" y="-1306.8" font-family="Times,serif" font-size="14.00" fill="white">JoinHash (Inner)</text>
<text text-anchor="middle" x="443" y="-1291.8" font-family="Times,serif" font-size="14.00" fill="white">l_orderkey = o_orderkey</text>
<text text-anchor="middle" x="443" y="-1260.8" font-family="Times,serif" font-size="14.00" fill="white">88 ms 577 µs</text>
</a>
</g>
</g>
<!-- 139926712704720&#45;&gt;139910454796304 -->
<g id="edge4" class="edge">
<title>139926712704720&#45;&gt;139910454796304</title>
<path fill="none" stroke="white" d="M443,-1322.25C443,-1335.07 443,-1349.73 443,-1362.77"/>
<polygon fill="white" stroke="white" points="439.5,-1362.81 443,-1372.81 446.5,-1362.81 439.5,-1362.81"/>
<text text-anchor="middle" x="536.5" y="-1343.8" font-family="Times,serif" font-size="14.00" fill="white">312,800 row(s)/2 chunk(s)</text>
</g>
<!-- 139926712704080 -->
<g id="node6" class="node">
<title>139926712704080</title>
<g id="a_node6"><a xlink:title="Output: 312800 rows in 1832 chunks filtered: 0, 7 ms 839 µs.&#10;Chunks: 0 skipped with no results, &#10;0 skipped with all matching, 0 scanned using binary search.">
<polygon fill="none" stroke="white" stroke-width="2.02" points="532,-962 326,-962 326,-878 532,-878 532,-962"/>
<text text-anchor="middle" x="429" y="-946.8" font-family="Times,serif" font-size="14.00" fill="white">TableScan</text>
<text text-anchor="middle" x="429" y="-931.8" font-family="Times,serif" font-size="14.00" fill="white">Impl: ColumnVsColumn</text>
<text text-anchor="middle" x="429" y="-916.8" font-family="Times,serif" font-size="14.00" fill="white">l_commitdate &gt; l_shipdate</text>
<text text-anchor="middle" x="429" y="-885.8" font-family="Times,serif" font-size="14.00" fill="white">7 ms 839 µs</text>
</a>
</g>
</g>
<!-- 139926712704080&#45;&gt;139926712704720 -->
<g id="edge5" class="edge">
<title>139926712704080&#45;&gt;139926712704720</title>
<path fill="none" stroke="white" d="M504.8,-962.06C515.77,-971.4 525.52,-982.36 532,-995 580.68,-1089.91 585.29,-1142.6 532,-1235 529.84,-1238.74 527.3,-1242.23 524.46,-1245.49"/>
<polygon fill="white" stroke="white" points="524.38,-1245.57 521.89,-1243.11 517.35,-1252.68 524.38,-1245.57"/>
<text text-anchor="middle" x="680.5" y="-1118.8" font-family="Times,serif" font-size="14.00" fill="white">312,800 row(s)/1,832 chunk(s)</text>
</g>
<!-- 139926712704400 -->
<g id="node15" class="node">
<title>139926712704400</title>
<g id="a_node15"><a xlink:title="Output: 293490 rows in 4 chunks filtered: 4845660, 77 ms 350 µs.&#10;Operator step runtimes:&#10; BuildSideMaterializing 47 ms 257 µs&#10; ProbeSideMaterializing 5 ms 386 µs&#10; Clustering 8 ms 120 µs&#10; Building 1 ms 613 µs&#10; Probing 14 ms 620 µs&#10; OutputWriting 53 µs 290 ns.&#10;Radix bits: 2.&#10;Build side is right.">
<polygon fill="none" stroke="white" stroke-width="7.67" points="416,-1097 208,-1097 208,-1028 416,-1028 416,-1097"/>
<text text-anchor="middle" x="312" y="-1081.8" font-family="Times,serif" font-size="14.00" fill="white">JoinHash (Semi Reduction)</text>
<text text-anchor="middle" x="312" y="-1066.8" font-family="Times,serif" font-size="14.00" fill="white">o_orderkey = l_orderkey</text>
<text text-anchor="middle" x="312" y="-1035.8" font-family="Times,serif" font-size="14.00" fill="white">77 ms 350 µs</text>
</a>
</g>
</g>
<!-- 139926712704080&#45;&gt;139926712704400 -->
<g id="edge6" class="edge">
<title>139926712704080&#45;&gt;139926712704400</title>
<path fill="none" stroke="white" d="M342.26,-962.02C330.57,-971.24 320.16,-982.17 313,-995 309.21,-1001.8 307.34,-1009.63 306.65,-1017.48"/>
<polygon fill="white" stroke="white" points="306.36,-1027.73 310.14,-1017.83 306.65,-1017.73 306.36,-1027.73"/>
<text text-anchor="middle" x="422.5" y="-998.8" font-family="Times,serif" font-size="14.00" fill="white">312,800 row(s)/1,832 chunk(s)</text>
</g>
<!-- 139926712703760 -->
<g id="node7" class="node">
<title>139926712703760</title>
<g id="a_node7"><a xlink:title="Output: 1645566 rows in 1832 chunks filtered: 0, 8 ms 864 µs.&#10;Chunks: 0 skipped with no results, &#10;0 skipped with all matching, 0 scanned using binary search.">
<polygon fill="none" stroke="white" stroke-width="2.32" points="542.5,-812 315.5,-812 315.5,-728 542.5,-728 542.5,-812"/>
<text text-anchor="middle" x="429" y="-796.8" font-family="Times,serif" font-size="14.00" fill="white">TableScan</text>
<text text-anchor="middle" x="429" y="-781.8" font-family="Times,serif" font-size="14.00" fill="white">Impl: ColumnVsColumn</text>
<text text-anchor="middle" x="429" y="-766.8" font-family="Times,serif" font-size="14.00" fill="white">l_receiptdate &gt; l_commitdate</text>
<text text-anchor="middle" x="429" y="-735.8" font-family="Times,serif" font-size="14.00" fill="white">8 ms 864 µs</text>
</a>
</g>
</g>
<!-- 139926712703760&#45;&gt;139926712704080 -->
<g id="edge7" class="edge">
<title>139926712703760&#45;&gt;139926712704080</title>
<path fill="none" stroke="white" d="M429,-812.23C429,-829.47 429,-849.68 429,-867.85"/>
<polygon fill="white" stroke="white" points="425.5,-867.99 429,-877.99 432.5,-867.99 425.5,-867.99"/>
<text text-anchor="middle" x="545" y="-833.8" font-family="Times,serif" font-size="14.00" fill="white">1,645,566 row(s)/1,832 chunk(s)</text>
</g>
<!-- 139926712930832 -->
<g id="node8" class="node">
<title>139926712930832</title>
<g id="a_node8"><a xlink:title="Output: 2602959 rows in 1832 chunks filtered: 0, 3 ms 209 µs.">
<polygon fill="none" stroke="white" points="481,-677 377,-677 377,-623 481,-623 481,-677"/>
<text text-anchor="middle" x="429" y="-661.8" font-family="Times,serif" font-size="14.00" fill="white">Validate</text>
<text text-anchor="middle" x="429" y="-630.8" font-family="Times,serif" font-size="14.00" fill="white">3 ms 209 µs</text>
</a>
</g>
</g>
<!-- 139926712930832&#45;&gt;139926712703760 -->
<g id="edge8" class="edge">
<title>139926712930832&#45;&gt;139926712703760</title>
<path fill="none" stroke="white" d="M429,-677.19C429,-689.1 429,-703.63 429,-717.58"/>
<polygon fill="white" stroke="white" points="425.5,-717.59 429,-727.59 432.5,-717.59 425.5,-717.59"/>
<text text-anchor="middle" x="545" y="-698.8" font-family="Times,serif" font-size="14.00" fill="white">2,602,959 row(s)/1,832 chunk(s)</text>
</g>
<!-- 139926712931856 -->
<g id="node9" class="node">
<title>139926712931856</title>
<g id="a_node9"><a xlink:title="Output: 2602959 rows in 1832 chunks filtered: 0, 1 ms 652 µs.">
<polygon fill="none" stroke="white" points="481,-572 377,-572 377,-518 481,-518 481,-572"/>
<text text-anchor="middle" x="429" y="-556.8" font-family="Times,serif" font-size="14.00" fill="white">UnionAll</text>
<text text-anchor="middle" x="429" y="-525.8" font-family="Times,serif" font-size="14.00" fill="white">1 ms 652 µs</text>
</a>
</g>
</g>
<!-- 139926712931856&#45;&gt;139926712930832 -->
<g id="edge9" class="edge">
<title>139926712931856&#45;&gt;139926712930832</title>
<path fill="none" stroke="white" d="M429,-572.26C429,-584.49 429,-599.24 429,-612.52"/>
<polygon fill="white" stroke="white" points="425.5,-612.79 429,-622.79 432.5,-612.79 425.5,-612.79"/>
<text text-anchor="middle" x="545" y="-593.8" font-family="Times,serif" font-size="14.00" fill="white">2,602,959 row(s)/1,832 chunk(s)</text>
</g>
<!-- 139926712703120 -->
<g id="node10" class="node">
<title>139926712703120</title>
<g id="a_node10"><a xlink:title="Output: 1302863 rows in 916 chunks filtered: 0, 6 ms 260 µs.&#10;Chunks: 0 skipped with no results, &#10;0 skipped with all matching, 0 scanned using binary search.">
<polygon fill="none" stroke="white" stroke-width="1.47" points="392.5,-467 223.5,-467 223.5,-383 392.5,-383 392.5,-467"/>
<text text-anchor="middle" x="308" y="-451.8" font-family="Times,serif" font-size="14.00" fill="white">TableScan</text>
<text text-anchor="middle" x="308" y="-436.8" font-family="Times,serif" font-size="14.00" fill="white">Impl: ColumnVsValue</text>
<text text-anchor="middle" x="308" y="-421.8" font-family="Times,serif" font-size="14.00" fill="white">l_shipmode = &#39;SHIP&#39;</text>
<text text-anchor="middle" x="308" y="-390.8" font-family="Times,serif" font-size="14.00" fill="white">6 ms 260 µs</text>
</a>
</g>
</g>
<!-- 139926712703120&#45;&gt;139926712931856 -->
<g id="edge10" class="edge">
<title>139926712703120&#45;&gt;139926712931856</title>
<path fill="none" stroke="white" d="M300.28,-467.09C300.21,-478.62 302.31,-490.56 309,-500 322.41,-518.92 344.86,-529.72 366.74,-535.89"/>
<polygon fill="white" stroke="white" points="367.03,-535.96 366.17,-539.35 376.72,-538.41 367.03,-535.96"/>
<text text-anchor="middle" x="418.5" y="-488.8" font-family="Times,serif" font-size="14.00" fill="white">1,302,863 row(s)/916 chunk(s)</text>
</g>
<!-- 139926712702160 -->
<g id="node11" class="node">
<title>139926712702160</title>
<g id="a_node11"><a xlink:title="Output: 9110887 rows in 916 chunks filtered: 0, 3 ms 611 µs.&#10;Chunks: 0 skipped with no results, &#10;0 skipped with all matching, 0 scanned using binary search.">
<polygon fill="none" stroke="white" points="645,-332 213,-332 213,-233 645,-233 645,-332"/>
<text text-anchor="middle" x="429" y="-316.8" font-family="Times,serif" font-size="14.00" fill="white">TableScan</text>
<text text-anchor="middle" x="429" y="-301.8" font-family="Times,serif" font-size="14.00" fill="white">Impl: ColumnBetween</text>
<text text-anchor="middle" x="429" y="-286.8" font-family="Times,serif" font-size="14.00" fill="white">l_receiptdate BETWEEN UPPER EXCLUSIVE &#39;1993&#45;01&#45;01&#39;</text>
<text text-anchor="middle" x="429" y="-271.8" font-family="Times,serif" font-size="14.00" fill="white">AND &#39;1994&#45;01&#45;01&#39;</text>
<text text-anchor="middle" x="429" y="-240.8" font-family="Times,serif" font-size="14.00" fill="white">3 ms 611 µs</text>
</a>
</g>
</g>
<!-- 139926712702160&#45;&gt;139926712703120 -->
<g id="edge11" class="edge">
<title>139926712702160&#45;&gt;139926712703120</title>
<path fill="none" stroke="white" stroke-width="3.35" d="M323.14,-332.12C317.72,-337.51 312.91,-343.46 309,-350 304.92,-356.82 302.75,-364.67 301.81,-372.65"/>
<polygon fill="white" stroke="white" stroke-width="3.35" points="298.31,-372.57 301.23,-382.76 305.3,-372.98 298.31,-372.57"/>
<text text-anchor="middle" x="418.5" y="-353.8" font-family="Times,serif" font-size="14.00" fill="white">9,110,887 row(s)/916 chunk(s)</text>
</g>
<!-- 139926712703440 -->
<g id="node13" class="node">
<title>139926712703440</title>
<g id="a_node13"><a xlink:title="Output: 1300096 rows in 916 chunks filtered: 0, 6 ms 506 µs.&#10;Chunks: 0 skipped with no results, &#10;0 skipped with all matching, 0 scanned using binary search.">
<polygon fill="none" stroke="white" stroke-width="1.56" points="644,-467 456,-467 456,-383 644,-383 644,-467"/>
<text text-anchor="middle" x="550" y="-451.8" font-family="Times,serif" font-size="14.00" fill="white">TableScan</text>
<text text-anchor="middle" x="550" y="-436.8" font-family="Times,serif" font-size="14.00" fill="white">Impl: ColumnVsValue</text>
<text text-anchor="middle" x="550" y="-421.8" font-family="Times,serif" font-size="14.00" fill="white">l_shipmode = &#39;REG AIR&#39;</text>
<text text-anchor="middle" x="550" y="-390.8" font-family="Times,serif" font-size="14.00" fill="white">6 ms 506 µs</text>
</a>
</g>
</g>
<!-- 139926712702160&#45;&gt;139926712703440 -->
<g id="edge12" class="edge">
<title>139926712702160&#45;&gt;139926712703440</title>
<path fill="none" stroke="white" stroke-width="3.35" d="M511.96,-332.25C517.88,-337.74 523.34,-343.66 528,-350 533.08,-356.91 536.99,-364.98 540.01,-373.21"/>
<polygon fill="white" stroke="white" stroke-width="3.35" points="536.73,-374.45 543.15,-382.88 543.39,-372.29 536.73,-374.45"/>
<text text-anchor="middle" x="646.5" y="-353.8" font-family="Times,serif" font-size="14.00" fill="white">9,110,887 row(s)/916 chunk(s)</text>
</g>
<!-- 139906599351120 -->
<g id="node12" class="node">
<title>139906599351120</title>
<g id="a_node12"><a xlink:title="Output: 59986052 rows in 916 chunks filtered: 0, 1 ms 555 µs.">
<polygon fill="none" stroke="white" points="494.5,-148 363.5,-148 363.5,-34 494.5,-34 494.5,-148"/>
<text text-anchor="middle" x="429" y="-132.8" font-family="Times,serif" font-size="14.00" fill="white">GetTable</text>
<text text-anchor="middle" x="429" y="-117.8" font-family="Times,serif" font-size="14.00" fill="white">(lineitem)</text>
<text text-anchor="middle" x="429" y="-102.8" font-family="Times,serif" font-size="14.00" fill="white">pruned:</text>
<text text-anchor="middle" x="429" y="-87.8" font-family="Times,serif" font-size="14.00" fill="white">0/916 chunk(s)</text>
<text text-anchor="middle" x="429" y="-72.8" font-family="Times,serif" font-size="14.00" fill="white">11/16 column(s)</text>
<text text-anchor="middle" x="429" y="-41.8" font-family="Times,serif" font-size="14.00" fill="white">1 ms 555 µs</text>
</a>
</g>
</g>
<!-- 139906599351120&#45;&gt;139926712702160 -->
<g id="edge13" class="edge">
<title>139906599351120&#45;&gt;139926712702160</title>
<path fill="none" stroke="white" stroke-width="8" d="M429,-148.09C429,-171.57 429,-198.88 429,-222.65"/>
<polygon fill="white" stroke="white" stroke-width="8" points="422,-222.94 429,-232.94 436,-222.94 422,-222.94"/>
<text text-anchor="middle" x="543" y="-203.8" font-family="Times,serif" font-size="14.00" fill="white">59,986,052 row(s)/916 chunk(s)</text>
</g>
<!-- 139926712703440&#45;&gt;139926712931856 -->
<g id="edge14" class="edge">
<title>139926712703440&#45;&gt;139926712931856</title>
<path fill="none" stroke="white" d="M544.39,-467.18C541.16,-478.84 536.05,-490.84 528,-500 518.02,-511.37 504.53,-519.93 490.73,-526.34"/>
<polygon fill="white" stroke="white" points="481.17,-530.44 491.74,-529.72 490.36,-526.5 481.17,-530.44"/>
<text text-anchor="middle" x="647.5" y="-488.8" font-family="Times,serif" font-size="14.00" fill="white">1,300,096 row(s)/916 chunk(s)</text>
</g>
<!-- 139926713475344 -->
<g id="node14" class="node">
<title>139926713475344</title>
<g id="a_node14"><a xlink:title="Output: 293490 rows in 4 chunks filtered: 0, 703 µs 841 ns.">
<polygon fill="none" stroke="white" points="396.5,-1202 279.5,-1202 279.5,-1148 396.5,-1148 396.5,-1202"/>
<text text-anchor="middle" x="338" y="-1186.8" font-family="Times,serif" font-size="14.00" fill="white">Validate</text>
<text text-anchor="middle" x="338" y="-1155.8" font-family="Times,serif" font-size="14.00" fill="white">703 µs 841 ns</text>
</a>
</g>
</g>
<!-- 139926713475344&#45;&gt;139926712704720 -->
<g id="edge15" class="edge">
<title>139926713475344&#45;&gt;139926712704720</title>
<path fill="none" stroke="white" d="M335.95,-1202.26C336.33,-1213.22 338.51,-1225.57 345,-1235 347.64,-1238.85 350.67,-1242.42 353.98,-1245.75"/>
<polygon fill="white" stroke="white" points="361.64,-1252.65 356.55,-1243.36 354.21,-1245.96 361.64,-1252.65"/>
<text text-anchor="middle" x="438.5" y="-1223.8" font-family="Times,serif" font-size="14.00" fill="white">293,490 row(s)/4 chunk(s)</text>
</g>
<!-- 139926712704400&#45;&gt;139926713475344 -->
<g id="edge16" class="edge">
<title>139926712704400&#45;&gt;139926713475344</title>
<path fill="none" stroke="white" d="M319.94,-1097.25C322.96,-1110.07 326.41,-1124.73 329.47,-1137.77"/>
<polygon fill="white" stroke="white" points="326.14,-1138.88 331.84,-1147.81 332.95,-1137.28 326.14,-1138.88"/>
<text text-anchor="middle" x="421.5" y="-1118.8" font-family="Times,serif" font-size="14.00" fill="white">293,490 row(s)/4 chunk(s)</text>
</g>
<!-- 139906599350672 -->
<g id="node16" class="node">
<title>139906599350672</title>
<g id="a_node16"><a xlink:title="Output: 15000000 rows in 229 chunks filtered: 0, 368 µs 302 ns.">
<polygon fill="none" stroke="white" points="122,-977 0,-977 0,-863 122,-863 122,-977"/>
<text text-anchor="middle" x="61" y="-961.8" font-family="Times,serif" font-size="14.00" fill="white">GetTable</text>
<text text-anchor="middle" x="61" y="-946.8" font-family="Times,serif" font-size="14.00" fill="white">(orders)</text>
<text text-anchor="middle" x="61" y="-931.8" font-family="Times,serif" font-size="14.00" fill="white">pruned:</text>
<text text-anchor="middle" x="61" y="-916.8" font-family="Times,serif" font-size="14.00" fill="white">0/229 chunk(s)</text>
<text text-anchor="middle" x="61" y="-901.8" font-family="Times,serif" font-size="14.00" fill="white">7/9 column(s)</text>
<text text-anchor="middle" x="61" y="-870.8" font-family="Times,serif" font-size="14.00" fill="white">368 µs 302 ns</text>
</a>
</g>
</g>
<!-- 139906599350672&#45;&gt;139926712704400 -->
<g id="edge17" class="edge">
<title>139906599350672&#45;&gt;139926712704400</title>
<path fill="none" stroke="white" stroke-width="4.58" d="M61.13,-977.45C63.7,-989.47 68.51,-1001.18 77,-1010 94.31,-1027.98 146.69,-1040.4 197.62,-1048.53"/>
<polygon fill="white" stroke="white" stroke-width="4.58" points="197.89,-1048.57 197.28,-1052.53 207.77,-1050.1 197.89,-1048.57"/>
<text text-anchor="middle" x="191" y="-998.8" font-family="Times,serif" font-size="14.00" fill="white">15,000,000 row(s)/229 chunk(s)</text>
</g>
<!-- 0 -->
<g id="node17" class="node">
<title>0</title>
<polygon fill="none" stroke="white" points="512.5,-0.5 512.5,-181.5 833.5,-181.5 833.5,-0.5 512.5,-0.5"/>
<text text-anchor="middle" x="673" y="-166.3" font-family="Times,serif" font-size="14.00" fill="white">Total by operator</text>
<polyline fill="none" stroke="white" points="512.5,-158.5 833.5,-158.5 "/>
<text text-anchor="end" x="641.5" y="-143.3" font-family="Times,serif" font-size="14.00" fill="white">JoinHash </text>
<text text-anchor="end" x="641.5" y="-128.3" font-family="Times,serif" font-size="14.00" fill="white"> AggregateHash </text>
<text text-anchor="end" x="641.5" y="-113.3" font-family="Times,serif" font-size="14.00" fill="white"> Projection </text>
<text text-anchor="end" x="641.5" y="-98.3" font-family="Times,serif" font-size="14.00" fill="white"> TableScan </text>
<text text-anchor="end" x="641.5" y="-83.3" font-family="Times,serif" font-size="14.00" fill="white"> Validate </text>
<text text-anchor="end" x="641.5" y="-68.3" font-family="Times,serif" font-size="14.00" fill="white"> GetTable </text>
<text text-anchor="end" x="641.5" y="-53.3" font-family="Times,serif" font-size="14.00" fill="white"> UnionAll </text>
<text text-anchor="end" x="641.5" y="-38.3" font-family="Times,serif" font-size="14.00" fill="white"> Sort </text>
<text text-anchor="end" x="641.5" y="-23.3" font-family="Times,serif" font-size="14.00" fill="white"> Alias </text>
<text text-anchor="end" x="641.5" y="-8.3" font-family="Times,serif" font-size="14.00" fill="white">total</text>
<polyline fill="none" stroke="white" points="649.5,-0.5 649.5,-158.5 "/>
<text text-anchor="start" x="657.5" y="-143.3" font-family="Times,serif" font-size="14.00" fill="white">165 ms 927 µs </text>
<text text-anchor="start" x="657.5" y="-128.3" font-family="Times,serif" font-size="14.00" fill="white"> 44 ms 465 µs </text>
<text text-anchor="start" x="657.5" y="-113.3" font-family="Times,serif" font-size="14.00" fill="white"> 39 ms 187 µs </text>
<text text-anchor="start" x="657.5" y="-98.3" font-family="Times,serif" font-size="14.00" fill="white"> 33 ms 79 µs </text>
<text text-anchor="start" x="657.5" y="-83.3" font-family="Times,serif" font-size="14.00" fill="white"> 3 ms 913 µs </text>
<text text-anchor="start" x="657.5" y="-68.3" font-family="Times,serif" font-size="14.00" fill="white"> 1 ms 923 µs </text>
<text text-anchor="start" x="657.5" y="-53.3" font-family="Times,serif" font-size="14.00" fill="white"> 1 ms 652 µs </text>
<text text-anchor="start" x="657.5" y="-38.3" font-family="Times,serif" font-size="14.00" fill="white"> 28 µs 13 ns </text>
<text text-anchor="start" x="657.5" y="-23.3" font-family="Times,serif" font-size="14.00" fill="white"> 4 µs 297 ns </text>
<text text-anchor="start" x="657.5" y="-8.3" font-family="Times,serif" font-size="14.00" fill="white"> 290 ms 179 µs </text>
<polyline fill="none" stroke="white" points="780.5,-0.5 780.5,-158.5 "/>
<text text-anchor="start" x="788.5" y="-143.3" font-family="Times,serif" font-size="14.00" fill="white">57 %</text>
<text text-anchor="start" x="788.5" y="-128.3" font-family="Times,serif" font-size="14.00" fill="white">15 %</text>
<text text-anchor="start" x="788.5" y="-113.3" font-family="Times,serif" font-size="14.00" fill="white">14 %</text>
<text text-anchor="start" x="788.5" y="-98.3" font-family="Times,serif" font-size="14.00" fill="white">11 %</text>
<text text-anchor="start" x="788.5" y="-83.3" font-family="Times,serif" font-size="14.00" fill="white">1 %</text>
<text text-anchor="start" x="788.5" y="-68.3" font-family="Times,serif" font-size="14.00" fill="white">1 %</text>
<text text-anchor="start" x="788.5" y="-53.3" font-family="Times,serif" font-size="14.00" fill="white">1 %</text>
<text text-anchor="start" x="788.5" y="-38.3" font-family="Times,serif" font-size="14.00" fill="white">0 %</text>
<text text-anchor="start" x="788.5" y="-23.3" font-family="Times,serif" font-size="14.00" fill="white">0 %</text>
<text text-anchor="start" x="788.5" y="-8.3" font-family="Times,serif" font-size="14.00" fill="white"> </text>
</g>
</g>
</svg>
