<?xml version="1.0" encoding="UTF-8" standalone="no"?>
<!DOCTYPE svg PUBLIC "-//W3C//DTD SVG 1.1//EN"
 "http://www.w3.org/Graphics/SVG/1.1/DTD/svg11.dtd">
<!-- Generated by graphviz version 2.43.0 (0)
 -->
<!-- Title: G Pages: 1 -->
<svg width="1335pt" height="2615pt"
 viewBox="0.00 0.00 1334.50 2615.00" xmlns="http://www.w3.org/2000/svg" xmlns:xlink="http://www.w3.org/1999/xlink">
<g id="graph0" class="graph" transform="scale(1 1) rotate(0) translate(4 2611)">
<title>G</title>
<polygon fill="black" stroke="transparent" points="-4,4 -4,-2611 1330.5,-2611 1330.5,4 -4,4"/>
<text text-anchor="middle" x="319.5" y="-2591.8" font-family="Times,serif" font-size="14.00" fill="white">For tooltips with advanced information, hover your mouse over vertices or edge labels.</text>
<!-- 139881740446352 -->
<g id="node1" class="node">
<title>139881740446352</title>
<g id="a_node1"><a xlink:title="Output: 5 rows in 1 chunk filtered: 0, 3 µs 337 ns.">
<polygon fill="none" stroke="white" points="779,-2552 630,-2552 630,-2483 779,-2483 779,-2552"/>
<text text-anchor="middle" x="704.5" y="-2536.8" font-family="Times,serif" font-size="14.00" fill="white">Alias</text>
<text text-anchor="middle" x="704.5" y="-2521.8" font-family="Times,serif" font-size="14.00" fill="white">[n_name, revenue]</text>
<text text-anchor="middle" x="704.5" y="-2490.8" font-family="Times,serif" font-size="14.00" fill="white">3 µs 337 ns</text>
</a>
</g>
</g>
<!-- 139881740446032 -->
<g id="node2" class="node">
<title>139881740446032</title>
<g id="a_node2"><a xlink:title="Output: 5 rows in 1 chunk filtered: 0, 16 µs 822 ns.&#10;Operator step runtimes:&#10; MaterializeSortColumns 3 µs 5 ns&#10; Sort 2 µs 204 ns&#10; TemporaryResultWriting 1 µs 93 ns&#10; WriteOutput 7 µs 955 ns.">
<polygon fill="none" stroke="white" points="758.5,-2432 650.5,-2432 650.5,-2378 758.5,-2378 758.5,-2432"/>
<text text-anchor="middle" x="704.5" y="-2416.8" font-family="Times,serif" font-size="14.00" fill="white">Sort</text>
<text text-anchor="middle" x="704.5" y="-2385.8" font-family="Times,serif" font-size="14.00" fill="white">16 µs 822 ns</text>
</a>
</g>
</g>
<!-- 139881740446032&#45;&gt;139881740446352 -->
<g id="edge1" class="edge">
<title>139881740446032&#45;&gt;139881740446352</title>
<path fill="none" stroke="white" d="M704.5,-2432.19C704.5,-2444.29 704.5,-2459 704.5,-2472.72"/>
<polygon fill="white" stroke="white" points="701,-2472.95 704.5,-2482.95 708,-2472.96 701,-2472.95"/>
<text text-anchor="middle" x="773.5" y="-2453.8" font-family="Times,serif" font-size="14.00" fill="white">5 row(s)/1 chunk(s)</text>
</g>
<!-- 139926565835280 -->
<g id="node3" class="node">
<title>139926565835280</title>
<g id="a_node3"><a xlink:title="Output: 5 rows in 1 chunk filtered: 0, 3 ms 587 µs.&#10;Operator step runtimes:&#10; GroupByKeyPartitioning 2 ms 715 µs&#10; Aggregating 844 µs 495 ns&#10; GroupByColumnsWriting 5 µs 89 ns&#10; AggregateColumnsWriting 5 µs 902 ns&#10; OutputWriting 4 µs 268 ns.">
<polygon fill="none" stroke="white" points="853,-2327 556,-2327 556,-2243 853,-2243 853,-2327"/>
<text text-anchor="middle" x="704.5" y="-2311.8" font-family="Times,serif" font-size="14.00" fill="white">AggregateHash</text>
<text text-anchor="middle" x="704.5" y="-2296.8" font-family="Times,serif" font-size="14.00" fill="white">GroupBy {n_name}</text>
<text text-anchor="middle" x="704.5" y="-2281.8" font-family="Times,serif" font-size="14.00" fill="white">SUM(l_extendedprice * (1 &#45; l_discount))</text>
<text text-anchor="middle" x="704.5" y="-2250.8" font-family="Times,serif" font-size="14.00" fill="white">3 ms 587 µs</text>
</a>
</g>
</g>
<!-- 139926565835280&#45;&gt;139881740446032 -->
<g id="edge2" class="edge">
<title>139926565835280&#45;&gt;139881740446032</title>
<path fill="none" stroke="white" d="M704.5,-2327.27C704.5,-2340.36 704.5,-2354.72 704.5,-2367.45"/>
<polygon fill="white" stroke="white" points="701,-2367.69 704.5,-2377.69 708,-2367.69 701,-2367.69"/>
<text text-anchor="middle" x="773.5" y="-2348.8" font-family="Times,serif" font-size="14.00" fill="white">5 row(s)/1 chunk(s)</text>
</g>
<!-- 139881740445712 -->
<g id="node4" class="node">
<title>139881740445712</title>
<g id="a_node4"><a xlink:title="Output: 73101 rows in 16 chunks filtered: 0, 18 ms 520 µs.&#10;Operator step runtimes:&#10; ForwardUnmodifiedColumns 15 µs 709 ns&#10; EvaluateNewColumns 18 ms 437 µs&#10; BuildOutput 58 µs 920 ns.">
<polygon fill="none" stroke="white" stroke-width="3.84" points="761,-2192 648,-2192 648,-2138 761,-2138 761,-2192"/>
<text text-anchor="middle" x="704.5" y="-2176.8" font-family="Times,serif" font-size="14.00" fill="white">Projection</text>
<text text-anchor="middle" x="704.5" y="-2145.8" font-family="Times,serif" font-size="14.00" fill="white">18 ms 520 µs</text>
</a>
</g>
</g>
<!-- 139881740445712&#45;&gt;139926565835280 -->
<g id="edge3" class="edge">
<title>139881740445712&#45;&gt;139926565835280</title>
<path fill="none" stroke="white" d="M704.5,-2192.19C704.5,-2204.1 704.5,-2218.63 704.5,-2232.58"/>
<polygon fill="white" stroke="white" points="701,-2232.59 704.5,-2242.59 708,-2232.59 701,-2232.59"/>
<text text-anchor="middle" x="798" y="-2213.8" font-family="Times,serif" font-size="14.00" fill="white">73,101 row(s)/16 chunk(s)</text>
</g>
<!-- 139881740445392 -->
<g id="node5" class="node">
<title>139881740445392</title>
<g id="a_node5"><a xlink:title="Output: 73101 rows in 16 chunks filtered: 0, 4 ms 146 µs.&#10;Chunks: 0 skipped with no results, &#10;0 skipped with all matching, 0 scanned using binary search.">
<polygon fill="none" stroke="white" points="807.5,-2087 601.5,-2087 601.5,-2003 807.5,-2003 807.5,-2087"/>
<text text-anchor="middle" x="704.5" y="-2071.8" font-family="Times,serif" font-size="14.00" fill="white">TableScan</text>
<text text-anchor="middle" x="704.5" y="-2056.8" font-family="Times,serif" font-size="14.00" fill="white">Impl: ColumnVsColumn</text>
<text text-anchor="middle" x="704.5" y="-2041.8" font-family="Times,serif" font-size="14.00" fill="white">c_nationkey = s_nationkey</text>
<text text-anchor="middle" x="704.5" y="-2010.8" font-family="Times,serif" font-size="14.00" fill="white">4 ms 146 µs</text>
</a>
</g>
</g>
<!-- 139881740445392&#45;&gt;139881740445712 -->
<g id="edge4" class="edge">
<title>139881740445392&#45;&gt;139881740445712</title>
<path fill="none" stroke="white" d="M704.5,-2087.27C704.5,-2100.36 704.5,-2114.72 704.5,-2127.45"/>
<polygon fill="white" stroke="white" points="701,-2127.69 704.5,-2137.69 708,-2127.69 701,-2127.69"/>
<text text-anchor="middle" x="798" y="-2108.8" font-family="Times,serif" font-size="14.00" fill="white">73,101 row(s)/16 chunk(s)</text>
</g>
<!-- 139881740445072 -->
<g id="node6" class="node">
<title>139881740445072</title>
<g id="a_node6"><a xlink:title="Output: 1826670 rows in 16 chunks filtered: 0, 50 ms 399 µs.&#10;Operator step runtimes:&#10; BuildSideMaterializing 925 µs 959 ns&#10; ProbeSideMaterializing 25 ms 265 µs&#10; Clustering 1 ms 930 µs&#10; Building 4 ms 261 µs&#10; Probing 4 ms 178 µs&#10; OutputWriting 13 ms 683 µs.&#10;Radix bits: 4.&#10;Build side is right.">
<polygon fill="none" stroke="white" stroke-width="6.31" points="792.5,-1952 616.5,-1952 616.5,-1883 792.5,-1883 792.5,-1952"/>
<text text-anchor="middle" x="704.5" y="-1936.8" font-family="Times,serif" font-size="14.00" fill="white">JoinHash (Inner)</text>
<text text-anchor="middle" x="704.5" y="-1921.8" font-family="Times,serif" font-size="14.00" fill="white">o_custkey = c_custkey</text>
<text text-anchor="middle" x="704.5" y="-1890.8" font-family="Times,serif" font-size="14.00" fill="white">50 ms 399 µs</text>
</a>
</g>
</g>
<!-- 139881740445072&#45;&gt;139881740445392 -->
<g id="edge5" class="edge">
<title>139881740445072&#45;&gt;139881740445392</title>
<path fill="none" stroke="white" d="M704.5,-1952.13C704.5,-1964.51 704.5,-1978.84 704.5,-1992.44"/>
<polygon fill="white" stroke="white" points="701,-1992.65 704.5,-2002.65 708,-1992.65 701,-1992.65"/>
<text text-anchor="middle" x="809.5" y="-1973.8" font-family="Times,serif" font-size="14.00" fill="white">1,826,670 row(s)/16 chunk(s)</text>
</g>
<!-- 139881740444752 -->
<g id="node7" class="node">
<title>139881740444752</title>
<g id="a_node7"><a xlink:title="Output: 1826670 rows in 8 chunks filtered: 7701, 99 ms 998 µs.&#10;Operator step runtimes:&#10; BuildSideMaterializing 48 ms 164 µs&#10; ProbeSideMaterializing 5 ms 452 µs&#10; Clustering 3 ms 923 µs&#10; Building 22 ms 454 µs&#10; Probing 10 ms 194 µs&#10; OutputWriting 9 ms 673 µs.&#10;Radix bits: 4.&#10;Build side is right.">
<polygon fill="none" stroke="white" stroke-width="8" points="688,-1832 497,-1832 497,-1763 688,-1763 688,-1832"/>
<text text-anchor="middle" x="592.5" y="-1816.8" font-family="Times,serif" font-size="14.00" fill="white">JoinHash (Inner)</text>
<text text-anchor="middle" x="592.5" y="-1801.8" font-family="Times,serif" font-size="14.00" fill="white">o_orderkey = l_orderkey</text>
<text text-anchor="middle" x="592.5" y="-1770.8" font-family="Times,serif" font-size="14.00" fill="white">99 ms 998 µs</text>
</a>
</g>
</g>
<!-- 139881740444752&#45;&gt;139881740445072 -->
<g id="edge6" class="edge">
<title>139881740444752&#45;&gt;139881740445072</title>
<path fill="none" stroke="white" d="M586.14,-1832.04C585.72,-1843.29 587.28,-1855.41 593.5,-1865 597.56,-1871.25 602.58,-1876.75 608.24,-1881.59"/>
<polygon fill="white" stroke="white" points="608.38,-1881.7 606.25,-1884.48 616.31,-1887.8 608.38,-1881.7"/>
<text text-anchor="middle" x="694" y="-1853.8" font-family="Times,serif" font-size="14.00" fill="white">1,826,670 row(s)/8 chunk(s)</text>
</g>
<!-- 139926566029072 -->
<g id="node8" class="node">
<title>139926566029072</title>
<g id="a_node8"><a xlink:title="Output: 2276638 rows in 229 chunks filtered: 0, 427 µs 62 ns.">
<polygon fill="none" stroke="white" points="386.5,-1314.5 278.5,-1314.5 278.5,-1260.5 386.5,-1260.5 386.5,-1314.5"/>
<text text-anchor="middle" x="332.5" y="-1299.3" font-family="Times,serif" font-size="14.00" fill="white">Validate</text>
<text text-anchor="middle" x="332.5" y="-1268.3" font-family="Times,serif" font-size="14.00" fill="white">427 µs 62 ns</text>
</a>
</g>
</g>
<!-- 139926566029072&#45;&gt;139881740444752 -->
<g id="edge7" class="edge">
<title>139926566029072&#45;&gt;139881740444752</title>
<path fill="none" stroke="white" d="M332.5,-1314.75C332.5,-1338.66 332.5,-1374.95 332.5,-1406.5 332.5,-1406.5 332.5,-1406.5 332.5,-1656 332.5,-1729.87 414.74,-1765.09 486.72,-1781.77"/>
<polygon fill="white" stroke="white" points="487.03,-1781.84 486.27,-1785.26 496.79,-1784 487.03,-1781.84"/>
<text text-anchor="middle" x="442" y="-1516.3" font-family="Times,serif" font-size="14.00" fill="white">2,276,638 row(s)/229 chunk(s)</text>
</g>
<!-- 139881740444112 -->
<g id="node13" class="node">
<title>139881740444112</title>
<g id="a_node13"><a xlink:title="Output: 1826670 rows in 8 chunks filtered: 1318, 61 ms 119 µs.&#10;Operator step runtimes:&#10; BuildSideMaterializing 4 ms 561 µs&#10; ProbeSideMaterializing 16 ms 93 µs&#10; Clustering 10 ms 431 µs&#10; Building 5 ms 674 µs&#10; Probing 15 ms 314 µs&#10; OutputWriting 8 ms 925 µs.&#10;Radix bits: 4.&#10;Build side is right.">
<polygon fill="none" stroke="white" stroke-width="6.79" points="721.5,-1442 513.5,-1442 513.5,-1373 721.5,-1373 721.5,-1442"/>
<text text-anchor="middle" x="617.5" y="-1426.8" font-family="Times,serif" font-size="14.00" fill="white">JoinHash (Semi Reduction)</text>
<text text-anchor="middle" x="617.5" y="-1411.8" font-family="Times,serif" font-size="14.00" fill="white">l_orderkey = o_orderkey</text>
<text text-anchor="middle" x="617.5" y="-1380.8" font-family="Times,serif" font-size="14.00" fill="white">61 ms 119 µs</text>
</a>
</g>
</g>
<!-- 139926566029072&#45;&gt;139881740444112 -->
<g id="edge8" class="edge">
<title>139926566029072&#45;&gt;139881740444112</title>
<path fill="none" stroke="white" d="M350.64,-1314.5C361.75,-1328.53 377.14,-1344.98 394.5,-1355 427.37,-1373.98 466.75,-1385.97 503.22,-1393.53"/>
<polygon fill="white" stroke="white" points="513.42,-1395.55 504.29,-1390.18 503.61,-1393.61 513.42,-1395.55"/>
<text text-anchor="middle" x="504" y="-1343.8" font-family="Times,serif" font-size="14.00" fill="white">2,276,638 row(s)/229 chunk(s)</text>
</g>
<!-- 139881740442192 -->
<g id="node9" class="node">
<title>139881740442192</title>
<g id="a_node9"><a xlink:title="Output: 2276638 rows in 229 chunks filtered: 0, 15 ms 916 µs.&#10;Chunks: 0 skipped with no results, &#10;0 skipped with all matching, 0 scanned using binary search.">
<polygon fill="none" stroke="white" stroke-width="3.47" points="425,-1194.5 0,-1194.5 0,-1095.5 425,-1095.5 425,-1194.5"/>
<text text-anchor="middle" x="212.5" y="-1179.3" font-family="Times,serif" font-size="14.00" fill="white">TableScan</text>
<text text-anchor="middle" x="212.5" y="-1164.3" font-family="Times,serif" font-size="14.00" fill="white">Impl: ColumnBetween</text>
<text text-anchor="middle" x="212.5" y="-1149.3" font-family="Times,serif" font-size="14.00" fill="white">o_orderdate BETWEEN UPPER EXCLUSIVE &#39;1993&#45;01&#45;01&#39;</text>
<text text-anchor="middle" x="212.5" y="-1134.3" font-family="Times,serif" font-size="14.00" fill="white">AND &#39;1994&#45;01&#45;01&#39;</text>
<text text-anchor="middle" x="212.5" y="-1103.3" font-family="Times,serif" font-size="14.00" fill="white">15 ms 916 µs</text>
</a>
</g>
</g>
<!-- 139881740442192&#45;&gt;139926566029072 -->
<g id="edge9" class="edge">
<title>139881740442192&#45;&gt;139926566029072</title>
<path fill="none" stroke="white" d="M248.7,-1194.89C258.99,-1208.17 270.41,-1222.36 281.5,-1235 286.75,-1240.99 292.52,-1247.16 298.24,-1253.06"/>
<polygon fill="white" stroke="white" points="295.89,-1255.68 305.4,-1260.36 300.89,-1250.77 295.89,-1255.68"/>
<text text-anchor="middle" x="391" y="-1223.8" font-family="Times,serif" font-size="14.00" fill="white">2,276,638 row(s)/229 chunk(s)</text>
</g>
<!-- 139881740360336 -->
<g id="node10" class="node">
<title>139881740360336</title>
<g id="a_node10"><a xlink:title="Output: 15000000 rows in 229 chunks filtered: 0, 3 ms 956 µs.">
<polygon fill="none" stroke="white" points="273.5,-1037 151.5,-1037 151.5,-923 273.5,-923 273.5,-1037"/>
<text text-anchor="middle" x="212.5" y="-1021.8" font-family="Times,serif" font-size="14.00" fill="white">GetTable</text>
<text text-anchor="middle" x="212.5" y="-1006.8" font-family="Times,serif" font-size="14.00" fill="white">(orders)</text>
<text text-anchor="middle" x="212.5" y="-991.8" font-family="Times,serif" font-size="14.00" fill="white">pruned:</text>
<text text-anchor="middle" x="212.5" y="-976.8" font-family="Times,serif" font-size="14.00" fill="white">0/229 chunk(s)</text>
<text text-anchor="middle" x="212.5" y="-961.8" font-family="Times,serif" font-size="14.00" fill="white">6/9 column(s)</text>
<text text-anchor="middle" x="212.5" y="-930.8" font-family="Times,serif" font-size="14.00" fill="white">3 ms 956 µs</text>
</a>
</g>
</g>
<!-- 139881740360336&#45;&gt;139881740442192 -->
<g id="edge10" class="edge">
<title>139881740360336&#45;&gt;139881740442192</title>
<path fill="none" stroke="white" stroke-width="4.58" d="M212.5,-1037.1C212.5,-1052.66 212.5,-1069.59 212.5,-1085.3"/>
<polygon fill="white" stroke="white" stroke-width="4.58" points="208.49,-1085.42 212.5,-1095.42 216.51,-1085.42 208.49,-1085.42"/>
<text text-anchor="middle" x="326.5" y="-1058.8" font-family="Times,serif" font-size="14.00" fill="white">15,000,000 row(s)/229 chunk(s)</text>
</g>
<!-- 139881740444432 -->
<g id="node11" class="node">
<title>139881740444432</title>
<g id="a_node11"><a xlink:title="Output: 1826670 rows in 8 chunks filtered: 0, 72 ms 105 µs.&#10;Operator step runtimes:&#10; BuildSideMaterializing 145 µs 443 ns&#10; ProbeSideMaterializing 59 ms 606 µs&#10; Clustering 0 ns&#10; Building 726 µs 334 ns&#10; Probing 5 ms 251 µs&#10; OutputWriting 6 ms 305 µs.&#10;Radix bits: 0.&#10;Build side is right.">
<polygon fill="none" stroke="white" stroke-width="7.19" points="712.5,-1689.5 530.5,-1689.5 530.5,-1620.5 712.5,-1620.5 712.5,-1689.5"/>
<text text-anchor="middle" x="621.5" y="-1674.3" font-family="Times,serif" font-size="14.00" fill="white">JoinHash (Inner)</text>
<text text-anchor="middle" x="621.5" y="-1659.3" font-family="Times,serif" font-size="14.00" fill="white">l_suppkey = s_suppkey</text>
<text text-anchor="middle" x="621.5" y="-1628.3" font-family="Times,serif" font-size="14.00" fill="white">72 ms 105 µs</text>
</a>
</g>
</g>
<!-- 139881740444432&#45;&gt;139881740444752 -->
<g id="edge11" class="edge">
<title>139881740444432&#45;&gt;139881740444752</title>
<path fill="none" stroke="white" d="M614.55,-1689.65C610.65,-1708.54 605.74,-1732.33 601.55,-1752.66"/>
<polygon fill="white" stroke="white" points="599.49,-1762.63 604.94,-1753.55 601.51,-1752.84 599.49,-1762.63"/>
<text text-anchor="middle" x="707" y="-1733.8" font-family="Times,serif" font-size="14.00" fill="white">1,826,670 row(s)/8 chunk(s)</text>
</g>
<!-- 139926566030864 -->
<g id="node12" class="node">
<title>139926566030864</title>
<g id="a_node12"><a xlink:title="Output: 1826670 rows in 8 chunks filtered: 0, 2 ms 472 µs.">
<polygon fill="none" stroke="white" points="673.5,-1547 569.5,-1547 569.5,-1493 673.5,-1493 673.5,-1547"/>
<text text-anchor="middle" x="621.5" y="-1531.8" font-family="Times,serif" font-size="14.00" fill="white">Validate</text>
<text text-anchor="middle" x="621.5" y="-1500.8" font-family="Times,serif" font-size="14.00" fill="white">2 ms 472 µs</text>
</a>
</g>
</g>
<!-- 139926566030864&#45;&gt;139881740444432 -->
<g id="edge12" class="edge">
<title>139926566030864&#45;&gt;139881740444432</title>
<path fill="none" stroke="white" d="M621.5,-1547.28C621.5,-1565.15 621.5,-1589.24 621.5,-1610"/>
<polygon fill="white" stroke="white" points="621.5,-1610.2 618,-1610.2 621.5,-1620.2 621.5,-1610.2"/>
<text text-anchor="middle" x="722" y="-1568.8" font-family="Times,serif" font-size="14.00" fill="white">1,826,670 row(s)/8 chunk(s)</text>
</g>
<!-- 139881740444112&#45;&gt;139926566030864 -->
<g id="edge13" class="edge">
<title>139881740444112&#45;&gt;139926566030864</title>
<path fill="none" stroke="white" d="M618.72,-1442.25C619.19,-1455.07 619.72,-1469.73 620.19,-1482.77"/>
<polygon fill="white" stroke="white" points="616.69,-1482.95 620.55,-1492.81 623.69,-1482.69 616.69,-1482.95"/>
<text text-anchor="middle" x="721" y="-1463.8" font-family="Times,serif" font-size="14.00" fill="white">1,826,670 row(s)/8 chunk(s)</text>
</g>
<!-- 139881740443792 -->
<g id="node14" class="node">
<title>139881740443792</title>
<g id="a_node14"><a xlink:title="Output: 12021065 rows in 916 chunks filtered: 47964987, 29 ms 895 µs.&#10;Operator step runtimes:&#10; BuildSideMaterializing 167 µs 475 ns&#10; ProbeSideMaterializing 18 ms 605 µs&#10; Clustering 0 ns&#10; Building 360 µs 226 ns&#10; Probing 4 ms 652 µs&#10; OutputWriting 3 ms 757 µs.&#10;Radix bits: 0.&#10;Build side is right.">
<polygon fill="none" stroke="white" stroke-width="5.02" points="721.5,-1322 513.5,-1322 513.5,-1253 721.5,-1253 721.5,-1322"/>
<text text-anchor="middle" x="617.5" y="-1306.8" font-family="Times,serif" font-size="14.00" fill="white">JoinHash (Semi Reduction)</text>
<text text-anchor="middle" x="617.5" y="-1291.8" font-family="Times,serif" font-size="14.00" fill="white">l_suppkey = s_suppkey</text>
<text text-anchor="middle" x="617.5" y="-1260.8" font-family="Times,serif" font-size="14.00" fill="white">29 ms 895 µs</text>
</a>
</g>
</g>
<!-- 139881740443792&#45;&gt;139881740444112 -->
<g id="edge14" class="edge">
<title>139881740443792&#45;&gt;139881740444112</title>
<path fill="none" stroke="white" stroke-width="4.04" d="M617.5,-1322.31C617.5,-1334.78 617.5,-1349.1 617.5,-1362.34"/>
<polygon fill="white" stroke="white" stroke-width="4.04" points="617.5,-1362.68 613.97,-1362.68 617.5,-1372.68 617.5,-1362.68"/>
<text text-anchor="middle" x="731.5" y="-1343.8" font-family="Times,serif" font-size="14.00" fill="white">12,021,065 row(s)/916 chunk(s)</text>
</g>
<!-- 139881740360784 -->
<g id="node15" class="node">
<title>139881740360784</title>
<g id="a_node15"><a xlink:title="Output: 59986052 rows in 916 chunks filtered: 0, 1 ms 150 µs.">
<polygon fill="none" stroke="white" points="574,-1202 443,-1202 443,-1088 574,-1088 574,-1202"/>
<text text-anchor="middle" x="508.5" y="-1186.8" font-family="Times,serif" font-size="14.00" fill="white">GetTable</text>
<text text-anchor="middle" x="508.5" y="-1171.8" font-family="Times,serif" font-size="14.00" fill="white">(lineitem)</text>
<text text-anchor="middle" x="508.5" y="-1156.8" font-family="Times,serif" font-size="14.00" fill="white">pruned:</text>
<text text-anchor="middle" x="508.5" y="-1141.8" font-family="Times,serif" font-size="14.00" fill="white">0/916 chunk(s)</text>
<text text-anchor="middle" x="508.5" y="-1126.8" font-family="Times,serif" font-size="14.00" fill="white">12/16 column(s)</text>
<text text-anchor="middle" x="508.5" y="-1095.8" font-family="Times,serif" font-size="14.00" fill="white">1 ms 150 µs</text>
</a>
</g>
</g>
<!-- 139881740360784&#45;&gt;139881740443792 -->
<g id="edge15" class="edge">
<title>139881740360784&#45;&gt;139881740443792</title>
<path fill="none" stroke="white" stroke-width="8" d="M499.96,-1202.38C500.66,-1213.86 503.34,-1225.36 509.5,-1235 512.02,-1238.95 514.94,-1242.6 518.16,-1245.97"/>
<polygon fill="white" stroke="white" stroke-width="8" points="518.33,-1246.13 513.57,-1251.26 525.66,-1252.94 518.33,-1246.13"/>
<text text-anchor="middle" x="623.5" y="-1223.8" font-family="Times,serif" font-size="14.00" fill="white">59,986,052 row(s)/916 chunk(s)</text>
</g>
<!-- 139881740443472 -->
<g id="node16" class="node">
<title>139881740443472</title>
<g id="a_node16"><a xlink:title="Output: 20037 rows in 2 chunks filtered: 0, 449 µs 173 ns.&#10;Operator step runtimes:&#10; BuildSideMaterializing 13 µs 356 ns&#10; ProbeSideMaterializing 107 µs 81 ns&#10; Clustering 0 ns&#10; Building 1 µs 613 ns&#10; Probing 151 µs 545 ns&#10; OutputWriting 163 µs 307 ns.&#10;Radix bits: 0.&#10;Build side is right.">
<polygon fill="none" stroke="white" points="959,-1179.5 752,-1179.5 752,-1110.5 959,-1110.5 959,-1179.5"/>
<text text-anchor="middle" x="855.5" y="-1164.3" font-family="Times,serif" font-size="14.00" fill="white">JoinHash (Inner)</text>
<text text-anchor="middle" x="855.5" y="-1149.3" font-family="Times,serif" font-size="14.00" fill="white">s_nationkey = n_nationkey</text>
<text text-anchor="middle" x="855.5" y="-1118.3" font-family="Times,serif" font-size="14.00" fill="white">449 µs 173 ns</text>
</a>
</g>
</g>
<!-- 139881740443472&#45;&gt;139881740444432 -->
<g id="edge17" class="edge">
<title>139881740443472&#45;&gt;139881740444432</title>
<path fill="none" stroke="white" d="M903.52,-1179.65C916.66,-1191.05 929.69,-1204.8 938.5,-1220 953.64,-1246.13 952.5,-1256.3 952.5,-1286.5 952.5,-1286.5 952.5,-1286.5 952.5,-1521 952.5,-1616.66 842.27,-1567.8 751.5,-1598 735.52,-1603.32 718.77,-1609.8 702.82,-1616.45"/>
<polygon fill="white" stroke="white" points="693.53,-1620.37 704.1,-1619.7 702.74,-1616.48 693.53,-1620.37"/>
<text text-anchor="middle" x="1041.5" y="-1403.8" font-family="Times,serif" font-size="14.00" fill="white">20,037 row(s)/2 chunk(s)</text>
</g>
<!-- 139881740443472&#45;&gt;139881740443792 -->
<g id="edge16" class="edge">
<title>139881740443472&#45;&gt;139881740443792</title>
<path fill="none" stroke="white" d="M813.16,-1179.63C785.91,-1200.95 752.81,-1226.11 737.5,-1235 729.35,-1239.73 720.68,-1244.28 711.88,-1248.59"/>
<polygon fill="white" stroke="white" points="702.68,-1252.98 713.21,-1251.83 711.7,-1248.67 702.68,-1252.98"/>
<text text-anchor="middle" x="846.5" y="-1223.8" font-family="Times,serif" font-size="14.00" fill="white">20,037 row(s)/2 chunk(s)</text>
</g>
<!-- 139926566030352 -->
<g id="node17" class="node">
<title>139926566030352</title>
<g id="a_node17"><a xlink:title="Output: 20037 rows in 2 chunks filtered: 0, 3 µs 286 ns.">
<polygon fill="none" stroke="white" points="1025,-1007 926,-1007 926,-953 1025,-953 1025,-1007"/>
<text text-anchor="middle" x="975.5" y="-991.8" font-family="Times,serif" font-size="14.00" fill="white">Validate</text>
<text text-anchor="middle" x="975.5" y="-960.8" font-family="Times,serif" font-size="14.00" fill="white">3 µs 286 ns</text>
</a>
</g>
</g>
<!-- 139926566030352&#45;&gt;139881740443472 -->
<g id="edge18" class="edge">
<title>139926566030352&#45;&gt;139881740443472</title>
<path fill="none" stroke="white" d="M956.22,-1007.19C937.39,-1032.77 908.42,-1072.12 886.37,-1102.06"/>
<polygon fill="white" stroke="white" points="886.28,-1102.19 883.46,-1100.11 880.35,-1110.24 886.28,-1102.19"/>
<text text-anchor="middle" x="1007.5" y="-1058.8" font-family="Times,serif" font-size="14.00" fill="white">20,037 row(s)/2 chunk(s)</text>
</g>
<!-- 139881740443152 -->
<g id="node18" class="node">
<title>139881740443152</title>
<g id="a_node18"><a xlink:title="Output: 20037 rows in 2 chunks filtered: 79963, 529 µs 524 ns.&#10;Operator step runtimes:&#10; BuildSideMaterializing 12 µs 72 ns&#10; ProbeSideMaterializing 371 µs 528 ns&#10; Clustering 0 ns&#10; Building 942 ns&#10; Probing 93 µs 425 ns&#10; OutputWriting 36 µs 579 ns.&#10;Radix bits: 0.&#10;Build side is right.">
<polygon fill="none" stroke="white" points="1099.5,-872 891.5,-872 891.5,-803 1099.5,-803 1099.5,-872"/>
<text text-anchor="middle" x="995.5" y="-856.8" font-family="Times,serif" font-size="14.00" fill="white">JoinHash (Semi Reduction)</text>
<text text-anchor="middle" x="995.5" y="-841.8" font-family="Times,serif" font-size="14.00" fill="white">s_nationkey = n_nationkey</text>
<text text-anchor="middle" x="995.5" y="-810.8" font-family="Times,serif" font-size="14.00" fill="white">529 µs 524 ns</text>
</a>
</g>
</g>
<!-- 139881740443152&#45;&gt;139926566030352 -->
<g id="edge19" class="edge">
<title>139881740443152&#45;&gt;139926566030352</title>
<path fill="none" stroke="white" d="M990.71,-872.15C987.69,-893.36 983.79,-920.75 980.7,-942.48"/>
<polygon fill="white" stroke="white" points="977.2,-942.25 979.25,-952.65 984.13,-943.24 977.2,-942.25"/>
<text text-anchor="middle" x="1076.5" y="-893.8" font-family="Times,serif" font-size="14.00" fill="white">20,037 row(s)/2 chunk(s)</text>
</g>
<!-- 139881740361232 -->
<g id="node19" class="node">
<title>139881740361232</title>
<g id="a_node19"><a xlink:title="Output: 100000 rows in 2 chunks filtered: 0, 18 µs 314 ns.">
<polygon fill="none" stroke="white" points="1085,-752 972,-752 972,-638 1085,-638 1085,-752"/>
<text text-anchor="middle" x="1028.5" y="-736.8" font-family="Times,serif" font-size="14.00" fill="white">GetTable</text>
<text text-anchor="middle" x="1028.5" y="-721.8" font-family="Times,serif" font-size="14.00" fill="white">(supplier)</text>
<text text-anchor="middle" x="1028.5" y="-706.8" font-family="Times,serif" font-size="14.00" fill="white">pruned:</text>
<text text-anchor="middle" x="1028.5" y="-691.8" font-family="Times,serif" font-size="14.00" fill="white">0/2 chunk(s)</text>
<text text-anchor="middle" x="1028.5" y="-676.8" font-family="Times,serif" font-size="14.00" fill="white">5/7 column(s)</text>
<text text-anchor="middle" x="1028.5" y="-645.8" font-family="Times,serif" font-size="14.00" fill="white">18 µs 314 ns</text>
</a>
</g>
</g>
<!-- 139881740361232&#45;&gt;139881740443152 -->
<g id="edge20" class="edge">
<title>139881740361232&#45;&gt;139881740443152</title>
<path fill="none" stroke="white" d="M1015.27,-752.34C1012.1,-765.83 1008.76,-780.04 1005.75,-792.86"/>
<polygon fill="white" stroke="white" points="1005.7,-793.07 1002.29,-792.27 1003.41,-802.8 1005.7,-793.07"/>
<text text-anchor="middle" x="1104" y="-773.8" font-family="Times,serif" font-size="14.00" fill="white">100,000 row(s)/2 chunk(s)</text>
</g>
<!-- 139926566030096 -->
<g id="node20" class="node">
<title>139926566030096</title>
<g id="a_node20"><a xlink:title="Output: 5 rows in 1 chunk filtered: 0, 3 µs 296 ns.">
<polygon fill="none" stroke="white" points="901,-722 802,-722 802,-668 901,-668 901,-722"/>
<text text-anchor="middle" x="851.5" y="-706.8" font-family="Times,serif" font-size="14.00" fill="white">Validate</text>
<text text-anchor="middle" x="851.5" y="-675.8" font-family="Times,serif" font-size="14.00" fill="white">3 µs 296 ns</text>
</a>
</g>
</g>
<!-- 139926566030096&#45;&gt;139881740443472 -->
<g id="edge22" class="edge">
<title>139926566030096&#45;&gt;139881740443472</title>
<path fill="none" stroke="white" d="M850.09,-722.03C848.14,-759.26 844.74,-829.84 843.5,-890 841.98,-963.76 847.56,-1049.46 851.61,-1100.08"/>
<polygon fill="white" stroke="white" points="852.45,-1110.33 855.13,-1100.08 851.64,-1100.36 852.45,-1110.33"/>
<text text-anchor="middle" x="912.5" y="-893.8" font-family="Times,serif" font-size="14.00" fill="white">5 row(s)/1 chunk(s)</text>
</g>
<!-- 139926566030096&#45;&gt;139881740443152 -->
<g id="edge21" class="edge">
<title>139926566030096&#45;&gt;139881740443152</title>
<path fill="none" stroke="white" d="M849.11,-722.1C848.76,-741.45 851.43,-767.41 865.5,-785 870.51,-791.26 876.4,-796.77 882.84,-801.61"/>
<polygon fill="white" stroke="white" points="891.29,-807.38 885.01,-798.85 883.04,-801.74 891.29,-807.38"/>
<text text-anchor="middle" x="934.5" y="-773.8" font-family="Times,serif" font-size="14.00" fill="white">5 row(s)/1 chunk(s)</text>
</g>
<!-- 139881740442832 -->
<g id="node21" class="node">
<title>139881740442832</title>
<g id="a_node21"><a xlink:title="Output: 5 rows in 1 chunk filtered: 20, 95 µs 370 ns.&#10;Operator step runtimes:&#10; BuildSideMaterializing 37 µs 350 ns&#10; ProbeSideMaterializing 21 µs 380 ns&#10; Clustering 0 ns&#10; Building 3 µs 677 ns&#10; Probing 3 µs 26 ns&#10; OutputWriting 15 µs 749 ns.&#10;Radix bits: 0.&#10;Build side is right.">
<polygon fill="none" stroke="white" points="955.5,-587 747.5,-587 747.5,-518 955.5,-518 955.5,-587"/>
<text text-anchor="middle" x="851.5" y="-571.8" font-family="Times,serif" font-size="14.00" fill="white">JoinHash (Semi)</text>
<text text-anchor="middle" x="851.5" y="-556.8" font-family="Times,serif" font-size="14.00" fill="white">n_regionkey = r_regionkey</text>
<text text-anchor="middle" x="851.5" y="-525.8" font-family="Times,serif" font-size="14.00" fill="white">95 µs 370 ns</text>
</a>
</g>
</g>
<!-- 139881740442832&#45;&gt;139926566030096 -->
<g id="edge23" class="edge">
<title>139881740442832&#45;&gt;139926566030096</title>
<path fill="none" stroke="white" d="M851.5,-587.15C851.5,-608.36 851.5,-635.75 851.5,-657.48"/>
<polygon fill="white" stroke="white" points="848,-657.65 851.5,-667.65 855,-657.65 848,-657.65"/>
<text text-anchor="middle" x="920.5" y="-608.8" font-family="Times,serif" font-size="14.00" fill="white">5 row(s)/1 chunk(s)</text>
</g>
<!-- 139881740361680 -->
<g id="node22" class="node">
<title>139881740361680</title>
<g id="a_node22"><a xlink:title="Output: 25 rows in 1 chunk filtered: 0, 19 µs 747 ns.">
<polygon fill="none" stroke="white" points="823,-467 710,-467 710,-353 823,-353 823,-467"/>
<text text-anchor="middle" x="766.5" y="-451.8" font-family="Times,serif" font-size="14.00" fill="white">GetTable</text>
<text text-anchor="middle" x="766.5" y="-436.8" font-family="Times,serif" font-size="14.00" fill="white">(nation)</text>
<text text-anchor="middle" x="766.5" y="-421.8" font-family="Times,serif" font-size="14.00" fill="white">pruned:</text>
<text text-anchor="middle" x="766.5" y="-406.8" font-family="Times,serif" font-size="14.00" fill="white">0/1 chunk(s)</text>
<text text-anchor="middle" x="766.5" y="-391.8" font-family="Times,serif" font-size="14.00" fill="white">1/4 column(s)</text>
<text text-anchor="middle" x="766.5" y="-360.8" font-family="Times,serif" font-size="14.00" fill="white">19 µs 747 ns</text>
</a>
</g>
</g>
<!-- 139881740361680&#45;&gt;139881740442832 -->
<g id="edge24" class="edge">
<title>139881740361680&#45;&gt;139881740442832</title>
<path fill="none" stroke="white" d="M758.77,-467.38C759.46,-478.74 761.93,-490.19 767.5,-500 769.64,-503.77 772.17,-507.29 775.01,-510.59"/>
<polygon fill="white" stroke="white" points="775.13,-510.71 772.62,-513.15 782.11,-517.86 775.13,-510.71"/>
<text text-anchor="middle" x="841" y="-488.8" font-family="Times,serif" font-size="14.00" fill="white">25 row(s)/1 chunk(s)</text>
</g>
<!-- 139926566029584 -->
<g id="node23" class="node">
<title>139926566029584</title>
<g id="a_node23"><a xlink:title="Output: 1 row in 1 chunk filtered: 0, 7 µs 394 ns.">
<polygon fill="none" stroke="white" points="986,-437 887,-437 887,-383 986,-383 986,-437"/>
<text text-anchor="middle" x="936.5" y="-421.8" font-family="Times,serif" font-size="14.00" fill="white">Validate</text>
<text text-anchor="middle" x="936.5" y="-390.8" font-family="Times,serif" font-size="14.00" fill="white">7 µs 394 ns</text>
</a>
</g>
</g>
<!-- 139926566029584&#45;&gt;139881740442832 -->
<g id="edge25" class="edge">
<title>139926566029584&#45;&gt;139881740442832</title>
<path fill="none" stroke="white" d="M934.43,-437.26C931.95,-455.96 926.5,-481.03 914.5,-500 912.21,-503.63 909.57,-507.12 906.7,-510.45"/>
<polygon fill="white" stroke="white" points="899.66,-517.95 909.06,-513.06 906.51,-510.66 899.66,-517.95"/>
<text text-anchor="middle" x="989.5" y="-488.8" font-family="Times,serif" font-size="14.00" fill="white">1 row(s)/1 chunk(s)</text>
</g>
<!-- 139881740442512 -->
<g id="node24" class="node">
<title>139881740442512</title>
<g id="a_node24"><a xlink:title="Output: 1 row in 1 chunk filtered: 0, 23 µs 13 ns.&#10;Chunks: 0 skipped with no results, &#10;0 skipped with all matching, 0 scanned using binary search.">
<polygon fill="none" stroke="white" points="1021,-302 852,-302 852,-218 1021,-218 1021,-302"/>
<text text-anchor="middle" x="936.5" y="-286.8" font-family="Times,serif" font-size="14.00" fill="white">TableScan</text>
<text text-anchor="middle" x="936.5" y="-271.8" font-family="Times,serif" font-size="14.00" fill="white">Impl: ColumnVsValue</text>
<text text-anchor="middle" x="936.5" y="-256.8" font-family="Times,serif" font-size="14.00" fill="white">r_name = &#39;ASIA&#39;</text>
<text text-anchor="middle" x="936.5" y="-225.8" font-family="Times,serif" font-size="14.00" fill="white">23 µs 13 ns</text>
</a>
</g>
</g>
<!-- 139881740442512&#45;&gt;139926566029584 -->
<g id="edge26" class="edge">
<title>139881740442512&#45;&gt;139926566029584</title>
<path fill="none" stroke="white" d="M936.5,-302.23C936.5,-324.32 936.5,-351.31 936.5,-372.62"/>
<polygon fill="white" stroke="white" points="933,-372.88 936.5,-382.88 940,-372.88 933,-372.88"/>
<text text-anchor="middle" x="1005.5" y="-323.8" font-family="Times,serif" font-size="14.00" fill="white">1 row(s)/1 chunk(s)</text>
</g>
<!-- 139881740362128 -->
<g id="node25" class="node">
<title>139881740362128</title>
<g id="a_node25"><a xlink:title="Output: 5 rows in 1 chunk filtered: 0, 19 µs 456 ns.">
<polygon fill="none" stroke="white" points="993,-140.5 880,-140.5 880,-26.5 993,-26.5 993,-140.5"/>
<text text-anchor="middle" x="936.5" y="-125.3" font-family="Times,serif" font-size="14.00" fill="white">GetTable</text>
<text text-anchor="middle" x="936.5" y="-110.3" font-family="Times,serif" font-size="14.00" fill="white">(region)</text>
<text text-anchor="middle" x="936.5" y="-95.3" font-family="Times,serif" font-size="14.00" fill="white">pruned:</text>
<text text-anchor="middle" x="936.5" y="-80.3" font-family="Times,serif" font-size="14.00" fill="white">0/1 chunk(s)</text>
<text text-anchor="middle" x="936.5" y="-65.3" font-family="Times,serif" font-size="14.00" fill="white">1/3 column(s)</text>
<text text-anchor="middle" x="936.5" y="-34.3" font-family="Times,serif" font-size="14.00" fill="white">19 µs 456 ns</text>
</a>
</g>
</g>
<!-- 139881740362128&#45;&gt;139881740442512 -->
<g id="edge27" class="edge">
<title>139881740362128&#45;&gt;139881740442512</title>
<path fill="none" stroke="white" d="M936.5,-140.67C936.5,-162.25 936.5,-186.74 936.5,-207.83"/>
<polygon fill="white" stroke="white" points="933,-207.87 936.5,-217.87 940,-207.87 933,-207.87"/>
<text text-anchor="middle" x="1005.5" y="-188.8" font-family="Times,serif" font-size="14.00" fill="white">5 row(s)/1 chunk(s)</text>
</g>
<!-- 139926566031120 -->
<g id="node26" class="node">
<title>139926566031120</title>
<g id="a_node26"><a xlink:title="Output: 1500000 rows in 23 chunks filtered: 0, 125 µs 595 ns.">
<polygon fill="none" stroke="white" points="875,-1824.5 758,-1824.5 758,-1770.5 875,-1770.5 875,-1824.5"/>
<text text-anchor="middle" x="816.5" y="-1809.3" font-family="Times,serif" font-size="14.00" fill="white">Validate</text>
<text text-anchor="middle" x="816.5" y="-1778.3" font-family="Times,serif" font-size="14.00" fill="white">125 µs 595 ns</text>
</a>
</g>
</g>
<!-- 139926566031120&#45;&gt;139881740445072 -->
<g id="edge28" class="edge">
<title>139926566031120&#45;&gt;139881740445072</title>
<path fill="none" stroke="white" d="M812.44,-1824.64C809.33,-1837.87 803.89,-1853.51 794.5,-1865 791.24,-1868.99 787.58,-1872.74 783.65,-1876.24"/>
<polygon fill="white" stroke="white" points="775.81,-1882.67 785.76,-1879.03 783.54,-1876.33 775.81,-1882.67"/>
<text text-anchor="middle" x="908.5" y="-1853.8" font-family="Times,serif" font-size="14.00" fill="white">1,500,000 row(s)/23 chunk(s)</text>
</g>
<!-- 139881740362576 -->
<g id="node27" class="node">
<title>139881740362576</title>
<g id="a_node27"><a xlink:title="Output: 1500000 rows in 23 chunks filtered: 0, 66 µs 244 ns.">
<polygon fill="none" stroke="white" points="873,-1712 760,-1712 760,-1598 873,-1598 873,-1712"/>
<text text-anchor="middle" x="816.5" y="-1696.8" font-family="Times,serif" font-size="14.00" fill="white">GetTable</text>
<text text-anchor="middle" x="816.5" y="-1681.8" font-family="Times,serif" font-size="14.00" fill="white">(customer)</text>
<text text-anchor="middle" x="816.5" y="-1666.8" font-family="Times,serif" font-size="14.00" fill="white">pruned:</text>
<text text-anchor="middle" x="816.5" y="-1651.8" font-family="Times,serif" font-size="14.00" fill="white">0/23 chunk(s)</text>
<text text-anchor="middle" x="816.5" y="-1636.8" font-family="Times,serif" font-size="14.00" fill="white">6/8 column(s)</text>
<text text-anchor="middle" x="816.5" y="-1605.8" font-family="Times,serif" font-size="14.00" fill="white">66 µs 244 ns</text>
</a>
</g>
</g>
<!-- 139881740362576&#45;&gt;139926566031120 -->
<g id="edge29" class="edge">
<title>139881740362576&#45;&gt;139926566031120</title>
<path fill="none" stroke="white" d="M816.5,-1712.34C816.5,-1728.43 816.5,-1745.54 816.5,-1760.1"/>
<polygon fill="white" stroke="white" points="813,-1760.2 816.5,-1770.2 820,-1760.2 813,-1760.2"/>
<text text-anchor="middle" x="921.5" y="-1733.8" font-family="Times,serif" font-size="14.00" fill="white">1,500,000 row(s)/23 chunk(s)</text>
</g>
<!-- 0 -->
<g id="node28" class="node">
<title>0</title>
<polygon fill="none" stroke="white" points="1010.5,-0.5 1010.5,-166.5 1326.5,-166.5 1326.5,-0.5 1010.5,-0.5"/>
<text text-anchor="middle" x="1168.5" y="-151.3" font-family="Times,serif" font-size="14.00" fill="white">Total by operator</text>
<polyline fill="none" stroke="white" points="1010.5,-143.5 1326.5,-143.5 "/>
<text text-anchor="end" x="1139.5" y="-128.3" font-family="Times,serif" font-size="14.00" fill="white">JoinHash </text>
<text text-anchor="end" x="1139.5" y="-113.3" font-family="Times,serif" font-size="14.00" fill="white"> TableScan </text>
<text text-anchor="end" x="1139.5" y="-98.3" font-family="Times,serif" font-size="14.00" fill="white"> Projection </text>
<text text-anchor="end" x="1139.5" y="-83.3" font-family="Times,serif" font-size="14.00" fill="white"> GetTable </text>
<text text-anchor="end" x="1139.5" y="-68.3" font-family="Times,serif" font-size="14.00" fill="white"> AggregateHash </text>
<text text-anchor="end" x="1139.5" y="-53.3" font-family="Times,serif" font-size="14.00" fill="white"> Validate </text>
<text text-anchor="end" x="1139.5" y="-38.3" font-family="Times,serif" font-size="14.00" fill="white"> Sort </text>
<text text-anchor="end" x="1139.5" y="-23.3" font-family="Times,serif" font-size="14.00" fill="white"> Alias </text>
<text text-anchor="end" x="1139.5" y="-8.3" font-family="Times,serif" font-size="14.00" fill="white">total</text>
<polyline fill="none" stroke="white" points="1147.5,-0.5 1147.5,-143.5 "/>
<text text-anchor="start" x="1155.5" y="-128.3" font-family="Times,serif" font-size="14.00" fill="white">314 ms 589 µs </text>
<text text-anchor="start" x="1155.5" y="-113.3" font-family="Times,serif" font-size="14.00" fill="white"> 20 ms 84 µs </text>
<text text-anchor="start" x="1155.5" y="-98.3" font-family="Times,serif" font-size="14.00" fill="white"> 18 ms 520 µs </text>
<text text-anchor="start" x="1155.5" y="-83.3" font-family="Times,serif" font-size="14.00" fill="white"> 5 ms 230 µs </text>
<text text-anchor="start" x="1155.5" y="-68.3" font-family="Times,serif" font-size="14.00" fill="white"> 3 ms 587 µs </text>
<text text-anchor="start" x="1155.5" y="-53.3" font-family="Times,serif" font-size="14.00" fill="white"> 3 ms 38 µs </text>
<text text-anchor="start" x="1155.5" y="-38.3" font-family="Times,serif" font-size="14.00" fill="white"> 16 µs 822 ns </text>
<text text-anchor="start" x="1155.5" y="-23.3" font-family="Times,serif" font-size="14.00" fill="white"> 3 µs 337 ns </text>
<text text-anchor="start" x="1155.5" y="-8.3" font-family="Times,serif" font-size="14.00" fill="white"> 365 ms 69 µs </text>
<polyline fill="none" stroke="white" points="1273.5,-0.5 1273.5,-143.5 "/>
<text text-anchor="start" x="1281.5" y="-128.3" font-family="Times,serif" font-size="14.00" fill="white">86 %</text>
<text text-anchor="start" x="1281.5" y="-113.3" font-family="Times,serif" font-size="14.00" fill="white">6 %</text>
<text text-anchor="start" x="1281.5" y="-98.3" font-family="Times,serif" font-size="14.00" fill="white">5 %</text>
<text text-anchor="start" x="1281.5" y="-83.3" font-family="Times,serif" font-size="14.00" fill="white">1 %</text>
<text text-anchor="start" x="1281.5" y="-68.3" font-family="Times,serif" font-size="14.00" fill="white">1 %</text>
<text text-anchor="start" x="1281.5" y="-53.3" font-family="Times,serif" font-size="14.00" fill="white">1 %</text>
<text text-anchor="start" x="1281.5" y="-38.3" font-family="Times,serif" font-size="14.00" fill="white">0 %</text>
<text text-anchor="start" x="1281.5" y="-23.3" font-family="Times,serif" font-size="14.00" fill="white">0 %</text>
<text text-anchor="start" x="1281.5" y="-8.3" font-family="Times,serif" font-size="14.00" fill="white"> </text>
</g>
</g>
</svg>
