<?xml version="1.0" encoding="UTF-8" standalone="no"?>
<!DOCTYPE svg PUBLIC "-//W3C//DTD SVG 1.1//EN"
 "http://www.w3.org/Graphics/SVG/1.1/DTD/svg11.dtd">
<!-- Generated by graphviz version 2.43.0 (0)
 -->
<!-- Title: G Pages: 1 -->
<svg width="903pt" height="1895pt"
 viewBox="0.00 0.00 902.50 1895.00" xmlns="http://www.w3.org/2000/svg" xmlns:xlink="http://www.w3.org/1999/xlink">
<g id="graph0" class="graph" transform="scale(1 1) rotate(0) translate(4 1891)">
<title>G</title>
<polygon fill="black" stroke="transparent" points="-4,4 -4,-1891 898.5,-1891 898.5,4 -4,4"/>
<text text-anchor="middle" x="319.5" y="-1871.8" font-family="Times,serif" font-size="14.00" fill="white">For tooltips with advanced information, hover your mouse over vertices or edge labels.</text>
<!-- 140437519865232 -->
<g id="node1" class="node">
<title>140437519865232</title>
<g id="a_node1"><a xlink:title="Output: 2 rows in 1 chunk filtered: 0, 3 µs 367 ns.">
<polygon fill="none" stroke="white" points="650,-1832 309,-1832 309,-1763 650,-1763 650,-1832"/>
<text text-anchor="middle" x="479.5" y="-1816.8" font-family="Times,serif" font-size="14.00" fill="white">Alias</text>
<text text-anchor="middle" x="479.5" y="-1801.8" font-family="Times,serif" font-size="14.00" fill="white">[l_shipmode, high_line_count, low_line_count]</text>
<text text-anchor="middle" x="479.5" y="-1770.8" font-family="Times,serif" font-size="14.00" fill="white">3 µs 367 ns</text>
</a>
</g>
</g>
<!-- 140437519864912 -->
<g id="node2" class="node">
<title>140437519864912</title>
<g id="a_node2"><a xlink:title="Output: 2 rows in 1 chunk filtered: 0, 46 µs 888 ns.&#10;Operator step runtimes:&#10; MaterializeSortColumns 31 µs 78 ns&#10; Sort 3 µs 707 ns&#10; TemporaryResultWriting 772 ns&#10; WriteOutput 8 µs 355 ns.">
<polygon fill="none" stroke="white" points="533.5,-1712 425.5,-1712 425.5,-1658 533.5,-1658 533.5,-1712"/>
<text text-anchor="middle" x="479.5" y="-1696.8" font-family="Times,serif" font-size="14.00" fill="white">Sort</text>
<text text-anchor="middle" x="479.5" y="-1665.8" font-family="Times,serif" font-size="14.00" fill="white">46 µs 888 ns</text>
</a>
</g>
</g>
<!-- 140437519864912&#45;&gt;140437519865232 -->
<g id="edge1" class="edge">
<title>140437519864912&#45;&gt;140437519865232</title>
<path fill="none" stroke="white" d="M479.5,-1712.19C479.5,-1724.29 479.5,-1739 479.5,-1752.72"/>
<polygon fill="white" stroke="white" points="476,-1752.95 479.5,-1762.95 483,-1752.96 476,-1752.95"/>
<text text-anchor="middle" x="548.5" y="-1733.8" font-family="Times,serif" font-size="14.00" fill="white">2 row(s)/1 chunk(s)</text>
</g>
<!-- 140437518053904 -->
<g id="node3" class="node">
<title>140437518053904</title>
<g id="a_node3"><a xlink:title="Output: 2 rows in 1 chunk filtered: 0, 1 s 22 ms.&#10;Operator step runtimes:&#10; GroupByKeyPartitioning 952 ms 5 µs&#10; Aggregating 70 ms 251 µs&#10; GroupByColumnsWriting 14 µs 277 ns&#10; AggregateColumnsWriting 22 µs 843 ns&#10; OutputWriting 14 µs 267 ns.">
<polygon fill="none" stroke="white" stroke-width="8" points="687,-1607 272,-1607 272,-1478 687,-1478 687,-1607"/>
<text text-anchor="middle" x="479.5" y="-1591.8" font-family="Times,serif" font-size="14.00" fill="white">AggregateHash</text>
<text text-anchor="middle" x="479.5" y="-1576.8" font-family="Times,serif" font-size="14.00" fill="white">GroupBy {l_shipmode}</text>
<text text-anchor="middle" x="479.5" y="-1561.8" font-family="Times,serif" font-size="14.00" fill="white">SUM(CASE WHEN o_orderpriority = &#39;1&#45;URGENT&#39; OR</text>
<text text-anchor="middle" x="479.5" y="-1546.8" font-family="Times,serif" font-size="14.00" fill="white">o_orderpriority = &#39;2&#45;HIGH&#39; THEN 1 ELSE 0 END), </text>
<text text-anchor="middle" x="479.5" y="-1531.8" font-family="Times,serif" font-size="14.00" fill="white">SUM(CASE WHEN o_orderpriority != &#39;1&#45;URGENT&#39; AND</text>
<text text-anchor="middle" x="479.5" y="-1516.8" font-family="Times,serif" font-size="14.00" fill="white">o_orderpriority != &#39;2&#45;HIGH&#39; THEN 1 ELSE 0 END)</text>
<text text-anchor="middle" x="479.5" y="-1485.8" font-family="Times,serif" font-size="14.00" fill="white">1 s 22 ms</text>
</a>
</g>
</g>
<!-- 140437518053904&#45;&gt;140437519864912 -->
<g id="edge2" class="edge">
<title>140437518053904&#45;&gt;140437519864912</title>
<path fill="none" stroke="white" d="M479.5,-1607.17C479.5,-1620.99 479.5,-1635.14 479.5,-1647.48"/>
<polygon fill="white" stroke="white" points="476,-1647.8 479.5,-1657.8 483,-1647.8 476,-1647.8"/>
<text text-anchor="middle" x="548.5" y="-1628.8" font-family="Times,serif" font-size="14.00" fill="white">2 row(s)/1 chunk(s)</text>
</g>
<!-- 140437519864592 -->
<g id="node4" class="node">
<title>140437519864592</title>
<g id="a_node4"><a xlink:title="Output: 3116424 rows in 64 chunks filtered: 0, 23 ms 681 µs.&#10;Operator step runtimes:&#10; ForwardUnmodifiedColumns 357 µs 902 ns&#10; EvaluateNewColumns 23 ms 54 µs&#10; BuildOutput 226 µs 295 ns.">
<polygon fill="none" stroke="white" points="536,-1427 423,-1427 423,-1373 536,-1373 536,-1427"/>
<text text-anchor="middle" x="479.5" y="-1411.8" font-family="Times,serif" font-size="14.00" fill="white">Projection</text>
<text text-anchor="middle" x="479.5" y="-1380.8" font-family="Times,serif" font-size="14.00" fill="white">23 ms 681 µs</text>
</a>
</g>
</g>
<!-- 140437519864592&#45;&gt;140437518053904 -->
<g id="edge3" class="edge">
<title>140437519864592&#45;&gt;140437518053904</title>
<path fill="none" stroke="white" d="M479.5,-1427.1C479.5,-1438.77 479.5,-1453.17 479.5,-1467.78"/>
<polygon fill="white" stroke="white" points="476,-1467.89 479.5,-1477.89 483,-1467.89 476,-1467.89"/>
<text text-anchor="middle" x="584.5" y="-1448.8" font-family="Times,serif" font-size="14.00" fill="white">3,116,424 row(s)/64 chunk(s)</text>
</g>
<!-- 140437519864272 -->
<g id="node5" class="node">
<title>140437519864272</title>
<g id="a_node5"><a xlink:title="Output: 3116424 rows in 64 chunks filtered: 0, 518 ms 98 µs.&#10;Operator step runtimes:&#10; LeftSideMaterialize 427 ms 235 µs&#10; RightSideMaterialize 41 ms 871 µs&#10; LeftSideTransform 0 ns&#10; RightSideTransform 0 ns&#10; LeftSidePartition 2 ms 103 µs&#10; RightSidePartition 1 ms 718 µs&#10; LeftSideSortBuckets 1 ms 788 µs&#10; RightSideSortBuckets 1 ms 37 µs&#10; GatherRowIds 2 µs 395 ns&#10; FindJoinPartner 15 ms 803 µs&#10; OutputWriting 23 ms 81 µs.&#10;Radix bits: 8.">
<polygon fill="none" stroke="white" stroke-width="6.32" points="585,-1322 374,-1322 374,-1253 585,-1253 585,-1322"/>
<text text-anchor="middle" x="479.5" y="-1306.8" font-family="Times,serif" font-size="14.00" fill="white">JoinSimdSortMerge (Inner)</text>
<text text-anchor="middle" x="479.5" y="-1291.8" font-family="Times,serif" font-size="14.00" fill="white">l_orderkey = o_orderkey</text>
<text text-anchor="middle" x="479.5" y="-1260.8" font-family="Times,serif" font-size="14.00" fill="white">518 ms 98 µs</text>
</a>
</g>
</g>
<!-- 140437519864272&#45;&gt;140437519864592 -->
<g id="edge4" class="edge">
<title>140437519864272&#45;&gt;140437519864592</title>
<path fill="none" stroke="white" d="M479.5,-1322.25C479.5,-1335.07 479.5,-1349.73 479.5,-1362.77"/>
<polygon fill="white" stroke="white" points="476,-1362.81 479.5,-1372.81 483,-1362.81 476,-1362.81"/>
<text text-anchor="middle" x="584.5" y="-1343.8" font-family="Times,serif" font-size="14.00" fill="white">3,116,424 row(s)/64 chunk(s)</text>
</g>
<!-- 140437519863632 -->
<g id="node6" class="node">
<title>140437519863632</title>
<g id="a_node6"><a xlink:title="Output: 3116424 rows in 18312 chunks filtered: 0, 63 ms 77 µs.&#10;Chunks: 0 skipped with no results, &#10;0 skipped with all matching, 0 scanned using binary search.">
<polygon fill="none" stroke="white" stroke-width="1.13" points="569.5,-962 363.5,-962 363.5,-878 569.5,-878 569.5,-962"/>
<text text-anchor="middle" x="466.5" y="-946.8" font-family="Times,serif" font-size="14.00" fill="white">TableScan</text>
<text text-anchor="middle" x="466.5" y="-931.8" font-family="Times,serif" font-size="14.00" fill="white">Impl: ColumnVsColumn</text>
<text text-anchor="middle" x="466.5" y="-916.8" font-family="Times,serif" font-size="14.00" fill="white">l_commitdate &gt; l_shipdate</text>
<text text-anchor="middle" x="466.5" y="-885.8" font-family="Times,serif" font-size="14.00" fill="white">63 ms 77 µs</text>
</a>
</g>
</g>
<!-- 140437519863632&#45;&gt;140437519864272 -->
<g id="edge5" class="edge">
<title>140437519863632&#45;&gt;140437519864272</title>
<path fill="none" stroke="white" d="M551.93,-962.16C563.4,-971.35 573.57,-982.25 580.5,-995 631.41,-1088.74 636.22,-1144.04 580.5,-1235 578.19,-1238.78 575.5,-1242.29 572.52,-1245.55"/>
<polygon fill="white" stroke="white" points="572.29,-1245.78 569.86,-1243.26 565.09,-1252.72 572.29,-1245.78"/>
<text text-anchor="middle" x="742" y="-1118.8" font-family="Times,serif" font-size="14.00" fill="white">3,116,424 row(s)/18,312 chunk(s)</text>
</g>
<!-- 140437519863952 -->
<g id="node15" class="node">
<title>140437519863952</title>
<g id="a_node15"><a xlink:title="Output: 2923900 rows in 64 chunks filtered: 1717, 717 ms 2 µs.&#10;Operator step runtimes:&#10; LeftSideMaterialize 47 ms 388 µs&#10; RightSideMaterialize 426 ms 695 µs&#10; LeftSideTransform 0 ns&#10; RightSideTransform 0 ns&#10; LeftSidePartition 124 ms 695 µs&#10; RightSidePartition 2 ms 274 µs&#10; LeftSideSortBuckets 82 ms 353 µs&#10; RightSideSortBuckets 1 ms 904 µs&#10; GatherRowIds 1 µs 964 ns&#10; FindJoinPartner 25 ms 945 µs&#10; OutputWriting 465 µs 504 ns.&#10;Radix bits: 8.">
<polygon fill="none" stroke="white" stroke-width="7.12" points="481,-1097 196,-1097 196,-1028 481,-1028 481,-1097"/>
<text text-anchor="middle" x="338.5" y="-1081.8" font-family="Times,serif" font-size="14.00" fill="white">JoinSimdSortMerge (Semi Reduction)</text>
<text text-anchor="middle" x="338.5" y="-1066.8" font-family="Times,serif" font-size="14.00" fill="white">o_orderkey = l_orderkey</text>
<text text-anchor="middle" x="338.5" y="-1035.8" font-family="Times,serif" font-size="14.00" fill="white">717 ms 2 µs</text>
</a>
</g>
</g>
<!-- 140437519863632&#45;&gt;140437519863952 -->
<g id="edge6" class="edge">
<title>140437519863632&#45;&gt;140437519863952</title>
<path fill="none" stroke="white" d="M369.82,-962.16C357.76,-971.25 347.04,-982.11 339.5,-995 335.48,-1001.87 333.56,-1009.86 332.89,-1017.87"/>
<polygon fill="white" stroke="white" points="332.65,-1027.94 336.38,-1018.02 332.88,-1017.94 332.65,-1027.94"/>
<text text-anchor="middle" x="460" y="-998.8" font-family="Times,serif" font-size="14.00" fill="white">3,116,424 row(s)/18,312 chunk(s)</text>
</g>
<!-- 140437519863312 -->
<g id="node7" class="node">
<title>140437519863312</title>
<g id="a_node7"><a xlink:title="Output: 16444950 rows in 18312 chunks filtered: 0, 73 ms 213 µs.&#10;Chunks: 0 skipped with no results, &#10;0 skipped with all matching, 0 scanned using binary search.">
<polygon fill="none" stroke="white" stroke-width="1.5" points="580,-812 353,-812 353,-728 580,-728 580,-812"/>
<text text-anchor="middle" x="466.5" y="-796.8" font-family="Times,serif" font-size="14.00" fill="white">TableScan</text>
<text text-anchor="middle" x="466.5" y="-781.8" font-family="Times,serif" font-size="14.00" fill="white">Impl: ColumnVsColumn</text>
<text text-anchor="middle" x="466.5" y="-766.8" font-family="Times,serif" font-size="14.00" fill="white">l_receiptdate &gt; l_commitdate</text>
<text text-anchor="middle" x="466.5" y="-735.8" font-family="Times,serif" font-size="14.00" fill="white">73 ms 213 µs</text>
</a>
</g>
</g>
<!-- 140437519863312&#45;&gt;140437519863632 -->
<g id="edge7" class="edge">
<title>140437519863312&#45;&gt;140437519863632</title>
<path fill="none" stroke="white" d="M466.5,-812.23C466.5,-829.47 466.5,-849.68 466.5,-867.85"/>
<polygon fill="white" stroke="white" points="463,-867.99 466.5,-877.99 470,-867.99 463,-867.99"/>
<text text-anchor="middle" x="591.5" y="-833.8" font-family="Times,serif" font-size="14.00" fill="white">16,444,950 row(s)/18,312 chunk(s)</text>
</g>
<!-- 140437518071568 -->
<g id="node8" class="node">
<title>140437518071568</title>
<g id="a_node8"><a xlink:title="Output: 26012651 rows in 18312 chunks filtered: 0, 32 ms 899 µs.">
<polygon fill="none" stroke="white" points="523,-677 410,-677 410,-623 523,-623 523,-677"/>
<text text-anchor="middle" x="466.5" y="-661.8" font-family="Times,serif" font-size="14.00" fill="white">Validate</text>
<text text-anchor="middle" x="466.5" y="-630.8" font-family="Times,serif" font-size="14.00" fill="white">32 ms 899 µs</text>
</a>
</g>
</g>
<!-- 140437518071568&#45;&gt;140437519863312 -->
<g id="edge8" class="edge">
<title>140437518071568&#45;&gt;140437519863312</title>
<path fill="none" stroke="white" d="M466.5,-677.19C466.5,-689.1 466.5,-703.63 466.5,-717.58"/>
<polygon fill="white" stroke="white" points="463,-717.59 466.5,-727.59 470,-717.59 463,-717.59"/>
<text text-anchor="middle" x="591.5" y="-698.8" font-family="Times,serif" font-size="14.00" fill="white">26,012,651 row(s)/18,312 chunk(s)</text>
</g>
<!-- 140437519862992 -->
<g id="node9" class="node">
<title>140437519862992</title>
<g id="a_node9"><a xlink:title="Output: 26012651 rows in 18312 chunks filtered: 0, 60 ms 839 µs.&#10;Chunks: 0 skipped with no results, &#10;0 skipped with all matching, 0 scanned using binary search.">
<polygon fill="none" stroke="white" stroke-width="1.04" points="682.5,-572 250.5,-572 250.5,-473 682.5,-473 682.5,-572"/>
<text text-anchor="middle" x="466.5" y="-556.8" font-family="Times,serif" font-size="14.00" fill="white">TableScan</text>
<text text-anchor="middle" x="466.5" y="-541.8" font-family="Times,serif" font-size="14.00" fill="white">Impl: ColumnBetween</text>
<text text-anchor="middle" x="466.5" y="-526.8" font-family="Times,serif" font-size="14.00" fill="white">l_receiptdate BETWEEN UPPER EXCLUSIVE &#39;1993&#45;01&#45;01&#39;</text>
<text text-anchor="middle" x="466.5" y="-511.8" font-family="Times,serif" font-size="14.00" fill="white">AND &#39;1994&#45;01&#45;01&#39;</text>
<text text-anchor="middle" x="466.5" y="-480.8" font-family="Times,serif" font-size="14.00" fill="white">60 ms 839 µs</text>
</a>
</g>
</g>
<!-- 140437519862992&#45;&gt;140437518071568 -->
<g id="edge9" class="edge">
<title>140437519862992&#45;&gt;140437518071568</title>
<path fill="none" stroke="white" d="M466.5,-572.02C466.5,-585.49 466.5,-599.89 466.5,-612.54"/>
<polygon fill="white" stroke="white" points="463,-612.7 466.5,-622.7 470,-612.7 463,-612.7"/>
<text text-anchor="middle" x="591.5" y="-593.8" font-family="Times,serif" font-size="14.00" fill="white">26,012,651 row(s)/18,312 chunk(s)</text>
</g>
<!-- 140437518071312 -->
<g id="node10" class="node">
<title>140437518071312</title>
<g id="a_node10"><a xlink:title="Output: 171445656 rows in 18312 chunks filtered: 0, 12 ms 15 µs.">
<polygon fill="none" stroke="white" points="518.5,-422 414.5,-422 414.5,-368 518.5,-368 518.5,-422"/>
<text text-anchor="middle" x="466.5" y="-406.8" font-family="Times,serif" font-size="14.00" fill="white">UnionAll</text>
<text text-anchor="middle" x="466.5" y="-375.8" font-family="Times,serif" font-size="14.00" fill="white">12 ms 15 µs</text>
</a>
</g>
</g>
<!-- 140437518071312&#45;&gt;140437519862992 -->
<g id="edge10" class="edge">
<title>140437518071312&#45;&gt;140437519862992</title>
<path fill="none" stroke="white" stroke-width="4.91" d="M466.5,-422C466.5,-433.85 466.5,-448.39 466.5,-462.66"/>
<polygon fill="white" stroke="white" stroke-width="4.91" points="462.2,-462.96 466.5,-472.96 470.8,-462.96 462.2,-462.96"/>
<text text-anchor="middle" x="596" y="-443.8" font-family="Times,serif" font-size="14.00" fill="white">171,445,656 row(s)/18,312 chunk(s)</text>
</g>
<!-- 140437519862352 -->
<g id="node11" class="node">
<title>140437519862352</title>
<g id="a_node11"><a xlink:title="Output: 85734456 rows in 9156 chunks filtered: 0, 52 ms 205 µs.&#10;Chunks: 0 skipped with no results, &#10;0 skipped with all matching, 0 scanned using binary search.">
<polygon fill="none" stroke="white" points="415,-317 246,-317 246,-233 415,-233 415,-317"/>
<text text-anchor="middle" x="330.5" y="-301.8" font-family="Times,serif" font-size="14.00" fill="white">TableScan</text>
<text text-anchor="middle" x="330.5" y="-286.8" font-family="Times,serif" font-size="14.00" fill="white">Impl: ColumnVsValue</text>
<text text-anchor="middle" x="330.5" y="-271.8" font-family="Times,serif" font-size="14.00" fill="white">l_shipmode = &#39;RAIL&#39;</text>
<text text-anchor="middle" x="330.5" y="-240.8" font-family="Times,serif" font-size="14.00" fill="white">52 ms 205 µs</text>
</a>
</g>
</g>
<!-- 140437519862352&#45;&gt;140437518071312 -->
<g id="edge11" class="edge">
<title>140437519862352&#45;&gt;140437518071312</title>
<path fill="none" stroke="white" stroke-width="3.2" d="M323.22,-317.29C323.29,-328.82 325.59,-340.72 332.5,-350 349.23,-372.46 377.77,-383.63 404.21,-389.12"/>
<polygon fill="white" stroke="white" stroke-width="3.2" points="404.38,-389.15 403.75,-392.6 414.22,-390.96 404.38,-389.15"/>
<text text-anchor="middle" x="453" y="-338.8" font-family="Times,serif" font-size="14.00" fill="white">85,734,456 row(s)/9,156 chunk(s)</text>
</g>
<!-- 140437519497872 -->
<g id="node12" class="node">
<title>140437519497872</title>
<g id="a_node12"><a xlink:title="Output: 600037902 rows in 9156 chunks filtered: 0, 13 ms 974 µs.">
<polygon fill="none" stroke="white" points="530,-148 399,-148 399,-34 530,-34 530,-148"/>
<text text-anchor="middle" x="464.5" y="-132.8" font-family="Times,serif" font-size="14.00" fill="white">GetTable</text>
<text text-anchor="middle" x="464.5" y="-117.8" font-family="Times,serif" font-size="14.00" fill="white">(lineitem)</text>
<text text-anchor="middle" x="464.5" y="-102.8" font-family="Times,serif" font-size="14.00" fill="white">pruned:</text>
<text text-anchor="middle" x="464.5" y="-87.8" font-family="Times,serif" font-size="14.00" fill="white">0/9156 chunk(s)</text>
<text text-anchor="middle" x="464.5" y="-72.8" font-family="Times,serif" font-size="14.00" fill="white">11/16 column(s)</text>
<text text-anchor="middle" x="464.5" y="-41.8" font-family="Times,serif" font-size="14.00" fill="white">13 ms 974 µs</text>
</a>
</g>
</g>
<!-- 140437519497872&#45;&gt;140437519862352 -->
<g id="edge12" class="edge">
<title>140437519497872&#45;&gt;140437519862352</title>
<path fill="none" stroke="white" stroke-width="8" d="M398.94,-126.83C372.22,-144.81 344.19,-169.43 329.5,-200 326.17,-206.92 324.45,-214.65 323.77,-222.43"/>
<polygon fill="white" stroke="white" stroke-width="8" points="316.77,-222.39 323.43,-232.62 330.76,-222.86 316.77,-222.39"/>
<text text-anchor="middle" x="454.5" y="-203.8" font-family="Times,serif" font-size="14.00" fill="white">600,037,902 row(s)/9,156 chunk(s)</text>
</g>
<!-- 140437519862672 -->
<g id="node13" class="node">
<title>140437519862672</title>
<g id="a_node13"><a xlink:title="Output: 85711200 rows in 9156 chunks filtered: 0, 44 ms 242 µs.&#10;Chunks: 0 skipped with no results, &#10;0 skipped with all matching, 0 scanned using binary search.">
<polygon fill="none" stroke="white" points="685,-317 516,-317 516,-233 685,-233 685,-317"/>
<text text-anchor="middle" x="600.5" y="-301.8" font-family="Times,serif" font-size="14.00" fill="white">TableScan</text>
<text text-anchor="middle" x="600.5" y="-286.8" font-family="Times,serif" font-size="14.00" fill="white">Impl: ColumnVsValue</text>
<text text-anchor="middle" x="600.5" y="-271.8" font-family="Times,serif" font-size="14.00" fill="white">l_shipmode = &#39;FOB&#39;</text>
<text text-anchor="middle" x="600.5" y="-240.8" font-family="Times,serif" font-size="14.00" fill="white">44 ms 242 µs</text>
</a>
</g>
</g>
<!-- 140437519497872&#45;&gt;140437519862672 -->
<g id="edge13" class="edge">
<title>140437519497872&#45;&gt;140437519862672</title>
<path fill="none" stroke="white" stroke-width="8" d="M504.53,-148.11C514.97,-160.3 526.87,-172.41 539.5,-182 555.03,-193.79 566.76,-185.24 579.5,-200 585.27,-206.68 589.46,-214.85 592.5,-223.29"/>
<polygon fill="white" stroke="white" stroke-width="8" points="585.82,-225.39 595.47,-232.87 599.2,-221.24 585.82,-225.39"/>
<text text-anchor="middle" x="714.5" y="-203.8" font-family="Times,serif" font-size="14.00" fill="white">600,037,902 row(s)/9,156 chunk(s)</text>
</g>
<!-- 140437519862672&#45;&gt;140437518071312 -->
<g id="edge14" class="edge">
<title>140437519862672&#45;&gt;140437518071312</title>
<path fill="none" stroke="white" stroke-width="3.2" d="M594.63,-317.02C591.25,-328.81 585.91,-340.92 577.5,-350 564.42,-364.11 546.24,-373.77 528.37,-380.36"/>
<polygon fill="white" stroke="white" stroke-width="3.2" points="518.51,-383.71 529.1,-383.81 527.97,-380.49 518.51,-383.71"/>
<text text-anchor="middle" x="708" y="-338.8" font-family="Times,serif" font-size="14.00" fill="white">85,711,200 row(s)/9,156 chunk(s)</text>
</g>
<!-- 140437518072336 -->
<g id="node14" class="node">
<title>140437518072336</title>
<g id="a_node14"><a xlink:title="Output: 2923900 rows in 64 chunks filtered: 0, 3 ms 307 µs.">
<polygon fill="none" stroke="white" points="415.5,-1202 311.5,-1202 311.5,-1148 415.5,-1148 415.5,-1202"/>
<text text-anchor="middle" x="363.5" y="-1186.8" font-family="Times,serif" font-size="14.00" fill="white">Validate</text>
<text text-anchor="middle" x="363.5" y="-1155.8" font-family="Times,serif" font-size="14.00" fill="white">3 ms 307 µs</text>
</a>
</g>
</g>
<!-- 140437518072336&#45;&gt;140437519864272 -->
<g id="edge15" class="edge">
<title>140437518072336&#45;&gt;140437519864272</title>
<path fill="none" stroke="white" d="M361.25,-1202.1C361.57,-1213.16 363.75,-1225.62 370.5,-1235 373.4,-1239.03 376.71,-1242.76 380.31,-1246.21"/>
<polygon fill="white" stroke="white" points="388.1,-1252.89 382.79,-1243.72 380.51,-1246.38 388.1,-1252.89"/>
<text text-anchor="middle" x="475.5" y="-1223.8" font-family="Times,serif" font-size="14.00" fill="white">2,923,900 row(s)/64 chunk(s)</text>
</g>
<!-- 140437519863952&#45;&gt;140437518072336 -->
<g id="edge16" class="edge">
<title>140437519863952&#45;&gt;140437518072336</title>
<path fill="none" stroke="white" d="M346.14,-1097.25C349.04,-1110.07 352.35,-1124.73 355.3,-1137.77"/>
<polygon fill="white" stroke="white" points="351.95,-1138.83 357.58,-1147.81 358.78,-1137.29 351.95,-1138.83"/>
<text text-anchor="middle" x="458.5" y="-1118.8" font-family="Times,serif" font-size="14.00" fill="white">2,923,900 row(s)/64 chunk(s)</text>
</g>
<!-- 140437519498320 -->
<g id="node16" class="node">
<title>140437519498320</title>
<g id="a_node16"><a xlink:title="Output: 150000000 rows in 2289 chunks filtered: 0, 2 ms 857 µs.">
<polygon fill="none" stroke="white" points="131,-977 0,-977 0,-863 131,-863 131,-977"/>
<text text-anchor="middle" x="65.5" y="-961.8" font-family="Times,serif" font-size="14.00" fill="white">GetTable</text>
<text text-anchor="middle" x="65.5" y="-946.8" font-family="Times,serif" font-size="14.00" fill="white">(orders)</text>
<text text-anchor="middle" x="65.5" y="-931.8" font-family="Times,serif" font-size="14.00" fill="white">pruned:</text>
<text text-anchor="middle" x="65.5" y="-916.8" font-family="Times,serif" font-size="14.00" fill="white">0/2289 chunk(s)</text>
<text text-anchor="middle" x="65.5" y="-901.8" font-family="Times,serif" font-size="14.00" fill="white">7/9 column(s)</text>
<text text-anchor="middle" x="65.5" y="-870.8" font-family="Times,serif" font-size="14.00" fill="white">2 ms 857 µs</text>
</a>
</g>
</g>
<!-- 140437519498320&#45;&gt;140437519863952 -->
<g id="edge17" class="edge">
<title>140437519498320&#45;&gt;140437519863952</title>
<path fill="none" stroke="white" stroke-width="4.58" d="M64.73,-977.06C67.15,-989.24 71.88,-1001.12 80.5,-1010 96.42,-1026.41 139.36,-1037.86 185.74,-1045.72"/>
<polygon fill="white" stroke="white" stroke-width="4.58" points="185.81,-1045.74 185.17,-1049.69 195.68,-1047.35 185.81,-1045.74"/>
<text text-anchor="middle" x="205.5" y="-998.8" font-family="Times,serif" font-size="14.00" fill="white">150,000,000 row(s)/2,289 chunk(s)</text>
</g>
<!-- 0 -->
<g id="node17" class="node">
<title>0</title>
<polygon fill="none" stroke="white" points="548.5,-0.5 548.5,-181.5 894.5,-181.5 894.5,-0.5 548.5,-0.5"/>
<text text-anchor="middle" x="721.5" y="-166.3" font-family="Times,serif" font-size="14.00" fill="white">Total by operator</text>
<polyline fill="none" stroke="white" points="548.5,-158.5 894.5,-158.5 "/>
<text text-anchor="end" x="702.5" y="-143.3" font-family="Times,serif" font-size="14.00" fill="white">JoinSimdSortMerge </text>
<text text-anchor="end" x="702.5" y="-128.3" font-family="Times,serif" font-size="14.00" fill="white"> AggregateHash </text>
<text text-anchor="end" x="702.5" y="-113.3" font-family="Times,serif" font-size="14.00" fill="white"> TableScan </text>
<text text-anchor="end" x="702.5" y="-98.3" font-family="Times,serif" font-size="14.00" fill="white"> Validate </text>
<text text-anchor="end" x="702.5" y="-83.3" font-family="Times,serif" font-size="14.00" fill="white"> Projection </text>
<text text-anchor="end" x="702.5" y="-68.3" font-family="Times,serif" font-size="14.00" fill="white"> GetTable </text>
<text text-anchor="end" x="702.5" y="-53.3" font-family="Times,serif" font-size="14.00" fill="white"> UnionAll </text>
<text text-anchor="end" x="702.5" y="-38.3" font-family="Times,serif" font-size="14.00" fill="white"> Sort </text>
<text text-anchor="end" x="702.5" y="-23.3" font-family="Times,serif" font-size="14.00" fill="white"> Alias </text>
<text text-anchor="end" x="702.5" y="-8.3" font-family="Times,serif" font-size="14.00" fill="white">total</text>
<polyline fill="none" stroke="white" points="710.5,-0.5 710.5,-158.5 "/>
<text text-anchor="start" x="718.5" y="-143.3" font-family="Times,serif" font-size="14.00" fill="white">1 s 235 ms </text>
<text text-anchor="start" x="718.5" y="-128.3" font-family="Times,serif" font-size="14.00" fill="white"> 1 s 22 ms </text>
<text text-anchor="start" x="718.5" y="-113.3" font-family="Times,serif" font-size="14.00" fill="white"> 293 ms 576 µs </text>
<text text-anchor="start" x="718.5" y="-98.3" font-family="Times,serif" font-size="14.00" fill="white"> 36 ms 206 µs </text>
<text text-anchor="start" x="718.5" y="-83.3" font-family="Times,serif" font-size="14.00" fill="white"> 23 ms 681 µs </text>
<text text-anchor="start" x="718.5" y="-68.3" font-family="Times,serif" font-size="14.00" fill="white"> 16 ms 831 µs </text>
<text text-anchor="start" x="718.5" y="-53.3" font-family="Times,serif" font-size="14.00" fill="white"> 12 ms 15 µs </text>
<text text-anchor="start" x="718.5" y="-38.3" font-family="Times,serif" font-size="14.00" fill="white"> 46 µs 888 ns </text>
<text text-anchor="start" x="718.5" y="-23.3" font-family="Times,serif" font-size="14.00" fill="white"> 3 µs 367 ns </text>
<text text-anchor="start" x="718.5" y="-8.3" font-family="Times,serif" font-size="14.00" fill="white"> 2 s 640 ms </text>
<polyline fill="none" stroke="white" points="841.5,-0.5 841.5,-158.5 "/>
<text text-anchor="start" x="849.5" y="-143.3" font-family="Times,serif" font-size="14.00" fill="white">47 %</text>
<text text-anchor="start" x="849.5" y="-128.3" font-family="Times,serif" font-size="14.00" fill="white">39 %</text>
<text text-anchor="start" x="849.5" y="-113.3" font-family="Times,serif" font-size="14.00" fill="white">11 %</text>
<text text-anchor="start" x="849.5" y="-98.3" font-family="Times,serif" font-size="14.00" fill="white">1 %</text>
<text text-anchor="start" x="849.5" y="-83.3" font-family="Times,serif" font-size="14.00" fill="white">1 %</text>
<text text-anchor="start" x="849.5" y="-68.3" font-family="Times,serif" font-size="14.00" fill="white">1 %</text>
<text text-anchor="start" x="849.5" y="-53.3" font-family="Times,serif" font-size="14.00" fill="white">0 %</text>
<text text-anchor="start" x="849.5" y="-38.3" font-family="Times,serif" font-size="14.00" fill="white">0 %</text>
<text text-anchor="start" x="849.5" y="-23.3" font-family="Times,serif" font-size="14.00" fill="white">0 %</text>
<text text-anchor="start" x="849.5" y="-8.3" font-family="Times,serif" font-size="14.00" fill="white"> </text>
</g>
</g>
</svg>
