<?xml version="1.0" encoding="UTF-8" standalone="no"?>
<!DOCTYPE svg PUBLIC "-//W3C//DTD SVG 1.1//EN"
 "http://www.w3.org/Graphics/SVG/1.1/DTD/svg11.dtd">
<!-- Generated by graphviz version 2.43.0 (0)
 -->
<!-- Title: G Pages: 1 -->
<svg width="1354pt" height="2615pt"
 viewBox="0.00 0.00 1353.50 2615.00" xmlns="http://www.w3.org/2000/svg" xmlns:xlink="http://www.w3.org/1999/xlink">
<g id="graph0" class="graph" transform="scale(1 1) rotate(0) translate(4 2611)">
<title>G</title>
<polygon fill="black" stroke="transparent" points="-4,4 -4,-2611 1349.5,-2611 1349.5,4 -4,4"/>
<text text-anchor="middle" x="319.5" y="-2591.8" font-family="Times,serif" font-size="14.00" fill="white">For tooltips with advanced information, hover your mouse over vertices or edge labels.</text>
<!-- 139646297160912 -->
<g id="node1" class="node">
<title>139646297160912</title>
<g id="a_node1"><a xlink:title="Output: 5 rows in 1 chunk filtered: 0, 2 µs 916 ns.">
<polygon fill="none" stroke="white" points="793,-2552 644,-2552 644,-2483 793,-2483 793,-2552"/>
<text text-anchor="middle" x="718.5" y="-2536.8" font-family="Times,serif" font-size="14.00" fill="white">Alias</text>
<text text-anchor="middle" x="718.5" y="-2521.8" font-family="Times,serif" font-size="14.00" fill="white">[n_name, revenue]</text>
<text text-anchor="middle" x="718.5" y="-2490.8" font-family="Times,serif" font-size="14.00" fill="white">2 µs 916 ns</text>
</a>
</g>
</g>
<!-- 139646297160592 -->
<g id="node2" class="node">
<title>139646297160592</title>
<g id="a_node2"><a xlink:title="Output: 5 rows in 1 chunk filtered: 0, 12 µs 353 ns.&#10;Operator step runtimes:&#10; MaterializeSortColumns 1 µs 842 ns&#10; Sort 1 µs 675 ns&#10; TemporaryResultWriting 305 ns&#10; WriteOutput 6 µs 608 ns.">
<polygon fill="none" stroke="white" points="772.5,-2432 664.5,-2432 664.5,-2378 772.5,-2378 772.5,-2432"/>
<text text-anchor="middle" x="718.5" y="-2416.8" font-family="Times,serif" font-size="14.00" fill="white">Sort</text>
<text text-anchor="middle" x="718.5" y="-2385.8" font-family="Times,serif" font-size="14.00" fill="white">12 µs 353 ns</text>
</a>
</g>
</g>
<!-- 139646297160592&#45;&gt;139646297160912 -->
<g id="edge1" class="edge">
<title>139646297160592&#45;&gt;139646297160912</title>
<path fill="none" stroke="white" d="M718.5,-2432.19C718.5,-2444.29 718.5,-2459 718.5,-2472.72"/>
<polygon fill="white" stroke="white" points="715,-2472.95 718.5,-2482.95 722,-2472.96 715,-2472.95"/>
<text text-anchor="middle" x="787.5" y="-2453.8" font-family="Times,serif" font-size="14.00" fill="white">5 row(s)/1 chunk(s)</text>
</g>
<!-- 139646295827984 -->
<g id="node3" class="node">
<title>139646295827984</title>
<g id="a_node3"><a xlink:title="Output: 5 rows in 1 chunk filtered: 0, 19 ms 501 µs.&#10;Operator step runtimes:&#10; GroupByKeyPartitioning 15 ms 493 µs&#10; Aggregating 3 ms 958 µs&#10; GroupByColumnsWriting 5 µs 549 ns&#10; AggregateColumnsWriting 6 µs 664 ns&#10; OutputWriting 4 µs 579 ns.">
<polygon fill="none" stroke="white" points="867,-2327 570,-2327 570,-2243 867,-2243 867,-2327"/>
<text text-anchor="middle" x="718.5" y="-2311.8" font-family="Times,serif" font-size="14.00" fill="white">AggregateHash</text>
<text text-anchor="middle" x="718.5" y="-2296.8" font-family="Times,serif" font-size="14.00" fill="white">GroupBy {n_name}</text>
<text text-anchor="middle" x="718.5" y="-2281.8" font-family="Times,serif" font-size="14.00" fill="white">SUM(l_extendedprice * (1 &#45; l_discount))</text>
<text text-anchor="middle" x="718.5" y="-2250.8" font-family="Times,serif" font-size="14.00" fill="white">19 ms 501 µs</text>
</a>
</g>
</g>
<!-- 139646295827984&#45;&gt;139646297160592 -->
<g id="edge2" class="edge">
<title>139646295827984&#45;&gt;139646297160592</title>
<path fill="none" stroke="white" d="M718.5,-2327.27C718.5,-2340.36 718.5,-2354.72 718.5,-2367.45"/>
<polygon fill="white" stroke="white" points="715,-2367.69 718.5,-2377.69 722,-2367.69 715,-2367.69"/>
<text text-anchor="middle" x="787.5" y="-2348.8" font-family="Times,serif" font-size="14.00" fill="white">5 row(s)/1 chunk(s)</text>
</g>
<!-- 139646297160272 -->
<g id="node4" class="node">
<title>139646297160272</title>
<g id="a_node4"><a xlink:title="Output: 362330 rows in 64 chunks filtered: 0, 81 ms 716 µs.&#10;Operator step runtimes:&#10; ForwardUnmodifiedColumns 43 µs 889 ns&#10; EvaluateNewColumns 81 ms 526 µs&#10; BuildOutput 125 µs 532 ns.">
<polygon fill="none" stroke="white" stroke-width="4.04" points="775,-2192 662,-2192 662,-2138 775,-2138 775,-2192"/>
<text text-anchor="middle" x="718.5" y="-2176.8" font-family="Times,serif" font-size="14.00" fill="white">Projection</text>
<text text-anchor="middle" x="718.5" y="-2145.8" font-family="Times,serif" font-size="14.00" fill="white">81 ms 716 µs</text>
</a>
</g>
</g>
<!-- 139646297160272&#45;&gt;139646295827984 -->
<g id="edge3" class="edge">
<title>139646297160272&#45;&gt;139646295827984</title>
<path fill="none" stroke="white" d="M718.5,-2192.19C718.5,-2204.1 718.5,-2218.63 718.5,-2232.58"/>
<polygon fill="white" stroke="white" points="715,-2232.59 718.5,-2242.59 722,-2232.59 715,-2232.59"/>
<text text-anchor="middle" x="816.5" y="-2213.8" font-family="Times,serif" font-size="14.00" fill="white">362,330 row(s)/64 chunk(s)</text>
</g>
<!-- 139646297159952 -->
<g id="node5" class="node">
<title>139646297159952</title>
<g id="a_node5"><a xlink:title="Output: 362330 rows in 64 chunks filtered: 0, 28 ms 924 µs.&#10;Chunks: 0 skipped with no results, &#10;0 skipped with all matching, 0 scanned using binary search.">
<polygon fill="none" stroke="white" stroke-width="1.48" points="821.5,-2087 615.5,-2087 615.5,-2003 821.5,-2003 821.5,-2087"/>
<text text-anchor="middle" x="718.5" y="-2071.8" font-family="Times,serif" font-size="14.00" fill="white">TableScan</text>
<text text-anchor="middle" x="718.5" y="-2056.8" font-family="Times,serif" font-size="14.00" fill="white">Impl: ColumnVsColumn</text>
<text text-anchor="middle" x="718.5" y="-2041.8" font-family="Times,serif" font-size="14.00" fill="white">c_nationkey = s_nationkey</text>
<text text-anchor="middle" x="718.5" y="-2010.8" font-family="Times,serif" font-size="14.00" fill="white">28 ms 924 µs</text>
</a>
</g>
</g>
<!-- 139646297159952&#45;&gt;139646297160272 -->
<g id="edge4" class="edge">
<title>139646297159952&#45;&gt;139646297160272</title>
<path fill="none" stroke="white" d="M718.5,-2087.27C718.5,-2100.36 718.5,-2114.72 718.5,-2127.45"/>
<polygon fill="white" stroke="white" points="715,-2127.69 718.5,-2137.69 722,-2127.69 715,-2127.69"/>
<text text-anchor="middle" x="816.5" y="-2108.8" font-family="Times,serif" font-size="14.00" fill="white">362,330 row(s)/64 chunk(s)</text>
</g>
<!-- 139646297159632 -->
<g id="node6" class="node">
<title>139646297159632</title>
<g id="a_node6"><a xlink:title="Output: 9063992 rows in 64 chunks filtered: 0, 172 ms 983 µs.&#10;Operator step runtimes:&#10; BuildSideMaterializing 4 ms 631 µs&#10; ProbeSideMaterializing 69 ms 847 µs&#10; Clustering 14 ms 787 µs&#10; Building 25 ms 829 µs&#10; Probing 30 ms 332 µs&#10; OutputWriting 27 ms 40 µs.&#10;Radix bits: 6.&#10;Build side is right.">
<polygon fill="none" stroke="white" stroke-width="5.89" points="806.5,-1952 630.5,-1952 630.5,-1883 806.5,-1883 806.5,-1952"/>
<text text-anchor="middle" x="718.5" y="-1936.8" font-family="Times,serif" font-size="14.00" fill="white">JoinHash (Inner)</text>
<text text-anchor="middle" x="718.5" y="-1921.8" font-family="Times,serif" font-size="14.00" fill="white">o_custkey = c_custkey</text>
<text text-anchor="middle" x="718.5" y="-1890.8" font-family="Times,serif" font-size="14.00" fill="white">172 ms 983 µs</text>
</a>
</g>
</g>
<!-- 139646297159632&#45;&gt;139646297159952 -->
<g id="edge5" class="edge">
<title>139646297159632&#45;&gt;139646297159952</title>
<path fill="none" stroke="white" d="M718.5,-1952.13C718.5,-1964.51 718.5,-1978.84 718.5,-1992.44"/>
<polygon fill="white" stroke="white" points="715,-1992.65 718.5,-2002.65 722,-1992.65 715,-1992.65"/>
<text text-anchor="middle" x="823.5" y="-1973.8" font-family="Times,serif" font-size="14.00" fill="white">9,063,992 row(s)/64 chunk(s)</text>
</g>
<!-- 139646297159312 -->
<g id="node7" class="node">
<title>139646297159312</title>
<g id="a_node7"><a xlink:title="Output: 9063992 rows in 16 chunks filtered: 0, 406 ms 969 µs.&#10;Operator step runtimes:&#10; BuildSideMaterializing 73 ms 197 µs&#10; ProbeSideMaterializing 46 ms 664 µs&#10; Clustering 28 ms 267 µs&#10; Building 103 ms 941 µs&#10; Probing 82 ms 951 µs&#10; OutputWriting 71 ms 726 µs.&#10;Radix bits: 6.&#10;Build side is left.">
<polygon fill="none" stroke="white" stroke-width="8" points="698,-1832 507,-1832 507,-1763 698,-1763 698,-1832"/>
<text text-anchor="middle" x="602.5" y="-1816.8" font-family="Times,serif" font-size="14.00" fill="white">JoinHash (Inner)</text>
<text text-anchor="middle" x="602.5" y="-1801.8" font-family="Times,serif" font-size="14.00" fill="white">l_orderkey = o_orderkey</text>
<text text-anchor="middle" x="602.5" y="-1770.8" font-family="Times,serif" font-size="14.00" fill="white">406 ms 969 µs</text>
</a>
</g>
</g>
<!-- 139646297159312&#45;&gt;139646297159632 -->
<g id="edge6" class="edge">
<title>139646297159312&#45;&gt;139646297159632</title>
<path fill="none" stroke="white" d="M596.07,-1832.08C595.64,-1843.35 597.21,-1855.45 603.5,-1865 608.43,-1872.48 614.73,-1878.89 621.83,-1884.38"/>
<polygon fill="white" stroke="white" points="622.28,-1884.7 620.29,-1887.57 630.5,-1890.4 622.28,-1884.7"/>
<text text-anchor="middle" x="708.5" y="-1853.8" font-family="Times,serif" font-size="14.00" fill="white">9,063,992 row(s)/16 chunk(s)</text>
</g>
<!-- 139646297158992 -->
<g id="node8" class="node">
<title>139646297158992</title>
<g id="a_node8"><a xlink:title="Output: 9063992 rows in 32 chunks filtered: 0, 123 ms 675 µs.&#10;Operator step runtimes:&#10; BuildSideMaterializing 348 µs 542 ns&#10; ProbeSideMaterializing 63 ms 403 µs&#10; Clustering 0 ns&#10; Building 2 ms 972 µs&#10; Probing 31 ms 658 µs&#10; OutputWriting 25 ms 123 µs.&#10;Radix bits: 0.&#10;Build side is right.">
<polygon fill="none" stroke="white" stroke-width="5.06" points="725.5,-1689.5 543.5,-1689.5 543.5,-1620.5 725.5,-1620.5 725.5,-1689.5"/>
<text text-anchor="middle" x="634.5" y="-1674.3" font-family="Times,serif" font-size="14.00" fill="white">JoinHash (Inner)</text>
<text text-anchor="middle" x="634.5" y="-1659.3" font-family="Times,serif" font-size="14.00" fill="white">l_suppkey = s_suppkey</text>
<text text-anchor="middle" x="634.5" y="-1628.3" font-family="Times,serif" font-size="14.00" fill="white">123 ms 675 µs</text>
</a>
</g>
</g>
<!-- 139646297158992&#45;&gt;139646297159312 -->
<g id="edge7" class="edge">
<title>139646297158992&#45;&gt;139646297159312</title>
<path fill="none" stroke="white" d="M626.84,-1689.65C622.53,-1708.54 617.11,-1732.33 612.48,-1752.66"/>
<polygon fill="white" stroke="white" points="612.43,-1752.88 609.02,-1752.11 610.21,-1762.63 612.43,-1752.88"/>
<text text-anchor="middle" x="723.5" y="-1733.8" font-family="Times,serif" font-size="14.00" fill="white">9,063,992 row(s)/32 chunk(s)</text>
</g>
<!-- 139646295833872 -->
<g id="node9" class="node">
<title>139646295833872</title>
<g id="a_node9"><a xlink:title="Output: 9063992 rows in 32 chunks filtered: 0, 16 ms 111 µs.">
<polygon fill="none" stroke="white" points="691,-1547 578,-1547 578,-1493 691,-1493 691,-1547"/>
<text text-anchor="middle" x="634.5" y="-1531.8" font-family="Times,serif" font-size="14.00" fill="white">Validate</text>
<text text-anchor="middle" x="634.5" y="-1500.8" font-family="Times,serif" font-size="14.00" fill="white">16 ms 111 µs</text>
</a>
</g>
</g>
<!-- 139646295833872&#45;&gt;139646297158992 -->
<g id="edge8" class="edge">
<title>139646295833872&#45;&gt;139646297158992</title>
<path fill="none" stroke="white" d="M634.5,-1547.28C634.5,-1565.15 634.5,-1589.24 634.5,-1610"/>
<polygon fill="white" stroke="white" points="634.5,-1610.2 631,-1610.2 634.5,-1620.2 634.5,-1610.2"/>
<text text-anchor="middle" x="739.5" y="-1568.8" font-family="Times,serif" font-size="14.00" fill="white">9,063,992 row(s)/32 chunk(s)</text>
</g>
<!-- 139646297158672 -->
<g id="node10" class="node">
<title>139646297158672</title>
<g id="a_node10"><a xlink:title="Output: 9063992 rows in 32 chunks filtered: 0, 385 ms 935 µs.&#10;Operator step runtimes:&#10; BuildSideMaterializing 41 ms 712 µs&#10; ProbeSideMaterializing 167 ms 897 µs&#10; Clustering 92 ms 424 µs&#10; Building 17 ms 521 µs&#10; Probing 49 ms 77 µs&#10; OutputWriting 16 ms 881 µs.&#10;Radix bits: 7.&#10;Build side is right.">
<polygon fill="none" stroke="white" stroke-width="7.87" points="733.5,-1442 525.5,-1442 525.5,-1373 733.5,-1373 733.5,-1442"/>
<text text-anchor="middle" x="629.5" y="-1426.8" font-family="Times,serif" font-size="14.00" fill="white">JoinHash (Semi Reduction)</text>
<text text-anchor="middle" x="629.5" y="-1411.8" font-family="Times,serif" font-size="14.00" fill="white">l_orderkey = o_orderkey</text>
<text text-anchor="middle" x="629.5" y="-1380.8" font-family="Times,serif" font-size="14.00" fill="white">385 ms 935 µs</text>
</a>
</g>
</g>
<!-- 139646297158672&#45;&gt;139646295833872 -->
<g id="edge9" class="edge">
<title>139646297158672&#45;&gt;139646295833872</title>
<path fill="none" stroke="white" d="M631.03,-1442.25C631.61,-1455.07 632.27,-1469.73 632.86,-1482.77"/>
<polygon fill="white" stroke="white" points="629.37,-1482.98 633.32,-1492.81 636.36,-1482.67 629.37,-1482.98"/>
<text text-anchor="middle" x="737.5" y="-1463.8" font-family="Times,serif" font-size="14.00" fill="white">9,063,992 row(s)/32 chunk(s)</text>
</g>
<!-- 139646297158032 -->
<g id="node11" class="node">
<title>139646297158032</title>
<g id="a_node11"><a xlink:title="Output: 59736453 rows in 4578 chunks filtered: 0, 327 ms 148 µs.&#10;Operator step runtimes:&#10; BuildSideMaterializing 4 ms 496 µs&#10; ProbeSideMaterializing 206 ms 248 µs&#10; Clustering 0 ns&#10; Building 3 ms 193 µs&#10; Probing 44 ms 212 µs&#10; OutputWriting 35 ms 729 µs.&#10;Radix bits: 0.&#10;Build side is right.">
<polygon fill="none" stroke="white" stroke-width="7.46" points="733.5,-1322 525.5,-1322 525.5,-1253 733.5,-1253 733.5,-1322"/>
<text text-anchor="middle" x="629.5" y="-1306.8" font-family="Times,serif" font-size="14.00" fill="white">JoinHash (Semi Reduction)</text>
<text text-anchor="middle" x="629.5" y="-1291.8" font-family="Times,serif" font-size="14.00" fill="white">l_suppkey = s_suppkey</text>
<text text-anchor="middle" x="629.5" y="-1260.8" font-family="Times,serif" font-size="14.00" fill="white">327 ms 148 µs</text>
</a>
</g>
</g>
<!-- 139646297158032&#45;&gt;139646297158672 -->
<g id="edge10" class="edge">
<title>139646297158032&#45;&gt;139646297158672</title>
<path fill="none" stroke="white" stroke-width="4.02" d="M629.5,-1322.31C629.5,-1334.78 629.5,-1349.1 629.5,-1362.34"/>
<polygon fill="white" stroke="white" stroke-width="4.02" points="629.5,-1362.68 625.98,-1362.68 629.5,-1372.68 629.5,-1362.68"/>
<text text-anchor="middle" x="750" y="-1343.8" font-family="Times,serif" font-size="14.00" fill="white">59,736,453 row(s)/4,578 chunk(s)</text>
</g>
<!-- 139646296732944 -->
<g id="node12" class="node">
<title>139646296732944</title>
<g id="a_node12"><a xlink:title="Output: 300005811 rows in 4578 chunks filtered: 0, 8 ms 88 µs.">
<polygon fill="none" stroke="white" points="574,-1202 443,-1202 443,-1088 574,-1088 574,-1202"/>
<text text-anchor="middle" x="508.5" y="-1186.8" font-family="Times,serif" font-size="14.00" fill="white">GetTable</text>
<text text-anchor="middle" x="508.5" y="-1171.8" font-family="Times,serif" font-size="14.00" fill="white">(lineitem)</text>
<text text-anchor="middle" x="508.5" y="-1156.8" font-family="Times,serif" font-size="14.00" fill="white">pruned:</text>
<text text-anchor="middle" x="508.5" y="-1141.8" font-family="Times,serif" font-size="14.00" fill="white">0/4578 chunk(s)</text>
<text text-anchor="middle" x="508.5" y="-1126.8" font-family="Times,serif" font-size="14.00" fill="white">12/16 column(s)</text>
<text text-anchor="middle" x="508.5" y="-1095.8" font-family="Times,serif" font-size="14.00" fill="white">8 ms 88 µs</text>
</a>
</g>
</g>
<!-- 139646296732944&#45;&gt;139646297158032 -->
<g id="edge11" class="edge">
<title>139646296732944&#45;&gt;139646297158032</title>
<path fill="none" stroke="white" stroke-width="8" d="M499.65,-1202.1C500.32,-1213.73 503.07,-1225.36 509.5,-1235 512.12,-1238.93 515.1,-1242.55 518.38,-1245.9"/>
<polygon fill="white" stroke="white" stroke-width="8" points="518.58,-1246.09 513.88,-1251.27 525.99,-1252.81 518.58,-1246.09"/>
<text text-anchor="middle" x="634.5" y="-1223.8" font-family="Times,serif" font-size="14.00" fill="white">300,005,811 row(s)/4,578 chunk(s)</text>
</g>
<!-- 139646297157072 -->
<g id="node13" class="node">
<title>139646297157072</title>
<g id="a_node13"><a xlink:title="Output: 99566 rows in 8 chunks filtered: 0, 1 ms 159 µs.&#10;Operator step runtimes:&#10; BuildSideMaterializing 38 µs 475 ns&#10; ProbeSideMaterializing 282 µs 477 ns&#10; Clustering 0 ns&#10; Building 2 µs 453 ns&#10; Probing 343 µs 13 ns&#10; OutputWriting 454 µs 752 ns.&#10;Radix bits: 0.&#10;Build side is right.">
<polygon fill="none" stroke="white" points="981,-1179.5 774,-1179.5 774,-1110.5 981,-1110.5 981,-1179.5"/>
<text text-anchor="middle" x="877.5" y="-1164.3" font-family="Times,serif" font-size="14.00" fill="white">JoinHash (Inner)</text>
<text text-anchor="middle" x="877.5" y="-1149.3" font-family="Times,serif" font-size="14.00" fill="white">s_nationkey = n_nationkey</text>
<text text-anchor="middle" x="877.5" y="-1118.3" font-family="Times,serif" font-size="14.00" fill="white">1 ms 159 µs</text>
</a>
</g>
</g>
<!-- 139646297157072&#45;&gt;139646297158992 -->
<g id="edge13" class="edge">
<title>139646297157072&#45;&gt;139646297158992</title>
<path fill="none" stroke="white" d="M925.52,-1179.65C938.66,-1191.05 951.69,-1204.8 960.5,-1220 975.64,-1246.13 974.5,-1256.3 974.5,-1286.5 974.5,-1286.5 974.5,-1286.5 974.5,-1521 974.5,-1619.99 859.81,-1567.92 765.5,-1598 749.15,-1603.21 732.04,-1609.72 715.78,-1616.42"/>
<polygon fill="white" stroke="white" points="706.32,-1620.39 716.9,-1619.75 715.55,-1616.52 706.32,-1620.39"/>
<text text-anchor="middle" x="1063.5" y="-1403.8" font-family="Times,serif" font-size="14.00" fill="white">99,566 row(s)/8 chunk(s)</text>
</g>
<!-- 139646297157072&#45;&gt;139646297158032 -->
<g id="edge12" class="edge">
<title>139646297157072&#45;&gt;139646297158032</title>
<path fill="none" stroke="white" d="M835.54,-1179.54C808.26,-1200.96 774.99,-1226.3 759.5,-1235 750.93,-1239.81 741.81,-1244.39 732.54,-1248.69"/>
<polygon fill="white" stroke="white" points="723.24,-1252.9 733.79,-1251.97 732.35,-1248.78 723.24,-1252.9"/>
<text text-anchor="middle" x="868.5" y="-1223.8" font-family="Times,serif" font-size="14.00" fill="white">99,566 row(s)/8 chunk(s)</text>
</g>
<!-- 139646295833104 -->
<g id="node14" class="node">
<title>139646295833104</title>
<g id="a_node14"><a xlink:title="Output: 99566 rows in 8 chunks filtered: 0, 27 µs 897 ns.">
<polygon fill="none" stroke="white" points="1051.5,-1007 943.5,-1007 943.5,-953 1051.5,-953 1051.5,-1007"/>
<text text-anchor="middle" x="997.5" y="-991.8" font-family="Times,serif" font-size="14.00" fill="white">Validate</text>
<text text-anchor="middle" x="997.5" y="-960.8" font-family="Times,serif" font-size="14.00" fill="white">27 µs 897 ns</text>
</a>
</g>
</g>
<!-- 139646295833104&#45;&gt;139646297157072 -->
<g id="edge14" class="edge">
<title>139646295833104&#45;&gt;139646297157072</title>
<path fill="none" stroke="white" d="M978.22,-1007.19C959.39,-1032.77 930.42,-1072.12 908.37,-1102.06"/>
<polygon fill="white" stroke="white" points="908.28,-1102.19 905.46,-1100.11 902.35,-1110.24 908.28,-1102.19"/>
<text text-anchor="middle" x="1029.5" y="-1058.8" font-family="Times,serif" font-size="14.00" fill="white">99,566 row(s)/8 chunk(s)</text>
</g>
<!-- 139646297153872 -->
<g id="node15" class="node">
<title>139646297153872</title>
<g id="a_node15"><a xlink:title="Output: 99566 rows in 8 chunks filtered: 0, 1 ms 210 µs.&#10;Operator step runtimes:&#10; BuildSideMaterializing 23 µs 154 ns&#10; ProbeSideMaterializing 839 µs 158 ns&#10; Clustering 0 ns&#10; Building 1 µs 891 ns&#10; Probing 208 µs 62 ns&#10; OutputWriting 83 µs 232 ns.&#10;Radix bits: 0.&#10;Build side is right.">
<polygon fill="none" stroke="white" points="1121.5,-872 913.5,-872 913.5,-803 1121.5,-803 1121.5,-872"/>
<text text-anchor="middle" x="1017.5" y="-856.8" font-family="Times,serif" font-size="14.00" fill="white">JoinHash (Semi Reduction)</text>
<text text-anchor="middle" x="1017.5" y="-841.8" font-family="Times,serif" font-size="14.00" fill="white">s_nationkey = n_nationkey</text>
<text text-anchor="middle" x="1017.5" y="-810.8" font-family="Times,serif" font-size="14.00" fill="white">1 ms 210 µs</text>
</a>
</g>
</g>
<!-- 139646297153872&#45;&gt;139646295833104 -->
<g id="edge15" class="edge">
<title>139646297153872&#45;&gt;139646295833104</title>
<path fill="none" stroke="white" d="M1012.71,-872.15C1009.69,-893.36 1005.79,-920.75 1002.7,-942.48"/>
<polygon fill="white" stroke="white" points="999.2,-942.25 1001.25,-952.65 1006.13,-943.24 999.2,-942.25"/>
<text text-anchor="middle" x="1098.5" y="-893.8" font-family="Times,serif" font-size="14.00" fill="white">99,566 row(s)/8 chunk(s)</text>
</g>
<!-- 139646296733392 -->
<g id="node16" class="node">
<title>139646296733392</title>
<g id="a_node16"><a xlink:title="Output: 500000 rows in 8 chunks filtered: 0, 46 µs 773 ns.">
<polygon fill="none" stroke="white" points="1107,-752 994,-752 994,-638 1107,-638 1107,-752"/>
<text text-anchor="middle" x="1050.5" y="-736.8" font-family="Times,serif" font-size="14.00" fill="white">GetTable</text>
<text text-anchor="middle" x="1050.5" y="-721.8" font-family="Times,serif" font-size="14.00" fill="white">(supplier)</text>
<text text-anchor="middle" x="1050.5" y="-706.8" font-family="Times,serif" font-size="14.00" fill="white">pruned:</text>
<text text-anchor="middle" x="1050.5" y="-691.8" font-family="Times,serif" font-size="14.00" fill="white">0/8 chunk(s)</text>
<text text-anchor="middle" x="1050.5" y="-676.8" font-family="Times,serif" font-size="14.00" fill="white">5/7 column(s)</text>
<text text-anchor="middle" x="1050.5" y="-645.8" font-family="Times,serif" font-size="14.00" fill="white">46 µs 773 ns</text>
</a>
</g>
</g>
<!-- 139646296733392&#45;&gt;139646297153872 -->
<g id="edge16" class="edge">
<title>139646296733392&#45;&gt;139646297153872</title>
<path fill="none" stroke="white" d="M1037.27,-752.34C1034.1,-765.83 1030.76,-780.04 1027.75,-792.86"/>
<polygon fill="white" stroke="white" points="1027.7,-793.07 1024.29,-792.27 1025.41,-802.8 1027.7,-793.07"/>
<text text-anchor="middle" x="1126" y="-773.8" font-family="Times,serif" font-size="14.00" fill="white">500,000 row(s)/8 chunk(s)</text>
</g>
<!-- 139646295832336 -->
<g id="node17" class="node">
<title>139646295832336</title>
<g id="a_node17"><a xlink:title="Output: 5 rows in 1 chunk filtered: 0, 3 µs 517 ns.">
<polygon fill="none" stroke="white" points="923,-722 824,-722 824,-668 923,-668 923,-722"/>
<text text-anchor="middle" x="873.5" y="-706.8" font-family="Times,serif" font-size="14.00" fill="white">Validate</text>
<text text-anchor="middle" x="873.5" y="-675.8" font-family="Times,serif" font-size="14.00" fill="white">3 µs 517 ns</text>
</a>
</g>
</g>
<!-- 139646295832336&#45;&gt;139646297157072 -->
<g id="edge18" class="edge">
<title>139646295832336&#45;&gt;139646297157072</title>
<path fill="none" stroke="white" d="M872.09,-722.03C870.14,-759.26 866.74,-829.84 865.5,-890 863.98,-963.76 869.56,-1049.46 873.61,-1100.08"/>
<polygon fill="white" stroke="white" points="874.45,-1110.33 877.13,-1100.08 873.64,-1100.36 874.45,-1110.33"/>
<text text-anchor="middle" x="934.5" y="-893.8" font-family="Times,serif" font-size="14.00" fill="white">5 row(s)/1 chunk(s)</text>
</g>
<!-- 139646295832336&#45;&gt;139646297153872 -->
<g id="edge17" class="edge">
<title>139646295832336&#45;&gt;139646297153872</title>
<path fill="none" stroke="white" d="M871.11,-722.1C870.76,-741.45 873.43,-767.41 887.5,-785 892.51,-791.26 898.4,-796.77 904.84,-801.61"/>
<polygon fill="white" stroke="white" points="913.29,-807.38 907.01,-798.85 905.04,-801.74 913.29,-807.38"/>
<text text-anchor="middle" x="956.5" y="-773.8" font-family="Times,serif" font-size="14.00" fill="white">5 row(s)/1 chunk(s)</text>
</g>
<!-- 139646234119888 -->
<g id="node18" class="node">
<title>139646234119888</title>
<g id="a_node18"><a xlink:title="Output: 5 rows in 1 chunk filtered: 0, 106 µs 637 ns.&#10;Operator step runtimes:&#10; BuildSideMaterializing 49 µs 476 ns&#10; ProbeSideMaterializing 28 µs 339 ns&#10; Clustering 0 ns&#10; Building 2 µs 921 ns&#10; Probing 1 µs 979 ns&#10; OutputWriting 10 µs 357 ns.&#10;Radix bits: 0.&#10;Build side is right.">
<polygon fill="none" stroke="white" points="977.5,-587 769.5,-587 769.5,-518 977.5,-518 977.5,-587"/>
<text text-anchor="middle" x="873.5" y="-571.8" font-family="Times,serif" font-size="14.00" fill="white">JoinHash (Semi)</text>
<text text-anchor="middle" x="873.5" y="-556.8" font-family="Times,serif" font-size="14.00" fill="white">n_regionkey = r_regionkey</text>
<text text-anchor="middle" x="873.5" y="-525.8" font-family="Times,serif" font-size="14.00" fill="white">106 µs 637 ns</text>
</a>
</g>
</g>
<!-- 139646234119888&#45;&gt;139646295832336 -->
<g id="edge19" class="edge">
<title>139646234119888&#45;&gt;139646295832336</title>
<path fill="none" stroke="white" d="M873.5,-587.15C873.5,-608.36 873.5,-635.75 873.5,-657.48"/>
<polygon fill="white" stroke="white" points="870,-657.65 873.5,-667.65 877,-657.65 870,-657.65"/>
<text text-anchor="middle" x="942.5" y="-608.8" font-family="Times,serif" font-size="14.00" fill="white">5 row(s)/1 chunk(s)</text>
</g>
<!-- 139646296733840 -->
<g id="node19" class="node">
<title>139646296733840</title>
<g id="a_node19"><a xlink:title="Output: 25 rows in 1 chunk filtered: 0, 12 µs 204 ns.">
<polygon fill="none" stroke="white" points="845,-467 732,-467 732,-353 845,-353 845,-467"/>
<text text-anchor="middle" x="788.5" y="-451.8" font-family="Times,serif" font-size="14.00" fill="white">GetTable</text>
<text text-anchor="middle" x="788.5" y="-436.8" font-family="Times,serif" font-size="14.00" fill="white">(nation)</text>
<text text-anchor="middle" x="788.5" y="-421.8" font-family="Times,serif" font-size="14.00" fill="white">pruned:</text>
<text text-anchor="middle" x="788.5" y="-406.8" font-family="Times,serif" font-size="14.00" fill="white">0/1 chunk(s)</text>
<text text-anchor="middle" x="788.5" y="-391.8" font-family="Times,serif" font-size="14.00" fill="white">1/4 column(s)</text>
<text text-anchor="middle" x="788.5" y="-360.8" font-family="Times,serif" font-size="14.00" fill="white">12 µs 204 ns</text>
</a>
</g>
</g>
<!-- 139646296733840&#45;&gt;139646234119888 -->
<g id="edge20" class="edge">
<title>139646296733840&#45;&gt;139646234119888</title>
<path fill="none" stroke="white" d="M780.77,-467.38C781.46,-478.74 783.93,-490.19 789.5,-500 791.64,-503.77 794.17,-507.29 797.01,-510.59"/>
<polygon fill="white" stroke="white" points="797.13,-510.71 794.62,-513.15 804.11,-517.86 797.13,-510.71"/>
<text text-anchor="middle" x="863" y="-488.8" font-family="Times,serif" font-size="14.00" fill="white">25 row(s)/1 chunk(s)</text>
</g>
<!-- 139646295832080 -->
<g id="node20" class="node">
<title>139646295832080</title>
<g id="a_node20"><a xlink:title="Output: 1 row in 1 chunk filtered: 0, 8 µs 245 ns.">
<polygon fill="none" stroke="white" points="1008,-437 909,-437 909,-383 1008,-383 1008,-437"/>
<text text-anchor="middle" x="958.5" y="-421.8" font-family="Times,serif" font-size="14.00" fill="white">Validate</text>
<text text-anchor="middle" x="958.5" y="-390.8" font-family="Times,serif" font-size="14.00" fill="white">8 µs 245 ns</text>
</a>
</g>
</g>
<!-- 139646295832080&#45;&gt;139646234119888 -->
<g id="edge21" class="edge">
<title>139646295832080&#45;&gt;139646234119888</title>
<path fill="none" stroke="white" d="M956.43,-437.26C953.95,-455.96 948.5,-481.03 936.5,-500 934.21,-503.63 931.57,-507.12 928.7,-510.45"/>
<polygon fill="white" stroke="white" points="921.66,-517.95 931.06,-513.06 928.51,-510.66 921.66,-517.95"/>
<text text-anchor="middle" x="1011.5" y="-488.8" font-family="Times,serif" font-size="14.00" fill="white">1 row(s)/1 chunk(s)</text>
</g>
<!-- 139646234119568 -->
<g id="node21" class="node">
<title>139646234119568</title>
<g id="a_node21"><a xlink:title="Output: 1 row in 1 chunk filtered: 0, 19 µs 343 ns.&#10;Chunks: 0 skipped with no results, &#10;0 skipped with all matching, 0 scanned using binary search.">
<polygon fill="none" stroke="white" points="1043,-302 874,-302 874,-218 1043,-218 1043,-302"/>
<text text-anchor="middle" x="958.5" y="-286.8" font-family="Times,serif" font-size="14.00" fill="white">TableScan</text>
<text text-anchor="middle" x="958.5" y="-271.8" font-family="Times,serif" font-size="14.00" fill="white">Impl: ColumnVsValue</text>
<text text-anchor="middle" x="958.5" y="-256.8" font-family="Times,serif" font-size="14.00" fill="white">r_name = &#39;AFRICA&#39;</text>
<text text-anchor="middle" x="958.5" y="-225.8" font-family="Times,serif" font-size="14.00" fill="white">19 µs 343 ns</text>
</a>
</g>
</g>
<!-- 139646234119568&#45;&gt;139646295832080 -->
<g id="edge22" class="edge">
<title>139646234119568&#45;&gt;139646295832080</title>
<path fill="none" stroke="white" d="M958.5,-302.23C958.5,-324.32 958.5,-351.31 958.5,-372.62"/>
<polygon fill="white" stroke="white" points="955,-372.88 958.5,-382.88 962,-372.88 955,-372.88"/>
<text text-anchor="middle" x="1027.5" y="-323.8" font-family="Times,serif" font-size="14.00" fill="white">1 row(s)/1 chunk(s)</text>
</g>
<!-- 139646296734288 -->
<g id="node22" class="node">
<title>139646296734288</title>
<g id="a_node22"><a xlink:title="Output: 5 rows in 1 chunk filtered: 0, 11 µs 901 ns.">
<polygon fill="none" stroke="white" points="1015,-140.5 902,-140.5 902,-26.5 1015,-26.5 1015,-140.5"/>
<text text-anchor="middle" x="958.5" y="-125.3" font-family="Times,serif" font-size="14.00" fill="white">GetTable</text>
<text text-anchor="middle" x="958.5" y="-110.3" font-family="Times,serif" font-size="14.00" fill="white">(region)</text>
<text text-anchor="middle" x="958.5" y="-95.3" font-family="Times,serif" font-size="14.00" fill="white">pruned:</text>
<text text-anchor="middle" x="958.5" y="-80.3" font-family="Times,serif" font-size="14.00" fill="white">0/1 chunk(s)</text>
<text text-anchor="middle" x="958.5" y="-65.3" font-family="Times,serif" font-size="14.00" fill="white">1/3 column(s)</text>
<text text-anchor="middle" x="958.5" y="-34.3" font-family="Times,serif" font-size="14.00" fill="white">11 µs 901 ns</text>
</a>
</g>
</g>
<!-- 139646296734288&#45;&gt;139646234119568 -->
<g id="edge23" class="edge">
<title>139646296734288&#45;&gt;139646234119568</title>
<path fill="none" stroke="white" d="M958.5,-140.67C958.5,-162.25 958.5,-186.74 958.5,-207.83"/>
<polygon fill="white" stroke="white" points="955,-207.87 958.5,-217.87 962,-207.87 955,-207.87"/>
<text text-anchor="middle" x="1027.5" y="-188.8" font-family="Times,serif" font-size="14.00" fill="white">5 row(s)/1 chunk(s)</text>
</g>
<!-- 139646295833616 -->
<g id="node23" class="node">
<title>139646295833616</title>
<g id="a_node23"><a xlink:title="Output: 11379462 rows in 1145 chunks filtered: 0, 2 ms 953 µs.">
<polygon fill="none" stroke="white" points="370.5,-1314.5 266.5,-1314.5 266.5,-1260.5 370.5,-1260.5 370.5,-1314.5"/>
<text text-anchor="middle" x="318.5" y="-1299.3" font-family="Times,serif" font-size="14.00" fill="white">Validate</text>
<text text-anchor="middle" x="318.5" y="-1268.3" font-family="Times,serif" font-size="14.00" fill="white">2 ms 953 µs</text>
</a>
</g>
</g>
<!-- 139646295833616&#45;&gt;139646297159312 -->
<g id="edge25" class="edge">
<title>139646295833616&#45;&gt;139646297159312</title>
<path fill="none" stroke="white" d="M318.5,-1314.75C318.5,-1338.66 318.5,-1374.95 318.5,-1406.5 318.5,-1406.5 318.5,-1406.5 318.5,-1656 318.5,-1738.43 415.8,-1772.5 496.49,-1786.58"/>
<polygon fill="white" stroke="white" points="506.75,-1788.28 497.45,-1783.19 496.88,-1786.64 506.75,-1788.28"/>
<text text-anchor="middle" x="439" y="-1516.3" font-family="Times,serif" font-size="14.00" fill="white">11,379,462 row(s)/1,145 chunk(s)</text>
</g>
<!-- 139646295833616&#45;&gt;139646297158672 -->
<g id="edge24" class="edge">
<title>139646295833616&#45;&gt;139646297158672</title>
<path fill="none" stroke="white" d="M338.06,-1314.62C349.97,-1328.69 366.35,-1345.13 384.5,-1355 424.35,-1376.68 472.43,-1389.24 515.4,-1396.51"/>
<polygon fill="white" stroke="white" points="525.35,-1398.12 516.03,-1393.07 515.48,-1396.53 525.35,-1398.12"/>
<text text-anchor="middle" x="505" y="-1343.8" font-family="Times,serif" font-size="14.00" fill="white">11,379,462 row(s)/1,145 chunk(s)</text>
</g>
<!-- 139646297158352 -->
<g id="node24" class="node">
<title>139646297158352</title>
<g id="a_node24"><a xlink:title="Output: 11379462 rows in 1145 chunks filtered: 0, 14 ms 700 µs.&#10;Chunks: 0 skipped with no results, &#10;0 skipped with all matching, 0 scanned using binary search.">
<polygon fill="none" stroke="white" points="425,-1194.5 0,-1194.5 0,-1095.5 425,-1095.5 425,-1194.5"/>
<text text-anchor="middle" x="212.5" y="-1179.3" font-family="Times,serif" font-size="14.00" fill="white">TableScan</text>
<text text-anchor="middle" x="212.5" y="-1164.3" font-family="Times,serif" font-size="14.00" fill="white">Impl: ColumnBetween</text>
<text text-anchor="middle" x="212.5" y="-1149.3" font-family="Times,serif" font-size="14.00" fill="white">o_orderdate BETWEEN UPPER EXCLUSIVE &#39;1995&#45;01&#45;01&#39;</text>
<text text-anchor="middle" x="212.5" y="-1134.3" font-family="Times,serif" font-size="14.00" fill="white">AND &#39;1996&#45;01&#45;01&#39;</text>
<text text-anchor="middle" x="212.5" y="-1103.3" font-family="Times,serif" font-size="14.00" fill="white">14 ms 700 µs</text>
</a>
</g>
</g>
<!-- 139646297158352&#45;&gt;139646295833616 -->
<g id="edge26" class="edge">
<title>139646297158352&#45;&gt;139646295833616</title>
<path fill="none" stroke="white" d="M224.72,-1194.91C229.69,-1208.75 236.46,-1223.24 245.5,-1235 250.8,-1241.89 257.28,-1248.24 264.17,-1253.94"/>
<polygon fill="white" stroke="white" points="262.36,-1256.96 272.4,-1260.34 266.65,-1251.44 262.36,-1256.96"/>
<text text-anchor="middle" x="366" y="-1223.8" font-family="Times,serif" font-size="14.00" fill="white">11,379,462 row(s)/1,145 chunk(s)</text>
</g>
<!-- 139646296734736 -->
<g id="node25" class="node">
<title>139646296734736</title>
<g id="a_node25"><a xlink:title="Output: 75000000 rows in 1145 chunks filtered: 0, 2 ms 723 µs.">
<polygon fill="none" stroke="white" points="278,-1037 147,-1037 147,-923 278,-923 278,-1037"/>
<text text-anchor="middle" x="212.5" y="-1021.8" font-family="Times,serif" font-size="14.00" fill="white">GetTable</text>
<text text-anchor="middle" x="212.5" y="-1006.8" font-family="Times,serif" font-size="14.00" fill="white">(orders)</text>
<text text-anchor="middle" x="212.5" y="-991.8" font-family="Times,serif" font-size="14.00" fill="white">pruned:</text>
<text text-anchor="middle" x="212.5" y="-976.8" font-family="Times,serif" font-size="14.00" fill="white">0/1145 chunk(s)</text>
<text text-anchor="middle" x="212.5" y="-961.8" font-family="Times,serif" font-size="14.00" fill="white">6/9 column(s)</text>
<text text-anchor="middle" x="212.5" y="-930.8" font-family="Times,serif" font-size="14.00" fill="white">2 ms 723 µs</text>
</a>
</g>
</g>
<!-- 139646296734736&#45;&gt;139646297158352 -->
<g id="edge27" class="edge">
<title>139646296734736&#45;&gt;139646297158352</title>
<path fill="none" stroke="white" stroke-width="4.58" d="M212.5,-1037.1C212.5,-1052.66 212.5,-1069.59 212.5,-1085.3"/>
<polygon fill="white" stroke="white" stroke-width="4.58" points="208.49,-1085.42 212.5,-1095.42 216.51,-1085.42 208.49,-1085.42"/>
<text text-anchor="middle" x="333" y="-1058.8" font-family="Times,serif" font-size="14.00" fill="white">75,000,000 row(s)/1,145 chunk(s)</text>
</g>
<!-- 139646295834128 -->
<g id="node26" class="node">
<title>139646295834128</title>
<g id="a_node26"><a xlink:title="Output: 7500000 rows in 115 chunks filtered: 0, 494 µs 160 ns.">
<polygon fill="none" stroke="white" points="894,-1824.5 777,-1824.5 777,-1770.5 894,-1770.5 894,-1824.5"/>
<text text-anchor="middle" x="835.5" y="-1809.3" font-family="Times,serif" font-size="14.00" fill="white">Validate</text>
<text text-anchor="middle" x="835.5" y="-1778.3" font-family="Times,serif" font-size="14.00" fill="white">494 µs 160 ns</text>
</a>
</g>
</g>
<!-- 139646295834128&#45;&gt;139646297159632 -->
<g id="edge28" class="edge">
<title>139646295834128&#45;&gt;139646297159632</title>
<path fill="none" stroke="white" d="M831.55,-1824.73C828.46,-1837.99 823.02,-1853.62 813.5,-1865 810.13,-1869.03 806.35,-1872.8 802.3,-1876.31"/>
<polygon fill="white" stroke="white" points="794.22,-1882.75 804.22,-1879.26 802.04,-1876.52 794.22,-1882.75"/>
<text text-anchor="middle" x="932" y="-1853.8" font-family="Times,serif" font-size="14.00" fill="white">7,500,000 row(s)/115 chunk(s)</text>
</g>
<!-- 139646296735184 -->
<g id="node27" class="node">
<title>139646296735184</title>
<g id="a_node27"><a xlink:title="Output: 7500000 rows in 115 chunks filtered: 0, 309 µs 608 ns.">
<polygon fill="none" stroke="white" points="896.5,-1712 774.5,-1712 774.5,-1598 896.5,-1598 896.5,-1712"/>
<text text-anchor="middle" x="835.5" y="-1696.8" font-family="Times,serif" font-size="14.00" fill="white">GetTable</text>
<text text-anchor="middle" x="835.5" y="-1681.8" font-family="Times,serif" font-size="14.00" fill="white">(customer)</text>
<text text-anchor="middle" x="835.5" y="-1666.8" font-family="Times,serif" font-size="14.00" fill="white">pruned:</text>
<text text-anchor="middle" x="835.5" y="-1651.8" font-family="Times,serif" font-size="14.00" fill="white">0/115 chunk(s)</text>
<text text-anchor="middle" x="835.5" y="-1636.8" font-family="Times,serif" font-size="14.00" fill="white">6/8 column(s)</text>
<text text-anchor="middle" x="835.5" y="-1605.8" font-family="Times,serif" font-size="14.00" fill="white">309 µs 608 ns</text>
</a>
</g>
</g>
<!-- 139646296735184&#45;&gt;139646295834128 -->
<g id="edge29" class="edge">
<title>139646296735184&#45;&gt;139646295834128</title>
<path fill="none" stroke="white" d="M835.5,-1712.34C835.5,-1728.43 835.5,-1745.54 835.5,-1760.1"/>
<polygon fill="white" stroke="white" points="832,-1760.2 835.5,-1770.2 839,-1760.2 832,-1760.2"/>
<text text-anchor="middle" x="945" y="-1733.8" font-family="Times,serif" font-size="14.00" fill="white">7,500,000 row(s)/115 chunk(s)</text>
</g>
<!-- 0 -->
<g id="node28" class="node">
<title>0</title>
<polygon fill="none" stroke="white" points="1033.5,-0.5 1033.5,-166.5 1345.5,-166.5 1345.5,-0.5 1033.5,-0.5"/>
<text text-anchor="middle" x="1189.5" y="-151.3" font-family="Times,serif" font-size="14.00" fill="white">Total by operator</text>
<polyline fill="none" stroke="white" points="1033.5,-143.5 1345.5,-143.5 "/>
<text text-anchor="end" x="1162.5" y="-128.3" font-family="Times,serif" font-size="14.00" fill="white">JoinHash </text>
<text text-anchor="end" x="1162.5" y="-113.3" font-family="Times,serif" font-size="14.00" fill="white"> Projection </text>
<text text-anchor="end" x="1162.5" y="-98.3" font-family="Times,serif" font-size="14.00" fill="white"> TableScan </text>
<text text-anchor="end" x="1162.5" y="-83.3" font-family="Times,serif" font-size="14.00" fill="white"> Validate </text>
<text text-anchor="end" x="1162.5" y="-68.3" font-family="Times,serif" font-size="14.00" fill="white"> AggregateHash </text>
<text text-anchor="end" x="1162.5" y="-53.3" font-family="Times,serif" font-size="14.00" fill="white"> GetTable </text>
<text text-anchor="end" x="1162.5" y="-38.3" font-family="Times,serif" font-size="14.00" fill="white"> Sort </text>
<text text-anchor="end" x="1162.5" y="-23.3" font-family="Times,serif" font-size="14.00" fill="white"> Alias </text>
<text text-anchor="end" x="1162.5" y="-8.3" font-family="Times,serif" font-size="14.00" fill="white">total</text>
<polyline fill="none" stroke="white" points="1170.5,-0.5 1170.5,-143.5 "/>
<text text-anchor="start" x="1178.5" y="-128.3" font-family="Times,serif" font-size="14.00" fill="white">1 s 419 ms </text>
<text text-anchor="start" x="1178.5" y="-113.3" font-family="Times,serif" font-size="14.00" fill="white"> 81 ms 716 µs </text>
<text text-anchor="start" x="1178.5" y="-98.3" font-family="Times,serif" font-size="14.00" fill="white"> 43 ms 643 µs </text>
<text text-anchor="start" x="1178.5" y="-83.3" font-family="Times,serif" font-size="14.00" fill="white"> 19 ms 598 µs </text>
<text text-anchor="start" x="1178.5" y="-68.3" font-family="Times,serif" font-size="14.00" fill="white"> 19 ms 501 µs </text>
<text text-anchor="start" x="1178.5" y="-53.3" font-family="Times,serif" font-size="14.00" fill="white"> 11 ms 192 µs </text>
<text text-anchor="start" x="1178.5" y="-38.3" font-family="Times,serif" font-size="14.00" fill="white"> 12 µs 353 ns </text>
<text text-anchor="start" x="1178.5" y="-23.3" font-family="Times,serif" font-size="14.00" fill="white"> 2 µs 916 ns </text>
<text text-anchor="start" x="1178.5" y="-8.3" font-family="Times,serif" font-size="14.00" fill="white"> 1 s 595 ms </text>
<polyline fill="none" stroke="white" points="1292.5,-0.5 1292.5,-143.5 "/>
<text text-anchor="start" x="1300.5" y="-128.3" font-family="Times,serif" font-size="14.00" fill="white">89 %</text>
<text text-anchor="start" x="1300.5" y="-113.3" font-family="Times,serif" font-size="14.00" fill="white">5 %</text>
<text text-anchor="start" x="1300.5" y="-98.3" font-family="Times,serif" font-size="14.00" fill="white">3 %</text>
<text text-anchor="start" x="1300.5" y="-83.3" font-family="Times,serif" font-size="14.00" fill="white">1 %</text>
<text text-anchor="start" x="1300.5" y="-68.3" font-family="Times,serif" font-size="14.00" fill="white">1 %</text>
<text text-anchor="start" x="1300.5" y="-53.3" font-family="Times,serif" font-size="14.00" fill="white">1 %</text>
<text text-anchor="start" x="1300.5" y="-38.3" font-family="Times,serif" font-size="14.00" fill="white">0 %</text>
<text text-anchor="start" x="1300.5" y="-23.3" font-family="Times,serif" font-size="14.00" fill="white">0 %</text>
<text text-anchor="start" x="1300.5" y="-8.3" font-family="Times,serif" font-size="14.00" fill="white"> </text>
</g>
</g>
</svg>
