<?xml version="1.0" encoding="UTF-8" standalone="no"?>
<!DOCTYPE svg PUBLIC "-//W3C//DTD SVG 1.1//EN"
 "http://www.w3.org/Graphics/SVG/1.1/DTD/svg11.dtd">
<!-- Generated by graphviz version 2.43.0 (0)
 -->
<!-- Title: G Pages: 1 -->
<svg width="848pt" height="1610pt"
 viewBox="0.00 0.00 848.00 1610.00" xmlns="http://www.w3.org/2000/svg" xmlns:xlink="http://www.w3.org/1999/xlink">
<g id="graph0" class="graph" transform="scale(1 1) rotate(0) translate(4 1606)">
<title>G</title>
<polygon fill="black" stroke="transparent" points="-4,4 -4,-1606 844,-1606 844,4 -4,4"/>
<text text-anchor="middle" x="319.5" y="-1586.8" font-family="Times,serif" font-size="14.00" fill="white">For tooltips with advanced information, hover your mouse over vertices or edge labels.</text>
<!-- 139639681683088 -->
<g id="node1" class="node">
<title>139639681683088</title>
<g id="a_node1"><a xlink:title="Output: 1 row in 1 chunk filtered: 0, 3 µs 178 ns.">
<polygon fill="none" stroke="white" points="259.5,-1547 155.5,-1547 155.5,-1478 259.5,-1478 259.5,-1547"/>
<text text-anchor="middle" x="207.5" y="-1531.8" font-family="Times,serif" font-size="14.00" fill="white">Alias</text>
<text text-anchor="middle" x="207.5" y="-1516.8" font-family="Times,serif" font-size="14.00" fill="white">[avg_yearly]</text>
<text text-anchor="middle" x="207.5" y="-1485.8" font-family="Times,serif" font-size="14.00" fill="white">3 µs 178 ns</text>
</a>
</g>
</g>
<!-- 139639681682768 -->
<g id="node2" class="node">
<title>139639681682768</title>
<g id="a_node2"><a xlink:title="Output: 1 row in 1 chunk filtered: 0, 43 µs 520 ns.&#10;Operator step runtimes:&#10; ForwardUnmodifiedColumns 1 µs 729 ns&#10; EvaluateNewColumns 19 µs 35 ns&#10; BuildOutput 17 µs 638 ns.">
<polygon fill="none" stroke="white" points="261.5,-1427 153.5,-1427 153.5,-1373 261.5,-1373 261.5,-1427"/>
<text text-anchor="middle" x="207.5" y="-1411.8" font-family="Times,serif" font-size="14.00" fill="white">Projection</text>
<text text-anchor="middle" x="207.5" y="-1380.8" font-family="Times,serif" font-size="14.00" fill="white">43 µs 520 ns</text>
</a>
</g>
</g>
<!-- 139639681682768&#45;&gt;139639681683088 -->
<g id="edge1" class="edge">
<title>139639681682768&#45;&gt;139639681683088</title>
<path fill="none" stroke="white" d="M207.5,-1427.19C207.5,-1439.29 207.5,-1454 207.5,-1467.72"/>
<polygon fill="white" stroke="white" points="204,-1467.95 207.5,-1477.95 211,-1467.96 204,-1467.95"/>
<text text-anchor="middle" x="276.5" y="-1448.8" font-family="Times,serif" font-size="14.00" fill="white">1 row(s)/1 chunk(s)</text>
</g>
<!-- 139650322627088 -->
<g id="node3" class="node">
<title>139650322627088</title>
<g id="a_node3"><a xlink:title="Output: 1 row in 1 chunk filtered: 0, 8 ms 267 µs.&#10;Operator step runtimes:&#10; GroupByKeyPartitioning 110 ns&#10; Aggregating 8 ms 234 µs&#10; GroupByColumnsWriting 609 ns&#10; AggregateColumnsWriting 16 µs 795 ns&#10; OutputWriting 7 µs 627 ns.">
<polygon fill="none" stroke="white" points="295.5,-1322 119.5,-1322 119.5,-1238 295.5,-1238 295.5,-1322"/>
<text text-anchor="middle" x="207.5" y="-1306.8" font-family="Times,serif" font-size="14.00" fill="white">AggregateHash</text>
<text text-anchor="middle" x="207.5" y="-1291.8" font-family="Times,serif" font-size="14.00" fill="white">GroupBy {}</text>
<text text-anchor="middle" x="207.5" y="-1276.8" font-family="Times,serif" font-size="14.00" fill="white">SUM(l_extendedprice)</text>
<text text-anchor="middle" x="207.5" y="-1245.8" font-family="Times,serif" font-size="14.00" fill="white">8 ms 267 µs</text>
</a>
</g>
</g>
<!-- 139650322627088&#45;&gt;139639681682768 -->
<g id="edge2" class="edge">
<title>139650322627088&#45;&gt;139639681682768</title>
<path fill="none" stroke="white" d="M207.5,-1322.27C207.5,-1335.36 207.5,-1349.72 207.5,-1362.45"/>
<polygon fill="white" stroke="white" points="204,-1362.69 207.5,-1372.69 211,-1362.69 204,-1362.69"/>
<text text-anchor="middle" x="276.5" y="-1343.8" font-family="Times,serif" font-size="14.00" fill="white">1 row(s)/1 chunk(s)</text>
</g>
<!-- 139639681682448 -->
<g id="node4" class="node">
<title>139639681682448</title>
<g id="a_node4"><a xlink:title="Output: 26507 rows in 51 chunks filtered: 0, 95 ms 855 µs.&#10;Operator step runtimes:&#10; BuildSideMaterializing 2 ms 595 µs&#10; ProbeSideMaterializing 21 ms 545 µs&#10; Clustering 0 ns&#10; Building 655 µs 736 ns&#10; Probing 68 ms 818 µs&#10; OutputWriting 1 ms 543 µs.&#10;Radix bits: 0.&#10;Build side is right.">
<polygon fill="none" stroke="white" stroke-width="5.77" points="356,-1187 59,-1187 59,-1103 356,-1103 356,-1187"/>
<text text-anchor="middle" x="207.5" y="-1171.8" font-family="Times,serif" font-size="14.00" fill="white">JoinHash (Semi)</text>
<text text-anchor="middle" x="207.5" y="-1156.8" font-family="Times,serif" font-size="14.00" fill="white">p_partkey = l_partkey</text>
<text text-anchor="middle" x="207.5" y="-1141.8" font-family="Times,serif" font-size="14.00" fill="white">AND l_quantity &lt; 0.2 * AVG(l_quantity)</text>
<text text-anchor="middle" x="207.5" y="-1110.8" font-family="Times,serif" font-size="14.00" fill="white">95 ms 855 µs</text>
</a>
</g>
</g>
<!-- 139639681682448&#45;&gt;139650322627088 -->
<g id="edge3" class="edge">
<title>139639681682448&#45;&gt;139650322627088</title>
<path fill="none" stroke="white" d="M207.5,-1187.35C207.5,-1200.11 207.5,-1214.32 207.5,-1227.67"/>
<polygon fill="white" stroke="white" points="204,-1227.67 207.5,-1237.67 211,-1227.67 204,-1227.67"/>
<text text-anchor="middle" x="301" y="-1208.8" font-family="Times,serif" font-size="14.00" fill="white">26,507 row(s)/51 chunk(s)</text>
</g>
<!-- 139639681681808 -->
<g id="node5" class="node">
<title>139639681681808</title>
<g id="a_node5"><a xlink:title="Output: 296893 rows in 558 chunks filtered: 0, 28 ms 636 µs.&#10;Operator step runtimes:&#10; BuildSideMaterializing 2 ms 151 µs&#10; ProbeSideMaterializing 18 ms 668 µs&#10; Clustering 0 ns&#10; Building 513 µs 429 ns&#10; Probing 2 ms 160 µs&#10; OutputWriting 4 ms 405 µs.&#10;Radix bits: 0.&#10;Build side is right.">
<polygon fill="none" stroke="white" stroke-width="2.79" points="407.5,-939.5 233.5,-939.5 233.5,-870.5 407.5,-870.5 407.5,-939.5"/>
<text text-anchor="middle" x="320.5" y="-924.3" font-family="Times,serif" font-size="14.00" fill="white">JoinHash (Inner)</text>
<text text-anchor="middle" x="320.5" y="-909.3" font-family="Times,serif" font-size="14.00" fill="white">l_partkey = p_partkey</text>
<text text-anchor="middle" x="320.5" y="-878.3" font-family="Times,serif" font-size="14.00" fill="white">28 ms 636 µs</text>
</a>
</g>
</g>
<!-- 139639681681808&#45;&gt;139639681682448 -->
<g id="edge4" class="edge">
<title>139639681681808&#45;&gt;139639681682448</title>
<path fill="none" stroke="white" d="M320.91,-939.6C319.87,-977.64 313.51,-1040.14 285.5,-1085 283.27,-1088.56 280.75,-1091.99 278.01,-1095.27"/>
<polygon fill="white" stroke="white" points="277.99,-1095.29 275.41,-1092.93 271.24,-1102.67 277.99,-1095.29"/>
<text text-anchor="middle" x="418" y="-1021.3" font-family="Times,serif" font-size="14.00" fill="white">296,893 row(s)/558 chunk(s)</text>
</g>
<!-- 139650322483216 -->
<g id="node6" class="node">
<title>139650322483216</title>
<g id="a_node6"><a xlink:title="Output: 296893 rows in 559 chunks filtered: 0, 4 ms 383 µs.">
<polygon fill="none" stroke="white" points="254.5,-812 150.5,-812 150.5,-758 254.5,-758 254.5,-812"/>
<text text-anchor="middle" x="202.5" y="-796.8" font-family="Times,serif" font-size="14.00" fill="white">Validate</text>
<text text-anchor="middle" x="202.5" y="-765.8" font-family="Times,serif" font-size="14.00" fill="white">4 ms 383 µs</text>
</a>
</g>
</g>
<!-- 139650322483216&#45;&gt;139639681681808 -->
<g id="edge5" class="edge">
<title>139650322483216&#45;&gt;139639681681808</title>
<path fill="none" stroke="white" d="M254.6,-800.5C270.58,-807.2 286.96,-816.71 298.5,-830 305.97,-838.6 310.9,-849.65 314.16,-860.57"/>
<polygon fill="white" stroke="white" points="314.22,-860.8 310.83,-861.67 316.71,-870.48 314.22,-860.8"/>
<text text-anchor="middle" x="411" y="-833.8" font-family="Times,serif" font-size="14.00" fill="white">296,893 row(s)/559 chunk(s)</text>
</g>
<!-- 139650322626576 -->
<g id="node14" class="node">
<title>139650322626576</title>
<g id="a_node14"><a xlink:title="Output: 9906 rows in 1 chunk filtered: 0, 60 ms 615 µs.&#10;Operator step runtimes:&#10; GroupByKeyPartitioning 34 ms 135 µs&#10; Aggregating 26 ms 253 µs&#10; GroupByColumnsWriting 89 µs 826 ns&#10; AggregateColumnsWriting 75 µs 922 ns&#10; OutputWriting 6 µs 779 ns.">
<polygon fill="none" stroke="white" stroke-width="4.64" points="196.5,-947 28.5,-947 28.5,-863 196.5,-863 196.5,-947"/>
<text text-anchor="middle" x="112.5" y="-931.8" font-family="Times,serif" font-size="14.00" fill="white">AggregateHash</text>
<text text-anchor="middle" x="112.5" y="-916.8" font-family="Times,serif" font-size="14.00" fill="white">GroupBy {l_partkey}</text>
<text text-anchor="middle" x="112.5" y="-901.8" font-family="Times,serif" font-size="14.00" fill="white">AVG(l_quantity)</text>
<text text-anchor="middle" x="112.5" y="-870.8" font-family="Times,serif" font-size="14.00" fill="white">60 ms 615 µs</text>
</a>
</g>
</g>
<!-- 139650322483216&#45;&gt;139650322626576 -->
<g id="edge6" class="edge">
<title>139650322483216&#45;&gt;139650322626576</title>
<path fill="none" stroke="white" d="M150.25,-794.04C128.95,-800.17 106.34,-810.97 93.5,-830 88.86,-836.88 87.62,-844.82 88.4,-852.88"/>
<polygon fill="white" stroke="white" points="84.96,-853.54 90.26,-862.72 91.84,-852.25 84.96,-853.54"/>
<text text-anchor="middle" x="196" y="-833.8" font-family="Times,serif" font-size="14.00" fill="white">296,893 row(s)/559 chunk(s)</text>
</g>
<!-- 139639681681168 -->
<g id="node7" class="node">
<title>139639681681168</title>
<g id="a_node7"><a xlink:title="Output: 296893 rows in 559 chunks filtered: 0, 236 ms 658 µs.&#10;Operator step runtimes:&#10; BuildSideMaterializing 2 ms 673 µs&#10; ProbeSideMaterializing 173 ms 907 µs&#10; Clustering 0 ns&#10; Building 263 µs 732 ns&#10; Probing 19 ms 37 µs&#10; OutputWriting 11 ms 611 µs.&#10;Radix bits: 0.&#10;Build side is right.">
<polygon fill="none" stroke="white" stroke-width="8" points="306.5,-707 98.5,-707 98.5,-638 306.5,-638 306.5,-707"/>
<text text-anchor="middle" x="202.5" y="-691.8" font-family="Times,serif" font-size="14.00" fill="white">JoinHash (Semi Reduction)</text>
<text text-anchor="middle" x="202.5" y="-676.8" font-family="Times,serif" font-size="14.00" fill="white">l_partkey = p_partkey</text>
<text text-anchor="middle" x="202.5" y="-645.8" font-family="Times,serif" font-size="14.00" fill="white">236 ms 658 µs</text>
</a>
</g>
</g>
<!-- 139639681681168&#45;&gt;139650322483216 -->
<g id="edge7" class="edge">
<title>139639681681168&#45;&gt;139650322483216</title>
<path fill="none" stroke="white" d="M202.5,-707.25C202.5,-720.07 202.5,-734.73 202.5,-747.77"/>
<polygon fill="white" stroke="white" points="199,-747.81 202.5,-757.81 206,-747.81 199,-747.81"/>
<text text-anchor="middle" x="305" y="-728.8" font-family="Times,serif" font-size="14.00" fill="white">296,893 row(s)/559 chunk(s)</text>
</g>
<!-- 139650337770704 -->
<g id="node8" class="node">
<title>139650337770704</title>
<g id="a_node8"><a xlink:title="Output: 300005811 rows in 4578 chunks filtered: 0, 6 ms 510 µs.">
<polygon fill="none" stroke="white" points="131,-587 0,-587 0,-473 131,-473 131,-587"/>
<text text-anchor="middle" x="65.5" y="-571.8" font-family="Times,serif" font-size="14.00" fill="white">GetTable</text>
<text text-anchor="middle" x="65.5" y="-556.8" font-family="Times,serif" font-size="14.00" fill="white">(lineitem)</text>
<text text-anchor="middle" x="65.5" y="-541.8" font-family="Times,serif" font-size="14.00" fill="white">pruned:</text>
<text text-anchor="middle" x="65.5" y="-526.8" font-family="Times,serif" font-size="14.00" fill="white">0/4578 chunk(s)</text>
<text text-anchor="middle" x="65.5" y="-511.8" font-family="Times,serif" font-size="14.00" fill="white">13/16 column(s)</text>
<text text-anchor="middle" x="65.5" y="-480.8" font-family="Times,serif" font-size="14.00" fill="white">6 ms 510 µs</text>
</a>
</g>
</g>
<!-- 139650337770704&#45;&gt;139639681681168 -->
<g id="edge8" class="edge">
<title>139650337770704&#45;&gt;139639681681168</title>
<path fill="none" stroke="white" stroke-width="8" d="M56.34,-587.31C57.03,-598.93 59.86,-610.5 66.5,-620 72.76,-628.95 80.78,-636.35 89.8,-642.46"/>
<polygon fill="white" stroke="white" stroke-width="8" points="89.82,-642.48 86.15,-648.44 98.34,-647.72 89.82,-642.48"/>
<text text-anchor="middle" x="191.5" y="-608.8" font-family="Times,serif" font-size="14.00" fill="white">300,005,811 row(s)/4,578 chunk(s)</text>
</g>
<!-- 139650317626640 -->
<g id="node9" class="node">
<title>139650317626640</title>
<g id="a_node9"><a xlink:title="Output: 9906 rows in 153 chunks filtered: 0, 595 µs 600 ns.">
<polygon fill="none" stroke="white" points="498,-557 381,-557 381,-503 498,-503 498,-557"/>
<text text-anchor="middle" x="439.5" y="-541.8" font-family="Times,serif" font-size="14.00" fill="white">Validate</text>
<text text-anchor="middle" x="439.5" y="-510.8" font-family="Times,serif" font-size="14.00" fill="white">595 µs 600 ns</text>
</a>
</g>
</g>
<!-- 139650317626640&#45;&gt;139639681681808 -->
<g id="edge10" class="edge">
<title>139650317626640&#45;&gt;139639681681808</title>
<path fill="none" stroke="white" d="M484.1,-557.11C500.63,-569.35 517.51,-585.56 526.5,-605 555.67,-668.11 943.16,-296.42 517.5,-845 493.74,-875.62 454.71,-890.88 417.63,-898.3"/>
<polygon fill="white" stroke="white" points="407.75,-900.11 418.22,-901.75 417.59,-898.31 407.75,-900.11"/>
<text text-anchor="middle" x="695" y="-728.8" font-family="Times,serif" font-size="14.00" fill="white">9,906 row(s)/153 chunk(s)</text>
</g>
<!-- 139650317626640&#45;&gt;139639681681168 -->
<g id="edge9" class="edge">
<title>139650317626640&#45;&gt;139639681681168</title>
<path fill="none" stroke="white" d="M405.13,-557.06C375.27,-579.49 334.12,-609.79 316.5,-620 308.48,-624.65 299.97,-629.18 291.35,-633.5"/>
<polygon fill="white" stroke="white" points="282.34,-637.92 292.86,-636.66 291.32,-633.51 282.34,-637.92"/>
<text text-anchor="middle" x="432" y="-608.8" font-family="Times,serif" font-size="14.00" fill="white">9,906 row(s)/153 chunk(s)</text>
</g>
<!-- 139639681679888 -->
<g id="node10" class="node">
<title>139639681679888</title>
<g id="a_node10"><a xlink:title="Output: 9906 rows in 153 chunks filtered: 0, 847 µs 909 ns.&#10;Chunks: 0 skipped with no results, &#10;0 skipped with all matching, 0 scanned using binary search.">
<polygon fill="none" stroke="white" points="527.5,-422 351.5,-422 351.5,-338 527.5,-338 527.5,-422"/>
<text text-anchor="middle" x="439.5" y="-406.8" font-family="Times,serif" font-size="14.00" fill="white">TableScan</text>
<text text-anchor="middle" x="439.5" y="-391.8" font-family="Times,serif" font-size="14.00" fill="white">Impl: ColumnVsValue</text>
<text text-anchor="middle" x="439.5" y="-376.8" font-family="Times,serif" font-size="14.00" fill="white">p_brand = &#39;Brand#33&#39;</text>
<text text-anchor="middle" x="439.5" y="-345.8" font-family="Times,serif" font-size="14.00" fill="white">847 µs 909 ns</text>
</a>
</g>
</g>
<!-- 139639681679888&#45;&gt;139650317626640 -->
<g id="edge11" class="edge">
<title>139639681679888&#45;&gt;139650317626640</title>
<path fill="none" stroke="white" d="M439.5,-422.23C439.5,-444.32 439.5,-471.31 439.5,-492.62"/>
<polygon fill="white" stroke="white" points="436,-492.88 439.5,-502.88 443,-492.88 436,-492.88"/>
<text text-anchor="middle" x="533" y="-443.8" font-family="Times,serif" font-size="14.00" fill="white">9,906 row(s)/153 chunk(s)</text>
</g>
<!-- 139639681680528 -->
<g id="node11" class="node">
<title>139639681680528</title>
<g id="a_node11"><a xlink:title="Output: 249146 rows in 153 chunks filtered: 0, 1 ms 411 µs.&#10;Chunks: 0 skipped with no results, &#10;0 skipped with all matching, 0 scanned using binary search.">
<polygon fill="none" stroke="white" points="548,-287 331,-287 331,-203 548,-203 548,-287"/>
<text text-anchor="middle" x="439.5" y="-271.8" font-family="Times,serif" font-size="14.00" fill="white">TableScan</text>
<text text-anchor="middle" x="439.5" y="-256.8" font-family="Times,serif" font-size="14.00" fill="white">Impl: ColumnVsValue</text>
<text text-anchor="middle" x="439.5" y="-241.8" font-family="Times,serif" font-size="14.00" fill="white">p_container = &#39;MED DRUM&#39;</text>
<text text-anchor="middle" x="439.5" y="-210.8" font-family="Times,serif" font-size="14.00" fill="white">1 ms 411 µs</text>
</a>
</g>
</g>
<!-- 139639681680528&#45;&gt;139639681679888 -->
<g id="edge12" class="edge">
<title>139639681680528&#45;&gt;139639681679888</title>
<path fill="none" stroke="white" d="M439.5,-287.35C439.5,-300.11 439.5,-314.32 439.5,-327.67"/>
<polygon fill="white" stroke="white" points="436,-327.67 439.5,-337.67 443,-327.67 436,-327.67"/>
<text text-anchor="middle" x="542" y="-308.8" font-family="Times,serif" font-size="14.00" fill="white">249,146 row(s)/153 chunk(s)</text>
</g>
<!-- 139650337770256 -->
<g id="node12" class="node">
<title>139650337770256</title>
<g id="a_node12"><a xlink:title="Output: 10000000 rows in 153 chunks filtered: 0, 624 µs 499 ns.">
<polygon fill="none" stroke="white" points="500.5,-133 378.5,-133 378.5,-19 500.5,-19 500.5,-133"/>
<text text-anchor="middle" x="439.5" y="-117.8" font-family="Times,serif" font-size="14.00" fill="white">GetTable</text>
<text text-anchor="middle" x="439.5" y="-102.8" font-family="Times,serif" font-size="14.00" fill="white">(part)</text>
<text text-anchor="middle" x="439.5" y="-87.8" font-family="Times,serif" font-size="14.00" fill="white">pruned:</text>
<text text-anchor="middle" x="439.5" y="-72.8" font-family="Times,serif" font-size="14.00" fill="white">0/153 chunk(s)</text>
<text text-anchor="middle" x="439.5" y="-57.8" font-family="Times,serif" font-size="14.00" fill="white">6/9 column(s)</text>
<text text-anchor="middle" x="439.5" y="-26.8" font-family="Times,serif" font-size="14.00" fill="white">624 µs 499 ns</text>
</a>
</g>
</g>
<!-- 139650337770256&#45;&gt;139639681680528 -->
<g id="edge13" class="edge">
<title>139650337770256&#45;&gt;139639681680528</title>
<path fill="none" stroke="white" d="M439.5,-133.07C439.5,-152.34 439.5,-173.8 439.5,-192.67"/>
<polygon fill="white" stroke="white" points="436,-192.86 439.5,-202.86 443,-192.86 436,-192.86"/>
<text text-anchor="middle" x="553.5" y="-173.8" font-family="Times,serif" font-size="14.00" fill="white">10,000,000 row(s)/153 chunk(s)</text>
</g>
<!-- 139639681682128 -->
<g id="node13" class="node">
<title>139639681682128</title>
<g id="a_node13"><a xlink:title="Output: 9906 rows in 1 chunk filtered: 0, 235 µs 949 ns.&#10;Operator step runtimes:&#10; ForwardUnmodifiedColumns 12 µs 543 ns&#10; EvaluateNewColumns 169 µs 12 ns&#10; BuildOutput 45 µs 79 ns.">
<polygon fill="none" stroke="white" points="174,-1052 57,-1052 57,-998 174,-998 174,-1052"/>
<text text-anchor="middle" x="115.5" y="-1036.8" font-family="Times,serif" font-size="14.00" fill="white">Projection</text>
<text text-anchor="middle" x="115.5" y="-1005.8" font-family="Times,serif" font-size="14.00" fill="white">235 µs 949 ns</text>
</a>
</g>
</g>
<!-- 139639681682128&#45;&gt;139639681682448 -->
<g id="edge14" class="edge">
<title>139639681682128&#45;&gt;139639681682448</title>
<path fill="none" stroke="white" d="M110.77,-1052.07C110.08,-1062.87 111.04,-1075.14 116.5,-1085 118.5,-1088.6 120.82,-1092.02 123.39,-1095.26"/>
<polygon fill="white" stroke="white" points="130.27,-1102.94 126.21,-1093.15 123.6,-1095.49 130.27,-1102.94"/>
<text text-anchor="middle" x="201" y="-1073.8" font-family="Times,serif" font-size="14.00" fill="white">9,906 row(s)/1 chunk(s)</text>
</g>
<!-- 139650322626576&#45;&gt;139639681682128 -->
<g id="edge15" class="edge">
<title>139650322626576&#45;&gt;139639681682128</title>
<path fill="none" stroke="white" d="M113.55,-947.27C113.88,-960.36 114.25,-974.72 114.57,-987.45"/>
<polygon fill="white" stroke="white" points="111.08,-987.79 114.83,-997.69 118.08,-987.61 111.08,-987.79"/>
<text text-anchor="middle" x="199" y="-968.8" font-family="Times,serif" font-size="14.00" fill="white">9,906 row(s)/1 chunk(s)</text>
</g>
<!-- 0 -->
<g id="node15" class="node">
<title>0</title>
<polygon fill="none" stroke="white" points="519,-0.5 519,-151.5 840,-151.5 840,-0.5 519,-0.5"/>
<text text-anchor="middle" x="679.5" y="-136.3" font-family="Times,serif" font-size="14.00" fill="white">Total by operator</text>
<polyline fill="none" stroke="white" points="519,-128.5 840,-128.5 "/>
<text text-anchor="end" x="648" y="-113.3" font-family="Times,serif" font-size="14.00" fill="white">JoinHash </text>
<text text-anchor="end" x="648" y="-98.3" font-family="Times,serif" font-size="14.00" fill="white"> AggregateHash </text>
<text text-anchor="end" x="648" y="-83.3" font-family="Times,serif" font-size="14.00" fill="white"> GetTable </text>
<text text-anchor="end" x="648" y="-68.3" font-family="Times,serif" font-size="14.00" fill="white"> Validate </text>
<text text-anchor="end" x="648" y="-53.3" font-family="Times,serif" font-size="14.00" fill="white"> TableScan </text>
<text text-anchor="end" x="648" y="-38.3" font-family="Times,serif" font-size="14.00" fill="white"> Projection </text>
<text text-anchor="end" x="648" y="-23.3" font-family="Times,serif" font-size="14.00" fill="white"> Alias </text>
<text text-anchor="end" x="648" y="-8.3" font-family="Times,serif" font-size="14.00" fill="white">total</text>
<polyline fill="none" stroke="white" points="656,-0.5 656,-128.5 "/>
<text text-anchor="start" x="664" y="-113.3" font-family="Times,serif" font-size="14.00" fill="white">361 ms 149 µs </text>
<text text-anchor="start" x="664" y="-98.3" font-family="Times,serif" font-size="14.00" fill="white"> 68 ms 882 µs </text>
<text text-anchor="start" x="664" y="-83.3" font-family="Times,serif" font-size="14.00" fill="white"> 7 ms 134 µs </text>
<text text-anchor="start" x="664" y="-68.3" font-family="Times,serif" font-size="14.00" fill="white"> 4 ms 979 µs </text>
<text text-anchor="start" x="664" y="-53.3" font-family="Times,serif" font-size="14.00" fill="white"> 2 ms 259 µs </text>
<text text-anchor="start" x="664" y="-38.3" font-family="Times,serif" font-size="14.00" fill="white"> 279 µs 469 ns </text>
<text text-anchor="start" x="664" y="-23.3" font-family="Times,serif" font-size="14.00" fill="white"> 3 µs 178 ns </text>
<text text-anchor="start" x="664" y="-8.3" font-family="Times,serif" font-size="14.00" fill="white"> 444 ms 685 µs </text>
<polyline fill="none" stroke="white" points="787,-0.5 787,-128.5 "/>
<text text-anchor="start" x="795" y="-113.3" font-family="Times,serif" font-size="14.00" fill="white">81 %</text>
<text text-anchor="start" x="795" y="-98.3" font-family="Times,serif" font-size="14.00" fill="white">15 %</text>
<text text-anchor="start" x="795" y="-83.3" font-family="Times,serif" font-size="14.00" fill="white">2 %</text>
<text text-anchor="start" x="795" y="-68.3" font-family="Times,serif" font-size="14.00" fill="white">1 %</text>
<text text-anchor="start" x="795" y="-53.3" font-family="Times,serif" font-size="14.00" fill="white">1 %</text>
<text text-anchor="start" x="795" y="-38.3" font-family="Times,serif" font-size="14.00" fill="white">0 %</text>
<text text-anchor="start" x="795" y="-23.3" font-family="Times,serif" font-size="14.00" fill="white">0 %</text>
<text text-anchor="start" x="795" y="-8.3" font-family="Times,serif" font-size="14.00" fill="white"> </text>
</g>
</g>
</svg>
