<?xml version="1.0" encoding="UTF-8" standalone="no"?>
<!DOCTYPE svg PUBLIC "-//W3C//DTD SVG 1.1//EN"
 "http://www.w3.org/Graphics/SVG/1.1/DTD/svg11.dtd">
<!-- Generated by graphviz version 2.43.0 (0)
 -->
<!-- Title: G Pages: 1 -->
<svg width="874pt" height="1370pt"
 viewBox="0.00 0.00 874.00 1370.00" xmlns="http://www.w3.org/2000/svg" xmlns:xlink="http://www.w3.org/1999/xlink">
<g id="graph0" class="graph" transform="scale(1 1) rotate(0) translate(4 1366)">
<title>G</title>
<polygon fill="black" stroke="transparent" points="-4,4 -4,-1366 870,-1366 870,4 -4,4"/>
<text text-anchor="middle" x="319.5" y="-1346.8" font-family="Times,serif" font-size="14.00" fill="white">For tooltips with advanced information, hover your mouse over vertices or edge labels.</text>
<!-- 139645557992336 -->
<g id="node1" class="node">
<title>139645557992336</title>
<g id="a_node1"><a xlink:title="Output: 5 rows in 1 chunk filtered: 0, 3 µs 364 ns.">
<polygon fill="none" stroke="white" points="589,-1307 362,-1307 362,-1238 589,-1238 589,-1307"/>
<text text-anchor="middle" x="475.5" y="-1291.8" font-family="Times,serif" font-size="14.00" fill="white">Alias</text>
<text text-anchor="middle" x="475.5" y="-1276.8" font-family="Times,serif" font-size="14.00" fill="white">[o_orderpriority, order_count]</text>
<text text-anchor="middle" x="475.5" y="-1245.8" font-family="Times,serif" font-size="14.00" fill="white">3 µs 364 ns</text>
</a>
</g>
</g>
<!-- 139645557992016 -->
<g id="node2" class="node">
<title>139645557992016</title>
<g id="a_node2"><a xlink:title="Output: 5 rows in 1 chunk filtered: 0, 21 µs 39 ns.&#10;Operator step runtimes:&#10; MaterializeSortColumns 6 µs 534 ns&#10; Sort 4 µs 701 ns&#10; TemporaryResultWriting 113 ns&#10; WriteOutput 7 µs 459 ns.">
<polygon fill="none" stroke="white" points="525,-1187 426,-1187 426,-1133 525,-1133 525,-1187"/>
<text text-anchor="middle" x="475.5" y="-1171.8" font-family="Times,serif" font-size="14.00" fill="white">Sort</text>
<text text-anchor="middle" x="475.5" y="-1140.8" font-family="Times,serif" font-size="14.00" fill="white">21 µs 39 ns</text>
</a>
</g>
</g>
<!-- 139645557992016&#45;&gt;139645557992336 -->
<g id="edge1" class="edge">
<title>139645557992016&#45;&gt;139645557992336</title>
<path fill="none" stroke="white" d="M475.5,-1187.19C475.5,-1199.29 475.5,-1214 475.5,-1227.72"/>
<polygon fill="white" stroke="white" points="472,-1227.95 475.5,-1237.95 479,-1227.96 472,-1227.95"/>
<text text-anchor="middle" x="544.5" y="-1208.8" font-family="Times,serif" font-size="14.00" fill="white">5 row(s)/1 chunk(s)</text>
</g>
<!-- 139645628704784 -->
<g id="node3" class="node">
<title>139645628704784</title>
<g id="a_node3"><a xlink:title="Output: 5 rows in 1 chunk filtered: 0, 376 ms 238 µs.&#10;Operator step runtimes:&#10; GroupByKeyPartitioning 359 ms 587 µs&#10; Aggregating 16 ms 598 µs&#10; GroupByColumnsWriting 8 µs 585 ns&#10; AggregateColumnsWriting 13 µs 580 ns&#10; OutputWriting 9 µs 868 ns.">
<polygon fill="none" stroke="white" stroke-width="6.17" points="580.5,-1082 370.5,-1082 370.5,-998 580.5,-998 580.5,-1082"/>
<text text-anchor="middle" x="475.5" y="-1066.8" font-family="Times,serif" font-size="14.00" fill="white">AggregateHash</text>
<text text-anchor="middle" x="475.5" y="-1051.8" font-family="Times,serif" font-size="14.00" fill="white">GroupBy {o_orderpriority}</text>
<text text-anchor="middle" x="475.5" y="-1036.8" font-family="Times,serif" font-size="14.00" fill="white">COUNT(*)</text>
<text text-anchor="middle" x="475.5" y="-1005.8" font-family="Times,serif" font-size="14.00" fill="white">376 ms 238 µs</text>
</a>
</g>
</g>
<!-- 139645628704784&#45;&gt;139645557992016 -->
<g id="edge2" class="edge">
<title>139645628704784&#45;&gt;139645557992016</title>
<path fill="none" stroke="white" d="M475.5,-1082.27C475.5,-1095.36 475.5,-1109.72 475.5,-1122.45"/>
<polygon fill="white" stroke="white" points="472,-1122.69 475.5,-1132.69 479,-1122.69 472,-1122.69"/>
<text text-anchor="middle" x="544.5" y="-1103.8" font-family="Times,serif" font-size="14.00" fill="white">5 row(s)/1 chunk(s)</text>
</g>
<!-- 139645557991696 -->
<g id="node4" class="node">
<title>139645557991696</title>
<g id="a_node4"><a xlink:title="Output: 2630284 rows in 16 chunks filtered: 0, 219 ms 156 µs.&#10;Operator step runtimes:&#10; BuildSideMaterializing 92 ms 32 µs&#10; ProbeSideMaterializing 45 ms 553 µs&#10; Clustering 33 ms 864 µs&#10; Building 32 ms 423 µs&#10; Probing 8 ms 455 µs&#10; OutputWriting 6 ms 461 µs.&#10;Radix bits: 6.&#10;Build side is right.">
<polygon fill="none" stroke="white" stroke-width="4.84" points="571,-947 380,-947 380,-878 571,-878 571,-947"/>
<text text-anchor="middle" x="475.5" y="-931.8" font-family="Times,serif" font-size="14.00" fill="white">JoinHash (Semi)</text>
<text text-anchor="middle" x="475.5" y="-916.8" font-family="Times,serif" font-size="14.00" fill="white">o_orderkey = l_orderkey</text>
<text text-anchor="middle" x="475.5" y="-885.8" font-family="Times,serif" font-size="14.00" fill="white">219 ms 156 µs</text>
</a>
</g>
</g>
<!-- 139645557991696&#45;&gt;139645628704784 -->
<g id="edge3" class="edge">
<title>139645557991696&#45;&gt;139645628704784</title>
<path fill="none" stroke="white" d="M475.5,-947.13C475.5,-959.51 475.5,-973.84 475.5,-987.44"/>
<polygon fill="white" stroke="white" points="472,-987.65 475.5,-997.65 479,-987.65 472,-987.65"/>
<text text-anchor="middle" x="580.5" y="-968.8" font-family="Times,serif" font-size="14.00" fill="white">2,630,284 row(s)/16 chunk(s)</text>
</g>
<!-- 139645638597392 -->
<g id="node5" class="node">
<title>139645638597392</title>
<g id="a_node5"><a xlink:title="Output: 2868394 rows in 1145 chunks filtered: 0, 2 ms 746 µs.">
<polygon fill="none" stroke="white" points="513.5,-437 409.5,-437 409.5,-383 513.5,-383 513.5,-437"/>
<text text-anchor="middle" x="461.5" y="-421.8" font-family="Times,serif" font-size="14.00" fill="white">Validate</text>
<text text-anchor="middle" x="461.5" y="-390.8" font-family="Times,serif" font-size="14.00" fill="white">2 ms 746 µs</text>
</a>
</g>
</g>
<!-- 139645638597392&#45;&gt;139645557991696 -->
<g id="edge4" class="edge">
<title>139645638597392&#45;&gt;139645557991696</title>
<path fill="none" stroke="white" d="M513.65,-434.94C534.64,-447.09 557.22,-463.81 571.5,-485 588.38,-510.05 585.5,-521.3 585.5,-551.5 585.5,-551.5 585.5,-551.5 585.5,-786 585.5,-819.47 591.29,-833.01 571.5,-860 568.58,-863.98 565.25,-867.69 561.64,-871.14"/>
<polygon fill="white" stroke="white" points="561.42,-871.32 559.14,-868.67 553.84,-877.85 561.42,-871.32"/>
<text text-anchor="middle" x="701.5" y="-661.3" font-family="Times,serif" font-size="14.00" fill="white">2,868,394 row(s)/1,145 chunk(s)</text>
</g>
<!-- 139645557991056 -->
<g id="node10" class="node">
<title>139645557991056</title>
<g id="a_node10"><a xlink:title="Output: 11470890 rows in 8 chunks filtered: 0, 789 ms 727 µs.&#10;Operator step runtimes:&#10; BuildSideMaterializing 43 ms 776 µs&#10; ProbeSideMaterializing 205 ms 772 µs&#10; Clustering 160 ms 115 µs&#10; Building 9 ms 880 µs&#10; Probing 363 ms 418 µs&#10; OutputWriting 76 µs 616 ns.&#10;Radix bits: 5.&#10;Build side is right.">
<polygon fill="none" stroke="white" stroke-width="8" points="442.5,-587 234.5,-587 234.5,-518 442.5,-518 442.5,-587"/>
<text text-anchor="middle" x="338.5" y="-571.8" font-family="Times,serif" font-size="14.00" fill="white">JoinHash (Semi Reduction)</text>
<text text-anchor="middle" x="338.5" y="-556.8" font-family="Times,serif" font-size="14.00" fill="white">l_orderkey = o_orderkey</text>
<text text-anchor="middle" x="338.5" y="-525.8" font-family="Times,serif" font-size="14.00" fill="white">789 ms 727 µs</text>
</a>
</g>
</g>
<!-- 139645638597392&#45;&gt;139645557991056 -->
<g id="edge5" class="edge">
<title>139645638597392&#45;&gt;139645557991056</title>
<path fill="none" stroke="white" d="M409.19,-428.76C383.4,-440.45 354.65,-458.56 339.5,-485 335.54,-491.9 333.65,-499.91 332.98,-507.92"/>
<polygon fill="white" stroke="white" points="332.74,-517.99 336.48,-508.08 332.98,-508 332.74,-517.99"/>
<text text-anchor="middle" x="455.5" y="-488.8" font-family="Times,serif" font-size="14.00" fill="white">2,868,394 row(s)/1,145 chunk(s)</text>
</g>
<!-- 139645557990416 -->
<g id="node6" class="node">
<title>139645557990416</title>
<g id="a_node6"><a xlink:title="Output: 2868394 rows in 1145 chunks filtered: 0, 8 ms 397 µs.&#10;Chunks: 0 skipped with no results, &#10;0 skipped with all matching, 0 scanned using binary search.">
<polygon fill="none" stroke="white" points="674,-302 249,-302 249,-203 674,-203 674,-302"/>
<text text-anchor="middle" x="461.5" y="-286.8" font-family="Times,serif" font-size="14.00" fill="white">TableScan</text>
<text text-anchor="middle" x="461.5" y="-271.8" font-family="Times,serif" font-size="14.00" fill="white">Impl: ColumnBetween</text>
<text text-anchor="middle" x="461.5" y="-256.8" font-family="Times,serif" font-size="14.00" fill="white">o_orderdate BETWEEN UPPER EXCLUSIVE &#39;1996&#45;03&#45;01&#39;</text>
<text text-anchor="middle" x="461.5" y="-241.8" font-family="Times,serif" font-size="14.00" fill="white">AND &#39;1996&#45;06&#45;01&#39;</text>
<text text-anchor="middle" x="461.5" y="-210.8" font-family="Times,serif" font-size="14.00" fill="white">8 ms 397 µs</text>
</a>
</g>
</g>
<!-- 139645557990416&#45;&gt;139645638597392 -->
<g id="edge6" class="edge">
<title>139645557990416&#45;&gt;139645638597392</title>
<path fill="none" stroke="white" d="M461.5,-302.27C461.5,-324.98 461.5,-351.53 461.5,-372.47"/>
<polygon fill="white" stroke="white" points="458,-372.56 461.5,-382.56 465,-372.56 458,-372.56"/>
<text text-anchor="middle" x="577.5" y="-323.8" font-family="Times,serif" font-size="14.00" fill="white">2,868,394 row(s)/1,145 chunk(s)</text>
</g>
<!-- 139645637865936 -->
<g id="node7" class="node">
<title>139645637865936</title>
<g id="a_node7"><a xlink:title="Output: 75000000 rows in 1145 chunks filtered: 0, 3 ms 682 µs.">
<polygon fill="none" stroke="white" points="527,-133 396,-133 396,-19 527,-19 527,-133"/>
<text text-anchor="middle" x="461.5" y="-117.8" font-family="Times,serif" font-size="14.00" fill="white">GetTable</text>
<text text-anchor="middle" x="461.5" y="-102.8" font-family="Times,serif" font-size="14.00" fill="white">(orders)</text>
<text text-anchor="middle" x="461.5" y="-87.8" font-family="Times,serif" font-size="14.00" fill="white">pruned:</text>
<text text-anchor="middle" x="461.5" y="-72.8" font-family="Times,serif" font-size="14.00" fill="white">0/1145 chunk(s)</text>
<text text-anchor="middle" x="461.5" y="-57.8" font-family="Times,serif" font-size="14.00" fill="white">6/9 column(s)</text>
<text text-anchor="middle" x="461.5" y="-26.8" font-family="Times,serif" font-size="14.00" fill="white">3 ms 682 µs</text>
</a>
</g>
</g>
<!-- 139645637865936&#45;&gt;139645557990416 -->
<g id="edge7" class="edge">
<title>139645637865936&#45;&gt;139645557990416</title>
<path fill="none" stroke="white" stroke-width="4.58" d="M461.5,-133.17C461.5,-152.18 461.5,-173.44 461.5,-192.64"/>
<polygon fill="white" stroke="white" stroke-width="4.58" points="457.49,-192.77 461.5,-202.77 465.51,-192.77 457.49,-192.77"/>
<text text-anchor="middle" x="582" y="-173.8" font-family="Times,serif" font-size="14.00" fill="white">75,000,000 row(s)/1,145 chunk(s)</text>
</g>
<!-- 139645557991376 -->
<g id="node8" class="node">
<title>139645557991376</title>
<g id="a_node8"><a xlink:title="Output: 7251825 rows in 8 chunks filtered: 0, 276 ms 737 µs.&#10;Chunks: 0 skipped with no results, &#10;0 skipped with all matching, 0 scanned using binary search.">
<polygon fill="none" stroke="white" stroke-width="5.41" points="477,-827 250,-827 250,-743 477,-743 477,-827"/>
<text text-anchor="middle" x="363.5" y="-811.8" font-family="Times,serif" font-size="14.00" fill="white">TableScan</text>
<text text-anchor="middle" x="363.5" y="-796.8" font-family="Times,serif" font-size="14.00" fill="white">Impl: ColumnVsColumn</text>
<text text-anchor="middle" x="363.5" y="-781.8" font-family="Times,serif" font-size="14.00" fill="white">l_commitdate &lt; l_receiptdate</text>
<text text-anchor="middle" x="363.5" y="-750.8" font-family="Times,serif" font-size="14.00" fill="white">276 ms 737 µs</text>
</a>
</g>
</g>
<!-- 139645557991376&#45;&gt;139645557991696 -->
<g id="edge8" class="edge">
<title>139645557991376&#45;&gt;139645557991696</title>
<path fill="none" stroke="white" d="M360.22,-827.32C361.14,-838.73 363.97,-850.55 370.5,-860 373.17,-863.86 376.21,-867.45 379.54,-870.77"/>
<polygon fill="white" stroke="white" points="387.25,-877.65 382.12,-868.38 379.79,-870.99 387.25,-877.65"/>
<text text-anchor="middle" x="471" y="-848.8" font-family="Times,serif" font-size="14.00" fill="white">7,251,825 row(s)/8 chunk(s)</text>
</g>
<!-- 139645638597648 -->
<g id="node9" class="node">
<title>139645638597648</title>
<g id="a_node9"><a xlink:title="Output: 11470890 rows in 8 chunks filtered: 0, 16 ms 406 µs.">
<polygon fill="none" stroke="white" points="417,-692 304,-692 304,-638 417,-638 417,-692"/>
<text text-anchor="middle" x="360.5" y="-676.8" font-family="Times,serif" font-size="14.00" fill="white">Validate</text>
<text text-anchor="middle" x="360.5" y="-645.8" font-family="Times,serif" font-size="14.00" fill="white">16 ms 406 µs</text>
</a>
</g>
</g>
<!-- 139645638597648&#45;&gt;139645557991376 -->
<g id="edge9" class="edge">
<title>139645638597648&#45;&gt;139645557991376</title>
<path fill="none" stroke="white" d="M360.85,-692.14C361.01,-702.39 361.23,-714.25 361.5,-725 361.56,-727.51 361.63,-730.08 361.71,-732.68"/>
<polygon fill="white" stroke="white" points="358.21,-732.85 362.01,-742.74 365.21,-732.64 358.21,-732.85"/>
<text text-anchor="middle" x="466.5" y="-713.8" font-family="Times,serif" font-size="14.00" fill="white">11,470,890 row(s)/8 chunk(s)</text>
</g>
<!-- 139645557991056&#45;&gt;139645638597648 -->
<g id="edge10" class="edge">
<title>139645557991056&#45;&gt;139645638597648</title>
<path fill="none" stroke="white" d="M345.22,-587.25C347.77,-600.07 350.69,-614.73 353.29,-627.77"/>
<polygon fill="white" stroke="white" points="349.9,-628.69 355.29,-637.81 356.77,-627.32 349.9,-628.69"/>
<text text-anchor="middle" x="455.5" y="-608.8" font-family="Times,serif" font-size="14.00" fill="white">11,470,890 row(s)/8 chunk(s)</text>
</g>
<!-- 139645637866384 -->
<g id="node11" class="node">
<title>139645637866384</title>
<g id="a_node11"><a xlink:title="Output: 300005811 rows in 4578 chunks filtered: 0, 19 ms 354 µs.">
<polygon fill="none" stroke="white" points="131,-467 0,-467 0,-353 131,-353 131,-467"/>
<text text-anchor="middle" x="65.5" y="-451.8" font-family="Times,serif" font-size="14.00" fill="white">GetTable</text>
<text text-anchor="middle" x="65.5" y="-436.8" font-family="Times,serif" font-size="14.00" fill="white">(lineitem)</text>
<text text-anchor="middle" x="65.5" y="-421.8" font-family="Times,serif" font-size="14.00" fill="white">pruned:</text>
<text text-anchor="middle" x="65.5" y="-406.8" font-family="Times,serif" font-size="14.00" fill="white">0/4578 chunk(s)</text>
<text text-anchor="middle" x="65.5" y="-391.8" font-family="Times,serif" font-size="14.00" fill="white">13/16 column(s)</text>
<text text-anchor="middle" x="65.5" y="-360.8" font-family="Times,serif" font-size="14.00" fill="white">19 ms 354 µs</text>
</a>
</g>
</g>
<!-- 139645637866384&#45;&gt;139645557991056 -->
<g id="edge11" class="edge">
<title>139645637866384&#45;&gt;139645557991056</title>
<path fill="none" stroke="white" stroke-width="8" d="M64.05,-467.02C66.33,-479.2 70.94,-491.09 79.5,-500 99.8,-521.14 164.43,-534.01 224.04,-541.59"/>
<polygon fill="white" stroke="white" stroke-width="8" points="224.4,-541.64 223.55,-548.59 234.33,-542.86 224.4,-541.64"/>
<text text-anchor="middle" x="204.5" y="-488.8" font-family="Times,serif" font-size="14.00" fill="white">300,005,811 row(s)/4,578 chunk(s)</text>
</g>
<!-- 0 -->
<g id="node12" class="node">
<title>0</title>
<polygon fill="none" stroke="white" points="545,-0.5 545,-151.5 866,-151.5 866,-0.5 545,-0.5"/>
<text text-anchor="middle" x="705.5" y="-136.3" font-family="Times,serif" font-size="14.00" fill="white">Total by operator</text>
<polyline fill="none" stroke="white" points="545,-128.5 866,-128.5 "/>
<text text-anchor="end" x="674" y="-113.3" font-family="Times,serif" font-size="14.00" fill="white">JoinHash </text>
<text text-anchor="end" x="674" y="-98.3" font-family="Times,serif" font-size="14.00" fill="white"> AggregateHash </text>
<text text-anchor="end" x="674" y="-83.3" font-family="Times,serif" font-size="14.00" fill="white"> TableScan </text>
<text text-anchor="end" x="674" y="-68.3" font-family="Times,serif" font-size="14.00" fill="white"> GetTable </text>
<text text-anchor="end" x="674" y="-53.3" font-family="Times,serif" font-size="14.00" fill="white"> Validate </text>
<text text-anchor="end" x="674" y="-38.3" font-family="Times,serif" font-size="14.00" fill="white"> Sort </text>
<text text-anchor="end" x="674" y="-23.3" font-family="Times,serif" font-size="14.00" fill="white"> Alias </text>
<text text-anchor="end" x="674" y="-8.3" font-family="Times,serif" font-size="14.00" fill="white">total</text>
<polyline fill="none" stroke="white" points="682,-0.5 682,-128.5 "/>
<text text-anchor="start" x="690" y="-113.3" font-family="Times,serif" font-size="14.00" fill="white">1 s 9 ms </text>
<text text-anchor="start" x="690" y="-98.3" font-family="Times,serif" font-size="14.00" fill="white"> 376 ms 238 µs </text>
<text text-anchor="start" x="690" y="-83.3" font-family="Times,serif" font-size="14.00" fill="white"> 285 ms 134 µs </text>
<text text-anchor="start" x="690" y="-68.3" font-family="Times,serif" font-size="14.00" fill="white"> 23 ms 36 µs </text>
<text text-anchor="start" x="690" y="-53.3" font-family="Times,serif" font-size="14.00" fill="white"> 19 ms 152 µs </text>
<text text-anchor="start" x="690" y="-38.3" font-family="Times,serif" font-size="14.00" fill="white"> 21 µs 39 ns </text>
<text text-anchor="start" x="690" y="-23.3" font-family="Times,serif" font-size="14.00" fill="white"> 3 µs 364 ns </text>
<text text-anchor="start" x="690" y="-8.3" font-family="Times,serif" font-size="14.00" fill="white"> 1 s 712 ms </text>
<polyline fill="none" stroke="white" points="813,-0.5 813,-128.5 "/>
<text text-anchor="start" x="821" y="-113.3" font-family="Times,serif" font-size="14.00" fill="white">59 %</text>
<text text-anchor="start" x="821" y="-98.3" font-family="Times,serif" font-size="14.00" fill="white">22 %</text>
<text text-anchor="start" x="821" y="-83.3" font-family="Times,serif" font-size="14.00" fill="white">17 %</text>
<text text-anchor="start" x="821" y="-68.3" font-family="Times,serif" font-size="14.00" fill="white">1 %</text>
<text text-anchor="start" x="821" y="-53.3" font-family="Times,serif" font-size="14.00" fill="white">1 %</text>
<text text-anchor="start" x="821" y="-38.3" font-family="Times,serif" font-size="14.00" fill="white">0 %</text>
<text text-anchor="start" x="821" y="-23.3" font-family="Times,serif" font-size="14.00" fill="white">0 %</text>
<text text-anchor="start" x="821" y="-8.3" font-family="Times,serif" font-size="14.00" fill="white"> </text>
</g>
</g>
</svg>
