<?xml version="1.0" encoding="UTF-8" standalone="no"?>
<!DOCTYPE svg PUBLIC "-//W3C//DTD SVG 1.1//EN"
 "http://www.w3.org/Graphics/SVG/1.1/DTD/svg11.dtd">
<!-- Generated by graphviz version 2.43.0 (0)
 -->
<!-- Title: G Pages: 1 -->
<svg width="759pt" height="807pt"
 viewBox="0.00 0.00 759.00 807.00" xmlns="http://www.w3.org/2000/svg" xmlns:xlink="http://www.w3.org/1999/xlink">
<g id="graph0" class="graph" transform="scale(1 1) rotate(0) translate(4 803)">
<title>G</title>
<polygon fill="black" stroke="transparent" points="-4,4 -4,-803 755,-803 755,4 -4,4"/>
<text text-anchor="middle" x="319.5" y="-783.8" font-family="Times,serif" font-size="14.00" fill="white">For tooltips with advanced information, hover your mouse over vertices or edge labels.</text>
<!-- 140435708236112 -->
<g id="node1" class="node">
<title>140435708236112</title>
<polygon fill="none" stroke="white" points="508,-744 110,-744 110,-706 508,-706 508,-744"/>
<text text-anchor="middle" x="309" y="-728.8" font-family="Times,serif" font-size="14.00" fill="white">[Alias] COUNT(o_orderkey) AS c_count, COUNT(*) AS</text>
<text text-anchor="middle" x="309" y="-713.8" font-family="Times,serif" font-size="14.00" fill="white">custdist</text>
</g>
<!-- 140435708235920 -->
<g id="node2" class="node">
<title>140435708235920</title>
<polygon fill="none" stroke="white" points="502,-655 116,-655 116,-617 502,-617 502,-655"/>
<text text-anchor="middle" x="309" y="-639.8" font-family="Times,serif" font-size="14.00" fill="white">[Sort] COUNT(*) (Descending), COUNT(o_orderkey)</text>
<text text-anchor="middle" x="309" y="-624.8" font-family="Times,serif" font-size="14.00" fill="white">(Descending)</text>
</g>
<!-- 140435708235920&#45;&gt;140435708236112 -->
<g id="edge1" class="edge">
<title>140435708235920&#45;&gt;140435708236112</title>
<path fill="none" stroke="white" stroke-width="7.74" d="M309,-655.03C309,-666.81 309,-682.44 309,-695.84"/>
<polygon fill="white" stroke="white" stroke-width="7.74" points="302.23,-696 309,-706 315.77,-696 302.23,-696"/>
<g id="a_edge1&#45;label"><a xlink:title="Output Expressions: &#10; (1) COUNT(o_orderkey)&#10; (2) COUNT(*)&#10;&#10;Unique Column Combinations: &#10; (1) {COUNT(o_orderkey)}&#10;&#10;Functional Dependencies (trivial): &#10; (1) {COUNT(o_orderkey)} =&gt; {COUNT(*)}&#10;&#10;Functional Dependencies (non&#45;trivial): &#10; &lt;none&gt;">
<text text-anchor="middle" x="437" y="-676.8" font-family="Times,serif" font-size="14.00" fill="white"> 67,499,984.0 row(s) | 100.0% estd.</text>
</a>
</g>
</g>
<!-- 140435708235728 -->
<g id="node3" class="node">
<title>140435708235728</title>
<polygon fill="none" stroke="white" points="475,-566 143,-566 143,-528 475,-528 475,-566"/>
<text text-anchor="middle" x="309" y="-550.8" font-family="Times,serif" font-size="14.00" fill="white">[Aggregate] GroupBy: [COUNT(o_orderkey)]</text>
<text text-anchor="middle" x="309" y="-535.8" font-family="Times,serif" font-size="14.00" fill="white">Aggregates: [COUNT(*)]</text>
</g>
<!-- 140435708235728&#45;&gt;140435708235920 -->
<g id="edge2" class="edge">
<title>140435708235728&#45;&gt;140435708235920</title>
<path fill="none" stroke="white" stroke-width="7.74" d="M309,-566.03C309,-577.81 309,-593.44 309,-606.84"/>
<polygon fill="white" stroke="white" stroke-width="7.74" points="302.23,-607 309,-617 315.77,-607 302.23,-607"/>
<g id="a_edge2&#45;label"><a xlink:title="Output Expressions: &#10; (1) COUNT(o_orderkey)&#10; (2) COUNT(*)&#10;&#10;Unique Column Combinations: &#10; (1) {COUNT(o_orderkey)}&#10;&#10;Functional Dependencies (trivial): &#10; (1) {COUNT(o_orderkey)} =&gt; {COUNT(*)}&#10;&#10;Functional Dependencies (non&#45;trivial): &#10; &lt;none&gt;">
<text text-anchor="middle" x="437" y="-587.8" font-family="Times,serif" font-size="14.00" fill="white"> 67,499,984.0 row(s) | 100.0% estd.</text>
</a>
</g>
</g>
<!-- 140435708234768 -->
<g id="node4" class="node">
<title>140435708234768</title>
<polygon fill="none" stroke="white" points="493,-477 125,-477 125,-441 493,-441 493,-477"/>
<text text-anchor="middle" x="309" y="-455.3" font-family="Times,serif" font-size="14.00" fill="white">[Alias] c_custkey, COUNT(o_orderkey) AS c_count</text>
</g>
<!-- 140435708234768&#45;&gt;140435708235728 -->
<g id="edge3" class="edge">
<title>140435708234768&#45;&gt;140435708235728</title>
<path fill="none" stroke="white" stroke-width="7.74" d="M309,-477.4C309,-488.94 309,-504.35 309,-517.64"/>
<polygon fill="white" stroke="white" stroke-width="7.74" points="302.23,-517.73 309,-527.73 315.77,-517.73 302.23,-517.73"/>
<g id="a_edge3&#45;label"><a xlink:title="Output Expressions: &#10; (1) c_custkey&#10; (2) COUNT(o_orderkey)&#10;&#10;Unique Column Combinations: &#10; (1) {c_custkey}&#10;&#10;Functional Dependencies (trivial): &#10; (1) {c_custkey} =&gt; {COUNT(o_orderkey)}&#10;&#10;Functional Dependencies (non&#45;trivial): &#10; &lt;none&gt;">
<text text-anchor="middle" x="437" y="-498.8" font-family="Times,serif" font-size="14.00" fill="white"> 67,499,984.0 row(s) | 100.0% estd.</text>
</a>
</g>
</g>
<!-- 140435708235344 -->
<g id="node5" class="node">
<title>140435708235344</title>
<polygon fill="none" stroke="white" points="483,-390 135,-390 135,-352 483,-352 483,-390"/>
<text text-anchor="middle" x="309" y="-374.8" font-family="Times,serif" font-size="14.00" fill="white">[Aggregate] GroupBy: [c_custkey] Aggregates:</text>
<text text-anchor="middle" x="309" y="-359.8" font-family="Times,serif" font-size="14.00" fill="white">[COUNT(o_orderkey)]</text>
</g>
<!-- 140435708235344&#45;&gt;140435708234768 -->
<g id="edge4" class="edge">
<title>140435708235344&#45;&gt;140435708234768</title>
<path fill="none" stroke="white" stroke-width="7.74" d="M309,-390.24C309,-402.07 309,-417.68 309,-430.95"/>
<polygon fill="white" stroke="white" stroke-width="7.74" points="302.23,-430.96 309,-440.96 315.77,-430.96 302.23,-430.96"/>
<g id="a_edge4&#45;label"><a xlink:title="Output Expressions: &#10; (1) c_custkey&#10; (2) COUNT(o_orderkey)&#10;&#10;Unique Column Combinations: &#10; (1) {c_custkey}&#10;&#10;Functional Dependencies (trivial): &#10; (1) {c_custkey} =&gt; {COUNT(o_orderkey)}&#10;&#10;Functional Dependencies (non&#45;trivial): &#10; &lt;none&gt;">
<text text-anchor="middle" x="437" y="-411.8" font-family="Times,serif" font-size="14.00" fill="white"> 67,499,984.0 row(s) | 100.0% estd.</text>
</a>
</g>
</g>
<!-- 140435343742800 -->
<g id="node6" class="node">
<title>140435343742800</title>
<polygon fill="none" stroke="white" points="464.5,-301 153.5,-301 153.5,-265 464.5,-265 464.5,-301"/>
<text text-anchor="middle" x="309" y="-279.3" font-family="Times,serif" font-size="14.00" fill="white">[Join] Mode: Left [c_custkey = o_custkey]</text>
</g>
<!-- 140435343742800&#45;&gt;140435708235344 -->
<g id="edge5" class="edge">
<title>140435343742800&#45;&gt;140435708235344</title>
<path fill="none" stroke="white" stroke-width="7.74" d="M309,-301.4C309,-312.94 309,-328.35 309,-341.64"/>
<polygon fill="white" stroke="white" stroke-width="7.74" points="302.23,-341.73 309,-351.73 315.77,-341.73 302.23,-341.73"/>
<g id="a_edge5&#45;label"><a xlink:title="Output Expressions: &#10; (1) c_custkey&#10; (2) o_orderkey NULL&#10; (3) o_custkey NULL&#10; (4) o_comment NULL&#10;&#10;Unique Column Combinations: &#10; (1) {o_orderkey}&#10;&#10;Functional Dependencies (trivial): &#10; &lt;none&gt;&#10;&#10;Functional Dependencies (non&#45;trivial): &#10; &lt;none&gt;">
<text text-anchor="middle" x="428" y="-322.8" font-family="Times,serif" font-size="14.00" fill="white"> 67,499,984.0 row(s) | 0.0% estd.</text>
</a>
</g>
</g>
<!-- 140366983581872 -->
<g id="node7" class="node">
<title>140366983581872</title>
<polygon fill="none" stroke="white" points="216.5,-214 131.5,-214 131.5,-178 216.5,-178 216.5,-214"/>
<text text-anchor="middle" x="174" y="-192.3" font-family="Times,serif" font-size="14.00" fill="white">[Validate]</text>
</g>
<!-- 140366983581872&#45;&gt;140435343742800 -->
<g id="edge6" class="edge">
<title>140366983581872&#45;&gt;140435343742800</title>
<path fill="none" stroke="white" stroke-width="2.32" d="M174.33,-214.38C175.44,-225.1 178.61,-238.4 187,-247 191.86,-251.98 197.37,-256.27 203.31,-259.95"/>
<polygon fill="white" stroke="white" stroke-width="2.32" points="203.54,-260.08 201.84,-263.14 212.29,-264.93 203.54,-260.08"/>
<g id="a_edge6&#45;label"><a xlink:title="Output Expressions: &#10; (1) c_custkey&#10;&#10;Unique Column Combinations: &#10; (1) {c_custkey}&#10;&#10;Functional Dependencies (trivial): &#10; &lt;none&gt;&#10;&#10;Functional Dependencies (non&#45;trivial): &#10; &lt;none&gt;">
<text text-anchor="middle" x="310.5" y="-235.8" font-family="Times,serif" font-size="14.00" fill="white"> 7,500,000.0 row(s) | 100.0% estd.</text>
</a>
</g>
</g>
<!-- 140366690232208 -->
<g id="node8" class="node">
<title>140366690232208</title>
<polygon fill="none" stroke="white" points="348,-127 0,-127 0,-89 348,-89 348,-127"/>
<text text-anchor="middle" x="174" y="-111.8" font-family="Times,serif" font-size="14.00" fill="white">[StoredTable] Name: &#39;customer&#39; pruned: 0/115</text>
<text text-anchor="middle" x="174" y="-96.8" font-family="Times,serif" font-size="14.00" fill="white">chunk(s), 7/8 column(s)</text>
</g>
<!-- 140366690232208&#45;&gt;140366983581872 -->
<g id="edge7" class="edge">
<title>140366690232208&#45;&gt;140366983581872</title>
<path fill="none" stroke="white" stroke-width="2.32" d="M174,-127.24C174,-139.07 174,-154.68 174,-167.95"/>
<polygon fill="white" stroke="white" stroke-width="2.32" points="170.5,-167.96 174,-177.96 177.5,-167.96 170.5,-167.96"/>
<g id="a_edge7&#45;label"><a xlink:title="Output Expressions: &#10; (1) c_custkey&#10;&#10;Unique Column Combinations: &#10; (1) {c_custkey}&#10;&#10;Functional Dependencies (trivial): &#10; &lt;none&gt;&#10;&#10;Functional Dependencies (non&#45;trivial): &#10; &lt;none&gt;">
<text text-anchor="middle" x="297.5" y="-148.8" font-family="Times,serif" font-size="14.00" fill="white"> 7,500,000.0 row(s) | 100.0% estd.</text>
</a>
</g>
</g>
<!-- 140435708522992 -->
<g id="node9" class="node">
<title>140435708522992</title>
<polygon fill="none" stroke="white" points="504.5,-214 419.5,-214 419.5,-178 504.5,-178 504.5,-214"/>
<text text-anchor="middle" x="462" y="-192.3" font-family="Times,serif" font-size="14.00" fill="white">[Validate]</text>
</g>
<!-- 140435708522992&#45;&gt;140435343742800 -->
<g id="edge8" class="edge">
<title>140435708522992&#45;&gt;140435343742800</title>
<path fill="none" stroke="white" stroke-width="7.74" d="M456.32,-214.14C451.87,-225.04 444.63,-238.63 434,-247 427.12,-252.42 419.44,-257 411.37,-260.87"/>
<polygon fill="white" stroke="white" stroke-width="7.74" points="402.12,-264.94 414,-267.11 411.27,-260.91 402.12,-264.94"/>
<g id="a_edge8&#45;label"><a xlink:title="Output Expressions: &#10; (1) o_orderkey&#10; (2) o_custkey&#10; (3) o_comment&#10;&#10;Unique Column Combinations: &#10; (1) {o_orderkey}&#10;&#10;Functional Dependencies (trivial): &#10; (1) {o_orderkey} =&gt; {o_custkey, o_comment}&#10;&#10;Functional Dependencies (non&#45;trivial): &#10; &lt;none&gt;">
<text text-anchor="middle" x="574" y="-235.8" font-family="Times,serif" font-size="14.00" fill="white"> 67,500,000.0 row(s) | 100.0% estd.</text>
</a>
</g>
</g>
<!-- 140435708234960 -->
<g id="node10" class="node">
<title>140435708234960</title>
<polygon fill="none" stroke="white" points="623.5,-127 366.5,-127 366.5,-89 623.5,-89 623.5,-127"/>
<text text-anchor="middle" x="495" y="-111.8" font-family="Times,serif" font-size="14.00" fill="white">[Predicate] o_comment NOT LIKE</text>
<text text-anchor="middle" x="495" y="-96.8" font-family="Times,serif" font-size="14.00" fill="white">&#39;%special%accounts%&#39;</text>
</g>
<!-- 140435708234960&#45;&gt;140435708522992 -->
<g id="edge9" class="edge">
<title>140435708234960&#45;&gt;140435708522992</title>
<path fill="none" stroke="white" stroke-width="7.74" d="M488,-127.24C483.42,-139.18 477.35,-154.99 472.23,-168.34"/>
<polygon fill="white" stroke="white" stroke-width="7.74" points="465.8,-166.2 468.54,-177.96 478.45,-171.05 465.8,-166.2"/>
<g id="a_edge9&#45;label"><a xlink:title="Output Expressions: &#10; (1) o_orderkey&#10; (2) o_custkey&#10; (3) o_comment&#10;&#10;Unique Column Combinations: &#10; (1) {o_orderkey}&#10;&#10;Functional Dependencies (trivial): &#10; (1) {o_orderkey} =&gt; {o_custkey, o_comment}&#10;&#10;Functional Dependencies (non&#45;trivial): &#10; &lt;none&gt;">
<text text-anchor="middle" x="603.5" y="-148.8" font-family="Times,serif" font-size="14.00" fill="white"> 67,500,000.0 row(s) | 90.0% estd.</text>
</a>
</g>
</g>
<!-- 140366690232528 -->
<g id="node11" class="node">
<title>140366690232528</title>
<polygon fill="none" stroke="white" points="663.5,-38 326.5,-38 326.5,0 663.5,0 663.5,-38"/>
<text text-anchor="middle" x="495" y="-22.8" font-family="Times,serif" font-size="14.00" fill="white">[StoredTable] Name: &#39;orders&#39; pruned: 0/1145</text>
<text text-anchor="middle" x="495" y="-7.8" font-family="Times,serif" font-size="14.00" fill="white">chunk(s), 6/9 column(s)</text>
</g>
<!-- 140366690232528&#45;&gt;140435708234960 -->
<g id="edge10" class="edge">
<title>140366690232528&#45;&gt;140435708234960</title>
<path fill="none" stroke="white" stroke-width="8" d="M495,-38.03C495,-49.81 495,-65.44 495,-78.84"/>
<polygon fill="white" stroke="white" stroke-width="8" points="488,-79 495,-89 502,-79 488,-79"/>
<g id="a_edge10&#45;label"><a xlink:title="Output Expressions: &#10; (1) o_orderkey&#10; (2) o_custkey&#10; (3) o_comment&#10;&#10;Unique Column Combinations: &#10; (1) {o_orderkey}&#10;&#10;Functional Dependencies (trivial): &#10; (1) {o_orderkey} =&gt; {o_custkey, o_comment}&#10;&#10;Functional Dependencies (non&#45;trivial): &#10; &lt;none&gt;">
<text text-anchor="middle" x="623" y="-59.8" font-family="Times,serif" font-size="14.00" fill="white"> 75,000,000.0 row(s) | 100.0% estd.</text>
</a>
</g>
</g>
</g>
</svg>
