<?xml version="1.0" encoding="UTF-8" standalone="no"?>
<!DOCTYPE svg PUBLIC "-//W3C//DTD SVG 1.1//EN"
 "http://www.w3.org/Graphics/SVG/1.1/DTD/svg11.dtd">
<!-- Generated by graphviz version 2.43.0 (0)
 -->
<!-- Title: G Pages: 1 -->
<svg width="900pt" height="1370pt"
 viewBox="0.00 0.00 899.50 1370.00" xmlns="http://www.w3.org/2000/svg" xmlns:xlink="http://www.w3.org/1999/xlink">
<g id="graph0" class="graph" transform="scale(1 1) rotate(0) translate(4 1366)">
<title>G</title>
<polygon fill="black" stroke="transparent" points="-4,4 -4,-1366 895.5,-1366 895.5,4 -4,4"/>
<text text-anchor="middle" x="319.5" y="-1346.8" font-family="Times,serif" font-size="14.00" fill="white">For tooltips with advanced information, hover your mouse over vertices or edge labels.</text>
<!-- 140255993841552 -->
<g id="node1" class="node">
<title>140255993841552</title>
<g id="a_node1"><a xlink:title="Output: 5 rows in 1 chunk filtered: 0, 3 µs 727 ns.">
<polygon fill="none" stroke="white" points="584,-1307 357,-1307 357,-1238 584,-1238 584,-1307"/>
<text text-anchor="middle" x="470.5" y="-1291.8" font-family="Times,serif" font-size="14.00" fill="white">Alias</text>
<text text-anchor="middle" x="470.5" y="-1276.8" font-family="Times,serif" font-size="14.00" fill="white">[o_orderpriority, order_count]</text>
<text text-anchor="middle" x="470.5" y="-1245.8" font-family="Times,serif" font-size="14.00" fill="white">3 µs 727 ns</text>
</a>
</g>
</g>
<!-- 140255993841232 -->
<g id="node2" class="node">
<title>140255993841232</title>
<g id="a_node2"><a xlink:title="Output: 5 rows in 1 chunk filtered: 0, 32 µs 60 ns.&#10;Operator step runtimes:&#10; MaterializeSortColumns 12 µs 293 ns&#10; Sort 5 µs 520 ns&#10; TemporaryResultWriting 531 ns&#10; WriteOutput 10 µs 840 ns.">
<polygon fill="none" stroke="white" points="520,-1187 421,-1187 421,-1133 520,-1133 520,-1187"/>
<text text-anchor="middle" x="470.5" y="-1171.8" font-family="Times,serif" font-size="14.00" fill="white">Sort</text>
<text text-anchor="middle" x="470.5" y="-1140.8" font-family="Times,serif" font-size="14.00" fill="white">32 µs 60 ns</text>
</a>
</g>
</g>
<!-- 140255993841232&#45;&gt;140255993841552 -->
<g id="edge1" class="edge">
<title>140255993841232&#45;&gt;140255993841552</title>
<path fill="none" stroke="white" d="M470.5,-1187.19C470.5,-1199.29 470.5,-1214 470.5,-1227.72"/>
<polygon fill="white" stroke="white" points="467,-1227.95 470.5,-1237.95 474,-1227.96 467,-1227.95"/>
<text text-anchor="middle" x="539.5" y="-1208.8" font-family="Times,serif" font-size="14.00" fill="white">5 row(s)/1 chunk(s)</text>
</g>
<!-- 140255992775184 -->
<g id="node3" class="node">
<title>140255992775184</title>
<g id="a_node3"><a xlink:title="Output: 5 rows in 1 chunk filtered: 0, 414 ms 411 µs.&#10;Operator step runtimes:&#10; GroupByKeyPartitioning 397 ms 250 µs&#10; Aggregating 17 ms 68 µs&#10; GroupByColumnsWriting 10 µs 790 ns&#10; AggregateColumnsWriting 20 µs 59 ns&#10; OutputWriting 13 µs 236 ns.">
<polygon fill="none" stroke="white" stroke-width="7.22" points="575.5,-1082 365.5,-1082 365.5,-998 575.5,-998 575.5,-1082"/>
<text text-anchor="middle" x="470.5" y="-1066.8" font-family="Times,serif" font-size="14.00" fill="white">AggregateHash</text>
<text text-anchor="middle" x="470.5" y="-1051.8" font-family="Times,serif" font-size="14.00" fill="white">GroupBy {o_orderpriority}</text>
<text text-anchor="middle" x="470.5" y="-1036.8" font-family="Times,serif" font-size="14.00" fill="white">COUNT(*)</text>
<text text-anchor="middle" x="470.5" y="-1005.8" font-family="Times,serif" font-size="14.00" fill="white">414 ms 411 µs</text>
</a>
</g>
</g>
<!-- 140255992775184&#45;&gt;140255993841232 -->
<g id="edge2" class="edge">
<title>140255992775184&#45;&gt;140255993841232</title>
<path fill="none" stroke="white" d="M470.5,-1082.27C470.5,-1095.36 470.5,-1109.72 470.5,-1122.45"/>
<polygon fill="white" stroke="white" points="467,-1122.69 470.5,-1132.69 474,-1122.69 467,-1122.69"/>
<text text-anchor="middle" x="539.5" y="-1103.8" font-family="Times,serif" font-size="14.00" fill="white">5 row(s)/1 chunk(s)</text>
</g>
<!-- 140255993840912 -->
<g id="node4" class="node">
<title>140255993840912</title>
<g id="a_node4"><a xlink:title="Output: 2627760 rows in 64 chunks filtered: 0, 104 ms 252 µs.&#10;Operator step runtimes:&#10; LeftSideMaterialize 26 ms 985 µs&#10; RightSideMaterialize 45 ms 113 µs&#10; LeftSideTransform 0 ns&#10; RightSideTransform 0 ns&#10; LeftSidePartition 1 ms 501 µs&#10; RightSidePartition 3 ms 835 µs&#10; LeftSideSortBuckets 1 ms 791 µs&#10; RightSideSortBuckets 2 ms 921 µs&#10; GatherRowIds 3 µs 977 ns&#10; FindJoinPartner 12 ms 993 µs&#10; OutputWriting 3 ms 814 µs.&#10;Radix bits: 8.">
<polygon fill="none" stroke="white" stroke-width="3.81" points="575,-947 366,-947 366,-878 575,-878 575,-947"/>
<text text-anchor="middle" x="470.5" y="-931.8" font-family="Times,serif" font-size="14.00" fill="white">JoinSimdSortMerge (Semi)</text>
<text text-anchor="middle" x="470.5" y="-916.8" font-family="Times,serif" font-size="14.00" fill="white">o_orderkey = l_orderkey</text>
<text text-anchor="middle" x="470.5" y="-885.8" font-family="Times,serif" font-size="14.00" fill="white">104 ms 252 µs</text>
</a>
</g>
</g>
<!-- 140255993840912&#45;&gt;140255992775184 -->
<g id="edge3" class="edge">
<title>140255993840912&#45;&gt;140255992775184</title>
<path fill="none" stroke="white" d="M470.5,-947.13C470.5,-959.51 470.5,-973.84 470.5,-987.44"/>
<polygon fill="white" stroke="white" points="467,-987.65 470.5,-997.65 474,-987.65 467,-987.65"/>
<text text-anchor="middle" x="575.5" y="-968.8" font-family="Times,serif" font-size="14.00" fill="white">2,627,760 row(s)/64 chunk(s)</text>
</g>
<!-- 140255992771088 -->
<g id="node5" class="node">
<title>140255992771088</title>
<g id="a_node5"><a xlink:title="Output: 2865661 rows in 1145 chunks filtered: 0, 5 ms 74 µs.">
<polygon fill="none" stroke="white" points="509,-437 414,-437 414,-383 509,-383 509,-437"/>
<text text-anchor="middle" x="461.5" y="-421.8" font-family="Times,serif" font-size="14.00" fill="white">Validate</text>
<text text-anchor="middle" x="461.5" y="-390.8" font-family="Times,serif" font-size="14.00" fill="white">5 ms 74 µs</text>
</a>
</g>
</g>
<!-- 140255992771088&#45;&gt;140255993840912 -->
<g id="edge4" class="edge">
<title>140255992771088&#45;&gt;140255993840912</title>
<path fill="none" stroke="white" d="M509.14,-432.38C531.35,-444.7 556.19,-462.29 571.5,-485 588.38,-510.05 585.5,-521.3 585.5,-551.5 585.5,-551.5 585.5,-551.5 585.5,-786 585.5,-819.47 591.57,-833.21 571.5,-860 568.41,-864.13 564.89,-867.95 561.07,-871.48"/>
<polygon fill="white" stroke="white" points="561.03,-871.51 558.78,-868.83 553.37,-877.94 561.03,-871.51"/>
<text text-anchor="middle" x="701.5" y="-661.3" font-family="Times,serif" font-size="14.00" fill="white">2,865,661 row(s)/1,145 chunk(s)</text>
</g>
<!-- 140255993840272 -->
<g id="node10" class="node">
<title>140255993840272</title>
<g id="a_node10"><a xlink:title="Output: 11461197 rows in 64 chunks filtered: 1186, 569 ms 163 µs.&#10;Operator step runtimes:&#10; LeftSideMaterialize 89 ms 623 µs&#10; RightSideMaterialize 23 ms 225 µs&#10; LeftSideTransform 0 ns&#10; RightSideTransform 0 ns&#10; LeftSidePartition 241 ms 21 µs&#10; RightSidePartition 1 ms 758 µs&#10; LeftSideSortBuckets 154 ms 681 µs&#10; RightSideSortBuckets 1 ms 900 µs&#10; GatherRowIds 1 µs 674 ns&#10; FindJoinPartner 37 ms 995 µs&#10; OutputWriting 458 µs 811 ns.&#10;Radix bits: 8.">
<polygon fill="none" stroke="white" stroke-width="8" points="481,-587 196,-587 196,-518 481,-518 481,-587"/>
<text text-anchor="middle" x="338.5" y="-571.8" font-family="Times,serif" font-size="14.00" fill="white">JoinSimdSortMerge (Semi Reduction)</text>
<text text-anchor="middle" x="338.5" y="-556.8" font-family="Times,serif" font-size="14.00" fill="white">l_orderkey = o_orderkey</text>
<text text-anchor="middle" x="338.5" y="-525.8" font-family="Times,serif" font-size="14.00" fill="white">569 ms 163 µs</text>
</a>
</g>
</g>
<!-- 140255992771088&#45;&gt;140255993840272 -->
<g id="edge5" class="edge">
<title>140255992771088&#45;&gt;140255993840272</title>
<path fill="none" stroke="white" d="M413.87,-426.69C386.96,-438.27 355.57,-456.95 339.5,-485 335.54,-491.9 333.65,-499.91 332.98,-507.92"/>
<polygon fill="white" stroke="white" points="332.74,-517.99 336.48,-508.08 332.98,-508 332.74,-517.99"/>
<text text-anchor="middle" x="455.5" y="-488.8" font-family="Times,serif" font-size="14.00" fill="white">2,865,661 row(s)/1,145 chunk(s)</text>
</g>
<!-- 140255993839952 -->
<g id="node6" class="node">
<title>140255993839952</title>
<g id="a_node6"><a xlink:title="Output: 2865661 rows in 1145 chunks filtered: 0, 3 ms 318 µs.&#10;Chunks: 0 skipped with no results, &#10;0 skipped with all matching, 0 scanned using binary search.">
<polygon fill="none" stroke="white" points="674,-302 249,-302 249,-203 674,-203 674,-302"/>
<text text-anchor="middle" x="461.5" y="-286.8" font-family="Times,serif" font-size="14.00" fill="white">TableScan</text>
<text text-anchor="middle" x="461.5" y="-271.8" font-family="Times,serif" font-size="14.00" fill="white">Impl: ColumnBetween</text>
<text text-anchor="middle" x="461.5" y="-256.8" font-family="Times,serif" font-size="14.00" fill="white">o_orderdate BETWEEN UPPER EXCLUSIVE &#39;1995&#45;11&#45;01&#39;</text>
<text text-anchor="middle" x="461.5" y="-241.8" font-family="Times,serif" font-size="14.00" fill="white">AND &#39;1996&#45;02&#45;01&#39;</text>
<text text-anchor="middle" x="461.5" y="-210.8" font-family="Times,serif" font-size="14.00" fill="white">3 ms 318 µs</text>
</a>
</g>
</g>
<!-- 140255993839952&#45;&gt;140255992771088 -->
<g id="edge6" class="edge">
<title>140255993839952&#45;&gt;140255992771088</title>
<path fill="none" stroke="white" d="M461.5,-302.27C461.5,-324.98 461.5,-351.53 461.5,-372.47"/>
<polygon fill="white" stroke="white" points="458,-372.56 461.5,-382.56 465,-372.56 458,-372.56"/>
<text text-anchor="middle" x="577.5" y="-323.8" font-family="Times,serif" font-size="14.00" fill="white">2,865,661 row(s)/1,145 chunk(s)</text>
</g>
<!-- 140176152781264 -->
<g id="node7" class="node">
<title>140176152781264</title>
<g id="a_node7"><a xlink:title="Output: 75000000 rows in 1145 chunks filtered: 0, 4 ms 425 µs.">
<polygon fill="none" stroke="white" points="527,-133 396,-133 396,-19 527,-19 527,-133"/>
<text text-anchor="middle" x="461.5" y="-117.8" font-family="Times,serif" font-size="14.00" fill="white">GetTable</text>
<text text-anchor="middle" x="461.5" y="-102.8" font-family="Times,serif" font-size="14.00" fill="white">(orders)</text>
<text text-anchor="middle" x="461.5" y="-87.8" font-family="Times,serif" font-size="14.00" fill="white">pruned:</text>
<text text-anchor="middle" x="461.5" y="-72.8" font-family="Times,serif" font-size="14.00" fill="white">0/1145 chunk(s)</text>
<text text-anchor="middle" x="461.5" y="-57.8" font-family="Times,serif" font-size="14.00" fill="white">6/9 column(s)</text>
<text text-anchor="middle" x="461.5" y="-26.8" font-family="Times,serif" font-size="14.00" fill="white">4 ms 425 µs</text>
</a>
</g>
</g>
<!-- 140176152781264&#45;&gt;140255993839952 -->
<g id="edge7" class="edge">
<title>140176152781264&#45;&gt;140255993839952</title>
<path fill="none" stroke="white" stroke-width="4.58" d="M461.5,-133.17C461.5,-152.18 461.5,-173.44 461.5,-192.64"/>
<polygon fill="white" stroke="white" stroke-width="4.58" points="457.49,-192.77 461.5,-202.77 465.51,-192.77 457.49,-192.77"/>
<text text-anchor="middle" x="582" y="-173.8" font-family="Times,serif" font-size="14.00" fill="white">75,000,000 row(s)/1,145 chunk(s)</text>
</g>
<!-- 140255993840592 -->
<g id="node8" class="node">
<title>140255993840592</title>
<g id="a_node8"><a xlink:title="Output: 7243588 rows in 64 chunks filtered: 0, 187 ms 429 µs.&#10;Chunks: 0 skipped with no results, &#10;0 skipped with all matching, 0 scanned using binary search.">
<polygon fill="none" stroke="white" stroke-width="5.26" points="468,-827 241,-827 241,-743 468,-743 468,-827"/>
<text text-anchor="middle" x="354.5" y="-811.8" font-family="Times,serif" font-size="14.00" fill="white">TableScan</text>
<text text-anchor="middle" x="354.5" y="-796.8" font-family="Times,serif" font-size="14.00" fill="white">Impl: ColumnVsColumn</text>
<text text-anchor="middle" x="354.5" y="-781.8" font-family="Times,serif" font-size="14.00" fill="white">l_commitdate &lt; l_receiptdate</text>
<text text-anchor="middle" x="354.5" y="-750.8" font-family="Times,serif" font-size="14.00" fill="white">187 ms 429 µs</text>
</a>
</g>
</g>
<!-- 140255993840592&#45;&gt;140255993840912 -->
<g id="edge8" class="edge">
<title>140255993840592&#45;&gt;140255993840912</title>
<path fill="none" stroke="white" d="M351.1,-827C351.98,-838.52 354.83,-850.49 361.5,-860 364.21,-863.86 367.29,-867.44 370.65,-870.77"/>
<polygon fill="white" stroke="white" points="378.42,-877.62 373.24,-868.38 370.93,-871.01 378.42,-877.62"/>
<text text-anchor="middle" x="466.5" y="-848.8" font-family="Times,serif" font-size="14.00" fill="white">7,243,588 row(s)/64 chunk(s)</text>
</g>
<!-- 140255992771344 -->
<g id="node9" class="node">
<title>140255992771344</title>
<g id="a_node9"><a xlink:title="Output: 11461197 rows in 64 chunks filtered: 0, 11 ms 119 µs.">
<polygon fill="none" stroke="white" points="408,-692 295,-692 295,-638 408,-638 408,-692"/>
<text text-anchor="middle" x="351.5" y="-676.8" font-family="Times,serif" font-size="14.00" fill="white">Validate</text>
<text text-anchor="middle" x="351.5" y="-645.8" font-family="Times,serif" font-size="14.00" fill="white">11 ms 119 µs</text>
</a>
</g>
</g>
<!-- 140255992771344&#45;&gt;140255993840592 -->
<g id="edge9" class="edge">
<title>140255992771344&#45;&gt;140255993840592</title>
<path fill="none" stroke="white" d="M351.85,-692.14C352.01,-702.39 352.23,-714.25 352.5,-725 352.56,-727.51 352.63,-730.08 352.71,-732.68"/>
<polygon fill="white" stroke="white" points="349.21,-732.85 353.01,-742.74 356.21,-732.64 349.21,-732.85"/>
<text text-anchor="middle" x="462" y="-713.8" font-family="Times,serif" font-size="14.00" fill="white">11,461,197 row(s)/64 chunk(s)</text>
</g>
<!-- 140255993840272&#45;&gt;140255992771344 -->
<g id="edge10" class="edge">
<title>140255993840272&#45;&gt;140255992771344</title>
<path fill="none" stroke="white" d="M342.47,-587.25C343.98,-600.07 345.7,-614.73 347.24,-627.77"/>
<polygon fill="white" stroke="white" points="343.77,-628.29 348.42,-637.81 350.73,-627.47 343.77,-628.29"/>
<text text-anchor="middle" x="455" y="-608.8" font-family="Times,serif" font-size="14.00" fill="white">11,461,197 row(s)/64 chunk(s)</text>
</g>
<!-- 140176152781712 -->
<g id="node11" class="node">
<title>140176152781712</title>
<g id="a_node11"><a xlink:title="Output: 300005811 rows in 4578 chunks filtered: 0, 11 ms 355 µs.">
<polygon fill="none" stroke="white" points="131,-467 0,-467 0,-353 131,-353 131,-467"/>
<text text-anchor="middle" x="65.5" y="-451.8" font-family="Times,serif" font-size="14.00" fill="white">GetTable</text>
<text text-anchor="middle" x="65.5" y="-436.8" font-family="Times,serif" font-size="14.00" fill="white">(lineitem)</text>
<text text-anchor="middle" x="65.5" y="-421.8" font-family="Times,serif" font-size="14.00" fill="white">pruned:</text>
<text text-anchor="middle" x="65.5" y="-406.8" font-family="Times,serif" font-size="14.00" fill="white">0/4578 chunk(s)</text>
<text text-anchor="middle" x="65.5" y="-391.8" font-family="Times,serif" font-size="14.00" fill="white">13/16 column(s)</text>
<text text-anchor="middle" x="65.5" y="-360.8" font-family="Times,serif" font-size="14.00" fill="white">11 ms 355 µs</text>
</a>
</g>
</g>
<!-- 140176152781712&#45;&gt;140255993840272 -->
<g id="edge11" class="edge">
<title>140176152781712&#45;&gt;140255993840272</title>
<path fill="none" stroke="white" stroke-width="8" d="M64.05,-467.02C66.33,-479.2 70.94,-491.09 79.5,-500 95.47,-516.63 138.89,-528.14 185.71,-535.99"/>
<polygon fill="white" stroke="white" stroke-width="8" points="185.87,-536.02 184.75,-542.93 195.74,-537.61 185.87,-536.02"/>
<text text-anchor="middle" x="204.5" y="-488.8" font-family="Times,serif" font-size="14.00" fill="white">300,005,811 row(s)/4,578 chunk(s)</text>
</g>
<!-- 0 -->
<g id="node12" class="node">
<title>0</title>
<polygon fill="none" stroke="white" points="545.5,-0.5 545.5,-151.5 891.5,-151.5 891.5,-0.5 545.5,-0.5"/>
<text text-anchor="middle" x="718.5" y="-136.3" font-family="Times,serif" font-size="14.00" fill="white">Total by operator</text>
<polyline fill="none" stroke="white" points="545.5,-128.5 891.5,-128.5 "/>
<text text-anchor="end" x="699.5" y="-113.3" font-family="Times,serif" font-size="14.00" fill="white">JoinSimdSortMerge </text>
<text text-anchor="end" x="699.5" y="-98.3" font-family="Times,serif" font-size="14.00" fill="white"> AggregateHash </text>
<text text-anchor="end" x="699.5" y="-83.3" font-family="Times,serif" font-size="14.00" fill="white"> TableScan </text>
<text text-anchor="end" x="699.5" y="-68.3" font-family="Times,serif" font-size="14.00" fill="white"> Validate </text>
<text text-anchor="end" x="699.5" y="-53.3" font-family="Times,serif" font-size="14.00" fill="white"> GetTable </text>
<text text-anchor="end" x="699.5" y="-38.3" font-family="Times,serif" font-size="14.00" fill="white"> Sort </text>
<text text-anchor="end" x="699.5" y="-23.3" font-family="Times,serif" font-size="14.00" fill="white"> Alias </text>
<text text-anchor="end" x="699.5" y="-8.3" font-family="Times,serif" font-size="14.00" fill="white">total</text>
<polyline fill="none" stroke="white" points="707.5,-0.5 707.5,-128.5 "/>
<text text-anchor="start" x="715.5" y="-113.3" font-family="Times,serif" font-size="14.00" fill="white">673 ms 415 µs </text>
<text text-anchor="start" x="715.5" y="-98.3" font-family="Times,serif" font-size="14.00" fill="white"> 414 ms 411 µs </text>
<text text-anchor="start" x="715.5" y="-83.3" font-family="Times,serif" font-size="14.00" fill="white"> 190 ms 747 µs </text>
<text text-anchor="start" x="715.5" y="-68.3" font-family="Times,serif" font-size="14.00" fill="white"> 16 ms 193 µs </text>
<text text-anchor="start" x="715.5" y="-53.3" font-family="Times,serif" font-size="14.00" fill="white"> 15 ms 780 µs </text>
<text text-anchor="start" x="715.5" y="-38.3" font-family="Times,serif" font-size="14.00" fill="white"> 32 µs 60 ns </text>
<text text-anchor="start" x="715.5" y="-23.3" font-family="Times,serif" font-size="14.00" fill="white"> 3 µs 727 ns </text>
<text text-anchor="start" x="715.5" y="-8.3" font-family="Times,serif" font-size="14.00" fill="white"> 1 s 311 ms </text>
<polyline fill="none" stroke="white" points="838.5,-0.5 838.5,-128.5 "/>
<text text-anchor="start" x="846.5" y="-113.3" font-family="Times,serif" font-size="14.00" fill="white">51 %</text>
<text text-anchor="start" x="846.5" y="-98.3" font-family="Times,serif" font-size="14.00" fill="white">32 %</text>
<text text-anchor="start" x="846.5" y="-83.3" font-family="Times,serif" font-size="14.00" fill="white">15 %</text>
<text text-anchor="start" x="846.5" y="-68.3" font-family="Times,serif" font-size="14.00" fill="white">1 %</text>
<text text-anchor="start" x="846.5" y="-53.3" font-family="Times,serif" font-size="14.00" fill="white">1 %</text>
<text text-anchor="start" x="846.5" y="-38.3" font-family="Times,serif" font-size="14.00" fill="white">0 %</text>
<text text-anchor="start" x="846.5" y="-23.3" font-family="Times,serif" font-size="14.00" fill="white">0 %</text>
<text text-anchor="start" x="846.5" y="-8.3" font-family="Times,serif" font-size="14.00" fill="white"> </text>
</g>
</g>
</svg>
