<?xml version="1.0" encoding="UTF-8" standalone="no"?>
<!DOCTYPE svg PUBLIC "-//W3C//DTD SVG 1.1//EN"
 "http://www.w3.org/Graphics/SVG/1.1/DTD/svg11.dtd">
<!-- Generated by graphviz version 2.43.0 (0)
 -->
<!-- Title: G Pages: 1 -->
<svg width="748pt" height="1805pt"
 viewBox="0.00 0.00 748.00 1805.00" xmlns="http://www.w3.org/2000/svg" xmlns:xlink="http://www.w3.org/1999/xlink">
<g id="graph0" class="graph" transform="scale(1 1) rotate(0) translate(4 1801)">
<title>G</title>
<polygon fill="black" stroke="transparent" points="-4,4 -4,-1801 744,-1801 744,4 -4,4"/>
<text text-anchor="middle" x="319.5" y="-1781.8" font-family="Times,serif" font-size="14.00" fill="white">For tooltips with advanced information, hover your mouse over vertices or edge labels.</text>
<!-- 281444946759056 -->
<g id="node1" class="node">
<title>281444946759056</title>
<g id="a_node1"><a xlink:title="Output: 7 rows in 1 chunk, 2 µs 208 ns.">
<polygon fill="none" stroke="white" points="437,-1742 189,-1742 189,-1673 437,-1673 437,-1742"/>
<text text-anchor="middle" x="313" y="-1726.8" font-family="Times,serif" font-size="14.00" fill="white">Alias</text>
<text text-anchor="middle" x="313" y="-1711.8" font-family="Times,serif" font-size="14.00" fill="white">[cntrycode, numcust, totacctbal]</text>
<text text-anchor="middle" x="313" y="-1680.8" font-family="Times,serif" font-size="14.00" fill="white">2 µs 208 ns</text>
</a>
</g>
</g>
<!-- 281444946758736 -->
<g id="node2" class="node">
<title>281444946758736</title>
<g id="a_node2"><a xlink:title="Output: 7 rows in 1 chunk, 17 µs 185 ns.&#10;Operator step runtimes:&#10; MaterializeSortColumns 5 µs 632 ns&#10; Sort 2 µs 528 ns&#10; TemporaryResultWriting 288 ns&#10; WriteOutput 6 µs 848 ns.">
<polygon fill="none" stroke="white" points="367,-1622 259,-1622 259,-1568 367,-1568 367,-1622"/>
<text text-anchor="middle" x="313" y="-1606.8" font-family="Times,serif" font-size="14.00" fill="white">Sort</text>
<text text-anchor="middle" x="313" y="-1575.8" font-family="Times,serif" font-size="14.00" fill="white">17 µs 185 ns</text>
</a>
</g>
</g>
<!-- 281444946758736&#45;&gt;281444946759056 -->
<g id="edge1" class="edge">
<title>281444946758736&#45;&gt;281444946759056</title>
<path fill="none" stroke="white" d="M313,-1622.19C313,-1634.29 313,-1649 313,-1662.72"/>
<polygon fill="white" stroke="white" points="309.5,-1662.95 313,-1672.95 316.5,-1662.96 309.5,-1662.95"/>
<text text-anchor="middle" x="382" y="-1643.8" font-family="Times,serif" font-size="14.00" fill="white">7 row(s)/1 chunk(s)</text>
</g>
<!-- 281444916006416 -->
<g id="node3" class="node">
<title>281444916006416</title>
<g id="a_node3"><a xlink:title="Output: 7 rows in 1 chunk, 42 ms 749 µs.&#10;Operator step runtimes:&#10; GroupByKeyPartitioning 2 ms 247 µs&#10; Aggregating 40 ms 465 µs&#10; GroupByColumnsWriting 7 µs 72 ns&#10; AggregateColumnsWriting 12 µs 160 ns&#10; OutputWriting 4 µs 800 ns.">
<polygon fill="none" stroke="white" stroke-width="7.02" points="442.5,-1517 183.5,-1517 183.5,-1418 442.5,-1418 442.5,-1517"/>
<text text-anchor="middle" x="313" y="-1501.8" font-family="Times,serif" font-size="14.00" fill="white">AggregateHash</text>
<text text-anchor="middle" x="313" y="-1486.8" font-family="Times,serif" font-size="14.00" fill="white">GroupBy {SUBSTR(c_phone,1,2)}</text>
<text text-anchor="middle" x="313" y="-1471.8" font-family="Times,serif" font-size="14.00" fill="white">COUNT(*), </text>
<text text-anchor="middle" x="313" y="-1456.8" font-family="Times,serif" font-size="14.00" fill="white">SUM(c_acctbal)</text>
<text text-anchor="middle" x="313" y="-1425.8" font-family="Times,serif" font-size="14.00" fill="white">42 ms 749 µs</text>
</a>
</g>
</g>
<!-- 281444916006416&#45;&gt;281444946758736 -->
<g id="edge2" class="edge">
<title>281444916006416&#45;&gt;281444946758736</title>
<path fill="none" stroke="white" d="M313,-1517.02C313,-1530.49 313,-1544.89 313,-1557.54"/>
<polygon fill="white" stroke="white" points="309.5,-1557.7 313,-1567.7 316.5,-1557.7 309.5,-1557.7"/>
<text text-anchor="middle" x="382" y="-1538.8" font-family="Times,serif" font-size="14.00" fill="white">7 row(s)/1 chunk(s)</text>
</g>
<!-- 281444946758416 -->
<g id="node4" class="node">
<title>281444946758416</title>
<g id="a_node4"><a xlink:title="Output: 316798 rows in 256 chunks, 98 µs 48 ns.">
<polygon fill="none" stroke="white" points="399,-1367 227,-1367 227,-1298 399,-1298 399,-1367"/>
<text text-anchor="middle" x="313" y="-1351.8" font-family="Times,serif" font-size="14.00" fill="white">Alias</text>
<text text-anchor="middle" x="313" y="-1336.8" font-family="Times,serif" font-size="14.00" fill="white">[cntrycode, c_acctbal]</text>
<text text-anchor="middle" x="313" y="-1305.8" font-family="Times,serif" font-size="14.00" fill="white">98 µs 48 ns</text>
</a>
</g>
</g>
<!-- 281444946758416&#45;&gt;281444916006416 -->
<g id="edge3" class="edge">
<title>281444946758416&#45;&gt;281444916006416</title>
<path fill="none" stroke="white" d="M313,-1367.06C313,-1379.45 313,-1393.87 313,-1407.83"/>
<polygon fill="white" stroke="white" points="309.5,-1407.87 313,-1417.87 316.5,-1407.87 309.5,-1407.87"/>
<text text-anchor="middle" x="415.5" y="-1388.8" font-family="Times,serif" font-size="14.00" fill="white">316,798 row(s)/256 chunk(s)</text>
</g>
<!-- 281444946758096 -->
<g id="node5" class="node">
<title>281444946758096</title>
<g id="a_node5"><a xlink:title="Output: 316798 rows in 256 chunks, 4 ms 463 µs.&#10;Operator step runtimes:&#10; ForwardUnmodifiedColumns 147 µs 777 ns&#10; EvaluateNewColumns 3 ms 985 µs&#10; BuildOutput 248 µs 609 ns.">
<polygon fill="none" stroke="white" stroke-width="1.45" points="365,-1247 261,-1247 261,-1193 365,-1193 365,-1247"/>
<text text-anchor="middle" x="313" y="-1231.8" font-family="Times,serif" font-size="14.00" fill="white">Projection</text>
<text text-anchor="middle" x="313" y="-1200.8" font-family="Times,serif" font-size="14.00" fill="white">4 ms 463 µs</text>
</a>
</g>
</g>
<!-- 281444946758096&#45;&gt;281444946758416 -->
<g id="edge4" class="edge">
<title>281444946758096&#45;&gt;281444946758416</title>
<path fill="none" stroke="white" d="M313,-1247.19C313,-1259.29 313,-1274 313,-1287.72"/>
<polygon fill="white" stroke="white" points="309.5,-1287.95 313,-1297.95 316.5,-1287.96 309.5,-1287.95"/>
<text text-anchor="middle" x="415.5" y="-1268.8" font-family="Times,serif" font-size="14.00" fill="white">316,798 row(s)/256 chunk(s)</text>
</g>
<!-- 281444946757776 -->
<g id="node6" class="node">
<title>281444946757776</title>
<g id="a_node6"><a xlink:title="Output: 316798 rows in 256 chunks, 63 ms 644 µs.&#10;Operator step runtimes:&#10; LeftSideMaterialize 400 µs 386 ns&#10; RightSideMaterialize 7 ms 162 µs&#10; LeftSideTransform 0 ns&#10; RightSideTransform 0 ns&#10; LeftSidePartition 4 ms 625 µs&#10; RightSidePartition 30 ms 34 µs&#10; LeftSideSortBuckets 438 µs 466 ns&#10; RightSideSortBuckets 15 ms 534 µs&#10; GatherRowIds 2 µs 48 ns&#10; FindJoinPartner 2 ms 898 µs&#10; OutputWriting 904 µs 165 ns.">
<polygon fill="none" stroke="white" stroke-width="8" points="456.5,-1142 169.5,-1142 169.5,-1073 456.5,-1073 456.5,-1142"/>
<text text-anchor="middle" x="313" y="-1126.8" font-family="Times,serif" font-size="14.00" fill="white">JoinSimdSortMerge (AntiNullAsFalse)</text>
<text text-anchor="middle" x="313" y="-1111.8" font-family="Times,serif" font-size="14.00" fill="white">c_custkey = o_custkey</text>
<text text-anchor="middle" x="313" y="-1080.8" font-family="Times,serif" font-size="14.00" fill="white">63 ms 644 µs</text>
</a>
</g>
</g>
<!-- 281444946757776&#45;&gt;281444946758096 -->
<g id="edge5" class="edge">
<title>281444946757776&#45;&gt;281444946758096</title>
<path fill="none" stroke="white" d="M313,-1142.25C313,-1155.07 313,-1169.73 313,-1182.77"/>
<polygon fill="white" stroke="white" points="309.5,-1182.81 313,-1192.81 316.5,-1182.81 309.5,-1182.81"/>
<text text-anchor="middle" x="415.5" y="-1163.8" font-family="Times,serif" font-size="14.00" fill="white">316,798 row(s)/256 chunk(s)</text>
</g>
<!-- 281444946757456 -->
<g id="node7" class="node">
<title>281444946757456</title>
<g id="a_node7"><a xlink:title="Output: 952826 rows in 115 chunks, 13 ms 539 µs.&#10;Chunks: 0 skipped with no results, &#10;0 skipped with all matching, 0 scanned using binary search.">
<polygon fill="none" stroke="white" stroke-width="4.18" points="363.5,-1022 14.5,-1022 14.5,-923 363.5,-923 363.5,-1022"/>
<text text-anchor="middle" x="189" y="-1006.8" font-family="Times,serif" font-size="14.00" fill="white">TableScan</text>
<text text-anchor="middle" x="189" y="-991.8" font-family="Times,serif" font-size="14.00" fill="white">Impl: ExpressionEvaluator</text>
<text text-anchor="middle" x="189" y="-976.8" font-family="Times,serif" font-size="14.00" fill="white">(SUBSTR(c_phone,1,2)) IN (&#39;24&#39;, &#39;10&#39;, &#39;22&#39;, &#39;23&#39;,</text>
<text text-anchor="middle" x="189" y="-961.8" font-family="Times,serif" font-size="14.00" fill="white">&#39;16&#39;, &#39;29&#39;, &#39;12&#39;)</text>
<text text-anchor="middle" x="189" y="-930.8" font-family="Times,serif" font-size="14.00" fill="white">13 ms 539 µs</text>
</a>
</g>
</g>
<!-- 281444946757456&#45;&gt;281444946757776 -->
<g id="edge6" class="edge">
<title>281444946757456&#45;&gt;281444946757776</title>
<path fill="none" stroke="white" d="M191.76,-1022.33C194.33,-1033.95 198.7,-1045.67 206,-1055 209.25,-1059.16 212.92,-1063 216.9,-1066.54"/>
<polygon fill="white" stroke="white" points="217.11,-1066.71 214.9,-1069.43 224.88,-1073 217.11,-1066.71"/>
<text text-anchor="middle" x="308.5" y="-1043.8" font-family="Times,serif" font-size="14.00" fill="white">952,826 row(s)/115 chunk(s)</text>
</g>
<!-- 281444946757136 -->
<g id="node8" class="node">
<title>281444946757136</title>
<g id="a_node8"><a xlink:title="Output: 3408862 rows in 115 chunks, 859 µs 909 ns.&#10;Chunks: 0 skipped with no results, &#10;0 skipped with all matching, 0 scanned using binary search.">
<polygon fill="none" stroke="white" points="357,-857 7,-857 7,-773 357,-773 357,-857"/>
<text text-anchor="middle" x="182" y="-841.8" font-family="Times,serif" font-size="14.00" fill="white">TableScan</text>
<text text-anchor="middle" x="182" y="-826.8" font-family="Times,serif" font-size="14.00" fill="white">Impl: ColumnVsValue</text>
<text text-anchor="middle" x="182" y="-811.8" font-family="Times,serif" font-size="14.00" fill="white">c_acctbal &gt; SUBQUERY (PQP, 0xfff9003e1c10)</text>
<text text-anchor="middle" x="182" y="-780.8" font-family="Times,serif" font-size="14.00" fill="white">859 µs 909 ns</text>
</a>
</g>
</g>
<!-- 281444946757136&#45;&gt;281444946757456 -->
<g id="edge7" class="edge">
<title>281444946757136&#45;&gt;281444946757456</title>
<path fill="none" stroke="white" d="M183.86,-857.26C184.62,-874.27 185.52,-894.29 186.36,-912.77"/>
<polygon fill="white" stroke="white" points="182.86,-913.03 186.81,-922.86 189.86,-912.71 182.86,-913.03"/>
<text text-anchor="middle" x="295.5" y="-893.8" font-family="Times,serif" font-size="14.00" fill="white">3,408,862 row(s)/115 chunk(s)</text>
</g>
<!-- 281444913452816 -->
<g id="node9" class="node">
<title>281444913452816</title>
<g id="a_node9"><a xlink:title="Output: 7500000 rows in 115 chunks, 304 µs 450 ns.">
<polygon fill="none" stroke="white" points="119.5,-692 2.5,-692 2.5,-638 119.5,-638 119.5,-692"/>
<text text-anchor="middle" x="61" y="-676.8" font-family="Times,serif" font-size="14.00" fill="white">Validate</text>
<text text-anchor="middle" x="61" y="-645.8" font-family="Times,serif" font-size="14.00" fill="white">304 µs 450 ns</text>
</a>
</g>
</g>
<!-- 281444913452816&#45;&gt;281444946757136 -->
<g id="edge8" class="edge">
<title>281444913452816&#45;&gt;281444946757136</title>
<path fill="none" stroke="white" stroke-width="2.32" d="M56.75,-692.35C55.67,-707.29 56.67,-725.79 65,-740 70.78,-749.86 78.46,-758.61 87.12,-766.33"/>
<polygon fill="white" stroke="white" stroke-width="2.32" points="85.03,-769.14 94.96,-772.84 89.5,-763.76 85.03,-769.14"/>
<text text-anchor="middle" x="174.5" y="-728.8" font-family="Times,serif" font-size="14.00" fill="white">7,500,000 row(s)/115 chunk(s)</text>
</g>
<!-- 281445253782544 -->
<g id="node10" class="node">
<title>281445253782544</title>
<g id="a_node10"><a xlink:title="Output: 7500000 rows in 115 chunks, 200 µs 289 ns.">
<polygon fill="none" stroke="white" points="122,-572 0,-572 0,-458 122,-458 122,-572"/>
<text text-anchor="middle" x="61" y="-556.8" font-family="Times,serif" font-size="14.00" fill="white">GetTable</text>
<text text-anchor="middle" x="61" y="-541.8" font-family="Times,serif" font-size="14.00" fill="white">(customer)</text>
<text text-anchor="middle" x="61" y="-526.8" font-family="Times,serif" font-size="14.00" fill="white">pruned:</text>
<text text-anchor="middle" x="61" y="-511.8" font-family="Times,serif" font-size="14.00" fill="white">0/115 chunk(s)</text>
<text text-anchor="middle" x="61" y="-496.8" font-family="Times,serif" font-size="14.00" fill="white">5/8 column(s)</text>
<text text-anchor="middle" x="61" y="-465.8" font-family="Times,serif" font-size="14.00" fill="white">200 µs 289 ns</text>
</a>
</g>
</g>
<!-- 281445253782544&#45;&gt;281444913452816 -->
<g id="edge9" class="edge">
<title>281445253782544&#45;&gt;281444913452816</title>
<path fill="none" stroke="white" stroke-width="2.32" d="M61,-572.37C61,-590.87 61,-610.92 61,-627.54"/>
<polygon fill="white" stroke="white" stroke-width="2.32" points="57.5,-627.92 61,-637.92 64.5,-627.92 57.5,-627.92"/>
<text text-anchor="middle" x="170.5" y="-593.8" font-family="Times,serif" font-size="14.00" fill="white">7,500,000 row(s)/115 chunk(s)</text>
</g>
<!-- 281444916010000 -->
<g id="node11" class="node">
<title>281444916010000</title>
<g id="a_node11"><a xlink:title="Output: 1 row in 1 chunk, 11 ms 787 µs.&#10;Operator step runtimes:&#10; GroupByKeyPartitioning 32 ns&#10; Aggregating 11 ms 761 µs&#10; GroupByColumnsWriting 928 ns&#10; AggregateColumnsWriting 12 µs 384 ns&#10; OutputWriting 6 µs 272 ns.">
<polygon fill="none" stroke="white" stroke-width="3.84" points="371,-707 243,-707 243,-623 371,-623 371,-707"/>
<text text-anchor="middle" x="307" y="-691.8" font-family="Times,serif" font-size="14.00" fill="white">AggregateHash</text>
<text text-anchor="middle" x="307" y="-676.8" font-family="Times,serif" font-size="14.00" fill="white">GroupBy {}</text>
<text text-anchor="middle" x="307" y="-661.8" font-family="Times,serif" font-size="14.00" fill="white">AVG(c_acctbal)</text>
<text text-anchor="middle" x="307" y="-630.8" font-family="Times,serif" font-size="14.00" fill="white">11 ms 787 µs</text>
</a>
</g>
</g>
<!-- 281444916010000&#45;&gt;281444946757136 -->
<g id="edge10" class="edge">
<title>281444916010000&#45;&gt;281444946757136</title>
<path fill="none" stroke="white" stroke-dasharray="5,2" d="M299.2,-707.35C295.77,-718.63 290.9,-730.38 284,-740 277.13,-749.58 268.62,-758.41 259.48,-766.38"/>
<polygon fill="white" stroke="white" points="257.13,-763.78 251.68,-772.86 261.61,-769.16 257.13,-763.78"/>
<text text-anchor="middle" x="374.5" y="-728.8" font-family="Times,serif" font-size="14.00" fill="white">uncorrelated subquery</text>
</g>
<!-- 281444946756816 -->
<g id="node12" class="node">
<title>281444946756816</title>
<g id="a_node12"><a xlink:title="Output: 1906765 rows in 115 chunks, 29 ms 250 µs.&#10;Chunks: 0 skipped with no results, &#10;0 skipped with all matching, 0 scanned using binary search.">
<polygon fill="none" stroke="white" stroke-width="6.08" points="489.5,-564.5 140.5,-564.5 140.5,-465.5 489.5,-465.5 489.5,-564.5"/>
<text text-anchor="middle" x="315" y="-549.3" font-family="Times,serif" font-size="14.00" fill="white">TableScan</text>
<text text-anchor="middle" x="315" y="-534.3" font-family="Times,serif" font-size="14.00" fill="white">Impl: ExpressionEvaluator</text>
<text text-anchor="middle" x="315" y="-519.3" font-family="Times,serif" font-size="14.00" fill="white">(SUBSTR(c_phone,1,2)) IN (&#39;24&#39;, &#39;10&#39;, &#39;22&#39;, &#39;23&#39;,</text>
<text text-anchor="middle" x="315" y="-504.3" font-family="Times,serif" font-size="14.00" fill="white">&#39;16&#39;, &#39;29&#39;, &#39;12&#39;)</text>
<text text-anchor="middle" x="315" y="-473.3" font-family="Times,serif" font-size="14.00" fill="white">29 ms 250 µs</text>
</a>
</g>
</g>
<!-- 281444946756816&#45;&gt;281444916010000 -->
<g id="edge11" class="edge">
<title>281444946756816&#45;&gt;281444916010000</title>
<path fill="none" stroke="white" d="M312.36,-564.87C311.54,-580.06 310.63,-596.85 309.8,-612.23"/>
<polygon fill="white" stroke="white" points="306.28,-612.43 309.24,-622.61 313.27,-612.81 306.28,-612.43"/>
<text text-anchor="middle" x="420.5" y="-593.8" font-family="Times,serif" font-size="14.00" fill="white">1,906,765 row(s)/115 chunk(s)</text>
</g>
<!-- 281444913456912 -->
<g id="node13" class="node">
<title>281444913456912</title>
<g id="a_node13"><a xlink:title="Output: 6818542 rows in 115 chunks, 223 µs 297 ns.">
<polygon fill="none" stroke="white" points="373.5,-407 256.5,-407 256.5,-353 373.5,-353 373.5,-407"/>
<text text-anchor="middle" x="315" y="-391.8" font-family="Times,serif" font-size="14.00" fill="white">Validate</text>
<text text-anchor="middle" x="315" y="-360.8" font-family="Times,serif" font-size="14.00" fill="white">223 µs 297 ns</text>
</a>
</g>
</g>
<!-- 281444913456912&#45;&gt;281444946756816 -->
<g id="edge12" class="edge">
<title>281444913456912&#45;&gt;281444946756816</title>
<path fill="none" stroke="white" stroke-width="2.09" d="M315,-407.28C315,-421.01 315,-438.4 315,-455.14"/>
<polygon fill="white" stroke="white" stroke-width="2.09" points="311.5,-455.44 315,-465.44 318.5,-455.44 311.5,-455.44"/>
<text text-anchor="middle" x="424.5" y="-428.8" font-family="Times,serif" font-size="14.00" fill="white">6,818,542 row(s)/115 chunk(s)</text>
</g>
<!-- 281444946755536 -->
<g id="node14" class="node">
<title>281444946755536</title>
<g id="a_node14"><a xlink:title="Output: 6818542 rows in 115 chunks, 674 µs 820 ns.&#10;Chunks: 0 skipped with no results, &#10;0 skipped with all matching, 0 scanned using binary search.">
<polygon fill="none" stroke="white" points="399.5,-302 230.5,-302 230.5,-218 399.5,-218 399.5,-302"/>
<text text-anchor="middle" x="315" y="-286.8" font-family="Times,serif" font-size="14.00" fill="white">TableScan</text>
<text text-anchor="middle" x="315" y="-271.8" font-family="Times,serif" font-size="14.00" fill="white">Impl: ColumnVsValue</text>
<text text-anchor="middle" x="315" y="-256.8" font-family="Times,serif" font-size="14.00" fill="white">c_acctbal &gt; 0</text>
<text text-anchor="middle" x="315" y="-225.8" font-family="Times,serif" font-size="14.00" fill="white">674 µs 820 ns</text>
</a>
</g>
</g>
<!-- 281444946755536&#45;&gt;281444913456912 -->
<g id="edge13" class="edge">
<title>281444946755536&#45;&gt;281444913456912</title>
<path fill="none" stroke="white" stroke-width="2.09" d="M315,-302.27C315,-315.36 315,-329.72 315,-342.45"/>
<polygon fill="white" stroke="white" stroke-width="2.09" points="311.5,-342.69 315,-352.69 318.5,-342.69 311.5,-342.69"/>
<text text-anchor="middle" x="424.5" y="-323.8" font-family="Times,serif" font-size="14.00" fill="white">6,818,542 row(s)/115 chunk(s)</text>
</g>
<!-- 281445253782096 -->
<g id="node15" class="node">
<title>281445253782096</title>
<g id="a_node15"><a xlink:title="Output: 7500000 rows in 115 chunks, 246 µs 785 ns.">
<polygon fill="none" stroke="white" points="376,-140.5 254,-140.5 254,-26.5 376,-26.5 376,-140.5"/>
<text text-anchor="middle" x="315" y="-125.3" font-family="Times,serif" font-size="14.00" fill="white">GetTable</text>
<text text-anchor="middle" x="315" y="-110.3" font-family="Times,serif" font-size="14.00" fill="white">(customer)</text>
<text text-anchor="middle" x="315" y="-95.3" font-family="Times,serif" font-size="14.00" fill="white">pruned:</text>
<text text-anchor="middle" x="315" y="-80.3" font-family="Times,serif" font-size="14.00" fill="white">0/115 chunk(s)</text>
<text text-anchor="middle" x="315" y="-65.3" font-family="Times,serif" font-size="14.00" fill="white">5/8 column(s)</text>
<text text-anchor="middle" x="315" y="-34.3" font-family="Times,serif" font-size="14.00" fill="white">246 µs 785 ns</text>
</a>
</g>
</g>
<!-- 281445253782096&#45;&gt;281444946755536 -->
<g id="edge14" class="edge">
<title>281445253782096&#45;&gt;281444946755536</title>
<path fill="none" stroke="white" stroke-width="2.32" d="M315,-140.67C315,-162.25 315,-186.74 315,-207.83"/>
<polygon fill="white" stroke="white" stroke-width="2.32" points="311.5,-207.87 315,-217.87 318.5,-207.87 311.5,-207.87"/>
<text text-anchor="middle" x="424.5" y="-188.8" font-family="Times,serif" font-size="14.00" fill="white">7,500,000 row(s)/115 chunk(s)</text>
</g>
<!-- 281444913460240 -->
<g id="node16" class="node">
<title>281444913460240</title>
<g id="a_node16"><a xlink:title="Output: 75000000 rows in 1145 chunks, 17 ms 160 µs.">
<polygon fill="none" stroke="white" stroke-width="4.77" points="496.5,-999.5 383.5,-999.5 383.5,-945.5 496.5,-945.5 496.5,-999.5"/>
<text text-anchor="middle" x="440" y="-984.3" font-family="Times,serif" font-size="14.00" fill="white">Validate</text>
<text text-anchor="middle" x="440" y="-953.3" font-family="Times,serif" font-size="14.00" fill="white">17 ms 160 µs</text>
</a>
</g>
</g>
<!-- 281444913460240&#45;&gt;281444946757776 -->
<g id="edge15" class="edge">
<title>281444913460240&#45;&gt;281444946757776</title>
<path fill="none" stroke="white" stroke-width="8" d="M435.85,-999.5C431.94,-1016.88 424.58,-1039.34 411,-1055 407.38,-1059.17 403.34,-1063.06 399.01,-1066.67"/>
<polygon fill="white" stroke="white" stroke-width="8" points="390.95,-1072.87 403.15,-1072.32 398.88,-1066.78 390.95,-1072.87"/>
<text text-anchor="middle" x="541.5" y="-1043.8" font-family="Times,serif" font-size="14.00" fill="white">75,000,000 row(s)/1,145 chunk(s)</text>
</g>
<!-- 281445253782992 -->
<g id="node17" class="node">
<title>281445253782992</title>
<g id="a_node17"><a xlink:title="Output: 75000000 rows in 1145 chunks, 2 ms 575 µs.">
<polygon fill="none" stroke="white" points="506.5,-872 375.5,-872 375.5,-758 506.5,-758 506.5,-872"/>
<text text-anchor="middle" x="441" y="-856.8" font-family="Times,serif" font-size="14.00" fill="white">GetTable</text>
<text text-anchor="middle" x="441" y="-841.8" font-family="Times,serif" font-size="14.00" fill="white">(orders)</text>
<text text-anchor="middle" x="441" y="-826.8" font-family="Times,serif" font-size="14.00" fill="white">pruned:</text>
<text text-anchor="middle" x="441" y="-811.8" font-family="Times,serif" font-size="14.00" fill="white">0/1145 chunk(s)</text>
<text text-anchor="middle" x="441" y="-796.8" font-family="Times,serif" font-size="14.00" fill="white">8/9 column(s)</text>
<text text-anchor="middle" x="441" y="-765.8" font-family="Times,serif" font-size="14.00" fill="white">2 ms 575 µs</text>
</a>
</g>
</g>
<!-- 281445253782992&#45;&gt;281444913460240 -->
<g id="edge16" class="edge">
<title>281445253782992&#45;&gt;281444913460240</title>
<path fill="none" stroke="white" stroke-width="8" d="M440.64,-872.14C440.5,-893.18 440.35,-916.52 440.23,-935.28"/>
<polygon fill="white" stroke="white" stroke-width="8" points="433.23,-935.43 440.17,-945.47 447.23,-935.52 433.23,-935.43"/>
<text text-anchor="middle" x="560.5" y="-893.8" font-family="Times,serif" font-size="14.00" fill="white">75,000,000 row(s)/1,145 chunk(s)</text>
</g>
<!-- 0 -->
<g id="node18" class="node">
<title>0</title>
<polygon fill="none" stroke="white" points="394,-0.5 394,-166.5 740,-166.5 740,-0.5 394,-0.5"/>
<text text-anchor="middle" x="567" y="-151.3" font-family="Times,serif" font-size="14.00" fill="white">Total by operator</text>
<polyline fill="none" stroke="white" points="394,-143.5 740,-143.5 "/>
<text text-anchor="end" x="548" y="-128.3" font-family="Times,serif" font-size="14.00" fill="white">JoinSimdSortMerge </text>
<text text-anchor="end" x="548" y="-113.3" font-family="Times,serif" font-size="14.00" fill="white"> AggregateHash </text>
<text text-anchor="end" x="548" y="-98.3" font-family="Times,serif" font-size="14.00" fill="white"> TableScan </text>
<text text-anchor="end" x="548" y="-83.3" font-family="Times,serif" font-size="14.00" fill="white"> Validate </text>
<text text-anchor="end" x="548" y="-68.3" font-family="Times,serif" font-size="14.00" fill="white"> Projection </text>
<text text-anchor="end" x="548" y="-53.3" font-family="Times,serif" font-size="14.00" fill="white"> GetTable </text>
<text text-anchor="end" x="548" y="-38.3" font-family="Times,serif" font-size="14.00" fill="white"> Alias </text>
<text text-anchor="end" x="548" y="-23.3" font-family="Times,serif" font-size="14.00" fill="white"> Sort </text>
<text text-anchor="end" x="548" y="-8.3" font-family="Times,serif" font-size="14.00" fill="white">total</text>
<polyline fill="none" stroke="white" points="556,-0.5 556,-143.5 "/>
<text text-anchor="start" x="564" y="-128.3" font-family="Times,serif" font-size="14.00" fill="white">63 ms 644 µs </text>
<text text-anchor="start" x="564" y="-113.3" font-family="Times,serif" font-size="14.00" fill="white"> 54 ms 536 µs </text>
<text text-anchor="start" x="564" y="-98.3" font-family="Times,serif" font-size="14.00" fill="white"> 44 ms 324 µs </text>
<text text-anchor="start" x="564" y="-83.3" font-family="Times,serif" font-size="14.00" fill="white"> 17 ms 687 µs </text>
<text text-anchor="start" x="564" y="-68.3" font-family="Times,serif" font-size="14.00" fill="white"> 4 ms 463 µs </text>
<text text-anchor="start" x="564" y="-53.3" font-family="Times,serif" font-size="14.00" fill="white"> 3 ms 22 µs </text>
<text text-anchor="start" x="564" y="-38.3" font-family="Times,serif" font-size="14.00" fill="white"> 100 µs 256 ns </text>
<text text-anchor="start" x="564" y="-23.3" font-family="Times,serif" font-size="14.00" fill="white"> 17 µs 185 ns </text>
<text text-anchor="start" x="564" y="-8.3" font-family="Times,serif" font-size="14.00" fill="white"> 187 ms 794 µs </text>
<polyline fill="none" stroke="white" points="687,-0.5 687,-143.5 "/>
<text text-anchor="start" x="695" y="-128.3" font-family="Times,serif" font-size="14.00" fill="white">34 %</text>
<text text-anchor="start" x="695" y="-113.3" font-family="Times,serif" font-size="14.00" fill="white">29 %</text>
<text text-anchor="start" x="695" y="-98.3" font-family="Times,serif" font-size="14.00" fill="white">24 %</text>
<text text-anchor="start" x="695" y="-83.3" font-family="Times,serif" font-size="14.00" fill="white">9 %</text>
<text text-anchor="start" x="695" y="-68.3" font-family="Times,serif" font-size="14.00" fill="white">2 %</text>
<text text-anchor="start" x="695" y="-53.3" font-family="Times,serif" font-size="14.00" fill="white">2 %</text>
<text text-anchor="start" x="695" y="-38.3" font-family="Times,serif" font-size="14.00" fill="white">0 %</text>
<text text-anchor="start" x="695" y="-23.3" font-family="Times,serif" font-size="14.00" fill="white">0 %</text>
<text text-anchor="start" x="695" y="-8.3" font-family="Times,serif" font-size="14.00" fill="white"> </text>
</g>
</g>
</svg>
