<?xml version="1.0" encoding="UTF-8" standalone="no"?>
<!DOCTYPE svg PUBLIC "-//W3C//DTD SVG 1.1//EN"
 "http://www.w3.org/Graphics/SVG/1.1/DTD/svg11.dtd">
<!-- Generated by graphviz version 2.43.0 (0)
 -->
<!-- Title: G Pages: 1 -->
<svg width="755pt" height="1220pt"
 viewBox="0.00 0.00 754.50 1220.00" xmlns="http://www.w3.org/2000/svg" xmlns:xlink="http://www.w3.org/1999/xlink">
<g id="graph0" class="graph" transform="scale(1 1) rotate(0) translate(4 1216)">
<title>G</title>
<polygon fill="black" stroke="transparent" points="-4,4 -4,-1216 750.5,-1216 750.5,4 -4,4"/>
<text text-anchor="middle" x="319.5" y="-1196.8" font-family="Times,serif" font-size="14.00" fill="white">For tooltips with advanced information, hover your mouse over vertices or edge labels.</text>
<!-- 281455754615376 -->
<g id="node1" class="node">
<title>281455754615376</title>
<g id="a_node1"><a xlink:title="Output: 45 rows in 1 chunk filtered: 0, 3 µs 520 ns.">
<polygon fill="none" stroke="white" points="259.5,-1157 112.5,-1157 112.5,-1088 259.5,-1088 259.5,-1157"/>
<text text-anchor="middle" x="186" y="-1141.8" font-family="Times,serif" font-size="14.00" fill="white">Alias</text>
<text text-anchor="middle" x="186" y="-1126.8" font-family="Times,serif" font-size="14.00" fill="white">[c_count, custdist]</text>
<text text-anchor="middle" x="186" y="-1095.8" font-family="Times,serif" font-size="14.00" fill="white">3 µs 520 ns</text>
</a>
</g>
</g>
<!-- 281455754615056 -->
<g id="node2" class="node">
<title>281455754615056</title>
<g id="a_node2"><a xlink:title="Output: 45 rows in 1 chunk filtered: 0, 25 µs 888 ns.&#10;Operator step runtimes:&#10; MaterializeSortColumns 12 µs 256 ns&#10; Sort 4 µs 0 ns&#10; TemporaryResultWriting 512 ns&#10; WriteOutput 7 µs 424 ns.">
<polygon fill="none" stroke="white" points="240,-1037 132,-1037 132,-983 240,-983 240,-1037"/>
<text text-anchor="middle" x="186" y="-1021.8" font-family="Times,serif" font-size="14.00" fill="white">Sort</text>
<text text-anchor="middle" x="186" y="-990.8" font-family="Times,serif" font-size="14.00" fill="white">25 µs 888 ns</text>
</a>
</g>
</g>
<!-- 281455754615056&#45;&gt;281455754615376 -->
<g id="edge1" class="edge">
<title>281455754615056&#45;&gt;281455754615376</title>
<path fill="none" stroke="white" d="M186,-1037.19C186,-1049.29 186,-1064 186,-1077.72"/>
<polygon fill="white" stroke="white" points="182.5,-1077.95 186,-1087.95 189.5,-1077.96 182.5,-1077.95"/>
<text text-anchor="middle" x="259.5" y="-1058.8" font-family="Times,serif" font-size="14.00" fill="white">45 row(s)/1 chunk(s)</text>
</g>
<!-- 281455652900880 -->
<g id="node3" class="node">
<title>281455652900880</title>
<g id="a_node3"><a xlink:title="Output: 45 rows in 1 chunk filtered: 0, 144 ms 458 µs.&#10;Operator step runtimes:&#10; GroupByKeyPartitioning 70 ms 76 µs&#10; Aggregating 74 ms 259 µs&#10; GroupByColumnsWriting 12 µs 288 ns&#10; AggregateColumnsWriting 8 µs 640 ns&#10; OutputWriting 7 µs 840 ns.">
<polygon fill="none" stroke="white" points="309,-932 63,-932 63,-848 309,-848 309,-932"/>
<text text-anchor="middle" x="186" y="-916.8" font-family="Times,serif" font-size="14.00" fill="white">AggregateHash</text>
<text text-anchor="middle" x="186" y="-901.8" font-family="Times,serif" font-size="14.00" fill="white">GroupBy {COUNT(o_orderkey)}</text>
<text text-anchor="middle" x="186" y="-886.8" font-family="Times,serif" font-size="14.00" fill="white">COUNT(*)</text>
<text text-anchor="middle" x="186" y="-855.8" font-family="Times,serif" font-size="14.00" fill="white">144 ms 458 µs</text>
</a>
</g>
</g>
<!-- 281455652900880&#45;&gt;281455754615056 -->
<g id="edge2" class="edge">
<title>281455652900880&#45;&gt;281455754615056</title>
<path fill="none" stroke="white" d="M186,-932.27C186,-945.36 186,-959.72 186,-972.45"/>
<polygon fill="white" stroke="white" points="182.5,-972.69 186,-982.69 189.5,-972.69 182.5,-972.69"/>
<text text-anchor="middle" x="259.5" y="-953.8" font-family="Times,serif" font-size="14.00" fill="white">45 row(s)/1 chunk(s)</text>
</g>
<!-- 281455754614736 -->
<g id="node4" class="node">
<title>281455754614736</title>
<g id="a_node4"><a xlink:title="Output: 15000000 rows in 229 chunks filtered: 0, 76 µs 289 ns.">
<polygon fill="none" stroke="white" points="264.5,-797 107.5,-797 107.5,-728 264.5,-728 264.5,-797"/>
<text text-anchor="middle" x="186" y="-781.8" font-family="Times,serif" font-size="14.00" fill="white">Alias</text>
<text text-anchor="middle" x="186" y="-766.8" font-family="Times,serif" font-size="14.00" fill="white">[c_custkey, c_count]</text>
<text text-anchor="middle" x="186" y="-735.8" font-family="Times,serif" font-size="14.00" fill="white">76 µs 289 ns</text>
</a>
</g>
</g>
<!-- 281455754614736&#45;&gt;281455652900880 -->
<g id="edge3" class="edge">
<title>281455754614736&#45;&gt;281455652900880</title>
<path fill="none" stroke="white" stroke-width="2.27" d="M186,-797.13C186,-809.51 186,-823.84 186,-837.44"/>
<polygon fill="white" stroke="white" stroke-width="2.27" points="182.5,-837.65 186,-847.65 189.5,-837.65 182.5,-837.65"/>
<text text-anchor="middle" x="300" y="-818.8" font-family="Times,serif" font-size="14.00" fill="white">15,000,000 row(s)/229 chunk(s)</text>
</g>
<!-- 281455652898320 -->
<g id="node5" class="node">
<title>281455652898320</title>
<g id="a_node5"><a xlink:title="Output: 15000000 rows in 229 chunks filtered: 0, 32 s 296 ms.&#10;Operator step runtimes:&#10; GroupByKeyPartitioning 1 s 3 ms&#10; Aggregating 31 s 279 ms&#10; GroupByColumnsWriting 11 ms 592 µs&#10; AggregateColumnsWriting 2 ms 413 µs&#10; OutputWriting 138 µs 753 ns.">
<polygon fill="none" stroke="white" stroke-width="8" points="271.5,-677 100.5,-677 100.5,-593 271.5,-593 271.5,-677"/>
<text text-anchor="middle" x="186" y="-661.8" font-family="Times,serif" font-size="14.00" fill="white">AggregateHash</text>
<text text-anchor="middle" x="186" y="-646.8" font-family="Times,serif" font-size="14.00" fill="white">GroupBy {c_custkey}</text>
<text text-anchor="middle" x="186" y="-631.8" font-family="Times,serif" font-size="14.00" fill="white">COUNT(o_orderkey)</text>
<text text-anchor="middle" x="186" y="-600.8" font-family="Times,serif" font-size="14.00" fill="white">32 s 296 ms</text>
</a>
</g>
</g>
<!-- 281455652898320&#45;&gt;281455754614736 -->
<g id="edge4" class="edge">
<title>281455652898320&#45;&gt;281455754614736</title>
<path fill="none" stroke="white" stroke-width="2.27" d="M186,-677.09C186,-690.07 186,-704.45 186,-717.61"/>
<polygon fill="white" stroke="white" stroke-width="2.27" points="182.5,-717.85 186,-727.85 189.5,-717.85 182.5,-717.85"/>
<text text-anchor="middle" x="300" y="-698.8" font-family="Times,serif" font-size="14.00" fill="white">15,000,000 row(s)/229 chunk(s)</text>
</g>
<!-- 281455754614416 -->
<g id="node6" class="node">
<title>281455754614416</title>
<g id="a_node6"><a xlink:title="Output: 153391145 rows in 256 chunks filtered: 0, 316 ms 932 µs.&#10;Operator step runtimes:&#10; LeftSideMaterialize 4 ms 530 µs&#10; RightSideMaterialize 41 ms 891 µs&#10; LeftSideTransform 0 ns&#10; RightSideTransform 0 ns&#10; LeftSidePartition 8 ms 376 µs&#10; RightSidePartition 59 ms 431 µs&#10; LeftSideSortBuckets 4 ms 146 µs&#10; RightSideSortBuckets 30 ms 941 µs&#10; GatherRowIds 2 µs 496 ns&#10; FindJoinPartner 59 ms 391 µs&#10; OutputWriting 105 ms 293 µs.&#10;Radix bits: 8.">
<polygon fill="none" stroke="white" points="286.5,-542 85.5,-542 85.5,-473 286.5,-473 286.5,-542"/>
<text text-anchor="middle" x="186" y="-526.8" font-family="Times,serif" font-size="14.00" fill="white">JoinSimdSortMerge (Left)</text>
<text text-anchor="middle" x="186" y="-511.8" font-family="Times,serif" font-size="14.00" fill="white">c_custkey = o_custkey</text>
<text text-anchor="middle" x="186" y="-480.8" font-family="Times,serif" font-size="14.00" fill="white">316 ms 932 µs</text>
</a>
</g>
</g>
<!-- 281455754614416&#45;&gt;281455652898320 -->
<g id="edge5" class="edge">
<title>281455754614416&#45;&gt;281455652898320</title>
<path fill="none" stroke="white" stroke-width="8" d="M186,-542.13C186,-554.51 186,-568.84 186,-582.44"/>
<polygon fill="white" stroke="white" stroke-width="8" points="179,-582.65 186,-592.65 193,-582.65 179,-582.65"/>
<text text-anchor="middle" x="304.5" y="-563.8" font-family="Times,serif" font-size="14.00" fill="white">153,391,145 row(s)/256 chunk(s)</text>
</g>
<!-- 281455673085456 -->
<g id="node7" class="node">
<title>281455673085456</title>
<g id="a_node7"><a xlink:title="Output: 15000000 rows in 229 chunks filtered: 0, 651 µs 975 ns.">
<polygon fill="none" stroke="white" points="119.5,-422 2.5,-422 2.5,-368 119.5,-368 119.5,-422"/>
<text text-anchor="middle" x="61" y="-406.8" font-family="Times,serif" font-size="14.00" fill="white">Validate</text>
<text text-anchor="middle" x="61" y="-375.8" font-family="Times,serif" font-size="14.00" fill="white">651 µs 975 ns</text>
</a>
</g>
</g>
<!-- 281455673085456&#45;&gt;281455754614416 -->
<g id="edge6" class="edge">
<title>281455673085456&#45;&gt;281455754614416</title>
<path fill="none" stroke="white" stroke-width="2.27" d="M55.45,-422.29C54.57,-433.25 55.61,-445.6 62,-455 66.23,-461.23 71.38,-466.71 77.13,-471.52"/>
<polygon fill="white" stroke="white" stroke-width="2.27" points="77.33,-471.67 75.23,-474.47 85.32,-477.69 77.33,-471.67"/>
<text text-anchor="middle" x="176" y="-443.8" font-family="Times,serif" font-size="14.00" fill="white">15,000,000 row(s)/229 chunk(s)</text>
</g>
<!-- 281455769749264 -->
<g id="node8" class="node">
<title>281455769749264</title>
<g id="a_node8"><a xlink:title="Output: 15000000 rows in 229 chunks filtered: 0, 461 µs 476 ns.">
<polygon fill="none" stroke="white" points="122,-317 0,-317 0,-203 122,-203 122,-317"/>
<text text-anchor="middle" x="61" y="-301.8" font-family="Times,serif" font-size="14.00" fill="white">GetTable</text>
<text text-anchor="middle" x="61" y="-286.8" font-family="Times,serif" font-size="14.00" fill="white">(customer)</text>
<text text-anchor="middle" x="61" y="-271.8" font-family="Times,serif" font-size="14.00" fill="white">pruned:</text>
<text text-anchor="middle" x="61" y="-256.8" font-family="Times,serif" font-size="14.00" fill="white">0/229 chunk(s)</text>
<text text-anchor="middle" x="61" y="-241.8" font-family="Times,serif" font-size="14.00" fill="white">7/8 column(s)</text>
<text text-anchor="middle" x="61" y="-210.8" font-family="Times,serif" font-size="14.00" fill="white">461 µs 476 ns</text>
</a>
</g>
</g>
<!-- 281455769749264&#45;&gt;281455673085456 -->
<g id="edge7" class="edge">
<title>281455769749264&#45;&gt;281455673085456</title>
<path fill="none" stroke="white" stroke-width="2.27" d="M61,-317.02C61,-330.77 61,-345.14 61,-357.69"/>
<polygon fill="white" stroke="white" stroke-width="2.27" points="57.5,-357.75 61,-367.75 64.5,-357.75 57.5,-357.75"/>
<text text-anchor="middle" x="175" y="-338.8" font-family="Times,serif" font-size="14.00" fill="white">15,000,000 row(s)/229 chunk(s)</text>
</g>
<!-- 281455673085200 -->
<g id="node9" class="node">
<title>281455673085200</title>
<g id="a_node9"><a xlink:title="Output: 148390963 rows in 2289 chunks filtered: 0, 9 ms 448 µs.">
<polygon fill="none" stroke="white" points="364,-422 260,-422 260,-368 364,-368 364,-422"/>
<text text-anchor="middle" x="312" y="-406.8" font-family="Times,serif" font-size="14.00" fill="white">Validate</text>
<text text-anchor="middle" x="312" y="-375.8" font-family="Times,serif" font-size="14.00" fill="white">9 ms 448 µs</text>
</a>
</g>
</g>
<!-- 281455673085200&#45;&gt;281455754614416 -->
<g id="edge8" class="edge">
<title>281455673085200&#45;&gt;281455754614416</title>
<path fill="none" stroke="white" stroke-width="7.92" d="M306.82,-422.08C303.53,-433.26 298.27,-445.83 290,-455 286.2,-459.21 281.99,-463.11 277.49,-466.73"/>
<polygon fill="white" stroke="white" stroke-width="7.92" points="269.11,-472.93 281.27,-472.55 277.15,-466.98 269.11,-472.93"/>
<text text-anchor="middle" x="425" y="-443.8" font-family="Times,serif" font-size="14.00" fill="white">148,390,963 row(s)/2,289 chunk(s)</text>
</g>
<!-- 281455754613776 -->
<g id="node10" class="node">
<title>281455754613776</title>
<g id="a_node10"><a xlink:title="Output: 148390963 rows in 2289 chunks filtered: 0, 93 ms 445 µs.&#10;Chunks: 0 skipped with no results, &#10;0 skipped with all matching, 0 scanned using binary search.">
<polygon fill="none" stroke="white" points="481.5,-302 142.5,-302 142.5,-218 481.5,-218 481.5,-302"/>
<text text-anchor="middle" x="312" y="-286.8" font-family="Times,serif" font-size="14.00" fill="white">TableScan</text>
<text text-anchor="middle" x="312" y="-271.8" font-family="Times,serif" font-size="14.00" fill="white">Impl: ColumnLike</text>
<text text-anchor="middle" x="312" y="-256.8" font-family="Times,serif" font-size="14.00" fill="white">o_comment NOT LIKE &#39;%special%accounts%&#39;</text>
<text text-anchor="middle" x="312" y="-225.8" font-family="Times,serif" font-size="14.00" fill="white">93 ms 445 µs</text>
</a>
</g>
</g>
<!-- 281455754613776&#45;&gt;281455673085200 -->
<g id="edge9" class="edge">
<title>281455754613776&#45;&gt;281455673085200</title>
<path fill="none" stroke="white" stroke-width="7.92" d="M312,-302.35C312,-320.03 312,-340.5 312,-357.6"/>
<polygon fill="white" stroke="white" stroke-width="7.92" points="305.07,-357.75 312,-367.75 318.93,-357.75 305.07,-357.75"/>
<text text-anchor="middle" x="437" y="-338.8" font-family="Times,serif" font-size="14.00" fill="white">148,390,963 row(s)/2,289 chunk(s)</text>
</g>
<!-- 281455769749712 -->
<g id="node11" class="node">
<title>281455769749712</title>
<g id="a_node11"><a xlink:title="Output: 150000000 rows in 2289 chunks filtered: 0, 2 ms 837 µs.">
<polygon fill="none" stroke="white" points="377.5,-133 246.5,-133 246.5,-19 377.5,-19 377.5,-133"/>
<text text-anchor="middle" x="312" y="-117.8" font-family="Times,serif" font-size="14.00" fill="white">GetTable</text>
<text text-anchor="middle" x="312" y="-102.8" font-family="Times,serif" font-size="14.00" fill="white">(orders)</text>
<text text-anchor="middle" x="312" y="-87.8" font-family="Times,serif" font-size="14.00" fill="white">pruned:</text>
<text text-anchor="middle" x="312" y="-72.8" font-family="Times,serif" font-size="14.00" fill="white">0/2289 chunk(s)</text>
<text text-anchor="middle" x="312" y="-57.8" font-family="Times,serif" font-size="14.00" fill="white">6/9 column(s)</text>
<text text-anchor="middle" x="312" y="-26.8" font-family="Times,serif" font-size="14.00" fill="white">2 ms 837 µs</text>
</a>
</g>
</g>
<!-- 281455769749712&#45;&gt;281455754613776 -->
<g id="edge10" class="edge">
<title>281455769749712&#45;&gt;281455754613776</title>
<path fill="none" stroke="white" stroke-width="7.94" d="M312,-133.09C312,-156.93 312,-184.53 312,-207.81"/>
<polygon fill="white" stroke="white" stroke-width="7.94" points="305.05,-207.83 312,-217.83 318.95,-207.83 305.05,-207.83"/>
<text text-anchor="middle" x="437" y="-173.8" font-family="Times,serif" font-size="14.00" fill="white">150,000,000 row(s)/2,289 chunk(s)</text>
</g>
<!-- 0 -->
<g id="node12" class="node">
<title>0</title>
<polygon fill="none" stroke="white" points="395.5,-0.5 395.5,-151.5 746.5,-151.5 746.5,-0.5 395.5,-0.5"/>
<text text-anchor="middle" x="571" y="-136.3" font-family="Times,serif" font-size="14.00" fill="white">Total by operator</text>
<polyline fill="none" stroke="white" points="395.5,-128.5 746.5,-128.5 "/>
<text text-anchor="end" x="554.5" y="-113.3" font-family="Times,serif" font-size="14.00" fill="white">AggregateHash </text>
<text text-anchor="end" x="554.5" y="-98.3" font-family="Times,serif" font-size="14.00" fill="white"> JoinSimdSortMerge </text>
<text text-anchor="end" x="554.5" y="-83.3" font-family="Times,serif" font-size="14.00" fill="white"> TableScan </text>
<text text-anchor="end" x="554.5" y="-68.3" font-family="Times,serif" font-size="14.00" fill="white"> Validate </text>
<text text-anchor="end" x="554.5" y="-53.3" font-family="Times,serif" font-size="14.00" fill="white"> GetTable </text>
<text text-anchor="end" x="554.5" y="-38.3" font-family="Times,serif" font-size="14.00" fill="white"> Alias </text>
<text text-anchor="end" x="554.5" y="-23.3" font-family="Times,serif" font-size="14.00" fill="white"> Sort </text>
<text text-anchor="end" x="554.5" y="-8.3" font-family="Times,serif" font-size="14.00" fill="white">total</text>
<polyline fill="none" stroke="white" points="562.5,-0.5 562.5,-128.5 "/>
<text text-anchor="start" x="570.5" y="-113.3" font-family="Times,serif" font-size="14.00" fill="white">32 s 440 ms </text>
<text text-anchor="start" x="570.5" y="-98.3" font-family="Times,serif" font-size="14.00" fill="white"> 316 ms 932 µs </text>
<text text-anchor="start" x="570.5" y="-83.3" font-family="Times,serif" font-size="14.00" fill="white"> 93 ms 445 µs </text>
<text text-anchor="start" x="570.5" y="-68.3" font-family="Times,serif" font-size="14.00" fill="white"> 10 ms 100 µs </text>
<text text-anchor="start" x="570.5" y="-53.3" font-family="Times,serif" font-size="14.00" fill="white"> 3 ms 298 µs </text>
<text text-anchor="start" x="570.5" y="-38.3" font-family="Times,serif" font-size="14.00" fill="white"> 79 µs 809 ns </text>
<text text-anchor="start" x="570.5" y="-23.3" font-family="Times,serif" font-size="14.00" fill="white"> 25 µs 888 ns </text>
<text text-anchor="start" x="570.5" y="-8.3" font-family="Times,serif" font-size="14.00" fill="white"> 32 s 864 ms </text>
<polyline fill="none" stroke="white" points="693.5,-0.5 693.5,-128.5 "/>
<text text-anchor="start" x="701.5" y="-113.3" font-family="Times,serif" font-size="14.00" fill="white">99 %</text>
<text text-anchor="start" x="701.5" y="-98.3" font-family="Times,serif" font-size="14.00" fill="white">1 %</text>
<text text-anchor="start" x="701.5" y="-83.3" font-family="Times,serif" font-size="14.00" fill="white">0 %</text>
<text text-anchor="start" x="701.5" y="-68.3" font-family="Times,serif" font-size="14.00" fill="white">0 %</text>
<text text-anchor="start" x="701.5" y="-53.3" font-family="Times,serif" font-size="14.00" fill="white">0 %</text>
<text text-anchor="start" x="701.5" y="-38.3" font-family="Times,serif" font-size="14.00" fill="white">0 %</text>
<text text-anchor="start" x="701.5" y="-23.3" font-family="Times,serif" font-size="14.00" fill="white">0 %</text>
<text text-anchor="start" x="701.5" y="-8.3" font-family="Times,serif" font-size="14.00" fill="white"> </text>
</g>
</g>
</svg>
