<?xml version="1.0" encoding="UTF-8" standalone="no"?>
<!DOCTYPE svg PUBLIC "-//W3C//DTD SVG 1.1//EN"
 "http://www.w3.org/Graphics/SVG/1.1/DTD/svg11.dtd">
<!-- Generated by graphviz version 2.43.0 (0)
 -->
<!-- Title: G Pages: 1 -->
<svg width="904pt" height="1370pt"
 viewBox="0.00 0.00 904.00 1370.00" xmlns="http://www.w3.org/2000/svg" xmlns:xlink="http://www.w3.org/1999/xlink">
<g id="graph0" class="graph" transform="scale(1 1) rotate(0) translate(4 1366)">
<title>G</title>
<polygon fill="black" stroke="transparent" points="-4,4 -4,-1366 900,-1366 900,4 -4,4"/>
<text text-anchor="middle" x="319.5" y="-1346.8" font-family="Times,serif" font-size="14.00" fill="white">For tooltips with advanced information, hover your mouse over vertices or edge labels.</text>
<!-- 281410020968976 -->
<g id="node1" class="node">
<title>281410020968976</title>
<g id="a_node1"><a xlink:title="Output: 5 rows in 1 chunk filtered: 0, 2 µs 848 ns.">
<polygon fill="none" stroke="white" points="584,-1307 357,-1307 357,-1238 584,-1238 584,-1307"/>
<text text-anchor="middle" x="470.5" y="-1291.8" font-family="Times,serif" font-size="14.00" fill="white">Alias</text>
<text text-anchor="middle" x="470.5" y="-1276.8" font-family="Times,serif" font-size="14.00" fill="white">[o_orderpriority, order_count]</text>
<text text-anchor="middle" x="470.5" y="-1245.8" font-family="Times,serif" font-size="14.00" fill="white">2 µs 848 ns</text>
</a>
</g>
</g>
<!-- 281410020968656 -->
<g id="node2" class="node">
<title>281410020968656</title>
<g id="a_node2"><a xlink:title="Output: 5 rows in 1 chunk filtered: 0, 19 µs 904 ns.&#10;Operator step runtimes:&#10; MaterializeSortColumns 5 µs 248 ns&#10; Sort 2 µs 912 ns&#10; TemporaryResultWriting 448 ns&#10; WriteOutput 8 µs 192 ns.">
<polygon fill="none" stroke="white" points="524.5,-1187 416.5,-1187 416.5,-1133 524.5,-1133 524.5,-1187"/>
<text text-anchor="middle" x="470.5" y="-1171.8" font-family="Times,serif" font-size="14.00" fill="white">Sort</text>
<text text-anchor="middle" x="470.5" y="-1140.8" font-family="Times,serif" font-size="14.00" fill="white">19 µs 904 ns</text>
</a>
</g>
</g>
<!-- 281410020968656&#45;&gt;281410020968976 -->
<g id="edge1" class="edge">
<title>281410020968656&#45;&gt;281410020968976</title>
<path fill="none" stroke="white" d="M470.5,-1187.19C470.5,-1199.29 470.5,-1214 470.5,-1227.72"/>
<polygon fill="white" stroke="white" points="467,-1227.95 470.5,-1237.95 474,-1227.96 467,-1227.95"/>
<text text-anchor="middle" x="539.5" y="-1208.8" font-family="Times,serif" font-size="14.00" fill="white">5 row(s)/1 chunk(s)</text>
</g>
<!-- 281410045280272 -->
<g id="node3" class="node">
<title>281410045280272</title>
<g id="a_node3"><a xlink:title="Output: 5 rows in 1 chunk filtered: 0, 355 ms 698 µs.&#10;Operator step runtimes:&#10; GroupByKeyPartitioning 342 ms 492 µs&#10; Aggregating 13 ms 145 µs&#10; GroupByColumnsWriting 7 µs 424 ns&#10; AggregateColumnsWriting 13 µs 504 ns&#10; OutputWriting 7 µs 937 ns.">
<polygon fill="none" stroke="white" stroke-width="8" points="575.5,-1082 365.5,-1082 365.5,-998 575.5,-998 575.5,-1082"/>
<text text-anchor="middle" x="470.5" y="-1066.8" font-family="Times,serif" font-size="14.00" fill="white">AggregateHash</text>
<text text-anchor="middle" x="470.5" y="-1051.8" font-family="Times,serif" font-size="14.00" fill="white">GroupBy {o_orderpriority}</text>
<text text-anchor="middle" x="470.5" y="-1036.8" font-family="Times,serif" font-size="14.00" fill="white">COUNT(*)</text>
<text text-anchor="middle" x="470.5" y="-1005.8" font-family="Times,serif" font-size="14.00" fill="white">355 ms 698 µs</text>
</a>
</g>
</g>
<!-- 281410045280272&#45;&gt;281410020968656 -->
<g id="edge2" class="edge">
<title>281410045280272&#45;&gt;281410020968656</title>
<path fill="none" stroke="white" d="M470.5,-1082.27C470.5,-1095.36 470.5,-1109.72 470.5,-1122.45"/>
<polygon fill="white" stroke="white" points="467,-1122.69 470.5,-1132.69 474,-1122.69 467,-1122.69"/>
<text text-anchor="middle" x="539.5" y="-1103.8" font-family="Times,serif" font-size="14.00" fill="white">5 row(s)/1 chunk(s)</text>
</g>
<!-- 281410020968336 -->
<g id="node4" class="node">
<title>281410020968336</title>
<g id="a_node4"><a xlink:title="Output: 2628420 rows in 64 chunks filtered: 0, 46 ms 260 µs.&#10;Operator step runtimes:&#10; LeftSideMaterialize 2 ms 944 µs&#10; RightSideMaterialize 31 ms 701 µs&#10; LeftSideTransform 0 ns&#10; RightSideTransform 0 ns&#10; LeftSidePartition 1 ms 339 µs&#10; RightSidePartition 3 ms 103 µs&#10; LeftSideSortBuckets 1 ms 333 µs&#10; RightSideSortBuckets 748 µs 111 ns&#10; GatherRowIds 1 µs 88 ns&#10; FindJoinPartner 2 ms 45 µs&#10; OutputWriting 2 ms 181 µs.&#10;Radix bits: 8.">
<polygon fill="none" stroke="white" stroke-width="2.97" points="575,-947 366,-947 366,-878 575,-878 575,-947"/>
<text text-anchor="middle" x="470.5" y="-931.8" font-family="Times,serif" font-size="14.00" fill="white">JoinSimdSortMerge (Semi)</text>
<text text-anchor="middle" x="470.5" y="-916.8" font-family="Times,serif" font-size="14.00" fill="white">o_orderkey = l_orderkey</text>
<text text-anchor="middle" x="470.5" y="-885.8" font-family="Times,serif" font-size="14.00" fill="white">46 ms 260 µs</text>
</a>
</g>
</g>
<!-- 281410020968336&#45;&gt;281410045280272 -->
<g id="edge3" class="edge">
<title>281410020968336&#45;&gt;281410045280272</title>
<path fill="none" stroke="white" d="M470.5,-947.13C470.5,-959.51 470.5,-973.84 470.5,-987.44"/>
<polygon fill="white" stroke="white" points="467,-987.65 470.5,-997.65 474,-987.65 467,-987.65"/>
<text text-anchor="middle" x="575.5" y="-968.8" font-family="Times,serif" font-size="14.00" fill="white">2,628,420 row(s)/64 chunk(s)</text>
</g>
<!-- 281410042397200 -->
<g id="node5" class="node">
<title>281410042397200</title>
<g id="a_node5"><a xlink:title="Output: 2866672 rows in 1145 chunks filtered: 0, 1 ms 646 µs.">
<polygon fill="none" stroke="white" points="513.5,-437 409.5,-437 409.5,-383 513.5,-383 513.5,-437"/>
<text text-anchor="middle" x="461.5" y="-421.8" font-family="Times,serif" font-size="14.00" fill="white">Validate</text>
<text text-anchor="middle" x="461.5" y="-390.8" font-family="Times,serif" font-size="14.00" fill="white">1 ms 646 µs</text>
</a>
</g>
</g>
<!-- 281410042397200&#45;&gt;281410020968336 -->
<g id="edge4" class="edge">
<title>281410042397200&#45;&gt;281410020968336</title>
<path fill="none" stroke="white" d="M513.65,-434.94C534.64,-447.09 557.22,-463.81 571.5,-485 588.38,-510.05 585.5,-521.3 585.5,-551.5 585.5,-551.5 585.5,-551.5 585.5,-786 585.5,-819.47 591.57,-833.21 571.5,-860 568.41,-864.13 564.89,-867.95 561.07,-871.48"/>
<polygon fill="white" stroke="white" points="561.03,-871.51 558.78,-868.83 553.37,-877.94 561.03,-871.51"/>
<text text-anchor="middle" x="701.5" y="-661.3" font-family="Times,serif" font-size="14.00" fill="white">2,866,672 row(s)/1,145 chunk(s)</text>
</g>
<!-- 281410020967056 -->
<g id="node10" class="node">
<title>281410020967056</title>
<g id="a_node10"><a xlink:title="Output: 11468384 rows in 64 chunks filtered: 0, 201 ms 865 µs.&#10;Operator step runtimes:&#10; LeftSideMaterialize 20 ms 356 µs&#10; RightSideMaterialize 3 ms 100 µs&#10; LeftSideTransform 0 ns&#10; RightSideTransform 0 ns&#10; LeftSidePartition 119 ms 573 µs&#10; RightSidePartition 1 ms 492 µs&#10; LeftSideSortBuckets 33 ms 848 µs&#10; RightSideSortBuckets 1 ms 357 µs&#10; GatherRowIds 1 µs 440 ns&#10; FindJoinPartner 18 ms 181 µs&#10; OutputWriting 269 µs 573 ns.&#10;Radix bits: 8.">
<polygon fill="none" stroke="white" stroke-width="6.6" points="481,-587 196,-587 196,-518 481,-518 481,-587"/>
<text text-anchor="middle" x="338.5" y="-571.8" font-family="Times,serif" font-size="14.00" fill="white">JoinSimdSortMerge (Semi Reduction)</text>
<text text-anchor="middle" x="338.5" y="-556.8" font-family="Times,serif" font-size="14.00" fill="white">l_orderkey = o_orderkey</text>
<text text-anchor="middle" x="338.5" y="-525.8" font-family="Times,serif" font-size="14.00" fill="white">201 ms 865 µs</text>
</a>
</g>
</g>
<!-- 281410042397200&#45;&gt;281410020967056 -->
<g id="edge5" class="edge">
<title>281410042397200&#45;&gt;281410020967056</title>
<path fill="none" stroke="white" d="M409.19,-428.76C383.4,-440.45 354.65,-458.56 339.5,-485 335.54,-491.9 333.65,-499.91 332.98,-507.92"/>
<polygon fill="white" stroke="white" points="332.74,-517.99 336.48,-508.08 332.98,-508 332.74,-517.99"/>
<text text-anchor="middle" x="455.5" y="-488.8" font-family="Times,serif" font-size="14.00" fill="white">2,866,672 row(s)/1,145 chunk(s)</text>
</g>
<!-- 281410020967376 -->
<g id="node6" class="node">
<title>281410020967376</title>
<g id="a_node6"><a xlink:title="Output: 2866672 rows in 1145 chunks filtered: 0, 3 ms 129 µs.&#10;Chunks: 0 skipped with no results, &#10;0 skipped with all matching, 0 scanned using binary search.">
<polygon fill="none" stroke="white" points="674,-302 249,-302 249,-203 674,-203 674,-302"/>
<text text-anchor="middle" x="461.5" y="-286.8" font-family="Times,serif" font-size="14.00" fill="white">TableScan</text>
<text text-anchor="middle" x="461.5" y="-271.8" font-family="Times,serif" font-size="14.00" fill="white">Impl: ColumnBetween</text>
<text text-anchor="middle" x="461.5" y="-256.8" font-family="Times,serif" font-size="14.00" fill="white">o_orderdate BETWEEN UPPER EXCLUSIVE &#39;1993&#45;07&#45;01&#39;</text>
<text text-anchor="middle" x="461.5" y="-241.8" font-family="Times,serif" font-size="14.00" fill="white">AND &#39;1993&#45;10&#45;01&#39;</text>
<text text-anchor="middle" x="461.5" y="-210.8" font-family="Times,serif" font-size="14.00" fill="white">3 ms 129 µs</text>
</a>
</g>
</g>
<!-- 281410020967376&#45;&gt;281410042397200 -->
<g id="edge6" class="edge">
<title>281410020967376&#45;&gt;281410042397200</title>
<path fill="none" stroke="white" d="M461.5,-302.27C461.5,-324.98 461.5,-351.53 461.5,-372.47"/>
<polygon fill="white" stroke="white" points="458,-372.56 461.5,-382.56 465,-372.56 458,-372.56"/>
<text text-anchor="middle" x="577.5" y="-323.8" font-family="Times,serif" font-size="14.00" fill="white">2,866,672 row(s)/1,145 chunk(s)</text>
</g>
<!-- 281410043641872 -->
<g id="node7" class="node">
<title>281410043641872</title>
<g id="a_node7"><a xlink:title="Output: 75000000 rows in 1145 chunks filtered: 0, 2 ms 222 µs.">
<polygon fill="none" stroke="white" points="527,-133 396,-133 396,-19 527,-19 527,-133"/>
<text text-anchor="middle" x="461.5" y="-117.8" font-family="Times,serif" font-size="14.00" fill="white">GetTable</text>
<text text-anchor="middle" x="461.5" y="-102.8" font-family="Times,serif" font-size="14.00" fill="white">(orders)</text>
<text text-anchor="middle" x="461.5" y="-87.8" font-family="Times,serif" font-size="14.00" fill="white">pruned:</text>
<text text-anchor="middle" x="461.5" y="-72.8" font-family="Times,serif" font-size="14.00" fill="white">0/1145 chunk(s)</text>
<text text-anchor="middle" x="461.5" y="-57.8" font-family="Times,serif" font-size="14.00" fill="white">6/9 column(s)</text>
<text text-anchor="middle" x="461.5" y="-26.8" font-family="Times,serif" font-size="14.00" fill="white">2 ms 222 µs</text>
</a>
</g>
</g>
<!-- 281410043641872&#45;&gt;281410020967376 -->
<g id="edge7" class="edge">
<title>281410043641872&#45;&gt;281410020967376</title>
<path fill="none" stroke="white" stroke-width="4.58" d="M461.5,-133.17C461.5,-152.18 461.5,-173.44 461.5,-192.64"/>
<polygon fill="white" stroke="white" stroke-width="4.58" points="457.49,-192.77 461.5,-202.77 465.51,-192.77 457.49,-192.77"/>
<text text-anchor="middle" x="582" y="-173.8" font-family="Times,serif" font-size="14.00" fill="white">75,000,000 row(s)/1,145 chunk(s)</text>
</g>
<!-- 281410020968016 -->
<g id="node8" class="node">
<title>281410020968016</title>
<g id="a_node8"><a xlink:title="Output: 7248203 rows in 64 chunks filtered: 0, 64 ms 232 µs.&#10;Chunks: 0 skipped with no results, &#10;0 skipped with all matching, 0 scanned using binary search.">
<polygon fill="none" stroke="white" stroke-width="3.78" points="468,-827 241,-827 241,-743 468,-743 468,-827"/>
<text text-anchor="middle" x="354.5" y="-811.8" font-family="Times,serif" font-size="14.00" fill="white">TableScan</text>
<text text-anchor="middle" x="354.5" y="-796.8" font-family="Times,serif" font-size="14.00" fill="white">Impl: ColumnVsColumn</text>
<text text-anchor="middle" x="354.5" y="-781.8" font-family="Times,serif" font-size="14.00" fill="white">l_commitdate &lt; l_receiptdate</text>
<text text-anchor="middle" x="354.5" y="-750.8" font-family="Times,serif" font-size="14.00" fill="white">64 ms 232 µs</text>
</a>
</g>
</g>
<!-- 281410020968016&#45;&gt;281410020968336 -->
<g id="edge8" class="edge">
<title>281410020968016&#45;&gt;281410020968336</title>
<path fill="none" stroke="white" d="M351.1,-827C351.98,-838.52 354.83,-850.49 361.5,-860 364.21,-863.86 367.29,-867.44 370.65,-870.77"/>
<polygon fill="white" stroke="white" points="378.42,-877.62 373.24,-868.38 370.93,-871.01 378.42,-877.62"/>
<text text-anchor="middle" x="466.5" y="-848.8" font-family="Times,serif" font-size="14.00" fill="white">7,248,203 row(s)/64 chunk(s)</text>
</g>
<!-- 281410042398224 -->
<g id="node9" class="node">
<title>281410042398224</title>
<g id="a_node9"><a xlink:title="Output: 11468384 rows in 64 chunks filtered: 0, 15 ms 291 µs.">
<polygon fill="none" stroke="white" points="408,-692 295,-692 295,-638 408,-638 408,-692"/>
<text text-anchor="middle" x="351.5" y="-676.8" font-family="Times,serif" font-size="14.00" fill="white">Validate</text>
<text text-anchor="middle" x="351.5" y="-645.8" font-family="Times,serif" font-size="14.00" fill="white">15 ms 291 µs</text>
</a>
</g>
</g>
<!-- 281410042398224&#45;&gt;281410020968016 -->
<g id="edge9" class="edge">
<title>281410042398224&#45;&gt;281410020968016</title>
<path fill="none" stroke="white" d="M351.85,-692.14C352.01,-702.39 352.23,-714.25 352.5,-725 352.56,-727.51 352.63,-730.08 352.71,-732.68"/>
<polygon fill="white" stroke="white" points="349.21,-732.85 353.01,-742.74 356.21,-732.64 349.21,-732.85"/>
<text text-anchor="middle" x="462" y="-713.8" font-family="Times,serif" font-size="14.00" fill="white">11,468,384 row(s)/64 chunk(s)</text>
</g>
<!-- 281410020967056&#45;&gt;281410042398224 -->
<g id="edge10" class="edge">
<title>281410020967056&#45;&gt;281410042398224</title>
<path fill="none" stroke="white" d="M342.47,-587.25C343.98,-600.07 345.7,-614.73 347.24,-627.77"/>
<polygon fill="white" stroke="white" points="343.77,-628.29 348.42,-637.81 350.73,-627.47 343.77,-628.29"/>
<text text-anchor="middle" x="455" y="-608.8" font-family="Times,serif" font-size="14.00" fill="white">11,468,384 row(s)/64 chunk(s)</text>
</g>
<!-- 281410043642320 -->
<g id="node11" class="node">
<title>281410043642320</title>
<g id="a_node11"><a xlink:title="Output: 300005811 rows in 4578 chunks filtered: 0, 6 ms 839 µs.">
<polygon fill="none" stroke="white" points="131,-467 0,-467 0,-353 131,-353 131,-467"/>
<text text-anchor="middle" x="65.5" y="-451.8" font-family="Times,serif" font-size="14.00" fill="white">GetTable</text>
<text text-anchor="middle" x="65.5" y="-436.8" font-family="Times,serif" font-size="14.00" fill="white">(lineitem)</text>
<text text-anchor="middle" x="65.5" y="-421.8" font-family="Times,serif" font-size="14.00" fill="white">pruned:</text>
<text text-anchor="middle" x="65.5" y="-406.8" font-family="Times,serif" font-size="14.00" fill="white">0/4578 chunk(s)</text>
<text text-anchor="middle" x="65.5" y="-391.8" font-family="Times,serif" font-size="14.00" fill="white">13/16 column(s)</text>
<text text-anchor="middle" x="65.5" y="-360.8" font-family="Times,serif" font-size="14.00" fill="white">6 ms 839 µs</text>
</a>
</g>
</g>
<!-- 281410043642320&#45;&gt;281410020967056 -->
<g id="edge11" class="edge">
<title>281410043642320&#45;&gt;281410020967056</title>
<path fill="none" stroke="white" stroke-width="8" d="M64.05,-467.02C66.33,-479.2 70.94,-491.09 79.5,-500 95.47,-516.63 138.89,-528.14 185.71,-535.99"/>
<polygon fill="white" stroke="white" stroke-width="8" points="185.87,-536.02 184.75,-542.93 195.74,-537.61 185.87,-536.02"/>
<text text-anchor="middle" x="204.5" y="-488.8" font-family="Times,serif" font-size="14.00" fill="white">300,005,811 row(s)/4,578 chunk(s)</text>
</g>
<!-- 0 -->
<g id="node12" class="node">
<title>0</title>
<polygon fill="none" stroke="white" points="545,-0.5 545,-151.5 896,-151.5 896,-0.5 545,-0.5"/>
<text text-anchor="middle" x="720.5" y="-136.3" font-family="Times,serif" font-size="14.00" fill="white">Total by operator</text>
<polyline fill="none" stroke="white" points="545,-128.5 896,-128.5 "/>
<text text-anchor="end" x="704" y="-113.3" font-family="Times,serif" font-size="14.00" fill="white">AggregateHash </text>
<text text-anchor="end" x="704" y="-98.3" font-family="Times,serif" font-size="14.00" fill="white"> JoinSimdSortMerge </text>
<text text-anchor="end" x="704" y="-83.3" font-family="Times,serif" font-size="14.00" fill="white"> TableScan </text>
<text text-anchor="end" x="704" y="-68.3" font-family="Times,serif" font-size="14.00" fill="white"> Validate </text>
<text text-anchor="end" x="704" y="-53.3" font-family="Times,serif" font-size="14.00" fill="white"> GetTable </text>
<text text-anchor="end" x="704" y="-38.3" font-family="Times,serif" font-size="14.00" fill="white"> Sort </text>
<text text-anchor="end" x="704" y="-23.3" font-family="Times,serif" font-size="14.00" fill="white"> Alias </text>
<text text-anchor="end" x="704" y="-8.3" font-family="Times,serif" font-size="14.00" fill="white">total</text>
<polyline fill="none" stroke="white" points="712,-0.5 712,-128.5 "/>
<text text-anchor="start" x="720" y="-113.3" font-family="Times,serif" font-size="14.00" fill="white">355 ms 698 µs </text>
<text text-anchor="start" x="720" y="-98.3" font-family="Times,serif" font-size="14.00" fill="white"> 248 ms 125 µs </text>
<text text-anchor="start" x="720" y="-83.3" font-family="Times,serif" font-size="14.00" fill="white"> 67 ms 360 µs </text>
<text text-anchor="start" x="720" y="-68.3" font-family="Times,serif" font-size="14.00" fill="white"> 16 ms 937 µs </text>
<text text-anchor="start" x="720" y="-53.3" font-family="Times,serif" font-size="14.00" fill="white"> 9 ms 61 µs </text>
<text text-anchor="start" x="720" y="-38.3" font-family="Times,serif" font-size="14.00" fill="white"> 19 µs 904 ns </text>
<text text-anchor="start" x="720" y="-23.3" font-family="Times,serif" font-size="14.00" fill="white"> 2 µs 848 ns </text>
<text text-anchor="start" x="720" y="-8.3" font-family="Times,serif" font-size="14.00" fill="white"> 697 ms 205 µs </text>
<polyline fill="none" stroke="white" points="843,-0.5 843,-128.5 "/>
<text text-anchor="start" x="851" y="-113.3" font-family="Times,serif" font-size="14.00" fill="white">51 %</text>
<text text-anchor="start" x="851" y="-98.3" font-family="Times,serif" font-size="14.00" fill="white">36 %</text>
<text text-anchor="start" x="851" y="-83.3" font-family="Times,serif" font-size="14.00" fill="white">10 %</text>
<text text-anchor="start" x="851" y="-68.3" font-family="Times,serif" font-size="14.00" fill="white">2 %</text>
<text text-anchor="start" x="851" y="-53.3" font-family="Times,serif" font-size="14.00" fill="white">1 %</text>
<text text-anchor="start" x="851" y="-38.3" font-family="Times,serif" font-size="14.00" fill="white">0 %</text>
<text text-anchor="start" x="851" y="-23.3" font-family="Times,serif" font-size="14.00" fill="white">0 %</text>
<text text-anchor="start" x="851" y="-8.3" font-family="Times,serif" font-size="14.00" fill="white"> </text>
</g>
</g>
</svg>
