<?xml version="1.0" encoding="UTF-8" standalone="no"?>
<!DOCTYPE svg PUBLIC "-//W3C//DTD SVG 1.1//EN"
 "http://www.w3.org/Graphics/SVG/1.1/DTD/svg11.dtd">
<!-- Generated by graphviz version 2.43.0 (0)
 -->
<!-- Title: G Pages: 1 -->
<svg width="1443pt" height="1910pt"
 viewBox="0.00 0.00 1443.00 1910.00" xmlns="http://www.w3.org/2000/svg" xmlns:xlink="http://www.w3.org/1999/xlink">
<g id="graph0" class="graph" transform="scale(1 1) rotate(0) translate(4 1906)">
<title>G</title>
<polygon fill="black" stroke="transparent" points="-4,4 -4,-1906 1439,-1906 1439,4 -4,4"/>
<text text-anchor="middle" x="319.5" y="-1886.8" font-family="Times,serif" font-size="14.00" fill="white">For tooltips with advanced information, hover your mouse over vertices or edge labels.</text>
<!-- 281454046026000 -->
<g id="node1" class="node">
<title>281454046026000</title>
<g id="a_node1"><a xlink:title="Output: 175 rows in 1 chunk filtered: 0, 3 µs 200 ns.">
<polygon fill="none" stroke="white" points="473.5,-1847 262.5,-1847 262.5,-1778 473.5,-1778 473.5,-1847"/>
<text text-anchor="middle" x="368" y="-1831.8" font-family="Times,serif" font-size="14.00" fill="white">Alias</text>
<text text-anchor="middle" x="368" y="-1816.8" font-family="Times,serif" font-size="14.00" fill="white">[nation, o_year, sum_profit]</text>
<text text-anchor="middle" x="368" y="-1785.8" font-family="Times,serif" font-size="14.00" fill="white">3 µs 200 ns</text>
</a>
</g>
</g>
<!-- 281454046025680 -->
<g id="node2" class="node">
<title>281454046025680</title>
<g id="a_node2"><a xlink:title="Output: 175 rows in 1 chunk filtered: 0, 98 µs 50 ns.&#10;Operator step runtimes:&#10; MaterializeSortColumns 33 µs 921 ns&#10; Sort 44 µs 417 ns&#10; TemporaryResultWriting 2 µs 624 ns&#10; WriteOutput 13 µs 88 ns.">
<polygon fill="none" stroke="white" points="417.5,-1727 318.5,-1727 318.5,-1673 417.5,-1673 417.5,-1727"/>
<text text-anchor="middle" x="368" y="-1711.8" font-family="Times,serif" font-size="14.00" fill="white">Sort</text>
<text text-anchor="middle" x="368" y="-1680.8" font-family="Times,serif" font-size="14.00" fill="white">98 µs 50 ns</text>
</a>
</g>
</g>
<!-- 281454046025680&#45;&gt;281454046026000 -->
<g id="edge1" class="edge">
<title>281454046025680&#45;&gt;281454046026000</title>
<path fill="none" stroke="white" d="M368,-1727.19C368,-1739.29 368,-1754 368,-1767.72"/>
<polygon fill="white" stroke="white" points="364.5,-1767.95 368,-1777.95 371.5,-1767.96 364.5,-1767.95"/>
<text text-anchor="middle" x="446" y="-1748.8" font-family="Times,serif" font-size="14.00" fill="white">175 row(s)/1 chunk(s)</text>
</g>
<!-- 281454102315536 -->
<g id="node3" class="node">
<title>281454102315536</title>
<g id="a_node3"><a xlink:title="Output: 175 rows in 1 chunk filtered: 0, 662 ms 16 µs.&#10;Operator step runtimes:&#10; GroupByKeyPartitioning 471 ms 661 µs&#10; Aggregating 190 ms 208 µs&#10; GroupByColumnsWriting 13 µs 921 ns&#10; AggregateColumnsWriting 18 µs 720 ns&#10; OutputWriting 8 µs 896 ns.">
<polygon fill="none" stroke="white" stroke-width="8" points="518.5,-1622 217.5,-1622 217.5,-1508 518.5,-1508 518.5,-1622"/>
<text text-anchor="middle" x="368" y="-1606.8" font-family="Times,serif" font-size="14.00" fill="white">AggregateHash</text>
<text text-anchor="middle" x="368" y="-1591.8" font-family="Times,serif" font-size="14.00" fill="white">GroupBy {n_name,</text>
<text text-anchor="middle" x="368" y="-1576.8" font-family="Times,serif" font-size="14.00" fill="white">SUBSTR(o_orderdate,1,4)}</text>
<text text-anchor="middle" x="368" y="-1561.8" font-family="Times,serif" font-size="14.00" fill="white">SUM(l_extendedprice * (1 &#45; l_discount) &#45;</text>
<text text-anchor="middle" x="368" y="-1546.8" font-family="Times,serif" font-size="14.00" fill="white">ps_supplycost * l_quantity)</text>
<text text-anchor="middle" x="368" y="-1515.8" font-family="Times,serif" font-size="14.00" fill="white">662 ms 16 µs</text>
</a>
</g>
</g>
<!-- 281454102315536&#45;&gt;281454046025680 -->
<g id="edge2" class="edge">
<title>281454102315536&#45;&gt;281454046025680</title>
<path fill="none" stroke="white" d="M368,-1622.02C368,-1635.77 368,-1650.14 368,-1662.69"/>
<polygon fill="white" stroke="white" points="364.5,-1662.75 368,-1672.75 371.5,-1662.75 364.5,-1662.75"/>
<text text-anchor="middle" x="446" y="-1643.8" font-family="Times,serif" font-size="14.00" fill="white">175 row(s)/1 chunk(s)</text>
</g>
<!-- 281454046025360 -->
<g id="node4" class="node">
<title>281454046025360</title>
<g id="a_node4"><a xlink:title="Output: 16333551 rows in 256 chunks filtered: 0, 128 µs 546 ns.">
<polygon fill="none" stroke="white" points="462.5,-1457 273.5,-1457 273.5,-1388 462.5,-1388 462.5,-1457"/>
<text text-anchor="middle" x="368" y="-1441.8" font-family="Times,serif" font-size="14.00" fill="white">Alias</text>
<text text-anchor="middle" x="368" y="-1426.8" font-family="Times,serif" font-size="14.00" fill="white">[nation, o_year, amount]</text>
<text text-anchor="middle" x="368" y="-1395.8" font-family="Times,serif" font-size="14.00" fill="white">128 µs 546 ns</text>
</a>
</g>
</g>
<!-- 281454046025360&#45;&gt;281454102315536 -->
<g id="edge3" class="edge">
<title>281454046025360&#45;&gt;281454102315536</title>
<path fill="none" stroke="white" d="M368,-1457.15C368,-1469.37 368,-1483.63 368,-1497.69"/>
<polygon fill="white" stroke="white" points="364.5,-1497.85 368,-1507.85 371.5,-1497.85 364.5,-1497.85"/>
<text text-anchor="middle" x="482" y="-1478.8" font-family="Times,serif" font-size="14.00" fill="white">16,333,551 row(s)/256 chunk(s)</text>
</g>
<!-- 281454046025040 -->
<g id="node5" class="node">
<title>281454046025040</title>
<g id="a_node5"><a xlink:title="Output: 16333551 rows in 256 chunks filtered: 0, 468 ms 743 µs.&#10;Operator step runtimes:&#10; ForwardUnmodifiedColumns 221 µs 540 ns&#10; EvaluateNewColumns 467 ms 881 µs&#10; BuildOutput 502 µs 825 ns.">
<polygon fill="none" stroke="white" stroke-width="7.15" points="429,-1337 307,-1337 307,-1283 429,-1283 429,-1337"/>
<text text-anchor="middle" x="368" y="-1321.8" font-family="Times,serif" font-size="14.00" fill="white">Projection</text>
<text text-anchor="middle" x="368" y="-1290.8" font-family="Times,serif" font-size="14.00" fill="white">468 ms 743 µs</text>
</a>
</g>
</g>
<!-- 281454046025040&#45;&gt;281454046025360 -->
<g id="edge4" class="edge">
<title>281454046025040&#45;&gt;281454046025360</title>
<path fill="none" stroke="white" d="M368,-1337.19C368,-1349.29 368,-1364 368,-1377.72"/>
<polygon fill="white" stroke="white" points="364.5,-1377.95 368,-1387.95 371.5,-1377.96 364.5,-1377.95"/>
<text text-anchor="middle" x="482" y="-1358.8" font-family="Times,serif" font-size="14.00" fill="white">16,333,551 row(s)/256 chunk(s)</text>
</g>
<!-- 281454046024720 -->
<g id="node6" class="node">
<title>281454046024720</title>
<g id="a_node6"><a xlink:title="Output: 16333551 rows in 256 chunks filtered: 0, 178 ms 2 µs.&#10;Chunks: 0 skipped with no results, &#10;0 skipped with all matching, 0 scanned using binary search.">
<polygon fill="none" stroke="white" stroke-width="4.76" points="463.5,-1232 272.5,-1232 272.5,-1148 463.5,-1148 463.5,-1232"/>
<text text-anchor="middle" x="368" y="-1216.8" font-family="Times,serif" font-size="14.00" fill="white">TableScan</text>
<text text-anchor="middle" x="368" y="-1201.8" font-family="Times,serif" font-size="14.00" fill="white">Impl: ColumnVsColumn</text>
<text text-anchor="middle" x="368" y="-1186.8" font-family="Times,serif" font-size="14.00" fill="white">ps_suppkey = l_suppkey</text>
<text text-anchor="middle" x="368" y="-1155.8" font-family="Times,serif" font-size="14.00" fill="white">178 ms 2 µs</text>
</a>
</g>
</g>
<!-- 281454046024720&#45;&gt;281454046025040 -->
<g id="edge5" class="edge">
<title>281454046024720&#45;&gt;281454046025040</title>
<path fill="none" stroke="white" d="M368,-1232.27C368,-1245.36 368,-1259.72 368,-1272.45"/>
<polygon fill="white" stroke="white" points="364.5,-1272.69 368,-1282.69 371.5,-1272.69 364.5,-1272.69"/>
<text text-anchor="middle" x="482" y="-1253.8" font-family="Times,serif" font-size="14.00" fill="white">16,333,551 row(s)/256 chunk(s)</text>
</g>
<!-- 281454046024400 -->
<g id="node7" class="node">
<title>281454046024400</title>
<g id="a_node7"><a xlink:title="Output: 65334204 rows in 256 chunks filtered: 0, 232 ms 92 µs.&#10;Operator step runtimes:&#10; LeftSideMaterialize 16 ms 120 µs&#10; RightSideMaterialize 134 ms 883 µs&#10; LeftSideTransform 0 ns&#10; RightSideTransform 0 ns&#10; LeftSidePartition 612 µs 683 ns&#10; RightSidePartition 7 ms 403 µs&#10; LeftSideSortBuckets 476 µs 105 ns&#10; RightSideSortBuckets 4 ms 682 µs&#10; GatherRowIds 1 µs 568 ns&#10; FindJoinPartner 16 ms 537 µs&#10; OutputWriting 50 ms 13 µs.&#10;Radix bits: 8.">
<polygon fill="none" stroke="white" stroke-width="5.41" points="473.5,-1097 262.5,-1097 262.5,-1028 473.5,-1028 473.5,-1097"/>
<text text-anchor="middle" x="368" y="-1081.8" font-family="Times,serif" font-size="14.00" fill="white">JoinSimdSortMerge (Inner)</text>
<text text-anchor="middle" x="368" y="-1066.8" font-family="Times,serif" font-size="14.00" fill="white">ps_partkey = l_partkey</text>
<text text-anchor="middle" x="368" y="-1035.8" font-family="Times,serif" font-size="14.00" fill="white">232 ms 92 µs</text>
</a>
</g>
</g>
<!-- 281454046024400&#45;&gt;281454046024720 -->
<g id="edge6" class="edge">
<title>281454046024400&#45;&gt;281454046024720</title>
<path fill="none" stroke="white" stroke-width="4.24" d="M368,-1097.13C368,-1109.51 368,-1123.84 368,-1137.44"/>
<polygon fill="white" stroke="white" stroke-width="4.24" points="364.29,-1137.65 368,-1147.65 371.71,-1137.65 364.29,-1137.65"/>
<text text-anchor="middle" x="482" y="-1118.8" font-family="Times,serif" font-size="14.00" fill="white">65,334,204 row(s)/256 chunk(s)</text>
</g>
<!-- 281454046023120 -->
<g id="node8" class="node">
<title>281454046023120</title>
<g id="a_node8"><a xlink:title="Output: 2177672 rows in 256 chunks filtered: 0, 176 ms 465 µs.&#10;Operator step runtimes:&#10; LeftSideMaterialize 7 ms 317 µs&#10; RightSideMaterialize 131 ms 553 µs&#10; LeftSideTransform 0 ns&#10; RightSideTransform 0 ns&#10; LeftSidePartition 15 ms 799 µs&#10; RightSidePartition 6 ms 272 µs&#10; LeftSideSortBuckets 8 ms 499 µs&#10; RightSideSortBuckets 1 ms 182 µs&#10; GatherRowIds 800 ns&#10; FindJoinPartner 2 ms 494 µs&#10; OutputWriting 1 ms 494 µs.&#10;Radix bits: 8.">
<polygon fill="none" stroke="white" stroke-width="4.74" points="454.5,-857 169.5,-857 169.5,-788 454.5,-788 454.5,-857"/>
<text text-anchor="middle" x="312" y="-841.8" font-family="Times,serif" font-size="14.00" fill="white">JoinSimdSortMerge (Semi Reduction)</text>
<text text-anchor="middle" x="312" y="-826.8" font-family="Times,serif" font-size="14.00" fill="white">ps_partkey = l_partkey</text>
<text text-anchor="middle" x="312" y="-795.8" font-family="Times,serif" font-size="14.00" fill="white">176 ms 465 µs</text>
</a>
</g>
</g>
<!-- 281454046023120&#45;&gt;281454046024400 -->
<g id="edge7" class="edge">
<title>281454046023120&#45;&gt;281454046024400</title>
<path fill="none" stroke="white" d="M319.9,-857.09C329.82,-899.23 346.84,-971.57 357.75,-1017.93"/>
<polygon fill="white" stroke="white" points="357.75,-1017.96 354.35,-1018.76 360.05,-1027.69 357.75,-1017.96"/>
<text text-anchor="middle" x="457.5" y="-938.8" font-family="Times,serif" font-size="14.00" fill="white">2,177,672 row(s)/256 chunk(s)</text>
</g>
<!-- 281454102184720 -->
<g id="node9" class="node">
<title>281454102184720</title>
<g id="a_node9"><a xlink:title="Output: 40000000 rows in 611 chunks filtered: 0, 3 ms 323 µs.">
<polygon fill="none" stroke="white" points="113,-737 9,-737 9,-683 113,-683 113,-737"/>
<text text-anchor="middle" x="61" y="-721.8" font-family="Times,serif" font-size="14.00" fill="white">Validate</text>
<text text-anchor="middle" x="61" y="-690.8" font-family="Times,serif" font-size="14.00" fill="white">3 ms 323 µs</text>
</a>
</g>
</g>
<!-- 281454102184720&#45;&gt;281454046023120 -->
<g id="edge8" class="edge">
<title>281454102184720&#45;&gt;281454046023120</title>
<path fill="none" stroke="white" stroke-width="3.03" d="M61.2,-737.26C62.66,-748.75 66.36,-761.52 75,-770 88.52,-783.26 121.8,-793.57 159.29,-801.35"/>
<polygon fill="white" stroke="white" stroke-width="3.03" points="159.63,-801.42 158.94,-804.85 169.43,-803.38 159.63,-801.42"/>
<text text-anchor="middle" x="189" y="-758.8" font-family="Times,serif" font-size="14.00" fill="white">40,000,000 row(s)/611 chunk(s)</text>
</g>
<!-- 281454120993680 -->
<g id="node10" class="node">
<title>281454120993680</title>
<g id="a_node10"><a xlink:title="Output: 40000000 rows in 611 chunks filtered: 0, 3 ms 831 µs.">
<polygon fill="none" stroke="white" points="122,-632 0,-632 0,-518 122,-518 122,-632"/>
<text text-anchor="middle" x="61" y="-616.8" font-family="Times,serif" font-size="14.00" fill="white">GetTable</text>
<text text-anchor="middle" x="61" y="-601.8" font-family="Times,serif" font-size="14.00" fill="white">(partsupp)</text>
<text text-anchor="middle" x="61" y="-586.8" font-family="Times,serif" font-size="14.00" fill="white">pruned:</text>
<text text-anchor="middle" x="61" y="-571.8" font-family="Times,serif" font-size="14.00" fill="white">0/611 chunk(s)</text>
<text text-anchor="middle" x="61" y="-556.8" font-family="Times,serif" font-size="14.00" fill="white">2/5 column(s)</text>
<text text-anchor="middle" x="61" y="-525.8" font-family="Times,serif" font-size="14.00" fill="white">3 ms 831 µs</text>
</a>
</g>
</g>
<!-- 281454120993680&#45;&gt;281454102184720 -->
<g id="edge9" class="edge">
<title>281454120993680&#45;&gt;281454102184720</title>
<path fill="none" stroke="white" stroke-width="3.03" d="M61,-632.02C61,-645.77 61,-660.14 61,-672.69"/>
<polygon fill="white" stroke="white" stroke-width="3.03" points="57.5,-672.75 61,-682.75 64.5,-672.75 57.5,-672.75"/>
<text text-anchor="middle" x="175" y="-653.8" font-family="Times,serif" font-size="14.00" fill="white">40,000,000 row(s)/611 chunk(s)</text>
</g>
<!-- 281454102185232 -->
<g id="node11" class="node">
<title>281454102185232</title>
<g id="a_node11"><a xlink:title="Output: 16333551 rows in 256 chunks filtered: 0, 31 ms 459 µs.">
<polygon fill="none" stroke="white" points="494.5,-737 381.5,-737 381.5,-683 494.5,-683 494.5,-737"/>
<text text-anchor="middle" x="438" y="-721.8" font-family="Times,serif" font-size="14.00" fill="white">Validate</text>
<text text-anchor="middle" x="438" y="-690.8" font-family="Times,serif" font-size="14.00" fill="white">31 ms 459 µs</text>
</a>
</g>
</g>
<!-- 281454102185232&#45;&gt;281454046023120 -->
<g id="edge10" class="edge">
<title>281454102185232&#45;&gt;281454046023120</title>
<path fill="none" stroke="white" d="M381.37,-716.5C356.18,-722.08 328.72,-733.15 313,-755 308.26,-761.59 306.05,-769.58 305.33,-777.7"/>
<polygon fill="white" stroke="white" points="305.15,-787.96 308.83,-778.02 305.33,-777.96 305.15,-787.96"/>
<text text-anchor="middle" x="427" y="-758.8" font-family="Times,serif" font-size="14.00" fill="white">16,333,551 row(s)/256 chunk(s)</text>
</g>
<!-- 281454046023440 -->
<g id="node18" class="node">
<title>281454046023440</title>
<g id="a_node18"><a xlink:title="Output: 16333551 rows in 64 chunks filtered: 0, 382 ms 563 µs.&#10;Operator step runtimes:&#10; LeftSideMaterialize 178 ms 418 µs&#10; RightSideMaterialize 131 ms 931 µs&#10; LeftSideTransform 0 ns&#10; RightSideTransform 0 ns&#10; LeftSidePartition 25 ms 578 µs&#10; RightSidePartition 6 ms 295 µs&#10; LeftSideSortBuckets 9 ms 524 µs&#10; RightSideSortBuckets 4 ms 168 µs&#10; GatherRowIds 1 µs 312 ns&#10; FindJoinPartner 16 ms 413 µs&#10; OutputWriting 8 ms 77 µs.&#10;Radix bits: 8.">
<polygon fill="none" stroke="white" stroke-width="6.65" points="840.5,-857 629.5,-857 629.5,-788 840.5,-788 840.5,-857"/>
<text text-anchor="middle" x="735" y="-841.8" font-family="Times,serif" font-size="14.00" fill="white">JoinSimdSortMerge (Inner)</text>
<text text-anchor="middle" x="735" y="-826.8" font-family="Times,serif" font-size="14.00" fill="white">o_orderkey = l_orderkey</text>
<text text-anchor="middle" x="735" y="-795.8" font-family="Times,serif" font-size="14.00" fill="white">382 ms 563 µs</text>
</a>
</g>
</g>
<!-- 281454102185232&#45;&gt;281454046023440 -->
<g id="edge11" class="edge">
<title>281454102185232&#45;&gt;281454046023440</title>
<path fill="none" stroke="white" d="M494.65,-732.03C510.09,-738.6 526.54,-746.41 541,-755 550.25,-760.49 550.44,-765.06 560,-770 578.58,-779.61 599.22,-787.68 619.62,-794.38"/>
<polygon fill="white" stroke="white" points="629.28,-797.46 620.82,-791.09 619.75,-794.43 629.28,-797.46"/>
<text text-anchor="middle" x="674" y="-758.8" font-family="Times,serif" font-size="14.00" fill="white">16,333,551 row(s)/256 chunk(s)</text>
</g>
<!-- 281454046022800 -->
<g id="node12" class="node">
<title>281454046022800</title>
<g id="a_node12"><a xlink:title="Output: 16333551 rows in 256 chunks filtered: 0, 221 ms 817 µs.&#10;Operator step runtimes:&#10; LeftSideMaterialize 25 ms 819 µs&#10; RightSideMaterialize 577 µs 739 ns&#10; LeftSideTransform 0 ns&#10; RightSideTransform 0 ns&#10; LeftSidePartition 116 ms 929 µs&#10; RightSidePartition 3 ms 122 µs&#10; LeftSideSortBuckets 58 ms 897 µs&#10; RightSideSortBuckets 433 µs 896 ns&#10; GatherRowIds 640 ns&#10; FindJoinPartner 11 ms 127 µs&#10; OutputWriting 901 µs 265 ns.&#10;Radix bits: 8.">
<polygon fill="none" stroke="white" stroke-width="5.3" points="542.5,-609.5 333.5,-609.5 333.5,-540.5 542.5,-540.5 542.5,-609.5"/>
<text text-anchor="middle" x="438" y="-594.3" font-family="Times,serif" font-size="14.00" fill="white">JoinSimdSortMerge (Semi)</text>
<text text-anchor="middle" x="438" y="-579.3" font-family="Times,serif" font-size="14.00" fill="white">l_partkey = p_partkey</text>
<text text-anchor="middle" x="438" y="-548.3" font-family="Times,serif" font-size="14.00" fill="white">221 ms 817 µs</text>
</a>
</g>
</g>
<!-- 281454046022800&#45;&gt;281454102185232 -->
<g id="edge12" class="edge">
<title>281454046022800&#45;&gt;281454102185232</title>
<path fill="none" stroke="white" d="M438,-609.56C438,-628.74 438,-652.81 438,-672.46"/>
<polygon fill="white" stroke="white" points="434.5,-672.57 438,-682.57 441.5,-672.57 434.5,-672.57"/>
<text text-anchor="middle" x="552" y="-653.8" font-family="Times,serif" font-size="14.00" fill="white">16,333,551 row(s)/256 chunk(s)</text>
</g>
<!-- 281454120994128 -->
<g id="node13" class="node">
<title>281454120994128</title>
<g id="a_node13"><a xlink:title="Output: 300005811 rows in 4578 chunks filtered: 0, 9 ms 532 µs.">
<polygon fill="none" stroke="white" points="367.5,-467 236.5,-467 236.5,-353 367.5,-353 367.5,-467"/>
<text text-anchor="middle" x="302" y="-451.8" font-family="Times,serif" font-size="14.00" fill="white">GetTable</text>
<text text-anchor="middle" x="302" y="-436.8" font-family="Times,serif" font-size="14.00" fill="white">(lineitem)</text>
<text text-anchor="middle" x="302" y="-421.8" font-family="Times,serif" font-size="14.00" fill="white">pruned:</text>
<text text-anchor="middle" x="302" y="-406.8" font-family="Times,serif" font-size="14.00" fill="white">0/4578 chunk(s)</text>
<text text-anchor="middle" x="302" y="-391.8" font-family="Times,serif" font-size="14.00" fill="white">10/16 column(s)</text>
<text text-anchor="middle" x="302" y="-360.8" font-family="Times,serif" font-size="14.00" fill="white">9 ms 532 µs</text>
</a>
</g>
</g>
<!-- 281454120994128&#45;&gt;281454046022800 -->
<g id="edge13" class="edge">
<title>281454120994128&#45;&gt;281454046022800</title>
<path fill="none" stroke="white" stroke-width="8" d="M293.88,-467.12C294.55,-478.62 297.12,-490.19 303,-500 311.37,-513.95 323.39,-525.45 336.85,-534.88"/>
<polygon fill="white" stroke="white" stroke-width="8" points="337.04,-535 333.2,-540.85 345.4,-540.48 337.04,-535"/>
<text text-anchor="middle" x="428" y="-488.8" font-family="Times,serif" font-size="14.00" fill="white">300,005,811 row(s)/4,578 chunk(s)</text>
</g>
<!-- 281454102184976 -->
<g id="node14" class="node">
<title>281454102184976</title>
<g id="a_node14"><a xlink:title="Output: 544418 rows in 153 chunks filtered: 0, 269 µs 541 ns.">
<polygon fill="none" stroke="white" points="633.5,-437 516.5,-437 516.5,-383 633.5,-383 633.5,-437"/>
<text text-anchor="middle" x="575" y="-421.8" font-family="Times,serif" font-size="14.00" fill="white">Validate</text>
<text text-anchor="middle" x="575" y="-390.8" font-family="Times,serif" font-size="14.00" fill="white">269 µs 541 ns</text>
</a>
</g>
</g>
<!-- 281454102184976&#45;&gt;281454046022800 -->
<g id="edge14" class="edge">
<title>281454102184976&#45;&gt;281454046022800</title>
<path fill="none" stroke="white" d="M573.62,-437.29C571.48,-456.24 566.14,-481.61 553,-500 543.45,-513.35 530.67,-524.89 517.1,-534.62"/>
<polygon fill="white" stroke="white" points="508.57,-540.45 518.8,-537.7 516.83,-534.81 508.57,-540.45"/>
<text text-anchor="middle" x="663.5" y="-488.8" font-family="Times,serif" font-size="14.00" fill="white">544,418 row(s)/153 chunk(s)</text>
</g>
<!-- 281454046022480 -->
<g id="node15" class="node">
<title>281454046022480</title>
<g id="a_node15"><a xlink:title="Output: 544418 rows in 153 chunks filtered: 0, 4 ms 532 µs.&#10;Chunks: 0 skipped with no results, &#10;0 skipped with all matching, 0 scanned using binary search.">
<polygon fill="none" stroke="white" points="673.5,-302 476.5,-302 476.5,-218 673.5,-218 673.5,-302"/>
<text text-anchor="middle" x="575" y="-286.8" font-family="Times,serif" font-size="14.00" fill="white">TableScan</text>
<text text-anchor="middle" x="575" y="-271.8" font-family="Times,serif" font-size="14.00" fill="white">Impl: ColumnLike</text>
<text text-anchor="middle" x="575" y="-256.8" font-family="Times,serif" font-size="14.00" fill="white">p_name LIKE &#39;%navajo%&#39;</text>
<text text-anchor="middle" x="575" y="-225.8" font-family="Times,serif" font-size="14.00" fill="white">4 ms 532 µs</text>
</a>
</g>
</g>
<!-- 281454046022480&#45;&gt;281454102184976 -->
<g id="edge15" class="edge">
<title>281454046022480&#45;&gt;281454102184976</title>
<path fill="none" stroke="white" d="M575,-302.23C575,-324.32 575,-351.31 575,-372.62"/>
<polygon fill="white" stroke="white" points="571.5,-372.88 575,-382.88 578.5,-372.88 571.5,-372.88"/>
<text text-anchor="middle" x="677.5" y="-323.8" font-family="Times,serif" font-size="14.00" fill="white">544,418 row(s)/153 chunk(s)</text>
</g>
<!-- 281454120994576 -->
<g id="node16" class="node">
<title>281454120994576</title>
<g id="a_node16"><a xlink:title="Output: 10000000 rows in 153 chunks filtered: 0, 369 µs 31 ns.">
<polygon fill="none" stroke="white" points="636,-140.5 514,-140.5 514,-26.5 636,-26.5 636,-140.5"/>
<text text-anchor="middle" x="575" y="-125.3" font-family="Times,serif" font-size="14.00" fill="white">GetTable</text>
<text text-anchor="middle" x="575" y="-110.3" font-family="Times,serif" font-size="14.00" fill="white">(part)</text>
<text text-anchor="middle" x="575" y="-95.3" font-family="Times,serif" font-size="14.00" fill="white">pruned:</text>
<text text-anchor="middle" x="575" y="-80.3" font-family="Times,serif" font-size="14.00" fill="white">0/153 chunk(s)</text>
<text text-anchor="middle" x="575" y="-65.3" font-family="Times,serif" font-size="14.00" fill="white">7/9 column(s)</text>
<text text-anchor="middle" x="575" y="-34.3" font-family="Times,serif" font-size="14.00" fill="white">369 µs 31 ns</text>
</a>
</g>
</g>
<!-- 281454120994576&#45;&gt;281454046022480 -->
<g id="edge16" class="edge">
<title>281454120994576&#45;&gt;281454046022480</title>
<path fill="none" stroke="white" d="M575,-140.67C575,-162.25 575,-186.74 575,-207.83"/>
<polygon fill="white" stroke="white" points="571.5,-207.87 575,-217.87 578.5,-207.87 571.5,-207.87"/>
<text text-anchor="middle" x="689" y="-188.8" font-family="Times,serif" font-size="14.00" fill="white">10,000,000 row(s)/153 chunk(s)</text>
</g>
<!-- 281454046024080 -->
<g id="node17" class="node">
<title>281454046024080</title>
<g id="a_node17"><a xlink:title="Output: 16333551 rows in 256 chunks filtered: 0, 83 ms 185 µs.&#10;Operator step runtimes:&#10; LeftSideMaterialize 40 ms 678 µs&#10; RightSideMaterialize 306 µs 501 ns&#10; LeftSideTransform 0 ns&#10; RightSideTransform 0 ns&#10; LeftSidePartition 8 ms 385 µs&#10; RightSidePartition 2 ms 934 µs&#10; LeftSideSortBuckets 5 ms 435 µs&#10; RightSideSortBuckets 453 µs 353 ns&#10; GatherRowIds 800 ns&#10; FindJoinPartner 3 ms 904 µs&#10; OutputWriting 20 ms 127 µs.&#10;Radix bits: 8.">
<polygon fill="none" stroke="white" stroke-width="2.88" points="840.5,-977 629.5,-977 629.5,-908 840.5,-908 840.5,-977"/>
<text text-anchor="middle" x="735" y="-961.8" font-family="Times,serif" font-size="14.00" fill="white">JoinSimdSortMerge (Inner)</text>
<text text-anchor="middle" x="735" y="-946.8" font-family="Times,serif" font-size="14.00" fill="white">l_suppkey = s_suppkey</text>
<text text-anchor="middle" x="735" y="-915.8" font-family="Times,serif" font-size="14.00" fill="white">83 ms 185 µs</text>
</a>
</g>
</g>
<!-- 281454046024080&#45;&gt;281454046024400 -->
<g id="edge17" class="edge">
<title>281454046024080&#45;&gt;281454046024400</title>
<path fill="none" stroke="white" d="M630.32,-977.16C584.04,-992.04 529.5,-1009.57 482.17,-1024.79"/>
<polygon fill="white" stroke="white" points="472.5,-1027.9 483.09,-1028.17 482.02,-1024.84 472.5,-1027.9"/>
<text text-anchor="middle" x="688" y="-998.8" font-family="Times,serif" font-size="14.00" fill="white">16,333,551 row(s)/256 chunk(s)</text>
</g>
<!-- 281454046023440&#45;&gt;281454046024080 -->
<g id="edge18" class="edge">
<title>281454046023440&#45;&gt;281454046024080</title>
<path fill="none" stroke="white" d="M735,-857.31C735,-869.78 735,-884.1 735,-897.34"/>
<polygon fill="white" stroke="white" points="735,-897.68 731.5,-897.68 735,-907.68 735,-897.68"/>
<text text-anchor="middle" x="844.5" y="-878.8" font-family="Times,serif" font-size="14.00" fill="white">16,333,551 row(s)/64 chunk(s)</text>
</g>
<!-- 281454102185744 -->
<g id="node19" class="node">
<title>281454102185744</title>
<g id="a_node19"><a xlink:title="Output: 75000000 rows in 1145 chunks filtered: 0, 4 ms 914 µs.">
<polygon fill="none" stroke="white" points="866,-737 762,-737 762,-683 866,-683 866,-737"/>
<text text-anchor="middle" x="814" y="-721.8" font-family="Times,serif" font-size="14.00" fill="white">Validate</text>
<text text-anchor="middle" x="814" y="-690.8" font-family="Times,serif" font-size="14.00" fill="white">4 ms 914 µs</text>
</a>
</g>
</g>
<!-- 281454102185744&#45;&gt;281454046023440 -->
<g id="edge19" class="edge">
<title>281454102185744&#45;&gt;281454046023440</title>
<path fill="none" stroke="white" stroke-width="4.58" d="M807.19,-737.27C803.68,-747.98 798.69,-760.14 792,-770 789.6,-773.54 786.9,-777 784.03,-780.34"/>
<polygon fill="white" stroke="white" stroke-width="4.58" points="783.82,-780.57 780.87,-777.85 777.04,-787.92 783.82,-780.57"/>
<text text-anchor="middle" x="919.5" y="-758.8" font-family="Times,serif" font-size="14.00" fill="white">75,000,000 row(s)/1,145 chunk(s)</text>
</g>
<!-- 281454120995024 -->
<g id="node20" class="node">
<title>281454120995024</title>
<g id="a_node20"><a xlink:title="Output: 75000000 rows in 1145 chunks filtered: 0, 3 ms 601 µs.">
<polygon fill="none" stroke="white" points="879.5,-632 748.5,-632 748.5,-518 879.5,-518 879.5,-632"/>
<text text-anchor="middle" x="814" y="-616.8" font-family="Times,serif" font-size="14.00" fill="white">GetTable</text>
<text text-anchor="middle" x="814" y="-601.8" font-family="Times,serif" font-size="14.00" fill="white">(orders)</text>
<text text-anchor="middle" x="814" y="-586.8" font-family="Times,serif" font-size="14.00" fill="white">pruned:</text>
<text text-anchor="middle" x="814" y="-571.8" font-family="Times,serif" font-size="14.00" fill="white">0/1145 chunk(s)</text>
<text text-anchor="middle" x="814" y="-556.8" font-family="Times,serif" font-size="14.00" fill="white">7/9 column(s)</text>
<text text-anchor="middle" x="814" y="-525.8" font-family="Times,serif" font-size="14.00" fill="white">3 ms 601 µs</text>
</a>
</g>
</g>
<!-- 281454120995024&#45;&gt;281454102185744 -->
<g id="edge20" class="edge">
<title>281454120995024&#45;&gt;281454102185744</title>
<path fill="none" stroke="white" stroke-width="4.58" d="M814,-632.02C814,-645.77 814,-660.14 814,-672.69"/>
<polygon fill="white" stroke="white" stroke-width="4.58" points="809.99,-672.75 814,-682.75 818.01,-672.75 809.99,-672.75"/>
<text text-anchor="middle" x="934.5" y="-653.8" font-family="Times,serif" font-size="14.00" fill="white">75,000,000 row(s)/1,145 chunk(s)</text>
</g>
<!-- 281454046023760 -->
<g id="node21" class="node">
<title>281454046023760</title>
<g id="a_node21"><a xlink:title="Output: 500000 rows in 25 chunks filtered: 0, 7 ms 735 µs.&#10;Operator step runtimes:&#10; LeftSideMaterialize 155 µs 939 ns&#10; RightSideMaterialize 2 µs 592 ns&#10; LeftSideTransform 0 ns&#10; RightSideTransform 0 ns&#10; LeftSidePartition 4 ms 103 µs&#10; RightSidePartition 136 µs 322 ns&#10; LeftSideSortBuckets 1 ms 700 µs&#10; RightSideSortBuckets 1 ms 1 µs&#10; GatherRowIds 832 ns&#10; FindJoinPartner 251 µs 365 ns&#10; OutputWriting 256 µs 580 ns.&#10;Radix bits: 8.">
<polygon fill="none" stroke="white" points="1183.5,-857 972.5,-857 972.5,-788 1183.5,-788 1183.5,-857"/>
<text text-anchor="middle" x="1078" y="-841.8" font-family="Times,serif" font-size="14.00" fill="white">JoinSimdSortMerge (Inner)</text>
<text text-anchor="middle" x="1078" y="-826.8" font-family="Times,serif" font-size="14.00" fill="white">s_nationkey = n_nationkey</text>
<text text-anchor="middle" x="1078" y="-795.8" font-family="Times,serif" font-size="14.00" fill="white">7 ms 735 µs</text>
</a>
</g>
</g>
<!-- 281454046023760&#45;&gt;281454046024080 -->
<g id="edge21" class="edge">
<title>281454046023760&#45;&gt;281454046024080</title>
<path fill="none" stroke="white" d="M1024.89,-857.12C1004.57,-868.85 980.79,-881.25 958,-890 923.92,-903.08 885.59,-913.4 850.44,-921.27"/>
<polygon fill="white" stroke="white" points="840.61,-923.42 851.13,-924.7 850.38,-921.28 840.61,-923.42"/>
<text text-anchor="middle" x="1086" y="-878.8" font-family="Times,serif" font-size="14.00" fill="white">500,000 row(s)/25 chunk(s)</text>
</g>
<!-- 281454102186000 -->
<g id="node22" class="node">
<title>281454102186000</title>
<g id="a_node22"><a xlink:title="Output: 500000 rows in 8 chunks filtered: 0, 41 µs 216 ns.">
<polygon fill="none" stroke="white" points="1132,-737 1024,-737 1024,-683 1132,-683 1132,-737"/>
<text text-anchor="middle" x="1078" y="-721.8" font-family="Times,serif" font-size="14.00" fill="white">Validate</text>
<text text-anchor="middle" x="1078" y="-690.8" font-family="Times,serif" font-size="14.00" fill="white">41 µs 216 ns</text>
</a>
</g>
</g>
<!-- 281454102186000&#45;&gt;281454046023760 -->
<g id="edge22" class="edge">
<title>281454102186000&#45;&gt;281454046023760</title>
<path fill="none" stroke="white" d="M1078,-737.19C1078,-749.29 1078,-764 1078,-777.72"/>
<polygon fill="white" stroke="white" points="1078,-777.95 1074.5,-777.95 1078,-787.95 1078,-777.95"/>
<text text-anchor="middle" x="1171.5" y="-758.8" font-family="Times,serif" font-size="14.00" fill="white">500,000 row(s)/8 chunk(s)</text>
</g>
<!-- 281454120995472 -->
<g id="node23" class="node">
<title>281454120995472</title>
<g id="a_node23"><a xlink:title="Output: 500000 rows in 8 chunks filtered: 0, 47 µs 649 ns.">
<polygon fill="none" stroke="white" points="1134.5,-632 1021.5,-632 1021.5,-518 1134.5,-518 1134.5,-632"/>
<text text-anchor="middle" x="1078" y="-616.8" font-family="Times,serif" font-size="14.00" fill="white">GetTable</text>
<text text-anchor="middle" x="1078" y="-601.8" font-family="Times,serif" font-size="14.00" fill="white">(supplier)</text>
<text text-anchor="middle" x="1078" y="-586.8" font-family="Times,serif" font-size="14.00" fill="white">pruned:</text>
<text text-anchor="middle" x="1078" y="-571.8" font-family="Times,serif" font-size="14.00" fill="white">0/8 chunk(s)</text>
<text text-anchor="middle" x="1078" y="-556.8" font-family="Times,serif" font-size="14.00" fill="white">5/7 column(s)</text>
<text text-anchor="middle" x="1078" y="-525.8" font-family="Times,serif" font-size="14.00" fill="white">47 µs 649 ns</text>
</a>
</g>
</g>
<!-- 281454120995472&#45;&gt;281454102186000 -->
<g id="edge23" class="edge">
<title>281454120995472&#45;&gt;281454102186000</title>
<path fill="none" stroke="white" d="M1078,-632.02C1078,-645.77 1078,-660.14 1078,-672.69"/>
<polygon fill="white" stroke="white" points="1074.5,-672.75 1078,-682.75 1081.5,-672.75 1074.5,-672.75"/>
<text text-anchor="middle" x="1171.5" y="-653.8" font-family="Times,serif" font-size="14.00" fill="white">500,000 row(s)/8 chunk(s)</text>
</g>
<!-- 281454102186512 -->
<g id="node24" class="node">
<title>281454102186512</title>
<g id="a_node24"><a xlink:title="Output: 25 rows in 1 chunk filtered: 0, 6 µs 880 ns.">
<polygon fill="none" stroke="white" points="1337.5,-737 1238.5,-737 1238.5,-683 1337.5,-683 1337.5,-737"/>
<text text-anchor="middle" x="1288" y="-721.8" font-family="Times,serif" font-size="14.00" fill="white">Validate</text>
<text text-anchor="middle" x="1288" y="-690.8" font-family="Times,serif" font-size="14.00" fill="white">6 µs 880 ns</text>
</a>
</g>
</g>
<!-- 281454102186512&#45;&gt;281454046023760 -->
<g id="edge24" class="edge">
<title>281454102186512&#45;&gt;281454046023760</title>
<path fill="none" stroke="white" d="M1283.77,-737.26C1280.66,-748.75 1275.28,-761.52 1266,-770 1245.87,-788.41 1219.78,-800.33 1193.48,-808.02"/>
<polygon fill="white" stroke="white" points="1183.79,-810.67 1194.35,-811.41 1193.43,-808.03 1183.79,-810.67"/>
<text text-anchor="middle" x="1350.5" y="-758.8" font-family="Times,serif" font-size="14.00" fill="white">25 row(s)/1 chunk(s)</text>
</g>
<!-- 281454120995920 -->
<g id="node25" class="node">
<title>281454120995920</title>
<g id="a_node25"><a xlink:title="Output: 25 rows in 1 chunk filtered: 0, 15 µs 200 ns.">
<polygon fill="none" stroke="white" points="1344.5,-632 1231.5,-632 1231.5,-518 1344.5,-518 1344.5,-632"/>
<text text-anchor="middle" x="1288" y="-616.8" font-family="Times,serif" font-size="14.00" fill="white">GetTable</text>
<text text-anchor="middle" x="1288" y="-601.8" font-family="Times,serif" font-size="14.00" fill="white">(nation)</text>
<text text-anchor="middle" x="1288" y="-586.8" font-family="Times,serif" font-size="14.00" fill="white">pruned:</text>
<text text-anchor="middle" x="1288" y="-571.8" font-family="Times,serif" font-size="14.00" fill="white">0/1 chunk(s)</text>
<text text-anchor="middle" x="1288" y="-556.8" font-family="Times,serif" font-size="14.00" fill="white">2/4 column(s)</text>
<text text-anchor="middle" x="1288" y="-525.8" font-family="Times,serif" font-size="14.00" fill="white">15 µs 200 ns</text>
</a>
</g>
</g>
<!-- 281454120995920&#45;&gt;281454102186512 -->
<g id="edge25" class="edge">
<title>281454120995920&#45;&gt;281454102186512</title>
<path fill="none" stroke="white" d="M1288,-632.02C1288,-645.77 1288,-660.14 1288,-672.69"/>
<polygon fill="white" stroke="white" points="1284.5,-672.75 1288,-682.75 1291.5,-672.75 1284.5,-672.75"/>
<text text-anchor="middle" x="1361.5" y="-653.8" font-family="Times,serif" font-size="14.00" fill="white">25 row(s)/1 chunk(s)</text>
</g>
<!-- 0 -->
<g id="node26" class="node">
<title>0</title>
<polygon fill="none" stroke="white" points="654,-0.5 654,-166.5 1000,-166.5 1000,-0.5 654,-0.5"/>
<text text-anchor="middle" x="827" y="-151.3" font-family="Times,serif" font-size="14.00" fill="white">Total by operator</text>
<polyline fill="none" stroke="white" points="654,-143.5 1000,-143.5 "/>
<text text-anchor="end" x="808" y="-128.3" font-family="Times,serif" font-size="14.00" fill="white">JoinSimdSortMerge </text>
<text text-anchor="end" x="808" y="-113.3" font-family="Times,serif" font-size="14.00" fill="white"> AggregateHash </text>
<text text-anchor="end" x="808" y="-98.3" font-family="Times,serif" font-size="14.00" fill="white"> Projection </text>
<text text-anchor="end" x="808" y="-83.3" font-family="Times,serif" font-size="14.00" fill="white"> TableScan </text>
<text text-anchor="end" x="808" y="-68.3" font-family="Times,serif" font-size="14.00" fill="white"> Validate </text>
<text text-anchor="end" x="808" y="-53.3" font-family="Times,serif" font-size="14.00" fill="white"> GetTable </text>
<text text-anchor="end" x="808" y="-38.3" font-family="Times,serif" font-size="14.00" fill="white"> Alias </text>
<text text-anchor="end" x="808" y="-23.3" font-family="Times,serif" font-size="14.00" fill="white"> Sort </text>
<text text-anchor="end" x="808" y="-8.3" font-family="Times,serif" font-size="14.00" fill="white">total</text>
<polyline fill="none" stroke="white" points="816,-0.5 816,-143.5 "/>
<text text-anchor="start" x="824" y="-128.3" font-family="Times,serif" font-size="14.00" fill="white">1 s 104 ms </text>
<text text-anchor="start" x="824" y="-113.3" font-family="Times,serif" font-size="14.00" fill="white"> 662 ms 16 µs </text>
<text text-anchor="start" x="824" y="-98.3" font-family="Times,serif" font-size="14.00" fill="white"> 468 ms 743 µs </text>
<text text-anchor="start" x="824" y="-83.3" font-family="Times,serif" font-size="14.00" fill="white"> 182 ms 533 µs </text>
<text text-anchor="start" x="824" y="-68.3" font-family="Times,serif" font-size="14.00" fill="white"> 40 ms 13 µs </text>
<text text-anchor="start" x="824" y="-53.3" font-family="Times,serif" font-size="14.00" fill="white"> 17 ms 396 µs </text>
<text text-anchor="start" x="824" y="-38.3" font-family="Times,serif" font-size="14.00" fill="white"> 131 µs 746 ns </text>
<text text-anchor="start" x="824" y="-23.3" font-family="Times,serif" font-size="14.00" fill="white"> 98 µs 50 ns </text>
<text text-anchor="start" x="824" y="-8.3" font-family="Times,serif" font-size="14.00" fill="white"> 2 s 475 ms </text>
<polyline fill="none" stroke="white" points="947,-0.5 947,-143.5 "/>
<text text-anchor="start" x="955" y="-128.3" font-family="Times,serif" font-size="14.00" fill="white">45 %</text>
<text text-anchor="start" x="955" y="-113.3" font-family="Times,serif" font-size="14.00" fill="white">27 %</text>
<text text-anchor="start" x="955" y="-98.3" font-family="Times,serif" font-size="14.00" fill="white">19 %</text>
<text text-anchor="start" x="955" y="-83.3" font-family="Times,serif" font-size="14.00" fill="white">7 %</text>
<text text-anchor="start" x="955" y="-68.3" font-family="Times,serif" font-size="14.00" fill="white">2 %</text>
<text text-anchor="start" x="955" y="-53.3" font-family="Times,serif" font-size="14.00" fill="white">1 %</text>
<text text-anchor="start" x="955" y="-38.3" font-family="Times,serif" font-size="14.00" fill="white">0 %</text>
<text text-anchor="start" x="955" y="-23.3" font-family="Times,serif" font-size="14.00" fill="white">0 %</text>
<text text-anchor="start" x="955" y="-8.3" font-family="Times,serif" font-size="14.00" fill="white"> </text>
</g>
</g>
</svg>
