<?xml version="1.0" encoding="UTF-8" standalone="no"?>
<!DOCTYPE svg PUBLIC "-//W3C//DTD SVG 1.1//EN"
 "http://www.w3.org/Graphics/SVG/1.1/DTD/svg11.dtd">
<!-- Generated by graphviz version 2.43.0 (0)
 -->
<!-- Title: G Pages: 1 -->
<svg width="1033pt" height="1895pt"
 viewBox="0.00 0.00 1033.00 1895.00" xmlns="http://www.w3.org/2000/svg" xmlns:xlink="http://www.w3.org/1999/xlink">
<g id="graph0" class="graph" transform="scale(1 1) rotate(0) translate(4 1891)">
<title>G</title>
<polygon fill="black" stroke="transparent" points="-4,4 -4,-1891 1029,-1891 1029,4 -4,4"/>
<text text-anchor="middle" x="319.5" y="-1871.8" font-family="Times,serif" font-size="14.00" fill="white">For tooltips with advanced information, hover your mouse over vertices or edge labels.</text>
<!-- 281398222705168 -->
<g id="node1" class="node">
<title>281398222705168</title>
<g id="a_node1"><a xlink:title="Output: 10 rows in 1 chunk, 2 µs 592 ns.">
<polygon fill="none" stroke="white" points="676,-1832 307,-1832 307,-1763 676,-1763 676,-1832"/>
<text text-anchor="middle" x="491.5" y="-1816.8" font-family="Times,serif" font-size="14.00" fill="white">Alias</text>
<text text-anchor="middle" x="491.5" y="-1801.8" font-family="Times,serif" font-size="14.00" fill="white">[l_orderkey, revenue, o_orderdate, o_shippriority]</text>
<text text-anchor="middle" x="491.5" y="-1770.8" font-family="Times,serif" font-size="14.00" fill="white">2 µs 592 ns</text>
</a>
</g>
</g>
<!-- 281398222704848 -->
<g id="node2" class="node">
<title>281398222704848</title>
<g id="a_node2"><a xlink:title="Output: 10 rows in 1 chunk, 8 µs 960 ns.&#10;Operator step runtimes:&#10; ForwardUnmodifiedColumns 2 µs 528 ns&#10; EvaluateNewColumns 640 ns&#10; BuildOutput 4 µs 320 ns.">
<polygon fill="none" stroke="white" points="541,-1712 442,-1712 442,-1658 541,-1658 541,-1712"/>
<text text-anchor="middle" x="491.5" y="-1696.8" font-family="Times,serif" font-size="14.00" fill="white">Projection</text>
<text text-anchor="middle" x="491.5" y="-1665.8" font-family="Times,serif" font-size="14.00" fill="white">8 µs 960 ns</text>
</a>
</g>
</g>
<!-- 281398222704848&#45;&gt;281398222705168 -->
<g id="edge1" class="edge">
<title>281398222704848&#45;&gt;281398222705168</title>
<path fill="none" stroke="white" d="M491.5,-1712.19C491.5,-1724.29 491.5,-1739 491.5,-1752.72"/>
<polygon fill="white" stroke="white" points="488,-1752.95 491.5,-1762.95 495,-1752.96 488,-1752.95"/>
<text text-anchor="middle" x="565" y="-1733.8" font-family="Times,serif" font-size="14.00" fill="white">10 row(s)/1 chunk(s)</text>
</g>
<!-- 281398222704528 -->
<g id="node3" class="node">
<title>281398222704528</title>
<g id="a_node3"><a xlink:title="Output: 10 rows in 1 chunk, 9 µs 824 ns.">
<polygon fill="none" stroke="white" points="541,-1607 442,-1607 442,-1553 541,-1553 541,-1607"/>
<text text-anchor="middle" x="491.5" y="-1591.8" font-family="Times,serif" font-size="14.00" fill="white">Limit</text>
<text text-anchor="middle" x="491.5" y="-1560.8" font-family="Times,serif" font-size="14.00" fill="white">9 µs 824 ns</text>
</a>
</g>
</g>
<!-- 281398222704528&#45;&gt;281398222704848 -->
<g id="edge2" class="edge">
<title>281398222704528&#45;&gt;281398222704848</title>
<path fill="none" stroke="white" d="M491.5,-1607.26C491.5,-1619.49 491.5,-1634.24 491.5,-1647.52"/>
<polygon fill="white" stroke="white" points="488,-1647.79 491.5,-1657.79 495,-1647.79 488,-1647.79"/>
<text text-anchor="middle" x="565" y="-1628.8" font-family="Times,serif" font-size="14.00" fill="white">10 row(s)/1 chunk(s)</text>
</g>
<!-- 281398222704208 -->
<g id="node4" class="node">
<title>281398222704208</title>
<g id="a_node4"><a xlink:title="Output: 1132511 rows in 18 chunks, 839 ms 538 µs.&#10;Operator step runtimes:&#10; MaterializeSortColumns 389 ms 514 µs&#10; Sort 402 ms 218 µs&#10; TemporaryResultWriting 5 ms 544 µs&#10; WriteOutput 40 ms 641 µs.">
<polygon fill="none" stroke="white" stroke-width="8" points="552.5,-1502 430.5,-1502 430.5,-1448 552.5,-1448 552.5,-1502"/>
<text text-anchor="middle" x="491.5" y="-1486.8" font-family="Times,serif" font-size="14.00" fill="white">Sort</text>
<text text-anchor="middle" x="491.5" y="-1455.8" font-family="Times,serif" font-size="14.00" fill="white">839 ms 538 µs</text>
</a>
</g>
</g>
<!-- 281398222704208&#45;&gt;281398222704528 -->
<g id="edge3" class="edge">
<title>281398222704208&#45;&gt;281398222704528</title>
<path fill="none" stroke="white" d="M491.5,-1502.26C491.5,-1514.49 491.5,-1529.24 491.5,-1542.52"/>
<polygon fill="white" stroke="white" points="488,-1542.79 491.5,-1552.79 495,-1542.79 488,-1542.79"/>
<text text-anchor="middle" x="596.5" y="-1523.8" font-family="Times,serif" font-size="14.00" fill="white">1,132,511 row(s)/18 chunk(s)</text>
</g>
<!-- 281398204173840 -->
<g id="node5" class="node">
<title>281398204173840</title>
<g id="a_node5"><a xlink:title="Output: 1132511 rows in 18 chunks, 650 ms 28 µs.&#10;Operator step runtimes:&#10; GroupByKeyPartitioning 467 ms 505 µs&#10; Aggregating 165 ms 35 µs&#10; GroupByColumnsWriting 1 ms 27 µs&#10; AggregateColumnsWriting 445 µs 478 ns&#10; OutputWriting 26 µs 752 ns.">
<polygon fill="none" stroke="white" stroke-width="7.37" points="640,-1397 343,-1397 343,-1283 640,-1283 640,-1397"/>
<text text-anchor="middle" x="491.5" y="-1381.8" font-family="Times,serif" font-size="14.00" fill="white">AggregateHash</text>
<text text-anchor="middle" x="491.5" y="-1366.8" font-family="Times,serif" font-size="14.00" fill="white">GroupBy {l_orderkey,</text>
<text text-anchor="middle" x="491.5" y="-1351.8" font-family="Times,serif" font-size="14.00" fill="white">o_orderdate,</text>
<text text-anchor="middle" x="491.5" y="-1336.8" font-family="Times,serif" font-size="14.00" fill="white">o_shippriority}</text>
<text text-anchor="middle" x="491.5" y="-1321.8" font-family="Times,serif" font-size="14.00" fill="white">SUM(l_extendedprice * (1 &#45; l_discount))</text>
<text text-anchor="middle" x="491.5" y="-1290.8" font-family="Times,serif" font-size="14.00" fill="white">650 ms 28 µs</text>
</a>
</g>
</g>
<!-- 281398204173840&#45;&gt;281398222704208 -->
<g id="edge4" class="edge">
<title>281398204173840&#45;&gt;281398222704208</title>
<path fill="none" stroke="white" d="M491.5,-1397.02C491.5,-1410.77 491.5,-1425.14 491.5,-1437.69"/>
<polygon fill="white" stroke="white" points="488,-1437.75 491.5,-1447.75 495,-1437.75 488,-1437.75"/>
<text text-anchor="middle" x="596.5" y="-1418.8" font-family="Times,serif" font-size="14.00" fill="white">1,132,511 row(s)/18 chunk(s)</text>
</g>
<!-- 281398222703888 -->
<g id="node6" class="node">
<title>281398222703888</title>
<g id="a_node6"><a xlink:title="Output: 2992567 rows in 8 chunks, 77 ms 656 µs.&#10;Operator step runtimes:&#10; ForwardUnmodifiedColumns 12 µs 576 ns&#10; EvaluateNewColumns 77 ms 593 µs&#10; BuildOutput 42 µs 561 ns.">
<polygon fill="none" stroke="white" stroke-width="2.13" points="548,-1232 435,-1232 435,-1178 548,-1178 548,-1232"/>
<text text-anchor="middle" x="491.5" y="-1216.8" font-family="Times,serif" font-size="14.00" fill="white">Projection</text>
<text text-anchor="middle" x="491.5" y="-1185.8" font-family="Times,serif" font-size="14.00" fill="white">77 ms 656 µs</text>
</a>
</g>
</g>
<!-- 281398222703888&#45;&gt;281398204173840 -->
<g id="edge5" class="edge">
<title>281398222703888&#45;&gt;281398204173840</title>
<path fill="none" stroke="white" d="M491.5,-1232.28C491.5,-1243.91 491.5,-1258.18 491.5,-1272.45"/>
<polygon fill="white" stroke="white" points="488,-1272.8 491.5,-1282.8 495,-1272.8 488,-1272.8"/>
<text text-anchor="middle" x="592" y="-1253.8" font-family="Times,serif" font-size="14.00" fill="white">2,992,567 row(s)/8 chunk(s)</text>
</g>
<!-- 281398222703568 -->
<g id="node7" class="node">
<title>281398222703568</title>
<g id="a_node7"><a xlink:title="Output: 2992567 rows in 8 chunks, 208 ms 139 µs.&#10;Operator step runtimes:&#10; BuildSideMaterializing 40 ms 998 µs&#10; ProbeSideMaterializing 92 ms 903 µs&#10; Clustering 3 ms 40 µs&#10; Building 21 ms 810 µs&#10; Probing 40 ms 810 µs&#10; OutputWriting 8 ms 435 µs.&#10;Radix bits: 5.&#10;Build side is left.">
<polygon fill="none" stroke="white" stroke-width="4.56" points="587,-1127 396,-1127 396,-1058 587,-1058 587,-1127"/>
<text text-anchor="middle" x="491.5" y="-1111.8" font-family="Times,serif" font-size="14.00" fill="white">JoinHash (Inner)</text>
<text text-anchor="middle" x="491.5" y="-1096.8" font-family="Times,serif" font-size="14.00" fill="white">l_orderkey = o_orderkey</text>
<text text-anchor="middle" x="491.5" y="-1065.8" font-family="Times,serif" font-size="14.00" fill="white">208 ms 139 µs</text>
</a>
</g>
</g>
<!-- 281398222703568&#45;&gt;281398222703888 -->
<g id="edge6" class="edge">
<title>281398222703568&#45;&gt;281398222703888</title>
<path fill="none" stroke="white" d="M491.5,-1127.25C491.5,-1140.07 491.5,-1154.73 491.5,-1167.77"/>
<polygon fill="white" stroke="white" points="488,-1167.81 491.5,-1177.81 495,-1167.81 488,-1167.81"/>
<text text-anchor="middle" x="592" y="-1148.8" font-family="Times,serif" font-size="14.00" fill="white">2,992,567 row(s)/8 chunk(s)</text>
</g>
<!-- 281398204248848 -->
<g id="node8" class="node">
<title>281398204248848</title>
<g id="a_node8"><a xlink:title="Output: 2992567 rows in 32 chunks, 15 ms 542 µs.">
<polygon fill="none" stroke="white" points="434,-1007 321,-1007 321,-953 434,-953 434,-1007"/>
<text text-anchor="middle" x="377.5" y="-991.8" font-family="Times,serif" font-size="14.00" fill="white">Validate</text>
<text text-anchor="middle" x="377.5" y="-960.8" font-family="Times,serif" font-size="14.00" fill="white">15 ms 542 µs</text>
</a>
</g>
</g>
<!-- 281398204248848&#45;&gt;281398222703568 -->
<g id="edge7" class="edge">
<title>281398204248848&#45;&gt;281398222703568</title>
<path fill="none" stroke="white" d="M374.23,-1007.03C374.16,-1018.07 375.93,-1030.54 382.5,-1040 385.19,-1043.88 388.25,-1047.47 391.6,-1050.8"/>
<polygon fill="white" stroke="white" points="391.87,-1051.04 389.55,-1053.66 399.35,-1057.67 391.87,-1051.04"/>
<text text-anchor="middle" x="487.5" y="-1028.8" font-family="Times,serif" font-size="14.00" fill="white">2,992,567 row(s)/32 chunk(s)</text>
</g>
<!-- 281398222703248 -->
<g id="node9" class="node">
<title>281398222703248</title>
<g id="a_node9"><a xlink:title="Output: 2992567 rows in 32 chunks, 374 ms 107 µs.&#10;Operator step runtimes:&#10; BuildSideMaterializing 93 ms 532 µs&#10; ProbeSideMaterializing 134 ms 941 µs&#10; Clustering 57 ms 622 µs&#10; Building 13 ms 248 µs&#10; Probing 54 ms 417 µs&#10; OutputWriting 19 ms 988 µs.&#10;Radix bits: 7.&#10;Build side is right.">
<polygon fill="none" stroke="white" stroke-width="6.01" points="476.5,-902 268.5,-902 268.5,-833 476.5,-833 476.5,-902"/>
<text text-anchor="middle" x="372.5" y="-886.8" font-family="Times,serif" font-size="14.00" fill="white">JoinHash (Semi Reduction)</text>
<text text-anchor="middle" x="372.5" y="-871.8" font-family="Times,serif" font-size="14.00" fill="white">l_orderkey = o_orderkey</text>
<text text-anchor="middle" x="372.5" y="-840.8" font-family="Times,serif" font-size="14.00" fill="white">374 ms 107 µs</text>
</a>
</g>
</g>
<!-- 281398222703248&#45;&gt;281398204248848 -->
<g id="edge8" class="edge">
<title>281398222703248&#45;&gt;281398204248848</title>
<path fill="none" stroke="white" d="M373.27,-902.34C373.57,-912.81 373.98,-924.39 374.5,-935 374.62,-937.54 374.77,-940.17 374.92,-942.81"/>
<polygon fill="white" stroke="white" points="371.44,-943.19 375.56,-952.95 378.43,-942.75 371.44,-943.19"/>
<text text-anchor="middle" x="479.5" y="-923.8" font-family="Times,serif" font-size="14.00" fill="white">2,992,567 row(s)/32 chunk(s)</text>
</g>
<!-- 281398222701648 -->
<g id="node10" class="node">
<title>281398222701648</title>
<g id="a_node10"><a xlink:title="Output: 326487653 rows in 9156 chunks, 32 ms 942 µs.&#10;Chunks: 0 skipped with no results, &#10;0 skipped with all matching, 0 scanned using binary search.">
<polygon fill="none" stroke="white" points="199,-782 0,-782 0,-698 199,-698 199,-782"/>
<text text-anchor="middle" x="99.5" y="-766.8" font-family="Times,serif" font-size="14.00" fill="white">TableScan</text>
<text text-anchor="middle" x="99.5" y="-751.8" font-family="Times,serif" font-size="14.00" fill="white">Impl: ColumnVsValue</text>
<text text-anchor="middle" x="99.5" y="-736.8" font-family="Times,serif" font-size="14.00" fill="white">l_shipdate &gt; &#39;1995&#45;03&#45;03&#39;</text>
<text text-anchor="middle" x="99.5" y="-705.8" font-family="Times,serif" font-size="14.00" fill="white">32 ms 942 µs</text>
</a>
</g>
</g>
<!-- 281398222701648&#45;&gt;281398222703248 -->
<g id="edge9" class="edge">
<title>281398222701648&#45;&gt;281398222703248</title>
<path fill="none" stroke="white" stroke-width="6.5" d="M99.5,-782.33C101.53,-794.27 105.87,-806.39 114.5,-815 135.1,-835.54 199.08,-848.39 258.16,-856.12"/>
<polygon fill="white" stroke="white" stroke-width="6.5" points="258.44,-856.15 257.73,-861.79 268.36,-857.41 258.44,-856.15"/>
<text text-anchor="middle" x="239.5" y="-803.8" font-family="Times,serif" font-size="14.00" fill="white">326,487,653 row(s)/9,156 chunk(s)</text>
</g>
<!-- 281398204839952 -->
<g id="node11" class="node">
<title>281398204839952</title>
<g id="a_node11"><a xlink:title="Output: 600037902 rows in 9156 chunks, 15 ms 34 µs.">
<polygon fill="none" stroke="white" points="165,-647 34,-647 34,-533 165,-533 165,-647"/>
<text text-anchor="middle" x="99.5" y="-631.8" font-family="Times,serif" font-size="14.00" fill="white">GetTable</text>
<text text-anchor="middle" x="99.5" y="-616.8" font-family="Times,serif" font-size="14.00" fill="white">(lineitem)</text>
<text text-anchor="middle" x="99.5" y="-601.8" font-family="Times,serif" font-size="14.00" fill="white">pruned:</text>
<text text-anchor="middle" x="99.5" y="-586.8" font-family="Times,serif" font-size="14.00" fill="white">0/9156 chunk(s)</text>
<text text-anchor="middle" x="99.5" y="-571.8" font-family="Times,serif" font-size="14.00" fill="white">12/16 column(s)</text>
<text text-anchor="middle" x="99.5" y="-540.8" font-family="Times,serif" font-size="14.00" fill="white">15 ms 34 µs</text>
</a>
</g>
</g>
<!-- 281398204839952&#45;&gt;281398222701648 -->
<g id="edge10" class="edge">
<title>281398204839952&#45;&gt;281398222701648</title>
<path fill="none" stroke="white" stroke-width="8" d="M99.5,-647.37C99.5,-660.65 99.5,-674.74 99.5,-687.77"/>
<polygon fill="white" stroke="white" stroke-width="8" points="92.5,-687.97 99.5,-697.97 106.5,-687.97 92.5,-687.97"/>
<text text-anchor="middle" x="224.5" y="-668.8" font-family="Times,serif" font-size="14.00" fill="white">600,037,902 row(s)/9,156 chunk(s)</text>
</g>
<!-- 281398204249104 -->
<g id="node12" class="node">
<title>281398204249104</title>
<g id="a_node12"><a xlink:title="Output: 14435346 rows in 32 chunks, 5 ms 207 µs.">
<polygon fill="none" stroke="white" points="541.5,-767 437.5,-767 437.5,-713 541.5,-713 541.5,-767"/>
<text text-anchor="middle" x="489.5" y="-751.8" font-family="Times,serif" font-size="14.00" fill="white">Validate</text>
<text text-anchor="middle" x="489.5" y="-720.8" font-family="Times,serif" font-size="14.00" fill="white">5 ms 207 µs</text>
</a>
</g>
</g>
<!-- 281398204249104&#45;&gt;281398222703568 -->
<g id="edge12" class="edge">
<title>281398204249104&#45;&gt;281398222703568</title>
<path fill="none" stroke="white" d="M541.51,-757.92C561.08,-767.11 581.29,-780.66 592.5,-800 645.99,-892.29 648.22,-949.04 592.5,-1040 590.19,-1043.78 587.5,-1047.29 584.52,-1050.55"/>
<polygon fill="white" stroke="white" points="577.09,-1057.72 586.72,-1053.29 584.29,-1050.78 577.09,-1057.72"/>
<text text-anchor="middle" x="742" y="-923.8" font-family="Times,serif" font-size="14.00" fill="white">14,435,346 row(s)/32 chunk(s)</text>
</g>
<!-- 281398204249104&#45;&gt;281398222703248 -->
<g id="edge11" class="edge">
<title>281398204249104&#45;&gt;281398222703248</title>
<path fill="none" stroke="white" d="M437.32,-754.12C413.58,-762.95 387.67,-777.28 373.5,-800 369.29,-806.75 367.27,-814.69 366.58,-822.68"/>
<polygon fill="white" stroke="white" points="366.33,-832.75 370.07,-822.83 366.57,-822.75 366.33,-832.75"/>
<text text-anchor="middle" x="483" y="-803.8" font-family="Times,serif" font-size="14.00" fill="white">14,435,346 row(s)/32 chunk(s)</text>
</g>
<!-- 281398222702608 -->
<g id="node13" class="node">
<title>281398222702608</title>
<g id="a_node13"><a xlink:title="Output: 14435346 rows in 32 chunks, 103 ms 59 µs.&#10;Operator step runtimes:&#10; BuildSideMaterializing 4 ms 236 µs&#10; ProbeSideMaterializing 41 ms 507 µs&#10; Clustering 12 ms 338 µs&#10; Building 793 µs 98 ns&#10; Probing 30 ms 973 µs&#10; OutputWriting 13 ms 6 µs.&#10;Radix bits: 5.&#10;Build side is right.">
<polygon fill="none" stroke="white" stroke-width="2.83" points="577.5,-624.5 401.5,-624.5 401.5,-555.5 577.5,-555.5 577.5,-624.5"/>
<text text-anchor="middle" x="489.5" y="-609.3" font-family="Times,serif" font-size="14.00" fill="white">JoinHash (Semi)</text>
<text text-anchor="middle" x="489.5" y="-594.3" font-family="Times,serif" font-size="14.00" fill="white">o_custkey = c_custkey</text>
<text text-anchor="middle" x="489.5" y="-563.3" font-family="Times,serif" font-size="14.00" fill="white">103 ms 59 µs</text>
</a>
</g>
</g>
<!-- 281398222702608&#45;&gt;281398204249104 -->
<g id="edge13" class="edge">
<title>281398222702608&#45;&gt;281398204249104</title>
<path fill="none" stroke="white" d="M489.5,-624.58C489.5,-647.91 489.5,-678.97 489.5,-702.84"/>
<polygon fill="white" stroke="white" points="486,-702.92 489.5,-712.92 493,-702.92 486,-702.92"/>
<text text-anchor="middle" x="599" y="-668.8" font-family="Times,serif" font-size="14.00" fill="white">14,435,346 row(s)/32 chunk(s)</text>
</g>
<!-- 281398222701328 -->
<g id="node14" class="node">
<title>281398222701328</title>
<g id="a_node14"><a xlink:title="Output: 72126667 rows in 2289 chunks, 42 ms 981 µs.&#10;Chunks: 0 skipped with no results, &#10;0 skipped with all matching, 0 scanned using binary search.">
<polygon fill="none" stroke="white" points="461.5,-482 249.5,-482 249.5,-398 461.5,-398 461.5,-482"/>
<text text-anchor="middle" x="355.5" y="-466.8" font-family="Times,serif" font-size="14.00" fill="white">TableScan</text>
<text text-anchor="middle" x="355.5" y="-451.8" font-family="Times,serif" font-size="14.00" fill="white">Impl: ColumnVsValue</text>
<text text-anchor="middle" x="355.5" y="-436.8" font-family="Times,serif" font-size="14.00" fill="white">o_orderdate &lt; &#39;1995&#45;03&#45;03&#39;</text>
<text text-anchor="middle" x="355.5" y="-405.8" font-family="Times,serif" font-size="14.00" fill="white">42 ms 981 µs</text>
</a>
</g>
</g>
<!-- 281398222701328&#45;&gt;281398222702608 -->
<g id="edge14" class="edge">
<title>281398222701328&#45;&gt;281398222702608</title>
<path fill="none" stroke="white" stroke-width="2.77" d="M350.72,-482.34C351.21,-493.62 353.55,-505.37 359.5,-515 368.04,-528.81 380.16,-540.29 393.61,-549.75"/>
<polygon fill="white" stroke="white" stroke-width="2.77" points="393.79,-549.87 391.86,-552.79 402.13,-555.39 393.79,-549.87"/>
<text text-anchor="middle" x="480" y="-503.8" font-family="Times,serif" font-size="14.00" fill="white">72,126,667 row(s)/2,289 chunk(s)</text>
</g>
<!-- 281398204840400 -->
<g id="node15" class="node">
<title>281398204840400</title>
<g id="a_node15"><a xlink:title="Output: 150000000 rows in 2289 chunks, 5 ms 382 µs.">
<polygon fill="none" stroke="white" points="417,-347 286,-347 286,-233 417,-233 417,-347"/>
<text text-anchor="middle" x="351.5" y="-331.8" font-family="Times,serif" font-size="14.00" fill="white">GetTable</text>
<text text-anchor="middle" x="351.5" y="-316.8" font-family="Times,serif" font-size="14.00" fill="white">(orders)</text>
<text text-anchor="middle" x="351.5" y="-301.8" font-family="Times,serif" font-size="14.00" fill="white">pruned:</text>
<text text-anchor="middle" x="351.5" y="-286.8" font-family="Times,serif" font-size="14.00" fill="white">0/2289 chunk(s)</text>
<text text-anchor="middle" x="351.5" y="-271.8" font-family="Times,serif" font-size="14.00" fill="white">5/9 column(s)</text>
<text text-anchor="middle" x="351.5" y="-240.8" font-family="Times,serif" font-size="14.00" fill="white">5 ms 382 µs</text>
</a>
</g>
</g>
<!-- 281398204840400&#45;&gt;281398222701328 -->
<g id="edge15" class="edge">
<title>281398204840400&#45;&gt;281398222701328</title>
<path fill="none" stroke="white" stroke-width="4.58" d="M353.02,-347.37C353.38,-360.65 353.76,-374.74 354.12,-387.77"/>
<polygon fill="white" stroke="white" stroke-width="4.58" points="350.11,-388.08 354.39,-397.97 358.13,-387.86 350.11,-388.08"/>
<text text-anchor="middle" x="479.5" y="-368.8" font-family="Times,serif" font-size="14.00" fill="white">150,000,000 row(s)/2,289 chunk(s)</text>
</g>
<!-- 281398204248592 -->
<g id="node16" class="node">
<title>281398204248592</title>
<g id="a_node16"><a xlink:title="Output: 2999152 rows in 229 chunks, 428 µs 837 ns.">
<polygon fill="none" stroke="white" points="682,-467 565,-467 565,-413 682,-413 682,-467"/>
<text text-anchor="middle" x="623.5" y="-451.8" font-family="Times,serif" font-size="14.00" fill="white">Validate</text>
<text text-anchor="middle" x="623.5" y="-420.8" font-family="Times,serif" font-size="14.00" fill="white">428 µs 837 ns</text>
</a>
</g>
</g>
<!-- 281398204248592&#45;&gt;281398222702608 -->
<g id="edge16" class="edge">
<title>281398204248592&#45;&gt;281398222702608</title>
<path fill="none" stroke="white" d="M619.81,-467.3C616.65,-482.42 610.89,-501.1 600.5,-515 590.68,-528.13 577.8,-539.66 564.31,-549.47"/>
<polygon fill="white" stroke="white" points="555.85,-555.35 566.05,-552.52 564.06,-549.64 555.85,-555.35"/>
<text text-anchor="middle" x="719" y="-503.8" font-family="Times,serif" font-size="14.00" fill="white">2,999,152 row(s)/229 chunk(s)</text>
</g>
<!-- 281398222701968 -->
<g id="node17" class="node">
<title>281398222701968</title>
<g id="a_node17"><a xlink:title="Output: 2999152 rows in 229 chunks, 982 µs 796 ns.&#10;Chunks: 0 skipped with no results, &#10;0 skipped with all matching, 0 scanned using binary search.">
<polygon fill="none" stroke="white" points="744.5,-332 504.5,-332 504.5,-248 744.5,-248 744.5,-332"/>
<text text-anchor="middle" x="624.5" y="-316.8" font-family="Times,serif" font-size="14.00" fill="white">TableScan</text>
<text text-anchor="middle" x="624.5" y="-301.8" font-family="Times,serif" font-size="14.00" fill="white">Impl: ColumnVsValue</text>
<text text-anchor="middle" x="624.5" y="-286.8" font-family="Times,serif" font-size="14.00" fill="white">c_mktsegment = &#39;FURNITURE&#39;</text>
<text text-anchor="middle" x="624.5" y="-255.8" font-family="Times,serif" font-size="14.00" fill="white">982 µs 796 ns</text>
</a>
</g>
</g>
<!-- 281398222701968&#45;&gt;281398204248592 -->
<g id="edge17" class="edge">
<title>281398222701968&#45;&gt;281398204248592</title>
<path fill="none" stroke="white" d="M624.22,-332.23C624.07,-354.32 623.89,-381.31 623.75,-402.62"/>
<polygon fill="white" stroke="white" points="620.24,-402.86 623.68,-412.88 627.24,-402.91 620.24,-402.86"/>
<text text-anchor="middle" x="733" y="-368.8" font-family="Times,serif" font-size="14.00" fill="white">2,999,152 row(s)/229 chunk(s)</text>
</g>
<!-- 281398204840848 -->
<g id="node18" class="node">
<title>281398204840848</title>
<g id="a_node18"><a xlink:title="Output: 15000000 rows in 229 chunks, 695 µs 337 ns.">
<polygon fill="none" stroke="white" points="685.5,-148 563.5,-148 563.5,-34 685.5,-34 685.5,-148"/>
<text text-anchor="middle" x="624.5" y="-132.8" font-family="Times,serif" font-size="14.00" fill="white">GetTable</text>
<text text-anchor="middle" x="624.5" y="-117.8" font-family="Times,serif" font-size="14.00" fill="white">(customer)</text>
<text text-anchor="middle" x="624.5" y="-102.8" font-family="Times,serif" font-size="14.00" fill="white">pruned:</text>
<text text-anchor="middle" x="624.5" y="-87.8" font-family="Times,serif" font-size="14.00" fill="white">0/229 chunk(s)</text>
<text text-anchor="middle" x="624.5" y="-72.8" font-family="Times,serif" font-size="14.00" fill="white">6/8 column(s)</text>
<text text-anchor="middle" x="624.5" y="-41.8" font-family="Times,serif" font-size="14.00" fill="white">695 µs 337 ns</text>
</a>
</g>
</g>
<!-- 281398204840848&#45;&gt;281398222701968 -->
<g id="edge18" class="edge">
<title>281398204840848&#45;&gt;281398222701968</title>
<path fill="none" stroke="white" d="M624.5,-148.19C624.5,-176.32 624.5,-210.15 624.5,-237.59"/>
<polygon fill="white" stroke="white" points="621,-237.77 624.5,-247.77 628,-237.77 621,-237.77"/>
<text text-anchor="middle" x="738.5" y="-203.8" font-family="Times,serif" font-size="14.00" fill="white">15,000,000 row(s)/229 chunk(s)</text>
</g>
<!-- 0 -->
<g id="node19" class="node">
<title>0</title>
<polygon fill="none" stroke="white" points="704,-0.5 704,-181.5 1025,-181.5 1025,-0.5 704,-0.5"/>
<text text-anchor="middle" x="864.5" y="-166.3" font-family="Times,serif" font-size="14.00" fill="white">Total by operator</text>
<polyline fill="none" stroke="white" points="704,-158.5 1025,-158.5 "/>
<text text-anchor="end" x="833" y="-143.3" font-family="Times,serif" font-size="14.00" fill="white">Sort </text>
<text text-anchor="end" x="833" y="-128.3" font-family="Times,serif" font-size="14.00" fill="white"> JoinHash </text>
<text text-anchor="end" x="833" y="-113.3" font-family="Times,serif" font-size="14.00" fill="white"> AggregateHash </text>
<text text-anchor="end" x="833" y="-98.3" font-family="Times,serif" font-size="14.00" fill="white"> Projection </text>
<text text-anchor="end" x="833" y="-83.3" font-family="Times,serif" font-size="14.00" fill="white"> TableScan </text>
<text text-anchor="end" x="833" y="-68.3" font-family="Times,serif" font-size="14.00" fill="white"> Validate </text>
<text text-anchor="end" x="833" y="-53.3" font-family="Times,serif" font-size="14.00" fill="white"> GetTable </text>
<text text-anchor="end" x="833" y="-38.3" font-family="Times,serif" font-size="14.00" fill="white"> Limit </text>
<text text-anchor="end" x="833" y="-23.3" font-family="Times,serif" font-size="14.00" fill="white"> Alias </text>
<text text-anchor="end" x="833" y="-8.3" font-family="Times,serif" font-size="14.00" fill="white">total</text>
<polyline fill="none" stroke="white" points="841,-0.5 841,-158.5 "/>
<text text-anchor="start" x="849" y="-143.3" font-family="Times,serif" font-size="14.00" fill="white">839 ms 538 µs </text>
<text text-anchor="start" x="849" y="-128.3" font-family="Times,serif" font-size="14.00" fill="white"> 685 ms 305 µs </text>
<text text-anchor="start" x="849" y="-113.3" font-family="Times,serif" font-size="14.00" fill="white"> 650 ms 28 µs </text>
<text text-anchor="start" x="849" y="-98.3" font-family="Times,serif" font-size="14.00" fill="white"> 77 ms 665 µs </text>
<text text-anchor="start" x="849" y="-83.3" font-family="Times,serif" font-size="14.00" fill="white"> 76 ms 906 µs </text>
<text text-anchor="start" x="849" y="-68.3" font-family="Times,serif" font-size="14.00" fill="white"> 21 ms 178 µs </text>
<text text-anchor="start" x="849" y="-53.3" font-family="Times,serif" font-size="14.00" fill="white"> 21 ms 111 µs </text>
<text text-anchor="start" x="849" y="-38.3" font-family="Times,serif" font-size="14.00" fill="white"> 9 µs 824 ns </text>
<text text-anchor="start" x="849" y="-23.3" font-family="Times,serif" font-size="14.00" fill="white"> 2 µs 592 ns </text>
<text text-anchor="start" x="849" y="-8.3" font-family="Times,serif" font-size="14.00" fill="white"> 2 s 372 ms </text>
<polyline fill="none" stroke="white" points="972,-0.5 972,-158.5 "/>
<text text-anchor="start" x="980" y="-143.3" font-family="Times,serif" font-size="14.00" fill="white">35 %</text>
<text text-anchor="start" x="980" y="-128.3" font-family="Times,serif" font-size="14.00" fill="white">29 %</text>
<text text-anchor="start" x="980" y="-113.3" font-family="Times,serif" font-size="14.00" fill="white">27 %</text>
<text text-anchor="start" x="980" y="-98.3" font-family="Times,serif" font-size="14.00" fill="white">3 %</text>
<text text-anchor="start" x="980" y="-83.3" font-family="Times,serif" font-size="14.00" fill="white">3 %</text>
<text text-anchor="start" x="980" y="-68.3" font-family="Times,serif" font-size="14.00" fill="white">1 %</text>
<text text-anchor="start" x="980" y="-53.3" font-family="Times,serif" font-size="14.00" fill="white">1 %</text>
<text text-anchor="start" x="980" y="-38.3" font-family="Times,serif" font-size="14.00" fill="white">0 %</text>
<text text-anchor="start" x="980" y="-23.3" font-family="Times,serif" font-size="14.00" fill="white">0 %</text>
<text text-anchor="start" x="980" y="-8.3" font-family="Times,serif" font-size="14.00" fill="white"> </text>
</g>
</g>
</svg>
