<?xml version="1.0" encoding="UTF-8" standalone="no"?>
<!DOCTYPE svg PUBLIC "-//W3C//DTD SVG 1.1//EN"
 "http://www.w3.org/Graphics/SVG/1.1/DTD/svg11.dtd">
<!-- Generated by graphviz version 2.43.0 (0)
 -->
<!-- Title: G Pages: 1 -->
<svg width="810pt" height="2420pt"
 viewBox="0.00 0.00 810.00 2420.00" xmlns="http://www.w3.org/2000/svg" xmlns:xlink="http://www.w3.org/1999/xlink">
<g id="graph0" class="graph" transform="scale(1 1) rotate(0) translate(4 2416)">
<title>G</title>
<polygon fill="black" stroke="transparent" points="-4,4 -4,-2416 806,-2416 806,4 -4,4"/>
<text text-anchor="middle" x="319.5" y="-2396.8" font-family="Times,serif" font-size="14.00" fill="white">For tooltips with advanced information, hover your mouse over vertices or edge labels.</text>
<!-- 133094371126160 -->
<g id="node1" class="node">
<title>133094371126160</title>
<g id="a_node1"><a xlink:title="Output: 8954 rows in 1 chunk filtered: 0, 7 µs 960 ns.&#10;Operator step runtimes:&#10; ForwardUnmodifiedColumns 2 µs 487 ns&#10; EvaluateNewColumns 411 ns&#10; BuildOutput 3 µs 670 ns.">
<polygon fill="none" stroke="white" points="538.5,-2357 439.5,-2357 439.5,-2303 538.5,-2303 538.5,-2357"/>
<text text-anchor="middle" x="489" y="-2341.8" font-family="Times,serif" font-size="14.00" fill="white">Projection</text>
<text text-anchor="middle" x="489" y="-2310.8" font-family="Times,serif" font-size="14.00" fill="white">7 µs 960 ns</text>
</a>
</g>
</g>
<!-- 133094371125840 -->
<g id="node2" class="node">
<title>133094371125840</title>
<g id="a_node2"><a xlink:title="Output: 8954 rows in 1 chunk filtered: 0, 8 ms 570 µs.&#10;Operator step runtimes:&#10; MaterializeSortColumns 3 ms 428 µs&#10; Sort 4 ms 798 µs&#10; TemporaryResultWriting 16 µs 188 ns&#10; WriteOutput 169 µs 595 ns.">
<polygon fill="none" stroke="white" points="541,-2252 437,-2252 437,-2198 541,-2198 541,-2252"/>
<text text-anchor="middle" x="489" y="-2236.8" font-family="Times,serif" font-size="14.00" fill="white">Sort</text>
<text text-anchor="middle" x="489" y="-2205.8" font-family="Times,serif" font-size="14.00" fill="white">8 ms 570 µs</text>
</a>
</g>
</g>
<!-- 133094371125840&#45;&gt;133094371126160 -->
<g id="edge1" class="edge">
<title>133094371125840&#45;&gt;133094371126160</title>
<path fill="none" stroke="white" d="M489,-2252.26C489,-2264.49 489,-2279.24 489,-2292.52"/>
<polygon fill="white" stroke="white" points="485.5,-2292.79 489,-2302.79 492.5,-2292.79 485.5,-2292.79"/>
<text text-anchor="middle" x="573.5" y="-2273.8" font-family="Times,serif" font-size="14.00" fill="white">8,954 row(s)/1 chunk(s)</text>
</g>
<!-- 133105112433168 -->
<g id="node3" class="node">
<title>133105112433168</title>
<g id="a_node3"><a xlink:title="Output: 8954 rows in 1 chunk filtered: 0, 50 µs 165 ns.">
<polygon fill="none" stroke="white" points="543,-2147 435,-2147 435,-2093 543,-2093 543,-2147"/>
<text text-anchor="middle" x="489" y="-2131.8" font-family="Times,serif" font-size="14.00" fill="white">Validate</text>
<text text-anchor="middle" x="489" y="-2100.8" font-family="Times,serif" font-size="14.00" fill="white">50 µs 165 ns</text>
</a>
</g>
</g>
<!-- 133105112433168&#45;&gt;133094371125840 -->
<g id="edge2" class="edge">
<title>133105112433168&#45;&gt;133094371125840</title>
<path fill="none" stroke="white" d="M489,-2147.26C489,-2159.49 489,-2174.24 489,-2187.52"/>
<polygon fill="white" stroke="white" points="485.5,-2187.79 489,-2197.79 492.5,-2187.79 485.5,-2187.79"/>
<text text-anchor="middle" x="573.5" y="-2168.8" font-family="Times,serif" font-size="14.00" fill="white">8,954 row(s)/1 chunk(s)</text>
</g>
<!-- 133094371125520 -->
<g id="node4" class="node">
<title>133094371125520</title>
<g id="a_node4"><a xlink:title="Output: 8954 rows in 1 chunk filtered: 0, 12 ms 71 µs.&#10;Operator step runtimes:&#10; LeftSideMaterialize 9 ms 754 µs&#10; RightSideMaterialize 41 µs 93 ns&#10; LeftSideTransform 0 ns&#10; RightSideTransform 0 ns&#10; LeftSidePartition 300 µs 220 ns&#10; RightSidePartition 16 µs 844 ns&#10; LeftSideSortBuckets 739 µs 546 ns&#10; RightSideSortBuckets 642 µs 613 ns&#10; GatherRowIds 1 µs 201 ns&#10; FindJoinPartner 121 µs 560 ns&#10; OutputWriting 298 µs 21 ns.&#10;Radix bits: 8.">
<polygon fill="none" stroke="white" points="593.5,-2042 384.5,-2042 384.5,-1973 593.5,-1973 593.5,-2042"/>
<text text-anchor="middle" x="489" y="-2026.8" font-family="Times,serif" font-size="14.00" fill="white">JoinSimdSortMerge (Semi)</text>
<text text-anchor="middle" x="489" y="-2011.8" font-family="Times,serif" font-size="14.00" fill="white">s_nationkey = n_nationkey</text>
<text text-anchor="middle" x="489" y="-1980.8" font-family="Times,serif" font-size="14.00" fill="white">12 ms 71 µs</text>
</a>
</g>
</g>
<!-- 133094371125520&#45;&gt;133105112433168 -->
<g id="edge3" class="edge">
<title>133094371125520&#45;&gt;133105112433168</title>
<path fill="none" stroke="white" d="M489,-2042.25C489,-2055.07 489,-2069.73 489,-2082.77"/>
<polygon fill="white" stroke="white" points="485.5,-2082.81 489,-2092.81 492.5,-2082.81 485.5,-2082.81"/>
<text text-anchor="middle" x="573.5" y="-2063.8" font-family="Times,serif" font-size="14.00" fill="white">8,954 row(s)/1 chunk(s)</text>
</g>
<!-- 133094371124880 -->
<g id="node5" class="node">
<title>133094371124880</title>
<g id="a_node5"><a xlink:title="Output: 223888 rows in 256 chunks filtered: 0, 23 ms 977 µs.&#10;Operator step runtimes:&#10; LeftSideMaterialize 855 µs 14 ns&#10; RightSideMaterialize 13 ms 829 µs&#10; LeftSideTransform 0 ns&#10; RightSideTransform 0 ns&#10; LeftSidePartition 2 ms 650 µs&#10; RightSidePartition 2 ms 532 µs&#10; LeftSideSortBuckets 653 µs 594 ns&#10; RightSideSortBuckets 616 µs 879 ns&#10; GatherRowIds 2 µs 412 ns&#10; FindJoinPartner 1 ms 574 µs&#10; OutputWriting 796 µs 600 ns.&#10;Radix bits: 8.">
<polygon fill="none" stroke="white" points="479.5,-1922 270.5,-1922 270.5,-1853 479.5,-1853 479.5,-1922"/>
<text text-anchor="middle" x="375" y="-1906.8" font-family="Times,serif" font-size="14.00" fill="white">JoinSimdSortMerge (Semi)</text>
<text text-anchor="middle" x="375" y="-1891.8" font-family="Times,serif" font-size="14.00" fill="white">s_suppkey = ps_suppkey</text>
<text text-anchor="middle" x="375" y="-1860.8" font-family="Times,serif" font-size="14.00" fill="white">23 ms 977 µs</text>
</a>
</g>
</g>
<!-- 133094371124880&#45;&gt;133094371125520 -->
<g id="edge4" class="edge">
<title>133094371124880&#45;&gt;133094371125520</title>
<path fill="none" stroke="white" d="M368.61,-1922.06C368.18,-1933.32 369.74,-1945.43 376,-1955 378.59,-1958.96 381.57,-1962.63 384.85,-1966.01"/>
<polygon fill="white" stroke="white" points="385.1,-1966.24 382.74,-1968.82 392.48,-1972.98 385.1,-1966.24"/>
<text text-anchor="middle" x="478.5" y="-1943.8" font-family="Times,serif" font-size="14.00" fill="white">223,888 row(s)/256 chunk(s)</text>
</g>
<!-- 133105112310160 -->
<g id="node6" class="node">
<title>133105112310160</title>
<g id="a_node6"><a xlink:title="Output: 500000 rows in 8 chunks filtered: 0, 54 µs 816 ns.">
<polygon fill="none" stroke="white" points="440.5,-1802 327.5,-1802 327.5,-1688 440.5,-1688 440.5,-1802"/>
<text text-anchor="middle" x="384" y="-1786.8" font-family="Times,serif" font-size="14.00" fill="white">GetTable</text>
<text text-anchor="middle" x="384" y="-1771.8" font-family="Times,serif" font-size="14.00" fill="white">(supplier)</text>
<text text-anchor="middle" x="384" y="-1756.8" font-family="Times,serif" font-size="14.00" fill="white">pruned:</text>
<text text-anchor="middle" x="384" y="-1741.8" font-family="Times,serif" font-size="14.00" fill="white">0/8 chunk(s)</text>
<text text-anchor="middle" x="384" y="-1726.8" font-family="Times,serif" font-size="14.00" fill="white">3/7 column(s)</text>
<text text-anchor="middle" x="384" y="-1695.8" font-family="Times,serif" font-size="14.00" fill="white">54 µs 816 ns</text>
</a>
</g>
</g>
<!-- 133105112310160&#45;&gt;133094371124880 -->
<g id="edge5" class="edge">
<title>133105112310160&#45;&gt;133094371124880</title>
<path fill="none" stroke="white" d="M380.39,-1802.34C379.54,-1815.7 378.63,-1829.76 377.82,-1842.48"/>
<polygon fill="white" stroke="white" points="377.8,-1842.82 374.31,-1842.6 377.16,-1852.8 377.8,-1842.82"/>
<text text-anchor="middle" x="473.5" y="-1823.8" font-family="Times,serif" font-size="14.00" fill="white">500,000 row(s)/8 chunk(s)</text>
</g>
<!-- 133094371124560 -->
<g id="node7" class="node">
<title>133094371124560</title>
<g id="a_node7"><a xlink:title="Output: 295980 rows in 256 chunks filtered: 0, 146 µs 552 ns.&#10;Operator step runtimes:&#10; ForwardUnmodifiedColumns 54 µs 178 ns&#10; EvaluateNewColumns 258 ns&#10; BuildOutput 62 µs 434 ns.">
<polygon fill="none" stroke="white" points="214.5,-1772 97.5,-1772 97.5,-1718 214.5,-1718 214.5,-1772"/>
<text text-anchor="middle" x="156" y="-1756.8" font-family="Times,serif" font-size="14.00" fill="white">Projection</text>
<text text-anchor="middle" x="156" y="-1725.8" font-family="Times,serif" font-size="14.00" fill="white">146 µs 552 ns</text>
</a>
</g>
</g>
<!-- 133094371124560&#45;&gt;133094371124880 -->
<g id="edge6" class="edge">
<title>133094371124560&#45;&gt;133094371124880</title>
<path fill="none" stroke="white" d="M152.99,-1772.24C152.24,-1791.93 154.7,-1818.26 170,-1835 183.21,-1849.45 221.02,-1860.8 260.63,-1869.13"/>
<polygon fill="white" stroke="white" points="270.45,-1871.13 261.35,-1865.7 260.65,-1869.13 270.45,-1871.13"/>
<text text-anchor="middle" x="272.5" y="-1823.8" font-family="Times,serif" font-size="14.00" fill="white">295,980 row(s)/256 chunk(s)</text>
</g>
<!-- 133094371124240 -->
<g id="node8" class="node">
<title>133094371124240</title>
<g id="a_node8"><a xlink:title="Output: 295980 rows in 256 chunks filtered: 0, 169 ms 601 µs.&#10;Operator step runtimes:&#10; LeftSideMaterialize 23 ms 248 µs&#10; RightSideMaterialize 40 ms 756 µs&#10; LeftSideTransform 0 ns&#10; RightSideTransform 0 ns&#10; LeftSidePartition 3 ms 43 µs&#10; RightSidePartition 2 ms 647 µs&#10; LeftSideSortBuckets 701 µs 441 ns&#10; RightSideSortBuckets 737 µs 108 ns&#10; GatherRowIds 3 µs 47 ns&#10; FindJoinPartner 97 ms 13 µs&#10; OutputWriting 1 ms 46 µs.&#10;Radix bits: 8.">
<polygon fill="none" stroke="white" stroke-width="4.67" points="311.5,-1629.5 0.5,-1629.5 0.5,-1530.5 311.5,-1530.5 311.5,-1629.5"/>
<text text-anchor="middle" x="156" y="-1614.3" font-family="Times,serif" font-size="14.00" fill="white">JoinSimdSortMerge (Semi)</text>
<text text-anchor="middle" x="156" y="-1599.3" font-family="Times,serif" font-size="14.00" fill="white">ps_suppkey = l_suppkey</text>
<text text-anchor="middle" x="156" y="-1584.3" font-family="Times,serif" font-size="14.00" fill="white">AND ps_availqty &gt; 0.5 * SUM(l_quantity)</text>
<text text-anchor="middle" x="156" y="-1569.3" font-family="Times,serif" font-size="14.00" fill="white">AND ps_partkey = l_partkey</text>
<text text-anchor="middle" x="156" y="-1538.3" font-family="Times,serif" font-size="14.00" fill="white">169 ms 601 µs</text>
</a>
</g>
</g>
<!-- 133094371124240&#45;&gt;133094371124560 -->
<g id="edge7" class="edge">
<title>133094371124240&#45;&gt;133094371124560</title>
<path fill="none" stroke="white" d="M156,-1629.91C156,-1654.95 156,-1684.92 156,-1707.85"/>
<polygon fill="white" stroke="white" points="152.5,-1707.85 156,-1717.85 159.5,-1707.85 152.5,-1707.85"/>
<text text-anchor="middle" x="258.5" y="-1658.8" font-family="Times,serif" font-size="14.00" fill="white">295,980 row(s)/256 chunk(s)</text>
</g>
<!-- 133105112433936 -->
<g id="node9" class="node">
<title>133105112433936</title>
<g id="a_node9"><a xlink:title="Output: 434744 rows in 256 chunks filtered: 0, 1 ms 290 µs.">
<polygon fill="none" stroke="white" points="238,-849.5 134,-849.5 134,-795.5 238,-795.5 238,-849.5"/>
<text text-anchor="middle" x="186" y="-834.3" font-family="Times,serif" font-size="14.00" fill="white">Validate</text>
<text text-anchor="middle" x="186" y="-803.3" font-family="Times,serif" font-size="14.00" fill="white">1 ms 290 µs</text>
</a>
</g>
</g>
<!-- 133105112433936&#45;&gt;133094371124240 -->
<g id="edge8" class="edge">
<title>133105112433936&#45;&gt;133094371124240</title>
<path fill="none" stroke="white" d="M171.19,-849.58C157.74,-875.76 140,-917.65 140,-956.5 140,-956.5 140,-956.5 140,-1446 140,-1470.41 142.69,-1497.16 145.86,-1520.24"/>
<polygon fill="white" stroke="white" points="145.88,-1520.32 142.41,-1520.81 147.3,-1530.22 145.88,-1520.32"/>
<text text-anchor="middle" x="242.5" y="-1186.3" font-family="Times,serif" font-size="14.00" fill="white">434,744 row(s)/256 chunk(s)</text>
</g>
<!-- 133094371122960 -->
<g id="node19" class="node">
<title>133094371122960</title>
<g id="a_node19"><a xlink:title="Output: 495620 rows in 256 chunks filtered: 0, 75 ms 480 µs.&#10;Operator step runtimes:&#10; LeftSideMaterialize 44 ms 471 µs&#10; RightSideMaterialize 17 ms 836 µs&#10; LeftSideTransform 0 ns&#10; RightSideTransform 0 ns&#10; LeftSidePartition 4 ms 92 µs&#10; RightSidePartition 3 ms 39 µs&#10; LeftSideSortBuckets 610 µs 365 ns&#10; RightSideSortBuckets 626 µs 792 ns&#10; GatherRowIds 2 µs 279 ns&#10; FindJoinPartner 2 ms 784 µs&#10; OutputWriting 1 ms 383 µs.&#10;Radix bits: 8.">
<polygon fill="none" stroke="white" stroke-width="2.67" points="557.5,-1112 272.5,-1112 272.5,-1043 557.5,-1043 557.5,-1112"/>
<text text-anchor="middle" x="415" y="-1096.8" font-family="Times,serif" font-size="14.00" fill="white">JoinSimdSortMerge (Semi Reduction)</text>
<text text-anchor="middle" x="415" y="-1081.8" font-family="Times,serif" font-size="14.00" fill="white">l_suppkey = ps_suppkey</text>
<text text-anchor="middle" x="415" y="-1050.8" font-family="Times,serif" font-size="14.00" fill="white">75 ms 480 µs</text>
</a>
</g>
</g>
<!-- 133105112433936&#45;&gt;133094371122960 -->
<g id="edge10" class="edge">
<title>133105112433936&#45;&gt;133094371122960</title>
<path fill="none" stroke="white" d="M179.33,-849.75C171.88,-885.57 164.51,-950.06 195,-992 212.06,-1015.46 236.54,-1032.41 263.02,-1044.65"/>
<polygon fill="white" stroke="white" points="272.47,-1048.78 264.71,-1041.56 263.31,-1044.77 272.47,-1048.78"/>
<text text-anchor="middle" x="297.5" y="-953.8" font-family="Times,serif" font-size="14.00" fill="white">434,744 row(s)/256 chunk(s)</text>
</g>
<!-- 133094371122640 -->
<g id="node20" class="node">
<title>133094371122640</title>
<g id="a_node20"><a xlink:title="Output: 495620 rows in 256 chunks filtered: 0, 279 ms 306 µs.&#10;Operator step runtimes:&#10; LeftSideMaterialize 220 ms 668 µs&#10; RightSideMaterialize 11 ms 301 µs&#10; LeftSideTransform 0 ns&#10; RightSideTransform 0 ns&#10; LeftSidePartition 9 ms 650 µs&#10; RightSidePartition 8 ms 776 µs&#10; LeftSideSortBuckets 11 ms 790 µs&#10; RightSideSortBuckets 772 µs 670 ns&#10; GatherRowIds 4 µs 408 ns&#10; FindJoinPartner 4 ms 597 µs&#10; OutputWriting 7 ms 379 µs.&#10;Radix bits: 8.">
<polygon fill="none" stroke="white" stroke-width="5.9" points="694.5,-992 409.5,-992 409.5,-923 694.5,-923 694.5,-992"/>
<text text-anchor="middle" x="552" y="-976.8" font-family="Times,serif" font-size="14.00" fill="white">JoinSimdSortMerge (Semi Reduction)</text>
<text text-anchor="middle" x="552" y="-961.8" font-family="Times,serif" font-size="14.00" fill="white">l_partkey = ps_partkey</text>
<text text-anchor="middle" x="552" y="-930.8" font-family="Times,serif" font-size="14.00" fill="white">279 ms 306 µs</text>
</a>
</g>
</g>
<!-- 133105112433936&#45;&gt;133094371122640 -->
<g id="edge9" class="edge">
<title>133105112433936&#45;&gt;133094371122640</title>
<path fill="none" stroke="white" d="M229.37,-849.58C260.2,-867.22 303.05,-889.95 343,-905 361.03,-911.79 380.26,-917.93 399.5,-923.41"/>
<polygon fill="white" stroke="white" points="409.24,-926.14 400.55,-920.07 399.61,-923.44 409.24,-926.14"/>
<text text-anchor="middle" x="445.5" y="-893.8" font-family="Times,serif" font-size="14.00" fill="white">434,744 row(s)/256 chunk(s)</text>
</g>
<!-- 133094371121680 -->
<g id="node10" class="node">
<title>133094371121680</title>
<g id="a_node10"><a xlink:title="Output: 434744 rows in 256 chunks filtered: 0, 77 ms 932 µs.&#10;Operator step runtimes:&#10; LeftSideMaterialize 42 ms 738 µs&#10; RightSideMaterialize 9 ms 926 µs&#10; LeftSideTransform 0 ns&#10; RightSideTransform 0 ns&#10; LeftSidePartition 4 ms 914 µs&#10; RightSidePartition 4 ms 7 µs&#10; LeftSideSortBuckets 10 ms 690 µs&#10; RightSideSortBuckets 632 µs 692 ns&#10; GatherRowIds 7 µs 144 ns&#10; FindJoinPartner 2 ms 504 µs&#10; OutputWriting 777 µs 454 ns.&#10;Radix bits: 8.">
<polygon fill="none" stroke="white" stroke-width="2.75" points="290.5,-699.5 81.5,-699.5 81.5,-630.5 290.5,-630.5 290.5,-699.5"/>
<text text-anchor="middle" x="186" y="-684.3" font-family="Times,serif" font-size="14.00" fill="white">JoinSimdSortMerge (Semi)</text>
<text text-anchor="middle" x="186" y="-669.3" font-family="Times,serif" font-size="14.00" fill="white">ps_partkey = p_partkey</text>
<text text-anchor="middle" x="186" y="-638.3" font-family="Times,serif" font-size="14.00" fill="white">77 ms 932 µs</text>
</a>
</g>
</g>
<!-- 133094371121680&#45;&gt;133105112433936 -->
<g id="edge11" class="edge">
<title>133094371121680&#45;&gt;133105112433936</title>
<path fill="none" stroke="white" d="M186,-699.74C186,-724.86 186,-759.13 186,-784.91"/>
<polygon fill="white" stroke="white" points="182.5,-785.03 186,-795.03 189.5,-785.03 182.5,-785.03"/>
<text text-anchor="middle" x="288.5" y="-743.8" font-family="Times,serif" font-size="14.00" fill="white">434,744 row(s)/256 chunk(s)</text>
</g>
<!-- 133105112307024 -->
<g id="node11" class="node">
<title>133105112307024</title>
<g id="a_node11"><a xlink:title="Output: 40000000 rows in 611 chunks filtered: 0, 3 ms 716 µs.">
<polygon fill="none" stroke="white" points="122,-557 0,-557 0,-443 122,-443 122,-557"/>
<text text-anchor="middle" x="61" y="-541.8" font-family="Times,serif" font-size="14.00" fill="white">GetTable</text>
<text text-anchor="middle" x="61" y="-526.8" font-family="Times,serif" font-size="14.00" fill="white">(partsupp)</text>
<text text-anchor="middle" x="61" y="-511.8" font-family="Times,serif" font-size="14.00" fill="white">pruned:</text>
<text text-anchor="middle" x="61" y="-496.8" font-family="Times,serif" font-size="14.00" fill="white">0/611 chunk(s)</text>
<text text-anchor="middle" x="61" y="-481.8" font-family="Times,serif" font-size="14.00" fill="white">2/5 column(s)</text>
<text text-anchor="middle" x="61" y="-450.8" font-family="Times,serif" font-size="14.00" fill="white">3 ms 716 µs</text>
</a>
</g>
</g>
<!-- 133105112307024&#45;&gt;133094371121680 -->
<g id="edge12" class="edge">
<title>133105112307024&#45;&gt;133094371121680</title>
<path fill="none" stroke="white" stroke-width="3.03" d="M53.18,-557.43C53.88,-568.78 56.38,-580.22 62,-590 69.84,-603.64 81.29,-615.04 94.11,-624.47"/>
<polygon fill="white" stroke="white" stroke-width="3.03" points="94.47,-624.72 92.48,-627.6 102.71,-630.39 94.47,-624.72"/>
<text text-anchor="middle" x="176" y="-578.8" font-family="Times,serif" font-size="14.00" fill="white">40,000,000 row(s)/611 chunk(s)</text>
</g>
<!-- 133094371121360 -->
<g id="node12" class="node">
<title>133094371121360</title>
<g id="a_node12"><a xlink:title="Output: 108686 rows in 153 chunks filtered: 0, 349 µs 657 ns.&#10;Operator step runtimes:&#10; ForwardUnmodifiedColumns 128 µs 840 ns&#10; EvaluateNewColumns 405 ns&#10; BuildOutput 114 µs 690 ns.">
<polygon fill="none" stroke="white" points="370.5,-527 253.5,-527 253.5,-473 370.5,-473 370.5,-527"/>
<text text-anchor="middle" x="312" y="-511.8" font-family="Times,serif" font-size="14.00" fill="white">Projection</text>
<text text-anchor="middle" x="312" y="-480.8" font-family="Times,serif" font-size="14.00" fill="white">349 µs 657 ns</text>
</a>
</g>
</g>
<!-- 133094371121360&#45;&gt;133094371121680 -->
<g id="edge13" class="edge">
<title>133094371121360&#45;&gt;133094371121680</title>
<path fill="none" stroke="white" d="M310.36,-527.11C308.09,-545.97 302.71,-571.31 290,-590 281.16,-603 269.22,-614.48 256.6,-624.28"/>
<polygon fill="white" stroke="white" points="248.22,-630.48 258.34,-627.34 256.26,-624.53 248.22,-630.48"/>
<text text-anchor="middle" x="400.5" y="-578.8" font-family="Times,serif" font-size="14.00" fill="white">108,686 row(s)/153 chunk(s)</text>
</g>
<!-- 133105112432912 -->
<g id="node13" class="node">
<title>133105112432912</title>
<g id="a_node13"><a xlink:title="Output: 108686 rows in 153 chunks filtered: 0, 627 µs 515 ns.">
<polygon fill="none" stroke="white" points="370.5,-392 253.5,-392 253.5,-338 370.5,-338 370.5,-392"/>
<text text-anchor="middle" x="312" y="-376.8" font-family="Times,serif" font-size="14.00" fill="white">Validate</text>
<text text-anchor="middle" x="312" y="-345.8" font-family="Times,serif" font-size="14.00" fill="white">627 µs 515 ns</text>
</a>
</g>
</g>
<!-- 133105112432912&#45;&gt;133094371121360 -->
<g id="edge14" class="edge">
<title>133105112432912&#45;&gt;133094371121360</title>
<path fill="none" stroke="white" d="M312,-392.28C312,-412.41 312,-440.41 312,-462.68"/>
<polygon fill="white" stroke="white" points="308.5,-462.78 312,-472.78 315.5,-462.78 308.5,-462.78"/>
<text text-anchor="middle" x="414.5" y="-413.8" font-family="Times,serif" font-size="14.00" fill="white">108,686 row(s)/153 chunk(s)</text>
</g>
<!-- 133094371120720 -->
<g id="node14" class="node">
<title>133094371120720</title>
<g id="a_node14"><a xlink:title="Output: 108686 rows in 153 chunks filtered: 0, 1 ms 543 µs.&#10;Chunks: 0 skipped with no results, &#10;0 skipped with all matching, 0 scanned using binary search.">
<polygon fill="none" stroke="white" points="517,-287 107,-287 107,-203 517,-203 517,-287"/>
<text text-anchor="middle" x="312" y="-271.8" font-family="Times,serif" font-size="14.00" fill="white">TableScan</text>
<text text-anchor="middle" x="312" y="-256.8" font-family="Times,serif" font-size="14.00" fill="white">Impl: ColumnBetween</text>
<text text-anchor="middle" x="312" y="-241.8" font-family="Times,serif" font-size="14.00" fill="white">p_name BETWEEN UPPER EXCLUSIVE &#39;red&#39; AND &#39;ree&#39;</text>
<text text-anchor="middle" x="312" y="-210.8" font-family="Times,serif" font-size="14.00" fill="white">1 ms 543 µs</text>
</a>
</g>
</g>
<!-- 133094371120720&#45;&gt;133105112432912 -->
<g id="edge15" class="edge">
<title>133094371120720&#45;&gt;133105112432912</title>
<path fill="none" stroke="white" d="M312,-287.27C312,-300.36 312,-314.72 312,-327.45"/>
<polygon fill="white" stroke="white" points="308.5,-327.69 312,-337.69 315.5,-327.69 308.5,-327.69"/>
<text text-anchor="middle" x="414.5" y="-308.8" font-family="Times,serif" font-size="14.00" fill="white">108,686 row(s)/153 chunk(s)</text>
</g>
<!-- 133105112309264 -->
<g id="node15" class="node">
<title>133105112309264</title>
<g id="a_node15"><a xlink:title="Output: 10000000 rows in 153 chunks filtered: 0, 699 µs 358 ns.">
<polygon fill="none" stroke="white" points="373,-133 251,-133 251,-19 373,-19 373,-133"/>
<text text-anchor="middle" x="312" y="-117.8" font-family="Times,serif" font-size="14.00" fill="white">GetTable</text>
<text text-anchor="middle" x="312" y="-102.8" font-family="Times,serif" font-size="14.00" fill="white">(part)</text>
<text text-anchor="middle" x="312" y="-87.8" font-family="Times,serif" font-size="14.00" fill="white">pruned:</text>
<text text-anchor="middle" x="312" y="-72.8" font-family="Times,serif" font-size="14.00" fill="white">0/153 chunk(s)</text>
<text text-anchor="middle" x="312" y="-57.8" font-family="Times,serif" font-size="14.00" fill="white">7/9 column(s)</text>
<text text-anchor="middle" x="312" y="-26.8" font-family="Times,serif" font-size="14.00" fill="white">699 µs 358 ns</text>
</a>
</g>
</g>
<!-- 133105112309264&#45;&gt;133094371120720 -->
<g id="edge16" class="edge">
<title>133105112309264&#45;&gt;133094371120720</title>
<path fill="none" stroke="white" d="M312,-133.07C312,-152.34 312,-173.8 312,-192.67"/>
<polygon fill="white" stroke="white" points="308.5,-192.86 312,-202.86 315.5,-192.86 308.5,-192.86"/>
<text text-anchor="middle" x="426" y="-173.8" font-family="Times,serif" font-size="14.00" fill="white">10,000,000 row(s)/153 chunk(s)</text>
</g>
<!-- 133094371123920 -->
<g id="node16" class="node">
<title>133094371123920</title>
<g id="a_node16"><a xlink:title="Output: 296648 rows in 5 chunks filtered: 0, 897 µs 401 ns.&#10;Operator step runtimes:&#10; ForwardUnmodifiedColumns 12 µs 253 ns&#10; EvaluateNewColumns 853 µs 658 ns&#10; BuildOutput 27 µs 339 ns.">
<polygon fill="none" stroke="white" points="338.5,-1472 221.5,-1472 221.5,-1418 338.5,-1418 338.5,-1472"/>
<text text-anchor="middle" x="280" y="-1456.8" font-family="Times,serif" font-size="14.00" fill="white">Projection</text>
<text text-anchor="middle" x="280" y="-1425.8" font-family="Times,serif" font-size="14.00" fill="white">897 µs 401 ns</text>
</a>
</g>
</g>
<!-- 133094371123920&#45;&gt;133094371124240 -->
<g id="edge17" class="edge">
<title>133094371123920&#45;&gt;133094371124240</title>
<path fill="none" stroke="white" d="M255.5,-1472.28C241.98,-1486.78 224.64,-1505.38 208.23,-1522.97"/>
<polygon fill="white" stroke="white" points="201.28,-1530.44 210.65,-1525.51 208.09,-1523.12 201.28,-1530.44"/>
<text text-anchor="middle" x="330.5" y="-1493.8" font-family="Times,serif" font-size="14.00" fill="white">296,648 row(s)/5 chunk(s)</text>
</g>
<!-- 133105112661008 -->
<g id="node17" class="node">
<title>133105112661008</title>
<g id="a_node17"><a xlink:title="Output: 296648 rows in 5 chunks filtered: 0, 655 ms 254 µs.&#10;Operator step runtimes:&#10; GroupByKeyPartitioning 326 ms 876 µs&#10; Aggregating 314 ms 675 µs&#10; GroupByColumnsWriting 2 ms 373 µs&#10; AggregateColumnsWriting 11 ms 170 µs&#10; OutputWriting 13 µs 160 ns.">
<polygon fill="none" stroke="white" stroke-width="8" points="416,-1367 250,-1367 250,-1268 416,-1268 416,-1367"/>
<text text-anchor="middle" x="333" y="-1351.8" font-family="Times,serif" font-size="14.00" fill="white">AggregateHash</text>
<text text-anchor="middle" x="333" y="-1336.8" font-family="Times,serif" font-size="14.00" fill="white">GroupBy {l_suppkey,</text>
<text text-anchor="middle" x="333" y="-1321.8" font-family="Times,serif" font-size="14.00" fill="white">l_partkey}</text>
<text text-anchor="middle" x="333" y="-1306.8" font-family="Times,serif" font-size="14.00" fill="white">SUM(l_quantity)</text>
<text text-anchor="middle" x="333" y="-1275.8" font-family="Times,serif" font-size="14.00" fill="white">655 ms 254 µs</text>
</a>
</g>
</g>
<!-- 133105112661008&#45;&gt;133094371123920 -->
<g id="edge18" class="edge">
<title>133105112661008&#45;&gt;133094371123920</title>
<path fill="none" stroke="white" d="M312.51,-1367.02C306.71,-1380.76 300.5,-1395.47 295.08,-1408.3"/>
<polygon fill="white" stroke="white" points="291.77,-1407.13 291.1,-1417.7 298.22,-1409.85 291.77,-1407.13"/>
<text text-anchor="middle" x="398.5" y="-1388.8" font-family="Times,serif" font-size="14.00" fill="white">296,648 row(s)/5 chunk(s)</text>
</g>
<!-- 133115453615888 -->
<g id="node18" class="node">
<title>133115453615888</title>
<g id="a_node18"><a xlink:title="Output: 495620 rows in 256 chunks filtered: 0, 3 ms 563 µs.">
<polygon fill="none" stroke="white" points="467,-1217 363,-1217 363,-1163 467,-1163 467,-1217"/>
<text text-anchor="middle" x="415" y="-1201.8" font-family="Times,serif" font-size="14.00" fill="white">Validate</text>
<text text-anchor="middle" x="415" y="-1170.8" font-family="Times,serif" font-size="14.00" fill="white">3 ms 563 µs</text>
</a>
</g>
</g>
<!-- 133115453615888&#45;&gt;133105112661008 -->
<g id="edge19" class="edge">
<title>133115453615888&#45;&gt;133105112661008</title>
<path fill="none" stroke="white" d="M398.01,-1217C389.97,-1229.31 380.03,-1244.52 370.36,-1259.32"/>
<polygon fill="white" stroke="white" points="367.26,-1257.67 364.72,-1267.96 373.12,-1261.5 367.26,-1257.67"/>
<text text-anchor="middle" x="489.5" y="-1238.8" font-family="Times,serif" font-size="14.00" fill="white">495,620 row(s)/256 chunk(s)</text>
</g>
<!-- 133094371122960&#45;&gt;133115453615888 -->
<g id="edge20" class="edge">
<title>133094371122960&#45;&gt;133115453615888</title>
<path fill="none" stroke="white" d="M415,-1112.25C415,-1125.07 415,-1139.73 415,-1152.77"/>
<polygon fill="white" stroke="white" points="411.5,-1152.81 415,-1162.81 418.5,-1152.81 411.5,-1152.81"/>
<text text-anchor="middle" x="517.5" y="-1133.8" font-family="Times,serif" font-size="14.00" fill="white">495,620 row(s)/256 chunk(s)</text>
</g>
<!-- 133094371122640&#45;&gt;133094371122960 -->
<g id="edge21" class="edge">
<title>133094371122640&#45;&gt;133094371122960</title>
<path fill="none" stroke="white" d="M512.74,-992.31C496.98,-1005.89 478.67,-1021.66 462.19,-1035.86"/>
<polygon fill="white" stroke="white" points="461.84,-1036.15 459.56,-1033.5 454.26,-1042.68 461.84,-1036.15"/>
<text text-anchor="middle" x="594.5" y="-1013.8" font-family="Times,serif" font-size="14.00" fill="white">495,620 row(s)/256 chunk(s)</text>
</g>
<!-- 133094371122000 -->
<g id="node21" class="node">
<title>133094371122000</title>
<g id="a_node21"><a xlink:title="Output: 45517940 rows in 4578 chunks filtered: 0, 37 ms 288 µs.&#10;Chunks: 0 skipped with no results, &#10;0 skipped with all matching, 0 scanned using binary search.">
<polygon fill="none" stroke="white" points="758,-872 346,-872 346,-773 758,-773 758,-872"/>
<text text-anchor="middle" x="552" y="-856.8" font-family="Times,serif" font-size="14.00" fill="white">TableScan</text>
<text text-anchor="middle" x="552" y="-841.8" font-family="Times,serif" font-size="14.00" fill="white">Impl: ColumnBetween</text>
<text text-anchor="middle" x="552" y="-826.8" font-family="Times,serif" font-size="14.00" fill="white">l_shipdate BETWEEN UPPER EXCLUSIVE &#39;1994&#45;01&#45;01&#39;</text>
<text text-anchor="middle" x="552" y="-811.8" font-family="Times,serif" font-size="14.00" fill="white">AND &#39;1995&#45;01&#45;01&#39;</text>
<text text-anchor="middle" x="552" y="-780.8" font-family="Times,serif" font-size="14.00" fill="white">37 ms 288 µs</text>
</a>
</g>
</g>
<!-- 133094371122000&#45;&gt;133094371122640 -->
<g id="edge22" class="edge">
<title>133094371122000&#45;&gt;133094371122640</title>
<path fill="none" stroke="white" stroke-width="3.35" d="M552,-872.27C552,-885.49 552,-899.72 552,-912.65"/>
<polygon fill="white" stroke="white" stroke-width="3.35" points="552,-912.7 548.5,-912.7 552,-922.7 552,-912.7"/>
<text text-anchor="middle" x="672.5" y="-893.8" font-family="Times,serif" font-size="14.00" fill="white">45,517,940 row(s)/4,578 chunk(s)</text>
</g>
<!-- 133105112309712 -->
<g id="node22" class="node">
<title>133105112309712</title>
<g id="a_node22"><a xlink:title="Output: 300005811 rows in 4578 chunks filtered: 0, 12 ms 135 µs.">
<polygon fill="none" stroke="white" points="617.5,-722 486.5,-722 486.5,-608 617.5,-608 617.5,-722"/>
<text text-anchor="middle" x="552" y="-706.8" font-family="Times,serif" font-size="14.00" fill="white">GetTable</text>
<text text-anchor="middle" x="552" y="-691.8" font-family="Times,serif" font-size="14.00" fill="white">(lineitem)</text>
<text text-anchor="middle" x="552" y="-676.8" font-family="Times,serif" font-size="14.00" fill="white">pruned:</text>
<text text-anchor="middle" x="552" y="-661.8" font-family="Times,serif" font-size="14.00" fill="white">0/4578 chunk(s)</text>
<text text-anchor="middle" x="552" y="-646.8" font-family="Times,serif" font-size="14.00" fill="white">12/16 column(s)</text>
<text text-anchor="middle" x="552" y="-615.8" font-family="Times,serif" font-size="14.00" fill="white">12 ms 135 µs</text>
</a>
</g>
</g>
<!-- 133105112309712&#45;&gt;133094371122000 -->
<g id="edge23" class="edge">
<title>133105112309712&#45;&gt;133094371122000</title>
<path fill="none" stroke="white" stroke-width="8" d="M552,-722.14C552,-735.38 552,-749.53 552,-762.88"/>
<polygon fill="white" stroke="white" stroke-width="8" points="545,-762.9 552,-772.9 559,-762.9 545,-762.9"/>
<text text-anchor="middle" x="677" y="-743.8" font-family="Times,serif" font-size="14.00" fill="white">300,005,811 row(s)/4,578 chunk(s)</text>
</g>
<!-- 133115453615632 -->
<g id="node23" class="node">
<title>133115453615632</title>
<g id="a_node23"><a xlink:title="Output: 1 row in 1 chunk filtered: 0, 5 µs 864 ns.">
<polygon fill="none" stroke="white" points="652.5,-1914.5 553.5,-1914.5 553.5,-1860.5 652.5,-1860.5 652.5,-1914.5"/>
<text text-anchor="middle" x="603" y="-1899.3" font-family="Times,serif" font-size="14.00" fill="white">Validate</text>
<text text-anchor="middle" x="603" y="-1868.3" font-family="Times,serif" font-size="14.00" fill="white">5 µs 864 ns</text>
</a>
</g>
</g>
<!-- 133115453615632&#45;&gt;133094371125520 -->
<g id="edge24" class="edge">
<title>133115453615632&#45;&gt;133094371125520</title>
<path fill="none" stroke="white" d="M598.99,-1914.68C595.88,-1927.92 590.44,-1943.56 581,-1955 577.66,-1959.04 573.92,-1962.83 569.91,-1966.36"/>
<polygon fill="white" stroke="white" points="561.89,-1972.84 571.86,-1969.28 569.66,-1966.55 561.89,-1972.84"/>
<text text-anchor="middle" x="660" y="-1943.8" font-family="Times,serif" font-size="14.00" fill="white">1 row(s)/1 chunk(s)</text>
</g>
<!-- 133094371125200 -->
<g id="node24" class="node">
<title>133094371125200</title>
<g id="a_node24"><a xlink:title="Output: 1 row in 1 chunk filtered: 0, 17 µs 925 ns.&#10;Chunks: 0 skipped with no results, &#10;0 skipped with all matching, 0 scanned using binary search.">
<polygon fill="none" stroke="white" points="713.5,-1787 492.5,-1787 492.5,-1703 713.5,-1703 713.5,-1787"/>
<text text-anchor="middle" x="603" y="-1771.8" font-family="Times,serif" font-size="14.00" fill="white">TableScan</text>
<text text-anchor="middle" x="603" y="-1756.8" font-family="Times,serif" font-size="14.00" fill="white">Impl: ColumnVsValue</text>
<text text-anchor="middle" x="603" y="-1741.8" font-family="Times,serif" font-size="14.00" fill="white">n_name = &#39;UNITED STATES&#39;</text>
<text text-anchor="middle" x="603" y="-1710.8" font-family="Times,serif" font-size="14.00" fill="white">17 µs 925 ns</text>
</a>
</g>
</g>
<!-- 133094371125200&#45;&gt;133115453615632 -->
<g id="edge25" class="edge">
<title>133094371125200&#45;&gt;133115453615632</title>
<path fill="none" stroke="white" d="M603,-1787.02C603,-1806.97 603,-1830.76 603,-1850.07"/>
<polygon fill="white" stroke="white" points="599.5,-1850.28 603,-1860.28 606.5,-1850.28 599.5,-1850.28"/>
<text text-anchor="middle" x="672" y="-1823.8" font-family="Times,serif" font-size="14.00" fill="white">1 row(s)/1 chunk(s)</text>
</g>
<!-- 133105112310608 -->
<g id="node25" class="node">
<title>133105112310608</title>
<g id="a_node25"><a xlink:title="Output: 25 rows in 1 chunk filtered: 0, 9 µs 657 ns.">
<polygon fill="none" stroke="white" points="659.5,-1637 546.5,-1637 546.5,-1523 659.5,-1523 659.5,-1637"/>
<text text-anchor="middle" x="603" y="-1621.8" font-family="Times,serif" font-size="14.00" fill="white">GetTable</text>
<text text-anchor="middle" x="603" y="-1606.8" font-family="Times,serif" font-size="14.00" fill="white">(nation)</text>
<text text-anchor="middle" x="603" y="-1591.8" font-family="Times,serif" font-size="14.00" fill="white">pruned:</text>
<text text-anchor="middle" x="603" y="-1576.8" font-family="Times,serif" font-size="14.00" fill="white">0/1 chunk(s)</text>
<text text-anchor="middle" x="603" y="-1561.8" font-family="Times,serif" font-size="14.00" fill="white">2/4 column(s)</text>
<text text-anchor="middle" x="603" y="-1530.8" font-family="Times,serif" font-size="14.00" fill="white">9 µs 657 ns</text>
</a>
</g>
</g>
<!-- 133105112310608&#45;&gt;133094371125200 -->
<g id="edge26" class="edge">
<title>133105112310608&#45;&gt;133094371125200</title>
<path fill="none" stroke="white" d="M603,-1637.1C603,-1655.19 603,-1675.13 603,-1692.85"/>
<polygon fill="white" stroke="white" points="599.5,-1692.99 603,-1702.99 606.5,-1692.99 599.5,-1692.99"/>
<text text-anchor="middle" x="676.5" y="-1658.8" font-family="Times,serif" font-size="14.00" fill="white">25 row(s)/1 chunk(s)</text>
</g>
<!-- 0 -->
<g id="node26" class="node">
<title>0</title>
<polygon fill="none" stroke="white" points="391.5,-0.5 391.5,-151.5 742.5,-151.5 742.5,-0.5 391.5,-0.5"/>
<text text-anchor="middle" x="567" y="-136.3" font-family="Times,serif" font-size="14.00" fill="white">Total by operator</text>
<polyline fill="none" stroke="white" points="391.5,-128.5 742.5,-128.5 "/>
<text text-anchor="end" x="550.5" y="-113.3" font-family="Times,serif" font-size="14.00" fill="white">AggregateHash </text>
<text text-anchor="end" x="550.5" y="-98.3" font-family="Times,serif" font-size="14.00" fill="white"> JoinSimdSortMerge </text>
<text text-anchor="end" x="550.5" y="-83.3" font-family="Times,serif" font-size="14.00" fill="white"> TableScan </text>
<text text-anchor="end" x="550.5" y="-68.3" font-family="Times,serif" font-size="14.00" fill="white"> GetTable </text>
<text text-anchor="end" x="550.5" y="-53.3" font-family="Times,serif" font-size="14.00" fill="white"> Sort </text>
<text text-anchor="end" x="550.5" y="-38.3" font-family="Times,serif" font-size="14.00" fill="white"> Validate </text>
<text text-anchor="end" x="550.5" y="-23.3" font-family="Times,serif" font-size="14.00" fill="white"> Projection </text>
<text text-anchor="end" x="550.5" y="-8.3" font-family="Times,serif" font-size="14.00" fill="white">total</text>
<polyline fill="none" stroke="white" points="558.5,-0.5 558.5,-128.5 "/>
<text text-anchor="start" x="566.5" y="-113.3" font-family="Times,serif" font-size="14.00" fill="white">655 ms 254 µs </text>
<text text-anchor="start" x="566.5" y="-98.3" font-family="Times,serif" font-size="14.00" fill="white"> 638 ms 367 µs </text>
<text text-anchor="start" x="566.5" y="-83.3" font-family="Times,serif" font-size="14.00" fill="white"> 38 ms 848 µs </text>
<text text-anchor="start" x="566.5" y="-68.3" font-family="Times,serif" font-size="14.00" fill="white"> 16 ms 614 µs </text>
<text text-anchor="start" x="566.5" y="-53.3" font-family="Times,serif" font-size="14.00" fill="white"> 8 ms 570 µs </text>
<text text-anchor="start" x="566.5" y="-38.3" font-family="Times,serif" font-size="14.00" fill="white"> 5 ms 536 µs </text>
<text text-anchor="start" x="566.5" y="-23.3" font-family="Times,serif" font-size="14.00" fill="white"> 1 ms 402 µs </text>
<text text-anchor="start" x="566.5" y="-8.3" font-family="Times,serif" font-size="14.00" fill="white"> 1 s 365 ms </text>
<polyline fill="none" stroke="white" points="689.5,-0.5 689.5,-128.5 "/>
<text text-anchor="start" x="697.5" y="-113.3" font-family="Times,serif" font-size="14.00" fill="white">48 %</text>
<text text-anchor="start" x="697.5" y="-98.3" font-family="Times,serif" font-size="14.00" fill="white">47 %</text>
<text text-anchor="start" x="697.5" y="-83.3" font-family="Times,serif" font-size="14.00" fill="white">3 %</text>
<text text-anchor="start" x="697.5" y="-68.3" font-family="Times,serif" font-size="14.00" fill="white">1 %</text>
<text text-anchor="start" x="697.5" y="-53.3" font-family="Times,serif" font-size="14.00" fill="white">1 %</text>
<text text-anchor="start" x="697.5" y="-38.3" font-family="Times,serif" font-size="14.00" fill="white">0 %</text>
<text text-anchor="start" x="697.5" y="-23.3" font-family="Times,serif" font-size="14.00" fill="white">0 %</text>
<text text-anchor="start" x="697.5" y="-8.3" font-family="Times,serif" font-size="14.00" fill="white"> </text>
</g>
</g>
</svg>
