<?xml version="1.0" encoding="UTF-8" standalone="no"?>
<!DOCTYPE svg PUBLIC "-//W3C//DTD SVG 1.1//EN"
 "http://www.w3.org/Graphics/SVG/1.1/DTD/svg11.dtd">
<!-- Generated by graphviz version 2.43.0 (0)
 -->
<!-- Title: G Pages: 1 -->
<svg width="1087pt" height="1615pt"
 viewBox="0.00 0.00 1087.00 1615.00" xmlns="http://www.w3.org/2000/svg" xmlns:xlink="http://www.w3.org/1999/xlink">
<g id="graph0" class="graph" transform="scale(1 1) rotate(0) translate(4 1611)">
<title>G</title>
<polygon fill="black" stroke="transparent" points="-4,4 -4,-1611 1083,-1611 1083,4 -4,4"/>
<text text-anchor="middle" x="319.5" y="-1591.8" font-family="Times,serif" font-size="14.00" fill="white">For tooltips with advanced information, hover your mouse over vertices or edge labels.</text>
<!-- 133161815956784 -->
<g id="node1" class="node">
<title>133161815956784</title>
<polygon fill="none" stroke="white" points="786.5,-1552 549.5,-1552 549.5,-1516 786.5,-1516 786.5,-1552"/>
<text text-anchor="middle" x="668" y="-1530.3" font-family="Times,serif" font-size="14.00" fill="white">[Projection] s_name, s_address</text>
</g>
<!-- 133161816289552 -->
<g id="node2" class="node">
<title>133161816289552</title>
<polygon fill="none" stroke="white" points="770,-1465 566,-1465 566,-1429 770,-1429 770,-1465"/>
<text text-anchor="middle" x="668" y="-1443.3" font-family="Times,serif" font-size="14.00" fill="white">[Sort] s_name (Ascending)</text>
</g>
<!-- 133161816289552&#45;&gt;133161815956784 -->
<g id="edge1" class="edge">
<title>133161816289552&#45;&gt;133161815956784</title>
<path fill="none" stroke="white" d="M668,-1465.2C668,-1476.84 668,-1492.45 668,-1505.76"/>
<polygon fill="white" stroke="white" points="664.5,-1505.82 668,-1515.82 671.5,-1505.82 664.5,-1505.82"/>
<g id="a_edge1&#45;label"><a xlink:title="Output Expressions: &#10; (1) s_suppkey&#10; (2) s_name&#10; (3) s_address&#10; (4) s_nationkey&#10;&#10;Unique Column Combinations: &#10; (1) {s_suppkey}&#10;&#10;Functional Dependencies (trivial): &#10; (1) {s_suppkey} =&gt; {s_name, s_address, s_nationkey}&#10;&#10;Functional Dependencies (non&#45;trivial): &#10; &lt;none&gt;">
<text text-anchor="middle" x="764.5" y="-1486.8" font-family="Times,serif" font-size="14.00" fill="white"> 16.4 row(s) | 100.0% estd.</text>
</a>
</g>
</g>
<!-- 133164534072848 -->
<g id="node3" class="node">
<title>133164534072848</title>
<polygon fill="none" stroke="white" points="710.5,-1378 625.5,-1378 625.5,-1342 710.5,-1342 710.5,-1378"/>
<text text-anchor="middle" x="668" y="-1356.3" font-family="Times,serif" font-size="14.00" fill="white">[Validate]</text>
</g>
<!-- 133164534072848&#45;&gt;133161816289552 -->
<g id="edge2" class="edge">
<title>133164534072848&#45;&gt;133161816289552</title>
<path fill="none" stroke="white" d="M668,-1378.2C668,-1389.84 668,-1405.45 668,-1418.76"/>
<polygon fill="white" stroke="white" points="664.5,-1418.82 668,-1428.82 671.5,-1418.82 664.5,-1418.82"/>
<g id="a_edge2&#45;label"><a xlink:title="Output Expressions: &#10; (1) s_suppkey&#10; (2) s_name&#10; (3) s_address&#10; (4) s_nationkey&#10;&#10;Unique Column Combinations: &#10; (1) {s_suppkey}&#10;&#10;Functional Dependencies (trivial): &#10; (1) {s_suppkey} =&gt; {s_name, s_address, s_nationkey}&#10;&#10;Functional Dependencies (non&#45;trivial): &#10; &lt;none&gt;">
<text text-anchor="middle" x="764.5" y="-1399.8" font-family="Times,serif" font-size="14.00" fill="white"> 16.4 row(s) | 100.0% estd.</text>
</a>
</g>
</g>
<!-- 133161816290896 -->
<g id="node4" class="node">
<title>133161816290896</title>
<polygon fill="none" stroke="white" points="842.5,-1291 493.5,-1291 493.5,-1255 842.5,-1255 842.5,-1291"/>
<text text-anchor="middle" x="668" y="-1269.3" font-family="Times,serif" font-size="14.00" fill="white">[Join] Mode: Semi [s_nationkey = n_nationkey]</text>
</g>
<!-- 133161816290896&#45;&gt;133164534072848 -->
<g id="edge3" class="edge">
<title>133161816290896&#45;&gt;133164534072848</title>
<path fill="none" stroke="white" d="M668,-1291.2C668,-1302.84 668,-1318.45 668,-1331.76"/>
<polygon fill="white" stroke="white" points="664.5,-1331.82 668,-1341.82 671.5,-1331.82 664.5,-1331.82"/>
<g id="a_edge3&#45;label"><a xlink:title="Output Expressions: &#10; (1) s_suppkey&#10; (2) s_name&#10; (3) s_address&#10; (4) s_nationkey&#10;&#10;Unique Column Combinations: &#10; (1) {s_suppkey}&#10;&#10;Functional Dependencies (trivial): &#10; (1) {s_suppkey} =&gt; {s_name, s_address, s_nationkey}&#10;&#10;Functional Dependencies (non&#45;trivial): &#10; &lt;none&gt;">
<text text-anchor="middle" x="755.5" y="-1312.8" font-family="Times,serif" font-size="14.00" fill="white"> 16.4 row(s) | 4.0% estd.</text>
</a>
</g>
</g>
<!-- 133161816291472 -->
<g id="node5" class="node">
<title>133161816291472</title>
<polygon fill="none" stroke="white" points="722.5,-1204 387.5,-1204 387.5,-1168 722.5,-1168 722.5,-1204"/>
<text text-anchor="middle" x="555" y="-1182.3" font-family="Times,serif" font-size="14.00" fill="white">[Join] Mode: Semi [s_suppkey = ps_suppkey]</text>
</g>
<!-- 133161816291472&#45;&gt;133161816290896 -->
<g id="edge4" class="edge">
<title>133161816291472&#45;&gt;133161816290896</title>
<path fill="none" stroke="white" d="M563.08,-1204.13C568.8,-1214.74 577.34,-1228.02 588,-1237 593.95,-1242.01 600.73,-1246.42 607.77,-1250.27"/>
<polygon fill="white" stroke="white" points="607.87,-1250.32 606.28,-1253.44 616.78,-1254.84 607.87,-1250.32"/>
<g id="a_edge4&#45;label"><a xlink:title="Output Expressions: &#10; (1) s_suppkey&#10; (2) s_name&#10; (3) s_address&#10; (4) s_nationkey&#10;&#10;Unique Column Combinations: &#10; (1) {s_suppkey}&#10;&#10;Functional Dependencies (trivial): &#10; (1) {s_suppkey} =&gt; {s_name, s_address, s_nationkey}&#10;&#10;Functional Dependencies (non&#45;trivial): &#10; &lt;none&gt;">
<text text-anchor="middle" x="680" y="-1225.8" font-family="Times,serif" font-size="14.00" fill="white"> 410.6 row(s) | 0.1% estd.</text>
</a>
</g>
</g>
<!-- 133094371121040 -->
<g id="node6" class="node">
<title>133094371121040</title>
<polygon fill="none" stroke="white" points="716,-1117 394,-1117 394,-1079 716,-1079 716,-1117"/>
<text text-anchor="middle" x="555" y="-1101.8" font-family="Times,serif" font-size="14.00" fill="white">[StoredTable] Name: &#39;supplier&#39; pruned: 0/8</text>
<text text-anchor="middle" x="555" y="-1086.8" font-family="Times,serif" font-size="14.00" fill="white">chunk(s), 3/7 column(s)</text>
</g>
<!-- 133094371121040&#45;&gt;133161816291472 -->
<g id="edge5" class="edge">
<title>133094371121040&#45;&gt;133161816291472</title>
<path fill="none" stroke="white" d="M555,-1117.24C555,-1129.07 555,-1144.68 555,-1157.95"/>
<polygon fill="white" stroke="white" points="555,-1157.96 551.5,-1157.96 555,-1167.96 555,-1157.96"/>
<g id="a_edge5&#45;label"><a xlink:title="Output Expressions: &#10; (1) s_suppkey&#10; (2) s_name&#10; (3) s_address&#10; (4) s_nationkey&#10;&#10;Unique Column Combinations: &#10; (1) {s_suppkey}&#10;&#10;Functional Dependencies (trivial): &#10; (1) {s_suppkey} =&gt; {s_name, s_address, s_nationkey}&#10;&#10;Functional Dependencies (non&#45;trivial): &#10; &lt;none&gt;">
<text text-anchor="middle" x="672" y="-1138.8" font-family="Times,serif" font-size="14.00" fill="white"> 500,000.0 row(s) | 100.0% estd.</text>
</a>
</g>
</g>
<!-- 133161815958224 -->
<g id="node7" class="node">
<title>133161815958224</title>
<polygon fill="none" stroke="white" points="375.5,-1116 188.5,-1116 188.5,-1080 375.5,-1080 375.5,-1116"/>
<text text-anchor="middle" x="282" y="-1094.3" font-family="Times,serif" font-size="14.00" fill="white">[Projection] ps_suppkey</text>
</g>
<!-- 133161815958224&#45;&gt;133161816291472 -->
<g id="edge6" class="edge">
<title>133161815958224&#45;&gt;133161816291472</title>
<path fill="none" stroke="white" d="M299.51,-1116.15C312.21,-1127.57 330.36,-1141.91 349,-1150 363.26,-1156.19 378.52,-1161.29 394.04,-1165.49"/>
<polygon fill="white" stroke="white" points="403.74,-1167.99 394.93,-1162.1 394.05,-1165.49 403.74,-1167.99"/>
<g id="a_edge6&#45;label"><a xlink:title="Output Expressions: &#10; (1) ps_suppkey&#10;&#10;Unique Column Combinations: &#10; &lt;none&gt;&#10;&#10;Functional Dependencies (trivial): &#10; &lt;none&gt;&#10;&#10;Functional Dependencies (non&#45;trivial): &#10; &lt;none&gt;">
<text text-anchor="middle" x="450" y="-1138.8" font-family="Times,serif" font-size="14.00" fill="white"> 410.6 row(s) | 100.0% estd.</text>
</a>
</g>
</g>
<!-- 133161816292816 -->
<g id="node8" class="node">
<title>133161816292816</title>
<polygon fill="none" stroke="white" points="468,-1028 96,-1028 96,-975 468,-975 468,-1028"/>
<text text-anchor="middle" x="282" y="-1012.8" font-family="Times,serif" font-size="14.00" fill="white">[Join] Mode: Semi [ps_suppkey = l_suppkey]</text>
<text text-anchor="middle" x="282" y="-997.8" font-family="Times,serif" font-size="14.00" fill="white">[ps_availqty &gt; 0.5 * SUM(l_quantity)] [ps_partkey</text>
<text text-anchor="middle" x="282" y="-982.8" font-family="Times,serif" font-size="14.00" fill="white">= l_partkey]</text>
</g>
<!-- 133161816292816&#45;&gt;133161815958224 -->
<g id="edge7" class="edge">
<title>133161816292816&#45;&gt;133161815958224</title>
<path fill="none" stroke="white" d="M282,-1028.32C282,-1041.13 282,-1056.6 282,-1069.62"/>
<polygon fill="white" stroke="white" points="278.5,-1069.86 282,-1079.86 285.5,-1069.86 278.5,-1069.86"/>
<g id="a_edge7&#45;label"><a xlink:title="Output Expressions: &#10; (1) ps_partkey&#10; (2) ps_suppkey&#10; (3) ps_availqty&#10;&#10;Unique Column Combinations: &#10; (1) {ps_partkey, ps_suppkey}&#10;&#10;Functional Dependencies (trivial): &#10; (1) {ps_partkey, ps_suppkey} =&gt; {ps_availqty}&#10;&#10;Functional Dependencies (non&#45;trivial): &#10; &lt;none&gt;">
<text text-anchor="middle" x="383" y="-1049.8" font-family="Times,serif" font-size="14.00" fill="white"> 410.6 row(s) | 100.0% estd.</text>
</a>
</g>
</g>
<!-- 133161815958064 -->
<g id="node9" class="node">
<title>133161815958064</title>
<polygon fill="none" stroke="white" points="354.5,-480 269.5,-480 269.5,-444 354.5,-444 354.5,-480"/>
<text text-anchor="middle" x="312" y="-458.3" font-family="Times,serif" font-size="14.00" fill="white">[Validate]</text>
</g>
<!-- 133161815958064&#45;&gt;133161816292816 -->
<g id="edge8" class="edge">
<title>133161815958064&#45;&gt;133161816292816</title>
<path fill="none" stroke="white" d="M296.43,-480.25C283.08,-496.87 266,-523.35 266,-550 266,-550 266,-550 266,-906 266,-925.61 269.39,-947.2 273.05,-964.78"/>
<polygon fill="white" stroke="white" points="273.07,-964.86 269.65,-965.61 275.21,-974.63 273.07,-964.86"/>
<g id="a_edge8&#45;label"><a xlink:title="Output Expressions: &#10; (1) ps_partkey&#10; (2) ps_suppkey&#10; (3) ps_availqty&#10;&#10;Unique Column Combinations: &#10; (1) {ps_partkey, ps_suppkey}&#10;&#10;Functional Dependencies (trivial): &#10; (1) {ps_partkey, ps_suppkey} =&gt; {ps_availqty}&#10;&#10;Functional Dependencies (non&#45;trivial): &#10; &lt;none&gt;">
<text text-anchor="middle" x="367" y="-724.3" font-family="Times,serif" font-size="14.00" fill="white"> 410.6 row(s) | 100.0% estd.</text>
</a>
</g>
</g>
<!-- 133161816288976 -->
<g id="node19" class="node">
<title>133161816288976</title>
<polygon fill="none" stroke="white" points="695,-659 363,-659 363,-621 695,-621 695,-659"/>
<text text-anchor="middle" x="529" y="-643.8" font-family="Times,serif" font-size="14.00" fill="white">[Join] Mode: Semi [ps_suppkey = l_suppkey]</text>
<text text-anchor="middle" x="529" y="-628.8" font-family="Times,serif" font-size="14.00" fill="white">(SemiJoinReductionRule)</text>
</g>
<!-- 133161815958064&#45;&gt;133161816288976 -->
<g id="edge10" class="edge">
<title>133161815958064&#45;&gt;133161816288976</title>
<path fill="none" stroke="white" d="M308.14,-480.27C304.06,-503.32 300.7,-544.23 321,-570 338.35,-592.03 362.95,-607.09 389.19,-617.37"/>
<polygon fill="white" stroke="white" points="398.92,-620.95 390.74,-614.21 389.53,-617.5 398.92,-620.95"/>
<g id="a_edge10&#45;label"><a xlink:title="Output Expressions: &#10; (1) ps_partkey&#10; (2) ps_suppkey&#10; (3) ps_availqty&#10;&#10;Unique Column Combinations: &#10; (1) {ps_partkey, ps_suppkey}&#10;&#10;Functional Dependencies (trivial): &#10; (1) {ps_partkey, ps_suppkey} =&gt; {ps_availqty}&#10;&#10;Functional Dependencies (non&#45;trivial): &#10; &lt;none&gt;">
<text text-anchor="middle" x="422" y="-547.3" font-family="Times,serif" font-size="14.00" fill="white"> 410.6 row(s) | 100.0% estd.</text>
</a>
</g>
</g>
<!-- 133161816289168 -->
<g id="node20" class="node">
<title>133161816289168</title>
<polygon fill="none" stroke="white" points="855.5,-570 532.5,-570 532.5,-532 855.5,-532 855.5,-570"/>
<text text-anchor="middle" x="694" y="-554.8" font-family="Times,serif" font-size="14.00" fill="white">[Join] Mode: Semi [ps_partkey = l_partkey]</text>
<text text-anchor="middle" x="694" y="-539.8" font-family="Times,serif" font-size="14.00" fill="white">(SemiJoinReductionRule)</text>
</g>
<!-- 133161815958064&#45;&gt;133161816289168 -->
<g id="edge9" class="edge">
<title>133161815958064&#45;&gt;133161816289168</title>
<path fill="none" stroke="white" d="M354.69,-476.79C390.12,-487.89 441.98,-503.34 488,-514 513.64,-519.94 541.28,-525.4 567.72,-530.18"/>
<polygon fill="white" stroke="white" points="577.79,-531.97 568.56,-526.77 567.95,-530.22 577.79,-531.97"/>
<g id="a_edge9&#45;label"><a xlink:title="Output Expressions: &#10; (1) ps_partkey&#10; (2) ps_suppkey&#10; (3) ps_availqty&#10;&#10;Unique Column Combinations: &#10; (1) {ps_partkey, ps_suppkey}&#10;&#10;Functional Dependencies (trivial): &#10; (1) {ps_partkey, ps_suppkey} =&gt; {ps_availqty}&#10;&#10;Functional Dependencies (non&#45;trivial): &#10; &lt;none&gt;">
<text text-anchor="middle" x="589" y="-502.8" font-family="Times,serif" font-size="14.00" fill="white"> 410.6 row(s) | 100.0% estd.</text>
</a>
</g>
</g>
<!-- 133161816291856 -->
<g id="node10" class="node">
<title>133161816291856</title>
<polygon fill="none" stroke="white" points="476,-391 148,-391 148,-355 476,-355 476,-391"/>
<text text-anchor="middle" x="312" y="-369.3" font-family="Times,serif" font-size="14.00" fill="white">[Join] Mode: Semi [ps_partkey = p_partkey]</text>
</g>
<!-- 133161816291856&#45;&gt;133161815958064 -->
<g id="edge11" class="edge">
<title>133161816291856&#45;&gt;133161815958064</title>
<path fill="none" stroke="white" d="M312,-391.19C312,-403.34 312,-419.89 312,-433.82"/>
<polygon fill="white" stroke="white" points="308.5,-433.85 312,-443.85 315.5,-433.85 308.5,-433.85"/>
<g id="a_edge11&#45;label"><a xlink:title="Output Expressions: &#10; (1) ps_partkey&#10; (2) ps_suppkey&#10; (3) ps_availqty&#10;&#10;Unique Column Combinations: &#10; (1) {ps_partkey, ps_suppkey}&#10;&#10;Functional Dependencies (trivial): &#10; (1) {ps_partkey, ps_suppkey} =&gt; {ps_availqty}&#10;&#10;Functional Dependencies (non&#45;trivial): &#10; &lt;none&gt;">
<text text-anchor="middle" x="404" y="-413.8" font-family="Times,serif" font-size="14.00" fill="white"> 410.6 row(s) | 0.0% estd.</text>
</a>
</g>
</g>
<!-- 133094371122320 -->
<g id="node11" class="node">
<title>133094371122320</title>
<polygon fill="none" stroke="white" points="346,-303 0,-303 0,-265 346,-265 346,-303"/>
<text text-anchor="middle" x="173" y="-287.8" font-family="Times,serif" font-size="14.00" fill="white">[StoredTable] Name: &#39;partsupp&#39; pruned: 0/611</text>
<text text-anchor="middle" x="173" y="-272.8" font-family="Times,serif" font-size="14.00" fill="white">chunk(s), 2/5 column(s)</text>
</g>
<!-- 133094371122320&#45;&gt;133161816291856 -->
<g id="edge12" class="edge">
<title>133094371122320&#45;&gt;133161816291856</title>
<path fill="none" stroke="white" stroke-width="3.03" d="M168.31,-303.33C166.73,-313.95 166.87,-326.96 174,-336 178.86,-342.16 189.77,-347.48 203.44,-351.99"/>
<polygon fill="white" stroke="white" stroke-width="3.03" points="203.73,-352.08 202.71,-355.43 213.3,-354.99 203.73,-352.08"/>
<g id="a_edge12&#45;label"><a xlink:title="Output Expressions: &#10; (1) ps_partkey&#10; (2) ps_suppkey&#10; (3) ps_availqty&#10;&#10;Unique Column Combinations: &#10; (1) {ps_partkey, ps_suppkey}&#10;&#10;Functional Dependencies (trivial): &#10; (1) {ps_partkey, ps_suppkey} =&gt; {ps_availqty}&#10;&#10;Functional Dependencies (non&#45;trivial): &#10; &lt;none&gt;">
<text text-anchor="middle" x="302" y="-324.8" font-family="Times,serif" font-size="14.00" fill="white"> 40,000,000.0 row(s) | 100.0% estd.</text>
</a>
</g>
</g>
<!-- 133161815959024 -->
<g id="node12" class="node">
<title>133161815959024</title>
<polygon fill="none" stroke="white" points="539.5,-302 364.5,-302 364.5,-266 539.5,-266 539.5,-302"/>
<text text-anchor="middle" x="452" y="-280.3" font-family="Times,serif" font-size="14.00" fill="white">[Projection] p_partkey</text>
</g>
<!-- 133161815959024&#45;&gt;133161816291856 -->
<g id="edge13" class="edge">
<title>133161815959024&#45;&gt;133161816291856</title>
<path fill="none" stroke="white" d="M448.47,-302.35C445.37,-313.41 439.77,-327.26 430,-336 423.63,-341.7 416.38,-346.49 408.68,-350.53"/>
<polygon fill="white" stroke="white" points="399.46,-354.93 410,-353.78 408.49,-350.62 399.46,-354.93"/>
<g id="a_edge13&#45;label"><a xlink:title="Output Expressions: &#10; (1) p_partkey&#10;&#10;Unique Column Combinations: &#10; (1) {p_partkey}&#10;&#10;Functional Dependencies (trivial): &#10; &lt;none&gt;&#10;&#10;Functional Dependencies (non&#45;trivial): &#10; &lt;none&gt;">
<text text-anchor="middle" x="542" y="-324.8" font-family="Times,serif" font-size="14.00" fill="white"> 102.6 row(s) | 100.0% estd.</text>
</a>
</g>
</g>
<!-- 133161815958864 -->
<g id="node13" class="node">
<title>133161815958864</title>
<polygon fill="none" stroke="white" points="494.5,-214 409.5,-214 409.5,-178 494.5,-178 494.5,-214"/>
<text text-anchor="middle" x="452" y="-192.3" font-family="Times,serif" font-size="14.00" fill="white">[Validate]</text>
</g>
<!-- 133161815958864&#45;&gt;133161815959024 -->
<g id="edge14" class="edge">
<title>133161815958864&#45;&gt;133161815959024</title>
<path fill="none" stroke="white" d="M452,-214.4C452,-226.25 452,-242.18 452,-255.71"/>
<polygon fill="white" stroke="white" points="448.5,-255.92 452,-265.92 455.5,-255.92 448.5,-255.92"/>
<g id="a_edge14&#45;label"><a xlink:title="Output Expressions: &#10; (1) p_partkey&#10; (2) p_name&#10;&#10;Unique Column Combinations: &#10; (1) {p_partkey}&#10;&#10;Functional Dependencies (trivial): &#10; (1) {p_partkey} =&gt; {p_name}&#10;&#10;Functional Dependencies (non&#45;trivial): &#10; &lt;none&gt;">
<text text-anchor="middle" x="553" y="-235.8" font-family="Times,serif" font-size="14.00" fill="white"> 102.6 row(s) | 100.0% estd.</text>
</a>
</g>
</g>
<!-- 133161816292048 -->
<g id="node14" class="node">
<title>133161816292048</title>
<polygon fill="none" stroke="white" points="662,-127 242,-127 242,-89 662,-89 662,-127"/>
<text text-anchor="middle" x="452" y="-111.8" font-family="Times,serif" font-size="14.00" fill="white">[Predicate] p_name BETWEEN UPPER EXCLUSIVE &#39;red&#39;</text>
<text text-anchor="middle" x="452" y="-96.8" font-family="Times,serif" font-size="14.00" fill="white">AND &#39;ree&#39;</text>
</g>
<!-- 133161816292048&#45;&gt;133161815958864 -->
<g id="edge15" class="edge">
<title>133161816292048&#45;&gt;133161815958864</title>
<path fill="none" stroke="white" d="M452,-127.24C452,-139.07 452,-154.68 452,-167.95"/>
<polygon fill="white" stroke="white" points="448.5,-167.96 452,-177.96 455.5,-167.96 448.5,-167.96"/>
<g id="a_edge15&#45;label"><a xlink:title="Output Expressions: &#10; (1) p_partkey&#10; (2) p_name&#10;&#10;Unique Column Combinations: &#10; (1) {p_partkey}&#10;&#10;Functional Dependencies (trivial): &#10; (1) {p_partkey} =&gt; {p_name}&#10;&#10;Functional Dependencies (non&#45;trivial): &#10; &lt;none&gt;">
<text text-anchor="middle" x="544" y="-148.8" font-family="Times,serif" font-size="14.00" fill="white"> 102.6 row(s) | 0.0% estd.</text>
</a>
</g>
</g>
<!-- 133094371123600 -->
<g id="node15" class="node">
<title>133094371123600</title>
<polygon fill="none" stroke="white" points="642.5,-38 261.5,-38 261.5,0 642.5,0 642.5,-38"/>
<text text-anchor="middle" x="452" y="-22.8" font-family="Times,serif" font-size="14.00" fill="white">[StoredTable] Name: &#39;part&#39; pruned: 0/153 chunk(s),</text>
<text text-anchor="middle" x="452" y="-7.8" font-family="Times,serif" font-size="14.00" fill="white">7/9 column(s)</text>
</g>
<!-- 133094371123600&#45;&gt;133161816292048 -->
<g id="edge16" class="edge">
<title>133094371123600&#45;&gt;133161816292048</title>
<path fill="none" stroke="white" d="M452,-38.03C452,-49.81 452,-65.44 452,-78.84"/>
<polygon fill="white" stroke="white" points="448.5,-79 452,-89 455.5,-79 448.5,-79"/>
<g id="a_edge16&#45;label"><a xlink:title="Output Expressions: &#10; (1) p_partkey&#10; (2) p_name&#10;&#10;Unique Column Combinations: &#10; (1) {p_partkey}&#10;&#10;Functional Dependencies (trivial): &#10; (1) {p_partkey} =&gt; {p_name}&#10;&#10;Functional Dependencies (non&#45;trivial): &#10; &lt;none&gt;">
<text text-anchor="middle" x="580" y="-59.8" font-family="Times,serif" font-size="14.00" fill="white"> 10,000,000.0 row(s) | 100.0% estd.</text>
</a>
</g>
</g>
<!-- 133161815958544 -->
<g id="node16" class="node">
<title>133161815958544</title>
<polygon fill="none" stroke="white" points="652,-924 310,-924 310,-886 652,-886 652,-924"/>
<text text-anchor="middle" x="481" y="-908.8" font-family="Times,serif" font-size="14.00" fill="white">[Projection] 0.5 * SUM(l_quantity), l_suppkey,</text>
<text text-anchor="middle" x="481" y="-893.8" font-family="Times,serif" font-size="14.00" fill="white">l_partkey</text>
</g>
<!-- 133161815958544&#45;&gt;133161816292816 -->
<g id="edge17" class="edge">
<title>133161815958544&#45;&gt;133161816292816</title>
<path fill="none" stroke="white" d="M442.63,-924.22C415.08,-937.3 377.32,-955.23 345.34,-970.42"/>
<polygon fill="white" stroke="white" points="336.05,-974.83 346.58,-973.71 345.08,-970.54 336.05,-974.83"/>
<g id="a_edge17&#45;label"><a xlink:title="Output Expressions: &#10; (1) 0.5 * SUM(l_quantity) NULL&#10; (2) l_suppkey&#10; (3) l_partkey&#10;&#10;Unique Column Combinations: &#10; (1) {l_partkey, l_suppkey}&#10;&#10;Functional Dependencies (trivial): &#10; (1) {l_partkey, l_suppkey} =&gt; {0.5 * SUM(l_quantity)}&#10;&#10;Functional Dependencies (non&#45;trivial): &#10; &lt;none&gt;">
<text text-anchor="middle" x="507" y="-945.8" font-family="Times,serif" font-size="14.00" fill="white"> 410.6 row(s) | 100.0% estd.</text>
</a>
</g>
</g>
<!-- 133161816292624 -->
<g id="node17" class="node">
<title>133161816292624</title>
<polygon fill="none" stroke="white" points="683,-835 351,-835 351,-797 683,-797 683,-835"/>
<text text-anchor="middle" x="517" y="-819.8" font-family="Times,serif" font-size="14.00" fill="white">[Aggregate] GroupBy: [l_suppkey, l_partkey]</text>
<text text-anchor="middle" x="517" y="-804.8" font-family="Times,serif" font-size="14.00" fill="white">Aggregates: [SUM(l_quantity)]</text>
</g>
<!-- 133161816292624&#45;&gt;133161815958544 -->
<g id="edge18" class="edge">
<title>133161816292624&#45;&gt;133161815958544</title>
<path fill="none" stroke="white" d="M509.54,-835.03C504.57,-847.04 497.94,-863.06 492.32,-876.64"/>
<polygon fill="white" stroke="white" points="489.04,-875.42 488.45,-886 495.51,-878.09 489.04,-875.42"/>
<g id="a_edge18&#45;label"><a xlink:title="Output Expressions: &#10; (1) l_suppkey&#10; (2) l_partkey&#10; (3) SUM(l_quantity) NULL&#10;&#10;Unique Column Combinations: &#10; (1) {l_partkey, l_suppkey}&#10;&#10;Functional Dependencies (trivial): &#10; (1) {l_partkey, l_suppkey} =&gt; {SUM(l_quantity)}&#10;&#10;Functional Dependencies (non&#45;trivial): &#10; &lt;none&gt;">
<text text-anchor="middle" x="603" y="-856.8" font-family="Times,serif" font-size="14.00" fill="white"> 410.6 row(s) | 100.0% estd.</text>
</a>
</g>
</g>
<!-- 133161815958384 -->
<g id="node18" class="node">
<title>133161815958384</title>
<polygon fill="none" stroke="white" points="571.5,-746 486.5,-746 486.5,-710 571.5,-710 571.5,-746"/>
<text text-anchor="middle" x="529" y="-724.3" font-family="Times,serif" font-size="14.00" fill="white">[Validate]</text>
</g>
<!-- 133161815958384&#45;&gt;133161816292624 -->
<g id="edge19" class="edge">
<title>133161815958384&#45;&gt;133161816292624</title>
<path fill="none" stroke="white" d="M526.57,-746.4C524.96,-757.94 522.81,-773.35 520.96,-786.64"/>
<polygon fill="white" stroke="white" points="517.46,-786.34 519.55,-796.73 524.4,-787.31 517.46,-786.34"/>
<g id="a_edge19&#45;label"><a xlink:title="Output Expressions: &#10; (1) l_partkey&#10; (2) l_suppkey&#10; (3) l_quantity&#10; (4) l_shipdate&#10;&#10;Unique Column Combinations: &#10; &lt;none&gt;&#10;&#10;Functional Dependencies (trivial): &#10; &lt;none&gt;&#10;&#10;Functional Dependencies (non&#45;trivial): &#10; &lt;none&gt;">
<text text-anchor="middle" x="626" y="-767.8" font-family="Times,serif" font-size="14.00" fill="white"> 410.6 row(s) | 100.0% estd.</text>
</a>
</g>
</g>
<!-- 133161816288976&#45;&gt;133161815958384 -->
<g id="edge20" class="edge">
<title>133161816288976&#45;&gt;133161815958384</title>
<path fill="none" stroke="white" d="M529,-659.24C529,-671.07 529,-686.68 529,-699.95"/>
<polygon fill="white" stroke="white" points="525.5,-699.96 529,-709.96 532.5,-699.96 525.5,-699.96"/>
<g id="a_edge20&#45;label"><a xlink:title="Output Expressions: &#10; (1) l_partkey&#10; (2) l_suppkey&#10; (3) l_quantity&#10; (4) l_shipdate&#10;&#10;Unique Column Combinations: &#10; &lt;none&gt;&#10;&#10;Functional Dependencies (trivial): &#10; &lt;none&gt;&#10;&#10;Functional Dependencies (non&#45;trivial): &#10; &lt;none&gt;">
<text text-anchor="middle" x="625.5" y="-680.8" font-family="Times,serif" font-size="14.00" fill="white"> 410.6 row(s) | 90.0% estd.</text>
</a>
</g>
</g>
<!-- 133161816289168&#45;&gt;133161816288976 -->
<g id="edge21" class="edge">
<title>133161816289168&#45;&gt;133161816288976</title>
<path fill="none" stroke="white" d="M659.81,-570.03C634.37,-583.44 599.46,-601.85 572.11,-616.27"/>
<polygon fill="white" stroke="white" points="571.99,-616.33 570.36,-613.24 563.14,-621 571.99,-616.33"/>
<g id="a_edge21&#45;label"><a xlink:title="Output Expressions: &#10; (1) l_partkey&#10; (2) l_suppkey&#10; (3) l_quantity&#10; (4) l_shipdate&#10;&#10;Unique Column Combinations: &#10; &lt;none&gt;&#10;&#10;Functional Dependencies (trivial): &#10; &lt;none&gt;&#10;&#10;Functional Dependencies (non&#45;trivial): &#10; &lt;none&gt;">
<text text-anchor="middle" x="714" y="-591.8" font-family="Times,serif" font-size="14.00" fill="white"> 456.3 row(s) | 0.0% estd.</text>
</a>
</g>
</g>
<!-- 133161816292432 -->
<g id="node21" class="node">
<title>133161816292432</title>
<polygon fill="none" stroke="white" points="895,-481 493,-481 493,-443 895,-443 895,-481"/>
<text text-anchor="middle" x="694" y="-465.8" font-family="Times,serif" font-size="14.00" fill="white">[Predicate] l_shipdate BETWEEN UPPER EXCLUSIVE</text>
<text text-anchor="middle" x="694" y="-450.8" font-family="Times,serif" font-size="14.00" fill="white">&#39;1994&#45;01&#45;01&#39; AND &#39;1995&#45;01&#45;01&#39;</text>
</g>
<!-- 133161816292432&#45;&gt;133161816289168 -->
<g id="edge22" class="edge">
<title>133161816292432&#45;&gt;133161816289168</title>
<path fill="none" stroke="white" stroke-width="3.29" d="M694,-481.03C694,-492.81 694,-508.44 694,-521.84"/>
<polygon fill="white" stroke="white" stroke-width="3.29" points="694,-522 690.5,-522 694,-532 694,-522"/>
<g id="a_edge22&#45;label"><a xlink:title="Output Expressions: &#10; (1) l_partkey&#10; (2) l_suppkey&#10; (3) l_quantity&#10; (4) l_shipdate&#10;&#10;Unique Column Combinations: &#10; &lt;none&gt;&#10;&#10;Functional Dependencies (trivial): &#10; &lt;none&gt;&#10;&#10;Functional Dependencies (non&#45;trivial): &#10; &lt;none&gt;">
<text text-anchor="middle" x="817.5" y="-502.8" font-family="Times,serif" font-size="14.00" fill="white"> 44,455,672.0 row(s) | 14.8% estd.</text>
</a>
</g>
</g>
<!-- 133094371123280 -->
<g id="node22" class="node">
<title>133094371123280</title>
<polygon fill="none" stroke="white" points="868.5,-392 519.5,-392 519.5,-354 868.5,-354 868.5,-392"/>
<text text-anchor="middle" x="694" y="-376.8" font-family="Times,serif" font-size="14.00" fill="white">[StoredTable] Name: &#39;lineitem&#39; pruned: 0/4578</text>
<text text-anchor="middle" x="694" y="-361.8" font-family="Times,serif" font-size="14.00" fill="white">chunk(s), 12/16 column(s)</text>
</g>
<!-- 133094371123280&#45;&gt;133161816292432 -->
<g id="edge23" class="edge">
<title>133094371123280&#45;&gt;133161816292432</title>
<path fill="none" stroke="white" stroke-width="8" d="M694,-392.03C694,-403.81 694,-419.44 694,-432.84"/>
<polygon fill="white" stroke="white" stroke-width="8" points="687,-433 694,-443 701,-433 687,-433"/>
<g id="a_edge23&#45;label"><a xlink:title="Output Expressions: &#10; (1) l_partkey&#10; (2) l_suppkey&#10; (3) l_quantity&#10; (4) l_shipdate&#10;&#10;Unique Column Combinations: &#10; &lt;none&gt;&#10;&#10;Functional Dependencies (trivial): &#10; &lt;none&gt;&#10;&#10;Functional Dependencies (non&#45;trivial): &#10; &lt;none&gt;">
<text text-anchor="middle" x="826.5" y="-413.8" font-family="Times,serif" font-size="14.00" fill="white"> 300,005,824.0 row(s) | 100.0% estd.</text>
</a>
</g>
</g>
<!-- 133161815955344 -->
<g id="node23" class="node">
<title>133161815955344</title>
<polygon fill="none" stroke="white" points="858.5,-1204 773.5,-1204 773.5,-1168 858.5,-1168 858.5,-1204"/>
<text text-anchor="middle" x="816" y="-1182.3" font-family="Times,serif" font-size="14.00" fill="white">[Validate]</text>
</g>
<!-- 133161815955344&#45;&gt;133161816290896 -->
<g id="edge24" class="edge">
<title>133161815955344&#45;&gt;133161816290896</title>
<path fill="none" stroke="white" d="M804.34,-1204.4C796.35,-1215.12 784.9,-1228.42 772,-1237 763.79,-1242.46 754.65,-1247.14 745.29,-1251.14"/>
<polygon fill="white" stroke="white" points="735.89,-1254.91 746.47,-1254.44 745.17,-1251.19 735.89,-1254.91"/>
<g id="a_edge24&#45;label"><a xlink:title="Output Expressions: &#10; (1) n_nationkey&#10; (2) n_name&#10;&#10;Unique Column Combinations: &#10; (1) {n_nationkey}&#10;&#10;Functional Dependencies (trivial): &#10; (1) {n_nationkey} =&gt; {n_name}&#10;&#10;Functional Dependencies (non&#45;trivial): &#10; &lt;none&gt;">
<text text-anchor="middle" x="881" y="-1225.8" font-family="Times,serif" font-size="14.00" fill="white"> 1.0 row(s) | 100.0% estd.</text>
</a>
</g>
</g>
<!-- 133161816290128 -->
<g id="node24" class="node">
<title>133161816290128</title>
<polygon fill="none" stroke="white" points="1038,-1116 734,-1116 734,-1080 1038,-1080 1038,-1116"/>
<text text-anchor="middle" x="886" y="-1094.3" font-family="Times,serif" font-size="14.00" fill="white">[Predicate] n_name = &#39;UNITED STATES&#39;</text>
</g>
<!-- 133161816290128&#45;&gt;133161815955344 -->
<g id="edge25" class="edge">
<title>133161816290128&#45;&gt;133161815955344</title>
<path fill="none" stroke="white" d="M871.83,-1116.4C861.62,-1128.96 847.67,-1146.09 836.27,-1160.09"/>
<polygon fill="white" stroke="white" points="833.5,-1157.95 829.91,-1167.92 838.93,-1162.37 833.5,-1157.95"/>
<g id="a_edge25&#45;label"><a xlink:title="Output Expressions: &#10; (1) n_nationkey&#10; (2) n_name&#10;&#10;Unique Column Combinations: &#10; (1) {n_nationkey}&#10;&#10;Functional Dependencies (trivial): &#10; (1) {n_nationkey} =&gt; {n_name}&#10;&#10;Functional Dependencies (non&#45;trivial): &#10; &lt;none&gt;">
<text text-anchor="middle" x="939" y="-1138.8" font-family="Times,serif" font-size="14.00" fill="white"> 1.0 row(s) | 4.0% estd.</text>
</a>
</g>
</g>
<!-- 133115331528976 -->
<g id="node25" class="node">
<title>133115331528976</title>
<polygon fill="none" stroke="white" points="1075,-1020.5 697,-1020.5 697,-982.5 1075,-982.5 1075,-1020.5"/>
<text text-anchor="middle" x="886" y="-1005.3" font-family="Times,serif" font-size="14.00" fill="white">[StoredTable] Name: &#39;nation&#39; pruned: 0/1 chunk(s),</text>
<text text-anchor="middle" x="886" y="-990.3" font-family="Times,serif" font-size="14.00" fill="white">2/4 column(s)</text>
</g>
<!-- 133115331528976&#45;&gt;133161816290128 -->
<g id="edge26" class="edge">
<title>133115331528976&#45;&gt;133161816290128</title>
<path fill="none" stroke="white" d="M886,-1020.72C886,-1034.58 886,-1053.88 886,-1069.59"/>
<polygon fill="white" stroke="white" points="882.5,-1069.79 886,-1079.79 889.5,-1069.79 882.5,-1069.79"/>
<g id="a_edge26&#45;label"><a xlink:title="Output Expressions: &#10; (1) n_nationkey&#10; (2) n_name&#10;&#10;Unique Column Combinations: &#10; (1) {n_nationkey}&#10;&#10;Functional Dependencies (trivial): &#10; (1) {n_nationkey} =&gt; {n_name}&#10;&#10;Functional Dependencies (non&#45;trivial): &#10; &lt;none&gt;">
<text text-anchor="middle" x="982.5" y="-1049.8" font-family="Times,serif" font-size="14.00" fill="white"> 25.0 row(s) | 100.0% estd.</text>
</a>
</g>
</g>
</g>
</svg>
