<?xml version="1.0" encoding="UTF-8" standalone="no"?>
<!DOCTYPE svg PUBLIC "-//W3C//DTD SVG 1.1//EN"
 "http://www.w3.org/Graphics/SVG/1.1/DTD/svg11.dtd">
<!-- Generated by graphviz version 2.43.0 (0)
 -->
<!-- Title: G Pages: 1 -->
<svg width="755pt" height="1220pt"
 viewBox="0.00 0.00 754.50 1220.00" xmlns="http://www.w3.org/2000/svg" xmlns:xlink="http://www.w3.org/1999/xlink">
<g id="graph0" class="graph" transform="scale(1 1) rotate(0) translate(4 1216)">
<title>G</title>
<polygon fill="black" stroke="transparent" points="-4,4 -4,-1216 750.5,-1216 750.5,4 -4,4"/>
<text text-anchor="middle" x="319.5" y="-1196.8" font-family="Times,serif" font-size="14.00" fill="white">For tooltips with advanced information, hover your mouse over vertices or edge labels.</text>
<!-- 133111075187024 -->
<g id="node1" class="node">
<title>133111075187024</title>
<g id="a_node1"><a xlink:title="Output: 46 rows in 1 chunk filtered: 0, 2 µs 678 ns.">
<polygon fill="none" stroke="white" points="258.5,-1157 111.5,-1157 111.5,-1088 258.5,-1088 258.5,-1157"/>
<text text-anchor="middle" x="185" y="-1141.8" font-family="Times,serif" font-size="14.00" fill="white">Alias</text>
<text text-anchor="middle" x="185" y="-1126.8" font-family="Times,serif" font-size="14.00" fill="white">[c_count, custdist]</text>
<text text-anchor="middle" x="185" y="-1095.8" font-family="Times,serif" font-size="14.00" fill="white">2 µs 678 ns</text>
</a>
</g>
</g>
<!-- 133111075186704 -->
<g id="node2" class="node">
<title>133111075186704</title>
<g id="a_node2"><a xlink:title="Output: 46 rows in 1 chunk filtered: 0, 23 µs 123 ns.&#10;Operator step runtimes:&#10; MaterializeSortColumns 10 µs 610 ns&#10; Sort 3 µs 890 ns&#10; TemporaryResultWriting 331 ns&#10; WriteOutput 6 µs 386 ns.">
<polygon fill="none" stroke="white" points="239,-1037 131,-1037 131,-983 239,-983 239,-1037"/>
<text text-anchor="middle" x="185" y="-1021.8" font-family="Times,serif" font-size="14.00" fill="white">Sort</text>
<text text-anchor="middle" x="185" y="-990.8" font-family="Times,serif" font-size="14.00" fill="white">23 µs 123 ns</text>
</a>
</g>
</g>
<!-- 133111075186704&#45;&gt;133111075187024 -->
<g id="edge1" class="edge">
<title>133111075186704&#45;&gt;133111075187024</title>
<path fill="none" stroke="white" d="M185,-1037.19C185,-1049.29 185,-1064 185,-1077.72"/>
<polygon fill="white" stroke="white" points="181.5,-1077.95 185,-1087.95 188.5,-1077.96 181.5,-1077.95"/>
<text text-anchor="middle" x="258.5" y="-1058.8" font-family="Times,serif" font-size="14.00" fill="white">46 row(s)/1 chunk(s)</text>
</g>
<!-- 133111083922448 -->
<g id="node3" class="node">
<title>133111083922448</title>
<g id="a_node3"><a xlink:title="Output: 46 rows in 1 chunk filtered: 0, 101 ms 795 µs.&#10;Operator step runtimes:&#10; GroupByKeyPartitioning 57 ms 685 µs&#10; Aggregating 44 ms 28 µs&#10; GroupByColumnsWriting 9 µs 630 ns&#10; AggregateColumnsWriting 9 µs 219 ns&#10; OutputWriting 4 µs 360 ns.">
<polygon fill="none" stroke="white" points="308,-932 62,-932 62,-848 308,-848 308,-932"/>
<text text-anchor="middle" x="185" y="-916.8" font-family="Times,serif" font-size="14.00" fill="white">AggregateHash</text>
<text text-anchor="middle" x="185" y="-901.8" font-family="Times,serif" font-size="14.00" fill="white">GroupBy {COUNT(o_orderkey)}</text>
<text text-anchor="middle" x="185" y="-886.8" font-family="Times,serif" font-size="14.00" fill="white">COUNT(*)</text>
<text text-anchor="middle" x="185" y="-855.8" font-family="Times,serif" font-size="14.00" fill="white">101 ms 795 µs</text>
</a>
</g>
</g>
<!-- 133111083922448&#45;&gt;133111075186704 -->
<g id="edge2" class="edge">
<title>133111083922448&#45;&gt;133111075186704</title>
<path fill="none" stroke="white" d="M185,-932.27C185,-945.36 185,-959.72 185,-972.45"/>
<polygon fill="white" stroke="white" points="181.5,-972.69 185,-982.69 188.5,-972.69 181.5,-972.69"/>
<text text-anchor="middle" x="258.5" y="-953.8" font-family="Times,serif" font-size="14.00" fill="white">46 row(s)/1 chunk(s)</text>
</g>
<!-- 133111075186384 -->
<g id="node4" class="node">
<title>133111075186384</title>
<g id="a_node4"><a xlink:title="Output: 7500000 rows in 115 chunks filtered: 0, 58 µs 704 ns.">
<polygon fill="none" stroke="white" points="263.5,-797 106.5,-797 106.5,-728 263.5,-728 263.5,-797"/>
<text text-anchor="middle" x="185" y="-781.8" font-family="Times,serif" font-size="14.00" fill="white">Alias</text>
<text text-anchor="middle" x="185" y="-766.8" font-family="Times,serif" font-size="14.00" fill="white">[c_custkey, c_count]</text>
<text text-anchor="middle" x="185" y="-735.8" font-family="Times,serif" font-size="14.00" fill="white">58 µs 704 ns</text>
</a>
</g>
</g>
<!-- 133111075186384&#45;&gt;133111083922448 -->
<g id="edge3" class="edge">
<title>133111075186384&#45;&gt;133111083922448</title>
<path fill="none" stroke="white" stroke-width="2.27" d="M185,-797.13C185,-809.51 185,-823.84 185,-837.44"/>
<polygon fill="white" stroke="white" stroke-width="2.27" points="181.5,-837.65 185,-847.65 188.5,-837.65 181.5,-837.65"/>
<text text-anchor="middle" x="294.5" y="-818.8" font-family="Times,serif" font-size="14.00" fill="white">7,500,000 row(s)/115 chunk(s)</text>
</g>
<!-- 133111074741776 -->
<g id="node5" class="node">
<title>133111074741776</title>
<g id="a_node5"><a xlink:title="Output: 7500000 rows in 115 chunks filtered: 0, 13 s 324 ms.&#10;Operator step runtimes:&#10; GroupByKeyPartitioning 1 s 221 ms&#10; Aggregating 12 s 79 ms&#10; GroupByColumnsWriting 16 ms 354 µs&#10; AggregateColumnsWriting 7 ms 593 µs&#10; OutputWriting 144 µs 806 ns.">
<polygon fill="none" stroke="white" stroke-width="8" points="270.5,-677 99.5,-677 99.5,-593 270.5,-593 270.5,-677"/>
<text text-anchor="middle" x="185" y="-661.8" font-family="Times,serif" font-size="14.00" fill="white">AggregateHash</text>
<text text-anchor="middle" x="185" y="-646.8" font-family="Times,serif" font-size="14.00" fill="white">GroupBy {c_custkey}</text>
<text text-anchor="middle" x="185" y="-631.8" font-family="Times,serif" font-size="14.00" fill="white">COUNT(o_orderkey)</text>
<text text-anchor="middle" x="185" y="-600.8" font-family="Times,serif" font-size="14.00" fill="white">13 s 324 ms</text>
</a>
</g>
</g>
<!-- 133111074741776&#45;&gt;133111075186384 -->
<g id="edge4" class="edge">
<title>133111074741776&#45;&gt;133111075186384</title>
<path fill="none" stroke="white" stroke-width="2.27" d="M185,-677.09C185,-690.07 185,-704.45 185,-717.61"/>
<polygon fill="white" stroke="white" stroke-width="2.27" points="181.5,-717.85 185,-727.85 188.5,-717.85 181.5,-717.85"/>
<text text-anchor="middle" x="294.5" y="-698.8" font-family="Times,serif" font-size="14.00" fill="white">7,500,000 row(s)/115 chunk(s)</text>
</g>
<!-- 133111075186064 -->
<g id="node6" class="node">
<title>133111075186064</title>
<g id="a_node6"><a xlink:title="Output: 76693233 rows in 256 chunks filtered: 0, 808 ms 398 µs.&#10;Operator step runtimes:&#10; LeftSideMaterialize 21 ms 280 µs&#10; RightSideMaterialize 68 ms 399 µs&#10; LeftSideTransform 0 ns&#10; RightSideTransform 0 ns&#10; LeftSidePartition 72 ms 440 µs&#10; RightSidePartition 105 ms 262 µs&#10; LeftSideSortBuckets 15 ms 376 µs&#10; RightSideSortBuckets 83 ms 380 µs&#10; GatherRowIds 4 µs 370 ns&#10; FindJoinPartner 260 ms 582 µs&#10; OutputWriting 164 ms 906 µs.&#10;Radix bits: 8.">
<polygon fill="none" stroke="white" stroke-width="1.09" points="285.5,-542 84.5,-542 84.5,-473 285.5,-473 285.5,-542"/>
<text text-anchor="middle" x="185" y="-526.8" font-family="Times,serif" font-size="14.00" fill="white">JoinSimdSortMerge (Left)</text>
<text text-anchor="middle" x="185" y="-511.8" font-family="Times,serif" font-size="14.00" fill="white">c_custkey = o_custkey</text>
<text text-anchor="middle" x="185" y="-480.8" font-family="Times,serif" font-size="14.00" fill="white">808 ms 398 µs</text>
</a>
</g>
</g>
<!-- 133111075186064&#45;&gt;133111074741776 -->
<g id="edge5" class="edge">
<title>133111075186064&#45;&gt;133111074741776</title>
<path fill="none" stroke="white" stroke-width="8" d="M185,-542.13C185,-554.51 185,-568.84 185,-582.44"/>
<polygon fill="white" stroke="white" stroke-width="8" points="178,-582.65 185,-592.65 192,-582.65 178,-582.65"/>
<text text-anchor="middle" x="299" y="-563.8" font-family="Times,serif" font-size="14.00" fill="white">76,693,233 row(s)/256 chunk(s)</text>
</g>
<!-- 133111074822416 -->
<g id="node7" class="node">
<title>133111074822416</title>
<g id="a_node7"><a xlink:title="Output: 7500000 rows in 115 chunks filtered: 0, 850 µs 516 ns.">
<polygon fill="none" stroke="white" points="121.5,-422 4.5,-422 4.5,-368 121.5,-368 121.5,-422"/>
<text text-anchor="middle" x="63" y="-406.8" font-family="Times,serif" font-size="14.00" fill="white">Validate</text>
<text text-anchor="middle" x="63" y="-375.8" font-family="Times,serif" font-size="14.00" fill="white">850 µs 516 ns</text>
</a>
</g>
</g>
<!-- 133111074822416&#45;&gt;133111075186064 -->
<g id="edge6" class="edge">
<title>133111074822416&#45;&gt;133111075186064</title>
<path fill="none" stroke="white" stroke-width="2.27" d="M55.72,-422.24C54.22,-433.19 54.68,-445.54 61,-455 65.23,-461.33 70.39,-466.89 76.19,-471.76"/>
<polygon fill="white" stroke="white" stroke-width="2.27" points="76.47,-471.97 74.36,-474.76 84.46,-477.99 76.47,-471.97"/>
<text text-anchor="middle" x="170.5" y="-443.8" font-family="Times,serif" font-size="14.00" fill="white">7,500,000 row(s)/115 chunk(s)</text>
</g>
<!-- 133111084397392 -->
<g id="node8" class="node">
<title>133111084397392</title>
<g id="a_node8"><a xlink:title="Output: 7500000 rows in 115 chunks filtered: 0, 222 µs 157 ns.">
<polygon fill="none" stroke="white" points="122,-317 0,-317 0,-203 122,-203 122,-317"/>
<text text-anchor="middle" x="61" y="-301.8" font-family="Times,serif" font-size="14.00" fill="white">GetTable</text>
<text text-anchor="middle" x="61" y="-286.8" font-family="Times,serif" font-size="14.00" fill="white">(customer)</text>
<text text-anchor="middle" x="61" y="-271.8" font-family="Times,serif" font-size="14.00" fill="white">pruned:</text>
<text text-anchor="middle" x="61" y="-256.8" font-family="Times,serif" font-size="14.00" fill="white">0/115 chunk(s)</text>
<text text-anchor="middle" x="61" y="-241.8" font-family="Times,serif" font-size="14.00" fill="white">7/8 column(s)</text>
<text text-anchor="middle" x="61" y="-210.8" font-family="Times,serif" font-size="14.00" fill="white">222 µs 157 ns</text>
</a>
</g>
</g>
<!-- 133111084397392&#45;&gt;133111074822416 -->
<g id="edge7" class="edge">
<title>133111084397392&#45;&gt;133111074822416</title>
<path fill="none" stroke="white" stroke-width="2.27" d="M61.84,-317.02C62.05,-330.77 62.27,-345.14 62.45,-357.69"/>
<polygon fill="white" stroke="white" stroke-width="2.27" points="58.96,-357.8 62.61,-367.75 65.95,-357.7 58.96,-357.8"/>
<text text-anchor="middle" x="171.5" y="-338.8" font-family="Times,serif" font-size="14.00" fill="white">7,500,000 row(s)/115 chunk(s)</text>
</g>
<!-- 133111074822160 -->
<g id="node9" class="node">
<title>133111074822160</title>
<g id="a_node9"><a xlink:title="Output: 74193110 rows in 1145 chunks filtered: 0, 2 ms 39 µs.">
<polygon fill="none" stroke="white" points="353.5,-422 258.5,-422 258.5,-368 353.5,-368 353.5,-422"/>
<text text-anchor="middle" x="306" y="-406.8" font-family="Times,serif" font-size="14.00" fill="white">Validate</text>
<text text-anchor="middle" x="306" y="-375.8" font-family="Times,serif" font-size="14.00" fill="white">2 ms 39 µs</text>
</a>
</g>
</g>
<!-- 133111074822160&#45;&gt;133111075186064 -->
<g id="edge8" class="edge">
<title>133111074822160&#45;&gt;133111075186064</title>
<path fill="none" stroke="white" stroke-width="7.92" d="M300.65,-422.3C297.34,-433.39 292.11,-445.83 284,-455 280.31,-459.17 276.2,-463.06 271.81,-466.67"/>
<polygon fill="white" stroke="white" stroke-width="7.92" points="263.64,-472.87 275.8,-472.34 271.61,-466.82 263.64,-472.87"/>
<text text-anchor="middle" x="413.5" y="-443.8" font-family="Times,serif" font-size="14.00" fill="white">74,193,110 row(s)/1,145 chunk(s)</text>
</g>
<!-- 133111075185744 -->
<g id="node10" class="node">
<title>133111075185744</title>
<g id="a_node10"><a xlink:title="Output: 74193110 rows in 1145 chunks filtered: 0, 317 ms 560 µs.&#10;Chunks: 0 skipped with no results, &#10;0 skipped with all matching, 0 scanned using binary search.">
<polygon fill="none" stroke="white" points="484.5,-302 139.5,-302 139.5,-218 484.5,-218 484.5,-302"/>
<text text-anchor="middle" x="312" y="-286.8" font-family="Times,serif" font-size="14.00" fill="white">TableScan</text>
<text text-anchor="middle" x="312" y="-271.8" font-family="Times,serif" font-size="14.00" fill="white">Impl: ColumnLike</text>
<text text-anchor="middle" x="312" y="-256.8" font-family="Times,serif" font-size="14.00" fill="white">o_comment NOT LIKE &#39;%unusual%requests%&#39;</text>
<text text-anchor="middle" x="312" y="-225.8" font-family="Times,serif" font-size="14.00" fill="white">317 ms 560 µs</text>
</a>
</g>
</g>
<!-- 133111075185744&#45;&gt;133111074822160 -->
<g id="edge9" class="edge">
<title>133111075185744&#45;&gt;133111074822160</title>
<path fill="none" stroke="white" stroke-width="7.92" d="M310.13,-302.35C309.34,-320.03 308.41,-340.5 307.64,-357.6"/>
<polygon fill="white" stroke="white" stroke-width="7.92" points="300.71,-357.45 307.18,-367.75 314.56,-358.08 300.71,-357.45"/>
<text text-anchor="middle" x="428.5" y="-338.8" font-family="Times,serif" font-size="14.00" fill="white">74,193,110 row(s)/1,145 chunk(s)</text>
</g>
<!-- 133111084397840 -->
<g id="node11" class="node">
<title>133111084397840</title>
<g id="a_node11"><a xlink:title="Output: 75000000 rows in 1145 chunks filtered: 0, 3 ms 144 µs.">
<polygon fill="none" stroke="white" points="377.5,-133 246.5,-133 246.5,-19 377.5,-19 377.5,-133"/>
<text text-anchor="middle" x="312" y="-117.8" font-family="Times,serif" font-size="14.00" fill="white">GetTable</text>
<text text-anchor="middle" x="312" y="-102.8" font-family="Times,serif" font-size="14.00" fill="white">(orders)</text>
<text text-anchor="middle" x="312" y="-87.8" font-family="Times,serif" font-size="14.00" fill="white">pruned:</text>
<text text-anchor="middle" x="312" y="-72.8" font-family="Times,serif" font-size="14.00" fill="white">0/1145 chunk(s)</text>
<text text-anchor="middle" x="312" y="-57.8" font-family="Times,serif" font-size="14.00" fill="white">6/9 column(s)</text>
<text text-anchor="middle" x="312" y="-26.8" font-family="Times,serif" font-size="14.00" fill="white">3 ms 144 µs</text>
</a>
</g>
</g>
<!-- 133111084397840&#45;&gt;133111075185744 -->
<g id="edge10" class="edge">
<title>133111084397840&#45;&gt;133111075185744</title>
<path fill="none" stroke="white" stroke-width="7.94" d="M312,-133.09C312,-156.93 312,-184.53 312,-207.81"/>
<polygon fill="white" stroke="white" stroke-width="7.94" points="305.05,-207.83 312,-217.83 318.95,-207.83 305.05,-207.83"/>
<text text-anchor="middle" x="432.5" y="-173.8" font-family="Times,serif" font-size="14.00" fill="white">75,000,000 row(s)/1,145 chunk(s)</text>
</g>
<!-- 0 -->
<g id="node12" class="node">
<title>0</title>
<polygon fill="none" stroke="white" points="395.5,-0.5 395.5,-151.5 746.5,-151.5 746.5,-0.5 395.5,-0.5"/>
<text text-anchor="middle" x="571" y="-136.3" font-family="Times,serif" font-size="14.00" fill="white">Total by operator</text>
<polyline fill="none" stroke="white" points="395.5,-128.5 746.5,-128.5 "/>
<text text-anchor="end" x="554.5" y="-113.3" font-family="Times,serif" font-size="14.00" fill="white">AggregateHash </text>
<text text-anchor="end" x="554.5" y="-98.3" font-family="Times,serif" font-size="14.00" fill="white"> JoinSimdSortMerge </text>
<text text-anchor="end" x="554.5" y="-83.3" font-family="Times,serif" font-size="14.00" fill="white"> TableScan </text>
<text text-anchor="end" x="554.5" y="-68.3" font-family="Times,serif" font-size="14.00" fill="white"> GetTable </text>
<text text-anchor="end" x="554.5" y="-53.3" font-family="Times,serif" font-size="14.00" fill="white"> Validate </text>
<text text-anchor="end" x="554.5" y="-38.3" font-family="Times,serif" font-size="14.00" fill="white"> Alias </text>
<text text-anchor="end" x="554.5" y="-23.3" font-family="Times,serif" font-size="14.00" fill="white"> Sort </text>
<text text-anchor="end" x="554.5" y="-8.3" font-family="Times,serif" font-size="14.00" fill="white">total</text>
<polyline fill="none" stroke="white" points="562.5,-0.5 562.5,-128.5 "/>
<text text-anchor="start" x="570.5" y="-113.3" font-family="Times,serif" font-size="14.00" fill="white">13 s 426 ms </text>
<text text-anchor="start" x="570.5" y="-98.3" font-family="Times,serif" font-size="14.00" fill="white"> 808 ms 398 µs </text>
<text text-anchor="start" x="570.5" y="-83.3" font-family="Times,serif" font-size="14.00" fill="white"> 317 ms 560 µs </text>
<text text-anchor="start" x="570.5" y="-68.3" font-family="Times,serif" font-size="14.00" fill="white"> 3 ms 366 µs </text>
<text text-anchor="start" x="570.5" y="-53.3" font-family="Times,serif" font-size="14.00" fill="white"> 2 ms 889 µs </text>
<text text-anchor="start" x="570.5" y="-38.3" font-family="Times,serif" font-size="14.00" fill="white"> 61 µs 382 ns </text>
<text text-anchor="start" x="570.5" y="-23.3" font-family="Times,serif" font-size="14.00" fill="white"> 23 µs 123 ns </text>
<text text-anchor="start" x="570.5" y="-8.3" font-family="Times,serif" font-size="14.00" fill="white"> 14 s 558 ms </text>
<polyline fill="none" stroke="white" points="693.5,-0.5 693.5,-128.5 "/>
<text text-anchor="start" x="701.5" y="-113.3" font-family="Times,serif" font-size="14.00" fill="white">92 %</text>
<text text-anchor="start" x="701.5" y="-98.3" font-family="Times,serif" font-size="14.00" fill="white">6 %</text>
<text text-anchor="start" x="701.5" y="-83.3" font-family="Times,serif" font-size="14.00" fill="white">2 %</text>
<text text-anchor="start" x="701.5" y="-68.3" font-family="Times,serif" font-size="14.00" fill="white">0 %</text>
<text text-anchor="start" x="701.5" y="-53.3" font-family="Times,serif" font-size="14.00" fill="white">0 %</text>
<text text-anchor="start" x="701.5" y="-38.3" font-family="Times,serif" font-size="14.00" fill="white">0 %</text>
<text text-anchor="start" x="701.5" y="-23.3" font-family="Times,serif" font-size="14.00" fill="white">0 %</text>
<text text-anchor="start" x="701.5" y="-8.3" font-family="Times,serif" font-size="14.00" fill="white"> </text>
</g>
</g>
</svg>
