<?xml version="1.0" encoding="UTF-8" standalone="no"?>
<!DOCTYPE svg PUBLIC "-//W3C//DTD SVG 1.1//EN"
 "http://www.w3.org/Graphics/SVG/1.1/DTD/svg11.dtd">
<!-- Generated by graphviz version 2.43.0 (0)
 -->
<!-- Title: G Pages: 1 -->
<svg width="889pt" height="1895pt"
 viewBox="0.00 0.00 888.50 1895.00" xmlns="http://www.w3.org/2000/svg" xmlns:xlink="http://www.w3.org/1999/xlink">
<g id="graph0" class="graph" transform="scale(1 1) rotate(0) translate(4 1891)">
<title>G</title>
<polygon fill="black" stroke="transparent" points="-4,4 -4,-1891 884.5,-1891 884.5,4 -4,4"/>
<text text-anchor="middle" x="319.5" y="-1871.8" font-family="Times,serif" font-size="14.00" fill="white">For tooltips with advanced information, hover your mouse over vertices or edge labels.</text>
<!-- 133113157388304 -->
<g id="node1" class="node">
<title>133113157388304</title>
<g id="a_node1"><a xlink:title="Output: 2 rows in 1 chunk filtered: 0, 2 µs 714 ns.">
<polygon fill="none" stroke="white" points="632,-1832 291,-1832 291,-1763 632,-1763 632,-1832"/>
<text text-anchor="middle" x="461.5" y="-1816.8" font-family="Times,serif" font-size="14.00" fill="white">Alias</text>
<text text-anchor="middle" x="461.5" y="-1801.8" font-family="Times,serif" font-size="14.00" fill="white">[l_shipmode, high_line_count, low_line_count]</text>
<text text-anchor="middle" x="461.5" y="-1770.8" font-family="Times,serif" font-size="14.00" fill="white">2 µs 714 ns</text>
</a>
</g>
</g>
<!-- 133113157387984 -->
<g id="node2" class="node">
<title>133113157387984</title>
<g id="a_node2"><a xlink:title="Output: 2 rows in 1 chunk filtered: 0, 25 µs 5 ns.&#10;Operator step runtimes:&#10; MaterializeSortColumns 15 µs 386 ns&#10; Sort 1 µs 914 ns&#10; TemporaryResultWriting 189 ns&#10; WriteOutput 5 µs 212 ns.">
<polygon fill="none" stroke="white" points="506.5,-1712 416.5,-1712 416.5,-1658 506.5,-1658 506.5,-1712"/>
<text text-anchor="middle" x="461.5" y="-1696.8" font-family="Times,serif" font-size="14.00" fill="white">Sort</text>
<text text-anchor="middle" x="461.5" y="-1665.8" font-family="Times,serif" font-size="14.00" fill="white">25 µs 5 ns</text>
</a>
</g>
</g>
<!-- 133113157387984&#45;&gt;133113157388304 -->
<g id="edge1" class="edge">
<title>133113157387984&#45;&gt;133113157388304</title>
<path fill="none" stroke="white" d="M461.5,-1712.19C461.5,-1724.29 461.5,-1739 461.5,-1752.72"/>
<polygon fill="white" stroke="white" points="458,-1752.95 461.5,-1762.95 465,-1752.96 458,-1752.95"/>
<text text-anchor="middle" x="530.5" y="-1733.8" font-family="Times,serif" font-size="14.00" fill="white">2 row(s)/1 chunk(s)</text>
</g>
<!-- 133103080966672 -->
<g id="node3" class="node">
<title>133103080966672</title>
<g id="a_node3"><a xlink:title="Output: 2 rows in 1 chunk filtered: 0, 353 ms 840 µs.&#10;Operator step runtimes:&#10; GroupByKeyPartitioning 325 ms 446 µs&#10; Aggregating 28 ms 330 µs&#10; GroupByColumnsWriting 6 µs 245 ns&#10; AggregateColumnsWriting 14 µs 616 ns&#10; OutputWriting 7 µs 9 ns.">
<polygon fill="none" stroke="white" stroke-width="7.17" points="669,-1607 254,-1607 254,-1478 669,-1478 669,-1607"/>
<text text-anchor="middle" x="461.5" y="-1591.8" font-family="Times,serif" font-size="14.00" fill="white">AggregateHash</text>
<text text-anchor="middle" x="461.5" y="-1576.8" font-family="Times,serif" font-size="14.00" fill="white">GroupBy {l_shipmode}</text>
<text text-anchor="middle" x="461.5" y="-1561.8" font-family="Times,serif" font-size="14.00" fill="white">SUM(CASE WHEN o_orderpriority = &#39;1&#45;URGENT&#39; OR</text>
<text text-anchor="middle" x="461.5" y="-1546.8" font-family="Times,serif" font-size="14.00" fill="white">o_orderpriority = &#39;2&#45;HIGH&#39; THEN 1 ELSE 0 END), </text>
<text text-anchor="middle" x="461.5" y="-1531.8" font-family="Times,serif" font-size="14.00" fill="white">SUM(CASE WHEN o_orderpriority != &#39;1&#45;URGENT&#39; AND</text>
<text text-anchor="middle" x="461.5" y="-1516.8" font-family="Times,serif" font-size="14.00" fill="white">o_orderpriority != &#39;2&#45;HIGH&#39; THEN 1 ELSE 0 END)</text>
<text text-anchor="middle" x="461.5" y="-1485.8" font-family="Times,serif" font-size="14.00" fill="white">353 ms 840 µs</text>
</a>
</g>
</g>
<!-- 133103080966672&#45;&gt;133113157387984 -->
<g id="edge2" class="edge">
<title>133103080966672&#45;&gt;133113157387984</title>
<path fill="none" stroke="white" d="M461.5,-1607.17C461.5,-1620.99 461.5,-1635.14 461.5,-1647.48"/>
<polygon fill="white" stroke="white" points="458,-1647.8 461.5,-1657.8 465,-1647.8 458,-1647.8"/>
<text text-anchor="middle" x="530.5" y="-1628.8" font-family="Times,serif" font-size="14.00" fill="white">2 row(s)/1 chunk(s)</text>
</g>
<!-- 133113157387664 -->
<g id="node4" class="node">
<title>133113157387664</title>
<g id="a_node4"><a xlink:title="Output: 1559487 rows in 64 chunks filtered: 0, 32 ms 605 µs.&#10;Operator step runtimes:&#10; ForwardUnmodifiedColumns 156 µs 155 ns&#10; EvaluateNewColumns 32 ms 197 µs&#10; BuildOutput 226 µs 242 ns.">
<polygon fill="none" stroke="white" stroke-width="1.29" points="518,-1427 405,-1427 405,-1373 518,-1373 518,-1427"/>
<text text-anchor="middle" x="461.5" y="-1411.8" font-family="Times,serif" font-size="14.00" fill="white">Projection</text>
<text text-anchor="middle" x="461.5" y="-1380.8" font-family="Times,serif" font-size="14.00" fill="white">32 ms 605 µs</text>
</a>
</g>
</g>
<!-- 133113157387664&#45;&gt;133103080966672 -->
<g id="edge3" class="edge">
<title>133113157387664&#45;&gt;133103080966672</title>
<path fill="none" stroke="white" d="M461.5,-1427.1C461.5,-1438.77 461.5,-1453.17 461.5,-1467.78"/>
<polygon fill="white" stroke="white" points="458,-1467.89 461.5,-1477.89 465,-1467.89 458,-1467.89"/>
<text text-anchor="middle" x="566.5" y="-1448.8" font-family="Times,serif" font-size="14.00" fill="white">1,559,487 row(s)/64 chunk(s)</text>
</g>
<!-- 133113157387344 -->
<g id="node5" class="node">
<title>133113157387344</title>
<g id="a_node5"><a xlink:title="Output: 1559487 rows in 64 chunks filtered: 0, 332 ms 464 µs.&#10;Operator step runtimes:&#10; LeftSideMaterialize 265 ms 141 µs&#10; RightSideMaterialize 26 ms 101 µs&#10; LeftSideTransform 0 ns&#10; RightSideTransform 0 ns&#10; LeftSidePartition 3 ms 401 µs&#10; RightSidePartition 2 ms 590 µs&#10; LeftSideSortBuckets 4 ms 504 µs&#10; RightSideSortBuckets 948 µs 26 ns&#10; GatherRowIds 2 µs 294 ns&#10; FindJoinPartner 11 ms 37 µs&#10; OutputWriting 17 ms 376 µs.&#10;Radix bits: 8.">
<polygon fill="none" stroke="white" stroke-width="7.02" points="567,-1322 356,-1322 356,-1253 567,-1253 567,-1322"/>
<text text-anchor="middle" x="461.5" y="-1306.8" font-family="Times,serif" font-size="14.00" fill="white">JoinSimdSortMerge (Inner)</text>
<text text-anchor="middle" x="461.5" y="-1291.8" font-family="Times,serif" font-size="14.00" fill="white">l_orderkey = o_orderkey</text>
<text text-anchor="middle" x="461.5" y="-1260.8" font-family="Times,serif" font-size="14.00" fill="white">332 ms 464 µs</text>
</a>
</g>
</g>
<!-- 133113157387344&#45;&gt;133113157387664 -->
<g id="edge4" class="edge">
<title>133113157387344&#45;&gt;133113157387664</title>
<path fill="none" stroke="white" d="M461.5,-1322.25C461.5,-1335.07 461.5,-1349.73 461.5,-1362.77"/>
<polygon fill="white" stroke="white" points="458,-1362.81 461.5,-1372.81 465,-1362.81 458,-1362.81"/>
<text text-anchor="middle" x="566.5" y="-1343.8" font-family="Times,serif" font-size="14.00" fill="white">1,559,487 row(s)/64 chunk(s)</text>
</g>
<!-- 133113157386704 -->
<g id="node6" class="node">
<title>133113157386704</title>
<g id="a_node6"><a xlink:title="Output: 1559487 rows in 9156 chunks filtered: 0, 42 ms 449 µs.&#10;Chunks: 0 skipped with no results, &#10;0 skipped with all matching, 0 scanned using binary search.">
<polygon fill="none" stroke="white" stroke-width="1.94" points="555.5,-962 349.5,-962 349.5,-878 555.5,-878 555.5,-962"/>
<text text-anchor="middle" x="452.5" y="-946.8" font-family="Times,serif" font-size="14.00" fill="white">TableScan</text>
<text text-anchor="middle" x="452.5" y="-931.8" font-family="Times,serif" font-size="14.00" fill="white">Impl: ColumnVsColumn</text>
<text text-anchor="middle" x="452.5" y="-916.8" font-family="Times,serif" font-size="14.00" fill="white">l_commitdate &gt; l_shipdate</text>
<text text-anchor="middle" x="452.5" y="-885.8" font-family="Times,serif" font-size="14.00" fill="white">42 ms 449 µs</text>
</a>
</g>
</g>
<!-- 133113157386704&#45;&gt;133113157387344 -->
<g id="edge5" class="edge">
<title>133113157386704&#45;&gt;133113157387344</title>
<path fill="none" stroke="white" d="M534.44,-962.16C545.72,-971.39 555.74,-982.3 562.5,-995 612.63,-1089.15 618.22,-1144.04 562.5,-1235 560.19,-1238.78 557.5,-1242.29 554.52,-1245.55"/>
<polygon fill="white" stroke="white" points="554.29,-1245.78 551.86,-1243.26 547.09,-1252.72 554.29,-1245.78"/>
<text text-anchor="middle" x="718.5" y="-1118.8" font-family="Times,serif" font-size="14.00" fill="white">1,559,487 row(s)/9,156 chunk(s)</text>
</g>
<!-- 133113157387024 -->
<g id="node15" class="node">
<title>133113157387024</title>
<g id="a_node15"><a xlink:title="Output: 1462649 rows in 64 chunks filtered: 0, 495 ms 481 µs.&#10;Operator step runtimes:&#10; LeftSideMaterialize 48 ms 349 µs&#10; RightSideMaterialize 264 ms 144 µs&#10; LeftSideTransform 0 ns&#10; RightSideTransform 0 ns&#10; LeftSidePartition 98 ms 35 µs&#10; RightSidePartition 2 ms 541 µs&#10; LeftSideSortBuckets 45 ms 629 µs&#10; RightSideSortBuckets 4 ms 390 µs&#10; GatherRowIds 3 µs 178 ns&#10; FindJoinPartner 29 ms 103 µs&#10; OutputWriting 313 µs 951 ns.&#10;Radix bits: 8.">
<polygon fill="none" stroke="white" stroke-width="8" points="472,-1097 187,-1097 187,-1028 472,-1028 472,-1097"/>
<text text-anchor="middle" x="329.5" y="-1081.8" font-family="Times,serif" font-size="14.00" fill="white">JoinSimdSortMerge (Semi Reduction)</text>
<text text-anchor="middle" x="329.5" y="-1066.8" font-family="Times,serif" font-size="14.00" fill="white">o_orderkey = l_orderkey</text>
<text text-anchor="middle" x="329.5" y="-1035.8" font-family="Times,serif" font-size="14.00" fill="white">495 ms 481 µs</text>
</a>
</g>
</g>
<!-- 133113157386704&#45;&gt;133113157387024 -->
<g id="edge6" class="edge">
<title>133113157386704&#45;&gt;133113157387024</title>
<path fill="none" stroke="white" d="M360.46,-962.03C348.52,-971.19 337.89,-982.1 330.5,-995 326.54,-1001.9 324.65,-1009.91 323.98,-1017.92"/>
<polygon fill="white" stroke="white" points="323.74,-1027.99 327.48,-1018.08 323.98,-1018 323.74,-1027.99"/>
<text text-anchor="middle" x="446.5" y="-998.8" font-family="Times,serif" font-size="14.00" fill="white">1,559,487 row(s)/9,156 chunk(s)</text>
</g>
<!-- 133113157386384 -->
<g id="node7" class="node">
<title>133113157386384</title>
<g id="a_node7"><a xlink:title="Output: 8224974 rows in 9156 chunks filtered: 0, 56 ms 426 µs.&#10;Chunks: 0 skipped with no results, &#10;0 skipped with all matching, 0 scanned using binary search.">
<polygon fill="none" stroke="white" stroke-width="2.64" points="566,-812 339,-812 339,-728 566,-728 566,-812"/>
<text text-anchor="middle" x="452.5" y="-796.8" font-family="Times,serif" font-size="14.00" fill="white">TableScan</text>
<text text-anchor="middle" x="452.5" y="-781.8" font-family="Times,serif" font-size="14.00" fill="white">Impl: ColumnVsColumn</text>
<text text-anchor="middle" x="452.5" y="-766.8" font-family="Times,serif" font-size="14.00" fill="white">l_receiptdate &gt; l_commitdate</text>
<text text-anchor="middle" x="452.5" y="-735.8" font-family="Times,serif" font-size="14.00" fill="white">56 ms 426 µs</text>
</a>
</g>
</g>
<!-- 133113157386384&#45;&gt;133113157386704 -->
<g id="edge7" class="edge">
<title>133113157386384&#45;&gt;133113157386704</title>
<path fill="none" stroke="white" d="M452.5,-812.23C452.5,-829.47 452.5,-849.68 452.5,-867.85"/>
<polygon fill="white" stroke="white" points="449,-867.99 452.5,-877.99 456,-867.99 449,-867.99"/>
<text text-anchor="middle" x="568.5" y="-833.8" font-family="Times,serif" font-size="14.00" fill="white">8,224,974 row(s)/9,156 chunk(s)</text>
</g>
<!-- 133113269851920 -->
<g id="node8" class="node">
<title>133113269851920</title>
<g id="a_node8"><a xlink:title="Output: 13005788 rows in 9156 chunks filtered: 0, 18 ms 302 µs.">
<polygon fill="none" stroke="white" points="509,-677 396,-677 396,-623 509,-623 509,-677"/>
<text text-anchor="middle" x="452.5" y="-661.8" font-family="Times,serif" font-size="14.00" fill="white">Validate</text>
<text text-anchor="middle" x="452.5" y="-630.8" font-family="Times,serif" font-size="14.00" fill="white">18 ms 302 µs</text>
</a>
</g>
</g>
<!-- 133113269851920&#45;&gt;133113157386384 -->
<g id="edge8" class="edge">
<title>133113269851920&#45;&gt;133113157386384</title>
<path fill="none" stroke="white" d="M452.5,-677.19C452.5,-689.1 452.5,-703.63 452.5,-717.58"/>
<polygon fill="white" stroke="white" points="449,-717.59 452.5,-727.59 456,-717.59 449,-717.59"/>
<text text-anchor="middle" x="573" y="-698.8" font-family="Times,serif" font-size="14.00" fill="white">13,005,788 row(s)/9,156 chunk(s)</text>
</g>
<!-- 133113157386064 -->
<g id="node9" class="node">
<title>133113157386064</title>
<g id="a_node9"><a xlink:title="Output: 13005788 rows in 9156 chunks filtered: 0, 36 ms 237 µs.&#10;Chunks: 0 skipped with no results, &#10;0 skipped with all matching, 0 scanned using binary search.">
<polygon fill="none" stroke="white" stroke-width="1.55" points="668.5,-572 236.5,-572 236.5,-473 668.5,-473 668.5,-572"/>
<text text-anchor="middle" x="452.5" y="-556.8" font-family="Times,serif" font-size="14.00" fill="white">TableScan</text>
<text text-anchor="middle" x="452.5" y="-541.8" font-family="Times,serif" font-size="14.00" fill="white">Impl: ColumnBetween</text>
<text text-anchor="middle" x="452.5" y="-526.8" font-family="Times,serif" font-size="14.00" fill="white">l_receiptdate BETWEEN UPPER EXCLUSIVE &#39;1995&#45;01&#45;01&#39;</text>
<text text-anchor="middle" x="452.5" y="-511.8" font-family="Times,serif" font-size="14.00" fill="white">AND &#39;1996&#45;01&#45;01&#39;</text>
<text text-anchor="middle" x="452.5" y="-480.8" font-family="Times,serif" font-size="14.00" fill="white">36 ms 237 µs</text>
</a>
</g>
</g>
<!-- 133113157386064&#45;&gt;133113269851920 -->
<g id="edge9" class="edge">
<title>133113157386064&#45;&gt;133113269851920</title>
<path fill="none" stroke="white" d="M452.5,-572.02C452.5,-585.49 452.5,-599.89 452.5,-612.54"/>
<polygon fill="white" stroke="white" points="449,-612.7 452.5,-622.7 456,-612.7 449,-612.7"/>
<text text-anchor="middle" x="573" y="-593.8" font-family="Times,serif" font-size="14.00" fill="white">13,005,788 row(s)/9,156 chunk(s)</text>
</g>
<!-- 133113269851664 -->
<g id="node10" class="node">
<title>133113269851664</title>
<g id="a_node10"><a xlink:title="Output: 85720568 rows in 9156 chunks filtered: 0, 10 ms 961 µs.">
<polygon fill="none" stroke="white" points="509,-422 396,-422 396,-368 509,-368 509,-422"/>
<text text-anchor="middle" x="452.5" y="-406.8" font-family="Times,serif" font-size="14.00" fill="white">UnionAll</text>
<text text-anchor="middle" x="452.5" y="-375.8" font-family="Times,serif" font-size="14.00" fill="white">10 ms 961 µs</text>
</a>
</g>
</g>
<!-- 133113269851664&#45;&gt;133113157386064 -->
<g id="edge10" class="edge">
<title>133113269851664&#45;&gt;133113157386064</title>
<path fill="none" stroke="white" stroke-width="4.91" d="M452.5,-422C452.5,-433.85 452.5,-448.39 452.5,-462.66"/>
<polygon fill="white" stroke="white" stroke-width="4.91" points="448.2,-462.96 452.5,-472.96 456.8,-462.96 448.2,-462.96"/>
<text text-anchor="middle" x="573" y="-443.8" font-family="Times,serif" font-size="14.00" fill="white">85,720,568 row(s)/9,156 chunk(s)</text>
</g>
<!-- 133113157385424 -->
<g id="node11" class="node">
<title>133113157385424</title>
<g id="a_node11"><a xlink:title="Output: 42860070 rows in 4578 chunks filtered: 0, 55 ms 129 µs.&#10;Chunks: 0 skipped with no results, &#10;0 skipped with all matching, 0 scanned using binary search.">
<polygon fill="none" stroke="white" stroke-width="2.58" points="401,-317 232,-317 232,-233 401,-233 401,-317"/>
<text text-anchor="middle" x="316.5" y="-301.8" font-family="Times,serif" font-size="14.00" fill="white">TableScan</text>
<text text-anchor="middle" x="316.5" y="-286.8" font-family="Times,serif" font-size="14.00" fill="white">Impl: ColumnVsValue</text>
<text text-anchor="middle" x="316.5" y="-271.8" font-family="Times,serif" font-size="14.00" fill="white">l_shipmode = &#39;AIR&#39;</text>
<text text-anchor="middle" x="316.5" y="-240.8" font-family="Times,serif" font-size="14.00" fill="white">55 ms 129 µs</text>
</a>
</g>
</g>
<!-- 133113157385424&#45;&gt;133113269851664 -->
<g id="edge11" class="edge">
<title>133113157385424&#45;&gt;133113269851664</title>
<path fill="none" stroke="white" stroke-width="3.2" d="M309.22,-317.29C309.29,-328.82 311.59,-340.72 318.5,-350 334.32,-371.24 360.69,-382.38 385.87,-388.17"/>
<polygon fill="white" stroke="white" stroke-width="3.2" points="386.01,-388.2 385.31,-391.63 395.8,-390.21 386.01,-388.2"/>
<text text-anchor="middle" x="439" y="-338.8" font-family="Times,serif" font-size="14.00" fill="white">42,860,070 row(s)/4,578 chunk(s)</text>
</g>
<!-- 133103095889936 -->
<g id="node12" class="node">
<title>133103095889936</title>
<g id="a_node12"><a xlink:title="Output: 300005811 rows in 4578 chunks filtered: 0, 25 ms 704 µs.">
<polygon fill="none" stroke="white" points="516,-148 385,-148 385,-34 516,-34 516,-148"/>
<text text-anchor="middle" x="450.5" y="-132.8" font-family="Times,serif" font-size="14.00" fill="white">GetTable</text>
<text text-anchor="middle" x="450.5" y="-117.8" font-family="Times,serif" font-size="14.00" fill="white">(lineitem)</text>
<text text-anchor="middle" x="450.5" y="-102.8" font-family="Times,serif" font-size="14.00" fill="white">pruned:</text>
<text text-anchor="middle" x="450.5" y="-87.8" font-family="Times,serif" font-size="14.00" fill="white">0/4578 chunk(s)</text>
<text text-anchor="middle" x="450.5" y="-72.8" font-family="Times,serif" font-size="14.00" fill="white">11/16 column(s)</text>
<text text-anchor="middle" x="450.5" y="-41.8" font-family="Times,serif" font-size="14.00" fill="white">25 ms 704 µs</text>
</a>
</g>
</g>
<!-- 133103095889936&#45;&gt;133113157385424 -->
<g id="edge12" class="edge">
<title>133103095889936&#45;&gt;133113157385424</title>
<path fill="none" stroke="white" stroke-width="8" d="M384.94,-126.83C358.22,-144.81 330.19,-169.43 315.5,-200 312.17,-206.92 310.45,-214.65 309.77,-222.43"/>
<polygon fill="white" stroke="white" stroke-width="8" points="302.77,-222.39 309.43,-232.62 316.76,-222.86 302.77,-222.39"/>
<text text-anchor="middle" x="440.5" y="-203.8" font-family="Times,serif" font-size="14.00" fill="white">300,005,811 row(s)/4,578 chunk(s)</text>
</g>
<!-- 133113157385744 -->
<g id="node13" class="node">
<title>133113157385744</title>
<g id="a_node13"><a xlink:title="Output: 42860498 rows in 4578 chunks filtered: 0, 54 ms 602 µs.&#10;Chunks: 0 skipped with no results, &#10;0 skipped with all matching, 0 scanned using binary search.">
<polygon fill="none" stroke="white" stroke-width="2.56" points="675.5,-317 497.5,-317 497.5,-233 675.5,-233 675.5,-317"/>
<text text-anchor="middle" x="586.5" y="-301.8" font-family="Times,serif" font-size="14.00" fill="white">TableScan</text>
<text text-anchor="middle" x="586.5" y="-286.8" font-family="Times,serif" font-size="14.00" fill="white">Impl: ColumnVsValue</text>
<text text-anchor="middle" x="586.5" y="-271.8" font-family="Times,serif" font-size="14.00" fill="white">l_shipmode = &#39;TRUCK&#39;</text>
<text text-anchor="middle" x="586.5" y="-240.8" font-family="Times,serif" font-size="14.00" fill="white">54 ms 602 µs</text>
</a>
</g>
</g>
<!-- 133103095889936&#45;&gt;133113157385744 -->
<g id="edge13" class="edge">
<title>133103095889936&#45;&gt;133113157385744</title>
<path fill="none" stroke="white" stroke-width="8" d="M490.53,-148.11C500.97,-160.3 512.87,-172.41 525.5,-182 541.03,-193.79 552.76,-185.24 565.5,-200 571.27,-206.68 575.46,-214.85 578.5,-223.29"/>
<polygon fill="white" stroke="white" stroke-width="8" points="571.82,-225.39 581.47,-232.87 585.2,-221.24 571.82,-225.39"/>
<text text-anchor="middle" x="700.5" y="-203.8" font-family="Times,serif" font-size="14.00" fill="white">300,005,811 row(s)/4,578 chunk(s)</text>
</g>
<!-- 133113157385744&#45;&gt;133113269851664 -->
<g id="edge14" class="edge">
<title>133113157385744&#45;&gt;133113269851664</title>
<path fill="none" stroke="white" stroke-width="3.2" d="M580.63,-317.02C577.25,-328.81 571.91,-340.92 563.5,-350 551.49,-362.96 535.16,-372.17 518.73,-378.69"/>
<polygon fill="white" stroke="white" stroke-width="3.2" points="509.07,-382.23 519.67,-382.07 518.47,-378.79 509.07,-382.23"/>
<text text-anchor="middle" x="694" y="-338.8" font-family="Times,serif" font-size="14.00" fill="white">42,860,498 row(s)/4,578 chunk(s)</text>
</g>
<!-- 133113269852688 -->
<g id="node14" class="node">
<title>133113269852688</title>
<g id="a_node14"><a xlink:title="Output: 1462649 rows in 64 chunks filtered: 0, 2 ms 114 µs.">
<polygon fill="none" stroke="white" points="397.5,-1202 293.5,-1202 293.5,-1148 397.5,-1148 397.5,-1202"/>
<text text-anchor="middle" x="345.5" y="-1186.8" font-family="Times,serif" font-size="14.00" fill="white">Validate</text>
<text text-anchor="middle" x="345.5" y="-1155.8" font-family="Times,serif" font-size="14.00" fill="white">2 ms 114 µs</text>
</a>
</g>
</g>
<!-- 133113269852688&#45;&gt;133113157387344 -->
<g id="edge15" class="edge">
<title>133113269852688&#45;&gt;133113157387344</title>
<path fill="none" stroke="white" d="M343.25,-1202.1C343.57,-1213.16 345.75,-1225.62 352.5,-1235 355.4,-1239.03 358.71,-1242.76 362.31,-1246.21"/>
<polygon fill="white" stroke="white" points="370.1,-1252.89 364.79,-1243.72 362.51,-1246.38 370.1,-1252.89"/>
<text text-anchor="middle" x="457.5" y="-1223.8" font-family="Times,serif" font-size="14.00" fill="white">1,462,649 row(s)/64 chunk(s)</text>
</g>
<!-- 133113157387024&#45;&gt;133113269852688 -->
<g id="edge16" class="edge">
<title>133113157387024&#45;&gt;133113269852688</title>
<path fill="none" stroke="white" d="M334.39,-1097.25C336.24,-1110.07 338.37,-1124.73 340.25,-1137.77"/>
<polygon fill="white" stroke="white" points="336.81,-1138.42 341.71,-1147.81 343.74,-1137.41 336.81,-1138.42"/>
<text text-anchor="middle" x="444.5" y="-1118.8" font-family="Times,serif" font-size="14.00" fill="white">1,462,649 row(s)/64 chunk(s)</text>
</g>
<!-- 133103095890384 -->
<g id="node16" class="node">
<title>133103095890384</title>
<g id="a_node16"><a xlink:title="Output: 75000000 rows in 1145 chunks filtered: 0, 7 ms 239 µs.">
<polygon fill="none" stroke="white" points="131,-977 0,-977 0,-863 131,-863 131,-977"/>
<text text-anchor="middle" x="65.5" y="-961.8" font-family="Times,serif" font-size="14.00" fill="white">GetTable</text>
<text text-anchor="middle" x="65.5" y="-946.8" font-family="Times,serif" font-size="14.00" fill="white">(orders)</text>
<text text-anchor="middle" x="65.5" y="-931.8" font-family="Times,serif" font-size="14.00" fill="white">pruned:</text>
<text text-anchor="middle" x="65.5" y="-916.8" font-family="Times,serif" font-size="14.00" fill="white">0/1145 chunk(s)</text>
<text text-anchor="middle" x="65.5" y="-901.8" font-family="Times,serif" font-size="14.00" fill="white">7/9 column(s)</text>
<text text-anchor="middle" x="65.5" y="-870.8" font-family="Times,serif" font-size="14.00" fill="white">7 ms 239 µs</text>
</a>
</g>
</g>
<!-- 133103095890384&#45;&gt;133113157387024 -->
<g id="edge17" class="edge">
<title>133103095890384&#45;&gt;133113157387024</title>
<path fill="none" stroke="white" stroke-width="4.58" d="M64.78,-977.02C67.19,-989.2 71.91,-1001.09 80.5,-1010 95.24,-1025.3 134.1,-1036.37 176.85,-1044.24"/>
<polygon fill="white" stroke="white" stroke-width="4.58" points="177.06,-1044.27 176.36,-1048.22 186.9,-1046.02 177.06,-1044.27"/>
<text text-anchor="middle" x="201" y="-998.8" font-family="Times,serif" font-size="14.00" fill="white">75,000,000 row(s)/1,145 chunk(s)</text>
</g>
<!-- 0 -->
<g id="node17" class="node">
<title>0</title>
<polygon fill="none" stroke="white" points="534.5,-0.5 534.5,-181.5 880.5,-181.5 880.5,-0.5 534.5,-0.5"/>
<text text-anchor="middle" x="707.5" y="-166.3" font-family="Times,serif" font-size="14.00" fill="white">Total by operator</text>
<polyline fill="none" stroke="white" points="534.5,-158.5 880.5,-158.5 "/>
<text text-anchor="end" x="688.5" y="-143.3" font-family="Times,serif" font-size="14.00" fill="white">JoinSimdSortMerge </text>
<text text-anchor="end" x="688.5" y="-128.3" font-family="Times,serif" font-size="14.00" fill="white"> AggregateHash </text>
<text text-anchor="end" x="688.5" y="-113.3" font-family="Times,serif" font-size="14.00" fill="white"> TableScan </text>
<text text-anchor="end" x="688.5" y="-98.3" font-family="Times,serif" font-size="14.00" fill="white"> GetTable </text>
<text text-anchor="end" x="688.5" y="-83.3" font-family="Times,serif" font-size="14.00" fill="white"> Projection </text>
<text text-anchor="end" x="688.5" y="-68.3" font-family="Times,serif" font-size="14.00" fill="white"> Validate </text>
<text text-anchor="end" x="688.5" y="-53.3" font-family="Times,serif" font-size="14.00" fill="white"> UnionAll </text>
<text text-anchor="end" x="688.5" y="-38.3" font-family="Times,serif" font-size="14.00" fill="white"> Sort </text>
<text text-anchor="end" x="688.5" y="-23.3" font-family="Times,serif" font-size="14.00" fill="white"> Alias </text>
<text text-anchor="end" x="688.5" y="-8.3" font-family="Times,serif" font-size="14.00" fill="white">total</text>
<polyline fill="none" stroke="white" points="696.5,-0.5 696.5,-158.5 "/>
<text text-anchor="start" x="704.5" y="-143.3" font-family="Times,serif" font-size="14.00" fill="white">827 ms 944 µs </text>
<text text-anchor="start" x="704.5" y="-128.3" font-family="Times,serif" font-size="14.00" fill="white"> 353 ms 840 µs </text>
<text text-anchor="start" x="704.5" y="-113.3" font-family="Times,serif" font-size="14.00" fill="white"> 244 ms 844 µs </text>
<text text-anchor="start" x="704.5" y="-98.3" font-family="Times,serif" font-size="14.00" fill="white"> 32 ms 944 µs </text>
<text text-anchor="start" x="704.5" y="-83.3" font-family="Times,serif" font-size="14.00" fill="white"> 32 ms 605 µs </text>
<text text-anchor="start" x="704.5" y="-68.3" font-family="Times,serif" font-size="14.00" fill="white"> 20 ms 416 µs </text>
<text text-anchor="start" x="704.5" y="-53.3" font-family="Times,serif" font-size="14.00" fill="white"> 10 ms 961 µs </text>
<text text-anchor="start" x="704.5" y="-38.3" font-family="Times,serif" font-size="14.00" fill="white"> 25 µs 5 ns </text>
<text text-anchor="start" x="704.5" y="-23.3" font-family="Times,serif" font-size="14.00" fill="white"> 2 µs 714 ns </text>
<text text-anchor="start" x="704.5" y="-8.3" font-family="Times,serif" font-size="14.00" fill="white"> 1 s 524 ms </text>
<polyline fill="none" stroke="white" points="827.5,-0.5 827.5,-158.5 "/>
<text text-anchor="start" x="835.5" y="-143.3" font-family="Times,serif" font-size="14.00" fill="white">54 %</text>
<text text-anchor="start" x="835.5" y="-128.3" font-family="Times,serif" font-size="14.00" fill="white">23 %</text>
<text text-anchor="start" x="835.5" y="-113.3" font-family="Times,serif" font-size="14.00" fill="white">16 %</text>
<text text-anchor="start" x="835.5" y="-98.3" font-family="Times,serif" font-size="14.00" fill="white">2 %</text>
<text text-anchor="start" x="835.5" y="-83.3" font-family="Times,serif" font-size="14.00" fill="white">2 %</text>
<text text-anchor="start" x="835.5" y="-68.3" font-family="Times,serif" font-size="14.00" fill="white">1 %</text>
<text text-anchor="start" x="835.5" y="-53.3" font-family="Times,serif" font-size="14.00" fill="white">1 %</text>
<text text-anchor="start" x="835.5" y="-38.3" font-family="Times,serif" font-size="14.00" fill="white">0 %</text>
<text text-anchor="start" x="835.5" y="-23.3" font-family="Times,serif" font-size="14.00" fill="white">0 %</text>
<text text-anchor="start" x="835.5" y="-8.3" font-family="Times,serif" font-size="14.00" fill="white"> </text>
</g>
</g>
</svg>
