<?xml version="1.0" encoding="UTF-8" standalone="no"?>
<!DOCTYPE svg PUBLIC "-//W3C//DTD SVG 1.1//EN"
 "http://www.w3.org/Graphics/SVG/1.1/DTD/svg11.dtd">
<!-- Generated by graphviz version 2.43.0 (0)
 -->
<!-- Title: G Pages: 1 -->
<svg width="1168pt" height="2303pt"
 viewBox="0.00 0.00 1167.50 2303.00" xmlns="http://www.w3.org/2000/svg" xmlns:xlink="http://www.w3.org/1999/xlink">
<g id="graph0" class="graph" transform="scale(1 1) rotate(0) translate(4 2299)">
<title>G</title>
<polygon fill="black" stroke="transparent" points="-4,4 -4,-2299 1163.5,-2299 1163.5,4 -4,4"/>
<text text-anchor="middle" x="319.5" y="-2279.8" font-family="Times,serif" font-size="14.00" fill="white">For tooltips with advanced information, hover your mouse over vertices or edge labels.</text>
<!-- 133119296435984 -->
<g id="node1" class="node">
<title>133119296435984</title>
<g id="a_node1"><a xlink:title="Output: 100 rows in 1 chunk filtered: 0, 12 µs 10 ns.&#10;Operator step runtimes:&#10; ForwardUnmodifiedColumns 3 µs 680 ns&#10; EvaluateNewColumns 412 ns&#10; BuildOutput 4 µs 788 ns.">
<polygon fill="none" stroke="white" points="524,-2240 425,-2240 425,-2186 524,-2186 524,-2240"/>
<text text-anchor="middle" x="474.5" y="-2224.8" font-family="Times,serif" font-size="14.00" fill="white">Projection</text>
<text text-anchor="middle" x="474.5" y="-2193.8" font-family="Times,serif" font-size="14.00" fill="white">12 µs 10 ns</text>
</a>
</g>
</g>
<!-- 133109912182544 -->
<g id="node2" class="node">
<title>133109912182544</title>
<g id="a_node2"><a xlink:title="Output: 100 rows in 1 chunk filtered: 0, 25 µs 459 ns.">
<polygon fill="none" stroke="white" points="528.5,-2135 420.5,-2135 420.5,-2081 528.5,-2081 528.5,-2135"/>
<text text-anchor="middle" x="474.5" y="-2119.8" font-family="Times,serif" font-size="14.00" fill="white">Limit</text>
<text text-anchor="middle" x="474.5" y="-2088.8" font-family="Times,serif" font-size="14.00" fill="white">25 µs 459 ns</text>
</a>
</g>
</g>
<!-- 133109912182544&#45;&gt;133119296435984 -->
<g id="edge1" class="edge">
<title>133109912182544&#45;&gt;133119296435984</title>
<path fill="none" stroke="white" d="M474.5,-2135.26C474.5,-2147.49 474.5,-2162.24 474.5,-2175.52"/>
<polygon fill="white" stroke="white" points="471,-2175.79 474.5,-2185.79 478,-2175.79 471,-2175.79"/>
<text text-anchor="middle" x="552.5" y="-2156.8" font-family="Times,serif" font-size="14.00" fill="white">100 row(s)/1 chunk(s)</text>
</g>
<!-- 133119296436304 -->
<g id="node3" class="node">
<title>133119296436304</title>
<g id="a_node3"><a xlink:title="Output: 23772 rows in 1 chunk filtered: 0, 41 ms 739 µs.&#10;Operator step runtimes:&#10; MaterializeSortColumns 13 ms 571 µs&#10; Sort 24 ms 587 µs&#10; TemporaryResultWriting 179 µs 178 ns&#10; WriteOutput 2 ms 800 µs.">
<polygon fill="none" stroke="white" stroke-width="6.89" points="531,-2030 418,-2030 418,-1976 531,-1976 531,-2030"/>
<text text-anchor="middle" x="474.5" y="-2014.8" font-family="Times,serif" font-size="14.00" fill="white">Sort</text>
<text text-anchor="middle" x="474.5" y="-1983.8" font-family="Times,serif" font-size="14.00" fill="white">41 ms 739 µs</text>
</a>
</g>
</g>
<!-- 133119296436304&#45;&gt;133109912182544 -->
<g id="edge2" class="edge">
<title>133119296436304&#45;&gt;133109912182544</title>
<path fill="none" stroke="white" d="M474.5,-2030.26C474.5,-2042.49 474.5,-2057.24 474.5,-2070.52"/>
<polygon fill="white" stroke="white" points="471,-2070.79 474.5,-2080.79 478,-2070.79 471,-2070.79"/>
<text text-anchor="middle" x="563.5" y="-2051.8" font-family="Times,serif" font-size="14.00" fill="white">23,772 row(s)/1 chunk(s)</text>
</g>
<!-- 133119296435664 -->
<g id="node4" class="node">
<title>133119296435664</title>
<g id="a_node4"><a xlink:title="Output: 23772 rows in 25 chunks filtered: 0, 23 ms 256 µs.&#10;Operator step runtimes:&#10; LeftSideMaterialize 7 ms 496 µs&#10; RightSideMaterialize 317 µs 685 ns&#10; LeftSideTransform 0 ns&#10; RightSideTransform 0 ns&#10; LeftSidePartition 455 µs 203 ns&#10; RightSidePartition 334 µs 611 ns&#10; LeftSideSortBuckets 782 µs 918 ns&#10; RightSideSortBuckets 766 µs 103 ns&#10; GatherRowIds 980 ns&#10; FindJoinPartner 12 ms 281 µs&#10; OutputWriting 684 µs 349 ns.&#10;Radix bits: 8.">
<polygon fill="none" stroke="white" stroke-width="5.45" points="614,-1925 335,-1925 335,-1841 614,-1841 614,-1925"/>
<text text-anchor="middle" x="474.5" y="-1909.8" font-family="Times,serif" font-size="14.00" fill="white">JoinSimdSortMerge (Semi)</text>
<text text-anchor="middle" x="474.5" y="-1894.8" font-family="Times,serif" font-size="14.00" fill="white">ps_supplycost = MIN(ps_supplycost)</text>
<text text-anchor="middle" x="474.5" y="-1879.8" font-family="Times,serif" font-size="14.00" fill="white">AND p_partkey = ps_partkey</text>
<text text-anchor="middle" x="474.5" y="-1848.8" font-family="Times,serif" font-size="14.00" fill="white">23 ms 256 µs</text>
</a>
</g>
</g>
<!-- 133119296435664&#45;&gt;133119296436304 -->
<g id="edge3" class="edge">
<title>133119296435664&#45;&gt;133119296436304</title>
<path fill="none" stroke="white" d="M474.5,-1925.27C474.5,-1938.36 474.5,-1952.72 474.5,-1965.45"/>
<polygon fill="white" stroke="white" points="471,-1965.69 474.5,-1975.69 478,-1965.69 471,-1965.69"/>
<text text-anchor="middle" x="568" y="-1946.8" font-family="Times,serif" font-size="14.00" fill="white">23,772 row(s)/25 chunk(s)</text>
</g>
<!-- 133119296434704 -->
<g id="node5" class="node">
<title>133119296434704</title>
<g id="a_node5"><a xlink:title="Output: 32132 rows in 57 chunks filtered: 0, 18 ms 894 µs.&#10;Operator step runtimes:&#10; LeftSideMaterialize 7 ms 249 µs&#10; RightSideMaterialize 4 ms 497 µs&#10; LeftSideTransform 0 ns&#10; RightSideTransform 0 ns&#10; LeftSidePartition 2 ms 90 µs&#10; RightSidePartition 1 ms 670 µs&#10; LeftSideSortBuckets 679 µs 220 ns&#10; RightSideSortBuckets 682 µs 415 ns&#10; GatherRowIds 1 µs 397 ns&#10; FindJoinPartner 930 µs 547 ns&#10; OutputWriting 904 µs 781 ns.&#10;Radix bits: 8.">
<polygon fill="none" stroke="white" stroke-width="4.93" points="439,-1790 228,-1790 228,-1721 439,-1721 439,-1790"/>
<text text-anchor="middle" x="333.5" y="-1774.8" font-family="Times,serif" font-size="14.00" fill="white">JoinSimdSortMerge (Inner)</text>
<text text-anchor="middle" x="333.5" y="-1759.8" font-family="Times,serif" font-size="14.00" fill="white">ps_partkey = p_partkey</text>
<text text-anchor="middle" x="333.5" y="-1728.8" font-family="Times,serif" font-size="14.00" fill="white">18 ms 894 µs</text>
</a>
</g>
</g>
<!-- 133119296434704&#45;&gt;133119296435664 -->
<g id="edge4" class="edge">
<title>133119296434704&#45;&gt;133119296435664</title>
<path fill="none" stroke="white" d="M362.09,-1790.18C371.94,-1801.08 383.31,-1812.95 394.5,-1823 398.78,-1826.84 403.29,-1830.68 407.92,-1834.46"/>
<polygon fill="white" stroke="white" points="407.97,-1834.5 405.78,-1837.23 415.78,-1840.74 407.97,-1834.5"/>
<text text-anchor="middle" x="488" y="-1811.8" font-family="Times,serif" font-size="14.00" fill="white">32,132 row(s)/57 chunk(s)</text>
</g>
<!-- 133119296434384 -->
<g id="node6" class="node">
<title>133119296434384</title>
<g id="a_node6"><a xlink:title="Output: 32132 rows in 58 chunks filtered: 0, 13 ms 861 µs.&#10;Operator step runtimes:&#10; LeftSideMaterialize 5 ms 750 µs&#10; RightSideMaterialize 1 ms 173 µs&#10; LeftSideTransform 0 ns&#10; RightSideTransform 0 ns&#10; LeftSidePartition 1 ms 336 µs&#10; RightSidePartition 1 ms 949 µs&#10; LeftSideSortBuckets 698 µs 509 ns&#10; RightSideSortBuckets 662 µs 100 ns&#10; GatherRowIds 1 µs 425 ns&#10; FindJoinPartner 1 ms 324 µs&#10; OutputWriting 745 µs 781 ns.&#10;Radix bits: 8.">
<polygon fill="none" stroke="white" stroke-width="4.17" points="439,-1601 228,-1601 228,-1532 439,-1532 439,-1601"/>
<text text-anchor="middle" x="333.5" y="-1585.8" font-family="Times,serif" font-size="14.00" fill="white">JoinSimdSortMerge (Inner)</text>
<text text-anchor="middle" x="333.5" y="-1570.8" font-family="Times,serif" font-size="14.00" fill="white">ps_suppkey = s_suppkey</text>
<text text-anchor="middle" x="333.5" y="-1539.8" font-family="Times,serif" font-size="14.00" fill="white">13 ms 861 µs</text>
</a>
</g>
</g>
<!-- 133119296434384&#45;&gt;133119296434704 -->
<g id="edge5" class="edge">
<title>133119296434384&#45;&gt;133119296434704</title>
<path fill="none" stroke="white" d="M333.5,-1601.36C333.5,-1631.95 333.5,-1677.13 333.5,-1710.5"/>
<polygon fill="white" stroke="white" points="333.5,-1710.89 330,-1710.89 333.5,-1720.89 333.5,-1710.89"/>
<text text-anchor="middle" x="427" y="-1657.3" font-family="Times,serif" font-size="14.00" fill="white">32,132 row(s)/58 chunk(s)</text>
</g>
<!-- 133109912180496 -->
<g id="node7" class="node">
<title>133109912180496</title>
<g id="a_node7"><a xlink:title="Output: 32132 rows in 58 chunks filtered: 0, 548 µs 45 ns.">
<polygon fill="none" stroke="white" points="538.5,-1481 430.5,-1481 430.5,-1427 538.5,-1427 538.5,-1481"/>
<text text-anchor="middle" x="484.5" y="-1465.8" font-family="Times,serif" font-size="14.00" fill="white">Validate</text>
<text text-anchor="middle" x="484.5" y="-1434.8" font-family="Times,serif" font-size="14.00" fill="white">548 µs 45 ns</text>
</a>
</g>
</g>
<!-- 133109912180496&#45;&gt;133119296434384 -->
<g id="edge6" class="edge">
<title>133109912180496&#45;&gt;133119296434384</title>
<path fill="none" stroke="white" d="M448.72,-1481.19C430.47,-1494.54 407.9,-1511.05 387.59,-1525.92"/>
<polygon fill="white" stroke="white" points="387.41,-1526.05 385.34,-1523.22 379.34,-1531.95 387.41,-1526.05"/>
<text text-anchor="middle" x="516" y="-1502.8" font-family="Times,serif" font-size="14.00" fill="white">32,132 row(s)/58 chunk(s)</text>
</g>
<!-- 133119296434064 -->
<g id="node8" class="node">
<title>133119296434064</title>
<g id="a_node8"><a xlink:title="Output: 32132 rows in 58 chunks filtered: 0, 26 ms 967 µs.&#10;Operator step runtimes:&#10; LeftSideMaterialize 14 ms 976 µs&#10; RightSideMaterialize 1 ms 682 µs&#10; LeftSideTransform 0 ns&#10; RightSideTransform 0 ns&#10; LeftSidePartition 2 ms 433 µs&#10; RightSidePartition 3 ms 902 µs&#10; LeftSideSortBuckets 749 µs 682 ns&#10; RightSideSortBuckets 830 µs 400 ns&#10; GatherRowIds 2 µs 943 ns&#10; FindJoinPartner 1 ms 194 µs&#10; OutputWriting 866 µs 301 ns.&#10;Radix bits: 8.">
<polygon fill="none" stroke="white" stroke-width="5.81" points="642,-1376 357,-1376 357,-1307 642,-1307 642,-1376"/>
<text text-anchor="middle" x="499.5" y="-1360.8" font-family="Times,serif" font-size="14.00" fill="white">JoinSimdSortMerge (Semi Reduction)</text>
<text text-anchor="middle" x="499.5" y="-1345.8" font-family="Times,serif" font-size="14.00" fill="white">ps_suppkey = s_suppkey</text>
<text text-anchor="middle" x="499.5" y="-1314.8" font-family="Times,serif" font-size="14.00" fill="white">26 ms 967 µs</text>
</a>
</g>
</g>
<!-- 133119296434064&#45;&gt;133109912180496 -->
<g id="edge7" class="edge">
<title>133119296434064&#45;&gt;133109912180496</title>
<path fill="none" stroke="white" d="M494.92,-1376.25C493.18,-1389.07 491.19,-1403.73 489.42,-1416.77"/>
<polygon fill="white" stroke="white" points="485.93,-1416.43 488.05,-1426.81 492.87,-1417.37 485.93,-1416.43"/>
<text text-anchor="middle" x="585" y="-1397.8" font-family="Times,serif" font-size="14.00" fill="white">32,132 row(s)/58 chunk(s)</text>
</g>
<!-- 133119296431504 -->
<g id="node9" class="node">
<title>133119296431504</title>
<g id="a_node9"><a xlink:title="Output: 160700 rows in 256 chunks filtered: 0, 65 ms 490 µs.&#10;Operator step runtimes:&#10; LeftSideMaterialize 33 ms 834 µs&#10; RightSideMaterialize 10 ms 851 µs&#10; LeftSideTransform 0 ns&#10; RightSideTransform 0 ns&#10; LeftSidePartition 2 ms 401 µs&#10; RightSidePartition 3 ms 672 µs&#10; LeftSideSortBuckets 9 ms 224 µs&#10; RightSideSortBuckets 962 µs 280 ns&#10; GatherRowIds 3 µs 418 ns&#10; FindJoinPartner 1 ms 517 µs&#10; OutputWriting 1 ms 261 µs.&#10;Radix bits: 8.">
<polygon fill="none" stroke="white" stroke-width="8" points="740,-1256 455,-1256 455,-1187 740,-1187 740,-1256"/>
<text text-anchor="middle" x="597.5" y="-1240.8" font-family="Times,serif" font-size="14.00" fill="white">JoinSimdSortMerge (Semi Reduction)</text>
<text text-anchor="middle" x="597.5" y="-1225.8" font-family="Times,serif" font-size="14.00" fill="white">ps_partkey = p_partkey</text>
<text text-anchor="middle" x="597.5" y="-1194.8" font-family="Times,serif" font-size="14.00" fill="white">65 ms 490 µs</text>
</a>
</g>
</g>
<!-- 133119296431504&#45;&gt;133119296434064 -->
<g id="edge8" class="edge">
<title>133119296431504&#45;&gt;133119296434064</title>
<path fill="none" stroke="white" d="M552.84,-1256.01C546.64,-1261.65 540.65,-1267.72 535.5,-1274 529.57,-1281.23 524.15,-1289.59 519.42,-1297.88"/>
<polygon fill="white" stroke="white" points="519.35,-1298.02 516.27,-1296.35 514.57,-1306.8 519.35,-1298.02"/>
<text text-anchor="middle" x="638" y="-1277.8" font-family="Times,serif" font-size="14.00" fill="white">160,700 row(s)/256 chunk(s)</text>
</g>
<!-- 133119296435344 -->
<g id="node27" class="node">
<title>133119296435344</title>
<g id="a_node27"><a xlink:title="Output: 32132 rows in 58 chunks filtered: 0, 32 ms 538 µs.&#10;Operator step runtimes:&#10; LeftSideMaterialize 15 ms 858 µs&#10; RightSideMaterialize 1 ms 731 µs&#10; LeftSideTransform 0 ns&#10; RightSideTransform 0 ns&#10; LeftSidePartition 2 ms 742 µs&#10; RightSidePartition 5 ms 384 µs&#10; LeftSideSortBuckets 699 µs 503 ns&#10; RightSideSortBuckets 756 µs 981 ns&#10; GatherRowIds 1 µs 645 ns&#10; FindJoinPartner 4 ms 148 µs&#10; OutputWriting 975 µs 606 ns.&#10;Radix bits: 8.">
<polygon fill="none" stroke="white" stroke-width="6.27" points="869,-1376 660,-1376 660,-1307 869,-1307 869,-1376"/>
<text text-anchor="middle" x="764.5" y="-1360.8" font-family="Times,serif" font-size="14.00" fill="white">JoinSimdSortMerge (Semi)</text>
<text text-anchor="middle" x="764.5" y="-1345.8" font-family="Times,serif" font-size="14.00" fill="white">ps_suppkey = s_suppkey</text>
<text text-anchor="middle" x="764.5" y="-1314.8" font-family="Times,serif" font-size="14.00" fill="white">32 ms 538 µs</text>
</a>
</g>
</g>
<!-- 133119296431504&#45;&gt;133119296435344 -->
<g id="edge9" class="edge">
<title>133119296431504&#45;&gt;133119296435344</title>
<path fill="none" stroke="white" d="M717.58,-1256.14C725.91,-1261.28 733.69,-1267.19 740.5,-1274 746.93,-1280.43 751.65,-1288.71 755.11,-1297.23"/>
<polygon fill="white" stroke="white" points="755.19,-1297.43 751.88,-1298.6 758.51,-1306.87 755.19,-1297.43"/>
<text text-anchor="middle" x="853" y="-1277.8" font-family="Times,serif" font-size="14.00" fill="white">160,700 row(s)/256 chunk(s)</text>
</g>
<!-- 133109939171344 -->
<g id="node10" class="node">
<title>133109939171344</title>
<g id="a_node10"><a xlink:title="Output: 40000000 rows in 611 chunks filtered: 0, 2 ms 555 µs.">
<polygon fill="none" stroke="white" points="658.5,-1097 536.5,-1097 536.5,-983 658.5,-983 658.5,-1097"/>
<text text-anchor="middle" x="597.5" y="-1081.8" font-family="Times,serif" font-size="14.00" fill="white">GetTable</text>
<text text-anchor="middle" x="597.5" y="-1066.8" font-family="Times,serif" font-size="14.00" fill="white">(partsupp)</text>
<text text-anchor="middle" x="597.5" y="-1051.8" font-family="Times,serif" font-size="14.00" fill="white">pruned:</text>
<text text-anchor="middle" x="597.5" y="-1036.8" font-family="Times,serif" font-size="14.00" fill="white">0/611 chunk(s)</text>
<text text-anchor="middle" x="597.5" y="-1021.8" font-family="Times,serif" font-size="14.00" fill="white">2/5 column(s)</text>
<text text-anchor="middle" x="597.5" y="-990.8" font-family="Times,serif" font-size="14.00" fill="white">2 ms 555 µs</text>
</a>
</g>
</g>
<!-- 133109939171344&#45;&gt;133119296431504 -->
<g id="edge10" class="edge">
<title>133109939171344&#45;&gt;133119296431504</title>
<path fill="none" stroke="white" stroke-width="8" d="M597.5,-1097.3C597.5,-1122.92 597.5,-1152.77 597.5,-1176.68"/>
<polygon fill="white" stroke="white" stroke-width="8" points="597.5,-1176.87 590.5,-1176.87 597.5,-1186.87 597.5,-1176.87"/>
<text text-anchor="middle" x="711.5" y="-1138.3" font-family="Times,serif" font-size="14.00" fill="white">40,000,000 row(s)/611 chunk(s)</text>
</g>
<!-- 133164909969680 -->
<g id="node11" class="node">
<title>133164909969680</title>
<g id="a_node11"><a xlink:title="Output: 40175 rows in 153 chunks filtered: 0, 353 µs 267 ns.">
<polygon fill="none" stroke="white" points="154,-1067 37,-1067 37,-1013 154,-1013 154,-1067"/>
<text text-anchor="middle" x="95.5" y="-1051.8" font-family="Times,serif" font-size="14.00" fill="white">Validate</text>
<text text-anchor="middle" x="95.5" y="-1020.8" font-family="Times,serif" font-size="14.00" fill="white">353 µs 267 ns</text>
</a>
</g>
</g>
<!-- 133164909969680&#45;&gt;133119296434704 -->
<g id="edge12" class="edge">
<title>133164909969680&#45;&gt;133119296434704</title>
<path fill="none" stroke="white" d="M92.18,-1067.11C88.04,-1102 81.5,-1165.8 81.5,-1220.5 81.5,-1220.5 81.5,-1220.5 81.5,-1567.5 81.5,-1641.26 151.98,-1689.3 218.39,-1718.2"/>
<polygon fill="white" stroke="white" points="227.72,-1722.15 219.88,-1715.03 218.52,-1718.25 227.72,-1722.15"/>
<text text-anchor="middle" x="179.5" y="-1397.8" font-family="Times,serif" font-size="14.00" fill="white">40,175 row(s)/153 chunk(s)</text>
</g>
<!-- 133164909969680&#45;&gt;133119296431504 -->
<g id="edge11" class="edge">
<title>133164909969680&#45;&gt;133119296431504</title>
<path fill="none" stroke="white" d="M101.07,-1067.03C109.03,-1097.24 126.84,-1145.85 162.5,-1169 187.26,-1185.08 386.04,-1182.96 444.67,-1187.24"/>
<polygon fill="white" stroke="white" points="454.94,-1188.26 445.34,-1183.79 444.99,-1187.27 454.94,-1188.26"/>
<text text-anchor="middle" x="260.5" y="-1138.3" font-family="Times,serif" font-size="14.00" fill="white">40,175 row(s)/153 chunk(s)</text>
</g>
<!-- 133119296431184 -->
<g id="node12" class="node">
<title>133119296431184</title>
<g id="a_node12"><a xlink:title="Output: 40175 rows in 153 chunks filtered: 0, 699 µs 220 ns.&#10;Chunks: 0 skipped with no results, &#10;0 skipped with all matching, 0 scanned using binary search.">
<polygon fill="none" stroke="white" points="191,-932 0,-932 0,-848 191,-848 191,-932"/>
<text text-anchor="middle" x="95.5" y="-916.8" font-family="Times,serif" font-size="14.00" fill="white">TableScan</text>
<text text-anchor="middle" x="95.5" y="-901.8" font-family="Times,serif" font-size="14.00" fill="white">Impl: ColumnLike</text>
<text text-anchor="middle" x="95.5" y="-886.8" font-family="Times,serif" font-size="14.00" fill="white">p_type LIKE &#39;%COPPER&#39;</text>
<text text-anchor="middle" x="95.5" y="-855.8" font-family="Times,serif" font-size="14.00" fill="white">699 µs 220 ns</text>
</a>
</g>
</g>
<!-- 133119296431184&#45;&gt;133164909969680 -->
<g id="edge13" class="edge">
<title>133119296431184&#45;&gt;133164909969680</title>
<path fill="none" stroke="white" d="M95.5,-932.23C95.5,-954.32 95.5,-981.31 95.5,-1002.62"/>
<polygon fill="white" stroke="white" points="92,-1002.88 95.5,-1012.88 99,-1002.88 92,-1002.88"/>
<text text-anchor="middle" x="193.5" y="-953.8" font-family="Times,serif" font-size="14.00" fill="white">40,175 row(s)/153 chunk(s)</text>
</g>
<!-- 133119296432144 -->
<g id="node13" class="node">
<title>133119296432144</title>
<g id="a_node13"><a xlink:title="Output: 200082 rows in 153 chunks filtered: 0, 1 ms 570 µs.&#10;Chunks: 0 skipped with no results, &#10;0 skipped with all matching, 0 scanned using binary search.">
<polygon fill="none" stroke="white" points="180,-782 11,-782 11,-698 180,-698 180,-782"/>
<text text-anchor="middle" x="95.5" y="-766.8" font-family="Times,serif" font-size="14.00" fill="white">TableScan</text>
<text text-anchor="middle" x="95.5" y="-751.8" font-family="Times,serif" font-size="14.00" fill="white">Impl: ColumnVsValue</text>
<text text-anchor="middle" x="95.5" y="-736.8" font-family="Times,serif" font-size="14.00" fill="white">p_size = 1</text>
<text text-anchor="middle" x="95.5" y="-705.8" font-family="Times,serif" font-size="14.00" fill="white">1 ms 570 µs</text>
</a>
</g>
</g>
<!-- 133119296432144&#45;&gt;133119296431184 -->
<g id="edge14" class="edge">
<title>133119296432144&#45;&gt;133119296431184</title>
<path fill="none" stroke="white" d="M95.5,-782.23C95.5,-799.47 95.5,-819.68 95.5,-837.85"/>
<polygon fill="white" stroke="white" points="92,-837.99 95.5,-847.99 99,-837.99 92,-837.99"/>
<text text-anchor="middle" x="198" y="-818.8" font-family="Times,serif" font-size="14.00" fill="white">200,082 row(s)/153 chunk(s)</text>
</g>
<!-- 133109939171792 -->
<g id="node14" class="node">
<title>133109939171792</title>
<g id="a_node14"><a xlink:title="Output: 10000000 rows in 153 chunks filtered: 0, 957 µs 110 ns.">
<polygon fill="none" stroke="white" points="156.5,-632 34.5,-632 34.5,-518 156.5,-518 156.5,-632"/>
<text text-anchor="middle" x="95.5" y="-616.8" font-family="Times,serif" font-size="14.00" fill="white">GetTable</text>
<text text-anchor="middle" x="95.5" y="-601.8" font-family="Times,serif" font-size="14.00" fill="white">(part)</text>
<text text-anchor="middle" x="95.5" y="-586.8" font-family="Times,serif" font-size="14.00" fill="white">pruned:</text>
<text text-anchor="middle" x="95.5" y="-571.8" font-family="Times,serif" font-size="14.00" fill="white">0/153 chunk(s)</text>
<text text-anchor="middle" x="95.5" y="-556.8" font-family="Times,serif" font-size="14.00" fill="white">5/9 column(s)</text>
<text text-anchor="middle" x="95.5" y="-525.8" font-family="Times,serif" font-size="14.00" fill="white">957 µs 110 ns</text>
</a>
</g>
</g>
<!-- 133109939171792&#45;&gt;133119296432144 -->
<g id="edge15" class="edge">
<title>133109939171792&#45;&gt;133119296432144</title>
<path fill="none" stroke="white" stroke-width="4.58" d="M95.5,-632.1C95.5,-650.19 95.5,-670.13 95.5,-687.85"/>
<polygon fill="white" stroke="white" stroke-width="4.58" points="91.49,-687.99 95.5,-697.99 99.51,-687.99 91.49,-687.99"/>
<text text-anchor="middle" x="209.5" y="-653.8" font-family="Times,serif" font-size="14.00" fill="white">10,000,000 row(s)/153 chunk(s)</text>
</g>
<!-- 133119296433744 -->
<g id="node15" class="node">
<title>133119296433744</title>
<g id="a_node15"><a xlink:title="Output: 99566 rows in 5 chunks filtered: 0, 41 ms 479 µs.&#10;Operator step runtimes:&#10; LeftSideMaterialize 1 ms 444 µs&#10; RightSideMaterialize 45 µs 488 ns&#10; LeftSideTransform 0 ns&#10; RightSideTransform 0 ns&#10; LeftSidePartition 2 ms 923 µs&#10; RightSidePartition 39 µs 748 ns&#10; LeftSideSortBuckets 28 ms 959 µs&#10; RightSideSortBuckets 832 µs 359 ns&#10; GatherRowIds 2 µs 505 ns&#10; FindJoinPartner 3 ms 153 µs&#10; OutputWriting 3 ms 816 µs.&#10;Radix bits: 8.">
<polygon fill="none" stroke="white" stroke-width="6.87" points="437,-1256 226,-1256 226,-1187 437,-1187 437,-1256"/>
<text text-anchor="middle" x="331.5" y="-1240.8" font-family="Times,serif" font-size="14.00" fill="white">JoinSimdSortMerge (Inner)</text>
<text text-anchor="middle" x="331.5" y="-1225.8" font-family="Times,serif" font-size="14.00" fill="white">s_nationkey = n_nationkey</text>
<text text-anchor="middle" x="331.5" y="-1194.8" font-family="Times,serif" font-size="14.00" fill="white">41 ms 479 µs</text>
</a>
</g>
</g>
<!-- 133119296433744&#45;&gt;133119296434384 -->
<g id="edge17" class="edge">
<title>133119296433744&#45;&gt;133119296434384</title>
<path fill="none" stroke="white" d="M323.23,-1256.1C315.03,-1293.37 304.24,-1355.34 308.5,-1409 311.54,-1447.32 318.71,-1490.42 324.59,-1521.68"/>
<polygon fill="white" stroke="white" points="326.53,-1531.8 328.09,-1521.32 324.65,-1521.98 326.53,-1531.8"/>
<text text-anchor="middle" x="397.5" y="-1397.8" font-family="Times,serif" font-size="14.00" fill="white">99,566 row(s)/5 chunk(s)</text>
</g>
<!-- 133119296433744&#45;&gt;133119296434064 -->
<g id="edge16" class="edge">
<title>133119296433744&#45;&gt;133119296434064</title>
<path fill="none" stroke="white" d="M330.82,-1256.28C332.22,-1267.82 335.73,-1280.05 343.5,-1289 347.18,-1293.24 351.22,-1297.13 355.54,-1300.7"/>
<polygon fill="white" stroke="white" points="363.6,-1306.8 357.73,-1297.97 355.62,-1300.76 363.6,-1306.8"/>
<text text-anchor="middle" x="432.5" y="-1277.8" font-family="Times,serif" font-size="14.00" fill="white">99,566 row(s)/5 chunk(s)</text>
</g>
<!-- 133109912182288 -->
<g id="node16" class="node">
<title>133109912182288</title>
<g id="a_node16"><a xlink:title="Output: 99566 rows in 5 chunks filtered: 0, 350 µs 323 ns.">
<polygon fill="none" stroke="white" points="497,-1067 380,-1067 380,-1013 497,-1013 497,-1067"/>
<text text-anchor="middle" x="438.5" y="-1051.8" font-family="Times,serif" font-size="14.00" fill="white">Validate</text>
<text text-anchor="middle" x="438.5" y="-1020.8" font-family="Times,serif" font-size="14.00" fill="white">350 µs 323 ns</text>
</a>
</g>
</g>
<!-- 133109912182288&#45;&gt;133119296433744 -->
<g id="edge18" class="edge">
<title>133109912182288&#45;&gt;133119296433744</title>
<path fill="none" stroke="white" d="M422.94,-1067.1C405.65,-1096.11 377.46,-1143.4 356.95,-1177.81"/>
<polygon fill="white" stroke="white" points="356.77,-1178.12 353.76,-1176.32 351.65,-1186.71 356.77,-1178.12"/>
<text text-anchor="middle" x="479.5" y="-1138.3" font-family="Times,serif" font-size="14.00" fill="white">99,566 row(s)/5 chunk(s)</text>
</g>
<!-- 133119296433424 -->
<g id="node17" class="node">
<title>133119296433424</title>
<g id="a_node17"><a xlink:title="Output: 99566 rows in 5 chunks filtered: 0, 10 ms 971 µs.&#10;Operator step runtimes:&#10; LeftSideMaterialize 1 ms 486 µs&#10; RightSideMaterialize 80 µs 707 ns&#10; LeftSideTransform 0 ns&#10; RightSideTransform 0 ns&#10; LeftSidePartition 3 ms 165 µs&#10; RightSidePartition 77 µs 460 ns&#10; LeftSideSortBuckets 1 ms 647 µs&#10; RightSideSortBuckets 1 ms 568 µs&#10; GatherRowIds 3 µs 693 ns&#10; FindJoinPartner 2 ms 556 µs&#10; OutputWriting 130 µs 59 ns.&#10;Radix bits: 8.">
<polygon fill="none" stroke="white" stroke-width="3.59" points="645,-924.5 360,-924.5 360,-855.5 645,-855.5 645,-924.5"/>
<text text-anchor="middle" x="502.5" y="-909.3" font-family="Times,serif" font-size="14.00" fill="white">JoinSimdSortMerge (Semi Reduction)</text>
<text text-anchor="middle" x="502.5" y="-894.3" font-family="Times,serif" font-size="14.00" fill="white">s_nationkey = n_nationkey</text>
<text text-anchor="middle" x="502.5" y="-863.3" font-family="Times,serif" font-size="14.00" fill="white">10 ms 971 µs</text>
</a>
</g>
</g>
<!-- 133119296433424&#45;&gt;133109912182288 -->
<g id="edge19" class="edge">
<title>133119296433424&#45;&gt;133109912182288</title>
<path fill="none" stroke="white" d="M489.84,-924.72C484.93,-937.42 479.13,-951.95 473.5,-965 468.03,-977.66 461.68,-991.36 455.9,-1003.49"/>
<polygon fill="white" stroke="white" points="452.59,-1002.3 451.41,-1012.83 458.9,-1005.33 452.59,-1002.3"/>
<text text-anchor="middle" x="567.5" y="-953.8" font-family="Times,serif" font-size="14.00" fill="white">99,566 row(s)/5 chunk(s)</text>
</g>
<!-- 133109939172688 -->
<g id="node18" class="node">
<title>133109939172688</title>
<g id="a_node18"><a xlink:title="Output: 500000 rows in 8 chunks filtered: 0, 12 µs 821 ns.">
<polygon fill="none" stroke="white" points="788,-797 675,-797 675,-683 788,-683 788,-797"/>
<text text-anchor="middle" x="731.5" y="-781.8" font-family="Times,serif" font-size="14.00" fill="white">GetTable</text>
<text text-anchor="middle" x="731.5" y="-766.8" font-family="Times,serif" font-size="14.00" fill="white">(supplier)</text>
<text text-anchor="middle" x="731.5" y="-751.8" font-family="Times,serif" font-size="14.00" fill="white">pruned:</text>
<text text-anchor="middle" x="731.5" y="-736.8" font-family="Times,serif" font-size="14.00" fill="white">0/8 chunk(s)</text>
<text text-anchor="middle" x="731.5" y="-721.8" font-family="Times,serif" font-size="14.00" fill="white">0/7 column(s)</text>
<text text-anchor="middle" x="731.5" y="-690.8" font-family="Times,serif" font-size="14.00" fill="white">12 µs 821 ns</text>
</a>
</g>
</g>
<!-- 133109939172688&#45;&gt;133119296433424 -->
<g id="edge20" class="edge">
<title>133109939172688&#45;&gt;133119296433424</title>
<path fill="none" stroke="white" d="M674.62,-753.73C635.48,-764.75 584.13,-783.93 547.5,-815 537.37,-823.6 528.87,-835.07 522.08,-846.42"/>
<polygon fill="white" stroke="white" points="521.91,-846.72 518.86,-845.01 517.01,-855.44 521.91,-846.72"/>
<text text-anchor="middle" x="641" y="-818.8" font-family="Times,serif" font-size="14.00" fill="white">500,000 row(s)/8 chunk(s)</text>
</g>
<!-- 133119296435024 -->
<g id="node29" class="node">
<title>133119296435024</title>
<g id="a_node29"><a xlink:title="Output: 99566 rows in 5 chunks filtered: 0, 11 ms 201 µs.&#10;Operator step runtimes:&#10; LeftSideMaterialize 1 ms 593 µs&#10; RightSideMaterialize 93 µs 691 ns&#10; LeftSideTransform 0 ns&#10; RightSideTransform 0 ns&#10; LeftSidePartition 2 ms 931 µs&#10; RightSidePartition 71 µs 483 ns&#10; LeftSideSortBuckets 1 ms 684 µs&#10; RightSideSortBuckets 1 ms 634 µs&#10; GatherRowIds 3 µs 415 ns&#10; FindJoinPartner 2 ms 771 µs&#10; OutputWriting 99 µs 612 ns.&#10;Radix bits: 8.">
<polygon fill="none" stroke="white" stroke-width="3.64" points="1022,-924.5 813,-924.5 813,-855.5 1022,-855.5 1022,-924.5"/>
<text text-anchor="middle" x="917.5" y="-909.3" font-family="Times,serif" font-size="14.00" fill="white">JoinSimdSortMerge (Semi)</text>
<text text-anchor="middle" x="917.5" y="-894.3" font-family="Times,serif" font-size="14.00" fill="white">s_nationkey = n_nationkey</text>
<text text-anchor="middle" x="917.5" y="-863.3" font-family="Times,serif" font-size="14.00" fill="white">11 ms 201 µs</text>
</a>
</g>
</g>
<!-- 133109939172688&#45;&gt;133119296435024 -->
<g id="edge21" class="edge">
<title>133109939172688&#45;&gt;133119296435024</title>
<path fill="none" stroke="white" d="M788.19,-753.68C823.67,-764.4 867.76,-783.24 895.5,-815 902.99,-823.58 907.94,-834.62 911.2,-845.54"/>
<polygon fill="white" stroke="white" points="911.26,-845.77 907.87,-846.64 913.74,-855.46 911.26,-845.77"/>
<text text-anchor="middle" x="998" y="-818.8" font-family="Times,serif" font-size="14.00" fill="white">500,000 row(s)/8 chunk(s)</text>
</g>
<!-- 133109912181008 -->
<g id="node19" class="node">
<title>133109912181008</title>
<g id="a_node19"><a xlink:title="Output: 5 rows in 1 chunk filtered: 0, 5 µs 981 ns.">
<polygon fill="none" stroke="white" points="435,-767 336,-767 336,-713 435,-713 435,-767"/>
<text text-anchor="middle" x="385.5" y="-751.8" font-family="Times,serif" font-size="14.00" fill="white">Validate</text>
<text text-anchor="middle" x="385.5" y="-720.8" font-family="Times,serif" font-size="14.00" fill="white">5 µs 981 ns</text>
</a>
</g>
</g>
<!-- 133109912181008&#45;&gt;133119296433744 -->
<g id="edge23" class="edge">
<title>133109912181008&#45;&gt;133119296433744</title>
<path fill="none" stroke="white" d="M376.27,-767.14C368.9,-788.66 358.66,-820.05 351.5,-848 340.04,-892.75 335.97,-904.02 331.5,-950 323.78,-1029.53 326.32,-1122.84 328.89,-1176.48"/>
<polygon fill="white" stroke="white" points="329.41,-1186.66 332.4,-1176.5 328.9,-1176.67 329.41,-1186.66"/>
<text text-anchor="middle" x="400.5" y="-953.8" font-family="Times,serif" font-size="14.00" fill="white">5 row(s)/1 chunk(s)</text>
</g>
<!-- 133109912181008&#45;&gt;133119296433424 -->
<g id="edge22" class="edge">
<title>133109912181008&#45;&gt;133119296433424</title>
<path fill="none" stroke="white" d="M379.03,-767.14C375.88,-786.02 374.92,-811.36 386.5,-830 390.86,-837.02 396.34,-843.23 402.53,-848.74"/>
<polygon fill="white" stroke="white" points="410.72,-855.33 405.13,-846.33 402.93,-849.06 410.72,-855.33"/>
<text text-anchor="middle" x="455.5" y="-818.8" font-family="Times,serif" font-size="14.00" fill="white">5 row(s)/1 chunk(s)</text>
</g>
<!-- 133109912181008&#45;&gt;133119296435024 -->
<g id="edge24" class="edge">
<title>133109912181008&#45;&gt;133119296435024</title>
<path fill="none" stroke="white" d="M435.32,-750.94C528.49,-769.62 720.94,-808.64 734.5,-815 744.24,-819.57 744.09,-824.78 753.5,-830 769.12,-838.67 786.27,-846.49 803.4,-853.37"/>
<polygon fill="white" stroke="white" points="812.91,-857.1 804.88,-850.19 803.6,-853.45 812.91,-857.1"/>
<text text-anchor="middle" x="822.5" y="-818.8" font-family="Times,serif" font-size="14.00" fill="white">5 row(s)/1 chunk(s)</text>
</g>
<!-- 133119296433104 -->
<g id="node20" class="node">
<title>133119296433104</title>
<g id="a_node20"><a xlink:title="Output: 5 rows in 1 chunk filtered: 0, 2 ms 191 µs.&#10;Operator step runtimes:&#10; LeftSideMaterialize 53 µs 643 ns&#10; RightSideMaterialize 70 µs 290 ns&#10; LeftSideTransform 0 ns&#10; RightSideTransform 0 ns&#10; LeftSidePartition 33 µs 433 ns&#10; RightSidePartition 25 µs 387 ns&#10; LeftSideSortBuckets 1 ms 53 µs&#10; RightSideSortBuckets 800 µs 744 ns&#10; GatherRowIds 2 µs 884 ns&#10; FindJoinPartner 6 µs 547 ns&#10; OutputWriting 28 µs 81 ns.&#10;Radix bits: 8.">
<polygon fill="none" stroke="white" points="490,-609.5 281,-609.5 281,-540.5 490,-540.5 490,-609.5"/>
<text text-anchor="middle" x="385.5" y="-594.3" font-family="Times,serif" font-size="14.00" fill="white">JoinSimdSortMerge (Semi)</text>
<text text-anchor="middle" x="385.5" y="-579.3" font-family="Times,serif" font-size="14.00" fill="white">n_regionkey = r_regionkey</text>
<text text-anchor="middle" x="385.5" y="-548.3" font-family="Times,serif" font-size="14.00" fill="white">2 ms 191 µs</text>
</a>
</g>
</g>
<!-- 133119296433104&#45;&gt;133109912181008 -->
<g id="edge25" class="edge">
<title>133119296433104&#45;&gt;133109912181008</title>
<path fill="none" stroke="white" d="M385.5,-609.77C385.5,-636.89 385.5,-674.9 385.5,-702.68"/>
<polygon fill="white" stroke="white" points="382,-702.78 385.5,-712.78 389,-702.78 382,-702.78"/>
<text text-anchor="middle" x="454.5" y="-653.8" font-family="Times,serif" font-size="14.00" fill="white">5 row(s)/1 chunk(s)</text>
</g>
<!-- 133109939172240 -->
<g id="node21" class="node">
<title>133109939172240</title>
<g id="a_node21"><a xlink:title="Output: 25 rows in 1 chunk filtered: 0, 8 µs 903 ns.">
<polygon fill="none" stroke="white" points="357,-467 244,-467 244,-353 357,-353 357,-467"/>
<text text-anchor="middle" x="300.5" y="-451.8" font-family="Times,serif" font-size="14.00" fill="white">GetTable</text>
<text text-anchor="middle" x="300.5" y="-436.8" font-family="Times,serif" font-size="14.00" fill="white">(nation)</text>
<text text-anchor="middle" x="300.5" y="-421.8" font-family="Times,serif" font-size="14.00" fill="white">pruned:</text>
<text text-anchor="middle" x="300.5" y="-406.8" font-family="Times,serif" font-size="14.00" fill="white">0/1 chunk(s)</text>
<text text-anchor="middle" x="300.5" y="-391.8" font-family="Times,serif" font-size="14.00" fill="white">1/4 column(s)</text>
<text text-anchor="middle" x="300.5" y="-360.8" font-family="Times,serif" font-size="14.00" fill="white">8 µs 903 ns</text>
</a>
</g>
</g>
<!-- 133109939172240&#45;&gt;133119296433104 -->
<g id="edge26" class="edge">
<title>133109939172240&#45;&gt;133119296433104</title>
<path fill="none" stroke="white" d="M294.12,-467.17C294.75,-478.42 296.86,-489.89 301.5,-500 307.24,-512.51 316.23,-523.76 326.23,-533.49"/>
<polygon fill="white" stroke="white" points="326.29,-533.55 323.93,-536.13 333.66,-540.31 326.29,-533.55"/>
<text text-anchor="middle" x="375" y="-488.8" font-family="Times,serif" font-size="14.00" fill="white">25 row(s)/1 chunk(s)</text>
</g>
<!-- 133109912181520 -->
<g id="node22" class="node">
<title>133109912181520</title>
<g id="a_node22"><a xlink:title="Output: 1 row in 1 chunk filtered: 0, 7 µs 575 ns.">
<polygon fill="none" stroke="white" points="520,-437 421,-437 421,-383 520,-383 520,-437"/>
<text text-anchor="middle" x="470.5" y="-421.8" font-family="Times,serif" font-size="14.00" fill="white">Validate</text>
<text text-anchor="middle" x="470.5" y="-390.8" font-family="Times,serif" font-size="14.00" fill="white">7 µs 575 ns</text>
</a>
</g>
</g>
<!-- 133109912181520&#45;&gt;133119296433104 -->
<g id="edge27" class="edge">
<title>133109912181520&#45;&gt;133119296433104</title>
<path fill="none" stroke="white" d="M467.31,-437.05C464.29,-455.41 458.67,-480.17 448.5,-500 442.67,-511.37 434.77,-522.49 426.54,-532.52"/>
<polygon fill="white" stroke="white" points="419.91,-540.3 429.06,-534.96 426.39,-532.69 419.91,-540.3"/>
<text text-anchor="middle" x="523.5" y="-488.8" font-family="Times,serif" font-size="14.00" fill="white">1 row(s)/1 chunk(s)</text>
</g>
<!-- 133119296431824 -->
<g id="node23" class="node">
<title>133119296431824</title>
<g id="a_node23"><a xlink:title="Output: 1 row in 1 chunk filtered: 0, 20 µs 375 ns.&#10;Chunks: 0 skipped with no results, &#10;0 skipped with all matching, 0 scanned using binary search.">
<polygon fill="none" stroke="white" points="555,-302 386,-302 386,-218 555,-218 555,-302"/>
<text text-anchor="middle" x="470.5" y="-286.8" font-family="Times,serif" font-size="14.00" fill="white">TableScan</text>
<text text-anchor="middle" x="470.5" y="-271.8" font-family="Times,serif" font-size="14.00" fill="white">Impl: ColumnVsValue</text>
<text text-anchor="middle" x="470.5" y="-256.8" font-family="Times,serif" font-size="14.00" fill="white">r_name = &#39;AFRICA&#39;</text>
<text text-anchor="middle" x="470.5" y="-225.8" font-family="Times,serif" font-size="14.00" fill="white">20 µs 375 ns</text>
</a>
</g>
</g>
<!-- 133119296431824&#45;&gt;133109912181520 -->
<g id="edge28" class="edge">
<title>133119296431824&#45;&gt;133109912181520</title>
<path fill="none" stroke="white" d="M470.5,-302.23C470.5,-324.32 470.5,-351.31 470.5,-372.62"/>
<polygon fill="white" stroke="white" points="467,-372.88 470.5,-382.88 474,-372.88 467,-372.88"/>
<text text-anchor="middle" x="539.5" y="-323.8" font-family="Times,serif" font-size="14.00" fill="white">1 row(s)/1 chunk(s)</text>
</g>
<!-- 133109939173136 -->
<g id="node24" class="node">
<title>133109939173136</title>
<g id="a_node24"><a xlink:title="Output: 5 rows in 1 chunk filtered: 0, 11 µs 413 ns.">
<polygon fill="none" stroke="white" points="527,-140.5 414,-140.5 414,-26.5 527,-26.5 527,-140.5"/>
<text text-anchor="middle" x="470.5" y="-125.3" font-family="Times,serif" font-size="14.00" fill="white">GetTable</text>
<text text-anchor="middle" x="470.5" y="-110.3" font-family="Times,serif" font-size="14.00" fill="white">(region)</text>
<text text-anchor="middle" x="470.5" y="-95.3" font-family="Times,serif" font-size="14.00" fill="white">pruned:</text>
<text text-anchor="middle" x="470.5" y="-80.3" font-family="Times,serif" font-size="14.00" fill="white">0/1 chunk(s)</text>
<text text-anchor="middle" x="470.5" y="-65.3" font-family="Times,serif" font-size="14.00" fill="white">1/3 column(s)</text>
<text text-anchor="middle" x="470.5" y="-34.3" font-family="Times,serif" font-size="14.00" fill="white">11 µs 413 ns</text>
</a>
</g>
</g>
<!-- 133109939173136&#45;&gt;133119296431824 -->
<g id="edge29" class="edge">
<title>133109939173136&#45;&gt;133119296431824</title>
<path fill="none" stroke="white" d="M470.5,-140.67C470.5,-162.25 470.5,-186.74 470.5,-207.83"/>
<polygon fill="white" stroke="white" points="467,-207.87 470.5,-217.87 474,-207.87 467,-207.87"/>
<text text-anchor="middle" x="539.5" y="-188.8" font-family="Times,serif" font-size="14.00" fill="white">5 row(s)/1 chunk(s)</text>
</g>
<!-- 133109938908688 -->
<g id="node25" class="node">
<title>133109938908688</title>
<g id="a_node25"><a xlink:title="Output: 23772 rows in 1 chunk filtered: 0, 37 ms 345 µs.&#10;Operator step runtimes:&#10; GroupByKeyPartitioning 18 ms 911 µs&#10; Aggregating 18 ms 28 µs&#10; GroupByColumnsWriting 278 µs 861 ns&#10; AggregateColumnsWriting 92 µs 497 ns&#10; OutputWriting 15 µs 463 ns.">
<polygon fill="none" stroke="white" stroke-width="6.61" points="717.5,-1703 537.5,-1703 537.5,-1619 717.5,-1619 717.5,-1703"/>
<text text-anchor="middle" x="627.5" y="-1687.8" font-family="Times,serif" font-size="14.00" fill="white">AggregateHash</text>
<text text-anchor="middle" x="627.5" y="-1672.8" font-family="Times,serif" font-size="14.00" fill="white">GroupBy {ps_partkey}</text>
<text text-anchor="middle" x="627.5" y="-1657.8" font-family="Times,serif" font-size="14.00" fill="white">MIN(ps_supplycost)</text>
<text text-anchor="middle" x="627.5" y="-1626.8" font-family="Times,serif" font-size="14.00" fill="white">37 ms 345 µs</text>
</a>
</g>
</g>
<!-- 133109938908688&#45;&gt;133119296435664 -->
<g id="edge30" class="edge">
<title>133109938908688&#45;&gt;133119296435664</title>
<path fill="none" stroke="white" d="M624.52,-1703.01C620.08,-1738.16 609.03,-1788.44 581.5,-1823 578.32,-1826.99 574.79,-1830.76 571.01,-1834.3"/>
<polygon fill="white" stroke="white" points="563.44,-1840.84 573.3,-1836.95 571.01,-1834.3 563.44,-1840.84"/>
<text text-anchor="middle" x="709.5" y="-1751.8" font-family="Times,serif" font-size="14.00" fill="white">23,772 row(s)/1 chunk(s)</text>
</g>
<!-- 133109912182032 -->
<g id="node26" class="node">
<title>133109912182032</title>
<g id="a_node26"><a xlink:title="Output: 32132 rows in 58 chunks filtered: 0, 332 µs 355 ns.">
<polygon fill="none" stroke="white" points="727,-1481 610,-1481 610,-1427 727,-1427 727,-1481"/>
<text text-anchor="middle" x="668.5" y="-1465.8" font-family="Times,serif" font-size="14.00" fill="white">Validate</text>
<text text-anchor="middle" x="668.5" y="-1434.8" font-family="Times,serif" font-size="14.00" fill="white">332 µs 355 ns</text>
</a>
</g>
</g>
<!-- 133109912182032&#45;&gt;133109938908688 -->
<g id="edge31" class="edge">
<title>133109912182032&#45;&gt;133109938908688</title>
<path fill="none" stroke="white" d="M663.22,-1481.38C656.8,-1513.48 645.82,-1568.4 637.72,-1608.89"/>
<polygon fill="white" stroke="white" points="634.26,-1608.36 635.73,-1618.85 641.12,-1609.73 634.26,-1608.36"/>
<text text-anchor="middle" x="753" y="-1502.8" font-family="Times,serif" font-size="14.00" fill="white">32,132 row(s)/58 chunk(s)</text>
</g>
<!-- 133119296435344&#45;&gt;133109912182032 -->
<g id="edge32" class="edge">
<title>133119296435344&#45;&gt;133109912182032</title>
<path fill="none" stroke="white" d="M735.18,-1376.25C723.38,-1389.84 709.79,-1405.47 697.98,-1419.07"/>
<polygon fill="white" stroke="white" points="695.17,-1416.97 691.25,-1426.81 700.45,-1421.56 695.17,-1416.97"/>
<text text-anchor="middle" x="812" y="-1397.8" font-family="Times,serif" font-size="14.00" fill="white">32,132 row(s)/58 chunk(s)</text>
</g>
<!-- 133109912181776 -->
<g id="node28" class="node">
<title>133109912181776</title>
<g id="a_node28"><a xlink:title="Output: 99566 rows in 5 chunks filtered: 0, 1 ms 57 µs.">
<polygon fill="none" stroke="white" points="1019,-1169 924,-1169 924,-1115 1019,-1115 1019,-1169"/>
<text text-anchor="middle" x="971.5" y="-1153.8" font-family="Times,serif" font-size="14.00" fill="white">Validate</text>
<text text-anchor="middle" x="971.5" y="-1122.8" font-family="Times,serif" font-size="14.00" fill="white">1 ms 57 µs</text>
</a>
</g>
</g>
<!-- 133109912181776&#45;&gt;133119296435344 -->
<g id="edge33" class="edge">
<title>133109912181776&#45;&gt;133119296435344</title>
<path fill="none" stroke="white" d="M977.55,-1169.01C983.35,-1201.09 987.59,-1255.47 959.5,-1289 948.07,-1302.65 914.95,-1313.58 879.18,-1321.8"/>
<polygon fill="white" stroke="white" points="869.03,-1324.04 879.55,-1325.3 878.8,-1321.88 869.03,-1324.04"/>
<text text-anchor="middle" x="1070.5" y="-1217.8" font-family="Times,serif" font-size="14.00" fill="white">99,566 row(s)/5 chunk(s)</text>
</g>
<!-- 133119296435024&#45;&gt;133109912181776 -->
<g id="edge34" class="edge">
<title>133119296435024&#45;&gt;133109912181776</title>
<path fill="none" stroke="white" d="M924.78,-924.72C934.92,-971.65 953.21,-1056.34 963.65,-1104.65"/>
<polygon fill="white" stroke="white" points="960.28,-1105.63 965.81,-1114.66 967.12,-1104.15 960.28,-1105.63"/>
<text text-anchor="middle" x="1021.5" y="-953.8" font-family="Times,serif" font-size="14.00" fill="white">99,566 row(s)/5 chunk(s)</text>
</g>
<!-- 0 -->
<g id="node30" class="node">
<title>0</title>
<polygon fill="none" stroke="white" points="545.5,-0.5 545.5,-166.5 891.5,-166.5 891.5,-0.5 545.5,-0.5"/>
<text text-anchor="middle" x="718.5" y="-151.3" font-family="Times,serif" font-size="14.00" fill="white">Total by operator</text>
<polyline fill="none" stroke="white" points="545.5,-143.5 891.5,-143.5 "/>
<text text-anchor="end" x="699.5" y="-128.3" font-family="Times,serif" font-size="14.00" fill="white">JoinSimdSortMerge </text>
<text text-anchor="end" x="699.5" y="-113.3" font-family="Times,serif" font-size="14.00" fill="white"> Sort </text>
<text text-anchor="end" x="699.5" y="-98.3" font-family="Times,serif" font-size="14.00" fill="white"> AggregateHash </text>
<text text-anchor="end" x="699.5" y="-83.3" font-family="Times,serif" font-size="14.00" fill="white"> GetTable </text>
<text text-anchor="end" x="699.5" y="-68.3" font-family="Times,serif" font-size="14.00" fill="white"> Validate </text>
<text text-anchor="end" x="699.5" y="-53.3" font-family="Times,serif" font-size="14.00" fill="white"> TableScan </text>
<text text-anchor="end" x="699.5" y="-38.3" font-family="Times,serif" font-size="14.00" fill="white"> Limit </text>
<text text-anchor="end" x="699.5" y="-23.3" font-family="Times,serif" font-size="14.00" fill="white"> Projection </text>
<text text-anchor="end" x="699.5" y="-8.3" font-family="Times,serif" font-size="14.00" fill="white">total</text>
<polyline fill="none" stroke="white" points="707.5,-0.5 707.5,-143.5 "/>
<text text-anchor="start" x="715.5" y="-128.3" font-family="Times,serif" font-size="14.00" fill="white">246 ms 846 µs </text>
<text text-anchor="start" x="715.5" y="-113.3" font-family="Times,serif" font-size="14.00" fill="white"> 41 ms 739 µs </text>
<text text-anchor="start" x="715.5" y="-98.3" font-family="Times,serif" font-size="14.00" fill="white"> 37 ms 345 µs </text>
<text text-anchor="start" x="715.5" y="-83.3" font-family="Times,serif" font-size="14.00" fill="white"> 3 ms 545 µs </text>
<text text-anchor="start" x="715.5" y="-68.3" font-family="Times,serif" font-size="14.00" fill="white"> 2 ms 655 µs </text>
<text text-anchor="start" x="715.5" y="-53.3" font-family="Times,serif" font-size="14.00" fill="white"> 2 ms 289 µs </text>
<text text-anchor="start" x="715.5" y="-38.3" font-family="Times,serif" font-size="14.00" fill="white"> 25 µs 459 ns </text>
<text text-anchor="start" x="715.5" y="-23.3" font-family="Times,serif" font-size="14.00" fill="white"> 12 µs 10 ns </text>
<text text-anchor="start" x="715.5" y="-8.3" font-family="Times,serif" font-size="14.00" fill="white"> 334 ms 457 µs </text>
<polyline fill="none" stroke="white" points="838.5,-0.5 838.5,-143.5 "/>
<text text-anchor="start" x="846.5" y="-128.3" font-family="Times,serif" font-size="14.00" fill="white">74 %</text>
<text text-anchor="start" x="846.5" y="-113.3" font-family="Times,serif" font-size="14.00" fill="white">12 %</text>
<text text-anchor="start" x="846.5" y="-98.3" font-family="Times,serif" font-size="14.00" fill="white">11 %</text>
<text text-anchor="start" x="846.5" y="-83.3" font-family="Times,serif" font-size="14.00" fill="white">1 %</text>
<text text-anchor="start" x="846.5" y="-68.3" font-family="Times,serif" font-size="14.00" fill="white">1 %</text>
<text text-anchor="start" x="846.5" y="-53.3" font-family="Times,serif" font-size="14.00" fill="white">1 %</text>
<text text-anchor="start" x="846.5" y="-38.3" font-family="Times,serif" font-size="14.00" fill="white">0 %</text>
<text text-anchor="start" x="846.5" y="-23.3" font-family="Times,serif" font-size="14.00" fill="white">0 %</text>
<text text-anchor="start" x="846.5" y="-8.3" font-family="Times,serif" font-size="14.00" fill="white"> </text>
</g>
</g>
</svg>
