<?xml version="1.0" encoding="UTF-8" standalone="no"?>
<!DOCTYPE svg PUBLIC "-//W3C//DTD SVG 1.1//EN"
 "http://www.w3.org/Graphics/SVG/1.1/DTD/svg11.dtd">
<!-- Generated by graphviz version 2.43.0 (0)
 -->
<!-- Title: G Pages: 1 -->
<svg width="2119pt" height="1909pt"
 viewBox="0.00 0.00 2119.00 1909.00" xmlns="http://www.w3.org/2000/svg" xmlns:xlink="http://www.w3.org/1999/xlink">
<g id="graph0" class="graph" transform="scale(1 1) rotate(0) translate(4 1905)">
<title>G</title>
<polygon fill="black" stroke="transparent" points="-4,4 -4,-1905 2115,-1905 2115,4 -4,4"/>
<text text-anchor="middle" x="319.5" y="-1885.8" font-family="Times,serif" font-size="14.00" fill="white">For tooltips with advanced information, hover your mouse over vertices or edge labels.</text>
<!-- 133114105346704 -->
<g id="node1" class="node">
<title>133114105346704</title>
<polygon fill="none" stroke="white" points="1090,-1846 716,-1846 716,-1808 1090,-1808 1090,-1846"/>
<text text-anchor="middle" x="903" y="-1830.8" font-family="Times,serif" font-size="14.00" fill="white">[Alias] p_brand, p_type, p_size, COUNT(DISTINCT</text>
<text text-anchor="middle" x="903" y="-1815.8" font-family="Times,serif" font-size="14.00" fill="white">ps_suppkey) AS supplier_cnt</text>
</g>
<!-- 133114105346512 -->
<g id="node2" class="node">
<title>133114105346512</title>
<polygon fill="none" stroke="white" points="1097.5,-1757 708.5,-1757 708.5,-1704 1097.5,-1704 1097.5,-1757"/>
<text text-anchor="middle" x="903" y="-1741.8" font-family="Times,serif" font-size="14.00" fill="white">[Sort] COUNT(DISTINCT ps_suppkey) (Descending),</text>
<text text-anchor="middle" x="903" y="-1726.8" font-family="Times,serif" font-size="14.00" fill="white">p_brand (Ascending), p_type (Ascending), p_size</text>
<text text-anchor="middle" x="903" y="-1711.8" font-family="Times,serif" font-size="14.00" fill="white">(Ascending)</text>
</g>
<!-- 133114105346512&#45;&gt;133114105346704 -->
<g id="edge1" class="edge">
<title>133114105346512&#45;&gt;133114105346704</title>
<path fill="none" stroke="white" d="M903,-1757.32C903,-1769.87 903,-1784.99 903,-1797.83"/>
<polygon fill="white" stroke="white" points="899.5,-1797.99 903,-1807.99 906.5,-1797.99 899.5,-1797.99"/>
<g id="a_edge1&#45;label"><a xlink:title="Output Expressions: &#10; (1) p_brand&#10; (2) p_type&#10; (3) p_size&#10; (4) COUNT(DISTINCT ps_suppkey)&#10;&#10;Unique Column Combinations: &#10; (1) {p_brand, p_type, p_size}&#10;&#10;Functional Dependencies (trivial): &#10; (1) {p_brand, p_type, p_size} =&gt; {COUNT(DISTINCT ps_suppkey)}&#10;&#10;Functional Dependencies (non&#45;trivial): &#10; &lt;none&gt;">
<text text-anchor="middle" x="1011" y="-1778.8" font-family="Times,serif" font-size="14.00" fill="white"> 4,784.5 row(s) | 100.0% estd.</text>
</a>
</g>
</g>
<!-- 133114105346320 -->
<g id="node3" class="node">
<title>133114105346320</title>
<polygon fill="none" stroke="white" points="1080.5,-1653 725.5,-1653 725.5,-1615 1080.5,-1615 1080.5,-1653"/>
<text text-anchor="middle" x="903" y="-1637.8" font-family="Times,serif" font-size="14.00" fill="white">[Aggregate] GroupBy: [p_brand, p_type, p_size]</text>
<text text-anchor="middle" x="903" y="-1622.8" font-family="Times,serif" font-size="14.00" fill="white">Aggregates: [COUNT(DISTINCT ps_suppkey)]</text>
</g>
<!-- 133114105346320&#45;&gt;133114105346512 -->
<g id="edge2" class="edge">
<title>133114105346320&#45;&gt;133114105346512</title>
<path fill="none" stroke="white" d="M903,-1653.22C903,-1664.67 903,-1679.84 903,-1693.64"/>
<polygon fill="white" stroke="white" points="899.5,-1693.83 903,-1703.83 906.5,-1693.83 899.5,-1693.83"/>
<g id="a_edge2&#45;label"><a xlink:title="Output Expressions: &#10; (1) p_brand&#10; (2) p_type&#10; (3) p_size&#10; (4) COUNT(DISTINCT ps_suppkey)&#10;&#10;Unique Column Combinations: &#10; (1) {p_brand, p_type, p_size}&#10;&#10;Functional Dependencies (trivial): &#10; (1) {p_brand, p_type, p_size} =&gt; {COUNT(DISTINCT ps_suppkey)}&#10;&#10;Functional Dependencies (non&#45;trivial): &#10; &lt;none&gt;">
<text text-anchor="middle" x="1011" y="-1674.8" font-family="Times,serif" font-size="14.00" fill="white"> 4,784.5 row(s) | 100.0% estd.</text>
</a>
</g>
</g>
<!-- 133114105347280 -->
<g id="node4" class="node">
<title>133114105347280</title>
<polygon fill="none" stroke="white" points="1068,-1564 738,-1564 738,-1528 1068,-1528 1068,-1564"/>
<text text-anchor="middle" x="903" y="-1542.3" font-family="Times,serif" font-size="14.00" fill="white">[Join] Mode: Inner [p_partkey = ps_partkey]</text>
</g>
<!-- 133114105347280&#45;&gt;133114105346320 -->
<g id="edge3" class="edge">
<title>133114105347280&#45;&gt;133114105346320</title>
<path fill="none" stroke="white" d="M903,-1564.4C903,-1575.94 903,-1591.35 903,-1604.64"/>
<polygon fill="white" stroke="white" points="899.5,-1604.73 903,-1614.73 906.5,-1604.73 899.5,-1604.73"/>
<g id="a_edge3&#45;label"><a xlink:title="Output Expressions: &#10; (1) ps_partkey&#10; (2) ps_suppkey&#10; (3) p_partkey&#10; (4) p_brand&#10; (5) p_type&#10; (6) p_size&#10;&#10;Unique Column Combinations: &#10; &lt;none&gt;&#10;&#10;Functional Dependencies (trivial): &#10; &lt;none&gt;&#10;&#10;Functional Dependencies (non&#45;trivial): &#10; (1) {p_partkey} =&gt; {p_brand, p_type, p_size}&#10;">
<text text-anchor="middle" x="1002" y="-1585.8" font-family="Times,serif" font-size="14.00" fill="white"> 4,784.5 row(s) | 0.0% estd.</text>
</a>
</g>
</g>
<!-- 133114105345360 -->
<g id="node5" class="node">
<title>133114105345360</title>
<polygon fill="none" stroke="white" points="789,-1477 463,-1477 463,-1439 789,-1439 789,-1477"/>
<text text-anchor="middle" x="626" y="-1461.8" font-family="Times,serif" font-size="14.00" fill="white">[Join] Mode: AntiNullAsTrue [ps_suppkey =</text>
<text text-anchor="middle" x="626" y="-1446.8" font-family="Times,serif" font-size="14.00" fill="white">s_suppkey]</text>
</g>
<!-- 133114105345360&#45;&gt;133114105347280 -->
<g id="edge4" class="edge">
<title>133114105345360&#45;&gt;133114105347280</title>
<path fill="none" stroke="white" d="M684.07,-1477.03C729.09,-1491.01 791.47,-1510.37 838.13,-1524.86"/>
<polygon fill="white" stroke="white" points="838.29,-1524.91 837.25,-1528.25 847.84,-1527.87 838.29,-1524.91"/>
<g id="a_edge4&#45;label"><a xlink:title="Output Expressions: &#10; (1) ps_partkey&#10; (2) ps_suppkey&#10;&#10;Unique Column Combinations: &#10; (1) {ps_partkey, ps_suppkey}&#10;&#10;Functional Dependencies (trivial): &#10; &lt;none&gt;&#10;&#10;Functional Dependencies (non&#45;trivial): &#10; &lt;none&gt;">
<text text-anchor="middle" x="897" y="-1498.8" font-family="Times,serif" font-size="14.00" fill="white"> 4,784.5 row(s) | 100.0% estd.</text>
</a>
</g>
</g>
<!-- 133164630541520 -->
<g id="node6" class="node">
<title>133164630541520</title>
<polygon fill="none" stroke="white" points="429.5,-1388 344.5,-1388 344.5,-1352 429.5,-1352 429.5,-1388"/>
<text text-anchor="middle" x="387" y="-1366.3" font-family="Times,serif" font-size="14.00" fill="white">[Validate]</text>
</g>
<!-- 133164630541520&#45;&gt;133114105345360 -->
<g id="edge5" class="edge">
<title>133164630541520&#45;&gt;133114105345360</title>
<path fill="none" stroke="white" d="M388.43,-1388.35C390.28,-1399.34 394.48,-1412.95 404,-1421 413.28,-1428.85 431.19,-1435.01 452.98,-1439.84"/>
<polygon fill="white" stroke="white" points="453.1,-1439.87 452.39,-1443.29 462.89,-1441.9 453.1,-1439.87"/>
<g id="a_edge5&#45;label"><a xlink:title="Output Expressions: &#10; (1) ps_partkey&#10; (2) ps_suppkey&#10;&#10;Unique Column Combinations: &#10; (1) {ps_partkey, ps_suppkey}&#10;&#10;Functional Dependencies (trivial): &#10; &lt;none&gt;&#10;&#10;Functional Dependencies (non&#45;trivial): &#10; &lt;none&gt;">
<text text-anchor="middle" x="512" y="-1409.8" font-family="Times,serif" font-size="14.00" fill="white"> 4,784.5 row(s) | 100.0% estd.</text>
</a>
</g>
</g>
<!-- 133114105344016 -->
<g id="node7" class="node">
<title>133114105344016</title>
<polygon fill="none" stroke="white" points="551,-1301 223,-1301 223,-1263 551,-1263 551,-1301"/>
<text text-anchor="middle" x="387" y="-1285.8" font-family="Times,serif" font-size="14.00" fill="white">[Join] Mode: Semi [p_partkey = ps_partkey]</text>
<text text-anchor="middle" x="387" y="-1270.8" font-family="Times,serif" font-size="14.00" fill="white">(SemiJoinReductionRule)</text>
</g>
<!-- 133114105344016&#45;&gt;133164630541520 -->
<g id="edge6" class="edge">
<title>133114105344016&#45;&gt;133164630541520</title>
<path fill="none" stroke="white" d="M387,-1301.24C387,-1313.07 387,-1328.68 387,-1341.95"/>
<polygon fill="white" stroke="white" points="383.5,-1341.96 387,-1351.96 390.5,-1341.96 383.5,-1341.96"/>
<g id="a_edge6&#45;label"><a xlink:title="Output Expressions: &#10; (1) ps_partkey&#10; (2) ps_suppkey&#10;&#10;Unique Column Combinations: &#10; (1) {ps_partkey, ps_suppkey}&#10;&#10;Functional Dependencies (trivial): &#10; &lt;none&gt;&#10;&#10;Functional Dependencies (non&#45;trivial): &#10; &lt;none&gt;">
<text text-anchor="middle" x="486" y="-1322.8" font-family="Times,serif" font-size="14.00" fill="white"> 4,784.5 row(s) | 0.0% estd.</text>
</a>
</g>
</g>
<!-- 133102279807952 -->
<g id="node8" class="node">
<title>133102279807952</title>
<polygon fill="none" stroke="white" points="346,-1212 0,-1212 0,-1174 346,-1174 346,-1212"/>
<text text-anchor="middle" x="173" y="-1196.8" font-family="Times,serif" font-size="14.00" fill="white">[StoredTable] Name: &#39;partsupp&#39; pruned: 0/611</text>
<text text-anchor="middle" x="173" y="-1181.8" font-family="Times,serif" font-size="14.00" fill="white">chunk(s), 3/5 column(s)</text>
</g>
<!-- 133102279807952&#45;&gt;133114105344016 -->
<g id="edge7" class="edge">
<title>133102279807952&#45;&gt;133114105344016</title>
<path fill="none" stroke="white" stroke-width="8" d="M217.34,-1212.03C251.06,-1225.73 297.59,-1244.65 333.39,-1259.21"/>
<polygon fill="white" stroke="white" stroke-width="8" points="333.45,-1259.23 330.82,-1265.72 342.72,-1263 333.45,-1259.23"/>
<g id="a_edge7&#45;label"><a xlink:title="Output Expressions: &#10; (1) ps_partkey&#10; (2) ps_suppkey&#10;&#10;Unique Column Combinations: &#10; (1) {ps_partkey, ps_suppkey}&#10;&#10;Functional Dependencies (trivial): &#10; &lt;none&gt;&#10;&#10;Functional Dependencies (non&#45;trivial): &#10; &lt;none&gt;">
<text text-anchor="middle" x="421" y="-1233.8" font-family="Times,serif" font-size="14.00" fill="white"> 40,000,000.0 row(s) | 100.0% estd.</text>
</a>
</g>
</g>
<!-- 133114105346128 -->
<g id="node9" class="node">
<title>133114105346128</title>
<polygon fill="none" stroke="white" points="1084.5,-1211 905.5,-1211 905.5,-1175 1084.5,-1175 1084.5,-1211"/>
<text text-anchor="middle" x="995" y="-1189.3" font-family="Times,serif" font-size="14.00" fill="white">[UnionNode] Mode: All</text>
</g>
<!-- 133114105346128&#45;&gt;133114105347280 -->
<g id="edge9" class="edge">
<title>133114105346128&#45;&gt;133114105347280</title>
<path fill="none" stroke="white" d="M1004.01,-1211.14C1012.2,-1228.32 1023,-1255.77 1023,-1281 1023,-1281 1023,-1281 1023,-1459 1023,-1482.51 1025.19,-1492.96 1009,-1510 1004.25,-1515 998.76,-1519.29 992.85,-1522.97"/>
<polygon fill="white" stroke="white" points="983.9,-1527.93 994.35,-1526.14 992.65,-1523.08 983.9,-1527.93"/>
<g id="a_edge9&#45;label"><a xlink:title="Output Expressions: &#10; (1) p_partkey&#10; (2) p_brand&#10; (3) p_type&#10; (4) p_size&#10;&#10;Unique Column Combinations: &#10; &lt;none&gt;&#10;&#10;Functional Dependencies (trivial): &#10; &lt;none&gt;&#10;&#10;Functional Dependencies (non&#45;trivial): &#10; (1) {p_partkey} =&gt; {p_brand, p_type, p_size}&#10;">
<text text-anchor="middle" x="1126.5" y="-1366.3" font-family="Times,serif" font-size="14.00" fill="white"> 23,305.5 row(s) | 0.0% estd.</text>
</a>
</g>
</g>
<!-- 133114105346128&#45;&gt;133114105344016 -->
<g id="edge8" class="edge">
<title>133114105346128&#45;&gt;133114105344016</title>
<path fill="none" stroke="white" d="M905.02,-1203.29C871.83,-1208.64 834.43,-1217 802,-1230 790.67,-1234.54 790.54,-1241.03 779,-1245 689.58,-1275.76 661.16,-1254.3 567,-1263 565.23,-1263.16 563.44,-1263.33 561.65,-1263.5"/>
<polygon fill="white" stroke="white" points="551.3,-1264.47 561.59,-1267.02 561.26,-1263.53 551.3,-1264.47"/>
<g id="a_edge8&#45;label"><a xlink:title="Output Expressions: &#10; (1) p_partkey&#10; (2) p_brand&#10; (3) p_type&#10; (4) p_size&#10;&#10;Unique Column Combinations: &#10; &lt;none&gt;&#10;&#10;Functional Dependencies (trivial): &#10; &lt;none&gt;&#10;&#10;Functional Dependencies (non&#45;trivial): &#10; (1) {p_partkey} =&gt; {p_brand, p_type, p_size}&#10;">
<text text-anchor="middle" x="905.5" y="-1233.8" font-family="Times,serif" font-size="14.00" fill="white"> 23,305.5 row(s) | 0.0% estd.</text>
</a>
</g>
</g>
<!-- 133114105345936 -->
<g id="node10" class="node">
<title>133114105345936</title>
<polygon fill="none" stroke="white" points="1151.5,-1122 810.5,-1122 810.5,-1086 1151.5,-1086 1151.5,-1122"/>
<text text-anchor="middle" x="981" y="-1100.3" font-family="Times,serif" font-size="14.00" fill="white">[Predicate] p_type &lt; &#39;MEDIUM BURNISHED&#39;</text>
</g>
<!-- 133114105345936&#45;&gt;133114105346128 -->
<g id="edge10" class="edge">
<title>133114105345936&#45;&gt;133114105346128</title>
<path fill="none" stroke="white" d="M983.77,-1122.19C985.72,-1134.34 988.38,-1150.89 990.63,-1164.82"/>
<polygon fill="white" stroke="white" points="990.65,-1164.97 987.2,-1165.53 992.24,-1174.85 990.65,-1164.97"/>
<g id="a_edge10&#45;label"><a xlink:title="Output Expressions: &#10; (1) p_partkey&#10; (2) p_brand&#10; (3) p_type&#10; (4) p_size&#10;&#10;Unique Column Combinations: &#10; &lt;none&gt;&#10;&#10;Functional Dependencies (trivial): &#10; &lt;none&gt;&#10;&#10;Functional Dependencies (non&#45;trivial): &#10; (1) {p_partkey} =&gt; {p_brand, p_type, p_size}&#10;">
<text text-anchor="middle" x="1087" y="-1144.8" font-family="Times,serif" font-size="14.00" fill="white"> 9,577.1 row(s) | 5.0% estd.</text>
</a>
</g>
</g>
<!-- 133163131265104 -->
<g id="node11" class="node">
<title>133163131265104</title>
<polygon fill="none" stroke="white" points="1205.5,-1034 1120.5,-1034 1120.5,-998 1205.5,-998 1205.5,-1034"/>
<text text-anchor="middle" x="1163" y="-1012.3" font-family="Times,serif" font-size="14.00" fill="white">[Validate]</text>
</g>
<!-- 133163131265104&#45;&gt;133114105345936 -->
<g id="edge11" class="edge">
<title>133163131265104&#45;&gt;133114105345936</title>
<path fill="none" stroke="white" d="M1120.33,-1029.64C1102.28,-1035.57 1081.25,-1043.26 1063,-1052 1046.22,-1060.03 1028.58,-1070.69 1013.98,-1080.18"/>
<polygon fill="white" stroke="white" points="1011.73,-1077.47 1005.31,-1085.9 1015.59,-1083.31 1011.73,-1077.47"/>
<g id="a_edge11&#45;label"><a xlink:title="Output Expressions: &#10; (1) p_partkey&#10; (2) p_brand&#10; (3) p_type&#10; (4) p_size&#10;&#10;Unique Column Combinations: &#10; &lt;none&gt;&#10;&#10;Functional Dependencies (trivial): &#10; &lt;none&gt;&#10;&#10;Functional Dependencies (non&#45;trivial): &#10; (1) {p_partkey} =&gt; {p_brand, p_type, p_size}&#10;">
<text text-anchor="middle" x="1180" y="-1055.8" font-family="Times,serif" font-size="14.00" fill="white"> 191,712.4 row(s) | 100.0% estd.</text>
</a>
</g>
</g>
<!-- 133114105345744 -->
<g id="node29" class="node">
<title>133114105345744</title>
<polygon fill="none" stroke="white" points="1522.5,-1122 1169.5,-1122 1169.5,-1086 1522.5,-1086 1522.5,-1122"/>
<text text-anchor="middle" x="1346" y="-1100.3" font-family="Times,serif" font-size="14.00" fill="white">[Predicate] p_type &gt;= &#39;MEDIUM BURNISHEE&#39;</text>
</g>
<!-- 133163131265104&#45;&gt;133114105345744 -->
<g id="edge12" class="edge">
<title>133163131265104&#45;&gt;133114105345744</title>
<path fill="none" stroke="white" d="M1205.74,-1022.06C1233.27,-1026.74 1269,-1035.58 1297,-1052 1308.42,-1058.7 1318.91,-1068.8 1327.23,-1078.25"/>
<polygon fill="white" stroke="white" points="1324.58,-1080.53 1333.68,-1085.95 1329.94,-1076.03 1324.58,-1080.53"/>
<g id="a_edge12&#45;label"><a xlink:title="Output Expressions: &#10; (1) p_partkey&#10; (2) p_brand&#10; (3) p_type&#10; (4) p_size&#10;&#10;Unique Column Combinations: &#10; &lt;none&gt;&#10;&#10;Functional Dependencies (trivial): &#10; &lt;none&gt;&#10;&#10;Functional Dependencies (non&#45;trivial): &#10; (1) {p_partkey} =&gt; {p_brand, p_type, p_size}&#10;">
<text text-anchor="middle" x="1432" y="-1055.8" font-family="Times,serif" font-size="14.00" fill="white"> 191,712.4 row(s) | 100.0% estd.</text>
</a>
</g>
</g>
<!-- 133114105344208 -->
<g id="node12" class="node">
<title>133114105344208</title>
<polygon fill="none" stroke="white" points="1296,-947 1030,-947 1030,-911 1296,-911 1296,-947"/>
<text text-anchor="middle" x="1163" y="-925.3" font-family="Times,serif" font-size="14.00" fill="white">[Predicate] p_brand != &#39;Brand#11&#39;</text>
</g>
<!-- 133114105344208&#45;&gt;133163131265104 -->
<g id="edge13" class="edge">
<title>133114105344208&#45;&gt;133163131265104</title>
<path fill="none" stroke="white" d="M1163,-947.2C1163,-958.84 1163,-974.45 1163,-987.76"/>
<polygon fill="white" stroke="white" points="1159.5,-987.82 1163,-997.82 1166.5,-987.82 1159.5,-987.82"/>
<g id="a_edge13&#45;label"><a xlink:title="Output Expressions: &#10; (1) p_partkey&#10; (2) p_brand&#10; (3) p_type&#10; (4) p_size&#10;&#10;Unique Column Combinations: &#10; &lt;none&gt;&#10;&#10;Functional Dependencies (trivial): &#10; &lt;none&gt;&#10;&#10;Functional Dependencies (non&#45;trivial): &#10; (1) {p_partkey} =&gt; {p_brand, p_type, p_size}&#10;">
<text text-anchor="middle" x="1275.5" y="-968.8" font-family="Times,serif" font-size="14.00" fill="white"> 191,712.4 row(s) | 12.0% estd.</text>
</a>
</g>
</g>
<!-- 133114105349200 -->
<g id="node13" class="node">
<title>133114105349200</title>
<polygon fill="none" stroke="white" points="1252.5,-860 1073.5,-860 1073.5,-824 1252.5,-824 1252.5,-860"/>
<text text-anchor="middle" x="1163" y="-838.3" font-family="Times,serif" font-size="14.00" fill="white">[UnionNode] Mode: All</text>
</g>
<!-- 133114105349200&#45;&gt;133114105344208 -->
<g id="edge14" class="edge">
<title>133114105349200&#45;&gt;133114105344208</title>
<path fill="none" stroke="white" d="M1163,-860.2C1163,-871.84 1163,-887.45 1163,-900.76"/>
<polygon fill="white" stroke="white" points="1159.5,-900.82 1163,-910.82 1166.5,-900.82 1159.5,-900.82"/>
<g id="a_edge14&#45;label"><a xlink:title="Output Expressions: &#10; (1) p_partkey&#10; (2) p_brand&#10; (3) p_type&#10; (4) p_size&#10;&#10;Unique Column Combinations: &#10; &lt;none&gt;&#10;&#10;Functional Dependencies (trivial): &#10; &lt;none&gt;&#10;&#10;Functional Dependencies (non&#45;trivial): &#10; (1) {p_partkey} =&gt; {p_brand, p_type, p_size}&#10;">
<text text-anchor="middle" x="1277.5" y="-881.8" font-family="Times,serif" font-size="14.00" fill="white"> 1,598,807.0 row(s) | 0.0% estd.</text>
</a>
</g>
</g>
<!-- 133114105349008 -->
<g id="node14" class="node">
<title>133114105349008</title>
<polygon fill="none" stroke="white" points="1090.5,-773 911.5,-773 911.5,-737 1090.5,-737 1090.5,-773"/>
<text text-anchor="middle" x="1001" y="-751.3" font-family="Times,serif" font-size="14.00" fill="white">[UnionNode] Mode: All</text>
</g>
<!-- 133114105349008&#45;&gt;133114105349200 -->
<g id="edge15" class="edge">
<title>133114105349008&#45;&gt;133114105349200</title>
<path fill="none" stroke="white" d="M1033.78,-773.2C1059.12,-786.49 1094.35,-804.98 1121.62,-819.29"/>
<polygon fill="white" stroke="white" points="1121.69,-819.32 1120.06,-822.42 1130.54,-823.97 1121.69,-819.32"/>
<g id="a_edge15&#45;label"><a xlink:title="Output Expressions: &#10; (1) p_partkey&#10; (2) p_brand&#10; (3) p_type&#10; (4) p_size&#10;&#10;Unique Column Combinations: &#10; &lt;none&gt;&#10;&#10;Functional Dependencies (trivial): &#10; &lt;none&gt;&#10;&#10;Functional Dependencies (non&#45;trivial): &#10; (1) {p_partkey} =&gt; {p_brand, p_type, p_size}&#10;">
<text text-anchor="middle" x="1205.5" y="-794.8" font-family="Times,serif" font-size="14.00" fill="white"> 1,398,866.0 row(s) | 0.0% estd.</text>
</a>
</g>
</g>
<!-- 133114105348816 -->
<g id="node15" class="node">
<title>133114105348816</title>
<polygon fill="none" stroke="white" points="1090.5,-665 911.5,-665 911.5,-629 1090.5,-629 1090.5,-665"/>
<text text-anchor="middle" x="1001" y="-643.3" font-family="Times,serif" font-size="14.00" fill="white">[UnionNode] Mode: All</text>
</g>
<!-- 133114105348816&#45;&gt;133114105349008 -->
<g id="edge16" class="edge">
<title>133114105348816&#45;&gt;133114105349008</title>
<path fill="none" stroke="white" d="M1001,-665.03C1001,-681.62 1001,-707.12 1001,-726.57"/>
<polygon fill="white" stroke="white" points="1001,-726.66 997.5,-726.66 1001,-736.66 1001,-726.66"/>
<g id="a_edge16&#45;label"><a xlink:title="Output Expressions: &#10; (1) p_partkey&#10; (2) p_brand&#10; (3) p_type&#10; (4) p_size&#10;&#10;Unique Column Combinations: &#10; &lt;none&gt;&#10;&#10;Functional Dependencies (trivial): &#10; &lt;none&gt;&#10;&#10;Functional Dependencies (non&#45;trivial): &#10; (1) {p_partkey} =&gt; {p_brand, p_type, p_size}&#10;">
<text text-anchor="middle" x="1115.5" y="-697.3" font-family="Times,serif" font-size="14.00" fill="white"> 1,198,640.0 row(s) | 0.0% estd.</text>
</a>
</g>
</g>
<!-- 133114105348624 -->
<g id="node16" class="node">
<title>133114105348624</title>
<polygon fill="none" stroke="white" points="1248.5,-557 1069.5,-557 1069.5,-521 1248.5,-521 1248.5,-557"/>
<text text-anchor="middle" x="1159" y="-535.3" font-family="Times,serif" font-size="14.00" fill="white">[UnionNode] Mode: All</text>
</g>
<!-- 133114105348624&#45;&gt;133114105348816 -->
<g id="edge17" class="edge">
<title>133114105348624&#45;&gt;133114105348816</title>
<path fill="none" stroke="white" d="M1133.61,-557.03C1106.86,-574.98 1064.57,-603.35 1034.96,-623.22"/>
<polygon fill="white" stroke="white" points="1034.89,-623.26 1032.94,-620.36 1026.58,-628.84 1034.89,-623.26"/>
<g id="a_edge17&#45;label"><a xlink:title="Output Expressions: &#10; (1) p_partkey&#10; (2) p_brand&#10; (3) p_type&#10; (4) p_size&#10;&#10;Unique Column Combinations: &#10; &lt;none&gt;&#10;&#10;Functional Dependencies (trivial): &#10; &lt;none&gt;&#10;&#10;Functional Dependencies (non&#45;trivial): &#10; (1) {p_partkey} =&gt; {p_brand, p_type, p_size}&#10;">
<text text-anchor="middle" x="1211" y="-589.3" font-family="Times,serif" font-size="14.00" fill="white"> 998,419.0 row(s) | 0.0% estd.</text>
</a>
</g>
</g>
<!-- 133114105348432 -->
<g id="node17" class="node">
<title>133114105348432</title>
<polygon fill="none" stroke="white" points="1248.5,-449 1069.5,-449 1069.5,-413 1248.5,-413 1248.5,-449"/>
<text text-anchor="middle" x="1159" y="-427.3" font-family="Times,serif" font-size="14.00" fill="white">[UnionNode] Mode: All</text>
</g>
<!-- 133114105348432&#45;&gt;133114105348624 -->
<g id="edge18" class="edge">
<title>133114105348432&#45;&gt;133114105348624</title>
<path fill="none" stroke="white" d="M1159,-449.03C1159,-465.62 1159,-491.12 1159,-510.57"/>
<polygon fill="white" stroke="white" points="1159,-510.66 1155.5,-510.66 1159,-520.66 1159,-510.66"/>
<g id="a_edge18&#45;label"><a xlink:title="Output Expressions: &#10; (1) p_partkey&#10; (2) p_brand&#10; (3) p_type&#10; (4) p_size&#10;&#10;Unique Column Combinations: &#10; &lt;none&gt;&#10;&#10;Functional Dependencies (trivial): &#10; &lt;none&gt;&#10;&#10;Functional Dependencies (non&#45;trivial): &#10; (1) {p_partkey} =&gt; {p_brand, p_type, p_size}&#10;">
<text text-anchor="middle" x="1267" y="-481.3" font-family="Times,serif" font-size="14.00" fill="white"> 799,097.0 row(s) | 0.0% estd.</text>
</a>
</g>
</g>
<!-- 133114105348240 -->
<g id="node18" class="node">
<title>133114105348240</title>
<polygon fill="none" stroke="white" points="1145.5,-341 966.5,-341 966.5,-305 1145.5,-305 1145.5,-341"/>
<text text-anchor="middle" x="1056" y="-319.3" font-family="Times,serif" font-size="14.00" fill="white">[UnionNode] Mode: All</text>
</g>
<!-- 133114105348240&#45;&gt;133114105348432 -->
<g id="edge19" class="edge">
<title>133114105348240&#45;&gt;133114105348432</title>
<path fill="none" stroke="white" d="M1052.65,-341.03C1050.6,-356.67 1050.25,-379.69 1062,-395 1065.63,-399.73 1069.96,-403.82 1074.74,-407.37"/>
<polygon fill="white" stroke="white" points="1074.78,-407.39 1072.88,-410.33 1083.18,-412.82 1074.78,-407.39"/>
<g id="a_edge19&#45;label"><a xlink:title="Output Expressions: &#10; (1) p_partkey&#10; (2) p_brand&#10; (3) p_type&#10; (4) p_size&#10;&#10;Unique Column Combinations: &#10; &lt;none&gt;&#10;&#10;Functional Dependencies (trivial): &#10; &lt;none&gt;&#10;&#10;Functional Dependencies (non&#45;trivial): &#10; (1) {p_partkey} =&gt; {p_brand, p_type, p_size}&#10;">
<text text-anchor="middle" x="1170" y="-373.3" font-family="Times,serif" font-size="14.00" fill="white"> 599,474.0 row(s) | 0.0% estd.</text>
</a>
</g>
</g>
<!-- 133114105348048 -->
<g id="node19" class="node">
<title>133114105348048</title>
<polygon fill="none" stroke="white" points="897.5,-233 718.5,-233 718.5,-197 897.5,-197 897.5,-233"/>
<text text-anchor="middle" x="808" y="-211.3" font-family="Times,serif" font-size="14.00" fill="white">[UnionNode] Mode: All</text>
</g>
<!-- 133114105348048&#45;&gt;133114105348240 -->
<g id="edge20" class="edge">
<title>133114105348048&#45;&gt;133114105348240</title>
<path fill="none" stroke="white" d="M807.34,-233C807.71,-249.32 811.02,-273.42 826,-287 845.25,-304.46 903.28,-313.21 956.23,-317.6"/>
<polygon fill="white" stroke="white" points="956.42,-317.61 956.15,-321.1 966.39,-318.39 956.42,-317.61"/>
<g id="a_edge20&#45;label"><a xlink:title="Output Expressions: &#10; (1) p_partkey&#10; (2) p_brand&#10; (3) p_type&#10; (4) p_size&#10;&#10;Unique Column Combinations: &#10; &lt;none&gt;&#10;&#10;Functional Dependencies (trivial): &#10; &lt;none&gt;&#10;&#10;Functional Dependencies (non&#45;trivial): &#10; (1) {p_partkey} =&gt; {p_brand, p_type, p_size}&#10;">
<text text-anchor="middle" x="934" y="-265.3" font-family="Times,serif" font-size="14.00" fill="white"> 399,487.0 row(s) | 0.0% estd.</text>
</a>
</g>
</g>
<!-- 133114105346896 -->
<g id="node20" class="node">
<title>133114105346896</title>
<polygon fill="none" stroke="white" points="654,-125 472,-125 472,-89 654,-89 654,-125"/>
<text text-anchor="middle" x="563" y="-103.3" font-family="Times,serif" font-size="14.00" fill="white">[Predicate] p_size = 21</text>
</g>
<!-- 133114105346896&#45;&gt;133114105348048 -->
<g id="edge21" class="edge">
<title>133114105346896&#45;&gt;133114105348048</title>
<path fill="none" stroke="white" d="M552.45,-125.03C544.12,-140.9 535.88,-164.27 549,-179 572.06,-204.9 669.66,-192.2 704,-197 705.47,-197.21 706.96,-197.42 708.45,-197.63"/>
<polygon fill="white" stroke="white" points="708.51,-197.64 708.01,-201.1 718.41,-199.08 708.51,-197.64"/>
<g id="a_edge21&#45;label"><a xlink:title="Output Expressions: &#10; (1) p_partkey&#10; (2) p_brand&#10; (3) p_type&#10; (4) p_size&#10;&#10;Unique Column Combinations: &#10; (1) {p_partkey}&#10;&#10;Functional Dependencies (trivial): &#10; (1) {p_partkey} =&gt; {p_brand, p_type, p_size}&#10;&#10;Functional Dependencies (non&#45;trivial): &#10; &lt;none&gt;">
<text text-anchor="middle" x="657" y="-157.3" font-family="Times,serif" font-size="14.00" fill="white"> 199,684.0 row(s) | 2.0% estd.</text>
</a>
</g>
</g>
<!-- 133102279808272 -->
<g id="node21" class="node">
<title>133102279808272</title>
<polygon fill="none" stroke="white" points="1085.5,-38 704.5,-38 704.5,0 1085.5,0 1085.5,-38"/>
<text text-anchor="middle" x="895" y="-22.8" font-family="Times,serif" font-size="14.00" fill="white">[StoredTable] Name: &#39;part&#39; pruned: 0/153 chunk(s),</text>
<text text-anchor="middle" x="895" y="-7.8" font-family="Times,serif" font-size="14.00" fill="white">5/9 column(s)</text>
</g>
<!-- 133102279808272&#45;&gt;133114105346896 -->
<g id="edge22" class="edge">
<title>133102279808272&#45;&gt;133114105346896</title>
<path fill="none" stroke="white" stroke-width="4.58" d="M704.31,-25.59C607.53,-30.45 507.14,-39.45 492,-56 482.4,-66.49 489.52,-76.04 502.33,-83.92"/>
<polygon fill="white" stroke="white" stroke-width="4.58" points="500.76,-87.62 511.46,-88.85 504.57,-80.57 500.76,-87.62"/>
<g id="a_edge22&#45;label"><a xlink:title="Output Expressions: &#10; (1) p_partkey&#10; (2) p_brand&#10; (3) p_type&#10; (4) p_size&#10;&#10;Unique Column Combinations: &#10; (1) {p_partkey}&#10;&#10;Functional Dependencies (trivial): &#10; (1) {p_partkey} =&gt; {p_brand, p_type, p_size}&#10;&#10;Functional Dependencies (non&#45;trivial): &#10; &lt;none&gt;">
<text text-anchor="middle" x="620" y="-59.8" font-family="Times,serif" font-size="14.00" fill="white"> 10,000,000.0 row(s) | 100.0% estd.</text>
</a>
</g>
</g>
<!-- 133114105344400 -->
<g id="node22" class="node">
<title>133114105344400</title>
<polygon fill="none" stroke="white" points="856.5,-125 683.5,-125 683.5,-89 856.5,-89 856.5,-125"/>
<text text-anchor="middle" x="770" y="-103.3" font-family="Times,serif" font-size="14.00" fill="white">[Predicate] p_size = 5</text>
</g>
<!-- 133102279808272&#45;&gt;133114105344400 -->
<g id="edge23" class="edge">
<title>133102279808272&#45;&gt;133114105344400</title>
<path fill="none" stroke="white" stroke-width="4.58" d="M792.39,-38.03C775.93,-42.93 762.49,-48.9 757,-56 751.8,-62.73 752.24,-71.34 754.85,-79.51"/>
<polygon fill="white" stroke="white" stroke-width="4.58" points="751.16,-81.08 758.71,-88.77 758.56,-77.99 751.16,-81.08"/>
<g id="a_edge23&#45;label"><a xlink:title="Output Expressions: &#10; (1) p_partkey&#10; (2) p_brand&#10; (3) p_type&#10; (4) p_size&#10;&#10;Unique Column Combinations: &#10; (1) {p_partkey}&#10;&#10;Functional Dependencies (trivial): &#10; (1) {p_partkey} =&gt; {p_brand, p_type, p_size}&#10;&#10;Functional Dependencies (non&#45;trivial): &#10; &lt;none&gt;">
<text text-anchor="middle" x="885" y="-59.8" font-family="Times,serif" font-size="14.00" fill="white"> 10,000,000.0 row(s) | 100.0% estd.</text>
</a>
</g>
</g>
<!-- 133114105345168 -->
<g id="node23" class="node">
<title>133114105345168</title>
<polygon fill="none" stroke="white" points="1184,-179 1002,-179 1002,-143 1184,-143 1184,-179"/>
<text text-anchor="middle" x="1093" y="-157.3" font-family="Times,serif" font-size="14.00" fill="white">[Predicate] p_size = 39</text>
</g>
<!-- 133102279808272&#45;&gt;133114105345168 -->
<g id="edge24" class="edge">
<title>133102279808272&#45;&gt;133114105345168</title>
<path fill="none" stroke="white" stroke-width="4.58" d="M977.7,-38.01C990.14,-42.72 1002.35,-48.62 1013,-56 1042.26,-76.26 1065.61,-110.54 1079.36,-134.17"/>
<polygon fill="white" stroke="white" stroke-width="4.58" points="1075.91,-136.22 1084.32,-142.96 1082.89,-132.28 1075.91,-136.22"/>
<g id="a_edge24&#45;label"><a xlink:title="Output Expressions: &#10; (1) p_partkey&#10; (2) p_brand&#10; (3) p_type&#10; (4) p_size&#10;&#10;Unique Column Combinations: &#10; (1) {p_partkey}&#10;&#10;Functional Dependencies (trivial): &#10; (1) {p_partkey} =&gt; {p_brand, p_type, p_size}&#10;&#10;Functional Dependencies (non&#45;trivial): &#10; &lt;none&gt;">
<text text-anchor="middle" x="1158" y="-59.8" font-family="Times,serif" font-size="14.00" fill="white"> 10,000,000.0 row(s) | 100.0% estd.</text>
</a>
</g>
</g>
<!-- 133114105344976 -->
<g id="node24" class="node">
<title>133114105344976</title>
<polygon fill="none" stroke="white" points="1385,-287 1203,-287 1203,-251 1385,-251 1385,-287"/>
<text text-anchor="middle" x="1294" y="-265.3" font-family="Times,serif" font-size="14.00" fill="white">[Predicate] p_size = 17</text>
</g>
<!-- 133102279808272&#45;&gt;133114105344976 -->
<g id="edge25" class="edge">
<title>133102279808272&#45;&gt;133114105344976</title>
<path fill="none" stroke="white" stroke-width="4.58" d="M1085.7,-26.14C1179.31,-31.15 1275.22,-40.12 1290,-56 1314.23,-82.04 1304.16,-189.58 1297.76,-240.73"/>
<polygon fill="white" stroke="white" stroke-width="4.58" points="1293.78,-240.31 1296.47,-250.74 1301.73,-241.34 1293.78,-240.31"/>
<g id="a_edge25&#45;label"><a xlink:title="Output Expressions: &#10; (1) p_partkey&#10; (2) p_brand&#10; (3) p_type&#10; (4) p_size&#10;&#10;Unique Column Combinations: &#10; (1) {p_partkey}&#10;&#10;Functional Dependencies (trivial): &#10; (1) {p_partkey} =&gt; {p_brand, p_type, p_size}&#10;&#10;Functional Dependencies (non&#45;trivial): &#10; &lt;none&gt;">
<text text-anchor="middle" x="1433" y="-103.3" font-family="Times,serif" font-size="14.00" fill="white"> 10,000,000.0 row(s) | 100.0% estd.</text>
</a>
</g>
</g>
<!-- 133114105344592 -->
<g id="node25" class="node">
<title>133114105344592</title>
<polygon fill="none" stroke="white" points="1580,-395 1398,-395 1398,-359 1580,-359 1580,-395"/>
<text text-anchor="middle" x="1489" y="-373.3" font-family="Times,serif" font-size="14.00" fill="white">[Predicate] p_size = 14</text>
</g>
<!-- 133102279808272&#45;&gt;133114105344592 -->
<g id="edge26" class="edge">
<title>133102279808272&#45;&gt;133114105344592</title>
<path fill="none" stroke="white" stroke-width="4.58" d="M1085.55,-25.65C1289.48,-34.31 1584,-55.56 1584,-106 1584,-106 1584,-106 1584,-270 1584,-305.57 1553.97,-334.65 1527.68,-353.29"/>
<polygon fill="white" stroke="white" stroke-width="4.58" points="1525.34,-350.04 1519.32,-358.97 1529.84,-356.67 1525.34,-350.04"/>
<g id="a_edge26&#45;label"><a xlink:title="Output Expressions: &#10; (1) p_partkey&#10; (2) p_brand&#10; (3) p_type&#10; (4) p_size&#10;&#10;Unique Column Combinations: &#10; (1) {p_partkey}&#10;&#10;Functional Dependencies (trivial): &#10; (1) {p_partkey} =&gt; {p_brand, p_type, p_size}&#10;&#10;Functional Dependencies (non&#45;trivial): &#10; &lt;none&gt;">
<text text-anchor="middle" x="1712" y="-157.3" font-family="Times,serif" font-size="14.00" fill="white"> 10,000,000.0 row(s) | 100.0% estd.</text>
</a>
</g>
</g>
<!-- 133114105347472 -->
<g id="node26" class="node">
<title>133114105347472</title>
<polygon fill="none" stroke="white" points="635,-503 453,-503 453,-467 635,-467 635,-503"/>
<text text-anchor="middle" x="544" y="-481.3" font-family="Times,serif" font-size="14.00" fill="white">[Predicate] p_size = 15</text>
</g>
<!-- 133102279808272&#45;&gt;133114105347472 -->
<g id="edge27" class="edge">
<title>133102279808272&#45;&gt;133114105347472</title>
<path fill="none" stroke="white" stroke-width="4.58" d="M704.26,-22.42C615.91,-26.4 522.16,-35.56 484,-56 458.91,-69.44 444,-77.54 444,-106 444,-106 444,-106 444,-378 444,-414.07 475.02,-442.84 502.5,-461.25"/>
<polygon fill="white" stroke="white" stroke-width="4.58" points="500.67,-464.84 511.26,-466.87 505,-458.1 500.67,-464.84"/>
<g id="a_edge27&#45;label"><a xlink:title="Output Expressions: &#10; (1) p_partkey&#10; (2) p_brand&#10; (3) p_type&#10; (4) p_size&#10;&#10;Unique Column Combinations: &#10; (1) {p_partkey}&#10;&#10;Functional Dependencies (trivial): &#10; (1) {p_partkey} =&gt; {p_brand, p_type, p_size}&#10;&#10;Functional Dependencies (non&#45;trivial): &#10; &lt;none&gt;">
<text text-anchor="middle" x="572" y="-211.3" font-family="Times,serif" font-size="14.00" fill="white"> 10,000,000.0 row(s) | 100.0% estd.</text>
</a>
</g>
</g>
<!-- 133114105347856 -->
<g id="node27" class="node">
<title>133114105347856</title>
<polygon fill="none" stroke="white" points="451,-611 269,-611 269,-575 451,-575 451,-611"/>
<text text-anchor="middle" x="360" y="-589.3" font-family="Times,serif" font-size="14.00" fill="white">[Predicate] p_size = 42</text>
</g>
<!-- 133102279808272&#45;&gt;133114105347856 -->
<g id="edge28" class="edge">
<title>133102279808272&#45;&gt;133114105347856</title>
<path fill="none" stroke="white" stroke-width="4.58" d="M704.36,-24.47C490.45,-32.09 173,-52.43 173,-106 173,-106 173,-106 173,-486 173,-531.28 215.02,-557.45 259.22,-572.46"/>
<polygon fill="white" stroke="white" stroke-width="4.58" points="258.22,-576.35 268.97,-575.58 260.67,-568.71 258.22,-576.35"/>
<g id="a_edge28&#45;label"><a xlink:title="Output Expressions: &#10; (1) p_partkey&#10; (2) p_brand&#10; (3) p_type&#10; (4) p_size&#10;&#10;Unique Column Combinations: &#10; (1) {p_partkey}&#10;&#10;Functional Dependencies (trivial): &#10; (1) {p_partkey} =&gt; {p_brand, p_type, p_size}&#10;&#10;Functional Dependencies (non&#45;trivial): &#10; &lt;none&gt;">
<text text-anchor="middle" x="301" y="-265.3" font-family="Times,serif" font-size="14.00" fill="white"> 10,000,000.0 row(s) | 100.0% estd.</text>
</a>
</g>
</g>
<!-- 133114105347664 -->
<g id="node28" class="node">
<title>133114105347664</title>
<polygon fill="none" stroke="white" points="1630,-719 1448,-719 1448,-683 1630,-683 1630,-719"/>
<text text-anchor="middle" x="1539" y="-697.3" font-family="Times,serif" font-size="14.00" fill="white">[Predicate] p_size = 28</text>
</g>
<!-- 133102279808272&#45;&gt;133114105347664 -->
<g id="edge29" class="edge">
<title>133102279808272&#45;&gt;133114105347664</title>
<path fill="none" stroke="white" stroke-width="4.58" d="M1085.53,-27.69C1365.44,-40.28 1855,-67.76 1855,-106 1855,-106 1855,-106 1855,-594 1855,-640.06 1732.79,-669.83 1640.38,-685.75"/>
<polygon fill="white" stroke="white" stroke-width="4.58" points="1639.59,-681.82 1630.4,-687.44 1640.93,-689.72 1639.59,-681.82"/>
<g id="a_edge29&#45;label"><a xlink:title="Output Expressions: &#10; (1) p_partkey&#10; (2) p_brand&#10; (3) p_type&#10; (4) p_size&#10;&#10;Unique Column Combinations: &#10; (1) {p_partkey}&#10;&#10;Functional Dependencies (trivial): &#10; (1) {p_partkey} =&gt; {p_brand, p_type, p_size}&#10;&#10;Functional Dependencies (non&#45;trivial): &#10; &lt;none&gt;">
<text text-anchor="middle" x="1983" y="-319.3" font-family="Times,serif" font-size="14.00" fill="white"> 10,000,000.0 row(s) | 100.0% estd.</text>
</a>
</g>
</g>
<!-- 133114105344400&#45;&gt;133114105348048 -->
<g id="edge30" class="edge">
<title>133114105344400&#45;&gt;133114105348048</title>
<path fill="none" stroke="white" d="M768.8,-125.09C768.41,-139.95 769.47,-161.75 777,-179 778.48,-182.4 780.42,-185.7 782.61,-188.83"/>
<polygon fill="white" stroke="white" points="788.84,-196.66 785.36,-186.65 782.62,-188.83 788.84,-196.66"/>
<g id="a_edge30&#45;label"><a xlink:title="Output Expressions: &#10; (1) p_partkey&#10; (2) p_brand&#10; (3) p_type&#10; (4) p_size&#10;&#10;Unique Column Combinations: &#10; (1) {p_partkey}&#10;&#10;Functional Dependencies (trivial): &#10; (1) {p_partkey} =&gt; {p_brand, p_type, p_size}&#10;&#10;Functional Dependencies (non&#45;trivial): &#10; &lt;none&gt;">
<text text-anchor="middle" x="885" y="-157.3" font-family="Times,serif" font-size="14.00" fill="white"> 199,803.0 row(s) | 2.0% estd.</text>
</a>
</g>
</g>
<!-- 133114105345168&#45;&gt;133114105348240 -->
<g id="edge31" class="edge">
<title>133114105345168&#45;&gt;133114105348240</title>
<path fill="none" stroke="white" d="M1079.33,-179.3C1075.72,-184.69 1072.22,-190.84 1070,-197 1058.39,-229.17 1055.74,-268.77 1055.44,-294.66"/>
<polygon fill="white" stroke="white" points="1055.44,-304.86 1058.94,-294.86 1055.44,-294.86 1055.44,-304.86"/>
<g id="a_edge31&#45;label"><a xlink:title="Output Expressions: &#10; (1) p_partkey&#10; (2) p_brand&#10; (3) p_type&#10; (4) p_size&#10;&#10;Unique Column Combinations: &#10; (1) {p_partkey}&#10;&#10;Functional Dependencies (trivial): &#10; (1) {p_partkey} =&gt; {p_brand, p_type, p_size}&#10;&#10;Functional Dependencies (non&#45;trivial): &#10; &lt;none&gt;">
<text text-anchor="middle" x="1178" y="-211.3" font-family="Times,serif" font-size="14.00" fill="white"> 199,987.0 row(s) | 2.0% estd.</text>
</a>
</g>
</g>
<!-- 133114105344976&#45;&gt;133114105348432 -->
<g id="edge32" class="edge">
<title>133114105344976&#45;&gt;133114105348432</title>
<path fill="none" stroke="white" d="M1297.18,-287.26C1300.99,-313.75 1303.98,-364.53 1278,-395 1272.33,-401.65 1265.46,-407.08 1257.92,-411.5"/>
<polygon fill="white" stroke="white" points="1248.79,-416.23 1259.28,-414.73 1257.66,-411.63 1248.79,-416.23"/>
<g id="a_edge32&#45;label"><a xlink:title="Output Expressions: &#10; (1) p_partkey&#10; (2) p_brand&#10; (3) p_type&#10; (4) p_size&#10;&#10;Unique Column Combinations: &#10; (1) {p_partkey}&#10;&#10;Functional Dependencies (trivial): &#10; (1) {p_partkey} =&gt; {p_brand, p_type, p_size}&#10;&#10;Functional Dependencies (non&#45;trivial): &#10; &lt;none&gt;">
<text text-anchor="middle" x="1407" y="-319.3" font-family="Times,serif" font-size="14.00" fill="white"> 199,623.0 row(s) | 2.0% estd.</text>
</a>
</g>
</g>
<!-- 133114105344592&#45;&gt;133114105348624 -->
<g id="edge33" class="edge">
<title>133114105344592&#45;&gt;133114105348624</title>
<path fill="none" stroke="white" d="M1479.39,-395.11C1462.82,-422.83 1426.1,-477.06 1379,-503 1358.21,-514.45 1306.76,-522.97 1258.84,-528.73"/>
<polygon fill="white" stroke="white" points="1248.69,-529.92 1259.02,-532.24 1258.62,-528.76 1248.69,-529.92"/>
<g id="a_edge33&#45;label"><a xlink:title="Output Expressions: &#10; (1) p_partkey&#10; (2) p_brand&#10; (3) p_type&#10; (4) p_size&#10;&#10;Unique Column Combinations: &#10; (1) {p_partkey}&#10;&#10;Functional Dependencies (trivial): &#10; (1) {p_partkey} =&gt; {p_brand, p_type, p_size}&#10;&#10;Functional Dependencies (non&#45;trivial): &#10; &lt;none&gt;">
<text text-anchor="middle" x="1575" y="-427.3" font-family="Times,serif" font-size="14.00" fill="white"> 199,322.0 row(s) | 2.0% estd.</text>
</a>
</g>
</g>
<!-- 133114105347472&#45;&gt;133114105348816 -->
<g id="edge34" class="edge">
<title>133114105347472&#45;&gt;133114105348816</title>
<path fill="none" stroke="white" d="M592.91,-503.12C677.66,-532.8 851.48,-593.65 942.49,-625.51"/>
<polygon fill="white" stroke="white" points="952.1,-628.88 943.82,-622.27 942.66,-625.58 952.1,-628.88"/>
<g id="a_edge34&#45;label"><a xlink:title="Output Expressions: &#10; (1) p_partkey&#10; (2) p_brand&#10; (3) p_type&#10; (4) p_size&#10;&#10;Unique Column Combinations: &#10; (1) {p_partkey}&#10;&#10;Functional Dependencies (trivial): &#10; (1) {p_partkey} =&gt; {p_brand, p_type, p_size}&#10;&#10;Functional Dependencies (non&#45;trivial): &#10; &lt;none&gt;">
<text text-anchor="middle" x="851" y="-535.3" font-family="Times,serif" font-size="14.00" fill="white"> 200,221.0 row(s) | 2.0% estd.</text>
</a>
</g>
</g>
<!-- 133114105347856&#45;&gt;133114105349008 -->
<g id="edge35" class="edge">
<title>133114105347856&#45;&gt;133114105349008</title>
<path fill="none" stroke="white" d="M428.29,-611.05C548.27,-641 796.15,-702.87 922.8,-734.48"/>
<polygon fill="white" stroke="white" points="932.82,-736.98 923.96,-731.16 923.12,-734.56 932.82,-736.98"/>
<g id="a_edge35&#45;label"><a xlink:title="Output Expressions: &#10; (1) p_partkey&#10; (2) p_brand&#10; (3) p_type&#10; (4) p_size&#10;&#10;Unique Column Combinations: &#10; (1) {p_partkey}&#10;&#10;Functional Dependencies (trivial): &#10; (1) {p_partkey} =&gt; {p_brand, p_type, p_size}&#10;&#10;Functional Dependencies (non&#45;trivial): &#10; &lt;none&gt;">
<text text-anchor="middle" x="747" y="-643.3" font-family="Times,serif" font-size="14.00" fill="white"> 200,226.0 row(s) | 2.0% estd.</text>
</a>
</g>
</g>
<!-- 133114105347664&#45;&gt;133114105349200 -->
<g id="edge36" class="edge">
<title>133114105347664&#45;&gt;133114105349200</title>
<path fill="none" stroke="white" d="M1509.34,-719.15C1468.74,-741.96 1392.98,-782.19 1324,-806 1304.48,-812.74 1283.17,-818.46 1262.63,-823.2"/>
<polygon fill="white" stroke="white" points="1252.61,-825.45 1263.14,-826.67 1262.37,-823.25 1252.61,-825.45"/>
<g id="a_edge36&#45;label"><a xlink:title="Output Expressions: &#10; (1) p_partkey&#10; (2) p_brand&#10; (3) p_type&#10; (4) p_size&#10;&#10;Unique Column Combinations: &#10; (1) {p_partkey}&#10;&#10;Functional Dependencies (trivial): &#10; (1) {p_partkey} =&gt; {p_brand, p_type, p_size}&#10;&#10;Functional Dependencies (non&#45;trivial): &#10; &lt;none&gt;">
<text text-anchor="middle" x="1584" y="-751.3" font-family="Times,serif" font-size="14.00" fill="white"> 199,941.0 row(s) | 2.0% estd.</text>
</a>
</g>
</g>
<!-- 133114105345744&#45;&gt;133114105346128 -->
<g id="edge37" class="edge">
<title>133114105345744&#45;&gt;133114105346128</title>
<path fill="none" stroke="white" d="M1299.38,-1122.05C1268.62,-1132.85 1227.28,-1146.51 1190,-1156 1159.29,-1163.82 1125.46,-1170.67 1094.72,-1176.23"/>
<polygon fill="white" stroke="white" points="1084.85,-1178 1095.31,-1179.68 1094.7,-1176.24 1084.85,-1178"/>
<g id="a_edge37&#45;label"><a xlink:title="Output Expressions: &#10; (1) p_partkey&#10; (2) p_brand&#10; (3) p_type&#10; (4) p_size&#10;&#10;Unique Column Combinations: &#10; &lt;none&gt;&#10;&#10;Functional Dependencies (trivial): &#10; &lt;none&gt;&#10;&#10;Functional Dependencies (non&#45;trivial): &#10; (1) {p_partkey} =&gt; {p_brand, p_type, p_size}&#10;">
<text text-anchor="middle" x="1345.5" y="-1144.8" font-family="Times,serif" font-size="14.00" fill="white"> 13,728.4 row(s) | 7.2% estd.</text>
</a>
</g>
</g>
<!-- 133163131266704 -->
<g id="node30" class="node">
<title>133163131266704</title>
<polygon fill="none" stroke="white" points="712,-1388 534,-1388 534,-1352 712,-1352 712,-1388"/>
<text text-anchor="middle" x="623" y="-1366.3" font-family="Times,serif" font-size="14.00" fill="white">[Projection] s_suppkey</text>
</g>
<!-- 133163131266704&#45;&gt;133114105345360 -->
<g id="edge38" class="edge">
<title>133163131266704&#45;&gt;133114105345360</title>
<path fill="none" stroke="white" d="M623.61,-1388.4C624.01,-1399.94 624.55,-1415.35 625.01,-1428.64"/>
<polygon fill="white" stroke="white" points="625.36,-1438.73 628.51,-1428.62 625.01,-1428.74 625.36,-1438.73"/>
<g id="a_edge38&#45;label"><a xlink:title="Output Expressions: &#10; (1) s_suppkey&#10;&#10;Unique Column Combinations: &#10; (1) {s_suppkey}&#10;&#10;Functional Dependencies (trivial): &#10; &lt;none&gt;&#10;&#10;Functional Dependencies (non&#45;trivial): &#10; &lt;none&gt;">
<text text-anchor="middle" x="736.5" y="-1409.8" font-family="Times,serif" font-size="14.00" fill="white"> 50,000.0 row(s) | 100.0% estd.</text>
</a>
</g>
</g>
<!-- 133163131267184 -->
<g id="node31" class="node">
<title>133163131267184</title>
<polygon fill="none" stroke="white" points="661.5,-1300 576.5,-1300 576.5,-1264 661.5,-1264 661.5,-1300"/>
<text text-anchor="middle" x="619" y="-1278.3" font-family="Times,serif" font-size="14.00" fill="white">[Validate]</text>
</g>
<!-- 133163131267184&#45;&gt;133163131266704 -->
<g id="edge39" class="edge">
<title>133163131267184&#45;&gt;133163131266704</title>
<path fill="none" stroke="white" d="M619.81,-1300.4C620.36,-1312.25 621.1,-1328.18 621.73,-1341.71"/>
<polygon fill="white" stroke="white" points="618.24,-1342.09 622.21,-1351.92 625.24,-1341.76 618.24,-1342.09"/>
<g id="a_edge39&#45;label"><a xlink:title="Output Expressions: &#10; (1) s_suppkey&#10; (2) s_comment&#10;&#10;Unique Column Combinations: &#10; (1) {s_suppkey}&#10;&#10;Functional Dependencies (trivial): &#10; (1) {s_suppkey} =&gt; {s_comment}&#10;&#10;Functional Dependencies (non&#45;trivial): &#10; &lt;none&gt;">
<text text-anchor="middle" x="733.5" y="-1322.8" font-family="Times,serif" font-size="14.00" fill="white"> 50,000.0 row(s) | 100.0% estd.</text>
</a>
</g>
</g>
<!-- 133114105345552 -->
<g id="node32" class="node">
<title>133114105345552</title>
<polygon fill="none" stroke="white" points="787.5,-1211 364.5,-1211 364.5,-1175 787.5,-1175 787.5,-1211"/>
<text text-anchor="middle" x="576" y="-1189.3" font-family="Times,serif" font-size="14.00" fill="white">[Predicate] s_comment LIKE &#39;%Customer%Complaints%&#39;</text>
</g>
<!-- 133114105345552&#45;&gt;133163131267184 -->
<g id="edge40" class="edge">
<title>133114105345552&#45;&gt;133163131267184</title>
<path fill="none" stroke="white" d="M565.52,-1211.33C560.75,-1221.59 557.31,-1234.57 563,-1245 565.53,-1249.64 568.94,-1253.76 572.84,-1257.42"/>
<polygon fill="white" stroke="white" points="570.85,-1260.31 580.83,-1263.87 575.25,-1254.86 570.85,-1260.31"/>
<g id="a_edge40&#45;label"><a xlink:title="Output Expressions: &#10; (1) s_suppkey&#10; (2) s_comment&#10;&#10;Unique Column Combinations: &#10; (1) {s_suppkey}&#10;&#10;Functional Dependencies (trivial): &#10; (1) {s_suppkey} =&gt; {s_comment}&#10;&#10;Functional Dependencies (non&#45;trivial): &#10; &lt;none&gt;">
<text text-anchor="middle" x="671" y="-1233.8" font-family="Times,serif" font-size="14.00" fill="white"> 50,000.0 row(s) | 10.0% estd.</text>
</a>
</g>
</g>
<!-- 133102279809232 -->
<g id="node33" class="node">
<title>133102279809232</title>
<polygon fill="none" stroke="white" points="737,-1123 415,-1123 415,-1085 737,-1085 737,-1123"/>
<text text-anchor="middle" x="576" y="-1107.8" font-family="Times,serif" font-size="14.00" fill="white">[StoredTable] Name: &#39;supplier&#39; pruned: 0/8</text>
<text text-anchor="middle" x="576" y="-1092.8" font-family="Times,serif" font-size="14.00" fill="white">chunk(s), 5/7 column(s)</text>
</g>
<!-- 133102279809232&#45;&gt;133114105345552 -->
<g id="edge41" class="edge">
<title>133102279809232&#45;&gt;133114105345552</title>
<path fill="none" stroke="white" d="M576,-1123.03C576,-1135.04 576,-1151.07 576,-1164.64"/>
<polygon fill="white" stroke="white" points="572.5,-1164.88 576,-1174.88 579.5,-1164.88 572.5,-1164.88"/>
<g id="a_edge41&#45;label"><a xlink:title="Output Expressions: &#10; (1) s_suppkey&#10; (2) s_comment&#10;&#10;Unique Column Combinations: &#10; (1) {s_suppkey}&#10;&#10;Functional Dependencies (trivial): &#10; (1) {s_suppkey} =&gt; {s_comment}&#10;&#10;Functional Dependencies (non&#45;trivial): &#10; &lt;none&gt;">
<text text-anchor="middle" x="693" y="-1144.8" font-family="Times,serif" font-size="14.00" fill="white"> 500,000.0 row(s) | 100.0% estd.</text>
</a>
</g>
</g>
</g>
</svg>
