<?xml version="1.0" encoding="UTF-8" standalone="no"?>
<!DOCTYPE svg PUBLIC "-//W3C//DTD SVG 1.1//EN"
 "http://www.w3.org/Graphics/SVG/1.1/DTD/svg11.dtd">
<!-- Generated by graphviz version 2.43.0 (0)
 -->
<!-- Title: G Pages: 1 -->
<svg width="877pt" height="1610pt"
 viewBox="0.00 0.00 876.50 1610.00" xmlns="http://www.w3.org/2000/svg" xmlns:xlink="http://www.w3.org/1999/xlink">
<g id="graph0" class="graph" transform="scale(1 1) rotate(0) translate(4 1606)">
<title>G</title>
<polygon fill="black" stroke="transparent" points="-4,4 -4,-1606 872.5,-1606 872.5,4 -4,4"/>
<text text-anchor="middle" x="319.5" y="-1586.8" font-family="Times,serif" font-size="14.00" fill="white">For tooltips with advanced information, hover your mouse over vertices or edge labels.</text>
<!-- 133107328121872 -->
<g id="node1" class="node">
<title>133107328121872</title>
<g id="a_node1"><a xlink:title="Output: 1 row in 1 chunk filtered: 0, 1 µs 737 ns.">
<polygon fill="none" stroke="white" points="270.5,-1547 166.5,-1547 166.5,-1478 270.5,-1478 270.5,-1547"/>
<text text-anchor="middle" x="218.5" y="-1531.8" font-family="Times,serif" font-size="14.00" fill="white">Alias</text>
<text text-anchor="middle" x="218.5" y="-1516.8" font-family="Times,serif" font-size="14.00" fill="white">[avg_yearly]</text>
<text text-anchor="middle" x="218.5" y="-1485.8" font-family="Times,serif" font-size="14.00" fill="white">1 µs 737 ns</text>
</a>
</g>
</g>
<!-- 133107328121552 -->
<g id="node2" class="node">
<title>133107328121552</title>
<g id="a_node2"><a xlink:title="Output: 1 row in 1 chunk filtered: 0, 25 µs 436 ns.&#10;Operator step runtimes:&#10; ForwardUnmodifiedColumns 1 µs 8 ns&#10; EvaluateNewColumns 10 µs 753 ns&#10; BuildOutput 11 µs 603 ns.">
<polygon fill="none" stroke="white" points="272.5,-1427 164.5,-1427 164.5,-1373 272.5,-1373 272.5,-1427"/>
<text text-anchor="middle" x="218.5" y="-1411.8" font-family="Times,serif" font-size="14.00" fill="white">Projection</text>
<text text-anchor="middle" x="218.5" y="-1380.8" font-family="Times,serif" font-size="14.00" fill="white">25 µs 436 ns</text>
</a>
</g>
</g>
<!-- 133107328121552&#45;&gt;133107328121872 -->
<g id="edge1" class="edge">
<title>133107328121552&#45;&gt;133107328121872</title>
<path fill="none" stroke="white" d="M218.5,-1427.19C218.5,-1439.29 218.5,-1454 218.5,-1467.72"/>
<polygon fill="white" stroke="white" points="215,-1467.95 218.5,-1477.95 222,-1467.96 215,-1467.95"/>
<text text-anchor="middle" x="287.5" y="-1448.8" font-family="Times,serif" font-size="14.00" fill="white">1 row(s)/1 chunk(s)</text>
</g>
<!-- 133107328162832 -->
<g id="node3" class="node">
<title>133107328162832</title>
<g id="a_node3"><a xlink:title="Output: 1 row in 1 chunk filtered: 0, 20 ms 798 µs.&#10;Operator step runtimes:&#10; GroupByKeyPartitioning 63 ns&#10; Aggregating 20 ms 771 µs&#10; GroupByColumnsWriting 626 ns&#10; AggregateColumnsWriting 15 µs 162 ns&#10; OutputWriting 4 µs 734 ns.">
<polygon fill="none" stroke="white" stroke-width="1.01" points="306.5,-1322 130.5,-1322 130.5,-1238 306.5,-1238 306.5,-1322"/>
<text text-anchor="middle" x="218.5" y="-1306.8" font-family="Times,serif" font-size="14.00" fill="white">AggregateHash</text>
<text text-anchor="middle" x="218.5" y="-1291.8" font-family="Times,serif" font-size="14.00" fill="white">GroupBy {}</text>
<text text-anchor="middle" x="218.5" y="-1276.8" font-family="Times,serif" font-size="14.00" fill="white">SUM(l_extendedprice)</text>
<text text-anchor="middle" x="218.5" y="-1245.8" font-family="Times,serif" font-size="14.00" fill="white">20 ms 798 µs</text>
</a>
</g>
</g>
<!-- 133107328162832&#45;&gt;133107328121552 -->
<g id="edge2" class="edge">
<title>133107328162832&#45;&gt;133107328121552</title>
<path fill="none" stroke="white" d="M218.5,-1322.27C218.5,-1335.36 218.5,-1349.72 218.5,-1362.45"/>
<polygon fill="white" stroke="white" points="215,-1362.69 218.5,-1372.69 222,-1362.69 215,-1362.69"/>
<text text-anchor="middle" x="287.5" y="-1343.8" font-family="Times,serif" font-size="14.00" fill="white">1 row(s)/1 chunk(s)</text>
</g>
<!-- 133107328121232 -->
<g id="node4" class="node">
<title>133107328121232</title>
<g id="a_node4"><a xlink:title="Output: 26823 rows in 49 chunks filtered: 0, 53 ms 586 µs.&#10;Operator step runtimes:&#10; LeftSideMaterialize 5 ms 835 µs&#10; RightSideMaterialize 3 ms 888 µs&#10; LeftSideTransform 0 ns&#10; RightSideTransform 0 ns&#10; LeftSidePartition 2 ms 235 µs&#10; RightSidePartition 1 ms 60 µs&#10; LeftSideSortBuckets 662 µs 193 ns&#10; RightSideSortBuckets 563 µs 168 ns&#10; GatherRowIds 1 µs 419 ns&#10; FindJoinPartner 38 ms 115 µs&#10; OutputWriting 944 µs 581 ns.&#10;Radix bits: 8.">
<polygon fill="none" stroke="white" stroke-width="3.34" points="367,-1187 70,-1187 70,-1103 367,-1103 367,-1187"/>
<text text-anchor="middle" x="218.5" y="-1171.8" font-family="Times,serif" font-size="14.00" fill="white">JoinSimdSortMerge (Semi)</text>
<text text-anchor="middle" x="218.5" y="-1156.8" font-family="Times,serif" font-size="14.00" fill="white">p_partkey = l_partkey</text>
<text text-anchor="middle" x="218.5" y="-1141.8" font-family="Times,serif" font-size="14.00" fill="white">AND l_quantity &lt; 0.2 * AVG(l_quantity)</text>
<text text-anchor="middle" x="218.5" y="-1110.8" font-family="Times,serif" font-size="14.00" fill="white">53 ms 586 µs</text>
</a>
</g>
</g>
<!-- 133107328121232&#45;&gt;133107328162832 -->
<g id="edge3" class="edge">
<title>133107328121232&#45;&gt;133107328162832</title>
<path fill="none" stroke="white" d="M218.5,-1187.35C218.5,-1200.11 218.5,-1214.32 218.5,-1227.67"/>
<polygon fill="white" stroke="white" points="215,-1227.67 218.5,-1237.67 222,-1227.67 215,-1227.67"/>
<text text-anchor="middle" x="312" y="-1208.8" font-family="Times,serif" font-size="14.00" fill="white">26,823 row(s)/49 chunk(s)</text>
</g>
<!-- 133107328120592 -->
<g id="node5" class="node">
<title>133107328120592</title>
<g id="a_node5"><a xlink:title="Output: 300859 rows in 256 chunks filtered: 0, 53 ms 740 µs.&#10;Operator step runtimes:&#10; LeftSideMaterialize 42 ms 683 µs&#10; RightSideMaterialize 3 ms 288 µs&#10; LeftSideTransform 0 ns&#10; RightSideTransform 0 ns&#10; LeftSidePartition 2 ms 485 µs&#10; RightSidePartition 1 ms 111 µs&#10; LeftSideSortBuckets 618 µs 466 ns&#10; RightSideSortBuckets 499 µs 848 ns&#10; GatherRowIds 1 µs 37 ns&#10; FindJoinPartner 1 ms 254 µs&#10; OutputWriting 1 ms 394 µs.&#10;Radix bits: 8.">
<polygon fill="none" stroke="white" stroke-width="3.35" points="435,-939.5 224,-939.5 224,-870.5 435,-870.5 435,-939.5"/>
<text text-anchor="middle" x="329.5" y="-924.3" font-family="Times,serif" font-size="14.00" fill="white">JoinSimdSortMerge (Inner)</text>
<text text-anchor="middle" x="329.5" y="-909.3" font-family="Times,serif" font-size="14.00" fill="white">l_partkey = p_partkey</text>
<text text-anchor="middle" x="329.5" y="-878.3" font-family="Times,serif" font-size="14.00" fill="white">53 ms 740 µs</text>
</a>
</g>
</g>
<!-- 133107328120592&#45;&gt;133107328121232 -->
<g id="edge4" class="edge">
<title>133107328120592&#45;&gt;133107328121232</title>
<path fill="none" stroke="white" d="M331.72,-939.66C332.63,-977.77 329.13,-1040.33 301.5,-1085 299.25,-1088.64 296.68,-1092.11 293.88,-1095.43"/>
<polygon fill="white" stroke="white" points="293.77,-1095.55 291.21,-1093.16 286.96,-1102.86 293.77,-1095.55"/>
<text text-anchor="middle" x="432" y="-1021.3" font-family="Times,serif" font-size="14.00" fill="white">300,859 row(s)/256 chunk(s)</text>
</g>
<!-- 133107328063760 -->
<g id="node6" class="node">
<title>133107328063760</title>
<g id="a_node6"><a xlink:title="Output: 300859 rows in 256 chunks filtered: 0, 3 ms 175 µs.">
<polygon fill="none" stroke="white" points="263.5,-812 159.5,-812 159.5,-758 263.5,-758 263.5,-812"/>
<text text-anchor="middle" x="211.5" y="-796.8" font-family="Times,serif" font-size="14.00" fill="white">Validate</text>
<text text-anchor="middle" x="211.5" y="-765.8" font-family="Times,serif" font-size="14.00" fill="white">3 ms 175 µs</text>
</a>
</g>
</g>
<!-- 133107328063760&#45;&gt;133107328120592 -->
<g id="edge5" class="edge">
<title>133107328063760&#45;&gt;133107328120592</title>
<path fill="none" stroke="white" d="M263.6,-800.5C279.58,-807.2 295.96,-816.71 307.5,-830 314.97,-838.6 319.9,-849.65 323.16,-860.57"/>
<polygon fill="white" stroke="white" points="323.22,-860.8 319.83,-861.67 325.71,-870.48 323.22,-860.8"/>
<text text-anchor="middle" x="420" y="-833.8" font-family="Times,serif" font-size="14.00" fill="white">300,859 row(s)/256 chunk(s)</text>
</g>
<!-- 133107328161808 -->
<g id="node14" class="node">
<title>133107328161808</title>
<g id="a_node14"><a xlink:title="Output: 10023 rows in 1 chunk filtered: 0, 353 ms 888 µs.&#10;Operator step runtimes:&#10; GroupByKeyPartitioning 185 ms 418 µs&#10; Aggregating 168 ms 155 µs&#10; GroupByColumnsWriting 222 µs 198 ns&#10; AggregateColumnsWriting 43 µs 963 ns&#10; OutputWriting 4 µs 631 ns.">
<polygon fill="none" stroke="white" stroke-width="8" points="195.5,-947 27.5,-947 27.5,-863 195.5,-863 195.5,-947"/>
<text text-anchor="middle" x="111.5" y="-931.8" font-family="Times,serif" font-size="14.00" fill="white">AggregateHash</text>
<text text-anchor="middle" x="111.5" y="-916.8" font-family="Times,serif" font-size="14.00" fill="white">GroupBy {l_partkey}</text>
<text text-anchor="middle" x="111.5" y="-901.8" font-family="Times,serif" font-size="14.00" fill="white">AVG(l_quantity)</text>
<text text-anchor="middle" x="111.5" y="-870.8" font-family="Times,serif" font-size="14.00" fill="white">353 ms 888 µs</text>
</a>
</g>
</g>
<!-- 133107328063760&#45;&gt;133107328161808 -->
<g id="edge6" class="edge">
<title>133107328063760&#45;&gt;133107328161808</title>
<path fill="none" stroke="white" d="M159.25,-794.04C137.95,-800.17 115.34,-810.97 102.5,-830 97.97,-836.71 96.19,-844.57 96.09,-852.6"/>
<polygon fill="white" stroke="white" points="92.62,-853.06 96.78,-862.8 99.6,-852.59 92.62,-853.06"/>
<text text-anchor="middle" x="205" y="-833.8" font-family="Times,serif" font-size="14.00" fill="white">300,859 row(s)/256 chunk(s)</text>
</g>
<!-- 133107328120272 -->
<g id="node7" class="node">
<title>133107328120272</title>
<g id="a_node7"><a xlink:title="Output: 300859 rows in 256 chunks filtered: 0, 287 ms 568 µs.&#10;Operator step runtimes:&#10; LeftSideMaterialize 254 ms 271 µs&#10; RightSideMaterialize 3 ms 178 µs&#10; LeftSideTransform 0 ns&#10; RightSideTransform 0 ns&#10; LeftSidePartition 10 ms 542 µs&#10; RightSidePartition 1 ms 603 µs&#10; LeftSideSortBuckets 9 ms 782 µs&#10; RightSideSortBuckets 725 µs 132 ns&#10; GatherRowIds 2 µs 683 ns&#10; FindJoinPartner 1 ms 721 µs&#10; OutputWriting 898 µs 592 ns.&#10;Radix bits: 8.">
<polygon fill="none" stroke="white" stroke-width="7.49" points="354,-707 69,-707 69,-638 354,-638 354,-707"/>
<text text-anchor="middle" x="211.5" y="-691.8" font-family="Times,serif" font-size="14.00" fill="white">JoinSimdSortMerge (Semi Reduction)</text>
<text text-anchor="middle" x="211.5" y="-676.8" font-family="Times,serif" font-size="14.00" fill="white">l_partkey = p_partkey</text>
<text text-anchor="middle" x="211.5" y="-645.8" font-family="Times,serif" font-size="14.00" fill="white">287 ms 568 µs</text>
</a>
</g>
</g>
<!-- 133107328120272&#45;&gt;133107328063760 -->
<g id="edge7" class="edge">
<title>133107328120272&#45;&gt;133107328063760</title>
<path fill="none" stroke="white" d="M211.5,-707.25C211.5,-720.07 211.5,-734.73 211.5,-747.77"/>
<polygon fill="white" stroke="white" points="208,-747.81 211.5,-757.81 215,-747.81 208,-747.81"/>
<text text-anchor="middle" x="314" y="-728.8" font-family="Times,serif" font-size="14.00" fill="white">300,859 row(s)/256 chunk(s)</text>
</g>
<!-- 133107359159504 -->
<g id="node8" class="node">
<title>133107359159504</title>
<g id="a_node8"><a xlink:title="Output: 300005811 rows in 4578 chunks filtered: 0, 9 ms 727 µs.">
<polygon fill="none" stroke="white" points="131,-587 0,-587 0,-473 131,-473 131,-587"/>
<text text-anchor="middle" x="65.5" y="-571.8" font-family="Times,serif" font-size="14.00" fill="white">GetTable</text>
<text text-anchor="middle" x="65.5" y="-556.8" font-family="Times,serif" font-size="14.00" fill="white">(lineitem)</text>
<text text-anchor="middle" x="65.5" y="-541.8" font-family="Times,serif" font-size="14.00" fill="white">pruned:</text>
<text text-anchor="middle" x="65.5" y="-526.8" font-family="Times,serif" font-size="14.00" fill="white">0/4578 chunk(s)</text>
<text text-anchor="middle" x="65.5" y="-511.8" font-family="Times,serif" font-size="14.00" fill="white">13/16 column(s)</text>
<text text-anchor="middle" x="65.5" y="-480.8" font-family="Times,serif" font-size="14.00" fill="white">9 ms 727 µs</text>
</a>
</g>
</g>
<!-- 133107359159504&#45;&gt;133107328120272 -->
<g id="edge8" class="edge">
<title>133107359159504&#45;&gt;133107328120272</title>
<path fill="none" stroke="white" stroke-width="8" d="M56.19,-587.42C56.89,-599.03 59.76,-610.57 66.5,-620 69.4,-624.07 72.66,-627.81 76.2,-631.26"/>
<polygon fill="white" stroke="white" stroke-width="8" points="76.31,-631.36 71.7,-636.63 83.83,-637.94 76.31,-631.36"/>
<text text-anchor="middle" x="191.5" y="-608.8" font-family="Times,serif" font-size="14.00" fill="white">300,005,811 row(s)/4,578 chunk(s)</text>
</g>
<!-- 133107328060688 -->
<g id="node9" class="node">
<title>133107328060688</title>
<g id="a_node9"><a xlink:title="Output: 10023 rows in 153 chunks filtered: 0, 324 µs 447 ns.">
<polygon fill="none" stroke="white" points="502,-557 385,-557 385,-503 502,-503 502,-557"/>
<text text-anchor="middle" x="443.5" y="-541.8" font-family="Times,serif" font-size="14.00" fill="white">Validate</text>
<text text-anchor="middle" x="443.5" y="-510.8" font-family="Times,serif" font-size="14.00" fill="white">324 µs 447 ns</text>
</a>
</g>
</g>
<!-- 133107328060688&#45;&gt;133107328120592 -->
<g id="edge10" class="edge">
<title>133107328060688&#45;&gt;133107328120592</title>
<path fill="none" stroke="white" d="M491.57,-557.26C508.73,-569.35 526.11,-585.4 535.5,-605 565.33,-667.27 961.98,-283.77 526.5,-845 506.7,-870.52 476.3,-885.37 445.25,-893.9"/>
<polygon fill="white" stroke="white" points="435.17,-896.46 445.72,-897.4 444.86,-894 435.17,-896.46"/>
<text text-anchor="middle" x="710.5" y="-728.8" font-family="Times,serif" font-size="14.00" fill="white">10,023 row(s)/153 chunk(s)</text>
</g>
<!-- 133107328060688&#45;&gt;133107328120272 -->
<g id="edge9" class="edge">
<title>133107328060688&#45;&gt;133107328120272</title>
<path fill="none" stroke="white" d="M406.91,-557.08C372.77,-581.33 325.74,-614.54 316.5,-620 308.94,-624.46 300.94,-628.89 292.87,-633.16"/>
<polygon fill="white" stroke="white" points="283.74,-637.91 294.22,-636.4 292.61,-633.3 283.74,-637.91"/>
<text text-anchor="middle" x="436.5" y="-608.8" font-family="Times,serif" font-size="14.00" fill="white">10,023 row(s)/153 chunk(s)</text>
</g>
<!-- 133107328118992 -->
<g id="node10" class="node">
<title>133107328118992</title>
<g id="a_node10"><a xlink:title="Output: 10023 rows in 153 chunks filtered: 0, 498 µs 97 ns.&#10;Chunks: 0 skipped with no results, &#10;0 skipped with all matching, 0 scanned using binary search.">
<polygon fill="none" stroke="white" points="531.5,-422 355.5,-422 355.5,-338 531.5,-338 531.5,-422"/>
<text text-anchor="middle" x="443.5" y="-406.8" font-family="Times,serif" font-size="14.00" fill="white">TableScan</text>
<text text-anchor="middle" x="443.5" y="-391.8" font-family="Times,serif" font-size="14.00" fill="white">Impl: ColumnVsValue</text>
<text text-anchor="middle" x="443.5" y="-376.8" font-family="Times,serif" font-size="14.00" fill="white">p_brand = &#39;Brand#24&#39;</text>
<text text-anchor="middle" x="443.5" y="-345.8" font-family="Times,serif" font-size="14.00" fill="white">498 µs 97 ns</text>
</a>
</g>
</g>
<!-- 133107328118992&#45;&gt;133107328060688 -->
<g id="edge11" class="edge">
<title>133107328118992&#45;&gt;133107328060688</title>
<path fill="none" stroke="white" d="M443.5,-422.23C443.5,-444.32 443.5,-471.31 443.5,-492.62"/>
<polygon fill="white" stroke="white" points="440,-492.88 443.5,-502.88 447,-492.88 440,-492.88"/>
<text text-anchor="middle" x="541.5" y="-443.8" font-family="Times,serif" font-size="14.00" fill="white">10,023 row(s)/153 chunk(s)</text>
</g>
<!-- 133107328119632 -->
<g id="node11" class="node">
<title>133107328119632</title>
<g id="a_node11"><a xlink:title="Output: 249963 rows in 153 chunks filtered: 0, 958 µs 18 ns.&#10;Chunks: 0 skipped with no results, &#10;0 skipped with all matching, 0 scanned using binary search.">
<polygon fill="none" stroke="white" points="536,-287 351,-287 351,-203 536,-203 536,-287"/>
<text text-anchor="middle" x="443.5" y="-271.8" font-family="Times,serif" font-size="14.00" fill="white">TableScan</text>
<text text-anchor="middle" x="443.5" y="-256.8" font-family="Times,serif" font-size="14.00" fill="white">Impl: ColumnVsValue</text>
<text text-anchor="middle" x="443.5" y="-241.8" font-family="Times,serif" font-size="14.00" fill="white">p_container = &#39;LG CAN&#39;</text>
<text text-anchor="middle" x="443.5" y="-210.8" font-family="Times,serif" font-size="14.00" fill="white">958 µs 18 ns</text>
</a>
</g>
</g>
<!-- 133107328119632&#45;&gt;133107328118992 -->
<g id="edge12" class="edge">
<title>133107328119632&#45;&gt;133107328118992</title>
<path fill="none" stroke="white" d="M443.5,-287.35C443.5,-300.11 443.5,-314.32 443.5,-327.67"/>
<polygon fill="white" stroke="white" points="440,-327.67 443.5,-337.67 447,-327.67 440,-327.67"/>
<text text-anchor="middle" x="546" y="-308.8" font-family="Times,serif" font-size="14.00" fill="white">249,963 row(s)/153 chunk(s)</text>
</g>
<!-- 133107359159952 -->
<g id="node12" class="node">
<title>133107359159952</title>
<g id="a_node12"><a xlink:title="Output: 10000000 rows in 153 chunks filtered: 0, 332 µs 374 ns.">
<polygon fill="none" stroke="white" points="504.5,-133 382.5,-133 382.5,-19 504.5,-19 504.5,-133"/>
<text text-anchor="middle" x="443.5" y="-117.8" font-family="Times,serif" font-size="14.00" fill="white">GetTable</text>
<text text-anchor="middle" x="443.5" y="-102.8" font-family="Times,serif" font-size="14.00" fill="white">(part)</text>
<text text-anchor="middle" x="443.5" y="-87.8" font-family="Times,serif" font-size="14.00" fill="white">pruned:</text>
<text text-anchor="middle" x="443.5" y="-72.8" font-family="Times,serif" font-size="14.00" fill="white">0/153 chunk(s)</text>
<text text-anchor="middle" x="443.5" y="-57.8" font-family="Times,serif" font-size="14.00" fill="white">6/9 column(s)</text>
<text text-anchor="middle" x="443.5" y="-26.8" font-family="Times,serif" font-size="14.00" fill="white">332 µs 374 ns</text>
</a>
</g>
</g>
<!-- 133107359159952&#45;&gt;133107328119632 -->
<g id="edge13" class="edge">
<title>133107359159952&#45;&gt;133107328119632</title>
<path fill="none" stroke="white" d="M443.5,-133.07C443.5,-152.34 443.5,-173.8 443.5,-192.67"/>
<polygon fill="white" stroke="white" points="440,-192.86 443.5,-202.86 447,-192.86 440,-192.86"/>
<text text-anchor="middle" x="557.5" y="-173.8" font-family="Times,serif" font-size="14.00" fill="white">10,000,000 row(s)/153 chunk(s)</text>
</g>
<!-- 133107328120912 -->
<g id="node13" class="node">
<title>133107328120912</title>
<g id="a_node13"><a xlink:title="Output: 10023 rows in 1 chunk filtered: 0, 244 µs 493 ns.&#10;Operator step runtimes:&#10; ForwardUnmodifiedColumns 11 µs 792 ns&#10; EvaluateNewColumns 183 µs 635 ns&#10; BuildOutput 40 µs 161 ns.">
<polygon fill="none" stroke="white" points="181,-1052 64,-1052 64,-998 181,-998 181,-1052"/>
<text text-anchor="middle" x="122.5" y="-1036.8" font-family="Times,serif" font-size="14.00" fill="white">Projection</text>
<text text-anchor="middle" x="122.5" y="-1005.8" font-family="Times,serif" font-size="14.00" fill="white">244 µs 493 ns</text>
</a>
</g>
</g>
<!-- 133107328120912&#45;&gt;133107328121232 -->
<g id="edge14" class="edge">
<title>133107328120912&#45;&gt;133107328121232</title>
<path fill="none" stroke="white" d="M117.68,-1052.12C116.97,-1062.93 117.94,-1075.2 123.5,-1085 125.54,-1088.6 127.91,-1092.01 130.52,-1095.24"/>
<polygon fill="white" stroke="white" points="137.5,-1102.89 133.34,-1093.14 130.76,-1095.5 137.5,-1102.89"/>
<text text-anchor="middle" x="212.5" y="-1073.8" font-family="Times,serif" font-size="14.00" fill="white">10,023 row(s)/1 chunk(s)</text>
</g>
<!-- 133107328161808&#45;&gt;133107328120912 -->
<g id="edge15" class="edge">
<title>133107328161808&#45;&gt;133107328120912</title>
<path fill="none" stroke="white" d="M115.35,-947.27C116.57,-960.36 117.91,-974.72 119.09,-987.45"/>
<polygon fill="white" stroke="white" points="115.63,-988.06 120.05,-997.69 122.6,-987.41 115.63,-988.06"/>
<text text-anchor="middle" x="207.5" y="-968.8" font-family="Times,serif" font-size="14.00" fill="white">10,023 row(s)/1 chunk(s)</text>
</g>
<!-- 0 -->
<g id="node15" class="node">
<title>0</title>
<polygon fill="none" stroke="white" points="522.5,-0.5 522.5,-151.5 868.5,-151.5 868.5,-0.5 522.5,-0.5"/>
<text text-anchor="middle" x="695.5" y="-136.3" font-family="Times,serif" font-size="14.00" fill="white">Total by operator</text>
<polyline fill="none" stroke="white" points="522.5,-128.5 868.5,-128.5 "/>
<text text-anchor="end" x="676.5" y="-113.3" font-family="Times,serif" font-size="14.00" fill="white">JoinSimdSortMerge </text>
<text text-anchor="end" x="676.5" y="-98.3" font-family="Times,serif" font-size="14.00" fill="white"> AggregateHash </text>
<text text-anchor="end" x="676.5" y="-83.3" font-family="Times,serif" font-size="14.00" fill="white"> GetTable </text>
<text text-anchor="end" x="676.5" y="-68.3" font-family="Times,serif" font-size="14.00" fill="white"> Validate </text>
<text text-anchor="end" x="676.5" y="-53.3" font-family="Times,serif" font-size="14.00" fill="white"> TableScan </text>
<text text-anchor="end" x="676.5" y="-38.3" font-family="Times,serif" font-size="14.00" fill="white"> Projection </text>
<text text-anchor="end" x="676.5" y="-23.3" font-family="Times,serif" font-size="14.00" fill="white"> Alias </text>
<text text-anchor="end" x="676.5" y="-8.3" font-family="Times,serif" font-size="14.00" fill="white">total</text>
<polyline fill="none" stroke="white" points="684.5,-0.5 684.5,-128.5 "/>
<text text-anchor="start" x="692.5" y="-113.3" font-family="Times,serif" font-size="14.00" fill="white">394 ms 894 µs </text>
<text text-anchor="start" x="692.5" y="-98.3" font-family="Times,serif" font-size="14.00" fill="white"> 374 ms 686 µs </text>
<text text-anchor="start" x="692.5" y="-83.3" font-family="Times,serif" font-size="14.00" fill="white"> 10 ms 59 µs </text>
<text text-anchor="start" x="692.5" y="-68.3" font-family="Times,serif" font-size="14.00" fill="white"> 3 ms 500 µs </text>
<text text-anchor="start" x="692.5" y="-53.3" font-family="Times,serif" font-size="14.00" fill="white"> 1 ms 456 µs </text>
<text text-anchor="start" x="692.5" y="-38.3" font-family="Times,serif" font-size="14.00" fill="white"> 269 µs 929 ns </text>
<text text-anchor="start" x="692.5" y="-23.3" font-family="Times,serif" font-size="14.00" fill="white"> 1 µs 737 ns </text>
<text text-anchor="start" x="692.5" y="-8.3" font-family="Times,serif" font-size="14.00" fill="white"> 784 ms 867 µs </text>
<polyline fill="none" stroke="white" points="815.5,-0.5 815.5,-128.5 "/>
<text text-anchor="start" x="823.5" y="-113.3" font-family="Times,serif" font-size="14.00" fill="white">50 %</text>
<text text-anchor="start" x="823.5" y="-98.3" font-family="Times,serif" font-size="14.00" fill="white">48 %</text>
<text text-anchor="start" x="823.5" y="-83.3" font-family="Times,serif" font-size="14.00" fill="white">1 %</text>
<text text-anchor="start" x="823.5" y="-68.3" font-family="Times,serif" font-size="14.00" fill="white">0 %</text>
<text text-anchor="start" x="823.5" y="-53.3" font-family="Times,serif" font-size="14.00" fill="white">0 %</text>
<text text-anchor="start" x="823.5" y="-38.3" font-family="Times,serif" font-size="14.00" fill="white">0 %</text>
<text text-anchor="start" x="823.5" y="-23.3" font-family="Times,serif" font-size="14.00" fill="white">0 %</text>
<text text-anchor="start" x="823.5" y="-8.3" font-family="Times,serif" font-size="14.00" fill="white"> </text>
</g>
</g>
</svg>
