<?xml version="1.0" encoding="UTF-8" standalone="no"?>
<!DOCTYPE svg PUBLIC "-//W3C//DTD SVG 1.1//EN"
 "http://www.w3.org/Graphics/SVG/1.1/DTD/svg11.dtd">
<!-- Generated by graphviz version 2.43.0 (0)
 -->
<!-- Title: G Pages: 1 -->
<svg width="726pt" height="1115pt"
 viewBox="0.00 0.00 726.00 1115.00" xmlns="http://www.w3.org/2000/svg" xmlns:xlink="http://www.w3.org/1999/xlink">
<g id="graph0" class="graph" transform="scale(1 1) rotate(0) translate(4 1111)">
<title>G</title>
<polygon fill="black" stroke="transparent" points="-4,4 -4,-1111 722,-1111 722,4 -4,4"/>
<text text-anchor="middle" x="319.5" y="-1091.8" font-family="Times,serif" font-size="14.00" fill="white">For tooltips with advanced information, hover your mouse over vertices or edge labels.</text>
<!-- 133110622468880 -->
<g id="node1" class="node">
<title>133110622468880</title>
<g id="a_node1"><a xlink:title="Output: 1 row in 1 chunk filtered: 0, 1 µs 743 ns.">
<polygon fill="none" stroke="white" points="424.5,-1052 287.5,-1052 287.5,-983 424.5,-983 424.5,-1052"/>
<text text-anchor="middle" x="356" y="-1036.8" font-family="Times,serif" font-size="14.00" fill="white">Alias</text>
<text text-anchor="middle" x="356" y="-1021.8" font-family="Times,serif" font-size="14.00" fill="white">[promo_revenue]</text>
<text text-anchor="middle" x="356" y="-990.8" font-family="Times,serif" font-size="14.00" fill="white">1 µs 743 ns</text>
</a>
</g>
</g>
<!-- 133110622468560 -->
<g id="node2" class="node">
<title>133110622468560</title>
<g id="a_node2"><a xlink:title="Output: 1 row in 1 chunk filtered: 0, 47 µs 796 ns.&#10;Operator step runtimes:&#10; ForwardUnmodifiedColumns 1 µs 554 ns&#10; EvaluateNewColumns 13 µs 748 ns&#10; BuildOutput 30 µs 482 ns.">
<polygon fill="none" stroke="white" points="410,-932 302,-932 302,-878 410,-878 410,-932"/>
<text text-anchor="middle" x="356" y="-916.8" font-family="Times,serif" font-size="14.00" fill="white">Projection</text>
<text text-anchor="middle" x="356" y="-885.8" font-family="Times,serif" font-size="14.00" fill="white">47 µs 796 ns</text>
</a>
</g>
</g>
<!-- 133110622468560&#45;&gt;133110622468880 -->
<g id="edge1" class="edge">
<title>133110622468560&#45;&gt;133110622468880</title>
<path fill="none" stroke="white" d="M356,-932.19C356,-944.29 356,-959 356,-972.72"/>
<polygon fill="white" stroke="white" points="352.5,-972.95 356,-982.95 359.5,-972.96 352.5,-972.95"/>
<text text-anchor="middle" x="425" y="-953.8" font-family="Times,serif" font-size="14.00" fill="white">1 row(s)/1 chunk(s)</text>
</g>
<!-- 133110688645136 -->
<g id="node3" class="node">
<title>133110688645136</title>
<g id="a_node3"><a xlink:title="Output: 1 row in 1 chunk filtered: 0, 14 ms 186 µs.&#10;Operator step runtimes:&#10; GroupByKeyPartitioning 68 ns&#10; Aggregating 14 ms 158 µs&#10; GroupByColumnsWriting 680 ns&#10; AggregateColumnsWriting 12 µs 785 ns&#10; OutputWriting 4 µs 973 ns.">
<polygon fill="none" stroke="white" points="572.5,-827 139.5,-827 139.5,-698 572.5,-698 572.5,-827"/>
<text text-anchor="middle" x="356" y="-811.8" font-family="Times,serif" font-size="14.00" fill="white">AggregateHash</text>
<text text-anchor="middle" x="356" y="-796.8" font-family="Times,serif" font-size="14.00" fill="white">GroupBy {}</text>
<text text-anchor="middle" x="356" y="-781.8" font-family="Times,serif" font-size="14.00" fill="white">SUM(l_extendedprice * (1 &#45; l_discount)), </text>
<text text-anchor="middle" x="356" y="-766.8" font-family="Times,serif" font-size="14.00" fill="white">SUM(CASE WHEN p_type BETWEEN UPPER EXCLUSIVE</text>
<text text-anchor="middle" x="356" y="-751.8" font-family="Times,serif" font-size="14.00" fill="white">&#39;PROMO&#39; AND &#39;PROMP&#39; THEN l_extendedprice * (1 &#45;</text>
<text text-anchor="middle" x="356" y="-736.8" font-family="Times,serif" font-size="14.00" fill="white">l_discount) ELSE 0 END)</text>
<text text-anchor="middle" x="356" y="-705.8" font-family="Times,serif" font-size="14.00" fill="white">14 ms 186 µs</text>
</a>
</g>
</g>
<!-- 133110688645136&#45;&gt;133110622468560 -->
<g id="edge2" class="edge">
<title>133110688645136&#45;&gt;133110622468560</title>
<path fill="none" stroke="white" d="M356,-827.17C356,-840.99 356,-855.14 356,-867.48"/>
<polygon fill="white" stroke="white" points="352.5,-867.8 356,-877.8 359.5,-867.8 352.5,-867.8"/>
<text text-anchor="middle" x="425" y="-848.8" font-family="Times,serif" font-size="14.00" fill="white">1 row(s)/1 chunk(s)</text>
</g>
<!-- 133110622468240 -->
<g id="node4" class="node">
<title>133110622468240</title>
<g id="a_node4"><a xlink:title="Output: 3862475 rows in 256 chunks filtered: 0, 253 ms 982 µs.&#10;Operator step runtimes:&#10; ForwardUnmodifiedColumns 192 µs 32 ns&#10; EvaluateNewColumns 253 ms 441 µs&#10; BuildOutput 246 µs 472 ns.">
<polygon fill="none" stroke="white" stroke-width="7.43" points="417,-647 295,-647 295,-593 417,-593 417,-647"/>
<text text-anchor="middle" x="356" y="-631.8" font-family="Times,serif" font-size="14.00" fill="white">Projection</text>
<text text-anchor="middle" x="356" y="-600.8" font-family="Times,serif" font-size="14.00" fill="white">253 ms 982 µs</text>
</a>
</g>
</g>
<!-- 133110622468240&#45;&gt;133110688645136 -->
<g id="edge3" class="edge">
<title>133110622468240&#45;&gt;133110688645136</title>
<path fill="none" stroke="white" d="M356,-647.1C356,-658.77 356,-673.17 356,-687.78"/>
<polygon fill="white" stroke="white" points="352.5,-687.89 356,-697.89 359.5,-687.89 352.5,-687.89"/>
<text text-anchor="middle" x="465.5" y="-668.8" font-family="Times,serif" font-size="14.00" fill="white">3,862,475 row(s)/256 chunk(s)</text>
</g>
<!-- 133110622467920 -->
<g id="node5" class="node">
<title>133110622467920</title>
<g id="a_node5"><a xlink:title="Output: 3862475 rows in 256 chunks filtered: 0, 320 ms 506 µs.&#10;Operator step runtimes:&#10; LeftSideMaterialize 216 ms 218 µs&#10; RightSideMaterialize 12 ms 223 µs&#10; LeftSideTransform 0 ns&#10; RightSideTransform 0 ns&#10; LeftSidePartition 7 ms 196 µs&#10; RightSidePartition 16 ms 797 µs&#10; LeftSideSortBuckets 11 ms 520 µs&#10; RightSideSortBuckets 17 ms 563 µs&#10; GatherRowIds 3 µs 111 ns&#10; FindJoinPartner 24 ms 989 µs&#10; OutputWriting 11 ms 614 µs.&#10;Radix bits: 8.">
<polygon fill="none" stroke="white" stroke-width="8" points="461.5,-542 250.5,-542 250.5,-473 461.5,-473 461.5,-542"/>
<text text-anchor="middle" x="356" y="-526.8" font-family="Times,serif" font-size="14.00" fill="white">JoinSimdSortMerge (Inner)</text>
<text text-anchor="middle" x="356" y="-511.8" font-family="Times,serif" font-size="14.00" fill="white">l_partkey = p_partkey</text>
<text text-anchor="middle" x="356" y="-480.8" font-family="Times,serif" font-size="14.00" fill="white">320 ms 506 µs</text>
</a>
</g>
</g>
<!-- 133110622467920&#45;&gt;133110622468240 -->
<g id="edge4" class="edge">
<title>133110622467920&#45;&gt;133110622468240</title>
<path fill="none" stroke="white" d="M356,-542.25C356,-555.07 356,-569.73 356,-582.77"/>
<polygon fill="white" stroke="white" points="352.5,-582.81 356,-592.81 359.5,-582.81 352.5,-582.81"/>
<text text-anchor="middle" x="465.5" y="-563.8" font-family="Times,serif" font-size="14.00" fill="white">3,862,475 row(s)/256 chunk(s)</text>
</g>
<!-- 133110710138384 -->
<g id="node6" class="node">
<title>133110710138384</title>
<g id="a_node6"><a xlink:title="Output: 3862475 rows in 4578 chunks filtered: 0, 10 ms 102 µs.">
<polygon fill="none" stroke="white" points="278.5,-422 165.5,-422 165.5,-368 278.5,-368 278.5,-422"/>
<text text-anchor="middle" x="222" y="-406.8" font-family="Times,serif" font-size="14.00" fill="white">Validate</text>
<text text-anchor="middle" x="222" y="-375.8" font-family="Times,serif" font-size="14.00" fill="white">10 ms 102 µs</text>
</a>
</g>
</g>
<!-- 133110710138384&#45;&gt;133110622467920 -->
<g id="edge5" class="edge">
<title>133110710138384&#45;&gt;133110622467920</title>
<path fill="none" stroke="white" d="M222.05,-422.11C223.3,-433.29 226.52,-445.86 234,-455 237.5,-459.28 241.43,-463.21 245.66,-466.82"/>
<polygon fill="white" stroke="white" points="245.69,-466.84 243.54,-469.61 253.59,-472.98 245.69,-466.84"/>
<text text-anchor="middle" x="350" y="-443.8" font-family="Times,serif" font-size="14.00" fill="white">3,862,475 row(s)/4,578 chunk(s)</text>
</g>
<!-- 133110622467280 -->
<g id="node7" class="node">
<title>133110622467280</title>
<g id="a_node7"><a xlink:title="Output: 3862475 rows in 4578 chunks filtered: 0, 20 ms 686 µs.&#10;Chunks: 0 skipped with no results, &#10;0 skipped with all matching, 0 scanned using binary search.">
<polygon fill="none" stroke="white" stroke-width="1.24" points="412,-309.5 0,-309.5 0,-210.5 412,-210.5 412,-309.5"/>
<text text-anchor="middle" x="206" y="-294.3" font-family="Times,serif" font-size="14.00" fill="white">TableScan</text>
<text text-anchor="middle" x="206" y="-279.3" font-family="Times,serif" font-size="14.00" fill="white">Impl: ColumnBetween</text>
<text text-anchor="middle" x="206" y="-264.3" font-family="Times,serif" font-size="14.00" fill="white">l_shipdate BETWEEN UPPER EXCLUSIVE &#39;1996&#45;10&#45;01&#39;</text>
<text text-anchor="middle" x="206" y="-249.3" font-family="Times,serif" font-size="14.00" fill="white">AND &#39;1996&#45;11&#45;01&#39;</text>
<text text-anchor="middle" x="206" y="-218.3" font-family="Times,serif" font-size="14.00" fill="white">20 ms 686 µs</text>
</a>
</g>
</g>
<!-- 133110622467280&#45;&gt;133110710138384 -->
<g id="edge6" class="edge">
<title>133110622467280&#45;&gt;133110710138384</title>
<path fill="none" stroke="white" d="M211.87,-309.77C213.76,-325.52 215.83,-342.7 217.6,-357.41"/>
<polygon fill="white" stroke="white" points="214.16,-358.12 218.83,-367.63 221.11,-357.29 214.16,-358.12"/>
<text text-anchor="middle" x="333" y="-338.8" font-family="Times,serif" font-size="14.00" fill="white">3,862,475 row(s)/4,578 chunk(s)</text>
</g>
<!-- 133099849377040 -->
<g id="node8" class="node">
<title>133099849377040</title>
<g id="a_node8"><a xlink:title="Output: 300005811 rows in 4578 chunks filtered: 0, 12 ms 419 µs.">
<polygon fill="none" stroke="white" points="271.5,-133 140.5,-133 140.5,-19 271.5,-19 271.5,-133"/>
<text text-anchor="middle" x="206" y="-117.8" font-family="Times,serif" font-size="14.00" fill="white">GetTable</text>
<text text-anchor="middle" x="206" y="-102.8" font-family="Times,serif" font-size="14.00" fill="white">(lineitem)</text>
<text text-anchor="middle" x="206" y="-87.8" font-family="Times,serif" font-size="14.00" fill="white">pruned:</text>
<text text-anchor="middle" x="206" y="-72.8" font-family="Times,serif" font-size="14.00" fill="white">0/4578 chunk(s)</text>
<text text-anchor="middle" x="206" y="-57.8" font-family="Times,serif" font-size="14.00" fill="white">12/16 column(s)</text>
<text text-anchor="middle" x="206" y="-26.8" font-family="Times,serif" font-size="14.00" fill="white">12 ms 419 µs</text>
</a>
</g>
</g>
<!-- 133099849377040&#45;&gt;133110622467280 -->
<g id="edge7" class="edge">
<title>133099849377040&#45;&gt;133110622467280</title>
<path fill="none" stroke="white" stroke-width="8" d="M206,-133.09C206,-154.46 206,-178.86 206,-200.45"/>
<polygon fill="white" stroke="white" stroke-width="8" points="199,-200.47 206,-210.47 213,-200.47 199,-200.47"/>
<text text-anchor="middle" x="331" y="-173.8" font-family="Times,serif" font-size="14.00" fill="white">300,005,811 row(s)/4,578 chunk(s)</text>
</g>
<!-- 133110710138896 -->
<g id="node9" class="node">
<title>133110710138896</title>
<g id="a_node9"><a xlink:title="Output: 10000000 rows in 153 chunks filtered: 0, 694 µs 652 ns.">
<polygon fill="none" stroke="white" points="548.5,-422 431.5,-422 431.5,-368 548.5,-368 548.5,-422"/>
<text text-anchor="middle" x="490" y="-406.8" font-family="Times,serif" font-size="14.00" fill="white">Validate</text>
<text text-anchor="middle" x="490" y="-375.8" font-family="Times,serif" font-size="14.00" fill="white">694 µs 652 ns</text>
</a>
</g>
</g>
<!-- 133110710138896&#45;&gt;133110622467920 -->
<g id="edge8" class="edge">
<title>133110710138896&#45;&gt;133110622467920</title>
<path fill="none" stroke="white" d="M483.96,-422.18C480.29,-433.38 474.61,-445.94 466,-455 461.91,-459.31 457.38,-463.29 452.57,-466.97"/>
<polygon fill="white" stroke="white" points="444.22,-472.88 454.41,-469.96 452.39,-467.1 444.22,-472.88"/>
<text text-anchor="middle" x="589" y="-443.8" font-family="Times,serif" font-size="14.00" fill="white">10,000,000 row(s)/153 chunk(s)</text>
</g>
<!-- 133099849377936 -->
<g id="node10" class="node">
<title>133099849377936</title>
<g id="a_node10"><a xlink:title="Output: 10000000 rows in 153 chunks filtered: 0, 471 µs 440 ns.">
<polygon fill="none" stroke="white" points="552,-317 430,-317 430,-203 552,-203 552,-317"/>
<text text-anchor="middle" x="491" y="-301.8" font-family="Times,serif" font-size="14.00" fill="white">GetTable</text>
<text text-anchor="middle" x="491" y="-286.8" font-family="Times,serif" font-size="14.00" fill="white">(part)</text>
<text text-anchor="middle" x="491" y="-271.8" font-family="Times,serif" font-size="14.00" fill="white">pruned:</text>
<text text-anchor="middle" x="491" y="-256.8" font-family="Times,serif" font-size="14.00" fill="white">0/153 chunk(s)</text>
<text text-anchor="middle" x="491" y="-241.8" font-family="Times,serif" font-size="14.00" fill="white">7/9 column(s)</text>
<text text-anchor="middle" x="491" y="-210.8" font-family="Times,serif" font-size="14.00" fill="white">471 µs 440 ns</text>
</a>
</g>
</g>
<!-- 133099849377936&#45;&gt;133110710138896 -->
<g id="edge9" class="edge">
<title>133099849377936&#45;&gt;133110710138896</title>
<path fill="none" stroke="white" d="M490.58,-317.02C490.48,-330.77 490.37,-345.14 490.27,-357.69"/>
<polygon fill="white" stroke="white" points="486.77,-357.72 490.2,-367.75 493.77,-357.77 486.77,-357.72"/>
<text text-anchor="middle" x="604" y="-338.8" font-family="Times,serif" font-size="14.00" fill="white">10,000,000 row(s)/153 chunk(s)</text>
</g>
<!-- 0 -->
<g id="node11" class="node">
<title>0</title>
<polygon fill="none" stroke="white" points="289.5,-0.5 289.5,-151.5 630.5,-151.5 630.5,-0.5 289.5,-0.5"/>
<text text-anchor="middle" x="460" y="-136.3" font-family="Times,serif" font-size="14.00" fill="white">Total by operator</text>
<polyline fill="none" stroke="white" points="289.5,-128.5 630.5,-128.5 "/>
<text text-anchor="end" x="443.5" y="-113.3" font-family="Times,serif" font-size="14.00" fill="white">JoinSimdSortMerge </text>
<text text-anchor="end" x="443.5" y="-98.3" font-family="Times,serif" font-size="14.00" fill="white"> Projection </text>
<text text-anchor="end" x="443.5" y="-83.3" font-family="Times,serif" font-size="14.00" fill="white"> TableScan </text>
<text text-anchor="end" x="443.5" y="-68.3" font-family="Times,serif" font-size="14.00" fill="white"> AggregateHash </text>
<text text-anchor="end" x="443.5" y="-53.3" font-family="Times,serif" font-size="14.00" fill="white"> GetTable </text>
<text text-anchor="end" x="443.5" y="-38.3" font-family="Times,serif" font-size="14.00" fill="white"> Validate </text>
<text text-anchor="end" x="443.5" y="-23.3" font-family="Times,serif" font-size="14.00" fill="white"> Alias </text>
<text text-anchor="end" x="443.5" y="-8.3" font-family="Times,serif" font-size="14.00" fill="white">total</text>
<polyline fill="none" stroke="white" points="451.5,-0.5 451.5,-128.5 "/>
<text text-anchor="start" x="459.5" y="-113.3" font-family="Times,serif" font-size="14.00" fill="white">320 ms 506 µs </text>
<text text-anchor="start" x="459.5" y="-98.3" font-family="Times,serif" font-size="14.00" fill="white"> 254 ms 30 µs </text>
<text text-anchor="start" x="459.5" y="-83.3" font-family="Times,serif" font-size="14.00" fill="white"> 20 ms 686 µs </text>
<text text-anchor="start" x="459.5" y="-68.3" font-family="Times,serif" font-size="14.00" fill="white"> 14 ms 186 µs </text>
<text text-anchor="start" x="459.5" y="-53.3" font-family="Times,serif" font-size="14.00" fill="white"> 12 ms 890 µs </text>
<text text-anchor="start" x="459.5" y="-38.3" font-family="Times,serif" font-size="14.00" fill="white"> 10 ms 796 µs </text>
<text text-anchor="start" x="459.5" y="-23.3" font-family="Times,serif" font-size="14.00" fill="white"> 1 µs 743 ns </text>
<text text-anchor="start" x="459.5" y="-8.3" font-family="Times,serif" font-size="14.00" fill="white"> 633 ms 96 µs </text>
<polyline fill="none" stroke="white" points="577.5,-0.5 577.5,-128.5 "/>
<text text-anchor="start" x="585.5" y="-113.3" font-family="Times,serif" font-size="14.00" fill="white">51 %</text>
<text text-anchor="start" x="585.5" y="-98.3" font-family="Times,serif" font-size="14.00" fill="white">40 %</text>
<text text-anchor="start" x="585.5" y="-83.3" font-family="Times,serif" font-size="14.00" fill="white">3 %</text>
<text text-anchor="start" x="585.5" y="-68.3" font-family="Times,serif" font-size="14.00" fill="white">2 %</text>
<text text-anchor="start" x="585.5" y="-53.3" font-family="Times,serif" font-size="14.00" fill="white">2 %</text>
<text text-anchor="start" x="585.5" y="-38.3" font-family="Times,serif" font-size="14.00" fill="white">2 %</text>
<text text-anchor="start" x="585.5" y="-23.3" font-family="Times,serif" font-size="14.00" fill="white">0 %</text>
<text text-anchor="start" x="585.5" y="-8.3" font-family="Times,serif" font-size="14.00" fill="white"> </text>
</g>
</g>
</svg>
