<?xml version="1.0" encoding="UTF-8" standalone="no"?>
<!DOCTYPE svg PUBLIC "-//W3C//DTD SVG 1.1//EN"
 "http://www.w3.org/Graphics/SVG/1.1/DTD/svg11.dtd">
<!-- Generated by graphviz version 2.43.0 (0)
 -->
<!-- Title: G Pages: 1 -->
<svg width="1333pt" height="2555pt"
 viewBox="0.00 0.00 1333.00 2555.00" xmlns="http://www.w3.org/2000/svg" xmlns:xlink="http://www.w3.org/1999/xlink">
<g id="graph0" class="graph" transform="scale(1 1) rotate(0) translate(4 2551)">
<title>G</title>
<polygon fill="black" stroke="transparent" points="-4,4 -4,-2551 1329,-2551 1329,4 -4,4"/>
<text text-anchor="middle" x="319.5" y="-2531.8" font-family="Times,serif" font-size="14.00" fill="white">For tooltips with advanced information, hover your mouse over vertices or edge labels.</text>
<!-- 133106131296272 -->
<g id="node1" class="node">
<title>133106131296272</title>
<g id="a_node1"><a xlink:title="Output: 100 rows in 1 chunk filtered: 0, 1 µs 833 ns.">
<polygon fill="none" stroke="white" points="187,-2492 35,-2492 35,-2423 187,-2423 187,-2492"/>
<text text-anchor="middle" x="111" y="-2476.8" font-family="Times,serif" font-size="14.00" fill="white">Alias</text>
<text text-anchor="middle" x="111" y="-2461.8" font-family="Times,serif" font-size="14.00" fill="white">[s_name, numwait]</text>
<text text-anchor="middle" x="111" y="-2430.8" font-family="Times,serif" font-size="14.00" fill="white">1 µs 833 ns</text>
</a>
</g>
</g>
<!-- 133106133195792 -->
<g id="node2" class="node">
<title>133106133195792</title>
<g id="a_node2"><a xlink:title="Output: 100 rows in 1 chunk filtered: 0, 8 µs 750 ns.">
<polygon fill="none" stroke="white" points="160.5,-2372 61.5,-2372 61.5,-2318 160.5,-2318 160.5,-2372"/>
<text text-anchor="middle" x="111" y="-2356.8" font-family="Times,serif" font-size="14.00" fill="white">Limit</text>
<text text-anchor="middle" x="111" y="-2325.8" font-family="Times,serif" font-size="14.00" fill="white">8 µs 750 ns</text>
</a>
</g>
</g>
<!-- 133106133195792&#45;&gt;133106131296272 -->
<g id="edge1" class="edge">
<title>133106133195792&#45;&gt;133106131296272</title>
<path fill="none" stroke="white" d="M111,-2372.19C111,-2384.29 111,-2399 111,-2412.72"/>
<polygon fill="white" stroke="white" points="107.5,-2412.95 111,-2422.95 114.5,-2412.96 107.5,-2412.95"/>
<text text-anchor="middle" x="189" y="-2393.8" font-family="Times,serif" font-size="14.00" fill="white">100 row(s)/1 chunk(s)</text>
</g>
<!-- 133115845254864 -->
<g id="node3" class="node">
<title>133115845254864</title>
<g id="a_node3"><a xlink:title="Output: 19795 rows in 1 chunk filtered: 0, 18 ms 610 µs.&#10;Operator step runtimes:&#10; MaterializeSortColumns 5 ms 638 µs&#10; Sort 12 ms 300 µs&#10; TemporaryResultWriting 72 µs 673 ns&#10; WriteOutput 190 µs 961 ns.">
<polygon fill="none" stroke="white" points="167.5,-2267 54.5,-2267 54.5,-2213 167.5,-2213 167.5,-2267"/>
<text text-anchor="middle" x="111" y="-2251.8" font-family="Times,serif" font-size="14.00" fill="white">Sort</text>
<text text-anchor="middle" x="111" y="-2220.8" font-family="Times,serif" font-size="14.00" fill="white">18 ms 610 µs</text>
</a>
</g>
</g>
<!-- 133115845254864&#45;&gt;133106133195792 -->
<g id="edge2" class="edge">
<title>133115845254864&#45;&gt;133106133195792</title>
<path fill="none" stroke="white" d="M111,-2267.26C111,-2279.49 111,-2294.24 111,-2307.52"/>
<polygon fill="white" stroke="white" points="107.5,-2307.79 111,-2317.79 114.5,-2307.79 107.5,-2307.79"/>
<text text-anchor="middle" x="200" y="-2288.8" font-family="Times,serif" font-size="14.00" fill="white">19,795 row(s)/1 chunk(s)</text>
</g>
<!-- 133106288805392 -->
<g id="node4" class="node">
<title>133106288805392</title>
<g id="a_node4"><a xlink:title="Output: 19795 rows in 1 chunk filtered: 0, 35 ms 815 µs.&#10;Operator step runtimes:&#10; GroupByKeyPartitioning 32 ms 988 µs&#10; Aggregating 2 ms 583 µs&#10; GroupByColumnsWriting 153 µs 555 ns&#10; AggregateColumnsWriting 62 µs 741 ns&#10; OutputWriting 5 µs 633 ns.">
<polygon fill="none" stroke="white" points="188.5,-2162 33.5,-2162 33.5,-2078 188.5,-2078 188.5,-2162"/>
<text text-anchor="middle" x="111" y="-2146.8" font-family="Times,serif" font-size="14.00" fill="white">AggregateHash</text>
<text text-anchor="middle" x="111" y="-2131.8" font-family="Times,serif" font-size="14.00" fill="white">GroupBy {s_name}</text>
<text text-anchor="middle" x="111" y="-2116.8" font-family="Times,serif" font-size="14.00" fill="white">COUNT(*)</text>
<text text-anchor="middle" x="111" y="-2085.8" font-family="Times,serif" font-size="14.00" fill="white">35 ms 815 µs</text>
</a>
</g>
</g>
<!-- 133106288805392&#45;&gt;133115845254864 -->
<g id="edge3" class="edge">
<title>133106288805392&#45;&gt;133115845254864</title>
<path fill="none" stroke="white" d="M111,-2162.27C111,-2175.36 111,-2189.72 111,-2202.45"/>
<polygon fill="white" stroke="white" points="107.5,-2202.69 111,-2212.69 114.5,-2202.69 107.5,-2202.69"/>
<text text-anchor="middle" x="200" y="-2183.8" font-family="Times,serif" font-size="14.00" fill="white">19,795 row(s)/1 chunk(s)</text>
</g>
<!-- 133115845254544 -->
<g id="node5" class="node">
<title>133115845254544</title>
<g id="a_node5"><a xlink:title="Output: 195916 rows in 64 chunks filtered: 0, 223 ms 601 µs.&#10;Operator step runtimes:&#10; LeftSideMaterialize 88 ms 829 µs&#10; RightSideMaterialize 51 ms 809 µs&#10; LeftSideTransform 0 ns&#10; RightSideTransform 0 ns&#10; LeftSidePartition 2 ms 602 µs&#10; RightSidePartition 24 ms 382 µs&#10; LeftSideSortBuckets 645 µs 476 ns&#10; RightSideSortBuckets 5 ms 297 µs&#10; GatherRowIds 4 µs 142 ns&#10; FindJoinPartner 48 ms 837 µs&#10; OutputWriting 565 µs 499 ns.&#10;Radix bits: 8.">
<polygon fill="none" stroke="white" stroke-width="3.87" points="222,-2027 0,-2027 0,-1943 222,-1943 222,-2027"/>
<text text-anchor="middle" x="111" y="-2011.8" font-family="Times,serif" font-size="14.00" fill="white">JoinSimdSortMerge (Semi)</text>
<text text-anchor="middle" x="111" y="-1996.8" font-family="Times,serif" font-size="14.00" fill="white">l_orderkey = l_orderkey</text>
<text text-anchor="middle" x="111" y="-1981.8" font-family="Times,serif" font-size="14.00" fill="white">AND l_suppkey != l_suppkey</text>
<text text-anchor="middle" x="111" y="-1950.8" font-family="Times,serif" font-size="14.00" fill="white">223 ms 601 µs</text>
</a>
</g>
</g>
<!-- 133115845254544&#45;&gt;133106288805392 -->
<g id="edge4" class="edge">
<title>133115845254544&#45;&gt;133106288805392</title>
<path fill="none" stroke="white" d="M111,-2027.35C111,-2040.11 111,-2054.32 111,-2067.67"/>
<polygon fill="white" stroke="white" points="107.5,-2067.67 111,-2077.67 114.5,-2067.67 107.5,-2067.67"/>
<text text-anchor="middle" x="209" y="-2048.8" font-family="Times,serif" font-size="14.00" fill="white">195,916 row(s)/64 chunk(s)</text>
</g>
<!-- 133115845254224 -->
<g id="node6" class="node">
<title>133115845254224</title>
<g id="a_node6"><a xlink:title="Output: 327890 rows in 64 chunks filtered: 0, 650 ms 938 µs.&#10;Operator step runtimes:&#10; LeftSideMaterialize 108 ms 462 µs&#10; RightSideMaterialize 48 ms 19 µs&#10; LeftSideTransform 0 ns&#10; RightSideTransform 0 ns&#10; LeftSidePartition 4 ms 946 µs&#10; RightSidePartition 24 ms 245 µs&#10; LeftSideSortBuckets 7 ms 57 µs&#10; RightSideSortBuckets 5 ms 165 µs&#10; GatherRowIds 15 µs 858 ns&#10; FindJoinPartner 449 ms 574 µs&#10; OutputWriting 2 ms 393 µs.&#10;Radix bits: 8.">
<polygon fill="none" stroke="white" stroke-width="6.5" points="480.5,-1892 193.5,-1892 193.5,-1808 480.5,-1808 480.5,-1892"/>
<text text-anchor="middle" x="337" y="-1876.8" font-family="Times,serif" font-size="14.00" fill="white">JoinSimdSortMerge (AntiNullAsFalse)</text>
<text text-anchor="middle" x="337" y="-1861.8" font-family="Times,serif" font-size="14.00" fill="white">l_orderkey = l_orderkey</text>
<text text-anchor="middle" x="337" y="-1846.8" font-family="Times,serif" font-size="14.00" fill="white">AND l_suppkey != l_suppkey</text>
<text text-anchor="middle" x="337" y="-1815.8" font-family="Times,serif" font-size="14.00" fill="white">650 ms 938 µs</text>
</a>
</g>
</g>
<!-- 133115845254224&#45;&gt;133115845254544 -->
<g id="edge5" class="edge">
<title>133115845254224&#45;&gt;133115845254544</title>
<path fill="none" stroke="white" d="M267.04,-1892.17C242.57,-1906.57 214.94,-1922.83 189.8,-1937.63"/>
<polygon fill="white" stroke="white" points="189.64,-1937.72 187.86,-1934.71 181.02,-1942.79 189.64,-1937.72"/>
<text text-anchor="middle" x="329" y="-1913.8" font-family="Times,serif" font-size="14.00" fill="white">327,890 row(s)/64 chunk(s)</text>
</g>
<!-- 133115845253264 -->
<g id="node7" class="node">
<title>133115845253264</title>
<g id="a_node7"><a xlink:title="Output: 3626101 rows in 256 chunks filtered: 0, 84 ms 653 µs.&#10;Operator step runtimes:&#10; LeftSideMaterialize 45 ms 550 µs&#10; RightSideMaterialize 554 µs 807 ns&#10; LeftSideTransform 0 ns&#10; RightSideTransform 0 ns&#10; LeftSidePartition 5 ms 845 µs&#10; RightSidePartition 1 ms 126 µs&#10; LeftSideSortBuckets 10 ms 623 µs&#10; RightSideSortBuckets 511 µs 755 ns&#10; GatherRowIds 2 µs 158 ns&#10; FindJoinPartner 13 ms 696 µs&#10; OutputWriting 5 ms 820 µs.&#10;Radix bits: 8.">
<polygon fill="none" stroke="white" stroke-width="1.47" points="676.5,-1397 465.5,-1397 465.5,-1328 676.5,-1328 676.5,-1397"/>
<text text-anchor="middle" x="571" y="-1381.8" font-family="Times,serif" font-size="14.00" fill="white">JoinSimdSortMerge (Inner)</text>
<text text-anchor="middle" x="571" y="-1366.8" font-family="Times,serif" font-size="14.00" fill="white">l_suppkey = s_suppkey</text>
<text text-anchor="middle" x="571" y="-1335.8" font-family="Times,serif" font-size="14.00" fill="white">84 ms 653 µs</text>
</a>
</g>
</g>
<!-- 133115845253264&#45;&gt;133115845254224 -->
<g id="edge6" class="edge">
<title>133115845253264&#45;&gt;133115845254224</title>
<path fill="none" stroke="white" d="M571,-1397.07C571,-1420.68 571,-1453.02 571,-1481.5 571,-1481.5 571,-1481.5 571,-1716 571,-1750.72 571.16,-1766.08 546,-1790 530.12,-1805.09 510.69,-1816.37 490.13,-1824.8"/>
<polygon fill="white" stroke="white" points="489.94,-1824.87 488.68,-1821.6 480.61,-1828.47 489.94,-1824.87"/>
<text text-anchor="middle" x="680.5" y="-1591.3" font-family="Times,serif" font-size="14.00" fill="white">3,626,101 row(s)/256 chunk(s)</text>
</g>
<!-- 133115845253584 -->
<g id="node24" class="node">
<title>133115845253584</title>
<g id="a_node24"><a xlink:title="Output: 17088802 rows in 64 chunks filtered: 0, 1 s 194 ms.&#10;Operator step runtimes:&#10; LeftSideMaterialize 224 ms 137 µs&#10; RightSideMaterialize 107 ms 337 µs&#10; LeftSideTransform 0 ns&#10; RightSideTransform 0 ns&#10; LeftSidePartition 537 ms 870 µs&#10; RightSidePartition 5 ms 217 µs&#10; LeftSideSortBuckets 187 ms 110 µs&#10; RightSideSortBuckets 7 ms 282 µs&#10; GatherRowIds 3 µs 794 ns&#10; FindJoinPartner 118 ms 776 µs&#10; OutputWriting 373 µs 209 ns.&#10;Radix bits: 8.">
<polygon fill="none" stroke="white" stroke-width="8" points="358.5,-1517 73.5,-1517 73.5,-1448 358.5,-1448 358.5,-1517"/>
<text text-anchor="middle" x="216" y="-1501.8" font-family="Times,serif" font-size="14.00" fill="white">JoinSimdSortMerge (Semi Reduction)</text>
<text text-anchor="middle" x="216" y="-1486.8" font-family="Times,serif" font-size="14.00" fill="white">l_orderkey = l_orderkey</text>
<text text-anchor="middle" x="216" y="-1455.8" font-family="Times,serif" font-size="14.00" fill="white">1 s 194 ms</text>
</a>
</g>
</g>
<!-- 133115845253264&#45;&gt;133115845253584 -->
<g id="edge7" class="edge">
<title>133115845253264&#45;&gt;133115845253584</title>
<path fill="none" stroke="white" d="M465.37,-1380.31C424.81,-1388.45 378.54,-1399.82 338,-1415 318,-1422.49 297.25,-1432.75 278.65,-1442.97"/>
<polygon fill="white" stroke="white" points="269.71,-1447.97 280.15,-1446.14 278.44,-1443.09 269.71,-1447.97"/>
<text text-anchor="middle" x="447.5" y="-1418.8" font-family="Times,serif" font-size="14.00" fill="white">3,626,101 row(s)/256 chunk(s)</text>
</g>
<!-- 133115845252944 -->
<g id="node8" class="node">
<title>133115845252944</title>
<g id="a_node8"><a xlink:title="Output: 3626101 rows in 64 chunks filtered: 0, 126 ms 88 µs.&#10;Chunks: 0 skipped with no results, &#10;0 skipped with all matching, 0 scanned using binary search.">
<polygon fill="none" stroke="white" stroke-width="2.46" points="684.5,-1277 457.5,-1277 457.5,-1193 684.5,-1193 684.5,-1277"/>
<text text-anchor="middle" x="571" y="-1261.8" font-family="Times,serif" font-size="14.00" fill="white">TableScan</text>
<text text-anchor="middle" x="571" y="-1246.8" font-family="Times,serif" font-size="14.00" fill="white">Impl: ColumnVsColumn</text>
<text text-anchor="middle" x="571" y="-1231.8" font-family="Times,serif" font-size="14.00" fill="white">l_receiptdate &gt; l_commitdate</text>
<text text-anchor="middle" x="571" y="-1200.8" font-family="Times,serif" font-size="14.00" fill="white">126 ms 88 µs</text>
</a>
</g>
</g>
<!-- 133115845252944&#45;&gt;133115845253264 -->
<g id="edge8" class="edge">
<title>133115845252944&#45;&gt;133115845253264</title>
<path fill="none" stroke="white" d="M571,-1277.09C571,-1290.07 571,-1304.45 571,-1317.61"/>
<polygon fill="white" stroke="white" points="571,-1317.85 567.5,-1317.85 571,-1327.85 571,-1317.85"/>
<text text-anchor="middle" x="676" y="-1298.8" font-family="Times,serif" font-size="14.00" fill="white">3,626,101 row(s)/64 chunk(s)</text>
</g>
<!-- 133106133193232 -->
<g id="node9" class="node">
<title>133106133193232</title>
<g id="a_node9"><a xlink:title="Output: 5752178 rows in 64 chunks filtered: 0, 24 ms 187 µs.">
<polygon fill="none" stroke="white" points="627.5,-1142 514.5,-1142 514.5,-1088 627.5,-1088 627.5,-1142"/>
<text text-anchor="middle" x="571" y="-1126.8" font-family="Times,serif" font-size="14.00" fill="white">Validate</text>
<text text-anchor="middle" x="571" y="-1095.8" font-family="Times,serif" font-size="14.00" fill="white">24 ms 187 µs</text>
</a>
</g>
</g>
<!-- 133106133193232&#45;&gt;133115845252944 -->
<g id="edge9" class="edge">
<title>133106133193232&#45;&gt;133115845252944</title>
<path fill="none" stroke="white" d="M571,-1142.19C571,-1154.1 571,-1168.63 571,-1182.58"/>
<polygon fill="white" stroke="white" points="567.5,-1182.59 571,-1192.59 574.5,-1182.59 567.5,-1182.59"/>
<text text-anchor="middle" x="676" y="-1163.8" font-family="Times,serif" font-size="14.00" fill="white">5,752,178 row(s)/64 chunk(s)</text>
</g>
<!-- 133115845252624 -->
<g id="node10" class="node">
<title>133115845252624</title>
<g id="a_node10"><a xlink:title="Output: 5752178 rows in 64 chunks filtered: 0, 379 ms 334 µs.&#10;Operator step runtimes:&#10; LeftSideMaterialize 164 ms 833 µs&#10; RightSideMaterialize 44 ms 922 µs&#10; LeftSideTransform 0 ns&#10; RightSideTransform 0 ns&#10; LeftSidePartition 17 ms 978 µs&#10; RightSidePartition 47 ms 421 µs&#10; LeftSideSortBuckets 15 ms 525 µs&#10; RightSideSortBuckets 29 ms 298 µs&#10; GatherRowIds 4 µs 217 ns&#10; FindJoinPartner 40 ms 67 µs&#10; OutputWriting 11 ms 156 µs.&#10;Radix bits: 8.">
<polygon fill="none" stroke="white" stroke-width="5.17" points="675.5,-1037 466.5,-1037 466.5,-968 675.5,-968 675.5,-1037"/>
<text text-anchor="middle" x="571" y="-1021.8" font-family="Times,serif" font-size="14.00" fill="white">JoinSimdSortMerge (Semi)</text>
<text text-anchor="middle" x="571" y="-1006.8" font-family="Times,serif" font-size="14.00" fill="white">l_orderkey = o_orderkey</text>
<text text-anchor="middle" x="571" y="-975.8" font-family="Times,serif" font-size="14.00" fill="white">379 ms 334 µs</text>
</a>
</g>
</g>
<!-- 133115845252624&#45;&gt;133106133193232 -->
<g id="edge10" class="edge">
<title>133115845252624&#45;&gt;133106133193232</title>
<path fill="none" stroke="white" d="M571,-1037.25C571,-1050.07 571,-1064.73 571,-1077.77"/>
<polygon fill="white" stroke="white" points="567.5,-1077.81 571,-1087.81 574.5,-1077.81 567.5,-1077.81"/>
<text text-anchor="middle" x="676" y="-1058.8" font-family="Times,serif" font-size="14.00" fill="white">5,752,178 row(s)/64 chunk(s)</text>
</g>
<!-- 133115845251344 -->
<g id="node11" class="node">
<title>133115845251344</title>
<g id="a_node11"><a xlink:title="Output: 11873869 rows in 256 chunks filtered: 0, 352 ms 787 µs.&#10;Operator step runtimes:&#10; LeftSideMaterialize 254 ms 205 µs&#10; RightSideMaterialize 910 µs 835 ns&#10; LeftSideTransform 0 ns&#10; RightSideTransform 0 ns&#10; LeftSidePartition 26 ms 671 µs&#10; RightSidePartition 1 ms 405 µs&#10; LeftSideSortBuckets 20 ms 241 µs&#10; RightSideSortBuckets 593 µs 706 ns&#10; GatherRowIds 3 µs 133 ns&#10; FindJoinPartner 41 ms 90 µs&#10; OutputWriting 971 µs 273 ns.&#10;Radix bits: 8.">
<polygon fill="none" stroke="white" stroke-width="4.99" points="795.5,-917 510.5,-917 510.5,-848 795.5,-848 795.5,-917"/>
<text text-anchor="middle" x="653" y="-901.8" font-family="Times,serif" font-size="14.00" fill="white">JoinSimdSortMerge (Semi Reduction)</text>
<text text-anchor="middle" x="653" y="-886.8" font-family="Times,serif" font-size="14.00" fill="white">l_suppkey = s_suppkey</text>
<text text-anchor="middle" x="653" y="-855.8" font-family="Times,serif" font-size="14.00" fill="white">352 ms 787 µs</text>
</a>
</g>
</g>
<!-- 133115845251344&#45;&gt;133115845252624 -->
<g id="edge11" class="edge">
<title>133115845251344&#45;&gt;133115845252624</title>
<path fill="none" stroke="white" d="M645.68,-917.25C642.32,-928.28 637.57,-940.2 631,-950 628.64,-953.53 625.97,-956.96 623.1,-960.25"/>
<polygon fill="white" stroke="white" points="622.95,-960.42 620.4,-958.02 616.11,-967.71 622.95,-960.42"/>
<text text-anchor="middle" x="753" y="-938.8" font-family="Times,serif" font-size="14.00" fill="white">11,873,869 row(s)/256 chunk(s)</text>
</g>
<!-- 133106131975248 -->
<g id="node12" class="node">
<title>133106131975248</title>
<g id="a_node12"><a xlink:title="Output: 300005811 rows in 4578 chunks filtered: 0, 35 ms 204 µs.">
<polygon fill="none" stroke="white" points="215.5,-797 84.5,-797 84.5,-683 215.5,-683 215.5,-797"/>
<text text-anchor="middle" x="150" y="-781.8" font-family="Times,serif" font-size="14.00" fill="white">GetTable</text>
<text text-anchor="middle" x="150" y="-766.8" font-family="Times,serif" font-size="14.00" fill="white">(lineitem)</text>
<text text-anchor="middle" x="150" y="-751.8" font-family="Times,serif" font-size="14.00" fill="white">pruned:</text>
<text text-anchor="middle" x="150" y="-736.8" font-family="Times,serif" font-size="14.00" fill="white">0/4578 chunk(s)</text>
<text text-anchor="middle" x="150" y="-721.8" font-family="Times,serif" font-size="14.00" fill="white">12/16 column(s)</text>
<text text-anchor="middle" x="150" y="-690.8" font-family="Times,serif" font-size="14.00" fill="white">35 ms 204 µs</text>
</a>
</g>
</g>
<!-- 133106131975248&#45;&gt;133115845251344 -->
<g id="edge12" class="edge">
<title>133106131975248&#45;&gt;133115845251344</title>
<path fill="none" stroke="white" stroke-width="8" d="M151.56,-797.26C154.64,-809.73 160.23,-821.69 170,-830 195.44,-851.64 436.85,-843.99 470,-848 479.96,-849.21 490.2,-850.61 500.51,-852.15"/>
<polygon fill="white" stroke="white" stroke-width="8" points="500.51,-852.16 499.45,-859.07 510.4,-853.67 500.51,-852.16"/>
<text text-anchor="middle" x="295" y="-818.8" font-family="Times,serif" font-size="14.00" fill="white">300,005,811 row(s)/4,578 chunk(s)</text>
</g>
<!-- 133106131975248&#45;&gt;133115845253584 -->
<g id="edge13" class="edge">
<title>133106131975248&#45;&gt;133115845253584</title>
<path fill="none" stroke="white" stroke-width="8" d="M140.06,-797.21C136.34,-822.84 133,-853.61 133,-881.5 133,-881.5 133,-881.5 133,-1363.5 133,-1392.5 149.98,-1419.4 168.58,-1440.18"/>
<polygon fill="white" stroke="white" stroke-width="8" points="168.64,-1440.24 163.53,-1445.03 175.47,-1447.55 168.64,-1440.24"/>
<text text-anchor="middle" x="258" y="-1111.3" font-family="Times,serif" font-size="14.00" fill="white">300,005,811 row(s)/4,578 chunk(s)</text>
</g>
<!-- 133106133195024 -->
<g id="node13" class="node">
<title>133106133195024</title>
<g id="a_node13"><a xlink:title="Output: 19795 rows in 1 chunk filtered: 0, 178 µs 788 ns.">
<polygon fill="none" stroke="white" points="857.5,-767 740.5,-767 740.5,-713 857.5,-713 857.5,-767"/>
<text text-anchor="middle" x="799" y="-751.8" font-family="Times,serif" font-size="14.00" fill="white">Validate</text>
<text text-anchor="middle" x="799" y="-720.8" font-family="Times,serif" font-size="14.00" fill="white">178 µs 788 ns</text>
</a>
</g>
</g>
<!-- 133106133195024&#45;&gt;133115845253264 -->
<g id="edge15" class="edge">
<title>133106133195024&#45;&gt;133115845253264</title>
<path fill="none" stroke="white" d="M837.95,-767.14C853.92,-779.79 871.16,-796.29 882,-815 897.14,-841.13 896,-851.3 896,-881.5 896,-881.5 896,-881.5 896,-1236 896,-1282.3 779.79,-1318.1 686.35,-1339.41"/>
<polygon fill="white" stroke="white" points="676.52,-1341.61 687.04,-1342.84 686.28,-1339.42 676.52,-1341.61"/>
<text text-anchor="middle" x="985" y="-1058.8" font-family="Times,serif" font-size="14.00" fill="white">19,795 row(s)/1 chunk(s)</text>
</g>
<!-- 133106133195024&#45;&gt;133115845251344 -->
<g id="edge14" class="edge">
<title>133106133195024&#45;&gt;133115845251344</title>
<path fill="none" stroke="white" d="M761.09,-767.06C742.92,-780.4 721.38,-797.49 704,-815 696.47,-822.59 689.05,-831.31 682.31,-839.87"/>
<polygon fill="white" stroke="white" points="676.08,-848 684.94,-842.2 682.17,-840.07 676.08,-848"/>
<text text-anchor="middle" x="793" y="-818.8" font-family="Times,serif" font-size="14.00" fill="white">19,795 row(s)/1 chunk(s)</text>
</g>
<!-- 133115845250704 -->
<g id="node14" class="node">
<title>133115845250704</title>
<g id="a_node14"><a xlink:title="Output: 19795 rows in 1 chunk filtered: 0, 4 ms 215 µs.&#10;Operator step runtimes:&#10; LeftSideMaterialize 955 µs 795 ns&#10; RightSideMaterialize 65 µs 789 ns&#10; LeftSideTransform 0 ns&#10; RightSideTransform 0 ns&#10; LeftSidePartition 633 µs 986 ns&#10; RightSidePartition 27 µs 377 ns&#10; LeftSideSortBuckets 978 µs 174 ns&#10; RightSideSortBuckets 873 µs 671 ns&#10; GatherRowIds 1 µs 752 ns&#10; FindJoinPartner 423 µs 210 ns&#10; OutputWriting 69 µs 578 ns.&#10;Radix bits: 8.">
<polygon fill="none" stroke="white" points="903.5,-609.5 694.5,-609.5 694.5,-540.5 903.5,-540.5 903.5,-609.5"/>
<text text-anchor="middle" x="799" y="-594.3" font-family="Times,serif" font-size="14.00" fill="white">JoinSimdSortMerge (Semi)</text>
<text text-anchor="middle" x="799" y="-579.3" font-family="Times,serif" font-size="14.00" fill="white">s_nationkey = n_nationkey</text>
<text text-anchor="middle" x="799" y="-548.3" font-family="Times,serif" font-size="14.00" fill="white">4 ms 215 µs</text>
</a>
</g>
</g>
<!-- 133115845250704&#45;&gt;133106133195024 -->
<g id="edge16" class="edge">
<title>133115845250704&#45;&gt;133106133195024</title>
<path fill="none" stroke="white" d="M799,-609.77C799,-636.89 799,-674.9 799,-702.68"/>
<polygon fill="white" stroke="white" points="795.5,-702.78 799,-712.78 802.5,-702.78 795.5,-702.78"/>
<text text-anchor="middle" x="888" y="-653.8" font-family="Times,serif" font-size="14.00" fill="white">19,795 row(s)/1 chunk(s)</text>
</g>
<!-- 133106131976144 -->
<g id="node15" class="node">
<title>133106131976144</title>
<g id="a_node15"><a xlink:title="Output: 500000 rows in 8 chunks filtered: 0, 30 µs 30 ns.">
<polygon fill="none" stroke="white" points="750.5,-467 637.5,-467 637.5,-353 750.5,-353 750.5,-467"/>
<text text-anchor="middle" x="694" y="-451.8" font-family="Times,serif" font-size="14.00" fill="white">GetTable</text>
<text text-anchor="middle" x="694" y="-436.8" font-family="Times,serif" font-size="14.00" fill="white">(supplier)</text>
<text text-anchor="middle" x="694" y="-421.8" font-family="Times,serif" font-size="14.00" fill="white">pruned:</text>
<text text-anchor="middle" x="694" y="-406.8" font-family="Times,serif" font-size="14.00" fill="white">0/8 chunk(s)</text>
<text text-anchor="middle" x="694" y="-391.8" font-family="Times,serif" font-size="14.00" fill="white">4/7 column(s)</text>
<text text-anchor="middle" x="694" y="-360.8" font-family="Times,serif" font-size="14.00" fill="white">30 µs 30 ns</text>
</a>
</g>
</g>
<!-- 133106131976144&#45;&gt;133115845250704 -->
<g id="edge17" class="edge">
<title>133106131976144&#45;&gt;133115845250704</title>
<path fill="none" stroke="white" d="M686.79,-467.09C687.45,-478.47 689.77,-490 695,-500 701.88,-513.16 712.29,-524.51 723.91,-534.08"/>
<polygon fill="white" stroke="white" points="724.2,-534.31 722.06,-537.08 732.11,-540.43 724.2,-534.31"/>
<text text-anchor="middle" x="788.5" y="-488.8" font-family="Times,serif" font-size="14.00" fill="white">500,000 row(s)/8 chunk(s)</text>
</g>
<!-- 133106133193744 -->
<g id="node16" class="node">
<title>133106133193744</title>
<g id="a_node16"><a xlink:title="Output: 1 row in 1 chunk filtered: 0, 7 µs 316 ns.">
<polygon fill="none" stroke="white" points="953.5,-437 854.5,-437 854.5,-383 953.5,-383 953.5,-437"/>
<text text-anchor="middle" x="904" y="-421.8" font-family="Times,serif" font-size="14.00" fill="white">Validate</text>
<text text-anchor="middle" x="904" y="-390.8" font-family="Times,serif" font-size="14.00" fill="white">7 µs 316 ns</text>
</a>
</g>
</g>
<!-- 133106133193744&#45;&gt;133115845250704 -->
<g id="edge18" class="edge">
<title>133106133193744&#45;&gt;133115845250704</title>
<path fill="none" stroke="white" d="M901.68,-437.11C899.08,-455.73 893.59,-480.78 882,-500 874.7,-512.11 864.79,-523.34 854.35,-533.21"/>
<polygon fill="white" stroke="white" points="846.69,-540.15 856.45,-536.03 854.1,-533.44 846.69,-540.15"/>
<text text-anchor="middle" x="958" y="-488.8" font-family="Times,serif" font-size="14.00" fill="white">1 row(s)/1 chunk(s)</text>
</g>
<!-- 133115845250384 -->
<g id="node17" class="node">
<title>133115845250384</title>
<g id="a_node17"><a xlink:title="Output: 1 row in 1 chunk filtered: 0, 21 µs 183 ns.&#10;Chunks: 0 skipped with no results, &#10;0 skipped with all matching, 0 scanned using binary search.">
<polygon fill="none" stroke="white" points="1008.5,-302 799.5,-302 799.5,-218 1008.5,-218 1008.5,-302"/>
<text text-anchor="middle" x="904" y="-286.8" font-family="Times,serif" font-size="14.00" fill="white">TableScan</text>
<text text-anchor="middle" x="904" y="-271.8" font-family="Times,serif" font-size="14.00" fill="white">Impl: ColumnVsValue</text>
<text text-anchor="middle" x="904" y="-256.8" font-family="Times,serif" font-size="14.00" fill="white">n_name = &#39;MOZAMBIQUE&#39;</text>
<text text-anchor="middle" x="904" y="-225.8" font-family="Times,serif" font-size="14.00" fill="white">21 µs 183 ns</text>
</a>
</g>
</g>
<!-- 133115845250384&#45;&gt;133106133193744 -->
<g id="edge19" class="edge">
<title>133115845250384&#45;&gt;133106133193744</title>
<path fill="none" stroke="white" d="M904,-302.23C904,-324.32 904,-351.31 904,-372.62"/>
<polygon fill="white" stroke="white" points="900.5,-372.88 904,-382.88 907.5,-372.88 900.5,-372.88"/>
<text text-anchor="middle" x="973" y="-323.8" font-family="Times,serif" font-size="14.00" fill="white">1 row(s)/1 chunk(s)</text>
</g>
<!-- 133106131976592 -->
<g id="node18" class="node">
<title>133106131976592</title>
<g id="a_node18"><a xlink:title="Output: 25 rows in 1 chunk filtered: 0, 11 µs 745 ns.">
<polygon fill="none" stroke="white" points="960.5,-140.5 847.5,-140.5 847.5,-26.5 960.5,-26.5 960.5,-140.5"/>
<text text-anchor="middle" x="904" y="-125.3" font-family="Times,serif" font-size="14.00" fill="white">GetTable</text>
<text text-anchor="middle" x="904" y="-110.3" font-family="Times,serif" font-size="14.00" fill="white">(nation)</text>
<text text-anchor="middle" x="904" y="-95.3" font-family="Times,serif" font-size="14.00" fill="white">pruned:</text>
<text text-anchor="middle" x="904" y="-80.3" font-family="Times,serif" font-size="14.00" fill="white">0/1 chunk(s)</text>
<text text-anchor="middle" x="904" y="-65.3" font-family="Times,serif" font-size="14.00" fill="white">2/4 column(s)</text>
<text text-anchor="middle" x="904" y="-34.3" font-family="Times,serif" font-size="14.00" fill="white">11 µs 745 ns</text>
</a>
</g>
</g>
<!-- 133106131976592&#45;&gt;133115845250384 -->
<g id="edge20" class="edge">
<title>133106131976592&#45;&gt;133115845250384</title>
<path fill="none" stroke="white" d="M904,-140.67C904,-162.25 904,-186.74 904,-207.83"/>
<polygon fill="white" stroke="white" points="900.5,-207.87 904,-217.87 907.5,-207.87 900.5,-207.87"/>
<text text-anchor="middle" x="977.5" y="-188.8" font-family="Times,serif" font-size="14.00" fill="white">25 row(s)/1 chunk(s)</text>
</g>
<!-- 133106133195280 -->
<g id="node19" class="node">
<title>133106133195280</title>
<g id="a_node19"><a xlink:title="Output: 36536161 rows in 1145 chunks filtered: 0, 3 ms 75 µs.">
<polygon fill="none" stroke="white" points="461.5,-909.5 366.5,-909.5 366.5,-855.5 461.5,-855.5 461.5,-909.5"/>
<text text-anchor="middle" x="414" y="-894.3" font-family="Times,serif" font-size="14.00" fill="white">Validate</text>
<text text-anchor="middle" x="414" y="-863.3" font-family="Times,serif" font-size="14.00" fill="white">3 ms 75 µs</text>
</a>
</g>
</g>
<!-- 133106133195280&#45;&gt;133115845252624 -->
<g id="edge21" class="edge">
<title>133106133195280&#45;&gt;133115845252624</title>
<path fill="none" stroke="white" stroke-width="2.81" d="M390.99,-909.73C382.49,-922.67 376.91,-938.03 386,-950 395.73,-962.81 424.42,-973.28 456.39,-981.36"/>
<polygon fill="white" stroke="white" stroke-width="2.81" points="466.4,-983.79 457.51,-978.03 456.68,-981.43 466.4,-983.79"/>
<text text-anchor="middle" x="506.5" y="-938.8" font-family="Times,serif" font-size="14.00" fill="white">36,536,161 row(s)/1,145 chunk(s)</text>
</g>
<!-- 133115845252304 -->
<g id="node20" class="node">
<title>133115845252304</title>
<g id="a_node20"><a xlink:title="Output: 36536161 rows in 1145 chunks filtered: 0, 22 ms 772 µs.&#10;Chunks: 0 skipped with no results, &#10;0 skipped with all matching, 0 scanned using binary search.">
<polygon fill="none" stroke="white" points="523.5,-782 354.5,-782 354.5,-698 523.5,-698 523.5,-782"/>
<text text-anchor="middle" x="439" y="-766.8" font-family="Times,serif" font-size="14.00" fill="white">TableScan</text>
<text text-anchor="middle" x="439" y="-751.8" font-family="Times,serif" font-size="14.00" fill="white">Impl: ColumnVsValue</text>
<text text-anchor="middle" x="439" y="-736.8" font-family="Times,serif" font-size="14.00" fill="white">o_orderstatus = &#39;F&#39;</text>
<text text-anchor="middle" x="439" y="-705.8" font-family="Times,serif" font-size="14.00" fill="white">22 ms 772 µs</text>
</a>
</g>
</g>
<!-- 133115845252304&#45;&gt;133106133195280 -->
<g id="edge22" class="edge">
<title>133115845252304&#45;&gt;133106133195280</title>
<path fill="none" stroke="white" stroke-width="2.81" d="M431.7,-782.02C428.13,-802.06 423.88,-825.98 420.43,-845.34"/>
<polygon fill="white" stroke="white" stroke-width="2.81" points="416.97,-844.82 418.67,-855.28 423.86,-846.05 416.97,-844.82"/>
<text text-anchor="middle" x="546.5" y="-818.8" font-family="Times,serif" font-size="14.00" fill="white">36,536,161 row(s)/1,145 chunk(s)</text>
</g>
<!-- 133106131975696 -->
<g id="node21" class="node">
<title>133106131975696</title>
<g id="a_node21"><a xlink:title="Output: 75000000 rows in 1145 chunks filtered: 0, 2 ms 668 µs.">
<polygon fill="none" stroke="white" points="504.5,-632 373.5,-632 373.5,-518 504.5,-518 504.5,-632"/>
<text text-anchor="middle" x="439" y="-616.8" font-family="Times,serif" font-size="14.00" fill="white">GetTable</text>
<text text-anchor="middle" x="439" y="-601.8" font-family="Times,serif" font-size="14.00" fill="white">(orders)</text>
<text text-anchor="middle" x="439" y="-586.8" font-family="Times,serif" font-size="14.00" fill="white">pruned:</text>
<text text-anchor="middle" x="439" y="-571.8" font-family="Times,serif" font-size="14.00" fill="white">0/1145 chunk(s)</text>
<text text-anchor="middle" x="439" y="-556.8" font-family="Times,serif" font-size="14.00" fill="white">7/9 column(s)</text>
<text text-anchor="middle" x="439" y="-525.8" font-family="Times,serif" font-size="14.00" fill="white">2 ms 668 µs</text>
</a>
</g>
</g>
<!-- 133106131975696&#45;&gt;133115845252304 -->
<g id="edge23" class="edge">
<title>133106131975696&#45;&gt;133115845252304</title>
<path fill="none" stroke="white" stroke-width="4.58" d="M439,-632.1C439,-650.19 439,-670.13 439,-687.85"/>
<polygon fill="white" stroke="white" stroke-width="4.58" points="434.99,-687.99 439,-697.99 443.01,-687.99 434.99,-687.99"/>
<text text-anchor="middle" x="559.5" y="-653.8" font-family="Times,serif" font-size="14.00" fill="white">75,000,000 row(s)/1,145 chunk(s)</text>
</g>
<!-- 133115845253904 -->
<g id="node22" class="node">
<title>133115845253904</title>
<g id="a_node22"><a xlink:title="Output: 11998840 rows in 64 chunks filtered: 0, 271 ms 705 µs.&#10;Chunks: 0 skipped with no results, &#10;0 skipped with all matching, 0 scanned using binary search.">
<polygon fill="none" stroke="white" stroke-width="4.35" points="420.5,-1757 193.5,-1757 193.5,-1673 420.5,-1673 420.5,-1757"/>
<text text-anchor="middle" x="307" y="-1741.8" font-family="Times,serif" font-size="14.00" fill="white">TableScan</text>
<text text-anchor="middle" x="307" y="-1726.8" font-family="Times,serif" font-size="14.00" fill="white">Impl: ColumnVsColumn</text>
<text text-anchor="middle" x="307" y="-1711.8" font-family="Times,serif" font-size="14.00" fill="white">l_receiptdate &gt; l_commitdate</text>
<text text-anchor="middle" x="307" y="-1680.8" font-family="Times,serif" font-size="14.00" fill="white">271 ms 705 µs</text>
</a>
</g>
</g>
<!-- 133115845253904&#45;&gt;133115845254224 -->
<g id="edge24" class="edge">
<title>133115845253904&#45;&gt;133115845254224</title>
<path fill="none" stroke="white" d="M316.33,-1757.35C319.21,-1770.11 322.41,-1784.32 325.42,-1797.67"/>
<polygon fill="white" stroke="white" points="327.68,-1807.67 328.89,-1797.15 325.48,-1797.92 327.68,-1807.67"/>
<text text-anchor="middle" x="432.5" y="-1778.8" font-family="Times,serif" font-size="14.00" fill="white">11,998,840 row(s)/64 chunk(s)</text>
</g>
<!-- 133106133194768 -->
<g id="node23" class="node">
<title>133106133194768</title>
<g id="a_node23"><a xlink:title="Output: 17088802 rows in 64 chunks filtered: 0, 24 ms 649 µs.">
<polygon fill="none" stroke="white" points="272.5,-1622 159.5,-1622 159.5,-1568 272.5,-1568 272.5,-1622"/>
<text text-anchor="middle" x="216" y="-1606.8" font-family="Times,serif" font-size="14.00" fill="white">Validate</text>
<text text-anchor="middle" x="216" y="-1575.8" font-family="Times,serif" font-size="14.00" fill="white">24 ms 649 µs</text>
</a>
</g>
</g>
<!-- 133106133194768&#45;&gt;133115845254544 -->
<g id="edge26" class="edge">
<title>133106133194768&#45;&gt;133115845254544</title>
<path fill="none" stroke="white" d="M191.61,-1622.26C162.97,-1655.08 117.07,-1714.33 99,-1775 83.44,-1827.24 90.23,-1890 98.52,-1933.03"/>
<polygon fill="white" stroke="white" points="100.54,-1942.98 101.98,-1932.49 98.55,-1933.18 100.54,-1942.98"/>
<text text-anchor="middle" x="208.5" y="-1778.8" font-family="Times,serif" font-size="14.00" fill="white">17,088,802 row(s)/64 chunk(s)</text>
</g>
<!-- 133106133194768&#45;&gt;133115845253904 -->
<g id="edge25" class="edge">
<title>133106133194768&#45;&gt;133115845253904</title>
<path fill="none" stroke="white" d="M236.2,-1622.19C245.83,-1634.68 257.68,-1650.04 268.91,-1664.6"/>
<polygon fill="white" stroke="white" points="266.19,-1666.81 275.06,-1672.59 271.73,-1662.53 266.19,-1666.81"/>
<text text-anchor="middle" x="371.5" y="-1643.8" font-family="Times,serif" font-size="14.00" fill="white">17,088,802 row(s)/64 chunk(s)</text>
</g>
<!-- 133115845253584&#45;&gt;133106133194768 -->
<g id="edge27" class="edge">
<title>133115845253584&#45;&gt;133106133194768</title>
<path fill="none" stroke="white" d="M216,-1517.25C216,-1530.07 216,-1544.73 216,-1557.77"/>
<polygon fill="white" stroke="white" points="212.5,-1557.81 216,-1567.81 219.5,-1557.81 212.5,-1557.81"/>
<text text-anchor="middle" x="325.5" y="-1538.8" font-family="Times,serif" font-size="14.00" fill="white">17,088,802 row(s)/64 chunk(s)</text>
</g>
<!-- 0 -->
<g id="node25" class="node">
<title>0</title>
<polygon fill="none" stroke="white" points="979,-0.5 979,-166.5 1325,-166.5 1325,-0.5 979,-0.5"/>
<text text-anchor="middle" x="1152" y="-151.3" font-family="Times,serif" font-size="14.00" fill="white">Total by operator</text>
<polyline fill="none" stroke="white" points="979,-143.5 1325,-143.5 "/>
<text text-anchor="end" x="1133" y="-128.3" font-family="Times,serif" font-size="14.00" fill="white">JoinSimdSortMerge </text>
<text text-anchor="end" x="1133" y="-113.3" font-family="Times,serif" font-size="14.00" fill="white"> TableScan </text>
<text text-anchor="end" x="1133" y="-98.3" font-family="Times,serif" font-size="14.00" fill="white"> Validate </text>
<text text-anchor="end" x="1133" y="-83.3" font-family="Times,serif" font-size="14.00" fill="white"> GetTable </text>
<text text-anchor="end" x="1133" y="-68.3" font-family="Times,serif" font-size="14.00" fill="white"> AggregateHash </text>
<text text-anchor="end" x="1133" y="-53.3" font-family="Times,serif" font-size="14.00" fill="white"> Sort </text>
<text text-anchor="end" x="1133" y="-38.3" font-family="Times,serif" font-size="14.00" fill="white"> Limit </text>
<text text-anchor="end" x="1133" y="-23.3" font-family="Times,serif" font-size="14.00" fill="white"> Alias </text>
<text text-anchor="end" x="1133" y="-8.3" font-family="Times,serif" font-size="14.00" fill="white">total</text>
<polyline fill="none" stroke="white" points="1141,-0.5 1141,-143.5 "/>
<text text-anchor="start" x="1149" y="-128.3" font-family="Times,serif" font-size="14.00" fill="white">2 s 889 ms </text>
<text text-anchor="start" x="1149" y="-113.3" font-family="Times,serif" font-size="14.00" fill="white"> 420 ms 586 µs </text>
<text text-anchor="start" x="1149" y="-98.3" font-family="Times,serif" font-size="14.00" fill="white"> 52 ms 97 µs </text>
<text text-anchor="start" x="1149" y="-83.3" font-family="Times,serif" font-size="14.00" fill="white"> 37 ms 914 µs </text>
<text text-anchor="start" x="1149" y="-68.3" font-family="Times,serif" font-size="14.00" fill="white"> 35 ms 815 µs </text>
<text text-anchor="start" x="1149" y="-53.3" font-family="Times,serif" font-size="14.00" fill="white"> 18 ms 610 µs </text>
<text text-anchor="start" x="1149" y="-38.3" font-family="Times,serif" font-size="14.00" fill="white"> 8 µs 750 ns </text>
<text text-anchor="start" x="1149" y="-23.3" font-family="Times,serif" font-size="14.00" fill="white"> 1 µs 833 ns </text>
<text text-anchor="start" x="1149" y="-8.3" font-family="Times,serif" font-size="14.00" fill="white"> 3 s 454 ms </text>
<polyline fill="none" stroke="white" points="1272,-0.5 1272,-143.5 "/>
<text text-anchor="start" x="1280" y="-128.3" font-family="Times,serif" font-size="14.00" fill="white">84 %</text>
<text text-anchor="start" x="1280" y="-113.3" font-family="Times,serif" font-size="14.00" fill="white">12 %</text>
<text text-anchor="start" x="1280" y="-98.3" font-family="Times,serif" font-size="14.00" fill="white">2 %</text>
<text text-anchor="start" x="1280" y="-83.3" font-family="Times,serif" font-size="14.00" fill="white">1 %</text>
<text text-anchor="start" x="1280" y="-68.3" font-family="Times,serif" font-size="14.00" fill="white">1 %</text>
<text text-anchor="start" x="1280" y="-53.3" font-family="Times,serif" font-size="14.00" fill="white">1 %</text>
<text text-anchor="start" x="1280" y="-38.3" font-family="Times,serif" font-size="14.00" fill="white">0 %</text>
<text text-anchor="start" x="1280" y="-23.3" font-family="Times,serif" font-size="14.00" fill="white">0 %</text>
<text text-anchor="start" x="1280" y="-8.3" font-family="Times,serif" font-size="14.00" fill="white"> </text>
</g>
</g>
</svg>
