<?xml version="1.0" encoding="UTF-8" standalone="no"?>
<!DOCTYPE svg PUBLIC "-//W3C//DTD SVG 1.1//EN"
 "http://www.w3.org/Graphics/SVG/1.1/DTD/svg11.dtd">
<!-- Generated by graphviz version 2.43.0 (0)
 -->
<!-- Title: G Pages: 1 -->
<svg width="1443pt" height="1910pt"
 viewBox="0.00 0.00 1443.00 1910.00" xmlns="http://www.w3.org/2000/svg" xmlns:xlink="http://www.w3.org/1999/xlink">
<g id="graph0" class="graph" transform="scale(1 1) rotate(0) translate(4 1906)">
<title>G</title>
<polygon fill="black" stroke="transparent" points="-4,4 -4,-1906 1439,-1906 1439,4 -4,4"/>
<text text-anchor="middle" x="319.5" y="-1886.8" font-family="Times,serif" font-size="14.00" fill="white">For tooltips with advanced information, hover your mouse over vertices or edge labels.</text>
<!-- 133106652787984 -->
<g id="node1" class="node">
<title>133106652787984</title>
<g id="a_node1"><a xlink:title="Output: 175 rows in 1 chunk filtered: 0, 2 µs 795 ns.">
<polygon fill="none" stroke="white" points="473.5,-1847 262.5,-1847 262.5,-1778 473.5,-1778 473.5,-1847"/>
<text text-anchor="middle" x="368" y="-1831.8" font-family="Times,serif" font-size="14.00" fill="white">Alias</text>
<text text-anchor="middle" x="368" y="-1816.8" font-family="Times,serif" font-size="14.00" fill="white">[nation, o_year, sum_profit]</text>
<text text-anchor="middle" x="368" y="-1785.8" font-family="Times,serif" font-size="14.00" fill="white">2 µs 795 ns</text>
</a>
</g>
</g>
<!-- 133106652787664 -->
<g id="node2" class="node">
<title>133106652787664</title>
<g id="a_node2"><a xlink:title="Output: 175 rows in 1 chunk filtered: 0, 127 µs 273 ns.&#10;Operator step runtimes:&#10; MaterializeSortColumns 22 µs 991 ns&#10; Sort 74 µs 676 ns&#10; TemporaryResultWriting 1 µs 698 ns&#10; WriteOutput 9 µs 300 ns.">
<polygon fill="none" stroke="white" points="426.5,-1727 309.5,-1727 309.5,-1673 426.5,-1673 426.5,-1727"/>
<text text-anchor="middle" x="368" y="-1711.8" font-family="Times,serif" font-size="14.00" fill="white">Sort</text>
<text text-anchor="middle" x="368" y="-1680.8" font-family="Times,serif" font-size="14.00" fill="white">127 µs 273 ns</text>
</a>
</g>
</g>
<!-- 133106652787664&#45;&gt;133106652787984 -->
<g id="edge1" class="edge">
<title>133106652787664&#45;&gt;133106652787984</title>
<path fill="none" stroke="white" d="M368,-1727.19C368,-1739.29 368,-1754 368,-1767.72"/>
<polygon fill="white" stroke="white" points="364.5,-1767.95 368,-1777.95 371.5,-1767.96 364.5,-1767.95"/>
<text text-anchor="middle" x="446" y="-1748.8" font-family="Times,serif" font-size="14.00" fill="white">175 row(s)/1 chunk(s)</text>
</g>
<!-- 133106551638544 -->
<g id="node3" class="node">
<title>133106551638544</title>
<g id="a_node3"><a xlink:title="Output: 175 rows in 1 chunk filtered: 0, 842 ms 287 µs.&#10;Operator step runtimes:&#10; GroupByKeyPartitioning 615 ms 109 µs&#10; Aggregating 227 ms 16 µs&#10; GroupByColumnsWriting 10 µs 958 ns&#10; AggregateColumnsWriting 14 µs 754 ns&#10; OutputWriting 6 µs 117 ns.">
<polygon fill="none" stroke="white" stroke-width="8" points="518.5,-1622 217.5,-1622 217.5,-1508 518.5,-1508 518.5,-1622"/>
<text text-anchor="middle" x="368" y="-1606.8" font-family="Times,serif" font-size="14.00" fill="white">AggregateHash</text>
<text text-anchor="middle" x="368" y="-1591.8" font-family="Times,serif" font-size="14.00" fill="white">GroupBy {n_name,</text>
<text text-anchor="middle" x="368" y="-1576.8" font-family="Times,serif" font-size="14.00" fill="white">SUBSTR(o_orderdate,1,4)}</text>
<text text-anchor="middle" x="368" y="-1561.8" font-family="Times,serif" font-size="14.00" fill="white">SUM(l_extendedprice * (1 &#45; l_discount) &#45;</text>
<text text-anchor="middle" x="368" y="-1546.8" font-family="Times,serif" font-size="14.00" fill="white">ps_supplycost * l_quantity)</text>
<text text-anchor="middle" x="368" y="-1515.8" font-family="Times,serif" font-size="14.00" fill="white">842 ms 287 µs</text>
</a>
</g>
</g>
<!-- 133106551638544&#45;&gt;133106652787664 -->
<g id="edge2" class="edge">
<title>133106551638544&#45;&gt;133106652787664</title>
<path fill="none" stroke="white" d="M368,-1622.02C368,-1635.77 368,-1650.14 368,-1662.69"/>
<polygon fill="white" stroke="white" points="364.5,-1662.75 368,-1672.75 371.5,-1662.75 364.5,-1662.75"/>
<text text-anchor="middle" x="446" y="-1643.8" font-family="Times,serif" font-size="14.00" fill="white">175 row(s)/1 chunk(s)</text>
</g>
<!-- 133106652787344 -->
<g id="node4" class="node">
<title>133106652787344</title>
<g id="a_node4"><a xlink:title="Output: 16303545 rows in 256 chunks filtered: 0, 174 µs 97 ns.">
<polygon fill="none" stroke="white" points="462.5,-1457 273.5,-1457 273.5,-1388 462.5,-1388 462.5,-1457"/>
<text text-anchor="middle" x="368" y="-1441.8" font-family="Times,serif" font-size="14.00" fill="white">Alias</text>
<text text-anchor="middle" x="368" y="-1426.8" font-family="Times,serif" font-size="14.00" fill="white">[nation, o_year, amount]</text>
<text text-anchor="middle" x="368" y="-1395.8" font-family="Times,serif" font-size="14.00" fill="white">174 µs 97 ns</text>
</a>
</g>
</g>
<!-- 133106652787344&#45;&gt;133106551638544 -->
<g id="edge3" class="edge">
<title>133106652787344&#45;&gt;133106551638544</title>
<path fill="none" stroke="white" d="M368,-1457.15C368,-1469.37 368,-1483.63 368,-1497.69"/>
<polygon fill="white" stroke="white" points="364.5,-1497.85 368,-1507.85 371.5,-1497.85 364.5,-1497.85"/>
<text text-anchor="middle" x="482" y="-1478.8" font-family="Times,serif" font-size="14.00" fill="white">16,303,545 row(s)/256 chunk(s)</text>
</g>
<!-- 133106652787024 -->
<g id="node5" class="node">
<title>133106652787024</title>
<g id="a_node5"><a xlink:title="Output: 16303545 rows in 256 chunks filtered: 0, 650 ms 107 µs.&#10;Operator step runtimes:&#10; ForwardUnmodifiedColumns 332 µs 148 ns&#10; EvaluateNewColumns 649 ms 82 µs&#10; BuildOutput 590 µs 9 ns.">
<polygon fill="none" stroke="white" stroke-width="7.36" points="429,-1337 307,-1337 307,-1283 429,-1283 429,-1337"/>
<text text-anchor="middle" x="368" y="-1321.8" font-family="Times,serif" font-size="14.00" fill="white">Projection</text>
<text text-anchor="middle" x="368" y="-1290.8" font-family="Times,serif" font-size="14.00" fill="white">650 ms 107 µs</text>
</a>
</g>
</g>
<!-- 133106652787024&#45;&gt;133106652787344 -->
<g id="edge4" class="edge">
<title>133106652787024&#45;&gt;133106652787344</title>
<path fill="none" stroke="white" d="M368,-1337.19C368,-1349.29 368,-1364 368,-1377.72"/>
<polygon fill="white" stroke="white" points="364.5,-1377.95 368,-1387.95 371.5,-1377.96 364.5,-1377.95"/>
<text text-anchor="middle" x="482" y="-1358.8" font-family="Times,serif" font-size="14.00" fill="white">16,303,545 row(s)/256 chunk(s)</text>
</g>
<!-- 133106652786704 -->
<g id="node6" class="node">
<title>133106652786704</title>
<g id="a_node6"><a xlink:title="Output: 16303545 rows in 256 chunks filtered: 0, 309 ms 485 µs.&#10;Chunks: 0 skipped with no results, &#10;0 skipped with all matching, 0 scanned using binary search.">
<polygon fill="none" stroke="white" stroke-width="5.53" points="463.5,-1232 272.5,-1232 272.5,-1148 463.5,-1148 463.5,-1232"/>
<text text-anchor="middle" x="368" y="-1216.8" font-family="Times,serif" font-size="14.00" fill="white">TableScan</text>
<text text-anchor="middle" x="368" y="-1201.8" font-family="Times,serif" font-size="14.00" fill="white">Impl: ColumnVsColumn</text>
<text text-anchor="middle" x="368" y="-1186.8" font-family="Times,serif" font-size="14.00" fill="white">ps_suppkey = l_suppkey</text>
<text text-anchor="middle" x="368" y="-1155.8" font-family="Times,serif" font-size="14.00" fill="white">309 ms 485 µs</text>
</a>
</g>
</g>
<!-- 133106652786704&#45;&gt;133106652787024 -->
<g id="edge5" class="edge">
<title>133106652786704&#45;&gt;133106652787024</title>
<path fill="none" stroke="white" d="M368,-1232.27C368,-1245.36 368,-1259.72 368,-1272.45"/>
<polygon fill="white" stroke="white" points="364.5,-1272.69 368,-1282.69 371.5,-1272.69 364.5,-1272.69"/>
<text text-anchor="middle" x="482" y="-1253.8" font-family="Times,serif" font-size="14.00" fill="white">16,303,545 row(s)/256 chunk(s)</text>
</g>
<!-- 133116839313104 -->
<g id="node7" class="node">
<title>133116839313104</title>
<g id="a_node7"><a xlink:title="Output: 65214180 rows in 256 chunks filtered: 0, 642 ms 211 µs.&#10;Operator step runtimes:&#10; LeftSideMaterialize 15 ms 569 µs&#10; RightSideMaterialize 211 ms 332 µs&#10; LeftSideTransform 0 ns&#10; RightSideTransform 0 ns&#10; LeftSidePartition 2 ms 611 µs&#10; RightSidePartition 23 ms 718 µs&#10; LeftSideSortBuckets 710 µs 91 ns&#10; RightSideSortBuckets 25 ms 264 µs&#10; GatherRowIds 4 µs 90 ns&#10; FindJoinPartner 209 ms 895 µs&#10; OutputWriting 151 ms 652 µs.&#10;Radix bits: 8.">
<polygon fill="none" stroke="white" stroke-width="7.33" points="473.5,-1097 262.5,-1097 262.5,-1028 473.5,-1028 473.5,-1097"/>
<text text-anchor="middle" x="368" y="-1081.8" font-family="Times,serif" font-size="14.00" fill="white">JoinSimdSortMerge (Inner)</text>
<text text-anchor="middle" x="368" y="-1066.8" font-family="Times,serif" font-size="14.00" fill="white">ps_partkey = l_partkey</text>
<text text-anchor="middle" x="368" y="-1035.8" font-family="Times,serif" font-size="14.00" fill="white">642 ms 211 µs</text>
</a>
</g>
</g>
<!-- 133116839313104&#45;&gt;133106652786704 -->
<g id="edge6" class="edge">
<title>133116839313104&#45;&gt;133106652786704</title>
<path fill="none" stroke="white" stroke-width="4.24" d="M368,-1097.13C368,-1109.51 368,-1123.84 368,-1137.44"/>
<polygon fill="white" stroke="white" stroke-width="4.24" points="364.29,-1137.65 368,-1147.65 371.71,-1137.65 364.29,-1137.65"/>
<text text-anchor="middle" x="482" y="-1118.8" font-family="Times,serif" font-size="14.00" fill="white">65,214,180 row(s)/256 chunk(s)</text>
</g>
<!-- 133116839311824 -->
<g id="node8" class="node">
<title>133116839311824</title>
<g id="a_node8"><a xlink:title="Output: 2173676 rows in 256 chunks filtered: 0, 452 ms 562 µs.&#10;Operator step runtimes:&#10; LeftSideMaterialize 14 ms 405 µs&#10; RightSideMaterialize 342 ms 854 µs&#10; LeftSideTransform 0 ns&#10; RightSideTransform 0 ns&#10; LeftSidePartition 23 ms 917 µs&#10; RightSidePartition 25 ms 230 µs&#10; LeftSideSortBuckets 25 ms 503 µs&#10; RightSideSortBuckets 5 ms 713 µs&#10; GatherRowIds 3 µs 626 ns&#10; FindJoinPartner 11 ms 815 µs&#10; OutputWriting 1 ms 520 µs.&#10;Radix bits: 8.">
<polygon fill="none" stroke="white" stroke-width="6.47" points="454.5,-857 169.5,-857 169.5,-788 454.5,-788 454.5,-857"/>
<text text-anchor="middle" x="312" y="-841.8" font-family="Times,serif" font-size="14.00" fill="white">JoinSimdSortMerge (Semi Reduction)</text>
<text text-anchor="middle" x="312" y="-826.8" font-family="Times,serif" font-size="14.00" fill="white">ps_partkey = l_partkey</text>
<text text-anchor="middle" x="312" y="-795.8" font-family="Times,serif" font-size="14.00" fill="white">452 ms 562 µs</text>
</a>
</g>
</g>
<!-- 133116839311824&#45;&gt;133116839313104 -->
<g id="edge7" class="edge">
<title>133116839311824&#45;&gt;133116839313104</title>
<path fill="none" stroke="white" d="M319.9,-857.09C329.82,-899.23 346.84,-971.57 357.75,-1017.93"/>
<polygon fill="white" stroke="white" points="357.75,-1017.96 354.35,-1018.76 360.05,-1027.69 357.75,-1017.96"/>
<text text-anchor="middle" x="457.5" y="-938.8" font-family="Times,serif" font-size="14.00" fill="white">2,173,676 row(s)/256 chunk(s)</text>
</g>
<!-- 133106549721104 -->
<g id="node9" class="node">
<title>133106549721104</title>
<g id="a_node9"><a xlink:title="Output: 40000000 rows in 611 chunks filtered: 0, 26 ms 548 µs.">
<polygon fill="none" stroke="white" points="117.5,-737 4.5,-737 4.5,-683 117.5,-683 117.5,-737"/>
<text text-anchor="middle" x="61" y="-721.8" font-family="Times,serif" font-size="14.00" fill="white">Validate</text>
<text text-anchor="middle" x="61" y="-690.8" font-family="Times,serif" font-size="14.00" fill="white">26 ms 548 µs</text>
</a>
</g>
</g>
<!-- 133106549721104&#45;&gt;133116839311824 -->
<g id="edge8" class="edge">
<title>133106549721104&#45;&gt;133116839311824</title>
<path fill="none" stroke="white" stroke-width="3.03" d="M61.2,-737.26C62.66,-748.75 66.36,-761.52 75,-770 88.52,-783.26 121.8,-793.57 159.29,-801.35"/>
<polygon fill="white" stroke="white" stroke-width="3.03" points="159.63,-801.42 158.94,-804.85 169.43,-803.38 159.63,-801.42"/>
<text text-anchor="middle" x="189" y="-758.8" font-family="Times,serif" font-size="14.00" fill="white">40,000,000 row(s)/611 chunk(s)</text>
</g>
<!-- 133106656242768 -->
<g id="node10" class="node">
<title>133106656242768</title>
<g id="a_node10"><a xlink:title="Output: 40000000 rows in 611 chunks filtered: 0, 6 ms 193 µs.">
<polygon fill="none" stroke="white" points="122,-632 0,-632 0,-518 122,-518 122,-632"/>
<text text-anchor="middle" x="61" y="-616.8" font-family="Times,serif" font-size="14.00" fill="white">GetTable</text>
<text text-anchor="middle" x="61" y="-601.8" font-family="Times,serif" font-size="14.00" fill="white">(partsupp)</text>
<text text-anchor="middle" x="61" y="-586.8" font-family="Times,serif" font-size="14.00" fill="white">pruned:</text>
<text text-anchor="middle" x="61" y="-571.8" font-family="Times,serif" font-size="14.00" fill="white">0/611 chunk(s)</text>
<text text-anchor="middle" x="61" y="-556.8" font-family="Times,serif" font-size="14.00" fill="white">2/5 column(s)</text>
<text text-anchor="middle" x="61" y="-525.8" font-family="Times,serif" font-size="14.00" fill="white">6 ms 193 µs</text>
</a>
</g>
</g>
<!-- 133106656242768&#45;&gt;133106549721104 -->
<g id="edge9" class="edge">
<title>133106656242768&#45;&gt;133106549721104</title>
<path fill="none" stroke="white" stroke-width="3.03" d="M61,-632.02C61,-645.77 61,-660.14 61,-672.69"/>
<polygon fill="white" stroke="white" stroke-width="3.03" points="57.5,-672.75 61,-682.75 64.5,-672.75 57.5,-672.75"/>
<text text-anchor="middle" x="175" y="-653.8" font-family="Times,serif" font-size="14.00" fill="white">40,000,000 row(s)/611 chunk(s)</text>
</g>
<!-- 133116921129232 -->
<g id="node11" class="node">
<title>133116921129232</title>
<g id="a_node11"><a xlink:title="Output: 16303545 rows in 256 chunks filtered: 0, 37 ms 884 µs.">
<polygon fill="none" stroke="white" points="494.5,-737 381.5,-737 381.5,-683 494.5,-683 494.5,-737"/>
<text text-anchor="middle" x="438" y="-721.8" font-family="Times,serif" font-size="14.00" fill="white">Validate</text>
<text text-anchor="middle" x="438" y="-690.8" font-family="Times,serif" font-size="14.00" fill="white">37 ms 884 µs</text>
</a>
</g>
</g>
<!-- 133116921129232&#45;&gt;133116839311824 -->
<g id="edge10" class="edge">
<title>133116921129232&#45;&gt;133116839311824</title>
<path fill="none" stroke="white" d="M381.37,-716.5C356.18,-722.08 328.72,-733.15 313,-755 308.26,-761.59 306.05,-769.58 305.33,-777.7"/>
<polygon fill="white" stroke="white" points="305.15,-787.96 308.83,-778.02 305.33,-777.96 305.15,-787.96"/>
<text text-anchor="middle" x="427" y="-758.8" font-family="Times,serif" font-size="14.00" fill="white">16,303,545 row(s)/256 chunk(s)</text>
</g>
<!-- 133116839312144 -->
<g id="node18" class="node">
<title>133116839312144</title>
<g id="a_node18"><a xlink:title="Output: 16303545 rows in 64 chunks filtered: 0, 818 ms 920 µs.&#10;Operator step runtimes:&#10; LeftSideMaterialize 34 ms 202 µs&#10; RightSideMaterialize 454 ms 705 µs&#10; LeftSideTransform 0 ns&#10; RightSideTransform 0 ns&#10; LeftSidePartition 101 ms 278 µs&#10; RightSidePartition 21 ms 993 µs&#10; LeftSideSortBuckets 45 ms 95 µs&#10; RightSideSortBuckets 20 ms 191 µs&#10; GatherRowIds 2 µs 582 ns&#10; FindJoinPartner 99 ms 389 µs&#10; OutputWriting 40 ms 467 µs.&#10;Radix bits: 8.">
<polygon fill="none" stroke="white" stroke-width="7.93" points="840.5,-857 629.5,-857 629.5,-788 840.5,-788 840.5,-857"/>
<text text-anchor="middle" x="735" y="-841.8" font-family="Times,serif" font-size="14.00" fill="white">JoinSimdSortMerge (Inner)</text>
<text text-anchor="middle" x="735" y="-826.8" font-family="Times,serif" font-size="14.00" fill="white">o_orderkey = l_orderkey</text>
<text text-anchor="middle" x="735" y="-795.8" font-family="Times,serif" font-size="14.00" fill="white">818 ms 920 µs</text>
</a>
</g>
</g>
<!-- 133116921129232&#45;&gt;133116839312144 -->
<g id="edge11" class="edge">
<title>133116921129232&#45;&gt;133116839312144</title>
<path fill="none" stroke="white" d="M494.65,-732.03C510.09,-738.6 526.54,-746.41 541,-755 550.25,-760.49 550.44,-765.06 560,-770 578.58,-779.61 599.22,-787.68 619.62,-794.38"/>
<polygon fill="white" stroke="white" points="629.28,-797.46 620.82,-791.09 619.75,-794.43 629.28,-797.46"/>
<text text-anchor="middle" x="674" y="-758.8" font-family="Times,serif" font-size="14.00" fill="white">16,303,545 row(s)/256 chunk(s)</text>
</g>
<!-- 133116839311504 -->
<g id="node12" class="node">
<title>133116839311504</title>
<g id="a_node12"><a xlink:title="Output: 16303545 rows in 256 chunks filtered: 0, 471 ms 744 µs.&#10;Operator step runtimes:&#10; LeftSideMaterialize 108 ms 832 µs&#10; RightSideMaterialize 3 ms 424 µs&#10; LeftSideTransform 0 ns&#10; RightSideTransform 0 ns&#10; LeftSidePartition 164 ms 286 µs&#10; RightSidePartition 4 ms 286 µs&#10; LeftSideSortBuckets 125 ms 76 µs&#10; RightSideSortBuckets 711 µs 237 ns&#10; GatherRowIds 2 µs 342 ns&#10; FindJoinPartner 57 ms 902 µs&#10; OutputWriting 2 ms 181 µs.&#10;Radix bits: 8.">
<polygon fill="none" stroke="white" stroke-width="6.57" points="542.5,-609.5 333.5,-609.5 333.5,-540.5 542.5,-540.5 542.5,-609.5"/>
<text text-anchor="middle" x="438" y="-594.3" font-family="Times,serif" font-size="14.00" fill="white">JoinSimdSortMerge (Semi)</text>
<text text-anchor="middle" x="438" y="-579.3" font-family="Times,serif" font-size="14.00" fill="white">l_partkey = p_partkey</text>
<text text-anchor="middle" x="438" y="-548.3" font-family="Times,serif" font-size="14.00" fill="white">471 ms 744 µs</text>
</a>
</g>
</g>
<!-- 133116839311504&#45;&gt;133116921129232 -->
<g id="edge12" class="edge">
<title>133116839311504&#45;&gt;133116921129232</title>
<path fill="none" stroke="white" d="M438,-609.56C438,-628.74 438,-652.81 438,-672.46"/>
<polygon fill="white" stroke="white" points="434.5,-672.57 438,-682.57 441.5,-672.57 434.5,-672.57"/>
<text text-anchor="middle" x="552" y="-653.8" font-family="Times,serif" font-size="14.00" fill="white">16,303,545 row(s)/256 chunk(s)</text>
</g>
<!-- 133106656244112 -->
<g id="node13" class="node">
<title>133106656244112</title>
<g id="a_node13"><a xlink:title="Output: 300005811 rows in 4578 chunks filtered: 0, 36 ms 152 µs.">
<polygon fill="none" stroke="white" points="367.5,-467 236.5,-467 236.5,-353 367.5,-353 367.5,-467"/>
<text text-anchor="middle" x="302" y="-451.8" font-family="Times,serif" font-size="14.00" fill="white">GetTable</text>
<text text-anchor="middle" x="302" y="-436.8" font-family="Times,serif" font-size="14.00" fill="white">(lineitem)</text>
<text text-anchor="middle" x="302" y="-421.8" font-family="Times,serif" font-size="14.00" fill="white">pruned:</text>
<text text-anchor="middle" x="302" y="-406.8" font-family="Times,serif" font-size="14.00" fill="white">0/4578 chunk(s)</text>
<text text-anchor="middle" x="302" y="-391.8" font-family="Times,serif" font-size="14.00" fill="white">10/16 column(s)</text>
<text text-anchor="middle" x="302" y="-360.8" font-family="Times,serif" font-size="14.00" fill="white">36 ms 152 µs</text>
</a>
</g>
</g>
<!-- 133106656244112&#45;&gt;133116839311504 -->
<g id="edge13" class="edge">
<title>133106656244112&#45;&gt;133116839311504</title>
<path fill="none" stroke="white" stroke-width="8" d="M293.88,-467.12C294.55,-478.62 297.12,-490.19 303,-500 311.37,-513.95 323.39,-525.45 336.85,-534.88"/>
<polygon fill="white" stroke="white" stroke-width="8" points="337.04,-535 333.2,-540.85 345.4,-540.48 337.04,-535"/>
<text text-anchor="middle" x="428" y="-488.8" font-family="Times,serif" font-size="14.00" fill="white">300,005,811 row(s)/4,578 chunk(s)</text>
</g>
<!-- 133106549722384 -->
<g id="node14" class="node">
<title>133106549722384</title>
<g id="a_node14"><a xlink:title="Output: 543419 rows in 153 chunks filtered: 0, 324 µs 710 ns.">
<polygon fill="none" stroke="white" points="633.5,-437 516.5,-437 516.5,-383 633.5,-383 633.5,-437"/>
<text text-anchor="middle" x="575" y="-421.8" font-family="Times,serif" font-size="14.00" fill="white">Validate</text>
<text text-anchor="middle" x="575" y="-390.8" font-family="Times,serif" font-size="14.00" fill="white">324 µs 710 ns</text>
</a>
</g>
</g>
<!-- 133106549722384&#45;&gt;133116839311504 -->
<g id="edge14" class="edge">
<title>133106549722384&#45;&gt;133116839311504</title>
<path fill="none" stroke="white" d="M573.62,-437.29C571.48,-456.24 566.14,-481.61 553,-500 543.45,-513.35 530.67,-524.89 517.1,-534.62"/>
<polygon fill="white" stroke="white" points="508.57,-540.45 518.8,-537.7 516.83,-534.81 508.57,-540.45"/>
<text text-anchor="middle" x="663.5" y="-488.8" font-family="Times,serif" font-size="14.00" fill="white">543,419 row(s)/153 chunk(s)</text>
</g>
<!-- 133116839310864 -->
<g id="node15" class="node">
<title>133116839310864</title>
<g id="a_node15"><a xlink:title="Output: 543419 rows in 153 chunks filtered: 0, 31 ms 474 µs.&#10;Chunks: 0 skipped with no results, &#10;0 skipped with all matching, 0 scanned using binary search.">
<polygon fill="none" stroke="white" points="688,-302 462,-302 462,-218 688,-218 688,-302"/>
<text text-anchor="middle" x="575" y="-286.8" font-family="Times,serif" font-size="14.00" fill="white">TableScan</text>
<text text-anchor="middle" x="575" y="-271.8" font-family="Times,serif" font-size="14.00" fill="white">Impl: ColumnLike</text>
<text text-anchor="middle" x="575" y="-256.8" font-family="Times,serif" font-size="14.00" fill="white">p_name LIKE &#39;%cornflower%&#39;</text>
<text text-anchor="middle" x="575" y="-225.8" font-family="Times,serif" font-size="14.00" fill="white">31 ms 474 µs</text>
</a>
</g>
</g>
<!-- 133116839310864&#45;&gt;133106549722384 -->
<g id="edge15" class="edge">
<title>133116839310864&#45;&gt;133106549722384</title>
<path fill="none" stroke="white" d="M575,-302.23C575,-324.32 575,-351.31 575,-372.62"/>
<polygon fill="white" stroke="white" points="571.5,-372.88 575,-382.88 578.5,-372.88 571.5,-372.88"/>
<text text-anchor="middle" x="677.5" y="-323.8" font-family="Times,serif" font-size="14.00" fill="white">543,419 row(s)/153 chunk(s)</text>
</g>
<!-- 133106656243216 -->
<g id="node16" class="node">
<title>133106656243216</title>
<g id="a_node16"><a xlink:title="Output: 10000000 rows in 153 chunks filtered: 0, 876 µs 383 ns.">
<polygon fill="none" stroke="white" points="636,-140.5 514,-140.5 514,-26.5 636,-26.5 636,-140.5"/>
<text text-anchor="middle" x="575" y="-125.3" font-family="Times,serif" font-size="14.00" fill="white">GetTable</text>
<text text-anchor="middle" x="575" y="-110.3" font-family="Times,serif" font-size="14.00" fill="white">(part)</text>
<text text-anchor="middle" x="575" y="-95.3" font-family="Times,serif" font-size="14.00" fill="white">pruned:</text>
<text text-anchor="middle" x="575" y="-80.3" font-family="Times,serif" font-size="14.00" fill="white">0/153 chunk(s)</text>
<text text-anchor="middle" x="575" y="-65.3" font-family="Times,serif" font-size="14.00" fill="white">7/9 column(s)</text>
<text text-anchor="middle" x="575" y="-34.3" font-family="Times,serif" font-size="14.00" fill="white">876 µs 383 ns</text>
</a>
</g>
</g>
<!-- 133106656243216&#45;&gt;133116839310864 -->
<g id="edge16" class="edge">
<title>133106656243216&#45;&gt;133116839310864</title>
<path fill="none" stroke="white" d="M575,-140.67C575,-162.25 575,-186.74 575,-207.83"/>
<polygon fill="white" stroke="white" points="571.5,-207.87 575,-217.87 578.5,-207.87 571.5,-207.87"/>
<text text-anchor="middle" x="689" y="-188.8" font-family="Times,serif" font-size="14.00" fill="white">10,000,000 row(s)/153 chunk(s)</text>
</g>
<!-- 133116839312784 -->
<g id="node17" class="node">
<title>133116839312784</title>
<g id="a_node17"><a xlink:title="Output: 16303545 rows in 256 chunks filtered: 0, 280 ms 456 µs.&#10;Operator step runtimes:&#10; LeftSideMaterialize 106 ms 674 µs&#10; RightSideMaterialize 1 ms 272 µs&#10; LeftSideTransform 0 ns&#10; RightSideTransform 0 ns&#10; LeftSidePartition 22 ms 886 µs&#10; RightSidePartition 4 ms 70 µs&#10; LeftSideSortBuckets 26 ms 236 µs&#10; RightSideSortBuckets 647 µs 847 ns&#10; GatherRowIds 1 µs 311 ns&#10; FindJoinPartner 59 ms 183 µs&#10; OutputWriting 58 ms 630 µs.&#10;Radix bits: 8.">
<polygon fill="none" stroke="white" stroke-width="5.29" points="840.5,-977 629.5,-977 629.5,-908 840.5,-908 840.5,-977"/>
<text text-anchor="middle" x="735" y="-961.8" font-family="Times,serif" font-size="14.00" fill="white">JoinSimdSortMerge (Inner)</text>
<text text-anchor="middle" x="735" y="-946.8" font-family="Times,serif" font-size="14.00" fill="white">l_suppkey = s_suppkey</text>
<text text-anchor="middle" x="735" y="-915.8" font-family="Times,serif" font-size="14.00" fill="white">280 ms 456 µs</text>
</a>
</g>
</g>
<!-- 133116839312784&#45;&gt;133116839313104 -->
<g id="edge17" class="edge">
<title>133116839312784&#45;&gt;133116839313104</title>
<path fill="none" stroke="white" d="M630.32,-977.16C584.04,-992.04 529.5,-1009.57 482.17,-1024.79"/>
<polygon fill="white" stroke="white" points="472.5,-1027.9 483.09,-1028.17 482.02,-1024.84 472.5,-1027.9"/>
<text text-anchor="middle" x="688" y="-998.8" font-family="Times,serif" font-size="14.00" fill="white">16,303,545 row(s)/256 chunk(s)</text>
</g>
<!-- 133116839312144&#45;&gt;133116839312784 -->
<g id="edge18" class="edge">
<title>133116839312144&#45;&gt;133116839312784</title>
<path fill="none" stroke="white" d="M735,-857.31C735,-869.78 735,-884.1 735,-897.34"/>
<polygon fill="white" stroke="white" points="735,-897.68 731.5,-897.68 735,-907.68 735,-897.68"/>
<text text-anchor="middle" x="844.5" y="-878.8" font-family="Times,serif" font-size="14.00" fill="white">16,303,545 row(s)/64 chunk(s)</text>
</g>
<!-- 133116921130000 -->
<g id="node19" class="node">
<title>133116921130000</title>
<g id="a_node19"><a xlink:title="Output: 75000000 rows in 1145 chunks filtered: 0, 33 ms 576 µs.">
<polygon fill="none" stroke="white" points="870.5,-737 757.5,-737 757.5,-683 870.5,-683 870.5,-737"/>
<text text-anchor="middle" x="814" y="-721.8" font-family="Times,serif" font-size="14.00" fill="white">Validate</text>
<text text-anchor="middle" x="814" y="-690.8" font-family="Times,serif" font-size="14.00" fill="white">33 ms 576 µs</text>
</a>
</g>
</g>
<!-- 133116921130000&#45;&gt;133116839312144 -->
<g id="edge19" class="edge">
<title>133116921130000&#45;&gt;133116839312144</title>
<path fill="none" stroke="white" stroke-width="4.58" d="M807.19,-737.27C803.68,-747.98 798.69,-760.14 792,-770 789.6,-773.54 786.9,-777 784.03,-780.34"/>
<polygon fill="white" stroke="white" stroke-width="4.58" points="783.82,-780.57 780.87,-777.85 777.04,-787.92 783.82,-780.57"/>
<text text-anchor="middle" x="919.5" y="-758.8" font-family="Times,serif" font-size="14.00" fill="white">75,000,000 row(s)/1,145 chunk(s)</text>
</g>
<!-- 133106656242320 -->
<g id="node20" class="node">
<title>133106656242320</title>
<g id="a_node20"><a xlink:title="Output: 75000000 rows in 1145 chunks filtered: 0, 4 ms 888 µs.">
<polygon fill="none" stroke="white" points="879.5,-632 748.5,-632 748.5,-518 879.5,-518 879.5,-632"/>
<text text-anchor="middle" x="814" y="-616.8" font-family="Times,serif" font-size="14.00" fill="white">GetTable</text>
<text text-anchor="middle" x="814" y="-601.8" font-family="Times,serif" font-size="14.00" fill="white">(orders)</text>
<text text-anchor="middle" x="814" y="-586.8" font-family="Times,serif" font-size="14.00" fill="white">pruned:</text>
<text text-anchor="middle" x="814" y="-571.8" font-family="Times,serif" font-size="14.00" fill="white">0/1145 chunk(s)</text>
<text text-anchor="middle" x="814" y="-556.8" font-family="Times,serif" font-size="14.00" fill="white">7/9 column(s)</text>
<text text-anchor="middle" x="814" y="-525.8" font-family="Times,serif" font-size="14.00" fill="white">4 ms 888 µs</text>
</a>
</g>
</g>
<!-- 133106656242320&#45;&gt;133116921130000 -->
<g id="edge20" class="edge">
<title>133106656242320&#45;&gt;133116921130000</title>
<path fill="none" stroke="white" stroke-width="4.58" d="M814,-632.02C814,-645.77 814,-660.14 814,-672.69"/>
<polygon fill="white" stroke="white" stroke-width="4.58" points="809.99,-672.75 814,-682.75 818.01,-672.75 809.99,-672.75"/>
<text text-anchor="middle" x="934.5" y="-653.8" font-family="Times,serif" font-size="14.00" fill="white">75,000,000 row(s)/1,145 chunk(s)</text>
</g>
<!-- 133116839312464 -->
<g id="node21" class="node">
<title>133116839312464</title>
<g id="a_node21"><a xlink:title="Output: 500000 rows in 25 chunks filtered: 0, 42 ms 636 µs.&#10;Operator step runtimes:&#10; LeftSideMaterialize 951 µs 306 ns&#10; RightSideMaterialize 56 µs 723 ns&#10; LeftSideTransform 0 ns&#10; RightSideTransform 0 ns&#10; LeftSidePartition 27 ms 213 µs&#10; RightSidePartition 87 µs 4 ns&#10; LeftSideSortBuckets 8 ms 820 µs&#10; RightSideSortBuckets 670 µs 741 ns&#10; GatherRowIds 3 µs 443 ns&#10; FindJoinPartner 3 ms 215 µs&#10; OutputWriting 1 ms 492 µs.&#10;Radix bits: 8.">
<polygon fill="none" stroke="white" points="1183.5,-857 972.5,-857 972.5,-788 1183.5,-788 1183.5,-857"/>
<text text-anchor="middle" x="1078" y="-841.8" font-family="Times,serif" font-size="14.00" fill="white">JoinSimdSortMerge (Inner)</text>
<text text-anchor="middle" x="1078" y="-826.8" font-family="Times,serif" font-size="14.00" fill="white">s_nationkey = n_nationkey</text>
<text text-anchor="middle" x="1078" y="-795.8" font-family="Times,serif" font-size="14.00" fill="white">42 ms 636 µs</text>
</a>
</g>
</g>
<!-- 133116839312464&#45;&gt;133116839312784 -->
<g id="edge21" class="edge">
<title>133116839312464&#45;&gt;133116839312784</title>
<path fill="none" stroke="white" d="M1024.89,-857.12C1004.57,-868.85 980.79,-881.25 958,-890 923.92,-903.08 885.59,-913.4 850.44,-921.27"/>
<polygon fill="white" stroke="white" points="840.61,-923.42 851.13,-924.7 850.38,-921.28 840.61,-923.42"/>
<text text-anchor="middle" x="1086" y="-878.8" font-family="Times,serif" font-size="14.00" fill="white">500,000 row(s)/25 chunk(s)</text>
</g>
<!-- 133116921129488 -->
<g id="node22" class="node">
<title>133116921129488</title>
<g id="a_node22"><a xlink:title="Output: 500000 rows in 8 chunks filtered: 0, 42 µs 525 ns.">
<polygon fill="none" stroke="white" points="1132,-737 1024,-737 1024,-683 1132,-683 1132,-737"/>
<text text-anchor="middle" x="1078" y="-721.8" font-family="Times,serif" font-size="14.00" fill="white">Validate</text>
<text text-anchor="middle" x="1078" y="-690.8" font-family="Times,serif" font-size="14.00" fill="white">42 µs 525 ns</text>
</a>
</g>
</g>
<!-- 133116921129488&#45;&gt;133116839312464 -->
<g id="edge22" class="edge">
<title>133116921129488&#45;&gt;133116839312464</title>
<path fill="none" stroke="white" d="M1078,-737.19C1078,-749.29 1078,-764 1078,-777.72"/>
<polygon fill="white" stroke="white" points="1078,-777.95 1074.5,-777.95 1078,-787.95 1078,-777.95"/>
<text text-anchor="middle" x="1171.5" y="-758.8" font-family="Times,serif" font-size="14.00" fill="white">500,000 row(s)/8 chunk(s)</text>
</g>
<!-- 133106656243664 -->
<g id="node23" class="node">
<title>133106656243664</title>
<g id="a_node23"><a xlink:title="Output: 500000 rows in 8 chunks filtered: 0, 14 µs 950 ns.">
<polygon fill="none" stroke="white" points="1134.5,-632 1021.5,-632 1021.5,-518 1134.5,-518 1134.5,-632"/>
<text text-anchor="middle" x="1078" y="-616.8" font-family="Times,serif" font-size="14.00" fill="white">GetTable</text>
<text text-anchor="middle" x="1078" y="-601.8" font-family="Times,serif" font-size="14.00" fill="white">(supplier)</text>
<text text-anchor="middle" x="1078" y="-586.8" font-family="Times,serif" font-size="14.00" fill="white">pruned:</text>
<text text-anchor="middle" x="1078" y="-571.8" font-family="Times,serif" font-size="14.00" fill="white">0/8 chunk(s)</text>
<text text-anchor="middle" x="1078" y="-556.8" font-family="Times,serif" font-size="14.00" fill="white">5/7 column(s)</text>
<text text-anchor="middle" x="1078" y="-525.8" font-family="Times,serif" font-size="14.00" fill="white">14 µs 950 ns</text>
</a>
</g>
</g>
<!-- 133106656243664&#45;&gt;133116921129488 -->
<g id="edge23" class="edge">
<title>133106656243664&#45;&gt;133116921129488</title>
<path fill="none" stroke="white" d="M1078,-632.02C1078,-645.77 1078,-660.14 1078,-672.69"/>
<polygon fill="white" stroke="white" points="1074.5,-672.75 1078,-682.75 1081.5,-672.75 1074.5,-672.75"/>
<text text-anchor="middle" x="1171.5" y="-653.8" font-family="Times,serif" font-size="14.00" fill="white">500,000 row(s)/8 chunk(s)</text>
</g>
<!-- 133106549720080 -->
<g id="node24" class="node">
<title>133106549720080</title>
<g id="a_node24"><a xlink:title="Output: 25 rows in 1 chunk filtered: 0, 4 µs 394 ns.">
<polygon fill="none" stroke="white" points="1337.5,-737 1238.5,-737 1238.5,-683 1337.5,-683 1337.5,-737"/>
<text text-anchor="middle" x="1288" y="-721.8" font-family="Times,serif" font-size="14.00" fill="white">Validate</text>
<text text-anchor="middle" x="1288" y="-690.8" font-family="Times,serif" font-size="14.00" fill="white">4 µs 394 ns</text>
</a>
</g>
</g>
<!-- 133106549720080&#45;&gt;133116839312464 -->
<g id="edge24" class="edge">
<title>133106549720080&#45;&gt;133116839312464</title>
<path fill="none" stroke="white" d="M1283.77,-737.26C1280.66,-748.75 1275.28,-761.52 1266,-770 1245.87,-788.41 1219.78,-800.33 1193.48,-808.02"/>
<polygon fill="white" stroke="white" points="1183.79,-810.67 1194.35,-811.41 1193.43,-808.03 1183.79,-810.67"/>
<text text-anchor="middle" x="1350.5" y="-758.8" font-family="Times,serif" font-size="14.00" fill="white">25 row(s)/1 chunk(s)</text>
</g>
<!-- 133106656245008 -->
<g id="node25" class="node">
<title>133106656245008</title>
<g id="a_node25"><a xlink:title="Output: 25 rows in 1 chunk filtered: 0, 7 µs 449 ns.">
<polygon fill="none" stroke="white" points="1344.5,-632 1231.5,-632 1231.5,-518 1344.5,-518 1344.5,-632"/>
<text text-anchor="middle" x="1288" y="-616.8" font-family="Times,serif" font-size="14.00" fill="white">GetTable</text>
<text text-anchor="middle" x="1288" y="-601.8" font-family="Times,serif" font-size="14.00" fill="white">(nation)</text>
<text text-anchor="middle" x="1288" y="-586.8" font-family="Times,serif" font-size="14.00" fill="white">pruned:</text>
<text text-anchor="middle" x="1288" y="-571.8" font-family="Times,serif" font-size="14.00" fill="white">0/1 chunk(s)</text>
<text text-anchor="middle" x="1288" y="-556.8" font-family="Times,serif" font-size="14.00" fill="white">2/4 column(s)</text>
<text text-anchor="middle" x="1288" y="-525.8" font-family="Times,serif" font-size="14.00" fill="white">7 µs 449 ns</text>
</a>
</g>
</g>
<!-- 133106656245008&#45;&gt;133106549720080 -->
<g id="edge25" class="edge">
<title>133106656245008&#45;&gt;133106549720080</title>
<path fill="none" stroke="white" d="M1288,-632.02C1288,-645.77 1288,-660.14 1288,-672.69"/>
<polygon fill="white" stroke="white" points="1284.5,-672.75 1288,-682.75 1291.5,-672.75 1284.5,-672.75"/>
<text text-anchor="middle" x="1361.5" y="-653.8" font-family="Times,serif" font-size="14.00" fill="white">25 row(s)/1 chunk(s)</text>
</g>
<!-- 0 -->
<g id="node26" class="node">
<title>0</title>
<polygon fill="none" stroke="white" points="654,-0.5 654,-166.5 1000,-166.5 1000,-0.5 654,-0.5"/>
<text text-anchor="middle" x="827" y="-151.3" font-family="Times,serif" font-size="14.00" fill="white">Total by operator</text>
<polyline fill="none" stroke="white" points="654,-143.5 1000,-143.5 "/>
<text text-anchor="end" x="808" y="-128.3" font-family="Times,serif" font-size="14.00" fill="white">JoinSimdSortMerge </text>
<text text-anchor="end" x="808" y="-113.3" font-family="Times,serif" font-size="14.00" fill="white"> AggregateHash </text>
<text text-anchor="end" x="808" y="-98.3" font-family="Times,serif" font-size="14.00" fill="white"> Projection </text>
<text text-anchor="end" x="808" y="-83.3" font-family="Times,serif" font-size="14.00" fill="white"> TableScan </text>
<text text-anchor="end" x="808" y="-68.3" font-family="Times,serif" font-size="14.00" fill="white"> Validate </text>
<text text-anchor="end" x="808" y="-53.3" font-family="Times,serif" font-size="14.00" fill="white"> GetTable </text>
<text text-anchor="end" x="808" y="-38.3" font-family="Times,serif" font-size="14.00" fill="white"> Alias </text>
<text text-anchor="end" x="808" y="-23.3" font-family="Times,serif" font-size="14.00" fill="white"> Sort </text>
<text text-anchor="end" x="808" y="-8.3" font-family="Times,serif" font-size="14.00" fill="white">total</text>
<polyline fill="none" stroke="white" points="816,-0.5 816,-143.5 "/>
<text text-anchor="start" x="824" y="-128.3" font-family="Times,serif" font-size="14.00" fill="white">2 s 709 ms </text>
<text text-anchor="start" x="824" y="-113.3" font-family="Times,serif" font-size="14.00" fill="white"> 842 ms 287 µs </text>
<text text-anchor="start" x="824" y="-98.3" font-family="Times,serif" font-size="14.00" fill="white"> 650 ms 107 µs </text>
<text text-anchor="start" x="824" y="-83.3" font-family="Times,serif" font-size="14.00" fill="white"> 340 ms 959 µs </text>
<text text-anchor="start" x="824" y="-68.3" font-family="Times,serif" font-size="14.00" fill="white"> 98 ms 379 µs </text>
<text text-anchor="start" x="824" y="-53.3" font-family="Times,serif" font-size="14.00" fill="white"> 48 ms 132 µs </text>
<text text-anchor="start" x="824" y="-38.3" font-family="Times,serif" font-size="14.00" fill="white"> 176 µs 892 ns </text>
<text text-anchor="start" x="824" y="-23.3" font-family="Times,serif" font-size="14.00" fill="white"> 127 µs 273 ns </text>
<text text-anchor="start" x="824" y="-8.3" font-family="Times,serif" font-size="14.00" fill="white"> 4 s 689 ms </text>
<polyline fill="none" stroke="white" points="947,-0.5 947,-143.5 "/>
<text text-anchor="start" x="955" y="-128.3" font-family="Times,serif" font-size="14.00" fill="white">58 %</text>
<text text-anchor="start" x="955" y="-113.3" font-family="Times,serif" font-size="14.00" fill="white">18 %</text>
<text text-anchor="start" x="955" y="-98.3" font-family="Times,serif" font-size="14.00" fill="white">14 %</text>
<text text-anchor="start" x="955" y="-83.3" font-family="Times,serif" font-size="14.00" fill="white">7 %</text>
<text text-anchor="start" x="955" y="-68.3" font-family="Times,serif" font-size="14.00" fill="white">2 %</text>
<text text-anchor="start" x="955" y="-53.3" font-family="Times,serif" font-size="14.00" fill="white">1 %</text>
<text text-anchor="start" x="955" y="-38.3" font-family="Times,serif" font-size="14.00" fill="white">0 %</text>
<text text-anchor="start" x="955" y="-23.3" font-family="Times,serif" font-size="14.00" fill="white">0 %</text>
<text text-anchor="start" x="955" y="-8.3" font-family="Times,serif" font-size="14.00" fill="white"> </text>
</g>
</g>
</svg>
