<?xml version="1.0" encoding="UTF-8" standalone="no"?>
<!DOCTYPE svg PUBLIC "-//W3C//DTD SVG 1.1//EN"
 "http://www.w3.org/Graphics/SVG/1.1/DTD/svg11.dtd">
<!-- Generated by graphviz version 2.43.0 (0)
 -->
<!-- Title: G Pages: 1 -->
<svg width="748pt" height="1805pt"
 viewBox="0.00 0.00 748.00 1805.00" xmlns="http://www.w3.org/2000/svg" xmlns:xlink="http://www.w3.org/1999/xlink">
<g id="graph0" class="graph" transform="scale(1 1) rotate(0) translate(4 1801)">
<title>G</title>
<polygon fill="black" stroke="transparent" points="-4,4 -4,-1801 744,-1801 744,4 -4,4"/>
<text text-anchor="middle" x="319.5" y="-1781.8" font-family="Times,serif" font-size="14.00" fill="white">For tooltips with advanced information, hover your mouse over vertices or edge labels.</text>
<!-- 133111232768720 -->
<g id="node1" class="node">
<title>133111232768720</title>
<g id="a_node1"><a xlink:title="Output: 7 rows in 1 chunk filtered: 0, 3 µs 850 ns.">
<polygon fill="none" stroke="white" points="439,-1742 191,-1742 191,-1673 439,-1673 439,-1742"/>
<text text-anchor="middle" x="315" y="-1726.8" font-family="Times,serif" font-size="14.00" fill="white">Alias</text>
<text text-anchor="middle" x="315" y="-1711.8" font-family="Times,serif" font-size="14.00" fill="white">[cntrycode, numcust, totacctbal]</text>
<text text-anchor="middle" x="315" y="-1680.8" font-family="Times,serif" font-size="14.00" fill="white">3 µs 850 ns</text>
</a>
</g>
</g>
<!-- 133111232768400 -->
<g id="node2" class="node">
<title>133111232768400</title>
<g id="a_node2"><a xlink:title="Output: 7 rows in 1 chunk filtered: 0, 17 µs 500 ns.&#10;Operator step runtimes:&#10; MaterializeSortColumns 7 µs 62 ns&#10; Sort 2 µs 110 ns&#10; TemporaryResultWriting 161 ns&#10; WriteOutput 5 µs 851 ns.">
<polygon fill="none" stroke="white" points="369,-1622 261,-1622 261,-1568 369,-1568 369,-1622"/>
<text text-anchor="middle" x="315" y="-1606.8" font-family="Times,serif" font-size="14.00" fill="white">Sort</text>
<text text-anchor="middle" x="315" y="-1575.8" font-family="Times,serif" font-size="14.00" fill="white">17 µs 500 ns</text>
</a>
</g>
</g>
<!-- 133111232768400&#45;&gt;133111232768720 -->
<g id="edge1" class="edge">
<title>133111232768400&#45;&gt;133111232768720</title>
<path fill="none" stroke="white" d="M315,-1622.19C315,-1634.29 315,-1649 315,-1662.72"/>
<polygon fill="white" stroke="white" points="311.5,-1662.95 315,-1672.95 318.5,-1662.96 311.5,-1662.95"/>
<text text-anchor="middle" x="384" y="-1643.8" font-family="Times,serif" font-size="14.00" fill="white">7 row(s)/1 chunk(s)</text>
</g>
<!-- 133111232481296 -->
<g id="node3" class="node">
<title>133111232481296</title>
<g id="a_node3"><a xlink:title="Output: 7 rows in 1 chunk filtered: 0, 42 ms 120 µs.&#10;Operator step runtimes:&#10; GroupByKeyPartitioning 3 ms 914 µs&#10; Aggregating 38 ms 147 µs&#10; GroupByColumnsWriting 5 µs 962 ns&#10; AggregateColumnsWriting 10 µs 536 ns&#10; OutputWriting 4 µs 528 ns.">
<polygon fill="none" stroke="white" stroke-width="4.54" points="444.5,-1517 185.5,-1517 185.5,-1418 444.5,-1418 444.5,-1517"/>
<text text-anchor="middle" x="315" y="-1501.8" font-family="Times,serif" font-size="14.00" fill="white">AggregateHash</text>
<text text-anchor="middle" x="315" y="-1486.8" font-family="Times,serif" font-size="14.00" fill="white">GroupBy {SUBSTR(c_phone,1,2)}</text>
<text text-anchor="middle" x="315" y="-1471.8" font-family="Times,serif" font-size="14.00" fill="white">COUNT(*), </text>
<text text-anchor="middle" x="315" y="-1456.8" font-family="Times,serif" font-size="14.00" fill="white">SUM(c_acctbal)</text>
<text text-anchor="middle" x="315" y="-1425.8" font-family="Times,serif" font-size="14.00" fill="white">42 ms 120 µs</text>
</a>
</g>
</g>
<!-- 133111232481296&#45;&gt;133111232768400 -->
<g id="edge2" class="edge">
<title>133111232481296&#45;&gt;133111232768400</title>
<path fill="none" stroke="white" d="M315,-1517.02C315,-1530.49 315,-1544.89 315,-1557.54"/>
<polygon fill="white" stroke="white" points="311.5,-1557.7 315,-1567.7 318.5,-1557.7 311.5,-1557.7"/>
<text text-anchor="middle" x="384" y="-1538.8" font-family="Times,serif" font-size="14.00" fill="white">7 row(s)/1 chunk(s)</text>
</g>
<!-- 133111232768080 -->
<g id="node4" class="node">
<title>133111232768080</title>
<g id="a_node4"><a xlink:title="Output: 318035 rows in 256 chunks filtered: 0, 65 µs 129 ns.">
<polygon fill="none" stroke="white" points="401,-1367 229,-1367 229,-1298 401,-1298 401,-1367"/>
<text text-anchor="middle" x="315" y="-1351.8" font-family="Times,serif" font-size="14.00" fill="white">Alias</text>
<text text-anchor="middle" x="315" y="-1336.8" font-family="Times,serif" font-size="14.00" fill="white">[cntrycode, c_acctbal]</text>
<text text-anchor="middle" x="315" y="-1305.8" font-family="Times,serif" font-size="14.00" fill="white">65 µs 129 ns</text>
</a>
</g>
</g>
<!-- 133111232768080&#45;&gt;133111232481296 -->
<g id="edge3" class="edge">
<title>133111232768080&#45;&gt;133111232481296</title>
<path fill="none" stroke="white" d="M315,-1367.06C315,-1379.45 315,-1393.87 315,-1407.83"/>
<polygon fill="white" stroke="white" points="311.5,-1407.87 315,-1417.87 318.5,-1407.87 311.5,-1407.87"/>
<text text-anchor="middle" x="417.5" y="-1388.8" font-family="Times,serif" font-size="14.00" fill="white">318,035 row(s)/256 chunk(s)</text>
</g>
<!-- 133111232767760 -->
<g id="node5" class="node">
<title>133111232767760</title>
<g id="a_node5"><a xlink:title="Output: 318035 rows in 256 chunks filtered: 0, 21 ms 424 µs.&#10;Operator step runtimes:&#10; ForwardUnmodifiedColumns 187 µs 784 ns&#10; EvaluateNewColumns 20 ms 891 µs&#10; BuildOutput 273 µs 112 ns.">
<polygon fill="none" stroke="white" stroke-width="2.88" points="371.5,-1247 258.5,-1247 258.5,-1193 371.5,-1193 371.5,-1247"/>
<text text-anchor="middle" x="315" y="-1231.8" font-family="Times,serif" font-size="14.00" fill="white">Projection</text>
<text text-anchor="middle" x="315" y="-1200.8" font-family="Times,serif" font-size="14.00" fill="white">21 ms 424 µs</text>
</a>
</g>
</g>
<!-- 133111232767760&#45;&gt;133111232768080 -->
<g id="edge4" class="edge">
<title>133111232767760&#45;&gt;133111232768080</title>
<path fill="none" stroke="white" d="M315,-1247.19C315,-1259.29 315,-1274 315,-1287.72"/>
<polygon fill="white" stroke="white" points="311.5,-1287.95 315,-1297.95 318.5,-1287.96 311.5,-1287.95"/>
<text text-anchor="middle" x="417.5" y="-1268.8" font-family="Times,serif" font-size="14.00" fill="white">318,035 row(s)/256 chunk(s)</text>
</g>
<!-- 133111232766800 -->
<g id="node6" class="node">
<title>133111232766800</title>
<g id="a_node6"><a xlink:title="Output: 318035 rows in 256 chunks filtered: 0, 170 ms 976 µs.&#10;Operator step runtimes:&#10; LeftSideMaterialize 2 ms 861 µs&#10; RightSideMaterialize 32 ms 619 µs&#10; LeftSideTransform 0 ns&#10; RightSideTransform 0 ns&#10; LeftSidePartition 7 ms 481 µs&#10; RightSidePartition 61 ms 336 µs&#10; LeftSideSortBuckets 666 µs 539 ns&#10; RightSideSortBuckets 56 ms 616 µs&#10; GatherRowIds 5 µs 456 ns&#10; FindJoinPartner 5 ms 821 µs&#10; OutputWriting 1 ms 309 µs.&#10;Radix bits: 8.">
<polygon fill="none" stroke="white" stroke-width="8" points="458.5,-1142 171.5,-1142 171.5,-1073 458.5,-1073 458.5,-1142"/>
<text text-anchor="middle" x="315" y="-1126.8" font-family="Times,serif" font-size="14.00" fill="white">JoinSimdSortMerge (AntiNullAsFalse)</text>
<text text-anchor="middle" x="315" y="-1111.8" font-family="Times,serif" font-size="14.00" fill="white">c_custkey = o_custkey</text>
<text text-anchor="middle" x="315" y="-1080.8" font-family="Times,serif" font-size="14.00" fill="white">170 ms 976 µs</text>
</a>
</g>
</g>
<!-- 133111232766800&#45;&gt;133111232767760 -->
<g id="edge5" class="edge">
<title>133111232766800&#45;&gt;133111232767760</title>
<path fill="none" stroke="white" d="M315,-1142.25C315,-1155.07 315,-1169.73 315,-1182.77"/>
<polygon fill="white" stroke="white" points="311.5,-1182.81 315,-1192.81 318.5,-1182.81 311.5,-1182.81"/>
<text text-anchor="middle" x="417.5" y="-1163.8" font-family="Times,serif" font-size="14.00" fill="white">318,035 row(s)/256 chunk(s)</text>
</g>
<!-- 133111232765840 -->
<g id="node7" class="node">
<title>133111232765840</title>
<g id="a_node7"><a xlink:title="Output: 954917 rows in 115 chunks filtered: 0, 36 ms 845 µs.&#10;Chunks: 0 skipped with no results, &#10;0 skipped with all matching, 0 scanned using binary search.">
<polygon fill="none" stroke="white" stroke-width="4.21" points="365.5,-1022 16.5,-1022 16.5,-923 365.5,-923 365.5,-1022"/>
<text text-anchor="middle" x="191" y="-1006.8" font-family="Times,serif" font-size="14.00" fill="white">TableScan</text>
<text text-anchor="middle" x="191" y="-991.8" font-family="Times,serif" font-size="14.00" fill="white">Impl: ExpressionEvaluator</text>
<text text-anchor="middle" x="191" y="-976.8" font-family="Times,serif" font-size="14.00" fill="white">(SUBSTR(c_phone,1,2)) IN (&#39;30&#39;, &#39;16&#39;, &#39;28&#39;, &#39;19&#39;,</text>
<text text-anchor="middle" x="191" y="-961.8" font-family="Times,serif" font-size="14.00" fill="white">&#39;11&#39;, &#39;29&#39;, &#39;27&#39;)</text>
<text text-anchor="middle" x="191" y="-930.8" font-family="Times,serif" font-size="14.00" fill="white">36 ms 845 µs</text>
</a>
</g>
</g>
<!-- 133111232765840&#45;&gt;133111232766800 -->
<g id="edge6" class="edge">
<title>133111232765840&#45;&gt;133111232766800</title>
<path fill="none" stroke="white" d="M194.44,-1022.34C197.15,-1033.96 201.64,-1045.67 209,-1055 212.24,-1059.11 215.9,-1062.91 219.85,-1066.43"/>
<polygon fill="white" stroke="white" points="220.01,-1066.56 217.8,-1069.28 227.78,-1072.85 220.01,-1066.56"/>
<text text-anchor="middle" x="311.5" y="-1043.8" font-family="Times,serif" font-size="14.00" fill="white">954,917 row(s)/115 chunk(s)</text>
</g>
<!-- 133111232765520 -->
<g id="node8" class="node">
<title>133111232765520</title>
<g id="a_node8"><a xlink:title="Output: 3408701 rows in 115 chunks filtered: 0, 1 ms 919 µs.&#10;Chunks: 0 skipped with no results, &#10;0 skipped with all matching, 0 scanned using binary search.">
<polygon fill="none" stroke="white" points="361.5,-857 2.5,-857 2.5,-773 361.5,-773 361.5,-857"/>
<text text-anchor="middle" x="182" y="-841.8" font-family="Times,serif" font-size="14.00" fill="white">TableScan</text>
<text text-anchor="middle" x="182" y="-826.8" font-family="Times,serif" font-size="14.00" fill="white">Impl: ColumnVsValue</text>
<text text-anchor="middle" x="182" y="-811.8" font-family="Times,serif" font-size="14.00" fill="white">c_acctbal &gt; SUBQUERY (PQP, 0x79105fd64c10)</text>
<text text-anchor="middle" x="182" y="-780.8" font-family="Times,serif" font-size="14.00" fill="white">1 ms 919 µs</text>
</a>
</g>
</g>
<!-- 133111232765520&#45;&gt;133111232765840 -->
<g id="edge7" class="edge">
<title>133111232765520&#45;&gt;133111232765840</title>
<path fill="none" stroke="white" d="M184.39,-857.26C185.37,-874.27 186.53,-894.29 187.6,-912.77"/>
<polygon fill="white" stroke="white" points="184.11,-913.08 188.18,-922.86 191.1,-912.67 184.11,-913.08"/>
<text text-anchor="middle" x="297.5" y="-893.8" font-family="Times,serif" font-size="14.00" fill="white">3,408,701 row(s)/115 chunk(s)</text>
</g>
<!-- 133111232683536 -->
<g id="node9" class="node">
<title>133111232683536</title>
<g id="a_node9"><a xlink:title="Output: 7500000 rows in 115 chunks filtered: 0, 572 µs 754 ns.">
<polygon fill="none" stroke="white" points="119.5,-692 2.5,-692 2.5,-638 119.5,-638 119.5,-692"/>
<text text-anchor="middle" x="61" y="-676.8" font-family="Times,serif" font-size="14.00" fill="white">Validate</text>
<text text-anchor="middle" x="61" y="-645.8" font-family="Times,serif" font-size="14.00" fill="white">572 µs 754 ns</text>
</a>
</g>
</g>
<!-- 133111232683536&#45;&gt;133111232765520 -->
<g id="edge8" class="edge">
<title>133111232683536&#45;&gt;133111232765520</title>
<path fill="none" stroke="white" stroke-width="2.32" d="M56.75,-692.35C55.67,-707.29 56.67,-725.79 65,-740 70.78,-749.86 78.46,-758.61 87.12,-766.33"/>
<polygon fill="white" stroke="white" stroke-width="2.32" points="85.03,-769.14 94.96,-772.84 89.5,-763.76 85.03,-769.14"/>
<text text-anchor="middle" x="174.5" y="-728.8" font-family="Times,serif" font-size="14.00" fill="white">7,500,000 row(s)/115 chunk(s)</text>
</g>
<!-- 133111253022672 -->
<g id="node10" class="node">
<title>133111253022672</title>
<g id="a_node10"><a xlink:title="Output: 7500000 rows in 115 chunks filtered: 0, 158 µs 101 ns.">
<polygon fill="none" stroke="white" points="122,-572 0,-572 0,-458 122,-458 122,-572"/>
<text text-anchor="middle" x="61" y="-556.8" font-family="Times,serif" font-size="14.00" fill="white">GetTable</text>
<text text-anchor="middle" x="61" y="-541.8" font-family="Times,serif" font-size="14.00" fill="white">(customer)</text>
<text text-anchor="middle" x="61" y="-526.8" font-family="Times,serif" font-size="14.00" fill="white">pruned:</text>
<text text-anchor="middle" x="61" y="-511.8" font-family="Times,serif" font-size="14.00" fill="white">0/115 chunk(s)</text>
<text text-anchor="middle" x="61" y="-496.8" font-family="Times,serif" font-size="14.00" fill="white">5/8 column(s)</text>
<text text-anchor="middle" x="61" y="-465.8" font-family="Times,serif" font-size="14.00" fill="white">158 µs 101 ns</text>
</a>
</g>
</g>
<!-- 133111253022672&#45;&gt;133111232683536 -->
<g id="edge9" class="edge">
<title>133111253022672&#45;&gt;133111232683536</title>
<path fill="none" stroke="white" stroke-width="2.32" d="M61,-572.37C61,-590.87 61,-610.92 61,-627.54"/>
<polygon fill="white" stroke="white" stroke-width="2.32" points="57.5,-627.92 61,-637.92 64.5,-627.92 57.5,-627.92"/>
<text text-anchor="middle" x="170.5" y="-593.8" font-family="Times,serif" font-size="14.00" fill="white">7,500,000 row(s)/115 chunk(s)</text>
</g>
<!-- 133111234317328 -->
<g id="node11" class="node">
<title>133111234317328</title>
<g id="a_node11"><a xlink:title="Output: 1 row in 1 chunk filtered: 0, 22 ms 513 µs.&#10;Operator step runtimes:&#10; GroupByKeyPartitioning 63 ns&#10; Aggregating 22 ms 485 µs&#10; GroupByColumnsWriting 663 ns&#10; AggregateColumnsWriting 11 µs 126 ns&#10; OutputWriting 10 µs 226 ns.">
<polygon fill="none" stroke="white" stroke-width="3" points="371,-707 243,-707 243,-623 371,-623 371,-707"/>
<text text-anchor="middle" x="307" y="-691.8" font-family="Times,serif" font-size="14.00" fill="white">AggregateHash</text>
<text text-anchor="middle" x="307" y="-676.8" font-family="Times,serif" font-size="14.00" fill="white">GroupBy {}</text>
<text text-anchor="middle" x="307" y="-661.8" font-family="Times,serif" font-size="14.00" fill="white">AVG(c_acctbal)</text>
<text text-anchor="middle" x="307" y="-630.8" font-family="Times,serif" font-size="14.00" fill="white">22 ms 513 µs</text>
</a>
</g>
</g>
<!-- 133111234317328&#45;&gt;133111232765520 -->
<g id="edge10" class="edge">
<title>133111234317328&#45;&gt;133111232765520</title>
<path fill="none" stroke="white" stroke-dasharray="5,2" d="M299.2,-707.35C295.77,-718.63 290.9,-730.38 284,-740 277.13,-749.58 268.62,-758.41 259.48,-766.38"/>
<polygon fill="white" stroke="white" points="257.13,-763.78 251.68,-772.86 261.61,-769.16 257.13,-763.78"/>
<text text-anchor="middle" x="374.5" y="-728.8" font-family="Times,serif" font-size="14.00" fill="white">uncorrelated subquery</text>
</g>
<!-- 133111232767440 -->
<g id="node12" class="node">
<title>133111232767440</title>
<g id="a_node12"><a xlink:title="Output: 1909805 rows in 115 chunks filtered: 0, 74 ms 631 µs.&#10;Chunks: 0 skipped with no results, &#10;0 skipped with all matching, 0 scanned using binary search.">
<polygon fill="none" stroke="white" stroke-width="5.96" points="489.5,-564.5 140.5,-564.5 140.5,-465.5 489.5,-465.5 489.5,-564.5"/>
<text text-anchor="middle" x="315" y="-549.3" font-family="Times,serif" font-size="14.00" fill="white">TableScan</text>
<text text-anchor="middle" x="315" y="-534.3" font-family="Times,serif" font-size="14.00" fill="white">Impl: ExpressionEvaluator</text>
<text text-anchor="middle" x="315" y="-519.3" font-family="Times,serif" font-size="14.00" fill="white">(SUBSTR(c_phone,1,2)) IN (&#39;30&#39;, &#39;16&#39;, &#39;28&#39;, &#39;19&#39;,</text>
<text text-anchor="middle" x="315" y="-504.3" font-family="Times,serif" font-size="14.00" fill="white">&#39;11&#39;, &#39;29&#39;, &#39;27&#39;)</text>
<text text-anchor="middle" x="315" y="-473.3" font-family="Times,serif" font-size="14.00" fill="white">74 ms 631 µs</text>
</a>
</g>
</g>
<!-- 133111232767440&#45;&gt;133111234317328 -->
<g id="edge11" class="edge">
<title>133111232767440&#45;&gt;133111234317328</title>
<path fill="none" stroke="white" d="M312.36,-564.87C311.54,-580.06 310.63,-596.85 309.8,-612.23"/>
<polygon fill="white" stroke="white" points="306.28,-612.43 309.24,-622.61 313.27,-612.81 306.28,-612.43"/>
<text text-anchor="middle" x="420.5" y="-593.8" font-family="Times,serif" font-size="14.00" fill="white">1,909,805 row(s)/115 chunk(s)</text>
</g>
<!-- 133111232537616 -->
<g id="node13" class="node">
<title>133111232537616</title>
<g id="a_node13"><a xlink:title="Output: 6818542 rows in 115 chunks filtered: 0, 297 µs 337 ns.">
<polygon fill="none" stroke="white" points="373.5,-407 256.5,-407 256.5,-353 373.5,-353 373.5,-407"/>
<text text-anchor="middle" x="315" y="-391.8" font-family="Times,serif" font-size="14.00" fill="white">Validate</text>
<text text-anchor="middle" x="315" y="-360.8" font-family="Times,serif" font-size="14.00" fill="white">297 µs 337 ns</text>
</a>
</g>
</g>
<!-- 133111232537616&#45;&gt;133111232767440 -->
<g id="edge12" class="edge">
<title>133111232537616&#45;&gt;133111232767440</title>
<path fill="none" stroke="white" stroke-width="2.09" d="M315,-407.28C315,-421.01 315,-438.4 315,-455.14"/>
<polygon fill="white" stroke="white" stroke-width="2.09" points="311.5,-455.44 315,-465.44 318.5,-455.44 311.5,-455.44"/>
<text text-anchor="middle" x="424.5" y="-428.8" font-family="Times,serif" font-size="14.00" fill="white">6,818,542 row(s)/115 chunk(s)</text>
</g>
<!-- 133111232767120 -->
<g id="node14" class="node">
<title>133111232767120</title>
<g id="a_node14"><a xlink:title="Output: 6818542 rows in 115 chunks filtered: 0, 5 ms 325 µs.&#10;Chunks: 0 skipped with no results, &#10;0 skipped with all matching, 0 scanned using binary search.">
<polygon fill="none" stroke="white" points="399.5,-302 230.5,-302 230.5,-218 399.5,-218 399.5,-302"/>
<text text-anchor="middle" x="315" y="-286.8" font-family="Times,serif" font-size="14.00" fill="white">TableScan</text>
<text text-anchor="middle" x="315" y="-271.8" font-family="Times,serif" font-size="14.00" fill="white">Impl: ColumnVsValue</text>
<text text-anchor="middle" x="315" y="-256.8" font-family="Times,serif" font-size="14.00" fill="white">c_acctbal &gt; 0</text>
<text text-anchor="middle" x="315" y="-225.8" font-family="Times,serif" font-size="14.00" fill="white">5 ms 325 µs</text>
</a>
</g>
</g>
<!-- 133111232767120&#45;&gt;133111232537616 -->
<g id="edge13" class="edge">
<title>133111232767120&#45;&gt;133111232537616</title>
<path fill="none" stroke="white" stroke-width="2.09" d="M315,-302.27C315,-315.36 315,-329.72 315,-342.45"/>
<polygon fill="white" stroke="white" stroke-width="2.09" points="311.5,-342.69 315,-352.69 318.5,-342.69 311.5,-342.69"/>
<text text-anchor="middle" x="424.5" y="-323.8" font-family="Times,serif" font-size="14.00" fill="white">6,818,542 row(s)/115 chunk(s)</text>
</g>
<!-- 133111253023120 -->
<g id="node15" class="node">
<title>133111253023120</title>
<g id="a_node15"><a xlink:title="Output: 7500000 rows in 115 chunks filtered: 0, 307 µs 492 ns.">
<polygon fill="none" stroke="white" points="376,-140.5 254,-140.5 254,-26.5 376,-26.5 376,-140.5"/>
<text text-anchor="middle" x="315" y="-125.3" font-family="Times,serif" font-size="14.00" fill="white">GetTable</text>
<text text-anchor="middle" x="315" y="-110.3" font-family="Times,serif" font-size="14.00" fill="white">(customer)</text>
<text text-anchor="middle" x="315" y="-95.3" font-family="Times,serif" font-size="14.00" fill="white">pruned:</text>
<text text-anchor="middle" x="315" y="-80.3" font-family="Times,serif" font-size="14.00" fill="white">0/115 chunk(s)</text>
<text text-anchor="middle" x="315" y="-65.3" font-family="Times,serif" font-size="14.00" fill="white">5/8 column(s)</text>
<text text-anchor="middle" x="315" y="-34.3" font-family="Times,serif" font-size="14.00" fill="white">307 µs 492 ns</text>
</a>
</g>
</g>
<!-- 133111253023120&#45;&gt;133111232767120 -->
<g id="edge14" class="edge">
<title>133111253023120&#45;&gt;133111232767120</title>
<path fill="none" stroke="white" stroke-width="2.32" d="M315,-140.67C315,-162.25 315,-186.74 315,-207.83"/>
<polygon fill="white" stroke="white" stroke-width="2.32" points="311.5,-207.87 315,-217.87 318.5,-207.87 311.5,-207.87"/>
<text text-anchor="middle" x="424.5" y="-188.8" font-family="Times,serif" font-size="14.00" fill="white">7,500,000 row(s)/115 chunk(s)</text>
</g>
<!-- 133111232537360 -->
<g id="node16" class="node">
<title>133111232537360</title>
<g id="a_node16"><a xlink:title="Output: 75000000 rows in 1145 chunks filtered: 0, 65 ms 783 µs.">
<polygon fill="none" stroke="white" stroke-width="5.64" points="499.5,-999.5 386.5,-999.5 386.5,-945.5 499.5,-945.5 499.5,-999.5"/>
<text text-anchor="middle" x="443" y="-984.3" font-family="Times,serif" font-size="14.00" fill="white">Validate</text>
<text text-anchor="middle" x="443" y="-953.3" font-family="Times,serif" font-size="14.00" fill="white">65 ms 783 µs</text>
</a>
</g>
</g>
<!-- 133111232537360&#45;&gt;133111232766800 -->
<g id="edge15" class="edge">
<title>133111232537360&#45;&gt;133111232766800</title>
<path fill="none" stroke="white" stroke-width="8" d="M438.87,-999.52C434.97,-1016.91 427.61,-1039.37 414,-1055 410.34,-1059.2 406.26,-1063.11 401.89,-1066.73"/>
<polygon fill="white" stroke="white" stroke-width="8" points="393.74,-1072.96 405.94,-1072.45 401.69,-1066.88 393.74,-1072.96"/>
<text text-anchor="middle" x="544.5" y="-1043.8" font-family="Times,serif" font-size="14.00" fill="white">75,000,000 row(s)/1,145 chunk(s)</text>
</g>
<!-- 133111253023568 -->
<g id="node17" class="node">
<title>133111253023568</title>
<g id="a_node17"><a xlink:title="Output: 75000000 rows in 1145 chunks filtered: 0, 6 ms 108 µs.">
<polygon fill="none" stroke="white" points="510.5,-872 379.5,-872 379.5,-758 510.5,-758 510.5,-872"/>
<text text-anchor="middle" x="445" y="-856.8" font-family="Times,serif" font-size="14.00" fill="white">GetTable</text>
<text text-anchor="middle" x="445" y="-841.8" font-family="Times,serif" font-size="14.00" fill="white">(orders)</text>
<text text-anchor="middle" x="445" y="-826.8" font-family="Times,serif" font-size="14.00" fill="white">pruned:</text>
<text text-anchor="middle" x="445" y="-811.8" font-family="Times,serif" font-size="14.00" fill="white">0/1145 chunk(s)</text>
<text text-anchor="middle" x="445" y="-796.8" font-family="Times,serif" font-size="14.00" fill="white">8/9 column(s)</text>
<text text-anchor="middle" x="445" y="-765.8" font-family="Times,serif" font-size="14.00" fill="white">6 ms 108 µs</text>
</a>
</g>
</g>
<!-- 133111253023568&#45;&gt;133111232537360 -->
<g id="edge16" class="edge">
<title>133111253023568&#45;&gt;133111232537360</title>
<path fill="none" stroke="white" stroke-width="8" d="M444.28,-872.14C444.01,-893.18 443.71,-916.52 443.47,-935.28"/>
<polygon fill="white" stroke="white" stroke-width="8" points="436.46,-935.38 443.33,-945.47 450.46,-935.56 436.46,-935.38"/>
<text text-anchor="middle" x="564.5" y="-893.8" font-family="Times,serif" font-size="14.00" fill="white">75,000,000 row(s)/1,145 chunk(s)</text>
</g>
<!-- 0 -->
<g id="node18" class="node">
<title>0</title>
<polygon fill="none" stroke="white" points="394,-0.5 394,-166.5 740,-166.5 740,-0.5 394,-0.5"/>
<text text-anchor="middle" x="567" y="-151.3" font-family="Times,serif" font-size="14.00" fill="white">Total by operator</text>
<polyline fill="none" stroke="white" points="394,-143.5 740,-143.5 "/>
<text text-anchor="end" x="548" y="-128.3" font-family="Times,serif" font-size="14.00" fill="white">JoinSimdSortMerge </text>
<text text-anchor="end" x="548" y="-113.3" font-family="Times,serif" font-size="14.00" fill="white"> TableScan </text>
<text text-anchor="end" x="548" y="-98.3" font-family="Times,serif" font-size="14.00" fill="white"> Validate </text>
<text text-anchor="end" x="548" y="-83.3" font-family="Times,serif" font-size="14.00" fill="white"> AggregateHash </text>
<text text-anchor="end" x="548" y="-68.3" font-family="Times,serif" font-size="14.00" fill="white"> Projection </text>
<text text-anchor="end" x="548" y="-53.3" font-family="Times,serif" font-size="14.00" fill="white"> GetTable </text>
<text text-anchor="end" x="548" y="-38.3" font-family="Times,serif" font-size="14.00" fill="white"> Alias </text>
<text text-anchor="end" x="548" y="-23.3" font-family="Times,serif" font-size="14.00" fill="white"> Sort </text>
<text text-anchor="end" x="548" y="-8.3" font-family="Times,serif" font-size="14.00" fill="white">total</text>
<polyline fill="none" stroke="white" points="556,-0.5 556,-143.5 "/>
<text text-anchor="start" x="564" y="-128.3" font-family="Times,serif" font-size="14.00" fill="white">170 ms 976 µs </text>
<text text-anchor="start" x="564" y="-113.3" font-family="Times,serif" font-size="14.00" fill="white"> 118 ms 720 µs </text>
<text text-anchor="start" x="564" y="-98.3" font-family="Times,serif" font-size="14.00" fill="white"> 66 ms 653 µs </text>
<text text-anchor="start" x="564" y="-83.3" font-family="Times,serif" font-size="14.00" fill="white"> 64 ms 633 µs </text>
<text text-anchor="start" x="564" y="-68.3" font-family="Times,serif" font-size="14.00" fill="white"> 21 ms 424 µs </text>
<text text-anchor="start" x="564" y="-53.3" font-family="Times,serif" font-size="14.00" fill="white"> 6 ms 573 µs </text>
<text text-anchor="start" x="564" y="-38.3" font-family="Times,serif" font-size="14.00" fill="white"> 68 µs 979 ns </text>
<text text-anchor="start" x="564" y="-23.3" font-family="Times,serif" font-size="14.00" fill="white"> 17 µs 500 ns </text>
<text text-anchor="start" x="564" y="-8.3" font-family="Times,serif" font-size="14.00" fill="white"> 449 ms 66 µs </text>
<polyline fill="none" stroke="white" points="687,-0.5 687,-143.5 "/>
<text text-anchor="start" x="695" y="-128.3" font-family="Times,serif" font-size="14.00" fill="white">38 %</text>
<text text-anchor="start" x="695" y="-113.3" font-family="Times,serif" font-size="14.00" fill="white">26 %</text>
<text text-anchor="start" x="695" y="-98.3" font-family="Times,serif" font-size="14.00" fill="white">15 %</text>
<text text-anchor="start" x="695" y="-83.3" font-family="Times,serif" font-size="14.00" fill="white">14 %</text>
<text text-anchor="start" x="695" y="-68.3" font-family="Times,serif" font-size="14.00" fill="white">5 %</text>
<text text-anchor="start" x="695" y="-53.3" font-family="Times,serif" font-size="14.00" fill="white">1 %</text>
<text text-anchor="start" x="695" y="-38.3" font-family="Times,serif" font-size="14.00" fill="white">0 %</text>
<text text-anchor="start" x="695" y="-23.3" font-family="Times,serif" font-size="14.00" fill="white">0 %</text>
<text text-anchor="start" x="695" y="-8.3" font-family="Times,serif" font-size="14.00" fill="white"> </text>
</g>
</g>
</svg>
