<?xml version="1.0" encoding="UTF-8" standalone="no"?>
<!DOCTYPE svg PUBLIC "-//W3C//DTD SVG 1.1//EN"
 "http://www.w3.org/Graphics/SVG/1.1/DTD/svg11.dtd">
<!-- Generated by graphviz version 2.43.0 (0)
 -->
<!-- Title: G Pages: 1 -->
<svg width="904pt" height="1370pt"
 viewBox="0.00 0.00 904.00 1370.00" xmlns="http://www.w3.org/2000/svg" xmlns:xlink="http://www.w3.org/1999/xlink">
<g id="graph0" class="graph" transform="scale(1 1) rotate(0) translate(4 1366)">
<title>G</title>
<polygon fill="black" stroke="transparent" points="-4,4 -4,-1366 900,-1366 900,4 -4,4"/>
<text text-anchor="middle" x="319.5" y="-1346.8" font-family="Times,serif" font-size="14.00" fill="white">For tooltips with advanced information, hover your mouse over vertices or edge labels.</text>
<!-- 281445573003152 -->
<g id="node1" class="node">
<title>281445573003152</title>
<g id="a_node1"><a xlink:title="Output: 5 rows in 1 chunk filtered: 0, 3 µs 360 ns.">
<polygon fill="none" stroke="white" points="584,-1307 357,-1307 357,-1238 584,-1238 584,-1307"/>
<text text-anchor="middle" x="470.5" y="-1291.8" font-family="Times,serif" font-size="14.00" fill="white">Alias</text>
<text text-anchor="middle" x="470.5" y="-1276.8" font-family="Times,serif" font-size="14.00" fill="white">[o_orderpriority, order_count]</text>
<text text-anchor="middle" x="470.5" y="-1245.8" font-family="Times,serif" font-size="14.00" fill="white">3 µs 360 ns</text>
</a>
</g>
</g>
<!-- 281445573002832 -->
<g id="node2" class="node">
<title>281445573002832</title>
<g id="a_node2"><a xlink:title="Output: 5 rows in 1 chunk filtered: 0, 18 µs 849 ns.&#10;Operator step runtimes:&#10; MaterializeSortColumns 5 µs 473 ns&#10; Sort 2 µs 944 ns&#10; TemporaryResultWriting 288 ns&#10; WriteOutput 7 µs 40 ns.">
<polygon fill="none" stroke="white" points="524.5,-1187 416.5,-1187 416.5,-1133 524.5,-1133 524.5,-1187"/>
<text text-anchor="middle" x="470.5" y="-1171.8" font-family="Times,serif" font-size="14.00" fill="white">Sort</text>
<text text-anchor="middle" x="470.5" y="-1140.8" font-family="Times,serif" font-size="14.00" fill="white">18 µs 849 ns</text>
</a>
</g>
</g>
<!-- 281445573002832&#45;&gt;281445573003152 -->
<g id="edge1" class="edge">
<title>281445573002832&#45;&gt;281445573003152</title>
<path fill="none" stroke="white" d="M470.5,-1187.19C470.5,-1199.29 470.5,-1214 470.5,-1227.72"/>
<polygon fill="white" stroke="white" points="467,-1227.95 470.5,-1237.95 474,-1227.96 467,-1227.95"/>
<text text-anchor="middle" x="539.5" y="-1208.8" font-family="Times,serif" font-size="14.00" fill="white">5 row(s)/1 chunk(s)</text>
</g>
<!-- 281445581849104 -->
<g id="node3" class="node">
<title>281445581849104</title>
<g id="a_node3"><a xlink:title="Output: 5 rows in 1 chunk filtered: 0, 382 ms 679 µs.&#10;Operator step runtimes:&#10; GroupByKeyPartitioning 370 ms 139 µs&#10; Aggregating 12 ms 474 µs&#10; GroupByColumnsWriting 7 µs 200 ns&#10; AggregateColumnsWriting 13 µs 472 ns&#10; OutputWriting 11 µs 200 ns.">
<polygon fill="none" stroke="white" stroke-width="8" points="575.5,-1082 365.5,-1082 365.5,-998 575.5,-998 575.5,-1082"/>
<text text-anchor="middle" x="470.5" y="-1066.8" font-family="Times,serif" font-size="14.00" fill="white">AggregateHash</text>
<text text-anchor="middle" x="470.5" y="-1051.8" font-family="Times,serif" font-size="14.00" fill="white">GroupBy {o_orderpriority}</text>
<text text-anchor="middle" x="470.5" y="-1036.8" font-family="Times,serif" font-size="14.00" fill="white">COUNT(*)</text>
<text text-anchor="middle" x="470.5" y="-1005.8" font-family="Times,serif" font-size="14.00" fill="white">382 ms 679 µs</text>
</a>
</g>
</g>
<!-- 281445581849104&#45;&gt;281445573002832 -->
<g id="edge2" class="edge">
<title>281445581849104&#45;&gt;281445573002832</title>
<path fill="none" stroke="white" d="M470.5,-1082.27C470.5,-1095.36 470.5,-1109.72 470.5,-1122.45"/>
<polygon fill="white" stroke="white" points="467,-1122.69 470.5,-1132.69 474,-1122.69 467,-1122.69"/>
<text text-anchor="middle" x="539.5" y="-1103.8" font-family="Times,serif" font-size="14.00" fill="white">5 row(s)/1 chunk(s)</text>
</g>
<!-- 281445573002512 -->
<g id="node4" class="node">
<title>281445573002512</title>
<g id="a_node4"><a xlink:title="Output: 2573838 rows in 64 chunks filtered: 0, 66 ms 549 µs.&#10;Operator step runtimes:&#10; LeftSideMaterialize 19 ms 66 µs&#10; RightSideMaterialize 35 ms 828 µs&#10; LeftSideTransform 0 ns&#10; RightSideTransform 0 ns&#10; LeftSidePartition 1 ms 364 µs&#10; RightSidePartition 3 ms 480 µs&#10; LeftSideSortBuckets 1 ms 347 µs&#10; RightSideSortBuckets 663 µs 46 ns&#10; GatherRowIds 801 ns&#10; FindJoinPartner 1 ms 667 µs&#10; OutputWriting 2 ms 272 µs.&#10;Radix bits: 8.">
<polygon fill="none" stroke="white" stroke-width="3.69" points="575,-947 366,-947 366,-878 575,-878 575,-947"/>
<text text-anchor="middle" x="470.5" y="-931.8" font-family="Times,serif" font-size="14.00" fill="white">JoinSimdSortMerge (Semi)</text>
<text text-anchor="middle" x="470.5" y="-916.8" font-family="Times,serif" font-size="14.00" fill="white">o_orderkey = l_orderkey</text>
<text text-anchor="middle" x="470.5" y="-885.8" font-family="Times,serif" font-size="14.00" fill="white">66 ms 549 µs</text>
</a>
</g>
</g>
<!-- 281445573002512&#45;&gt;281445581849104 -->
<g id="edge3" class="edge">
<title>281445573002512&#45;&gt;281445581849104</title>
<path fill="none" stroke="white" d="M470.5,-947.13C470.5,-959.51 470.5,-973.84 470.5,-987.44"/>
<polygon fill="white" stroke="white" points="467,-987.65 470.5,-997.65 474,-987.65 467,-987.65"/>
<text text-anchor="middle" x="575.5" y="-968.8" font-family="Times,serif" font-size="14.00" fill="white">2,573,838 row(s)/64 chunk(s)</text>
</g>
<!-- 281445454971408 -->
<g id="node5" class="node">
<title>281445454971408</title>
<g id="a_node5"><a xlink:title="Output: 2807107 rows in 1145 chunks filtered: 0, 1 ms 640 µs.">
<polygon fill="none" stroke="white" points="513.5,-437 409.5,-437 409.5,-383 513.5,-383 513.5,-437"/>
<text text-anchor="middle" x="461.5" y="-421.8" font-family="Times,serif" font-size="14.00" fill="white">Validate</text>
<text text-anchor="middle" x="461.5" y="-390.8" font-family="Times,serif" font-size="14.00" fill="white">1 ms 640 µs</text>
</a>
</g>
</g>
<!-- 281445454971408&#45;&gt;281445573002512 -->
<g id="edge4" class="edge">
<title>281445454971408&#45;&gt;281445573002512</title>
<path fill="none" stroke="white" d="M513.65,-434.94C534.64,-447.09 557.22,-463.81 571.5,-485 588.38,-510.05 585.5,-521.3 585.5,-551.5 585.5,-551.5 585.5,-551.5 585.5,-786 585.5,-819.47 591.57,-833.21 571.5,-860 568.41,-864.13 564.89,-867.95 561.07,-871.48"/>
<polygon fill="white" stroke="white" points="561.03,-871.51 558.78,-868.83 553.37,-877.94 561.03,-871.51"/>
<text text-anchor="middle" x="701.5" y="-661.3" font-family="Times,serif" font-size="14.00" fill="white">2,807,107 row(s)/1,145 chunk(s)</text>
</g>
<!-- 281445573001872 -->
<g id="node10" class="node">
<title>281445573001872</title>
<g id="a_node10"><a xlink:title="Output: 11230852 rows in 64 chunks filtered: 7993, 275 ms 529 µs.&#10;Operator step runtimes:&#10; LeftSideMaterialize 77 ms 252 µs&#10; RightSideMaterialize 17 ms 768 µs&#10; LeftSideTransform 0 ns&#10; RightSideTransform 0 ns&#10; LeftSidePartition 121 ms 253 µs&#10; RightSidePartition 1 ms 542 µs&#10; LeftSideSortBuckets 34 ms 246 µs&#10; RightSideSortBuckets 1 ms 396 µs&#10; GatherRowIds 960 ns&#10; FindJoinPartner 17 ms 932 µs&#10; OutputWriting 258 µs 147 ns.&#10;Radix bits: 8.">
<polygon fill="none" stroke="white" stroke-width="7.19" points="481,-587 196,-587 196,-518 481,-518 481,-587"/>
<text text-anchor="middle" x="338.5" y="-571.8" font-family="Times,serif" font-size="14.00" fill="white">JoinSimdSortMerge (Semi Reduction)</text>
<text text-anchor="middle" x="338.5" y="-556.8" font-family="Times,serif" font-size="14.00" fill="white">l_orderkey = o_orderkey</text>
<text text-anchor="middle" x="338.5" y="-525.8" font-family="Times,serif" font-size="14.00" fill="white">275 ms 529 µs</text>
</a>
</g>
</g>
<!-- 281445454971408&#45;&gt;281445573001872 -->
<g id="edge5" class="edge">
<title>281445454971408&#45;&gt;281445573001872</title>
<path fill="none" stroke="white" d="M409.19,-428.76C383.4,-440.45 354.65,-458.56 339.5,-485 335.54,-491.9 333.65,-499.91 332.98,-507.92"/>
<polygon fill="white" stroke="white" points="332.74,-517.99 336.48,-508.08 332.98,-508 332.74,-517.99"/>
<text text-anchor="middle" x="455.5" y="-488.8" font-family="Times,serif" font-size="14.00" fill="white">2,807,107 row(s)/1,145 chunk(s)</text>
</g>
<!-- 281445573001552 -->
<g id="node6" class="node">
<title>281445573001552</title>
<g id="a_node6"><a xlink:title="Output: 2807107 rows in 1145 chunks filtered: 0, 3 ms 44 µs.&#10;Chunks: 0 skipped with no results, &#10;0 skipped with all matching, 0 scanned using binary search.">
<polygon fill="none" stroke="white" points="674,-302 249,-302 249,-203 674,-203 674,-302"/>
<text text-anchor="middle" x="461.5" y="-286.8" font-family="Times,serif" font-size="14.00" fill="white">TableScan</text>
<text text-anchor="middle" x="461.5" y="-271.8" font-family="Times,serif" font-size="14.00" fill="white">Impl: ColumnBetween</text>
<text text-anchor="middle" x="461.5" y="-256.8" font-family="Times,serif" font-size="14.00" fill="white">o_orderdate BETWEEN UPPER EXCLUSIVE &#39;1993&#45;01&#45;01&#39;</text>
<text text-anchor="middle" x="461.5" y="-241.8" font-family="Times,serif" font-size="14.00" fill="white">AND &#39;1993&#45;04&#45;01&#39;</text>
<text text-anchor="middle" x="461.5" y="-210.8" font-family="Times,serif" font-size="14.00" fill="white">3 ms 44 µs</text>
</a>
</g>
</g>
<!-- 281445573001552&#45;&gt;281445454971408 -->
<g id="edge6" class="edge">
<title>281445573001552&#45;&gt;281445454971408</title>
<path fill="none" stroke="white" d="M461.5,-302.27C461.5,-324.98 461.5,-351.53 461.5,-372.47"/>
<polygon fill="white" stroke="white" points="458,-372.56 461.5,-382.56 465,-372.56 458,-372.56"/>
<text text-anchor="middle" x="577.5" y="-323.8" font-family="Times,serif" font-size="14.00" fill="white">2,807,107 row(s)/1,145 chunk(s)</text>
</g>
<!-- 281445573328912 -->
<g id="node7" class="node">
<title>281445573328912</title>
<g id="a_node7"><a xlink:title="Output: 75000000 rows in 1145 chunks filtered: 0, 2 ms 206 µs.">
<polygon fill="none" stroke="white" points="527,-133 396,-133 396,-19 527,-19 527,-133"/>
<text text-anchor="middle" x="461.5" y="-117.8" font-family="Times,serif" font-size="14.00" fill="white">GetTable</text>
<text text-anchor="middle" x="461.5" y="-102.8" font-family="Times,serif" font-size="14.00" fill="white">(orders)</text>
<text text-anchor="middle" x="461.5" y="-87.8" font-family="Times,serif" font-size="14.00" fill="white">pruned:</text>
<text text-anchor="middle" x="461.5" y="-72.8" font-family="Times,serif" font-size="14.00" fill="white">0/1145 chunk(s)</text>
<text text-anchor="middle" x="461.5" y="-57.8" font-family="Times,serif" font-size="14.00" fill="white">6/9 column(s)</text>
<text text-anchor="middle" x="461.5" y="-26.8" font-family="Times,serif" font-size="14.00" fill="white">2 ms 206 µs</text>
</a>
</g>
</g>
<!-- 281445573328912&#45;&gt;281445573001552 -->
<g id="edge7" class="edge">
<title>281445573328912&#45;&gt;281445573001552</title>
<path fill="none" stroke="white" stroke-width="4.58" d="M461.5,-133.17C461.5,-152.18 461.5,-173.44 461.5,-192.64"/>
<polygon fill="white" stroke="white" stroke-width="4.58" points="457.49,-192.77 461.5,-202.77 465.51,-192.77 457.49,-192.77"/>
<text text-anchor="middle" x="582" y="-173.8" font-family="Times,serif" font-size="14.00" fill="white">75,000,000 row(s)/1,145 chunk(s)</text>
</g>
<!-- 281445573002192 -->
<g id="node8" class="node">
<title>281445573002192</title>
<g id="a_node8"><a xlink:title="Output: 7098387 rows in 64 chunks filtered: 0, 64 ms 314 µs.&#10;Chunks: 0 skipped with no results, &#10;0 skipped with all matching, 0 scanned using binary search.">
<polygon fill="none" stroke="white" stroke-width="3.6" points="468,-827 241,-827 241,-743 468,-743 468,-827"/>
<text text-anchor="middle" x="354.5" y="-811.8" font-family="Times,serif" font-size="14.00" fill="white">TableScan</text>
<text text-anchor="middle" x="354.5" y="-796.8" font-family="Times,serif" font-size="14.00" fill="white">Impl: ColumnVsColumn</text>
<text text-anchor="middle" x="354.5" y="-781.8" font-family="Times,serif" font-size="14.00" fill="white">l_commitdate &lt; l_receiptdate</text>
<text text-anchor="middle" x="354.5" y="-750.8" font-family="Times,serif" font-size="14.00" fill="white">64 ms 314 µs</text>
</a>
</g>
</g>
<!-- 281445573002192&#45;&gt;281445573002512 -->
<g id="edge8" class="edge">
<title>281445573002192&#45;&gt;281445573002512</title>
<path fill="none" stroke="white" d="M351.1,-827C351.98,-838.52 354.83,-850.49 361.5,-860 364.21,-863.86 367.29,-867.44 370.65,-870.77"/>
<polygon fill="white" stroke="white" points="378.42,-877.62 373.24,-868.38 370.93,-871.01 378.42,-877.62"/>
<text text-anchor="middle" x="466.5" y="-848.8" font-family="Times,serif" font-size="14.00" fill="white">7,098,387 row(s)/64 chunk(s)</text>
</g>
<!-- 281445454971664 -->
<g id="node9" class="node">
<title>281445454971664</title>
<g id="a_node9"><a xlink:title="Output: 11230852 rows in 64 chunks filtered: 0, 15 ms 258 µs.">
<polygon fill="none" stroke="white" points="408,-692 295,-692 295,-638 408,-638 408,-692"/>
<text text-anchor="middle" x="351.5" y="-676.8" font-family="Times,serif" font-size="14.00" fill="white">Validate</text>
<text text-anchor="middle" x="351.5" y="-645.8" font-family="Times,serif" font-size="14.00" fill="white">15 ms 258 µs</text>
</a>
</g>
</g>
<!-- 281445454971664&#45;&gt;281445573002192 -->
<g id="edge9" class="edge">
<title>281445454971664&#45;&gt;281445573002192</title>
<path fill="none" stroke="white" d="M351.85,-692.14C352.01,-702.39 352.23,-714.25 352.5,-725 352.56,-727.51 352.63,-730.08 352.71,-732.68"/>
<polygon fill="white" stroke="white" points="349.21,-732.85 353.01,-742.74 356.21,-732.64 349.21,-732.85"/>
<text text-anchor="middle" x="462" y="-713.8" font-family="Times,serif" font-size="14.00" fill="white">11,230,852 row(s)/64 chunk(s)</text>
</g>
<!-- 281445573001872&#45;&gt;281445454971664 -->
<g id="edge10" class="edge">
<title>281445573001872&#45;&gt;281445454971664</title>
<path fill="none" stroke="white" d="M342.47,-587.25C343.98,-600.07 345.7,-614.73 347.24,-627.77"/>
<polygon fill="white" stroke="white" points="343.77,-628.29 348.42,-637.81 350.73,-627.47 343.77,-628.29"/>
<text text-anchor="middle" x="455" y="-608.8" font-family="Times,serif" font-size="14.00" fill="white">11,230,852 row(s)/64 chunk(s)</text>
</g>
<!-- 281445573329360 -->
<g id="node11" class="node">
<title>281445573329360</title>
<g id="a_node11"><a xlink:title="Output: 300005811 rows in 4578 chunks filtered: 0, 6 ms 314 µs.">
<polygon fill="none" stroke="white" points="131,-467 0,-467 0,-353 131,-353 131,-467"/>
<text text-anchor="middle" x="65.5" y="-451.8" font-family="Times,serif" font-size="14.00" fill="white">GetTable</text>
<text text-anchor="middle" x="65.5" y="-436.8" font-family="Times,serif" font-size="14.00" fill="white">(lineitem)</text>
<text text-anchor="middle" x="65.5" y="-421.8" font-family="Times,serif" font-size="14.00" fill="white">pruned:</text>
<text text-anchor="middle" x="65.5" y="-406.8" font-family="Times,serif" font-size="14.00" fill="white">0/4578 chunk(s)</text>
<text text-anchor="middle" x="65.5" y="-391.8" font-family="Times,serif" font-size="14.00" fill="white">13/16 column(s)</text>
<text text-anchor="middle" x="65.5" y="-360.8" font-family="Times,serif" font-size="14.00" fill="white">6 ms 314 µs</text>
</a>
</g>
</g>
<!-- 281445573329360&#45;&gt;281445573001872 -->
<g id="edge11" class="edge">
<title>281445573329360&#45;&gt;281445573001872</title>
<path fill="none" stroke="white" stroke-width="8" d="M64.05,-467.02C66.33,-479.2 70.94,-491.09 79.5,-500 95.47,-516.63 138.89,-528.14 185.71,-535.99"/>
<polygon fill="white" stroke="white" stroke-width="8" points="185.87,-536.02 184.75,-542.93 195.74,-537.61 185.87,-536.02"/>
<text text-anchor="middle" x="204.5" y="-488.8" font-family="Times,serif" font-size="14.00" fill="white">300,005,811 row(s)/4,578 chunk(s)</text>
</g>
<!-- 0 -->
<g id="node12" class="node">
<title>0</title>
<polygon fill="none" stroke="white" points="545,-0.5 545,-151.5 896,-151.5 896,-0.5 545,-0.5"/>
<text text-anchor="middle" x="720.5" y="-136.3" font-family="Times,serif" font-size="14.00" fill="white">Total by operator</text>
<polyline fill="none" stroke="white" points="545,-128.5 896,-128.5 "/>
<text text-anchor="end" x="704" y="-113.3" font-family="Times,serif" font-size="14.00" fill="white">AggregateHash </text>
<text text-anchor="end" x="704" y="-98.3" font-family="Times,serif" font-size="14.00" fill="white"> JoinSimdSortMerge </text>
<text text-anchor="end" x="704" y="-83.3" font-family="Times,serif" font-size="14.00" fill="white"> TableScan </text>
<text text-anchor="end" x="704" y="-68.3" font-family="Times,serif" font-size="14.00" fill="white"> Validate </text>
<text text-anchor="end" x="704" y="-53.3" font-family="Times,serif" font-size="14.00" fill="white"> GetTable </text>
<text text-anchor="end" x="704" y="-38.3" font-family="Times,serif" font-size="14.00" fill="white"> Sort </text>
<text text-anchor="end" x="704" y="-23.3" font-family="Times,serif" font-size="14.00" fill="white"> Alias </text>
<text text-anchor="end" x="704" y="-8.3" font-family="Times,serif" font-size="14.00" fill="white">total</text>
<polyline fill="none" stroke="white" points="712,-0.5 712,-128.5 "/>
<text text-anchor="start" x="720" y="-113.3" font-family="Times,serif" font-size="14.00" fill="white">382 ms 679 µs </text>
<text text-anchor="start" x="720" y="-98.3" font-family="Times,serif" font-size="14.00" fill="white"> 342 ms 78 µs </text>
<text text-anchor="start" x="720" y="-83.3" font-family="Times,serif" font-size="14.00" fill="white"> 67 ms 358 µs </text>
<text text-anchor="start" x="720" y="-68.3" font-family="Times,serif" font-size="14.00" fill="white"> 16 ms 899 µs </text>
<text text-anchor="start" x="720" y="-53.3" font-family="Times,serif" font-size="14.00" fill="white"> 8 ms 521 µs </text>
<text text-anchor="start" x="720" y="-38.3" font-family="Times,serif" font-size="14.00" fill="white"> 18 µs 849 ns </text>
<text text-anchor="start" x="720" y="-23.3" font-family="Times,serif" font-size="14.00" fill="white"> 3 µs 360 ns </text>
<text text-anchor="start" x="720" y="-8.3" font-family="Times,serif" font-size="14.00" fill="white"> 817 ms 557 µs </text>
<polyline fill="none" stroke="white" points="843,-0.5 843,-128.5 "/>
<text text-anchor="start" x="851" y="-113.3" font-family="Times,serif" font-size="14.00" fill="white">47 %</text>
<text text-anchor="start" x="851" y="-98.3" font-family="Times,serif" font-size="14.00" fill="white">42 %</text>
<text text-anchor="start" x="851" y="-83.3" font-family="Times,serif" font-size="14.00" fill="white">8 %</text>
<text text-anchor="start" x="851" y="-68.3" font-family="Times,serif" font-size="14.00" fill="white">2 %</text>
<text text-anchor="start" x="851" y="-53.3" font-family="Times,serif" font-size="14.00" fill="white">1 %</text>
<text text-anchor="start" x="851" y="-38.3" font-family="Times,serif" font-size="14.00" fill="white">0 %</text>
<text text-anchor="start" x="851" y="-23.3" font-family="Times,serif" font-size="14.00" fill="white">0 %</text>
<text text-anchor="start" x="851" y="-8.3" font-family="Times,serif" font-size="14.00" fill="white"> </text>
</g>
</g>
</svg>
