<?xml version="1.0" encoding="UTF-8" standalone="no"?>
<!DOCTYPE svg PUBLIC "-//W3C//DTD SVG 1.1//EN"
 "http://www.w3.org/Graphics/SVG/1.1/DTD/svg11.dtd">
<!-- Generated by graphviz version 2.43.0 (0)
 -->
<!-- Title: G Pages: 1 -->
<svg width="753pt" height="1220pt"
 viewBox="0.00 0.00 752.50 1220.00" xmlns="http://www.w3.org/2000/svg" xmlns:xlink="http://www.w3.org/1999/xlink">
<g id="graph0" class="graph" transform="scale(1 1) rotate(0) translate(4 1216)">
<title>G</title>
<polygon fill="black" stroke="transparent" points="-4,4 -4,-1216 748.5,-1216 748.5,4 -4,4"/>
<text text-anchor="middle" x="319.5" y="-1196.8" font-family="Times,serif" font-size="14.00" fill="white">For tooltips with advanced information, hover your mouse over vertices or edge labels.</text>
<!-- 132721686398992 -->
<g id="node1" class="node">
<title>132721686398992</title>
<g id="a_node1"><a xlink:title="Output: 46 rows in 1 chunk, 10 µs 618 ns.">
<polygon fill="none" stroke="white" points="255.5,-1157 108.5,-1157 108.5,-1088 255.5,-1088 255.5,-1157"/>
<text text-anchor="middle" x="182" y="-1141.8" font-family="Times,serif" font-size="14.00" fill="white">Alias</text>
<text text-anchor="middle" x="182" y="-1126.8" font-family="Times,serif" font-size="14.00" fill="white">[c_count, custdist]</text>
<text text-anchor="middle" x="182" y="-1095.8" font-family="Times,serif" font-size="14.00" fill="white">10 µs 618 ns</text>
</a>
</g>
</g>
<!-- 132721686398672 -->
<g id="node2" class="node">
<title>132721686398672</title>
<g id="a_node2"><a xlink:title="Output: 46 rows in 1 chunk, 60 µs 906 ns.&#10;Operator step runtimes:&#10; MaterializeSortColumns 28 µs 268 ns&#10; Sort 6 µs 980 ns&#10; TemporaryResultWriting 371 ns&#10; WriteOutput 19 µs 571 ns.">
<polygon fill="none" stroke="white" points="236,-1037 128,-1037 128,-983 236,-983 236,-1037"/>
<text text-anchor="middle" x="182" y="-1021.8" font-family="Times,serif" font-size="14.00" fill="white">Sort</text>
<text text-anchor="middle" x="182" y="-990.8" font-family="Times,serif" font-size="14.00" fill="white">60 µs 906 ns</text>
</a>
</g>
</g>
<!-- 132721686398672&#45;&gt;132721686398992 -->
<g id="edge1" class="edge">
<title>132721686398672&#45;&gt;132721686398992</title>
<path fill="none" stroke="white" d="M182,-1037.19C182,-1049.29 182,-1064 182,-1077.72"/>
<polygon fill="white" stroke="white" points="178.5,-1077.95 182,-1087.95 185.5,-1077.96 178.5,-1077.95"/>
<text text-anchor="middle" x="255.5" y="-1058.8" font-family="Times,serif" font-size="14.00" fill="white">46 row(s)/1 chunk(s)</text>
</g>
<!-- 132791222276624 -->
<g id="node3" class="node">
<title>132791222276624</title>
<g id="a_node3"><a xlink:title="Output: 46 rows in 1 chunk, 138 ms 571 µs.&#10;Operator step runtimes:&#10; GroupByKeyPartitioning 70 ms 223 µs&#10; Aggregating 68 ms 178 µs&#10; GroupByColumnsWriting 34 µs 721 ns&#10; AggregateColumnsWriting 23 µs 275 ns&#10; OutputWriting 17 µs 726 ns.">
<polygon fill="none" stroke="white" points="305,-932 59,-932 59,-848 305,-848 305,-932"/>
<text text-anchor="middle" x="182" y="-916.8" font-family="Times,serif" font-size="14.00" fill="white">AggregateHash</text>
<text text-anchor="middle" x="182" y="-901.8" font-family="Times,serif" font-size="14.00" fill="white">GroupBy {COUNT(o_orderkey)}</text>
<text text-anchor="middle" x="182" y="-886.8" font-family="Times,serif" font-size="14.00" fill="white">COUNT(*)</text>
<text text-anchor="middle" x="182" y="-855.8" font-family="Times,serif" font-size="14.00" fill="white">138 ms 571 µs</text>
</a>
</g>
</g>
<!-- 132791222276624&#45;&gt;132721686398672 -->
<g id="edge2" class="edge">
<title>132791222276624&#45;&gt;132721686398672</title>
<path fill="none" stroke="white" d="M182,-932.27C182,-945.36 182,-959.72 182,-972.45"/>
<polygon fill="white" stroke="white" points="178.5,-972.69 182,-982.69 185.5,-972.69 178.5,-972.69"/>
<text text-anchor="middle" x="255.5" y="-953.8" font-family="Times,serif" font-size="14.00" fill="white">46 row(s)/1 chunk(s)</text>
</g>
<!-- 132721686398352 -->
<g id="node4" class="node">
<title>132721686398352</title>
<g id="a_node4"><a xlink:title="Output: 7500000 rows in 115 chunks, 67 µs 6 ns.">
<polygon fill="none" stroke="white" points="260.5,-797 103.5,-797 103.5,-728 260.5,-728 260.5,-797"/>
<text text-anchor="middle" x="182" y="-781.8" font-family="Times,serif" font-size="14.00" fill="white">Alias</text>
<text text-anchor="middle" x="182" y="-766.8" font-family="Times,serif" font-size="14.00" fill="white">[c_custkey, c_count]</text>
<text text-anchor="middle" x="182" y="-735.8" font-family="Times,serif" font-size="14.00" fill="white">67 µs 6 ns</text>
</a>
</g>
</g>
<!-- 132721686398352&#45;&gt;132791222276624 -->
<g id="edge3" class="edge">
<title>132721686398352&#45;&gt;132791222276624</title>
<path fill="none" stroke="white" stroke-width="2.27" d="M182,-797.13C182,-809.51 182,-823.84 182,-837.44"/>
<polygon fill="white" stroke="white" stroke-width="2.27" points="178.5,-837.65 182,-847.65 185.5,-837.65 178.5,-837.65"/>
<text text-anchor="middle" x="291.5" y="-818.8" font-family="Times,serif" font-size="14.00" fill="white">7,500,000 row(s)/115 chunk(s)</text>
</g>
<!-- 132791222274576 -->
<g id="node5" class="node">
<title>132791222274576</title>
<g id="a_node5"><a xlink:title="Output: 7500000 rows in 115 chunks, 10 s 730 ms.&#10;Operator step runtimes:&#10; GroupByKeyPartitioning 699 ms 172 µs&#10; Aggregating 10 s 6 ms&#10; GroupByColumnsWriting 19 ms 997 µs&#10; AggregateColumnsWriting 4 ms 809 µs&#10; OutputWriting 174 µs 367 ns.">
<polygon fill="none" stroke="white" stroke-width="8" points="267.5,-677 96.5,-677 96.5,-593 267.5,-593 267.5,-677"/>
<text text-anchor="middle" x="182" y="-661.8" font-family="Times,serif" font-size="14.00" fill="white">AggregateHash</text>
<text text-anchor="middle" x="182" y="-646.8" font-family="Times,serif" font-size="14.00" fill="white">GroupBy {c_custkey}</text>
<text text-anchor="middle" x="182" y="-631.8" font-family="Times,serif" font-size="14.00" fill="white">COUNT(o_orderkey)</text>
<text text-anchor="middle" x="182" y="-600.8" font-family="Times,serif" font-size="14.00" fill="white">10 s 730 ms</text>
</a>
</g>
</g>
<!-- 132791222274576&#45;&gt;132721686398352 -->
<g id="edge4" class="edge">
<title>132791222274576&#45;&gt;132721686398352</title>
<path fill="none" stroke="white" stroke-width="2.27" d="M182,-677.09C182,-690.07 182,-704.45 182,-717.61"/>
<polygon fill="white" stroke="white" stroke-width="2.27" points="178.5,-717.85 182,-727.85 185.5,-717.85 178.5,-717.85"/>
<text text-anchor="middle" x="291.5" y="-698.8" font-family="Times,serif" font-size="14.00" fill="white">7,500,000 row(s)/115 chunk(s)</text>
</g>
<!-- 132721686398032 -->
<g id="node6" class="node">
<title>132721686398032</title>
<g id="a_node6"><a xlink:title="Output: 76696090 rows in 256 chunks, 514 ms 331 µs.&#10;Operator step runtimes:&#10; LeftSideMaterialize 1 ms 494 µs&#10; RightSideMaterialize 34 ms 845 µs&#10; LeftSideTransform 0 ns&#10; RightSideTransform 0 ns&#10; LeftSidePartition 4 ms 427 µs&#10; RightSidePartition 89 ms 208 µs&#10; LeftSideSortBuckets 6 ms 895 µs&#10; RightSideSortBuckets 59 ms 647 µs&#10; GatherRowIds 6 µs 533 ns&#10; FindJoinPartner 124 ms 654 µs&#10; OutputWriting 189 ms 336 µs.">
<polygon fill="none" stroke="white" points="282.5,-542 81.5,-542 81.5,-473 282.5,-473 282.5,-542"/>
<text text-anchor="middle" x="182" y="-526.8" font-family="Times,serif" font-size="14.00" fill="white">JoinSimdSortMerge (Left)</text>
<text text-anchor="middle" x="182" y="-511.8" font-family="Times,serif" font-size="14.00" fill="white">c_custkey = o_custkey</text>
<text text-anchor="middle" x="182" y="-480.8" font-family="Times,serif" font-size="14.00" fill="white">514 ms 331 µs</text>
</a>
</g>
</g>
<!-- 132721686398032&#45;&gt;132791222274576 -->
<g id="edge5" class="edge">
<title>132721686398032&#45;&gt;132791222274576</title>
<path fill="none" stroke="white" stroke-width="8" d="M182,-542.13C182,-554.51 182,-568.84 182,-582.44"/>
<polygon fill="white" stroke="white" stroke-width="8" points="175,-582.65 182,-592.65 189,-582.65 175,-582.65"/>
<text text-anchor="middle" x="296" y="-563.8" font-family="Times,serif" font-size="14.00" fill="white">76,696,090 row(s)/256 chunk(s)</text>
</g>
<!-- 132791222417424 -->
<g id="node7" class="node">
<title>132791222417424</title>
<g id="a_node7"><a xlink:title="Output: 7500000 rows in 115 chunks, 523 µs 51 ns.">
<polygon fill="none" stroke="white" points="115,-422 7,-422 7,-368 115,-368 115,-422"/>
<text text-anchor="middle" x="61" y="-406.8" font-family="Times,serif" font-size="14.00" fill="white">Validate</text>
<text text-anchor="middle" x="61" y="-375.8" font-family="Times,serif" font-size="14.00" fill="white">523 µs 51 ns</text>
</a>
</g>
</g>
<!-- 132791222417424&#45;&gt;132721686398032 -->
<g id="edge6" class="edge">
<title>132791222417424&#45;&gt;132721686398032</title>
<path fill="none" stroke="white" stroke-width="2.27" d="M56.03,-422.29C55.37,-433.26 56.59,-445.6 63,-455 66.05,-459.48 69.58,-463.57 73.47,-467.31"/>
<polygon fill="white" stroke="white" stroke-width="2.27" points="73.77,-467.56 71.5,-470.22 81.37,-474.07 73.77,-467.56"/>
<text text-anchor="middle" x="172.5" y="-443.8" font-family="Times,serif" font-size="14.00" fill="white">7,500,000 row(s)/115 chunk(s)</text>
</g>
<!-- 132645975837072 -->
<g id="node8" class="node">
<title>132645975837072</title>
<g id="a_node8"><a xlink:title="Output: 7500000 rows in 115 chunks, 224 µs 625 ns.">
<polygon fill="none" stroke="white" points="122,-317 0,-317 0,-203 122,-203 122,-317"/>
<text text-anchor="middle" x="61" y="-301.8" font-family="Times,serif" font-size="14.00" fill="white">GetTable</text>
<text text-anchor="middle" x="61" y="-286.8" font-family="Times,serif" font-size="14.00" fill="white">(customer)</text>
<text text-anchor="middle" x="61" y="-271.8" font-family="Times,serif" font-size="14.00" fill="white">pruned:</text>
<text text-anchor="middle" x="61" y="-256.8" font-family="Times,serif" font-size="14.00" fill="white">0/115 chunk(s)</text>
<text text-anchor="middle" x="61" y="-241.8" font-family="Times,serif" font-size="14.00" fill="white">7/8 column(s)</text>
<text text-anchor="middle" x="61" y="-210.8" font-family="Times,serif" font-size="14.00" fill="white">224 µs 625 ns</text>
</a>
</g>
</g>
<!-- 132645975837072&#45;&gt;132791222417424 -->
<g id="edge7" class="edge">
<title>132645975837072&#45;&gt;132791222417424</title>
<path fill="none" stroke="white" stroke-width="2.27" d="M61,-317.02C61,-330.77 61,-345.14 61,-357.69"/>
<polygon fill="white" stroke="white" stroke-width="2.27" points="57.5,-357.75 61,-367.75 64.5,-357.75 57.5,-357.75"/>
<text text-anchor="middle" x="170.5" y="-338.8" font-family="Times,serif" font-size="14.00" fill="white">7,500,000 row(s)/115 chunk(s)</text>
</g>
<!-- 132791222423824 -->
<g id="node9" class="node">
<title>132791222423824</title>
<g id="a_node9"><a xlink:title="Output: 74195970 rows in 1145 chunks, 2 ms 161 µs.">
<polygon fill="none" stroke="white" points="357,-422 253,-422 253,-368 357,-368 357,-422"/>
<text text-anchor="middle" x="305" y="-406.8" font-family="Times,serif" font-size="14.00" fill="white">Validate</text>
<text text-anchor="middle" x="305" y="-375.8" font-family="Times,serif" font-size="14.00" fill="white">2 ms 161 µs</text>
</a>
</g>
</g>
<!-- 132791222423824&#45;&gt;132721686398032 -->
<g id="edge8" class="edge">
<title>132791222423824&#45;&gt;132721686398032</title>
<path fill="none" stroke="white" stroke-width="7.92" d="M299.27,-422.02C295.77,-433.19 290.32,-445.77 282,-455 278.24,-459.17 274.07,-463.05 269.61,-466.66"/>
<polygon fill="white" stroke="white" stroke-width="7.92" points="261.33,-472.86 273.49,-472.41 269.34,-466.87 261.33,-472.86"/>
<text text-anchor="middle" x="412.5" y="-443.8" font-family="Times,serif" font-size="14.00" fill="white">74,195,970 row(s)/1,145 chunk(s)</text>
</g>
<!-- 132721686397712 -->
<g id="node10" class="node">
<title>132721686397712</title>
<g id="a_node10"><a xlink:title="Output: 74195970 rows in 1145 chunks, 183 ms 438 µs.&#10;Chunks: 0 skipped with no results, &#10;0 skipped with all matching, 0 scanned using binary search.">
<polygon fill="none" stroke="white" points="479.5,-302 140.5,-302 140.5,-218 479.5,-218 479.5,-302"/>
<text text-anchor="middle" x="310" y="-286.8" font-family="Times,serif" font-size="14.00" fill="white">TableScan</text>
<text text-anchor="middle" x="310" y="-271.8" font-family="Times,serif" font-size="14.00" fill="white">Impl: ColumnLike</text>
<text text-anchor="middle" x="310" y="-256.8" font-family="Times,serif" font-size="14.00" fill="white">o_comment NOT LIKE &#39;%special%accounts%&#39;</text>
<text text-anchor="middle" x="310" y="-225.8" font-family="Times,serif" font-size="14.00" fill="white">183 ms 438 µs</text>
</a>
</g>
</g>
<!-- 132721686397712&#45;&gt;132791222423824 -->
<g id="edge9" class="edge">
<title>132721686397712&#45;&gt;132791222423824</title>
<path fill="none" stroke="white" stroke-width="7.92" d="M308.45,-302.35C307.78,-320.03 307.01,-340.5 306.37,-357.6"/>
<polygon fill="white" stroke="white" stroke-width="7.92" points="299.44,-357.5 305.99,-367.75 313.29,-358.02 299.44,-357.5"/>
<text text-anchor="middle" x="427.5" y="-338.8" font-family="Times,serif" font-size="14.00" fill="white">74,195,970 row(s)/1,145 chunk(s)</text>
</g>
<!-- 132645975837520 -->
<g id="node11" class="node">
<title>132645975837520</title>
<g id="a_node11"><a xlink:title="Output: 75000000 rows in 1145 chunks, 2 ms 147 µs.">
<polygon fill="none" stroke="white" points="375.5,-133 244.5,-133 244.5,-19 375.5,-19 375.5,-133"/>
<text text-anchor="middle" x="310" y="-117.8" font-family="Times,serif" font-size="14.00" fill="white">GetTable</text>
<text text-anchor="middle" x="310" y="-102.8" font-family="Times,serif" font-size="14.00" fill="white">(orders)</text>
<text text-anchor="middle" x="310" y="-87.8" font-family="Times,serif" font-size="14.00" fill="white">pruned:</text>
<text text-anchor="middle" x="310" y="-72.8" font-family="Times,serif" font-size="14.00" fill="white">0/1145 chunk(s)</text>
<text text-anchor="middle" x="310" y="-57.8" font-family="Times,serif" font-size="14.00" fill="white">6/9 column(s)</text>
<text text-anchor="middle" x="310" y="-26.8" font-family="Times,serif" font-size="14.00" fill="white">2 ms 147 µs</text>
</a>
</g>
</g>
<!-- 132645975837520&#45;&gt;132721686397712 -->
<g id="edge10" class="edge">
<title>132645975837520&#45;&gt;132721686397712</title>
<path fill="none" stroke="white" stroke-width="7.94" d="M310,-133.09C310,-156.93 310,-184.53 310,-207.81"/>
<polygon fill="white" stroke="white" stroke-width="7.94" points="303.05,-207.83 310,-217.83 316.95,-207.83 303.05,-207.83"/>
<text text-anchor="middle" x="430.5" y="-173.8" font-family="Times,serif" font-size="14.00" fill="white">75,000,000 row(s)/1,145 chunk(s)</text>
</g>
<!-- 0 -->
<g id="node12" class="node">
<title>0</title>
<polygon fill="none" stroke="white" points="393.5,-0.5 393.5,-151.5 744.5,-151.5 744.5,-0.5 393.5,-0.5"/>
<text text-anchor="middle" x="569" y="-136.3" font-family="Times,serif" font-size="14.00" fill="white">Total by operator</text>
<polyline fill="none" stroke="white" points="393.5,-128.5 744.5,-128.5 "/>
<text text-anchor="end" x="552.5" y="-113.3" font-family="Times,serif" font-size="14.00" fill="white">AggregateHash </text>
<text text-anchor="end" x="552.5" y="-98.3" font-family="Times,serif" font-size="14.00" fill="white"> JoinSimdSortMerge </text>
<text text-anchor="end" x="552.5" y="-83.3" font-family="Times,serif" font-size="14.00" fill="white"> TableScan </text>
<text text-anchor="end" x="552.5" y="-68.3" font-family="Times,serif" font-size="14.00" fill="white"> Validate </text>
<text text-anchor="end" x="552.5" y="-53.3" font-family="Times,serif" font-size="14.00" fill="white"> GetTable </text>
<text text-anchor="end" x="552.5" y="-38.3" font-family="Times,serif" font-size="14.00" fill="white"> Alias </text>
<text text-anchor="end" x="552.5" y="-23.3" font-family="Times,serif" font-size="14.00" fill="white"> Sort </text>
<text text-anchor="end" x="552.5" y="-8.3" font-family="Times,serif" font-size="14.00" fill="white">total</text>
<polyline fill="none" stroke="white" points="560.5,-0.5 560.5,-128.5 "/>
<text text-anchor="start" x="568.5" y="-113.3" font-family="Times,serif" font-size="14.00" fill="white">10 s 869 ms </text>
<text text-anchor="start" x="568.5" y="-98.3" font-family="Times,serif" font-size="14.00" fill="white"> 514 ms 331 µs </text>
<text text-anchor="start" x="568.5" y="-83.3" font-family="Times,serif" font-size="14.00" fill="white"> 183 ms 438 µs </text>
<text text-anchor="start" x="568.5" y="-68.3" font-family="Times,serif" font-size="14.00" fill="white"> 2 ms 684 µs </text>
<text text-anchor="start" x="568.5" y="-53.3" font-family="Times,serif" font-size="14.00" fill="white"> 2 ms 371 µs </text>
<text text-anchor="start" x="568.5" y="-38.3" font-family="Times,serif" font-size="14.00" fill="white"> 77 µs 624 ns </text>
<text text-anchor="start" x="568.5" y="-23.3" font-family="Times,serif" font-size="14.00" fill="white"> 60 µs 906 ns </text>
<text text-anchor="start" x="568.5" y="-8.3" font-family="Times,serif" font-size="14.00" fill="white"> 11 s 572 ms </text>
<polyline fill="none" stroke="white" points="691.5,-0.5 691.5,-128.5 "/>
<text text-anchor="start" x="699.5" y="-113.3" font-family="Times,serif" font-size="14.00" fill="white">94 %</text>
<text text-anchor="start" x="699.5" y="-98.3" font-family="Times,serif" font-size="14.00" fill="white">4 %</text>
<text text-anchor="start" x="699.5" y="-83.3" font-family="Times,serif" font-size="14.00" fill="white">2 %</text>
<text text-anchor="start" x="699.5" y="-68.3" font-family="Times,serif" font-size="14.00" fill="white">0 %</text>
<text text-anchor="start" x="699.5" y="-53.3" font-family="Times,serif" font-size="14.00" fill="white">0 %</text>
<text text-anchor="start" x="699.5" y="-38.3" font-family="Times,serif" font-size="14.00" fill="white">0 %</text>
<text text-anchor="start" x="699.5" y="-23.3" font-family="Times,serif" font-size="14.00" fill="white">0 %</text>
<text text-anchor="start" x="699.5" y="-8.3" font-family="Times,serif" font-size="14.00" fill="white"> </text>
</g>
</g>
</svg>
