<?xml version="1.0" encoding="UTF-8" standalone="no"?>
<!DOCTYPE svg PUBLIC "-//W3C//DTD SVG 1.1//EN"
 "http://www.w3.org/Graphics/SVG/1.1/DTD/svg11.dtd">
<!-- Generated by graphviz version 2.43.0 (0)
 -->
<!-- Title: G Pages: 1 -->
<svg width="1378pt" height="2615pt"
 viewBox="0.00 0.00 1378.00 2615.00" xmlns="http://www.w3.org/2000/svg" xmlns:xlink="http://www.w3.org/1999/xlink">
<g id="graph0" class="graph" transform="scale(1 1) rotate(0) translate(4 2611)">
<title>G</title>
<polygon fill="black" stroke="transparent" points="-4,4 -4,-2611 1374,-2611 1374,4 -4,4"/>
<text text-anchor="middle" x="319.5" y="-2591.8" font-family="Times,serif" font-size="14.00" fill="white">For tooltips with advanced information, hover your mouse over vertices or edge labels.</text>
<!-- 132721749218576 -->
<g id="node1" class="node">
<title>132721749218576</title>
<g id="a_node1"><a xlink:title="Output: 5 rows in 1 chunk, 6 µs 840 ns.">
<polygon fill="none" stroke="white" points="906,-2552 757,-2552 757,-2483 906,-2483 906,-2552"/>
<text text-anchor="middle" x="831.5" y="-2536.8" font-family="Times,serif" font-size="14.00" fill="white">Alias</text>
<text text-anchor="middle" x="831.5" y="-2521.8" font-family="Times,serif" font-size="14.00" fill="white">[n_name, revenue]</text>
<text text-anchor="middle" x="831.5" y="-2490.8" font-family="Times,serif" font-size="14.00" fill="white">6 µs 840 ns</text>
</a>
</g>
</g>
<!-- 132721749218256 -->
<g id="node2" class="node">
<title>132721749218256</title>
<g id="a_node2"><a xlink:title="Output: 5 rows in 1 chunk, 32 µs 129 ns.&#10;Operator step runtimes:&#10; MaterializeSortColumns 6 µs 871 ns&#10; Sort 3 µs 807 ns&#10; TemporaryResultWriting 406 ns&#10; WriteOutput 16 µs 775 ns.">
<polygon fill="none" stroke="white" points="885.5,-2432 777.5,-2432 777.5,-2378 885.5,-2378 885.5,-2432"/>
<text text-anchor="middle" x="831.5" y="-2416.8" font-family="Times,serif" font-size="14.00" fill="white">Sort</text>
<text text-anchor="middle" x="831.5" y="-2385.8" font-family="Times,serif" font-size="14.00" fill="white">32 µs 129 ns</text>
</a>
</g>
</g>
<!-- 132721749218256&#45;&gt;132721749218576 -->
<g id="edge1" class="edge">
<title>132721749218256&#45;&gt;132721749218576</title>
<path fill="none" stroke="white" d="M831.5,-2432.19C831.5,-2444.29 831.5,-2459 831.5,-2472.72"/>
<polygon fill="white" stroke="white" points="828,-2472.95 831.5,-2482.95 835,-2472.96 828,-2472.95"/>
<text text-anchor="middle" x="900.5" y="-2453.8" font-family="Times,serif" font-size="14.00" fill="white">5 row(s)/1 chunk(s)</text>
</g>
<!-- 132791199148048 -->
<g id="node3" class="node">
<title>132791199148048</title>
<g id="a_node3"><a xlink:title="Output: 5 rows in 1 chunk, 21 ms 302 µs.&#10;Operator step runtimes:&#10; GroupByKeyPartitioning 16 ms 642 µs&#10; Aggregating 4 ms 599 µs&#10; GroupByColumnsWriting 15 µs 617 ns&#10; AggregateColumnsWriting 14 µs 695 ns&#10; OutputWriting 9 µs 943 ns.">
<polygon fill="none" stroke="white" points="980,-2327 683,-2327 683,-2243 980,-2243 980,-2327"/>
<text text-anchor="middle" x="831.5" y="-2311.8" font-family="Times,serif" font-size="14.00" fill="white">AggregateHash</text>
<text text-anchor="middle" x="831.5" y="-2296.8" font-family="Times,serif" font-size="14.00" fill="white">GroupBy {n_name}</text>
<text text-anchor="middle" x="831.5" y="-2281.8" font-family="Times,serif" font-size="14.00" fill="white">SUM(l_extendedprice * (1 &#45; l_discount))</text>
<text text-anchor="middle" x="831.5" y="-2250.8" font-family="Times,serif" font-size="14.00" fill="white">21 ms 302 µs</text>
</a>
</g>
</g>
<!-- 132791199148048&#45;&gt;132721749218256 -->
<g id="edge2" class="edge">
<title>132791199148048&#45;&gt;132721749218256</title>
<path fill="none" stroke="white" d="M831.5,-2327.27C831.5,-2340.36 831.5,-2354.72 831.5,-2367.45"/>
<polygon fill="white" stroke="white" points="828,-2367.69 831.5,-2377.69 835,-2367.69 828,-2367.69"/>
<text text-anchor="middle" x="900.5" y="-2348.8" font-family="Times,serif" font-size="14.00" fill="white">5 row(s)/1 chunk(s)</text>
</g>
<!-- 132721749217936 -->
<g id="node4" class="node">
<title>132721749217936</title>
<g id="a_node4"><a xlink:title="Output: 362110 rows in 256 chunks, 45 ms 373 µs.&#10;Operator step runtimes:&#10; ForwardUnmodifiedColumns 182 µs 317 ns&#10; EvaluateNewColumns 44 ms 678 µs&#10; BuildOutput 429 µs 779 ns.">
<polygon fill="none" stroke="white" stroke-width="1.02" points="888,-2192 775,-2192 775,-2138 888,-2138 888,-2192"/>
<text text-anchor="middle" x="831.5" y="-2176.8" font-family="Times,serif" font-size="14.00" fill="white">Projection</text>
<text text-anchor="middle" x="831.5" y="-2145.8" font-family="Times,serif" font-size="14.00" fill="white">45 ms 373 µs</text>
</a>
</g>
</g>
<!-- 132721749217936&#45;&gt;132791199148048 -->
<g id="edge3" class="edge">
<title>132721749217936&#45;&gt;132791199148048</title>
<path fill="none" stroke="white" d="M831.5,-2192.19C831.5,-2204.1 831.5,-2218.63 831.5,-2232.58"/>
<polygon fill="white" stroke="white" points="828,-2232.59 831.5,-2242.59 835,-2232.59 828,-2232.59"/>
<text text-anchor="middle" x="934" y="-2213.8" font-family="Times,serif" font-size="14.00" fill="white">362,110 row(s)/256 chunk(s)</text>
</g>
<!-- 132721749217616 -->
<g id="node5" class="node">
<title>132721749217616</title>
<g id="a_node5"><a xlink:title="Output: 362110 rows in 256 chunks, 22 ms 692 µs.&#10;Chunks: 0 skipped with no results, &#10;0 skipped with all matching, 0 scanned using binary search.">
<polygon fill="none" stroke="white" points="934.5,-2087 728.5,-2087 728.5,-2003 934.5,-2003 934.5,-2087"/>
<text text-anchor="middle" x="831.5" y="-2071.8" font-family="Times,serif" font-size="14.00" fill="white">TableScan</text>
<text text-anchor="middle" x="831.5" y="-2056.8" font-family="Times,serif" font-size="14.00" fill="white">Impl: ColumnVsColumn</text>
<text text-anchor="middle" x="831.5" y="-2041.8" font-family="Times,serif" font-size="14.00" fill="white">c_nationkey = s_nationkey</text>
<text text-anchor="middle" x="831.5" y="-2010.8" font-family="Times,serif" font-size="14.00" fill="white">22 ms 692 µs</text>
</a>
</g>
</g>
<!-- 132721749217616&#45;&gt;132721749217936 -->
<g id="edge4" class="edge">
<title>132721749217616&#45;&gt;132721749217936</title>
<path fill="none" stroke="white" d="M831.5,-2087.27C831.5,-2100.36 831.5,-2114.72 831.5,-2127.45"/>
<polygon fill="white" stroke="white" points="828,-2127.69 831.5,-2137.69 835,-2127.69 828,-2127.69"/>
<text text-anchor="middle" x="934" y="-2108.8" font-family="Times,serif" font-size="14.00" fill="white">362,110 row(s)/256 chunk(s)</text>
</g>
<!-- 132721749217296 -->
<g id="node6" class="node">
<title>132721749217296</title>
<g id="a_node6"><a xlink:title="Output: 9068471 rows in 256 chunks, 165 ms 784 µs.&#10;Operator step runtimes:&#10; LeftSideMaterialize 45 ms 609 µs&#10; RightSideMaterialize 1 ms 472 µs&#10; LeftSideTransform 0 ns&#10; RightSideTransform 0 ns&#10; LeftSidePartition 10 ms 822 µs&#10; RightSidePartition 4 ms 52 µs&#10; LeftSideSortBuckets 8 ms 455 µs&#10; RightSideSortBuckets 6 ms 938 µs&#10; GatherRowIds 4 µs 905 ns&#10; FindJoinPartner 29 ms 600 µs&#10; OutputWriting 57 ms 359 µs.">
<polygon fill="none" stroke="white" stroke-width="4.21" points="937,-1952 726,-1952 726,-1883 937,-1883 937,-1952"/>
<text text-anchor="middle" x="831.5" y="-1936.8" font-family="Times,serif" font-size="14.00" fill="white">JoinSimdSortMerge (Inner)</text>
<text text-anchor="middle" x="831.5" y="-1921.8" font-family="Times,serif" font-size="14.00" fill="white">o_custkey = c_custkey</text>
<text text-anchor="middle" x="831.5" y="-1890.8" font-family="Times,serif" font-size="14.00" fill="white">165 ms 784 µs</text>
</a>
</g>
</g>
<!-- 132721749217296&#45;&gt;132721749217616 -->
<g id="edge5" class="edge">
<title>132721749217296&#45;&gt;132721749217616</title>
<path fill="none" stroke="white" d="M831.5,-1952.13C831.5,-1964.51 831.5,-1978.84 831.5,-1992.44"/>
<polygon fill="white" stroke="white" points="828,-1992.65 831.5,-2002.65 835,-1992.65 828,-1992.65"/>
<text text-anchor="middle" x="941" y="-1973.8" font-family="Times,serif" font-size="14.00" fill="white">9,068,471 row(s)/256 chunk(s)</text>
</g>
<!-- 132721749216976 -->
<g id="node7" class="node">
<title>132721749216976</title>
<g id="a_node7"><a xlink:title="Output: 9068471 rows in 64 chunks, 291 ms 102 µs.&#10;Operator step runtimes:&#10; LeftSideMaterialize 138 ms 708 µs&#10; RightSideMaterialize 6 ms 707 µs&#10; LeftSideTransform 0 ns&#10; RightSideTransform 0 ns&#10; LeftSidePartition 8 ms 898 µs&#10; RightSidePartition 10 ms 438 µs&#10; LeftSideSortBuckets 9 ms 820 µs&#10; RightSideSortBuckets 11 ms 141 µs&#10; GatherRowIds 5 µs 407 ns&#10; FindJoinPartner 41 ms 580 µs&#10; OutputWriting 61 ms 927 µs.">
<polygon fill="none" stroke="white" stroke-width="5.6" points="817,-1832 606,-1832 606,-1763 817,-1763 817,-1832"/>
<text text-anchor="middle" x="711.5" y="-1816.8" font-family="Times,serif" font-size="14.00" fill="white">JoinSimdSortMerge (Inner)</text>
<text text-anchor="middle" x="711.5" y="-1801.8" font-family="Times,serif" font-size="14.00" fill="white">l_orderkey = o_orderkey</text>
<text text-anchor="middle" x="711.5" y="-1770.8" font-family="Times,serif" font-size="14.00" fill="white">291 ms 102 µs</text>
</a>
</g>
</g>
<!-- 132721749216976&#45;&gt;132721749217296 -->
<g id="edge6" class="edge">
<title>132721749216976&#45;&gt;132721749217296</title>
<path fill="none" stroke="white" d="M708.59,-1832.33C709.22,-1843.61 711.78,-1855.67 718.5,-1865 721.42,-1869.05 724.73,-1872.79 728.35,-1876.24"/>
<polygon fill="white" stroke="white" points="728.56,-1876.43 726.29,-1879.09 736.16,-1882.93 728.56,-1876.43"/>
<text text-anchor="middle" x="823.5" y="-1853.8" font-family="Times,serif" font-size="14.00" fill="white">9,068,471 row(s)/64 chunk(s)</text>
</g>
<!-- 132721749216656 -->
<g id="node8" class="node">
<title>132721749216656</title>
<g id="a_node8"><a xlink:title="Output: 9068471 rows in 256 chunks, 134 ms 342 µs.&#10;Operator step runtimes:&#10; LeftSideMaterialize 67 ms 502 µs&#10; RightSideMaterialize 369 µs 72 ns&#10; LeftSideTransform 0 ns&#10; RightSideTransform 0 ns&#10; LeftSidePartition 10 ms 762 µs&#10; RightSidePartition 2 ms 589 µs&#10; LeftSideSortBuckets 8 ms 477 µs&#10; RightSideSortBuckets 729 µs 736 ns&#10; GatherRowIds 963 ns&#10; FindJoinPartner 18 ms 963 µs&#10; OutputWriting 24 ms 122 µs.">
<polygon fill="none" stroke="white" stroke-width="3.69" points="846,-1689.5 635,-1689.5 635,-1620.5 846,-1620.5 846,-1689.5"/>
<text text-anchor="middle" x="740.5" y="-1674.3" font-family="Times,serif" font-size="14.00" fill="white">JoinSimdSortMerge (Inner)</text>
<text text-anchor="middle" x="740.5" y="-1659.3" font-family="Times,serif" font-size="14.00" fill="white">l_suppkey = s_suppkey</text>
<text text-anchor="middle" x="740.5" y="-1628.3" font-family="Times,serif" font-size="14.00" fill="white">134 ms 342 µs</text>
</a>
</g>
</g>
<!-- 132721749216656&#45;&gt;132721749216976 -->
<g id="edge7" class="edge">
<title>132721749216656&#45;&gt;132721749216976</title>
<path fill="none" stroke="white" d="M733.55,-1689.65C729.65,-1708.54 724.74,-1732.33 720.55,-1752.66"/>
<polygon fill="white" stroke="white" points="720.51,-1752.84 717.08,-1752.13 718.49,-1762.63 720.51,-1752.84"/>
<text text-anchor="middle" x="835" y="-1733.8" font-family="Times,serif" font-size="14.00" fill="white">9,068,471 row(s)/256 chunk(s)</text>
</g>
<!-- 132791199537424 -->
<g id="node9" class="node">
<title>132791199537424</title>
<g id="a_node9"><a xlink:title="Output: 9068471 rows in 64 chunks, 12 ms 952 µs.">
<polygon fill="none" stroke="white" points="797,-1547 684,-1547 684,-1493 797,-1493 797,-1547"/>
<text text-anchor="middle" x="740.5" y="-1531.8" font-family="Times,serif" font-size="14.00" fill="white">Validate</text>
<text text-anchor="middle" x="740.5" y="-1500.8" font-family="Times,serif" font-size="14.00" fill="white">12 ms 952 µs</text>
</a>
</g>
</g>
<!-- 132791199537424&#45;&gt;132721749216656 -->
<g id="edge8" class="edge">
<title>132791199537424&#45;&gt;132721749216656</title>
<path fill="none" stroke="white" d="M740.5,-1547.28C740.5,-1565.15 740.5,-1589.24 740.5,-1610"/>
<polygon fill="white" stroke="white" points="740.5,-1610.2 737,-1610.2 740.5,-1620.2 740.5,-1610.2"/>
<text text-anchor="middle" x="845.5" y="-1568.8" font-family="Times,serif" font-size="14.00" fill="white">9,068,471 row(s)/64 chunk(s)</text>
</g>
<!-- 132721749216336 -->
<g id="node10" class="node">
<title>132721749216336</title>
<g id="a_node10"><a xlink:title="Output: 9068471 rows in 64 chunks, 732 ms 541 µs.&#10;Operator step runtimes:&#10; LeftSideMaterialize 474 ms 321 µs&#10; RightSideMaterialize 6 ms 765 µs&#10; LeftSideTransform 0 ns&#10; RightSideTransform 0 ns&#10; LeftSidePartition 69 ms 271 µs&#10; RightSidePartition 11 ms 149 µs&#10; LeftSideSortBuckets 56 ms 986 µs&#10; RightSideSortBuckets 11 ms 611 µs&#10; GatherRowIds 3 µs 33 ns&#10; FindJoinPartner 78 ms 1 µs&#10; OutputWriting 22 ms 736 µs.">
<polygon fill="none" stroke="white" stroke-width="7.88" points="874,-1442 589,-1442 589,-1373 874,-1373 874,-1442"/>
<text text-anchor="middle" x="731.5" y="-1426.8" font-family="Times,serif" font-size="14.00" fill="white">JoinSimdSortMerge (Semi Reduction)</text>
<text text-anchor="middle" x="731.5" y="-1411.8" font-family="Times,serif" font-size="14.00" fill="white">l_orderkey = o_orderkey</text>
<text text-anchor="middle" x="731.5" y="-1380.8" font-family="Times,serif" font-size="14.00" fill="white">732 ms 541 µs</text>
</a>
</g>
</g>
<!-- 132721749216336&#45;&gt;132791199537424 -->
<g id="edge9" class="edge">
<title>132721749216336&#45;&gt;132791199537424</title>
<path fill="none" stroke="white" d="M734.25,-1442.25C735.29,-1455.07 736.49,-1469.73 737.55,-1482.77"/>
<polygon fill="white" stroke="white" points="734.07,-1483.13 738.37,-1492.81 741.04,-1482.56 734.07,-1483.13"/>
<text text-anchor="middle" x="842.5" y="-1463.8" font-family="Times,serif" font-size="14.00" fill="white">9,068,471 row(s)/64 chunk(s)</text>
</g>
<!-- 132721749215696 -->
<g id="node11" class="node">
<title>132721749215696</title>
<g id="a_node11"><a xlink:title="Output: 59736453 rows in 256 chunks, 770 ms 23 µs.&#10;Operator step runtimes:&#10; LeftSideMaterialize 81 ms 503 µs&#10; RightSideMaterialize 367 µs 902 ns&#10; LeftSideTransform 0 ns&#10; RightSideTransform 0 ns&#10; LeftSidePartition 366 ms 588 µs&#10; RightSidePartition 2 ms 535 µs&#10; LeftSideSortBuckets 232 ms 708 µs&#10; RightSideSortBuckets 759 µs 798 ns&#10; GatherRowIds 1 µs 758 ns&#10; FindJoinPartner 79 ms 620 µs&#10; OutputWriting 1 ms 315 µs.">
<polygon fill="none" stroke="white" stroke-width="8" points="874,-1322 589,-1322 589,-1253 874,-1253 874,-1322"/>
<text text-anchor="middle" x="731.5" y="-1306.8" font-family="Times,serif" font-size="14.00" fill="white">JoinSimdSortMerge (Semi Reduction)</text>
<text text-anchor="middle" x="731.5" y="-1291.8" font-family="Times,serif" font-size="14.00" fill="white">l_suppkey = s_suppkey</text>
<text text-anchor="middle" x="731.5" y="-1260.8" font-family="Times,serif" font-size="14.00" fill="white">770 ms 23 µs</text>
</a>
</g>
</g>
<!-- 132721749215696&#45;&gt;132721749216336 -->
<g id="edge10" class="edge">
<title>132721749215696&#45;&gt;132721749216336</title>
<path fill="none" stroke="white" stroke-width="4.02" d="M731.5,-1322.31C731.5,-1334.78 731.5,-1349.1 731.5,-1362.34"/>
<polygon fill="white" stroke="white" stroke-width="4.02" points="731.5,-1362.68 727.98,-1362.68 731.5,-1372.68 731.5,-1362.68"/>
<text text-anchor="middle" x="845.5" y="-1343.8" font-family="Times,serif" font-size="14.00" fill="white">59,736,453 row(s)/256 chunk(s)</text>
</g>
<!-- 132633662525840 -->
<g id="node12" class="node">
<title>132633662525840</title>
<g id="a_node12"><a xlink:title="Output: 300005811 rows in 4578 chunks, 14 ms 661 µs.">
<polygon fill="none" stroke="white" points="574,-1202 443,-1202 443,-1088 574,-1088 574,-1202"/>
<text text-anchor="middle" x="508.5" y="-1186.8" font-family="Times,serif" font-size="14.00" fill="white">GetTable</text>
<text text-anchor="middle" x="508.5" y="-1171.8" font-family="Times,serif" font-size="14.00" fill="white">(lineitem)</text>
<text text-anchor="middle" x="508.5" y="-1156.8" font-family="Times,serif" font-size="14.00" fill="white">pruned:</text>
<text text-anchor="middle" x="508.5" y="-1141.8" font-family="Times,serif" font-size="14.00" fill="white">0/4578 chunk(s)</text>
<text text-anchor="middle" x="508.5" y="-1126.8" font-family="Times,serif" font-size="14.00" fill="white">12/16 column(s)</text>
<text text-anchor="middle" x="508.5" y="-1095.8" font-family="Times,serif" font-size="14.00" fill="white">14 ms 661 µs</text>
</a>
</g>
</g>
<!-- 132633662525840&#45;&gt;132721749215696 -->
<g id="edge11" class="edge">
<title>132633662525840&#45;&gt;132721749215696</title>
<path fill="none" stroke="white" stroke-width="8" d="M503.31,-1202.43C504.85,-1214.31 508.69,-1225.96 516.5,-1235 526.36,-1246.41 550.45,-1255.68 579.08,-1263.03"/>
<polygon fill="white" stroke="white" stroke-width="8" points="579.24,-1263.07 577.57,-1269.87 588.95,-1265.45 579.24,-1263.07"/>
<text text-anchor="middle" x="641.5" y="-1223.8" font-family="Times,serif" font-size="14.00" fill="white">300,005,811 row(s)/4,578 chunk(s)</text>
</g>
<!-- 132721749215376 -->
<g id="node13" class="node">
<title>132721749215376</title>
<g id="a_node13"><a xlink:title="Output: 99566 rows in 5 chunks, 4 ms 611 µs.&#10;Operator step runtimes:&#10; LeftSideMaterialize 302 µs 942 ns&#10; RightSideMaterialize 12 µs 535 ns&#10; LeftSideTransform 0 ns&#10; RightSideTransform 0 ns&#10; LeftSidePartition 1 ms 15 µs&#10; RightSidePartition 32 µs 525 ns&#10; LeftSideSortBuckets 738 µs 697 ns&#10; RightSideSortBuckets 750 µs 262 ns&#10; GatherRowIds 1 µs 123 ns&#10; FindJoinPartner 1 ms 232 µs&#10; OutputWriting 409 µs 432 ns.">
<polygon fill="none" stroke="white" points="983,-1179.5 772,-1179.5 772,-1110.5 983,-1110.5 983,-1179.5"/>
<text text-anchor="middle" x="877.5" y="-1164.3" font-family="Times,serif" font-size="14.00" fill="white">JoinSimdSortMerge (Inner)</text>
<text text-anchor="middle" x="877.5" y="-1149.3" font-family="Times,serif" font-size="14.00" fill="white">s_nationkey = n_nationkey</text>
<text text-anchor="middle" x="877.5" y="-1118.3" font-family="Times,serif" font-size="14.00" fill="white">4 ms 611 µs</text>
</a>
</g>
</g>
<!-- 132721749215376&#45;&gt;132721749216656 -->
<g id="edge13" class="edge">
<title>132721749215376&#45;&gt;132721749216656</title>
<path fill="none" stroke="white" d="M925.52,-1179.65C938.66,-1191.05 951.69,-1204.8 960.5,-1220 975.64,-1246.13 974.5,-1256.3 974.5,-1286.5 974.5,-1286.5 974.5,-1286.5 974.5,-1521 974.5,-1548.69 974.83,-1561.21 954.5,-1580 930.6,-1602.1 914.49,-1588.05 883.5,-1598 866.26,-1603.54 848.1,-1610.08 830.72,-1616.7"/>
<polygon fill="white" stroke="white" points="821.16,-1620.38 831.75,-1620.06 830.49,-1616.79 821.16,-1620.38"/>
<text text-anchor="middle" x="1063.5" y="-1403.8" font-family="Times,serif" font-size="14.00" fill="white">99,566 row(s)/5 chunk(s)</text>
</g>
<!-- 132721749215376&#45;&gt;132721749215696 -->
<g id="edge12" class="edge">
<title>132721749215376&#45;&gt;132721749215696</title>
<path fill="none" stroke="white" d="M829.61,-1179.52C813.88,-1191.5 796.79,-1205.61 782.5,-1220 774.97,-1227.59 767.55,-1236.31 760.81,-1244.87"/>
<polygon fill="white" stroke="white" points="754.58,-1253 763.44,-1247.2 760.67,-1245.07 754.58,-1253"/>
<text text-anchor="middle" x="871.5" y="-1223.8" font-family="Times,serif" font-size="14.00" fill="white">99,566 row(s)/5 chunk(s)</text>
</g>
<!-- 132791199534352 -->
<g id="node14" class="node">
<title>132791199534352</title>
<g id="a_node14"><a xlink:title="Output: 99566 rows in 5 chunks, 376 µs 432 ns.">
<polygon fill="none" stroke="white" points="1060,-1007 943,-1007 943,-953 1060,-953 1060,-1007"/>
<text text-anchor="middle" x="1001.5" y="-991.8" font-family="Times,serif" font-size="14.00" fill="white">Validate</text>
<text text-anchor="middle" x="1001.5" y="-960.8" font-family="Times,serif" font-size="14.00" fill="white">376 µs 432 ns</text>
</a>
</g>
</g>
<!-- 132791199534352&#45;&gt;132721749215376 -->
<g id="edge14" class="edge">
<title>132791199534352&#45;&gt;132721749215376</title>
<path fill="none" stroke="white" d="M981.58,-1007.19C962.12,-1032.77 932.18,-1072.12 909.4,-1102.06"/>
<polygon fill="white" stroke="white" points="909.24,-1102.28 906.45,-1100.16 903.18,-1110.24 909.24,-1102.28"/>
<text text-anchor="middle" x="1031.5" y="-1058.8" font-family="Times,serif" font-size="14.00" fill="white">99,566 row(s)/5 chunk(s)</text>
</g>
<!-- 132721749215056 -->
<g id="node15" class="node">
<title>132721749215056</title>
<g id="a_node15"><a xlink:title="Output: 99566 rows in 5 chunks, 12 ms 576 µs.&#10;Operator step runtimes:&#10; LeftSideMaterialize 359 µs 193 ns&#10; RightSideMaterialize 3 µs 560 ns&#10; LeftSideTransform 0 ns&#10; RightSideTransform 0 ns&#10; LeftSidePartition 8 ms 895 µs&#10; RightSidePartition 33 µs 693 ns&#10; LeftSideSortBuckets 624 µs 566 ns&#10; RightSideSortBuckets 1 ms 827 µs&#10; GatherRowIds 1 µs 125 ns&#10; FindJoinPartner 602 µs 404 ns&#10; OutputWriting 75 µs 527 ns.">
<polygon fill="none" stroke="white" points="1170,-872 885,-872 885,-803 1170,-803 1170,-872"/>
<text text-anchor="middle" x="1027.5" y="-856.8" font-family="Times,serif" font-size="14.00" fill="white">JoinSimdSortMerge (Semi Reduction)</text>
<text text-anchor="middle" x="1027.5" y="-841.8" font-family="Times,serif" font-size="14.00" fill="white">s_nationkey = n_nationkey</text>
<text text-anchor="middle" x="1027.5" y="-810.8" font-family="Times,serif" font-size="14.00" fill="white">12 ms 576 µs</text>
</a>
</g>
</g>
<!-- 132721749215056&#45;&gt;132791199534352 -->
<g id="edge15" class="edge">
<title>132721749215056&#45;&gt;132791199534352</title>
<path fill="none" stroke="white" d="M1021.27,-872.15C1017.33,-893.46 1012.23,-920.99 1008.2,-942.78"/>
<polygon fill="white" stroke="white" points="1004.76,-942.18 1006.38,-952.65 1011.64,-943.45 1004.76,-942.18"/>
<text text-anchor="middle" x="1106.5" y="-893.8" font-family="Times,serif" font-size="14.00" fill="white">99,566 row(s)/5 chunk(s)</text>
</g>
<!-- 132633662526288 -->
<g id="node16" class="node">
<title>132633662526288</title>
<g id="a_node16"><a xlink:title="Output: 500000 rows in 8 chunks, 28 µs 303 ns.">
<polygon fill="none" stroke="white" points="1107,-752 994,-752 994,-638 1107,-638 1107,-752"/>
<text text-anchor="middle" x="1050.5" y="-736.8" font-family="Times,serif" font-size="14.00" fill="white">GetTable</text>
<text text-anchor="middle" x="1050.5" y="-721.8" font-family="Times,serif" font-size="14.00" fill="white">(supplier)</text>
<text text-anchor="middle" x="1050.5" y="-706.8" font-family="Times,serif" font-size="14.00" fill="white">pruned:</text>
<text text-anchor="middle" x="1050.5" y="-691.8" font-family="Times,serif" font-size="14.00" fill="white">0/8 chunk(s)</text>
<text text-anchor="middle" x="1050.5" y="-676.8" font-family="Times,serif" font-size="14.00" fill="white">5/7 column(s)</text>
<text text-anchor="middle" x="1050.5" y="-645.8" font-family="Times,serif" font-size="14.00" fill="white">28 µs 303 ns</text>
</a>
</g>
</g>
<!-- 132633662526288&#45;&gt;132721749215056 -->
<g id="edge16" class="edge">
<title>132633662526288&#45;&gt;132721749215056</title>
<path fill="none" stroke="white" d="M1041.28,-752.34C1039.07,-765.83 1036.74,-780.04 1034.64,-792.86"/>
<polygon fill="white" stroke="white" points="1034.63,-792.93 1031.18,-792.37 1033.02,-802.8 1034.63,-792.93"/>
<text text-anchor="middle" x="1131" y="-773.8" font-family="Times,serif" font-size="14.00" fill="white">500,000 row(s)/8 chunk(s)</text>
</g>
<!-- 132791199536400 -->
<g id="node17" class="node">
<title>132791199536400</title>
<g id="a_node17"><a xlink:title="Output: 5 rows in 1 chunk, 4 µs 152 ns.">
<polygon fill="none" stroke="white" points="923,-722 824,-722 824,-668 923,-668 923,-722"/>
<text text-anchor="middle" x="873.5" y="-706.8" font-family="Times,serif" font-size="14.00" fill="white">Validate</text>
<text text-anchor="middle" x="873.5" y="-675.8" font-family="Times,serif" font-size="14.00" fill="white">4 µs 152 ns</text>
</a>
</g>
</g>
<!-- 132791199536400&#45;&gt;132721749215376 -->
<g id="edge18" class="edge">
<title>132791199536400&#45;&gt;132721749215376</title>
<path fill="none" stroke="white" d="M873.32,-722.04C873.08,-759.28 872.65,-829.88 872.5,-890 872.31,-963.71 874.5,-1049.42 876.04,-1100.06"/>
<polygon fill="white" stroke="white" points="876.36,-1110.31 879.55,-1100.21 876.05,-1100.32 876.36,-1110.31"/>
<text text-anchor="middle" x="941.5" y="-893.8" font-family="Times,serif" font-size="14.00" fill="white">5 row(s)/1 chunk(s)</text>
</g>
<!-- 132791199536400&#45;&gt;132721749215056 -->
<g id="edge17" class="edge">
<title>132791199536400&#45;&gt;132721749215056</title>
<path fill="none" stroke="white" d="M873.07,-722.29C874.13,-741.74 878.59,-767.74 893.5,-785 897.17,-789.24 901.22,-793.14 905.57,-796.71"/>
<polygon fill="white" stroke="white" points="913.7,-802.81 907.8,-794.01 905.7,-796.81 913.7,-802.81"/>
<text text-anchor="middle" x="962.5" y="-773.8" font-family="Times,serif" font-size="14.00" fill="white">5 row(s)/1 chunk(s)</text>
</g>
<!-- 132721749214736 -->
<g id="node18" class="node">
<title>132721749214736</title>
<g id="a_node18"><a xlink:title="Output: 5 rows in 1 chunk, 1 ms 632 µs.&#10;Operator step runtimes:&#10; LeftSideMaterialize 10 µs 437 ns&#10; RightSideMaterialize 6 µs 699 ns&#10; LeftSideTransform 0 ns&#10; RightSideTransform 0 ns&#10; LeftSidePartition 46 µs 435 ns&#10; RightSidePartition 20 µs 447 ns&#10; LeftSideSortBuckets 653 µs 908 ns&#10; RightSideSortBuckets 685 µs 205 ns&#10; GatherRowIds 1 µs 848 ns&#10; FindJoinPartner 16 µs 525 ns&#10; OutputWriting 37 µs 350 ns.">
<polygon fill="none" stroke="white" points="978,-587 769,-587 769,-518 978,-518 978,-587"/>
<text text-anchor="middle" x="873.5" y="-571.8" font-family="Times,serif" font-size="14.00" fill="white">JoinSimdSortMerge (Semi)</text>
<text text-anchor="middle" x="873.5" y="-556.8" font-family="Times,serif" font-size="14.00" fill="white">n_regionkey = r_regionkey</text>
<text text-anchor="middle" x="873.5" y="-525.8" font-family="Times,serif" font-size="14.00" fill="white">1 ms 632 µs</text>
</a>
</g>
</g>
<!-- 132721749214736&#45;&gt;132791199536400 -->
<g id="edge19" class="edge">
<title>132721749214736&#45;&gt;132791199536400</title>
<path fill="none" stroke="white" d="M873.5,-587.15C873.5,-608.36 873.5,-635.75 873.5,-657.48"/>
<polygon fill="white" stroke="white" points="870,-657.65 873.5,-667.65 877,-657.65 870,-657.65"/>
<text text-anchor="middle" x="942.5" y="-608.8" font-family="Times,serif" font-size="14.00" fill="white">5 row(s)/1 chunk(s)</text>
</g>
<!-- 132633662526736 -->
<g id="node19" class="node">
<title>132633662526736</title>
<g id="a_node19"><a xlink:title="Output: 25 rows in 1 chunk, 14 µs 904 ns.">
<polygon fill="none" stroke="white" points="845,-467 732,-467 732,-353 845,-353 845,-467"/>
<text text-anchor="middle" x="788.5" y="-451.8" font-family="Times,serif" font-size="14.00" fill="white">GetTable</text>
<text text-anchor="middle" x="788.5" y="-436.8" font-family="Times,serif" font-size="14.00" fill="white">(nation)</text>
<text text-anchor="middle" x="788.5" y="-421.8" font-family="Times,serif" font-size="14.00" fill="white">pruned:</text>
<text text-anchor="middle" x="788.5" y="-406.8" font-family="Times,serif" font-size="14.00" fill="white">0/1 chunk(s)</text>
<text text-anchor="middle" x="788.5" y="-391.8" font-family="Times,serif" font-size="14.00" fill="white">1/4 column(s)</text>
<text text-anchor="middle" x="788.5" y="-360.8" font-family="Times,serif" font-size="14.00" fill="white">14 µs 904 ns</text>
</a>
</g>
</g>
<!-- 132633662526736&#45;&gt;132721749214736 -->
<g id="edge20" class="edge">
<title>132633662526736&#45;&gt;132721749214736</title>
<path fill="none" stroke="white" d="M780.77,-467.38C781.46,-478.74 783.93,-490.19 789.5,-500 791.64,-503.77 794.17,-507.29 797.01,-510.59"/>
<polygon fill="white" stroke="white" points="797.13,-510.71 794.62,-513.15 804.11,-517.86 797.13,-510.71"/>
<text text-anchor="middle" x="863" y="-488.8" font-family="Times,serif" font-size="14.00" fill="white">25 row(s)/1 chunk(s)</text>
</g>
<!-- 132791199536912 -->
<g id="node20" class="node">
<title>132791199536912</title>
<g id="a_node20"><a xlink:title="Output: 1 row in 1 chunk, 10 µs 910 ns.">
<polygon fill="none" stroke="white" points="1012.5,-437 904.5,-437 904.5,-383 1012.5,-383 1012.5,-437"/>
<text text-anchor="middle" x="958.5" y="-421.8" font-family="Times,serif" font-size="14.00" fill="white">Validate</text>
<text text-anchor="middle" x="958.5" y="-390.8" font-family="Times,serif" font-size="14.00" fill="white">10 µs 910 ns</text>
</a>
</g>
</g>
<!-- 132791199536912&#45;&gt;132721749214736 -->
<g id="edge21" class="edge">
<title>132791199536912&#45;&gt;132721749214736</title>
<path fill="none" stroke="white" d="M956.43,-437.26C953.95,-455.96 948.5,-481.03 936.5,-500 934.21,-503.63 931.57,-507.12 928.7,-510.45"/>
<polygon fill="white" stroke="white" points="921.66,-517.95 931.06,-513.06 928.51,-510.66 921.66,-517.95"/>
<text text-anchor="middle" x="1011.5" y="-488.8" font-family="Times,serif" font-size="14.00" fill="white">1 row(s)/1 chunk(s)</text>
</g>
<!-- 132721749214416 -->
<g id="node21" class="node">
<title>132721749214416</title>
<g id="a_node21"><a xlink:title="Output: 1 row in 1 chunk, 40 µs 186 ns.&#10;Chunks: 0 skipped with no results, &#10;0 skipped with all matching, 0 scanned using binary search.">
<polygon fill="none" stroke="white" points="1043,-302 874,-302 874,-218 1043,-218 1043,-302"/>
<text text-anchor="middle" x="958.5" y="-286.8" font-family="Times,serif" font-size="14.00" fill="white">TableScan</text>
<text text-anchor="middle" x="958.5" y="-271.8" font-family="Times,serif" font-size="14.00" fill="white">Impl: ColumnVsValue</text>
<text text-anchor="middle" x="958.5" y="-256.8" font-family="Times,serif" font-size="14.00" fill="white">r_name = &#39;AFRICA&#39;</text>
<text text-anchor="middle" x="958.5" y="-225.8" font-family="Times,serif" font-size="14.00" fill="white">40 µs 186 ns</text>
</a>
</g>
</g>
<!-- 132721749214416&#45;&gt;132791199536912 -->
<g id="edge22" class="edge">
<title>132721749214416&#45;&gt;132791199536912</title>
<path fill="none" stroke="white" d="M958.5,-302.23C958.5,-324.32 958.5,-351.31 958.5,-372.62"/>
<polygon fill="white" stroke="white" points="955,-372.88 958.5,-382.88 962,-372.88 955,-372.88"/>
<text text-anchor="middle" x="1027.5" y="-323.8" font-family="Times,serif" font-size="14.00" fill="white">1 row(s)/1 chunk(s)</text>
</g>
<!-- 132633662527184 -->
<g id="node22" class="node">
<title>132633662527184</title>
<g id="a_node22"><a xlink:title="Output: 5 rows in 1 chunk, 17 µs 371 ns.">
<polygon fill="none" stroke="white" points="1015,-140.5 902,-140.5 902,-26.5 1015,-26.5 1015,-140.5"/>
<text text-anchor="middle" x="958.5" y="-125.3" font-family="Times,serif" font-size="14.00" fill="white">GetTable</text>
<text text-anchor="middle" x="958.5" y="-110.3" font-family="Times,serif" font-size="14.00" fill="white">(region)</text>
<text text-anchor="middle" x="958.5" y="-95.3" font-family="Times,serif" font-size="14.00" fill="white">pruned:</text>
<text text-anchor="middle" x="958.5" y="-80.3" font-family="Times,serif" font-size="14.00" fill="white">0/1 chunk(s)</text>
<text text-anchor="middle" x="958.5" y="-65.3" font-family="Times,serif" font-size="14.00" fill="white">1/3 column(s)</text>
<text text-anchor="middle" x="958.5" y="-34.3" font-family="Times,serif" font-size="14.00" fill="white">17 µs 371 ns</text>
</a>
</g>
</g>
<!-- 132633662527184&#45;&gt;132721749214416 -->
<g id="edge23" class="edge">
<title>132633662527184&#45;&gt;132721749214416</title>
<path fill="none" stroke="white" d="M958.5,-140.67C958.5,-162.25 958.5,-186.74 958.5,-207.83"/>
<polygon fill="white" stroke="white" points="955,-207.87 958.5,-217.87 962,-207.87 955,-207.87"/>
<text text-anchor="middle" x="1027.5" y="-188.8" font-family="Times,serif" font-size="14.00" fill="white">5 row(s)/1 chunk(s)</text>
</g>
<!-- 132791199538960 -->
<g id="node23" class="node">
<title>132791199538960</title>
<g id="a_node23"><a xlink:title="Output: 11380211 rows in 1145 chunks, 2 ms 360 µs.">
<polygon fill="none" stroke="white" points="476.5,-1314.5 372.5,-1314.5 372.5,-1260.5 476.5,-1260.5 476.5,-1314.5"/>
<text text-anchor="middle" x="424.5" y="-1299.3" font-family="Times,serif" font-size="14.00" fill="white">Validate</text>
<text text-anchor="middle" x="424.5" y="-1268.3" font-family="Times,serif" font-size="14.00" fill="white">2 ms 360 µs</text>
</a>
</g>
</g>
<!-- 132791199538960&#45;&gt;132721749216976 -->
<g id="edge25" class="edge">
<title>132791199538960&#45;&gt;132721749216976</title>
<path fill="none" stroke="white" d="M424.5,-1314.75C424.5,-1338.66 424.5,-1374.95 424.5,-1406.5 424.5,-1406.5 424.5,-1406.5 424.5,-1656 424.5,-1736.2 516.02,-1770.63 595.7,-1785.4"/>
<polygon fill="white" stroke="white" points="605.85,-1787.19 596.61,-1782.01 596.01,-1785.45 605.85,-1787.19"/>
<text text-anchor="middle" x="545" y="-1516.3" font-family="Times,serif" font-size="14.00" fill="white">11,380,211 row(s)/1,145 chunk(s)</text>
</g>
<!-- 132791199538960&#45;&gt;132721749216336 -->
<g id="edge24" class="edge">
<title>132791199538960&#45;&gt;132721749216336</title>
<path fill="none" stroke="white" d="M442.56,-1314.63C453.65,-1328.7 469.04,-1345.15 486.5,-1355 514.63,-1370.87 547.07,-1381.87 578.95,-1389.49"/>
<polygon fill="white" stroke="white" points="588.83,-1391.74 579.86,-1386.1 579.08,-1389.52 588.83,-1391.74"/>
<text text-anchor="middle" x="607" y="-1343.8" font-family="Times,serif" font-size="14.00" fill="white">11,380,211 row(s)/1,145 chunk(s)</text>
</g>
<!-- 132721749216016 -->
<g id="node24" class="node">
<title>132721749216016</title>
<g id="a_node24"><a xlink:title="Output: 11380211 rows in 1145 chunks, 8 ms 645 µs.&#10;Chunks: 0 skipped with no results, &#10;0 skipped with all matching, 0 scanned using binary search.">
<polygon fill="none" stroke="white" points="425,-1194.5 0,-1194.5 0,-1095.5 425,-1095.5 425,-1194.5"/>
<text text-anchor="middle" x="212.5" y="-1179.3" font-family="Times,serif" font-size="14.00" fill="white">TableScan</text>
<text text-anchor="middle" x="212.5" y="-1164.3" font-family="Times,serif" font-size="14.00" fill="white">Impl: ColumnBetween</text>
<text text-anchor="middle" x="212.5" y="-1149.3" font-family="Times,serif" font-size="14.00" fill="white">o_orderdate BETWEEN UPPER EXCLUSIVE &#39;1994&#45;01&#45;01&#39;</text>
<text text-anchor="middle" x="212.5" y="-1134.3" font-family="Times,serif" font-size="14.00" fill="white">AND &#39;1995&#45;01&#45;01&#39;</text>
<text text-anchor="middle" x="212.5" y="-1103.3" font-family="Times,serif" font-size="14.00" fill="white">8 ms 645 µs</text>
</a>
</g>
</g>
<!-- 132721749216016&#45;&gt;132791199538960 -->
<g id="edge26" class="edge">
<title>132721749216016&#45;&gt;132791199538960</title>
<path fill="none" stroke="white" d="M221.62,-1194.69C226.52,-1209.35 234.02,-1224.35 245.5,-1235 277.05,-1264.27 324.19,-1277.03 362.17,-1282.53"/>
<polygon fill="white" stroke="white" points="361.74,-1286 372.11,-1283.84 362.65,-1279.06 361.74,-1286"/>
<text text-anchor="middle" x="366" y="-1223.8" font-family="Times,serif" font-size="14.00" fill="white">11,380,211 row(s)/1,145 chunk(s)</text>
</g>
<!-- 132633662527632 -->
<g id="node25" class="node">
<title>132633662527632</title>
<g id="a_node25"><a xlink:title="Output: 75000000 rows in 1145 chunks, 3 ms 31 µs.">
<polygon fill="none" stroke="white" points="278,-1037 147,-1037 147,-923 278,-923 278,-1037"/>
<text text-anchor="middle" x="212.5" y="-1021.8" font-family="Times,serif" font-size="14.00" fill="white">GetTable</text>
<text text-anchor="middle" x="212.5" y="-1006.8" font-family="Times,serif" font-size="14.00" fill="white">(orders)</text>
<text text-anchor="middle" x="212.5" y="-991.8" font-family="Times,serif" font-size="14.00" fill="white">pruned:</text>
<text text-anchor="middle" x="212.5" y="-976.8" font-family="Times,serif" font-size="14.00" fill="white">0/1145 chunk(s)</text>
<text text-anchor="middle" x="212.5" y="-961.8" font-family="Times,serif" font-size="14.00" fill="white">6/9 column(s)</text>
<text text-anchor="middle" x="212.5" y="-930.8" font-family="Times,serif" font-size="14.00" fill="white">3 ms 31 µs</text>
</a>
</g>
</g>
<!-- 132633662527632&#45;&gt;132721749216016 -->
<g id="edge27" class="edge">
<title>132633662527632&#45;&gt;132721749216016</title>
<path fill="none" stroke="white" stroke-width="4.58" d="M212.5,-1037.1C212.5,-1052.66 212.5,-1069.59 212.5,-1085.3"/>
<polygon fill="white" stroke="white" stroke-width="4.58" points="208.49,-1085.42 212.5,-1095.42 216.51,-1085.42 208.49,-1085.42"/>
<text text-anchor="middle" x="333" y="-1058.8" font-family="Times,serif" font-size="14.00" fill="white">75,000,000 row(s)/1,145 chunk(s)</text>
</g>
<!-- 132791199537680 -->
<g id="node26" class="node">
<title>132791199537680</title>
<g id="a_node26"><a xlink:title="Output: 7500000 rows in 115 chunks, 628 µs 375 ns.">
<polygon fill="none" stroke="white" points="1010,-1824.5 893,-1824.5 893,-1770.5 1010,-1770.5 1010,-1824.5"/>
<text text-anchor="middle" x="951.5" y="-1809.3" font-family="Times,serif" font-size="14.00" fill="white">Validate</text>
<text text-anchor="middle" x="951.5" y="-1778.3" font-family="Times,serif" font-size="14.00" fill="white">628 µs 375 ns</text>
</a>
</g>
</g>
<!-- 132791199537680&#45;&gt;132721749217296 -->
<g id="edge28" class="edge">
<title>132791199537680&#45;&gt;132721749217296</title>
<path fill="none" stroke="white" d="M947.16,-1824.78C943.87,-1838.04 938.19,-1853.68 928.5,-1865 924.94,-1869.16 920.95,-1873.04 916.68,-1876.65"/>
<polygon fill="white" stroke="white" points="908.72,-1882.84 918.76,-1879.46 916.61,-1876.7 908.72,-1882.84"/>
<text text-anchor="middle" x="1047" y="-1853.8" font-family="Times,serif" font-size="14.00" fill="white">7,500,000 row(s)/115 chunk(s)</text>
</g>
<!-- 132633662528080 -->
<g id="node27" class="node">
<title>132633662528080</title>
<g id="a_node27"><a xlink:title="Output: 7500000 rows in 115 chunks, 210 µs 969 ns.">
<polygon fill="none" stroke="white" points="1014.5,-1712 892.5,-1712 892.5,-1598 1014.5,-1598 1014.5,-1712"/>
<text text-anchor="middle" x="953.5" y="-1696.8" font-family="Times,serif" font-size="14.00" fill="white">GetTable</text>
<text text-anchor="middle" x="953.5" y="-1681.8" font-family="Times,serif" font-size="14.00" fill="white">(customer)</text>
<text text-anchor="middle" x="953.5" y="-1666.8" font-family="Times,serif" font-size="14.00" fill="white">pruned:</text>
<text text-anchor="middle" x="953.5" y="-1651.8" font-family="Times,serif" font-size="14.00" fill="white">0/115 chunk(s)</text>
<text text-anchor="middle" x="953.5" y="-1636.8" font-family="Times,serif" font-size="14.00" fill="white">6/8 column(s)</text>
<text text-anchor="middle" x="953.5" y="-1605.8" font-family="Times,serif" font-size="14.00" fill="white">210 µs 969 ns</text>
</a>
</g>
</g>
<!-- 132633662528080&#45;&gt;132791199537680 -->
<g id="edge29" class="edge">
<title>132633662528080&#45;&gt;132791199537680</title>
<path fill="none" stroke="white" d="M952.7,-1712.34C952.47,-1728.43 952.23,-1745.54 952.02,-1760.1"/>
<polygon fill="white" stroke="white" points="948.52,-1760.16 951.87,-1770.2 955.52,-1760.26 948.52,-1760.16"/>
<text text-anchor="middle" x="1061" y="-1733.8" font-family="Times,serif" font-size="14.00" fill="white">7,500,000 row(s)/115 chunk(s)</text>
</g>
<!-- 0 -->
<g id="node28" class="node">
<title>0</title>
<polygon fill="none" stroke="white" points="1033,-0.5 1033,-166.5 1370,-166.5 1370,-0.5 1033,-0.5"/>
<text text-anchor="middle" x="1201.5" y="-151.3" font-family="Times,serif" font-size="14.00" fill="white">Total by operator</text>
<polyline fill="none" stroke="white" points="1033,-143.5 1370,-143.5 "/>
<text text-anchor="end" x="1187" y="-128.3" font-family="Times,serif" font-size="14.00" fill="white">JoinSimdSortMerge </text>
<text text-anchor="end" x="1187" y="-113.3" font-family="Times,serif" font-size="14.00" fill="white"> Projection </text>
<text text-anchor="end" x="1187" y="-98.3" font-family="Times,serif" font-size="14.00" fill="white"> TableScan </text>
<text text-anchor="end" x="1187" y="-83.3" font-family="Times,serif" font-size="14.00" fill="white"> AggregateHash </text>
<text text-anchor="end" x="1187" y="-68.3" font-family="Times,serif" font-size="14.00" fill="white"> GetTable </text>
<text text-anchor="end" x="1187" y="-53.3" font-family="Times,serif" font-size="14.00" fill="white"> Validate </text>
<text text-anchor="end" x="1187" y="-38.3" font-family="Times,serif" font-size="14.00" fill="white"> Sort </text>
<text text-anchor="end" x="1187" y="-23.3" font-family="Times,serif" font-size="14.00" fill="white"> Alias </text>
<text text-anchor="end" x="1187" y="-8.3" font-family="Times,serif" font-size="14.00" fill="white">total</text>
<polyline fill="none" stroke="white" points="1195,-0.5 1195,-143.5 "/>
<text text-anchor="start" x="1203" y="-128.3" font-family="Times,serif" font-size="14.00" fill="white">2 s 113 ms </text>
<text text-anchor="start" x="1203" y="-113.3" font-family="Times,serif" font-size="14.00" fill="white"> 45 ms 373 µs </text>
<text text-anchor="start" x="1203" y="-98.3" font-family="Times,serif" font-size="14.00" fill="white"> 31 ms 377 µs </text>
<text text-anchor="start" x="1203" y="-83.3" font-family="Times,serif" font-size="14.00" fill="white"> 21 ms 302 µs </text>
<text text-anchor="start" x="1203" y="-68.3" font-family="Times,serif" font-size="14.00" fill="white"> 17 ms 964 µs </text>
<text text-anchor="start" x="1203" y="-53.3" font-family="Times,serif" font-size="14.00" fill="white"> 16 ms 331 µs </text>
<text text-anchor="start" x="1203" y="-38.3" font-family="Times,serif" font-size="14.00" fill="white"> 32 µs 129 ns </text>
<text text-anchor="start" x="1203" y="-23.3" font-family="Times,serif" font-size="14.00" fill="white"> 6 µs 840 ns </text>
<text text-anchor="start" x="1203" y="-8.3" font-family="Times,serif" font-size="14.00" fill="white"> 2 s 245 ms </text>
<polyline fill="none" stroke="white" points="1317,-0.5 1317,-143.5 "/>
<text text-anchor="start" x="1325" y="-128.3" font-family="Times,serif" font-size="14.00" fill="white">94 %</text>
<text text-anchor="start" x="1325" y="-113.3" font-family="Times,serif" font-size="14.00" fill="white">2 %</text>
<text text-anchor="start" x="1325" y="-98.3" font-family="Times,serif" font-size="14.00" fill="white">1 %</text>
<text text-anchor="start" x="1325" y="-83.3" font-family="Times,serif" font-size="14.00" fill="white">1 %</text>
<text text-anchor="start" x="1325" y="-68.3" font-family="Times,serif" font-size="14.00" fill="white">1 %</text>
<text text-anchor="start" x="1325" y="-53.3" font-family="Times,serif" font-size="14.00" fill="white">1 %</text>
<text text-anchor="start" x="1325" y="-38.3" font-family="Times,serif" font-size="14.00" fill="white">0 %</text>
<text text-anchor="start" x="1325" y="-23.3" font-family="Times,serif" font-size="14.00" fill="white">0 %</text>
<text text-anchor="start" x="1325" y="-8.3" font-family="Times,serif" font-size="14.00" fill="white"> </text>
</g>
</g>
</svg>
