<?xml version="1.0" encoding="UTF-8" standalone="no"?>
<!DOCTYPE svg PUBLIC "-//W3C//DTD SVG 1.1//EN"
 "http://www.w3.org/Graphics/SVG/1.1/DTD/svg11.dtd">
<!-- Generated by graphviz version 2.43.0 (0)
 -->
<!-- Title: G Pages: 1 -->
<svg width="1174pt" height="1835pt"
 viewBox="0.00 0.00 1173.50 1835.00" xmlns="http://www.w3.org/2000/svg" xmlns:xlink="http://www.w3.org/1999/xlink">
<g id="graph0" class="graph" transform="scale(1 1) rotate(0) translate(4 1831)">
<title>G</title>
<polygon fill="black" stroke="transparent" points="-4,4 -4,-1831 1169.5,-1831 1169.5,4 -4,4"/>
<text text-anchor="middle" x="319.5" y="-1811.8" font-family="Times,serif" font-size="14.00" fill="white">For tooltips with advanced information, hover your mouse over vertices or edge labels.</text>
<!-- 128968390774160 -->
<g id="node1" class="node">
<title>128968390774160</title>
<g id="a_node1"><a xlink:title="Output: 20 rows in 1 chunk, 6 µs 990 ns.">
<polygon fill="none" stroke="white" points="849.5,-1772 489.5,-1772 489.5,-1688 849.5,-1688 849.5,-1772"/>
<text text-anchor="middle" x="669.5" y="-1756.8" font-family="Times,serif" font-size="14.00" fill="white">Alias</text>
<text text-anchor="middle" x="669.5" y="-1741.8" font-family="Times,serif" font-size="14.00" fill="white">[c_custkey, c_name, revenue, c_acctbal, n_name,</text>
<text text-anchor="middle" x="669.5" y="-1726.8" font-family="Times,serif" font-size="14.00" fill="white">c_address, c_phone, c_comment]</text>
<text text-anchor="middle" x="669.5" y="-1695.8" font-family="Times,serif" font-size="14.00" fill="white">6 µs 990 ns</text>
</a>
</g>
</g>
<!-- 128968390773840 -->
<g id="node2" class="node">
<title>128968390773840</title>
<g id="a_node2"><a xlink:title="Output: 20 rows in 1 chunk, 26 µs 342 ns.&#10;Operator step runtimes:&#10; ForwardUnmodifiedColumns 7 µs 629 ns&#10; EvaluateNewColumns 2 µs 964 ns&#10; BuildOutput 10 µs 694 ns.">
<polygon fill="none" stroke="white" points="723.5,-1637 615.5,-1637 615.5,-1583 723.5,-1583 723.5,-1637"/>
<text text-anchor="middle" x="669.5" y="-1621.8" font-family="Times,serif" font-size="14.00" fill="white">Projection</text>
<text text-anchor="middle" x="669.5" y="-1590.8" font-family="Times,serif" font-size="14.00" fill="white">26 µs 342 ns</text>
</a>
</g>
</g>
<!-- 128968390773840&#45;&gt;128968390774160 -->
<g id="edge1" class="edge">
<title>128968390773840&#45;&gt;128968390774160</title>
<path fill="none" stroke="white" d="M669.5,-1637.19C669.5,-1649.1 669.5,-1663.63 669.5,-1677.58"/>
<polygon fill="white" stroke="white" points="666,-1677.59 669.5,-1687.59 673,-1677.59 666,-1677.59"/>
<text text-anchor="middle" x="743" y="-1658.8" font-family="Times,serif" font-size="14.00" fill="white">20 row(s)/1 chunk(s)</text>
</g>
<!-- 128984983640848 -->
<g id="node3" class="node">
<title>128984983640848</title>
<g id="a_node3"><a xlink:title="Output: 20 rows in 1 chunk, 36 µs 350 ns.">
<polygon fill="none" stroke="white" points="723.5,-1532 615.5,-1532 615.5,-1478 723.5,-1478 723.5,-1532"/>
<text text-anchor="middle" x="669.5" y="-1516.8" font-family="Times,serif" font-size="14.00" fill="white">Limit</text>
<text text-anchor="middle" x="669.5" y="-1485.8" font-family="Times,serif" font-size="14.00" fill="white">36 µs 350 ns</text>
</a>
</g>
</g>
<!-- 128984983640848&#45;&gt;128968390773840 -->
<g id="edge2" class="edge">
<title>128984983640848&#45;&gt;128968390773840</title>
<path fill="none" stroke="white" d="M669.5,-1532.26C669.5,-1544.49 669.5,-1559.24 669.5,-1572.52"/>
<polygon fill="white" stroke="white" points="666,-1572.79 669.5,-1582.79 673,-1572.79 666,-1572.79"/>
<text text-anchor="middle" x="743" y="-1553.8" font-family="Times,serif" font-size="14.00" fill="white">20 row(s)/1 chunk(s)</text>
</g>
<!-- 128968390773520 -->
<g id="node4" class="node">
<title>128968390773520</title>
<g id="a_node4"><a xlink:title="Output: 381543 rows in 6 chunks, 54 ms 539 µs.&#10;Operator step runtimes:&#10; MaterializeSortColumns 1 ms 949 µs&#10; Sort 31 ms 699 µs&#10; TemporaryResultWriting 896 µs 532 ns&#10; WriteOutput 19 ms 977 µs.">
<polygon fill="none" stroke="white" stroke-width="7.67" points="726,-1427 613,-1427 613,-1373 726,-1373 726,-1427"/>
<text text-anchor="middle" x="669.5" y="-1411.8" font-family="Times,serif" font-size="14.00" fill="white">Sort</text>
<text text-anchor="middle" x="669.5" y="-1380.8" font-family="Times,serif" font-size="14.00" fill="white">54 ms 539 µs</text>
</a>
</g>
</g>
<!-- 128968390773520&#45;&gt;128984983640848 -->
<g id="edge3" class="edge">
<title>128968390773520&#45;&gt;128984983640848</title>
<path fill="none" stroke="white" d="M669.5,-1427.26C669.5,-1439.49 669.5,-1454.24 669.5,-1467.52"/>
<polygon fill="white" stroke="white" points="666,-1467.79 669.5,-1477.79 673,-1467.79 666,-1467.79"/>
<text text-anchor="middle" x="763" y="-1448.8" font-family="Times,serif" font-size="14.00" fill="white">381,543 row(s)/6 chunk(s)</text>
</g>
<!-- 128984983666704 -->
<g id="node5" class="node">
<title>128984983666704</title>
<g id="a_node5"><a xlink:title="Output: 381543 rows in 6 chunks, 62 ms 239 µs.&#10;Operator step runtimes:&#10; GroupByKeyPartitioning 16 ms 26 µs&#10; Aggregating 36 ms 493 µs&#10; GroupByColumnsWriting 4 ms 558 µs&#10; AggregateColumnsWriting 5 ms 69 µs&#10; OutputWriting 28 µs 407 ns.">
<polygon fill="none" stroke="white" stroke-width="8" points="822.5,-1322 516.5,-1322 516.5,-1148 822.5,-1148 822.5,-1322"/>
<text text-anchor="middle" x="669.5" y="-1306.8" font-family="Times,serif" font-size="14.00" fill="white">AggregateHash</text>
<text text-anchor="middle" x="669.5" y="-1291.8" font-family="Times,serif" font-size="14.00" fill="white">GroupBy {c_custkey}</text>
<text text-anchor="middle" x="669.5" y="-1276.8" font-family="Times,serif" font-size="14.00" fill="white">SUM(l_extendedprice * (1 &#45; l_discount)), </text>
<text text-anchor="middle" x="669.5" y="-1261.8" font-family="Times,serif" font-size="14.00" fill="white">ANY(n_name), </text>
<text text-anchor="middle" x="669.5" y="-1246.8" font-family="Times,serif" font-size="14.00" fill="white">ANY(c_comment), </text>
<text text-anchor="middle" x="669.5" y="-1231.8" font-family="Times,serif" font-size="14.00" fill="white">ANY(c_phone), </text>
<text text-anchor="middle" x="669.5" y="-1216.8" font-family="Times,serif" font-size="14.00" fill="white">ANY(c_acctbal), </text>
<text text-anchor="middle" x="669.5" y="-1201.8" font-family="Times,serif" font-size="14.00" fill="white">ANY(c_address), </text>
<text text-anchor="middle" x="669.5" y="-1186.8" font-family="Times,serif" font-size="14.00" fill="white">ANY(c_name)</text>
<text text-anchor="middle" x="669.5" y="-1155.8" font-family="Times,serif" font-size="14.00" fill="white">62 ms 239 µs</text>
</a>
</g>
</g>
<!-- 128984983666704&#45;&gt;128968390773520 -->
<g id="edge4" class="edge">
<title>128984983666704&#45;&gt;128968390773520</title>
<path fill="none" stroke="white" d="M669.5,-1322.27C669.5,-1336.57 669.5,-1350.66 669.5,-1362.8"/>
<polygon fill="white" stroke="white" points="666,-1362.91 669.5,-1372.91 673,-1362.91 666,-1362.91"/>
<text text-anchor="middle" x="763" y="-1343.8" font-family="Times,serif" font-size="14.00" fill="white">381,543 row(s)/6 chunk(s)</text>
</g>
<!-- 128968390773200 -->
<g id="node6" class="node">
<title>128968390773200</title>
<g id="a_node6"><a xlink:title="Output: 1148771 rows in 256 chunks, 34 ms 106 µs.&#10;Operator step runtimes:&#10; ForwardUnmodifiedColumns 342 µs 348 ns&#10; EvaluateNewColumns 33 ms 93 µs&#10; BuildOutput 576 µs 883 ns.">
<polygon fill="none" stroke="white" stroke-width="6.52" points="726,-1097 613,-1097 613,-1043 726,-1043 726,-1097"/>
<text text-anchor="middle" x="669.5" y="-1081.8" font-family="Times,serif" font-size="14.00" fill="white">Projection</text>
<text text-anchor="middle" x="669.5" y="-1050.8" font-family="Times,serif" font-size="14.00" fill="white">34 ms 106 µs</text>
</a>
</g>
</g>
<!-- 128968390773200&#45;&gt;128984983666704 -->
<g id="edge5" class="edge">
<title>128968390773200&#45;&gt;128984983666704</title>
<path fill="none" stroke="white" d="M669.5,-1097.19C669.5,-1108.6 669.5,-1122.74 669.5,-1137.57"/>
<polygon fill="white" stroke="white" points="666,-1137.91 669.5,-1147.91 673,-1137.91 666,-1137.91"/>
<text text-anchor="middle" x="779" y="-1118.8" font-family="Times,serif" font-size="14.00" fill="white">1,148,771 row(s)/256 chunk(s)</text>
</g>
<!-- 128968390772880 -->
<g id="node7" class="node">
<title>128968390772880</title>
<g id="a_node7"><a xlink:title="Output: 1148771 rows in 256 chunks, 25 ms 674 µs.&#10;Operator step runtimes:&#10; LeftSideMaterialize 4 ms 909 µs&#10; RightSideMaterialize 1 ms 695 µs&#10; LeftSideTransform 0 ns&#10; RightSideTransform 0 ns&#10; LeftSidePartition 1 ms 260 µs&#10; RightSidePartition 1 ms 482 µs&#10; LeftSideSortBuckets 3 ms 538 µs&#10; RightSideSortBuckets 3 ms 673 µs&#10; GatherRowIds 2 µs 404 ns&#10; FindJoinPartner 4 ms 74 µs&#10; OutputWriting 4 ms 402 µs.">
<polygon fill="none" stroke="white" stroke-width="5.82" points="775,-992 564,-992 564,-923 775,-923 775,-992"/>
<text text-anchor="middle" x="669.5" y="-976.8" font-family="Times,serif" font-size="14.00" fill="white">JoinSimdSortMerge (Inner)</text>
<text text-anchor="middle" x="669.5" y="-961.8" font-family="Times,serif" font-size="14.00" fill="white">o_custkey = c_custkey</text>
<text text-anchor="middle" x="669.5" y="-930.8" font-family="Times,serif" font-size="14.00" fill="white">25 ms 674 µs</text>
</a>
</g>
</g>
<!-- 128968390772880&#45;&gt;128968390773200 -->
<g id="edge6" class="edge">
<title>128968390772880&#45;&gt;128968390773200</title>
<path fill="none" stroke="white" d="M669.5,-992.25C669.5,-1005.07 669.5,-1019.73 669.5,-1032.77"/>
<polygon fill="white" stroke="white" points="666,-1032.81 669.5,-1042.81 673,-1032.81 666,-1032.81"/>
<text text-anchor="middle" x="779" y="-1013.8" font-family="Times,serif" font-size="14.00" fill="white">1,148,771 row(s)/256 chunk(s)</text>
</g>
<!-- 128968390772240 -->
<g id="node8" class="node">
<title>128968390772240</title>
<g id="a_node8"><a xlink:title="Output: 1148771 rows in 64 chunks, 23 ms 466 µs.&#10;Operator step runtimes:&#10; LeftSideMaterialize 8 ms 572 µs&#10; RightSideMaterialize 1 ms 131 µs&#10; LeftSideTransform 0 ns&#10; RightSideTransform 0 ns&#10; LeftSidePartition 1 ms 22 µs&#10; RightSidePartition 3 ms 252 µs&#10; LeftSideSortBuckets 1 ms 181 µs&#10; RightSideSortBuckets 743 µs 436 ns&#10; GatherRowIds 1 µs 848 ns&#10; FindJoinPartner 4 ms 984 µs&#10; OutputWriting 2 ms 170 µs.">
<polygon fill="none" stroke="white" stroke-width="5.59" points="659,-872 448,-872 448,-803 659,-803 659,-872"/>
<text text-anchor="middle" x="553.5" y="-856.8" font-family="Times,serif" font-size="14.00" fill="white">JoinSimdSortMerge (Inner)</text>
<text text-anchor="middle" x="553.5" y="-841.8" font-family="Times,serif" font-size="14.00" fill="white">l_orderkey = o_orderkey</text>
<text text-anchor="middle" x="553.5" y="-810.8" font-family="Times,serif" font-size="14.00" fill="white">23 ms 466 µs</text>
</a>
</g>
</g>
<!-- 128968390772240&#45;&gt;128968390772880 -->
<g id="edge7" class="edge">
<title>128968390772240&#45;&gt;128968390772880</title>
<path fill="none" stroke="white" d="M547.07,-872.08C546.64,-883.35 548.21,-895.45 554.5,-905 557.11,-908.96 560.1,-912.62 563.39,-916"/>
<polygon fill="white" stroke="white" points="563.65,-916.23 561.29,-918.82 571.04,-922.96 563.65,-916.23"/>
<text text-anchor="middle" x="659.5" y="-893.8" font-family="Times,serif" font-size="14.00" fill="white">1,148,771 row(s)/64 chunk(s)</text>
</g>
<!-- 128984983635984 -->
<g id="node9" class="node">
<title>128984983635984</title>
<g id="a_node9"><a xlink:title="Output: 1148771 rows in 64 chunks, 1 ms 57 µs.">
<polygon fill="none" stroke="white" points="374,-752 279,-752 279,-698 374,-698 374,-752"/>
<text text-anchor="middle" x="326.5" y="-736.8" font-family="Times,serif" font-size="14.00" fill="white">Validate</text>
<text text-anchor="middle" x="326.5" y="-705.8" font-family="Times,serif" font-size="14.00" fill="white">1 ms 57 µs</text>
</a>
</g>
</g>
<!-- 128984983635984&#45;&gt;128968390772240 -->
<g id="edge8" class="edge">
<title>128984983635984&#45;&gt;128968390772240</title>
<path fill="none" stroke="white" d="M322.33,-752.14C322,-763.47 323.83,-776.14 331.5,-785 346.25,-802.03 391.82,-814.1 437.86,-822.26"/>
<polygon fill="white" stroke="white" points="438.13,-822.3 437.54,-825.75 447.99,-823.99 438.13,-822.3"/>
<text text-anchor="middle" x="436.5" y="-773.8" font-family="Times,serif" font-size="14.00" fill="white">1,148,771 row(s)/64 chunk(s)</text>
</g>
<!-- 128968390771920 -->
<g id="node10" class="node">
<title>128968390771920</title>
<g id="a_node10"><a xlink:title="Output: 1148771 rows in 64 chunks, 51 ms 222 µs.&#10;Operator step runtimes:&#10; LeftSideMaterialize 5 ms 660 µs&#10; RightSideMaterialize 1 ms 277 µs&#10; LeftSideTransform 0 ns&#10; RightSideTransform 0 ns&#10; LeftSidePartition 13 ms 523 µs&#10; RightSidePartition 3 ms 606 µs&#10; LeftSideSortBuckets 11 ms 756 µs&#10; RightSideSortBuckets 734 µs 991 ns&#10; GatherRowIds 1 µs 968 ns&#10; FindJoinPartner 10 ms 520 µs&#10; OutputWriting 3 ms 188 µs.">
<polygon fill="none" stroke="white" stroke-width="7.52" points="465,-624.5 180,-624.5 180,-555.5 465,-555.5 465,-624.5"/>
<text text-anchor="middle" x="322.5" y="-609.3" font-family="Times,serif" font-size="14.00" fill="white">JoinSimdSortMerge (Semi Reduction)</text>
<text text-anchor="middle" x="322.5" y="-594.3" font-family="Times,serif" font-size="14.00" fill="white">l_orderkey = o_orderkey</text>
<text text-anchor="middle" x="322.5" y="-563.3" font-family="Times,serif" font-size="14.00" fill="white">51 ms 222 µs</text>
</a>
</g>
</g>
<!-- 128968390771920&#45;&gt;128984983635984 -->
<g id="edge9" class="edge">
<title>128968390771920&#45;&gt;128984983635984</title>
<path fill="none" stroke="white" d="M322.43,-624.82C322.51,-641.45 322.78,-661.78 323.5,-680 323.6,-682.54 323.73,-685.17 323.87,-687.81"/>
<polygon fill="white" stroke="white" points="320.38,-688.18 324.48,-697.96 327.37,-687.76 320.38,-688.18"/>
<text text-anchor="middle" x="428.5" y="-668.8" font-family="Times,serif" font-size="14.00" fill="white">1,148,771 row(s)/64 chunk(s)</text>
</g>
<!-- 128968390770960 -->
<g id="node11" class="node">
<title>128968390770960</title>
<g id="a_node11"><a xlink:title="Output: 14808183 rows in 916 chunks, 10 ms 949 µs.&#10;Chunks: 0 skipped with no results, &#10;0 skipped with all matching, 0 scanned using binary search.">
<polygon fill="none" stroke="white" stroke-width="3.71" points="169,-482 0,-482 0,-398 169,-398 169,-482"/>
<text text-anchor="middle" x="84.5" y="-466.8" font-family="Times,serif" font-size="14.00" fill="white">TableScan</text>
<text text-anchor="middle" x="84.5" y="-451.8" font-family="Times,serif" font-size="14.00" fill="white">Impl: ColumnVsValue</text>
<text text-anchor="middle" x="84.5" y="-436.8" font-family="Times,serif" font-size="14.00" fill="white">l_returnflag = &#39;R&#39;</text>
<text text-anchor="middle" x="84.5" y="-405.8" font-family="Times,serif" font-size="14.00" fill="white">10 ms 949 µs</text>
</a>
</g>
</g>
<!-- 128968390770960&#45;&gt;128968390771920 -->
<g id="edge10" class="edge">
<title>128968390770960&#45;&gt;128968390771920</title>
<path fill="none" stroke="white" stroke-width="4.55" d="M83.44,-482.38C85.06,-494.05 88.8,-506 96.5,-515 115.91,-537.69 142.39,-553.47 170.4,-564.43"/>
<polygon fill="white" stroke="white" stroke-width="4.55" points="170.57,-564.49 169.18,-568.22 179.94,-567.96 170.57,-564.49"/>
<text text-anchor="middle" x="210.5" y="-503.8" font-family="Times,serif" font-size="14.00" fill="white">14,808,183 row(s)/916 chunk(s)</text>
</g>
<!-- 128968729855696 -->
<g id="node12" class="node">
<title>128968729855696</title>
<g id="a_node12"><a xlink:title="Output: 59986052 rows in 916 chunks, 4 ms 267 µs.">
<polygon fill="none" stroke="white" stroke-width="1.39" points="150,-347 19,-347 19,-233 150,-233 150,-347"/>
<text text-anchor="middle" x="84.5" y="-331.8" font-family="Times,serif" font-size="14.00" fill="white">GetTable</text>
<text text-anchor="middle" x="84.5" y="-316.8" font-family="Times,serif" font-size="14.00" fill="white">(lineitem)</text>
<text text-anchor="middle" x="84.5" y="-301.8" font-family="Times,serif" font-size="14.00" fill="white">pruned:</text>
<text text-anchor="middle" x="84.5" y="-286.8" font-family="Times,serif" font-size="14.00" fill="white">0/916 chunk(s)</text>
<text text-anchor="middle" x="84.5" y="-271.8" font-family="Times,serif" font-size="14.00" fill="white">12/16 column(s)</text>
<text text-anchor="middle" x="84.5" y="-240.8" font-family="Times,serif" font-size="14.00" fill="white">4 ms 267 µs</text>
</a>
</g>
</g>
<!-- 128968729855696&#45;&gt;128968390770960 -->
<g id="edge11" class="edge">
<title>128968729855696&#45;&gt;128968390770960</title>
<path fill="none" stroke="white" stroke-width="8" d="M84.5,-347.37C84.5,-360.65 84.5,-374.74 84.5,-387.77"/>
<polygon fill="white" stroke="white" stroke-width="8" points="77.5,-387.97 84.5,-397.97 91.5,-387.97 77.5,-387.97"/>
<text text-anchor="middle" x="198.5" y="-368.8" font-family="Times,serif" font-size="14.00" fill="white">59,986,052 row(s)/916 chunk(s)</text>
</g>
<!-- 128984983634960 -->
<g id="node13" class="node">
<title>128984983634960</title>
<g id="a_node13"><a xlink:title="Output: 574033 rows in 229 chunks, 560 µs 254 ns.">
<polygon fill="none" stroke="white" points="526,-467 409,-467 409,-413 526,-413 526,-467"/>
<text text-anchor="middle" x="467.5" y="-451.8" font-family="Times,serif" font-size="14.00" fill="white">Validate</text>
<text text-anchor="middle" x="467.5" y="-420.8" font-family="Times,serif" font-size="14.00" fill="white">560 µs 254 ns</text>
</a>
</g>
</g>
<!-- 128984983634960&#45;&gt;128968390772240 -->
<g id="edge13" class="edge">
<title>128984983634960&#45;&gt;128968390772240</title>
<path fill="none" stroke="white" d="M512.87,-467.19C524.22,-476.08 534.99,-487.09 541.5,-500 589.43,-595.15 575.2,-725.37 563.02,-792.5"/>
<polygon fill="white" stroke="white" points="561.09,-802.72 566.39,-793.54 562.95,-792.89 561.09,-802.72"/>
<text text-anchor="middle" x="678" y="-668.8" font-family="Times,serif" font-size="14.00" fill="white">574,033 row(s)/229 chunk(s)</text>
</g>
<!-- 128984983634960&#45;&gt;128968390771920 -->
<g id="edge12" class="edge">
<title>128984983634960&#45;&gt;128968390771920</title>
<path fill="none" stroke="white" d="M408.9,-453.89C382.84,-462.6 354.13,-476.9 336.5,-500 326.77,-512.75 322.59,-529.57 321.07,-545.14"/>
<polygon fill="white" stroke="white" points="320.43,-555.15 324.56,-545.39 321.07,-545.17 320.43,-555.15"/>
<text text-anchor="middle" x="439" y="-503.8" font-family="Times,serif" font-size="14.00" fill="white">574,033 row(s)/229 chunk(s)</text>
</g>
<!-- 128968390771600 -->
<g id="node14" class="node">
<title>128968390771600</title>
<g id="a_node14"><a xlink:title="Output: 574033 rows in 229 chunks, 2 ms 901 µs.&#10;Chunks: 0 skipped with no results, &#10;0 skipped with all matching, 0 scanned using binary search.">
<polygon fill="none" stroke="white" points="680,-339.5 255,-339.5 255,-240.5 680,-240.5 680,-339.5"/>
<text text-anchor="middle" x="467.5" y="-324.3" font-family="Times,serif" font-size="14.00" fill="white">TableScan</text>
<text text-anchor="middle" x="467.5" y="-309.3" font-family="Times,serif" font-size="14.00" fill="white">Impl: ColumnBetween</text>
<text text-anchor="middle" x="467.5" y="-294.3" font-family="Times,serif" font-size="14.00" fill="white">o_orderdate BETWEEN UPPER EXCLUSIVE &#39;1994&#45;05&#45;01&#39;</text>
<text text-anchor="middle" x="467.5" y="-279.3" font-family="Times,serif" font-size="14.00" fill="white">AND &#39;1994&#45;08&#45;01&#39;</text>
<text text-anchor="middle" x="467.5" y="-248.3" font-family="Times,serif" font-size="14.00" fill="white">2 ms 901 µs</text>
</a>
</g>
</g>
<!-- 128968390771600&#45;&gt;128984983634960 -->
<g id="edge14" class="edge">
<title>128968390771600&#45;&gt;128984983634960</title>
<path fill="none" stroke="white" d="M467.5,-339.87C467.5,-360.24 467.5,-383.48 467.5,-402.34"/>
<polygon fill="white" stroke="white" points="464,-402.6 467.5,-412.6 471,-402.6 464,-402.6"/>
<text text-anchor="middle" x="570" y="-368.8" font-family="Times,serif" font-size="14.00" fill="white">574,033 row(s)/229 chunk(s)</text>
</g>
<!-- 128968729856144 -->
<g id="node15" class="node">
<title>128968729856144</title>
<g id="a_node15"><a xlink:title="Output: 15000000 rows in 229 chunks, 783 µs 715 ns.">
<polygon fill="none" stroke="white" points="528.5,-148 406.5,-148 406.5,-34 528.5,-34 528.5,-148"/>
<text text-anchor="middle" x="467.5" y="-132.8" font-family="Times,serif" font-size="14.00" fill="white">GetTable</text>
<text text-anchor="middle" x="467.5" y="-117.8" font-family="Times,serif" font-size="14.00" fill="white">(orders)</text>
<text text-anchor="middle" x="467.5" y="-102.8" font-family="Times,serif" font-size="14.00" fill="white">pruned:</text>
<text text-anchor="middle" x="467.5" y="-87.8" font-family="Times,serif" font-size="14.00" fill="white">0/229 chunk(s)</text>
<text text-anchor="middle" x="467.5" y="-72.8" font-family="Times,serif" font-size="14.00" fill="white">6/9 column(s)</text>
<text text-anchor="middle" x="467.5" y="-41.8" font-family="Times,serif" font-size="14.00" fill="white">783 µs 715 ns</text>
</a>
</g>
</g>
<!-- 128968729856144&#45;&gt;128968390771600 -->
<g id="edge15" class="edge">
<title>128968729856144&#45;&gt;128968390771600</title>
<path fill="none" stroke="white" stroke-width="4.58" d="M467.5,-148.19C467.5,-173.89 467.5,-204.34 467.5,-230.33"/>
<polygon fill="white" stroke="white" stroke-width="4.58" points="463.49,-230.43 467.5,-240.43 471.51,-230.43 463.49,-230.43"/>
<text text-anchor="middle" x="581.5" y="-203.8" font-family="Times,serif" font-size="14.00" fill="white">15,000,000 row(s)/229 chunk(s)</text>
</g>
<!-- 128968390772560 -->
<g id="node16" class="node">
<title>128968390772560</title>
<g id="a_node16"><a xlink:title="Output: 1500000 rows in 25 chunks, 19 ms 399 µs.&#10;Operator step runtimes:&#10; LeftSideMaterialize 428 µs 778 ns&#10; RightSideMaterialize 3 µs 660 ns&#10; LeftSideTransform 0 ns&#10; RightSideTransform 0 ns&#10; LeftSidePartition 1 ms 271 µs&#10; RightSidePartition 142 µs 21 ns&#10; LeftSideSortBuckets 2 ms 333 µs&#10; RightSideSortBuckets 1 ms 9 µs&#10; GatherRowIds 2 µs 535 ns&#10; FindJoinPartner 10 ms 185 µs&#10; OutputWriting 3 ms 411 µs.">
<polygon fill="none" stroke="white" stroke-width="5.12" points="892,-872 681,-872 681,-803 892,-803 892,-872"/>
<text text-anchor="middle" x="786.5" y="-856.8" font-family="Times,serif" font-size="14.00" fill="white">JoinSimdSortMerge (Inner)</text>
<text text-anchor="middle" x="786.5" y="-841.8" font-family="Times,serif" font-size="14.00" fill="white">c_nationkey = n_nationkey</text>
<text text-anchor="middle" x="786.5" y="-810.8" font-family="Times,serif" font-size="14.00" fill="white">19 ms 399 µs</text>
</a>
</g>
</g>
<!-- 128968390772560&#45;&gt;128968390772880 -->
<g id="edge16" class="edge">
<title>128968390772560&#45;&gt;128968390772880</title>
<path fill="none" stroke="white" d="M780.64,-872.1C777.37,-883.49 772.3,-895.67 764.5,-905 761.13,-909.03 757.35,-912.8 753.3,-916.31"/>
<polygon fill="white" stroke="white" points="745.22,-922.75 755.22,-919.26 753.04,-916.52 745.22,-922.75"/>
<text text-anchor="middle" x="879.5" y="-893.8" font-family="Times,serif" font-size="14.00" fill="white">1,500,000 row(s)/25 chunk(s)</text>
</g>
<!-- 128984983639568 -->
<g id="node17" class="node">
<title>128984983639568</title>
<g id="a_node17"><a xlink:title="Output: 1500000 rows in 23 chunks, 188 µs 131 ns.">
<polygon fill="none" stroke="white" points="844,-752 727,-752 727,-698 844,-698 844,-752"/>
<text text-anchor="middle" x="785.5" y="-736.8" font-family="Times,serif" font-size="14.00" fill="white">Validate</text>
<text text-anchor="middle" x="785.5" y="-705.8" font-family="Times,serif" font-size="14.00" fill="white">188 µs 131 ns</text>
</a>
</g>
</g>
<!-- 128984983639568&#45;&gt;128968390772560 -->
<g id="edge17" class="edge">
<title>128984983639568&#45;&gt;128968390772560</title>
<path fill="none" stroke="white" d="M785.74,-752.19C785.85,-764.29 785.98,-779 786.1,-792.72"/>
<polygon fill="white" stroke="white" points="786.11,-792.96 782.61,-792.99 786.2,-802.95 786.11,-792.96"/>
<text text-anchor="middle" x="891.5" y="-773.8" font-family="Times,serif" font-size="14.00" fill="white">1,500,000 row(s)/23 chunk(s)</text>
</g>
<!-- 128968729856592 -->
<g id="node18" class="node">
<title>128968729856592</title>
<g id="a_node18"><a xlink:title="Output: 1500000 rows in 23 chunks, 80 µs 683 ns.">
<polygon fill="none" stroke="white" points="842,-647 729,-647 729,-533 842,-533 842,-647"/>
<text text-anchor="middle" x="785.5" y="-631.8" font-family="Times,serif" font-size="14.00" fill="white">GetTable</text>
<text text-anchor="middle" x="785.5" y="-616.8" font-family="Times,serif" font-size="14.00" fill="white">(customer)</text>
<text text-anchor="middle" x="785.5" y="-601.8" font-family="Times,serif" font-size="14.00" fill="white">pruned:</text>
<text text-anchor="middle" x="785.5" y="-586.8" font-family="Times,serif" font-size="14.00" fill="white">0/23 chunk(s)</text>
<text text-anchor="middle" x="785.5" y="-571.8" font-family="Times,serif" font-size="14.00" fill="white">1/8 column(s)</text>
<text text-anchor="middle" x="785.5" y="-540.8" font-family="Times,serif" font-size="14.00" fill="white">80 µs 683 ns</text>
</a>
</g>
</g>
<!-- 128968729856592&#45;&gt;128984983639568 -->
<g id="edge18" class="edge">
<title>128968729856592&#45;&gt;128984983639568</title>
<path fill="none" stroke="white" d="M785.5,-647.02C785.5,-660.77 785.5,-675.14 785.5,-687.69"/>
<polygon fill="white" stroke="white" points="782,-687.75 785.5,-697.75 789,-687.75 782,-687.75"/>
<text text-anchor="middle" x="890.5" y="-668.8" font-family="Times,serif" font-size="14.00" fill="white">1,500,000 row(s)/23 chunk(s)</text>
</g>
<!-- 128984983640336 -->
<g id="node19" class="node">
<title>128984983640336</title>
<g id="a_node19"><a xlink:title="Output: 25 rows in 1 chunk, 11 µs 371 ns.">
<polygon fill="none" stroke="white" points="1072.5,-752 964.5,-752 964.5,-698 1072.5,-698 1072.5,-752"/>
<text text-anchor="middle" x="1018.5" y="-736.8" font-family="Times,serif" font-size="14.00" fill="white">Validate</text>
<text text-anchor="middle" x="1018.5" y="-705.8" font-family="Times,serif" font-size="14.00" fill="white">11 µs 371 ns</text>
</a>
</g>
</g>
<!-- 128984983640336&#45;&gt;128968390772560 -->
<g id="edge19" class="edge">
<title>128984983640336&#45;&gt;128968390772560</title>
<path fill="none" stroke="white" d="M1014.46,-752.07C1011.38,-763.67 1005.97,-776.57 996.5,-785 970.53,-808.11 935.87,-821.24 902.2,-828.58"/>
<polygon fill="white" stroke="white" points="892.27,-830.6 902.76,-832.04 902.07,-828.61 892.27,-830.6"/>
<text text-anchor="middle" x="1081" y="-773.8" font-family="Times,serif" font-size="14.00" fill="white">25 row(s)/1 chunk(s)</text>
</g>
<!-- 128968729857040 -->
<g id="node20" class="node">
<title>128968729857040</title>
<g id="a_node20"><a xlink:title="Output: 25 rows in 1 chunk, 20 µs 664 ns.">
<polygon fill="none" stroke="white" points="1075,-647 962,-647 962,-533 1075,-533 1075,-647"/>
<text text-anchor="middle" x="1018.5" y="-631.8" font-family="Times,serif" font-size="14.00" fill="white">GetTable</text>
<text text-anchor="middle" x="1018.5" y="-616.8" font-family="Times,serif" font-size="14.00" fill="white">(nation)</text>
<text text-anchor="middle" x="1018.5" y="-601.8" font-family="Times,serif" font-size="14.00" fill="white">pruned:</text>
<text text-anchor="middle" x="1018.5" y="-586.8" font-family="Times,serif" font-size="14.00" fill="white">0/1 chunk(s)</text>
<text text-anchor="middle" x="1018.5" y="-571.8" font-family="Times,serif" font-size="14.00" fill="white">2/4 column(s)</text>
<text text-anchor="middle" x="1018.5" y="-540.8" font-family="Times,serif" font-size="14.00" fill="white">20 µs 664 ns</text>
</a>
</g>
</g>
<!-- 128968729857040&#45;&gt;128984983640336 -->
<g id="edge20" class="edge">
<title>128968729857040&#45;&gt;128984983640336</title>
<path fill="none" stroke="white" d="M1018.5,-647.02C1018.5,-660.77 1018.5,-675.14 1018.5,-687.69"/>
<polygon fill="white" stroke="white" points="1015,-687.75 1018.5,-697.75 1022,-687.75 1015,-687.75"/>
<text text-anchor="middle" x="1092" y="-668.8" font-family="Times,serif" font-size="14.00" fill="white">25 row(s)/1 chunk(s)</text>
</g>
<!-- 0 -->
<g id="node21" class="node">
<title>0</title>
<polygon fill="none" stroke="white" points="546.5,-0.5 546.5,-181.5 892.5,-181.5 892.5,-0.5 546.5,-0.5"/>
<text text-anchor="middle" x="719.5" y="-166.3" font-family="Times,serif" font-size="14.00" fill="white">Total by operator</text>
<polyline fill="none" stroke="white" points="546.5,-158.5 892.5,-158.5 "/>
<text text-anchor="end" x="700.5" y="-143.3" font-family="Times,serif" font-size="14.00" fill="white">JoinSimdSortMerge </text>
<text text-anchor="end" x="700.5" y="-128.3" font-family="Times,serif" font-size="14.00" fill="white"> AggregateHash </text>
<text text-anchor="end" x="700.5" y="-113.3" font-family="Times,serif" font-size="14.00" fill="white"> Sort </text>
<text text-anchor="end" x="700.5" y="-98.3" font-family="Times,serif" font-size="14.00" fill="white"> Projection </text>
<text text-anchor="end" x="700.5" y="-83.3" font-family="Times,serif" font-size="14.00" fill="white"> TableScan </text>
<text text-anchor="end" x="700.5" y="-68.3" font-family="Times,serif" font-size="14.00" fill="white"> GetTable </text>
<text text-anchor="end" x="700.5" y="-53.3" font-family="Times,serif" font-size="14.00" fill="white"> Validate </text>
<text text-anchor="end" x="700.5" y="-38.3" font-family="Times,serif" font-size="14.00" fill="white"> Limit </text>
<text text-anchor="end" x="700.5" y="-23.3" font-family="Times,serif" font-size="14.00" fill="white"> Alias </text>
<text text-anchor="end" x="700.5" y="-8.3" font-family="Times,serif" font-size="14.00" fill="white">total</text>
<polyline fill="none" stroke="white" points="708.5,-0.5 708.5,-158.5 "/>
<text text-anchor="start" x="716.5" y="-143.3" font-family="Times,serif" font-size="14.00" fill="white">119 ms 761 µs </text>
<text text-anchor="start" x="716.5" y="-128.3" font-family="Times,serif" font-size="14.00" fill="white"> 62 ms 239 µs </text>
<text text-anchor="start" x="716.5" y="-113.3" font-family="Times,serif" font-size="14.00" fill="white"> 54 ms 539 µs </text>
<text text-anchor="start" x="716.5" y="-98.3" font-family="Times,serif" font-size="14.00" fill="white"> 34 ms 133 µs </text>
<text text-anchor="start" x="716.5" y="-83.3" font-family="Times,serif" font-size="14.00" fill="white"> 13 ms 850 µs </text>
<text text-anchor="start" x="716.5" y="-68.3" font-family="Times,serif" font-size="14.00" fill="white"> 5 ms 152 µs </text>
<text text-anchor="start" x="716.5" y="-53.3" font-family="Times,serif" font-size="14.00" fill="white"> 1 ms 816 µs </text>
<text text-anchor="start" x="716.5" y="-38.3" font-family="Times,serif" font-size="14.00" fill="white"> 36 µs 350 ns </text>
<text text-anchor="start" x="716.5" y="-23.3" font-family="Times,serif" font-size="14.00" fill="white"> 6 µs 990 ns </text>
<text text-anchor="start" x="716.5" y="-8.3" font-family="Times,serif" font-size="14.00" fill="white"> 291 ms 534 µs </text>
<polyline fill="none" stroke="white" points="839.5,-0.5 839.5,-158.5 "/>
<text text-anchor="start" x="847.5" y="-143.3" font-family="Times,serif" font-size="14.00" fill="white">41 %</text>
<text text-anchor="start" x="847.5" y="-128.3" font-family="Times,serif" font-size="14.00" fill="white">21 %</text>
<text text-anchor="start" x="847.5" y="-113.3" font-family="Times,serif" font-size="14.00" fill="white">19 %</text>
<text text-anchor="start" x="847.5" y="-98.3" font-family="Times,serif" font-size="14.00" fill="white">12 %</text>
<text text-anchor="start" x="847.5" y="-83.3" font-family="Times,serif" font-size="14.00" fill="white">5 %</text>
<text text-anchor="start" x="847.5" y="-68.3" font-family="Times,serif" font-size="14.00" fill="white">2 %</text>
<text text-anchor="start" x="847.5" y="-53.3" font-family="Times,serif" font-size="14.00" fill="white">1 %</text>
<text text-anchor="start" x="847.5" y="-38.3" font-family="Times,serif" font-size="14.00" fill="white">0 %</text>
<text text-anchor="start" x="847.5" y="-23.3" font-family="Times,serif" font-size="14.00" fill="white">0 %</text>
<text text-anchor="start" x="847.5" y="-8.3" font-family="Times,serif" font-size="14.00" fill="white"> </text>
</g>
</g>
</svg>
