<?xml version="1.0" encoding="UTF-8" standalone="no"?>
<!DOCTYPE svg PUBLIC "-//W3C//DTD SVG 1.1//EN"
 "http://www.w3.org/Graphics/SVG/1.1/DTD/svg11.dtd">
<!-- Generated by graphviz version 2.43.0 (0)
 -->
<!-- Title: G Pages: 1 -->
<svg width="740pt" height="1805pt"
 viewBox="0.00 0.00 740.00 1805.00" xmlns="http://www.w3.org/2000/svg" xmlns:xlink="http://www.w3.org/1999/xlink">
<g id="graph0" class="graph" transform="scale(1 1) rotate(0) translate(4 1801)">
<title>G</title>
<polygon fill="black" stroke="transparent" points="-4,4 -4,-1801 736,-1801 736,4 -4,4"/>
<text text-anchor="middle" x="319.5" y="-1781.8" font-family="Times,serif" font-size="14.00" fill="white">For tooltips with advanced information, hover your mouse over vertices or edge labels.</text>
<!-- 128968996499344 -->
<g id="node1" class="node">
<title>128968996499344</title>
<g id="a_node1"><a xlink:title="Output: 7 rows in 1 chunk, 8 µs 433 ns.">
<polygon fill="none" stroke="white" points="434.5,-1742 186.5,-1742 186.5,-1673 434.5,-1673 434.5,-1742"/>
<text text-anchor="middle" x="310.5" y="-1726.8" font-family="Times,serif" font-size="14.00" fill="white">Alias</text>
<text text-anchor="middle" x="310.5" y="-1711.8" font-family="Times,serif" font-size="14.00" fill="white">[cntrycode, numcust, totacctbal]</text>
<text text-anchor="middle" x="310.5" y="-1680.8" font-family="Times,serif" font-size="14.00" fill="white">8 µs 433 ns</text>
</a>
</g>
</g>
<!-- 128968996499024 -->
<g id="node2" class="node">
<title>128968996499024</title>
<g id="a_node2"><a xlink:title="Output: 7 rows in 1 chunk, 47 µs 565 ns.&#10;Operator step runtimes:&#10; MaterializeSortColumns 9 µs 189 ns&#10; Sort 10 µs 305 ns&#10; TemporaryResultWriting 105 ns&#10; WriteOutput 22 µs 660 ns.">
<polygon fill="none" stroke="white" points="364.5,-1622 256.5,-1622 256.5,-1568 364.5,-1568 364.5,-1622"/>
<text text-anchor="middle" x="310.5" y="-1606.8" font-family="Times,serif" font-size="14.00" fill="white">Sort</text>
<text text-anchor="middle" x="310.5" y="-1575.8" font-family="Times,serif" font-size="14.00" fill="white">47 µs 565 ns</text>
</a>
</g>
</g>
<!-- 128968996499024&#45;&gt;128968996499344 -->
<g id="edge1" class="edge">
<title>128968996499024&#45;&gt;128968996499344</title>
<path fill="none" stroke="white" d="M310.5,-1622.19C310.5,-1634.29 310.5,-1649 310.5,-1662.72"/>
<polygon fill="white" stroke="white" points="307,-1662.95 310.5,-1672.95 314,-1662.96 307,-1662.95"/>
<text text-anchor="middle" x="379.5" y="-1643.8" font-family="Times,serif" font-size="14.00" fill="white">7 row(s)/1 chunk(s)</text>
</g>
<!-- 128985696960528 -->
<g id="node3" class="node">
<title>128985696960528</title>
<g id="a_node3"><a xlink:title="Output: 7 rows in 1 chunk, 7 ms 87 µs.&#10;Operator step runtimes:&#10; GroupByKeyPartitioning 1 ms 5 µs&#10; Aggregating 6 ms 0 µs&#10; GroupByColumnsWriting 16 µs 687 ns&#10; AggregateColumnsWriting 30 µs 603 ns&#10; OutputWriting 14 µs 812 ns.">
<polygon fill="none" stroke="white" stroke-width="3.89" points="440,-1517 181,-1517 181,-1418 440,-1418 440,-1517"/>
<text text-anchor="middle" x="310.5" y="-1501.8" font-family="Times,serif" font-size="14.00" fill="white">AggregateHash</text>
<text text-anchor="middle" x="310.5" y="-1486.8" font-family="Times,serif" font-size="14.00" fill="white">GroupBy {SUBSTR(c_phone,1,2)}</text>
<text text-anchor="middle" x="310.5" y="-1471.8" font-family="Times,serif" font-size="14.00" fill="white">COUNT(*), </text>
<text text-anchor="middle" x="310.5" y="-1456.8" font-family="Times,serif" font-size="14.00" fill="white">SUM(c_acctbal)</text>
<text text-anchor="middle" x="310.5" y="-1425.8" font-family="Times,serif" font-size="14.00" fill="white">7 ms 87 µs</text>
</a>
</g>
</g>
<!-- 128985696960528&#45;&gt;128968996499024 -->
<g id="edge2" class="edge">
<title>128985696960528&#45;&gt;128968996499024</title>
<path fill="none" stroke="white" d="M310.5,-1517.02C310.5,-1530.49 310.5,-1544.89 310.5,-1557.54"/>
<polygon fill="white" stroke="white" points="307,-1557.7 310.5,-1567.7 314,-1557.7 307,-1557.7"/>
<text text-anchor="middle" x="379.5" y="-1538.8" font-family="Times,serif" font-size="14.00" fill="white">7 row(s)/1 chunk(s)</text>
</g>
<!-- 128968996498704 -->
<g id="node4" class="node">
<title>128968996498704</title>
<g id="a_node4"><a xlink:title="Output: 63741 rows in 99 chunks, 52 µs 498 ns.">
<polygon fill="none" stroke="white" points="396.5,-1367 224.5,-1367 224.5,-1298 396.5,-1298 396.5,-1367"/>
<text text-anchor="middle" x="310.5" y="-1351.8" font-family="Times,serif" font-size="14.00" fill="white">Alias</text>
<text text-anchor="middle" x="310.5" y="-1336.8" font-family="Times,serif" font-size="14.00" fill="white">[cntrycode, c_acctbal]</text>
<text text-anchor="middle" x="310.5" y="-1305.8" font-family="Times,serif" font-size="14.00" fill="white">52 µs 498 ns</text>
</a>
</g>
</g>
<!-- 128968996498704&#45;&gt;128985696960528 -->
<g id="edge3" class="edge">
<title>128968996498704&#45;&gt;128985696960528</title>
<path fill="none" stroke="white" d="M310.5,-1367.06C310.5,-1379.45 310.5,-1393.87 310.5,-1407.83"/>
<polygon fill="white" stroke="white" points="307,-1407.87 310.5,-1417.87 314,-1407.87 307,-1407.87"/>
<text text-anchor="middle" x="404" y="-1388.8" font-family="Times,serif" font-size="14.00" fill="white">63,741 row(s)/99 chunk(s)</text>
</g>
<!-- 128968996498384 -->
<g id="node5" class="node">
<title>128968996498384</title>
<g id="a_node5"><a xlink:title="Output: 63741 rows in 99 chunks, 1 ms 225 µs.&#10;Operator step runtimes:&#10; ForwardUnmodifiedColumns 71 µs 92 ns&#10; EvaluateNewColumns 990 µs 90 ns&#10; BuildOutput 132 µs 965 ns.">
<polygon fill="none" stroke="white" points="362.5,-1247 258.5,-1247 258.5,-1193 362.5,-1193 362.5,-1247"/>
<text text-anchor="middle" x="310.5" y="-1231.8" font-family="Times,serif" font-size="14.00" fill="white">Projection</text>
<text text-anchor="middle" x="310.5" y="-1200.8" font-family="Times,serif" font-size="14.00" fill="white">1 ms 225 µs</text>
</a>
</g>
</g>
<!-- 128968996498384&#45;&gt;128968996498704 -->
<g id="edge4" class="edge">
<title>128968996498384&#45;&gt;128968996498704</title>
<path fill="none" stroke="white" d="M310.5,-1247.19C310.5,-1259.29 310.5,-1274 310.5,-1287.72"/>
<polygon fill="white" stroke="white" points="307,-1287.95 310.5,-1297.95 314,-1287.96 307,-1287.95"/>
<text text-anchor="middle" x="404" y="-1268.8" font-family="Times,serif" font-size="14.00" fill="white">63,741 row(s)/99 chunk(s)</text>
</g>
<!-- 128968996498064 -->
<g id="node6" class="node">
<title>128968996498064</title>
<g id="a_node6"><a xlink:title="Output: 63741 rows in 99 chunks, 37 ms 489 µs.&#10;Operator step runtimes:&#10; LeftSideMaterialize 224 µs 92 ns&#10; RightSideMaterialize 4 ms 596 µs&#10; LeftSideTransform 0 ns&#10; RightSideTransform 0 ns&#10; LeftSidePartition 1 ms 574 µs&#10; RightSidePartition 14 ms 955 µs&#10; LeftSideSortBuckets 707 µs 80 ns&#10; RightSideSortBuckets 11 ms 427 µs&#10; GatherRowIds 2 µs 217 ns&#10; FindJoinPartner 1 ms 926 µs&#10; OutputWriting 1 ms 65 µs.">
<polygon fill="none" stroke="white" stroke-width="8" points="454,-1142 167,-1142 167,-1073 454,-1073 454,-1142"/>
<text text-anchor="middle" x="310.5" y="-1126.8" font-family="Times,serif" font-size="14.00" fill="white">JoinSimdSortMerge (AntiNullAsFalse)</text>
<text text-anchor="middle" x="310.5" y="-1111.8" font-family="Times,serif" font-size="14.00" fill="white">c_custkey = o_custkey</text>
<text text-anchor="middle" x="310.5" y="-1080.8" font-family="Times,serif" font-size="14.00" fill="white">37 ms 489 µs</text>
</a>
</g>
</g>
<!-- 128968996498064&#45;&gt;128968996498384 -->
<g id="edge5" class="edge">
<title>128968996498064&#45;&gt;128968996498384</title>
<path fill="none" stroke="white" d="M310.5,-1142.25C310.5,-1155.07 310.5,-1169.73 310.5,-1182.77"/>
<polygon fill="white" stroke="white" points="307,-1182.81 310.5,-1192.81 314,-1182.81 307,-1182.81"/>
<text text-anchor="middle" x="404" y="-1163.8" font-family="Times,serif" font-size="14.00" fill="white">63,741 row(s)/99 chunk(s)</text>
</g>
<!-- 128968996492944 -->
<g id="node7" class="node">
<title>128968996492944</title>
<g id="a_node7"><a xlink:title="Output: 190596 rows in 23 chunks, 11 ms 605 µs.&#10;Chunks: 0 skipped with no results, &#10;0 skipped with all matching, 0 scanned using binary search.">
<polygon fill="none" stroke="white" stroke-width="5.11" points="363,-1022 14,-1022 14,-923 363,-923 363,-1022"/>
<text text-anchor="middle" x="188.5" y="-1006.8" font-family="Times,serif" font-size="14.00" fill="white">TableScan</text>
<text text-anchor="middle" x="188.5" y="-991.8" font-family="Times,serif" font-size="14.00" fill="white">Impl: ExpressionEvaluator</text>
<text text-anchor="middle" x="188.5" y="-976.8" font-family="Times,serif" font-size="14.00" fill="white">(SUBSTR(c_phone,1,2)) IN (&#39;11&#39;, &#39;20&#39;, &#39;23&#39;, &#39;13&#39;,</text>
<text text-anchor="middle" x="188.5" y="-961.8" font-family="Times,serif" font-size="14.00" fill="white">&#39;25&#39;, &#39;18&#39;, &#39;33&#39;)</text>
<text text-anchor="middle" x="188.5" y="-930.8" font-family="Times,serif" font-size="14.00" fill="white">11 ms 605 µs</text>
</a>
</g>
</g>
<!-- 128968996492944&#45;&gt;128968996498064 -->
<g id="edge6" class="edge">
<title>128968996492944&#45;&gt;128968996498064</title>
<path fill="none" stroke="white" d="M194.71,-1022.31C197.98,-1033.93 202.95,-1045.65 210.5,-1055 213.79,-1059.07 217.49,-1062.86 221.47,-1066.37"/>
<polygon fill="white" stroke="white" points="221.66,-1066.52 219.47,-1069.25 229.45,-1072.79 221.66,-1066.52"/>
<text text-anchor="middle" x="308.5" y="-1043.8" font-family="Times,serif" font-size="14.00" fill="white">190,596 row(s)/23 chunk(s)</text>
</g>
<!-- 128968996492304 -->
<g id="node8" class="node">
<title>128968996492304</title>
<g id="a_node8"><a xlink:title="Output: 680982 rows in 23 chunks, 852 µs 750 ns.&#10;Chunks: 0 skipped with no results, &#10;0 skipped with all matching, 0 scanned using binary search.">
<polygon fill="none" stroke="white" points="359,-857 0,-857 0,-773 359,-773 359,-857"/>
<text text-anchor="middle" x="179.5" y="-841.8" font-family="Times,serif" font-size="14.00" fill="white">TableScan</text>
<text text-anchor="middle" x="179.5" y="-826.8" font-family="Times,serif" font-size="14.00" fill="white">Impl: ColumnVsValue</text>
<text text-anchor="middle" x="179.5" y="-811.8" font-family="Times,serif" font-size="14.00" fill="white">c_acctbal &gt; SUBQUERY (PQP, 0x754fd2a62c10)</text>
<text text-anchor="middle" x="179.5" y="-780.8" font-family="Times,serif" font-size="14.00" fill="white">852 µs 750 ns</text>
</a>
</g>
</g>
<!-- 128968996492304&#45;&gt;128968996492944 -->
<g id="edge7" class="edge">
<title>128968996492304&#45;&gt;128968996492944</title>
<path fill="none" stroke="white" d="M181.89,-857.26C182.87,-874.27 184.03,-894.29 185.1,-912.77"/>
<polygon fill="white" stroke="white" points="181.61,-913.08 185.68,-922.86 188.6,-912.67 181.61,-913.08"/>
<text text-anchor="middle" x="283.5" y="-893.8" font-family="Times,serif" font-size="14.00" fill="white">680,982 row(s)/23 chunk(s)</text>
</g>
<!-- 128985696896528 -->
<g id="node9" class="node">
<title>128985696896528</title>
<g id="a_node9"><a xlink:title="Output: 1500000 rows in 23 chunks, 134 µs 565 ns.">
<polygon fill="none" stroke="white" points="122,-692 5,-692 5,-638 122,-638 122,-692"/>
<text text-anchor="middle" x="63.5" y="-676.8" font-family="Times,serif" font-size="14.00" fill="white">Validate</text>
<text text-anchor="middle" x="63.5" y="-645.8" font-family="Times,serif" font-size="14.00" fill="white">134 µs 565 ns</text>
</a>
</g>
</g>
<!-- 128985696896528&#45;&gt;128968996492304 -->
<g id="edge8" class="edge">
<title>128985696896528&#45;&gt;128968996492304</title>
<path fill="none" stroke="white" stroke-width="2.32" d="M59.8,-692.3C58.99,-707.24 60.24,-725.74 68.5,-740 74.2,-749.84 81.8,-758.63 90.36,-766.41"/>
<polygon fill="white" stroke="white" stroke-width="2.32" points="88.22,-769.18 98.11,-772.99 92.75,-763.85 88.22,-769.18"/>
<text text-anchor="middle" x="173.5" y="-728.8" font-family="Times,serif" font-size="14.00" fill="white">1,500,000 row(s)/23 chunk(s)</text>
</g>
<!-- 128950894660240 -->
<g id="node10" class="node">
<title>128950894660240</title>
<g id="a_node10"><a xlink:title="Output: 1500000 rows in 23 chunks, 155 µs 398 ns.">
<polygon fill="none" stroke="white" points="122,-572 5,-572 5,-458 122,-458 122,-572"/>
<text text-anchor="middle" x="63.5" y="-556.8" font-family="Times,serif" font-size="14.00" fill="white">GetTable</text>
<text text-anchor="middle" x="63.5" y="-541.8" font-family="Times,serif" font-size="14.00" fill="white">(customer)</text>
<text text-anchor="middle" x="63.5" y="-526.8" font-family="Times,serif" font-size="14.00" fill="white">pruned:</text>
<text text-anchor="middle" x="63.5" y="-511.8" font-family="Times,serif" font-size="14.00" fill="white">0/23 chunk(s)</text>
<text text-anchor="middle" x="63.5" y="-496.8" font-family="Times,serif" font-size="14.00" fill="white">5/8 column(s)</text>
<text text-anchor="middle" x="63.5" y="-465.8" font-family="Times,serif" font-size="14.00" fill="white">155 µs 398 ns</text>
</a>
</g>
</g>
<!-- 128950894660240&#45;&gt;128985696896528 -->
<g id="edge9" class="edge">
<title>128950894660240&#45;&gt;128985696896528</title>
<path fill="none" stroke="white" stroke-width="2.32" d="M63.5,-572.37C63.5,-590.87 63.5,-610.92 63.5,-627.54"/>
<polygon fill="white" stroke="white" stroke-width="2.32" points="60,-627.92 63.5,-637.92 67,-627.92 60,-627.92"/>
<text text-anchor="middle" x="168.5" y="-593.8" font-family="Times,serif" font-size="14.00" fill="white">1,500,000 row(s)/23 chunk(s)</text>
</g>
<!-- 128985696971792 -->
<g id="node11" class="node">
<title>128985696971792</title>
<g id="a_node11"><a xlink:title="Output: 1 row in 1 chunk, 2 ms 366 µs.&#10;Operator step runtimes:&#10; GroupByKeyPartitioning 35 ns&#10; Aggregating 2 ms 308 µs&#10; GroupByColumnsWriting 1 µs 975 ns&#10; AggregateColumnsWriting 28 µs 365 ns&#10; OutputWriting 13 µs 570 ns.">
<polygon fill="none" stroke="white" stroke-width="1.19" points="366.5,-707 238.5,-707 238.5,-623 366.5,-623 366.5,-707"/>
<text text-anchor="middle" x="302.5" y="-691.8" font-family="Times,serif" font-size="14.00" fill="white">AggregateHash</text>
<text text-anchor="middle" x="302.5" y="-676.8" font-family="Times,serif" font-size="14.00" fill="white">GroupBy {}</text>
<text text-anchor="middle" x="302.5" y="-661.8" font-family="Times,serif" font-size="14.00" fill="white">AVG(c_acctbal)</text>
<text text-anchor="middle" x="302.5" y="-630.8" font-family="Times,serif" font-size="14.00" fill="white">2 ms 366 µs</text>
</a>
</g>
</g>
<!-- 128985696971792&#45;&gt;128968996492304 -->
<g id="edge10" class="edge">
<title>128985696971792&#45;&gt;128968996492304</title>
<path fill="none" stroke="white" stroke-dasharray="5,2" d="M294,-707.29C290.42,-718.57 285.42,-730.34 278.5,-740 271.67,-749.54 263.24,-758.38 254.2,-766.39"/>
<polygon fill="white" stroke="white" points="251.87,-763.78 246.5,-772.92 256.39,-769.13 251.87,-763.78"/>
<text text-anchor="middle" x="369" y="-728.8" font-family="Times,serif" font-size="14.00" fill="white">uncorrelated subquery</text>
</g>
<!-- 128968996490704 -->
<g id="node12" class="node">
<title>128968996490704</title>
<g id="a_node12"><a xlink:title="Output: 381812 rows in 23 chunks, 23 ms 57 µs.&#10;Chunks: 0 skipped with no results, &#10;0 skipped with all matching, 0 scanned using binary search.">
<polygon fill="none" stroke="white" stroke-width="6.8" points="489,-564.5 140,-564.5 140,-465.5 489,-465.5 489,-564.5"/>
<text text-anchor="middle" x="314.5" y="-549.3" font-family="Times,serif" font-size="14.00" fill="white">TableScan</text>
<text text-anchor="middle" x="314.5" y="-534.3" font-family="Times,serif" font-size="14.00" fill="white">Impl: ExpressionEvaluator</text>
<text text-anchor="middle" x="314.5" y="-519.3" font-family="Times,serif" font-size="14.00" fill="white">(SUBSTR(c_phone,1,2)) IN (&#39;11&#39;, &#39;20&#39;, &#39;23&#39;, &#39;13&#39;,</text>
<text text-anchor="middle" x="314.5" y="-504.3" font-family="Times,serif" font-size="14.00" fill="white">&#39;25&#39;, &#39;18&#39;, &#39;33&#39;)</text>
<text text-anchor="middle" x="314.5" y="-473.3" font-family="Times,serif" font-size="14.00" fill="white">23 ms 57 µs</text>
</a>
</g>
</g>
<!-- 128968996490704&#45;&gt;128985696971792 -->
<g id="edge11" class="edge">
<title>128968996490704&#45;&gt;128985696971792</title>
<path fill="none" stroke="white" d="M310.54,-564.87C309.31,-580.06 307.94,-596.85 306.7,-612.23"/>
<polygon fill="white" stroke="white" points="303.18,-612.36 305.86,-622.61 310.15,-612.92 303.18,-612.36"/>
<text text-anchor="middle" x="406.5" y="-593.8" font-family="Times,serif" font-size="14.00" fill="white">381,812 row(s)/23 chunk(s)</text>
</g>
<!-- 128985696898832 -->
<g id="node13" class="node">
<title>128985696898832</title>
<g id="a_node13"><a xlink:title="Output: 1363614 rows in 23 chunks, 85 µs 914 ns.">
<polygon fill="none" stroke="white" points="368.5,-407 260.5,-407 260.5,-353 368.5,-353 368.5,-407"/>
<text text-anchor="middle" x="314.5" y="-391.8" font-family="Times,serif" font-size="14.00" fill="white">Validate</text>
<text text-anchor="middle" x="314.5" y="-360.8" font-family="Times,serif" font-size="14.00" fill="white">85 µs 914 ns</text>
</a>
</g>
</g>
<!-- 128985696898832&#45;&gt;128968996490704 -->
<g id="edge12" class="edge">
<title>128985696898832&#45;&gt;128968996490704</title>
<path fill="none" stroke="white" stroke-width="2.09" d="M314.5,-407.28C314.5,-421.01 314.5,-438.4 314.5,-455.14"/>
<polygon fill="white" stroke="white" stroke-width="2.09" points="311,-455.44 314.5,-465.44 318,-455.44 311,-455.44"/>
<text text-anchor="middle" x="419.5" y="-428.8" font-family="Times,serif" font-size="14.00" fill="white">1,363,614 row(s)/23 chunk(s)</text>
</g>
<!-- 128968996488144 -->
<g id="node14" class="node">
<title>128968996488144</title>
<g id="a_node14"><a xlink:title="Output: 1363614 rows in 23 chunks, 583 µs 61 ns.&#10;Chunks: 0 skipped with no results, &#10;0 skipped with all matching, 0 scanned using binary search.">
<polygon fill="none" stroke="white" points="399,-302 230,-302 230,-218 399,-218 399,-302"/>
<text text-anchor="middle" x="314.5" y="-286.8" font-family="Times,serif" font-size="14.00" fill="white">TableScan</text>
<text text-anchor="middle" x="314.5" y="-271.8" font-family="Times,serif" font-size="14.00" fill="white">Impl: ColumnVsValue</text>
<text text-anchor="middle" x="314.5" y="-256.8" font-family="Times,serif" font-size="14.00" fill="white">c_acctbal &gt; 0</text>
<text text-anchor="middle" x="314.5" y="-225.8" font-family="Times,serif" font-size="14.00" fill="white">583 µs 61 ns</text>
</a>
</g>
</g>
<!-- 128968996488144&#45;&gt;128985696898832 -->
<g id="edge13" class="edge">
<title>128968996488144&#45;&gt;128985696898832</title>
<path fill="none" stroke="white" stroke-width="2.09" d="M314.5,-302.27C314.5,-315.36 314.5,-329.72 314.5,-342.45"/>
<polygon fill="white" stroke="white" stroke-width="2.09" points="311,-342.69 314.5,-352.69 318,-342.69 311,-342.69"/>
<text text-anchor="middle" x="419.5" y="-323.8" font-family="Times,serif" font-size="14.00" fill="white">1,363,614 row(s)/23 chunk(s)</text>
</g>
<!-- 128950894660688 -->
<g id="node15" class="node">
<title>128950894660688</title>
<g id="a_node15"><a xlink:title="Output: 1500000 rows in 23 chunks, 102 µs 332 ns.">
<polygon fill="none" stroke="white" points="373,-140.5 256,-140.5 256,-26.5 373,-26.5 373,-140.5"/>
<text text-anchor="middle" x="314.5" y="-125.3" font-family="Times,serif" font-size="14.00" fill="white">GetTable</text>
<text text-anchor="middle" x="314.5" y="-110.3" font-family="Times,serif" font-size="14.00" fill="white">(customer)</text>
<text text-anchor="middle" x="314.5" y="-95.3" font-family="Times,serif" font-size="14.00" fill="white">pruned:</text>
<text text-anchor="middle" x="314.5" y="-80.3" font-family="Times,serif" font-size="14.00" fill="white">0/23 chunk(s)</text>
<text text-anchor="middle" x="314.5" y="-65.3" font-family="Times,serif" font-size="14.00" fill="white">5/8 column(s)</text>
<text text-anchor="middle" x="314.5" y="-34.3" font-family="Times,serif" font-size="14.00" fill="white">102 µs 332 ns</text>
</a>
</g>
</g>
<!-- 128950894660688&#45;&gt;128968996488144 -->
<g id="edge14" class="edge">
<title>128950894660688&#45;&gt;128968996488144</title>
<path fill="none" stroke="white" stroke-width="2.32" d="M314.5,-140.67C314.5,-162.25 314.5,-186.74 314.5,-207.83"/>
<polygon fill="white" stroke="white" stroke-width="2.32" points="311,-207.87 314.5,-217.87 318,-207.87 311,-207.87"/>
<text text-anchor="middle" x="419.5" y="-188.8" font-family="Times,serif" font-size="14.00" fill="white">1,500,000 row(s)/23 chunk(s)</text>
</g>
<!-- 128985696898576 -->
<g id="node16" class="node">
<title>128985696898576</title>
<g id="a_node16"><a xlink:title="Output: 15000000 rows in 229 chunks, 1 ms 145 µs.">
<polygon fill="none" stroke="white" points="488.5,-999.5 384.5,-999.5 384.5,-945.5 488.5,-945.5 488.5,-999.5"/>
<text text-anchor="middle" x="436.5" y="-984.3" font-family="Times,serif" font-size="14.00" fill="white">Validate</text>
<text text-anchor="middle" x="436.5" y="-953.3" font-family="Times,serif" font-size="14.00" fill="white">1 ms 145 µs</text>
</a>
</g>
</g>
<!-- 128985696898576&#45;&gt;128968996498064 -->
<g id="edge15" class="edge">
<title>128985696898576&#45;&gt;128968996498064</title>
<path fill="none" stroke="white" stroke-width="8" d="M431.86,-999.85C427.69,-1017.17 420.05,-1039.41 406.5,-1055 402.86,-1059.19 398.78,-1063.1 394.43,-1066.74"/>
<polygon fill="white" stroke="white" stroke-width="8" points="386.32,-1072.99 398.51,-1072.43 394.24,-1066.88 386.32,-1072.99"/>
<text text-anchor="middle" x="530.5" y="-1043.8" font-family="Times,serif" font-size="14.00" fill="white">15,000,000 row(s)/229 chunk(s)</text>
</g>
<!-- 128950894661136 -->
<g id="node17" class="node">
<title>128950894661136</title>
<g id="a_node17"><a xlink:title="Output: 15000000 rows in 229 chunks, 628 µs 582 ns.">
<polygon fill="none" stroke="white" points="499.5,-872 377.5,-872 377.5,-758 499.5,-758 499.5,-872"/>
<text text-anchor="middle" x="438.5" y="-856.8" font-family="Times,serif" font-size="14.00" fill="white">GetTable</text>
<text text-anchor="middle" x="438.5" y="-841.8" font-family="Times,serif" font-size="14.00" fill="white">(orders)</text>
<text text-anchor="middle" x="438.5" y="-826.8" font-family="Times,serif" font-size="14.00" fill="white">pruned:</text>
<text text-anchor="middle" x="438.5" y="-811.8" font-family="Times,serif" font-size="14.00" fill="white">0/229 chunk(s)</text>
<text text-anchor="middle" x="438.5" y="-796.8" font-family="Times,serif" font-size="14.00" fill="white">8/9 column(s)</text>
<text text-anchor="middle" x="438.5" y="-765.8" font-family="Times,serif" font-size="14.00" fill="white">628 µs 582 ns</text>
</a>
</g>
</g>
<!-- 128950894661136&#45;&gt;128985696898576 -->
<g id="edge16" class="edge">
<title>128950894661136&#45;&gt;128985696898576</title>
<path fill="none" stroke="white" stroke-width="8" d="M437.78,-872.14C437.51,-893.18 437.21,-916.52 436.97,-935.28"/>
<polygon fill="white" stroke="white" stroke-width="8" points="429.96,-935.38 436.83,-945.47 443.96,-935.56 429.96,-935.38"/>
<text text-anchor="middle" x="551.5" y="-893.8" font-family="Times,serif" font-size="14.00" fill="white">15,000,000 row(s)/229 chunk(s)</text>
</g>
<!-- 0 -->
<g id="node18" class="node">
<title>0</title>
<polygon fill="none" stroke="white" points="391,-0.5 391,-166.5 732,-166.5 732,-0.5 391,-0.5"/>
<text text-anchor="middle" x="561.5" y="-151.3" font-family="Times,serif" font-size="14.00" fill="white">Total by operator</text>
<polyline fill="none" stroke="white" points="391,-143.5 732,-143.5 "/>
<text text-anchor="end" x="545" y="-128.3" font-family="Times,serif" font-size="14.00" fill="white">JoinSimdSortMerge </text>
<text text-anchor="end" x="545" y="-113.3" font-family="Times,serif" font-size="14.00" fill="white"> TableScan </text>
<text text-anchor="end" x="545" y="-98.3" font-family="Times,serif" font-size="14.00" fill="white"> AggregateHash </text>
<text text-anchor="end" x="545" y="-83.3" font-family="Times,serif" font-size="14.00" fill="white"> Validate </text>
<text text-anchor="end" x="545" y="-68.3" font-family="Times,serif" font-size="14.00" fill="white"> Projection </text>
<text text-anchor="end" x="545" y="-53.3" font-family="Times,serif" font-size="14.00" fill="white"> GetTable </text>
<text text-anchor="end" x="545" y="-38.3" font-family="Times,serif" font-size="14.00" fill="white"> Alias </text>
<text text-anchor="end" x="545" y="-23.3" font-family="Times,serif" font-size="14.00" fill="white"> Sort </text>
<text text-anchor="end" x="545" y="-8.3" font-family="Times,serif" font-size="14.00" fill="white">total</text>
<polyline fill="none" stroke="white" points="553,-0.5 553,-143.5 "/>
<text text-anchor="start" x="561" y="-128.3" font-family="Times,serif" font-size="14.00" fill="white">37 ms 489 µs </text>
<text text-anchor="start" x="561" y="-113.3" font-family="Times,serif" font-size="14.00" fill="white"> 36 ms 98 µs </text>
<text text-anchor="start" x="561" y="-98.3" font-family="Times,serif" font-size="14.00" fill="white"> 9 ms 453 µs </text>
<text text-anchor="start" x="561" y="-83.3" font-family="Times,serif" font-size="14.00" fill="white"> 1 ms 365 µs </text>
<text text-anchor="start" x="561" y="-68.3" font-family="Times,serif" font-size="14.00" fill="white"> 1 ms 225 µs </text>
<text text-anchor="start" x="561" y="-53.3" font-family="Times,serif" font-size="14.00" fill="white"> 886 µs 312 ns </text>
<text text-anchor="start" x="561" y="-38.3" font-family="Times,serif" font-size="14.00" fill="white"> 60 µs 931 ns </text>
<text text-anchor="start" x="561" y="-23.3" font-family="Times,serif" font-size="14.00" fill="white"> 47 µs 565 ns </text>
<text text-anchor="start" x="561" y="-8.3" font-family="Times,serif" font-size="14.00" fill="white"> 86 ms 624 µs </text>
<polyline fill="none" stroke="white" points="679,-0.5 679,-143.5 "/>
<text text-anchor="start" x="687" y="-128.3" font-family="Times,serif" font-size="14.00" fill="white">43 %</text>
<text text-anchor="start" x="687" y="-113.3" font-family="Times,serif" font-size="14.00" fill="white">42 %</text>
<text text-anchor="start" x="687" y="-98.3" font-family="Times,serif" font-size="14.00" fill="white">11 %</text>
<text text-anchor="start" x="687" y="-83.3" font-family="Times,serif" font-size="14.00" fill="white">2 %</text>
<text text-anchor="start" x="687" y="-68.3" font-family="Times,serif" font-size="14.00" fill="white">1 %</text>
<text text-anchor="start" x="687" y="-53.3" font-family="Times,serif" font-size="14.00" fill="white">1 %</text>
<text text-anchor="start" x="687" y="-38.3" font-family="Times,serif" font-size="14.00" fill="white">0 %</text>
<text text-anchor="start" x="687" y="-23.3" font-family="Times,serif" font-size="14.00" fill="white">0 %</text>
<text text-anchor="start" x="687" y="-8.3" font-family="Times,serif" font-size="14.00" fill="white"> </text>
</g>
</g>
</svg>
