<?xml version="1.0" encoding="UTF-8" standalone="no"?>
<!DOCTYPE svg PUBLIC "-//W3C//DTD SVG 1.1//EN"
 "http://www.w3.org/Graphics/SVG/1.1/DTD/svg11.dtd">
<!-- Generated by graphviz version 2.43.0 (0)
 -->
<!-- Title: G Pages: 1 -->
<svg width="779pt" height="2420pt"
 viewBox="0.00 0.00 778.50 2420.00" xmlns="http://www.w3.org/2000/svg" xmlns:xlink="http://www.w3.org/1999/xlink">
<g id="graph0" class="graph" transform="scale(1 1) rotate(0) translate(4 2416)">
<title>G</title>
<polygon fill="black" stroke="transparent" points="-4,4 -4,-2416 774.5,-2416 774.5,4 -4,4"/>
<text text-anchor="middle" x="319.5" y="-2396.8" font-family="Times,serif" font-size="14.00" fill="white">For tooltips with advanced information, hover your mouse over vertices or edge labels.</text>
<!-- 128968390704080 -->
<g id="node1" class="node">
<title>128968390704080</title>
<g id="a_node1"><a xlink:title="Output: 1737 rows in 1 chunk, 8 µs 92 ns.&#10;Operator step runtimes:&#10; ForwardUnmodifiedColumns 1 µs 928 ns&#10; EvaluateNewColumns 630 ns&#10; BuildOutput 3 µs 752 ns.">
<polygon fill="none" stroke="white" points="515.5,-2357 425.5,-2357 425.5,-2303 515.5,-2303 515.5,-2357"/>
<text text-anchor="middle" x="470.5" y="-2341.8" font-family="Times,serif" font-size="14.00" fill="white">Projection</text>
<text text-anchor="middle" x="470.5" y="-2310.8" font-family="Times,serif" font-size="14.00" fill="white">8 µs 92 ns</text>
</a>
</g>
</g>
<!-- 128968390703760 -->
<g id="node2" class="node">
<title>128968390703760</title>
<g id="a_node2"><a xlink:title="Output: 1737 rows in 1 chunk, 1 ms 928 µs.&#10;Operator step runtimes:&#10; MaterializeSortColumns 731 µs 705 ns&#10; Sort 1 ms 90 µs&#10; TemporaryResultWriting 5 µs 68 ns&#10; WriteOutput 56 µs 756 ns.">
<polygon fill="none" stroke="white" points="522.5,-2252 418.5,-2252 418.5,-2198 522.5,-2198 522.5,-2252"/>
<text text-anchor="middle" x="470.5" y="-2236.8" font-family="Times,serif" font-size="14.00" fill="white">Sort</text>
<text text-anchor="middle" x="470.5" y="-2205.8" font-family="Times,serif" font-size="14.00" fill="white">1 ms 928 µs</text>
</a>
</g>
</g>
<!-- 128968390703760&#45;&gt;128968390704080 -->
<g id="edge1" class="edge">
<title>128968390703760&#45;&gt;128968390704080</title>
<path fill="none" stroke="white" d="M470.5,-2252.26C470.5,-2264.49 470.5,-2279.24 470.5,-2292.52"/>
<polygon fill="white" stroke="white" points="467,-2292.79 470.5,-2302.79 474,-2292.79 467,-2292.79"/>
<text text-anchor="middle" x="555" y="-2273.8" font-family="Times,serif" font-size="14.00" fill="white">1,737 row(s)/1 chunk(s)</text>
</g>
<!-- 128984983604752 -->
<g id="node3" class="node">
<title>128984983604752</title>
<g id="a_node3"><a xlink:title="Output: 1737 rows in 1 chunk, 27 µs 652 ns.">
<polygon fill="none" stroke="white" points="524.5,-2147 416.5,-2147 416.5,-2093 524.5,-2093 524.5,-2147"/>
<text text-anchor="middle" x="470.5" y="-2131.8" font-family="Times,serif" font-size="14.00" fill="white">Validate</text>
<text text-anchor="middle" x="470.5" y="-2100.8" font-family="Times,serif" font-size="14.00" fill="white">27 µs 652 ns</text>
</a>
</g>
</g>
<!-- 128984983604752&#45;&gt;128968390703760 -->
<g id="edge2" class="edge">
<title>128984983604752&#45;&gt;128968390703760</title>
<path fill="none" stroke="white" d="M470.5,-2147.26C470.5,-2159.49 470.5,-2174.24 470.5,-2187.52"/>
<polygon fill="white" stroke="white" points="467,-2187.79 470.5,-2197.79 474,-2187.79 467,-2187.79"/>
<text text-anchor="middle" x="555" y="-2168.8" font-family="Times,serif" font-size="14.00" fill="white">1,737 row(s)/1 chunk(s)</text>
</g>
<!-- 128968390703440 -->
<g id="node4" class="node">
<title>128968390703440</title>
<g id="a_node4"><a xlink:title="Output: 1737 rows in 1 chunk, 2 ms 418 µs.&#10;Operator step runtimes:&#10; LeftSideMaterialize 304 µs 691 ns&#10; RightSideMaterialize 7 µs 101 ns&#10; LeftSideTransform 0 ns&#10; RightSideTransform 0 ns&#10; LeftSidePartition 344 µs 632 ns&#10; RightSidePartition 8 µs 238 ns&#10; LeftSideSortBuckets 747 µs 745 ns&#10; RightSideSortBuckets 690 µs 906 ns&#10; GatherRowIds 594 ns&#10; FindJoinPartner 62 µs 752 ns&#10; OutputWriting 152 µs 598 ns.">
<polygon fill="none" stroke="white" points="575,-2042 366,-2042 366,-1973 575,-1973 575,-2042"/>
<text text-anchor="middle" x="470.5" y="-2026.8" font-family="Times,serif" font-size="14.00" fill="white">JoinSimdSortMerge (Semi)</text>
<text text-anchor="middle" x="470.5" y="-2011.8" font-family="Times,serif" font-size="14.00" fill="white">s_nationkey = n_nationkey</text>
<text text-anchor="middle" x="470.5" y="-1980.8" font-family="Times,serif" font-size="14.00" fill="white">2 ms 418 µs</text>
</a>
</g>
</g>
<!-- 128968390703440&#45;&gt;128984983604752 -->
<g id="edge3" class="edge">
<title>128968390703440&#45;&gt;128984983604752</title>
<path fill="none" stroke="white" d="M470.5,-2042.25C470.5,-2055.07 470.5,-2069.73 470.5,-2082.77"/>
<polygon fill="white" stroke="white" points="467,-2082.81 470.5,-2092.81 474,-2082.81 467,-2082.81"/>
<text text-anchor="middle" x="555" y="-2063.8" font-family="Times,serif" font-size="14.00" fill="white">1,737 row(s)/1 chunk(s)</text>
</g>
<!-- 128968390702800 -->
<g id="node5" class="node">
<title>128968390702800</title>
<g id="a_node5"><a xlink:title="Output: 44542 rows in 85 chunks, 7 ms 664 µs.&#10;Operator step runtimes:&#10; LeftSideMaterialize 216 µs 934 ns&#10; RightSideMaterialize 1 ms 280 µs&#10; LeftSideTransform 0 ns&#10; RightSideTransform 0 ns&#10; LeftSidePartition 2 ms 43 µs&#10; RightSidePartition 1 ms 485 µs&#10; LeftSideSortBuckets 725 µs 407 ns&#10; RightSideSortBuckets 737 µs 565 ns&#10; GatherRowIds 847 ns&#10; FindJoinPartner 515 µs 629 ns&#10; OutputWriting 503 µs 561 ns.">
<polygon fill="none" stroke="white" stroke-width="2.01" points="470,-1922 261,-1922 261,-1853 470,-1853 470,-1922"/>
<text text-anchor="middle" x="365.5" y="-1906.8" font-family="Times,serif" font-size="14.00" fill="white">JoinSimdSortMerge (Semi)</text>
<text text-anchor="middle" x="365.5" y="-1891.8" font-family="Times,serif" font-size="14.00" fill="white">s_suppkey = ps_suppkey</text>
<text text-anchor="middle" x="365.5" y="-1860.8" font-family="Times,serif" font-size="14.00" fill="white">7 ms 664 µs</text>
</a>
</g>
</g>
<!-- 128968390702800&#45;&gt;128968390703440 -->
<g id="edge4" class="edge">
<title>128968390702800&#45;&gt;128968390703440</title>
<path fill="none" stroke="white" d="M359.27,-1922.29C358.9,-1933.44 360.46,-1945.43 366.5,-1955 368.99,-1958.94 371.87,-1962.59 375.07,-1965.97"/>
<polygon fill="white" stroke="white" points="375.21,-1966.1 372.82,-1968.66 382.51,-1972.93 375.21,-1966.1"/>
<text text-anchor="middle" x="460" y="-1943.8" font-family="Times,serif" font-size="14.00" fill="white">44,542 row(s)/85 chunk(s)</text>
</g>
<!-- 128968729828816 -->
<g id="node6" class="node">
<title>128968729828816</title>
<g id="a_node6"><a xlink:title="Output: 100000 rows in 2 chunks, 22 µs 149 ns.">
<polygon fill="none" stroke="white" points="422,-1802 309,-1802 309,-1688 422,-1688 422,-1802"/>
<text text-anchor="middle" x="365.5" y="-1786.8" font-family="Times,serif" font-size="14.00" fill="white">GetTable</text>
<text text-anchor="middle" x="365.5" y="-1771.8" font-family="Times,serif" font-size="14.00" fill="white">(supplier)</text>
<text text-anchor="middle" x="365.5" y="-1756.8" font-family="Times,serif" font-size="14.00" fill="white">pruned:</text>
<text text-anchor="middle" x="365.5" y="-1741.8" font-family="Times,serif" font-size="14.00" fill="white">0/2 chunk(s)</text>
<text text-anchor="middle" x="365.5" y="-1726.8" font-family="Times,serif" font-size="14.00" fill="white">3/7 column(s)</text>
<text text-anchor="middle" x="365.5" y="-1695.8" font-family="Times,serif" font-size="14.00" fill="white">22 µs 149 ns</text>
</a>
</g>
</g>
<!-- 128968729828816&#45;&gt;128968390702800 -->
<g id="edge5" class="edge">
<title>128968729828816&#45;&gt;128968390702800</title>
<path fill="none" stroke="white" d="M365.5,-1802.34C365.5,-1815.7 365.5,-1829.76 365.5,-1842.48"/>
<polygon fill="white" stroke="white" points="365.5,-1842.8 362,-1842.8 365.5,-1852.8 365.5,-1842.8"/>
<text text-anchor="middle" x="459" y="-1823.8" font-family="Times,serif" font-size="14.00" fill="white">100,000 row(s)/2 chunk(s)</text>
</g>
<!-- 128968390702480 -->
<g id="node7" class="node">
<title>128968390702480</title>
<g id="a_node7"><a xlink:title="Output: 58719 rows in 86 chunks, 85 µs 875 ns.&#10;Operator step runtimes:&#10; ForwardUnmodifiedColumns 33 µs 576 ns&#10; EvaluateNewColumns 359 ns&#10; BuildOutput 32 µs 375 ns.">
<polygon fill="none" stroke="white" points="209.5,-1772 101.5,-1772 101.5,-1718 209.5,-1718 209.5,-1772"/>
<text text-anchor="middle" x="155.5" y="-1756.8" font-family="Times,serif" font-size="14.00" fill="white">Projection</text>
<text text-anchor="middle" x="155.5" y="-1725.8" font-family="Times,serif" font-size="14.00" fill="white">85 µs 875 ns</text>
</a>
</g>
</g>
<!-- 128968390702480&#45;&gt;128968390702800 -->
<g id="edge6" class="edge">
<title>128968390702480&#45;&gt;128968390702800</title>
<path fill="none" stroke="white" d="M154.23,-1772.31C154.73,-1792.03 158.74,-1818.38 174.5,-1835 194.58,-1856.18 222.38,-1868.97 250.56,-1876.61"/>
<polygon fill="white" stroke="white" points="260.53,-1879.1 251.67,-1873.28 250.82,-1876.68 260.53,-1879.1"/>
<text text-anchor="middle" x="268" y="-1823.8" font-family="Times,serif" font-size="14.00" fill="white">58,719 row(s)/86 chunk(s)</text>
</g>
<!-- 128968390702160 -->
<g id="node8" class="node">
<title>128968390702160</title>
<g id="a_node8"><a xlink:title="Output: 58719 rows in 86 chunks, 28 ms 554 µs.&#10;Operator step runtimes:&#10; LeftSideMaterialize 1 ms 400 µs&#10; RightSideMaterialize 3 ms 922 µs&#10; LeftSideTransform 0 ns&#10; RightSideTransform 0 ns&#10; LeftSidePartition 2 ms 361 µs&#10; RightSidePartition 1 ms 479 µs&#10; LeftSideSortBuckets 744 µs 190 ns&#10; RightSideSortBuckets 752 µs 625 ns&#10; GatherRowIds 791 ns&#10; FindJoinPartner 16 ms 882 µs&#10; OutputWriting 815 µs 846 ns.">
<polygon fill="none" stroke="white" stroke-width="5.26" points="311,-1629.5 0,-1629.5 0,-1530.5 311,-1530.5 311,-1629.5"/>
<text text-anchor="middle" x="155.5" y="-1614.3" font-family="Times,serif" font-size="14.00" fill="white">JoinSimdSortMerge (Semi)</text>
<text text-anchor="middle" x="155.5" y="-1599.3" font-family="Times,serif" font-size="14.00" fill="white">ps_suppkey = l_suppkey</text>
<text text-anchor="middle" x="155.5" y="-1584.3" font-family="Times,serif" font-size="14.00" fill="white">AND ps_availqty &gt; 0.5 * SUM(l_quantity)</text>
<text text-anchor="middle" x="155.5" y="-1569.3" font-family="Times,serif" font-size="14.00" fill="white">AND ps_partkey = l_partkey</text>
<text text-anchor="middle" x="155.5" y="-1538.3" font-family="Times,serif" font-size="14.00" fill="white">28 ms 554 µs</text>
</a>
</g>
</g>
<!-- 128968390702160&#45;&gt;128968390702480 -->
<g id="edge7" class="edge">
<title>128968390702160&#45;&gt;128968390702480</title>
<path fill="none" stroke="white" d="M155.5,-1629.91C155.5,-1654.95 155.5,-1684.92 155.5,-1707.85"/>
<polygon fill="white" stroke="white" points="152,-1707.85 155.5,-1717.85 159,-1707.85 152,-1707.85"/>
<text text-anchor="middle" x="249" y="-1658.8" font-family="Times,serif" font-size="14.00" fill="white">58,719 row(s)/86 chunk(s)</text>
</g>
<!-- 128984983613968 -->
<g id="node9" class="node">
<title>128984983613968</title>
<g id="a_node9"><a xlink:title="Output: 86420 rows in 128 chunks, 509 µs 25 ns.">
<polygon fill="none" stroke="white" points="239.5,-849.5 131.5,-849.5 131.5,-795.5 239.5,-795.5 239.5,-849.5"/>
<text text-anchor="middle" x="185.5" y="-834.3" font-family="Times,serif" font-size="14.00" fill="white">Validate</text>
<text text-anchor="middle" x="185.5" y="-803.3" font-family="Times,serif" font-size="14.00" fill="white">509 µs 25 ns</text>
</a>
</g>
</g>
<!-- 128984983613968&#45;&gt;128968390702160 -->
<g id="edge8" class="edge">
<title>128984983613968&#45;&gt;128968390702160</title>
<path fill="none" stroke="white" d="M170.69,-849.58C157.24,-875.76 139.5,-917.65 139.5,-956.5 139.5,-956.5 139.5,-956.5 139.5,-1446 139.5,-1470.41 142.19,-1497.16 145.36,-1520.24"/>
<polygon fill="white" stroke="white" points="145.38,-1520.32 141.91,-1520.81 146.8,-1530.22 145.38,-1520.32"/>
<text text-anchor="middle" x="237.5" y="-1186.3" font-family="Times,serif" font-size="14.00" fill="white">86,420 row(s)/128 chunk(s)</text>
</g>
<!-- 128968390700880 -->
<g id="node19" class="node">
<title>128968390700880</title>
<g id="a_node19"><a xlink:title="Output: 98251 rows in 128 chunks, 14 ms 786 µs.&#10;Operator step runtimes:&#10; LeftSideMaterialize 5 ms 559 µs&#10; RightSideMaterialize 1 ms 378 µs&#10; LeftSideTransform 0 ns&#10; RightSideTransform 0 ns&#10; LeftSidePartition 2 ms 607 µs&#10; RightSidePartition 2 ms 186 µs&#10; LeftSideSortBuckets 736 µs 57 ns&#10; RightSideSortBuckets 737 µs 668 ns&#10; GatherRowIds 1 µs 27 ns&#10; FindJoinPartner 441 µs 436 ns&#10; OutputWriting 957 µs 940 ns.">
<polygon fill="none" stroke="white" stroke-width="3.63" points="555,-1112 270,-1112 270,-1043 555,-1043 555,-1112"/>
<text text-anchor="middle" x="412.5" y="-1096.8" font-family="Times,serif" font-size="14.00" fill="white">JoinSimdSortMerge (Semi Reduction)</text>
<text text-anchor="middle" x="412.5" y="-1081.8" font-family="Times,serif" font-size="14.00" fill="white">l_suppkey = ps_suppkey</text>
<text text-anchor="middle" x="412.5" y="-1050.8" font-family="Times,serif" font-size="14.00" fill="white">14 ms 786 µs</text>
</a>
</g>
</g>
<!-- 128984983613968&#45;&gt;128968390700880 -->
<g id="edge10" class="edge">
<title>128984983613968&#45;&gt;128968390700880</title>
<path fill="none" stroke="white" d="M178.85,-849.74C171.42,-885.54 164.07,-950.02 194.5,-992 211.12,-1014.93 234.88,-1031.64 260.64,-1043.81"/>
<polygon fill="white" stroke="white" points="269.83,-1047.93 262.14,-1040.65 260.71,-1043.84 269.83,-1047.93"/>
<text text-anchor="middle" x="292.5" y="-953.8" font-family="Times,serif" font-size="14.00" fill="white">86,420 row(s)/128 chunk(s)</text>
</g>
<!-- 128968390700560 -->
<g id="node20" class="node">
<title>128968390700560</title>
<g id="a_node20"><a xlink:title="Output: 98251 rows in 128 chunks, 38 ms 167 µs.&#10;Operator step runtimes:&#10; LeftSideMaterialize 9 ms 334 µs&#10; RightSideMaterialize 1 ms 457 µs&#10; LeftSideTransform 0 ns&#10; RightSideTransform 0 ns&#10; LeftSidePartition 10 ms 630 µs&#10; RightSidePartition 2 ms 95 µs&#10; LeftSideSortBuckets 8 ms 445 µs&#10; RightSideSortBuckets 735 µs 1 ns&#10; GatherRowIds 1 µs 530 ns&#10; FindJoinPartner 2 ms 332 µs&#10; OutputWriting 2 ms 117 µs.">
<polygon fill="none" stroke="white" stroke-width="5.97" points="685,-992 400,-992 400,-923 685,-923 685,-992"/>
<text text-anchor="middle" x="542.5" y="-976.8" font-family="Times,serif" font-size="14.00" fill="white">JoinSimdSortMerge (Semi Reduction)</text>
<text text-anchor="middle" x="542.5" y="-961.8" font-family="Times,serif" font-size="14.00" fill="white">l_partkey = ps_partkey</text>
<text text-anchor="middle" x="542.5" y="-930.8" font-family="Times,serif" font-size="14.00" fill="white">38 ms 167 µs</text>
</a>
</g>
</g>
<!-- 128984983613968&#45;&gt;128968390700560 -->
<g id="edge9" class="edge">
<title>128984983613968&#45;&gt;128968390700560</title>
<path fill="none" stroke="white" d="M229.26,-849.64C260.08,-867.19 302.77,-889.8 342.5,-905 357.61,-910.78 373.61,-916.13 389.72,-921.01"/>
<polygon fill="white" stroke="white" points="399.76,-923.99 391.16,-917.79 390.17,-921.14 399.76,-923.99"/>
<text text-anchor="middle" x="440.5" y="-893.8" font-family="Times,serif" font-size="14.00" fill="white">86,420 row(s)/128 chunk(s)</text>
</g>
<!-- 128968390698000 -->
<g id="node10" class="node">
<title>128968390698000</title>
<g id="a_node10"><a xlink:title="Output: 86420 rows in 128 chunks, 22 ms 101 µs.&#10;Operator step runtimes:&#10; LeftSideMaterialize 1 ms 266 µs&#10; RightSideMaterialize 211 µs 599 ns&#10; LeftSideTransform 0 ns&#10; RightSideTransform 0 ns&#10; LeftSidePartition 4 ms 199 µs&#10; RightSidePartition 1 ms 609 µs&#10; LeftSideSortBuckets 10 ms 365 µs&#10; RightSideSortBuckets 766 µs 967 ns&#10; GatherRowIds 1 µs 24 ns&#10; FindJoinPartner 1 ms 948 µs&#10; OutputWriting 875 µs 912 ns.">
<polygon fill="none" stroke="white" stroke-width="4.63" points="290,-699.5 81,-699.5 81,-630.5 290,-630.5 290,-699.5"/>
<text text-anchor="middle" x="185.5" y="-684.3" font-family="Times,serif" font-size="14.00" fill="white">JoinSimdSortMerge (Semi)</text>
<text text-anchor="middle" x="185.5" y="-669.3" font-family="Times,serif" font-size="14.00" fill="white">ps_partkey = p_partkey</text>
<text text-anchor="middle" x="185.5" y="-638.3" font-family="Times,serif" font-size="14.00" fill="white">22 ms 101 µs</text>
</a>
</g>
</g>
<!-- 128968390698000&#45;&gt;128984983613968 -->
<g id="edge11" class="edge">
<title>128968390698000&#45;&gt;128984983613968</title>
<path fill="none" stroke="white" d="M185.5,-699.74C185.5,-724.86 185.5,-759.13 185.5,-784.91"/>
<polygon fill="white" stroke="white" points="182,-785.03 185.5,-795.03 189,-785.03 182,-785.03"/>
<text text-anchor="middle" x="283.5" y="-743.8" font-family="Times,serif" font-size="14.00" fill="white">86,420 row(s)/128 chunk(s)</text>
</g>
<!-- 128968729829264 -->
<g id="node11" class="node">
<title>128968729829264</title>
<g id="a_node11"><a xlink:title="Output: 8000000 rows in 123 chunks, 404 µs 56 ns.">
<polygon fill="none" stroke="white" points="125.5,-557 3.5,-557 3.5,-443 125.5,-443 125.5,-557"/>
<text text-anchor="middle" x="64.5" y="-541.8" font-family="Times,serif" font-size="14.00" fill="white">GetTable</text>
<text text-anchor="middle" x="64.5" y="-526.8" font-family="Times,serif" font-size="14.00" fill="white">(partsupp)</text>
<text text-anchor="middle" x="64.5" y="-511.8" font-family="Times,serif" font-size="14.00" fill="white">pruned:</text>
<text text-anchor="middle" x="64.5" y="-496.8" font-family="Times,serif" font-size="14.00" fill="white">0/123 chunk(s)</text>
<text text-anchor="middle" x="64.5" y="-481.8" font-family="Times,serif" font-size="14.00" fill="white">2/5 column(s)</text>
<text text-anchor="middle" x="64.5" y="-450.8" font-family="Times,serif" font-size="14.00" fill="white">404 µs 56 ns</text>
</a>
</g>
</g>
<!-- 128968729829264&#45;&gt;128968390698000 -->
<g id="edge12" class="edge">
<title>128968729829264&#45;&gt;128968390698000</title>
<path fill="none" stroke="white" stroke-width="3.03" d="M56.79,-557.36C57.48,-568.73 59.95,-580.18 65.5,-590 73.16,-603.54 84.42,-614.93 97.01,-624.38"/>
<polygon fill="white" stroke="white" stroke-width="3.03" points="97.28,-624.57 95.26,-627.43 105.45,-630.32 97.28,-624.57"/>
<text text-anchor="middle" x="175" y="-578.8" font-family="Times,serif" font-size="14.00" fill="white">8,000,000 row(s)/123 chunk(s)</text>
</g>
<!-- 128968390697680 -->
<g id="node12" class="node">
<title>128968390697680</title>
<g id="a_node12"><a xlink:title="Output: 21605 rows in 31 chunks, 32 µs 504 ns.&#10;Operator step runtimes:&#10; ForwardUnmodifiedColumns 10 µs 373 ns&#10; EvaluateNewColumns 137 ns&#10; BuildOutput 10 µs 613 ns.">
<polygon fill="none" stroke="white" points="360.5,-527 252.5,-527 252.5,-473 360.5,-473 360.5,-527"/>
<text text-anchor="middle" x="306.5" y="-511.8" font-family="Times,serif" font-size="14.00" fill="white">Projection</text>
<text text-anchor="middle" x="306.5" y="-480.8" font-family="Times,serif" font-size="14.00" fill="white">32 µs 504 ns</text>
</a>
</g>
</g>
<!-- 128968390697680&#45;&gt;128968390698000 -->
<g id="edge13" class="edge">
<title>128968390697680&#45;&gt;128968390698000</title>
<path fill="none" stroke="white" d="M304.73,-527.02C302.39,-545.84 296.99,-571.16 284.5,-590 275.99,-602.84 264.46,-614.29 252.29,-624.13"/>
<polygon fill="white" stroke="white" points="244.22,-630.36 254.28,-627.02 252.14,-624.25 244.22,-630.36"/>
<text text-anchor="middle" x="386" y="-578.8" font-family="Times,serif" font-size="14.00" fill="white">21,605 row(s)/31 chunk(s)</text>
</g>
<!-- 128984983607312 -->
<g id="node13" class="node">
<title>128984983607312</title>
<g id="a_node13"><a xlink:title="Output: 21605 rows in 31 chunks, 69 µs 977 ns.">
<polygon fill="none" stroke="white" points="360.5,-392 252.5,-392 252.5,-338 360.5,-338 360.5,-392"/>
<text text-anchor="middle" x="306.5" y="-376.8" font-family="Times,serif" font-size="14.00" fill="white">Validate</text>
<text text-anchor="middle" x="306.5" y="-345.8" font-family="Times,serif" font-size="14.00" fill="white">69 µs 977 ns</text>
</a>
</g>
</g>
<!-- 128984983607312&#45;&gt;128968390697680 -->
<g id="edge14" class="edge">
<title>128984983607312&#45;&gt;128968390697680</title>
<path fill="none" stroke="white" d="M306.5,-392.28C306.5,-412.41 306.5,-440.41 306.5,-462.68"/>
<polygon fill="white" stroke="white" points="303,-462.78 306.5,-472.78 310,-462.78 303,-462.78"/>
<text text-anchor="middle" x="400" y="-413.8" font-family="Times,serif" font-size="14.00" fill="white">21,605 row(s)/31 chunk(s)</text>
</g>
<!-- 128968390697360 -->
<g id="node14" class="node">
<title>128968390697360</title>
<g id="a_node14"><a xlink:title="Output: 21605 rows in 31 chunks, 307 µs 980 ns.&#10;Chunks: 0 skipped with no results, &#10;0 skipped with all matching, 0 scanned using binary search.">
<polygon fill="none" stroke="white" points="521,-287 92,-287 92,-203 521,-203 521,-287"/>
<text text-anchor="middle" x="306.5" y="-271.8" font-family="Times,serif" font-size="14.00" fill="white">TableScan</text>
<text text-anchor="middle" x="306.5" y="-256.8" font-family="Times,serif" font-size="14.00" fill="white">Impl: ColumnBetween</text>
<text text-anchor="middle" x="306.5" y="-241.8" font-family="Times,serif" font-size="14.00" fill="white">p_name BETWEEN UPPER EXCLUSIVE &#39;navy&#39; AND &#39;navz&#39;</text>
<text text-anchor="middle" x="306.5" y="-210.8" font-family="Times,serif" font-size="14.00" fill="white">307 µs 980 ns</text>
</a>
</g>
</g>
<!-- 128968390697360&#45;&gt;128984983607312 -->
<g id="edge15" class="edge">
<title>128968390697360&#45;&gt;128984983607312</title>
<path fill="none" stroke="white" d="M306.5,-287.27C306.5,-300.36 306.5,-314.72 306.5,-327.45"/>
<polygon fill="white" stroke="white" points="303,-327.69 306.5,-337.69 310,-327.69 303,-327.69"/>
<text text-anchor="middle" x="400" y="-308.8" font-family="Times,serif" font-size="14.00" fill="white">21,605 row(s)/31 chunk(s)</text>
</g>
<!-- 128968729829712 -->
<g id="node15" class="node">
<title>128968729829712</title>
<g id="a_node15"><a xlink:title="Output: 2000000 rows in 31 chunks, 98 µs 98 ns.">
<polygon fill="none" stroke="white" points="363,-133 250,-133 250,-19 363,-19 363,-133"/>
<text text-anchor="middle" x="306.5" y="-117.8" font-family="Times,serif" font-size="14.00" fill="white">GetTable</text>
<text text-anchor="middle" x="306.5" y="-102.8" font-family="Times,serif" font-size="14.00" fill="white">(part)</text>
<text text-anchor="middle" x="306.5" y="-87.8" font-family="Times,serif" font-size="14.00" fill="white">pruned:</text>
<text text-anchor="middle" x="306.5" y="-72.8" font-family="Times,serif" font-size="14.00" fill="white">0/31 chunk(s)</text>
<text text-anchor="middle" x="306.5" y="-57.8" font-family="Times,serif" font-size="14.00" fill="white">7/9 column(s)</text>
<text text-anchor="middle" x="306.5" y="-26.8" font-family="Times,serif" font-size="14.00" fill="white">98 µs 98 ns</text>
</a>
</g>
</g>
<!-- 128968729829712&#45;&gt;128968390697360 -->
<g id="edge16" class="edge">
<title>128968729829712&#45;&gt;128968390697360</title>
<path fill="none" stroke="white" d="M306.5,-133.07C306.5,-152.34 306.5,-173.8 306.5,-192.67"/>
<polygon fill="white" stroke="white" points="303,-192.86 306.5,-202.86 310,-192.86 303,-192.86"/>
<text text-anchor="middle" x="411.5" y="-173.8" font-family="Times,serif" font-size="14.00" fill="white">2,000,000 row(s)/31 chunk(s)</text>
</g>
<!-- 128968390701840 -->
<g id="node16" class="node">
<title>128968390701840</title>
<g id="a_node16"><a xlink:title="Output: 58834 rows in 1 chunk, 306 µs 644 ns.&#10;Operator step runtimes:&#10; ForwardUnmodifiedColumns 11 µs 718 ns&#10; EvaluateNewColumns 241 µs 756 ns&#10; BuildOutput 45 µs 713 ns.">
<polygon fill="none" stroke="white" points="337,-1472 220,-1472 220,-1418 337,-1418 337,-1472"/>
<text text-anchor="middle" x="278.5" y="-1456.8" font-family="Times,serif" font-size="14.00" fill="white">Projection</text>
<text text-anchor="middle" x="278.5" y="-1425.8" font-family="Times,serif" font-size="14.00" fill="white">306 µs 644 ns</text>
</a>
</g>
</g>
<!-- 128968390701840&#45;&gt;128968390702160 -->
<g id="edge17" class="edge">
<title>128968390701840&#45;&gt;128968390702160</title>
<path fill="none" stroke="white" d="M254.2,-1472.28C240.78,-1486.78 223.58,-1505.38 207.31,-1522.97"/>
<polygon fill="white" stroke="white" points="200.41,-1530.44 209.77,-1525.47 207.2,-1523.1 200.41,-1530.44"/>
<text text-anchor="middle" x="324.5" y="-1493.8" font-family="Times,serif" font-size="14.00" fill="white">58,834 row(s)/1 chunk(s)</text>
</g>
<!-- 128984983668240 -->
<g id="node17" class="node">
<title>128984983668240</title>
<g id="a_node17"><a xlink:title="Output: 58834 rows in 1 chunk, 86 ms 838 µs.&#10;Operator step runtimes:&#10; GroupByKeyPartitioning 43 ms 79 µs&#10; Aggregating 42 ms 337 µs&#10; GroupByColumnsWriting 959 µs 354 ns&#10; AggregateColumnsWriting 411 µs 827 ns&#10; OutputWriting 16 µs 838 ns.">
<polygon fill="none" stroke="white" stroke-width="8" points="414.5,-1367 248.5,-1367 248.5,-1268 414.5,-1268 414.5,-1367"/>
<text text-anchor="middle" x="331.5" y="-1351.8" font-family="Times,serif" font-size="14.00" fill="white">AggregateHash</text>
<text text-anchor="middle" x="331.5" y="-1336.8" font-family="Times,serif" font-size="14.00" fill="white">GroupBy {l_suppkey,</text>
<text text-anchor="middle" x="331.5" y="-1321.8" font-family="Times,serif" font-size="14.00" fill="white">l_partkey}</text>
<text text-anchor="middle" x="331.5" y="-1306.8" font-family="Times,serif" font-size="14.00" fill="white">SUM(l_quantity)</text>
<text text-anchor="middle" x="331.5" y="-1275.8" font-family="Times,serif" font-size="14.00" fill="white">86 ms 838 µs</text>
</a>
</g>
</g>
<!-- 128984983668240&#45;&gt;128968390701840 -->
<g id="edge18" class="edge">
<title>128984983668240&#45;&gt;128968390701840</title>
<path fill="none" stroke="white" d="M311.01,-1367.02C305.21,-1380.76 299,-1395.47 293.58,-1408.3"/>
<polygon fill="white" stroke="white" points="290.27,-1407.13 289.6,-1417.7 296.72,-1409.85 290.27,-1407.13"/>
<text text-anchor="middle" x="392.5" y="-1388.8" font-family="Times,serif" font-size="14.00" fill="white">58,834 row(s)/1 chunk(s)</text>
</g>
<!-- 128984983607056 -->
<g id="node18" class="node">
<title>128984983607056</title>
<g id="a_node18"><a xlink:title="Output: 98251 rows in 128 chunks, 642 µs 338 ns.">
<polygon fill="none" stroke="white" points="471,-1217 354,-1217 354,-1163 471,-1163 471,-1217"/>
<text text-anchor="middle" x="412.5" y="-1201.8" font-family="Times,serif" font-size="14.00" fill="white">Validate</text>
<text text-anchor="middle" x="412.5" y="-1170.8" font-family="Times,serif" font-size="14.00" fill="white">642 µs 338 ns</text>
</a>
</g>
</g>
<!-- 128984983607056&#45;&gt;128984983668240 -->
<g id="edge19" class="edge">
<title>128984983607056&#45;&gt;128984983668240</title>
<path fill="none" stroke="white" d="M395.72,-1217C387.78,-1229.31 377.96,-1244.52 368.41,-1259.32"/>
<polygon fill="white" stroke="white" points="365.31,-1257.66 362.83,-1267.96 371.19,-1261.45 365.31,-1257.66"/>
<text text-anchor="middle" x="482.5" y="-1238.8" font-family="Times,serif" font-size="14.00" fill="white">98,251 row(s)/128 chunk(s)</text>
</g>
<!-- 128968390700880&#45;&gt;128984983607056 -->
<g id="edge20" class="edge">
<title>128968390700880&#45;&gt;128984983607056</title>
<path fill="none" stroke="white" d="M412.5,-1112.25C412.5,-1125.07 412.5,-1139.73 412.5,-1152.77"/>
<polygon fill="white" stroke="white" points="409,-1152.81 412.5,-1162.81 416,-1152.81 409,-1152.81"/>
<text text-anchor="middle" x="510.5" y="-1133.8" font-family="Times,serif" font-size="14.00" fill="white">98,251 row(s)/128 chunk(s)</text>
</g>
<!-- 128968390700560&#45;&gt;128968390700880 -->
<g id="edge21" class="edge">
<title>128968390700560&#45;&gt;128968390700880</title>
<path fill="none" stroke="white" d="M505.25,-992.31C490.29,-1005.89 472.92,-1021.66 457.28,-1035.86"/>
<polygon fill="white" stroke="white" points="457.16,-1035.96 454.81,-1033.37 449.76,-1042.68 457.16,-1035.96"/>
<text text-anchor="middle" x="583.5" y="-1013.8" font-family="Times,serif" font-size="14.00" fill="white">98,251 row(s)/128 chunk(s)</text>
</g>
<!-- 128968390699280 -->
<g id="node21" class="node">
<title>128968390699280</title>
<g id="a_node21"><a xlink:title="Output: 9123688 rows in 916 chunks, 12 ms 824 µs.&#10;Chunks: 0 skipped with no results, &#10;0 skipped with all matching, 0 scanned using binary search.">
<polygon fill="none" stroke="white" stroke-width="3.28" points="748.5,-872 336.5,-872 336.5,-773 748.5,-773 748.5,-872"/>
<text text-anchor="middle" x="542.5" y="-856.8" font-family="Times,serif" font-size="14.00" fill="white">TableScan</text>
<text text-anchor="middle" x="542.5" y="-841.8" font-family="Times,serif" font-size="14.00" fill="white">Impl: ColumnBetween</text>
<text text-anchor="middle" x="542.5" y="-826.8" font-family="Times,serif" font-size="14.00" fill="white">l_shipdate BETWEEN UPPER EXCLUSIVE &#39;1996&#45;01&#45;01&#39;</text>
<text text-anchor="middle" x="542.5" y="-811.8" font-family="Times,serif" font-size="14.00" fill="white">AND &#39;1997&#45;01&#45;01&#39;</text>
<text text-anchor="middle" x="542.5" y="-780.8" font-family="Times,serif" font-size="14.00" fill="white">12 ms 824 µs</text>
</a>
</g>
</g>
<!-- 128968390699280&#45;&gt;128968390700560 -->
<g id="edge22" class="edge">
<title>128968390699280&#45;&gt;128968390700560</title>
<path fill="none" stroke="white" stroke-width="3.36" d="M542.5,-872.27C542.5,-885.49 542.5,-899.72 542.5,-912.65"/>
<polygon fill="white" stroke="white" stroke-width="3.36" points="542.5,-912.7 539,-912.7 542.5,-922.7 542.5,-912.7"/>
<text text-anchor="middle" x="652" y="-893.8" font-family="Times,serif" font-size="14.00" fill="white">9,123,688 row(s)/916 chunk(s)</text>
</g>
<!-- 128968729830160 -->
<g id="node22" class="node">
<title>128968729830160</title>
<g id="a_node22"><a xlink:title="Output: 59986052 rows in 916 chunks, 3 ms 774 µs.">
<polygon fill="none" stroke="white" points="608,-722 477,-722 477,-608 608,-608 608,-722"/>
<text text-anchor="middle" x="542.5" y="-706.8" font-family="Times,serif" font-size="14.00" fill="white">GetTable</text>
<text text-anchor="middle" x="542.5" y="-691.8" font-family="Times,serif" font-size="14.00" fill="white">(lineitem)</text>
<text text-anchor="middle" x="542.5" y="-676.8" font-family="Times,serif" font-size="14.00" fill="white">pruned:</text>
<text text-anchor="middle" x="542.5" y="-661.8" font-family="Times,serif" font-size="14.00" fill="white">0/916 chunk(s)</text>
<text text-anchor="middle" x="542.5" y="-646.8" font-family="Times,serif" font-size="14.00" fill="white">12/16 column(s)</text>
<text text-anchor="middle" x="542.5" y="-615.8" font-family="Times,serif" font-size="14.00" fill="white">3 ms 774 µs</text>
</a>
</g>
</g>
<!-- 128968729830160&#45;&gt;128968390699280 -->
<g id="edge23" class="edge">
<title>128968729830160&#45;&gt;128968390699280</title>
<path fill="none" stroke="white" stroke-width="8" d="M542.5,-722.14C542.5,-735.38 542.5,-749.53 542.5,-762.88"/>
<polygon fill="white" stroke="white" stroke-width="8" points="535.5,-762.9 542.5,-772.9 549.5,-762.9 535.5,-762.9"/>
<text text-anchor="middle" x="656.5" y="-743.8" font-family="Times,serif" font-size="14.00" fill="white">59,986,052 row(s)/916 chunk(s)</text>
</g>
<!-- 128984983610384 -->
<g id="node23" class="node">
<title>128984983610384</title>
<g id="a_node23"><a xlink:title="Output: 1 row in 1 chunk, 11 µs 789 ns.">
<polygon fill="none" stroke="white" points="629.5,-1914.5 521.5,-1914.5 521.5,-1860.5 629.5,-1860.5 629.5,-1914.5"/>
<text text-anchor="middle" x="575.5" y="-1899.3" font-family="Times,serif" font-size="14.00" fill="white">Validate</text>
<text text-anchor="middle" x="575.5" y="-1868.3" font-family="Times,serif" font-size="14.00" fill="white">11 µs 789 ns</text>
</a>
</g>
</g>
<!-- 128984983610384&#45;&gt;128968390703440 -->
<g id="edge24" class="edge">
<title>128984983610384&#45;&gt;128968390703440</title>
<path fill="none" stroke="white" d="M571.28,-1914.51C568.11,-1927.7 562.68,-1943.35 553.5,-1955 550.45,-1958.87 547.01,-1962.53 543.33,-1965.98"/>
<polygon fill="white" stroke="white" points="535.45,-1972.74 545.32,-1968.88 543.04,-1966.23 535.45,-1972.74"/>
<text text-anchor="middle" x="631.5" y="-1943.8" font-family="Times,serif" font-size="14.00" fill="white">1 row(s)/1 chunk(s)</text>
</g>
<!-- 128968390703120 -->
<g id="node24" class="node">
<title>128968390703120</title>
<g id="a_node24"><a xlink:title="Output: 1 row in 1 chunk, 40 µs 697 ns.&#10;Chunks: 0 skipped with no results, &#10;0 skipped with all matching, 0 scanned using binary search.">
<polygon fill="none" stroke="white" points="669,-1787 482,-1787 482,-1703 669,-1703 669,-1787"/>
<text text-anchor="middle" x="575.5" y="-1771.8" font-family="Times,serif" font-size="14.00" fill="white">TableScan</text>
<text text-anchor="middle" x="575.5" y="-1756.8" font-family="Times,serif" font-size="14.00" fill="white">Impl: ColumnVsValue</text>
<text text-anchor="middle" x="575.5" y="-1741.8" font-family="Times,serif" font-size="14.00" fill="white">n_name = &#39;INDONESIA&#39;</text>
<text text-anchor="middle" x="575.5" y="-1710.8" font-family="Times,serif" font-size="14.00" fill="white">40 µs 697 ns</text>
</a>
</g>
</g>
<!-- 128968390703120&#45;&gt;128984983610384 -->
<g id="edge25" class="edge">
<title>128968390703120&#45;&gt;128984983610384</title>
<path fill="none" stroke="white" d="M575.5,-1787.02C575.5,-1806.97 575.5,-1830.76 575.5,-1850.07"/>
<polygon fill="white" stroke="white" points="572,-1850.28 575.5,-1860.28 579,-1850.28 572,-1850.28"/>
<text text-anchor="middle" x="644.5" y="-1823.8" font-family="Times,serif" font-size="14.00" fill="white">1 row(s)/1 chunk(s)</text>
</g>
<!-- 128968729828368 -->
<g id="node25" class="node">
<title>128968729828368</title>
<g id="a_node25"><a xlink:title="Output: 25 rows in 1 chunk, 16 µs 428 ns.">
<polygon fill="none" stroke="white" points="632,-1637 519,-1637 519,-1523 632,-1523 632,-1637"/>
<text text-anchor="middle" x="575.5" y="-1621.8" font-family="Times,serif" font-size="14.00" fill="white">GetTable</text>
<text text-anchor="middle" x="575.5" y="-1606.8" font-family="Times,serif" font-size="14.00" fill="white">(nation)</text>
<text text-anchor="middle" x="575.5" y="-1591.8" font-family="Times,serif" font-size="14.00" fill="white">pruned:</text>
<text text-anchor="middle" x="575.5" y="-1576.8" font-family="Times,serif" font-size="14.00" fill="white">0/1 chunk(s)</text>
<text text-anchor="middle" x="575.5" y="-1561.8" font-family="Times,serif" font-size="14.00" fill="white">2/4 column(s)</text>
<text text-anchor="middle" x="575.5" y="-1530.8" font-family="Times,serif" font-size="14.00" fill="white">16 µs 428 ns</text>
</a>
</g>
</g>
<!-- 128968729828368&#45;&gt;128968390703120 -->
<g id="edge26" class="edge">
<title>128968729828368&#45;&gt;128968390703120</title>
<path fill="none" stroke="white" d="M575.5,-1637.1C575.5,-1655.19 575.5,-1675.13 575.5,-1692.85"/>
<polygon fill="white" stroke="white" points="572,-1692.99 575.5,-1702.99 579,-1692.99 572,-1692.99"/>
<text text-anchor="middle" x="649" y="-1658.8" font-family="Times,serif" font-size="14.00" fill="white">25 row(s)/1 chunk(s)</text>
</g>
<!-- 0 -->
<g id="node26" class="node">
<title>0</title>
<polygon fill="none" stroke="white" points="381.5,-0.5 381.5,-151.5 727.5,-151.5 727.5,-0.5 381.5,-0.5"/>
<text text-anchor="middle" x="554.5" y="-136.3" font-family="Times,serif" font-size="14.00" fill="white">Total by operator</text>
<polyline fill="none" stroke="white" points="381.5,-128.5 727.5,-128.5 "/>
<text text-anchor="end" x="535.5" y="-113.3" font-family="Times,serif" font-size="14.00" fill="white">JoinSimdSortMerge </text>
<text text-anchor="end" x="535.5" y="-98.3" font-family="Times,serif" font-size="14.00" fill="white"> AggregateHash </text>
<text text-anchor="end" x="535.5" y="-83.3" font-family="Times,serif" font-size="14.00" fill="white"> TableScan </text>
<text text-anchor="end" x="535.5" y="-68.3" font-family="Times,serif" font-size="14.00" fill="white"> GetTable </text>
<text text-anchor="end" x="535.5" y="-53.3" font-family="Times,serif" font-size="14.00" fill="white"> Sort </text>
<text text-anchor="end" x="535.5" y="-38.3" font-family="Times,serif" font-size="14.00" fill="white"> Validate </text>
<text text-anchor="end" x="535.5" y="-23.3" font-family="Times,serif" font-size="14.00" fill="white"> Projection </text>
<text text-anchor="end" x="535.5" y="-8.3" font-family="Times,serif" font-size="14.00" fill="white">total</text>
<polyline fill="none" stroke="white" points="543.5,-0.5 543.5,-128.5 "/>
<text text-anchor="start" x="551.5" y="-113.3" font-family="Times,serif" font-size="14.00" fill="white">113 ms 689 µs </text>
<text text-anchor="start" x="551.5" y="-98.3" font-family="Times,serif" font-size="14.00" fill="white"> 86 ms 838 µs </text>
<text text-anchor="start" x="551.5" y="-83.3" font-family="Times,serif" font-size="14.00" fill="white"> 13 ms 173 µs </text>
<text text-anchor="start" x="551.5" y="-68.3" font-family="Times,serif" font-size="14.00" fill="white"> 4 ms 314 µs </text>
<text text-anchor="start" x="551.5" y="-53.3" font-family="Times,serif" font-size="14.00" fill="white"> 1 ms 928 µs </text>
<text text-anchor="start" x="551.5" y="-38.3" font-family="Times,serif" font-size="14.00" fill="white"> 1 ms 261 µs </text>
<text text-anchor="start" x="551.5" y="-23.3" font-family="Times,serif" font-size="14.00" fill="white"> 433 µs 115 ns </text>
<text text-anchor="start" x="551.5" y="-8.3" font-family="Times,serif" font-size="14.00" fill="white"> 221 ms 636 µs </text>
<polyline fill="none" stroke="white" points="674.5,-0.5 674.5,-128.5 "/>
<text text-anchor="start" x="682.5" y="-113.3" font-family="Times,serif" font-size="14.00" fill="white">51 %</text>
<text text-anchor="start" x="682.5" y="-98.3" font-family="Times,serif" font-size="14.00" fill="white">39 %</text>
<text text-anchor="start" x="682.5" y="-83.3" font-family="Times,serif" font-size="14.00" fill="white">6 %</text>
<text text-anchor="start" x="682.5" y="-68.3" font-family="Times,serif" font-size="14.00" fill="white">2 %</text>
<text text-anchor="start" x="682.5" y="-53.3" font-family="Times,serif" font-size="14.00" fill="white">1 %</text>
<text text-anchor="start" x="682.5" y="-38.3" font-family="Times,serif" font-size="14.00" fill="white">1 %</text>
<text text-anchor="start" x="682.5" y="-23.3" font-family="Times,serif" font-size="14.00" fill="white">0 %</text>
<text text-anchor="start" x="682.5" y="-8.3" font-family="Times,serif" font-size="14.00" fill="white"> </text>
</g>
</g>
</svg>
