<?xml version="1.0" encoding="UTF-8" standalone="no"?>
<!DOCTYPE svg PUBLIC "-//W3C//DTD SVG 1.1//EN"
 "http://www.w3.org/Graphics/SVG/1.1/DTD/svg11.dtd">
<!-- Generated by graphviz version 2.43.0 (0)
 -->
<!-- Title: G Pages: 1 -->
<svg width="1182pt" height="2303pt"
 viewBox="0.00 0.00 1182.00 2303.00" xmlns="http://www.w3.org/2000/svg" xmlns:xlink="http://www.w3.org/1999/xlink">
<g id="graph0" class="graph" transform="scale(1 1) rotate(0) translate(4 2299)">
<title>G</title>
<polygon fill="black" stroke="transparent" points="-4,4 -4,-2299 1178,-2299 1178,4 -4,4"/>
<text text-anchor="middle" x="319.5" y="-2279.8" font-family="Times,serif" font-size="14.00" fill="white">For tooltips with advanced information, hover your mouse over vertices or edge labels.</text>
<!-- 139931210689424 -->
<g id="node1" class="node">
<title>139931210689424</title>
<g id="a_node1"><a xlink:title="Output: 100 rows in 1 chunk, 14 µs 417 ns.&#10;Operator step runtimes:&#10; ForwardUnmodifiedColumns 5 µs 59 ns&#10; EvaluateNewColumns 872 ns&#10; BuildOutput 6 µs 592 ns.">
<polygon fill="none" stroke="white" points="530,-2240 422,-2240 422,-2186 530,-2186 530,-2240"/>
<text text-anchor="middle" x="476" y="-2224.8" font-family="Times,serif" font-size="14.00" fill="white">Projection</text>
<text text-anchor="middle" x="476" y="-2193.8" font-family="Times,serif" font-size="14.00" fill="white">14 µs 417 ns</text>
</a>
</g>
</g>
<!-- 139931185136656 -->
<g id="node2" class="node">
<title>139931185136656</title>
<g id="a_node2"><a xlink:title="Output: 100 rows in 1 chunk, 19 µs 306 ns.">
<polygon fill="none" stroke="white" points="530,-2135 422,-2135 422,-2081 530,-2081 530,-2135"/>
<text text-anchor="middle" x="476" y="-2119.8" font-family="Times,serif" font-size="14.00" fill="white">Limit</text>
<text text-anchor="middle" x="476" y="-2088.8" font-family="Times,serif" font-size="14.00" fill="white">19 µs 306 ns</text>
</a>
</g>
</g>
<!-- 139931185136656&#45;&gt;139931210689424 -->
<g id="edge1" class="edge">
<title>139931185136656&#45;&gt;139931210689424</title>
<path fill="none" stroke="white" d="M476,-2135.26C476,-2147.49 476,-2162.24 476,-2175.52"/>
<polygon fill="white" stroke="white" points="472.5,-2175.79 476,-2185.79 479.5,-2175.79 472.5,-2175.79"/>
<text text-anchor="middle" x="554" y="-2156.8" font-family="Times,serif" font-size="14.00" fill="white">100 row(s)/1 chunk(s)</text>
</g>
<!-- 139931210689744 -->
<g id="node3" class="node">
<title>139931210689744</title>
<g id="a_node3"><a xlink:title="Output: 47323 rows in 1 chunk, 97 ms 149 µs.&#10;Operator step runtimes:&#10; MaterializeSortColumns 34 ms 112 µs&#10; Sort 56 ms 457 µs&#10; TemporaryResultWriting 318 µs 327 ns&#10; WriteOutput 5 ms 289 µs.">
<polygon fill="none" stroke="white" stroke-width="7.31" points="532.5,-2030 419.5,-2030 419.5,-1976 532.5,-1976 532.5,-2030"/>
<text text-anchor="middle" x="476" y="-2014.8" font-family="Times,serif" font-size="14.00" fill="white">Sort</text>
<text text-anchor="middle" x="476" y="-1983.8" font-family="Times,serif" font-size="14.00" fill="white">97 ms 149 µs</text>
</a>
</g>
</g>
<!-- 139931210689744&#45;&gt;139931185136656 -->
<g id="edge2" class="edge">
<title>139931210689744&#45;&gt;139931185136656</title>
<path fill="none" stroke="white" d="M476,-2030.26C476,-2042.49 476,-2057.24 476,-2070.52"/>
<polygon fill="white" stroke="white" points="472.5,-2070.79 476,-2080.79 479.5,-2070.79 472.5,-2070.79"/>
<text text-anchor="middle" x="565" y="-2051.8" font-family="Times,serif" font-size="14.00" fill="white">47,323 row(s)/1 chunk(s)</text>
</g>
<!-- 139931210689104 -->
<g id="node4" class="node">
<title>139931210689104</title>
<g id="a_node4"><a xlink:title="Output: 47323 rows in 31 chunks, 21 ms 172 µs.&#10;Operator step runtimes:&#10; LeftSideMaterialize 6 ms 317 µs&#10; RightSideMaterialize 241 µs 22 ns&#10; LeftSideTransform 0 ns&#10; RightSideTransform 0 ns&#10; LeftSidePartition 676 µs 180 ns&#10; RightSidePartition 446 µs 368 ns&#10; LeftSideSortBuckets 751 µs 330 ns&#10; RightSideSortBuckets 781 µs 286 ns&#10; GatherRowIds 2 µs 524 ns&#10; FindJoinPartner 10 ms 885 µs&#10; OutputWriting 897 µs 695 ns.">
<polygon fill="none" stroke="white" stroke-width="3.55" points="615.5,-1925 336.5,-1925 336.5,-1841 615.5,-1841 615.5,-1925"/>
<text text-anchor="middle" x="476" y="-1909.8" font-family="Times,serif" font-size="14.00" fill="white">JoinSimdSortMerge (Semi)</text>
<text text-anchor="middle" x="476" y="-1894.8" font-family="Times,serif" font-size="14.00" fill="white">ps_supplycost = MIN(ps_supplycost)</text>
<text text-anchor="middle" x="476" y="-1879.8" font-family="Times,serif" font-size="14.00" fill="white">AND p_partkey = ps_partkey</text>
<text text-anchor="middle" x="476" y="-1848.8" font-family="Times,serif" font-size="14.00" fill="white">21 ms 172 µs</text>
</a>
</g>
</g>
<!-- 139931210689104&#45;&gt;139931210689744 -->
<g id="edge3" class="edge">
<title>139931210689104&#45;&gt;139931210689744</title>
<path fill="none" stroke="white" d="M476,-1925.27C476,-1938.36 476,-1952.72 476,-1965.45"/>
<polygon fill="white" stroke="white" points="472.5,-1965.69 476,-1975.69 479.5,-1965.69 472.5,-1965.69"/>
<text text-anchor="middle" x="569.5" y="-1946.8" font-family="Times,serif" font-size="14.00" fill="white">47,323 row(s)/31 chunk(s)</text>
</g>
<!-- 139931210688144 -->
<g id="node5" class="node">
<title>139931210688144</title>
<g id="a_node5"><a xlink:title="Output: 64088 rows in 100 chunks, 17 ms 869 µs.&#10;Operator step runtimes:&#10; LeftSideMaterialize 4 ms 932 µs&#10; RightSideMaterialize 4 ms 404 µs&#10; LeftSideTransform 0 ns&#10; RightSideTransform 0 ns&#10; LeftSidePartition 2 ms 345 µs&#10; RightSidePartition 1 ms 997 µs&#10; LeftSideSortBuckets 676 µs 439 ns&#10; RightSideSortBuckets 674 µs 507 ns&#10; GatherRowIds 2 µs 444 ns&#10; FindJoinPartner 774 µs 955 ns&#10; OutputWriting 1 ms 750 µs.">
<polygon fill="none" stroke="white" stroke-width="3.14" points="436.5,-1790 225.5,-1790 225.5,-1721 436.5,-1721 436.5,-1790"/>
<text text-anchor="middle" x="331" y="-1774.8" font-family="Times,serif" font-size="14.00" fill="white">JoinSimdSortMerge (Inner)</text>
<text text-anchor="middle" x="331" y="-1759.8" font-family="Times,serif" font-size="14.00" fill="white">ps_partkey = p_partkey</text>
<text text-anchor="middle" x="331" y="-1728.8" font-family="Times,serif" font-size="14.00" fill="white">17 ms 869 µs</text>
</a>
</g>
</g>
<!-- 139931210688144&#45;&gt;139931210689104 -->
<g id="edge4" class="edge">
<title>139931210688144&#45;&gt;139931210689104</title>
<path fill="none" stroke="white" d="M359.45,-1790.33C369.29,-1801.25 380.7,-1813.08 392,-1823 396.46,-1826.92 401.18,-1830.81 406.02,-1834.63"/>
<polygon fill="white" stroke="white" points="406.33,-1834.86 404.2,-1837.64 414.26,-1840.96 406.33,-1834.86"/>
<text text-anchor="middle" x="490" y="-1811.8" font-family="Times,serif" font-size="14.00" fill="white">64,088 row(s)/100 chunk(s)</text>
</g>
<!-- 139931210687824 -->
<g id="node6" class="node">
<title>139931210687824</title>
<g id="a_node6"><a xlink:title="Output: 64088 rows in 104 chunks, 13 ms 209 µs.&#10;Operator step runtimes:&#10; LeftSideMaterialize 4 ms 364 µs&#10; RightSideMaterialize 825 µs 209 ns&#10; LeftSideTransform 0 ns&#10; RightSideTransform 0 ns&#10; LeftSidePartition 1 ms 704 µs&#10; RightSidePartition 2 ms 608 µs&#10; LeftSideSortBuckets 709 µs 593 ns&#10; RightSideSortBuckets 742 µs 164 ns&#10; GatherRowIds 1 µs 303 ns&#10; FindJoinPartner 764 µs 314 ns&#10; OutputWriting 1 ms 144 µs.">
<polygon fill="none" stroke="white" stroke-width="2.39" points="436.5,-1601 225.5,-1601 225.5,-1532 436.5,-1532 436.5,-1601"/>
<text text-anchor="middle" x="331" y="-1585.8" font-family="Times,serif" font-size="14.00" fill="white">JoinSimdSortMerge (Inner)</text>
<text text-anchor="middle" x="331" y="-1570.8" font-family="Times,serif" font-size="14.00" fill="white">ps_suppkey = s_suppkey</text>
<text text-anchor="middle" x="331" y="-1539.8" font-family="Times,serif" font-size="14.00" fill="white">13 ms 209 µs</text>
</a>
</g>
</g>
<!-- 139931210687824&#45;&gt;139931210688144 -->
<g id="edge5" class="edge">
<title>139931210687824&#45;&gt;139931210688144</title>
<path fill="none" stroke="white" d="M331,-1601.36C331,-1631.95 331,-1677.13 331,-1710.5"/>
<polygon fill="white" stroke="white" points="331,-1710.89 327.5,-1710.89 331,-1720.89 331,-1710.89"/>
<text text-anchor="middle" x="429" y="-1657.3" font-family="Times,serif" font-size="14.00" fill="white">64,088 row(s)/104 chunk(s)</text>
</g>
<!-- 139932340804368 -->
<g id="node7" class="node">
<title>139932340804368</title>
<g id="a_node7"><a xlink:title="Output: 64088 rows in 104 chunks, 1 ms 283 µs.">
<polygon fill="none" stroke="white" points="540,-1481 436,-1481 436,-1427 540,-1427 540,-1481"/>
<text text-anchor="middle" x="488" y="-1465.8" font-family="Times,serif" font-size="14.00" fill="white">Validate</text>
<text text-anchor="middle" x="488" y="-1434.8" font-family="Times,serif" font-size="14.00" fill="white">1 ms 283 µs</text>
</a>
</g>
</g>
<!-- 139932340804368&#45;&gt;139931210687824 -->
<g id="edge6" class="edge">
<title>139932340804368&#45;&gt;139931210687824</title>
<path fill="none" stroke="white" d="M450.79,-1481.19C431.74,-1494.6 408.15,-1511.2 386.96,-1526.12"/>
<polygon fill="white" stroke="white" points="386.84,-1526.2 384.82,-1523.34 378.66,-1531.95 386.84,-1526.2"/>
<text text-anchor="middle" x="521" y="-1502.8" font-family="Times,serif" font-size="14.00" fill="white">64,088 row(s)/104 chunk(s)</text>
</g>
<!-- 139931210687504 -->
<g id="node8" class="node">
<title>139931210687504</title>
<g id="a_node8"><a xlink:title="Output: 64088 rows in 104 chunks, 25 ms 390 µs.&#10;Operator step runtimes:&#10; LeftSideMaterialize 10 ms 685 µs&#10; RightSideMaterialize 857 µs 730 ns&#10; LeftSideTransform 0 ns&#10; RightSideTransform 0 ns&#10; LeftSidePartition 4 ms 379 µs&#10; RightSidePartition 3 ms 408 µs&#10; LeftSideSortBuckets 1 ms 123 µs&#10; RightSideSortBuckets 1 ms 129 µs&#10; GatherRowIds 1 µs 984 ns&#10; FindJoinPartner 1 ms 164 µs&#10; OutputWriting 2 ms 142 µs.">
<polygon fill="none" stroke="white" stroke-width="4" points="646.5,-1376 361.5,-1376 361.5,-1307 646.5,-1307 646.5,-1376"/>
<text text-anchor="middle" x="504" y="-1360.8" font-family="Times,serif" font-size="14.00" fill="white">JoinSimdSortMerge (Semi Reduction)</text>
<text text-anchor="middle" x="504" y="-1345.8" font-family="Times,serif" font-size="14.00" fill="white">ps_suppkey = s_suppkey</text>
<text text-anchor="middle" x="504" y="-1314.8" font-family="Times,serif" font-size="14.00" fill="white">25 ms 390 µs</text>
</a>
</g>
</g>
<!-- 139931210687504&#45;&gt;139932340804368 -->
<g id="edge7" class="edge">
<title>139931210687504&#45;&gt;139932340804368</title>
<path fill="none" stroke="white" d="M499.11,-1376.25C497.26,-1389.07 495.13,-1403.73 493.25,-1416.77"/>
<polygon fill="white" stroke="white" points="489.76,-1416.41 491.79,-1426.81 496.69,-1417.42 489.76,-1416.41"/>
<text text-anchor="middle" x="594" y="-1397.8" font-family="Times,serif" font-size="14.00" fill="white">64,088 row(s)/104 chunk(s)</text>
</g>
<!-- 139931210683344 -->
<g id="node9" class="node">
<title>139931210683344</title>
<g id="a_node9"><a xlink:title="Output: 320348 rows in 256 chunks, 128 ms 378 µs.&#10;Operator step runtimes:&#10; LeftSideMaterialize 16 ms 870 µs&#10; RightSideMaterialize 5 ms 397 µs&#10; LeftSideTransform 0 ns&#10; RightSideTransform 0 ns&#10; LeftSidePartition 64 ms 761 µs&#10; RightSidePartition 2 ms 44 µs&#10; LeftSideSortBuckets 28 ms 723 µs&#10; RightSideSortBuckets 702 µs 799 ns&#10; GatherRowIds 2 µs 706 ns&#10; FindJoinPartner 6 ms 881 µs&#10; OutputWriting 1 ms 180 µs.">
<polygon fill="none" stroke="white" stroke-width="8" points="733.5,-1256 448.5,-1256 448.5,-1187 733.5,-1187 733.5,-1256"/>
<text text-anchor="middle" x="591" y="-1240.8" font-family="Times,serif" font-size="14.00" fill="white">JoinSimdSortMerge (Semi Reduction)</text>
<text text-anchor="middle" x="591" y="-1225.8" font-family="Times,serif" font-size="14.00" fill="white">ps_partkey = p_partkey</text>
<text text-anchor="middle" x="591" y="-1194.8" font-family="Times,serif" font-size="14.00" fill="white">128 ms 378 µs</text>
</a>
</g>
</g>
<!-- 139931210683344&#45;&gt;139931210687504 -->
<g id="edge8" class="edge">
<title>139931210683344&#45;&gt;139931210687504</title>
<path fill="none" stroke="white" d="M555,-1256.18C549.69,-1261.89 544.5,-1267.94 540,-1274 534.48,-1281.43 529.28,-1289.82 524.63,-1298.06"/>
<polygon fill="white" stroke="white" points="524.59,-1298.12 521.52,-1296.45 519.81,-1306.9 524.59,-1298.12"/>
<text text-anchor="middle" x="642.5" y="-1277.8" font-family="Times,serif" font-size="14.00" fill="white">320,348 row(s)/256 chunk(s)</text>
</g>
<!-- 139931210688784 -->
<g id="node27" class="node">
<title>139931210688784</title>
<g id="a_node27"><a xlink:title="Output: 64088 rows in 104 chunks, 24 ms 287 µs.&#10;Operator step runtimes:&#10; LeftSideMaterialize 7 ms 62 µs&#10; RightSideMaterialize 4 ms 326 µs&#10; LeftSideTransform 0 ns&#10; RightSideTransform 0 ns&#10; LeftSidePartition 4 ms 437 µs&#10; RightSidePartition 3 ms 241 µs&#10; LeftSideSortBuckets 1 ms 116 µs&#10; RightSideSortBuckets 1 ms 224 µs&#10; GatherRowIds 1 µs 613 ns&#10; FindJoinPartner 1 ms 161 µs&#10; OutputWriting 1 ms 305 µs.">
<polygon fill="none" stroke="white" stroke-width="3.89" points="873.5,-1376 664.5,-1376 664.5,-1307 873.5,-1307 873.5,-1376"/>
<text text-anchor="middle" x="769" y="-1360.8" font-family="Times,serif" font-size="14.00" fill="white">JoinSimdSortMerge (Semi)</text>
<text text-anchor="middle" x="769" y="-1345.8" font-family="Times,serif" font-size="14.00" fill="white">ps_suppkey = s_suppkey</text>
<text text-anchor="middle" x="769" y="-1314.8" font-family="Times,serif" font-size="14.00" fill="white">24 ms 287 µs</text>
</a>
</g>
</g>
<!-- 139931210683344&#45;&gt;139931210688784 -->
<g id="edge9" class="edge">
<title>139931210683344&#45;&gt;139931210688784</title>
<path fill="none" stroke="white" d="M721.74,-1256.18C730.16,-1261.31 738.04,-1267.2 745,-1274 751.51,-1280.36 756.26,-1288.6 759.72,-1297.12"/>
<polygon fill="white" stroke="white" points="759.8,-1297.32 756.5,-1298.48 763.12,-1306.75 759.8,-1297.32"/>
<text text-anchor="middle" x="857.5" y="-1277.8" font-family="Times,serif" font-size="14.00" fill="white">320,348 row(s)/256 chunk(s)</text>
</g>
<!-- 139931201954704 -->
<g id="node10" class="node">
<title>139931201954704</title>
<g id="a_node10"><a xlink:title="Output: 80000000 rows in 1221 chunks, 2 ms 703 µs.">
<polygon fill="none" stroke="white" points="656.5,-1097 525.5,-1097 525.5,-983 656.5,-983 656.5,-1097"/>
<text text-anchor="middle" x="591" y="-1081.8" font-family="Times,serif" font-size="14.00" fill="white">GetTable</text>
<text text-anchor="middle" x="591" y="-1066.8" font-family="Times,serif" font-size="14.00" fill="white">(partsupp)</text>
<text text-anchor="middle" x="591" y="-1051.8" font-family="Times,serif" font-size="14.00" fill="white">pruned:</text>
<text text-anchor="middle" x="591" y="-1036.8" font-family="Times,serif" font-size="14.00" fill="white">0/1221 chunk(s)</text>
<text text-anchor="middle" x="591" y="-1021.8" font-family="Times,serif" font-size="14.00" fill="white">2/5 column(s)</text>
<text text-anchor="middle" x="591" y="-990.8" font-family="Times,serif" font-size="14.00" fill="white">2 ms 703 µs</text>
</a>
</g>
</g>
<!-- 139931201954704&#45;&gt;139931210683344 -->
<g id="edge10" class="edge">
<title>139931201954704&#45;&gt;139931210683344</title>
<path fill="none" stroke="white" stroke-width="8" d="M591,-1097.3C591,-1122.92 591,-1152.77 591,-1176.68"/>
<polygon fill="white" stroke="white" stroke-width="8" points="591,-1176.87 584,-1176.87 591,-1186.87 591,-1176.87"/>
<text text-anchor="middle" x="711.5" y="-1138.3" font-family="Times,serif" font-size="14.00" fill="white">80,000,000 row(s)/1,221 chunk(s)</text>
</g>
<!-- 139931185136400 -->
<g id="node11" class="node">
<title>139931185136400</title>
<g id="a_node11"><a xlink:title="Output: 80087 rows in 306 chunks, 589 µs 757 ns.">
<polygon fill="none" stroke="white" points="147.5,-1067 30.5,-1067 30.5,-1013 147.5,-1013 147.5,-1067"/>
<text text-anchor="middle" x="89" y="-1051.8" font-family="Times,serif" font-size="14.00" fill="white">Validate</text>
<text text-anchor="middle" x="89" y="-1020.8" font-family="Times,serif" font-size="14.00" fill="white">589 µs 757 ns</text>
</a>
</g>
</g>
<!-- 139931185136400&#45;&gt;139931210688144 -->
<g id="edge12" class="edge">
<title>139931185136400&#45;&gt;139931210688144</title>
<path fill="none" stroke="white" d="M86.16,-1067.12C82.61,-1102.03 77,-1165.84 77,-1220.5 77,-1220.5 77,-1220.5 77,-1567.5 77,-1642.03 148.79,-1690.16 216.04,-1718.91"/>
<polygon fill="white" stroke="white" points="225.49,-1722.84 217.6,-1715.77 216.25,-1719 225.49,-1722.84"/>
<text text-anchor="middle" x="175" y="-1397.8" font-family="Times,serif" font-size="14.00" fill="white">80,087 row(s)/306 chunk(s)</text>
</g>
<!-- 139931185136400&#45;&gt;139931210683344 -->
<g id="edge11" class="edge">
<title>139931185136400&#45;&gt;139931210683344</title>
<path fill="none" stroke="white" d="M94.57,-1067.03C102.53,-1097.24 120.34,-1145.85 156,-1169 180.76,-1185.08 379.54,-1182.96 438.17,-1187.24"/>
<polygon fill="white" stroke="white" points="448.44,-1188.26 438.84,-1183.79 438.49,-1187.27 448.44,-1188.26"/>
<text text-anchor="middle" x="254" y="-1138.3" font-family="Times,serif" font-size="14.00" fill="white">80,087 row(s)/306 chunk(s)</text>
</g>
<!-- 139931210685584 -->
<g id="node12" class="node">
<title>139931210685584</title>
<g id="a_node12"><a xlink:title="Output: 80087 rows in 306 chunks, 1 ms 228 µs.&#10;Chunks: 0 skipped with no results, &#10;0 skipped with all matching, 0 scanned using binary search.">
<polygon fill="none" stroke="white" points="178,-932 0,-932 0,-848 178,-848 178,-932"/>
<text text-anchor="middle" x="89" y="-916.8" font-family="Times,serif" font-size="14.00" fill="white">TableScan</text>
<text text-anchor="middle" x="89" y="-901.8" font-family="Times,serif" font-size="14.00" fill="white">Impl: ColumnLike</text>
<text text-anchor="middle" x="89" y="-886.8" font-family="Times,serif" font-size="14.00" fill="white">p_type LIKE &#39;%STEEL&#39;</text>
<text text-anchor="middle" x="89" y="-855.8" font-family="Times,serif" font-size="14.00" fill="white">1 ms 228 µs</text>
</a>
</g>
</g>
<!-- 139931210685584&#45;&gt;139931185136400 -->
<g id="edge13" class="edge">
<title>139931210685584&#45;&gt;139931185136400</title>
<path fill="none" stroke="white" d="M89,-932.23C89,-954.32 89,-981.31 89,-1002.62"/>
<polygon fill="white" stroke="white" points="85.5,-1002.88 89,-1012.88 92.5,-1002.88 85.5,-1002.88"/>
<text text-anchor="middle" x="187" y="-953.8" font-family="Times,serif" font-size="14.00" fill="white">80,087 row(s)/306 chunk(s)</text>
</g>
<!-- 139931210685904 -->
<g id="node13" class="node">
<title>139931210685904</title>
<g id="a_node13"><a xlink:title="Output: 400257 rows in 306 chunks, 1 ms 983 µs.&#10;Chunks: 0 skipped with no results, &#10;0 skipped with all matching, 0 scanned using binary search.">
<polygon fill="none" stroke="white" points="173.5,-782 4.5,-782 4.5,-698 173.5,-698 173.5,-782"/>
<text text-anchor="middle" x="89" y="-766.8" font-family="Times,serif" font-size="14.00" fill="white">TableScan</text>
<text text-anchor="middle" x="89" y="-751.8" font-family="Times,serif" font-size="14.00" fill="white">Impl: ColumnVsValue</text>
<text text-anchor="middle" x="89" y="-736.8" font-family="Times,serif" font-size="14.00" fill="white">p_size = 44</text>
<text text-anchor="middle" x="89" y="-705.8" font-family="Times,serif" font-size="14.00" fill="white">1 ms 983 µs</text>
</a>
</g>
</g>
<!-- 139931210685904&#45;&gt;139931210685584 -->
<g id="edge14" class="edge">
<title>139931210685904&#45;&gt;139931210685584</title>
<path fill="none" stroke="white" d="M89,-782.23C89,-799.47 89,-819.68 89,-837.85"/>
<polygon fill="white" stroke="white" points="85.5,-837.99 89,-847.99 92.5,-837.99 85.5,-837.99"/>
<text text-anchor="middle" x="191.5" y="-818.8" font-family="Times,serif" font-size="14.00" fill="white">400,257 row(s)/306 chunk(s)</text>
</g>
<!-- 139931201955600 -->
<g id="node14" class="node">
<title>139931201955600</title>
<g id="a_node14"><a xlink:title="Output: 20000000 rows in 306 chunks, 920 µs 939 ns.">
<polygon fill="none" stroke="white" points="150,-632 28,-632 28,-518 150,-518 150,-632"/>
<text text-anchor="middle" x="89" y="-616.8" font-family="Times,serif" font-size="14.00" fill="white">GetTable</text>
<text text-anchor="middle" x="89" y="-601.8" font-family="Times,serif" font-size="14.00" fill="white">(part)</text>
<text text-anchor="middle" x="89" y="-586.8" font-family="Times,serif" font-size="14.00" fill="white">pruned:</text>
<text text-anchor="middle" x="89" y="-571.8" font-family="Times,serif" font-size="14.00" fill="white">0/306 chunk(s)</text>
<text text-anchor="middle" x="89" y="-556.8" font-family="Times,serif" font-size="14.00" fill="white">5/9 column(s)</text>
<text text-anchor="middle" x="89" y="-525.8" font-family="Times,serif" font-size="14.00" fill="white">920 µs 939 ns</text>
</a>
</g>
</g>
<!-- 139931201955600&#45;&gt;139931210685904 -->
<g id="edge15" class="edge">
<title>139931201955600&#45;&gt;139931210685904</title>
<path fill="none" stroke="white" stroke-width="4.58" d="M89,-632.1C89,-650.19 89,-670.13 89,-687.85"/>
<polygon fill="white" stroke="white" stroke-width="4.58" points="84.99,-687.99 89,-697.99 93.01,-687.99 84.99,-687.99"/>
<text text-anchor="middle" x="203" y="-653.8" font-family="Times,serif" font-size="14.00" fill="white">20,000,000 row(s)/306 chunk(s)</text>
</g>
<!-- 139931210687184 -->
<g id="node15" class="node">
<title>139931210687184</title>
<g id="a_node15"><a xlink:title="Output: 199889 rows in 5 chunks, 83 ms 126 µs.&#10;Operator step runtimes:&#10; LeftSideMaterialize 432 µs 252 ns&#10; RightSideMaterialize 5 µs 100 ns&#10; LeftSideTransform 0 ns&#10; RightSideTransform 0 ns&#10; LeftSidePartition 65 ms 278 µs&#10; RightSidePartition 36 µs 128 ns&#10; LeftSideSortBuckets 1 ms 303 µs&#10; RightSideSortBuckets 1 ms 31 µs&#10; GatherRowIds 1 µs 493 ns&#10; FindJoinPartner 10 ms 893 µs&#10; OutputWriting 4 ms 67 µs.">
<polygon fill="none" stroke="white" stroke-width="6.93" points="430.5,-1256 219.5,-1256 219.5,-1187 430.5,-1187 430.5,-1256"/>
<text text-anchor="middle" x="325" y="-1240.8" font-family="Times,serif" font-size="14.00" fill="white">JoinSimdSortMerge (Inner)</text>
<text text-anchor="middle" x="325" y="-1225.8" font-family="Times,serif" font-size="14.00" fill="white">s_nationkey = n_nationkey</text>
<text text-anchor="middle" x="325" y="-1194.8" font-family="Times,serif" font-size="14.00" fill="white">83 ms 126 µs</text>
</a>
</g>
</g>
<!-- 139931210687184&#45;&gt;139931210687824 -->
<g id="edge17" class="edge">
<title>139931210687184&#45;&gt;139931210687824</title>
<path fill="none" stroke="white" d="M316.83,-1256.13C308.76,-1293.43 298.24,-1355.42 303,-1409 306.41,-1447.41 314.44,-1490.51 321.03,-1521.73"/>
<polygon fill="white" stroke="white" points="323.2,-1531.85 324.52,-1521.33 321.1,-1522.07 323.2,-1531.85"/>
<text text-anchor="middle" x="396.5" y="-1397.8" font-family="Times,serif" font-size="14.00" fill="white">199,889 row(s)/5 chunk(s)</text>
</g>
<!-- 139931210687184&#45;&gt;139931210687504 -->
<g id="edge16" class="edge">
<title>139931210687184&#45;&gt;139931210687504</title>
<path fill="none" stroke="white" d="M325.31,-1256.07C327.04,-1267.73 330.9,-1280.1 339,-1289 343.31,-1293.74 348.04,-1298.04 353.1,-1301.95"/>
<polygon fill="white" stroke="white" points="361.31,-1307.78 355.18,-1299.14 353.15,-1301.99 361.31,-1307.78"/>
<text text-anchor="middle" x="432.5" y="-1277.8" font-family="Times,serif" font-size="14.00" fill="white">199,889 row(s)/5 chunk(s)</text>
</g>
<!-- 139931188043536 -->
<g id="node16" class="node">
<title>139931188043536</title>
<g id="a_node16"><a xlink:title="Output: 199889 rows in 5 chunks, 421 µs 21 ns.">
<polygon fill="none" stroke="white" points="484,-1067 376,-1067 376,-1013 484,-1013 484,-1067"/>
<text text-anchor="middle" x="430" y="-1051.8" font-family="Times,serif" font-size="14.00" fill="white">Validate</text>
<text text-anchor="middle" x="430" y="-1020.8" font-family="Times,serif" font-size="14.00" fill="white">421 µs 21 ns</text>
</a>
</g>
</g>
<!-- 139931188043536&#45;&gt;139931210687184 -->
<g id="edge18" class="edge">
<title>139931188043536&#45;&gt;139931210687184</title>
<path fill="none" stroke="white" d="M414.73,-1067.1C397.76,-1096.11 370.1,-1143.4 349.97,-1177.81"/>
<polygon fill="white" stroke="white" points="349.82,-1178.07 346.8,-1176.31 344.77,-1186.71 349.82,-1178.07"/>
<text text-anchor="middle" x="476.5" y="-1138.3" font-family="Times,serif" font-size="14.00" fill="white">199,889 row(s)/5 chunk(s)</text>
</g>
<!-- 139931210686864 -->
<g id="node17" class="node">
<title>139931210686864</title>
<g id="a_node17"><a xlink:title="Output: 199889 rows in 5 chunks, 23 ms 786 µs.&#10;Operator step runtimes:&#10; LeftSideMaterialize 428 µs 74 ns&#10; RightSideMaterialize 3 µs 647 ns&#10; LeftSideTransform 0 ns&#10; RightSideTransform 0 ns&#10; LeftSidePartition 19 ms 933 µs&#10; RightSidePartition 77 µs 665 ns&#10; LeftSideSortBuckets 1 ms 331 µs&#10; RightSideSortBuckets 1 ms 143 µs&#10; GatherRowIds 1 µs 703 ns&#10; FindJoinPartner 612 µs 721 ns&#10; OutputWriting 64 µs 411 ns.">
<polygon fill="none" stroke="white" stroke-width="3.84" points="638.5,-924.5 353.5,-924.5 353.5,-855.5 638.5,-855.5 638.5,-924.5"/>
<text text-anchor="middle" x="496" y="-909.3" font-family="Times,serif" font-size="14.00" fill="white">JoinSimdSortMerge (Semi Reduction)</text>
<text text-anchor="middle" x="496" y="-894.3" font-family="Times,serif" font-size="14.00" fill="white">s_nationkey = n_nationkey</text>
<text text-anchor="middle" x="496" y="-863.3" font-family="Times,serif" font-size="14.00" fill="white">23 ms 786 µs</text>
</a>
</g>
</g>
<!-- 139931210686864&#45;&gt;139931188043536 -->
<g id="edge19" class="edge">
<title>139931210686864&#45;&gt;139931188043536</title>
<path fill="none" stroke="white" d="M483.5,-924.79C478.6,-937.5 472.78,-952.01 467,-965 461.28,-977.86 454.51,-991.72 448.34,-1003.93"/>
<polygon fill="white" stroke="white" points="445.19,-1002.41 443.77,-1012.9 451.43,-1005.59 445.19,-1002.41"/>
<text text-anchor="middle" x="566.5" y="-953.8" font-family="Times,serif" font-size="14.00" fill="white">199,889 row(s)/5 chunk(s)</text>
</g>
<!-- 139931201953808 -->
<g id="node18" class="node">
<title>139931201953808</title>
<g id="a_node18"><a xlink:title="Output: 1000000 rows in 16 chunks, 56 µs 335 ns.">
<polygon fill="none" stroke="white" points="790.5,-797 677.5,-797 677.5,-683 790.5,-683 790.5,-797"/>
<text text-anchor="middle" x="734" y="-781.8" font-family="Times,serif" font-size="14.00" fill="white">GetTable</text>
<text text-anchor="middle" x="734" y="-766.8" font-family="Times,serif" font-size="14.00" fill="white">(supplier)</text>
<text text-anchor="middle" x="734" y="-751.8" font-family="Times,serif" font-size="14.00" fill="white">pruned:</text>
<text text-anchor="middle" x="734" y="-736.8" font-family="Times,serif" font-size="14.00" fill="white">0/16 chunk(s)</text>
<text text-anchor="middle" x="734" y="-721.8" font-family="Times,serif" font-size="14.00" fill="white">0/7 column(s)</text>
<text text-anchor="middle" x="734" y="-690.8" font-family="Times,serif" font-size="14.00" fill="white">56 µs 335 ns</text>
</a>
</g>
</g>
<!-- 139931201953808&#45;&gt;139931210686864 -->
<g id="edge20" class="edge">
<title>139931201953808&#45;&gt;139931210686864</title>
<path fill="none" stroke="white" d="M677.13,-751.55C634.84,-761.79 577.8,-780.95 538,-815 528.08,-823.49 520,-834.93 513.68,-846.28"/>
<polygon fill="white" stroke="white" points="513.6,-846.44 510.5,-844.82 508.98,-855.31 513.6,-846.44"/>
<text text-anchor="middle" x="643" y="-818.8" font-family="Times,serif" font-size="14.00" fill="white">1,000,000 row(s)/16 chunk(s)</text>
</g>
<!-- 139931210688464 -->
<g id="node29" class="node">
<title>139931210688464</title>
<g id="a_node29"><a xlink:title="Output: 199889 rows in 5 chunks, 24 ms 473 µs.&#10;Operator step runtimes:&#10; LeftSideMaterialize 412 µs 334 ns&#10; RightSideMaterialize 6 µs 252 ns&#10; LeftSideTransform 0 ns&#10; RightSideTransform 0 ns&#10; LeftSidePartition 21 ms 123 µs&#10; RightSidePartition 43 µs 843 ns&#10; LeftSideSortBuckets 1 ms 222 µs&#10; RightSideSortBuckets 878 µs 148 ns&#10; GatherRowIds 1 µs 352 ns&#10; FindJoinPartner 506 µs 982 ns&#10; OutputWriting 63 µs 840 ns.">
<polygon fill="none" stroke="white" stroke-width="3.91" points="1035.5,-924.5 826.5,-924.5 826.5,-855.5 1035.5,-855.5 1035.5,-924.5"/>
<text text-anchor="middle" x="931" y="-909.3" font-family="Times,serif" font-size="14.00" fill="white">JoinSimdSortMerge (Semi)</text>
<text text-anchor="middle" x="931" y="-894.3" font-family="Times,serif" font-size="14.00" fill="white">s_nationkey = n_nationkey</text>
<text text-anchor="middle" x="931" y="-863.3" font-family="Times,serif" font-size="14.00" fill="white">24 ms 473 µs</text>
</a>
</g>
</g>
<!-- 139931201953808&#45;&gt;139931210688464 -->
<g id="edge21" class="edge">
<title>139931201953808&#45;&gt;139931210688464</title>
<path fill="none" stroke="white" d="M790.68,-751.72C829.11,-761.81 878.32,-780.71 909,-815 916.59,-823.49 921.57,-834.5 924.83,-845.42"/>
<polygon fill="white" stroke="white" points="924.89,-845.65 921.5,-846.52 927.37,-855.34 924.89,-845.65"/>
<text text-anchor="middle" x="1023" y="-818.8" font-family="Times,serif" font-size="14.00" fill="white">1,000,000 row(s)/16 chunk(s)</text>
</g>
<!-- 139931185137424 -->
<g id="node19" class="node">
<title>139931185137424</title>
<g id="a_node19"><a xlink:title="Output: 5 rows in 1 chunk, 2 µs 284 ns.">
<polygon fill="none" stroke="white" points="425.5,-767 326.5,-767 326.5,-713 425.5,-713 425.5,-767"/>
<text text-anchor="middle" x="376" y="-751.8" font-family="Times,serif" font-size="14.00" fill="white">Validate</text>
<text text-anchor="middle" x="376" y="-720.8" font-family="Times,serif" font-size="14.00" fill="white">2 µs 284 ns</text>
</a>
</g>
</g>
<!-- 139931185137424&#45;&gt;139931210687184 -->
<g id="edge23" class="edge">
<title>139931185137424&#45;&gt;139931210687184</title>
<path fill="none" stroke="white" d="M367.7,-767.21C361.05,-788.77 351.74,-820.18 345,-848 334.12,-892.9 329.47,-904.02 325,-950 317.28,-1029.53 319.82,-1122.84 322.39,-1176.48"/>
<polygon fill="white" stroke="white" points="322.91,-1186.66 325.9,-1176.5 322.4,-1176.67 322.91,-1186.66"/>
<text text-anchor="middle" x="394" y="-953.8" font-family="Times,serif" font-size="14.00" fill="white">5 row(s)/1 chunk(s)</text>
</g>
<!-- 139931185137424&#45;&gt;139931210686864 -->
<g id="edge22" class="edge">
<title>139931185137424&#45;&gt;139931210686864</title>
<path fill="none" stroke="white" d="M369.47,-767.17C366.3,-786.07 365.33,-811.42 377,-830 381.54,-837.23 387.26,-843.6 393.71,-849.21"/>
<polygon fill="white" stroke="white" points="401.6,-855.45 395.93,-846.5 393.76,-849.25 401.6,-855.45"/>
<text text-anchor="middle" x="446" y="-818.8" font-family="Times,serif" font-size="14.00" fill="white">5 row(s)/1 chunk(s)</text>
</g>
<!-- 139931185137424&#45;&gt;139931210688464 -->
<g id="edge24" class="edge">
<title>139931185137424&#45;&gt;139931210688464</title>
<path fill="none" stroke="white" d="M425.69,-750.25C523.61,-768.56 733.37,-808.25 748,-815 757.77,-819.51 757.59,-824.78 767,-830 782.62,-838.67 799.77,-846.49 816.9,-853.37"/>
<polygon fill="white" stroke="white" points="826.41,-857.1 818.38,-850.19 817.1,-853.45 826.41,-857.1"/>
<text text-anchor="middle" x="836" y="-818.8" font-family="Times,serif" font-size="14.00" fill="white">5 row(s)/1 chunk(s)</text>
</g>
<!-- 139931210683984 -->
<g id="node20" class="node">
<title>139931210683984</title>
<g id="a_node20"><a xlink:title="Output: 5 rows in 1 chunk, 2 ms 261 µs.&#10;Operator step runtimes:&#10; LeftSideMaterialize 7 µs 604 ns&#10; RightSideMaterialize 4 µs 158 ns&#10; LeftSideTransform 0 ns&#10; RightSideTransform 0 ns&#10; LeftSidePartition 32 µs 902 ns&#10; RightSidePartition 15 µs 68 ns&#10; LeftSideSortBuckets 844 µs 926 ns&#10; RightSideSortBuckets 1 ms 262 µs&#10; GatherRowIds 1 µs 734 ns&#10; FindJoinPartner 5 µs 189 ns&#10; OutputWriting 13 µs 856 ns.">
<polygon fill="none" stroke="white" points="480.5,-609.5 271.5,-609.5 271.5,-540.5 480.5,-540.5 480.5,-609.5"/>
<text text-anchor="middle" x="376" y="-594.3" font-family="Times,serif" font-size="14.00" fill="white">JoinSimdSortMerge (Semi)</text>
<text text-anchor="middle" x="376" y="-579.3" font-family="Times,serif" font-size="14.00" fill="white">n_regionkey = r_regionkey</text>
<text text-anchor="middle" x="376" y="-548.3" font-family="Times,serif" font-size="14.00" fill="white">2 ms 261 µs</text>
</a>
</g>
</g>
<!-- 139931210683984&#45;&gt;139931185137424 -->
<g id="edge25" class="edge">
<title>139931210683984&#45;&gt;139931185137424</title>
<path fill="none" stroke="white" d="M376,-609.77C376,-636.89 376,-674.9 376,-702.68"/>
<polygon fill="white" stroke="white" points="372.5,-702.78 376,-712.78 379.5,-702.78 372.5,-702.78"/>
<text text-anchor="middle" x="445" y="-653.8" font-family="Times,serif" font-size="14.00" fill="white">5 row(s)/1 chunk(s)</text>
</g>
<!-- 139931201954256 -->
<g id="node21" class="node">
<title>139931201954256</title>
<g id="a_node21"><a xlink:title="Output: 25 rows in 1 chunk, 24 µs 356 ns.">
<polygon fill="none" stroke="white" points="347.5,-467 234.5,-467 234.5,-353 347.5,-353 347.5,-467"/>
<text text-anchor="middle" x="291" y="-451.8" font-family="Times,serif" font-size="14.00" fill="white">GetTable</text>
<text text-anchor="middle" x="291" y="-436.8" font-family="Times,serif" font-size="14.00" fill="white">(nation)</text>
<text text-anchor="middle" x="291" y="-421.8" font-family="Times,serif" font-size="14.00" fill="white">pruned:</text>
<text text-anchor="middle" x="291" y="-406.8" font-family="Times,serif" font-size="14.00" fill="white">0/1 chunk(s)</text>
<text text-anchor="middle" x="291" y="-391.8" font-family="Times,serif" font-size="14.00" fill="white">1/4 column(s)</text>
<text text-anchor="middle" x="291" y="-360.8" font-family="Times,serif" font-size="14.00" fill="white">24 µs 356 ns</text>
</a>
</g>
</g>
<!-- 139931201954256&#45;&gt;139931210683984 -->
<g id="edge26" class="edge">
<title>139931201954256&#45;&gt;139931210683984</title>
<path fill="none" stroke="white" d="M284.62,-467.17C285.25,-478.42 287.36,-489.89 292,-500 297.74,-512.51 306.73,-523.76 316.73,-533.49"/>
<polygon fill="white" stroke="white" points="316.79,-533.55 314.43,-536.13 324.16,-540.31 316.79,-533.55"/>
<text text-anchor="middle" x="365.5" y="-488.8" font-family="Times,serif" font-size="14.00" fill="white">25 row(s)/1 chunk(s)</text>
</g>
<!-- 139932340801552 -->
<g id="node22" class="node">
<title>139932340801552</title>
<g id="a_node22"><a xlink:title="Output: 1 row in 1 chunk, 7 µs 44 ns.">
<polygon fill="none" stroke="white" points="506,-437 416,-437 416,-383 506,-383 506,-437"/>
<text text-anchor="middle" x="461" y="-421.8" font-family="Times,serif" font-size="14.00" fill="white">Validate</text>
<text text-anchor="middle" x="461" y="-390.8" font-family="Times,serif" font-size="14.00" fill="white">7 µs 44 ns</text>
</a>
</g>
</g>
<!-- 139932340801552&#45;&gt;139931210683984 -->
<g id="edge27" class="edge">
<title>139932340801552&#45;&gt;139931210683984</title>
<path fill="none" stroke="white" d="M457.81,-437.05C454.79,-455.41 449.17,-480.17 439,-500 433.17,-511.37 425.27,-522.49 417.04,-532.52"/>
<polygon fill="white" stroke="white" points="410.41,-540.3 419.56,-534.96 416.89,-532.69 410.41,-540.3"/>
<text text-anchor="middle" x="514" y="-488.8" font-family="Times,serif" font-size="14.00" fill="white">1 row(s)/1 chunk(s)</text>
</g>
<!-- 139931210683664 -->
<g id="node23" class="node">
<title>139931210683664</title>
<g id="a_node23"><a xlink:title="Output: 1 row in 1 chunk, 21 µs 210 ns.&#10;Chunks: 0 skipped with no results, &#10;0 skipped with all matching, 0 scanned using binary search.">
<polygon fill="none" stroke="white" points="545.5,-302 376.5,-302 376.5,-218 545.5,-218 545.5,-302"/>
<text text-anchor="middle" x="461" y="-286.8" font-family="Times,serif" font-size="14.00" fill="white">TableScan</text>
<text text-anchor="middle" x="461" y="-271.8" font-family="Times,serif" font-size="14.00" fill="white">Impl: ColumnVsValue</text>
<text text-anchor="middle" x="461" y="-256.8" font-family="Times,serif" font-size="14.00" fill="white">r_name = &#39;ASIA&#39;</text>
<text text-anchor="middle" x="461" y="-225.8" font-family="Times,serif" font-size="14.00" fill="white">21 µs 210 ns</text>
</a>
</g>
</g>
<!-- 139931210683664&#45;&gt;139932340801552 -->
<g id="edge28" class="edge">
<title>139931210683664&#45;&gt;139932340801552</title>
<path fill="none" stroke="white" d="M461,-302.23C461,-324.32 461,-351.31 461,-372.62"/>
<polygon fill="white" stroke="white" points="457.5,-372.88 461,-382.88 464.5,-372.88 457.5,-372.88"/>
<text text-anchor="middle" x="530" y="-323.8" font-family="Times,serif" font-size="14.00" fill="white">1 row(s)/1 chunk(s)</text>
</g>
<!-- 139931201955152 -->
<g id="node24" class="node">
<title>139931201955152</title>
<g id="a_node24"><a xlink:title="Output: 5 rows in 1 chunk, 11 µs 281 ns.">
<polygon fill="none" stroke="white" points="517.5,-140.5 404.5,-140.5 404.5,-26.5 517.5,-26.5 517.5,-140.5"/>
<text text-anchor="middle" x="461" y="-125.3" font-family="Times,serif" font-size="14.00" fill="white">GetTable</text>
<text text-anchor="middle" x="461" y="-110.3" font-family="Times,serif" font-size="14.00" fill="white">(region)</text>
<text text-anchor="middle" x="461" y="-95.3" font-family="Times,serif" font-size="14.00" fill="white">pruned:</text>
<text text-anchor="middle" x="461" y="-80.3" font-family="Times,serif" font-size="14.00" fill="white">0/1 chunk(s)</text>
<text text-anchor="middle" x="461" y="-65.3" font-family="Times,serif" font-size="14.00" fill="white">1/3 column(s)</text>
<text text-anchor="middle" x="461" y="-34.3" font-family="Times,serif" font-size="14.00" fill="white">11 µs 281 ns</text>
</a>
</g>
</g>
<!-- 139931201955152&#45;&gt;139931210683664 -->
<g id="edge29" class="edge">
<title>139931201955152&#45;&gt;139931210683664</title>
<path fill="none" stroke="white" d="M461,-140.67C461,-162.25 461,-186.74 461,-207.83"/>
<polygon fill="white" stroke="white" points="457.5,-207.87 461,-217.87 464.5,-207.87 457.5,-207.87"/>
<text text-anchor="middle" x="530" y="-188.8" font-family="Times,serif" font-size="14.00" fill="white">5 row(s)/1 chunk(s)</text>
</g>
<!-- 139932217120272 -->
<g id="node25" class="node">
<title>139932217120272</title>
<g id="a_node25"><a xlink:title="Output: 47323 rows in 1 chunk, 81 ms 357 µs.&#10;Operator step runtimes:&#10; GroupByKeyPartitioning 40 ms 210 µs&#10; Aggregating 40 ms 55 µs&#10; GroupByColumnsWriting 506 µs 782 ns&#10; AggregateColumnsWriting 468 µs 78 ns&#10; OutputWriting 51 µs 286 ns.">
<polygon fill="none" stroke="white" stroke-width="6.88" points="724,-1703 544,-1703 544,-1619 724,-1619 724,-1703"/>
<text text-anchor="middle" x="634" y="-1687.8" font-family="Times,serif" font-size="14.00" fill="white">AggregateHash</text>
<text text-anchor="middle" x="634" y="-1672.8" font-family="Times,serif" font-size="14.00" fill="white">GroupBy {ps_partkey}</text>
<text text-anchor="middle" x="634" y="-1657.8" font-family="Times,serif" font-size="14.00" fill="white">MIN(ps_supplycost)</text>
<text text-anchor="middle" x="634" y="-1626.8" font-family="Times,serif" font-size="14.00" fill="white">81 ms 357 µs</text>
</a>
</g>
</g>
<!-- 139932217120272&#45;&gt;139931210689104 -->
<g id="edge30" class="edge">
<title>139932217120272&#45;&gt;139931210689104</title>
<path fill="none" stroke="white" d="M631.19,-1703.14C626.85,-1738.37 615.86,-1788.7 588,-1823 584.75,-1827 581.15,-1830.77 577.3,-1834.3"/>
<polygon fill="white" stroke="white" points="569.61,-1840.82 579.5,-1837.03 577.24,-1834.36 569.61,-1840.82"/>
<text text-anchor="middle" x="717" y="-1751.8" font-family="Times,serif" font-size="14.00" fill="white">47,323 row(s)/1 chunk(s)</text>
</g>
<!-- 139931185135632 -->
<g id="node26" class="node">
<title>139931185135632</title>
<g id="a_node26"><a xlink:title="Output: 64088 rows in 104 chunks, 988 µs 907 ns.">
<polygon fill="none" stroke="white" points="734.5,-1481 617.5,-1481 617.5,-1427 734.5,-1427 734.5,-1481"/>
<text text-anchor="middle" x="676" y="-1465.8" font-family="Times,serif" font-size="14.00" fill="white">Validate</text>
<text text-anchor="middle" x="676" y="-1434.8" font-family="Times,serif" font-size="14.00" fill="white">988 µs 907 ns</text>
</a>
</g>
</g>
<!-- 139931185135632&#45;&gt;139932217120272 -->
<g id="edge31" class="edge">
<title>139931185135632&#45;&gt;139932217120272</title>
<path fill="none" stroke="white" d="M670.6,-1481.38C664.02,-1513.48 652.77,-1568.4 644.47,-1608.89"/>
<polygon fill="white" stroke="white" points="641.01,-1608.35 642.43,-1618.85 647.87,-1609.75 641.01,-1608.35"/>
<text text-anchor="middle" x="764" y="-1502.8" font-family="Times,serif" font-size="14.00" fill="white">64,088 row(s)/104 chunk(s)</text>
</g>
<!-- 139931210688784&#45;&gt;139931185135632 -->
<g id="edge32" class="edge">
<title>139931210688784&#45;&gt;139931185135632</title>
<path fill="none" stroke="white" d="M740.59,-1376.25C729.16,-1389.84 716,-1405.47 704.55,-1419.07"/>
<polygon fill="white" stroke="white" points="701.8,-1416.91 698.04,-1426.81 707.16,-1421.42 701.8,-1416.91"/>
<text text-anchor="middle" x="823" y="-1397.8" font-family="Times,serif" font-size="14.00" fill="white">64,088 row(s)/104 chunk(s)</text>
</g>
<!-- 139932340804880 -->
<g id="node28" class="node">
<title>139932340804880</title>
<g id="a_node28"><a xlink:title="Output: 199889 rows in 5 chunks, 600 µs 327 ns.">
<polygon fill="none" stroke="white" points="1036.5,-1169 919.5,-1169 919.5,-1115 1036.5,-1115 1036.5,-1169"/>
<text text-anchor="middle" x="978" y="-1153.8" font-family="Times,serif" font-size="14.00" fill="white">Validate</text>
<text text-anchor="middle" x="978" y="-1122.8" font-family="Times,serif" font-size="14.00" fill="white">600 µs 327 ns</text>
</a>
</g>
</g>
<!-- 139932340804880&#45;&gt;139931210688784 -->
<g id="edge33" class="edge">
<title>139932340804880&#45;&gt;139931210688784</title>
<path fill="none" stroke="white" d="M983.62,-1169.06C988.93,-1201.19 992.35,-1255.62 964,-1289 952.5,-1302.54 919.49,-1313.44 883.82,-1321.66"/>
<polygon fill="white" stroke="white" points="873.7,-1323.91 884.22,-1325.15 883.46,-1321.74 873.7,-1323.91"/>
<text text-anchor="middle" x="1080.5" y="-1217.8" font-family="Times,serif" font-size="14.00" fill="white">199,889 row(s)/5 chunk(s)</text>
</g>
<!-- 139931210688464&#45;&gt;139932340804880 -->
<g id="edge34" class="edge">
<title>139931210688464&#45;&gt;139932340804880</title>
<path fill="none" stroke="white" d="M937.34,-924.72C946.16,-971.65 962.08,-1056.34 971.17,-1104.65"/>
<polygon fill="white" stroke="white" points="967.76,-1105.48 973.05,-1114.66 974.64,-1104.19 967.76,-1105.48"/>
<text text-anchor="middle" x="1037.5" y="-953.8" font-family="Times,serif" font-size="14.00" fill="white">199,889 row(s)/5 chunk(s)</text>
</g>
<!-- 0 -->
<g id="node30" class="node">
<title>0</title>
<polygon fill="none" stroke="white" points="536,-0.5 536,-166.5 882,-166.5 882,-0.5 536,-0.5"/>
<text text-anchor="middle" x="709" y="-151.3" font-family="Times,serif" font-size="14.00" fill="white">Total by operator</text>
<polyline fill="none" stroke="white" points="536,-143.5 882,-143.5 "/>
<text text-anchor="end" x="690" y="-128.3" font-family="Times,serif" font-size="14.00" fill="white">JoinSimdSortMerge </text>
<text text-anchor="end" x="690" y="-113.3" font-family="Times,serif" font-size="14.00" fill="white"> Sort </text>
<text text-anchor="end" x="690" y="-98.3" font-family="Times,serif" font-size="14.00" fill="white"> AggregateHash </text>
<text text-anchor="end" x="690" y="-83.3" font-family="Times,serif" font-size="14.00" fill="white"> Validate </text>
<text text-anchor="end" x="690" y="-68.3" font-family="Times,serif" font-size="14.00" fill="white"> GetTable </text>
<text text-anchor="end" x="690" y="-53.3" font-family="Times,serif" font-size="14.00" fill="white"> TableScan </text>
<text text-anchor="end" x="690" y="-38.3" font-family="Times,serif" font-size="14.00" fill="white"> Limit </text>
<text text-anchor="end" x="690" y="-23.3" font-family="Times,serif" font-size="14.00" fill="white"> Projection </text>
<text text-anchor="end" x="690" y="-8.3" font-family="Times,serif" font-size="14.00" fill="white">total</text>
<polyline fill="none" stroke="white" points="698,-0.5 698,-143.5 "/>
<text text-anchor="start" x="706" y="-128.3" font-family="Times,serif" font-size="14.00" fill="white">363 ms 952 µs </text>
<text text-anchor="start" x="706" y="-113.3" font-family="Times,serif" font-size="14.00" fill="white"> 97 ms 149 µs </text>
<text text-anchor="start" x="706" y="-98.3" font-family="Times,serif" font-size="14.00" fill="white"> 81 ms 357 µs </text>
<text text-anchor="start" x="706" y="-83.3" font-family="Times,serif" font-size="14.00" fill="white"> 3 ms 893 µs </text>
<text text-anchor="start" x="706" y="-68.3" font-family="Times,serif" font-size="14.00" fill="white"> 3 ms 716 µs </text>
<text text-anchor="start" x="706" y="-53.3" font-family="Times,serif" font-size="14.00" fill="white"> 3 ms 232 µs </text>
<text text-anchor="start" x="706" y="-38.3" font-family="Times,serif" font-size="14.00" fill="white"> 19 µs 306 ns </text>
<text text-anchor="start" x="706" y="-23.3" font-family="Times,serif" font-size="14.00" fill="white"> 14 µs 417 ns </text>
<text text-anchor="start" x="706" y="-8.3" font-family="Times,serif" font-size="14.00" fill="white"> 553 ms 332 µs </text>
<polyline fill="none" stroke="white" points="829,-0.5 829,-143.5 "/>
<text text-anchor="start" x="837" y="-128.3" font-family="Times,serif" font-size="14.00" fill="white">66 %</text>
<text text-anchor="start" x="837" y="-113.3" font-family="Times,serif" font-size="14.00" fill="white">18 %</text>
<text text-anchor="start" x="837" y="-98.3" font-family="Times,serif" font-size="14.00" fill="white">15 %</text>
<text text-anchor="start" x="837" y="-83.3" font-family="Times,serif" font-size="14.00" fill="white">1 %</text>
<text text-anchor="start" x="837" y="-68.3" font-family="Times,serif" font-size="14.00" fill="white">1 %</text>
<text text-anchor="start" x="837" y="-53.3" font-family="Times,serif" font-size="14.00" fill="white">1 %</text>
<text text-anchor="start" x="837" y="-38.3" font-family="Times,serif" font-size="14.00" fill="white">0 %</text>
<text text-anchor="start" x="837" y="-23.3" font-family="Times,serif" font-size="14.00" fill="white">0 %</text>
<text text-anchor="start" x="837" y="-8.3" font-family="Times,serif" font-size="14.00" fill="white"> </text>
</g>
</g>
</svg>
