<?xml version="1.0" encoding="UTF-8" standalone="no"?>
<!DOCTYPE svg PUBLIC "-//W3C//DTD SVG 1.1//EN"
 "http://www.w3.org/Graphics/SVG/1.1/DTD/svg11.dtd">
<!-- Generated by graphviz version 2.43.0 (0)
 -->
<!-- Title: G Pages: 1 -->
<svg width="984pt" height="1829pt"
 viewBox="0.00 0.00 984.00 1829.00" xmlns="http://www.w3.org/2000/svg" xmlns:xlink="http://www.w3.org/1999/xlink">
<g id="graph0" class="graph" transform="scale(1 1) rotate(0) translate(4 1825)">
<title>G</title>
<polygon fill="black" stroke="transparent" points="-4,4 -4,-1825 980,-1825 980,4 -4,4"/>
<text text-anchor="middle" x="319.5" y="-1805.8" font-family="Times,serif" font-size="14.00" fill="white">For tooltips with advanced information, hover your mouse over vertices or edge labels.</text>
<!-- 140256860332944 -->
<g id="node1" class="node">
<title>140256860332944</title>
<g id="a_node1"><a xlink:title="Output: 8685 rows in 1 chunk filtered: 0, 2 µs 642 ns.">
<polygon fill="none" stroke="white" points="278.5,-1766 128.5,-1766 128.5,-1697 278.5,-1697 278.5,-1766"/>
<text text-anchor="middle" x="203.5" y="-1750.8" font-family="Times,serif" font-size="14.00" fill="white">Alias</text>
<text text-anchor="middle" x="203.5" y="-1735.8" font-family="Times,serif" font-size="14.00" fill="white">[ps_partkey, value]</text>
<text text-anchor="middle" x="203.5" y="-1704.8" font-family="Times,serif" font-size="14.00" fill="white">2 µs 642 ns</text>
</a>
</g>
</g>
<!-- 140256860332624 -->
<g id="node2" class="node">
<title>140256860332624</title>
<g id="a_node2"><a xlink:title="Output: 8685 rows in 1 chunk filtered: 0, 901 µs 314 ns.&#10;Operator step runtimes:&#10; MaterializeSortColumns 150 µs 471 ns&#10; Sort 621 µs 738 ns&#10; TemporaryResultWriting 20 µs 67 ns&#10; WriteOutput 104 µs 883 ns.">
<polygon fill="none" stroke="white" points="262,-1646 145,-1646 145,-1592 262,-1592 262,-1646"/>
<text text-anchor="middle" x="203.5" y="-1630.8" font-family="Times,serif" font-size="14.00" fill="white">Sort</text>
<text text-anchor="middle" x="203.5" y="-1599.8" font-family="Times,serif" font-size="14.00" fill="white">901 µs 314 ns</text>
</a>
</g>
</g>
<!-- 140256860332624&#45;&gt;140256860332944 -->
<g id="edge1" class="edge">
<title>140256860332624&#45;&gt;140256860332944</title>
<path fill="none" stroke="white" d="M203.5,-1646.19C203.5,-1658.29 203.5,-1673 203.5,-1686.72"/>
<polygon fill="white" stroke="white" points="200,-1686.95 203.5,-1696.95 207,-1686.96 200,-1686.95"/>
<text text-anchor="middle" x="288" y="-1667.8" font-family="Times,serif" font-size="14.00" fill="white">8,685 row(s)/1 chunk(s)</text>
</g>
<!-- 140256860332304 -->
<g id="node3" class="node">
<title>140256860332304</title>
<g id="a_node3"><a xlink:title="Output: 8685 rows in 5 chunks filtered: 0, 678 µs 598 ns.&#10;Chunks: 0 skipped with no results, &#10;0 skipped with all matching, 0 scanned using binary search.">
<polygon fill="none" stroke="white" points="407,-1541 0,-1541 0,-1442 407,-1442 407,-1541"/>
<text text-anchor="middle" x="203.5" y="-1525.8" font-family="Times,serif" font-size="14.00" fill="white">TableScan</text>
<text text-anchor="middle" x="203.5" y="-1510.8" font-family="Times,serif" font-size="14.00" fill="white">Impl: ColumnVsValue</text>
<text text-anchor="middle" x="203.5" y="-1495.8" font-family="Times,serif" font-size="14.00" fill="white">SUM(ps_supplycost * ps_availqty) &gt; SUBQUERY (PQP,</text>
<text text-anchor="middle" x="203.5" y="-1480.8" font-family="Times,serif" font-size="14.00" fill="white">0x7f9018565fd0)</text>
<text text-anchor="middle" x="203.5" y="-1449.8" font-family="Times,serif" font-size="14.00" fill="white">678 µs 598 ns</text>
</a>
</g>
</g>
<!-- 140256860332304&#45;&gt;140256860332624 -->
<g id="edge2" class="edge">
<title>140256860332304&#45;&gt;140256860332624</title>
<path fill="none" stroke="white" d="M203.5,-1541.02C203.5,-1554.49 203.5,-1568.89 203.5,-1581.54"/>
<polygon fill="white" stroke="white" points="200,-1581.7 203.5,-1591.7 207,-1581.7 200,-1581.7"/>
<text text-anchor="middle" x="288" y="-1562.8" font-family="Times,serif" font-size="14.00" fill="white">8,685 row(s)/5 chunk(s)</text>
</g>
<!-- 140298363750416 -->
<g id="node4" class="node">
<title>140298363750416</title>
<g id="a_node4"><a xlink:title="Output: 304774 rows in 5 chunks filtered: 0, 87 ms 33 µs.&#10;Operator step runtimes:&#10; GroupByKeyPartitioning 46 ms 674 µs&#10; Aggregating 31 ms 348 µs&#10; GroupByColumnsWriting 1 ms 295 µs&#10; AggregateColumnsWriting 7 ms 645 µs&#10; OutputWriting 16 µs 732 ns.">
<polygon fill="none" stroke="white" stroke-width="8" points="325,-1319 66,-1319 66,-1235 325,-1235 325,-1319"/>
<text text-anchor="middle" x="195.5" y="-1303.8" font-family="Times,serif" font-size="14.00" fill="white">AggregateHash</text>
<text text-anchor="middle" x="195.5" y="-1288.8" font-family="Times,serif" font-size="14.00" fill="white">GroupBy {ps_partkey}</text>
<text text-anchor="middle" x="195.5" y="-1273.8" font-family="Times,serif" font-size="14.00" fill="white">SUM(ps_supplycost * ps_availqty)</text>
<text text-anchor="middle" x="195.5" y="-1242.8" font-family="Times,serif" font-size="14.00" fill="white">87 ms 33 µs</text>
</a>
</g>
</g>
<!-- 140298363750416&#45;&gt;140256860332304 -->
<g id="edge3" class="edge">
<title>140298363750416&#45;&gt;140256860332304</title>
<path fill="none" stroke="white" d="M195.26,-1319.08C195.28,-1340.52 195.56,-1367.18 196.5,-1391 197.02,-1404.24 197.86,-1418.45 198.77,-1431.87"/>
<polygon fill="white" stroke="white" points="195.29,-1432.22 199.48,-1441.95 202.27,-1431.73 195.29,-1432.22"/>
<text text-anchor="middle" x="290" y="-1360.3" font-family="Times,serif" font-size="14.00" fill="white">304,774 row(s)/5 chunk(s)</text>
</g>
<!-- 140256860331344 -->
<g id="node5" class="node">
<title>140256860331344</title>
<g id="a_node5"><a xlink:title="Output: 323920 rows in 256 chunks filtered: 0, 27 ms 954 µs.&#10;Operator step runtimes:&#10; ForwardUnmodifiedColumns 2 ms 450 µs&#10; EvaluateNewColumns 24 ms 871 µs&#10; BuildOutput 497 µs 797 ns.">
<polygon fill="none" stroke="white" stroke-width="5.2" points="267,-1082 154,-1082 154,-1028 267,-1028 267,-1082"/>
<text text-anchor="middle" x="210.5" y="-1066.8" font-family="Times,serif" font-size="14.00" fill="white">Projection</text>
<text text-anchor="middle" x="210.5" y="-1035.8" font-family="Times,serif" font-size="14.00" fill="white">27 ms 954 µs</text>
</a>
</g>
</g>
<!-- 140256860331344&#45;&gt;140298363750416 -->
<g id="edge4" class="edge">
<title>140256860331344&#45;&gt;140298363750416</title>
<path fill="none" stroke="white" d="M208.72,-1082.1C206.33,-1117.16 202.03,-1180.21 198.99,-1224.88"/>
<polygon fill="white" stroke="white" points="195.49,-1224.75 198.3,-1234.97 202.47,-1225.23 195.49,-1224.75"/>
<text text-anchor="middle" x="310" y="-1103.8" font-family="Times,serif" font-size="14.00" fill="white">323,920 row(s)/256 chunk(s)</text>
</g>
<!-- 140256859646736 -->
<g id="node6" class="node">
<title>140256859646736</title>
<g id="a_node6"><a xlink:title="Output: 323920 rows in 256 chunks filtered: 0, 1 ms 298 µs.">
<polygon fill="none" stroke="white" points="376.5,-977 272.5,-977 272.5,-923 376.5,-923 376.5,-977"/>
<text text-anchor="middle" x="324.5" y="-961.8" font-family="Times,serif" font-size="14.00" fill="white">Validate</text>
<text text-anchor="middle" x="324.5" y="-930.8" font-family="Times,serif" font-size="14.00" fill="white">1 ms 298 µs</text>
</a>
</g>
</g>
<!-- 140256859646736&#45;&gt;140256860331344 -->
<g id="edge5" class="edge">
<title>140256859646736&#45;&gt;140256860331344</title>
<path fill="none" stroke="white" d="M272.35,-958.95C250.58,-965.06 227.21,-975.88 213.5,-995 208.79,-1001.56 206.7,-1009.67 206.05,-1017.75"/>
<polygon fill="white" stroke="white" points="202.55,-1017.81 205.93,-1027.86 209.55,-1017.9 202.55,-1017.81"/>
<text text-anchor="middle" x="316" y="-998.8" font-family="Times,serif" font-size="14.00" fill="white">323,920 row(s)/256 chunk(s)</text>
</g>
<!-- 140256860331664 -->
<g id="node17" class="node">
<title>140256860331664</title>
<g id="a_node17"><a xlink:title="Output: 323920 rows in 256 chunks filtered: 0, 29 ms 833 µs.&#10;Operator step runtimes:&#10; ForwardUnmodifiedColumns 247 µs 54 ns&#10; EvaluateNewColumns 29 ms 282 µs&#10; BuildOutput 132 µs 207 ns.">
<polygon fill="none" stroke="white" stroke-width="5.36" points="498,-1082 385,-1082 385,-1028 498,-1028 498,-1082"/>
<text text-anchor="middle" x="441.5" y="-1066.8" font-family="Times,serif" font-size="14.00" fill="white">Projection</text>
<text text-anchor="middle" x="441.5" y="-1035.8" font-family="Times,serif" font-size="14.00" fill="white">29 ms 833 µs</text>
</a>
</g>
</g>
<!-- 140256859646736&#45;&gt;140256860331664 -->
<g id="edge6" class="edge">
<title>140256859646736&#45;&gt;140256860331664</title>
<path fill="none" stroke="white" d="M376.86,-967.14C391.85,-973.81 407.17,-982.9 418.5,-995 424.6,-1001.52 429.15,-1009.84 432.51,-1018.16"/>
<polygon fill="white" stroke="white" points="429.29,-1019.57 435.93,-1027.83 435.89,-1017.23 429.29,-1019.57"/>
<text text-anchor="middle" x="531" y="-998.8" font-family="Times,serif" font-size="14.00" fill="white">323,920 row(s)/256 chunk(s)</text>
</g>
<!-- 140256860331024 -->
<g id="node7" class="node">
<title>140256860331024</title>
<g id="a_node7"><a xlink:title="Output: 323920 rows in 256 chunks filtered: 0, 37 ms 144 µs.&#10;Operator step runtimes:&#10; LeftSideMaterialize 2 ms 942 µs&#10; RightSideMaterialize 164 µs 428 ns&#10; LeftSideTransform 0 ns&#10; RightSideTransform 0 ns&#10; LeftSidePartition 15 ms 304 µs&#10; RightSidePartition 1 ms 754 µs&#10; LeftSideSortBuckets 10 ms 993 µs&#10; RightSideSortBuckets 1 ms 95 µs&#10; GatherRowIds 1 µs 951 ns&#10; FindJoinPartner 1 ms 550 µs&#10; OutputWriting 1 ms 626 µs.&#10;Radix bits: 8.">
<polygon fill="none" stroke="white" stroke-width="5.9" points="429,-872 220,-872 220,-803 429,-803 429,-872"/>
<text text-anchor="middle" x="324.5" y="-856.8" font-family="Times,serif" font-size="14.00" fill="white">JoinSimdSortMerge (Semi)</text>
<text text-anchor="middle" x="324.5" y="-841.8" font-family="Times,serif" font-size="14.00" fill="white">ps_suppkey = s_suppkey</text>
<text text-anchor="middle" x="324.5" y="-810.8" font-family="Times,serif" font-size="14.00" fill="white">37 ms 144 µs</text>
</a>
</g>
</g>
<!-- 140256860331024&#45;&gt;140256859646736 -->
<g id="edge7" class="edge">
<title>140256860331024&#45;&gt;140256859646736</title>
<path fill="none" stroke="white" d="M324.5,-872.25C324.5,-885.07 324.5,-899.73 324.5,-912.77"/>
<polygon fill="white" stroke="white" points="321,-912.81 324.5,-922.81 328,-912.81 321,-912.81"/>
<text text-anchor="middle" x="427" y="-893.8" font-family="Times,serif" font-size="14.00" fill="white">323,920 row(s)/256 chunk(s)</text>
</g>
<!-- 140256859093136 -->
<g id="node8" class="node">
<title>140256859093136</title>
<g id="a_node8"><a xlink:title="Output: 8000000 rows in 123 chunks filtered: 0, 378 µs 993 ns.">
<polygon fill="none" stroke="white" points="264.5,-752 142.5,-752 142.5,-638 264.5,-638 264.5,-752"/>
<text text-anchor="middle" x="203.5" y="-736.8" font-family="Times,serif" font-size="14.00" fill="white">GetTable</text>
<text text-anchor="middle" x="203.5" y="-721.8" font-family="Times,serif" font-size="14.00" fill="white">(partsupp)</text>
<text text-anchor="middle" x="203.5" y="-706.8" font-family="Times,serif" font-size="14.00" fill="white">pruned:</text>
<text text-anchor="middle" x="203.5" y="-691.8" font-family="Times,serif" font-size="14.00" fill="white">0/123 chunk(s)</text>
<text text-anchor="middle" x="203.5" y="-676.8" font-family="Times,serif" font-size="14.00" fill="white">1/5 column(s)</text>
<text text-anchor="middle" x="203.5" y="-645.8" font-family="Times,serif" font-size="14.00" fill="white">378 µs 993 ns</text>
</a>
</g>
</g>
<!-- 140256859093136&#45;&gt;140256860331024 -->
<g id="edge8" class="edge">
<title>140256859093136&#45;&gt;140256860331024</title>
<path fill="none" stroke="white" stroke-width="8" d="M194.65,-752.1C195.32,-763.73 198.07,-775.36 204.5,-785 207.12,-788.93 210.1,-792.55 213.38,-795.9"/>
<polygon fill="white" stroke="white" stroke-width="8" points="213.58,-796.09 208.88,-801.27 220.99,-802.81 213.58,-796.09"/>
<text text-anchor="middle" x="314" y="-773.8" font-family="Times,serif" font-size="14.00" fill="white">8,000,000 row(s)/123 chunk(s)</text>
</g>
<!-- 140256859646224 -->
<g id="node9" class="node">
<title>140256859646224</title>
<g id="a_node9"><a xlink:title="Output: 4049 rows in 1 chunk filtered: 0, 44 µs 430 ns.">
<polygon fill="none" stroke="white" points="499.5,-722 391.5,-722 391.5,-668 499.5,-668 499.5,-722"/>
<text text-anchor="middle" x="445.5" y="-706.8" font-family="Times,serif" font-size="14.00" fill="white">Validate</text>
<text text-anchor="middle" x="445.5" y="-675.8" font-family="Times,serif" font-size="14.00" fill="white">44 µs 430 ns</text>
</a>
</g>
</g>
<!-- 140256859646224&#45;&gt;140256860331024 -->
<g id="edge9" class="edge">
<title>140256859646224&#45;&gt;140256860331024</title>
<path fill="none" stroke="white" d="M444.65,-722.26C442.79,-741.44 437.58,-767.11 423.5,-785 420.29,-789.08 416.66,-792.87 412.75,-796.39"/>
<polygon fill="white" stroke="white" points="404.89,-802.82 414.84,-799.2 412.62,-796.49 404.89,-802.82"/>
<text text-anchor="middle" x="518" y="-773.8" font-family="Times,serif" font-size="14.00" fill="white">4,049 row(s)/1 chunk(s)</text>
</g>
<!-- 140256860330704 -->
<g id="node10" class="node">
<title>140256860330704</title>
<g id="a_node10"><a xlink:title="Output: 4049 rows in 1 chunk filtered: 0, 5 ms 525 µs.&#10;Operator step runtimes:&#10; LeftSideMaterialize 673 µs 534 ns&#10; RightSideMaterialize 7 µs 338 ns&#10; LeftSideTransform 0 ns&#10; RightSideTransform 0 ns&#10; LeftSidePartition 2 ms 316 µs&#10; RightSidePartition 27 µs 618 ns&#10; LeftSideSortBuckets 1 ms 106 µs&#10; RightSideSortBuckets 1 ms 74 µs&#10; GatherRowIds 1 µs 928 ns&#10; FindJoinPartner 124 µs 916 ns&#10; OutputWriting 40 µs 512 ns.&#10;Radix bits: 8.">
<polygon fill="none" stroke="white" stroke-width="1.2" points="550,-587 341,-587 341,-518 550,-518 550,-587"/>
<text text-anchor="middle" x="445.5" y="-571.8" font-family="Times,serif" font-size="14.00" fill="white">JoinSimdSortMerge (Semi)</text>
<text text-anchor="middle" x="445.5" y="-556.8" font-family="Times,serif" font-size="14.00" fill="white">s_nationkey = n_nationkey</text>
<text text-anchor="middle" x="445.5" y="-525.8" font-family="Times,serif" font-size="14.00" fill="white">5 ms 525 µs</text>
</a>
</g>
</g>
<!-- 140256860330704&#45;&gt;140256859646224 -->
<g id="edge10" class="edge">
<title>140256860330704&#45;&gt;140256859646224</title>
<path fill="none" stroke="white" d="M445.5,-587.15C445.5,-608.36 445.5,-635.75 445.5,-657.48"/>
<polygon fill="white" stroke="white" points="442,-657.65 445.5,-667.65 449,-657.65 442,-657.65"/>
<text text-anchor="middle" x="530" y="-608.8" font-family="Times,serif" font-size="14.00" fill="white">4,049 row(s)/1 chunk(s)</text>
</g>
<!-- 140256859094032 -->
<g id="node11" class="node">
<title>140256859094032</title>
<g id="a_node11"><a xlink:title="Output: 100000 rows in 2 chunks filtered: 0, 25 µs 713 ns.">
<polygon fill="none" stroke="white" points="397,-467 284,-467 284,-353 397,-353 397,-467"/>
<text text-anchor="middle" x="340.5" y="-451.8" font-family="Times,serif" font-size="14.00" fill="white">GetTable</text>
<text text-anchor="middle" x="340.5" y="-436.8" font-family="Times,serif" font-size="14.00" fill="white">(supplier)</text>
<text text-anchor="middle" x="340.5" y="-421.8" font-family="Times,serif" font-size="14.00" fill="white">pruned:</text>
<text text-anchor="middle" x="340.5" y="-406.8" font-family="Times,serif" font-size="14.00" fill="white">0/2 chunk(s)</text>
<text text-anchor="middle" x="340.5" y="-391.8" font-family="Times,serif" font-size="14.00" fill="white">5/7 column(s)</text>
<text text-anchor="middle" x="340.5" y="-360.8" font-family="Times,serif" font-size="14.00" fill="white">25 µs 713 ns</text>
</a>
</g>
</g>
<!-- 140256859094032&#45;&gt;140256860330704 -->
<g id="edge11" class="edge">
<title>140256859094032&#45;&gt;140256860330704</title>
<path fill="none" stroke="white" d="M332.07,-467.31C332.76,-478.8 335.42,-490.32 341.5,-500 343.98,-503.94 346.86,-507.6 350.05,-510.98"/>
<polygon fill="white" stroke="white" points="350.19,-511.11 347.79,-513.66 357.48,-517.95 350.19,-511.11"/>
<text text-anchor="middle" x="435" y="-488.8" font-family="Times,serif" font-size="14.00" fill="white">100,000 row(s)/2 chunk(s)</text>
</g>
<!-- 140256859645456 -->
<g id="node12" class="node">
<title>140256859645456</title>
<g id="a_node12"><a xlink:title="Output: 1 row in 1 chunk filtered: 0, 12 µs 92 ns.">
<polygon fill="none" stroke="white" points="600,-437 501,-437 501,-383 600,-383 600,-437"/>
<text text-anchor="middle" x="550.5" y="-421.8" font-family="Times,serif" font-size="14.00" fill="white">Validate</text>
<text text-anchor="middle" x="550.5" y="-390.8" font-family="Times,serif" font-size="14.00" fill="white">12 µs 92 ns</text>
</a>
</g>
</g>
<!-- 140256859645456&#45;&gt;140256860330704 -->
<g id="edge12" class="edge">
<title>140256859645456&#45;&gt;140256860330704</title>
<path fill="none" stroke="white" d="M549.21,-437.36C547.11,-456.34 541.8,-481.72 528.5,-500 525.66,-503.91 522.42,-507.58 518.91,-511.03"/>
<polygon fill="white" stroke="white" points="511.36,-517.79 521.14,-513.73 518.81,-511.12 511.36,-517.79"/>
<text text-anchor="middle" x="606.5" y="-488.8" font-family="Times,serif" font-size="14.00" fill="white">1 row(s)/1 chunk(s)</text>
</g>
<!-- 140256860330384 -->
<g id="node13" class="node">
<title>140256860330384</title>
<g id="a_node13"><a xlink:title="Output: 1 row in 1 chunk filtered: 0, 31 µs 101 ns.&#10;Chunks: 0 skipped with no results, &#10;0 skipped with all matching, 0 scanned using binary search.">
<polygon fill="none" stroke="white" points="639,-302 462,-302 462,-218 639,-218 639,-302"/>
<text text-anchor="middle" x="550.5" y="-286.8" font-family="Times,serif" font-size="14.00" fill="white">TableScan</text>
<text text-anchor="middle" x="550.5" y="-271.8" font-family="Times,serif" font-size="14.00" fill="white">Impl: ColumnVsValue</text>
<text text-anchor="middle" x="550.5" y="-256.8" font-family="Times,serif" font-size="14.00" fill="white">n_name = &#39;GERMANY&#39;</text>
<text text-anchor="middle" x="550.5" y="-225.8" font-family="Times,serif" font-size="14.00" fill="white">31 µs 101 ns</text>
</a>
</g>
</g>
<!-- 140256860330384&#45;&gt;140256859645456 -->
<g id="edge13" class="edge">
<title>140256860330384&#45;&gt;140256859645456</title>
<path fill="none" stroke="white" d="M550.5,-302.23C550.5,-324.32 550.5,-351.31 550.5,-372.62"/>
<polygon fill="white" stroke="white" points="547,-372.88 550.5,-382.88 554,-372.88 547,-372.88"/>
<text text-anchor="middle" x="619.5" y="-323.8" font-family="Times,serif" font-size="14.00" fill="white">1 row(s)/1 chunk(s)</text>
</g>
<!-- 140256859094480 -->
<g id="node14" class="node">
<title>140256859094480</title>
<g id="a_node14"><a xlink:title="Output: 25 rows in 1 chunk filtered: 0, 18 µs 464 ns.">
<polygon fill="none" stroke="white" points="607,-140.5 494,-140.5 494,-26.5 607,-26.5 607,-140.5"/>
<text text-anchor="middle" x="550.5" y="-125.3" font-family="Times,serif" font-size="14.00" fill="white">GetTable</text>
<text text-anchor="middle" x="550.5" y="-110.3" font-family="Times,serif" font-size="14.00" fill="white">(nation)</text>
<text text-anchor="middle" x="550.5" y="-95.3" font-family="Times,serif" font-size="14.00" fill="white">pruned:</text>
<text text-anchor="middle" x="550.5" y="-80.3" font-family="Times,serif" font-size="14.00" fill="white">0/1 chunk(s)</text>
<text text-anchor="middle" x="550.5" y="-65.3" font-family="Times,serif" font-size="14.00" fill="white">2/4 column(s)</text>
<text text-anchor="middle" x="550.5" y="-34.3" font-family="Times,serif" font-size="14.00" fill="white">18 µs 464 ns</text>
</a>
</g>
</g>
<!-- 140256859094480&#45;&gt;140256860330384 -->
<g id="edge14" class="edge">
<title>140256859094480&#45;&gt;140256860330384</title>
<path fill="none" stroke="white" d="M550.5,-140.67C550.5,-162.25 550.5,-186.74 550.5,-207.83"/>
<polygon fill="white" stroke="white" points="547,-207.87 550.5,-217.87 554,-207.87 547,-207.87"/>
<text text-anchor="middle" x="624" y="-188.8" font-family="Times,serif" font-size="14.00" fill="white">25 row(s)/1 chunk(s)</text>
</g>
<!-- 140256860331984 -->
<g id="node15" class="node">
<title>140256860331984</title>
<g id="a_node15"><a xlink:title="Output: 1 row in 1 chunk filtered: 0, 55 µs 255 ns.&#10;Operator step runtimes:&#10; ForwardUnmodifiedColumns 2 µs 353 ns&#10; EvaluateNewColumns 24 µs 330 ns&#10; BuildOutput 24 µs 351 ns.">
<polygon fill="none" stroke="white" points="500.5,-1391 392.5,-1391 392.5,-1337 500.5,-1337 500.5,-1391"/>
<text text-anchor="middle" x="446.5" y="-1375.8" font-family="Times,serif" font-size="14.00" fill="white">Projection</text>
<text text-anchor="middle" x="446.5" y="-1344.8" font-family="Times,serif" font-size="14.00" fill="white">55 µs 255 ns</text>
</a>
</g>
</g>
<!-- 140256860331984&#45;&gt;140256860332304 -->
<g id="edge15" class="edge">
<title>140256860331984&#45;&gt;140256860332304</title>
<path fill="none" stroke="white" stroke-dasharray="5,2" d="M396.15,-1391C370.21,-1404.4 337.59,-1421.25 306.61,-1437.25"/>
<polygon fill="white" stroke="white" points="304.77,-1434.26 297.49,-1441.96 307.98,-1440.48 304.77,-1434.26"/>
<text text-anchor="middle" x="443" y="-1412.8" font-family="Times,serif" font-size="14.00" fill="white">uncorrelated subquery</text>
</g>
<!-- 140298363750928 -->
<g id="node16" class="node">
<title>140298363750928</title>
<g id="a_node16"><a xlink:title="Output: 1 row in 1 chunk filtered: 0, 1 ms 857 µs.&#10;Operator step runtimes:&#10; GroupByKeyPartitioning 122 ns&#10; Aggregating 1 ms 824 µs&#10; GroupByColumnsWriting 1 µs 43 ns&#10; AggregateColumnsWriting 12 µs 365 ns&#10; OutputWriting 9 µs 352 ns.">
<polygon fill="none" stroke="white" points="574,-1217 315,-1217 315,-1133 574,-1133 574,-1217"/>
<text text-anchor="middle" x="444.5" y="-1201.8" font-family="Times,serif" font-size="14.00" fill="white">AggregateHash</text>
<text text-anchor="middle" x="444.5" y="-1186.8" font-family="Times,serif" font-size="14.00" fill="white">GroupBy {}</text>
<text text-anchor="middle" x="444.5" y="-1171.8" font-family="Times,serif" font-size="14.00" fill="white">SUM(ps_supplycost * ps_availqty)</text>
<text text-anchor="middle" x="444.5" y="-1140.8" font-family="Times,serif" font-size="14.00" fill="white">1 ms 857 µs</text>
</a>
</g>
</g>
<!-- 140298363750928&#45;&gt;140256860331984 -->
<g id="edge16" class="edge">
<title>140298363750928&#45;&gt;140256860331984</title>
<path fill="none" stroke="white" d="M444.94,-1217.04C445.29,-1249.78 445.78,-1295.22 446.11,-1326.66"/>
<polygon fill="white" stroke="white" points="442.61,-1326.79 446.22,-1336.75 449.61,-1326.71 442.61,-1326.79"/>
<text text-anchor="middle" x="515.5" y="-1273.3" font-family="Times,serif" font-size="14.00" fill="white">1 row(s)/1 chunk(s)</text>
</g>
<!-- 140256860331664&#45;&gt;140298363750928 -->
<g id="edge17" class="edge">
<title>140256860331664&#45;&gt;140298363750928</title>
<path fill="none" stroke="white" d="M442.17,-1082.19C442.47,-1094.1 442.84,-1108.63 443.19,-1122.58"/>
<polygon fill="white" stroke="white" points="439.69,-1122.68 443.45,-1132.59 446.69,-1122.5 439.69,-1122.68"/>
<text text-anchor="middle" x="546" y="-1103.8" font-family="Times,serif" font-size="14.00" fill="white">323,920 row(s)/256 chunk(s)</text>
</g>
<!-- 0 -->
<g id="node18" class="node">
<title>0</title>
<polygon fill="none" stroke="white" points="625,-0.5 625,-166.5 976,-166.5 976,-0.5 625,-0.5"/>
<text text-anchor="middle" x="800.5" y="-151.3" font-family="Times,serif" font-size="14.00" fill="white">Total by operator</text>
<polyline fill="none" stroke="white" points="625,-143.5 976,-143.5 "/>
<text text-anchor="end" x="784" y="-128.3" font-family="Times,serif" font-size="14.00" fill="white">AggregateHash </text>
<text text-anchor="end" x="784" y="-113.3" font-family="Times,serif" font-size="14.00" fill="white"> Projection </text>
<text text-anchor="end" x="784" y="-98.3" font-family="Times,serif" font-size="14.00" fill="white"> JoinSimdSortMerge </text>
<text text-anchor="end" x="784" y="-83.3" font-family="Times,serif" font-size="14.00" fill="white"> Validate </text>
<text text-anchor="end" x="784" y="-68.3" font-family="Times,serif" font-size="14.00" fill="white"> Sort </text>
<text text-anchor="end" x="784" y="-53.3" font-family="Times,serif" font-size="14.00" fill="white"> TableScan </text>
<text text-anchor="end" x="784" y="-38.3" font-family="Times,serif" font-size="14.00" fill="white"> GetTable </text>
<text text-anchor="end" x="784" y="-23.3" font-family="Times,serif" font-size="14.00" fill="white"> Alias </text>
<text text-anchor="end" x="784" y="-8.3" font-family="Times,serif" font-size="14.00" fill="white">total</text>
<polyline fill="none" stroke="white" points="792,-0.5 792,-143.5 "/>
<text text-anchor="start" x="800" y="-128.3" font-family="Times,serif" font-size="14.00" fill="white">88 ms 890 µs </text>
<text text-anchor="start" x="800" y="-113.3" font-family="Times,serif" font-size="14.00" fill="white"> 57 ms 843 µs </text>
<text text-anchor="start" x="800" y="-98.3" font-family="Times,serif" font-size="14.00" fill="white"> 42 ms 669 µs </text>
<text text-anchor="start" x="800" y="-83.3" font-family="Times,serif" font-size="14.00" fill="white"> 1 ms 355 µs </text>
<text text-anchor="start" x="800" y="-68.3" font-family="Times,serif" font-size="14.00" fill="white"> 901 µs 314 ns </text>
<text text-anchor="start" x="800" y="-53.3" font-family="Times,serif" font-size="14.00" fill="white"> 709 µs 699 ns </text>
<text text-anchor="start" x="800" y="-38.3" font-family="Times,serif" font-size="14.00" fill="white"> 423 µs 170 ns </text>
<text text-anchor="start" x="800" y="-23.3" font-family="Times,serif" font-size="14.00" fill="white"> 2 µs 642 ns </text>
<text text-anchor="start" x="800" y="-8.3" font-family="Times,serif" font-size="14.00" fill="white"> 192 ms 793 µs </text>
<polyline fill="none" stroke="white" points="923,-0.5 923,-143.5 "/>
<text text-anchor="start" x="931" y="-128.3" font-family="Times,serif" font-size="14.00" fill="white">46 %</text>
<text text-anchor="start" x="931" y="-113.3" font-family="Times,serif" font-size="14.00" fill="white">30 %</text>
<text text-anchor="start" x="931" y="-98.3" font-family="Times,serif" font-size="14.00" fill="white">22 %</text>
<text text-anchor="start" x="931" y="-83.3" font-family="Times,serif" font-size="14.00" fill="white">1 %</text>
<text text-anchor="start" x="931" y="-68.3" font-family="Times,serif" font-size="14.00" fill="white">0 %</text>
<text text-anchor="start" x="931" y="-53.3" font-family="Times,serif" font-size="14.00" fill="white">0 %</text>
<text text-anchor="start" x="931" y="-38.3" font-family="Times,serif" font-size="14.00" fill="white">0 %</text>
<text text-anchor="start" x="931" y="-23.3" font-family="Times,serif" font-size="14.00" fill="white">0 %</text>
<text text-anchor="start" x="931" y="-8.3" font-family="Times,serif" font-size="14.00" fill="white"> </text>
</g>
</g>
</svg>
