<?xml version="1.0" encoding="UTF-8" standalone="no"?>
<!DOCTYPE svg PUBLIC "-//W3C//DTD SVG 1.1//EN"
 "http://www.w3.org/Graphics/SVG/1.1/DTD/svg11.dtd">
<!-- Generated by graphviz version 2.43.0 (0)
 -->
<!-- Title: G Pages: 1 -->
<svg width="1109pt" height="2303pt"
 viewBox="0.00 0.00 1108.50 2303.00" xmlns="http://www.w3.org/2000/svg" xmlns:xlink="http://www.w3.org/1999/xlink">
<g id="graph0" class="graph" transform="scale(1 1) rotate(0) translate(4 2299)">
<title>G</title>
<polygon fill="black" stroke="transparent" points="-4,4 -4,-2299 1104.5,-2299 1104.5,4 -4,4"/>
<text text-anchor="middle" x="319.5" y="-2279.8" font-family="Times,serif" font-size="14.00" fill="white">For tooltips with advanced information, hover your mouse over vertices or edge labels.</text>
<!-- 140256558778832 -->
<g id="node1" class="node">
<title>140256558778832</title>
<g id="a_node1"><a xlink:title="Output: 100 rows in 1 chunk filtered: 0, 14 µs 193 ns.&#10;Operator step runtimes:&#10; ForwardUnmodifiedColumns 4 µs 683 ns&#10; EvaluateNewColumns 661 ns&#10; BuildOutput 6 µs 527 ns.">
<polygon fill="none" stroke="white" points="495.5,-2240 387.5,-2240 387.5,-2186 495.5,-2186 495.5,-2240"/>
<text text-anchor="middle" x="441.5" y="-2224.8" font-family="Times,serif" font-size="14.00" fill="white">Projection</text>
<text text-anchor="middle" x="441.5" y="-2193.8" font-family="Times,serif" font-size="14.00" fill="white">14 µs 193 ns</text>
</a>
</g>
</g>
<!-- 140298776414992 -->
<g id="node2" class="node">
<title>140298776414992</title>
<g id="a_node2"><a xlink:title="Output: 100 rows in 1 chunk filtered: 0, 22 µs 167 ns.">
<polygon fill="none" stroke="white" points="495.5,-2135 387.5,-2135 387.5,-2081 495.5,-2081 495.5,-2135"/>
<text text-anchor="middle" x="441.5" y="-2119.8" font-family="Times,serif" font-size="14.00" fill="white">Limit</text>
<text text-anchor="middle" x="441.5" y="-2088.8" font-family="Times,serif" font-size="14.00" fill="white">22 µs 167 ns</text>
</a>
</g>
</g>
<!-- 140298776414992&#45;&gt;140256558778832 -->
<g id="edge1" class="edge">
<title>140298776414992&#45;&gt;140256558778832</title>
<path fill="none" stroke="white" d="M441.5,-2135.26C441.5,-2147.49 441.5,-2162.24 441.5,-2175.52"/>
<polygon fill="white" stroke="white" points="438,-2175.79 441.5,-2185.79 445,-2175.79 438,-2175.79"/>
<text text-anchor="middle" x="519.5" y="-2156.8" font-family="Times,serif" font-size="14.00" fill="white">100 row(s)/1 chunk(s)</text>
</g>
<!-- 140256558779152 -->
<g id="node3" class="node">
<title>140256558779152</title>
<g id="a_node3"><a xlink:title="Output: 4775 rows in 1 chunk filtered: 0, 10 ms 995 µs.&#10;Operator step runtimes:&#10; MaterializeSortColumns 2 ms 212 µs&#10; Sort 7 ms 675 µs&#10; TemporaryResultWriting 87 µs 215 ns&#10; WriteOutput 855 µs 690 ns.">
<polygon fill="none" stroke="white" stroke-width="5.49" points="498,-2030 385,-2030 385,-1976 498,-1976 498,-2030"/>
<text text-anchor="middle" x="441.5" y="-2014.8" font-family="Times,serif" font-size="14.00" fill="white">Sort</text>
<text text-anchor="middle" x="441.5" y="-1983.8" font-family="Times,serif" font-size="14.00" fill="white">10 ms 995 µs</text>
</a>
</g>
</g>
<!-- 140256558779152&#45;&gt;140298776414992 -->
<g id="edge2" class="edge">
<title>140256558779152&#45;&gt;140298776414992</title>
<path fill="none" stroke="white" d="M441.5,-2030.26C441.5,-2042.49 441.5,-2057.24 441.5,-2070.52"/>
<polygon fill="white" stroke="white" points="438,-2070.79 441.5,-2080.79 445,-2070.79 438,-2070.79"/>
<text text-anchor="middle" x="526" y="-2051.8" font-family="Times,serif" font-size="14.00" fill="white">4,775 row(s)/1 chunk(s)</text>
</g>
<!-- 140256558777872 -->
<g id="node4" class="node">
<title>140256558777872</title>
<g id="a_node4"><a xlink:title="Output: 4775 rows in 9 chunks filtered: 0, 15 ms 201 µs.&#10;Operator step runtimes:&#10; LeftSideMaterialize 2 ms 524 µs&#10; RightSideMaterialize 55 µs 706 ns&#10; LeftSideTransform 0 ns&#10; RightSideTransform 0 ns&#10; LeftSidePartition 645 µs 300 ns&#10; RightSidePartition 600 µs 161 ns&#10; LeftSideSortBuckets 1 ms 15 µs&#10; RightSideSortBuckets 1 ms 39 µs&#10; GatherRowIds 1 µs 490 ns&#10; FindJoinPartner 8 ms 928 µs&#10; OutputWriting 257 µs 641 ns.&#10;Radix bits: 8.">
<polygon fill="none" stroke="white" stroke-width="6.29" points="581,-1925 302,-1925 302,-1841 581,-1841 581,-1925"/>
<text text-anchor="middle" x="441.5" y="-1909.8" font-family="Times,serif" font-size="14.00" fill="white">JoinSimdSortMerge (Semi)</text>
<text text-anchor="middle" x="441.5" y="-1894.8" font-family="Times,serif" font-size="14.00" fill="white">ps_supplycost = MIN(ps_supplycost)</text>
<text text-anchor="middle" x="441.5" y="-1879.8" font-family="Times,serif" font-size="14.00" fill="white">AND p_partkey = ps_partkey</text>
<text text-anchor="middle" x="441.5" y="-1848.8" font-family="Times,serif" font-size="14.00" fill="white">15 ms 201 µs</text>
</a>
</g>
</g>
<!-- 140256558777872&#45;&gt;140256558779152 -->
<g id="edge3" class="edge">
<title>140256558777872&#45;&gt;140256558779152</title>
<path fill="none" stroke="white" d="M441.5,-1925.27C441.5,-1938.36 441.5,-1952.72 441.5,-1965.45"/>
<polygon fill="white" stroke="white" points="438,-1965.69 441.5,-1975.69 445,-1965.69 438,-1965.69"/>
<text text-anchor="middle" x="526" y="-1946.8" font-family="Times,serif" font-size="14.00" fill="white">4,775 row(s)/9 chunk(s)</text>
</g>
<!-- 140298774703504 -->
<g id="node5" class="node">
<title>140298774703504</title>
<g id="a_node5"><a xlink:title="Output: 6445 rows in 13 chunks filtered: 0, 11 ms 798 µs.&#10;Operator step runtimes:&#10; LeftSideMaterialize 2 ms 944 µs&#10; RightSideMaterialize 434 µs 444 ns&#10; LeftSideTransform 0 ns&#10; RightSideTransform 0 ns&#10; LeftSidePartition 2 ms 161 µs&#10; RightSidePartition 2 ms 293 µs&#10; LeftSideSortBuckets 1 ms 122 µs&#10; RightSideSortBuckets 1 ms 95 µs&#10; GatherRowIds 1 µs 252 ns&#10; FindJoinPartner 1 ms 13 µs&#10; OutputWriting 473 µs 550 ns.&#10;Radix bits: 8.">
<polygon fill="none" stroke="white" stroke-width="5.66" points="411,-1790 200,-1790 200,-1721 411,-1721 411,-1790"/>
<text text-anchor="middle" x="305.5" y="-1774.8" font-family="Times,serif" font-size="14.00" fill="white">JoinSimdSortMerge (Inner)</text>
<text text-anchor="middle" x="305.5" y="-1759.8" font-family="Times,serif" font-size="14.00" fill="white">ps_partkey = p_partkey</text>
<text text-anchor="middle" x="305.5" y="-1728.8" font-family="Times,serif" font-size="14.00" fill="white">11 ms 798 µs</text>
</a>
</g>
</g>
<!-- 140298774703504&#45;&gt;140256558777872 -->
<g id="edge4" class="edge">
<title>140298774703504&#45;&gt;140256558777872</title>
<path fill="none" stroke="white" d="M334.58,-1790.32C344.37,-1801.12 355.59,-1812.88 366.5,-1823 370.52,-1826.73 374.76,-1830.48 379.09,-1834.19"/>
<polygon fill="white" stroke="white" points="379.3,-1834.37 377.05,-1837.05 386.96,-1840.8 379.3,-1834.37"/>
<text text-anchor="middle" x="455.5" y="-1811.8" font-family="Times,serif" font-size="14.00" fill="white">6,445 row(s)/13 chunk(s)</text>
</g>
<!-- 140298774703184 -->
<g id="node6" class="node">
<title>140298774703184</title>
<g id="a_node6"><a xlink:title="Output: 6445 rows in 13 chunks filtered: 0, 12 ms 747 µs.&#10;Operator step runtimes:&#10; LeftSideMaterialize 3 ms 27 µs&#10; RightSideMaterialize 194 µs 902 ns&#10; LeftSideTransform 0 ns&#10; RightSideTransform 0 ns&#10; LeftSidePartition 1 ms 899 µs&#10; RightSidePartition 3 ms 414 µs&#10; LeftSideSortBuckets 1 ms 83 µs&#10; RightSideSortBuckets 1 ms 103 µs&#10; GatherRowIds 1 µs 431 ns&#10; FindJoinPartner 1 ms 457 µs&#10; OutputWriting 310 µs 894 ns.&#10;Radix bits: 8.">
<polygon fill="none" stroke="white" stroke-width="5.85" points="411,-1601 200,-1601 200,-1532 411,-1532 411,-1601"/>
<text text-anchor="middle" x="305.5" y="-1585.8" font-family="Times,serif" font-size="14.00" fill="white">JoinSimdSortMerge (Inner)</text>
<text text-anchor="middle" x="305.5" y="-1570.8" font-family="Times,serif" font-size="14.00" fill="white">ps_suppkey = s_suppkey</text>
<text text-anchor="middle" x="305.5" y="-1539.8" font-family="Times,serif" font-size="14.00" fill="white">12 ms 747 µs</text>
</a>
</g>
</g>
<!-- 140298774703184&#45;&gt;140298774703504 -->
<g id="edge5" class="edge">
<title>140298774703184&#45;&gt;140298774703504</title>
<path fill="none" stroke="white" d="M305.5,-1601.36C305.5,-1631.95 305.5,-1677.13 305.5,-1710.5"/>
<polygon fill="white" stroke="white" points="305.5,-1710.89 302,-1710.89 305.5,-1720.89 305.5,-1710.89"/>
<text text-anchor="middle" x="394.5" y="-1657.3" font-family="Times,serif" font-size="14.00" fill="white">6,445 row(s)/13 chunk(s)</text>
</g>
<!-- 140298774638608 -->
<g id="node7" class="node">
<title>140298774638608</title>
<g id="a_node7"><a xlink:title="Output: 6445 rows in 13 chunks filtered: 0, 176 µs 483 ns.">
<polygon fill="none" stroke="white" points="504,-1481 387,-1481 387,-1427 504,-1427 504,-1481"/>
<text text-anchor="middle" x="445.5" y="-1465.8" font-family="Times,serif" font-size="14.00" fill="white">Validate</text>
<text text-anchor="middle" x="445.5" y="-1434.8" font-family="Times,serif" font-size="14.00" fill="white">176 µs 483 ns</text>
</a>
</g>
</g>
<!-- 140298774638608&#45;&gt;140298774703184 -->
<g id="edge6" class="edge">
<title>140298774638608&#45;&gt;140298774703184</title>
<path fill="none" stroke="white" d="M412.32,-1481.19C395.48,-1494.48 374.67,-1510.91 355.9,-1525.72"/>
<polygon fill="white" stroke="white" points="355.85,-1525.76 353.68,-1523.01 348,-1531.95 355.85,-1525.76"/>
<text text-anchor="middle" x="476.5" y="-1502.8" font-family="Times,serif" font-size="14.00" fill="white">6,445 row(s)/13 chunk(s)</text>
</g>
<!-- 140298774702864 -->
<g id="node8" class="node">
<title>140298774702864</title>
<g id="a_node8"><a xlink:title="Output: 6445 rows in 13 chunks filtered: 0, 19 ms 421 µs.&#10;Operator step runtimes:&#10; LeftSideMaterialize 4 ms 55 µs&#10; RightSideMaterialize 286 µs 87 ns&#10; LeftSideTransform 0 ns&#10; RightSideTransform 0 ns&#10; LeftSidePartition 4 ms 992 µs&#10; RightSidePartition 3 ms 777 µs&#10; LeftSideSortBuckets 1 ms 376 µs&#10; RightSideSortBuckets 1 ms 237 µs&#10; GatherRowIds 8 µs 234 ns&#10; FindJoinPartner 3 ms 0 µs&#10; OutputWriting 341 µs 134 ns.&#10;Radix bits: 8.">
<polygon fill="none" stroke="white" stroke-width="6.89" points="608,-1376 323,-1376 323,-1307 608,-1307 608,-1376"/>
<text text-anchor="middle" x="465.5" y="-1360.8" font-family="Times,serif" font-size="14.00" fill="white">JoinSimdSortMerge (Semi Reduction)</text>
<text text-anchor="middle" x="465.5" y="-1345.8" font-family="Times,serif" font-size="14.00" fill="white">ps_suppkey = s_suppkey</text>
<text text-anchor="middle" x="465.5" y="-1314.8" font-family="Times,serif" font-size="14.00" fill="white">19 ms 421 µs</text>
</a>
</g>
</g>
<!-- 140298774702864&#45;&gt;140298774638608 -->
<g id="edge7" class="edge">
<title>140298774702864&#45;&gt;140298774638608</title>
<path fill="none" stroke="white" d="M460.21,-1376.03C458.47,-1386.6 456.48,-1398.3 454.5,-1409 454.01,-1411.64 453.49,-1414.37 452.96,-1417.11"/>
<polygon fill="white" stroke="white" points="449.51,-1416.48 450.99,-1426.97 456.38,-1417.85 449.51,-1416.48"/>
<text text-anchor="middle" x="545.5" y="-1397.8" font-family="Times,serif" font-size="14.00" fill="white">6,445 row(s)/13 chunk(s)</text>
</g>
<!-- 140298774700624 -->
<g id="node9" class="node">
<title>140298774700624</title>
<g id="a_node9"><a xlink:title="Output: 32244 rows in 59 chunks filtered: 0, 30 ms 424 µs.&#10;Operator step runtimes:&#10; LeftSideMaterialize 2 ms 753 µs&#10; RightSideMaterialize 426 µs 702 ns&#10; LeftSideTransform 0 ns&#10; RightSideTransform 0 ns&#10; LeftSidePartition 6 ms 655 µs&#10; RightSidePartition 2 ms 837 µs&#10; LeftSideSortBuckets 9 ms 51 µs&#10; RightSideSortBuckets 1 ms 108 µs&#10; GatherRowIds 1 µs 525 ns&#10; FindJoinPartner 3 ms 675 µs&#10; OutputWriting 1 ms 558 µs.&#10;Radix bits: 8.">
<polygon fill="none" stroke="white" stroke-width="8" points="715,-1256 430,-1256 430,-1187 715,-1187 715,-1256"/>
<text text-anchor="middle" x="572.5" y="-1240.8" font-family="Times,serif" font-size="14.00" fill="white">JoinSimdSortMerge (Semi Reduction)</text>
<text text-anchor="middle" x="572.5" y="-1225.8" font-family="Times,serif" font-size="14.00" fill="white">ps_partkey = p_partkey</text>
<text text-anchor="middle" x="572.5" y="-1194.8" font-family="Times,serif" font-size="14.00" fill="white">30 ms 424 µs</text>
</a>
</g>
</g>
<!-- 140298774700624&#45;&gt;140298774702864 -->
<g id="edge8" class="edge">
<title>140298774700624&#45;&gt;140298774702864</title>
<path fill="none" stroke="white" d="M528.71,-1256.19C522.33,-1261.85 516.04,-1267.88 510.5,-1274 503.76,-1281.44 497.25,-1289.95 491.38,-1298.35"/>
<polygon fill="white" stroke="white" points="491.35,-1298.39 488.45,-1296.42 485.73,-1306.66 491.35,-1298.39"/>
<text text-anchor="middle" x="604" y="-1277.8" font-family="Times,serif" font-size="14.00" fill="white">32,244 row(s)/59 chunk(s)</text>
</g>
<!-- 140256558770192 -->
<g id="node27" class="node">
<title>140256558770192</title>
<g id="a_node27"><a xlink:title="Output: 6445 rows in 13 chunks filtered: 0, 18 ms 620 µs.&#10;Operator step runtimes:&#10; LeftSideMaterialize 3 ms 664 µs&#10; RightSideMaterialize 181 µs 142 ns&#10; LeftSideTransform 0 ns&#10; RightSideTransform 0 ns&#10; LeftSidePartition 4 ms 655 µs&#10; RightSidePartition 3 ms 717 µs&#10; LeftSideSortBuckets 1 ms 288 µs&#10; RightSideSortBuckets 1 ms 330 µs&#10; GatherRowIds 1 µs 979 ns&#10; FindJoinPartner 3 ms 101 µs&#10; OutputWriting 324 µs 666 ns.&#10;Radix bits: 8.">
<polygon fill="none" stroke="white" stroke-width="6.79" points="835,-1376 626,-1376 626,-1307 835,-1307 835,-1376"/>
<text text-anchor="middle" x="730.5" y="-1360.8" font-family="Times,serif" font-size="14.00" fill="white">JoinSimdSortMerge (Semi)</text>
<text text-anchor="middle" x="730.5" y="-1345.8" font-family="Times,serif" font-size="14.00" fill="white">ps_suppkey = s_suppkey</text>
<text text-anchor="middle" x="730.5" y="-1314.8" font-family="Times,serif" font-size="14.00" fill="white">18 ms 620 µs</text>
</a>
</g>
</g>
<!-- 140298774700624&#45;&gt;140256558770192 -->
<g id="edge9" class="edge">
<title>140298774700624&#45;&gt;140256558770192</title>
<path fill="none" stroke="white" d="M673.09,-1256.02C681.89,-1261.23 690.2,-1267.2 697.5,-1274 704.64,-1280.65 710.44,-1289.19 715.07,-1297.91"/>
<polygon fill="white" stroke="white" points="715.11,-1298 711.96,-1299.53 719.48,-1306.99 715.11,-1298"/>
<text text-anchor="middle" x="802" y="-1277.8" font-family="Times,serif" font-size="14.00" fill="white">32,244 row(s)/59 chunk(s)</text>
</g>
<!-- 140298774905488 -->
<g id="node10" class="node">
<title>140298774905488</title>
<g id="a_node10"><a xlink:title="Output: 8000000 rows in 123 chunks filtered: 0, 503 µs 276 ns.">
<polygon fill="none" stroke="white" points="633.5,-1097 511.5,-1097 511.5,-983 633.5,-983 633.5,-1097"/>
<text text-anchor="middle" x="572.5" y="-1081.8" font-family="Times,serif" font-size="14.00" fill="white">GetTable</text>
<text text-anchor="middle" x="572.5" y="-1066.8" font-family="Times,serif" font-size="14.00" fill="white">(partsupp)</text>
<text text-anchor="middle" x="572.5" y="-1051.8" font-family="Times,serif" font-size="14.00" fill="white">pruned:</text>
<text text-anchor="middle" x="572.5" y="-1036.8" font-family="Times,serif" font-size="14.00" fill="white">0/123 chunk(s)</text>
<text text-anchor="middle" x="572.5" y="-1021.8" font-family="Times,serif" font-size="14.00" fill="white">2/5 column(s)</text>
<text text-anchor="middle" x="572.5" y="-990.8" font-family="Times,serif" font-size="14.00" fill="white">503 µs 276 ns</text>
</a>
</g>
</g>
<!-- 140298774905488&#45;&gt;140298774700624 -->
<g id="edge10" class="edge">
<title>140298774905488&#45;&gt;140298774700624</title>
<path fill="none" stroke="white" stroke-width="8" d="M572.5,-1097.3C572.5,-1122.92 572.5,-1152.77 572.5,-1176.68"/>
<polygon fill="white" stroke="white" stroke-width="8" points="572.5,-1176.87 565.5,-1176.87 572.5,-1186.87 572.5,-1176.87"/>
<text text-anchor="middle" x="682" y="-1138.3" font-family="Times,serif" font-size="14.00" fill="white">8,000,000 row(s)/123 chunk(s)</text>
</g>
<!-- 140298776413200 -->
<g id="node11" class="node">
<title>140298776413200</title>
<g id="a_node11"><a xlink:title="Output: 8061 rows in 31 chunks filtered: 0, 112 µs 283 ns.">
<polygon fill="none" stroke="white" points="148,-1067 31,-1067 31,-1013 148,-1013 148,-1067"/>
<text text-anchor="middle" x="89.5" y="-1051.8" font-family="Times,serif" font-size="14.00" fill="white">Validate</text>
<text text-anchor="middle" x="89.5" y="-1020.8" font-family="Times,serif" font-size="14.00" fill="white">112 µs 283 ns</text>
</a>
</g>
</g>
<!-- 140298776413200&#45;&gt;140298774703504 -->
<g id="edge12" class="edge">
<title>140298776413200&#45;&gt;140298774703504</title>
<path fill="none" stroke="white" d="M85.95,-1067.1C81.51,-1101.99 74.5,-1165.77 74.5,-1220.5 74.5,-1220.5 74.5,-1220.5 74.5,-1567.5 74.5,-1638.05 140.4,-1686.58 201.8,-1716.49"/>
<polygon fill="white" stroke="white" points="211.21,-1720.95 203.67,-1713.51 202.17,-1716.67 211.21,-1720.95"/>
<text text-anchor="middle" x="163.5" y="-1397.8" font-family="Times,serif" font-size="14.00" fill="white">8,061 row(s)/31 chunk(s)</text>
</g>
<!-- 140298776413200&#45;&gt;140298774700624 -->
<g id="edge11" class="edge">
<title>140298776413200&#45;&gt;140298774700624</title>
<path fill="none" stroke="white" d="M94.95,-1067.26C102.73,-1097.45 120.18,-1145.8 155.5,-1169 178.57,-1184.15 364.08,-1183.03 419.87,-1187.25"/>
<polygon fill="white" stroke="white" points="429.94,-1188.27 420.35,-1183.78 419.99,-1187.26 429.94,-1188.27"/>
<text text-anchor="middle" x="244.5" y="-1138.3" font-family="Times,serif" font-size="14.00" fill="white">8,061 row(s)/31 chunk(s)</text>
</g>
<!-- 140298774700304 -->
<g id="node12" class="node">
<title>140298774700304</title>
<g id="a_node12"><a xlink:title="Output: 8061 rows in 31 chunks filtered: 0, 302 µs 324 ns.&#10;Chunks: 0 skipped with no results, &#10;0 skipped with all matching, 0 scanned using binary search.">
<polygon fill="none" stroke="white" points="179,-932 0,-932 0,-848 179,-848 179,-932"/>
<text text-anchor="middle" x="89.5" y="-916.8" font-family="Times,serif" font-size="14.00" fill="white">TableScan</text>
<text text-anchor="middle" x="89.5" y="-901.8" font-family="Times,serif" font-size="14.00" fill="white">Impl: ColumnLike</text>
<text text-anchor="middle" x="89.5" y="-886.8" font-family="Times,serif" font-size="14.00" fill="white">p_type LIKE &#39;%BRASS&#39;</text>
<text text-anchor="middle" x="89.5" y="-855.8" font-family="Times,serif" font-size="14.00" fill="white">302 µs 324 ns</text>
</a>
</g>
</g>
<!-- 140298774700304&#45;&gt;140298776413200 -->
<g id="edge13" class="edge">
<title>140298774700304&#45;&gt;140298776413200</title>
<path fill="none" stroke="white" d="M89.5,-932.23C89.5,-954.32 89.5,-981.31 89.5,-1002.62"/>
<polygon fill="white" stroke="white" points="86,-1002.88 89.5,-1012.88 93,-1002.88 86,-1002.88"/>
<text text-anchor="middle" x="178.5" y="-953.8" font-family="Times,serif" font-size="14.00" fill="white">8,061 row(s)/31 chunk(s)</text>
</g>
<!-- 140298774699984 -->
<g id="node13" class="node">
<title>140298774699984</title>
<g id="a_node13"><a xlink:title="Output: 40242 rows in 31 chunks filtered: 0, 521 µs 115 ns.&#10;Chunks: 0 skipped with no results, &#10;0 skipped with all matching, 0 scanned using binary search.">
<polygon fill="none" stroke="white" points="174,-782 5,-782 5,-698 174,-698 174,-782"/>
<text text-anchor="middle" x="89.5" y="-766.8" font-family="Times,serif" font-size="14.00" fill="white">TableScan</text>
<text text-anchor="middle" x="89.5" y="-751.8" font-family="Times,serif" font-size="14.00" fill="white">Impl: ColumnVsValue</text>
<text text-anchor="middle" x="89.5" y="-736.8" font-family="Times,serif" font-size="14.00" fill="white">p_size = 36</text>
<text text-anchor="middle" x="89.5" y="-705.8" font-family="Times,serif" font-size="14.00" fill="white">521 µs 115 ns</text>
</a>
</g>
</g>
<!-- 140298774699984&#45;&gt;140298774700304 -->
<g id="edge14" class="edge">
<title>140298774699984&#45;&gt;140298774700304</title>
<path fill="none" stroke="white" d="M89.5,-782.23C89.5,-799.47 89.5,-819.68 89.5,-837.85"/>
<polygon fill="white" stroke="white" points="86,-837.99 89.5,-847.99 93,-837.99 86,-837.99"/>
<text text-anchor="middle" x="183" y="-818.8" font-family="Times,serif" font-size="14.00" fill="white">40,242 row(s)/31 chunk(s)</text>
</g>
<!-- 140298774903248 -->
<g id="node14" class="node">
<title>140298774903248</title>
<g id="a_node14"><a xlink:title="Output: 2000000 rows in 31 chunks filtered: 0, 124 µs 949 ns.">
<polygon fill="none" stroke="white" points="148,-632 31,-632 31,-518 148,-518 148,-632"/>
<text text-anchor="middle" x="89.5" y="-616.8" font-family="Times,serif" font-size="14.00" fill="white">GetTable</text>
<text text-anchor="middle" x="89.5" y="-601.8" font-family="Times,serif" font-size="14.00" fill="white">(part)</text>
<text text-anchor="middle" x="89.5" y="-586.8" font-family="Times,serif" font-size="14.00" fill="white">pruned:</text>
<text text-anchor="middle" x="89.5" y="-571.8" font-family="Times,serif" font-size="14.00" fill="white">0/31 chunk(s)</text>
<text text-anchor="middle" x="89.5" y="-556.8" font-family="Times,serif" font-size="14.00" fill="white">5/9 column(s)</text>
<text text-anchor="middle" x="89.5" y="-525.8" font-family="Times,serif" font-size="14.00" fill="white">124 µs 949 ns</text>
</a>
</g>
</g>
<!-- 140298774903248&#45;&gt;140298774699984 -->
<g id="edge15" class="edge">
<title>140298774903248&#45;&gt;140298774699984</title>
<path fill="none" stroke="white" stroke-width="4.58" d="M89.5,-632.1C89.5,-650.19 89.5,-670.13 89.5,-687.85"/>
<polygon fill="white" stroke="white" stroke-width="4.58" points="85.49,-687.99 89.5,-697.99 93.51,-687.99 85.49,-687.99"/>
<text text-anchor="middle" x="194.5" y="-653.8" font-family="Times,serif" font-size="14.00" fill="white">2,000,000 row(s)/31 chunk(s)</text>
</g>
<!-- 140298774702544 -->
<g id="node15" class="node">
<title>140298774702544</title>
<g id="a_node15"><a xlink:title="Output: 20033 rows in 5 chunks filtered: 0, 4 ms 227 µs.&#10;Operator step runtimes:&#10; LeftSideMaterialize 217 µs 620 ns&#10; RightSideMaterialize 12 µs 823 ns&#10; LeftSideTransform 0 ns&#10; RightSideTransform 0 ns&#10; LeftSidePartition 668 µs 717 ns&#10; RightSidePartition 47 µs 580 ns&#10; LeftSideSortBuckets 1 ms 39 µs&#10; RightSideSortBuckets 1 ms 204 µs&#10; GatherRowIds 1 µs 348 ns&#10; FindJoinPartner 505 µs 975 ns&#10; OutputWriting 253 µs 101 ns.&#10;Radix bits: 8.">
<polygon fill="none" stroke="white" stroke-width="3.13" points="412,-1256 201,-1256 201,-1187 412,-1187 412,-1256"/>
<text text-anchor="middle" x="306.5" y="-1240.8" font-family="Times,serif" font-size="14.00" fill="white">JoinSimdSortMerge (Inner)</text>
<text text-anchor="middle" x="306.5" y="-1225.8" font-family="Times,serif" font-size="14.00" fill="white">s_nationkey = n_nationkey</text>
<text text-anchor="middle" x="306.5" y="-1194.8" font-family="Times,serif" font-size="14.00" fill="white">4 ms 227 µs</text>
</a>
</g>
</g>
<!-- 140298774702544&#45;&gt;140298774703184 -->
<g id="edge17" class="edge">
<title>140298774702544&#45;&gt;140298774703184</title>
<path fill="none" stroke="white" d="M294.42,-1256.31C282.52,-1293.5 266.88,-1355.15 272.5,-1409 276.52,-1447.58 285.98,-1490.66 293.75,-1521.84"/>
<polygon fill="white" stroke="white" points="296.31,-1531.94 297.24,-1521.38 293.85,-1522.24 296.31,-1531.94"/>
<text text-anchor="middle" x="361.5" y="-1397.8" font-family="Times,serif" font-size="14.00" fill="white">20,033 row(s)/5 chunk(s)</text>
</g>
<!-- 140298774702544&#45;&gt;140298774702864 -->
<g id="edge16" class="edge">
<title>140298774702544&#45;&gt;140298774702864</title>
<path fill="none" stroke="white" d="M304.77,-1256.14C305.81,-1267.67 308.96,-1279.93 316.5,-1289 319.97,-1293.17 323.79,-1297 327.89,-1300.52"/>
<polygon fill="white" stroke="white" points="336.1,-1306.92 330.36,-1298.01 328.21,-1300.77 336.1,-1306.92"/>
<text text-anchor="middle" x="405.5" y="-1277.8" font-family="Times,serif" font-size="14.00" fill="white">20,033 row(s)/5 chunk(s)</text>
</g>
<!-- 140298776592912 -->
<g id="node16" class="node">
<title>140298776592912</title>
<g id="a_node16"><a xlink:title="Output: 20033 rows in 5 chunks filtered: 0, 221 µs 588 ns.">
<polygon fill="none" stroke="white" points="473,-1067 356,-1067 356,-1013 473,-1013 473,-1067"/>
<text text-anchor="middle" x="414.5" y="-1051.8" font-family="Times,serif" font-size="14.00" fill="white">Validate</text>
<text text-anchor="middle" x="414.5" y="-1020.8" font-family="Times,serif" font-size="14.00" fill="white">221 µs 588 ns</text>
</a>
</g>
</g>
<!-- 140298776592912&#45;&gt;140298774702544 -->
<g id="edge18" class="edge">
<title>140298776592912&#45;&gt;140298774702544</title>
<path fill="none" stroke="white" d="M398.8,-1067.1C381.34,-1096.11 352.89,-1143.4 332.19,-1177.81"/>
<polygon fill="white" stroke="white" points="331.99,-1178.14 328.99,-1176.33 326.83,-1186.71 331.99,-1178.14"/>
<text text-anchor="middle" x="455.5" y="-1138.3" font-family="Times,serif" font-size="14.00" fill="white">20,033 row(s)/5 chunk(s)</text>
</g>
<!-- 140298774702224 -->
<g id="node17" class="node">
<title>140298774702224</title>
<g id="a_node17"><a xlink:title="Output: 20033 rows in 5 chunks filtered: 0, 16 ms 233 µs.&#10;Operator step runtimes:&#10; LeftSideMaterialize 667 µs 217 ns&#10; RightSideMaterialize 9 µs 723 ns&#10; LeftSideTransform 0 ns&#10; RightSideTransform 0 ns&#10; LeftSidePartition 5 ms 622 µs&#10; RightSidePartition 89 µs 180 ns&#10; LeftSideSortBuckets 1 ms 187 µs&#10; RightSideSortBuckets 7 ms 869 µs&#10; GatherRowIds 7 µs 879 ns&#10; FindJoinPartner 481 µs 684 ns&#10; OutputWriting 98 µs 705 ns.&#10;Radix bits: 8.">
<polygon fill="none" stroke="white" stroke-width="6.45" points="620,-924.5 335,-924.5 335,-855.5 620,-855.5 620,-924.5"/>
<text text-anchor="middle" x="477.5" y="-909.3" font-family="Times,serif" font-size="14.00" fill="white">JoinSimdSortMerge (Semi Reduction)</text>
<text text-anchor="middle" x="477.5" y="-894.3" font-family="Times,serif" font-size="14.00" fill="white">s_nationkey = n_nationkey</text>
<text text-anchor="middle" x="477.5" y="-863.3" font-family="Times,serif" font-size="14.00" fill="white">16 ms 233 µs</text>
</a>
</g>
</g>
<!-- 140298774702224&#45;&gt;140298776592912 -->
<g id="edge19" class="edge">
<title>140298774702224&#45;&gt;140298776592912</title>
<path fill="none" stroke="white" d="M464.77,-924.69C459.84,-937.39 454.06,-951.92 448.5,-965 443.13,-977.63 436.94,-991.32 431.33,-1003.45"/>
<polygon fill="white" stroke="white" points="428.03,-1002.25 426.98,-1012.79 434.38,-1005.2 428.03,-1002.25"/>
<text text-anchor="middle" x="542.5" y="-953.8" font-family="Times,serif" font-size="14.00" fill="white">20,033 row(s)/5 chunk(s)</text>
</g>
<!-- 140298774903696 -->
<g id="node18" class="node">
<title>140298774903696</title>
<g id="a_node18"><a xlink:title="Output: 100000 rows in 2 chunks filtered: 0, 12 µs 329 ns.">
<polygon fill="none" stroke="white" points="754,-797 641,-797 641,-683 754,-683 754,-797"/>
<text text-anchor="middle" x="697.5" y="-781.8" font-family="Times,serif" font-size="14.00" fill="white">GetTable</text>
<text text-anchor="middle" x="697.5" y="-766.8" font-family="Times,serif" font-size="14.00" fill="white">(supplier)</text>
<text text-anchor="middle" x="697.5" y="-751.8" font-family="Times,serif" font-size="14.00" fill="white">pruned:</text>
<text text-anchor="middle" x="697.5" y="-736.8" font-family="Times,serif" font-size="14.00" fill="white">0/2 chunk(s)</text>
<text text-anchor="middle" x="697.5" y="-721.8" font-family="Times,serif" font-size="14.00" fill="white">0/7 column(s)</text>
<text text-anchor="middle" x="697.5" y="-690.8" font-family="Times,serif" font-size="14.00" fill="white">12 µs 329 ns</text>
</a>
</g>
</g>
<!-- 140298774903696&#45;&gt;140298774702224 -->
<g id="edge20" class="edge">
<title>140298774903696&#45;&gt;140298774702224</title>
<path fill="none" stroke="white" d="M640.97,-752.34C601.23,-762.81 549.02,-781.9 513.5,-815 504.35,-823.52 497.26,-834.86 491.87,-846.1"/>
<polygon fill="white" stroke="white" points="491.78,-846.3 488.58,-844.89 487.75,-855.45 491.78,-846.3"/>
<text text-anchor="middle" x="607" y="-818.8" font-family="Times,serif" font-size="14.00" fill="white">100,000 row(s)/2 chunk(s)</text>
</g>
<!-- 140298774703824 -->
<g id="node29" class="node">
<title>140298774703824</title>
<g id="a_node29"><a xlink:title="Output: 20033 rows in 5 chunks filtered: 0, 17 ms 281 µs.&#10;Operator step runtimes:&#10; LeftSideMaterialize 900 µs 666 ns&#10; RightSideMaterialize 11 µs 957 ns&#10; LeftSideTransform 0 ns&#10; RightSideTransform 0 ns&#10; LeftSidePartition 6 ms 135 µs&#10; RightSidePartition 1 ms 851 µs&#10; LeftSideSortBuckets 6 ms 349 µs&#10; RightSideSortBuckets 1 ms 178 µs&#10; GatherRowIds 1 µs 889 ns&#10; FindJoinPartner 471 µs 344 ns&#10; OutputWriting 97 µs 36 ns.&#10;Radix bits: 8.">
<polygon fill="none" stroke="white" stroke-width="6.6" points="988,-924.5 779,-924.5 779,-855.5 988,-855.5 988,-924.5"/>
<text text-anchor="middle" x="883.5" y="-909.3" font-family="Times,serif" font-size="14.00" fill="white">JoinSimdSortMerge (Semi)</text>
<text text-anchor="middle" x="883.5" y="-894.3" font-family="Times,serif" font-size="14.00" fill="white">s_nationkey = n_nationkey</text>
<text text-anchor="middle" x="883.5" y="-863.3" font-family="Times,serif" font-size="14.00" fill="white">17 ms 281 µs</text>
</a>
</g>
</g>
<!-- 140298774903696&#45;&gt;140298774703824 -->
<g id="edge21" class="edge">
<title>140298774903696&#45;&gt;140298774703824</title>
<path fill="none" stroke="white" d="M754.19,-753.68C789.67,-764.4 833.76,-783.24 861.5,-815 868.99,-823.58 873.94,-834.62 877.2,-845.54"/>
<polygon fill="white" stroke="white" points="877.26,-845.77 873.87,-846.64 879.74,-855.46 877.26,-845.77"/>
<text text-anchor="middle" x="964" y="-818.8" font-family="Times,serif" font-size="14.00" fill="white">100,000 row(s)/2 chunk(s)</text>
</g>
<!-- 140298774638864 -->
<g id="node19" class="node">
<title>140298774638864</title>
<g id="a_node19"><a xlink:title="Output: 5 rows in 1 chunk filtered: 0, 10 µs 103 ns.">
<polygon fill="none" stroke="white" points="405.5,-767 297.5,-767 297.5,-713 405.5,-713 405.5,-767"/>
<text text-anchor="middle" x="351.5" y="-751.8" font-family="Times,serif" font-size="14.00" fill="white">Validate</text>
<text text-anchor="middle" x="351.5" y="-720.8" font-family="Times,serif" font-size="14.00" fill="white">10 µs 103 ns</text>
</a>
</g>
</g>
<!-- 140298774638864&#45;&gt;140298774702544 -->
<g id="edge23" class="edge">
<title>140298774638864&#45;&gt;140298774702544</title>
<path fill="none" stroke="white" d="M345.07,-767.32C339.86,-788.95 332.43,-820.4 326.5,-848 316.8,-893.17 310.97,-904.02 306.5,-950 298.78,-1029.53 301.32,-1122.84 303.89,-1176.48"/>
<polygon fill="white" stroke="white" points="304.41,-1186.66 307.4,-1176.5 303.9,-1176.67 304.41,-1186.66"/>
<text text-anchor="middle" x="375.5" y="-953.8" font-family="Times,serif" font-size="14.00" fill="white">5 row(s)/1 chunk(s)</text>
</g>
<!-- 140298774638864&#45;&gt;140298774702224 -->
<g id="edge22" class="edge">
<title>140298774638864&#45;&gt;140298774702224</title>
<path fill="none" stroke="white" d="M344.87,-767.24C341.64,-786.17 340.65,-811.53 352.5,-830 357.16,-837.26 362.97,-843.64 369.52,-849.25"/>
<polygon fill="white" stroke="white" points="377.53,-855.49 371.79,-846.58 369.64,-849.34 377.53,-855.49"/>
<text text-anchor="middle" x="421.5" y="-818.8" font-family="Times,serif" font-size="14.00" fill="white">5 row(s)/1 chunk(s)</text>
</g>
<!-- 140298774638864&#45;&gt;140298774703824 -->
<g id="edge24" class="edge">
<title>140298774638864&#45;&gt;140298774703824</title>
<path fill="none" stroke="white" d="M405.73,-751.82C500.41,-770.82 687.15,-808.74 700.5,-815 710.24,-819.57 710.09,-824.78 719.5,-830 735.12,-838.67 752.27,-846.49 769.4,-853.37"/>
<polygon fill="white" stroke="white" points="778.91,-857.1 770.88,-850.19 769.6,-853.45 778.91,-857.1"/>
<text text-anchor="middle" x="788.5" y="-818.8" font-family="Times,serif" font-size="14.00" fill="white">5 row(s)/1 chunk(s)</text>
</g>
<!-- 140298774701904 -->
<g id="node20" class="node">
<title>140298774701904</title>
<g id="a_node20"><a xlink:title="Output: 5 rows in 1 chunk filtered: 0, 3 ms 530 µs.&#10;Operator step runtimes:&#10; LeftSideMaterialize 5 µs 608 ns&#10; RightSideMaterialize 7 µs 377 ns&#10; LeftSideTransform 0 ns&#10; RightSideTransform 0 ns&#10; LeftSidePartition 46 µs 455 ns&#10; RightSidePartition 30 µs 110 ns&#10; LeftSideSortBuckets 1 ms 252 µs&#10; RightSideSortBuckets 1 ms 306 µs&#10; GatherRowIds 2 µs 402 ns&#10; FindJoinPartner 10 µs 388 ns&#10; OutputWriting 31 µs 849 ns.&#10;Radix bits: 8.">
<polygon fill="none" stroke="white" stroke-width="2.69" points="456,-609.5 247,-609.5 247,-540.5 456,-540.5 456,-609.5"/>
<text text-anchor="middle" x="351.5" y="-594.3" font-family="Times,serif" font-size="14.00" fill="white">JoinSimdSortMerge (Semi)</text>
<text text-anchor="middle" x="351.5" y="-579.3" font-family="Times,serif" font-size="14.00" fill="white">n_regionkey = r_regionkey</text>
<text text-anchor="middle" x="351.5" y="-548.3" font-family="Times,serif" font-size="14.00" fill="white">3 ms 530 µs</text>
</a>
</g>
</g>
<!-- 140298774701904&#45;&gt;140298774638864 -->
<g id="edge25" class="edge">
<title>140298774701904&#45;&gt;140298774638864</title>
<path fill="none" stroke="white" d="M351.5,-609.77C351.5,-636.89 351.5,-674.9 351.5,-702.68"/>
<polygon fill="white" stroke="white" points="348,-702.78 351.5,-712.78 355,-702.78 348,-702.78"/>
<text text-anchor="middle" x="420.5" y="-653.8" font-family="Times,serif" font-size="14.00" fill="white">5 row(s)/1 chunk(s)</text>
</g>
<!-- 140298774905936 -->
<g id="node21" class="node">
<title>140298774905936</title>
<g id="a_node21"><a xlink:title="Output: 25 rows in 1 chunk filtered: 0, 15 µs 93 ns.">
<polygon fill="none" stroke="white" points="323,-467 210,-467 210,-353 323,-353 323,-467"/>
<text text-anchor="middle" x="266.5" y="-451.8" font-family="Times,serif" font-size="14.00" fill="white">GetTable</text>
<text text-anchor="middle" x="266.5" y="-436.8" font-family="Times,serif" font-size="14.00" fill="white">(nation)</text>
<text text-anchor="middle" x="266.5" y="-421.8" font-family="Times,serif" font-size="14.00" fill="white">pruned:</text>
<text text-anchor="middle" x="266.5" y="-406.8" font-family="Times,serif" font-size="14.00" fill="white">0/1 chunk(s)</text>
<text text-anchor="middle" x="266.5" y="-391.8" font-family="Times,serif" font-size="14.00" fill="white">1/4 column(s)</text>
<text text-anchor="middle" x="266.5" y="-360.8" font-family="Times,serif" font-size="14.00" fill="white">15 µs 93 ns</text>
</a>
</g>
</g>
<!-- 140298774905936&#45;&gt;140298774701904 -->
<g id="edge26" class="edge">
<title>140298774905936&#45;&gt;140298774701904</title>
<path fill="none" stroke="white" d="M260.12,-467.17C260.75,-478.42 262.86,-489.89 267.5,-500 273.24,-512.51 282.23,-523.76 292.23,-533.49"/>
<polygon fill="white" stroke="white" points="292.29,-533.55 289.93,-536.13 299.66,-540.31 292.29,-533.55"/>
<text text-anchor="middle" x="341" y="-488.8" font-family="Times,serif" font-size="14.00" fill="white">25 row(s)/1 chunk(s)</text>
</g>
<!-- 140298776413712 -->
<g id="node22" class="node">
<title>140298776413712</title>
<g id="a_node22"><a xlink:title="Output: 1 row in 1 chunk filtered: 0, 13 µs 167 ns.">
<polygon fill="none" stroke="white" points="490.5,-437 382.5,-437 382.5,-383 490.5,-383 490.5,-437"/>
<text text-anchor="middle" x="436.5" y="-421.8" font-family="Times,serif" font-size="14.00" fill="white">Validate</text>
<text text-anchor="middle" x="436.5" y="-390.8" font-family="Times,serif" font-size="14.00" fill="white">13 µs 167 ns</text>
</a>
</g>
</g>
<!-- 140298776413712&#45;&gt;140298774701904 -->
<g id="edge27" class="edge">
<title>140298776413712&#45;&gt;140298774701904</title>
<path fill="none" stroke="white" d="M433.31,-437.05C430.29,-455.41 424.67,-480.17 414.5,-500 408.67,-511.37 400.77,-522.49 392.54,-532.52"/>
<polygon fill="white" stroke="white" points="385.91,-540.3 395.06,-534.96 392.39,-532.69 385.91,-540.3"/>
<text text-anchor="middle" x="489.5" y="-488.8" font-family="Times,serif" font-size="14.00" fill="white">1 row(s)/1 chunk(s)</text>
</g>
<!-- 140298774700944 -->
<g id="node23" class="node">
<title>140298774700944</title>
<g id="a_node23"><a xlink:title="Output: 1 row in 1 chunk filtered: 0, 33 µs 934 ns.&#10;Chunks: 0 skipped with no results, &#10;0 skipped with all matching, 0 scanned using binary search.">
<polygon fill="none" stroke="white" points="521,-302 352,-302 352,-218 521,-218 521,-302"/>
<text text-anchor="middle" x="436.5" y="-286.8" font-family="Times,serif" font-size="14.00" fill="white">TableScan</text>
<text text-anchor="middle" x="436.5" y="-271.8" font-family="Times,serif" font-size="14.00" fill="white">Impl: ColumnVsValue</text>
<text text-anchor="middle" x="436.5" y="-256.8" font-family="Times,serif" font-size="14.00" fill="white">r_name = &#39;EUROPE&#39;</text>
<text text-anchor="middle" x="436.5" y="-225.8" font-family="Times,serif" font-size="14.00" fill="white">33 µs 934 ns</text>
</a>
</g>
</g>
<!-- 140298774700944&#45;&gt;140298776413712 -->
<g id="edge28" class="edge">
<title>140298774700944&#45;&gt;140298776413712</title>
<path fill="none" stroke="white" d="M436.5,-302.23C436.5,-324.32 436.5,-351.31 436.5,-372.62"/>
<polygon fill="white" stroke="white" points="433,-372.88 436.5,-382.88 440,-372.88 433,-372.88"/>
<text text-anchor="middle" x="505.5" y="-323.8" font-family="Times,serif" font-size="14.00" fill="white">1 row(s)/1 chunk(s)</text>
</g>
<!-- 140298774904144 -->
<g id="node24" class="node">
<title>140298774904144</title>
<g id="a_node24"><a xlink:title="Output: 5 rows in 1 chunk filtered: 0, 15 µs 843 ns.">
<polygon fill="none" stroke="white" points="493,-140.5 380,-140.5 380,-26.5 493,-26.5 493,-140.5"/>
<text text-anchor="middle" x="436.5" y="-125.3" font-family="Times,serif" font-size="14.00" fill="white">GetTable</text>
<text text-anchor="middle" x="436.5" y="-110.3" font-family="Times,serif" font-size="14.00" fill="white">(region)</text>
<text text-anchor="middle" x="436.5" y="-95.3" font-family="Times,serif" font-size="14.00" fill="white">pruned:</text>
<text text-anchor="middle" x="436.5" y="-80.3" font-family="Times,serif" font-size="14.00" fill="white">0/1 chunk(s)</text>
<text text-anchor="middle" x="436.5" y="-65.3" font-family="Times,serif" font-size="14.00" fill="white">1/3 column(s)</text>
<text text-anchor="middle" x="436.5" y="-34.3" font-family="Times,serif" font-size="14.00" fill="white">15 µs 843 ns</text>
</a>
</g>
</g>
<!-- 140298774904144&#45;&gt;140298774700944 -->
<g id="edge29" class="edge">
<title>140298774904144&#45;&gt;140298774700944</title>
<path fill="none" stroke="white" d="M436.5,-140.67C436.5,-162.25 436.5,-186.74 436.5,-207.83"/>
<polygon fill="white" stroke="white" points="433,-207.87 436.5,-217.87 440,-207.87 433,-207.87"/>
<text text-anchor="middle" x="505.5" y="-188.8" font-family="Times,serif" font-size="14.00" fill="white">5 row(s)/1 chunk(s)</text>
</g>
<!-- 140298774850576 -->
<g id="node25" class="node">
<title>140298774850576</title>
<g id="a_node25"><a xlink:title="Output: 4775 rows in 1 chunk filtered: 0, 7 ms 330 µs.&#10;Operator step runtimes:&#10; GroupByKeyPartitioning 3 ms 18 µs&#10; Aggregating 4 ms 134 µs&#10; GroupByColumnsWriting 95 µs 428 ns&#10; AggregateColumnsWriting 56 µs 854 ns&#10; OutputWriting 8 µs 920 ns.">
<polygon fill="none" stroke="white" stroke-width="4.49" points="684.5,-1703 504.5,-1703 504.5,-1619 684.5,-1619 684.5,-1703"/>
<text text-anchor="middle" x="594.5" y="-1687.8" font-family="Times,serif" font-size="14.00" fill="white">AggregateHash</text>
<text text-anchor="middle" x="594.5" y="-1672.8" font-family="Times,serif" font-size="14.00" fill="white">GroupBy {ps_partkey}</text>
<text text-anchor="middle" x="594.5" y="-1657.8" font-family="Times,serif" font-size="14.00" fill="white">MIN(ps_supplycost)</text>
<text text-anchor="middle" x="594.5" y="-1626.8" font-family="Times,serif" font-size="14.00" fill="white">7 ms 330 µs</text>
</a>
</g>
</g>
<!-- 140298774850576&#45;&gt;140256558777872 -->
<g id="edge30" class="edge">
<title>140298774850576&#45;&gt;140256558777872</title>
<path fill="none" stroke="white" d="M590.17,-1703.29C584.66,-1738.37 572.24,-1788.41 544.5,-1823 541.44,-1826.82 538.06,-1830.44 534.44,-1833.86"/>
<polygon fill="white" stroke="white" points="526.73,-1840.61 536.56,-1836.66 534.26,-1834.02 526.73,-1840.61"/>
<text text-anchor="middle" x="670" y="-1751.8" font-family="Times,serif" font-size="14.00" fill="white">4,775 row(s)/1 chunk(s)</text>
</g>
<!-- 140298776414736 -->
<g id="node26" class="node">
<title>140298776414736</title>
<g id="a_node26"><a xlink:title="Output: 6445 rows in 13 chunks filtered: 0, 170 µs 189 ns.">
<polygon fill="none" stroke="white" points="692,-1481 575,-1481 575,-1427 692,-1427 692,-1481"/>
<text text-anchor="middle" x="633.5" y="-1465.8" font-family="Times,serif" font-size="14.00" fill="white">Validate</text>
<text text-anchor="middle" x="633.5" y="-1434.8" font-family="Times,serif" font-size="14.00" fill="white">170 µs 189 ns</text>
</a>
</g>
</g>
<!-- 140298776414736&#45;&gt;140298774850576 -->
<g id="edge31" class="edge">
<title>140298776414736&#45;&gt;140298774850576</title>
<path fill="none" stroke="white" d="M628.48,-1481.38C622.37,-1513.48 611.93,-1568.4 604.22,-1608.89"/>
<polygon fill="white" stroke="white" points="600.76,-1608.37 602.33,-1618.85 607.64,-1609.68 600.76,-1608.37"/>
<text text-anchor="middle" x="713.5" y="-1502.8" font-family="Times,serif" font-size="14.00" fill="white">6,445 row(s)/13 chunk(s)</text>
</g>
<!-- 140256558770192&#45;&gt;140298776414736 -->
<g id="edge32" class="edge">
<title>140256558770192&#45;&gt;140298776414736</title>
<path fill="none" stroke="white" d="M700.87,-1376.25C688.95,-1389.84 675.22,-1405.47 663.28,-1419.07"/>
<polygon fill="white" stroke="white" points="660.45,-1416.99 656.49,-1426.81 665.72,-1421.61 660.45,-1416.99"/>
<text text-anchor="middle" x="773.5" y="-1397.8" font-family="Times,serif" font-size="14.00" fill="white">6,445 row(s)/13 chunk(s)</text>
</g>
<!-- 140298776413968 -->
<g id="node28" class="node">
<title>140298776413968</title>
<g id="a_node28"><a xlink:title="Output: 20033 rows in 5 chunks filtered: 0, 210 µs 12 ns.">
<polygon fill="none" stroke="white" points="969.5,-1169 861.5,-1169 861.5,-1115 969.5,-1115 969.5,-1169"/>
<text text-anchor="middle" x="915.5" y="-1153.8" font-family="Times,serif" font-size="14.00" fill="white">Validate</text>
<text text-anchor="middle" x="915.5" y="-1122.8" font-family="Times,serif" font-size="14.00" fill="white">210 µs 12 ns</text>
</a>
</g>
</g>
<!-- 140298776413968&#45;&gt;140256558770192 -->
<g id="edge33" class="edge">
<title>140298776413968&#45;&gt;140256558770192</title>
<path fill="none" stroke="white" d="M920.54,-1169.21C925.1,-1201.25 927.41,-1255.33 899.5,-1289 885.33,-1306.1 865.65,-1317.65 844.72,-1325.41"/>
<polygon fill="white" stroke="white" points="835.03,-1328.72 845.62,-1328.8 844.49,-1325.49 835.03,-1328.72"/>
<text text-anchor="middle" x="1011.5" y="-1217.8" font-family="Times,serif" font-size="14.00" fill="white">20,033 row(s)/5 chunk(s)</text>
</g>
<!-- 140298774703824&#45;&gt;140298776413968 -->
<g id="edge34" class="edge">
<title>140298774703824&#45;&gt;140298776413968</title>
<path fill="none" stroke="white" d="M887.82,-924.72C893.82,-971.65 904.66,-1056.34 910.85,-1104.65"/>
<polygon fill="white" stroke="white" points="907.39,-1105.19 912.13,-1114.66 914.33,-1104.3 907.39,-1105.19"/>
<text text-anchor="middle" x="981.5" y="-953.8" font-family="Times,serif" font-size="14.00" fill="white">20,033 row(s)/5 chunk(s)</text>
</g>
<!-- 0 -->
<g id="node30" class="node">
<title>0</title>
<polygon fill="none" stroke="white" points="511.5,-0.5 511.5,-166.5 857.5,-166.5 857.5,-0.5 511.5,-0.5"/>
<text text-anchor="middle" x="684.5" y="-151.3" font-family="Times,serif" font-size="14.00" fill="white">Total by operator</text>
<polyline fill="none" stroke="white" points="511.5,-143.5 857.5,-143.5 "/>
<text text-anchor="end" x="665.5" y="-128.3" font-family="Times,serif" font-size="14.00" fill="white">JoinSimdSortMerge </text>
<text text-anchor="end" x="665.5" y="-113.3" font-family="Times,serif" font-size="14.00" fill="white"> Sort </text>
<text text-anchor="end" x="665.5" y="-98.3" font-family="Times,serif" font-size="14.00" fill="white"> AggregateHash </text>
<text text-anchor="end" x="665.5" y="-83.3" font-family="Times,serif" font-size="14.00" fill="white"> Validate </text>
<text text-anchor="end" x="665.5" y="-68.3" font-family="Times,serif" font-size="14.00" fill="white"> TableScan </text>
<text text-anchor="end" x="665.5" y="-53.3" font-family="Times,serif" font-size="14.00" fill="white"> GetTable </text>
<text text-anchor="end" x="665.5" y="-38.3" font-family="Times,serif" font-size="14.00" fill="white"> Limit </text>
<text text-anchor="end" x="665.5" y="-23.3" font-family="Times,serif" font-size="14.00" fill="white"> Projection </text>
<text text-anchor="end" x="665.5" y="-8.3" font-family="Times,serif" font-size="14.00" fill="white">total</text>
<polyline fill="none" stroke="white" points="673.5,-0.5 673.5,-143.5 "/>
<text text-anchor="start" x="681.5" y="-128.3" font-family="Times,serif" font-size="14.00" fill="white">149 ms 484 µs </text>
<text text-anchor="start" x="681.5" y="-113.3" font-family="Times,serif" font-size="14.00" fill="white"> 10 ms 995 µs </text>
<text text-anchor="start" x="681.5" y="-98.3" font-family="Times,serif" font-size="14.00" fill="white"> 7 ms 330 µs </text>
<text text-anchor="start" x="681.5" y="-83.3" font-family="Times,serif" font-size="14.00" fill="white"> 913 µs 825 ns </text>
<text text-anchor="start" x="681.5" y="-68.3" font-family="Times,serif" font-size="14.00" fill="white"> 857 µs 373 ns </text>
<text text-anchor="start" x="681.5" y="-53.3" font-family="Times,serif" font-size="14.00" fill="white"> 671 µs 490 ns </text>
<text text-anchor="start" x="681.5" y="-38.3" font-family="Times,serif" font-size="14.00" fill="white"> 22 µs 167 ns </text>
<text text-anchor="start" x="681.5" y="-23.3" font-family="Times,serif" font-size="14.00" fill="white"> 14 µs 193 ns </text>
<text text-anchor="start" x="681.5" y="-8.3" font-family="Times,serif" font-size="14.00" fill="white"> 170 ms 288 µs </text>
<polyline fill="none" stroke="white" points="804.5,-0.5 804.5,-143.5 "/>
<text text-anchor="start" x="812.5" y="-128.3" font-family="Times,serif" font-size="14.00" fill="white">88 %</text>
<text text-anchor="start" x="812.5" y="-113.3" font-family="Times,serif" font-size="14.00" fill="white">6 %</text>
<text text-anchor="start" x="812.5" y="-98.3" font-family="Times,serif" font-size="14.00" fill="white">4 %</text>
<text text-anchor="start" x="812.5" y="-83.3" font-family="Times,serif" font-size="14.00" fill="white">1 %</text>
<text text-anchor="start" x="812.5" y="-68.3" font-family="Times,serif" font-size="14.00" fill="white">1 %</text>
<text text-anchor="start" x="812.5" y="-53.3" font-family="Times,serif" font-size="14.00" fill="white">0 %</text>
<text text-anchor="start" x="812.5" y="-38.3" font-family="Times,serif" font-size="14.00" fill="white">0 %</text>
<text text-anchor="start" x="812.5" y="-23.3" font-family="Times,serif" font-size="14.00" fill="white">0 %</text>
<text text-anchor="start" x="812.5" y="-8.3" font-family="Times,serif" font-size="14.00" fill="white"> </text>
</g>
</g>
</svg>
