<?xml version="1.0" encoding="UTF-8" standalone="no"?>
<!DOCTYPE svg PUBLIC "-//W3C//DTD SVG 1.1//EN"
 "http://www.w3.org/Graphics/SVG/1.1/DTD/svg11.dtd">
<!-- Generated by graphviz version 2.43.0 (0)
 -->
<!-- Title: G Pages: 1 -->
<svg width="2230pt" height="1909pt"
 viewBox="0.00 0.00 2230.00 1909.00" xmlns="http://www.w3.org/2000/svg" xmlns:xlink="http://www.w3.org/1999/xlink">
<g id="graph0" class="graph" transform="scale(1 1) rotate(0) translate(4 1905)">
<title>G</title>
<polygon fill="black" stroke="transparent" points="-4,4 -4,-1905 2226,-1905 2226,4 -4,4"/>
<text text-anchor="middle" x="319.5" y="-1885.8" font-family="Times,serif" font-size="14.00" fill="white">For tooltips with advanced information, hover your mouse over vertices or edge labels.</text>
<!-- 140256886898640 -->
<g id="node1" class="node">
<title>140256886898640</title>
<polygon fill="none" stroke="white" points="1087,-1846 713,-1846 713,-1808 1087,-1808 1087,-1846"/>
<text text-anchor="middle" x="900" y="-1830.8" font-family="Times,serif" font-size="14.00" fill="white">[Alias] p_brand, p_type, p_size, COUNT(DISTINCT</text>
<text text-anchor="middle" x="900" y="-1815.8" font-family="Times,serif" font-size="14.00" fill="white">ps_suppkey) AS supplier_cnt</text>
</g>
<!-- 140256886898448 -->
<g id="node2" class="node">
<title>140256886898448</title>
<polygon fill="none" stroke="white" points="1094.5,-1757 705.5,-1757 705.5,-1704 1094.5,-1704 1094.5,-1757"/>
<text text-anchor="middle" x="900" y="-1741.8" font-family="Times,serif" font-size="14.00" fill="white">[Sort] COUNT(DISTINCT ps_suppkey) (Descending),</text>
<text text-anchor="middle" x="900" y="-1726.8" font-family="Times,serif" font-size="14.00" fill="white">p_brand (Ascending), p_type (Ascending), p_size</text>
<text text-anchor="middle" x="900" y="-1711.8" font-family="Times,serif" font-size="14.00" fill="white">(Ascending)</text>
</g>
<!-- 140256886898448&#45;&gt;140256886898640 -->
<g id="edge1" class="edge">
<title>140256886898448&#45;&gt;140256886898640</title>
<path fill="none" stroke="white" d="M900,-1757.32C900,-1769.87 900,-1784.99 900,-1797.83"/>
<polygon fill="white" stroke="white" points="896.5,-1797.99 900,-1807.99 903.5,-1797.99 896.5,-1797.99"/>
<g id="a_edge1&#45;label"><a xlink:title="Output Expressions: &#10; (1) p_brand&#10; (2) p_type&#10; (3) p_size&#10; (4) COUNT(DISTINCT ps_suppkey)&#10;&#10;Unique Column Combinations: &#10; (1) {p_brand, p_type, p_size}&#10;&#10;Functional Dependencies (trivial): &#10; (1) {p_brand, p_type, p_size} =&gt; {COUNT(DISTINCT ps_suppkey)}&#10;&#10;Functional Dependencies (non&#45;trivial): &#10; &lt;none&gt;">
<text text-anchor="middle" x="1001" y="-1778.8" font-family="Times,serif" font-size="14.00" fill="white"> 251.5 row(s) | 100.0% estd.</text>
</a>
</g>
</g>
<!-- 140256886898256 -->
<g id="node3" class="node">
<title>140256886898256</title>
<polygon fill="none" stroke="white" points="1077.5,-1653 722.5,-1653 722.5,-1615 1077.5,-1615 1077.5,-1653"/>
<text text-anchor="middle" x="900" y="-1637.8" font-family="Times,serif" font-size="14.00" fill="white">[Aggregate] GroupBy: [p_brand, p_type, p_size]</text>
<text text-anchor="middle" x="900" y="-1622.8" font-family="Times,serif" font-size="14.00" fill="white">Aggregates: [COUNT(DISTINCT ps_suppkey)]</text>
</g>
<!-- 140256886898256&#45;&gt;140256886898448 -->
<g id="edge2" class="edge">
<title>140256886898256&#45;&gt;140256886898448</title>
<path fill="none" stroke="white" d="M900,-1653.22C900,-1664.67 900,-1679.84 900,-1693.64"/>
<polygon fill="white" stroke="white" points="896.5,-1693.83 900,-1703.83 903.5,-1693.83 896.5,-1693.83"/>
<g id="a_edge2&#45;label"><a xlink:title="Output Expressions: &#10; (1) p_brand&#10; (2) p_type&#10; (3) p_size&#10; (4) COUNT(DISTINCT ps_suppkey)&#10;&#10;Unique Column Combinations: &#10; (1) {p_brand, p_type, p_size}&#10;&#10;Functional Dependencies (trivial): &#10; (1) {p_brand, p_type, p_size} =&gt; {COUNT(DISTINCT ps_suppkey)}&#10;&#10;Functional Dependencies (non&#45;trivial): &#10; &lt;none&gt;">
<text text-anchor="middle" x="1001" y="-1674.8" font-family="Times,serif" font-size="14.00" fill="white"> 251.5 row(s) | 100.0% estd.</text>
</a>
</g>
</g>
<!-- 140256886904784 -->
<g id="node4" class="node">
<title>140256886904784</title>
<polygon fill="none" stroke="white" points="1065,-1564 735,-1564 735,-1528 1065,-1528 1065,-1564"/>
<text text-anchor="middle" x="900" y="-1542.3" font-family="Times,serif" font-size="14.00" fill="white">[Join] Mode: Inner [p_partkey = ps_partkey]</text>
</g>
<!-- 140256886904784&#45;&gt;140256886898256 -->
<g id="edge3" class="edge">
<title>140256886904784&#45;&gt;140256886898256</title>
<path fill="none" stroke="white" d="M900,-1564.4C900,-1575.94 900,-1591.35 900,-1604.64"/>
<polygon fill="white" stroke="white" points="896.5,-1604.73 900,-1614.73 903.5,-1604.73 896.5,-1604.73"/>
<g id="a_edge3&#45;label"><a xlink:title="Output Expressions: &#10; (1) ps_partkey&#10; (2) ps_suppkey&#10; (3) p_partkey&#10; (4) p_brand&#10; (5) p_type&#10; (6) p_size&#10;&#10;Unique Column Combinations: &#10; &lt;none&gt;&#10;&#10;Functional Dependencies (trivial): &#10; &lt;none&gt;&#10;&#10;Functional Dependencies (non&#45;trivial): &#10; (1) {p_partkey} =&gt; {p_brand, p_type, p_size}&#10;">
<text text-anchor="middle" x="992" y="-1585.8" font-family="Times,serif" font-size="14.00" fill="white"> 251.5 row(s) | 0.0% estd.</text>
</a>
</g>
</g>
<!-- 140256886897488 -->
<g id="node5" class="node">
<title>140256886897488</title>
<polygon fill="none" stroke="white" points="837,-1477 511,-1477 511,-1439 837,-1439 837,-1477"/>
<text text-anchor="middle" x="674" y="-1461.8" font-family="Times,serif" font-size="14.00" fill="white">[Join] Mode: AntiNullAsTrue [ps_suppkey =</text>
<text text-anchor="middle" x="674" y="-1446.8" font-family="Times,serif" font-size="14.00" fill="white">s_suppkey]</text>
</g>
<!-- 140256886897488&#45;&gt;140256886904784 -->
<g id="edge4" class="edge">
<title>140256886897488&#45;&gt;140256886904784</title>
<path fill="none" stroke="white" d="M719.32,-1477.09C744.25,-1486.96 775.77,-1499.32 804,-1510 816.56,-1514.75 830.09,-1519.76 842.91,-1524.44"/>
<polygon fill="white" stroke="white" points="843.16,-1524.53 841.96,-1527.82 852.55,-1527.96 843.16,-1524.53"/>
<g id="a_edge4&#45;label"><a xlink:title="Output Expressions: &#10; (1) ps_partkey&#10; (2) ps_suppkey&#10;&#10;Unique Column Combinations: &#10; (1) {ps_partkey, ps_suppkey}&#10;&#10;Functional Dependencies (trivial): &#10; &lt;none&gt;&#10;&#10;Functional Dependencies (non&#45;trivial): &#10; &lt;none&gt;">
<text text-anchor="middle" x="905" y="-1498.8" font-family="Times,serif" font-size="14.00" fill="white"> 251.5 row(s) | 100.0% estd.</text>
</a>
</g>
</g>
<!-- 140256809925776 -->
<g id="node6" class="node">
<title>140256809925776</title>
<polygon fill="none" stroke="white" points="491.5,-1388 406.5,-1388 406.5,-1352 491.5,-1352 491.5,-1388"/>
<text text-anchor="middle" x="449" y="-1366.3" font-family="Times,serif" font-size="14.00" fill="white">[Validate]</text>
</g>
<!-- 140256809925776&#45;&gt;140256886897488 -->
<g id="edge5" class="edge">
<title>140256809925776&#45;&gt;140256886897488</title>
<path fill="none" stroke="white" d="M451.19,-1388.36C453.51,-1399.35 458.26,-1412.96 468,-1421 475.43,-1427.14 488.64,-1432.28 504.9,-1436.57"/>
<polygon fill="white" stroke="white" points="505.1,-1436.62 504.27,-1440.02 514.81,-1439 505.1,-1436.62"/>
<g id="a_edge5&#45;label"><a xlink:title="Output Expressions: &#10; (1) ps_partkey&#10; (2) ps_suppkey&#10;&#10;Unique Column Combinations: &#10; (1) {ps_partkey, ps_suppkey}&#10;&#10;Functional Dependencies (trivial): &#10; &lt;none&gt;&#10;&#10;Functional Dependencies (non&#45;trivial): &#10; &lt;none&gt;">
<text text-anchor="middle" x="569" y="-1409.8" font-family="Times,serif" font-size="14.00" fill="white"> 251.5 row(s) | 100.0% estd.</text>
</a>
</g>
</g>
<!-- 140256886899024 -->
<g id="node7" class="node">
<title>140256886899024</title>
<polygon fill="none" stroke="white" points="613,-1301 285,-1301 285,-1263 613,-1263 613,-1301"/>
<text text-anchor="middle" x="449" y="-1285.8" font-family="Times,serif" font-size="14.00" fill="white">[Join] Mode: Semi [p_partkey = ps_partkey]</text>
<text text-anchor="middle" x="449" y="-1270.8" font-family="Times,serif" font-size="14.00" fill="white">(SemiJoinReductionRule)</text>
</g>
<!-- 140256886899024&#45;&gt;140256809925776 -->
<g id="edge6" class="edge">
<title>140256886899024&#45;&gt;140256809925776</title>
<path fill="none" stroke="white" d="M449,-1301.24C449,-1313.07 449,-1328.68 449,-1341.95"/>
<polygon fill="white" stroke="white" points="445.5,-1341.96 449,-1351.96 452.5,-1341.96 445.5,-1341.96"/>
<g id="a_edge6&#45;label"><a xlink:title="Output Expressions: &#10; (1) ps_partkey&#10; (2) ps_suppkey&#10;&#10;Unique Column Combinations: &#10; (1) {ps_partkey, ps_suppkey}&#10;&#10;Functional Dependencies (trivial): &#10; &lt;none&gt;&#10;&#10;Functional Dependencies (non&#45;trivial): &#10; &lt;none&gt;">
<text text-anchor="middle" x="541" y="-1322.8" font-family="Times,serif" font-size="14.00" fill="white"> 251.5 row(s) | 0.0% estd.</text>
</a>
</g>
</g>
<!-- 140256783532240 -->
<g id="node8" class="node">
<title>140256783532240</title>
<polygon fill="none" stroke="white" points="346,-1212 0,-1212 0,-1174 346,-1174 346,-1212"/>
<text text-anchor="middle" x="173" y="-1196.8" font-family="Times,serif" font-size="14.00" fill="white">[StoredTable] Name: &#39;partsupp&#39; pruned: 0/123</text>
<text text-anchor="middle" x="173" y="-1181.8" font-family="Times,serif" font-size="14.00" fill="white">chunk(s), 3/5 column(s)</text>
</g>
<!-- 140256783532240&#45;&gt;140256886899024 -->
<g id="edge7" class="edge">
<title>140256783532240&#45;&gt;140256886899024</title>
<path fill="none" stroke="white" stroke-width="8" d="M219.65,-1212.02C246.96,-1222.28 282.21,-1235.03 314,-1245 331.09,-1250.36 349.55,-1255.62 367.17,-1260.39"/>
<polygon fill="white" stroke="white" stroke-width="8" points="367.2,-1260.4 365.38,-1267.16 376.85,-1263 367.2,-1260.4"/>
<g id="a_edge7&#45;label"><a xlink:title="Output Expressions: &#10; (1) ps_partkey&#10; (2) ps_suppkey&#10;&#10;Unique Column Combinations: &#10; (1) {ps_partkey, ps_suppkey}&#10;&#10;Functional Dependencies (trivial): &#10; &lt;none&gt;&#10;&#10;Functional Dependencies (non&#45;trivial): &#10; &lt;none&gt;">
<text text-anchor="middle" x="437.5" y="-1233.8" font-family="Times,serif" font-size="14.00" fill="white"> 8,000,000.0 row(s) | 100.0% estd.</text>
</a>
</g>
</g>
<!-- 140256886898064 -->
<g id="node9" class="node">
<title>140256886898064</title>
<polygon fill="none" stroke="white" points="1095.5,-1211 916.5,-1211 916.5,-1175 1095.5,-1175 1095.5,-1211"/>
<text text-anchor="middle" x="1006" y="-1189.3" font-family="Times,serif" font-size="14.00" fill="white">[UnionNode] Mode: All</text>
</g>
<!-- 140256886898064&#45;&gt;140256886904784 -->
<g id="edge9" class="edge">
<title>140256886898064&#45;&gt;140256886904784</title>
<path fill="none" stroke="white" d="M1010.43,-1211.2C1014.53,-1228.66 1020,-1256.52 1020,-1281 1020,-1281 1020,-1281 1020,-1459 1020,-1482.51 1022.19,-1492.96 1006,-1510 1001.25,-1515 995.76,-1519.29 989.85,-1522.97"/>
<polygon fill="white" stroke="white" points="980.9,-1527.93 991.35,-1526.14 989.65,-1523.08 980.9,-1527.93"/>
<g id="a_edge9&#45;label"><a xlink:title="Output Expressions: &#10; (1) p_partkey&#10; (2) p_brand&#10; (3) p_type&#10; (4) p_size&#10;&#10;Unique Column Combinations: &#10; &lt;none&gt;&#10;&#10;Functional Dependencies (trivial): &#10; &lt;none&gt;&#10;&#10;Functional Dependencies (non&#45;trivial): &#10; (1) {p_partkey} =&gt; {p_brand, p_type, p_size}&#10;">
<text text-anchor="middle" x="1119" y="-1366.3" font-family="Times,serif" font-size="14.00" fill="white"> 4,591.2 row(s) | 0.2% estd.</text>
</a>
</g>
</g>
<!-- 140256886898064&#45;&gt;140256886899024 -->
<g id="edge8" class="edge">
<title>140256886898064&#45;&gt;140256886899024</title>
<path fill="none" stroke="white" d="M916.18,-1202.64C881.52,-1207.94 842.08,-1216.43 808,-1230 796.66,-1234.51 796.5,-1240.9 785,-1245 782.86,-1245.76 704.33,-1254.19 623.73,-1262.71"/>
<polygon fill="white" stroke="white" points="613.39,-1263.8 623.7,-1266.23 623.33,-1262.75 613.39,-1263.8"/>
<g id="a_edge8&#45;label"><a xlink:title="Output Expressions: &#10; (1) p_partkey&#10; (2) p_brand&#10; (3) p_type&#10; (4) p_size&#10;&#10;Unique Column Combinations: &#10; &lt;none&gt;&#10;&#10;Functional Dependencies (trivial): &#10; &lt;none&gt;&#10;&#10;Functional Dependencies (non&#45;trivial): &#10; (1) {p_partkey} =&gt; {p_brand, p_type, p_size}&#10;">
<text text-anchor="middle" x="907" y="-1233.8" font-family="Times,serif" font-size="14.00" fill="white"> 4,591.2 row(s) | 0.2% estd.</text>
</a>
</g>
</g>
<!-- 140256886897872 -->
<g id="node10" class="node">
<title>140256886897872</title>
<polygon fill="none" stroke="white" points="1129.5,-1122 812.5,-1122 812.5,-1086 1129.5,-1086 1129.5,-1122"/>
<text text-anchor="middle" x="971" y="-1100.3" font-family="Times,serif" font-size="14.00" fill="white">[Predicate] p_type &lt; &#39;ECONOMY PLATED&#39;</text>
</g>
<!-- 140256886897872&#45;&gt;140256886898064 -->
<g id="edge10" class="edge">
<title>140256886897872&#45;&gt;140256886898064</title>
<path fill="none" stroke="white" d="M977.91,-1122.19C982.85,-1134.46 989.59,-1151.21 995.23,-1165.23"/>
<polygon fill="white" stroke="white" points="995.37,-1165.57 992.12,-1166.88 999.1,-1174.85 995.37,-1165.57"/>
<g id="a_edge10&#45;label"><a xlink:title="Output Expressions: &#10; (1) p_partkey&#10; (2) p_brand&#10; (3) p_type&#10; (4) p_size&#10;&#10;Unique Column Combinations: &#10; &lt;none&gt;&#10;&#10;Functional Dependencies (trivial): &#10; &lt;none&gt;&#10;&#10;Functional Dependencies (non&#45;trivial): &#10; (1) {p_partkey} =&gt; {p_brand, p_type, p_size}&#10;">
<text text-anchor="middle" x="1082" y="-1144.8" font-family="Times,serif" font-size="14.00" fill="white"> 506.5 row(s) | 1.3% estd.</text>
</a>
</g>
</g>
<!-- 140256809927856 -->
<g id="node11" class="node">
<title>140256809927856</title>
<polygon fill="none" stroke="white" points="1183.5,-1034 1098.5,-1034 1098.5,-998 1183.5,-998 1183.5,-1034"/>
<text text-anchor="middle" x="1141" y="-1012.3" font-family="Times,serif" font-size="14.00" fill="white">[Validate]</text>
</g>
<!-- 140256809927856&#45;&gt;140256886897872 -->
<g id="edge11" class="edge">
<title>140256809927856&#45;&gt;140256886897872</title>
<path fill="none" stroke="white" d="M1098.5,-1028.84C1080.28,-1034.67 1059.08,-1042.51 1041,-1052 1026.4,-1059.66 1011.45,-1070.12 999.15,-1079.57"/>
<polygon fill="white" stroke="white" points="996.78,-1076.98 991.08,-1085.91 1001.11,-1082.48 996.78,-1076.98"/>
<g id="a_edge11&#45;label"><a xlink:title="Output Expressions: &#10; (1) p_partkey&#10; (2) p_brand&#10; (3) p_type&#10; (4) p_size&#10;&#10;Unique Column Combinations: &#10; &lt;none&gt;&#10;&#10;Functional Dependencies (trivial): &#10; &lt;none&gt;&#10;&#10;Functional Dependencies (non&#45;trivial): &#10; (1) {p_partkey} =&gt; {p_brand, p_type, p_size}&#10;">
<text text-anchor="middle" x="1153.5" y="-1055.8" font-family="Times,serif" font-size="14.00" fill="white"> 38,006.9 row(s) | 100.0% estd.</text>
</a>
</g>
</g>
<!-- 140256886897296 -->
<g id="node29" class="node">
<title>140256886897296</title>
<polygon fill="none" stroke="white" points="1476.5,-1122 1147.5,-1122 1147.5,-1086 1476.5,-1086 1476.5,-1122"/>
<text text-anchor="middle" x="1312" y="-1100.3" font-family="Times,serif" font-size="14.00" fill="white">[Predicate] p_type &gt;= &#39;ECONOMY PLATEE&#39;</text>
</g>
<!-- 140256809927856&#45;&gt;140256886897296 -->
<g id="edge12" class="edge">
<title>140256809927856&#45;&gt;140256886897296</title>
<path fill="none" stroke="white" d="M1183.65,-1022.81C1209.01,-1027.71 1241,-1036.5 1266,-1052 1276.66,-1058.61 1286.33,-1068.4 1294.02,-1077.64"/>
<polygon fill="white" stroke="white" points="1291.3,-1079.84 1300.24,-1085.52 1296.79,-1075.5 1291.3,-1079.84"/>
<g id="a_edge12&#45;label"><a xlink:title="Output Expressions: &#10; (1) p_partkey&#10; (2) p_brand&#10; (3) p_type&#10; (4) p_size&#10;&#10;Unique Column Combinations: &#10; &lt;none&gt;&#10;&#10;Functional Dependencies (trivial): &#10; &lt;none&gt;&#10;&#10;Functional Dependencies (non&#45;trivial): &#10; (1) {p_partkey} =&gt; {p_brand, p_type, p_size}&#10;">
<text text-anchor="middle" x="1395.5" y="-1055.8" font-family="Times,serif" font-size="14.00" fill="white"> 38,006.9 row(s) | 100.0% estd.</text>
</a>
</g>
</g>
<!-- 140256886899600 -->
<g id="node12" class="node">
<title>140256886899600</title>
<polygon fill="none" stroke="white" points="1274,-947 1008,-947 1008,-911 1274,-911 1274,-947"/>
<text text-anchor="middle" x="1141" y="-925.3" font-family="Times,serif" font-size="14.00" fill="white">[Predicate] p_brand != &#39;Brand#33&#39;</text>
</g>
<!-- 140256886899600&#45;&gt;140256809927856 -->
<g id="edge13" class="edge">
<title>140256886899600&#45;&gt;140256809927856</title>
<path fill="none" stroke="white" d="M1141,-947.2C1141,-958.84 1141,-974.45 1141,-987.76"/>
<polygon fill="white" stroke="white" points="1137.5,-987.82 1141,-997.82 1144.5,-987.82 1137.5,-987.82"/>
<g id="a_edge13&#45;label"><a xlink:title="Output Expressions: &#10; (1) p_partkey&#10; (2) p_brand&#10; (3) p_type&#10; (4) p_size&#10;&#10;Unique Column Combinations: &#10; &lt;none&gt;&#10;&#10;Functional Dependencies (trivial): &#10; &lt;none&gt;&#10;&#10;Functional Dependencies (non&#45;trivial): &#10; (1) {p_partkey} =&gt; {p_brand, p_type, p_size}&#10;">
<text text-anchor="middle" x="1249" y="-968.8" font-family="Times,serif" font-size="14.00" fill="white"> 38,006.9 row(s) | 11.9% estd.</text>
</a>
</g>
</g>
<!-- 140256886906704 -->
<g id="node13" class="node">
<title>140256886906704</title>
<polygon fill="none" stroke="white" points="1230.5,-860 1051.5,-860 1051.5,-824 1230.5,-824 1230.5,-860"/>
<text text-anchor="middle" x="1141" y="-838.3" font-family="Times,serif" font-size="14.00" fill="white">[UnionNode] Mode: All</text>
</g>
<!-- 140256886906704&#45;&gt;140256886899600 -->
<g id="edge14" class="edge">
<title>140256886906704&#45;&gt;140256886899600</title>
<path fill="none" stroke="white" d="M1141,-860.2C1141,-871.84 1141,-887.45 1141,-900.76"/>
<polygon fill="white" stroke="white" points="1137.5,-900.82 1141,-910.82 1144.5,-900.82 1137.5,-900.82"/>
<g id="a_edge14&#45;label"><a xlink:title="Output Expressions: &#10; (1) p_partkey&#10; (2) p_brand&#10; (3) p_type&#10; (4) p_size&#10;&#10;Unique Column Combinations: &#10; &lt;none&gt;&#10;&#10;Functional Dependencies (trivial): &#10; &lt;none&gt;&#10;&#10;Functional Dependencies (non&#45;trivial): &#10; (1) {p_partkey} =&gt; {p_brand, p_type, p_size}&#10;">
<text text-anchor="middle" x="1249" y="-881.8" font-family="Times,serif" font-size="14.00" fill="white"> 319,029.0 row(s) | 0.0% estd.</text>
</a>
</g>
</g>
<!-- 140256886906512 -->
<g id="node14" class="node">
<title>140256886906512</title>
<polygon fill="none" stroke="white" points="1075.5,-773 896.5,-773 896.5,-737 1075.5,-737 1075.5,-773"/>
<text text-anchor="middle" x="986" y="-751.3" font-family="Times,serif" font-size="14.00" fill="white">[UnionNode] Mode: All</text>
</g>
<!-- 140256886906512&#45;&gt;140256886906704 -->
<g id="edge15" class="edge">
<title>140256886906512&#45;&gt;140256886906704</title>
<path fill="none" stroke="white" d="M1017.37,-773.2C1041.5,-786.44 1075.02,-804.82 1101.07,-819.1"/>
<polygon fill="white" stroke="white" points="1101.18,-819.16 1099.49,-822.23 1109.94,-823.97 1101.18,-819.16"/>
<g id="a_edge15&#45;label"><a xlink:title="Output Expressions: &#10; (1) p_partkey&#10; (2) p_brand&#10; (3) p_type&#10; (4) p_size&#10;&#10;Unique Column Combinations: &#10; &lt;none&gt;&#10;&#10;Functional Dependencies (trivial): &#10; &lt;none&gt;&#10;&#10;Functional Dependencies (non&#45;trivial): &#10; (1) {p_partkey} =&gt; {p_brand, p_type, p_size}&#10;">
<text text-anchor="middle" x="1180" y="-794.8" font-family="Times,serif" font-size="14.00" fill="white"> 279,020.0 row(s) | 0.0% estd.</text>
</a>
</g>
</g>
<!-- 140256886906320 -->
<g id="node15" class="node">
<title>140256886906320</title>
<polygon fill="none" stroke="white" points="1075.5,-665 896.5,-665 896.5,-629 1075.5,-629 1075.5,-665"/>
<text text-anchor="middle" x="986" y="-643.3" font-family="Times,serif" font-size="14.00" fill="white">[UnionNode] Mode: All</text>
</g>
<!-- 140256886906320&#45;&gt;140256886906512 -->
<g id="edge16" class="edge">
<title>140256886906320&#45;&gt;140256886906512</title>
<path fill="none" stroke="white" d="M986,-665.03C986,-681.62 986,-707.12 986,-726.57"/>
<polygon fill="white" stroke="white" points="986,-726.66 982.5,-726.66 986,-736.66 986,-726.66"/>
<g id="a_edge16&#45;label"><a xlink:title="Output Expressions: &#10; (1) p_partkey&#10; (2) p_brand&#10; (3) p_type&#10; (4) p_size&#10;&#10;Unique Column Combinations: &#10; &lt;none&gt;&#10;&#10;Functional Dependencies (trivial): &#10; &lt;none&gt;&#10;&#10;Functional Dependencies (non&#45;trivial): &#10; (1) {p_partkey} =&gt; {p_brand, p_type, p_size}&#10;">
<text text-anchor="middle" x="1094" y="-697.3" font-family="Times,serif" font-size="14.00" fill="white"> 239,107.0 row(s) | 0.0% estd.</text>
</a>
</g>
</g>
<!-- 140256886906128 -->
<g id="node16" class="node">
<title>140256886906128</title>
<polygon fill="none" stroke="white" points="1407.5,-557 1228.5,-557 1228.5,-521 1407.5,-521 1407.5,-557"/>
<text text-anchor="middle" x="1318" y="-535.3" font-family="Times,serif" font-size="14.00" fill="white">[UnionNode] Mode: All</text>
</g>
<!-- 140256886906128&#45;&gt;140256886906320 -->
<g id="edge17" class="edge">
<title>140256886906128&#45;&gt;140256886906320</title>
<path fill="none" stroke="white" d="M1264.66,-557.03C1205.94,-575.78 1111.6,-605.9 1049.21,-625.82"/>
<polygon fill="white" stroke="white" points="1049.01,-625.88 1047.95,-622.55 1039.48,-628.92 1049.01,-625.88"/>
<g id="a_edge17&#45;label"><a xlink:title="Output Expressions: &#10; (1) p_partkey&#10; (2) p_brand&#10; (3) p_type&#10; (4) p_size&#10;&#10;Unique Column Combinations: &#10; &lt;none&gt;&#10;&#10;Functional Dependencies (trivial): &#10; &lt;none&gt;&#10;&#10;Functional Dependencies (non&#45;trivial): &#10; (1) {p_partkey} =&gt; {p_brand, p_type, p_size}&#10;">
<text text-anchor="middle" x="1309" y="-589.3" font-family="Times,serif" font-size="14.00" fill="white"> 199,177.0 row(s) | 0.0% estd.</text>
</a>
</g>
</g>
<!-- 140256886905936 -->
<g id="node17" class="node">
<title>140256886905936</title>
<polygon fill="none" stroke="white" points="1407.5,-449 1228.5,-449 1228.5,-413 1407.5,-413 1407.5,-449"/>
<text text-anchor="middle" x="1318" y="-427.3" font-family="Times,serif" font-size="14.00" fill="white">[UnionNode] Mode: All</text>
</g>
<!-- 140256886905936&#45;&gt;140256886906128 -->
<g id="edge18" class="edge">
<title>140256886905936&#45;&gt;140256886906128</title>
<path fill="none" stroke="white" d="M1318,-449.03C1318,-465.62 1318,-491.12 1318,-510.57"/>
<polygon fill="white" stroke="white" points="1318,-510.66 1314.5,-510.66 1318,-520.66 1318,-510.66"/>
<g id="a_edge18&#45;label"><a xlink:title="Output Expressions: &#10; (1) p_partkey&#10; (2) p_brand&#10; (3) p_type&#10; (4) p_size&#10;&#10;Unique Column Combinations: &#10; &lt;none&gt;&#10;&#10;Functional Dependencies (trivial): &#10; &lt;none&gt;&#10;&#10;Functional Dependencies (non&#45;trivial): &#10; (1) {p_partkey} =&gt; {p_brand, p_type, p_size}&#10;">
<text text-anchor="middle" x="1426" y="-481.3" font-family="Times,serif" font-size="14.00" fill="white"> 159,206.0 row(s) | 0.0% estd.</text>
</a>
</g>
</g>
<!-- 140256886905744 -->
<g id="node18" class="node">
<title>140256886905744</title>
<polygon fill="none" stroke="white" points="1292.5,-341 1113.5,-341 1113.5,-305 1292.5,-305 1292.5,-341"/>
<text text-anchor="middle" x="1203" y="-319.3" font-family="Times,serif" font-size="14.00" fill="white">[UnionNode] Mode: All</text>
</g>
<!-- 140256886905744&#45;&gt;140256886905936 -->
<g id="edge19" class="edge">
<title>140256886905744&#45;&gt;140256886905936</title>
<path fill="none" stroke="white" d="M1198.35,-341.02C1195.17,-356.66 1193.37,-379.68 1205,-395 1209.17,-400.5 1214.19,-405.15 1219.77,-409.09"/>
<polygon fill="white" stroke="white" points="1219.8,-409.11 1217.96,-412.09 1228.31,-414.37 1219.8,-409.11"/>
<g id="a_edge19&#45;label"><a xlink:title="Output Expressions: &#10; (1) p_partkey&#10; (2) p_brand&#10; (3) p_type&#10; (4) p_size&#10;&#10;Unique Column Combinations: &#10; &lt;none&gt;&#10;&#10;Functional Dependencies (trivial): &#10; &lt;none&gt;&#10;&#10;Functional Dependencies (non&#45;trivial): &#10; (1) {p_partkey} =&gt; {p_brand, p_type, p_size}&#10;">
<text text-anchor="middle" x="1313" y="-373.3" font-family="Times,serif" font-size="14.00" fill="white"> 119,631.0 row(s) | 0.0% estd.</text>
</a>
</g>
</g>
<!-- 140256886905552 -->
<g id="node19" class="node">
<title>140256886905552</title>
<polygon fill="none" stroke="white" points="1053.5,-233 874.5,-233 874.5,-197 1053.5,-197 1053.5,-233"/>
<text text-anchor="middle" x="964" y="-211.3" font-family="Times,serif" font-size="14.00" fill="white">[UnionNode] Mode: All</text>
</g>
<!-- 140256886905552&#45;&gt;140256886905744 -->
<g id="edge20" class="edge">
<title>140256886905552&#45;&gt;140256886905744</title>
<path fill="none" stroke="white" d="M963.37,-233.29C963.78,-249.58 967.16,-273.46 982,-287 999.98,-303.41 1053.35,-312.15 1103.14,-316.78"/>
<polygon fill="white" stroke="white" points="1103.4,-316.81 1103.09,-320.29 1113.36,-317.68 1103.4,-316.81"/>
<g id="a_edge20&#45;label"><a xlink:title="Output Expressions: &#10; (1) p_partkey&#10; (2) p_brand&#10; (3) p_type&#10; (4) p_size&#10;&#10;Unique Column Combinations: &#10; &lt;none&gt;&#10;&#10;Functional Dependencies (trivial): &#10; &lt;none&gt;&#10;&#10;Functional Dependencies (non&#45;trivial): &#10; (1) {p_partkey} =&gt; {p_brand, p_type, p_size}&#10;">
<text text-anchor="middle" x="1085.5" y="-265.3" font-family="Times,serif" font-size="14.00" fill="white"> 79,634.0 row(s) | 0.0% estd.</text>
</a>
</g>
</g>
<!-- 140256886898832 -->
<g id="node20" class="node">
<title>140256886898832</title>
<polygon fill="none" stroke="white" points="819,-125 637,-125 637,-89 819,-89 819,-125"/>
<text text-anchor="middle" x="728" y="-103.3" font-family="Times,serif" font-size="14.00" fill="white">[Predicate] p_size = 45</text>
</g>
<!-- 140256886898832&#45;&gt;140256886905552 -->
<g id="edge21" class="edge">
<title>140256886898832&#45;&gt;140256886905552</title>
<path fill="none" stroke="white" d="M720.25,-125.09C714.35,-141.01 709.19,-164.41 722,-179 742.41,-202.24 829.4,-192.5 860,-197 861.47,-197.22 862.95,-197.44 864.44,-197.66"/>
<polygon fill="white" stroke="white" points="864.51,-197.67 863.99,-201.13 874.4,-199.16 864.51,-197.67"/>
<g id="a_edge21&#45;label"><a xlink:title="Output Expressions: &#10; (1) p_partkey&#10; (2) p_brand&#10; (3) p_type&#10; (4) p_size&#10;&#10;Unique Column Combinations: &#10; (1) {p_partkey}&#10;&#10;Functional Dependencies (trivial): &#10; (1) {p_partkey} =&gt; {p_brand, p_type, p_size}&#10;&#10;Functional Dependencies (non&#45;trivial): &#10; &lt;none&gt;">
<text text-anchor="middle" x="825.5" y="-157.3" font-family="Times,serif" font-size="14.00" fill="white"> 39,601.0 row(s) | 2.0% estd.</text>
</a>
</g>
</g>
<!-- 140256783532560 -->
<g id="node21" class="node">
<title>140256783532560</title>
<polygon fill="none" stroke="white" points="1233,-38 861,-38 861,0 1233,0 1233,-38"/>
<text text-anchor="middle" x="1047" y="-22.8" font-family="Times,serif" font-size="14.00" fill="white">[StoredTable] Name: &#39;part&#39; pruned: 0/31 chunk(s),</text>
<text text-anchor="middle" x="1047" y="-7.8" font-family="Times,serif" font-size="14.00" fill="white">5/9 column(s)</text>
</g>
<!-- 140256783532560&#45;&gt;140256886898832 -->
<g id="edge22" class="edge">
<title>140256783532560&#45;&gt;140256886898832</title>
<path fill="none" stroke="white" stroke-width="4.58" d="M861,-26.1C768.17,-31.12 672.49,-40.1 658,-56 648.43,-66.5 655.64,-76.1 668.49,-84.03"/>
<polygon fill="white" stroke="white" stroke-width="4.58" points="666.92,-87.74 677.62,-88.98 670.74,-80.69 666.92,-87.74"/>
<g id="a_edge22&#45;label"><a xlink:title="Output Expressions: &#10; (1) p_partkey&#10; (2) p_brand&#10; (3) p_type&#10; (4) p_size&#10;&#10;Unique Column Combinations: &#10; (1) {p_partkey}&#10;&#10;Functional Dependencies (trivial): &#10; (1) {p_partkey} =&gt; {p_brand, p_type, p_size}&#10;&#10;Functional Dependencies (non&#45;trivial): &#10; &lt;none&gt;">
<text text-anchor="middle" x="781.5" y="-59.8" font-family="Times,serif" font-size="14.00" fill="white"> 2,000,000.0 row(s) | 100.0% estd.</text>
</a>
</g>
</g>
<!-- 140256886899792 -->
<g id="node22" class="node">
<title>140256886899792</title>
<polygon fill="none" stroke="white" points="1027,-125 845,-125 845,-89 1027,-89 1027,-125"/>
<text text-anchor="middle" x="936" y="-103.3" font-family="Times,serif" font-size="14.00" fill="white">[Predicate] p_size = 27</text>
</g>
<!-- 140256783532560&#45;&gt;140256886899792 -->
<g id="edge23" class="edge">
<title>140256783532560&#45;&gt;140256886899792</title>
<path fill="none" stroke="white" stroke-width="4.58" d="M948.01,-38.09C931.73,-43.02 918.39,-48.97 913,-56 907.45,-63.24 909.24,-72.03 913.66,-80.21"/>
<polygon fill="white" stroke="white" stroke-width="4.58" points="910.43,-82.6 919.28,-88.75 917.13,-78.19 910.43,-82.6"/>
<g id="a_edge23&#45;label"><a xlink:title="Output Expressions: &#10; (1) p_partkey&#10; (2) p_brand&#10; (3) p_type&#10; (4) p_size&#10;&#10;Unique Column Combinations: &#10; (1) {p_partkey}&#10;&#10;Functional Dependencies (trivial): &#10; (1) {p_partkey} =&gt; {p_brand, p_type, p_size}&#10;&#10;Functional Dependencies (non&#45;trivial): &#10; &lt;none&gt;">
<text text-anchor="middle" x="1036.5" y="-59.8" font-family="Times,serif" font-size="14.00" fill="white"> 2,000,000.0 row(s) | 100.0% estd.</text>
</a>
</g>
</g>
<!-- 140256886897680 -->
<g id="node23" class="node">
<title>140256886897680</title>
<polygon fill="none" stroke="white" points="1337,-179 1155,-179 1155,-143 1337,-143 1337,-179"/>
<text text-anchor="middle" x="1246" y="-157.3" font-family="Times,serif" font-size="14.00" fill="white">[Predicate] p_size = 20</text>
</g>
<!-- 140256783532560&#45;&gt;140256886897680 -->
<g id="edge24" class="edge">
<title>140256783532560&#45;&gt;140256886897680</title>
<path fill="none" stroke="white" stroke-width="4.58" d="M1124.21,-38.04C1136.75,-42.78 1149.17,-48.68 1160,-56 1190.16,-76.38 1215.39,-110.33 1230.57,-133.87"/>
<polygon fill="white" stroke="white" stroke-width="4.58" points="1227.36,-136.3 1236.06,-142.64 1234.15,-132.04 1227.36,-136.3"/>
<g id="a_edge24&#45;label"><a xlink:title="Output Expressions: &#10; (1) p_partkey&#10; (2) p_brand&#10; (3) p_type&#10; (4) p_size&#10;&#10;Unique Column Combinations: &#10; (1) {p_partkey}&#10;&#10;Functional Dependencies (trivial): &#10; (1) {p_partkey} =&gt; {p_brand, p_type, p_size}&#10;&#10;Functional Dependencies (non&#45;trivial): &#10; &lt;none&gt;">
<text text-anchor="middle" x="1301.5" y="-59.8" font-family="Times,serif" font-size="14.00" fill="white"> 2,000,000.0 row(s) | 100.0% estd.</text>
</a>
</g>
</g>
<!-- 140255253493072 -->
<g id="node24" class="node">
<title>140255253493072</title>
<polygon fill="none" stroke="white" points="1527,-287 1345,-287 1345,-251 1527,-251 1527,-287"/>
<text text-anchor="middle" x="1436" y="-265.3" font-family="Times,serif" font-size="14.00" fill="white">[Predicate] p_size = 15</text>
</g>
<!-- 140256783532560&#45;&gt;140255253493072 -->
<g id="edge25" class="edge">
<title>140256783532560&#45;&gt;140255253493072</title>
<path fill="none" stroke="white" stroke-width="4.58" d="M1233.24,-26.71C1323.14,-31.88 1414.72,-40.82 1429,-56 1453.38,-81.92 1444.94,-189.52 1439.34,-240.71"/>
<polygon fill="white" stroke="white" stroke-width="4.58" points="1435.35,-240.33 1438.2,-250.72 1443.31,-241.24 1435.35,-240.33"/>
<g id="a_edge25&#45;label"><a xlink:title="Output Expressions: &#10; (1) p_partkey&#10; (2) p_brand&#10; (3) p_type&#10; (4) p_size&#10;&#10;Unique Column Combinations: &#10; (1) {p_partkey}&#10;&#10;Functional Dependencies (trivial): &#10; (1) {p_partkey} =&gt; {p_brand, p_type, p_size}&#10;&#10;Functional Dependencies (non&#45;trivial): &#10; &lt;none&gt;">
<text text-anchor="middle" x="1568.5" y="-103.3" font-family="Times,serif" font-size="14.00" fill="white"> 2,000,000.0 row(s) | 100.0% estd.</text>
</a>
</g>
</g>
<!-- 140256886899984 -->
<g id="node25" class="node">
<title>140256886899984</title>
<polygon fill="none" stroke="white" points="1763,-395 1581,-395 1581,-359 1763,-359 1763,-395"/>
<text text-anchor="middle" x="1672" y="-373.3" font-family="Times,serif" font-size="14.00" fill="white">[Predicate] p_size = 26</text>
</g>
<!-- 140256783532560&#45;&gt;140256886899984 -->
<g id="edge26" class="edge">
<title>140256783532560&#45;&gt;140256886899984</title>
<path fill="none" stroke="white" stroke-width="4.58" d="M1233.4,-26.35C1430.43,-35.62 1713,-57.4 1713,-106 1713,-106 1713,-106 1713,-270 1713,-298.75 1699.72,-329.1 1688.28,-349.93"/>
<polygon fill="white" stroke="white" stroke-width="4.58" points="1684.7,-348.12 1683.2,-358.79 1691.65,-352.1 1684.7,-348.12"/>
<g id="a_edge26&#45;label"><a xlink:title="Output Expressions: &#10; (1) p_partkey&#10; (2) p_brand&#10; (3) p_type&#10; (4) p_size&#10;&#10;Unique Column Combinations: &#10; (1) {p_partkey}&#10;&#10;Functional Dependencies (trivial): &#10; (1) {p_partkey} =&gt; {p_brand, p_type, p_size}&#10;&#10;Functional Dependencies (non&#45;trivial): &#10; &lt;none&gt;">
<text text-anchor="middle" x="1836.5" y="-157.3" font-family="Times,serif" font-size="14.00" fill="white"> 2,000,000.0 row(s) | 100.0% estd.</text>
</a>
</g>
</g>
<!-- 140256886904976 -->
<g id="node26" class="node">
<title>140256886904976</title>
<polygon fill="none" stroke="white" points="850.5,-503 677.5,-503 677.5,-467 850.5,-467 850.5,-503"/>
<text text-anchor="middle" x="764" y="-481.3" font-family="Times,serif" font-size="14.00" fill="white">[Predicate] p_size = 9</text>
</g>
<!-- 140256783532560&#45;&gt;140256886904976 -->
<g id="edge27" class="edge">
<title>140256783532560&#45;&gt;140256886904976</title>
<path fill="none" stroke="white" stroke-width="4.58" d="M860.95,-22.97C775.78,-27.11 685.74,-36.25 649,-56 623.93,-69.47 609,-77.54 609,-106 609,-106 609,-106 609,-378 609,-420.56 649.3,-447.27 688.8,-463.24"/>
<polygon fill="white" stroke="white" stroke-width="4.58" points="687.49,-467.03 698.27,-466.87 690.37,-459.55 687.49,-467.03"/>
<g id="a_edge27&#45;label"><a xlink:title="Output Expressions: &#10; (1) p_partkey&#10; (2) p_brand&#10; (3) p_type&#10; (4) p_size&#10;&#10;Unique Column Combinations: &#10; (1) {p_partkey}&#10;&#10;Functional Dependencies (trivial): &#10; (1) {p_partkey} =&gt; {p_brand, p_type, p_size}&#10;&#10;Functional Dependencies (non&#45;trivial): &#10; &lt;none&gt;">
<text text-anchor="middle" x="732.5" y="-211.3" font-family="Times,serif" font-size="14.00" fill="white"> 2,000,000.0 row(s) | 100.0% estd.</text>
</a>
</g>
</g>
<!-- 140256886905360 -->
<g id="node27" class="node">
<title>140256886905360</title>
<polygon fill="none" stroke="white" points="498,-611 316,-611 316,-575 498,-575 498,-611"/>
<text text-anchor="middle" x="407" y="-589.3" font-family="Times,serif" font-size="14.00" fill="white">[Predicate] p_size = 14</text>
</g>
<!-- 140256783532560&#45;&gt;140256886905360 -->
<g id="edge28" class="edge">
<title>140256783532560&#45;&gt;140256886905360</title>
<path fill="none" stroke="white" stroke-width="4.58" d="M860.79,-25.07C653.42,-33.27 347,-54.15 347,-106 347,-106 347,-106 347,-486 347,-516.85 366.49,-546.97 383.25,-567.16"/>
<polygon fill="white" stroke="white" stroke-width="4.58" points="380.39,-569.99 389.97,-574.92 386.45,-564.74 380.39,-569.99"/>
<g id="a_edge28&#45;label"><a xlink:title="Output Expressions: &#10; (1) p_partkey&#10; (2) p_brand&#10; (3) p_type&#10; (4) p_size&#10;&#10;Unique Column Combinations: &#10; (1) {p_partkey}&#10;&#10;Functional Dependencies (trivial): &#10; (1) {p_partkey} =&gt; {p_brand, p_type, p_size}&#10;&#10;Functional Dependencies (non&#45;trivial): &#10; &lt;none&gt;">
<text text-anchor="middle" x="470.5" y="-265.3" font-family="Times,serif" font-size="14.00" fill="white"> 2,000,000.0 row(s) | 100.0% estd.</text>
</a>
</g>
</g>
<!-- 140256886905168 -->
<g id="node28" class="node">
<title>140256886905168</title>
<polygon fill="none" stroke="white" points="1724,-719 1542,-719 1542,-683 1724,-683 1724,-719"/>
<text text-anchor="middle" x="1633" y="-697.3" font-family="Times,serif" font-size="14.00" fill="white">[Predicate] p_size = 44</text>
</g>
<!-- 140256783532560&#45;&gt;140256886905168 -->
<g id="edge29" class="edge">
<title>140256783532560&#45;&gt;140256886905168</title>
<path fill="none" stroke="white" stroke-width="4.58" d="M1233.12,-28.1C1504.02,-41.14 1975,-69.11 1975,-106 1975,-106 1975,-106 1975,-594 1975,-644.91 1834.99,-674.07 1734.14,-688.47"/>
<polygon fill="white" stroke="white" stroke-width="4.58" points="1733.55,-684.5 1724.2,-689.85 1734.66,-692.44 1733.55,-684.5"/>
<g id="a_edge29&#45;label"><a xlink:title="Output Expressions: &#10; (1) p_partkey&#10; (2) p_brand&#10; (3) p_type&#10; (4) p_size&#10;&#10;Unique Column Combinations: &#10; (1) {p_partkey}&#10;&#10;Functional Dependencies (trivial): &#10; (1) {p_partkey} =&gt; {p_brand, p_type, p_size}&#10;&#10;Functional Dependencies (non&#45;trivial): &#10; &lt;none&gt;">
<text text-anchor="middle" x="2098.5" y="-319.3" font-family="Times,serif" font-size="14.00" fill="white"> 2,000,000.0 row(s) | 100.0% estd.</text>
</a>
</g>
</g>
<!-- 140256886899792&#45;&gt;140256886905552 -->
<g id="edge30" class="edge">
<title>140256886899792&#45;&gt;140256886905552</title>
<path fill="none" stroke="white" d="M934.04,-125.14C932.99,-139.85 932.94,-161.38 939,-179 940.09,-182.18 941.57,-185.32 943.27,-188.34"/>
<polygon fill="white" stroke="white" points="948.85,-196.95 946.35,-186.66 943.42,-188.56 948.85,-196.95"/>
<g id="a_edge30&#45;label"><a xlink:title="Output Expressions: &#10; (1) p_partkey&#10; (2) p_brand&#10; (3) p_type&#10; (4) p_size&#10;&#10;Unique Column Combinations: &#10; (1) {p_partkey}&#10;&#10;Functional Dependencies (trivial): &#10; (1) {p_partkey} =&gt; {p_brand, p_type, p_size}&#10;&#10;Functional Dependencies (non&#45;trivial): &#10; &lt;none&gt;">
<text text-anchor="middle" x="1042.5" y="-157.3" font-family="Times,serif" font-size="14.00" fill="white"> 40,033.0 row(s) | 2.0% estd.</text>
</a>
</g>
</g>
<!-- 140256886897680&#45;&gt;140256886905744 -->
<g id="edge31" class="edge">
<title>140256886897680&#45;&gt;140256886905744</title>
<path fill="none" stroke="white" d="M1228.43,-179.18C1223.99,-184.48 1219.72,-190.61 1217,-197 1203.63,-228.48 1201.38,-268.23 1201.65,-294.35"/>
<polygon fill="white" stroke="white" points="1201.89,-304.64 1205.15,-294.56 1201.65,-294.64 1201.89,-304.64"/>
<g id="a_edge31&#45;label"><a xlink:title="Output Expressions: &#10; (1) p_partkey&#10; (2) p_brand&#10; (3) p_type&#10; (4) p_size&#10;&#10;Unique Column Combinations: &#10; (1) {p_partkey}&#10;&#10;Functional Dependencies (trivial): &#10; (1) {p_partkey} =&gt; {p_brand, p_type, p_size}&#10;&#10;Functional Dependencies (non&#45;trivial): &#10; &lt;none&gt;">
<text text-anchor="middle" x="1320.5" y="-211.3" font-family="Times,serif" font-size="14.00" fill="white"> 39,997.0 row(s) | 2.0% estd.</text>
</a>
</g>
</g>
<!-- 140255253493072&#45;&gt;140256886905936 -->
<g id="edge32" class="edge">
<title>140255253493072&#45;&gt;140256886905936</title>
<path fill="none" stroke="white" d="M1439.18,-287.12C1443.03,-313.41 1446.19,-363.93 1421,-395 1417.19,-399.7 1412.72,-403.77 1407.82,-407.3"/>
<polygon fill="white" stroke="white" points="1399.19,-412.73 1409.52,-410.36 1407.65,-407.4 1399.19,-412.73"/>
<g id="a_edge32&#45;label"><a xlink:title="Output Expressions: &#10; (1) p_partkey&#10; (2) p_brand&#10; (3) p_type&#10; (4) p_size&#10;&#10;Unique Column Combinations: &#10; (1) {p_partkey}&#10;&#10;Functional Dependencies (trivial): &#10; (1) {p_partkey} =&gt; {p_brand, p_type, p_size}&#10;&#10;Functional Dependencies (non&#45;trivial): &#10; &lt;none&gt;">
<text text-anchor="middle" x="1544.5" y="-319.3" font-family="Times,serif" font-size="14.00" fill="white"> 39,575.0 row(s) | 2.0% estd.</text>
</a>
</g>
</g>
<!-- 140256886899984&#45;&gt;140256886906128 -->
<g id="edge33" class="edge">
<title>140256886899984&#45;&gt;140256886906128</title>
<path fill="none" stroke="white" d="M1659.35,-395.1C1637.82,-422.81 1591.17,-477.04 1538,-503 1501.07,-521.03 1456.9,-530.12 1417.86,-534.59"/>
<polygon fill="white" stroke="white" points="1407.52,-535.68 1417.83,-538.11 1417.47,-534.63 1407.52,-535.68"/>
<g id="a_edge33&#45;label"><a xlink:title="Output Expressions: &#10; (1) p_partkey&#10; (2) p_brand&#10; (3) p_type&#10; (4) p_size&#10;&#10;Unique Column Combinations: &#10; (1) {p_partkey}&#10;&#10;Functional Dependencies (trivial): &#10; (1) {p_partkey} =&gt; {p_brand, p_type, p_size}&#10;&#10;Functional Dependencies (non&#45;trivial): &#10; &lt;none&gt;">
<text text-anchor="middle" x="1747.5" y="-427.3" font-family="Times,serif" font-size="14.00" fill="white"> 39,971.0 row(s) | 2.0% estd.</text>
</a>
</g>
</g>
<!-- 140256886904976&#45;&gt;140256886906320 -->
<g id="edge34" class="edge">
<title>140256886904976&#45;&gt;140256886906320</title>
<path fill="none" stroke="white" d="M787.76,-503.12C827.79,-531.98 908.74,-590.32 953.83,-622.81"/>
<polygon fill="white" stroke="white" points="962.08,-628.76 956.01,-620.07 953.96,-622.91 962.08,-628.76"/>
<g id="a_edge34&#45;label"><a xlink:title="Output Expressions: &#10; (1) p_partkey&#10; (2) p_brand&#10; (3) p_type&#10; (4) p_size&#10;&#10;Unique Column Combinations: &#10; (1) {p_partkey}&#10;&#10;Functional Dependencies (trivial): &#10; (1) {p_partkey} =&gt; {p_brand, p_type, p_size}&#10;&#10;Functional Dependencies (non&#45;trivial): &#10; &lt;none&gt;">
<text text-anchor="middle" x="963.5" y="-535.3" font-family="Times,serif" font-size="14.00" fill="white"> 39,930.0 row(s) | 2.0% estd.</text>
</a>
</g>
</g>
<!-- 140256886905360&#45;&gt;140256886906512 -->
<g id="edge35" class="edge">
<title>140256886905360&#45;&gt;140256886906512</title>
<path fill="none" stroke="white" d="M468.69,-611.05C576.85,-640.94 800.07,-702.62 914.67,-734.29"/>
<polygon fill="white" stroke="white" points="924.41,-736.98 915.71,-730.94 914.77,-734.32 924.41,-736.98"/>
<g id="a_edge35&#45;label"><a xlink:title="Output Expressions: &#10; (1) p_partkey&#10; (2) p_brand&#10; (3) p_type&#10; (4) p_size&#10;&#10;Unique Column Combinations: &#10; (1) {p_partkey}&#10;&#10;Functional Dependencies (trivial): &#10; (1) {p_partkey} =&gt; {p_brand, p_type, p_size}&#10;&#10;Functional Dependencies (non&#45;trivial): &#10; &lt;none&gt;">
<text text-anchor="middle" x="762.5" y="-643.3" font-family="Times,serif" font-size="14.00" fill="white"> 39,913.0 row(s) | 2.0% estd.</text>
</a>
</g>
</g>
<!-- 140256886905168&#45;&gt;140256886906704 -->
<g id="edge36" class="edge">
<title>140256886905168&#45;&gt;140256886906704</title>
<path fill="none" stroke="white" d="M1581.03,-719.06C1514.45,-740.64 1395.28,-778.32 1292,-806 1271.69,-811.44 1249.72,-816.82 1228.98,-821.67"/>
<polygon fill="white" stroke="white" points="1219.24,-823.94 1229.77,-825.08 1228.98,-821.67 1219.24,-823.94"/>
<g id="a_edge36&#45;label"><a xlink:title="Output Expressions: &#10; (1) p_partkey&#10; (2) p_brand&#10; (3) p_type&#10; (4) p_size&#10;&#10;Unique Column Combinations: &#10; (1) {p_partkey}&#10;&#10;Functional Dependencies (trivial): &#10; (1) {p_partkey} =&gt; {p_brand, p_type, p_size}&#10;&#10;Functional Dependencies (non&#45;trivial): &#10; &lt;none&gt;">
<text text-anchor="middle" x="1622.5" y="-751.3" font-family="Times,serif" font-size="14.00" fill="white"> 40,009.0 row(s) | 2.0% estd.</text>
</a>
</g>
</g>
<!-- 140256886897296&#45;&gt;140256886898064 -->
<g id="edge37" class="edge">
<title>140256886897296&#45;&gt;140256886898064</title>
<path fill="none" stroke="white" d="M1272.1,-1122.08C1245.75,-1132.89 1210.25,-1146.55 1178,-1156 1154.94,-1162.75 1129.8,-1168.76 1106.03,-1173.84"/>
<polygon fill="white" stroke="white" points="1095.93,-1175.96 1106.44,-1177.33 1105.72,-1173.9 1095.93,-1175.96"/>
<g id="a_edge37&#45;label"><a xlink:title="Output Expressions: &#10; (1) p_partkey&#10; (2) p_brand&#10; (3) p_type&#10; (4) p_size&#10;&#10;Unique Column Combinations: &#10; &lt;none&gt;&#10;&#10;Functional Dependencies (trivial): &#10; &lt;none&gt;&#10;&#10;Functional Dependencies (non&#45;trivial): &#10; (1) {p_partkey} =&gt; {p_brand, p_type, p_size}&#10;">
<text text-anchor="middle" x="1325.5" y="-1144.8" font-family="Times,serif" font-size="14.00" fill="white"> 4,084.7 row(s) | 10.7% estd.</text>
</a>
</g>
</g>
<!-- 140256809928976 -->
<g id="node30" class="node">
<title>140256809928976</title>
<polygon fill="none" stroke="white" points="763,-1388 585,-1388 585,-1352 763,-1352 763,-1388"/>
<text text-anchor="middle" x="674" y="-1366.3" font-family="Times,serif" font-size="14.00" fill="white">[Projection] s_suppkey</text>
</g>
<!-- 140256809928976&#45;&gt;140256886897488 -->
<g id="edge38" class="edge">
<title>140256809928976&#45;&gt;140256886897488</title>
<path fill="none" stroke="white" d="M674,-1388.4C674,-1399.94 674,-1415.35 674,-1428.64"/>
<polygon fill="white" stroke="white" points="674,-1438.73 677.5,-1428.73 674,-1428.73 674,-1438.73"/>
<g id="a_edge38&#45;label"><a xlink:title="Output Expressions: &#10; (1) s_suppkey&#10;&#10;Unique Column Combinations: &#10; (1) {s_suppkey}&#10;&#10;Functional Dependencies (trivial): &#10; &lt;none&gt;&#10;&#10;Functional Dependencies (non&#45;trivial): &#10; &lt;none&gt;">
<text text-anchor="middle" x="786.5" y="-1409.8" font-family="Times,serif" font-size="14.00" fill="white"> 10,000.0 row(s) | 100.0% estd.</text>
</a>
</g>
</g>
<!-- 140256809928816 -->
<g id="node31" class="node">
<title>140256809928816</title>
<polygon fill="none" stroke="white" points="716.5,-1300 631.5,-1300 631.5,-1264 716.5,-1264 716.5,-1300"/>
<text text-anchor="middle" x="674" y="-1278.3" font-family="Times,serif" font-size="14.00" fill="white">[Validate]</text>
</g>
<!-- 140256809928816&#45;&gt;140256809928976 -->
<g id="edge39" class="edge">
<title>140256809928816&#45;&gt;140256809928976</title>
<path fill="none" stroke="white" d="M674,-1300.4C674,-1312.25 674,-1328.18 674,-1341.71"/>
<polygon fill="white" stroke="white" points="670.5,-1341.92 674,-1351.92 677.5,-1341.92 670.5,-1341.92"/>
<g id="a_edge39&#45;label"><a xlink:title="Output Expressions: &#10; (1) s_suppkey&#10; (2) s_comment&#10;&#10;Unique Column Combinations: &#10; (1) {s_suppkey}&#10;&#10;Functional Dependencies (trivial): &#10; (1) {s_suppkey} =&gt; {s_comment}&#10;&#10;Functional Dependencies (non&#45;trivial): &#10; &lt;none&gt;">
<text text-anchor="middle" x="786.5" y="-1322.8" font-family="Times,serif" font-size="14.00" fill="white"> 10,000.0 row(s) | 100.0% estd.</text>
</a>
</g>
</g>
<!-- 140256886894992 -->
<g id="node32" class="node">
<title>140256886894992</title>
<polygon fill="none" stroke="white" points="787.5,-1211 364.5,-1211 364.5,-1175 787.5,-1175 787.5,-1211"/>
<text text-anchor="middle" x="576" y="-1189.3" font-family="Times,serif" font-size="14.00" fill="white">[Predicate] s_comment LIKE &#39;%Customer%Complaints%&#39;</text>
</g>
<!-- 140256886894992&#45;&gt;140256809928816 -->
<g id="edge40" class="edge">
<title>140256886894992&#45;&gt;140256809928816</title>
<path fill="none" stroke="white" d="M567.99,-1211.08C564.27,-1221.75 562.03,-1235.26 569,-1245 581.96,-1263.09 595.31,-1256.76 621.59,-1263.33"/>
<polygon fill="white" stroke="white" points="620.86,-1266.76 631.44,-1266.24 622.85,-1260.05 620.86,-1266.76"/>
<g id="a_edge40&#45;label"><a xlink:title="Output Expressions: &#10; (1) s_suppkey&#10; (2) s_comment&#10;&#10;Unique Column Combinations: &#10; (1) {s_suppkey}&#10;&#10;Functional Dependencies (trivial): &#10; (1) {s_suppkey} =&gt; {s_comment}&#10;&#10;Functional Dependencies (non&#45;trivial): &#10; &lt;none&gt;">
<text text-anchor="middle" x="677" y="-1233.8" font-family="Times,serif" font-size="14.00" fill="white"> 10,000.0 row(s) | 10.0% estd.</text>
</a>
</g>
</g>
<!-- 140256783533200 -->
<g id="node33" class="node">
<title>140256783533200</title>
<polygon fill="none" stroke="white" points="737,-1123 415,-1123 415,-1085 737,-1085 737,-1123"/>
<text text-anchor="middle" x="576" y="-1107.8" font-family="Times,serif" font-size="14.00" fill="white">[StoredTable] Name: &#39;supplier&#39; pruned: 0/2</text>
<text text-anchor="middle" x="576" y="-1092.8" font-family="Times,serif" font-size="14.00" fill="white">chunk(s), 5/7 column(s)</text>
</g>
<!-- 140256783533200&#45;&gt;140256886894992 -->
<g id="edge41" class="edge">
<title>140256783533200&#45;&gt;140256886894992</title>
<path fill="none" stroke="white" d="M576,-1123.03C576,-1135.04 576,-1151.07 576,-1164.64"/>
<polygon fill="white" stroke="white" points="572.5,-1164.88 576,-1174.88 579.5,-1164.88 572.5,-1164.88"/>
<g id="a_edge41&#45;label"><a xlink:title="Output Expressions: &#10; (1) s_suppkey&#10; (2) s_comment&#10;&#10;Unique Column Combinations: &#10; (1) {s_suppkey}&#10;&#10;Functional Dependencies (trivial): &#10; (1) {s_suppkey} =&gt; {s_comment}&#10;&#10;Functional Dependencies (non&#45;trivial): &#10; &lt;none&gt;">
<text text-anchor="middle" x="693" y="-1144.8" font-family="Times,serif" font-size="14.00" fill="white"> 100,000.0 row(s) | 100.0% estd.</text>
</a>
</g>
</g>
</g>
</svg>
