<?xml version="1.0" encoding="UTF-8" standalone="no"?>
<!DOCTYPE svg PUBLIC "-//W3C//DTD SVG 1.1//EN"
 "http://www.w3.org/Graphics/SVG/1.1/DTD/svg11.dtd">
<!-- Generated by graphviz version 2.43.0 (0)
 -->
<!-- Title: G Pages: 1 -->
<svg width="1151pt" height="1725pt"
 viewBox="0.00 0.00 1151.00 1725.00" xmlns="http://www.w3.org/2000/svg" xmlns:xlink="http://www.w3.org/1999/xlink">
<g id="graph0" class="graph" transform="scale(1 1) rotate(0) translate(4 1721)">
<title>G</title>
<polygon fill="black" stroke="transparent" points="-4,4 -4,-1721 1147,-1721 1147,4 -4,4"/>
<text text-anchor="middle" x="319.5" y="-1701.8" font-family="Times,serif" font-size="14.00" fill="white">For tooltips with advanced information, hover your mouse over vertices or edge labels.</text>
<!-- 140256686629968 -->
<g id="node1" class="node">
<title>140256686629968</title>
<polygon fill="none" stroke="white" points="581.5,-1662 344.5,-1662 344.5,-1626 581.5,-1626 581.5,-1662"/>
<text text-anchor="middle" x="463" y="-1640.3" font-family="Times,serif" font-size="14.00" fill="white">[Projection] s_name, s_address</text>
</g>
<!-- 140256688069840 -->
<g id="node2" class="node">
<title>140256688069840</title>
<polygon fill="none" stroke="white" points="565,-1575 361,-1575 361,-1539 565,-1539 565,-1575"/>
<text text-anchor="middle" x="463" y="-1553.3" font-family="Times,serif" font-size="14.00" fill="white">[Sort] s_name (Ascending)</text>
</g>
<!-- 140256688069840&#45;&gt;140256686629968 -->
<g id="edge1" class="edge">
<title>140256688069840&#45;&gt;140256686629968</title>
<path fill="none" stroke="white" d="M463,-1575.2C463,-1586.84 463,-1602.45 463,-1615.76"/>
<polygon fill="white" stroke="white" points="459.5,-1615.82 463,-1625.82 466.5,-1615.82 459.5,-1615.82"/>
<g id="a_edge1&#45;label"><a xlink:title="Output Expressions: &#10; (1) s_suppkey&#10; (2) s_name&#10; (3) s_address&#10; (4) s_nationkey&#10;&#10;Unique Column Combinations: &#10; (1) {s_suppkey}&#10;&#10;Functional Dependencies (trivial): &#10; (1) {s_suppkey} =&gt; {s_name, s_address, s_nationkey}&#10;&#10;Functional Dependencies (non&#45;trivial): &#10; &lt;none&gt;">
<text text-anchor="middle" x="555" y="-1596.8" font-family="Times,serif" font-size="14.00" fill="white"> 0.0 row(s) | 100.0% estd.</text>
</a>
</g>
</g>
<!-- 140256688072144 -->
<g id="node3" class="node">
<title>140256688072144</title>
<polygon fill="none" stroke="white" points="637.5,-1488 288.5,-1488 288.5,-1452 637.5,-1452 637.5,-1488"/>
<text text-anchor="middle" x="463" y="-1466.3" font-family="Times,serif" font-size="14.00" fill="white">[Join] Mode: Semi [s_nationkey = n_nationkey]</text>
</g>
<!-- 140256688072144&#45;&gt;140256688069840 -->
<g id="edge2" class="edge">
<title>140256688072144&#45;&gt;140256688069840</title>
<path fill="none" stroke="white" d="M463,-1488.2C463,-1499.84 463,-1515.45 463,-1528.76"/>
<polygon fill="white" stroke="white" points="459.5,-1528.82 463,-1538.82 466.5,-1528.82 459.5,-1528.82"/>
<g id="a_edge2&#45;label"><a xlink:title="Output Expressions: &#10; (1) s_suppkey&#10; (2) s_name&#10; (3) s_address&#10; (4) s_nationkey&#10;&#10;Unique Column Combinations: &#10; (1) {s_suppkey}&#10;&#10;Functional Dependencies (trivial): &#10; (1) {s_suppkey} =&gt; {s_name, s_address, s_nationkey}&#10;&#10;Functional Dependencies (non&#45;trivial): &#10; &lt;none&gt;">
<text text-anchor="middle" x="555" y="-1509.8" font-family="Times,serif" font-size="14.00" fill="white"> 0.0 row(s) | 100.0% estd.</text>
</a>
</g>
</g>
<!-- 140298799856144 -->
<g id="node4" class="node">
<title>140298799856144</title>
<polygon fill="none" stroke="white" points="609.5,-1347 524.5,-1347 524.5,-1311 609.5,-1311 609.5,-1347"/>
<text text-anchor="middle" x="567" y="-1325.3" font-family="Times,serif" font-size="14.00" fill="white">[Validate]</text>
</g>
<!-- 140298799856144&#45;&gt;140256688072144 -->
<g id="edge3" class="edge">
<title>140298799856144&#45;&gt;140256688072144</title>
<path fill="none" stroke="white" d="M569.19,-1347.14C571.08,-1369.57 570.91,-1408.99 551,-1434 547.19,-1438.78 542.64,-1442.91 537.63,-1446.48"/>
<polygon fill="white" stroke="white" points="537.32,-1446.67 535.47,-1443.7 528.84,-1451.96 537.32,-1446.67"/>
<g id="a_edge3&#45;label"><a xlink:title="Output Expressions: &#10; (1) s_suppkey&#10; (2) s_name&#10; (3) s_address&#10; (4) s_nationkey&#10;&#10;Unique Column Combinations: &#10; (1) {s_suppkey}&#10;&#10;Functional Dependencies (trivial): &#10; (1) {s_suppkey} =&gt; {s_name, s_address, s_nationkey}&#10;&#10;Functional Dependencies (non&#45;trivial): &#10; &lt;none&gt;">
<text text-anchor="middle" x="662" y="-1379.3" font-family="Times,serif" font-size="14.00" fill="white"> 0.0 row(s) | 100.0% estd.</text>
</a>
</g>
</g>
<!-- 140256688072720 -->
<g id="node5" class="node">
<title>140256688072720</title>
<polygon fill="none" stroke="white" points="698.5,-1204 363.5,-1204 363.5,-1168 698.5,-1168 698.5,-1204"/>
<text text-anchor="middle" x="531" y="-1182.3" font-family="Times,serif" font-size="14.00" fill="white">[Join] Mode: Semi [s_suppkey = ps_suppkey]</text>
</g>
<!-- 140256688072720&#45;&gt;140298799856144 -->
<g id="edge4" class="edge">
<title>140256688072720&#45;&gt;140298799856144</title>
<path fill="none" stroke="white" d="M538.59,-1204.23C540.87,-1209.83 543.23,-1216.11 545,-1222 552.93,-1248.33 558.98,-1279.18 562.71,-1300.79"/>
<polygon fill="white" stroke="white" points="559.3,-1301.6 564.4,-1310.88 566.2,-1300.44 559.3,-1301.6"/>
<g id="a_edge4&#45;label"><a xlink:title="Output Expressions: &#10; (1) s_suppkey&#10; (2) s_name&#10; (3) s_address&#10; (4) s_nationkey&#10;&#10;Unique Column Combinations: &#10; (1) {s_suppkey}&#10;&#10;Functional Dependencies (trivial): &#10; (1) {s_suppkey} =&gt; {s_name, s_address, s_nationkey}&#10;&#10;Functional Dependencies (non&#45;trivial): &#10; &lt;none&gt;">
<text text-anchor="middle" x="632" y="-1225.8" font-family="Times,serif" font-size="14.00" fill="white"> 0.0 row(s) | 0.0% estd.</text>
</a>
</g>
</g>
<!-- 140256688071952 -->
<g id="node24" class="node">
<title>140256688071952</title>
<polygon fill="none" stroke="white" points="527.5,-1293 178.5,-1293 178.5,-1255 527.5,-1255 527.5,-1293"/>
<text text-anchor="middle" x="353" y="-1277.8" font-family="Times,serif" font-size="14.00" fill="white">[Join] Mode: Semi [s_nationkey = n_nationkey]</text>
<text text-anchor="middle" x="353" y="-1262.8" font-family="Times,serif" font-size="14.00" fill="white">(SemiJoinReductionRule)</text>
</g>
<!-- 140256688072720&#45;&gt;140256688071952 -->
<g id="edge5" class="edge">
<title>140256688072720&#45;&gt;140256688071952</title>
<path fill="none" stroke="white" d="M410.63,-1204.01C399.29,-1208.69 388.5,-1214.58 379,-1222 371.37,-1227.95 365.79,-1236.76 361.79,-1245.38"/>
<polygon fill="white" stroke="white" points="357.93,-1254.88 364.94,-1246.93 361.7,-1245.61 357.93,-1254.88"/>
<g id="a_edge5&#45;label"><a xlink:title="Output Expressions: &#10; (1) s_suppkey&#10; (2) s_name&#10; (3) s_address&#10; (4) s_nationkey&#10;&#10;Unique Column Combinations: &#10; (1) {s_suppkey}&#10;&#10;Functional Dependencies (trivial): &#10; (1) {s_suppkey} =&gt; {s_name, s_address, s_nationkey}&#10;&#10;Functional Dependencies (non&#45;trivial): &#10; &lt;none&gt;">
<text text-anchor="middle" x="462" y="-1225.8" font-family="Times,serif" font-size="14.00" fill="white"> 0.0 row(s) | 0.0% estd.</text>
</a>
</g>
</g>
<!-- 140256822601744 -->
<g id="node6" class="node">
<title>140256822601744</title>
<polygon fill="none" stroke="white" points="927,-1117 605,-1117 605,-1079 927,-1079 927,-1117"/>
<text text-anchor="middle" x="766" y="-1101.8" font-family="Times,serif" font-size="14.00" fill="white">[StoredTable] Name: &#39;supplier&#39; pruned: 0/2</text>
<text text-anchor="middle" x="766" y="-1086.8" font-family="Times,serif" font-size="14.00" fill="white">chunk(s), 3/7 column(s)</text>
</g>
<!-- 140256822601744&#45;&gt;140256688072720 -->
<g id="edge6" class="edge">
<title>140256822601744&#45;&gt;140256688072720</title>
<path fill="none" stroke="white" d="M748.67,-1117.24C737.06,-1128.38 720.87,-1141.98 704,-1150 691.3,-1156.04 677.59,-1161.04 663.64,-1165.18"/>
<polygon fill="white" stroke="white" points="663.58,-1165.2 662.63,-1161.83 653.95,-1167.91 663.58,-1165.2"/>
<g id="a_edge6&#45;label"><a xlink:title="Output Expressions: &#10; (1) s_suppkey&#10; (2) s_name&#10; (3) s_address&#10; (4) s_nationkey&#10;&#10;Unique Column Combinations: &#10; (1) {s_suppkey}&#10;&#10;Functional Dependencies (trivial): &#10; (1) {s_suppkey} =&gt; {s_name, s_address, s_nationkey}&#10;&#10;Functional Dependencies (non&#45;trivial): &#10; &lt;none&gt;">
<text text-anchor="middle" x="843" y="-1138.8" font-family="Times,serif" font-size="14.00" fill="white"> 100,000.0 row(s) | 100.0% estd.</text>
</a>
</g>
</g>
<!-- 140256686631408 -->
<g id="node7" class="node">
<title>140256686631408</title>
<polygon fill="none" stroke="white" points="586.5,-1116 399.5,-1116 399.5,-1080 586.5,-1080 586.5,-1116"/>
<text text-anchor="middle" x="493" y="-1094.3" font-family="Times,serif" font-size="14.00" fill="white">[Projection] ps_suppkey</text>
</g>
<!-- 140256686631408&#45;&gt;140256688072720 -->
<g id="edge7" class="edge">
<title>140256686631408&#45;&gt;140256688072720</title>
<path fill="none" stroke="white" d="M500.69,-1116.4C506.03,-1128.49 513.24,-1144.82 519.29,-1158.51"/>
<polygon fill="white" stroke="white" points="523.45,-1167.92 522.61,-1157.35 519.41,-1158.77 523.45,-1167.92"/>
<g id="a_edge7&#45;label"><a xlink:title="Output Expressions: &#10; (1) ps_suppkey&#10;&#10;Unique Column Combinations: &#10; &lt;none&gt;&#10;&#10;Functional Dependencies (trivial): &#10; &lt;none&gt;&#10;&#10;Functional Dependencies (non&#45;trivial): &#10; &lt;none&gt;">
<text text-anchor="middle" x="608" y="-1138.8" font-family="Times,serif" font-size="14.00" fill="white"> 0.0 row(s) | 100.0% estd.</text>
</a>
</g>
</g>
<!-- 140256688070032 -->
<g id="node8" class="node">
<title>140256688070032</title>
<polygon fill="none" stroke="white" points="679,-1028 307,-1028 307,-975 679,-975 679,-1028"/>
<text text-anchor="middle" x="493" y="-1012.8" font-family="Times,serif" font-size="14.00" fill="white">[Join] Mode: Semi [ps_suppkey = l_suppkey]</text>
<text text-anchor="middle" x="493" y="-997.8" font-family="Times,serif" font-size="14.00" fill="white">[ps_availqty &gt; 0.5 * SUM(l_quantity)] [ps_partkey</text>
<text text-anchor="middle" x="493" y="-982.8" font-family="Times,serif" font-size="14.00" fill="white">= l_partkey]</text>
</g>
<!-- 140256688070032&#45;&gt;140256686631408 -->
<g id="edge8" class="edge">
<title>140256688070032&#45;&gt;140256686631408</title>
<path fill="none" stroke="white" d="M493,-1028.32C493,-1041.13 493,-1056.6 493,-1069.62"/>
<polygon fill="white" stroke="white" points="489.5,-1069.86 493,-1079.86 496.5,-1069.86 489.5,-1069.86"/>
<g id="a_edge8&#45;label"><a xlink:title="Output Expressions: &#10; (1) ps_partkey&#10; (2) ps_suppkey&#10; (3) ps_availqty&#10;&#10;Unique Column Combinations: &#10; (1) {ps_partkey, ps_suppkey}&#10;&#10;Functional Dependencies (trivial): &#10; (1) {ps_partkey, ps_suppkey} =&gt; {ps_availqty}&#10;&#10;Functional Dependencies (non&#45;trivial): &#10; &lt;none&gt;">
<text text-anchor="middle" x="585" y="-1049.8" font-family="Times,serif" font-size="14.00" fill="white"> 0.0 row(s) | 100.0% estd.</text>
</a>
</g>
</g>
<!-- 140256686631248 -->
<g id="node9" class="node">
<title>140256686631248</title>
<polygon fill="none" stroke="white" points="565.5,-480 480.5,-480 480.5,-444 565.5,-444 565.5,-480"/>
<text text-anchor="middle" x="523" y="-458.3" font-family="Times,serif" font-size="14.00" fill="white">[Validate]</text>
</g>
<!-- 140256686631248&#45;&gt;140256688070032 -->
<g id="edge9" class="edge">
<title>140256686631248&#45;&gt;140256688070032</title>
<path fill="none" stroke="white" d="M507.43,-480.25C494.08,-496.87 477,-523.35 477,-550 477,-550 477,-550 477,-906 477,-925.61 480.39,-947.2 484.05,-964.78"/>
<polygon fill="white" stroke="white" points="484.07,-964.86 480.65,-965.61 486.21,-974.63 484.07,-964.86"/>
<g id="a_edge9&#45;label"><a xlink:title="Output Expressions: &#10; (1) ps_partkey&#10; (2) ps_suppkey&#10; (3) ps_availqty&#10;&#10;Unique Column Combinations: &#10; (1) {ps_partkey, ps_suppkey}&#10;&#10;Functional Dependencies (trivial): &#10; (1) {ps_partkey, ps_suppkey} =&gt; {ps_availqty}&#10;&#10;Functional Dependencies (non&#45;trivial): &#10; &lt;none&gt;">
<text text-anchor="middle" x="569" y="-724.3" font-family="Times,serif" font-size="14.00" fill="white"> 0.0 row(s) | 100.0% estd.</text>
</a>
</g>
</g>
<!-- 140256688066960 -->
<g id="node19" class="node">
<title>140256688066960</title>
<polygon fill="none" stroke="white" points="888,-659 556,-659 556,-621 888,-621 888,-659"/>
<text text-anchor="middle" x="722" y="-643.8" font-family="Times,serif" font-size="14.00" fill="white">[Join] Mode: Semi [ps_suppkey = l_suppkey]</text>
<text text-anchor="middle" x="722" y="-628.8" font-family="Times,serif" font-size="14.00" fill="white">(SemiJoinReductionRule)</text>
</g>
<!-- 140256686631248&#45;&gt;140256688066960 -->
<g id="edge11" class="edge">
<title>140256686631248&#45;&gt;140256688066960</title>
<path fill="none" stroke="white" d="M519.44,-480.2C515.74,-503.17 512.95,-544 533,-570 550.1,-592.17 575.02,-607.22 601.19,-617.44"/>
<polygon fill="white" stroke="white" points="610.87,-620.99 602.69,-614.26 601.48,-617.55 610.87,-620.99"/>
<g id="a_edge11&#45;label"><a xlink:title="Output Expressions: &#10; (1) ps_partkey&#10; (2) ps_suppkey&#10; (3) ps_availqty&#10;&#10;Unique Column Combinations: &#10; (1) {ps_partkey, ps_suppkey}&#10;&#10;Functional Dependencies (trivial): &#10; (1) {ps_partkey, ps_suppkey} =&gt; {ps_availqty}&#10;&#10;Functional Dependencies (non&#45;trivial): &#10; &lt;none&gt;">
<text text-anchor="middle" x="625" y="-547.3" font-family="Times,serif" font-size="14.00" fill="white"> 0.0 row(s) | 100.0% estd.</text>
</a>
</g>
</g>
<!-- 140256688069456 -->
<g id="node20" class="node">
<title>140256688069456</title>
<polygon fill="none" stroke="white" points="1048.5,-570 725.5,-570 725.5,-532 1048.5,-532 1048.5,-570"/>
<text text-anchor="middle" x="887" y="-554.8" font-family="Times,serif" font-size="14.00" fill="white">[Join] Mode: Semi [ps_partkey = l_partkey]</text>
<text text-anchor="middle" x="887" y="-539.8" font-family="Times,serif" font-size="14.00" fill="white">(SemiJoinReductionRule)</text>
</g>
<!-- 140256686631248&#45;&gt;140256688069456 -->
<g id="edge10" class="edge">
<title>140256686631248&#45;&gt;140256688069456</title>
<path fill="none" stroke="white" d="M565.74,-476.59C601.2,-487.58 653.06,-502.97 699,-514 722.86,-519.73 748.59,-525.15 773.13,-529.96"/>
<polygon fill="white" stroke="white" points="783.2,-531.91 774.05,-526.57 773.38,-530.01 783.2,-531.91"/>
<g id="a_edge10&#45;label"><a xlink:title="Output Expressions: &#10; (1) ps_partkey&#10; (2) ps_suppkey&#10; (3) ps_availqty&#10;&#10;Unique Column Combinations: &#10; (1) {ps_partkey, ps_suppkey}&#10;&#10;Functional Dependencies (trivial): &#10; (1) {ps_partkey, ps_suppkey} =&gt; {ps_availqty}&#10;&#10;Functional Dependencies (non&#45;trivial): &#10; &lt;none&gt;">
<text text-anchor="middle" x="791" y="-502.8" font-family="Times,serif" font-size="14.00" fill="white"> 0.0 row(s) | 100.0% estd.</text>
</a>
</g>
</g>
<!-- 140256688073104 -->
<g id="node10" class="node">
<title>140256688073104</title>
<polygon fill="none" stroke="white" points="687,-391 359,-391 359,-355 687,-355 687,-391"/>
<text text-anchor="middle" x="523" y="-369.3" font-family="Times,serif" font-size="14.00" fill="white">[Join] Mode: Semi [ps_partkey = p_partkey]</text>
</g>
<!-- 140256688073104&#45;&gt;140256686631248 -->
<g id="edge12" class="edge">
<title>140256688073104&#45;&gt;140256686631248</title>
<path fill="none" stroke="white" d="M523,-391.19C523,-403.34 523,-419.89 523,-433.82"/>
<polygon fill="white" stroke="white" points="519.5,-433.85 523,-443.85 526.5,-433.85 519.5,-433.85"/>
<g id="a_edge12&#45;label"><a xlink:title="Output Expressions: &#10; (1) ps_partkey&#10; (2) ps_suppkey&#10; (3) ps_availqty&#10;&#10;Unique Column Combinations: &#10; (1) {ps_partkey, ps_suppkey}&#10;&#10;Functional Dependencies (trivial): &#10; (1) {ps_partkey, ps_suppkey} =&gt; {ps_availqty}&#10;&#10;Functional Dependencies (non&#45;trivial): &#10; &lt;none&gt;">
<text text-anchor="middle" x="606" y="-413.8" font-family="Times,serif" font-size="14.00" fill="white"> 0.0 row(s) | 0.0% estd.</text>
</a>
</g>
</g>
<!-- 140256822602384 -->
<g id="node11" class="node">
<title>140256822602384</title>
<polygon fill="none" stroke="white" points="561,-303 215,-303 215,-265 561,-265 561,-303"/>
<text text-anchor="middle" x="388" y="-287.8" font-family="Times,serif" font-size="14.00" fill="white">[StoredTable] Name: &#39;partsupp&#39; pruned: 0/123</text>
<text text-anchor="middle" x="388" y="-272.8" font-family="Times,serif" font-size="14.00" fill="white">chunk(s), 2/5 column(s)</text>
</g>
<!-- 140256822602384&#45;&gt;140256688073104 -->
<g id="edge13" class="edge">
<title>140256822602384&#45;&gt;140256688073104</title>
<path fill="none" stroke="white" stroke-width="3.03" d="M385.03,-303.47C384.38,-314.13 385.56,-327.15 393,-336 397.3,-341.12 402.26,-345.54 407.68,-349.36"/>
<polygon fill="white" stroke="white" stroke-width="3.03" points="408.05,-349.59 406.2,-352.56 416.54,-354.88 408.05,-349.59"/>
<g id="a_edge13&#45;label"><a xlink:title="Output Expressions: &#10; (1) ps_partkey&#10; (2) ps_suppkey&#10; (3) ps_availqty&#10;&#10;Unique Column Combinations: &#10; (1) {ps_partkey, ps_suppkey}&#10;&#10;Functional Dependencies (trivial): &#10; (1) {ps_partkey, ps_suppkey} =&gt; {ps_availqty}&#10;&#10;Functional Dependencies (non&#45;trivial): &#10; &lt;none&gt;">
<text text-anchor="middle" x="516.5" y="-324.8" font-family="Times,serif" font-size="14.00" fill="white"> 8,000,000.0 row(s) | 100.0% estd.</text>
</a>
</g>
</g>
<!-- 140256686632208 -->
<g id="node12" class="node">
<title>140256686632208</title>
<polygon fill="none" stroke="white" points="754.5,-302 579.5,-302 579.5,-266 754.5,-266 754.5,-302"/>
<text text-anchor="middle" x="667" y="-280.3" font-family="Times,serif" font-size="14.00" fill="white">[Projection] p_partkey</text>
</g>
<!-- 140256686632208&#45;&gt;140256688073104 -->
<g id="edge14" class="edge">
<title>140256686632208&#45;&gt;140256688073104</title>
<path fill="none" stroke="white" d="M661.68,-302.39C657.46,-313.46 650.5,-327.31 640,-336 632.97,-341.82 625,-346.7 616.61,-350.79"/>
<polygon fill="white" stroke="white" points="607.36,-354.93 617.92,-354.04 616.49,-350.85 607.36,-354.93"/>
<g id="a_edge14&#45;label"><a xlink:title="Output Expressions: &#10; (1) p_partkey&#10;&#10;Unique Column Combinations: &#10; (1) {p_partkey}&#10;&#10;Functional Dependencies (trivial): &#10; &lt;none&gt;&#10;&#10;Functional Dependencies (non&#45;trivial): &#10; &lt;none&gt;">
<text text-anchor="middle" x="745" y="-324.8" font-family="Times,serif" font-size="14.00" fill="white"> 0.0 row(s) | 100.0% estd.</text>
</a>
</g>
</g>
<!-- 140256686632048 -->
<g id="node13" class="node">
<title>140256686632048</title>
<polygon fill="none" stroke="white" points="709.5,-214 624.5,-214 624.5,-178 709.5,-178 709.5,-214"/>
<text text-anchor="middle" x="667" y="-192.3" font-family="Times,serif" font-size="14.00" fill="white">[Validate]</text>
</g>
<!-- 140256686632048&#45;&gt;140256686632208 -->
<g id="edge15" class="edge">
<title>140256686632048&#45;&gt;140256686632208</title>
<path fill="none" stroke="white" d="M667,-214.4C667,-226.25 667,-242.18 667,-255.71"/>
<polygon fill="white" stroke="white" points="663.5,-255.92 667,-265.92 670.5,-255.92 663.5,-255.92"/>
<g id="a_edge15&#45;label"><a xlink:title="Output Expressions: &#10; (1) p_partkey&#10; (2) p_name&#10;&#10;Unique Column Combinations: &#10; (1) {p_partkey}&#10;&#10;Functional Dependencies (trivial): &#10; (1) {p_partkey} =&gt; {p_name}&#10;&#10;Functional Dependencies (non&#45;trivial): &#10; &lt;none&gt;">
<text text-anchor="middle" x="759" y="-235.8" font-family="Times,serif" font-size="14.00" fill="white"> 0.0 row(s) | 100.0% estd.</text>
</a>
</g>
</g>
<!-- 140256688073296 -->
<g id="node14" class="node">
<title>140256688073296</title>
<polygon fill="none" stroke="white" points="885,-127 449,-127 449,-89 885,-89 885,-127"/>
<text text-anchor="middle" x="667" y="-111.8" font-family="Times,serif" font-size="14.00" fill="white">[Predicate] p_name BETWEEN UPPER EXCLUSIVE &#39;misty&#39;</text>
<text text-anchor="middle" x="667" y="-96.8" font-family="Times,serif" font-size="14.00" fill="white">AND &#39;mistz&#39;</text>
</g>
<!-- 140256688073296&#45;&gt;140256686632048 -->
<g id="edge16" class="edge">
<title>140256688073296&#45;&gt;140256686632048</title>
<path fill="none" stroke="white" d="M667,-127.24C667,-139.07 667,-154.68 667,-167.95"/>
<polygon fill="white" stroke="white" points="663.5,-167.96 667,-177.96 670.5,-167.96 663.5,-167.96"/>
<g id="a_edge16&#45;label"><a xlink:title="Output Expressions: &#10; (1) p_partkey&#10; (2) p_name&#10;&#10;Unique Column Combinations: &#10; (1) {p_partkey}&#10;&#10;Functional Dependencies (trivial): &#10; (1) {p_partkey} =&gt; {p_name}&#10;&#10;Functional Dependencies (non&#45;trivial): &#10; &lt;none&gt;">
<text text-anchor="middle" x="750" y="-148.8" font-family="Times,serif" font-size="14.00" fill="white"> 0.0 row(s) | 0.0% estd.</text>
</a>
</g>
</g>
<!-- 140256822603984 -->
<g id="node15" class="node">
<title>140256822603984</title>
<polygon fill="none" stroke="white" points="853,-38 481,-38 481,0 853,0 853,-38"/>
<text text-anchor="middle" x="667" y="-22.8" font-family="Times,serif" font-size="14.00" fill="white">[StoredTable] Name: &#39;part&#39; pruned: 0/31 chunk(s),</text>
<text text-anchor="middle" x="667" y="-7.8" font-family="Times,serif" font-size="14.00" fill="white">7/9 column(s)</text>
</g>
<!-- 140256822603984&#45;&gt;140256688073296 -->
<g id="edge17" class="edge">
<title>140256822603984&#45;&gt;140256688073296</title>
<path fill="none" stroke="white" d="M667,-38.03C667,-49.81 667,-65.44 667,-78.84"/>
<polygon fill="white" stroke="white" points="663.5,-79 667,-89 670.5,-79 663.5,-79"/>
<g id="a_edge17&#45;label"><a xlink:title="Output Expressions: &#10; (1) p_partkey&#10; (2) p_name&#10;&#10;Unique Column Combinations: &#10; (1) {p_partkey}&#10;&#10;Functional Dependencies (trivial): &#10; (1) {p_partkey} =&gt; {p_name}&#10;&#10;Functional Dependencies (non&#45;trivial): &#10; &lt;none&gt;">
<text text-anchor="middle" x="790.5" y="-59.8" font-family="Times,serif" font-size="14.00" fill="white"> 2,000,000.0 row(s) | 100.0% estd.</text>
</a>
</g>
</g>
<!-- 140256686631728 -->
<g id="node16" class="node">
<title>140256686631728</title>
<polygon fill="none" stroke="white" points="870,-924 528,-924 528,-886 870,-886 870,-924"/>
<text text-anchor="middle" x="699" y="-908.8" font-family="Times,serif" font-size="14.00" fill="white">[Projection] 0.5 * SUM(l_quantity), l_suppkey,</text>
<text text-anchor="middle" x="699" y="-893.8" font-family="Times,serif" font-size="14.00" fill="white">l_partkey</text>
</g>
<!-- 140256686631728&#45;&gt;140256688070032 -->
<g id="edge18" class="edge">
<title>140256686631728&#45;&gt;140256688070032</title>
<path fill="none" stroke="white" d="M659.28,-924.22C630.64,-937.36 591.34,-955.39 558.14,-970.62"/>
<polygon fill="white" stroke="white" points="548.95,-974.83 559.5,-973.85 558.04,-970.66 548.95,-974.83"/>
<g id="a_edge18&#45;label"><a xlink:title="Output Expressions: &#10; (1) 0.5 * SUM(l_quantity) NULL&#10; (2) l_suppkey&#10; (3) l_partkey&#10;&#10;Unique Column Combinations: &#10; (1) {l_partkey, l_suppkey}&#10;&#10;Functional Dependencies (trivial): &#10; (1) {l_partkey, l_suppkey} =&gt; {0.5 * SUM(l_quantity)}&#10;&#10;Functional Dependencies (non&#45;trivial): &#10; &lt;none&gt;">
<text text-anchor="middle" x="713" y="-945.8" font-family="Times,serif" font-size="14.00" fill="white"> 0.0 row(s) | 100.0% estd.</text>
</a>
</g>
</g>
<!-- 140256688066576 -->
<g id="node17" class="node">
<title>140256688066576</title>
<polygon fill="none" stroke="white" points="879,-835 547,-835 547,-797 879,-797 879,-835"/>
<text text-anchor="middle" x="713" y="-819.8" font-family="Times,serif" font-size="14.00" fill="white">[Aggregate] GroupBy: [l_suppkey, l_partkey]</text>
<text text-anchor="middle" x="713" y="-804.8" font-family="Times,serif" font-size="14.00" fill="white">Aggregates: [SUM(l_quantity)]</text>
</g>
<!-- 140256688066576&#45;&gt;140256686631728 -->
<g id="edge19" class="edge">
<title>140256688066576&#45;&gt;140256686631728</title>
<path fill="none" stroke="white" d="M710.1,-835.03C708.2,-846.81 705.69,-862.44 703.53,-875.84"/>
<polygon fill="white" stroke="white" points="700.03,-875.57 701.9,-886 706.94,-876.68 700.03,-875.57"/>
<g id="a_edge19&#45;label"><a xlink:title="Output Expressions: &#10; (1) l_suppkey&#10; (2) l_partkey&#10; (3) SUM(l_quantity) NULL&#10;&#10;Unique Column Combinations: &#10; (1) {l_partkey, l_suppkey}&#10;&#10;Functional Dependencies (trivial): &#10; (1) {l_partkey, l_suppkey} =&gt; {SUM(l_quantity)}&#10;&#10;Functional Dependencies (non&#45;trivial): &#10; &lt;none&gt;">
<text text-anchor="middle" x="798" y="-856.8" font-family="Times,serif" font-size="14.00" fill="white"> 0.0 row(s) | 100.0% estd.</text>
</a>
</g>
</g>
<!-- 140256686631568 -->
<g id="node18" class="node">
<title>140256686631568</title>
<polygon fill="none" stroke="white" points="764.5,-746 679.5,-746 679.5,-710 764.5,-710 764.5,-746"/>
<text text-anchor="middle" x="722" y="-724.3" font-family="Times,serif" font-size="14.00" fill="white">[Validate]</text>
</g>
<!-- 140256686631568&#45;&gt;140256688066576 -->
<g id="edge20" class="edge">
<title>140256686631568&#45;&gt;140256688066576</title>
<path fill="none" stroke="white" d="M720.18,-746.4C718.97,-757.94 717.36,-773.35 715.97,-786.64"/>
<polygon fill="white" stroke="white" points="712.47,-786.42 714.91,-796.73 719.43,-787.15 712.47,-786.42"/>
<g id="a_edge20&#45;label"><a xlink:title="Output Expressions: &#10; (1) l_partkey&#10; (2) l_suppkey&#10; (3) l_quantity&#10; (4) l_shipdate&#10;&#10;Unique Column Combinations: &#10; &lt;none&gt;&#10;&#10;Functional Dependencies (trivial): &#10; &lt;none&gt;&#10;&#10;Functional Dependencies (non&#45;trivial): &#10; &lt;none&gt;">
<text text-anchor="middle" x="810" y="-767.8" font-family="Times,serif" font-size="14.00" fill="white"> 0.0 row(s) | 100.0% estd.</text>
</a>
</g>
</g>
<!-- 140256688066960&#45;&gt;140256686631568 -->
<g id="edge21" class="edge">
<title>140256688066960&#45;&gt;140256686631568</title>
<path fill="none" stroke="white" d="M722,-659.24C722,-671.07 722,-686.68 722,-699.95"/>
<polygon fill="white" stroke="white" points="718.5,-699.96 722,-709.96 725.5,-699.96 718.5,-699.96"/>
<g id="a_edge21&#45;label"><a xlink:title="Output Expressions: &#10; (1) l_partkey&#10; (2) l_suppkey&#10; (3) l_quantity&#10; (4) l_shipdate&#10;&#10;Unique Column Combinations: &#10; &lt;none&gt;&#10;&#10;Functional Dependencies (trivial): &#10; &lt;none&gt;&#10;&#10;Functional Dependencies (non&#45;trivial): &#10; &lt;none&gt;">
<text text-anchor="middle" x="809.5" y="-680.8" font-family="Times,serif" font-size="14.00" fill="white"> 0.0 row(s) | 85.6% estd.</text>
</a>
</g>
</g>
<!-- 140256688069456&#45;&gt;140256688066960 -->
<g id="edge22" class="edge">
<title>140256688069456&#45;&gt;140256688066960</title>
<path fill="none" stroke="white" d="M852.81,-570.03C827.37,-583.44 792.46,-601.85 765.11,-616.27"/>
<polygon fill="white" stroke="white" points="764.99,-616.33 763.36,-613.24 756.14,-621 764.99,-616.33"/>
<g id="a_edge22&#45;label"><a xlink:title="Output Expressions: &#10; (1) l_partkey&#10; (2) l_suppkey&#10; (3) l_quantity&#10; (4) l_shipdate&#10;&#10;Unique Column Combinations: &#10; &lt;none&gt;&#10;&#10;Functional Dependencies (trivial): &#10; &lt;none&gt;&#10;&#10;Functional Dependencies (non&#45;trivial): &#10; &lt;none&gt;">
<text text-anchor="middle" x="897" y="-591.8" font-family="Times,serif" font-size="14.00" fill="white"> 0.0 row(s) | 0.0% estd.</text>
</a>
</g>
</g>
<!-- 140256688073680 -->
<g id="node21" class="node">
<title>140256688073680</title>
<polygon fill="none" stroke="white" points="1088,-481 686,-481 686,-443 1088,-443 1088,-481"/>
<text text-anchor="middle" x="887" y="-465.8" font-family="Times,serif" font-size="14.00" fill="white">[Predicate] l_shipdate BETWEEN UPPER EXCLUSIVE</text>
<text text-anchor="middle" x="887" y="-450.8" font-family="Times,serif" font-size="14.00" fill="white">&#39;1997&#45;01&#45;01&#39; AND &#39;1998&#45;01&#45;01&#39;</text>
</g>
<!-- 140256688073680&#45;&gt;140256688069456 -->
<g id="edge23" class="edge">
<title>140256688073680&#45;&gt;140256688069456</title>
<path fill="none" stroke="white" stroke-width="3.42" d="M887,-481.03C887,-492.81 887,-508.44 887,-521.84"/>
<polygon fill="white" stroke="white" stroke-width="3.42" points="887,-522 883.5,-522 887,-532 887,-522"/>
<g id="a_edge23&#45;label"><a xlink:title="Output Expressions: &#10; (1) l_partkey&#10; (2) l_suppkey&#10; (3) l_quantity&#10; (4) l_shipdate&#10;&#10;Unique Column Combinations: &#10; &lt;none&gt;&#10;&#10;Functional Dependencies (trivial): &#10; &lt;none&gt;&#10;&#10;Functional Dependencies (non&#45;trivial): &#10; &lt;none&gt;">
<text text-anchor="middle" x="1006" y="-502.8" font-family="Times,serif" font-size="14.00" fill="white"> 9,351,011.0 row(s) | 15.6% estd.</text>
</a>
</g>
</g>
<!-- 140256822603664 -->
<g id="node22" class="node">
<title>140256822603664</title>
<polygon fill="none" stroke="white" points="1057,-392 717,-392 717,-354 1057,-354 1057,-392"/>
<text text-anchor="middle" x="887" y="-376.8" font-family="Times,serif" font-size="14.00" fill="white">[StoredTable] Name: &#39;lineitem&#39; pruned: 0/916</text>
<text text-anchor="middle" x="887" y="-361.8" font-family="Times,serif" font-size="14.00" fill="white">chunk(s), 12/16 column(s)</text>
</g>
<!-- 140256822603664&#45;&gt;140256688073680 -->
<g id="edge24" class="edge">
<title>140256822603664&#45;&gt;140256688073680</title>
<path fill="none" stroke="white" stroke-width="8" d="M887,-392.03C887,-403.81 887,-419.44 887,-432.84"/>
<polygon fill="white" stroke="white" stroke-width="8" points="880,-433 887,-443 894,-433 880,-433"/>
<g id="a_edge24&#45;label"><a xlink:title="Output Expressions: &#10; (1) l_partkey&#10; (2) l_suppkey&#10; (3) l_quantity&#10; (4) l_shipdate&#10;&#10;Unique Column Combinations: &#10; &lt;none&gt;&#10;&#10;Functional Dependencies (trivial): &#10; &lt;none&gt;&#10;&#10;Functional Dependencies (non&#45;trivial): &#10; &lt;none&gt;">
<text text-anchor="middle" x="1015" y="-413.8" font-family="Times,serif" font-size="14.00" fill="white"> 59,986,052.0 row(s) | 100.0% estd.</text>
</a>
</g>
</g>
<!-- 140256686627568 -->
<g id="node23" class="node">
<title>140256686627568</title>
<polygon fill="none" stroke="white" points="402.5,-1401 317.5,-1401 317.5,-1365 402.5,-1365 402.5,-1401"/>
<text text-anchor="middle" x="360" y="-1379.3" font-family="Times,serif" font-size="14.00" fill="white">[Validate]</text>
</g>
<!-- 140256686627568&#45;&gt;140256688072144 -->
<g id="edge25" class="edge">
<title>140256686627568&#45;&gt;140256688072144</title>
<path fill="none" stroke="white" d="M358.22,-1401.02C358.04,-1411.6 359.61,-1424.87 367,-1434 370.86,-1438.77 375.43,-1442.89 380.45,-1446.45"/>
<polygon fill="white" stroke="white" points="389.27,-1451.93 382.62,-1443.68 380.77,-1446.65 389.27,-1451.93"/>
<g id="a_edge25&#45;label"><a xlink:title="Output Expressions: &#10; (1) n_nationkey&#10; (2) n_name&#10;&#10;Unique Column Combinations: &#10; (1) {n_nationkey}&#10;&#10;Functional Dependencies (trivial): &#10; (1) {n_nationkey} =&gt; {n_name}&#10;&#10;Functional Dependencies (non&#45;trivial): &#10; &lt;none&gt;">
<text text-anchor="middle" x="459" y="-1422.8" font-family="Times,serif" font-size="14.00" fill="white"> 0.0 row(s) | 100.0% estd.</text>
</a>
</g>
</g>
<!-- 140256688071952&#45;&gt;140256686627568 -->
<g id="edge26" class="edge">
<title>140256688071952&#45;&gt;140256686627568</title>
<path fill="none" stroke="white" d="M349.92,-1293.15C347.94,-1307.77 346.21,-1328.81 349,-1347 349.41,-1349.68 349.99,-1352.44 350.67,-1355.17"/>
<polygon fill="white" stroke="white" points="347.31,-1356.17 353.45,-1364.8 354.04,-1354.22 347.31,-1356.17"/>
<g id="a_edge26&#45;label"><a xlink:title="Output Expressions: &#10; (1) n_nationkey&#10; (2) n_name&#10;&#10;Unique Column Combinations: &#10; (1) {n_nationkey}&#10;&#10;Functional Dependencies (trivial): &#10; (1) {n_nationkey} =&gt; {n_name}&#10;&#10;Functional Dependencies (non&#45;trivial): &#10; &lt;none&gt;">
<text text-anchor="middle" x="432" y="-1325.3" font-family="Times,serif" font-size="14.00" fill="white"> 0.0 row(s) | 3.0% estd.</text>
</a>
</g>
</g>
<!-- 140256688071376 -->
<g id="node25" class="node">
<title>140256688071376</title>
<polygon fill="none" stroke="white" points="310.5,-1204 67.5,-1204 67.5,-1168 310.5,-1168 310.5,-1204"/>
<text text-anchor="middle" x="189" y="-1182.3" font-family="Times,serif" font-size="14.00" fill="white">[Predicate] n_name = &#39;JORDAN&#39;</text>
</g>
<!-- 140256688071376&#45;&gt;140256688071952 -->
<g id="edge27" class="edge">
<title>140256688071376&#45;&gt;140256688071952</title>
<path fill="none" stroke="white" d="M184.44,-1204.11C182.7,-1214.73 182.62,-1228 190,-1237 194.76,-1242.8 204.26,-1247.73 216.4,-1251.9"/>
<polygon fill="white" stroke="white" points="216.61,-1251.97 215.57,-1255.31 226.16,-1254.95 216.61,-1251.97"/>
<g id="a_edge27&#45;label"><a xlink:title="Output Expressions: &#10; (1) n_nationkey&#10; (2) n_name&#10;&#10;Unique Column Combinations: &#10; (1) {n_nationkey}&#10;&#10;Functional Dependencies (trivial): &#10; (1) {n_nationkey} =&gt; {n_name}&#10;&#10;Functional Dependencies (non&#45;trivial): &#10; &lt;none&gt;">
<text text-anchor="middle" x="273" y="-1225.8" font-family="Times,serif" font-size="14.00" fill="white"> 1.0 row(s) | 4.0% estd.</text>
</a>
</g>
</g>
<!-- 140256822603344 -->
<g id="node26" class="node">
<title>140256822603344</title>
<polygon fill="none" stroke="white" points="378,-1117 0,-1117 0,-1079 378,-1079 378,-1117"/>
<text text-anchor="middle" x="189" y="-1101.8" font-family="Times,serif" font-size="14.00" fill="white">[StoredTable] Name: &#39;nation&#39; pruned: 0/1 chunk(s),</text>
<text text-anchor="middle" x="189" y="-1086.8" font-family="Times,serif" font-size="14.00" fill="white">2/4 column(s)</text>
</g>
<!-- 140256822603344&#45;&gt;140256688071376 -->
<g id="edge28" class="edge">
<title>140256822603344&#45;&gt;140256688071376</title>
<path fill="none" stroke="white" d="M189,-1117.24C189,-1129.07 189,-1144.68 189,-1157.95"/>
<polygon fill="white" stroke="white" points="185.5,-1157.96 189,-1167.96 192.5,-1157.96 185.5,-1157.96"/>
<g id="a_edge28&#45;label"><a xlink:title="Output Expressions: &#10; (1) n_nationkey&#10; (2) n_name&#10;&#10;Unique Column Combinations: &#10; (1) {n_nationkey}&#10;&#10;Functional Dependencies (trivial): &#10; (1) {n_nationkey} =&gt; {n_name}&#10;&#10;Functional Dependencies (non&#45;trivial): &#10; &lt;none&gt;">
<text text-anchor="middle" x="285.5" y="-1138.8" font-family="Times,serif" font-size="14.00" fill="white"> 25.0 row(s) | 100.0% estd.</text>
</a>
</g>
</g>
</g>
</svg>
