<?xml version="1.0" encoding="UTF-8" standalone="no"?>
<!DOCTYPE svg PUBLIC "-//W3C//DTD SVG 1.1//EN"
 "http://www.w3.org/Graphics/SVG/1.1/DTD/svg11.dtd">
<!-- Generated by graphviz version 2.43.0 (0)
 -->
<!-- Title: G Pages: 1 -->
<svg width="748pt" height="1805pt"
 viewBox="0.00 0.00 747.50 1805.00" xmlns="http://www.w3.org/2000/svg" xmlns:xlink="http://www.w3.org/1999/xlink">
<g id="graph0" class="graph" transform="scale(1 1) rotate(0) translate(4 1801)">
<title>G</title>
<polygon fill="black" stroke="transparent" points="-4,4 -4,-1801 743.5,-1801 743.5,4 -4,4"/>
<text text-anchor="middle" x="319.5" y="-1781.8" font-family="Times,serif" font-size="14.00" fill="white">For tooltips with advanced information, hover your mouse over vertices or edge labels.</text>
<!-- 140283381132176 -->
<g id="node1" class="node">
<title>140283381132176</title>
<g id="a_node1"><a xlink:title="Output: 7 rows in 1 chunk filtered: 0, 2 µs 627 ns.">
<polygon fill="none" stroke="white" points="433,-1742 185,-1742 185,-1673 433,-1673 433,-1742"/>
<text text-anchor="middle" x="309" y="-1726.8" font-family="Times,serif" font-size="14.00" fill="white">Alias</text>
<text text-anchor="middle" x="309" y="-1711.8" font-family="Times,serif" font-size="14.00" fill="white">[cntrycode, numcust, totacctbal]</text>
<text text-anchor="middle" x="309" y="-1680.8" font-family="Times,serif" font-size="14.00" fill="white">2 µs 627 ns</text>
</a>
</g>
</g>
<!-- 140283381131856 -->
<g id="node2" class="node">
<title>140283381131856</title>
<g id="a_node2"><a xlink:title="Output: 7 rows in 1 chunk filtered: 0, 18 µs 256 ns.&#10;Operator step runtimes:&#10; MaterializeSortColumns 5 µs 780 ns&#10; Sort 3 µs 171 ns&#10; TemporaryResultWriting 370 ns&#10; WriteOutput 7 µs 208 ns.">
<polygon fill="none" stroke="white" points="363,-1622 255,-1622 255,-1568 363,-1568 363,-1622"/>
<text text-anchor="middle" x="309" y="-1606.8" font-family="Times,serif" font-size="14.00" fill="white">Sort</text>
<text text-anchor="middle" x="309" y="-1575.8" font-family="Times,serif" font-size="14.00" fill="white">18 µs 256 ns</text>
</a>
</g>
</g>
<!-- 140283381131856&#45;&gt;140283381132176 -->
<g id="edge1" class="edge">
<title>140283381131856&#45;&gt;140283381132176</title>
<path fill="none" stroke="white" d="M309,-1622.19C309,-1634.29 309,-1649 309,-1662.72"/>
<polygon fill="white" stroke="white" points="305.5,-1662.95 309,-1672.95 312.5,-1662.96 305.5,-1662.95"/>
<text text-anchor="middle" x="378" y="-1643.8" font-family="Times,serif" font-size="14.00" fill="white">7 row(s)/1 chunk(s)</text>
</g>
<!-- 140298210585616 -->
<g id="node3" class="node">
<title>140298210585616</title>
<g id="a_node3"><a xlink:title="Output: 7 rows in 1 chunk filtered: 0, 6 ms 737 µs.&#10;Operator step runtimes:&#10; GroupByKeyPartitioning 1 ms 252 µs&#10; Aggregating 5 ms 436 µs&#10; GroupByColumnsWriting 5 µs 669 ns&#10; AggregateColumnsWriting 8 µs 460 ns&#10; OutputWriting 11 µs 680 ns.">
<polygon fill="none" stroke="white" stroke-width="2.68" points="438.5,-1517 179.5,-1517 179.5,-1418 438.5,-1418 438.5,-1517"/>
<text text-anchor="middle" x="309" y="-1501.8" font-family="Times,serif" font-size="14.00" fill="white">AggregateHash</text>
<text text-anchor="middle" x="309" y="-1486.8" font-family="Times,serif" font-size="14.00" fill="white">GroupBy {SUBSTR(c_phone,1,2)}</text>
<text text-anchor="middle" x="309" y="-1471.8" font-family="Times,serif" font-size="14.00" fill="white">COUNT(*), </text>
<text text-anchor="middle" x="309" y="-1456.8" font-family="Times,serif" font-size="14.00" fill="white">SUM(c_acctbal)</text>
<text text-anchor="middle" x="309" y="-1425.8" font-family="Times,serif" font-size="14.00" fill="white">6 ms 737 µs</text>
</a>
</g>
</g>
<!-- 140298210585616&#45;&gt;140283381131856 -->
<g id="edge2" class="edge">
<title>140298210585616&#45;&gt;140283381131856</title>
<path fill="none" stroke="white" d="M309,-1517.02C309,-1530.49 309,-1544.89 309,-1557.54"/>
<polygon fill="white" stroke="white" points="305.5,-1557.7 309,-1567.7 312.5,-1557.7 305.5,-1557.7"/>
<text text-anchor="middle" x="378" y="-1538.8" font-family="Times,serif" font-size="14.00" fill="white">7 row(s)/1 chunk(s)</text>
</g>
<!-- 140283381131536 -->
<g id="node4" class="node">
<title>140283381131536</title>
<g id="a_node4"><a xlink:title="Output: 63107 rows in 99 chunks filtered: 0, 47 µs 938 ns.">
<polygon fill="none" stroke="white" points="395,-1367 223,-1367 223,-1298 395,-1298 395,-1367"/>
<text text-anchor="middle" x="309" y="-1351.8" font-family="Times,serif" font-size="14.00" fill="white">Alias</text>
<text text-anchor="middle" x="309" y="-1336.8" font-family="Times,serif" font-size="14.00" fill="white">[cntrycode, c_acctbal]</text>
<text text-anchor="middle" x="309" y="-1305.8" font-family="Times,serif" font-size="14.00" fill="white">47 µs 938 ns</text>
</a>
</g>
</g>
<!-- 140283381131536&#45;&gt;140298210585616 -->
<g id="edge3" class="edge">
<title>140283381131536&#45;&gt;140298210585616</title>
<path fill="none" stroke="white" d="M309,-1367.06C309,-1379.45 309,-1393.87 309,-1407.83"/>
<polygon fill="white" stroke="white" points="305.5,-1407.87 309,-1417.87 312.5,-1407.87 305.5,-1407.87"/>
<text text-anchor="middle" x="402.5" y="-1388.8" font-family="Times,serif" font-size="14.00" fill="white">63,107 row(s)/99 chunk(s)</text>
</g>
<!-- 140283381131216 -->
<g id="node5" class="node">
<title>140283381131216</title>
<g id="a_node5"><a xlink:title="Output: 63107 rows in 99 chunks filtered: 0, 1 ms 582 µs.&#10;Operator step runtimes:&#10; ForwardUnmodifiedColumns 68 µs 597 ns&#10; EvaluateNewColumns 1 ms 309 µs&#10; BuildOutput 170 µs 479 ns.">
<polygon fill="none" stroke="white" points="361,-1247 257,-1247 257,-1193 361,-1193 361,-1247"/>
<text text-anchor="middle" x="309" y="-1231.8" font-family="Times,serif" font-size="14.00" fill="white">Projection</text>
<text text-anchor="middle" x="309" y="-1200.8" font-family="Times,serif" font-size="14.00" fill="white">1 ms 582 µs</text>
</a>
</g>
</g>
<!-- 140283381131216&#45;&gt;140283381131536 -->
<g id="edge4" class="edge">
<title>140283381131216&#45;&gt;140283381131536</title>
<path fill="none" stroke="white" d="M309,-1247.19C309,-1259.29 309,-1274 309,-1287.72"/>
<polygon fill="white" stroke="white" points="305.5,-1287.95 309,-1297.95 312.5,-1287.96 305.5,-1287.95"/>
<text text-anchor="middle" x="402.5" y="-1268.8" font-family="Times,serif" font-size="14.00" fill="white">63,107 row(s)/99 chunk(s)</text>
</g>
<!-- 140283381130256 -->
<g id="node6" class="node">
<title>140283381130256</title>
<g id="a_node6"><a xlink:title="Output: 63107 rows in 99 chunks filtered: 0, 58 ms 205 µs.&#10;Operator step runtimes:&#10; LeftSideMaterialize 332 µs 325 ns&#10; RightSideMaterialize 5 ms 951 µs&#10; LeftSideTransform 0 ns&#10; RightSideTransform 0 ns&#10; LeftSidePartition 3 ms 799 µs&#10; RightSidePartition 24 ms 533 µs&#10; LeftSideSortBuckets 718 µs 754 ns&#10; RightSideSortBuckets 16 ms 435 µs&#10; GatherRowIds 1 µs 396 ns&#10; FindJoinPartner 3 ms 682 µs&#10; OutputWriting 1 ms 820 µs.&#10;Radix bits: 8.">
<polygon fill="none" stroke="white" stroke-width="8" points="452.5,-1142 165.5,-1142 165.5,-1073 452.5,-1073 452.5,-1142"/>
<text text-anchor="middle" x="309" y="-1126.8" font-family="Times,serif" font-size="14.00" fill="white">JoinSimdSortMerge (AntiNullAsFalse)</text>
<text text-anchor="middle" x="309" y="-1111.8" font-family="Times,serif" font-size="14.00" fill="white">c_custkey = o_custkey</text>
<text text-anchor="middle" x="309" y="-1080.8" font-family="Times,serif" font-size="14.00" fill="white">58 ms 205 µs</text>
</a>
</g>
</g>
<!-- 140283381130256&#45;&gt;140283381131216 -->
<g id="edge5" class="edge">
<title>140283381130256&#45;&gt;140283381131216</title>
<path fill="none" stroke="white" d="M309,-1142.25C309,-1155.07 309,-1169.73 309,-1182.77"/>
<polygon fill="white" stroke="white" points="305.5,-1182.81 309,-1192.81 312.5,-1182.81 305.5,-1182.81"/>
<text text-anchor="middle" x="402.5" y="-1163.8" font-family="Times,serif" font-size="14.00" fill="white">63,107 row(s)/99 chunk(s)</text>
</g>
<!-- 140283381129296 -->
<g id="node7" class="node">
<title>140283381129296</title>
<g id="a_node7"><a xlink:title="Output: 190748 rows in 23 chunks filtered: 0, 19 ms 357 µs.&#10;Chunks: 0 skipped with no results, &#10;0 skipped with all matching, 0 scanned using binary search.">
<polygon fill="none" stroke="white" stroke-width="5.28" points="361.5,-1022 12.5,-1022 12.5,-923 361.5,-923 361.5,-1022"/>
<text text-anchor="middle" x="187" y="-1006.8" font-family="Times,serif" font-size="14.00" fill="white">TableScan</text>
<text text-anchor="middle" x="187" y="-991.8" font-family="Times,serif" font-size="14.00" fill="white">Impl: ExpressionEvaluator</text>
<text text-anchor="middle" x="187" y="-976.8" font-family="Times,serif" font-size="14.00" fill="white">(SUBSTR(c_phone,1,2)) IN (&#39;16&#39;, &#39;21&#39;, &#39;27&#39;, &#39;22&#39;,</text>
<text text-anchor="middle" x="187" y="-961.8" font-family="Times,serif" font-size="14.00" fill="white">&#39;23&#39;, &#39;10&#39;, &#39;26&#39;)</text>
<text text-anchor="middle" x="187" y="-930.8" font-family="Times,serif" font-size="14.00" fill="white">19 ms 357 µs</text>
</a>
</g>
</g>
<!-- 140283381129296&#45;&gt;140283381130256 -->
<g id="edge6" class="edge">
<title>140283381129296&#45;&gt;140283381130256</title>
<path fill="none" stroke="white" d="M193.21,-1022.31C196.48,-1033.93 201.45,-1045.65 209,-1055 212.29,-1059.07 215.99,-1062.86 219.97,-1066.37"/>
<polygon fill="white" stroke="white" points="220.16,-1066.52 217.97,-1069.25 227.95,-1072.79 220.16,-1066.52"/>
<text text-anchor="middle" x="307" y="-1043.8" font-family="Times,serif" font-size="14.00" fill="white">190,748 row(s)/23 chunk(s)</text>
</g>
<!-- 140283381128976 -->
<g id="node8" class="node">
<title>140283381128976</title>
<g id="a_node8"><a xlink:title="Output: 681187 rows in 23 chunks filtered: 0, 4 ms 584 µs.&#10;Chunks: 0 skipped with no results, &#10;0 skipped with all matching, 0 scanned using binary search.">
<polygon fill="none" stroke="white" stroke-width="1.73" points="358,-857 0,-857 0,-773 358,-773 358,-857"/>
<text text-anchor="middle" x="179" y="-841.8" font-family="Times,serif" font-size="14.00" fill="white">TableScan</text>
<text text-anchor="middle" x="179" y="-826.8" font-family="Times,serif" font-size="14.00" fill="white">Impl: ColumnVsValue</text>
<text text-anchor="middle" x="179" y="-811.8" font-family="Times,serif" font-size="14.00" fill="white">c_acctbal &gt; SUBQUERY (PQP, 0x7f99b90eec10)</text>
<text text-anchor="middle" x="179" y="-780.8" font-family="Times,serif" font-size="14.00" fill="white">4 ms 584 µs</text>
</a>
</g>
</g>
<!-- 140283381128976&#45;&gt;140283381129296 -->
<g id="edge7" class="edge">
<title>140283381128976&#45;&gt;140283381129296</title>
<path fill="none" stroke="white" d="M181.12,-857.26C182,-874.27 183.03,-894.29 183.98,-912.77"/>
<polygon fill="white" stroke="white" points="180.49,-913.05 184.5,-922.86 187.48,-912.69 180.49,-913.05"/>
<text text-anchor="middle" x="282" y="-893.8" font-family="Times,serif" font-size="14.00" fill="white">681,187 row(s)/23 chunk(s)</text>
</g>
<!-- 140298210817296 -->
<g id="node9" class="node">
<title>140298210817296</title>
<g id="a_node9"><a xlink:title="Output: 1500000 rows in 23 chunks filtered: 0, 103 µs 927 ns.">
<polygon fill="none" stroke="white" points="121.5,-692 4.5,-692 4.5,-638 121.5,-638 121.5,-692"/>
<text text-anchor="middle" x="63" y="-676.8" font-family="Times,serif" font-size="14.00" fill="white">Validate</text>
<text text-anchor="middle" x="63" y="-645.8" font-family="Times,serif" font-size="14.00" fill="white">103 µs 927 ns</text>
</a>
</g>
</g>
<!-- 140298210817296&#45;&gt;140283381128976 -->
<g id="edge8" class="edge">
<title>140298210817296&#45;&gt;140283381128976</title>
<path fill="none" stroke="white" stroke-width="2.32" d="M59.3,-692.3C58.49,-707.24 59.74,-725.74 68,-740 73.7,-749.84 81.3,-758.63 89.86,-766.41"/>
<polygon fill="white" stroke="white" stroke-width="2.32" points="87.72,-769.18 97.61,-772.99 92.25,-763.85 87.72,-769.18"/>
<text text-anchor="middle" x="173" y="-728.8" font-family="Times,serif" font-size="14.00" fill="white">1,500,000 row(s)/23 chunk(s)</text>
</g>
<!-- 140283518165328 -->
<g id="node10" class="node">
<title>140283518165328</title>
<g id="a_node10"><a xlink:title="Output: 1500000 rows in 23 chunks filtered: 0, 75 µs 344 ns.">
<polygon fill="none" stroke="white" points="119.5,-572 6.5,-572 6.5,-458 119.5,-458 119.5,-572"/>
<text text-anchor="middle" x="63" y="-556.8" font-family="Times,serif" font-size="14.00" fill="white">GetTable</text>
<text text-anchor="middle" x="63" y="-541.8" font-family="Times,serif" font-size="14.00" fill="white">(customer)</text>
<text text-anchor="middle" x="63" y="-526.8" font-family="Times,serif" font-size="14.00" fill="white">pruned:</text>
<text text-anchor="middle" x="63" y="-511.8" font-family="Times,serif" font-size="14.00" fill="white">0/23 chunk(s)</text>
<text text-anchor="middle" x="63" y="-496.8" font-family="Times,serif" font-size="14.00" fill="white">5/8 column(s)</text>
<text text-anchor="middle" x="63" y="-465.8" font-family="Times,serif" font-size="14.00" fill="white">75 µs 344 ns</text>
</a>
</g>
</g>
<!-- 140283518165328&#45;&gt;140298210817296 -->
<g id="edge9" class="edge">
<title>140283518165328&#45;&gt;140298210817296</title>
<path fill="none" stroke="white" stroke-width="2.32" d="M63,-572.37C63,-590.87 63,-610.92 63,-627.54"/>
<polygon fill="white" stroke="white" stroke-width="2.32" points="59.5,-627.92 63,-637.92 66.5,-627.92 59.5,-627.92"/>
<text text-anchor="middle" x="168" y="-593.8" font-family="Times,serif" font-size="14.00" fill="white">1,500,000 row(s)/23 chunk(s)</text>
</g>
<!-- 140298211486736 -->
<g id="node11" class="node">
<title>140298211486736</title>
<g id="a_node11"><a xlink:title="Output: 1 row in 1 chunk filtered: 0, 2 ms 912 µs.&#10;Operator step runtimes:&#10; GroupByKeyPartitioning 36 ns&#10; Aggregating 2 ms 882 µs&#10; GroupByColumnsWriting 891 ns&#10; AggregateColumnsWriting 13 µs 440 ns&#10; OutputWriting 7 µs 522 ns.">
<polygon fill="none" stroke="white" points="366,-707 238,-707 238,-623 366,-623 366,-707"/>
<text text-anchor="middle" x="302" y="-691.8" font-family="Times,serif" font-size="14.00" fill="white">AggregateHash</text>
<text text-anchor="middle" x="302" y="-676.8" font-family="Times,serif" font-size="14.00" fill="white">GroupBy {}</text>
<text text-anchor="middle" x="302" y="-661.8" font-family="Times,serif" font-size="14.00" fill="white">AVG(c_acctbal)</text>
<text text-anchor="middle" x="302" y="-630.8" font-family="Times,serif" font-size="14.00" fill="white">2 ms 912 µs</text>
</a>
</g>
</g>
<!-- 140298211486736&#45;&gt;140283381128976 -->
<g id="edge10" class="edge">
<title>140298211486736&#45;&gt;140283381128976</title>
<path fill="none" stroke="white" stroke-dasharray="5,2" d="M293.5,-707.29C289.92,-718.57 284.92,-730.34 278,-740 271.17,-749.54 262.74,-758.38 253.7,-766.39"/>
<polygon fill="white" stroke="white" points="251.37,-763.78 246,-772.92 255.89,-769.13 251.37,-763.78"/>
<text text-anchor="middle" x="368.5" y="-728.8" font-family="Times,serif" font-size="14.00" fill="white">uncorrelated subquery</text>
</g>
<!-- 140283381130896 -->
<g id="node12" class="node">
<title>140283381130896</title>
<g id="a_node12"><a xlink:title="Output: 381390 rows in 23 chunks filtered: 0, 38 ms 303 µs.&#10;Chunks: 0 skipped with no results, &#10;0 skipped with all matching, 0 scanned using binary search.">
<polygon fill="none" stroke="white" stroke-width="6.97" points="486.5,-564.5 137.5,-564.5 137.5,-465.5 486.5,-465.5 486.5,-564.5"/>
<text text-anchor="middle" x="312" y="-549.3" font-family="Times,serif" font-size="14.00" fill="white">TableScan</text>
<text text-anchor="middle" x="312" y="-534.3" font-family="Times,serif" font-size="14.00" fill="white">Impl: ExpressionEvaluator</text>
<text text-anchor="middle" x="312" y="-519.3" font-family="Times,serif" font-size="14.00" fill="white">(SUBSTR(c_phone,1,2)) IN (&#39;16&#39;, &#39;21&#39;, &#39;27&#39;, &#39;22&#39;,</text>
<text text-anchor="middle" x="312" y="-504.3" font-family="Times,serif" font-size="14.00" fill="white">&#39;23&#39;, &#39;10&#39;, &#39;26&#39;)</text>
<text text-anchor="middle" x="312" y="-473.3" font-family="Times,serif" font-size="14.00" fill="white">38 ms 303 µs</text>
</a>
</g>
</g>
<!-- 140283381130896&#45;&gt;140298211486736 -->
<g id="edge11" class="edge">
<title>140283381130896&#45;&gt;140298211486736</title>
<path fill="none" stroke="white" d="M308.7,-564.87C307.67,-580.06 306.54,-596.85 305.5,-612.23"/>
<polygon fill="white" stroke="white" points="301.98,-612.4 304.8,-622.61 308.96,-612.87 301.98,-612.4"/>
<text text-anchor="middle" x="405" y="-593.8" font-family="Times,serif" font-size="14.00" fill="white">381,390 row(s)/23 chunk(s)</text>
</g>
<!-- 140298211589904 -->
<g id="node13" class="node">
<title>140298211589904</title>
<g id="a_node13"><a xlink:title="Output: 1363614 rows in 23 chunks filtered: 0, 109 µs 515 ns.">
<polygon fill="none" stroke="white" points="370.5,-407 253.5,-407 253.5,-353 370.5,-353 370.5,-407"/>
<text text-anchor="middle" x="312" y="-391.8" font-family="Times,serif" font-size="14.00" fill="white">Validate</text>
<text text-anchor="middle" x="312" y="-360.8" font-family="Times,serif" font-size="14.00" fill="white">109 µs 515 ns</text>
</a>
</g>
</g>
<!-- 140298211589904&#45;&gt;140283381130896 -->
<g id="edge12" class="edge">
<title>140298211589904&#45;&gt;140283381130896</title>
<path fill="none" stroke="white" stroke-width="2.09" d="M312,-407.28C312,-421.01 312,-438.4 312,-455.14"/>
<polygon fill="white" stroke="white" stroke-width="2.09" points="308.5,-455.44 312,-465.44 315.5,-455.44 308.5,-455.44"/>
<text text-anchor="middle" x="417" y="-428.8" font-family="Times,serif" font-size="14.00" fill="white">1,363,614 row(s)/23 chunk(s)</text>
</g>
<!-- 140283381130576 -->
<g id="node14" class="node">
<title>140283381130576</title>
<g id="a_node14"><a xlink:title="Output: 1363614 rows in 23 chunks filtered: 0, 1 ms 388 µs.&#10;Chunks: 0 skipped with no results, &#10;0 skipped with all matching, 0 scanned using binary search.">
<polygon fill="none" stroke="white" points="396.5,-302 227.5,-302 227.5,-218 396.5,-218 396.5,-302"/>
<text text-anchor="middle" x="312" y="-286.8" font-family="Times,serif" font-size="14.00" fill="white">TableScan</text>
<text text-anchor="middle" x="312" y="-271.8" font-family="Times,serif" font-size="14.00" fill="white">Impl: ColumnVsValue</text>
<text text-anchor="middle" x="312" y="-256.8" font-family="Times,serif" font-size="14.00" fill="white">c_acctbal &gt; 0</text>
<text text-anchor="middle" x="312" y="-225.8" font-family="Times,serif" font-size="14.00" fill="white">1 ms 388 µs</text>
</a>
</g>
</g>
<!-- 140283381130576&#45;&gt;140298211589904 -->
<g id="edge13" class="edge">
<title>140283381130576&#45;&gt;140298211589904</title>
<path fill="none" stroke="white" stroke-width="2.09" d="M312,-302.27C312,-315.36 312,-329.72 312,-342.45"/>
<polygon fill="white" stroke="white" stroke-width="2.09" points="308.5,-342.69 312,-352.69 315.5,-342.69 308.5,-342.69"/>
<text text-anchor="middle" x="417" y="-323.8" font-family="Times,serif" font-size="14.00" fill="white">1,363,614 row(s)/23 chunk(s)</text>
</g>
<!-- 140283518167120 -->
<g id="node15" class="node">
<title>140283518167120</title>
<g id="a_node15"><a xlink:title="Output: 1500000 rows in 23 chunks filtered: 0, 102 µs 660 ns.">
<polygon fill="none" stroke="white" points="370.5,-140.5 253.5,-140.5 253.5,-26.5 370.5,-26.5 370.5,-140.5"/>
<text text-anchor="middle" x="312" y="-125.3" font-family="Times,serif" font-size="14.00" fill="white">GetTable</text>
<text text-anchor="middle" x="312" y="-110.3" font-family="Times,serif" font-size="14.00" fill="white">(customer)</text>
<text text-anchor="middle" x="312" y="-95.3" font-family="Times,serif" font-size="14.00" fill="white">pruned:</text>
<text text-anchor="middle" x="312" y="-80.3" font-family="Times,serif" font-size="14.00" fill="white">0/23 chunk(s)</text>
<text text-anchor="middle" x="312" y="-65.3" font-family="Times,serif" font-size="14.00" fill="white">5/8 column(s)</text>
<text text-anchor="middle" x="312" y="-34.3" font-family="Times,serif" font-size="14.00" fill="white">102 µs 660 ns</text>
</a>
</g>
</g>
<!-- 140283518167120&#45;&gt;140283381130576 -->
<g id="edge14" class="edge">
<title>140283518167120&#45;&gt;140283381130576</title>
<path fill="none" stroke="white" stroke-width="2.32" d="M312,-140.67C312,-162.25 312,-186.74 312,-207.83"/>
<polygon fill="white" stroke="white" stroke-width="2.32" points="308.5,-207.87 312,-217.87 315.5,-207.87 308.5,-207.87"/>
<text text-anchor="middle" x="417" y="-188.8" font-family="Times,serif" font-size="14.00" fill="white">1,500,000 row(s)/23 chunk(s)</text>
</g>
<!-- 140298211589648 -->
<g id="node16" class="node">
<title>140298211589648</title>
<g id="a_node16"><a xlink:title="Output: 15000000 rows in 229 chunks filtered: 0, 4 ms 741 µs.">
<polygon fill="none" stroke="white" stroke-width="1.81" points="487,-999.5 383,-999.5 383,-945.5 487,-945.5 487,-999.5"/>
<text text-anchor="middle" x="435" y="-984.3" font-family="Times,serif" font-size="14.00" fill="white">Validate</text>
<text text-anchor="middle" x="435" y="-953.3" font-family="Times,serif" font-size="14.00" fill="white">4 ms 741 µs</text>
</a>
</g>
</g>
<!-- 140298211589648&#45;&gt;140283381130256 -->
<g id="edge15" class="edge">
<title>140298211589648&#45;&gt;140283381130256</title>
<path fill="none" stroke="white" stroke-width="8" d="M430.36,-999.85C426.19,-1017.17 418.55,-1039.41 405,-1055 401.36,-1059.19 397.28,-1063.1 392.93,-1066.74"/>
<polygon fill="white" stroke="white" stroke-width="8" points="384.82,-1072.99 397.01,-1072.43 392.74,-1066.88 384.82,-1072.99"/>
<text text-anchor="middle" x="529" y="-1043.8" font-family="Times,serif" font-size="14.00" fill="white">15,000,000 row(s)/229 chunk(s)</text>
</g>
<!-- 140283518167568 -->
<g id="node17" class="node">
<title>140283518167568</title>
<g id="a_node17"><a xlink:title="Output: 15000000 rows in 229 chunks filtered: 0, 218 µs 877 ns.">
<polygon fill="none" stroke="white" points="498,-872 376,-872 376,-758 498,-758 498,-872"/>
<text text-anchor="middle" x="437" y="-856.8" font-family="Times,serif" font-size="14.00" fill="white">GetTable</text>
<text text-anchor="middle" x="437" y="-841.8" font-family="Times,serif" font-size="14.00" fill="white">(orders)</text>
<text text-anchor="middle" x="437" y="-826.8" font-family="Times,serif" font-size="14.00" fill="white">pruned:</text>
<text text-anchor="middle" x="437" y="-811.8" font-family="Times,serif" font-size="14.00" fill="white">0/229 chunk(s)</text>
<text text-anchor="middle" x="437" y="-796.8" font-family="Times,serif" font-size="14.00" fill="white">8/9 column(s)</text>
<text text-anchor="middle" x="437" y="-765.8" font-family="Times,serif" font-size="14.00" fill="white">218 µs 877 ns</text>
</a>
</g>
</g>
<!-- 140283518167568&#45;&gt;140298211589648 -->
<g id="edge16" class="edge">
<title>140283518167568&#45;&gt;140298211589648</title>
<path fill="none" stroke="white" stroke-width="8" d="M436.28,-872.14C436.01,-893.18 435.71,-916.52 435.47,-935.28"/>
<polygon fill="white" stroke="white" stroke-width="8" points="428.46,-935.38 435.33,-945.47 442.46,-935.56 428.46,-935.38"/>
<text text-anchor="middle" x="550" y="-893.8" font-family="Times,serif" font-size="14.00" fill="white">15,000,000 row(s)/229 chunk(s)</text>
</g>
<!-- 0 -->
<g id="node18" class="node">
<title>0</title>
<polygon fill="none" stroke="white" points="388.5,-0.5 388.5,-166.5 739.5,-166.5 739.5,-0.5 388.5,-0.5"/>
<text text-anchor="middle" x="564" y="-151.3" font-family="Times,serif" font-size="14.00" fill="white">Total by operator</text>
<polyline fill="none" stroke="white" points="388.5,-143.5 739.5,-143.5 "/>
<text text-anchor="end" x="547.5" y="-128.3" font-family="Times,serif" font-size="14.00" fill="white">TableScan </text>
<text text-anchor="end" x="547.5" y="-113.3" font-family="Times,serif" font-size="14.00" fill="white"> JoinSimdSortMerge </text>
<text text-anchor="end" x="547.5" y="-98.3" font-family="Times,serif" font-size="14.00" fill="white"> AggregateHash </text>
<text text-anchor="end" x="547.5" y="-83.3" font-family="Times,serif" font-size="14.00" fill="white"> Validate </text>
<text text-anchor="end" x="547.5" y="-68.3" font-family="Times,serif" font-size="14.00" fill="white"> Projection </text>
<text text-anchor="end" x="547.5" y="-53.3" font-family="Times,serif" font-size="14.00" fill="white"> GetTable </text>
<text text-anchor="end" x="547.5" y="-38.3" font-family="Times,serif" font-size="14.00" fill="white"> Alias </text>
<text text-anchor="end" x="547.5" y="-23.3" font-family="Times,serif" font-size="14.00" fill="white"> Sort </text>
<text text-anchor="end" x="547.5" y="-8.3" font-family="Times,serif" font-size="14.00" fill="white">total</text>
<polyline fill="none" stroke="white" points="555.5,-0.5 555.5,-143.5 "/>
<text text-anchor="start" x="563.5" y="-128.3" font-family="Times,serif" font-size="14.00" fill="white">63 ms 633 µs </text>
<text text-anchor="start" x="563.5" y="-113.3" font-family="Times,serif" font-size="14.00" fill="white"> 58 ms 205 µs </text>
<text text-anchor="start" x="563.5" y="-98.3" font-family="Times,serif" font-size="14.00" fill="white"> 9 ms 649 µs </text>
<text text-anchor="start" x="563.5" y="-83.3" font-family="Times,serif" font-size="14.00" fill="white"> 4 ms 954 µs </text>
<text text-anchor="start" x="563.5" y="-68.3" font-family="Times,serif" font-size="14.00" fill="white"> 1 ms 582 µs </text>
<text text-anchor="start" x="563.5" y="-53.3" font-family="Times,serif" font-size="14.00" fill="white"> 396 µs 881 ns </text>
<text text-anchor="start" x="563.5" y="-38.3" font-family="Times,serif" font-size="14.00" fill="white"> 50 µs 565 ns </text>
<text text-anchor="start" x="563.5" y="-23.3" font-family="Times,serif" font-size="14.00" fill="white"> 18 µs 256 ns </text>
<text text-anchor="start" x="563.5" y="-8.3" font-family="Times,serif" font-size="14.00" fill="white"> 138 ms 488 µs </text>
<polyline fill="none" stroke="white" points="686.5,-0.5 686.5,-143.5 "/>
<text text-anchor="start" x="694.5" y="-128.3" font-family="Times,serif" font-size="14.00" fill="white">46 %</text>
<text text-anchor="start" x="694.5" y="-113.3" font-family="Times,serif" font-size="14.00" fill="white">42 %</text>
<text text-anchor="start" x="694.5" y="-98.3" font-family="Times,serif" font-size="14.00" fill="white">7 %</text>
<text text-anchor="start" x="694.5" y="-83.3" font-family="Times,serif" font-size="14.00" fill="white">4 %</text>
<text text-anchor="start" x="694.5" y="-68.3" font-family="Times,serif" font-size="14.00" fill="white">1 %</text>
<text text-anchor="start" x="694.5" y="-53.3" font-family="Times,serif" font-size="14.00" fill="white">0 %</text>
<text text-anchor="start" x="694.5" y="-38.3" font-family="Times,serif" font-size="14.00" fill="white">0 %</text>
<text text-anchor="start" x="694.5" y="-23.3" font-family="Times,serif" font-size="14.00" fill="white">0 %</text>
<text text-anchor="start" x="694.5" y="-8.3" font-family="Times,serif" font-size="14.00" fill="white"> </text>
</g>
</g>
</svg>
