<?xml version="1.0" encoding="UTF-8" standalone="no"?>
<!DOCTYPE svg PUBLIC "-//W3C//DTD SVG 1.1//EN"
 "http://www.w3.org/Graphics/SVG/1.1/DTD/svg11.dtd">
<!-- Generated by graphviz version 2.43.0 (0)
 -->
<!-- Title: G Pages: 1 -->
<svg width="987pt" height="1670pt"
 viewBox="0.00 0.00 986.50 1670.00" xmlns="http://www.w3.org/2000/svg" xmlns:xlink="http://www.w3.org/1999/xlink">
<g id="graph0" class="graph" transform="scale(1 1) rotate(0) translate(4 1666)">
<title>G</title>
<polygon fill="black" stroke="transparent" points="-4,4 -4,-1666 982.5,-1666 982.5,4 -4,4"/>
<text text-anchor="middle" x="319.5" y="-1646.8" font-family="Times,serif" font-size="14.00" fill="white">For tooltips with advanced information, hover your mouse over vertices or edge labels.</text>
<!-- 281411114464336 -->
<g id="node1" class="node">
<title>281411114464336</title>
<g id="a_node1"><a xlink:title="Output: 100 rows in 1 chunk filtered: 0, 8 µs 160 ns.&#10;Operator step runtimes:&#10; ForwardUnmodifiedColumns 3 µs 72 ns&#10; EvaluateNewColumns 384 ns&#10; BuildOutput 3 µs 264 ns.">
<polygon fill="none" stroke="white" points="608,-1607 509,-1607 509,-1553 608,-1553 608,-1607"/>
<text text-anchor="middle" x="558.5" y="-1591.8" font-family="Times,serif" font-size="14.00" fill="white">Projection</text>
<text text-anchor="middle" x="558.5" y="-1560.8" font-family="Times,serif" font-size="14.00" fill="white">8 µs 160 ns</text>
</a>
</g>
</g>
<!-- 281411114464656 -->
<g id="node2" class="node">
<title>281411114464656</title>
<g id="a_node2"><a xlink:title="Output: 100 rows in 1 chunk filtered: 0, 8 µs 704 ns.">
<polygon fill="none" stroke="white" points="608,-1502 509,-1502 509,-1448 608,-1448 608,-1502"/>
<text text-anchor="middle" x="558.5" y="-1486.8" font-family="Times,serif" font-size="14.00" fill="white">Limit</text>
<text text-anchor="middle" x="558.5" y="-1455.8" font-family="Times,serif" font-size="14.00" fill="white">8 µs 704 ns</text>
</a>
</g>
</g>
<!-- 281411114464656&#45;&gt;281411114464336 -->
<g id="edge1" class="edge">
<title>281411114464656&#45;&gt;281411114464336</title>
<path fill="none" stroke="white" d="M558.5,-1502.26C558.5,-1514.49 558.5,-1529.24 558.5,-1542.52"/>
<polygon fill="white" stroke="white" points="555,-1542.79 558.5,-1552.79 562,-1542.79 555,-1542.79"/>
<text text-anchor="middle" x="636.5" y="-1523.8" font-family="Times,serif" font-size="14.00" fill="white">100 row(s)/1 chunk(s)</text>
</g>
<!-- 281411114464976 -->
<g id="node3" class="node">
<title>281411114464976</title>
<g id="a_node3"><a xlink:title="Output: 111 rows in 1 chunk filtered: 0, 297 µs 283 ns.&#10;Operator step runtimes:&#10; MaterializeSortColumns 260 µs 451 ns&#10; Sort 22 µs 592 ns&#10; TemporaryResultWriting 1 µs 152 ns&#10; WriteOutput 9 µs 280 ns.">
<polygon fill="none" stroke="white" points="617,-1397 500,-1397 500,-1343 617,-1343 617,-1397"/>
<text text-anchor="middle" x="558.5" y="-1381.8" font-family="Times,serif" font-size="14.00" fill="white">Sort</text>
<text text-anchor="middle" x="558.5" y="-1350.8" font-family="Times,serif" font-size="14.00" fill="white">297 µs 283 ns</text>
</a>
</g>
</g>
<!-- 281411114464976&#45;&gt;281411114464656 -->
<g id="edge2" class="edge">
<title>281411114464976&#45;&gt;281411114464656</title>
<path fill="none" stroke="white" d="M558.5,-1397.26C558.5,-1409.49 558.5,-1424.24 558.5,-1437.52"/>
<polygon fill="white" stroke="white" points="555,-1437.79 558.5,-1447.79 562,-1437.79 555,-1437.79"/>
<text text-anchor="middle" x="636.5" y="-1418.8" font-family="Times,serif" font-size="14.00" fill="white">111 row(s)/1 chunk(s)</text>
</g>
<!-- 281411095101456 -->
<g id="node4" class="node">
<title>281411095101456</title>
<g id="a_node4"><a xlink:title="Output: 111 rows in 1 chunk filtered: 0, 390 µs 116 ns.&#10;Operator step runtimes:&#10; GroupByKeyPartitioning 134 µs 306 ns&#10; Aggregating 228 µs 66 ns&#10; GroupByColumnsWriting 9 µs 632 ns&#10; AggregateColumnsWriting 6 µs 400 ns&#10; OutputWriting 4 µs 480 ns.">
<polygon fill="none" stroke="white" points="640.5,-1292 476.5,-1292 476.5,-1148 640.5,-1148 640.5,-1292"/>
<text text-anchor="middle" x="558.5" y="-1276.8" font-family="Times,serif" font-size="14.00" fill="white">AggregateHash</text>
<text text-anchor="middle" x="558.5" y="-1261.8" font-family="Times,serif" font-size="14.00" fill="white">GroupBy {c_custkey,</text>
<text text-anchor="middle" x="558.5" y="-1246.8" font-family="Times,serif" font-size="14.00" fill="white">o_orderkey}</text>
<text text-anchor="middle" x="558.5" y="-1231.8" font-family="Times,serif" font-size="14.00" fill="white">SUM(l_quantity), </text>
<text text-anchor="middle" x="558.5" y="-1216.8" font-family="Times,serif" font-size="14.00" fill="white">ANY(c_name), </text>
<text text-anchor="middle" x="558.5" y="-1201.8" font-family="Times,serif" font-size="14.00" fill="white">ANY(o_totalprice), </text>
<text text-anchor="middle" x="558.5" y="-1186.8" font-family="Times,serif" font-size="14.00" fill="white">ANY(o_orderdate)</text>
<text text-anchor="middle" x="558.5" y="-1155.8" font-family="Times,serif" font-size="14.00" fill="white">390 µs 116 ns</text>
</a>
</g>
</g>
<!-- 281411095101456&#45;&gt;281411114464976 -->
<g id="edge3" class="edge">
<title>281411095101456&#45;&gt;281411114464976</title>
<path fill="none" stroke="white" d="M558.5,-1292.4C558.5,-1306.35 558.5,-1320.42 558.5,-1332.63"/>
<polygon fill="white" stroke="white" points="555,-1332.83 558.5,-1342.83 562,-1332.83 555,-1332.83"/>
<text text-anchor="middle" x="636.5" y="-1313.8" font-family="Times,serif" font-size="14.00" fill="white">111 row(s)/1 chunk(s)</text>
</g>
<!-- 281411114465296 -->
<g id="node5" class="node">
<title>281411114465296</title>
<g id="a_node5"><a xlink:title="Output: 777 rows in 2 chunks filtered: 59960179, 16 ms 708 µs.&#10;Operator step runtimes:&#10; BuildSideMaterializing 112 µs 385 ns&#10; ProbeSideMaterializing 13 ms 978 µs&#10; Clustering 0 ns&#10; Building 9 µs 280 ns&#10; Probing 865 µs 257 ns&#10; OutputWriting 496 µs 197 ns.&#10;Radix bits: 0.&#10;Build side is right.">
<polygon fill="none" stroke="white" points="654,-1097 463,-1097 463,-1028 654,-1028 654,-1097"/>
<text text-anchor="middle" x="558.5" y="-1081.8" font-family="Times,serif" font-size="14.00" fill="white">JoinHash (Inner)</text>
<text text-anchor="middle" x="558.5" y="-1066.8" font-family="Times,serif" font-size="14.00" fill="white">l_orderkey = o_orderkey</text>
<text text-anchor="middle" x="558.5" y="-1035.8" font-family="Times,serif" font-size="14.00" fill="white">16 ms 708 µs</text>
</a>
</g>
</g>
<!-- 281411114465296&#45;&gt;281411095101456 -->
<g id="edge4" class="edge">
<title>281411114465296&#45;&gt;281411095101456</title>
<path fill="none" stroke="white" d="M558.5,-1097.24C558.5,-1109.24 558.5,-1123.34 558.5,-1137.59"/>
<polygon fill="white" stroke="white" points="555,-1137.97 558.5,-1147.97 562,-1137.97 555,-1137.97"/>
<text text-anchor="middle" x="636.5" y="-1118.8" font-family="Times,serif" font-size="14.00" fill="white">777 row(s)/2 chunk(s)</text>
</g>
<!-- 281411091300624 -->
<g id="node6" class="node">
<title>281411091300624</title>
<g id="a_node6"><a xlink:title="Output: 59986052 rows in 916 chunks filtered: 0, 2 ms 303 µs.">
<polygon fill="none" stroke="white" points="631.5,-272 527.5,-272 527.5,-218 631.5,-218 631.5,-272"/>
<text text-anchor="middle" x="579.5" y="-256.8" font-family="Times,serif" font-size="14.00" fill="white">Validate</text>
<text text-anchor="middle" x="579.5" y="-225.8" font-family="Times,serif" font-size="14.00" fill="white">2 ms 303 µs</text>
</a>
</g>
</g>
<!-- 281411091300624&#45;&gt;281411114465296 -->
<g id="edge5" class="edge">
<title>281411091300624&#45;&gt;281411114465296</title>
<path fill="none" stroke="white" stroke-width="8" d="M631.75,-250.13C660.5,-255.17 694.5,-266.17 715.5,-290 737.63,-315.11 729.5,-330.53 729.5,-364 729.5,-364 729.5,-364 729.5,-943.5 729.5,-982.57 698.88,-1009.7 663.56,-1028.01"/>
<polygon fill="white" stroke="white" stroke-width="8" points="663.47,-1028.05 660.38,-1021.77 654.5,-1032.47 663.47,-1028.05"/>
<text text-anchor="middle" x="843.5" y="-676.3" font-family="Times,serif" font-size="14.00" fill="white">59,986,052 row(s)/916 chunk(s)</text>
</g>
<!-- 281411095101968 -->
<g id="node14" class="node">
<title>281411095101968</title>
<g id="a_node14"><a xlink:title="Output: 15000000 rows in 916 chunks filtered: 0, 538 ms 9 µs.&#10;Operator step runtimes:&#10; GroupByKeyPartitioning 188 ms 526 µs&#10; Aggregating 336 ms 134 µs&#10; GroupByColumnsWriting 5 ms 45 µs&#10; AggregateColumnsWriting 7 ms 353 µs&#10; OutputWriting 486 µs 20 ns.">
<polygon fill="none" stroke="white" stroke-width="8" points="519,-407 342,-407 342,-323 519,-323 519,-407"/>
<text text-anchor="middle" x="430.5" y="-391.8" font-family="Times,serif" font-size="14.00" fill="white">AggregateHash</text>
<text text-anchor="middle" x="430.5" y="-376.8" font-family="Times,serif" font-size="14.00" fill="white">GroupBy {l_orderkey}</text>
<text text-anchor="middle" x="430.5" y="-361.8" font-family="Times,serif" font-size="14.00" fill="white">SUM(l_quantity)</text>
<text text-anchor="middle" x="430.5" y="-330.8" font-family="Times,serif" font-size="14.00" fill="white">538 ms 9 µs</text>
</a>
</g>
</g>
<!-- 281411091300624&#45;&gt;281411095101968 -->
<g id="edge6" class="edge">
<title>281411091300624&#45;&gt;281411095101968</title>
<path fill="none" stroke="white" stroke-width="8" d="M527.33,-265.77C513.6,-272.31 499.34,-280.42 487.5,-290 478.63,-297.18 470.32,-306 462.95,-315.03"/>
<polygon fill="white" stroke="white" stroke-width="8" points="457.38,-310.78 456.72,-322.97 468.4,-319.43 457.38,-310.78"/>
<text text-anchor="middle" x="601.5" y="-293.8" font-family="Times,serif" font-size="14.00" fill="white">59,986,052 row(s)/916 chunk(s)</text>
</g>
<!-- 281411121715792 -->
<g id="node7" class="node">
<title>281411121715792</title>
<g id="a_node7"><a xlink:title="Output: 59986052 rows in 916 chunks filtered: 0, 1 ms 347 µs.">
<polygon fill="none" stroke="white" points="645,-140.5 514,-140.5 514,-26.5 645,-26.5 645,-140.5"/>
<text text-anchor="middle" x="579.5" y="-125.3" font-family="Times,serif" font-size="14.00" fill="white">GetTable</text>
<text text-anchor="middle" x="579.5" y="-110.3" font-family="Times,serif" font-size="14.00" fill="white">(lineitem)</text>
<text text-anchor="middle" x="579.5" y="-95.3" font-family="Times,serif" font-size="14.00" fill="white">pruned:</text>
<text text-anchor="middle" x="579.5" y="-80.3" font-family="Times,serif" font-size="14.00" fill="white">0/916 chunk(s)</text>
<text text-anchor="middle" x="579.5" y="-65.3" font-family="Times,serif" font-size="14.00" fill="white">14/16 column(s)</text>
<text text-anchor="middle" x="579.5" y="-34.3" font-family="Times,serif" font-size="14.00" fill="white">1 ms 347 µs</text>
</a>
</g>
</g>
<!-- 281411121715792&#45;&gt;281411091300624 -->
<g id="edge7" class="edge">
<title>281411121715792&#45;&gt;281411091300624</title>
<path fill="none" stroke="white" stroke-width="8" d="M579.5,-140.73C579.5,-162.93 579.5,-187.8 579.5,-207.57"/>
<polygon fill="white" stroke="white" stroke-width="8" points="572.5,-207.69 579.5,-217.69 586.5,-207.69 572.5,-207.69"/>
<text text-anchor="middle" x="693.5" y="-188.8" font-family="Times,serif" font-size="14.00" fill="white">59,986,052 row(s)/916 chunk(s)</text>
</g>
<!-- 281411114466256 -->
<g id="node8" class="node">
<title>281411114466256</title>
<g id="a_node8"><a xlink:title="Output: 111 rows in 1 chunk filtered: 1499808, 755 µs 335 ns.&#10;Operator step runtimes:&#10; BuildSideMaterializing 148 µs 417 ns&#10; ProbeSideMaterializing 490 µs 533 ns&#10; Clustering 0 ns&#10; Building 6 µs 752 ns&#10; Probing 19 µs 808 ns&#10; OutputWriting 25 µs 856 ns.&#10;Radix bits: 0.&#10;Build side is left.">
<polygon fill="none" stroke="white" points="476.5,-977 300.5,-977 300.5,-908 476.5,-908 476.5,-977"/>
<text text-anchor="middle" x="388.5" y="-961.8" font-family="Times,serif" font-size="14.00" fill="white">JoinHash (Inner)</text>
<text text-anchor="middle" x="388.5" y="-946.8" font-family="Times,serif" font-size="14.00" fill="white">o_custkey = c_custkey</text>
<text text-anchor="middle" x="388.5" y="-915.8" font-family="Times,serif" font-size="14.00" fill="white">755 µs 335 ns</text>
</a>
</g>
</g>
<!-- 281411114466256&#45;&gt;281411114465296 -->
<g id="edge8" class="edge">
<title>281411114466256&#45;&gt;281411114465296</title>
<path fill="none" stroke="white" d="M437.22,-977.31C457.31,-991.26 480.73,-1007.52 501.6,-1022.01"/>
<polygon fill="white" stroke="white" points="510.07,-1027.89 503.85,-1019.31 501.86,-1022.18 510.07,-1027.89"/>
<text text-anchor="middle" x="562.5" y="-998.8" font-family="Times,serif" font-size="14.00" fill="white">111 row(s)/1 chunk(s)</text>
</g>
<!-- 281411114466576 -->
<g id="node9" class="node">
<title>281411114466576</title>
<g id="a_node9"><a xlink:title="Output: 111 rows in 1 chunk filtered: 14993642, 5 ms 619 µs.&#10;Operator step runtimes:&#10; BuildSideMaterializing 882 µs 793 ns&#10; ProbeSideMaterializing 3 ms 844 µs&#10; Clustering 0 ns&#10; Building 8 µs 448 ns&#10; Probing 94 µs 145 ns&#10; OutputWriting 324 µs 931 ns.&#10;Radix bits: 0.&#10;Build side is right.">
<polygon fill="none" stroke="white" points="484,-857 293,-857 293,-788 484,-788 484,-857"/>
<text text-anchor="middle" x="388.5" y="-841.8" font-family="Times,serif" font-size="14.00" fill="white">JoinHash (Semi)</text>
<text text-anchor="middle" x="388.5" y="-826.8" font-family="Times,serif" font-size="14.00" fill="white">o_orderkey = l_orderkey</text>
<text text-anchor="middle" x="388.5" y="-795.8" font-family="Times,serif" font-size="14.00" fill="white">5 ms 619 µs</text>
</a>
</g>
</g>
<!-- 281411114466576&#45;&gt;281411114466256 -->
<g id="edge9" class="edge">
<title>281411114466576&#45;&gt;281411114466256</title>
<path fill="none" stroke="white" d="M388.5,-857.31C388.5,-869.78 388.5,-884.1 388.5,-897.34"/>
<polygon fill="white" stroke="white" points="388.5,-897.68 385,-897.68 388.5,-907.68 388.5,-897.68"/>
<text text-anchor="middle" x="466.5" y="-878.8" font-family="Times,serif" font-size="14.00" fill="white">111 row(s)/1 chunk(s)</text>
</g>
<!-- 281411091300880 -->
<g id="node10" class="node">
<title>281411091300880</title>
<g id="a_node10"><a xlink:title="Output: 15000000 rows in 229 chunks filtered: 0, 659 µs 271 ns.">
<polygon fill="none" stroke="white" points="545,-707 428,-707 428,-653 545,-653 545,-707"/>
<text text-anchor="middle" x="486.5" y="-691.8" font-family="Times,serif" font-size="14.00" fill="white">Validate</text>
<text text-anchor="middle" x="486.5" y="-660.8" font-family="Times,serif" font-size="14.00" fill="white">659 µs 271 ns</text>
</a>
</g>
</g>
<!-- 281411091300880&#45;&gt;281411114466576 -->
<g id="edge10" class="edge">
<title>281411091300880&#45;&gt;281411114466576</title>
<path fill="none" stroke="white" stroke-width="4.58" d="M484.99,-707.2C482.78,-726.1 477.43,-751.46 464.5,-770 461.87,-773.78 458.86,-777.36 455.59,-780.74"/>
<polygon fill="white" stroke="white" stroke-width="4.58" points="455.36,-780.97 452.61,-778.05 448.08,-787.83 455.36,-780.97"/>
<text text-anchor="middle" x="586.5" y="-758.8" font-family="Times,serif" font-size="14.00" fill="white">15,000,000 row(s)/229 chunk(s)</text>
</g>
<!-- 281411121716240 -->
<g id="node11" class="node">
<title>281411121716240</title>
<g id="a_node11"><a xlink:title="Output: 15000000 rows in 229 chunks filtered: 0, 443 µs 204 ns.">
<polygon fill="none" stroke="white" points="547.5,-572 425.5,-572 425.5,-458 547.5,-458 547.5,-572"/>
<text text-anchor="middle" x="486.5" y="-556.8" font-family="Times,serif" font-size="14.00" fill="white">GetTable</text>
<text text-anchor="middle" x="486.5" y="-541.8" font-family="Times,serif" font-size="14.00" fill="white">(orders)</text>
<text text-anchor="middle" x="486.5" y="-526.8" font-family="Times,serif" font-size="14.00" fill="white">pruned:</text>
<text text-anchor="middle" x="486.5" y="-511.8" font-family="Times,serif" font-size="14.00" fill="white">0/229 chunk(s)</text>
<text text-anchor="middle" x="486.5" y="-496.8" font-family="Times,serif" font-size="14.00" fill="white">5/9 column(s)</text>
<text text-anchor="middle" x="486.5" y="-465.8" font-family="Times,serif" font-size="14.00" fill="white">443 µs 204 ns</text>
</a>
</g>
</g>
<!-- 281411121716240&#45;&gt;281411091300880 -->
<g id="edge11" class="edge">
<title>281411121716240&#45;&gt;281411091300880</title>
<path fill="none" stroke="white" stroke-width="4.58" d="M486.5,-572.1C486.5,-595.46 486.5,-621.93 486.5,-642.68"/>
<polygon fill="white" stroke="white" stroke-width="4.58" points="482.49,-642.97 486.5,-652.97 490.51,-642.97 482.49,-642.97"/>
<text text-anchor="middle" x="600.5" y="-593.8" font-family="Times,serif" font-size="14.00" fill="white">15,000,000 row(s)/229 chunk(s)</text>
</g>
<!-- 281411114465616 -->
<g id="node12" class="node">
<title>281411114465616</title>
<g id="a_node12"><a xlink:title="Output: 111 rows in 105 chunks filtered: 0, 61 µs 888 ns.&#10;Operator step runtimes:&#10; ForwardUnmodifiedColumns 24 µs 384 ns&#10; EvaluateNewColumns 160 ns&#10; BuildOutput 27 µs 520 ns.">
<polygon fill="none" stroke="white" points="343.5,-707 235.5,-707 235.5,-653 343.5,-653 343.5,-707"/>
<text text-anchor="middle" x="289.5" y="-691.8" font-family="Times,serif" font-size="14.00" fill="white">Projection</text>
<text text-anchor="middle" x="289.5" y="-660.8" font-family="Times,serif" font-size="14.00" fill="white">61 µs 888 ns</text>
</a>
</g>
</g>
<!-- 281411114465616&#45;&gt;281411114466576 -->
<g id="edge12" class="edge">
<title>281411114465616&#45;&gt;281411114466576</title>
<path fill="none" stroke="white" d="M281.4,-707.11C277.18,-725.96 274.99,-751.3 286.5,-770 288.9,-773.91 291.71,-777.53 294.81,-780.88"/>
<polygon fill="white" stroke="white" points="302.07,-787.81 297.26,-778.38 294.84,-780.91 302.07,-787.81"/>
<text text-anchor="middle" x="373.5" y="-758.8" font-family="Times,serif" font-size="14.00" fill="white">111 row(s)/105 chunk(s)</text>
</g>
<!-- 281411114465936 -->
<g id="node13" class="node">
<title>281411114465936</title>
<g id="a_node13"><a xlink:title="Output: 111 rows in 105 chunks filtered: 0, 1 ms 929 µs.&#10;Chunks: 0 skipped with no results, &#10;0 skipped with all matching, 0 scanned using binary search.">
<polygon fill="none" stroke="white" points="394.5,-557 212.5,-557 212.5,-473 394.5,-473 394.5,-557"/>
<text text-anchor="middle" x="303.5" y="-541.8" font-family="Times,serif" font-size="14.00" fill="white">TableScan</text>
<text text-anchor="middle" x="303.5" y="-526.8" font-family="Times,serif" font-size="14.00" fill="white">Impl: ColumnVsValue</text>
<text text-anchor="middle" x="303.5" y="-511.8" font-family="Times,serif" font-size="14.00" fill="white">SUM(l_quantity) &gt; 312</text>
<text text-anchor="middle" x="303.5" y="-480.8" font-family="Times,serif" font-size="14.00" fill="white">1 ms 929 µs</text>
</a>
</g>
</g>
<!-- 281411114465936&#45;&gt;281411114465616 -->
<g id="edge13" class="edge">
<title>281411114465936&#45;&gt;281411114465616</title>
<path fill="none" stroke="white" d="M299.97,-557.13C297.71,-583.37 294.82,-617.09 292.64,-642.4"/>
<polygon fill="white" stroke="white" points="289.13,-642.42 291.76,-652.69 296.1,-643.02 289.13,-642.42"/>
<text text-anchor="middle" x="384.5" y="-593.8" font-family="Times,serif" font-size="14.00" fill="white">111 row(s)/105 chunk(s)</text>
</g>
<!-- 281411095101968&#45;&gt;281411114465936 -->
<g id="edge14" class="edge">
<title>281411095101968&#45;&gt;281411114465936</title>
<path fill="none" stroke="white" stroke-width="4.58" d="M395.12,-407.23C379.64,-425.27 361.36,-446.57 345.22,-465.38"/>
<polygon fill="white" stroke="white" stroke-width="4.58" points="342.16,-462.8 338.69,-472.99 348.24,-468.02 342.16,-462.8"/>
<text text-anchor="middle" x="492.5" y="-428.8" font-family="Times,serif" font-size="14.00" fill="white">15,000,000 row(s)/916 chunk(s)</text>
</g>
<!-- 281411091302416 -->
<g id="node15" class="node">
<title>281411091302416</title>
<g id="a_node15"><a xlink:title="Output: 1500000 rows in 23 chunks filtered: 0, 75 µs 169 ns.">
<polygon fill="none" stroke="white" points="135.5,-849.5 27.5,-849.5 27.5,-795.5 135.5,-795.5 135.5,-849.5"/>
<text text-anchor="middle" x="81.5" y="-834.3" font-family="Times,serif" font-size="14.00" fill="white">Validate</text>
<text text-anchor="middle" x="81.5" y="-803.3" font-family="Times,serif" font-size="14.00" fill="white">75 µs 169 ns</text>
</a>
</g>
</g>
<!-- 281411091302416&#45;&gt;281411114466256 -->
<g id="edge15" class="edge">
<title>281411091302416&#45;&gt;281411114466256</title>
<path fill="none" stroke="white" d="M111.91,-849.82C129.23,-863.6 151.93,-879.69 174.5,-890 210.8,-906.58 253.09,-918.2 290.44,-926.15"/>
<polygon fill="white" stroke="white" points="300.33,-928.2 291.25,-922.74 290.54,-926.17 300.33,-928.2"/>
<text text-anchor="middle" x="279.5" y="-878.8" font-family="Times,serif" font-size="14.00" fill="white">1,500,000 row(s)/23 chunk(s)</text>
</g>
<!-- 281411121716688 -->
<g id="node16" class="node">
<title>281411121716688</title>
<g id="a_node16"><a xlink:title="Output: 1500000 rows in 23 chunks filtered: 0, 40 µs 480 ns.">
<polygon fill="none" stroke="white" points="113,-737 0,-737 0,-623 113,-623 113,-737"/>
<text text-anchor="middle" x="56.5" y="-721.8" font-family="Times,serif" font-size="14.00" fill="white">GetTable</text>
<text text-anchor="middle" x="56.5" y="-706.8" font-family="Times,serif" font-size="14.00" fill="white">(customer)</text>
<text text-anchor="middle" x="56.5" y="-691.8" font-family="Times,serif" font-size="14.00" fill="white">pruned:</text>
<text text-anchor="middle" x="56.5" y="-676.8" font-family="Times,serif" font-size="14.00" fill="white">0/23 chunk(s)</text>
<text text-anchor="middle" x="56.5" y="-661.8" font-family="Times,serif" font-size="14.00" fill="white">6/8 column(s)</text>
<text text-anchor="middle" x="56.5" y="-630.8" font-family="Times,serif" font-size="14.00" fill="white">40 µs 480 ns</text>
</a>
</g>
</g>
<!-- 281411121716688&#45;&gt;281411091302416 -->
<g id="edge16" class="edge">
<title>281411121716688&#45;&gt;281411091302416</title>
<path fill="none" stroke="white" d="M53.54,-737.45C53.97,-748.35 55.14,-759.6 57.5,-770 58.72,-775.35 60.54,-780.81 62.64,-786.07"/>
<polygon fill="white" stroke="white" points="59.46,-787.52 66.67,-795.27 65.87,-784.71 59.46,-787.52"/>
<text text-anchor="middle" x="162.5" y="-758.8" font-family="Times,serif" font-size="14.00" fill="white">1,500,000 row(s)/23 chunk(s)</text>
</g>
<!-- 0 -->
<g id="node17" class="node">
<title>0</title>
<polygon fill="none" stroke="white" points="662.5,-0.5 662.5,-166.5 978.5,-166.5 978.5,-0.5 662.5,-0.5"/>
<text text-anchor="middle" x="820.5" y="-151.3" font-family="Times,serif" font-size="14.00" fill="white">Total by operator</text>
<polyline fill="none" stroke="white" points="662.5,-143.5 978.5,-143.5 "/>
<text text-anchor="end" x="786.5" y="-128.3" font-family="Times,serif" font-size="14.00" fill="white">AggregateHash </text>
<text text-anchor="end" x="786.5" y="-113.3" font-family="Times,serif" font-size="14.00" fill="white"> JoinHash </text>
<text text-anchor="end" x="786.5" y="-98.3" font-family="Times,serif" font-size="14.00" fill="white"> Validate </text>
<text text-anchor="end" x="786.5" y="-83.3" font-family="Times,serif" font-size="14.00" fill="white"> TableScan </text>
<text text-anchor="end" x="786.5" y="-68.3" font-family="Times,serif" font-size="14.00" fill="white"> GetTable </text>
<text text-anchor="end" x="786.5" y="-53.3" font-family="Times,serif" font-size="14.00" fill="white"> Sort </text>
<text text-anchor="end" x="786.5" y="-38.3" font-family="Times,serif" font-size="14.00" fill="white"> Projection </text>
<text text-anchor="end" x="786.5" y="-23.3" font-family="Times,serif" font-size="14.00" fill="white"> Limit </text>
<text text-anchor="end" x="786.5" y="-8.3" font-family="Times,serif" font-size="14.00" fill="white">total</text>
<polyline fill="none" stroke="white" points="794.5,-0.5 794.5,-143.5 "/>
<text text-anchor="start" x="802.5" y="-128.3" font-family="Times,serif" font-size="14.00" fill="white">538 ms 399 µs </text>
<text text-anchor="start" x="802.5" y="-113.3" font-family="Times,serif" font-size="14.00" fill="white"> 23 ms 82 µs </text>
<text text-anchor="start" x="802.5" y="-98.3" font-family="Times,serif" font-size="14.00" fill="white"> 3 ms 38 µs </text>
<text text-anchor="start" x="802.5" y="-83.3" font-family="Times,serif" font-size="14.00" fill="white"> 1 ms 929 µs </text>
<text text-anchor="start" x="802.5" y="-68.3" font-family="Times,serif" font-size="14.00" fill="white"> 1 ms 831 µs </text>
<text text-anchor="start" x="802.5" y="-53.3" font-family="Times,serif" font-size="14.00" fill="white"> 297 µs 283 ns </text>
<text text-anchor="start" x="802.5" y="-38.3" font-family="Times,serif" font-size="14.00" fill="white"> 70 µs 48 ns </text>
<text text-anchor="start" x="802.5" y="-23.3" font-family="Times,serif" font-size="14.00" fill="white"> 8 µs 704 ns </text>
<text text-anchor="start" x="802.5" y="-8.3" font-family="Times,serif" font-size="14.00" fill="white"> 568 ms 654 µs </text>
<polyline fill="none" stroke="white" points="925.5,-0.5 925.5,-143.5 "/>
<text text-anchor="start" x="933.5" y="-128.3" font-family="Times,serif" font-size="14.00" fill="white">95 %</text>
<text text-anchor="start" x="933.5" y="-113.3" font-family="Times,serif" font-size="14.00" fill="white">4 %</text>
<text text-anchor="start" x="933.5" y="-98.3" font-family="Times,serif" font-size="14.00" fill="white">1 %</text>
<text text-anchor="start" x="933.5" y="-83.3" font-family="Times,serif" font-size="14.00" fill="white">0 %</text>
<text text-anchor="start" x="933.5" y="-68.3" font-family="Times,serif" font-size="14.00" fill="white">0 %</text>
<text text-anchor="start" x="933.5" y="-53.3" font-family="Times,serif" font-size="14.00" fill="white">0 %</text>
<text text-anchor="start" x="933.5" y="-38.3" font-family="Times,serif" font-size="14.00" fill="white">0 %</text>
<text text-anchor="start" x="933.5" y="-23.3" font-family="Times,serif" font-size="14.00" fill="white">0 %</text>
<text text-anchor="start" x="933.5" y="-8.3" font-family="Times,serif" font-size="14.00" fill="white"> </text>
</g>
</g>
</svg>
