<?xml version="1.0" encoding="UTF-8" standalone="no"?>
<!DOCTYPE svg PUBLIC "-//W3C//DTD SVG 1.1//EN"
 "http://www.w3.org/Graphics/SVG/1.1/DTD/svg11.dtd">
<!-- Generated by graphviz version 2.43.0 (0)
 -->
<!-- Title: G Pages: 1 -->
<svg width="766pt" height="2420pt"
 viewBox="0.00 0.00 765.50 2420.00" xmlns="http://www.w3.org/2000/svg" xmlns:xlink="http://www.w3.org/1999/xlink">
<g id="graph0" class="graph" transform="scale(1 1) rotate(0) translate(4 2416)">
<title>G</title>
<polygon fill="black" stroke="transparent" points="-4,4 -4,-2416 761.5,-2416 761.5,4 -4,4"/>
<text text-anchor="middle" x="319.5" y="-2396.8" font-family="Times,serif" font-size="14.00" fill="white">For tooltips with advanced information, hover your mouse over vertices or edge labels.</text>
<!-- 281439077361488 -->
<g id="node1" class="node">
<title>281439077361488</title>
<g id="a_node1"><a xlink:title="Output: 18064 rows in 1 chunk, 7 µs 808 ns.&#10;Operator step runtimes:&#10; ForwardUnmodifiedColumns 2 µs 752 ns&#10; EvaluateNewColumns 544 ns&#10; BuildOutput 3 µs 264 ns.">
<polygon fill="none" stroke="white" points="543,-2357 444,-2357 444,-2303 543,-2303 543,-2357"/>
<text text-anchor="middle" x="493.5" y="-2341.8" font-family="Times,serif" font-size="14.00" fill="white">Projection</text>
<text text-anchor="middle" x="493.5" y="-2310.8" font-family="Times,serif" font-size="14.00" fill="white">7 µs 808 ns</text>
</a>
</g>
</g>
<!-- 281439077361168 -->
<g id="node2" class="node">
<title>281439077361168</title>
<g id="a_node2"><a xlink:title="Output: 18064 rows in 1 chunk, 13 ms 642 µs.&#10;Operator step runtimes:&#10; MaterializeSortColumns 8 ms 750 µs&#10; Sort 4 ms 476 µs&#10; TemporaryResultWriting 54 µs 176 ns&#10; WriteOutput 168 µs 706 ns.">
<polygon fill="none" stroke="white" points="550,-2252 437,-2252 437,-2198 550,-2198 550,-2252"/>
<text text-anchor="middle" x="493.5" y="-2236.8" font-family="Times,serif" font-size="14.00" fill="white">Sort</text>
<text text-anchor="middle" x="493.5" y="-2205.8" font-family="Times,serif" font-size="14.00" fill="white">13 ms 642 µs</text>
</a>
</g>
</g>
<!-- 281439077361168&#45;&gt;281439077361488 -->
<g id="edge1" class="edge">
<title>281439077361168&#45;&gt;281439077361488</title>
<path fill="none" stroke="white" d="M493.5,-2252.26C493.5,-2264.49 493.5,-2279.24 493.5,-2292.52"/>
<polygon fill="white" stroke="white" points="490,-2292.79 493.5,-2302.79 497,-2292.79 490,-2292.79"/>
<text text-anchor="middle" x="582.5" y="-2273.8" font-family="Times,serif" font-size="14.00" fill="white">18,064 row(s)/1 chunk(s)</text>
</g>
<!-- 281439051228176 -->
<g id="node3" class="node">
<title>281439051228176</title>
<g id="a_node3"><a xlink:title="Output: 18064 rows in 4 chunks, 45 µs 857 ns.">
<polygon fill="none" stroke="white" points="547.5,-2147 439.5,-2147 439.5,-2093 547.5,-2093 547.5,-2147"/>
<text text-anchor="middle" x="493.5" y="-2131.8" font-family="Times,serif" font-size="14.00" fill="white">Validate</text>
<text text-anchor="middle" x="493.5" y="-2100.8" font-family="Times,serif" font-size="14.00" fill="white">45 µs 857 ns</text>
</a>
</g>
</g>
<!-- 281439051228176&#45;&gt;281439077361168 -->
<g id="edge2" class="edge">
<title>281439051228176&#45;&gt;281439077361168</title>
<path fill="none" stroke="white" d="M493.5,-2147.26C493.5,-2159.49 493.5,-2174.24 493.5,-2187.52"/>
<polygon fill="white" stroke="white" points="490,-2187.79 493.5,-2197.79 497,-2187.79 490,-2187.79"/>
<text text-anchor="middle" x="582.5" y="-2168.8" font-family="Times,serif" font-size="14.00" fill="white">18,064 row(s)/4 chunk(s)</text>
</g>
<!-- 281439077360848 -->
<g id="node4" class="node">
<title>281439077360848</title>
<g id="a_node4"><a xlink:title="Output: 18064 rows in 4 chunks, 923 µs 948 ns.&#10;Operator step runtimes:&#10; BuildSideMaterializing 17 µs 761 ns&#10; ProbeSideMaterializing 726 µs 89 ns&#10; Clustering 0 ns&#10; Building 1 µs 664 ns&#10; Probing 92 µs 737 ns&#10; OutputWriting 66 µs 401 ns.&#10;Radix bits: 0.&#10;Build side is right.">
<polygon fill="none" stroke="white" points="597,-2042 390,-2042 390,-1973 597,-1973 597,-2042"/>
<text text-anchor="middle" x="493.5" y="-2026.8" font-family="Times,serif" font-size="14.00" fill="white">JoinHash (Semi)</text>
<text text-anchor="middle" x="493.5" y="-2011.8" font-family="Times,serif" font-size="14.00" fill="white">s_nationkey = n_nationkey</text>
<text text-anchor="middle" x="493.5" y="-1980.8" font-family="Times,serif" font-size="14.00" fill="white">923 µs 948 ns</text>
</a>
</g>
</g>
<!-- 281439077360848&#45;&gt;281439051228176 -->
<g id="edge3" class="edge">
<title>281439077360848&#45;&gt;281439051228176</title>
<path fill="none" stroke="white" d="M493.5,-2042.25C493.5,-2055.07 493.5,-2069.73 493.5,-2082.77"/>
<polygon fill="white" stroke="white" points="490,-2082.81 493.5,-2092.81 497,-2082.81 490,-2082.81"/>
<text text-anchor="middle" x="582.5" y="-2063.8" font-family="Times,serif" font-size="14.00" fill="white">18,064 row(s)/4 chunk(s)</text>
</g>
<!-- 281439077360208 -->
<g id="node5" class="node">
<title>281439077360208</title>
<g id="a_node5"><a xlink:title="Output: 447264 rows in 4 chunks, 44 ms 498 µs.&#10;Operator step runtimes:&#10; BuildSideMaterializing 39 ms 761 µs&#10; ProbeSideMaterializing 649 µs 896 ns&#10; Clustering 490 µs 310 ns&#10; Building 1 ms 819 µs&#10; Probing 1 ms 679 µs&#10; OutputWriting 42 µs 913 ns.&#10;Radix bits: 2.&#10;Build side is right.">
<polygon fill="none" stroke="white" stroke-width="2.8" points="474.5,-1922 280.5,-1922 280.5,-1853 474.5,-1853 474.5,-1922"/>
<text text-anchor="middle" x="377.5" y="-1906.8" font-family="Times,serif" font-size="14.00" fill="white">JoinHash (Semi)</text>
<text text-anchor="middle" x="377.5" y="-1891.8" font-family="Times,serif" font-size="14.00" fill="white">s_suppkey = ps_suppkey</text>
<text text-anchor="middle" x="377.5" y="-1860.8" font-family="Times,serif" font-size="14.00" fill="white">44 ms 498 µs</text>
</a>
</g>
</g>
<!-- 281439077360208&#45;&gt;281439077360848 -->
<g id="edge4" class="edge">
<title>281439077360208&#45;&gt;281439077360848</title>
<path fill="none" stroke="white" d="M377,-1922.02C378.31,-1933.41 381.52,-1945.61 388.5,-1955 391.45,-1958.97 394.79,-1962.64 398.41,-1966.05"/>
<polygon fill="white" stroke="white" points="398.6,-1966.21 396.34,-1968.88 406.23,-1972.68 398.6,-1966.21"/>
<text text-anchor="middle" x="482" y="-1943.8" font-family="Times,serif" font-size="14.00" fill="white">447,264 row(s)/4 chunk(s)</text>
</g>
<!-- 281439180449040 -->
<g id="node6" class="node">
<title>281439180449040</title>
<g id="a_node6"><a xlink:title="Output: 1000000 rows in 16 chunks, 66 µs 49 ns.">
<polygon fill="none" stroke="white" points="434,-1802 321,-1802 321,-1688 434,-1688 434,-1802"/>
<text text-anchor="middle" x="377.5" y="-1786.8" font-family="Times,serif" font-size="14.00" fill="white">GetTable</text>
<text text-anchor="middle" x="377.5" y="-1771.8" font-family="Times,serif" font-size="14.00" fill="white">(supplier)</text>
<text text-anchor="middle" x="377.5" y="-1756.8" font-family="Times,serif" font-size="14.00" fill="white">pruned:</text>
<text text-anchor="middle" x="377.5" y="-1741.8" font-family="Times,serif" font-size="14.00" fill="white">0/16 chunk(s)</text>
<text text-anchor="middle" x="377.5" y="-1726.8" font-family="Times,serif" font-size="14.00" fill="white">3/7 column(s)</text>
<text text-anchor="middle" x="377.5" y="-1695.8" font-family="Times,serif" font-size="14.00" fill="white">66 µs 49 ns</text>
</a>
</g>
</g>
<!-- 281439180449040&#45;&gt;281439077360208 -->
<g id="edge5" class="edge">
<title>281439180449040&#45;&gt;281439077360208</title>
<path fill="none" stroke="white" d="M377.5,-1802.34C377.5,-1815.7 377.5,-1829.76 377.5,-1842.48"/>
<polygon fill="white" stroke="white" points="377.5,-1842.8 374,-1842.8 377.5,-1852.8 377.5,-1842.8"/>
<text text-anchor="middle" x="482.5" y="-1823.8" font-family="Times,serif" font-size="14.00" fill="white">1,000,000 row(s)/16 chunk(s)</text>
</g>
<!-- 281439077359888 -->
<g id="node7" class="node">
<title>281439077359888</title>
<g id="a_node7"><a xlink:title="Output: 590366 rows in 4 chunks, 8 µs 705 ns.&#10;Operator step runtimes:&#10; ForwardUnmodifiedColumns 2 µs 720 ns&#10; EvaluateNewColumns 64 ns&#10; BuildOutput 3 µs 873 ns.">
<polygon fill="none" stroke="white" points="217,-1772 118,-1772 118,-1718 217,-1718 217,-1772"/>
<text text-anchor="middle" x="167.5" y="-1756.8" font-family="Times,serif" font-size="14.00" fill="white">Projection</text>
<text text-anchor="middle" x="167.5" y="-1725.8" font-family="Times,serif" font-size="14.00" fill="white">8 µs 705 ns</text>
</a>
</g>
</g>
<!-- 281439077359888&#45;&gt;281439077360208 -->
<g id="edge6" class="edge">
<title>281439077359888&#45;&gt;281439077360208</title>
<path fill="none" stroke="white" d="M166.23,-1772.31C166.73,-1792.03 170.74,-1818.38 186.5,-1835 208.46,-1858.16 239.66,-1871.29 270.48,-1878.63"/>
<polygon fill="white" stroke="white" points="280.46,-1880.81 271.44,-1875.25 270.69,-1878.67 280.46,-1880.81"/>
<text text-anchor="middle" x="280" y="-1823.8" font-family="Times,serif" font-size="14.00" fill="white">590,366 row(s)/4 chunk(s)</text>
</g>
<!-- 281439077359568 -->
<g id="node8" class="node">
<title>281439077359568</title>
<g id="a_node8"><a xlink:title="Output: 590366 rows in 4 chunks, 302 ms 842 µs.&#10;Operator step runtimes:&#10; BuildSideMaterializing 39 ms 896 µs&#10; ProbeSideMaterializing 49 ms 198 µs&#10; Clustering 1 ms 217 µs&#10; Building 10 ms 650 µs&#10; Probing 201 ms 282 µs&#10; OutputWriting 541 µs 575 ns.&#10;Radix bits: 2.&#10;Build side is right.">
<polygon fill="none" stroke="white" stroke-width="7.53" points="323,-1629.5 12,-1629.5 12,-1530.5 323,-1530.5 323,-1629.5"/>
<text text-anchor="middle" x="167.5" y="-1614.3" font-family="Times,serif" font-size="14.00" fill="white">JoinHash (Semi)</text>
<text text-anchor="middle" x="167.5" y="-1599.3" font-family="Times,serif" font-size="14.00" fill="white">ps_suppkey = l_suppkey</text>
<text text-anchor="middle" x="167.5" y="-1584.3" font-family="Times,serif" font-size="14.00" fill="white">AND ps_availqty &gt; 0.5 * SUM(l_quantity)</text>
<text text-anchor="middle" x="167.5" y="-1569.3" font-family="Times,serif" font-size="14.00" fill="white">AND ps_partkey = l_partkey</text>
<text text-anchor="middle" x="167.5" y="-1538.3" font-family="Times,serif" font-size="14.00" fill="white">302 ms 842 µs</text>
</a>
</g>
</g>
<!-- 281439077359568&#45;&gt;281439077359888 -->
<g id="edge7" class="edge">
<title>281439077359568&#45;&gt;281439077359888</title>
<path fill="none" stroke="white" d="M167.5,-1629.91C167.5,-1654.95 167.5,-1684.92 167.5,-1707.85"/>
<polygon fill="white" stroke="white" points="164,-1707.85 167.5,-1717.85 171,-1707.85 164,-1707.85"/>
<text text-anchor="middle" x="261" y="-1658.8" font-family="Times,serif" font-size="14.00" fill="white">590,366 row(s)/4 chunk(s)</text>
</g>
<!-- 281439051233808 -->
<g id="node9" class="node">
<title>281439051233808</title>
<g id="a_node9"><a xlink:title="Output: 868696 rows in 2 chunks, 1 ms 349 µs.">
<polygon fill="none" stroke="white" points="249.5,-849.5 145.5,-849.5 145.5,-795.5 249.5,-795.5 249.5,-849.5"/>
<text text-anchor="middle" x="197.5" y="-834.3" font-family="Times,serif" font-size="14.00" fill="white">Validate</text>
<text text-anchor="middle" x="197.5" y="-803.3" font-family="Times,serif" font-size="14.00" fill="white">1 ms 349 µs</text>
</a>
</g>
</g>
<!-- 281439051233808&#45;&gt;281439077359568 -->
<g id="edge8" class="edge">
<title>281439051233808&#45;&gt;281439077359568</title>
<path fill="none" stroke="white" d="M182.69,-849.58C169.24,-875.76 151.5,-917.65 151.5,-956.5 151.5,-956.5 151.5,-956.5 151.5,-1446 151.5,-1470.41 154.19,-1497.16 157.36,-1520.24"/>
<polygon fill="white" stroke="white" points="157.38,-1520.32 153.91,-1520.81 158.8,-1530.22 157.38,-1520.32"/>
<text text-anchor="middle" x="245" y="-1186.3" font-family="Times,serif" font-size="14.00" fill="white">868,696 row(s)/2 chunk(s)</text>
</g>
<!-- 281439077357968 -->
<g id="node19" class="node">
<title>281439077357968</title>
<g id="a_node19"><a xlink:title="Output: 987713 rows in 8 chunks, 115 ms 144 µs.&#10;Operator step runtimes:&#10; BuildSideMaterializing 49 ms 837 µs&#10; ProbeSideMaterializing 59 ms 739 µs&#10; Clustering 1 ms 89 µs&#10; Building 1 ms 634 µs&#10; Probing 2 ms 113 µs&#10; OutputWriting 677 µs 64 ns.&#10;Radix bits: 3.&#10;Build side is right.">
<polygon fill="none" stroke="white" stroke-width="5.15" points="512.5,-1112 304.5,-1112 304.5,-1043 512.5,-1043 512.5,-1112"/>
<text text-anchor="middle" x="408.5" y="-1096.8" font-family="Times,serif" font-size="14.00" fill="white">JoinHash (Semi Reduction)</text>
<text text-anchor="middle" x="408.5" y="-1081.8" font-family="Times,serif" font-size="14.00" fill="white">l_suppkey = ps_suppkey</text>
<text text-anchor="middle" x="408.5" y="-1050.8" font-family="Times,serif" font-size="14.00" fill="white">115 ms 144 µs</text>
</a>
</g>
</g>
<!-- 281439051233808&#45;&gt;281439077357968 -->
<g id="edge10" class="edge">
<title>281439051233808&#45;&gt;281439077357968</title>
<path fill="none" stroke="white" d="M191.01,-849.63C183.76,-885.29 176.63,-949.62 206.5,-992 227.47,-1021.75 261.01,-1041.07 294.79,-1053.59"/>
<polygon fill="white" stroke="white" points="304.31,-1056.95 296.04,-1050.32 294.88,-1053.62 304.31,-1056.95"/>
<text text-anchor="middle" x="300" y="-953.8" font-family="Times,serif" font-size="14.00" fill="white">868,696 row(s)/2 chunk(s)</text>
</g>
<!-- 281439077357648 -->
<g id="node20" class="node">
<title>281439077357648</title>
<g id="a_node20"><a xlink:title="Output: 987713 rows in 8 chunks, 252 ms 262 µs.&#10;Operator step runtimes:&#10; BuildSideMaterializing 34 ms 744 µs&#10; ProbeSideMaterializing 159 ms 465 µs&#10; Clustering 21 ms 592 µs&#10; Building 988 µs 684 ns&#10; Probing 16 ms 367 µs&#10; OutputWriting 19 ms 2 µs.&#10;Radix bits: 3.&#10;Build side is right.">
<polygon fill="none" stroke="white" stroke-width="7.08" points="610.5,-992 402.5,-992 402.5,-923 610.5,-923 610.5,-992"/>
<text text-anchor="middle" x="506.5" y="-976.8" font-family="Times,serif" font-size="14.00" fill="white">JoinHash (Semi Reduction)</text>
<text text-anchor="middle" x="506.5" y="-961.8" font-family="Times,serif" font-size="14.00" fill="white">l_partkey = ps_partkey</text>
<text text-anchor="middle" x="506.5" y="-930.8" font-family="Times,serif" font-size="14.00" fill="white">252 ms 262 µs</text>
</a>
</g>
</g>
<!-- 281439051233808&#45;&gt;281439077357648 -->
<g id="edge9" class="edge">
<title>281439051233808&#45;&gt;281439077357648</title>
<path fill="none" stroke="white" d="M228.65,-849.72C251.41,-867.66 283.72,-890.69 315.5,-905 345.97,-918.72 356.2,-914.44 388.5,-923 389.77,-923.34 391.05,-923.68 392.34,-924.02"/>
<polygon fill="white" stroke="white" points="402.32,-926.71 393.57,-920.73 392.66,-924.11 402.32,-926.71"/>
<text text-anchor="middle" x="409" y="-893.8" font-family="Times,serif" font-size="14.00" fill="white">868,696 row(s)/2 chunk(s)</text>
</g>
<!-- 281439077357008 -->
<g id="node10" class="node">
<title>281439077357008</title>
<g id="a_node10"><a xlink:title="Output: 868696 rows in 2 chunks, 76 ms 292 µs.&#10;Operator step runtimes:&#10; BuildSideMaterializing 5 ms 894 µs&#10; ProbeSideMaterializing 21 ms 328 µs&#10; Clustering 15 ms 194 µs&#10; Building 875 µs 659 ns&#10; Probing 30 ms 809 µs&#10; OutputWriting 19 µs 904 ns.&#10;Radix bits: 1.&#10;Build side is right.">
<polygon fill="none" stroke="white" stroke-width="4.13" points="290.5,-699.5 104.5,-699.5 104.5,-630.5 290.5,-630.5 290.5,-699.5"/>
<text text-anchor="middle" x="197.5" y="-684.3" font-family="Times,serif" font-size="14.00" fill="white">JoinHash (Semi)</text>
<text text-anchor="middle" x="197.5" y="-669.3" font-family="Times,serif" font-size="14.00" fill="white">ps_partkey = p_partkey</text>
<text text-anchor="middle" x="197.5" y="-638.3" font-family="Times,serif" font-size="14.00" fill="white">76 ms 292 µs</text>
</a>
</g>
</g>
<!-- 281439077357008&#45;&gt;281439051233808 -->
<g id="edge11" class="edge">
<title>281439077357008&#45;&gt;281439051233808</title>
<path fill="none" stroke="white" d="M197.5,-699.74C197.5,-724.86 197.5,-759.13 197.5,-784.91"/>
<polygon fill="white" stroke="white" points="194,-785.03 197.5,-795.03 201,-785.03 194,-785.03"/>
<text text-anchor="middle" x="291" y="-743.8" font-family="Times,serif" font-size="14.00" fill="white">868,696 row(s)/2 chunk(s)</text>
</g>
<!-- 281439180449488 -->
<g id="node11" class="node">
<title>281439180449488</title>
<g id="a_node11"><a xlink:title="Output: 80000000 rows in 1221 chunks, 3 ms 848 µs.">
<polygon fill="none" stroke="white" points="131,-557 0,-557 0,-443 131,-443 131,-557"/>
<text text-anchor="middle" x="65.5" y="-541.8" font-family="Times,serif" font-size="14.00" fill="white">GetTable</text>
<text text-anchor="middle" x="65.5" y="-526.8" font-family="Times,serif" font-size="14.00" fill="white">(partsupp)</text>
<text text-anchor="middle" x="65.5" y="-511.8" font-family="Times,serif" font-size="14.00" fill="white">pruned:</text>
<text text-anchor="middle" x="65.5" y="-496.8" font-family="Times,serif" font-size="14.00" fill="white">0/1221 chunk(s)</text>
<text text-anchor="middle" x="65.5" y="-481.8" font-family="Times,serif" font-size="14.00" fill="white">2/5 column(s)</text>
<text text-anchor="middle" x="65.5" y="-450.8" font-family="Times,serif" font-size="14.00" fill="white">3 ms 848 µs</text>
</a>
</g>
</g>
<!-- 281439180449488&#45;&gt;281439077357008 -->
<g id="edge12" class="edge">
<title>281439180449488&#45;&gt;281439077357008</title>
<path fill="none" stroke="white" stroke-width="3.03" d="M57.47,-557.06C58.14,-568.57 60.68,-580.16 66.5,-590 74.7,-603.87 86.56,-615.36 99.83,-624.8"/>
<polygon fill="white" stroke="white" stroke-width="3.03" points="99.94,-624.87 98,-627.78 108.26,-630.41 99.94,-624.87"/>
<text text-anchor="middle" x="187" y="-578.8" font-family="Times,serif" font-size="14.00" fill="white">80,000,000 row(s)/1,221 chunk(s)</text>
</g>
<!-- 281439077356688 -->
<g id="node12" class="node">
<title>281439077356688</title>
<g id="a_node12"><a xlink:title="Output: 217174 rows in 306 chunks, 262 µs 851 ns.&#10;Operator step runtimes:&#10; ForwardUnmodifiedColumns 94 µs 49 ns&#10; EvaluateNewColumns 288 ns&#10; BuildOutput 99 µs 874 ns.">
<polygon fill="none" stroke="white" points="388,-527 271,-527 271,-473 388,-473 388,-527"/>
<text text-anchor="middle" x="329.5" y="-511.8" font-family="Times,serif" font-size="14.00" fill="white">Projection</text>
<text text-anchor="middle" x="329.5" y="-480.8" font-family="Times,serif" font-size="14.00" fill="white">262 µs 851 ns</text>
</a>
</g>
</g>
<!-- 281439077356688&#45;&gt;281439077357008 -->
<g id="edge13" class="edge">
<title>281439077356688&#45;&gt;281439077357008</title>
<path fill="none" stroke="white" d="M328.01,-527.21C325.81,-546.12 320.46,-571.48 307.5,-590 298.27,-603.2 285.86,-614.71 272.71,-624.47"/>
<polygon fill="white" stroke="white" points="264.45,-630.32 274.63,-627.4 272.61,-624.54 264.45,-630.32"/>
<text text-anchor="middle" x="418" y="-578.8" font-family="Times,serif" font-size="14.00" fill="white">217,174 row(s)/306 chunk(s)</text>
</g>
<!-- 281439051215120 -->
<g id="node13" class="node">
<title>281439051215120</title>
<g id="a_node13"><a xlink:title="Output: 217174 rows in 306 chunks, 565 µs 639 ns.">
<polygon fill="none" stroke="white" points="388,-392 271,-392 271,-338 388,-338 388,-392"/>
<text text-anchor="middle" x="329.5" y="-376.8" font-family="Times,serif" font-size="14.00" fill="white">Validate</text>
<text text-anchor="middle" x="329.5" y="-345.8" font-family="Times,serif" font-size="14.00" fill="white">565 µs 639 ns</text>
</a>
</g>
</g>
<!-- 281439051215120&#45;&gt;281439077356688 -->
<g id="edge14" class="edge">
<title>281439051215120&#45;&gt;281439077356688</title>
<path fill="none" stroke="white" d="M329.5,-392.28C329.5,-412.41 329.5,-440.41 329.5,-462.68"/>
<polygon fill="white" stroke="white" points="326,-462.78 329.5,-472.78 333,-462.78 326,-462.78"/>
<text text-anchor="middle" x="432" y="-413.8" font-family="Times,serif" font-size="14.00" fill="white">217,174 row(s)/306 chunk(s)</text>
</g>
<!-- 281439077355728 -->
<g id="node14" class="node">
<title>281439077355728</title>
<g id="a_node14"><a xlink:title="Output: 217174 rows in 306 chunks, 965 µs 324 ns.&#10;Chunks: 0 skipped with no results, &#10;0 skipped with all matching, 0 scanned using binary search.">
<polygon fill="none" stroke="white" points="543.5,-287 115.5,-287 115.5,-203 543.5,-203 543.5,-287"/>
<text text-anchor="middle" x="329.5" y="-271.8" font-family="Times,serif" font-size="14.00" fill="white">TableScan</text>
<text text-anchor="middle" x="329.5" y="-256.8" font-family="Times,serif" font-size="14.00" fill="white">Impl: ColumnBetween</text>
<text text-anchor="middle" x="329.5" y="-241.8" font-family="Times,serif" font-size="14.00" fill="white">p_name BETWEEN UPPER EXCLUSIVE &#39;peru&#39; AND &#39;perv&#39;</text>
<text text-anchor="middle" x="329.5" y="-210.8" font-family="Times,serif" font-size="14.00" fill="white">965 µs 324 ns</text>
</a>
</g>
</g>
<!-- 281439077355728&#45;&gt;281439051215120 -->
<g id="edge15" class="edge">
<title>281439077355728&#45;&gt;281439051215120</title>
<path fill="none" stroke="white" d="M329.5,-287.27C329.5,-300.36 329.5,-314.72 329.5,-327.45"/>
<polygon fill="white" stroke="white" points="326,-327.69 329.5,-337.69 333,-327.69 326,-327.69"/>
<text text-anchor="middle" x="432" y="-308.8" font-family="Times,serif" font-size="14.00" fill="white">217,174 row(s)/306 chunk(s)</text>
</g>
<!-- 281439180449936 -->
<g id="node15" class="node">
<title>281439180449936</title>
<g id="a_node15"><a xlink:title="Output: 20000000 rows in 306 chunks, 680 µs 713 ns.">
<polygon fill="none" stroke="white" points="390.5,-133 268.5,-133 268.5,-19 390.5,-19 390.5,-133"/>
<text text-anchor="middle" x="329.5" y="-117.8" font-family="Times,serif" font-size="14.00" fill="white">GetTable</text>
<text text-anchor="middle" x="329.5" y="-102.8" font-family="Times,serif" font-size="14.00" fill="white">(part)</text>
<text text-anchor="middle" x="329.5" y="-87.8" font-family="Times,serif" font-size="14.00" fill="white">pruned:</text>
<text text-anchor="middle" x="329.5" y="-72.8" font-family="Times,serif" font-size="14.00" fill="white">0/306 chunk(s)</text>
<text text-anchor="middle" x="329.5" y="-57.8" font-family="Times,serif" font-size="14.00" fill="white">7/9 column(s)</text>
<text text-anchor="middle" x="329.5" y="-26.8" font-family="Times,serif" font-size="14.00" fill="white">680 µs 713 ns</text>
</a>
</g>
</g>
<!-- 281439180449936&#45;&gt;281439077355728 -->
<g id="edge16" class="edge">
<title>281439180449936&#45;&gt;281439077355728</title>
<path fill="none" stroke="white" d="M329.5,-133.07C329.5,-152.34 329.5,-173.8 329.5,-192.67"/>
<polygon fill="white" stroke="white" points="326,-192.86 329.5,-202.86 333,-192.86 326,-192.86"/>
<text text-anchor="middle" x="443.5" y="-173.8" font-family="Times,serif" font-size="14.00" fill="white">20,000,000 row(s)/306 chunk(s)</text>
</g>
<!-- 281439077358288 -->
<g id="node16" class="node">
<title>281439077358288</title>
<g id="a_node16"><a xlink:title="Output: 591666 rows in 10 chunks, 330 µs 564 ns.&#10;Operator step runtimes:&#10; ForwardUnmodifiedColumns 8 µs 704 ns&#10; EvaluateNewColumns 280 µs 932 ns&#10; BuildOutput 34 µs 272 ns.">
<polygon fill="none" stroke="white" points="345,-1472 228,-1472 228,-1418 345,-1418 345,-1472"/>
<text text-anchor="middle" x="286.5" y="-1456.8" font-family="Times,serif" font-size="14.00" fill="white">Projection</text>
<text text-anchor="middle" x="286.5" y="-1425.8" font-family="Times,serif" font-size="14.00" fill="white">330 µs 564 ns</text>
</a>
</g>
</g>
<!-- 281439077358288&#45;&gt;281439077359568 -->
<g id="edge17" class="edge">
<title>281439077358288&#45;&gt;281439077359568</title>
<path fill="none" stroke="white" d="M262.99,-1472.28C250.01,-1486.78 233.37,-1505.38 217.63,-1522.97"/>
<polygon fill="white" stroke="white" points="210.95,-1530.44 220.23,-1525.32 217.62,-1522.99 210.95,-1530.44"/>
<text text-anchor="middle" x="343.5" y="-1493.8" font-family="Times,serif" font-size="14.00" fill="white">591,666 row(s)/10 chunk(s)</text>
</g>
<!-- 281439006475280 -->
<g id="node17" class="node">
<title>281439006475280</title>
<g id="a_node17"><a xlink:title="Output: 591666 rows in 10 chunks, 366 ms 124 µs.&#10;Operator step runtimes:&#10; GroupByKeyPartitioning 159 ms 885 µs&#10; Aggregating 205 ms 139 µs&#10; GroupByColumnsWriting 646 µs 632 ns&#10; AggregateColumnsWriting 402 µs 661 ns&#10; OutputWriting 17 µs 825 ns.">
<polygon fill="none" stroke="white" stroke-width="8" points="418.5,-1367 252.5,-1367 252.5,-1268 418.5,-1268 418.5,-1367"/>
<text text-anchor="middle" x="335.5" y="-1351.8" font-family="Times,serif" font-size="14.00" fill="white">AggregateHash</text>
<text text-anchor="middle" x="335.5" y="-1336.8" font-family="Times,serif" font-size="14.00" fill="white">GroupBy {l_suppkey,</text>
<text text-anchor="middle" x="335.5" y="-1321.8" font-family="Times,serif" font-size="14.00" fill="white">l_partkey}</text>
<text text-anchor="middle" x="335.5" y="-1306.8" font-family="Times,serif" font-size="14.00" fill="white">SUM(l_quantity)</text>
<text text-anchor="middle" x="335.5" y="-1275.8" font-family="Times,serif" font-size="14.00" fill="white">366 ms 124 µs</text>
</a>
</g>
</g>
<!-- 281439006475280&#45;&gt;281439077358288 -->
<g id="edge18" class="edge">
<title>281439006475280&#45;&gt;281439077358288</title>
<path fill="none" stroke="white" d="M316.56,-1367.02C311.19,-1380.76 305.45,-1395.47 300.44,-1408.3"/>
<polygon fill="white" stroke="white" points="297.14,-1407.12 296.77,-1417.7 303.66,-1409.66 297.14,-1407.12"/>
<text text-anchor="middle" x="408.5" y="-1388.8" font-family="Times,serif" font-size="14.00" fill="white">591,666 row(s)/10 chunk(s)</text>
</g>
<!-- 281439051227920 -->
<g id="node18" class="node">
<title>281439051227920</title>
<g id="a_node18"><a xlink:title="Output: 987713 rows in 8 chunks, 5 ms 384 µs.">
<polygon fill="none" stroke="white" points="460.5,-1217 356.5,-1217 356.5,-1163 460.5,-1163 460.5,-1217"/>
<text text-anchor="middle" x="408.5" y="-1201.8" font-family="Times,serif" font-size="14.00" fill="white">Validate</text>
<text text-anchor="middle" x="408.5" y="-1170.8" font-family="Times,serif" font-size="14.00" fill="white">5 ms 384 µs</text>
</a>
</g>
</g>
<!-- 281439051227920&#45;&gt;281439006475280 -->
<g id="edge19" class="edge">
<title>281439051227920&#45;&gt;281439006475280</title>
<path fill="none" stroke="white" d="M393.37,-1217C386.28,-1229.19 377.53,-1244.24 369,-1258.9"/>
<polygon fill="white" stroke="white" points="365.74,-1257.55 363.74,-1267.96 371.79,-1261.07 365.74,-1257.55"/>
<text text-anchor="middle" x="477" y="-1238.8" font-family="Times,serif" font-size="14.00" fill="white">987,713 row(s)/8 chunk(s)</text>
</g>
<!-- 281439077357968&#45;&gt;281439051227920 -->
<g id="edge20" class="edge">
<title>281439077357968&#45;&gt;281439051227920</title>
<path fill="none" stroke="white" d="M408.5,-1112.25C408.5,-1125.07 408.5,-1139.73 408.5,-1152.77"/>
<polygon fill="white" stroke="white" points="405,-1152.81 408.5,-1162.81 412,-1152.81 405,-1152.81"/>
<text text-anchor="middle" x="502" y="-1133.8" font-family="Times,serif" font-size="14.00" fill="white">987,713 row(s)/8 chunk(s)</text>
</g>
<!-- 281439077357648&#45;&gt;281439077357968 -->
<g id="edge21" class="edge">
<title>281439077357648&#45;&gt;281439077357968</title>
<path fill="none" stroke="white" d="M478.42,-992.31C467.45,-1005.52 454.76,-1020.8 443.22,-1034.69"/>
<polygon fill="white" stroke="white" points="442.98,-1034.99 440.28,-1032.75 436.59,-1042.68 442.98,-1034.99"/>
<text text-anchor="middle" x="557" y="-1013.8" font-family="Times,serif" font-size="14.00" fill="white">987,713 row(s)/8 chunk(s)</text>
</g>
<!-- 281439077357328 -->
<g id="node21" class="node">
<title>281439077357328</title>
<g id="a_node21"><a xlink:title="Output: 91065115 rows in 9156 chunks, 38 ms 77 µs.&#10;Chunks: 0 skipped with no results, &#10;0 skipped with all matching, 0 scanned using binary search.">
<polygon fill="none" stroke="white" stroke-width="2.42" points="712.5,-872 300.5,-872 300.5,-773 712.5,-773 712.5,-872"/>
<text text-anchor="middle" x="506.5" y="-856.8" font-family="Times,serif" font-size="14.00" fill="white">TableScan</text>
<text text-anchor="middle" x="506.5" y="-841.8" font-family="Times,serif" font-size="14.00" fill="white">Impl: ColumnBetween</text>
<text text-anchor="middle" x="506.5" y="-826.8" font-family="Times,serif" font-size="14.00" fill="white">l_shipdate BETWEEN UPPER EXCLUSIVE &#39;1997&#45;01&#45;01&#39;</text>
<text text-anchor="middle" x="506.5" y="-811.8" font-family="Times,serif" font-size="14.00" fill="white">AND &#39;1998&#45;01&#45;01&#39;</text>
<text text-anchor="middle" x="506.5" y="-780.8" font-family="Times,serif" font-size="14.00" fill="white">38 ms 77 µs</text>
</a>
</g>
</g>
<!-- 281439077357328&#45;&gt;281439077357648 -->
<g id="edge22" class="edge">
<title>281439077357328&#45;&gt;281439077357648</title>
<path fill="none" stroke="white" stroke-width="3.35" d="M506.5,-872.27C506.5,-885.49 506.5,-899.72 506.5,-912.65"/>
<polygon fill="white" stroke="white" stroke-width="3.35" points="506.5,-912.7 503,-912.7 506.5,-922.7 506.5,-912.7"/>
<text text-anchor="middle" x="627" y="-893.8" font-family="Times,serif" font-size="14.00" fill="white">91,065,115 row(s)/9,156 chunk(s)</text>
</g>
<!-- 281439180450384 -->
<g id="node22" class="node">
<title>281439180450384</title>
<g id="a_node22"><a xlink:title="Output: 600037902 rows in 9156 chunks, 12 ms 434 µs.">
<polygon fill="none" stroke="white" points="572,-722 441,-722 441,-608 572,-608 572,-722"/>
<text text-anchor="middle" x="506.5" y="-706.8" font-family="Times,serif" font-size="14.00" fill="white">GetTable</text>
<text text-anchor="middle" x="506.5" y="-691.8" font-family="Times,serif" font-size="14.00" fill="white">(lineitem)</text>
<text text-anchor="middle" x="506.5" y="-676.8" font-family="Times,serif" font-size="14.00" fill="white">pruned:</text>
<text text-anchor="middle" x="506.5" y="-661.8" font-family="Times,serif" font-size="14.00" fill="white">0/9156 chunk(s)</text>
<text text-anchor="middle" x="506.5" y="-646.8" font-family="Times,serif" font-size="14.00" fill="white">12/16 column(s)</text>
<text text-anchor="middle" x="506.5" y="-615.8" font-family="Times,serif" font-size="14.00" fill="white">12 ms 434 µs</text>
</a>
</g>
</g>
<!-- 281439180450384&#45;&gt;281439077357328 -->
<g id="edge23" class="edge">
<title>281439180450384&#45;&gt;281439077357328</title>
<path fill="none" stroke="white" stroke-width="8" d="M506.5,-722.14C506.5,-735.38 506.5,-749.53 506.5,-762.88"/>
<polygon fill="white" stroke="white" stroke-width="8" points="499.5,-762.9 506.5,-772.9 513.5,-762.9 499.5,-762.9"/>
<text text-anchor="middle" x="631.5" y="-743.8" font-family="Times,serif" font-size="14.00" fill="white">600,037,902 row(s)/9,156 chunk(s)</text>
</g>
<!-- 281439051227664 -->
<g id="node23" class="node">
<title>281439051227664</title>
<g id="a_node23"><a xlink:title="Output: 1 row in 1 chunk, 4 µs 33 ns.">
<polygon fill="none" stroke="white" points="652.5,-1914.5 562.5,-1914.5 562.5,-1860.5 652.5,-1860.5 652.5,-1914.5"/>
<text text-anchor="middle" x="607.5" y="-1899.3" font-family="Times,serif" font-size="14.00" fill="white">Validate</text>
<text text-anchor="middle" x="607.5" y="-1868.3" font-family="Times,serif" font-size="14.00" fill="white">4 µs 33 ns</text>
</a>
</g>
</g>
<!-- 281439051227664&#45;&gt;281439077360848 -->
<g id="edge24" class="edge">
<title>281439051227664&#45;&gt;281439077360848</title>
<path fill="none" stroke="white" d="M600.75,-1914.6C596.35,-1927.81 589.52,-1943.46 579.5,-1955 575.93,-1959.11 571.96,-1962.98 567.73,-1966.61"/>
<polygon fill="white" stroke="white" points="559.86,-1972.89 569.86,-1969.39 567.67,-1966.65 559.86,-1972.89"/>
<text text-anchor="middle" x="659.5" y="-1943.8" font-family="Times,serif" font-size="14.00" fill="white">1 row(s)/1 chunk(s)</text>
</g>
<!-- 281439077360528 -->
<g id="node24" class="node">
<title>281439077360528</title>
<g id="a_node24"><a xlink:title="Output: 1 row in 1 chunk, 17 µs 504 ns.&#10;Chunks: 0 skipped with no results, &#10;0 skipped with all matching, 0 scanned using binary search.">
<polygon fill="none" stroke="white" points="721,-1787 500,-1787 500,-1703 721,-1703 721,-1787"/>
<text text-anchor="middle" x="610.5" y="-1771.8" font-family="Times,serif" font-size="14.00" fill="white">TableScan</text>
<text text-anchor="middle" x="610.5" y="-1756.8" font-family="Times,serif" font-size="14.00" fill="white">Impl: ColumnVsValue</text>
<text text-anchor="middle" x="610.5" y="-1741.8" font-family="Times,serif" font-size="14.00" fill="white">n_name = &#39;UNITED STATES&#39;</text>
<text text-anchor="middle" x="610.5" y="-1710.8" font-family="Times,serif" font-size="14.00" fill="white">17 µs 504 ns</text>
</a>
</g>
</g>
<!-- 281439077360528&#45;&gt;281439051227664 -->
<g id="edge25" class="edge">
<title>281439077360528&#45;&gt;281439051227664</title>
<path fill="none" stroke="white" d="M609.62,-1787.02C609.2,-1806.97 608.69,-1830.76 608.28,-1850.07"/>
<polygon fill="white" stroke="white" points="604.77,-1850.21 608.06,-1860.28 611.77,-1850.36 604.77,-1850.21"/>
<text text-anchor="middle" x="678.5" y="-1823.8" font-family="Times,serif" font-size="14.00" fill="white">1 row(s)/1 chunk(s)</text>
</g>
<!-- 281439180450832 -->
<g id="node25" class="node">
<title>281439180450832</title>
<g id="a_node25"><a xlink:title="Output: 25 rows in 1 chunk, 13 µs 408 ns.">
<polygon fill="none" stroke="white" points="667,-1637 554,-1637 554,-1523 667,-1523 667,-1637"/>
<text text-anchor="middle" x="610.5" y="-1621.8" font-family="Times,serif" font-size="14.00" fill="white">GetTable</text>
<text text-anchor="middle" x="610.5" y="-1606.8" font-family="Times,serif" font-size="14.00" fill="white">(nation)</text>
<text text-anchor="middle" x="610.5" y="-1591.8" font-family="Times,serif" font-size="14.00" fill="white">pruned:</text>
<text text-anchor="middle" x="610.5" y="-1576.8" font-family="Times,serif" font-size="14.00" fill="white">0/1 chunk(s)</text>
<text text-anchor="middle" x="610.5" y="-1561.8" font-family="Times,serif" font-size="14.00" fill="white">2/4 column(s)</text>
<text text-anchor="middle" x="610.5" y="-1530.8" font-family="Times,serif" font-size="14.00" fill="white">13 µs 408 ns</text>
</a>
</g>
</g>
<!-- 281439180450832&#45;&gt;281439077360528 -->
<g id="edge26" class="edge">
<title>281439180450832&#45;&gt;281439077360528</title>
<path fill="none" stroke="white" d="M610.5,-1637.1C610.5,-1655.19 610.5,-1675.13 610.5,-1692.85"/>
<polygon fill="white" stroke="white" points="607,-1692.99 610.5,-1702.99 614,-1692.99 607,-1692.99"/>
<text text-anchor="middle" x="684" y="-1658.8" font-family="Times,serif" font-size="14.00" fill="white">25 row(s)/1 chunk(s)</text>
</g>
<!-- 0 -->
<g id="node26" class="node">
<title>0</title>
<polygon fill="none" stroke="white" points="409,-0.5 409,-151.5 730,-151.5 730,-0.5 409,-0.5"/>
<text text-anchor="middle" x="569.5" y="-136.3" font-family="Times,serif" font-size="14.00" fill="white">Total by operator</text>
<polyline fill="none" stroke="white" points="409,-128.5 730,-128.5 "/>
<text text-anchor="end" x="538" y="-113.3" font-family="Times,serif" font-size="14.00" fill="white">JoinHash </text>
<text text-anchor="end" x="538" y="-98.3" font-family="Times,serif" font-size="14.00" fill="white"> AggregateHash </text>
<text text-anchor="end" x="538" y="-83.3" font-family="Times,serif" font-size="14.00" fill="white"> TableScan </text>
<text text-anchor="end" x="538" y="-68.3" font-family="Times,serif" font-size="14.00" fill="white"> GetTable </text>
<text text-anchor="end" x="538" y="-53.3" font-family="Times,serif" font-size="14.00" fill="white"> Sort </text>
<text text-anchor="end" x="538" y="-38.3" font-family="Times,serif" font-size="14.00" fill="white"> Validate </text>
<text text-anchor="end" x="538" y="-23.3" font-family="Times,serif" font-size="14.00" fill="white"> Projection </text>
<text text-anchor="end" x="538" y="-8.3" font-family="Times,serif" font-size="14.00" fill="white">total</text>
<polyline fill="none" stroke="white" points="546,-0.5 546,-128.5 "/>
<text text-anchor="start" x="554" y="-113.3" font-family="Times,serif" font-size="14.00" fill="white">791 ms 962 µs </text>
<text text-anchor="start" x="554" y="-98.3" font-family="Times,serif" font-size="14.00" fill="white"> 366 ms 124 µs </text>
<text text-anchor="start" x="554" y="-83.3" font-family="Times,serif" font-size="14.00" fill="white"> 39 ms 60 µs </text>
<text text-anchor="start" x="554" y="-68.3" font-family="Times,serif" font-size="14.00" fill="white"> 17 ms 42 µs </text>
<text text-anchor="start" x="554" y="-53.3" font-family="Times,serif" font-size="14.00" fill="white"> 13 ms 642 µs </text>
<text text-anchor="start" x="554" y="-38.3" font-family="Times,serif" font-size="14.00" fill="white"> 7 ms 349 µs </text>
<text text-anchor="start" x="554" y="-23.3" font-family="Times,serif" font-size="14.00" fill="white"> 609 µs 928 ns </text>
<text text-anchor="start" x="554" y="-8.3" font-family="Times,serif" font-size="14.00" fill="white"> 1 s 236 ms </text>
<polyline fill="none" stroke="white" points="677,-0.5 677,-128.5 "/>
<text text-anchor="start" x="685" y="-113.3" font-family="Times,serif" font-size="14.00" fill="white">64 %</text>
<text text-anchor="start" x="685" y="-98.3" font-family="Times,serif" font-size="14.00" fill="white">30 %</text>
<text text-anchor="start" x="685" y="-83.3" font-family="Times,serif" font-size="14.00" fill="white">3 %</text>
<text text-anchor="start" x="685" y="-68.3" font-family="Times,serif" font-size="14.00" fill="white">1 %</text>
<text text-anchor="start" x="685" y="-53.3" font-family="Times,serif" font-size="14.00" fill="white">1 %</text>
<text text-anchor="start" x="685" y="-38.3" font-family="Times,serif" font-size="14.00" fill="white">1 %</text>
<text text-anchor="start" x="685" y="-23.3" font-family="Times,serif" font-size="14.00" fill="white">0 %</text>
<text text-anchor="start" x="685" y="-8.3" font-family="Times,serif" font-size="14.00" fill="white"> </text>
</g>
</g>
</svg>
