<?xml version="1.0" encoding="UTF-8" standalone="no"?>
<!DOCTYPE svg PUBLIC "-//W3C//DTD SVG 1.1//EN"
 "http://www.w3.org/Graphics/SVG/1.1/DTD/svg11.dtd">
<!-- Generated by graphviz version 2.43.0 (0)
 -->
<!-- Title: G Pages: 1 -->
<svg width="1383pt" height="2615pt"
 viewBox="0.00 0.00 1383.00 2615.00" xmlns="http://www.w3.org/2000/svg" xmlns:xlink="http://www.w3.org/1999/xlink">
<g id="graph0" class="graph" transform="scale(1 1) rotate(0) translate(4 2611)">
<title>G</title>
<polygon fill="black" stroke="transparent" points="-4,4 -4,-2611 1379,-2611 1379,4 -4,4"/>
<text text-anchor="middle" x="319.5" y="-2591.8" font-family="Times,serif" font-size="14.00" fill="white">For tooltips with advanced information, hover your mouse over vertices or edge labels.</text>
<!-- 281403585168848 -->
<g id="node1" class="node">
<title>281403585168848</title>
<g id="a_node1"><a xlink:title="Output: 5 rows in 1 chunk, 3 µs 8 ns.">
<polygon fill="none" stroke="white" points="915,-2552 766,-2552 766,-2483 915,-2483 915,-2552"/>
<text text-anchor="middle" x="840.5" y="-2536.8" font-family="Times,serif" font-size="14.00" fill="white">Alias</text>
<text text-anchor="middle" x="840.5" y="-2521.8" font-family="Times,serif" font-size="14.00" fill="white">[n_name, revenue]</text>
<text text-anchor="middle" x="840.5" y="-2490.8" font-family="Times,serif" font-size="14.00" fill="white">3 µs 8 ns</text>
</a>
</g>
</g>
<!-- 281403585169168 -->
<g id="node2" class="node">
<title>281403585169168</title>
<g id="a_node2"><a xlink:title="Output: 5 rows in 1 chunk, 12 µs 800 ns.&#10;Operator step runtimes:&#10; MaterializeSortColumns 2 µs 336 ns&#10; Sort 1 µs 440 ns&#10; TemporaryResultWriting 384 ns&#10; WriteOutput 6 µs 208 ns.">
<polygon fill="none" stroke="white" points="894.5,-2432 786.5,-2432 786.5,-2378 894.5,-2378 894.5,-2432"/>
<text text-anchor="middle" x="840.5" y="-2416.8" font-family="Times,serif" font-size="14.00" fill="white">Sort</text>
<text text-anchor="middle" x="840.5" y="-2385.8" font-family="Times,serif" font-size="14.00" fill="white">12 µs 800 ns</text>
</a>
</g>
</g>
<!-- 281403585169168&#45;&gt;281403585168848 -->
<g id="edge1" class="edge">
<title>281403585169168&#45;&gt;281403585168848</title>
<path fill="none" stroke="white" d="M840.5,-2432.19C840.5,-2444.29 840.5,-2459 840.5,-2472.72"/>
<polygon fill="white" stroke="white" points="837,-2472.95 840.5,-2482.95 844,-2472.96 837,-2472.95"/>
<text text-anchor="middle" x="909.5" y="-2453.8" font-family="Times,serif" font-size="14.00" fill="white">5 row(s)/1 chunk(s)</text>
</g>
<!-- 281403573081616 -->
<g id="node3" class="node">
<title>281403573081616</title>
<g id="a_node3"><a xlink:title="Output: 5 rows in 1 chunk, 15 ms 387 µs.&#10;Operator step runtimes:&#10; GroupByKeyPartitioning 12 ms 124 µs&#10; Aggregating 3 ms 234 µs&#10; GroupByColumnsWriting 5 µs 376 ns&#10; AggregateColumnsWriting 8 µs 32 ns&#10; OutputWriting 4 µs 64 ns.">
<polygon fill="none" stroke="white" points="989,-2327 692,-2327 692,-2243 989,-2243 989,-2327"/>
<text text-anchor="middle" x="840.5" y="-2311.8" font-family="Times,serif" font-size="14.00" fill="white">AggregateHash</text>
<text text-anchor="middle" x="840.5" y="-2296.8" font-family="Times,serif" font-size="14.00" fill="white">GroupBy {n_name}</text>
<text text-anchor="middle" x="840.5" y="-2281.8" font-family="Times,serif" font-size="14.00" fill="white">SUM(l_extendedprice * (1 &#45; l_discount))</text>
<text text-anchor="middle" x="840.5" y="-2250.8" font-family="Times,serif" font-size="14.00" fill="white">15 ms 387 µs</text>
</a>
</g>
</g>
<!-- 281403573081616&#45;&gt;281403585169168 -->
<g id="edge2" class="edge">
<title>281403573081616&#45;&gt;281403585169168</title>
<path fill="none" stroke="white" d="M840.5,-2327.27C840.5,-2340.36 840.5,-2354.72 840.5,-2367.45"/>
<polygon fill="white" stroke="white" points="837,-2367.69 840.5,-2377.69 844,-2367.69 837,-2367.69"/>
<text text-anchor="middle" x="909.5" y="-2348.8" font-family="Times,serif" font-size="14.00" fill="white">5 row(s)/1 chunk(s)</text>
</g>
<!-- 281403585169488 -->
<g id="node4" class="node">
<title>281403585169488</title>
<g id="a_node4"><a xlink:title="Output: 366373 rows in 256 chunks, 51 ms 462 µs.&#10;Operator step runtimes:&#10; ForwardUnmodifiedColumns 157 µs 410 ns&#10; EvaluateNewColumns 50 ms 939 µs&#10; BuildOutput 300 µs 708 ns.">
<polygon fill="none" stroke="white" stroke-width="1.93" points="897,-2192 784,-2192 784,-2138 897,-2138 897,-2192"/>
<text text-anchor="middle" x="840.5" y="-2176.8" font-family="Times,serif" font-size="14.00" fill="white">Projection</text>
<text text-anchor="middle" x="840.5" y="-2145.8" font-family="Times,serif" font-size="14.00" fill="white">51 ms 462 µs</text>
</a>
</g>
</g>
<!-- 281403585169488&#45;&gt;281403573081616 -->
<g id="edge3" class="edge">
<title>281403585169488&#45;&gt;281403573081616</title>
<path fill="none" stroke="white" d="M840.5,-2192.19C840.5,-2204.1 840.5,-2218.63 840.5,-2232.58"/>
<polygon fill="white" stroke="white" points="837,-2232.59 840.5,-2242.59 844,-2232.59 837,-2232.59"/>
<text text-anchor="middle" x="943" y="-2213.8" font-family="Times,serif" font-size="14.00" fill="white">366,373 row(s)/256 chunk(s)</text>
</g>
<!-- 281403585169808 -->
<g id="node5" class="node">
<title>281403585169808</title>
<g id="a_node5"><a xlink:title="Output: 366373 rows in 256 chunks, 5 ms 547 µs.&#10;Chunks: 0 skipped with no results, &#10;0 skipped with all matching, 0 scanned using binary search.">
<polygon fill="none" stroke="white" points="943.5,-2087 737.5,-2087 737.5,-2003 943.5,-2003 943.5,-2087"/>
<text text-anchor="middle" x="840.5" y="-2071.8" font-family="Times,serif" font-size="14.00" fill="white">TableScan</text>
<text text-anchor="middle" x="840.5" y="-2056.8" font-family="Times,serif" font-size="14.00" fill="white">Impl: ColumnVsColumn</text>
<text text-anchor="middle" x="840.5" y="-2041.8" font-family="Times,serif" font-size="14.00" fill="white">c_nationkey = s_nationkey</text>
<text text-anchor="middle" x="840.5" y="-2010.8" font-family="Times,serif" font-size="14.00" fill="white">5 ms 547 µs</text>
</a>
</g>
</g>
<!-- 281403585169808&#45;&gt;281403585169488 -->
<g id="edge4" class="edge">
<title>281403585169808&#45;&gt;281403585169488</title>
<path fill="none" stroke="white" d="M840.5,-2087.27C840.5,-2100.36 840.5,-2114.72 840.5,-2127.45"/>
<polygon fill="white" stroke="white" points="837,-2127.69 840.5,-2137.69 844,-2127.69 837,-2127.69"/>
<text text-anchor="middle" x="943" y="-2108.8" font-family="Times,serif" font-size="14.00" fill="white">366,373 row(s)/256 chunk(s)</text>
</g>
<!-- 281403585170128 -->
<g id="node6" class="node">
<title>281403585170128</title>
<g id="a_node6"><a xlink:title="Output: 9155281 rows in 256 chunks, 68 ms 717 µs.&#10;Operator step runtimes:&#10; LeftSideMaterialize 31 ms 277 µs&#10; RightSideMaterialize 2 ms 305 µs&#10; LeftSideTransform 0 ns&#10; RightSideTransform 0 ns&#10; LeftSidePartition 4 ms 134 µs&#10; RightSidePartition 2 ms 475 µs&#10; LeftSideSortBuckets 3 ms 74 µs&#10; RightSideSortBuckets 2 ms 225 µs&#10; GatherRowIds 1 µs 760 ns&#10; FindJoinPartner 3 ms 586 µs&#10; OutputWriting 18 ms 305 µs.">
<polygon fill="none" stroke="white" stroke-width="2.64" points="946,-1952 735,-1952 735,-1883 946,-1883 946,-1952"/>
<text text-anchor="middle" x="840.5" y="-1936.8" font-family="Times,serif" font-size="14.00" fill="white">JoinSimdSortMerge (Inner)</text>
<text text-anchor="middle" x="840.5" y="-1921.8" font-family="Times,serif" font-size="14.00" fill="white">o_custkey = c_custkey</text>
<text text-anchor="middle" x="840.5" y="-1890.8" font-family="Times,serif" font-size="14.00" fill="white">68 ms 717 µs</text>
</a>
</g>
</g>
<!-- 281403585170128&#45;&gt;281403585169808 -->
<g id="edge5" class="edge">
<title>281403585170128&#45;&gt;281403585169808</title>
<path fill="none" stroke="white" d="M840.5,-1952.13C840.5,-1964.51 840.5,-1978.84 840.5,-1992.44"/>
<polygon fill="white" stroke="white" points="837,-1992.65 840.5,-2002.65 844,-1992.65 837,-1992.65"/>
<text text-anchor="middle" x="950" y="-1973.8" font-family="Times,serif" font-size="14.00" fill="white">9,155,281 row(s)/256 chunk(s)</text>
</g>
<!-- 281403585170448 -->
<g id="node7" class="node">
<title>281403585170448</title>
<g id="a_node7"><a xlink:title="Output: 9155281 rows in 64 chunks, 197 ms 775 µs.&#10;Operator step runtimes:&#10; LeftSideMaterialize 147 ms 670 µs&#10; RightSideMaterialize 16 ms 796 µs&#10; LeftSideTransform 0 ns&#10; RightSideTransform 0 ns&#10; LeftSidePartition 3 ms 496 µs&#10; RightSidePartition 4 ms 536 µs&#10; LeftSideSortBuckets 2 ms 526 µs&#10; RightSideSortBuckets 2 ms 853 µs&#10; GatherRowIds 1 µs 728 ns&#10; FindJoinPartner 5 ms 897 µs&#10; OutputWriting 12 ms 591 µs.">
<polygon fill="none" stroke="white" stroke-width="5.25" points="826,-1832 615,-1832 615,-1763 826,-1763 826,-1832"/>
<text text-anchor="middle" x="720.5" y="-1816.8" font-family="Times,serif" font-size="14.00" fill="white">JoinSimdSortMerge (Inner)</text>
<text text-anchor="middle" x="720.5" y="-1801.8" font-family="Times,serif" font-size="14.00" fill="white">l_orderkey = o_orderkey</text>
<text text-anchor="middle" x="720.5" y="-1770.8" font-family="Times,serif" font-size="14.00" fill="white">197 ms 775 µs</text>
</a>
</g>
</g>
<!-- 281403585170448&#45;&gt;281403585170128 -->
<g id="edge6" class="edge">
<title>281403585170448&#45;&gt;281403585170128</title>
<path fill="none" stroke="white" d="M717.59,-1832.33C718.22,-1843.61 720.78,-1855.67 727.5,-1865 730.42,-1869.05 733.73,-1872.79 737.35,-1876.24"/>
<polygon fill="white" stroke="white" points="737.56,-1876.43 735.29,-1879.09 745.16,-1882.93 737.56,-1876.43"/>
<text text-anchor="middle" x="832.5" y="-1853.8" font-family="Times,serif" font-size="14.00" fill="white">9,155,281 row(s)/64 chunk(s)</text>
</g>
<!-- 281403585170768 -->
<g id="node8" class="node">
<title>281403585170768</title>
<g id="a_node8"><a xlink:title="Output: 9155281 rows in 256 chunks, 78 ms 80 µs.&#10;Operator step runtimes:&#10; LeftSideMaterialize 59 ms 268 µs&#10; RightSideMaterialize 379 µs 333 ns&#10; LeftSideTransform 0 ns&#10; RightSideTransform 0 ns&#10; LeftSidePartition 4 ms 153 µs&#10; RightSidePartition 1 ms 699 µs&#10; LeftSideSortBuckets 3 ms 140 µs&#10; RightSideSortBuckets 432 µs 5 ns&#10; GatherRowIds 10 µs 720 ns&#10; FindJoinPartner 2 ms 363 µs&#10; OutputWriting 5 ms 591 µs.">
<polygon fill="none" stroke="white" stroke-width="2.96" points="855,-1689.5 644,-1689.5 644,-1620.5 855,-1620.5 855,-1689.5"/>
<text text-anchor="middle" x="749.5" y="-1674.3" font-family="Times,serif" font-size="14.00" fill="white">JoinSimdSortMerge (Inner)</text>
<text text-anchor="middle" x="749.5" y="-1659.3" font-family="Times,serif" font-size="14.00" fill="white">l_suppkey = s_suppkey</text>
<text text-anchor="middle" x="749.5" y="-1628.3" font-family="Times,serif" font-size="14.00" fill="white">78 ms 80 µs</text>
</a>
</g>
</g>
<!-- 281403585170768&#45;&gt;281403585170448 -->
<g id="edge7" class="edge">
<title>281403585170768&#45;&gt;281403585170448</title>
<path fill="none" stroke="white" d="M742.55,-1689.65C738.65,-1708.54 733.74,-1732.33 729.55,-1752.66"/>
<polygon fill="white" stroke="white" points="729.51,-1752.84 726.08,-1752.13 727.49,-1762.63 729.51,-1752.84"/>
<text text-anchor="middle" x="844" y="-1733.8" font-family="Times,serif" font-size="14.00" fill="white">9,155,281 row(s)/256 chunk(s)</text>
</g>
<!-- 281403573030160 -->
<g id="node9" class="node">
<title>281403573030160</title>
<g id="a_node9"><a xlink:title="Output: 9155281 rows in 64 chunks, 15 ms 264 µs.">
<polygon fill="none" stroke="white" points="806,-1547 693,-1547 693,-1493 806,-1493 806,-1547"/>
<text text-anchor="middle" x="749.5" y="-1531.8" font-family="Times,serif" font-size="14.00" fill="white">Validate</text>
<text text-anchor="middle" x="749.5" y="-1500.8" font-family="Times,serif" font-size="14.00" fill="white">15 ms 264 µs</text>
</a>
</g>
</g>
<!-- 281403573030160&#45;&gt;281403585170768 -->
<g id="edge8" class="edge">
<title>281403573030160&#45;&gt;281403585170768</title>
<path fill="none" stroke="white" d="M749.5,-1547.28C749.5,-1565.15 749.5,-1589.24 749.5,-1610"/>
<polygon fill="white" stroke="white" points="749.5,-1610.2 746,-1610.2 749.5,-1620.2 749.5,-1610.2"/>
<text text-anchor="middle" x="854.5" y="-1568.8" font-family="Times,serif" font-size="14.00" fill="white">9,155,281 row(s)/64 chunk(s)</text>
</g>
<!-- 281403585171088 -->
<g id="node10" class="node">
<title>281403585171088</title>
<g id="a_node10"><a xlink:title="Output: 9155281 rows in 64 chunks, 603 ms 48 µs.&#10;Operator step runtimes:&#10; LeftSideMaterialize 524 ms 322 µs&#10; RightSideMaterialize 15 ms 898 µs&#10; LeftSideTransform 0 ns&#10; RightSideTransform 0 ns&#10; LeftSidePartition 23 ms 62 µs&#10; RightSidePartition 4 ms 376 µs&#10; LeftSideSortBuckets 13 ms 24 µs&#10; RightSideSortBuckets 2 ms 751 µs&#10; GatherRowIds 1 µs 248 ns&#10; FindJoinPartner 12 ms 418 µs&#10; OutputWriting 5 ms 727 µs.">
<polygon fill="none" stroke="white" stroke-width="8" points="883,-1442 598,-1442 598,-1373 883,-1373 883,-1442"/>
<text text-anchor="middle" x="740.5" y="-1426.8" font-family="Times,serif" font-size="14.00" fill="white">JoinSimdSortMerge (Semi Reduction)</text>
<text text-anchor="middle" x="740.5" y="-1411.8" font-family="Times,serif" font-size="14.00" fill="white">l_orderkey = o_orderkey</text>
<text text-anchor="middle" x="740.5" y="-1380.8" font-family="Times,serif" font-size="14.00" fill="white">603 ms 48 µs</text>
</a>
</g>
</g>
<!-- 281403585171088&#45;&gt;281403573030160 -->
<g id="edge9" class="edge">
<title>281403585171088&#45;&gt;281403573030160</title>
<path fill="none" stroke="white" d="M743.25,-1442.25C744.29,-1455.07 745.49,-1469.73 746.55,-1482.77"/>
<polygon fill="white" stroke="white" points="743.07,-1483.13 747.37,-1492.81 750.04,-1482.56 743.07,-1483.13"/>
<text text-anchor="middle" x="851.5" y="-1463.8" font-family="Times,serif" font-size="14.00" fill="white">9,155,281 row(s)/64 chunk(s)</text>
</g>
<!-- 281403585172688 -->
<g id="node11" class="node">
<title>281403585172688</title>
<g id="a_node11"><a xlink:title="Output: 60206669 rows in 256 chunks, 136 ms 4 µs.&#10;Operator step runtimes:&#10; LeftSideMaterialize 72 ms 416 µs&#10; RightSideMaterialize 362 µs 53 ns&#10; LeftSideTransform 0 ns&#10; RightSideTransform 0 ns&#10; LeftSidePartition 24 ms 28 µs&#10; RightSidePartition 1 ms 710 µs&#10; LeftSideSortBuckets 13 ms 730 µs&#10; RightSideSortBuckets 426 µs 661 ns&#10; GatherRowIds 896 ns&#10; FindJoinPartner 18 ms 196 µs&#10; OutputWriting 835 µs 211 ns.">
<polygon fill="none" stroke="white" stroke-width="4.33" points="883,-1322 598,-1322 598,-1253 883,-1253 883,-1322"/>
<text text-anchor="middle" x="740.5" y="-1306.8" font-family="Times,serif" font-size="14.00" fill="white">JoinSimdSortMerge (Semi Reduction)</text>
<text text-anchor="middle" x="740.5" y="-1291.8" font-family="Times,serif" font-size="14.00" fill="white">l_suppkey = s_suppkey</text>
<text text-anchor="middle" x="740.5" y="-1260.8" font-family="Times,serif" font-size="14.00" fill="white">136 ms 4 µs</text>
</a>
</g>
</g>
<!-- 281403585172688&#45;&gt;281403585171088 -->
<g id="edge10" class="edge">
<title>281403585172688&#45;&gt;281403585171088</title>
<path fill="none" stroke="white" stroke-width="4.04" d="M740.5,-1322.31C740.5,-1334.78 740.5,-1349.1 740.5,-1362.34"/>
<polygon fill="white" stroke="white" stroke-width="4.04" points="740.5,-1362.68 736.97,-1362.68 740.5,-1372.68 740.5,-1362.68"/>
<text text-anchor="middle" x="854.5" y="-1343.8" font-family="Times,serif" font-size="14.00" fill="white">60,206,669 row(s)/256 chunk(s)</text>
</g>
<!-- 281403591109584 -->
<g id="node12" class="node">
<title>281403591109584</title>
<g id="a_node12"><a xlink:title="Output: 300005811 rows in 4578 chunks, 7 ms 245 µs.">
<polygon fill="none" stroke="white" points="574,-1202 443,-1202 443,-1088 574,-1088 574,-1202"/>
<text text-anchor="middle" x="508.5" y="-1186.8" font-family="Times,serif" font-size="14.00" fill="white">GetTable</text>
<text text-anchor="middle" x="508.5" y="-1171.8" font-family="Times,serif" font-size="14.00" fill="white">(lineitem)</text>
<text text-anchor="middle" x="508.5" y="-1156.8" font-family="Times,serif" font-size="14.00" fill="white">pruned:</text>
<text text-anchor="middle" x="508.5" y="-1141.8" font-family="Times,serif" font-size="14.00" fill="white">0/4578 chunk(s)</text>
<text text-anchor="middle" x="508.5" y="-1126.8" font-family="Times,serif" font-size="14.00" fill="white">12/16 column(s)</text>
<text text-anchor="middle" x="508.5" y="-1095.8" font-family="Times,serif" font-size="14.00" fill="white">7 ms 245 µs</text>
</a>
</g>
</g>
<!-- 281403591109584&#45;&gt;281403585172688 -->
<g id="edge11" class="edge">
<title>281403591109584&#45;&gt;281403585172688</title>
<path fill="none" stroke="white" stroke-width="8" d="M503.19,-1202.02C504.7,-1214.06 508.55,-1225.88 516.5,-1235 527.54,-1247.66 555.55,-1257.56 588.16,-1265.15"/>
<polygon fill="white" stroke="white" stroke-width="8" points="588.18,-1265.16 586.66,-1271.99 597.95,-1267.33 588.18,-1265.16"/>
<text text-anchor="middle" x="641.5" y="-1223.8" font-family="Times,serif" font-size="14.00" fill="white">300,005,811 row(s)/4,578 chunk(s)</text>
</g>
<!-- 281403585173008 -->
<g id="node13" class="node">
<title>281403585173008</title>
<g id="a_node13"><a xlink:title="Output: 100324 rows in 5 chunks, 3 ms 564 µs.&#10;Operator step runtimes:&#10; LeftSideMaterialize 1 ms 26 µs&#10; RightSideMaterialize 14 µs 784 ns&#10; LeftSideTransform 0 ns&#10; RightSideTransform 0 ns&#10; LeftSidePartition 721 µs 385 ns&#10; RightSidePartition 9 µs 952 ns&#10; LeftSideSortBuckets 488 µs 198 ns&#10; RightSideSortBuckets 879 µs 659 ns&#10; GatherRowIds 512 ns&#10; FindJoinPartner 156 µs 706 ns&#10; OutputWriting 157 µs 794 ns.">
<polygon fill="none" stroke="white" points="988,-1179.5 777,-1179.5 777,-1110.5 988,-1110.5 988,-1179.5"/>
<text text-anchor="middle" x="882.5" y="-1164.3" font-family="Times,serif" font-size="14.00" fill="white">JoinSimdSortMerge (Inner)</text>
<text text-anchor="middle" x="882.5" y="-1149.3" font-family="Times,serif" font-size="14.00" fill="white">s_nationkey = n_nationkey</text>
<text text-anchor="middle" x="882.5" y="-1118.3" font-family="Times,serif" font-size="14.00" fill="white">3 ms 564 µs</text>
</a>
</g>
</g>
<!-- 281403585173008&#45;&gt;281403585170768 -->
<g id="edge13" class="edge">
<title>281403585173008&#45;&gt;281403585170768</title>
<path fill="none" stroke="white" d="M933.29,-1179.65C946.91,-1190.96 960.37,-1204.66 969.5,-1220 984.94,-1245.96 983.5,-1256.3 983.5,-1286.5 983.5,-1286.5 983.5,-1286.5 983.5,-1521 983.5,-1548.69 983.83,-1561.21 963.5,-1580 939.6,-1602.1 923.49,-1588.05 892.5,-1598 875.26,-1603.54 857.1,-1610.08 839.72,-1616.7"/>
<polygon fill="white" stroke="white" points="830.16,-1620.38 840.75,-1620.06 839.49,-1616.79 830.16,-1620.38"/>
<text text-anchor="middle" x="1077" y="-1403.8" font-family="Times,serif" font-size="14.00" fill="white">100,324 row(s)/5 chunk(s)</text>
</g>
<!-- 281403585173008&#45;&gt;281403585172688 -->
<g id="edge12" class="edge">
<title>281403585173008&#45;&gt;281403585172688</title>
<path fill="none" stroke="white" d="M829.65,-1179.53C813.47,-1191.2 796.32,-1205.12 782.5,-1220 775.67,-1227.35 769.3,-1235.97 763.69,-1244.51"/>
<polygon fill="white" stroke="white" points="758.34,-1252.98 766.64,-1246.39 763.68,-1244.52 758.34,-1252.98"/>
<text text-anchor="middle" x="876" y="-1223.8" font-family="Times,serif" font-size="14.00" fill="white">100,324 row(s)/5 chunk(s)</text>
</g>
<!-- 281403573017872 -->
<g id="node14" class="node">
<title>281403573017872</title>
<g id="a_node14"><a xlink:title="Output: 100324 rows in 5 chunks, 235 µs 267 ns.">
<polygon fill="none" stroke="white" points="1065,-1007 948,-1007 948,-953 1065,-953 1065,-1007"/>
<text text-anchor="middle" x="1006.5" y="-991.8" font-family="Times,serif" font-size="14.00" fill="white">Validate</text>
<text text-anchor="middle" x="1006.5" y="-960.8" font-family="Times,serif" font-size="14.00" fill="white">235 µs 267 ns</text>
</a>
</g>
</g>
<!-- 281403573017872&#45;&gt;281403585173008 -->
<g id="edge14" class="edge">
<title>281403573017872&#45;&gt;281403585173008</title>
<path fill="none" stroke="white" d="M986.58,-1007.19C967.12,-1032.77 937.18,-1072.12 914.4,-1102.06"/>
<polygon fill="white" stroke="white" points="914.24,-1102.28 911.45,-1100.16 908.18,-1110.24 914.24,-1102.28"/>
<text text-anchor="middle" x="1041" y="-1058.8" font-family="Times,serif" font-size="14.00" fill="white">100,324 row(s)/5 chunk(s)</text>
</g>
<!-- 281403585171728 -->
<g id="node15" class="node">
<title>281403585171728</title>
<g id="a_node15"><a xlink:title="Output: 100324 rows in 5 chunks, 2 ms 354 µs.&#10;Operator step runtimes:&#10; LeftSideMaterialize 309 µs 763 ns&#10; RightSideMaterialize 8 µs 641 ns&#10; LeftSideTransform 0 ns&#10; RightSideTransform 0 ns&#10; LeftSidePartition 618 µs 536 ns&#10; RightSidePartition 14 µs 112 ns&#10; LeftSideSortBuckets 426 µs 886 ns&#10; RightSideSortBuckets 547 µs 111 ns&#10; GatherRowIds 480 ns&#10; FindJoinPartner 175 µs 970 ns&#10; OutputWriting 146 µs 50 ns.">
<polygon fill="none" stroke="white" points="1175,-872 890,-872 890,-803 1175,-803 1175,-872"/>
<text text-anchor="middle" x="1032.5" y="-856.8" font-family="Times,serif" font-size="14.00" fill="white">JoinSimdSortMerge (Semi Reduction)</text>
<text text-anchor="middle" x="1032.5" y="-841.8" font-family="Times,serif" font-size="14.00" fill="white">s_nationkey = n_nationkey</text>
<text text-anchor="middle" x="1032.5" y="-810.8" font-family="Times,serif" font-size="14.00" fill="white">2 ms 354 µs</text>
</a>
</g>
</g>
<!-- 281403585171728&#45;&gt;281403573017872 -->
<g id="edge15" class="edge">
<title>281403585171728&#45;&gt;281403573017872</title>
<path fill="none" stroke="white" d="M1026.27,-872.15C1022.33,-893.46 1017.23,-920.99 1013.2,-942.78"/>
<polygon fill="white" stroke="white" points="1009.76,-942.18 1011.38,-952.65 1016.64,-943.45 1009.76,-942.18"/>
<text text-anchor="middle" x="1116" y="-893.8" font-family="Times,serif" font-size="14.00" fill="white">100,324 row(s)/5 chunk(s)</text>
</g>
<!-- 281403591113616 -->
<g id="node16" class="node">
<title>281403591113616</title>
<g id="a_node16"><a xlink:title="Output: 500000 rows in 8 chunks, 26 µs 368 ns.">
<polygon fill="none" stroke="white" points="1112,-752 999,-752 999,-638 1112,-638 1112,-752"/>
<text text-anchor="middle" x="1055.5" y="-736.8" font-family="Times,serif" font-size="14.00" fill="white">GetTable</text>
<text text-anchor="middle" x="1055.5" y="-721.8" font-family="Times,serif" font-size="14.00" fill="white">(supplier)</text>
<text text-anchor="middle" x="1055.5" y="-706.8" font-family="Times,serif" font-size="14.00" fill="white">pruned:</text>
<text text-anchor="middle" x="1055.5" y="-691.8" font-family="Times,serif" font-size="14.00" fill="white">0/8 chunk(s)</text>
<text text-anchor="middle" x="1055.5" y="-676.8" font-family="Times,serif" font-size="14.00" fill="white">5/7 column(s)</text>
<text text-anchor="middle" x="1055.5" y="-645.8" font-family="Times,serif" font-size="14.00" fill="white">26 µs 368 ns</text>
</a>
</g>
</g>
<!-- 281403591113616&#45;&gt;281403585171728 -->
<g id="edge16" class="edge">
<title>281403591113616&#45;&gt;281403585171728</title>
<path fill="none" stroke="white" d="M1046.28,-752.34C1044.07,-765.83 1041.74,-780.04 1039.64,-792.86"/>
<polygon fill="white" stroke="white" points="1039.63,-792.93 1036.18,-792.37 1038.02,-802.8 1039.63,-792.93"/>
<text text-anchor="middle" x="1136" y="-773.8" font-family="Times,serif" font-size="14.00" fill="white">500,000 row(s)/8 chunk(s)</text>
</g>
<!-- 281403573024528 -->
<g id="node17" class="node">
<title>281403573024528</title>
<g id="a_node17"><a xlink:title="Output: 5 rows in 1 chunk, 3 µs 72 ns.">
<polygon fill="none" stroke="white" points="923.5,-722 833.5,-722 833.5,-668 923.5,-668 923.5,-722"/>
<text text-anchor="middle" x="878.5" y="-706.8" font-family="Times,serif" font-size="14.00" fill="white">Validate</text>
<text text-anchor="middle" x="878.5" y="-675.8" font-family="Times,serif" font-size="14.00" fill="white">3 µs 72 ns</text>
</a>
</g>
</g>
<!-- 281403573024528&#45;&gt;281403585173008 -->
<g id="edge18" class="edge">
<title>281403573024528&#45;&gt;281403585173008</title>
<path fill="none" stroke="white" d="M878.32,-722.04C878.08,-759.28 877.65,-829.88 877.5,-890 877.31,-963.71 879.5,-1049.42 881.04,-1100.06"/>
<polygon fill="white" stroke="white" points="881.36,-1110.31 884.55,-1100.21 881.05,-1100.32 881.36,-1110.31"/>
<text text-anchor="middle" x="946.5" y="-893.8" font-family="Times,serif" font-size="14.00" fill="white">5 row(s)/1 chunk(s)</text>
</g>
<!-- 281403573024528&#45;&gt;281403585171728 -->
<g id="edge17" class="edge">
<title>281403573024528&#45;&gt;281403585171728</title>
<path fill="none" stroke="white" d="M878.07,-722.29C879.13,-741.74 883.59,-767.74 898.5,-785 902.17,-789.24 906.22,-793.14 910.57,-796.71"/>
<polygon fill="white" stroke="white" points="918.7,-802.81 912.8,-794.01 910.7,-796.81 918.7,-802.81"/>
<text text-anchor="middle" x="967.5" y="-773.8" font-family="Times,serif" font-size="14.00" fill="white">5 row(s)/1 chunk(s)</text>
</g>
<!-- 281403585172048 -->
<g id="node18" class="node">
<title>281403585172048</title>
<g id="a_node18"><a xlink:title="Output: 5 rows in 1 chunk, 1 ms 195 µs.&#10;Operator step runtimes:&#10; LeftSideMaterialize 9 µs 856 ns&#10; RightSideMaterialize 20 µs 769 ns&#10; LeftSideTransform 0 ns&#10; RightSideTransform 0 ns&#10; LeftSidePartition 13 µs 440 ns&#10; RightSidePartition 7 µs 584 ns&#10; LeftSideSortBuckets 580 µs 647 ns&#10; RightSideSortBuckets 440 µs 421 ns&#10; GatherRowIds 448 ns&#10; FindJoinPartner 2 µs 752 ns&#10; OutputWriting 8 µs 832 ns.">
<polygon fill="none" stroke="white" points="983,-587 774,-587 774,-518 983,-518 983,-587"/>
<text text-anchor="middle" x="878.5" y="-571.8" font-family="Times,serif" font-size="14.00" fill="white">JoinSimdSortMerge (Semi)</text>
<text text-anchor="middle" x="878.5" y="-556.8" font-family="Times,serif" font-size="14.00" fill="white">n_regionkey = r_regionkey</text>
<text text-anchor="middle" x="878.5" y="-525.8" font-family="Times,serif" font-size="14.00" fill="white">1 ms 195 µs</text>
</a>
</g>
</g>
<!-- 281403585172048&#45;&gt;281403573024528 -->
<g id="edge19" class="edge">
<title>281403585172048&#45;&gt;281403573024528</title>
<path fill="none" stroke="white" d="M878.5,-587.15C878.5,-608.36 878.5,-635.75 878.5,-657.48"/>
<polygon fill="white" stroke="white" points="875,-657.65 878.5,-667.65 882,-657.65 875,-657.65"/>
<text text-anchor="middle" x="947.5" y="-608.8" font-family="Times,serif" font-size="14.00" fill="white">5 row(s)/1 chunk(s)</text>
</g>
<!-- 281403591113168 -->
<g id="node19" class="node">
<title>281403591113168</title>
<g id="a_node19"><a xlink:title="Output: 25 rows in 1 chunk, 9 µs 984 ns.">
<polygon fill="none" stroke="white" points="850,-467 737,-467 737,-353 850,-353 850,-467"/>
<text text-anchor="middle" x="793.5" y="-451.8" font-family="Times,serif" font-size="14.00" fill="white">GetTable</text>
<text text-anchor="middle" x="793.5" y="-436.8" font-family="Times,serif" font-size="14.00" fill="white">(nation)</text>
<text text-anchor="middle" x="793.5" y="-421.8" font-family="Times,serif" font-size="14.00" fill="white">pruned:</text>
<text text-anchor="middle" x="793.5" y="-406.8" font-family="Times,serif" font-size="14.00" fill="white">0/1 chunk(s)</text>
<text text-anchor="middle" x="793.5" y="-391.8" font-family="Times,serif" font-size="14.00" fill="white">1/4 column(s)</text>
<text text-anchor="middle" x="793.5" y="-360.8" font-family="Times,serif" font-size="14.00" fill="white">9 µs 984 ns</text>
</a>
</g>
</g>
<!-- 281403591113168&#45;&gt;281403585172048 -->
<g id="edge20" class="edge">
<title>281403591113168&#45;&gt;281403585172048</title>
<path fill="none" stroke="white" d="M785.77,-467.38C786.46,-478.74 788.93,-490.19 794.5,-500 796.64,-503.77 799.17,-507.29 802.01,-510.59"/>
<polygon fill="white" stroke="white" points="802.13,-510.71 799.62,-513.15 809.11,-517.86 802.13,-510.71"/>
<text text-anchor="middle" x="868" y="-488.8" font-family="Times,serif" font-size="14.00" fill="white">25 row(s)/1 chunk(s)</text>
</g>
<!-- 281403573026576 -->
<g id="node20" class="node">
<title>281403573026576</title>
<g id="a_node20"><a xlink:title="Output: 1 row in 1 chunk, 4 µs 992 ns.">
<polygon fill="none" stroke="white" points="1013,-437 914,-437 914,-383 1013,-383 1013,-437"/>
<text text-anchor="middle" x="963.5" y="-421.8" font-family="Times,serif" font-size="14.00" fill="white">Validate</text>
<text text-anchor="middle" x="963.5" y="-390.8" font-family="Times,serif" font-size="14.00" fill="white">4 µs 992 ns</text>
</a>
</g>
</g>
<!-- 281403573026576&#45;&gt;281403585172048 -->
<g id="edge21" class="edge">
<title>281403573026576&#45;&gt;281403585172048</title>
<path fill="none" stroke="white" d="M961.43,-437.26C958.95,-455.96 953.5,-481.03 941.5,-500 939.21,-503.63 936.57,-507.12 933.7,-510.45"/>
<polygon fill="white" stroke="white" points="926.66,-517.95 936.06,-513.06 933.51,-510.66 926.66,-517.95"/>
<text text-anchor="middle" x="1016.5" y="-488.8" font-family="Times,serif" font-size="14.00" fill="white">1 row(s)/1 chunk(s)</text>
</g>
<!-- 281403585171408 -->
<g id="node21" class="node">
<title>281403585171408</title>
<g id="a_node21"><a xlink:title="Output: 1 row in 1 chunk, 14 µs 16 ns.&#10;Chunks: 0 skipped with no results, &#10;0 skipped with all matching, 0 scanned using binary search.">
<polygon fill="none" stroke="white" points="1048,-302 879,-302 879,-218 1048,-218 1048,-302"/>
<text text-anchor="middle" x="963.5" y="-286.8" font-family="Times,serif" font-size="14.00" fill="white">TableScan</text>
<text text-anchor="middle" x="963.5" y="-271.8" font-family="Times,serif" font-size="14.00" fill="white">Impl: ColumnVsValue</text>
<text text-anchor="middle" x="963.5" y="-256.8" font-family="Times,serif" font-size="14.00" fill="white">r_name = &#39;EUROPE&#39;</text>
<text text-anchor="middle" x="963.5" y="-225.8" font-family="Times,serif" font-size="14.00" fill="white">14 µs 16 ns</text>
</a>
</g>
</g>
<!-- 281403585171408&#45;&gt;281403573026576 -->
<g id="edge22" class="edge">
<title>281403585171408&#45;&gt;281403573026576</title>
<path fill="none" stroke="white" d="M963.5,-302.23C963.5,-324.32 963.5,-351.31 963.5,-372.62"/>
<polygon fill="white" stroke="white" points="960,-372.88 963.5,-382.88 967,-372.88 960,-372.88"/>
<text text-anchor="middle" x="1032.5" y="-323.8" font-family="Times,serif" font-size="14.00" fill="white">1 row(s)/1 chunk(s)</text>
</g>
<!-- 281403591112720 -->
<g id="node22" class="node">
<title>281403591112720</title>
<g id="a_node22"><a xlink:title="Output: 5 rows in 1 chunk, 7 µs 872 ns.">
<polygon fill="none" stroke="white" points="1020,-140.5 907,-140.5 907,-26.5 1020,-26.5 1020,-140.5"/>
<text text-anchor="middle" x="963.5" y="-125.3" font-family="Times,serif" font-size="14.00" fill="white">GetTable</text>
<text text-anchor="middle" x="963.5" y="-110.3" font-family="Times,serif" font-size="14.00" fill="white">(region)</text>
<text text-anchor="middle" x="963.5" y="-95.3" font-family="Times,serif" font-size="14.00" fill="white">pruned:</text>
<text text-anchor="middle" x="963.5" y="-80.3" font-family="Times,serif" font-size="14.00" fill="white">0/1 chunk(s)</text>
<text text-anchor="middle" x="963.5" y="-65.3" font-family="Times,serif" font-size="14.00" fill="white">1/3 column(s)</text>
<text text-anchor="middle" x="963.5" y="-34.3" font-family="Times,serif" font-size="14.00" fill="white">7 µs 872 ns</text>
</a>
</g>
</g>
<!-- 281403591112720&#45;&gt;281403585171408 -->
<g id="edge23" class="edge">
<title>281403591112720&#45;&gt;281403585171408</title>
<path fill="none" stroke="white" d="M963.5,-140.67C963.5,-162.25 963.5,-186.74 963.5,-207.83"/>
<polygon fill="white" stroke="white" points="960,-207.87 963.5,-217.87 967,-207.87 960,-207.87"/>
<text text-anchor="middle" x="1032.5" y="-188.8" font-family="Times,serif" font-size="14.00" fill="white">5 row(s)/1 chunk(s)</text>
</g>
<!-- 281403573025808 -->
<g id="node23" class="node">
<title>281403573025808</title>
<g id="a_node23"><a xlink:title="Output: 11410288 rows in 1145 chunks, 1 ms 809 µs.">
<polygon fill="none" stroke="white" points="485.5,-1314.5 381.5,-1314.5 381.5,-1260.5 485.5,-1260.5 485.5,-1314.5"/>
<text text-anchor="middle" x="433.5" y="-1299.3" font-family="Times,serif" font-size="14.00" fill="white">Validate</text>
<text text-anchor="middle" x="433.5" y="-1268.3" font-family="Times,serif" font-size="14.00" fill="white">1 ms 809 µs</text>
</a>
</g>
</g>
<!-- 281403573025808&#45;&gt;281403585170448 -->
<g id="edge25" class="edge">
<title>281403573025808&#45;&gt;281403585170448</title>
<path fill="none" stroke="white" d="M433.5,-1314.75C433.5,-1338.66 433.5,-1374.95 433.5,-1406.5 433.5,-1406.5 433.5,-1406.5 433.5,-1656 433.5,-1736.2 525.02,-1770.63 604.7,-1785.4"/>
<polygon fill="white" stroke="white" points="614.85,-1787.19 605.61,-1782.01 605.01,-1785.45 614.85,-1787.19"/>
<text text-anchor="middle" x="554" y="-1516.3" font-family="Times,serif" font-size="14.00" fill="white">11,410,288 row(s)/1,145 chunk(s)</text>
</g>
<!-- 281403573025808&#45;&gt;281403585171088 -->
<g id="edge24" class="edge">
<title>281403573025808&#45;&gt;281403585171088</title>
<path fill="none" stroke="white" d="M451.56,-1314.63C462.65,-1328.7 478.04,-1345.15 495.5,-1355 523.63,-1370.87 556.07,-1381.87 587.95,-1389.49"/>
<polygon fill="white" stroke="white" points="597.83,-1391.74 588.86,-1386.1 588.08,-1389.52 597.83,-1391.74"/>
<text text-anchor="middle" x="616" y="-1343.8" font-family="Times,serif" font-size="14.00" fill="white">11,410,288 row(s)/1,145 chunk(s)</text>
</g>
<!-- 281403585172368 -->
<g id="node24" class="node">
<title>281403585172368</title>
<g id="a_node24"><a xlink:title="Output: 11410288 rows in 1145 chunks, 3 ms 232 µs.&#10;Chunks: 0 skipped with no results, &#10;0 skipped with all matching, 0 scanned using binary search.">
<polygon fill="none" stroke="white" points="425,-1194.5 0,-1194.5 0,-1095.5 425,-1095.5 425,-1194.5"/>
<text text-anchor="middle" x="212.5" y="-1179.3" font-family="Times,serif" font-size="14.00" fill="white">TableScan</text>
<text text-anchor="middle" x="212.5" y="-1164.3" font-family="Times,serif" font-size="14.00" fill="white">Impl: ColumnBetween</text>
<text text-anchor="middle" x="212.5" y="-1149.3" font-family="Times,serif" font-size="14.00" fill="white">o_orderdate BETWEEN UPPER EXCLUSIVE &#39;1996&#45;01&#45;01&#39;</text>
<text text-anchor="middle" x="212.5" y="-1134.3" font-family="Times,serif" font-size="14.00" fill="white">AND &#39;1997&#45;01&#45;01&#39;</text>
<text text-anchor="middle" x="212.5" y="-1103.3" font-family="Times,serif" font-size="14.00" fill="white">3 ms 232 µs</text>
</a>
</g>
</g>
<!-- 281403585172368&#45;&gt;281403573025808 -->
<g id="edge26" class="edge">
<title>281403585172368&#45;&gt;281403573025808</title>
<path fill="none" stroke="white" d="M221.54,-1194.78C226.43,-1209.44 233.96,-1224.43 245.5,-1235 279.66,-1266.29 331.05,-1278.84 371.47,-1283.75"/>
<polygon fill="white" stroke="white" points="371.17,-1287.24 381.49,-1284.84 371.93,-1280.28 371.17,-1287.24"/>
<text text-anchor="middle" x="366" y="-1223.8" font-family="Times,serif" font-size="14.00" fill="white">11,410,288 row(s)/1,145 chunk(s)</text>
</g>
<!-- 281403591112272 -->
<g id="node25" class="node">
<title>281403591112272</title>
<g id="a_node25"><a xlink:title="Output: 75000000 rows in 1145 chunks, 2 ms 353 µs.">
<polygon fill="none" stroke="white" points="278,-1037 147,-1037 147,-923 278,-923 278,-1037"/>
<text text-anchor="middle" x="212.5" y="-1021.8" font-family="Times,serif" font-size="14.00" fill="white">GetTable</text>
<text text-anchor="middle" x="212.5" y="-1006.8" font-family="Times,serif" font-size="14.00" fill="white">(orders)</text>
<text text-anchor="middle" x="212.5" y="-991.8" font-family="Times,serif" font-size="14.00" fill="white">pruned:</text>
<text text-anchor="middle" x="212.5" y="-976.8" font-family="Times,serif" font-size="14.00" fill="white">0/1145 chunk(s)</text>
<text text-anchor="middle" x="212.5" y="-961.8" font-family="Times,serif" font-size="14.00" fill="white">6/9 column(s)</text>
<text text-anchor="middle" x="212.5" y="-930.8" font-family="Times,serif" font-size="14.00" fill="white">2 ms 353 µs</text>
</a>
</g>
</g>
<!-- 281403591112272&#45;&gt;281403585172368 -->
<g id="edge27" class="edge">
<title>281403591112272&#45;&gt;281403585172368</title>
<path fill="none" stroke="white" stroke-width="4.58" d="M212.5,-1037.1C212.5,-1052.66 212.5,-1069.59 212.5,-1085.3"/>
<polygon fill="white" stroke="white" stroke-width="4.58" points="208.49,-1085.42 212.5,-1095.42 216.51,-1085.42 208.49,-1085.42"/>
<text text-anchor="middle" x="333" y="-1058.8" font-family="Times,serif" font-size="14.00" fill="white">75,000,000 row(s)/1,145 chunk(s)</text>
</g>
<!-- 281403573027344 -->
<g id="node26" class="node">
<title>281403573027344</title>
<g id="a_node26"><a xlink:title="Output: 7500000 rows in 115 chunks, 496 µs 262 ns.">
<polygon fill="none" stroke="white" points="1019,-1824.5 902,-1824.5 902,-1770.5 1019,-1770.5 1019,-1824.5"/>
<text text-anchor="middle" x="960.5" y="-1809.3" font-family="Times,serif" font-size="14.00" fill="white">Validate</text>
<text text-anchor="middle" x="960.5" y="-1778.3" font-family="Times,serif" font-size="14.00" fill="white">496 µs 262 ns</text>
</a>
</g>
</g>
<!-- 281403573027344&#45;&gt;281403585170128 -->
<g id="edge28" class="edge">
<title>281403573027344&#45;&gt;281403585170128</title>
<path fill="none" stroke="white" d="M956.16,-1824.78C952.87,-1838.04 947.19,-1853.68 937.5,-1865 933.94,-1869.16 929.95,-1873.04 925.68,-1876.65"/>
<polygon fill="white" stroke="white" points="917.72,-1882.84 927.76,-1879.46 925.61,-1876.7 917.72,-1882.84"/>
<text text-anchor="middle" x="1056" y="-1853.8" font-family="Times,serif" font-size="14.00" fill="white">7,500,000 row(s)/115 chunk(s)</text>
</g>
<!-- 281403591111824 -->
<g id="node27" class="node">
<title>281403591111824</title>
<g id="a_node27"><a xlink:title="Output: 7500000 rows in 115 chunks, 262 µs 371 ns.">
<polygon fill="none" stroke="white" points="1023.5,-1712 901.5,-1712 901.5,-1598 1023.5,-1598 1023.5,-1712"/>
<text text-anchor="middle" x="962.5" y="-1696.8" font-family="Times,serif" font-size="14.00" fill="white">GetTable</text>
<text text-anchor="middle" x="962.5" y="-1681.8" font-family="Times,serif" font-size="14.00" fill="white">(customer)</text>
<text text-anchor="middle" x="962.5" y="-1666.8" font-family="Times,serif" font-size="14.00" fill="white">pruned:</text>
<text text-anchor="middle" x="962.5" y="-1651.8" font-family="Times,serif" font-size="14.00" fill="white">0/115 chunk(s)</text>
<text text-anchor="middle" x="962.5" y="-1636.8" font-family="Times,serif" font-size="14.00" fill="white">6/8 column(s)</text>
<text text-anchor="middle" x="962.5" y="-1605.8" font-family="Times,serif" font-size="14.00" fill="white">262 µs 371 ns</text>
</a>
</g>
</g>
<!-- 281403591111824&#45;&gt;281403573027344 -->
<g id="edge29" class="edge">
<title>281403591111824&#45;&gt;281403573027344</title>
<path fill="none" stroke="white" d="M961.7,-1712.34C961.47,-1728.43 961.23,-1745.54 961.02,-1760.1"/>
<polygon fill="white" stroke="white" points="957.52,-1760.16 960.87,-1770.2 964.52,-1760.26 957.52,-1760.16"/>
<text text-anchor="middle" x="1070" y="-1733.8" font-family="Times,serif" font-size="14.00" fill="white">7,500,000 row(s)/115 chunk(s)</text>
</g>
<!-- 0 -->
<g id="node28" class="node">
<title>0</title>
<polygon fill="none" stroke="white" points="1038,-0.5 1038,-166.5 1375,-166.5 1375,-0.5 1038,-0.5"/>
<text text-anchor="middle" x="1206.5" y="-151.3" font-family="Times,serif" font-size="14.00" fill="white">Total by operator</text>
<polyline fill="none" stroke="white" points="1038,-143.5 1375,-143.5 "/>
<text text-anchor="end" x="1192" y="-128.3" font-family="Times,serif" font-size="14.00" fill="white">JoinSimdSortMerge </text>
<text text-anchor="end" x="1192" y="-113.3" font-family="Times,serif" font-size="14.00" fill="white"> Projection </text>
<text text-anchor="end" x="1192" y="-98.3" font-family="Times,serif" font-size="14.00" fill="white"> Validate </text>
<text text-anchor="end" x="1192" y="-83.3" font-family="Times,serif" font-size="14.00" fill="white"> AggregateHash </text>
<text text-anchor="end" x="1192" y="-68.3" font-family="Times,serif" font-size="14.00" fill="white"> GetTable </text>
<text text-anchor="end" x="1192" y="-53.3" font-family="Times,serif" font-size="14.00" fill="white"> TableScan </text>
<text text-anchor="end" x="1192" y="-38.3" font-family="Times,serif" font-size="14.00" fill="white"> Sort </text>
<text text-anchor="end" x="1192" y="-23.3" font-family="Times,serif" font-size="14.00" fill="white"> Alias </text>
<text text-anchor="end" x="1192" y="-8.3" font-family="Times,serif" font-size="14.00" fill="white">total</text>
<polyline fill="none" stroke="white" points="1200,-0.5 1200,-143.5 "/>
<text text-anchor="start" x="1208" y="-128.3" font-family="Times,serif" font-size="14.00" fill="white">1 s 91 ms </text>
<text text-anchor="start" x="1208" y="-113.3" font-family="Times,serif" font-size="14.00" fill="white"> 51 ms 462 µs </text>
<text text-anchor="start" x="1208" y="-98.3" font-family="Times,serif" font-size="14.00" fill="white"> 17 ms 812 µs </text>
<text text-anchor="start" x="1208" y="-83.3" font-family="Times,serif" font-size="14.00" fill="white"> 15 ms 387 µs </text>
<text text-anchor="start" x="1208" y="-68.3" font-family="Times,serif" font-size="14.00" fill="white"> 9 ms 904 µs </text>
<text text-anchor="start" x="1208" y="-53.3" font-family="Times,serif" font-size="14.00" fill="white"> 8 ms 793 µs </text>
<text text-anchor="start" x="1208" y="-38.3" font-family="Times,serif" font-size="14.00" fill="white"> 12 µs 800 ns </text>
<text text-anchor="start" x="1208" y="-23.3" font-family="Times,serif" font-size="14.00" fill="white"> 3 µs 8 ns </text>
<text text-anchor="start" x="1208" y="-8.3" font-family="Times,serif" font-size="14.00" fill="white"> 1 s 194 ms </text>
<polyline fill="none" stroke="white" points="1322,-0.5 1322,-143.5 "/>
<text text-anchor="start" x="1330" y="-128.3" font-family="Times,serif" font-size="14.00" fill="white">91 %</text>
<text text-anchor="start" x="1330" y="-113.3" font-family="Times,serif" font-size="14.00" fill="white">4 %</text>
<text text-anchor="start" x="1330" y="-98.3" font-family="Times,serif" font-size="14.00" fill="white">1 %</text>
<text text-anchor="start" x="1330" y="-83.3" font-family="Times,serif" font-size="14.00" fill="white">1 %</text>
<text text-anchor="start" x="1330" y="-68.3" font-family="Times,serif" font-size="14.00" fill="white">1 %</text>
<text text-anchor="start" x="1330" y="-53.3" font-family="Times,serif" font-size="14.00" fill="white">1 %</text>
<text text-anchor="start" x="1330" y="-38.3" font-family="Times,serif" font-size="14.00" fill="white">0 %</text>
<text text-anchor="start" x="1330" y="-23.3" font-family="Times,serif" font-size="14.00" fill="white">0 %</text>
<text text-anchor="start" x="1330" y="-8.3" font-family="Times,serif" font-size="14.00" fill="white"> </text>
</g>
</g>
</svg>
