<?xml version="1.0" encoding="UTF-8" standalone="no"?>
<!DOCTYPE svg PUBLIC "-//W3C//DTD SVG 1.1//EN"
 "http://www.w3.org/Graphics/SVG/1.1/DTD/svg11.dtd">
<!-- Generated by graphviz version 2.43.0 (0)
 -->
<!-- Title: G Pages: 1 -->
<svg width="810pt" height="2420pt"
 viewBox="0.00 0.00 810.00 2420.00" xmlns="http://www.w3.org/2000/svg" xmlns:xlink="http://www.w3.org/1999/xlink">
<g id="graph0" class="graph" transform="scale(1 1) rotate(0) translate(4 2416)">
<title>G</title>
<polygon fill="black" stroke="transparent" points="-4,4 -4,-2416 806,-2416 806,4 -4,4"/>
<text text-anchor="middle" x="319.5" y="-2396.8" font-family="Times,serif" font-size="14.00" fill="white">For tooltips with advanced information, hover your mouse over vertices or edge labels.</text>
<!-- 281426123934672 -->
<g id="node1" class="node">
<title>281426123934672</title>
<g id="a_node1"><a xlink:title="Output: 8999 rows in 1 chunk, 9 µs 248 ns.&#10;Operator step runtimes:&#10; ForwardUnmodifiedColumns 2 µs 848 ns&#10; EvaluateNewColumns 512 ns&#10; BuildOutput 4 µs 64 ns.">
<polygon fill="none" stroke="white" points="538.5,-2357 439.5,-2357 439.5,-2303 538.5,-2303 538.5,-2357"/>
<text text-anchor="middle" x="489" y="-2341.8" font-family="Times,serif" font-size="14.00" fill="white">Projection</text>
<text text-anchor="middle" x="489" y="-2310.8" font-family="Times,serif" font-size="14.00" fill="white">9 µs 248 ns</text>
</a>
</g>
</g>
<!-- 281426123934352 -->
<g id="node2" class="node">
<title>281426123934352</title>
<g id="a_node2"><a xlink:title="Output: 8999 rows in 1 chunk, 8 ms 212 µs.&#10;Operator step runtimes:&#10; MaterializeSortColumns 5 ms 255 µs&#10; Sort 2 ms 747 µs&#10; TemporaryResultWriting 25 µs 313 ns&#10; WriteOutput 92 µs 609 ns.">
<polygon fill="none" stroke="white" points="541,-2252 437,-2252 437,-2198 541,-2198 541,-2252"/>
<text text-anchor="middle" x="489" y="-2236.8" font-family="Times,serif" font-size="14.00" fill="white">Sort</text>
<text text-anchor="middle" x="489" y="-2205.8" font-family="Times,serif" font-size="14.00" fill="white">8 ms 212 µs</text>
</a>
</g>
</g>
<!-- 281426123934352&#45;&gt;281426123934672 -->
<g id="edge1" class="edge">
<title>281426123934352&#45;&gt;281426123934672</title>
<path fill="none" stroke="white" d="M489,-2252.26C489,-2264.49 489,-2279.24 489,-2292.52"/>
<polygon fill="white" stroke="white" points="485.5,-2292.79 489,-2302.79 492.5,-2292.79 485.5,-2292.79"/>
<text text-anchor="middle" x="573.5" y="-2273.8" font-family="Times,serif" font-size="14.00" fill="white">8,999 row(s)/1 chunk(s)</text>
</g>
<!-- 281426126970640 -->
<g id="node3" class="node">
<title>281426126970640</title>
<g id="a_node3"><a xlink:title="Output: 8999 rows in 1 chunk, 25 µs 760 ns.">
<polygon fill="none" stroke="white" points="543,-2147 435,-2147 435,-2093 543,-2093 543,-2147"/>
<text text-anchor="middle" x="489" y="-2131.8" font-family="Times,serif" font-size="14.00" fill="white">Validate</text>
<text text-anchor="middle" x="489" y="-2100.8" font-family="Times,serif" font-size="14.00" fill="white">25 µs 760 ns</text>
</a>
</g>
</g>
<!-- 281426126970640&#45;&gt;281426123934352 -->
<g id="edge2" class="edge">
<title>281426126970640&#45;&gt;281426123934352</title>
<path fill="none" stroke="white" d="M489,-2147.26C489,-2159.49 489,-2174.24 489,-2187.52"/>
<polygon fill="white" stroke="white" points="485.5,-2187.79 489,-2197.79 492.5,-2187.79 485.5,-2187.79"/>
<text text-anchor="middle" x="573.5" y="-2168.8" font-family="Times,serif" font-size="14.00" fill="white">8,999 row(s)/1 chunk(s)</text>
</g>
<!-- 281426123934032 -->
<g id="node4" class="node">
<title>281426123934032</title>
<g id="a_node4"><a xlink:title="Output: 8999 rows in 1 chunk, 5 ms 894 µs.&#10;Operator step runtimes:&#10; LeftSideMaterialize 4 ms 346 µs&#10; RightSideMaterialize 14 µs 816 ns&#10; LeftSideTransform 0 ns&#10; RightSideTransform 0 ns&#10; LeftSidePartition 160 µs 898 ns&#10; RightSidePartition 7 µs 8 ns&#10; LeftSideSortBuckets 436 µs 357 ns&#10; RightSideSortBuckets 439 µs 845 ns&#10; GatherRowIds 320 ns&#10; FindJoinPartner 42 µs 465 ns&#10; OutputWriting 298 µs 531 ns.">
<polygon fill="none" stroke="white" points="593.5,-2042 384.5,-2042 384.5,-1973 593.5,-1973 593.5,-2042"/>
<text text-anchor="middle" x="489" y="-2026.8" font-family="Times,serif" font-size="14.00" fill="white">JoinSimdSortMerge (Semi)</text>
<text text-anchor="middle" x="489" y="-2011.8" font-family="Times,serif" font-size="14.00" fill="white">s_nationkey = n_nationkey</text>
<text text-anchor="middle" x="489" y="-1980.8" font-family="Times,serif" font-size="14.00" fill="white">5 ms 894 µs</text>
</a>
</g>
</g>
<!-- 281426123934032&#45;&gt;281426126970640 -->
<g id="edge3" class="edge">
<title>281426123934032&#45;&gt;281426126970640</title>
<path fill="none" stroke="white" d="M489,-2042.25C489,-2055.07 489,-2069.73 489,-2082.77"/>
<polygon fill="white" stroke="white" points="485.5,-2082.81 489,-2092.81 492.5,-2082.81 485.5,-2082.81"/>
<text text-anchor="middle" x="573.5" y="-2063.8" font-family="Times,serif" font-size="14.00" fill="white">8,999 row(s)/1 chunk(s)</text>
</g>
<!-- 281426123933392 -->
<g id="node5" class="node">
<title>281426123933392</title>
<g id="a_node5"><a xlink:title="Output: 225135 rows in 256 chunks, 21 ms 2 µs.&#10;Operator step runtimes:&#10; LeftSideMaterialize 473 µs 670 ns&#10; RightSideMaterialize 13 ms 880 µs&#10; LeftSideTransform 0 ns&#10; RightSideTransform 0 ns&#10; LeftSidePartition 1 ms 791 µs&#10; RightSidePartition 2 ms 531 µs&#10; LeftSideSortBuckets 445 µs 349 ns&#10; RightSideSortBuckets 436 µs 773 ns&#10; GatherRowIds 768 ns&#10; FindJoinPartner 497 µs 542 ns&#10; OutputWriting 634 µs 152 ns.">
<polygon fill="none" stroke="white" points="479.5,-1922 270.5,-1922 270.5,-1853 479.5,-1853 479.5,-1922"/>
<text text-anchor="middle" x="375" y="-1906.8" font-family="Times,serif" font-size="14.00" fill="white">JoinSimdSortMerge (Semi)</text>
<text text-anchor="middle" x="375" y="-1891.8" font-family="Times,serif" font-size="14.00" fill="white">s_suppkey = ps_suppkey</text>
<text text-anchor="middle" x="375" y="-1860.8" font-family="Times,serif" font-size="14.00" fill="white">21 ms 2 µs</text>
</a>
</g>
</g>
<!-- 281426123933392&#45;&gt;281426123934032 -->
<g id="edge4" class="edge">
<title>281426123933392&#45;&gt;281426123934032</title>
<path fill="none" stroke="white" d="M368.61,-1922.06C368.18,-1933.32 369.74,-1945.43 376,-1955 378.59,-1958.96 381.57,-1962.63 384.85,-1966.01"/>
<polygon fill="white" stroke="white" points="385.1,-1966.24 382.74,-1968.82 392.48,-1972.98 385.1,-1966.24"/>
<text text-anchor="middle" x="478.5" y="-1943.8" font-family="Times,serif" font-size="14.00" fill="white">225,135 row(s)/256 chunk(s)</text>
</g>
<!-- 281431832009744 -->
<g id="node6" class="node">
<title>281431832009744</title>
<g id="a_node6"><a xlink:title="Output: 500000 rows in 8 chunks, 22 µs 145 ns.">
<polygon fill="none" stroke="white" points="440.5,-1802 327.5,-1802 327.5,-1688 440.5,-1688 440.5,-1802"/>
<text text-anchor="middle" x="384" y="-1786.8" font-family="Times,serif" font-size="14.00" fill="white">GetTable</text>
<text text-anchor="middle" x="384" y="-1771.8" font-family="Times,serif" font-size="14.00" fill="white">(supplier)</text>
<text text-anchor="middle" x="384" y="-1756.8" font-family="Times,serif" font-size="14.00" fill="white">pruned:</text>
<text text-anchor="middle" x="384" y="-1741.8" font-family="Times,serif" font-size="14.00" fill="white">0/8 chunk(s)</text>
<text text-anchor="middle" x="384" y="-1726.8" font-family="Times,serif" font-size="14.00" fill="white">3/7 column(s)</text>
<text text-anchor="middle" x="384" y="-1695.8" font-family="Times,serif" font-size="14.00" fill="white">22 µs 145 ns</text>
</a>
</g>
</g>
<!-- 281431832009744&#45;&gt;281426123933392 -->
<g id="edge5" class="edge">
<title>281431832009744&#45;&gt;281426123933392</title>
<path fill="none" stroke="white" d="M380.39,-1802.34C379.54,-1815.7 378.63,-1829.76 377.82,-1842.48"/>
<polygon fill="white" stroke="white" points="377.8,-1842.82 374.31,-1842.6 377.16,-1852.8 377.8,-1842.82"/>
<text text-anchor="middle" x="473.5" y="-1823.8" font-family="Times,serif" font-size="14.00" fill="white">500,000 row(s)/8 chunk(s)</text>
</g>
<!-- 281426123933072 -->
<g id="node7" class="node">
<title>281426123933072</title>
<g id="a_node7"><a xlink:title="Output: 297902 rows in 256 chunks, 146 µs 530 ns.&#10;Operator step runtimes:&#10; ForwardUnmodifiedColumns 56 µs 769 ns&#10; EvaluateNewColumns 128 ns&#10; BuildOutput 58 µs 880 ns.">
<polygon fill="none" stroke="white" points="214.5,-1772 97.5,-1772 97.5,-1718 214.5,-1718 214.5,-1772"/>
<text text-anchor="middle" x="156" y="-1756.8" font-family="Times,serif" font-size="14.00" fill="white">Projection</text>
<text text-anchor="middle" x="156" y="-1725.8" font-family="Times,serif" font-size="14.00" fill="white">146 µs 530 ns</text>
</a>
</g>
</g>
<!-- 281426123933072&#45;&gt;281426123933392 -->
<g id="edge6" class="edge">
<title>281426123933072&#45;&gt;281426123933392</title>
<path fill="none" stroke="white" d="M152.99,-1772.24C152.24,-1791.93 154.7,-1818.26 170,-1835 183.21,-1849.45 221.02,-1860.8 260.63,-1869.13"/>
<polygon fill="white" stroke="white" points="270.45,-1871.13 261.35,-1865.7 260.65,-1869.13 270.45,-1871.13"/>
<text text-anchor="middle" x="272.5" y="-1823.8" font-family="Times,serif" font-size="14.00" fill="white">297,902 row(s)/256 chunk(s)</text>
</g>
<!-- 281426123932752 -->
<g id="node8" class="node">
<title>281426123932752</title>
<g id="a_node8"><a xlink:title="Output: 297902 rows in 256 chunks, 131 ms 147 µs.&#10;Operator step runtimes:&#10; LeftSideMaterialize 8 ms 708 µs&#10; RightSideMaterialize 38 ms 840 µs&#10; LeftSideTransform 0 ns&#10; RightSideTransform 0 ns&#10; LeftSidePartition 2 ms 398 µs&#10; RightSidePartition 2 ms 399 µs&#10; LeftSideSortBuckets 445 µs 62 ns&#10; RightSideSortBuckets 442 µs 374 ns&#10; GatherRowIds 640 ns&#10; FindJoinPartner 76 ms 757 µs&#10; OutputWriting 823 µs 403 ns.">
<polygon fill="none" stroke="white" stroke-width="3.41" points="311.5,-1629.5 0.5,-1629.5 0.5,-1530.5 311.5,-1530.5 311.5,-1629.5"/>
<text text-anchor="middle" x="156" y="-1614.3" font-family="Times,serif" font-size="14.00" fill="white">JoinSimdSortMerge (Semi)</text>
<text text-anchor="middle" x="156" y="-1599.3" font-family="Times,serif" font-size="14.00" fill="white">ps_suppkey = l_suppkey</text>
<text text-anchor="middle" x="156" y="-1584.3" font-family="Times,serif" font-size="14.00" fill="white">AND ps_availqty &gt; 0.5 * SUM(l_quantity)</text>
<text text-anchor="middle" x="156" y="-1569.3" font-family="Times,serif" font-size="14.00" fill="white">AND ps_partkey = l_partkey</text>
<text text-anchor="middle" x="156" y="-1538.3" font-family="Times,serif" font-size="14.00" fill="white">131 ms 147 µs</text>
</a>
</g>
</g>
<!-- 281426123932752&#45;&gt;281426123933072 -->
<g id="edge7" class="edge">
<title>281426123932752&#45;&gt;281426123933072</title>
<path fill="none" stroke="white" d="M156,-1629.91C156,-1654.95 156,-1684.92 156,-1707.85"/>
<polygon fill="white" stroke="white" points="152.5,-1707.85 156,-1717.85 159.5,-1707.85 152.5,-1707.85"/>
<text text-anchor="middle" x="258.5" y="-1658.8" font-family="Times,serif" font-size="14.00" fill="white">297,902 row(s)/256 chunk(s)</text>
</g>
<!-- 281426126980880 -->
<g id="node9" class="node">
<title>281426126980880</title>
<g id="a_node9"><a xlink:title="Output: 437072 rows in 256 chunks, 846 µs 26 ns.">
<polygon fill="none" stroke="white" points="240,-849.5 132,-849.5 132,-795.5 240,-795.5 240,-849.5"/>
<text text-anchor="middle" x="186" y="-834.3" font-family="Times,serif" font-size="14.00" fill="white">Validate</text>
<text text-anchor="middle" x="186" y="-803.3" font-family="Times,serif" font-size="14.00" fill="white">846 µs 26 ns</text>
</a>
</g>
</g>
<!-- 281426126980880&#45;&gt;281426123932752 -->
<g id="edge8" class="edge">
<title>281426126980880&#45;&gt;281426123932752</title>
<path fill="none" stroke="white" d="M171.19,-849.58C157.74,-875.76 140,-917.65 140,-956.5 140,-956.5 140,-956.5 140,-1446 140,-1470.41 142.69,-1497.16 145.86,-1520.24"/>
<polygon fill="white" stroke="white" points="145.88,-1520.32 142.41,-1520.81 147.3,-1530.22 145.88,-1520.32"/>
<text text-anchor="middle" x="242.5" y="-1186.3" font-family="Times,serif" font-size="14.00" fill="white">437,072 row(s)/256 chunk(s)</text>
</g>
<!-- 281426123931792 -->
<g id="node19" class="node">
<title>281426123931792</title>
<g id="a_node19"><a xlink:title="Output: 498734 rows in 256 chunks, 53 ms 184 µs.&#10;Operator step runtimes:&#10; LeftSideMaterialize 36 ms 316 µs&#10; RightSideMaterialize 8 ms 750 µs&#10; LeftSideTransform 0 ns&#10; RightSideTransform 0 ns&#10; LeftSidePartition 2 ms 865 µs&#10; RightSidePartition 2 ms 567 µs&#10; LeftSideSortBuckets 446 µs 853 ns&#10; RightSideSortBuckets 441 µs 734 ns&#10; GatherRowIds 832 ns&#10; FindJoinPartner 509 µs 191 ns&#10; OutputWriting 948 µs 556 ns.">
<polygon fill="none" stroke="white" stroke-width="1.19" points="553.5,-1112 268.5,-1112 268.5,-1043 553.5,-1043 553.5,-1112"/>
<text text-anchor="middle" x="411" y="-1096.8" font-family="Times,serif" font-size="14.00" fill="white">JoinSimdSortMerge (Semi Reduction)</text>
<text text-anchor="middle" x="411" y="-1081.8" font-family="Times,serif" font-size="14.00" fill="white">l_suppkey = ps_suppkey</text>
<text text-anchor="middle" x="411" y="-1050.8" font-family="Times,serif" font-size="14.00" fill="white">53 ms 184 µs</text>
</a>
</g>
</g>
<!-- 281426126980880&#45;&gt;281426123931792 -->
<g id="edge10" class="edge">
<title>281426126980880&#45;&gt;281426123931792</title>
<path fill="none" stroke="white" d="M179.37,-849.73C171.96,-885.51 164.63,-949.97 195,-992 211.12,-1014.31 234.03,-1030.73 258.96,-1042.82"/>
<polygon fill="white" stroke="white" points="268.22,-1047.08 260.6,-1039.72 259.14,-1042.9 268.22,-1047.08"/>
<text text-anchor="middle" x="297.5" y="-953.8" font-family="Times,serif" font-size="14.00" fill="white">437,072 row(s)/256 chunk(s)</text>
</g>
<!-- 281426123931152 -->
<g id="node20" class="node">
<title>281426123931152</title>
<g id="a_node20"><a xlink:title="Output: 498734 rows in 256 chunks, 108 ms 693 µs.&#10;Operator step runtimes:&#10; LeftSideMaterialize 82 ms 252 µs&#10; RightSideMaterialize 8 ms 776 µs&#10; LeftSideTransform 0 ns&#10; RightSideTransform 0 ns&#10; LeftSidePartition 1 ms 694 µs&#10; RightSidePartition 3 ms 279 µs&#10; LeftSideSortBuckets 2 ms 94 µs&#10; RightSideSortBuckets 443 µs 717 ns&#10; GatherRowIds 1 µs 56 ns&#10; FindJoinPartner 493 µs 30 ns&#10; OutputWriting 7 ms 725 µs.">
<polygon fill="none" stroke="white" stroke-width="2.95" points="694.5,-992 409.5,-992 409.5,-923 694.5,-923 694.5,-992"/>
<text text-anchor="middle" x="552" y="-976.8" font-family="Times,serif" font-size="14.00" fill="white">JoinSimdSortMerge (Semi Reduction)</text>
<text text-anchor="middle" x="552" y="-961.8" font-family="Times,serif" font-size="14.00" fill="white">l_partkey = ps_partkey</text>
<text text-anchor="middle" x="552" y="-930.8" font-family="Times,serif" font-size="14.00" fill="white">108 ms 693 µs</text>
</a>
</g>
</g>
<!-- 281426126980880&#45;&gt;281426123931152 -->
<g id="edge9" class="edge">
<title>281426126980880&#45;&gt;281426123931152</title>
<path fill="none" stroke="white" d="M229.37,-849.58C260.2,-867.22 303.05,-889.95 343,-905 361.03,-911.79 380.26,-917.93 399.5,-923.41"/>
<polygon fill="white" stroke="white" points="409.24,-926.14 400.55,-920.07 399.61,-923.44 409.24,-926.14"/>
<text text-anchor="middle" x="445.5" y="-893.8" font-family="Times,serif" font-size="14.00" fill="white">437,072 row(s)/256 chunk(s)</text>
</g>
<!-- 281426123930512 -->
<g id="node10" class="node">
<title>281426123930512</title>
<g id="a_node10"><a xlink:title="Output: 437072 rows in 256 chunks, 25 ms 561 µs.&#10;Operator step runtimes:&#10; LeftSideMaterialize 9 ms 643 µs&#10; RightSideMaterialize 2 ms 631 µs&#10; LeftSideTransform 0 ns&#10; RightSideTransform 0 ns&#10; LeftSidePartition 6 ms 579 µs&#10; RightSidePartition 1 ms 926 µs&#10; LeftSideSortBuckets 1 ms 804 µs&#10; RightSideSortBuckets 435 µs 45 ns&#10; GatherRowIds 1 µs 280 ns&#10; FindJoinPartner 523 µs 591 ns&#10; OutputWriting 649 µs 224 ns.">
<polygon fill="none" stroke="white" points="290.5,-699.5 81.5,-699.5 81.5,-630.5 290.5,-630.5 290.5,-699.5"/>
<text text-anchor="middle" x="186" y="-684.3" font-family="Times,serif" font-size="14.00" fill="white">JoinSimdSortMerge (Semi)</text>
<text text-anchor="middle" x="186" y="-669.3" font-family="Times,serif" font-size="14.00" fill="white">ps_partkey = p_partkey</text>
<text text-anchor="middle" x="186" y="-638.3" font-family="Times,serif" font-size="14.00" fill="white">25 ms 561 µs</text>
</a>
</g>
</g>
<!-- 281426123930512&#45;&gt;281426126980880 -->
<g id="edge11" class="edge">
<title>281426123930512&#45;&gt;281426126980880</title>
<path fill="none" stroke="white" d="M186,-699.74C186,-724.86 186,-759.13 186,-784.91"/>
<polygon fill="white" stroke="white" points="182.5,-785.03 186,-795.03 189.5,-785.03 182.5,-785.03"/>
<text text-anchor="middle" x="288.5" y="-743.8" font-family="Times,serif" font-size="14.00" fill="white">437,072 row(s)/256 chunk(s)</text>
</g>
<!-- 281426129340816 -->
<g id="node11" class="node">
<title>281426129340816</title>
<g id="a_node11"><a xlink:title="Output: 40000000 rows in 611 chunks, 1 ms 870 µs.">
<polygon fill="none" stroke="white" points="122,-557 0,-557 0,-443 122,-443 122,-557"/>
<text text-anchor="middle" x="61" y="-541.8" font-family="Times,serif" font-size="14.00" fill="white">GetTable</text>
<text text-anchor="middle" x="61" y="-526.8" font-family="Times,serif" font-size="14.00" fill="white">(partsupp)</text>
<text text-anchor="middle" x="61" y="-511.8" font-family="Times,serif" font-size="14.00" fill="white">pruned:</text>
<text text-anchor="middle" x="61" y="-496.8" font-family="Times,serif" font-size="14.00" fill="white">0/611 chunk(s)</text>
<text text-anchor="middle" x="61" y="-481.8" font-family="Times,serif" font-size="14.00" fill="white">2/5 column(s)</text>
<text text-anchor="middle" x="61" y="-450.8" font-family="Times,serif" font-size="14.00" fill="white">1 ms 870 µs</text>
</a>
</g>
</g>
<!-- 281426129340816&#45;&gt;281426123930512 -->
<g id="edge12" class="edge">
<title>281426129340816&#45;&gt;281426123930512</title>
<path fill="none" stroke="white" stroke-width="3.03" d="M53.18,-557.43C53.88,-568.78 56.38,-580.22 62,-590 69.84,-603.64 81.29,-615.04 94.11,-624.47"/>
<polygon fill="white" stroke="white" stroke-width="3.03" points="94.47,-624.72 92.48,-627.6 102.71,-630.39 94.47,-624.72"/>
<text text-anchor="middle" x="176" y="-578.8" font-family="Times,serif" font-size="14.00" fill="white">40,000,000 row(s)/611 chunk(s)</text>
</g>
<!-- 281426123910672 -->
<g id="node12" class="node">
<title>281426123910672</title>
<g id="a_node12"><a xlink:title="Output: 109268 rows in 153 chunks, 126 µs 178 ns.&#10;Operator step runtimes:&#10; ForwardUnmodifiedColumns 41 µs 153 ns&#10; EvaluateNewColumns 96 ns&#10; BuildOutput 52 µs 64 ns.">
<polygon fill="none" stroke="white" points="370.5,-527 253.5,-527 253.5,-473 370.5,-473 370.5,-527"/>
<text text-anchor="middle" x="312" y="-511.8" font-family="Times,serif" font-size="14.00" fill="white">Projection</text>
<text text-anchor="middle" x="312" y="-480.8" font-family="Times,serif" font-size="14.00" fill="white">126 µs 178 ns</text>
</a>
</g>
</g>
<!-- 281426123910672&#45;&gt;281426123930512 -->
<g id="edge13" class="edge">
<title>281426123910672&#45;&gt;281426123930512</title>
<path fill="none" stroke="white" d="M310.36,-527.11C308.09,-545.97 302.71,-571.31 290,-590 281.16,-603 269.22,-614.48 256.6,-624.28"/>
<polygon fill="white" stroke="white" points="248.22,-630.48 258.34,-627.34 256.26,-624.53 248.22,-630.48"/>
<text text-anchor="middle" x="400.5" y="-578.8" font-family="Times,serif" font-size="14.00" fill="white">109,268 row(s)/153 chunk(s)</text>
</g>
<!-- 281426126969360 -->
<g id="node13" class="node">
<title>281426126969360</title>
<g id="a_node13"><a xlink:title="Output: 109268 rows in 153 chunks, 292 µs 964 ns.">
<polygon fill="none" stroke="white" points="370.5,-392 253.5,-392 253.5,-338 370.5,-338 370.5,-392"/>
<text text-anchor="middle" x="312" y="-376.8" font-family="Times,serif" font-size="14.00" fill="white">Validate</text>
<text text-anchor="middle" x="312" y="-345.8" font-family="Times,serif" font-size="14.00" fill="white">292 µs 964 ns</text>
</a>
</g>
</g>
<!-- 281426126969360&#45;&gt;281426123910672 -->
<g id="edge14" class="edge">
<title>281426126969360&#45;&gt;281426123910672</title>
<path fill="none" stroke="white" d="M312,-392.28C312,-412.41 312,-440.41 312,-462.68"/>
<polygon fill="white" stroke="white" points="308.5,-462.78 312,-472.78 315.5,-462.78 308.5,-462.78"/>
<text text-anchor="middle" x="414.5" y="-413.8" font-family="Times,serif" font-size="14.00" fill="white">109,268 row(s)/153 chunk(s)</text>
</g>
<!-- 281426123910032 -->
<g id="node14" class="node">
<title>281426123910032</title>
<g id="a_node14"><a xlink:title="Output: 109268 rows in 153 chunks, 588 µs 903 ns.&#10;Chunks: 0 skipped with no results, &#10;0 skipped with all matching, 0 scanned using binary search.">
<polygon fill="none" stroke="white" points="521.5,-287 102.5,-287 102.5,-203 521.5,-203 521.5,-287"/>
<text text-anchor="middle" x="312" y="-271.8" font-family="Times,serif" font-size="14.00" fill="white">TableScan</text>
<text text-anchor="middle" x="312" y="-256.8" font-family="Times,serif" font-size="14.00" fill="white">Impl: ColumnBetween</text>
<text text-anchor="middle" x="312" y="-241.8" font-family="Times,serif" font-size="14.00" fill="white">p_name BETWEEN UPPER EXCLUSIVE &#39;pale&#39; AND &#39;palf&#39;</text>
<text text-anchor="middle" x="312" y="-210.8" font-family="Times,serif" font-size="14.00" fill="white">588 µs 903 ns</text>
</a>
</g>
</g>
<!-- 281426123910032&#45;&gt;281426126969360 -->
<g id="edge15" class="edge">
<title>281426123910032&#45;&gt;281426126969360</title>
<path fill="none" stroke="white" d="M312,-287.27C312,-300.36 312,-314.72 312,-327.45"/>
<polygon fill="white" stroke="white" points="308.5,-327.69 312,-337.69 315.5,-327.69 308.5,-327.69"/>
<text text-anchor="middle" x="414.5" y="-308.8" font-family="Times,serif" font-size="14.00" fill="white">109,268 row(s)/153 chunk(s)</text>
</g>
<!-- 281426129337232 -->
<g id="node15" class="node">
<title>281426129337232</title>
<g id="a_node15"><a xlink:title="Output: 10000000 rows in 153 chunks, 349 µs 61 ns.">
<polygon fill="none" stroke="white" points="373,-133 251,-133 251,-19 373,-19 373,-133"/>
<text text-anchor="middle" x="312" y="-117.8" font-family="Times,serif" font-size="14.00" fill="white">GetTable</text>
<text text-anchor="middle" x="312" y="-102.8" font-family="Times,serif" font-size="14.00" fill="white">(part)</text>
<text text-anchor="middle" x="312" y="-87.8" font-family="Times,serif" font-size="14.00" fill="white">pruned:</text>
<text text-anchor="middle" x="312" y="-72.8" font-family="Times,serif" font-size="14.00" fill="white">0/153 chunk(s)</text>
<text text-anchor="middle" x="312" y="-57.8" font-family="Times,serif" font-size="14.00" fill="white">7/9 column(s)</text>
<text text-anchor="middle" x="312" y="-26.8" font-family="Times,serif" font-size="14.00" fill="white">349 µs 61 ns</text>
</a>
</g>
</g>
<!-- 281426129337232&#45;&gt;281426123910032 -->
<g id="edge16" class="edge">
<title>281426129337232&#45;&gt;281426123910032</title>
<path fill="none" stroke="white" d="M312,-133.07C312,-152.34 312,-173.8 312,-192.67"/>
<polygon fill="white" stroke="white" points="308.5,-192.86 312,-202.86 315.5,-192.86 308.5,-192.86"/>
<text text-anchor="middle" x="426" y="-173.8" font-family="Times,serif" font-size="14.00" fill="white">10,000,000 row(s)/153 chunk(s)</text>
</g>
<!-- 281426123932432 -->
<g id="node16" class="node">
<title>281426123932432</title>
<g id="a_node16"><a xlink:title="Output: 298577 rows in 5 chunks, 268 µs 611 ns.&#10;Operator step runtimes:&#10; ForwardUnmodifiedColumns 8 µs 224 ns&#10; EvaluateNewColumns 228 µs 995 ns&#10; BuildOutput 26 µs 112 ns.">
<polygon fill="none" stroke="white" points="337.5,-1472 220.5,-1472 220.5,-1418 337.5,-1418 337.5,-1472"/>
<text text-anchor="middle" x="279" y="-1456.8" font-family="Times,serif" font-size="14.00" fill="white">Projection</text>
<text text-anchor="middle" x="279" y="-1425.8" font-family="Times,serif" font-size="14.00" fill="white">268 µs 611 ns</text>
</a>
</g>
</g>
<!-- 281426123932432&#45;&gt;281426123932752 -->
<g id="edge17" class="edge">
<title>281426123932432&#45;&gt;281426123932752</title>
<path fill="none" stroke="white" d="M254.7,-1472.28C241.28,-1486.78 224.08,-1505.38 207.81,-1522.97"/>
<polygon fill="white" stroke="white" points="200.91,-1530.44 210.27,-1525.47 207.7,-1523.1 200.91,-1530.44"/>
<text text-anchor="middle" x="329.5" y="-1493.8" font-family="Times,serif" font-size="14.00" fill="white">298,577 row(s)/5 chunk(s)</text>
</g>
<!-- 281426126901264 -->
<g id="node17" class="node">
<title>281426126901264</title>
<g id="a_node17"><a xlink:title="Output: 298577 rows in 5 chunks, 841 ms 815 µs.&#10;Operator step runtimes:&#10; GroupByKeyPartitioning 458 ms 852 µs&#10; Aggregating 381 ms 821 µs&#10; GroupByColumnsWriting 655 µs 208 ns&#10; AggregateColumnsWriting 411 µs 654 ns&#10; OutputWriting 12 µs 256 ns.">
<polygon fill="none" stroke="white" stroke-width="8" points="414,-1367 248,-1367 248,-1268 414,-1268 414,-1367"/>
<text text-anchor="middle" x="331" y="-1351.8" font-family="Times,serif" font-size="14.00" fill="white">AggregateHash</text>
<text text-anchor="middle" x="331" y="-1336.8" font-family="Times,serif" font-size="14.00" fill="white">GroupBy {l_suppkey,</text>
<text text-anchor="middle" x="331" y="-1321.8" font-family="Times,serif" font-size="14.00" fill="white">l_partkey}</text>
<text text-anchor="middle" x="331" y="-1306.8" font-family="Times,serif" font-size="14.00" fill="white">SUM(l_quantity)</text>
<text text-anchor="middle" x="331" y="-1275.8" font-family="Times,serif" font-size="14.00" fill="white">841 ms 815 µs</text>
</a>
</g>
</g>
<!-- 281426126901264&#45;&gt;281426123932432 -->
<g id="edge18" class="edge">
<title>281426126901264&#45;&gt;281426123932432</title>
<path fill="none" stroke="white" d="M310.9,-1367.02C305.2,-1380.76 299.11,-1395.47 293.79,-1408.3"/>
<polygon fill="white" stroke="white" points="290.49,-1407.13 289.9,-1417.7 296.96,-1409.81 290.49,-1407.13"/>
<text text-anchor="middle" x="397.5" y="-1388.8" font-family="Times,serif" font-size="14.00" fill="white">298,577 row(s)/5 chunk(s)</text>
</g>
<!-- 281426126971152 -->
<g id="node18" class="node">
<title>281426126971152</title>
<g id="a_node18"><a xlink:title="Output: 498734 rows in 256 chunks, 3 ms 68 µs.">
<polygon fill="none" stroke="white" points="458.5,-1217 363.5,-1217 363.5,-1163 458.5,-1163 458.5,-1217"/>
<text text-anchor="middle" x="411" y="-1201.8" font-family="Times,serif" font-size="14.00" fill="white">Validate</text>
<text text-anchor="middle" x="411" y="-1170.8" font-family="Times,serif" font-size="14.00" fill="white">3 ms 68 µs</text>
</a>
</g>
</g>
<!-- 281426126971152&#45;&gt;281426126901264 -->
<g id="edge19" class="edge">
<title>281426126971152&#45;&gt;281426126901264</title>
<path fill="none" stroke="white" d="M394.42,-1217C386.58,-1229.31 376.88,-1244.52 367.45,-1259.32"/>
<polygon fill="white" stroke="white" points="364.37,-1257.64 361.94,-1267.96 370.27,-1261.41 364.37,-1257.64"/>
<text text-anchor="middle" x="485.5" y="-1238.8" font-family="Times,serif" font-size="14.00" fill="white">498,734 row(s)/256 chunk(s)</text>
</g>
<!-- 281426123931792&#45;&gt;281426126971152 -->
<g id="edge20" class="edge">
<title>281426123931792&#45;&gt;281426126971152</title>
<path fill="none" stroke="white" d="M411,-1112.25C411,-1125.07 411,-1139.73 411,-1152.77"/>
<polygon fill="white" stroke="white" points="407.5,-1152.81 411,-1162.81 414.5,-1152.81 407.5,-1152.81"/>
<text text-anchor="middle" x="513.5" y="-1133.8" font-family="Times,serif" font-size="14.00" fill="white">498,734 row(s)/256 chunk(s)</text>
</g>
<!-- 281426123931152&#45;&gt;281426123931792 -->
<g id="edge21" class="edge">
<title>281426123931152&#45;&gt;281426123931792</title>
<path fill="none" stroke="white" d="M511.6,-992.31C495.22,-1006.02 476.19,-1021.95 459.1,-1036.24"/>
<polygon fill="white" stroke="white" points="459.08,-1036.26 456.83,-1033.58 451.41,-1042.68 459.08,-1036.26"/>
<text text-anchor="middle" x="592.5" y="-1013.8" font-family="Times,serif" font-size="14.00" fill="white">498,734 row(s)/256 chunk(s)</text>
</g>
<!-- 281426123930832 -->
<g id="node21" class="node">
<title>281426123930832</title>
<g id="a_node21"><a xlink:title="Output: 45537490 rows in 4578 chunks, 19 ms 72 µs.&#10;Chunks: 0 skipped with no results, &#10;0 skipped with all matching, 0 scanned using binary search.">
<polygon fill="none" stroke="white" points="758,-872 346,-872 346,-773 758,-773 758,-872"/>
<text text-anchor="middle" x="552" y="-856.8" font-family="Times,serif" font-size="14.00" fill="white">TableScan</text>
<text text-anchor="middle" x="552" y="-841.8" font-family="Times,serif" font-size="14.00" fill="white">Impl: ColumnBetween</text>
<text text-anchor="middle" x="552" y="-826.8" font-family="Times,serif" font-size="14.00" fill="white">l_shipdate BETWEEN UPPER EXCLUSIVE &#39;1997&#45;01&#45;01&#39;</text>
<text text-anchor="middle" x="552" y="-811.8" font-family="Times,serif" font-size="14.00" fill="white">AND &#39;1998&#45;01&#45;01&#39;</text>
<text text-anchor="middle" x="552" y="-780.8" font-family="Times,serif" font-size="14.00" fill="white">19 ms 72 µs</text>
</a>
</g>
</g>
<!-- 281426123930832&#45;&gt;281426123931152 -->
<g id="edge22" class="edge">
<title>281426123930832&#45;&gt;281426123931152</title>
<path fill="none" stroke="white" stroke-width="3.35" d="M552,-872.27C552,-885.49 552,-899.72 552,-912.65"/>
<polygon fill="white" stroke="white" stroke-width="3.35" points="552,-912.7 548.5,-912.7 552,-922.7 552,-912.7"/>
<text text-anchor="middle" x="672.5" y="-893.8" font-family="Times,serif" font-size="14.00" fill="white">45,537,490 row(s)/4,578 chunk(s)</text>
</g>
<!-- 281426129337680 -->
<g id="node22" class="node">
<title>281426129337680</title>
<g id="a_node22"><a xlink:title="Output: 300005811 rows in 4578 chunks, 5 ms 933 µs.">
<polygon fill="none" stroke="white" points="617.5,-722 486.5,-722 486.5,-608 617.5,-608 617.5,-722"/>
<text text-anchor="middle" x="552" y="-706.8" font-family="Times,serif" font-size="14.00" fill="white">GetTable</text>
<text text-anchor="middle" x="552" y="-691.8" font-family="Times,serif" font-size="14.00" fill="white">(lineitem)</text>
<text text-anchor="middle" x="552" y="-676.8" font-family="Times,serif" font-size="14.00" fill="white">pruned:</text>
<text text-anchor="middle" x="552" y="-661.8" font-family="Times,serif" font-size="14.00" fill="white">0/4578 chunk(s)</text>
<text text-anchor="middle" x="552" y="-646.8" font-family="Times,serif" font-size="14.00" fill="white">12/16 column(s)</text>
<text text-anchor="middle" x="552" y="-615.8" font-family="Times,serif" font-size="14.00" fill="white">5 ms 933 µs</text>
</a>
</g>
</g>
<!-- 281426129337680&#45;&gt;281426123930832 -->
<g id="edge23" class="edge">
<title>281426129337680&#45;&gt;281426123930832</title>
<path fill="none" stroke="white" stroke-width="8" d="M552,-722.14C552,-735.38 552,-749.53 552,-762.88"/>
<polygon fill="white" stroke="white" stroke-width="8" points="545,-762.9 552,-772.9 559,-762.9 545,-762.9"/>
<text text-anchor="middle" x="677" y="-743.8" font-family="Times,serif" font-size="14.00" fill="white">300,005,811 row(s)/4,578 chunk(s)</text>
</g>
<!-- 281426126982928 -->
<g id="node23" class="node">
<title>281426126982928</title>
<g id="a_node23"><a xlink:title="Output: 1 row in 1 chunk, 6 µs 48 ns.">
<polygon fill="none" stroke="white" points="648,-1914.5 558,-1914.5 558,-1860.5 648,-1860.5 648,-1914.5"/>
<text text-anchor="middle" x="603" y="-1899.3" font-family="Times,serif" font-size="14.00" fill="white">Validate</text>
<text text-anchor="middle" x="603" y="-1868.3" font-family="Times,serif" font-size="14.00" fill="white">6 µs 48 ns</text>
</a>
</g>
</g>
<!-- 281426126982928&#45;&gt;281426123934032 -->
<g id="edge24" class="edge">
<title>281426126982928&#45;&gt;281426123934032</title>
<path fill="none" stroke="white" d="M598.99,-1914.68C595.88,-1927.92 590.44,-1943.56 581,-1955 577.66,-1959.04 573.92,-1962.83 569.91,-1966.36"/>
<polygon fill="white" stroke="white" points="561.89,-1972.84 571.86,-1969.28 569.66,-1966.55 561.89,-1972.84"/>
<text text-anchor="middle" x="660" y="-1943.8" font-family="Times,serif" font-size="14.00" fill="white">1 row(s)/1 chunk(s)</text>
</g>
<!-- 281426123933712 -->
<g id="node24" class="node">
<title>281426123933712</title>
<g id="a_node24"><a xlink:title="Output: 1 row in 1 chunk, 17 µs 504 ns.&#10;Chunks: 0 skipped with no results, &#10;0 skipped with all matching, 0 scanned using binary search.">
<polygon fill="none" stroke="white" points="687.5,-1787 518.5,-1787 518.5,-1703 687.5,-1703 687.5,-1787"/>
<text text-anchor="middle" x="603" y="-1771.8" font-family="Times,serif" font-size="14.00" fill="white">TableScan</text>
<text text-anchor="middle" x="603" y="-1756.8" font-family="Times,serif" font-size="14.00" fill="white">Impl: ColumnVsValue</text>
<text text-anchor="middle" x="603" y="-1741.8" font-family="Times,serif" font-size="14.00" fill="white">n_name = &#39;INDIA&#39;</text>
<text text-anchor="middle" x="603" y="-1710.8" font-family="Times,serif" font-size="14.00" fill="white">17 µs 504 ns</text>
</a>
</g>
</g>
<!-- 281426123933712&#45;&gt;281426126982928 -->
<g id="edge25" class="edge">
<title>281426123933712&#45;&gt;281426126982928</title>
<path fill="none" stroke="white" d="M603,-1787.02C603,-1806.97 603,-1830.76 603,-1850.07"/>
<polygon fill="white" stroke="white" points="599.5,-1850.28 603,-1860.28 606.5,-1850.28 599.5,-1850.28"/>
<text text-anchor="middle" x="672" y="-1823.8" font-family="Times,serif" font-size="14.00" fill="white">1 row(s)/1 chunk(s)</text>
</g>
<!-- 281426129338576 -->
<g id="node25" class="node">
<title>281426129338576</title>
<g id="a_node25"><a xlink:title="Output: 25 rows in 1 chunk, 11 µs 649 ns.">
<polygon fill="none" stroke="white" points="659.5,-1637 546.5,-1637 546.5,-1523 659.5,-1523 659.5,-1637"/>
<text text-anchor="middle" x="603" y="-1621.8" font-family="Times,serif" font-size="14.00" fill="white">GetTable</text>
<text text-anchor="middle" x="603" y="-1606.8" font-family="Times,serif" font-size="14.00" fill="white">(nation)</text>
<text text-anchor="middle" x="603" y="-1591.8" font-family="Times,serif" font-size="14.00" fill="white">pruned:</text>
<text text-anchor="middle" x="603" y="-1576.8" font-family="Times,serif" font-size="14.00" fill="white">0/1 chunk(s)</text>
<text text-anchor="middle" x="603" y="-1561.8" font-family="Times,serif" font-size="14.00" fill="white">2/4 column(s)</text>
<text text-anchor="middle" x="603" y="-1530.8" font-family="Times,serif" font-size="14.00" fill="white">11 µs 649 ns</text>
</a>
</g>
</g>
<!-- 281426129338576&#45;&gt;281426123933712 -->
<g id="edge26" class="edge">
<title>281426129338576&#45;&gt;281426123933712</title>
<path fill="none" stroke="white" d="M603,-1637.1C603,-1655.19 603,-1675.13 603,-1692.85"/>
<polygon fill="white" stroke="white" points="599.5,-1692.99 603,-1702.99 606.5,-1692.99 599.5,-1692.99"/>
<text text-anchor="middle" x="676.5" y="-1658.8" font-family="Times,serif" font-size="14.00" fill="white">25 row(s)/1 chunk(s)</text>
</g>
<!-- 0 -->
<g id="node26" class="node">
<title>0</title>
<polygon fill="none" stroke="white" points="391.5,-0.5 391.5,-151.5 742.5,-151.5 742.5,-0.5 391.5,-0.5"/>
<text text-anchor="middle" x="567" y="-136.3" font-family="Times,serif" font-size="14.00" fill="white">Total by operator</text>
<polyline fill="none" stroke="white" points="391.5,-128.5 742.5,-128.5 "/>
<text text-anchor="end" x="550.5" y="-113.3" font-family="Times,serif" font-size="14.00" fill="white">AggregateHash </text>
<text text-anchor="end" x="550.5" y="-98.3" font-family="Times,serif" font-size="14.00" fill="white"> JoinSimdSortMerge </text>
<text text-anchor="end" x="550.5" y="-83.3" font-family="Times,serif" font-size="14.00" fill="white"> TableScan </text>
<text text-anchor="end" x="550.5" y="-68.3" font-family="Times,serif" font-size="14.00" fill="white"> Sort </text>
<text text-anchor="end" x="550.5" y="-53.3" font-family="Times,serif" font-size="14.00" fill="white"> GetTable </text>
<text text-anchor="end" x="550.5" y="-38.3" font-family="Times,serif" font-size="14.00" fill="white"> Validate </text>
<text text-anchor="end" x="550.5" y="-23.3" font-family="Times,serif" font-size="14.00" fill="white"> Projection </text>
<text text-anchor="end" x="550.5" y="-8.3" font-family="Times,serif" font-size="14.00" fill="white">total</text>
<polyline fill="none" stroke="white" points="558.5,-0.5 558.5,-128.5 "/>
<text text-anchor="start" x="566.5" y="-113.3" font-family="Times,serif" font-size="14.00" fill="white">841 ms 815 µs </text>
<text text-anchor="start" x="566.5" y="-98.3" font-family="Times,serif" font-size="14.00" fill="white"> 345 ms 480 µs </text>
<text text-anchor="start" x="566.5" y="-83.3" font-family="Times,serif" font-size="14.00" fill="white"> 19 ms 678 µs </text>
<text text-anchor="start" x="566.5" y="-68.3" font-family="Times,serif" font-size="14.00" fill="white"> 8 ms 212 µs </text>
<text text-anchor="start" x="566.5" y="-53.3" font-family="Times,serif" font-size="14.00" fill="white"> 8 ms 186 µs </text>
<text text-anchor="start" x="566.5" y="-38.3" font-family="Times,serif" font-size="14.00" fill="white"> 4 ms 238 µs </text>
<text text-anchor="start" x="566.5" y="-23.3" font-family="Times,serif" font-size="14.00" fill="white"> 550 µs 567 ns </text>
<text text-anchor="start" x="566.5" y="-8.3" font-family="Times,serif" font-size="14.00" fill="white"> 1 s 228 ms </text>
<polyline fill="none" stroke="white" points="689.5,-0.5 689.5,-128.5 "/>
<text text-anchor="start" x="697.5" y="-113.3" font-family="Times,serif" font-size="14.00" fill="white">69 %</text>
<text text-anchor="start" x="697.5" y="-98.3" font-family="Times,serif" font-size="14.00" fill="white">28 %</text>
<text text-anchor="start" x="697.5" y="-83.3" font-family="Times,serif" font-size="14.00" fill="white">2 %</text>
<text text-anchor="start" x="697.5" y="-68.3" font-family="Times,serif" font-size="14.00" fill="white">1 %</text>
<text text-anchor="start" x="697.5" y="-53.3" font-family="Times,serif" font-size="14.00" fill="white">1 %</text>
<text text-anchor="start" x="697.5" y="-38.3" font-family="Times,serif" font-size="14.00" fill="white">0 %</text>
<text text-anchor="start" x="697.5" y="-23.3" font-family="Times,serif" font-size="14.00" fill="white">0 %</text>
<text text-anchor="start" x="697.5" y="-8.3" font-family="Times,serif" font-size="14.00" fill="white"> </text>
</g>
</g>
</svg>
