<?xml version="1.0" encoding="UTF-8" standalone="no"?>
<!DOCTYPE svg PUBLIC "-//W3C//DTD SVG 1.1//EN"
 "http://www.w3.org/Graphics/SVG/1.1/DTD/svg11.dtd">
<!-- Generated by graphviz version 2.43.0 (0)
 -->
<!-- Title: G Pages: 1 -->
<svg width="878pt" height="1610pt"
 viewBox="0.00 0.00 878.00 1610.00" xmlns="http://www.w3.org/2000/svg" xmlns:xlink="http://www.w3.org/1999/xlink">
<g id="graph0" class="graph" transform="scale(1 1) rotate(0) translate(4 1606)">
<title>G</title>
<polygon fill="black" stroke="transparent" points="-4,4 -4,-1606 874,-1606 874,4 -4,4"/>
<text text-anchor="middle" x="319.5" y="-1586.8" font-family="Times,serif" font-size="14.00" fill="white">For tooltips with advanced information, hover your mouse over vertices or edge labels.</text>
<!-- 281459419256080 -->
<g id="node1" class="node">
<title>281459419256080</title>
<g id="a_node1"><a xlink:title="Output: 1 row in 1 chunk, 1 µs 760 ns.">
<polygon fill="none" stroke="white" points="264.5,-1547 160.5,-1547 160.5,-1478 264.5,-1478 264.5,-1547"/>
<text text-anchor="middle" x="212.5" y="-1531.8" font-family="Times,serif" font-size="14.00" fill="white">Alias</text>
<text text-anchor="middle" x="212.5" y="-1516.8" font-family="Times,serif" font-size="14.00" fill="white">[avg_yearly]</text>
<text text-anchor="middle" x="212.5" y="-1485.8" font-family="Times,serif" font-size="14.00" fill="white">1 µs 760 ns</text>
</a>
</g>
</g>
<!-- 281459419255760 -->
<g id="node2" class="node">
<title>281459419255760</title>
<g id="a_node2"><a xlink:title="Output: 1 row in 1 chunk, 26 µs 592 ns.&#10;Operator step runtimes:&#10; ForwardUnmodifiedColumns 960 ns&#10; EvaluateNewColumns 12 µs 608 ns&#10; BuildOutput 11 µs 168 ns.">
<polygon fill="none" stroke="white" points="266.5,-1427 158.5,-1427 158.5,-1373 266.5,-1373 266.5,-1427"/>
<text text-anchor="middle" x="212.5" y="-1411.8" font-family="Times,serif" font-size="14.00" fill="white">Projection</text>
<text text-anchor="middle" x="212.5" y="-1380.8" font-family="Times,serif" font-size="14.00" fill="white">26 µs 592 ns</text>
</a>
</g>
</g>
<!-- 281459419255760&#45;&gt;281459419256080 -->
<g id="edge1" class="edge">
<title>281459419255760&#45;&gt;281459419256080</title>
<path fill="none" stroke="white" d="M212.5,-1427.19C212.5,-1439.29 212.5,-1454 212.5,-1467.72"/>
<polygon fill="white" stroke="white" points="209,-1467.95 212.5,-1477.95 216,-1467.96 209,-1467.95"/>
<text text-anchor="middle" x="281.5" y="-1448.8" font-family="Times,serif" font-size="14.00" fill="white">1 row(s)/1 chunk(s)</text>
</g>
<!-- 281459408853008 -->
<g id="node3" class="node">
<title>281459408853008</title>
<g id="a_node3"><a xlink:title="Output: 1 row in 1 chunk, 30 ms 145 µs.&#10;Operator step runtimes:&#10; GroupByKeyPartitioning 64 ns&#10; Aggregating 30 ms 119 µs&#10; GroupByColumnsWriting 992 ns&#10; AggregateColumnsWriting 13 µs 856 ns&#10; OutputWriting 5 µs 216 ns.">
<polygon fill="none" stroke="white" stroke-width="1.07" points="300.5,-1322 124.5,-1322 124.5,-1238 300.5,-1238 300.5,-1322"/>
<text text-anchor="middle" x="212.5" y="-1306.8" font-family="Times,serif" font-size="14.00" fill="white">AggregateHash</text>
<text text-anchor="middle" x="212.5" y="-1291.8" font-family="Times,serif" font-size="14.00" fill="white">GroupBy {}</text>
<text text-anchor="middle" x="212.5" y="-1276.8" font-family="Times,serif" font-size="14.00" fill="white">SUM(l_extendedprice)</text>
<text text-anchor="middle" x="212.5" y="-1245.8" font-family="Times,serif" font-size="14.00" fill="white">30 ms 145 µs</text>
</a>
</g>
</g>
<!-- 281459408853008&#45;&gt;281459419255760 -->
<g id="edge2" class="edge">
<title>281459408853008&#45;&gt;281459419255760</title>
<path fill="none" stroke="white" d="M212.5,-1322.27C212.5,-1335.36 212.5,-1349.72 212.5,-1362.45"/>
<polygon fill="white" stroke="white" points="209,-1362.69 212.5,-1372.69 216,-1362.69 209,-1362.69"/>
<text text-anchor="middle" x="281.5" y="-1343.8" font-family="Times,serif" font-size="14.00" fill="white">1 row(s)/1 chunk(s)</text>
</g>
<!-- 281459419255440 -->
<g id="node4" class="node">
<title>281459419255440</title>
<g id="a_node4"><a xlink:title="Output: 26283 rows in 48 chunks, 38 ms 607 µs.&#10;Operator step runtimes:&#10; LeftSideMaterialize 4 ms 366 µs&#10; RightSideMaterialize 2 ms 463 µs&#10; LeftSideTransform 0 ns&#10; RightSideTransform 0 ns&#10; LeftSidePartition 2 ms 492 µs&#10; RightSidePartition 626 µs 791 ns&#10; LeftSideSortBuckets 460 µs 774 ns&#10; RightSideSortBuckets 456 µs 870 ns&#10; GatherRowIds 640 ns&#10; FindJoinPartner 26 ms 835 µs&#10; OutputWriting 667 µs 784 ns.">
<polygon fill="none" stroke="white" stroke-width="1.68" points="361,-1187 64,-1187 64,-1103 361,-1103 361,-1187"/>
<text text-anchor="middle" x="212.5" y="-1171.8" font-family="Times,serif" font-size="14.00" fill="white">JoinSimdSortMerge (Semi)</text>
<text text-anchor="middle" x="212.5" y="-1156.8" font-family="Times,serif" font-size="14.00" fill="white">p_partkey = l_partkey</text>
<text text-anchor="middle" x="212.5" y="-1141.8" font-family="Times,serif" font-size="14.00" fill="white">AND l_quantity &lt; 0.2 * AVG(l_quantity)</text>
<text text-anchor="middle" x="212.5" y="-1110.8" font-family="Times,serif" font-size="14.00" fill="white">38 ms 607 µs</text>
</a>
</g>
</g>
<!-- 281459419255440&#45;&gt;281459408853008 -->
<g id="edge3" class="edge">
<title>281459419255440&#45;&gt;281459408853008</title>
<path fill="none" stroke="white" d="M212.5,-1187.35C212.5,-1200.11 212.5,-1214.32 212.5,-1227.67"/>
<polygon fill="white" stroke="white" points="209,-1227.67 212.5,-1237.67 216,-1227.67 209,-1227.67"/>
<text text-anchor="middle" x="306" y="-1208.8" font-family="Times,serif" font-size="14.00" fill="white">26,283 row(s)/48 chunk(s)</text>
</g>
<!-- 281459419254800 -->
<g id="node5" class="node">
<title>281459419254800</title>
<g id="a_node5"><a xlink:title="Output: 295085 rows in 256 chunks, 32 ms 126 µs.&#10;Operator step runtimes:&#10; LeftSideMaterialize 23 ms 996 µs&#10; RightSideMaterialize 2 ms 321 µs&#10; LeftSideTransform 0 ns&#10; RightSideTransform 0 ns&#10; LeftSidePartition 2 ms 506 µs&#10; RightSidePartition 654 µs 312 ns&#10; LeftSideSortBuckets 435 µs 334 ns&#10; RightSideSortBuckets 437 µs 61 ns&#10; GatherRowIds 672 ns&#10; FindJoinPartner 487 µs 654 ns&#10; OutputWriting 969 µs 581 ns.">
<polygon fill="none" stroke="white" stroke-width="1.22" points="426,-939.5 215,-939.5 215,-870.5 426,-870.5 426,-939.5"/>
<text text-anchor="middle" x="320.5" y="-924.3" font-family="Times,serif" font-size="14.00" fill="white">JoinSimdSortMerge (Inner)</text>
<text text-anchor="middle" x="320.5" y="-909.3" font-family="Times,serif" font-size="14.00" fill="white">l_partkey = p_partkey</text>
<text text-anchor="middle" x="320.5" y="-878.3" font-family="Times,serif" font-size="14.00" fill="white">32 ms 126 µs</text>
</a>
</g>
</g>
<!-- 281459419254800&#45;&gt;281459419255440 -->
<g id="edge4" class="edge">
<title>281459419254800&#45;&gt;281459419255440</title>
<path fill="none" stroke="white" d="M322.03,-939.54C322.22,-977.53 317.76,-1039.99 290.5,-1085 288.32,-1088.59 285.84,-1092.05 283.12,-1095.35"/>
<polygon fill="white" stroke="white" points="283.12,-1095.35 280.52,-1093.01 276.42,-1102.78 283.12,-1095.35"/>
<text text-anchor="middle" x="421" y="-1021.3" font-family="Times,serif" font-size="14.00" fill="white">295,085 row(s)/256 chunk(s)</text>
</g>
<!-- 281459413361424 -->
<g id="node6" class="node">
<title>281459413361424</title>
<g id="a_node6"><a xlink:title="Output: 295085 rows in 256 chunks, 2 ms 558 µs.">
<polygon fill="none" stroke="white" points="254.5,-812 150.5,-812 150.5,-758 254.5,-758 254.5,-812"/>
<text text-anchor="middle" x="202.5" y="-796.8" font-family="Times,serif" font-size="14.00" fill="white">Validate</text>
<text text-anchor="middle" x="202.5" y="-765.8" font-family="Times,serif" font-size="14.00" fill="white">2 ms 558 µs</text>
</a>
</g>
</g>
<!-- 281459413361424&#45;&gt;281459419254800 -->
<g id="edge5" class="edge">
<title>281459413361424&#45;&gt;281459419254800</title>
<path fill="none" stroke="white" d="M254.6,-800.5C270.58,-807.2 286.96,-816.71 298.5,-830 305.97,-838.6 310.9,-849.65 314.16,-860.57"/>
<polygon fill="white" stroke="white" points="314.22,-860.8 310.83,-861.67 316.71,-870.48 314.22,-860.8"/>
<text text-anchor="middle" x="411" y="-833.8" font-family="Times,serif" font-size="14.00" fill="white">295,085 row(s)/256 chunk(s)</text>
</g>
<!-- 281459408852496 -->
<g id="node14" class="node">
<title>281459408852496</title>
<g id="a_node14"><a xlink:title="Output: 9848 rows in 1 chunk, 501 ms 353 µs.&#10;Operator step runtimes:&#10; GroupByKeyPartitioning 260 ms 128 µs&#10; Aggregating 240 ms 992 µs&#10; GroupByColumnsWriting 152 µs 961 ns&#10; AggregateColumnsWriting 44 µs 897 ns&#10; OutputWriting 6 µs 784 ns.">
<polygon fill="none" stroke="white" stroke-width="8" points="186.5,-947 18.5,-947 18.5,-863 186.5,-863 186.5,-947"/>
<text text-anchor="middle" x="102.5" y="-931.8" font-family="Times,serif" font-size="14.00" fill="white">AggregateHash</text>
<text text-anchor="middle" x="102.5" y="-916.8" font-family="Times,serif" font-size="14.00" fill="white">GroupBy {l_partkey}</text>
<text text-anchor="middle" x="102.5" y="-901.8" font-family="Times,serif" font-size="14.00" fill="white">AVG(l_quantity)</text>
<text text-anchor="middle" x="102.5" y="-870.8" font-family="Times,serif" font-size="14.00" fill="white">501 ms 353 µs</text>
</a>
</g>
</g>
<!-- 281459413361424&#45;&gt;281459408852496 -->
<g id="edge6" class="edge">
<title>281459413361424&#45;&gt;281459408852496</title>
<path fill="none" stroke="white" d="M150.25,-794.04C128.95,-800.17 106.34,-810.97 93.5,-830 88.97,-836.71 87.19,-844.57 87.09,-852.6"/>
<polygon fill="white" stroke="white" points="83.62,-853.06 87.78,-862.8 90.6,-852.59 83.62,-853.06"/>
<text text-anchor="middle" x="196" y="-833.8" font-family="Times,serif" font-size="14.00" fill="white">295,085 row(s)/256 chunk(s)</text>
</g>
<!-- 281459419254480 -->
<g id="node7" class="node">
<title>281459419254480</title>
<g id="a_node7"><a xlink:title="Output: 295085 rows in 256 chunks, 92 ms 223 µs.&#10;Operator step runtimes:&#10; LeftSideMaterialize 80 ms 815 µs&#10; RightSideMaterialize 1 ms 933 µs&#10; LeftSideTransform 0 ns&#10; RightSideTransform 0 ns&#10; LeftSidePartition 1 ms 114 µs&#10; RightSidePartition 712 µs 105 ns&#10; LeftSideSortBuckets 1 ms 565 µs&#10; RightSideSortBuckets 451 µs 269 ns&#10; GatherRowIds 896 ns&#10; FindJoinPartner 520 µs 999 ns&#10; OutputWriting 667 µs 496 ns.">
<polygon fill="none" stroke="white" stroke-width="3.82" points="345,-707 60,-707 60,-638 345,-638 345,-707"/>
<text text-anchor="middle" x="202.5" y="-691.8" font-family="Times,serif" font-size="14.00" fill="white">JoinSimdSortMerge (Semi Reduction)</text>
<text text-anchor="middle" x="202.5" y="-676.8" font-family="Times,serif" font-size="14.00" fill="white">l_partkey = p_partkey</text>
<text text-anchor="middle" x="202.5" y="-645.8" font-family="Times,serif" font-size="14.00" fill="white">92 ms 223 µs</text>
</a>
</g>
</g>
<!-- 281459419254480&#45;&gt;281459413361424 -->
<g id="edge7" class="edge">
<title>281459419254480&#45;&gt;281459413361424</title>
<path fill="none" stroke="white" d="M202.5,-707.25C202.5,-720.07 202.5,-734.73 202.5,-747.77"/>
<polygon fill="white" stroke="white" points="199,-747.81 202.5,-757.81 206,-747.81 199,-747.81"/>
<text text-anchor="middle" x="305" y="-728.8" font-family="Times,serif" font-size="14.00" fill="white">295,085 row(s)/256 chunk(s)</text>
</g>
<!-- 281459415988112 -->
<g id="node8" class="node">
<title>281459415988112</title>
<g id="a_node8"><a xlink:title="Output: 300005811 rows in 4578 chunks, 4 ms 35 µs.">
<polygon fill="none" stroke="white" points="131,-587 0,-587 0,-473 131,-473 131,-587"/>
<text text-anchor="middle" x="65.5" y="-571.8" font-family="Times,serif" font-size="14.00" fill="white">GetTable</text>
<text text-anchor="middle" x="65.5" y="-556.8" font-family="Times,serif" font-size="14.00" fill="white">(lineitem)</text>
<text text-anchor="middle" x="65.5" y="-541.8" font-family="Times,serif" font-size="14.00" fill="white">pruned:</text>
<text text-anchor="middle" x="65.5" y="-526.8" font-family="Times,serif" font-size="14.00" fill="white">0/4578 chunk(s)</text>
<text text-anchor="middle" x="65.5" y="-511.8" font-family="Times,serif" font-size="14.00" fill="white">13/16 column(s)</text>
<text text-anchor="middle" x="65.5" y="-480.8" font-family="Times,serif" font-size="14.00" fill="white">4 ms 35 µs</text>
</a>
</g>
</g>
<!-- 281459415988112&#45;&gt;281459419254480 -->
<g id="edge8" class="edge">
<title>281459415988112&#45;&gt;281459419254480</title>
<path fill="none" stroke="white" stroke-width="8" d="M56.34,-587.31C57.03,-598.93 59.86,-610.5 66.5,-620 69.33,-624.05 72.53,-627.79 76.02,-631.23"/>
<polygon fill="white" stroke="white" stroke-width="8" points="76.07,-631.27 71.43,-636.52 83.56,-637.89 76.07,-631.27"/>
<text text-anchor="middle" x="191.5" y="-608.8" font-family="Times,serif" font-size="14.00" fill="white">300,005,811 row(s)/4,578 chunk(s)</text>
</g>
<!-- 281459413369104 -->
<g id="node9" class="node">
<title>281459413369104</title>
<g id="a_node9"><a xlink:title="Output: 9848 rows in 153 chunks, 397 µs 669 ns.">
<polygon fill="none" stroke="white" points="498,-557 381,-557 381,-503 498,-503 498,-557"/>
<text text-anchor="middle" x="439.5" y="-541.8" font-family="Times,serif" font-size="14.00" fill="white">Validate</text>
<text text-anchor="middle" x="439.5" y="-510.8" font-family="Times,serif" font-size="14.00" fill="white">397 µs 669 ns</text>
</a>
</g>
</g>
<!-- 281459413369104&#45;&gt;281459419254800 -->
<g id="edge10" class="edge">
<title>281459413369104&#45;&gt;281459419254800</title>
<path fill="none" stroke="white" d="M484.1,-557.11C500.63,-569.35 517.51,-585.56 526.5,-605 555.67,-668.11 943.16,-296.42 517.5,-845 497.7,-870.52 467.3,-885.37 436.25,-893.9"/>
<polygon fill="white" stroke="white" points="426.17,-896.46 436.72,-897.4 435.86,-894 426.17,-896.46"/>
<text text-anchor="middle" x="695" y="-728.8" font-family="Times,serif" font-size="14.00" fill="white">9,848 row(s)/153 chunk(s)</text>
</g>
<!-- 281459413369104&#45;&gt;281459419254480 -->
<g id="edge9" class="edge">
<title>281459413369104&#45;&gt;281459419254480</title>
<path fill="none" stroke="white" d="M405.13,-557.06C375.27,-579.49 334.12,-609.79 316.5,-620 308.48,-624.65 299.97,-629.18 291.35,-633.5"/>
<polygon fill="white" stroke="white" points="282.34,-637.92 292.86,-636.66 291.32,-633.51 282.34,-637.92"/>
<text text-anchor="middle" x="432" y="-608.8" font-family="Times,serif" font-size="14.00" fill="white">9,848 row(s)/153 chunk(s)</text>
</g>
<!-- 281459419253520 -->
<g id="node10" class="node">
<title>281459419253520</title>
<g id="a_node10"><a xlink:title="Output: 9848 rows in 153 chunks, 427 µs 301 ns.&#10;Chunks: 0 skipped with no results, &#10;0 skipped with all matching, 0 scanned using binary search.">
<polygon fill="none" stroke="white" points="527.5,-422 351.5,-422 351.5,-338 527.5,-338 527.5,-422"/>
<text text-anchor="middle" x="439.5" y="-406.8" font-family="Times,serif" font-size="14.00" fill="white">TableScan</text>
<text text-anchor="middle" x="439.5" y="-391.8" font-family="Times,serif" font-size="14.00" fill="white">Impl: ColumnVsValue</text>
<text text-anchor="middle" x="439.5" y="-376.8" font-family="Times,serif" font-size="14.00" fill="white">p_brand = &#39;Brand#43&#39;</text>
<text text-anchor="middle" x="439.5" y="-345.8" font-family="Times,serif" font-size="14.00" fill="white">427 µs 301 ns</text>
</a>
</g>
</g>
<!-- 281459419253520&#45;&gt;281459413369104 -->
<g id="edge11" class="edge">
<title>281459419253520&#45;&gt;281459413369104</title>
<path fill="none" stroke="white" d="M439.5,-422.23C439.5,-444.32 439.5,-471.31 439.5,-492.62"/>
<polygon fill="white" stroke="white" points="436,-492.88 439.5,-502.88 443,-492.88 436,-492.88"/>
<text text-anchor="middle" x="533" y="-443.8" font-family="Times,serif" font-size="14.00" fill="white">9,848 row(s)/153 chunk(s)</text>
</g>
<!-- 281459419253840 -->
<g id="node11" class="node">
<title>281459419253840</title>
<g id="a_node11"><a xlink:title="Output: 249282 rows in 153 chunks, 515 µs 175 ns.&#10;Chunks: 0 skipped with no results, &#10;0 skipped with all matching, 0 scanned using binary search.">
<polygon fill="none" stroke="white" points="533.5,-287 345.5,-287 345.5,-203 533.5,-203 533.5,-287"/>
<text text-anchor="middle" x="439.5" y="-271.8" font-family="Times,serif" font-size="14.00" fill="white">TableScan</text>
<text text-anchor="middle" x="439.5" y="-256.8" font-family="Times,serif" font-size="14.00" fill="white">Impl: ColumnVsValue</text>
<text text-anchor="middle" x="439.5" y="-241.8" font-family="Times,serif" font-size="14.00" fill="white">p_container = &#39;SM BAG&#39;</text>
<text text-anchor="middle" x="439.5" y="-210.8" font-family="Times,serif" font-size="14.00" fill="white">515 µs 175 ns</text>
</a>
</g>
</g>
<!-- 281459419253840&#45;&gt;281459419253520 -->
<g id="edge12" class="edge">
<title>281459419253840&#45;&gt;281459419253520</title>
<path fill="none" stroke="white" d="M439.5,-287.35C439.5,-300.11 439.5,-314.32 439.5,-327.67"/>
<polygon fill="white" stroke="white" points="436,-327.67 439.5,-337.67 443,-327.67 436,-327.67"/>
<text text-anchor="middle" x="542" y="-308.8" font-family="Times,serif" font-size="14.00" fill="white">249,282 row(s)/153 chunk(s)</text>
</g>
<!-- 281459415988560 -->
<g id="node12" class="node">
<title>281459415988560</title>
<g id="a_node12"><a xlink:title="Output: 10000000 rows in 153 chunks, 272 µs 387 ns.">
<polygon fill="none" stroke="white" points="500.5,-133 378.5,-133 378.5,-19 500.5,-19 500.5,-133"/>
<text text-anchor="middle" x="439.5" y="-117.8" font-family="Times,serif" font-size="14.00" fill="white">GetTable</text>
<text text-anchor="middle" x="439.5" y="-102.8" font-family="Times,serif" font-size="14.00" fill="white">(part)</text>
<text text-anchor="middle" x="439.5" y="-87.8" font-family="Times,serif" font-size="14.00" fill="white">pruned:</text>
<text text-anchor="middle" x="439.5" y="-72.8" font-family="Times,serif" font-size="14.00" fill="white">0/153 chunk(s)</text>
<text text-anchor="middle" x="439.5" y="-57.8" font-family="Times,serif" font-size="14.00" fill="white">6/9 column(s)</text>
<text text-anchor="middle" x="439.5" y="-26.8" font-family="Times,serif" font-size="14.00" fill="white">272 µs 387 ns</text>
</a>
</g>
</g>
<!-- 281459415988560&#45;&gt;281459419253840 -->
<g id="edge13" class="edge">
<title>281459415988560&#45;&gt;281459419253840</title>
<path fill="none" stroke="white" d="M439.5,-133.07C439.5,-152.34 439.5,-173.8 439.5,-192.67"/>
<polygon fill="white" stroke="white" points="436,-192.86 439.5,-202.86 443,-192.86 436,-192.86"/>
<text text-anchor="middle" x="553.5" y="-173.8" font-family="Times,serif" font-size="14.00" fill="white">10,000,000 row(s)/153 chunk(s)</text>
</g>
<!-- 281459419255120 -->
<g id="node13" class="node">
<title>281459419255120</title>
<g id="a_node13"><a xlink:title="Output: 9848 rows in 1 chunk, 70 µs 529 ns.&#10;Operator step runtimes:&#10; ForwardUnmodifiedColumns 4 µs 385 ns&#10; EvaluateNewColumns 42 µs 400 ns&#10; BuildOutput 21 µs 152 ns.">
<polygon fill="none" stroke="white" points="174.5,-1052 66.5,-1052 66.5,-998 174.5,-998 174.5,-1052"/>
<text text-anchor="middle" x="120.5" y="-1036.8" font-family="Times,serif" font-size="14.00" fill="white">Projection</text>
<text text-anchor="middle" x="120.5" y="-1005.8" font-family="Times,serif" font-size="14.00" fill="white">70 µs 529 ns</text>
</a>
</g>
</g>
<!-- 281459419255120&#45;&gt;281459419255440 -->
<g id="edge14" class="edge">
<title>281459419255120&#45;&gt;281459419255440</title>
<path fill="none" stroke="white" d="M115.77,-1052.07C115.08,-1062.87 116.04,-1075.14 121.5,-1085 123.5,-1088.6 125.82,-1092.02 128.39,-1095.26"/>
<polygon fill="white" stroke="white" points="135.27,-1102.94 131.21,-1093.15 128.6,-1095.49 135.27,-1102.94"/>
<text text-anchor="middle" x="206" y="-1073.8" font-family="Times,serif" font-size="14.00" fill="white">9,848 row(s)/1 chunk(s)</text>
</g>
<!-- 281459408852496&#45;&gt;281459419255120 -->
<g id="edge15" class="edge">
<title>281459408852496&#45;&gt;281459419255120</title>
<path fill="none" stroke="white" d="M108.8,-947.27C110.79,-960.36 112.98,-974.72 114.92,-987.45"/>
<polygon fill="white" stroke="white" points="111.52,-988.34 116.49,-997.69 118.44,-987.28 111.52,-988.34"/>
<text text-anchor="middle" x="199" y="-968.8" font-family="Times,serif" font-size="14.00" fill="white">9,848 row(s)/1 chunk(s)</text>
</g>
<!-- 0 -->
<g id="node15" class="node">
<title>0</title>
<polygon fill="none" stroke="white" points="519,-0.5 519,-151.5 870,-151.5 870,-0.5 519,-0.5"/>
<text text-anchor="middle" x="694.5" y="-136.3" font-family="Times,serif" font-size="14.00" fill="white">Total by operator</text>
<polyline fill="none" stroke="white" points="519,-128.5 870,-128.5 "/>
<text text-anchor="end" x="678" y="-113.3" font-family="Times,serif" font-size="14.00" fill="white">AggregateHash </text>
<text text-anchor="end" x="678" y="-98.3" font-family="Times,serif" font-size="14.00" fill="white"> JoinSimdSortMerge </text>
<text text-anchor="end" x="678" y="-83.3" font-family="Times,serif" font-size="14.00" fill="white"> GetTable </text>
<text text-anchor="end" x="678" y="-68.3" font-family="Times,serif" font-size="14.00" fill="white"> Validate </text>
<text text-anchor="end" x="678" y="-53.3" font-family="Times,serif" font-size="14.00" fill="white"> TableScan </text>
<text text-anchor="end" x="678" y="-38.3" font-family="Times,serif" font-size="14.00" fill="white"> Projection </text>
<text text-anchor="end" x="678" y="-23.3" font-family="Times,serif" font-size="14.00" fill="white"> Alias </text>
<text text-anchor="end" x="678" y="-8.3" font-family="Times,serif" font-size="14.00" fill="white">total</text>
<polyline fill="none" stroke="white" points="686,-0.5 686,-128.5 "/>
<text text-anchor="start" x="694" y="-113.3" font-family="Times,serif" font-size="14.00" fill="white">531 ms 498 µs </text>
<text text-anchor="start" x="694" y="-98.3" font-family="Times,serif" font-size="14.00" fill="white"> 162 ms 957 µs </text>
<text text-anchor="start" x="694" y="-83.3" font-family="Times,serif" font-size="14.00" fill="white"> 4 ms 307 µs </text>
<text text-anchor="start" x="694" y="-68.3" font-family="Times,serif" font-size="14.00" fill="white"> 2 ms 956 µs </text>
<text text-anchor="start" x="694" y="-53.3" font-family="Times,serif" font-size="14.00" fill="white"> 942 µs 476 ns </text>
<text text-anchor="start" x="694" y="-38.3" font-family="Times,serif" font-size="14.00" fill="white"> 97 µs 121 ns </text>
<text text-anchor="start" x="694" y="-23.3" font-family="Times,serif" font-size="14.00" fill="white"> 1 µs 760 ns </text>
<text text-anchor="start" x="694" y="-8.3" font-family="Times,serif" font-size="14.00" fill="white"> 702 ms 759 µs </text>
<polyline fill="none" stroke="white" points="817,-0.5 817,-128.5 "/>
<text text-anchor="start" x="825" y="-113.3" font-family="Times,serif" font-size="14.00" fill="white">76 %</text>
<text text-anchor="start" x="825" y="-98.3" font-family="Times,serif" font-size="14.00" fill="white">23 %</text>
<text text-anchor="start" x="825" y="-83.3" font-family="Times,serif" font-size="14.00" fill="white">1 %</text>
<text text-anchor="start" x="825" y="-68.3" font-family="Times,serif" font-size="14.00" fill="white">0 %</text>
<text text-anchor="start" x="825" y="-53.3" font-family="Times,serif" font-size="14.00" fill="white">0 %</text>
<text text-anchor="start" x="825" y="-38.3" font-family="Times,serif" font-size="14.00" fill="white">0 %</text>
<text text-anchor="start" x="825" y="-23.3" font-family="Times,serif" font-size="14.00" fill="white">0 %</text>
<text text-anchor="start" x="825" y="-8.3" font-family="Times,serif" font-size="14.00" fill="white"> </text>
</g>
</g>
</svg>
