<?xml version="1.0" encoding="UTF-8" standalone="no"?>
<!DOCTYPE svg PUBLIC "-//W3C//DTD SVG 1.1//EN"
 "http://www.w3.org/Graphics/SVG/1.1/DTD/svg11.dtd">
<!-- Generated by graphviz version 2.43.0 (0)
 -->
<!-- Title: G Pages: 1 -->
<svg width="1049pt" height="1615pt"
 viewBox="0.00 0.00 1049.00 1615.00" xmlns="http://www.w3.org/2000/svg" xmlns:xlink="http://www.w3.org/1999/xlink">
<g id="graph0" class="graph" transform="scale(1 1) rotate(0) translate(4 1611)">
<title>G</title>
<polygon fill="black" stroke="transparent" points="-4,4 -4,-1611 1045,-1611 1045,4 -4,4"/>
<text text-anchor="middle" x="319.5" y="-1591.8" font-family="Times,serif" font-size="14.00" fill="white">For tooltips with advanced information, hover your mouse over vertices or edge labels.</text>
<!-- 281426129785072 -->
<g id="node1" class="node">
<title>281426129785072</title>
<polygon fill="none" stroke="white" points="786.5,-1552 549.5,-1552 549.5,-1516 786.5,-1516 786.5,-1552"/>
<text text-anchor="middle" x="668" y="-1530.3" font-family="Times,serif" font-size="14.00" fill="white">[Projection] s_name, s_address</text>
</g>
<!-- 281382172559440 -->
<g id="node2" class="node">
<title>281382172559440</title>
<polygon fill="none" stroke="white" points="770,-1465 566,-1465 566,-1429 770,-1429 770,-1465"/>
<text text-anchor="middle" x="668" y="-1443.3" font-family="Times,serif" font-size="14.00" fill="white">[Sort] s_name (Ascending)</text>
</g>
<!-- 281382172559440&#45;&gt;281426129785072 -->
<g id="edge1" class="edge">
<title>281382172559440&#45;&gt;281426129785072</title>
<path fill="none" stroke="white" d="M668,-1465.2C668,-1476.84 668,-1492.45 668,-1505.76"/>
<polygon fill="white" stroke="white" points="664.5,-1505.82 668,-1515.82 671.5,-1505.82 664.5,-1505.82"/>
<g id="a_edge1&#45;label"><a xlink:title="Output Expressions: &#10; (1) s_suppkey&#10; (2) s_name&#10; (3) s_address&#10; (4) s_nationkey&#10;&#10;Unique Column Combinations: &#10; (1) {s_suppkey}&#10;&#10;Functional Dependencies (trivial): &#10; (1) {s_suppkey} =&gt; {s_name, s_address, s_nationkey}&#10;&#10;Functional Dependencies (non&#45;trivial): &#10; &lt;none&gt;">
<text text-anchor="middle" x="764.5" y="-1486.8" font-family="Times,serif" font-size="14.00" fill="white"> 42.1 row(s) | 100.0% estd.</text>
</a>
</g>
</g>
<!-- 281424513287536 -->
<g id="node3" class="node">
<title>281424513287536</title>
<polygon fill="none" stroke="white" points="710.5,-1378 625.5,-1378 625.5,-1342 710.5,-1342 710.5,-1378"/>
<text text-anchor="middle" x="668" y="-1356.3" font-family="Times,serif" font-size="14.00" fill="white">[Validate]</text>
</g>
<!-- 281424513287536&#45;&gt;281382172559440 -->
<g id="edge2" class="edge">
<title>281424513287536&#45;&gt;281382172559440</title>
<path fill="none" stroke="white" d="M668,-1378.2C668,-1389.84 668,-1405.45 668,-1418.76"/>
<polygon fill="white" stroke="white" points="664.5,-1418.82 668,-1428.82 671.5,-1418.82 664.5,-1418.82"/>
<g id="a_edge2&#45;label"><a xlink:title="Output Expressions: &#10; (1) s_suppkey&#10; (2) s_name&#10; (3) s_address&#10; (4) s_nationkey&#10;&#10;Unique Column Combinations: &#10; (1) {s_suppkey}&#10;&#10;Functional Dependencies (trivial): &#10; (1) {s_suppkey} =&gt; {s_name, s_address, s_nationkey}&#10;&#10;Functional Dependencies (non&#45;trivial): &#10; &lt;none&gt;">
<text text-anchor="middle" x="764.5" y="-1399.8" font-family="Times,serif" font-size="14.00" fill="white"> 42.1 row(s) | 100.0% estd.</text>
</a>
</g>
</g>
<!-- 281426130644240 -->
<g id="node4" class="node">
<title>281426130644240</title>
<polygon fill="none" stroke="white" points="842.5,-1291 493.5,-1291 493.5,-1255 842.5,-1255 842.5,-1291"/>
<text text-anchor="middle" x="668" y="-1269.3" font-family="Times,serif" font-size="14.00" fill="white">[Join] Mode: Semi [s_nationkey = n_nationkey]</text>
</g>
<!-- 281426130644240&#45;&gt;281424513287536 -->
<g id="edge3" class="edge">
<title>281426130644240&#45;&gt;281424513287536</title>
<path fill="none" stroke="white" d="M668,-1291.2C668,-1302.84 668,-1318.45 668,-1331.76"/>
<polygon fill="white" stroke="white" points="664.5,-1331.82 668,-1341.82 671.5,-1331.82 664.5,-1331.82"/>
<g id="a_edge3&#45;label"><a xlink:title="Output Expressions: &#10; (1) s_suppkey&#10; (2) s_name&#10; (3) s_address&#10; (4) s_nationkey&#10;&#10;Unique Column Combinations: &#10; (1) {s_suppkey}&#10;&#10;Functional Dependencies (trivial): &#10; (1) {s_suppkey} =&gt; {s_name, s_address, s_nationkey}&#10;&#10;Functional Dependencies (non&#45;trivial): &#10; &lt;none&gt;">
<text text-anchor="middle" x="755.5" y="-1312.8" font-family="Times,serif" font-size="14.00" fill="white"> 42.1 row(s) | 4.0% estd.</text>
</a>
</g>
</g>
<!-- 281426130645008 -->
<g id="node5" class="node">
<title>281426130645008</title>
<polygon fill="none" stroke="white" points="722.5,-1204 387.5,-1204 387.5,-1168 722.5,-1168 722.5,-1204"/>
<text text-anchor="middle" x="555" y="-1182.3" font-family="Times,serif" font-size="14.00" fill="white">[Join] Mode: Semi [s_suppkey = ps_suppkey]</text>
</g>
<!-- 281426130645008&#45;&gt;281426130644240 -->
<g id="edge4" class="edge">
<title>281426130645008&#45;&gt;281426130644240</title>
<path fill="none" stroke="white" d="M557.05,-1204.26C559.15,-1214.93 563.41,-1228.22 572,-1237 576.83,-1241.94 582.42,-1246.19 588.42,-1249.84"/>
<polygon fill="white" stroke="white" points="588.68,-1249.98 587.01,-1253.06 597.46,-1254.77 588.68,-1249.98"/>
<g id="a_edge4&#45;label"><a xlink:title="Output Expressions: &#10; (1) s_suppkey&#10; (2) s_name&#10; (3) s_address&#10; (4) s_nationkey&#10;&#10;Unique Column Combinations: &#10; (1) {s_suppkey}&#10;&#10;Functional Dependencies (trivial): &#10; (1) {s_suppkey} =&gt; {s_name, s_address, s_nationkey}&#10;&#10;Functional Dependencies (non&#45;trivial): &#10; &lt;none&gt;">
<text text-anchor="middle" x="671" y="-1225.8" font-family="Times,serif" font-size="14.00" fill="white"> 1,051.8 row(s) | 0.2% estd.</text>
</a>
</g>
</g>
<!-- 281426123910992 -->
<g id="node6" class="node">
<title>281426123910992</title>
<polygon fill="none" stroke="white" points="716,-1117 394,-1117 394,-1079 716,-1079 716,-1117"/>
<text text-anchor="middle" x="555" y="-1101.8" font-family="Times,serif" font-size="14.00" fill="white">[StoredTable] Name: &#39;supplier&#39; pruned: 0/8</text>
<text text-anchor="middle" x="555" y="-1086.8" font-family="Times,serif" font-size="14.00" fill="white">chunk(s), 3/7 column(s)</text>
</g>
<!-- 281426123910992&#45;&gt;281426130645008 -->
<g id="edge5" class="edge">
<title>281426123910992&#45;&gt;281426130645008</title>
<path fill="none" stroke="white" d="M555,-1117.24C555,-1129.07 555,-1144.68 555,-1157.95"/>
<polygon fill="white" stroke="white" points="555,-1157.96 551.5,-1157.96 555,-1167.96 555,-1157.96"/>
<g id="a_edge5&#45;label"><a xlink:title="Output Expressions: &#10; (1) s_suppkey&#10; (2) s_name&#10; (3) s_address&#10; (4) s_nationkey&#10;&#10;Unique Column Combinations: &#10; (1) {s_suppkey}&#10;&#10;Functional Dependencies (trivial): &#10; (1) {s_suppkey} =&gt; {s_name, s_address, s_nationkey}&#10;&#10;Functional Dependencies (non&#45;trivial): &#10; &lt;none&gt;">
<text text-anchor="middle" x="672" y="-1138.8" font-family="Times,serif" font-size="14.00" fill="white"> 500,000.0 row(s) | 100.0% estd.</text>
</a>
</g>
</g>
<!-- 281426129791632 -->
<g id="node7" class="node">
<title>281426129791632</title>
<polygon fill="none" stroke="white" points="375.5,-1116 188.5,-1116 188.5,-1080 375.5,-1080 375.5,-1116"/>
<text text-anchor="middle" x="282" y="-1094.3" font-family="Times,serif" font-size="14.00" fill="white">[Projection] ps_suppkey</text>
</g>
<!-- 281426129791632&#45;&gt;281426130645008 -->
<g id="edge6" class="edge">
<title>281426129791632&#45;&gt;281426130645008</title>
<path fill="none" stroke="white" d="M294.93,-1116.02C304.65,-1127.53 319,-1142.03 335,-1150 348.42,-1156.68 362.82,-1162.14 377.59,-1166.6"/>
<polygon fill="white" stroke="white" points="387.35,-1169.38 378.69,-1163.27 377.73,-1166.64 387.35,-1169.38"/>
<g id="a_edge6&#45;label"><a xlink:title="Output Expressions: &#10; (1) ps_suppkey&#10;&#10;Unique Column Combinations: &#10; &lt;none&gt;&#10;&#10;Functional Dependencies (trivial): &#10; &lt;none&gt;&#10;&#10;Functional Dependencies (non&#45;trivial): &#10; &lt;none&gt;">
<text text-anchor="middle" x="443" y="-1138.8" font-family="Times,serif" font-size="14.00" fill="white"> 1,051.8 row(s) | 100.0% estd.</text>
</a>
</g>
</g>
<!-- 281426130647504 -->
<g id="node8" class="node">
<title>281426130647504</title>
<polygon fill="none" stroke="white" points="468,-1028 96,-1028 96,-975 468,-975 468,-1028"/>
<text text-anchor="middle" x="282" y="-1012.8" font-family="Times,serif" font-size="14.00" fill="white">[Join] Mode: Semi [ps_suppkey = l_suppkey]</text>
<text text-anchor="middle" x="282" y="-997.8" font-family="Times,serif" font-size="14.00" fill="white">[ps_availqty &gt; 0.5 * SUM(l_quantity)] [ps_partkey</text>
<text text-anchor="middle" x="282" y="-982.8" font-family="Times,serif" font-size="14.00" fill="white">= l_partkey]</text>
</g>
<!-- 281426130647504&#45;&gt;281426129791632 -->
<g id="edge7" class="edge">
<title>281426130647504&#45;&gt;281426129791632</title>
<path fill="none" stroke="white" d="M282,-1028.32C282,-1041.13 282,-1056.6 282,-1069.62"/>
<polygon fill="white" stroke="white" points="278.5,-1069.86 282,-1079.86 285.5,-1069.86 278.5,-1069.86"/>
<g id="a_edge7&#45;label"><a xlink:title="Output Expressions: &#10; (1) ps_partkey&#10; (2) ps_suppkey&#10; (3) ps_availqty&#10;&#10;Unique Column Combinations: &#10; (1) {ps_partkey, ps_suppkey}&#10;&#10;Functional Dependencies (trivial): &#10; (1) {ps_partkey, ps_suppkey} =&gt; {ps_availqty}&#10;&#10;Functional Dependencies (non&#45;trivial): &#10; &lt;none&gt;">
<text text-anchor="middle" x="390" y="-1049.8" font-family="Times,serif" font-size="14.00" fill="white"> 1,051.8 row(s) | 100.0% estd.</text>
</a>
</g>
</g>
<!-- 281426129791152 -->
<g id="node9" class="node">
<title>281426129791152</title>
<polygon fill="none" stroke="white" points="354.5,-480 269.5,-480 269.5,-444 354.5,-444 354.5,-480"/>
<text text-anchor="middle" x="312" y="-458.3" font-family="Times,serif" font-size="14.00" fill="white">[Validate]</text>
</g>
<!-- 281426129791152&#45;&gt;281426130647504 -->
<g id="edge8" class="edge">
<title>281426129791152&#45;&gt;281426130647504</title>
<path fill="none" stroke="white" d="M296.43,-480.25C283.08,-496.87 266,-523.35 266,-550 266,-550 266,-550 266,-906 266,-925.61 269.39,-947.2 273.05,-964.78"/>
<polygon fill="white" stroke="white" points="273.07,-964.86 269.65,-965.61 275.21,-974.63 273.07,-964.86"/>
<g id="a_edge8&#45;label"><a xlink:title="Output Expressions: &#10; (1) ps_partkey&#10; (2) ps_suppkey&#10; (3) ps_availqty&#10;&#10;Unique Column Combinations: &#10; (1) {ps_partkey, ps_suppkey}&#10;&#10;Functional Dependencies (trivial): &#10; (1) {ps_partkey, ps_suppkey} =&gt; {ps_availqty}&#10;&#10;Functional Dependencies (non&#45;trivial): &#10; &lt;none&gt;">
<text text-anchor="middle" x="374" y="-724.3" font-family="Times,serif" font-size="14.00" fill="white"> 1,051.8 row(s) | 100.0% estd.</text>
</a>
</g>
</g>
<!-- 281424515961744 -->
<g id="node19" class="node">
<title>281424515961744</title>
<polygon fill="none" stroke="white" points="709,-659 377,-659 377,-621 709,-621 709,-659"/>
<text text-anchor="middle" x="543" y="-643.8" font-family="Times,serif" font-size="14.00" fill="white">[Join] Mode: Semi [ps_suppkey = l_suppkey]</text>
<text text-anchor="middle" x="543" y="-628.8" font-family="Times,serif" font-size="14.00" fill="white">(SemiJoinReductionRule)</text>
</g>
<!-- 281426129791152&#45;&gt;281424515961744 -->
<g id="edge10" class="edge">
<title>281426129791152&#45;&gt;281424515961744</title>
<path fill="none" stroke="white" d="M308.07,-480.32C303.9,-503.44 300.45,-544.42 321,-570 338.63,-591.96 363.15,-607.07 389.48,-617.44"/>
<polygon fill="white" stroke="white" points="398.86,-620.91 390.7,-614.16 389.48,-617.44 398.86,-620.91"/>
<g id="a_edge10&#45;label"><a xlink:title="Output Expressions: &#10; (1) ps_partkey&#10; (2) ps_suppkey&#10; (3) ps_availqty&#10;&#10;Unique Column Combinations: &#10; (1) {ps_partkey, ps_suppkey}&#10;&#10;Functional Dependencies (trivial): &#10; (1) {ps_partkey, ps_suppkey} =&gt; {ps_availqty}&#10;&#10;Functional Dependencies (non&#45;trivial): &#10; &lt;none&gt;">
<text text-anchor="middle" x="429" y="-547.3" font-family="Times,serif" font-size="14.00" fill="white"> 1,051.8 row(s) | 100.0% estd.</text>
</a>
</g>
</g>
<!-- 281424515961168 -->
<g id="node20" class="node">
<title>281424515961168</title>
<polygon fill="none" stroke="white" points="869.5,-570 546.5,-570 546.5,-532 869.5,-532 869.5,-570"/>
<text text-anchor="middle" x="708" y="-554.8" font-family="Times,serif" font-size="14.00" fill="white">[Join] Mode: Semi [ps_partkey = l_partkey]</text>
<text text-anchor="middle" x="708" y="-539.8" font-family="Times,serif" font-size="14.00" fill="white">(SemiJoinReductionRule)</text>
</g>
<!-- 281426129791152&#45;&gt;281424515961168 -->
<g id="edge9" class="edge">
<title>281426129791152&#45;&gt;281424515961168</title>
<path fill="none" stroke="white" d="M354.66,-476.92C390.08,-488.1 441.92,-503.59 488,-514 514.81,-520.06 543.68,-525.52 571.41,-530.26"/>
<polygon fill="white" stroke="white" points="581.56,-531.97 572.28,-526.86 571.7,-530.31 581.56,-531.97"/>
<g id="a_edge9&#45;label"><a xlink:title="Output Expressions: &#10; (1) ps_partkey&#10; (2) ps_suppkey&#10; (3) ps_availqty&#10;&#10;Unique Column Combinations: &#10; (1) {ps_partkey, ps_suppkey}&#10;&#10;Functional Dependencies (trivial): &#10; (1) {ps_partkey, ps_suppkey} =&gt; {ps_availqty}&#10;&#10;Functional Dependencies (non&#45;trivial): &#10; &lt;none&gt;">
<text text-anchor="middle" x="596" y="-502.8" font-family="Times,serif" font-size="14.00" fill="white"> 1,051.8 row(s) | 100.0% estd.</text>
</a>
</g>
</g>
<!-- 281426130645584 -->
<g id="node10" class="node">
<title>281426130645584</title>
<polygon fill="none" stroke="white" points="476,-391 148,-391 148,-355 476,-355 476,-391"/>
<text text-anchor="middle" x="312" y="-369.3" font-family="Times,serif" font-size="14.00" fill="white">[Join] Mode: Semi [ps_partkey = p_partkey]</text>
</g>
<!-- 281426130645584&#45;&gt;281426129791152 -->
<g id="edge11" class="edge">
<title>281426130645584&#45;&gt;281426129791152</title>
<path fill="none" stroke="white" d="M312,-391.19C312,-403.34 312,-419.89 312,-433.82"/>
<polygon fill="white" stroke="white" points="308.5,-433.85 312,-443.85 315.5,-433.85 308.5,-433.85"/>
<g id="a_edge11&#45;label"><a xlink:title="Output Expressions: &#10; (1) ps_partkey&#10; (2) ps_suppkey&#10; (3) ps_availqty&#10;&#10;Unique Column Combinations: &#10; (1) {ps_partkey, ps_suppkey}&#10;&#10;Functional Dependencies (trivial): &#10; (1) {ps_partkey, ps_suppkey} =&gt; {ps_availqty}&#10;&#10;Functional Dependencies (non&#45;trivial): &#10; &lt;none&gt;">
<text text-anchor="middle" x="411" y="-413.8" font-family="Times,serif" font-size="14.00" fill="white"> 1,051.8 row(s) | 0.0% estd.</text>
</a>
</g>
</g>
<!-- 281426123932112 -->
<g id="node11" class="node">
<title>281426123932112</title>
<polygon fill="none" stroke="white" points="346,-303 0,-303 0,-265 346,-265 346,-303"/>
<text text-anchor="middle" x="173" y="-287.8" font-family="Times,serif" font-size="14.00" fill="white">[StoredTable] Name: &#39;partsupp&#39; pruned: 0/611</text>
<text text-anchor="middle" x="173" y="-272.8" font-family="Times,serif" font-size="14.00" fill="white">chunk(s), 2/5 column(s)</text>
</g>
<!-- 281426123932112&#45;&gt;281426130645584 -->
<g id="edge12" class="edge">
<title>281426123932112&#45;&gt;281426130645584</title>
<path fill="none" stroke="white" stroke-width="3.03" d="M168.31,-303.33C166.73,-313.95 166.87,-326.96 174,-336 178.86,-342.16 189.77,-347.48 203.44,-351.99"/>
<polygon fill="white" stroke="white" stroke-width="3.03" points="203.73,-352.08 202.71,-355.43 213.3,-354.99 203.73,-352.08"/>
<g id="a_edge12&#45;label"><a xlink:title="Output Expressions: &#10; (1) ps_partkey&#10; (2) ps_suppkey&#10; (3) ps_availqty&#10;&#10;Unique Column Combinations: &#10; (1) {ps_partkey, ps_suppkey}&#10;&#10;Functional Dependencies (trivial): &#10; (1) {ps_partkey, ps_suppkey} =&gt; {ps_availqty}&#10;&#10;Functional Dependencies (non&#45;trivial): &#10; &lt;none&gt;">
<text text-anchor="middle" x="302" y="-324.8" font-family="Times,serif" font-size="14.00" fill="white"> 40,000,000.0 row(s) | 100.0% estd.</text>
</a>
</g>
</g>
<!-- 281426129793232 -->
<g id="node12" class="node">
<title>281426129793232</title>
<polygon fill="none" stroke="white" points="539.5,-302 364.5,-302 364.5,-266 539.5,-266 539.5,-302"/>
<text text-anchor="middle" x="452" y="-280.3" font-family="Times,serif" font-size="14.00" fill="white">[Projection] p_partkey</text>
</g>
<!-- 281426129793232&#45;&gt;281426130645584 -->
<g id="edge13" class="edge">
<title>281426129793232&#45;&gt;281426130645584</title>
<path fill="none" stroke="white" d="M448.47,-302.35C445.37,-313.41 439.77,-327.26 430,-336 423.63,-341.7 416.38,-346.49 408.68,-350.53"/>
<polygon fill="white" stroke="white" points="399.46,-354.93 410,-353.78 408.49,-350.62 399.46,-354.93"/>
<g id="a_edge13&#45;label"><a xlink:title="Output Expressions: &#10; (1) p_partkey&#10;&#10;Unique Column Combinations: &#10; (1) {p_partkey}&#10;&#10;Functional Dependencies (trivial): &#10; &lt;none&gt;&#10;&#10;Functional Dependencies (non&#45;trivial): &#10; &lt;none&gt;">
<text text-anchor="middle" x="542" y="-324.8" font-family="Times,serif" font-size="14.00" fill="white"> 262.9 row(s) | 100.0% estd.</text>
</a>
</g>
</g>
<!-- 281426129793072 -->
<g id="node13" class="node">
<title>281426129793072</title>
<polygon fill="none" stroke="white" points="494.5,-214 409.5,-214 409.5,-178 494.5,-178 494.5,-214"/>
<text text-anchor="middle" x="452" y="-192.3" font-family="Times,serif" font-size="14.00" fill="white">[Validate]</text>
</g>
<!-- 281426129793072&#45;&gt;281426129793232 -->
<g id="edge14" class="edge">
<title>281426129793072&#45;&gt;281426129793232</title>
<path fill="none" stroke="white" d="M452,-214.4C452,-226.25 452,-242.18 452,-255.71"/>
<polygon fill="white" stroke="white" points="448.5,-255.92 452,-265.92 455.5,-255.92 448.5,-255.92"/>
<g id="a_edge14&#45;label"><a xlink:title="Output Expressions: &#10; (1) p_partkey&#10; (2) p_name&#10;&#10;Unique Column Combinations: &#10; (1) {p_partkey}&#10;&#10;Functional Dependencies (trivial): &#10; (1) {p_partkey} =&gt; {p_name}&#10;&#10;Functional Dependencies (non&#45;trivial): &#10; &lt;none&gt;">
<text text-anchor="middle" x="553" y="-235.8" font-family="Times,serif" font-size="14.00" fill="white"> 262.9 row(s) | 100.0% estd.</text>
</a>
</g>
</g>
<!-- 281426130645968 -->
<g id="node14" class="node">
<title>281426130645968</title>
<polygon fill="none" stroke="white" points="665,-127 239,-127 239,-89 665,-89 665,-127"/>
<text text-anchor="middle" x="452" y="-111.8" font-family="Times,serif" font-size="14.00" fill="white">[Predicate] p_name BETWEEN UPPER EXCLUSIVE &#39;pale&#39;</text>
<text text-anchor="middle" x="452" y="-96.8" font-family="Times,serif" font-size="14.00" fill="white">AND &#39;palf&#39;</text>
</g>
<!-- 281426130645968&#45;&gt;281426129793072 -->
<g id="edge15" class="edge">
<title>281426130645968&#45;&gt;281426129793072</title>
<path fill="none" stroke="white" d="M452,-127.24C452,-139.07 452,-154.68 452,-167.95"/>
<polygon fill="white" stroke="white" points="448.5,-167.96 452,-177.96 455.5,-167.96 448.5,-167.96"/>
<g id="a_edge15&#45;label"><a xlink:title="Output Expressions: &#10; (1) p_partkey&#10; (2) p_name&#10;&#10;Unique Column Combinations: &#10; (1) {p_partkey}&#10;&#10;Functional Dependencies (trivial): &#10; (1) {p_partkey} =&gt; {p_name}&#10;&#10;Functional Dependencies (non&#45;trivial): &#10; &lt;none&gt;">
<text text-anchor="middle" x="544" y="-148.8" font-family="Times,serif" font-size="14.00" fill="white"> 262.9 row(s) | 0.0% estd.</text>
</a>
</g>
</g>
<!-- 281426123910352 -->
<g id="node15" class="node">
<title>281426123910352</title>
<polygon fill="none" stroke="white" points="642.5,-38 261.5,-38 261.5,0 642.5,0 642.5,-38"/>
<text text-anchor="middle" x="452" y="-22.8" font-family="Times,serif" font-size="14.00" fill="white">[StoredTable] Name: &#39;part&#39; pruned: 0/153 chunk(s),</text>
<text text-anchor="middle" x="452" y="-7.8" font-family="Times,serif" font-size="14.00" fill="white">7/9 column(s)</text>
</g>
<!-- 281426123910352&#45;&gt;281426130645968 -->
<g id="edge16" class="edge">
<title>281426123910352&#45;&gt;281426130645968</title>
<path fill="none" stroke="white" d="M452,-38.03C452,-49.81 452,-65.44 452,-78.84"/>
<polygon fill="white" stroke="white" points="448.5,-79 452,-89 455.5,-79 448.5,-79"/>
<g id="a_edge16&#45;label"><a xlink:title="Output Expressions: &#10; (1) p_partkey&#10; (2) p_name&#10;&#10;Unique Column Combinations: &#10; (1) {p_partkey}&#10;&#10;Functional Dependencies (trivial): &#10; (1) {p_partkey} =&gt; {p_name}&#10;&#10;Functional Dependencies (non&#45;trivial): &#10; &lt;none&gt;">
<text text-anchor="middle" x="580" y="-59.8" font-family="Times,serif" font-size="14.00" fill="white"> 10,000,000.0 row(s) | 100.0% estd.</text>
</a>
</g>
</g>
<!-- 281426129792272 -->
<g id="node16" class="node">
<title>281426129792272</title>
<polygon fill="none" stroke="white" points="655,-924 313,-924 313,-886 655,-886 655,-924"/>
<text text-anchor="middle" x="484" y="-908.8" font-family="Times,serif" font-size="14.00" fill="white">[Projection] 0.5 * SUM(l_quantity), l_suppkey,</text>
<text text-anchor="middle" x="484" y="-893.8" font-family="Times,serif" font-size="14.00" fill="white">l_partkey</text>
</g>
<!-- 281426129792272&#45;&gt;281426130647504 -->
<g id="edge17" class="edge">
<title>281426129792272&#45;&gt;281426130647504</title>
<path fill="none" stroke="white" d="M445.05,-924.22C417.09,-937.3 378.76,-955.23 346.29,-970.42"/>
<polygon fill="white" stroke="white" points="336.86,-974.83 347.4,-973.77 345.92,-970.6 336.86,-974.83"/>
<g id="a_edge17&#45;label"><a xlink:title="Output Expressions: &#10; (1) 0.5 * SUM(l_quantity) NULL&#10; (2) l_suppkey&#10; (3) l_partkey&#10;&#10;Unique Column Combinations: &#10; (1) {l_partkey, l_suppkey}&#10;&#10;Functional Dependencies (trivial): &#10; (1) {l_partkey, l_suppkey} =&gt; {0.5 * SUM(l_quantity)}&#10;&#10;Functional Dependencies (non&#45;trivial): &#10; &lt;none&gt;">
<text text-anchor="middle" x="516" y="-945.8" font-family="Times,serif" font-size="14.00" fill="white"> 1,051.8 row(s) | 100.0% estd.</text>
</a>
</g>
</g>
<!-- 281426130646928 -->
<g id="node17" class="node">
<title>281426130646928</title>
<polygon fill="none" stroke="white" points="694,-835 362,-835 362,-797 694,-797 694,-835"/>
<text text-anchor="middle" x="528" y="-819.8" font-family="Times,serif" font-size="14.00" fill="white">[Aggregate] GroupBy: [l_suppkey, l_partkey]</text>
<text text-anchor="middle" x="528" y="-804.8" font-family="Times,serif" font-size="14.00" fill="white">Aggregates: [SUM(l_quantity)]</text>
</g>
<!-- 281426130646928&#45;&gt;281426129792272 -->
<g id="edge18" class="edge">
<title>281426130646928&#45;&gt;281426129792272</title>
<path fill="none" stroke="white" d="M518.88,-835.03C512.75,-847.16 504.55,-863.37 497.64,-877.03"/>
<polygon fill="white" stroke="white" points="494.5,-875.49 493.11,-886 500.74,-878.65 494.5,-875.49"/>
<g id="a_edge18&#45;label"><a xlink:title="Output Expressions: &#10; (1) l_suppkey&#10; (2) l_partkey&#10; (3) SUM(l_quantity) NULL&#10;&#10;Unique Column Combinations: &#10; (1) {l_partkey, l_suppkey}&#10;&#10;Functional Dependencies (trivial): &#10; (1) {l_partkey, l_suppkey} =&gt; {SUM(l_quantity)}&#10;&#10;Functional Dependencies (non&#45;trivial): &#10; &lt;none&gt;">
<text text-anchor="middle" x="617" y="-856.8" font-family="Times,serif" font-size="14.00" fill="white"> 1,051.8 row(s) | 100.0% estd.</text>
</a>
</g>
</g>
<!-- 281426129791952 -->
<g id="node18" class="node">
<title>281426129791952</title>
<polygon fill="none" stroke="white" points="585.5,-746 500.5,-746 500.5,-710 585.5,-710 585.5,-746"/>
<text text-anchor="middle" x="543" y="-724.3" font-family="Times,serif" font-size="14.00" fill="white">[Validate]</text>
</g>
<!-- 281426129791952&#45;&gt;281426130646928 -->
<g id="edge19" class="edge">
<title>281426129791952&#45;&gt;281426130646928</title>
<path fill="none" stroke="white" d="M539.96,-746.4C537.95,-757.94 535.26,-773.35 532.95,-786.64"/>
<polygon fill="white" stroke="white" points="529.46,-786.28 531.19,-796.73 536.35,-787.48 529.46,-786.28"/>
<g id="a_edge19&#45;label"><a xlink:title="Output Expressions: &#10; (1) l_partkey&#10; (2) l_suppkey&#10; (3) l_quantity&#10; (4) l_shipdate&#10;&#10;Unique Column Combinations: &#10; &lt;none&gt;&#10;&#10;Functional Dependencies (trivial): &#10; &lt;none&gt;&#10;&#10;Functional Dependencies (non&#45;trivial): &#10; &lt;none&gt;">
<text text-anchor="middle" x="645" y="-767.8" font-family="Times,serif" font-size="14.00" fill="white"> 1,051.8 row(s) | 100.0% estd.</text>
</a>
</g>
</g>
<!-- 281424515961744&#45;&gt;281426129791952 -->
<g id="edge20" class="edge">
<title>281424515961744&#45;&gt;281426129791952</title>
<path fill="none" stroke="white" d="M543,-659.24C543,-671.07 543,-686.68 543,-699.95"/>
<polygon fill="white" stroke="white" points="539.5,-699.96 543,-709.96 546.5,-699.96 539.5,-699.96"/>
<g id="a_edge20&#45;label"><a xlink:title="Output Expressions: &#10; (1) l_partkey&#10; (2) l_suppkey&#10; (3) l_quantity&#10; (4) l_shipdate&#10;&#10;Unique Column Combinations: &#10; &lt;none&gt;&#10;&#10;Functional Dependencies (trivial): &#10; &lt;none&gt;&#10;&#10;Functional Dependencies (non&#45;trivial): &#10; &lt;none&gt;">
<text text-anchor="middle" x="646.5" y="-680.8" font-family="Times,serif" font-size="14.00" fill="white"> 1,051.8 row(s) | 85.5% estd.</text>
</a>
</g>
</g>
<!-- 281424515961168&#45;&gt;281424515961744 -->
<g id="edge21" class="edge">
<title>281424515961168&#45;&gt;281424515961744</title>
<path fill="none" stroke="white" d="M673.81,-570.03C648.37,-583.44 613.46,-601.85 586.11,-616.27"/>
<polygon fill="white" stroke="white" points="585.99,-616.33 584.36,-613.24 577.14,-621 585.99,-616.33"/>
<g id="a_edge21&#45;label"><a xlink:title="Output Expressions: &#10; (1) l_partkey&#10; (2) l_suppkey&#10; (3) l_quantity&#10; (4) l_shipdate&#10;&#10;Unique Column Combinations: &#10; &lt;none&gt;&#10;&#10;Functional Dependencies (trivial): &#10; &lt;none&gt;&#10;&#10;Functional Dependencies (non&#45;trivial): &#10; &lt;none&gt;">
<text text-anchor="middle" x="735" y="-591.8" font-family="Times,serif" font-size="14.00" fill="white"> 1,230.2 row(s) | 0.0% estd.</text>
</a>
</g>
</g>
<!-- 281426130646544 -->
<g id="node21" class="node">
<title>281426130646544</title>
<polygon fill="none" stroke="white" points="909,-481 507,-481 507,-443 909,-443 909,-481"/>
<text text-anchor="middle" x="708" y="-465.8" font-family="Times,serif" font-size="14.00" fill="white">[Predicate] l_shipdate BETWEEN UPPER EXCLUSIVE</text>
<text text-anchor="middle" x="708" y="-450.8" font-family="Times,serif" font-size="14.00" fill="white">&#39;1997&#45;01&#45;01&#39; AND &#39;1998&#45;01&#45;01&#39;</text>
</g>
<!-- 281426130646544&#45;&gt;281424515961168 -->
<g id="edge22" class="edge">
<title>281426130646544&#45;&gt;281424515961168</title>
<path fill="none" stroke="white" stroke-width="3.42" d="M708,-481.03C708,-492.81 708,-508.44 708,-521.84"/>
<polygon fill="white" stroke="white" stroke-width="3.42" points="708,-522 704.5,-522 708,-532 708,-522"/>
<g id="a_edge22&#45;label"><a xlink:title="Output Expressions: &#10; (1) l_partkey&#10; (2) l_suppkey&#10; (3) l_quantity&#10; (4) l_shipdate&#10;&#10;Unique Column Combinations: &#10; &lt;none&gt;&#10;&#10;Functional Dependencies (trivial): &#10; &lt;none&gt;&#10;&#10;Functional Dependencies (non&#45;trivial): &#10; &lt;none&gt;">
<text text-anchor="middle" x="831.5" y="-502.8" font-family="Times,serif" font-size="14.00" fill="white"> 46,785,116.0 row(s) | 15.6% estd.</text>
</a>
</g>
</g>
<!-- 281426123909712 -->
<g id="node22" class="node">
<title>281426123909712</title>
<polygon fill="none" stroke="white" points="882.5,-392 533.5,-392 533.5,-354 882.5,-354 882.5,-392"/>
<text text-anchor="middle" x="708" y="-376.8" font-family="Times,serif" font-size="14.00" fill="white">[StoredTable] Name: &#39;lineitem&#39; pruned: 0/4578</text>
<text text-anchor="middle" x="708" y="-361.8" font-family="Times,serif" font-size="14.00" fill="white">chunk(s), 12/16 column(s)</text>
</g>
<!-- 281426123909712&#45;&gt;281426130646544 -->
<g id="edge23" class="edge">
<title>281426123909712&#45;&gt;281426130646544</title>
<path fill="none" stroke="white" stroke-width="8" d="M708,-392.03C708,-403.81 708,-419.44 708,-432.84"/>
<polygon fill="white" stroke="white" stroke-width="8" points="701,-433 708,-443 715,-433 701,-433"/>
<g id="a_edge23&#45;label"><a xlink:title="Output Expressions: &#10; (1) l_partkey&#10; (2) l_suppkey&#10; (3) l_quantity&#10; (4) l_shipdate&#10;&#10;Unique Column Combinations: &#10; &lt;none&gt;&#10;&#10;Functional Dependencies (trivial): &#10; &lt;none&gt;&#10;&#10;Functional Dependencies (non&#45;trivial): &#10; &lt;none&gt;">
<text text-anchor="middle" x="840.5" y="-413.8" font-family="Times,serif" font-size="14.00" fill="white"> 300,005,824.0 row(s) | 100.0% estd.</text>
</a>
</g>
</g>
<!-- 281426129785552 -->
<g id="node23" class="node">
<title>281426129785552</title>
<polygon fill="none" stroke="white" points="848.5,-1204 763.5,-1204 763.5,-1168 848.5,-1168 848.5,-1204"/>
<text text-anchor="middle" x="806" y="-1182.3" font-family="Times,serif" font-size="14.00" fill="white">[Validate]</text>
</g>
<!-- 281426129785552&#45;&gt;281426130644240 -->
<g id="edge24" class="edge">
<title>281426129785552&#45;&gt;281426130644240</title>
<path fill="none" stroke="white" d="M797.11,-1204.42C790.83,-1215.16 781.51,-1228.46 770,-1237 762.71,-1242.41 754.53,-1247.02 746.05,-1250.95"/>
<polygon fill="white" stroke="white" points="736.76,-1254.95 747.33,-1254.21 745.95,-1251 736.76,-1254.95"/>
<g id="a_edge24&#45;label"><a xlink:title="Output Expressions: &#10; (1) n_nationkey&#10; (2) n_name&#10;&#10;Unique Column Combinations: &#10; (1) {n_nationkey}&#10;&#10;Functional Dependencies (trivial): &#10; (1) {n_nationkey} =&gt; {n_name}&#10;&#10;Functional Dependencies (non&#45;trivial): &#10; &lt;none&gt;">
<text text-anchor="middle" x="877" y="-1225.8" font-family="Times,serif" font-size="14.00" fill="white"> 1.0 row(s) | 100.0% estd.</text>
</a>
</g>
</g>
<!-- 281426130643472 -->
<g id="node24" class="node">
<title>281426130643472</title>
<polygon fill="none" stroke="white" points="961.5,-1116 734.5,-1116 734.5,-1080 961.5,-1080 961.5,-1116"/>
<text text-anchor="middle" x="848" y="-1094.3" font-family="Times,serif" font-size="14.00" fill="white">[Predicate] n_name = &#39;INDIA&#39;</text>
</g>
<!-- 281426130643472&#45;&gt;281426129785552 -->
<g id="edge25" class="edge">
<title>281426130643472&#45;&gt;281426129785552</title>
<path fill="none" stroke="white" d="M839.5,-1116.4C833.54,-1128.61 825.47,-1145.13 818.74,-1158.91"/>
<polygon fill="white" stroke="white" points="815.59,-1157.39 814.34,-1167.92 821.88,-1160.47 815.59,-1157.39"/>
<g id="a_edge25&#45;label"><a xlink:title="Output Expressions: &#10; (1) n_nationkey&#10; (2) n_name&#10;&#10;Unique Column Combinations: &#10; (1) {n_nationkey}&#10;&#10;Functional Dependencies (trivial): &#10; (1) {n_nationkey} =&gt; {n_name}&#10;&#10;Functional Dependencies (non&#45;trivial): &#10; &lt;none&gt;">
<text text-anchor="middle" x="913" y="-1138.8" font-family="Times,serif" font-size="14.00" fill="white"> 1.0 row(s) | 4.0% estd.</text>
</a>
</g>
</g>
<!-- 281426123931472 -->
<g id="node25" class="node">
<title>281426123931472</title>
<polygon fill="none" stroke="white" points="1037,-1020.5 659,-1020.5 659,-982.5 1037,-982.5 1037,-1020.5"/>
<text text-anchor="middle" x="848" y="-1005.3" font-family="Times,serif" font-size="14.00" fill="white">[StoredTable] Name: &#39;nation&#39; pruned: 0/1 chunk(s),</text>
<text text-anchor="middle" x="848" y="-990.3" font-family="Times,serif" font-size="14.00" fill="white">2/4 column(s)</text>
</g>
<!-- 281426123931472&#45;&gt;281426130643472 -->
<g id="edge26" class="edge">
<title>281426123931472&#45;&gt;281426130643472</title>
<path fill="none" stroke="white" d="M848,-1020.72C848,-1034.58 848,-1053.88 848,-1069.59"/>
<polygon fill="white" stroke="white" points="844.5,-1069.79 848,-1079.79 851.5,-1069.79 844.5,-1069.79"/>
<g id="a_edge26&#45;label"><a xlink:title="Output Expressions: &#10; (1) n_nationkey&#10; (2) n_name&#10;&#10;Unique Column Combinations: &#10; (1) {n_nationkey}&#10;&#10;Functional Dependencies (trivial): &#10; (1) {n_nationkey} =&gt; {n_name}&#10;&#10;Functional Dependencies (non&#45;trivial): &#10; &lt;none&gt;">
<text text-anchor="middle" x="944.5" y="-1049.8" font-family="Times,serif" font-size="14.00" fill="white"> 25.0 row(s) | 100.0% estd.</text>
</a>
</g>
</g>
</g>
</svg>
