<?xml version="1.0" encoding="UTF-8" standalone="no"?>
<!DOCTYPE svg PUBLIC "-//W3C//DTD SVG 1.1//EN"
 "http://www.w3.org/Graphics/SVG/1.1/DTD/svg11.dtd">
<!-- Generated by graphviz version 2.43.0 (0)
 -->
<!-- Title: G Pages: 1 -->
<svg width="718pt" height="1220pt"
 viewBox="0.00 0.00 718.00 1220.00" xmlns="http://www.w3.org/2000/svg" xmlns:xlink="http://www.w3.org/1999/xlink">
<g id="graph0" class="graph" transform="scale(1 1) rotate(0) translate(4 1216)">
<title>G</title>
<polygon fill="black" stroke="transparent" points="-4,4 -4,-1216 714,-1216 714,4 -4,4"/>
<text text-anchor="middle" x="319.5" y="-1196.8" font-family="Times,serif" font-size="14.00" fill="white">For tooltips with advanced information, hover your mouse over vertices or edge labels.</text>
<!-- 281413239506832 -->
<g id="node1" class="node">
<title>281413239506832</title>
<g id="a_node1"><a xlink:title="Output: 46 rows in 1 chunk filtered: 0, 2 µs 784 ns.">
<polygon fill="none" stroke="white" points="258.5,-1157 111.5,-1157 111.5,-1088 258.5,-1088 258.5,-1157"/>
<text text-anchor="middle" x="185" y="-1141.8" font-family="Times,serif" font-size="14.00" fill="white">Alias</text>
<text text-anchor="middle" x="185" y="-1126.8" font-family="Times,serif" font-size="14.00" fill="white">[c_count, custdist]</text>
<text text-anchor="middle" x="185" y="-1095.8" font-family="Times,serif" font-size="14.00" fill="white">2 µs 784 ns</text>
</a>
</g>
</g>
<!-- 281413239506512 -->
<g id="node2" class="node">
<title>281413239506512</title>
<g id="a_node2"><a xlink:title="Output: 46 rows in 1 chunk filtered: 0, 24 µs 64 ns.&#10;Operator step runtimes:&#10; MaterializeSortColumns 10 µs 16 ns&#10; Sort 3 µs 488 ns&#10; TemporaryResultWriting 512 ns&#10; WriteOutput 7 µs 872 ns.">
<polygon fill="none" stroke="white" points="234.5,-1037 135.5,-1037 135.5,-983 234.5,-983 234.5,-1037"/>
<text text-anchor="middle" x="185" y="-1021.8" font-family="Times,serif" font-size="14.00" fill="white">Sort</text>
<text text-anchor="middle" x="185" y="-990.8" font-family="Times,serif" font-size="14.00" fill="white">24 µs 64 ns</text>
</a>
</g>
</g>
<!-- 281413239506512&#45;&gt;281413239506832 -->
<g id="edge1" class="edge">
<title>281413239506512&#45;&gt;281413239506832</title>
<path fill="none" stroke="white" d="M185,-1037.19C185,-1049.29 185,-1064 185,-1077.72"/>
<polygon fill="white" stroke="white" points="181.5,-1077.95 185,-1087.95 188.5,-1077.96 181.5,-1077.95"/>
<text text-anchor="middle" x="258.5" y="-1058.8" font-family="Times,serif" font-size="14.00" fill="white">46 row(s)/1 chunk(s)</text>
</g>
<!-- 281413486709776 -->
<g id="node3" class="node">
<title>281413486709776</title>
<g id="a_node3"><a xlink:title="Output: 46 rows in 1 chunk filtered: 0, 72 ms 5 µs.&#10;Operator step runtimes:&#10; GroupByKeyPartitioning 34 ms 705 µs&#10; Aggregating 37 ms 222 µs&#10; GroupByColumnsWriting 7 µs 744 ns&#10; AggregateColumnsWriting 12 µs 128 ns&#10; OutputWriting 6 µs 304 ns.">
<polygon fill="none" stroke="white" points="308,-932 62,-932 62,-848 308,-848 308,-932"/>
<text text-anchor="middle" x="185" y="-916.8" font-family="Times,serif" font-size="14.00" fill="white">AggregateHash</text>
<text text-anchor="middle" x="185" y="-901.8" font-family="Times,serif" font-size="14.00" fill="white">GroupBy {COUNT(o_orderkey)}</text>
<text text-anchor="middle" x="185" y="-886.8" font-family="Times,serif" font-size="14.00" fill="white">COUNT(*)</text>
<text text-anchor="middle" x="185" y="-855.8" font-family="Times,serif" font-size="14.00" fill="white">72 ms 5 µs</text>
</a>
</g>
</g>
<!-- 281413486709776&#45;&gt;281413239506512 -->
<g id="edge2" class="edge">
<title>281413486709776&#45;&gt;281413239506512</title>
<path fill="none" stroke="white" d="M185,-932.27C185,-945.36 185,-959.72 185,-972.45"/>
<polygon fill="white" stroke="white" points="181.5,-972.69 185,-982.69 188.5,-972.69 181.5,-972.69"/>
<text text-anchor="middle" x="258.5" y="-953.8" font-family="Times,serif" font-size="14.00" fill="white">46 row(s)/1 chunk(s)</text>
</g>
<!-- 281413239506192 -->
<g id="node4" class="node">
<title>281413239506192</title>
<g id="a_node4"><a xlink:title="Output: 7500000 rows in 115 chunks filtered: 0, 37 µs 151 ns.">
<polygon fill="none" stroke="white" points="263.5,-797 106.5,-797 106.5,-728 263.5,-728 263.5,-797"/>
<text text-anchor="middle" x="185" y="-781.8" font-family="Times,serif" font-size="14.00" fill="white">Alias</text>
<text text-anchor="middle" x="185" y="-766.8" font-family="Times,serif" font-size="14.00" fill="white">[c_custkey, c_count]</text>
<text text-anchor="middle" x="185" y="-735.8" font-family="Times,serif" font-size="14.00" fill="white">37 µs 151 ns</text>
</a>
</g>
</g>
<!-- 281413239506192&#45;&gt;281413486709776 -->
<g id="edge3" class="edge">
<title>281413239506192&#45;&gt;281413486709776</title>
<path fill="none" stroke="white" stroke-width="2.27" d="M185,-797.13C185,-809.51 185,-823.84 185,-837.44"/>
<polygon fill="white" stroke="white" stroke-width="2.27" points="181.5,-837.65 185,-847.65 188.5,-837.65 181.5,-837.65"/>
<text text-anchor="middle" x="294.5" y="-818.8" font-family="Times,serif" font-size="14.00" fill="white">7,500,000 row(s)/115 chunk(s)</text>
</g>
<!-- 281413486709264 -->
<g id="node5" class="node">
<title>281413486709264</title>
<g id="a_node5"><a xlink:title="Output: 7500000 rows in 115 chunks filtered: 0, 12 s 4 ms.&#10;Operator step runtimes:&#10; GroupByKeyPartitioning 497 ms 654 µs&#10; Aggregating 11 s 498 ms&#10; GroupByColumnsWriting 6 ms 416 µs&#10; AggregateColumnsWriting 1 ms 39 µs&#10; OutputWriting 77 µs 278 ns.">
<polygon fill="none" stroke="white" stroke-width="8" points="270.5,-677 99.5,-677 99.5,-593 270.5,-593 270.5,-677"/>
<text text-anchor="middle" x="185" y="-661.8" font-family="Times,serif" font-size="14.00" fill="white">AggregateHash</text>
<text text-anchor="middle" x="185" y="-646.8" font-family="Times,serif" font-size="14.00" fill="white">GroupBy {c_custkey}</text>
<text text-anchor="middle" x="185" y="-631.8" font-family="Times,serif" font-size="14.00" fill="white">COUNT(o_orderkey)</text>
<text text-anchor="middle" x="185" y="-600.8" font-family="Times,serif" font-size="14.00" fill="white">12 s 4 ms</text>
</a>
</g>
</g>
<!-- 281413486709264&#45;&gt;281413239506192 -->
<g id="edge4" class="edge">
<title>281413486709264&#45;&gt;281413239506192</title>
<path fill="none" stroke="white" stroke-width="2.27" d="M185,-677.09C185,-690.07 185,-704.45 185,-717.61"/>
<polygon fill="white" stroke="white" stroke-width="2.27" points="181.5,-717.85 185,-727.85 188.5,-717.85 181.5,-717.85"/>
<text text-anchor="middle" x="294.5" y="-698.8" font-family="Times,serif" font-size="14.00" fill="white">7,500,000 row(s)/115 chunk(s)</text>
</g>
<!-- 281413239505552 -->
<g id="node6" class="node">
<title>281413239505552</title>
<g id="a_node6"><a xlink:title="Output: 76691387 rows in 256 chunks filtered: 0, 344 ms 189 µs.&#10;Operator step runtimes:&#10; BuildSideMaterializing 22 ms 850 µs&#10; ProbeSideMaterializing 2 ms 576 µs&#10; Clustering 14 ms 331 µs&#10; Building 202 ms 654 µs&#10; Probing 49 ms 981 µs&#10; OutputWriting 50 ms 443 µs.&#10;Radix bits: 8.&#10;Build side is right.">
<polygon fill="none" stroke="white" points="273,-542 97,-542 97,-473 273,-473 273,-542"/>
<text text-anchor="middle" x="185" y="-526.8" font-family="Times,serif" font-size="14.00" fill="white">JoinHash (Left)</text>
<text text-anchor="middle" x="185" y="-511.8" font-family="Times,serif" font-size="14.00" fill="white">c_custkey = o_custkey</text>
<text text-anchor="middle" x="185" y="-480.8" font-family="Times,serif" font-size="14.00" fill="white">344 ms 189 µs</text>
</a>
</g>
</g>
<!-- 281413239505552&#45;&gt;281413486709264 -->
<g id="edge5" class="edge">
<title>281413239505552&#45;&gt;281413486709264</title>
<path fill="none" stroke="white" stroke-width="8" d="M185,-542.13C185,-554.51 185,-568.84 185,-582.44"/>
<polygon fill="white" stroke="white" stroke-width="8" points="178,-582.65 185,-592.65 192,-582.65 178,-582.65"/>
<text text-anchor="middle" x="299" y="-563.8" font-family="Times,serif" font-size="14.00" fill="white">76,691,387 row(s)/256 chunk(s)</text>
</g>
<!-- 281413486906128 -->
<g id="node7" class="node">
<title>281413486906128</title>
<g id="a_node7"><a xlink:title="Output: 7500000 rows in 115 chunks filtered: 0, 352 µs 345 ns.">
<polygon fill="none" stroke="white" points="121.5,-422 4.5,-422 4.5,-368 121.5,-368 121.5,-422"/>
<text text-anchor="middle" x="63" y="-406.8" font-family="Times,serif" font-size="14.00" fill="white">Validate</text>
<text text-anchor="middle" x="63" y="-375.8" font-family="Times,serif" font-size="14.00" fill="white">352 µs 345 ns</text>
</a>
</g>
</g>
<!-- 281413486906128&#45;&gt;281413239505552 -->
<g id="edge6" class="edge">
<title>281413486906128&#45;&gt;281413239505552</title>
<path fill="none" stroke="white" stroke-width="2.27" d="M55.72,-422.24C54.22,-433.19 54.68,-445.54 61,-455 67.94,-465.4 77.42,-473.71 88.07,-480.34"/>
<polygon fill="white" stroke="white" stroke-width="2.27" points="88.14,-480.37 86.41,-483.42 96.84,-485.3 88.14,-480.37"/>
<text text-anchor="middle" x="170.5" y="-443.8" font-family="Times,serif" font-size="14.00" fill="white">7,500,000 row(s)/115 chunk(s)</text>
</g>
<!-- 281413487166352 -->
<g id="node8" class="node">
<title>281413487166352</title>
<g id="a_node8"><a xlink:title="Output: 7500000 rows in 115 chunks filtered: 0, 259 µs 35 ns.">
<polygon fill="none" stroke="white" points="122,-317 0,-317 0,-203 122,-203 122,-317"/>
<text text-anchor="middle" x="61" y="-301.8" font-family="Times,serif" font-size="14.00" fill="white">GetTable</text>
<text text-anchor="middle" x="61" y="-286.8" font-family="Times,serif" font-size="14.00" fill="white">(customer)</text>
<text text-anchor="middle" x="61" y="-271.8" font-family="Times,serif" font-size="14.00" fill="white">pruned:</text>
<text text-anchor="middle" x="61" y="-256.8" font-family="Times,serif" font-size="14.00" fill="white">0/115 chunk(s)</text>
<text text-anchor="middle" x="61" y="-241.8" font-family="Times,serif" font-size="14.00" fill="white">7/8 column(s)</text>
<text text-anchor="middle" x="61" y="-210.8" font-family="Times,serif" font-size="14.00" fill="white">259 µs 35 ns</text>
</a>
</g>
</g>
<!-- 281413487166352&#45;&gt;281413486906128 -->
<g id="edge7" class="edge">
<title>281413487166352&#45;&gt;281413486906128</title>
<path fill="none" stroke="white" stroke-width="2.27" d="M61.84,-317.02C62.05,-330.77 62.27,-345.14 62.45,-357.69"/>
<polygon fill="white" stroke="white" stroke-width="2.27" points="58.96,-357.8 62.61,-367.75 65.95,-357.7 58.96,-357.8"/>
<text text-anchor="middle" x="171.5" y="-338.8" font-family="Times,serif" font-size="14.00" fill="white">7,500,000 row(s)/115 chunk(s)</text>
</g>
<!-- 281413486905872 -->
<g id="node9" class="node">
<title>281413486905872</title>
<g id="a_node9"><a xlink:title="Output: 74191265 rows in 1145 chunks filtered: 0, 2 ms 51 µs.">
<polygon fill="none" stroke="white" points="353.5,-422 258.5,-422 258.5,-368 353.5,-368 353.5,-422"/>
<text text-anchor="middle" x="306" y="-406.8" font-family="Times,serif" font-size="14.00" fill="white">Validate</text>
<text text-anchor="middle" x="306" y="-375.8" font-family="Times,serif" font-size="14.00" fill="white">2 ms 51 µs</text>
</a>
</g>
</g>
<!-- 281413486905872&#45;&gt;281413239505552 -->
<g id="edge8" class="edge">
<title>281413486905872&#45;&gt;281413239505552</title>
<path fill="none" stroke="white" stroke-width="7.92" d="M300.65,-422.3C297.34,-433.39 292.11,-445.83 284,-455 280.31,-459.17 276.2,-463.06 271.81,-466.67"/>
<polygon fill="white" stroke="white" stroke-width="7.92" points="263.64,-472.87 275.8,-472.34 271.61,-466.82 263.64,-472.87"/>
<text text-anchor="middle" x="413.5" y="-443.8" font-family="Times,serif" font-size="14.00" fill="white">74,191,265 row(s)/1,145 chunk(s)</text>
</g>
<!-- 281413239504912 -->
<g id="node10" class="node">
<title>281413239504912</title>
<g id="a_node10"><a xlink:title="Output: 74191265 rows in 1145 chunks filtered: 0, 45 ms 737 µs.&#10;Chunks: 0 skipped with no results, &#10;0 skipped with all matching, 0 scanned using binary search.">
<polygon fill="none" stroke="white" points="482.5,-302 139.5,-302 139.5,-218 482.5,-218 482.5,-302"/>
<text text-anchor="middle" x="311" y="-286.8" font-family="Times,serif" font-size="14.00" fill="white">TableScan</text>
<text text-anchor="middle" x="311" y="-271.8" font-family="Times,serif" font-size="14.00" fill="white">Impl: ColumnLike</text>
<text text-anchor="middle" x="311" y="-256.8" font-family="Times,serif" font-size="14.00" fill="white">o_comment NOT LIKE &#39;%unusual%deposits%&#39;</text>
<text text-anchor="middle" x="311" y="-225.8" font-family="Times,serif" font-size="14.00" fill="white">45 ms 737 µs</text>
</a>
</g>
</g>
<!-- 281413239504912&#45;&gt;281413486905872 -->
<g id="edge9" class="edge">
<title>281413239504912&#45;&gt;281413486905872</title>
<path fill="none" stroke="white" stroke-width="7.92" d="M309.45,-302.35C308.78,-320.03 308.01,-340.5 307.37,-357.6"/>
<polygon fill="white" stroke="white" stroke-width="7.92" points="300.44,-357.5 306.99,-367.75 314.29,-358.02 300.44,-357.5"/>
<text text-anchor="middle" x="428.5" y="-338.8" font-family="Times,serif" font-size="14.00" fill="white">74,191,265 row(s)/1,145 chunk(s)</text>
</g>
<!-- 281413487166800 -->
<g id="node11" class="node">
<title>281413487166800</title>
<g id="a_node11"><a xlink:title="Output: 75000000 rows in 1145 chunks filtered: 0, 1 ms 529 µs.">
<polygon fill="none" stroke="white" points="376.5,-133 245.5,-133 245.5,-19 376.5,-19 376.5,-133"/>
<text text-anchor="middle" x="311" y="-117.8" font-family="Times,serif" font-size="14.00" fill="white">GetTable</text>
<text text-anchor="middle" x="311" y="-102.8" font-family="Times,serif" font-size="14.00" fill="white">(orders)</text>
<text text-anchor="middle" x="311" y="-87.8" font-family="Times,serif" font-size="14.00" fill="white">pruned:</text>
<text text-anchor="middle" x="311" y="-72.8" font-family="Times,serif" font-size="14.00" fill="white">0/1145 chunk(s)</text>
<text text-anchor="middle" x="311" y="-57.8" font-family="Times,serif" font-size="14.00" fill="white">6/9 column(s)</text>
<text text-anchor="middle" x="311" y="-26.8" font-family="Times,serif" font-size="14.00" fill="white">1 ms 529 µs</text>
</a>
</g>
</g>
<!-- 281413487166800&#45;&gt;281413239504912 -->
<g id="edge10" class="edge">
<title>281413487166800&#45;&gt;281413239504912</title>
<path fill="none" stroke="white" stroke-width="7.95" d="M311,-133.09C311,-156.93 311,-184.53 311,-207.81"/>
<polygon fill="white" stroke="white" stroke-width="7.95" points="304.05,-207.83 311,-217.83 317.95,-207.83 304.05,-207.83"/>
<text text-anchor="middle" x="431.5" y="-173.8" font-family="Times,serif" font-size="14.00" fill="white">75,000,000 row(s)/1,145 chunk(s)</text>
</g>
<!-- 0 -->
<g id="node12" class="node">
<title>0</title>
<polygon fill="none" stroke="white" points="394,-0.5 394,-151.5 710,-151.5 710,-0.5 394,-0.5"/>
<text text-anchor="middle" x="552" y="-136.3" font-family="Times,serif" font-size="14.00" fill="white">Total by operator</text>
<polyline fill="none" stroke="white" points="394,-128.5 710,-128.5 "/>
<text text-anchor="end" x="518" y="-113.3" font-family="Times,serif" font-size="14.00" fill="white">AggregateHash </text>
<text text-anchor="end" x="518" y="-98.3" font-family="Times,serif" font-size="14.00" fill="white"> JoinHash </text>
<text text-anchor="end" x="518" y="-83.3" font-family="Times,serif" font-size="14.00" fill="white"> TableScan </text>
<text text-anchor="end" x="518" y="-68.3" font-family="Times,serif" font-size="14.00" fill="white"> Validate </text>
<text text-anchor="end" x="518" y="-53.3" font-family="Times,serif" font-size="14.00" fill="white"> GetTable </text>
<text text-anchor="end" x="518" y="-38.3" font-family="Times,serif" font-size="14.00" fill="white"> Alias </text>
<text text-anchor="end" x="518" y="-23.3" font-family="Times,serif" font-size="14.00" fill="white"> Sort </text>
<text text-anchor="end" x="518" y="-8.3" font-family="Times,serif" font-size="14.00" fill="white">total</text>
<polyline fill="none" stroke="white" points="526,-0.5 526,-128.5 "/>
<text text-anchor="start" x="534" y="-113.3" font-family="Times,serif" font-size="14.00" fill="white">12 s 76 ms </text>
<text text-anchor="start" x="534" y="-98.3" font-family="Times,serif" font-size="14.00" fill="white"> 344 ms 189 µs </text>
<text text-anchor="start" x="534" y="-83.3" font-family="Times,serif" font-size="14.00" fill="white"> 45 ms 737 µs </text>
<text text-anchor="start" x="534" y="-68.3" font-family="Times,serif" font-size="14.00" fill="white"> 2 ms 403 µs </text>
<text text-anchor="start" x="534" y="-53.3" font-family="Times,serif" font-size="14.00" fill="white"> 1 ms 789 µs </text>
<text text-anchor="start" x="534" y="-38.3" font-family="Times,serif" font-size="14.00" fill="white"> 39 µs 935 ns </text>
<text text-anchor="start" x="534" y="-23.3" font-family="Times,serif" font-size="14.00" fill="white"> 24 µs 64 ns </text>
<text text-anchor="start" x="534" y="-8.3" font-family="Times,serif" font-size="14.00" fill="white"> 12 s 470 ms </text>
<polyline fill="none" stroke="white" points="657,-0.5 657,-128.5 "/>
<text text-anchor="start" x="665" y="-113.3" font-family="Times,serif" font-size="14.00" fill="white">97 %</text>
<text text-anchor="start" x="665" y="-98.3" font-family="Times,serif" font-size="14.00" fill="white">3 %</text>
<text text-anchor="start" x="665" y="-83.3" font-family="Times,serif" font-size="14.00" fill="white">0 %</text>
<text text-anchor="start" x="665" y="-68.3" font-family="Times,serif" font-size="14.00" fill="white">0 %</text>
<text text-anchor="start" x="665" y="-53.3" font-family="Times,serif" font-size="14.00" fill="white">0 %</text>
<text text-anchor="start" x="665" y="-38.3" font-family="Times,serif" font-size="14.00" fill="white">0 %</text>
<text text-anchor="start" x="665" y="-23.3" font-family="Times,serif" font-size="14.00" fill="white">0 %</text>
<text text-anchor="start" x="665" y="-8.3" font-family="Times,serif" font-size="14.00" fill="white"> </text>
</g>
</g>
</svg>
