<?xml version="1.0" encoding="UTF-8" standalone="no"?>
<!DOCTYPE svg PUBLIC "-//W3C//DTD SVG 1.1//EN"
 "http://www.w3.org/Graphics/SVG/1.1/DTD/svg11.dtd">
<!-- Generated by graphviz version 2.43.0 (0)
 -->
<!-- Title: G Pages: 1 -->
<svg width="1362pt" height="2615pt"
 viewBox="0.00 0.00 1362.00 2615.00" xmlns="http://www.w3.org/2000/svg" xmlns:xlink="http://www.w3.org/1999/xlink">
<g id="graph0" class="graph" transform="scale(1 1) rotate(0) translate(4 2611)">
<title>G</title>
<polygon fill="black" stroke="transparent" points="-4,4 -4,-2611 1358,-2611 1358,4 -4,4"/>
<text text-anchor="middle" x="319.5" y="-2591.8" font-family="Times,serif" font-size="14.00" fill="white">For tooltips with advanced information, hover your mouse over vertices or edge labels.</text>
<!-- 281435343635344 -->
<g id="node1" class="node">
<title>281435343635344</title>
<g id="a_node1"><a xlink:title="Output: 5 rows in 1 chunk filtered: 0, 2 µs 528 ns.">
<polygon fill="none" stroke="white" points="790,-2552 641,-2552 641,-2483 790,-2483 790,-2552"/>
<text text-anchor="middle" x="715.5" y="-2536.8" font-family="Times,serif" font-size="14.00" fill="white">Alias</text>
<text text-anchor="middle" x="715.5" y="-2521.8" font-family="Times,serif" font-size="14.00" fill="white">[n_name, revenue]</text>
<text text-anchor="middle" x="715.5" y="-2490.8" font-family="Times,serif" font-size="14.00" fill="white">2 µs 528 ns</text>
</a>
</g>
</g>
<!-- 281435343635024 -->
<g id="node2" class="node">
<title>281435343635024</title>
<g id="a_node2"><a xlink:title="Output: 5 rows in 1 chunk filtered: 0, 11 µs 424 ns.&#10;Operator step runtimes:&#10; MaterializeSortColumns 2 µs 304 ns&#10; Sort 1 µs 408 ns&#10; TemporaryResultWriting 320 ns&#10; WriteOutput 5 µs 344 ns.">
<polygon fill="none" stroke="white" points="769.5,-2432 661.5,-2432 661.5,-2378 769.5,-2378 769.5,-2432"/>
<text text-anchor="middle" x="715.5" y="-2416.8" font-family="Times,serif" font-size="14.00" fill="white">Sort</text>
<text text-anchor="middle" x="715.5" y="-2385.8" font-family="Times,serif" font-size="14.00" fill="white">11 µs 424 ns</text>
</a>
</g>
</g>
<!-- 281435343635024&#45;&gt;281435343635344 -->
<g id="edge1" class="edge">
<title>281435343635024&#45;&gt;281435343635344</title>
<path fill="none" stroke="white" d="M715.5,-2432.19C715.5,-2444.29 715.5,-2459 715.5,-2472.72"/>
<polygon fill="white" stroke="white" points="712,-2472.95 715.5,-2482.95 719,-2472.96 712,-2472.95"/>
<text text-anchor="middle" x="784.5" y="-2453.8" font-family="Times,serif" font-size="14.00" fill="white">5 row(s)/1 chunk(s)</text>
</g>
<!-- 281435248853008 -->
<g id="node3" class="node">
<title>281435248853008</title>
<g id="a_node3"><a xlink:title="Output: 5 rows in 1 chunk filtered: 0, 13 ms 174 µs.&#10;Operator step runtimes:&#10; GroupByKeyPartitioning 10 ms 56 µs&#10; Aggregating 3 ms 91 µs&#10; GroupByColumnsWriting 4 µs 672 ns&#10; AggregateColumnsWriting 6 µs 688 ns&#10; OutputWriting 4 µs 128 ns.">
<polygon fill="none" stroke="white" stroke-width="1.58" points="864,-2327 567,-2327 567,-2243 864,-2243 864,-2327"/>
<text text-anchor="middle" x="715.5" y="-2311.8" font-family="Times,serif" font-size="14.00" fill="white">AggregateHash</text>
<text text-anchor="middle" x="715.5" y="-2296.8" font-family="Times,serif" font-size="14.00" fill="white">GroupBy {n_name}</text>
<text text-anchor="middle" x="715.5" y="-2281.8" font-family="Times,serif" font-size="14.00" fill="white">SUM(l_extendedprice * (1 &#45; l_discount))</text>
<text text-anchor="middle" x="715.5" y="-2250.8" font-family="Times,serif" font-size="14.00" fill="white">13 ms 174 µs</text>
</a>
</g>
</g>
<!-- 281435248853008&#45;&gt;281435343635024 -->
<g id="edge2" class="edge">
<title>281435248853008&#45;&gt;281435343635024</title>
<path fill="none" stroke="white" d="M715.5,-2327.27C715.5,-2340.36 715.5,-2354.72 715.5,-2367.45"/>
<polygon fill="white" stroke="white" points="712,-2367.69 715.5,-2377.69 719,-2367.69 712,-2367.69"/>
<text text-anchor="middle" x="784.5" y="-2348.8" font-family="Times,serif" font-size="14.00" fill="white">5 row(s)/1 chunk(s)</text>
</g>
<!-- 281435343634704 -->
<g id="node4" class="node">
<title>281435343634704</title>
<g id="a_node4"><a xlink:title="Output: 363725 rows in 64 chunks filtered: 0, 36 ms 998 µs.&#10;Operator step runtimes:&#10; ForwardUnmodifiedColumns 49 µs 280 ns&#10; EvaluateNewColumns 36 ms 819 µs&#10; BuildOutput 108 µs 737 ns.">
<polygon fill="none" stroke="white" stroke-width="4.13" points="772,-2192 659,-2192 659,-2138 772,-2138 772,-2192"/>
<text text-anchor="middle" x="715.5" y="-2176.8" font-family="Times,serif" font-size="14.00" fill="white">Projection</text>
<text text-anchor="middle" x="715.5" y="-2145.8" font-family="Times,serif" font-size="14.00" fill="white">36 ms 998 µs</text>
</a>
</g>
</g>
<!-- 281435343634704&#45;&gt;281435248853008 -->
<g id="edge3" class="edge">
<title>281435343634704&#45;&gt;281435248853008</title>
<path fill="none" stroke="white" d="M715.5,-2192.19C715.5,-2204.1 715.5,-2218.63 715.5,-2232.58"/>
<polygon fill="white" stroke="white" points="712,-2232.59 715.5,-2242.59 719,-2232.59 712,-2232.59"/>
<text text-anchor="middle" x="813.5" y="-2213.8" font-family="Times,serif" font-size="14.00" fill="white">363,725 row(s)/64 chunk(s)</text>
</g>
<!-- 281435343634384 -->
<g id="node5" class="node">
<title>281435343634384</title>
<g id="a_node5"><a xlink:title="Output: 363725 rows in 64 chunks filtered: 0, 5 ms 715 µs.&#10;Chunks: 0 skipped with no results, &#10;0 skipped with all matching, 0 scanned using binary search.">
<polygon fill="none" stroke="white" points="818.5,-2087 612.5,-2087 612.5,-2003 818.5,-2003 818.5,-2087"/>
<text text-anchor="middle" x="715.5" y="-2071.8" font-family="Times,serif" font-size="14.00" fill="white">TableScan</text>
<text text-anchor="middle" x="715.5" y="-2056.8" font-family="Times,serif" font-size="14.00" fill="white">Impl: ColumnVsColumn</text>
<text text-anchor="middle" x="715.5" y="-2041.8" font-family="Times,serif" font-size="14.00" fill="white">c_nationkey = s_nationkey</text>
<text text-anchor="middle" x="715.5" y="-2010.8" font-family="Times,serif" font-size="14.00" fill="white">5 ms 715 µs</text>
</a>
</g>
</g>
<!-- 281435343634384&#45;&gt;281435343634704 -->
<g id="edge4" class="edge">
<title>281435343634384&#45;&gt;281435343634704</title>
<path fill="none" stroke="white" d="M715.5,-2087.27C715.5,-2100.36 715.5,-2114.72 715.5,-2127.45"/>
<polygon fill="white" stroke="white" points="712,-2127.69 715.5,-2137.69 719,-2127.69 712,-2127.69"/>
<text text-anchor="middle" x="813.5" y="-2108.8" font-family="Times,serif" font-size="14.00" fill="white">363,725 row(s)/64 chunk(s)</text>
</g>
<!-- 281435343634064 -->
<g id="node6" class="node">
<title>281435343634064</title>
<g id="a_node6"><a xlink:title="Output: 9092789 rows in 64 chunks filtered: 0, 98 ms 349 µs.&#10;Operator step runtimes:&#10; BuildSideMaterializing 2 ms 560 µs&#10; ProbeSideMaterializing 58 ms 539 µs&#10; Clustering 2 ms 857 µs&#10; Building 11 ms 45 µs&#10; Probing 14 ms 858 µs&#10; OutputWriting 8 ms 3 µs.&#10;Radix bits: 6.&#10;Build side is right.">
<polygon fill="none" stroke="white" stroke-width="6.54" points="803.5,-1952 627.5,-1952 627.5,-1883 803.5,-1883 803.5,-1952"/>
<text text-anchor="middle" x="715.5" y="-1936.8" font-family="Times,serif" font-size="14.00" fill="white">JoinHash (Inner)</text>
<text text-anchor="middle" x="715.5" y="-1921.8" font-family="Times,serif" font-size="14.00" fill="white">o_custkey = c_custkey</text>
<text text-anchor="middle" x="715.5" y="-1890.8" font-family="Times,serif" font-size="14.00" fill="white">98 ms 349 µs</text>
</a>
</g>
</g>
<!-- 281435343634064&#45;&gt;281435343634384 -->
<g id="edge5" class="edge">
<title>281435343634064&#45;&gt;281435343634384</title>
<path fill="none" stroke="white" d="M715.5,-1952.13C715.5,-1964.51 715.5,-1978.84 715.5,-1992.44"/>
<polygon fill="white" stroke="white" points="712,-1992.65 715.5,-2002.65 719,-1992.65 712,-1992.65"/>
<text text-anchor="middle" x="820.5" y="-1973.8" font-family="Times,serif" font-size="14.00" fill="white">9,092,789 row(s)/64 chunk(s)</text>
</g>
<!-- 281435343633744 -->
<g id="node7" class="node">
<title>281435343633744</title>
<g id="a_node7"><a xlink:title="Output: 9092789 rows in 16 chunks filtered: 0, 177 ms 727 µs.&#10;Operator step runtimes:&#10; BuildSideMaterializing 67 ms 127 µs&#10; ProbeSideMaterializing 19 ms 291 µs&#10; Clustering 3 ms 484 µs&#10; Building 43 ms 572 µs&#10; Probing 31 ms 662 µs&#10; OutputWriting 12 ms 362 µs.&#10;Radix bits: 6.&#10;Build side is left.">
<polygon fill="none" stroke="white" stroke-width="8" points="695,-1832 504,-1832 504,-1763 695,-1763 695,-1832"/>
<text text-anchor="middle" x="599.5" y="-1816.8" font-family="Times,serif" font-size="14.00" fill="white">JoinHash (Inner)</text>
<text text-anchor="middle" x="599.5" y="-1801.8" font-family="Times,serif" font-size="14.00" fill="white">l_orderkey = o_orderkey</text>
<text text-anchor="middle" x="599.5" y="-1770.8" font-family="Times,serif" font-size="14.00" fill="white">177 ms 727 µs</text>
</a>
</g>
</g>
<!-- 281435343633744&#45;&gt;281435343634064 -->
<g id="edge6" class="edge">
<title>281435343633744&#45;&gt;281435343634064</title>
<path fill="none" stroke="white" d="M593.07,-1832.08C592.64,-1843.35 594.21,-1855.45 600.5,-1865 605.43,-1872.48 611.73,-1878.89 618.83,-1884.38"/>
<polygon fill="white" stroke="white" points="619.28,-1884.7 617.29,-1887.57 627.5,-1890.4 619.28,-1884.7"/>
<text text-anchor="middle" x="705.5" y="-1853.8" font-family="Times,serif" font-size="14.00" fill="white">9,092,789 row(s)/16 chunk(s)</text>
</g>
<!-- 281435343633424 -->
<g id="node8" class="node">
<title>281435343633424</title>
<g id="a_node8"><a xlink:title="Output: 9092789 rows in 32 chunks filtered: 0, 107 ms 576 µs.&#10;Operator step runtimes:&#10; BuildSideMaterializing 198 µs 274 ns&#10; ProbeSideMaterializing 89 ms 821 µs&#10; Clustering 0 ns&#10; Building 3 ms 24 µs&#10; Probing 9 ms 586 µs&#10; OutputWriting 4 ms 775 µs.&#10;Radix bits: 0.&#10;Build side is right.">
<polygon fill="none" stroke="white" stroke-width="6.76" points="722.5,-1689.5 540.5,-1689.5 540.5,-1620.5 722.5,-1620.5 722.5,-1689.5"/>
<text text-anchor="middle" x="631.5" y="-1674.3" font-family="Times,serif" font-size="14.00" fill="white">JoinHash (Inner)</text>
<text text-anchor="middle" x="631.5" y="-1659.3" font-family="Times,serif" font-size="14.00" fill="white">l_suppkey = s_suppkey</text>
<text text-anchor="middle" x="631.5" y="-1628.3" font-family="Times,serif" font-size="14.00" fill="white">107 ms 576 µs</text>
</a>
</g>
</g>
<!-- 281435343633424&#45;&gt;281435343633744 -->
<g id="edge7" class="edge">
<title>281435343633424&#45;&gt;281435343633744</title>
<path fill="none" stroke="white" d="M623.84,-1689.65C619.53,-1708.54 614.11,-1732.33 609.48,-1752.66"/>
<polygon fill="white" stroke="white" points="609.43,-1752.88 606.02,-1752.11 607.21,-1762.63 609.43,-1752.88"/>
<text text-anchor="middle" x="720.5" y="-1733.8" font-family="Times,serif" font-size="14.00" fill="white">9,092,789 row(s)/32 chunk(s)</text>
</g>
<!-- 281435248728336 -->
<g id="node9" class="node">
<title>281435248728336</title>
<g id="a_node9"><a xlink:title="Output: 9092789 rows in 32 chunks filtered: 0, 8 ms 789 µs.">
<polygon fill="none" stroke="white" points="683.5,-1547 579.5,-1547 579.5,-1493 683.5,-1493 683.5,-1547"/>
<text text-anchor="middle" x="631.5" y="-1531.8" font-family="Times,serif" font-size="14.00" fill="white">Validate</text>
<text text-anchor="middle" x="631.5" y="-1500.8" font-family="Times,serif" font-size="14.00" fill="white">8 ms 789 µs</text>
</a>
</g>
</g>
<!-- 281435248728336&#45;&gt;281435343633424 -->
<g id="edge8" class="edge">
<title>281435248728336&#45;&gt;281435343633424</title>
<path fill="none" stroke="white" d="M631.5,-1547.28C631.5,-1565.15 631.5,-1589.24 631.5,-1610"/>
<polygon fill="white" stroke="white" points="631.5,-1610.2 628,-1610.2 631.5,-1620.2 631.5,-1610.2"/>
<text text-anchor="middle" x="736.5" y="-1568.8" font-family="Times,serif" font-size="14.00" fill="white">9,092,789 row(s)/32 chunk(s)</text>
</g>
<!-- 281435343633104 -->
<g id="node10" class="node">
<title>281435343633104</title>
<g id="a_node10"><a xlink:title="Output: 9092789 rows in 32 chunks filtered: 0, 150 ms 981 µs.&#10;Operator step runtimes:&#10; BuildSideMaterializing 19 ms 61 µs&#10; ProbeSideMaterializing 63 ms 630 µs&#10; Clustering 21 ms 110 µs&#10; Building 6 ms 544 µs&#10; Probing 29 ms 419 µs&#10; OutputWriting 10 ms 904 µs.&#10;Radix bits: 7.&#10;Build side is right.">
<polygon fill="none" stroke="white" stroke-width="7.6" points="731.5,-1442 523.5,-1442 523.5,-1373 731.5,-1373 731.5,-1442"/>
<text text-anchor="middle" x="627.5" y="-1426.8" font-family="Times,serif" font-size="14.00" fill="white">JoinHash (Semi Reduction)</text>
<text text-anchor="middle" x="627.5" y="-1411.8" font-family="Times,serif" font-size="14.00" fill="white">l_orderkey = o_orderkey</text>
<text text-anchor="middle" x="627.5" y="-1380.8" font-family="Times,serif" font-size="14.00" fill="white">150 ms 981 µs</text>
</a>
</g>
</g>
<!-- 281435343633104&#45;&gt;281435248728336 -->
<g id="edge9" class="edge">
<title>281435343633104&#45;&gt;281435248728336</title>
<path fill="none" stroke="white" d="M628.72,-1442.25C629.19,-1455.07 629.72,-1469.73 630.19,-1482.77"/>
<polygon fill="white" stroke="white" points="626.69,-1482.95 630.55,-1492.81 633.69,-1482.69 626.69,-1482.95"/>
<text text-anchor="middle" x="735.5" y="-1463.8" font-family="Times,serif" font-size="14.00" fill="white">9,092,789 row(s)/32 chunk(s)</text>
</g>
<!-- 281435343632464 -->
<g id="node11" class="node">
<title>281435343632464</title>
<g id="a_node11"><a xlink:title="Output: 59945886 rows in 4578 chunks filtered: 240059925, 108 ms 389 µs.&#10;Operator step runtimes:&#10; BuildSideMaterializing 552 µs 679 ns&#10; ProbeSideMaterializing 77 ms 650 µs&#10; Clustering 0 ns&#10; Building 571 µs 430 ns&#10; Probing 10 ms 205 µs&#10; OutputWriting 10 ms 984 µs.&#10;Radix bits: 0.&#10;Build side is right.">
<polygon fill="none" stroke="white" stroke-width="6.78" points="731.5,-1322 523.5,-1322 523.5,-1253 731.5,-1253 731.5,-1322"/>
<text text-anchor="middle" x="627.5" y="-1306.8" font-family="Times,serif" font-size="14.00" fill="white">JoinHash (Semi Reduction)</text>
<text text-anchor="middle" x="627.5" y="-1291.8" font-family="Times,serif" font-size="14.00" fill="white">l_suppkey = s_suppkey</text>
<text text-anchor="middle" x="627.5" y="-1260.8" font-family="Times,serif" font-size="14.00" fill="white">108 ms 389 µs</text>
</a>
</g>
</g>
<!-- 281435343632464&#45;&gt;281435343633104 -->
<g id="edge10" class="edge">
<title>281435343632464&#45;&gt;281435343633104</title>
<path fill="none" stroke="white" stroke-width="4.03" d="M627.5,-1322.31C627.5,-1334.78 627.5,-1349.1 627.5,-1362.34"/>
<polygon fill="white" stroke="white" stroke-width="4.03" points="627.5,-1362.68 623.98,-1362.68 627.5,-1372.68 627.5,-1362.68"/>
<text text-anchor="middle" x="748" y="-1343.8" font-family="Times,serif" font-size="14.00" fill="white">59,945,886 row(s)/4,578 chunk(s)</text>
</g>
<!-- 281435274483408 -->
<g id="node12" class="node">
<title>281435274483408</title>
<g id="a_node12"><a xlink:title="Output: 300005811 rows in 4578 chunks filtered: 0, 7 ms 243 µs.">
<polygon fill="none" stroke="white" points="574,-1202 443,-1202 443,-1088 574,-1088 574,-1202"/>
<text text-anchor="middle" x="508.5" y="-1186.8" font-family="Times,serif" font-size="14.00" fill="white">GetTable</text>
<text text-anchor="middle" x="508.5" y="-1171.8" font-family="Times,serif" font-size="14.00" fill="white">(lineitem)</text>
<text text-anchor="middle" x="508.5" y="-1156.8" font-family="Times,serif" font-size="14.00" fill="white">pruned:</text>
<text text-anchor="middle" x="508.5" y="-1141.8" font-family="Times,serif" font-size="14.00" fill="white">0/4578 chunk(s)</text>
<text text-anchor="middle" x="508.5" y="-1126.8" font-family="Times,serif" font-size="14.00" fill="white">12/16 column(s)</text>
<text text-anchor="middle" x="508.5" y="-1095.8" font-family="Times,serif" font-size="14.00" fill="white">7 ms 243 µs</text>
</a>
</g>
</g>
<!-- 281435274483408&#45;&gt;281435343632464 -->
<g id="edge11" class="edge">
<title>281435274483408&#45;&gt;281435343632464</title>
<path fill="none" stroke="white" stroke-width="8" d="M499.69,-1202.07C500.36,-1213.7 503.1,-1225.34 509.5,-1235 512.11,-1238.93 515.08,-1242.57 518.35,-1245.92"/>
<polygon fill="white" stroke="white" stroke-width="8" points="518.56,-1246.11 513.85,-1251.28 525.95,-1252.84 518.56,-1246.11"/>
<text text-anchor="middle" x="634.5" y="-1223.8" font-family="Times,serif" font-size="14.00" fill="white">300,005,811 row(s)/4,578 chunk(s)</text>
</g>
<!-- 281435343632144 -->
<g id="node13" class="node">
<title>281435343632144</title>
<g id="a_node13"><a xlink:title="Output: 99918 rows in 8 chunks filtered: 0, 461 µs 93 ns.&#10;Operator step runtimes:&#10; BuildSideMaterializing 10 µs 528 ns&#10; ProbeSideMaterializing 188 µs 258 ns&#10; Clustering 0 ns&#10; Building 1 µs 760 ns&#10; Probing 119 µs 553 ns&#10; OutputWriting 128 µs 162 ns.&#10;Radix bits: 0.&#10;Build side is right.">
<polygon fill="none" stroke="white" points="981,-1179.5 774,-1179.5 774,-1110.5 981,-1110.5 981,-1179.5"/>
<text text-anchor="middle" x="877.5" y="-1164.3" font-family="Times,serif" font-size="14.00" fill="white">JoinHash (Inner)</text>
<text text-anchor="middle" x="877.5" y="-1149.3" font-family="Times,serif" font-size="14.00" fill="white">s_nationkey = n_nationkey</text>
<text text-anchor="middle" x="877.5" y="-1118.3" font-family="Times,serif" font-size="14.00" fill="white">461 µs 93 ns</text>
</a>
</g>
</g>
<!-- 281435343632144&#45;&gt;281435343633424 -->
<g id="edge13" class="edge">
<title>281435343632144&#45;&gt;281435343633424</title>
<path fill="none" stroke="white" d="M925.52,-1179.65C938.66,-1191.05 951.69,-1204.8 960.5,-1220 975.64,-1246.13 974.5,-1256.3 974.5,-1286.5 974.5,-1286.5 974.5,-1286.5 974.5,-1521 974.5,-1621.24 858,-1567.54 762.5,-1598 746.15,-1603.21 729.04,-1609.72 712.78,-1616.42"/>
<polygon fill="white" stroke="white" points="703.32,-1620.39 713.9,-1619.75 712.55,-1616.52 703.32,-1620.39"/>
<text text-anchor="middle" x="1063.5" y="-1403.8" font-family="Times,serif" font-size="14.00" fill="white">99,918 row(s)/8 chunk(s)</text>
</g>
<!-- 281435343632144&#45;&gt;281435343632464 -->
<g id="edge12" class="edge">
<title>281435343632144&#45;&gt;281435343632464</title>
<path fill="none" stroke="white" d="M835.55,-1179.56C808.28,-1201 775.02,-1226.34 759.5,-1235 750.88,-1239.81 741.72,-1244.38 732.4,-1248.66"/>
<polygon fill="white" stroke="white" points="723.04,-1252.85 733.6,-1251.96 732.17,-1248.76 723.04,-1252.85"/>
<text text-anchor="middle" x="868.5" y="-1223.8" font-family="Times,serif" font-size="14.00" fill="white">99,918 row(s)/8 chunk(s)</text>
</g>
<!-- 281435248726544 -->
<g id="node14" class="node">
<title>281435248726544</title>
<g id="a_node14"><a xlink:title="Output: 99918 rows in 8 chunks filtered: 0, 21 µs 121 ns.">
<polygon fill="none" stroke="white" points="1051.5,-1007 943.5,-1007 943.5,-953 1051.5,-953 1051.5,-1007"/>
<text text-anchor="middle" x="997.5" y="-991.8" font-family="Times,serif" font-size="14.00" fill="white">Validate</text>
<text text-anchor="middle" x="997.5" y="-960.8" font-family="Times,serif" font-size="14.00" fill="white">21 µs 121 ns</text>
</a>
</g>
</g>
<!-- 281435248726544&#45;&gt;281435343632144 -->
<g id="edge14" class="edge">
<title>281435248726544&#45;&gt;281435343632144</title>
<path fill="none" stroke="white" d="M978.22,-1007.19C959.39,-1032.77 930.42,-1072.12 908.37,-1102.06"/>
<polygon fill="white" stroke="white" points="908.28,-1102.19 905.46,-1100.11 902.35,-1110.24 908.28,-1102.19"/>
<text text-anchor="middle" x="1029.5" y="-1058.8" font-family="Times,serif" font-size="14.00" fill="white">99,918 row(s)/8 chunk(s)</text>
</g>
<!-- 281435343631824 -->
<g id="node15" class="node">
<title>281435343631824</title>
<g id="a_node15"><a xlink:title="Output: 99918 rows in 8 chunks filtered: 400082, 483 µs 301 ns.&#10;Operator step runtimes:&#10; BuildSideMaterializing 11 µs 872 ns&#10; ProbeSideMaterializing 315 µs 428 ns&#10; Clustering 0 ns&#10; Building 768 ns&#10; Probing 80 µs 417 ns&#10; OutputWriting 40 µs 896 ns.&#10;Radix bits: 0.&#10;Build side is right.">
<polygon fill="none" stroke="white" points="1121.5,-872 913.5,-872 913.5,-803 1121.5,-803 1121.5,-872"/>
<text text-anchor="middle" x="1017.5" y="-856.8" font-family="Times,serif" font-size="14.00" fill="white">JoinHash (Semi Reduction)</text>
<text text-anchor="middle" x="1017.5" y="-841.8" font-family="Times,serif" font-size="14.00" fill="white">s_nationkey = n_nationkey</text>
<text text-anchor="middle" x="1017.5" y="-810.8" font-family="Times,serif" font-size="14.00" fill="white">483 µs 301 ns</text>
</a>
</g>
</g>
<!-- 281435343631824&#45;&gt;281435248726544 -->
<g id="edge15" class="edge">
<title>281435343631824&#45;&gt;281435248726544</title>
<path fill="none" stroke="white" d="M1012.71,-872.15C1009.69,-893.36 1005.79,-920.75 1002.7,-942.48"/>
<polygon fill="white" stroke="white" points="999.2,-942.25 1001.25,-952.65 1006.13,-943.24 999.2,-942.25"/>
<text text-anchor="middle" x="1098.5" y="-893.8" font-family="Times,serif" font-size="14.00" fill="white">99,918 row(s)/8 chunk(s)</text>
</g>
<!-- 281435274483856 -->
<g id="node16" class="node">
<title>281435274483856</title>
<g id="a_node16"><a xlink:title="Output: 500000 rows in 8 chunks filtered: 0, 31 µs 200 ns.">
<polygon fill="none" stroke="white" points="1107,-752 994,-752 994,-638 1107,-638 1107,-752"/>
<text text-anchor="middle" x="1050.5" y="-736.8" font-family="Times,serif" font-size="14.00" fill="white">GetTable</text>
<text text-anchor="middle" x="1050.5" y="-721.8" font-family="Times,serif" font-size="14.00" fill="white">(supplier)</text>
<text text-anchor="middle" x="1050.5" y="-706.8" font-family="Times,serif" font-size="14.00" fill="white">pruned:</text>
<text text-anchor="middle" x="1050.5" y="-691.8" font-family="Times,serif" font-size="14.00" fill="white">0/8 chunk(s)</text>
<text text-anchor="middle" x="1050.5" y="-676.8" font-family="Times,serif" font-size="14.00" fill="white">5/7 column(s)</text>
<text text-anchor="middle" x="1050.5" y="-645.8" font-family="Times,serif" font-size="14.00" fill="white">31 µs 200 ns</text>
</a>
</g>
</g>
<!-- 281435274483856&#45;&gt;281435343631824 -->
<g id="edge16" class="edge">
<title>281435274483856&#45;&gt;281435343631824</title>
<path fill="none" stroke="white" d="M1037.27,-752.34C1034.1,-765.83 1030.76,-780.04 1027.75,-792.86"/>
<polygon fill="white" stroke="white" points="1027.7,-793.07 1024.29,-792.27 1025.41,-802.8 1027.7,-793.07"/>
<text text-anchor="middle" x="1126" y="-773.8" font-family="Times,serif" font-size="14.00" fill="white">500,000 row(s)/8 chunk(s)</text>
</g>
<!-- 281435248721936 -->
<g id="node17" class="node">
<title>281435248721936</title>
<g id="a_node17"><a xlink:title="Output: 5 rows in 1 chunk filtered: 0, 2 µs 720 ns.">
<polygon fill="none" stroke="white" points="923,-722 824,-722 824,-668 923,-668 923,-722"/>
<text text-anchor="middle" x="873.5" y="-706.8" font-family="Times,serif" font-size="14.00" fill="white">Validate</text>
<text text-anchor="middle" x="873.5" y="-675.8" font-family="Times,serif" font-size="14.00" fill="white">2 µs 720 ns</text>
</a>
</g>
</g>
<!-- 281435248721936&#45;&gt;281435343632144 -->
<g id="edge18" class="edge">
<title>281435248721936&#45;&gt;281435343632144</title>
<path fill="none" stroke="white" d="M872.09,-722.03C870.14,-759.26 866.74,-829.84 865.5,-890 863.98,-963.76 869.56,-1049.46 873.61,-1100.08"/>
<polygon fill="white" stroke="white" points="874.45,-1110.33 877.13,-1100.08 873.64,-1100.36 874.45,-1110.33"/>
<text text-anchor="middle" x="934.5" y="-893.8" font-family="Times,serif" font-size="14.00" fill="white">5 row(s)/1 chunk(s)</text>
</g>
<!-- 281435248721936&#45;&gt;281435343631824 -->
<g id="edge17" class="edge">
<title>281435248721936&#45;&gt;281435343631824</title>
<path fill="none" stroke="white" d="M871.11,-722.1C870.76,-741.45 873.43,-767.41 887.5,-785 892.51,-791.26 898.4,-796.77 904.84,-801.61"/>
<polygon fill="white" stroke="white" points="913.29,-807.38 907.01,-798.85 905.04,-801.74 913.29,-807.38"/>
<text text-anchor="middle" x="956.5" y="-773.8" font-family="Times,serif" font-size="14.00" fill="white">5 row(s)/1 chunk(s)</text>
</g>
<!-- 281435343631504 -->
<g id="node18" class="node">
<title>281435343631504</title>
<g id="a_node18"><a xlink:title="Output: 5 rows in 1 chunk filtered: 20, 56 µs 833 ns.&#10;Operator step runtimes:&#10; BuildSideMaterializing 23 µs 680 ns&#10; ProbeSideMaterializing 12 µs 65 ns&#10; Clustering 0 ns&#10; Building 1 µs 792 ns&#10; Probing 1 µs 760 ns&#10; OutputWriting 7 µs 968 ns.&#10;Radix bits: 0.&#10;Build side is right.">
<polygon fill="none" stroke="white" points="977.5,-587 769.5,-587 769.5,-518 977.5,-518 977.5,-587"/>
<text text-anchor="middle" x="873.5" y="-571.8" font-family="Times,serif" font-size="14.00" fill="white">JoinHash (Semi)</text>
<text text-anchor="middle" x="873.5" y="-556.8" font-family="Times,serif" font-size="14.00" fill="white">n_regionkey = r_regionkey</text>
<text text-anchor="middle" x="873.5" y="-525.8" font-family="Times,serif" font-size="14.00" fill="white">56 µs 833 ns</text>
</a>
</g>
</g>
<!-- 281435343631504&#45;&gt;281435248721936 -->
<g id="edge19" class="edge">
<title>281435343631504&#45;&gt;281435248721936</title>
<path fill="none" stroke="white" d="M873.5,-587.15C873.5,-608.36 873.5,-635.75 873.5,-657.48"/>
<polygon fill="white" stroke="white" points="870,-657.65 873.5,-667.65 877,-657.65 870,-657.65"/>
<text text-anchor="middle" x="942.5" y="-608.8" font-family="Times,serif" font-size="14.00" fill="white">5 row(s)/1 chunk(s)</text>
</g>
<!-- 281435274484304 -->
<g id="node19" class="node">
<title>281435274484304</title>
<g id="a_node19"><a xlink:title="Output: 25 rows in 1 chunk filtered: 0, 10 µs 592 ns.">
<polygon fill="none" stroke="white" points="845,-467 732,-467 732,-353 845,-353 845,-467"/>
<text text-anchor="middle" x="788.5" y="-451.8" font-family="Times,serif" font-size="14.00" fill="white">GetTable</text>
<text text-anchor="middle" x="788.5" y="-436.8" font-family="Times,serif" font-size="14.00" fill="white">(nation)</text>
<text text-anchor="middle" x="788.5" y="-421.8" font-family="Times,serif" font-size="14.00" fill="white">pruned:</text>
<text text-anchor="middle" x="788.5" y="-406.8" font-family="Times,serif" font-size="14.00" fill="white">0/1 chunk(s)</text>
<text text-anchor="middle" x="788.5" y="-391.8" font-family="Times,serif" font-size="14.00" fill="white">1/4 column(s)</text>
<text text-anchor="middle" x="788.5" y="-360.8" font-family="Times,serif" font-size="14.00" fill="white">10 µs 592 ns</text>
</a>
</g>
</g>
<!-- 281435274484304&#45;&gt;281435343631504 -->
<g id="edge20" class="edge">
<title>281435274484304&#45;&gt;281435343631504</title>
<path fill="none" stroke="white" d="M780.77,-467.38C781.46,-478.74 783.93,-490.19 789.5,-500 791.64,-503.77 794.17,-507.29 797.01,-510.59"/>
<polygon fill="white" stroke="white" points="797.13,-510.71 794.62,-513.15 804.11,-517.86 797.13,-510.71"/>
<text text-anchor="middle" x="863" y="-488.8" font-family="Times,serif" font-size="14.00" fill="white">25 row(s)/1 chunk(s)</text>
</g>
<!-- 281435248724496 -->
<g id="node20" class="node">
<title>281435248724496</title>
<g id="a_node20"><a xlink:title="Output: 1 row in 1 chunk filtered: 0, 6 µs 432 ns.">
<polygon fill="none" stroke="white" points="1008,-437 909,-437 909,-383 1008,-383 1008,-437"/>
<text text-anchor="middle" x="958.5" y="-421.8" font-family="Times,serif" font-size="14.00" fill="white">Validate</text>
<text text-anchor="middle" x="958.5" y="-390.8" font-family="Times,serif" font-size="14.00" fill="white">6 µs 432 ns</text>
</a>
</g>
</g>
<!-- 281435248724496&#45;&gt;281435343631504 -->
<g id="edge21" class="edge">
<title>281435248724496&#45;&gt;281435343631504</title>
<path fill="none" stroke="white" d="M956.43,-437.26C953.95,-455.96 948.5,-481.03 936.5,-500 934.21,-503.63 931.57,-507.12 928.7,-510.45"/>
<polygon fill="white" stroke="white" points="921.66,-517.95 931.06,-513.06 928.51,-510.66 921.66,-517.95"/>
<text text-anchor="middle" x="1011.5" y="-488.8" font-family="Times,serif" font-size="14.00" fill="white">1 row(s)/1 chunk(s)</text>
</g>
<!-- 281435343631184 -->
<g id="node21" class="node">
<title>281435343631184</title>
<g id="a_node21"><a xlink:title="Output: 1 row in 1 chunk filtered: 0, 15 µs 104 ns.&#10;Chunks: 0 skipped with no results, &#10;0 skipped with all matching, 0 scanned using binary search.">
<polygon fill="none" stroke="white" points="1043,-302 874,-302 874,-218 1043,-218 1043,-302"/>
<text text-anchor="middle" x="958.5" y="-286.8" font-family="Times,serif" font-size="14.00" fill="white">TableScan</text>
<text text-anchor="middle" x="958.5" y="-271.8" font-family="Times,serif" font-size="14.00" fill="white">Impl: ColumnVsValue</text>
<text text-anchor="middle" x="958.5" y="-256.8" font-family="Times,serif" font-size="14.00" fill="white">r_name = &#39;AMERICA&#39;</text>
<text text-anchor="middle" x="958.5" y="-225.8" font-family="Times,serif" font-size="14.00" fill="white">15 µs 104 ns</text>
</a>
</g>
</g>
<!-- 281435343631184&#45;&gt;281435248724496 -->
<g id="edge22" class="edge">
<title>281435343631184&#45;&gt;281435248724496</title>
<path fill="none" stroke="white" d="M958.5,-302.23C958.5,-324.32 958.5,-351.31 958.5,-372.62"/>
<polygon fill="white" stroke="white" points="955,-372.88 958.5,-382.88 962,-372.88 955,-372.88"/>
<text text-anchor="middle" x="1027.5" y="-323.8" font-family="Times,serif" font-size="14.00" fill="white">1 row(s)/1 chunk(s)</text>
</g>
<!-- 281435274484752 -->
<g id="node22" class="node">
<title>281435274484752</title>
<g id="a_node22"><a xlink:title="Output: 5 rows in 1 chunk filtered: 0, 14 µs 80 ns.">
<polygon fill="none" stroke="white" points="1015,-140.5 902,-140.5 902,-26.5 1015,-26.5 1015,-140.5"/>
<text text-anchor="middle" x="958.5" y="-125.3" font-family="Times,serif" font-size="14.00" fill="white">GetTable</text>
<text text-anchor="middle" x="958.5" y="-110.3" font-family="Times,serif" font-size="14.00" fill="white">(region)</text>
<text text-anchor="middle" x="958.5" y="-95.3" font-family="Times,serif" font-size="14.00" fill="white">pruned:</text>
<text text-anchor="middle" x="958.5" y="-80.3" font-family="Times,serif" font-size="14.00" fill="white">0/1 chunk(s)</text>
<text text-anchor="middle" x="958.5" y="-65.3" font-family="Times,serif" font-size="14.00" fill="white">1/3 column(s)</text>
<text text-anchor="middle" x="958.5" y="-34.3" font-family="Times,serif" font-size="14.00" fill="white">14 µs 80 ns</text>
</a>
</g>
</g>
<!-- 281435274484752&#45;&gt;281435343631184 -->
<g id="edge23" class="edge">
<title>281435274484752&#45;&gt;281435343631184</title>
<path fill="none" stroke="white" d="M958.5,-140.67C958.5,-162.25 958.5,-186.74 958.5,-207.83"/>
<polygon fill="white" stroke="white" points="955,-207.87 958.5,-217.87 962,-207.87 955,-207.87"/>
<text text-anchor="middle" x="1027.5" y="-188.8" font-family="Times,serif" font-size="14.00" fill="white">5 row(s)/1 chunk(s)</text>
</g>
<!-- 281435248727568 -->
<g id="node23" class="node">
<title>281435248727568</title>
<g id="a_node23"><a xlink:title="Output: 11380211 rows in 1145 chunks filtered: 0, 1 ms 881 µs.">
<polygon fill="none" stroke="white" points="372.5,-1314.5 268.5,-1314.5 268.5,-1260.5 372.5,-1260.5 372.5,-1314.5"/>
<text text-anchor="middle" x="320.5" y="-1299.3" font-family="Times,serif" font-size="14.00" fill="white">Validate</text>
<text text-anchor="middle" x="320.5" y="-1268.3" font-family="Times,serif" font-size="14.00" fill="white">1 ms 881 µs</text>
</a>
</g>
</g>
<!-- 281435248727568&#45;&gt;281435343633744 -->
<g id="edge25" class="edge">
<title>281435248727568&#45;&gt;281435343633744</title>
<path fill="none" stroke="white" d="M320.5,-1314.75C320.5,-1338.66 320.5,-1374.95 320.5,-1406.5 320.5,-1406.5 320.5,-1406.5 320.5,-1656 320.5,-1736.74 414.86,-1771.09 493.83,-1785.7"/>
<polygon fill="white" stroke="white" points="503.87,-1787.47 494.63,-1782.29 494.03,-1785.73 503.87,-1787.47"/>
<text text-anchor="middle" x="441" y="-1516.3" font-family="Times,serif" font-size="14.00" fill="white">11,380,211 row(s)/1,145 chunk(s)</text>
</g>
<!-- 281435248727568&#45;&gt;281435343633104 -->
<g id="edge24" class="edge">
<title>281435248727568&#45;&gt;281435343633104</title>
<path fill="none" stroke="white" d="M338.56,-1314.63C349.65,-1328.7 365.04,-1345.15 382.5,-1355 422.09,-1377.35 470.24,-1390.03 513.33,-1397.21"/>
<polygon fill="white" stroke="white" points="523.3,-1398.8 513.97,-1393.77 513.43,-1397.23 523.3,-1398.8"/>
<text text-anchor="middle" x="503" y="-1343.8" font-family="Times,serif" font-size="14.00" fill="white">11,380,211 row(s)/1,145 chunk(s)</text>
</g>
<!-- 281435343632784 -->
<g id="node24" class="node">
<title>281435343632784</title>
<g id="a_node24"><a xlink:title="Output: 11380211 rows in 1145 chunks filtered: 0, 3 ms 52 µs.&#10;Chunks: 0 skipped with no results, &#10;0 skipped with all matching, 0 scanned using binary search.">
<polygon fill="none" stroke="white" points="425,-1194.5 0,-1194.5 0,-1095.5 425,-1095.5 425,-1194.5"/>
<text text-anchor="middle" x="212.5" y="-1179.3" font-family="Times,serif" font-size="14.00" fill="white">TableScan</text>
<text text-anchor="middle" x="212.5" y="-1164.3" font-family="Times,serif" font-size="14.00" fill="white">Impl: ColumnBetween</text>
<text text-anchor="middle" x="212.5" y="-1149.3" font-family="Times,serif" font-size="14.00" fill="white">o_orderdate BETWEEN UPPER EXCLUSIVE &#39;1994&#45;01&#45;01&#39;</text>
<text text-anchor="middle" x="212.5" y="-1134.3" font-family="Times,serif" font-size="14.00" fill="white">AND &#39;1995&#45;01&#45;01&#39;</text>
<text text-anchor="middle" x="212.5" y="-1103.3" font-family="Times,serif" font-size="14.00" fill="white">3 ms 52 µs</text>
</a>
</g>
</g>
<!-- 281435343632784&#45;&gt;281435248727568 -->
<g id="edge26" class="edge">
<title>281435343632784&#45;&gt;281435248727568</title>
<path fill="none" stroke="white" d="M224.47,-1194.52C229.45,-1208.51 236.28,-1223.17 245.5,-1235 250.87,-1241.89 257.43,-1248.22 264.4,-1253.89"/>
<polygon fill="white" stroke="white" points="262.67,-1256.96 272.74,-1260.24 266.91,-1251.4 262.67,-1256.96"/>
<text text-anchor="middle" x="366" y="-1223.8" font-family="Times,serif" font-size="14.00" fill="white">11,380,211 row(s)/1,145 chunk(s)</text>
</g>
<!-- 281435274485200 -->
<g id="node25" class="node">
<title>281435274485200</title>
<g id="a_node25"><a xlink:title="Output: 75000000 rows in 1145 chunks filtered: 0, 2 ms 293 µs.">
<polygon fill="none" stroke="white" points="278,-1037 147,-1037 147,-923 278,-923 278,-1037"/>
<text text-anchor="middle" x="212.5" y="-1021.8" font-family="Times,serif" font-size="14.00" fill="white">GetTable</text>
<text text-anchor="middle" x="212.5" y="-1006.8" font-family="Times,serif" font-size="14.00" fill="white">(orders)</text>
<text text-anchor="middle" x="212.5" y="-991.8" font-family="Times,serif" font-size="14.00" fill="white">pruned:</text>
<text text-anchor="middle" x="212.5" y="-976.8" font-family="Times,serif" font-size="14.00" fill="white">0/1145 chunk(s)</text>
<text text-anchor="middle" x="212.5" y="-961.8" font-family="Times,serif" font-size="14.00" fill="white">6/9 column(s)</text>
<text text-anchor="middle" x="212.5" y="-930.8" font-family="Times,serif" font-size="14.00" fill="white">2 ms 293 µs</text>
</a>
</g>
</g>
<!-- 281435274485200&#45;&gt;281435343632784 -->
<g id="edge27" class="edge">
<title>281435274485200&#45;&gt;281435343632784</title>
<path fill="none" stroke="white" stroke-width="4.58" d="M212.5,-1037.1C212.5,-1052.66 212.5,-1069.59 212.5,-1085.3"/>
<polygon fill="white" stroke="white" stroke-width="4.58" points="208.49,-1085.42 212.5,-1095.42 216.51,-1085.42 208.49,-1085.42"/>
<text text-anchor="middle" x="333" y="-1058.8" font-family="Times,serif" font-size="14.00" fill="white">75,000,000 row(s)/1,145 chunk(s)</text>
</g>
<!-- 281435248728848 -->
<g id="node26" class="node">
<title>281435248728848</title>
<g id="a_node26"><a xlink:title="Output: 7500000 rows in 115 chunks filtered: 0, 362 µs 917 ns.">
<polygon fill="none" stroke="white" points="891,-1824.5 774,-1824.5 774,-1770.5 891,-1770.5 891,-1824.5"/>
<text text-anchor="middle" x="832.5" y="-1809.3" font-family="Times,serif" font-size="14.00" fill="white">Validate</text>
<text text-anchor="middle" x="832.5" y="-1778.3" font-family="Times,serif" font-size="14.00" fill="white">362 µs 917 ns</text>
</a>
</g>
</g>
<!-- 281435248728848&#45;&gt;281435343634064 -->
<g id="edge28" class="edge">
<title>281435248728848&#45;&gt;281435343634064</title>
<path fill="none" stroke="white" d="M828.55,-1824.73C825.46,-1837.99 820.02,-1853.62 810.5,-1865 807.13,-1869.03 803.35,-1872.8 799.3,-1876.31"/>
<polygon fill="white" stroke="white" points="791.22,-1882.75 801.22,-1879.26 799.04,-1876.52 791.22,-1882.75"/>
<text text-anchor="middle" x="929" y="-1853.8" font-family="Times,serif" font-size="14.00" fill="white">7,500,000 row(s)/115 chunk(s)</text>
</g>
<!-- 281435274485648 -->
<g id="node27" class="node">
<title>281435274485648</title>
<g id="a_node27"><a xlink:title="Output: 7500000 rows in 115 chunks filtered: 0, 250 µs 18 ns.">
<polygon fill="none" stroke="white" points="893.5,-1712 771.5,-1712 771.5,-1598 893.5,-1598 893.5,-1712"/>
<text text-anchor="middle" x="832.5" y="-1696.8" font-family="Times,serif" font-size="14.00" fill="white">GetTable</text>
<text text-anchor="middle" x="832.5" y="-1681.8" font-family="Times,serif" font-size="14.00" fill="white">(customer)</text>
<text text-anchor="middle" x="832.5" y="-1666.8" font-family="Times,serif" font-size="14.00" fill="white">pruned:</text>
<text text-anchor="middle" x="832.5" y="-1651.8" font-family="Times,serif" font-size="14.00" fill="white">0/115 chunk(s)</text>
<text text-anchor="middle" x="832.5" y="-1636.8" font-family="Times,serif" font-size="14.00" fill="white">6/8 column(s)</text>
<text text-anchor="middle" x="832.5" y="-1605.8" font-family="Times,serif" font-size="14.00" fill="white">250 µs 18 ns</text>
</a>
</g>
</g>
<!-- 281435274485648&#45;&gt;281435248728848 -->
<g id="edge29" class="edge">
<title>281435274485648&#45;&gt;281435248728848</title>
<path fill="none" stroke="white" d="M832.5,-1712.34C832.5,-1728.43 832.5,-1745.54 832.5,-1760.1"/>
<polygon fill="white" stroke="white" points="829,-1760.2 832.5,-1770.2 836,-1760.2 829,-1760.2"/>
<text text-anchor="middle" x="942" y="-1733.8" font-family="Times,serif" font-size="14.00" fill="white">7,500,000 row(s)/115 chunk(s)</text>
</g>
<!-- 0 -->
<g id="node28" class="node">
<title>0</title>
<polygon fill="none" stroke="white" points="1033,-0.5 1033,-166.5 1354,-166.5 1354,-0.5 1033,-0.5"/>
<text text-anchor="middle" x="1193.5" y="-151.3" font-family="Times,serif" font-size="14.00" fill="white">Total by operator</text>
<polyline fill="none" stroke="white" points="1033,-143.5 1354,-143.5 "/>
<text text-anchor="end" x="1162" y="-128.3" font-family="Times,serif" font-size="14.00" fill="white">JoinHash </text>
<text text-anchor="end" x="1162" y="-113.3" font-family="Times,serif" font-size="14.00" fill="white"> Projection </text>
<text text-anchor="end" x="1162" y="-98.3" font-family="Times,serif" font-size="14.00" fill="white"> AggregateHash </text>
<text text-anchor="end" x="1162" y="-83.3" font-family="Times,serif" font-size="14.00" fill="white"> Validate </text>
<text text-anchor="end" x="1162" y="-68.3" font-family="Times,serif" font-size="14.00" fill="white"> GetTable </text>
<text text-anchor="end" x="1162" y="-53.3" font-family="Times,serif" font-size="14.00" fill="white"> TableScan </text>
<text text-anchor="end" x="1162" y="-38.3" font-family="Times,serif" font-size="14.00" fill="white"> Sort </text>
<text text-anchor="end" x="1162" y="-23.3" font-family="Times,serif" font-size="14.00" fill="white"> Alias </text>
<text text-anchor="end" x="1162" y="-8.3" font-family="Times,serif" font-size="14.00" fill="white">total</text>
<polyline fill="none" stroke="white" points="1170,-0.5 1170,-143.5 "/>
<text text-anchor="start" x="1178" y="-128.3" font-family="Times,serif" font-size="14.00" fill="white">644 ms 24 µs </text>
<text text-anchor="start" x="1178" y="-113.3" font-family="Times,serif" font-size="14.00" fill="white"> 36 ms 998 µs </text>
<text text-anchor="start" x="1178" y="-98.3" font-family="Times,serif" font-size="14.00" fill="white"> 13 ms 174 µs </text>
<text text-anchor="start" x="1178" y="-83.3" font-family="Times,serif" font-size="14.00" fill="white"> 11 ms 64 µs </text>
<text text-anchor="start" x="1178" y="-68.3" font-family="Times,serif" font-size="14.00" fill="white"> 9 ms 842 µs </text>
<text text-anchor="start" x="1178" y="-53.3" font-family="Times,serif" font-size="14.00" fill="white"> 8 ms 782 µs </text>
<text text-anchor="start" x="1178" y="-38.3" font-family="Times,serif" font-size="14.00" fill="white"> 11 µs 424 ns </text>
<text text-anchor="start" x="1178" y="-23.3" font-family="Times,serif" font-size="14.00" fill="white"> 2 µs 528 ns </text>
<text text-anchor="start" x="1178" y="-8.3" font-family="Times,serif" font-size="14.00" fill="white"> 723 ms 898 µs </text>
<polyline fill="none" stroke="white" points="1301,-0.5 1301,-143.5 "/>
<text text-anchor="start" x="1309" y="-128.3" font-family="Times,serif" font-size="14.00" fill="white">89 %</text>
<text text-anchor="start" x="1309" y="-113.3" font-family="Times,serif" font-size="14.00" fill="white">5 %</text>
<text text-anchor="start" x="1309" y="-98.3" font-family="Times,serif" font-size="14.00" fill="white">2 %</text>
<text text-anchor="start" x="1309" y="-83.3" font-family="Times,serif" font-size="14.00" fill="white">2 %</text>
<text text-anchor="start" x="1309" y="-68.3" font-family="Times,serif" font-size="14.00" fill="white">1 %</text>
<text text-anchor="start" x="1309" y="-53.3" font-family="Times,serif" font-size="14.00" fill="white">1 %</text>
<text text-anchor="start" x="1309" y="-38.3" font-family="Times,serif" font-size="14.00" fill="white">0 %</text>
<text text-anchor="start" x="1309" y="-23.3" font-family="Times,serif" font-size="14.00" fill="white">0 %</text>
<text text-anchor="start" x="1309" y="-8.3" font-family="Times,serif" font-size="14.00" fill="white"> </text>
</g>
</g>
</svg>
