<?xml version="1.0" encoding="UTF-8" standalone="no"?>
<!DOCTYPE svg PUBLIC "-//W3C//DTD SVG 1.1//EN"
 "http://www.w3.org/Graphics/SVG/1.1/DTD/svg11.dtd">
<!-- Generated by graphviz version 2.43.0 (0)
 -->
<!-- Title: G Pages: 1 -->
<svg width="1388pt" height="1165pt"
 viewBox="0.00 0.00 1388.00 1165.00" xmlns="http://www.w3.org/2000/svg" xmlns:xlink="http://www.w3.org/1999/xlink">
<g id="graph0" class="graph" transform="scale(1 1) rotate(0) translate(4 1161)">
<title>G</title>
<polygon fill="black" stroke="transparent" points="-4,4 -4,-1161 1384,-1161 1384,4 -4,4"/>
<text text-anchor="middle" x="319.5" y="-1141.8" font-family="Times,serif" font-size="14.00" fill="white">For tooltips with advanced information, hover your mouse over vertices or edge labels.</text>
<!-- 139998091421840 -->
<g id="node1" class="node">
<title>139998091421840</title>
<polygon fill="none" stroke="white" points="778.5,-1102 475.5,-1102 475.5,-1064 778.5,-1064 778.5,-1102"/>
<text text-anchor="middle" x="627" y="-1086.8" font-family="Times,serif" font-size="14.00" fill="white">[Alias] ps_partkey, SUM(ps_supplycost *</text>
<text text-anchor="middle" x="627" y="-1071.8" font-family="Times,serif" font-size="14.00" fill="white">ps_availqty) AS value</text>
</g>
<!-- 139998540462480 -->
<g id="node2" class="node">
<title>139998540462480</title>
<polygon fill="none" stroke="white" points="779.5,-1013 474.5,-1013 474.5,-975 779.5,-975 779.5,-1013"/>
<text text-anchor="middle" x="627" y="-997.8" font-family="Times,serif" font-size="14.00" fill="white">[Sort] SUM(ps_supplycost * ps_availqty)</text>
<text text-anchor="middle" x="627" y="-982.8" font-family="Times,serif" font-size="14.00" fill="white">(Descending)</text>
</g>
<!-- 139998540462480&#45;&gt;139998091421840 -->
<g id="edge1" class="edge">
<title>139998540462480&#45;&gt;139998091421840</title>
<path fill="none" stroke="white" d="M627,-1013.03C627,-1024.81 627,-1040.44 627,-1053.84"/>
<polygon fill="white" stroke="white" points="623.5,-1054 627,-1064 630.5,-1054 623.5,-1054"/>
<g id="a_edge1&#45;label"><a xlink:title="Output Expressions: &#10; (1) ps_partkey&#10; (2) SUM(ps_supplycost * ps_availqty) NULL&#10;&#10;Unique Column Combinations: &#10; (1) {ps_partkey}&#10;&#10;Functional Dependencies (trivial): &#10; (1) {ps_partkey} =&gt; {SUM(ps_supplycost * ps_availqty)}&#10;&#10;Functional Dependencies (non&#45;trivial): &#10; &lt;none&gt;">
<text text-anchor="middle" x="744" y="-1034.8" font-family="Times,serif" font-size="14.00" fill="white"> 320,000.0 row(s) | 100.0% estd.</text>
</a>
</g>
</g>
<!-- 139998299571472 -->
<g id="node3" class="node">
<title>139998299571472</title>
<polygon fill="none" stroke="white" points="806.5,-924 447.5,-924 447.5,-886 806.5,-886 806.5,-924"/>
<text text-anchor="middle" x="627" y="-908.8" font-family="Times,serif" font-size="14.00" fill="white">[Predicate] SUM(ps_supplycost * ps_availqty) &gt;</text>
<text text-anchor="middle" x="627" y="-893.8" font-family="Times,serif" font-size="14.00" fill="white">SUBQUERY (LQP, 0x7f53e122a7b0)</text>
</g>
<!-- 139998299571472&#45;&gt;139998540462480 -->
<g id="edge2" class="edge">
<title>139998299571472&#45;&gt;139998540462480</title>
<path fill="none" stroke="white" d="M627,-924.03C627,-935.81 627,-951.44 627,-964.84"/>
<polygon fill="white" stroke="white" points="623.5,-965 627,-975 630.5,-965 623.5,-965"/>
<g id="a_edge2&#45;label"><a xlink:title="Output Expressions: &#10; (1) ps_partkey&#10; (2) SUM(ps_supplycost * ps_availqty) NULL&#10;&#10;Unique Column Combinations: &#10; (1) {ps_partkey}&#10;&#10;Functional Dependencies (trivial): &#10; (1) {ps_partkey} =&gt; {SUM(ps_supplycost * ps_availqty)}&#10;&#10;Functional Dependencies (non&#45;trivial): &#10; &lt;none&gt;">
<text text-anchor="middle" x="744" y="-945.8" font-family="Times,serif" font-size="14.00" fill="white"> 320,000.0 row(s) | 100.0% estd.</text>
</a>
</g>
</g>
<!-- 139998379531600 -->
<g id="node4" class="node">
<title>139998379531600</title>
<polygon fill="none" stroke="white" points="618.5,-835 261.5,-835 261.5,-797 618.5,-797 618.5,-835"/>
<text text-anchor="middle" x="440" y="-819.8" font-family="Times,serif" font-size="14.00" fill="white">[Aggregate] GroupBy: [ps_partkey] Aggregates:</text>
<text text-anchor="middle" x="440" y="-804.8" font-family="Times,serif" font-size="14.00" fill="white">[SUM(ps_supplycost * ps_availqty)]</text>
</g>
<!-- 139998379531600&#45;&gt;139998299571472 -->
<g id="edge3" class="edge">
<title>139998379531600&#45;&gt;139998299571472</title>
<path fill="none" stroke="white" d="M469.37,-835.23C486.66,-845.55 509.16,-858.3 530,-868 540.88,-873.06 552.68,-877.93 564.19,-882.37"/>
<polygon fill="white" stroke="white" points="563.17,-885.72 573.76,-885.99 565.65,-879.18 563.17,-885.72"/>
<g id="a_edge3&#45;label"><a xlink:title="Output Expressions: &#10; (1) ps_partkey&#10; (2) SUM(ps_supplycost * ps_availqty) NULL&#10;&#10;Unique Column Combinations: &#10; (1) {ps_partkey}&#10;&#10;Functional Dependencies (trivial): &#10; (1) {ps_partkey} =&gt; {SUM(ps_supplycost * ps_availqty)}&#10;&#10;Functional Dependencies (non&#45;trivial): &#10; &lt;none&gt;">
<text text-anchor="middle" x="647" y="-856.8" font-family="Times,serif" font-size="14.00" fill="white"> 320,000.0 row(s) | 100.0% estd.</text>
</a>
</g>
</g>
<!-- 139998236157072 -->
<g id="node5" class="node">
<title>139998236157072</title>
<polygon fill="none" stroke="white" points="591,-746 289,-746 289,-708 591,-708 591,-746"/>
<text text-anchor="middle" x="440" y="-730.8" font-family="Times,serif" font-size="14.00" fill="white">[Projection] ps_supplycost * ps_availqty,</text>
<text text-anchor="middle" x="440" y="-715.8" font-family="Times,serif" font-size="14.00" fill="white">ps_partkey</text>
</g>
<!-- 139998236157072&#45;&gt;139998379531600 -->
<g id="edge4" class="edge">
<title>139998236157072&#45;&gt;139998379531600</title>
<path fill="none" stroke="white" d="M440,-746.03C440,-757.81 440,-773.44 440,-786.84"/>
<polygon fill="white" stroke="white" points="436.5,-787 440,-797 443.5,-787 436.5,-787"/>
<g id="a_edge4&#45;label"><a xlink:title="Output Expressions: &#10; (1) ps_supplycost * ps_availqty&#10; (2) ps_partkey&#10;&#10;Unique Column Combinations: &#10; &lt;none&gt;&#10;&#10;Functional Dependencies (trivial): &#10; &lt;none&gt;&#10;&#10;Functional Dependencies (non&#45;trivial): &#10; &lt;none&gt;">
<text text-anchor="middle" x="557" y="-767.8" font-family="Times,serif" font-size="14.00" fill="white"> 320,000.0 row(s) | 100.0% estd.</text>
</a>
</g>
</g>
<!-- 139998236150512 -->
<g id="node6" class="node">
<title>139998236150512</title>
<polygon fill="none" stroke="white" points="482.5,-657 397.5,-657 397.5,-621 482.5,-621 482.5,-657"/>
<text text-anchor="middle" x="440" y="-635.3" font-family="Times,serif" font-size="14.00" fill="white">[Validate]</text>
</g>
<!-- 139998236150512&#45;&gt;139998236157072 -->
<g id="edge5" class="edge">
<title>139998236150512&#45;&gt;139998236157072</title>
<path fill="none" stroke="white" d="M440,-657.4C440,-668.94 440,-684.35 440,-697.64"/>
<polygon fill="white" stroke="white" points="436.5,-697.73 440,-707.73 443.5,-697.73 436.5,-697.73"/>
<g id="a_edge5&#45;label"><a xlink:title="Output Expressions: &#10; (1) ps_partkey&#10; (2) ps_suppkey&#10; (3) ps_availqty&#10; (4) ps_supplycost&#10;&#10;Unique Column Combinations: &#10; (1) {ps_partkey, ps_suppkey}&#10;&#10;Functional Dependencies (trivial): &#10; (1) {ps_partkey, ps_suppkey} =&gt; {ps_availqty, ps_supplycost}&#10;&#10;Functional Dependencies (non&#45;trivial): &#10; &lt;none&gt;">
<text text-anchor="middle" x="557" y="-678.8" font-family="Times,serif" font-size="14.00" fill="white"> 320,000.0 row(s) | 100.0% estd.</text>
</a>
</g>
</g>
<!-- 139956008725968 -->
<g id="node7" class="node">
<title>139956008725968</title>
<polygon fill="none" stroke="white" points="607.5,-570 272.5,-570 272.5,-534 607.5,-534 607.5,-570"/>
<text text-anchor="middle" x="440" y="-548.3" font-family="Times,serif" font-size="14.00" fill="white">[Join] Mode: Semi [ps_suppkey = s_suppkey]</text>
</g>
<!-- 139956008725968&#45;&gt;139998236150512 -->
<g id="edge6" class="edge">
<title>139956008725968&#45;&gt;139998236150512</title>
<path fill="none" stroke="white" d="M440,-570.2C440,-581.84 440,-597.45 440,-610.76"/>
<polygon fill="white" stroke="white" points="436.5,-610.82 440,-620.82 443.5,-610.82 436.5,-610.82"/>
<g id="a_edge6&#45;label"><a xlink:title="Output Expressions: &#10; (1) ps_partkey&#10; (2) ps_suppkey&#10; (3) ps_availqty&#10; (4) ps_supplycost&#10;&#10;Unique Column Combinations: &#10; (1) {ps_partkey, ps_suppkey}&#10;&#10;Functional Dependencies (trivial): &#10; (1) {ps_partkey, ps_suppkey} =&gt; {ps_availqty, ps_supplycost}&#10;&#10;Functional Dependencies (non&#45;trivial): &#10; &lt;none&gt;">
<text text-anchor="middle" x="548" y="-591.8" font-family="Times,serif" font-size="14.00" fill="white"> 320,000.0 row(s) | 4.0% estd.</text>
</a>
</g>
</g>
<!-- 139998237877328 -->
<g id="node8" class="node">
<title>139998237877328</title>
<polygon fill="none" stroke="white" points="346,-483 0,-483 0,-445 346,-445 346,-483"/>
<text text-anchor="middle" x="173" y="-467.8" font-family="Times,serif" font-size="14.00" fill="white">[StoredTable] Name: &#39;partsupp&#39; pruned: 0/123</text>
<text text-anchor="middle" x="173" y="-452.8" font-family="Times,serif" font-size="14.00" fill="white">chunk(s), 1/5 column(s)</text>
</g>
<!-- 139998237877328&#45;&gt;139956008725968 -->
<g id="edge7" class="edge">
<title>139998237877328&#45;&gt;139956008725968</title>
<path fill="none" stroke="white" stroke-width="8" d="M174.69,-483.03C176.72,-494.23 181.19,-507.97 191,-516 203.79,-526.46 230.77,-533.79 262.44,-538.93"/>
<polygon fill="white" stroke="white" stroke-width="8" points="262.52,-538.95 261.46,-545.86 272.41,-540.46 262.52,-538.95"/>
<g id="a_edge7&#45;label"><a xlink:title="Output Expressions: &#10; (1) ps_partkey&#10; (2) ps_suppkey&#10; (3) ps_availqty&#10; (4) ps_supplycost&#10;&#10;Unique Column Combinations: &#10; (1) {ps_partkey, ps_suppkey}&#10;&#10;Functional Dependencies (trivial): &#10; (1) {ps_partkey, ps_suppkey} =&gt; {ps_availqty, ps_supplycost}&#10;&#10;Functional Dependencies (non&#45;trivial): &#10; &lt;none&gt;">
<text text-anchor="middle" x="314.5" y="-504.8" font-family="Times,serif" font-size="14.00" fill="white"> 8,000,000.0 row(s) | 100.0% estd.</text>
</a>
</g>
</g>
<!-- 139998236147632 -->
<g id="node9" class="node">
<title>139998236147632</title>
<polygon fill="none" stroke="white" points="485.5,-482 400.5,-482 400.5,-446 485.5,-446 485.5,-482"/>
<text text-anchor="middle" x="443" y="-460.3" font-family="Times,serif" font-size="14.00" fill="white">[Validate]</text>
</g>
<!-- 139998236147632&#45;&gt;139956008725968 -->
<g id="edge8" class="edge">
<title>139998236147632&#45;&gt;139956008725968</title>
<path fill="none" stroke="white" d="M442.39,-482.4C441.98,-494.25 441.42,-510.18 440.95,-523.71"/>
<polygon fill="white" stroke="white" points="440.6,-533.92 444.44,-524.04 440.94,-523.92 440.6,-533.92"/>
<g id="a_edge8&#45;label"><a xlink:title="Output Expressions: &#10; (1) s_suppkey&#10; (2) s_nationkey&#10;&#10;Unique Column Combinations: &#10; (1) {s_suppkey}&#10;&#10;Functional Dependencies (trivial): &#10; (1) {s_suppkey} =&gt; {s_nationkey}&#10;&#10;Functional Dependencies (non&#45;trivial): &#10; &lt;none&gt;">
<text text-anchor="middle" x="550" y="-504.8" font-family="Times,serif" font-size="14.00" fill="white"> 4,000.0 row(s) | 100.0% estd.</text>
</a>
</g>
</g>
<!-- 139998513994128 -->
<g id="node10" class="node">
<title>139998513994128</title>
<polygon fill="none" stroke="white" points="617.5,-393 268.5,-393 268.5,-357 617.5,-357 617.5,-393"/>
<text text-anchor="middle" x="443" y="-371.3" font-family="Times,serif" font-size="14.00" fill="white">[Join] Mode: Semi [s_nationkey = n_nationkey]</text>
</g>
<!-- 139998513994128&#45;&gt;139998236147632 -->
<g id="edge9" class="edge">
<title>139998513994128&#45;&gt;139998236147632</title>
<path fill="none" stroke="white" d="M443,-393.19C443,-405.34 443,-421.89 443,-435.82"/>
<polygon fill="white" stroke="white" points="439.5,-435.85 443,-445.85 446.5,-435.85 439.5,-435.85"/>
<g id="a_edge9&#45;label"><a xlink:title="Output Expressions: &#10; (1) s_suppkey&#10; (2) s_nationkey&#10;&#10;Unique Column Combinations: &#10; (1) {s_suppkey}&#10;&#10;Functional Dependencies (trivial): &#10; (1) {s_suppkey} =&gt; {s_nationkey}&#10;&#10;Functional Dependencies (non&#45;trivial): &#10; &lt;none&gt;">
<text text-anchor="middle" x="542" y="-415.8" font-family="Times,serif" font-size="14.00" fill="white"> 4,000.0 row(s) | 4.0% estd.</text>
</a>
</g>
</g>
<!-- 139998237877648 -->
<g id="node11" class="node">
<title>139998237877648</title>
<polygon fill="none" stroke="white" points="497,-305 175,-305 175,-267 497,-267 497,-305"/>
<text text-anchor="middle" x="336" y="-289.8" font-family="Times,serif" font-size="14.00" fill="white">[StoredTable] Name: &#39;supplier&#39; pruned: 0/2</text>
<text text-anchor="middle" x="336" y="-274.8" font-family="Times,serif" font-size="14.00" fill="white">chunk(s), 5/7 column(s)</text>
</g>
<!-- 139998237877648&#45;&gt;139998513994128 -->
<g id="edge10" class="edge">
<title>139998237877648&#45;&gt;139998513994128</title>
<path fill="none" stroke="white" d="M331.55,-305.15C330.05,-315.7 330.2,-328.71 337,-338 340.8,-343.2 345.4,-347.65 350.51,-351.47"/>
<polygon fill="white" stroke="white" points="350.57,-351.51 348.66,-354.44 358.95,-356.96 350.57,-351.51"/>
<g id="a_edge10&#45;label"><a xlink:title="Output Expressions: &#10; (1) s_suppkey&#10; (2) s_nationkey&#10;&#10;Unique Column Combinations: &#10; (1) {s_suppkey}&#10;&#10;Functional Dependencies (trivial): &#10; (1) {s_suppkey} =&gt; {s_nationkey}&#10;&#10;Functional Dependencies (non&#45;trivial): &#10; &lt;none&gt;">
<text text-anchor="middle" x="454" y="-326.8" font-family="Times,serif" font-size="14.00" fill="white"> 100,000.0 row(s) | 100.0% estd.</text>
</a>
</g>
</g>
<!-- 139998236158352 -->
<g id="node12" class="node">
<title>139998236158352</title>
<polygon fill="none" stroke="white" points="635.5,-304 550.5,-304 550.5,-268 635.5,-268 635.5,-304"/>
<text text-anchor="middle" x="593" y="-282.3" font-family="Times,serif" font-size="14.00" fill="white">[Validate]</text>
</g>
<!-- 139998236158352&#45;&gt;139998513994128 -->
<g id="edge11" class="edge">
<title>139998236158352&#45;&gt;139998513994128</title>
<path fill="none" stroke="white" d="M589.54,-304.42C586.46,-315.51 580.87,-329.36 571,-338 564.44,-343.74 557.02,-348.58 549.15,-352.64"/>
<polygon fill="white" stroke="white" points="540.09,-356.91 550.63,-355.81 549.14,-352.65 540.09,-356.91"/>
<g id="a_edge11&#45;label"><a xlink:title="Output Expressions: &#10; (1) n_nationkey&#10; (2) n_name&#10;&#10;Unique Column Combinations: &#10; (1) {n_nationkey}&#10;&#10;Functional Dependencies (trivial): &#10; (1) {n_nationkey} =&gt; {n_name}&#10;&#10;Functional Dependencies (non&#45;trivial): &#10; &lt;none&gt;">
<text text-anchor="middle" x="674" y="-326.8" font-family="Times,serif" font-size="14.00" fill="white"> 1.0 row(s) | 100.0% estd.</text>
</a>
</g>
</g>
<!-- 139951214894096 -->
<g id="node13" class="node">
<title>139951214894096</title>
<polygon fill="none" stroke="white" points="710,-215 476,-215 476,-179 710,-179 710,-215"/>
<text text-anchor="middle" x="593" y="-193.3" font-family="Times,serif" font-size="14.00" fill="white">[Predicate] n_name = &#39;KENYA&#39;</text>
</g>
<!-- 139951214894096&#45;&gt;139998236158352 -->
<g id="edge12" class="edge">
<title>139951214894096&#45;&gt;139998236158352</title>
<path fill="none" stroke="white" d="M593,-215.19C593,-227.34 593,-243.89 593,-257.82"/>
<polygon fill="white" stroke="white" points="589.5,-257.85 593,-267.85 596.5,-257.85 589.5,-257.85"/>
<g id="a_edge12&#45;label"><a xlink:title="Output Expressions: &#10; (1) n_nationkey&#10; (2) n_name&#10;&#10;Unique Column Combinations: &#10; (1) {n_nationkey}&#10;&#10;Functional Dependencies (trivial): &#10; (1) {n_nationkey} =&gt; {n_name}&#10;&#10;Functional Dependencies (non&#45;trivial): &#10; &lt;none&gt;">
<text text-anchor="middle" x="676" y="-237.8" font-family="Times,serif" font-size="14.00" fill="white"> 1.0 row(s) | 4.0% estd.</text>
</a>
</g>
</g>
<!-- 139998237877968 -->
<g id="node14" class="node">
<title>139998237877968</title>
<polygon fill="none" stroke="white" points="782,-127 404,-127 404,-89 782,-89 782,-127"/>
<text text-anchor="middle" x="593" y="-111.8" font-family="Times,serif" font-size="14.00" fill="white">[StoredTable] Name: &#39;nation&#39; pruned: 0/1 chunk(s),</text>
<text text-anchor="middle" x="593" y="-96.8" font-family="Times,serif" font-size="14.00" fill="white">2/4 column(s)</text>
</g>
<!-- 139998237877968&#45;&gt;139951214894096 -->
<g id="edge13" class="edge">
<title>139998237877968&#45;&gt;139951214894096</title>
<path fill="none" stroke="white" d="M593,-127.03C593,-139.04 593,-155.07 593,-168.64"/>
<polygon fill="white" stroke="white" points="589.5,-168.88 593,-178.88 596.5,-168.88 589.5,-168.88"/>
<g id="a_edge13&#45;label"><a xlink:title="Output Expressions: &#10; (1) n_nationkey&#10; (2) n_name&#10;&#10;Unique Column Combinations: &#10; (1) {n_nationkey}&#10;&#10;Functional Dependencies (trivial): &#10; (1) {n_nationkey} =&gt; {n_name}&#10;&#10;Functional Dependencies (non&#45;trivial): &#10; &lt;none&gt;">
<text text-anchor="middle" x="689.5" y="-148.8" font-family="Times,serif" font-size="14.00" fill="white"> 25.0 row(s) | 100.0% estd.</text>
</a>
</g>
</g>
<!-- 139998236157872 -->
<g id="node15" class="node">
<title>139998236157872</title>
<polygon fill="none" stroke="white" points="995,-835 637,-835 637,-797 995,-797 995,-835"/>
<text text-anchor="middle" x="816" y="-819.8" font-family="Times,serif" font-size="14.00" fill="white">[Projection] SUM(ps_supplycost * ps_availqty) *</text>
<text text-anchor="middle" x="816" y="-804.8" font-family="Times,serif" font-size="14.00" fill="white">1e&#45;05</text>
</g>
<!-- 139998236157872&#45;&gt;139998299571472 -->
<g id="edge14" class="edge">
<title>139998236157872&#45;&gt;139998299571472</title>
<path fill="none" stroke="white" stroke-dasharray="5,2" d="M801.87,-835.01C792.29,-846.05 778.74,-859.63 764,-868 753.89,-873.74 742.85,-878.59 731.55,-882.67"/>
<polygon fill="white" stroke="white" points="730.35,-879.38 722.02,-885.93 732.62,-886.01 730.35,-879.38"/>
<text text-anchor="middle" x="865.5" y="-856.8" font-family="Times,serif" font-size="14.00" fill="white">uncorrelated subquery</text>
</g>
<!-- 139982923799696 -->
<g id="node16" class="node">
<title>139982923799696</title>
<polygon fill="none" stroke="white" points="955.5,-746 676.5,-746 676.5,-708 955.5,-708 955.5,-746"/>
<text text-anchor="middle" x="816" y="-730.8" font-family="Times,serif" font-size="14.00" fill="white">[Aggregate] GroupBy: [] Aggregates:</text>
<text text-anchor="middle" x="816" y="-715.8" font-family="Times,serif" font-size="14.00" fill="white">[SUM(ps_supplycost * ps_availqty)]</text>
</g>
<!-- 139982923799696&#45;&gt;139998236157872 -->
<g id="edge15" class="edge">
<title>139982923799696&#45;&gt;139998236157872</title>
<path fill="none" stroke="white" d="M816,-746.03C816,-757.81 816,-773.44 816,-786.84"/>
<polygon fill="white" stroke="white" points="812.5,-787 816,-797 819.5,-787 812.5,-787"/>
<g id="a_edge15&#45;label"><a xlink:title="Output Expressions: &#10; (1) SUM(ps_supplycost * ps_availqty) NULL&#10;&#10;Unique Column Combinations: &#10; &lt;none&gt;&#10;&#10;Functional Dependencies (trivial): &#10; &lt;none&gt;&#10;&#10;Functional Dependencies (non&#45;trivial): &#10; &lt;none&gt;">
<text text-anchor="middle" x="933" y="-767.8" font-family="Times,serif" font-size="14.00" fill="white"> 320,000.0 row(s) | 100.0% estd.</text>
</a>
</g>
</g>
<!-- 139998236157712 -->
<g id="node17" class="node">
<title>139998236157712</title>
<polygon fill="none" stroke="white" points="966,-657 666,-657 666,-621 966,-621 966,-657"/>
<text text-anchor="middle" x="816" y="-635.3" font-family="Times,serif" font-size="14.00" fill="white">[Projection] ps_supplycost * ps_availqty</text>
</g>
<!-- 139998236157712&#45;&gt;139982923799696 -->
<g id="edge16" class="edge">
<title>139998236157712&#45;&gt;139982923799696</title>
<path fill="none" stroke="white" d="M816,-657.4C816,-668.94 816,-684.35 816,-697.64"/>
<polygon fill="white" stroke="white" points="812.5,-697.73 816,-707.73 819.5,-697.73 812.5,-697.73"/>
<g id="a_edge16&#45;label"><a xlink:title="Output Expressions: &#10; (1) ps_supplycost * ps_availqty&#10;&#10;Unique Column Combinations: &#10; &lt;none&gt;&#10;&#10;Functional Dependencies (trivial): &#10; &lt;none&gt;&#10;&#10;Functional Dependencies (non&#45;trivial): &#10; &lt;none&gt;">
<text text-anchor="middle" x="933" y="-678.8" font-family="Times,serif" font-size="14.00" fill="white"> 320,000.0 row(s) | 100.0% estd.</text>
</a>
</g>
</g>
<!-- 139998236157552 -->
<g id="node18" class="node">
<title>139998236157552</title>
<polygon fill="none" stroke="white" points="858.5,-570 773.5,-570 773.5,-534 858.5,-534 858.5,-570"/>
<text text-anchor="middle" x="816" y="-548.3" font-family="Times,serif" font-size="14.00" fill="white">[Validate]</text>
</g>
<!-- 139998236157552&#45;&gt;139998236157712 -->
<g id="edge17" class="edge">
<title>139998236157552&#45;&gt;139998236157712</title>
<path fill="none" stroke="white" d="M816,-570.2C816,-581.84 816,-597.45 816,-610.76"/>
<polygon fill="white" stroke="white" points="812.5,-610.82 816,-620.82 819.5,-610.82 812.5,-610.82"/>
<g id="a_edge17&#45;label"><a xlink:title="Output Expressions: &#10; (1) ps_partkey&#10; (2) ps_suppkey&#10; (3) ps_availqty&#10; (4) ps_supplycost&#10;&#10;Unique Column Combinations: &#10; (1) {ps_partkey, ps_suppkey}&#10;&#10;Functional Dependencies (trivial): &#10; (1) {ps_partkey, ps_suppkey} =&gt; {ps_availqty, ps_supplycost}&#10;&#10;Functional Dependencies (non&#45;trivial): &#10; &lt;none&gt;">
<text text-anchor="middle" x="933" y="-591.8" font-family="Times,serif" font-size="14.00" fill="white"> 320,000.0 row(s) | 100.0% estd.</text>
</a>
</g>
</g>
<!-- 139998540462288 -->
<g id="node19" class="node">
<title>139998540462288</title>
<polygon fill="none" stroke="white" points="983.5,-482 648.5,-482 648.5,-446 983.5,-446 983.5,-482"/>
<text text-anchor="middle" x="816" y="-460.3" font-family="Times,serif" font-size="14.00" fill="white">[Join] Mode: Semi [ps_suppkey = s_suppkey]</text>
</g>
<!-- 139998540462288&#45;&gt;139998236157552 -->
<g id="edge18" class="edge">
<title>139998540462288&#45;&gt;139998236157552</title>
<path fill="none" stroke="white" d="M816,-482.4C816,-494.25 816,-510.18 816,-523.71"/>
<polygon fill="white" stroke="white" points="812.5,-523.92 816,-533.92 819.5,-523.92 812.5,-523.92"/>
<g id="a_edge18&#45;label"><a xlink:title="Output Expressions: &#10; (1) ps_partkey&#10; (2) ps_suppkey&#10; (3) ps_availqty&#10; (4) ps_supplycost&#10;&#10;Unique Column Combinations: &#10; (1) {ps_partkey, ps_suppkey}&#10;&#10;Functional Dependencies (trivial): &#10; (1) {ps_partkey, ps_suppkey} =&gt; {ps_availqty, ps_supplycost}&#10;&#10;Functional Dependencies (non&#45;trivial): &#10; &lt;none&gt;">
<text text-anchor="middle" x="924" y="-504.8" font-family="Times,serif" font-size="14.00" fill="white"> 320,000.0 row(s) | 4.0% estd.</text>
</a>
</g>
</g>
<!-- 139998237878288 -->
<g id="node20" class="node">
<title>139998237878288</title>
<polygon fill="none" stroke="white" points="984,-394 638,-394 638,-356 984,-356 984,-394"/>
<text text-anchor="middle" x="811" y="-378.8" font-family="Times,serif" font-size="14.00" fill="white">[StoredTable] Name: &#39;partsupp&#39; pruned: 0/123</text>
<text text-anchor="middle" x="811" y="-363.8" font-family="Times,serif" font-size="14.00" fill="white">chunk(s), 1/5 column(s)</text>
</g>
<!-- 139998237878288&#45;&gt;139998540462288 -->
<g id="edge19" class="edge">
<title>139998237878288&#45;&gt;139998540462288</title>
<path fill="none" stroke="white" stroke-width="8" d="M810.96,-394.43C811.04,-404.13 811.3,-416.22 812,-427 812.18,-429.79 812.42,-432.69 812.69,-435.58"/>
<polygon fill="white" stroke="white" stroke-width="8" points="812.72,-435.87 805.76,-436.6 813.77,-445.82 812.72,-435.87"/>
<g id="a_edge19&#45;label"><a xlink:title="Output Expressions: &#10; (1) ps_partkey&#10; (2) ps_suppkey&#10; (3) ps_availqty&#10; (4) ps_supplycost&#10;&#10;Unique Column Combinations: &#10; (1) {ps_partkey, ps_suppkey}&#10;&#10;Functional Dependencies (trivial): &#10; (1) {ps_partkey, ps_suppkey} =&gt; {ps_availqty, ps_supplycost}&#10;&#10;Functional Dependencies (non&#45;trivial): &#10; &lt;none&gt;">
<text text-anchor="middle" x="935.5" y="-415.8" font-family="Times,serif" font-size="14.00" fill="white"> 8,000,000.0 row(s) | 100.0% estd.</text>
</a>
</g>
</g>
<!-- 139998236157392 -->
<g id="node21" class="node">
<title>139998236157392</title>
<polygon fill="none" stroke="white" points="1123.5,-393 1038.5,-393 1038.5,-357 1123.5,-357 1123.5,-393"/>
<text text-anchor="middle" x="1081" y="-371.3" font-family="Times,serif" font-size="14.00" fill="white">[Validate]</text>
</g>
<!-- 139998236157392&#45;&gt;139998540462288 -->
<g id="edge20" class="edge">
<title>139998236157392&#45;&gt;139998540462288</title>
<path fill="none" stroke="white" d="M1078.01,-393.35C1075.12,-404.7 1069.55,-418.89 1059,-427 1046.89,-436.31 1022.52,-443.23 993.7,-448.37"/>
<polygon fill="white" stroke="white" points="983.77,-450.04 994.22,-451.83 993.63,-448.38 983.77,-450.04"/>
<g id="a_edge20&#45;label"><a xlink:title="Output Expressions: &#10; (1) s_suppkey&#10; (2) s_nationkey&#10;&#10;Unique Column Combinations: &#10; (1) {s_suppkey}&#10;&#10;Functional Dependencies (trivial): &#10; (1) {s_suppkey} =&gt; {s_nationkey}&#10;&#10;Functional Dependencies (non&#45;trivial): &#10; &lt;none&gt;">
<text text-anchor="middle" x="1180" y="-415.8" font-family="Times,serif" font-size="14.00" fill="white"> 4,000.0 row(s) | 100.0% estd.</text>
</a>
</g>
</g>
<!-- 139953391621456 -->
<g id="node22" class="node">
<title>139953391621456</title>
<polygon fill="none" stroke="white" points="1255.5,-304 906.5,-304 906.5,-268 1255.5,-268 1255.5,-304"/>
<text text-anchor="middle" x="1081" y="-282.3" font-family="Times,serif" font-size="14.00" fill="white">[Join] Mode: Semi [s_nationkey = n_nationkey]</text>
</g>
<!-- 139953391621456&#45;&gt;139998236157392 -->
<g id="edge21" class="edge">
<title>139953391621456&#45;&gt;139998236157392</title>
<path fill="none" stroke="white" d="M1081,-304.19C1081,-316.34 1081,-332.89 1081,-346.82"/>
<polygon fill="white" stroke="white" points="1077.5,-346.85 1081,-356.85 1084.5,-346.85 1077.5,-346.85"/>
<g id="a_edge21&#45;label"><a xlink:title="Output Expressions: &#10; (1) s_suppkey&#10; (2) s_nationkey&#10;&#10;Unique Column Combinations: &#10; (1) {s_suppkey}&#10;&#10;Functional Dependencies (trivial): &#10; (1) {s_suppkey} =&gt; {s_nationkey}&#10;&#10;Functional Dependencies (non&#45;trivial): &#10; &lt;none&gt;">
<text text-anchor="middle" x="1180" y="-326.8" font-family="Times,serif" font-size="14.00" fill="white"> 4,000.0 row(s) | 4.0% estd.</text>
</a>
</g>
</g>
<!-- 139998237878608 -->
<g id="node23" class="node">
<title>139998237878608</title>
<polygon fill="none" stroke="white" points="1091,-216 769,-216 769,-178 1091,-178 1091,-216"/>
<text text-anchor="middle" x="930" y="-200.8" font-family="Times,serif" font-size="14.00" fill="white">[StoredTable] Name: &#39;supplier&#39; pruned: 0/2</text>
<text text-anchor="middle" x="930" y="-185.8" font-family="Times,serif" font-size="14.00" fill="white">chunk(s), 5/7 column(s)</text>
</g>
<!-- 139998237878608&#45;&gt;139953391621456 -->
<g id="edge22" class="edge">
<title>139998237878608&#45;&gt;139953391621456</title>
<path fill="none" stroke="white" d="M923.33,-216.34C920.72,-226.96 919.83,-239.97 927,-249 931.99,-255.29 942.74,-260.59 956.36,-265.02"/>
<polygon fill="white" stroke="white" points="956.63,-265.09 955.63,-268.45 966.21,-267.94 956.63,-265.09"/>
<g id="a_edge22&#45;label"><a xlink:title="Output Expressions: &#10; (1) s_suppkey&#10; (2) s_nationkey&#10;&#10;Unique Column Combinations: &#10; (1) {s_suppkey}&#10;&#10;Functional Dependencies (trivial): &#10; (1) {s_suppkey} =&gt; {s_nationkey}&#10;&#10;Functional Dependencies (non&#45;trivial): &#10; &lt;none&gt;">
<text text-anchor="middle" x="1044" y="-237.8" font-family="Times,serif" font-size="14.00" fill="white"> 100,000.0 row(s) | 100.0% estd.</text>
</a>
</g>
</g>
<!-- 139998236157232 -->
<g id="node24" class="node">
<title>139998236157232</title>
<polygon fill="none" stroke="white" points="1229.5,-215 1144.5,-215 1144.5,-179 1229.5,-179 1229.5,-215"/>
<text text-anchor="middle" x="1187" y="-193.3" font-family="Times,serif" font-size="14.00" fill="white">[Validate]</text>
</g>
<!-- 139998236157232&#45;&gt;139953391621456 -->
<g id="edge23" class="edge">
<title>139998236157232&#45;&gt;139953391621456</title>
<path fill="none" stroke="white" d="M1183.15,-215.01C1179.91,-225.92 1174.28,-239.74 1165,-249 1159.67,-254.32 1153.43,-258.9 1146.81,-262.84"/>
<polygon fill="white" stroke="white" points="1137.58,-267.81 1148.04,-266.15 1146.38,-263.07 1137.58,-267.81"/>
<g id="a_edge23&#45;label"><a xlink:title="Output Expressions: &#10; (1) n_nationkey&#10; (2) n_name&#10;&#10;Unique Column Combinations: &#10; (1) {n_nationkey}&#10;&#10;Functional Dependencies (trivial): &#10; (1) {n_nationkey} =&gt; {n_name}&#10;&#10;Functional Dependencies (non&#45;trivial): &#10; &lt;none&gt;">
<text text-anchor="middle" x="1267" y="-237.8" font-family="Times,serif" font-size="14.00" fill="white"> 1.0 row(s) | 100.0% estd.</text>
</a>
</g>
</g>
<!-- 139998018217040 -->
<g id="node25" class="node">
<title>139998018217040</title>
<polygon fill="none" stroke="white" points="1304,-126 1070,-126 1070,-90 1304,-90 1304,-126"/>
<text text-anchor="middle" x="1187" y="-104.3" font-family="Times,serif" font-size="14.00" fill="white">[Predicate] n_name = &#39;KENYA&#39;</text>
</g>
<!-- 139998018217040&#45;&gt;139998236157232 -->
<g id="edge24" class="edge">
<title>139998018217040&#45;&gt;139998236157232</title>
<path fill="none" stroke="white" d="M1187,-126.19C1187,-138.34 1187,-154.89 1187,-168.82"/>
<polygon fill="white" stroke="white" points="1183.5,-168.85 1187,-178.85 1190.5,-168.85 1183.5,-168.85"/>
<g id="a_edge24&#45;label"><a xlink:title="Output Expressions: &#10; (1) n_nationkey&#10; (2) n_name&#10;&#10;Unique Column Combinations: &#10; (1) {n_nationkey}&#10;&#10;Functional Dependencies (trivial): &#10; (1) {n_nationkey} =&gt; {n_name}&#10;&#10;Functional Dependencies (non&#45;trivial): &#10; &lt;none&gt;">
<text text-anchor="middle" x="1270" y="-148.8" font-family="Times,serif" font-size="14.00" fill="white"> 1.0 row(s) | 4.0% estd.</text>
</a>
</g>
</g>
<!-- 139998237878928 -->
<g id="node26" class="node">
<title>139998237878928</title>
<polygon fill="none" stroke="white" points="1376,-38 998,-38 998,0 1376,0 1376,-38"/>
<text text-anchor="middle" x="1187" y="-22.8" font-family="Times,serif" font-size="14.00" fill="white">[StoredTable] Name: &#39;nation&#39; pruned: 0/1 chunk(s),</text>
<text text-anchor="middle" x="1187" y="-7.8" font-family="Times,serif" font-size="14.00" fill="white">2/4 column(s)</text>
</g>
<!-- 139998237878928&#45;&gt;139998018217040 -->
<g id="edge25" class="edge">
<title>139998237878928&#45;&gt;139998018217040</title>
<path fill="none" stroke="white" d="M1187,-38.03C1187,-50.04 1187,-66.07 1187,-79.64"/>
<polygon fill="white" stroke="white" points="1183.5,-79.88 1187,-89.88 1190.5,-79.88 1183.5,-79.88"/>
<g id="a_edge25&#45;label"><a xlink:title="Output Expressions: &#10; (1) n_nationkey&#10; (2) n_name&#10;&#10;Unique Column Combinations: &#10; (1) {n_nationkey}&#10;&#10;Functional Dependencies (trivial): &#10; (1) {n_nationkey} =&gt; {n_name}&#10;&#10;Functional Dependencies (non&#45;trivial): &#10; &lt;none&gt;">
<text text-anchor="middle" x="1283.5" y="-59.8" font-family="Times,serif" font-size="14.00" fill="white"> 25.0 row(s) | 100.0% estd.</text>
</a>
</g>
</g>
</g>
</svg>
