<?xml version="1.0" encoding="UTF-8" standalone="no"?>
<!DOCTYPE svg PUBLIC "-//W3C//DTD SVG 1.1//EN"
 "http://www.w3.org/Graphics/SVG/1.1/DTD/svg11.dtd">
<!-- Generated by graphviz version 2.43.0 (0)
 -->
<!-- Title: G Pages: 1 -->
<svg width="706pt" height="1220pt"
 viewBox="0.00 0.00 705.50 1220.00" xmlns="http://www.w3.org/2000/svg" xmlns:xlink="http://www.w3.org/1999/xlink">
<g id="graph0" class="graph" transform="scale(1 1) rotate(0) translate(4 1216)">
<title>G</title>
<polygon fill="black" stroke="transparent" points="-4,4 -4,-1216 701.5,-1216 701.5,4 -4,4"/>
<text text-anchor="middle" x="319.5" y="-1196.8" font-family="Times,serif" font-size="14.00" fill="white">For tooltips with advanced information, hover your mouse over vertices or edge labels.</text>
<!-- 139982762320848 -->
<g id="node1" class="node">
<title>139982762320848</title>
<g id="a_node1"><a xlink:title="Output: 45 rows in 1 chunk, 5 µs 440 ns.">
<polygon fill="none" stroke="white" points="248,-1157 101,-1157 101,-1088 248,-1088 248,-1157"/>
<text text-anchor="middle" x="174.5" y="-1141.8" font-family="Times,serif" font-size="14.00" fill="white">Alias</text>
<text text-anchor="middle" x="174.5" y="-1126.8" font-family="Times,serif" font-size="14.00" fill="white">[c_count, custdist]</text>
<text text-anchor="middle" x="174.5" y="-1095.8" font-family="Times,serif" font-size="14.00" fill="white">5 µs 440 ns</text>
</a>
</g>
</g>
<!-- 139982762320208 -->
<g id="node2" class="node">
<title>139982762320208</title>
<g id="a_node2"><a xlink:title="Output: 45 rows in 1 chunk, 31 µs 970 ns.&#10;Operator step runtimes:&#10; MaterializeSortColumns 12 µs 693 ns&#10; Sort 5 µs 0 ns&#10; TemporaryResultWriting 1 µs 142 ns&#10; WriteOutput 9 µs 748 ns.">
<polygon fill="none" stroke="white" points="228.5,-1037 120.5,-1037 120.5,-983 228.5,-983 228.5,-1037"/>
<text text-anchor="middle" x="174.5" y="-1021.8" font-family="Times,serif" font-size="14.00" fill="white">Sort</text>
<text text-anchor="middle" x="174.5" y="-990.8" font-family="Times,serif" font-size="14.00" fill="white">31 µs 970 ns</text>
</a>
</g>
</g>
<!-- 139982762320208&#45;&gt;139982762320848 -->
<g id="edge1" class="edge">
<title>139982762320208&#45;&gt;139982762320848</title>
<path fill="none" stroke="white" d="M174.5,-1037.19C174.5,-1049.29 174.5,-1064 174.5,-1077.72"/>
<polygon fill="white" stroke="white" points="171,-1077.95 174.5,-1087.95 178,-1077.96 171,-1077.95"/>
<text text-anchor="middle" x="248" y="-1058.8" font-family="Times,serif" font-size="14.00" fill="white">45 row(s)/1 chunk(s)</text>
</g>
<!-- 139998141656592 -->
<g id="node3" class="node">
<title>139998141656592</title>
<g id="a_node3"><a xlink:title="Output: 45 rows in 1 chunk, 20 ms 698 µs.&#10;Operator step runtimes:&#10; GroupByKeyPartitioning 11 ms 97 µs&#10; Aggregating 9 ms 547 µs&#10; GroupByColumnsWriting 9 µs 198 ns&#10; AggregateColumnsWriting 11 µs 361 ns&#10; OutputWriting 8 µs 45 ns.">
<polygon fill="none" stroke="white" points="297.5,-932 51.5,-932 51.5,-848 297.5,-848 297.5,-932"/>
<text text-anchor="middle" x="174.5" y="-916.8" font-family="Times,serif" font-size="14.00" fill="white">AggregateHash</text>
<text text-anchor="middle" x="174.5" y="-901.8" font-family="Times,serif" font-size="14.00" fill="white">GroupBy {COUNT(o_orderkey)}</text>
<text text-anchor="middle" x="174.5" y="-886.8" font-family="Times,serif" font-size="14.00" fill="white">COUNT(*)</text>
<text text-anchor="middle" x="174.5" y="-855.8" font-family="Times,serif" font-size="14.00" fill="white">20 ms 698 µs</text>
</a>
</g>
</g>
<!-- 139998141656592&#45;&gt;139982762320208 -->
<g id="edge2" class="edge">
<title>139998141656592&#45;&gt;139982762320208</title>
<path fill="none" stroke="white" d="M174.5,-932.27C174.5,-945.36 174.5,-959.72 174.5,-972.45"/>
<polygon fill="white" stroke="white" points="171,-972.69 174.5,-982.69 178,-972.69 171,-972.69"/>
<text text-anchor="middle" x="248" y="-953.8" font-family="Times,serif" font-size="14.00" fill="white">45 row(s)/1 chunk(s)</text>
</g>
<!-- 139998141793040 -->
<g id="node4" class="node">
<title>139998141793040</title>
<g id="a_node4"><a xlink:title="Output: 1500000 rows in 23 chunks, 10 µs 199 ns.">
<polygon fill="none" stroke="white" points="253,-797 96,-797 96,-728 253,-728 253,-797"/>
<text text-anchor="middle" x="174.5" y="-781.8" font-family="Times,serif" font-size="14.00" fill="white">Alias</text>
<text text-anchor="middle" x="174.5" y="-766.8" font-family="Times,serif" font-size="14.00" fill="white">[c_custkey, c_count]</text>
<text text-anchor="middle" x="174.5" y="-735.8" font-family="Times,serif" font-size="14.00" fill="white">10 µs 199 ns</text>
</a>
</g>
</g>
<!-- 139998141793040&#45;&gt;139998141656592 -->
<g id="edge3" class="edge">
<title>139998141793040&#45;&gt;139998141656592</title>
<path fill="none" stroke="white" stroke-width="2.27" d="M174.5,-797.13C174.5,-809.51 174.5,-823.84 174.5,-837.44"/>
<polygon fill="white" stroke="white" stroke-width="2.27" points="171,-837.65 174.5,-847.65 178,-837.65 171,-837.65"/>
<text text-anchor="middle" x="279.5" y="-818.8" font-family="Times,serif" font-size="14.00" fill="white">1,500,000 row(s)/23 chunk(s)</text>
</g>
<!-- 139998141705744 -->
<g id="node5" class="node">
<title>139998141705744</title>
<g id="a_node5"><a xlink:title="Output: 1500000 rows in 23 chunks, 3 s 416 ms.&#10;Operator step runtimes:&#10; GroupByKeyPartitioning 144 ms 699 µs&#10; Aggregating 3 s 267 ms&#10; GroupByColumnsWriting 3 ms 451 µs&#10; AggregateColumnsWriting 1 ms 207 µs&#10; OutputWriting 27 µs 431 ns.">
<polygon fill="none" stroke="white" stroke-width="8" points="260,-677 89,-677 89,-593 260,-593 260,-677"/>
<text text-anchor="middle" x="174.5" y="-661.8" font-family="Times,serif" font-size="14.00" fill="white">AggregateHash</text>
<text text-anchor="middle" x="174.5" y="-646.8" font-family="Times,serif" font-size="14.00" fill="white">GroupBy {c_custkey}</text>
<text text-anchor="middle" x="174.5" y="-631.8" font-family="Times,serif" font-size="14.00" fill="white">COUNT(o_orderkey)</text>
<text text-anchor="middle" x="174.5" y="-600.8" font-family="Times,serif" font-size="14.00" fill="white">3 s 416 ms</text>
</a>
</g>
</g>
<!-- 139998141705744&#45;&gt;139998141793040 -->
<g id="edge4" class="edge">
<title>139998141705744&#45;&gt;139998141793040</title>
<path fill="none" stroke="white" stroke-width="2.27" d="M174.5,-677.09C174.5,-690.07 174.5,-704.45 174.5,-717.61"/>
<polygon fill="white" stroke="white" stroke-width="2.27" points="171,-717.85 174.5,-727.85 178,-717.85 171,-717.85"/>
<text text-anchor="middle" x="279.5" y="-698.8" font-family="Times,serif" font-size="14.00" fill="white">1,500,000 row(s)/23 chunk(s)</text>
</g>
<!-- 139982762319888 -->
<g id="node6" class="node">
<title>139982762319888</title>
<g id="a_node6"><a xlink:title="Output: 15339180 rows in 128 chunks, 123 ms 851 µs.&#10;Operator step runtimes:&#10; BuildSideMaterializing 5 ms 930 µs&#10; ProbeSideMaterializing 858 µs 321 ns&#10; Clustering 8 ms 697 µs&#10; Building 70 ms 274 µs&#10; Probing 18 ms 371 µs&#10; OutputWriting 18 ms 487 µs.&#10;Radix bits: 7.&#10;Build side is right.">
<polygon fill="none" stroke="white" points="262.5,-542 86.5,-542 86.5,-473 262.5,-473 262.5,-542"/>
<text text-anchor="middle" x="174.5" y="-526.8" font-family="Times,serif" font-size="14.00" fill="white">JoinHash (Left)</text>
<text text-anchor="middle" x="174.5" y="-511.8" font-family="Times,serif" font-size="14.00" fill="white">c_custkey = o_custkey</text>
<text text-anchor="middle" x="174.5" y="-480.8" font-family="Times,serif" font-size="14.00" fill="white">123 ms 851 µs</text>
</a>
</g>
</g>
<!-- 139982762319888&#45;&gt;139998141705744 -->
<g id="edge5" class="edge">
<title>139982762319888&#45;&gt;139998141705744</title>
<path fill="none" stroke="white" stroke-width="8" d="M174.5,-542.13C174.5,-554.51 174.5,-568.84 174.5,-582.44"/>
<polygon fill="white" stroke="white" stroke-width="8" points="167.5,-582.65 174.5,-592.65 181.5,-582.65 167.5,-582.65"/>
<text text-anchor="middle" x="288.5" y="-563.8" font-family="Times,serif" font-size="14.00" fill="white">15,339,180 row(s)/128 chunk(s)</text>
</g>
<!-- 139982764894736 -->
<g id="node7" class="node">
<title>139982764894736</title>
<g id="a_node7"><a xlink:title="Output: 1500000 rows in 23 chunks, 121 µs 278 ns.">
<polygon fill="none" stroke="white" points="117,-422 0,-422 0,-368 117,-368 117,-422"/>
<text text-anchor="middle" x="58.5" y="-406.8" font-family="Times,serif" font-size="14.00" fill="white">Validate</text>
<text text-anchor="middle" x="58.5" y="-375.8" font-family="Times,serif" font-size="14.00" fill="white">121 µs 278 ns</text>
</a>
</g>
</g>
<!-- 139982764894736&#45;&gt;139982762319888 -->
<g id="edge6" class="edge">
<title>139982764894736&#45;&gt;139982762319888</title>
<path fill="none" stroke="white" stroke-width="2.27" d="M54.14,-422.28C53.69,-433.24 55.1,-445.58 61.5,-455 66.06,-461.71 71.72,-467.56 78.06,-472.65"/>
<polygon fill="white" stroke="white" stroke-width="2.27" points="78.32,-472.84 76.26,-475.68 86.41,-478.71 78.32,-472.84"/>
<text text-anchor="middle" x="166.5" y="-443.8" font-family="Times,serif" font-size="14.00" fill="white">1,500,000 row(s)/23 chunk(s)</text>
</g>
<!-- 139998141977616 -->
<g id="node8" class="node">
<title>139998141977616</title>
<g id="a_node8"><a xlink:title="Output: 1500000 rows in 23 chunks, 54 µs 41 ns.">
<polygon fill="none" stroke="white" points="115,-317 2,-317 2,-203 115,-203 115,-317"/>
<text text-anchor="middle" x="58.5" y="-301.8" font-family="Times,serif" font-size="14.00" fill="white">GetTable</text>
<text text-anchor="middle" x="58.5" y="-286.8" font-family="Times,serif" font-size="14.00" fill="white">(customer)</text>
<text text-anchor="middle" x="58.5" y="-271.8" font-family="Times,serif" font-size="14.00" fill="white">pruned:</text>
<text text-anchor="middle" x="58.5" y="-256.8" font-family="Times,serif" font-size="14.00" fill="white">0/23 chunk(s)</text>
<text text-anchor="middle" x="58.5" y="-241.8" font-family="Times,serif" font-size="14.00" fill="white">7/8 column(s)</text>
<text text-anchor="middle" x="58.5" y="-210.8" font-family="Times,serif" font-size="14.00" fill="white">54 µs 41 ns</text>
</a>
</g>
</g>
<!-- 139998141977616&#45;&gt;139982764894736 -->
<g id="edge7" class="edge">
<title>139998141977616&#45;&gt;139982764894736</title>
<path fill="none" stroke="white" stroke-width="2.27" d="M58.5,-317.02C58.5,-330.77 58.5,-345.14 58.5,-357.69"/>
<polygon fill="white" stroke="white" stroke-width="2.27" points="55,-357.75 58.5,-367.75 62,-357.75 55,-357.75"/>
<text text-anchor="middle" x="163.5" y="-338.8" font-family="Times,serif" font-size="14.00" fill="white">1,500,000 row(s)/23 chunk(s)</text>
</g>
<!-- 139982764894992 -->
<g id="node9" class="node">
<title>139982764894992</title>
<g id="a_node9"><a xlink:title="Output: 14839162 rows in 229 chunks, 509 µs 687 ns.">
<polygon fill="none" stroke="white" points="353,-422 236,-422 236,-368 353,-368 353,-422"/>
<text text-anchor="middle" x="294.5" y="-406.8" font-family="Times,serif" font-size="14.00" fill="white">Validate</text>
<text text-anchor="middle" x="294.5" y="-375.8" font-family="Times,serif" font-size="14.00" fill="white">509 µs 687 ns</text>
</a>
</g>
</g>
<!-- 139982764894992&#45;&gt;139982762319888 -->
<g id="edge8" class="edge">
<title>139982764894992&#45;&gt;139982762319888</title>
<path fill="none" stroke="white" stroke-width="7.92" d="M288.62,-422.27C285.11,-433.36 279.69,-445.8 271.5,-455 267.78,-459.18 263.63,-463.09 259.21,-466.72"/>
<polygon fill="white" stroke="white" stroke-width="7.92" points="250.98,-472.96 263.13,-472.43 258.95,-466.91 250.98,-472.96"/>
<text text-anchor="middle" x="395.5" y="-443.8" font-family="Times,serif" font-size="14.00" fill="white">14,839,162 row(s)/229 chunk(s)</text>
</g>
<!-- 139982762320528 -->
<g id="node10" class="node">
<title>139982762320528</title>
<g id="a_node10"><a xlink:title="Output: 14839162 rows in 229 chunks, 18 ms 63 µs.&#10;Chunks: 0 skipped with no results, &#10;0 skipped with all matching, 0 scanned using binary search.">
<polygon fill="none" stroke="white" points="472,-302 133,-302 133,-218 472,-218 472,-302"/>
<text text-anchor="middle" x="302.5" y="-286.8" font-family="Times,serif" font-size="14.00" fill="white">TableScan</text>
<text text-anchor="middle" x="302.5" y="-271.8" font-family="Times,serif" font-size="14.00" fill="white">Impl: ColumnLike</text>
<text text-anchor="middle" x="302.5" y="-256.8" font-family="Times,serif" font-size="14.00" fill="white">o_comment NOT LIKE &#39;%special%accounts%&#39;</text>
<text text-anchor="middle" x="302.5" y="-225.8" font-family="Times,serif" font-size="14.00" fill="white">18 ms 63 µs</text>
</a>
</g>
</g>
<!-- 139982762320528&#45;&gt;139982764894992 -->
<g id="edge9" class="edge">
<title>139982762320528&#45;&gt;139982764894992</title>
<path fill="none" stroke="white" stroke-width="7.92" d="M300.01,-302.35C298.95,-320.03 297.72,-340.5 296.69,-357.6"/>
<polygon fill="white" stroke="white" stroke-width="7.92" points="289.76,-357.36 296.08,-367.75 303.6,-358.19 289.76,-357.36"/>
<text text-anchor="middle" x="411.5" y="-338.8" font-family="Times,serif" font-size="14.00" fill="white">14,839,162 row(s)/229 chunk(s)</text>
</g>
<!-- 139998141978064 -->
<g id="node11" class="node">
<title>139998141978064</title>
<g id="a_node11"><a xlink:title="Output: 15000000 rows in 229 chunks, 1 ms 479 µs.">
<polygon fill="none" stroke="white" points="363.5,-133 241.5,-133 241.5,-19 363.5,-19 363.5,-133"/>
<text text-anchor="middle" x="302.5" y="-117.8" font-family="Times,serif" font-size="14.00" fill="white">GetTable</text>
<text text-anchor="middle" x="302.5" y="-102.8" font-family="Times,serif" font-size="14.00" fill="white">(orders)</text>
<text text-anchor="middle" x="302.5" y="-87.8" font-family="Times,serif" font-size="14.00" fill="white">pruned:</text>
<text text-anchor="middle" x="302.5" y="-72.8" font-family="Times,serif" font-size="14.00" fill="white">0/229 chunk(s)</text>
<text text-anchor="middle" x="302.5" y="-57.8" font-family="Times,serif" font-size="14.00" fill="white">6/9 column(s)</text>
<text text-anchor="middle" x="302.5" y="-26.8" font-family="Times,serif" font-size="14.00" fill="white">1 ms 479 µs</text>
</a>
</g>
</g>
<!-- 139998141978064&#45;&gt;139982762320528 -->
<g id="edge10" class="edge">
<title>139998141978064&#45;&gt;139982762320528</title>
<path fill="none" stroke="white" stroke-width="7.94" d="M302.5,-133.09C302.5,-156.93 302.5,-184.53 302.5,-207.81"/>
<polygon fill="white" stroke="white" stroke-width="7.94" points="295.55,-207.83 302.5,-217.83 309.45,-207.83 295.55,-207.83"/>
<text text-anchor="middle" x="416.5" y="-173.8" font-family="Times,serif" font-size="14.00" fill="white">15,000,000 row(s)/229 chunk(s)</text>
</g>
<!-- 0 -->
<g id="node12" class="node">
<title>0</title>
<polygon fill="none" stroke="white" points="381.5,-0.5 381.5,-151.5 697.5,-151.5 697.5,-0.5 381.5,-0.5"/>
<text text-anchor="middle" x="539.5" y="-136.3" font-family="Times,serif" font-size="14.00" fill="white">Total by operator</text>
<polyline fill="none" stroke="white" points="381.5,-128.5 697.5,-128.5 "/>
<text text-anchor="end" x="505.5" y="-113.3" font-family="Times,serif" font-size="14.00" fill="white">AggregateHash </text>
<text text-anchor="end" x="505.5" y="-98.3" font-family="Times,serif" font-size="14.00" fill="white"> JoinHash </text>
<text text-anchor="end" x="505.5" y="-83.3" font-family="Times,serif" font-size="14.00" fill="white"> TableScan </text>
<text text-anchor="end" x="505.5" y="-68.3" font-family="Times,serif" font-size="14.00" fill="white"> GetTable </text>
<text text-anchor="end" x="505.5" y="-53.3" font-family="Times,serif" font-size="14.00" fill="white"> Validate </text>
<text text-anchor="end" x="505.5" y="-38.3" font-family="Times,serif" font-size="14.00" fill="white"> Sort </text>
<text text-anchor="end" x="505.5" y="-23.3" font-family="Times,serif" font-size="14.00" fill="white"> Alias </text>
<text text-anchor="end" x="505.5" y="-8.3" font-family="Times,serif" font-size="14.00" fill="white">total</text>
<polyline fill="none" stroke="white" points="513.5,-0.5 513.5,-128.5 "/>
<text text-anchor="start" x="521.5" y="-113.3" font-family="Times,serif" font-size="14.00" fill="white">3 s 437 ms </text>
<text text-anchor="start" x="521.5" y="-98.3" font-family="Times,serif" font-size="14.00" fill="white"> 123 ms 851 µs </text>
<text text-anchor="start" x="521.5" y="-83.3" font-family="Times,serif" font-size="14.00" fill="white"> 18 ms 63 µs </text>
<text text-anchor="start" x="521.5" y="-68.3" font-family="Times,serif" font-size="14.00" fill="white"> 1 ms 533 µs </text>
<text text-anchor="start" x="521.5" y="-53.3" font-family="Times,serif" font-size="14.00" fill="white"> 630 µs 965 ns </text>
<text text-anchor="start" x="521.5" y="-38.3" font-family="Times,serif" font-size="14.00" fill="white"> 31 µs 970 ns </text>
<text text-anchor="start" x="521.5" y="-23.3" font-family="Times,serif" font-size="14.00" fill="white"> 15 µs 639 ns </text>
<text text-anchor="start" x="521.5" y="-8.3" font-family="Times,serif" font-size="14.00" fill="white"> 3 s 581 ms </text>
<polyline fill="none" stroke="white" points="644.5,-0.5 644.5,-128.5 "/>
<text text-anchor="start" x="652.5" y="-113.3" font-family="Times,serif" font-size="14.00" fill="white">96 %</text>
<text text-anchor="start" x="652.5" y="-98.3" font-family="Times,serif" font-size="14.00" fill="white">3 %</text>
<text text-anchor="start" x="652.5" y="-83.3" font-family="Times,serif" font-size="14.00" fill="white">1 %</text>
<text text-anchor="start" x="652.5" y="-68.3" font-family="Times,serif" font-size="14.00" fill="white">0 %</text>
<text text-anchor="start" x="652.5" y="-53.3" font-family="Times,serif" font-size="14.00" fill="white">0 %</text>
<text text-anchor="start" x="652.5" y="-38.3" font-family="Times,serif" font-size="14.00" fill="white">0 %</text>
<text text-anchor="start" x="652.5" y="-23.3" font-family="Times,serif" font-size="14.00" fill="white">0 %</text>
<text text-anchor="start" x="652.5" y="-8.3" font-family="Times,serif" font-size="14.00" fill="white"> </text>
</g>
</g>
</svg>
