<?xml version="1.0" encoding="UTF-8" standalone="no"?>
<!DOCTYPE svg PUBLIC "-//W3C//DTD SVG 1.1//EN"
 "http://www.w3.org/Graphics/SVG/1.1/DTD/svg11.dtd">
<!-- Generated by graphviz version 2.43.0 (0)
 -->
<!-- Title: G Pages: 1 -->
<svg width="948pt" height="1829pt"
 viewBox="0.00 0.00 948.00 1829.00" xmlns="http://www.w3.org/2000/svg" xmlns:xlink="http://www.w3.org/1999/xlink">
<g id="graph0" class="graph" transform="scale(1 1) rotate(0) translate(4 1825)">
<title>G</title>
<polygon fill="black" stroke="transparent" points="-4,4 -4,-1825 944,-1825 944,4 -4,4"/>
<text text-anchor="middle" x="319.5" y="-1805.8" font-family="Times,serif" font-size="14.00" fill="white">For tooltips with advanced information, hover your mouse over vertices or edge labels.</text>
<!-- 139998237876368 -->
<g id="node1" class="node">
<title>139998237876368</title>
<g id="a_node1"><a xlink:title="Output: 8951 rows in 1 chunk, 4 µs 579 ns.">
<polygon fill="none" stroke="white" points="278.5,-1766 128.5,-1766 128.5,-1697 278.5,-1697 278.5,-1766"/>
<text text-anchor="middle" x="203.5" y="-1750.8" font-family="Times,serif" font-size="14.00" fill="white">Alias</text>
<text text-anchor="middle" x="203.5" y="-1735.8" font-family="Times,serif" font-size="14.00" fill="white">[ps_partkey, value]</text>
<text text-anchor="middle" x="203.5" y="-1704.8" font-family="Times,serif" font-size="14.00" fill="white">4 µs 579 ns</text>
</a>
</g>
</g>
<!-- 139998237875408 -->
<g id="node2" class="node">
<title>139998237875408</title>
<g id="a_node2"><a xlink:title="Output: 8951 rows in 1 chunk, 1 ms 95 µs.&#10;Operator step runtimes:&#10; MaterializeSortColumns 279 µs 985 ns&#10; Sort 649 µs 79 ns&#10; TemporaryResultWriting 8 µs 746 ns&#10; WriteOutput 151 µs 564 ns.">
<polygon fill="none" stroke="white" points="251,-1646 156,-1646 156,-1592 251,-1592 251,-1646"/>
<text text-anchor="middle" x="203.5" y="-1630.8" font-family="Times,serif" font-size="14.00" fill="white">Sort</text>
<text text-anchor="middle" x="203.5" y="-1599.8" font-family="Times,serif" font-size="14.00" fill="white">1 ms 95 µs</text>
</a>
</g>
</g>
<!-- 139998237875408&#45;&gt;139998237876368 -->
<g id="edge1" class="edge">
<title>139998237875408&#45;&gt;139998237876368</title>
<path fill="none" stroke="white" d="M203.5,-1646.19C203.5,-1658.29 203.5,-1673 203.5,-1686.72"/>
<polygon fill="white" stroke="white" points="200,-1686.95 203.5,-1696.95 207,-1686.96 200,-1686.95"/>
<text text-anchor="middle" x="288" y="-1667.8" font-family="Times,serif" font-size="14.00" fill="white">8,951 row(s)/1 chunk(s)</text>
</g>
<!-- 139998237875088 -->
<g id="node3" class="node">
<title>139998237875088</title>
<g id="a_node3"><a xlink:title="Output: 8951 rows in 5 chunks, 355 µs 678 ns.&#10;Chunks: 0 skipped with no results, &#10;0 skipped with all matching, 0 scanned using binary search.">
<polygon fill="none" stroke="white" points="407,-1541 0,-1541 0,-1442 407,-1442 407,-1541"/>
<text text-anchor="middle" x="203.5" y="-1525.8" font-family="Times,serif" font-size="14.00" fill="white">TableScan</text>
<text text-anchor="middle" x="203.5" y="-1510.8" font-family="Times,serif" font-size="14.00" fill="white">Impl: ColumnVsValue</text>
<text text-anchor="middle" x="203.5" y="-1495.8" font-family="Times,serif" font-size="14.00" fill="white">SUM(ps_supplycost * ps_availqty) &gt; SUBQUERY (PQP,</text>
<text text-anchor="middle" x="203.5" y="-1480.8" font-family="Times,serif" font-size="14.00" fill="white">0x7f53e127d290)</text>
<text text-anchor="middle" x="203.5" y="-1449.8" font-family="Times,serif" font-size="14.00" fill="white">355 µs 678 ns</text>
</a>
</g>
</g>
<!-- 139998237875088&#45;&gt;139998237875408 -->
<g id="edge2" class="edge">
<title>139998237875088&#45;&gt;139998237875408</title>
<path fill="none" stroke="white" d="M203.5,-1541.02C203.5,-1554.49 203.5,-1568.89 203.5,-1581.54"/>
<polygon fill="white" stroke="white" points="200,-1581.7 203.5,-1591.7 207,-1581.7 200,-1581.7"/>
<text text-anchor="middle" x="288" y="-1562.8" font-family="Times,serif" font-size="14.00" fill="white">8,951 row(s)/5 chunk(s)</text>
</g>
<!-- 139998236058128 -->
<g id="node4" class="node">
<title>139998236058128</title>
<g id="a_node4"><a xlink:title="Output: 304422 rows in 5 chunks, 26 ms 885 µs.&#10;Operator step runtimes:&#10; GroupByKeyPartitioning 2 ms 738 µs&#10; Aggregating 21 ms 271 µs&#10; GroupByColumnsWriting 745 µs 740 ns&#10; AggregateColumnsWriting 2 ms 27 µs&#10; OutputWriting 14 µs 988 ns.">
<polygon fill="none" stroke="white" stroke-width="8" points="326,-1319 67,-1319 67,-1235 326,-1235 326,-1319"/>
<text text-anchor="middle" x="196.5" y="-1303.8" font-family="Times,serif" font-size="14.00" fill="white">AggregateHash</text>
<text text-anchor="middle" x="196.5" y="-1288.8" font-family="Times,serif" font-size="14.00" fill="white">GroupBy {ps_partkey}</text>
<text text-anchor="middle" x="196.5" y="-1273.8" font-family="Times,serif" font-size="14.00" fill="white">SUM(ps_supplycost * ps_availqty)</text>
<text text-anchor="middle" x="196.5" y="-1242.8" font-family="Times,serif" font-size="14.00" fill="white">26 ms 885 µs</text>
</a>
</g>
</g>
<!-- 139998236058128&#45;&gt;139998237875088 -->
<g id="edge3" class="edge">
<title>139998236058128&#45;&gt;139998237875088</title>
<path fill="none" stroke="white" d="M195.81,-1319.07C195.62,-1340.52 195.66,-1367.18 196.5,-1391 196.97,-1404.24 197.78,-1418.45 198.69,-1431.87"/>
<polygon fill="white" stroke="white" points="195.2,-1432.22 199.4,-1441.95 202.19,-1431.73 195.2,-1432.22"/>
<text text-anchor="middle" x="290" y="-1360.3" font-family="Times,serif" font-size="14.00" fill="white">304,422 row(s)/5 chunk(s)</text>
</g>
<!-- 139998237874448 -->
<g id="node5" class="node">
<title>139998237874448</title>
<g id="a_node5"><a xlink:title="Output: 323520 rows in 123 chunks, 1 ms 642 µs.&#10;Operator step runtimes:&#10; ForwardUnmodifiedColumns 78 µs 106 ns&#10; EvaluateNewColumns 1 ms 363 µs&#10; BuildOutput 167 µs 945 ns.">
<polygon fill="none" stroke="white" stroke-width="1.1" points="266.5,-1082 162.5,-1082 162.5,-1028 266.5,-1028 266.5,-1082"/>
<text text-anchor="middle" x="214.5" y="-1066.8" font-family="Times,serif" font-size="14.00" fill="white">Projection</text>
<text text-anchor="middle" x="214.5" y="-1035.8" font-family="Times,serif" font-size="14.00" fill="white">1 ms 642 µs</text>
</a>
</g>
</g>
<!-- 139998237874448&#45;&gt;139998236058128 -->
<g id="edge4" class="edge">
<title>139998237874448&#45;&gt;139998236058128</title>
<path fill="none" stroke="white" d="M212.36,-1082.1C209.5,-1117.16 204.34,-1180.21 200.68,-1224.88"/>
<polygon fill="white" stroke="white" points="197.18,-1224.71 199.86,-1234.97 204.16,-1225.29 197.18,-1224.71"/>
<text text-anchor="middle" x="314" y="-1103.8" font-family="Times,serif" font-size="14.00" fill="white">323,520 row(s)/123 chunk(s)</text>
</g>
<!-- 139998236015120 -->
<g id="node6" class="node">
<title>139998236015120</title>
<g id="a_node6"><a xlink:title="Output: 323520 rows in 123 chunks, 251 µs 362 ns.">
<polygon fill="none" stroke="white" points="387,-977 270,-977 270,-923 387,-923 387,-977"/>
<text text-anchor="middle" x="328.5" y="-961.8" font-family="Times,serif" font-size="14.00" fill="white">Validate</text>
<text text-anchor="middle" x="328.5" y="-930.8" font-family="Times,serif" font-size="14.00" fill="white">251 µs 362 ns</text>
</a>
</g>
</g>
<!-- 139998236015120&#45;&gt;139998237874448 -->
<g id="edge5" class="edge">
<title>139998236015120&#45;&gt;139998237874448</title>
<path fill="none" stroke="white" d="M269.99,-960.86C250.14,-967.24 229.88,-977.73 217.5,-995 212.79,-1001.56 210.7,-1009.67 210.05,-1017.75"/>
<polygon fill="white" stroke="white" points="206.55,-1017.81 209.93,-1027.86 213.55,-1017.9 206.55,-1017.81"/>
<text text-anchor="middle" x="320" y="-998.8" font-family="Times,serif" font-size="14.00" fill="white">323,520 row(s)/123 chunk(s)</text>
</g>
<!-- 139998237874128 -->
<g id="node17" class="node">
<title>139998237874128</title>
<g id="a_node17"><a xlink:title="Output: 323520 rows in 123 chunks, 1 ms 622 µs.&#10;Operator step runtimes:&#10; ForwardUnmodifiedColumns 114 µs 375 ns&#10; EvaluateNewColumns 1 ms 355 µs&#10; BuildOutput 82 µs 165 ns.">
<polygon fill="none" stroke="white" stroke-width="1.07" points="497.5,-1082 393.5,-1082 393.5,-1028 497.5,-1028 497.5,-1082"/>
<text text-anchor="middle" x="445.5" y="-1066.8" font-family="Times,serif" font-size="14.00" fill="white">Projection</text>
<text text-anchor="middle" x="445.5" y="-1035.8" font-family="Times,serif" font-size="14.00" fill="white">1 ms 622 µs</text>
</a>
</g>
</g>
<!-- 139998236015120&#45;&gt;139998237874128 -->
<g id="edge6" class="edge">
<title>139998236015120&#45;&gt;139998237874128</title>
<path fill="none" stroke="white" d="M387.22,-970.11C400.1,-976.44 412.77,-984.61 422.5,-995 428.6,-1001.52 433.15,-1009.84 436.51,-1018.16"/>
<polygon fill="white" stroke="white" points="433.29,-1019.57 439.93,-1027.83 439.89,-1017.23 433.29,-1019.57"/>
<text text-anchor="middle" x="535" y="-998.8" font-family="Times,serif" font-size="14.00" fill="white">323,520 row(s)/123 chunk(s)</text>
</g>
<!-- 139998237874768 -->
<g id="node7" class="node">
<title>139998237874768</title>
<g id="a_node7"><a xlink:title="Output: 323520 rows in 123 chunks, 6 ms 268 µs.&#10;Operator step runtimes:&#10; BuildSideMaterializing 153 µs 829 ns&#10; ProbeSideMaterializing 4 ms 447 µs&#10; Clustering 0 ns&#10; Building 87 µs 895 ns&#10; Probing 390 µs 954 ns&#10; OutputWriting 543 µs 590 ns.&#10;Radix bits: 0.&#10;Build side is right.">
<polygon fill="none" stroke="white" stroke-width="4.41" points="425.5,-872 231.5,-872 231.5,-803 425.5,-803 425.5,-872"/>
<text text-anchor="middle" x="328.5" y="-856.8" font-family="Times,serif" font-size="14.00" fill="white">JoinHash (Semi)</text>
<text text-anchor="middle" x="328.5" y="-841.8" font-family="Times,serif" font-size="14.00" fill="white">ps_suppkey = s_suppkey</text>
<text text-anchor="middle" x="328.5" y="-810.8" font-family="Times,serif" font-size="14.00" fill="white">6 ms 268 µs</text>
</a>
</g>
</g>
<!-- 139998237874768&#45;&gt;139998236015120 -->
<g id="edge7" class="edge">
<title>139998237874768&#45;&gt;139998236015120</title>
<path fill="none" stroke="white" d="M328.5,-872.25C328.5,-885.07 328.5,-899.73 328.5,-912.77"/>
<polygon fill="white" stroke="white" points="325,-912.81 328.5,-922.81 332,-912.81 325,-912.81"/>
<text text-anchor="middle" x="431" y="-893.8" font-family="Times,serif" font-size="14.00" fill="white">323,520 row(s)/123 chunk(s)</text>
</g>
<!-- 139979133135248 -->
<g id="node8" class="node">
<title>139979133135248</title>
<g id="a_node8"><a xlink:title="Output: 8000000 rows in 123 chunks, 323 µs 637 ns.">
<polygon fill="none" stroke="white" points="268.5,-752 146.5,-752 146.5,-638 268.5,-638 268.5,-752"/>
<text text-anchor="middle" x="207.5" y="-736.8" font-family="Times,serif" font-size="14.00" fill="white">GetTable</text>
<text text-anchor="middle" x="207.5" y="-721.8" font-family="Times,serif" font-size="14.00" fill="white">(partsupp)</text>
<text text-anchor="middle" x="207.5" y="-706.8" font-family="Times,serif" font-size="14.00" fill="white">pruned:</text>
<text text-anchor="middle" x="207.5" y="-691.8" font-family="Times,serif" font-size="14.00" fill="white">0/123 chunk(s)</text>
<text text-anchor="middle" x="207.5" y="-676.8" font-family="Times,serif" font-size="14.00" fill="white">1/5 column(s)</text>
<text text-anchor="middle" x="207.5" y="-645.8" font-family="Times,serif" font-size="14.00" fill="white">323 µs 637 ns</text>
</a>
</g>
</g>
<!-- 139979133135248&#45;&gt;139998237874768 -->
<g id="edge8" class="edge">
<title>139979133135248&#45;&gt;139998237874768</title>
<path fill="none" stroke="white" stroke-width="8" d="M198.65,-752.1C199.32,-763.73 202.07,-775.36 208.5,-785 212.61,-791.16 217.62,-796.58 223.24,-801.36"/>
<polygon fill="white" stroke="white" stroke-width="8" points="223.31,-801.41 219.06,-806.98 231.25,-807.49 223.31,-801.41"/>
<text text-anchor="middle" x="318" y="-773.8" font-family="Times,serif" font-size="14.00" fill="white">8,000,000 row(s)/123 chunk(s)</text>
</g>
<!-- 139998236369680 -->
<g id="node9" class="node">
<title>139998236369680</title>
<g id="a_node9"><a xlink:title="Output: 4044 rows in 2 chunks, 4 µs 358 ns.">
<polygon fill="none" stroke="white" points="499,-722 400,-722 400,-668 499,-668 499,-722"/>
<text text-anchor="middle" x="449.5" y="-706.8" font-family="Times,serif" font-size="14.00" fill="white">Validate</text>
<text text-anchor="middle" x="449.5" y="-675.8" font-family="Times,serif" font-size="14.00" fill="white">4 µs 358 ns</text>
</a>
</g>
</g>
<!-- 139998236369680&#45;&gt;139998237874768 -->
<g id="edge9" class="edge">
<title>139998236369680&#45;&gt;139998237874768</title>
<path fill="none" stroke="white" d="M448.65,-722.26C446.79,-741.44 441.58,-767.11 427.5,-785 424.29,-789.08 420.66,-792.87 416.75,-796.39"/>
<polygon fill="white" stroke="white" points="408.89,-802.82 418.84,-799.2 416.62,-796.49 408.89,-802.82"/>
<text text-anchor="middle" x="522" y="-773.8" font-family="Times,serif" font-size="14.00" fill="white">4,044 row(s)/2 chunk(s)</text>
</g>
<!-- 139998237875728 -->
<g id="node10" class="node">
<title>139998237875728</title>
<g id="a_node10"><a xlink:title="Output: 4044 rows in 2 chunks, 390 µs 482 ns.&#10;Operator step runtimes:&#10; BuildSideMaterializing 41 µs 267 ns&#10; ProbeSideMaterializing 244 µs 218 ns&#10; Clustering 0 ns&#10; Building 4 µs 979 ns&#10; Probing 43 µs 682 ns&#10; OutputWriting 25 µs 408 ns.&#10;Radix bits: 0.&#10;Build side is right.">
<polygon fill="none" stroke="white" points="553,-587 346,-587 346,-518 553,-518 553,-587"/>
<text text-anchor="middle" x="449.5" y="-571.8" font-family="Times,serif" font-size="14.00" fill="white">JoinHash (Semi)</text>
<text text-anchor="middle" x="449.5" y="-556.8" font-family="Times,serif" font-size="14.00" fill="white">s_nationkey = n_nationkey</text>
<text text-anchor="middle" x="449.5" y="-525.8" font-family="Times,serif" font-size="14.00" fill="white">390 µs 482 ns</text>
</a>
</g>
</g>
<!-- 139998237875728&#45;&gt;139998236369680 -->
<g id="edge10" class="edge">
<title>139998237875728&#45;&gt;139998236369680</title>
<path fill="none" stroke="white" d="M449.5,-587.15C449.5,-608.36 449.5,-635.75 449.5,-657.48"/>
<polygon fill="white" stroke="white" points="446,-657.65 449.5,-667.65 453,-657.65 446,-657.65"/>
<text text-anchor="middle" x="534" y="-608.8" font-family="Times,serif" font-size="14.00" fill="white">4,044 row(s)/2 chunk(s)</text>
</g>
<!-- 139979133137040 -->
<g id="node11" class="node">
<title>139979133137040</title>
<g id="a_node11"><a xlink:title="Output: 100000 rows in 2 chunks, 14 µs 417 ns.">
<polygon fill="none" stroke="white" points="401,-467 288,-467 288,-353 401,-353 401,-467"/>
<text text-anchor="middle" x="344.5" y="-451.8" font-family="Times,serif" font-size="14.00" fill="white">GetTable</text>
<text text-anchor="middle" x="344.5" y="-436.8" font-family="Times,serif" font-size="14.00" fill="white">(supplier)</text>
<text text-anchor="middle" x="344.5" y="-421.8" font-family="Times,serif" font-size="14.00" fill="white">pruned:</text>
<text text-anchor="middle" x="344.5" y="-406.8" font-family="Times,serif" font-size="14.00" fill="white">0/2 chunk(s)</text>
<text text-anchor="middle" x="344.5" y="-391.8" font-family="Times,serif" font-size="14.00" fill="white">5/7 column(s)</text>
<text text-anchor="middle" x="344.5" y="-360.8" font-family="Times,serif" font-size="14.00" fill="white">14 µs 417 ns</text>
</a>
</g>
</g>
<!-- 139979133137040&#45;&gt;139998237875728 -->
<g id="edge11" class="edge">
<title>139979133137040&#45;&gt;139998237875728</title>
<path fill="none" stroke="white" d="M336.07,-467.31C336.76,-478.8 339.42,-490.32 345.5,-500 347.98,-503.94 350.86,-507.6 354.05,-510.98"/>
<polygon fill="white" stroke="white" points="354.19,-511.11 351.79,-513.66 361.48,-517.95 354.19,-511.11"/>
<text text-anchor="middle" x="439" y="-488.8" font-family="Times,serif" font-size="14.00" fill="white">100,000 row(s)/2 chunk(s)</text>
</g>
<!-- 139998236015632 -->
<g id="node12" class="node">
<title>139998236015632</title>
<g id="a_node12"><a xlink:title="Output: 1 row in 1 chunk, 8 µs 627 ns.">
<polygon fill="none" stroke="white" points="604,-437 505,-437 505,-383 604,-383 604,-437"/>
<text text-anchor="middle" x="554.5" y="-421.8" font-family="Times,serif" font-size="14.00" fill="white">Validate</text>
<text text-anchor="middle" x="554.5" y="-390.8" font-family="Times,serif" font-size="14.00" fill="white">8 µs 627 ns</text>
</a>
</g>
</g>
<!-- 139998236015632&#45;&gt;139998237875728 -->
<g id="edge12" class="edge">
<title>139998236015632&#45;&gt;139998237875728</title>
<path fill="none" stroke="white" d="M553.21,-437.36C551.11,-456.34 545.8,-481.72 532.5,-500 529.66,-503.91 526.42,-507.58 522.91,-511.03"/>
<polygon fill="white" stroke="white" points="515.36,-517.79 525.14,-513.73 522.81,-511.12 515.36,-517.79"/>
<text text-anchor="middle" x="610.5" y="-488.8" font-family="Times,serif" font-size="14.00" fill="white">1 row(s)/1 chunk(s)</text>
</g>
<!-- 139998237876048 -->
<g id="node13" class="node">
<title>139998237876048</title>
<g id="a_node13"><a xlink:title="Output: 1 row in 1 chunk, 23 µs 774 ns.&#10;Chunks: 0 skipped with no results, &#10;0 skipped with all matching, 0 scanned using binary search.">
<polygon fill="none" stroke="white" points="639,-302 470,-302 470,-218 639,-218 639,-302"/>
<text text-anchor="middle" x="554.5" y="-286.8" font-family="Times,serif" font-size="14.00" fill="white">TableScan</text>
<text text-anchor="middle" x="554.5" y="-271.8" font-family="Times,serif" font-size="14.00" fill="white">Impl: ColumnVsValue</text>
<text text-anchor="middle" x="554.5" y="-256.8" font-family="Times,serif" font-size="14.00" fill="white">n_name = &#39;KENYA&#39;</text>
<text text-anchor="middle" x="554.5" y="-225.8" font-family="Times,serif" font-size="14.00" fill="white">23 µs 774 ns</text>
</a>
</g>
</g>
<!-- 139998237876048&#45;&gt;139998236015632 -->
<g id="edge13" class="edge">
<title>139998237876048&#45;&gt;139998236015632</title>
<path fill="none" stroke="white" d="M554.5,-302.23C554.5,-324.32 554.5,-351.31 554.5,-372.62"/>
<polygon fill="white" stroke="white" points="551,-372.88 554.5,-382.88 558,-372.88 551,-372.88"/>
<text text-anchor="middle" x="623.5" y="-323.8" font-family="Times,serif" font-size="14.00" fill="white">1 row(s)/1 chunk(s)</text>
</g>
<!-- 139979133137488 -->
<g id="node14" class="node">
<title>139979133137488</title>
<g id="a_node14"><a xlink:title="Output: 25 rows in 1 chunk, 16 µs 721 ns.">
<polygon fill="none" stroke="white" points="611,-140.5 498,-140.5 498,-26.5 611,-26.5 611,-140.5"/>
<text text-anchor="middle" x="554.5" y="-125.3" font-family="Times,serif" font-size="14.00" fill="white">GetTable</text>
<text text-anchor="middle" x="554.5" y="-110.3" font-family="Times,serif" font-size="14.00" fill="white">(nation)</text>
<text text-anchor="middle" x="554.5" y="-95.3" font-family="Times,serif" font-size="14.00" fill="white">pruned:</text>
<text text-anchor="middle" x="554.5" y="-80.3" font-family="Times,serif" font-size="14.00" fill="white">0/1 chunk(s)</text>
<text text-anchor="middle" x="554.5" y="-65.3" font-family="Times,serif" font-size="14.00" fill="white">2/4 column(s)</text>
<text text-anchor="middle" x="554.5" y="-34.3" font-family="Times,serif" font-size="14.00" fill="white">16 µs 721 ns</text>
</a>
</g>
</g>
<!-- 139979133137488&#45;&gt;139998237876048 -->
<g id="edge14" class="edge">
<title>139979133137488&#45;&gt;139998237876048</title>
<path fill="none" stroke="white" d="M554.5,-140.67C554.5,-162.25 554.5,-186.74 554.5,-207.83"/>
<polygon fill="white" stroke="white" points="551,-207.87 554.5,-217.87 558,-207.87 551,-207.87"/>
<text text-anchor="middle" x="628" y="-188.8" font-family="Times,serif" font-size="14.00" fill="white">25 row(s)/1 chunk(s)</text>
</g>
<!-- 139998236496528 -->
<g id="node15" class="node">
<title>139998236496528</title>
<g id="a_node15"><a xlink:title="Output: 1 row in 1 chunk, 372 µs 860 ns.&#10;Operator step runtimes:&#10; ForwardUnmodifiedColumns 491 ns&#10; EvaluateNewColumns 351 µs 851 ns&#10; BuildOutput 19 µs 36 ns.">
<polygon fill="none" stroke="white" points="510,-1391 393,-1391 393,-1337 510,-1337 510,-1391"/>
<text text-anchor="middle" x="451.5" y="-1375.8" font-family="Times,serif" font-size="14.00" fill="white">Projection</text>
<text text-anchor="middle" x="451.5" y="-1344.8" font-family="Times,serif" font-size="14.00" fill="white">372 µs 860 ns</text>
</a>
</g>
</g>
<!-- 139998236496528&#45;&gt;139998237875088 -->
<g id="edge15" class="edge">
<title>139998236496528&#45;&gt;139998237875088</title>
<path fill="none" stroke="white" stroke-dasharray="5,2" d="M400.11,-1391C373.64,-1404.4 340.35,-1421.25 308.73,-1437.25"/>
<polygon fill="white" stroke="white" points="306.77,-1434.32 299.42,-1441.96 309.93,-1440.56 306.77,-1434.32"/>
<text text-anchor="middle" x="446" y="-1412.8" font-family="Times,serif" font-size="14.00" fill="white">uncorrelated subquery</text>
</g>
<!-- 139998236058640 -->
<g id="node16" class="node">
<title>139998236058640</title>
<g id="a_node16"><a xlink:title="Output: 1 row in 1 chunk, 456 µs 727 ns.&#10;Operator step runtimes:&#10; GroupByKeyPartitioning 31 ns&#10; Aggregating 433 µs 453 ns&#10; GroupByColumnsWriting 1 µs 292 ns&#10; AggregateColumnsWriting 8 µs 767 ns&#10; OutputWriting 5 µs 360 ns.">
<polygon fill="none" stroke="white" points="578,-1217 319,-1217 319,-1133 578,-1133 578,-1217"/>
<text text-anchor="middle" x="448.5" y="-1201.8" font-family="Times,serif" font-size="14.00" fill="white">AggregateHash</text>
<text text-anchor="middle" x="448.5" y="-1186.8" font-family="Times,serif" font-size="14.00" fill="white">GroupBy {}</text>
<text text-anchor="middle" x="448.5" y="-1171.8" font-family="Times,serif" font-size="14.00" fill="white">SUM(ps_supplycost * ps_availqty)</text>
<text text-anchor="middle" x="448.5" y="-1140.8" font-family="Times,serif" font-size="14.00" fill="white">456 µs 727 ns</text>
</a>
</g>
</g>
<!-- 139998236058640&#45;&gt;139998236496528 -->
<g id="edge16" class="edge">
<title>139998236058640&#45;&gt;139998236496528</title>
<path fill="none" stroke="white" d="M449.16,-1217.04C449.68,-1249.78 450.41,-1295.22 450.92,-1326.66"/>
<polygon fill="white" stroke="white" points="447.42,-1326.81 451.08,-1336.75 454.42,-1326.7 447.42,-1326.81"/>
<text text-anchor="middle" x="520.5" y="-1273.3" font-family="Times,serif" font-size="14.00" fill="white">1 row(s)/1 chunk(s)</text>
</g>
<!-- 139998237874128&#45;&gt;139998236058640 -->
<g id="edge17" class="edge">
<title>139998237874128&#45;&gt;139998236058640</title>
<path fill="none" stroke="white" d="M446.17,-1082.19C446.47,-1094.1 446.84,-1108.63 447.19,-1122.58"/>
<polygon fill="white" stroke="white" points="443.69,-1122.68 447.45,-1132.59 450.69,-1122.5 443.69,-1122.68"/>
<text text-anchor="middle" x="550" y="-1103.8" font-family="Times,serif" font-size="14.00" fill="white">323,520 row(s)/123 chunk(s)</text>
</g>
<!-- 0 -->
<g id="node18" class="node">
<title>0</title>
<polygon fill="none" stroke="white" points="629,-0.5 629,-166.5 940,-166.5 940,-0.5 629,-0.5"/>
<text text-anchor="middle" x="784.5" y="-151.3" font-family="Times,serif" font-size="14.00" fill="white">Total by operator</text>
<polyline fill="none" stroke="white" points="629,-143.5 940,-143.5 "/>
<text text-anchor="end" x="753" y="-128.3" font-family="Times,serif" font-size="14.00" fill="white">AggregateHash </text>
<text text-anchor="end" x="753" y="-113.3" font-family="Times,serif" font-size="14.00" fill="white"> JoinHash </text>
<text text-anchor="end" x="753" y="-98.3" font-family="Times,serif" font-size="14.00" fill="white"> Projection </text>
<text text-anchor="end" x="753" y="-83.3" font-family="Times,serif" font-size="14.00" fill="white"> Sort </text>
<text text-anchor="end" x="753" y="-68.3" font-family="Times,serif" font-size="14.00" fill="white"> TableScan </text>
<text text-anchor="end" x="753" y="-53.3" font-family="Times,serif" font-size="14.00" fill="white"> GetTable </text>
<text text-anchor="end" x="753" y="-38.3" font-family="Times,serif" font-size="14.00" fill="white"> Validate </text>
<text text-anchor="end" x="753" y="-23.3" font-family="Times,serif" font-size="14.00" fill="white"> Alias </text>
<text text-anchor="end" x="753" y="-8.3" font-family="Times,serif" font-size="14.00" fill="white">total</text>
<polyline fill="none" stroke="white" points="761,-0.5 761,-143.5 "/>
<text text-anchor="start" x="769" y="-128.3" font-family="Times,serif" font-size="14.00" fill="white">27 ms 342 µs </text>
<text text-anchor="start" x="769" y="-113.3" font-family="Times,serif" font-size="14.00" fill="white"> 6 ms 658 µs </text>
<text text-anchor="start" x="769" y="-98.3" font-family="Times,serif" font-size="14.00" fill="white"> 3 ms 636 µs </text>
<text text-anchor="start" x="769" y="-83.3" font-family="Times,serif" font-size="14.00" fill="white"> 1 ms 95 µs </text>
<text text-anchor="start" x="769" y="-68.3" font-family="Times,serif" font-size="14.00" fill="white"> 379 µs 452 ns </text>
<text text-anchor="start" x="769" y="-53.3" font-family="Times,serif" font-size="14.00" fill="white"> 354 µs 775 ns </text>
<text text-anchor="start" x="769" y="-38.3" font-family="Times,serif" font-size="14.00" fill="white"> 264 µs 347 ns </text>
<text text-anchor="start" x="769" y="-23.3" font-family="Times,serif" font-size="14.00" fill="white"> 4 µs 579 ns </text>
<text text-anchor="start" x="769" y="-8.3" font-family="Times,serif" font-size="14.00" fill="white"> 39 ms 735 µs </text>
<polyline fill="none" stroke="white" points="887,-0.5 887,-143.5 "/>
<text text-anchor="start" x="895" y="-128.3" font-family="Times,serif" font-size="14.00" fill="white">69 %</text>
<text text-anchor="start" x="895" y="-113.3" font-family="Times,serif" font-size="14.00" fill="white">17 %</text>
<text text-anchor="start" x="895" y="-98.3" font-family="Times,serif" font-size="14.00" fill="white">9 %</text>
<text text-anchor="start" x="895" y="-83.3" font-family="Times,serif" font-size="14.00" fill="white">3 %</text>
<text text-anchor="start" x="895" y="-68.3" font-family="Times,serif" font-size="14.00" fill="white">1 %</text>
<text text-anchor="start" x="895" y="-53.3" font-family="Times,serif" font-size="14.00" fill="white">1 %</text>
<text text-anchor="start" x="895" y="-38.3" font-family="Times,serif" font-size="14.00" fill="white">1 %</text>
<text text-anchor="start" x="895" y="-23.3" font-family="Times,serif" font-size="14.00" fill="white">0 %</text>
<text text-anchor="start" x="895" y="-8.3" font-family="Times,serif" font-size="14.00" fill="white"> </text>
</g>
</g>
</svg>
