<?xml version="1.0" encoding="UTF-8" standalone="no"?>
<!DOCTYPE svg PUBLIC "-//W3C//DTD SVG 1.1//EN"
 "http://www.w3.org/Graphics/SVG/1.1/DTD/svg11.dtd">
<!-- Generated by graphviz version 2.43.0 (0)
 -->
<!-- Title: G Pages: 1 -->
<svg width="1049pt" height="1615pt"
 viewBox="0.00 0.00 1049.00 1615.00" xmlns="http://www.w3.org/2000/svg" xmlns:xlink="http://www.w3.org/1999/xlink">
<g id="graph0" class="graph" transform="scale(1 1) rotate(0) translate(4 1611)">
<title>G</title>
<polygon fill="black" stroke="transparent" points="-4,4 -4,-1611 1045,-1611 1045,4 -4,4"/>
<text text-anchor="middle" x="319.5" y="-1591.8" font-family="Times,serif" font-size="14.00" fill="white">For tooltips with advanced information, hover your mouse over vertices or edge labels.</text>
<!-- 281449215258448 -->
<g id="node1" class="node">
<title>281449215258448</title>
<polygon fill="none" stroke="white" points="786.5,-1552 549.5,-1552 549.5,-1516 786.5,-1516 786.5,-1552"/>
<text text-anchor="middle" x="668" y="-1530.3" font-family="Times,serif" font-size="14.00" fill="white">[Projection] s_name, s_address</text>
</g>
<!-- 281449226868880 -->
<g id="node2" class="node">
<title>281449226868880</title>
<polygon fill="none" stroke="white" points="770,-1465 566,-1465 566,-1429 770,-1429 770,-1465"/>
<text text-anchor="middle" x="668" y="-1443.3" font-family="Times,serif" font-size="14.00" fill="white">[Sort] s_name (Ascending)</text>
</g>
<!-- 281449226868880&#45;&gt;281449215258448 -->
<g id="edge1" class="edge">
<title>281449226868880&#45;&gt;281449215258448</title>
<path fill="none" stroke="white" d="M668,-1465.2C668,-1476.84 668,-1492.45 668,-1505.76"/>
<polygon fill="white" stroke="white" points="664.5,-1505.82 668,-1515.82 671.5,-1505.82 664.5,-1505.82"/>
<g id="a_edge1&#45;label"><a xlink:title="Output Expressions: &#10; (1) s_suppkey&#10; (2) s_name&#10; (3) s_address&#10; (4) s_nationkey&#10;&#10;Unique Column Combinations: &#10; (1) {s_suppkey}&#10;&#10;Functional Dependencies (trivial): &#10; (1) {s_suppkey} =&gt; {s_name, s_address, s_nationkey}&#10;&#10;Functional Dependencies (non&#45;trivial): &#10; &lt;none&gt;">
<text text-anchor="middle" x="760" y="-1486.8" font-family="Times,serif" font-size="14.00" fill="white"> 0.4 row(s) | 100.0% estd.</text>
</a>
</g>
</g>
<!-- 281414311939056 -->
<g id="node3" class="node">
<title>281414311939056</title>
<polygon fill="none" stroke="white" points="710.5,-1378 625.5,-1378 625.5,-1342 710.5,-1342 710.5,-1378"/>
<text text-anchor="middle" x="668" y="-1356.3" font-family="Times,serif" font-size="14.00" fill="white">[Validate]</text>
</g>
<!-- 281414311939056&#45;&gt;281449226868880 -->
<g id="edge2" class="edge">
<title>281414311939056&#45;&gt;281449226868880</title>
<path fill="none" stroke="white" d="M668,-1378.2C668,-1389.84 668,-1405.45 668,-1418.76"/>
<polygon fill="white" stroke="white" points="664.5,-1418.82 668,-1428.82 671.5,-1418.82 664.5,-1418.82"/>
<g id="a_edge2&#45;label"><a xlink:title="Output Expressions: &#10; (1) s_suppkey&#10; (2) s_name&#10; (3) s_address&#10; (4) s_nationkey&#10;&#10;Unique Column Combinations: &#10; (1) {s_suppkey}&#10;&#10;Functional Dependencies (trivial): &#10; (1) {s_suppkey} =&gt; {s_name, s_address, s_nationkey}&#10;&#10;Functional Dependencies (non&#45;trivial): &#10; &lt;none&gt;">
<text text-anchor="middle" x="760" y="-1399.8" font-family="Times,serif" font-size="14.00" fill="white"> 0.4 row(s) | 100.0% estd.</text>
</a>
</g>
</g>
<!-- 281449226870224 -->
<g id="node4" class="node">
<title>281449226870224</title>
<polygon fill="none" stroke="white" points="842.5,-1291 493.5,-1291 493.5,-1255 842.5,-1255 842.5,-1291"/>
<text text-anchor="middle" x="668" y="-1269.3" font-family="Times,serif" font-size="14.00" fill="white">[Join] Mode: Semi [s_nationkey = n_nationkey]</text>
</g>
<!-- 281449226870224&#45;&gt;281414311939056 -->
<g id="edge3" class="edge">
<title>281449226870224&#45;&gt;281414311939056</title>
<path fill="none" stroke="white" d="M668,-1291.2C668,-1302.84 668,-1318.45 668,-1331.76"/>
<polygon fill="white" stroke="white" points="664.5,-1331.82 668,-1341.82 671.5,-1331.82 664.5,-1331.82"/>
<g id="a_edge3&#45;label"><a xlink:title="Output Expressions: &#10; (1) s_suppkey&#10; (2) s_name&#10; (3) s_address&#10; (4) s_nationkey&#10;&#10;Unique Column Combinations: &#10; (1) {s_suppkey}&#10;&#10;Functional Dependencies (trivial): &#10; (1) {s_suppkey} =&gt; {s_name, s_address, s_nationkey}&#10;&#10;Functional Dependencies (non&#45;trivial): &#10; &lt;none&gt;">
<text text-anchor="middle" x="760" y="-1312.8" font-family="Times,serif" font-size="14.00" fill="white"> 0.4 row(s) | 100.0% estd.</text>
</a>
</g>
</g>
<!-- 281449226870800 -->
<g id="node5" class="node">
<title>281449226870800</title>
<polygon fill="none" stroke="white" points="722.5,-1204 387.5,-1204 387.5,-1168 722.5,-1168 722.5,-1204"/>
<text text-anchor="middle" x="555" y="-1182.3" font-family="Times,serif" font-size="14.00" fill="white">[Join] Mode: Semi [s_suppkey = ps_suppkey]</text>
</g>
<!-- 281449226870800&#45;&gt;281449226870224 -->
<g id="edge4" class="edge">
<title>281449226870800&#45;&gt;281449226870224</title>
<path fill="none" stroke="white" d="M566.35,-1204.37C573.83,-1214.81 584.37,-1227.82 596,-1237 602.14,-1241.84 609.05,-1246.25 616.11,-1250.17"/>
<polygon fill="white" stroke="white" points="616.22,-1250.23 614.59,-1253.33 625.07,-1254.89 616.22,-1250.23"/>
<g id="a_edge4&#45;label"><a xlink:title="Output Expressions: &#10; (1) s_suppkey&#10; (2) s_name&#10; (3) s_address&#10; (4) s_nationkey&#10;&#10;Unique Column Combinations: &#10; (1) {s_suppkey}&#10;&#10;Functional Dependencies (trivial): &#10; (1) {s_suppkey} =&gt; {s_name, s_address, s_nationkey}&#10;&#10;Functional Dependencies (non&#45;trivial): &#10; &lt;none&gt;">
<text text-anchor="middle" x="679" y="-1225.8" font-family="Times,serif" font-size="14.00" fill="white"> 0.4 row(s) | 0.0% estd.</text>
</a>
</g>
</g>
<!-- 281449213600912 -->
<g id="node6" class="node">
<title>281449213600912</title>
<polygon fill="none" stroke="white" points="716,-1117 394,-1117 394,-1079 716,-1079 716,-1117"/>
<text text-anchor="middle" x="555" y="-1101.8" font-family="Times,serif" font-size="14.00" fill="white">[StoredTable] Name: &#39;supplier&#39; pruned: 0/8</text>
<text text-anchor="middle" x="555" y="-1086.8" font-family="Times,serif" font-size="14.00" fill="white">chunk(s), 3/7 column(s)</text>
</g>
<!-- 281449213600912&#45;&gt;281449226870800 -->
<g id="edge5" class="edge">
<title>281449213600912&#45;&gt;281449226870800</title>
<path fill="none" stroke="white" d="M555,-1117.24C555,-1129.07 555,-1144.68 555,-1157.95"/>
<polygon fill="white" stroke="white" points="555,-1157.96 551.5,-1157.96 555,-1167.96 555,-1157.96"/>
<g id="a_edge5&#45;label"><a xlink:title="Output Expressions: &#10; (1) s_suppkey&#10; (2) s_name&#10; (3) s_address&#10; (4) s_nationkey&#10;&#10;Unique Column Combinations: &#10; (1) {s_suppkey}&#10;&#10;Functional Dependencies (trivial): &#10; (1) {s_suppkey} =&gt; {s_name, s_address, s_nationkey}&#10;&#10;Functional Dependencies (non&#45;trivial): &#10; &lt;none&gt;">
<text text-anchor="middle" x="672" y="-1138.8" font-family="Times,serif" font-size="14.00" fill="white"> 500,000.0 row(s) | 100.0% estd.</text>
</a>
</g>
</g>
<!-- 281449215261968 -->
<g id="node7" class="node">
<title>281449215261968</title>
<polygon fill="none" stroke="white" points="375.5,-1116 188.5,-1116 188.5,-1080 375.5,-1080 375.5,-1116"/>
<text text-anchor="middle" x="282" y="-1094.3" font-family="Times,serif" font-size="14.00" fill="white">[Projection] ps_suppkey</text>
</g>
<!-- 281449215261968&#45;&gt;281449226870800 -->
<g id="edge6" class="edge">
<title>281449215261968&#45;&gt;281449226870800</title>
<path fill="none" stroke="white" d="M305.37,-1116.15C321.83,-1127.42 344.79,-1141.58 367,-1150 383.5,-1156.25 401.26,-1161.42 419.03,-1165.68"/>
<polygon fill="white" stroke="white" points="428.9,-1167.95 419.94,-1162.3 419.16,-1165.71 428.9,-1167.95"/>
<g id="a_edge6&#45;label"><a xlink:title="Output Expressions: &#10; (1) ps_suppkey&#10;&#10;Unique Column Combinations: &#10; &lt;none&gt;&#10;&#10;Functional Dependencies (trivial): &#10; &lt;none&gt;&#10;&#10;Functional Dependencies (non&#45;trivial): &#10; &lt;none&gt;">
<text text-anchor="middle" x="459" y="-1138.8" font-family="Times,serif" font-size="14.00" fill="white"> 0.4 row(s) | 100.0% estd.</text>
</a>
</g>
</g>
<!-- 281449226872144 -->
<g id="node8" class="node">
<title>281449226872144</title>
<polygon fill="none" stroke="white" points="468,-1028 96,-1028 96,-975 468,-975 468,-1028"/>
<text text-anchor="middle" x="282" y="-1012.8" font-family="Times,serif" font-size="14.00" fill="white">[Join] Mode: Semi [ps_suppkey = l_suppkey]</text>
<text text-anchor="middle" x="282" y="-997.8" font-family="Times,serif" font-size="14.00" fill="white">[ps_availqty &gt; 0.5 * SUM(l_quantity)] [ps_partkey</text>
<text text-anchor="middle" x="282" y="-982.8" font-family="Times,serif" font-size="14.00" fill="white">= l_partkey]</text>
</g>
<!-- 281449226872144&#45;&gt;281449215261968 -->
<g id="edge7" class="edge">
<title>281449226872144&#45;&gt;281449215261968</title>
<path fill="none" stroke="white" d="M282,-1028.32C282,-1041.13 282,-1056.6 282,-1069.62"/>
<polygon fill="white" stroke="white" points="278.5,-1069.86 282,-1079.86 285.5,-1069.86 278.5,-1069.86"/>
<g id="a_edge7&#45;label"><a xlink:title="Output Expressions: &#10; (1) ps_partkey&#10; (2) ps_suppkey&#10; (3) ps_availqty&#10;&#10;Unique Column Combinations: &#10; (1) {ps_partkey, ps_suppkey}&#10;&#10;Functional Dependencies (trivial): &#10; (1) {ps_partkey, ps_suppkey} =&gt; {ps_availqty}&#10;&#10;Functional Dependencies (non&#45;trivial): &#10; &lt;none&gt;">
<text text-anchor="middle" x="374" y="-1049.8" font-family="Times,serif" font-size="14.00" fill="white"> 0.4 row(s) | 100.0% estd.</text>
</a>
</g>
</g>
<!-- 281449215261808 -->
<g id="node9" class="node">
<title>281449215261808</title>
<polygon fill="none" stroke="white" points="354.5,-480 269.5,-480 269.5,-444 354.5,-444 354.5,-480"/>
<text text-anchor="middle" x="312" y="-458.3" font-family="Times,serif" font-size="14.00" fill="white">[Validate]</text>
</g>
<!-- 281449215261808&#45;&gt;281449226872144 -->
<g id="edge8" class="edge">
<title>281449215261808&#45;&gt;281449226872144</title>
<path fill="none" stroke="white" d="M296.43,-480.25C283.08,-496.87 266,-523.35 266,-550 266,-550 266,-550 266,-906 266,-925.61 269.39,-947.2 273.05,-964.78"/>
<polygon fill="white" stroke="white" points="273.07,-964.86 269.65,-965.61 275.21,-974.63 273.07,-964.86"/>
<g id="a_edge8&#45;label"><a xlink:title="Output Expressions: &#10; (1) ps_partkey&#10; (2) ps_suppkey&#10; (3) ps_availqty&#10;&#10;Unique Column Combinations: &#10; (1) {ps_partkey, ps_suppkey}&#10;&#10;Functional Dependencies (trivial): &#10; (1) {ps_partkey, ps_suppkey} =&gt; {ps_availqty}&#10;&#10;Functional Dependencies (non&#45;trivial): &#10; &lt;none&gt;">
<text text-anchor="middle" x="358" y="-724.3" font-family="Times,serif" font-size="14.00" fill="white"> 0.4 row(s) | 100.0% estd.</text>
</a>
</g>
</g>
<!-- 281414505057616 -->
<g id="node19" class="node">
<title>281414505057616</title>
<polygon fill="none" stroke="white" points="677,-659 345,-659 345,-621 677,-621 677,-659"/>
<text text-anchor="middle" x="511" y="-643.8" font-family="Times,serif" font-size="14.00" fill="white">[Join] Mode: Semi [ps_suppkey = l_suppkey]</text>
<text text-anchor="middle" x="511" y="-628.8" font-family="Times,serif" font-size="14.00" fill="white">(SemiJoinReductionRule)</text>
</g>
<!-- 281449215261808&#45;&gt;281414505057616 -->
<g id="edge10" class="edge">
<title>281449215261808&#45;&gt;281414505057616</title>
<path fill="none" stroke="white" d="M308.25,-480.18C304.28,-503.14 301.06,-543.94 321,-570 337.91,-592.09 362.56,-607.12 388.54,-617.34"/>
<polygon fill="white" stroke="white" points="398.16,-620.89 389.99,-614.14 388.78,-617.42 398.16,-620.89"/>
<g id="a_edge10&#45;label"><a xlink:title="Output Expressions: &#10; (1) ps_partkey&#10; (2) ps_suppkey&#10; (3) ps_availqty&#10;&#10;Unique Column Combinations: &#10; (1) {ps_partkey, ps_suppkey}&#10;&#10;Functional Dependencies (trivial): &#10; (1) {ps_partkey, ps_suppkey} =&gt; {ps_availqty}&#10;&#10;Functional Dependencies (non&#45;trivial): &#10; &lt;none&gt;">
<text text-anchor="middle" x="413" y="-547.3" font-family="Times,serif" font-size="14.00" fill="white"> 0.4 row(s) | 100.0% estd.</text>
</a>
</g>
</g>
<!-- 281449226870032 -->
<g id="node20" class="node">
<title>281449226870032</title>
<polygon fill="none" stroke="white" points="837.5,-570 514.5,-570 514.5,-532 837.5,-532 837.5,-570"/>
<text text-anchor="middle" x="676" y="-554.8" font-family="Times,serif" font-size="14.00" fill="white">[Join] Mode: Semi [ps_partkey = l_partkey]</text>
<text text-anchor="middle" x="676" y="-539.8" font-family="Times,serif" font-size="14.00" fill="white">(SemiJoinReductionRule)</text>
</g>
<!-- 281449215261808&#45;&gt;281449226870032 -->
<g id="edge9" class="edge">
<title>281449215261808&#45;&gt;281449226870032</title>
<path fill="none" stroke="white" d="M354.74,-476.59C390.2,-487.58 442.06,-502.97 488,-514 511.86,-519.73 537.59,-525.15 562.13,-529.96"/>
<polygon fill="white" stroke="white" points="572.2,-531.91 563.05,-526.57 562.38,-530.01 572.2,-531.91"/>
<g id="a_edge9&#45;label"><a xlink:title="Output Expressions: &#10; (1) ps_partkey&#10; (2) ps_suppkey&#10; (3) ps_availqty&#10;&#10;Unique Column Combinations: &#10; (1) {ps_partkey, ps_suppkey}&#10;&#10;Functional Dependencies (trivial): &#10; (1) {ps_partkey, ps_suppkey} =&gt; {ps_availqty}&#10;&#10;Functional Dependencies (non&#45;trivial): &#10; &lt;none&gt;">
<text text-anchor="middle" x="580" y="-502.8" font-family="Times,serif" font-size="14.00" fill="white"> 0.4 row(s) | 100.0% estd.</text>
</a>
</g>
</g>
<!-- 281449226871184 -->
<g id="node10" class="node">
<title>281449226871184</title>
<polygon fill="none" stroke="white" points="476,-391 148,-391 148,-355 476,-355 476,-391"/>
<text text-anchor="middle" x="312" y="-369.3" font-family="Times,serif" font-size="14.00" fill="white">[Join] Mode: Semi [ps_partkey = p_partkey]</text>
</g>
<!-- 281449226871184&#45;&gt;281449215261808 -->
<g id="edge11" class="edge">
<title>281449226871184&#45;&gt;281449215261808</title>
<path fill="none" stroke="white" d="M312,-391.19C312,-403.34 312,-419.89 312,-433.82"/>
<polygon fill="white" stroke="white" points="308.5,-433.85 312,-443.85 315.5,-433.85 308.5,-433.85"/>
<g id="a_edge11&#45;label"><a xlink:title="Output Expressions: &#10; (1) ps_partkey&#10; (2) ps_suppkey&#10; (3) ps_availqty&#10;&#10;Unique Column Combinations: &#10; (1) {ps_partkey, ps_suppkey}&#10;&#10;Functional Dependencies (trivial): &#10; (1) {ps_partkey, ps_suppkey} =&gt; {ps_availqty}&#10;&#10;Functional Dependencies (non&#45;trivial): &#10; &lt;none&gt;">
<text text-anchor="middle" x="395" y="-413.8" font-family="Times,serif" font-size="14.00" fill="white"> 0.4 row(s) | 0.0% estd.</text>
</a>
</g>
</g>
<!-- 281449213603152 -->
<g id="node11" class="node">
<title>281449213603152</title>
<polygon fill="none" stroke="white" points="346,-303 0,-303 0,-265 346,-265 346,-303"/>
<text text-anchor="middle" x="173" y="-287.8" font-family="Times,serif" font-size="14.00" fill="white">[StoredTable] Name: &#39;partsupp&#39; pruned: 0/611</text>
<text text-anchor="middle" x="173" y="-272.8" font-family="Times,serif" font-size="14.00" fill="white">chunk(s), 2/5 column(s)</text>
</g>
<!-- 281449213603152&#45;&gt;281449226871184 -->
<g id="edge12" class="edge">
<title>281449213603152&#45;&gt;281449226871184</title>
<path fill="none" stroke="white" stroke-width="3.03" d="M168.31,-303.33C166.73,-313.95 166.87,-326.96 174,-336 178.86,-342.16 189.77,-347.48 203.44,-351.99"/>
<polygon fill="white" stroke="white" stroke-width="3.03" points="203.73,-352.08 202.71,-355.43 213.3,-354.99 203.73,-352.08"/>
<g id="a_edge12&#45;label"><a xlink:title="Output Expressions: &#10; (1) ps_partkey&#10; (2) ps_suppkey&#10; (3) ps_availqty&#10;&#10;Unique Column Combinations: &#10; (1) {ps_partkey, ps_suppkey}&#10;&#10;Functional Dependencies (trivial): &#10; (1) {ps_partkey, ps_suppkey} =&gt; {ps_availqty}&#10;&#10;Functional Dependencies (non&#45;trivial): &#10; &lt;none&gt;">
<text text-anchor="middle" x="302" y="-324.8" font-family="Times,serif" font-size="14.00" fill="white"> 40,000,000.0 row(s) | 100.0% estd.</text>
</a>
</g>
</g>
<!-- 281449215262768 -->
<g id="node12" class="node">
<title>281449215262768</title>
<polygon fill="none" stroke="white" points="539.5,-302 364.5,-302 364.5,-266 539.5,-266 539.5,-302"/>
<text text-anchor="middle" x="452" y="-280.3" font-family="Times,serif" font-size="14.00" fill="white">[Projection] p_partkey</text>
</g>
<!-- 281449215262768&#45;&gt;281449226871184 -->
<g id="edge13" class="edge">
<title>281449215262768&#45;&gt;281449226871184</title>
<path fill="none" stroke="white" d="M448.47,-302.35C445.37,-313.41 439.77,-327.26 430,-336 423.63,-341.7 416.38,-346.49 408.68,-350.53"/>
<polygon fill="white" stroke="white" points="399.46,-354.93 410,-353.78 408.49,-350.62 399.46,-354.93"/>
<g id="a_edge13&#45;label"><a xlink:title="Output Expressions: &#10; (1) p_partkey&#10;&#10;Unique Column Combinations: &#10; (1) {p_partkey}&#10;&#10;Functional Dependencies (trivial): &#10; &lt;none&gt;&#10;&#10;Functional Dependencies (non&#45;trivial): &#10; &lt;none&gt;">
<text text-anchor="middle" x="533" y="-324.8" font-family="Times,serif" font-size="14.00" fill="white"> 0.1 row(s) | 100.0% estd.</text>
</a>
</g>
</g>
<!-- 281449215262608 -->
<g id="node13" class="node">
<title>281449215262608</title>
<polygon fill="none" stroke="white" points="494.5,-214 409.5,-214 409.5,-178 494.5,-178 494.5,-214"/>
<text text-anchor="middle" x="452" y="-192.3" font-family="Times,serif" font-size="14.00" fill="white">[Validate]</text>
</g>
<!-- 281449215262608&#45;&gt;281449215262768 -->
<g id="edge14" class="edge">
<title>281449215262608&#45;&gt;281449215262768</title>
<path fill="none" stroke="white" d="M452,-214.4C452,-226.25 452,-242.18 452,-255.71"/>
<polygon fill="white" stroke="white" points="448.5,-255.92 452,-265.92 455.5,-255.92 448.5,-255.92"/>
<g id="a_edge14&#45;label"><a xlink:title="Output Expressions: &#10; (1) p_partkey&#10; (2) p_name&#10;&#10;Unique Column Combinations: &#10; (1) {p_partkey}&#10;&#10;Functional Dependencies (trivial): &#10; (1) {p_partkey} =&gt; {p_name}&#10;&#10;Functional Dependencies (non&#45;trivial): &#10; &lt;none&gt;">
<text text-anchor="middle" x="544" y="-235.8" font-family="Times,serif" font-size="14.00" fill="white"> 0.1 row(s) | 100.0% estd.</text>
</a>
</g>
</g>
<!-- 281449226871376 -->
<g id="node14" class="node">
<title>281449226871376</title>
<polygon fill="none" stroke="white" points="666.5,-127 237.5,-127 237.5,-89 666.5,-89 666.5,-127"/>
<text text-anchor="middle" x="452" y="-111.8" font-family="Times,serif" font-size="14.00" fill="white">[Predicate] p_name BETWEEN UPPER EXCLUSIVE &#39;drab&#39;</text>
<text text-anchor="middle" x="452" y="-96.8" font-family="Times,serif" font-size="14.00" fill="white">AND &#39;drac&#39;</text>
</g>
<!-- 281449226871376&#45;&gt;281449215262608 -->
<g id="edge15" class="edge">
<title>281449226871376&#45;&gt;281449215262608</title>
<path fill="none" stroke="white" d="M452,-127.24C452,-139.07 452,-154.68 452,-167.95"/>
<polygon fill="white" stroke="white" points="448.5,-167.96 452,-177.96 455.5,-167.96 448.5,-167.96"/>
<g id="a_edge15&#45;label"><a xlink:title="Output Expressions: &#10; (1) p_partkey&#10; (2) p_name&#10;&#10;Unique Column Combinations: &#10; (1) {p_partkey}&#10;&#10;Functional Dependencies (trivial): &#10; (1) {p_partkey} =&gt; {p_name}&#10;&#10;Functional Dependencies (non&#45;trivial): &#10; &lt;none&gt;">
<text text-anchor="middle" x="535" y="-148.8" font-family="Times,serif" font-size="14.00" fill="white"> 0.1 row(s) | 0.0% estd.</text>
</a>
</g>
</g>
<!-- 281449213604112 -->
<g id="node15" class="node">
<title>281449213604112</title>
<polygon fill="none" stroke="white" points="642.5,-38 261.5,-38 261.5,0 642.5,0 642.5,-38"/>
<text text-anchor="middle" x="452" y="-22.8" font-family="Times,serif" font-size="14.00" fill="white">[StoredTable] Name: &#39;part&#39; pruned: 0/153 chunk(s),</text>
<text text-anchor="middle" x="452" y="-7.8" font-family="Times,serif" font-size="14.00" fill="white">7/9 column(s)</text>
</g>
<!-- 281449213604112&#45;&gt;281449226871376 -->
<g id="edge16" class="edge">
<title>281449213604112&#45;&gt;281449226871376</title>
<path fill="none" stroke="white" d="M452,-38.03C452,-49.81 452,-65.44 452,-78.84"/>
<polygon fill="white" stroke="white" points="448.5,-79 452,-89 455.5,-79 448.5,-79"/>
<g id="a_edge16&#45;label"><a xlink:title="Output Expressions: &#10; (1) p_partkey&#10; (2) p_name&#10;&#10;Unique Column Combinations: &#10; (1) {p_partkey}&#10;&#10;Functional Dependencies (trivial): &#10; (1) {p_partkey} =&gt; {p_name}&#10;&#10;Functional Dependencies (non&#45;trivial): &#10; &lt;none&gt;">
<text text-anchor="middle" x="580" y="-59.8" font-family="Times,serif" font-size="14.00" fill="white"> 10,000,000.0 row(s) | 100.0% estd.</text>
</a>
</g>
</g>
<!-- 281449215262288 -->
<g id="node16" class="node">
<title>281449215262288</title>
<polygon fill="none" stroke="white" points="647,-924 305,-924 305,-886 647,-886 647,-924"/>
<text text-anchor="middle" x="476" y="-908.8" font-family="Times,serif" font-size="14.00" fill="white">[Projection] 0.5 * SUM(l_quantity), l_suppkey,</text>
<text text-anchor="middle" x="476" y="-893.8" font-family="Times,serif" font-size="14.00" fill="white">l_partkey</text>
</g>
<!-- 281449215262288&#45;&gt;281449226872144 -->
<g id="edge17" class="edge">
<title>281449215262288&#45;&gt;281449226872144</title>
<path fill="none" stroke="white" d="M438.59,-924.22C411.74,-937.3 374.93,-955.23 343.75,-970.42"/>
<polygon fill="white" stroke="white" points="334.69,-974.83 345.21,-973.6 343.68,-970.45 334.69,-974.83"/>
<g id="a_edge17&#45;label"><a xlink:title="Output Expressions: &#10; (1) 0.5 * SUM(l_quantity) NULL&#10; (2) l_suppkey&#10; (3) l_partkey&#10;&#10;Unique Column Combinations: &#10; (1) {l_partkey, l_suppkey}&#10;&#10;Functional Dependencies (trivial): &#10; (1) {l_partkey, l_suppkey} =&gt; {0.5 * SUM(l_quantity)}&#10;&#10;Functional Dependencies (non&#45;trivial): &#10; &lt;none&gt;">
<text text-anchor="middle" x="495" y="-945.8" font-family="Times,serif" font-size="14.00" fill="white"> 0.4 row(s) | 100.0% estd.</text>
</a>
</g>
</g>
<!-- 281449226871952 -->
<g id="node17" class="node">
<title>281449226871952</title>
<polygon fill="none" stroke="white" points="668,-835 336,-835 336,-797 668,-797 668,-835"/>
<text text-anchor="middle" x="502" y="-819.8" font-family="Times,serif" font-size="14.00" fill="white">[Aggregate] GroupBy: [l_suppkey, l_partkey]</text>
<text text-anchor="middle" x="502" y="-804.8" font-family="Times,serif" font-size="14.00" fill="white">Aggregates: [SUM(l_quantity)]</text>
</g>
<!-- 281449226871952&#45;&gt;281449215262288 -->
<g id="edge18" class="edge">
<title>281449226871952&#45;&gt;281449215262288</title>
<path fill="none" stroke="white" d="M496.61,-835.03C493.06,-846.92 488.33,-862.75 484.3,-876.24"/>
<polygon fill="white" stroke="white" points="480.89,-875.41 481.38,-886 487.6,-877.42 480.89,-875.41"/>
<g id="a_edge18&#45;label"><a xlink:title="Output Expressions: &#10; (1) l_suppkey&#10; (2) l_partkey&#10; (3) SUM(l_quantity) NULL&#10;&#10;Unique Column Combinations: &#10; (1) {l_partkey, l_suppkey}&#10;&#10;Functional Dependencies (trivial): &#10; (1) {l_partkey, l_suppkey} =&gt; {SUM(l_quantity)}&#10;&#10;Functional Dependencies (non&#45;trivial): &#10; &lt;none&gt;">
<text text-anchor="middle" x="583" y="-856.8" font-family="Times,serif" font-size="14.00" fill="white"> 0.4 row(s) | 100.0% estd.</text>
</a>
</g>
</g>
<!-- 281449215262128 -->
<g id="node18" class="node">
<title>281449215262128</title>
<polygon fill="none" stroke="white" points="553.5,-746 468.5,-746 468.5,-710 553.5,-710 553.5,-746"/>
<text text-anchor="middle" x="511" y="-724.3" font-family="Times,serif" font-size="14.00" fill="white">[Validate]</text>
</g>
<!-- 281449215262128&#45;&gt;281449226871952 -->
<g id="edge19" class="edge">
<title>281449215262128&#45;&gt;281449226871952</title>
<path fill="none" stroke="white" d="M509.18,-746.4C507.97,-757.94 506.36,-773.35 504.97,-786.64"/>
<polygon fill="white" stroke="white" points="501.47,-786.42 503.91,-796.73 508.43,-787.15 501.47,-786.42"/>
<g id="a_edge19&#45;label"><a xlink:title="Output Expressions: &#10; (1) l_partkey&#10; (2) l_suppkey&#10; (3) l_quantity&#10; (4) l_shipdate&#10;&#10;Unique Column Combinations: &#10; &lt;none&gt;&#10;&#10;Functional Dependencies (trivial): &#10; &lt;none&gt;&#10;&#10;Functional Dependencies (non&#45;trivial): &#10; &lt;none&gt;">
<text text-anchor="middle" x="600" y="-767.8" font-family="Times,serif" font-size="14.00" fill="white"> 0.4 row(s) | 100.0% estd.</text>
</a>
</g>
</g>
<!-- 281414505057616&#45;&gt;281449215262128 -->
<g id="edge20" class="edge">
<title>281414505057616&#45;&gt;281449215262128</title>
<path fill="none" stroke="white" d="M511,-659.24C511,-671.07 511,-686.68 511,-699.95"/>
<polygon fill="white" stroke="white" points="507.5,-699.96 511,-709.96 514.5,-699.96 507.5,-699.96"/>
<g id="a_edge20&#45;label"><a xlink:title="Output Expressions: &#10; (1) l_partkey&#10; (2) l_suppkey&#10; (3) l_quantity&#10; (4) l_shipdate&#10;&#10;Unique Column Combinations: &#10; &lt;none&gt;&#10;&#10;Functional Dependencies (trivial): &#10; &lt;none&gt;&#10;&#10;Functional Dependencies (non&#45;trivial): &#10; &lt;none&gt;">
<text text-anchor="middle" x="598.5" y="-680.8" font-family="Times,serif" font-size="14.00" fill="white"> 0.4 row(s) | 89.1% estd.</text>
</a>
</g>
</g>
<!-- 281449226870032&#45;&gt;281414505057616 -->
<g id="edge21" class="edge">
<title>281449226870032&#45;&gt;281414505057616</title>
<path fill="none" stroke="white" d="M641.81,-570.03C616.37,-583.44 581.46,-601.85 554.11,-616.27"/>
<polygon fill="white" stroke="white" points="553.99,-616.33 552.36,-613.24 545.14,-621 553.99,-616.33"/>
<g id="a_edge21&#45;label"><a xlink:title="Output Expressions: &#10; (1) l_partkey&#10; (2) l_suppkey&#10; (3) l_quantity&#10; (4) l_shipdate&#10;&#10;Unique Column Combinations: &#10; &lt;none&gt;&#10;&#10;Functional Dependencies (trivial): &#10; &lt;none&gt;&#10;&#10;Functional Dependencies (non&#45;trivial): &#10; &lt;none&gt;">
<text text-anchor="middle" x="687" y="-591.8" font-family="Times,serif" font-size="14.00" fill="white"> 0.4 row(s) | 0.0% estd.</text>
</a>
</g>
</g>
<!-- 281449226871760 -->
<g id="node21" class="node">
<title>281449226871760</title>
<polygon fill="none" stroke="white" points="877,-481 475,-481 475,-443 877,-443 877,-481"/>
<text text-anchor="middle" x="676" y="-465.8" font-family="Times,serif" font-size="14.00" fill="white">[Predicate] l_shipdate BETWEEN UPPER EXCLUSIVE</text>
<text text-anchor="middle" x="676" y="-450.8" font-family="Times,serif" font-size="14.00" fill="white">&#39;1996&#45;01&#45;01&#39; AND &#39;1997&#45;01&#45;01&#39;</text>
</g>
<!-- 281449226871760&#45;&gt;281449226870032 -->
<g id="edge22" class="edge">
<title>281449226871760&#45;&gt;281449226870032</title>
<path fill="none" stroke="white" stroke-width="3.31" d="M676,-481.03C676,-492.81 676,-508.44 676,-521.84"/>
<polygon fill="white" stroke="white" stroke-width="3.31" points="676,-522 672.5,-522 676,-532 676,-522"/>
<g id="a_edge22&#45;label"><a xlink:title="Output Expressions: &#10; (1) l_partkey&#10; (2) l_suppkey&#10; (3) l_quantity&#10; (4) l_shipdate&#10;&#10;Unique Column Combinations: &#10; &lt;none&gt;&#10;&#10;Functional Dependencies (trivial): &#10; &lt;none&gt;&#10;&#10;Functional Dependencies (non&#45;trivial): &#10; &lt;none&gt;">
<text text-anchor="middle" x="799.5" y="-502.8" font-family="Times,serif" font-size="14.00" fill="white"> 44,878,648.0 row(s) | 15.0% estd.</text>
</a>
</g>
</g>
<!-- 281449213603792 -->
<g id="node22" class="node">
<title>281449213603792</title>
<polygon fill="none" stroke="white" points="850.5,-392 501.5,-392 501.5,-354 850.5,-354 850.5,-392"/>
<text text-anchor="middle" x="676" y="-376.8" font-family="Times,serif" font-size="14.00" fill="white">[StoredTable] Name: &#39;lineitem&#39; pruned: 0/4578</text>
<text text-anchor="middle" x="676" y="-361.8" font-family="Times,serif" font-size="14.00" fill="white">chunk(s), 12/16 column(s)</text>
</g>
<!-- 281449213603792&#45;&gt;281449226871760 -->
<g id="edge23" class="edge">
<title>281449213603792&#45;&gt;281449226871760</title>
<path fill="none" stroke="white" stroke-width="8" d="M676,-392.03C676,-403.81 676,-419.44 676,-432.84"/>
<polygon fill="white" stroke="white" stroke-width="8" points="669,-433 676,-443 683,-433 669,-433"/>
<g id="a_edge23&#45;label"><a xlink:title="Output Expressions: &#10; (1) l_partkey&#10; (2) l_suppkey&#10; (3) l_quantity&#10; (4) l_shipdate&#10;&#10;Unique Column Combinations: &#10; &lt;none&gt;&#10;&#10;Functional Dependencies (trivial): &#10; &lt;none&gt;&#10;&#10;Functional Dependencies (non&#45;trivial): &#10; &lt;none&gt;">
<text text-anchor="middle" x="808.5" y="-413.8" font-family="Times,serif" font-size="14.00" fill="white"> 300,005,824.0 row(s) | 100.0% estd.</text>
</a>
</g>
</g>
<!-- 281449215259248 -->
<g id="node23" class="node">
<title>281449215259248</title>
<polygon fill="none" stroke="white" points="848.5,-1204 763.5,-1204 763.5,-1168 848.5,-1168 848.5,-1204"/>
<text text-anchor="middle" x="806" y="-1182.3" font-family="Times,serif" font-size="14.00" fill="white">[Validate]</text>
</g>
<!-- 281449215259248&#45;&gt;281449226870224 -->
<g id="edge24" class="edge">
<title>281449215259248&#45;&gt;281449226870224</title>
<path fill="none" stroke="white" d="M794.24,-1204.26C786.22,-1214.93 774.76,-1228.22 762,-1237 754.23,-1242.35 745.54,-1247 736.66,-1251.01"/>
<polygon fill="white" stroke="white" points="727.38,-1254.96 737.95,-1254.27 736.58,-1251.05 727.38,-1254.96"/>
<g id="a_edge24&#45;label"><a xlink:title="Output Expressions: &#10; (1) n_nationkey&#10; (2) n_name&#10;&#10;Unique Column Combinations: &#10; (1) {n_nationkey}&#10;&#10;Functional Dependencies (trivial): &#10; (1) {n_nationkey} =&gt; {n_name}&#10;&#10;Functional Dependencies (non&#45;trivial): &#10; &lt;none&gt;">
<text text-anchor="middle" x="871" y="-1225.8" font-family="Times,serif" font-size="14.00" fill="white"> 1.0 row(s) | 100.0% estd.</text>
</a>
</g>
</g>
<!-- 281449226869456 -->
<g id="node24" class="node">
<title>281449226869456</title>
<polygon fill="none" stroke="white" points="962,-1116 734,-1116 734,-1080 962,-1080 962,-1116"/>
<text text-anchor="middle" x="848" y="-1094.3" font-family="Times,serif" font-size="14.00" fill="white">[Predicate] n_name = &#39;JAPAN&#39;</text>
</g>
<!-- 281449226869456&#45;&gt;281449215259248 -->
<g id="edge25" class="edge">
<title>281449226869456&#45;&gt;281449215259248</title>
<path fill="none" stroke="white" d="M839.5,-1116.4C833.54,-1128.61 825.47,-1145.13 818.74,-1158.91"/>
<polygon fill="white" stroke="white" points="815.59,-1157.39 814.34,-1167.92 821.88,-1160.47 815.59,-1157.39"/>
<g id="a_edge25&#45;label"><a xlink:title="Output Expressions: &#10; (1) n_nationkey&#10; (2) n_name&#10;&#10;Unique Column Combinations: &#10; (1) {n_nationkey}&#10;&#10;Functional Dependencies (trivial): &#10; (1) {n_nationkey} =&gt; {n_name}&#10;&#10;Functional Dependencies (non&#45;trivial): &#10; &lt;none&gt;">
<text text-anchor="middle" x="913" y="-1138.8" font-family="Times,serif" font-size="14.00" fill="white"> 1.0 row(s) | 4.0% estd.</text>
</a>
</g>
</g>
<!-- 281449213601872 -->
<g id="node25" class="node">
<title>281449213601872</title>
<polygon fill="none" stroke="white" points="1037,-1020.5 659,-1020.5 659,-982.5 1037,-982.5 1037,-1020.5"/>
<text text-anchor="middle" x="848" y="-1005.3" font-family="Times,serif" font-size="14.00" fill="white">[StoredTable] Name: &#39;nation&#39; pruned: 0/1 chunk(s),</text>
<text text-anchor="middle" x="848" y="-990.3" font-family="Times,serif" font-size="14.00" fill="white">2/4 column(s)</text>
</g>
<!-- 281449213601872&#45;&gt;281449226869456 -->
<g id="edge26" class="edge">
<title>281449213601872&#45;&gt;281449226869456</title>
<path fill="none" stroke="white" d="M848,-1020.72C848,-1034.58 848,-1053.88 848,-1069.59"/>
<polygon fill="white" stroke="white" points="844.5,-1069.79 848,-1079.79 851.5,-1069.79 844.5,-1069.79"/>
<g id="a_edge26&#45;label"><a xlink:title="Output Expressions: &#10; (1) n_nationkey&#10; (2) n_name&#10;&#10;Unique Column Combinations: &#10; (1) {n_nationkey}&#10;&#10;Functional Dependencies (trivial): &#10; (1) {n_nationkey} =&gt; {n_name}&#10;&#10;Functional Dependencies (non&#45;trivial): &#10; &lt;none&gt;">
<text text-anchor="middle" x="944.5" y="-1049.8" font-family="Times,serif" font-size="14.00" fill="white"> 25.0 row(s) | 100.0% estd.</text>
</a>
</g>
</g>
</g>
</svg>
