<?xml version="1.0" encoding="UTF-8" standalone="no"?>
<!DOCTYPE svg PUBLIC "-//W3C//DTD SVG 1.1//EN"
 "http://www.w3.org/Graphics/SVG/1.1/DTD/svg11.dtd">
<!-- Generated by graphviz version 2.43.0 (0)
 -->
<!-- Title: G Pages: 1 -->
<svg width="707pt" height="1220pt"
 viewBox="0.00 0.00 706.50 1220.00" xmlns="http://www.w3.org/2000/svg" xmlns:xlink="http://www.w3.org/1999/xlink">
<g id="graph0" class="graph" transform="scale(1 1) rotate(0) translate(4 1216)">
<title>G</title>
<polygon fill="black" stroke="transparent" points="-4,4 -4,-1216 702.5,-1216 702.5,4 -4,4"/>
<text text-anchor="middle" x="319.5" y="-1196.8" font-family="Times,serif" font-size="14.00" fill="white">For tooltips with advanced information, hover your mouse over vertices or edge labels.</text>
<!-- 281442242004240 -->
<g id="node1" class="node">
<title>281442242004240</title>
<g id="a_node1"><a xlink:title="Output: 46 rows in 1 chunk, 3 µs 296 ns.">
<polygon fill="none" stroke="white" points="255.5,-1157 108.5,-1157 108.5,-1088 255.5,-1088 255.5,-1157"/>
<text text-anchor="middle" x="182" y="-1141.8" font-family="Times,serif" font-size="14.00" fill="white">Alias</text>
<text text-anchor="middle" x="182" y="-1126.8" font-family="Times,serif" font-size="14.00" fill="white">[c_count, custdist]</text>
<text text-anchor="middle" x="182" y="-1095.8" font-family="Times,serif" font-size="14.00" fill="white">3 µs 296 ns</text>
</a>
</g>
</g>
<!-- 281442242003600 -->
<g id="node2" class="node">
<title>281442242003600</title>
<g id="a_node2"><a xlink:title="Output: 46 rows in 1 chunk, 23 µs 936 ns.&#10;Operator step runtimes:&#10; MaterializeSortColumns 11 µs 328 ns&#10; Sort 3 µs 712 ns&#10; TemporaryResultWriting 640 ns&#10; WriteOutput 5 µs 120 ns.">
<polygon fill="none" stroke="white" points="236,-1037 128,-1037 128,-983 236,-983 236,-1037"/>
<text text-anchor="middle" x="182" y="-1021.8" font-family="Times,serif" font-size="14.00" fill="white">Sort</text>
<text text-anchor="middle" x="182" y="-990.8" font-family="Times,serif" font-size="14.00" fill="white">23 µs 936 ns</text>
</a>
</g>
</g>
<!-- 281442242003600&#45;&gt;281442242004240 -->
<g id="edge1" class="edge">
<title>281442242003600&#45;&gt;281442242004240</title>
<path fill="none" stroke="white" d="M182,-1037.19C182,-1049.29 182,-1064 182,-1077.72"/>
<polygon fill="white" stroke="white" points="178.5,-1077.95 182,-1087.95 185.5,-1077.96 178.5,-1077.95"/>
<text text-anchor="middle" x="255.5" y="-1058.8" font-family="Times,serif" font-size="14.00" fill="white">46 row(s)/1 chunk(s)</text>
</g>
<!-- 281442228574224 -->
<g id="node3" class="node">
<title>281442228574224</title>
<g id="a_node3"><a xlink:title="Output: 46 rows in 1 chunk, 73 ms 381 µs.&#10;Operator step runtimes:&#10; GroupByKeyPartitioning 35 ms 560 µs&#10; Aggregating 37 ms 746 µs&#10; GroupByColumnsWriting 7 µs 456 ns&#10; AggregateColumnsWriting 10 µs 688 ns&#10; OutputWriting 5 µs 120 ns.">
<polygon fill="none" stroke="white" points="305,-932 59,-932 59,-848 305,-848 305,-932"/>
<text text-anchor="middle" x="182" y="-916.8" font-family="Times,serif" font-size="14.00" fill="white">AggregateHash</text>
<text text-anchor="middle" x="182" y="-901.8" font-family="Times,serif" font-size="14.00" fill="white">GroupBy {COUNT(o_orderkey)}</text>
<text text-anchor="middle" x="182" y="-886.8" font-family="Times,serif" font-size="14.00" fill="white">COUNT(*)</text>
<text text-anchor="middle" x="182" y="-855.8" font-family="Times,serif" font-size="14.00" fill="white">73 ms 381 µs</text>
</a>
</g>
</g>
<!-- 281442228574224&#45;&gt;281442242003600 -->
<g id="edge2" class="edge">
<title>281442228574224&#45;&gt;281442242003600</title>
<path fill="none" stroke="white" d="M182,-932.27C182,-945.36 182,-959.72 182,-972.45"/>
<polygon fill="white" stroke="white" points="178.5,-972.69 182,-982.69 185.5,-972.69 178.5,-972.69"/>
<text text-anchor="middle" x="255.5" y="-953.8" font-family="Times,serif" font-size="14.00" fill="white">46 row(s)/1 chunk(s)</text>
</g>
<!-- 281442242002960 -->
<g id="node4" class="node">
<title>281442242002960</title>
<g id="a_node4"><a xlink:title="Output: 7500000 rows in 115 chunks, 45 µs 985 ns.">
<polygon fill="none" stroke="white" points="260.5,-797 103.5,-797 103.5,-728 260.5,-728 260.5,-797"/>
<text text-anchor="middle" x="182" y="-781.8" font-family="Times,serif" font-size="14.00" fill="white">Alias</text>
<text text-anchor="middle" x="182" y="-766.8" font-family="Times,serif" font-size="14.00" fill="white">[c_custkey, c_count]</text>
<text text-anchor="middle" x="182" y="-735.8" font-family="Times,serif" font-size="14.00" fill="white">45 µs 985 ns</text>
</a>
</g>
</g>
<!-- 281442242002960&#45;&gt;281442228574224 -->
<g id="edge3" class="edge">
<title>281442242002960&#45;&gt;281442228574224</title>
<path fill="none" stroke="white" stroke-width="2.27" d="M182,-797.13C182,-809.51 182,-823.84 182,-837.44"/>
<polygon fill="white" stroke="white" stroke-width="2.27" points="178.5,-837.65 182,-847.65 185.5,-837.65 178.5,-837.65"/>
<text text-anchor="middle" x="291.5" y="-818.8" font-family="Times,serif" font-size="14.00" fill="white">7,500,000 row(s)/115 chunk(s)</text>
</g>
<!-- 281442228575248 -->
<g id="node5" class="node">
<title>281442228575248</title>
<g id="a_node5"><a xlink:title="Output: 7500000 rows in 115 chunks, 11 s 970 ms.&#10;Operator step runtimes:&#10; GroupByKeyPartitioning 508 ms 635 µs&#10; Aggregating 11 s 454 ms&#10; GroupByColumnsWriting 6 ms 368 µs&#10; AggregateColumnsWriting 1 ms 109 µs&#10; OutputWriting 79 µs 969 ns.">
<polygon fill="none" stroke="white" stroke-width="8" points="267.5,-677 96.5,-677 96.5,-593 267.5,-593 267.5,-677"/>
<text text-anchor="middle" x="182" y="-661.8" font-family="Times,serif" font-size="14.00" fill="white">AggregateHash</text>
<text text-anchor="middle" x="182" y="-646.8" font-family="Times,serif" font-size="14.00" fill="white">GroupBy {c_custkey}</text>
<text text-anchor="middle" x="182" y="-631.8" font-family="Times,serif" font-size="14.00" fill="white">COUNT(o_orderkey)</text>
<text text-anchor="middle" x="182" y="-600.8" font-family="Times,serif" font-size="14.00" fill="white">11 s 970 ms</text>
</a>
</g>
</g>
<!-- 281442228575248&#45;&gt;281442242002960 -->
<g id="edge4" class="edge">
<title>281442228575248&#45;&gt;281442242002960</title>
<path fill="none" stroke="white" stroke-width="2.27" d="M182,-677.09C182,-690.07 182,-704.45 182,-717.61"/>
<polygon fill="white" stroke="white" stroke-width="2.27" points="178.5,-717.85 182,-727.85 185.5,-717.85 178.5,-717.85"/>
<text text-anchor="middle" x="291.5" y="-698.8" font-family="Times,serif" font-size="14.00" fill="white">7,500,000 row(s)/115 chunk(s)</text>
</g>
<!-- 281442242003280 -->
<g id="node6" class="node">
<title>281442242003280</title>
<g id="a_node6"><a xlink:title="Output: 76689871 rows in 256 chunks, 370 ms 20 µs.&#10;Operator step runtimes:&#10; BuildSideMaterializing 21 ms 516 µs&#10; ProbeSideMaterializing 2 ms 576 µs&#10; Clustering 21 ms 609 µs&#10; Building 213 ms 764 µs&#10; Probing 53 ms 746 µs&#10; OutputWriting 55 ms 407 µs.&#10;Radix bits: 8.&#10;Build side is right.">
<polygon fill="none" stroke="white" points="270,-542 94,-542 94,-473 270,-473 270,-542"/>
<text text-anchor="middle" x="182" y="-526.8" font-family="Times,serif" font-size="14.00" fill="white">JoinHash (Left)</text>
<text text-anchor="middle" x="182" y="-511.8" font-family="Times,serif" font-size="14.00" fill="white">c_custkey = o_custkey</text>
<text text-anchor="middle" x="182" y="-480.8" font-family="Times,serif" font-size="14.00" fill="white">370 ms 20 µs</text>
</a>
</g>
</g>
<!-- 281442242003280&#45;&gt;281442228575248 -->
<g id="edge5" class="edge">
<title>281442242003280&#45;&gt;281442228575248</title>
<path fill="none" stroke="white" stroke-width="8" d="M182,-542.13C182,-554.51 182,-568.84 182,-582.44"/>
<polygon fill="white" stroke="white" stroke-width="8" points="175,-582.65 182,-592.65 189,-582.65 175,-582.65"/>
<text text-anchor="middle" x="296" y="-563.8" font-family="Times,serif" font-size="14.00" fill="white">76,689,871 row(s)/256 chunk(s)</text>
</g>
<!-- 281442228533008 -->
<g id="node7" class="node">
<title>281442228533008</title>
<g id="a_node7"><a xlink:title="Output: 7500000 rows in 115 chunks, 679 µs 592 ns.">
<polygon fill="none" stroke="white" points="119.5,-422 2.5,-422 2.5,-368 119.5,-368 119.5,-422"/>
<text text-anchor="middle" x="61" y="-406.8" font-family="Times,serif" font-size="14.00" fill="white">Validate</text>
<text text-anchor="middle" x="61" y="-375.8" font-family="Times,serif" font-size="14.00" fill="white">679 µs 592 ns</text>
</a>
</g>
</g>
<!-- 281442228533008&#45;&gt;281442242003280 -->
<g id="edge6" class="edge">
<title>281442228533008&#45;&gt;281442242003280</title>
<path fill="none" stroke="white" stroke-width="2.27" d="M56.03,-422.29C55.37,-433.26 56.59,-445.6 63,-455 68.91,-463.67 76.61,-470.89 85.25,-476.9"/>
<polygon fill="white" stroke="white" stroke-width="2.27" points="85.35,-476.96 83.48,-479.92 93.8,-482.3 85.35,-476.96"/>
<text text-anchor="middle" x="172.5" y="-443.8" font-family="Times,serif" font-size="14.00" fill="white">7,500,000 row(s)/115 chunk(s)</text>
</g>
<!-- 281442233580176 -->
<g id="node8" class="node">
<title>281442233580176</title>
<g id="a_node8"><a xlink:title="Output: 7500000 rows in 115 chunks, 279 µs 908 ns.">
<polygon fill="none" stroke="white" points="122,-317 0,-317 0,-203 122,-203 122,-317"/>
<text text-anchor="middle" x="61" y="-301.8" font-family="Times,serif" font-size="14.00" fill="white">GetTable</text>
<text text-anchor="middle" x="61" y="-286.8" font-family="Times,serif" font-size="14.00" fill="white">(customer)</text>
<text text-anchor="middle" x="61" y="-271.8" font-family="Times,serif" font-size="14.00" fill="white">pruned:</text>
<text text-anchor="middle" x="61" y="-256.8" font-family="Times,serif" font-size="14.00" fill="white">0/115 chunk(s)</text>
<text text-anchor="middle" x="61" y="-241.8" font-family="Times,serif" font-size="14.00" fill="white">7/8 column(s)</text>
<text text-anchor="middle" x="61" y="-210.8" font-family="Times,serif" font-size="14.00" fill="white">279 µs 908 ns</text>
</a>
</g>
</g>
<!-- 281442233580176&#45;&gt;281442228533008 -->
<g id="edge7" class="edge">
<title>281442233580176&#45;&gt;281442228533008</title>
<path fill="none" stroke="white" stroke-width="2.27" d="M61,-317.02C61,-330.77 61,-345.14 61,-357.69"/>
<polygon fill="white" stroke="white" stroke-width="2.27" points="57.5,-357.75 61,-367.75 64.5,-357.75 57.5,-357.75"/>
<text text-anchor="middle" x="170.5" y="-338.8" font-family="Times,serif" font-size="14.00" fill="white">7,500,000 row(s)/115 chunk(s)</text>
</g>
<!-- 281442228533264 -->
<g id="node9" class="node">
<title>281442228533264</title>
<g id="a_node9"><a xlink:title="Output: 74189752 rows in 1145 chunks, 2 ms 304 µs.">
<polygon fill="none" stroke="white" points="356,-422 252,-422 252,-368 356,-368 356,-422"/>
<text text-anchor="middle" x="304" y="-406.8" font-family="Times,serif" font-size="14.00" fill="white">Validate</text>
<text text-anchor="middle" x="304" y="-375.8" font-family="Times,serif" font-size="14.00" fill="white">2 ms 304 µs</text>
</a>
</g>
</g>
<!-- 281442228533264&#45;&gt;281442242003280 -->
<g id="edge8" class="edge">
<title>281442228533264&#45;&gt;281442242003280</title>
<path fill="none" stroke="white" stroke-width="7.92" d="M298.75,-422.01C295.45,-433.18 290.2,-445.76 282,-455 278.27,-459.2 274.12,-463.1 269.69,-466.73"/>
<polygon fill="white" stroke="white" stroke-width="7.92" points="261.43,-472.95 273.59,-472.46 269.42,-466.93 261.43,-472.95"/>
<text text-anchor="middle" x="412.5" y="-443.8" font-family="Times,serif" font-size="14.00" fill="white">74,189,752 row(s)/1,145 chunk(s)</text>
</g>
<!-- 281442242003920 -->
<g id="node10" class="node">
<title>281442242003920</title>
<g id="a_node10"><a xlink:title="Output: 74189752 rows in 1145 chunks, 48 ms 614 µs.&#10;Chunks: 0 skipped with no results, &#10;0 skipped with all matching, 0 scanned using binary search.">
<polygon fill="none" stroke="white" points="476,-302 140,-302 140,-218 476,-218 476,-302"/>
<text text-anchor="middle" x="308" y="-286.8" font-family="Times,serif" font-size="14.00" fill="white">TableScan</text>
<text text-anchor="middle" x="308" y="-271.8" font-family="Times,serif" font-size="14.00" fill="white">Impl: ColumnLike</text>
<text text-anchor="middle" x="308" y="-256.8" font-family="Times,serif" font-size="14.00" fill="white">o_comment NOT LIKE &#39;%special%deposits%&#39;</text>
<text text-anchor="middle" x="308" y="-225.8" font-family="Times,serif" font-size="14.00" fill="white">48 ms 614 µs</text>
</a>
</g>
</g>
<!-- 281442242003920&#45;&gt;281442228533264 -->
<g id="edge9" class="edge">
<title>281442242003920&#45;&gt;281442228533264</title>
<path fill="none" stroke="white" stroke-width="7.92" d="M306.76,-302.35C306.22,-320.03 305.61,-340.5 305.09,-357.6"/>
<polygon fill="white" stroke="white" stroke-width="7.92" points="298.16,-357.55 304.79,-367.75 312.02,-357.97 298.16,-357.55"/>
<text text-anchor="middle" x="425.5" y="-338.8" font-family="Times,serif" font-size="14.00" fill="white">74,189,752 row(s)/1,145 chunk(s)</text>
</g>
<!-- 281442233581072 -->
<g id="node11" class="node">
<title>281442233581072</title>
<g id="a_node11"><a xlink:title="Output: 75000000 rows in 1145 chunks, 1 ms 503 µs.">
<polygon fill="none" stroke="white" points="373.5,-133 242.5,-133 242.5,-19 373.5,-19 373.5,-133"/>
<text text-anchor="middle" x="308" y="-117.8" font-family="Times,serif" font-size="14.00" fill="white">GetTable</text>
<text text-anchor="middle" x="308" y="-102.8" font-family="Times,serif" font-size="14.00" fill="white">(orders)</text>
<text text-anchor="middle" x="308" y="-87.8" font-family="Times,serif" font-size="14.00" fill="white">pruned:</text>
<text text-anchor="middle" x="308" y="-72.8" font-family="Times,serif" font-size="14.00" fill="white">0/1145 chunk(s)</text>
<text text-anchor="middle" x="308" y="-57.8" font-family="Times,serif" font-size="14.00" fill="white">6/9 column(s)</text>
<text text-anchor="middle" x="308" y="-26.8" font-family="Times,serif" font-size="14.00" fill="white">1 ms 503 µs</text>
</a>
</g>
</g>
<!-- 281442233581072&#45;&gt;281442242003920 -->
<g id="edge10" class="edge">
<title>281442233581072&#45;&gt;281442242003920</title>
<path fill="none" stroke="white" stroke-width="7.95" d="M308,-133.09C308,-156.93 308,-184.53 308,-207.81"/>
<polygon fill="white" stroke="white" stroke-width="7.95" points="301.05,-207.83 308,-217.83 314.95,-207.83 301.05,-207.83"/>
<text text-anchor="middle" x="428.5" y="-173.8" font-family="Times,serif" font-size="14.00" fill="white">75,000,000 row(s)/1,145 chunk(s)</text>
</g>
<!-- 0 -->
<g id="node12" class="node">
<title>0</title>
<polygon fill="none" stroke="white" points="391.5,-0.5 391.5,-151.5 698.5,-151.5 698.5,-0.5 391.5,-0.5"/>
<text text-anchor="middle" x="545" y="-136.3" font-family="Times,serif" font-size="14.00" fill="white">Total by operator</text>
<polyline fill="none" stroke="white" points="391.5,-128.5 698.5,-128.5 "/>
<text text-anchor="end" x="515.5" y="-113.3" font-family="Times,serif" font-size="14.00" fill="white">AggregateHash </text>
<text text-anchor="end" x="515.5" y="-98.3" font-family="Times,serif" font-size="14.00" fill="white"> JoinHash </text>
<text text-anchor="end" x="515.5" y="-83.3" font-family="Times,serif" font-size="14.00" fill="white"> TableScan </text>
<text text-anchor="end" x="515.5" y="-68.3" font-family="Times,serif" font-size="14.00" fill="white"> Validate </text>
<text text-anchor="end" x="515.5" y="-53.3" font-family="Times,serif" font-size="14.00" fill="white"> GetTable </text>
<text text-anchor="end" x="515.5" y="-38.3" font-family="Times,serif" font-size="14.00" fill="white"> Alias </text>
<text text-anchor="end" x="515.5" y="-23.3" font-family="Times,serif" font-size="14.00" fill="white"> Sort </text>
<text text-anchor="end" x="515.5" y="-8.3" font-family="Times,serif" font-size="14.00" fill="white">total</text>
<polyline fill="none" stroke="white" points="523.5,-0.5 523.5,-128.5 "/>
<text text-anchor="start" x="531.5" y="-113.3" font-family="Times,serif" font-size="14.00" fill="white">12 s 44 ms </text>
<text text-anchor="start" x="531.5" y="-98.3" font-family="Times,serif" font-size="14.00" fill="white"> 370 ms 20 µs </text>
<text text-anchor="start" x="531.5" y="-83.3" font-family="Times,serif" font-size="14.00" fill="white"> 48 ms 614 µs </text>
<text text-anchor="start" x="531.5" y="-68.3" font-family="Times,serif" font-size="14.00" fill="white"> 2 ms 984 µs </text>
<text text-anchor="start" x="531.5" y="-53.3" font-family="Times,serif" font-size="14.00" fill="white"> 1 ms 783 µs </text>
<text text-anchor="start" x="531.5" y="-38.3" font-family="Times,serif" font-size="14.00" fill="white"> 49 µs 281 ns </text>
<text text-anchor="start" x="531.5" y="-23.3" font-family="Times,serif" font-size="14.00" fill="white"> 23 µs 936 ns </text>
<text text-anchor="start" x="531.5" y="-8.3" font-family="Times,serif" font-size="14.00" fill="white"> 12 s 467 ms </text>
<polyline fill="none" stroke="white" points="645.5,-0.5 645.5,-128.5 "/>
<text text-anchor="start" x="653.5" y="-113.3" font-family="Times,serif" font-size="14.00" fill="white">97 %</text>
<text text-anchor="start" x="653.5" y="-98.3" font-family="Times,serif" font-size="14.00" fill="white">3 %</text>
<text text-anchor="start" x="653.5" y="-83.3" font-family="Times,serif" font-size="14.00" fill="white">0 %</text>
<text text-anchor="start" x="653.5" y="-68.3" font-family="Times,serif" font-size="14.00" fill="white">0 %</text>
<text text-anchor="start" x="653.5" y="-53.3" font-family="Times,serif" font-size="14.00" fill="white">0 %</text>
<text text-anchor="start" x="653.5" y="-38.3" font-family="Times,serif" font-size="14.00" fill="white">0 %</text>
<text text-anchor="start" x="653.5" y="-23.3" font-family="Times,serif" font-size="14.00" fill="white">0 %</text>
<text text-anchor="start" x="653.5" y="-8.3" font-family="Times,serif" font-size="14.00" fill="white"> </text>
</g>
</g>
</svg>
