<?xml version="1.0" encoding="UTF-8" standalone="no"?>
<!DOCTYPE svg PUBLIC "-//W3C//DTD SVG 1.1//EN"
 "http://www.w3.org/Graphics/SVG/1.1/DTD/svg11.dtd">
<!-- Generated by graphviz version 2.43.0 (0)
 -->
<!-- Title: G Pages: 1 -->
<svg width="701pt" height="1115pt"
 viewBox="0.00 0.00 701.00 1115.00" xmlns="http://www.w3.org/2000/svg" xmlns:xlink="http://www.w3.org/1999/xlink">
<g id="graph0" class="graph" transform="scale(1 1) rotate(0) translate(4 1111)">
<title>G</title>
<polygon fill="black" stroke="transparent" points="-4,4 -4,-1111 697,-1111 697,4 -4,4"/>
<text text-anchor="middle" x="319.5" y="-1091.8" font-family="Times,serif" font-size="14.00" fill="white">For tooltips with advanced information, hover your mouse over vertices or edge labels.</text>
<!-- 140493841190864 -->
<g id="node1" class="node">
<title>140493841190864</title>
<g id="a_node1"><a xlink:title="Output: 1 row in 1 chunk, 2 µs 505 ns.">
<polygon fill="none" stroke="white" points="415.5,-1052 278.5,-1052 278.5,-983 415.5,-983 415.5,-1052"/>
<text text-anchor="middle" x="347" y="-1036.8" font-family="Times,serif" font-size="14.00" fill="white">Alias</text>
<text text-anchor="middle" x="347" y="-1021.8" font-family="Times,serif" font-size="14.00" fill="white">[promo_revenue]</text>
<text text-anchor="middle" x="347" y="-990.8" font-family="Times,serif" font-size="14.00" fill="white">2 µs 505 ns</text>
</a>
</g>
</g>
<!-- 140493841190544 -->
<g id="node2" class="node">
<title>140493841190544</title>
<g id="a_node2"><a xlink:title="Output: 1 row in 1 chunk, 45 µs 45 ns.&#10;Operator step runtimes:&#10; ForwardUnmodifiedColumns 2 µs 144 ns&#10; EvaluateNewColumns 20 µs 37 ns&#10; BuildOutput 20 µs 609 ns.">
<polygon fill="none" stroke="white" points="396.5,-932 297.5,-932 297.5,-878 396.5,-878 396.5,-932"/>
<text text-anchor="middle" x="347" y="-916.8" font-family="Times,serif" font-size="14.00" fill="white">Projection</text>
<text text-anchor="middle" x="347" y="-885.8" font-family="Times,serif" font-size="14.00" fill="white">45 µs 45 ns</text>
</a>
</g>
</g>
<!-- 140493841190544&#45;&gt;140493841190864 -->
<g id="edge1" class="edge">
<title>140493841190544&#45;&gt;140493841190864</title>
<path fill="none" stroke="white" d="M347,-932.19C347,-944.29 347,-959 347,-972.72"/>
<polygon fill="white" stroke="white" points="343.5,-972.95 347,-982.95 350.5,-972.96 343.5,-972.95"/>
<text text-anchor="middle" x="416" y="-953.8" font-family="Times,serif" font-size="14.00" fill="white">1 row(s)/1 chunk(s)</text>
</g>
<!-- 140509452454928 -->
<g id="node3" class="node">
<title>140509452454928</title>
<g id="a_node3"><a xlink:title="Output: 1 row in 1 chunk, 3 ms 641 µs.&#10;Operator step runtimes:&#10; GroupByKeyPartitioning 30 ns&#10; Aggregating 3 ms 614 µs&#10; GroupByColumnsWriting 1 µs 12 ns&#10; AggregateColumnsWriting 11 µs 321 ns&#10; OutputWriting 7 µs 935 ns.">
<polygon fill="none" stroke="white" stroke-width="2.28" points="563.5,-827 130.5,-827 130.5,-698 563.5,-698 563.5,-827"/>
<text text-anchor="middle" x="347" y="-811.8" font-family="Times,serif" font-size="14.00" fill="white">AggregateHash</text>
<text text-anchor="middle" x="347" y="-796.8" font-family="Times,serif" font-size="14.00" fill="white">GroupBy {}</text>
<text text-anchor="middle" x="347" y="-781.8" font-family="Times,serif" font-size="14.00" fill="white">SUM(l_extendedprice * (1 &#45; l_discount)), </text>
<text text-anchor="middle" x="347" y="-766.8" font-family="Times,serif" font-size="14.00" fill="white">SUM(CASE WHEN p_type BETWEEN UPPER EXCLUSIVE</text>
<text text-anchor="middle" x="347" y="-751.8" font-family="Times,serif" font-size="14.00" fill="white">&#39;PROMO&#39; AND &#39;PROMP&#39; THEN l_extendedprice * (1 &#45;</text>
<text text-anchor="middle" x="347" y="-736.8" font-family="Times,serif" font-size="14.00" fill="white">l_discount) ELSE 0 END)</text>
<text text-anchor="middle" x="347" y="-705.8" font-family="Times,serif" font-size="14.00" fill="white">3 ms 641 µs</text>
</a>
</g>
</g>
<!-- 140509452454928&#45;&gt;140493841190544 -->
<g id="edge2" class="edge">
<title>140509452454928&#45;&gt;140493841190544</title>
<path fill="none" stroke="white" d="M347,-827.17C347,-840.99 347,-855.14 347,-867.48"/>
<polygon fill="white" stroke="white" points="343.5,-867.8 347,-877.8 350.5,-867.8 343.5,-867.8"/>
<text text-anchor="middle" x="416" y="-848.8" font-family="Times,serif" font-size="14.00" fill="white">1 row(s)/1 chunk(s)</text>
</g>
<!-- 140493841190224 -->
<g id="node4" class="node">
<title>140493841190224</title>
<g id="a_node4"><a xlink:title="Output: 773040 rows in 256 chunks, 32 ms 757 µs.&#10;Operator step runtimes:&#10; ForwardUnmodifiedColumns 114 µs 385 ns&#10; EvaluateNewColumns 32 ms 263 µs&#10; BuildOutput 248 µs 466 ns.">
<polygon fill="none" stroke="white" stroke-width="7.7" points="403.5,-647 290.5,-647 290.5,-593 403.5,-593 403.5,-647"/>
<text text-anchor="middle" x="347" y="-631.8" font-family="Times,serif" font-size="14.00" fill="white">Projection</text>
<text text-anchor="middle" x="347" y="-600.8" font-family="Times,serif" font-size="14.00" fill="white">32 ms 757 µs</text>
</a>
</g>
</g>
<!-- 140493841190224&#45;&gt;140509452454928 -->
<g id="edge3" class="edge">
<title>140493841190224&#45;&gt;140509452454928</title>
<path fill="none" stroke="white" d="M347,-647.1C347,-658.77 347,-673.17 347,-687.78"/>
<polygon fill="white" stroke="white" points="343.5,-687.89 347,-697.89 350.5,-687.89 343.5,-687.89"/>
<text text-anchor="middle" x="449.5" y="-668.8" font-family="Times,serif" font-size="14.00" fill="white">773,040 row(s)/256 chunk(s)</text>
</g>
<!-- 140493841189904 -->
<g id="node5" class="node">
<title>140493841189904</title>
<g id="a_node5"><a xlink:title="Output: 773040 rows in 256 chunks, 36 ms 972 µs.&#10;Operator step runtimes:&#10; LeftSideMaterialize 17 ms 743 µs&#10; RightSideMaterialize 1 ms 94 µs&#10; LeftSideTransform 0 ns&#10; RightSideTransform 0 ns&#10; LeftSidePartition 7 ms 903 µs&#10; RightSidePartition 1 ms 240 µs&#10; LeftSideSortBuckets 894 µs 48 ns&#10; RightSideSortBuckets 1 ms 141 µs&#10; GatherRowIds 2 µs 184 ns&#10; FindJoinPartner 3 ms 121 µs&#10; OutputWriting 2 ms 487 µs.">
<polygon fill="none" stroke="white" stroke-width="8" points="452.5,-542 241.5,-542 241.5,-473 452.5,-473 452.5,-542"/>
<text text-anchor="middle" x="347" y="-526.8" font-family="Times,serif" font-size="14.00" fill="white">JoinSimdSortMerge (Inner)</text>
<text text-anchor="middle" x="347" y="-511.8" font-family="Times,serif" font-size="14.00" fill="white">l_partkey = p_partkey</text>
<text text-anchor="middle" x="347" y="-480.8" font-family="Times,serif" font-size="14.00" fill="white">36 ms 972 µs</text>
</a>
</g>
</g>
<!-- 140493841189904&#45;&gt;140493841190224 -->
<g id="edge4" class="edge">
<title>140493841189904&#45;&gt;140493841190224</title>
<path fill="none" stroke="white" d="M347,-542.25C347,-555.07 347,-569.73 347,-582.77"/>
<polygon fill="white" stroke="white" points="343.5,-582.81 347,-592.81 350.5,-582.81 343.5,-582.81"/>
<text text-anchor="middle" x="449.5" y="-563.8" font-family="Times,serif" font-size="14.00" fill="white">773,040 row(s)/256 chunk(s)</text>
</g>
<!-- 140509453185040 -->
<g id="node6" class="node">
<title>140509453185040</title>
<g id="a_node6"><a xlink:title="Output: 773040 rows in 916 chunks, 1 ms 570 µs.">
<polygon fill="none" stroke="white" points="285,-422 181,-422 181,-368 285,-368 285,-422"/>
<text text-anchor="middle" x="233" y="-406.8" font-family="Times,serif" font-size="14.00" fill="white">Validate</text>
<text text-anchor="middle" x="233" y="-375.8" font-family="Times,serif" font-size="14.00" fill="white">1 ms 570 µs</text>
</a>
</g>
</g>
<!-- 140509453185040&#45;&gt;140493841189904 -->
<g id="edge5" class="edge">
<title>140509453185040&#45;&gt;140493841189904</title>
<path fill="none" stroke="white" d="M234.41,-422.19C236.14,-433.26 239.73,-445.72 247,-455 250.23,-459.12 253.88,-462.95 257.82,-466.49"/>
<polygon fill="white" stroke="white" points="258,-466.64 255.78,-469.35 265.74,-472.96 258,-466.64"/>
<text text-anchor="middle" x="349.5" y="-443.8" font-family="Times,serif" font-size="14.00" fill="white">773,040 row(s)/916 chunk(s)</text>
</g>
<!-- 140493841189584 -->
<g id="node7" class="node">
<title>140493841189584</title>
<g id="a_node7"><a xlink:title="Output: 773040 rows in 916 chunks, 3 ms 842 µs.&#10;Chunks: 0 skipped with no results, &#10;0 skipped with all matching, 0 scanned using binary search.">
<polygon fill="none" stroke="white" stroke-width="2.42" points="412,-309.5 0,-309.5 0,-210.5 412,-210.5 412,-309.5"/>
<text text-anchor="middle" x="206" y="-294.3" font-family="Times,serif" font-size="14.00" fill="white">TableScan</text>
<text text-anchor="middle" x="206" y="-279.3" font-family="Times,serif" font-size="14.00" fill="white">Impl: ColumnBetween</text>
<text text-anchor="middle" x="206" y="-264.3" font-family="Times,serif" font-size="14.00" fill="white">l_shipdate BETWEEN UPPER EXCLUSIVE &#39;1995&#45;07&#45;01&#39;</text>
<text text-anchor="middle" x="206" y="-249.3" font-family="Times,serif" font-size="14.00" fill="white">AND &#39;1995&#45;08&#45;01&#39;</text>
<text text-anchor="middle" x="206" y="-218.3" font-family="Times,serif" font-size="14.00" fill="white">3 ms 842 µs</text>
</a>
</g>
</g>
<!-- 140493841189584&#45;&gt;140509453185040 -->
<g id="edge6" class="edge">
<title>140493841189584&#45;&gt;140509453185040</title>
<path fill="none" stroke="white" d="M215.9,-309.77C219.1,-325.52 222.59,-342.7 225.57,-357.41"/>
<polygon fill="white" stroke="white" points="222.23,-358.53 227.65,-367.63 229.09,-357.14 222.23,-358.53"/>
<text text-anchor="middle" x="326.5" y="-338.8" font-family="Times,serif" font-size="14.00" fill="white">773,040 row(s)/916 chunk(s)</text>
</g>
<!-- 140509452767888 -->
<g id="node8" class="node">
<title>140509452767888</title>
<g id="a_node8"><a xlink:title="Output: 59986052 rows in 916 chunks, 1 ms 247 µs.">
<polygon fill="none" stroke="white" points="271.5,-133 140.5,-133 140.5,-19 271.5,-19 271.5,-133"/>
<text text-anchor="middle" x="206" y="-117.8" font-family="Times,serif" font-size="14.00" fill="white">GetTable</text>
<text text-anchor="middle" x="206" y="-102.8" font-family="Times,serif" font-size="14.00" fill="white">(lineitem)</text>
<text text-anchor="middle" x="206" y="-87.8" font-family="Times,serif" font-size="14.00" fill="white">pruned:</text>
<text text-anchor="middle" x="206" y="-72.8" font-family="Times,serif" font-size="14.00" fill="white">0/916 chunk(s)</text>
<text text-anchor="middle" x="206" y="-57.8" font-family="Times,serif" font-size="14.00" fill="white">12/16 column(s)</text>
<text text-anchor="middle" x="206" y="-26.8" font-family="Times,serif" font-size="14.00" fill="white">1 ms 247 µs</text>
</a>
</g>
</g>
<!-- 140509452767888&#45;&gt;140493841189584 -->
<g id="edge7" class="edge">
<title>140509452767888&#45;&gt;140493841189584</title>
<path fill="none" stroke="white" stroke-width="8" d="M206,-133.09C206,-154.46 206,-178.86 206,-200.45"/>
<polygon fill="white" stroke="white" stroke-width="8" points="199,-200.47 206,-210.47 213,-200.47 199,-200.47"/>
<text text-anchor="middle" x="320" y="-173.8" font-family="Times,serif" font-size="14.00" fill="white">59,986,052 row(s)/916 chunk(s)</text>
</g>
<!-- 140509453185296 -->
<g id="node9" class="node">
<title>140509453185296</title>
<g id="a_node9"><a xlink:title="Output: 2000000 rows in 31 chunks, 158 µs 307 ns.">
<polygon fill="none" stroke="white" points="538.5,-422 421.5,-422 421.5,-368 538.5,-368 538.5,-422"/>
<text text-anchor="middle" x="480" y="-406.8" font-family="Times,serif" font-size="14.00" fill="white">Validate</text>
<text text-anchor="middle" x="480" y="-375.8" font-family="Times,serif" font-size="14.00" fill="white">158 µs 307 ns</text>
</a>
</g>
</g>
<!-- 140509453185296&#45;&gt;140493841189904 -->
<g id="edge8" class="edge">
<title>140509453185296&#45;&gt;140493841189904</title>
<path fill="none" stroke="white" d="M471.98,-422.13C467.51,-433.32 461,-445.88 452,-455 447.75,-459.3 443.07,-463.3 438.11,-467.01"/>
<polygon fill="white" stroke="white" points="429.54,-472.98 439.75,-470.14 437.75,-467.27 429.54,-472.98"/>
<text text-anchor="middle" x="567" y="-443.8" font-family="Times,serif" font-size="14.00" fill="white">2,000,000 row(s)/31 chunk(s)</text>
</g>
<!-- 140509452768336 -->
<g id="node10" class="node">
<title>140509452768336</title>
<g id="a_node10"><a xlink:title="Output: 2000000 rows in 31 chunks, 49 µs 544 ns.">
<polygon fill="none" stroke="white" points="543.5,-317 430.5,-317 430.5,-203 543.5,-203 543.5,-317"/>
<text text-anchor="middle" x="487" y="-301.8" font-family="Times,serif" font-size="14.00" fill="white">GetTable</text>
<text text-anchor="middle" x="487" y="-286.8" font-family="Times,serif" font-size="14.00" fill="white">(part)</text>
<text text-anchor="middle" x="487" y="-271.8" font-family="Times,serif" font-size="14.00" fill="white">pruned:</text>
<text text-anchor="middle" x="487" y="-256.8" font-family="Times,serif" font-size="14.00" fill="white">0/31 chunk(s)</text>
<text text-anchor="middle" x="487" y="-241.8" font-family="Times,serif" font-size="14.00" fill="white">7/9 column(s)</text>
<text text-anchor="middle" x="487" y="-210.8" font-family="Times,serif" font-size="14.00" fill="white">49 µs 544 ns</text>
</a>
</g>
</g>
<!-- 140509452768336&#45;&gt;140509453185296 -->
<g id="edge9" class="edge">
<title>140509452768336&#45;&gt;140509453185296</title>
<path fill="none" stroke="white" d="M484.05,-317.02C483.33,-330.77 482.57,-345.14 481.91,-357.69"/>
<polygon fill="white" stroke="white" points="478.41,-357.58 481.38,-367.75 485.4,-357.95 478.41,-357.58"/>
<text text-anchor="middle" x="588" y="-338.8" font-family="Times,serif" font-size="14.00" fill="white">2,000,000 row(s)/31 chunk(s)</text>
</g>
<!-- 0 -->
<g id="node11" class="node">
<title>0</title>
<polygon fill="none" stroke="white" points="289.5,-0.5 289.5,-151.5 626.5,-151.5 626.5,-0.5 289.5,-0.5"/>
<text text-anchor="middle" x="458" y="-136.3" font-family="Times,serif" font-size="14.00" fill="white">Total by operator</text>
<polyline fill="none" stroke="white" points="289.5,-128.5 626.5,-128.5 "/>
<text text-anchor="end" x="443.5" y="-113.3" font-family="Times,serif" font-size="14.00" fill="white">JoinSimdSortMerge </text>
<text text-anchor="end" x="443.5" y="-98.3" font-family="Times,serif" font-size="14.00" fill="white"> Projection </text>
<text text-anchor="end" x="443.5" y="-83.3" font-family="Times,serif" font-size="14.00" fill="white"> TableScan </text>
<text text-anchor="end" x="443.5" y="-68.3" font-family="Times,serif" font-size="14.00" fill="white"> AggregateHash </text>
<text text-anchor="end" x="443.5" y="-53.3" font-family="Times,serif" font-size="14.00" fill="white"> Validate </text>
<text text-anchor="end" x="443.5" y="-38.3" font-family="Times,serif" font-size="14.00" fill="white"> GetTable </text>
<text text-anchor="end" x="443.5" y="-23.3" font-family="Times,serif" font-size="14.00" fill="white"> Alias </text>
<text text-anchor="end" x="443.5" y="-8.3" font-family="Times,serif" font-size="14.00" fill="white">total</text>
<polyline fill="none" stroke="white" points="451.5,-0.5 451.5,-128.5 "/>
<text text-anchor="start" x="459.5" y="-113.3" font-family="Times,serif" font-size="14.00" fill="white">36 ms 972 µs </text>
<text text-anchor="start" x="459.5" y="-98.3" font-family="Times,serif" font-size="14.00" fill="white"> 32 ms 802 µs </text>
<text text-anchor="start" x="459.5" y="-83.3" font-family="Times,serif" font-size="14.00" fill="white"> 3 ms 842 µs </text>
<text text-anchor="start" x="459.5" y="-68.3" font-family="Times,serif" font-size="14.00" fill="white"> 3 ms 641 µs </text>
<text text-anchor="start" x="459.5" y="-53.3" font-family="Times,serif" font-size="14.00" fill="white"> 1 ms 728 µs </text>
<text text-anchor="start" x="459.5" y="-38.3" font-family="Times,serif" font-size="14.00" fill="white"> 1 ms 297 µs </text>
<text text-anchor="start" x="459.5" y="-23.3" font-family="Times,serif" font-size="14.00" fill="white"> 2 µs 505 ns </text>
<text text-anchor="start" x="459.5" y="-8.3" font-family="Times,serif" font-size="14.00" fill="white"> 80 ms 284 µs </text>
<polyline fill="none" stroke="white" points="573.5,-0.5 573.5,-128.5 "/>
<text text-anchor="start" x="581.5" y="-113.3" font-family="Times,serif" font-size="14.00" fill="white">46 %</text>
<text text-anchor="start" x="581.5" y="-98.3" font-family="Times,serif" font-size="14.00" fill="white">41 %</text>
<text text-anchor="start" x="581.5" y="-83.3" font-family="Times,serif" font-size="14.00" fill="white">5 %</text>
<text text-anchor="start" x="581.5" y="-68.3" font-family="Times,serif" font-size="14.00" fill="white">5 %</text>
<text text-anchor="start" x="581.5" y="-53.3" font-family="Times,serif" font-size="14.00" fill="white">2 %</text>
<text text-anchor="start" x="581.5" y="-38.3" font-family="Times,serif" font-size="14.00" fill="white">2 %</text>
<text text-anchor="start" x="581.5" y="-23.3" font-family="Times,serif" font-size="14.00" fill="white">0 %</text>
<text text-anchor="start" x="581.5" y="-8.3" font-family="Times,serif" font-size="14.00" fill="white"> </text>
</g>
</g>
</svg>
