<?xml version="1.0" encoding="UTF-8" standalone="no"?>
<!DOCTYPE svg PUBLIC "-//W3C//DTD SVG 1.1//EN"
 "http://www.w3.org/Graphics/SVG/1.1/DTD/svg11.dtd">
<!-- Generated by graphviz version 2.43.0 (0)
 -->
<!-- Title: G Pages: 1 -->
<svg width="907pt" height="1895pt"
 viewBox="0.00 0.00 907.00 1895.00" xmlns="http://www.w3.org/2000/svg" xmlns:xlink="http://www.w3.org/1999/xlink">
<g id="graph0" class="graph" transform="scale(1 1) rotate(0) translate(4 1891)">
<title>G</title>
<polygon fill="black" stroke="transparent" points="-4,4 -4,-1891 903,-1891 903,4 -4,4"/>
<text text-anchor="middle" x="319.5" y="-1871.8" font-family="Times,serif" font-size="14.00" fill="white">For tooltips with advanced information, hover your mouse over vertices or edge labels.</text>
<!-- 140209245982224 -->
<g id="node1" class="node">
<title>140209245982224</title>
<g id="a_node1"><a xlink:title="Output: 2 rows in 1 chunk filtered: 0, 5 µs 17 ns.">
<polygon fill="none" stroke="white" points="650,-1832 309,-1832 309,-1763 650,-1763 650,-1832"/>
<text text-anchor="middle" x="479.5" y="-1816.8" font-family="Times,serif" font-size="14.00" fill="white">Alias</text>
<text text-anchor="middle" x="479.5" y="-1801.8" font-family="Times,serif" font-size="14.00" fill="white">[l_shipmode, high_line_count, low_line_count]</text>
<text text-anchor="middle" x="479.5" y="-1770.8" font-family="Times,serif" font-size="14.00" fill="white">5 µs 17 ns</text>
</a>
</g>
</g>
<!-- 140209245981904 -->
<g id="node2" class="node">
<title>140209245981904</title>
<g id="a_node2"><a xlink:title="Output: 2 rows in 1 chunk filtered: 0, 35 µs 112 ns.&#10;Operator step runtimes:&#10; MaterializeSortColumns 21 µs 819 ns&#10; Sort 2 µs 642 ns&#10; TemporaryResultWriting 331 ns&#10; WriteOutput 8 µs 36 ns.">
<polygon fill="none" stroke="white" points="533.5,-1712 425.5,-1712 425.5,-1658 533.5,-1658 533.5,-1712"/>
<text text-anchor="middle" x="479.5" y="-1696.8" font-family="Times,serif" font-size="14.00" fill="white">Sort</text>
<text text-anchor="middle" x="479.5" y="-1665.8" font-family="Times,serif" font-size="14.00" fill="white">35 µs 112 ns</text>
</a>
</g>
</g>
<!-- 140209245981904&#45;&gt;140209245982224 -->
<g id="edge1" class="edge">
<title>140209245981904&#45;&gt;140209245982224</title>
<path fill="none" stroke="white" d="M479.5,-1712.19C479.5,-1724.29 479.5,-1739 479.5,-1752.72"/>
<polygon fill="white" stroke="white" points="476,-1752.95 479.5,-1762.95 483,-1752.96 476,-1752.95"/>
<text text-anchor="middle" x="548.5" y="-1733.8" font-family="Times,serif" font-size="14.00" fill="white">2 row(s)/1 chunk(s)</text>
</g>
<!-- 140526466647056 -->
<g id="node3" class="node">
<title>140526466647056</title>
<g id="a_node3"><a xlink:title="Output: 2 rows in 1 chunk filtered: 0, 675 ms 529 µs.&#10;Operator step runtimes:&#10; GroupByKeyPartitioning 610 ms 797 µs&#10; Aggregating 64 ms 651 µs&#10; GroupByColumnsWriting 7 µs 224 ns&#10; AggregateColumnsWriting 15 µs 587 ns&#10; OutputWriting 9 µs 218 ns.">
<polygon fill="none" stroke="white" stroke-width="8" points="687,-1607 272,-1607 272,-1478 687,-1478 687,-1607"/>
<text text-anchor="middle" x="479.5" y="-1591.8" font-family="Times,serif" font-size="14.00" fill="white">AggregateHash</text>
<text text-anchor="middle" x="479.5" y="-1576.8" font-family="Times,serif" font-size="14.00" fill="white">GroupBy {l_shipmode}</text>
<text text-anchor="middle" x="479.5" y="-1561.8" font-family="Times,serif" font-size="14.00" fill="white">SUM(CASE WHEN o_orderpriority = &#39;1&#45;URGENT&#39; OR</text>
<text text-anchor="middle" x="479.5" y="-1546.8" font-family="Times,serif" font-size="14.00" fill="white">o_orderpriority = &#39;2&#45;HIGH&#39; THEN 1 ELSE 0 END), </text>
<text text-anchor="middle" x="479.5" y="-1531.8" font-family="Times,serif" font-size="14.00" fill="white">SUM(CASE WHEN o_orderpriority != &#39;1&#45;URGENT&#39; AND</text>
<text text-anchor="middle" x="479.5" y="-1516.8" font-family="Times,serif" font-size="14.00" fill="white">o_orderpriority != &#39;2&#45;HIGH&#39; THEN 1 ELSE 0 END)</text>
<text text-anchor="middle" x="479.5" y="-1485.8" font-family="Times,serif" font-size="14.00" fill="white">675 ms 529 µs</text>
</a>
</g>
</g>
<!-- 140526466647056&#45;&gt;140209245981904 -->
<g id="edge2" class="edge">
<title>140526466647056&#45;&gt;140209245981904</title>
<path fill="none" stroke="white" d="M479.5,-1607.17C479.5,-1620.99 479.5,-1635.14 479.5,-1647.48"/>
<polygon fill="white" stroke="white" points="476,-1647.8 479.5,-1657.8 483,-1647.8 476,-1647.8"/>
<text text-anchor="middle" x="548.5" y="-1628.8" font-family="Times,serif" font-size="14.00" fill="white">2 row(s)/1 chunk(s)</text>
</g>
<!-- 140209245981584 -->
<g id="node4" class="node">
<title>140209245981584</title>
<g id="a_node4"><a xlink:title="Output: 3113765 rows in 64 chunks filtered: 0, 57 ms 626 µs.&#10;Operator step runtimes:&#10; ForwardUnmodifiedColumns 181 µs 692 ns&#10; EvaluateNewColumns 57 ms 240 µs&#10; BuildOutput 184 µs 920 ns.">
<polygon fill="none" stroke="white" stroke-width="1.93" points="536,-1427 423,-1427 423,-1373 536,-1373 536,-1427"/>
<text text-anchor="middle" x="479.5" y="-1411.8" font-family="Times,serif" font-size="14.00" fill="white">Projection</text>
<text text-anchor="middle" x="479.5" y="-1380.8" font-family="Times,serif" font-size="14.00" fill="white">57 ms 626 µs</text>
</a>
</g>
</g>
<!-- 140209245981584&#45;&gt;140526466647056 -->
<g id="edge3" class="edge">
<title>140209245981584&#45;&gt;140526466647056</title>
<path fill="none" stroke="white" d="M479.5,-1427.1C479.5,-1438.77 479.5,-1453.17 479.5,-1467.78"/>
<polygon fill="white" stroke="white" points="476,-1467.89 479.5,-1477.89 483,-1467.89 476,-1467.89"/>
<text text-anchor="middle" x="584.5" y="-1448.8" font-family="Times,serif" font-size="14.00" fill="white">3,113,765 row(s)/64 chunk(s)</text>
</g>
<!-- 140209245981264 -->
<g id="node5" class="node">
<title>140209245981264</title>
<g id="a_node5"><a xlink:title="Output: 3113765 rows in 64 chunks filtered: 0, 240 ms 361 µs.&#10;Operator step runtimes:&#10; LeftSideMaterialize 136 ms 485 µs&#10; RightSideMaterialize 44 ms 48 µs&#10; LeftSideTransform 0 ns&#10; RightSideTransform 0 ns&#10; LeftSidePartition 5 ms 288 µs&#10; RightSidePartition 4 ms 385 µs&#10; LeftSideSortBuckets 3 ms 768 µs&#10; RightSideSortBuckets 2 ms 799 µs&#10; GatherRowIds 1 µs 658 ns&#10; FindJoinPartner 15 ms 475 µs&#10; OutputWriting 26 ms 91 µs.&#10;Radix bits: 8.">
<polygon fill="none" stroke="white" stroke-width="5.45" points="585,-1322 374,-1322 374,-1253 585,-1253 585,-1322"/>
<text text-anchor="middle" x="479.5" y="-1306.8" font-family="Times,serif" font-size="14.00" fill="white">JoinSimdSortMerge (Inner)</text>
<text text-anchor="middle" x="479.5" y="-1291.8" font-family="Times,serif" font-size="14.00" fill="white">l_orderkey = o_orderkey</text>
<text text-anchor="middle" x="479.5" y="-1260.8" font-family="Times,serif" font-size="14.00" fill="white">240 ms 361 µs</text>
</a>
</g>
</g>
<!-- 140209245981264&#45;&gt;140209245981584 -->
<g id="edge4" class="edge">
<title>140209245981264&#45;&gt;140209245981584</title>
<path fill="none" stroke="white" d="M479.5,-1322.25C479.5,-1335.07 479.5,-1349.73 479.5,-1362.77"/>
<polygon fill="white" stroke="white" points="476,-1362.81 479.5,-1372.81 483,-1362.81 476,-1362.81"/>
<text text-anchor="middle" x="584.5" y="-1343.8" font-family="Times,serif" font-size="14.00" fill="white">3,113,765 row(s)/64 chunk(s)</text>
</g>
<!-- 140209245980624 -->
<g id="node6" class="node">
<title>140209245980624</title>
<g id="a_node6"><a xlink:title="Output: 3113765 rows in 18312 chunks filtered: 0, 61 ms 197 µs.&#10;Chunks: 0 skipped with no results, &#10;0 skipped with all matching, 0 scanned using binary search.">
<polygon fill="none" stroke="white" stroke-width="2.08" points="569.5,-962 363.5,-962 363.5,-878 569.5,-878 569.5,-962"/>
<text text-anchor="middle" x="466.5" y="-946.8" font-family="Times,serif" font-size="14.00" fill="white">TableScan</text>
<text text-anchor="middle" x="466.5" y="-931.8" font-family="Times,serif" font-size="14.00" fill="white">Impl: ColumnVsColumn</text>
<text text-anchor="middle" x="466.5" y="-916.8" font-family="Times,serif" font-size="14.00" fill="white">l_commitdate &gt; l_shipdate</text>
<text text-anchor="middle" x="466.5" y="-885.8" font-family="Times,serif" font-size="14.00" fill="white">61 ms 197 µs</text>
</a>
</g>
</g>
<!-- 140209245980624&#45;&gt;140209245981264 -->
<g id="edge5" class="edge">
<title>140209245980624&#45;&gt;140209245981264</title>
<path fill="none" stroke="white" d="M551.93,-962.16C563.4,-971.35 573.57,-982.25 580.5,-995 631.41,-1088.74 636.22,-1144.04 580.5,-1235 578.19,-1238.78 575.5,-1242.29 572.52,-1245.55"/>
<polygon fill="white" stroke="white" points="572.29,-1245.78 569.86,-1243.26 565.09,-1252.72 572.29,-1245.78"/>
<text text-anchor="middle" x="742" y="-1118.8" font-family="Times,serif" font-size="14.00" fill="white">3,113,765 row(s)/18,312 chunk(s)</text>
</g>
<!-- 140209245980944 -->
<g id="node15" class="node">
<title>140209245980944</title>
<g id="a_node15"><a xlink:title="Output: 2922050 rows in 64 chunks filtered: 0, 400 ms 590 µs.&#10;Operator step runtimes:&#10; LeftSideMaterialize 32 ms 393 µs&#10; RightSideMaterialize 139 ms 848 µs&#10; LeftSideTransform 0 ns&#10; RightSideTransform 0 ns&#10; LeftSidePartition 109 ms 76 µs&#10; RightSidePartition 2 ms 716 µs&#10; LeftSideSortBuckets 63 ms 347 µs&#10; RightSideSortBuckets 2 ms 898 µs&#10; GatherRowIds 1 µs 881 ns&#10; FindJoinPartner 46 ms 81 µs&#10; OutputWriting 312 µs 311 ns.&#10;Radix bits: 8.">
<polygon fill="none" stroke="white" stroke-width="6.71" points="481,-1097 196,-1097 196,-1028 481,-1028 481,-1097"/>
<text text-anchor="middle" x="338.5" y="-1081.8" font-family="Times,serif" font-size="14.00" fill="white">JoinSimdSortMerge (Semi Reduction)</text>
<text text-anchor="middle" x="338.5" y="-1066.8" font-family="Times,serif" font-size="14.00" fill="white">o_orderkey = l_orderkey</text>
<text text-anchor="middle" x="338.5" y="-1035.8" font-family="Times,serif" font-size="14.00" fill="white">400 ms 590 µs</text>
</a>
</g>
</g>
<!-- 140209245980624&#45;&gt;140209245980944 -->
<g id="edge6" class="edge">
<title>140209245980624&#45;&gt;140209245980944</title>
<path fill="none" stroke="white" d="M369.82,-962.16C357.76,-971.25 347.04,-982.11 339.5,-995 335.48,-1001.87 333.56,-1009.86 332.89,-1017.87"/>
<polygon fill="white" stroke="white" points="332.65,-1027.94 336.38,-1018.02 332.88,-1017.94 332.65,-1027.94"/>
<text text-anchor="middle" x="460" y="-998.8" font-family="Times,serif" font-size="14.00" fill="white">3,113,765 row(s)/18,312 chunk(s)</text>
</g>
<!-- 140209245980304 -->
<g id="node7" class="node">
<title>140209245980304</title>
<g id="a_node7"><a xlink:title="Output: 16440003 rows in 18312 chunks filtered: 0, 101 ms 884 µs.&#10;Chunks: 0 skipped with no results, &#10;0 skipped with all matching, 0 scanned using binary search.">
<polygon fill="none" stroke="white" stroke-width="3.33" points="580,-812 353,-812 353,-728 580,-728 580,-812"/>
<text text-anchor="middle" x="466.5" y="-796.8" font-family="Times,serif" font-size="14.00" fill="white">TableScan</text>
<text text-anchor="middle" x="466.5" y="-781.8" font-family="Times,serif" font-size="14.00" fill="white">Impl: ColumnVsColumn</text>
<text text-anchor="middle" x="466.5" y="-766.8" font-family="Times,serif" font-size="14.00" fill="white">l_receiptdate &gt; l_commitdate</text>
<text text-anchor="middle" x="466.5" y="-735.8" font-family="Times,serif" font-size="14.00" fill="white">101 ms 884 µs</text>
</a>
</g>
</g>
<!-- 140209245980304&#45;&gt;140209245980624 -->
<g id="edge7" class="edge">
<title>140209245980304&#45;&gt;140209245980624</title>
<path fill="none" stroke="white" d="M466.5,-812.23C466.5,-829.47 466.5,-849.68 466.5,-867.85"/>
<polygon fill="white" stroke="white" points="463,-867.99 466.5,-877.99 470,-867.99 463,-867.99"/>
<text text-anchor="middle" x="591.5" y="-833.8" font-family="Times,serif" font-size="14.00" fill="white">16,440,003 row(s)/18,312 chunk(s)</text>
</g>
<!-- 140526466671632 -->
<g id="node8" class="node">
<title>140526466671632</title>
<g id="a_node8"><a xlink:title="Output: 26012847 rows in 18312 chunks filtered: 0, 50 ms 125 µs.">
<polygon fill="none" stroke="white" stroke-width="1.59" points="523,-677 410,-677 410,-623 523,-623 523,-677"/>
<text text-anchor="middle" x="466.5" y="-661.8" font-family="Times,serif" font-size="14.00" fill="white">Validate</text>
<text text-anchor="middle" x="466.5" y="-630.8" font-family="Times,serif" font-size="14.00" fill="white">50 ms 125 µs</text>
</a>
</g>
</g>
<!-- 140526466671632&#45;&gt;140209245980304 -->
<g id="edge8" class="edge">
<title>140526466671632&#45;&gt;140209245980304</title>
<path fill="none" stroke="white" d="M466.5,-677.19C466.5,-689.1 466.5,-703.63 466.5,-717.58"/>
<polygon fill="white" stroke="white" points="463,-717.59 466.5,-727.59 470,-717.59 463,-717.59"/>
<text text-anchor="middle" x="591.5" y="-698.8" font-family="Times,serif" font-size="14.00" fill="white">26,012,847 row(s)/18,312 chunk(s)</text>
</g>
<!-- 140209245979984 -->
<g id="node9" class="node">
<title>140209245979984</title>
<g id="a_node9"><a xlink:title="Output: 26012847 rows in 18312 chunks filtered: 0, 43 ms 93 µs.&#10;Chunks: 0 skipped with no results, &#10;0 skipped with all matching, 0 scanned using binary search.">
<polygon fill="none" stroke="white" stroke-width="1.21" points="682.5,-572 250.5,-572 250.5,-473 682.5,-473 682.5,-572"/>
<text text-anchor="middle" x="466.5" y="-556.8" font-family="Times,serif" font-size="14.00" fill="white">TableScan</text>
<text text-anchor="middle" x="466.5" y="-541.8" font-family="Times,serif" font-size="14.00" fill="white">Impl: ColumnBetween</text>
<text text-anchor="middle" x="466.5" y="-526.8" font-family="Times,serif" font-size="14.00" fill="white">l_receiptdate BETWEEN UPPER EXCLUSIVE &#39;1997&#45;01&#45;01&#39;</text>
<text text-anchor="middle" x="466.5" y="-511.8" font-family="Times,serif" font-size="14.00" fill="white">AND &#39;1998&#45;01&#45;01&#39;</text>
<text text-anchor="middle" x="466.5" y="-480.8" font-family="Times,serif" font-size="14.00" fill="white">43 ms 93 µs</text>
</a>
</g>
</g>
<!-- 140209245979984&#45;&gt;140526466671632 -->
<g id="edge9" class="edge">
<title>140209245979984&#45;&gt;140526466671632</title>
<path fill="none" stroke="white" d="M466.5,-572.02C466.5,-585.49 466.5,-599.89 466.5,-612.54"/>
<polygon fill="white" stroke="white" points="463,-612.7 466.5,-622.7 470,-612.7 463,-612.7"/>
<text text-anchor="middle" x="591.5" y="-593.8" font-family="Times,serif" font-size="14.00" fill="white">26,012,847 row(s)/18,312 chunk(s)</text>
</g>
<!-- 140526466829840 -->
<g id="node10" class="node">
<title>140526466829840</title>
<g id="a_node10"><a xlink:title="Output: 171447349 rows in 18312 chunks filtered: 0, 15 ms 358 µs.">
<polygon fill="none" stroke="white" points="523,-422 410,-422 410,-368 523,-368 523,-422"/>
<text text-anchor="middle" x="466.5" y="-406.8" font-family="Times,serif" font-size="14.00" fill="white">UnionAll</text>
<text text-anchor="middle" x="466.5" y="-375.8" font-family="Times,serif" font-size="14.00" fill="white">15 ms 358 µs</text>
</a>
</g>
</g>
<!-- 140526466829840&#45;&gt;140209245979984 -->
<g id="edge10" class="edge">
<title>140526466829840&#45;&gt;140209245979984</title>
<path fill="none" stroke="white" stroke-width="4.91" d="M466.5,-422C466.5,-433.85 466.5,-448.39 466.5,-462.66"/>
<polygon fill="white" stroke="white" stroke-width="4.91" points="462.2,-462.96 466.5,-472.96 470.8,-462.96 462.2,-462.96"/>
<text text-anchor="middle" x="596" y="-443.8" font-family="Times,serif" font-size="14.00" fill="white">171,447,349 row(s)/18,312 chunk(s)</text>
</g>
<!-- 140209245979344 -->
<g id="node11" class="node">
<title>140209245979344</title>
<g id="a_node11"><a xlink:title="Output: 85718196 rows in 9156 chunks filtered: 0, 61 ms 331 µs.&#10;Chunks: 0 skipped with no results, &#10;0 skipped with all matching, 0 scanned using binary search.">
<polygon fill="none" stroke="white" stroke-width="2.08" points="415,-317 246,-317 246,-233 415,-233 415,-317"/>
<text text-anchor="middle" x="330.5" y="-301.8" font-family="Times,serif" font-size="14.00" fill="white">TableScan</text>
<text text-anchor="middle" x="330.5" y="-286.8" font-family="Times,serif" font-size="14.00" fill="white">Impl: ColumnVsValue</text>
<text text-anchor="middle" x="330.5" y="-271.8" font-family="Times,serif" font-size="14.00" fill="white">l_shipmode = &#39;SHIP&#39;</text>
<text text-anchor="middle" x="330.5" y="-240.8" font-family="Times,serif" font-size="14.00" fill="white">61 ms 331 µs</text>
</a>
</g>
</g>
<!-- 140209245979344&#45;&gt;140526466829840 -->
<g id="edge11" class="edge">
<title>140209245979344&#45;&gt;140526466829840</title>
<path fill="none" stroke="white" stroke-width="3.2" d="M323.22,-317.29C323.29,-328.82 325.59,-340.72 332.5,-350 348.32,-371.24 374.69,-382.38 399.87,-388.17"/>
<polygon fill="white" stroke="white" stroke-width="3.2" points="400.01,-388.2 399.31,-391.63 409.8,-390.21 400.01,-388.2"/>
<text text-anchor="middle" x="453" y="-338.8" font-family="Times,serif" font-size="14.00" fill="white">85,718,196 row(s)/9,156 chunk(s)</text>
</g>
<!-- 140209109837584 -->
<g id="node12" class="node">
<title>140209109837584</title>
<g id="a_node12"><a xlink:title="Output: 600037902 rows in 9156 chunks filtered: 0, 18 ms 991 µs.">
<polygon fill="none" stroke="white" points="530,-148 399,-148 399,-34 530,-34 530,-148"/>
<text text-anchor="middle" x="464.5" y="-132.8" font-family="Times,serif" font-size="14.00" fill="white">GetTable</text>
<text text-anchor="middle" x="464.5" y="-117.8" font-family="Times,serif" font-size="14.00" fill="white">(lineitem)</text>
<text text-anchor="middle" x="464.5" y="-102.8" font-family="Times,serif" font-size="14.00" fill="white">pruned:</text>
<text text-anchor="middle" x="464.5" y="-87.8" font-family="Times,serif" font-size="14.00" fill="white">0/9156 chunk(s)</text>
<text text-anchor="middle" x="464.5" y="-72.8" font-family="Times,serif" font-size="14.00" fill="white">11/16 column(s)</text>
<text text-anchor="middle" x="464.5" y="-41.8" font-family="Times,serif" font-size="14.00" fill="white">18 ms 991 µs</text>
</a>
</g>
</g>
<!-- 140209109837584&#45;&gt;140209245979344 -->
<g id="edge12" class="edge">
<title>140209109837584&#45;&gt;140209245979344</title>
<path fill="none" stroke="white" stroke-width="8" d="M398.94,-126.83C372.22,-144.81 344.19,-169.43 329.5,-200 326.17,-206.92 324.45,-214.65 323.77,-222.43"/>
<polygon fill="white" stroke="white" stroke-width="8" points="316.77,-222.39 323.43,-232.62 330.76,-222.86 316.77,-222.39"/>
<text text-anchor="middle" x="454.5" y="-203.8" font-family="Times,serif" font-size="14.00" fill="white">600,037,902 row(s)/9,156 chunk(s)</text>
</g>
<!-- 140209245979664 -->
<g id="node13" class="node">
<title>140209245979664</title>
<g id="a_node13"><a xlink:title="Output: 85729153 rows in 9156 chunks filtered: 0, 94 ms 784 µs.&#10;Chunks: 0 skipped with no results, &#10;0 skipped with all matching, 0 scanned using binary search.">
<polygon fill="none" stroke="white" stroke-width="3.16" points="685,-317 516,-317 516,-233 685,-233 685,-317"/>
<text text-anchor="middle" x="600.5" y="-301.8" font-family="Times,serif" font-size="14.00" fill="white">TableScan</text>
<text text-anchor="middle" x="600.5" y="-286.8" font-family="Times,serif" font-size="14.00" fill="white">Impl: ColumnVsValue</text>
<text text-anchor="middle" x="600.5" y="-271.8" font-family="Times,serif" font-size="14.00" fill="white">l_shipmode = &#39;AIR&#39;</text>
<text text-anchor="middle" x="600.5" y="-240.8" font-family="Times,serif" font-size="14.00" fill="white">94 ms 784 µs</text>
</a>
</g>
</g>
<!-- 140209109837584&#45;&gt;140209245979664 -->
<g id="edge13" class="edge">
<title>140209109837584&#45;&gt;140209245979664</title>
<path fill="none" stroke="white" stroke-width="8" d="M503.83,-148.21C514.14,-160.4 525.92,-172.47 538.5,-182 554.36,-194.01 566.43,-185 579.5,-200 585.3,-206.66 589.51,-214.81 592.55,-223.25"/>
<polygon fill="white" stroke="white" stroke-width="8" points="585.88,-225.35 595.52,-232.82 599.25,-221.2 585.88,-225.35"/>
<text text-anchor="middle" x="714.5" y="-203.8" font-family="Times,serif" font-size="14.00" fill="white">600,037,902 row(s)/9,156 chunk(s)</text>
</g>
<!-- 140209245979664&#45;&gt;140526466829840 -->
<g id="edge14" class="edge">
<title>140209245979664&#45;&gt;140526466829840</title>
<path fill="none" stroke="white" stroke-width="3.2" d="M594.63,-317.02C591.25,-328.81 585.91,-340.92 577.5,-350 565.49,-362.96 549.16,-372.17 532.73,-378.69"/>
<polygon fill="white" stroke="white" stroke-width="3.2" points="523.07,-382.23 533.67,-382.07 532.47,-378.79 523.07,-382.23"/>
<text text-anchor="middle" x="708" y="-338.8" font-family="Times,serif" font-size="14.00" fill="white">85,729,153 row(s)/9,156 chunk(s)</text>
</g>
<!-- 140526466674192 -->
<g id="node14" class="node">
<title>140526466674192</title>
<g id="a_node14"><a xlink:title="Output: 2922050 rows in 64 chunks filtered: 0, 3 ms 768 µs.">
<polygon fill="none" stroke="white" points="415.5,-1202 311.5,-1202 311.5,-1148 415.5,-1148 415.5,-1202"/>
<text text-anchor="middle" x="363.5" y="-1186.8" font-family="Times,serif" font-size="14.00" fill="white">Validate</text>
<text text-anchor="middle" x="363.5" y="-1155.8" font-family="Times,serif" font-size="14.00" fill="white">3 ms 768 µs</text>
</a>
</g>
</g>
<!-- 140526466674192&#45;&gt;140209245981264 -->
<g id="edge15" class="edge">
<title>140526466674192&#45;&gt;140209245981264</title>
<path fill="none" stroke="white" d="M361.25,-1202.1C361.57,-1213.16 363.75,-1225.62 370.5,-1235 373.4,-1239.03 376.71,-1242.76 380.31,-1246.21"/>
<polygon fill="white" stroke="white" points="388.1,-1252.89 382.79,-1243.72 380.51,-1246.38 388.1,-1252.89"/>
<text text-anchor="middle" x="475.5" y="-1223.8" font-family="Times,serif" font-size="14.00" fill="white">2,922,050 row(s)/64 chunk(s)</text>
</g>
<!-- 140209245980944&#45;&gt;140526466674192 -->
<g id="edge16" class="edge">
<title>140209245980944&#45;&gt;140526466674192</title>
<path fill="none" stroke="white" d="M346.14,-1097.25C349.04,-1110.07 352.35,-1124.73 355.3,-1137.77"/>
<polygon fill="white" stroke="white" points="351.95,-1138.83 357.58,-1147.81 358.78,-1137.29 351.95,-1138.83"/>
<text text-anchor="middle" x="458.5" y="-1118.8" font-family="Times,serif" font-size="14.00" fill="white">2,922,050 row(s)/64 chunk(s)</text>
</g>
<!-- 140209109836688 -->
<g id="node16" class="node">
<title>140209109836688</title>
<g id="a_node16"><a xlink:title="Output: 150000000 rows in 2289 chunks filtered: 0, 3 ms 282 µs.">
<polygon fill="none" stroke="white" points="131,-977 0,-977 0,-863 131,-863 131,-977"/>
<text text-anchor="middle" x="65.5" y="-961.8" font-family="Times,serif" font-size="14.00" fill="white">GetTable</text>
<text text-anchor="middle" x="65.5" y="-946.8" font-family="Times,serif" font-size="14.00" fill="white">(orders)</text>
<text text-anchor="middle" x="65.5" y="-931.8" font-family="Times,serif" font-size="14.00" fill="white">pruned:</text>
<text text-anchor="middle" x="65.5" y="-916.8" font-family="Times,serif" font-size="14.00" fill="white">0/2289 chunk(s)</text>
<text text-anchor="middle" x="65.5" y="-901.8" font-family="Times,serif" font-size="14.00" fill="white">7/9 column(s)</text>
<text text-anchor="middle" x="65.5" y="-870.8" font-family="Times,serif" font-size="14.00" fill="white">3 ms 282 µs</text>
</a>
</g>
</g>
<!-- 140209109836688&#45;&gt;140209245980944 -->
<g id="edge17" class="edge">
<title>140209109836688&#45;&gt;140209245980944</title>
<path fill="none" stroke="white" stroke-width="4.58" d="M64.73,-977.06C67.15,-989.24 71.88,-1001.12 80.5,-1010 96.42,-1026.41 139.36,-1037.86 185.74,-1045.72"/>
<polygon fill="white" stroke="white" stroke-width="4.58" points="185.81,-1045.74 185.17,-1049.69 195.68,-1047.35 185.81,-1045.74"/>
<text text-anchor="middle" x="205.5" y="-998.8" font-family="Times,serif" font-size="14.00" fill="white">150,000,000 row(s)/2,289 chunk(s)</text>
</g>
<!-- 0 -->
<g id="node17" class="node">
<title>0</title>
<polygon fill="none" stroke="white" points="548,-0.5 548,-181.5 899,-181.5 899,-0.5 548,-0.5"/>
<text text-anchor="middle" x="723.5" y="-166.3" font-family="Times,serif" font-size="14.00" fill="white">Total by operator</text>
<polyline fill="none" stroke="white" points="548,-158.5 899,-158.5 "/>
<text text-anchor="end" x="707" y="-143.3" font-family="Times,serif" font-size="14.00" fill="white">AggregateHash </text>
<text text-anchor="end" x="707" y="-128.3" font-family="Times,serif" font-size="14.00" fill="white"> JoinSimdSortMerge </text>
<text text-anchor="end" x="707" y="-113.3" font-family="Times,serif" font-size="14.00" fill="white"> TableScan </text>
<text text-anchor="end" x="707" y="-98.3" font-family="Times,serif" font-size="14.00" fill="white"> Projection </text>
<text text-anchor="end" x="707" y="-83.3" font-family="Times,serif" font-size="14.00" fill="white"> Validate </text>
<text text-anchor="end" x="707" y="-68.3" font-family="Times,serif" font-size="14.00" fill="white"> GetTable </text>
<text text-anchor="end" x="707" y="-53.3" font-family="Times,serif" font-size="14.00" fill="white"> UnionAll </text>
<text text-anchor="end" x="707" y="-38.3" font-family="Times,serif" font-size="14.00" fill="white"> Sort </text>
<text text-anchor="end" x="707" y="-23.3" font-family="Times,serif" font-size="14.00" fill="white"> Alias </text>
<text text-anchor="end" x="707" y="-8.3" font-family="Times,serif" font-size="14.00" fill="white">total</text>
<polyline fill="none" stroke="white" points="715,-0.5 715,-158.5 "/>
<text text-anchor="start" x="723" y="-143.3" font-family="Times,serif" font-size="14.00" fill="white">675 ms 529 µs </text>
<text text-anchor="start" x="723" y="-128.3" font-family="Times,serif" font-size="14.00" fill="white"> 640 ms 951 µs </text>
<text text-anchor="start" x="723" y="-113.3" font-family="Times,serif" font-size="14.00" fill="white"> 362 ms 289 µs </text>
<text text-anchor="start" x="723" y="-98.3" font-family="Times,serif" font-size="14.00" fill="white"> 57 ms 626 µs </text>
<text text-anchor="start" x="723" y="-83.3" font-family="Times,serif" font-size="14.00" fill="white"> 53 ms 894 µs </text>
<text text-anchor="start" x="723" y="-68.3" font-family="Times,serif" font-size="14.00" fill="white"> 22 ms 273 µs </text>
<text text-anchor="start" x="723" y="-53.3" font-family="Times,serif" font-size="14.00" fill="white"> 15 ms 358 µs </text>
<text text-anchor="start" x="723" y="-38.3" font-family="Times,serif" font-size="14.00" fill="white"> 35 µs 112 ns </text>
<text text-anchor="start" x="723" y="-23.3" font-family="Times,serif" font-size="14.00" fill="white"> 5 µs 17 ns </text>
<text text-anchor="start" x="723" y="-8.3" font-family="Times,serif" font-size="14.00" fill="white"> 1 s 828 ms </text>
<polyline fill="none" stroke="white" points="846,-0.5 846,-158.5 "/>
<text text-anchor="start" x="854" y="-143.3" font-family="Times,serif" font-size="14.00" fill="white">37 %</text>
<text text-anchor="start" x="854" y="-128.3" font-family="Times,serif" font-size="14.00" fill="white">35 %</text>
<text text-anchor="start" x="854" y="-113.3" font-family="Times,serif" font-size="14.00" fill="white">20 %</text>
<text text-anchor="start" x="854" y="-98.3" font-family="Times,serif" font-size="14.00" fill="white">3 %</text>
<text text-anchor="start" x="854" y="-83.3" font-family="Times,serif" font-size="14.00" fill="white">3 %</text>
<text text-anchor="start" x="854" y="-68.3" font-family="Times,serif" font-size="14.00" fill="white">1 %</text>
<text text-anchor="start" x="854" y="-53.3" font-family="Times,serif" font-size="14.00" fill="white">1 %</text>
<text text-anchor="start" x="854" y="-38.3" font-family="Times,serif" font-size="14.00" fill="white">0 %</text>
<text text-anchor="start" x="854" y="-23.3" font-family="Times,serif" font-size="14.00" fill="white">0 %</text>
<text text-anchor="start" x="854" y="-8.3" font-family="Times,serif" font-size="14.00" fill="white"> </text>
</g>
</g>
</svg>
