<?xml version="1.0" encoding="UTF-8" standalone="no"?>
<!DOCTYPE svg PUBLIC "-//W3C//DTD SVG 1.1//EN"
 "http://www.w3.org/Graphics/SVG/1.1/DTD/svg11.dtd">
<!-- Generated by graphviz version 2.43.0 (0)
 -->
<!-- Title: G Pages: 1 -->
<svg width="1172pt" height="1835pt"
 viewBox="0.00 0.00 1171.50 1835.00" xmlns="http://www.w3.org/2000/svg" xmlns:xlink="http://www.w3.org/1999/xlink">
<g id="graph0" class="graph" transform="scale(1 1) rotate(0) translate(4 1831)">
<title>G</title>
<polygon fill="black" stroke="transparent" points="-4,4 -4,-1831 1167.5,-1831 1167.5,4 -4,4"/>
<text text-anchor="middle" x="319.5" y="-1811.8" font-family="Times,serif" font-size="14.00" fill="white">For tooltips with advanced information, hover your mouse over vertices or edge labels.</text>
<!-- 139673004170000 -->
<g id="node1" class="node">
<title>139673004170000</title>
<g id="a_node1"><a xlink:title="Output: 20 rows in 1 chunk filtered: 0, 3 µs 344 ns.">
<polygon fill="none" stroke="white" points="848.5,-1772 488.5,-1772 488.5,-1688 848.5,-1688 848.5,-1772"/>
<text text-anchor="middle" x="668.5" y="-1756.8" font-family="Times,serif" font-size="14.00" fill="white">Alias</text>
<text text-anchor="middle" x="668.5" y="-1741.8" font-family="Times,serif" font-size="14.00" fill="white">[c_custkey, c_name, revenue, c_acctbal, n_name,</text>
<text text-anchor="middle" x="668.5" y="-1726.8" font-family="Times,serif" font-size="14.00" fill="white">c_address, c_phone, c_comment]</text>
<text text-anchor="middle" x="668.5" y="-1695.8" font-family="Times,serif" font-size="14.00" fill="white">3 µs 344 ns</text>
</a>
</g>
</g>
<!-- 139673004169680 -->
<g id="node2" class="node">
<title>139673004169680</title>
<g id="a_node2"><a xlink:title="Output: 20 rows in 1 chunk filtered: 0, 16 µs 325 ns.&#10;Operator step runtimes:&#10; ForwardUnmodifiedColumns 4 µs 400 ns&#10; EvaluateNewColumns 994 ns&#10; BuildOutput 6 µs 656 ns.">
<polygon fill="none" stroke="white" points="722.5,-1637 614.5,-1637 614.5,-1583 722.5,-1583 722.5,-1637"/>
<text text-anchor="middle" x="668.5" y="-1621.8" font-family="Times,serif" font-size="14.00" fill="white">Projection</text>
<text text-anchor="middle" x="668.5" y="-1590.8" font-family="Times,serif" font-size="14.00" fill="white">16 µs 325 ns</text>
</a>
</g>
</g>
<!-- 139673004169680&#45;&gt;139673004170000 -->
<g id="edge1" class="edge">
<title>139673004169680&#45;&gt;139673004170000</title>
<path fill="none" stroke="white" d="M668.5,-1637.19C668.5,-1649.1 668.5,-1663.63 668.5,-1677.58"/>
<polygon fill="white" stroke="white" points="665,-1677.59 668.5,-1687.59 672,-1677.59 665,-1677.59"/>
<text text-anchor="middle" x="742" y="-1658.8" font-family="Times,serif" font-size="14.00" fill="white">20 row(s)/1 chunk(s)</text>
</g>
<!-- 139673010216720 -->
<g id="node3" class="node">
<title>139673010216720</title>
<g id="a_node3"><a xlink:title="Output: 20 rows in 1 chunk filtered: 0, 19 µs 363 ns.">
<polygon fill="none" stroke="white" points="722.5,-1532 614.5,-1532 614.5,-1478 722.5,-1478 722.5,-1532"/>
<text text-anchor="middle" x="668.5" y="-1516.8" font-family="Times,serif" font-size="14.00" fill="white">Limit</text>
<text text-anchor="middle" x="668.5" y="-1485.8" font-family="Times,serif" font-size="14.00" fill="white">19 µs 363 ns</text>
</a>
</g>
</g>
<!-- 139673010216720&#45;&gt;139673004169680 -->
<g id="edge2" class="edge">
<title>139673010216720&#45;&gt;139673004169680</title>
<path fill="none" stroke="white" d="M668.5,-1532.26C668.5,-1544.49 668.5,-1559.24 668.5,-1572.52"/>
<polygon fill="white" stroke="white" points="665,-1572.79 668.5,-1582.79 672,-1572.79 665,-1572.79"/>
<text text-anchor="middle" x="742" y="-1553.8" font-family="Times,serif" font-size="14.00" fill="white">20 row(s)/1 chunk(s)</text>
</g>
<!-- 139673004169360 -->
<g id="node4" class="node">
<title>139673004169360</title>
<g id="a_node4"><a xlink:title="Output: 381170 rows in 6 chunks filtered: 0, 74 ms 281 µs.&#10;Operator step runtimes:&#10; MaterializeSortColumns 2 ms 74 µs&#10; Sort 41 ms 66 µs&#10; TemporaryResultWriting 907 µs 67 ns&#10; WriteOutput 30 ms 225 µs.">
<polygon fill="none" stroke="white" stroke-width="6.49" points="725,-1427 612,-1427 612,-1373 725,-1373 725,-1427"/>
<text text-anchor="middle" x="668.5" y="-1411.8" font-family="Times,serif" font-size="14.00" fill="white">Sort</text>
<text text-anchor="middle" x="668.5" y="-1380.8" font-family="Times,serif" font-size="14.00" fill="white">74 ms 281 µs</text>
</a>
</g>
</g>
<!-- 139673004169360&#45;&gt;139673010216720 -->
<g id="edge3" class="edge">
<title>139673004169360&#45;&gt;139673010216720</title>
<path fill="none" stroke="white" d="M668.5,-1427.26C668.5,-1439.49 668.5,-1454.24 668.5,-1467.52"/>
<polygon fill="white" stroke="white" points="665,-1467.79 668.5,-1477.79 672,-1467.79 665,-1467.79"/>
<text text-anchor="middle" x="762" y="-1448.8" font-family="Times,serif" font-size="14.00" fill="white">381,170 row(s)/6 chunk(s)</text>
</g>
<!-- 139716850060816 -->
<g id="node5" class="node">
<title>139716850060816</title>
<g id="a_node5"><a xlink:title="Output: 381170 rows in 6 chunks filtered: 0, 78 ms 782 µs.&#10;Operator step runtimes:&#10; GroupByKeyPartitioning 11 ms 395 µs&#10; Aggregating 46 ms 697 µs&#10; GroupByColumnsWriting 8 ms 834 µs&#10; AggregateColumnsWriting 11 ms 806 µs&#10; OutputWriting 14 µs 735 ns.">
<polygon fill="none" stroke="white" stroke-width="6.64" points="821.5,-1322 515.5,-1322 515.5,-1148 821.5,-1148 821.5,-1322"/>
<text text-anchor="middle" x="668.5" y="-1306.8" font-family="Times,serif" font-size="14.00" fill="white">AggregateHash</text>
<text text-anchor="middle" x="668.5" y="-1291.8" font-family="Times,serif" font-size="14.00" fill="white">GroupBy {c_custkey}</text>
<text text-anchor="middle" x="668.5" y="-1276.8" font-family="Times,serif" font-size="14.00" fill="white">SUM(l_extendedprice * (1 &#45; l_discount)), </text>
<text text-anchor="middle" x="668.5" y="-1261.8" font-family="Times,serif" font-size="14.00" fill="white">ANY(n_name), </text>
<text text-anchor="middle" x="668.5" y="-1246.8" font-family="Times,serif" font-size="14.00" fill="white">ANY(c_comment), </text>
<text text-anchor="middle" x="668.5" y="-1231.8" font-family="Times,serif" font-size="14.00" fill="white">ANY(c_phone), </text>
<text text-anchor="middle" x="668.5" y="-1216.8" font-family="Times,serif" font-size="14.00" fill="white">ANY(c_acctbal), </text>
<text text-anchor="middle" x="668.5" y="-1201.8" font-family="Times,serif" font-size="14.00" fill="white">ANY(c_address), </text>
<text text-anchor="middle" x="668.5" y="-1186.8" font-family="Times,serif" font-size="14.00" fill="white">ANY(c_name)</text>
<text text-anchor="middle" x="668.5" y="-1155.8" font-family="Times,serif" font-size="14.00" fill="white">78 ms 782 µs</text>
</a>
</g>
</g>
<!-- 139716850060816&#45;&gt;139673004169360 -->
<g id="edge4" class="edge">
<title>139716850060816&#45;&gt;139673004169360</title>
<path fill="none" stroke="white" d="M668.5,-1322.27C668.5,-1336.57 668.5,-1350.66 668.5,-1362.8"/>
<polygon fill="white" stroke="white" points="665,-1362.91 668.5,-1372.91 672,-1362.91 665,-1362.91"/>
<text text-anchor="middle" x="762" y="-1343.8" font-family="Times,serif" font-size="14.00" fill="white">381,170 row(s)/6 chunk(s)</text>
</g>
<!-- 139673004169040 -->
<g id="node6" class="node">
<title>139673004169040</title>
<g id="a_node6"><a xlink:title="Output: 1147482 rows in 8 chunks filtered: 0, 52 ms 969 µs.&#10;Operator step runtimes:&#10; ForwardUnmodifiedColumns 17 µs 170 ns&#10; EvaluateNewColumns 52 ms 898 µs&#10; BuildOutput 45 µs 684 ns.">
<polygon fill="none" stroke="white" stroke-width="5.66" points="725,-1097 612,-1097 612,-1043 725,-1043 725,-1097"/>
<text text-anchor="middle" x="668.5" y="-1081.8" font-family="Times,serif" font-size="14.00" fill="white">Projection</text>
<text text-anchor="middle" x="668.5" y="-1050.8" font-family="Times,serif" font-size="14.00" fill="white">52 ms 969 µs</text>
</a>
</g>
</g>
<!-- 139673004169040&#45;&gt;139716850060816 -->
<g id="edge5" class="edge">
<title>139673004169040&#45;&gt;139716850060816</title>
<path fill="none" stroke="white" d="M668.5,-1097.19C668.5,-1108.6 668.5,-1122.74 668.5,-1137.57"/>
<polygon fill="white" stroke="white" points="665,-1137.91 668.5,-1147.91 672,-1137.91 665,-1137.91"/>
<text text-anchor="middle" x="769" y="-1118.8" font-family="Times,serif" font-size="14.00" fill="white">1,147,482 row(s)/8 chunk(s)</text>
</g>
<!-- 139673004168720 -->
<g id="node7" class="node">
<title>139673004168720</title>
<g id="a_node7"><a xlink:title="Output: 1147482 rows in 8 chunks filtered: 0, 89 ms 533 µs.&#10;Operator step runtimes:&#10; BuildSideMaterializing 24 ms 139 µs&#10; ProbeSideMaterializing 3 ms 250 µs&#10; Clustering 4 ms 652 µs&#10; Building 29 ms 436 µs&#10; Probing 14 ms 913 µs&#10; OutputWriting 13 ms 47 µs.&#10;Radix bits: 3.&#10;Build side is left.">
<polygon fill="none" stroke="white" stroke-width="6.95" points="756.5,-992 580.5,-992 580.5,-923 756.5,-923 756.5,-992"/>
<text text-anchor="middle" x="668.5" y="-976.8" font-family="Times,serif" font-size="14.00" fill="white">JoinHash (Inner)</text>
<text text-anchor="middle" x="668.5" y="-961.8" font-family="Times,serif" font-size="14.00" fill="white">o_custkey = c_custkey</text>
<text text-anchor="middle" x="668.5" y="-930.8" font-family="Times,serif" font-size="14.00" fill="white">89 ms 533 µs</text>
</a>
</g>
</g>
<!-- 139673004168720&#45;&gt;139673004169040 -->
<g id="edge6" class="edge">
<title>139673004168720&#45;&gt;139673004169040</title>
<path fill="none" stroke="white" d="M668.5,-992.25C668.5,-1005.07 668.5,-1019.73 668.5,-1032.77"/>
<polygon fill="white" stroke="white" points="665,-1032.81 668.5,-1042.81 672,-1032.81 665,-1032.81"/>
<text text-anchor="middle" x="769" y="-1013.8" font-family="Times,serif" font-size="14.00" fill="white">1,147,482 row(s)/8 chunk(s)</text>
</g>
<!-- 139673004168080 -->
<g id="node8" class="node">
<title>139673004168080</title>
<g id="a_node8"><a xlink:title="Output: 1147482 rows in 4 chunks filtered: 0, 107 ms 565 µs.&#10;Operator step runtimes:&#10; BuildSideMaterializing 26 ms 386 µs&#10; ProbeSideMaterializing 36 ms 550 µs&#10; Clustering 4 ms 974 µs&#10; Building 17 ms 682 µs&#10; Probing 12 ms 111 µs&#10; OutputWriting 9 ms 801 µs.&#10;Radix bits: 2.&#10;Build side is right.">
<polygon fill="none" stroke="white" stroke-width="7.41" points="651,-872 460,-872 460,-803 651,-803 651,-872"/>
<text text-anchor="middle" x="555.5" y="-856.8" font-family="Times,serif" font-size="14.00" fill="white">JoinHash (Inner)</text>
<text text-anchor="middle" x="555.5" y="-841.8" font-family="Times,serif" font-size="14.00" fill="white">l_orderkey = o_orderkey</text>
<text text-anchor="middle" x="555.5" y="-810.8" font-family="Times,serif" font-size="14.00" fill="white">107 ms 565 µs</text>
</a>
</g>
</g>
<!-- 139673004168080&#45;&gt;139673004168720 -->
<g id="edge7" class="edge">
<title>139673004168080&#45;&gt;139673004168720</title>
<path fill="none" stroke="white" d="M550.93,-872.16C551.03,-883.42 553.08,-895.52 559.5,-905 563.16,-910.4 567.54,-915.26 572.41,-919.61"/>
<polygon fill="white" stroke="white" points="572.65,-919.8 570.46,-922.53 580.45,-926.05 572.65,-919.8"/>
<text text-anchor="middle" x="660" y="-893.8" font-family="Times,serif" font-size="14.00" fill="white">1,147,482 row(s)/4 chunk(s)</text>
</g>
<!-- 139673010215696 -->
<g id="node9" class="node">
<title>139673010215696</title>
<g id="a_node9"><a xlink:title="Output: 1147482 rows in 4 chunks filtered: 0, 2 ms 751 µs.">
<polygon fill="none" stroke="white" points="387.5,-752 283.5,-752 283.5,-698 387.5,-698 387.5,-752"/>
<text text-anchor="middle" x="335.5" y="-736.8" font-family="Times,serif" font-size="14.00" fill="white">Validate</text>
<text text-anchor="middle" x="335.5" y="-705.8" font-family="Times,serif" font-size="14.00" fill="white">2 ms 751 µs</text>
</a>
</g>
</g>
<!-- 139673010215696&#45;&gt;139673004168080 -->
<g id="edge8" class="edge">
<title>139673010215696&#45;&gt;139673004168080</title>
<path fill="none" stroke="white" d="M331.36,-752.12C331.03,-763.44 332.86,-776.11 340.5,-785 355.42,-802.36 403.11,-814.72 449.79,-822.97"/>
<polygon fill="white" stroke="white" points="449.86,-822.99 449.27,-826.44 459.72,-824.67 449.86,-822.99"/>
<text text-anchor="middle" x="441" y="-773.8" font-family="Times,serif" font-size="14.00" fill="white">1,147,482 row(s)/4 chunk(s)</text>
</g>
<!-- 139673004167760 -->
<g id="node10" class="node">
<title>139673004167760</title>
<g id="a_node10"><a xlink:title="Output: 1147482 rows in 4 chunks filtered: 0, 136 ms 907 µs.&#10;Operator step runtimes:&#10; BuildSideMaterializing 8 ms 575 µs&#10; ProbeSideMaterializing 34 ms 168 µs&#10; Clustering 26 ms 134 µs&#10; Building 5 ms 159 µs&#10; Probing 53 ms 361 µs&#10; OutputWriting 9 ms 413 µs.&#10;Radix bits: 2.&#10;Build side is right.">
<polygon fill="none" stroke="white" stroke-width="8" points="435.5,-624.5 227.5,-624.5 227.5,-555.5 435.5,-555.5 435.5,-624.5"/>
<text text-anchor="middle" x="331.5" y="-609.3" font-family="Times,serif" font-size="14.00" fill="white">JoinHash (Semi Reduction)</text>
<text text-anchor="middle" x="331.5" y="-594.3" font-family="Times,serif" font-size="14.00" fill="white">l_orderkey = o_orderkey</text>
<text text-anchor="middle" x="331.5" y="-563.3" font-family="Times,serif" font-size="14.00" fill="white">136 ms 907 µs</text>
</a>
</g>
</g>
<!-- 139673004167760&#45;&gt;139673010215696 -->
<g id="edge9" class="edge">
<title>139673004167760&#45;&gt;139673010215696</title>
<path fill="none" stroke="white" d="M331.43,-624.82C331.51,-641.45 331.78,-661.78 332.5,-680 332.6,-682.54 332.73,-685.17 332.87,-687.81"/>
<polygon fill="white" stroke="white" points="329.38,-688.18 333.48,-697.96 336.37,-687.76 329.38,-688.18"/>
<text text-anchor="middle" x="433" y="-668.8" font-family="Times,serif" font-size="14.00" fill="white">1,147,482 row(s)/4 chunk(s)</text>
</g>
<!-- 139673004167120 -->
<g id="node11" class="node">
<title>139673004167120</title>
<g id="a_node11"><a xlink:title="Output: 14808183 rows in 916 chunks filtered: 0, 15 ms 297 µs.&#10;Chunks: 0 skipped with no results, &#10;0 skipped with all matching, 0 scanned using binary search.">
<polygon fill="none" stroke="white" stroke-width="2.59" points="169,-482 0,-482 0,-398 169,-398 169,-482"/>
<text text-anchor="middle" x="84.5" y="-466.8" font-family="Times,serif" font-size="14.00" fill="white">TableScan</text>
<text text-anchor="middle" x="84.5" y="-451.8" font-family="Times,serif" font-size="14.00" fill="white">Impl: ColumnVsValue</text>
<text text-anchor="middle" x="84.5" y="-436.8" font-family="Times,serif" font-size="14.00" fill="white">l_returnflag = &#39;R&#39;</text>
<text text-anchor="middle" x="84.5" y="-405.8" font-family="Times,serif" font-size="14.00" fill="white">15 ms 297 µs</text>
</a>
</g>
</g>
<!-- 139673004167120&#45;&gt;139673004167760 -->
<g id="edge10" class="edge">
<title>139673004167120&#45;&gt;139673004167760</title>
<path fill="none" stroke="white" stroke-width="4.55" d="M83.94,-482.08C85.69,-493.88 89.59,-505.97 97.5,-515 127.77,-549.57 174.06,-568.15 217.51,-578.07"/>
<polygon fill="white" stroke="white" stroke-width="4.55" points="217.53,-578.07 216.7,-581.97 227.31,-580.17 217.53,-578.07"/>
<text text-anchor="middle" x="211.5" y="-503.8" font-family="Times,serif" font-size="14.00" fill="white">14,808,183 row(s)/916 chunk(s)</text>
</g>
<!-- 139671003975376 -->
<g id="node12" class="node">
<title>139671003975376</title>
<g id="a_node12"><a xlink:title="Output: 59986052 rows in 916 chunks filtered: 0, 5 ms 104 µs.">
<polygon fill="none" stroke="white" points="150,-347 19,-347 19,-233 150,-233 150,-347"/>
<text text-anchor="middle" x="84.5" y="-331.8" font-family="Times,serif" font-size="14.00" fill="white">GetTable</text>
<text text-anchor="middle" x="84.5" y="-316.8" font-family="Times,serif" font-size="14.00" fill="white">(lineitem)</text>
<text text-anchor="middle" x="84.5" y="-301.8" font-family="Times,serif" font-size="14.00" fill="white">pruned:</text>
<text text-anchor="middle" x="84.5" y="-286.8" font-family="Times,serif" font-size="14.00" fill="white">0/916 chunk(s)</text>
<text text-anchor="middle" x="84.5" y="-271.8" font-family="Times,serif" font-size="14.00" fill="white">12/16 column(s)</text>
<text text-anchor="middle" x="84.5" y="-240.8" font-family="Times,serif" font-size="14.00" fill="white">5 ms 104 µs</text>
</a>
</g>
</g>
<!-- 139671003975376&#45;&gt;139673004167120 -->
<g id="edge11" class="edge">
<title>139671003975376&#45;&gt;139673004167120</title>
<path fill="none" stroke="white" stroke-width="8" d="M84.5,-347.37C84.5,-360.65 84.5,-374.74 84.5,-387.77"/>
<polygon fill="white" stroke="white" stroke-width="8" points="77.5,-387.97 84.5,-397.97 91.5,-387.97 77.5,-387.97"/>
<text text-anchor="middle" x="198.5" y="-368.8" font-family="Times,serif" font-size="14.00" fill="white">59,986,052 row(s)/916 chunk(s)</text>
</g>
<!-- 139716850063376 -->
<g id="node13" class="node">
<title>139716850063376</title>
<g id="a_node13"><a xlink:title="Output: 573070 rows in 229 chunks filtered: 0, 773 µs 681 ns.">
<polygon fill="none" stroke="white" points="526,-467 409,-467 409,-413 526,-413 526,-467"/>
<text text-anchor="middle" x="467.5" y="-451.8" font-family="Times,serif" font-size="14.00" fill="white">Validate</text>
<text text-anchor="middle" x="467.5" y="-420.8" font-family="Times,serif" font-size="14.00" fill="white">773 µs 681 ns</text>
</a>
</g>
</g>
<!-- 139716850063376&#45;&gt;139673004168080 -->
<g id="edge13" class="edge">
<title>139716850063376&#45;&gt;139673004168080</title>
<path fill="none" stroke="white" d="M512.82,-467.22C524.17,-476.11 534.96,-487.11 541.5,-500 566.82,-549.9 562.11,-713.29 558.11,-792.57"/>
<polygon fill="white" stroke="white" points="557.58,-802.72 561.6,-792.92 558.1,-792.74 557.58,-802.72"/>
<text text-anchor="middle" x="664" y="-668.8" font-family="Times,serif" font-size="14.00" fill="white">573,070 row(s)/229 chunk(s)</text>
</g>
<!-- 139716850063376&#45;&gt;139673004167760 -->
<g id="edge12" class="edge">
<title>139716850063376&#45;&gt;139673004167760</title>
<path fill="none" stroke="white" d="M408.87,-452.8C382.3,-461.31 353.16,-475.74 336.5,-500 327.6,-512.96 324.98,-529.64 325.05,-545.05"/>
<polygon fill="white" stroke="white" points="325.48,-555.46 328.56,-545.32 325.06,-545.47 325.48,-555.46"/>
<text text-anchor="middle" x="439" y="-503.8" font-family="Times,serif" font-size="14.00" fill="white">573,070 row(s)/229 chunk(s)</text>
</g>
<!-- 139673004167440 -->
<g id="node14" class="node">
<title>139673004167440</title>
<g id="a_node14"><a xlink:title="Output: 573070 rows in 229 chunks filtered: 0, 2 ms 406 µs.&#10;Chunks: 0 skipped with no results, &#10;0 skipped with all matching, 0 scanned using binary search.">
<polygon fill="none" stroke="white" points="680,-339.5 255,-339.5 255,-240.5 680,-240.5 680,-339.5"/>
<text text-anchor="middle" x="467.5" y="-324.3" font-family="Times,serif" font-size="14.00" fill="white">TableScan</text>
<text text-anchor="middle" x="467.5" y="-309.3" font-family="Times,serif" font-size="14.00" fill="white">Impl: ColumnBetween</text>
<text text-anchor="middle" x="467.5" y="-294.3" font-family="Times,serif" font-size="14.00" fill="white">o_orderdate BETWEEN UPPER EXCLUSIVE &#39;1994&#45;03&#45;01&#39;</text>
<text text-anchor="middle" x="467.5" y="-279.3" font-family="Times,serif" font-size="14.00" fill="white">AND &#39;1994&#45;06&#45;01&#39;</text>
<text text-anchor="middle" x="467.5" y="-248.3" font-family="Times,serif" font-size="14.00" fill="white">2 ms 406 µs</text>
</a>
</g>
</g>
<!-- 139673004167440&#45;&gt;139716850063376 -->
<g id="edge14" class="edge">
<title>139673004167440&#45;&gt;139716850063376</title>
<path fill="none" stroke="white" d="M467.5,-339.87C467.5,-360.24 467.5,-383.48 467.5,-402.34"/>
<polygon fill="white" stroke="white" points="464,-402.6 467.5,-412.6 471,-402.6 464,-402.6"/>
<text text-anchor="middle" x="570" y="-368.8" font-family="Times,serif" font-size="14.00" fill="white">573,070 row(s)/229 chunk(s)</text>
</g>
<!-- 139671003977168 -->
<g id="node15" class="node">
<title>139671003977168</title>
<g id="a_node15"><a xlink:title="Output: 15000000 rows in 229 chunks filtered: 0, 1 ms 437 µs.">
<polygon fill="none" stroke="white" points="528.5,-148 406.5,-148 406.5,-34 528.5,-34 528.5,-148"/>
<text text-anchor="middle" x="467.5" y="-132.8" font-family="Times,serif" font-size="14.00" fill="white">GetTable</text>
<text text-anchor="middle" x="467.5" y="-117.8" font-family="Times,serif" font-size="14.00" fill="white">(orders)</text>
<text text-anchor="middle" x="467.5" y="-102.8" font-family="Times,serif" font-size="14.00" fill="white">pruned:</text>
<text text-anchor="middle" x="467.5" y="-87.8" font-family="Times,serif" font-size="14.00" fill="white">0/229 chunk(s)</text>
<text text-anchor="middle" x="467.5" y="-72.8" font-family="Times,serif" font-size="14.00" fill="white">6/9 column(s)</text>
<text text-anchor="middle" x="467.5" y="-41.8" font-family="Times,serif" font-size="14.00" fill="white">1 ms 437 µs</text>
</a>
</g>
</g>
<!-- 139671003977168&#45;&gt;139673004167440 -->
<g id="edge15" class="edge">
<title>139671003977168&#45;&gt;139673004167440</title>
<path fill="none" stroke="white" stroke-width="4.58" d="M467.5,-148.19C467.5,-173.89 467.5,-204.34 467.5,-230.33"/>
<polygon fill="white" stroke="white" stroke-width="4.58" points="463.49,-230.43 467.5,-240.43 471.51,-230.43 463.49,-230.43"/>
<text text-anchor="middle" x="581.5" y="-203.8" font-family="Times,serif" font-size="14.00" fill="white">15,000,000 row(s)/229 chunk(s)</text>
</g>
<!-- 139673004168400 -->
<g id="node16" class="node">
<title>139673004168400</title>
<g id="a_node16"><a xlink:title="Output: 1500000 rows in 23 chunks filtered: 0, 18 ms 993 µs.&#10;Operator step runtimes:&#10; BuildSideMaterializing 64 µs 580 ns&#10; ProbeSideMaterializing 2 ms 431 µs&#10; Clustering 0 ns&#10; Building 25 µs 573 ns&#10; Probing 4 ms 974 µs&#10; OutputWriting 11 ms 239 µs.&#10;Radix bits: 0.&#10;Build side is right.">
<polygon fill="none" stroke="white" stroke-width="3.13" points="887,-872 680,-872 680,-803 887,-803 887,-872"/>
<text text-anchor="middle" x="783.5" y="-856.8" font-family="Times,serif" font-size="14.00" fill="white">JoinHash (Inner)</text>
<text text-anchor="middle" x="783.5" y="-841.8" font-family="Times,serif" font-size="14.00" fill="white">c_nationkey = n_nationkey</text>
<text text-anchor="middle" x="783.5" y="-810.8" font-family="Times,serif" font-size="14.00" fill="white">18 ms 993 µs</text>
</a>
</g>
</g>
<!-- 139673004168400&#45;&gt;139673004168720 -->
<g id="edge16" class="edge">
<title>139673004168400&#45;&gt;139673004168720</title>
<path fill="none" stroke="white" d="M777.02,-872.05C773.56,-883.43 768.34,-895.63 760.5,-905 757.14,-909.02 753.37,-912.79 749.34,-916.3"/>
<polygon fill="white" stroke="white" points="741.3,-922.76 751.29,-919.23 749.09,-916.5 741.3,-922.76"/>
<text text-anchor="middle" x="875.5" y="-893.8" font-family="Times,serif" font-size="14.00" fill="white">1,500,000 row(s)/23 chunk(s)</text>
</g>
<!-- 139673010215952 -->
<g id="node17" class="node">
<title>139673010215952</title>
<g id="a_node17"><a xlink:title="Output: 1500000 rows in 23 chunks filtered: 0, 185 µs 829 ns.">
<polygon fill="none" stroke="white" points="842,-752 725,-752 725,-698 842,-698 842,-752"/>
<text text-anchor="middle" x="783.5" y="-736.8" font-family="Times,serif" font-size="14.00" fill="white">Validate</text>
<text text-anchor="middle" x="783.5" y="-705.8" font-family="Times,serif" font-size="14.00" fill="white">185 µs 829 ns</text>
</a>
</g>
</g>
<!-- 139673010215952&#45;&gt;139673004168400 -->
<g id="edge17" class="edge">
<title>139673010215952&#45;&gt;139673004168400</title>
<path fill="none" stroke="white" d="M783.5,-752.19C783.5,-764.29 783.5,-779 783.5,-792.72"/>
<polygon fill="white" stroke="white" points="783.5,-792.95 780,-792.95 783.5,-802.95 783.5,-792.95"/>
<text text-anchor="middle" x="888.5" y="-773.8" font-family="Times,serif" font-size="14.00" fill="white">1,500,000 row(s)/23 chunk(s)</text>
</g>
<!-- 139671003977616 -->
<g id="node18" class="node">
<title>139671003977616</title>
<g id="a_node18"><a xlink:title="Output: 1500000 rows in 23 chunks filtered: 0, 173 µs 636 ns.">
<polygon fill="none" stroke="white" points="842,-647 725,-647 725,-533 842,-533 842,-647"/>
<text text-anchor="middle" x="783.5" y="-631.8" font-family="Times,serif" font-size="14.00" fill="white">GetTable</text>
<text text-anchor="middle" x="783.5" y="-616.8" font-family="Times,serif" font-size="14.00" fill="white">(customer)</text>
<text text-anchor="middle" x="783.5" y="-601.8" font-family="Times,serif" font-size="14.00" fill="white">pruned:</text>
<text text-anchor="middle" x="783.5" y="-586.8" font-family="Times,serif" font-size="14.00" fill="white">0/23 chunk(s)</text>
<text text-anchor="middle" x="783.5" y="-571.8" font-family="Times,serif" font-size="14.00" fill="white">1/8 column(s)</text>
<text text-anchor="middle" x="783.5" y="-540.8" font-family="Times,serif" font-size="14.00" fill="white">173 µs 636 ns</text>
</a>
</g>
</g>
<!-- 139671003977616&#45;&gt;139673010215952 -->
<g id="edge18" class="edge">
<title>139671003977616&#45;&gt;139673010215952</title>
<path fill="none" stroke="white" d="M783.5,-647.02C783.5,-660.77 783.5,-675.14 783.5,-687.69"/>
<polygon fill="white" stroke="white" points="780,-687.75 783.5,-697.75 787,-687.75 780,-687.75"/>
<text text-anchor="middle" x="888.5" y="-668.8" font-family="Times,serif" font-size="14.00" fill="white">1,500,000 row(s)/23 chunk(s)</text>
</g>
<!-- 139673010216208 -->
<g id="node19" class="node">
<title>139673010216208</title>
<g id="a_node19"><a xlink:title="Output: 25 rows in 1 chunk filtered: 0, 12 µs 839 ns.">
<polygon fill="none" stroke="white" points="1070.5,-752 962.5,-752 962.5,-698 1070.5,-698 1070.5,-752"/>
<text text-anchor="middle" x="1016.5" y="-736.8" font-family="Times,serif" font-size="14.00" fill="white">Validate</text>
<text text-anchor="middle" x="1016.5" y="-705.8" font-family="Times,serif" font-size="14.00" fill="white">12 µs 839 ns</text>
</a>
</g>
</g>
<!-- 139673010216208&#45;&gt;139673004168400 -->
<g id="edge19" class="edge">
<title>139673010216208&#45;&gt;139673004168400</title>
<path fill="none" stroke="white" d="M1012.46,-752.08C1009.38,-763.67 1003.98,-776.58 994.5,-785 979.14,-798.65 938.6,-810.02 897.11,-818.57"/>
<polygon fill="white" stroke="white" points="887.13,-820.57 897.62,-822.03 896.93,-818.6 887.13,-820.57"/>
<text text-anchor="middle" x="1079" y="-773.8" font-family="Times,serif" font-size="14.00" fill="white">25 row(s)/1 chunk(s)</text>
</g>
<!-- 139671003978064 -->
<g id="node20" class="node">
<title>139671003978064</title>
<g id="a_node20"><a xlink:title="Output: 25 rows in 1 chunk filtered: 0, 16 µs 985 ns.">
<polygon fill="none" stroke="white" points="1073,-647 960,-647 960,-533 1073,-533 1073,-647"/>
<text text-anchor="middle" x="1016.5" y="-631.8" font-family="Times,serif" font-size="14.00" fill="white">GetTable</text>
<text text-anchor="middle" x="1016.5" y="-616.8" font-family="Times,serif" font-size="14.00" fill="white">(nation)</text>
<text text-anchor="middle" x="1016.5" y="-601.8" font-family="Times,serif" font-size="14.00" fill="white">pruned:</text>
<text text-anchor="middle" x="1016.5" y="-586.8" font-family="Times,serif" font-size="14.00" fill="white">0/1 chunk(s)</text>
<text text-anchor="middle" x="1016.5" y="-571.8" font-family="Times,serif" font-size="14.00" fill="white">2/4 column(s)</text>
<text text-anchor="middle" x="1016.5" y="-540.8" font-family="Times,serif" font-size="14.00" fill="white">16 µs 985 ns</text>
</a>
</g>
</g>
<!-- 139671003978064&#45;&gt;139673010216208 -->
<g id="edge20" class="edge">
<title>139671003978064&#45;&gt;139673010216208</title>
<path fill="none" stroke="white" d="M1016.5,-647.02C1016.5,-660.77 1016.5,-675.14 1016.5,-687.69"/>
<polygon fill="white" stroke="white" points="1013,-687.75 1016.5,-697.75 1020,-687.75 1013,-687.75"/>
<text text-anchor="middle" x="1090" y="-668.8" font-family="Times,serif" font-size="14.00" fill="white">25 row(s)/1 chunk(s)</text>
</g>
<!-- 0 -->
<g id="node21" class="node">
<title>0</title>
<polygon fill="none" stroke="white" points="547,-0.5 547,-181.5 868,-181.5 868,-0.5 547,-0.5"/>
<text text-anchor="middle" x="707.5" y="-166.3" font-family="Times,serif" font-size="14.00" fill="white">Total by operator</text>
<polyline fill="none" stroke="white" points="547,-158.5 868,-158.5 "/>
<text text-anchor="end" x="676" y="-143.3" font-family="Times,serif" font-size="14.00" fill="white">JoinHash </text>
<text text-anchor="end" x="676" y="-128.3" font-family="Times,serif" font-size="14.00" fill="white"> AggregateHash </text>
<text text-anchor="end" x="676" y="-113.3" font-family="Times,serif" font-size="14.00" fill="white"> Sort </text>
<text text-anchor="end" x="676" y="-98.3" font-family="Times,serif" font-size="14.00" fill="white"> Projection </text>
<text text-anchor="end" x="676" y="-83.3" font-family="Times,serif" font-size="14.00" fill="white"> TableScan </text>
<text text-anchor="end" x="676" y="-68.3" font-family="Times,serif" font-size="14.00" fill="white"> GetTable </text>
<text text-anchor="end" x="676" y="-53.3" font-family="Times,serif" font-size="14.00" fill="white"> Validate </text>
<text text-anchor="end" x="676" y="-38.3" font-family="Times,serif" font-size="14.00" fill="white"> Limit </text>
<text text-anchor="end" x="676" y="-23.3" font-family="Times,serif" font-size="14.00" fill="white"> Alias </text>
<text text-anchor="end" x="676" y="-8.3" font-family="Times,serif" font-size="14.00" fill="white">total</text>
<polyline fill="none" stroke="white" points="684,-0.5 684,-158.5 "/>
<text text-anchor="start" x="692" y="-143.3" font-family="Times,serif" font-size="14.00" fill="white">352 ms 998 µs </text>
<text text-anchor="start" x="692" y="-128.3" font-family="Times,serif" font-size="14.00" fill="white"> 78 ms 782 µs </text>
<text text-anchor="start" x="692" y="-113.3" font-family="Times,serif" font-size="14.00" fill="white"> 74 ms 281 µs </text>
<text text-anchor="start" x="692" y="-98.3" font-family="Times,serif" font-size="14.00" fill="white"> 52 ms 985 µs </text>
<text text-anchor="start" x="692" y="-83.3" font-family="Times,serif" font-size="14.00" fill="white"> 17 ms 703 µs </text>
<text text-anchor="start" x="692" y="-68.3" font-family="Times,serif" font-size="14.00" fill="white"> 6 ms 732 µs </text>
<text text-anchor="start" x="692" y="-53.3" font-family="Times,serif" font-size="14.00" fill="white"> 3 ms 724 µs </text>
<text text-anchor="start" x="692" y="-38.3" font-family="Times,serif" font-size="14.00" fill="white"> 19 µs 363 ns </text>
<text text-anchor="start" x="692" y="-23.3" font-family="Times,serif" font-size="14.00" fill="white"> 3 µs 344 ns </text>
<text text-anchor="start" x="692" y="-8.3" font-family="Times,serif" font-size="14.00" fill="white"> 587 ms 227 µs </text>
<polyline fill="none" stroke="white" points="815,-0.5 815,-158.5 "/>
<text text-anchor="start" x="823" y="-143.3" font-family="Times,serif" font-size="14.00" fill="white">60 %</text>
<text text-anchor="start" x="823" y="-128.3" font-family="Times,serif" font-size="14.00" fill="white">13 %</text>
<text text-anchor="start" x="823" y="-113.3" font-family="Times,serif" font-size="14.00" fill="white">13 %</text>
<text text-anchor="start" x="823" y="-98.3" font-family="Times,serif" font-size="14.00" fill="white">9 %</text>
<text text-anchor="start" x="823" y="-83.3" font-family="Times,serif" font-size="14.00" fill="white">3 %</text>
<text text-anchor="start" x="823" y="-68.3" font-family="Times,serif" font-size="14.00" fill="white">1 %</text>
<text text-anchor="start" x="823" y="-53.3" font-family="Times,serif" font-size="14.00" fill="white">1 %</text>
<text text-anchor="start" x="823" y="-38.3" font-family="Times,serif" font-size="14.00" fill="white">0 %</text>
<text text-anchor="start" x="823" y="-23.3" font-family="Times,serif" font-size="14.00" fill="white">0 %</text>
<text text-anchor="start" x="823" y="-8.3" font-family="Times,serif" font-size="14.00" fill="white"> </text>
</g>
</g>
</svg>
