<?xml version="1.0" encoding="UTF-8" standalone="no"?>
<!DOCTYPE svg PUBLIC "-//W3C//DTD SVG 1.1//EN"
 "http://www.w3.org/Graphics/SVG/1.1/DTD/svg11.dtd">
<!-- Generated by graphviz version 2.43.0 (0)
 -->
<!-- Title: G Pages: 1 -->
<svg width="1443pt" height="1910pt"
 viewBox="0.00 0.00 1443.00 1910.00" xmlns="http://www.w3.org/2000/svg" xmlns:xlink="http://www.w3.org/1999/xlink">
<g id="graph0" class="graph" transform="scale(1 1) rotate(0) translate(4 1906)">
<title>G</title>
<polygon fill="black" stroke="transparent" points="-4,4 -4,-1906 1439,-1906 1439,4 -4,4"/>
<text text-anchor="middle" x="319.5" y="-1886.8" font-family="Times,serif" font-size="14.00" fill="white">For tooltips with advanced information, hover your mouse over vertices or edge labels.</text>
<!-- 128124113860368 -->
<g id="node1" class="node">
<title>128124113860368</title>
<g id="a_node1"><a xlink:title="Output: 175 rows in 1 chunk filtered: 0, 2 µs 946 ns.">
<polygon fill="none" stroke="white" points="473.5,-1847 262.5,-1847 262.5,-1778 473.5,-1778 473.5,-1847"/>
<text text-anchor="middle" x="368" y="-1831.8" font-family="Times,serif" font-size="14.00" fill="white">Alias</text>
<text text-anchor="middle" x="368" y="-1816.8" font-family="Times,serif" font-size="14.00" fill="white">[nation, o_year, sum_profit]</text>
<text text-anchor="middle" x="368" y="-1785.8" font-family="Times,serif" font-size="14.00" fill="white">2 µs 946 ns</text>
</a>
</g>
</g>
<!-- 128124113860048 -->
<g id="node2" class="node">
<title>128124113860048</title>
<g id="a_node2"><a xlink:title="Output: 175 rows in 1 chunk filtered: 0, 115 µs 158 ns.&#10;Operator step runtimes:&#10; MaterializeSortColumns 25 µs 834 ns&#10; Sort 74 µs 407 ns&#10; TemporaryResultWriting 1 µs 854 ns&#10; WriteOutput 10 µs 26 ns.">
<polygon fill="none" stroke="white" points="426.5,-1727 309.5,-1727 309.5,-1673 426.5,-1673 426.5,-1727"/>
<text text-anchor="middle" x="368" y="-1711.8" font-family="Times,serif" font-size="14.00" fill="white">Sort</text>
<text text-anchor="middle" x="368" y="-1680.8" font-family="Times,serif" font-size="14.00" fill="white">115 µs 158 ns</text>
</a>
</g>
</g>
<!-- 128124113860048&#45;&gt;128124113860368 -->
<g id="edge1" class="edge">
<title>128124113860048&#45;&gt;128124113860368</title>
<path fill="none" stroke="white" d="M368,-1727.19C368,-1739.29 368,-1754 368,-1767.72"/>
<polygon fill="white" stroke="white" points="364.5,-1767.95 368,-1777.95 371.5,-1767.96 364.5,-1767.95"/>
<text text-anchor="middle" x="446" y="-1748.8" font-family="Times,serif" font-size="14.00" fill="white">175 row(s)/1 chunk(s)</text>
</g>
<!-- 128124114759184 -->
<g id="node3" class="node">
<title>128124114759184</title>
<g id="a_node3"><a xlink:title="Output: 175 rows in 1 chunk filtered: 0, 841 ms 568 µs.&#10;Operator step runtimes:&#10; GroupByKeyPartitioning 614 ms 40 µs&#10; Aggregating 226 ms 714 µs&#10; GroupByColumnsWriting 15 µs 68 ns&#10; AggregateColumnsWriting 14 µs 145 ns&#10; OutputWriting 5 µs 740 ns.">
<polygon fill="none" stroke="white" stroke-width="7.98" points="518.5,-1622 217.5,-1622 217.5,-1508 518.5,-1508 518.5,-1622"/>
<text text-anchor="middle" x="368" y="-1606.8" font-family="Times,serif" font-size="14.00" fill="white">AggregateHash</text>
<text text-anchor="middle" x="368" y="-1591.8" font-family="Times,serif" font-size="14.00" fill="white">GroupBy {n_name,</text>
<text text-anchor="middle" x="368" y="-1576.8" font-family="Times,serif" font-size="14.00" fill="white">SUBSTR(o_orderdate,1,4)}</text>
<text text-anchor="middle" x="368" y="-1561.8" font-family="Times,serif" font-size="14.00" fill="white">SUM(l_extendedprice * (1 &#45; l_discount) &#45;</text>
<text text-anchor="middle" x="368" y="-1546.8" font-family="Times,serif" font-size="14.00" fill="white">ps_supplycost * l_quantity)</text>
<text text-anchor="middle" x="368" y="-1515.8" font-family="Times,serif" font-size="14.00" fill="white">841 ms 568 µs</text>
</a>
</g>
</g>
<!-- 128124114759184&#45;&gt;128124113860048 -->
<g id="edge2" class="edge">
<title>128124114759184&#45;&gt;128124113860048</title>
<path fill="none" stroke="white" d="M368,-1622.02C368,-1635.77 368,-1650.14 368,-1662.69"/>
<polygon fill="white" stroke="white" points="364.5,-1662.75 368,-1672.75 371.5,-1662.75 364.5,-1662.75"/>
<text text-anchor="middle" x="446" y="-1643.8" font-family="Times,serif" font-size="14.00" fill="white">175 row(s)/1 chunk(s)</text>
</g>
<!-- 128124113859728 -->
<g id="node4" class="node">
<title>128124113859728</title>
<g id="a_node4"><a xlink:title="Output: 16288888 rows in 256 chunks filtered: 0, 171 µs 863 ns.">
<polygon fill="none" stroke="white" points="462.5,-1457 273.5,-1457 273.5,-1388 462.5,-1388 462.5,-1457"/>
<text text-anchor="middle" x="368" y="-1441.8" font-family="Times,serif" font-size="14.00" fill="white">Alias</text>
<text text-anchor="middle" x="368" y="-1426.8" font-family="Times,serif" font-size="14.00" fill="white">[nation, o_year, amount]</text>
<text text-anchor="middle" x="368" y="-1395.8" font-family="Times,serif" font-size="14.00" fill="white">171 µs 863 ns</text>
</a>
</g>
</g>
<!-- 128124113859728&#45;&gt;128124114759184 -->
<g id="edge3" class="edge">
<title>128124113859728&#45;&gt;128124114759184</title>
<path fill="none" stroke="white" d="M368,-1457.15C368,-1469.37 368,-1483.63 368,-1497.69"/>
<polygon fill="white" stroke="white" points="364.5,-1497.85 368,-1507.85 371.5,-1497.85 364.5,-1497.85"/>
<text text-anchor="middle" x="482" y="-1478.8" font-family="Times,serif" font-size="14.00" fill="white">16,288,888 row(s)/256 chunk(s)</text>
</g>
<!-- 128124113859408 -->
<g id="node5" class="node">
<title>128124113859408</title>
<g id="a_node5"><a xlink:title="Output: 16288888 rows in 256 chunks filtered: 0, 624 ms 910 µs.&#10;Operator step runtimes:&#10; ForwardUnmodifiedColumns 230 µs 374 ns&#10; EvaluateNewColumns 624 ms 85 µs&#10; BuildOutput 489 µs 422 ns.">
<polygon fill="none" stroke="white" stroke-width="7.25" points="429,-1337 307,-1337 307,-1283 429,-1283 429,-1337"/>
<text text-anchor="middle" x="368" y="-1321.8" font-family="Times,serif" font-size="14.00" fill="white">Projection</text>
<text text-anchor="middle" x="368" y="-1290.8" font-family="Times,serif" font-size="14.00" fill="white">624 ms 910 µs</text>
</a>
</g>
</g>
<!-- 128124113859408&#45;&gt;128124113859728 -->
<g id="edge4" class="edge">
<title>128124113859408&#45;&gt;128124113859728</title>
<path fill="none" stroke="white" d="M368,-1337.19C368,-1349.29 368,-1364 368,-1377.72"/>
<polygon fill="white" stroke="white" points="364.5,-1377.95 368,-1387.95 371.5,-1377.96 364.5,-1377.95"/>
<text text-anchor="middle" x="482" y="-1358.8" font-family="Times,serif" font-size="14.00" fill="white">16,288,888 row(s)/256 chunk(s)</text>
</g>
<!-- 128124113859088 -->
<g id="node6" class="node">
<title>128124113859088</title>
<g id="a_node6"><a xlink:title="Output: 16288888 rows in 256 chunks filtered: 0, 304 ms 108 µs.&#10;Chunks: 0 skipped with no results, &#10;0 skipped with all matching, 0 scanned using binary search.">
<polygon fill="none" stroke="white" stroke-width="5.47" points="463.5,-1232 272.5,-1232 272.5,-1148 463.5,-1148 463.5,-1232"/>
<text text-anchor="middle" x="368" y="-1216.8" font-family="Times,serif" font-size="14.00" fill="white">TableScan</text>
<text text-anchor="middle" x="368" y="-1201.8" font-family="Times,serif" font-size="14.00" fill="white">Impl: ColumnVsColumn</text>
<text text-anchor="middle" x="368" y="-1186.8" font-family="Times,serif" font-size="14.00" fill="white">ps_suppkey = l_suppkey</text>
<text text-anchor="middle" x="368" y="-1155.8" font-family="Times,serif" font-size="14.00" fill="white">304 ms 108 µs</text>
</a>
</g>
</g>
<!-- 128124113859088&#45;&gt;128124113859408 -->
<g id="edge5" class="edge">
<title>128124113859088&#45;&gt;128124113859408</title>
<path fill="none" stroke="white" d="M368,-1232.27C368,-1245.36 368,-1259.72 368,-1272.45"/>
<polygon fill="white" stroke="white" points="364.5,-1272.69 368,-1282.69 371.5,-1272.69 364.5,-1272.69"/>
<text text-anchor="middle" x="482" y="-1253.8" font-family="Times,serif" font-size="14.00" fill="white">16,288,888 row(s)/256 chunk(s)</text>
</g>
<!-- 128124113858768 -->
<g id="node7" class="node">
<title>128124113858768</title>
<g id="a_node7"><a xlink:title="Output: 65155552 rows in 256 chunks filtered: 0, 645 ms 744 µs.&#10;Operator step runtimes:&#10; LeftSideMaterialize 16 ms 351 µs&#10; RightSideMaterialize 208 ms 768 µs&#10; LeftSideTransform 0 ns&#10; RightSideTransform 0 ns&#10; LeftSidePartition 2 ms 601 µs&#10; RightSidePartition 22 ms 888 µs&#10; LeftSideSortBuckets 771 µs 585 ns&#10; RightSideSortBuckets 25 ms 155 µs&#10; GatherRowIds 5 µs 143 ns&#10; FindJoinPartner 217 ms 423 µs&#10; OutputWriting 150 ms 364 µs.&#10;Radix bits: 8.">
<polygon fill="none" stroke="white" stroke-width="7.33" points="473.5,-1097 262.5,-1097 262.5,-1028 473.5,-1028 473.5,-1097"/>
<text text-anchor="middle" x="368" y="-1081.8" font-family="Times,serif" font-size="14.00" fill="white">JoinSimdSortMerge (Inner)</text>
<text text-anchor="middle" x="368" y="-1066.8" font-family="Times,serif" font-size="14.00" fill="white">ps_partkey = l_partkey</text>
<text text-anchor="middle" x="368" y="-1035.8" font-family="Times,serif" font-size="14.00" fill="white">645 ms 744 µs</text>
</a>
</g>
</g>
<!-- 128124113858768&#45;&gt;128124113859088 -->
<g id="edge6" class="edge">
<title>128124113858768&#45;&gt;128124113859088</title>
<path fill="none" stroke="white" stroke-width="4.23" d="M368,-1097.13C368,-1109.51 368,-1123.84 368,-1137.44"/>
<polygon fill="white" stroke="white" stroke-width="4.23" points="364.3,-1137.65 368,-1147.65 371.7,-1137.65 364.3,-1137.65"/>
<text text-anchor="middle" x="482" y="-1118.8" font-family="Times,serif" font-size="14.00" fill="white">65,155,552 row(s)/256 chunk(s)</text>
</g>
<!-- 128124113857488 -->
<g id="node8" class="node">
<title>128124113857488</title>
<g id="a_node8"><a xlink:title="Output: 2171140 rows in 256 chunks filtered: 0, 599 ms 793 µs.&#10;Operator step runtimes:&#10; LeftSideMaterialize 128 ms 798 µs&#10; RightSideMaterialize 208 ms 558 µs&#10; LeftSideTransform 0 ns&#10; RightSideTransform 0 ns&#10; LeftSidePartition 23 ms 409 µs&#10; RightSidePartition 24 ms 348 µs&#10; LeftSideSortBuckets 24 ms 417 µs&#10; RightSideSortBuckets 8 ms 705 µs&#10; GatherRowIds 4 µs 705 ns&#10; FindJoinPartner 139 ms 521 µs&#10; OutputWriting 39 ms 435 µs.&#10;Radix bits: 8.">
<polygon fill="none" stroke="white" stroke-width="7.15" points="454.5,-857 169.5,-857 169.5,-788 454.5,-788 454.5,-857"/>
<text text-anchor="middle" x="312" y="-841.8" font-family="Times,serif" font-size="14.00" fill="white">JoinSimdSortMerge (Semi Reduction)</text>
<text text-anchor="middle" x="312" y="-826.8" font-family="Times,serif" font-size="14.00" fill="white">ps_partkey = l_partkey</text>
<text text-anchor="middle" x="312" y="-795.8" font-family="Times,serif" font-size="14.00" fill="white">599 ms 793 µs</text>
</a>
</g>
</g>
<!-- 128124113857488&#45;&gt;128124113858768 -->
<g id="edge7" class="edge">
<title>128124113857488&#45;&gt;128124113858768</title>
<path fill="none" stroke="white" d="M319.9,-857.09C329.82,-899.23 346.84,-971.57 357.75,-1017.93"/>
<polygon fill="white" stroke="white" points="357.75,-1017.96 354.35,-1018.76 360.05,-1027.69 357.75,-1017.96"/>
<text text-anchor="middle" x="457.5" y="-938.8" font-family="Times,serif" font-size="14.00" fill="white">2,171,140 row(s)/256 chunk(s)</text>
</g>
<!-- 128124113470736 -->
<g id="node9" class="node">
<title>128124113470736</title>
<g id="a_node9"><a xlink:title="Output: 40000000 rows in 611 chunks filtered: 0, 15 ms 412 µs.">
<polygon fill="none" stroke="white" points="117.5,-737 4.5,-737 4.5,-683 117.5,-683 117.5,-737"/>
<text text-anchor="middle" x="61" y="-721.8" font-family="Times,serif" font-size="14.00" fill="white">Validate</text>
<text text-anchor="middle" x="61" y="-690.8" font-family="Times,serif" font-size="14.00" fill="white">15 ms 412 µs</text>
</a>
</g>
</g>
<!-- 128124113470736&#45;&gt;128124113857488 -->
<g id="edge8" class="edge">
<title>128124113470736&#45;&gt;128124113857488</title>
<path fill="none" stroke="white" stroke-width="3.03" d="M61.2,-737.26C62.66,-748.75 66.36,-761.52 75,-770 88.52,-783.26 121.8,-793.57 159.29,-801.35"/>
<polygon fill="white" stroke="white" stroke-width="3.03" points="159.63,-801.42 158.94,-804.85 169.43,-803.38 159.63,-801.42"/>
<text text-anchor="middle" x="189" y="-758.8" font-family="Times,serif" font-size="14.00" fill="white">40,000,000 row(s)/611 chunk(s)</text>
</g>
<!-- 128124113662864 -->
<g id="node10" class="node">
<title>128124113662864</title>
<g id="a_node10"><a xlink:title="Output: 40000000 rows in 611 chunks filtered: 0, 3 ms 938 µs.">
<polygon fill="none" stroke="white" points="122,-632 0,-632 0,-518 122,-518 122,-632"/>
<text text-anchor="middle" x="61" y="-616.8" font-family="Times,serif" font-size="14.00" fill="white">GetTable</text>
<text text-anchor="middle" x="61" y="-601.8" font-family="Times,serif" font-size="14.00" fill="white">(partsupp)</text>
<text text-anchor="middle" x="61" y="-586.8" font-family="Times,serif" font-size="14.00" fill="white">pruned:</text>
<text text-anchor="middle" x="61" y="-571.8" font-family="Times,serif" font-size="14.00" fill="white">0/611 chunk(s)</text>
<text text-anchor="middle" x="61" y="-556.8" font-family="Times,serif" font-size="14.00" fill="white">2/5 column(s)</text>
<text text-anchor="middle" x="61" y="-525.8" font-family="Times,serif" font-size="14.00" fill="white">3 ms 938 µs</text>
</a>
</g>
</g>
<!-- 128124113662864&#45;&gt;128124113470736 -->
<g id="edge9" class="edge">
<title>128124113662864&#45;&gt;128124113470736</title>
<path fill="none" stroke="white" stroke-width="3.03" d="M61,-632.02C61,-645.77 61,-660.14 61,-672.69"/>
<polygon fill="white" stroke="white" stroke-width="3.03" points="57.5,-672.75 61,-682.75 64.5,-672.75 57.5,-672.75"/>
<text text-anchor="middle" x="175" y="-653.8" font-family="Times,serif" font-size="14.00" fill="white">40,000,000 row(s)/611 chunk(s)</text>
</g>
<!-- 128124113241360 -->
<g id="node11" class="node">
<title>128124113241360</title>
<g id="a_node11"><a xlink:title="Output: 16288888 rows in 256 chunks filtered: 0, 38 ms 40 µs.">
<polygon fill="none" stroke="white" points="490,-737 386,-737 386,-683 490,-683 490,-737"/>
<text text-anchor="middle" x="438" y="-721.8" font-family="Times,serif" font-size="14.00" fill="white">Validate</text>
<text text-anchor="middle" x="438" y="-690.8" font-family="Times,serif" font-size="14.00" fill="white">38 ms 40 µs</text>
</a>
</g>
</g>
<!-- 128124113241360&#45;&gt;128124113857488 -->
<g id="edge10" class="edge">
<title>128124113241360&#45;&gt;128124113857488</title>
<path fill="none" stroke="white" d="M385.86,-715.56C359.51,-720.8 329.66,-731.84 313,-755 308.26,-761.59 306.05,-769.58 305.33,-777.7"/>
<polygon fill="white" stroke="white" points="305.15,-787.96 308.83,-778.02 305.33,-777.96 305.15,-787.96"/>
<text text-anchor="middle" x="427" y="-758.8" font-family="Times,serif" font-size="14.00" fill="white">16,288,888 row(s)/256 chunk(s)</text>
</g>
<!-- 128124113857808 -->
<g id="node18" class="node">
<title>128124113857808</title>
<g id="a_node18"><a xlink:title="Output: 16288888 rows in 64 chunks filtered: 0, 847 ms 567 µs.&#10;Operator step runtimes:&#10; LeftSideMaterialize 42 ms 979 µs&#10; RightSideMaterialize 409 ms 397 µs&#10; LeftSideTransform 0 ns&#10; RightSideTransform 0 ns&#10; LeftSidePartition 106 ms 287 µs&#10; RightSidePartition 21 ms 637 µs&#10; LeftSideSortBuckets 44 ms 827 µs&#10; RightSideSortBuckets 20 ms 348 µs&#10; GatherRowIds 4 µs 5 ns&#10; FindJoinPartner 161 ms 630 µs&#10; OutputWriting 38 ms 803 µs.&#10;Radix bits: 8.">
<polygon fill="none" stroke="white" stroke-width="8" points="840.5,-857 629.5,-857 629.5,-788 840.5,-788 840.5,-857"/>
<text text-anchor="middle" x="735" y="-841.8" font-family="Times,serif" font-size="14.00" fill="white">JoinSimdSortMerge (Inner)</text>
<text text-anchor="middle" x="735" y="-826.8" font-family="Times,serif" font-size="14.00" fill="white">o_orderkey = l_orderkey</text>
<text text-anchor="middle" x="735" y="-795.8" font-family="Times,serif" font-size="14.00" fill="white">847 ms 567 µs</text>
</a>
</g>
</g>
<!-- 128124113241360&#45;&gt;128124113857808 -->
<g id="edge11" class="edge">
<title>128124113241360&#45;&gt;128124113857808</title>
<path fill="none" stroke="white" d="M490.13,-730.12C506.84,-737.07 525.12,-745.57 541,-755 550.25,-760.49 550.44,-765.06 560,-770 578.58,-779.61 599.22,-787.68 619.62,-794.38"/>
<polygon fill="white" stroke="white" points="629.28,-797.46 620.82,-791.09 619.75,-794.43 629.28,-797.46"/>
<text text-anchor="middle" x="674" y="-758.8" font-family="Times,serif" font-size="14.00" fill="white">16,288,888 row(s)/256 chunk(s)</text>
</g>
<!-- 128124113857168 -->
<g id="node12" class="node">
<title>128124113857168</title>
<g id="a_node12"><a xlink:title="Output: 16288888 rows in 256 chunks filtered: 0, 466 ms 168 µs.&#10;Operator step runtimes:&#10; LeftSideMaterialize 107 ms 809 µs&#10; RightSideMaterialize 6 ms 402 µs&#10; LeftSideTransform 0 ns&#10; RightSideTransform 0 ns&#10; LeftSidePartition 160 ms 82 µs&#10; RightSidePartition 4 ms 221 µs&#10; LeftSideSortBuckets 122 ms 849 µs&#10; RightSideSortBuckets 642 µs 385 ns&#10; GatherRowIds 1 µs 336 ns&#10; FindJoinPartner 58 ms 543 µs&#10; OutputWriting 978 µs 431 ns.&#10;Radix bits: 8.">
<polygon fill="none" stroke="white" stroke-width="6.53" points="542.5,-609.5 333.5,-609.5 333.5,-540.5 542.5,-540.5 542.5,-609.5"/>
<text text-anchor="middle" x="438" y="-594.3" font-family="Times,serif" font-size="14.00" fill="white">JoinSimdSortMerge (Semi)</text>
<text text-anchor="middle" x="438" y="-579.3" font-family="Times,serif" font-size="14.00" fill="white">l_partkey = p_partkey</text>
<text text-anchor="middle" x="438" y="-548.3" font-family="Times,serif" font-size="14.00" fill="white">466 ms 168 µs</text>
</a>
</g>
</g>
<!-- 128124113857168&#45;&gt;128124113241360 -->
<g id="edge12" class="edge">
<title>128124113857168&#45;&gt;128124113241360</title>
<path fill="none" stroke="white" d="M438,-609.56C438,-628.74 438,-652.81 438,-672.46"/>
<polygon fill="white" stroke="white" points="434.5,-672.57 438,-682.57 441.5,-672.57 434.5,-672.57"/>
<text text-anchor="middle" x="552" y="-653.8" font-family="Times,serif" font-size="14.00" fill="white">16,288,888 row(s)/256 chunk(s)</text>
</g>
<!-- 128124113670480 -->
<g id="node13" class="node">
<title>128124113670480</title>
<g id="a_node13"><a xlink:title="Output: 300005811 rows in 4578 chunks filtered: 0, 27 ms 207 µs.">
<polygon fill="none" stroke="white" points="367.5,-467 236.5,-467 236.5,-353 367.5,-353 367.5,-467"/>
<text text-anchor="middle" x="302" y="-451.8" font-family="Times,serif" font-size="14.00" fill="white">GetTable</text>
<text text-anchor="middle" x="302" y="-436.8" font-family="Times,serif" font-size="14.00" fill="white">(lineitem)</text>
<text text-anchor="middle" x="302" y="-421.8" font-family="Times,serif" font-size="14.00" fill="white">pruned:</text>
<text text-anchor="middle" x="302" y="-406.8" font-family="Times,serif" font-size="14.00" fill="white">0/4578 chunk(s)</text>
<text text-anchor="middle" x="302" y="-391.8" font-family="Times,serif" font-size="14.00" fill="white">10/16 column(s)</text>
<text text-anchor="middle" x="302" y="-360.8" font-family="Times,serif" font-size="14.00" fill="white">27 ms 207 µs</text>
</a>
</g>
</g>
<!-- 128124113670480&#45;&gt;128124113857168 -->
<g id="edge13" class="edge">
<title>128124113670480&#45;&gt;128124113857168</title>
<path fill="none" stroke="white" stroke-width="8" d="M293.88,-467.12C294.55,-478.62 297.12,-490.19 303,-500 311.37,-513.95 323.39,-525.45 336.85,-534.88"/>
<polygon fill="white" stroke="white" stroke-width="8" points="337.04,-535 333.2,-540.85 345.4,-540.48 337.04,-535"/>
<text text-anchor="middle" x="428" y="-488.8" font-family="Times,serif" font-size="14.00" fill="white">300,005,811 row(s)/4,578 chunk(s)</text>
</g>
<!-- 128124113471760 -->
<g id="node14" class="node">
<title>128124113471760</title>
<g id="a_node14"><a xlink:title="Output: 542785 rows in 153 chunks filtered: 0, 763 µs 10 ns.">
<polygon fill="none" stroke="white" points="629,-437 521,-437 521,-383 629,-383 629,-437"/>
<text text-anchor="middle" x="575" y="-421.8" font-family="Times,serif" font-size="14.00" fill="white">Validate</text>
<text text-anchor="middle" x="575" y="-390.8" font-family="Times,serif" font-size="14.00" fill="white">763 µs 10 ns</text>
</a>
</g>
</g>
<!-- 128124113471760&#45;&gt;128124113857168 -->
<g id="edge14" class="edge">
<title>128124113471760&#45;&gt;128124113857168</title>
<path fill="none" stroke="white" d="M573.62,-437.29C571.48,-456.24 566.14,-481.61 553,-500 543.45,-513.35 530.67,-524.89 517.1,-534.62"/>
<polygon fill="white" stroke="white" points="508.57,-540.45 518.8,-537.7 516.83,-534.81 508.57,-540.45"/>
<text text-anchor="middle" x="663.5" y="-488.8" font-family="Times,serif" font-size="14.00" fill="white">542,785 row(s)/153 chunk(s)</text>
</g>
<!-- 128124113856528 -->
<g id="node15" class="node">
<title>128124113856528</title>
<g id="a_node15"><a xlink:title="Output: 542785 rows in 153 chunks filtered: 0, 19 ms 604 µs.&#10;Chunks: 0 skipped with no results, &#10;0 skipped with all matching, 0 scanned using binary search.">
<polygon fill="none" stroke="white" points="675.5,-302 474.5,-302 474.5,-218 675.5,-218 675.5,-302"/>
<text text-anchor="middle" x="575" y="-286.8" font-family="Times,serif" font-size="14.00" fill="white">TableScan</text>
<text text-anchor="middle" x="575" y="-271.8" font-family="Times,serif" font-size="14.00" fill="white">Impl: ColumnLike</text>
<text text-anchor="middle" x="575" y="-256.8" font-family="Times,serif" font-size="14.00" fill="white">p_name LIKE &#39;%salmon%&#39;</text>
<text text-anchor="middle" x="575" y="-225.8" font-family="Times,serif" font-size="14.00" fill="white">19 ms 604 µs</text>
</a>
</g>
</g>
<!-- 128124113856528&#45;&gt;128124113471760 -->
<g id="edge15" class="edge">
<title>128124113856528&#45;&gt;128124113471760</title>
<path fill="none" stroke="white" d="M575,-302.23C575,-324.32 575,-351.31 575,-372.62"/>
<polygon fill="white" stroke="white" points="571.5,-372.88 575,-382.88 578.5,-372.88 571.5,-372.88"/>
<text text-anchor="middle" x="677.5" y="-323.8" font-family="Times,serif" font-size="14.00" fill="white">542,785 row(s)/153 chunk(s)</text>
</g>
<!-- 128124113663312 -->
<g id="node16" class="node">
<title>128124113663312</title>
<g id="a_node16"><a xlink:title="Output: 10000000 rows in 153 chunks filtered: 0, 471 µs 78 ns.">
<polygon fill="none" stroke="white" points="636,-140.5 514,-140.5 514,-26.5 636,-26.5 636,-140.5"/>
<text text-anchor="middle" x="575" y="-125.3" font-family="Times,serif" font-size="14.00" fill="white">GetTable</text>
<text text-anchor="middle" x="575" y="-110.3" font-family="Times,serif" font-size="14.00" fill="white">(part)</text>
<text text-anchor="middle" x="575" y="-95.3" font-family="Times,serif" font-size="14.00" fill="white">pruned:</text>
<text text-anchor="middle" x="575" y="-80.3" font-family="Times,serif" font-size="14.00" fill="white">0/153 chunk(s)</text>
<text text-anchor="middle" x="575" y="-65.3" font-family="Times,serif" font-size="14.00" fill="white">7/9 column(s)</text>
<text text-anchor="middle" x="575" y="-34.3" font-family="Times,serif" font-size="14.00" fill="white">471 µs 78 ns</text>
</a>
</g>
</g>
<!-- 128124113663312&#45;&gt;128124113856528 -->
<g id="edge16" class="edge">
<title>128124113663312&#45;&gt;128124113856528</title>
<path fill="none" stroke="white" d="M575,-140.67C575,-162.25 575,-186.74 575,-207.83"/>
<polygon fill="white" stroke="white" points="571.5,-207.87 575,-217.87 578.5,-207.87 571.5,-207.87"/>
<text text-anchor="middle" x="689" y="-188.8" font-family="Times,serif" font-size="14.00" fill="white">10,000,000 row(s)/153 chunk(s)</text>
</g>
<!-- 128124113858448 -->
<g id="node17" class="node">
<title>128124113858448</title>
<g id="a_node17"><a xlink:title="Output: 16288888 rows in 256 chunks filtered: 0, 283 ms 501 µs.&#10;Operator step runtimes:&#10; LeftSideMaterialize 106 ms 360 µs&#10; RightSideMaterialize 1 ms 264 µs&#10; LeftSideTransform 0 ns&#10; RightSideTransform 0 ns&#10; LeftSidePartition 22 ms 698 µs&#10; RightSidePartition 3 ms 984 µs&#10; LeftSideSortBuckets 25 ms 871 µs&#10; RightSideSortBuckets 661 µs 364 ns&#10; GatherRowIds 1 µs 391 ns&#10; FindJoinPartner 62 ms 867 µs&#10; OutputWriting 58 ms 953 µs.&#10;Radix bits: 8.">
<polygon fill="none" stroke="white" stroke-width="5.3" points="840.5,-977 629.5,-977 629.5,-908 840.5,-908 840.5,-977"/>
<text text-anchor="middle" x="735" y="-961.8" font-family="Times,serif" font-size="14.00" fill="white">JoinSimdSortMerge (Inner)</text>
<text text-anchor="middle" x="735" y="-946.8" font-family="Times,serif" font-size="14.00" fill="white">l_suppkey = s_suppkey</text>
<text text-anchor="middle" x="735" y="-915.8" font-family="Times,serif" font-size="14.00" fill="white">283 ms 501 µs</text>
</a>
</g>
</g>
<!-- 128124113858448&#45;&gt;128124113858768 -->
<g id="edge17" class="edge">
<title>128124113858448&#45;&gt;128124113858768</title>
<path fill="none" stroke="white" d="M630.32,-977.16C584.04,-992.04 529.5,-1009.57 482.17,-1024.79"/>
<polygon fill="white" stroke="white" points="472.5,-1027.9 483.09,-1028.17 482.02,-1024.84 472.5,-1027.9"/>
<text text-anchor="middle" x="688" y="-998.8" font-family="Times,serif" font-size="14.00" fill="white">16,288,888 row(s)/256 chunk(s)</text>
</g>
<!-- 128124113857808&#45;&gt;128124113858448 -->
<g id="edge18" class="edge">
<title>128124113857808&#45;&gt;128124113858448</title>
<path fill="none" stroke="white" d="M735,-857.31C735,-869.78 735,-884.1 735,-897.34"/>
<polygon fill="white" stroke="white" points="735,-897.68 731.5,-897.68 735,-907.68 735,-897.68"/>
<text text-anchor="middle" x="844.5" y="-878.8" font-family="Times,serif" font-size="14.00" fill="white">16,288,888 row(s)/64 chunk(s)</text>
</g>
<!-- 128124113242128 -->
<g id="node19" class="node">
<title>128124113242128</title>
<g id="a_node19"><a xlink:title="Output: 75000000 rows in 1145 chunks filtered: 0, 5 ms 650 µs.">
<polygon fill="none" stroke="white" points="866,-737 762,-737 762,-683 866,-683 866,-737"/>
<text text-anchor="middle" x="814" y="-721.8" font-family="Times,serif" font-size="14.00" fill="white">Validate</text>
<text text-anchor="middle" x="814" y="-690.8" font-family="Times,serif" font-size="14.00" fill="white">5 ms 650 µs</text>
</a>
</g>
</g>
<!-- 128124113242128&#45;&gt;128124113857808 -->
<g id="edge19" class="edge">
<title>128124113242128&#45;&gt;128124113857808</title>
<path fill="none" stroke="white" stroke-width="4.58" d="M807.19,-737.27C803.68,-747.98 798.69,-760.14 792,-770 789.6,-773.54 786.9,-777 784.03,-780.34"/>
<polygon fill="white" stroke="white" stroke-width="4.58" points="783.82,-780.57 780.87,-777.85 777.04,-787.92 783.82,-780.57"/>
<text text-anchor="middle" x="919.5" y="-758.8" font-family="Times,serif" font-size="14.00" fill="white">75,000,000 row(s)/1,145 chunk(s)</text>
</g>
<!-- 128124113662416 -->
<g id="node20" class="node">
<title>128124113662416</title>
<g id="a_node20"><a xlink:title="Output: 75000000 rows in 1145 chunks filtered: 0, 19 ms 730 µs.">
<polygon fill="none" stroke="white" points="879.5,-632 748.5,-632 748.5,-518 879.5,-518 879.5,-632"/>
<text text-anchor="middle" x="814" y="-616.8" font-family="Times,serif" font-size="14.00" fill="white">GetTable</text>
<text text-anchor="middle" x="814" y="-601.8" font-family="Times,serif" font-size="14.00" fill="white">(orders)</text>
<text text-anchor="middle" x="814" y="-586.8" font-family="Times,serif" font-size="14.00" fill="white">pruned:</text>
<text text-anchor="middle" x="814" y="-571.8" font-family="Times,serif" font-size="14.00" fill="white">0/1145 chunk(s)</text>
<text text-anchor="middle" x="814" y="-556.8" font-family="Times,serif" font-size="14.00" fill="white">7/9 column(s)</text>
<text text-anchor="middle" x="814" y="-525.8" font-family="Times,serif" font-size="14.00" fill="white">19 ms 730 µs</text>
</a>
</g>
</g>
<!-- 128124113662416&#45;&gt;128124113242128 -->
<g id="edge20" class="edge">
<title>128124113662416&#45;&gt;128124113242128</title>
<path fill="none" stroke="white" stroke-width="4.58" d="M814,-632.02C814,-645.77 814,-660.14 814,-672.69"/>
<polygon fill="white" stroke="white" stroke-width="4.58" points="809.99,-672.75 814,-682.75 818.01,-672.75 809.99,-672.75"/>
<text text-anchor="middle" x="934.5" y="-653.8" font-family="Times,serif" font-size="14.00" fill="white">75,000,000 row(s)/1,145 chunk(s)</text>
</g>
<!-- 128124113858128 -->
<g id="node21" class="node">
<title>128124113858128</title>
<g id="a_node21"><a xlink:title="Output: 500000 rows in 25 chunks filtered: 0, 31 ms 979 µs.&#10;Operator step runtimes:&#10; LeftSideMaterialize 4 ms 60 µs&#10; RightSideMaterialize 68 µs 124 ns&#10; LeftSideTransform 0 ns&#10; RightSideTransform 0 ns&#10; LeftSidePartition 13 ms 103 µs&#10; RightSidePartition 110 µs 354 ns&#10; LeftSideSortBuckets 241 µs 353 ns&#10; RightSideSortBuckets 653 µs 886 ns&#10; GatherRowIds 1 µs 926 ns&#10; FindJoinPartner 6 ms 886 µs&#10; OutputWriting 6 ms 729 µs.&#10;Radix bits: 8.">
<polygon fill="none" stroke="white" points="1183.5,-857 972.5,-857 972.5,-788 1183.5,-788 1183.5,-857"/>
<text text-anchor="middle" x="1078" y="-841.8" font-family="Times,serif" font-size="14.00" fill="white">JoinSimdSortMerge (Inner)</text>
<text text-anchor="middle" x="1078" y="-826.8" font-family="Times,serif" font-size="14.00" fill="white">s_nationkey = n_nationkey</text>
<text text-anchor="middle" x="1078" y="-795.8" font-family="Times,serif" font-size="14.00" fill="white">31 ms 979 µs</text>
</a>
</g>
</g>
<!-- 128124113858128&#45;&gt;128124113858448 -->
<g id="edge21" class="edge">
<title>128124113858128&#45;&gt;128124113858448</title>
<path fill="none" stroke="white" d="M1024.89,-857.12C1004.57,-868.85 980.79,-881.25 958,-890 923.92,-903.08 885.59,-913.4 850.44,-921.27"/>
<polygon fill="white" stroke="white" points="840.61,-923.42 851.13,-924.7 850.38,-921.28 840.61,-923.42"/>
<text text-anchor="middle" x="1086" y="-878.8" font-family="Times,serif" font-size="14.00" fill="white">500,000 row(s)/25 chunk(s)</text>
</g>
<!-- 128124113241616 -->
<g id="node22" class="node">
<title>128124113241616</title>
<g id="a_node22"><a xlink:title="Output: 500000 rows in 8 chunks filtered: 0, 64 µs 795 ns.">
<polygon fill="none" stroke="white" points="1132,-737 1024,-737 1024,-683 1132,-683 1132,-737"/>
<text text-anchor="middle" x="1078" y="-721.8" font-family="Times,serif" font-size="14.00" fill="white">Validate</text>
<text text-anchor="middle" x="1078" y="-690.8" font-family="Times,serif" font-size="14.00" fill="white">64 µs 795 ns</text>
</a>
</g>
</g>
<!-- 128124113241616&#45;&gt;128124113858128 -->
<g id="edge22" class="edge">
<title>128124113241616&#45;&gt;128124113858128</title>
<path fill="none" stroke="white" d="M1078,-737.19C1078,-749.29 1078,-764 1078,-777.72"/>
<polygon fill="white" stroke="white" points="1078,-777.95 1074.5,-777.95 1078,-787.95 1078,-777.95"/>
<text text-anchor="middle" x="1171.5" y="-758.8" font-family="Times,serif" font-size="14.00" fill="white">500,000 row(s)/8 chunk(s)</text>
</g>
<!-- 128124113669136 -->
<g id="node23" class="node">
<title>128124113669136</title>
<g id="a_node23"><a xlink:title="Output: 500000 rows in 8 chunks filtered: 0, 11 µs 723 ns.">
<polygon fill="none" stroke="white" points="1134.5,-632 1021.5,-632 1021.5,-518 1134.5,-518 1134.5,-632"/>
<text text-anchor="middle" x="1078" y="-616.8" font-family="Times,serif" font-size="14.00" fill="white">GetTable</text>
<text text-anchor="middle" x="1078" y="-601.8" font-family="Times,serif" font-size="14.00" fill="white">(supplier)</text>
<text text-anchor="middle" x="1078" y="-586.8" font-family="Times,serif" font-size="14.00" fill="white">pruned:</text>
<text text-anchor="middle" x="1078" y="-571.8" font-family="Times,serif" font-size="14.00" fill="white">0/8 chunk(s)</text>
<text text-anchor="middle" x="1078" y="-556.8" font-family="Times,serif" font-size="14.00" fill="white">5/7 column(s)</text>
<text text-anchor="middle" x="1078" y="-525.8" font-family="Times,serif" font-size="14.00" fill="white">11 µs 723 ns</text>
</a>
</g>
</g>
<!-- 128124113669136&#45;&gt;128124113241616 -->
<g id="edge23" class="edge">
<title>128124113669136&#45;&gt;128124113241616</title>
<path fill="none" stroke="white" d="M1078,-632.02C1078,-645.77 1078,-660.14 1078,-672.69"/>
<polygon fill="white" stroke="white" points="1074.5,-672.75 1078,-682.75 1081.5,-672.75 1074.5,-672.75"/>
<text text-anchor="middle" x="1171.5" y="-653.8" font-family="Times,serif" font-size="14.00" fill="white">500,000 row(s)/8 chunk(s)</text>
</g>
<!-- 128124113243664 -->
<g id="node24" class="node">
<title>128124113243664</title>
<g id="a_node24"><a xlink:title="Output: 25 rows in 1 chunk filtered: 0, 4 µs 442 ns.">
<polygon fill="none" stroke="white" points="1337.5,-737 1238.5,-737 1238.5,-683 1337.5,-683 1337.5,-737"/>
<text text-anchor="middle" x="1288" y="-721.8" font-family="Times,serif" font-size="14.00" fill="white">Validate</text>
<text text-anchor="middle" x="1288" y="-690.8" font-family="Times,serif" font-size="14.00" fill="white">4 µs 442 ns</text>
</a>
</g>
</g>
<!-- 128124113243664&#45;&gt;128124113858128 -->
<g id="edge24" class="edge">
<title>128124113243664&#45;&gt;128124113858128</title>
<path fill="none" stroke="white" d="M1283.77,-737.26C1280.66,-748.75 1275.28,-761.52 1266,-770 1245.87,-788.41 1219.78,-800.33 1193.48,-808.02"/>
<polygon fill="white" stroke="white" points="1183.79,-810.67 1194.35,-811.41 1193.43,-808.03 1183.79,-810.67"/>
<text text-anchor="middle" x="1350.5" y="-758.8" font-family="Times,serif" font-size="14.00" fill="white">25 row(s)/1 chunk(s)</text>
</g>
<!-- 128124113671376 -->
<g id="node25" class="node">
<title>128124113671376</title>
<g id="a_node25"><a xlink:title="Output: 25 rows in 1 chunk filtered: 0, 8 µs 73 ns.">
<polygon fill="none" stroke="white" points="1344.5,-632 1231.5,-632 1231.5,-518 1344.5,-518 1344.5,-632"/>
<text text-anchor="middle" x="1288" y="-616.8" font-family="Times,serif" font-size="14.00" fill="white">GetTable</text>
<text text-anchor="middle" x="1288" y="-601.8" font-family="Times,serif" font-size="14.00" fill="white">(nation)</text>
<text text-anchor="middle" x="1288" y="-586.8" font-family="Times,serif" font-size="14.00" fill="white">pruned:</text>
<text text-anchor="middle" x="1288" y="-571.8" font-family="Times,serif" font-size="14.00" fill="white">0/1 chunk(s)</text>
<text text-anchor="middle" x="1288" y="-556.8" font-family="Times,serif" font-size="14.00" fill="white">2/4 column(s)</text>
<text text-anchor="middle" x="1288" y="-525.8" font-family="Times,serif" font-size="14.00" fill="white">8 µs 73 ns</text>
</a>
</g>
</g>
<!-- 128124113671376&#45;&gt;128124113243664 -->
<g id="edge25" class="edge">
<title>128124113671376&#45;&gt;128124113243664</title>
<path fill="none" stroke="white" d="M1288,-632.02C1288,-645.77 1288,-660.14 1288,-672.69"/>
<polygon fill="white" stroke="white" points="1284.5,-672.75 1288,-682.75 1291.5,-672.75 1284.5,-672.75"/>
<text text-anchor="middle" x="1361.5" y="-653.8" font-family="Times,serif" font-size="14.00" fill="white">25 row(s)/1 chunk(s)</text>
</g>
<!-- 0 -->
<g id="node26" class="node">
<title>0</title>
<polygon fill="none" stroke="white" points="654,-0.5 654,-166.5 1000,-166.5 1000,-0.5 654,-0.5"/>
<text text-anchor="middle" x="827" y="-151.3" font-family="Times,serif" font-size="14.00" fill="white">Total by operator</text>
<polyline fill="none" stroke="white" points="654,-143.5 1000,-143.5 "/>
<text text-anchor="end" x="808" y="-128.3" font-family="Times,serif" font-size="14.00" fill="white">JoinSimdSortMerge </text>
<text text-anchor="end" x="808" y="-113.3" font-family="Times,serif" font-size="14.00" fill="white"> AggregateHash </text>
<text text-anchor="end" x="808" y="-98.3" font-family="Times,serif" font-size="14.00" fill="white"> Projection </text>
<text text-anchor="end" x="808" y="-83.3" font-family="Times,serif" font-size="14.00" fill="white"> TableScan </text>
<text text-anchor="end" x="808" y="-68.3" font-family="Times,serif" font-size="14.00" fill="white"> Validate </text>
<text text-anchor="end" x="808" y="-53.3" font-family="Times,serif" font-size="14.00" fill="white"> GetTable </text>
<text text-anchor="end" x="808" y="-38.3" font-family="Times,serif" font-size="14.00" fill="white"> Alias </text>
<text text-anchor="end" x="808" y="-23.3" font-family="Times,serif" font-size="14.00" fill="white"> Sort </text>
<text text-anchor="end" x="808" y="-8.3" font-family="Times,serif" font-size="14.00" fill="white">total</text>
<polyline fill="none" stroke="white" points="816,-0.5 816,-143.5 "/>
<text text-anchor="start" x="824" y="-128.3" font-family="Times,serif" font-size="14.00" fill="white">2 s 875 ms </text>
<text text-anchor="start" x="824" y="-113.3" font-family="Times,serif" font-size="14.00" fill="white"> 841 ms 568 µs </text>
<text text-anchor="start" x="824" y="-98.3" font-family="Times,serif" font-size="14.00" fill="white"> 624 ms 910 µs </text>
<text text-anchor="start" x="824" y="-83.3" font-family="Times,serif" font-size="14.00" fill="white"> 323 ms 711 µs </text>
<text text-anchor="start" x="824" y="-68.3" font-family="Times,serif" font-size="14.00" fill="white"> 59 ms 935 µs </text>
<text text-anchor="start" x="824" y="-53.3" font-family="Times,serif" font-size="14.00" fill="white"> 51 ms 365 µs </text>
<text text-anchor="start" x="824" y="-38.3" font-family="Times,serif" font-size="14.00" fill="white"> 174 µs 809 ns </text>
<text text-anchor="start" x="824" y="-23.3" font-family="Times,serif" font-size="14.00" fill="white"> 115 µs 158 ns </text>
<text text-anchor="start" x="824" y="-8.3" font-family="Times,serif" font-size="14.00" fill="white"> 4 s 777 ms </text>
<polyline fill="none" stroke="white" points="947,-0.5 947,-143.5 "/>
<text text-anchor="start" x="955" y="-128.3" font-family="Times,serif" font-size="14.00" fill="white">60 %</text>
<text text-anchor="start" x="955" y="-113.3" font-family="Times,serif" font-size="14.00" fill="white">18 %</text>
<text text-anchor="start" x="955" y="-98.3" font-family="Times,serif" font-size="14.00" fill="white">13 %</text>
<text text-anchor="start" x="955" y="-83.3" font-family="Times,serif" font-size="14.00" fill="white">7 %</text>
<text text-anchor="start" x="955" y="-68.3" font-family="Times,serif" font-size="14.00" fill="white">1 %</text>
<text text-anchor="start" x="955" y="-53.3" font-family="Times,serif" font-size="14.00" fill="white">1 %</text>
<text text-anchor="start" x="955" y="-38.3" font-family="Times,serif" font-size="14.00" fill="white">0 %</text>
<text text-anchor="start" x="955" y="-23.3" font-family="Times,serif" font-size="14.00" fill="white">0 %</text>
<text text-anchor="start" x="955" y="-8.3" font-family="Times,serif" font-size="14.00" fill="white"> </text>
</g>
</g>
</svg>
