<?xml version="1.0" encoding="UTF-8" standalone="no"?>
<!DOCTYPE svg PUBLIC "-//W3C//DTD SVG 1.1//EN"
 "http://www.w3.org/Graphics/SVG/1.1/DTD/svg11.dtd">
<!-- Generated by graphviz version 2.43.0 (0)
 -->
<!-- Title: G Pages: 1 -->
<svg width="973pt" height="2594pt"
 viewBox="0.00 0.00 972.50 2594.00" xmlns="http://www.w3.org/2000/svg" xmlns:xlink="http://www.w3.org/1999/xlink">
<g id="graph0" class="graph" transform="scale(1 1) rotate(0) translate(4 2590)">
<title>G</title>
<polygon fill="black" stroke="transparent" points="-4,4 -4,-2590 968.5,-2590 968.5,4 -4,4"/>
<text text-anchor="middle" x="319.5" y="-2570.8" font-family="Times,serif" font-size="14.00" fill="white">For tooltips with advanced information, hover your mouse over vertices or edge labels.</text>
<!-- 127962117019536 -->
<g id="node1" class="node">
<title>127962117019536</title>
<g id="a_node1"><a xlink:title="Output: 9077 rows in 1 chunk filtered: 0, 8 µs 537 ns.&#10;Operator step runtimes:&#10; ForwardUnmodifiedColumns 2 µs 792 ns&#10; EvaluateNewColumns 684 ns&#10; BuildOutput 3 µs 616 ns.">
<polygon fill="none" stroke="white" points="411,-2531 312,-2531 312,-2477 411,-2477 411,-2531"/>
<text text-anchor="middle" x="361.5" y="-2515.8" font-family="Times,serif" font-size="14.00" fill="white">Projection</text>
<text text-anchor="middle" x="361.5" y="-2484.8" font-family="Times,serif" font-size="14.00" fill="white">8 µs 537 ns</text>
</a>
</g>
</g>
<!-- 127962117019216 -->
<g id="node2" class="node">
<title>127962117019216</title>
<g id="a_node2"><a xlink:title="Output: 9077 rows in 1 chunk filtered: 0, 11 ms 840 µs.&#10;Operator step runtimes:&#10; MaterializeSortColumns 4 ms 905 µs&#10; Sort 6 ms 566 µs&#10; TemporaryResultWriting 21 µs 758 ns&#10; WriteOutput 179 µs 2 ns.">
<polygon fill="none" stroke="white" points="418,-2426 305,-2426 305,-2372 418,-2372 418,-2426"/>
<text text-anchor="middle" x="361.5" y="-2410.8" font-family="Times,serif" font-size="14.00" fill="white">Sort</text>
<text text-anchor="middle" x="361.5" y="-2379.8" font-family="Times,serif" font-size="14.00" fill="white">11 ms 840 µs</text>
</a>
</g>
</g>
<!-- 127962117019216&#45;&gt;127962117019536 -->
<g id="edge1" class="edge">
<title>127962117019216&#45;&gt;127962117019536</title>
<path fill="none" stroke="white" d="M361.5,-2426.26C361.5,-2438.49 361.5,-2453.24 361.5,-2466.52"/>
<polygon fill="white" stroke="white" points="358,-2466.79 361.5,-2476.79 365,-2466.79 358,-2466.79"/>
<text text-anchor="middle" x="446" y="-2447.8" font-family="Times,serif" font-size="14.00" fill="white">9,077 row(s)/1 chunk(s)</text>
</g>
<!-- 127962117018896 -->
<g id="node3" class="node">
<title>127962117018896</title>
<g id="a_node3"><a xlink:title="Output: 9077 rows in 1 chunk filtered: 0, 12 ms 213 µs.&#10;Operator step runtimes:&#10; LeftSideMaterialize 9 ms 122 µs&#10; RightSideMaterialize 24 µs 57 ns&#10; LeftSideTransform 0 ns&#10; RightSideTransform 0 ns&#10; LeftSidePartition 496 µs 748 ns&#10; RightSidePartition 14 µs 325 ns&#10; LeftSideSortBuckets 784 µs 53 ns&#10; RightSideSortBuckets 562 µs 73 ns&#10; GatherRowIds 905 ns&#10; FindJoinPartner 79 µs 206 ns&#10; OutputWriting 916 µs 895 ns.&#10;Radix bits: 8.">
<polygon fill="none" stroke="white" points="466,-2321 257,-2321 257,-2252 466,-2252 466,-2321"/>
<text text-anchor="middle" x="361.5" y="-2305.8" font-family="Times,serif" font-size="14.00" fill="white">JoinSimdSortMerge (Semi)</text>
<text text-anchor="middle" x="361.5" y="-2290.8" font-family="Times,serif" font-size="14.00" fill="white">s_nationkey = n_nationkey</text>
<text text-anchor="middle" x="361.5" y="-2259.8" font-family="Times,serif" font-size="14.00" fill="white">12 ms 213 µs</text>
</a>
</g>
</g>
<!-- 127962117018896&#45;&gt;127962117019216 -->
<g id="edge2" class="edge">
<title>127962117018896&#45;&gt;127962117019216</title>
<path fill="none" stroke="white" d="M361.5,-2321.25C361.5,-2334.07 361.5,-2348.73 361.5,-2361.77"/>
<polygon fill="white" stroke="white" points="358,-2361.81 361.5,-2371.81 365,-2361.81 358,-2361.81"/>
<text text-anchor="middle" x="446" y="-2342.8" font-family="Times,serif" font-size="14.00" fill="white">9,077 row(s)/1 chunk(s)</text>
</g>
<!-- 128123501746192 -->
<g id="node4" class="node">
<title>128123501746192</title>
<g id="a_node4"><a xlink:title="Output: 224360 rows in 256 chunks filtered: 0, 1 ms 385 µs.">
<polygon fill="none" stroke="white" points="517.5,-2129 413.5,-2129 413.5,-2075 517.5,-2075 517.5,-2129"/>
<text text-anchor="middle" x="465.5" y="-2113.8" font-family="Times,serif" font-size="14.00" fill="white">Validate</text>
<text text-anchor="middle" x="465.5" y="-2082.8" font-family="Times,serif" font-size="14.00" fill="white">1 ms 385 µs</text>
</a>
</g>
</g>
<!-- 128123501746192&#45;&gt;127962117018896 -->
<g id="edge3" class="edge">
<title>128123501746192&#45;&gt;127962117018896</title>
<path fill="none" stroke="white" d="M463.3,-2129.19C459.87,-2157.22 451.19,-2201.97 429.5,-2234 426.96,-2237.76 424.05,-2241.35 420.89,-2244.77"/>
<polygon fill="white" stroke="white" points="420.75,-2244.91 418.28,-2242.43 413.66,-2251.97 420.75,-2244.91"/>
<text text-anchor="middle" x="564" y="-2170.3" font-family="Times,serif" font-size="14.00" fill="white">224,360 row(s)/256 chunk(s)</text>
</g>
<!-- 127962117017936 -->
<g id="node5" class="node">
<title>127962117017936</title>
<g id="a_node5"><a xlink:title="Output: 224360 rows in 256 chunks filtered: 0, 23 ms 489 µs.&#10;Operator step runtimes:&#10; LeftSideMaterialize 787 µs 608 ns&#10; RightSideMaterialize 14 ms 94 µs&#10; LeftSideTransform 0 ns&#10; RightSideTransform 0 ns&#10; LeftSidePartition 2 ms 579 µs&#10; RightSidePartition 2 ms 303 µs&#10; LeftSideSortBuckets 629 µs 668 ns&#10; RightSideSortBuckets 594 µs 207 ns&#10; GatherRowIds 2 µs 788 ns&#10; FindJoinPartner 1 ms 298 µs&#10; OutputWriting 720 µs 390 ns.&#10;Radix bits: 8.">
<polygon fill="none" stroke="white" points="487,-1929.5 278,-1929.5 278,-1860.5 487,-1860.5 487,-1929.5"/>
<text text-anchor="middle" x="382.5" y="-1914.3" font-family="Times,serif" font-size="14.00" fill="white">JoinSimdSortMerge (Semi)</text>
<text text-anchor="middle" x="382.5" y="-1899.3" font-family="Times,serif" font-size="14.00" fill="white">s_suppkey = ps_suppkey</text>
<text text-anchor="middle" x="382.5" y="-1868.3" font-family="Times,serif" font-size="14.00" fill="white">23 ms 489 µs</text>
</a>
</g>
</g>
<!-- 127962117017936&#45;&gt;128123501746192 -->
<g id="edge4" class="edge">
<title>127962117017936&#45;&gt;128123501746192</title>
<path fill="none" stroke="white" d="M431.83,-1929.67C439.58,-1937.12 446.63,-1945.63 451.5,-1955 469.21,-1989.05 470.92,-2033.62 469.33,-2064.51"/>
<polygon fill="white" stroke="white" points="465.81,-2064.62 468.65,-2074.83 472.8,-2065.08 465.81,-2064.62"/>
<text text-anchor="middle" x="560" y="-1958.8" font-family="Times,serif" font-size="14.00" fill="white">224,360 row(s)/256 chunk(s)</text>
</g>
<!-- 127962117018576 -->
<g id="node24" class="node">
<title>127962117018576</title>
<g id="a_node24"><a xlink:title="Output: 1 row in 1 chunk filtered: 0, 6 ms 688 µs.&#10;Operator step runtimes:&#10; LeftSideMaterialize 38 µs 10 ns&#10; RightSideMaterialize 5 ms 97 µs&#10; LeftSideTransform 0 ns&#10; RightSideTransform 0 ns&#10; LeftSidePartition 17 µs 418 ns&#10; RightSidePartition 237 µs 40 ns&#10; LeftSideSortBuckets 488 µs 8 ns&#10; RightSideSortBuckets 588 µs 433 ns&#10; GatherRowIds 1 µs 342 ns&#10; FindJoinPartner 7 µs 998 ns&#10; OutputWriting 16 µs 159 ns.&#10;Radix bits: 8.">
<polygon fill="none" stroke="white" points="388,-2057 103,-2057 103,-1988 388,-1988 388,-2057"/>
<text text-anchor="middle" x="245.5" y="-2041.8" font-family="Times,serif" font-size="14.00" fill="white">JoinSimdSortMerge (Semi Reduction)</text>
<text text-anchor="middle" x="245.5" y="-2026.8" font-family="Times,serif" font-size="14.00" fill="white">n_nationkey = s_nationkey</text>
<text text-anchor="middle" x="245.5" y="-1995.8" font-family="Times,serif" font-size="14.00" fill="white">6 ms 688 µs</text>
</a>
</g>
</g>
<!-- 127962117017936&#45;&gt;127962117018576 -->
<g id="edge5" class="edge">
<title>127962117017936&#45;&gt;127962117018576</title>
<path fill="none" stroke="white" d="M277.82,-1925.81C265.5,-1933.44 254.5,-1943.01 246.5,-1955 242.04,-1961.69 239.93,-1969.65 239.23,-1977.71"/>
<polygon fill="white" stroke="white" points="239.01,-1987.87 242.72,-1977.95 239.22,-1977.88 239.01,-1987.87"/>
<text text-anchor="middle" x="349" y="-1958.8" font-family="Times,serif" font-size="14.00" fill="white">224,360 row(s)/256 chunk(s)</text>
</g>
<!-- 128123501183952 -->
<g id="node6" class="node">
<title>128123501183952</title>
<g id="a_node6"><a xlink:title="Output: 500000 rows in 8 chunks filtered: 0, 81 µs 469 ns.">
<polygon fill="none" stroke="white" points="603,-1802 490,-1802 490,-1688 603,-1688 603,-1802"/>
<text text-anchor="middle" x="546.5" y="-1786.8" font-family="Times,serif" font-size="14.00" fill="white">GetTable</text>
<text text-anchor="middle" x="546.5" y="-1771.8" font-family="Times,serif" font-size="14.00" fill="white">(supplier)</text>
<text text-anchor="middle" x="546.5" y="-1756.8" font-family="Times,serif" font-size="14.00" fill="white">pruned:</text>
<text text-anchor="middle" x="546.5" y="-1741.8" font-family="Times,serif" font-size="14.00" fill="white">0/8 chunk(s)</text>
<text text-anchor="middle" x="546.5" y="-1726.8" font-family="Times,serif" font-size="14.00" fill="white">3/7 column(s)</text>
<text text-anchor="middle" x="546.5" y="-1695.8" font-family="Times,serif" font-size="14.00" fill="white">81 µs 469 ns</text>
</a>
</g>
</g>
<!-- 128123501183952&#45;&gt;127962117017936 -->
<g id="edge6" class="edge">
<title>128123501183952&#45;&gt;127962117017936</title>
<path fill="none" stroke="white" d="M540.99,-1802.05C537.66,-1813.95 532.49,-1825.7 524.5,-1835 516.4,-1844.43 506.55,-1852.38 495.86,-1859.08"/>
<polygon fill="white" stroke="white" points="495.75,-1859.14 493.99,-1856.12 487.12,-1864.18 495.75,-1859.14"/>
<text text-anchor="middle" x="627" y="-1823.8" font-family="Times,serif" font-size="14.00" fill="white">500,000 row(s)/8 chunk(s)</text>
</g>
<!-- 127962117017616 -->
<g id="node7" class="node">
<title>127962117017616</title>
<g id="a_node7"><a xlink:title="Output: 296233 rows in 256 chunks filtered: 0, 140 µs 244 ns.&#10;Operator step runtimes:&#10; ForwardUnmodifiedColumns 52 µs 770 ns&#10; EvaluateNewColumns 252 ns&#10; BuildOutput 56 µs 783 ns.">
<polygon fill="none" stroke="white" points="377,-1772 260,-1772 260,-1718 377,-1718 377,-1772"/>
<text text-anchor="middle" x="318.5" y="-1756.8" font-family="Times,serif" font-size="14.00" fill="white">Projection</text>
<text text-anchor="middle" x="318.5" y="-1725.8" font-family="Times,serif" font-size="14.00" fill="white">140 µs 244 ns</text>
</a>
</g>
</g>
<!-- 127962117017616&#45;&gt;127962117017936 -->
<g id="edge7" class="edge">
<title>127962117017616&#45;&gt;127962117017936</title>
<path fill="none" stroke="white" d="M313.56,-1772.06C311.3,-1790.44 310.78,-1815.2 319.5,-1835 322.26,-1841.27 326.04,-1847.17 330.39,-1852.65"/>
<polygon fill="white" stroke="white" points="337.12,-1860.37 333.18,-1850.53 330.54,-1852.83 337.12,-1860.37"/>
<text text-anchor="middle" x="422" y="-1823.8" font-family="Times,serif" font-size="14.00" fill="white">296,233 row(s)/256 chunk(s)</text>
</g>
<!-- 127962117353168 -->
<g id="node8" class="node">
<title>127962117353168</title>
<g id="a_node8"><a xlink:title="Output: 296233 rows in 256 chunks filtered: 0, 157 ms 744 µs.&#10;Operator step runtimes:&#10; LeftSideMaterialize 22 ms 250 µs&#10; RightSideMaterialize 30 ms 536 µs&#10; LeftSideTransform 0 ns&#10; RightSideTransform 0 ns&#10; LeftSidePartition 3 ms 18 µs&#10; RightSidePartition 2 ms 468 µs&#10; LeftSideSortBuckets 691 µs 880 ns&#10; RightSideSortBuckets 725 µs 253 ns&#10; GatherRowIds 2 µs 418 ns&#10; FindJoinPartner 96 ms 655 µs&#10; OutputWriting 1 ms 8 µs.&#10;Radix bits: 8.">
<polygon fill="none" stroke="white" stroke-width="4.65" points="474,-1637 163,-1637 163,-1538 474,-1538 474,-1637"/>
<text text-anchor="middle" x="318.5" y="-1621.8" font-family="Times,serif" font-size="14.00" fill="white">JoinSimdSortMerge (Semi)</text>
<text text-anchor="middle" x="318.5" y="-1606.8" font-family="Times,serif" font-size="14.00" fill="white">ps_suppkey = l_suppkey</text>
<text text-anchor="middle" x="318.5" y="-1591.8" font-family="Times,serif" font-size="14.00" fill="white">AND ps_availqty &gt; 0.5 * SUM(l_quantity)</text>
<text text-anchor="middle" x="318.5" y="-1576.8" font-family="Times,serif" font-size="14.00" fill="white">AND ps_partkey = l_partkey</text>
<text text-anchor="middle" x="318.5" y="-1545.8" font-family="Times,serif" font-size="14.00" fill="white">157 ms 744 µs</text>
</a>
</g>
</g>
<!-- 127962117353168&#45;&gt;127962117017616 -->
<g id="edge8" class="edge">
<title>127962117353168&#45;&gt;127962117017616</title>
<path fill="none" stroke="white" d="M318.5,-1637.27C318.5,-1659.98 318.5,-1686.53 318.5,-1707.47"/>
<polygon fill="white" stroke="white" points="315,-1707.56 318.5,-1717.56 322,-1707.56 315,-1707.56"/>
<text text-anchor="middle" x="421" y="-1658.8" font-family="Times,serif" font-size="14.00" fill="white">296,233 row(s)/256 chunk(s)</text>
</g>
<!-- 128123501745424 -->
<g id="node9" class="node">
<title>128123501745424</title>
<g id="a_node9"><a xlink:title="Output: 434708 rows in 256 chunks filtered: 0, 1 ms 886 µs.">
<polygon fill="none" stroke="white" points="400.5,-864.5 296.5,-864.5 296.5,-810.5 400.5,-810.5 400.5,-864.5"/>
<text text-anchor="middle" x="348.5" y="-849.3" font-family="Times,serif" font-size="14.00" fill="white">Validate</text>
<text text-anchor="middle" x="348.5" y="-818.3" font-family="Times,serif" font-size="14.00" fill="white">1 ms 886 µs</text>
</a>
</g>
</g>
<!-- 128123501745424&#45;&gt;127962117353168 -->
<g id="edge9" class="edge">
<title>128123501745424&#45;&gt;127962117353168</title>
<path fill="none" stroke="white" d="M333.69,-864.58C320.24,-890.76 302.5,-932.65 302.5,-971.5 302.5,-971.5 302.5,-971.5 302.5,-1461 302.5,-1482.9 304.93,-1506.77 307.89,-1527.76"/>
<polygon fill="white" stroke="white" points="307.91,-1527.92 304.45,-1528.43 309.38,-1537.81 307.91,-1527.92"/>
<text text-anchor="middle" x="405" y="-1201.3" font-family="Times,serif" font-size="14.00" fill="white">434,708 row(s)/256 chunk(s)</text>
</g>
<!-- 127962117352208 -->
<g id="node19" class="node">
<title>127962117352208</title>
<g id="a_node19"><a xlink:title="Output: 495214 rows in 256 chunks filtered: 0, 251 ms 406 µs.&#10;Operator step runtimes:&#10; LeftSideMaterialize 216 ms 298 µs&#10; RightSideMaterialize 9 ms 753 µs&#10; LeftSideTransform 0 ns&#10; RightSideTransform 0 ns&#10; LeftSidePartition 4 ms 606 µs&#10; RightSidePartition 4 ms 199 µs&#10; LeftSideSortBuckets 9 ms 878 µs&#10; RightSideSortBuckets 639 µs 166 ns&#10; GatherRowIds 1 µs 235 ns&#10; FindJoinPartner 2 ms 804 µs&#10; OutputWriting 1 ms 913 µs.&#10;Radix bits: 8.">
<polygon fill="none" stroke="white" stroke-width="5.8" points="720,-1127 435,-1127 435,-1058 720,-1058 720,-1127"/>
<text text-anchor="middle" x="577.5" y="-1111.8" font-family="Times,serif" font-size="14.00" fill="white">JoinSimdSortMerge (Semi Reduction)</text>
<text text-anchor="middle" x="577.5" y="-1096.8" font-family="Times,serif" font-size="14.00" fill="white">l_partkey = ps_partkey</text>
<text text-anchor="middle" x="577.5" y="-1065.8" font-family="Times,serif" font-size="14.00" fill="white">251 ms 406 µs</text>
</a>
</g>
</g>
<!-- 128123501745424&#45;&gt;127962117352208 -->
<g id="edge11" class="edge">
<title>128123501745424&#45;&gt;127962117352208</title>
<path fill="none" stroke="white" d="M342.03,-864.77C334.84,-900.6 327.9,-965.12 358.5,-1007 375.38,-1030.11 399.48,-1046.9 425.56,-1059.09"/>
<polygon fill="white" stroke="white" points="434.86,-1063.22 427.14,-1055.97 425.72,-1059.17 434.86,-1063.22"/>
<text text-anchor="middle" x="461" y="-968.8" font-family="Times,serif" font-size="14.00" fill="white">434,708 row(s)/256 chunk(s)</text>
</g>
<!-- 127962117351568 -->
<g id="node20" class="node">
<title>127962117351568</title>
<g id="a_node20"><a xlink:title="Output: 26545356 rows in 256 chunks filtered: 0, 447 ms 926 µs.&#10;Operator step runtimes:&#10; LeftSideMaterialize 213 ms 877 µs&#10; RightSideMaterialize 10 ms 254 µs&#10; LeftSideTransform 0 ns&#10; RightSideTransform 0 ns&#10; LeftSidePartition 35 ms 211 µs&#10; RightSidePartition 3 ms 551 µs&#10; LeftSideSortBuckets 35 ms 94 µs&#10; RightSideSortBuckets 617 µs 714 ns&#10; GatherRowIds 2 µs 434 ns&#10; FindJoinPartner 91 ms 910 µs&#10; OutputWriting 53 ms 754 µs.&#10;Radix bits: 8.">
<polygon fill="none" stroke="white" stroke-width="7.22" points="857,-1007 572,-1007 572,-938 857,-938 857,-1007"/>
<text text-anchor="middle" x="714.5" y="-991.8" font-family="Times,serif" font-size="14.00" fill="white">JoinSimdSortMerge (Semi Reduction)</text>
<text text-anchor="middle" x="714.5" y="-976.8" font-family="Times,serif" font-size="14.00" fill="white">l_suppkey = ps_suppkey</text>
<text text-anchor="middle" x="714.5" y="-945.8" font-family="Times,serif" font-size="14.00" fill="white">447 ms 926 µs</text>
</a>
</g>
</g>
<!-- 128123501745424&#45;&gt;127962117351568 -->
<g id="edge10" class="edge">
<title>128123501745424&#45;&gt;127962117351568</title>
<path fill="none" stroke="white" d="M391.87,-864.58C422.7,-882.22 465.55,-904.95 505.5,-920 523.53,-926.79 542.76,-932.93 562,-938.41"/>
<polygon fill="white" stroke="white" points="571.74,-941.14 563.05,-935.07 562.11,-938.44 571.74,-941.14"/>
<text text-anchor="middle" x="608" y="-908.8" font-family="Times,serif" font-size="14.00" fill="white">434,708 row(s)/256 chunk(s)</text>
</g>
<!-- 127962117350928 -->
<g id="node10" class="node">
<title>127962117350928</title>
<g id="a_node10"><a xlink:title="Output: 434708 rows in 256 chunks filtered: 0, 74 ms 78 µs.&#10;Operator step runtimes:&#10; LeftSideMaterialize 39 ms 486 µs&#10; RightSideMaterialize 10 ms 125 µs&#10; LeftSideTransform 0 ns&#10; RightSideTransform 0 ns&#10; LeftSidePartition 4 ms 642 µs&#10; RightSidePartition 3 ms 826 µs&#10; LeftSideSortBuckets 10 ms 829 µs&#10; RightSideSortBuckets 624 µs 330 ns&#10; GatherRowIds 1 µs 398 ns&#10; FindJoinPartner 2 ms 381 µs&#10; OutputWriting 730 µs 473 ns.&#10;Radix bits: 8.">
<polygon fill="none" stroke="white" stroke-width="2.79" points="453,-714.5 244,-714.5 244,-645.5 453,-645.5 453,-714.5"/>
<text text-anchor="middle" x="348.5" y="-699.3" font-family="Times,serif" font-size="14.00" fill="white">JoinSimdSortMerge (Semi)</text>
<text text-anchor="middle" x="348.5" y="-684.3" font-family="Times,serif" font-size="14.00" fill="white">ps_partkey = p_partkey</text>
<text text-anchor="middle" x="348.5" y="-653.3" font-family="Times,serif" font-size="14.00" fill="white">74 ms 78 µs</text>
</a>
</g>
</g>
<!-- 127962117350928&#45;&gt;128123501745424 -->
<g id="edge12" class="edge">
<title>127962117350928&#45;&gt;128123501745424</title>
<path fill="none" stroke="white" d="M348.5,-714.74C348.5,-739.86 348.5,-774.13 348.5,-799.91"/>
<polygon fill="white" stroke="white" points="345,-800.03 348.5,-810.03 352,-800.03 345,-800.03"/>
<text text-anchor="middle" x="451" y="-758.8" font-family="Times,serif" font-size="14.00" fill="white">434,708 row(s)/256 chunk(s)</text>
</g>
<!-- 128123501185296 -->
<g id="node11" class="node">
<title>128123501185296</title>
<g id="a_node11"><a xlink:title="Output: 40000000 rows in 611 chunks filtered: 0, 4 ms 170 µs.">
<polygon fill="none" stroke="white" points="284.5,-572 162.5,-572 162.5,-458 284.5,-458 284.5,-572"/>
<text text-anchor="middle" x="223.5" y="-556.8" font-family="Times,serif" font-size="14.00" fill="white">GetTable</text>
<text text-anchor="middle" x="223.5" y="-541.8" font-family="Times,serif" font-size="14.00" fill="white">(partsupp)</text>
<text text-anchor="middle" x="223.5" y="-526.8" font-family="Times,serif" font-size="14.00" fill="white">pruned:</text>
<text text-anchor="middle" x="223.5" y="-511.8" font-family="Times,serif" font-size="14.00" fill="white">0/611 chunk(s)</text>
<text text-anchor="middle" x="223.5" y="-496.8" font-family="Times,serif" font-size="14.00" fill="white">2/5 column(s)</text>
<text text-anchor="middle" x="223.5" y="-465.8" font-family="Times,serif" font-size="14.00" fill="white">4 ms 170 µs</text>
</a>
</g>
</g>
<!-- 128123501185296&#45;&gt;127962117350928 -->
<g id="edge13" class="edge">
<title>128123501185296&#45;&gt;127962117350928</title>
<path fill="none" stroke="white" stroke-width="3.03" d="M215.68,-572.43C216.38,-583.78 218.88,-595.22 224.5,-605 232.34,-618.64 243.79,-630.04 256.61,-639.47"/>
<polygon fill="white" stroke="white" stroke-width="3.03" points="256.97,-639.72 254.98,-642.6 265.21,-645.39 256.97,-639.72"/>
<text text-anchor="middle" x="338.5" y="-593.8" font-family="Times,serif" font-size="14.00" fill="white">40,000,000 row(s)/611 chunk(s)</text>
</g>
<!-- 127962117349968 -->
<g id="node12" class="node">
<title>127962117349968</title>
<g id="a_node12"><a xlink:title="Output: 108677 rows in 153 chunks filtered: 0, 370 µs 887 ns.&#10;Operator step runtimes:&#10; ForwardUnmodifiedColumns 132 µs 628 ns&#10; EvaluateNewColumns 334 ns&#10; BuildOutput 155 µs 613 ns.">
<polygon fill="none" stroke="white" points="533,-542 416,-542 416,-488 533,-488 533,-542"/>
<text text-anchor="middle" x="474.5" y="-526.8" font-family="Times,serif" font-size="14.00" fill="white">Projection</text>
<text text-anchor="middle" x="474.5" y="-495.8" font-family="Times,serif" font-size="14.00" fill="white">370 µs 887 ns</text>
</a>
</g>
</g>
<!-- 127962117349968&#45;&gt;127962117350928 -->
<g id="edge14" class="edge">
<title>127962117349968&#45;&gt;127962117350928</title>
<path fill="none" stroke="white" d="M472.86,-542.11C470.59,-560.97 465.21,-586.31 452.5,-605 443.66,-618 431.72,-629.48 419.1,-639.28"/>
<polygon fill="white" stroke="white" points="410.72,-645.48 420.84,-642.34 418.76,-639.53 410.72,-645.48"/>
<text text-anchor="middle" x="563" y="-593.8" font-family="Times,serif" font-size="14.00" fill="white">108,677 row(s)/153 chunk(s)</text>
</g>
<!-- 128123502843920 -->
<g id="node13" class="node">
<title>128123502843920</title>
<g id="a_node13"><a xlink:title="Output: 108677 rows in 153 chunks filtered: 0, 685 µs 882 ns.">
<polygon fill="none" stroke="white" points="533,-407 416,-407 416,-353 533,-353 533,-407"/>
<text text-anchor="middle" x="474.5" y="-391.8" font-family="Times,serif" font-size="14.00" fill="white">Validate</text>
<text text-anchor="middle" x="474.5" y="-360.8" font-family="Times,serif" font-size="14.00" fill="white">685 µs 882 ns</text>
</a>
</g>
</g>
<!-- 128123502843920&#45;&gt;127962117349968 -->
<g id="edge15" class="edge">
<title>128123502843920&#45;&gt;127962117349968</title>
<path fill="none" stroke="white" d="M474.5,-407.28C474.5,-427.41 474.5,-455.41 474.5,-477.68"/>
<polygon fill="white" stroke="white" points="471,-477.78 474.5,-487.78 478,-477.78 471,-477.78"/>
<text text-anchor="middle" x="577" y="-428.8" font-family="Times,serif" font-size="14.00" fill="white">108,677 row(s)/153 chunk(s)</text>
</g>
<!-- 127962117349648 -->
<g id="node14" class="node">
<title>127962117349648</title>
<g id="a_node14"><a xlink:title="Output: 108677 rows in 153 chunks filtered: 0, 1 ms 621 µs.&#10;Chunks: 0 skipped with no results, &#10;0 skipped with all matching, 0 scanned using binary search.">
<polygon fill="none" stroke="white" points="669.5,-302 279.5,-302 279.5,-203 669.5,-203 669.5,-302"/>
<text text-anchor="middle" x="474.5" y="-286.8" font-family="Times,serif" font-size="14.00" fill="white">TableScan</text>
<text text-anchor="middle" x="474.5" y="-271.8" font-family="Times,serif" font-size="14.00" fill="white">Impl: ColumnBetween</text>
<text text-anchor="middle" x="474.5" y="-256.8" font-family="Times,serif" font-size="14.00" fill="white">p_name BETWEEN UPPER EXCLUSIVE &#39;violet&#39; AND</text>
<text text-anchor="middle" x="474.5" y="-241.8" font-family="Times,serif" font-size="14.00" fill="white">&#39;violeu&#39;</text>
<text text-anchor="middle" x="474.5" y="-210.8" font-family="Times,serif" font-size="14.00" fill="white">1 ms 621 µs</text>
</a>
</g>
</g>
<!-- 127962117349648&#45;&gt;128123502843920 -->
<g id="edge16" class="edge">
<title>127962117349648&#45;&gt;128123502843920</title>
<path fill="none" stroke="white" d="M474.5,-302.02C474.5,-315.49 474.5,-329.89 474.5,-342.54"/>
<polygon fill="white" stroke="white" points="471,-342.7 474.5,-352.7 478,-342.7 471,-342.7"/>
<text text-anchor="middle" x="577" y="-323.8" font-family="Times,serif" font-size="14.00" fill="white">108,677 row(s)/153 chunk(s)</text>
</g>
<!-- 128123501184848 -->
<g id="node15" class="node">
<title>128123501184848</title>
<g id="a_node15"><a xlink:title="Output: 10000000 rows in 153 chunks filtered: 0, 746 µs 654 ns.">
<polygon fill="none" stroke="white" points="535.5,-133 413.5,-133 413.5,-19 535.5,-19 535.5,-133"/>
<text text-anchor="middle" x="474.5" y="-117.8" font-family="Times,serif" font-size="14.00" fill="white">GetTable</text>
<text text-anchor="middle" x="474.5" y="-102.8" font-family="Times,serif" font-size="14.00" fill="white">(part)</text>
<text text-anchor="middle" x="474.5" y="-87.8" font-family="Times,serif" font-size="14.00" fill="white">pruned:</text>
<text text-anchor="middle" x="474.5" y="-72.8" font-family="Times,serif" font-size="14.00" fill="white">0/153 chunk(s)</text>
<text text-anchor="middle" x="474.5" y="-57.8" font-family="Times,serif" font-size="14.00" fill="white">7/9 column(s)</text>
<text text-anchor="middle" x="474.5" y="-26.8" font-family="Times,serif" font-size="14.00" fill="white">746 µs 654 ns</text>
</a>
</g>
</g>
<!-- 128123501184848&#45;&gt;127962117349648 -->
<g id="edge17" class="edge">
<title>128123501184848&#45;&gt;127962117349648</title>
<path fill="none" stroke="white" d="M474.5,-133.17C474.5,-152.18 474.5,-173.44 474.5,-192.64"/>
<polygon fill="white" stroke="white" points="471,-192.77 474.5,-202.77 478,-192.77 471,-192.77"/>
<text text-anchor="middle" x="588.5" y="-173.8" font-family="Times,serif" font-size="14.00" fill="white">10,000,000 row(s)/153 chunk(s)</text>
</g>
<!-- 127962117352848 -->
<g id="node16" class="node">
<title>127962117352848</title>
<g id="a_node16"><a xlink:title="Output: 296861 rows in 5 chunks filtered: 0, 846 µs 500 ns.&#10;Operator step runtimes:&#10; ForwardUnmodifiedColumns 8 µs 102 ns&#10; EvaluateNewColumns 807 µs 112 ns&#10; BuildOutput 26 µs 888 ns.">
<polygon fill="none" stroke="white" points="460,-1487 343,-1487 343,-1433 460,-1433 460,-1487"/>
<text text-anchor="middle" x="401.5" y="-1471.8" font-family="Times,serif" font-size="14.00" fill="white">Projection</text>
<text text-anchor="middle" x="401.5" y="-1440.8" font-family="Times,serif" font-size="14.00" fill="white">846 µs 500 ns</text>
</a>
</g>
</g>
<!-- 127962117352848&#45;&gt;127962117353168 -->
<g id="edge18" class="edge">
<title>127962117352848&#45;&gt;127962117353168</title>
<path fill="none" stroke="white" d="M384.3,-1487C376.17,-1499.31 366.1,-1514.52 356.32,-1529.32"/>
<polygon fill="white" stroke="white" points="350.6,-1537.96 359.04,-1531.55 356.12,-1529.62 350.6,-1537.96"/>
<text text-anchor="middle" x="466" y="-1508.8" font-family="Times,serif" font-size="14.00" fill="white">296,861 row(s)/5 chunk(s)</text>
</g>
<!-- 128124003311632 -->
<g id="node17" class="node">
<title>128124003311632</title>
<g id="a_node17"><a xlink:title="Output: 296861 rows in 5 chunks filtered: 0, 613 ms 457 µs.&#10;Operator step runtimes:&#10; GroupByKeyPartitioning 328 ms 375 µs&#10; Aggregating 271 ms 828 µs&#10; GroupByColumnsWriting 2 ms 317 µs&#10; AggregateColumnsWriting 10 ms 777 µs&#10; OutputWriting 12 µs 853 ns.">
<polygon fill="none" stroke="white" stroke-width="8" points="578.5,-1382 412.5,-1382 412.5,-1283 578.5,-1283 578.5,-1382"/>
<text text-anchor="middle" x="495.5" y="-1366.8" font-family="Times,serif" font-size="14.00" fill="white">AggregateHash</text>
<text text-anchor="middle" x="495.5" y="-1351.8" font-family="Times,serif" font-size="14.00" fill="white">GroupBy {l_suppkey,</text>
<text text-anchor="middle" x="495.5" y="-1336.8" font-family="Times,serif" font-size="14.00" fill="white">l_partkey}</text>
<text text-anchor="middle" x="495.5" y="-1321.8" font-family="Times,serif" font-size="14.00" fill="white">SUM(l_quantity)</text>
<text text-anchor="middle" x="495.5" y="-1290.8" font-family="Times,serif" font-size="14.00" fill="white">613 ms 457 µs</text>
</a>
</g>
</g>
<!-- 128124003311632&#45;&gt;127962117352848 -->
<g id="edge19" class="edge">
<title>128124003311632&#45;&gt;127962117352848</title>
<path fill="none" stroke="white" d="M459.16,-1382.02C448.56,-1396.17 437.2,-1411.33 427.39,-1424.43"/>
<polygon fill="white" stroke="white" points="424.39,-1422.6 421.2,-1432.7 429.99,-1426.8 424.39,-1422.6"/>
<text text-anchor="middle" x="540" y="-1403.8" font-family="Times,serif" font-size="14.00" fill="white">296,861 row(s)/5 chunk(s)</text>
</g>
<!-- 128123501747216 -->
<g id="node18" class="node">
<title>128123501747216</title>
<g id="a_node18"><a xlink:title="Output: 495214 rows in 256 chunks filtered: 0, 4 ms 502 µs.">
<polygon fill="none" stroke="white" points="629.5,-1232 525.5,-1232 525.5,-1178 629.5,-1178 629.5,-1232"/>
<text text-anchor="middle" x="577.5" y="-1216.8" font-family="Times,serif" font-size="14.00" fill="white">Validate</text>
<text text-anchor="middle" x="577.5" y="-1185.8" font-family="Times,serif" font-size="14.00" fill="white">4 ms 502 µs</text>
</a>
</g>
</g>
<!-- 128123501747216&#45;&gt;128124003311632 -->
<g id="edge20" class="edge">
<title>128123501747216&#45;&gt;128124003311632</title>
<path fill="none" stroke="white" d="M560.51,-1232C552.47,-1244.31 542.53,-1259.52 532.86,-1274.32"/>
<polygon fill="white" stroke="white" points="529.76,-1272.67 527.22,-1282.96 535.62,-1276.5 529.76,-1272.67"/>
<text text-anchor="middle" x="651" y="-1253.8" font-family="Times,serif" font-size="14.00" fill="white">495,214 row(s)/256 chunk(s)</text>
</g>
<!-- 127962117352208&#45;&gt;128123501747216 -->
<g id="edge21" class="edge">
<title>127962117352208&#45;&gt;128123501747216</title>
<path fill="none" stroke="white" d="M577.5,-1127.25C577.5,-1140.07 577.5,-1154.73 577.5,-1167.77"/>
<polygon fill="white" stroke="white" points="574,-1167.81 577.5,-1177.81 581,-1167.81 574,-1167.81"/>
<text text-anchor="middle" x="680" y="-1148.8" font-family="Times,serif" font-size="14.00" fill="white">495,214 row(s)/256 chunk(s)</text>
</g>
<!-- 127962117351568&#45;&gt;127962117352208 -->
<g id="edge22" class="edge">
<title>127962117351568&#45;&gt;127962117352208</title>
<path fill="none" stroke="white" stroke-width="2.02" d="M675.24,-1007.31C659.48,-1020.89 641.17,-1036.66 624.69,-1050.86"/>
<polygon fill="white" stroke="white" stroke-width="2.02" points="624.34,-1051.15 622.06,-1048.5 616.76,-1057.68 624.34,-1051.15"/>
<text text-anchor="middle" x="767.5" y="-1028.8" font-family="Times,serif" font-size="14.00" fill="white">26,545,356 row(s)/256 chunk(s)</text>
</g>
<!-- 127962117351248 -->
<g id="node21" class="node">
<title>127962117351248</title>
<g id="a_node21"><a xlink:title="Output: 45524243 rows in 4578 chunks filtered: 0, 36 ms 397 µs.&#10;Chunks: 0 skipped with no results, &#10;0 skipped with all matching, 0 scanned using binary search.">
<polygon fill="none" stroke="white" stroke-width="1.03" points="920.5,-887 508.5,-887 508.5,-788 920.5,-788 920.5,-887"/>
<text text-anchor="middle" x="714.5" y="-871.8" font-family="Times,serif" font-size="14.00" fill="white">TableScan</text>
<text text-anchor="middle" x="714.5" y="-856.8" font-family="Times,serif" font-size="14.00" fill="white">Impl: ColumnBetween</text>
<text text-anchor="middle" x="714.5" y="-841.8" font-family="Times,serif" font-size="14.00" fill="white">l_shipdate BETWEEN UPPER EXCLUSIVE &#39;1995&#45;01&#45;01&#39;</text>
<text text-anchor="middle" x="714.5" y="-826.8" font-family="Times,serif" font-size="14.00" fill="white">AND &#39;1996&#45;01&#45;01&#39;</text>
<text text-anchor="middle" x="714.5" y="-795.8" font-family="Times,serif" font-size="14.00" fill="white">36 ms 397 µs</text>
</a>
</g>
</g>
<!-- 127962117351248&#45;&gt;127962117351568 -->
<g id="edge23" class="edge">
<title>127962117351248&#45;&gt;127962117351568</title>
<path fill="none" stroke="white" stroke-width="3.35" d="M714.5,-887.27C714.5,-900.49 714.5,-914.72 714.5,-927.65"/>
<polygon fill="white" stroke="white" stroke-width="3.35" points="714.5,-927.7 711,-927.7 714.5,-937.7 714.5,-927.7"/>
<text text-anchor="middle" x="835" y="-908.8" font-family="Times,serif" font-size="14.00" fill="white">45,524,243 row(s)/4,578 chunk(s)</text>
</g>
<!-- 128123501181712 -->
<g id="node22" class="node">
<title>128123501181712</title>
<g id="a_node22"><a xlink:title="Output: 300005811 rows in 4578 chunks filtered: 0, 8 ms 307 µs.">
<polygon fill="none" stroke="white" points="780,-737 649,-737 649,-623 780,-623 780,-737"/>
<text text-anchor="middle" x="714.5" y="-721.8" font-family="Times,serif" font-size="14.00" fill="white">GetTable</text>
<text text-anchor="middle" x="714.5" y="-706.8" font-family="Times,serif" font-size="14.00" fill="white">(lineitem)</text>
<text text-anchor="middle" x="714.5" y="-691.8" font-family="Times,serif" font-size="14.00" fill="white">pruned:</text>
<text text-anchor="middle" x="714.5" y="-676.8" font-family="Times,serif" font-size="14.00" fill="white">0/4578 chunk(s)</text>
<text text-anchor="middle" x="714.5" y="-661.8" font-family="Times,serif" font-size="14.00" fill="white">12/16 column(s)</text>
<text text-anchor="middle" x="714.5" y="-630.8" font-family="Times,serif" font-size="14.00" fill="white">8 ms 307 µs</text>
</a>
</g>
</g>
<!-- 128123501181712&#45;&gt;127962117351248 -->
<g id="edge24" class="edge">
<title>128123501181712&#45;&gt;127962117351248</title>
<path fill="none" stroke="white" stroke-width="8" d="M714.5,-737.14C714.5,-750.38 714.5,-764.53 714.5,-777.88"/>
<polygon fill="white" stroke="white" stroke-width="8" points="707.5,-777.9 714.5,-787.9 721.5,-777.9 707.5,-777.9"/>
<text text-anchor="middle" x="839.5" y="-758.8" font-family="Times,serif" font-size="14.00" fill="white">300,005,811 row(s)/4,578 chunk(s)</text>
</g>
<!-- 128123501745680 -->
<g id="node23" class="node">
<title>128123501745680</title>
<g id="a_node23"><a xlink:title="Output: 1 row in 1 chunk filtered: 0, 4 µs 231 ns.">
<polygon fill="none" stroke="white" points="325,-2201 226,-2201 226,-2147 325,-2147 325,-2201"/>
<text text-anchor="middle" x="275.5" y="-2185.8" font-family="Times,serif" font-size="14.00" fill="white">Validate</text>
<text text-anchor="middle" x="275.5" y="-2154.8" font-family="Times,serif" font-size="14.00" fill="white">4 µs 231 ns</text>
</a>
</g>
</g>
<!-- 128123501745680&#45;&gt;127962117018896 -->
<g id="edge25" class="edge">
<title>128123501745680&#45;&gt;127962117018896</title>
<path fill="none" stroke="white" d="M278.74,-2201.28C281.02,-2212.12 284.9,-2224.37 291.5,-2234 294.06,-2237.74 296.99,-2241.31 300.16,-2244.71"/>
<polygon fill="white" stroke="white" points="307.44,-2251.84 302.75,-2242.34 300.3,-2244.84 307.44,-2251.84"/>
<text text-anchor="middle" x="360.5" y="-2222.8" font-family="Times,serif" font-size="14.00" fill="white">1 row(s)/1 chunk(s)</text>
</g>
<!-- 127962117018576&#45;&gt;128123501745680 -->
<g id="edge26" class="edge">
<title>127962117018576&#45;&gt;128123501745680</title>
<path fill="none" stroke="white" d="M252.17,-2057.24C256.28,-2077.96 261.66,-2105.02 266.5,-2129 267.03,-2131.63 267.58,-2134.35 268.14,-2137.09"/>
<polygon fill="white" stroke="white" points="264.72,-2137.85 270.15,-2146.95 271.58,-2136.45 264.72,-2137.85"/>
<text text-anchor="middle" x="335.5" y="-2098.3" font-family="Times,serif" font-size="14.00" fill="white">1 row(s)/1 chunk(s)</text>
</g>
<!-- 127962117018256 -->
<g id="node25" class="node">
<title>127962117018256</title>
<g id="a_node25"><a xlink:title="Output: 1 row in 1 chunk filtered: 0, 31 µs 770 ns.&#10;Chunks: 0 skipped with no results, &#10;0 skipped with all matching, 0 scanned using binary search.">
<polygon fill="none" stroke="white" points="169,-1937 0,-1937 0,-1853 169,-1853 169,-1937"/>
<text text-anchor="middle" x="84.5" y="-1921.8" font-family="Times,serif" font-size="14.00" fill="white">TableScan</text>
<text text-anchor="middle" x="84.5" y="-1906.8" font-family="Times,serif" font-size="14.00" fill="white">Impl: ColumnVsValue</text>
<text text-anchor="middle" x="84.5" y="-1891.8" font-family="Times,serif" font-size="14.00" fill="white">n_name = &#39;EGYPT&#39;</text>
<text text-anchor="middle" x="84.5" y="-1860.8" font-family="Times,serif" font-size="14.00" fill="white">31 µs 770 ns</text>
</a>
</g>
</g>
<!-- 127962117018256&#45;&gt;127962117018576 -->
<g id="edge27" class="edge">
<title>127962117018256&#45;&gt;127962117018576</title>
<path fill="none" stroke="white" d="M84.78,-1937.35C86.73,-1949.02 90.74,-1960.98 98.5,-1970 102.19,-1974.29 106.26,-1978.23 110.63,-1981.83"/>
<polygon fill="white" stroke="white" points="110.8,-1981.96 108.69,-1984.75 118.78,-1987.98 110.8,-1981.96"/>
<text text-anchor="middle" x="167.5" y="-1958.8" font-family="Times,serif" font-size="14.00" fill="white">1 row(s)/1 chunk(s)</text>
</g>
<!-- 128123501182160 -->
<g id="node26" class="node">
<title>128123501182160</title>
<g id="a_node26"><a xlink:title="Output: 25 rows in 1 chunk filtered: 0, 24 µs 815 ns.">
<polygon fill="none" stroke="white" points="141,-1802 28,-1802 28,-1688 141,-1688 141,-1802"/>
<text text-anchor="middle" x="84.5" y="-1786.8" font-family="Times,serif" font-size="14.00" fill="white">GetTable</text>
<text text-anchor="middle" x="84.5" y="-1771.8" font-family="Times,serif" font-size="14.00" fill="white">(nation)</text>
<text text-anchor="middle" x="84.5" y="-1756.8" font-family="Times,serif" font-size="14.00" fill="white">pruned:</text>
<text text-anchor="middle" x="84.5" y="-1741.8" font-family="Times,serif" font-size="14.00" fill="white">0/1 chunk(s)</text>
<text text-anchor="middle" x="84.5" y="-1726.8" font-family="Times,serif" font-size="14.00" fill="white">2/4 column(s)</text>
<text text-anchor="middle" x="84.5" y="-1695.8" font-family="Times,serif" font-size="14.00" fill="white">24 µs 815 ns</text>
</a>
</g>
</g>
<!-- 128123501182160&#45;&gt;127962117018256 -->
<g id="edge28" class="edge">
<title>128123501182160&#45;&gt;127962117018256</title>
<path fill="none" stroke="white" d="M84.5,-1802.37C84.5,-1815.65 84.5,-1829.74 84.5,-1842.77"/>
<polygon fill="white" stroke="white" points="81,-1842.97 84.5,-1852.97 88,-1842.97 81,-1842.97"/>
<text text-anchor="middle" x="158" y="-1823.8" font-family="Times,serif" font-size="14.00" fill="white">25 row(s)/1 chunk(s)</text>
</g>
<!-- 0 -->
<g id="node27" class="node">
<title>0</title>
<polygon fill="none" stroke="white" points="553.5,-0.5 553.5,-151.5 899.5,-151.5 899.5,-0.5 553.5,-0.5"/>
<text text-anchor="middle" x="726.5" y="-136.3" font-family="Times,serif" font-size="14.00" fill="white">Total by operator</text>
<polyline fill="none" stroke="white" points="553.5,-128.5 899.5,-128.5 "/>
<text text-anchor="end" x="707.5" y="-113.3" font-family="Times,serif" font-size="14.00" fill="white">JoinSimdSortMerge </text>
<text text-anchor="end" x="707.5" y="-98.3" font-family="Times,serif" font-size="14.00" fill="white"> AggregateHash </text>
<text text-anchor="end" x="707.5" y="-83.3" font-family="Times,serif" font-size="14.00" fill="white"> TableScan </text>
<text text-anchor="end" x="707.5" y="-68.3" font-family="Times,serif" font-size="14.00" fill="white"> GetTable </text>
<text text-anchor="end" x="707.5" y="-53.3" font-family="Times,serif" font-size="14.00" fill="white"> Sort </text>
<text text-anchor="end" x="707.5" y="-38.3" font-family="Times,serif" font-size="14.00" fill="white"> Validate </text>
<text text-anchor="end" x="707.5" y="-23.3" font-family="Times,serif" font-size="14.00" fill="white"> Projection </text>
<text text-anchor="end" x="707.5" y="-8.3" font-family="Times,serif" font-size="14.00" fill="white">total</text>
<polyline fill="none" stroke="white" points="715.5,-0.5 715.5,-128.5 "/>
<text text-anchor="start" x="723.5" y="-113.3" font-family="Times,serif" font-size="14.00" fill="white">973 ms 544 µs </text>
<text text-anchor="start" x="723.5" y="-98.3" font-family="Times,serif" font-size="14.00" fill="white"> 613 ms 457 µs </text>
<text text-anchor="start" x="723.5" y="-83.3" font-family="Times,serif" font-size="14.00" fill="white"> 38 ms 50 µs </text>
<text text-anchor="start" x="723.5" y="-68.3" font-family="Times,serif" font-size="14.00" fill="white"> 13 ms 330 µs </text>
<text text-anchor="start" x="723.5" y="-53.3" font-family="Times,serif" font-size="14.00" fill="white"> 11 ms 840 µs </text>
<text text-anchor="start" x="723.5" y="-38.3" font-family="Times,serif" font-size="14.00" fill="white"> 8 ms 463 µs </text>
<text text-anchor="start" x="723.5" y="-23.3" font-family="Times,serif" font-size="14.00" fill="white"> 1 ms 366 µs </text>
<text text-anchor="start" x="723.5" y="-8.3" font-family="Times,serif" font-size="14.00" fill="white"> 1 s 660 ms </text>
<polyline fill="none" stroke="white" points="846.5,-0.5 846.5,-128.5 "/>
<text text-anchor="start" x="854.5" y="-113.3" font-family="Times,serif" font-size="14.00" fill="white">59 %</text>
<text text-anchor="start" x="854.5" y="-98.3" font-family="Times,serif" font-size="14.00" fill="white">37 %</text>
<text text-anchor="start" x="854.5" y="-83.3" font-family="Times,serif" font-size="14.00" fill="white">2 %</text>
<text text-anchor="start" x="854.5" y="-68.3" font-family="Times,serif" font-size="14.00" fill="white">1 %</text>
<text text-anchor="start" x="854.5" y="-53.3" font-family="Times,serif" font-size="14.00" fill="white">1 %</text>
<text text-anchor="start" x="854.5" y="-38.3" font-family="Times,serif" font-size="14.00" fill="white">1 %</text>
<text text-anchor="start" x="854.5" y="-23.3" font-family="Times,serif" font-size="14.00" fill="white">0 %</text>
<text text-anchor="start" x="854.5" y="-8.3" font-family="Times,serif" font-size="14.00" fill="white"> </text>
</g>
</g>
</svg>
