<?xml version="1.0" encoding="UTF-8" standalone="no"?>
<!DOCTYPE svg PUBLIC "-//W3C//DTD SVG 1.1//EN"
 "http://www.w3.org/Graphics/SVG/1.1/DTD/svg11.dtd">
<!-- Generated by graphviz version 2.43.0 (0)
 -->
<!-- Title: G Pages: 1 -->
<svg width="877pt" height="1610pt"
 viewBox="0.00 0.00 876.50 1610.00" xmlns="http://www.w3.org/2000/svg" xmlns:xlink="http://www.w3.org/1999/xlink">
<g id="graph0" class="graph" transform="scale(1 1) rotate(0) translate(4 1606)">
<title>G</title>
<polygon fill="black" stroke="transparent" points="-4,4 -4,-1606 872.5,-1606 872.5,4 -4,4"/>
<text text-anchor="middle" x="319.5" y="-1586.8" font-family="Times,serif" font-size="14.00" fill="white">For tooltips with advanced information, hover your mouse over vertices or edge labels.</text>
<!-- 128123679325968 -->
<g id="node1" class="node">
<title>128123679325968</title>
<g id="a_node1"><a xlink:title="Output: 1 row in 1 chunk filtered: 0, 1 µs 633 ns.">
<polygon fill="none" stroke="white" points="270.5,-1547 166.5,-1547 166.5,-1478 270.5,-1478 270.5,-1547"/>
<text text-anchor="middle" x="218.5" y="-1531.8" font-family="Times,serif" font-size="14.00" fill="white">Alias</text>
<text text-anchor="middle" x="218.5" y="-1516.8" font-family="Times,serif" font-size="14.00" fill="white">[avg_yearly]</text>
<text text-anchor="middle" x="218.5" y="-1485.8" font-family="Times,serif" font-size="14.00" fill="white">1 µs 633 ns</text>
</a>
</g>
</g>
<!-- 128123679325648 -->
<g id="node2" class="node">
<title>128123679325648</title>
<g id="a_node2"><a xlink:title="Output: 1 row in 1 chunk filtered: 0, 24 µs 558 ns.&#10;Operator step runtimes:&#10; ForwardUnmodifiedColumns 1 µs 150 ns&#10; EvaluateNewColumns 10 µs 887 ns&#10; BuildOutput 10 µs 559 ns.">
<polygon fill="none" stroke="white" points="272.5,-1427 164.5,-1427 164.5,-1373 272.5,-1373 272.5,-1427"/>
<text text-anchor="middle" x="218.5" y="-1411.8" font-family="Times,serif" font-size="14.00" fill="white">Projection</text>
<text text-anchor="middle" x="218.5" y="-1380.8" font-family="Times,serif" font-size="14.00" fill="white">24 µs 558 ns</text>
</a>
</g>
</g>
<!-- 128123679325648&#45;&gt;128123679325968 -->
<g id="edge1" class="edge">
<title>128123679325648&#45;&gt;128123679325968</title>
<path fill="none" stroke="white" d="M218.5,-1427.19C218.5,-1439.29 218.5,-1454 218.5,-1467.72"/>
<polygon fill="white" stroke="white" points="215,-1467.95 218.5,-1477.95 222,-1467.96 215,-1467.95"/>
<text text-anchor="middle" x="287.5" y="-1448.8" font-family="Times,serif" font-size="14.00" fill="white">1 row(s)/1 chunk(s)</text>
</g>
<!-- 128055752320528 -->
<g id="node3" class="node">
<title>128055752320528</title>
<g id="a_node3"><a xlink:title="Output: 1 row in 1 chunk filtered: 0, 20 ms 500 µs.&#10;Operator step runtimes:&#10; GroupByKeyPartitioning 34 ns&#10; Aggregating 20 ms 475 µs&#10; GroupByColumnsWriting 462 ns&#10; AggregateColumnsWriting 13 µs 660 ns&#10; OutputWriting 5 µs 538 ns.">
<polygon fill="none" stroke="white" stroke-width="1.08" points="306.5,-1322 130.5,-1322 130.5,-1238 306.5,-1238 306.5,-1322"/>
<text text-anchor="middle" x="218.5" y="-1306.8" font-family="Times,serif" font-size="14.00" fill="white">AggregateHash</text>
<text text-anchor="middle" x="218.5" y="-1291.8" font-family="Times,serif" font-size="14.00" fill="white">GroupBy {}</text>
<text text-anchor="middle" x="218.5" y="-1276.8" font-family="Times,serif" font-size="14.00" fill="white">SUM(l_extendedprice)</text>
<text text-anchor="middle" x="218.5" y="-1245.8" font-family="Times,serif" font-size="14.00" fill="white">20 ms 500 µs</text>
</a>
</g>
</g>
<!-- 128055752320528&#45;&gt;128123679325648 -->
<g id="edge2" class="edge">
<title>128055752320528&#45;&gt;128123679325648</title>
<path fill="none" stroke="white" d="M218.5,-1322.27C218.5,-1335.36 218.5,-1349.72 218.5,-1362.45"/>
<polygon fill="white" stroke="white" points="215,-1362.69 218.5,-1372.69 222,-1362.69 215,-1362.69"/>
<text text-anchor="middle" x="287.5" y="-1343.8" font-family="Times,serif" font-size="14.00" fill="white">1 row(s)/1 chunk(s)</text>
</g>
<!-- 128123679325328 -->
<g id="node4" class="node">
<title>128123679325328</title>
<g id="a_node4"><a xlink:title="Output: 27329 rows in 50 chunks filtered: 0, 48 ms 330 µs.&#10;Operator step runtimes:&#10; LeftSideMaterialize 5 ms 129 µs&#10; RightSideMaterialize 3 ms 363 µs&#10; LeftSideTransform 0 ns&#10; RightSideTransform 0 ns&#10; LeftSidePartition 2 ms 199 µs&#10; RightSidePartition 967 µs 766 ns&#10; LeftSideSortBuckets 611 µs 594 ns&#10; RightSideSortBuckets 513 µs 184 ns&#10; GatherRowIds 943 ns&#10; FindJoinPartner 34 ms 394 µs&#10; OutputWriting 853 µs 887 ns.&#10;Radix bits: 8.">
<polygon fill="none" stroke="white" stroke-width="3.19" points="367,-1187 70,-1187 70,-1103 367,-1103 367,-1187"/>
<text text-anchor="middle" x="218.5" y="-1171.8" font-family="Times,serif" font-size="14.00" fill="white">JoinSimdSortMerge (Semi)</text>
<text text-anchor="middle" x="218.5" y="-1156.8" font-family="Times,serif" font-size="14.00" fill="white">p_partkey = l_partkey</text>
<text text-anchor="middle" x="218.5" y="-1141.8" font-family="Times,serif" font-size="14.00" fill="white">AND l_quantity &lt; 0.2 * AVG(l_quantity)</text>
<text text-anchor="middle" x="218.5" y="-1110.8" font-family="Times,serif" font-size="14.00" fill="white">48 ms 330 µs</text>
</a>
</g>
</g>
<!-- 128123679325328&#45;&gt;128055752320528 -->
<g id="edge3" class="edge">
<title>128123679325328&#45;&gt;128055752320528</title>
<path fill="none" stroke="white" d="M218.5,-1187.35C218.5,-1200.11 218.5,-1214.32 218.5,-1227.67"/>
<polygon fill="white" stroke="white" points="215,-1227.67 218.5,-1237.67 222,-1227.67 215,-1227.67"/>
<text text-anchor="middle" x="312" y="-1208.8" font-family="Times,serif" font-size="14.00" fill="white">27,329 row(s)/50 chunk(s)</text>
</g>
<!-- 128123679324688 -->
<g id="node5" class="node">
<title>128123679324688</title>
<g id="a_node5"><a xlink:title="Output: 302286 rows in 256 chunks filtered: 0, 51 ms 104 µs.&#10;Operator step runtimes:&#10; LeftSideMaterialize 38 ms 257 µs&#10; RightSideMaterialize 3 ms 316 µs&#10; LeftSideTransform 0 ns&#10; RightSideTransform 0 ns&#10; LeftSidePartition 4 ms 10 µs&#10; RightSidePartition 1 ms 135 µs&#10; LeftSideSortBuckets 615 µs 282 ns&#10; RightSideSortBuckets 510 µs 148 ns&#10; GatherRowIds 1 µs 331 ns&#10; FindJoinPartner 1 ms 315 µs&#10; OutputWriting 1 ms 497 µs.&#10;Radix bits: 8.">
<polygon fill="none" stroke="white" stroke-width="3.33" points="435,-939.5 224,-939.5 224,-870.5 435,-870.5 435,-939.5"/>
<text text-anchor="middle" x="329.5" y="-924.3" font-family="Times,serif" font-size="14.00" fill="white">JoinSimdSortMerge (Inner)</text>
<text text-anchor="middle" x="329.5" y="-909.3" font-family="Times,serif" font-size="14.00" fill="white">l_partkey = p_partkey</text>
<text text-anchor="middle" x="329.5" y="-878.3" font-family="Times,serif" font-size="14.00" fill="white">51 ms 104 µs</text>
</a>
</g>
</g>
<!-- 128123679324688&#45;&gt;128123679325328 -->
<g id="edge4" class="edge">
<title>128123679324688&#45;&gt;128123679325328</title>
<path fill="none" stroke="white" d="M331.72,-939.66C332.63,-977.77 329.13,-1040.33 301.5,-1085 299.25,-1088.64 296.68,-1092.11 293.88,-1095.43"/>
<polygon fill="white" stroke="white" points="293.77,-1095.55 291.21,-1093.16 286.96,-1102.86 293.77,-1095.55"/>
<text text-anchor="middle" x="432" y="-1021.3" font-family="Times,serif" font-size="14.00" fill="white">302,286 row(s)/256 chunk(s)</text>
</g>
<!-- 128056008256784 -->
<g id="node6" class="node">
<title>128056008256784</title>
<g id="a_node6"><a xlink:title="Output: 302286 rows in 256 chunks filtered: 0, 3 ms 233 µs.">
<polygon fill="none" stroke="white" points="263.5,-812 159.5,-812 159.5,-758 263.5,-758 263.5,-812"/>
<text text-anchor="middle" x="211.5" y="-796.8" font-family="Times,serif" font-size="14.00" fill="white">Validate</text>
<text text-anchor="middle" x="211.5" y="-765.8" font-family="Times,serif" font-size="14.00" fill="white">3 ms 233 µs</text>
</a>
</g>
</g>
<!-- 128056008256784&#45;&gt;128123679324688 -->
<g id="edge5" class="edge">
<title>128056008256784&#45;&gt;128123679324688</title>
<path fill="none" stroke="white" d="M263.6,-800.5C279.58,-807.2 295.96,-816.71 307.5,-830 314.97,-838.6 319.9,-849.65 323.16,-860.57"/>
<polygon fill="white" stroke="white" points="323.22,-860.8 319.83,-861.67 325.71,-870.48 323.22,-860.8"/>
<text text-anchor="middle" x="420" y="-833.8" font-family="Times,serif" font-size="14.00" fill="white">302,286 row(s)/256 chunk(s)</text>
</g>
<!-- 128055752320016 -->
<g id="node14" class="node">
<title>128055752320016</title>
<g id="a_node14"><a xlink:title="Output: 10048 rows in 1 chunk filtered: 0, 339 ms 421 µs.&#10;Operator step runtimes:&#10; GroupByKeyPartitioning 183 ms 120 µs&#10; Aggregating 155 ms 948 µs&#10; GroupByColumnsWriting 215 µs 127 ns&#10; AggregateColumnsWriting 84 µs 365 ns&#10; OutputWriting 5 µs 255 ns.">
<polygon fill="none" stroke="white" stroke-width="8" points="195.5,-947 27.5,-947 27.5,-863 195.5,-863 195.5,-947"/>
<text text-anchor="middle" x="111.5" y="-931.8" font-family="Times,serif" font-size="14.00" fill="white">AggregateHash</text>
<text text-anchor="middle" x="111.5" y="-916.8" font-family="Times,serif" font-size="14.00" fill="white">GroupBy {l_partkey}</text>
<text text-anchor="middle" x="111.5" y="-901.8" font-family="Times,serif" font-size="14.00" fill="white">AVG(l_quantity)</text>
<text text-anchor="middle" x="111.5" y="-870.8" font-family="Times,serif" font-size="14.00" fill="white">339 ms 421 µs</text>
</a>
</g>
</g>
<!-- 128056008256784&#45;&gt;128055752320016 -->
<g id="edge6" class="edge">
<title>128056008256784&#45;&gt;128055752320016</title>
<path fill="none" stroke="white" d="M159.25,-794.04C137.95,-800.17 115.34,-810.97 102.5,-830 97.97,-836.71 96.19,-844.57 96.09,-852.6"/>
<polygon fill="white" stroke="white" points="92.62,-853.06 96.78,-862.8 99.6,-852.59 92.62,-853.06"/>
<text text-anchor="middle" x="205" y="-833.8" font-family="Times,serif" font-size="14.00" fill="white">302,286 row(s)/256 chunk(s)</text>
</g>
<!-- 128123679324368 -->
<g id="node7" class="node">
<title>128123679324368</title>
<g id="a_node7"><a xlink:title="Output: 302286 rows in 256 chunks filtered: 0, 295 ms 204 µs.&#10;Operator step runtimes:&#10; LeftSideMaterialize 261 ms 615 µs&#10; RightSideMaterialize 3 ms 767 µs&#10; LeftSideTransform 0 ns&#10; RightSideTransform 0 ns&#10; LeftSidePartition 10 ms 220 µs&#10; RightSidePartition 2 ms 45 µs&#10; LeftSideSortBuckets 8 ms 865 µs&#10; RightSideSortBuckets 814 µs 490 ns&#10; GatherRowIds 1 µs 636 ns&#10; FindJoinPartner 1 ms 613 µs&#10; OutputWriting 967 µs 398 ns.&#10;Radix bits: 8.">
<polygon fill="none" stroke="white" stroke-width="7.66" points="354,-707 69,-707 69,-638 354,-638 354,-707"/>
<text text-anchor="middle" x="211.5" y="-691.8" font-family="Times,serif" font-size="14.00" fill="white">JoinSimdSortMerge (Semi Reduction)</text>
<text text-anchor="middle" x="211.5" y="-676.8" font-family="Times,serif" font-size="14.00" fill="white">l_partkey = p_partkey</text>
<text text-anchor="middle" x="211.5" y="-645.8" font-family="Times,serif" font-size="14.00" fill="white">295 ms 204 µs</text>
</a>
</g>
</g>
<!-- 128123679324368&#45;&gt;128056008256784 -->
<g id="edge7" class="edge">
<title>128123679324368&#45;&gt;128056008256784</title>
<path fill="none" stroke="white" d="M211.5,-707.25C211.5,-720.07 211.5,-734.73 211.5,-747.77"/>
<polygon fill="white" stroke="white" points="208,-747.81 211.5,-757.81 215,-747.81 208,-747.81"/>
<text text-anchor="middle" x="314" y="-728.8" font-family="Times,serif" font-size="14.00" fill="white">302,286 row(s)/256 chunk(s)</text>
</g>
<!-- 128123679040400 -->
<g id="node8" class="node">
<title>128123679040400</title>
<g id="a_node8"><a xlink:title="Output: 300005811 rows in 4578 chunks filtered: 0, 6 ms 658 µs.">
<polygon fill="none" stroke="white" points="131,-587 0,-587 0,-473 131,-473 131,-587"/>
<text text-anchor="middle" x="65.5" y="-571.8" font-family="Times,serif" font-size="14.00" fill="white">GetTable</text>
<text text-anchor="middle" x="65.5" y="-556.8" font-family="Times,serif" font-size="14.00" fill="white">(lineitem)</text>
<text text-anchor="middle" x="65.5" y="-541.8" font-family="Times,serif" font-size="14.00" fill="white">pruned:</text>
<text text-anchor="middle" x="65.5" y="-526.8" font-family="Times,serif" font-size="14.00" fill="white">0/4578 chunk(s)</text>
<text text-anchor="middle" x="65.5" y="-511.8" font-family="Times,serif" font-size="14.00" fill="white">13/16 column(s)</text>
<text text-anchor="middle" x="65.5" y="-480.8" font-family="Times,serif" font-size="14.00" fill="white">6 ms 658 µs</text>
</a>
</g>
</g>
<!-- 128123679040400&#45;&gt;128123679324368 -->
<g id="edge8" class="edge">
<title>128123679040400&#45;&gt;128123679324368</title>
<path fill="none" stroke="white" stroke-width="8" d="M56.19,-587.42C56.89,-599.03 59.76,-610.57 66.5,-620 69.4,-624.07 72.66,-627.81 76.2,-631.26"/>
<polygon fill="white" stroke="white" stroke-width="8" points="76.31,-631.36 71.7,-636.63 83.83,-637.94 76.31,-631.36"/>
<text text-anchor="middle" x="191.5" y="-608.8" font-family="Times,serif" font-size="14.00" fill="white">300,005,811 row(s)/4,578 chunk(s)</text>
</g>
<!-- 128056008255248 -->
<g id="node9" class="node">
<title>128056008255248</title>
<g id="a_node9"><a xlink:title="Output: 10048 rows in 153 chunks filtered: 0, 320 µs 360 ns.">
<polygon fill="none" stroke="white" points="502,-557 385,-557 385,-503 502,-503 502,-557"/>
<text text-anchor="middle" x="443.5" y="-541.8" font-family="Times,serif" font-size="14.00" fill="white">Validate</text>
<text text-anchor="middle" x="443.5" y="-510.8" font-family="Times,serif" font-size="14.00" fill="white">320 µs 360 ns</text>
</a>
</g>
</g>
<!-- 128056008255248&#45;&gt;128123679324688 -->
<g id="edge10" class="edge">
<title>128056008255248&#45;&gt;128123679324688</title>
<path fill="none" stroke="white" d="M491.57,-557.26C508.73,-569.35 526.11,-585.4 535.5,-605 565.33,-667.27 961.98,-283.77 526.5,-845 506.7,-870.52 476.3,-885.37 445.25,-893.9"/>
<polygon fill="white" stroke="white" points="435.17,-896.46 445.72,-897.4 444.86,-894 435.17,-896.46"/>
<text text-anchor="middle" x="710.5" y="-728.8" font-family="Times,serif" font-size="14.00" fill="white">10,048 row(s)/153 chunk(s)</text>
</g>
<!-- 128056008255248&#45;&gt;128123679324368 -->
<g id="edge9" class="edge">
<title>128056008255248&#45;&gt;128123679324368</title>
<path fill="none" stroke="white" d="M406.91,-557.08C372.77,-581.33 325.74,-614.54 316.5,-620 308.94,-624.46 300.94,-628.89 292.87,-633.16"/>
<polygon fill="white" stroke="white" points="283.74,-637.91 294.22,-636.4 292.61,-633.3 283.74,-637.91"/>
<text text-anchor="middle" x="436.5" y="-608.8" font-family="Times,serif" font-size="14.00" fill="white">10,048 row(s)/153 chunk(s)</text>
</g>
<!-- 128123679322448 -->
<g id="node10" class="node">
<title>128123679322448</title>
<g id="a_node10"><a xlink:title="Output: 10048 rows in 153 chunks filtered: 0, 572 µs 271 ns.&#10;Chunks: 0 skipped with no results, &#10;0 skipped with all matching, 0 scanned using binary search.">
<polygon fill="none" stroke="white" points="531.5,-422 355.5,-422 355.5,-338 531.5,-338 531.5,-422"/>
<text text-anchor="middle" x="443.5" y="-406.8" font-family="Times,serif" font-size="14.00" fill="white">TableScan</text>
<text text-anchor="middle" x="443.5" y="-391.8" font-family="Times,serif" font-size="14.00" fill="white">Impl: ColumnVsValue</text>
<text text-anchor="middle" x="443.5" y="-376.8" font-family="Times,serif" font-size="14.00" fill="white">p_brand = &#39;Brand#32&#39;</text>
<text text-anchor="middle" x="443.5" y="-345.8" font-family="Times,serif" font-size="14.00" fill="white">572 µs 271 ns</text>
</a>
</g>
</g>
<!-- 128123679322448&#45;&gt;128056008255248 -->
<g id="edge11" class="edge">
<title>128123679322448&#45;&gt;128056008255248</title>
<path fill="none" stroke="white" d="M443.5,-422.23C443.5,-444.32 443.5,-471.31 443.5,-492.62"/>
<polygon fill="white" stroke="white" points="440,-492.88 443.5,-502.88 447,-492.88 440,-492.88"/>
<text text-anchor="middle" x="541.5" y="-443.8" font-family="Times,serif" font-size="14.00" fill="white">10,048 row(s)/153 chunk(s)</text>
</g>
<!-- 128123679323728 -->
<g id="node11" class="node">
<title>128123679323728</title>
<g id="a_node11"><a xlink:title="Output: 250939 rows in 153 chunks filtered: 0, 892 µs 966 ns.&#10;Chunks: 0 skipped with no results, &#10;0 skipped with all matching, 0 scanned using binary search.">
<polygon fill="none" stroke="white" points="538,-287 349,-287 349,-203 538,-203 538,-287"/>
<text text-anchor="middle" x="443.5" y="-271.8" font-family="Times,serif" font-size="14.00" fill="white">TableScan</text>
<text text-anchor="middle" x="443.5" y="-256.8" font-family="Times,serif" font-size="14.00" fill="white">Impl: ColumnVsValue</text>
<text text-anchor="middle" x="443.5" y="-241.8" font-family="Times,serif" font-size="14.00" fill="white">p_container = &#39;SM CAN&#39;</text>
<text text-anchor="middle" x="443.5" y="-210.8" font-family="Times,serif" font-size="14.00" fill="white">892 µs 966 ns</text>
</a>
</g>
</g>
<!-- 128123679323728&#45;&gt;128123679322448 -->
<g id="edge12" class="edge">
<title>128123679323728&#45;&gt;128123679322448</title>
<path fill="none" stroke="white" d="M443.5,-287.35C443.5,-300.11 443.5,-314.32 443.5,-327.67"/>
<polygon fill="white" stroke="white" points="440,-327.67 443.5,-337.67 447,-327.67 440,-327.67"/>
<text text-anchor="middle" x="546" y="-308.8" font-family="Times,serif" font-size="14.00" fill="white">250,939 row(s)/153 chunk(s)</text>
</g>
<!-- 128123679039952 -->
<g id="node12" class="node">
<title>128123679039952</title>
<g id="a_node12"><a xlink:title="Output: 10000000 rows in 153 chunks filtered: 0, 303 µs 28 ns.">
<polygon fill="none" stroke="white" points="504.5,-133 382.5,-133 382.5,-19 504.5,-19 504.5,-133"/>
<text text-anchor="middle" x="443.5" y="-117.8" font-family="Times,serif" font-size="14.00" fill="white">GetTable</text>
<text text-anchor="middle" x="443.5" y="-102.8" font-family="Times,serif" font-size="14.00" fill="white">(part)</text>
<text text-anchor="middle" x="443.5" y="-87.8" font-family="Times,serif" font-size="14.00" fill="white">pruned:</text>
<text text-anchor="middle" x="443.5" y="-72.8" font-family="Times,serif" font-size="14.00" fill="white">0/153 chunk(s)</text>
<text text-anchor="middle" x="443.5" y="-57.8" font-family="Times,serif" font-size="14.00" fill="white">6/9 column(s)</text>
<text text-anchor="middle" x="443.5" y="-26.8" font-family="Times,serif" font-size="14.00" fill="white">303 µs 28 ns</text>
</a>
</g>
</g>
<!-- 128123679039952&#45;&gt;128123679323728 -->
<g id="edge13" class="edge">
<title>128123679039952&#45;&gt;128123679323728</title>
<path fill="none" stroke="white" d="M443.5,-133.07C443.5,-152.34 443.5,-173.8 443.5,-192.67"/>
<polygon fill="white" stroke="white" points="440,-192.86 443.5,-202.86 447,-192.86 440,-192.86"/>
<text text-anchor="middle" x="557.5" y="-173.8" font-family="Times,serif" font-size="14.00" fill="white">10,000,000 row(s)/153 chunk(s)</text>
</g>
<!-- 128123679325008 -->
<g id="node13" class="node">
<title>128123679325008</title>
<g id="a_node13"><a xlink:title="Output: 10048 rows in 1 chunk filtered: 0, 216 µs 480 ns.&#10;Operator step runtimes:&#10; ForwardUnmodifiedColumns 10 µs 381 ns&#10; EvaluateNewColumns 161 µs 405 ns&#10; BuildOutput 37 µs 738 ns.">
<polygon fill="none" stroke="white" points="181,-1052 64,-1052 64,-998 181,-998 181,-1052"/>
<text text-anchor="middle" x="122.5" y="-1036.8" font-family="Times,serif" font-size="14.00" fill="white">Projection</text>
<text text-anchor="middle" x="122.5" y="-1005.8" font-family="Times,serif" font-size="14.00" fill="white">216 µs 480 ns</text>
</a>
</g>
</g>
<!-- 128123679325008&#45;&gt;128123679325328 -->
<g id="edge14" class="edge">
<title>128123679325008&#45;&gt;128123679325328</title>
<path fill="none" stroke="white" d="M117.68,-1052.12C116.97,-1062.93 117.94,-1075.2 123.5,-1085 125.54,-1088.6 127.91,-1092.01 130.52,-1095.24"/>
<polygon fill="white" stroke="white" points="137.5,-1102.89 133.34,-1093.14 130.76,-1095.5 137.5,-1102.89"/>
<text text-anchor="middle" x="212.5" y="-1073.8" font-family="Times,serif" font-size="14.00" fill="white">10,048 row(s)/1 chunk(s)</text>
</g>
<!-- 128055752320016&#45;&gt;128123679325008 -->
<g id="edge15" class="edge">
<title>128055752320016&#45;&gt;128123679325008</title>
<path fill="none" stroke="white" d="M115.35,-947.27C116.57,-960.36 117.91,-974.72 119.09,-987.45"/>
<polygon fill="white" stroke="white" points="115.63,-988.06 120.05,-997.69 122.6,-987.41 115.63,-988.06"/>
<text text-anchor="middle" x="207.5" y="-968.8" font-family="Times,serif" font-size="14.00" fill="white">10,048 row(s)/1 chunk(s)</text>
</g>
<!-- 0 -->
<g id="node15" class="node">
<title>0</title>
<polygon fill="none" stroke="white" points="522.5,-0.5 522.5,-151.5 868.5,-151.5 868.5,-0.5 522.5,-0.5"/>
<text text-anchor="middle" x="695.5" y="-136.3" font-family="Times,serif" font-size="14.00" fill="white">Total by operator</text>
<polyline fill="none" stroke="white" points="522.5,-128.5 868.5,-128.5 "/>
<text text-anchor="end" x="676.5" y="-113.3" font-family="Times,serif" font-size="14.00" fill="white">JoinSimdSortMerge </text>
<text text-anchor="end" x="676.5" y="-98.3" font-family="Times,serif" font-size="14.00" fill="white"> AggregateHash </text>
<text text-anchor="end" x="676.5" y="-83.3" font-family="Times,serif" font-size="14.00" fill="white"> GetTable </text>
<text text-anchor="end" x="676.5" y="-68.3" font-family="Times,serif" font-size="14.00" fill="white"> Validate </text>
<text text-anchor="end" x="676.5" y="-53.3" font-family="Times,serif" font-size="14.00" fill="white"> TableScan </text>
<text text-anchor="end" x="676.5" y="-38.3" font-family="Times,serif" font-size="14.00" fill="white"> Projection </text>
<text text-anchor="end" x="676.5" y="-23.3" font-family="Times,serif" font-size="14.00" fill="white"> Alias </text>
<text text-anchor="end" x="676.5" y="-8.3" font-family="Times,serif" font-size="14.00" fill="white">total</text>
<polyline fill="none" stroke="white" points="684.5,-0.5 684.5,-128.5 "/>
<text text-anchor="start" x="692.5" y="-113.3" font-family="Times,serif" font-size="14.00" fill="white">394 ms 638 µs </text>
<text text-anchor="start" x="692.5" y="-98.3" font-family="Times,serif" font-size="14.00" fill="white"> 359 ms 922 µs </text>
<text text-anchor="start" x="692.5" y="-83.3" font-family="Times,serif" font-size="14.00" fill="white"> 6 ms 961 µs </text>
<text text-anchor="start" x="692.5" y="-68.3" font-family="Times,serif" font-size="14.00" fill="white"> 3 ms 554 µs </text>
<text text-anchor="start" x="692.5" y="-53.3" font-family="Times,serif" font-size="14.00" fill="white"> 1 ms 465 µs </text>
<text text-anchor="start" x="692.5" y="-38.3" font-family="Times,serif" font-size="14.00" fill="white"> 241 µs 38 ns </text>
<text text-anchor="start" x="692.5" y="-23.3" font-family="Times,serif" font-size="14.00" fill="white"> 1 µs 633 ns </text>
<text text-anchor="start" x="692.5" y="-8.3" font-family="Times,serif" font-size="14.00" fill="white"> 766 ms 782 µs </text>
<polyline fill="none" stroke="white" points="815.5,-0.5 815.5,-128.5 "/>
<text text-anchor="start" x="823.5" y="-113.3" font-family="Times,serif" font-size="14.00" fill="white">51 %</text>
<text text-anchor="start" x="823.5" y="-98.3" font-family="Times,serif" font-size="14.00" fill="white">47 %</text>
<text text-anchor="start" x="823.5" y="-83.3" font-family="Times,serif" font-size="14.00" fill="white">1 %</text>
<text text-anchor="start" x="823.5" y="-68.3" font-family="Times,serif" font-size="14.00" fill="white">0 %</text>
<text text-anchor="start" x="823.5" y="-53.3" font-family="Times,serif" font-size="14.00" fill="white">0 %</text>
<text text-anchor="start" x="823.5" y="-38.3" font-family="Times,serif" font-size="14.00" fill="white">0 %</text>
<text text-anchor="start" x="823.5" y="-23.3" font-family="Times,serif" font-size="14.00" fill="white">0 %</text>
<text text-anchor="start" x="823.5" y="-8.3" font-family="Times,serif" font-size="14.00" fill="white"> </text>
</g>
</g>
</svg>
