<?xml version="1.0" encoding="UTF-8" standalone="no"?>
<!DOCTYPE svg PUBLIC "-//W3C//DTD SVG 1.1//EN"
 "http://www.w3.org/Graphics/SVG/1.1/DTD/svg11.dtd">
<!-- Generated by graphviz version 2.43.0 (0)
 -->
<!-- Title: G Pages: 1 -->
<svg width="1003pt" height="1829pt"
 viewBox="0.00 0.00 1003.00 1829.00" xmlns="http://www.w3.org/2000/svg" xmlns:xlink="http://www.w3.org/1999/xlink">
<g id="graph0" class="graph" transform="scale(1 1) rotate(0) translate(4 1825)">
<title>G</title>
<polygon fill="black" stroke="transparent" points="-4,4 -4,-1825 999,-1825 999,4 -4,4"/>
<text text-anchor="middle" x="319.5" y="-1805.8" font-family="Times,serif" font-size="14.00" fill="white">For tooltips with advanced information, hover your mouse over vertices or edge labels.</text>
<!-- 128055247692176 -->
<g id="node1" class="node">
<title>128055247692176</title>
<g id="a_node1"><a xlink:title="Output: 45818 rows in 1 chunk filtered: 0, 2 µs 304 ns.">
<polygon fill="none" stroke="white" points="278.5,-1766 128.5,-1766 128.5,-1697 278.5,-1697 278.5,-1766"/>
<text text-anchor="middle" x="203.5" y="-1750.8" font-family="Times,serif" font-size="14.00" fill="white">Alias</text>
<text text-anchor="middle" x="203.5" y="-1735.8" font-family="Times,serif" font-size="14.00" fill="white">[ps_partkey, value]</text>
<text text-anchor="middle" x="203.5" y="-1704.8" font-family="Times,serif" font-size="14.00" fill="white">2 µs 304 ns</text>
</a>
</g>
</g>
<!-- 128055247691856 -->
<g id="node2" class="node">
<title>128055247691856</title>
<g id="a_node2"><a xlink:title="Output: 45818 rows in 1 chunk filtered: 0, 4 ms 932 µs.&#10;Operator step runtimes:&#10; MaterializeSortColumns 886 µs 381 ns&#10; Sort 3 ms 321 µs&#10; TemporaryResultWriting 94 µs 29 ns&#10; WriteOutput 622 µs 657 ns.">
<polygon fill="none" stroke="white" points="255.5,-1646 151.5,-1646 151.5,-1592 255.5,-1592 255.5,-1646"/>
<text text-anchor="middle" x="203.5" y="-1630.8" font-family="Times,serif" font-size="14.00" fill="white">Sort</text>
<text text-anchor="middle" x="203.5" y="-1599.8" font-family="Times,serif" font-size="14.00" fill="white">4 ms 932 µs</text>
</a>
</g>
</g>
<!-- 128055247691856&#45;&gt;128055247692176 -->
<g id="edge1" class="edge">
<title>128055247691856&#45;&gt;128055247692176</title>
<path fill="none" stroke="white" d="M203.5,-1646.19C203.5,-1658.29 203.5,-1673 203.5,-1686.72"/>
<polygon fill="white" stroke="white" points="200,-1686.95 203.5,-1696.95 207,-1686.96 200,-1686.95"/>
<text text-anchor="middle" x="292.5" y="-1667.8" font-family="Times,serif" font-size="14.00" fill="white">45,818 row(s)/1 chunk(s)</text>
</g>
<!-- 128055247691536 -->
<g id="node3" class="node">
<title>128055247691536</title>
<g id="a_node3"><a xlink:title="Output: 45818 rows in 24 chunks filtered: 0, 868 µs 164 ns.&#10;Chunks: 0 skipped with no results, &#10;0 skipped with all matching, 0 scanned using binary search.">
<polygon fill="none" stroke="white" points="407,-1541 0,-1541 0,-1442 407,-1442 407,-1541"/>
<text text-anchor="middle" x="203.5" y="-1525.8" font-family="Times,serif" font-size="14.00" fill="white">TableScan</text>
<text text-anchor="middle" x="203.5" y="-1510.8" font-family="Times,serif" font-size="14.00" fill="white">Impl: ColumnVsValue</text>
<text text-anchor="middle" x="203.5" y="-1495.8" font-family="Times,serif" font-size="14.00" fill="white">SUM(ps_supplycost * ps_availqty) &gt; SUBQUERY (PQP,</text>
<text text-anchor="middle" x="203.5" y="-1480.8" font-family="Times,serif" font-size="14.00" fill="white">0x74772f8cddd0)</text>
<text text-anchor="middle" x="203.5" y="-1449.8" font-family="Times,serif" font-size="14.00" fill="white">868 µs 164 ns</text>
</a>
</g>
</g>
<!-- 128055247691536&#45;&gt;128055247691856 -->
<g id="edge2" class="edge">
<title>128055247691536&#45;&gt;128055247691856</title>
<path fill="none" stroke="white" d="M203.5,-1541.02C203.5,-1554.49 203.5,-1568.89 203.5,-1581.54"/>
<polygon fill="white" stroke="white" points="200,-1581.7 203.5,-1591.7 207,-1581.7 200,-1581.7"/>
<text text-anchor="middle" x="297" y="-1562.8" font-family="Times,serif" font-size="14.00" fill="white">45,818 row(s)/24 chunk(s)</text>
</g>
<!-- 128123532232208 -->
<g id="node4" class="node">
<title>128123532232208</title>
<g id="a_node4"><a xlink:title="Output: 1510765 rows in 24 chunks filtered: 0, 414 ms 568 µs.&#10;Operator step runtimes:&#10; GroupByKeyPartitioning 216 ms 31 µs&#10; Aggregating 181 ms 493 µs&#10; GroupByColumnsWriting 1 ms 791 µs&#10; AggregateColumnsWriting 15 ms 84 µs&#10; OutputWriting 34 µs 311 ns.">
<polygon fill="none" stroke="white" stroke-width="8" points="327,-1319 68,-1319 68,-1235 327,-1235 327,-1319"/>
<text text-anchor="middle" x="197.5" y="-1303.8" font-family="Times,serif" font-size="14.00" fill="white">AggregateHash</text>
<text text-anchor="middle" x="197.5" y="-1288.8" font-family="Times,serif" font-size="14.00" fill="white">GroupBy {ps_partkey}</text>
<text text-anchor="middle" x="197.5" y="-1273.8" font-family="Times,serif" font-size="14.00" fill="white">SUM(ps_supplycost * ps_availqty)</text>
<text text-anchor="middle" x="197.5" y="-1242.8" font-family="Times,serif" font-size="14.00" fill="white">414 ms 568 µs</text>
</a>
</g>
</g>
<!-- 128123532232208&#45;&gt;128055247691536 -->
<g id="edge3" class="edge">
<title>128123532232208&#45;&gt;128055247691536</title>
<path fill="none" stroke="white" d="M196.71,-1319.26C196.62,-1325.21 196.55,-1331.26 196.5,-1337 196.3,-1361 195.66,-1367.01 196.5,-1391 196.97,-1404.24 197.78,-1418.45 198.69,-1431.87"/>
<polygon fill="white" stroke="white" points="195.2,-1432.22 199.4,-1441.95 202.19,-1431.73 195.2,-1432.22"/>
<text text-anchor="middle" x="301.5" y="-1360.3" font-family="Times,serif" font-size="14.00" fill="white">1,510,765 row(s)/24 chunk(s)</text>
</g>
<!-- 128055247689296 -->
<g id="node5" class="node">
<title>128055247689296</title>
<g id="a_node5"><a xlink:title="Output: 1604640 rows in 256 chunks filtered: 0, 73 ms 451 µs.&#10;Operator step runtimes:&#10; ForwardUnmodifiedColumns 1 ms 235 µs&#10; EvaluateNewColumns 71 ms 822 µs&#10; BuildOutput 344 µs 183 ns.">
<polygon fill="none" stroke="white" stroke-width="3.73" points="274,-1082 161,-1082 161,-1028 274,-1028 274,-1082"/>
<text text-anchor="middle" x="217.5" y="-1066.8" font-family="Times,serif" font-size="14.00" fill="white">Projection</text>
<text text-anchor="middle" x="217.5" y="-1035.8" font-family="Times,serif" font-size="14.00" fill="white">73 ms 451 µs</text>
</a>
</g>
</g>
<!-- 128055247689296&#45;&gt;128123532232208 -->
<g id="edge4" class="edge">
<title>128055247689296&#45;&gt;128123532232208</title>
<path fill="none" stroke="white" d="M215.13,-1082.1C211.94,-1117.16 206.21,-1180.21 202.15,-1224.88"/>
<polygon fill="white" stroke="white" points="198.65,-1224.69 201.23,-1234.97 205.62,-1225.32 198.65,-1224.69"/>
<text text-anchor="middle" x="323" y="-1103.8" font-family="Times,serif" font-size="14.00" fill="white">1,604,640 row(s)/256 chunk(s)</text>
</g>
<!-- 128123532338960 -->
<g id="node6" class="node">
<title>128123532338960</title>
<g id="a_node6"><a xlink:title="Output: 1604640 rows in 256 chunks filtered: 0, 2 ms 602 µs.">
<polygon fill="none" stroke="white" points="390.5,-977 286.5,-977 286.5,-923 390.5,-923 390.5,-977"/>
<text text-anchor="middle" x="338.5" y="-961.8" font-family="Times,serif" font-size="14.00" fill="white">Validate</text>
<text text-anchor="middle" x="338.5" y="-930.8" font-family="Times,serif" font-size="14.00" fill="white">2 ms 602 µs</text>
</a>
</g>
</g>
<!-- 128123532338960&#45;&gt;128055247689296 -->
<g id="edge5" class="edge">
<title>128123532338960&#45;&gt;128055247689296</title>
<path fill="none" stroke="white" d="M286.5,-957.28C262.46,-963.03 235.88,-974.01 220.5,-995 215.73,-1001.52 213.61,-1009.6 212.96,-1017.68"/>
<polygon fill="white" stroke="white" points="209.46,-1017.75 212.84,-1027.79 216.46,-1017.84 209.46,-1017.75"/>
<text text-anchor="middle" x="330" y="-998.8" font-family="Times,serif" font-size="14.00" fill="white">1,604,640 row(s)/256 chunk(s)</text>
</g>
<!-- 128055247690896 -->
<g id="node17" class="node">
<title>128055247690896</title>
<g id="a_node17"><a xlink:title="Output: 1604640 rows in 256 chunks filtered: 0, 73 ms 924 µs.&#10;Operator step runtimes:&#10; ForwardUnmodifiedColumns 131 µs 94 ns&#10; EvaluateNewColumns 73 ms 640 µs&#10; BuildOutput 68 µs 709 ns.">
<polygon fill="none" stroke="white" stroke-width="3.75" points="519,-1082 406,-1082 406,-1028 519,-1028 519,-1082"/>
<text text-anchor="middle" x="462.5" y="-1066.8" font-family="Times,serif" font-size="14.00" fill="white">Projection</text>
<text text-anchor="middle" x="462.5" y="-1035.8" font-family="Times,serif" font-size="14.00" fill="white">73 ms 924 µs</text>
</a>
</g>
</g>
<!-- 128123532338960&#45;&gt;128055247690896 -->
<g id="edge6" class="edge">
<title>128123532338960&#45;&gt;128055247690896</title>
<path fill="none" stroke="white" d="M390.54,-964.75C407.93,-971.48 426.24,-981.21 439.5,-995 445.69,-1001.44 450.27,-1009.73 453.63,-1018.05"/>
<polygon fill="white" stroke="white" points="450.42,-1019.46 457.05,-1027.72 457.02,-1017.13 450.42,-1019.46"/>
<text text-anchor="middle" x="559" y="-998.8" font-family="Times,serif" font-size="14.00" fill="white">1,604,640 row(s)/256 chunk(s)</text>
</g>
<!-- 128055247688976 -->
<g id="node7" class="node">
<title>128055247688976</title>
<g id="a_node7"><a xlink:title="Output: 1604640 rows in 256 chunks filtered: 0, 62 ms 112 µs.&#10;Operator step runtimes:&#10; LeftSideMaterialize 31 ms 882 µs&#10; RightSideMaterialize 784 µs 671 ns&#10; LeftSideTransform 0 ns&#10; RightSideTransform 0 ns&#10; LeftSidePartition 4 ms 919 µs&#10; RightSidePartition 2 ms 79 µs&#10; LeftSideSortBuckets 9 ms 55 µs&#10; RightSideSortBuckets 887 µs 351 ns&#10; GatherRowIds 2 µs 638 ns&#10; FindJoinPartner 9 ms 471 µs&#10; OutputWriting 1 ms 40 µs.&#10;Radix bits: 8.">
<polygon fill="none" stroke="white" stroke-width="3.32" points="443,-872 234,-872 234,-803 443,-803 443,-872"/>
<text text-anchor="middle" x="338.5" y="-856.8" font-family="Times,serif" font-size="14.00" fill="white">JoinSimdSortMerge (Semi)</text>
<text text-anchor="middle" x="338.5" y="-841.8" font-family="Times,serif" font-size="14.00" fill="white">ps_suppkey = s_suppkey</text>
<text text-anchor="middle" x="338.5" y="-810.8" font-family="Times,serif" font-size="14.00" fill="white">62 ms 112 µs</text>
</a>
</g>
</g>
<!-- 128055247688976&#45;&gt;128123532338960 -->
<g id="edge7" class="edge">
<title>128055247688976&#45;&gt;128123532338960</title>
<path fill="none" stroke="white" d="M338.5,-872.25C338.5,-885.07 338.5,-899.73 338.5,-912.77"/>
<polygon fill="white" stroke="white" points="335,-912.81 338.5,-922.81 342,-912.81 335,-912.81"/>
<text text-anchor="middle" x="448" y="-893.8" font-family="Times,serif" font-size="14.00" fill="white">1,604,640 row(s)/256 chunk(s)</text>
</g>
<!-- 128123532560976 -->
<g id="node8" class="node">
<title>128123532560976</title>
<g id="a_node8"><a xlink:title="Output: 40000000 rows in 611 chunks filtered: 0, 2 ms 227 µs.">
<polygon fill="none" stroke="white" points="274.5,-752 152.5,-752 152.5,-638 274.5,-638 274.5,-752"/>
<text text-anchor="middle" x="213.5" y="-736.8" font-family="Times,serif" font-size="14.00" fill="white">GetTable</text>
<text text-anchor="middle" x="213.5" y="-721.8" font-family="Times,serif" font-size="14.00" fill="white">(partsupp)</text>
<text text-anchor="middle" x="213.5" y="-706.8" font-family="Times,serif" font-size="14.00" fill="white">pruned:</text>
<text text-anchor="middle" x="213.5" y="-691.8" font-family="Times,serif" font-size="14.00" fill="white">0/611 chunk(s)</text>
<text text-anchor="middle" x="213.5" y="-676.8" font-family="Times,serif" font-size="14.00" fill="white">1/5 column(s)</text>
<text text-anchor="middle" x="213.5" y="-645.8" font-family="Times,serif" font-size="14.00" fill="white">2 ms 227 µs</text>
</a>
</g>
</g>
<!-- 128123532560976&#45;&gt;128055247688976 -->
<g id="edge8" class="edge">
<title>128123532560976&#45;&gt;128055247688976</title>
<path fill="none" stroke="white" stroke-width="8" d="M204.56,-752.16C205.24,-763.78 208.01,-775.4 214.5,-785 217.84,-789.95 221.76,-794.42 226.1,-798.47"/>
<polygon fill="white" stroke="white" stroke-width="8" points="226.11,-798.47 221.62,-803.85 233.78,-804.88 226.11,-798.47"/>
<text text-anchor="middle" x="328.5" y="-773.8" font-family="Times,serif" font-size="14.00" fill="white">40,000,000 row(s)/611 chunk(s)</text>
</g>
<!-- 128123532339728 -->
<g id="node9" class="node">
<title>128123532339728</title>
<g id="a_node9"><a xlink:title="Output: 20058 rows in 1 chunk filtered: 0, 626 µs 365 ns.">
<polygon fill="none" stroke="white" points="523,-722 406,-722 406,-668 523,-668 523,-722"/>
<text text-anchor="middle" x="464.5" y="-706.8" font-family="Times,serif" font-size="14.00" fill="white">Validate</text>
<text text-anchor="middle" x="464.5" y="-675.8" font-family="Times,serif" font-size="14.00" fill="white">626 µs 365 ns</text>
</a>
</g>
</g>
<!-- 128123532339728&#45;&gt;128055247688976 -->
<g id="edge9" class="edge">
<title>128123532339728&#45;&gt;128055247688976</title>
<path fill="none" stroke="white" d="M463.76,-722.34C461.95,-741.56 456.75,-767.25 442.5,-785 439.19,-789.12 435.48,-792.93 431.46,-796.46"/>
<polygon fill="white" stroke="white" points="423.42,-802.9 433.41,-799.38 431.22,-796.65 423.42,-802.9"/>
<text text-anchor="middle" x="541.5" y="-773.8" font-family="Times,serif" font-size="14.00" fill="white">20,058 row(s)/1 chunk(s)</text>
</g>
<!-- 128055247688016 -->
<g id="node10" class="node">
<title>128055247688016</title>
<g id="a_node10"><a xlink:title="Output: 20058 rows in 1 chunk filtered: 0, 3 ms 962 µs.&#10;Operator step runtimes:&#10; LeftSideMaterialize 969 µs 812 ns&#10; RightSideMaterialize 79 µs 745 ns&#10; LeftSideTransform 0 ns&#10; RightSideTransform 0 ns&#10; LeftSidePartition 604 µs 880 ns&#10; RightSidePartition 23 µs 658 ns&#10; LeftSideSortBuckets 895 µs 646 ns&#10; RightSideSortBuckets 839 µs 715 ns&#10; GatherRowIds 2 µs 270 ns&#10; FindJoinPartner 282 µs 975 ns&#10; OutputWriting 102 µs 337 ns.&#10;Radix bits: 8.">
<polygon fill="none" stroke="white" points="569,-587 360,-587 360,-518 569,-518 569,-587"/>
<text text-anchor="middle" x="464.5" y="-571.8" font-family="Times,serif" font-size="14.00" fill="white">JoinSimdSortMerge (Semi)</text>
<text text-anchor="middle" x="464.5" y="-556.8" font-family="Times,serif" font-size="14.00" fill="white">s_nationkey = n_nationkey</text>
<text text-anchor="middle" x="464.5" y="-525.8" font-family="Times,serif" font-size="14.00" fill="white">3 ms 962 µs</text>
</a>
</g>
</g>
<!-- 128055247688016&#45;&gt;128123532339728 -->
<g id="edge10" class="edge">
<title>128055247688016&#45;&gt;128123532339728</title>
<path fill="none" stroke="white" d="M464.5,-587.15C464.5,-608.36 464.5,-635.75 464.5,-657.48"/>
<polygon fill="white" stroke="white" points="461,-657.65 464.5,-667.65 468,-657.65 461,-657.65"/>
<text text-anchor="middle" x="553.5" y="-608.8" font-family="Times,serif" font-size="14.00" fill="white">20,058 row(s)/1 chunk(s)</text>
</g>
<!-- 128123532562768 -->
<g id="node11" class="node">
<title>128123532562768</title>
<g id="a_node11"><a xlink:title="Output: 500000 rows in 8 chunks filtered: 0, 56 µs 863 ns.">
<polygon fill="none" stroke="white" points="416,-467 303,-467 303,-353 416,-353 416,-467"/>
<text text-anchor="middle" x="359.5" y="-451.8" font-family="Times,serif" font-size="14.00" fill="white">GetTable</text>
<text text-anchor="middle" x="359.5" y="-436.8" font-family="Times,serif" font-size="14.00" fill="white">(supplier)</text>
<text text-anchor="middle" x="359.5" y="-421.8" font-family="Times,serif" font-size="14.00" fill="white">pruned:</text>
<text text-anchor="middle" x="359.5" y="-406.8" font-family="Times,serif" font-size="14.00" fill="white">0/8 chunk(s)</text>
<text text-anchor="middle" x="359.5" y="-391.8" font-family="Times,serif" font-size="14.00" fill="white">5/7 column(s)</text>
<text text-anchor="middle" x="359.5" y="-360.8" font-family="Times,serif" font-size="14.00" fill="white">56 µs 863 ns</text>
</a>
</g>
</g>
<!-- 128123532562768&#45;&gt;128055247688016 -->
<g id="edge11" class="edge">
<title>128123532562768&#45;&gt;128055247688016</title>
<path fill="none" stroke="white" d="M351.07,-467.31C351.76,-478.8 354.42,-490.32 360.5,-500 362.98,-503.94 365.86,-507.6 369.05,-510.98"/>
<polygon fill="white" stroke="white" points="369.19,-511.11 366.79,-513.66 376.48,-517.95 369.19,-511.11"/>
<text text-anchor="middle" x="454" y="-488.8" font-family="Times,serif" font-size="14.00" fill="white">500,000 row(s)/8 chunk(s)</text>
</g>
<!-- 128123532338704 -->
<g id="node12" class="node">
<title>128123532338704</title>
<g id="a_node12"><a xlink:title="Output: 1 row in 1 chunk filtered: 0, 10 µs 946 ns.">
<polygon fill="none" stroke="white" points="623.5,-437 515.5,-437 515.5,-383 623.5,-383 623.5,-437"/>
<text text-anchor="middle" x="569.5" y="-421.8" font-family="Times,serif" font-size="14.00" fill="white">Validate</text>
<text text-anchor="middle" x="569.5" y="-390.8" font-family="Times,serif" font-size="14.00" fill="white">10 µs 946 ns</text>
</a>
</g>
</g>
<!-- 128123532338704&#45;&gt;128055247688016 -->
<g id="edge12" class="edge">
<title>128123532338704&#45;&gt;128055247688016</title>
<path fill="none" stroke="white" d="M568.21,-437.36C566.11,-456.34 560.8,-481.72 547.5,-500 544.66,-503.91 541.42,-507.58 537.91,-511.03"/>
<polygon fill="white" stroke="white" points="530.36,-517.79 540.14,-513.73 537.81,-511.12 530.36,-517.79"/>
<text text-anchor="middle" x="625.5" y="-488.8" font-family="Times,serif" font-size="14.00" fill="white">1 row(s)/1 chunk(s)</text>
</g>
<!-- 128055247688336 -->
<g id="node13" class="node">
<title>128055247688336</title>
<g id="a_node13"><a xlink:title="Output: 1 row in 1 chunk filtered: 0, 24 µs 954 ns.&#10;Chunks: 0 skipped with no results, &#10;0 skipped with all matching, 0 scanned using binary search.">
<polygon fill="none" stroke="white" points="654,-302 485,-302 485,-218 654,-218 654,-302"/>
<text text-anchor="middle" x="569.5" y="-286.8" font-family="Times,serif" font-size="14.00" fill="white">TableScan</text>
<text text-anchor="middle" x="569.5" y="-271.8" font-family="Times,serif" font-size="14.00" fill="white">Impl: ColumnVsValue</text>
<text text-anchor="middle" x="569.5" y="-256.8" font-family="Times,serif" font-size="14.00" fill="white">n_name = &#39;EGYPT&#39;</text>
<text text-anchor="middle" x="569.5" y="-225.8" font-family="Times,serif" font-size="14.00" fill="white">24 µs 954 ns</text>
</a>
</g>
</g>
<!-- 128055247688336&#45;&gt;128123532338704 -->
<g id="edge13" class="edge">
<title>128055247688336&#45;&gt;128123532338704</title>
<path fill="none" stroke="white" d="M569.5,-302.23C569.5,-324.32 569.5,-351.31 569.5,-372.62"/>
<polygon fill="white" stroke="white" points="566,-372.88 569.5,-382.88 573,-372.88 566,-372.88"/>
<text text-anchor="middle" x="638.5" y="-323.8" font-family="Times,serif" font-size="14.00" fill="white">1 row(s)/1 chunk(s)</text>
</g>
<!-- 128123532563216 -->
<g id="node14" class="node">
<title>128123532563216</title>
<g id="a_node14"><a xlink:title="Output: 25 rows in 1 chunk filtered: 0, 16 µs 222 ns.">
<polygon fill="none" stroke="white" points="626,-140.5 513,-140.5 513,-26.5 626,-26.5 626,-140.5"/>
<text text-anchor="middle" x="569.5" y="-125.3" font-family="Times,serif" font-size="14.00" fill="white">GetTable</text>
<text text-anchor="middle" x="569.5" y="-110.3" font-family="Times,serif" font-size="14.00" fill="white">(nation)</text>
<text text-anchor="middle" x="569.5" y="-95.3" font-family="Times,serif" font-size="14.00" fill="white">pruned:</text>
<text text-anchor="middle" x="569.5" y="-80.3" font-family="Times,serif" font-size="14.00" fill="white">0/1 chunk(s)</text>
<text text-anchor="middle" x="569.5" y="-65.3" font-family="Times,serif" font-size="14.00" fill="white">2/4 column(s)</text>
<text text-anchor="middle" x="569.5" y="-34.3" font-family="Times,serif" font-size="14.00" fill="white">16 µs 222 ns</text>
</a>
</g>
</g>
<!-- 128123532563216&#45;&gt;128055247688336 -->
<g id="edge14" class="edge">
<title>128123532563216&#45;&gt;128055247688336</title>
<path fill="none" stroke="white" d="M569.5,-140.67C569.5,-162.25 569.5,-186.74 569.5,-207.83"/>
<polygon fill="white" stroke="white" points="566,-207.87 569.5,-217.87 573,-207.87 566,-207.87"/>
<text text-anchor="middle" x="643" y="-188.8" font-family="Times,serif" font-size="14.00" fill="white">25 row(s)/1 chunk(s)</text>
</g>
<!-- 128055247691216 -->
<g id="node15" class="node">
<title>128055247691216</title>
<g id="a_node15"><a xlink:title="Output: 1 row in 1 chunk filtered: 0, 24 µs 380 ns.&#10;Operator step runtimes:&#10; ForwardUnmodifiedColumns 1 µs 556 ns&#10; EvaluateNewColumns 9 µs 654 ns&#10; BuildOutput 11 µs 636 ns.">
<polygon fill="none" stroke="white" points="523.5,-1391 415.5,-1391 415.5,-1337 523.5,-1337 523.5,-1391"/>
<text text-anchor="middle" x="469.5" y="-1375.8" font-family="Times,serif" font-size="14.00" fill="white">Projection</text>
<text text-anchor="middle" x="469.5" y="-1344.8" font-family="Times,serif" font-size="14.00" fill="white">24 µs 380 ns</text>
</a>
</g>
</g>
<!-- 128055247691216&#45;&gt;128055247691536 -->
<g id="edge15" class="edge">
<title>128055247691216&#45;&gt;128055247691536</title>
<path fill="none" stroke="white" stroke-dasharray="5,2" d="M415.35,-1390.55C386.63,-1404.1 350.22,-1421.28 315.73,-1437.55"/>
<polygon fill="white" stroke="white" points="314.08,-1434.46 306.53,-1441.89 317.07,-1440.79 314.08,-1434.46"/>
<text text-anchor="middle" x="458" y="-1412.8" font-family="Times,serif" font-size="14.00" fill="white">uncorrelated subquery</text>
</g>
<!-- 128123532233232 -->
<g id="node16" class="node">
<title>128123532233232</title>
<g id="a_node16"><a xlink:title="Output: 1 row in 1 chunk filtered: 0, 2 ms 178 µs.&#10;Operator step runtimes:&#10; GroupByKeyPartitioning 28 ns&#10; Aggregating 2 ms 161 µs&#10; GroupByColumnsWriting 396 ns&#10; AggregateColumnsWriting 6 µs 721 ns&#10; OutputWriting 4 µs 465 ns.">
<polygon fill="none" stroke="white" points="596,-1217 337,-1217 337,-1133 596,-1133 596,-1217"/>
<text text-anchor="middle" x="466.5" y="-1201.8" font-family="Times,serif" font-size="14.00" fill="white">AggregateHash</text>
<text text-anchor="middle" x="466.5" y="-1186.8" font-family="Times,serif" font-size="14.00" fill="white">GroupBy {}</text>
<text text-anchor="middle" x="466.5" y="-1171.8" font-family="Times,serif" font-size="14.00" fill="white">SUM(ps_supplycost * ps_availqty)</text>
<text text-anchor="middle" x="466.5" y="-1140.8" font-family="Times,serif" font-size="14.00" fill="white">2 ms 178 µs</text>
</a>
</g>
</g>
<!-- 128123532233232&#45;&gt;128055247691216 -->
<g id="edge16" class="edge">
<title>128123532233232&#45;&gt;128055247691216</title>
<path fill="none" stroke="white" d="M467.16,-1217.04C467.68,-1249.78 468.41,-1295.22 468.92,-1326.66"/>
<polygon fill="white" stroke="white" points="465.42,-1326.81 469.08,-1336.75 472.42,-1326.7 465.42,-1326.81"/>
<text text-anchor="middle" x="538.5" y="-1273.3" font-family="Times,serif" font-size="14.00" fill="white">1 row(s)/1 chunk(s)</text>
</g>
<!-- 128055247690896&#45;&gt;128123532233232 -->
<g id="edge17" class="edge">
<title>128055247690896&#45;&gt;128123532233232</title>
<path fill="none" stroke="white" d="M463.39,-1082.19C463.79,-1094.1 464.28,-1108.63 464.76,-1122.58"/>
<polygon fill="white" stroke="white" points="461.26,-1122.71 465.1,-1132.59 468.26,-1122.48 461.26,-1122.71"/>
<text text-anchor="middle" x="574" y="-1103.8" font-family="Times,serif" font-size="14.00" fill="white">1,604,640 row(s)/256 chunk(s)</text>
</g>
<!-- 0 -->
<g id="node18" class="node">
<title>0</title>
<polygon fill="none" stroke="white" points="644,-0.5 644,-166.5 995,-166.5 995,-0.5 644,-0.5"/>
<text text-anchor="middle" x="819.5" y="-151.3" font-family="Times,serif" font-size="14.00" fill="white">Total by operator</text>
<polyline fill="none" stroke="white" points="644,-143.5 995,-143.5 "/>
<text text-anchor="end" x="803" y="-128.3" font-family="Times,serif" font-size="14.00" fill="white">AggregateHash </text>
<text text-anchor="end" x="803" y="-113.3" font-family="Times,serif" font-size="14.00" fill="white"> Projection </text>
<text text-anchor="end" x="803" y="-98.3" font-family="Times,serif" font-size="14.00" fill="white"> JoinSimdSortMerge </text>
<text text-anchor="end" x="803" y="-83.3" font-family="Times,serif" font-size="14.00" fill="white"> Sort </text>
<text text-anchor="end" x="803" y="-68.3" font-family="Times,serif" font-size="14.00" fill="white"> Validate </text>
<text text-anchor="end" x="803" y="-53.3" font-family="Times,serif" font-size="14.00" fill="white"> GetTable </text>
<text text-anchor="end" x="803" y="-38.3" font-family="Times,serif" font-size="14.00" fill="white"> TableScan </text>
<text text-anchor="end" x="803" y="-23.3" font-family="Times,serif" font-size="14.00" fill="white"> Alias </text>
<text text-anchor="end" x="803" y="-8.3" font-family="Times,serif" font-size="14.00" fill="white">total</text>
<polyline fill="none" stroke="white" points="811,-0.5 811,-143.5 "/>
<text text-anchor="start" x="819" y="-128.3" font-family="Times,serif" font-size="14.00" fill="white">416 ms 746 µs </text>
<text text-anchor="start" x="819" y="-113.3" font-family="Times,serif" font-size="14.00" fill="white"> 147 ms 399 µs </text>
<text text-anchor="start" x="819" y="-98.3" font-family="Times,serif" font-size="14.00" fill="white"> 66 ms 74 µs </text>
<text text-anchor="start" x="819" y="-83.3" font-family="Times,serif" font-size="14.00" fill="white"> 4 ms 932 µs </text>
<text text-anchor="start" x="819" y="-68.3" font-family="Times,serif" font-size="14.00" fill="white"> 3 ms 239 µs </text>
<text text-anchor="start" x="819" y="-53.3" font-family="Times,serif" font-size="14.00" fill="white"> 2 ms 301 µs </text>
<text text-anchor="start" x="819" y="-38.3" font-family="Times,serif" font-size="14.00" fill="white"> 893 µs 118 ns </text>
<text text-anchor="start" x="819" y="-23.3" font-family="Times,serif" font-size="14.00" fill="white"> 2 µs 304 ns </text>
<text text-anchor="start" x="819" y="-8.3" font-family="Times,serif" font-size="14.00" fill="white"> 641 ms 587 µs </text>
<polyline fill="none" stroke="white" points="942,-0.5 942,-143.5 "/>
<text text-anchor="start" x="950" y="-128.3" font-family="Times,serif" font-size="14.00" fill="white">65 %</text>
<text text-anchor="start" x="950" y="-113.3" font-family="Times,serif" font-size="14.00" fill="white">23 %</text>
<text text-anchor="start" x="950" y="-98.3" font-family="Times,serif" font-size="14.00" fill="white">10 %</text>
<text text-anchor="start" x="950" y="-83.3" font-family="Times,serif" font-size="14.00" fill="white">1 %</text>
<text text-anchor="start" x="950" y="-68.3" font-family="Times,serif" font-size="14.00" fill="white">1 %</text>
<text text-anchor="start" x="950" y="-53.3" font-family="Times,serif" font-size="14.00" fill="white">0 %</text>
<text text-anchor="start" x="950" y="-38.3" font-family="Times,serif" font-size="14.00" fill="white">0 %</text>
<text text-anchor="start" x="950" y="-23.3" font-family="Times,serif" font-size="14.00" fill="white">0 %</text>
<text text-anchor="start" x="950" y="-8.3" font-family="Times,serif" font-size="14.00" fill="white"> </text>
</g>
</g>
</svg>
