<?xml version="1.0" encoding="UTF-8" standalone="no"?>
<!DOCTYPE svg PUBLIC "-//W3C//DTD SVG 1.1//EN"
 "http://www.w3.org/Graphics/SVG/1.1/DTD/svg11.dtd">
<!-- Generated by graphviz version 2.43.0 (0)
 -->
<!-- Title: G Pages: 1 -->
<svg width="2356pt" height="1909pt"
 viewBox="0.00 0.00 2356.00 1909.00" xmlns="http://www.w3.org/2000/svg" xmlns:xlink="http://www.w3.org/1999/xlink">
<g id="graph0" class="graph" transform="scale(1 1) rotate(0) translate(4 1905)">
<title>G</title>
<polygon fill="black" stroke="transparent" points="-4,4 -4,-1905 2352,-1905 2352,4 -4,4"/>
<text text-anchor="middle" x="319.5" y="-1885.8" font-family="Times,serif" font-size="14.00" fill="white">For tooltips with advanced information, hover your mouse over vertices or edge labels.</text>
<!-- 127962022851664 -->
<g id="node1" class="node">
<title>127962022851664</title>
<polygon fill="none" stroke="white" points="1096,-1846 722,-1846 722,-1808 1096,-1808 1096,-1846"/>
<text text-anchor="middle" x="909" y="-1830.8" font-family="Times,serif" font-size="14.00" fill="white">[Alias] p_brand, p_type, p_size, COUNT(DISTINCT</text>
<text text-anchor="middle" x="909" y="-1815.8" font-family="Times,serif" font-size="14.00" fill="white">ps_suppkey) AS supplier_cnt</text>
</g>
<!-- 127962022851472 -->
<g id="node2" class="node">
<title>127962022851472</title>
<polygon fill="none" stroke="white" points="1103.5,-1757 714.5,-1757 714.5,-1704 1103.5,-1704 1103.5,-1757"/>
<text text-anchor="middle" x="909" y="-1741.8" font-family="Times,serif" font-size="14.00" fill="white">[Sort] COUNT(DISTINCT ps_suppkey) (Descending),</text>
<text text-anchor="middle" x="909" y="-1726.8" font-family="Times,serif" font-size="14.00" fill="white">p_brand (Ascending), p_type (Ascending), p_size</text>
<text text-anchor="middle" x="909" y="-1711.8" font-family="Times,serif" font-size="14.00" fill="white">(Ascending)</text>
</g>
<!-- 127962022851472&#45;&gt;127962022851664 -->
<g id="edge1" class="edge">
<title>127962022851472&#45;&gt;127962022851664</title>
<path fill="none" stroke="white" d="M909,-1757.32C909,-1769.87 909,-1784.99 909,-1797.83"/>
<polygon fill="white" stroke="white" points="905.5,-1797.99 909,-1807.99 912.5,-1797.99 905.5,-1797.99"/>
<g id="a_edge1&#45;label"><a xlink:title="Output Expressions: &#10; (1) p_brand&#10; (2) p_type&#10; (3) p_size&#10; (4) COUNT(DISTINCT ps_suppkey)&#10;&#10;Unique Column Combinations: &#10; (1) {p_brand, p_type, p_size}&#10;&#10;Functional Dependencies (trivial): &#10; (1) {p_brand, p_type, p_size} =&gt; {COUNT(DISTINCT ps_suppkey)}&#10;&#10;Functional Dependencies (non&#45;trivial): &#10; &lt;none&gt;">
<text text-anchor="middle" x="1021.5" y="-1778.8" font-family="Times,serif" font-size="14.00" fill="white"> 11,167.3 row(s) | 100.0% estd.</text>
</a>
</g>
</g>
<!-- 127962022851280 -->
<g id="node3" class="node">
<title>127962022851280</title>
<polygon fill="none" stroke="white" points="1086.5,-1653 731.5,-1653 731.5,-1615 1086.5,-1615 1086.5,-1653"/>
<text text-anchor="middle" x="909" y="-1637.8" font-family="Times,serif" font-size="14.00" fill="white">[Aggregate] GroupBy: [p_brand, p_type, p_size]</text>
<text text-anchor="middle" x="909" y="-1622.8" font-family="Times,serif" font-size="14.00" fill="white">Aggregates: [COUNT(DISTINCT ps_suppkey)]</text>
</g>
<!-- 127962022851280&#45;&gt;127962022851472 -->
<g id="edge2" class="edge">
<title>127962022851280&#45;&gt;127962022851472</title>
<path fill="none" stroke="white" d="M909,-1653.22C909,-1664.67 909,-1679.84 909,-1693.64"/>
<polygon fill="white" stroke="white" points="905.5,-1693.83 909,-1703.83 912.5,-1693.83 905.5,-1693.83"/>
<g id="a_edge2&#45;label"><a xlink:title="Output Expressions: &#10; (1) p_brand&#10; (2) p_type&#10; (3) p_size&#10; (4) COUNT(DISTINCT ps_suppkey)&#10;&#10;Unique Column Combinations: &#10; (1) {p_brand, p_type, p_size}&#10;&#10;Functional Dependencies (trivial): &#10; (1) {p_brand, p_type, p_size} =&gt; {COUNT(DISTINCT ps_suppkey)}&#10;&#10;Functional Dependencies (non&#45;trivial): &#10; &lt;none&gt;">
<text text-anchor="middle" x="1021.5" y="-1674.8" font-family="Times,serif" font-size="14.00" fill="white"> 11,167.3 row(s) | 100.0% estd.</text>
</a>
</g>
</g>
<!-- 127962022853008 -->
<g id="node4" class="node">
<title>127962022853008</title>
<polygon fill="none" stroke="white" points="1074,-1564 744,-1564 744,-1528 1074,-1528 1074,-1564"/>
<text text-anchor="middle" x="909" y="-1542.3" font-family="Times,serif" font-size="14.00" fill="white">[Join] Mode: Inner [p_partkey = ps_partkey]</text>
</g>
<!-- 127962022853008&#45;&gt;127962022851280 -->
<g id="edge3" class="edge">
<title>127962022853008&#45;&gt;127962022851280</title>
<path fill="none" stroke="white" d="M909,-1564.4C909,-1575.94 909,-1591.35 909,-1604.64"/>
<polygon fill="white" stroke="white" points="905.5,-1604.73 909,-1614.73 912.5,-1604.73 905.5,-1604.73"/>
<g id="a_edge3&#45;label"><a xlink:title="Output Expressions: &#10; (1) ps_partkey&#10; (2) ps_suppkey&#10; (3) p_partkey&#10; (4) p_brand&#10; (5) p_type&#10; (6) p_size&#10;&#10;Unique Column Combinations: &#10; &lt;none&gt;&#10;&#10;Functional Dependencies (trivial): &#10; &lt;none&gt;&#10;&#10;Functional Dependencies (non&#45;trivial): &#10; (1) {p_partkey} =&gt; {p_brand, p_type, p_size}&#10;">
<text text-anchor="middle" x="1012.5" y="-1585.8" font-family="Times,serif" font-size="14.00" fill="white"> 11,167.3 row(s) | 0.0% estd.</text>
</a>
</g>
</g>
<!-- 127962022847248 -->
<g id="node5" class="node">
<title>127962022847248</title>
<polygon fill="none" stroke="white" points="852,-1477 526,-1477 526,-1439 852,-1439 852,-1477"/>
<text text-anchor="middle" x="689" y="-1461.8" font-family="Times,serif" font-size="14.00" fill="white">[Join] Mode: AntiNullAsTrue [ps_suppkey =</text>
<text text-anchor="middle" x="689" y="-1446.8" font-family="Times,serif" font-size="14.00" fill="white">s_suppkey]</text>
</g>
<!-- 127962022847248&#45;&gt;127962022853008 -->
<g id="edge4" class="edge">
<title>127962022847248&#45;&gt;127962022853008</title>
<path fill="none" stroke="white" d="M721.06,-1477.07C740.58,-1487.6 766.26,-1500.6 790,-1510 803.75,-1515.44 818.68,-1520.48 833.17,-1524.94"/>
<polygon fill="white" stroke="white" points="833.54,-1525.05 832.53,-1528.4 843.12,-1527.94 833.54,-1525.05"/>
<g id="a_edge4&#45;label"><a xlink:title="Output Expressions: &#10; (1) ps_partkey&#10; (2) ps_suppkey&#10;&#10;Unique Column Combinations: &#10; (1) {ps_partkey, ps_suppkey}&#10;&#10;Functional Dependencies (trivial): &#10; &lt;none&gt;&#10;&#10;Functional Dependencies (non&#45;trivial): &#10; &lt;none&gt;">
<text text-anchor="middle" x="902.5" y="-1498.8" font-family="Times,serif" font-size="14.00" fill="white"> 11,167.3 row(s) | 100.0% estd.</text>
</a>
</g>
</g>
<!-- 128124068414256 -->
<g id="node6" class="node">
<title>128124068414256</title>
<polygon fill="none" stroke="white" points="483.5,-1388 398.5,-1388 398.5,-1352 483.5,-1352 483.5,-1388"/>
<text text-anchor="middle" x="441" y="-1366.3" font-family="Times,serif" font-size="14.00" fill="white">[Validate]</text>
</g>
<!-- 128124068414256&#45;&gt;127962022847248 -->
<g id="edge5" class="edge">
<title>128124068414256&#45;&gt;127962022847248</title>
<path fill="none" stroke="white" d="M440.92,-1388.27C441.84,-1399.23 444.94,-1412.83 454,-1421 464.96,-1430.9 488.16,-1438.07 515.9,-1443.28"/>
<polygon fill="white" stroke="white" points="516.03,-1443.3 515.43,-1446.75 525.88,-1445.03 516.03,-1443.3"/>
<g id="a_edge5&#45;label"><a xlink:title="Output Expressions: &#10; (1) ps_partkey&#10; (2) ps_suppkey&#10;&#10;Unique Column Combinations: &#10; (1) {ps_partkey, ps_suppkey}&#10;&#10;Functional Dependencies (trivial): &#10; &lt;none&gt;&#10;&#10;Functional Dependencies (non&#45;trivial): &#10; &lt;none&gt;">
<text text-anchor="middle" x="566.5" y="-1409.8" font-family="Times,serif" font-size="14.00" fill="white"> 11,167.3 row(s) | 100.0% estd.</text>
</a>
</g>
</g>
<!-- 127962022852048 -->
<g id="node7" class="node">
<title>127962022852048</title>
<polygon fill="none" stroke="white" points="605,-1301 277,-1301 277,-1263 605,-1263 605,-1301"/>
<text text-anchor="middle" x="441" y="-1285.8" font-family="Times,serif" font-size="14.00" fill="white">[Join] Mode: Semi [p_partkey = ps_partkey]</text>
<text text-anchor="middle" x="441" y="-1270.8" font-family="Times,serif" font-size="14.00" fill="white">(SemiJoinReductionRule)</text>
</g>
<!-- 127962022852048&#45;&gt;128124068414256 -->
<g id="edge6" class="edge">
<title>127962022852048&#45;&gt;128124068414256</title>
<path fill="none" stroke="white" d="M441,-1301.24C441,-1313.07 441,-1328.68 441,-1341.95"/>
<polygon fill="white" stroke="white" points="437.5,-1341.96 441,-1351.96 444.5,-1341.96 437.5,-1341.96"/>
<g id="a_edge6&#45;label"><a xlink:title="Output Expressions: &#10; (1) ps_partkey&#10; (2) ps_suppkey&#10;&#10;Unique Column Combinations: &#10; (1) {ps_partkey, ps_suppkey}&#10;&#10;Functional Dependencies (trivial): &#10; &lt;none&gt;&#10;&#10;Functional Dependencies (non&#45;trivial): &#10; &lt;none&gt;">
<text text-anchor="middle" x="544.5" y="-1322.8" font-family="Times,serif" font-size="14.00" fill="white"> 11,167.3 row(s) | 0.0% estd.</text>
</a>
</g>
</g>
<!-- 127960408211344 -->
<g id="node8" class="node">
<title>127960408211344</title>
<polygon fill="none" stroke="white" points="346,-1212 0,-1212 0,-1174 346,-1174 346,-1212"/>
<text text-anchor="middle" x="173" y="-1196.8" font-family="Times,serif" font-size="14.00" fill="white">[StoredTable] Name: &#39;partsupp&#39; pruned: 0/611</text>
<text text-anchor="middle" x="173" y="-1181.8" font-family="Times,serif" font-size="14.00" fill="white">chunk(s), 3/5 column(s)</text>
</g>
<!-- 127960408211344&#45;&gt;127962022852048 -->
<g id="edge7" class="edge">
<title>127960408211344&#45;&gt;127962022852048</title>
<path fill="none" stroke="white" stroke-width="8" d="M216.27,-1212.1C241.83,-1222.45 274.97,-1235.26 305,-1245 321.6,-1250.39 339.54,-1255.57 356.76,-1260.25"/>
<polygon fill="white" stroke="white" stroke-width="8" points="357.15,-1260.35 355.34,-1267.11 366.81,-1262.94 357.15,-1260.35"/>
<g id="a_edge7&#45;label"><a xlink:title="Output Expressions: &#10; (1) ps_partkey&#10; (2) ps_suppkey&#10;&#10;Unique Column Combinations: &#10; (1) {ps_partkey, ps_suppkey}&#10;&#10;Functional Dependencies (trivial): &#10; &lt;none&gt;&#10;&#10;Functional Dependencies (non&#45;trivial): &#10; &lt;none&gt;">
<text text-anchor="middle" x="433" y="-1233.8" font-family="Times,serif" font-size="14.00" fill="white"> 40,000,000.0 row(s) | 100.0% estd.</text>
</a>
</g>
</g>
<!-- 127962022851088 -->
<g id="node9" class="node">
<title>127962022851088</title>
<polygon fill="none" stroke="white" points="1103.5,-1211 924.5,-1211 924.5,-1175 1103.5,-1175 1103.5,-1211"/>
<text text-anchor="middle" x="1014" y="-1189.3" font-family="Times,serif" font-size="14.00" fill="white">[UnionNode] Mode: All</text>
</g>
<!-- 127962022851088&#45;&gt;127962022853008 -->
<g id="edge9" class="edge">
<title>127962022851088&#45;&gt;127962022853008</title>
<path fill="none" stroke="white" d="M1018.75,-1211.18C1023.14,-1228.62 1029,-1256.48 1029,-1281 1029,-1281 1029,-1281 1029,-1459 1029,-1482.51 1031.19,-1492.96 1015,-1510 1010.25,-1515 1004.76,-1519.29 998.85,-1522.97"/>
<polygon fill="white" stroke="white" points="989.9,-1527.93 1000.35,-1526.14 998.65,-1523.08 989.9,-1527.93"/>
<g id="a_edge9&#45;label"><a xlink:title="Output Expressions: &#10; (1) p_partkey&#10; (2) p_brand&#10; (3) p_type&#10; (4) p_size&#10;&#10;Unique Column Combinations: &#10; &lt;none&gt;&#10;&#10;Functional Dependencies (trivial): &#10; &lt;none&gt;&#10;&#10;Functional Dependencies (non&#45;trivial): &#10; (1) {p_partkey} =&gt; {p_brand, p_type, p_size}&#10;">
<text text-anchor="middle" x="1132.5" y="-1366.3" font-family="Times,serif" font-size="14.00" fill="white"> 23,154.6 row(s) | 0.1% estd.</text>
</a>
</g>
</g>
<!-- 127962022851088&#45;&gt;127962022852048 -->
<g id="edge8" class="edge">
<title>127962022851088&#45;&gt;127962022852048</title>
<path fill="none" stroke="white" d="M924.4,-1201.66C887.43,-1206.85 844.73,-1215.52 808,-1230 796.65,-1234.48 796.5,-1240.92 785,-1245 782.77,-1245.79 699.23,-1254.54 615.04,-1263.22"/>
<polygon fill="white" stroke="white" points="605.05,-1264.25 615.35,-1266.7 614.99,-1263.22 605.05,-1264.25"/>
<g id="a_edge8&#45;label"><a xlink:title="Output Expressions: &#10; (1) p_partkey&#10; (2) p_brand&#10; (3) p_type&#10; (4) p_size&#10;&#10;Unique Column Combinations: &#10; &lt;none&gt;&#10;&#10;Functional Dependencies (trivial): &#10; &lt;none&gt;&#10;&#10;Functional Dependencies (non&#45;trivial): &#10; (1) {p_partkey} =&gt; {p_brand, p_type, p_size}&#10;">
<text text-anchor="middle" x="911.5" y="-1233.8" font-family="Times,serif" font-size="14.00" fill="white"> 23,154.6 row(s) | 0.1% estd.</text>
</a>
</g>
</g>
<!-- 127962022850320 -->
<g id="node10" class="node">
<title>127962022850320</title>
<polygon fill="none" stroke="white" points="1136.5,-1122 815.5,-1122 815.5,-1086 1136.5,-1086 1136.5,-1122"/>
<text text-anchor="middle" x="976" y="-1100.3" font-family="Times,serif" font-size="14.00" fill="white">[Predicate] p_type &lt; &#39;STANDARD PLATED&#39;</text>
</g>
<!-- 127962022850320&#45;&gt;127962022851088 -->
<g id="edge10" class="edge">
<title>127962022850320&#45;&gt;127962022851088</title>
<path fill="none" stroke="white" d="M983.51,-1122.19C988.92,-1134.58 996.33,-1151.54 1002.48,-1165.63"/>
<polygon fill="white" stroke="white" points="1002.51,-1165.68 999.3,-1167.08 1006.51,-1174.85 1002.51,-1165.68"/>
<g id="a_edge10&#45;label"><a xlink:title="Output Expressions: &#10; (1) p_partkey&#10; (2) p_brand&#10; (3) p_type&#10; (4) p_size&#10;&#10;Unique Column Combinations: &#10; &lt;none&gt;&#10;&#10;Functional Dependencies (trivial): &#10; &lt;none&gt;&#10;&#10;Functional Dependencies (non&#45;trivial): &#10; (1) {p_partkey} =&gt; {p_brand, p_type, p_size}&#10;">
<text text-anchor="middle" x="1105" y="-1144.8" font-family="Times,serif" font-size="14.00" fill="white"> 22,356.9 row(s) | 11.7% estd.</text>
</a>
</g>
</g>
<!-- 128124068415056 -->
<g id="node11" class="node">
<title>128124068415056</title>
<polygon fill="none" stroke="white" points="1190.5,-1034 1105.5,-1034 1105.5,-998 1190.5,-998 1190.5,-1034"/>
<text text-anchor="middle" x="1148" y="-1012.3" font-family="Times,serif" font-size="14.00" fill="white">[Validate]</text>
</g>
<!-- 128124068415056&#45;&gt;127962022850320 -->
<g id="edge11" class="edge">
<title>128124068415056&#45;&gt;127962022850320</title>
<path fill="none" stroke="white" d="M1105.31,-1027.76C1085.71,-1033.56 1062.54,-1041.67 1043,-1052 1028.96,-1059.42 1014.77,-1069.73 1003.09,-1079.13"/>
<polygon fill="white" stroke="white" points="1000.54,-1076.7 995.06,-1085.77 1005,-1082.1 1000.54,-1076.7"/>
<g id="a_edge11&#45;label"><a xlink:title="Output Expressions: &#10; (1) p_partkey&#10; (2) p_brand&#10; (3) p_type&#10; (4) p_size&#10;&#10;Unique Column Combinations: &#10; &lt;none&gt;&#10;&#10;Functional Dependencies (trivial): &#10; &lt;none&gt;&#10;&#10;Functional Dependencies (non&#45;trivial): &#10; (1) {p_partkey} =&gt; {p_brand, p_type, p_size}&#10;">
<text text-anchor="middle" x="1160" y="-1055.8" font-family="Times,serif" font-size="14.00" fill="white"> 191,817.5 row(s) | 100.0% estd.</text>
</a>
</g>
</g>
<!-- 127962022850128 -->
<g id="node29" class="node">
<title>127962022850128</title>
<polygon fill="none" stroke="white" points="1487,-1122 1155,-1122 1155,-1086 1487,-1086 1487,-1122"/>
<text text-anchor="middle" x="1321" y="-1100.3" font-family="Times,serif" font-size="14.00" fill="white">[Predicate] p_type &gt;= &#39;STANDARD PLATEE&#39;</text>
</g>
<!-- 128124068415056&#45;&gt;127962022850128 -->
<g id="edge12" class="edge">
<title>128124068415056&#45;&gt;127962022850128</title>
<path fill="none" stroke="white" d="M1190.64,-1022.09C1217.08,-1026.75 1250.88,-1035.56 1277,-1052 1287.46,-1058.58 1296.78,-1068.42 1304.12,-1077.7"/>
<polygon fill="white" stroke="white" points="1301.49,-1080.04 1310.28,-1085.96 1307.1,-1075.85 1301.49,-1080.04"/>
<g id="a_edge12&#45;label"><a xlink:title="Output Expressions: &#10; (1) p_partkey&#10; (2) p_brand&#10; (3) p_type&#10; (4) p_size&#10;&#10;Unique Column Combinations: &#10; &lt;none&gt;&#10;&#10;Functional Dependencies (trivial): &#10; &lt;none&gt;&#10;&#10;Functional Dependencies (non&#45;trivial): &#10; (1) {p_partkey} =&gt; {p_brand, p_type, p_size}&#10;">
<text text-anchor="middle" x="1410" y="-1055.8" font-family="Times,serif" font-size="14.00" fill="white"> 191,817.5 row(s) | 100.0% estd.</text>
</a>
</g>
</g>
<!-- 127962022852240 -->
<g id="node12" class="node">
<title>127962022852240</title>
<polygon fill="none" stroke="white" points="1281,-947 1015,-947 1015,-911 1281,-911 1281,-947"/>
<text text-anchor="middle" x="1148" y="-925.3" font-family="Times,serif" font-size="14.00" fill="white">[Predicate] p_brand != &#39;Brand#15&#39;</text>
</g>
<!-- 127962022852240&#45;&gt;128124068415056 -->
<g id="edge13" class="edge">
<title>127962022852240&#45;&gt;128124068415056</title>
<path fill="none" stroke="white" d="M1148,-947.2C1148,-958.84 1148,-974.45 1148,-987.76"/>
<polygon fill="white" stroke="white" points="1144.5,-987.82 1148,-997.82 1151.5,-987.82 1144.5,-987.82"/>
<g id="a_edge13&#45;label"><a xlink:title="Output Expressions: &#10; (1) p_partkey&#10; (2) p_brand&#10; (3) p_type&#10; (4) p_size&#10;&#10;Unique Column Combinations: &#10; &lt;none&gt;&#10;&#10;Functional Dependencies (trivial): &#10; &lt;none&gt;&#10;&#10;Functional Dependencies (non&#45;trivial): &#10; (1) {p_partkey} =&gt; {p_brand, p_type, p_size}&#10;">
<text text-anchor="middle" x="1260.5" y="-968.8" font-family="Times,serif" font-size="14.00" fill="white"> 191,817.5 row(s) | 12.0% estd.</text>
</a>
</g>
</g>
<!-- 127962022854928 -->
<g id="node13" class="node">
<title>127962022854928</title>
<polygon fill="none" stroke="white" points="1237.5,-860 1058.5,-860 1058.5,-824 1237.5,-824 1237.5,-860"/>
<text text-anchor="middle" x="1148" y="-838.3" font-family="Times,serif" font-size="14.00" fill="white">[UnionNode] Mode: All</text>
</g>
<!-- 127962022854928&#45;&gt;127962022852240 -->
<g id="edge14" class="edge">
<title>127962022854928&#45;&gt;127962022852240</title>
<path fill="none" stroke="white" d="M1148,-860.2C1148,-871.84 1148,-887.45 1148,-900.76"/>
<polygon fill="white" stroke="white" points="1144.5,-900.82 1148,-910.82 1151.5,-900.82 1144.5,-900.82"/>
<g id="a_edge14&#45;label"><a xlink:title="Output Expressions: &#10; (1) p_partkey&#10; (2) p_brand&#10; (3) p_type&#10; (4) p_size&#10;&#10;Unique Column Combinations: &#10; &lt;none&gt;&#10;&#10;Functional Dependencies (trivial): &#10; &lt;none&gt;&#10;&#10;Functional Dependencies (non&#45;trivial): &#10; (1) {p_partkey} =&gt; {p_brand, p_type, p_size}&#10;">
<text text-anchor="middle" x="1262.5" y="-881.8" font-family="Times,serif" font-size="14.00" fill="white"> 1,600,259.0 row(s) | 0.0% estd.</text>
</a>
</g>
</g>
<!-- 127962022854736 -->
<g id="node14" class="node">
<title>127962022854736</title>
<polygon fill="none" stroke="white" points="1075.5,-773 896.5,-773 896.5,-737 1075.5,-737 1075.5,-773"/>
<text text-anchor="middle" x="986" y="-751.3" font-family="Times,serif" font-size="14.00" fill="white">[UnionNode] Mode: All</text>
</g>
<!-- 127962022854736&#45;&gt;127962022854928 -->
<g id="edge15" class="edge">
<title>127962022854736&#45;&gt;127962022854928</title>
<path fill="none" stroke="white" d="M1018.78,-773.2C1044.12,-786.49 1079.35,-804.98 1106.62,-819.29"/>
<polygon fill="white" stroke="white" points="1106.69,-819.32 1105.06,-822.42 1115.54,-823.97 1106.69,-819.32"/>
<g id="a_edge15&#45;label"><a xlink:title="Output Expressions: &#10; (1) p_partkey&#10; (2) p_brand&#10; (3) p_type&#10; (4) p_size&#10;&#10;Unique Column Combinations: &#10; &lt;none&gt;&#10;&#10;Functional Dependencies (trivial): &#10; &lt;none&gt;&#10;&#10;Functional Dependencies (non&#45;trivial): &#10; (1) {p_partkey} =&gt; {p_brand, p_type, p_size}&#10;">
<text text-anchor="middle" x="1190.5" y="-794.8" font-family="Times,serif" font-size="14.00" fill="white"> 1,400,392.0 row(s) | 0.0% estd.</text>
</a>
</g>
</g>
<!-- 127962022854544 -->
<g id="node15" class="node">
<title>127962022854544</title>
<polygon fill="none" stroke="white" points="1075.5,-665 896.5,-665 896.5,-629 1075.5,-629 1075.5,-665"/>
<text text-anchor="middle" x="986" y="-643.3" font-family="Times,serif" font-size="14.00" fill="white">[UnionNode] Mode: All</text>
</g>
<!-- 127962022854544&#45;&gt;127962022854736 -->
<g id="edge16" class="edge">
<title>127962022854544&#45;&gt;127962022854736</title>
<path fill="none" stroke="white" d="M986,-665.03C986,-681.62 986,-707.12 986,-726.57"/>
<polygon fill="white" stroke="white" points="986,-726.66 982.5,-726.66 986,-736.66 986,-726.66"/>
<g id="a_edge16&#45;label"><a xlink:title="Output Expressions: &#10; (1) p_partkey&#10; (2) p_brand&#10; (3) p_type&#10; (4) p_size&#10;&#10;Unique Column Combinations: &#10; &lt;none&gt;&#10;&#10;Functional Dependencies (trivial): &#10; &lt;none&gt;&#10;&#10;Functional Dependencies (non&#45;trivial): &#10; (1) {p_partkey} =&gt; {p_brand, p_type, p_size}&#10;">
<text text-anchor="middle" x="1100.5" y="-697.3" font-family="Times,serif" font-size="14.00" fill="white"> 1,200,146.0 row(s) | 0.0% estd.</text>
</a>
</g>
</g>
<!-- 127962022854352 -->
<g id="node16" class="node">
<title>127962022854352</title>
<polygon fill="none" stroke="white" points="1422.5,-557 1243.5,-557 1243.5,-521 1422.5,-521 1422.5,-557"/>
<text text-anchor="middle" x="1333" y="-535.3" font-family="Times,serif" font-size="14.00" fill="white">[UnionNode] Mode: All</text>
</g>
<!-- 127962022854352&#45;&gt;127962022854544 -->
<g id="edge17" class="edge">
<title>127962022854352&#45;&gt;127962022854544</title>
<path fill="none" stroke="white" d="M1277.25,-557.03C1215.75,-575.82 1116.87,-606.02 1051.67,-625.94"/>
<polygon fill="white" stroke="white" points="1051.46,-626 1050.44,-622.65 1041.9,-628.92 1051.46,-626"/>
<g id="a_edge17&#45;label"><a xlink:title="Output Expressions: &#10; (1) p_partkey&#10; (2) p_brand&#10; (3) p_type&#10; (4) p_size&#10;&#10;Unique Column Combinations: &#10; &lt;none&gt;&#10;&#10;Functional Dependencies (trivial): &#10; &lt;none&gt;&#10;&#10;Functional Dependencies (non&#45;trivial): &#10; (1) {p_partkey} =&gt; {p_brand, p_type, p_size}&#10;">
<text text-anchor="middle" x="1318" y="-589.3" font-family="Times,serif" font-size="14.00" fill="white"> 999,883.0 row(s) | 0.0% estd.</text>
</a>
</g>
</g>
<!-- 127962022854160 -->
<g id="node17" class="node">
<title>127962022854160</title>
<polygon fill="none" stroke="white" points="1422.5,-449 1243.5,-449 1243.5,-413 1422.5,-413 1422.5,-449"/>
<text text-anchor="middle" x="1333" y="-427.3" font-family="Times,serif" font-size="14.00" fill="white">[UnionNode] Mode: All</text>
</g>
<!-- 127962022854160&#45;&gt;127962022854352 -->
<g id="edge18" class="edge">
<title>127962022854160&#45;&gt;127962022854352</title>
<path fill="none" stroke="white" d="M1333,-449.03C1333,-465.62 1333,-491.12 1333,-510.57"/>
<polygon fill="white" stroke="white" points="1333,-510.66 1329.5,-510.66 1333,-520.66 1333,-510.66"/>
<g id="a_edge18&#45;label"><a xlink:title="Output Expressions: &#10; (1) p_partkey&#10; (2) p_brand&#10; (3) p_type&#10; (4) p_size&#10;&#10;Unique Column Combinations: &#10; &lt;none&gt;&#10;&#10;Functional Dependencies (trivial): &#10; &lt;none&gt;&#10;&#10;Functional Dependencies (non&#45;trivial): &#10; (1) {p_partkey} =&gt; {p_brand, p_type, p_size}&#10;">
<text text-anchor="middle" x="1441" y="-481.3" font-family="Times,serif" font-size="14.00" fill="white"> 799,493.0 row(s) | 0.0% estd.</text>
</a>
</g>
</g>
<!-- 127962022853968 -->
<g id="node18" class="node">
<title>127962022853968</title>
<polygon fill="none" stroke="white" points="1382.5,-341 1203.5,-341 1203.5,-305 1382.5,-305 1382.5,-341"/>
<text text-anchor="middle" x="1293" y="-319.3" font-family="Times,serif" font-size="14.00" fill="white">[UnionNode] Mode: All</text>
</g>
<!-- 127962022853968&#45;&gt;127962022854160 -->
<g id="edge19" class="edge">
<title>127962022853968&#45;&gt;127962022854160</title>
<path fill="none" stroke="white" d="M1292.39,-341.12C1292.49,-355.99 1294.2,-377.8 1302,-395 1303.57,-398.46 1305.59,-401.82 1307.86,-405"/>
<polygon fill="white" stroke="white" points="1308.01,-405.18 1305.28,-407.38 1314.28,-412.97 1308.01,-405.18"/>
<g id="a_edge19&#45;label"><a xlink:title="Output Expressions: &#10; (1) p_partkey&#10; (2) p_brand&#10; (3) p_type&#10; (4) p_size&#10;&#10;Unique Column Combinations: &#10; &lt;none&gt;&#10;&#10;Functional Dependencies (trivial): &#10; &lt;none&gt;&#10;&#10;Functional Dependencies (non&#45;trivial): &#10; (1) {p_partkey} =&gt; {p_brand, p_type, p_size}&#10;">
<text text-anchor="middle" x="1410" y="-373.3" font-family="Times,serif" font-size="14.00" fill="white"> 599,343.0 row(s) | 0.0% estd.</text>
</a>
</g>
</g>
<!-- 127962022853776 -->
<g id="node19" class="node">
<title>127962022853776</title>
<polygon fill="none" stroke="white" points="1134.5,-233 955.5,-233 955.5,-197 1134.5,-197 1134.5,-233"/>
<text text-anchor="middle" x="1045" y="-211.3" font-family="Times,serif" font-size="14.00" fill="white">[UnionNode] Mode: All</text>
</g>
<!-- 127962022853776&#45;&gt;127962022853968 -->
<g id="edge20" class="edge">
<title>127962022853776&#45;&gt;127962022853968</title>
<path fill="none" stroke="white" d="M1044.34,-233C1044.71,-249.32 1048.02,-273.42 1063,-287 1082.25,-304.46 1140.28,-313.21 1193.23,-317.6"/>
<polygon fill="white" stroke="white" points="1193.42,-317.61 1193.15,-321.1 1203.39,-318.39 1193.42,-317.61"/>
<g id="a_edge20&#45;label"><a xlink:title="Output Expressions: &#10; (1) p_partkey&#10; (2) p_brand&#10; (3) p_type&#10; (4) p_size&#10;&#10;Unique Column Combinations: &#10; &lt;none&gt;&#10;&#10;Functional Dependencies (trivial): &#10; &lt;none&gt;&#10;&#10;Functional Dependencies (non&#45;trivial): &#10; (1) {p_partkey} =&gt; {p_brand, p_type, p_size}&#10;">
<text text-anchor="middle" x="1171" y="-265.3" font-family="Times,serif" font-size="14.00" fill="white"> 399,457.0 row(s) | 0.0% estd.</text>
</a>
</g>
</g>
<!-- 127962022852432 -->
<g id="node20" class="node">
<title>127962022852432</title>
<polygon fill="none" stroke="white" points="891,-125 709,-125 709,-89 891,-89 891,-125"/>
<text text-anchor="middle" x="800" y="-103.3" font-family="Times,serif" font-size="14.00" fill="white">[Predicate] p_size = 33</text>
</g>
<!-- 127962022852432&#45;&gt;127962022853776 -->
<g id="edge21" class="edge">
<title>127962022852432&#45;&gt;127962022853776</title>
<path fill="none" stroke="white" d="M793.93,-125.13C789.48,-141.07 786.2,-164.48 799,-179 820.03,-202.86 909.52,-192.43 941,-197 942.47,-197.21 943.95,-197.43 945.45,-197.65"/>
<polygon fill="white" stroke="white" points="945.51,-197.66 944.99,-201.12 955.4,-199.14 945.51,-197.66"/>
<g id="a_edge21&#45;label"><a xlink:title="Output Expressions: &#10; (1) p_partkey&#10; (2) p_brand&#10; (3) p_type&#10; (4) p_size&#10;&#10;Unique Column Combinations: &#10; (1) {p_partkey}&#10;&#10;Functional Dependencies (trivial): &#10; (1) {p_partkey} =&gt; {p_brand, p_type, p_size}&#10;&#10;Functional Dependencies (non&#45;trivial): &#10; &lt;none&gt;">
<text text-anchor="middle" x="907" y="-157.3" font-family="Times,serif" font-size="14.00" fill="white"> 199,834.0 row(s) | 2.0% estd.</text>
</a>
</g>
</g>
<!-- 127960408211664 -->
<g id="node21" class="node">
<title>127960408211664</title>
<polygon fill="none" stroke="white" points="1322.5,-38 941.5,-38 941.5,0 1322.5,0 1322.5,-38"/>
<text text-anchor="middle" x="1132" y="-22.8" font-family="Times,serif" font-size="14.00" fill="white">[StoredTable] Name: &#39;part&#39; pruned: 0/153 chunk(s),</text>
<text text-anchor="middle" x="1132" y="-7.8" font-family="Times,serif" font-size="14.00" fill="white">5/9 column(s)</text>
</g>
<!-- 127960408211664&#45;&gt;127962022852432 -->
<g id="edge22" class="edge">
<title>127960408211664&#45;&gt;127962022852432</title>
<path fill="none" stroke="white" stroke-width="4.58" d="M941.5,-25.63C845.04,-30.51 745.09,-39.5 730,-56 720.41,-66.49 727.62,-76.09 740.47,-84.01"/>
<polygon fill="white" stroke="white" stroke-width="4.58" points="738.9,-87.72 749.6,-88.97 742.72,-80.67 738.9,-87.72"/>
<g id="a_edge22&#45;label"><a xlink:title="Output Expressions: &#10; (1) p_partkey&#10; (2) p_brand&#10; (3) p_type&#10; (4) p_size&#10;&#10;Unique Column Combinations: &#10; (1) {p_partkey}&#10;&#10;Functional Dependencies (trivial): &#10; (1) {p_partkey} =&gt; {p_brand, p_type, p_size}&#10;&#10;Functional Dependencies (non&#45;trivial): &#10; &lt;none&gt;">
<text text-anchor="middle" x="858" y="-59.8" font-family="Times,serif" font-size="14.00" fill="white"> 10,000,000.0 row(s) | 100.0% estd.</text>
</a>
</g>
</g>
<!-- 127962022850896 -->
<g id="node22" class="node">
<title>127962022850896</title>
<polygon fill="none" stroke="white" points="1110,-125 928,-125 928,-89 1110,-89 1110,-125"/>
<text text-anchor="middle" x="1019" y="-103.3" font-family="Times,serif" font-size="14.00" fill="white">[Predicate] p_size = 17</text>
</g>
<!-- 127960408211664&#45;&gt;127962022850896 -->
<g id="edge23" class="edge">
<title>127960408211664&#45;&gt;127962022850896</title>
<path fill="none" stroke="white" stroke-width="4.58" d="M1029.39,-38.03C1012.93,-42.93 999.49,-48.9 994,-56 988.28,-63.41 990.42,-72.34 995.31,-80.58"/>
<polygon fill="white" stroke="white" stroke-width="4.58" points="992.12,-83.02 1001.19,-88.84 998.65,-78.37 992.12,-83.02"/>
<g id="a_edge23&#45;label"><a xlink:title="Output Expressions: &#10; (1) p_partkey&#10; (2) p_brand&#10; (3) p_type&#10; (4) p_size&#10;&#10;Unique Column Combinations: &#10; (1) {p_partkey}&#10;&#10;Functional Dependencies (trivial): &#10; (1) {p_partkey} =&gt; {p_brand, p_type, p_size}&#10;&#10;Functional Dependencies (non&#45;trivial): &#10; &lt;none&gt;">
<text text-anchor="middle" x="1122" y="-59.8" font-family="Times,serif" font-size="14.00" fill="white"> 10,000,000.0 row(s) | 100.0% estd.</text>
</a>
</g>
</g>
<!-- 127962022850512 -->
<g id="node23" class="node">
<title>127962022850512</title>
<polygon fill="none" stroke="white" points="1432,-179 1250,-179 1250,-143 1432,-143 1432,-179"/>
<text text-anchor="middle" x="1341" y="-157.3" font-family="Times,serif" font-size="14.00" fill="white">[Predicate] p_size = 37</text>
</g>
<!-- 127960408211664&#45;&gt;127962022850512 -->
<g id="edge24" class="edge">
<title>127960408211664&#45;&gt;127962022850512</title>
<path fill="none" stroke="white" stroke-width="4.58" d="M1212.76,-38.04C1225.77,-42.77 1238.67,-48.67 1250,-56 1281.62,-76.45 1308.67,-110.91 1324.87,-134.52"/>
<polygon fill="white" stroke="white" stroke-width="4.58" points="1321.65,-136.91 1330.54,-142.99 1328.31,-132.45 1321.65,-136.91"/>
<g id="a_edge24&#45;label"><a xlink:title="Output Expressions: &#10; (1) p_partkey&#10; (2) p_brand&#10; (3) p_type&#10; (4) p_size&#10;&#10;Unique Column Combinations: &#10; (1) {p_partkey}&#10;&#10;Functional Dependencies (trivial): &#10; (1) {p_partkey} =&gt; {p_brand, p_type, p_size}&#10;&#10;Functional Dependencies (non&#45;trivial): &#10; &lt;none&gt;">
<text text-anchor="middle" x="1397" y="-59.8" font-family="Times,serif" font-size="14.00" fill="white"> 10,000,000.0 row(s) | 100.0% estd.</text>
</a>
</g>
</g>
<!-- 127962022851856 -->
<g id="node24" class="node">
<title>127962022851856</title>
<polygon fill="none" stroke="white" points="1626,-287 1444,-287 1444,-251 1626,-251 1626,-287"/>
<text text-anchor="middle" x="1535" y="-265.3" font-family="Times,serif" font-size="14.00" fill="white">[Predicate] p_size = 10</text>
</g>
<!-- 127960408211664&#45;&gt;127962022851856 -->
<g id="edge25" class="edge">
<title>127960408211664&#45;&gt;127962022851856</title>
<path fill="none" stroke="white" stroke-width="4.58" d="M1322.76,-26.09C1417.09,-31.09 1514.03,-40.07 1529,-56 1553.36,-81.93 1544.36,-189.52 1538.49,-240.71"/>
<polygon fill="white" stroke="white" stroke-width="4.58" points="1534.5,-240.32 1537.29,-250.72 1542.46,-241.27 1534.5,-240.32"/>
<g id="a_edge25&#45;label"><a xlink:title="Output Expressions: &#10; (1) p_partkey&#10; (2) p_brand&#10; (3) p_type&#10; (4) p_size&#10;&#10;Unique Column Combinations: &#10; (1) {p_partkey}&#10;&#10;Functional Dependencies (trivial): &#10; (1) {p_partkey} =&gt; {p_brand, p_type, p_size}&#10;&#10;Functional Dependencies (non&#45;trivial): &#10; &lt;none&gt;">
<text text-anchor="middle" x="1672" y="-103.3" font-family="Times,serif" font-size="14.00" fill="white"> 10,000,000.0 row(s) | 100.0% estd.</text>
</a>
</g>
</g>
<!-- 127962022852624 -->
<g id="node25" class="node">
<title>127962022852624</title>
<polygon fill="none" stroke="white" points="1840,-395 1658,-395 1658,-359 1840,-359 1840,-395"/>
<text text-anchor="middle" x="1749" y="-373.3" font-family="Times,serif" font-size="14.00" fill="white">[Predicate] p_size = 46</text>
</g>
<!-- 127960408211664&#45;&gt;127962022852624 -->
<g id="edge26" class="edge">
<title>127960408211664&#45;&gt;127962022852624</title>
<path fill="none" stroke="white" stroke-width="4.58" d="M1322.55,-25.65C1526.48,-34.31 1821,-55.56 1821,-106 1821,-106 1821,-106 1821,-270 1821,-302.35 1797.77,-332.15 1777.7,-351.86"/>
<polygon fill="white" stroke="white" stroke-width="4.58" points="1774.75,-349.13 1770.21,-358.91 1780.24,-354.97 1774.75,-349.13"/>
<g id="a_edge26&#45;label"><a xlink:title="Output Expressions: &#10; (1) p_partkey&#10; (2) p_brand&#10; (3) p_type&#10; (4) p_size&#10;&#10;Unique Column Combinations: &#10; (1) {p_partkey}&#10;&#10;Functional Dependencies (trivial): &#10; (1) {p_partkey} =&gt; {p_brand, p_type, p_size}&#10;&#10;Functional Dependencies (non&#45;trivial): &#10; &lt;none&gt;">
<text text-anchor="middle" x="1949" y="-157.3" font-family="Times,serif" font-size="14.00" fill="white"> 10,000,000.0 row(s) | 100.0% estd.</text>
</a>
</g>
</g>
<!-- 127962022853200 -->
<g id="node26" class="node">
<title>127962022853200</title>
<polygon fill="none" stroke="white" points="916,-503 734,-503 734,-467 916,-467 916,-503"/>
<text text-anchor="middle" x="825" y="-481.3" font-family="Times,serif" font-size="14.00" fill="white">[Predicate] p_size = 16</text>
</g>
<!-- 127960408211664&#45;&gt;127962022853200 -->
<g id="edge27" class="edge">
<title>127960408211664&#45;&gt;127962022853200</title>
<path fill="none" stroke="white" stroke-width="4.58" d="M941.26,-22.42C852.91,-26.4 759.16,-35.56 721,-56 695.91,-69.44 681,-77.54 681,-106 681,-106 681,-106 681,-378 681,-419.5 720.26,-446.56 757.78,-462.95"/>
<polygon fill="white" stroke="white" stroke-width="4.58" points="756.49,-466.75 767.26,-466.88 759.56,-459.34 756.49,-466.75"/>
<g id="a_edge27&#45;label"><a xlink:title="Output Expressions: &#10; (1) p_partkey&#10; (2) p_brand&#10; (3) p_type&#10; (4) p_size&#10;&#10;Unique Column Combinations: &#10; (1) {p_partkey}&#10;&#10;Functional Dependencies (trivial): &#10; (1) {p_partkey} =&gt; {p_brand, p_type, p_size}&#10;&#10;Functional Dependencies (non&#45;trivial): &#10; &lt;none&gt;">
<text text-anchor="middle" x="809" y="-211.3" font-family="Times,serif" font-size="14.00" fill="white"> 10,000,000.0 row(s) | 100.0% estd.</text>
</a>
</g>
</g>
<!-- 127962022853584 -->
<g id="node27" class="node">
<title>127962022853584</title>
<polygon fill="none" stroke="white" points="554.5,-611 381.5,-611 381.5,-575 554.5,-575 554.5,-611"/>
<text text-anchor="middle" x="468" y="-589.3" font-family="Times,serif" font-size="14.00" fill="white">[Predicate] p_size = 8</text>
</g>
<!-- 127960408211664&#45;&gt;127962022853584 -->
<g id="edge28" class="edge">
<title>127960408211664&#45;&gt;127962022853584</title>
<path fill="none" stroke="white" stroke-width="4.58" d="M941.36,-24.47C727.45,-32.09 410,-52.43 410,-106 410,-106 410,-106 410,-486 410,-516.61 428.84,-546.76 445.04,-567.03"/>
<polygon fill="white" stroke="white" stroke-width="4.58" points="442.05,-569.7 451.53,-574.82 448.21,-564.57 442.05,-569.7"/>
<g id="a_edge28&#45;label"><a xlink:title="Output Expressions: &#10; (1) p_partkey&#10; (2) p_brand&#10; (3) p_type&#10; (4) p_size&#10;&#10;Unique Column Combinations: &#10; (1) {p_partkey}&#10;&#10;Functional Dependencies (trivial): &#10; (1) {p_partkey} =&gt; {p_brand, p_type, p_size}&#10;&#10;Functional Dependencies (non&#45;trivial): &#10; &lt;none&gt;">
<text text-anchor="middle" x="538" y="-265.3" font-family="Times,serif" font-size="14.00" fill="white"> 10,000,000.0 row(s) | 100.0% estd.</text>
</a>
</g>
</g>
<!-- 127962022853392 -->
<g id="node28" class="node">
<title>127962022853392</title>
<polygon fill="none" stroke="white" points="1810,-719 1628,-719 1628,-683 1810,-683 1810,-719"/>
<text text-anchor="middle" x="1719" y="-697.3" font-family="Times,serif" font-size="14.00" fill="white">[Predicate] p_size = 27</text>
</g>
<!-- 127960408211664&#45;&gt;127962022853392 -->
<g id="edge29" class="edge">
<title>127960408211664&#45;&gt;127962022853392</title>
<path fill="none" stroke="white" stroke-width="4.58" d="M1322.53,-27.69C1602.44,-40.28 2092,-67.76 2092,-106 2092,-106 2092,-106 2092,-594 2092,-650.63 1930.89,-678.61 1820.44,-691.14"/>
<polygon fill="white" stroke="white" stroke-width="4.58" points="1819.74,-687.18 1810.25,-692.27 1820.63,-695.15 1819.74,-687.18"/>
<g id="a_edge29&#45;label"><a xlink:title="Output Expressions: &#10; (1) p_partkey&#10; (2) p_brand&#10; (3) p_type&#10; (4) p_size&#10;&#10;Unique Column Combinations: &#10; (1) {p_partkey}&#10;&#10;Functional Dependencies (trivial): &#10; (1) {p_partkey} =&gt; {p_brand, p_type, p_size}&#10;&#10;Functional Dependencies (non&#45;trivial): &#10; &lt;none&gt;">
<text text-anchor="middle" x="2220" y="-319.3" font-family="Times,serif" font-size="14.00" fill="white"> 10,000,000.0 row(s) | 100.0% estd.</text>
</a>
</g>
</g>
<!-- 127962022850896&#45;&gt;127962022853776 -->
<g id="edge30" class="edge">
<title>127962022850896&#45;&gt;127962022853776</title>
<path fill="none" stroke="white" d="M1018.4,-125.03C1018.36,-139.67 1019.45,-161.16 1025,-179 1025.93,-181.98 1027.14,-184.98 1028.5,-187.91"/>
<polygon fill="white" stroke="white" points="1033.25,-196.88 1031.67,-186.4 1028.57,-188.04 1033.25,-196.88"/>
<g id="a_edge30&#45;label"><a xlink:title="Output Expressions: &#10; (1) p_partkey&#10; (2) p_brand&#10; (3) p_type&#10; (4) p_size&#10;&#10;Unique Column Combinations: &#10; (1) {p_partkey}&#10;&#10;Functional Dependencies (trivial): &#10; (1) {p_partkey} =&gt; {p_brand, p_type, p_size}&#10;&#10;Functional Dependencies (non&#45;trivial): &#10; &lt;none&gt;">
<text text-anchor="middle" x="1133" y="-157.3" font-family="Times,serif" font-size="14.00" fill="white"> 199,623.0 row(s) | 2.0% estd.</text>
</a>
</g>
</g>
<!-- 127962022850512&#45;&gt;127962022853968 -->
<g id="edge31" class="edge">
<title>127962022850512&#45;&gt;127962022853968</title>
<path fill="none" stroke="white" d="M1320.05,-179.09C1314.97,-184.3 1310.11,-190.41 1307,-197 1292.25,-228.24 1290.38,-268.6 1291.11,-294.89"/>
<polygon fill="white" stroke="white" points="1291.53,-304.89 1294.61,-294.75 1291.11,-294.9 1291.53,-304.89"/>
<g id="a_edge31&#45;label"><a xlink:title="Output Expressions: &#10; (1) p_partkey&#10; (2) p_brand&#10; (3) p_type&#10; (4) p_size&#10;&#10;Unique Column Combinations: &#10; (1) {p_partkey}&#10;&#10;Functional Dependencies (trivial): &#10; (1) {p_partkey} =&gt; {p_brand, p_type, p_size}&#10;&#10;Functional Dependencies (non&#45;trivial): &#10; &lt;none&gt;">
<text text-anchor="middle" x="1415" y="-211.3" font-family="Times,serif" font-size="14.00" fill="white"> 199,886.0 row(s) | 2.0% estd.</text>
</a>
</g>
</g>
<!-- 127962022851856&#45;&gt;127962022854160 -->
<g id="edge32" class="edge">
<title>127962022851856&#45;&gt;127962022854160</title>
<path fill="none" stroke="white" d="M1538.31,-287.17C1542.39,-313.99 1545.75,-365.78 1518,-395 1505.6,-408.06 1469.62,-416.36 1432.65,-421.58"/>
<polygon fill="white" stroke="white" points="1422.73,-422.9 1433.1,-425.05 1432.64,-421.58 1422.73,-422.9"/>
<g id="a_edge32&#45;label"><a xlink:title="Output Expressions: &#10; (1) p_partkey&#10; (2) p_brand&#10; (3) p_type&#10; (4) p_size&#10;&#10;Unique Column Combinations: &#10; (1) {p_partkey}&#10;&#10;Functional Dependencies (trivial): &#10; (1) {p_partkey} =&gt; {p_brand, p_type, p_size}&#10;&#10;Functional Dependencies (non&#45;trivial): &#10; &lt;none&gt;">
<text text-anchor="middle" x="1649" y="-319.3" font-family="Times,serif" font-size="14.00" fill="white"> 200,150.0 row(s) | 2.0% estd.</text>
</a>
</g>
</g>
<!-- 127962022852624&#45;&gt;127962022854352 -->
<g id="edge33" class="edge">
<title>127962022852624&#45;&gt;127962022854352</title>
<path fill="none" stroke="white" d="M1728.52,-395.17C1694.46,-422.74 1622.99,-476.43 1553,-503 1515.08,-517.39 1471.3,-525.87 1432.84,-530.86"/>
<polygon fill="white" stroke="white" points="1422.66,-532.11 1433.01,-534.36 1432.58,-530.89 1422.66,-532.11"/>
<g id="a_edge33&#45;label"><a xlink:title="Output Expressions: &#10; (1) p_partkey&#10; (2) p_brand&#10; (3) p_type&#10; (4) p_size&#10;&#10;Unique Column Combinations: &#10; (1) {p_partkey}&#10;&#10;Functional Dependencies (trivial): &#10; (1) {p_partkey} =&gt; {p_brand, p_type, p_size}&#10;&#10;Functional Dependencies (non&#45;trivial): &#10; &lt;none&gt;">
<text text-anchor="middle" x="1813" y="-427.3" font-family="Times,serif" font-size="14.00" fill="white"> 200,390.0 row(s) | 2.0% estd.</text>
</a>
</g>
</g>
<!-- 127962022853200&#45;&gt;127962022854544 -->
<g id="edge34" class="edge">
<title>127962022853200&#45;&gt;127962022854544</title>
<path fill="none" stroke="white" d="M842.23,-503.12C870.77,-531.48 927.96,-588.32 960.96,-621.12"/>
<polygon fill="white" stroke="white" points="968.41,-628.52 963.78,-618.98 961.31,-621.47 968.41,-628.52"/>
<g id="a_edge34&#45;label"><a xlink:title="Output Expressions: &#10; (1) p_partkey&#10; (2) p_brand&#10; (3) p_type&#10; (4) p_size&#10;&#10;Unique Column Combinations: &#10; (1) {p_partkey}&#10;&#10;Functional Dependencies (trivial): &#10; (1) {p_partkey} =&gt; {p_brand, p_type, p_size}&#10;&#10;Functional Dependencies (non&#45;trivial): &#10; &lt;none&gt;">
<text text-anchor="middle" x="1003" y="-535.3" font-family="Times,serif" font-size="14.00" fill="white"> 200,263.0 row(s) | 2.0% estd.</text>
</a>
</g>
</g>
<!-- 127962022853584&#45;&gt;127962022854736 -->
<g id="edge35" class="edge">
<title>127962022853584&#45;&gt;127962022854736</title>
<path fill="none" stroke="white" d="M514.73,-611.14C555.91,-626.04 617.64,-647.85 672,-665 753.43,-690.69 847.79,-716.97 911.65,-734.25"/>
<polygon fill="white" stroke="white" points="921.63,-736.94 912.88,-730.96 911.97,-734.34 921.63,-736.94"/>
<g id="a_edge35&#45;label"><a xlink:title="Output Expressions: &#10; (1) p_partkey&#10; (2) p_brand&#10; (3) p_type&#10; (4) p_size&#10;&#10;Unique Column Combinations: &#10; (1) {p_partkey}&#10;&#10;Functional Dependencies (trivial): &#10; (1) {p_partkey} =&gt; {p_brand, p_type, p_size}&#10;&#10;Functional Dependencies (non&#45;trivial): &#10; &lt;none&gt;">
<text text-anchor="middle" x="780" y="-643.3" font-family="Times,serif" font-size="14.00" fill="white"> 200,246.0 row(s) | 2.0% estd.</text>
</a>
</g>
</g>
<!-- 127962022853392&#45;&gt;127962022854928 -->
<g id="edge36" class="edge">
<title>127962022853392&#45;&gt;127962022854928</title>
<path fill="none" stroke="white" d="M1654.55,-719.08C1573.93,-740.27 1431.59,-777.14 1309,-806 1286.44,-811.31 1262.04,-816.77 1239.22,-821.74"/>
<polygon fill="white" stroke="white" points="1229.2,-823.92 1239.72,-825.21 1238.97,-821.79 1229.2,-823.92"/>
<g id="a_edge36&#45;label"><a xlink:title="Output Expressions: &#10; (1) p_partkey&#10; (2) p_brand&#10; (3) p_type&#10; (4) p_size&#10;&#10;Unique Column Combinations: &#10; (1) {p_partkey}&#10;&#10;Functional Dependencies (trivial): &#10; (1) {p_partkey} =&gt; {p_brand, p_type, p_size}&#10;&#10;Functional Dependencies (non&#45;trivial): &#10; &lt;none&gt;">
<text text-anchor="middle" x="1690" y="-751.3" font-family="Times,serif" font-size="14.00" fill="white"> 199,867.0 row(s) | 2.0% estd.</text>
</a>
</g>
</g>
<!-- 127962022850128&#45;&gt;127962022851088 -->
<g id="edge37" class="edge">
<title>127962022850128&#45;&gt;127962022851088</title>
<path fill="none" stroke="white" d="M1291.9,-1122.03C1271.54,-1133.24 1243.38,-1147.38 1217,-1156 1184.08,-1166.75 1147.06,-1174.52 1113.72,-1180.02"/>
<polygon fill="white" stroke="white" points="1103.51,-1181.66 1113.94,-1183.53 1113.38,-1180.08 1103.51,-1181.66"/>
<g id="a_edge37&#45;label"><a xlink:title="Output Expressions: &#10; (1) p_partkey&#10; (2) p_brand&#10; (3) p_type&#10; (4) p_size&#10;&#10;Unique Column Combinations: &#10; &lt;none&gt;&#10;&#10;Functional Dependencies (trivial): &#10; &lt;none&gt;&#10;&#10;Functional Dependencies (non&#45;trivial): &#10; (1) {p_partkey} =&gt; {p_brand, p_type, p_size}&#10;">
<text text-anchor="middle" x="1344" y="-1144.8" font-family="Times,serif" font-size="14.00" fill="white"> 797.8 row(s) | 0.4% estd.</text>
</a>
</g>
</g>
<!-- 128124068417296 -->
<g id="node30" class="node">
<title>128124068417296</title>
<polygon fill="none" stroke="white" points="769,-1388 591,-1388 591,-1352 769,-1352 769,-1388"/>
<text text-anchor="middle" x="680" y="-1366.3" font-family="Times,serif" font-size="14.00" fill="white">[Projection] s_suppkey</text>
</g>
<!-- 128124068417296&#45;&gt;127962022847248 -->
<g id="edge38" class="edge">
<title>128124068417296&#45;&gt;127962022847248</title>
<path fill="none" stroke="white" d="M681.82,-1388.4C683.03,-1399.94 684.64,-1415.35 686.03,-1428.64"/>
<polygon fill="white" stroke="white" points="687.09,-1438.73 689.53,-1428.42 686.05,-1428.79 687.09,-1438.73"/>
<g id="a_edge38&#45;label"><a xlink:title="Output Expressions: &#10; (1) s_suppkey&#10;&#10;Unique Column Combinations: &#10; (1) {s_suppkey}&#10;&#10;Functional Dependencies (trivial): &#10; &lt;none&gt;&#10;&#10;Functional Dependencies (non&#45;trivial): &#10; &lt;none&gt;">
<text text-anchor="middle" x="797.5" y="-1409.8" font-family="Times,serif" font-size="14.00" fill="white"> 50,000.0 row(s) | 100.0% estd.</text>
</a>
</g>
</g>
<!-- 128124068415216 -->
<g id="node31" class="node">
<title>128124068415216</title>
<polygon fill="none" stroke="white" points="715.5,-1300 630.5,-1300 630.5,-1264 715.5,-1264 715.5,-1300"/>
<text text-anchor="middle" x="673" y="-1278.3" font-family="Times,serif" font-size="14.00" fill="white">[Validate]</text>
</g>
<!-- 128124068415216&#45;&gt;128124068417296 -->
<g id="edge39" class="edge">
<title>128124068415216&#45;&gt;128124068417296</title>
<path fill="none" stroke="white" d="M674.42,-1300.4C675.38,-1312.25 676.68,-1328.18 677.78,-1341.71"/>
<polygon fill="white" stroke="white" points="674.31,-1342.23 678.61,-1351.92 681.29,-1341.66 674.31,-1342.23"/>
<g id="a_edge39&#45;label"><a xlink:title="Output Expressions: &#10; (1) s_suppkey&#10; (2) s_comment&#10;&#10;Unique Column Combinations: &#10; (1) {s_suppkey}&#10;&#10;Functional Dependencies (trivial): &#10; (1) {s_suppkey} =&gt; {s_comment}&#10;&#10;Functional Dependencies (non&#45;trivial): &#10; &lt;none&gt;">
<text text-anchor="middle" x="789.5" y="-1322.8" font-family="Times,serif" font-size="14.00" fill="white"> 50,000.0 row(s) | 100.0% estd.</text>
</a>
</g>
</g>
<!-- 127962022849936 -->
<g id="node32" class="node">
<title>127962022849936</title>
<polygon fill="none" stroke="white" points="787.5,-1211 364.5,-1211 364.5,-1175 787.5,-1175 787.5,-1211"/>
<text text-anchor="middle" x="576" y="-1189.3" font-family="Times,serif" font-size="14.00" fill="white">[Predicate] s_comment LIKE &#39;%Customer%Complaints%&#39;</text>
</g>
<!-- 127962022849936&#45;&gt;128124068415216 -->
<g id="edge40" class="edge">
<title>127962022849936&#45;&gt;128124068415216</title>
<path fill="none" stroke="white" d="M568.01,-1211.06C564.3,-1221.73 562.05,-1235.24 569,-1245 570.74,-1247.44 595.76,-1256.14 620.81,-1264.37"/>
<polygon fill="white" stroke="white" points="619.78,-1267.71 630.37,-1267.49 621.95,-1261.06 619.78,-1267.71"/>
<g id="a_edge40&#45;label"><a xlink:title="Output Expressions: &#10; (1) s_suppkey&#10; (2) s_comment&#10;&#10;Unique Column Combinations: &#10; (1) {s_suppkey}&#10;&#10;Functional Dependencies (trivial): &#10; (1) {s_suppkey} =&gt; {s_comment}&#10;&#10;Functional Dependencies (non&#45;trivial): &#10; &lt;none&gt;">
<text text-anchor="middle" x="677" y="-1233.8" font-family="Times,serif" font-size="14.00" fill="white"> 50,000.0 row(s) | 10.0% estd.</text>
</a>
</g>
</g>
<!-- 127960408213264 -->
<g id="node33" class="node">
<title>127960408213264</title>
<polygon fill="none" stroke="white" points="737,-1123 415,-1123 415,-1085 737,-1085 737,-1123"/>
<text text-anchor="middle" x="576" y="-1107.8" font-family="Times,serif" font-size="14.00" fill="white">[StoredTable] Name: &#39;supplier&#39; pruned: 0/8</text>
<text text-anchor="middle" x="576" y="-1092.8" font-family="Times,serif" font-size="14.00" fill="white">chunk(s), 5/7 column(s)</text>
</g>
<!-- 127960408213264&#45;&gt;127962022849936 -->
<g id="edge41" class="edge">
<title>127960408213264&#45;&gt;127962022849936</title>
<path fill="none" stroke="white" d="M576,-1123.03C576,-1135.04 576,-1151.07 576,-1164.64"/>
<polygon fill="white" stroke="white" points="572.5,-1164.88 576,-1174.88 579.5,-1164.88 572.5,-1164.88"/>
<g id="a_edge41&#45;label"><a xlink:title="Output Expressions: &#10; (1) s_suppkey&#10; (2) s_comment&#10;&#10;Unique Column Combinations: &#10; (1) {s_suppkey}&#10;&#10;Functional Dependencies (trivial): &#10; (1) {s_suppkey} =&gt; {s_comment}&#10;&#10;Functional Dependencies (non&#45;trivial): &#10; &lt;none&gt;">
<text text-anchor="middle" x="693" y="-1144.8" font-family="Times,serif" font-size="14.00" fill="white"> 500,000.0 row(s) | 100.0% estd.</text>
</a>
</g>
</g>
</g>
</svg>
