<?xml version="1.0" encoding="UTF-8" standalone="no"?>
<!DOCTYPE svg PUBLIC "-//W3C//DTD SVG 1.1//EN"
 "http://www.w3.org/Graphics/SVG/1.1/DTD/svg11.dtd">
<!-- Generated by graphviz version 2.43.0 (0)
 -->
<!-- Title: G Pages: 1 -->
<svg width="1179pt" height="2303pt"
 viewBox="0.00 0.00 1178.50 2303.00" xmlns="http://www.w3.org/2000/svg" xmlns:xlink="http://www.w3.org/1999/xlink">
<g id="graph0" class="graph" transform="scale(1 1) rotate(0) translate(4 2299)">
<title>G</title>
<polygon fill="black" stroke="transparent" points="-4,4 -4,-2299 1174.5,-2299 1174.5,4 -4,4"/>
<text text-anchor="middle" x="319.5" y="-2279.8" font-family="Times,serif" font-size="14.00" fill="white">For tooltips with advanced information, hover your mouse over vertices or edge labels.</text>
<!-- 128123470145232 -->
<g id="node1" class="node">
<title>128123470145232</title>
<g id="a_node1"><a xlink:title="Output: 100 rows in 1 chunk filtered: 0, 9 µs 8 ns.&#10;Operator step runtimes:&#10; ForwardUnmodifiedColumns 3 µs 74 ns&#10; EvaluateNewColumns 514 ns&#10; BuildOutput 4 µs 213 ns.">
<polygon fill="none" stroke="white" points="514,-2240 425,-2240 425,-2186 514,-2186 514,-2240"/>
<text text-anchor="middle" x="469.5" y="-2224.8" font-family="Times,serif" font-size="14.00" fill="white">Projection</text>
<text text-anchor="middle" x="469.5" y="-2193.8" font-family="Times,serif" font-size="14.00" fill="white">9 µs 8 ns</text>
</a>
</g>
</g>
<!-- 128123469470224 -->
<g id="node2" class="node">
<title>128123469470224</title>
<g id="a_node2"><a xlink:title="Output: 100 rows in 1 chunk filtered: 0, 17 µs 324 ns.">
<polygon fill="none" stroke="white" points="523.5,-2135 415.5,-2135 415.5,-2081 523.5,-2081 523.5,-2135"/>
<text text-anchor="middle" x="469.5" y="-2119.8" font-family="Times,serif" font-size="14.00" fill="white">Limit</text>
<text text-anchor="middle" x="469.5" y="-2088.8" font-family="Times,serif" font-size="14.00" fill="white">17 µs 324 ns</text>
</a>
</g>
</g>
<!-- 128123469470224&#45;&gt;128123470145232 -->
<g id="edge1" class="edge">
<title>128123469470224&#45;&gt;128123470145232</title>
<path fill="none" stroke="white" d="M469.5,-2135.26C469.5,-2147.49 469.5,-2162.24 469.5,-2175.52"/>
<polygon fill="white" stroke="white" points="466,-2175.79 469.5,-2185.79 473,-2175.79 466,-2175.79"/>
<text text-anchor="middle" x="547.5" y="-2156.8" font-family="Times,serif" font-size="14.00" fill="white">100 row(s)/1 chunk(s)</text>
</g>
<!-- 128123470145552 -->
<g id="node3" class="node">
<title>128123470145552</title>
<g id="a_node3"><a xlink:title="Output: 23610 rows in 1 chunk filtered: 0, 38 ms 669 µs.&#10;Operator step runtimes:&#10; MaterializeSortColumns 13 ms 18 µs&#10; Sort 22 ms 734 µs&#10; TemporaryResultWriting 197 µs 51 ns&#10; WriteOutput 2 ms 322 µs.">
<polygon fill="none" stroke="white" stroke-width="6.75" points="526,-2030 413,-2030 413,-1976 526,-1976 526,-2030"/>
<text text-anchor="middle" x="469.5" y="-2014.8" font-family="Times,serif" font-size="14.00" fill="white">Sort</text>
<text text-anchor="middle" x="469.5" y="-1983.8" font-family="Times,serif" font-size="14.00" fill="white">38 ms 669 µs</text>
</a>
</g>
</g>
<!-- 128123470145552&#45;&gt;128123469470224 -->
<g id="edge2" class="edge">
<title>128123470145552&#45;&gt;128123469470224</title>
<path fill="none" stroke="white" d="M469.5,-2030.26C469.5,-2042.49 469.5,-2057.24 469.5,-2070.52"/>
<polygon fill="white" stroke="white" points="466,-2070.79 469.5,-2080.79 473,-2070.79 466,-2070.79"/>
<text text-anchor="middle" x="558.5" y="-2051.8" font-family="Times,serif" font-size="14.00" fill="white">23,610 row(s)/1 chunk(s)</text>
</g>
<!-- 128123470144912 -->
<g id="node4" class="node">
<title>128123470144912</title>
<g id="a_node4"><a xlink:title="Output: 23610 rows in 25 chunks filtered: 0, 21 ms 327 µs.&#10;Operator step runtimes:&#10; LeftSideMaterialize 6 ms 206 µs&#10; RightSideMaterialize 216 µs 782 ns&#10; LeftSideTransform 0 ns&#10; RightSideTransform 0 ns&#10; LeftSidePartition 408 µs 715 ns&#10; RightSidePartition 331 µs 61 ns&#10; LeftSideSortBuckets 745 µs 220 ns&#10; RightSideSortBuckets 685 µs 238 ns&#10; GatherRowIds 935 ns&#10; FindJoinPartner 11 ms 975 µs&#10; OutputWriting 627 µs 552 ns.&#10;Radix bits: 8.">
<polygon fill="none" stroke="white" stroke-width="5.28" points="609,-1925 330,-1925 330,-1841 609,-1841 609,-1925"/>
<text text-anchor="middle" x="469.5" y="-1909.8" font-family="Times,serif" font-size="14.00" fill="white">JoinSimdSortMerge (Semi)</text>
<text text-anchor="middle" x="469.5" y="-1894.8" font-family="Times,serif" font-size="14.00" fill="white">ps_supplycost = MIN(ps_supplycost)</text>
<text text-anchor="middle" x="469.5" y="-1879.8" font-family="Times,serif" font-size="14.00" fill="white">AND p_partkey = ps_partkey</text>
<text text-anchor="middle" x="469.5" y="-1848.8" font-family="Times,serif" font-size="14.00" fill="white">21 ms 327 µs</text>
</a>
</g>
</g>
<!-- 128123470144912&#45;&gt;128123470145552 -->
<g id="edge3" class="edge">
<title>128123470144912&#45;&gt;128123470145552</title>
<path fill="none" stroke="white" d="M469.5,-1925.27C469.5,-1938.36 469.5,-1952.72 469.5,-1965.45"/>
<polygon fill="white" stroke="white" points="466,-1965.69 469.5,-1975.69 473,-1965.69 466,-1965.69"/>
<text text-anchor="middle" x="563" y="-1946.8" font-family="Times,serif" font-size="14.00" fill="white">23,610 row(s)/25 chunk(s)</text>
</g>
<!-- 128123470143952 -->
<g id="node5" class="node">
<title>128123470143952</title>
<g id="a_node5"><a xlink:title="Output: 32084 rows in 57 chunks filtered: 0, 19 ms 267 µs.&#10;Operator step runtimes:&#10; LeftSideMaterialize 7 ms 508 µs&#10; RightSideMaterialize 4 ms 50 µs&#10; LeftSideTransform 0 ns&#10; RightSideTransform 0 ns&#10; LeftSidePartition 2 ms 123 µs&#10; RightSidePartition 1 ms 690 µs&#10; LeftSideSortBuckets 656 µs 124 ns&#10; RightSideSortBuckets 670 µs 922 ns&#10; GatherRowIds 953 ns&#10; FindJoinPartner 1 ms 440 µs&#10; OutputWriting 934 µs 567 ns.&#10;Radix bits: 8.">
<polygon fill="none" stroke="white" stroke-width="5.03" points="434,-1790 223,-1790 223,-1721 434,-1721 434,-1790"/>
<text text-anchor="middle" x="328.5" y="-1774.8" font-family="Times,serif" font-size="14.00" fill="white">JoinSimdSortMerge (Inner)</text>
<text text-anchor="middle" x="328.5" y="-1759.8" font-family="Times,serif" font-size="14.00" fill="white">ps_partkey = p_partkey</text>
<text text-anchor="middle" x="328.5" y="-1728.8" font-family="Times,serif" font-size="14.00" fill="white">19 ms 267 µs</text>
</a>
</g>
</g>
<!-- 128123470143952&#45;&gt;128123470144912 -->
<g id="edge4" class="edge">
<title>128123470143952&#45;&gt;128123470144912</title>
<path fill="none" stroke="white" d="M357.09,-1790.18C366.94,-1801.08 378.31,-1812.95 389.5,-1823 393.78,-1826.84 398.29,-1830.68 402.92,-1834.46"/>
<polygon fill="white" stroke="white" points="402.97,-1834.5 400.78,-1837.23 410.78,-1840.74 402.97,-1834.5"/>
<text text-anchor="middle" x="483" y="-1811.8" font-family="Times,serif" font-size="14.00" fill="white">32,084 row(s)/57 chunk(s)</text>
</g>
<!-- 128123470143632 -->
<g id="node6" class="node">
<title>128123470143632</title>
<g id="a_node6"><a xlink:title="Output: 32084 rows in 58 chunks filtered: 0, 14 ms 852 µs.&#10;Operator step runtimes:&#10; LeftSideMaterialize 7 ms 34 µs&#10; RightSideMaterialize 1 ms 340 µs&#10; LeftSideTransform 0 ns&#10; RightSideTransform 0 ns&#10; LeftSidePartition 1 ms 195 µs&#10; RightSidePartition 1 ms 817 µs&#10; LeftSideSortBuckets 627 µs 734 ns&#10; RightSideSortBuckets 640 µs 921 ns&#10; GatherRowIds 2 µs 362 ns&#10; FindJoinPartner 1 ms 362 µs&#10; OutputWriting 598 µs 548 ns.&#10;Radix bits: 8.">
<polygon fill="none" stroke="white" stroke-width="4.39" points="434,-1601 223,-1601 223,-1532 434,-1532 434,-1601"/>
<text text-anchor="middle" x="328.5" y="-1585.8" font-family="Times,serif" font-size="14.00" fill="white">JoinSimdSortMerge (Inner)</text>
<text text-anchor="middle" x="328.5" y="-1570.8" font-family="Times,serif" font-size="14.00" fill="white">ps_suppkey = s_suppkey</text>
<text text-anchor="middle" x="328.5" y="-1539.8" font-family="Times,serif" font-size="14.00" fill="white">14 ms 852 µs</text>
</a>
</g>
</g>
<!-- 128123470143632&#45;&gt;128123470143952 -->
<g id="edge5" class="edge">
<title>128123470143632&#45;&gt;128123470143952</title>
<path fill="none" stroke="white" d="M328.5,-1601.36C328.5,-1631.95 328.5,-1677.13 328.5,-1710.5"/>
<polygon fill="white" stroke="white" points="328.5,-1710.89 325,-1710.89 328.5,-1720.89 328.5,-1710.89"/>
<text text-anchor="middle" x="422" y="-1657.3" font-family="Times,serif" font-size="14.00" fill="white">32,084 row(s)/58 chunk(s)</text>
</g>
<!-- 128123469457680 -->
<g id="node7" class="node">
<title>128123469457680</title>
<g id="a_node7"><a xlink:title="Output: 32084 rows in 58 chunks filtered: 0, 347 µs 722 ns.">
<polygon fill="none" stroke="white" points="545,-1481 428,-1481 428,-1427 545,-1427 545,-1481"/>
<text text-anchor="middle" x="486.5" y="-1465.8" font-family="Times,serif" font-size="14.00" fill="white">Validate</text>
<text text-anchor="middle" x="486.5" y="-1434.8" font-family="Times,serif" font-size="14.00" fill="white">347 µs 722 ns</text>
</a>
</g>
</g>
<!-- 128123469457680&#45;&gt;128123470143632 -->
<g id="edge6" class="edge">
<title>128123469457680&#45;&gt;128123470143632</title>
<path fill="none" stroke="white" d="M449.06,-1481.19C429.88,-1494.6 406.14,-1511.2 384.81,-1526.12"/>
<polygon fill="white" stroke="white" points="384.66,-1526.22 382.65,-1523.36 376.46,-1531.95 384.66,-1526.22"/>
<text text-anchor="middle" x="515" y="-1502.8" font-family="Times,serif" font-size="14.00" fill="white">32,084 row(s)/58 chunk(s)</text>
</g>
<!-- 128123470143312 -->
<g id="node8" class="node">
<title>128123470143312</title>
<g id="a_node8"><a xlink:title="Output: 32084 rows in 58 chunks filtered: 0, 42 ms 815 µs.&#10;Operator step runtimes:&#10; LeftSideMaterialize 24 ms 60 µs&#10; RightSideMaterialize 2 ms 893 µs&#10; LeftSideTransform 0 ns&#10; RightSideTransform 0 ns&#10; LeftSidePartition 2 ms 489 µs&#10; RightSidePartition 8 ms 967 µs&#10; LeftSideSortBuckets 1 ms 50 µs&#10; RightSideSortBuckets 773 µs 881 ns&#10; GatherRowIds 3 µs 275 ns&#10; FindJoinPartner 1 ms 553 µs&#10; OutputWriting 693 µs 665 ns.&#10;Radix bits: 8.">
<polygon fill="none" stroke="white" stroke-width="7" points="645,-1376 360,-1376 360,-1307 645,-1307 645,-1376"/>
<text text-anchor="middle" x="502.5" y="-1360.8" font-family="Times,serif" font-size="14.00" fill="white">JoinSimdSortMerge (Semi Reduction)</text>
<text text-anchor="middle" x="502.5" y="-1345.8" font-family="Times,serif" font-size="14.00" fill="white">ps_suppkey = s_suppkey</text>
<text text-anchor="middle" x="502.5" y="-1314.8" font-family="Times,serif" font-size="14.00" fill="white">42 ms 815 µs</text>
</a>
</g>
</g>
<!-- 128123470143312&#45;&gt;128123469457680 -->
<g id="edge7" class="edge">
<title>128123470143312&#45;&gt;128123469457680</title>
<path fill="none" stroke="white" d="M497.61,-1376.25C495.76,-1389.07 493.63,-1403.73 491.75,-1416.77"/>
<polygon fill="white" stroke="white" points="488.26,-1416.41 490.29,-1426.81 495.19,-1417.42 488.26,-1416.41"/>
<text text-anchor="middle" x="588" y="-1397.8" font-family="Times,serif" font-size="14.00" fill="white">32,084 row(s)/58 chunk(s)</text>
</g>
<!-- 128123470139792 -->
<g id="node9" class="node">
<title>128123470139792</title>
<g id="a_node9"><a xlink:title="Output: 160128 rows in 256 chunks filtered: 0, 64 ms 146 µs.&#10;Operator step runtimes:&#10; LeftSideMaterialize 33 ms 288 µs&#10; RightSideMaterialize 10 ms 561 µs&#10; LeftSideTransform 0 ns&#10; RightSideTransform 0 ns&#10; LeftSidePartition 2 ms 180 µs&#10; RightSidePartition 3 ms 697 µs&#10; LeftSideSortBuckets 9 ms 32 µs&#10; RightSideSortBuckets 968 µs 633 ns&#10; GatherRowIds 2 µs 231 ns&#10; FindJoinPartner 1 ms 720 µs&#10; OutputWriting 1 ms 162 µs.&#10;Radix bits: 8.">
<polygon fill="none" stroke="white" stroke-width="8" points="734,-1256 449,-1256 449,-1187 734,-1187 734,-1256"/>
<text text-anchor="middle" x="591.5" y="-1240.8" font-family="Times,serif" font-size="14.00" fill="white">JoinSimdSortMerge (Semi Reduction)</text>
<text text-anchor="middle" x="591.5" y="-1225.8" font-family="Times,serif" font-size="14.00" fill="white">ps_partkey = p_partkey</text>
<text text-anchor="middle" x="591.5" y="-1194.8" font-family="Times,serif" font-size="14.00" fill="white">64 ms 146 µs</text>
</a>
</g>
</g>
<!-- 128123470139792&#45;&gt;128123470143312 -->
<g id="edge8" class="edge">
<title>128123470139792&#45;&gt;128123470143312</title>
<path fill="none" stroke="white" d="M554.04,-1256.05C548.53,-1261.77 543.15,-1267.86 538.5,-1274 532.91,-1281.38 527.67,-1289.74 523.01,-1297.98"/>
<polygon fill="white" stroke="white" points="522.98,-1298.04 519.91,-1296.36 518.2,-1306.82 522.98,-1298.04"/>
<text text-anchor="middle" x="641" y="-1277.8" font-family="Times,serif" font-size="14.00" fill="white">160,128 row(s)/256 chunk(s)</text>
</g>
<!-- 128123470144592 -->
<g id="node27" class="node">
<title>128123470144592</title>
<g id="a_node27"><a xlink:title="Output: 32084 rows in 58 chunks filtered: 0, 42 ms 626 µs.&#10;Operator step runtimes:&#10; LeftSideMaterialize 19 ms 262 µs&#10; RightSideMaterialize 1 ms 339 µs&#10; LeftSideTransform 0 ns&#10; RightSideTransform 0 ns&#10; LeftSidePartition 8 ms 997 µs&#10; RightSidePartition 6 ms 423 µs&#10; LeftSideSortBuckets 1 ms 365 µs&#10; RightSideSortBuckets 1 ms 147 µs&#10; GatherRowIds 1 µs 294 ns&#10; FindJoinPartner 2 ms 574 µs&#10; OutputWriting 1 ms 109 µs.&#10;Radix bits: 8.">
<polygon fill="none" stroke="white" stroke-width="6.99" points="872,-1376 663,-1376 663,-1307 872,-1307 872,-1376"/>
<text text-anchor="middle" x="767.5" y="-1360.8" font-family="Times,serif" font-size="14.00" fill="white">JoinSimdSortMerge (Semi)</text>
<text text-anchor="middle" x="767.5" y="-1345.8" font-family="Times,serif" font-size="14.00" fill="white">ps_suppkey = s_suppkey</text>
<text text-anchor="middle" x="767.5" y="-1314.8" font-family="Times,serif" font-size="14.00" fill="white">42 ms 626 µs</text>
</a>
</g>
</g>
<!-- 128123470139792&#45;&gt;128123470144592 -->
<g id="edge9" class="edge">
<title>128123470139792&#45;&gt;128123470144592</title>
<path fill="none" stroke="white" d="M720.19,-1256.11C728.64,-1261.25 736.54,-1267.17 743.5,-1274 749.99,-1280.37 754.74,-1288.62 758.21,-1297.14"/>
<polygon fill="white" stroke="white" points="758.28,-1297.34 754.98,-1298.5 761.6,-1306.77 758.28,-1297.34"/>
<text text-anchor="middle" x="856" y="-1277.8" font-family="Times,serif" font-size="14.00" fill="white">160,128 row(s)/256 chunk(s)</text>
</g>
<!-- 128123469543504 -->
<g id="node10" class="node">
<title>128123469543504</title>
<g id="a_node10"><a xlink:title="Output: 40000000 rows in 611 chunks filtered: 0, 3 ms 154 µs.">
<polygon fill="none" stroke="white" points="652.5,-1097 530.5,-1097 530.5,-983 652.5,-983 652.5,-1097"/>
<text text-anchor="middle" x="591.5" y="-1081.8" font-family="Times,serif" font-size="14.00" fill="white">GetTable</text>
<text text-anchor="middle" x="591.5" y="-1066.8" font-family="Times,serif" font-size="14.00" fill="white">(partsupp)</text>
<text text-anchor="middle" x="591.5" y="-1051.8" font-family="Times,serif" font-size="14.00" fill="white">pruned:</text>
<text text-anchor="middle" x="591.5" y="-1036.8" font-family="Times,serif" font-size="14.00" fill="white">0/611 chunk(s)</text>
<text text-anchor="middle" x="591.5" y="-1021.8" font-family="Times,serif" font-size="14.00" fill="white">2/5 column(s)</text>
<text text-anchor="middle" x="591.5" y="-990.8" font-family="Times,serif" font-size="14.00" fill="white">3 ms 154 µs</text>
</a>
</g>
</g>
<!-- 128123469543504&#45;&gt;128123470139792 -->
<g id="edge10" class="edge">
<title>128123469543504&#45;&gt;128123470139792</title>
<path fill="none" stroke="white" stroke-width="8" d="M591.5,-1097.3C591.5,-1122.92 591.5,-1152.77 591.5,-1176.68"/>
<polygon fill="white" stroke="white" stroke-width="8" points="591.5,-1176.87 584.5,-1176.87 591.5,-1186.87 591.5,-1176.87"/>
<text text-anchor="middle" x="705.5" y="-1138.3" font-family="Times,serif" font-size="14.00" fill="white">40,000,000 row(s)/611 chunk(s)</text>
</g>
<!-- 128123469469200 -->
<g id="node11" class="node">
<title>128123469469200</title>
<g id="a_node11"><a xlink:title="Output: 40032 rows in 153 chunks filtered: 0, 296 µs 124 ns.">
<polygon fill="none" stroke="white" points="148,-1067 31,-1067 31,-1013 148,-1013 148,-1067"/>
<text text-anchor="middle" x="89.5" y="-1051.8" font-family="Times,serif" font-size="14.00" fill="white">Validate</text>
<text text-anchor="middle" x="89.5" y="-1020.8" font-family="Times,serif" font-size="14.00" fill="white">296 µs 124 ns</text>
</a>
</g>
</g>
<!-- 128123469469200&#45;&gt;128123470143952 -->
<g id="edge12" class="edge">
<title>128123469469200&#45;&gt;128123470143952</title>
<path fill="none" stroke="white" d="M86.18,-1067.11C82.04,-1102 75.5,-1165.8 75.5,-1220.5 75.5,-1220.5 75.5,-1220.5 75.5,-1567.5 75.5,-1641.58 146.51,-1689.65 213.28,-1718.48"/>
<polygon fill="white" stroke="white" points="222.67,-1722.42 214.81,-1715.32 213.45,-1718.55 222.67,-1722.42"/>
<text text-anchor="middle" x="173.5" y="-1397.8" font-family="Times,serif" font-size="14.00" fill="white">40,032 row(s)/153 chunk(s)</text>
</g>
<!-- 128123469469200&#45;&gt;128123470139792 -->
<g id="edge11" class="edge">
<title>128123469469200&#45;&gt;128123470139792</title>
<path fill="none" stroke="white" d="M95.07,-1067.03C103.03,-1097.24 120.84,-1145.85 156.5,-1169 181.26,-1185.08 380.04,-1182.96 438.67,-1187.24"/>
<polygon fill="white" stroke="white" points="448.94,-1188.26 439.34,-1183.79 438.99,-1187.27 448.94,-1188.26"/>
<text text-anchor="middle" x="254.5" y="-1138.3" font-family="Times,serif" font-size="14.00" fill="white">40,032 row(s)/153 chunk(s)</text>
</g>
<!-- 128123470139472 -->
<g id="node12" class="node">
<title>128123470139472</title>
<g id="a_node12"><a xlink:title="Output: 40032 rows in 153 chunks filtered: 0, 860 µs 582 ns.&#10;Chunks: 0 skipped with no results, &#10;0 skipped with all matching, 0 scanned using binary search.">
<polygon fill="none" stroke="white" points="179,-932 0,-932 0,-848 179,-848 179,-932"/>
<text text-anchor="middle" x="89.5" y="-916.8" font-family="Times,serif" font-size="14.00" fill="white">TableScan</text>
<text text-anchor="middle" x="89.5" y="-901.8" font-family="Times,serif" font-size="14.00" fill="white">Impl: ColumnLike</text>
<text text-anchor="middle" x="89.5" y="-886.8" font-family="Times,serif" font-size="14.00" fill="white">p_type LIKE &#39;%BRASS&#39;</text>
<text text-anchor="middle" x="89.5" y="-855.8" font-family="Times,serif" font-size="14.00" fill="white">860 µs 582 ns</text>
</a>
</g>
</g>
<!-- 128123470139472&#45;&gt;128123469469200 -->
<g id="edge13" class="edge">
<title>128123470139472&#45;&gt;128123469469200</title>
<path fill="none" stroke="white" d="M89.5,-932.23C89.5,-954.32 89.5,-981.31 89.5,-1002.62"/>
<polygon fill="white" stroke="white" points="86,-1002.88 89.5,-1012.88 93,-1002.88 86,-1002.88"/>
<text text-anchor="middle" x="187.5" y="-953.8" font-family="Times,serif" font-size="14.00" fill="white">40,032 row(s)/153 chunk(s)</text>
</g>
<!-- 128123470138192 -->
<g id="node13" class="node">
<title>128123470138192</title>
<g id="a_node13"><a xlink:title="Output: 200079 rows in 153 chunks filtered: 0, 1 ms 280 µs.&#10;Chunks: 0 skipped with no results, &#10;0 skipped with all matching, 0 scanned using binary search.">
<polygon fill="none" stroke="white" points="174,-782 5,-782 5,-698 174,-698 174,-782"/>
<text text-anchor="middle" x="89.5" y="-766.8" font-family="Times,serif" font-size="14.00" fill="white">TableScan</text>
<text text-anchor="middle" x="89.5" y="-751.8" font-family="Times,serif" font-size="14.00" fill="white">Impl: ColumnVsValue</text>
<text text-anchor="middle" x="89.5" y="-736.8" font-family="Times,serif" font-size="14.00" fill="white">p_size = 36</text>
<text text-anchor="middle" x="89.5" y="-705.8" font-family="Times,serif" font-size="14.00" fill="white">1 ms 280 µs</text>
</a>
</g>
</g>
<!-- 128123470138192&#45;&gt;128123470139472 -->
<g id="edge14" class="edge">
<title>128123470138192&#45;&gt;128123470139472</title>
<path fill="none" stroke="white" d="M89.5,-782.23C89.5,-799.47 89.5,-819.68 89.5,-837.85"/>
<polygon fill="white" stroke="white" points="86,-837.99 89.5,-847.99 93,-837.99 86,-837.99"/>
<text text-anchor="middle" x="192" y="-818.8" font-family="Times,serif" font-size="14.00" fill="white">200,079 row(s)/153 chunk(s)</text>
</g>
<!-- 128123469538128 -->
<g id="node14" class="node">
<title>128123469538128</title>
<g id="a_node14"><a xlink:title="Output: 10000000 rows in 153 chunks filtered: 0, 290 µs 667 ns.">
<polygon fill="none" stroke="white" points="150.5,-632 28.5,-632 28.5,-518 150.5,-518 150.5,-632"/>
<text text-anchor="middle" x="89.5" y="-616.8" font-family="Times,serif" font-size="14.00" fill="white">GetTable</text>
<text text-anchor="middle" x="89.5" y="-601.8" font-family="Times,serif" font-size="14.00" fill="white">(part)</text>
<text text-anchor="middle" x="89.5" y="-586.8" font-family="Times,serif" font-size="14.00" fill="white">pruned:</text>
<text text-anchor="middle" x="89.5" y="-571.8" font-family="Times,serif" font-size="14.00" fill="white">0/153 chunk(s)</text>
<text text-anchor="middle" x="89.5" y="-556.8" font-family="Times,serif" font-size="14.00" fill="white">5/9 column(s)</text>
<text text-anchor="middle" x="89.5" y="-525.8" font-family="Times,serif" font-size="14.00" fill="white">290 µs 667 ns</text>
</a>
</g>
</g>
<!-- 128123469538128&#45;&gt;128123470138192 -->
<g id="edge15" class="edge">
<title>128123469538128&#45;&gt;128123470138192</title>
<path fill="none" stroke="white" stroke-width="4.58" d="M89.5,-632.1C89.5,-650.19 89.5,-670.13 89.5,-687.85"/>
<polygon fill="white" stroke="white" stroke-width="4.58" points="85.49,-687.99 89.5,-697.99 93.51,-687.99 85.49,-687.99"/>
<text text-anchor="middle" x="203.5" y="-653.8" font-family="Times,serif" font-size="14.00" fill="white">10,000,000 row(s)/153 chunk(s)</text>
</g>
<!-- 128123470142992 -->
<g id="node15" class="node">
<title>128123470142992</title>
<g id="a_node15"><a xlink:title="Output: 100102 rows in 5 chunks filtered: 0, 43 ms 897 µs.&#10;Operator step runtimes:&#10; LeftSideMaterialize 3 ms 947 µs&#10; RightSideMaterialize 15 µs 948 ns&#10; LeftSideTransform 0 ns&#10; RightSideTransform 0 ns&#10; LeftSidePartition 7 ms 147 µs&#10; RightSidePartition 46 µs 151 ns&#10; LeftSideSortBuckets 20 ms 371 µs&#10; RightSideSortBuckets 1 ms 84 µs&#10; GatherRowIds 4 µs 906 ns&#10; FindJoinPartner 2 ms 314 µs&#10; OutputWriting 8 ms 662 µs.&#10;Radix bits: 8.">
<polygon fill="none" stroke="white" stroke-width="7.06" points="431,-1256 220,-1256 220,-1187 431,-1187 431,-1256"/>
<text text-anchor="middle" x="325.5" y="-1240.8" font-family="Times,serif" font-size="14.00" fill="white">JoinSimdSortMerge (Inner)</text>
<text text-anchor="middle" x="325.5" y="-1225.8" font-family="Times,serif" font-size="14.00" fill="white">s_nationkey = n_nationkey</text>
<text text-anchor="middle" x="325.5" y="-1194.8" font-family="Times,serif" font-size="14.00" fill="white">43 ms 897 µs</text>
</a>
</g>
</g>
<!-- 128123470142992&#45;&gt;128123470143632 -->
<g id="edge17" class="edge">
<title>128123470142992&#45;&gt;128123470143632</title>
<path fill="none" stroke="white" d="M316.82,-1256.1C308.2,-1293.37 296.9,-1355.33 301.5,-1409 304.79,-1447.38 312.53,-1490.48 318.88,-1521.72"/>
<polygon fill="white" stroke="white" points="320.97,-1531.83 322.38,-1521.33 318.95,-1522.04 320.97,-1531.83"/>
<text text-anchor="middle" x="395" y="-1397.8" font-family="Times,serif" font-size="14.00" fill="white">100,102 row(s)/5 chunk(s)</text>
</g>
<!-- 128123470142992&#45;&gt;128123470143312 -->
<g id="edge16" class="edge">
<title>128123470142992&#45;&gt;128123470143312</title>
<path fill="none" stroke="white" d="M324.7,-1256C326.07,-1267.65 329.58,-1280.03 337.5,-1289 341.8,-1293.87 346.56,-1298.29 351.66,-1302.29"/>
<polygon fill="white" stroke="white" points="359.94,-1308.24 353.86,-1299.57 351.82,-1302.41 359.94,-1308.24"/>
<text text-anchor="middle" x="431" y="-1277.8" font-family="Times,serif" font-size="14.00" fill="white">100,102 row(s)/5 chunk(s)</text>
</g>
<!-- 128123470573328 -->
<g id="node16" class="node">
<title>128123470573328</title>
<g id="a_node16"><a xlink:title="Output: 100102 rows in 5 chunks filtered: 0, 466 µs 108 ns.">
<polygon fill="none" stroke="white" points="491,-1067 374,-1067 374,-1013 491,-1013 491,-1067"/>
<text text-anchor="middle" x="432.5" y="-1051.8" font-family="Times,serif" font-size="14.00" fill="white">Validate</text>
<text text-anchor="middle" x="432.5" y="-1020.8" font-family="Times,serif" font-size="14.00" fill="white">466 µs 108 ns</text>
</a>
</g>
</g>
<!-- 128123470573328&#45;&gt;128123470142992 -->
<g id="edge18" class="edge">
<title>128123470573328&#45;&gt;128123470142992</title>
<path fill="none" stroke="white" d="M416.94,-1067.1C399.65,-1096.11 371.46,-1143.4 350.95,-1177.81"/>
<polygon fill="white" stroke="white" points="350.77,-1178.12 347.76,-1176.32 345.65,-1186.71 350.77,-1178.12"/>
<text text-anchor="middle" x="478" y="-1138.3" font-family="Times,serif" font-size="14.00" fill="white">100,102 row(s)/5 chunk(s)</text>
</g>
<!-- 128123470142672 -->
<g id="node17" class="node">
<title>128123470142672</title>
<g id="a_node17"><a xlink:title="Output: 100102 rows in 5 chunks filtered: 0, 7 ms 123 µs.&#10;Operator step runtimes:&#10; LeftSideMaterialize 1 ms 212 µs&#10; RightSideMaterialize 21 µs 420 ns&#10; LeftSideTransform 0 ns&#10; RightSideTransform 0 ns&#10; LeftSidePartition 1 ms 410 µs&#10; RightSidePartition 24 µs 530 ns&#10; LeftSideSortBuckets 781 µs 199 ns&#10; RightSideSortBuckets 696 µs 431 ns&#10; GatherRowIds 1 µs 800 ns&#10; FindJoinPartner 2 ms 750 µs&#10; OutputWriting 88 µs 931 ns.&#10;Radix bits: 8.">
<polygon fill="none" stroke="white" stroke-width="2.58" points="639,-924.5 354,-924.5 354,-855.5 639,-855.5 639,-924.5"/>
<text text-anchor="middle" x="496.5" y="-909.3" font-family="Times,serif" font-size="14.00" fill="white">JoinSimdSortMerge (Semi Reduction)</text>
<text text-anchor="middle" x="496.5" y="-894.3" font-family="Times,serif" font-size="14.00" fill="white">s_nationkey = n_nationkey</text>
<text text-anchor="middle" x="496.5" y="-863.3" font-family="Times,serif" font-size="14.00" fill="white">7 ms 123 µs</text>
</a>
</g>
</g>
<!-- 128123470142672&#45;&gt;128123470573328 -->
<g id="edge19" class="edge">
<title>128123470142672&#45;&gt;128123470573328</title>
<path fill="none" stroke="white" d="M483.84,-924.72C478.93,-937.42 473.13,-951.95 467.5,-965 462.03,-977.66 455.68,-991.36 449.9,-1003.49"/>
<polygon fill="white" stroke="white" points="446.59,-1002.3 445.41,-1012.83 452.9,-1005.33 446.59,-1002.3"/>
<text text-anchor="middle" x="566" y="-953.8" font-family="Times,serif" font-size="14.00" fill="white">100,102 row(s)/5 chunk(s)</text>
</g>
<!-- 128123469538576 -->
<g id="node18" class="node">
<title>128123469538576</title>
<g id="a_node18"><a xlink:title="Output: 500000 rows in 8 chunks filtered: 0, 47 µs 690 ns.">
<polygon fill="none" stroke="white" points="785,-797 672,-797 672,-683 785,-683 785,-797"/>
<text text-anchor="middle" x="728.5" y="-781.8" font-family="Times,serif" font-size="14.00" fill="white">GetTable</text>
<text text-anchor="middle" x="728.5" y="-766.8" font-family="Times,serif" font-size="14.00" fill="white">(supplier)</text>
<text text-anchor="middle" x="728.5" y="-751.8" font-family="Times,serif" font-size="14.00" fill="white">pruned:</text>
<text text-anchor="middle" x="728.5" y="-736.8" font-family="Times,serif" font-size="14.00" fill="white">0/8 chunk(s)</text>
<text text-anchor="middle" x="728.5" y="-721.8" font-family="Times,serif" font-size="14.00" fill="white">0/7 column(s)</text>
<text text-anchor="middle" x="728.5" y="-690.8" font-family="Times,serif" font-size="14.00" fill="white">47 µs 690 ns</text>
</a>
</g>
</g>
<!-- 128123469538576&#45;&gt;128123470142672 -->
<g id="edge20" class="edge">
<title>128123469538576&#45;&gt;128123470142672</title>
<path fill="none" stroke="white" d="M671.9,-754.06C632.88,-765.24 581.58,-784.47 544.5,-815 533.95,-823.69 524.92,-835.31 517.64,-846.77"/>
<polygon fill="white" stroke="white" points="517.57,-846.88 514.57,-845.08 512.41,-855.45 517.57,-846.88"/>
<text text-anchor="middle" x="638" y="-818.8" font-family="Times,serif" font-size="14.00" fill="white">500,000 row(s)/8 chunk(s)</text>
</g>
<!-- 128123470144272 -->
<g id="node29" class="node">
<title>128123470144272</title>
<g id="a_node29"><a xlink:title="Output: 100102 rows in 5 chunks filtered: 0, 54 ms 880 µs.&#10;Operator step runtimes:&#10; LeftSideMaterialize 7 ms 148 µs&#10; RightSideMaterialize 91 µs 333 ns&#10; LeftSideTransform 0 ns&#10; RightSideTransform 0 ns&#10; LeftSidePartition 1 ms 432 µs&#10; RightSidePartition 26 µs 285 ns&#10; LeftSideSortBuckets 728 µs 323 ns&#10; RightSideSortBuckets 697 µs 374 ns&#10; GatherRowIds 748 ns&#10; FindJoinPartner 44 ms 104 µs&#10; OutputWriting 440 µs 806 ns.&#10;Radix bits: 8.">
<polygon fill="none" stroke="white" stroke-width="7.62" points="1019,-924.5 810,-924.5 810,-855.5 1019,-855.5 1019,-924.5"/>
<text text-anchor="middle" x="914.5" y="-909.3" font-family="Times,serif" font-size="14.00" fill="white">JoinSimdSortMerge (Semi)</text>
<text text-anchor="middle" x="914.5" y="-894.3" font-family="Times,serif" font-size="14.00" fill="white">s_nationkey = n_nationkey</text>
<text text-anchor="middle" x="914.5" y="-863.3" font-family="Times,serif" font-size="14.00" fill="white">54 ms 880 µs</text>
</a>
</g>
</g>
<!-- 128123469538576&#45;&gt;128123470144272 -->
<g id="edge21" class="edge">
<title>128123469538576&#45;&gt;128123470144272</title>
<path fill="none" stroke="white" d="M785.19,-753.68C820.67,-764.4 864.76,-783.24 892.5,-815 899.99,-823.58 904.94,-834.62 908.2,-845.54"/>
<polygon fill="white" stroke="white" points="908.26,-845.77 904.87,-846.64 910.74,-855.46 908.26,-845.77"/>
<text text-anchor="middle" x="995" y="-818.8" font-family="Times,serif" font-size="14.00" fill="white">500,000 row(s)/8 chunk(s)</text>
</g>
<!-- 128123469468176 -->
<g id="node19" class="node">
<title>128123469468176</title>
<g id="a_node19"><a xlink:title="Output: 5 rows in 1 chunk filtered: 0, 3 µs 169 ns.">
<polygon fill="none" stroke="white" points="432,-767 333,-767 333,-713 432,-713 432,-767"/>
<text text-anchor="middle" x="382.5" y="-751.8" font-family="Times,serif" font-size="14.00" fill="white">Validate</text>
<text text-anchor="middle" x="382.5" y="-720.8" font-family="Times,serif" font-size="14.00" fill="white">3 µs 169 ns</text>
</a>
</g>
</g>
<!-- 128123469468176&#45;&gt;128123470142992 -->
<g id="edge23" class="edge">
<title>128123469468176&#45;&gt;128123470142992</title>
<path fill="none" stroke="white" d="M372.34,-767.07C364.25,-788.54 353.07,-819.91 345.5,-848 333.48,-892.6 329.97,-904.02 325.5,-950 317.78,-1029.53 320.32,-1122.84 322.89,-1176.48"/>
<polygon fill="white" stroke="white" points="323.41,-1186.66 326.4,-1176.5 322.9,-1176.67 323.41,-1186.66"/>
<text text-anchor="middle" x="394.5" y="-953.8" font-family="Times,serif" font-size="14.00" fill="white">5 row(s)/1 chunk(s)</text>
</g>
<!-- 128123469468176&#45;&gt;128123470142672 -->
<g id="edge22" class="edge">
<title>128123469468176&#45;&gt;128123470142672</title>
<path fill="none" stroke="white" d="M376.09,-767.1C372.97,-785.96 372.02,-811.3 383.5,-830 387.81,-837.03 393.27,-843.26 399.43,-848.78"/>
<polygon fill="white" stroke="white" points="407.6,-855.4 402.03,-846.38 399.83,-849.1 407.6,-855.4"/>
<text text-anchor="middle" x="452.5" y="-818.8" font-family="Times,serif" font-size="14.00" fill="white">5 row(s)/1 chunk(s)</text>
</g>
<!-- 128123469468176&#45;&gt;128123470144272 -->
<g id="edge24" class="edge">
<title>128123469468176&#45;&gt;128123470144272</title>
<path fill="none" stroke="white" d="M432.32,-750.94C525.49,-769.62 717.94,-808.64 731.5,-815 741.24,-819.57 741.09,-824.78 750.5,-830 766.12,-838.67 783.27,-846.49 800.4,-853.37"/>
<polygon fill="white" stroke="white" points="809.91,-857.1 801.88,-850.19 800.6,-853.45 809.91,-857.1"/>
<text text-anchor="middle" x="819.5" y="-818.8" font-family="Times,serif" font-size="14.00" fill="white">5 row(s)/1 chunk(s)</text>
</g>
<!-- 128123470142352 -->
<g id="node20" class="node">
<title>128123470142352</title>
<g id="a_node20"><a xlink:title="Output: 5 rows in 1 chunk filtered: 0, 2 ms 916 µs.&#10;Operator step runtimes:&#10; LeftSideMaterialize 62 µs 41 ns&#10; RightSideMaterialize 65 µs 885 ns&#10; LeftSideTransform 0 ns&#10; RightSideTransform 0 ns&#10; LeftSidePartition 55 µs 807 ns&#10; RightSidePartition 59 µs 523 ns&#10; LeftSideSortBuckets 938 µs 856 ns&#10; RightSideSortBuckets 1 ms 509 µs&#10; GatherRowIds 2 µs 947 ns&#10; FindJoinPartner 7 µs 429 ns&#10; OutputWriting 32 µs 789 ns.&#10;Radix bits: 8.">
<polygon fill="none" stroke="white" points="487,-609.5 278,-609.5 278,-540.5 487,-540.5 487,-609.5"/>
<text text-anchor="middle" x="382.5" y="-594.3" font-family="Times,serif" font-size="14.00" fill="white">JoinSimdSortMerge (Semi)</text>
<text text-anchor="middle" x="382.5" y="-579.3" font-family="Times,serif" font-size="14.00" fill="white">n_regionkey = r_regionkey</text>
<text text-anchor="middle" x="382.5" y="-548.3" font-family="Times,serif" font-size="14.00" fill="white">2 ms 916 µs</text>
</a>
</g>
</g>
<!-- 128123470142352&#45;&gt;128123469468176 -->
<g id="edge25" class="edge">
<title>128123470142352&#45;&gt;128123469468176</title>
<path fill="none" stroke="white" d="M382.5,-609.77C382.5,-636.89 382.5,-674.9 382.5,-702.68"/>
<polygon fill="white" stroke="white" points="379,-702.78 382.5,-712.78 386,-702.78 379,-702.78"/>
<text text-anchor="middle" x="451.5" y="-653.8" font-family="Times,serif" font-size="14.00" fill="white">5 row(s)/1 chunk(s)</text>
</g>
<!-- 128123469543952 -->
<g id="node21" class="node">
<title>128123469543952</title>
<g id="a_node21"><a xlink:title="Output: 25 rows in 1 chunk filtered: 0, 5 µs 712 ns.">
<polygon fill="none" stroke="white" points="354,-467 241,-467 241,-353 354,-353 354,-467"/>
<text text-anchor="middle" x="297.5" y="-451.8" font-family="Times,serif" font-size="14.00" fill="white">GetTable</text>
<text text-anchor="middle" x="297.5" y="-436.8" font-family="Times,serif" font-size="14.00" fill="white">(nation)</text>
<text text-anchor="middle" x="297.5" y="-421.8" font-family="Times,serif" font-size="14.00" fill="white">pruned:</text>
<text text-anchor="middle" x="297.5" y="-406.8" font-family="Times,serif" font-size="14.00" fill="white">0/1 chunk(s)</text>
<text text-anchor="middle" x="297.5" y="-391.8" font-family="Times,serif" font-size="14.00" fill="white">1/4 column(s)</text>
<text text-anchor="middle" x="297.5" y="-360.8" font-family="Times,serif" font-size="14.00" fill="white">5 µs 712 ns</text>
</a>
</g>
</g>
<!-- 128123469543952&#45;&gt;128123470142352 -->
<g id="edge26" class="edge">
<title>128123469543952&#45;&gt;128123470142352</title>
<path fill="none" stroke="white" d="M291.12,-467.17C291.75,-478.42 293.86,-489.89 298.5,-500 304.24,-512.51 313.23,-523.76 323.23,-533.49"/>
<polygon fill="white" stroke="white" points="323.29,-533.55 320.93,-536.13 330.66,-540.31 323.29,-533.55"/>
<text text-anchor="middle" x="372" y="-488.8" font-family="Times,serif" font-size="14.00" fill="white">25 row(s)/1 chunk(s)</text>
</g>
<!-- 128123469468688 -->
<g id="node22" class="node">
<title>128123469468688</title>
<g id="a_node22"><a xlink:title="Output: 1 row in 1 chunk filtered: 0, 13 µs 94 ns.">
<polygon fill="none" stroke="white" points="517,-437 418,-437 418,-383 517,-383 517,-437"/>
<text text-anchor="middle" x="467.5" y="-421.8" font-family="Times,serif" font-size="14.00" fill="white">Validate</text>
<text text-anchor="middle" x="467.5" y="-390.8" font-family="Times,serif" font-size="14.00" fill="white">13 µs 94 ns</text>
</a>
</g>
</g>
<!-- 128123469468688&#45;&gt;128123470142352 -->
<g id="edge27" class="edge">
<title>128123469468688&#45;&gt;128123470142352</title>
<path fill="none" stroke="white" d="M464.31,-437.05C461.29,-455.41 455.67,-480.17 445.5,-500 439.67,-511.37 431.77,-522.49 423.54,-532.52"/>
<polygon fill="white" stroke="white" points="416.91,-540.3 426.06,-534.96 423.39,-532.69 416.91,-540.3"/>
<text text-anchor="middle" x="520.5" y="-488.8" font-family="Times,serif" font-size="14.00" fill="white">1 row(s)/1 chunk(s)</text>
</g>
<!-- 128123470140112 -->
<g id="node23" class="node">
<title>128123470140112</title>
<g id="a_node23"><a xlink:title="Output: 1 row in 1 chunk filtered: 0, 29 µs 578 ns.&#10;Chunks: 0 skipped with no results, &#10;0 skipped with all matching, 0 scanned using binary search.">
<polygon fill="none" stroke="white" points="569,-302 366,-302 366,-218 569,-218 569,-302"/>
<text text-anchor="middle" x="467.5" y="-286.8" font-family="Times,serif" font-size="14.00" fill="white">TableScan</text>
<text text-anchor="middle" x="467.5" y="-271.8" font-family="Times,serif" font-size="14.00" fill="white">Impl: ColumnVsValue</text>
<text text-anchor="middle" x="467.5" y="-256.8" font-family="Times,serif" font-size="14.00" fill="white">r_name = &#39;MIDDLE EAST&#39;</text>
<text text-anchor="middle" x="467.5" y="-225.8" font-family="Times,serif" font-size="14.00" fill="white">29 µs 578 ns</text>
</a>
</g>
</g>
<!-- 128123470140112&#45;&gt;128123469468688 -->
<g id="edge28" class="edge">
<title>128123470140112&#45;&gt;128123469468688</title>
<path fill="none" stroke="white" d="M467.5,-302.23C467.5,-324.32 467.5,-351.31 467.5,-372.62"/>
<polygon fill="white" stroke="white" points="464,-372.88 467.5,-382.88 471,-372.88 464,-372.88"/>
<text text-anchor="middle" x="536.5" y="-323.8" font-family="Times,serif" font-size="14.00" fill="white">1 row(s)/1 chunk(s)</text>
</g>
<!-- 128123469539024 -->
<g id="node24" class="node">
<title>128123469539024</title>
<g id="a_node24"><a xlink:title="Output: 5 rows in 1 chunk filtered: 0, 36 µs 179 ns.">
<polygon fill="none" stroke="white" points="524,-140.5 411,-140.5 411,-26.5 524,-26.5 524,-140.5"/>
<text text-anchor="middle" x="467.5" y="-125.3" font-family="Times,serif" font-size="14.00" fill="white">GetTable</text>
<text text-anchor="middle" x="467.5" y="-110.3" font-family="Times,serif" font-size="14.00" fill="white">(region)</text>
<text text-anchor="middle" x="467.5" y="-95.3" font-family="Times,serif" font-size="14.00" fill="white">pruned:</text>
<text text-anchor="middle" x="467.5" y="-80.3" font-family="Times,serif" font-size="14.00" fill="white">0/1 chunk(s)</text>
<text text-anchor="middle" x="467.5" y="-65.3" font-family="Times,serif" font-size="14.00" fill="white">1/3 column(s)</text>
<text text-anchor="middle" x="467.5" y="-34.3" font-family="Times,serif" font-size="14.00" fill="white">36 µs 179 ns</text>
</a>
</g>
</g>
<!-- 128123469539024&#45;&gt;128123470140112 -->
<g id="edge29" class="edge">
<title>128123469539024&#45;&gt;128123470140112</title>
<path fill="none" stroke="white" d="M467.5,-140.67C467.5,-162.25 467.5,-186.74 467.5,-207.83"/>
<polygon fill="white" stroke="white" points="464,-207.87 467.5,-217.87 471,-207.87 464,-207.87"/>
<text text-anchor="middle" x="536.5" y="-188.8" font-family="Times,serif" font-size="14.00" fill="white">5 row(s)/1 chunk(s)</text>
</g>
<!-- 128123469436944 -->
<g id="node25" class="node">
<title>128123469436944</title>
<g id="a_node25"><a xlink:title="Output: 23610 rows in 1 chunk filtered: 0, 43 ms 231 µs.&#10;Operator step runtimes:&#10; GroupByKeyPartitioning 24 ms 766 µs&#10; Aggregating 18 ms 194 µs&#10; GroupByColumnsWriting 153 µs 646 ns&#10; AggregateColumnsWriting 87 µs 346 ns&#10; OutputWriting 4 µs 982 ns.">
<polygon fill="none" stroke="white" stroke-width="7.03" points="716.5,-1703 536.5,-1703 536.5,-1619 716.5,-1619 716.5,-1703"/>
<text text-anchor="middle" x="626.5" y="-1687.8" font-family="Times,serif" font-size="14.00" fill="white">AggregateHash</text>
<text text-anchor="middle" x="626.5" y="-1672.8" font-family="Times,serif" font-size="14.00" fill="white">GroupBy {ps_partkey}</text>
<text text-anchor="middle" x="626.5" y="-1657.8" font-family="Times,serif" font-size="14.00" fill="white">MIN(ps_supplycost)</text>
<text text-anchor="middle" x="626.5" y="-1626.8" font-family="Times,serif" font-size="14.00" fill="white">43 ms 231 µs</text>
</a>
</g>
</g>
<!-- 128123469436944&#45;&gt;128123470144912 -->
<g id="edge30" class="edge">
<title>128123469436944&#45;&gt;128123470144912</title>
<path fill="none" stroke="white" d="M622.37,-1703.05C616.97,-1738.23 604.61,-1788.52 576.5,-1823 573.23,-1827.01 569.62,-1830.79 565.75,-1834.35"/>
<polygon fill="white" stroke="white" points="558.03,-1840.92 567.91,-1837.1 565.64,-1834.44 558.03,-1840.92"/>
<text text-anchor="middle" x="707.5" y="-1751.8" font-family="Times,serif" font-size="14.00" fill="white">23,610 row(s)/1 chunk(s)</text>
</g>
<!-- 128123469469968 -->
<g id="node26" class="node">
<title>128123469469968</title>
<g id="a_node26"><a xlink:title="Output: 32084 rows in 58 chunks filtered: 0, 558 µs 704 ns.">
<polygon fill="none" stroke="white" points="733,-1481 616,-1481 616,-1427 733,-1427 733,-1481"/>
<text text-anchor="middle" x="674.5" y="-1465.8" font-family="Times,serif" font-size="14.00" fill="white">Validate</text>
<text text-anchor="middle" x="674.5" y="-1434.8" font-family="Times,serif" font-size="14.00" fill="white">558 µs 704 ns</text>
</a>
</g>
</g>
<!-- 128123469469968&#45;&gt;128123469436944 -->
<g id="edge31" class="edge">
<title>128123469469968&#45;&gt;128123469436944</title>
<path fill="none" stroke="white" d="M668.32,-1481.38C660.81,-1513.48 647.95,-1568.4 638.47,-1608.89"/>
<polygon fill="white" stroke="white" points="635.01,-1608.31 636.14,-1618.85 641.82,-1609.91 635.01,-1608.31"/>
<text text-anchor="middle" x="757" y="-1502.8" font-family="Times,serif" font-size="14.00" fill="white">32,084 row(s)/58 chunk(s)</text>
</g>
<!-- 128123470144592&#45;&gt;128123469469968 -->
<g id="edge32" class="edge">
<title>128123470144592&#45;&gt;128123469469968</title>
<path fill="none" stroke="white" d="M739.09,-1376.25C727.66,-1389.84 714.5,-1405.47 703.05,-1419.07"/>
<polygon fill="white" stroke="white" points="700.3,-1416.91 696.54,-1426.81 705.66,-1421.42 700.3,-1416.91"/>
<text text-anchor="middle" x="817" y="-1397.8" font-family="Times,serif" font-size="14.00" fill="white">32,084 row(s)/58 chunk(s)</text>
</g>
<!-- 128123469469712 -->
<g id="node28" class="node">
<title>128123469469712</title>
<g id="a_node28"><a xlink:title="Output: 100102 rows in 5 chunks filtered: 0, 1 ms 480 µs.">
<polygon fill="none" stroke="white" points="1025.5,-1169 921.5,-1169 921.5,-1115 1025.5,-1115 1025.5,-1169"/>
<text text-anchor="middle" x="973.5" y="-1153.8" font-family="Times,serif" font-size="14.00" fill="white">Validate</text>
<text text-anchor="middle" x="973.5" y="-1122.8" font-family="Times,serif" font-size="14.00" fill="white">1 ms 480 µs</text>
</a>
</g>
</g>
<!-- 128123469469712&#45;&gt;128123470144592 -->
<g id="edge33" class="edge">
<title>128123469469712&#45;&gt;128123470144592</title>
<path fill="none" stroke="white" d="M979.81,-1169.27C985.84,-1201.35 990.38,-1255.49 962.5,-1289 951.11,-1302.69 918.01,-1313.63 882.23,-1321.84"/>
<polygon fill="white" stroke="white" points="872.08,-1324.09 882.6,-1325.34 881.85,-1321.93 872.08,-1324.09"/>
<text text-anchor="middle" x="1077" y="-1217.8" font-family="Times,serif" font-size="14.00" fill="white">100,102 row(s)/5 chunk(s)</text>
</g>
<!-- 128123470144272&#45;&gt;128123469469712 -->
<g id="edge34" class="edge">
<title>128123470144272&#45;&gt;128123469469712</title>
<path fill="none" stroke="white" d="M922.46,-924.72C933.53,-971.65 953.52,-1056.34 964.92,-1104.65"/>
<polygon fill="white" stroke="white" points="961.58,-1105.73 967.28,-1114.66 968.39,-1104.13 961.58,-1105.73"/>
<text text-anchor="middle" x="1025" y="-953.8" font-family="Times,serif" font-size="14.00" fill="white">100,102 row(s)/5 chunk(s)</text>
</g>
<!-- 0 -->
<g id="node30" class="node">
<title>0</title>
<polygon fill="none" stroke="white" points="542.5,-0.5 542.5,-166.5 888.5,-166.5 888.5,-0.5 542.5,-0.5"/>
<text text-anchor="middle" x="715.5" y="-151.3" font-family="Times,serif" font-size="14.00" fill="white">Total by operator</text>
<polyline fill="none" stroke="white" points="542.5,-143.5 888.5,-143.5 "/>
<text text-anchor="end" x="696.5" y="-128.3" font-family="Times,serif" font-size="14.00" fill="white">JoinSimdSortMerge </text>
<text text-anchor="end" x="696.5" y="-113.3" font-family="Times,serif" font-size="14.00" fill="white"> AggregateHash </text>
<text text-anchor="end" x="696.5" y="-98.3" font-family="Times,serif" font-size="14.00" fill="white"> Sort </text>
<text text-anchor="end" x="696.5" y="-83.3" font-family="Times,serif" font-size="14.00" fill="white"> GetTable </text>
<text text-anchor="end" x="696.5" y="-68.3" font-family="Times,serif" font-size="14.00" fill="white"> Validate </text>
<text text-anchor="end" x="696.5" y="-53.3" font-family="Times,serif" font-size="14.00" fill="white"> TableScan </text>
<text text-anchor="end" x="696.5" y="-38.3" font-family="Times,serif" font-size="14.00" fill="white"> Limit </text>
<text text-anchor="end" x="696.5" y="-23.3" font-family="Times,serif" font-size="14.00" fill="white"> Projection </text>
<text text-anchor="end" x="696.5" y="-8.3" font-family="Times,serif" font-size="14.00" fill="white">total</text>
<polyline fill="none" stroke="white" points="704.5,-0.5 704.5,-143.5 "/>
<text text-anchor="start" x="712.5" y="-128.3" font-family="Times,serif" font-size="14.00" fill="white">313 ms 847 µs </text>
<text text-anchor="start" x="712.5" y="-113.3" font-family="Times,serif" font-size="14.00" fill="white"> 43 ms 231 µs </text>
<text text-anchor="start" x="712.5" y="-98.3" font-family="Times,serif" font-size="14.00" fill="white"> 38 ms 669 µs </text>
<text text-anchor="start" x="712.5" y="-83.3" font-family="Times,serif" font-size="14.00" fill="white"> 3 ms 535 µs </text>
<text text-anchor="start" x="712.5" y="-68.3" font-family="Times,serif" font-size="14.00" fill="white"> 3 ms 165 µs </text>
<text text-anchor="start" x="712.5" y="-53.3" font-family="Times,serif" font-size="14.00" fill="white"> 2 ms 171 µs </text>
<text text-anchor="start" x="712.5" y="-38.3" font-family="Times,serif" font-size="14.00" fill="white"> 17 µs 324 ns </text>
<text text-anchor="start" x="712.5" y="-23.3" font-family="Times,serif" font-size="14.00" fill="white"> 9 µs 8 ns </text>
<text text-anchor="start" x="712.5" y="-8.3" font-family="Times,serif" font-size="14.00" fill="white"> 404 ms 644 µs </text>
<polyline fill="none" stroke="white" points="835.5,-0.5 835.5,-143.5 "/>
<text text-anchor="start" x="843.5" y="-128.3" font-family="Times,serif" font-size="14.00" fill="white">78 %</text>
<text text-anchor="start" x="843.5" y="-113.3" font-family="Times,serif" font-size="14.00" fill="white">11 %</text>
<text text-anchor="start" x="843.5" y="-98.3" font-family="Times,serif" font-size="14.00" fill="white">10 %</text>
<text text-anchor="start" x="843.5" y="-83.3" font-family="Times,serif" font-size="14.00" fill="white">1 %</text>
<text text-anchor="start" x="843.5" y="-68.3" font-family="Times,serif" font-size="14.00" fill="white">1 %</text>
<text text-anchor="start" x="843.5" y="-53.3" font-family="Times,serif" font-size="14.00" fill="white">1 %</text>
<text text-anchor="start" x="843.5" y="-38.3" font-family="Times,serif" font-size="14.00" fill="white">0 %</text>
<text text-anchor="start" x="843.5" y="-23.3" font-family="Times,serif" font-size="14.00" fill="white">0 %</text>
<text text-anchor="start" x="843.5" y="-8.3" font-family="Times,serif" font-size="14.00" fill="white"> </text>
</g>
</g>
</svg>
