<?xml version="1.0" encoding="UTF-8" standalone="no"?>
<!DOCTYPE svg PUBLIC "-//W3C//DTD SVG 1.1//EN"
 "http://www.w3.org/Graphics/SVG/1.1/DTD/svg11.dtd">
<!-- Generated by graphviz version 2.43.0 (0)
 -->
<!-- Title: G Pages: 1 -->
<svg width="749pt" height="1805pt"
 viewBox="0.00 0.00 748.50 1805.00" xmlns="http://www.w3.org/2000/svg" xmlns:xlink="http://www.w3.org/1999/xlink">
<g id="graph0" class="graph" transform="scale(1 1) rotate(0) translate(4 1801)">
<title>G</title>
<polygon fill="black" stroke="transparent" points="-4,4 -4,-1801 744.5,-1801 744.5,4 -4,4"/>
<text text-anchor="middle" x="319.5" y="-1781.8" font-family="Times,serif" font-size="14.00" fill="white">For tooltips with advanced information, hover your mouse over vertices or edge labels.</text>
<!-- 127962370848464 -->
<g id="node1" class="node">
<title>127962370848464</title>
<g id="a_node1"><a xlink:title="Output: 7 rows in 1 chunk filtered: 0, 2 µs 524 ns.">
<polygon fill="none" stroke="white" points="441.5,-1742 193.5,-1742 193.5,-1673 441.5,-1673 441.5,-1742"/>
<text text-anchor="middle" x="317.5" y="-1726.8" font-family="Times,serif" font-size="14.00" fill="white">Alias</text>
<text text-anchor="middle" x="317.5" y="-1711.8" font-family="Times,serif" font-size="14.00" fill="white">[cntrycode, numcust, totacctbal]</text>
<text text-anchor="middle" x="317.5" y="-1680.8" font-family="Times,serif" font-size="14.00" fill="white">2 µs 524 ns</text>
</a>
</g>
</g>
<!-- 127962370848144 -->
<g id="node2" class="node">
<title>127962370848144</title>
<g id="a_node2"><a xlink:title="Output: 7 rows in 1 chunk filtered: 0, 21 µs 431 ns.&#10;Operator step runtimes:&#10; MaterializeSortColumns 5 µs 814 ns&#10; Sort 2 µs 117 ns&#10; TemporaryResultWriting 125 ns&#10; WriteOutput 11 µs 793 ns.">
<polygon fill="none" stroke="white" points="371.5,-1622 263.5,-1622 263.5,-1568 371.5,-1568 371.5,-1622"/>
<text text-anchor="middle" x="317.5" y="-1606.8" font-family="Times,serif" font-size="14.00" fill="white">Sort</text>
<text text-anchor="middle" x="317.5" y="-1575.8" font-family="Times,serif" font-size="14.00" fill="white">21 µs 431 ns</text>
</a>
</g>
</g>
<!-- 127962370848144&#45;&gt;127962370848464 -->
<g id="edge1" class="edge">
<title>127962370848144&#45;&gt;127962370848464</title>
<path fill="none" stroke="white" d="M317.5,-1622.19C317.5,-1634.29 317.5,-1649 317.5,-1662.72"/>
<polygon fill="white" stroke="white" points="314,-1662.95 317.5,-1672.95 321,-1662.96 314,-1662.95"/>
<text text-anchor="middle" x="386.5" y="-1643.8" font-family="Times,serif" font-size="14.00" fill="white">7 row(s)/1 chunk(s)</text>
</g>
<!-- 128124033495568 -->
<g id="node3" class="node">
<title>128124033495568</title>
<g id="a_node3"><a xlink:title="Output: 7 rows in 1 chunk filtered: 0, 42 ms 920 µs.&#10;Operator step runtimes:&#10; GroupByKeyPartitioning 3 ms 894 µs&#10; Aggregating 38 ms 955 µs&#10; GroupByColumnsWriting 6 µs 36 ns&#10; AggregateColumnsWriting 10 µs 125 ns&#10; OutputWriting 5 µs 256 ns.">
<polygon fill="none" stroke="white" stroke-width="4.52" points="447,-1517 188,-1517 188,-1418 447,-1418 447,-1517"/>
<text text-anchor="middle" x="317.5" y="-1501.8" font-family="Times,serif" font-size="14.00" fill="white">AggregateHash</text>
<text text-anchor="middle" x="317.5" y="-1486.8" font-family="Times,serif" font-size="14.00" fill="white">GroupBy {SUBSTR(c_phone,1,2)}</text>
<text text-anchor="middle" x="317.5" y="-1471.8" font-family="Times,serif" font-size="14.00" fill="white">COUNT(*), </text>
<text text-anchor="middle" x="317.5" y="-1456.8" font-family="Times,serif" font-size="14.00" fill="white">SUM(c_acctbal)</text>
<text text-anchor="middle" x="317.5" y="-1425.8" font-family="Times,serif" font-size="14.00" fill="white">42 ms 920 µs</text>
</a>
</g>
</g>
<!-- 128124033495568&#45;&gt;127962370848144 -->
<g id="edge2" class="edge">
<title>128124033495568&#45;&gt;127962370848144</title>
<path fill="none" stroke="white" d="M317.5,-1517.02C317.5,-1530.49 317.5,-1544.89 317.5,-1557.54"/>
<polygon fill="white" stroke="white" points="314,-1557.7 317.5,-1567.7 321,-1557.7 314,-1557.7"/>
<text text-anchor="middle" x="386.5" y="-1538.8" font-family="Times,serif" font-size="14.00" fill="white">7 row(s)/1 chunk(s)</text>
</g>
<!-- 127962370847824 -->
<g id="node4" class="node">
<title>127962370847824</title>
<g id="a_node4"><a xlink:title="Output: 316859 rows in 256 chunks filtered: 0, 79 µs 875 ns.">
<polygon fill="none" stroke="white" points="403.5,-1367 231.5,-1367 231.5,-1298 403.5,-1298 403.5,-1367"/>
<text text-anchor="middle" x="317.5" y="-1351.8" font-family="Times,serif" font-size="14.00" fill="white">Alias</text>
<text text-anchor="middle" x="317.5" y="-1336.8" font-family="Times,serif" font-size="14.00" fill="white">[cntrycode, c_acctbal]</text>
<text text-anchor="middle" x="317.5" y="-1305.8" font-family="Times,serif" font-size="14.00" fill="white">79 µs 875 ns</text>
</a>
</g>
</g>
<!-- 127962370847824&#45;&gt;128124033495568 -->
<g id="edge3" class="edge">
<title>127962370847824&#45;&gt;128124033495568</title>
<path fill="none" stroke="white" d="M317.5,-1367.06C317.5,-1379.45 317.5,-1393.87 317.5,-1407.83"/>
<polygon fill="white" stroke="white" points="314,-1407.87 317.5,-1417.87 321,-1407.87 314,-1407.87"/>
<text text-anchor="middle" x="420" y="-1388.8" font-family="Times,serif" font-size="14.00" fill="white">316,859 row(s)/256 chunk(s)</text>
</g>
<!-- 127962370847504 -->
<g id="node5" class="node">
<title>127962370847504</title>
<g id="a_node5"><a xlink:title="Output: 316859 rows in 256 chunks filtered: 0, 22 ms 136 µs.&#10;Operator step runtimes:&#10; ForwardUnmodifiedColumns 154 µs 801 ns&#10; EvaluateNewColumns 21 ms 665 µs&#10; BuildOutput 250 µs 384 ns.">
<polygon fill="none" stroke="white" stroke-width="2.89" points="374,-1247 261,-1247 261,-1193 374,-1193 374,-1247"/>
<text text-anchor="middle" x="317.5" y="-1231.8" font-family="Times,serif" font-size="14.00" fill="white">Projection</text>
<text text-anchor="middle" x="317.5" y="-1200.8" font-family="Times,serif" font-size="14.00" fill="white">22 ms 136 µs</text>
</a>
</g>
</g>
<!-- 127962370847504&#45;&gt;127962370847824 -->
<g id="edge4" class="edge">
<title>127962370847504&#45;&gt;127962370847824</title>
<path fill="none" stroke="white" d="M317.5,-1247.19C317.5,-1259.29 317.5,-1274 317.5,-1287.72"/>
<polygon fill="white" stroke="white" points="314,-1287.95 317.5,-1297.95 321,-1287.96 314,-1287.95"/>
<text text-anchor="middle" x="420" y="-1268.8" font-family="Times,serif" font-size="14.00" fill="white">316,859 row(s)/256 chunk(s)</text>
</g>
<!-- 127962370846544 -->
<g id="node6" class="node">
<title>127962370846544</title>
<g id="a_node6"><a xlink:title="Output: 316859 rows in 256 chunks filtered: 0, 176 ms 46 µs.&#10;Operator step runtimes:&#10; LeftSideMaterialize 2 ms 922 µs&#10; RightSideMaterialize 33 ms 85 µs&#10; LeftSideTransform 0 ns&#10; RightSideTransform 0 ns&#10; LeftSidePartition 7 ms 275 µs&#10; RightSidePartition 62 ms 337 µs&#10; LeftSideSortBuckets 692 µs 850 ns&#10; RightSideSortBuckets 56 ms 62 µs&#10; GatherRowIds 5 µs 666 ns&#10; FindJoinPartner 7 ms 959 µs&#10; OutputWriting 1 ms 501 µs.&#10;Radix bits: 8.">
<polygon fill="none" stroke="white" stroke-width="8" points="461,-1142 174,-1142 174,-1073 461,-1073 461,-1142"/>
<text text-anchor="middle" x="317.5" y="-1126.8" font-family="Times,serif" font-size="14.00" fill="white">JoinSimdSortMerge (AntiNullAsFalse)</text>
<text text-anchor="middle" x="317.5" y="-1111.8" font-family="Times,serif" font-size="14.00" fill="white">c_custkey = o_custkey</text>
<text text-anchor="middle" x="317.5" y="-1080.8" font-family="Times,serif" font-size="14.00" fill="white">176 ms 46 µs</text>
</a>
</g>
</g>
<!-- 127962370846544&#45;&gt;127962370847504 -->
<g id="edge5" class="edge">
<title>127962370846544&#45;&gt;127962370847504</title>
<path fill="none" stroke="white" d="M317.5,-1142.25C317.5,-1155.07 317.5,-1169.73 317.5,-1182.77"/>
<polygon fill="white" stroke="white" points="314,-1182.81 317.5,-1192.81 321,-1182.81 314,-1182.81"/>
<text text-anchor="middle" x="420" y="-1163.8" font-family="Times,serif" font-size="14.00" fill="white">316,859 row(s)/256 chunk(s)</text>
</g>
<!-- 127962370845584 -->
<g id="node7" class="node">
<title>127962370845584</title>
<g id="a_node7"><a xlink:title="Output: 953804 rows in 115 chunks filtered: 0, 38 ms 467 µs.&#10;Chunks: 0 skipped with no results, &#10;0 skipped with all matching, 0 scanned using binary search.">
<polygon fill="none" stroke="white" stroke-width="4.25" points="368,-1022 19,-1022 19,-923 368,-923 368,-1022"/>
<text text-anchor="middle" x="193.5" y="-1006.8" font-family="Times,serif" font-size="14.00" fill="white">TableScan</text>
<text text-anchor="middle" x="193.5" y="-991.8" font-family="Times,serif" font-size="14.00" fill="white">Impl: ExpressionEvaluator</text>
<text text-anchor="middle" x="193.5" y="-976.8" font-family="Times,serif" font-size="14.00" fill="white">(SUBSTR(c_phone,1,2)) IN (&#39;17&#39;, &#39;13&#39;, &#39;23&#39;, &#39;11&#39;,</text>
<text text-anchor="middle" x="193.5" y="-961.8" font-family="Times,serif" font-size="14.00" fill="white">&#39;21&#39;, &#39;26&#39;, &#39;31&#39;)</text>
<text text-anchor="middle" x="193.5" y="-930.8" font-family="Times,serif" font-size="14.00" fill="white">38 ms 467 µs</text>
</a>
</g>
</g>
<!-- 127962370845584&#45;&gt;127962370846544 -->
<g id="edge6" class="edge">
<title>127962370845584&#45;&gt;127962370846544</title>
<path fill="none" stroke="white" d="M196.94,-1022.34C199.65,-1033.96 204.14,-1045.67 211.5,-1055 214.74,-1059.11 218.4,-1062.91 222.35,-1066.43"/>
<polygon fill="white" stroke="white" points="222.51,-1066.56 220.3,-1069.28 230.28,-1072.85 222.51,-1066.56"/>
<text text-anchor="middle" x="314" y="-1043.8" font-family="Times,serif" font-size="14.00" fill="white">953,804 row(s)/115 chunk(s)</text>
</g>
<!-- 127962370845264 -->
<g id="node8" class="node">
<title>127962370845264</title>
<g id="a_node8"><a xlink:title="Output: 3409762 rows in 115 chunks filtered: 0, 1 ms 656 µs.&#10;Chunks: 0 skipped with no results, &#10;0 skipped with all matching, 0 scanned using binary search.">
<polygon fill="none" stroke="white" points="365,-857 0,-857 0,-773 365,-773 365,-857"/>
<text text-anchor="middle" x="182.5" y="-841.8" font-family="Times,serif" font-size="14.00" fill="white">TableScan</text>
<text text-anchor="middle" x="182.5" y="-826.8" font-family="Times,serif" font-size="14.00" fill="white">Impl: ColumnVsValue</text>
<text text-anchor="middle" x="182.5" y="-811.8" font-family="Times,serif" font-size="14.00" fill="white">c_acctbal &gt; SUBQUERY (PQP, 0x74873383b410)</text>
<text text-anchor="middle" x="182.5" y="-780.8" font-family="Times,serif" font-size="14.00" fill="white">1 ms 656 µs</text>
</a>
</g>
</g>
<!-- 127962370845264&#45;&gt;127962370845584 -->
<g id="edge7" class="edge">
<title>127962370845264&#45;&gt;127962370845584</title>
<path fill="none" stroke="white" d="M185.42,-857.26C186.62,-874.27 188.04,-894.29 189.35,-912.77"/>
<polygon fill="white" stroke="white" points="185.86,-913.13 190.06,-922.86 192.84,-912.64 185.86,-913.13"/>
<text text-anchor="middle" x="299" y="-893.8" font-family="Times,serif" font-size="14.00" fill="white">3,409,762 row(s)/115 chunk(s)</text>
</g>
<!-- 128124033499408 -->
<g id="node9" class="node">
<title>128124033499408</title>
<g id="a_node9"><a xlink:title="Output: 7500000 rows in 115 chunks filtered: 0, 420 µs 600 ns.">
<polygon fill="none" stroke="white" points="120,-692 3,-692 3,-638 120,-638 120,-692"/>
<text text-anchor="middle" x="61.5" y="-676.8" font-family="Times,serif" font-size="14.00" fill="white">Validate</text>
<text text-anchor="middle" x="61.5" y="-645.8" font-family="Times,serif" font-size="14.00" fill="white">420 µs 600 ns</text>
</a>
</g>
</g>
<!-- 128124033499408&#45;&gt;127962370845264 -->
<g id="edge8" class="edge">
<title>128124033499408&#45;&gt;127962370845264</title>
<path fill="none" stroke="white" stroke-width="2.32" d="M57.25,-692.35C56.17,-707.29 57.17,-725.79 65.5,-740 71.28,-749.86 78.96,-758.61 87.62,-766.33"/>
<polygon fill="white" stroke="white" stroke-width="2.32" points="85.53,-769.14 95.46,-772.84 90,-763.76 85.53,-769.14"/>
<text text-anchor="middle" x="175" y="-728.8" font-family="Times,serif" font-size="14.00" fill="white">7,500,000 row(s)/115 chunk(s)</text>
</g>
<!-- 127961665148240 -->
<g id="node10" class="node">
<title>127961665148240</title>
<g id="a_node10"><a xlink:title="Output: 7500000 rows in 115 chunks filtered: 0, 188 µs 675 ns.">
<polygon fill="none" stroke="white" points="122.5,-572 0.5,-572 0.5,-458 122.5,-458 122.5,-572"/>
<text text-anchor="middle" x="61.5" y="-556.8" font-family="Times,serif" font-size="14.00" fill="white">GetTable</text>
<text text-anchor="middle" x="61.5" y="-541.8" font-family="Times,serif" font-size="14.00" fill="white">(customer)</text>
<text text-anchor="middle" x="61.5" y="-526.8" font-family="Times,serif" font-size="14.00" fill="white">pruned:</text>
<text text-anchor="middle" x="61.5" y="-511.8" font-family="Times,serif" font-size="14.00" fill="white">0/115 chunk(s)</text>
<text text-anchor="middle" x="61.5" y="-496.8" font-family="Times,serif" font-size="14.00" fill="white">5/8 column(s)</text>
<text text-anchor="middle" x="61.5" y="-465.8" font-family="Times,serif" font-size="14.00" fill="white">188 µs 675 ns</text>
</a>
</g>
</g>
<!-- 127961665148240&#45;&gt;128124033499408 -->
<g id="edge9" class="edge">
<title>127961665148240&#45;&gt;128124033499408</title>
<path fill="none" stroke="white" stroke-width="2.32" d="M61.5,-572.37C61.5,-590.87 61.5,-610.92 61.5,-627.54"/>
<polygon fill="white" stroke="white" stroke-width="2.32" points="58,-627.92 61.5,-637.92 65,-627.92 58,-627.92"/>
<text text-anchor="middle" x="171" y="-593.8" font-family="Times,serif" font-size="14.00" fill="white">7,500,000 row(s)/115 chunk(s)</text>
</g>
<!-- 128124033676304 -->
<g id="node11" class="node">
<title>128124033676304</title>
<g id="a_node11"><a xlink:title="Output: 1 row in 1 chunk filtered: 0, 23 ms 204 µs.&#10;Operator step runtimes:&#10; GroupByKeyPartitioning 43 ns&#10; Aggregating 23 ms 179 µs&#10; GroupByColumnsWriting 530 ns&#10; AggregateColumnsWriting 12 µs 370 ns&#10; OutputWriting 5 µs 484 ns.">
<polygon fill="none" stroke="white" stroke-width="3" points="371.5,-707 243.5,-707 243.5,-623 371.5,-623 371.5,-707"/>
<text text-anchor="middle" x="307.5" y="-691.8" font-family="Times,serif" font-size="14.00" fill="white">AggregateHash</text>
<text text-anchor="middle" x="307.5" y="-676.8" font-family="Times,serif" font-size="14.00" fill="white">GroupBy {}</text>
<text text-anchor="middle" x="307.5" y="-661.8" font-family="Times,serif" font-size="14.00" fill="white">AVG(c_acctbal)</text>
<text text-anchor="middle" x="307.5" y="-630.8" font-family="Times,serif" font-size="14.00" fill="white">23 ms 204 µs</text>
</a>
</g>
</g>
<!-- 128124033676304&#45;&gt;127962370845264 -->
<g id="edge10" class="edge">
<title>128124033676304&#45;&gt;127962370845264</title>
<path fill="none" stroke="white" stroke-dasharray="5,2" d="M299.7,-707.35C296.27,-718.63 291.4,-730.38 284.5,-740 277.63,-749.58 269.12,-758.41 259.98,-766.38"/>
<polygon fill="white" stroke="white" points="257.63,-763.78 252.18,-772.86 262.11,-769.16 257.63,-763.78"/>
<text text-anchor="middle" x="375" y="-728.8" font-family="Times,serif" font-size="14.00" fill="white">uncorrelated subquery</text>
</g>
<!-- 127962370847184 -->
<g id="node12" class="node">
<title>127962370847184</title>
<g id="a_node12"><a xlink:title="Output: 1908904 rows in 115 chunks filtered: 0, 78 ms 566 µs.&#10;Chunks: 0 skipped with no results, &#10;0 skipped with all matching, 0 scanned using binary search.">
<polygon fill="none" stroke="white" stroke-width="6.01" points="490,-564.5 141,-564.5 141,-465.5 490,-465.5 490,-564.5"/>
<text text-anchor="middle" x="315.5" y="-549.3" font-family="Times,serif" font-size="14.00" fill="white">TableScan</text>
<text text-anchor="middle" x="315.5" y="-534.3" font-family="Times,serif" font-size="14.00" fill="white">Impl: ExpressionEvaluator</text>
<text text-anchor="middle" x="315.5" y="-519.3" font-family="Times,serif" font-size="14.00" fill="white">(SUBSTR(c_phone,1,2)) IN (&#39;17&#39;, &#39;13&#39;, &#39;23&#39;, &#39;11&#39;,</text>
<text text-anchor="middle" x="315.5" y="-504.3" font-family="Times,serif" font-size="14.00" fill="white">&#39;21&#39;, &#39;26&#39;, &#39;31&#39;)</text>
<text text-anchor="middle" x="315.5" y="-473.3" font-family="Times,serif" font-size="14.00" fill="white">78 ms 566 µs</text>
</a>
</g>
</g>
<!-- 127962370847184&#45;&gt;128124033676304 -->
<g id="edge11" class="edge">
<title>127962370847184&#45;&gt;128124033676304</title>
<path fill="none" stroke="white" d="M312.86,-564.87C312.04,-580.06 311.13,-596.85 310.3,-612.23"/>
<polygon fill="white" stroke="white" points="306.78,-612.43 309.74,-622.61 313.77,-612.81 306.78,-612.43"/>
<text text-anchor="middle" x="421" y="-593.8" font-family="Times,serif" font-size="14.00" fill="white">1,908,904 row(s)/115 chunk(s)</text>
</g>
<!-- 128124033502224 -->
<g id="node13" class="node">
<title>128124033502224</title>
<g id="a_node13"><a xlink:title="Output: 6818542 rows in 115 chunks filtered: 0, 516 µs 41 ns.">
<polygon fill="none" stroke="white" points="369.5,-407 261.5,-407 261.5,-353 369.5,-353 369.5,-407"/>
<text text-anchor="middle" x="315.5" y="-391.8" font-family="Times,serif" font-size="14.00" fill="white">Validate</text>
<text text-anchor="middle" x="315.5" y="-360.8" font-family="Times,serif" font-size="14.00" fill="white">516 µs 41 ns</text>
</a>
</g>
</g>
<!-- 128124033502224&#45;&gt;127962370847184 -->
<g id="edge12" class="edge">
<title>128124033502224&#45;&gt;127962370847184</title>
<path fill="none" stroke="white" stroke-width="2.09" d="M315.5,-407.28C315.5,-421.01 315.5,-438.4 315.5,-455.14"/>
<polygon fill="white" stroke="white" stroke-width="2.09" points="312,-455.44 315.5,-465.44 319,-455.44 312,-455.44"/>
<text text-anchor="middle" x="425" y="-428.8" font-family="Times,serif" font-size="14.00" fill="white">6,818,542 row(s)/115 chunk(s)</text>
</g>
<!-- 127962370846864 -->
<g id="node14" class="node">
<title>127962370846864</title>
<g id="a_node14"><a xlink:title="Output: 6818542 rows in 115 chunks filtered: 0, 5 ms 664 µs.&#10;Chunks: 0 skipped with no results, &#10;0 skipped with all matching, 0 scanned using binary search.">
<polygon fill="none" stroke="white" points="400,-302 231,-302 231,-218 400,-218 400,-302"/>
<text text-anchor="middle" x="315.5" y="-286.8" font-family="Times,serif" font-size="14.00" fill="white">TableScan</text>
<text text-anchor="middle" x="315.5" y="-271.8" font-family="Times,serif" font-size="14.00" fill="white">Impl: ColumnVsValue</text>
<text text-anchor="middle" x="315.5" y="-256.8" font-family="Times,serif" font-size="14.00" fill="white">c_acctbal &gt; 0</text>
<text text-anchor="middle" x="315.5" y="-225.8" font-family="Times,serif" font-size="14.00" fill="white">5 ms 664 µs</text>
</a>
</g>
</g>
<!-- 127962370846864&#45;&gt;128124033502224 -->
<g id="edge13" class="edge">
<title>127962370846864&#45;&gt;128124033502224</title>
<path fill="none" stroke="white" stroke-width="2.09" d="M315.5,-302.27C315.5,-315.36 315.5,-329.72 315.5,-342.45"/>
<polygon fill="white" stroke="white" stroke-width="2.09" points="312,-342.69 315.5,-352.69 319,-342.69 312,-342.69"/>
<text text-anchor="middle" x="425" y="-323.8" font-family="Times,serif" font-size="14.00" fill="white">6,818,542 row(s)/115 chunk(s)</text>
</g>
<!-- 127961665148688 -->
<g id="node15" class="node">
<title>127961665148688</title>
<g id="a_node15"><a xlink:title="Output: 7500000 rows in 115 chunks filtered: 0, 666 µs 367 ns.">
<polygon fill="none" stroke="white" points="376.5,-140.5 254.5,-140.5 254.5,-26.5 376.5,-26.5 376.5,-140.5"/>
<text text-anchor="middle" x="315.5" y="-125.3" font-family="Times,serif" font-size="14.00" fill="white">GetTable</text>
<text text-anchor="middle" x="315.5" y="-110.3" font-family="Times,serif" font-size="14.00" fill="white">(customer)</text>
<text text-anchor="middle" x="315.5" y="-95.3" font-family="Times,serif" font-size="14.00" fill="white">pruned:</text>
<text text-anchor="middle" x="315.5" y="-80.3" font-family="Times,serif" font-size="14.00" fill="white">0/115 chunk(s)</text>
<text text-anchor="middle" x="315.5" y="-65.3" font-family="Times,serif" font-size="14.00" fill="white">5/8 column(s)</text>
<text text-anchor="middle" x="315.5" y="-34.3" font-family="Times,serif" font-size="14.00" fill="white">666 µs 367 ns</text>
</a>
</g>
</g>
<!-- 127961665148688&#45;&gt;127962370846864 -->
<g id="edge14" class="edge">
<title>127961665148688&#45;&gt;127962370846864</title>
<path fill="none" stroke="white" stroke-width="2.32" d="M315.5,-140.67C315.5,-162.25 315.5,-186.74 315.5,-207.83"/>
<polygon fill="white" stroke="white" stroke-width="2.32" points="312,-207.87 315.5,-217.87 319,-207.87 312,-207.87"/>
<text text-anchor="middle" x="425" y="-188.8" font-family="Times,serif" font-size="14.00" fill="white">7,500,000 row(s)/115 chunk(s)</text>
</g>
<!-- 128124033501968 -->
<g id="node16" class="node">
<title>128124033501968</title>
<g id="a_node16"><a xlink:title="Output: 75000000 rows in 1145 chunks filtered: 0, 38 ms 712 µs.">
<polygon fill="none" stroke="white" stroke-width="4.26" points="503,-999.5 390,-999.5 390,-945.5 503,-945.5 503,-999.5"/>
<text text-anchor="middle" x="446.5" y="-984.3" font-family="Times,serif" font-size="14.00" fill="white">Validate</text>
<text text-anchor="middle" x="446.5" y="-953.3" font-family="Times,serif" font-size="14.00" fill="white">38 ms 712 µs</text>
</a>
</g>
</g>
<!-- 128124033501968&#45;&gt;127962370846544 -->
<g id="edge15" class="edge">
<title>128124033501968&#45;&gt;127962370846544</title>
<path fill="none" stroke="white" stroke-width="8" d="M442.02,-999.53C437.89,-1016.92 430.25,-1039.38 416.5,-1055 412.82,-1059.18 408.72,-1063.07 404.33,-1066.69"/>
<polygon fill="white" stroke="white" stroke-width="8" points="396.17,-1072.89 408.37,-1072.41 404.13,-1066.84 396.17,-1072.89"/>
<text text-anchor="middle" x="547" y="-1043.8" font-family="Times,serif" font-size="14.00" fill="white">75,000,000 row(s)/1,145 chunk(s)</text>
</g>
<!-- 127961665149136 -->
<g id="node17" class="node">
<title>127961665149136</title>
<g id="a_node17"><a xlink:title="Output: 75000000 rows in 1145 chunks filtered: 0, 6 ms 70 µs.">
<polygon fill="none" stroke="white" points="514,-872 383,-872 383,-758 514,-758 514,-872"/>
<text text-anchor="middle" x="448.5" y="-856.8" font-family="Times,serif" font-size="14.00" fill="white">GetTable</text>
<text text-anchor="middle" x="448.5" y="-841.8" font-family="Times,serif" font-size="14.00" fill="white">(orders)</text>
<text text-anchor="middle" x="448.5" y="-826.8" font-family="Times,serif" font-size="14.00" fill="white">pruned:</text>
<text text-anchor="middle" x="448.5" y="-811.8" font-family="Times,serif" font-size="14.00" fill="white">0/1145 chunk(s)</text>
<text text-anchor="middle" x="448.5" y="-796.8" font-family="Times,serif" font-size="14.00" fill="white">8/9 column(s)</text>
<text text-anchor="middle" x="448.5" y="-765.8" font-family="Times,serif" font-size="14.00" fill="white">6 ms 70 µs</text>
</a>
</g>
</g>
<!-- 127961665149136&#45;&gt;128124033501968 -->
<g id="edge16" class="edge">
<title>127961665149136&#45;&gt;128124033501968</title>
<path fill="none" stroke="white" stroke-width="8" d="M447.78,-872.14C447.51,-893.18 447.21,-916.52 446.97,-935.28"/>
<polygon fill="white" stroke="white" stroke-width="8" points="439.96,-935.38 446.83,-945.47 453.96,-935.56 439.96,-935.38"/>
<text text-anchor="middle" x="568" y="-893.8" font-family="Times,serif" font-size="14.00" fill="white">75,000,000 row(s)/1,145 chunk(s)</text>
</g>
<!-- 0 -->
<g id="node18" class="node">
<title>0</title>
<polygon fill="none" stroke="white" points="394.5,-0.5 394.5,-166.5 740.5,-166.5 740.5,-0.5 394.5,-0.5"/>
<text text-anchor="middle" x="567.5" y="-151.3" font-family="Times,serif" font-size="14.00" fill="white">Total by operator</text>
<polyline fill="none" stroke="white" points="394.5,-143.5 740.5,-143.5 "/>
<text text-anchor="end" x="548.5" y="-128.3" font-family="Times,serif" font-size="14.00" fill="white">JoinSimdSortMerge </text>
<text text-anchor="end" x="548.5" y="-113.3" font-family="Times,serif" font-size="14.00" fill="white"> TableScan </text>
<text text-anchor="end" x="548.5" y="-98.3" font-family="Times,serif" font-size="14.00" fill="white"> AggregateHash </text>
<text text-anchor="end" x="548.5" y="-83.3" font-family="Times,serif" font-size="14.00" fill="white"> Validate </text>
<text text-anchor="end" x="548.5" y="-68.3" font-family="Times,serif" font-size="14.00" fill="white"> Projection </text>
<text text-anchor="end" x="548.5" y="-53.3" font-family="Times,serif" font-size="14.00" fill="white"> GetTable </text>
<text text-anchor="end" x="548.5" y="-38.3" font-family="Times,serif" font-size="14.00" fill="white"> Alias </text>
<text text-anchor="end" x="548.5" y="-23.3" font-family="Times,serif" font-size="14.00" fill="white"> Sort </text>
<text text-anchor="end" x="548.5" y="-8.3" font-family="Times,serif" font-size="14.00" fill="white">total</text>
<polyline fill="none" stroke="white" points="556.5,-0.5 556.5,-143.5 "/>
<text text-anchor="start" x="564.5" y="-128.3" font-family="Times,serif" font-size="14.00" fill="white">176 ms 46 µs </text>
<text text-anchor="start" x="564.5" y="-113.3" font-family="Times,serif" font-size="14.00" fill="white"> 124 ms 353 µs </text>
<text text-anchor="start" x="564.5" y="-98.3" font-family="Times,serif" font-size="14.00" fill="white"> 66 ms 123 µs </text>
<text text-anchor="start" x="564.5" y="-83.3" font-family="Times,serif" font-size="14.00" fill="white"> 39 ms 648 µs </text>
<text text-anchor="start" x="564.5" y="-68.3" font-family="Times,serif" font-size="14.00" fill="white"> 22 ms 136 µs </text>
<text text-anchor="start" x="564.5" y="-53.3" font-family="Times,serif" font-size="14.00" fill="white"> 6 ms 925 µs </text>
<text text-anchor="start" x="564.5" y="-38.3" font-family="Times,serif" font-size="14.00" fill="white"> 82 µs 399 ns </text>
<text text-anchor="start" x="564.5" y="-23.3" font-family="Times,serif" font-size="14.00" fill="white"> 21 µs 431 ns </text>
<text text-anchor="start" x="564.5" y="-8.3" font-family="Times,serif" font-size="14.00" fill="white"> 435 ms 335 µs </text>
<polyline fill="none" stroke="white" points="687.5,-0.5 687.5,-143.5 "/>
<text text-anchor="start" x="695.5" y="-128.3" font-family="Times,serif" font-size="14.00" fill="white">40 %</text>
<text text-anchor="start" x="695.5" y="-113.3" font-family="Times,serif" font-size="14.00" fill="white">29 %</text>
<text text-anchor="start" x="695.5" y="-98.3" font-family="Times,serif" font-size="14.00" fill="white">15 %</text>
<text text-anchor="start" x="695.5" y="-83.3" font-family="Times,serif" font-size="14.00" fill="white">9 %</text>
<text text-anchor="start" x="695.5" y="-68.3" font-family="Times,serif" font-size="14.00" fill="white">5 %</text>
<text text-anchor="start" x="695.5" y="-53.3" font-family="Times,serif" font-size="14.00" fill="white">2 %</text>
<text text-anchor="start" x="695.5" y="-38.3" font-family="Times,serif" font-size="14.00" fill="white">0 %</text>
<text text-anchor="start" x="695.5" y="-23.3" font-family="Times,serif" font-size="14.00" fill="white">0 %</text>
<text text-anchor="start" x="695.5" y="-8.3" font-family="Times,serif" font-size="14.00" fill="white"> </text>
</g>
</g>
</svg>
