<?xml version="1.0" encoding="UTF-8" standalone="no"?>
<!DOCTYPE svg PUBLIC "-//W3C//DTD SVG 1.1//EN"
 "http://www.w3.org/Graphics/SVG/1.1/DTD/svg11.dtd">
<!-- Generated by graphviz version 2.43.0 (0)
 -->
<!-- Title: G Pages: 1 -->
<svg width="889pt" height="1895pt"
 viewBox="0.00 0.00 888.50 1895.00" xmlns="http://www.w3.org/2000/svg" xmlns:xlink="http://www.w3.org/1999/xlink">
<g id="graph0" class="graph" transform="scale(1 1) rotate(0) translate(4 1891)">
<title>G</title>
<polygon fill="black" stroke="transparent" points="-4,4 -4,-1891 884.5,-1891 884.5,4 -4,4"/>
<text text-anchor="middle" x="319.5" y="-1871.8" font-family="Times,serif" font-size="14.00" fill="white">For tooltips with advanced information, hover your mouse over vertices or edge labels.</text>
<!-- 128123600051984 -->
<g id="node1" class="node">
<title>128123600051984</title>
<g id="a_node1"><a xlink:title="Output: 2 rows in 1 chunk filtered: 0, 2 µs 677 ns.">
<polygon fill="none" stroke="white" points="632,-1832 291,-1832 291,-1763 632,-1763 632,-1832"/>
<text text-anchor="middle" x="461.5" y="-1816.8" font-family="Times,serif" font-size="14.00" fill="white">Alias</text>
<text text-anchor="middle" x="461.5" y="-1801.8" font-family="Times,serif" font-size="14.00" fill="white">[l_shipmode, high_line_count, low_line_count]</text>
<text text-anchor="middle" x="461.5" y="-1770.8" font-family="Times,serif" font-size="14.00" fill="white">2 µs 677 ns</text>
</a>
</g>
</g>
<!-- 128123600051664 -->
<g id="node2" class="node">
<title>128123600051664</title>
<g id="a_node2"><a xlink:title="Output: 2 rows in 1 chunk filtered: 0, 32 µs 310 ns.&#10;Operator step runtimes:&#10; MaterializeSortColumns 21 µs 884 ns&#10; Sort 1 µs 778 ns&#10; TemporaryResultWriting 192 ns&#10; WriteOutput 6 µs 730 ns.">
<polygon fill="none" stroke="white" points="515.5,-1712 407.5,-1712 407.5,-1658 515.5,-1658 515.5,-1712"/>
<text text-anchor="middle" x="461.5" y="-1696.8" font-family="Times,serif" font-size="14.00" fill="white">Sort</text>
<text text-anchor="middle" x="461.5" y="-1665.8" font-family="Times,serif" font-size="14.00" fill="white">32 µs 310 ns</text>
</a>
</g>
</g>
<!-- 128123600051664&#45;&gt;128123600051984 -->
<g id="edge1" class="edge">
<title>128123600051664&#45;&gt;128123600051984</title>
<path fill="none" stroke="white" d="M461.5,-1712.19C461.5,-1724.29 461.5,-1739 461.5,-1752.72"/>
<polygon fill="white" stroke="white" points="458,-1752.95 461.5,-1762.95 465,-1752.96 458,-1752.95"/>
<text text-anchor="middle" x="530.5" y="-1733.8" font-family="Times,serif" font-size="14.00" fill="white">2 row(s)/1 chunk(s)</text>
</g>
<!-- 128123987755536 -->
<g id="node3" class="node">
<title>128123987755536</title>
<g id="a_node3"><a xlink:title="Output: 2 rows in 1 chunk filtered: 0, 344 ms 489 µs.&#10;Operator step runtimes:&#10; GroupByKeyPartitioning 316 ms 463 µs&#10; Aggregating 27 ms 962 µs&#10; GroupByColumnsWriting 4 µs 913 ns&#10; AggregateColumnsWriting 14 µs 588 ns&#10; OutputWriting 6 µs 671 ns.">
<polygon fill="none" stroke="white" stroke-width="6.77" points="669,-1607 254,-1607 254,-1478 669,-1478 669,-1607"/>
<text text-anchor="middle" x="461.5" y="-1591.8" font-family="Times,serif" font-size="14.00" fill="white">AggregateHash</text>
<text text-anchor="middle" x="461.5" y="-1576.8" font-family="Times,serif" font-size="14.00" fill="white">GroupBy {l_shipmode}</text>
<text text-anchor="middle" x="461.5" y="-1561.8" font-family="Times,serif" font-size="14.00" fill="white">SUM(CASE WHEN o_orderpriority = &#39;1&#45;URGENT&#39; OR</text>
<text text-anchor="middle" x="461.5" y="-1546.8" font-family="Times,serif" font-size="14.00" fill="white">o_orderpriority = &#39;2&#45;HIGH&#39; THEN 1 ELSE 0 END), </text>
<text text-anchor="middle" x="461.5" y="-1531.8" font-family="Times,serif" font-size="14.00" fill="white">SUM(CASE WHEN o_orderpriority != &#39;1&#45;URGENT&#39; AND</text>
<text text-anchor="middle" x="461.5" y="-1516.8" font-family="Times,serif" font-size="14.00" fill="white">o_orderpriority != &#39;2&#45;HIGH&#39; THEN 1 ELSE 0 END)</text>
<text text-anchor="middle" x="461.5" y="-1485.8" font-family="Times,serif" font-size="14.00" fill="white">344 ms 489 µs</text>
</a>
</g>
</g>
<!-- 128123987755536&#45;&gt;128123600051664 -->
<g id="edge2" class="edge">
<title>128123987755536&#45;&gt;128123600051664</title>
<path fill="none" stroke="white" d="M461.5,-1607.17C461.5,-1620.99 461.5,-1635.14 461.5,-1647.48"/>
<polygon fill="white" stroke="white" points="458,-1647.8 461.5,-1657.8 465,-1647.8 458,-1647.8"/>
<text text-anchor="middle" x="530.5" y="-1628.8" font-family="Times,serif" font-size="14.00" fill="white">2 row(s)/1 chunk(s)</text>
</g>
<!-- 128123600051344 -->
<g id="node4" class="node">
<title>128123600051344</title>
<g id="a_node4"><a xlink:title="Output: 1558345 rows in 64 chunks filtered: 0, 32 ms 986 µs.&#10;Operator step runtimes:&#10; ForwardUnmodifiedColumns 71 µs 569 ns&#10; EvaluateNewColumns 32 ms 709 µs&#10; BuildOutput 185 µs 710 ns.">
<polygon fill="none" stroke="white" points="518,-1427 405,-1427 405,-1373 518,-1373 518,-1427"/>
<text text-anchor="middle" x="461.5" y="-1411.8" font-family="Times,serif" font-size="14.00" fill="white">Projection</text>
<text text-anchor="middle" x="461.5" y="-1380.8" font-family="Times,serif" font-size="14.00" fill="white">32 ms 986 µs</text>
</a>
</g>
</g>
<!-- 128123600051344&#45;&gt;128123987755536 -->
<g id="edge3" class="edge">
<title>128123600051344&#45;&gt;128123987755536</title>
<path fill="none" stroke="white" d="M461.5,-1427.1C461.5,-1438.77 461.5,-1453.17 461.5,-1467.78"/>
<polygon fill="white" stroke="white" points="458,-1467.89 461.5,-1477.89 465,-1467.89 458,-1467.89"/>
<text text-anchor="middle" x="566.5" y="-1448.8" font-family="Times,serif" font-size="14.00" fill="white">1,558,345 row(s)/64 chunk(s)</text>
</g>
<!-- 128123600051024 -->
<g id="node5" class="node">
<title>128123600051024</title>
<g id="a_node5"><a xlink:title="Output: 1558345 rows in 64 chunks filtered: 0, 326 ms 825 µs.&#10;Operator step runtimes:&#10; LeftSideMaterialize 258 ms 925 µs&#10; RightSideMaterialize 29 ms 155 µs&#10; LeftSideTransform 0 ns&#10; RightSideTransform 0 ns&#10; LeftSidePartition 3 ms 416 µs&#10; RightSidePartition 2 ms 156 µs&#10; LeftSideSortBuckets 4 ms 253 µs&#10; RightSideSortBuckets 702 µs 2 ns&#10; GatherRowIds 1 µs 213 ns&#10; FindJoinPartner 10 ms 744 µs&#10; OutputWriting 16 ms 265 µs.&#10;Radix bits: 8.">
<polygon fill="none" stroke="white" stroke-width="6.64" points="567,-1322 356,-1322 356,-1253 567,-1253 567,-1322"/>
<text text-anchor="middle" x="461.5" y="-1306.8" font-family="Times,serif" font-size="14.00" fill="white">JoinSimdSortMerge (Inner)</text>
<text text-anchor="middle" x="461.5" y="-1291.8" font-family="Times,serif" font-size="14.00" fill="white">l_orderkey = o_orderkey</text>
<text text-anchor="middle" x="461.5" y="-1260.8" font-family="Times,serif" font-size="14.00" fill="white">326 ms 825 µs</text>
</a>
</g>
</g>
<!-- 128123600051024&#45;&gt;128123600051344 -->
<g id="edge4" class="edge">
<title>128123600051024&#45;&gt;128123600051344</title>
<path fill="none" stroke="white" d="M461.5,-1322.25C461.5,-1335.07 461.5,-1349.73 461.5,-1362.77"/>
<polygon fill="white" stroke="white" points="458,-1362.81 461.5,-1372.81 465,-1362.81 458,-1362.81"/>
<text text-anchor="middle" x="566.5" y="-1343.8" font-family="Times,serif" font-size="14.00" fill="white">1,558,345 row(s)/64 chunk(s)</text>
</g>
<!-- 128123600050384 -->
<g id="node6" class="node">
<title>128123600050384</title>
<g id="a_node6"><a xlink:title="Output: 1558345 rows in 9156 chunks filtered: 0, 41 ms 763 µs.&#10;Chunks: 0 skipped with no results, &#10;0 skipped with all matching, 0 scanned using binary search.">
<polygon fill="none" stroke="white" stroke-width="1.57" points="555.5,-962 349.5,-962 349.5,-878 555.5,-878 555.5,-962"/>
<text text-anchor="middle" x="452.5" y="-946.8" font-family="Times,serif" font-size="14.00" fill="white">TableScan</text>
<text text-anchor="middle" x="452.5" y="-931.8" font-family="Times,serif" font-size="14.00" fill="white">Impl: ColumnVsColumn</text>
<text text-anchor="middle" x="452.5" y="-916.8" font-family="Times,serif" font-size="14.00" fill="white">l_commitdate &gt; l_shipdate</text>
<text text-anchor="middle" x="452.5" y="-885.8" font-family="Times,serif" font-size="14.00" fill="white">41 ms 763 µs</text>
</a>
</g>
</g>
<!-- 128123600050384&#45;&gt;128123600051024 -->
<g id="edge5" class="edge">
<title>128123600050384&#45;&gt;128123600051024</title>
<path fill="none" stroke="white" d="M534.44,-962.16C545.72,-971.39 555.74,-982.3 562.5,-995 612.63,-1089.15 618.22,-1144.04 562.5,-1235 560.19,-1238.78 557.5,-1242.29 554.52,-1245.55"/>
<polygon fill="white" stroke="white" points="554.29,-1245.78 551.86,-1243.26 547.09,-1252.72 554.29,-1245.78"/>
<text text-anchor="middle" x="718.5" y="-1118.8" font-family="Times,serif" font-size="14.00" fill="white">1,558,345 row(s)/9,156 chunk(s)</text>
</g>
<!-- 128123600050704 -->
<g id="node15" class="node">
<title>128123600050704</title>
<g id="a_node15"><a xlink:title="Output: 1461770 rows in 64 chunks filtered: 0, 566 ms 804 µs.&#10;Operator step runtimes:&#10; LeftSideMaterialize 48 ms 890 µs&#10; RightSideMaterialize 256 ms 333 µs&#10; LeftSideTransform 0 ns&#10; RightSideTransform 0 ns&#10; LeftSidePartition 96 ms 103 µs&#10; RightSidePartition 2 ms 558 µs&#10; LeftSideSortBuckets 44 ms 578 µs&#10; RightSideSortBuckets 4 ms 413 µs&#10; GatherRowIds 4 µs 285 ns&#10; FindJoinPartner 109 ms 663 µs&#10; OutputWriting 373 µs 823 ns.&#10;Radix bits: 8.">
<polygon fill="none" stroke="white" stroke-width="8" points="472,-1097 187,-1097 187,-1028 472,-1028 472,-1097"/>
<text text-anchor="middle" x="329.5" y="-1081.8" font-family="Times,serif" font-size="14.00" fill="white">JoinSimdSortMerge (Semi Reduction)</text>
<text text-anchor="middle" x="329.5" y="-1066.8" font-family="Times,serif" font-size="14.00" fill="white">o_orderkey = l_orderkey</text>
<text text-anchor="middle" x="329.5" y="-1035.8" font-family="Times,serif" font-size="14.00" fill="white">566 ms 804 µs</text>
</a>
</g>
</g>
<!-- 128123600050384&#45;&gt;128123600050704 -->
<g id="edge6" class="edge">
<title>128123600050384&#45;&gt;128123600050704</title>
<path fill="none" stroke="white" d="M360.46,-962.03C348.52,-971.19 337.89,-982.1 330.5,-995 326.54,-1001.9 324.65,-1009.91 323.98,-1017.92"/>
<polygon fill="white" stroke="white" points="323.74,-1027.99 327.48,-1018.08 323.98,-1018 323.74,-1027.99"/>
<text text-anchor="middle" x="446.5" y="-998.8" font-family="Times,serif" font-size="14.00" fill="white">1,558,345 row(s)/9,156 chunk(s)</text>
</g>
<!-- 128123600050064 -->
<g id="node7" class="node">
<title>128123600050064</title>
<g id="a_node7"><a xlink:title="Output: 8225273 rows in 9156 chunks filtered: 0, 53 ms 635 µs.&#10;Chunks: 0 skipped with no results, &#10;0 skipped with all matching, 0 scanned using binary search.">
<polygon fill="none" stroke="white" stroke-width="2.18" points="566,-812 339,-812 339,-728 566,-728 566,-812"/>
<text text-anchor="middle" x="452.5" y="-796.8" font-family="Times,serif" font-size="14.00" fill="white">TableScan</text>
<text text-anchor="middle" x="452.5" y="-781.8" font-family="Times,serif" font-size="14.00" fill="white">Impl: ColumnVsColumn</text>
<text text-anchor="middle" x="452.5" y="-766.8" font-family="Times,serif" font-size="14.00" fill="white">l_receiptdate &gt; l_commitdate</text>
<text text-anchor="middle" x="452.5" y="-735.8" font-family="Times,serif" font-size="14.00" fill="white">53 ms 635 µs</text>
</a>
</g>
</g>
<!-- 128123600050064&#45;&gt;128123600050384 -->
<g id="edge7" class="edge">
<title>128123600050064&#45;&gt;128123600050384</title>
<path fill="none" stroke="white" d="M452.5,-812.23C452.5,-829.47 452.5,-849.68 452.5,-867.85"/>
<polygon fill="white" stroke="white" points="449,-867.99 452.5,-877.99 456,-867.99 449,-867.99"/>
<text text-anchor="middle" x="568.5" y="-833.8" font-family="Times,serif" font-size="14.00" fill="white">8,225,273 row(s)/9,156 chunk(s)</text>
</g>
<!-- 128123987452944 -->
<g id="node8" class="node">
<title>128123987452944</title>
<g id="a_node8"><a xlink:title="Output: 13009424 rows in 9156 chunks filtered: 0, 17 ms 821 µs.">
<polygon fill="none" stroke="white" points="509,-677 396,-677 396,-623 509,-623 509,-677"/>
<text text-anchor="middle" x="452.5" y="-661.8" font-family="Times,serif" font-size="14.00" fill="white">Validate</text>
<text text-anchor="middle" x="452.5" y="-630.8" font-family="Times,serif" font-size="14.00" fill="white">17 ms 821 µs</text>
</a>
</g>
</g>
<!-- 128123987452944&#45;&gt;128123600050064 -->
<g id="edge8" class="edge">
<title>128123987452944&#45;&gt;128123600050064</title>
<path fill="none" stroke="white" d="M452.5,-677.19C452.5,-689.1 452.5,-703.63 452.5,-717.58"/>
<polygon fill="white" stroke="white" points="449,-717.59 452.5,-727.59 456,-717.59 449,-717.59"/>
<text text-anchor="middle" x="573" y="-698.8" font-family="Times,serif" font-size="14.00" fill="white">13,009,424 row(s)/9,156 chunk(s)</text>
</g>
<!-- 128123600049744 -->
<g id="node9" class="node">
<title>128123600049744</title>
<g id="a_node9"><a xlink:title="Output: 13009424 rows in 9156 chunks filtered: 0, 34 ms 226 µs.&#10;Chunks: 0 skipped with no results, &#10;0 skipped with all matching, 0 scanned using binary search.">
<polygon fill="none" stroke="white" stroke-width="1.08" points="668.5,-572 236.5,-572 236.5,-473 668.5,-473 668.5,-572"/>
<text text-anchor="middle" x="452.5" y="-556.8" font-family="Times,serif" font-size="14.00" fill="white">TableScan</text>
<text text-anchor="middle" x="452.5" y="-541.8" font-family="Times,serif" font-size="14.00" fill="white">Impl: ColumnBetween</text>
<text text-anchor="middle" x="452.5" y="-526.8" font-family="Times,serif" font-size="14.00" fill="white">l_receiptdate BETWEEN UPPER EXCLUSIVE &#39;1997&#45;01&#45;01&#39;</text>
<text text-anchor="middle" x="452.5" y="-511.8" font-family="Times,serif" font-size="14.00" fill="white">AND &#39;1998&#45;01&#45;01&#39;</text>
<text text-anchor="middle" x="452.5" y="-480.8" font-family="Times,serif" font-size="14.00" fill="white">34 ms 226 µs</text>
</a>
</g>
</g>
<!-- 128123600049744&#45;&gt;128123987452944 -->
<g id="edge9" class="edge">
<title>128123600049744&#45;&gt;128123987452944</title>
<path fill="none" stroke="white" d="M452.5,-572.02C452.5,-585.49 452.5,-599.89 452.5,-612.54"/>
<polygon fill="white" stroke="white" points="449,-612.7 452.5,-622.7 456,-612.7 449,-612.7"/>
<text text-anchor="middle" x="573" y="-593.8" font-family="Times,serif" font-size="14.00" fill="white">13,009,424 row(s)/9,156 chunk(s)</text>
</g>
<!-- 128123987452688 -->
<g id="node10" class="node">
<title>128123987452688</title>
<g id="a_node10"><a xlink:title="Output: 85714839 rows in 9156 chunks filtered: 0, 9 ms 287 µs.">
<polygon fill="none" stroke="white" points="504.5,-422 400.5,-422 400.5,-368 504.5,-368 504.5,-422"/>
<text text-anchor="middle" x="452.5" y="-406.8" font-family="Times,serif" font-size="14.00" fill="white">UnionAll</text>
<text text-anchor="middle" x="452.5" y="-375.8" font-family="Times,serif" font-size="14.00" fill="white">9 ms 287 µs</text>
</a>
</g>
</g>
<!-- 128123987452688&#45;&gt;128123600049744 -->
<g id="edge10" class="edge">
<title>128123987452688&#45;&gt;128123600049744</title>
<path fill="none" stroke="white" stroke-width="4.91" d="M452.5,-422C452.5,-433.85 452.5,-448.39 452.5,-462.66"/>
<polygon fill="white" stroke="white" stroke-width="4.91" points="448.2,-462.96 452.5,-472.96 456.8,-462.96 448.2,-462.96"/>
<text text-anchor="middle" x="573" y="-443.8" font-family="Times,serif" font-size="14.00" fill="white">85,714,839 row(s)/9,156 chunk(s)</text>
</g>
<!-- 128123600049104 -->
<g id="node11" class="node">
<title>128123600049104</title>
<g id="a_node11"><a xlink:title="Output: 42860070 rows in 4578 chunks filtered: 0, 46 ms 926 µs.&#10;Chunks: 0 skipped with no results, &#10;0 skipped with all matching, 0 scanned using binary search.">
<polygon fill="none" stroke="white" stroke-width="1.86" points="401,-317 232,-317 232,-233 401,-233 401,-317"/>
<text text-anchor="middle" x="316.5" y="-301.8" font-family="Times,serif" font-size="14.00" fill="white">TableScan</text>
<text text-anchor="middle" x="316.5" y="-286.8" font-family="Times,serif" font-size="14.00" fill="white">Impl: ColumnVsValue</text>
<text text-anchor="middle" x="316.5" y="-271.8" font-family="Times,serif" font-size="14.00" fill="white">l_shipmode = &#39;AIR&#39;</text>
<text text-anchor="middle" x="316.5" y="-240.8" font-family="Times,serif" font-size="14.00" fill="white">46 ms 926 µs</text>
</a>
</g>
</g>
<!-- 128123600049104&#45;&gt;128123987452688 -->
<g id="edge11" class="edge">
<title>128123600049104&#45;&gt;128123987452688</title>
<path fill="none" stroke="white" stroke-width="3.2" d="M309.22,-317.29C309.29,-328.82 311.59,-340.72 318.5,-350 335.23,-372.46 363.77,-383.63 390.21,-389.12"/>
<polygon fill="white" stroke="white" stroke-width="3.2" points="390.38,-389.15 389.75,-392.6 400.22,-390.96 390.38,-389.15"/>
<text text-anchor="middle" x="439" y="-338.8" font-family="Times,serif" font-size="14.00" fill="white">42,860,070 row(s)/4,578 chunk(s)</text>
</g>
<!-- 128123987613008 -->
<g id="node12" class="node">
<title>128123987613008</title>
<g id="a_node12"><a xlink:title="Output: 300005811 rows in 4578 chunks filtered: 0, 15 ms 166 µs.">
<polygon fill="none" stroke="white" points="516,-148 385,-148 385,-34 516,-34 516,-148"/>
<text text-anchor="middle" x="450.5" y="-132.8" font-family="Times,serif" font-size="14.00" fill="white">GetTable</text>
<text text-anchor="middle" x="450.5" y="-117.8" font-family="Times,serif" font-size="14.00" fill="white">(lineitem)</text>
<text text-anchor="middle" x="450.5" y="-102.8" font-family="Times,serif" font-size="14.00" fill="white">pruned:</text>
<text text-anchor="middle" x="450.5" y="-87.8" font-family="Times,serif" font-size="14.00" fill="white">0/4578 chunk(s)</text>
<text text-anchor="middle" x="450.5" y="-72.8" font-family="Times,serif" font-size="14.00" fill="white">11/16 column(s)</text>
<text text-anchor="middle" x="450.5" y="-41.8" font-family="Times,serif" font-size="14.00" fill="white">15 ms 166 µs</text>
</a>
</g>
</g>
<!-- 128123987613008&#45;&gt;128123600049104 -->
<g id="edge12" class="edge">
<title>128123987613008&#45;&gt;128123600049104</title>
<path fill="none" stroke="white" stroke-width="8" d="M384.94,-126.83C358.22,-144.81 330.19,-169.43 315.5,-200 312.17,-206.92 310.45,-214.65 309.77,-222.43"/>
<polygon fill="white" stroke="white" stroke-width="8" points="302.77,-222.39 309.43,-232.62 316.76,-222.86 302.77,-222.39"/>
<text text-anchor="middle" x="440.5" y="-203.8" font-family="Times,serif" font-size="14.00" fill="white">300,005,811 row(s)/4,578 chunk(s)</text>
</g>
<!-- 128123600049424 -->
<g id="node13" class="node">
<title>128123600049424</title>
<g id="a_node13"><a xlink:title="Output: 42854769 rows in 4578 chunks filtered: 0, 49 ms 84 µs.&#10;Chunks: 0 skipped with no results, &#10;0 skipped with all matching, 0 scanned using binary search.">
<polygon fill="none" stroke="white" stroke-width="1.97" points="680.5,-317 492.5,-317 492.5,-233 680.5,-233 680.5,-317"/>
<text text-anchor="middle" x="586.5" y="-301.8" font-family="Times,serif" font-size="14.00" fill="white">TableScan</text>
<text text-anchor="middle" x="586.5" y="-286.8" font-family="Times,serif" font-size="14.00" fill="white">Impl: ColumnVsValue</text>
<text text-anchor="middle" x="586.5" y="-271.8" font-family="Times,serif" font-size="14.00" fill="white">l_shipmode = &#39;REG AIR&#39;</text>
<text text-anchor="middle" x="586.5" y="-240.8" font-family="Times,serif" font-size="14.00" fill="white">49 ms 84 µs</text>
</a>
</g>
</g>
<!-- 128123987613008&#45;&gt;128123600049424 -->
<g id="edge13" class="edge">
<title>128123987613008&#45;&gt;128123600049424</title>
<path fill="none" stroke="white" stroke-width="8" d="M490.53,-148.11C500.97,-160.3 512.87,-172.41 525.5,-182 541.03,-193.79 552.76,-185.24 565.5,-200 571.27,-206.68 575.46,-214.85 578.5,-223.29"/>
<polygon fill="white" stroke="white" stroke-width="8" points="571.82,-225.39 581.47,-232.87 585.2,-221.24 571.82,-225.39"/>
<text text-anchor="middle" x="700.5" y="-203.8" font-family="Times,serif" font-size="14.00" fill="white">300,005,811 row(s)/4,578 chunk(s)</text>
</g>
<!-- 128123600049424&#45;&gt;128123987452688 -->
<g id="edge14" class="edge">
<title>128123600049424&#45;&gt;128123987452688</title>
<path fill="none" stroke="white" stroke-width="3.2" d="M580.63,-317.02C577.25,-328.81 571.91,-340.92 563.5,-350 550.42,-364.11 532.24,-373.77 514.37,-380.36"/>
<polygon fill="white" stroke="white" stroke-width="3.2" points="504.51,-383.71 515.1,-383.81 513.97,-380.49 504.51,-383.71"/>
<text text-anchor="middle" x="694" y="-338.8" font-family="Times,serif" font-size="14.00" fill="white">42,854,769 row(s)/4,578 chunk(s)</text>
</g>
<!-- 128123987453712 -->
<g id="node14" class="node">
<title>128123987453712</title>
<g id="a_node14"><a xlink:title="Output: 1461770 rows in 64 chunks filtered: 0, 2 ms 433 µs.">
<polygon fill="none" stroke="white" points="397.5,-1202 293.5,-1202 293.5,-1148 397.5,-1148 397.5,-1202"/>
<text text-anchor="middle" x="345.5" y="-1186.8" font-family="Times,serif" font-size="14.00" fill="white">Validate</text>
<text text-anchor="middle" x="345.5" y="-1155.8" font-family="Times,serif" font-size="14.00" fill="white">2 ms 433 µs</text>
</a>
</g>
</g>
<!-- 128123987453712&#45;&gt;128123600051024 -->
<g id="edge15" class="edge">
<title>128123987453712&#45;&gt;128123600051024</title>
<path fill="none" stroke="white" d="M343.25,-1202.1C343.57,-1213.16 345.75,-1225.62 352.5,-1235 355.4,-1239.03 358.71,-1242.76 362.31,-1246.21"/>
<polygon fill="white" stroke="white" points="370.1,-1252.89 364.79,-1243.72 362.51,-1246.38 370.1,-1252.89"/>
<text text-anchor="middle" x="457.5" y="-1223.8" font-family="Times,serif" font-size="14.00" fill="white">1,461,770 row(s)/64 chunk(s)</text>
</g>
<!-- 128123600050704&#45;&gt;128123987453712 -->
<g id="edge16" class="edge">
<title>128123600050704&#45;&gt;128123987453712</title>
<path fill="none" stroke="white" d="M334.39,-1097.25C336.24,-1110.07 338.37,-1124.73 340.25,-1137.77"/>
<polygon fill="white" stroke="white" points="336.81,-1138.42 341.71,-1147.81 343.74,-1137.41 336.81,-1138.42"/>
<text text-anchor="middle" x="444.5" y="-1118.8" font-family="Times,serif" font-size="14.00" fill="white">1,461,770 row(s)/64 chunk(s)</text>
</g>
<!-- 128123987613456 -->
<g id="node16" class="node">
<title>128123987613456</title>
<g id="a_node16"><a xlink:title="Output: 75000000 rows in 1145 chunks filtered: 0, 3 ms 445 µs.">
<polygon fill="none" stroke="white" points="131,-977 0,-977 0,-863 131,-863 131,-977"/>
<text text-anchor="middle" x="65.5" y="-961.8" font-family="Times,serif" font-size="14.00" fill="white">GetTable</text>
<text text-anchor="middle" x="65.5" y="-946.8" font-family="Times,serif" font-size="14.00" fill="white">(orders)</text>
<text text-anchor="middle" x="65.5" y="-931.8" font-family="Times,serif" font-size="14.00" fill="white">pruned:</text>
<text text-anchor="middle" x="65.5" y="-916.8" font-family="Times,serif" font-size="14.00" fill="white">0/1145 chunk(s)</text>
<text text-anchor="middle" x="65.5" y="-901.8" font-family="Times,serif" font-size="14.00" fill="white">7/9 column(s)</text>
<text text-anchor="middle" x="65.5" y="-870.8" font-family="Times,serif" font-size="14.00" fill="white">3 ms 445 µs</text>
</a>
</g>
</g>
<!-- 128123987613456&#45;&gt;128123600050704 -->
<g id="edge17" class="edge">
<title>128123987613456&#45;&gt;128123600050704</title>
<path fill="none" stroke="white" stroke-width="4.58" d="M64.78,-977.02C67.19,-989.2 71.91,-1001.09 80.5,-1010 95.24,-1025.3 134.1,-1036.37 176.85,-1044.24"/>
<polygon fill="white" stroke="white" stroke-width="4.58" points="177.06,-1044.27 176.36,-1048.22 186.9,-1046.02 177.06,-1044.27"/>
<text text-anchor="middle" x="201" y="-998.8" font-family="Times,serif" font-size="14.00" fill="white">75,000,000 row(s)/1,145 chunk(s)</text>
</g>
<!-- 0 -->
<g id="node17" class="node">
<title>0</title>
<polygon fill="none" stroke="white" points="534.5,-0.5 534.5,-181.5 880.5,-181.5 880.5,-0.5 534.5,-0.5"/>
<text text-anchor="middle" x="707.5" y="-166.3" font-family="Times,serif" font-size="14.00" fill="white">Total by operator</text>
<polyline fill="none" stroke="white" points="534.5,-158.5 880.5,-158.5 "/>
<text text-anchor="end" x="688.5" y="-143.3" font-family="Times,serif" font-size="14.00" fill="white">JoinSimdSortMerge </text>
<text text-anchor="end" x="688.5" y="-128.3" font-family="Times,serif" font-size="14.00" fill="white"> AggregateHash </text>
<text text-anchor="end" x="688.5" y="-113.3" font-family="Times,serif" font-size="14.00" fill="white"> TableScan </text>
<text text-anchor="end" x="688.5" y="-98.3" font-family="Times,serif" font-size="14.00" fill="white"> Projection </text>
<text text-anchor="end" x="688.5" y="-83.3" font-family="Times,serif" font-size="14.00" fill="white"> Validate </text>
<text text-anchor="end" x="688.5" y="-68.3" font-family="Times,serif" font-size="14.00" fill="white"> GetTable </text>
<text text-anchor="end" x="688.5" y="-53.3" font-family="Times,serif" font-size="14.00" fill="white"> UnionAll </text>
<text text-anchor="end" x="688.5" y="-38.3" font-family="Times,serif" font-size="14.00" fill="white"> Sort </text>
<text text-anchor="end" x="688.5" y="-23.3" font-family="Times,serif" font-size="14.00" fill="white"> Alias </text>
<text text-anchor="end" x="688.5" y="-8.3" font-family="Times,serif" font-size="14.00" fill="white">total</text>
<polyline fill="none" stroke="white" points="696.5,-0.5 696.5,-158.5 "/>
<text text-anchor="start" x="704.5" y="-143.3" font-family="Times,serif" font-size="14.00" fill="white">893 ms 629 µs </text>
<text text-anchor="start" x="704.5" y="-128.3" font-family="Times,serif" font-size="14.00" fill="white"> 344 ms 489 µs </text>
<text text-anchor="start" x="704.5" y="-113.3" font-family="Times,serif" font-size="14.00" fill="white"> 225 ms 634 µs </text>
<text text-anchor="start" x="704.5" y="-98.3" font-family="Times,serif" font-size="14.00" fill="white"> 32 ms 986 µs </text>
<text text-anchor="start" x="704.5" y="-83.3" font-family="Times,serif" font-size="14.00" fill="white"> 20 ms 255 µs </text>
<text text-anchor="start" x="704.5" y="-68.3" font-family="Times,serif" font-size="14.00" fill="white"> 18 ms 611 µs </text>
<text text-anchor="start" x="704.5" y="-53.3" font-family="Times,serif" font-size="14.00" fill="white"> 9 ms 287 µs </text>
<text text-anchor="start" x="704.5" y="-38.3" font-family="Times,serif" font-size="14.00" fill="white"> 32 µs 310 ns </text>
<text text-anchor="start" x="704.5" y="-23.3" font-family="Times,serif" font-size="14.00" fill="white"> 2 µs 677 ns </text>
<text text-anchor="start" x="704.5" y="-8.3" font-family="Times,serif" font-size="14.00" fill="white"> 1 s 545 ms </text>
<polyline fill="none" stroke="white" points="827.5,-0.5 827.5,-158.5 "/>
<text text-anchor="start" x="835.5" y="-143.3" font-family="Times,serif" font-size="14.00" fill="white">58 %</text>
<text text-anchor="start" x="835.5" y="-128.3" font-family="Times,serif" font-size="14.00" fill="white">22 %</text>
<text text-anchor="start" x="835.5" y="-113.3" font-family="Times,serif" font-size="14.00" fill="white">15 %</text>
<text text-anchor="start" x="835.5" y="-98.3" font-family="Times,serif" font-size="14.00" fill="white">2 %</text>
<text text-anchor="start" x="835.5" y="-83.3" font-family="Times,serif" font-size="14.00" fill="white">1 %</text>
<text text-anchor="start" x="835.5" y="-68.3" font-family="Times,serif" font-size="14.00" fill="white">1 %</text>
<text text-anchor="start" x="835.5" y="-53.3" font-family="Times,serif" font-size="14.00" fill="white">1 %</text>
<text text-anchor="start" x="835.5" y="-38.3" font-family="Times,serif" font-size="14.00" fill="white">0 %</text>
<text text-anchor="start" x="835.5" y="-23.3" font-family="Times,serif" font-size="14.00" fill="white">0 %</text>
<text text-anchor="start" x="835.5" y="-8.3" font-family="Times,serif" font-size="14.00" fill="white"> </text>
</g>
</g>
</svg>
