<?xml version="1.0" encoding="UTF-8" standalone="no"?>
<!DOCTYPE svg PUBLIC "-//W3C//DTD SVG 1.1//EN"
 "http://www.w3.org/Graphics/SVG/1.1/DTD/svg11.dtd">
<!-- Generated by graphviz version 2.43.0 (0)
 -->
<!-- Title: G Pages: 1 -->
<svg width="1404pt" height="1165pt"
 viewBox="0.00 0.00 1404.00 1165.00" xmlns="http://www.w3.org/2000/svg" xmlns:xlink="http://www.w3.org/1999/xlink">
<g id="graph0" class="graph" transform="scale(1 1) rotate(0) translate(4 1161)">
<title>G</title>
<polygon fill="black" stroke="transparent" points="-4,4 -4,-1161 1400,-1161 1400,4 -4,4"/>
<text text-anchor="middle" x="319.5" y="-1141.8" font-family="Times,serif" font-size="14.00" fill="white">For tooltips with advanced information, hover your mouse over vertices or edge labels.</text>
<!-- 128123533127760 -->
<g id="node1" class="node">
<title>128123533127760</title>
<polygon fill="none" stroke="white" points="788.5,-1102 485.5,-1102 485.5,-1064 788.5,-1064 788.5,-1102"/>
<text text-anchor="middle" x="637" y="-1086.8" font-family="Times,serif" font-size="14.00" fill="white">[Alias] ps_partkey, SUM(ps_supplycost *</text>
<text text-anchor="middle" x="637" y="-1071.8" font-family="Times,serif" font-size="14.00" fill="white">ps_availqty) AS value</text>
</g>
<!-- 128123533127568 -->
<g id="node2" class="node">
<title>128123533127568</title>
<polygon fill="none" stroke="white" points="789.5,-1013 484.5,-1013 484.5,-975 789.5,-975 789.5,-1013"/>
<text text-anchor="middle" x="637" y="-997.8" font-family="Times,serif" font-size="14.00" fill="white">[Sort] SUM(ps_supplycost * ps_availqty)</text>
<text text-anchor="middle" x="637" y="-982.8" font-family="Times,serif" font-size="14.00" fill="white">(Descending)</text>
</g>
<!-- 128123533127568&#45;&gt;128123533127760 -->
<g id="edge1" class="edge">
<title>128123533127568&#45;&gt;128123533127760</title>
<path fill="none" stroke="white" d="M637,-1013.03C637,-1024.81 637,-1040.44 637,-1053.84"/>
<polygon fill="white" stroke="white" points="633.5,-1054 637,-1064 640.5,-1054 633.5,-1054"/>
<g id="a_edge1&#45;label"><a xlink:title="Output Expressions: &#10; (1) ps_partkey&#10; (2) SUM(ps_supplycost * ps_availqty) NULL&#10;&#10;Unique Column Combinations: &#10; (1) {ps_partkey}&#10;&#10;Functional Dependencies (trivial): &#10; (1) {ps_partkey} =&gt; {SUM(ps_supplycost * ps_availqty)}&#10;&#10;Functional Dependencies (non&#45;trivial): &#10; &lt;none&gt;">
<text text-anchor="middle" x="760.5" y="-1034.8" font-family="Times,serif" font-size="14.00" fill="white"> 1,599,999.9 row(s) | 100.0% estd.</text>
</a>
</g>
</g>
<!-- 128123533127376 -->
<g id="node3" class="node">
<title>128123533127376</title>
<polygon fill="none" stroke="white" points="816.5,-924 457.5,-924 457.5,-886 816.5,-886 816.5,-924"/>
<text text-anchor="middle" x="637" y="-908.8" font-family="Times,serif" font-size="14.00" fill="white">[Predicate] SUM(ps_supplycost * ps_availqty) &gt;</text>
<text text-anchor="middle" x="637" y="-893.8" font-family="Times,serif" font-size="14.00" fill="white">SUBQUERY (LQP, 0x748715a0ceb0)</text>
</g>
<!-- 128123533127376&#45;&gt;128123533127568 -->
<g id="edge2" class="edge">
<title>128123533127376&#45;&gt;128123533127568</title>
<path fill="none" stroke="white" d="M637,-924.03C637,-935.81 637,-951.44 637,-964.84"/>
<polygon fill="white" stroke="white" points="633.5,-965 637,-975 640.5,-965 633.5,-965"/>
<g id="a_edge2&#45;label"><a xlink:title="Output Expressions: &#10; (1) ps_partkey&#10; (2) SUM(ps_supplycost * ps_availqty) NULL&#10;&#10;Unique Column Combinations: &#10; (1) {ps_partkey}&#10;&#10;Functional Dependencies (trivial): &#10; (1) {ps_partkey} =&gt; {SUM(ps_supplycost * ps_availqty)}&#10;&#10;Functional Dependencies (non&#45;trivial): &#10; &lt;none&gt;">
<text text-anchor="middle" x="760.5" y="-945.8" font-family="Times,serif" font-size="14.00" fill="white"> 1,599,999.9 row(s) | 100.0% estd.</text>
</a>
</g>
</g>
<!-- 128123533127184 -->
<g id="node4" class="node">
<title>128123533127184</title>
<polygon fill="none" stroke="white" points="627.5,-835 270.5,-835 270.5,-797 627.5,-797 627.5,-835"/>
<text text-anchor="middle" x="449" y="-819.8" font-family="Times,serif" font-size="14.00" fill="white">[Aggregate] GroupBy: [ps_partkey] Aggregates:</text>
<text text-anchor="middle" x="449" y="-804.8" font-family="Times,serif" font-size="14.00" fill="white">[SUM(ps_supplycost * ps_availqty)]</text>
</g>
<!-- 128123533127184&#45;&gt;128123533127376 -->
<g id="edge3" class="edge">
<title>128123533127184&#45;&gt;128123533127376</title>
<path fill="none" stroke="white" d="M474.01,-835.21C489.34,-845.78 509.67,-858.79 529,-868 540.26,-873.37 552.54,-878.28 564.64,-882.63"/>
<polygon fill="white" stroke="white" points="563.69,-886 574.29,-885.99 566,-879.39 563.69,-886"/>
<g id="a_edge3&#45;label"><a xlink:title="Output Expressions: &#10; (1) ps_partkey&#10; (2) SUM(ps_supplycost * ps_availqty) NULL&#10;&#10;Unique Column Combinations: &#10; (1) {ps_partkey}&#10;&#10;Functional Dependencies (trivial): &#10; (1) {ps_partkey} =&gt; {SUM(ps_supplycost * ps_availqty)}&#10;&#10;Functional Dependencies (non&#45;trivial): &#10; &lt;none&gt;">
<text text-anchor="middle" x="652.5" y="-856.8" font-family="Times,serif" font-size="14.00" fill="white"> 1,599,999.9 row(s) | 100.0% estd.</text>
</a>
</g>
</g>
<!-- 128123532267984 -->
<g id="node5" class="node">
<title>128123532267984</title>
<polygon fill="none" stroke="white" points="600,-746 298,-746 298,-708 600,-708 600,-746"/>
<text text-anchor="middle" x="449" y="-730.8" font-family="Times,serif" font-size="14.00" fill="white">[Projection] ps_supplycost * ps_availqty,</text>
<text text-anchor="middle" x="449" y="-715.8" font-family="Times,serif" font-size="14.00" fill="white">ps_partkey</text>
</g>
<!-- 128123532267984&#45;&gt;128123533127184 -->
<g id="edge4" class="edge">
<title>128123532267984&#45;&gt;128123533127184</title>
<path fill="none" stroke="white" d="M449,-746.03C449,-757.81 449,-773.44 449,-786.84"/>
<polygon fill="white" stroke="white" points="445.5,-787 449,-797 452.5,-787 445.5,-787"/>
<g id="a_edge4&#45;label"><a xlink:title="Output Expressions: &#10; (1) ps_supplycost * ps_availqty&#10; (2) ps_partkey&#10;&#10;Unique Column Combinations: &#10; &lt;none&gt;&#10;&#10;Functional Dependencies (trivial): &#10; &lt;none&gt;&#10;&#10;Functional Dependencies (non&#45;trivial): &#10; &lt;none&gt;">
<text text-anchor="middle" x="572.5" y="-767.8" font-family="Times,serif" font-size="14.00" fill="white"> 1,599,999.9 row(s) | 100.0% estd.</text>
</a>
</g>
</g>
<!-- 128123532259824 -->
<g id="node6" class="node">
<title>128123532259824</title>
<polygon fill="none" stroke="white" points="491.5,-657 406.5,-657 406.5,-621 491.5,-621 491.5,-657"/>
<text text-anchor="middle" x="449" y="-635.3" font-family="Times,serif" font-size="14.00" fill="white">[Validate]</text>
</g>
<!-- 128123532259824&#45;&gt;128123532267984 -->
<g id="edge5" class="edge">
<title>128123532259824&#45;&gt;128123532267984</title>
<path fill="none" stroke="white" d="M449,-657.4C449,-668.94 449,-684.35 449,-697.64"/>
<polygon fill="white" stroke="white" points="445.5,-697.73 449,-707.73 452.5,-697.73 445.5,-697.73"/>
<g id="a_edge5&#45;label"><a xlink:title="Output Expressions: &#10; (1) ps_partkey&#10; (2) ps_suppkey&#10; (3) ps_availqty&#10; (4) ps_supplycost&#10;&#10;Unique Column Combinations: &#10; (1) {ps_partkey, ps_suppkey}&#10;&#10;Functional Dependencies (trivial): &#10; (1) {ps_partkey, ps_suppkey} =&gt; {ps_availqty, ps_supplycost}&#10;&#10;Functional Dependencies (non&#45;trivial): &#10; &lt;none&gt;">
<text text-anchor="middle" x="572.5" y="-678.8" font-family="Times,serif" font-size="14.00" fill="white"> 1,599,999.9 row(s) | 100.0% estd.</text>
</a>
</g>
</g>
<!-- 128123533129872 -->
<g id="node7" class="node">
<title>128123533129872</title>
<polygon fill="none" stroke="white" points="616.5,-570 281.5,-570 281.5,-534 616.5,-534 616.5,-570"/>
<text text-anchor="middle" x="449" y="-548.3" font-family="Times,serif" font-size="14.00" fill="white">[Join] Mode: Semi [ps_suppkey = s_suppkey]</text>
</g>
<!-- 128123533129872&#45;&gt;128123532259824 -->
<g id="edge6" class="edge">
<title>128123533129872&#45;&gt;128123532259824</title>
<path fill="none" stroke="white" d="M449,-570.2C449,-581.84 449,-597.45 449,-610.76"/>
<polygon fill="white" stroke="white" points="445.5,-610.82 449,-620.82 452.5,-610.82 445.5,-610.82"/>
<g id="a_edge6&#45;label"><a xlink:title="Output Expressions: &#10; (1) ps_partkey&#10; (2) ps_suppkey&#10; (3) ps_availqty&#10; (4) ps_supplycost&#10;&#10;Unique Column Combinations: &#10; (1) {ps_partkey, ps_suppkey}&#10;&#10;Functional Dependencies (trivial): &#10; (1) {ps_partkey, ps_suppkey} =&gt; {ps_availqty, ps_supplycost}&#10;&#10;Functional Dependencies (non&#45;trivial): &#10; &lt;none&gt;">
<text text-anchor="middle" x="563.5" y="-591.8" font-family="Times,serif" font-size="14.00" fill="white"> 1,599,999.9 row(s) | 4.0% estd.</text>
</a>
</g>
</g>
<!-- 128055691488336 -->
<g id="node8" class="node">
<title>128055691488336</title>
<polygon fill="none" stroke="white" points="346,-483 0,-483 0,-445 346,-445 346,-483"/>
<text text-anchor="middle" x="173" y="-467.8" font-family="Times,serif" font-size="14.00" fill="white">[StoredTable] Name: &#39;partsupp&#39; pruned: 0/611</text>
<text text-anchor="middle" x="173" y="-452.8" font-family="Times,serif" font-size="14.00" fill="white">chunk(s), 1/5 column(s)</text>
</g>
<!-- 128055691488336&#45;&gt;128123533129872 -->
<g id="edge7" class="edge">
<title>128055691488336&#45;&gt;128123533129872</title>
<path fill="none" stroke="white" stroke-width="8" d="M174.67,-483.05C176.7,-494.25 181.17,-508 191,-516 205.1,-527.48 235.81,-535.2 271.3,-540.39"/>
<polygon fill="white" stroke="white" stroke-width="8" points="271.52,-540.42 270.57,-547.35 281.43,-541.78 271.52,-540.42"/>
<g id="a_edge7&#45;label"><a xlink:title="Output Expressions: &#10; (1) ps_partkey&#10; (2) ps_suppkey&#10; (3) ps_availqty&#10; (4) ps_supplycost&#10;&#10;Unique Column Combinations: &#10; (1) {ps_partkey, ps_suppkey}&#10;&#10;Functional Dependencies (trivial): &#10; (1) {ps_partkey, ps_suppkey} =&gt; {ps_availqty, ps_supplycost}&#10;&#10;Functional Dependencies (non&#45;trivial): &#10; &lt;none&gt;">
<text text-anchor="middle" x="319" y="-504.8" font-family="Times,serif" font-size="14.00" fill="white"> 40,000,000.0 row(s) | 100.0% estd.</text>
</a>
</g>
</g>
<!-- 128123532266544 -->
<g id="node9" class="node">
<title>128123532266544</title>
<polygon fill="none" stroke="white" points="494.5,-482 409.5,-482 409.5,-446 494.5,-446 494.5,-482"/>
<text text-anchor="middle" x="452" y="-460.3" font-family="Times,serif" font-size="14.00" fill="white">[Validate]</text>
</g>
<!-- 128123532266544&#45;&gt;128123533129872 -->
<g id="edge8" class="edge">
<title>128123532266544&#45;&gt;128123533129872</title>
<path fill="none" stroke="white" d="M451.39,-482.4C450.98,-494.25 450.42,-510.18 449.95,-523.71"/>
<polygon fill="white" stroke="white" points="449.6,-533.92 453.44,-524.04 449.94,-523.92 449.6,-533.92"/>
<g id="a_edge8&#45;label"><a xlink:title="Output Expressions: &#10; (1) s_suppkey&#10; (2) s_nationkey&#10;&#10;Unique Column Combinations: &#10; (1) {s_suppkey}&#10;&#10;Functional Dependencies (trivial): &#10; (1) {s_suppkey} =&gt; {s_nationkey}&#10;&#10;Functional Dependencies (non&#45;trivial): &#10; &lt;none&gt;">
<text text-anchor="middle" x="563.5" y="-504.8" font-family="Times,serif" font-size="14.00" fill="white"> 20,000.0 row(s) | 100.0% estd.</text>
</a>
</g>
</g>
<!-- 128123533129104 -->
<g id="node10" class="node">
<title>128123533129104</title>
<polygon fill="none" stroke="white" points="626.5,-393 277.5,-393 277.5,-357 626.5,-357 626.5,-393"/>
<text text-anchor="middle" x="452" y="-371.3" font-family="Times,serif" font-size="14.00" fill="white">[Join] Mode: Semi [s_nationkey = n_nationkey]</text>
</g>
<!-- 128123533129104&#45;&gt;128123532266544 -->
<g id="edge9" class="edge">
<title>128123533129104&#45;&gt;128123532266544</title>
<path fill="none" stroke="white" d="M452,-393.19C452,-405.34 452,-421.89 452,-435.82"/>
<polygon fill="white" stroke="white" points="448.5,-435.85 452,-445.85 455.5,-435.85 448.5,-435.85"/>
<g id="a_edge9&#45;label"><a xlink:title="Output Expressions: &#10; (1) s_suppkey&#10; (2) s_nationkey&#10;&#10;Unique Column Combinations: &#10; (1) {s_suppkey}&#10;&#10;Functional Dependencies (trivial): &#10; (1) {s_suppkey} =&gt; {s_nationkey}&#10;&#10;Functional Dependencies (non&#45;trivial): &#10; &lt;none&gt;">
<text text-anchor="middle" x="555.5" y="-415.8" font-family="Times,serif" font-size="14.00" fill="white"> 20,000.0 row(s) | 4.0% estd.</text>
</a>
</g>
</g>
<!-- 128055691488656 -->
<g id="node11" class="node">
<title>128055691488656</title>
<polygon fill="none" stroke="white" points="508,-305 186,-305 186,-267 508,-267 508,-305"/>
<text text-anchor="middle" x="347" y="-289.8" font-family="Times,serif" font-size="14.00" fill="white">[StoredTable] Name: &#39;supplier&#39; pruned: 0/8</text>
<text text-anchor="middle" x="347" y="-274.8" font-family="Times,serif" font-size="14.00" fill="white">chunk(s), 5/7 column(s)</text>
</g>
<!-- 128055691488656&#45;&gt;128123533129104 -->
<g id="edge10" class="edge">
<title>128055691488656&#45;&gt;128123533129104</title>
<path fill="none" stroke="white" d="M342.57,-305.13C341.08,-315.68 341.23,-328.69 348,-338 351.67,-343.05 356.1,-347.4 361.03,-351.14"/>
<polygon fill="white" stroke="white" points="361.41,-351.38 359.48,-354.31 369.76,-356.88 361.41,-351.38"/>
<g id="a_edge10&#45;label"><a xlink:title="Output Expressions: &#10; (1) s_suppkey&#10; (2) s_nationkey&#10;&#10;Unique Column Combinations: &#10; (1) {s_suppkey}&#10;&#10;Functional Dependencies (trivial): &#10; (1) {s_suppkey} =&gt; {s_nationkey}&#10;&#10;Functional Dependencies (non&#45;trivial): &#10; &lt;none&gt;">
<text text-anchor="middle" x="465" y="-326.8" font-family="Times,serif" font-size="14.00" fill="white"> 500,000.0 row(s) | 100.0% estd.</text>
</a>
</g>
</g>
<!-- 128123532266704 -->
<g id="node12" class="node">
<title>128123532266704</title>
<polygon fill="none" stroke="white" points="646.5,-304 561.5,-304 561.5,-268 646.5,-268 646.5,-304"/>
<text text-anchor="middle" x="604" y="-282.3" font-family="Times,serif" font-size="14.00" fill="white">[Validate]</text>
</g>
<!-- 128123532266704&#45;&gt;128123533129104 -->
<g id="edge11" class="edge">
<title>128123532266704&#45;&gt;128123533129104</title>
<path fill="none" stroke="white" d="M600.55,-304.43C597.48,-315.53 591.89,-329.38 582,-338 575.39,-343.76 567.94,-348.6 560.03,-352.67"/>
<polygon fill="white" stroke="white" points="550.93,-356.95 561.47,-355.87 559.98,-352.7 550.93,-356.95"/>
<g id="a_edge11&#45;label"><a xlink:title="Output Expressions: &#10; (1) n_nationkey&#10; (2) n_name&#10;&#10;Unique Column Combinations: &#10; (1) {n_nationkey}&#10;&#10;Functional Dependencies (trivial): &#10; (1) {n_nationkey} =&gt; {n_name}&#10;&#10;Functional Dependencies (non&#45;trivial): &#10; &lt;none&gt;">
<text text-anchor="middle" x="685" y="-326.8" font-family="Times,serif" font-size="14.00" fill="white"> 1.0 row(s) | 100.0% estd.</text>
</a>
</g>
</g>
<!-- 128123533127952 -->
<g id="node13" class="node">
<title>128123533127952</title>
<polygon fill="none" stroke="white" points="720.5,-215 487.5,-215 487.5,-179 720.5,-179 720.5,-215"/>
<text text-anchor="middle" x="604" y="-193.3" font-family="Times,serif" font-size="14.00" fill="white">[Predicate] n_name = &#39;EGYPT&#39;</text>
</g>
<!-- 128123533127952&#45;&gt;128123532266704 -->
<g id="edge12" class="edge">
<title>128123533127952&#45;&gt;128123532266704</title>
<path fill="none" stroke="white" d="M604,-215.19C604,-227.34 604,-243.89 604,-257.82"/>
<polygon fill="white" stroke="white" points="600.5,-257.85 604,-267.85 607.5,-257.85 600.5,-257.85"/>
<g id="a_edge12&#45;label"><a xlink:title="Output Expressions: &#10; (1) n_nationkey&#10; (2) n_name&#10;&#10;Unique Column Combinations: &#10; (1) {n_nationkey}&#10;&#10;Functional Dependencies (trivial): &#10; (1) {n_nationkey} =&gt; {n_name}&#10;&#10;Functional Dependencies (non&#45;trivial): &#10; &lt;none&gt;">
<text text-anchor="middle" x="687" y="-237.8" font-family="Times,serif" font-size="14.00" fill="white"> 1.0 row(s) | 4.0% estd.</text>
</a>
</g>
</g>
<!-- 128055247688656 -->
<g id="node14" class="node">
<title>128055247688656</title>
<polygon fill="none" stroke="white" points="793,-127 415,-127 415,-89 793,-89 793,-127"/>
<text text-anchor="middle" x="604" y="-111.8" font-family="Times,serif" font-size="14.00" fill="white">[StoredTable] Name: &#39;nation&#39; pruned: 0/1 chunk(s),</text>
<text text-anchor="middle" x="604" y="-96.8" font-family="Times,serif" font-size="14.00" fill="white">2/4 column(s)</text>
</g>
<!-- 128055247688656&#45;&gt;128123533127952 -->
<g id="edge13" class="edge">
<title>128055247688656&#45;&gt;128123533127952</title>
<path fill="none" stroke="white" d="M604,-127.03C604,-139.04 604,-155.07 604,-168.64"/>
<polygon fill="white" stroke="white" points="600.5,-168.88 604,-178.88 607.5,-168.88 600.5,-168.88"/>
<g id="a_edge13&#45;label"><a xlink:title="Output Expressions: &#10; (1) n_nationkey&#10; (2) n_name&#10;&#10;Unique Column Combinations: &#10; (1) {n_nationkey}&#10;&#10;Functional Dependencies (trivial): &#10; (1) {n_nationkey} =&gt; {n_name}&#10;&#10;Functional Dependencies (non&#45;trivial): &#10; &lt;none&gt;">
<text text-anchor="middle" x="700.5" y="-148.8" font-family="Times,serif" font-size="14.00" fill="white"> 25.0 row(s) | 100.0% estd.</text>
</a>
</g>
</g>
<!-- 128123532267184 -->
<g id="node15" class="node">
<title>128123532267184</title>
<polygon fill="none" stroke="white" points="1004,-835 646,-835 646,-797 1004,-797 1004,-835"/>
<text text-anchor="middle" x="825" y="-819.8" font-family="Times,serif" font-size="14.00" fill="white">[Projection] SUM(ps_supplycost * ps_availqty) *</text>
<text text-anchor="middle" x="825" y="-804.8" font-family="Times,serif" font-size="14.00" fill="white">2e&#45;06</text>
</g>
<!-- 128123532267184&#45;&gt;128123533127376 -->
<g id="edge14" class="edge">
<title>128123532267184&#45;&gt;128123533127376</title>
<path fill="none" stroke="white" stroke-dasharray="5,2" d="M811.9,-835.05C802.96,-846.11 790.2,-859.69 776,-868 766.27,-873.7 755.63,-878.5 744.71,-882.56"/>
<polygon fill="white" stroke="white" points="743.35,-879.33 735.07,-885.93 745.66,-885.93 743.35,-879.33"/>
<text text-anchor="middle" x="876.5" y="-856.8" font-family="Times,serif" font-size="14.00" fill="white">uncorrelated subquery</text>
</g>
<!-- 128123533126992 -->
<g id="node16" class="node">
<title>128123533126992</title>
<polygon fill="none" stroke="white" points="964.5,-746 685.5,-746 685.5,-708 964.5,-708 964.5,-746"/>
<text text-anchor="middle" x="825" y="-730.8" font-family="Times,serif" font-size="14.00" fill="white">[Aggregate] GroupBy: [] Aggregates:</text>
<text text-anchor="middle" x="825" y="-715.8" font-family="Times,serif" font-size="14.00" fill="white">[SUM(ps_supplycost * ps_availqty)]</text>
</g>
<!-- 128123533126992&#45;&gt;128123532267184 -->
<g id="edge15" class="edge">
<title>128123533126992&#45;&gt;128123532267184</title>
<path fill="none" stroke="white" d="M825,-746.03C825,-757.81 825,-773.44 825,-786.84"/>
<polygon fill="white" stroke="white" points="821.5,-787 825,-797 828.5,-787 821.5,-787"/>
<g id="a_edge15&#45;label"><a xlink:title="Output Expressions: &#10; (1) SUM(ps_supplycost * ps_availqty) NULL&#10;&#10;Unique Column Combinations: &#10; &lt;none&gt;&#10;&#10;Functional Dependencies (trivial): &#10; &lt;none&gt;&#10;&#10;Functional Dependencies (non&#45;trivial): &#10; &lt;none&gt;">
<text text-anchor="middle" x="948.5" y="-767.8" font-family="Times,serif" font-size="14.00" fill="white"> 1,599,999.9 row(s) | 100.0% estd.</text>
</a>
</g>
</g>
<!-- 128123532268144 -->
<g id="node17" class="node">
<title>128123532268144</title>
<polygon fill="none" stroke="white" points="975,-657 675,-657 675,-621 975,-621 975,-657"/>
<text text-anchor="middle" x="825" y="-635.3" font-family="Times,serif" font-size="14.00" fill="white">[Projection] ps_supplycost * ps_availqty</text>
</g>
<!-- 128123532268144&#45;&gt;128123533126992 -->
<g id="edge16" class="edge">
<title>128123532268144&#45;&gt;128123533126992</title>
<path fill="none" stroke="white" d="M825,-657.4C825,-668.94 825,-684.35 825,-697.64"/>
<polygon fill="white" stroke="white" points="821.5,-697.73 825,-707.73 828.5,-697.73 821.5,-697.73"/>
<g id="a_edge16&#45;label"><a xlink:title="Output Expressions: &#10; (1) ps_supplycost * ps_availqty&#10;&#10;Unique Column Combinations: &#10; &lt;none&gt;&#10;&#10;Functional Dependencies (trivial): &#10; &lt;none&gt;&#10;&#10;Functional Dependencies (non&#45;trivial): &#10; &lt;none&gt;">
<text text-anchor="middle" x="948.5" y="-678.8" font-family="Times,serif" font-size="14.00" fill="white"> 1,599,999.9 row(s) | 100.0% estd.</text>
</a>
</g>
</g>
<!-- 128123532267504 -->
<g id="node18" class="node">
<title>128123532267504</title>
<polygon fill="none" stroke="white" points="867.5,-570 782.5,-570 782.5,-534 867.5,-534 867.5,-570"/>
<text text-anchor="middle" x="825" y="-548.3" font-family="Times,serif" font-size="14.00" fill="white">[Validate]</text>
</g>
<!-- 128123532267504&#45;&gt;128123532268144 -->
<g id="edge17" class="edge">
<title>128123532267504&#45;&gt;128123532268144</title>
<path fill="none" stroke="white" d="M825,-570.2C825,-581.84 825,-597.45 825,-610.76"/>
<polygon fill="white" stroke="white" points="821.5,-610.82 825,-620.82 828.5,-610.82 821.5,-610.82"/>
<g id="a_edge17&#45;label"><a xlink:title="Output Expressions: &#10; (1) ps_partkey&#10; (2) ps_suppkey&#10; (3) ps_availqty&#10; (4) ps_supplycost&#10;&#10;Unique Column Combinations: &#10; (1) {ps_partkey, ps_suppkey}&#10;&#10;Functional Dependencies (trivial): &#10; (1) {ps_partkey, ps_suppkey} =&gt; {ps_availqty, ps_supplycost}&#10;&#10;Functional Dependencies (non&#45;trivial): &#10; &lt;none&gt;">
<text text-anchor="middle" x="948.5" y="-591.8" font-family="Times,serif" font-size="14.00" fill="white"> 1,599,999.9 row(s) | 100.0% estd.</text>
</a>
</g>
</g>
<!-- 128123533128336 -->
<g id="node19" class="node">
<title>128123533128336</title>
<polygon fill="none" stroke="white" points="992.5,-482 657.5,-482 657.5,-446 992.5,-446 992.5,-482"/>
<text text-anchor="middle" x="825" y="-460.3" font-family="Times,serif" font-size="14.00" fill="white">[Join] Mode: Semi [ps_suppkey = s_suppkey]</text>
</g>
<!-- 128123533128336&#45;&gt;128123532267504 -->
<g id="edge18" class="edge">
<title>128123533128336&#45;&gt;128123532267504</title>
<path fill="none" stroke="white" d="M825,-482.4C825,-494.25 825,-510.18 825,-523.71"/>
<polygon fill="white" stroke="white" points="821.5,-523.92 825,-533.92 828.5,-523.92 821.5,-523.92"/>
<g id="a_edge18&#45;label"><a xlink:title="Output Expressions: &#10; (1) ps_partkey&#10; (2) ps_suppkey&#10; (3) ps_availqty&#10; (4) ps_supplycost&#10;&#10;Unique Column Combinations: &#10; (1) {ps_partkey, ps_suppkey}&#10;&#10;Functional Dependencies (trivial): &#10; (1) {ps_partkey, ps_suppkey} =&gt; {ps_availqty, ps_supplycost}&#10;&#10;Functional Dependencies (non&#45;trivial): &#10; &lt;none&gt;">
<text text-anchor="middle" x="939.5" y="-504.8" font-family="Times,serif" font-size="14.00" fill="white"> 1,599,999.9 row(s) | 4.0% estd.</text>
</a>
</g>
</g>
<!-- 128055691488976 -->
<g id="node20" class="node">
<title>128055691488976</title>
<polygon fill="none" stroke="white" points="996,-394 650,-394 650,-356 996,-356 996,-394"/>
<text text-anchor="middle" x="823" y="-378.8" font-family="Times,serif" font-size="14.00" fill="white">[StoredTable] Name: &#39;partsupp&#39; pruned: 0/611</text>
<text text-anchor="middle" x="823" y="-363.8" font-family="Times,serif" font-size="14.00" fill="white">chunk(s), 1/5 column(s)</text>
</g>
<!-- 128055691488976&#45;&gt;128123533128336 -->
<g id="edge19" class="edge">
<title>128055691488976&#45;&gt;128123533128336</title>
<path fill="none" stroke="white" stroke-width="8" d="M823.32,-394.41C823.5,-404.11 823.74,-416.2 824,-427 824.07,-429.78 824.14,-432.67 824.21,-435.56"/>
<polygon fill="white" stroke="white" stroke-width="8" points="824.22,-435.79 817.22,-435.98 824.49,-445.79 824.22,-435.79"/>
<g id="a_edge19&#45;label"><a xlink:title="Output Expressions: &#10; (1) ps_partkey&#10; (2) ps_suppkey&#10; (3) ps_availqty&#10; (4) ps_supplycost&#10;&#10;Unique Column Combinations: &#10; (1) {ps_partkey, ps_suppkey}&#10;&#10;Functional Dependencies (trivial): &#10; (1) {ps_partkey, ps_suppkey} =&gt; {ps_availqty, ps_supplycost}&#10;&#10;Functional Dependencies (non&#45;trivial): &#10; &lt;none&gt;">
<text text-anchor="middle" x="952" y="-415.8" font-family="Times,serif" font-size="14.00" fill="white"> 40,000,000.0 row(s) | 100.0% estd.</text>
</a>
</g>
</g>
<!-- 128123532266864 -->
<g id="node21" class="node">
<title>128123532266864</title>
<polygon fill="none" stroke="white" points="1144.5,-393 1059.5,-393 1059.5,-357 1144.5,-357 1144.5,-393"/>
<text text-anchor="middle" x="1102" y="-371.3" font-family="Times,serif" font-size="14.00" fill="white">[Validate]</text>
</g>
<!-- 128123532266864&#45;&gt;128123533128336 -->
<g id="edge20" class="edge">
<title>128123532266864&#45;&gt;128123533128336</title>
<path fill="none" stroke="white" d="M1099.03,-393.37C1096.14,-404.74 1090.58,-418.93 1080,-427 1066.09,-437.62 1036.85,-445.11 1002.95,-450.39"/>
<polygon fill="white" stroke="white" points="992.78,-451.89 1003.19,-453.89 1002.68,-450.43 992.78,-451.89"/>
<g id="a_edge20&#45;label"><a xlink:title="Output Expressions: &#10; (1) s_suppkey&#10; (2) s_nationkey&#10;&#10;Unique Column Combinations: &#10; (1) {s_suppkey}&#10;&#10;Functional Dependencies (trivial): &#10; (1) {s_suppkey} =&gt; {s_nationkey}&#10;&#10;Functional Dependencies (non&#45;trivial): &#10; &lt;none&gt;">
<text text-anchor="middle" x="1205.5" y="-415.8" font-family="Times,serif" font-size="14.00" fill="white"> 20,000.0 row(s) | 100.0% estd.</text>
</a>
</g>
</g>
<!-- 128123533128144 -->
<g id="node22" class="node">
<title>128123533128144</title>
<polygon fill="none" stroke="white" points="1276.5,-304 927.5,-304 927.5,-268 1276.5,-268 1276.5,-304"/>
<text text-anchor="middle" x="1102" y="-282.3" font-family="Times,serif" font-size="14.00" fill="white">[Join] Mode: Semi [s_nationkey = n_nationkey]</text>
</g>
<!-- 128123533128144&#45;&gt;128123532266864 -->
<g id="edge21" class="edge">
<title>128123533128144&#45;&gt;128123532266864</title>
<path fill="none" stroke="white" d="M1102,-304.19C1102,-316.34 1102,-332.89 1102,-346.82"/>
<polygon fill="white" stroke="white" points="1098.5,-346.85 1102,-356.85 1105.5,-346.85 1098.5,-346.85"/>
<g id="a_edge21&#45;label"><a xlink:title="Output Expressions: &#10; (1) s_suppkey&#10; (2) s_nationkey&#10;&#10;Unique Column Combinations: &#10; (1) {s_suppkey}&#10;&#10;Functional Dependencies (trivial): &#10; (1) {s_suppkey} =&gt; {s_nationkey}&#10;&#10;Functional Dependencies (non&#45;trivial): &#10; &lt;none&gt;">
<text text-anchor="middle" x="1205.5" y="-326.8" font-family="Times,serif" font-size="14.00" fill="white"> 20,000.0 row(s) | 4.0% estd.</text>
</a>
</g>
</g>
<!-- 128055247687696 -->
<g id="node23" class="node">
<title>128055247687696</title>
<polygon fill="none" stroke="white" points="1107,-216 785,-216 785,-178 1107,-178 1107,-216"/>
<text text-anchor="middle" x="946" y="-200.8" font-family="Times,serif" font-size="14.00" fill="white">[StoredTable] Name: &#39;supplier&#39; pruned: 0/8</text>
<text text-anchor="middle" x="946" y="-185.8" font-family="Times,serif" font-size="14.00" fill="white">chunk(s), 5/7 column(s)</text>
</g>
<!-- 128055247687696&#45;&gt;128123533128144 -->
<g id="edge22" class="edge">
<title>128055247687696&#45;&gt;128123533128144</title>
<path fill="none" stroke="white" d="M939.3,-216.36C936.69,-226.98 935.8,-239.99 943,-249 948.06,-255.33 958.82,-260.63 972.47,-265.05"/>
<polygon fill="white" stroke="white" points="972.75,-265.13 971.76,-268.49 982.34,-267.97 972.75,-265.13"/>
<g id="a_edge22&#45;label"><a xlink:title="Output Expressions: &#10; (1) s_suppkey&#10; (2) s_nationkey&#10;&#10;Unique Column Combinations: &#10; (1) {s_suppkey}&#10;&#10;Functional Dependencies (trivial): &#10; (1) {s_suppkey} =&gt; {s_nationkey}&#10;&#10;Functional Dependencies (non&#45;trivial): &#10; &lt;none&gt;">
<text text-anchor="middle" x="1060" y="-237.8" font-family="Times,serif" font-size="14.00" fill="white"> 500,000.0 row(s) | 100.0% estd.</text>
</a>
</g>
</g>
<!-- 128123532267024 -->
<g id="node24" class="node">
<title>128123532267024</title>
<polygon fill="none" stroke="white" points="1245.5,-215 1160.5,-215 1160.5,-179 1245.5,-179 1245.5,-215"/>
<text text-anchor="middle" x="1203" y="-193.3" font-family="Times,serif" font-size="14.00" fill="white">[Validate]</text>
</g>
<!-- 128123532267024&#45;&gt;128123533128144 -->
<g id="edge23" class="edge">
<title>128123532267024&#45;&gt;128123533128144</title>
<path fill="none" stroke="white" d="M1198.93,-215.42C1195.65,-226.23 1190.04,-239.77 1181,-249 1175.78,-254.33 1169.62,-258.94 1163.09,-262.92"/>
<polygon fill="white" stroke="white" points="1154,-267.95 1164.44,-266.17 1162.75,-263.11 1154,-267.95"/>
<g id="a_edge23&#45;label"><a xlink:title="Output Expressions: &#10; (1) n_nationkey&#10; (2) n_name&#10;&#10;Unique Column Combinations: &#10; (1) {n_nationkey}&#10;&#10;Functional Dependencies (trivial): &#10; (1) {n_nationkey} =&gt; {n_name}&#10;&#10;Functional Dependencies (non&#45;trivial): &#10; &lt;none&gt;">
<text text-anchor="middle" x="1283" y="-237.8" font-family="Times,serif" font-size="14.00" fill="white"> 1.0 row(s) | 100.0% estd.</text>
</a>
</g>
</g>
<!-- 128123533124496 -->
<g id="node25" class="node">
<title>128123533124496</title>
<polygon fill="none" stroke="white" points="1319.5,-126 1086.5,-126 1086.5,-90 1319.5,-90 1319.5,-126"/>
<text text-anchor="middle" x="1203" y="-104.3" font-family="Times,serif" font-size="14.00" fill="white">[Predicate] n_name = &#39;EGYPT&#39;</text>
</g>
<!-- 128123533124496&#45;&gt;128123532267024 -->
<g id="edge24" class="edge">
<title>128123533124496&#45;&gt;128123532267024</title>
<path fill="none" stroke="white" d="M1203,-126.19C1203,-138.34 1203,-154.89 1203,-168.82"/>
<polygon fill="white" stroke="white" points="1199.5,-168.85 1203,-178.85 1206.5,-168.85 1199.5,-168.85"/>
<g id="a_edge24&#45;label"><a xlink:title="Output Expressions: &#10; (1) n_nationkey&#10; (2) n_name&#10;&#10;Unique Column Combinations: &#10; (1) {n_nationkey}&#10;&#10;Functional Dependencies (trivial): &#10; (1) {n_nationkey} =&gt; {n_name}&#10;&#10;Functional Dependencies (non&#45;trivial): &#10; &lt;none&gt;">
<text text-anchor="middle" x="1286" y="-148.8" font-family="Times,serif" font-size="14.00" fill="white"> 1.0 row(s) | 4.0% estd.</text>
</a>
</g>
</g>
<!-- 128055247689936 -->
<g id="node26" class="node">
<title>128055247689936</title>
<polygon fill="none" stroke="white" points="1392,-38 1014,-38 1014,0 1392,0 1392,-38"/>
<text text-anchor="middle" x="1203" y="-22.8" font-family="Times,serif" font-size="14.00" fill="white">[StoredTable] Name: &#39;nation&#39; pruned: 0/1 chunk(s),</text>
<text text-anchor="middle" x="1203" y="-7.8" font-family="Times,serif" font-size="14.00" fill="white">2/4 column(s)</text>
</g>
<!-- 128055247689936&#45;&gt;128123533124496 -->
<g id="edge25" class="edge">
<title>128055247689936&#45;&gt;128123533124496</title>
<path fill="none" stroke="white" d="M1203,-38.03C1203,-50.04 1203,-66.07 1203,-79.64"/>
<polygon fill="white" stroke="white" points="1199.5,-79.88 1203,-89.88 1206.5,-79.88 1199.5,-79.88"/>
<g id="a_edge25&#45;label"><a xlink:title="Output Expressions: &#10; (1) n_nationkey&#10; (2) n_name&#10;&#10;Unique Column Combinations: &#10; (1) {n_nationkey}&#10;&#10;Functional Dependencies (trivial): &#10; (1) {n_nationkey} =&gt; {n_name}&#10;&#10;Functional Dependencies (non&#45;trivial): &#10; &lt;none&gt;">
<text text-anchor="middle" x="1299.5" y="-59.8" font-family="Times,serif" font-size="14.00" fill="white"> 25.0 row(s) | 100.0% estd.</text>
</a>
</g>
</g>
</g>
</svg>
