<?xml version="1.0" encoding="UTF-8" standalone="no"?>
<!DOCTYPE svg PUBLIC "-//W3C//DTD SVG 1.1//EN"
 "http://www.w3.org/Graphics/SVG/1.1/DTD/svg11.dtd">
<!-- Generated by graphviz version 2.43.0 (0)
 -->
<!-- Title: G Pages: 1 -->
<svg width="1383pt" height="2615pt"
 viewBox="0.00 0.00 1383.00 2615.00" xmlns="http://www.w3.org/2000/svg" xmlns:xlink="http://www.w3.org/1999/xlink">
<g id="graph0" class="graph" transform="scale(1 1) rotate(0) translate(4 2611)">
<title>G</title>
<polygon fill="black" stroke="transparent" points="-4,4 -4,-2611 1379,-2611 1379,4 -4,4"/>
<text text-anchor="middle" x="319.5" y="-2591.8" font-family="Times,serif" font-size="14.00" fill="white">For tooltips with advanced information, hover your mouse over vertices or edge labels.</text>
<!-- 128055662842832 -->
<g id="node1" class="node">
<title>128055662842832</title>
<g id="a_node1"><a xlink:title="Output: 5 rows in 1 chunk filtered: 0, 2 µs 88 ns.">
<polygon fill="none" stroke="white" points="915,-2552 766,-2552 766,-2483 915,-2483 915,-2552"/>
<text text-anchor="middle" x="840.5" y="-2536.8" font-family="Times,serif" font-size="14.00" fill="white">Alias</text>
<text text-anchor="middle" x="840.5" y="-2521.8" font-family="Times,serif" font-size="14.00" fill="white">[n_name, revenue]</text>
<text text-anchor="middle" x="840.5" y="-2490.8" font-family="Times,serif" font-size="14.00" fill="white">2 µs 88 ns</text>
</a>
</g>
</g>
<!-- 128055662842512 -->
<g id="node2" class="node">
<title>128055662842512</title>
<g id="a_node2"><a xlink:title="Output: 5 rows in 1 chunk filtered: 0, 9 µs 415 ns.&#10;Operator step runtimes:&#10; MaterializeSortColumns 2 µs 279 ns&#10; Sort 910 ns&#10; TemporaryResultWriting 216 ns&#10; WriteOutput 4 µs 573 ns.">
<polygon fill="none" stroke="white" points="890,-2432 791,-2432 791,-2378 890,-2378 890,-2432"/>
<text text-anchor="middle" x="840.5" y="-2416.8" font-family="Times,serif" font-size="14.00" fill="white">Sort</text>
<text text-anchor="middle" x="840.5" y="-2385.8" font-family="Times,serif" font-size="14.00" fill="white">9 µs 415 ns</text>
</a>
</g>
</g>
<!-- 128055662842512&#45;&gt;128055662842832 -->
<g id="edge1" class="edge">
<title>128055662842512&#45;&gt;128055662842832</title>
<path fill="none" stroke="white" d="M840.5,-2432.19C840.5,-2444.29 840.5,-2459 840.5,-2472.72"/>
<polygon fill="white" stroke="white" points="837,-2472.95 840.5,-2482.95 844,-2472.96 837,-2472.95"/>
<text text-anchor="middle" x="909.5" y="-2453.8" font-family="Times,serif" font-size="14.00" fill="white">5 row(s)/1 chunk(s)</text>
</g>
<!-- 128055999219216 -->
<g id="node3" class="node">
<title>128055999219216</title>
<g id="a_node3"><a xlink:title="Output: 5 rows in 1 chunk filtered: 0, 16 ms 177 µs.&#10;Operator step runtimes:&#10; GroupByKeyPartitioning 12 ms 499 µs&#10; Aggregating 3 ms 627 µs&#10; GroupByColumnsWriting 4 µs 314 ns&#10; AggregateColumnsWriting 6 µs 967 ns&#10; OutputWriting 3 µs 834 ns.">
<polygon fill="none" stroke="white" points="989,-2327 692,-2327 692,-2243 989,-2243 989,-2327"/>
<text text-anchor="middle" x="840.5" y="-2311.8" font-family="Times,serif" font-size="14.00" fill="white">AggregateHash</text>
<text text-anchor="middle" x="840.5" y="-2296.8" font-family="Times,serif" font-size="14.00" fill="white">GroupBy {n_name}</text>
<text text-anchor="middle" x="840.5" y="-2281.8" font-family="Times,serif" font-size="14.00" fill="white">SUM(l_extendedprice * (1 &#45; l_discount))</text>
<text text-anchor="middle" x="840.5" y="-2250.8" font-family="Times,serif" font-size="14.00" fill="white">16 ms 177 µs</text>
</a>
</g>
</g>
<!-- 128055999219216&#45;&gt;128055662842512 -->
<g id="edge2" class="edge">
<title>128055999219216&#45;&gt;128055662842512</title>
<path fill="none" stroke="white" d="M840.5,-2327.27C840.5,-2340.36 840.5,-2354.72 840.5,-2367.45"/>
<polygon fill="white" stroke="white" points="837,-2367.69 840.5,-2377.69 844,-2367.69 837,-2367.69"/>
<text text-anchor="middle" x="909.5" y="-2348.8" font-family="Times,serif" font-size="14.00" fill="white">5 row(s)/1 chunk(s)</text>
</g>
<!-- 128055662842192 -->
<g id="node4" class="node">
<title>128055662842192</title>
<g id="a_node4"><a xlink:title="Output: 364475 rows in 256 chunks filtered: 0, 61 ms 804 µs.&#10;Operator step runtimes:&#10; ForwardUnmodifiedColumns 198 µs 403 ns&#10; EvaluateNewColumns 61 ms 207 µs&#10; BuildOutput 353 µs 306 ns.">
<polygon fill="none" stroke="white" stroke-width="1.49" points="897,-2192 784,-2192 784,-2138 897,-2138 897,-2192"/>
<text text-anchor="middle" x="840.5" y="-2176.8" font-family="Times,serif" font-size="14.00" fill="white">Projection</text>
<text text-anchor="middle" x="840.5" y="-2145.8" font-family="Times,serif" font-size="14.00" fill="white">61 ms 804 µs</text>
</a>
</g>
</g>
<!-- 128055662842192&#45;&gt;128055999219216 -->
<g id="edge3" class="edge">
<title>128055662842192&#45;&gt;128055999219216</title>
<path fill="none" stroke="white" d="M840.5,-2192.19C840.5,-2204.1 840.5,-2218.63 840.5,-2232.58"/>
<polygon fill="white" stroke="white" points="837,-2232.59 840.5,-2242.59 844,-2232.59 837,-2232.59"/>
<text text-anchor="middle" x="943" y="-2213.8" font-family="Times,serif" font-size="14.00" fill="white">364,475 row(s)/256 chunk(s)</text>
</g>
<!-- 128055662841872 -->
<g id="node5" class="node">
<title>128055662841872</title>
<g id="a_node5"><a xlink:title="Output: 364475 rows in 256 chunks filtered: 0, 16 ms 717 µs.&#10;Chunks: 0 skipped with no results, &#10;0 skipped with all matching, 0 scanned using binary search.">
<polygon fill="none" stroke="white" points="943.5,-2087 737.5,-2087 737.5,-2003 943.5,-2003 943.5,-2087"/>
<text text-anchor="middle" x="840.5" y="-2071.8" font-family="Times,serif" font-size="14.00" fill="white">TableScan</text>
<text text-anchor="middle" x="840.5" y="-2056.8" font-family="Times,serif" font-size="14.00" fill="white">Impl: ColumnVsColumn</text>
<text text-anchor="middle" x="840.5" y="-2041.8" font-family="Times,serif" font-size="14.00" fill="white">c_nationkey = s_nationkey</text>
<text text-anchor="middle" x="840.5" y="-2010.8" font-family="Times,serif" font-size="14.00" fill="white">16 ms 717 µs</text>
</a>
</g>
</g>
<!-- 128055662841872&#45;&gt;128055662842192 -->
<g id="edge4" class="edge">
<title>128055662841872&#45;&gt;128055662842192</title>
<path fill="none" stroke="white" d="M840.5,-2087.27C840.5,-2100.36 840.5,-2114.72 840.5,-2127.45"/>
<polygon fill="white" stroke="white" points="837,-2127.69 840.5,-2137.69 844,-2127.69 837,-2127.69"/>
<text text-anchor="middle" x="943" y="-2108.8" font-family="Times,serif" font-size="14.00" fill="white">364,475 row(s)/256 chunk(s)</text>
</g>
<!-- 128124134297296 -->
<g id="node6" class="node">
<title>128124134297296</title>
<g id="a_node6"><a xlink:title="Output: 9114648 rows in 256 chunks filtered: 0, 200 ms 641 µs.&#10;Operator step runtimes:&#10; LeftSideMaterialize 39 ms 866 µs&#10; RightSideMaterialize 4 ms 736 µs&#10; LeftSideTransform 0 ns&#10; RightSideTransform 0 ns&#10; LeftSidePartition 14 ms 480 µs&#10; RightSidePartition 12 ms 569 µs&#10; LeftSideSortBuckets 18 ms 54 µs&#10; RightSideSortBuckets 15 ms 24 µs&#10; GatherRowIds 3 µs 983 ns&#10; FindJoinPartner 46 ms 590 µs&#10; OutputWriting 47 ms 828 µs.&#10;Radix bits: 8.">
<polygon fill="none" stroke="white" stroke-width="4.4" points="946,-1952 735,-1952 735,-1883 946,-1883 946,-1952"/>
<text text-anchor="middle" x="840.5" y="-1936.8" font-family="Times,serif" font-size="14.00" fill="white">JoinSimdSortMerge (Inner)</text>
<text text-anchor="middle" x="840.5" y="-1921.8" font-family="Times,serif" font-size="14.00" fill="white">o_custkey = c_custkey</text>
<text text-anchor="middle" x="840.5" y="-1890.8" font-family="Times,serif" font-size="14.00" fill="white">200 ms 641 µs</text>
</a>
</g>
</g>
<!-- 128124134297296&#45;&gt;128055662841872 -->
<g id="edge5" class="edge">
<title>128124134297296&#45;&gt;128055662841872</title>
<path fill="none" stroke="white" d="M840.5,-1952.13C840.5,-1964.51 840.5,-1978.84 840.5,-1992.44"/>
<polygon fill="white" stroke="white" points="837,-1992.65 840.5,-2002.65 844,-1992.65 837,-1992.65"/>
<text text-anchor="middle" x="950" y="-1973.8" font-family="Times,serif" font-size="14.00" fill="white">9,114,648 row(s)/256 chunk(s)</text>
</g>
<!-- 128124134296976 -->
<g id="node7" class="node">
<title>128124134296976</title>
<g id="a_node7"><a xlink:title="Output: 9114648 rows in 64 chunks filtered: 0, 364 ms 691 µs.&#10;Operator step runtimes:&#10; LeftSideMaterialize 148 ms 545 µs&#10; RightSideMaterialize 48 ms 247 µs&#10; LeftSideTransform 0 ns&#10; RightSideTransform 0 ns&#10; LeftSidePartition 14 ms 98 µs&#10; RightSidePartition 14 ms 976 µs&#10; LeftSideSortBuckets 12 ms 563 µs&#10; RightSideSortBuckets 14 ms 807 µs&#10; GatherRowIds 3 µs 749 ns&#10; FindJoinPartner 54 ms 505 µs&#10; OutputWriting 55 ms 383 µs.&#10;Radix bits: 8.">
<polygon fill="none" stroke="white" stroke-width="5.87" points="826,-1832 615,-1832 615,-1763 826,-1763 826,-1832"/>
<text text-anchor="middle" x="720.5" y="-1816.8" font-family="Times,serif" font-size="14.00" fill="white">JoinSimdSortMerge (Inner)</text>
<text text-anchor="middle" x="720.5" y="-1801.8" font-family="Times,serif" font-size="14.00" fill="white">l_orderkey = o_orderkey</text>
<text text-anchor="middle" x="720.5" y="-1770.8" font-family="Times,serif" font-size="14.00" fill="white">364 ms 691 µs</text>
</a>
</g>
</g>
<!-- 128124134296976&#45;&gt;128124134297296 -->
<g id="edge6" class="edge">
<title>128124134296976&#45;&gt;128124134297296</title>
<path fill="none" stroke="white" d="M717.59,-1832.33C718.22,-1843.61 720.78,-1855.67 727.5,-1865 730.42,-1869.05 733.73,-1872.79 737.35,-1876.24"/>
<polygon fill="white" stroke="white" points="737.56,-1876.43 735.29,-1879.09 745.16,-1882.93 737.56,-1876.43"/>
<text text-anchor="middle" x="832.5" y="-1853.8" font-family="Times,serif" font-size="14.00" fill="white">9,114,648 row(s)/64 chunk(s)</text>
</g>
<!-- 128124134296656 -->
<g id="node8" class="node">
<title>128124134296656</title>
<g id="a_node8"><a xlink:title="Output: 9114648 rows in 256 chunks filtered: 0, 158 ms 936 µs.&#10;Operator step runtimes:&#10; LeftSideMaterialize 68 ms 21 µs&#10; RightSideMaterialize 836 µs 567 ns&#10; LeftSideTransform 0 ns&#10; RightSideTransform 0 ns&#10; LeftSidePartition 14 ms 424 µs&#10; RightSidePartition 3 ms 401 µs&#10; LeftSideSortBuckets 18 ms 372 µs&#10; RightSideSortBuckets 608 µs 911 ns&#10; GatherRowIds 2 µs 580 ns&#10; FindJoinPartner 34 ms 494 µs&#10; OutputWriting 18 ms 102 µs.&#10;Radix bits: 8.">
<polygon fill="none" stroke="white" stroke-width="3.82" points="855,-1689.5 644,-1689.5 644,-1620.5 855,-1620.5 855,-1689.5"/>
<text text-anchor="middle" x="749.5" y="-1674.3" font-family="Times,serif" font-size="14.00" fill="white">JoinSimdSortMerge (Inner)</text>
<text text-anchor="middle" x="749.5" y="-1659.3" font-family="Times,serif" font-size="14.00" fill="white">l_suppkey = s_suppkey</text>
<text text-anchor="middle" x="749.5" y="-1628.3" font-family="Times,serif" font-size="14.00" fill="white">158 ms 936 µs</text>
</a>
</g>
</g>
<!-- 128124134296656&#45;&gt;128124134296976 -->
<g id="edge7" class="edge">
<title>128124134296656&#45;&gt;128124134296976</title>
<path fill="none" stroke="white" d="M742.55,-1689.65C738.65,-1708.54 733.74,-1732.33 729.55,-1752.66"/>
<polygon fill="white" stroke="white" points="729.51,-1752.84 726.08,-1752.13 727.49,-1762.63 729.51,-1752.84"/>
<text text-anchor="middle" x="844" y="-1733.8" font-family="Times,serif" font-size="14.00" fill="white">9,114,648 row(s)/256 chunk(s)</text>
</g>
<!-- 128124134233872 -->
<g id="node9" class="node">
<title>128124134233872</title>
<g id="a_node9"><a xlink:title="Output: 9114648 rows in 64 chunks filtered: 0, 20 ms 565 µs.">
<polygon fill="none" stroke="white" points="806,-1547 693,-1547 693,-1493 806,-1493 806,-1547"/>
<text text-anchor="middle" x="749.5" y="-1531.8" font-family="Times,serif" font-size="14.00" fill="white">Validate</text>
<text text-anchor="middle" x="749.5" y="-1500.8" font-family="Times,serif" font-size="14.00" fill="white">20 ms 565 µs</text>
</a>
</g>
</g>
<!-- 128124134233872&#45;&gt;128124134296656 -->
<g id="edge8" class="edge">
<title>128124134233872&#45;&gt;128124134296656</title>
<path fill="none" stroke="white" d="M749.5,-1547.28C749.5,-1565.15 749.5,-1589.24 749.5,-1610"/>
<polygon fill="white" stroke="white" points="749.5,-1610.2 746,-1610.2 749.5,-1620.2 749.5,-1610.2"/>
<text text-anchor="middle" x="854.5" y="-1568.8" font-family="Times,serif" font-size="14.00" fill="white">9,114,648 row(s)/64 chunk(s)</text>
</g>
<!-- 128124134296336 -->
<g id="node10" class="node">
<title>128124134296336</title>
<g id="a_node10"><a xlink:title="Output: 9114648 rows in 64 chunks filtered: 0, 864 ms 795 µs.&#10;Operator step runtimes:&#10; LeftSideMaterialize 523 ms 82 µs&#10; RightSideMaterialize 50 ms 819 µs&#10; LeftSideTransform 0 ns&#10; RightSideTransform 0 ns&#10; LeftSidePartition 77 ms 716 µs&#10; RightSidePartition 14 ms 710 µs&#10; LeftSideSortBuckets 66 ms 235 µs&#10; RightSideSortBuckets 14 ms 892 µs&#10; GatherRowIds 3 µs 678 ns&#10; FindJoinPartner 93 ms 942 µs&#10; OutputWriting 21 ms 794 µs.&#10;Radix bits: 8.">
<polygon fill="none" stroke="white" stroke-width="8" points="883,-1442 598,-1442 598,-1373 883,-1373 883,-1442"/>
<text text-anchor="middle" x="740.5" y="-1426.8" font-family="Times,serif" font-size="14.00" fill="white">JoinSimdSortMerge (Semi Reduction)</text>
<text text-anchor="middle" x="740.5" y="-1411.8" font-family="Times,serif" font-size="14.00" fill="white">l_orderkey = o_orderkey</text>
<text text-anchor="middle" x="740.5" y="-1380.8" font-family="Times,serif" font-size="14.00" fill="white">864 ms 795 µs</text>
</a>
</g>
</g>
<!-- 128124134296336&#45;&gt;128124134233872 -->
<g id="edge9" class="edge">
<title>128124134296336&#45;&gt;128124134233872</title>
<path fill="none" stroke="white" d="M743.25,-1442.25C744.29,-1455.07 745.49,-1469.73 746.55,-1482.77"/>
<polygon fill="white" stroke="white" points="743.07,-1483.13 747.37,-1492.81 750.04,-1482.56 743.07,-1483.13"/>
<text text-anchor="middle" x="851.5" y="-1463.8" font-family="Times,serif" font-size="14.00" fill="white">9,114,648 row(s)/64 chunk(s)</text>
</g>
<!-- 128124134295696 -->
<g id="node11" class="node">
<title>128124134295696</title>
<g id="a_node11"><a xlink:title="Output: 60052393 rows in 256 chunks filtered: 0, 574 ms 44 µs.&#10;Operator step runtimes:&#10; LeftSideMaterialize 209 ms 751 µs&#10; RightSideMaterialize 1 ms 476 µs&#10; LeftSideTransform 0 ns&#10; RightSideTransform 0 ns&#10; LeftSidePartition 84 ms 40 µs&#10; RightSidePartition 3 ms 153 µs&#10; LeftSideSortBuckets 68 ms 438 µs&#10; RightSideSortBuckets 618 µs 350 ns&#10; GatherRowIds 3 µs 259 ns&#10; FindJoinPartner 200 ms 144 µs&#10; OutputWriting 902 µs 315 ns.&#10;Radix bits: 8.">
<polygon fill="none" stroke="white" stroke-width="6.99" points="883,-1322 598,-1322 598,-1253 883,-1253 883,-1322"/>
<text text-anchor="middle" x="740.5" y="-1306.8" font-family="Times,serif" font-size="14.00" fill="white">JoinSimdSortMerge (Semi Reduction)</text>
<text text-anchor="middle" x="740.5" y="-1291.8" font-family="Times,serif" font-size="14.00" fill="white">l_suppkey = s_suppkey</text>
<text text-anchor="middle" x="740.5" y="-1260.8" font-family="Times,serif" font-size="14.00" fill="white">574 ms 44 µs</text>
</a>
</g>
</g>
<!-- 128124134295696&#45;&gt;128124134296336 -->
<g id="edge10" class="edge">
<title>128124134295696&#45;&gt;128124134296336</title>
<path fill="none" stroke="white" stroke-width="4.03" d="M740.5,-1322.31C740.5,-1334.78 740.5,-1349.1 740.5,-1362.34"/>
<polygon fill="white" stroke="white" stroke-width="4.03" points="740.5,-1362.68 736.97,-1362.68 740.5,-1372.68 740.5,-1362.68"/>
<text text-anchor="middle" x="854.5" y="-1343.8" font-family="Times,serif" font-size="14.00" fill="white">60,052,393 row(s)/256 chunk(s)</text>
</g>
<!-- 128049375334352 -->
<g id="node12" class="node">
<title>128049375334352</title>
<g id="a_node12"><a xlink:title="Output: 300005811 rows in 4578 chunks filtered: 0, 12 ms 779 µs.">
<polygon fill="none" stroke="white" points="574,-1202 443,-1202 443,-1088 574,-1088 574,-1202"/>
<text text-anchor="middle" x="508.5" y="-1186.8" font-family="Times,serif" font-size="14.00" fill="white">GetTable</text>
<text text-anchor="middle" x="508.5" y="-1171.8" font-family="Times,serif" font-size="14.00" fill="white">(lineitem)</text>
<text text-anchor="middle" x="508.5" y="-1156.8" font-family="Times,serif" font-size="14.00" fill="white">pruned:</text>
<text text-anchor="middle" x="508.5" y="-1141.8" font-family="Times,serif" font-size="14.00" fill="white">0/4578 chunk(s)</text>
<text text-anchor="middle" x="508.5" y="-1126.8" font-family="Times,serif" font-size="14.00" fill="white">12/16 column(s)</text>
<text text-anchor="middle" x="508.5" y="-1095.8" font-family="Times,serif" font-size="14.00" fill="white">12 ms 779 µs</text>
</a>
</g>
</g>
<!-- 128049375334352&#45;&gt;128124134295696 -->
<g id="edge11" class="edge">
<title>128049375334352&#45;&gt;128124134295696</title>
<path fill="none" stroke="white" stroke-width="8" d="M503.19,-1202.02C504.7,-1214.06 508.55,-1225.88 516.5,-1235 527.54,-1247.66 555.55,-1257.56 588.16,-1265.15"/>
<polygon fill="white" stroke="white" stroke-width="8" points="588.18,-1265.16 586.66,-1271.99 597.95,-1267.33 588.18,-1265.16"/>
<text text-anchor="middle" x="641.5" y="-1223.8" font-family="Times,serif" font-size="14.00" fill="white">300,005,811 row(s)/4,578 chunk(s)</text>
</g>
<!-- 128124134295056 -->
<g id="node13" class="node">
<title>128124134295056</title>
<g id="a_node13"><a xlink:title="Output: 100090 rows in 5 chunks filtered: 0, 12 ms 88 µs.&#10;Operator step runtimes:&#10; LeftSideMaterialize 1 ms 356 µs&#10; RightSideMaterialize 26 µs 534 ns&#10; LeftSideTransform 0 ns&#10; RightSideTransform 0 ns&#10; LeftSidePartition 3 ms 195 µs&#10; RightSidePartition 21 µs 492 ns&#10; LeftSideSortBuckets 4 ms 11 µs&#10; RightSideSortBuckets 609 µs 202 ns&#10; GatherRowIds 1 µs 1 ns&#10; FindJoinPartner 358 µs 802 ns&#10; OutputWriting 2 ms 414 µs.&#10;Radix bits: 8.">
<polygon fill="none" stroke="white" points="988,-1179.5 777,-1179.5 777,-1110.5 988,-1110.5 988,-1179.5"/>
<text text-anchor="middle" x="882.5" y="-1164.3" font-family="Times,serif" font-size="14.00" fill="white">JoinSimdSortMerge (Inner)</text>
<text text-anchor="middle" x="882.5" y="-1149.3" font-family="Times,serif" font-size="14.00" fill="white">s_nationkey = n_nationkey</text>
<text text-anchor="middle" x="882.5" y="-1118.3" font-family="Times,serif" font-size="14.00" fill="white">12 ms 88 µs</text>
</a>
</g>
</g>
<!-- 128124134295056&#45;&gt;128124134296656 -->
<g id="edge13" class="edge">
<title>128124134295056&#45;&gt;128124134296656</title>
<path fill="none" stroke="white" d="M933.29,-1179.65C946.91,-1190.96 960.37,-1204.66 969.5,-1220 984.94,-1245.96 983.5,-1256.3 983.5,-1286.5 983.5,-1286.5 983.5,-1286.5 983.5,-1521 983.5,-1548.69 983.83,-1561.21 963.5,-1580 939.6,-1602.1 923.49,-1588.05 892.5,-1598 875.26,-1603.54 857.1,-1610.08 839.72,-1616.7"/>
<polygon fill="white" stroke="white" points="830.16,-1620.38 840.75,-1620.06 839.49,-1616.79 830.16,-1620.38"/>
<text text-anchor="middle" x="1077" y="-1403.8" font-family="Times,serif" font-size="14.00" fill="white">100,090 row(s)/5 chunk(s)</text>
</g>
<!-- 128124134295056&#45;&gt;128124134295696 -->
<g id="edge12" class="edge">
<title>128124134295056&#45;&gt;128124134295696</title>
<path fill="none" stroke="white" d="M829.65,-1179.53C813.47,-1191.2 796.32,-1205.12 782.5,-1220 775.67,-1227.35 769.3,-1235.97 763.69,-1244.51"/>
<polygon fill="white" stroke="white" points="758.34,-1252.98 766.64,-1246.39 763.68,-1244.52 758.34,-1252.98"/>
<text text-anchor="middle" x="876" y="-1223.8" font-family="Times,serif" font-size="14.00" fill="white">100,090 row(s)/5 chunk(s)</text>
</g>
<!-- 128124134232336 -->
<g id="node14" class="node">
<title>128124134232336</title>
<g id="a_node14"><a xlink:title="Output: 100090 rows in 5 chunks filtered: 0, 1 ms 417 µs.">
<polygon fill="none" stroke="white" points="1058.5,-1007 954.5,-1007 954.5,-953 1058.5,-953 1058.5,-1007"/>
<text text-anchor="middle" x="1006.5" y="-991.8" font-family="Times,serif" font-size="14.00" fill="white">Validate</text>
<text text-anchor="middle" x="1006.5" y="-960.8" font-family="Times,serif" font-size="14.00" fill="white">1 ms 417 µs</text>
</a>
</g>
</g>
<!-- 128124134232336&#45;&gt;128124134295056 -->
<g id="edge14" class="edge">
<title>128124134232336&#45;&gt;128124134295056</title>
<path fill="none" stroke="white" d="M986.58,-1007.19C967.12,-1032.77 937.18,-1072.12 914.4,-1102.06"/>
<polygon fill="white" stroke="white" points="914.24,-1102.28 911.45,-1100.16 908.18,-1110.24 914.24,-1102.28"/>
<text text-anchor="middle" x="1041" y="-1058.8" font-family="Times,serif" font-size="14.00" fill="white">100,090 row(s)/5 chunk(s)</text>
</g>
<!-- 128124134294736 -->
<g id="node15" class="node">
<title>128124134294736</title>
<g id="a_node15"><a xlink:title="Output: 100090 rows in 5 chunks filtered: 0, 3 ms 674 µs.&#10;Operator step runtimes:&#10; LeftSideMaterialize 713 µs 966 ns&#10; RightSideMaterialize 50 µs 200 ns&#10; LeftSideTransform 0 ns&#10; RightSideTransform 0 ns&#10; LeftSidePartition 1 ms 219 µs&#10; RightSidePartition 44 µs 280 ns&#10; LeftSideSortBuckets 661 µs 54 ns&#10; RightSideSortBuckets 543 µs 162 ns&#10; GatherRowIds 986 ns&#10; FindJoinPartner 288 µs 896 ns&#10; OutputWriting 54 µs 27 ns.&#10;Radix bits: 8.">
<polygon fill="none" stroke="white" points="1175,-872 890,-872 890,-803 1175,-803 1175,-872"/>
<text text-anchor="middle" x="1032.5" y="-856.8" font-family="Times,serif" font-size="14.00" fill="white">JoinSimdSortMerge (Semi Reduction)</text>
<text text-anchor="middle" x="1032.5" y="-841.8" font-family="Times,serif" font-size="14.00" fill="white">s_nationkey = n_nationkey</text>
<text text-anchor="middle" x="1032.5" y="-810.8" font-family="Times,serif" font-size="14.00" fill="white">3 ms 674 µs</text>
</a>
</g>
</g>
<!-- 128124134294736&#45;&gt;128124134232336 -->
<g id="edge15" class="edge">
<title>128124134294736&#45;&gt;128124134232336</title>
<path fill="none" stroke="white" d="M1026.27,-872.15C1022.33,-893.46 1017.23,-920.99 1013.2,-942.78"/>
<polygon fill="white" stroke="white" points="1009.76,-942.18 1011.38,-952.65 1016.64,-943.45 1009.76,-942.18"/>
<text text-anchor="middle" x="1116" y="-893.8" font-family="Times,serif" font-size="14.00" fill="white">100,090 row(s)/5 chunk(s)</text>
</g>
<!-- 128049375334800 -->
<g id="node16" class="node">
<title>128049375334800</title>
<g id="a_node16"><a xlink:title="Output: 500000 rows in 8 chunks filtered: 0, 36 µs 497 ns.">
<polygon fill="none" stroke="white" points="1112,-752 999,-752 999,-638 1112,-638 1112,-752"/>
<text text-anchor="middle" x="1055.5" y="-736.8" font-family="Times,serif" font-size="14.00" fill="white">GetTable</text>
<text text-anchor="middle" x="1055.5" y="-721.8" font-family="Times,serif" font-size="14.00" fill="white">(supplier)</text>
<text text-anchor="middle" x="1055.5" y="-706.8" font-family="Times,serif" font-size="14.00" fill="white">pruned:</text>
<text text-anchor="middle" x="1055.5" y="-691.8" font-family="Times,serif" font-size="14.00" fill="white">0/8 chunk(s)</text>
<text text-anchor="middle" x="1055.5" y="-676.8" font-family="Times,serif" font-size="14.00" fill="white">5/7 column(s)</text>
<text text-anchor="middle" x="1055.5" y="-645.8" font-family="Times,serif" font-size="14.00" fill="white">36 µs 497 ns</text>
</a>
</g>
</g>
<!-- 128049375334800&#45;&gt;128124134294736 -->
<g id="edge16" class="edge">
<title>128049375334800&#45;&gt;128124134294736</title>
<path fill="none" stroke="white" d="M1046.28,-752.34C1044.07,-765.83 1041.74,-780.04 1039.64,-792.86"/>
<polygon fill="white" stroke="white" points="1039.63,-792.93 1036.18,-792.37 1038.02,-802.8 1039.63,-792.93"/>
<text text-anchor="middle" x="1136" y="-773.8" font-family="Times,serif" font-size="14.00" fill="white">500,000 row(s)/8 chunk(s)</text>
</g>
<!-- 128124134233360 -->
<g id="node17" class="node">
<title>128124134233360</title>
<g id="a_node17"><a xlink:title="Output: 5 rows in 1 chunk filtered: 0, 6 µs 121 ns.">
<polygon fill="none" stroke="white" points="928,-722 829,-722 829,-668 928,-668 928,-722"/>
<text text-anchor="middle" x="878.5" y="-706.8" font-family="Times,serif" font-size="14.00" fill="white">Validate</text>
<text text-anchor="middle" x="878.5" y="-675.8" font-family="Times,serif" font-size="14.00" fill="white">6 µs 121 ns</text>
</a>
</g>
</g>
<!-- 128124134233360&#45;&gt;128124134295056 -->
<g id="edge18" class="edge">
<title>128124134233360&#45;&gt;128124134295056</title>
<path fill="none" stroke="white" d="M878.32,-722.04C878.08,-759.28 877.65,-829.88 877.5,-890 877.31,-963.71 879.5,-1049.42 881.04,-1100.06"/>
<polygon fill="white" stroke="white" points="881.36,-1110.31 884.55,-1100.21 881.05,-1100.32 881.36,-1110.31"/>
<text text-anchor="middle" x="946.5" y="-893.8" font-family="Times,serif" font-size="14.00" fill="white">5 row(s)/1 chunk(s)</text>
</g>
<!-- 128124134233360&#45;&gt;128124134294736 -->
<g id="edge17" class="edge">
<title>128124134233360&#45;&gt;128124134294736</title>
<path fill="none" stroke="white" d="M878.07,-722.29C879.13,-741.74 883.59,-767.74 898.5,-785 902.17,-789.24 906.22,-793.14 910.57,-796.71"/>
<polygon fill="white" stroke="white" points="918.7,-802.81 912.8,-794.01 910.7,-796.81 918.7,-802.81"/>
<text text-anchor="middle" x="967.5" y="-773.8" font-family="Times,serif" font-size="14.00" fill="white">5 row(s)/1 chunk(s)</text>
</g>
<!-- 128124134294416 -->
<g id="node18" class="node">
<title>128124134294416</title>
<g id="a_node18"><a xlink:title="Output: 5 rows in 1 chunk filtered: 0, 1 ms 566 µs.&#10;Operator step runtimes:&#10; LeftSideMaterialize 36 µs 946 ns&#10; RightSideMaterialize 47 µs 266 ns&#10; LeftSideTransform 0 ns&#10; RightSideTransform 0 ns&#10; LeftSidePartition 34 µs 991 ns&#10; RightSidePartition 17 µs 180 ns&#10; LeftSideSortBuckets 747 µs 473 ns&#10; RightSideSortBuckets 574 µs 255 ns&#10; GatherRowIds 2 µs 10 ns&#10; FindJoinPartner 5 µs 276 ns&#10; OutputWriting 12 µs 573 ns.&#10;Radix bits: 8.">
<polygon fill="none" stroke="white" points="983,-587 774,-587 774,-518 983,-518 983,-587"/>
<text text-anchor="middle" x="878.5" y="-571.8" font-family="Times,serif" font-size="14.00" fill="white">JoinSimdSortMerge (Semi)</text>
<text text-anchor="middle" x="878.5" y="-556.8" font-family="Times,serif" font-size="14.00" fill="white">n_regionkey = r_regionkey</text>
<text text-anchor="middle" x="878.5" y="-525.8" font-family="Times,serif" font-size="14.00" fill="white">1 ms 566 µs</text>
</a>
</g>
</g>
<!-- 128124134294416&#45;&gt;128124134233360 -->
<g id="edge19" class="edge">
<title>128124134294416&#45;&gt;128124134233360</title>
<path fill="none" stroke="white" d="M878.5,-587.15C878.5,-608.36 878.5,-635.75 878.5,-657.48"/>
<polygon fill="white" stroke="white" points="875,-657.65 878.5,-667.65 882,-657.65 875,-657.65"/>
<text text-anchor="middle" x="947.5" y="-608.8" font-family="Times,serif" font-size="14.00" fill="white">5 row(s)/1 chunk(s)</text>
</g>
<!-- 128049375335248 -->
<g id="node19" class="node">
<title>128049375335248</title>
<g id="a_node19"><a xlink:title="Output: 25 rows in 1 chunk filtered: 0, 15 µs 931 ns.">
<polygon fill="none" stroke="white" points="850,-467 737,-467 737,-353 850,-353 850,-467"/>
<text text-anchor="middle" x="793.5" y="-451.8" font-family="Times,serif" font-size="14.00" fill="white">GetTable</text>
<text text-anchor="middle" x="793.5" y="-436.8" font-family="Times,serif" font-size="14.00" fill="white">(nation)</text>
<text text-anchor="middle" x="793.5" y="-421.8" font-family="Times,serif" font-size="14.00" fill="white">pruned:</text>
<text text-anchor="middle" x="793.5" y="-406.8" font-family="Times,serif" font-size="14.00" fill="white">0/1 chunk(s)</text>
<text text-anchor="middle" x="793.5" y="-391.8" font-family="Times,serif" font-size="14.00" fill="white">1/4 column(s)</text>
<text text-anchor="middle" x="793.5" y="-360.8" font-family="Times,serif" font-size="14.00" fill="white">15 µs 931 ns</text>
</a>
</g>
</g>
<!-- 128049375335248&#45;&gt;128124134294416 -->
<g id="edge20" class="edge">
<title>128049375335248&#45;&gt;128124134294416</title>
<path fill="none" stroke="white" d="M785.77,-467.38C786.46,-478.74 788.93,-490.19 794.5,-500 796.64,-503.77 799.17,-507.29 802.01,-510.59"/>
<polygon fill="white" stroke="white" points="802.13,-510.71 799.62,-513.15 809.11,-517.86 802.13,-510.71"/>
<text text-anchor="middle" x="868" y="-488.8" font-family="Times,serif" font-size="14.00" fill="white">25 row(s)/1 chunk(s)</text>
</g>
<!-- 128124134233616 -->
<g id="node20" class="node">
<title>128124134233616</title>
<g id="a_node20"><a xlink:title="Output: 1 row in 1 chunk filtered: 0, 6 µs 202 ns.">
<polygon fill="none" stroke="white" points="1013,-437 914,-437 914,-383 1013,-383 1013,-437"/>
<text text-anchor="middle" x="963.5" y="-421.8" font-family="Times,serif" font-size="14.00" fill="white">Validate</text>
<text text-anchor="middle" x="963.5" y="-390.8" font-family="Times,serif" font-size="14.00" fill="white">6 µs 202 ns</text>
</a>
</g>
</g>
<!-- 128124134233616&#45;&gt;128124134294416 -->
<g id="edge21" class="edge">
<title>128124134233616&#45;&gt;128124134294416</title>
<path fill="none" stroke="white" d="M961.43,-437.26C958.95,-455.96 953.5,-481.03 941.5,-500 939.21,-503.63 936.57,-507.12 933.7,-510.45"/>
<polygon fill="white" stroke="white" points="926.66,-517.95 936.06,-513.06 933.51,-510.66 926.66,-517.95"/>
<text text-anchor="middle" x="1016.5" y="-488.8" font-family="Times,serif" font-size="14.00" fill="white">1 row(s)/1 chunk(s)</text>
</g>
<!-- 128124134293776 -->
<g id="node21" class="node">
<title>128124134293776</title>
<g id="a_node21"><a xlink:title="Output: 1 row in 1 chunk filtered: 0, 19 µs 564 ns.&#10;Chunks: 0 skipped with no results, &#10;0 skipped with all matching, 0 scanned using binary search.">
<polygon fill="none" stroke="white" points="1048,-302 879,-302 879,-218 1048,-218 1048,-302"/>
<text text-anchor="middle" x="963.5" y="-286.8" font-family="Times,serif" font-size="14.00" fill="white">TableScan</text>
<text text-anchor="middle" x="963.5" y="-271.8" font-family="Times,serif" font-size="14.00" fill="white">Impl: ColumnVsValue</text>
<text text-anchor="middle" x="963.5" y="-256.8" font-family="Times,serif" font-size="14.00" fill="white">r_name = &#39;ASIA&#39;</text>
<text text-anchor="middle" x="963.5" y="-225.8" font-family="Times,serif" font-size="14.00" fill="white">19 µs 564 ns</text>
</a>
</g>
</g>
<!-- 128124134293776&#45;&gt;128124134233616 -->
<g id="edge22" class="edge">
<title>128124134293776&#45;&gt;128124134233616</title>
<path fill="none" stroke="white" d="M963.5,-302.23C963.5,-324.32 963.5,-351.31 963.5,-372.62"/>
<polygon fill="white" stroke="white" points="960,-372.88 963.5,-382.88 967,-372.88 960,-372.88"/>
<text text-anchor="middle" x="1032.5" y="-323.8" font-family="Times,serif" font-size="14.00" fill="white">1 row(s)/1 chunk(s)</text>
</g>
<!-- 128049375335696 -->
<g id="node22" class="node">
<title>128049375335696</title>
<g id="a_node22"><a xlink:title="Output: 5 rows in 1 chunk filtered: 0, 48 µs 862 ns.">
<polygon fill="none" stroke="white" points="1020,-140.5 907,-140.5 907,-26.5 1020,-26.5 1020,-140.5"/>
<text text-anchor="middle" x="963.5" y="-125.3" font-family="Times,serif" font-size="14.00" fill="white">GetTable</text>
<text text-anchor="middle" x="963.5" y="-110.3" font-family="Times,serif" font-size="14.00" fill="white">(region)</text>
<text text-anchor="middle" x="963.5" y="-95.3" font-family="Times,serif" font-size="14.00" fill="white">pruned:</text>
<text text-anchor="middle" x="963.5" y="-80.3" font-family="Times,serif" font-size="14.00" fill="white">0/1 chunk(s)</text>
<text text-anchor="middle" x="963.5" y="-65.3" font-family="Times,serif" font-size="14.00" fill="white">1/3 column(s)</text>
<text text-anchor="middle" x="963.5" y="-34.3" font-family="Times,serif" font-size="14.00" fill="white">48 µs 862 ns</text>
</a>
</g>
</g>
<!-- 128049375335696&#45;&gt;128124134293776 -->
<g id="edge23" class="edge">
<title>128049375335696&#45;&gt;128124134293776</title>
<path fill="none" stroke="white" d="M963.5,-140.67C963.5,-162.25 963.5,-186.74 963.5,-207.83"/>
<polygon fill="white" stroke="white" points="960,-207.87 963.5,-217.87 967,-207.87 960,-207.87"/>
<text text-anchor="middle" x="1032.5" y="-188.8" font-family="Times,serif" font-size="14.00" fill="white">5 row(s)/1 chunk(s)</text>
</g>
<!-- 128124134235920 -->
<g id="node23" class="node">
<title>128124134235920</title>
<g id="a_node23"><a xlink:title="Output: 11380211 rows in 1145 chunks filtered: 0, 2 ms 913 µs.">
<polygon fill="none" stroke="white" points="485.5,-1314.5 381.5,-1314.5 381.5,-1260.5 485.5,-1260.5 485.5,-1314.5"/>
<text text-anchor="middle" x="433.5" y="-1299.3" font-family="Times,serif" font-size="14.00" fill="white">Validate</text>
<text text-anchor="middle" x="433.5" y="-1268.3" font-family="Times,serif" font-size="14.00" fill="white">2 ms 913 µs</text>
</a>
</g>
</g>
<!-- 128124134235920&#45;&gt;128124134296976 -->
<g id="edge25" class="edge">
<title>128124134235920&#45;&gt;128124134296976</title>
<path fill="none" stroke="white" d="M433.5,-1314.75C433.5,-1338.66 433.5,-1374.95 433.5,-1406.5 433.5,-1406.5 433.5,-1406.5 433.5,-1656 433.5,-1736.2 525.02,-1770.63 604.7,-1785.4"/>
<polygon fill="white" stroke="white" points="614.85,-1787.19 605.61,-1782.01 605.01,-1785.45 614.85,-1787.19"/>
<text text-anchor="middle" x="554" y="-1516.3" font-family="Times,serif" font-size="14.00" fill="white">11,380,211 row(s)/1,145 chunk(s)</text>
</g>
<!-- 128124134235920&#45;&gt;128124134296336 -->
<g id="edge24" class="edge">
<title>128124134235920&#45;&gt;128124134296336</title>
<path fill="none" stroke="white" d="M451.56,-1314.63C462.65,-1328.7 478.04,-1345.15 495.5,-1355 523.63,-1370.87 556.07,-1381.87 587.95,-1389.49"/>
<polygon fill="white" stroke="white" points="597.83,-1391.74 588.86,-1386.1 588.08,-1389.52 597.83,-1391.74"/>
<text text-anchor="middle" x="616" y="-1343.8" font-family="Times,serif" font-size="14.00" fill="white">11,380,211 row(s)/1,145 chunk(s)</text>
</g>
<!-- 128124134296016 -->
<g id="node24" class="node">
<title>128124134296016</title>
<g id="a_node24"><a xlink:title="Output: 11380211 rows in 1145 chunks filtered: 0, 11 ms 621 µs.&#10;Chunks: 0 skipped with no results, &#10;0 skipped with all matching, 0 scanned using binary search.">
<polygon fill="none" stroke="white" points="425,-1194.5 0,-1194.5 0,-1095.5 425,-1095.5 425,-1194.5"/>
<text text-anchor="middle" x="212.5" y="-1179.3" font-family="Times,serif" font-size="14.00" fill="white">TableScan</text>
<text text-anchor="middle" x="212.5" y="-1164.3" font-family="Times,serif" font-size="14.00" fill="white">Impl: ColumnBetween</text>
<text text-anchor="middle" x="212.5" y="-1149.3" font-family="Times,serif" font-size="14.00" fill="white">o_orderdate BETWEEN UPPER EXCLUSIVE &#39;1994&#45;01&#45;01&#39;</text>
<text text-anchor="middle" x="212.5" y="-1134.3" font-family="Times,serif" font-size="14.00" fill="white">AND &#39;1995&#45;01&#45;01&#39;</text>
<text text-anchor="middle" x="212.5" y="-1103.3" font-family="Times,serif" font-size="14.00" fill="white">11 ms 621 µs</text>
</a>
</g>
</g>
<!-- 128124134296016&#45;&gt;128124134235920 -->
<g id="edge26" class="edge">
<title>128124134296016&#45;&gt;128124134235920</title>
<path fill="none" stroke="white" d="M221.54,-1194.78C226.43,-1209.44 233.96,-1224.43 245.5,-1235 279.66,-1266.29 331.05,-1278.84 371.47,-1283.75"/>
<polygon fill="white" stroke="white" points="371.17,-1287.24 381.49,-1284.84 371.93,-1280.28 371.17,-1287.24"/>
<text text-anchor="middle" x="366" y="-1223.8" font-family="Times,serif" font-size="14.00" fill="white">11,380,211 row(s)/1,145 chunk(s)</text>
</g>
<!-- 128049375336144 -->
<g id="node25" class="node">
<title>128049375336144</title>
<g id="a_node25"><a xlink:title="Output: 75000000 rows in 1145 chunks filtered: 0, 6 ms 130 µs.">
<polygon fill="none" stroke="white" points="278,-1037 147,-1037 147,-923 278,-923 278,-1037"/>
<text text-anchor="middle" x="212.5" y="-1021.8" font-family="Times,serif" font-size="14.00" fill="white">GetTable</text>
<text text-anchor="middle" x="212.5" y="-1006.8" font-family="Times,serif" font-size="14.00" fill="white">(orders)</text>
<text text-anchor="middle" x="212.5" y="-991.8" font-family="Times,serif" font-size="14.00" fill="white">pruned:</text>
<text text-anchor="middle" x="212.5" y="-976.8" font-family="Times,serif" font-size="14.00" fill="white">0/1145 chunk(s)</text>
<text text-anchor="middle" x="212.5" y="-961.8" font-family="Times,serif" font-size="14.00" fill="white">6/9 column(s)</text>
<text text-anchor="middle" x="212.5" y="-930.8" font-family="Times,serif" font-size="14.00" fill="white">6 ms 130 µs</text>
</a>
</g>
</g>
<!-- 128049375336144&#45;&gt;128124134296016 -->
<g id="edge27" class="edge">
<title>128049375336144&#45;&gt;128124134296016</title>
<path fill="none" stroke="white" stroke-width="4.58" d="M212.5,-1037.1C212.5,-1052.66 212.5,-1069.59 212.5,-1085.3"/>
<polygon fill="white" stroke="white" stroke-width="4.58" points="208.49,-1085.42 212.5,-1095.42 216.51,-1085.42 208.49,-1085.42"/>
<text text-anchor="middle" x="333" y="-1058.8" font-family="Times,serif" font-size="14.00" fill="white">75,000,000 row(s)/1,145 chunk(s)</text>
</g>
<!-- 128124134234128 -->
<g id="node26" class="node">
<title>128124134234128</title>
<g id="a_node26"><a xlink:title="Output: 7500000 rows in 115 chunks filtered: 0, 579 µs 911 ns.">
<polygon fill="none" stroke="white" points="1019,-1824.5 902,-1824.5 902,-1770.5 1019,-1770.5 1019,-1824.5"/>
<text text-anchor="middle" x="960.5" y="-1809.3" font-family="Times,serif" font-size="14.00" fill="white">Validate</text>
<text text-anchor="middle" x="960.5" y="-1778.3" font-family="Times,serif" font-size="14.00" fill="white">579 µs 911 ns</text>
</a>
</g>
</g>
<!-- 128124134234128&#45;&gt;128124134297296 -->
<g id="edge28" class="edge">
<title>128124134234128&#45;&gt;128124134297296</title>
<path fill="none" stroke="white" d="M956.16,-1824.78C952.87,-1838.04 947.19,-1853.68 937.5,-1865 933.94,-1869.16 929.95,-1873.04 925.68,-1876.65"/>
<polygon fill="white" stroke="white" points="917.72,-1882.84 927.76,-1879.46 925.61,-1876.7 917.72,-1882.84"/>
<text text-anchor="middle" x="1056" y="-1853.8" font-family="Times,serif" font-size="14.00" fill="white">7,500,000 row(s)/115 chunk(s)</text>
</g>
<!-- 128049375336592 -->
<g id="node27" class="node">
<title>128049375336592</title>
<g id="a_node27"><a xlink:title="Output: 7500000 rows in 115 chunks filtered: 0, 271 µs 15 ns.">
<polygon fill="none" stroke="white" points="1023.5,-1712 901.5,-1712 901.5,-1598 1023.5,-1598 1023.5,-1712"/>
<text text-anchor="middle" x="962.5" y="-1696.8" font-family="Times,serif" font-size="14.00" fill="white">GetTable</text>
<text text-anchor="middle" x="962.5" y="-1681.8" font-family="Times,serif" font-size="14.00" fill="white">(customer)</text>
<text text-anchor="middle" x="962.5" y="-1666.8" font-family="Times,serif" font-size="14.00" fill="white">pruned:</text>
<text text-anchor="middle" x="962.5" y="-1651.8" font-family="Times,serif" font-size="14.00" fill="white">0/115 chunk(s)</text>
<text text-anchor="middle" x="962.5" y="-1636.8" font-family="Times,serif" font-size="14.00" fill="white">6/8 column(s)</text>
<text text-anchor="middle" x="962.5" y="-1605.8" font-family="Times,serif" font-size="14.00" fill="white">271 µs 15 ns</text>
</a>
</g>
</g>
<!-- 128049375336592&#45;&gt;128124134234128 -->
<g id="edge29" class="edge">
<title>128049375336592&#45;&gt;128124134234128</title>
<path fill="none" stroke="white" d="M961.7,-1712.34C961.47,-1728.43 961.23,-1745.54 961.02,-1760.1"/>
<polygon fill="white" stroke="white" points="957.52,-1760.16 960.87,-1770.2 964.52,-1760.26 957.52,-1760.16"/>
<text text-anchor="middle" x="1070" y="-1733.8" font-family="Times,serif" font-size="14.00" fill="white">7,500,000 row(s)/115 chunk(s)</text>
</g>
<!-- 0 -->
<g id="node28" class="node">
<title>0</title>
<polygon fill="none" stroke="white" points="1038,-0.5 1038,-166.5 1375,-166.5 1375,-0.5 1038,-0.5"/>
<text text-anchor="middle" x="1206.5" y="-151.3" font-family="Times,serif" font-size="14.00" fill="white">Total by operator</text>
<polyline fill="none" stroke="white" points="1038,-143.5 1375,-143.5 "/>
<text text-anchor="end" x="1192" y="-128.3" font-family="Times,serif" font-size="14.00" fill="white">JoinSimdSortMerge </text>
<text text-anchor="end" x="1192" y="-113.3" font-family="Times,serif" font-size="14.00" fill="white"> Projection </text>
<text text-anchor="end" x="1192" y="-98.3" font-family="Times,serif" font-size="14.00" fill="white"> TableScan </text>
<text text-anchor="end" x="1192" y="-83.3" font-family="Times,serif" font-size="14.00" fill="white"> Validate </text>
<text text-anchor="end" x="1192" y="-68.3" font-family="Times,serif" font-size="14.00" fill="white"> GetTable </text>
<text text-anchor="end" x="1192" y="-53.3" font-family="Times,serif" font-size="14.00" fill="white"> AggregateHash </text>
<text text-anchor="end" x="1192" y="-38.3" font-family="Times,serif" font-size="14.00" fill="white"> Sort </text>
<text text-anchor="end" x="1192" y="-23.3" font-family="Times,serif" font-size="14.00" fill="white"> Alias </text>
<text text-anchor="end" x="1192" y="-8.3" font-family="Times,serif" font-size="14.00" fill="white">total</text>
<polyline fill="none" stroke="white" points="1200,-0.5 1200,-143.5 "/>
<text text-anchor="start" x="1208" y="-128.3" font-family="Times,serif" font-size="14.00" fill="white">2 s 180 ms </text>
<text text-anchor="start" x="1208" y="-113.3" font-family="Times,serif" font-size="14.00" fill="white"> 61 ms 804 µs </text>
<text text-anchor="start" x="1208" y="-98.3" font-family="Times,serif" font-size="14.00" fill="white"> 28 ms 358 µs </text>
<text text-anchor="start" x="1208" y="-83.3" font-family="Times,serif" font-size="14.00" fill="white"> 25 ms 488 µs </text>
<text text-anchor="start" x="1208" y="-68.3" font-family="Times,serif" font-size="14.00" fill="white"> 19 ms 281 µs </text>
<text text-anchor="start" x="1208" y="-53.3" font-family="Times,serif" font-size="14.00" fill="white"> 16 ms 177 µs </text>
<text text-anchor="start" x="1208" y="-38.3" font-family="Times,serif" font-size="14.00" fill="white"> 9 µs 415 ns </text>
<text text-anchor="start" x="1208" y="-23.3" font-family="Times,serif" font-size="14.00" fill="white"> 2 µs 88 ns </text>
<text text-anchor="start" x="1208" y="-8.3" font-family="Times,serif" font-size="14.00" fill="white"> 2 s 332 ms </text>
<polyline fill="none" stroke="white" points="1322,-0.5 1322,-143.5 "/>
<text text-anchor="start" x="1330" y="-128.3" font-family="Times,serif" font-size="14.00" fill="white">94 %</text>
<text text-anchor="start" x="1330" y="-113.3" font-family="Times,serif" font-size="14.00" fill="white">3 %</text>
<text text-anchor="start" x="1330" y="-98.3" font-family="Times,serif" font-size="14.00" fill="white">1 %</text>
<text text-anchor="start" x="1330" y="-83.3" font-family="Times,serif" font-size="14.00" fill="white">1 %</text>
<text text-anchor="start" x="1330" y="-68.3" font-family="Times,serif" font-size="14.00" fill="white">1 %</text>
<text text-anchor="start" x="1330" y="-53.3" font-family="Times,serif" font-size="14.00" fill="white">1 %</text>
<text text-anchor="start" x="1330" y="-38.3" font-family="Times,serif" font-size="14.00" fill="white">0 %</text>
<text text-anchor="start" x="1330" y="-23.3" font-family="Times,serif" font-size="14.00" fill="white">0 %</text>
<text text-anchor="start" x="1330" y="-8.3" font-family="Times,serif" font-size="14.00" fill="white"> </text>
</g>
</g>
</svg>
