<?xml version="1.0" encoding="UTF-8" standalone="no"?>
<!DOCTYPE svg PUBLIC "-//W3C//DTD SVG 1.1//EN"
 "http://www.w3.org/Graphics/SVG/1.1/DTD/svg11.dtd">
<!-- Generated by graphviz version 2.43.0 (0)
 -->
<!-- Title: G Pages: 1 -->
<svg width="724pt" height="1115pt"
 viewBox="0.00 0.00 724.00 1115.00" xmlns="http://www.w3.org/2000/svg" xmlns:xlink="http://www.w3.org/1999/xlink">
<g id="graph0" class="graph" transform="scale(1 1) rotate(0) translate(4 1111)">
<title>G</title>
<polygon fill="black" stroke="transparent" points="-4,4 -4,-1111 720,-1111 720,4 -4,4"/>
<text text-anchor="middle" x="319.5" y="-1091.8" font-family="Times,serif" font-size="14.00" fill="white">For tooltips with advanced information, hover your mouse over vertices or edge labels.</text>
<!-- 128123639344336 -->
<g id="node1" class="node">
<title>128123639344336</title>
<g id="a_node1"><a xlink:title="Output: 1 row in 1 chunk filtered: 0, 1 µs 897 ns.">
<polygon fill="none" stroke="white" points="416.5,-1052 279.5,-1052 279.5,-983 416.5,-983 416.5,-1052"/>
<text text-anchor="middle" x="348" y="-1036.8" font-family="Times,serif" font-size="14.00" fill="white">Alias</text>
<text text-anchor="middle" x="348" y="-1021.8" font-family="Times,serif" font-size="14.00" fill="white">[promo_revenue]</text>
<text text-anchor="middle" x="348" y="-990.8" font-family="Times,serif" font-size="14.00" fill="white">1 µs 897 ns</text>
</a>
</g>
</g>
<!-- 128123639344016 -->
<g id="node2" class="node">
<title>128123639344016</title>
<g id="a_node2"><a xlink:title="Output: 1 row in 1 chunk filtered: 0, 30 µs 530 ns.&#10;Operator step runtimes:&#10; ForwardUnmodifiedColumns 1 µs 152 ns&#10; EvaluateNewColumns 13 µs 579 ns&#10; BuildOutput 13 µs 598 ns.">
<polygon fill="none" stroke="white" points="402,-932 294,-932 294,-878 402,-878 402,-932"/>
<text text-anchor="middle" x="348" y="-916.8" font-family="Times,serif" font-size="14.00" fill="white">Projection</text>
<text text-anchor="middle" x="348" y="-885.8" font-family="Times,serif" font-size="14.00" fill="white">30 µs 530 ns</text>
</a>
</g>
</g>
<!-- 128123639344016&#45;&gt;128123639344336 -->
<g id="edge1" class="edge">
<title>128123639344016&#45;&gt;128123639344336</title>
<path fill="none" stroke="white" d="M348,-932.19C348,-944.29 348,-959 348,-972.72"/>
<polygon fill="white" stroke="white" points="344.5,-972.95 348,-982.95 351.5,-972.96 344.5,-972.95"/>
<text text-anchor="middle" x="417" y="-953.8" font-family="Times,serif" font-size="14.00" fill="white">1 row(s)/1 chunk(s)</text>
</g>
<!-- 128123639188496 -->
<g id="node3" class="node">
<title>128123639188496</title>
<g id="a_node3"><a xlink:title="Output: 1 row in 1 chunk filtered: 0, 14 ms 192 µs.&#10;Operator step runtimes:&#10; GroupByKeyPartitioning 46 ns&#10; Aggregating 14 ms 168 µs&#10; GroupByColumnsWriting 1 µs 277 ns&#10; AggregateColumnsWriting 11 µs 489 ns&#10; OutputWriting 4 µs 992 ns.">
<polygon fill="none" stroke="white" points="564.5,-827 131.5,-827 131.5,-698 564.5,-698 564.5,-827"/>
<text text-anchor="middle" x="348" y="-811.8" font-family="Times,serif" font-size="14.00" fill="white">AggregateHash</text>
<text text-anchor="middle" x="348" y="-796.8" font-family="Times,serif" font-size="14.00" fill="white">GroupBy {}</text>
<text text-anchor="middle" x="348" y="-781.8" font-family="Times,serif" font-size="14.00" fill="white">SUM(l_extendedprice * (1 &#45; l_discount)), </text>
<text text-anchor="middle" x="348" y="-766.8" font-family="Times,serif" font-size="14.00" fill="white">SUM(CASE WHEN p_type BETWEEN UPPER EXCLUSIVE</text>
<text text-anchor="middle" x="348" y="-751.8" font-family="Times,serif" font-size="14.00" fill="white">&#39;PROMO&#39; AND &#39;PROMP&#39; THEN l_extendedprice * (1 &#45;</text>
<text text-anchor="middle" x="348" y="-736.8" font-family="Times,serif" font-size="14.00" fill="white">l_discount) ELSE 0 END)</text>
<text text-anchor="middle" x="348" y="-705.8" font-family="Times,serif" font-size="14.00" fill="white">14 ms 192 µs</text>
</a>
</g>
</g>
<!-- 128123639188496&#45;&gt;128123639344016 -->
<g id="edge2" class="edge">
<title>128123639188496&#45;&gt;128123639344016</title>
<path fill="none" stroke="white" d="M348,-827.17C348,-840.99 348,-855.14 348,-867.48"/>
<polygon fill="white" stroke="white" points="344.5,-867.8 348,-877.8 351.5,-867.8 344.5,-867.8"/>
<text text-anchor="middle" x="417" y="-848.8" font-family="Times,serif" font-size="14.00" fill="white">1 row(s)/1 chunk(s)</text>
</g>
<!-- 128123639343696 -->
<g id="node4" class="node">
<title>128123639343696</title>
<g id="a_node4"><a xlink:title="Output: 3862907 rows in 256 chunks filtered: 0, 240 ms 497 µs.&#10;Operator step runtimes:&#10; ForwardUnmodifiedColumns 158 µs 371 ns&#10; EvaluateNewColumns 240 ms 29 µs&#10; BuildOutput 213 µs 544 ns.">
<polygon fill="none" stroke="white" stroke-width="7.31" points="409,-647 287,-647 287,-593 409,-593 409,-647"/>
<text text-anchor="middle" x="348" y="-631.8" font-family="Times,serif" font-size="14.00" fill="white">Projection</text>
<text text-anchor="middle" x="348" y="-600.8" font-family="Times,serif" font-size="14.00" fill="white">240 ms 497 µs</text>
</a>
</g>
</g>
<!-- 128123639343696&#45;&gt;128123639188496 -->
<g id="edge3" class="edge">
<title>128123639343696&#45;&gt;128123639188496</title>
<path fill="none" stroke="white" d="M348,-647.1C348,-658.77 348,-673.17 348,-687.78"/>
<polygon fill="white" stroke="white" points="344.5,-687.89 348,-697.89 351.5,-687.89 344.5,-687.89"/>
<text text-anchor="middle" x="457.5" y="-668.8" font-family="Times,serif" font-size="14.00" fill="white">3,862,907 row(s)/256 chunk(s)</text>
</g>
<!-- 128123639343376 -->
<g id="node5" class="node">
<title>128123639343376</title>
<g id="a_node5"><a xlink:title="Output: 3862907 rows in 256 chunks filtered: 0, 317 ms 664 µs.&#10;Operator step runtimes:&#10; LeftSideMaterialize 213 ms 845 µs&#10; RightSideMaterialize 12 ms 547 µs&#10; LeftSideTransform 0 ns&#10; RightSideTransform 0 ns&#10; LeftSidePartition 7 ms 132 µs&#10; RightSidePartition 16 ms 91 µs&#10; LeftSideSortBuckets 11 ms 239 µs&#10; RightSideSortBuckets 17 ms 452 µs&#10; GatherRowIds 3 µs 395 ns&#10; FindJoinPartner 25 ms 815 µs&#10; OutputWriting 11 ms 240 µs.&#10;Radix bits: 8.">
<polygon fill="none" stroke="white" stroke-width="8" points="453.5,-542 242.5,-542 242.5,-473 453.5,-473 453.5,-542"/>
<text text-anchor="middle" x="348" y="-526.8" font-family="Times,serif" font-size="14.00" fill="white">JoinSimdSortMerge (Inner)</text>
<text text-anchor="middle" x="348" y="-511.8" font-family="Times,serif" font-size="14.00" fill="white">l_partkey = p_partkey</text>
<text text-anchor="middle" x="348" y="-480.8" font-family="Times,serif" font-size="14.00" fill="white">317 ms 664 µs</text>
</a>
</g>
</g>
<!-- 128123639343376&#45;&gt;128123639343696 -->
<g id="edge4" class="edge">
<title>128123639343376&#45;&gt;128123639343696</title>
<path fill="none" stroke="white" d="M348,-542.25C348,-555.07 348,-569.73 348,-582.77"/>
<polygon fill="white" stroke="white" points="344.5,-582.81 348,-592.81 351.5,-582.81 344.5,-582.81"/>
<text text-anchor="middle" x="457.5" y="-563.8" font-family="Times,serif" font-size="14.00" fill="white">3,862,907 row(s)/256 chunk(s)</text>
</g>
<!-- 128123639198992 -->
<g id="node6" class="node">
<title>128123639198992</title>
<g id="a_node6"><a xlink:title="Output: 3862907 rows in 4578 chunks filtered: 0, 9 ms 753 µs.">
<polygon fill="none" stroke="white" points="273,-422 169,-422 169,-368 273,-368 273,-422"/>
<text text-anchor="middle" x="221" y="-406.8" font-family="Times,serif" font-size="14.00" fill="white">Validate</text>
<text text-anchor="middle" x="221" y="-375.8" font-family="Times,serif" font-size="14.00" fill="white">9 ms 753 µs</text>
</a>
</g>
</g>
<!-- 128123639198992&#45;&gt;128123639343376 -->
<g id="edge5" class="edge">
<title>128123639198992&#45;&gt;128123639343376</title>
<path fill="none" stroke="white" d="M219.11,-422.24C219.6,-433.33 222.01,-445.77 229,-455 232.15,-459.15 235.7,-462.98 239.56,-466.5"/>
<polygon fill="white" stroke="white" points="239.61,-466.54 237.38,-469.24 247.33,-472.9 239.61,-466.54"/>
<text text-anchor="middle" x="345" y="-443.8" font-family="Times,serif" font-size="14.00" fill="white">3,862,907 row(s)/4,578 chunk(s)</text>
</g>
<!-- 128123639342416 -->
<g id="node7" class="node">
<title>128123639342416</title>
<g id="a_node7"><a xlink:title="Output: 3862907 rows in 4578 chunks filtered: 0, 23 ms 118 µs.&#10;Chunks: 0 skipped with no results, &#10;0 skipped with all matching, 0 scanned using binary search.">
<polygon fill="none" stroke="white" stroke-width="1.54" points="412,-309.5 0,-309.5 0,-210.5 412,-210.5 412,-309.5"/>
<text text-anchor="middle" x="206" y="-294.3" font-family="Times,serif" font-size="14.00" fill="white">TableScan</text>
<text text-anchor="middle" x="206" y="-279.3" font-family="Times,serif" font-size="14.00" fill="white">Impl: ColumnBetween</text>
<text text-anchor="middle" x="206" y="-264.3" font-family="Times,serif" font-size="14.00" fill="white">l_shipdate BETWEEN UPPER EXCLUSIVE &#39;1997&#45;12&#45;01&#39;</text>
<text text-anchor="middle" x="206" y="-249.3" font-family="Times,serif" font-size="14.00" fill="white">AND &#39;1998&#45;01&#45;01&#39;</text>
<text text-anchor="middle" x="206" y="-218.3" font-family="Times,serif" font-size="14.00" fill="white">23 ms 118 µs</text>
</a>
</g>
</g>
<!-- 128123639342416&#45;&gt;128123639198992 -->
<g id="edge6" class="edge">
<title>128123639342416&#45;&gt;128123639198992</title>
<path fill="none" stroke="white" d="M211.5,-309.77C213.28,-325.52 215.21,-342.7 216.87,-357.41"/>
<polygon fill="white" stroke="white" points="213.43,-358.09 218.03,-367.63 220.38,-357.3 213.43,-358.09"/>
<text text-anchor="middle" x="332" y="-338.8" font-family="Times,serif" font-size="14.00" fill="white">3,862,907 row(s)/4,578 chunk(s)</text>
</g>
<!-- 128123639223632 -->
<g id="node8" class="node">
<title>128123639223632</title>
<g id="a_node8"><a xlink:title="Output: 300005811 rows in 4578 chunks filtered: 0, 12 ms 427 µs.">
<polygon fill="none" stroke="white" points="271.5,-133 140.5,-133 140.5,-19 271.5,-19 271.5,-133"/>
<text text-anchor="middle" x="206" y="-117.8" font-family="Times,serif" font-size="14.00" fill="white">GetTable</text>
<text text-anchor="middle" x="206" y="-102.8" font-family="Times,serif" font-size="14.00" fill="white">(lineitem)</text>
<text text-anchor="middle" x="206" y="-87.8" font-family="Times,serif" font-size="14.00" fill="white">pruned:</text>
<text text-anchor="middle" x="206" y="-72.8" font-family="Times,serif" font-size="14.00" fill="white">0/4578 chunk(s)</text>
<text text-anchor="middle" x="206" y="-57.8" font-family="Times,serif" font-size="14.00" fill="white">12/16 column(s)</text>
<text text-anchor="middle" x="206" y="-26.8" font-family="Times,serif" font-size="14.00" fill="white">12 ms 427 µs</text>
</a>
</g>
</g>
<!-- 128123639223632&#45;&gt;128123639342416 -->
<g id="edge7" class="edge">
<title>128123639223632&#45;&gt;128123639342416</title>
<path fill="none" stroke="white" stroke-width="8" d="M206,-133.09C206,-154.46 206,-178.86 206,-200.45"/>
<polygon fill="white" stroke="white" stroke-width="8" points="199,-200.47 206,-210.47 213,-200.47 199,-200.47"/>
<text text-anchor="middle" x="331" y="-173.8" font-family="Times,serif" font-size="14.00" fill="white">300,005,811 row(s)/4,578 chunk(s)</text>
</g>
<!-- 128123639198736 -->
<g id="node9" class="node">
<title>128123639198736</title>
<g id="a_node9"><a xlink:title="Output: 10000000 rows in 153 chunks filtered: 0, 851 µs 198 ns.">
<polygon fill="none" stroke="white" points="545.5,-422 428.5,-422 428.5,-368 545.5,-368 545.5,-422"/>
<text text-anchor="middle" x="487" y="-406.8" font-family="Times,serif" font-size="14.00" fill="white">Validate</text>
<text text-anchor="middle" x="487" y="-375.8" font-family="Times,serif" font-size="14.00" fill="white">851 µs 198 ns</text>
</a>
</g>
</g>
<!-- 128123639198736&#45;&gt;128123639343376 -->
<g id="edge8" class="edge">
<title>128123639198736&#45;&gt;128123639343376</title>
<path fill="none" stroke="white" d="M480.04,-422.24C476,-433.45 469.89,-446 461,-455 456.63,-459.43 451.8,-463.51 446.68,-467.28"/>
<polygon fill="white" stroke="white" points="438.42,-472.93 448.65,-470.17 446.67,-467.28 438.42,-472.93"/>
<text text-anchor="middle" x="585" y="-443.8" font-family="Times,serif" font-size="14.00" fill="white">10,000,000 row(s)/153 chunk(s)</text>
</g>
<!-- 128123639224080 -->
<g id="node10" class="node">
<title>128123639224080</title>
<g id="a_node10"><a xlink:title="Output: 10000000 rows in 153 chunks filtered: 0, 194 µs 589 ns.">
<polygon fill="none" stroke="white" points="552,-317 430,-317 430,-203 552,-203 552,-317"/>
<text text-anchor="middle" x="491" y="-301.8" font-family="Times,serif" font-size="14.00" fill="white">GetTable</text>
<text text-anchor="middle" x="491" y="-286.8" font-family="Times,serif" font-size="14.00" fill="white">(part)</text>
<text text-anchor="middle" x="491" y="-271.8" font-family="Times,serif" font-size="14.00" fill="white">pruned:</text>
<text text-anchor="middle" x="491" y="-256.8" font-family="Times,serif" font-size="14.00" fill="white">0/153 chunk(s)</text>
<text text-anchor="middle" x="491" y="-241.8" font-family="Times,serif" font-size="14.00" fill="white">7/9 column(s)</text>
<text text-anchor="middle" x="491" y="-210.8" font-family="Times,serif" font-size="14.00" fill="white">194 µs 589 ns</text>
</a>
</g>
</g>
<!-- 128123639224080&#45;&gt;128123639198736 -->
<g id="edge9" class="edge">
<title>128123639224080&#45;&gt;128123639198736</title>
<path fill="none" stroke="white" d="M489.32,-317.02C488.9,-330.77 488.47,-345.14 488.09,-357.69"/>
<polygon fill="white" stroke="white" points="484.59,-357.65 487.79,-367.75 491.59,-357.86 484.59,-357.65"/>
<text text-anchor="middle" x="602" y="-338.8" font-family="Times,serif" font-size="14.00" fill="white">10,000,000 row(s)/153 chunk(s)</text>
</g>
<!-- 0 -->
<g id="node11" class="node">
<title>0</title>
<polygon fill="none" stroke="white" points="290,-0.5 290,-151.5 636,-151.5 636,-0.5 290,-0.5"/>
<text text-anchor="middle" x="463" y="-136.3" font-family="Times,serif" font-size="14.00" fill="white">Total by operator</text>
<polyline fill="none" stroke="white" points="290,-128.5 636,-128.5 "/>
<text text-anchor="end" x="444" y="-113.3" font-family="Times,serif" font-size="14.00" fill="white">JoinSimdSortMerge </text>
<text text-anchor="end" x="444" y="-98.3" font-family="Times,serif" font-size="14.00" fill="white"> Projection </text>
<text text-anchor="end" x="444" y="-83.3" font-family="Times,serif" font-size="14.00" fill="white"> TableScan </text>
<text text-anchor="end" x="444" y="-68.3" font-family="Times,serif" font-size="14.00" fill="white"> AggregateHash </text>
<text text-anchor="end" x="444" y="-53.3" font-family="Times,serif" font-size="14.00" fill="white"> GetTable </text>
<text text-anchor="end" x="444" y="-38.3" font-family="Times,serif" font-size="14.00" fill="white"> Validate </text>
<text text-anchor="end" x="444" y="-23.3" font-family="Times,serif" font-size="14.00" fill="white"> Alias </text>
<text text-anchor="end" x="444" y="-8.3" font-family="Times,serif" font-size="14.00" fill="white">total</text>
<polyline fill="none" stroke="white" points="452,-0.5 452,-128.5 "/>
<text text-anchor="start" x="460" y="-113.3" font-family="Times,serif" font-size="14.00" fill="white">317 ms 664 µs </text>
<text text-anchor="start" x="460" y="-98.3" font-family="Times,serif" font-size="14.00" fill="white"> 240 ms 527 µs </text>
<text text-anchor="start" x="460" y="-83.3" font-family="Times,serif" font-size="14.00" fill="white"> 23 ms 118 µs </text>
<text text-anchor="start" x="460" y="-68.3" font-family="Times,serif" font-size="14.00" fill="white"> 14 ms 192 µs </text>
<text text-anchor="start" x="460" y="-53.3" font-family="Times,serif" font-size="14.00" fill="white"> 12 ms 621 µs </text>
<text text-anchor="start" x="460" y="-38.3" font-family="Times,serif" font-size="14.00" fill="white"> 10 ms 604 µs </text>
<text text-anchor="start" x="460" y="-23.3" font-family="Times,serif" font-size="14.00" fill="white"> 1 µs 897 ns </text>
<text text-anchor="start" x="460" y="-8.3" font-family="Times,serif" font-size="14.00" fill="white"> 618 ms 729 µs </text>
<polyline fill="none" stroke="white" points="583,-0.5 583,-128.5 "/>
<text text-anchor="start" x="591" y="-113.3" font-family="Times,serif" font-size="14.00" fill="white">51 %</text>
<text text-anchor="start" x="591" y="-98.3" font-family="Times,serif" font-size="14.00" fill="white">39 %</text>
<text text-anchor="start" x="591" y="-83.3" font-family="Times,serif" font-size="14.00" fill="white">4 %</text>
<text text-anchor="start" x="591" y="-68.3" font-family="Times,serif" font-size="14.00" fill="white">2 %</text>
<text text-anchor="start" x="591" y="-53.3" font-family="Times,serif" font-size="14.00" fill="white">2 %</text>
<text text-anchor="start" x="591" y="-38.3" font-family="Times,serif" font-size="14.00" fill="white">2 %</text>
<text text-anchor="start" x="591" y="-23.3" font-family="Times,serif" font-size="14.00" fill="white">0 %</text>
<text text-anchor="start" x="591" y="-8.3" font-family="Times,serif" font-size="14.00" fill="white"> </text>
</g>
</g>
</svg>
