<?xml version="1.0" encoding="UTF-8" standalone="no"?>
<!DOCTYPE svg PUBLIC "-//W3C//DTD SVG 1.1//EN"
 "http://www.w3.org/Graphics/SVG/1.1/DTD/svg11.dtd">
<!-- Generated by graphviz version 2.43.0 (0)
 -->
<!-- Title: G Pages: 1 -->
<svg width="912pt" height="1161pt"
 viewBox="0.00 0.00 912.00 1161.00" xmlns="http://www.w3.org/2000/svg" xmlns:xlink="http://www.w3.org/1999/xlink">
<g id="graph0" class="graph" transform="scale(1 1) rotate(0) translate(4 1157)">
<title>G</title>
<polygon fill="black" stroke="transparent" points="-4,4 -4,-1157 908,-1157 908,4 -4,4"/>
<text text-anchor="middle" x="319.5" y="-1137.8" font-family="Times,serif" font-size="14.00" fill="white">For tooltips with advanced information, hover your mouse over vertices or edge labels.</text>
<!-- 127958058185808 -->
<g id="node1" class="node">
<title>127958058185808</title>
<polygon fill="none" stroke="white" points="682.5,-1098 279.5,-1098 279.5,-1060 682.5,-1060 682.5,-1098"/>
<text text-anchor="middle" x="481" y="-1082.8" font-family="Times,serif" font-size="14.00" fill="white">[Alias] SUBSTR(c_phone,1,2) AS cntrycode, COUNT(*)</text>
<text text-anchor="middle" x="481" y="-1067.8" font-family="Times,serif" font-size="14.00" fill="white">AS numcust, SUM(c_acctbal) AS totacctbal</text>
</g>
<!-- 127958058185616 -->
<g id="node2" class="node">
<title>127958058185616</title>
<polygon fill="none" stroke="white" points="635,-1009 327,-1009 327,-973 635,-973 635,-1009"/>
<text text-anchor="middle" x="481" y="-987.3" font-family="Times,serif" font-size="14.00" fill="white">[Sort] SUBSTR(c_phone,1,2) (Ascending)</text>
</g>
<!-- 127958058185616&#45;&gt;127958058185808 -->
<g id="edge1" class="edge">
<title>127958058185616&#45;&gt;127958058185808</title>
<path fill="none" stroke="white" stroke-width="2.32" d="M481,-1009.4C481,-1020.94 481,-1036.35 481,-1049.64"/>
<polygon fill="white" stroke="white" stroke-width="2.32" points="477.5,-1049.73 481,-1059.73 484.5,-1049.73 477.5,-1049.73"/>
<g id="a_edge1&#45;label"><a xlink:title="Output Expressions: &#10; (1) SUBSTR(c_phone,1,2)&#10; (2) COUNT(*)&#10; (3) SUM(c_acctbal) NULL&#10;&#10;Unique Column Combinations: &#10; (1) {SUBSTR(c_phone,1,2)}&#10;&#10;Functional Dependencies (trivial): &#10; (1) {SUBSTR(c_phone,1,2)} =&gt; {SUM(c_acctbal), COUNT(*)}&#10;&#10;Functional Dependencies (non&#45;trivial): &#10; &lt;none&gt;">
<text text-anchor="middle" x="604.5" y="-1030.8" font-family="Times,serif" font-size="14.00" fill="white"> 7,500,000.0 row(s) | 100.0% estd.</text>
</a>
</g>
</g>
<!-- 127958058185424 -->
<g id="node3" class="node">
<title>127958058185424</title>
<polygon fill="none" stroke="white" points="653.5,-922 308.5,-922 308.5,-884 653.5,-884 653.5,-922"/>
<text text-anchor="middle" x="481" y="-906.8" font-family="Times,serif" font-size="14.00" fill="white">[Aggregate] GroupBy: [SUBSTR(c_phone,1,2)]</text>
<text text-anchor="middle" x="481" y="-891.8" font-family="Times,serif" font-size="14.00" fill="white">Aggregates: [COUNT(*), SUM(c_acctbal)]</text>
</g>
<!-- 127958058185424&#45;&gt;127958058185616 -->
<g id="edge2" class="edge">
<title>127958058185424&#45;&gt;127958058185616</title>
<path fill="none" stroke="white" stroke-width="2.32" d="M481,-922.24C481,-934.07 481,-949.68 481,-962.95"/>
<polygon fill="white" stroke="white" stroke-width="2.32" points="477.5,-962.96 481,-972.96 484.5,-962.96 477.5,-962.96"/>
<g id="a_edge2&#45;label"><a xlink:title="Output Expressions: &#10; (1) SUBSTR(c_phone,1,2)&#10; (2) COUNT(*)&#10; (3) SUM(c_acctbal) NULL&#10;&#10;Unique Column Combinations: &#10; (1) {SUBSTR(c_phone,1,2)}&#10;&#10;Functional Dependencies (trivial): &#10; (1) {SUBSTR(c_phone,1,2)} =&gt; {SUM(c_acctbal), COUNT(*)}&#10;&#10;Functional Dependencies (non&#45;trivial): &#10; &lt;none&gt;">
<text text-anchor="middle" x="604.5" y="-943.8" font-family="Times,serif" font-size="14.00" fill="white"> 7,500,000.0 row(s) | 100.0% estd.</text>
</a>
</g>
</g>
<!-- 127958058185232 -->
<g id="node4" class="node">
<title>127958058185232</title>
<polygon fill="none" stroke="white" points="644,-833 318,-833 318,-795 644,-795 644,-833"/>
<text text-anchor="middle" x="481" y="-817.8" font-family="Times,serif" font-size="14.00" fill="white">[Alias] SUBSTR(c_phone,1,2) AS cntrycode,</text>
<text text-anchor="middle" x="481" y="-802.8" font-family="Times,serif" font-size="14.00" fill="white">c_acctbal</text>
</g>
<!-- 127958058185232&#45;&gt;127958058185424 -->
<g id="edge3" class="edge">
<title>127958058185232&#45;&gt;127958058185424</title>
<path fill="none" stroke="white" stroke-width="2.32" d="M481,-833.03C481,-844.81 481,-860.44 481,-873.84"/>
<polygon fill="white" stroke="white" stroke-width="2.32" points="477.5,-874 481,-884 484.5,-874 477.5,-874"/>
<g id="a_edge3&#45;label"><a xlink:title="Output Expressions: &#10; (1) SUBSTR(c_phone,1,2)&#10; (2) c_acctbal&#10;&#10;Unique Column Combinations: &#10; &lt;none&gt;&#10;&#10;Functional Dependencies (trivial): &#10; &lt;none&gt;&#10;&#10;Functional Dependencies (non&#45;trivial): &#10; &lt;none&gt;">
<text text-anchor="middle" x="604.5" y="-854.8" font-family="Times,serif" font-size="14.00" fill="white"> 7,500,000.0 row(s) | 100.0% estd.</text>
</a>
</g>
</g>
<!-- 128124033587664 -->
<g id="node5" class="node">
<title>128124033587664</title>
<polygon fill="none" stroke="white" points="648.5,-744 313.5,-744 313.5,-708 648.5,-708 648.5,-744"/>
<text text-anchor="middle" x="481" y="-722.3" font-family="Times,serif" font-size="14.00" fill="white">[Projection] SUBSTR(c_phone,1,2), c_acctbal</text>
</g>
<!-- 128124033587664&#45;&gt;127958058185232 -->
<g id="edge4" class="edge">
<title>128124033587664&#45;&gt;127958058185232</title>
<path fill="none" stroke="white" stroke-width="2.32" d="M481,-744.4C481,-755.94 481,-771.35 481,-784.64"/>
<polygon fill="white" stroke="white" stroke-width="2.32" points="477.5,-784.73 481,-794.73 484.5,-784.73 477.5,-784.73"/>
<g id="a_edge4&#45;label"><a xlink:title="Output Expressions: &#10; (1) SUBSTR(c_phone,1,2)&#10; (2) c_acctbal&#10;&#10;Unique Column Combinations: &#10; &lt;none&gt;&#10;&#10;Functional Dependencies (trivial): &#10; &lt;none&gt;&#10;&#10;Functional Dependencies (non&#45;trivial): &#10; &lt;none&gt;">
<text text-anchor="middle" x="604.5" y="-765.8" font-family="Times,serif" font-size="14.00" fill="white"> 7,500,000.0 row(s) | 100.0% estd.</text>
</a>
</g>
</g>
<!-- 127958058186576 -->
<g id="node6" class="node">
<title>127958058186576</title>
<polygon fill="none" stroke="white" points="639.5,-657 322.5,-657 322.5,-619 639.5,-619 639.5,-657"/>
<text text-anchor="middle" x="481" y="-641.8" font-family="Times,serif" font-size="14.00" fill="white">[Join] Mode: AntiNullAsFalse [c_custkey =</text>
<text text-anchor="middle" x="481" y="-626.8" font-family="Times,serif" font-size="14.00" fill="white">o_custkey]</text>
</g>
<!-- 127958058186576&#45;&gt;128124033587664 -->
<g id="edge5" class="edge">
<title>127958058186576&#45;&gt;128124033587664</title>
<path fill="none" stroke="white" stroke-width="2.32" d="M481,-657.24C481,-669.07 481,-684.68 481,-697.95"/>
<polygon fill="white" stroke="white" stroke-width="2.32" points="477.5,-697.96 481,-707.96 484.5,-697.96 477.5,-697.96"/>
<g id="a_edge5&#45;label"><a xlink:title="Output Expressions: &#10; (1) c_custkey&#10; (2) c_phone&#10; (3) c_acctbal&#10;&#10;Unique Column Combinations: &#10; (1) {c_custkey}&#10;&#10;Functional Dependencies (trivial): &#10; (1) {c_custkey} =&gt; {c_phone, c_acctbal}&#10;&#10;Functional Dependencies (non&#45;trivial): &#10; &lt;none&gt;">
<text text-anchor="middle" x="604.5" y="-678.8" font-family="Times,serif" font-size="14.00" fill="white"> 7,500,000.0 row(s) | 100.0% estd.</text>
</a>
</g>
</g>
<!-- 127958058185040 -->
<g id="node7" class="node">
<title>127958058185040</title>
<polygon fill="none" stroke="white" points="527.5,-568 164.5,-568 164.5,-530 527.5,-530 527.5,-568"/>
<text text-anchor="middle" x="346" y="-552.8" font-family="Times,serif" font-size="14.00" fill="white">[Predicate] (SUBSTR(c_phone,1,2)) IN (&#39;17&#39;, &#39;13&#39;,</text>
<text text-anchor="middle" x="346" y="-537.8" font-family="Times,serif" font-size="14.00" fill="white">&#39;23&#39;, &#39;11&#39;, &#39;21&#39;, &#39;26&#39;, &#39;31&#39;)</text>
</g>
<!-- 127958058185040&#45;&gt;127958058186576 -->
<g id="edge6" class="edge">
<title>127958058185040&#45;&gt;127958058186576</title>
<path fill="none" stroke="white" stroke-width="2.32" d="M348.68,-568.27C351.17,-579.14 355.94,-592.43 365,-601 370.37,-606.08 376.45,-610.44 382.93,-614.19"/>
<polygon fill="white" stroke="white" stroke-width="2.32" points="383.14,-614.3 381.52,-617.4 392.01,-618.93 383.14,-614.3"/>
<g id="a_edge6&#45;label"><a xlink:title="Output Expressions: &#10; (1) c_custkey&#10; (2) c_phone&#10; (3) c_acctbal&#10;&#10;Unique Column Combinations: &#10; (1) {c_custkey}&#10;&#10;Functional Dependencies (trivial): &#10; (1) {c_custkey} =&gt; {c_phone, c_acctbal}&#10;&#10;Functional Dependencies (non&#45;trivial): &#10; &lt;none&gt;">
<text text-anchor="middle" x="488.5" y="-589.8" font-family="Times,serif" font-size="14.00" fill="white"> 7,500,000.0 row(s) | 100.0% estd.</text>
</a>
</g>
</g>
<!-- 127962513468496 -->
<g id="node8" class="node">
<title>127962513468496</title>
<polygon fill="none" stroke="white" points="465,-479 153,-479 153,-441 465,-441 465,-479"/>
<text text-anchor="middle" x="309" y="-463.8" font-family="Times,serif" font-size="14.00" fill="white">[Predicate] c_acctbal &gt; SUBQUERY (LQP,</text>
<text text-anchor="middle" x="309" y="-448.8" font-family="Times,serif" font-size="14.00" fill="white">0x74619828e650)</text>
</g>
<!-- 127962513468496&#45;&gt;127958058185040 -->
<g id="edge7" class="edge">
<title>127962513468496&#45;&gt;127958058185040</title>
<path fill="none" stroke="white" stroke-width="2.32" d="M316.67,-479.03C321.78,-491.04 328.59,-507.06 334.36,-520.64"/>
<polygon fill="white" stroke="white" stroke-width="2.32" points="331.21,-522.16 338.34,-530 337.65,-519.42 331.21,-522.16"/>
<g id="a_edge7&#45;label"><a xlink:title="Output Expressions: &#10; (1) c_custkey&#10; (2) c_phone&#10; (3) c_acctbal&#10;&#10;Unique Column Combinations: &#10; (1) {c_custkey}&#10;&#10;Functional Dependencies (trivial): &#10; (1) {c_custkey} =&gt; {c_phone, c_acctbal}&#10;&#10;Functional Dependencies (non&#45;trivial): &#10; &lt;none&gt;">
<text text-anchor="middle" x="453.5" y="-500.8" font-family="Times,serif" font-size="14.00" fill="white"> 7,500,000.0 row(s) | 100.0% estd.</text>
</a>
</g>
</g>
<!-- 128124033577584 -->
<g id="node9" class="node">
<title>128124033577584</title>
<polygon fill="none" stroke="white" points="216.5,-389 131.5,-389 131.5,-353 216.5,-353 216.5,-389"/>
<text text-anchor="middle" x="174" y="-367.3" font-family="Times,serif" font-size="14.00" fill="white">[Validate]</text>
</g>
<!-- 128124033577584&#45;&gt;127962513468496 -->
<g id="edge8" class="edge">
<title>128124033577584&#45;&gt;127962513468496</title>
<path fill="none" stroke="white" stroke-width="2.32" d="M179.38,-389.31C183.63,-400.35 190.6,-414.19 201,-423 207.1,-428.16 213.96,-432.6 221.2,-436.4"/>
<polygon fill="white" stroke="white" stroke-width="2.32" points="220.01,-439.71 230.54,-440.88 223.04,-433.4 220.01,-439.71"/>
<g id="a_edge8&#45;label"><a xlink:title="Output Expressions: &#10; (1) c_custkey&#10; (2) c_phone&#10; (3) c_acctbal&#10;&#10;Unique Column Combinations: &#10; (1) {c_custkey}&#10;&#10;Functional Dependencies (trivial): &#10; (1) {c_custkey} =&gt; {c_phone, c_acctbal}&#10;&#10;Functional Dependencies (non&#45;trivial): &#10; &lt;none&gt;">
<text text-anchor="middle" x="324.5" y="-411.8" font-family="Times,serif" font-size="14.00" fill="white"> 7,500,000.0 row(s) | 100.0% estd.</text>
</a>
</g>
</g>
<!-- 127962370844624 -->
<g id="node10" class="node">
<title>127962370844624</title>
<polygon fill="none" stroke="white" points="348,-301 0,-301 0,-263 348,-263 348,-301"/>
<text text-anchor="middle" x="174" y="-285.8" font-family="Times,serif" font-size="14.00" fill="white">[StoredTable] Name: &#39;customer&#39; pruned: 0/115</text>
<text text-anchor="middle" x="174" y="-270.8" font-family="Times,serif" font-size="14.00" fill="white">chunk(s), 5/8 column(s)</text>
</g>
<!-- 127962370844624&#45;&gt;128124033577584 -->
<g id="edge9" class="edge">
<title>127962370844624&#45;&gt;128124033577584</title>
<path fill="none" stroke="white" stroke-width="2.32" d="M174,-301.03C174,-313.04 174,-329.07 174,-342.64"/>
<polygon fill="white" stroke="white" stroke-width="2.32" points="170.5,-342.88 174,-352.88 177.5,-342.88 170.5,-342.88"/>
<g id="a_edge9&#45;label"><a xlink:title="Output Expressions: &#10; (1) c_custkey&#10; (2) c_phone&#10; (3) c_acctbal&#10;&#10;Unique Column Combinations: &#10; (1) {c_custkey}&#10;&#10;Functional Dependencies (trivial): &#10; (1) {c_custkey} =&gt; {c_phone, c_acctbal}&#10;&#10;Functional Dependencies (non&#45;trivial): &#10; &lt;none&gt;">
<text text-anchor="middle" x="297.5" y="-322.8" font-family="Times,serif" font-size="14.00" fill="white"> 7,500,000.0 row(s) | 100.0% estd.</text>
</a>
</g>
</g>
<!-- 127962513466960 -->
<g id="node11" class="node">
<title>127962513466960</title>
<polygon fill="none" stroke="white" points="622.5,-390 343.5,-390 343.5,-352 622.5,-352 622.5,-390"/>
<text text-anchor="middle" x="483" y="-374.8" font-family="Times,serif" font-size="14.00" fill="white">[Aggregate] GroupBy: [] Aggregates:</text>
<text text-anchor="middle" x="483" y="-359.8" font-family="Times,serif" font-size="14.00" fill="white">[AVG(c_acctbal)]</text>
</g>
<!-- 127962513466960&#45;&gt;127962513468496 -->
<g id="edge10" class="edge">
<title>127962513466960&#45;&gt;127962513468496</title>
<path fill="none" stroke="white" stroke-dasharray="5,2" d="M474.76,-390.08C468.82,-401.15 459.78,-414.74 448,-423 440.2,-428.47 431.63,-433.11 422.69,-437.04"/>
<polygon fill="white" stroke="white" points="421.2,-433.87 413.26,-440.89 423.84,-440.35 421.2,-433.87"/>
<text text-anchor="middle" x="544.5" y="-411.8" font-family="Times,serif" font-size="14.00" fill="white">uncorrelated subquery</text>
</g>
<!-- 127962513466576 -->
<g id="node12" class="node">
<title>127962513466576</title>
<polygon fill="none" stroke="white" points="729.5,-301 366.5,-301 366.5,-263 729.5,-263 729.5,-301"/>
<text text-anchor="middle" x="548" y="-285.8" font-family="Times,serif" font-size="14.00" fill="white">[Predicate] (SUBSTR(c_phone,1,2)) IN (&#39;17&#39;, &#39;13&#39;,</text>
<text text-anchor="middle" x="548" y="-270.8" font-family="Times,serif" font-size="14.00" fill="white">&#39;23&#39;, &#39;11&#39;, &#39;21&#39;, &#39;26&#39;, &#39;31&#39;)</text>
</g>
<!-- 127962513466576&#45;&gt;127962513466960 -->
<g id="edge11" class="edge">
<title>127962513466576&#45;&gt;127962513466960</title>
<path fill="none" stroke="white" stroke-width="2.09" d="M534.53,-301.03C525.29,-313.39 512.89,-330 502.56,-343.82"/>
<polygon fill="white" stroke="white" stroke-width="2.09" points="499.63,-341.89 496.45,-352 505.24,-346.08 499.63,-341.89"/>
<g id="a_edge11&#45;label"><a xlink:title="Output Expressions: &#10; (1) c_custkey&#10; (2) c_phone&#10; (3) c_acctbal&#10;&#10;Unique Column Combinations: &#10; (1) {c_custkey}&#10;&#10;Functional Dependencies (trivial): &#10; (1) {c_custkey} =&gt; {c_phone, c_acctbal}&#10;&#10;Functional Dependencies (non&#45;trivial): &#10; &lt;none&gt;">
<text text-anchor="middle" x="643.5" y="-322.8" font-family="Times,serif" font-size="14.00" fill="white"> 6,818,625.5 row(s) | 100.0% estd.</text>
</a>
</g>
</g>
<!-- 128124033587184 -->
<g id="node13" class="node">
<title>128124033587184</title>
<polygon fill="none" stroke="white" points="590.5,-212 505.5,-212 505.5,-176 590.5,-176 590.5,-212"/>
<text text-anchor="middle" x="548" y="-190.3" font-family="Times,serif" font-size="14.00" fill="white">[Validate]</text>
</g>
<!-- 128124033587184&#45;&gt;127962513466576 -->
<g id="edge12" class="edge">
<title>128124033587184&#45;&gt;127962513466576</title>
<path fill="none" stroke="white" stroke-width="2.09" d="M548,-212.4C548,-223.94 548,-239.35 548,-252.64"/>
<polygon fill="white" stroke="white" stroke-width="2.09" points="544.5,-252.73 548,-262.73 551.5,-252.73 544.5,-252.73"/>
<g id="a_edge12&#45;label"><a xlink:title="Output Expressions: &#10; (1) c_custkey&#10; (2) c_phone&#10; (3) c_acctbal&#10;&#10;Unique Column Combinations: &#10; (1) {c_custkey}&#10;&#10;Functional Dependencies (trivial): &#10; (1) {c_custkey} =&gt; {c_phone, c_acctbal}&#10;&#10;Functional Dependencies (non&#45;trivial): &#10; &lt;none&gt;">
<text text-anchor="middle" x="671.5" y="-233.8" font-family="Times,serif" font-size="14.00" fill="white"> 6,818,625.5 row(s) | 100.0% estd.</text>
</a>
</g>
</g>
<!-- 127958058186192 -->
<g id="node14" class="node">
<title>127958058186192</title>
<polygon fill="none" stroke="white" points="645.5,-125 450.5,-125 450.5,-89 645.5,-89 645.5,-125"/>
<text text-anchor="middle" x="548" y="-103.3" font-family="Times,serif" font-size="14.00" fill="white">[Predicate] c_acctbal &gt; 0</text>
</g>
<!-- 127958058186192&#45;&gt;128124033587184 -->
<g id="edge13" class="edge">
<title>127958058186192&#45;&gt;128124033587184</title>
<path fill="none" stroke="white" stroke-width="2.09" d="M548,-125.2C548,-136.84 548,-152.45 548,-165.76"/>
<polygon fill="white" stroke="white" stroke-width="2.09" points="544.5,-165.82 548,-175.82 551.5,-165.82 544.5,-165.82"/>
<g id="a_edge13&#45;label"><a xlink:title="Output Expressions: &#10; (1) c_custkey&#10; (2) c_phone&#10; (3) c_acctbal&#10;&#10;Unique Column Combinations: &#10; (1) {c_custkey}&#10;&#10;Functional Dependencies (trivial): &#10; (1) {c_custkey} =&gt; {c_phone, c_acctbal}&#10;&#10;Functional Dependencies (non&#45;trivial): &#10; &lt;none&gt;">
<text text-anchor="middle" x="667" y="-146.8" font-family="Times,serif" font-size="14.00" fill="white"> 6,818,625.5 row(s) | 90.9% estd.</text>
</a>
</g>
</g>
<!-- 127962370844944 -->
<g id="node15" class="node">
<title>127962370844944</title>
<polygon fill="none" stroke="white" points="722,-38 374,-38 374,0 722,0 722,-38"/>
<text text-anchor="middle" x="548" y="-22.8" font-family="Times,serif" font-size="14.00" fill="white">[StoredTable] Name: &#39;customer&#39; pruned: 0/115</text>
<text text-anchor="middle" x="548" y="-7.8" font-family="Times,serif" font-size="14.00" fill="white">chunk(s), 5/8 column(s)</text>
</g>
<!-- 127962370844944&#45;&gt;127958058186192 -->
<g id="edge14" class="edge">
<title>127962370844944&#45;&gt;127958058186192</title>
<path fill="none" stroke="white" stroke-width="2.32" d="M548,-38.24C548,-50.07 548,-65.68 548,-78.95"/>
<polygon fill="white" stroke="white" stroke-width="2.32" points="544.5,-78.96 548,-88.96 551.5,-78.96 544.5,-78.96"/>
<g id="a_edge14&#45;label"><a xlink:title="Output Expressions: &#10; (1) c_custkey&#10; (2) c_phone&#10; (3) c_acctbal&#10;&#10;Unique Column Combinations: &#10; (1) {c_custkey}&#10;&#10;Functional Dependencies (trivial): &#10; (1) {c_custkey} =&gt; {c_phone, c_acctbal}&#10;&#10;Functional Dependencies (non&#45;trivial): &#10; &lt;none&gt;">
<text text-anchor="middle" x="671.5" y="-59.8" font-family="Times,serif" font-size="14.00" fill="white"> 7,500,000.0 row(s) | 100.0% estd.</text>
</a>
</g>
</g>
<!-- 128124033587984 -->
<g id="node16" class="node">
<title>128124033587984</title>
<polygon fill="none" stroke="white" points="685.5,-567 600.5,-567 600.5,-531 685.5,-531 685.5,-567"/>
<text text-anchor="middle" x="643" y="-545.3" font-family="Times,serif" font-size="14.00" fill="white">[Validate]</text>
</g>
<!-- 128124033587984&#45;&gt;127958058186576 -->
<g id="edge15" class="edge">
<title>128124033587984&#45;&gt;127958058186576</title>
<path fill="none" stroke="white" stroke-width="8" d="M636.59,-567.03C631.53,-578.24 623.41,-592.39 612,-601 604.81,-606.43 596.85,-611.03 588.51,-614.95"/>
<polygon fill="white" stroke="white" stroke-width="8" points="579.33,-618.93 591.29,-621.37 588.5,-614.95 579.33,-618.93"/>
<g id="a_edge15&#45;label"><a xlink:title="Output Expressions: &#10; (1) o_custkey&#10;&#10;Unique Column Combinations: &#10; &lt;none&gt;&#10;&#10;Functional Dependencies (trivial): &#10; &lt;none&gt;&#10;&#10;Functional Dependencies (non&#45;trivial): &#10; &lt;none&gt;">
<text text-anchor="middle" x="753" y="-589.8" font-family="Times,serif" font-size="14.00" fill="white"> 75,000,000.0 row(s) | 100.0% estd.</text>
</a>
</g>
</g>
<!-- 127962370846224 -->
<g id="node17" class="node">
<title>127962370846224</title>
<polygon fill="none" stroke="white" points="820.5,-479 483.5,-479 483.5,-441 820.5,-441 820.5,-479"/>
<text text-anchor="middle" x="652" y="-463.8" font-family="Times,serif" font-size="14.00" fill="white">[StoredTable] Name: &#39;orders&#39; pruned: 0/1145</text>
<text text-anchor="middle" x="652" y="-448.8" font-family="Times,serif" font-size="14.00" fill="white">chunk(s), 8/9 column(s)</text>
</g>
<!-- 127962370846224&#45;&gt;128124033587984 -->
<g id="edge16" class="edge">
<title>127962370846224&#45;&gt;128124033587984</title>
<path fill="none" stroke="white" stroke-width="8" d="M650.14,-479.03C648.89,-491.04 647.23,-507.07 645.83,-520.64"/>
<polygon fill="white" stroke="white" stroke-width="8" points="638.84,-520.22 644.77,-530.88 652.76,-521.66 638.84,-520.22"/>
<g id="a_edge16&#45;label"><a xlink:title="Output Expressions: &#10; (1) o_custkey&#10;&#10;Unique Column Combinations: &#10; &lt;none&gt;&#10;&#10;Functional Dependencies (trivial): &#10; &lt;none&gt;&#10;&#10;Functional Dependencies (non&#45;trivial): &#10; &lt;none&gt;">
<text text-anchor="middle" x="776" y="-500.8" font-family="Times,serif" font-size="14.00" fill="white"> 75,000,000.0 row(s) | 100.0% estd.</text>
</a>
</g>
</g>
</g>
</svg>
