<?xml version="1.0" encoding="UTF-8" standalone="no"?>
<!DOCTYPE svg PUBLIC "-//W3C//DTD SVG 1.1//EN"
 "http://www.w3.org/Graphics/SVG/1.1/DTD/svg11.dtd">
<!-- Generated by graphviz version 2.43.0 (0)
 -->
<!-- Title: G Pages: 1 -->
<svg width="997pt" height="2594pt"
 viewBox="0.00 0.00 997.00 2594.00" xmlns="http://www.w3.org/2000/svg" xmlns:xlink="http://www.w3.org/1999/xlink">
<g id="graph0" class="graph" transform="scale(1 1) rotate(0) translate(4 2590)">
<title>G</title>
<polygon fill="black" stroke="transparent" points="-4,4 -4,-2590 993,-2590 993,4 -4,4"/>
<text text-anchor="middle" x="319.5" y="-2570.8" font-family="Times,serif" font-size="14.00" fill="white">For tooltips with advanced information, hover your mouse over vertices or edge labels.</text>
<!-- 139510007890256 -->
<g id="node1" class="node">
<title>139510007890256</title>
<g id="a_node1"><a xlink:title="Output: 8763 rows in 1 chunk, 13 µs 214 ns.&#10;Operator step runtimes:&#10; ForwardUnmodifiedColumns 4 µs 128 ns&#10; EvaluateNewColumns 1 µs 82 ns&#10; BuildOutput 5 µs 840 ns.">
<polygon fill="none" stroke="white" points="435,-2531 327,-2531 327,-2477 435,-2477 435,-2531"/>
<text text-anchor="middle" x="381" y="-2515.8" font-family="Times,serif" font-size="14.00" fill="white">Projection</text>
<text text-anchor="middle" x="381" y="-2484.8" font-family="Times,serif" font-size="14.00" fill="white">13 µs 214 ns</text>
</a>
</g>
</g>
<!-- 139510007889936 -->
<g id="node2" class="node">
<title>139510007889936</title>
<g id="a_node2"><a xlink:title="Output: 8763 rows in 1 chunk, 8 ms 288 µs.&#10;Operator step runtimes:&#10; MaterializeSortColumns 3 ms 400 µs&#10; Sort 4 ms 285 µs&#10; TemporaryResultWriting 9 µs 718 ns&#10; WriteOutput 172 µs 765 ns.">
<polygon fill="none" stroke="white" points="433,-2426 329,-2426 329,-2372 433,-2372 433,-2426"/>
<text text-anchor="middle" x="381" y="-2410.8" font-family="Times,serif" font-size="14.00" fill="white">Sort</text>
<text text-anchor="middle" x="381" y="-2379.8" font-family="Times,serif" font-size="14.00" fill="white">8 ms 288 µs</text>
</a>
</g>
</g>
<!-- 139510007889936&#45;&gt;139510007890256 -->
<g id="edge1" class="edge">
<title>139510007889936&#45;&gt;139510007890256</title>
<path fill="none" stroke="white" d="M381,-2426.26C381,-2438.49 381,-2453.24 381,-2466.52"/>
<polygon fill="white" stroke="white" points="377.5,-2466.79 381,-2476.79 384.5,-2466.79 377.5,-2466.79"/>
<text text-anchor="middle" x="465.5" y="-2447.8" font-family="Times,serif" font-size="14.00" fill="white">8,763 row(s)/1 chunk(s)</text>
</g>
<!-- 139508842565328 -->
<g id="node3" class="node">
<title>139508842565328</title>
<g id="a_node3"><a xlink:title="Output: 8763 rows in 1 chunk, 7 ms 244 µs.&#10;Operator step runtimes:&#10; LeftSideMaterialize 4 ms 489 µs&#10; RightSideMaterialize 30 µs 76 ns&#10; LeftSideTransform 0 ns&#10; RightSideTransform 0 ns&#10; LeftSidePartition 230 µs 243 ns&#10; RightSidePartition 9 µs 277 ns&#10; LeftSideSortBuckets 807 µs 355 ns&#10; RightSideSortBuckets 828 µs 315 ns&#10; GatherRowIds 1 µs 293 ns&#10; FindJoinPartner 190 µs 667 ns&#10; OutputWriting 459 µs 212 ns.">
<polygon fill="none" stroke="white" points="485.5,-2321 276.5,-2321 276.5,-2252 485.5,-2252 485.5,-2321"/>
<text text-anchor="middle" x="381" y="-2305.8" font-family="Times,serif" font-size="14.00" fill="white">JoinSimdSortMerge (Semi)</text>
<text text-anchor="middle" x="381" y="-2290.8" font-family="Times,serif" font-size="14.00" fill="white">s_nationkey = n_nationkey</text>
<text text-anchor="middle" x="381" y="-2259.8" font-family="Times,serif" font-size="14.00" fill="white">7 ms 244 µs</text>
</a>
</g>
</g>
<!-- 139508842565328&#45;&gt;139510007889936 -->
<g id="edge2" class="edge">
<title>139508842565328&#45;&gt;139510007889936</title>
<path fill="none" stroke="white" d="M381,-2321.25C381,-2334.07 381,-2348.73 381,-2361.77"/>
<polygon fill="white" stroke="white" points="377.5,-2361.81 381,-2371.81 384.5,-2361.81 377.5,-2361.81"/>
<text text-anchor="middle" x="465.5" y="-2342.8" font-family="Times,serif" font-size="14.00" fill="white">8,763 row(s)/1 chunk(s)</text>
</g>
<!-- 139510233313296 -->
<g id="node4" class="node">
<title>139510233313296</title>
<g id="a_node4"><a xlink:title="Output: 222769 rows in 256 chunks, 3 ms 394 µs.">
<polygon fill="none" stroke="white" points="537,-2129 433,-2129 433,-2075 537,-2075 537,-2129"/>
<text text-anchor="middle" x="485" y="-2113.8" font-family="Times,serif" font-size="14.00" fill="white">Validate</text>
<text text-anchor="middle" x="485" y="-2082.8" font-family="Times,serif" font-size="14.00" fill="white">3 ms 394 µs</text>
</a>
</g>
</g>
<!-- 139510233313296&#45;&gt;139508842565328 -->
<g id="edge3" class="edge">
<title>139510233313296&#45;&gt;139508842565328</title>
<path fill="none" stroke="white" d="M482.8,-2129.19C479.37,-2157.22 470.69,-2201.97 449,-2234 446.46,-2237.76 443.55,-2241.35 440.39,-2244.77"/>
<polygon fill="white" stroke="white" points="440.25,-2244.91 437.78,-2242.43 433.16,-2251.97 440.25,-2244.91"/>
<text text-anchor="middle" x="583.5" y="-2170.3" font-family="Times,serif" font-size="14.00" fill="white">222,769 row(s)/256 chunk(s)</text>
</g>
<!-- 139508842564368 -->
<g id="node5" class="node">
<title>139508842564368</title>
<g id="a_node5"><a xlink:title="Output: 222769 rows in 256 chunks, 21 ms 688 µs.&#10;Operator step runtimes:&#10; LeftSideMaterialize 616 µs 777 ns&#10; RightSideMaterialize 10 ms 929 µs&#10; LeftSideTransform 0 ns&#10; RightSideTransform 0 ns&#10; LeftSidePartition 2 ms 484 µs&#10; RightSidePartition 3 ms 166 µs&#10; LeftSideSortBuckets 833 µs 675 ns&#10; RightSideSortBuckets 839 µs 65 ns&#10; GatherRowIds 2 µs 184 ns&#10; FindJoinPartner 933 µs 282 ns&#10; OutputWriting 1 ms 286 µs.">
<polygon fill="none" stroke="white" points="516.5,-1929.5 307.5,-1929.5 307.5,-1860.5 516.5,-1860.5 516.5,-1929.5"/>
<text text-anchor="middle" x="412" y="-1914.3" font-family="Times,serif" font-size="14.00" fill="white">JoinSimdSortMerge (Semi)</text>
<text text-anchor="middle" x="412" y="-1899.3" font-family="Times,serif" font-size="14.00" fill="white">s_suppkey = ps_suppkey</text>
<text text-anchor="middle" x="412" y="-1868.3" font-family="Times,serif" font-size="14.00" fill="white">21 ms 688 µs</text>
</a>
</g>
</g>
<!-- 139508842564368&#45;&gt;139510233313296 -->
<g id="edge4" class="edge">
<title>139508842564368&#45;&gt;139510233313296</title>
<path fill="none" stroke="white" d="M453.33,-1929.65C460.31,-1937.26 466.68,-1945.83 471,-1955 487.32,-1989.61 489.3,-2033.9 488.16,-2064.58"/>
<polygon fill="white" stroke="white" points="484.65,-2064.66 487.64,-2074.82 491.64,-2065.01 484.65,-2064.66"/>
<text text-anchor="middle" x="579.5" y="-1958.8" font-family="Times,serif" font-size="14.00" fill="white">222,769 row(s)/256 chunk(s)</text>
</g>
<!-- 139508842565008 -->
<g id="node24" class="node">
<title>139508842565008</title>
<g id="a_node24"><a xlink:title="Output: 1 row in 1 chunk, 7 ms 145 µs.&#10;Operator step runtimes:&#10; LeftSideMaterialize 37 µs 811 ns&#10; RightSideMaterialize 4 ms 964 µs&#10; LeftSideTransform 0 ns&#10; RightSideTransform 0 ns&#10; LeftSidePartition 14 µs 187 ns&#10; RightSidePartition 237 µs 285 ns&#10; LeftSideSortBuckets 811 µs 884 ns&#10; RightSideSortBuckets 863 µs 261 ns&#10; GatherRowIds 2 µs 585 ns&#10; FindJoinPartner 7 µs 373 ns&#10; OutputWriting 17 µs 694 ns.">
<polygon fill="none" stroke="white" points="407.5,-2057 122.5,-2057 122.5,-1988 407.5,-1988 407.5,-2057"/>
<text text-anchor="middle" x="265" y="-2041.8" font-family="Times,serif" font-size="14.00" fill="white">JoinSimdSortMerge (Semi Reduction)</text>
<text text-anchor="middle" x="265" y="-2026.8" font-family="Times,serif" font-size="14.00" fill="white">n_nationkey = s_nationkey</text>
<text text-anchor="middle" x="265" y="-1995.8" font-family="Times,serif" font-size="14.00" fill="white">7 ms 145 µs</text>
</a>
</g>
</g>
<!-- 139508842564368&#45;&gt;139508842565008 -->
<g id="edge5" class="edge">
<title>139508842564368&#45;&gt;139508842565008</title>
<path fill="none" stroke="white" d="M307.33,-1920.47C291.07,-1928.82 276.28,-1940 266,-1955 261.46,-1961.63 259.31,-1969.57 258.59,-1977.62"/>
<polygon fill="white" stroke="white" points="258.37,-1987.78 262.09,-1977.86 258.59,-1977.78 258.37,-1987.78"/>
<text text-anchor="middle" x="368.5" y="-1958.8" font-family="Times,serif" font-size="14.00" fill="white">222,769 row(s)/256 chunk(s)</text>
</g>
<!-- 139672030909392 -->
<g id="node6" class="node">
<title>139672030909392</title>
<g id="a_node6"><a xlink:title="Output: 500000 rows in 8 chunks, 49 µs 493 ns.">
<polygon fill="none" stroke="white" points="627.5,-1802 514.5,-1802 514.5,-1688 627.5,-1688 627.5,-1802"/>
<text text-anchor="middle" x="571" y="-1786.8" font-family="Times,serif" font-size="14.00" fill="white">GetTable</text>
<text text-anchor="middle" x="571" y="-1771.8" font-family="Times,serif" font-size="14.00" fill="white">(supplier)</text>
<text text-anchor="middle" x="571" y="-1756.8" font-family="Times,serif" font-size="14.00" fill="white">pruned:</text>
<text text-anchor="middle" x="571" y="-1741.8" font-family="Times,serif" font-size="14.00" fill="white">0/8 chunk(s)</text>
<text text-anchor="middle" x="571" y="-1726.8" font-family="Times,serif" font-size="14.00" fill="white">3/7 column(s)</text>
<text text-anchor="middle" x="571" y="-1695.8" font-family="Times,serif" font-size="14.00" fill="white">49 µs 493 ns</text>
</a>
</g>
</g>
<!-- 139672030909392&#45;&gt;139508842564368 -->
<g id="edge6" class="edge">
<title>139672030909392&#45;&gt;139508842564368</title>
<path fill="none" stroke="white" d="M565.27,-1802.44C561.94,-1814.18 556.82,-1825.77 549,-1835 542.21,-1843.01 534.13,-1849.96 525.35,-1855.99"/>
<polygon fill="white" stroke="white" points="525.16,-1856.11 523.28,-1853.16 516.73,-1861.49 525.16,-1856.11"/>
<text text-anchor="middle" x="651.5" y="-1823.8" font-family="Times,serif" font-size="14.00" fill="white">500,000 row(s)/8 chunk(s)</text>
</g>
<!-- 139508842564048 -->
<g id="node7" class="node">
<title>139508842564048</title>
<g id="a_node7"><a xlink:title="Output: 293992 rows in 256 chunks, 165 µs 551 ns.&#10;Operator step runtimes:&#10; ForwardUnmodifiedColumns 64 µs 441 ns&#10; EvaluateNewColumns 121 ns&#10; BuildOutput 67 µs 566 ns.">
<polygon fill="none" stroke="white" points="401.5,-1772 284.5,-1772 284.5,-1718 401.5,-1718 401.5,-1772"/>
<text text-anchor="middle" x="343" y="-1756.8" font-family="Times,serif" font-size="14.00" fill="white">Projection</text>
<text text-anchor="middle" x="343" y="-1725.8" font-family="Times,serif" font-size="14.00" fill="white">165 µs 551 ns</text>
</a>
</g>
</g>
<!-- 139508842564048&#45;&gt;139508842564368 -->
<g id="edge7" class="edge">
<title>139508842564048&#45;&gt;139508842564368</title>
<path fill="none" stroke="white" d="M337.83,-1772.17C335.46,-1790.59 334.91,-1815.37 344,-1835 346.91,-1841.29 350.86,-1847.17 355.39,-1852.59"/>
<polygon fill="white" stroke="white" points="362.39,-1860.21 358.2,-1850.48 355.62,-1852.85 362.39,-1860.21"/>
<text text-anchor="middle" x="446.5" y="-1823.8" font-family="Times,serif" font-size="14.00" fill="white">293,992 row(s)/256 chunk(s)</text>
</g>
<!-- 139508842563728 -->
<g id="node8" class="node">
<title>139508842563728</title>
<g id="a_node8"><a xlink:title="Output: 293992 rows in 256 chunks, 125 ms 822 µs.&#10;Operator step runtimes:&#10; LeftSideMaterialize 12 ms 215 µs&#10; RightSideMaterialize 42 ms 16 µs&#10; LeftSideTransform 0 ns&#10; RightSideTransform 0 ns&#10; LeftSidePartition 3 ms 456 µs&#10; RightSidePartition 3 ms 148 µs&#10; LeftSideSortBuckets 832 µs 613 ns&#10; RightSideSortBuckets 857 µs 860 ns&#10; GatherRowIds 2 µs 475 ns&#10; FindJoinPartner 61 ms 80 µs&#10; OutputWriting 1 ms 653 µs.">
<polygon fill="none" stroke="white" stroke-width="3.72" points="498.5,-1637 187.5,-1637 187.5,-1538 498.5,-1538 498.5,-1637"/>
<text text-anchor="middle" x="343" y="-1621.8" font-family="Times,serif" font-size="14.00" fill="white">JoinSimdSortMerge (Semi)</text>
<text text-anchor="middle" x="343" y="-1606.8" font-family="Times,serif" font-size="14.00" fill="white">ps_suppkey = l_suppkey</text>
<text text-anchor="middle" x="343" y="-1591.8" font-family="Times,serif" font-size="14.00" fill="white">AND ps_availqty &gt; 0.5 * SUM(l_quantity)</text>
<text text-anchor="middle" x="343" y="-1576.8" font-family="Times,serif" font-size="14.00" fill="white">AND ps_partkey = l_partkey</text>
<text text-anchor="middle" x="343" y="-1545.8" font-family="Times,serif" font-size="14.00" fill="white">125 ms 822 µs</text>
</a>
</g>
</g>
<!-- 139508842563728&#45;&gt;139508842564048 -->
<g id="edge8" class="edge">
<title>139508842563728&#45;&gt;139508842564048</title>
<path fill="none" stroke="white" d="M343,-1637.27C343,-1659.98 343,-1686.53 343,-1707.47"/>
<polygon fill="white" stroke="white" points="339.5,-1707.56 343,-1717.56 346.5,-1707.56 339.5,-1707.56"/>
<text text-anchor="middle" x="445.5" y="-1658.8" font-family="Times,serif" font-size="14.00" fill="white">293,992 row(s)/256 chunk(s)</text>
</g>
<!-- 139510007566864 -->
<g id="node9" class="node">
<title>139510007566864</title>
<g id="a_node9"><a xlink:title="Output: 432092 rows in 256 chunks, 1 ms 70 µs.">
<polygon fill="none" stroke="white" points="420.5,-864.5 325.5,-864.5 325.5,-810.5 420.5,-810.5 420.5,-864.5"/>
<text text-anchor="middle" x="373" y="-849.3" font-family="Times,serif" font-size="14.00" fill="white">Validate</text>
<text text-anchor="middle" x="373" y="-818.3" font-family="Times,serif" font-size="14.00" fill="white">1 ms 70 µs</text>
</a>
</g>
</g>
<!-- 139510007566864&#45;&gt;139508842563728 -->
<g id="edge9" class="edge">
<title>139510007566864&#45;&gt;139508842563728</title>
<path fill="none" stroke="white" d="M358.19,-864.58C344.74,-890.76 327,-932.65 327,-971.5 327,-971.5 327,-971.5 327,-1461 327,-1482.9 329.43,-1506.77 332.39,-1527.76"/>
<polygon fill="white" stroke="white" points="332.41,-1527.92 328.95,-1528.43 333.88,-1537.81 332.41,-1527.92"/>
<text text-anchor="middle" x="429.5" y="-1201.3" font-family="Times,serif" font-size="14.00" fill="white">432,092 row(s)/256 chunk(s)</text>
</g>
<!-- 139508842562448 -->
<g id="node19" class="node">
<title>139508842562448</title>
<g id="a_node19"><a xlink:title="Output: 490817 rows in 256 chunks, 166 ms 129 µs.&#10;Operator step runtimes:&#10; LeftSideMaterialize 146 ms 570 µs&#10; RightSideMaterialize 7 ms 999 µs&#10; LeftSideTransform 0 ns&#10; RightSideTransform 0 ns&#10; LeftSidePartition 1 ms 84 µs&#10; RightSidePartition 3 ms 988 µs&#10; LeftSideSortBuckets 1 ms 296 µs&#10; RightSideSortBuckets 770 µs 326 ns&#10; GatherRowIds 1 µs 903 ns&#10; FindJoinPartner 1 ms 266 µs&#10; OutputWriting 1 ms 644 µs.">
<polygon fill="none" stroke="white" stroke-width="4.41" points="744.5,-1127 459.5,-1127 459.5,-1058 744.5,-1058 744.5,-1127"/>
<text text-anchor="middle" x="602" y="-1111.8" font-family="Times,serif" font-size="14.00" fill="white">JoinSimdSortMerge (Semi Reduction)</text>
<text text-anchor="middle" x="602" y="-1096.8" font-family="Times,serif" font-size="14.00" fill="white">l_partkey = ps_partkey</text>
<text text-anchor="middle" x="602" y="-1065.8" font-family="Times,serif" font-size="14.00" fill="white">166 ms 129 µs</text>
</a>
</g>
</g>
<!-- 139510007566864&#45;&gt;139508842562448 -->
<g id="edge11" class="edge">
<title>139510007566864&#45;&gt;139508842562448</title>
<path fill="none" stroke="white" d="M366.53,-864.77C359.34,-900.6 352.4,-965.12 383,-1007 399.88,-1030.11 423.98,-1046.9 450.06,-1059.09"/>
<polygon fill="white" stroke="white" points="459.36,-1063.22 451.64,-1055.97 450.22,-1059.17 459.36,-1063.22"/>
<text text-anchor="middle" x="485.5" y="-968.8" font-family="Times,serif" font-size="14.00" fill="white">432,092 row(s)/256 chunk(s)</text>
</g>
<!-- 139508842562128 -->
<g id="node20" class="node">
<title>139508842562128</title>
<g id="a_node20"><a xlink:title="Output: 26418433 rows in 256 chunks, 212 ms 451 µs.&#10;Operator step runtimes:&#10; LeftSideMaterialize 90 ms 223 µs&#10; RightSideMaterialize 7 ms 628 µs&#10; LeftSideTransform 0 ns&#10; RightSideTransform 0 ns&#10; LeftSidePartition 15 ms 775 µs&#10; RightSidePartition 4 ms 9 µs&#10; LeftSideSortBuckets 10 ms 755 µs&#10; RightSideSortBuckets 803 µs 999 ns&#10; GatherRowIds 1 µs 893 ns&#10; FindJoinPartner 41 ms 19 µs&#10; OutputWriting 38 ms 881 µs.">
<polygon fill="none" stroke="white" stroke-width="5.02" points="881.5,-1007 596.5,-1007 596.5,-938 881.5,-938 881.5,-1007"/>
<text text-anchor="middle" x="739" y="-991.8" font-family="Times,serif" font-size="14.00" fill="white">JoinSimdSortMerge (Semi Reduction)</text>
<text text-anchor="middle" x="739" y="-976.8" font-family="Times,serif" font-size="14.00" fill="white">l_suppkey = ps_suppkey</text>
<text text-anchor="middle" x="739" y="-945.8" font-family="Times,serif" font-size="14.00" fill="white">212 ms 451 µs</text>
</a>
</g>
</g>
<!-- 139510007566864&#45;&gt;139508842562128 -->
<g id="edge10" class="edge">
<title>139510007566864&#45;&gt;139508842562128</title>
<path fill="none" stroke="white" d="M416.37,-864.58C447.2,-882.22 490.05,-904.95 530,-920 548.03,-926.79 567.26,-932.93 586.5,-938.41"/>
<polygon fill="white" stroke="white" points="596.24,-941.14 587.55,-935.07 586.61,-938.44 596.24,-941.14"/>
<text text-anchor="middle" x="632.5" y="-908.8" font-family="Times,serif" font-size="14.00" fill="white">432,092 row(s)/256 chunk(s)</text>
</g>
<!-- 139508842561168 -->
<g id="node10" class="node">
<title>139508842561168</title>
<g id="a_node10"><a xlink:title="Output: 432092 rows in 256 chunks, 36 ms 657 µs.&#10;Operator step runtimes:&#10; LeftSideMaterialize 12 ms 732 µs&#10; RightSideMaterialize 3 ms 183 µs&#10; LeftSideTransform 0 ns&#10; RightSideTransform 0 ns&#10; LeftSidePartition 11 ms 39 µs&#10; RightSidePartition 2 ms 922 µs&#10; LeftSideSortBuckets 1 ms 835 µs&#10; RightSideSortBuckets 766 µs 889 ns&#10; GatherRowIds 1 µs 443 ns&#10; FindJoinPartner 1 ms 179 µs&#10; OutputWriting 1 ms 33 µs.">
<polygon fill="none" stroke="white" points="477.5,-714.5 268.5,-714.5 268.5,-645.5 477.5,-645.5 477.5,-714.5"/>
<text text-anchor="middle" x="373" y="-699.3" font-family="Times,serif" font-size="14.00" fill="white">JoinSimdSortMerge (Semi)</text>
<text text-anchor="middle" x="373" y="-684.3" font-family="Times,serif" font-size="14.00" fill="white">ps_partkey = p_partkey</text>
<text text-anchor="middle" x="373" y="-653.3" font-family="Times,serif" font-size="14.00" fill="white">36 ms 657 µs</text>
</a>
</g>
</g>
<!-- 139508842561168&#45;&gt;139510007566864 -->
<g id="edge12" class="edge">
<title>139508842561168&#45;&gt;139510007566864</title>
<path fill="none" stroke="white" d="M373,-714.74C373,-739.86 373,-774.13 373,-799.91"/>
<polygon fill="white" stroke="white" points="369.5,-800.03 373,-810.03 376.5,-800.03 369.5,-800.03"/>
<text text-anchor="middle" x="475.5" y="-758.8" font-family="Times,serif" font-size="14.00" fill="white">432,092 row(s)/256 chunk(s)</text>
</g>
<!-- 139672030909840 -->
<g id="node11" class="node">
<title>139672030909840</title>
<g id="a_node11"><a xlink:title="Output: 40000000 rows in 611 chunks, 1 ms 769 µs.">
<polygon fill="none" stroke="white" points="309,-572 187,-572 187,-458 309,-458 309,-572"/>
<text text-anchor="middle" x="248" y="-556.8" font-family="Times,serif" font-size="14.00" fill="white">GetTable</text>
<text text-anchor="middle" x="248" y="-541.8" font-family="Times,serif" font-size="14.00" fill="white">(partsupp)</text>
<text text-anchor="middle" x="248" y="-526.8" font-family="Times,serif" font-size="14.00" fill="white">pruned:</text>
<text text-anchor="middle" x="248" y="-511.8" font-family="Times,serif" font-size="14.00" fill="white">0/611 chunk(s)</text>
<text text-anchor="middle" x="248" y="-496.8" font-family="Times,serif" font-size="14.00" fill="white">2/5 column(s)</text>
<text text-anchor="middle" x="248" y="-465.8" font-family="Times,serif" font-size="14.00" fill="white">1 ms 769 µs</text>
</a>
</g>
</g>
<!-- 139672030909840&#45;&gt;139508842561168 -->
<g id="edge13" class="edge">
<title>139672030909840&#45;&gt;139508842561168</title>
<path fill="none" stroke="white" stroke-width="3.03" d="M240.18,-572.43C240.88,-583.78 243.38,-595.22 249,-605 256.84,-618.64 268.29,-630.04 281.11,-639.47"/>
<polygon fill="white" stroke="white" stroke-width="3.03" points="281.47,-639.72 279.48,-642.6 289.71,-645.39 281.47,-639.72"/>
<text text-anchor="middle" x="363" y="-593.8" font-family="Times,serif" font-size="14.00" fill="white">40,000,000 row(s)/611 chunk(s)</text>
</g>
<!-- 139508842560848 -->
<g id="node12" class="node">
<title>139508842560848</title>
<g id="a_node12"><a xlink:title="Output: 108023 rows in 153 chunks, 123 µs 321 ns.&#10;Operator step runtimes:&#10; ForwardUnmodifiedColumns 48 µs 441 ns&#10; EvaluateNewColumns 120 ns&#10; BuildOutput 47 µs 590 ns.">
<polygon fill="none" stroke="white" points="557.5,-542 440.5,-542 440.5,-488 557.5,-488 557.5,-542"/>
<text text-anchor="middle" x="499" y="-526.8" font-family="Times,serif" font-size="14.00" fill="white">Projection</text>
<text text-anchor="middle" x="499" y="-495.8" font-family="Times,serif" font-size="14.00" fill="white">123 µs 321 ns</text>
</a>
</g>
</g>
<!-- 139508842560848&#45;&gt;139508842561168 -->
<g id="edge14" class="edge">
<title>139508842560848&#45;&gt;139508842561168</title>
<path fill="none" stroke="white" d="M497.36,-542.11C495.09,-560.97 489.71,-586.31 477,-605 468.16,-618 456.22,-629.48 443.6,-639.28"/>
<polygon fill="white" stroke="white" points="435.22,-645.48 445.34,-642.34 443.26,-639.53 435.22,-645.48"/>
<text text-anchor="middle" x="587.5" y="-593.8" font-family="Times,serif" font-size="14.00" fill="white">108,023 row(s)/153 chunk(s)</text>
</g>
<!-- 139510007568656 -->
<g id="node13" class="node">
<title>139510007568656</title>
<g id="a_node13"><a xlink:title="Output: 108023 rows in 153 chunks, 318 µs 488 ns.">
<polygon fill="none" stroke="white" points="557.5,-407 440.5,-407 440.5,-353 557.5,-353 557.5,-407"/>
<text text-anchor="middle" x="499" y="-391.8" font-family="Times,serif" font-size="14.00" fill="white">Validate</text>
<text text-anchor="middle" x="499" y="-360.8" font-family="Times,serif" font-size="14.00" fill="white">318 µs 488 ns</text>
</a>
</g>
</g>
<!-- 139510007568656&#45;&gt;139508842560848 -->
<g id="edge15" class="edge">
<title>139510007568656&#45;&gt;139508842560848</title>
<path fill="none" stroke="white" d="M499,-407.28C499,-427.41 499,-455.41 499,-477.68"/>
<polygon fill="white" stroke="white" points="495.5,-477.78 499,-487.78 502.5,-477.78 495.5,-477.78"/>
<text text-anchor="middle" x="601.5" y="-428.8" font-family="Times,serif" font-size="14.00" fill="white">108,023 row(s)/153 chunk(s)</text>
</g>
<!-- 139510009751888 -->
<g id="node14" class="node">
<title>139510009751888</title>
<g id="a_node14"><a xlink:title="Output: 108023 rows in 153 chunks, 973 µs 147 ns.&#10;Chunks: 0 skipped with no results, &#10;0 skipped with all matching, 0 scanned using binary search.">
<polygon fill="none" stroke="white" points="710,-302 288,-302 288,-203 710,-203 710,-302"/>
<text text-anchor="middle" x="499" y="-286.8" font-family="Times,serif" font-size="14.00" fill="white">TableScan</text>
<text text-anchor="middle" x="499" y="-271.8" font-family="Times,serif" font-size="14.00" fill="white">Impl: ColumnBetween</text>
<text text-anchor="middle" x="499" y="-256.8" font-family="Times,serif" font-size="14.00" fill="white">p_name BETWEEN UPPER EXCLUSIVE &#39;honeydew&#39; AND</text>
<text text-anchor="middle" x="499" y="-241.8" font-family="Times,serif" font-size="14.00" fill="white">&#39;honeydex&#39;</text>
<text text-anchor="middle" x="499" y="-210.8" font-family="Times,serif" font-size="14.00" fill="white">973 µs 147 ns</text>
</a>
</g>
</g>
<!-- 139510009751888&#45;&gt;139510007568656 -->
<g id="edge16" class="edge">
<title>139510009751888&#45;&gt;139510007568656</title>
<path fill="none" stroke="white" d="M499,-302.02C499,-315.49 499,-329.89 499,-342.54"/>
<polygon fill="white" stroke="white" points="495.5,-342.7 499,-352.7 502.5,-342.7 495.5,-342.7"/>
<text text-anchor="middle" x="601.5" y="-323.8" font-family="Times,serif" font-size="14.00" fill="white">108,023 row(s)/153 chunk(s)</text>
</g>
<!-- 139672030910288 -->
<g id="node15" class="node">
<title>139672030910288</title>
<g id="a_node15"><a xlink:title="Output: 10000000 rows in 153 chunks, 377 µs 679 ns.">
<polygon fill="none" stroke="white" points="560,-133 438,-133 438,-19 560,-19 560,-133"/>
<text text-anchor="middle" x="499" y="-117.8" font-family="Times,serif" font-size="14.00" fill="white">GetTable</text>
<text text-anchor="middle" x="499" y="-102.8" font-family="Times,serif" font-size="14.00" fill="white">(part)</text>
<text text-anchor="middle" x="499" y="-87.8" font-family="Times,serif" font-size="14.00" fill="white">pruned:</text>
<text text-anchor="middle" x="499" y="-72.8" font-family="Times,serif" font-size="14.00" fill="white">0/153 chunk(s)</text>
<text text-anchor="middle" x="499" y="-57.8" font-family="Times,serif" font-size="14.00" fill="white">7/9 column(s)</text>
<text text-anchor="middle" x="499" y="-26.8" font-family="Times,serif" font-size="14.00" fill="white">377 µs 679 ns</text>
</a>
</g>
</g>
<!-- 139672030910288&#45;&gt;139510009751888 -->
<g id="edge17" class="edge">
<title>139672030910288&#45;&gt;139510009751888</title>
<path fill="none" stroke="white" d="M499,-133.17C499,-152.18 499,-173.44 499,-192.64"/>
<polygon fill="white" stroke="white" points="495.5,-192.77 499,-202.77 502.5,-192.77 495.5,-192.77"/>
<text text-anchor="middle" x="613" y="-173.8" font-family="Times,serif" font-size="14.00" fill="white">10,000,000 row(s)/153 chunk(s)</text>
</g>
<!-- 139508842563408 -->
<g id="node16" class="node">
<title>139508842563408</title>
<g id="a_node16"><a xlink:title="Output: 294597 rows in 5 chunks, 495 µs 790 ns.&#10;Operator step runtimes:&#10; ForwardUnmodifiedColumns 9 µs 438 ns&#10; EvaluateNewColumns 443 µs 693 ns&#10; BuildOutput 36 µs 228 ns.">
<polygon fill="none" stroke="white" points="484.5,-1487 367.5,-1487 367.5,-1433 484.5,-1433 484.5,-1487"/>
<text text-anchor="middle" x="426" y="-1471.8" font-family="Times,serif" font-size="14.00" fill="white">Projection</text>
<text text-anchor="middle" x="426" y="-1440.8" font-family="Times,serif" font-size="14.00" fill="white">495 µs 790 ns</text>
</a>
</g>
</g>
<!-- 139508842563408&#45;&gt;139508842563728 -->
<g id="edge18" class="edge">
<title>139508842563408&#45;&gt;139508842563728</title>
<path fill="none" stroke="white" d="M408.8,-1487C400.67,-1499.31 390.6,-1514.52 380.82,-1529.32"/>
<polygon fill="white" stroke="white" points="375.1,-1537.96 383.54,-1531.55 380.62,-1529.62 375.1,-1537.96"/>
<text text-anchor="middle" x="490.5" y="-1508.8" font-family="Times,serif" font-size="14.00" fill="white">294,597 row(s)/5 chunk(s)</text>
</g>
<!-- 139509195559440 -->
<g id="node17" class="node">
<title>139509195559440</title>
<g id="a_node17"><a xlink:title="Output: 294597 rows in 5 chunks, 712 ms 378 µs.&#10;Operator step runtimes:&#10; GroupByKeyPartitioning 408 ms 548 µs&#10; Aggregating 300 ms 947 µs&#10; GroupByColumnsWriting 1 ms 311 µs&#10; AggregateColumnsWriting 1 ms 415 µs&#10; OutputWriting 14 µs 377 ns.">
<polygon fill="none" stroke="white" stroke-width="8" points="603,-1382 437,-1382 437,-1283 603,-1283 603,-1382"/>
<text text-anchor="middle" x="520" y="-1366.8" font-family="Times,serif" font-size="14.00" fill="white">AggregateHash</text>
<text text-anchor="middle" x="520" y="-1351.8" font-family="Times,serif" font-size="14.00" fill="white">GroupBy {l_suppkey,</text>
<text text-anchor="middle" x="520" y="-1336.8" font-family="Times,serif" font-size="14.00" fill="white">l_partkey}</text>
<text text-anchor="middle" x="520" y="-1321.8" font-family="Times,serif" font-size="14.00" fill="white">SUM(l_quantity)</text>
<text text-anchor="middle" x="520" y="-1290.8" font-family="Times,serif" font-size="14.00" fill="white">712 ms 378 µs</text>
</a>
</g>
</g>
<!-- 139509195559440&#45;&gt;139508842563408 -->
<g id="edge19" class="edge">
<title>139509195559440&#45;&gt;139508842563408</title>
<path fill="none" stroke="white" d="M483.66,-1382.02C473.06,-1396.17 461.7,-1411.33 451.89,-1424.43"/>
<polygon fill="white" stroke="white" points="448.89,-1422.6 445.7,-1432.7 454.49,-1426.8 448.89,-1422.6"/>
<text text-anchor="middle" x="564.5" y="-1403.8" font-family="Times,serif" font-size="14.00" fill="white">294,597 row(s)/5 chunk(s)</text>
</g>
<!-- 139510007569424 -->
<g id="node18" class="node">
<title>139510007569424</title>
<g id="a_node18"><a xlink:title="Output: 490817 rows in 256 chunks, 2 ms 440 µs.">
<polygon fill="none" stroke="white" points="654,-1232 550,-1232 550,-1178 654,-1178 654,-1232"/>
<text text-anchor="middle" x="602" y="-1216.8" font-family="Times,serif" font-size="14.00" fill="white">Validate</text>
<text text-anchor="middle" x="602" y="-1185.8" font-family="Times,serif" font-size="14.00" fill="white">2 ms 440 µs</text>
</a>
</g>
</g>
<!-- 139510007569424&#45;&gt;139509195559440 -->
<g id="edge20" class="edge">
<title>139510007569424&#45;&gt;139509195559440</title>
<path fill="none" stroke="white" d="M585.01,-1232C576.97,-1244.31 567.03,-1259.52 557.36,-1274.32"/>
<polygon fill="white" stroke="white" points="554.26,-1272.67 551.72,-1282.96 560.12,-1276.5 554.26,-1272.67"/>
<text text-anchor="middle" x="675.5" y="-1253.8" font-family="Times,serif" font-size="14.00" fill="white">490,817 row(s)/256 chunk(s)</text>
</g>
<!-- 139508842562448&#45;&gt;139510007569424 -->
<g id="edge21" class="edge">
<title>139508842562448&#45;&gt;139510007569424</title>
<path fill="none" stroke="white" d="M602,-1127.25C602,-1140.07 602,-1154.73 602,-1167.77"/>
<polygon fill="white" stroke="white" points="598.5,-1167.81 602,-1177.81 605.5,-1167.81 598.5,-1167.81"/>
<text text-anchor="middle" x="704.5" y="-1148.8" font-family="Times,serif" font-size="14.00" fill="white">490,817 row(s)/256 chunk(s)</text>
</g>
<!-- 139508842562128&#45;&gt;139508842562448 -->
<g id="edge22" class="edge">
<title>139508842562128&#45;&gt;139508842562448</title>
<path fill="none" stroke="white" stroke-width="2.01" d="M699.74,-1007.31C683.98,-1020.89 665.67,-1036.66 649.19,-1050.86"/>
<polygon fill="white" stroke="white" stroke-width="2.01" points="648.84,-1051.15 646.56,-1048.5 641.26,-1057.68 648.84,-1051.15"/>
<text text-anchor="middle" x="792" y="-1028.8" font-family="Times,serif" font-size="14.00" fill="white">26,418,433 row(s)/256 chunk(s)</text>
</g>
<!-- 139508842561488 -->
<g id="node21" class="node">
<title>139508842561488</title>
<g id="a_node21"><a xlink:title="Output: 45504356 rows in 4578 chunks, 24 ms 732 µs.&#10;Chunks: 0 skipped with no results, &#10;0 skipped with all matching, 0 scanned using binary search.">
<polygon fill="none" stroke="white" points="945,-887 533,-887 533,-788 945,-788 945,-887"/>
<text text-anchor="middle" x="739" y="-871.8" font-family="Times,serif" font-size="14.00" fill="white">TableScan</text>
<text text-anchor="middle" x="739" y="-856.8" font-family="Times,serif" font-size="14.00" fill="white">Impl: ColumnBetween</text>
<text text-anchor="middle" x="739" y="-841.8" font-family="Times,serif" font-size="14.00" fill="white">l_shipdate BETWEEN UPPER EXCLUSIVE &#39;1993&#45;01&#45;01&#39;</text>
<text text-anchor="middle" x="739" y="-826.8" font-family="Times,serif" font-size="14.00" fill="white">AND &#39;1994&#45;01&#45;01&#39;</text>
<text text-anchor="middle" x="739" y="-795.8" font-family="Times,serif" font-size="14.00" fill="white">24 ms 732 µs</text>
</a>
</g>
</g>
<!-- 139508842561488&#45;&gt;139508842562128 -->
<g id="edge23" class="edge">
<title>139508842561488&#45;&gt;139508842562128</title>
<path fill="none" stroke="white" stroke-width="3.35" d="M739,-887.27C739,-900.49 739,-914.72 739,-927.65"/>
<polygon fill="white" stroke="white" stroke-width="3.35" points="739,-927.7 735.5,-927.7 739,-937.7 739,-927.7"/>
<text text-anchor="middle" x="859.5" y="-908.8" font-family="Times,serif" font-size="14.00" fill="white">45,504,356 row(s)/4,578 chunk(s)</text>
</g>
<!-- 139672030911184 -->
<g id="node22" class="node">
<title>139672030911184</title>
<g id="a_node22"><a xlink:title="Output: 300005811 rows in 4578 chunks, 7 ms 593 µs.">
<polygon fill="none" stroke="white" points="804.5,-737 673.5,-737 673.5,-623 804.5,-623 804.5,-737"/>
<text text-anchor="middle" x="739" y="-721.8" font-family="Times,serif" font-size="14.00" fill="white">GetTable</text>
<text text-anchor="middle" x="739" y="-706.8" font-family="Times,serif" font-size="14.00" fill="white">(lineitem)</text>
<text text-anchor="middle" x="739" y="-691.8" font-family="Times,serif" font-size="14.00" fill="white">pruned:</text>
<text text-anchor="middle" x="739" y="-676.8" font-family="Times,serif" font-size="14.00" fill="white">0/4578 chunk(s)</text>
<text text-anchor="middle" x="739" y="-661.8" font-family="Times,serif" font-size="14.00" fill="white">12/16 column(s)</text>
<text text-anchor="middle" x="739" y="-630.8" font-family="Times,serif" font-size="14.00" fill="white">7 ms 593 µs</text>
</a>
</g>
</g>
<!-- 139672030911184&#45;&gt;139508842561488 -->
<g id="edge24" class="edge">
<title>139672030911184&#45;&gt;139508842561488</title>
<path fill="none" stroke="white" stroke-width="8" d="M739,-737.14C739,-750.38 739,-764.53 739,-777.88"/>
<polygon fill="white" stroke="white" stroke-width="8" points="732,-777.9 739,-787.9 746,-777.9 732,-777.9"/>
<text text-anchor="middle" x="864" y="-758.8" font-family="Times,serif" font-size="14.00" fill="white">300,005,811 row(s)/4,578 chunk(s)</text>
</g>
<!-- 139510007568912 -->
<g id="node23" class="node">
<title>139510007568912</title>
<g id="a_node23"><a xlink:title="Output: 1 row in 1 chunk, 3 µs 126 ns.">
<polygon fill="none" stroke="white" points="344.5,-2201 245.5,-2201 245.5,-2147 344.5,-2147 344.5,-2201"/>
<text text-anchor="middle" x="295" y="-2185.8" font-family="Times,serif" font-size="14.00" fill="white">Validate</text>
<text text-anchor="middle" x="295" y="-2154.8" font-family="Times,serif" font-size="14.00" fill="white">3 µs 126 ns</text>
</a>
</g>
</g>
<!-- 139510007568912&#45;&gt;139508842565328 -->
<g id="edge25" class="edge">
<title>139510007568912&#45;&gt;139508842565328</title>
<path fill="none" stroke="white" d="M298.24,-2201.28C300.52,-2212.12 304.4,-2224.37 311,-2234 313.56,-2237.74 316.49,-2241.31 319.66,-2244.71"/>
<polygon fill="white" stroke="white" points="326.94,-2251.84 322.25,-2242.34 319.8,-2244.84 326.94,-2251.84"/>
<text text-anchor="middle" x="380" y="-2222.8" font-family="Times,serif" font-size="14.00" fill="white">1 row(s)/1 chunk(s)</text>
</g>
<!-- 139508842565008&#45;&gt;139510007568912 -->
<g id="edge26" class="edge">
<title>139508842565008&#45;&gt;139510007568912</title>
<path fill="none" stroke="white" d="M271.67,-2057.24C275.78,-2077.96 281.16,-2105.02 286,-2129 286.53,-2131.63 287.08,-2134.35 287.64,-2137.09"/>
<polygon fill="white" stroke="white" points="284.22,-2137.85 289.65,-2146.95 291.08,-2136.45 284.22,-2137.85"/>
<text text-anchor="middle" x="355" y="-2098.3" font-family="Times,serif" font-size="14.00" fill="white">1 row(s)/1 chunk(s)</text>
</g>
<!-- 139508842564688 -->
<g id="node25" class="node">
<title>139508842564688</title>
<g id="a_node25"><a xlink:title="Output: 1 row in 1 chunk, 36 µs 418 ns.&#10;Chunks: 0 skipped with no results, &#10;0 skipped with all matching, 0 scanned using binary search.">
<polygon fill="none" stroke="white" points="208,-1937 0,-1937 0,-1853 208,-1853 208,-1937"/>
<text text-anchor="middle" x="104" y="-1921.8" font-family="Times,serif" font-size="14.00" fill="white">TableScan</text>
<text text-anchor="middle" x="104" y="-1906.8" font-family="Times,serif" font-size="14.00" fill="white">Impl: ColumnVsValue</text>
<text text-anchor="middle" x="104" y="-1891.8" font-family="Times,serif" font-size="14.00" fill="white">n_name = &#39;SAUDI ARABIA&#39;</text>
<text text-anchor="middle" x="104" y="-1860.8" font-family="Times,serif" font-size="14.00" fill="white">36 µs 418 ns</text>
</a>
</g>
</g>
<!-- 139508842564688&#45;&gt;139508842565008 -->
<g id="edge27" class="edge">
<title>139508842564688&#45;&gt;139508842565008</title>
<path fill="none" stroke="white" d="M104.28,-1937.35C106.23,-1949.02 110.24,-1960.98 118,-1970 121.69,-1974.29 125.76,-1978.23 130.13,-1981.83"/>
<polygon fill="white" stroke="white" points="130.3,-1981.96 128.19,-1984.75 138.28,-1987.98 130.3,-1981.96"/>
<text text-anchor="middle" x="187" y="-1958.8" font-family="Times,serif" font-size="14.00" fill="white">1 row(s)/1 chunk(s)</text>
</g>
<!-- 139672030911632 -->
<g id="node26" class="node">
<title>139672030911632</title>
<g id="a_node26"><a xlink:title="Output: 25 rows in 1 chunk, 22 µs 262 ns.">
<polygon fill="none" stroke="white" points="160.5,-1802 47.5,-1802 47.5,-1688 160.5,-1688 160.5,-1802"/>
<text text-anchor="middle" x="104" y="-1786.8" font-family="Times,serif" font-size="14.00" fill="white">GetTable</text>
<text text-anchor="middle" x="104" y="-1771.8" font-family="Times,serif" font-size="14.00" fill="white">(nation)</text>
<text text-anchor="middle" x="104" y="-1756.8" font-family="Times,serif" font-size="14.00" fill="white">pruned:</text>
<text text-anchor="middle" x="104" y="-1741.8" font-family="Times,serif" font-size="14.00" fill="white">0/1 chunk(s)</text>
<text text-anchor="middle" x="104" y="-1726.8" font-family="Times,serif" font-size="14.00" fill="white">2/4 column(s)</text>
<text text-anchor="middle" x="104" y="-1695.8" font-family="Times,serif" font-size="14.00" fill="white">22 µs 262 ns</text>
</a>
</g>
</g>
<!-- 139672030911632&#45;&gt;139508842564688 -->
<g id="edge28" class="edge">
<title>139672030911632&#45;&gt;139508842564688</title>
<path fill="none" stroke="white" d="M104,-1802.37C104,-1815.65 104,-1829.74 104,-1842.77"/>
<polygon fill="white" stroke="white" points="100.5,-1842.97 104,-1852.97 107.5,-1842.97 100.5,-1842.97"/>
<text text-anchor="middle" x="177.5" y="-1823.8" font-family="Times,serif" font-size="14.00" fill="white">25 row(s)/1 chunk(s)</text>
</g>
<!-- 0 -->
<g id="node27" class="node">
<title>0</title>
<polygon fill="none" stroke="white" points="578.5,-0.5 578.5,-151.5 929.5,-151.5 929.5,-0.5 578.5,-0.5"/>
<text text-anchor="middle" x="754" y="-136.3" font-family="Times,serif" font-size="14.00" fill="white">Total by operator</text>
<polyline fill="none" stroke="white" points="578.5,-128.5 929.5,-128.5 "/>
<text text-anchor="end" x="737.5" y="-113.3" font-family="Times,serif" font-size="14.00" fill="white">AggregateHash </text>
<text text-anchor="end" x="737.5" y="-98.3" font-family="Times,serif" font-size="14.00" fill="white"> JoinSimdSortMerge </text>
<text text-anchor="end" x="737.5" y="-83.3" font-family="Times,serif" font-size="14.00" fill="white"> TableScan </text>
<text text-anchor="end" x="737.5" y="-68.3" font-family="Times,serif" font-size="14.00" fill="white"> GetTable </text>
<text text-anchor="end" x="737.5" y="-53.3" font-family="Times,serif" font-size="14.00" fill="white"> Sort </text>
<text text-anchor="end" x="737.5" y="-38.3" font-family="Times,serif" font-size="14.00" fill="white"> Validate </text>
<text text-anchor="end" x="737.5" y="-23.3" font-family="Times,serif" font-size="14.00" fill="white"> Projection </text>
<text text-anchor="end" x="737.5" y="-8.3" font-family="Times,serif" font-size="14.00" fill="white">total</text>
<polyline fill="none" stroke="white" points="745.5,-0.5 745.5,-128.5 "/>
<text text-anchor="start" x="753.5" y="-113.3" font-family="Times,serif" font-size="14.00" fill="white">712 ms 378 µs </text>
<text text-anchor="start" x="753.5" y="-98.3" font-family="Times,serif" font-size="14.00" fill="white"> 577 ms 135 µs </text>
<text text-anchor="start" x="753.5" y="-83.3" font-family="Times,serif" font-size="14.00" fill="white"> 25 ms 742 µs </text>
<text text-anchor="start" x="753.5" y="-68.3" font-family="Times,serif" font-size="14.00" fill="white"> 9 ms 812 µs </text>
<text text-anchor="start" x="753.5" y="-53.3" font-family="Times,serif" font-size="14.00" fill="white"> 8 ms 288 µs </text>
<text text-anchor="start" x="753.5" y="-38.3" font-family="Times,serif" font-size="14.00" fill="white"> 7 ms 226 µs </text>
<text text-anchor="start" x="753.5" y="-23.3" font-family="Times,serif" font-size="14.00" fill="white"> 797 µs 876 ns </text>
<text text-anchor="start" x="753.5" y="-8.3" font-family="Times,serif" font-size="14.00" fill="white"> 1 s 341 ms </text>
<polyline fill="none" stroke="white" points="876.5,-0.5 876.5,-128.5 "/>
<text text-anchor="start" x="884.5" y="-113.3" font-family="Times,serif" font-size="14.00" fill="white">53 %</text>
<text text-anchor="start" x="884.5" y="-98.3" font-family="Times,serif" font-size="14.00" fill="white">43 %</text>
<text text-anchor="start" x="884.5" y="-83.3" font-family="Times,serif" font-size="14.00" fill="white">2 %</text>
<text text-anchor="start" x="884.5" y="-68.3" font-family="Times,serif" font-size="14.00" fill="white">1 %</text>
<text text-anchor="start" x="884.5" y="-53.3" font-family="Times,serif" font-size="14.00" fill="white">1 %</text>
<text text-anchor="start" x="884.5" y="-38.3" font-family="Times,serif" font-size="14.00" fill="white">1 %</text>
<text text-anchor="start" x="884.5" y="-23.3" font-family="Times,serif" font-size="14.00" fill="white">0 %</text>
<text text-anchor="start" x="884.5" y="-8.3" font-family="Times,serif" font-size="14.00" fill="white"> </text>
</g>
</g>
</svg>
