<?xml version="1.0" encoding="UTF-8" standalone="no"?>
<!DOCTYPE svg PUBLIC "-//W3C//DTD SVG 1.1//EN"
 "http://www.w3.org/Graphics/SVG/1.1/DTD/svg11.dtd">
<!-- Generated by graphviz version 2.43.0 (0)
 -->
<!-- Title: G Pages: 1 -->
<svg width="1170pt" height="2303pt"
 viewBox="0.00 0.00 1169.50 2303.00" xmlns="http://www.w3.org/2000/svg" xmlns:xlink="http://www.w3.org/1999/xlink">
<g id="graph0" class="graph" transform="scale(1 1) rotate(0) translate(4 2299)">
<title>G</title>
<polygon fill="black" stroke="transparent" points="-4,4 -4,-2299 1165.5,-2299 1165.5,4 -4,4"/>
<text text-anchor="middle" x="319.5" y="-2279.8" font-family="Times,serif" font-size="14.00" fill="white">For tooltips with advanced information, hover your mouse over vertices or edge labels.</text>
<!-- 139671906903056 -->
<g id="node1" class="node">
<title>139671906903056</title>
<g id="a_node1"><a xlink:title="Output: 100 rows in 1 chunk, 13 µs 976 ns.&#10;Operator step runtimes:&#10; ForwardUnmodifiedColumns 4 µs 849 ns&#10; EvaluateNewColumns 912 ns&#10; BuildOutput 5 µs 831 ns.">
<polygon fill="none" stroke="white" points="514.5,-2240 406.5,-2240 406.5,-2186 514.5,-2186 514.5,-2240"/>
<text text-anchor="middle" x="460.5" y="-2224.8" font-family="Times,serif" font-size="14.00" fill="white">Projection</text>
<text text-anchor="middle" x="460.5" y="-2193.8" font-family="Times,serif" font-size="14.00" fill="white">13 µs 976 ns</text>
</a>
</g>
</g>
<!-- 139671906581008 -->
<g id="node2" class="node">
<title>139671906581008</title>
<g id="a_node2"><a xlink:title="Output: 100 rows in 1 chunk, 19 µs 316 ns.">
<polygon fill="none" stroke="white" points="514.5,-2135 406.5,-2135 406.5,-2081 514.5,-2081 514.5,-2135"/>
<text text-anchor="middle" x="460.5" y="-2119.8" font-family="Times,serif" font-size="14.00" fill="white">Limit</text>
<text text-anchor="middle" x="460.5" y="-2088.8" font-family="Times,serif" font-size="14.00" fill="white">19 µs 316 ns</text>
</a>
</g>
</g>
<!-- 139671906581008&#45;&gt;139671906903056 -->
<g id="edge1" class="edge">
<title>139671906581008&#45;&gt;139671906903056</title>
<path fill="none" stroke="white" d="M460.5,-2135.26C460.5,-2147.49 460.5,-2162.24 460.5,-2175.52"/>
<polygon fill="white" stroke="white" points="457,-2175.79 460.5,-2185.79 464,-2175.79 457,-2175.79"/>
<text text-anchor="middle" x="538.5" y="-2156.8" font-family="Times,serif" font-size="14.00" fill="white">100 row(s)/1 chunk(s)</text>
</g>
<!-- 139671906902736 -->
<g id="node3" class="node">
<title>139671906902736</title>
<g id="a_node3"><a xlink:title="Output: 23525 rows in 1 chunk, 42 ms 835 µs.&#10;Operator step runtimes:&#10; MaterializeSortColumns 14 ms 708 µs&#10; Sort 25 ms 165 µs&#10; TemporaryResultWriting 141 µs 206 ns&#10; WriteOutput 2 ms 389 µs.">
<polygon fill="none" stroke="white" stroke-width="8" points="517,-2030 404,-2030 404,-1976 517,-1976 517,-2030"/>
<text text-anchor="middle" x="460.5" y="-2014.8" font-family="Times,serif" font-size="14.00" fill="white">Sort</text>
<text text-anchor="middle" x="460.5" y="-1983.8" font-family="Times,serif" font-size="14.00" fill="white">42 ms 835 µs</text>
</a>
</g>
</g>
<!-- 139671906902736&#45;&gt;139671906581008 -->
<g id="edge2" class="edge">
<title>139671906902736&#45;&gt;139671906581008</title>
<path fill="none" stroke="white" d="M460.5,-2030.26C460.5,-2042.49 460.5,-2057.24 460.5,-2070.52"/>
<polygon fill="white" stroke="white" points="457,-2070.79 460.5,-2080.79 464,-2070.79 457,-2070.79"/>
<text text-anchor="middle" x="549.5" y="-2051.8" font-family="Times,serif" font-size="14.00" fill="white">23,525 row(s)/1 chunk(s)</text>
</g>
<!-- 139671906902416 -->
<g id="node4" class="node">
<title>139671906902416</title>
<g id="a_node4"><a xlink:title="Output: 23525 rows in 25 chunks, 11 ms 659 µs.&#10;Operator step runtimes:&#10; LeftSideMaterialize 2 ms 650 µs&#10; RightSideMaterialize 529 µs 113 ns&#10; LeftSideTransform 0 ns&#10; RightSideTransform 0 ns&#10; LeftSidePartition 316 µs 324 ns&#10; RightSidePartition 267 µs 202 ns&#10; LeftSideSortBuckets 787 µs 919 ns&#10; RightSideSortBuckets 818 µs 667 ns&#10; GatherRowIds 1 µs 32 ns&#10; FindJoinPartner 5 ms 478 µs&#10; OutputWriting 584 µs 296 ns.">
<polygon fill="none" stroke="white" stroke-width="4.79" points="600,-1925 321,-1925 321,-1841 600,-1841 600,-1925"/>
<text text-anchor="middle" x="460.5" y="-1909.8" font-family="Times,serif" font-size="14.00" fill="white">JoinSimdSortMerge (Semi)</text>
<text text-anchor="middle" x="460.5" y="-1894.8" font-family="Times,serif" font-size="14.00" fill="white">ps_supplycost = MIN(ps_supplycost)</text>
<text text-anchor="middle" x="460.5" y="-1879.8" font-family="Times,serif" font-size="14.00" fill="white">AND p_partkey = ps_partkey</text>
<text text-anchor="middle" x="460.5" y="-1848.8" font-family="Times,serif" font-size="14.00" fill="white">11 ms 659 µs</text>
</a>
</g>
</g>
<!-- 139671906902416&#45;&gt;139671906902736 -->
<g id="edge3" class="edge">
<title>139671906902416&#45;&gt;139671906902736</title>
<path fill="none" stroke="white" d="M460.5,-1925.27C460.5,-1938.36 460.5,-1952.72 460.5,-1965.45"/>
<polygon fill="white" stroke="white" points="457,-1965.69 460.5,-1975.69 464,-1965.69 457,-1965.69"/>
<text text-anchor="middle" x="554" y="-1946.8" font-family="Times,serif" font-size="14.00" fill="white">23,525 row(s)/25 chunk(s)</text>
</g>
<!-- 139671906901456 -->
<g id="node5" class="node">
<title>139671906901456</title>
<g id="a_node5"><a xlink:title="Output: 31815 rows in 57 chunks, 15 ms 378 µs.&#10;Operator step runtimes:&#10; LeftSideMaterialize 3 ms 313 µs&#10; RightSideMaterialize 4 ms 943 µs&#10; LeftSideTransform 0 ns&#10; RightSideTransform 0 ns&#10; LeftSidePartition 1 ms 879 µs&#10; RightSidePartition 1 ms 279 µs&#10; LeftSideSortBuckets 764 µs 94 ns&#10; RightSideSortBuckets 819 µs 238 ns&#10; GatherRowIds 1 µs 463 ns&#10; FindJoinPartner 1 ms 80 µs&#10; OutputWriting 1 ms 48 µs.">
<polygon fill="none" stroke="white" stroke-width="5.47" points="425,-1790 214,-1790 214,-1721 425,-1721 425,-1790"/>
<text text-anchor="middle" x="319.5" y="-1774.8" font-family="Times,serif" font-size="14.00" fill="white">JoinSimdSortMerge (Inner)</text>
<text text-anchor="middle" x="319.5" y="-1759.8" font-family="Times,serif" font-size="14.00" fill="white">ps_partkey = p_partkey</text>
<text text-anchor="middle" x="319.5" y="-1728.8" font-family="Times,serif" font-size="14.00" fill="white">15 ms 378 µs</text>
</a>
</g>
</g>
<!-- 139671906901456&#45;&gt;139671906902416 -->
<g id="edge4" class="edge">
<title>139671906901456&#45;&gt;139671906902416</title>
<path fill="none" stroke="white" d="M348.09,-1790.18C357.94,-1801.08 369.31,-1812.95 380.5,-1823 384.78,-1826.84 389.29,-1830.68 393.92,-1834.46"/>
<polygon fill="white" stroke="white" points="393.97,-1834.5 391.78,-1837.23 401.78,-1840.74 393.97,-1834.5"/>
<text text-anchor="middle" x="474" y="-1811.8" font-family="Times,serif" font-size="14.00" fill="white">31,815 row(s)/57 chunk(s)</text>
</g>
<!-- 139671906901136 -->
<g id="node6" class="node">
<title>139671906901136</title>
<g id="a_node6"><a xlink:title="Output: 31815 rows in 57 chunks, 10 ms 111 µs.&#10;Operator step runtimes:&#10; LeftSideMaterialize 2 ms 978 µs&#10; RightSideMaterialize 613 µs 863 ns&#10; LeftSideTransform 0 ns&#10; RightSideTransform 0 ns&#10; LeftSidePartition 1 ms 263 µs&#10; RightSidePartition 1 ms 689 µs&#10; LeftSideSortBuckets 784 µs 993 ns&#10; RightSideSortBuckets 807 µs 686 ns&#10; GatherRowIds 2 µs 44 ns&#10; FindJoinPartner 1 ms 106 µs&#10; OutputWriting 659 µs 458 ns.">
<polygon fill="none" stroke="white" stroke-width="4.44" points="425,-1601 214,-1601 214,-1532 425,-1532 425,-1601"/>
<text text-anchor="middle" x="319.5" y="-1585.8" font-family="Times,serif" font-size="14.00" fill="white">JoinSimdSortMerge (Inner)</text>
<text text-anchor="middle" x="319.5" y="-1570.8" font-family="Times,serif" font-size="14.00" fill="white">ps_suppkey = s_suppkey</text>
<text text-anchor="middle" x="319.5" y="-1539.8" font-family="Times,serif" font-size="14.00" fill="white">10 ms 111 µs</text>
</a>
</g>
</g>
<!-- 139671906901136&#45;&gt;139671906901456 -->
<g id="edge5" class="edge">
<title>139671906901136&#45;&gt;139671906901456</title>
<path fill="none" stroke="white" d="M319.5,-1601.36C319.5,-1631.95 319.5,-1677.13 319.5,-1710.5"/>
<polygon fill="white" stroke="white" points="319.5,-1710.89 316,-1710.89 319.5,-1720.89 319.5,-1710.89"/>
<text text-anchor="middle" x="413" y="-1657.3" font-family="Times,serif" font-size="14.00" fill="white">31,815 row(s)/57 chunk(s)</text>
</g>
<!-- 139671906580240 -->
<g id="node7" class="node">
<title>139671906580240</title>
<g id="a_node7"><a xlink:title="Output: 31815 rows in 57 chunks, 611 µs 838 ns.">
<polygon fill="none" stroke="white" points="536,-1481 419,-1481 419,-1427 536,-1427 536,-1481"/>
<text text-anchor="middle" x="477.5" y="-1465.8" font-family="Times,serif" font-size="14.00" fill="white">Validate</text>
<text text-anchor="middle" x="477.5" y="-1434.8" font-family="Times,serif" font-size="14.00" fill="white">611 µs 838 ns</text>
</a>
</g>
</g>
<!-- 139671906580240&#45;&gt;139671906901136 -->
<g id="edge6" class="edge">
<title>139671906580240&#45;&gt;139671906901136</title>
<path fill="none" stroke="white" d="M440.06,-1481.19C420.88,-1494.6 397.14,-1511.2 375.81,-1526.12"/>
<polygon fill="white" stroke="white" points="375.66,-1526.22 373.65,-1523.36 367.46,-1531.95 375.66,-1526.22"/>
<text text-anchor="middle" x="506" y="-1502.8" font-family="Times,serif" font-size="14.00" fill="white">31,815 row(s)/57 chunk(s)</text>
</g>
<!-- 139671906900816 -->
<g id="node8" class="node">
<title>139671906900816</title>
<g id="a_node8"><a xlink:title="Output: 31815 rows in 57 chunks, 20 ms 279 µs.&#10;Operator step runtimes:&#10; LeftSideMaterialize 9 ms 543 µs&#10; RightSideMaterialize 1 ms 15 µs&#10; LeftSideTransform 0 ns&#10; RightSideTransform 0 ns&#10; LeftSidePartition 2 ms 167 µs&#10; RightSidePartition 2 ms 736 µs&#10; LeftSideSortBuckets 851 µs 839 ns&#10; RightSideSortBuckets 1 ms 230 µs&#10; GatherRowIds 2 µs 855 ns&#10; FindJoinPartner 1 ms 336 µs&#10; OutputWriting 1 ms 63 µs.">
<polygon fill="none" stroke="white" stroke-width="6.16" points="636,-1376 351,-1376 351,-1307 636,-1307 636,-1376"/>
<text text-anchor="middle" x="493.5" y="-1360.8" font-family="Times,serif" font-size="14.00" fill="white">JoinSimdSortMerge (Semi Reduction)</text>
<text text-anchor="middle" x="493.5" y="-1345.8" font-family="Times,serif" font-size="14.00" fill="white">ps_suppkey = s_suppkey</text>
<text text-anchor="middle" x="493.5" y="-1314.8" font-family="Times,serif" font-size="14.00" fill="white">20 ms 279 µs</text>
</a>
</g>
</g>
<!-- 139671906900816&#45;&gt;139671906580240 -->
<g id="edge7" class="edge">
<title>139671906900816&#45;&gt;139671906580240</title>
<path fill="none" stroke="white" d="M488.61,-1376.25C486.76,-1389.07 484.63,-1403.73 482.75,-1416.77"/>
<polygon fill="white" stroke="white" points="479.26,-1416.41 481.29,-1426.81 486.19,-1417.42 479.26,-1416.41"/>
<text text-anchor="middle" x="579" y="-1397.8" font-family="Times,serif" font-size="14.00" fill="white">31,815 row(s)/57 chunk(s)</text>
</g>
<!-- 139671906898576 -->
<g id="node9" class="node">
<title>139671906898576</title>
<g id="a_node9"><a xlink:title="Output: 159448 rows in 256 chunks, 29 ms 174 µs.&#10;Operator step runtimes:&#10; LeftSideMaterialize 12 ms 106 µs&#10; RightSideMaterialize 6 ms 544 µs&#10; LeftSideTransform 0 ns&#10; RightSideTransform 0 ns&#10; LeftSidePartition 1 ms 399 µs&#10; RightSidePartition 1 ms 784 µs&#10; LeftSideSortBuckets 2 ms 709 µs&#10; RightSideSortBuckets 896 µs 182 ns&#10; GatherRowIds 1 µs 944 ns&#10; FindJoinPartner 979 µs 489 ns&#10; OutputWriting 1 ms 152 µs.">
<polygon fill="none" stroke="white" stroke-width="7.05" points="725,-1256 440,-1256 440,-1187 725,-1187 725,-1256"/>
<text text-anchor="middle" x="582.5" y="-1240.8" font-family="Times,serif" font-size="14.00" fill="white">JoinSimdSortMerge (Semi Reduction)</text>
<text text-anchor="middle" x="582.5" y="-1225.8" font-family="Times,serif" font-size="14.00" fill="white">ps_partkey = p_partkey</text>
<text text-anchor="middle" x="582.5" y="-1194.8" font-family="Times,serif" font-size="14.00" fill="white">29 ms 174 µs</text>
</a>
</g>
</g>
<!-- 139671906898576&#45;&gt;139671906900816 -->
<g id="edge8" class="edge">
<title>139671906898576&#45;&gt;139671906900816</title>
<path fill="none" stroke="white" d="M545.04,-1256.05C539.53,-1261.77 534.15,-1267.86 529.5,-1274 523.91,-1281.38 518.67,-1289.74 514.01,-1297.98"/>
<polygon fill="white" stroke="white" points="513.98,-1298.04 510.91,-1296.36 509.2,-1306.82 513.98,-1298.04"/>
<text text-anchor="middle" x="632" y="-1277.8" font-family="Times,serif" font-size="14.00" fill="white">159,448 row(s)/256 chunk(s)</text>
</g>
<!-- 139671906902096 -->
<g id="node27" class="node">
<title>139671906902096</title>
<g id="a_node27"><a xlink:title="Output: 31815 rows in 57 chunks, 19 ms 835 µs.&#10;Operator step runtimes:&#10; LeftSideMaterialize 6 ms 58 µs&#10; RightSideMaterialize 927 µs 902 ns&#10; LeftSideTransform 0 ns&#10; RightSideTransform 0 ns&#10; LeftSidePartition 4 ms 665 µs&#10; RightSidePartition 3 ms 18 µs&#10; LeftSideSortBuckets 1 ms 217 µs&#10; RightSideSortBuckets 1 ms 342 µs&#10; GatherRowIds 3 µs 377 ns&#10; FindJoinPartner 1 ms 259 µs&#10; OutputWriting 980 µs 70 ns.">
<polygon fill="none" stroke="white" stroke-width="6.1" points="863,-1376 654,-1376 654,-1307 863,-1307 863,-1376"/>
<text text-anchor="middle" x="758.5" y="-1360.8" font-family="Times,serif" font-size="14.00" fill="white">JoinSimdSortMerge (Semi)</text>
<text text-anchor="middle" x="758.5" y="-1345.8" font-family="Times,serif" font-size="14.00" fill="white">ps_suppkey = s_suppkey</text>
<text text-anchor="middle" x="758.5" y="-1314.8" font-family="Times,serif" font-size="14.00" fill="white">19 ms 835 µs</text>
</a>
</g>
</g>
<!-- 139671906898576&#45;&gt;139671906902096 -->
<g id="edge9" class="edge">
<title>139671906898576&#45;&gt;139671906902096</title>
<path fill="none" stroke="white" d="M711.19,-1256.11C719.64,-1261.25 727.54,-1267.17 734.5,-1274 740.99,-1280.37 745.74,-1288.62 749.21,-1297.14"/>
<polygon fill="white" stroke="white" points="749.28,-1297.34 745.98,-1298.5 752.6,-1306.77 749.28,-1297.34"/>
<text text-anchor="middle" x="847" y="-1277.8" font-family="Times,serif" font-size="14.00" fill="white">159,448 row(s)/256 chunk(s)</text>
</g>
<!-- 139510266085392 -->
<g id="node10" class="node">
<title>139510266085392</title>
<g id="a_node10"><a xlink:title="Output: 40000000 rows in 611 chunks, 1 ms 387 µs.">
<polygon fill="none" stroke="white" points="643.5,-1097 521.5,-1097 521.5,-983 643.5,-983 643.5,-1097"/>
<text text-anchor="middle" x="582.5" y="-1081.8" font-family="Times,serif" font-size="14.00" fill="white">GetTable</text>
<text text-anchor="middle" x="582.5" y="-1066.8" font-family="Times,serif" font-size="14.00" fill="white">(partsupp)</text>
<text text-anchor="middle" x="582.5" y="-1051.8" font-family="Times,serif" font-size="14.00" fill="white">pruned:</text>
<text text-anchor="middle" x="582.5" y="-1036.8" font-family="Times,serif" font-size="14.00" fill="white">0/611 chunk(s)</text>
<text text-anchor="middle" x="582.5" y="-1021.8" font-family="Times,serif" font-size="14.00" fill="white">2/5 column(s)</text>
<text text-anchor="middle" x="582.5" y="-990.8" font-family="Times,serif" font-size="14.00" fill="white">1 ms 387 µs</text>
</a>
</g>
</g>
<!-- 139510266085392&#45;&gt;139671906898576 -->
<g id="edge10" class="edge">
<title>139510266085392&#45;&gt;139671906898576</title>
<path fill="none" stroke="white" stroke-width="8" d="M582.5,-1097.3C582.5,-1122.92 582.5,-1152.77 582.5,-1176.68"/>
<polygon fill="white" stroke="white" stroke-width="8" points="582.5,-1176.87 575.5,-1176.87 582.5,-1186.87 582.5,-1176.87"/>
<text text-anchor="middle" x="696.5" y="-1138.3" font-family="Times,serif" font-size="14.00" fill="white">40,000,000 row(s)/611 chunk(s)</text>
</g>
<!-- 139671906578704 -->
<g id="node11" class="node">
<title>139671906578704</title>
<g id="a_node11"><a xlink:title="Output: 39862 rows in 153 chunks, 274 µs 545 ns.">
<polygon fill="none" stroke="white" points="143,-1067 26,-1067 26,-1013 143,-1013 143,-1067"/>
<text text-anchor="middle" x="84.5" y="-1051.8" font-family="Times,serif" font-size="14.00" fill="white">Validate</text>
<text text-anchor="middle" x="84.5" y="-1020.8" font-family="Times,serif" font-size="14.00" fill="white">274 µs 545 ns</text>
</a>
</g>
</g>
<!-- 139671906578704&#45;&gt;139671906901456 -->
<g id="edge12" class="edge">
<title>139671906578704&#45;&gt;139671906901456</title>
<path fill="none" stroke="white" d="M80.23,-1067.08C74.91,-1101.94 66.5,-1165.69 66.5,-1220.5 66.5,-1220.5 66.5,-1220.5 66.5,-1567.5 66.5,-1641.58 137.51,-1689.65 204.28,-1718.48"/>
<polygon fill="white" stroke="white" points="213.67,-1722.42 205.81,-1715.32 204.45,-1718.55 213.67,-1722.42"/>
<text text-anchor="middle" x="164.5" y="-1397.8" font-family="Times,serif" font-size="14.00" fill="white">39,862 row(s)/153 chunk(s)</text>
</g>
<!-- 139671906578704&#45;&gt;139671906898576 -->
<g id="edge11" class="edge">
<title>139671906578704&#45;&gt;139671906898576</title>
<path fill="none" stroke="white" d="M89.32,-1067.25C96.38,-1097.43 112.68,-1145.77 147.5,-1169 172.06,-1185.38 371.01,-1183 429.67,-1187.24"/>
<polygon fill="white" stroke="white" points="439.94,-1188.26 430.34,-1183.79 429.99,-1187.27 439.94,-1188.26"/>
<text text-anchor="middle" x="245.5" y="-1138.3" font-family="Times,serif" font-size="14.00" fill="white">39,862 row(s)/153 chunk(s)</text>
</g>
<!-- 139671906898896 -->
<g id="node12" class="node">
<title>139671906898896</title>
<g id="a_node12"><a xlink:title="Output: 39862 rows in 153 chunks, 1 ms 73 µs.&#10;Chunks: 0 skipped with no results, &#10;0 skipped with all matching, 0 scanned using binary search.">
<polygon fill="none" stroke="white" points="162,-932 7,-932 7,-848 162,-848 162,-932"/>
<text text-anchor="middle" x="84.5" y="-916.8" font-family="Times,serif" font-size="14.00" fill="white">TableScan</text>
<text text-anchor="middle" x="84.5" y="-901.8" font-family="Times,serif" font-size="14.00" fill="white">Impl: ColumnLike</text>
<text text-anchor="middle" x="84.5" y="-886.8" font-family="Times,serif" font-size="14.00" fill="white">p_type LIKE &#39;%TIN&#39;</text>
<text text-anchor="middle" x="84.5" y="-855.8" font-family="Times,serif" font-size="14.00" fill="white">1 ms 73 µs</text>
</a>
</g>
</g>
<!-- 139671906898896&#45;&gt;139671906578704 -->
<g id="edge13" class="edge">
<title>139671906898896&#45;&gt;139671906578704</title>
<path fill="none" stroke="white" d="M84.5,-932.23C84.5,-954.32 84.5,-981.31 84.5,-1002.62"/>
<polygon fill="white" stroke="white" points="81,-1002.88 84.5,-1012.88 88,-1002.88 81,-1002.88"/>
<text text-anchor="middle" x="182.5" y="-953.8" font-family="Times,serif" font-size="14.00" fill="white">39,862 row(s)/153 chunk(s)</text>
</g>
<!-- 139671906897936 -->
<g id="node13" class="node">
<title>139671906897936</title>
<g id="a_node13"><a xlink:title="Output: 200082 rows in 153 chunks, 1 ms 314 µs.&#10;Chunks: 0 skipped with no results, &#10;0 skipped with all matching, 0 scanned using binary search.">
<polygon fill="none" stroke="white" points="169,-782 0,-782 0,-698 169,-698 169,-782"/>
<text text-anchor="middle" x="84.5" y="-766.8" font-family="Times,serif" font-size="14.00" fill="white">TableScan</text>
<text text-anchor="middle" x="84.5" y="-751.8" font-family="Times,serif" font-size="14.00" fill="white">Impl: ColumnVsValue</text>
<text text-anchor="middle" x="84.5" y="-736.8" font-family="Times,serif" font-size="14.00" fill="white">p_size = 1</text>
<text text-anchor="middle" x="84.5" y="-705.8" font-family="Times,serif" font-size="14.00" fill="white">1 ms 314 µs</text>
</a>
</g>
</g>
<!-- 139671906897936&#45;&gt;139671906898896 -->
<g id="edge14" class="edge">
<title>139671906897936&#45;&gt;139671906898896</title>
<path fill="none" stroke="white" d="M84.5,-782.23C84.5,-799.47 84.5,-819.68 84.5,-837.85"/>
<polygon fill="white" stroke="white" points="81,-837.99 84.5,-847.99 88,-837.99 81,-837.99"/>
<text text-anchor="middle" x="187" y="-818.8" font-family="Times,serif" font-size="14.00" fill="white">200,082 row(s)/153 chunk(s)</text>
</g>
<!-- 139510266085840 -->
<g id="node14" class="node">
<title>139510266085840</title>
<g id="a_node14"><a xlink:title="Output: 10000000 rows in 153 chunks, 470 µs 263 ns.">
<polygon fill="none" stroke="white" points="145.5,-632 23.5,-632 23.5,-518 145.5,-518 145.5,-632"/>
<text text-anchor="middle" x="84.5" y="-616.8" font-family="Times,serif" font-size="14.00" fill="white">GetTable</text>
<text text-anchor="middle" x="84.5" y="-601.8" font-family="Times,serif" font-size="14.00" fill="white">(part)</text>
<text text-anchor="middle" x="84.5" y="-586.8" font-family="Times,serif" font-size="14.00" fill="white">pruned:</text>
<text text-anchor="middle" x="84.5" y="-571.8" font-family="Times,serif" font-size="14.00" fill="white">0/153 chunk(s)</text>
<text text-anchor="middle" x="84.5" y="-556.8" font-family="Times,serif" font-size="14.00" fill="white">5/9 column(s)</text>
<text text-anchor="middle" x="84.5" y="-525.8" font-family="Times,serif" font-size="14.00" fill="white">470 µs 263 ns</text>
</a>
</g>
</g>
<!-- 139510266085840&#45;&gt;139671906897936 -->
<g id="edge15" class="edge">
<title>139510266085840&#45;&gt;139671906897936</title>
<path fill="none" stroke="white" stroke-width="4.58" d="M84.5,-632.1C84.5,-650.19 84.5,-670.13 84.5,-687.85"/>
<polygon fill="white" stroke="white" stroke-width="4.58" points="80.49,-687.99 84.5,-697.99 88.51,-687.99 80.49,-687.99"/>
<text text-anchor="middle" x="198.5" y="-653.8" font-family="Times,serif" font-size="14.00" fill="white">10,000,000 row(s)/153 chunk(s)</text>
</g>
<!-- 139671906900496 -->
<g id="node15" class="node">
<title>139671906900496</title>
<g id="a_node15"><a xlink:title="Output: 100090 rows in 5 chunks, 14 ms 373 µs.&#10;Operator step runtimes:&#10; LeftSideMaterialize 518 µs 513 ns&#10; RightSideMaterialize 30 µs 326 ns&#10; LeftSideTransform 0 ns&#10; RightSideTransform 0 ns&#10; LeftSidePartition 2 ms 19 µs&#10; RightSidePartition 33 µs 222 ns&#10; LeftSideSortBuckets 8 ms 946 µs&#10; RightSideSortBuckets 896 µs 633 ns&#10; GatherRowIds 9 µs 207 ns&#10; FindJoinPartner 1 ms 96 µs&#10; OutputWriting 669 µs 938 ns.">
<polygon fill="none" stroke="white" stroke-width="5.31" points="422,-1256 211,-1256 211,-1187 422,-1187 422,-1256"/>
<text text-anchor="middle" x="316.5" y="-1240.8" font-family="Times,serif" font-size="14.00" fill="white">JoinSimdSortMerge (Inner)</text>
<text text-anchor="middle" x="316.5" y="-1225.8" font-family="Times,serif" font-size="14.00" fill="white">s_nationkey = n_nationkey</text>
<text text-anchor="middle" x="316.5" y="-1194.8" font-family="Times,serif" font-size="14.00" fill="white">14 ms 373 µs</text>
</a>
</g>
</g>
<!-- 139671906900496&#45;&gt;139671906901136 -->
<g id="edge17" class="edge">
<title>139671906900496&#45;&gt;139671906901136</title>
<path fill="none" stroke="white" d="M307.82,-1256.1C299.2,-1293.37 287.9,-1355.33 292.5,-1409 295.79,-1447.38 303.53,-1490.48 309.88,-1521.72"/>
<polygon fill="white" stroke="white" points="311.97,-1531.83 313.38,-1521.33 309.95,-1522.04 311.97,-1531.83"/>
<text text-anchor="middle" x="386" y="-1397.8" font-family="Times,serif" font-size="14.00" fill="white">100,090 row(s)/5 chunk(s)</text>
</g>
<!-- 139671906900496&#45;&gt;139671906900816 -->
<g id="edge16" class="edge">
<title>139671906900496&#45;&gt;139671906900816</title>
<path fill="none" stroke="white" d="M315.7,-1256C317.07,-1267.65 320.58,-1280.03 328.5,-1289 332.8,-1293.87 337.56,-1298.29 342.66,-1302.29"/>
<polygon fill="white" stroke="white" points="350.94,-1308.24 344.86,-1299.57 342.82,-1302.41 350.94,-1308.24"/>
<text text-anchor="middle" x="422" y="-1277.8" font-family="Times,serif" font-size="14.00" fill="white">100,090 row(s)/5 chunk(s)</text>
</g>
<!-- 139671906579984 -->
<g id="node16" class="node">
<title>139671906579984</title>
<g id="a_node16"><a xlink:title="Output: 100090 rows in 5 chunks, 333 µs 215 ns.">
<polygon fill="none" stroke="white" points="483,-1067 366,-1067 366,-1013 483,-1013 483,-1067"/>
<text text-anchor="middle" x="424.5" y="-1051.8" font-family="Times,serif" font-size="14.00" fill="white">Validate</text>
<text text-anchor="middle" x="424.5" y="-1020.8" font-family="Times,serif" font-size="14.00" fill="white">333 µs 215 ns</text>
</a>
</g>
</g>
<!-- 139671906579984&#45;&gt;139671906900496 -->
<g id="edge18" class="edge">
<title>139671906579984&#45;&gt;139671906900496</title>
<path fill="none" stroke="white" d="M408.8,-1067.1C391.34,-1096.11 362.89,-1143.4 342.19,-1177.81"/>
<polygon fill="white" stroke="white" points="341.99,-1178.14 338.99,-1176.33 336.83,-1186.71 341.99,-1178.14"/>
<text text-anchor="middle" x="470" y="-1138.3" font-family="Times,serif" font-size="14.00" fill="white">100,090 row(s)/5 chunk(s)</text>
</g>
<!-- 139671906900176 -->
<g id="node17" class="node">
<title>139671906900176</title>
<g id="a_node17"><a xlink:title="Output: 100090 rows in 5 chunks, 6 ms 886 µs.&#10;Operator step runtimes:&#10; LeftSideMaterialize 389 µs 210 ns&#10; RightSideMaterialize 22 µs 472 ns&#10; LeftSideTransform 0 ns&#10; RightSideTransform 0 ns&#10; LeftSidePartition 846 µs 970 ns&#10; RightSidePartition 43 µs 742 ns&#10; LeftSideSortBuckets 1 ms 399 µs&#10; RightSideSortBuckets 1 ms 449 µs&#10; GatherRowIds 1 µs 22 ns&#10; FindJoinPartner 461 µs 557 ns&#10; OutputWriting 2 ms 155 µs.">
<polygon fill="none" stroke="white" stroke-width="3.49" points="630,-924.5 345,-924.5 345,-855.5 630,-855.5 630,-924.5"/>
<text text-anchor="middle" x="487.5" y="-909.3" font-family="Times,serif" font-size="14.00" fill="white">JoinSimdSortMerge (Semi Reduction)</text>
<text text-anchor="middle" x="487.5" y="-894.3" font-family="Times,serif" font-size="14.00" fill="white">s_nationkey = n_nationkey</text>
<text text-anchor="middle" x="487.5" y="-863.3" font-family="Times,serif" font-size="14.00" fill="white">6 ms 886 µs</text>
</a>
</g>
</g>
<!-- 139671906900176&#45;&gt;139671906579984 -->
<g id="edge19" class="edge">
<title>139671906900176&#45;&gt;139671906579984</title>
<path fill="none" stroke="white" d="M474.77,-924.69C469.84,-937.39 464.06,-951.92 458.5,-965 453.13,-977.63 446.94,-991.32 441.33,-1003.45"/>
<polygon fill="white" stroke="white" points="438.03,-1002.25 436.98,-1012.79 444.38,-1005.2 438.03,-1002.25"/>
<text text-anchor="middle" x="557" y="-953.8" font-family="Times,serif" font-size="14.00" fill="white">100,090 row(s)/5 chunk(s)</text>
</g>
<!-- 139510266086288 -->
<g id="node18" class="node">
<title>139510266086288</title>
<g id="a_node18"><a xlink:title="Output: 500000 rows in 8 chunks, 30 µs 347 ns.">
<polygon fill="none" stroke="white" points="764,-797 651,-797 651,-683 764,-683 764,-797"/>
<text text-anchor="middle" x="707.5" y="-781.8" font-family="Times,serif" font-size="14.00" fill="white">GetTable</text>
<text text-anchor="middle" x="707.5" y="-766.8" font-family="Times,serif" font-size="14.00" fill="white">(supplier)</text>
<text text-anchor="middle" x="707.5" y="-751.8" font-family="Times,serif" font-size="14.00" fill="white">pruned:</text>
<text text-anchor="middle" x="707.5" y="-736.8" font-family="Times,serif" font-size="14.00" fill="white">0/8 chunk(s)</text>
<text text-anchor="middle" x="707.5" y="-721.8" font-family="Times,serif" font-size="14.00" fill="white">0/7 column(s)</text>
<text text-anchor="middle" x="707.5" y="-690.8" font-family="Times,serif" font-size="14.00" fill="white">30 µs 347 ns</text>
</a>
</g>
</g>
<!-- 139510266086288&#45;&gt;139671906900176 -->
<g id="edge20" class="edge">
<title>139510266086288&#45;&gt;139671906900176</title>
<path fill="none" stroke="white" d="M650.97,-752.34C611.23,-762.81 559.02,-781.9 523.5,-815 514.35,-823.52 507.26,-834.86 501.87,-846.1"/>
<polygon fill="white" stroke="white" points="501.78,-846.3 498.58,-844.89 497.75,-855.45 501.78,-846.3"/>
<text text-anchor="middle" x="617" y="-818.8" font-family="Times,serif" font-size="14.00" fill="white">500,000 row(s)/8 chunk(s)</text>
</g>
<!-- 139671906901776 -->
<g id="node29" class="node">
<title>139671906901776</title>
<g id="a_node29"><a xlink:title="Output: 100090 rows in 5 chunks, 4 ms 810 µs.&#10;Operator step runtimes:&#10; LeftSideMaterialize 409 µs 589 ns&#10; RightSideMaterialize 17 µs 353 ns&#10; LeftSideTransform 0 ns&#10; RightSideTransform 0 ns&#10; LeftSidePartition 875 µs 614 ns&#10; RightSidePartition 46 µs 938 ns&#10; LeftSideSortBuckets 1 ms 479 µs&#10; RightSideSortBuckets 1 ms 449 µs&#10; GatherRowIds 842 ns&#10; FindJoinPartner 372 µs 750 ns&#10; OutputWriting 47 µs 449 ns.">
<polygon fill="none" stroke="white" stroke-width="2.61" points="998,-924.5 789,-924.5 789,-855.5 998,-855.5 998,-924.5"/>
<text text-anchor="middle" x="893.5" y="-909.3" font-family="Times,serif" font-size="14.00" fill="white">JoinSimdSortMerge (Semi)</text>
<text text-anchor="middle" x="893.5" y="-894.3" font-family="Times,serif" font-size="14.00" fill="white">s_nationkey = n_nationkey</text>
<text text-anchor="middle" x="893.5" y="-863.3" font-family="Times,serif" font-size="14.00" fill="white">4 ms 810 µs</text>
</a>
</g>
</g>
<!-- 139510266086288&#45;&gt;139671906901776 -->
<g id="edge21" class="edge">
<title>139510266086288&#45;&gt;139671906901776</title>
<path fill="none" stroke="white" d="M764.19,-753.68C799.67,-764.4 843.76,-783.24 871.5,-815 878.99,-823.58 883.94,-834.62 887.2,-845.54"/>
<polygon fill="white" stroke="white" points="887.26,-845.77 883.87,-846.64 889.74,-855.46 887.26,-845.77"/>
<text text-anchor="middle" x="974" y="-818.8" font-family="Times,serif" font-size="14.00" fill="white">500,000 row(s)/8 chunk(s)</text>
</g>
<!-- 139671906579216 -->
<g id="node19" class="node">
<title>139671906579216</title>
<g id="a_node19"><a xlink:title="Output: 5 rows in 1 chunk, 2 µs 224 ns.">
<polygon fill="none" stroke="white" points="411,-767 312,-767 312,-713 411,-713 411,-767"/>
<text text-anchor="middle" x="361.5" y="-751.8" font-family="Times,serif" font-size="14.00" fill="white">Validate</text>
<text text-anchor="middle" x="361.5" y="-720.8" font-family="Times,serif" font-size="14.00" fill="white">2 µs 224 ns</text>
</a>
</g>
</g>
<!-- 139671906579216&#45;&gt;139671906900496 -->
<g id="edge23" class="edge">
<title>139671906579216&#45;&gt;139671906900496</title>
<path fill="none" stroke="white" d="M355.07,-767.32C349.86,-788.95 342.43,-820.4 336.5,-848 326.8,-893.17 320.97,-904.02 316.5,-950 308.78,-1029.53 311.32,-1122.84 313.89,-1176.48"/>
<polygon fill="white" stroke="white" points="314.41,-1186.66 317.4,-1176.5 313.9,-1176.67 314.41,-1186.66"/>
<text text-anchor="middle" x="385.5" y="-953.8" font-family="Times,serif" font-size="14.00" fill="white">5 row(s)/1 chunk(s)</text>
</g>
<!-- 139671906579216&#45;&gt;139671906900176 -->
<g id="edge22" class="edge">
<title>139671906579216&#45;&gt;139671906900176</title>
<path fill="none" stroke="white" d="M354.87,-767.24C351.64,-786.17 350.65,-811.53 362.5,-830 367.16,-837.26 372.97,-843.64 379.52,-849.25"/>
<polygon fill="white" stroke="white" points="387.53,-855.49 381.79,-846.58 379.64,-849.34 387.53,-855.49"/>
<text text-anchor="middle" x="431.5" y="-818.8" font-family="Times,serif" font-size="14.00" fill="white">5 row(s)/1 chunk(s)</text>
</g>
<!-- 139671906579216&#45;&gt;139671906901776 -->
<g id="edge24" class="edge">
<title>139671906579216&#45;&gt;139671906901776</title>
<path fill="none" stroke="white" d="M411.32,-750.94C504.49,-769.62 696.94,-808.64 710.5,-815 720.24,-819.57 720.09,-824.78 729.5,-830 745.12,-838.67 762.27,-846.49 779.4,-853.37"/>
<polygon fill="white" stroke="white" points="788.91,-857.1 780.88,-850.19 779.6,-853.45 788.91,-857.1"/>
<text text-anchor="middle" x="798.5" y="-818.8" font-family="Times,serif" font-size="14.00" fill="white">5 row(s)/1 chunk(s)</text>
</g>
<!-- 139671906899856 -->
<g id="node20" class="node">
<title>139671906899856</title>
<g id="a_node20"><a xlink:title="Output: 5 rows in 1 chunk, 2 ms 802 µs.&#10;Operator step runtimes:&#10; LeftSideMaterialize 26 µs 881 ns&#10; RightSideMaterialize 33 µs 853 ns&#10; LeftSideTransform 0 ns&#10; RightSideTransform 0 ns&#10; LeftSidePartition 18 µs 244 ns&#10; RightSidePartition 15 µs 239 ns&#10; LeftSideSortBuckets 1 ms 331 µs&#10; RightSideSortBuckets 1 ms 290 µs&#10; GatherRowIds 1 µs 242 ns&#10; FindJoinPartner 3 µs 978 ns&#10; OutputWriting 14 µs 948 ns.">
<polygon fill="none" stroke="white" stroke-width="1.27" points="466,-609.5 257,-609.5 257,-540.5 466,-540.5 466,-609.5"/>
<text text-anchor="middle" x="361.5" y="-594.3" font-family="Times,serif" font-size="14.00" fill="white">JoinSimdSortMerge (Semi)</text>
<text text-anchor="middle" x="361.5" y="-579.3" font-family="Times,serif" font-size="14.00" fill="white">n_regionkey = r_regionkey</text>
<text text-anchor="middle" x="361.5" y="-548.3" font-family="Times,serif" font-size="14.00" fill="white">2 ms 802 µs</text>
</a>
</g>
</g>
<!-- 139671906899856&#45;&gt;139671906579216 -->
<g id="edge25" class="edge">
<title>139671906899856&#45;&gt;139671906579216</title>
<path fill="none" stroke="white" d="M361.5,-609.77C361.5,-636.89 361.5,-674.9 361.5,-702.68"/>
<polygon fill="white" stroke="white" points="358,-702.78 361.5,-712.78 365,-702.78 358,-702.78"/>
<text text-anchor="middle" x="430.5" y="-653.8" font-family="Times,serif" font-size="14.00" fill="white">5 row(s)/1 chunk(s)</text>
</g>
<!-- 139510266086736 -->
<g id="node21" class="node">
<title>139510266086736</title>
<g id="a_node21"><a xlink:title="Output: 25 rows in 1 chunk, 18 µs 905 ns.">
<polygon fill="none" stroke="white" points="333,-467 220,-467 220,-353 333,-353 333,-467"/>
<text text-anchor="middle" x="276.5" y="-451.8" font-family="Times,serif" font-size="14.00" fill="white">GetTable</text>
<text text-anchor="middle" x="276.5" y="-436.8" font-family="Times,serif" font-size="14.00" fill="white">(nation)</text>
<text text-anchor="middle" x="276.5" y="-421.8" font-family="Times,serif" font-size="14.00" fill="white">pruned:</text>
<text text-anchor="middle" x="276.5" y="-406.8" font-family="Times,serif" font-size="14.00" fill="white">0/1 chunk(s)</text>
<text text-anchor="middle" x="276.5" y="-391.8" font-family="Times,serif" font-size="14.00" fill="white">1/4 column(s)</text>
<text text-anchor="middle" x="276.5" y="-360.8" font-family="Times,serif" font-size="14.00" fill="white">18 µs 905 ns</text>
</a>
</g>
</g>
<!-- 139510266086736&#45;&gt;139671906899856 -->
<g id="edge26" class="edge">
<title>139510266086736&#45;&gt;139671906899856</title>
<path fill="none" stroke="white" d="M270.12,-467.17C270.75,-478.42 272.86,-489.89 277.5,-500 283.24,-512.51 292.23,-523.76 302.23,-533.49"/>
<polygon fill="white" stroke="white" points="302.29,-533.55 299.93,-536.13 309.66,-540.31 302.29,-533.55"/>
<text text-anchor="middle" x="351" y="-488.8" font-family="Times,serif" font-size="14.00" fill="white">25 row(s)/1 chunk(s)</text>
</g>
<!-- 139671906578960 -->
<g id="node22" class="node">
<title>139671906578960</title>
<g id="a_node22"><a xlink:title="Output: 1 row in 1 chunk, 7 µs 905 ns.">
<polygon fill="none" stroke="white" points="496,-437 397,-437 397,-383 496,-383 496,-437"/>
<text text-anchor="middle" x="446.5" y="-421.8" font-family="Times,serif" font-size="14.00" fill="white">Validate</text>
<text text-anchor="middle" x="446.5" y="-390.8" font-family="Times,serif" font-size="14.00" fill="white">7 µs 905 ns</text>
</a>
</g>
</g>
<!-- 139671906578960&#45;&gt;139671906899856 -->
<g id="edge27" class="edge">
<title>139671906578960&#45;&gt;139671906899856</title>
<path fill="none" stroke="white" d="M443.31,-437.05C440.29,-455.41 434.67,-480.17 424.5,-500 418.67,-511.37 410.77,-522.49 402.54,-532.52"/>
<polygon fill="white" stroke="white" points="395.91,-540.3 405.06,-534.96 402.39,-532.69 395.91,-540.3"/>
<text text-anchor="middle" x="499.5" y="-488.8" font-family="Times,serif" font-size="14.00" fill="white">1 row(s)/1 chunk(s)</text>
</g>
<!-- 139671906899536 -->
<g id="node23" class="node">
<title>139671906899536</title>
<g id="a_node23"><a xlink:title="Output: 1 row in 1 chunk, 28 µs 403 ns.&#10;Chunks: 0 skipped with no results, &#10;0 skipped with all matching, 0 scanned using binary search.">
<polygon fill="none" stroke="white" points="531,-302 362,-302 362,-218 531,-218 531,-302"/>
<text text-anchor="middle" x="446.5" y="-286.8" font-family="Times,serif" font-size="14.00" fill="white">TableScan</text>
<text text-anchor="middle" x="446.5" y="-271.8" font-family="Times,serif" font-size="14.00" fill="white">Impl: ColumnVsValue</text>
<text text-anchor="middle" x="446.5" y="-256.8" font-family="Times,serif" font-size="14.00" fill="white">r_name = &#39;ASIA&#39;</text>
<text text-anchor="middle" x="446.5" y="-225.8" font-family="Times,serif" font-size="14.00" fill="white">28 µs 403 ns</text>
</a>
</g>
</g>
<!-- 139671906899536&#45;&gt;139671906578960 -->
<g id="edge28" class="edge">
<title>139671906899536&#45;&gt;139671906578960</title>
<path fill="none" stroke="white" d="M446.5,-302.23C446.5,-324.32 446.5,-351.31 446.5,-372.62"/>
<polygon fill="white" stroke="white" points="443,-372.88 446.5,-382.88 450,-372.88 443,-372.88"/>
<text text-anchor="middle" x="515.5" y="-323.8" font-family="Times,serif" font-size="14.00" fill="white">1 row(s)/1 chunk(s)</text>
</g>
<!-- 139510266087184 -->
<g id="node24" class="node">
<title>139510266087184</title>
<g id="a_node24"><a xlink:title="Output: 5 rows in 1 chunk, 18 µs 464 ns.">
<polygon fill="none" stroke="white" points="503,-140.5 390,-140.5 390,-26.5 503,-26.5 503,-140.5"/>
<text text-anchor="middle" x="446.5" y="-125.3" font-family="Times,serif" font-size="14.00" fill="white">GetTable</text>
<text text-anchor="middle" x="446.5" y="-110.3" font-family="Times,serif" font-size="14.00" fill="white">(region)</text>
<text text-anchor="middle" x="446.5" y="-95.3" font-family="Times,serif" font-size="14.00" fill="white">pruned:</text>
<text text-anchor="middle" x="446.5" y="-80.3" font-family="Times,serif" font-size="14.00" fill="white">0/1 chunk(s)</text>
<text text-anchor="middle" x="446.5" y="-65.3" font-family="Times,serif" font-size="14.00" fill="white">1/3 column(s)</text>
<text text-anchor="middle" x="446.5" y="-34.3" font-family="Times,serif" font-size="14.00" fill="white">18 µs 464 ns</text>
</a>
</g>
</g>
<!-- 139510266087184&#45;&gt;139671906899536 -->
<g id="edge29" class="edge">
<title>139510266087184&#45;&gt;139671906899536</title>
<path fill="none" stroke="white" d="M446.5,-140.67C446.5,-162.25 446.5,-186.74 446.5,-207.83"/>
<polygon fill="white" stroke="white" points="443,-207.87 446.5,-217.87 450,-207.87 443,-207.87"/>
<text text-anchor="middle" x="515.5" y="-188.8" font-family="Times,serif" font-size="14.00" fill="white">5 row(s)/1 chunk(s)</text>
</g>
<!-- 139510138445840 -->
<g id="node25" class="node">
<title>139510138445840</title>
<g id="a_node25"><a xlink:title="Output: 23525 rows in 1 chunk, 36 ms 209 µs.&#10;Operator step runtimes:&#10; GroupByKeyPartitioning 18 ms 78 µs&#10; Aggregating 17 ms 766 µs&#10; GroupByColumnsWriting 245 µs 872 ns&#10; AggregateColumnsWriting 82 µs 294 ns&#10; OutputWriting 9 µs 127 ns.">
<polygon fill="none" stroke="white" stroke-width="7.59" points="707.5,-1703 527.5,-1703 527.5,-1619 707.5,-1619 707.5,-1703"/>
<text text-anchor="middle" x="617.5" y="-1687.8" font-family="Times,serif" font-size="14.00" fill="white">AggregateHash</text>
<text text-anchor="middle" x="617.5" y="-1672.8" font-family="Times,serif" font-size="14.00" fill="white">GroupBy {ps_partkey}</text>
<text text-anchor="middle" x="617.5" y="-1657.8" font-family="Times,serif" font-size="14.00" fill="white">MIN(ps_supplycost)</text>
<text text-anchor="middle" x="617.5" y="-1626.8" font-family="Times,serif" font-size="14.00" fill="white">36 ms 209 µs</text>
</a>
</g>
</g>
<!-- 139510138445840&#45;&gt;139671906902416 -->
<g id="edge30" class="edge">
<title>139510138445840&#45;&gt;139671906902416</title>
<path fill="none" stroke="white" d="M613.37,-1703.05C607.97,-1738.23 595.61,-1788.52 567.5,-1823 564.23,-1827.01 560.62,-1830.79 556.75,-1834.35"/>
<polygon fill="white" stroke="white" points="549.03,-1840.92 558.91,-1837.1 556.64,-1834.44 549.03,-1840.92"/>
<text text-anchor="middle" x="698.5" y="-1751.8" font-family="Times,serif" font-size="14.00" fill="white">23,525 row(s)/1 chunk(s)</text>
</g>
<!-- 139671906580752 -->
<g id="node26" class="node">
<title>139671906580752</title>
<g id="a_node26"><a xlink:title="Output: 31815 rows in 57 chunks, 503 µs 475 ns.">
<polygon fill="none" stroke="white" points="724,-1481 607,-1481 607,-1427 724,-1427 724,-1481"/>
<text text-anchor="middle" x="665.5" y="-1465.8" font-family="Times,serif" font-size="14.00" fill="white">Validate</text>
<text text-anchor="middle" x="665.5" y="-1434.8" font-family="Times,serif" font-size="14.00" fill="white">503 µs 475 ns</text>
</a>
</g>
</g>
<!-- 139671906580752&#45;&gt;139510138445840 -->
<g id="edge31" class="edge">
<title>139671906580752&#45;&gt;139510138445840</title>
<path fill="none" stroke="white" d="M659.32,-1481.38C651.81,-1513.48 638.95,-1568.4 629.47,-1608.89"/>
<polygon fill="white" stroke="white" points="626.01,-1608.31 627.14,-1618.85 632.82,-1609.91 626.01,-1608.31"/>
<text text-anchor="middle" x="748" y="-1502.8" font-family="Times,serif" font-size="14.00" fill="white">31,815 row(s)/57 chunk(s)</text>
</g>
<!-- 139671906902096&#45;&gt;139671906580752 -->
<g id="edge32" class="edge">
<title>139671906902096&#45;&gt;139671906580752</title>
<path fill="none" stroke="white" d="M730.09,-1376.25C718.66,-1389.84 705.5,-1405.47 694.05,-1419.07"/>
<polygon fill="white" stroke="white" points="691.3,-1416.91 687.54,-1426.81 696.66,-1421.42 691.3,-1416.91"/>
<text text-anchor="middle" x="808" y="-1397.8" font-family="Times,serif" font-size="14.00" fill="white">31,815 row(s)/57 chunk(s)</text>
</g>
<!-- 139671906580496 -->
<g id="node28" class="node">
<title>139671906580496</title>
<g id="a_node28"><a xlink:title="Output: 100090 rows in 5 chunks, 474 µs 331 ns.">
<polygon fill="none" stroke="white" points="1023,-1169 906,-1169 906,-1115 1023,-1115 1023,-1169"/>
<text text-anchor="middle" x="964.5" y="-1153.8" font-family="Times,serif" font-size="14.00" fill="white">Validate</text>
<text text-anchor="middle" x="964.5" y="-1122.8" font-family="Times,serif" font-size="14.00" fill="white">474 µs 331 ns</text>
</a>
</g>
</g>
<!-- 139671906580496&#45;&gt;139671906902096 -->
<g id="edge33" class="edge">
<title>139671906580496&#45;&gt;139671906902096</title>
<path fill="none" stroke="white" d="M970.81,-1169.27C976.84,-1201.35 981.38,-1255.49 953.5,-1289 942.11,-1302.69 909.01,-1313.63 873.23,-1321.84"/>
<polygon fill="white" stroke="white" points="863.08,-1324.09 873.6,-1325.34 872.85,-1321.93 863.08,-1324.09"/>
<text text-anchor="middle" x="1068" y="-1217.8" font-family="Times,serif" font-size="14.00" fill="white">100,090 row(s)/5 chunk(s)</text>
</g>
<!-- 139671906901776&#45;&gt;139671906580496 -->
<g id="edge34" class="edge">
<title>139671906901776&#45;&gt;139671906580496</title>
<path fill="none" stroke="white" d="M903.08,-924.72C916.43,-971.75 940.56,-1056.7 954.26,-1104.95"/>
<polygon fill="white" stroke="white" points="950.92,-1106 957.02,-1114.66 957.66,-1104.09 950.92,-1106"/>
<text text-anchor="middle" x="1007" y="-953.8" font-family="Times,serif" font-size="14.00" fill="white">100,090 row(s)/5 chunk(s)</text>
</g>
<!-- 0 -->
<g id="node30" class="node">
<title>0</title>
<polygon fill="none" stroke="white" points="521.5,-0.5 521.5,-166.5 867.5,-166.5 867.5,-0.5 521.5,-0.5"/>
<text text-anchor="middle" x="694.5" y="-151.3" font-family="Times,serif" font-size="14.00" fill="white">Total by operator</text>
<polyline fill="none" stroke="white" points="521.5,-143.5 867.5,-143.5 "/>
<text text-anchor="end" x="675.5" y="-128.3" font-family="Times,serif" font-size="14.00" fill="white">JoinSimdSortMerge </text>
<text text-anchor="end" x="675.5" y="-113.3" font-family="Times,serif" font-size="14.00" fill="white"> Sort </text>
<text text-anchor="end" x="675.5" y="-98.3" font-family="Times,serif" font-size="14.00" fill="white"> AggregateHash </text>
<text text-anchor="end" x="675.5" y="-83.3" font-family="Times,serif" font-size="14.00" fill="white"> TableScan </text>
<text text-anchor="end" x="675.5" y="-68.3" font-family="Times,serif" font-size="14.00" fill="white"> Validate </text>
<text text-anchor="end" x="675.5" y="-53.3" font-family="Times,serif" font-size="14.00" fill="white"> GetTable </text>
<text text-anchor="end" x="675.5" y="-38.3" font-family="Times,serif" font-size="14.00" fill="white"> Limit </text>
<text text-anchor="end" x="675.5" y="-23.3" font-family="Times,serif" font-size="14.00" fill="white"> Projection </text>
<text text-anchor="end" x="675.5" y="-8.3" font-family="Times,serif" font-size="14.00" fill="white">total</text>
<polyline fill="none" stroke="white" points="683.5,-0.5 683.5,-143.5 "/>
<text text-anchor="start" x="691.5" y="-128.3" font-family="Times,serif" font-size="14.00" fill="white">135 ms 306 µs </text>
<text text-anchor="start" x="691.5" y="-113.3" font-family="Times,serif" font-size="14.00" fill="white"> 42 ms 835 µs </text>
<text text-anchor="start" x="691.5" y="-98.3" font-family="Times,serif" font-size="14.00" fill="white"> 36 ms 209 µs </text>
<text text-anchor="start" x="691.5" y="-83.3" font-family="Times,serif" font-size="14.00" fill="white"> 2 ms 415 µs </text>
<text text-anchor="start" x="691.5" y="-68.3" font-family="Times,serif" font-size="14.00" fill="white"> 2 ms 208 µs </text>
<text text-anchor="start" x="691.5" y="-53.3" font-family="Times,serif" font-size="14.00" fill="white"> 1 ms 925 µs </text>
<text text-anchor="start" x="691.5" y="-38.3" font-family="Times,serif" font-size="14.00" fill="white"> 19 µs 316 ns </text>
<text text-anchor="start" x="691.5" y="-23.3" font-family="Times,serif" font-size="14.00" fill="white"> 13 µs 976 ns </text>
<text text-anchor="start" x="691.5" y="-8.3" font-family="Times,serif" font-size="14.00" fill="white"> 220 ms 931 µs </text>
<polyline fill="none" stroke="white" points="814.5,-0.5 814.5,-143.5 "/>
<text text-anchor="start" x="822.5" y="-128.3" font-family="Times,serif" font-size="14.00" fill="white">61 %</text>
<text text-anchor="start" x="822.5" y="-113.3" font-family="Times,serif" font-size="14.00" fill="white">19 %</text>
<text text-anchor="start" x="822.5" y="-98.3" font-family="Times,serif" font-size="14.00" fill="white">16 %</text>
<text text-anchor="start" x="822.5" y="-83.3" font-family="Times,serif" font-size="14.00" fill="white">1 %</text>
<text text-anchor="start" x="822.5" y="-68.3" font-family="Times,serif" font-size="14.00" fill="white">1 %</text>
<text text-anchor="start" x="822.5" y="-53.3" font-family="Times,serif" font-size="14.00" fill="white">1 %</text>
<text text-anchor="start" x="822.5" y="-38.3" font-family="Times,serif" font-size="14.00" fill="white">0 %</text>
<text text-anchor="start" x="822.5" y="-23.3" font-family="Times,serif" font-size="14.00" fill="white">0 %</text>
<text text-anchor="start" x="822.5" y="-8.3" font-family="Times,serif" font-size="14.00" fill="white"> </text>
</g>
</g>
</svg>
