<?xml version="1.0" encoding="UTF-8" standalone="no"?>
<!DOCTYPE svg PUBLIC "-//W3C//DTD SVG 1.1//EN"
 "http://www.w3.org/Graphics/SVG/1.1/DTD/svg11.dtd">
<!-- Generated by graphviz version 2.43.0 (0)
 -->
<!-- Title: G Pages: 1 -->
<svg width="835pt" height="1370pt"
 viewBox="0.00 0.00 835.00 1370.00" xmlns="http://www.w3.org/2000/svg" xmlns:xlink="http://www.w3.org/1999/xlink">
<g id="graph0" class="graph" transform="scale(1 1) rotate(0) translate(4 1366)">
<title>G</title>
<polygon fill="black" stroke="transparent" points="-4,4 -4,-1366 831,-1366 831,4 -4,4"/>
<text text-anchor="middle" x="319.5" y="-1346.8" font-family="Times,serif" font-size="14.00" fill="white">For tooltips with advanced information, hover your mouse over vertices or edge labels.</text>
<!-- 140502916663824 -->
<g id="node1" class="node">
<title>140502916663824</title>
<g id="a_node1"><a xlink:title="Output: 5 rows in 1 chunk filtered: 0, 6 µs 267 ns.">
<polygon fill="none" stroke="white" points="542,-1307 315,-1307 315,-1238 542,-1238 542,-1307"/>
<text text-anchor="middle" x="428.5" y="-1291.8" font-family="Times,serif" font-size="14.00" fill="white">Alias</text>
<text text-anchor="middle" x="428.5" y="-1276.8" font-family="Times,serif" font-size="14.00" fill="white">[o_orderpriority, order_count]</text>
<text text-anchor="middle" x="428.5" y="-1245.8" font-family="Times,serif" font-size="14.00" fill="white">6 µs 267 ns</text>
</a>
</g>
</g>
<!-- 140502916663504 -->
<g id="node2" class="node">
<title>140502916663504</title>
<g id="a_node2"><a xlink:title="Output: 5 rows in 1 chunk filtered: 0, 42 µs 131 ns.&#10;Operator step runtimes:&#10; MaterializeSortColumns 8 µs 815 ns&#10; Sort 8 µs 123 ns&#10; TemporaryResultWriting 373 ns&#10; WriteOutput 19 µs 408 ns.">
<polygon fill="none" stroke="white" points="482.5,-1187 374.5,-1187 374.5,-1133 482.5,-1133 482.5,-1187"/>
<text text-anchor="middle" x="428.5" y="-1171.8" font-family="Times,serif" font-size="14.00" fill="white">Sort</text>
<text text-anchor="middle" x="428.5" y="-1140.8" font-family="Times,serif" font-size="14.00" fill="white">42 µs 131 ns</text>
</a>
</g>
</g>
<!-- 140502916663504&#45;&gt;140502916663824 -->
<g id="edge1" class="edge">
<title>140502916663504&#45;&gt;140502916663824</title>
<path fill="none" stroke="white" d="M428.5,-1187.19C428.5,-1199.29 428.5,-1214 428.5,-1227.72"/>
<polygon fill="white" stroke="white" points="425,-1227.95 428.5,-1237.95 432,-1227.96 425,-1227.95"/>
<text text-anchor="middle" x="497.5" y="-1208.8" font-family="Times,serif" font-size="14.00" fill="white">5 row(s)/1 chunk(s)</text>
</g>
<!-- 140519558677008 -->
<g id="node3" class="node">
<title>140519558677008</title>
<g id="a_node3"><a xlink:title="Output: 5 rows in 1 chunk filtered: 0, 43 ms 902 µs.&#10;Operator step runtimes:&#10; GroupByKeyPartitioning 39 ms 91 µs&#10; Aggregating 4 ms 746 µs&#10; GroupByColumnsWriting 13 µs 841 ns&#10; AggregateColumnsWriting 22 µs 751 ns&#10; OutputWriting 11 µs 115 ns.">
<polygon fill="none" stroke="white" stroke-width="3.89" points="533.5,-1082 323.5,-1082 323.5,-998 533.5,-998 533.5,-1082"/>
<text text-anchor="middle" x="428.5" y="-1066.8" font-family="Times,serif" font-size="14.00" fill="white">AggregateHash</text>
<text text-anchor="middle" x="428.5" y="-1051.8" font-family="Times,serif" font-size="14.00" fill="white">GroupBy {o_orderpriority}</text>
<text text-anchor="middle" x="428.5" y="-1036.8" font-family="Times,serif" font-size="14.00" fill="white">COUNT(*)</text>
<text text-anchor="middle" x="428.5" y="-1005.8" font-family="Times,serif" font-size="14.00" fill="white">43 ms 902 µs</text>
</a>
</g>
</g>
<!-- 140519558677008&#45;&gt;140502916663504 -->
<g id="edge2" class="edge">
<title>140519558677008&#45;&gt;140502916663504</title>
<path fill="none" stroke="white" d="M428.5,-1082.27C428.5,-1095.36 428.5,-1109.72 428.5,-1122.45"/>
<polygon fill="white" stroke="white" points="425,-1122.69 428.5,-1132.69 432,-1122.69 425,-1122.69"/>
<text text-anchor="middle" x="497.5" y="-1103.8" font-family="Times,serif" font-size="14.00" fill="white">5 row(s)/1 chunk(s)</text>
</g>
<!-- 140502916663184 -->
<g id="node4" class="node">
<title>140502916663184</title>
<g id="a_node4"><a xlink:title="Output: 519650 rows in 8 chunks filtered: 0, 33 ms 964 µs.&#10;Operator step runtimes:&#10; BuildSideMaterializing 17 ms 807 µs&#10; ProbeSideMaterializing 3 ms 276 µs&#10; Clustering 2 ms 241 µs&#10; Building 6 ms 906 µs&#10; Probing 2 ms 753 µs&#10; OutputWriting 872 µs 441 ns.&#10;Radix bits: 4.&#10;Build side is right.">
<polygon fill="none" stroke="white" stroke-width="3.26" points="524,-947 333,-947 333,-878 524,-878 524,-947"/>
<text text-anchor="middle" x="428.5" y="-931.8" font-family="Times,serif" font-size="14.00" fill="white">JoinHash (Semi)</text>
<text text-anchor="middle" x="428.5" y="-916.8" font-family="Times,serif" font-size="14.00" fill="white">o_orderkey = l_orderkey</text>
<text text-anchor="middle" x="428.5" y="-885.8" font-family="Times,serif" font-size="14.00" fill="white">33 ms 964 µs</text>
</a>
</g>
</g>
<!-- 140502916663184&#45;&gt;140519558677008 -->
<g id="edge3" class="edge">
<title>140502916663184&#45;&gt;140519558677008</title>
<path fill="none" stroke="white" d="M428.5,-947.13C428.5,-959.51 428.5,-973.84 428.5,-987.44"/>
<polygon fill="white" stroke="white" points="425,-987.65 428.5,-997.65 432,-987.65 425,-987.65"/>
<text text-anchor="middle" x="522" y="-968.8" font-family="Times,serif" font-size="14.00" fill="white">519,650 row(s)/8 chunk(s)</text>
</g>
<!-- 140519558611472 -->
<g id="node5" class="node">
<title>140519558611472</title>
<g id="a_node5"><a xlink:title="Output: 566934 rows in 229 chunks filtered: 0, 385 µs 162 ns.">
<polygon fill="none" stroke="white" points="485,-437 368,-437 368,-383 485,-383 485,-437"/>
<text text-anchor="middle" x="426.5" y="-421.8" font-family="Times,serif" font-size="14.00" fill="white">Validate</text>
<text text-anchor="middle" x="426.5" y="-390.8" font-family="Times,serif" font-size="14.00" fill="white">385 µs 162 ns</text>
</a>
</g>
</g>
<!-- 140519558611472&#45;&gt;140502916663184 -->
<g id="edge4" class="edge">
<title>140519558611472&#45;&gt;140502916663184</title>
<path fill="none" stroke="white" d="M473.54,-437.3C491.44,-449.58 510.41,-465.75 522.5,-485 538.56,-510.58 536.5,-521.3 536.5,-551.5 536.5,-551.5 536.5,-551.5 536.5,-786 536.5,-819.47 542.17,-832.92 522.5,-860 519.64,-863.93 516.39,-867.6 512.85,-871.01"/>
<polygon fill="white" stroke="white" points="512.76,-871.09 510.46,-868.46 505.22,-877.67 512.76,-871.09"/>
<text text-anchor="middle" x="639" y="-661.3" font-family="Times,serif" font-size="14.00" fill="white">566,934 row(s)/229 chunk(s)</text>
</g>
<!-- 140502916661904 -->
<g id="node10" class="node">
<title>140502916661904</title>
<g id="a_node10"><a xlink:title="Output: 2265438 rows in 4 chunks filtered: 6599221, 232 ms 326 µs.&#10;Operator step runtimes:&#10; BuildSideMaterializing 3 ms 266 µs&#10; ProbeSideMaterializing 20 ms 540 µs&#10; Clustering 58 ms 942 µs&#10; Building 5 ms 392 µs&#10; Probing 143 ms 544 µs&#10; OutputWriting 58 µs 844 ns.&#10;Radix bits: 2.&#10;Build side is right.">
<polygon fill="none" stroke="white" stroke-width="8" points="420.5,-587 212.5,-587 212.5,-518 420.5,-518 420.5,-587"/>
<text text-anchor="middle" x="316.5" y="-571.8" font-family="Times,serif" font-size="14.00" fill="white">JoinHash (Semi Reduction)</text>
<text text-anchor="middle" x="316.5" y="-556.8" font-family="Times,serif" font-size="14.00" fill="white">l_orderkey = o_orderkey</text>
<text text-anchor="middle" x="316.5" y="-525.8" font-family="Times,serif" font-size="14.00" fill="white">232 ms 326 µs</text>
</a>
</g>
</g>
<!-- 140519558611472&#45;&gt;140502916661904 -->
<g id="edge5" class="edge">
<title>140519558611472&#45;&gt;140502916661904</title>
<path fill="none" stroke="white" d="M367.93,-436.66C348.32,-448.39 328.63,-464.37 317.5,-485 313.8,-491.85 311.98,-499.71 311.31,-507.57"/>
<polygon fill="white" stroke="white" points="311.02,-517.81 314.8,-507.92 311.3,-507.82 311.02,-517.81"/>
<text text-anchor="middle" x="420" y="-488.8" font-family="Times,serif" font-size="14.00" fill="white">566,934 row(s)/229 chunk(s)</text>
</g>
<!-- 140502916662224 -->
<g id="node6" class="node">
<title>140502916662224</title>
<g id="a_node6"><a xlink:title="Output: 566934 rows in 229 chunks filtered: 0, 1 ms 272 µs.&#10;Chunks: 0 skipped with no results, &#10;0 skipped with all matching, 0 scanned using binary search.">
<polygon fill="none" stroke="white" points="639,-302 214,-302 214,-203 639,-203 639,-302"/>
<text text-anchor="middle" x="426.5" y="-286.8" font-family="Times,serif" font-size="14.00" fill="white">TableScan</text>
<text text-anchor="middle" x="426.5" y="-271.8" font-family="Times,serif" font-size="14.00" fill="white">Impl: ColumnBetween</text>
<text text-anchor="middle" x="426.5" y="-256.8" font-family="Times,serif" font-size="14.00" fill="white">o_orderdate BETWEEN UPPER EXCLUSIVE &#39;1996&#45;04&#45;01&#39;</text>
<text text-anchor="middle" x="426.5" y="-241.8" font-family="Times,serif" font-size="14.00" fill="white">AND &#39;1996&#45;07&#45;01&#39;</text>
<text text-anchor="middle" x="426.5" y="-210.8" font-family="Times,serif" font-size="14.00" fill="white">1 ms 272 µs</text>
</a>
</g>
</g>
<!-- 140502916662224&#45;&gt;140519558611472 -->
<g id="edge6" class="edge">
<title>140502916662224&#45;&gt;140519558611472</title>
<path fill="none" stroke="white" d="M426.5,-302.27C426.5,-324.98 426.5,-351.53 426.5,-372.47"/>
<polygon fill="white" stroke="white" points="423,-372.56 426.5,-382.56 430,-372.56 423,-372.56"/>
<text text-anchor="middle" x="529" y="-323.8" font-family="Times,serif" font-size="14.00" fill="white">566,934 row(s)/229 chunk(s)</text>
</g>
<!-- 140502807019984 -->
<g id="node7" class="node">
<title>140502807019984</title>
<g id="a_node7"><a xlink:title="Output: 15000000 rows in 229 chunks filtered: 0, 436 µs 752 ns.">
<polygon fill="none" stroke="white" points="487.5,-133 365.5,-133 365.5,-19 487.5,-19 487.5,-133"/>
<text text-anchor="middle" x="426.5" y="-117.8" font-family="Times,serif" font-size="14.00" fill="white">GetTable</text>
<text text-anchor="middle" x="426.5" y="-102.8" font-family="Times,serif" font-size="14.00" fill="white">(orders)</text>
<text text-anchor="middle" x="426.5" y="-87.8" font-family="Times,serif" font-size="14.00" fill="white">pruned:</text>
<text text-anchor="middle" x="426.5" y="-72.8" font-family="Times,serif" font-size="14.00" fill="white">0/229 chunk(s)</text>
<text text-anchor="middle" x="426.5" y="-57.8" font-family="Times,serif" font-size="14.00" fill="white">6/9 column(s)</text>
<text text-anchor="middle" x="426.5" y="-26.8" font-family="Times,serif" font-size="14.00" fill="white">436 µs 752 ns</text>
</a>
</g>
</g>
<!-- 140502807019984&#45;&gt;140502916662224 -->
<g id="edge7" class="edge">
<title>140502807019984&#45;&gt;140502916662224</title>
<path fill="none" stroke="white" stroke-width="4.58" d="M426.5,-133.17C426.5,-152.18 426.5,-173.44 426.5,-192.64"/>
<polygon fill="white" stroke="white" stroke-width="4.58" points="422.49,-192.77 426.5,-202.77 430.51,-192.77 422.49,-192.77"/>
<text text-anchor="middle" x="540.5" y="-173.8" font-family="Times,serif" font-size="14.00" fill="white">15,000,000 row(s)/229 chunk(s)</text>
</g>
<!-- 140502916662864 -->
<g id="node8" class="node">
<title>140502916662864</title>
<g id="a_node8"><a xlink:title="Output: 1433710 rows in 4 chunks filtered: 0, 76 ms 880 µs.&#10;Chunks: 0 skipped with no results, &#10;0 skipped with all matching, 0 scanned using binary search.">
<polygon fill="none" stroke="white" stroke-width="5.27" points="434,-827 207,-827 207,-743 434,-743 434,-827"/>
<text text-anchor="middle" x="320.5" y="-811.8" font-family="Times,serif" font-size="14.00" fill="white">TableScan</text>
<text text-anchor="middle" x="320.5" y="-796.8" font-family="Times,serif" font-size="14.00" fill="white">Impl: ColumnVsColumn</text>
<text text-anchor="middle" x="320.5" y="-781.8" font-family="Times,serif" font-size="14.00" fill="white">l_commitdate &lt; l_receiptdate</text>
<text text-anchor="middle" x="320.5" y="-750.8" font-family="Times,serif" font-size="14.00" fill="white">76 ms 880 µs</text>
</a>
</g>
</g>
<!-- 140502916662864&#45;&gt;140502916663184 -->
<g id="edge8" class="edge">
<title>140502916662864&#45;&gt;140502916663184</title>
<path fill="none" stroke="white" d="M313.37,-827.08C313.36,-838.48 315.35,-850.36 321.5,-860 324,-863.92 326.89,-867.55 330.08,-870.9"/>
<polygon fill="white" stroke="white" points="337.51,-877.83 332.59,-868.45 330.2,-871.01 337.51,-877.83"/>
<text text-anchor="middle" x="422" y="-848.8" font-family="Times,serif" font-size="14.00" fill="white">1,433,710 row(s)/4 chunk(s)</text>
</g>
<!-- 140519558612496 -->
<g id="node9" class="node">
<title>140519558612496</title>
<g id="a_node9"><a xlink:title="Output: 2265438 rows in 4 chunks filtered: 0, 1 ms 906 µs.">
<polygon fill="none" stroke="white" points="372.5,-692 268.5,-692 268.5,-638 372.5,-638 372.5,-692"/>
<text text-anchor="middle" x="320.5" y="-676.8" font-family="Times,serif" font-size="14.00" fill="white">Validate</text>
<text text-anchor="middle" x="320.5" y="-645.8" font-family="Times,serif" font-size="14.00" fill="white">1 ms 906 µs</text>
</a>
</g>
</g>
<!-- 140519558612496&#45;&gt;140502916662864 -->
<g id="edge9" class="edge">
<title>140519558612496&#45;&gt;140502916662864</title>
<path fill="none" stroke="white" d="M320.5,-692.19C320.5,-704.1 320.5,-718.63 320.5,-732.58"/>
<polygon fill="white" stroke="white" points="317,-732.59 320.5,-742.59 324,-732.59 317,-732.59"/>
<text text-anchor="middle" x="421" y="-713.8" font-family="Times,serif" font-size="14.00" fill="white">2,265,438 row(s)/4 chunk(s)</text>
</g>
<!-- 140502916661904&#45;&gt;140519558612496 -->
<g id="edge10" class="edge">
<title>140502916661904&#45;&gt;140519558612496</title>
<path fill="none" stroke="white" d="M317.72,-587.25C318.19,-600.07 318.72,-614.73 319.19,-627.77"/>
<polygon fill="white" stroke="white" points="315.69,-627.95 319.55,-637.81 322.69,-627.69 315.69,-627.95"/>
<text text-anchor="middle" x="419" y="-608.8" font-family="Times,serif" font-size="14.00" fill="white">2,265,438 row(s)/4 chunk(s)</text>
</g>
<!-- 140502807020432 -->
<g id="node11" class="node">
<title>140502807020432</title>
<g id="a_node11"><a xlink:title="Output: 59986052 rows in 916 chunks filtered: 0, 1 ms 674 µs.">
<polygon fill="none" stroke="white" points="131,-467 0,-467 0,-353 131,-353 131,-467"/>
<text text-anchor="middle" x="65.5" y="-451.8" font-family="Times,serif" font-size="14.00" fill="white">GetTable</text>
<text text-anchor="middle" x="65.5" y="-436.8" font-family="Times,serif" font-size="14.00" fill="white">(lineitem)</text>
<text text-anchor="middle" x="65.5" y="-421.8" font-family="Times,serif" font-size="14.00" fill="white">pruned:</text>
<text text-anchor="middle" x="65.5" y="-406.8" font-family="Times,serif" font-size="14.00" fill="white">0/916 chunk(s)</text>
<text text-anchor="middle" x="65.5" y="-391.8" font-family="Times,serif" font-size="14.00" fill="white">13/16 column(s)</text>
<text text-anchor="middle" x="65.5" y="-360.8" font-family="Times,serif" font-size="14.00" fill="white">1 ms 674 µs</text>
</a>
</g>
</g>
<!-- 140502807020432&#45;&gt;140502916661904 -->
<g id="edge11" class="edge">
<title>140502807020432&#45;&gt;140502916661904</title>
<path fill="none" stroke="white" stroke-width="8" d="M64.94,-467.42C67.38,-479.44 72.07,-491.15 80.5,-500 97.9,-518.25 151.02,-530.72 202.47,-538.81"/>
<polygon fill="white" stroke="white" stroke-width="8" points="202.5,-538.81 201.45,-545.73 212.39,-540.32 202.5,-538.81"/>
<text text-anchor="middle" x="194.5" y="-488.8" font-family="Times,serif" font-size="14.00" fill="white">59,986,052 row(s)/916 chunk(s)</text>
</g>
<!-- 0 -->
<g id="node12" class="node">
<title>0</title>
<polygon fill="none" stroke="white" points="506,-0.5 506,-151.5 827,-151.5 827,-0.5 506,-0.5"/>
<text text-anchor="middle" x="666.5" y="-136.3" font-family="Times,serif" font-size="14.00" fill="white">Total by operator</text>
<polyline fill="none" stroke="white" points="506,-128.5 827,-128.5 "/>
<text text-anchor="end" x="635" y="-113.3" font-family="Times,serif" font-size="14.00" fill="white">JoinHash </text>
<text text-anchor="end" x="635" y="-98.3" font-family="Times,serif" font-size="14.00" fill="white"> TableScan </text>
<text text-anchor="end" x="635" y="-83.3" font-family="Times,serif" font-size="14.00" fill="white"> AggregateHash </text>
<text text-anchor="end" x="635" y="-68.3" font-family="Times,serif" font-size="14.00" fill="white"> Validate </text>
<text text-anchor="end" x="635" y="-53.3" font-family="Times,serif" font-size="14.00" fill="white"> GetTable </text>
<text text-anchor="end" x="635" y="-38.3" font-family="Times,serif" font-size="14.00" fill="white"> Sort </text>
<text text-anchor="end" x="635" y="-23.3" font-family="Times,serif" font-size="14.00" fill="white"> Alias </text>
<text text-anchor="end" x="635" y="-8.3" font-family="Times,serif" font-size="14.00" fill="white">total</text>
<polyline fill="none" stroke="white" points="643,-0.5 643,-128.5 "/>
<text text-anchor="start" x="651" y="-113.3" font-family="Times,serif" font-size="14.00" fill="white">266 ms 290 µs </text>
<text text-anchor="start" x="651" y="-98.3" font-family="Times,serif" font-size="14.00" fill="white"> 78 ms 152 µs </text>
<text text-anchor="start" x="651" y="-83.3" font-family="Times,serif" font-size="14.00" fill="white"> 43 ms 902 µs </text>
<text text-anchor="start" x="651" y="-68.3" font-family="Times,serif" font-size="14.00" fill="white"> 2 ms 291 µs </text>
<text text-anchor="start" x="651" y="-53.3" font-family="Times,serif" font-size="14.00" fill="white"> 2 ms 111 µs </text>
<text text-anchor="start" x="651" y="-38.3" font-family="Times,serif" font-size="14.00" fill="white"> 42 µs 131 ns </text>
<text text-anchor="start" x="651" y="-23.3" font-family="Times,serif" font-size="14.00" fill="white"> 6 µs 267 ns </text>
<text text-anchor="start" x="651" y="-8.3" font-family="Times,serif" font-size="14.00" fill="white"> 392 ms 793 µs </text>
<polyline fill="none" stroke="white" points="774,-0.5 774,-128.5 "/>
<text text-anchor="start" x="782" y="-113.3" font-family="Times,serif" font-size="14.00" fill="white">68 %</text>
<text text-anchor="start" x="782" y="-98.3" font-family="Times,serif" font-size="14.00" fill="white">20 %</text>
<text text-anchor="start" x="782" y="-83.3" font-family="Times,serif" font-size="14.00" fill="white">11 %</text>
<text text-anchor="start" x="782" y="-68.3" font-family="Times,serif" font-size="14.00" fill="white">1 %</text>
<text text-anchor="start" x="782" y="-53.3" font-family="Times,serif" font-size="14.00" fill="white">1 %</text>
<text text-anchor="start" x="782" y="-38.3" font-family="Times,serif" font-size="14.00" fill="white">0 %</text>
<text text-anchor="start" x="782" y="-23.3" font-family="Times,serif" font-size="14.00" fill="white">0 %</text>
<text text-anchor="start" x="782" y="-8.3" font-family="Times,serif" font-size="14.00" fill="white"> </text>
</g>
</g>
</svg>
