<?xml version="1.0" encoding="UTF-8" standalone="no"?>
<!DOCTYPE svg PUBLIC "-//W3C//DTD SVG 1.1//EN"
 "http://www.w3.org/Graphics/SVG/1.1/DTD/svg11.dtd">
<!-- Generated by graphviz version 2.43.0 (0)
 -->
<!-- Title: G Pages: 1 -->
<svg width="706pt" height="1220pt"
 viewBox="0.00 0.00 705.50 1220.00" xmlns="http://www.w3.org/2000/svg" xmlns:xlink="http://www.w3.org/1999/xlink">
<g id="graph0" class="graph" transform="scale(1 1) rotate(0) translate(4 1216)">
<title>G</title>
<polygon fill="black" stroke="transparent" points="-4,4 -4,-1216 701.5,-1216 701.5,4 -4,4"/>
<text text-anchor="middle" x="319.5" y="-1196.8" font-family="Times,serif" font-size="14.00" fill="white">For tooltips with advanced information, hover your mouse over vertices or edge labels.</text>
<!-- 140502529715152 -->
<g id="node1" class="node">
<title>140502529715152</title>
<g id="a_node1"><a xlink:title="Output: 46 rows in 1 chunk filtered: 0, 9 µs 377 ns.">
<polygon fill="none" stroke="white" points="246,-1157 99,-1157 99,-1088 246,-1088 246,-1157"/>
<text text-anchor="middle" x="172.5" y="-1141.8" font-family="Times,serif" font-size="14.00" fill="white">Alias</text>
<text text-anchor="middle" x="172.5" y="-1126.8" font-family="Times,serif" font-size="14.00" fill="white">[c_count, custdist]</text>
<text text-anchor="middle" x="172.5" y="-1095.8" font-family="Times,serif" font-size="14.00" fill="white">9 µs 377 ns</text>
</a>
</g>
</g>
<!-- 140502686703440 -->
<g id="node2" class="node">
<title>140502686703440</title>
<g id="a_node2"><a xlink:title="Output: 46 rows in 1 chunk filtered: 0, 48 µs 967 ns.&#10;Operator step runtimes:&#10; MaterializeSortColumns 19 µs 557 ns&#10; Sort 8 µs 455 ns&#10; TemporaryResultWriting 343 ns&#10; WriteOutput 15 µs 756 ns.">
<polygon fill="none" stroke="white" points="226.5,-1037 118.5,-1037 118.5,-983 226.5,-983 226.5,-1037"/>
<text text-anchor="middle" x="172.5" y="-1021.8" font-family="Times,serif" font-size="14.00" fill="white">Sort</text>
<text text-anchor="middle" x="172.5" y="-990.8" font-family="Times,serif" font-size="14.00" fill="white">48 µs 967 ns</text>
</a>
</g>
</g>
<!-- 140502686703440&#45;&gt;140502529715152 -->
<g id="edge1" class="edge">
<title>140502686703440&#45;&gt;140502529715152</title>
<path fill="none" stroke="white" d="M172.5,-1037.19C172.5,-1049.29 172.5,-1064 172.5,-1077.72"/>
<polygon fill="white" stroke="white" points="169,-1077.95 172.5,-1087.95 176,-1077.96 169,-1077.95"/>
<text text-anchor="middle" x="246" y="-1058.8" font-family="Times,serif" font-size="14.00" fill="white">46 row(s)/1 chunk(s)</text>
</g>
<!-- 140519125549584 -->
<g id="node3" class="node">
<title>140519125549584</title>
<g id="a_node3"><a xlink:title="Output: 46 rows in 1 chunk filtered: 0, 27 ms 661 µs.&#10;Operator step runtimes:&#10; GroupByKeyPartitioning 14 ms 104 µs&#10; Aggregating 13 ms 473 µs&#10; GroupByColumnsWriting 21 µs 622 ns&#10; AggregateColumnsWriting 21 µs 557 ns&#10; OutputWriting 15 µs 676 ns.">
<polygon fill="none" stroke="white" points="295.5,-932 49.5,-932 49.5,-848 295.5,-848 295.5,-932"/>
<text text-anchor="middle" x="172.5" y="-916.8" font-family="Times,serif" font-size="14.00" fill="white">AggregateHash</text>
<text text-anchor="middle" x="172.5" y="-901.8" font-family="Times,serif" font-size="14.00" fill="white">GroupBy {COUNT(o_orderkey)}</text>
<text text-anchor="middle" x="172.5" y="-886.8" font-family="Times,serif" font-size="14.00" fill="white">COUNT(*)</text>
<text text-anchor="middle" x="172.5" y="-855.8" font-family="Times,serif" font-size="14.00" fill="white">27 ms 661 µs</text>
</a>
</g>
</g>
<!-- 140519125549584&#45;&gt;140502686703440 -->
<g id="edge2" class="edge">
<title>140519125549584&#45;&gt;140502686703440</title>
<path fill="none" stroke="white" d="M172.5,-932.27C172.5,-945.36 172.5,-959.72 172.5,-972.45"/>
<polygon fill="white" stroke="white" points="169,-972.69 172.5,-982.69 176,-972.69 169,-972.69"/>
<text text-anchor="middle" x="246" y="-953.8" font-family="Times,serif" font-size="14.00" fill="white">46 row(s)/1 chunk(s)</text>
</g>
<!-- 140502529813072 -->
<g id="node4" class="node">
<title>140502529813072</title>
<g id="a_node4"><a xlink:title="Output: 1500000 rows in 23 chunks filtered: 0, 20 µs 590 ns.">
<polygon fill="none" stroke="white" points="251,-797 94,-797 94,-728 251,-728 251,-797"/>
<text text-anchor="middle" x="172.5" y="-781.8" font-family="Times,serif" font-size="14.00" fill="white">Alias</text>
<text text-anchor="middle" x="172.5" y="-766.8" font-family="Times,serif" font-size="14.00" fill="white">[c_custkey, c_count]</text>
<text text-anchor="middle" x="172.5" y="-735.8" font-family="Times,serif" font-size="14.00" fill="white">20 µs 590 ns</text>
</a>
</g>
</g>
<!-- 140502529813072&#45;&gt;140519125549584 -->
<g id="edge3" class="edge">
<title>140502529813072&#45;&gt;140519125549584</title>
<path fill="none" stroke="white" stroke-width="2.27" d="M172.5,-797.13C172.5,-809.51 172.5,-823.84 172.5,-837.44"/>
<polygon fill="white" stroke="white" stroke-width="2.27" points="169,-837.65 172.5,-847.65 176,-837.65 169,-837.65"/>
<text text-anchor="middle" x="277.5" y="-818.8" font-family="Times,serif" font-size="14.00" fill="white">1,500,000 row(s)/23 chunk(s)</text>
</g>
<!-- 140519125549072 -->
<g id="node5" class="node">
<title>140519125549072</title>
<g id="a_node5"><a xlink:title="Output: 1500000 rows in 23 chunks filtered: 0, 1 s 632 ms.&#10;Operator step runtimes:&#10; GroupByKeyPartitioning 134 ms 137 µs&#10; Aggregating 1 s 489 ms&#10; GroupByColumnsWriting 6 ms 319 µs&#10; AggregateColumnsWriting 2 ms 347 µs&#10; OutputWriting 50 µs 645 ns.">
<polygon fill="none" stroke="white" stroke-width="8" points="258,-677 87,-677 87,-593 258,-593 258,-677"/>
<text text-anchor="middle" x="172.5" y="-661.8" font-family="Times,serif" font-size="14.00" fill="white">AggregateHash</text>
<text text-anchor="middle" x="172.5" y="-646.8" font-family="Times,serif" font-size="14.00" fill="white">GroupBy {c_custkey}</text>
<text text-anchor="middle" x="172.5" y="-631.8" font-family="Times,serif" font-size="14.00" fill="white">COUNT(o_orderkey)</text>
<text text-anchor="middle" x="172.5" y="-600.8" font-family="Times,serif" font-size="14.00" fill="white">1 s 632 ms</text>
</a>
</g>
</g>
<!-- 140519125549072&#45;&gt;140502529813072 -->
<g id="edge4" class="edge">
<title>140519125549072&#45;&gt;140502529813072</title>
<path fill="none" stroke="white" stroke-width="2.27" d="M172.5,-677.09C172.5,-690.07 172.5,-704.45 172.5,-717.61"/>
<polygon fill="white" stroke="white" stroke-width="2.27" points="169,-717.85 172.5,-727.85 176,-717.85 169,-717.85"/>
<text text-anchor="middle" x="277.5" y="-698.8" font-family="Times,serif" font-size="14.00" fill="white">1,500,000 row(s)/23 chunk(s)</text>
</g>
<!-- 140502529586192 -->
<g id="node6" class="node">
<title>140502529586192</title>
<g id="a_node6"><a xlink:title="Output: 15338428 rows in 128 chunks filtered: 0, 149 ms 145 µs.&#10;Operator step runtimes:&#10; BuildSideMaterializing 13 ms 308 µs&#10; ProbeSideMaterializing 1 ms 244 µs&#10; Clustering 11 ms 653 µs&#10; Building 70 ms 919 µs&#10; Probing 17 ms 549 µs&#10; OutputWriting 33 ms 818 µs.&#10;Radix bits: 7.&#10;Build side is right.">
<polygon fill="none" stroke="white" stroke-width="2.1" points="260.5,-542 84.5,-542 84.5,-473 260.5,-473 260.5,-542"/>
<text text-anchor="middle" x="172.5" y="-526.8" font-family="Times,serif" font-size="14.00" fill="white">JoinHash (Left)</text>
<text text-anchor="middle" x="172.5" y="-511.8" font-family="Times,serif" font-size="14.00" fill="white">c_custkey = o_custkey</text>
<text text-anchor="middle" x="172.5" y="-480.8" font-family="Times,serif" font-size="14.00" fill="white">149 ms 145 µs</text>
</a>
</g>
</g>
<!-- 140502529586192&#45;&gt;140519125549072 -->
<g id="edge5" class="edge">
<title>140502529586192&#45;&gt;140519125549072</title>
<path fill="none" stroke="white" stroke-width="8" d="M172.5,-542.13C172.5,-554.51 172.5,-568.84 172.5,-582.44"/>
<polygon fill="white" stroke="white" stroke-width="8" points="165.5,-582.65 172.5,-592.65 179.5,-582.65 165.5,-582.65"/>
<text text-anchor="middle" x="286.5" y="-563.8" font-family="Times,serif" font-size="14.00" fill="white">15,338,428 row(s)/128 chunk(s)</text>
</g>
<!-- 140519125156624 -->
<g id="node7" class="node">
<title>140519125156624</title>
<g id="a_node7"><a xlink:title="Output: 1500000 rows in 23 chunks filtered: 0, 156 µs 43 ns.">
<polygon fill="none" stroke="white" points="110.5,-422 2.5,-422 2.5,-368 110.5,-368 110.5,-422"/>
<text text-anchor="middle" x="56.5" y="-406.8" font-family="Times,serif" font-size="14.00" fill="white">Validate</text>
<text text-anchor="middle" x="56.5" y="-375.8" font-family="Times,serif" font-size="14.00" fill="white">156 µs 43 ns</text>
</a>
</g>
</g>
<!-- 140519125156624&#45;&gt;140502529586192 -->
<g id="edge6" class="edge">
<title>140519125156624&#45;&gt;140502529586192</title>
<path fill="none" stroke="white" stroke-width="2.27" d="M52.68,-422.02C52.39,-433.06 53.97,-445.53 60.5,-455 64.8,-461.24 70.06,-466.74 75.92,-471.58"/>
<polygon fill="white" stroke="white" stroke-width="2.27" points="76.23,-471.81 74.14,-474.62 84.25,-477.78 76.23,-471.81"/>
<text text-anchor="middle" x="165.5" y="-443.8" font-family="Times,serif" font-size="14.00" fill="white">1,500,000 row(s)/23 chunk(s)</text>
</g>
<!-- 140502776026832 -->
<g id="node8" class="node">
<title>140502776026832</title>
<g id="a_node8"><a xlink:title="Output: 1500000 rows in 23 chunks filtered: 0, 70 µs 433 ns.">
<polygon fill="none" stroke="white" points="113,-317 0,-317 0,-203 113,-203 113,-317"/>
<text text-anchor="middle" x="56.5" y="-301.8" font-family="Times,serif" font-size="14.00" fill="white">GetTable</text>
<text text-anchor="middle" x="56.5" y="-286.8" font-family="Times,serif" font-size="14.00" fill="white">(customer)</text>
<text text-anchor="middle" x="56.5" y="-271.8" font-family="Times,serif" font-size="14.00" fill="white">pruned:</text>
<text text-anchor="middle" x="56.5" y="-256.8" font-family="Times,serif" font-size="14.00" fill="white">0/23 chunk(s)</text>
<text text-anchor="middle" x="56.5" y="-241.8" font-family="Times,serif" font-size="14.00" fill="white">7/8 column(s)</text>
<text text-anchor="middle" x="56.5" y="-210.8" font-family="Times,serif" font-size="14.00" fill="white">70 µs 433 ns</text>
</a>
</g>
</g>
<!-- 140502776026832&#45;&gt;140519125156624 -->
<g id="edge7" class="edge">
<title>140502776026832&#45;&gt;140519125156624</title>
<path fill="none" stroke="white" stroke-width="2.27" d="M56.5,-317.02C56.5,-330.77 56.5,-345.14 56.5,-357.69"/>
<polygon fill="white" stroke="white" stroke-width="2.27" points="53,-357.75 56.5,-367.75 60,-357.75 53,-357.75"/>
<text text-anchor="middle" x="161.5" y="-338.8" font-family="Times,serif" font-size="14.00" fill="white">1,500,000 row(s)/23 chunk(s)</text>
</g>
<!-- 140519125157904 -->
<g id="node9" class="node">
<title>140519125157904</title>
<g id="a_node9"><a xlink:title="Output: 14838409 rows in 229 chunks filtered: 0, 642 µs 522 ns.">
<polygon fill="none" stroke="white" points="352,-422 235,-422 235,-368 352,-368 352,-422"/>
<text text-anchor="middle" x="293.5" y="-406.8" font-family="Times,serif" font-size="14.00" fill="white">Validate</text>
<text text-anchor="middle" x="293.5" y="-375.8" font-family="Times,serif" font-size="14.00" fill="white">642 µs 522 ns</text>
</a>
</g>
</g>
<!-- 140519125157904&#45;&gt;140502529586192 -->
<g id="edge8" class="edge">
<title>140519125157904&#45;&gt;140502529586192</title>
<path fill="none" stroke="white" stroke-width="7.92" d="M287.64,-422.29C284.13,-433.38 278.71,-445.82 270.5,-455 266.82,-459.12 262.73,-462.96 258.36,-466.54"/>
<polygon fill="white" stroke="white" stroke-width="7.92" points="250.25,-472.7 262.41,-472.17 258.22,-466.65 250.25,-472.7"/>
<text text-anchor="middle" x="394.5" y="-443.8" font-family="Times,serif" font-size="14.00" fill="white">14,838,409 row(s)/229 chunk(s)</text>
</g>
<!-- 140502529834192 -->
<g id="node10" class="node">
<title>140502529834192</title>
<g id="a_node10"><a xlink:title="Output: 14838409 rows in 229 chunks filtered: 0, 41 ms 270 µs.&#10;Chunks: 0 skipped with no results, &#10;0 skipped with all matching, 0 scanned using binary search.">
<polygon fill="none" stroke="white" points="473.5,-302 131.5,-302 131.5,-218 473.5,-218 473.5,-302"/>
<text text-anchor="middle" x="302.5" y="-286.8" font-family="Times,serif" font-size="14.00" fill="white">TableScan</text>
<text text-anchor="middle" x="302.5" y="-271.8" font-family="Times,serif" font-size="14.00" fill="white">Impl: ColumnLike</text>
<text text-anchor="middle" x="302.5" y="-256.8" font-family="Times,serif" font-size="14.00" fill="white">o_comment NOT LIKE &#39;%special%packages%&#39;</text>
<text text-anchor="middle" x="302.5" y="-225.8" font-family="Times,serif" font-size="14.00" fill="white">41 ms 270 µs</text>
</a>
</g>
</g>
<!-- 140502529834192&#45;&gt;140519125157904 -->
<g id="edge9" class="edge">
<title>140502529834192&#45;&gt;140519125157904</title>
<path fill="none" stroke="white" stroke-width="7.92" d="M299.7,-302.35C298.51,-320.03 297.12,-340.5 295.96,-357.6"/>
<polygon fill="white" stroke="white" stroke-width="7.92" points="289.04,-357.31 295.28,-367.75 302.86,-358.24 289.04,-357.31"/>
<text text-anchor="middle" x="410.5" y="-338.8" font-family="Times,serif" font-size="14.00" fill="white">14,838,409 row(s)/229 chunk(s)</text>
</g>
<!-- 140502776027728 -->
<g id="node11" class="node">
<title>140502776027728</title>
<g id="a_node11"><a xlink:title="Output: 15000000 rows in 229 chunks filtered: 0, 454 µs 901 ns.">
<polygon fill="none" stroke="white" points="363.5,-133 241.5,-133 241.5,-19 363.5,-19 363.5,-133"/>
<text text-anchor="middle" x="302.5" y="-117.8" font-family="Times,serif" font-size="14.00" fill="white">GetTable</text>
<text text-anchor="middle" x="302.5" y="-102.8" font-family="Times,serif" font-size="14.00" fill="white">(orders)</text>
<text text-anchor="middle" x="302.5" y="-87.8" font-family="Times,serif" font-size="14.00" fill="white">pruned:</text>
<text text-anchor="middle" x="302.5" y="-72.8" font-family="Times,serif" font-size="14.00" fill="white">0/229 chunk(s)</text>
<text text-anchor="middle" x="302.5" y="-57.8" font-family="Times,serif" font-size="14.00" fill="white">6/9 column(s)</text>
<text text-anchor="middle" x="302.5" y="-26.8" font-family="Times,serif" font-size="14.00" fill="white">454 µs 901 ns</text>
</a>
</g>
</g>
<!-- 140502776027728&#45;&gt;140502529834192 -->
<g id="edge10" class="edge">
<title>140502776027728&#45;&gt;140502529834192</title>
<path fill="none" stroke="white" stroke-width="7.94" d="M302.5,-133.09C302.5,-156.93 302.5,-184.53 302.5,-207.81"/>
<polygon fill="white" stroke="white" stroke-width="7.94" points="295.55,-207.83 302.5,-217.83 309.45,-207.83 295.55,-207.83"/>
<text text-anchor="middle" x="416.5" y="-173.8" font-family="Times,serif" font-size="14.00" fill="white">15,000,000 row(s)/229 chunk(s)</text>
</g>
<!-- 0 -->
<g id="node12" class="node">
<title>0</title>
<polygon fill="none" stroke="white" points="381.5,-0.5 381.5,-151.5 697.5,-151.5 697.5,-0.5 381.5,-0.5"/>
<text text-anchor="middle" x="539.5" y="-136.3" font-family="Times,serif" font-size="14.00" fill="white">Total by operator</text>
<polyline fill="none" stroke="white" points="381.5,-128.5 697.5,-128.5 "/>
<text text-anchor="end" x="505.5" y="-113.3" font-family="Times,serif" font-size="14.00" fill="white">AggregateHash </text>
<text text-anchor="end" x="505.5" y="-98.3" font-family="Times,serif" font-size="14.00" fill="white"> JoinHash </text>
<text text-anchor="end" x="505.5" y="-83.3" font-family="Times,serif" font-size="14.00" fill="white"> TableScan </text>
<text text-anchor="end" x="505.5" y="-68.3" font-family="Times,serif" font-size="14.00" fill="white"> Validate </text>
<text text-anchor="end" x="505.5" y="-53.3" font-family="Times,serif" font-size="14.00" fill="white"> GetTable </text>
<text text-anchor="end" x="505.5" y="-38.3" font-family="Times,serif" font-size="14.00" fill="white"> Sort </text>
<text text-anchor="end" x="505.5" y="-23.3" font-family="Times,serif" font-size="14.00" fill="white"> Alias </text>
<text text-anchor="end" x="505.5" y="-8.3" font-family="Times,serif" font-size="14.00" fill="white">total</text>
<polyline fill="none" stroke="white" points="513.5,-0.5 513.5,-128.5 "/>
<text text-anchor="start" x="521.5" y="-113.3" font-family="Times,serif" font-size="14.00" fill="white">1 s 660 ms </text>
<text text-anchor="start" x="521.5" y="-98.3" font-family="Times,serif" font-size="14.00" fill="white"> 149 ms 145 µs </text>
<text text-anchor="start" x="521.5" y="-83.3" font-family="Times,serif" font-size="14.00" fill="white"> 41 ms 270 µs </text>
<text text-anchor="start" x="521.5" y="-68.3" font-family="Times,serif" font-size="14.00" fill="white"> 798 µs 565 ns </text>
<text text-anchor="start" x="521.5" y="-53.3" font-family="Times,serif" font-size="14.00" fill="white"> 525 µs 334 ns </text>
<text text-anchor="start" x="521.5" y="-38.3" font-family="Times,serif" font-size="14.00" fill="white"> 48 µs 967 ns </text>
<text text-anchor="start" x="521.5" y="-23.3" font-family="Times,serif" font-size="14.00" fill="white"> 29 µs 967 ns </text>
<text text-anchor="start" x="521.5" y="-8.3" font-family="Times,serif" font-size="14.00" fill="white"> 1 s 852 ms </text>
<polyline fill="none" stroke="white" points="644.5,-0.5 644.5,-128.5 "/>
<text text-anchor="start" x="652.5" y="-113.3" font-family="Times,serif" font-size="14.00" fill="white">90 %</text>
<text text-anchor="start" x="652.5" y="-98.3" font-family="Times,serif" font-size="14.00" fill="white">8 %</text>
<text text-anchor="start" x="652.5" y="-83.3" font-family="Times,serif" font-size="14.00" fill="white">2 %</text>
<text text-anchor="start" x="652.5" y="-68.3" font-family="Times,serif" font-size="14.00" fill="white">0 %</text>
<text text-anchor="start" x="652.5" y="-53.3" font-family="Times,serif" font-size="14.00" fill="white">0 %</text>
<text text-anchor="start" x="652.5" y="-38.3" font-family="Times,serif" font-size="14.00" fill="white">0 %</text>
<text text-anchor="start" x="652.5" y="-23.3" font-family="Times,serif" font-size="14.00" fill="white">0 %</text>
<text text-anchor="start" x="652.5" y="-8.3" font-family="Times,serif" font-size="14.00" fill="white"> </text>
</g>
</g>
</svg>
