<?xml version="1.0" encoding="UTF-8" standalone="no"?>
<!DOCTYPE svg PUBLIC "-//W3C//DTD SVG 1.1//EN"
 "http://www.w3.org/Graphics/SVG/1.1/DTD/svg11.dtd">
<!-- Generated by graphviz version 2.43.0 (0)
 -->
<!-- Title: G Pages: 1 -->
<svg width="1176pt" height="1725pt"
 viewBox="0.00 0.00 1176.00 1725.00" xmlns="http://www.w3.org/2000/svg" xmlns:xlink="http://www.w3.org/1999/xlink">
<g id="graph0" class="graph" transform="scale(1 1) rotate(0) translate(4 1721)">
<title>G</title>
<polygon fill="black" stroke="transparent" points="-4,4 -4,-1721 1172,-1721 1172,4 -4,4"/>
<text text-anchor="middle" x="319.5" y="-1701.8" font-family="Times,serif" font-size="14.00" fill="white">For tooltips with advanced information, hover your mouse over vertices or edge labels.</text>
<!-- 140209244022480 -->
<g id="node1" class="node">
<title>140209244022480</title>
<polygon fill="none" stroke="white" points="581.5,-1662 344.5,-1662 344.5,-1626 581.5,-1626 581.5,-1662"/>
<text text-anchor="middle" x="463" y="-1640.3" font-family="Times,serif" font-size="14.00" fill="white">[Projection] s_name, s_address</text>
</g>
<!-- 140526466772368 -->
<g id="node2" class="node">
<title>140526466772368</title>
<polygon fill="none" stroke="white" points="565,-1575 361,-1575 361,-1539 565,-1539 565,-1575"/>
<text text-anchor="middle" x="463" y="-1553.3" font-family="Times,serif" font-size="14.00" fill="white">[Sort] s_name (Ascending)</text>
</g>
<!-- 140526466772368&#45;&gt;140209244022480 -->
<g id="edge1" class="edge">
<title>140526466772368&#45;&gt;140209244022480</title>
<path fill="none" stroke="white" d="M463,-1575.2C463,-1586.84 463,-1602.45 463,-1615.76"/>
<polygon fill="white" stroke="white" points="459.5,-1615.82 463,-1625.82 466.5,-1615.82 459.5,-1615.82"/>
<g id="a_edge1&#45;label"><a xlink:title="Output Expressions: &#10; (1) s_suppkey&#10; (2) s_name&#10; (3) s_address&#10; (4) s_nationkey&#10;&#10;Unique Column Combinations: &#10; (1) {s_suppkey}&#10;&#10;Functional Dependencies (trivial): &#10; (1) {s_suppkey} =&gt; {s_name, s_address, s_nationkey}&#10;&#10;Functional Dependencies (non&#45;trivial): &#10; &lt;none&gt;">
<text text-anchor="middle" x="555" y="-1596.8" font-family="Times,serif" font-size="14.00" fill="white"> 0.0 row(s) | 100.0% estd.</text>
</a>
</g>
</g>
<!-- 140526466773712 -->
<g id="node3" class="node">
<title>140526466773712</title>
<polygon fill="none" stroke="white" points="637.5,-1488 288.5,-1488 288.5,-1452 637.5,-1452 637.5,-1488"/>
<text text-anchor="middle" x="463" y="-1466.3" font-family="Times,serif" font-size="14.00" fill="white">[Join] Mode: Semi [s_nationkey = n_nationkey]</text>
</g>
<!-- 140526466773712&#45;&gt;140526466772368 -->
<g id="edge2" class="edge">
<title>140526466773712&#45;&gt;140526466772368</title>
<path fill="none" stroke="white" d="M463,-1488.2C463,-1499.84 463,-1515.45 463,-1528.76"/>
<polygon fill="white" stroke="white" points="459.5,-1528.82 463,-1538.82 466.5,-1528.82 459.5,-1528.82"/>
<g id="a_edge2&#45;label"><a xlink:title="Output Expressions: &#10; (1) s_suppkey&#10; (2) s_name&#10; (3) s_address&#10; (4) s_nationkey&#10;&#10;Unique Column Combinations: &#10; (1) {s_suppkey}&#10;&#10;Functional Dependencies (trivial): &#10; (1) {s_suppkey} =&gt; {s_name, s_address, s_nationkey}&#10;&#10;Functional Dependencies (non&#45;trivial): &#10; &lt;none&gt;">
<text text-anchor="middle" x="555" y="-1509.8" font-family="Times,serif" font-size="14.00" fill="white"> 0.0 row(s) | 100.0% estd.</text>
</a>
</g>
</g>
<!-- 140209244012720 -->
<g id="node4" class="node">
<title>140209244012720</title>
<polygon fill="none" stroke="white" points="609.5,-1347 524.5,-1347 524.5,-1311 609.5,-1311 609.5,-1347"/>
<text text-anchor="middle" x="567" y="-1325.3" font-family="Times,serif" font-size="14.00" fill="white">[Validate]</text>
</g>
<!-- 140209244012720&#45;&gt;140526466773712 -->
<g id="edge3" class="edge">
<title>140209244012720&#45;&gt;140526466773712</title>
<path fill="none" stroke="white" d="M569.19,-1347.14C571.08,-1369.57 570.91,-1408.99 551,-1434 547.19,-1438.78 542.64,-1442.91 537.63,-1446.48"/>
<polygon fill="white" stroke="white" points="537.32,-1446.67 535.47,-1443.7 528.84,-1451.96 537.32,-1446.67"/>
<g id="a_edge3&#45;label"><a xlink:title="Output Expressions: &#10; (1) s_suppkey&#10; (2) s_name&#10; (3) s_address&#10; (4) s_nationkey&#10;&#10;Unique Column Combinations: &#10; (1) {s_suppkey}&#10;&#10;Functional Dependencies (trivial): &#10; (1) {s_suppkey} =&gt; {s_name, s_address, s_nationkey}&#10;&#10;Functional Dependencies (non&#45;trivial): &#10; &lt;none&gt;">
<text text-anchor="middle" x="662" y="-1379.3" font-family="Times,serif" font-size="14.00" fill="white"> 0.0 row(s) | 100.0% estd.</text>
</a>
</g>
</g>
<!-- 140526466774288 -->
<g id="node5" class="node">
<title>140526466774288</title>
<polygon fill="none" stroke="white" points="711.5,-1204 376.5,-1204 376.5,-1168 711.5,-1168 711.5,-1204"/>
<text text-anchor="middle" x="544" y="-1182.3" font-family="Times,serif" font-size="14.00" fill="white">[Join] Mode: Semi [s_suppkey = ps_suppkey]</text>
</g>
<!-- 140526466774288&#45;&gt;140209244012720 -->
<g id="edge4" class="edge">
<title>140526466774288&#45;&gt;140209244012720</title>
<path fill="none" stroke="white" d="M546.77,-1204.01C550.69,-1228.04 557.9,-1272.19 562.56,-1300.8"/>
<polygon fill="white" stroke="white" points="559.15,-1301.63 564.22,-1310.93 566.06,-1300.5 559.15,-1301.63"/>
<g id="a_edge4&#45;label"><a xlink:title="Output Expressions: &#10; (1) s_suppkey&#10; (2) s_name&#10; (3) s_address&#10; (4) s_nationkey&#10;&#10;Unique Column Combinations: &#10; (1) {s_suppkey}&#10;&#10;Functional Dependencies (trivial): &#10; (1) {s_suppkey} =&gt; {s_name, s_address, s_nationkey}&#10;&#10;Functional Dependencies (non&#45;trivial): &#10; &lt;none&gt;">
<text text-anchor="middle" x="636" y="-1225.8" font-family="Times,serif" font-size="14.00" fill="white"> 0.0 row(s) | 0.0% estd.</text>
</a>
</g>
</g>
<!-- 140526466771408 -->
<g id="node24" class="node">
<title>140526466771408</title>
<polygon fill="none" stroke="white" points="527.5,-1293 178.5,-1293 178.5,-1255 527.5,-1255 527.5,-1293"/>
<text text-anchor="middle" x="353" y="-1277.8" font-family="Times,serif" font-size="14.00" fill="white">[Join] Mode: Semi [s_nationkey = n_nationkey]</text>
<text text-anchor="middle" x="353" y="-1262.8" font-family="Times,serif" font-size="14.00" fill="white">(SemiJoinReductionRule)</text>
</g>
<!-- 140526466774288&#45;&gt;140526466771408 -->
<g id="edge5" class="edge">
<title>140526466774288&#45;&gt;140526466771408</title>
<path fill="none" stroke="white" d="M429.18,-1204.06C407.16,-1209.01 388.12,-1215.01 379,-1222 371.32,-1227.89 365.72,-1236.67 361.73,-1245.3"/>
<polygon fill="white" stroke="white" points="357.89,-1254.81 364.88,-1246.85 361.64,-1245.54 357.89,-1254.81"/>
<g id="a_edge5&#45;label"><a xlink:title="Output Expressions: &#10; (1) s_suppkey&#10; (2) s_name&#10; (3) s_address&#10; (4) s_nationkey&#10;&#10;Unique Column Combinations: &#10; (1) {s_suppkey}&#10;&#10;Functional Dependencies (trivial): &#10; (1) {s_suppkey} =&gt; {s_name, s_address, s_nationkey}&#10;&#10;Functional Dependencies (non&#45;trivial): &#10; &lt;none&gt;">
<text text-anchor="middle" x="462" y="-1225.8" font-family="Times,serif" font-size="14.00" fill="white"> 0.0 row(s) | 0.0% estd.</text>
</a>
</g>
</g>
<!-- 140209245982544 -->
<g id="node6" class="node">
<title>140209245982544</title>
<polygon fill="none" stroke="white" points="947.5,-1117 616.5,-1117 616.5,-1079 947.5,-1079 947.5,-1117"/>
<text text-anchor="middle" x="782" y="-1101.8" font-family="Times,serif" font-size="14.00" fill="white">[StoredTable] Name: &#39;supplier&#39; pruned: 0/16</text>
<text text-anchor="middle" x="782" y="-1086.8" font-family="Times,serif" font-size="14.00" fill="white">chunk(s), 3/7 column(s)</text>
</g>
<!-- 140209245982544&#45;&gt;140526466774288 -->
<g id="edge6" class="edge">
<title>140209245982544&#45;&gt;140526466774288</title>
<path fill="none" stroke="white" d="M763.34,-1117.21C750.9,-1128.33 733.64,-1141.92 716,-1150 702.83,-1156.03 688.62,-1161.03 674.21,-1165.17"/>
<polygon fill="white" stroke="white" points="673.86,-1165.26 672.94,-1161.89 664.22,-1167.9 673.86,-1165.26"/>
<g id="a_edge6&#45;label"><a xlink:title="Output Expressions: &#10; (1) s_suppkey&#10; (2) s_name&#10; (3) s_address&#10; (4) s_nationkey&#10;&#10;Unique Column Combinations: &#10; (1) {s_suppkey}&#10;&#10;Functional Dependencies (trivial): &#10; (1) {s_suppkey} =&gt; {s_name, s_address, s_nationkey}&#10;&#10;Functional Dependencies (non&#45;trivial): &#10; &lt;none&gt;">
<text text-anchor="middle" x="862.5" y="-1138.8" font-family="Times,serif" font-size="14.00" fill="white"> 1,000,000.0 row(s) | 100.0% estd.</text>
</a>
</g>
</g>
<!-- 140209244024240 -->
<g id="node7" class="node">
<title>140209244024240</title>
<polygon fill="none" stroke="white" points="598.5,-1116 411.5,-1116 411.5,-1080 598.5,-1080 598.5,-1116"/>
<text text-anchor="middle" x="505" y="-1094.3" font-family="Times,serif" font-size="14.00" fill="white">[Projection] ps_suppkey</text>
</g>
<!-- 140209244024240&#45;&gt;140526466774288 -->
<g id="edge7" class="edge">
<title>140209244024240&#45;&gt;140526466774288</title>
<path fill="none" stroke="white" d="M512.89,-1116.4C518.37,-1128.49 525.78,-1144.82 531.99,-1158.51"/>
<polygon fill="white" stroke="white" points="536.25,-1167.92 535.31,-1157.36 532.12,-1158.81 536.25,-1167.92"/>
<g id="a_edge7&#45;label"><a xlink:title="Output Expressions: &#10; (1) ps_suppkey&#10;&#10;Unique Column Combinations: &#10; &lt;none&gt;&#10;&#10;Functional Dependencies (trivial): &#10; &lt;none&gt;&#10;&#10;Functional Dependencies (non&#45;trivial): &#10; &lt;none&gt;">
<text text-anchor="middle" x="620" y="-1138.8" font-family="Times,serif" font-size="14.00" fill="white"> 0.0 row(s) | 100.0% estd.</text>
</a>
</g>
</g>
<!-- 140526466775632 -->
<g id="node8" class="node">
<title>140526466775632</title>
<polygon fill="none" stroke="white" points="691,-1028 319,-1028 319,-975 691,-975 691,-1028"/>
<text text-anchor="middle" x="505" y="-1012.8" font-family="Times,serif" font-size="14.00" fill="white">[Join] Mode: Semi [ps_suppkey = l_suppkey]</text>
<text text-anchor="middle" x="505" y="-997.8" font-family="Times,serif" font-size="14.00" fill="white">[ps_availqty &gt; 0.5 * SUM(l_quantity)] [ps_partkey</text>
<text text-anchor="middle" x="505" y="-982.8" font-family="Times,serif" font-size="14.00" fill="white">= l_partkey]</text>
</g>
<!-- 140526466775632&#45;&gt;140209244024240 -->
<g id="edge8" class="edge">
<title>140526466775632&#45;&gt;140209244024240</title>
<path fill="none" stroke="white" d="M505,-1028.32C505,-1041.13 505,-1056.6 505,-1069.62"/>
<polygon fill="white" stroke="white" points="501.5,-1069.86 505,-1079.86 508.5,-1069.86 501.5,-1069.86"/>
<g id="a_edge8&#45;label"><a xlink:title="Output Expressions: &#10; (1) ps_partkey&#10; (2) ps_suppkey&#10; (3) ps_availqty&#10;&#10;Unique Column Combinations: &#10; (1) {ps_partkey, ps_suppkey}&#10;&#10;Functional Dependencies (trivial): &#10; (1) {ps_partkey, ps_suppkey} =&gt; {ps_availqty}&#10;&#10;Functional Dependencies (non&#45;trivial): &#10; &lt;none&gt;">
<text text-anchor="middle" x="592.5" y="-1049.8" font-family="Times,serif" font-size="14.00" fill="white"> 0.0 row(s) | 25.0% estd.</text>
</a>
</g>
</g>
<!-- 140209244024080 -->
<g id="node9" class="node">
<title>140209244024080</title>
<polygon fill="none" stroke="white" points="577.5,-480 492.5,-480 492.5,-444 577.5,-444 577.5,-480"/>
<text text-anchor="middle" x="535" y="-458.3" font-family="Times,serif" font-size="14.00" fill="white">[Validate]</text>
</g>
<!-- 140209244024080&#45;&gt;140526466775632 -->
<g id="edge9" class="edge">
<title>140209244024080&#45;&gt;140526466775632</title>
<path fill="none" stroke="white" d="M519.43,-480.25C506.08,-496.87 489,-523.35 489,-550 489,-550 489,-550 489,-906 489,-925.61 492.39,-947.2 496.05,-964.78"/>
<polygon fill="white" stroke="white" points="496.07,-964.86 492.65,-965.61 498.21,-974.63 496.07,-964.86"/>
<g id="a_edge9&#45;label"><a xlink:title="Output Expressions: &#10; (1) ps_partkey&#10; (2) ps_suppkey&#10; (3) ps_availqty&#10;&#10;Unique Column Combinations: &#10; (1) {ps_partkey, ps_suppkey}&#10;&#10;Functional Dependencies (trivial): &#10; (1) {ps_partkey, ps_suppkey} =&gt; {ps_availqty}&#10;&#10;Functional Dependencies (non&#45;trivial): &#10; &lt;none&gt;">
<text text-anchor="middle" x="581" y="-724.3" font-family="Times,serif" font-size="14.00" fill="white"> 0.0 row(s) | 100.0% estd.</text>
</a>
</g>
</g>
<!-- 140526466769872 -->
<g id="node19" class="node">
<title>140526466769872</title>
<polygon fill="none" stroke="white" points="895.5,-659 572.5,-659 572.5,-621 895.5,-621 895.5,-659"/>
<text text-anchor="middle" x="734" y="-643.8" font-family="Times,serif" font-size="14.00" fill="white">[Join] Mode: Semi [ps_partkey = l_partkey]</text>
<text text-anchor="middle" x="734" y="-628.8" font-family="Times,serif" font-size="14.00" fill="white">(SemiJoinReductionRule)</text>
</g>
<!-- 140209244024080&#45;&gt;140526466769872 -->
<g id="edge11" class="edge">
<title>140209244024080&#45;&gt;140526466769872</title>
<path fill="none" stroke="white" d="M531.25,-480.18C527.28,-503.14 524.06,-543.94 544,-570 560.91,-592.09 585.56,-607.12 611.54,-617.34"/>
<polygon fill="white" stroke="white" points="621.16,-620.89 612.99,-614.14 611.78,-617.42 621.16,-620.89"/>
<g id="a_edge11&#45;label"><a xlink:title="Output Expressions: &#10; (1) ps_partkey&#10; (2) ps_suppkey&#10; (3) ps_availqty&#10;&#10;Unique Column Combinations: &#10; (1) {ps_partkey, ps_suppkey}&#10;&#10;Functional Dependencies (trivial): &#10; (1) {ps_partkey, ps_suppkey} =&gt; {ps_availqty}&#10;&#10;Functional Dependencies (non&#45;trivial): &#10; &lt;none&gt;">
<text text-anchor="middle" x="636" y="-547.3" font-family="Times,serif" font-size="14.00" fill="white"> 0.0 row(s) | 100.0% estd.</text>
</a>
</g>
</g>
<!-- 140526466770448 -->
<g id="node20" class="node">
<title>140526466770448</title>
<polygon fill="none" stroke="white" points="1069,-570 737,-570 737,-532 1069,-532 1069,-570"/>
<text text-anchor="middle" x="903" y="-554.8" font-family="Times,serif" font-size="14.00" fill="white">[Join] Mode: Semi [ps_suppkey = l_suppkey]</text>
<text text-anchor="middle" x="903" y="-539.8" font-family="Times,serif" font-size="14.00" fill="white">(SemiJoinReductionRule)</text>
</g>
<!-- 140209244024080&#45;&gt;140526466770448 -->
<g id="edge10" class="edge">
<title>140209244024080&#45;&gt;140526466770448</title>
<path fill="none" stroke="white" d="M577.64,-476.21C613.94,-487.19 667.59,-502.77 715,-514 739.27,-519.75 765.46,-525.22 790.36,-530.08"/>
<polygon fill="white" stroke="white" points="800.21,-531.99 791.05,-526.65 790.39,-530.09 800.21,-531.99"/>
<g id="a_edge10&#45;label"><a xlink:title="Output Expressions: &#10; (1) ps_partkey&#10; (2) ps_suppkey&#10; (3) ps_availqty&#10;&#10;Unique Column Combinations: &#10; (1) {ps_partkey, ps_suppkey}&#10;&#10;Functional Dependencies (trivial): &#10; (1) {ps_partkey, ps_suppkey} =&gt; {ps_availqty}&#10;&#10;Functional Dependencies (non&#45;trivial): &#10; &lt;none&gt;">
<text text-anchor="middle" x="807" y="-502.8" font-family="Times,serif" font-size="14.00" fill="white"> 0.0 row(s) | 100.0% estd.</text>
</a>
</g>
</g>
<!-- 140526466774672 -->
<g id="node10" class="node">
<title>140526466774672</title>
<polygon fill="none" stroke="white" points="699,-391 371,-391 371,-355 699,-355 699,-391"/>
<text text-anchor="middle" x="535" y="-369.3" font-family="Times,serif" font-size="14.00" fill="white">[Join] Mode: Semi [ps_partkey = p_partkey]</text>
</g>
<!-- 140526466774672&#45;&gt;140209244024080 -->
<g id="edge12" class="edge">
<title>140526466774672&#45;&gt;140209244024080</title>
<path fill="none" stroke="white" d="M535,-391.19C535,-403.34 535,-419.89 535,-433.82"/>
<polygon fill="white" stroke="white" points="531.5,-433.85 535,-443.85 538.5,-433.85 531.5,-433.85"/>
<g id="a_edge12&#45;label"><a xlink:title="Output Expressions: &#10; (1) ps_partkey&#10; (2) ps_suppkey&#10; (3) ps_availqty&#10;&#10;Unique Column Combinations: &#10; (1) {ps_partkey, ps_suppkey}&#10;&#10;Functional Dependencies (trivial): &#10; (1) {ps_partkey, ps_suppkey} =&gt; {ps_availqty}&#10;&#10;Functional Dependencies (non&#45;trivial): &#10; &lt;none&gt;">
<text text-anchor="middle" x="618" y="-413.8" font-family="Times,serif" font-size="14.00" fill="white"> 0.0 row(s) | 0.0% estd.</text>
</a>
</g>
</g>
<!-- 140209245984464 -->
<g id="node11" class="node">
<title>140209245984464</title>
<polygon fill="none" stroke="white" points="573.5,-303 218.5,-303 218.5,-265 573.5,-265 573.5,-303"/>
<text text-anchor="middle" x="396" y="-287.8" font-family="Times,serif" font-size="14.00" fill="white">[StoredTable] Name: &#39;partsupp&#39; pruned: 0/1221</text>
<text text-anchor="middle" x="396" y="-272.8" font-family="Times,serif" font-size="14.00" fill="white">chunk(s), 2/5 column(s)</text>
</g>
<!-- 140209245984464&#45;&gt;140526466774672 -->
<g id="edge13" class="edge">
<title>140209245984464&#45;&gt;140526466774672</title>
<path fill="none" stroke="white" stroke-width="3.03" d="M392.16,-303.42C391.04,-314.06 391.7,-327.07 399,-336 404.04,-342.17 415.34,-347.53 429.38,-352.09"/>
<polygon fill="white" stroke="white" stroke-width="3.03" points="429.39,-352.09 428.38,-355.45 438.96,-354.98 429.39,-352.09"/>
<g id="a_edge13&#45;label"><a xlink:title="Output Expressions: &#10; (1) ps_partkey&#10; (2) ps_suppkey&#10; (3) ps_availqty&#10;&#10;Unique Column Combinations: &#10; (1) {ps_partkey, ps_suppkey}&#10;&#10;Functional Dependencies (trivial): &#10; (1) {ps_partkey, ps_suppkey} =&gt; {ps_availqty}&#10;&#10;Functional Dependencies (non&#45;trivial): &#10; &lt;none&gt;">
<text text-anchor="middle" x="527" y="-324.8" font-family="Times,serif" font-size="14.00" fill="white"> 80,000,000.0 row(s) | 100.0% estd.</text>
</a>
</g>
</g>
<!-- 140209244025040 -->
<g id="node12" class="node">
<title>140209244025040</title>
<polygon fill="none" stroke="white" points="766.5,-302 591.5,-302 591.5,-266 766.5,-266 766.5,-302"/>
<text text-anchor="middle" x="679" y="-280.3" font-family="Times,serif" font-size="14.00" fill="white">[Projection] p_partkey</text>
</g>
<!-- 140209244025040&#45;&gt;140526466774672 -->
<g id="edge14" class="edge">
<title>140209244025040&#45;&gt;140526466774672</title>
<path fill="none" stroke="white" d="M674.77,-302.39C671.23,-313.46 665.08,-327.31 655,-336 648.3,-341.78 640.69,-346.63 632.64,-350.7"/>
<polygon fill="white" stroke="white" points="623.39,-354.97 633.94,-353.96 632.47,-350.78 623.39,-354.97"/>
<g id="a_edge14&#45;label"><a xlink:title="Output Expressions: &#10; (1) p_partkey&#10;&#10;Unique Column Combinations: &#10; (1) {p_partkey}&#10;&#10;Functional Dependencies (trivial): &#10; &lt;none&gt;&#10;&#10;Functional Dependencies (non&#45;trivial): &#10; &lt;none&gt;">
<text text-anchor="middle" x="759" y="-324.8" font-family="Times,serif" font-size="14.00" fill="white"> 0.0 row(s) | 100.0% estd.</text>
</a>
</g>
</g>
<!-- 140209244024880 -->
<g id="node13" class="node">
<title>140209244024880</title>
<polygon fill="none" stroke="white" points="721.5,-214 636.5,-214 636.5,-178 721.5,-178 721.5,-214"/>
<text text-anchor="middle" x="679" y="-192.3" font-family="Times,serif" font-size="14.00" fill="white">[Validate]</text>
</g>
<!-- 140209244024880&#45;&gt;140209244025040 -->
<g id="edge15" class="edge">
<title>140209244024880&#45;&gt;140209244025040</title>
<path fill="none" stroke="white" d="M679,-214.4C679,-226.25 679,-242.18 679,-255.71"/>
<polygon fill="white" stroke="white" points="675.5,-255.92 679,-265.92 682.5,-255.92 675.5,-255.92"/>
<g id="a_edge15&#45;label"><a xlink:title="Output Expressions: &#10; (1) p_partkey&#10; (2) p_name&#10;&#10;Unique Column Combinations: &#10; (1) {p_partkey}&#10;&#10;Functional Dependencies (trivial): &#10; (1) {p_partkey} =&gt; {p_name}&#10;&#10;Functional Dependencies (non&#45;trivial): &#10; &lt;none&gt;">
<text text-anchor="middle" x="771" y="-235.8" font-family="Times,serif" font-size="14.00" fill="white"> 0.0 row(s) | 100.0% estd.</text>
</a>
</g>
</g>
<!-- 140526466774864 -->
<g id="node14" class="node">
<title>140526466774864</title>
<polygon fill="none" stroke="white" points="871,-127 487,-127 487,-89 871,-89 871,-127"/>
<text text-anchor="middle" x="679" y="-111.8" font-family="Times,serif" font-size="14.00" fill="white">[Predicate] p_name BETWEEN UPPER EXCLUSIVE</text>
<text text-anchor="middle" x="679" y="-96.8" font-family="Times,serif" font-size="14.00" fill="white">&#39;midnight&#39; AND &#39;midnighu&#39;</text>
</g>
<!-- 140526466774864&#45;&gt;140209244024880 -->
<g id="edge16" class="edge">
<title>140526466774864&#45;&gt;140209244024880</title>
<path fill="none" stroke="white" d="M679,-127.24C679,-139.07 679,-154.68 679,-167.95"/>
<polygon fill="white" stroke="white" points="675.5,-167.96 679,-177.96 682.5,-167.96 675.5,-167.96"/>
<g id="a_edge16&#45;label"><a xlink:title="Output Expressions: &#10; (1) p_partkey&#10; (2) p_name&#10;&#10;Unique Column Combinations: &#10; (1) {p_partkey}&#10;&#10;Functional Dependencies (trivial): &#10; (1) {p_partkey} =&gt; {p_name}&#10;&#10;Functional Dependencies (non&#45;trivial): &#10; &lt;none&gt;">
<text text-anchor="middle" x="762" y="-148.8" font-family="Times,serif" font-size="14.00" fill="white"> 0.0 row(s) | 0.0% estd.</text>
</a>
</g>
</g>
<!-- 140209245985744 -->
<g id="node15" class="node">
<title>140209245985744</title>
<polygon fill="none" stroke="white" points="869.5,-38 488.5,-38 488.5,0 869.5,0 869.5,-38"/>
<text text-anchor="middle" x="679" y="-22.8" font-family="Times,serif" font-size="14.00" fill="white">[StoredTable] Name: &#39;part&#39; pruned: 0/306 chunk(s),</text>
<text text-anchor="middle" x="679" y="-7.8" font-family="Times,serif" font-size="14.00" fill="white">7/9 column(s)</text>
</g>
<!-- 140209245985744&#45;&gt;140526466774864 -->
<g id="edge17" class="edge">
<title>140209245985744&#45;&gt;140526466774864</title>
<path fill="none" stroke="white" d="M679,-38.03C679,-49.81 679,-65.44 679,-78.84"/>
<polygon fill="white" stroke="white" points="675.5,-79 679,-89 682.5,-79 675.5,-79"/>
<g id="a_edge17&#45;label"><a xlink:title="Output Expressions: &#10; (1) p_partkey&#10; (2) p_name&#10;&#10;Unique Column Combinations: &#10; (1) {p_partkey}&#10;&#10;Functional Dependencies (trivial): &#10; (1) {p_partkey} =&gt; {p_name}&#10;&#10;Functional Dependencies (non&#45;trivial): &#10; &lt;none&gt;">
<text text-anchor="middle" x="807" y="-59.8" font-family="Times,serif" font-size="14.00" fill="white"> 20,000,000.0 row(s) | 100.0% estd.</text>
</a>
</g>
</g>
<!-- 140209244024560 -->
<g id="node16" class="node">
<title>140209244024560</title>
<polygon fill="none" stroke="white" points="882,-924 540,-924 540,-886 882,-886 882,-924"/>
<text text-anchor="middle" x="711" y="-908.8" font-family="Times,serif" font-size="14.00" fill="white">[Projection] 0.5 * SUM(l_quantity), l_suppkey,</text>
<text text-anchor="middle" x="711" y="-893.8" font-family="Times,serif" font-size="14.00" fill="white">l_partkey</text>
</g>
<!-- 140209244024560&#45;&gt;140526466775632 -->
<g id="edge18" class="edge">
<title>140209244024560&#45;&gt;140526466775632</title>
<path fill="none" stroke="white" d="M671.28,-924.22C642.64,-937.36 603.34,-955.39 570.14,-970.62"/>
<polygon fill="white" stroke="white" points="560.95,-974.83 571.5,-973.85 570.04,-970.66 560.95,-974.83"/>
<g id="a_edge18&#45;label"><a xlink:title="Output Expressions: &#10; (1) 0.5 * SUM(l_quantity) NULL&#10; (2) l_suppkey&#10; (3) l_partkey&#10;&#10;Unique Column Combinations: &#10; (1) {l_partkey, l_suppkey}&#10;&#10;Functional Dependencies (trivial): &#10; (1) {l_partkey, l_suppkey} =&gt; {0.5 * SUM(l_quantity)}&#10;&#10;Functional Dependencies (non&#45;trivial): &#10; &lt;none&gt;">
<text text-anchor="middle" x="725" y="-945.8" font-family="Times,serif" font-size="14.00" fill="white"> 0.0 row(s) | 100.0% estd.</text>
</a>
</g>
</g>
<!-- 140526466775440 -->
<g id="node17" class="node">
<title>140526466775440</title>
<polygon fill="none" stroke="white" points="891,-835 559,-835 559,-797 891,-797 891,-835"/>
<text text-anchor="middle" x="725" y="-819.8" font-family="Times,serif" font-size="14.00" fill="white">[Aggregate] GroupBy: [l_suppkey, l_partkey]</text>
<text text-anchor="middle" x="725" y="-804.8" font-family="Times,serif" font-size="14.00" fill="white">Aggregates: [SUM(l_quantity)]</text>
</g>
<!-- 140526466775440&#45;&gt;140209244024560 -->
<g id="edge19" class="edge">
<title>140526466775440&#45;&gt;140209244024560</title>
<path fill="none" stroke="white" d="M722.1,-835.03C720.2,-846.81 717.69,-862.44 715.53,-875.84"/>
<polygon fill="white" stroke="white" points="712.03,-875.57 713.9,-886 718.94,-876.68 712.03,-875.57"/>
<g id="a_edge19&#45;label"><a xlink:title="Output Expressions: &#10; (1) l_suppkey&#10; (2) l_partkey&#10; (3) SUM(l_quantity) NULL&#10;&#10;Unique Column Combinations: &#10; (1) {l_partkey, l_suppkey}&#10;&#10;Functional Dependencies (trivial): &#10; (1) {l_partkey, l_suppkey} =&gt; {SUM(l_quantity)}&#10;&#10;Functional Dependencies (non&#45;trivial): &#10; &lt;none&gt;">
<text text-anchor="middle" x="810" y="-856.8" font-family="Times,serif" font-size="14.00" fill="white"> 0.0 row(s) | 100.0% estd.</text>
</a>
</g>
</g>
<!-- 140209244024400 -->
<g id="node18" class="node">
<title>140209244024400</title>
<polygon fill="none" stroke="white" points="776.5,-746 691.5,-746 691.5,-710 776.5,-710 776.5,-746"/>
<text text-anchor="middle" x="734" y="-724.3" font-family="Times,serif" font-size="14.00" fill="white">[Validate]</text>
</g>
<!-- 140209244024400&#45;&gt;140526466775440 -->
<g id="edge20" class="edge">
<title>140209244024400&#45;&gt;140526466775440</title>
<path fill="none" stroke="white" d="M732.18,-746.4C730.97,-757.94 729.36,-773.35 727.97,-786.64"/>
<polygon fill="white" stroke="white" points="724.47,-786.42 726.91,-796.73 731.43,-787.15 724.47,-786.42"/>
<g id="a_edge20&#45;label"><a xlink:title="Output Expressions: &#10; (1) l_partkey&#10; (2) l_suppkey&#10; (3) l_quantity&#10; (4) l_shipdate&#10;&#10;Unique Column Combinations: &#10; &lt;none&gt;&#10;&#10;Functional Dependencies (trivial): &#10; &lt;none&gt;&#10;&#10;Functional Dependencies (non&#45;trivial): &#10; &lt;none&gt;">
<text text-anchor="middle" x="822" y="-767.8" font-family="Times,serif" font-size="14.00" fill="white"> 0.0 row(s) | 100.0% estd.</text>
</a>
</g>
</g>
<!-- 140526466769872&#45;&gt;140209244024400 -->
<g id="edge21" class="edge">
<title>140526466769872&#45;&gt;140209244024400</title>
<path fill="none" stroke="white" d="M734,-659.24C734,-671.07 734,-686.68 734,-699.95"/>
<polygon fill="white" stroke="white" points="730.5,-699.96 734,-709.96 737.5,-699.96 730.5,-699.96"/>
<g id="a_edge21&#45;label"><a xlink:title="Output Expressions: &#10; (1) l_partkey&#10; (2) l_suppkey&#10; (3) l_quantity&#10; (4) l_shipdate&#10;&#10;Unique Column Combinations: &#10; &lt;none&gt;&#10;&#10;Functional Dependencies (trivial): &#10; &lt;none&gt;&#10;&#10;Functional Dependencies (non&#45;trivial): &#10; &lt;none&gt;">
<text text-anchor="middle" x="817" y="-680.8" font-family="Times,serif" font-size="14.00" fill="white"> 0.0 row(s) | 0.3% estd.</text>
</a>
</g>
</g>
<!-- 140526466770448&#45;&gt;140526466769872 -->
<g id="edge22" class="edge">
<title>140526466770448&#45;&gt;140526466769872</title>
<path fill="none" stroke="white" d="M867.98,-570.03C841.92,-583.44 806.17,-601.85 778.15,-616.27"/>
<polygon fill="white" stroke="white" points="777.86,-616.42 776.26,-613.31 768.97,-621 777.86,-616.42"/>
<g id="a_edge22&#45;label"><a xlink:title="Output Expressions: &#10; (1) l_partkey&#10; (2) l_suppkey&#10; (3) l_quantity&#10; (4) l_shipdate&#10;&#10;Unique Column Combinations: &#10; &lt;none&gt;&#10;&#10;Functional Dependencies (trivial): &#10; &lt;none&gt;&#10;&#10;Functional Dependencies (non&#45;trivial): &#10; &lt;none&gt;">
<text text-anchor="middle" x="911" y="-591.8" font-family="Times,serif" font-size="14.00" fill="white"> 0.0 row(s) | 0.0% estd.</text>
</a>
</g>
</g>
<!-- 140526466775248 -->
<g id="node21" class="node">
<title>140526466775248</title>
<polygon fill="none" stroke="white" points="1104,-481 702,-481 702,-443 1104,-443 1104,-481"/>
<text text-anchor="middle" x="903" y="-465.8" font-family="Times,serif" font-size="14.00" fill="white">[Predicate] l_shipdate BETWEEN UPPER EXCLUSIVE</text>
<text text-anchor="middle" x="903" y="-450.8" font-family="Times,serif" font-size="14.00" fill="white">&#39;1997&#45;01&#45;01&#39; AND &#39;1998&#45;01&#45;01&#39;</text>
</g>
<!-- 140526466775248&#45;&gt;140526466770448 -->
<g id="edge23" class="edge">
<title>140526466775248&#45;&gt;140526466770448</title>
<path fill="none" stroke="white" stroke-width="3.42" d="M903,-481.03C903,-492.81 903,-508.44 903,-521.84"/>
<polygon fill="white" stroke="white" stroke-width="3.42" points="903,-522 899.5,-522 903,-532 903,-522"/>
<g id="a_edge23&#45;label"><a xlink:title="Output Expressions: &#10; (1) l_partkey&#10; (2) l_suppkey&#10; (3) l_quantity&#10; (4) l_shipdate&#10;&#10;Unique Column Combinations: &#10; &lt;none&gt;&#10;&#10;Functional Dependencies (trivial): &#10; &lt;none&gt;&#10;&#10;Functional Dependencies (non&#45;trivial): &#10; &lt;none&gt;">
<text text-anchor="middle" x="1026.5" y="-502.8" font-family="Times,serif" font-size="14.00" fill="white"> 93,561,320.0 row(s) | 15.6% estd.</text>
</a>
</g>
</g>
<!-- 140209245985424 -->
<g id="node22" class="node">
<title>140209245985424</title>
<polygon fill="none" stroke="white" points="1077.5,-392 728.5,-392 728.5,-354 1077.5,-354 1077.5,-392"/>
<text text-anchor="middle" x="903" y="-376.8" font-family="Times,serif" font-size="14.00" fill="white">[StoredTable] Name: &#39;lineitem&#39; pruned: 0/9156</text>
<text text-anchor="middle" x="903" y="-361.8" font-family="Times,serif" font-size="14.00" fill="white">chunk(s), 12/16 column(s)</text>
</g>
<!-- 140209245985424&#45;&gt;140526466775248 -->
<g id="edge24" class="edge">
<title>140209245985424&#45;&gt;140526466775248</title>
<path fill="none" stroke="white" stroke-width="8" d="M903,-392.03C903,-403.81 903,-419.44 903,-432.84"/>
<polygon fill="white" stroke="white" stroke-width="8" points="896,-433 903,-443 910,-433 896,-433"/>
<g id="a_edge24&#45;label"><a xlink:title="Output Expressions: &#10; (1) l_partkey&#10; (2) l_suppkey&#10; (3) l_quantity&#10; (4) l_shipdate&#10;&#10;Unique Column Combinations: &#10; &lt;none&gt;&#10;&#10;Functional Dependencies (trivial): &#10; &lt;none&gt;&#10;&#10;Functional Dependencies (non&#45;trivial): &#10; &lt;none&gt;">
<text text-anchor="middle" x="1035.5" y="-413.8" font-family="Times,serif" font-size="14.00" fill="white"> 600,037,888.0 row(s) | 100.0% estd.</text>
</a>
</g>
</g>
<!-- 140209244019920 -->
<g id="node23" class="node">
<title>140209244019920</title>
<polygon fill="none" stroke="white" points="402.5,-1401 317.5,-1401 317.5,-1365 402.5,-1365 402.5,-1401"/>
<text text-anchor="middle" x="360" y="-1379.3" font-family="Times,serif" font-size="14.00" fill="white">[Validate]</text>
</g>
<!-- 140209244019920&#45;&gt;140526466773712 -->
<g id="edge25" class="edge">
<title>140209244019920&#45;&gt;140526466773712</title>
<path fill="none" stroke="white" d="M358.22,-1401.02C358.04,-1411.6 359.61,-1424.87 367,-1434 370.86,-1438.77 375.43,-1442.89 380.45,-1446.45"/>
<polygon fill="white" stroke="white" points="389.27,-1451.93 382.62,-1443.68 380.77,-1446.65 389.27,-1451.93"/>
<g id="a_edge25&#45;label"><a xlink:title="Output Expressions: &#10; (1) n_nationkey&#10; (2) n_name&#10;&#10;Unique Column Combinations: &#10; (1) {n_nationkey}&#10;&#10;Functional Dependencies (trivial): &#10; (1) {n_nationkey} =&gt; {n_name}&#10;&#10;Functional Dependencies (non&#45;trivial): &#10; &lt;none&gt;">
<text text-anchor="middle" x="459" y="-1422.8" font-family="Times,serif" font-size="14.00" fill="white"> 0.0 row(s) | 100.0% estd.</text>
</a>
</g>
</g>
<!-- 140526466771408&#45;&gt;140209244019920 -->
<g id="edge26" class="edge">
<title>140526466771408&#45;&gt;140209244019920</title>
<path fill="none" stroke="white" d="M349.92,-1293.15C347.94,-1307.77 346.21,-1328.81 349,-1347 349.41,-1349.68 349.99,-1352.44 350.67,-1355.17"/>
<polygon fill="white" stroke="white" points="347.31,-1356.17 353.45,-1364.8 354.04,-1354.22 347.31,-1356.17"/>
<g id="a_edge26&#45;label"><a xlink:title="Output Expressions: &#10; (1) n_nationkey&#10; (2) n_name&#10;&#10;Unique Column Combinations: &#10; (1) {n_nationkey}&#10;&#10;Functional Dependencies (trivial): &#10; (1) {n_nationkey} =&gt; {n_name}&#10;&#10;Functional Dependencies (non&#45;trivial): &#10; &lt;none&gt;">
<text text-anchor="middle" x="432" y="-1325.3" font-family="Times,serif" font-size="14.00" fill="white"> 0.0 row(s) | 0.0% estd.</text>
</a>
</g>
</g>
<!-- 140526466772944 -->
<g id="node25" class="node">
<title>140526466772944</title>
<polygon fill="none" stroke="white" points="335,-1204 43,-1204 43,-1168 335,-1168 335,-1204"/>
<text text-anchor="middle" x="189" y="-1182.3" font-family="Times,serif" font-size="14.00" fill="white">[Predicate] n_name = &#39;MOZAMBIQUE&#39;</text>
</g>
<!-- 140526466772944&#45;&gt;140526466771408 -->
<g id="edge27" class="edge">
<title>140526466772944&#45;&gt;140526466771408</title>
<path fill="none" stroke="white" d="M184.44,-1204.11C182.7,-1214.73 182.62,-1228 190,-1237 194.76,-1242.8 204.26,-1247.73 216.4,-1251.9"/>
<polygon fill="white" stroke="white" points="216.61,-1251.97 215.57,-1255.31 226.16,-1254.95 216.61,-1251.97"/>
<g id="a_edge27&#45;label"><a xlink:title="Output Expressions: &#10; (1) n_nationkey&#10; (2) n_name&#10;&#10;Unique Column Combinations: &#10; (1) {n_nationkey}&#10;&#10;Functional Dependencies (trivial): &#10; (1) {n_nationkey} =&gt; {n_name}&#10;&#10;Functional Dependencies (non&#45;trivial): &#10; &lt;none&gt;">
<text text-anchor="middle" x="273" y="-1225.8" font-family="Times,serif" font-size="14.00" fill="white"> 1.0 row(s) | 4.0% estd.</text>
</a>
</g>
</g>
<!-- 140209245982864 -->
<g id="node26" class="node">
<title>140209245982864</title>
<polygon fill="none" stroke="white" points="378,-1117 0,-1117 0,-1079 378,-1079 378,-1117"/>
<text text-anchor="middle" x="189" y="-1101.8" font-family="Times,serif" font-size="14.00" fill="white">[StoredTable] Name: &#39;nation&#39; pruned: 0/1 chunk(s),</text>
<text text-anchor="middle" x="189" y="-1086.8" font-family="Times,serif" font-size="14.00" fill="white">2/4 column(s)</text>
</g>
<!-- 140209245982864&#45;&gt;140526466772944 -->
<g id="edge28" class="edge">
<title>140209245982864&#45;&gt;140526466772944</title>
<path fill="none" stroke="white" d="M189,-1117.24C189,-1129.07 189,-1144.68 189,-1157.95"/>
<polygon fill="white" stroke="white" points="185.5,-1157.96 189,-1167.96 192.5,-1157.96 185.5,-1157.96"/>
<g id="a_edge28&#45;label"><a xlink:title="Output Expressions: &#10; (1) n_nationkey&#10; (2) n_name&#10;&#10;Unique Column Combinations: &#10; (1) {n_nationkey}&#10;&#10;Functional Dependencies (trivial): &#10; (1) {n_nationkey} =&gt; {n_name}&#10;&#10;Functional Dependencies (non&#45;trivial): &#10; &lt;none&gt;">
<text text-anchor="middle" x="285.5" y="-1138.8" font-family="Times,serif" font-size="14.00" fill="white"> 25.0 row(s) | 100.0% estd.</text>
</a>
</g>
</g>
</g>
</svg>
