<?xml version="1.0" encoding="UTF-8" standalone="no"?>
<!DOCTYPE svg PUBLIC "-//W3C//DTD SVG 1.1//EN"
 "http://www.w3.org/Graphics/SVG/1.1/DTD/svg11.dtd">
<!-- Generated by graphviz version 2.43.0 (0)
 -->
<!-- Title: G Pages: 1 -->
<svg width="874pt" height="1370pt"
 viewBox="0.00 0.00 874.00 1370.00" xmlns="http://www.w3.org/2000/svg" xmlns:xlink="http://www.w3.org/1999/xlink">
<g id="graph0" class="graph" transform="scale(1 1) rotate(0) translate(4 1366)">
<title>G</title>
<polygon fill="black" stroke="transparent" points="-4,4 -4,-1366 870,-1366 870,4 -4,4"/>
<text text-anchor="middle" x="319.5" y="-1346.8" font-family="Times,serif" font-size="14.00" fill="white">For tooltips with advanced information, hover your mouse over vertices or edge labels.</text>
<!-- 139679109866064 -->
<g id="node1" class="node">
<title>139679109866064</title>
<g id="a_node1"><a xlink:title="Output: 5 rows in 1 chunk, 4 µs 969 ns.">
<polygon fill="none" stroke="white" points="589,-1307 362,-1307 362,-1238 589,-1238 589,-1307"/>
<text text-anchor="middle" x="475.5" y="-1291.8" font-family="Times,serif" font-size="14.00" fill="white">Alias</text>
<text text-anchor="middle" x="475.5" y="-1276.8" font-family="Times,serif" font-size="14.00" fill="white">[o_orderpriority, order_count]</text>
<text text-anchor="middle" x="475.5" y="-1245.8" font-family="Times,serif" font-size="14.00" fill="white">4 µs 969 ns</text>
</a>
</g>
</g>
<!-- 139679109865744 -->
<g id="node2" class="node">
<title>139679109865744</title>
<g id="a_node2"><a xlink:title="Output: 5 rows in 1 chunk, 67 µs 276 ns.&#10;Operator step runtimes:&#10; MaterializeSortColumns 10 µs 130 ns&#10; Sort 4 µs 989 ns&#10; TemporaryResultWriting 320 ns&#10; WriteOutput 48 µs 151 ns.">
<polygon fill="none" stroke="white" points="529.5,-1187 421.5,-1187 421.5,-1133 529.5,-1133 529.5,-1187"/>
<text text-anchor="middle" x="475.5" y="-1171.8" font-family="Times,serif" font-size="14.00" fill="white">Sort</text>
<text text-anchor="middle" x="475.5" y="-1140.8" font-family="Times,serif" font-size="14.00" fill="white">67 µs 276 ns</text>
</a>
</g>
</g>
<!-- 139679109865744&#45;&gt;139679109866064 -->
<g id="edge1" class="edge">
<title>139679109865744&#45;&gt;139679109866064</title>
<path fill="none" stroke="white" d="M475.5,-1187.19C475.5,-1199.29 475.5,-1214 475.5,-1227.72"/>
<polygon fill="white" stroke="white" points="472,-1227.95 475.5,-1237.95 479,-1227.96 472,-1227.95"/>
<text text-anchor="middle" x="544.5" y="-1208.8" font-family="Times,serif" font-size="14.00" fill="white">5 row(s)/1 chunk(s)</text>
</g>
<!-- 139841276889104 -->
<g id="node3" class="node">
<title>139841276889104</title>
<g id="a_node3"><a xlink:title="Output: 5 rows in 1 chunk, 334 ms 647 µs.&#10;Operator step runtimes:&#10; GroupByKeyPartitioning 317 ms 532 µs&#10; Aggregating 17 ms 51 µs&#10; GroupByColumnsWriting 10 µs 260 ns&#10; AggregateColumnsWriting 19 µs 676 ns&#10; OutputWriting 11 µs 782 ns.">
<polygon fill="none" stroke="white" stroke-width="6.15" points="580.5,-1082 370.5,-1082 370.5,-998 580.5,-998 580.5,-1082"/>
<text text-anchor="middle" x="475.5" y="-1066.8" font-family="Times,serif" font-size="14.00" fill="white">AggregateHash</text>
<text text-anchor="middle" x="475.5" y="-1051.8" font-family="Times,serif" font-size="14.00" fill="white">GroupBy {o_orderpriority}</text>
<text text-anchor="middle" x="475.5" y="-1036.8" font-family="Times,serif" font-size="14.00" fill="white">COUNT(*)</text>
<text text-anchor="middle" x="475.5" y="-1005.8" font-family="Times,serif" font-size="14.00" fill="white">334 ms 647 µs</text>
</a>
</g>
</g>
<!-- 139841276889104&#45;&gt;139679109865744 -->
<g id="edge2" class="edge">
<title>139841276889104&#45;&gt;139679109865744</title>
<path fill="none" stroke="white" d="M475.5,-1082.27C475.5,-1095.36 475.5,-1109.72 475.5,-1122.45"/>
<polygon fill="white" stroke="white" points="472,-1122.69 475.5,-1132.69 479,-1122.69 472,-1122.69"/>
<text text-anchor="middle" x="544.5" y="-1103.8" font-family="Times,serif" font-size="14.00" fill="white">5 row(s)/1 chunk(s)</text>
</g>
<!-- 139679109865424 -->
<g id="node4" class="node">
<title>139679109865424</title>
<g id="a_node4"><a xlink:title="Output: 2630181 rows in 16 chunks, 181 ms 946 µs.&#10;Operator step runtimes:&#10; BuildSideMaterializing 117 ms 239 µs&#10; ProbeSideMaterializing 24 ms 89 µs&#10; Clustering 14 ms 717 µs&#10; Building 13 ms 133 µs&#10; Probing 6 ms 829 µs&#10; OutputWriting 5 ms 735 µs.&#10;Radix bits: 6.&#10;Build side is right.">
<polygon fill="none" stroke="white" stroke-width="4.65" points="571,-947 380,-947 380,-878 571,-878 571,-947"/>
<text text-anchor="middle" x="475.5" y="-931.8" font-family="Times,serif" font-size="14.00" fill="white">JoinHash (Semi)</text>
<text text-anchor="middle" x="475.5" y="-916.8" font-family="Times,serif" font-size="14.00" fill="white">o_orderkey = l_orderkey</text>
<text text-anchor="middle" x="475.5" y="-885.8" font-family="Times,serif" font-size="14.00" fill="white">181 ms 946 µs</text>
</a>
</g>
</g>
<!-- 139679109865424&#45;&gt;139841276889104 -->
<g id="edge3" class="edge">
<title>139679109865424&#45;&gt;139841276889104</title>
<path fill="none" stroke="white" d="M475.5,-947.13C475.5,-959.51 475.5,-973.84 475.5,-987.44"/>
<polygon fill="white" stroke="white" points="472,-987.65 475.5,-997.65 479,-987.65 472,-987.65"/>
<text text-anchor="middle" x="580.5" y="-968.8" font-family="Times,serif" font-size="14.00" fill="white">2,630,181 row(s)/16 chunk(s)</text>
</g>
<!-- 139841276952592 -->
<g id="node5" class="node">
<title>139841276952592</title>
<g id="a_node5"><a xlink:title="Output: 2868403 rows in 1145 chunks, 1 ms 824 µs.">
<polygon fill="none" stroke="white" points="513.5,-437 409.5,-437 409.5,-383 513.5,-383 513.5,-437"/>
<text text-anchor="middle" x="461.5" y="-421.8" font-family="Times,serif" font-size="14.00" fill="white">Validate</text>
<text text-anchor="middle" x="461.5" y="-390.8" font-family="Times,serif" font-size="14.00" fill="white">1 ms 824 µs</text>
</a>
</g>
</g>
<!-- 139841276952592&#45;&gt;139679109865424 -->
<g id="edge4" class="edge">
<title>139841276952592&#45;&gt;139679109865424</title>
<path fill="none" stroke="white" d="M513.65,-434.94C534.64,-447.09 557.22,-463.81 571.5,-485 588.38,-510.05 585.5,-521.3 585.5,-551.5 585.5,-551.5 585.5,-551.5 585.5,-786 585.5,-819.47 591.29,-833.01 571.5,-860 568.58,-863.98 565.25,-867.69 561.64,-871.14"/>
<polygon fill="white" stroke="white" points="561.42,-871.32 559.14,-868.67 553.84,-877.85 561.42,-871.32"/>
<text text-anchor="middle" x="701.5" y="-661.3" font-family="Times,serif" font-size="14.00" fill="white">2,868,403 row(s)/1,145 chunk(s)</text>
</g>
<!-- 139679109864144 -->
<g id="node10" class="node">
<title>139679109864144</title>
<g id="a_node10"><a xlink:title="Output: 11480447 rows in 8 chunks, 709 ms 48 µs.&#10;Operator step runtimes:&#10; BuildSideMaterializing 27 ms 65 µs&#10; ProbeSideMaterializing 166 ms 74 µs&#10; Clustering 286 ms 319 µs&#10; Building 5 ms 908 µs&#10; Probing 220 ms 799 µs&#10; OutputWriting 84 µs 278 ns.&#10;Radix bits: 5.&#10;Build side is right.">
<polygon fill="none" stroke="white" stroke-width="8" points="442.5,-587 234.5,-587 234.5,-518 442.5,-518 442.5,-587"/>
<text text-anchor="middle" x="338.5" y="-571.8" font-family="Times,serif" font-size="14.00" fill="white">JoinHash (Semi Reduction)</text>
<text text-anchor="middle" x="338.5" y="-556.8" font-family="Times,serif" font-size="14.00" fill="white">l_orderkey = o_orderkey</text>
<text text-anchor="middle" x="338.5" y="-525.8" font-family="Times,serif" font-size="14.00" fill="white">709 ms 48 µs</text>
</a>
</g>
</g>
<!-- 139841276952592&#45;&gt;139679109864144 -->
<g id="edge5" class="edge">
<title>139841276952592&#45;&gt;139679109864144</title>
<path fill="none" stroke="white" d="M409.19,-428.76C383.4,-440.45 354.65,-458.56 339.5,-485 335.54,-491.9 333.65,-499.91 332.98,-507.92"/>
<polygon fill="white" stroke="white" points="332.74,-517.99 336.48,-508.08 332.98,-508 332.74,-517.99"/>
<text text-anchor="middle" x="455.5" y="-488.8" font-family="Times,serif" font-size="14.00" fill="white">2,868,403 row(s)/1,145 chunk(s)</text>
</g>
<!-- 139679109864464 -->
<g id="node6" class="node">
<title>139679109864464</title>
<g id="a_node6"><a xlink:title="Output: 2868403 rows in 1145 chunks, 4 ms 261 µs.&#10;Chunks: 0 skipped with no results, &#10;0 skipped with all matching, 0 scanned using binary search.">
<polygon fill="none" stroke="white" points="674,-302 249,-302 249,-203 674,-203 674,-302"/>
<text text-anchor="middle" x="461.5" y="-286.8" font-family="Times,serif" font-size="14.00" fill="white">TableScan</text>
<text text-anchor="middle" x="461.5" y="-271.8" font-family="Times,serif" font-size="14.00" fill="white">Impl: ColumnBetween</text>
<text text-anchor="middle" x="461.5" y="-256.8" font-family="Times,serif" font-size="14.00" fill="white">o_orderdate BETWEEN UPPER EXCLUSIVE &#39;1997&#45;03&#45;01&#39;</text>
<text text-anchor="middle" x="461.5" y="-241.8" font-family="Times,serif" font-size="14.00" fill="white">AND &#39;1997&#45;06&#45;01&#39;</text>
<text text-anchor="middle" x="461.5" y="-210.8" font-family="Times,serif" font-size="14.00" fill="white">4 ms 261 µs</text>
</a>
</g>
</g>
<!-- 139679109864464&#45;&gt;139841276952592 -->
<g id="edge6" class="edge">
<title>139679109864464&#45;&gt;139841276952592</title>
<path fill="none" stroke="white" d="M461.5,-302.27C461.5,-324.98 461.5,-351.53 461.5,-372.47"/>
<polygon fill="white" stroke="white" points="458,-372.56 461.5,-382.56 465,-372.56 458,-372.56"/>
<text text-anchor="middle" x="577.5" y="-323.8" font-family="Times,serif" font-size="14.00" fill="white">2,868,403 row(s)/1,145 chunk(s)</text>
</g>
<!-- 139678061402000 -->
<g id="node7" class="node">
<title>139678061402000</title>
<g id="a_node7"><a xlink:title="Output: 75000000 rows in 1145 chunks, 3 ms 929 µs.">
<polygon fill="none" stroke="white" points="527,-133 396,-133 396,-19 527,-19 527,-133"/>
<text text-anchor="middle" x="461.5" y="-117.8" font-family="Times,serif" font-size="14.00" fill="white">GetTable</text>
<text text-anchor="middle" x="461.5" y="-102.8" font-family="Times,serif" font-size="14.00" fill="white">(orders)</text>
<text text-anchor="middle" x="461.5" y="-87.8" font-family="Times,serif" font-size="14.00" fill="white">pruned:</text>
<text text-anchor="middle" x="461.5" y="-72.8" font-family="Times,serif" font-size="14.00" fill="white">0/1145 chunk(s)</text>
<text text-anchor="middle" x="461.5" y="-57.8" font-family="Times,serif" font-size="14.00" fill="white">6/9 column(s)</text>
<text text-anchor="middle" x="461.5" y="-26.8" font-family="Times,serif" font-size="14.00" fill="white">3 ms 929 µs</text>
</a>
</g>
</g>
<!-- 139678061402000&#45;&gt;139679109864464 -->
<g id="edge7" class="edge">
<title>139678061402000&#45;&gt;139679109864464</title>
<path fill="none" stroke="white" stroke-width="4.58" d="M461.5,-133.17C461.5,-152.18 461.5,-173.44 461.5,-192.64"/>
<polygon fill="white" stroke="white" stroke-width="4.58" points="457.49,-192.77 461.5,-202.77 465.51,-192.77 457.49,-192.77"/>
<text text-anchor="middle" x="582" y="-173.8" font-family="Times,serif" font-size="14.00" fill="white">75,000,000 row(s)/1,145 chunk(s)</text>
</g>
<!-- 139679109865104 -->
<g id="node8" class="node">
<title>139679109865104</title>
<g id="a_node8"><a xlink:title="Output: 7257665 rows in 8 chunks, 269 ms 186 µs.&#10;Chunks: 0 skipped with no results, &#10;0 skipped with all matching, 0 scanned using binary search.">
<polygon fill="none" stroke="white" stroke-width="5.61" points="477,-827 250,-827 250,-743 477,-743 477,-827"/>
<text text-anchor="middle" x="363.5" y="-811.8" font-family="Times,serif" font-size="14.00" fill="white">TableScan</text>
<text text-anchor="middle" x="363.5" y="-796.8" font-family="Times,serif" font-size="14.00" fill="white">Impl: ColumnVsColumn</text>
<text text-anchor="middle" x="363.5" y="-781.8" font-family="Times,serif" font-size="14.00" fill="white">l_commitdate &lt; l_receiptdate</text>
<text text-anchor="middle" x="363.5" y="-750.8" font-family="Times,serif" font-size="14.00" fill="white">269 ms 186 µs</text>
</a>
</g>
</g>
<!-- 139679109865104&#45;&gt;139679109865424 -->
<g id="edge8" class="edge">
<title>139679109865104&#45;&gt;139679109865424</title>
<path fill="none" stroke="white" d="M360.22,-827.32C361.14,-838.73 363.97,-850.55 370.5,-860 373.17,-863.86 376.21,-867.45 379.54,-870.77"/>
<polygon fill="white" stroke="white" points="387.25,-877.65 382.12,-868.38 379.79,-870.99 387.25,-877.65"/>
<text text-anchor="middle" x="471" y="-848.8" font-family="Times,serif" font-size="14.00" fill="white">7,257,665 row(s)/8 chunk(s)</text>
</g>
<!-- 139841277002256 -->
<g id="node9" class="node">
<title>139841277002256</title>
<g id="a_node9"><a xlink:title="Output: 11480447 rows in 8 chunks, 7 ms 23 µs.">
<polygon fill="none" stroke="white" points="408,-692 313,-692 313,-638 408,-638 408,-692"/>
<text text-anchor="middle" x="360.5" y="-676.8" font-family="Times,serif" font-size="14.00" fill="white">Validate</text>
<text text-anchor="middle" x="360.5" y="-645.8" font-family="Times,serif" font-size="14.00" fill="white">7 ms 23 µs</text>
</a>
</g>
</g>
<!-- 139841277002256&#45;&gt;139679109865104 -->
<g id="edge9" class="edge">
<title>139841277002256&#45;&gt;139679109865104</title>
<path fill="none" stroke="white" d="M360.85,-692.14C361.01,-702.39 361.23,-714.25 361.5,-725 361.56,-727.51 361.63,-730.08 361.71,-732.68"/>
<polygon fill="white" stroke="white" points="358.21,-732.85 362.01,-742.74 365.21,-732.64 358.21,-732.85"/>
<text text-anchor="middle" x="466.5" y="-713.8" font-family="Times,serif" font-size="14.00" fill="white">11,480,447 row(s)/8 chunk(s)</text>
</g>
<!-- 139679109864144&#45;&gt;139841277002256 -->
<g id="edge10" class="edge">
<title>139679109864144&#45;&gt;139841277002256</title>
<path fill="none" stroke="white" d="M345.22,-587.25C347.77,-600.07 350.69,-614.73 353.29,-627.77"/>
<polygon fill="white" stroke="white" points="349.9,-628.69 355.29,-637.81 356.77,-627.32 349.9,-628.69"/>
<text text-anchor="middle" x="455.5" y="-608.8" font-family="Times,serif" font-size="14.00" fill="white">11,480,447 row(s)/8 chunk(s)</text>
</g>
<!-- 139678061402448 -->
<g id="node11" class="node">
<title>139678061402448</title>
<g id="a_node11"><a xlink:title="Output: 300005811 rows in 4578 chunks, 6 ms 654 µs.">
<polygon fill="none" stroke="white" points="131,-467 0,-467 0,-353 131,-353 131,-467"/>
<text text-anchor="middle" x="65.5" y="-451.8" font-family="Times,serif" font-size="14.00" fill="white">GetTable</text>
<text text-anchor="middle" x="65.5" y="-436.8" font-family="Times,serif" font-size="14.00" fill="white">(lineitem)</text>
<text text-anchor="middle" x="65.5" y="-421.8" font-family="Times,serif" font-size="14.00" fill="white">pruned:</text>
<text text-anchor="middle" x="65.5" y="-406.8" font-family="Times,serif" font-size="14.00" fill="white">0/4578 chunk(s)</text>
<text text-anchor="middle" x="65.5" y="-391.8" font-family="Times,serif" font-size="14.00" fill="white">13/16 column(s)</text>
<text text-anchor="middle" x="65.5" y="-360.8" font-family="Times,serif" font-size="14.00" fill="white">6 ms 654 µs</text>
</a>
</g>
</g>
<!-- 139678061402448&#45;&gt;139679109864144 -->
<g id="edge11" class="edge">
<title>139678061402448&#45;&gt;139679109864144</title>
<path fill="none" stroke="white" stroke-width="8" d="M64.05,-467.02C66.33,-479.2 70.94,-491.09 79.5,-500 99.8,-521.14 164.43,-534.01 224.04,-541.59"/>
<polygon fill="white" stroke="white" stroke-width="8" points="224.4,-541.64 223.55,-548.59 234.33,-542.86 224.4,-541.64"/>
<text text-anchor="middle" x="204.5" y="-488.8" font-family="Times,serif" font-size="14.00" fill="white">300,005,811 row(s)/4,578 chunk(s)</text>
</g>
<!-- 0 -->
<g id="node12" class="node">
<title>0</title>
<polygon fill="none" stroke="white" points="545,-0.5 545,-151.5 866,-151.5 866,-0.5 545,-0.5"/>
<text text-anchor="middle" x="705.5" y="-136.3" font-family="Times,serif" font-size="14.00" fill="white">Total by operator</text>
<polyline fill="none" stroke="white" points="545,-128.5 866,-128.5 "/>
<text text-anchor="end" x="674" y="-113.3" font-family="Times,serif" font-size="14.00" fill="white">JoinHash </text>
<text text-anchor="end" x="674" y="-98.3" font-family="Times,serif" font-size="14.00" fill="white"> AggregateHash </text>
<text text-anchor="end" x="674" y="-83.3" font-family="Times,serif" font-size="14.00" fill="white"> TableScan </text>
<text text-anchor="end" x="674" y="-68.3" font-family="Times,serif" font-size="14.00" fill="white"> GetTable </text>
<text text-anchor="end" x="674" y="-53.3" font-family="Times,serif" font-size="14.00" fill="white"> Validate </text>
<text text-anchor="end" x="674" y="-38.3" font-family="Times,serif" font-size="14.00" fill="white"> Sort </text>
<text text-anchor="end" x="674" y="-23.3" font-family="Times,serif" font-size="14.00" fill="white"> Alias </text>
<text text-anchor="end" x="674" y="-8.3" font-family="Times,serif" font-size="14.00" fill="white">total</text>
<polyline fill="none" stroke="white" points="682,-0.5 682,-128.5 "/>
<text text-anchor="start" x="690" y="-113.3" font-family="Times,serif" font-size="14.00" fill="white">890 ms 994 µs </text>
<text text-anchor="start" x="690" y="-98.3" font-family="Times,serif" font-size="14.00" fill="white"> 334 ms 647 µs </text>
<text text-anchor="start" x="690" y="-83.3" font-family="Times,serif" font-size="14.00" fill="white"> 273 ms 446 µs </text>
<text text-anchor="start" x="690" y="-68.3" font-family="Times,serif" font-size="14.00" fill="white"> 10 ms 583 µs </text>
<text text-anchor="start" x="690" y="-53.3" font-family="Times,serif" font-size="14.00" fill="white"> 8 ms 846 µs </text>
<text text-anchor="start" x="690" y="-38.3" font-family="Times,serif" font-size="14.00" fill="white"> 67 µs 276 ns </text>
<text text-anchor="start" x="690" y="-23.3" font-family="Times,serif" font-size="14.00" fill="white"> 4 µs 969 ns </text>
<text text-anchor="start" x="690" y="-8.3" font-family="Times,serif" font-size="14.00" fill="white"> 1 s 519 ms </text>
<polyline fill="none" stroke="white" points="813,-0.5 813,-128.5 "/>
<text text-anchor="start" x="821" y="-113.3" font-family="Times,serif" font-size="14.00" fill="white">59 %</text>
<text text-anchor="start" x="821" y="-98.3" font-family="Times,serif" font-size="14.00" fill="white">22 %</text>
<text text-anchor="start" x="821" y="-83.3" font-family="Times,serif" font-size="14.00" fill="white">18 %</text>
<text text-anchor="start" x="821" y="-68.3" font-family="Times,serif" font-size="14.00" fill="white">1 %</text>
<text text-anchor="start" x="821" y="-53.3" font-family="Times,serif" font-size="14.00" fill="white">1 %</text>
<text text-anchor="start" x="821" y="-38.3" font-family="Times,serif" font-size="14.00" fill="white">0 %</text>
<text text-anchor="start" x="821" y="-23.3" font-family="Times,serif" font-size="14.00" fill="white">0 %</text>
<text text-anchor="start" x="821" y="-8.3" font-family="Times,serif" font-size="14.00" fill="white"> </text>
</g>
</g>
</svg>
