<?xml version="1.0" encoding="UTF-8" standalone="no"?>
<!DOCTYPE svg PUBLIC "-//W3C//DTD SVG 1.1//EN"
 "http://www.w3.org/Graphics/SVG/1.1/DTD/svg11.dtd">
<!-- Generated by graphviz version 2.43.0 (0)
 -->
<!-- Title: G Pages: 1 -->
<svg width="1156pt" height="2303pt"
 viewBox="0.00 0.00 1155.50 2303.00" xmlns="http://www.w3.org/2000/svg" xmlns:xlink="http://www.w3.org/1999/xlink">
<g id="graph0" class="graph" transform="scale(1 1) rotate(0) translate(4 2299)">
<title>G</title>
<polygon fill="black" stroke="transparent" points="-4,4 -4,-2299 1151.5,-2299 1151.5,4 -4,4"/>
<text text-anchor="middle" x="319.5" y="-2279.8" font-family="Times,serif" font-size="14.00" fill="white">For tooltips with advanced information, hover your mouse over vertices or edge labels.</text>
<!-- 139841163014416 -->
<g id="node1" class="node">
<title>139841163014416</title>
<g id="a_node1"><a xlink:title="Output: 100 rows in 1 chunk, 14 µs 577 ns.&#10;Operator step runtimes:&#10; ForwardUnmodifiedColumns 5 µs 360 ns&#10; EvaluateNewColumns 1 µs 703 ns&#10; BuildOutput 5 µs 440 ns.">
<polygon fill="none" stroke="white" points="514.5,-2240 406.5,-2240 406.5,-2186 514.5,-2186 514.5,-2240"/>
<text text-anchor="middle" x="460.5" y="-2224.8" font-family="Times,serif" font-size="14.00" fill="white">Projection</text>
<text text-anchor="middle" x="460.5" y="-2193.8" font-family="Times,serif" font-size="14.00" fill="white">14 µs 577 ns</text>
</a>
</g>
</g>
<!-- 139841162138384 -->
<g id="node2" class="node">
<title>139841162138384</title>
<g id="a_node2"><a xlink:title="Output: 100 rows in 1 chunk, 18 µs 575 ns.">
<polygon fill="none" stroke="white" points="514.5,-2135 406.5,-2135 406.5,-2081 514.5,-2081 514.5,-2135"/>
<text text-anchor="middle" x="460.5" y="-2119.8" font-family="Times,serif" font-size="14.00" fill="white">Limit</text>
<text text-anchor="middle" x="460.5" y="-2088.8" font-family="Times,serif" font-size="14.00" fill="white">18 µs 575 ns</text>
</a>
</g>
</g>
<!-- 139841162138384&#45;&gt;139841163014416 -->
<g id="edge1" class="edge">
<title>139841162138384&#45;&gt;139841163014416</title>
<path fill="none" stroke="white" d="M460.5,-2135.26C460.5,-2147.49 460.5,-2162.24 460.5,-2175.52"/>
<polygon fill="white" stroke="white" points="457,-2175.79 460.5,-2185.79 464,-2175.79 457,-2175.79"/>
<text text-anchor="middle" x="538.5" y="-2156.8" font-family="Times,serif" font-size="14.00" fill="white">100 row(s)/1 chunk(s)</text>
</g>
<!-- 139841163014736 -->
<g id="node3" class="node">
<title>139841163014736</title>
<g id="a_node3"><a xlink:title="Output: 23487 rows in 1 chunk, 39 ms 480 µs.&#10;Operator step runtimes:&#10; MaterializeSortColumns 11 ms 517 µs&#10; Sort 24 ms 44 µs&#10; TemporaryResultWriting 361 µs 821 ns&#10; WriteOutput 3 ms 25 µs.">
<polygon fill="none" stroke="white" stroke-width="8" points="517,-2030 404,-2030 404,-1976 517,-1976 517,-2030"/>
<text text-anchor="middle" x="460.5" y="-2014.8" font-family="Times,serif" font-size="14.00" fill="white">Sort</text>
<text text-anchor="middle" x="460.5" y="-1983.8" font-family="Times,serif" font-size="14.00" fill="white">39 ms 480 µs</text>
</a>
</g>
</g>
<!-- 139841163014736&#45;&gt;139841162138384 -->
<g id="edge2" class="edge">
<title>139841163014736&#45;&gt;139841162138384</title>
<path fill="none" stroke="white" d="M460.5,-2030.26C460.5,-2042.49 460.5,-2057.24 460.5,-2070.52"/>
<polygon fill="white" stroke="white" points="457,-2070.79 460.5,-2080.79 464,-2070.79 457,-2070.79"/>
<text text-anchor="middle" x="549.5" y="-2051.8" font-family="Times,serif" font-size="14.00" fill="white">23,487 row(s)/1 chunk(s)</text>
</g>
<!-- 139841163014096 -->
<g id="node4" class="node">
<title>139841163014096</title>
<g id="a_node4"><a xlink:title="Output: 23487 rows in 26 chunks, 11 ms 411 µs.&#10;Operator step runtimes:&#10; BuildSideMaterializing 377 µs 408 ns&#10; ProbeSideMaterializing 1 ms 170 µs&#10; Clustering 0 ns&#10; Building 903 µs 205 ns&#10; Probing 8 ms 441 µs&#10; OutputWriting 451 µs 177 ns.&#10;Radix bits: 0.&#10;Build side is right.">
<polygon fill="none" stroke="white" stroke-width="4.94" points="600,-1925 321,-1925 321,-1841 600,-1841 600,-1925"/>
<text text-anchor="middle" x="460.5" y="-1909.8" font-family="Times,serif" font-size="14.00" fill="white">JoinHash (Semi)</text>
<text text-anchor="middle" x="460.5" y="-1894.8" font-family="Times,serif" font-size="14.00" fill="white">ps_supplycost = MIN(ps_supplycost)</text>
<text text-anchor="middle" x="460.5" y="-1879.8" font-family="Times,serif" font-size="14.00" fill="white">AND p_partkey = ps_partkey</text>
<text text-anchor="middle" x="460.5" y="-1848.8" font-family="Times,serif" font-size="14.00" fill="white">11 ms 411 µs</text>
</a>
</g>
</g>
<!-- 139841163014096&#45;&gt;139841163014736 -->
<g id="edge3" class="edge">
<title>139841163014096&#45;&gt;139841163014736</title>
<path fill="none" stroke="white" d="M460.5,-1925.27C460.5,-1938.36 460.5,-1952.72 460.5,-1965.45"/>
<polygon fill="white" stroke="white" points="457,-1965.69 460.5,-1975.69 464,-1965.69 457,-1965.69"/>
<text text-anchor="middle" x="554" y="-1946.8" font-family="Times,serif" font-size="14.00" fill="white">23,487 row(s)/26 chunk(s)</text>
</g>
<!-- 139841163013136 -->
<g id="node5" class="node">
<title>139841163013136</title>
<g id="a_node5"><a xlink:title="Output: 32064 rows in 51 chunks, 11 ms 605 µs.&#10;Operator step runtimes:&#10; BuildSideMaterializing 2 ms 175 µs&#10; ProbeSideMaterializing 5 ms 351 µs&#10; Clustering 0 ns&#10; Building 2 ms 292 µs&#10; Probing 846 µs 949 ns&#10; OutputWriting 842 µs 91 ns.&#10;Radix bits: 0.&#10;Build side is left.">
<polygon fill="none" stroke="white" stroke-width="4.98" points="417.5,-1790 231.5,-1790 231.5,-1721 417.5,-1721 417.5,-1790"/>
<text text-anchor="middle" x="324.5" y="-1774.8" font-family="Times,serif" font-size="14.00" fill="white">JoinHash (Inner)</text>
<text text-anchor="middle" x="324.5" y="-1759.8" font-family="Times,serif" font-size="14.00" fill="white">ps_partkey = p_partkey</text>
<text text-anchor="middle" x="324.5" y="-1728.8" font-family="Times,serif" font-size="14.00" fill="white">11 ms 605 µs</text>
</a>
</g>
</g>
<!-- 139841163013136&#45;&gt;139841163014096 -->
<g id="edge4" class="edge">
<title>139841163013136&#45;&gt;139841163014096</title>
<path fill="none" stroke="white" d="M348.97,-1790.14C357.71,-1801.16 368.01,-1813.1 378.5,-1823 382.67,-1826.93 387.11,-1830.82 391.68,-1834.61"/>
<polygon fill="white" stroke="white" points="391.7,-1834.63 389.5,-1837.35 399.48,-1840.9 391.7,-1834.63"/>
<text text-anchor="middle" x="472" y="-1811.8" font-family="Times,serif" font-size="14.00" fill="white">32,064 row(s)/51 chunk(s)</text>
</g>
<!-- 139841163012816 -->
<g id="node6" class="node">
<title>139841163012816</title>
<g id="a_node6"><a xlink:title="Output: 32064 rows in 8 chunks, 4 ms 75 µs.&#10;Operator step runtimes:&#10; BuildSideMaterializing 1 ms 383 µs&#10; ProbeSideMaterializing 226 µs 725 ns&#10; Clustering 0 ns&#10; Building 1 ms 681 µs&#10; Probing 416 µs 612 ns&#10; OutputWriting 309 µs 962 ns.&#10;Radix bits: 0.&#10;Build side is left.">
<polygon fill="none" stroke="white" stroke-width="2.4" points="421.5,-1601 227.5,-1601 227.5,-1532 421.5,-1532 421.5,-1601"/>
<text text-anchor="middle" x="324.5" y="-1585.8" font-family="Times,serif" font-size="14.00" fill="white">JoinHash (Inner)</text>
<text text-anchor="middle" x="324.5" y="-1570.8" font-family="Times,serif" font-size="14.00" fill="white">ps_suppkey = s_suppkey</text>
<text text-anchor="middle" x="324.5" y="-1539.8" font-family="Times,serif" font-size="14.00" fill="white">4 ms 75 µs</text>
</a>
</g>
</g>
<!-- 139841163012816&#45;&gt;139841163013136 -->
<g id="edge5" class="edge">
<title>139841163012816&#45;&gt;139841163013136</title>
<path fill="none" stroke="white" d="M324.5,-1601.36C324.5,-1631.95 324.5,-1677.13 324.5,-1710.5"/>
<polygon fill="white" stroke="white" points="324.5,-1710.89 321,-1710.89 324.5,-1720.89 324.5,-1710.89"/>
<text text-anchor="middle" x="413.5" y="-1657.3" font-family="Times,serif" font-size="14.00" fill="white">32,064 row(s)/8 chunk(s)</text>
</g>
<!-- 139841161430288 -->
<g id="node7" class="node">
<title>139841161430288</title>
<g id="a_node7"><a xlink:title="Output: 32064 rows in 57 chunks, 527 µs 249 ns.">
<polygon fill="none" stroke="white" points="538,-1481 421,-1481 421,-1427 538,-1427 538,-1481"/>
<text text-anchor="middle" x="479.5" y="-1465.8" font-family="Times,serif" font-size="14.00" fill="white">Validate</text>
<text text-anchor="middle" x="479.5" y="-1434.8" font-family="Times,serif" font-size="14.00" fill="white">527 µs 249 ns</text>
</a>
</g>
</g>
<!-- 139841161430288&#45;&gt;139841163012816 -->
<g id="edge6" class="edge">
<title>139841161430288&#45;&gt;139841163012816</title>
<path fill="none" stroke="white" d="M442.77,-1481.19C423.96,-1494.6 400.67,-1511.2 379.75,-1526.12"/>
<polygon fill="white" stroke="white" points="379.7,-1526.15 377.67,-1523.3 371.55,-1531.95 379.7,-1526.15"/>
<text text-anchor="middle" x="509" y="-1502.8" font-family="Times,serif" font-size="14.00" fill="white">32,064 row(s)/57 chunk(s)</text>
</g>
<!-- 139841163012496 -->
<g id="node8" class="node">
<title>139841163012496</title>
<g id="a_node8"><a xlink:title="Output: 32064 rows in 57 chunks, 8 ms 13 µs.&#10;Operator step runtimes:&#10; BuildSideMaterializing 301 µs 696 ns&#10; ProbeSideMaterializing 5 ms 370 µs&#10; Clustering 0 ns&#10; Building 929 µs 856 ns&#10; Probing 493 µs 456 ns&#10; OutputWriting 647 µs 856 ns.&#10;Radix bits: 0.&#10;Build side is right.">
<polygon fill="none" stroke="white" stroke-width="4.07" points="593.5,-1376 385.5,-1376 385.5,-1307 593.5,-1307 593.5,-1376"/>
<text text-anchor="middle" x="489.5" y="-1360.8" font-family="Times,serif" font-size="14.00" fill="white">JoinHash (Semi Reduction)</text>
<text text-anchor="middle" x="489.5" y="-1345.8" font-family="Times,serif" font-size="14.00" fill="white">ps_suppkey = s_suppkey</text>
<text text-anchor="middle" x="489.5" y="-1314.8" font-family="Times,serif" font-size="14.00" fill="white">8 ms 13 µs</text>
</a>
</g>
</g>
<!-- 139841163012496&#45;&gt;139841161430288 -->
<g id="edge7" class="edge">
<title>139841163012496&#45;&gt;139841161430288</title>
<path fill="none" stroke="white" d="M486.45,-1376.25C485.29,-1389.07 483.96,-1403.73 482.78,-1416.77"/>
<polygon fill="white" stroke="white" points="479.29,-1416.54 481.87,-1426.81 486.26,-1417.17 479.29,-1416.54"/>
<text text-anchor="middle" x="578" y="-1397.8" font-family="Times,serif" font-size="14.00" fill="white">32,064 row(s)/57 chunk(s)</text>
</g>
<!-- 139841163009296 -->
<g id="node9" class="node">
<title>139841163009296</title>
<g id="a_node9"><a xlink:title="Output: 159560 rows in 269 chunks, 25 ms 721 µs.&#10;Operator step runtimes:&#10; BuildSideMaterializing 6 ms 685 µs&#10; ProbeSideMaterializing 11 ms 988 µs&#10; Clustering 0 ns&#10; Building 482 µs 786 ns&#10; Probing 1 ms 928 µs&#10; OutputWriting 2 ms 723 µs.&#10;Radix bits: 0.&#10;Build side is right.">
<polygon fill="none" stroke="white" stroke-width="6.94" points="652.5,-1256 444.5,-1256 444.5,-1187 652.5,-1187 652.5,-1256"/>
<text text-anchor="middle" x="548.5" y="-1240.8" font-family="Times,serif" font-size="14.00" fill="white">JoinHash (Semi Reduction)</text>
<text text-anchor="middle" x="548.5" y="-1225.8" font-family="Times,serif" font-size="14.00" fill="white">ps_partkey = p_partkey</text>
<text text-anchor="middle" x="548.5" y="-1194.8" font-family="Times,serif" font-size="14.00" fill="white">25 ms 721 µs</text>
</a>
</g>
</g>
<!-- 139841163009296&#45;&gt;139841163012496 -->
<g id="edge8" class="edge">
<title>139841163009296&#45;&gt;139841163012496</title>
<path fill="none" stroke="white" d="M531.59,-1256.31C525.17,-1269.15 517.78,-1283.95 510.99,-1297.52"/>
<polygon fill="white" stroke="white" points="510.88,-1297.74 507.75,-1296.17 506.41,-1306.68 510.88,-1297.74"/>
<text text-anchor="middle" x="625" y="-1277.8" font-family="Times,serif" font-size="14.00" fill="white">159,560 row(s)/269 chunk(s)</text>
</g>
<!-- 139841163013776 -->
<g id="node27" class="node">
<title>139841163013776</title>
<g id="a_node27"><a xlink:title="Output: 32064 rows in 57 chunks, 7 ms 783 µs.&#10;Operator step runtimes:&#10; BuildSideMaterializing 331 µs 652 ns&#10; ProbeSideMaterializing 5 ms 345 µs&#10; Clustering 0 ns&#10; Building 811 µs 193 ns&#10; Probing 466 µs 525 ns&#10; OutputWriting 543 µs 891 ns.&#10;Radix bits: 0.&#10;Build side is right.">
<polygon fill="none" stroke="white" stroke-width="4" points="847.5,-1376 653.5,-1376 653.5,-1307 847.5,-1307 847.5,-1376"/>
<text text-anchor="middle" x="750.5" y="-1360.8" font-family="Times,serif" font-size="14.00" fill="white">JoinHash (Semi)</text>
<text text-anchor="middle" x="750.5" y="-1345.8" font-family="Times,serif" font-size="14.00" fill="white">ps_suppkey = s_suppkey</text>
<text text-anchor="middle" x="750.5" y="-1314.8" font-family="Times,serif" font-size="14.00" fill="white">7 ms 783 µs</text>
</a>
</g>
</g>
<!-- 139841163009296&#45;&gt;139841163013776 -->
<g id="edge9" class="edge">
<title>139841163009296&#45;&gt;139841163013776</title>
<path fill="none" stroke="white" d="M652.65,-1234.33C680.15,-1241.92 707.87,-1254.19 728.5,-1274 735.06,-1280.3 739.67,-1288.6 742.9,-1297.19"/>
<polygon fill="white" stroke="white" points="742.97,-1297.4 739.63,-1298.46 746,-1306.93 742.97,-1297.4"/>
<text text-anchor="middle" x="841" y="-1277.8" font-family="Times,serif" font-size="14.00" fill="white">159,560 row(s)/269 chunk(s)</text>
</g>
<!-- 139841161874064 -->
<g id="node10" class="node">
<title>139841161874064</title>
<g id="a_node10"><a xlink:title="Output: 40000000 rows in 611 chunks, 1 ms 385 µs.">
<polygon fill="none" stroke="white" points="613.5,-1097 491.5,-1097 491.5,-983 613.5,-983 613.5,-1097"/>
<text text-anchor="middle" x="552.5" y="-1081.8" font-family="Times,serif" font-size="14.00" fill="white">GetTable</text>
<text text-anchor="middle" x="552.5" y="-1066.8" font-family="Times,serif" font-size="14.00" fill="white">(partsupp)</text>
<text text-anchor="middle" x="552.5" y="-1051.8" font-family="Times,serif" font-size="14.00" fill="white">pruned:</text>
<text text-anchor="middle" x="552.5" y="-1036.8" font-family="Times,serif" font-size="14.00" fill="white">0/611 chunk(s)</text>
<text text-anchor="middle" x="552.5" y="-1021.8" font-family="Times,serif" font-size="14.00" fill="white">2/5 column(s)</text>
<text text-anchor="middle" x="552.5" y="-990.8" font-family="Times,serif" font-size="14.00" fill="white">1 ms 385 µs</text>
</a>
</g>
</g>
<!-- 139841161874064&#45;&gt;139841163009296 -->
<g id="edge10" class="edge">
<title>139841161874064&#45;&gt;139841163009296</title>
<path fill="none" stroke="white" stroke-width="8" d="M551.25,-1097.3C550.67,-1122.92 550.01,-1152.77 549.48,-1176.68"/>
<polygon fill="white" stroke="white" stroke-width="8" points="549.47,-1176.87 542.47,-1176.71 549.25,-1186.87 549.47,-1176.87"/>
<text text-anchor="middle" x="664.5" y="-1138.3" font-family="Times,serif" font-size="14.00" fill="white">40,000,000 row(s)/611 chunk(s)</text>
</g>
<!-- 139841161431824 -->
<g id="node11" class="node">
<title>139841161431824</title>
<g id="a_node11"><a xlink:title="Output: 39890 rows in 153 chunks, 306 µs 215 ns.">
<polygon fill="none" stroke="white" points="143,-1067 26,-1067 26,-1013 143,-1013 143,-1067"/>
<text text-anchor="middle" x="84.5" y="-1051.8" font-family="Times,serif" font-size="14.00" fill="white">Validate</text>
<text text-anchor="middle" x="84.5" y="-1020.8" font-family="Times,serif" font-size="14.00" fill="white">306 µs 215 ns</text>
</a>
</g>
</g>
<!-- 139841161431824&#45;&gt;139841163013136 -->
<g id="edge12" class="edge">
<title>139841161431824&#45;&gt;139841163013136</title>
<path fill="none" stroke="white" d="M80.95,-1067.1C76.51,-1101.99 69.5,-1165.77 69.5,-1220.5 69.5,-1220.5 69.5,-1220.5 69.5,-1567.5 69.5,-1646.97 151.03,-1696.35 221.89,-1724.27"/>
<polygon fill="white" stroke="white" points="231.36,-1727.9 223.27,-1721.05 222.02,-1724.32 231.36,-1727.9"/>
<text text-anchor="middle" x="167.5" y="-1397.8" font-family="Times,serif" font-size="14.00" fill="white">39,890 row(s)/153 chunk(s)</text>
</g>
<!-- 139841161431824&#45;&gt;139841163009296 -->
<g id="edge11" class="edge">
<title>139841161431824&#45;&gt;139841163009296</title>
<path fill="none" stroke="white" d="M88.28,-1067.19C94.15,-1097.31 108.56,-1145.59 142.5,-1169 169.08,-1187.33 400.69,-1181.49 432.5,-1187 433.11,-1187.11 433.73,-1187.21 434.34,-1187.32"/>
<polygon fill="white" stroke="white" points="444.41,-1189.27 435.26,-1183.94 434.59,-1187.37 444.41,-1189.27"/>
<text text-anchor="middle" x="240.5" y="-1138.3" font-family="Times,serif" font-size="14.00" fill="white">39,890 row(s)/153 chunk(s)</text>
</g>
<!-- 139841163008976 -->
<g id="node12" class="node">
<title>139841163008976</title>
<g id="a_node12"><a xlink:title="Output: 39890 rows in 153 chunks, 690 µs 696 ns.&#10;Chunks: 0 skipped with no results, &#10;0 skipped with all matching, 0 scanned using binary search.">
<polygon fill="none" stroke="white" points="162,-932 7,-932 7,-848 162,-848 162,-932"/>
<text text-anchor="middle" x="84.5" y="-916.8" font-family="Times,serif" font-size="14.00" fill="white">TableScan</text>
<text text-anchor="middle" x="84.5" y="-901.8" font-family="Times,serif" font-size="14.00" fill="white">Impl: ColumnLike</text>
<text text-anchor="middle" x="84.5" y="-886.8" font-family="Times,serif" font-size="14.00" fill="white">p_type LIKE &#39;%TIN&#39;</text>
<text text-anchor="middle" x="84.5" y="-855.8" font-family="Times,serif" font-size="14.00" fill="white">690 µs 696 ns</text>
</a>
</g>
</g>
<!-- 139841163008976&#45;&gt;139841161431824 -->
<g id="edge13" class="edge">
<title>139841163008976&#45;&gt;139841161431824</title>
<path fill="none" stroke="white" d="M84.5,-932.23C84.5,-954.32 84.5,-981.31 84.5,-1002.62"/>
<polygon fill="white" stroke="white" points="81,-1002.88 84.5,-1012.88 88,-1002.88 81,-1002.88"/>
<text text-anchor="middle" x="182.5" y="-953.8" font-family="Times,serif" font-size="14.00" fill="white">39,890 row(s)/153 chunk(s)</text>
</g>
<!-- 139841163008656 -->
<g id="node13" class="node">
<title>139841163008656</title>
<g id="a_node13"><a xlink:title="Output: 199891 rows in 153 chunks, 1 ms 979 µs.&#10;Chunks: 0 skipped with no results, &#10;0 skipped with all matching, 0 scanned using binary search.">
<polygon fill="none" stroke="white" points="169,-782 0,-782 0,-698 169,-698 169,-782"/>
<text text-anchor="middle" x="84.5" y="-766.8" font-family="Times,serif" font-size="14.00" fill="white">TableScan</text>
<text text-anchor="middle" x="84.5" y="-751.8" font-family="Times,serif" font-size="14.00" fill="white">Impl: ColumnVsValue</text>
<text text-anchor="middle" x="84.5" y="-736.8" font-family="Times,serif" font-size="14.00" fill="white">p_size = 32</text>
<text text-anchor="middle" x="84.5" y="-705.8" font-family="Times,serif" font-size="14.00" fill="white">1 ms 979 µs</text>
</a>
</g>
</g>
<!-- 139841163008656&#45;&gt;139841163008976 -->
<g id="edge14" class="edge">
<title>139841163008656&#45;&gt;139841163008976</title>
<path fill="none" stroke="white" d="M84.5,-782.23C84.5,-799.47 84.5,-819.68 84.5,-837.85"/>
<polygon fill="white" stroke="white" points="81,-837.99 84.5,-847.99 88,-837.99 81,-837.99"/>
<text text-anchor="middle" x="187" y="-818.8" font-family="Times,serif" font-size="14.00" fill="white">199,891 row(s)/153 chunk(s)</text>
</g>
<!-- 139841161874960 -->
<g id="node14" class="node">
<title>139841161874960</title>
<g id="a_node14"><a xlink:title="Output: 10000000 rows in 153 chunks, 401 µs 714 ns.">
<polygon fill="none" stroke="white" points="145.5,-632 23.5,-632 23.5,-518 145.5,-518 145.5,-632"/>
<text text-anchor="middle" x="84.5" y="-616.8" font-family="Times,serif" font-size="14.00" fill="white">GetTable</text>
<text text-anchor="middle" x="84.5" y="-601.8" font-family="Times,serif" font-size="14.00" fill="white">(part)</text>
<text text-anchor="middle" x="84.5" y="-586.8" font-family="Times,serif" font-size="14.00" fill="white">pruned:</text>
<text text-anchor="middle" x="84.5" y="-571.8" font-family="Times,serif" font-size="14.00" fill="white">0/153 chunk(s)</text>
<text text-anchor="middle" x="84.5" y="-556.8" font-family="Times,serif" font-size="14.00" fill="white">5/9 column(s)</text>
<text text-anchor="middle" x="84.5" y="-525.8" font-family="Times,serif" font-size="14.00" fill="white">401 µs 714 ns</text>
</a>
</g>
</g>
<!-- 139841161874960&#45;&gt;139841163008656 -->
<g id="edge15" class="edge">
<title>139841161874960&#45;&gt;139841163008656</title>
<path fill="none" stroke="white" stroke-width="4.58" d="M84.5,-632.1C84.5,-650.19 84.5,-670.13 84.5,-687.85"/>
<polygon fill="white" stroke="white" stroke-width="4.58" points="80.49,-687.99 84.5,-697.99 88.51,-687.99 80.49,-687.99"/>
<text text-anchor="middle" x="198.5" y="-653.8" font-family="Times,serif" font-size="14.00" fill="white">10,000,000 row(s)/153 chunk(s)</text>
</g>
<!-- 139841163012176 -->
<g id="node15" class="node">
<title>139841163012176</title>
<g id="a_node15"><a xlink:title="Output: 99918 rows in 8 chunks, 1 ms 126 µs.&#10;Operator step runtimes:&#10; BuildSideMaterializing 26 µs 981 ns&#10; ProbeSideMaterializing 263 µs 484 ns&#10; Clustering 0 ns&#10; Building 2 µs 124 ns&#10; Probing 444 µs 654 ns&#10; OutputWriting 343 µs 265 ns.&#10;Radix bits: 0.&#10;Build side is right.">
<polygon fill="none" stroke="white" points="423,-1256 216,-1256 216,-1187 423,-1187 423,-1256"/>
<text text-anchor="middle" x="319.5" y="-1240.8" font-family="Times,serif" font-size="14.00" fill="white">JoinHash (Inner)</text>
<text text-anchor="middle" x="319.5" y="-1225.8" font-family="Times,serif" font-size="14.00" fill="white">s_nationkey = n_nationkey</text>
<text text-anchor="middle" x="319.5" y="-1194.8" font-family="Times,serif" font-size="14.00" fill="white">1 ms 126 µs</text>
</a>
</g>
</g>
<!-- 139841163012176&#45;&gt;139841163012816 -->
<g id="edge17" class="edge">
<title>139841163012176&#45;&gt;139841163012816</title>
<path fill="none" stroke="white" d="M312.81,-1256.15C306.2,-1293.47 297.59,-1355.47 301.5,-1409 304.3,-1447.26 310.89,-1490.37 316.3,-1521.64"/>
<polygon fill="white" stroke="white" points="318.09,-1531.77 319.8,-1521.32 316.35,-1521.92 318.09,-1531.77"/>
<text text-anchor="middle" x="390.5" y="-1397.8" font-family="Times,serif" font-size="14.00" fill="white">99,918 row(s)/8 chunk(s)</text>
</g>
<!-- 139841163012176&#45;&gt;139841163012496 -->
<g id="edge16" class="edge">
<title>139841163012176&#45;&gt;139841163012496</title>
<path fill="none" stroke="white" d="M319.38,-1256.32C320.95,-1267.87 324.63,-1280.09 332.5,-1289 344.17,-1302.21 359.28,-1312.05 375.51,-1319.37"/>
<polygon fill="white" stroke="white" points="385.17,-1323.39 377.29,-1316.32 375.94,-1319.55 385.17,-1323.39"/>
<text text-anchor="middle" x="421.5" y="-1277.8" font-family="Times,serif" font-size="14.00" fill="white">99,918 row(s)/8 chunk(s)</text>
</g>
<!-- 139841162138128 -->
<g id="node16" class="node">
<title>139841162138128</title>
<g id="a_node16"><a xlink:title="Output: 99918 rows in 8 chunks, 45 µs 937 ns.">
<polygon fill="none" stroke="white" points="464.5,-1067 356.5,-1067 356.5,-1013 464.5,-1013 464.5,-1067"/>
<text text-anchor="middle" x="410.5" y="-1051.8" font-family="Times,serif" font-size="14.00" fill="white">Validate</text>
<text text-anchor="middle" x="410.5" y="-1020.8" font-family="Times,serif" font-size="14.00" fill="white">45 µs 937 ns</text>
</a>
</g>
</g>
<!-- 139841162138128&#45;&gt;139841163012176 -->
<g id="edge18" class="edge">
<title>139841162138128&#45;&gt;139841163012176</title>
<path fill="none" stroke="white" d="M394.53,-1067.02C386.14,-1081.04 375.89,-1098.76 367.5,-1115 357.03,-1135.28 346.41,-1158.3 337.83,-1177.66"/>
<polygon fill="white" stroke="white" points="337.82,-1177.68 334.62,-1176.27 333.8,-1186.83 337.82,-1177.68"/>
<text text-anchor="middle" x="456.5" y="-1138.3" font-family="Times,serif" font-size="14.00" fill="white">99,918 row(s)/8 chunk(s)</text>
</g>
<!-- 139841163011856 -->
<g id="node17" class="node">
<title>139841163011856</title>
<g id="a_node17"><a xlink:title="Output: 99918 rows in 8 chunks, 787 µs 437 ns.&#10;Operator step runtimes:&#10; BuildSideMaterializing 39 µs 845 ns&#10; ProbeSideMaterializing 391 µs 144 ns&#10; Clustering 0 ns&#10; Building 4 µs 238 ns&#10; Probing 152 µs 887 ns&#10; OutputWriting 122 µs 0 ns.&#10;Radix bits: 0.&#10;Build side is right.">
<polygon fill="none" stroke="white" points="583.5,-924.5 375.5,-924.5 375.5,-855.5 583.5,-855.5 583.5,-924.5"/>
<text text-anchor="middle" x="479.5" y="-909.3" font-family="Times,serif" font-size="14.00" fill="white">JoinHash (Semi Reduction)</text>
<text text-anchor="middle" x="479.5" y="-894.3" font-family="Times,serif" font-size="14.00" fill="white">s_nationkey = n_nationkey</text>
<text text-anchor="middle" x="479.5" y="-863.3" font-family="Times,serif" font-size="14.00" fill="white">787 µs 437 ns</text>
</a>
</g>
</g>
<!-- 139841163011856&#45;&gt;139841162138128 -->
<g id="edge19" class="edge">
<title>139841163011856&#45;&gt;139841162138128</title>
<path fill="none" stroke="white" d="M471.55,-924.87C467.99,-937.72 463.28,-952.31 457.5,-965 451.36,-978.49 443.09,-992.42 435.2,-1004.51"/>
<polygon fill="white" stroke="white" points="432.2,-1002.69 429.56,-1012.95 438.02,-1006.58 432.2,-1002.69"/>
<text text-anchor="middle" x="551.5" y="-953.8" font-family="Times,serif" font-size="14.00" fill="white">99,918 row(s)/8 chunk(s)</text>
</g>
<!-- 139841161875408 -->
<g id="node18" class="node">
<title>139841161875408</title>
<g id="a_node18"><a xlink:title="Output: 500000 rows in 8 chunks, 19 µs 507 ns.">
<polygon fill="none" stroke="white" points="775,-797 662,-797 662,-683 775,-683 775,-797"/>
<text text-anchor="middle" x="718.5" y="-781.8" font-family="Times,serif" font-size="14.00" fill="white">GetTable</text>
<text text-anchor="middle" x="718.5" y="-766.8" font-family="Times,serif" font-size="14.00" fill="white">(supplier)</text>
<text text-anchor="middle" x="718.5" y="-751.8" font-family="Times,serif" font-size="14.00" fill="white">pruned:</text>
<text text-anchor="middle" x="718.5" y="-736.8" font-family="Times,serif" font-size="14.00" fill="white">0/8 chunk(s)</text>
<text text-anchor="middle" x="718.5" y="-721.8" font-family="Times,serif" font-size="14.00" fill="white">0/7 column(s)</text>
<text text-anchor="middle" x="718.5" y="-690.8" font-family="Times,serif" font-size="14.00" fill="white">19 µs 507 ns</text>
</a>
</g>
</g>
<!-- 139841161875408&#45;&gt;139841163011856 -->
<g id="edge20" class="edge">
<title>139841161875408&#45;&gt;139841163011856</title>
<path fill="none" stroke="white" d="M661.66,-755.05C623.02,-766.6 572.26,-785.88 534.5,-815 523.08,-823.81 512.88,-835.59 504.46,-847.15"/>
<polygon fill="white" stroke="white" points="504.37,-847.29 501.5,-845.29 498.65,-855.49 504.37,-847.29"/>
<text text-anchor="middle" x="628" y="-818.8" font-family="Times,serif" font-size="14.00" fill="white">500,000 row(s)/8 chunk(s)</text>
</g>
<!-- 139841163013456 -->
<g id="node29" class="node">
<title>139841163013456</title>
<g id="a_node29"><a xlink:title="Output: 99918 rows in 8 chunks, 782 µs 499 ns.&#10;Operator step runtimes:&#10; BuildSideMaterializing 15 µs 529 ns&#10; ProbeSideMaterializing 395 µs 643 ns&#10; Clustering 0 ns&#10; Building 691 ns&#10; Probing 151 µs 64 ns&#10; OutputWriting 155 µs 412 ns.&#10;Radix bits: 0.&#10;Build side is right.">
<polygon fill="none" stroke="white" points="1008,-924.5 801,-924.5 801,-855.5 1008,-855.5 1008,-924.5"/>
<text text-anchor="middle" x="904.5" y="-909.3" font-family="Times,serif" font-size="14.00" fill="white">JoinHash (Semi)</text>
<text text-anchor="middle" x="904.5" y="-894.3" font-family="Times,serif" font-size="14.00" fill="white">s_nationkey = n_nationkey</text>
<text text-anchor="middle" x="904.5" y="-863.3" font-family="Times,serif" font-size="14.00" fill="white">782 µs 499 ns</text>
</a>
</g>
</g>
<!-- 139841161875408&#45;&gt;139841163013456 -->
<g id="edge21" class="edge">
<title>139841161875408&#45;&gt;139841163013456</title>
<path fill="none" stroke="white" d="M775.19,-753.68C810.67,-764.4 854.76,-783.24 882.5,-815 889.99,-823.58 894.94,-834.62 898.2,-845.54"/>
<polygon fill="white" stroke="white" points="898.26,-845.77 894.87,-846.64 900.74,-855.46 898.26,-845.77"/>
<text text-anchor="middle" x="985" y="-818.8" font-family="Times,serif" font-size="14.00" fill="white">500,000 row(s)/8 chunk(s)</text>
</g>
<!-- 139841161432080 -->
<g id="node19" class="node">
<title>139841161432080</title>
<g id="a_node19"><a xlink:title="Output: 5 rows in 1 chunk, 2 µs 956 ns.">
<polygon fill="none" stroke="white" points="422,-767 323,-767 323,-713 422,-713 422,-767"/>
<text text-anchor="middle" x="372.5" y="-751.8" font-family="Times,serif" font-size="14.00" fill="white">Validate</text>
<text text-anchor="middle" x="372.5" y="-720.8" font-family="Times,serif" font-size="14.00" fill="white">2 µs 956 ns</text>
</a>
</g>
</g>
<!-- 139841161432080&#45;&gt;139841163012176 -->
<g id="edge23" class="edge">
<title>139841161432080&#45;&gt;139841163012176</title>
<path fill="none" stroke="white" d="M362.9,-767.26C349.15,-806.41 324.51,-882.71 315.5,-950 304.86,-1029.43 310.18,-1123.14 314.91,-1176.81"/>
<polygon fill="white" stroke="white" points="315.85,-1187 318.42,-1176.72 314.93,-1177.04 315.85,-1187"/>
<text text-anchor="middle" x="384.5" y="-953.8" font-family="Times,serif" font-size="14.00" fill="white">5 row(s)/1 chunk(s)</text>
</g>
<!-- 139841161432080&#45;&gt;139841163011856 -->
<g id="edge22" class="edge">
<title>139841161432080&#45;&gt;139841163011856</title>
<path fill="none" stroke="white" d="M366.24,-767.01C363.19,-785.83 362.27,-811.15 373.5,-830 377.67,-837 382.99,-843.23 389.04,-848.76"/>
<polygon fill="white" stroke="white" points="397.04,-855.41 391.58,-846.33 389.34,-849.02 397.04,-855.41"/>
<text text-anchor="middle" x="442.5" y="-818.8" font-family="Times,serif" font-size="14.00" fill="white">5 row(s)/1 chunk(s)</text>
</g>
<!-- 139841161432080&#45;&gt;139841163013456 -->
<g id="edge24" class="edge">
<title>139841161432080&#45;&gt;139841163013456</title>
<path fill="none" stroke="white" d="M422.32,-750.94C515.49,-769.62 707.94,-808.64 721.5,-815 731.24,-819.57 731.09,-824.78 740.5,-830 756.35,-838.8 773.76,-846.71 791.14,-853.67"/>
<polygon fill="white" stroke="white" points="800.77,-857.44 792.73,-850.54 791.46,-853.8 800.77,-857.44"/>
<text text-anchor="middle" x="809.5" y="-818.8" font-family="Times,serif" font-size="14.00" fill="white">5 row(s)/1 chunk(s)</text>
</g>
<!-- 139841163010896 -->
<g id="node20" class="node">
<title>139841163010896</title>
<g id="a_node20"><a xlink:title="Output: 5 rows in 1 chunk, 81 µs 382 ns.&#10;Operator step runtimes:&#10; BuildSideMaterializing 32 µs 761 ns&#10; ProbeSideMaterializing 18 µs 114 ns&#10; Clustering 0 ns&#10; Building 4 µs 138 ns&#10; Probing 1 µs 493 ns&#10; OutputWriting 11 µs 261 ns.&#10;Radix bits: 0.&#10;Build side is right.">
<polygon fill="none" stroke="white" points="476.5,-609.5 268.5,-609.5 268.5,-540.5 476.5,-540.5 476.5,-609.5"/>
<text text-anchor="middle" x="372.5" y="-594.3" font-family="Times,serif" font-size="14.00" fill="white">JoinHash (Semi)</text>
<text text-anchor="middle" x="372.5" y="-579.3" font-family="Times,serif" font-size="14.00" fill="white">n_regionkey = r_regionkey</text>
<text text-anchor="middle" x="372.5" y="-548.3" font-family="Times,serif" font-size="14.00" fill="white">81 µs 382 ns</text>
</a>
</g>
</g>
<!-- 139841163010896&#45;&gt;139841161432080 -->
<g id="edge25" class="edge">
<title>139841163010896&#45;&gt;139841161432080</title>
<path fill="none" stroke="white" d="M372.5,-609.77C372.5,-636.89 372.5,-674.9 372.5,-702.68"/>
<polygon fill="white" stroke="white" points="369,-702.78 372.5,-712.78 376,-702.78 369,-702.78"/>
<text text-anchor="middle" x="441.5" y="-653.8" font-family="Times,serif" font-size="14.00" fill="white">5 row(s)/1 chunk(s)</text>
</g>
<!-- 139841161874512 -->
<g id="node21" class="node">
<title>139841161874512</title>
<g id="a_node21"><a xlink:title="Output: 25 rows in 1 chunk, 19 µs 387 ns.">
<polygon fill="none" stroke="white" points="344,-467 231,-467 231,-353 344,-353 344,-467"/>
<text text-anchor="middle" x="287.5" y="-451.8" font-family="Times,serif" font-size="14.00" fill="white">GetTable</text>
<text text-anchor="middle" x="287.5" y="-436.8" font-family="Times,serif" font-size="14.00" fill="white">(nation)</text>
<text text-anchor="middle" x="287.5" y="-421.8" font-family="Times,serif" font-size="14.00" fill="white">pruned:</text>
<text text-anchor="middle" x="287.5" y="-406.8" font-family="Times,serif" font-size="14.00" fill="white">0/1 chunk(s)</text>
<text text-anchor="middle" x="287.5" y="-391.8" font-family="Times,serif" font-size="14.00" fill="white">1/4 column(s)</text>
<text text-anchor="middle" x="287.5" y="-360.8" font-family="Times,serif" font-size="14.00" fill="white">19 µs 387 ns</text>
</a>
</g>
</g>
<!-- 139841161874512&#45;&gt;139841163010896 -->
<g id="edge26" class="edge">
<title>139841161874512&#45;&gt;139841163010896</title>
<path fill="none" stroke="white" d="M281.12,-467.17C281.75,-478.42 283.86,-489.89 288.5,-500 294.24,-512.51 303.23,-523.76 313.23,-533.49"/>
<polygon fill="white" stroke="white" points="313.29,-533.55 310.93,-536.13 320.66,-540.31 313.29,-533.55"/>
<text text-anchor="middle" x="362" y="-488.8" font-family="Times,serif" font-size="14.00" fill="white">25 row(s)/1 chunk(s)</text>
</g>
<!-- 139841161432848 -->
<g id="node22" class="node">
<title>139841161432848</title>
<g id="a_node22"><a xlink:title="Output: 1 row in 1 chunk, 7 µs 163 ns.">
<polygon fill="none" stroke="white" points="507,-437 408,-437 408,-383 507,-383 507,-437"/>
<text text-anchor="middle" x="457.5" y="-421.8" font-family="Times,serif" font-size="14.00" fill="white">Validate</text>
<text text-anchor="middle" x="457.5" y="-390.8" font-family="Times,serif" font-size="14.00" fill="white">7 µs 163 ns</text>
</a>
</g>
</g>
<!-- 139841161432848&#45;&gt;139841163010896 -->
<g id="edge27" class="edge">
<title>139841161432848&#45;&gt;139841163010896</title>
<path fill="none" stroke="white" d="M454.31,-437.05C451.29,-455.41 445.67,-480.17 435.5,-500 429.67,-511.37 421.77,-522.49 413.54,-532.52"/>
<polygon fill="white" stroke="white" points="406.91,-540.3 416.06,-534.96 413.39,-532.69 406.91,-540.3"/>
<text text-anchor="middle" x="510.5" y="-488.8" font-family="Times,serif" font-size="14.00" fill="white">1 row(s)/1 chunk(s)</text>
</g>
<!-- 139841163009616 -->
<g id="node23" class="node">
<title>139841163009616</title>
<g id="a_node23"><a xlink:title="Output: 1 row in 1 chunk, 16 µs 341 ns.&#10;Chunks: 0 skipped with no results, &#10;0 skipped with all matching, 0 scanned using binary search.">
<polygon fill="none" stroke="white" points="542,-302 373,-302 373,-218 542,-218 542,-302"/>
<text text-anchor="middle" x="457.5" y="-286.8" font-family="Times,serif" font-size="14.00" fill="white">TableScan</text>
<text text-anchor="middle" x="457.5" y="-271.8" font-family="Times,serif" font-size="14.00" fill="white">Impl: ColumnVsValue</text>
<text text-anchor="middle" x="457.5" y="-256.8" font-family="Times,serif" font-size="14.00" fill="white">r_name = &#39;AMERICA&#39;</text>
<text text-anchor="middle" x="457.5" y="-225.8" font-family="Times,serif" font-size="14.00" fill="white">16 µs 341 ns</text>
</a>
</g>
</g>
<!-- 139841163009616&#45;&gt;139841161432848 -->
<g id="edge28" class="edge">
<title>139841163009616&#45;&gt;139841161432848</title>
<path fill="none" stroke="white" d="M457.5,-302.23C457.5,-324.32 457.5,-351.31 457.5,-372.62"/>
<polygon fill="white" stroke="white" points="454,-372.88 457.5,-382.88 461,-372.88 454,-372.88"/>
<text text-anchor="middle" x="526.5" y="-323.8" font-family="Times,serif" font-size="14.00" fill="white">1 row(s)/1 chunk(s)</text>
</g>
<!-- 139841161875856 -->
<g id="node24" class="node">
<title>139841161875856</title>
<g id="a_node24"><a xlink:title="Output: 5 rows in 1 chunk, 12 µs 514 ns.">
<polygon fill="none" stroke="white" points="514,-140.5 401,-140.5 401,-26.5 514,-26.5 514,-140.5"/>
<text text-anchor="middle" x="457.5" y="-125.3" font-family="Times,serif" font-size="14.00" fill="white">GetTable</text>
<text text-anchor="middle" x="457.5" y="-110.3" font-family="Times,serif" font-size="14.00" fill="white">(region)</text>
<text text-anchor="middle" x="457.5" y="-95.3" font-family="Times,serif" font-size="14.00" fill="white">pruned:</text>
<text text-anchor="middle" x="457.5" y="-80.3" font-family="Times,serif" font-size="14.00" fill="white">0/1 chunk(s)</text>
<text text-anchor="middle" x="457.5" y="-65.3" font-family="Times,serif" font-size="14.00" fill="white">1/3 column(s)</text>
<text text-anchor="middle" x="457.5" y="-34.3" font-family="Times,serif" font-size="14.00" fill="white">12 µs 514 ns</text>
</a>
</g>
</g>
<!-- 139841161875856&#45;&gt;139841163009616 -->
<g id="edge29" class="edge">
<title>139841161875856&#45;&gt;139841163009616</title>
<path fill="none" stroke="white" d="M457.5,-140.67C457.5,-162.25 457.5,-186.74 457.5,-207.83"/>
<polygon fill="white" stroke="white" points="454,-207.87 457.5,-217.87 461,-207.87 454,-207.87"/>
<text text-anchor="middle" x="526.5" y="-188.8" font-family="Times,serif" font-size="14.00" fill="white">5 row(s)/1 chunk(s)</text>
</g>
<!-- 139841161466384 -->
<g id="node25" class="node">
<title>139841161466384</title>
<g id="a_node25"><a xlink:title="Output: 23487 rows in 1 chunk, 12 ms 386 µs.&#10;Operator step runtimes:&#10; GroupByKeyPartitioning 4 ms 817 µs&#10; Aggregating 7 ms 309 µs&#10; GroupByColumnsWriting 148 µs 309 ns&#10; AggregateColumnsWriting 77 µs 465 ns&#10; OutputWriting 7 µs 985 ns.">
<polygon fill="none" stroke="white" stroke-width="5.14" points="718.5,-1703 538.5,-1703 538.5,-1619 718.5,-1619 718.5,-1703"/>
<text text-anchor="middle" x="628.5" y="-1687.8" font-family="Times,serif" font-size="14.00" fill="white">AggregateHash</text>
<text text-anchor="middle" x="628.5" y="-1672.8" font-family="Times,serif" font-size="14.00" fill="white">GroupBy {ps_partkey}</text>
<text text-anchor="middle" x="628.5" y="-1657.8" font-family="Times,serif" font-size="14.00" fill="white">MIN(ps_supplycost)</text>
<text text-anchor="middle" x="628.5" y="-1626.8" font-family="Times,serif" font-size="14.00" fill="white">12 ms 386 µs</text>
</a>
</g>
</g>
<!-- 139841161466384&#45;&gt;139841163014096 -->
<g id="edge30" class="edge">
<title>139841161466384&#45;&gt;139841163014096</title>
<path fill="none" stroke="white" d="M620.58,-1703.08C612.04,-1738.27 595.44,-1788.58 565.5,-1823 562.03,-1826.99 558.22,-1830.77 554.17,-1834.33"/>
<polygon fill="white" stroke="white" points="546.12,-1840.94 556.07,-1837.3 553.85,-1834.6 546.12,-1840.94"/>
<text text-anchor="middle" x="703.5" y="-1751.8" font-family="Times,serif" font-size="14.00" fill="white">23,487 row(s)/1 chunk(s)</text>
</g>
<!-- 139841162137872 -->
<g id="node26" class="node">
<title>139841162137872</title>
<g id="a_node26"><a xlink:title="Output: 32064 rows in 57 chunks, 550 µs 292 ns.">
<polygon fill="none" stroke="white" points="714,-1481 597,-1481 597,-1427 714,-1427 714,-1481"/>
<text text-anchor="middle" x="655.5" y="-1465.8" font-family="Times,serif" font-size="14.00" fill="white">Validate</text>
<text text-anchor="middle" x="655.5" y="-1434.8" font-family="Times,serif" font-size="14.00" fill="white">550 µs 292 ns</text>
</a>
</g>
</g>
<!-- 139841162137872&#45;&gt;139841161466384 -->
<g id="edge31" class="edge">
<title>139841162137872&#45;&gt;139841161466384</title>
<path fill="none" stroke="white" d="M652.03,-1481.38C647.8,-1513.48 640.56,-1568.4 635.23,-1608.89"/>
<polygon fill="white" stroke="white" points="631.76,-1608.48 633.92,-1618.85 638.7,-1609.39 631.76,-1608.48"/>
<text text-anchor="middle" x="743" y="-1502.8" font-family="Times,serif" font-size="14.00" fill="white">32,064 row(s)/57 chunk(s)</text>
</g>
<!-- 139841163013776&#45;&gt;139841162137872 -->
<g id="edge32" class="edge">
<title>139841163013776&#45;&gt;139841162137872</title>
<path fill="none" stroke="white" d="M721.48,-1376.25C709.8,-1389.84 696.36,-1405.47 684.67,-1419.07"/>
<polygon fill="white" stroke="white" points="681.88,-1416.95 678.01,-1426.81 687.19,-1421.51 681.88,-1416.95"/>
<text text-anchor="middle" x="799" y="-1397.8" font-family="Times,serif" font-size="14.00" fill="white">32,064 row(s)/57 chunk(s)</text>
</g>
<!-- 139841162137616 -->
<g id="node28" class="node">
<title>139841162137616</title>
<g id="a_node28"><a xlink:title="Output: 99918 rows in 8 chunks, 99 µs 928 ns.">
<polygon fill="none" stroke="white" points="1014.5,-1169 906.5,-1169 906.5,-1115 1014.5,-1115 1014.5,-1169"/>
<text text-anchor="middle" x="960.5" y="-1153.8" font-family="Times,serif" font-size="14.00" fill="white">Validate</text>
<text text-anchor="middle" x="960.5" y="-1122.8" font-family="Times,serif" font-size="14.00" fill="white">99 µs 928 ns</text>
</a>
</g>
</g>
<!-- 139841162137616&#45;&gt;139841163013776 -->
<g id="edge33" class="edge">
<title>139841162137616&#45;&gt;139841163013776</title>
<path fill="none" stroke="white" d="M966.35,-1169.05C971.92,-1201.16 975.76,-1255.58 947.5,-1289 934.98,-1303.81 897.01,-1315.38 857.71,-1323.77"/>
<polygon fill="white" stroke="white" points="847.7,-1325.84 858.2,-1327.24 857.5,-1323.82 847.7,-1325.84"/>
<text text-anchor="middle" x="1058.5" y="-1217.8" font-family="Times,serif" font-size="14.00" fill="white">99,918 row(s)/8 chunk(s)</text>
</g>
<!-- 139841163013456&#45;&gt;139841162137616 -->
<g id="edge34" class="edge">
<title>139841163013456&#45;&gt;139841162137616</title>
<path fill="none" stroke="white" d="M912.05,-924.72C922.57,-971.65 941.54,-1056.34 952.36,-1104.65"/>
<polygon fill="white" stroke="white" points="949,-1105.67 954.6,-1114.66 955.83,-1104.14 949,-1105.67"/>
<text text-anchor="middle" x="1009.5" y="-953.8" font-family="Times,serif" font-size="14.00" fill="white">99,918 row(s)/8 chunk(s)</text>
</g>
<!-- 0 -->
<g id="node30" class="node">
<title>0</title>
<polygon fill="none" stroke="white" points="532,-0.5 532,-166.5 853,-166.5 853,-0.5 532,-0.5"/>
<text text-anchor="middle" x="692.5" y="-151.3" font-family="Times,serif" font-size="14.00" fill="white">Total by operator</text>
<polyline fill="none" stroke="white" points="532,-143.5 853,-143.5 "/>
<text text-anchor="end" x="661" y="-128.3" font-family="Times,serif" font-size="14.00" fill="white">JoinHash </text>
<text text-anchor="end" x="661" y="-113.3" font-family="Times,serif" font-size="14.00" fill="white"> Sort </text>
<text text-anchor="end" x="661" y="-98.3" font-family="Times,serif" font-size="14.00" fill="white"> AggregateHash </text>
<text text-anchor="end" x="661" y="-83.3" font-family="Times,serif" font-size="14.00" fill="white"> TableScan </text>
<text text-anchor="end" x="661" y="-68.3" font-family="Times,serif" font-size="14.00" fill="white"> GetTable </text>
<text text-anchor="end" x="661" y="-53.3" font-family="Times,serif" font-size="14.00" fill="white"> Validate </text>
<text text-anchor="end" x="661" y="-38.3" font-family="Times,serif" font-size="14.00" fill="white"> Limit </text>
<text text-anchor="end" x="661" y="-23.3" font-family="Times,serif" font-size="14.00" fill="white"> Projection </text>
<text text-anchor="end" x="661" y="-8.3" font-family="Times,serif" font-size="14.00" fill="white">total</text>
<polyline fill="none" stroke="white" points="669,-0.5 669,-143.5 "/>
<text text-anchor="start" x="677" y="-128.3" font-family="Times,serif" font-size="14.00" fill="white">71 ms 385 µs </text>
<text text-anchor="start" x="677" y="-113.3" font-family="Times,serif" font-size="14.00" fill="white"> 39 ms 480 µs </text>
<text text-anchor="start" x="677" y="-98.3" font-family="Times,serif" font-size="14.00" fill="white"> 12 ms 386 µs </text>
<text text-anchor="start" x="677" y="-83.3" font-family="Times,serif" font-size="14.00" fill="white"> 2 ms 686 µs </text>
<text text-anchor="start" x="677" y="-68.3" font-family="Times,serif" font-size="14.00" fill="white"> 1 ms 838 µs </text>
<text text-anchor="start" x="677" y="-53.3" font-family="Times,serif" font-size="14.00" fill="white"> 1 ms 540 µs </text>
<text text-anchor="start" x="677" y="-38.3" font-family="Times,serif" font-size="14.00" fill="white"> 18 µs 575 ns </text>
<text text-anchor="start" x="677" y="-23.3" font-family="Times,serif" font-size="14.00" fill="white"> 14 µs 577 ns </text>
<text text-anchor="start" x="677" y="-8.3" font-family="Times,serif" font-size="14.00" fill="white"> 129 ms 349 µs </text>
<polyline fill="none" stroke="white" points="800,-0.5 800,-143.5 "/>
<text text-anchor="start" x="808" y="-128.3" font-family="Times,serif" font-size="14.00" fill="white">55 %</text>
<text text-anchor="start" x="808" y="-113.3" font-family="Times,serif" font-size="14.00" fill="white">31 %</text>
<text text-anchor="start" x="808" y="-98.3" font-family="Times,serif" font-size="14.00" fill="white">10 %</text>
<text text-anchor="start" x="808" y="-83.3" font-family="Times,serif" font-size="14.00" fill="white">2 %</text>
<text text-anchor="start" x="808" y="-68.3" font-family="Times,serif" font-size="14.00" fill="white">1 %</text>
<text text-anchor="start" x="808" y="-53.3" font-family="Times,serif" font-size="14.00" fill="white">1 %</text>
<text text-anchor="start" x="808" y="-38.3" font-family="Times,serif" font-size="14.00" fill="white">0 %</text>
<text text-anchor="start" x="808" y="-23.3" font-family="Times,serif" font-size="14.00" fill="white">0 %</text>
<text text-anchor="start" x="808" y="-8.3" font-family="Times,serif" font-size="14.00" fill="white"> </text>
</g>
</g>
</svg>
