<?xml version="1.0" encoding="UTF-8" standalone="no"?>
<!DOCTYPE svg PUBLIC "-//W3C//DTD SVG 1.1//EN"
 "http://www.w3.org/Graphics/SVG/1.1/DTD/svg11.dtd">
<!-- Generated by graphviz version 2.43.0 (0)
 -->
<!-- Title: G Pages: 1 -->
<svg width="1025pt" height="1895pt"
 viewBox="0.00 0.00 1025.00 1895.00" xmlns="http://www.w3.org/2000/svg" xmlns:xlink="http://www.w3.org/1999/xlink">
<g id="graph0" class="graph" transform="scale(1 1) rotate(0) translate(4 1891)">
<title>G</title>
<polygon fill="black" stroke="transparent" points="-4,4 -4,-1891 1021,-1891 1021,4 -4,4"/>
<text text-anchor="middle" x="319.5" y="-1871.8" font-family="Times,serif" font-size="14.00" fill="white">For tooltips with advanced information, hover your mouse over vertices or edge labels.</text>
<!-- 139679259322000 -->
<g id="node1" class="node">
<title>139679259322000</title>
<g id="a_node1"><a xlink:title="Output: 10 rows in 1 chunk, 4 µs 338 ns.">
<polygon fill="none" stroke="white" points="667,-1832 298,-1832 298,-1763 667,-1763 667,-1832"/>
<text text-anchor="middle" x="482.5" y="-1816.8" font-family="Times,serif" font-size="14.00" fill="white">Alias</text>
<text text-anchor="middle" x="482.5" y="-1801.8" font-family="Times,serif" font-size="14.00" fill="white">[l_orderkey, revenue, o_orderdate, o_shippriority]</text>
<text text-anchor="middle" x="482.5" y="-1770.8" font-family="Times,serif" font-size="14.00" fill="white">4 µs 338 ns</text>
</a>
</g>
</g>
<!-- 139679259321680 -->
<g id="node2" class="node">
<title>139679259321680</title>
<g id="a_node2"><a xlink:title="Output: 10 rows in 1 chunk, 13 µs 115 ns.&#10;Operator step runtimes:&#10; ForwardUnmodifiedColumns 4 µs 749 ns&#10; EvaluateNewColumns 1 µs 613 ns&#10; BuildOutput 4 µs 889 ns.">
<polygon fill="none" stroke="white" points="536.5,-1712 428.5,-1712 428.5,-1658 536.5,-1658 536.5,-1712"/>
<text text-anchor="middle" x="482.5" y="-1696.8" font-family="Times,serif" font-size="14.00" fill="white">Projection</text>
<text text-anchor="middle" x="482.5" y="-1665.8" font-family="Times,serif" font-size="14.00" fill="white">13 µs 115 ns</text>
</a>
</g>
</g>
<!-- 139679259321680&#45;&gt;139679259322000 -->
<g id="edge1" class="edge">
<title>139679259321680&#45;&gt;139679259322000</title>
<path fill="none" stroke="white" d="M482.5,-1712.19C482.5,-1724.29 482.5,-1739 482.5,-1752.72"/>
<polygon fill="white" stroke="white" points="479,-1752.95 482.5,-1762.95 486,-1752.96 479,-1752.95"/>
<text text-anchor="middle" x="556" y="-1733.8" font-family="Times,serif" font-size="14.00" fill="white">10 row(s)/1 chunk(s)</text>
</g>
<!-- 139841379812880 -->
<g id="node3" class="node">
<title>139841379812880</title>
<g id="a_node3"><a xlink:title="Output: 10 rows in 1 chunk, 16 µs 271 ns.">
<polygon fill="none" stroke="white" points="536.5,-1607 428.5,-1607 428.5,-1553 536.5,-1553 536.5,-1607"/>
<text text-anchor="middle" x="482.5" y="-1591.8" font-family="Times,serif" font-size="14.00" fill="white">Limit</text>
<text text-anchor="middle" x="482.5" y="-1560.8" font-family="Times,serif" font-size="14.00" fill="white">16 µs 271 ns</text>
</a>
</g>
</g>
<!-- 139841379812880&#45;&gt;139679259321680 -->
<g id="edge2" class="edge">
<title>139841379812880&#45;&gt;139679259321680</title>
<path fill="none" stroke="white" d="M482.5,-1607.26C482.5,-1619.49 482.5,-1634.24 482.5,-1647.52"/>
<polygon fill="white" stroke="white" points="479,-1647.79 482.5,-1657.79 486,-1647.79 479,-1647.79"/>
<text text-anchor="middle" x="556" y="-1628.8" font-family="Times,serif" font-size="14.00" fill="white">10 row(s)/1 chunk(s)</text>
</g>
<!-- 139679259321360 -->
<g id="node4" class="node">
<title>139679259321360</title>
<g id="a_node4"><a xlink:title="Output: 566098 rows in 9 chunks, 502 ms 21 µs.&#10;Operator step runtimes:&#10; MaterializeSortColumns 122 ms 362 µs&#10; Sort 354 ms 938 µs&#10; TemporaryResultWriting 2 ms 102 µs&#10; WriteOutput 21 ms 266 µs.">
<polygon fill="none" stroke="white" stroke-width="8" points="539,-1502 426,-1502 426,-1448 539,-1448 539,-1502"/>
<text text-anchor="middle" x="482.5" y="-1486.8" font-family="Times,serif" font-size="14.00" fill="white">Sort</text>
<text text-anchor="middle" x="482.5" y="-1455.8" font-family="Times,serif" font-size="14.00" fill="white">502 ms 21 µs</text>
</a>
</g>
</g>
<!-- 139679259321360&#45;&gt;139841379812880 -->
<g id="edge3" class="edge">
<title>139679259321360&#45;&gt;139841379812880</title>
<path fill="none" stroke="white" d="M482.5,-1502.26C482.5,-1514.49 482.5,-1529.24 482.5,-1542.52"/>
<polygon fill="white" stroke="white" points="479,-1542.79 482.5,-1552.79 486,-1542.79 479,-1542.79"/>
<text text-anchor="middle" x="576" y="-1523.8" font-family="Times,serif" font-size="14.00" fill="white">566,098 row(s)/9 chunk(s)</text>
</g>
<!-- 139841379800592 -->
<g id="node5" class="node">
<title>139841379800592</title>
<g id="a_node5"><a xlink:title="Output: 566098 rows in 9 chunks, 436 ms 548 µs.&#10;Operator step runtimes:&#10; GroupByKeyPartitioning 262 ms 56 µs&#10; Aggregating 160 ms 709 µs&#10; GroupByColumnsWriting 2 ms 207 µs&#10; AggregateColumnsWriting 1 ms 915 µs&#10; OutputWriting 19 µs 347 ns.">
<polygon fill="none" stroke="white" stroke-width="7.66" points="631,-1397 334,-1397 334,-1283 631,-1283 631,-1397"/>
<text text-anchor="middle" x="482.5" y="-1381.8" font-family="Times,serif" font-size="14.00" fill="white">AggregateHash</text>
<text text-anchor="middle" x="482.5" y="-1366.8" font-family="Times,serif" font-size="14.00" fill="white">GroupBy {l_orderkey,</text>
<text text-anchor="middle" x="482.5" y="-1351.8" font-family="Times,serif" font-size="14.00" fill="white">o_orderdate,</text>
<text text-anchor="middle" x="482.5" y="-1336.8" font-family="Times,serif" font-size="14.00" fill="white">o_shippriority}</text>
<text text-anchor="middle" x="482.5" y="-1321.8" font-family="Times,serif" font-size="14.00" fill="white">SUM(l_extendedprice * (1 &#45; l_discount))</text>
<text text-anchor="middle" x="482.5" y="-1290.8" font-family="Times,serif" font-size="14.00" fill="white">436 ms 548 µs</text>
</a>
</g>
</g>
<!-- 139841379800592&#45;&gt;139679259321360 -->
<g id="edge4" class="edge">
<title>139841379800592&#45;&gt;139679259321360</title>
<path fill="none" stroke="white" d="M482.5,-1397.02C482.5,-1410.77 482.5,-1425.14 482.5,-1437.69"/>
<polygon fill="white" stroke="white" points="479,-1437.75 482.5,-1447.75 486,-1437.75 479,-1437.75"/>
<text text-anchor="middle" x="576" y="-1418.8" font-family="Times,serif" font-size="14.00" fill="white">566,098 row(s)/9 chunk(s)</text>
</g>
<!-- 139679259321040 -->
<g id="node6" class="node">
<title>139679259321040</title>
<g id="a_node6"><a xlink:title="Output: 1495585 rows in 8 chunks, 48 ms 734 µs.&#10;Operator step runtimes:&#10; ForwardUnmodifiedColumns 16 µs 621 ns&#10; EvaluateNewColumns 48 ms 635 µs&#10; BuildOutput 70 µs 602 ns.">
<polygon fill="none" stroke="white" stroke-width="2.25" points="539,-1232 426,-1232 426,-1178 539,-1178 539,-1232"/>
<text text-anchor="middle" x="482.5" y="-1216.8" font-family="Times,serif" font-size="14.00" fill="white">Projection</text>
<text text-anchor="middle" x="482.5" y="-1185.8" font-family="Times,serif" font-size="14.00" fill="white">48 ms 734 µs</text>
</a>
</g>
</g>
<!-- 139679259321040&#45;&gt;139841379800592 -->
<g id="edge5" class="edge">
<title>139679259321040&#45;&gt;139841379800592</title>
<path fill="none" stroke="white" d="M482.5,-1232.28C482.5,-1243.91 482.5,-1258.18 482.5,-1272.45"/>
<polygon fill="white" stroke="white" points="479,-1272.8 482.5,-1282.8 486,-1272.8 479,-1272.8"/>
<text text-anchor="middle" x="583" y="-1253.8" font-family="Times,serif" font-size="14.00" fill="white">1,495,585 row(s)/8 chunk(s)</text>
</g>
<!-- 139679259320720 -->
<g id="node7" class="node">
<title>139679259320720</title>
<g id="a_node7"><a xlink:title="Output: 1495585 rows in 8 chunks, 175 ms 183 µs.&#10;Operator step runtimes:&#10; BuildSideMaterializing 34 ms 483 µs&#10; ProbeSideMaterializing 103 ms 758 µs&#10; Clustering 3 ms 170 µs&#10; Building 12 ms 35 µs&#10; Probing 12 ms 392 µs&#10; OutputWriting 9 ms 207 µs.&#10;Radix bits: 4.&#10;Build side is left.">
<polygon fill="none" stroke="white" stroke-width="5.4" points="578,-1127 387,-1127 387,-1058 578,-1058 578,-1127"/>
<text text-anchor="middle" x="482.5" y="-1111.8" font-family="Times,serif" font-size="14.00" fill="white">JoinHash (Inner)</text>
<text text-anchor="middle" x="482.5" y="-1096.8" font-family="Times,serif" font-size="14.00" fill="white">l_orderkey = o_orderkey</text>
<text text-anchor="middle" x="482.5" y="-1065.8" font-family="Times,serif" font-size="14.00" fill="white">175 ms 183 µs</text>
</a>
</g>
</g>
<!-- 139679259320720&#45;&gt;139679259321040 -->
<g id="edge6" class="edge">
<title>139679259320720&#45;&gt;139679259321040</title>
<path fill="none" stroke="white" d="M482.5,-1127.25C482.5,-1140.07 482.5,-1154.73 482.5,-1167.77"/>
<polygon fill="white" stroke="white" points="479,-1167.81 482.5,-1177.81 486,-1167.81 479,-1167.81"/>
<text text-anchor="middle" x="583" y="-1148.8" font-family="Times,serif" font-size="14.00" fill="white">1,495,585 row(s)/8 chunk(s)</text>
</g>
<!-- 139841379813392 -->
<g id="node8" class="node">
<title>139841379813392</title>
<g id="a_node8"><a xlink:title="Output: 1495585 rows in 16 chunks, 3 ms 521 µs.">
<polygon fill="none" stroke="white" points="420.5,-1007 316.5,-1007 316.5,-953 420.5,-953 420.5,-1007"/>
<text text-anchor="middle" x="368.5" y="-991.8" font-family="Times,serif" font-size="14.00" fill="white">Validate</text>
<text text-anchor="middle" x="368.5" y="-960.8" font-family="Times,serif" font-size="14.00" fill="white">3 ms 521 µs</text>
</a>
</g>
</g>
<!-- 139841379813392&#45;&gt;139679259320720 -->
<g id="edge7" class="edge">
<title>139841379813392&#45;&gt;139679259320720</title>
<path fill="none" stroke="white" d="M365.23,-1007.03C365.16,-1018.07 366.93,-1030.54 373.5,-1040 376.19,-1043.88 379.25,-1047.47 382.6,-1050.8"/>
<polygon fill="white" stroke="white" points="382.87,-1051.04 380.55,-1053.66 390.35,-1057.67 382.87,-1051.04"/>
<text text-anchor="middle" x="478.5" y="-1028.8" font-family="Times,serif" font-size="14.00" fill="white">1,495,585 row(s)/16 chunk(s)</text>
</g>
<!-- 139679259320400 -->
<g id="node9" class="node">
<title>139679259320400</title>
<g id="a_node9"><a xlink:title="Output: 1495585 rows in 16 chunks, 496 ms 438 µs.&#10;Operator step runtimes:&#10; BuildSideMaterializing 237 ms 100 µs&#10; ProbeSideMaterializing 87 ms 13 µs&#10; Clustering 100 ms 401 µs&#10; Building 11 ms 240 µs&#10; Probing 51 ms 732 µs&#10; OutputWriting 8 ms 652 µs.&#10;Radix bits: 6.&#10;Build side is right.">
<polygon fill="none" stroke="white" stroke-width="7.97" points="468.5,-902 260.5,-902 260.5,-833 468.5,-833 468.5,-902"/>
<text text-anchor="middle" x="364.5" y="-886.8" font-family="Times,serif" font-size="14.00" fill="white">JoinHash (Semi Reduction)</text>
<text text-anchor="middle" x="364.5" y="-871.8" font-family="Times,serif" font-size="14.00" fill="white">l_orderkey = o_orderkey</text>
<text text-anchor="middle" x="364.5" y="-840.8" font-family="Times,serif" font-size="14.00" fill="white">496 ms 438 µs</text>
</a>
</g>
</g>
<!-- 139679259320400&#45;&gt;139841379813392 -->
<g id="edge8" class="edge">
<title>139679259320400&#45;&gt;139841379813392</title>
<path fill="none" stroke="white" d="M364.66,-902.34C364.81,-912.81 365.06,-924.39 365.5,-935 365.61,-937.54 365.73,-940.17 365.88,-942.81"/>
<polygon fill="white" stroke="white" points="362.4,-943.18 366.49,-952.95 369.38,-942.76 362.4,-943.18"/>
<text text-anchor="middle" x="470.5" y="-923.8" font-family="Times,serif" font-size="14.00" fill="white">1,495,585 row(s)/16 chunk(s)</text>
</g>
<!-- 139679259318800 -->
<g id="node10" class="node">
<title>139679259318800</title>
<g id="a_node10"><a xlink:title="Output: 160246829 rows in 4578 chunks, 64 ms 122 µs.&#10;Chunks: 0 skipped with no results, &#10;0 skipped with all matching, 0 scanned using binary search.">
<polygon fill="none" stroke="white" stroke-width="2.92" points="199,-782 0,-782 0,-698 199,-698 199,-782"/>
<text text-anchor="middle" x="99.5" y="-766.8" font-family="Times,serif" font-size="14.00" fill="white">TableScan</text>
<text text-anchor="middle" x="99.5" y="-751.8" font-family="Times,serif" font-size="14.00" fill="white">Impl: ColumnVsValue</text>
<text text-anchor="middle" x="99.5" y="-736.8" font-family="Times,serif" font-size="14.00" fill="white">l_shipdate &gt; &#39;1995&#45;03&#45;27&#39;</text>
<text text-anchor="middle" x="99.5" y="-705.8" font-family="Times,serif" font-size="14.00" fill="white">64 ms 122 µs</text>
</a>
</g>
</g>
<!-- 139679259318800&#45;&gt;139679259320400 -->
<g id="edge9" class="edge">
<title>139679259318800&#45;&gt;139679259320400</title>
<path fill="none" stroke="white" stroke-width="6.45" d="M98.92,-782.26C100.79,-794.2 104.97,-806.34 113.5,-815 133.04,-834.85 193.53,-847.6 250.23,-855.45"/>
<polygon fill="white" stroke="white" stroke-width="6.45" points="250.48,-855.48 249.73,-861.08 260.39,-856.81 250.48,-855.48"/>
<text text-anchor="middle" x="238.5" y="-803.8" font-family="Times,serif" font-size="14.00" fill="white">160,246,829 row(s)/4,578 chunk(s)</text>
</g>
<!-- 139841379762448 -->
<g id="node11" class="node">
<title>139841379762448</title>
<g id="a_node11"><a xlink:title="Output: 300005811 rows in 4578 chunks, 10 ms 425 µs.">
<polygon fill="none" stroke="white" points="165,-647 34,-647 34,-533 165,-533 165,-647"/>
<text text-anchor="middle" x="99.5" y="-631.8" font-family="Times,serif" font-size="14.00" fill="white">GetTable</text>
<text text-anchor="middle" x="99.5" y="-616.8" font-family="Times,serif" font-size="14.00" fill="white">(lineitem)</text>
<text text-anchor="middle" x="99.5" y="-601.8" font-family="Times,serif" font-size="14.00" fill="white">pruned:</text>
<text text-anchor="middle" x="99.5" y="-586.8" font-family="Times,serif" font-size="14.00" fill="white">0/4578 chunk(s)</text>
<text text-anchor="middle" x="99.5" y="-571.8" font-family="Times,serif" font-size="14.00" fill="white">12/16 column(s)</text>
<text text-anchor="middle" x="99.5" y="-540.8" font-family="Times,serif" font-size="14.00" fill="white">10 ms 425 µs</text>
</a>
</g>
</g>
<!-- 139841379762448&#45;&gt;139679259318800 -->
<g id="edge10" class="edge">
<title>139841379762448&#45;&gt;139679259318800</title>
<path fill="none" stroke="white" stroke-width="8" d="M99.5,-647.37C99.5,-660.65 99.5,-674.74 99.5,-687.77"/>
<polygon fill="white" stroke="white" stroke-width="8" points="92.5,-687.97 99.5,-697.97 106.5,-687.97 92.5,-687.97"/>
<text text-anchor="middle" x="224.5" y="-668.8" font-family="Times,serif" font-size="14.00" fill="white">300,005,811 row(s)/4,578 chunk(s)</text>
</g>
<!-- 139841379813648 -->
<g id="node12" class="node">
<title>139841379813648</title>
<g id="a_node12"><a xlink:title="Output: 7361501 rows in 16 chunks, 4 ms 520 µs.">
<polygon fill="none" stroke="white" points="536.5,-767 432.5,-767 432.5,-713 536.5,-713 536.5,-767"/>
<text text-anchor="middle" x="484.5" y="-751.8" font-family="Times,serif" font-size="14.00" fill="white">Validate</text>
<text text-anchor="middle" x="484.5" y="-720.8" font-family="Times,serif" font-size="14.00" fill="white">4 ms 520 µs</text>
</a>
</g>
</g>
<!-- 139841379813648&#45;&gt;139679259320720 -->
<g id="edge12" class="edge">
<title>139841379813648&#45;&gt;139679259320720</title>
<path fill="none" stroke="white" d="M536.63,-759.43C554.78,-768.65 573.17,-781.82 583.5,-800 636.19,-892.74 639.22,-949.04 583.5,-1040 581.19,-1043.78 578.5,-1047.29 575.52,-1050.55"/>
<polygon fill="white" stroke="white" points="568.09,-1057.72 577.72,-1053.29 575.29,-1050.78 568.09,-1057.72"/>
<text text-anchor="middle" x="728.5" y="-923.8" font-family="Times,serif" font-size="14.00" fill="white">7,361,501 row(s)/16 chunk(s)</text>
</g>
<!-- 139841379813648&#45;&gt;139679259320400 -->
<g id="edge11" class="edge">
<title>139841379813648&#45;&gt;139679259320400</title>
<path fill="none" stroke="white" d="M432.48,-756.72C410.87,-765.9 387.59,-779.76 373.5,-800 368.86,-806.65 366.09,-814.61 364.49,-822.66"/>
<polygon fill="white" stroke="white" points="363.07,-832.82 367.92,-823.41 364.46,-822.92 363.07,-832.82"/>
<text text-anchor="middle" x="478.5" y="-803.8" font-family="Times,serif" font-size="14.00" fill="white">7,361,501 row(s)/16 chunk(s)</text>
</g>
<!-- 139679259319760 -->
<g id="node13" class="node">
<title>139679259319760</title>
<g id="a_node13"><a xlink:title="Output: 7361501 rows in 16 chunks, 107 ms 153 µs.&#10;Operator step runtimes:&#10; BuildSideMaterializing 3 ms 73 µs&#10; ProbeSideMaterializing 27 ms 969 µs&#10; Clustering 35 ms 756 µs&#10; Building 1 ms 676 µs&#10; Probing 19 ms 141 µs&#10; OutputWriting 19 ms 376 µs.&#10;Radix bits: 4.&#10;Build side is right.">
<polygon fill="none" stroke="white" stroke-width="4.19" points="572.5,-624.5 396.5,-624.5 396.5,-555.5 572.5,-555.5 572.5,-624.5"/>
<text text-anchor="middle" x="484.5" y="-609.3" font-family="Times,serif" font-size="14.00" fill="white">JoinHash (Semi)</text>
<text text-anchor="middle" x="484.5" y="-594.3" font-family="Times,serif" font-size="14.00" fill="white">o_custkey = c_custkey</text>
<text text-anchor="middle" x="484.5" y="-563.3" font-family="Times,serif" font-size="14.00" fill="white">107 ms 153 µs</text>
</a>
</g>
</g>
<!-- 139679259319760&#45;&gt;139841379813648 -->
<g id="edge13" class="edge">
<title>139679259319760&#45;&gt;139841379813648</title>
<path fill="none" stroke="white" d="M484.5,-624.58C484.5,-647.91 484.5,-678.97 484.5,-702.84"/>
<polygon fill="white" stroke="white" points="481,-702.92 484.5,-712.92 488,-702.92 481,-702.92"/>
<text text-anchor="middle" x="589.5" y="-668.8" font-family="Times,serif" font-size="14.00" fill="white">7,361,501 row(s)/16 chunk(s)</text>
</g>
<!-- 139679259318480 -->
<g id="node14" class="node">
<title>139679259318480</title>
<g id="a_node14"><a xlink:title="Output: 36811111 rows in 1145 chunks, 10 ms 920 µs.&#10;Chunks: 0 skipped with no results, &#10;0 skipped with all matching, 0 scanned using binary search.">
<polygon fill="none" stroke="white" points="458.5,-482 246.5,-482 246.5,-398 458.5,-398 458.5,-482"/>
<text text-anchor="middle" x="352.5" y="-466.8" font-family="Times,serif" font-size="14.00" fill="white">TableScan</text>
<text text-anchor="middle" x="352.5" y="-451.8" font-family="Times,serif" font-size="14.00" fill="white">Impl: ColumnVsValue</text>
<text text-anchor="middle" x="352.5" y="-436.8" font-family="Times,serif" font-size="14.00" fill="white">o_orderdate &lt; &#39;1995&#45;03&#45;27&#39;</text>
<text text-anchor="middle" x="352.5" y="-405.8" font-family="Times,serif" font-size="14.00" fill="white">10 ms 920 µs</text>
</a>
</g>
</g>
<!-- 139679259318480&#45;&gt;139679259319760 -->
<g id="edge14" class="edge">
<title>139679259318480&#45;&gt;139679259319760</title>
<path fill="none" stroke="white" stroke-width="2.83" d="M345.78,-482.21C345.82,-493.49 347.73,-505.27 353.5,-515 361.88,-529.14 374.06,-540.8 387.66,-550.35"/>
<polygon fill="white" stroke="white" stroke-width="2.83" points="387.94,-550.53 386.02,-553.45 396.29,-556.02 387.94,-550.53"/>
<text text-anchor="middle" x="474" y="-503.8" font-family="Times,serif" font-size="14.00" fill="white">36,811,111 row(s)/1,145 chunk(s)</text>
</g>
<!-- 139841379763344 -->
<g id="node15" class="node">
<title>139841379763344</title>
<g id="a_node15"><a xlink:title="Output: 75000000 rows in 1145 chunks, 2 ms 704 µs.">
<polygon fill="none" stroke="white" points="418,-347 287,-347 287,-233 418,-233 418,-347"/>
<text text-anchor="middle" x="352.5" y="-331.8" font-family="Times,serif" font-size="14.00" fill="white">GetTable</text>
<text text-anchor="middle" x="352.5" y="-316.8" font-family="Times,serif" font-size="14.00" fill="white">(orders)</text>
<text text-anchor="middle" x="352.5" y="-301.8" font-family="Times,serif" font-size="14.00" fill="white">pruned:</text>
<text text-anchor="middle" x="352.5" y="-286.8" font-family="Times,serif" font-size="14.00" fill="white">0/1145 chunk(s)</text>
<text text-anchor="middle" x="352.5" y="-271.8" font-family="Times,serif" font-size="14.00" fill="white">5/9 column(s)</text>
<text text-anchor="middle" x="352.5" y="-240.8" font-family="Times,serif" font-size="14.00" fill="white">2 ms 704 µs</text>
</a>
</g>
</g>
<!-- 139841379763344&#45;&gt;139679259318480 -->
<g id="edge15" class="edge">
<title>139841379763344&#45;&gt;139679259318480</title>
<path fill="none" stroke="white" stroke-width="4.58" d="M352.5,-347.37C352.5,-360.65 352.5,-374.74 352.5,-387.77"/>
<polygon fill="white" stroke="white" stroke-width="4.58" points="348.49,-387.97 352.5,-397.97 356.51,-387.97 348.49,-387.97"/>
<text text-anchor="middle" x="473" y="-368.8" font-family="Times,serif" font-size="14.00" fill="white">75,000,000 row(s)/1,145 chunk(s)</text>
</g>
<!-- 139841379813136 -->
<g id="node16" class="node">
<title>139841379813136</title>
<g id="a_node16"><a xlink:title="Output: 1501166 rows in 115 chunks, 256 µs 101 ns.">
<polygon fill="none" stroke="white" points="675,-467 558,-467 558,-413 675,-413 675,-467"/>
<text text-anchor="middle" x="616.5" y="-451.8" font-family="Times,serif" font-size="14.00" fill="white">Validate</text>
<text text-anchor="middle" x="616.5" y="-420.8" font-family="Times,serif" font-size="14.00" fill="white">256 µs 101 ns</text>
</a>
</g>
</g>
<!-- 139841379813136&#45;&gt;139679259319760 -->
<g id="edge16" class="edge">
<title>139841379813136&#45;&gt;139679259319760</title>
<path fill="none" stroke="white" d="M613.19,-467.28C610.25,-482.39 604.74,-501.07 594.5,-515 584.85,-528.13 572.12,-539.66 558.76,-549.47"/>
<polygon fill="white" stroke="white" points="550.38,-555.35 560.57,-552.47 558.56,-549.61 550.38,-555.35"/>
<text text-anchor="middle" x="713" y="-503.8" font-family="Times,serif" font-size="14.00" fill="white">1,501,166 row(s)/115 chunk(s)</text>
</g>
<!-- 139679259319120 -->
<g id="node17" class="node">
<title>139679259319120</title>
<g id="a_node17"><a xlink:title="Output: 1501166 rows in 115 chunks, 950 µs 755 ns.&#10;Chunks: 0 skipped with no results, &#10;0 skipped with all matching, 0 scanned using binary search.">
<polygon fill="none" stroke="white" points="742,-332 491,-332 491,-248 742,-248 742,-332"/>
<text text-anchor="middle" x="616.5" y="-316.8" font-family="Times,serif" font-size="14.00" fill="white">TableScan</text>
<text text-anchor="middle" x="616.5" y="-301.8" font-family="Times,serif" font-size="14.00" fill="white">Impl: ColumnVsValue</text>
<text text-anchor="middle" x="616.5" y="-286.8" font-family="Times,serif" font-size="14.00" fill="white">c_mktsegment = &#39;AUTOMOBILE&#39;</text>
<text text-anchor="middle" x="616.5" y="-255.8" font-family="Times,serif" font-size="14.00" fill="white">950 µs 755 ns</text>
</a>
</g>
</g>
<!-- 139679259319120&#45;&gt;139841379813136 -->
<g id="edge17" class="edge">
<title>139679259319120&#45;&gt;139841379813136</title>
<path fill="none" stroke="white" d="M616.5,-332.23C616.5,-354.32 616.5,-381.31 616.5,-402.62"/>
<polygon fill="white" stroke="white" points="613,-402.88 616.5,-412.88 620,-402.88 613,-402.88"/>
<text text-anchor="middle" x="726" y="-368.8" font-family="Times,serif" font-size="14.00" fill="white">1,501,166 row(s)/115 chunk(s)</text>
</g>
<!-- 139841379762896 -->
<g id="node18" class="node">
<title>139841379762896</title>
<g id="a_node18"><a xlink:title="Output: 7500000 rows in 115 chunks, 419 µs 828 ns.">
<polygon fill="none" stroke="white" points="677.5,-148 555.5,-148 555.5,-34 677.5,-34 677.5,-148"/>
<text text-anchor="middle" x="616.5" y="-132.8" font-family="Times,serif" font-size="14.00" fill="white">GetTable</text>
<text text-anchor="middle" x="616.5" y="-117.8" font-family="Times,serif" font-size="14.00" fill="white">(customer)</text>
<text text-anchor="middle" x="616.5" y="-102.8" font-family="Times,serif" font-size="14.00" fill="white">pruned:</text>
<text text-anchor="middle" x="616.5" y="-87.8" font-family="Times,serif" font-size="14.00" fill="white">0/115 chunk(s)</text>
<text text-anchor="middle" x="616.5" y="-72.8" font-family="Times,serif" font-size="14.00" fill="white">6/8 column(s)</text>
<text text-anchor="middle" x="616.5" y="-41.8" font-family="Times,serif" font-size="14.00" fill="white">419 µs 828 ns</text>
</a>
</g>
</g>
<!-- 139841379762896&#45;&gt;139679259319120 -->
<g id="edge18" class="edge">
<title>139841379762896&#45;&gt;139679259319120</title>
<path fill="none" stroke="white" d="M616.5,-148.19C616.5,-176.32 616.5,-210.15 616.5,-237.59"/>
<polygon fill="white" stroke="white" points="613,-237.77 616.5,-247.77 620,-237.77 613,-237.77"/>
<text text-anchor="middle" x="726" y="-203.8" font-family="Times,serif" font-size="14.00" fill="white">7,500,000 row(s)/115 chunk(s)</text>
</g>
<!-- 0 -->
<g id="node19" class="node">
<title>0</title>
<polygon fill="none" stroke="white" points="696,-0.5 696,-181.5 1017,-181.5 1017,-0.5 696,-0.5"/>
<text text-anchor="middle" x="856.5" y="-166.3" font-family="Times,serif" font-size="14.00" fill="white">Total by operator</text>
<polyline fill="none" stroke="white" points="696,-158.5 1017,-158.5 "/>
<text text-anchor="end" x="825" y="-143.3" font-family="Times,serif" font-size="14.00" fill="white">JoinHash </text>
<text text-anchor="end" x="825" y="-128.3" font-family="Times,serif" font-size="14.00" fill="white"> Sort </text>
<text text-anchor="end" x="825" y="-113.3" font-family="Times,serif" font-size="14.00" fill="white"> AggregateHash </text>
<text text-anchor="end" x="825" y="-98.3" font-family="Times,serif" font-size="14.00" fill="white"> TableScan </text>
<text text-anchor="end" x="825" y="-83.3" font-family="Times,serif" font-size="14.00" fill="white"> Projection </text>
<text text-anchor="end" x="825" y="-68.3" font-family="Times,serif" font-size="14.00" fill="white"> GetTable </text>
<text text-anchor="end" x="825" y="-53.3" font-family="Times,serif" font-size="14.00" fill="white"> Validate </text>
<text text-anchor="end" x="825" y="-38.3" font-family="Times,serif" font-size="14.00" fill="white"> Limit </text>
<text text-anchor="end" x="825" y="-23.3" font-family="Times,serif" font-size="14.00" fill="white"> Alias </text>
<text text-anchor="end" x="825" y="-8.3" font-family="Times,serif" font-size="14.00" fill="white">total</text>
<polyline fill="none" stroke="white" points="833,-0.5 833,-158.5 "/>
<text text-anchor="start" x="841" y="-143.3" font-family="Times,serif" font-size="14.00" fill="white">778 ms 774 µs </text>
<text text-anchor="start" x="841" y="-128.3" font-family="Times,serif" font-size="14.00" fill="white"> 502 ms 21 µs </text>
<text text-anchor="start" x="841" y="-113.3" font-family="Times,serif" font-size="14.00" fill="white"> 436 ms 548 µs </text>
<text text-anchor="start" x="841" y="-98.3" font-family="Times,serif" font-size="14.00" fill="white"> 75 ms 994 µs </text>
<text text-anchor="start" x="841" y="-83.3" font-family="Times,serif" font-size="14.00" fill="white"> 48 ms 747 µs </text>
<text text-anchor="start" x="841" y="-68.3" font-family="Times,serif" font-size="14.00" fill="white"> 13 ms 549 µs </text>
<text text-anchor="start" x="841" y="-53.3" font-family="Times,serif" font-size="14.00" fill="white"> 8 ms 297 µs </text>
<text text-anchor="start" x="841" y="-38.3" font-family="Times,serif" font-size="14.00" fill="white"> 16 µs 271 ns </text>
<text text-anchor="start" x="841" y="-23.3" font-family="Times,serif" font-size="14.00" fill="white"> 4 µs 338 ns </text>
<text text-anchor="start" x="841" y="-8.3" font-family="Times,serif" font-size="14.00" fill="white"> 1 s 864 ms </text>
<polyline fill="none" stroke="white" points="964,-0.5 964,-158.5 "/>
<text text-anchor="start" x="972" y="-143.3" font-family="Times,serif" font-size="14.00" fill="white">42 %</text>
<text text-anchor="start" x="972" y="-128.3" font-family="Times,serif" font-size="14.00" fill="white">27 %</text>
<text text-anchor="start" x="972" y="-113.3" font-family="Times,serif" font-size="14.00" fill="white">23 %</text>
<text text-anchor="start" x="972" y="-98.3" font-family="Times,serif" font-size="14.00" fill="white">4 %</text>
<text text-anchor="start" x="972" y="-83.3" font-family="Times,serif" font-size="14.00" fill="white">3 %</text>
<text text-anchor="start" x="972" y="-68.3" font-family="Times,serif" font-size="14.00" fill="white">1 %</text>
<text text-anchor="start" x="972" y="-53.3" font-family="Times,serif" font-size="14.00" fill="white">0 %</text>
<text text-anchor="start" x="972" y="-38.3" font-family="Times,serif" font-size="14.00" fill="white">0 %</text>
<text text-anchor="start" x="972" y="-23.3" font-family="Times,serif" font-size="14.00" fill="white">0 %</text>
<text text-anchor="start" x="972" y="-8.3" font-family="Times,serif" font-size="14.00" fill="white"> </text>
</g>
</g>
</svg>
