<?xml version="1.0" encoding="UTF-8" standalone="no"?>
<!DOCTYPE svg PUBLIC "-//W3C//DTD SVG 1.1//EN"
 "http://www.w3.org/Graphics/SVG/1.1/DTD/svg11.dtd">
<!-- Generated by graphviz version 2.43.0 (0)
 -->
<!-- Title: G Pages: 1 -->
<svg width="1161pt" height="1725pt"
 viewBox="0.00 0.00 1161.00 1725.00" xmlns="http://www.w3.org/2000/svg" xmlns:xlink="http://www.w3.org/1999/xlink">
<g id="graph0" class="graph" transform="scale(1 1) rotate(0) translate(4 1721)">
<title>G</title>
<polygon fill="black" stroke="transparent" points="-4,4 -4,-1721 1157,-1721 1157,4 -4,4"/>
<text text-anchor="middle" x="319.5" y="-1701.8" font-family="Times,serif" font-size="14.00" fill="white">For tooltips with advanced information, hover your mouse over vertices or edge labels.</text>
<!-- 139841620846704 -->
<g id="node1" class="node">
<title>139841620846704</title>
<polygon fill="none" stroke="white" points="581.5,-1662 344.5,-1662 344.5,-1626 581.5,-1626 581.5,-1662"/>
<text text-anchor="middle" x="463" y="-1640.3" font-family="Times,serif" font-size="14.00" fill="white">[Projection] s_name, s_address</text>
</g>
<!-- 139841620957840 -->
<g id="node2" class="node">
<title>139841620957840</title>
<polygon fill="none" stroke="white" points="565,-1575 361,-1575 361,-1539 565,-1539 565,-1575"/>
<text text-anchor="middle" x="463" y="-1553.3" font-family="Times,serif" font-size="14.00" fill="white">[Sort] s_name (Ascending)</text>
</g>
<!-- 139841620957840&#45;&gt;139841620846704 -->
<g id="edge1" class="edge">
<title>139841620957840&#45;&gt;139841620846704</title>
<path fill="none" stroke="white" d="M463,-1575.2C463,-1586.84 463,-1602.45 463,-1615.76"/>
<polygon fill="white" stroke="white" points="459.5,-1615.82 463,-1625.82 466.5,-1615.82 459.5,-1615.82"/>
<g id="a_edge1&#45;label"><a xlink:title="Output Expressions: &#10; (1) s_suppkey&#10; (2) s_name&#10; (3) s_address&#10; (4) s_nationkey&#10;&#10;Unique Column Combinations: &#10; (1) {s_suppkey}&#10;&#10;Functional Dependencies (trivial): &#10; (1) {s_suppkey} =&gt; {s_name, s_address, s_nationkey}&#10;&#10;Functional Dependencies (non&#45;trivial): &#10; &lt;none&gt;">
<text text-anchor="middle" x="555" y="-1596.8" font-family="Times,serif" font-size="14.00" fill="white"> 0.0 row(s) | 100.0% estd.</text>
</a>
</g>
</g>
<!-- 139841620959184 -->
<g id="node3" class="node">
<title>139841620959184</title>
<polygon fill="none" stroke="white" points="637.5,-1488 288.5,-1488 288.5,-1452 637.5,-1452 637.5,-1488"/>
<text text-anchor="middle" x="463" y="-1466.3" font-family="Times,serif" font-size="14.00" fill="white">[Join] Mode: Semi [s_nationkey = n_nationkey]</text>
</g>
<!-- 139841620959184&#45;&gt;139841620957840 -->
<g id="edge2" class="edge">
<title>139841620959184&#45;&gt;139841620957840</title>
<path fill="none" stroke="white" d="M463,-1488.2C463,-1499.84 463,-1515.45 463,-1528.76"/>
<polygon fill="white" stroke="white" points="459.5,-1528.82 463,-1538.82 466.5,-1528.82 459.5,-1528.82"/>
<g id="a_edge2&#45;label"><a xlink:title="Output Expressions: &#10; (1) s_suppkey&#10; (2) s_name&#10; (3) s_address&#10; (4) s_nationkey&#10;&#10;Unique Column Combinations: &#10; (1) {s_suppkey}&#10;&#10;Functional Dependencies (trivial): &#10; (1) {s_suppkey} =&gt; {s_name, s_address, s_nationkey}&#10;&#10;Functional Dependencies (non&#45;trivial): &#10; &lt;none&gt;">
<text text-anchor="middle" x="555" y="-1509.8" font-family="Times,serif" font-size="14.00" fill="white"> 0.0 row(s) | 100.0% estd.</text>
</a>
</g>
</g>
<!-- 139841620840784 -->
<g id="node4" class="node">
<title>139841620840784</title>
<polygon fill="none" stroke="white" points="609.5,-1347 524.5,-1347 524.5,-1311 609.5,-1311 609.5,-1347"/>
<text text-anchor="middle" x="567" y="-1325.3" font-family="Times,serif" font-size="14.00" fill="white">[Validate]</text>
</g>
<!-- 139841620840784&#45;&gt;139841620959184 -->
<g id="edge3" class="edge">
<title>139841620840784&#45;&gt;139841620959184</title>
<path fill="none" stroke="white" d="M569.19,-1347.14C571.08,-1369.57 570.91,-1408.99 551,-1434 547.19,-1438.78 542.64,-1442.91 537.63,-1446.48"/>
<polygon fill="white" stroke="white" points="537.32,-1446.67 535.47,-1443.7 528.84,-1451.96 537.32,-1446.67"/>
<g id="a_edge3&#45;label"><a xlink:title="Output Expressions: &#10; (1) s_suppkey&#10; (2) s_name&#10; (3) s_address&#10; (4) s_nationkey&#10;&#10;Unique Column Combinations: &#10; (1) {s_suppkey}&#10;&#10;Functional Dependencies (trivial): &#10; (1) {s_suppkey} =&gt; {s_name, s_address, s_nationkey}&#10;&#10;Functional Dependencies (non&#45;trivial): &#10; &lt;none&gt;">
<text text-anchor="middle" x="662" y="-1379.3" font-family="Times,serif" font-size="14.00" fill="white"> 0.0 row(s) | 100.0% estd.</text>
</a>
</g>
</g>
<!-- 139841620959760 -->
<g id="node5" class="node">
<title>139841620959760</title>
<polygon fill="none" stroke="white" points="696.5,-1204 361.5,-1204 361.5,-1168 696.5,-1168 696.5,-1204"/>
<text text-anchor="middle" x="529" y="-1182.3" font-family="Times,serif" font-size="14.00" fill="white">[Join] Mode: Semi [s_suppkey = ps_suppkey]</text>
</g>
<!-- 139841620959760&#45;&gt;139841620840784 -->
<g id="edge4" class="edge">
<title>139841620959760&#45;&gt;139841620840784</title>
<path fill="none" stroke="white" d="M537.76,-1204.14C540.37,-1209.73 543.04,-1216.03 545,-1222 553.56,-1248.13 559.52,-1279.01 563.06,-1300.68"/>
<polygon fill="white" stroke="white" points="559.64,-1301.47 564.64,-1310.8 566.56,-1300.38 559.64,-1301.47"/>
<g id="a_edge4&#45;label"><a xlink:title="Output Expressions: &#10; (1) s_suppkey&#10; (2) s_name&#10; (3) s_address&#10; (4) s_nationkey&#10;&#10;Unique Column Combinations: &#10; (1) {s_suppkey}&#10;&#10;Functional Dependencies (trivial): &#10; (1) {s_suppkey} =&gt; {s_name, s_address, s_nationkey}&#10;&#10;Functional Dependencies (non&#45;trivial): &#10; &lt;none&gt;">
<text text-anchor="middle" x="633" y="-1225.8" font-family="Times,serif" font-size="14.00" fill="white"> 0.0 row(s) | 0.0% estd.</text>
</a>
</g>
</g>
<!-- 139841620958800 -->
<g id="node24" class="node">
<title>139841620958800</title>
<polygon fill="none" stroke="white" points="527.5,-1293 178.5,-1293 178.5,-1255 527.5,-1255 527.5,-1293"/>
<text text-anchor="middle" x="353" y="-1277.8" font-family="Times,serif" font-size="14.00" fill="white">[Join] Mode: Semi [s_nationkey = n_nationkey]</text>
<text text-anchor="middle" x="353" y="-1262.8" font-family="Times,serif" font-size="14.00" fill="white">(SemiJoinReductionRule)</text>
</g>
<!-- 139841620959760&#45;&gt;139841620958800 -->
<g id="edge5" class="edge">
<title>139841620959760&#45;&gt;139841620958800</title>
<path fill="none" stroke="white" d="M410.58,-1204.02C399.25,-1208.69 388.47,-1214.58 379,-1222 371.38,-1227.97 365.8,-1236.77 361.8,-1245.39"/>
<polygon fill="white" stroke="white" points="357.94,-1254.89 364.95,-1246.94 361.71,-1245.62 357.94,-1254.89"/>
<g id="a_edge5&#45;label"><a xlink:title="Output Expressions: &#10; (1) s_suppkey&#10; (2) s_name&#10; (3) s_address&#10; (4) s_nationkey&#10;&#10;Unique Column Combinations: &#10; (1) {s_suppkey}&#10;&#10;Functional Dependencies (trivial): &#10; (1) {s_suppkey} =&gt; {s_name, s_address, s_nationkey}&#10;&#10;Functional Dependencies (non&#45;trivial): &#10; &lt;none&gt;">
<text text-anchor="middle" x="462" y="-1225.8" font-family="Times,serif" font-size="14.00" fill="white"> 0.0 row(s) | 0.0% estd.</text>
</a>
</g>
</g>
<!-- 139841620869584 -->
<g id="node6" class="node">
<title>139841620869584</title>
<polygon fill="none" stroke="white" points="924,-1117 602,-1117 602,-1079 924,-1079 924,-1117"/>
<text text-anchor="middle" x="763" y="-1101.8" font-family="Times,serif" font-size="14.00" fill="white">[StoredTable] Name: &#39;supplier&#39; pruned: 0/8</text>
<text text-anchor="middle" x="763" y="-1086.8" font-family="Times,serif" font-size="14.00" fill="white">chunk(s), 3/7 column(s)</text>
</g>
<!-- 139841620869584&#45;&gt;139841620959760 -->
<g id="edge6" class="edge">
<title>139841620869584&#45;&gt;139841620959760</title>
<path fill="none" stroke="white" d="M745.67,-1117.24C734.06,-1128.37 717.86,-1141.97 701,-1150 688.26,-1156.07 674.5,-1161.09 660.5,-1165.24"/>
<polygon fill="white" stroke="white" points="660.41,-1165.26 659.47,-1161.89 650.79,-1167.97 660.41,-1165.26"/>
<g id="a_edge6&#45;label"><a xlink:title="Output Expressions: &#10; (1) s_suppkey&#10; (2) s_name&#10; (3) s_address&#10; (4) s_nationkey&#10;&#10;Unique Column Combinations: &#10; (1) {s_suppkey}&#10;&#10;Functional Dependencies (trivial): &#10; (1) {s_suppkey} =&gt; {s_name, s_address, s_nationkey}&#10;&#10;Functional Dependencies (non&#45;trivial): &#10; &lt;none&gt;">
<text text-anchor="middle" x="840" y="-1138.8" font-family="Times,serif" font-size="14.00" fill="white"> 500,000.0 row(s) | 100.0% estd.</text>
</a>
</g>
</g>
<!-- 139841620849264 -->
<g id="node7" class="node">
<title>139841620849264</title>
<polygon fill="none" stroke="white" points="583.5,-1116 396.5,-1116 396.5,-1080 583.5,-1080 583.5,-1116"/>
<text text-anchor="middle" x="490" y="-1094.3" font-family="Times,serif" font-size="14.00" fill="white">[Projection] ps_suppkey</text>
</g>
<!-- 139841620849264&#45;&gt;139841620959760 -->
<g id="edge7" class="edge">
<title>139841620849264&#45;&gt;139841620959760</title>
<path fill="none" stroke="white" d="M497.89,-1116.4C503.37,-1128.49 510.78,-1144.82 516.99,-1158.51"/>
<polygon fill="white" stroke="white" points="521.25,-1167.92 520.31,-1157.36 517.12,-1158.81 521.25,-1167.92"/>
<g id="a_edge7&#45;label"><a xlink:title="Output Expressions: &#10; (1) ps_suppkey&#10;&#10;Unique Column Combinations: &#10; &lt;none&gt;&#10;&#10;Functional Dependencies (trivial): &#10; &lt;none&gt;&#10;&#10;Functional Dependencies (non&#45;trivial): &#10; &lt;none&gt;">
<text text-anchor="middle" x="605" y="-1138.8" font-family="Times,serif" font-size="14.00" fill="white"> 0.0 row(s) | 100.0% estd.</text>
</a>
</g>
</g>
<!-- 139841620961104 -->
<g id="node8" class="node">
<title>139841620961104</title>
<polygon fill="none" stroke="white" points="676,-1028 304,-1028 304,-975 676,-975 676,-1028"/>
<text text-anchor="middle" x="490" y="-1012.8" font-family="Times,serif" font-size="14.00" fill="white">[Join] Mode: Semi [ps_suppkey = l_suppkey]</text>
<text text-anchor="middle" x="490" y="-997.8" font-family="Times,serif" font-size="14.00" fill="white">[ps_availqty &gt; 0.5 * SUM(l_quantity)] [ps_partkey</text>
<text text-anchor="middle" x="490" y="-982.8" font-family="Times,serif" font-size="14.00" fill="white">= l_partkey]</text>
</g>
<!-- 139841620961104&#45;&gt;139841620849264 -->
<g id="edge8" class="edge">
<title>139841620961104&#45;&gt;139841620849264</title>
<path fill="none" stroke="white" d="M490,-1028.32C490,-1041.13 490,-1056.6 490,-1069.62"/>
<polygon fill="white" stroke="white" points="486.5,-1069.86 490,-1079.86 493.5,-1069.86 486.5,-1069.86"/>
<g id="a_edge8&#45;label"><a xlink:title="Output Expressions: &#10; (1) ps_partkey&#10; (2) ps_suppkey&#10; (3) ps_availqty&#10;&#10;Unique Column Combinations: &#10; (1) {ps_partkey, ps_suppkey}&#10;&#10;Functional Dependencies (trivial): &#10; (1) {ps_partkey, ps_suppkey} =&gt; {ps_availqty}&#10;&#10;Functional Dependencies (non&#45;trivial): &#10; &lt;none&gt;">
<text text-anchor="middle" x="577.5" y="-1049.8" font-family="Times,serif" font-size="14.00" fill="white"> 0.0 row(s) | 25.0% estd.</text>
</a>
</g>
</g>
<!-- 139841620848944 -->
<g id="node9" class="node">
<title>139841620848944</title>
<polygon fill="none" stroke="white" points="562.5,-480 477.5,-480 477.5,-444 562.5,-444 562.5,-480"/>
<text text-anchor="middle" x="520" y="-458.3" font-family="Times,serif" font-size="14.00" fill="white">[Validate]</text>
</g>
<!-- 139841620848944&#45;&gt;139841620961104 -->
<g id="edge9" class="edge">
<title>139841620848944&#45;&gt;139841620961104</title>
<path fill="none" stroke="white" d="M504.43,-480.25C491.08,-496.87 474,-523.35 474,-550 474,-550 474,-550 474,-906 474,-925.61 477.39,-947.2 481.05,-964.78"/>
<polygon fill="white" stroke="white" points="481.07,-964.86 477.65,-965.61 483.21,-974.63 481.07,-964.86"/>
<g id="a_edge9&#45;label"><a xlink:title="Output Expressions: &#10; (1) ps_partkey&#10; (2) ps_suppkey&#10; (3) ps_availqty&#10;&#10;Unique Column Combinations: &#10; (1) {ps_partkey, ps_suppkey}&#10;&#10;Functional Dependencies (trivial): &#10; (1) {ps_partkey, ps_suppkey} =&gt; {ps_availqty}&#10;&#10;Functional Dependencies (non&#45;trivial): &#10; &lt;none&gt;">
<text text-anchor="middle" x="566" y="-724.3" font-family="Times,serif" font-size="14.00" fill="white"> 0.0 row(s) | 100.0% estd.</text>
</a>
</g>
</g>
<!-- 139841620955152 -->
<g id="node19" class="node">
<title>139841620955152</title>
<polygon fill="none" stroke="white" points="880.5,-659 557.5,-659 557.5,-621 880.5,-621 880.5,-659"/>
<text text-anchor="middle" x="719" y="-643.8" font-family="Times,serif" font-size="14.00" fill="white">[Join] Mode: Semi [ps_partkey = l_partkey]</text>
<text text-anchor="middle" x="719" y="-628.8" font-family="Times,serif" font-size="14.00" fill="white">(SemiJoinReductionRule)</text>
</g>
<!-- 139841620848944&#45;&gt;139841620955152 -->
<g id="edge11" class="edge">
<title>139841620848944&#45;&gt;139841620955152</title>
<path fill="none" stroke="white" d="M516.25,-480.18C512.28,-503.14 509.06,-543.94 529,-570 545.91,-592.09 570.56,-607.12 596.54,-617.34"/>
<polygon fill="white" stroke="white" points="606.16,-620.89 597.99,-614.14 596.78,-617.42 606.16,-620.89"/>
<g id="a_edge11&#45;label"><a xlink:title="Output Expressions: &#10; (1) ps_partkey&#10; (2) ps_suppkey&#10; (3) ps_availqty&#10;&#10;Unique Column Combinations: &#10; (1) {ps_partkey, ps_suppkey}&#10;&#10;Functional Dependencies (trivial): &#10; (1) {ps_partkey, ps_suppkey} =&gt; {ps_availqty}&#10;&#10;Functional Dependencies (non&#45;trivial): &#10; &lt;none&gt;">
<text text-anchor="middle" x="621" y="-547.3" font-family="Times,serif" font-size="14.00" fill="white"> 0.0 row(s) | 100.0% estd.</text>
</a>
</g>
</g>
<!-- 139841620985168 -->
<g id="node20" class="node">
<title>139841620985168</title>
<polygon fill="none" stroke="white" points="1054,-570 722,-570 722,-532 1054,-532 1054,-570"/>
<text text-anchor="middle" x="888" y="-554.8" font-family="Times,serif" font-size="14.00" fill="white">[Join] Mode: Semi [ps_suppkey = l_suppkey]</text>
<text text-anchor="middle" x="888" y="-539.8" font-family="Times,serif" font-size="14.00" fill="white">(SemiJoinReductionRule)</text>
</g>
<!-- 139841620848944&#45;&gt;139841620985168 -->
<g id="edge10" class="edge">
<title>139841620848944&#45;&gt;139841620985168</title>
<path fill="none" stroke="white" d="M562.64,-476.21C598.94,-487.19 652.59,-502.77 700,-514 724.27,-519.75 750.46,-525.22 775.36,-530.08"/>
<polygon fill="white" stroke="white" points="785.21,-531.99 776.05,-526.65 775.39,-530.09 785.21,-531.99"/>
<g id="a_edge10&#45;label"><a xlink:title="Output Expressions: &#10; (1) ps_partkey&#10; (2) ps_suppkey&#10; (3) ps_availqty&#10;&#10;Unique Column Combinations: &#10; (1) {ps_partkey, ps_suppkey}&#10;&#10;Functional Dependencies (trivial): &#10; (1) {ps_partkey, ps_suppkey} =&gt; {ps_availqty}&#10;&#10;Functional Dependencies (non&#45;trivial): &#10; &lt;none&gt;">
<text text-anchor="middle" x="792" y="-502.8" font-family="Times,serif" font-size="14.00" fill="white"> 0.0 row(s) | 100.0% estd.</text>
</a>
</g>
</g>
<!-- 139841620960144 -->
<g id="node10" class="node">
<title>139841620960144</title>
<polygon fill="none" stroke="white" points="684,-391 356,-391 356,-355 684,-355 684,-391"/>
<text text-anchor="middle" x="520" y="-369.3" font-family="Times,serif" font-size="14.00" fill="white">[Join] Mode: Semi [ps_partkey = p_partkey]</text>
</g>
<!-- 139841620960144&#45;&gt;139841620848944 -->
<g id="edge12" class="edge">
<title>139841620960144&#45;&gt;139841620848944</title>
<path fill="none" stroke="white" d="M520,-391.19C520,-403.34 520,-419.89 520,-433.82"/>
<polygon fill="white" stroke="white" points="516.5,-433.85 520,-443.85 523.5,-433.85 516.5,-433.85"/>
<g id="a_edge12&#45;label"><a xlink:title="Output Expressions: &#10; (1) ps_partkey&#10; (2) ps_suppkey&#10; (3) ps_availqty&#10;&#10;Unique Column Combinations: &#10; (1) {ps_partkey, ps_suppkey}&#10;&#10;Functional Dependencies (trivial): &#10; (1) {ps_partkey, ps_suppkey} =&gt; {ps_availqty}&#10;&#10;Functional Dependencies (non&#45;trivial): &#10; &lt;none&gt;">
<text text-anchor="middle" x="603" y="-413.8" font-family="Times,serif" font-size="14.00" fill="white"> 0.0 row(s) | 0.0% estd.</text>
</a>
</g>
</g>
<!-- 139841620871504 -->
<g id="node11" class="node">
<title>139841620871504</title>
<polygon fill="none" stroke="white" points="554,-303 208,-303 208,-265 554,-265 554,-303"/>
<text text-anchor="middle" x="381" y="-287.8" font-family="Times,serif" font-size="14.00" fill="white">[StoredTable] Name: &#39;partsupp&#39; pruned: 0/611</text>
<text text-anchor="middle" x="381" y="-272.8" font-family="Times,serif" font-size="14.00" fill="white">chunk(s), 2/5 column(s)</text>
</g>
<!-- 139841620871504&#45;&gt;139841620960144 -->
<g id="edge13" class="edge">
<title>139841620871504&#45;&gt;139841620960144</title>
<path fill="none" stroke="white" stroke-width="3.03" d="M376.31,-303.33C374.73,-313.95 374.87,-326.96 382,-336 386.86,-342.16 397.77,-347.48 411.44,-351.99"/>
<polygon fill="white" stroke="white" stroke-width="3.03" points="411.73,-352.08 410.71,-355.43 421.3,-354.99 411.73,-352.08"/>
<g id="a_edge13&#45;label"><a xlink:title="Output Expressions: &#10; (1) ps_partkey&#10; (2) ps_suppkey&#10; (3) ps_availqty&#10;&#10;Unique Column Combinations: &#10; (1) {ps_partkey, ps_suppkey}&#10;&#10;Functional Dependencies (trivial): &#10; (1) {ps_partkey, ps_suppkey} =&gt; {ps_availqty}&#10;&#10;Functional Dependencies (non&#45;trivial): &#10; &lt;none&gt;">
<text text-anchor="middle" x="510" y="-324.8" font-family="Times,serif" font-size="14.00" fill="white"> 40,000,000.0 row(s) | 100.0% estd.</text>
</a>
</g>
</g>
<!-- 139841620850224 -->
<g id="node12" class="node">
<title>139841620850224</title>
<polygon fill="none" stroke="white" points="747.5,-302 572.5,-302 572.5,-266 747.5,-266 747.5,-302"/>
<text text-anchor="middle" x="660" y="-280.3" font-family="Times,serif" font-size="14.00" fill="white">[Projection] p_partkey</text>
</g>
<!-- 139841620850224&#45;&gt;139841620960144 -->
<g id="edge14" class="edge">
<title>139841620850224&#45;&gt;139841620960144</title>
<path fill="none" stroke="white" d="M656.47,-302.35C653.37,-313.41 647.77,-327.26 638,-336 631.63,-341.7 624.38,-346.49 616.68,-350.53"/>
<polygon fill="white" stroke="white" points="607.46,-354.93 618,-353.78 616.49,-350.62 607.46,-354.93"/>
<g id="a_edge14&#45;label"><a xlink:title="Output Expressions: &#10; (1) p_partkey&#10;&#10;Unique Column Combinations: &#10; (1) {p_partkey}&#10;&#10;Functional Dependencies (trivial): &#10; &lt;none&gt;&#10;&#10;Functional Dependencies (non&#45;trivial): &#10; &lt;none&gt;">
<text text-anchor="middle" x="741" y="-324.8" font-family="Times,serif" font-size="14.00" fill="white"> 0.0 row(s) | 100.0% estd.</text>
</a>
</g>
</g>
<!-- 139841620849904 -->
<g id="node13" class="node">
<title>139841620849904</title>
<polygon fill="none" stroke="white" points="702.5,-214 617.5,-214 617.5,-178 702.5,-178 702.5,-214"/>
<text text-anchor="middle" x="660" y="-192.3" font-family="Times,serif" font-size="14.00" fill="white">[Validate]</text>
</g>
<!-- 139841620849904&#45;&gt;139841620850224 -->
<g id="edge15" class="edge">
<title>139841620849904&#45;&gt;139841620850224</title>
<path fill="none" stroke="white" d="M660,-214.4C660,-226.25 660,-242.18 660,-255.71"/>
<polygon fill="white" stroke="white" points="656.5,-255.92 660,-265.92 663.5,-255.92 656.5,-255.92"/>
<g id="a_edge15&#45;label"><a xlink:title="Output Expressions: &#10; (1) p_partkey&#10; (2) p_name&#10;&#10;Unique Column Combinations: &#10; (1) {p_partkey}&#10;&#10;Functional Dependencies (trivial): &#10; (1) {p_partkey} =&gt; {p_name}&#10;&#10;Functional Dependencies (non&#45;trivial): &#10; &lt;none&gt;">
<text text-anchor="middle" x="752" y="-235.8" font-family="Times,serif" font-size="14.00" fill="white"> 0.0 row(s) | 100.0% estd.</text>
</a>
</g>
</g>
<!-- 139841620960336 -->
<g id="node14" class="node">
<title>139841620960336</title>
<polygon fill="none" stroke="white" points="852,-127 468,-127 468,-89 852,-89 852,-127"/>
<text text-anchor="middle" x="660" y="-111.8" font-family="Times,serif" font-size="14.00" fill="white">[Predicate] p_name BETWEEN UPPER EXCLUSIVE</text>
<text text-anchor="middle" x="660" y="-96.8" font-family="Times,serif" font-size="14.00" fill="white">&#39;chartreuse&#39; AND &#39;chartreusf&#39;</text>
</g>
<!-- 139841620960336&#45;&gt;139841620849904 -->
<g id="edge16" class="edge">
<title>139841620960336&#45;&gt;139841620849904</title>
<path fill="none" stroke="white" d="M660,-127.24C660,-139.07 660,-154.68 660,-167.95"/>
<polygon fill="white" stroke="white" points="656.5,-167.96 660,-177.96 663.5,-167.96 656.5,-167.96"/>
<g id="a_edge16&#45;label"><a xlink:title="Output Expressions: &#10; (1) p_partkey&#10; (2) p_name&#10;&#10;Unique Column Combinations: &#10; (1) {p_partkey}&#10;&#10;Functional Dependencies (trivial): &#10; (1) {p_partkey} =&gt; {p_name}&#10;&#10;Functional Dependencies (non&#45;trivial): &#10; &lt;none&gt;">
<text text-anchor="middle" x="743" y="-148.8" font-family="Times,serif" font-size="14.00" fill="white"> 0.0 row(s) | 0.0% estd.</text>
</a>
</g>
</g>
<!-- 139841620872784 -->
<g id="node15" class="node">
<title>139841620872784</title>
<polygon fill="none" stroke="white" points="850.5,-38 469.5,-38 469.5,0 850.5,0 850.5,-38"/>
<text text-anchor="middle" x="660" y="-22.8" font-family="Times,serif" font-size="14.00" fill="white">[StoredTable] Name: &#39;part&#39; pruned: 0/153 chunk(s),</text>
<text text-anchor="middle" x="660" y="-7.8" font-family="Times,serif" font-size="14.00" fill="white">7/9 column(s)</text>
</g>
<!-- 139841620872784&#45;&gt;139841620960336 -->
<g id="edge17" class="edge">
<title>139841620872784&#45;&gt;139841620960336</title>
<path fill="none" stroke="white" d="M660,-38.03C660,-49.81 660,-65.44 660,-78.84"/>
<polygon fill="white" stroke="white" points="656.5,-79 660,-89 663.5,-79 656.5,-79"/>
<g id="a_edge17&#45;label"><a xlink:title="Output Expressions: &#10; (1) p_partkey&#10; (2) p_name&#10;&#10;Unique Column Combinations: &#10; (1) {p_partkey}&#10;&#10;Functional Dependencies (trivial): &#10; (1) {p_partkey} =&gt; {p_name}&#10;&#10;Functional Dependencies (non&#45;trivial): &#10; &lt;none&gt;">
<text text-anchor="middle" x="788" y="-59.8" font-family="Times,serif" font-size="14.00" fill="white"> 10,000,000.0 row(s) | 100.0% estd.</text>
</a>
</g>
</g>
<!-- 139841620849584 -->
<g id="node16" class="node">
<title>139841620849584</title>
<polygon fill="none" stroke="white" points="867,-924 525,-924 525,-886 867,-886 867,-924"/>
<text text-anchor="middle" x="696" y="-908.8" font-family="Times,serif" font-size="14.00" fill="white">[Projection] 0.5 * SUM(l_quantity), l_suppkey,</text>
<text text-anchor="middle" x="696" y="-893.8" font-family="Times,serif" font-size="14.00" fill="white">l_partkey</text>
</g>
<!-- 139841620849584&#45;&gt;139841620961104 -->
<g id="edge18" class="edge">
<title>139841620849584&#45;&gt;139841620961104</title>
<path fill="none" stroke="white" d="M656.28,-924.22C627.64,-937.36 588.34,-955.39 555.14,-970.62"/>
<polygon fill="white" stroke="white" points="545.95,-974.83 556.5,-973.85 555.04,-970.66 545.95,-974.83"/>
<g id="a_edge18&#45;label"><a xlink:title="Output Expressions: &#10; (1) 0.5 * SUM(l_quantity) NULL&#10; (2) l_suppkey&#10; (3) l_partkey&#10;&#10;Unique Column Combinations: &#10; (1) {l_partkey, l_suppkey}&#10;&#10;Functional Dependencies (trivial): &#10; (1) {l_partkey, l_suppkey} =&gt; {0.5 * SUM(l_quantity)}&#10;&#10;Functional Dependencies (non&#45;trivial): &#10; &lt;none&gt;">
<text text-anchor="middle" x="710" y="-945.8" font-family="Times,serif" font-size="14.00" fill="white"> 0.0 row(s) | 100.0% estd.</text>
</a>
</g>
</g>
<!-- 139841620960912 -->
<g id="node17" class="node">
<title>139841620960912</title>
<polygon fill="none" stroke="white" points="876,-835 544,-835 544,-797 876,-797 876,-835"/>
<text text-anchor="middle" x="710" y="-819.8" font-family="Times,serif" font-size="14.00" fill="white">[Aggregate] GroupBy: [l_suppkey, l_partkey]</text>
<text text-anchor="middle" x="710" y="-804.8" font-family="Times,serif" font-size="14.00" fill="white">Aggregates: [SUM(l_quantity)]</text>
</g>
<!-- 139841620960912&#45;&gt;139841620849584 -->
<g id="edge19" class="edge">
<title>139841620960912&#45;&gt;139841620849584</title>
<path fill="none" stroke="white" d="M707.1,-835.03C705.2,-846.81 702.69,-862.44 700.53,-875.84"/>
<polygon fill="white" stroke="white" points="697.03,-875.57 698.9,-886 703.94,-876.68 697.03,-875.57"/>
<g id="a_edge19&#45;label"><a xlink:title="Output Expressions: &#10; (1) l_suppkey&#10; (2) l_partkey&#10; (3) SUM(l_quantity) NULL&#10;&#10;Unique Column Combinations: &#10; (1) {l_partkey, l_suppkey}&#10;&#10;Functional Dependencies (trivial): &#10; (1) {l_partkey, l_suppkey} =&gt; {SUM(l_quantity)}&#10;&#10;Functional Dependencies (non&#45;trivial): &#10; &lt;none&gt;">
<text text-anchor="middle" x="795" y="-856.8" font-family="Times,serif" font-size="14.00" fill="white"> 0.0 row(s) | 100.0% estd.</text>
</a>
</g>
</g>
<!-- 139841620849424 -->
<g id="node18" class="node">
<title>139841620849424</title>
<polygon fill="none" stroke="white" points="761.5,-746 676.5,-746 676.5,-710 761.5,-710 761.5,-746"/>
<text text-anchor="middle" x="719" y="-724.3" font-family="Times,serif" font-size="14.00" fill="white">[Validate]</text>
</g>
<!-- 139841620849424&#45;&gt;139841620960912 -->
<g id="edge20" class="edge">
<title>139841620849424&#45;&gt;139841620960912</title>
<path fill="none" stroke="white" d="M717.18,-746.4C715.97,-757.94 714.36,-773.35 712.97,-786.64"/>
<polygon fill="white" stroke="white" points="709.47,-786.42 711.91,-796.73 716.43,-787.15 709.47,-786.42"/>
<g id="a_edge20&#45;label"><a xlink:title="Output Expressions: &#10; (1) l_partkey&#10; (2) l_suppkey&#10; (3) l_quantity&#10; (4) l_shipdate&#10;&#10;Unique Column Combinations: &#10; &lt;none&gt;&#10;&#10;Functional Dependencies (trivial): &#10; &lt;none&gt;&#10;&#10;Functional Dependencies (non&#45;trivial): &#10; &lt;none&gt;">
<text text-anchor="middle" x="807" y="-767.8" font-family="Times,serif" font-size="14.00" fill="white"> 0.0 row(s) | 100.0% estd.</text>
</a>
</g>
</g>
<!-- 139841620955152&#45;&gt;139841620849424 -->
<g id="edge21" class="edge">
<title>139841620955152&#45;&gt;139841620849424</title>
<path fill="none" stroke="white" d="M719,-659.24C719,-671.07 719,-686.68 719,-699.95"/>
<polygon fill="white" stroke="white" points="715.5,-699.96 719,-709.96 722.5,-699.96 715.5,-699.96"/>
<g id="a_edge21&#45;label"><a xlink:title="Output Expressions: &#10; (1) l_partkey&#10; (2) l_suppkey&#10; (3) l_quantity&#10; (4) l_shipdate&#10;&#10;Unique Column Combinations: &#10; &lt;none&gt;&#10;&#10;Functional Dependencies (trivial): &#10; &lt;none&gt;&#10;&#10;Functional Dependencies (non&#45;trivial): &#10; &lt;none&gt;">
<text text-anchor="middle" x="802" y="-680.8" font-family="Times,serif" font-size="14.00" fill="white"> 0.0 row(s) | 0.3% estd.</text>
</a>
</g>
</g>
<!-- 139841620985168&#45;&gt;139841620955152 -->
<g id="edge22" class="edge">
<title>139841620985168&#45;&gt;139841620955152</title>
<path fill="none" stroke="white" d="M852.98,-570.03C826.92,-583.44 791.17,-601.85 763.15,-616.27"/>
<polygon fill="white" stroke="white" points="762.86,-616.42 761.26,-613.31 753.97,-621 762.86,-616.42"/>
<g id="a_edge22&#45;label"><a xlink:title="Output Expressions: &#10; (1) l_partkey&#10; (2) l_suppkey&#10; (3) l_quantity&#10; (4) l_shipdate&#10;&#10;Unique Column Combinations: &#10; &lt;none&gt;&#10;&#10;Functional Dependencies (trivial): &#10; &lt;none&gt;&#10;&#10;Functional Dependencies (non&#45;trivial): &#10; &lt;none&gt;">
<text text-anchor="middle" x="896" y="-591.8" font-family="Times,serif" font-size="14.00" fill="white"> 0.0 row(s) | 0.0% estd.</text>
</a>
</g>
</g>
<!-- 139841620960720 -->
<g id="node21" class="node">
<title>139841620960720</title>
<polygon fill="none" stroke="white" points="1089,-481 687,-481 687,-443 1089,-443 1089,-481"/>
<text text-anchor="middle" x="888" y="-465.8" font-family="Times,serif" font-size="14.00" fill="white">[Predicate] l_shipdate BETWEEN UPPER EXCLUSIVE</text>
<text text-anchor="middle" x="888" y="-450.8" font-family="Times,serif" font-size="14.00" fill="white">&#39;1995&#45;01&#45;01&#39; AND &#39;1996&#45;01&#45;01&#39;</text>
</g>
<!-- 139841620960720&#45;&gt;139841620985168 -->
<g id="edge23" class="edge">
<title>139841620960720&#45;&gt;139841620985168</title>
<path fill="none" stroke="white" stroke-width="3.42" d="M888,-481.03C888,-492.81 888,-508.44 888,-521.84"/>
<polygon fill="white" stroke="white" stroke-width="3.42" points="888,-522 884.5,-522 888,-532 888,-522"/>
<g id="a_edge23&#45;label"><a xlink:title="Output Expressions: &#10; (1) l_partkey&#10; (2) l_suppkey&#10; (3) l_quantity&#10; (4) l_shipdate&#10;&#10;Unique Column Combinations: &#10; &lt;none&gt;&#10;&#10;Functional Dependencies (trivial): &#10; &lt;none&gt;&#10;&#10;Functional Dependencies (non&#45;trivial): &#10; &lt;none&gt;">
<text text-anchor="middle" x="1011.5" y="-502.8" font-family="Times,serif" font-size="14.00" fill="white"> 46,769,496.0 row(s) | 15.6% estd.</text>
</a>
</g>
</g>
<!-- 139841620872464 -->
<g id="node22" class="node">
<title>139841620872464</title>
<polygon fill="none" stroke="white" points="1062.5,-392 713.5,-392 713.5,-354 1062.5,-354 1062.5,-392"/>
<text text-anchor="middle" x="888" y="-376.8" font-family="Times,serif" font-size="14.00" fill="white">[StoredTable] Name: &#39;lineitem&#39; pruned: 0/4578</text>
<text text-anchor="middle" x="888" y="-361.8" font-family="Times,serif" font-size="14.00" fill="white">chunk(s), 12/16 column(s)</text>
</g>
<!-- 139841620872464&#45;&gt;139841620960720 -->
<g id="edge24" class="edge">
<title>139841620872464&#45;&gt;139841620960720</title>
<path fill="none" stroke="white" stroke-width="8" d="M888,-392.03C888,-403.81 888,-419.44 888,-432.84"/>
<polygon fill="white" stroke="white" stroke-width="8" points="881,-433 888,-443 895,-433 881,-433"/>
<g id="a_edge24&#45;label"><a xlink:title="Output Expressions: &#10; (1) l_partkey&#10; (2) l_suppkey&#10; (3) l_quantity&#10; (4) l_shipdate&#10;&#10;Unique Column Combinations: &#10; &lt;none&gt;&#10;&#10;Functional Dependencies (trivial): &#10; &lt;none&gt;&#10;&#10;Functional Dependencies (non&#45;trivial): &#10; &lt;none&gt;">
<text text-anchor="middle" x="1020.5" y="-413.8" font-family="Times,serif" font-size="14.00" fill="white"> 300,005,824.0 row(s) | 100.0% estd.</text>
</a>
</g>
</g>
<!-- 139841620843984 -->
<g id="node23" class="node">
<title>139841620843984</title>
<polygon fill="none" stroke="white" points="402.5,-1401 317.5,-1401 317.5,-1365 402.5,-1365 402.5,-1401"/>
<text text-anchor="middle" x="360" y="-1379.3" font-family="Times,serif" font-size="14.00" fill="white">[Validate]</text>
</g>
<!-- 139841620843984&#45;&gt;139841620959184 -->
<g id="edge25" class="edge">
<title>139841620843984&#45;&gt;139841620959184</title>
<path fill="none" stroke="white" d="M358.22,-1401.02C358.04,-1411.6 359.61,-1424.87 367,-1434 370.86,-1438.77 375.43,-1442.89 380.45,-1446.45"/>
<polygon fill="white" stroke="white" points="389.27,-1451.93 382.62,-1443.68 380.77,-1446.65 389.27,-1451.93"/>
<g id="a_edge25&#45;label"><a xlink:title="Output Expressions: &#10; (1) n_nationkey&#10; (2) n_name&#10;&#10;Unique Column Combinations: &#10; (1) {n_nationkey}&#10;&#10;Functional Dependencies (trivial): &#10; (1) {n_nationkey} =&gt; {n_name}&#10;&#10;Functional Dependencies (non&#45;trivial): &#10; &lt;none&gt;">
<text text-anchor="middle" x="459" y="-1422.8" font-family="Times,serif" font-size="14.00" fill="white"> 0.0 row(s) | 100.0% estd.</text>
</a>
</g>
</g>
<!-- 139841620958800&#45;&gt;139841620843984 -->
<g id="edge26" class="edge">
<title>139841620958800&#45;&gt;139841620843984</title>
<path fill="none" stroke="white" d="M349.92,-1293.15C347.94,-1307.77 346.21,-1328.81 349,-1347 349.41,-1349.68 349.99,-1352.44 350.67,-1355.17"/>
<polygon fill="white" stroke="white" points="347.31,-1356.17 353.45,-1364.8 354.04,-1354.22 347.31,-1356.17"/>
<g id="a_edge26&#45;label"><a xlink:title="Output Expressions: &#10; (1) n_nationkey&#10; (2) n_name&#10;&#10;Unique Column Combinations: &#10; (1) {n_nationkey}&#10;&#10;Functional Dependencies (trivial): &#10; (1) {n_nationkey} =&gt; {n_name}&#10;&#10;Functional Dependencies (non&#45;trivial): &#10; &lt;none&gt;">
<text text-anchor="middle" x="432" y="-1325.3" font-family="Times,serif" font-size="14.00" fill="white"> 0.0 row(s) | 0.0% estd.</text>
</a>
</g>
</g>
<!-- 139841620958416 -->
<g id="node25" class="node">
<title>139841620958416</title>
<polygon fill="none" stroke="white" points="305.5,-1204 72.5,-1204 72.5,-1168 305.5,-1168 305.5,-1204"/>
<text text-anchor="middle" x="189" y="-1182.3" font-family="Times,serif" font-size="14.00" fill="white">[Predicate] n_name = &#39;EGYPT&#39;</text>
</g>
<!-- 139841620958416&#45;&gt;139841620958800 -->
<g id="edge27" class="edge">
<title>139841620958416&#45;&gt;139841620958800</title>
<path fill="none" stroke="white" d="M184.44,-1204.11C182.7,-1214.73 182.62,-1228 190,-1237 194.76,-1242.8 204.26,-1247.73 216.4,-1251.9"/>
<polygon fill="white" stroke="white" points="216.61,-1251.97 215.57,-1255.31 226.16,-1254.95 216.61,-1251.97"/>
<g id="a_edge27&#45;label"><a xlink:title="Output Expressions: &#10; (1) n_nationkey&#10; (2) n_name&#10;&#10;Unique Column Combinations: &#10; (1) {n_nationkey}&#10;&#10;Functional Dependencies (trivial): &#10; (1) {n_nationkey} =&gt; {n_name}&#10;&#10;Functional Dependencies (non&#45;trivial): &#10; &lt;none&gt;">
<text text-anchor="middle" x="273" y="-1225.8" font-family="Times,serif" font-size="14.00" fill="white"> 1.0 row(s) | 4.0% estd.</text>
</a>
</g>
</g>
<!-- 139841620869904 -->
<g id="node26" class="node">
<title>139841620869904</title>
<polygon fill="none" stroke="white" points="378,-1117 0,-1117 0,-1079 378,-1079 378,-1117"/>
<text text-anchor="middle" x="189" y="-1101.8" font-family="Times,serif" font-size="14.00" fill="white">[StoredTable] Name: &#39;nation&#39; pruned: 0/1 chunk(s),</text>
<text text-anchor="middle" x="189" y="-1086.8" font-family="Times,serif" font-size="14.00" fill="white">2/4 column(s)</text>
</g>
<!-- 139841620869904&#45;&gt;139841620958416 -->
<g id="edge28" class="edge">
<title>139841620869904&#45;&gt;139841620958416</title>
<path fill="none" stroke="white" d="M189,-1117.24C189,-1129.07 189,-1144.68 189,-1157.95"/>
<polygon fill="white" stroke="white" points="185.5,-1157.96 189,-1167.96 192.5,-1157.96 185.5,-1157.96"/>
<g id="a_edge28&#45;label"><a xlink:title="Output Expressions: &#10; (1) n_nationkey&#10; (2) n_name&#10;&#10;Unique Column Combinations: &#10; (1) {n_nationkey}&#10;&#10;Functional Dependencies (trivial): &#10; (1) {n_nationkey} =&gt; {n_name}&#10;&#10;Functional Dependencies (non&#45;trivial): &#10; &lt;none&gt;">
<text text-anchor="middle" x="285.5" y="-1138.8" font-family="Times,serif" font-size="14.00" fill="white"> 25.0 row(s) | 100.0% estd.</text>
</a>
</g>
</g>
</g>
</svg>
