<?xml version="1.0" encoding="UTF-8" standalone="no"?>
<!DOCTYPE svg PUBLIC "-//W3C//DTD SVG 1.1//EN"
 "http://www.w3.org/Graphics/SVG/1.1/DTD/svg11.dtd">
<!-- Generated by graphviz version 2.43.0 (0)
 -->
<!-- Title: G Pages: 1 -->
<svg width="968pt" height="1829pt"
 viewBox="0.00 0.00 967.50 1829.00" xmlns="http://www.w3.org/2000/svg" xmlns:xlink="http://www.w3.org/1999/xlink">
<g id="graph0" class="graph" transform="scale(1 1) rotate(0) translate(4 1825)">
<title>G</title>
<polygon fill="black" stroke="transparent" points="-4,4 -4,-1825 963.5,-1825 963.5,4 -4,4"/>
<text text-anchor="middle" x="319.5" y="-1805.8" font-family="Times,serif" font-size="14.00" fill="white">For tooltips with advanced information, hover your mouse over vertices or edge labels.</text>
<!-- 139679084263888 -->
<g id="node1" class="node">
<title>139679084263888</title>
<g id="a_node1"><a xlink:title="Output: 49069 rows in 1 chunk, 4 µs 919 ns.">
<polygon fill="none" stroke="white" points="278.5,-1766 128.5,-1766 128.5,-1697 278.5,-1697 278.5,-1766"/>
<text text-anchor="middle" x="203.5" y="-1750.8" font-family="Times,serif" font-size="14.00" fill="white">Alias</text>
<text text-anchor="middle" x="203.5" y="-1735.8" font-family="Times,serif" font-size="14.00" fill="white">[ps_partkey, value]</text>
<text text-anchor="middle" x="203.5" y="-1704.8" font-family="Times,serif" font-size="14.00" fill="white">4 µs 919 ns</text>
</a>
</g>
</g>
<!-- 139679084261648 -->
<g id="node2" class="node">
<title>139679084261648</title>
<g id="a_node2"><a xlink:title="Output: 49069 rows in 1 chunk, 7 ms 234 µs.&#10;Operator step runtimes:&#10; MaterializeSortColumns 1 ms 905 µs&#10; Sort 4 ms 267 µs&#10; TemporaryResultWriting 44 µs 162 ns&#10; WriteOutput 1 ms 4 µs.">
<polygon fill="none" stroke="white" points="255.5,-1646 151.5,-1646 151.5,-1592 255.5,-1592 255.5,-1646"/>
<text text-anchor="middle" x="203.5" y="-1630.8" font-family="Times,serif" font-size="14.00" fill="white">Sort</text>
<text text-anchor="middle" x="203.5" y="-1599.8" font-family="Times,serif" font-size="14.00" fill="white">7 ms 234 µs</text>
</a>
</g>
</g>
<!-- 139679084261648&#45;&gt;139679084263888 -->
<g id="edge1" class="edge">
<title>139679084261648&#45;&gt;139679084263888</title>
<path fill="none" stroke="white" d="M203.5,-1646.19C203.5,-1658.29 203.5,-1673 203.5,-1686.72"/>
<polygon fill="white" stroke="white" points="200,-1686.95 203.5,-1696.95 207,-1686.96 200,-1686.95"/>
<text text-anchor="middle" x="292.5" y="-1667.8" font-family="Times,serif" font-size="14.00" fill="white">49,069 row(s)/1 chunk(s)</text>
</g>
<!-- 139679084261328 -->
<g id="node3" class="node">
<title>139679084261328</title>
<g id="a_node3"><a xlink:title="Output: 49069 rows in 23 chunks, 572 µs 615 ns.&#10;Chunks: 0 skipped with no results, &#10;0 skipped with all matching, 0 scanned using binary search.">
<polygon fill="none" stroke="white" points="407,-1541 0,-1541 0,-1442 407,-1442 407,-1541"/>
<text text-anchor="middle" x="203.5" y="-1525.8" font-family="Times,serif" font-size="14.00" fill="white">TableScan</text>
<text text-anchor="middle" x="203.5" y="-1510.8" font-family="Times,serif" font-size="14.00" fill="white">Impl: ColumnVsValue</text>
<text text-anchor="middle" x="203.5" y="-1495.8" font-family="Times,serif" font-size="14.00" fill="white">SUM(ps_supplycost * ps_availqty) &gt; SUBQUERY (PQP,</text>
<text text-anchor="middle" x="203.5" y="-1480.8" font-family="Times,serif" font-size="14.00" fill="white">0x7f0992333890)</text>
<text text-anchor="middle" x="203.5" y="-1449.8" font-family="Times,serif" font-size="14.00" fill="white">572 µs 615 ns</text>
</a>
</g>
</g>
<!-- 139679084261328&#45;&gt;139679084261648 -->
<g id="edge2" class="edge">
<title>139679084261328&#45;&gt;139679084261648</title>
<path fill="none" stroke="white" d="M203.5,-1541.02C203.5,-1554.49 203.5,-1568.89 203.5,-1581.54"/>
<polygon fill="white" stroke="white" points="200,-1581.7 203.5,-1591.7 207,-1581.7 200,-1581.7"/>
<text text-anchor="middle" x="297" y="-1562.8" font-family="Times,serif" font-size="14.00" fill="white">49,069 row(s)/23 chunk(s)</text>
</g>
<!-- 139840899315728 -->
<g id="node4" class="node">
<title>139840899315728</title>
<g id="a_node4"><a xlink:title="Output: 1491518 rows in 23 chunks, 142 ms 467 µs.&#10;Operator step runtimes:&#10; GroupByKeyPartitioning 11 ms 764 µs&#10; Aggregating 127 ms 86 µs&#10; GroupByColumnsWriting 845 µs 176 ns&#10; AggregateColumnsWriting 2 ms 450 µs&#10; OutputWriting 49 µs 62 ns.">
<polygon fill="none" stroke="white" stroke-width="8" points="327,-1319 68,-1319 68,-1235 327,-1235 327,-1319"/>
<text text-anchor="middle" x="197.5" y="-1303.8" font-family="Times,serif" font-size="14.00" fill="white">AggregateHash</text>
<text text-anchor="middle" x="197.5" y="-1288.8" font-family="Times,serif" font-size="14.00" fill="white">GroupBy {ps_partkey}</text>
<text text-anchor="middle" x="197.5" y="-1273.8" font-family="Times,serif" font-size="14.00" fill="white">SUM(ps_supplycost * ps_availqty)</text>
<text text-anchor="middle" x="197.5" y="-1242.8" font-family="Times,serif" font-size="14.00" fill="white">142 ms 467 µs</text>
</a>
</g>
</g>
<!-- 139840899315728&#45;&gt;139679084261328 -->
<g id="edge3" class="edge">
<title>139840899315728&#45;&gt;139679084261328</title>
<path fill="none" stroke="white" d="M196.71,-1319.26C196.62,-1325.21 196.55,-1331.26 196.5,-1337 196.3,-1361 195.66,-1367.01 196.5,-1391 196.97,-1404.24 197.78,-1418.45 198.69,-1431.87"/>
<polygon fill="white" stroke="white" points="195.2,-1432.22 199.4,-1441.95 202.19,-1431.73 195.2,-1432.22"/>
<text text-anchor="middle" x="301.5" y="-1360.3" font-family="Times,serif" font-size="14.00" fill="white">1,491,518 row(s)/23 chunk(s)</text>
</g>
<!-- 139679084262288 -->
<g id="node5" class="node">
<title>139679084262288</title>
<g id="a_node5"><a xlink:title="Output: 1583600 rows in 611 chunks, 11 ms 289 µs.&#10;Operator step runtimes:&#10; ForwardUnmodifiedColumns 827 µs 2 ns&#10; EvaluateNewColumns 9 ms 461 µs&#10; BuildOutput 867 µs 969 ns.">
<polygon fill="none" stroke="white" stroke-width="1.75" points="274,-1082 161,-1082 161,-1028 274,-1028 274,-1082"/>
<text text-anchor="middle" x="217.5" y="-1066.8" font-family="Times,serif" font-size="14.00" fill="white">Projection</text>
<text text-anchor="middle" x="217.5" y="-1035.8" font-family="Times,serif" font-size="14.00" fill="white">11 ms 289 µs</text>
</a>
</g>
</g>
<!-- 139679084262288&#45;&gt;139840899315728 -->
<g id="edge4" class="edge">
<title>139679084262288&#45;&gt;139840899315728</title>
<path fill="none" stroke="white" d="M215.13,-1082.1C211.94,-1117.16 206.21,-1180.21 202.15,-1224.88"/>
<polygon fill="white" stroke="white" points="198.65,-1224.69 201.23,-1234.97 205.62,-1225.32 198.65,-1224.69"/>
<text text-anchor="middle" x="323" y="-1103.8" font-family="Times,serif" font-size="14.00" fill="white">1,583,600 row(s)/611 chunk(s)</text>
</g>
<!-- 139840899637008 -->
<g id="node6" class="node">
<title>139840899637008</title>
<g id="a_node6"><a xlink:title="Output: 1583600 rows in 611 chunks, 1 ms 82 µs.">
<polygon fill="none" stroke="white" points="386,-977 291,-977 291,-923 386,-923 386,-977"/>
<text text-anchor="middle" x="338.5" y="-961.8" font-family="Times,serif" font-size="14.00" fill="white">Validate</text>
<text text-anchor="middle" x="338.5" y="-930.8" font-family="Times,serif" font-size="14.00" fill="white">1 ms 82 µs</text>
</a>
</g>
</g>
<!-- 139840899637008&#45;&gt;139679084262288 -->
<g id="edge5" class="edge">
<title>139840899637008&#45;&gt;139679084262288</title>
<path fill="none" stroke="white" d="M290.71,-956.32C265.62,-961.77 236.78,-972.78 220.5,-995 215.73,-1001.52 213.61,-1009.6 212.96,-1017.68"/>
<polygon fill="white" stroke="white" points="209.46,-1017.75 212.84,-1027.79 216.46,-1017.84 209.46,-1017.75"/>
<text text-anchor="middle" x="330" y="-998.8" font-family="Times,serif" font-size="14.00" fill="white">1,583,600 row(s)/611 chunk(s)</text>
</g>
<!-- 139679084263248 -->
<g id="node17" class="node">
<title>139679084263248</title>
<g id="a_node17"><a xlink:title="Output: 1583600 rows in 611 chunks, 12 ms 284 µs.&#10;Operator step runtimes:&#10; ForwardUnmodifiedColumns 258 µs 886 ns&#10; EvaluateNewColumns 11 ms 598 µs&#10; BuildOutput 191 µs 941 ns.">
<polygon fill="none" stroke="white" stroke-width="1.96" points="519,-1082 406,-1082 406,-1028 519,-1028 519,-1082"/>
<text text-anchor="middle" x="462.5" y="-1066.8" font-family="Times,serif" font-size="14.00" fill="white">Projection</text>
<text text-anchor="middle" x="462.5" y="-1035.8" font-family="Times,serif" font-size="14.00" fill="white">12 ms 284 µs</text>
</a>
</g>
</g>
<!-- 139840899637008&#45;&gt;139679084263248 -->
<g id="edge6" class="edge">
<title>139840899637008&#45;&gt;139679084263248</title>
<path fill="none" stroke="white" d="M386.13,-963.09C404.78,-969.86 425.12,-980.04 439.5,-995 445.69,-1001.44 450.27,-1009.73 453.63,-1018.05"/>
<polygon fill="white" stroke="white" points="450.42,-1019.46 457.05,-1027.72 457.02,-1017.13 450.42,-1019.46"/>
<text text-anchor="middle" x="559" y="-998.8" font-family="Times,serif" font-size="14.00" fill="white">1,583,600 row(s)/611 chunk(s)</text>
</g>
<!-- 139679084261968 -->
<g id="node7" class="node">
<title>139679084261968</title>
<g id="a_node7"><a xlink:title="Output: 1583600 rows in 611 chunks, 19 ms 451 µs.&#10;Operator step runtimes:&#10; BuildSideMaterializing 260 µs 489 ns&#10; ProbeSideMaterializing 12 ms 106 µs&#10; Clustering 0 ns&#10; Building 283 µs 52 ns&#10; Probing 2 ms 1 µs&#10; OutputWriting 2 ms 642 µs.&#10;Radix bits: 0.&#10;Build side is right.">
<polygon fill="none" stroke="white" stroke-width="3.09" points="435.5,-872 241.5,-872 241.5,-803 435.5,-803 435.5,-872"/>
<text text-anchor="middle" x="338.5" y="-856.8" font-family="Times,serif" font-size="14.00" fill="white">JoinHash (Semi)</text>
<text text-anchor="middle" x="338.5" y="-841.8" font-family="Times,serif" font-size="14.00" fill="white">ps_suppkey = s_suppkey</text>
<text text-anchor="middle" x="338.5" y="-810.8" font-family="Times,serif" font-size="14.00" fill="white">19 ms 451 µs</text>
</a>
</g>
</g>
<!-- 139679084261968&#45;&gt;139840899637008 -->
<g id="edge7" class="edge">
<title>139679084261968&#45;&gt;139840899637008</title>
<path fill="none" stroke="white" d="M338.5,-872.25C338.5,-885.07 338.5,-899.73 338.5,-912.77"/>
<polygon fill="white" stroke="white" points="335,-912.81 338.5,-922.81 342,-912.81 335,-912.81"/>
<text text-anchor="middle" x="448" y="-893.8" font-family="Times,serif" font-size="14.00" fill="white">1,583,600 row(s)/611 chunk(s)</text>
</g>
<!-- 139840899752464 -->
<g id="node8" class="node">
<title>139840899752464</title>
<g id="a_node8"><a xlink:title="Output: 40000000 rows in 611 chunks, 1 ms 301 µs.">
<polygon fill="none" stroke="white" points="274.5,-752 152.5,-752 152.5,-638 274.5,-638 274.5,-752"/>
<text text-anchor="middle" x="213.5" y="-736.8" font-family="Times,serif" font-size="14.00" fill="white">GetTable</text>
<text text-anchor="middle" x="213.5" y="-721.8" font-family="Times,serif" font-size="14.00" fill="white">(partsupp)</text>
<text text-anchor="middle" x="213.5" y="-706.8" font-family="Times,serif" font-size="14.00" fill="white">pruned:</text>
<text text-anchor="middle" x="213.5" y="-691.8" font-family="Times,serif" font-size="14.00" fill="white">0/611 chunk(s)</text>
<text text-anchor="middle" x="213.5" y="-676.8" font-family="Times,serif" font-size="14.00" fill="white">1/5 column(s)</text>
<text text-anchor="middle" x="213.5" y="-645.8" font-family="Times,serif" font-size="14.00" fill="white">1 ms 301 µs</text>
</a>
</g>
</g>
<!-- 139840899752464&#45;&gt;139679084261968 -->
<g id="edge8" class="edge">
<title>139840899752464&#45;&gt;139679084261968</title>
<path fill="none" stroke="white" stroke-width="8" d="M204.56,-752.16C205.24,-763.78 208.01,-775.4 214.5,-785 219.47,-792.36 225.71,-798.67 232.73,-804.07"/>
<polygon fill="white" stroke="white" stroke-width="8" points="233.08,-804.32 229.08,-810.07 241.29,-810.02 233.08,-804.32"/>
<text text-anchor="middle" x="328.5" y="-773.8" font-family="Times,serif" font-size="14.00" fill="white">40,000,000 row(s)/611 chunk(s)</text>
</g>
<!-- 139840899636496 -->
<g id="node9" class="node">
<title>139840899636496</title>
<g id="a_node9"><a xlink:title="Output: 19795 rows in 8 chunks, 19 µs 517 ns.">
<polygon fill="none" stroke="white" points="518.5,-722 410.5,-722 410.5,-668 518.5,-668 518.5,-722"/>
<text text-anchor="middle" x="464.5" y="-706.8" font-family="Times,serif" font-size="14.00" fill="white">Validate</text>
<text text-anchor="middle" x="464.5" y="-675.8" font-family="Times,serif" font-size="14.00" fill="white">19 µs 517 ns</text>
</a>
</g>
</g>
<!-- 139840899636496&#45;&gt;139679084261968 -->
<g id="edge9" class="edge">
<title>139840899636496&#45;&gt;139679084261968</title>
<path fill="none" stroke="white" d="M463.76,-722.34C461.95,-741.56 456.75,-767.25 442.5,-785 439.19,-789.12 435.48,-792.93 431.46,-796.46"/>
<polygon fill="white" stroke="white" points="423.42,-802.9 433.41,-799.38 431.22,-796.65 423.42,-802.9"/>
<text text-anchor="middle" x="541.5" y="-773.8" font-family="Times,serif" font-size="14.00" fill="white">19,795 row(s)/8 chunk(s)</text>
</g>
<!-- 139679084262928 -->
<g id="node10" class="node">
<title>139679084262928</title>
<g id="a_node10"><a xlink:title="Output: 19795 rows in 8 chunks, 543 µs 691 ns.&#10;Operator step runtimes:&#10; BuildSideMaterializing 41 µs 528 ns&#10; ProbeSideMaterializing 308 µs 279 ns&#10; Clustering 0 ns&#10; Building 4 µs 7 ns&#10; Probing 72 µs 546 ns&#10; OutputWriting 56 µs 846 ns.&#10;Radix bits: 0.&#10;Build side is right.">
<polygon fill="none" stroke="white" points="568,-587 361,-587 361,-518 568,-518 568,-587"/>
<text text-anchor="middle" x="464.5" y="-571.8" font-family="Times,serif" font-size="14.00" fill="white">JoinHash (Semi)</text>
<text text-anchor="middle" x="464.5" y="-556.8" font-family="Times,serif" font-size="14.00" fill="white">s_nationkey = n_nationkey</text>
<text text-anchor="middle" x="464.5" y="-525.8" font-family="Times,serif" font-size="14.00" fill="white">543 µs 691 ns</text>
</a>
</g>
</g>
<!-- 139679084262928&#45;&gt;139840899636496 -->
<g id="edge10" class="edge">
<title>139679084262928&#45;&gt;139840899636496</title>
<path fill="none" stroke="white" d="M464.5,-587.15C464.5,-608.36 464.5,-635.75 464.5,-657.48"/>
<polygon fill="white" stroke="white" points="461,-657.65 464.5,-667.65 468,-657.65 461,-657.65"/>
<text text-anchor="middle" x="553.5" y="-608.8" font-family="Times,serif" font-size="14.00" fill="white">19,795 row(s)/8 chunk(s)</text>
</g>
<!-- 139840899752912 -->
<g id="node11" class="node">
<title>139840899752912</title>
<g id="a_node11"><a xlink:title="Output: 500000 rows in 8 chunks, 57 µs 378 ns.">
<polygon fill="none" stroke="white" points="416,-467 303,-467 303,-353 416,-353 416,-467"/>
<text text-anchor="middle" x="359.5" y="-451.8" font-family="Times,serif" font-size="14.00" fill="white">GetTable</text>
<text text-anchor="middle" x="359.5" y="-436.8" font-family="Times,serif" font-size="14.00" fill="white">(supplier)</text>
<text text-anchor="middle" x="359.5" y="-421.8" font-family="Times,serif" font-size="14.00" fill="white">pruned:</text>
<text text-anchor="middle" x="359.5" y="-406.8" font-family="Times,serif" font-size="14.00" fill="white">0/8 chunk(s)</text>
<text text-anchor="middle" x="359.5" y="-391.8" font-family="Times,serif" font-size="14.00" fill="white">5/7 column(s)</text>
<text text-anchor="middle" x="359.5" y="-360.8" font-family="Times,serif" font-size="14.00" fill="white">57 µs 378 ns</text>
</a>
</g>
</g>
<!-- 139840899752912&#45;&gt;139679084262928 -->
<g id="edge11" class="edge">
<title>139840899752912&#45;&gt;139679084262928</title>
<path fill="none" stroke="white" d="M351.07,-467.31C351.76,-478.8 354.42,-490.32 360.5,-500 362.98,-503.94 365.86,-507.6 369.05,-510.98"/>
<polygon fill="white" stroke="white" points="369.19,-511.11 366.79,-513.66 376.48,-517.95 369.19,-511.11"/>
<text text-anchor="middle" x="454" y="-488.8" font-family="Times,serif" font-size="14.00" fill="white">500,000 row(s)/8 chunk(s)</text>
</g>
<!-- 139840899394832 -->
<g id="node12" class="node">
<title>139840899394832</title>
<g id="a_node12"><a xlink:title="Output: 1 row in 1 chunk, 6 µs 603 ns.">
<polygon fill="none" stroke="white" points="619,-437 520,-437 520,-383 619,-383 619,-437"/>
<text text-anchor="middle" x="569.5" y="-421.8" font-family="Times,serif" font-size="14.00" fill="white">Validate</text>
<text text-anchor="middle" x="569.5" y="-390.8" font-family="Times,serif" font-size="14.00" fill="white">6 µs 603 ns</text>
</a>
</g>
</g>
<!-- 139840899394832&#45;&gt;139679084262928 -->
<g id="edge12" class="edge">
<title>139840899394832&#45;&gt;139679084262928</title>
<path fill="none" stroke="white" d="M568.21,-437.36C566.11,-456.34 560.8,-481.72 547.5,-500 544.66,-503.91 541.42,-507.58 537.91,-511.03"/>
<polygon fill="white" stroke="white" points="530.36,-517.79 540.14,-513.73 537.81,-511.12 530.36,-517.79"/>
<text text-anchor="middle" x="625.5" y="-488.8" font-family="Times,serif" font-size="14.00" fill="white">1 row(s)/1 chunk(s)</text>
</g>
<!-- 139679084262608 -->
<g id="node13" class="node">
<title>139679084262608</title>
<g id="a_node13"><a xlink:title="Output: 1 row in 1 chunk, 26 µs 920 ns.&#10;Chunks: 0 skipped with no results, &#10;0 skipped with all matching, 0 scanned using binary search.">
<polygon fill="none" stroke="white" points="674,-302 465,-302 465,-218 674,-218 674,-302"/>
<text text-anchor="middle" x="569.5" y="-286.8" font-family="Times,serif" font-size="14.00" fill="white">TableScan</text>
<text text-anchor="middle" x="569.5" y="-271.8" font-family="Times,serif" font-size="14.00" fill="white">Impl: ColumnVsValue</text>
<text text-anchor="middle" x="569.5" y="-256.8" font-family="Times,serif" font-size="14.00" fill="white">n_name = &#39;MOZAMBIQUE&#39;</text>
<text text-anchor="middle" x="569.5" y="-225.8" font-family="Times,serif" font-size="14.00" fill="white">26 µs 920 ns</text>
</a>
</g>
</g>
<!-- 139679084262608&#45;&gt;139840899394832 -->
<g id="edge13" class="edge">
<title>139679084262608&#45;&gt;139840899394832</title>
<path fill="none" stroke="white" d="M569.5,-302.23C569.5,-324.32 569.5,-351.31 569.5,-372.62"/>
<polygon fill="white" stroke="white" points="566,-372.88 569.5,-382.88 573,-372.88 566,-372.88"/>
<text text-anchor="middle" x="638.5" y="-323.8" font-family="Times,serif" font-size="14.00" fill="white">1 row(s)/1 chunk(s)</text>
</g>
<!-- 139840899753360 -->
<g id="node14" class="node">
<title>139840899753360</title>
<g id="a_node14"><a xlink:title="Output: 25 rows in 1 chunk, 16 µs 311 ns.">
<polygon fill="none" stroke="white" points="626,-140.5 513,-140.5 513,-26.5 626,-26.5 626,-140.5"/>
<text text-anchor="middle" x="569.5" y="-125.3" font-family="Times,serif" font-size="14.00" fill="white">GetTable</text>
<text text-anchor="middle" x="569.5" y="-110.3" font-family="Times,serif" font-size="14.00" fill="white">(nation)</text>
<text text-anchor="middle" x="569.5" y="-95.3" font-family="Times,serif" font-size="14.00" fill="white">pruned:</text>
<text text-anchor="middle" x="569.5" y="-80.3" font-family="Times,serif" font-size="14.00" fill="white">0/1 chunk(s)</text>
<text text-anchor="middle" x="569.5" y="-65.3" font-family="Times,serif" font-size="14.00" fill="white">2/4 column(s)</text>
<text text-anchor="middle" x="569.5" y="-34.3" font-family="Times,serif" font-size="14.00" fill="white">16 µs 311 ns</text>
</a>
</g>
</g>
<!-- 139840899753360&#45;&gt;139679084262608 -->
<g id="edge14" class="edge">
<title>139840899753360&#45;&gt;139679084262608</title>
<path fill="none" stroke="white" d="M569.5,-140.67C569.5,-162.25 569.5,-186.74 569.5,-207.83"/>
<polygon fill="white" stroke="white" points="566,-207.87 569.5,-217.87 573,-207.87 566,-207.87"/>
<text text-anchor="middle" x="643" y="-188.8" font-family="Times,serif" font-size="14.00" fill="white">25 row(s)/1 chunk(s)</text>
</g>
<!-- 139679084263568 -->
<g id="node15" class="node">
<title>139679084263568</title>
<g id="a_node15"><a xlink:title="Output: 1 row in 1 chunk, 47 µs 149 ns.&#10;Operator step runtimes:&#10; ForwardUnmodifiedColumns 1 µs 843 ns&#10; EvaluateNewColumns 17 µs 974 ns&#10; BuildOutput 23 µs 845 ns.">
<polygon fill="none" stroke="white" points="523.5,-1391 415.5,-1391 415.5,-1337 523.5,-1337 523.5,-1391"/>
<text text-anchor="middle" x="469.5" y="-1375.8" font-family="Times,serif" font-size="14.00" fill="white">Projection</text>
<text text-anchor="middle" x="469.5" y="-1344.8" font-family="Times,serif" font-size="14.00" fill="white">47 µs 149 ns</text>
</a>
</g>
</g>
<!-- 139679084263568&#45;&gt;139679084261328 -->
<g id="edge15" class="edge">
<title>139679084263568&#45;&gt;139679084261328</title>
<path fill="none" stroke="white" stroke-dasharray="5,2" d="M415.35,-1390.55C386.63,-1404.1 350.22,-1421.28 315.73,-1437.55"/>
<polygon fill="white" stroke="white" points="314.08,-1434.46 306.53,-1441.89 317.07,-1440.79 314.08,-1434.46"/>
<text text-anchor="middle" x="458" y="-1412.8" font-family="Times,serif" font-size="14.00" fill="white">uncorrelated subquery</text>
</g>
<!-- 139840899316752 -->
<g id="node16" class="node">
<title>139840899316752</title>
<g id="a_node16"><a xlink:title="Output: 1 row in 1 chunk, 2 ms 145 µs.&#10;Operator step runtimes:&#10; GroupByKeyPartitioning 61 ns&#10; Aggregating 2 ms 94 µs&#10; GroupByColumnsWriting 982 ns&#10; AggregateColumnsWriting 28 µs 313 ns&#10; OutputWriting 12 µs 53 ns.">
<polygon fill="none" stroke="white" points="596,-1217 337,-1217 337,-1133 596,-1133 596,-1217"/>
<text text-anchor="middle" x="466.5" y="-1201.8" font-family="Times,serif" font-size="14.00" fill="white">AggregateHash</text>
<text text-anchor="middle" x="466.5" y="-1186.8" font-family="Times,serif" font-size="14.00" fill="white">GroupBy {}</text>
<text text-anchor="middle" x="466.5" y="-1171.8" font-family="Times,serif" font-size="14.00" fill="white">SUM(ps_supplycost * ps_availqty)</text>
<text text-anchor="middle" x="466.5" y="-1140.8" font-family="Times,serif" font-size="14.00" fill="white">2 ms 145 µs</text>
</a>
</g>
</g>
<!-- 139840899316752&#45;&gt;139679084263568 -->
<g id="edge16" class="edge">
<title>139840899316752&#45;&gt;139679084263568</title>
<path fill="none" stroke="white" d="M467.16,-1217.04C467.68,-1249.78 468.41,-1295.22 468.92,-1326.66"/>
<polygon fill="white" stroke="white" points="465.42,-1326.81 469.08,-1336.75 472.42,-1326.7 465.42,-1326.81"/>
<text text-anchor="middle" x="538.5" y="-1273.3" font-family="Times,serif" font-size="14.00" fill="white">1 row(s)/1 chunk(s)</text>
</g>
<!-- 139679084263248&#45;&gt;139840899316752 -->
<g id="edge17" class="edge">
<title>139679084263248&#45;&gt;139840899316752</title>
<path fill="none" stroke="white" d="M463.39,-1082.19C463.79,-1094.1 464.28,-1108.63 464.76,-1122.58"/>
<polygon fill="white" stroke="white" points="461.26,-1122.71 465.1,-1132.59 468.26,-1122.48 461.26,-1122.71"/>
<text text-anchor="middle" x="574" y="-1103.8" font-family="Times,serif" font-size="14.00" fill="white">1,583,600 row(s)/611 chunk(s)</text>
</g>
<!-- 0 -->
<g id="node18" class="node">
<title>0</title>
<polygon fill="none" stroke="white" points="643.5,-0.5 643.5,-166.5 959.5,-166.5 959.5,-0.5 643.5,-0.5"/>
<text text-anchor="middle" x="801.5" y="-151.3" font-family="Times,serif" font-size="14.00" fill="white">Total by operator</text>
<polyline fill="none" stroke="white" points="643.5,-143.5 959.5,-143.5 "/>
<text text-anchor="end" x="767.5" y="-128.3" font-family="Times,serif" font-size="14.00" fill="white">AggregateHash </text>
<text text-anchor="end" x="767.5" y="-113.3" font-family="Times,serif" font-size="14.00" fill="white"> Projection </text>
<text text-anchor="end" x="767.5" y="-98.3" font-family="Times,serif" font-size="14.00" fill="white"> JoinHash </text>
<text text-anchor="end" x="767.5" y="-83.3" font-family="Times,serif" font-size="14.00" fill="white"> Sort </text>
<text text-anchor="end" x="767.5" y="-68.3" font-family="Times,serif" font-size="14.00" fill="white"> GetTable </text>
<text text-anchor="end" x="767.5" y="-53.3" font-family="Times,serif" font-size="14.00" fill="white"> Validate </text>
<text text-anchor="end" x="767.5" y="-38.3" font-family="Times,serif" font-size="14.00" fill="white"> TableScan </text>
<text text-anchor="end" x="767.5" y="-23.3" font-family="Times,serif" font-size="14.00" fill="white"> Alias </text>
<text text-anchor="end" x="767.5" y="-8.3" font-family="Times,serif" font-size="14.00" fill="white">total</text>
<polyline fill="none" stroke="white" points="775.5,-0.5 775.5,-143.5 "/>
<text text-anchor="start" x="783.5" y="-128.3" font-family="Times,serif" font-size="14.00" fill="white">144 ms 612 µs </text>
<text text-anchor="start" x="783.5" y="-113.3" font-family="Times,serif" font-size="14.00" fill="white"> 23 ms 620 µs </text>
<text text-anchor="start" x="783.5" y="-98.3" font-family="Times,serif" font-size="14.00" fill="white"> 19 ms 995 µs </text>
<text text-anchor="start" x="783.5" y="-83.3" font-family="Times,serif" font-size="14.00" fill="white"> 7 ms 234 µs </text>
<text text-anchor="start" x="783.5" y="-68.3" font-family="Times,serif" font-size="14.00" fill="white"> 1 ms 375 µs </text>
<text text-anchor="start" x="783.5" y="-53.3" font-family="Times,serif" font-size="14.00" fill="white"> 1 ms 108 µs </text>
<text text-anchor="start" x="783.5" y="-38.3" font-family="Times,serif" font-size="14.00" fill="white"> 599 µs 535 ns </text>
<text text-anchor="start" x="783.5" y="-23.3" font-family="Times,serif" font-size="14.00" fill="white"> 4 µs 919 ns </text>
<text text-anchor="start" x="783.5" y="-8.3" font-family="Times,serif" font-size="14.00" fill="white"> 198 ms 548 µs </text>
<polyline fill="none" stroke="white" points="906.5,-0.5 906.5,-143.5 "/>
<text text-anchor="start" x="914.5" y="-128.3" font-family="Times,serif" font-size="14.00" fill="white">73 %</text>
<text text-anchor="start" x="914.5" y="-113.3" font-family="Times,serif" font-size="14.00" fill="white">12 %</text>
<text text-anchor="start" x="914.5" y="-98.3" font-family="Times,serif" font-size="14.00" fill="white">10 %</text>
<text text-anchor="start" x="914.5" y="-83.3" font-family="Times,serif" font-size="14.00" fill="white">4 %</text>
<text text-anchor="start" x="914.5" y="-68.3" font-family="Times,serif" font-size="14.00" fill="white">1 %</text>
<text text-anchor="start" x="914.5" y="-53.3" font-family="Times,serif" font-size="14.00" fill="white">1 %</text>
<text text-anchor="start" x="914.5" y="-38.3" font-family="Times,serif" font-size="14.00" fill="white">0 %</text>
<text text-anchor="start" x="914.5" y="-23.3" font-family="Times,serif" font-size="14.00" fill="white">0 %</text>
<text text-anchor="start" x="914.5" y="-8.3" font-family="Times,serif" font-size="14.00" fill="white"> </text>
</g>
</g>
</svg>
