<?xml version="1.0" encoding="UTF-8" standalone="no"?>
<!DOCTYPE svg PUBLIC "-//W3C//DTD SVG 1.1//EN"
 "http://www.w3.org/Graphics/SVG/1.1/DTD/svg11.dtd">
<!-- Generated by graphviz version 2.43.0 (0)
 -->
<!-- Title: G Pages: 1 -->
<svg width="1338pt" height="2450pt"
 viewBox="0.00 0.00 1337.50 2450.00" xmlns="http://www.w3.org/2000/svg" xmlns:xlink="http://www.w3.org/1999/xlink">
<g id="graph0" class="graph" transform="scale(1 1) rotate(0) translate(4 2446)">
<title>G</title>
<polygon fill="black" stroke="transparent" points="-4,4 -4,-2446 1333.5,-2446 1333.5,4 -4,4"/>
<text text-anchor="middle" x="319.5" y="-2426.8" font-family="Times,serif" font-size="14.00" fill="white">For tooltips with advanced information, hover your mouse over vertices or edge labels.</text>
<!-- 134093003496336 -->
<g id="node1" class="node">
<title>134093003496336</title>
<g id="a_node1"><a xlink:title="Output: 5 rows in 1 chunk filtered: 0, 9 µs 223 ns.">
<polygon fill="none" stroke="white" points="770,-2387 621,-2387 621,-2318 770,-2318 770,-2387"/>
<text text-anchor="middle" x="695.5" y="-2371.8" font-family="Times,serif" font-size="14.00" fill="white">Alias</text>
<text text-anchor="middle" x="695.5" y="-2356.8" font-family="Times,serif" font-size="14.00" fill="white">[n_name, revenue]</text>
<text text-anchor="middle" x="695.5" y="-2325.8" font-family="Times,serif" font-size="14.00" fill="white">9 µs 223 ns</text>
</a>
</g>
</g>
<!-- 134093003496016 -->
<g id="node2" class="node">
<title>134093003496016</title>
<g id="a_node2"><a xlink:title="Output: 5 rows in 1 chunk filtered: 0, 57 µs 190 ns.&#10;Operator step runtimes:&#10; MaterializeSortColumns 9 µs 664 ns&#10; Sort 4 µs 155 ns&#10; TemporaryResultWriting 402 ns&#10; WriteOutput 35 µs 869 ns.">
<polygon fill="none" stroke="white" points="749.5,-2267 641.5,-2267 641.5,-2213 749.5,-2213 749.5,-2267"/>
<text text-anchor="middle" x="695.5" y="-2251.8" font-family="Times,serif" font-size="14.00" fill="white">Sort</text>
<text text-anchor="middle" x="695.5" y="-2220.8" font-family="Times,serif" font-size="14.00" fill="white">57 µs 190 ns</text>
</a>
</g>
</g>
<!-- 134093003496016&#45;&gt;134093003496336 -->
<g id="edge1" class="edge">
<title>134093003496016&#45;&gt;134093003496336</title>
<path fill="none" stroke="white" d="M695.5,-2267.19C695.5,-2279.29 695.5,-2294 695.5,-2307.72"/>
<polygon fill="white" stroke="white" points="692,-2307.95 695.5,-2317.95 699,-2307.96 692,-2307.95"/>
<text text-anchor="middle" x="764.5" y="-2288.8" font-family="Times,serif" font-size="14.00" fill="white">5 row(s)/1 chunk(s)</text>
</g>
<!-- 134229302117392 -->
<g id="node3" class="node">
<title>134229302117392</title>
<g id="a_node3"><a xlink:title="Output: 5 rows in 1 chunk filtered: 0, 42 ms 21 µs.&#10;Operator step runtimes:&#10; GroupByKeyPartitioning 33 ms 59 µs&#10; Aggregating 8 ms 877 µs&#10; GroupByColumnsWriting 22 µs 156 ns&#10; AggregateColumnsWriting 17 µs 717 ns&#10; OutputWriting 10 µs 899 ns.">
<polygon fill="none" stroke="white" points="844,-2162 547,-2162 547,-2078 844,-2078 844,-2162"/>
<text text-anchor="middle" x="695.5" y="-2146.8" font-family="Times,serif" font-size="14.00" fill="white">AggregateHash</text>
<text text-anchor="middle" x="695.5" y="-2131.8" font-family="Times,serif" font-size="14.00" fill="white">GroupBy {n_name}</text>
<text text-anchor="middle" x="695.5" y="-2116.8" font-family="Times,serif" font-size="14.00" fill="white">SUM(l_extendedprice * (1 &#45; l_discount))</text>
<text text-anchor="middle" x="695.5" y="-2085.8" font-family="Times,serif" font-size="14.00" fill="white">42 ms 21 µs</text>
</a>
</g>
</g>
<!-- 134229302117392&#45;&gt;134093003496016 -->
<g id="edge2" class="edge">
<title>134229302117392&#45;&gt;134093003496016</title>
<path fill="none" stroke="white" d="M695.5,-2162.27C695.5,-2175.36 695.5,-2189.72 695.5,-2202.45"/>
<polygon fill="white" stroke="white" points="692,-2202.69 695.5,-2212.69 699,-2202.69 692,-2202.69"/>
<text text-anchor="middle" x="764.5" y="-2183.8" font-family="Times,serif" font-size="14.00" fill="white">5 row(s)/1 chunk(s)</text>
</g>
<!-- 134093003495696 -->
<g id="node4" class="node">
<title>134093003495696</title>
<g id="a_node4"><a xlink:title="Output: 731008 rows in 64 chunks filtered: 0, 72 ms 785 µs.&#10;Operator step runtimes:&#10; ForwardUnmodifiedColumns 51 µs 134 ns&#10; EvaluateNewColumns 72 ms 531 µs&#10; BuildOutput 172 µs 633 ns.">
<polygon fill="none" stroke="white" points="752,-2027 639,-2027 639,-1973 752,-1973 752,-2027"/>
<text text-anchor="middle" x="695.5" y="-2011.8" font-family="Times,serif" font-size="14.00" fill="white">Projection</text>
<text text-anchor="middle" x="695.5" y="-1980.8" font-family="Times,serif" font-size="14.00" fill="white">72 ms 785 µs</text>
</a>
</g>
</g>
<!-- 134093003495696&#45;&gt;134229302117392 -->
<g id="edge3" class="edge">
<title>134093003495696&#45;&gt;134229302117392</title>
<path fill="none" stroke="white" d="M695.5,-2027.19C695.5,-2039.1 695.5,-2053.63 695.5,-2067.58"/>
<polygon fill="white" stroke="white" points="692,-2067.59 695.5,-2077.59 699,-2067.59 692,-2067.59"/>
<text text-anchor="middle" x="793.5" y="-2048.8" font-family="Times,serif" font-size="14.00" fill="white">731,008 row(s)/64 chunk(s)</text>
</g>
<!-- 134093003495376 -->
<g id="node5" class="node">
<title>134093003495376</title>
<g id="a_node5"><a xlink:title="Output: 731008 rows in 64 chunks filtered: 0, 53 ms 187 µs.&#10;Chunks: 0 skipped with no results, &#10;0 skipped with all matching, 0 scanned using binary search.">
<polygon fill="none" stroke="white" points="798.5,-1922 592.5,-1922 592.5,-1838 798.5,-1838 798.5,-1922"/>
<text text-anchor="middle" x="695.5" y="-1906.8" font-family="Times,serif" font-size="14.00" fill="white">TableScan</text>
<text text-anchor="middle" x="695.5" y="-1891.8" font-family="Times,serif" font-size="14.00" fill="white">Impl: ColumnVsColumn</text>
<text text-anchor="middle" x="695.5" y="-1876.8" font-family="Times,serif" font-size="14.00" fill="white">c_nationkey = s_nationkey</text>
<text text-anchor="middle" x="695.5" y="-1845.8" font-family="Times,serif" font-size="14.00" fill="white">53 ms 187 µs</text>
</a>
</g>
</g>
<!-- 134093003495376&#45;&gt;134093003495696 -->
<g id="edge4" class="edge">
<title>134093003495376&#45;&gt;134093003495696</title>
<path fill="none" stroke="white" d="M695.5,-1922.27C695.5,-1935.36 695.5,-1949.72 695.5,-1962.45"/>
<polygon fill="white" stroke="white" points="692,-1962.69 695.5,-1972.69 699,-1962.69 692,-1962.69"/>
<text text-anchor="middle" x="793.5" y="-1943.8" font-family="Times,serif" font-size="14.00" fill="white">731,008 row(s)/64 chunk(s)</text>
</g>
<!-- 134093003495056 -->
<g id="node6" class="node">
<title>134093003495056</title>
<g id="a_node6"><a xlink:title="Output: 18273138 rows in 64 chunks filtered: 0, 953 ms 983 µs.&#10;Operator step runtimes:&#10; LeftSideMaterialize 344 ms 201 µs&#10; RightSideMaterialize 225 ms 60 µs&#10; LeftSideTransform 0 ns&#10; RightSideTransform 0 ns&#10; LeftSidePartition 19 ms 155 µs&#10; RightSidePartition 23 ms 475 µs&#10; LeftSideSortBuckets 18 ms 907 µs&#10; RightSideSortBuckets 23 ms 111 µs&#10; GatherRowIds 7 µs 597 ns&#10; FindJoinPartner 91 ms 571 µs&#10; OutputWriting 206 ms 737 µs.&#10;Radix bits: 8.">
<polygon fill="none" stroke="white" stroke-width="6.18" points="801,-1787 590,-1787 590,-1718 801,-1718 801,-1787"/>
<text text-anchor="middle" x="695.5" y="-1771.8" font-family="Times,serif" font-size="14.00" fill="white">JoinSimdSortMerge (Inner)</text>
<text text-anchor="middle" x="695.5" y="-1756.8" font-family="Times,serif" font-size="14.00" fill="white">l_orderkey = o_orderkey</text>
<text text-anchor="middle" x="695.5" y="-1725.8" font-family="Times,serif" font-size="14.00" fill="white">953 ms 983 µs</text>
</a>
</g>
</g>
<!-- 134093003495056&#45;&gt;134093003495376 -->
<g id="edge5" class="edge">
<title>134093003495056&#45;&gt;134093003495376</title>
<path fill="none" stroke="white" d="M695.5,-1787.13C695.5,-1799.51 695.5,-1813.84 695.5,-1827.44"/>
<polygon fill="white" stroke="white" points="692,-1827.65 695.5,-1837.65 699,-1827.65 692,-1827.65"/>
<text text-anchor="middle" x="805" y="-1808.8" font-family="Times,serif" font-size="14.00" fill="white">18,273,138 row(s)/64 chunk(s)</text>
</g>
<!-- 134093003494416 -->
<g id="node7" class="node">
<title>134093003494416</title>
<g id="a_node7"><a xlink:title="Output: 18273138 rows in 256 chunks filtered: 0, 283 ms 3 µs.&#10;Operator step runtimes:&#10; LeftSideMaterialize 160 ms 845 µs&#10; RightSideMaterialize 1 ms 15 µs&#10; LeftSideTransform 0 ns&#10; RightSideTransform 0 ns&#10; LeftSidePartition 19 ms 187 µs&#10; RightSidePartition 1 ms 794 µs&#10; LeftSideSortBuckets 13 ms 606 µs&#10; RightSideSortBuckets 691 µs 6 ns&#10; GatherRowIds 1 µs 64 ns&#10; FindJoinPartner 38 ms 188 µs&#10; OutputWriting 46 ms 655 µs.&#10;Radix bits: 8.">
<polygon fill="none" stroke="white" stroke-width="3.19" points="646,-1667 435,-1667 435,-1598 646,-1598 646,-1667"/>
<text text-anchor="middle" x="540.5" y="-1651.8" font-family="Times,serif" font-size="14.00" fill="white">JoinSimdSortMerge (Inner)</text>
<text text-anchor="middle" x="540.5" y="-1636.8" font-family="Times,serif" font-size="14.00" fill="white">l_suppkey = s_suppkey</text>
<text text-anchor="middle" x="540.5" y="-1605.8" font-family="Times,serif" font-size="14.00" fill="white">283 ms 3 µs</text>
</a>
</g>
</g>
<!-- 134093003494416&#45;&gt;134093003495056 -->
<g id="edge6" class="edge">
<title>134093003494416&#45;&gt;134093003495056</title>
<path fill="none" stroke="white" d="M562.26,-1667.15C570.74,-1678.55 581.15,-1690.72 592.5,-1700 597.86,-1704.38 603.64,-1708.51 609.65,-1712.39"/>
<polygon fill="white" stroke="white" points="610.07,-1712.65 608.24,-1715.63 618.59,-1717.89 610.07,-1712.65"/>
<text text-anchor="middle" x="706.5" y="-1688.8" font-family="Times,serif" font-size="14.00" fill="white">18,273,138 row(s)/256 chunk(s)</text>
</g>
<!-- 134229303560464 -->
<g id="node8" class="node">
<title>134229303560464</title>
<g id="a_node8"><a xlink:title="Output: 18273138 rows in 64 chunks filtered: 0, 24 ms 74 µs.">
<polygon fill="none" stroke="white" points="358.5,-1547 254.5,-1547 254.5,-1493 358.5,-1493 358.5,-1547"/>
<text text-anchor="middle" x="306.5" y="-1531.8" font-family="Times,serif" font-size="14.00" fill="white">Validate</text>
<text text-anchor="middle" x="306.5" y="-1500.8" font-family="Times,serif" font-size="14.00" fill="white">24 ms 74 µs</text>
</a>
</g>
</g>
<!-- 134229303560464&#45;&gt;134093003494416 -->
<g id="edge7" class="edge">
<title>134229303560464&#45;&gt;134093003494416</title>
<path fill="none" stroke="white" d="M300.23,-1547.27C299.12,-1558.49 300.18,-1571.04 307.5,-1580 323.07,-1599.06 374.39,-1611.52 424.91,-1619.4"/>
<polygon fill="white" stroke="white" points="425.11,-1619.43 424.59,-1622.89 435,-1620.92 425.11,-1619.43"/>
<text text-anchor="middle" x="417" y="-1568.8" font-family="Times,serif" font-size="14.00" fill="white">18,273,138 row(s)/64 chunk(s)</text>
</g>
<!-- 134093003494096 -->
<g id="node9" class="node">
<title>134093003494096</title>
<g id="a_node9"><a xlink:title="Output: 18273138 rows in 64 chunks filtered: 0, 1 s 992 ms.&#10;Operator step runtimes:&#10; LeftSideMaterialize 1 s 458 ms&#10; RightSideMaterialize 29 ms 34 µs&#10; LeftSideTransform 0 ns&#10; RightSideTransform 0 ns&#10; LeftSidePartition 143 ms 182 µs&#10; RightSidePartition 22 ms 833 µs&#10; LeftSideSortBuckets 111 ms 993 µs&#10; RightSideSortBuckets 19 ms 295 µs&#10; GatherRowIds 3 µs 596 ns&#10; FindJoinPartner 158 ms 890 µs&#10; OutputWriting 46 ms 394 µs.&#10;Radix bits: 8.">
<polygon fill="none" stroke="white" stroke-width="8" points="449,-1442 164,-1442 164,-1373 449,-1373 449,-1442"/>
<text text-anchor="middle" x="306.5" y="-1426.8" font-family="Times,serif" font-size="14.00" fill="white">JoinSimdSortMerge (Semi Reduction)</text>
<text text-anchor="middle" x="306.5" y="-1411.8" font-family="Times,serif" font-size="14.00" fill="white">l_orderkey = o_orderkey</text>
<text text-anchor="middle" x="306.5" y="-1380.8" font-family="Times,serif" font-size="14.00" fill="white">1 s 992 ms</text>
</a>
</g>
</g>
<!-- 134093003494096&#45;&gt;134229303560464 -->
<g id="edge8" class="edge">
<title>134093003494096&#45;&gt;134229303560464</title>
<path fill="none" stroke="white" d="M306.5,-1442.25C306.5,-1455.07 306.5,-1469.73 306.5,-1482.77"/>
<polygon fill="white" stroke="white" points="303,-1482.81 306.5,-1492.81 310,-1482.81 303,-1482.81"/>
<text text-anchor="middle" x="416" y="-1463.8" font-family="Times,serif" font-size="14.00" fill="white">18,273,138 row(s)/64 chunk(s)</text>
</g>
<!-- 134093003493456 -->
<g id="node10" class="node">
<title>134093003493456</title>
<g id="a_node10"><a xlink:title="Output: 120078639 rows in 256 chunks filtered: 479959263, 796 ms 268 µs.&#10;Operator step runtimes:&#10; LeftSideMaterialize 246 ms 132 µs&#10; RightSideMaterialize 26 ms 287 µs&#10; LeftSideTransform 0 ns&#10; RightSideTransform 0 ns&#10; LeftSidePartition 144 ms 896 µs&#10; RightSidePartition 1 ms 801 µs&#10; LeftSideSortBuckets 104 ms 491 µs&#10; RightSideSortBuckets 70 ms 40 µs&#10; GatherRowIds 7 µs 621 ns&#10; FindJoinPartner 157 ms 847 µs&#10; OutputWriting 30 ms 251 µs.&#10;Radix bits: 8.">
<polygon fill="none" stroke="white" stroke-width="5.74" points="431,-1322 146,-1322 146,-1253 431,-1253 431,-1322"/>
<text text-anchor="middle" x="288.5" y="-1306.8" font-family="Times,serif" font-size="14.00" fill="white">JoinSimdSortMerge (Semi Reduction)</text>
<text text-anchor="middle" x="288.5" y="-1291.8" font-family="Times,serif" font-size="14.00" fill="white">l_suppkey = s_suppkey</text>
<text text-anchor="middle" x="288.5" y="-1260.8" font-family="Times,serif" font-size="14.00" fill="white">796 ms 268 µs</text>
</a>
</g>
</g>
<!-- 134093003493456&#45;&gt;134093003494096 -->
<g id="edge9" class="edge">
<title>134093003493456&#45;&gt;134093003494096</title>
<path fill="none" stroke="white" stroke-width="4.03" d="M287.03,-1322.17C287.1,-1332.74 287.72,-1344.41 289.5,-1355 289.95,-1357.65 290.51,-1360.35 291.14,-1363.06"/>
<polygon fill="white" stroke="white" stroke-width="4.03" points="291.17,-1363.14 287.76,-1364.05 293.76,-1372.8 291.17,-1363.14"/>
<text text-anchor="middle" x="408" y="-1343.8" font-family="Times,serif" font-size="14.00" fill="white">120,078,639 row(s)/256 chunk(s)</text>
</g>
<!-- 134088416626000 -->
<g id="node11" class="node">
<title>134088416626000</title>
<g id="a_node11"><a xlink:title="Output: 600037902 rows in 9156 chunks filtered: 0, 33 ms 531 µs.">
<polygon fill="none" stroke="white" points="131,-1202 0,-1202 0,-1088 131,-1088 131,-1202"/>
<text text-anchor="middle" x="65.5" y="-1186.8" font-family="Times,serif" font-size="14.00" fill="white">GetTable</text>
<text text-anchor="middle" x="65.5" y="-1171.8" font-family="Times,serif" font-size="14.00" fill="white">(lineitem)</text>
<text text-anchor="middle" x="65.5" y="-1156.8" font-family="Times,serif" font-size="14.00" fill="white">pruned:</text>
<text text-anchor="middle" x="65.5" y="-1141.8" font-family="Times,serif" font-size="14.00" fill="white">0/9156 chunk(s)</text>
<text text-anchor="middle" x="65.5" y="-1126.8" font-family="Times,serif" font-size="14.00" fill="white">12/16 column(s)</text>
<text text-anchor="middle" x="65.5" y="-1095.8" font-family="Times,serif" font-size="14.00" fill="white">33 ms 531 µs</text>
</a>
</g>
</g>
<!-- 134088416626000&#45;&gt;134093003493456 -->
<g id="edge10" class="edge">
<title>134088416626000&#45;&gt;134093003493456</title>
<path fill="none" stroke="white" stroke-width="8" d="M56.06,-1202.14C56.83,-1214.03 60,-1225.76 67.5,-1235 77.77,-1247.64 104.47,-1257.49 135.9,-1265.03"/>
<polygon fill="white" stroke="white" stroke-width="8" points="136.05,-1265.07 134.49,-1271.89 145.8,-1267.3 136.05,-1265.07"/>
<text text-anchor="middle" x="192.5" y="-1223.8" font-family="Times,serif" font-size="14.00" fill="white">600,037,902 row(s)/9,156 chunk(s)</text>
</g>
<!-- 134093003493136 -->
<g id="node12" class="node">
<title>134093003493136</title>
<g id="a_node12"><a xlink:title="Output: 200123 rows in 5 chunks filtered: 0, 20 ms 94 µs.&#10;Operator step runtimes:&#10; LeftSideMaterialize 1 ms 111 µs&#10; RightSideMaterialize 12 µs 121 ns&#10; LeftSideTransform 0 ns&#10; RightSideTransform 0 ns&#10; LeftSidePartition 7 ms 106 µs&#10; RightSidePartition 70 µs 824 ns&#10; LeftSideSortBuckets 5 ms 671 µs&#10; RightSideSortBuckets 765 µs 391 ns&#10; GatherRowIds 2 µs 529 ns&#10; FindJoinPartner 2 ms 362 µs&#10; OutputWriting 2 ms 819 µs.&#10;Radix bits: 8.">
<polygon fill="none" stroke="white" points="478,-1179.5 267,-1179.5 267,-1110.5 478,-1110.5 478,-1179.5"/>
<text text-anchor="middle" x="372.5" y="-1164.3" font-family="Times,serif" font-size="14.00" fill="white">JoinSimdSortMerge (Inner)</text>
<text text-anchor="middle" x="372.5" y="-1149.3" font-family="Times,serif" font-size="14.00" fill="white">s_nationkey = n_nationkey</text>
<text text-anchor="middle" x="372.5" y="-1118.3" font-family="Times,serif" font-size="14.00" fill="white">20 ms 94 µs</text>
</a>
</g>
</g>
<!-- 134093003493136&#45;&gt;134093003494416 -->
<g id="edge12" class="edge">
<title>134093003493136&#45;&gt;134093003494416</title>
<path fill="none" stroke="white" d="M467.07,-1179.58C486.51,-1190.05 505.33,-1203.36 519.5,-1220 539.59,-1243.6 540.5,-1255.51 540.5,-1286.5 540.5,-1286.5 540.5,-1286.5 540.5,-1521 540.5,-1542.89 540.5,-1567.22 540.5,-1587.47"/>
<polygon fill="white" stroke="white" points="540.5,-1597.65 544,-1587.65 540.5,-1587.65 540.5,-1597.65"/>
<text text-anchor="middle" x="634" y="-1403.8" font-family="Times,serif" font-size="14.00" fill="white">200,123 row(s)/5 chunk(s)</text>
</g>
<!-- 134093003493136&#45;&gt;134093003493456 -->
<g id="edge11" class="edge">
<title>134093003493136&#45;&gt;134093003493456</title>
<path fill="none" stroke="white" d="M352.38,-1179.65C340.88,-1198.89 326.34,-1223.2 314.04,-1243.78"/>
<polygon fill="white" stroke="white" points="308.75,-1252.63 316.88,-1245.85 313.88,-1244.05 308.75,-1252.63"/>
<text text-anchor="middle" x="422" y="-1223.8" font-family="Times,serif" font-size="14.00" fill="white">200,123 row(s)/5 chunk(s)</text>
</g>
<!-- 134229303559440 -->
<g id="node13" class="node">
<title>134229303559440</title>
<g id="a_node13"><a xlink:title="Output: 200123 rows in 5 chunks filtered: 0, 311 µs 843 ns.">
<polygon fill="none" stroke="white" points="516,-1007 399,-1007 399,-953 516,-953 516,-1007"/>
<text text-anchor="middle" x="457.5" y="-991.8" font-family="Times,serif" font-size="14.00" fill="white">Validate</text>
<text text-anchor="middle" x="457.5" y="-960.8" font-family="Times,serif" font-size="14.00" fill="white">311 µs 843 ns</text>
</a>
</g>
</g>
<!-- 134229303559440&#45;&gt;134093003493136 -->
<g id="edge13" class="edge">
<title>134229303559440&#45;&gt;134093003493136</title>
<path fill="none" stroke="white" d="M443.84,-1007.19C430.62,-1032.55 410.33,-1071.45 394.77,-1101.29"/>
<polygon fill="white" stroke="white" points="394.73,-1101.37 391.63,-1099.76 390.1,-1110.24 394.73,-1101.37"/>
<text text-anchor="middle" x="512" y="-1058.8" font-family="Times,serif" font-size="14.00" fill="white">200,123 row(s)/5 chunk(s)</text>
</g>
<!-- 134093003492816 -->
<g id="node14" class="node">
<title>134093003492816</title>
<g id="a_node14"><a xlink:title="Output: 200123 rows in 5 chunks filtered: 799877, 4 ms 578 µs.&#10;Operator step runtimes:&#10; LeftSideMaterialize 468 µs 570 ns&#10; RightSideMaterialize 9 µs 736 ns&#10; LeftSideTransform 0 ns&#10; RightSideTransform 0 ns&#10; LeftSidePartition 1 ms 418 µs&#10; RightSidePartition 21 µs 216 ns&#10; LeftSideSortBuckets 712 µs 279 ns&#10; RightSideSortBuckets 691 µs 782 ns&#10; GatherRowIds 559 ns&#10; FindJoinPartner 1 ms 99 µs&#10; OutputWriting 34 µs 189 ns.&#10;Radix bits: 8.">
<polygon fill="none" stroke="white" points="637,-872 352,-872 352,-803 637,-803 637,-872"/>
<text text-anchor="middle" x="494.5" y="-856.8" font-family="Times,serif" font-size="14.00" fill="white">JoinSimdSortMerge (Semi Reduction)</text>
<text text-anchor="middle" x="494.5" y="-841.8" font-family="Times,serif" font-size="14.00" fill="white">s_nationkey = n_nationkey</text>
<text text-anchor="middle" x="494.5" y="-810.8" font-family="Times,serif" font-size="14.00" fill="white">4 ms 578 µs</text>
</a>
</g>
</g>
<!-- 134093003492816&#45;&gt;134229303559440 -->
<g id="edge14" class="edge">
<title>134093003492816&#45;&gt;134229303559440</title>
<path fill="none" stroke="white" d="M485.64,-872.15C480.03,-893.46 472.78,-920.99 467.04,-942.78"/>
<polygon fill="white" stroke="white" points="463.6,-942.08 464.44,-952.65 470.37,-943.87 463.6,-942.08"/>
<text text-anchor="middle" x="574" y="-893.8" font-family="Times,serif" font-size="14.00" fill="white">200,123 row(s)/5 chunk(s)</text>
</g>
<!-- 134088416626448 -->
<g id="node15" class="node">
<title>134088416626448</title>
<g id="a_node15"><a xlink:title="Output: 1000000 rows in 16 chunks filtered: 0, 41 µs 971 ns.">
<polygon fill="none" stroke="white" points="574,-752 461,-752 461,-638 574,-638 574,-752"/>
<text text-anchor="middle" x="517.5" y="-736.8" font-family="Times,serif" font-size="14.00" fill="white">GetTable</text>
<text text-anchor="middle" x="517.5" y="-721.8" font-family="Times,serif" font-size="14.00" fill="white">(supplier)</text>
<text text-anchor="middle" x="517.5" y="-706.8" font-family="Times,serif" font-size="14.00" fill="white">pruned:</text>
<text text-anchor="middle" x="517.5" y="-691.8" font-family="Times,serif" font-size="14.00" fill="white">0/16 chunk(s)</text>
<text text-anchor="middle" x="517.5" y="-676.8" font-family="Times,serif" font-size="14.00" fill="white">5/7 column(s)</text>
<text text-anchor="middle" x="517.5" y="-645.8" font-family="Times,serif" font-size="14.00" fill="white">41 µs 971 ns</text>
</a>
</g>
</g>
<!-- 134088416626448&#45;&gt;134093003492816 -->
<g id="edge15" class="edge">
<title>134088416626448&#45;&gt;134093003492816</title>
<path fill="none" stroke="white" d="M508.28,-752.34C506.07,-765.83 503.74,-780.04 501.64,-792.86"/>
<polygon fill="white" stroke="white" points="501.63,-792.93 498.18,-792.37 500.02,-802.8 501.63,-792.93"/>
<text text-anchor="middle" x="610.5" y="-773.8" font-family="Times,serif" font-size="14.00" fill="white">1,000,000 row(s)/16 chunk(s)</text>
</g>
<!-- 134229303559184 -->
<g id="node16" class="node">
<title>134229303559184</title>
<g id="a_node16"><a xlink:title="Output: 5 rows in 1 chunk filtered: 0, 18 µs 656 ns.">
<polygon fill="none" stroke="white" points="394.5,-722 286.5,-722 286.5,-668 394.5,-668 394.5,-722"/>
<text text-anchor="middle" x="340.5" y="-706.8" font-family="Times,serif" font-size="14.00" fill="white">Validate</text>
<text text-anchor="middle" x="340.5" y="-675.8" font-family="Times,serif" font-size="14.00" fill="white">18 µs 656 ns</text>
</a>
</g>
</g>
<!-- 134229303559184&#45;&gt;134093003493136 -->
<g id="edge17" class="edge">
<title>134229303559184&#45;&gt;134093003493136</title>
<path fill="none" stroke="white" d="M339.62,-722.04C338.4,-759.27 336.27,-829.87 335.5,-890 335.41,-896.67 334.99,-898.35 335.5,-905 340.78,-973.64 354.48,-1052.4 363.64,-1100.16"/>
<polygon fill="white" stroke="white" points="365.58,-1110.15 367.11,-1099.67 363.68,-1100.34 365.58,-1110.15"/>
<text text-anchor="middle" x="404.5" y="-893.8" font-family="Times,serif" font-size="14.00" fill="white">5 row(s)/1 chunk(s)</text>
</g>
<!-- 134229303559184&#45;&gt;134093003492816 -->
<g id="edge16" class="edge">
<title>134229303559184&#45;&gt;134093003492816</title>
<path fill="none" stroke="white" d="M340.42,-722.3C341.72,-741.76 346.49,-767.76 361.5,-785 365.21,-789.26 369.31,-793.17 373.71,-796.76"/>
<polygon fill="white" stroke="white" points="381.93,-802.87 376,-794.09 373.91,-796.9 381.93,-802.87"/>
<text text-anchor="middle" x="430.5" y="-773.8" font-family="Times,serif" font-size="14.00" fill="white">5 row(s)/1 chunk(s)</text>
</g>
<!-- 134093003492496 -->
<g id="node17" class="node">
<title>134093003492496</title>
<g id="a_node17"><a xlink:title="Output: 5 rows in 1 chunk filtered: 20, 1 ms 698 µs.&#10;Operator step runtimes:&#10; LeftSideMaterialize 13 µs 834 ns&#10; RightSideMaterialize 36 µs 994 ns&#10; LeftSideTransform 0 ns&#10; RightSideTransform 0 ns&#10; LeftSidePartition 31 µs 343 ns&#10; RightSidePartition 19 µs 496 ns&#10; LeftSideSortBuckets 747 µs 211 ns&#10; RightSideSortBuckets 657 µs 820 ns&#10; GatherRowIds 1 µs 399 ns&#10; FindJoinPartner 10 µs 408 ns&#10; OutputWriting 23 µs 246 ns.&#10;Radix bits: 8.">
<polygon fill="none" stroke="white" points="445,-587 236,-587 236,-518 445,-518 445,-587"/>
<text text-anchor="middle" x="340.5" y="-571.8" font-family="Times,serif" font-size="14.00" fill="white">JoinSimdSortMerge (Semi)</text>
<text text-anchor="middle" x="340.5" y="-556.8" font-family="Times,serif" font-size="14.00" fill="white">n_regionkey = r_regionkey</text>
<text text-anchor="middle" x="340.5" y="-525.8" font-family="Times,serif" font-size="14.00" fill="white">1 ms 698 µs</text>
</a>
</g>
</g>
<!-- 134093003492496&#45;&gt;134229303559184 -->
<g id="edge18" class="edge">
<title>134093003492496&#45;&gt;134229303559184</title>
<path fill="none" stroke="white" d="M340.5,-587.15C340.5,-608.36 340.5,-635.75 340.5,-657.48"/>
<polygon fill="white" stroke="white" points="337,-657.65 340.5,-667.65 344,-657.65 337,-657.65"/>
<text text-anchor="middle" x="409.5" y="-608.8" font-family="Times,serif" font-size="14.00" fill="white">5 row(s)/1 chunk(s)</text>
</g>
<!-- 134088416626896 -->
<g id="node18" class="node">
<title>134088416626896</title>
<g id="a_node18"><a xlink:title="Output: 25 rows in 1 chunk filtered: 0, 29 µs 244 ns.">
<polygon fill="none" stroke="white" points="312,-467 199,-467 199,-353 312,-353 312,-467"/>
<text text-anchor="middle" x="255.5" y="-451.8" font-family="Times,serif" font-size="14.00" fill="white">GetTable</text>
<text text-anchor="middle" x="255.5" y="-436.8" font-family="Times,serif" font-size="14.00" fill="white">(nation)</text>
<text text-anchor="middle" x="255.5" y="-421.8" font-family="Times,serif" font-size="14.00" fill="white">pruned:</text>
<text text-anchor="middle" x="255.5" y="-406.8" font-family="Times,serif" font-size="14.00" fill="white">0/1 chunk(s)</text>
<text text-anchor="middle" x="255.5" y="-391.8" font-family="Times,serif" font-size="14.00" fill="white">1/4 column(s)</text>
<text text-anchor="middle" x="255.5" y="-360.8" font-family="Times,serif" font-size="14.00" fill="white">29 µs 244 ns</text>
</a>
</g>
</g>
<!-- 134088416626896&#45;&gt;134093003492496 -->
<g id="edge19" class="edge">
<title>134088416626896&#45;&gt;134093003492496</title>
<path fill="none" stroke="white" d="M247.77,-467.38C248.46,-478.74 250.93,-490.19 256.5,-500 258.64,-503.77 261.17,-507.29 264.01,-510.59"/>
<polygon fill="white" stroke="white" points="264.13,-510.71 261.62,-513.15 271.11,-517.86 264.13,-510.71"/>
<text text-anchor="middle" x="330" y="-488.8" font-family="Times,serif" font-size="14.00" fill="white">25 row(s)/1 chunk(s)</text>
</g>
<!-- 134229303558928 -->
<g id="node19" class="node">
<title>134229303558928</title>
<g id="a_node19"><a xlink:title="Output: 1 row in 1 chunk filtered: 0, 11 µs 629 ns.">
<polygon fill="none" stroke="white" points="479.5,-437 371.5,-437 371.5,-383 479.5,-383 479.5,-437"/>
<text text-anchor="middle" x="425.5" y="-421.8" font-family="Times,serif" font-size="14.00" fill="white">Validate</text>
<text text-anchor="middle" x="425.5" y="-390.8" font-family="Times,serif" font-size="14.00" fill="white">11 µs 629 ns</text>
</a>
</g>
</g>
<!-- 134229303558928&#45;&gt;134093003492496 -->
<g id="edge20" class="edge">
<title>134229303558928&#45;&gt;134093003492496</title>
<path fill="none" stroke="white" d="M423.43,-437.26C420.95,-455.96 415.5,-481.03 403.5,-500 401.21,-503.63 398.57,-507.12 395.7,-510.45"/>
<polygon fill="white" stroke="white" points="388.66,-517.95 398.06,-513.06 395.51,-510.66 388.66,-517.95"/>
<text text-anchor="middle" x="479.5" y="-488.8" font-family="Times,serif" font-size="14.00" fill="white">1 row(s)/1 chunk(s)</text>
</g>
<!-- 134093003492176 -->
<g id="node20" class="node">
<title>134093003492176</title>
<g id="a_node20"><a xlink:title="Output: 1 row in 1 chunk filtered: 0, 45 µs 159 ns.&#10;Chunks: 0 skipped with no results, &#10;0 skipped with all matching, 0 scanned using binary search.">
<polygon fill="none" stroke="white" points="510,-302 341,-302 341,-218 510,-218 510,-302"/>
<text text-anchor="middle" x="425.5" y="-286.8" font-family="Times,serif" font-size="14.00" fill="white">TableScan</text>
<text text-anchor="middle" x="425.5" y="-271.8" font-family="Times,serif" font-size="14.00" fill="white">Impl: ColumnVsValue</text>
<text text-anchor="middle" x="425.5" y="-256.8" font-family="Times,serif" font-size="14.00" fill="white">r_name = &#39;AFRICA&#39;</text>
<text text-anchor="middle" x="425.5" y="-225.8" font-family="Times,serif" font-size="14.00" fill="white">45 µs 159 ns</text>
</a>
</g>
</g>
<!-- 134093003492176&#45;&gt;134229303558928 -->
<g id="edge21" class="edge">
<title>134093003492176&#45;&gt;134229303558928</title>
<path fill="none" stroke="white" d="M425.5,-302.23C425.5,-324.32 425.5,-351.31 425.5,-372.62"/>
<polygon fill="white" stroke="white" points="422,-372.88 425.5,-382.88 429,-372.88 422,-372.88"/>
<text text-anchor="middle" x="494.5" y="-323.8" font-family="Times,serif" font-size="14.00" fill="white">1 row(s)/1 chunk(s)</text>
</g>
<!-- 134088416627344 -->
<g id="node21" class="node">
<title>134088416627344</title>
<g id="a_node21"><a xlink:title="Output: 5 rows in 1 chunk filtered: 0, 19 µs 599 ns.">
<polygon fill="none" stroke="white" points="482,-140.5 369,-140.5 369,-26.5 482,-26.5 482,-140.5"/>
<text text-anchor="middle" x="425.5" y="-125.3" font-family="Times,serif" font-size="14.00" fill="white">GetTable</text>
<text text-anchor="middle" x="425.5" y="-110.3" font-family="Times,serif" font-size="14.00" fill="white">(region)</text>
<text text-anchor="middle" x="425.5" y="-95.3" font-family="Times,serif" font-size="14.00" fill="white">pruned:</text>
<text text-anchor="middle" x="425.5" y="-80.3" font-family="Times,serif" font-size="14.00" fill="white">0/1 chunk(s)</text>
<text text-anchor="middle" x="425.5" y="-65.3" font-family="Times,serif" font-size="14.00" fill="white">1/3 column(s)</text>
<text text-anchor="middle" x="425.5" y="-34.3" font-family="Times,serif" font-size="14.00" fill="white">19 µs 599 ns</text>
</a>
</g>
</g>
<!-- 134088416627344&#45;&gt;134093003492176 -->
<g id="edge22" class="edge">
<title>134088416627344&#45;&gt;134093003492176</title>
<path fill="none" stroke="white" d="M425.5,-140.67C425.5,-162.25 425.5,-186.74 425.5,-207.83"/>
<polygon fill="white" stroke="white" points="422,-207.87 425.5,-217.87 429,-207.87 422,-207.87"/>
<text text-anchor="middle" x="494.5" y="-188.8" font-family="Times,serif" font-size="14.00" fill="white">5 row(s)/1 chunk(s)</text>
</g>
<!-- 134229303560208 -->
<g id="node22" class="node">
<title>134229303560208</title>
<g id="a_node22"><a xlink:title="Output: 22819651 rows in 2289 chunks filtered: 0, 4 ms 386 µs.">
<polygon fill="none" stroke="white" points="827.5,-1314.5 723.5,-1314.5 723.5,-1260.5 827.5,-1260.5 827.5,-1314.5"/>
<text text-anchor="middle" x="775.5" y="-1299.3" font-family="Times,serif" font-size="14.00" fill="white">Validate</text>
<text text-anchor="middle" x="775.5" y="-1268.3" font-family="Times,serif" font-size="14.00" fill="white">4 ms 386 µs</text>
</a>
</g>
</g>
<!-- 134229303560208&#45;&gt;134093003494096 -->
<g id="edge23" class="edge">
<title>134229303560208&#45;&gt;134093003494096</title>
<path fill="none" stroke="white" d="M723.23,-1299.92C681.54,-1309.44 621.82,-1323.99 570.5,-1340 552.38,-1345.66 548.68,-1349.53 530.5,-1355 507.58,-1361.9 483.1,-1368.39 459.05,-1374.29"/>
<polygon fill="white" stroke="white" points="449.15,-1376.7 459.69,-1377.74 458.86,-1374.34 449.15,-1376.7"/>
<text text-anchor="middle" x="691" y="-1343.8" font-family="Times,serif" font-size="14.00" fill="white">22,819,651 row(s)/2,289 chunk(s)</text>
</g>
<!-- 134093003494736 -->
<g id="node25" class="node">
<title>134093003494736</title>
<g id="a_node25"><a xlink:title="Output: 22819651 rows in 256 chunks filtered: 0, 798 ms 124 µs.&#10;Operator step runtimes:&#10; LeftSideMaterialize 39 ms 577 µs&#10; RightSideMaterialize 5 ms 424 µs&#10; LeftSideTransform 0 ns&#10; RightSideTransform 0 ns&#10; LeftSidePartition 42 ms 430 µs&#10; RightSidePartition 41 ms 400 µs&#10; LeftSideSortBuckets 327 ms 55 µs&#10; RightSideSortBuckets 76 ms 531 µs&#10; GatherRowIds 1 µs 755 ns&#10; FindJoinPartner 110 ms 481 µs&#10; OutputWriting 152 ms 266 µs.&#10;Radix bits: 8.">
<polygon fill="none" stroke="white" stroke-width="5.74" points="957,-1442 746,-1442 746,-1373 957,-1373 957,-1442"/>
<text text-anchor="middle" x="851.5" y="-1426.8" font-family="Times,serif" font-size="14.00" fill="white">JoinSimdSortMerge (Inner)</text>
<text text-anchor="middle" x="851.5" y="-1411.8" font-family="Times,serif" font-size="14.00" fill="white">o_custkey = c_custkey</text>
<text text-anchor="middle" x="851.5" y="-1380.8" font-family="Times,serif" font-size="14.00" fill="white">798 ms 124 µs</text>
</a>
</g>
</g>
<!-- 134229303560208&#45;&gt;134093003494736 -->
<g id="edge24" class="edge">
<title>134229303560208&#45;&gt;134093003494736</title>
<path fill="none" stroke="white" d="M797.12,-1314.62C803.33,-1322.57 809.93,-1331.47 815.5,-1340 820.4,-1347.51 825.25,-1355.74 829.72,-1363.78"/>
<polygon fill="white" stroke="white" points="829.81,-1363.95 826.74,-1365.62 834.6,-1372.73 829.81,-1363.95"/>
<text text-anchor="middle" x="944" y="-1343.8" font-family="Times,serif" font-size="14.00" fill="white">22,819,651 row(s)/2,289 chunk(s)</text>
</g>
<!-- 134093003493776 -->
<g id="node23" class="node">
<title>134093003493776</title>
<g id="a_node23"><a xlink:title="Output: 22819651 rows in 2289 chunks filtered: 0, 16 ms 759 µs.&#10;Chunks: 0 skipped with no results, &#10;0 skipped with all matching, 0 scanned using binary search.">
<polygon fill="none" stroke="white" points="988,-1194.5 563,-1194.5 563,-1095.5 988,-1095.5 988,-1194.5"/>
<text text-anchor="middle" x="775.5" y="-1179.3" font-family="Times,serif" font-size="14.00" fill="white">TableScan</text>
<text text-anchor="middle" x="775.5" y="-1164.3" font-family="Times,serif" font-size="14.00" fill="white">Impl: ColumnBetween</text>
<text text-anchor="middle" x="775.5" y="-1149.3" font-family="Times,serif" font-size="14.00" fill="white">o_orderdate BETWEEN UPPER EXCLUSIVE &#39;1996&#45;01&#45;01&#39;</text>
<text text-anchor="middle" x="775.5" y="-1134.3" font-family="Times,serif" font-size="14.00" fill="white">AND &#39;1997&#45;01&#45;01&#39;</text>
<text text-anchor="middle" x="775.5" y="-1103.3" font-family="Times,serif" font-size="14.00" fill="white">16 ms 759 µs</text>
</a>
</g>
</g>
<!-- 134093003493776&#45;&gt;134229303560208 -->
<g id="edge25" class="edge">
<title>134093003493776&#45;&gt;134229303560208</title>
<path fill="none" stroke="white" d="M775.5,-1194.75C775.5,-1212.99 775.5,-1233.38 775.5,-1250.3"/>
<polygon fill="white" stroke="white" points="772,-1250.33 775.5,-1260.33 779,-1250.33 772,-1250.33"/>
<text text-anchor="middle" x="896" y="-1223.8" font-family="Times,serif" font-size="14.00" fill="white">22,819,651 row(s)/2,289 chunk(s)</text>
</g>
<!-- 134088416627792 -->
<g id="node24" class="node">
<title>134088416627792</title>
<g id="a_node24"><a xlink:title="Output: 150000000 rows in 2289 chunks filtered: 0, 5 ms 866 µs.">
<polygon fill="none" stroke="white" points="841,-1037 710,-1037 710,-923 841,-923 841,-1037"/>
<text text-anchor="middle" x="775.5" y="-1021.8" font-family="Times,serif" font-size="14.00" fill="white">GetTable</text>
<text text-anchor="middle" x="775.5" y="-1006.8" font-family="Times,serif" font-size="14.00" fill="white">(orders)</text>
<text text-anchor="middle" x="775.5" y="-991.8" font-family="Times,serif" font-size="14.00" fill="white">pruned:</text>
<text text-anchor="middle" x="775.5" y="-976.8" font-family="Times,serif" font-size="14.00" fill="white">0/2289 chunk(s)</text>
<text text-anchor="middle" x="775.5" y="-961.8" font-family="Times,serif" font-size="14.00" fill="white">6/9 column(s)</text>
<text text-anchor="middle" x="775.5" y="-930.8" font-family="Times,serif" font-size="14.00" fill="white">5 ms 866 µs</text>
</a>
</g>
</g>
<!-- 134088416627792&#45;&gt;134093003493776 -->
<g id="edge26" class="edge">
<title>134088416627792&#45;&gt;134093003493776</title>
<path fill="none" stroke="white" stroke-width="4.58" d="M775.5,-1037.1C775.5,-1052.66 775.5,-1069.59 775.5,-1085.3"/>
<polygon fill="white" stroke="white" stroke-width="4.58" points="771.49,-1085.42 775.5,-1095.42 779.51,-1085.42 771.49,-1085.42"/>
<text text-anchor="middle" x="900.5" y="-1058.8" font-family="Times,serif" font-size="14.00" fill="white">150,000,000 row(s)/2,289 chunk(s)</text>
</g>
<!-- 134093003494736&#45;&gt;134093003495056 -->
<g id="edge27" class="edge">
<title>134093003494736&#45;&gt;134093003495056</title>
<path fill="none" stroke="white" d="M858.09,-1442.13C867.58,-1500.82 878.17,-1623.02 820.5,-1700 817.11,-1704.52 813.26,-1708.65 809.06,-1712.41"/>
<polygon fill="white" stroke="white" points="801.14,-1718.8 811.12,-1715.25 808.92,-1712.52 801.14,-1718.8"/>
<text text-anchor="middle" x="977.5" y="-1568.8" font-family="Times,serif" font-size="14.00" fill="white">22,819,651 row(s)/256 chunk(s)</text>
</g>
<!-- 134229303560720 -->
<g id="node26" class="node">
<title>134229303560720</title>
<g id="a_node26"><a xlink:title="Output: 15000000 rows in 229 chunks filtered: 0, 1 ms 119 µs.">
<polygon fill="none" stroke="white" points="1153.5,-1314.5 1049.5,-1314.5 1049.5,-1260.5 1153.5,-1260.5 1153.5,-1314.5"/>
<text text-anchor="middle" x="1101.5" y="-1299.3" font-family="Times,serif" font-size="14.00" fill="white">Validate</text>
<text text-anchor="middle" x="1101.5" y="-1268.3" font-family="Times,serif" font-size="14.00" fill="white">1 ms 119 µs</text>
</a>
</g>
</g>
<!-- 134229303560720&#45;&gt;134093003494736 -->
<g id="edge28" class="edge">
<title>134229303560720&#45;&gt;134093003494736</title>
<path fill="none" stroke="white" d="M1094.45,-1314.71C1089.41,-1328.63 1081.21,-1344.9 1068.5,-1355 1039.75,-1377.85 1002.53,-1390.84 967.05,-1398.13"/>
<polygon fill="white" stroke="white" points="957.1,-1400.04 967.58,-1401.6 966.92,-1398.16 957.1,-1400.04"/>
<text text-anchor="middle" x="1195.5" y="-1343.8" font-family="Times,serif" font-size="14.00" fill="white">15,000,000 row(s)/229 chunk(s)</text>
</g>
<!-- 134088416628240 -->
<g id="node27" class="node">
<title>134088416628240</title>
<g id="a_node27"><a xlink:title="Output: 15000000 rows in 229 chunks filtered: 0, 709 µs 8 ns.">
<polygon fill="none" stroke="white" points="1162.5,-1202 1040.5,-1202 1040.5,-1088 1162.5,-1088 1162.5,-1202"/>
<text text-anchor="middle" x="1101.5" y="-1186.8" font-family="Times,serif" font-size="14.00" fill="white">GetTable</text>
<text text-anchor="middle" x="1101.5" y="-1171.8" font-family="Times,serif" font-size="14.00" fill="white">(customer)</text>
<text text-anchor="middle" x="1101.5" y="-1156.8" font-family="Times,serif" font-size="14.00" fill="white">pruned:</text>
<text text-anchor="middle" x="1101.5" y="-1141.8" font-family="Times,serif" font-size="14.00" fill="white">0/229 chunk(s)</text>
<text text-anchor="middle" x="1101.5" y="-1126.8" font-family="Times,serif" font-size="14.00" fill="white">6/8 column(s)</text>
<text text-anchor="middle" x="1101.5" y="-1095.8" font-family="Times,serif" font-size="14.00" fill="white">709 µs 8 ns</text>
</a>
</g>
</g>
<!-- 134088416628240&#45;&gt;134229303560720 -->
<g id="edge29" class="edge">
<title>134088416628240&#45;&gt;134229303560720</title>
<path fill="none" stroke="white" d="M1101.5,-1202.34C1101.5,-1218.43 1101.5,-1235.54 1101.5,-1250.1"/>
<polygon fill="white" stroke="white" points="1098,-1250.2 1101.5,-1260.2 1105,-1250.2 1098,-1250.2"/>
<text text-anchor="middle" x="1215.5" y="-1223.8" font-family="Times,serif" font-size="14.00" fill="white">15,000,000 row(s)/229 chunk(s)</text>
</g>
<!-- 0 -->
<g id="node28" class="node">
<title>0</title>
<polygon fill="none" stroke="white" points="500,-0.5 500,-166.5 837,-166.5 837,-0.5 500,-0.5"/>
<text text-anchor="middle" x="668.5" y="-151.3" font-family="Times,serif" font-size="14.00" fill="white">Total by operator</text>
<polyline fill="none" stroke="white" points="500,-143.5 837,-143.5 "/>
<text text-anchor="end" x="654" y="-128.3" font-family="Times,serif" font-size="14.00" fill="white">JoinSimdSortMerge </text>
<text text-anchor="end" x="654" y="-113.3" font-family="Times,serif" font-size="14.00" fill="white"> Projection </text>
<text text-anchor="end" x="654" y="-98.3" font-family="Times,serif" font-size="14.00" fill="white"> TableScan </text>
<text text-anchor="end" x="654" y="-83.3" font-family="Times,serif" font-size="14.00" fill="white"> AggregateHash </text>
<text text-anchor="end" x="654" y="-68.3" font-family="Times,serif" font-size="14.00" fill="white"> GetTable </text>
<text text-anchor="end" x="654" y="-53.3" font-family="Times,serif" font-size="14.00" fill="white"> Validate </text>
<text text-anchor="end" x="654" y="-38.3" font-family="Times,serif" font-size="14.00" fill="white"> Sort </text>
<text text-anchor="end" x="654" y="-23.3" font-family="Times,serif" font-size="14.00" fill="white"> Alias </text>
<text text-anchor="end" x="654" y="-8.3" font-family="Times,serif" font-size="14.00" fill="white">total</text>
<polyline fill="none" stroke="white" points="662,-0.5 662,-143.5 "/>
<text text-anchor="start" x="670" y="-128.3" font-family="Times,serif" font-size="14.00" fill="white">4 s 850 ms </text>
<text text-anchor="start" x="670" y="-113.3" font-family="Times,serif" font-size="14.00" fill="white"> 72 ms 785 µs </text>
<text text-anchor="start" x="670" y="-98.3" font-family="Times,serif" font-size="14.00" fill="white"> 69 ms 991 µs </text>
<text text-anchor="start" x="670" y="-83.3" font-family="Times,serif" font-size="14.00" fill="white"> 42 ms 21 µs </text>
<text text-anchor="start" x="670" y="-68.3" font-family="Times,serif" font-size="14.00" fill="white"> 40 ms 197 µs </text>
<text text-anchor="start" x="670" y="-53.3" font-family="Times,serif" font-size="14.00" fill="white"> 29 ms 921 µs </text>
<text text-anchor="start" x="670" y="-38.3" font-family="Times,serif" font-size="14.00" fill="white"> 57 µs 190 ns </text>
<text text-anchor="start" x="670" y="-23.3" font-family="Times,serif" font-size="14.00" fill="white"> 9 µs 223 ns </text>
<text text-anchor="start" x="670" y="-8.3" font-family="Times,serif" font-size="14.00" fill="white"> 5 s 105 ms </text>
<polyline fill="none" stroke="white" points="784,-0.5 784,-143.5 "/>
<text text-anchor="start" x="792" y="-128.3" font-family="Times,serif" font-size="14.00" fill="white">95 %</text>
<text text-anchor="start" x="792" y="-113.3" font-family="Times,serif" font-size="14.00" fill="white">1 %</text>
<text text-anchor="start" x="792" y="-98.3" font-family="Times,serif" font-size="14.00" fill="white">1 %</text>
<text text-anchor="start" x="792" y="-83.3" font-family="Times,serif" font-size="14.00" fill="white">1 %</text>
<text text-anchor="start" x="792" y="-68.3" font-family="Times,serif" font-size="14.00" fill="white">1 %</text>
<text text-anchor="start" x="792" y="-53.3" font-family="Times,serif" font-size="14.00" fill="white">1 %</text>
<text text-anchor="start" x="792" y="-38.3" font-family="Times,serif" font-size="14.00" fill="white">0 %</text>
<text text-anchor="start" x="792" y="-23.3" font-family="Times,serif" font-size="14.00" fill="white">0 %</text>
<text text-anchor="start" x="792" y="-8.3" font-family="Times,serif" font-size="14.00" fill="white"> </text>
</g>
</g>
</svg>
