<?xml version="1.0" encoding="UTF-8" standalone="no"?>
<!DOCTYPE svg PUBLIC "-//W3C//DTD SVG 1.1//EN"
 "http://www.w3.org/Graphics/SVG/1.1/DTD/svg11.dtd">
<!-- Generated by graphviz version 2.43.0 (0)
 -->
<!-- Title: G Pages: 1 -->
<svg width="1350pt" height="2555pt"
 viewBox="0.00 0.00 1350.00 2555.00" xmlns="http://www.w3.org/2000/svg" xmlns:xlink="http://www.w3.org/1999/xlink">
<g id="graph0" class="graph" transform="scale(1 1) rotate(0) translate(4 2551)">
<title>G</title>
<polygon fill="black" stroke="transparent" points="-4,4 -4,-2551 1346,-2551 1346,4 -4,4"/>
<text text-anchor="middle" x="319.5" y="-2531.8" font-family="Times,serif" font-size="14.00" fill="white">For tooltips with advanced information, hover your mouse over vertices or edge labels.</text>
<!-- 133915085214288 -->
<g id="node1" class="node">
<title>133915085214288</title>
<g id="a_node1"><a xlink:title="Output: 100 rows in 1 chunk filtered: 0, 8 µs 276 ns.">
<polygon fill="none" stroke="white" points="187,-2492 35,-2492 35,-2423 187,-2423 187,-2492"/>
<text text-anchor="middle" x="111" y="-2476.8" font-family="Times,serif" font-size="14.00" fill="white">Alias</text>
<text text-anchor="middle" x="111" y="-2461.8" font-family="Times,serif" font-size="14.00" fill="white">[s_name, numwait]</text>
<text text-anchor="middle" x="111" y="-2430.8" font-family="Times,serif" font-size="14.00" fill="white">8 µs 276 ns</text>
</a>
</g>
</g>
<!-- 134228826597648 -->
<g id="node2" class="node">
<title>134228826597648</title>
<g id="a_node2"><a xlink:title="Output: 100 rows in 1 chunk filtered: 0, 31 µs 408 ns.">
<polygon fill="none" stroke="white" points="165,-2372 57,-2372 57,-2318 165,-2318 165,-2372"/>
<text text-anchor="middle" x="111" y="-2356.8" font-family="Times,serif" font-size="14.00" fill="white">Limit</text>
<text text-anchor="middle" x="111" y="-2325.8" font-family="Times,serif" font-size="14.00" fill="white">31 µs 408 ns</text>
</a>
</g>
</g>
<!-- 134228826597648&#45;&gt;133915085214288 -->
<g id="edge1" class="edge">
<title>134228826597648&#45;&gt;133915085214288</title>
<path fill="none" stroke="white" d="M111,-2372.19C111,-2384.29 111,-2399 111,-2412.72"/>
<polygon fill="white" stroke="white" points="107.5,-2412.95 111,-2422.95 114.5,-2412.96 107.5,-2412.95"/>
<text text-anchor="middle" x="189" y="-2393.8" font-family="Times,serif" font-size="14.00" fill="white">100 row(s)/1 chunk(s)</text>
</g>
<!-- 133915085213968 -->
<g id="node3" class="node">
<title>133915085213968</title>
<g id="a_node3"><a xlink:title="Output: 40084 rows in 1 chunk filtered: 0, 43 ms 318 µs.&#10;Operator step runtimes:&#10; MaterializeSortColumns 8 ms 106 µs&#10; Sort 33 ms 900 µs&#10; TemporaryResultWriting 191 µs 791 ns&#10; WriteOutput 432 µs 344 ns.">
<polygon fill="none" stroke="white" points="167.5,-2267 54.5,-2267 54.5,-2213 167.5,-2213 167.5,-2267"/>
<text text-anchor="middle" x="111" y="-2251.8" font-family="Times,serif" font-size="14.00" fill="white">Sort</text>
<text text-anchor="middle" x="111" y="-2220.8" font-family="Times,serif" font-size="14.00" fill="white">43 ms 318 µs</text>
</a>
</g>
</g>
<!-- 133915085213968&#45;&gt;134228826597648 -->
<g id="edge2" class="edge">
<title>133915085213968&#45;&gt;134228826597648</title>
<path fill="none" stroke="white" d="M111,-2267.26C111,-2279.49 111,-2294.24 111,-2307.52"/>
<polygon fill="white" stroke="white" points="107.5,-2307.79 111,-2317.79 114.5,-2307.79 107.5,-2307.79"/>
<text text-anchor="middle" x="200" y="-2288.8" font-family="Times,serif" font-size="14.00" fill="white">40,084 row(s)/1 chunk(s)</text>
</g>
<!-- 134228826326032 -->
<g id="node4" class="node">
<title>134228826326032</title>
<g id="a_node4"><a xlink:title="Output: 40084 rows in 2 chunks filtered: 0, 143 ms 301 µs.&#10;Operator step runtimes:&#10; GroupByKeyPartitioning 133 ms 715 µs&#10; Aggregating 9 ms 128 µs&#10; GroupByColumnsWriting 281 µs 474 ns&#10; AggregateColumnsWriting 124 µs 13 ns&#10; OutputWriting 19 µs 869 ns.">
<polygon fill="none" stroke="white" stroke-width="2" points="188.5,-2162 33.5,-2162 33.5,-2078 188.5,-2078 188.5,-2162"/>
<text text-anchor="middle" x="111" y="-2146.8" font-family="Times,serif" font-size="14.00" fill="white">AggregateHash</text>
<text text-anchor="middle" x="111" y="-2131.8" font-family="Times,serif" font-size="14.00" fill="white">GroupBy {s_name}</text>
<text text-anchor="middle" x="111" y="-2116.8" font-family="Times,serif" font-size="14.00" fill="white">COUNT(*)</text>
<text text-anchor="middle" x="111" y="-2085.8" font-family="Times,serif" font-size="14.00" fill="white">143 ms 301 µs</text>
</a>
</g>
</g>
<!-- 134228826326032&#45;&gt;133915085213968 -->
<g id="edge3" class="edge">
<title>134228826326032&#45;&gt;133915085213968</title>
<path fill="none" stroke="white" d="M111,-2162.27C111,-2175.36 111,-2189.72 111,-2202.45"/>
<polygon fill="white" stroke="white" points="107.5,-2202.69 111,-2212.69 114.5,-2202.69 107.5,-2202.69"/>
<text text-anchor="middle" x="200" y="-2183.8" font-family="Times,serif" font-size="14.00" fill="white">40,084 row(s)/2 chunk(s)</text>
</g>
<!-- 133915085213648 -->
<g id="node5" class="node">
<title>133915085213648</title>
<g id="a_node5"><a xlink:title="Output: 663407 rows in 64 chunks filtered: 62, 325 ms 333 µs.&#10;Operator step runtimes:&#10; LeftSideMaterialize 78 ms 305 µs&#10; RightSideMaterialize 125 ms 938 µs&#10; LeftSideTransform 0 ns&#10; RightSideTransform 0 ns&#10; LeftSidePartition 4 ms 287 µs&#10; RightSidePartition 39 ms 717 µs&#10; LeftSideSortBuckets 2 ms 145 µs&#10; RightSideSortBuckets 7 ms 381 µs&#10; GatherRowIds 6 µs 594 ns&#10; FindJoinPartner 65 ms 213 µs&#10; OutputWriting 1 ms 332 µs.&#10;Radix bits: 8.">
<polygon fill="none" stroke="white" stroke-width="4.02" points="222,-2027 0,-2027 0,-1943 222,-1943 222,-2027"/>
<text text-anchor="middle" x="111" y="-2011.8" font-family="Times,serif" font-size="14.00" fill="white">JoinSimdSortMerge (Semi)</text>
<text text-anchor="middle" x="111" y="-1996.8" font-family="Times,serif" font-size="14.00" fill="white">l_orderkey = l_orderkey</text>
<text text-anchor="middle" x="111" y="-1981.8" font-family="Times,serif" font-size="14.00" fill="white">AND l_suppkey != l_suppkey</text>
<text text-anchor="middle" x="111" y="-1950.8" font-family="Times,serif" font-size="14.00" fill="white">325 ms 333 µs</text>
</a>
</g>
</g>
<!-- 133915085213648&#45;&gt;134228826326032 -->
<g id="edge4" class="edge">
<title>133915085213648&#45;&gt;134228826326032</title>
<path fill="none" stroke="white" d="M111,-2027.35C111,-2040.11 111,-2054.32 111,-2067.67"/>
<polygon fill="white" stroke="white" points="107.5,-2067.67 111,-2077.67 114.5,-2067.67 107.5,-2067.67"/>
<text text-anchor="middle" x="209" y="-2048.8" font-family="Times,serif" font-size="14.00" fill="white">663,407 row(s)/64 chunk(s)</text>
</g>
<!-- 133915085213328 -->
<g id="node6" class="node">
<title>133915085213328</title>
<g id="a_node6"><a xlink:title="Output: 4765091 rows in 64 chunks filtered: 0, 669 ms 130 µs.&#10;Operator step runtimes:&#10; LeftSideMaterialize 225 ms 796 µs&#10; RightSideMaterialize 117 ms 492 µs&#10; LeftSideTransform 0 ns&#10; RightSideTransform 0 ns&#10; LeftSidePartition 6 ms 775 µs&#10; RightSidePartition 25 ms 902 µs&#10; LeftSideSortBuckets 7 ms 800 µs&#10; RightSideSortBuckets 5 ms 485 µs&#10; GatherRowIds 5 µs 222 ns&#10; FindJoinPartner 262 ms 948 µs&#10; OutputWriting 14 ms 725 µs.&#10;Radix bits: 8.">
<polygon fill="none" stroke="white" stroke-width="5.8" points="480.5,-1892 193.5,-1892 193.5,-1808 480.5,-1808 480.5,-1892"/>
<text text-anchor="middle" x="337" y="-1876.8" font-family="Times,serif" font-size="14.00" fill="white">JoinSimdSortMerge (AntiNullAsFalse)</text>
<text text-anchor="middle" x="337" y="-1861.8" font-family="Times,serif" font-size="14.00" fill="white">l_orderkey = l_orderkey</text>
<text text-anchor="middle" x="337" y="-1846.8" font-family="Times,serif" font-size="14.00" fill="white">AND l_suppkey != l_suppkey</text>
<text text-anchor="middle" x="337" y="-1815.8" font-family="Times,serif" font-size="14.00" fill="white">669 ms 130 µs</text>
</a>
</g>
</g>
<!-- 133915085213328&#45;&gt;133915085213648 -->
<g id="edge5" class="edge">
<title>133915085213328&#45;&gt;133915085213648</title>
<path fill="none" stroke="white" d="M267.04,-1892.17C242.57,-1906.57 214.94,-1922.83 189.8,-1937.63"/>
<polygon fill="white" stroke="white" points="189.64,-1937.72 187.86,-1934.71 181.02,-1942.79 189.64,-1937.72"/>
<text text-anchor="middle" x="336" y="-1913.8" font-family="Times,serif" font-size="14.00" fill="white">4,765,091 row(s)/64 chunk(s)</text>
</g>
<!-- 133915085212368 -->
<g id="node7" class="node">
<title>133915085212368</title>
<g id="a_node7"><a xlink:title="Output: 7341969 rows in 256 chunks filtered: 0, 149 ms 117 µs.&#10;Operator step runtimes:&#10; LeftSideMaterialize 100 ms 861 µs&#10; RightSideMaterialize 904 µs 792 ns&#10; LeftSideTransform 0 ns&#10; RightSideTransform 0 ns&#10; LeftSidePartition 8 ms 143 µs&#10; RightSidePartition 1 ms 203 µs&#10; LeftSideSortBuckets 7 ms 449 µs&#10; RightSideSortBuckets 735 µs 502 ns&#10; GatherRowIds 1 µs 95 ns&#10; FindJoinPartner 14 ms 983 µs&#10; OutputWriting 13 ms 932 µs.&#10;Radix bits: 8.">
<polygon fill="none" stroke="white" stroke-width="2.09" points="676.5,-1397 465.5,-1397 465.5,-1328 676.5,-1328 676.5,-1397"/>
<text text-anchor="middle" x="571" y="-1381.8" font-family="Times,serif" font-size="14.00" fill="white">JoinSimdSortMerge (Inner)</text>
<text text-anchor="middle" x="571" y="-1366.8" font-family="Times,serif" font-size="14.00" fill="white">l_suppkey = s_suppkey</text>
<text text-anchor="middle" x="571" y="-1335.8" font-family="Times,serif" font-size="14.00" fill="white">149 ms 117 µs</text>
</a>
</g>
</g>
<!-- 133915085212368&#45;&gt;133915085213328 -->
<g id="edge6" class="edge">
<title>133915085212368&#45;&gt;133915085213328</title>
<path fill="none" stroke="white" d="M571,-1397.07C571,-1420.68 571,-1453.02 571,-1481.5 571,-1481.5 571,-1481.5 571,-1716 571,-1750.72 571.16,-1766.08 546,-1790 530.12,-1805.09 510.69,-1816.37 490.13,-1824.8"/>
<polygon fill="white" stroke="white" points="489.94,-1824.87 488.68,-1821.6 480.61,-1828.47 489.94,-1824.87"/>
<text text-anchor="middle" x="680.5" y="-1591.3" font-family="Times,serif" font-size="14.00" fill="white">7,341,969 row(s)/256 chunk(s)</text>
</g>
<!-- 133915085212688 -->
<g id="node24" class="node">
<title>133915085212688</title>
<g id="a_node24"><a xlink:title="Output: 34579064 rows in 64 chunks filtered: 0, 1 s 635 ms.&#10;Operator step runtimes:&#10; LeftSideMaterialize 180 ms 428 µs&#10; RightSideMaterialize 225 ms 913 µs&#10; LeftSideTransform 0 ns&#10; RightSideTransform 0 ns&#10; LeftSidePartition 647 ms 603 µs&#10; RightSidePartition 7 ms 537 µs&#10; LeftSideSortBuckets 291 ms 439 µs&#10; RightSideSortBuckets 7 ms 816 µs&#10; GatherRowIds 3 µs 379 ns&#10; FindJoinPartner 255 ms 861 µs&#10; OutputWriting 414 µs 343 ns.&#10;Radix bits: 8.">
<polygon fill="none" stroke="white" stroke-width="8" points="358.5,-1517 73.5,-1517 73.5,-1448 358.5,-1448 358.5,-1517"/>
<text text-anchor="middle" x="216" y="-1501.8" font-family="Times,serif" font-size="14.00" fill="white">JoinSimdSortMerge (Semi Reduction)</text>
<text text-anchor="middle" x="216" y="-1486.8" font-family="Times,serif" font-size="14.00" fill="white">l_orderkey = l_orderkey</text>
<text text-anchor="middle" x="216" y="-1455.8" font-family="Times,serif" font-size="14.00" fill="white">1 s 635 ms</text>
</a>
</g>
</g>
<!-- 133915085212368&#45;&gt;133915085212688 -->
<g id="edge7" class="edge">
<title>133915085212368&#45;&gt;133915085212688</title>
<path fill="none" stroke="white" d="M465.37,-1380.31C424.81,-1388.45 378.54,-1399.82 338,-1415 318,-1422.49 297.25,-1432.75 278.65,-1442.97"/>
<polygon fill="white" stroke="white" points="269.71,-1447.97 280.15,-1446.14 278.44,-1443.09 269.71,-1447.97"/>
<text text-anchor="middle" x="447.5" y="-1418.8" font-family="Times,serif" font-size="14.00" fill="white">7,341,969 row(s)/256 chunk(s)</text>
</g>
<!-- 133915085212048 -->
<g id="node8" class="node">
<title>133915085212048</title>
<g id="a_node8"><a xlink:title="Output: 7341969 rows in 64 chunks filtered: 0, 272 ms 376 µs.&#10;Chunks: 0 skipped with no results, &#10;0 skipped with all matching, 0 scanned using binary search.">
<polygon fill="none" stroke="white" stroke-width="3.58" points="684.5,-1277 457.5,-1277 457.5,-1193 684.5,-1193 684.5,-1277"/>
<text text-anchor="middle" x="571" y="-1261.8" font-family="Times,serif" font-size="14.00" fill="white">TableScan</text>
<text text-anchor="middle" x="571" y="-1246.8" font-family="Times,serif" font-size="14.00" fill="white">Impl: ColumnVsColumn</text>
<text text-anchor="middle" x="571" y="-1231.8" font-family="Times,serif" font-size="14.00" fill="white">l_receiptdate &gt; l_commitdate</text>
<text text-anchor="middle" x="571" y="-1200.8" font-family="Times,serif" font-size="14.00" fill="white">272 ms 376 µs</text>
</a>
</g>
</g>
<!-- 133915085212048&#45;&gt;133915085212368 -->
<g id="edge8" class="edge">
<title>133915085212048&#45;&gt;133915085212368</title>
<path fill="none" stroke="white" d="M571,-1277.09C571,-1290.07 571,-1304.45 571,-1317.61"/>
<polygon fill="white" stroke="white" points="571,-1317.85 567.5,-1317.85 571,-1327.85 571,-1317.85"/>
<text text-anchor="middle" x="676" y="-1298.8" font-family="Times,serif" font-size="14.00" fill="white">7,341,969 row(s)/64 chunk(s)</text>
</g>
<!-- 134228826596880 -->
<g id="node9" class="node">
<title>134228826596880</title>
<g id="a_node9"><a xlink:title="Output: 11648093 rows in 64 chunks filtered: 0, 22 ms 609 µs.">
<polygon fill="none" stroke="white" points="627.5,-1142 514.5,-1142 514.5,-1088 627.5,-1088 627.5,-1142"/>
<text text-anchor="middle" x="571" y="-1126.8" font-family="Times,serif" font-size="14.00" fill="white">Validate</text>
<text text-anchor="middle" x="571" y="-1095.8" font-family="Times,serif" font-size="14.00" fill="white">22 ms 609 µs</text>
</a>
</g>
</g>
<!-- 134228826596880&#45;&gt;133915085212048 -->
<g id="edge9" class="edge">
<title>134228826596880&#45;&gt;133915085212048</title>
<path fill="none" stroke="white" d="M571,-1142.19C571,-1154.1 571,-1168.63 571,-1182.58"/>
<polygon fill="white" stroke="white" points="567.5,-1182.59 571,-1192.59 574.5,-1182.59 567.5,-1182.59"/>
<text text-anchor="middle" x="680.5" y="-1163.8" font-family="Times,serif" font-size="14.00" fill="white">11,648,093 row(s)/64 chunk(s)</text>
</g>
<!-- 133915085211728 -->
<g id="node10" class="node">
<title>133915085211728</title>
<g id="a_node10"><a xlink:title="Output: 11648093 rows in 64 chunks filtered: 0, 774 ms 977 µs.&#10;Operator step runtimes:&#10; LeftSideMaterialize 398 ms 260 µs&#10; RightSideMaterialize 40 ms 257 µs&#10; LeftSideTransform 0 ns&#10; RightSideTransform 0 ns&#10; LeftSidePartition 25 ms 249 µs&#10; RightSidePartition 82 ms 677 µs&#10; LeftSideSortBuckets 24 ms 499 µs&#10; RightSideSortBuckets 45 ms 968 µs&#10; GatherRowIds 5 µs 514 ns&#10; FindJoinPartner 133 ms 89 µs&#10; OutputWriting 21 ms 896 µs.&#10;Radix bits: 8.">
<polygon fill="none" stroke="white" stroke-width="6.16" points="675.5,-1037 466.5,-1037 466.5,-968 675.5,-968 675.5,-1037"/>
<text text-anchor="middle" x="571" y="-1021.8" font-family="Times,serif" font-size="14.00" fill="white">JoinSimdSortMerge (Semi)</text>
<text text-anchor="middle" x="571" y="-1006.8" font-family="Times,serif" font-size="14.00" fill="white">l_orderkey = o_orderkey</text>
<text text-anchor="middle" x="571" y="-975.8" font-family="Times,serif" font-size="14.00" fill="white">774 ms 977 µs</text>
</a>
</g>
</g>
<!-- 133915085211728&#45;&gt;134228826596880 -->
<g id="edge10" class="edge">
<title>133915085211728&#45;&gt;134228826596880</title>
<path fill="none" stroke="white" d="M571,-1037.25C571,-1050.07 571,-1064.73 571,-1077.77"/>
<polygon fill="white" stroke="white" points="567.5,-1077.81 571,-1087.81 574.5,-1077.81 567.5,-1077.81"/>
<text text-anchor="middle" x="680.5" y="-1058.8" font-family="Times,serif" font-size="14.00" fill="white">11,648,093 row(s)/64 chunk(s)</text>
</g>
<!-- 133915085211088 -->
<g id="node11" class="node">
<title>133915085211088</title>
<g id="a_node11"><a xlink:title="Output: 24053340 rows in 256 chunks filtered: 575984562, 279 ms 927 µs.&#10;Operator step runtimes:&#10; LeftSideMaterialize 189 ms 698 µs&#10; RightSideMaterialize 563 µs 255 ns&#10; LeftSideTransform 0 ns&#10; RightSideTransform 0 ns&#10; LeftSidePartition 26 ms 437 µs&#10; RightSidePartition 1 ms 350 µs&#10; LeftSideSortBuckets 18 ms 436 µs&#10; RightSideSortBuckets 750 µs 913 ns&#10; GatherRowIds 938 ns&#10; FindJoinPartner 28 ms 595 µs&#10; OutputWriting 1 ms 186 µs.&#10;Radix bits: 8.">
<polygon fill="none" stroke="white" stroke-width="3.65" points="795.5,-917 510.5,-917 510.5,-848 795.5,-848 795.5,-917"/>
<text text-anchor="middle" x="653" y="-901.8" font-family="Times,serif" font-size="14.00" fill="white">JoinSimdSortMerge (Semi Reduction)</text>
<text text-anchor="middle" x="653" y="-886.8" font-family="Times,serif" font-size="14.00" fill="white">l_suppkey = s_suppkey</text>
<text text-anchor="middle" x="653" y="-855.8" font-family="Times,serif" font-size="14.00" fill="white">279 ms 927 µs</text>
</a>
</g>
</g>
<!-- 133915085211088&#45;&gt;133915085211728 -->
<g id="edge11" class="edge">
<title>133915085211088&#45;&gt;133915085211728</title>
<path fill="none" stroke="white" d="M645.68,-917.25C642.32,-928.28 637.57,-940.2 631,-950 628.64,-953.53 625.97,-956.96 623.1,-960.25"/>
<polygon fill="white" stroke="white" points="622.95,-960.42 620.4,-958.02 616.11,-967.71 622.95,-960.42"/>
<text text-anchor="middle" x="753" y="-938.8" font-family="Times,serif" font-size="14.00" fill="white">24,053,340 row(s)/256 chunk(s)</text>
</g>
<!-- 133914462986576 -->
<g id="node12" class="node">
<title>133914462986576</title>
<g id="a_node12"><a xlink:title="Output: 600037902 rows in 9156 chunks filtered: 0, 31 ms 963 µs.">
<polygon fill="none" stroke="white" points="215.5,-797 84.5,-797 84.5,-683 215.5,-683 215.5,-797"/>
<text text-anchor="middle" x="150" y="-781.8" font-family="Times,serif" font-size="14.00" fill="white">GetTable</text>
<text text-anchor="middle" x="150" y="-766.8" font-family="Times,serif" font-size="14.00" fill="white">(lineitem)</text>
<text text-anchor="middle" x="150" y="-751.8" font-family="Times,serif" font-size="14.00" fill="white">pruned:</text>
<text text-anchor="middle" x="150" y="-736.8" font-family="Times,serif" font-size="14.00" fill="white">0/9156 chunk(s)</text>
<text text-anchor="middle" x="150" y="-721.8" font-family="Times,serif" font-size="14.00" fill="white">12/16 column(s)</text>
<text text-anchor="middle" x="150" y="-690.8" font-family="Times,serif" font-size="14.00" fill="white">31 ms 963 µs</text>
</a>
</g>
</g>
<!-- 133914462986576&#45;&gt;133915085211088 -->
<g id="edge12" class="edge">
<title>133914462986576&#45;&gt;133915085211088</title>
<path fill="none" stroke="white" stroke-width="8" d="M151.56,-797.26C154.63,-809.73 160.22,-821.69 170,-830 195.87,-851.98 441.31,-843.85 475,-848 483.3,-849.02 491.8,-850.19 500.36,-851.47"/>
<polygon fill="white" stroke="white" stroke-width="8" points="500.55,-851.5 499.49,-858.42 510.43,-853.02 500.55,-851.5"/>
<text text-anchor="middle" x="295" y="-818.8" font-family="Times,serif" font-size="14.00" fill="white">600,037,902 row(s)/9,156 chunk(s)</text>
</g>
<!-- 133914462986576&#45;&gt;133915085212688 -->
<g id="edge13" class="edge">
<title>133914462986576&#45;&gt;133915085212688</title>
<path fill="none" stroke="white" stroke-width="8" d="M140.06,-797.21C136.34,-822.84 133,-853.61 133,-881.5 133,-881.5 133,-881.5 133,-1363.5 133,-1392.5 149.98,-1419.4 168.58,-1440.18"/>
<polygon fill="white" stroke="white" stroke-width="8" points="168.64,-1440.24 163.53,-1445.03 175.47,-1447.55 168.64,-1440.24"/>
<text text-anchor="middle" x="258" y="-1111.3" font-family="Times,serif" font-size="14.00" fill="white">600,037,902 row(s)/9,156 chunk(s)</text>
</g>
<!-- 134228826596368 -->
<g id="node13" class="node">
<title>134228826596368</title>
<g id="a_node13"><a xlink:title="Output: 40084 rows in 1 chunk filtered: 0, 114 µs 525 ns.">
<polygon fill="none" stroke="white" points="862.5,-767 745.5,-767 745.5,-713 862.5,-713 862.5,-767"/>
<text text-anchor="middle" x="804" y="-751.8" font-family="Times,serif" font-size="14.00" fill="white">Validate</text>
<text text-anchor="middle" x="804" y="-720.8" font-family="Times,serif" font-size="14.00" fill="white">114 µs 525 ns</text>
</a>
</g>
</g>
<!-- 134228826596368&#45;&gt;133915085212368 -->
<g id="edge15" class="edge">
<title>134228826596368&#45;&gt;133915085212368</title>
<path fill="none" stroke="white" d="M840.19,-767.24C855.31,-780.01 871.71,-796.59 882,-815 896.73,-841.37 896,-851.3 896,-881.5 896,-881.5 896,-881.5 896,-1236 896,-1282.3 779.79,-1318.1 686.35,-1339.41"/>
<polygon fill="white" stroke="white" points="676.52,-1341.61 687.04,-1342.84 686.28,-1339.42 676.52,-1341.61"/>
<text text-anchor="middle" x="985" y="-1058.8" font-family="Times,serif" font-size="14.00" fill="white">40,084 row(s)/1 chunk(s)</text>
</g>
<!-- 134228826596368&#45;&gt;133915085211088 -->
<g id="edge14" class="edge">
<title>134228826596368&#45;&gt;133915085211088</title>
<path fill="none" stroke="white" d="M763.51,-767.09C744.46,-780.31 722.02,-797.29 704,-815 696.37,-822.5 688.92,-831.17 682.17,-839.73"/>
<polygon fill="white" stroke="white" points="675.93,-847.86 684.8,-842.05 682.02,-839.92 675.93,-847.86"/>
<text text-anchor="middle" x="793" y="-818.8" font-family="Times,serif" font-size="14.00" fill="white">40,084 row(s)/1 chunk(s)</text>
</g>
<!-- 133915085210768 -->
<g id="node14" class="node">
<title>133915085210768</title>
<g id="a_node14"><a xlink:title="Output: 40084 rows in 1 chunk filtered: 959916, 2 ms 989 µs.&#10;Operator step runtimes:&#10; LeftSideMaterialize 435 µs 591 ns&#10; RightSideMaterialize 29 µs 219 ns&#10; LeftSideTransform 0 ns&#10; RightSideTransform 0 ns&#10; LeftSidePartition 625 µs 996 ns&#10; RightSidePartition 14 µs 250 ns&#10; LeftSideSortBuckets 767 µs 568 ns&#10; RightSideSortBuckets 703 µs 273 ns&#10; GatherRowIds 2 µs 385 ns&#10; FindJoinPartner 261 µs 940 ns&#10; OutputWriting 31 µs 248 ns.&#10;Radix bits: 8.">
<polygon fill="none" stroke="white" points="908.5,-609.5 699.5,-609.5 699.5,-540.5 908.5,-540.5 908.5,-609.5"/>
<text text-anchor="middle" x="804" y="-594.3" font-family="Times,serif" font-size="14.00" fill="white">JoinSimdSortMerge (Semi)</text>
<text text-anchor="middle" x="804" y="-579.3" font-family="Times,serif" font-size="14.00" fill="white">s_nationkey = n_nationkey</text>
<text text-anchor="middle" x="804" y="-548.3" font-family="Times,serif" font-size="14.00" fill="white">2 ms 989 µs</text>
</a>
</g>
</g>
<!-- 133915085210768&#45;&gt;134228826596368 -->
<g id="edge16" class="edge">
<title>133915085210768&#45;&gt;134228826596368</title>
<path fill="none" stroke="white" d="M804,-609.77C804,-636.89 804,-674.9 804,-702.68"/>
<polygon fill="white" stroke="white" points="800.5,-702.78 804,-712.78 807.5,-702.78 800.5,-702.78"/>
<text text-anchor="middle" x="893" y="-653.8" font-family="Times,serif" font-size="14.00" fill="white">40,084 row(s)/1 chunk(s)</text>
</g>
<!-- 133914462987024 -->
<g id="node15" class="node">
<title>133914462987024</title>
<g id="a_node15"><a xlink:title="Output: 1000000 rows in 16 chunks filtered: 0, 57 µs 971 ns.">
<polygon fill="none" stroke="white" points="744.5,-467 631.5,-467 631.5,-353 744.5,-353 744.5,-467"/>
<text text-anchor="middle" x="688" y="-451.8" font-family="Times,serif" font-size="14.00" fill="white">GetTable</text>
<text text-anchor="middle" x="688" y="-436.8" font-family="Times,serif" font-size="14.00" fill="white">(supplier)</text>
<text text-anchor="middle" x="688" y="-421.8" font-family="Times,serif" font-size="14.00" fill="white">pruned:</text>
<text text-anchor="middle" x="688" y="-406.8" font-family="Times,serif" font-size="14.00" fill="white">0/16 chunk(s)</text>
<text text-anchor="middle" x="688" y="-391.8" font-family="Times,serif" font-size="14.00" fill="white">4/7 column(s)</text>
<text text-anchor="middle" x="688" y="-360.8" font-family="Times,serif" font-size="14.00" fill="white">57 µs 971 ns</text>
</a>
</g>
</g>
<!-- 133914462987024&#45;&gt;133915085210768 -->
<g id="edge17" class="edge">
<title>133914462987024&#45;&gt;133915085210768</title>
<path fill="none" stroke="white" d="M680.43,-467.28C681.11,-478.65 683.54,-490.13 689,-500 696.45,-513.46 707.49,-524.85 719.84,-534.36"/>
<polygon fill="white" stroke="white" points="720,-534.48 717.96,-537.31 728.11,-540.33 720,-534.48"/>
<text text-anchor="middle" x="794" y="-488.8" font-family="Times,serif" font-size="14.00" fill="white">1,000,000 row(s)/16 chunk(s)</text>
</g>
<!-- 134228826591248 -->
<g id="node16" class="node">
<title>134228826591248</title>
<g id="a_node16"><a xlink:title="Output: 1 row in 1 chunk filtered: 0, 25 µs 312 ns.">
<polygon fill="none" stroke="white" points="975,-437 867,-437 867,-383 975,-383 975,-437"/>
<text text-anchor="middle" x="921" y="-421.8" font-family="Times,serif" font-size="14.00" fill="white">Validate</text>
<text text-anchor="middle" x="921" y="-390.8" font-family="Times,serif" font-size="14.00" fill="white">25 µs 312 ns</text>
</a>
</g>
</g>
<!-- 134228826591248&#45;&gt;133915085210768 -->
<g id="edge18" class="edge">
<title>134228826591248&#45;&gt;133915085210768</title>
<path fill="none" stroke="white" d="M919.07,-437.35C916.65,-456.09 911.22,-481.17 899,-500 890.86,-512.54 879.86,-523.85 868.23,-533.63"/>
<polygon fill="white" stroke="white" points="860.1,-540.16 870.09,-536.63 867.9,-533.9 860.1,-540.16"/>
<text text-anchor="middle" x="976" y="-488.8" font-family="Times,serif" font-size="14.00" fill="white">1 row(s)/1 chunk(s)</text>
</g>
<!-- 133915085210448 -->
<g id="node17" class="node">
<title>133915085210448</title>
<g id="a_node17"><a xlink:title="Output: 1 row in 1 chunk filtered: 0, 51 µs 282 ns.&#10;Chunks: 0 skipped with no results, &#10;0 skipped with all matching, 0 scanned using binary search.">
<polygon fill="none" stroke="white" points="1005.5,-302 836.5,-302 836.5,-218 1005.5,-218 1005.5,-302"/>
<text text-anchor="middle" x="921" y="-286.8" font-family="Times,serif" font-size="14.00" fill="white">TableScan</text>
<text text-anchor="middle" x="921" y="-271.8" font-family="Times,serif" font-size="14.00" fill="white">Impl: ColumnVsValue</text>
<text text-anchor="middle" x="921" y="-256.8" font-family="Times,serif" font-size="14.00" fill="white">n_name = &#39;ALGERIA&#39;</text>
<text text-anchor="middle" x="921" y="-225.8" font-family="Times,serif" font-size="14.00" fill="white">51 µs 282 ns</text>
</a>
</g>
</g>
<!-- 133915085210448&#45;&gt;134228826591248 -->
<g id="edge19" class="edge">
<title>133915085210448&#45;&gt;134228826591248</title>
<path fill="none" stroke="white" d="M921,-302.23C921,-324.32 921,-351.31 921,-372.62"/>
<polygon fill="white" stroke="white" points="917.5,-372.88 921,-382.88 924.5,-372.88 917.5,-372.88"/>
<text text-anchor="middle" x="990" y="-323.8" font-family="Times,serif" font-size="14.00" fill="white">1 row(s)/1 chunk(s)</text>
</g>
<!-- 133914462987472 -->
<g id="node18" class="node">
<title>133914462987472</title>
<g id="a_node18"><a xlink:title="Output: 25 rows in 1 chunk filtered: 0, 22 µs 488 ns.">
<polygon fill="none" stroke="white" points="977.5,-140.5 864.5,-140.5 864.5,-26.5 977.5,-26.5 977.5,-140.5"/>
<text text-anchor="middle" x="921" y="-125.3" font-family="Times,serif" font-size="14.00" fill="white">GetTable</text>
<text text-anchor="middle" x="921" y="-110.3" font-family="Times,serif" font-size="14.00" fill="white">(nation)</text>
<text text-anchor="middle" x="921" y="-95.3" font-family="Times,serif" font-size="14.00" fill="white">pruned:</text>
<text text-anchor="middle" x="921" y="-80.3" font-family="Times,serif" font-size="14.00" fill="white">0/1 chunk(s)</text>
<text text-anchor="middle" x="921" y="-65.3" font-family="Times,serif" font-size="14.00" fill="white">2/4 column(s)</text>
<text text-anchor="middle" x="921" y="-34.3" font-family="Times,serif" font-size="14.00" fill="white">22 µs 488 ns</text>
</a>
</g>
</g>
<!-- 133914462987472&#45;&gt;133915085210448 -->
<g id="edge20" class="edge">
<title>133914462987472&#45;&gt;133915085210448</title>
<path fill="none" stroke="white" d="M921,-140.67C921,-162.25 921,-186.74 921,-207.83"/>
<polygon fill="white" stroke="white" points="917.5,-207.87 921,-217.87 924.5,-207.87 917.5,-207.87"/>
<text text-anchor="middle" x="994.5" y="-188.8" font-family="Times,serif" font-size="14.00" fill="white">25 row(s)/1 chunk(s)</text>
</g>
<!-- 134228826596624 -->
<g id="node19" class="node">
<title>134228826596624</title>
<g id="a_node19"><a xlink:title="Output: 73072502 rows in 2289 chunks filtered: 0, 4 ms 527 µs.">
<polygon fill="none" stroke="white" points="466,-909.5 362,-909.5 362,-855.5 466,-855.5 466,-909.5"/>
<text text-anchor="middle" x="414" y="-894.3" font-family="Times,serif" font-size="14.00" fill="white">Validate</text>
<text text-anchor="middle" x="414" y="-863.3" font-family="Times,serif" font-size="14.00" fill="white">4 ms 527 µs</text>
</a>
</g>
</g>
<!-- 134228826596624&#45;&gt;133915085211728 -->
<g id="edge21" class="edge">
<title>134228826596624&#45;&gt;133915085211728</title>
<path fill="none" stroke="white" stroke-width="2.81" d="M390.99,-909.73C382.49,-922.67 376.91,-938.03 386,-950 395.73,-962.81 424.42,-973.28 456.39,-981.36"/>
<polygon fill="white" stroke="white" stroke-width="2.81" points="466.4,-983.79 457.51,-978.03 456.68,-981.43 466.4,-983.79"/>
<text text-anchor="middle" x="506.5" y="-938.8" font-family="Times,serif" font-size="14.00" fill="white">73,072,502 row(s)/2,289 chunk(s)</text>
</g>
<!-- 133915085211408 -->
<g id="node20" class="node">
<title>133915085211408</title>
<g id="a_node20"><a xlink:title="Output: 73072502 rows in 2289 chunks filtered: 0, 26 ms 37 µs.&#10;Chunks: 0 skipped with no results, &#10;0 skipped with all matching, 0 scanned using binary search.">
<polygon fill="none" stroke="white" points="523.5,-782 354.5,-782 354.5,-698 523.5,-698 523.5,-782"/>
<text text-anchor="middle" x="439" y="-766.8" font-family="Times,serif" font-size="14.00" fill="white">TableScan</text>
<text text-anchor="middle" x="439" y="-751.8" font-family="Times,serif" font-size="14.00" fill="white">Impl: ColumnVsValue</text>
<text text-anchor="middle" x="439" y="-736.8" font-family="Times,serif" font-size="14.00" fill="white">o_orderstatus = &#39;F&#39;</text>
<text text-anchor="middle" x="439" y="-705.8" font-family="Times,serif" font-size="14.00" fill="white">26 ms 37 µs</text>
</a>
</g>
</g>
<!-- 133915085211408&#45;&gt;134228826596624 -->
<g id="edge22" class="edge">
<title>133915085211408&#45;&gt;134228826596624</title>
<path fill="none" stroke="white" stroke-width="2.81" d="M431.7,-782.02C428.13,-802.06 423.88,-825.98 420.43,-845.34"/>
<polygon fill="white" stroke="white" stroke-width="2.81" points="416.97,-844.82 418.67,-855.28 423.86,-846.05 416.97,-844.82"/>
<text text-anchor="middle" x="546.5" y="-818.8" font-family="Times,serif" font-size="14.00" fill="white">73,072,502 row(s)/2,289 chunk(s)</text>
</g>
<!-- 133914462987920 -->
<g id="node21" class="node">
<title>133914462987920</title>
<g id="a_node21"><a xlink:title="Output: 150000000 rows in 2289 chunks filtered: 0, 5 ms 400 µs.">
<polygon fill="none" stroke="white" points="504.5,-632 373.5,-632 373.5,-518 504.5,-518 504.5,-632"/>
<text text-anchor="middle" x="439" y="-616.8" font-family="Times,serif" font-size="14.00" fill="white">GetTable</text>
<text text-anchor="middle" x="439" y="-601.8" font-family="Times,serif" font-size="14.00" fill="white">(orders)</text>
<text text-anchor="middle" x="439" y="-586.8" font-family="Times,serif" font-size="14.00" fill="white">pruned:</text>
<text text-anchor="middle" x="439" y="-571.8" font-family="Times,serif" font-size="14.00" fill="white">0/2289 chunk(s)</text>
<text text-anchor="middle" x="439" y="-556.8" font-family="Times,serif" font-size="14.00" fill="white">7/9 column(s)</text>
<text text-anchor="middle" x="439" y="-525.8" font-family="Times,serif" font-size="14.00" fill="white">5 ms 400 µs</text>
</a>
</g>
</g>
<!-- 133914462987920&#45;&gt;133915085211408 -->
<g id="edge23" class="edge">
<title>133914462987920&#45;&gt;133915085211408</title>
<path fill="none" stroke="white" stroke-width="4.58" d="M439,-632.1C439,-650.19 439,-670.13 439,-687.85"/>
<polygon fill="white" stroke="white" stroke-width="4.58" points="434.99,-687.99 439,-697.99 443.01,-687.99 434.99,-687.99"/>
<text text-anchor="middle" x="564" y="-653.8" font-family="Times,serif" font-size="14.00" fill="white">150,000,000 row(s)/2,289 chunk(s)</text>
</g>
<!-- 133915085213008 -->
<g id="node22" class="node">
<title>133915085213008</title>
<g id="a_node22"><a xlink:title="Output: 24280151 rows in 64 chunks filtered: 0, 445 ms 41 µs.&#10;Chunks: 0 skipped with no results, &#10;0 skipped with all matching, 0 scanned using binary search.">
<polygon fill="none" stroke="white" stroke-width="4.79" points="420.5,-1757 193.5,-1757 193.5,-1673 420.5,-1673 420.5,-1757"/>
<text text-anchor="middle" x="307" y="-1741.8" font-family="Times,serif" font-size="14.00" fill="white">TableScan</text>
<text text-anchor="middle" x="307" y="-1726.8" font-family="Times,serif" font-size="14.00" fill="white">Impl: ColumnVsColumn</text>
<text text-anchor="middle" x="307" y="-1711.8" font-family="Times,serif" font-size="14.00" fill="white">l_receiptdate &gt; l_commitdate</text>
<text text-anchor="middle" x="307" y="-1680.8" font-family="Times,serif" font-size="14.00" fill="white">445 ms 41 µs</text>
</a>
</g>
</g>
<!-- 133915085213008&#45;&gt;133915085213328 -->
<g id="edge24" class="edge">
<title>133915085213008&#45;&gt;133915085213328</title>
<path fill="none" stroke="white" d="M316.33,-1757.35C319.21,-1770.11 322.41,-1784.32 325.42,-1797.67"/>
<polygon fill="white" stroke="white" points="327.68,-1807.67 328.89,-1797.15 325.48,-1797.92 327.68,-1807.67"/>
<text text-anchor="middle" x="432.5" y="-1778.8" font-family="Times,serif" font-size="14.00" fill="white">24,280,151 row(s)/64 chunk(s)</text>
</g>
<!-- 134228826597392 -->
<g id="node23" class="node">
<title>134228826597392</title>
<g id="a_node23"><a xlink:title="Output: 34579064 rows in 64 chunks filtered: 0, 27 ms 648 µs.">
<polygon fill="none" stroke="white" points="272.5,-1622 159.5,-1622 159.5,-1568 272.5,-1568 272.5,-1622"/>
<text text-anchor="middle" x="216" y="-1606.8" font-family="Times,serif" font-size="14.00" fill="white">Validate</text>
<text text-anchor="middle" x="216" y="-1575.8" font-family="Times,serif" font-size="14.00" fill="white">27 ms 648 µs</text>
</a>
</g>
</g>
<!-- 134228826597392&#45;&gt;133915085213648 -->
<g id="edge26" class="edge">
<title>134228826597392&#45;&gt;133915085213648</title>
<path fill="none" stroke="white" d="M191.61,-1622.26C162.97,-1655.08 117.07,-1714.33 99,-1775 83.44,-1827.24 90.23,-1890 98.52,-1933.03"/>
<polygon fill="white" stroke="white" points="100.54,-1942.98 101.98,-1932.49 98.55,-1933.18 100.54,-1942.98"/>
<text text-anchor="middle" x="208.5" y="-1778.8" font-family="Times,serif" font-size="14.00" fill="white">34,579,064 row(s)/64 chunk(s)</text>
</g>
<!-- 134228826597392&#45;&gt;133915085213008 -->
<g id="edge25" class="edge">
<title>134228826597392&#45;&gt;133915085213008</title>
<path fill="none" stroke="white" d="M236.2,-1622.19C245.83,-1634.68 257.68,-1650.04 268.91,-1664.6"/>
<polygon fill="white" stroke="white" points="266.19,-1666.81 275.06,-1672.59 271.73,-1662.53 266.19,-1666.81"/>
<text text-anchor="middle" x="371.5" y="-1643.8" font-family="Times,serif" font-size="14.00" fill="white">34,579,064 row(s)/64 chunk(s)</text>
</g>
<!-- 133915085212688&#45;&gt;134228826597392 -->
<g id="edge27" class="edge">
<title>133915085212688&#45;&gt;134228826597392</title>
<path fill="none" stroke="white" d="M216,-1517.25C216,-1530.07 216,-1544.73 216,-1557.77"/>
<polygon fill="white" stroke="white" points="212.5,-1557.81 216,-1567.81 219.5,-1557.81 212.5,-1557.81"/>
<text text-anchor="middle" x="325.5" y="-1538.8" font-family="Times,serif" font-size="14.00" fill="white">34,579,064 row(s)/64 chunk(s)</text>
</g>
<!-- 0 -->
<g id="node25" class="node">
<title>0</title>
<polygon fill="none" stroke="white" points="996,-0.5 996,-166.5 1342,-166.5 1342,-0.5 996,-0.5"/>
<text text-anchor="middle" x="1169" y="-151.3" font-family="Times,serif" font-size="14.00" fill="white">Total by operator</text>
<polyline fill="none" stroke="white" points="996,-143.5 1342,-143.5 "/>
<text text-anchor="end" x="1150" y="-128.3" font-family="Times,serif" font-size="14.00" fill="white">JoinSimdSortMerge </text>
<text text-anchor="end" x="1150" y="-113.3" font-family="Times,serif" font-size="14.00" fill="white"> TableScan </text>
<text text-anchor="end" x="1150" y="-98.3" font-family="Times,serif" font-size="14.00" fill="white"> AggregateHash </text>
<text text-anchor="end" x="1150" y="-83.3" font-family="Times,serif" font-size="14.00" fill="white"> Validate </text>
<text text-anchor="end" x="1150" y="-68.3" font-family="Times,serif" font-size="14.00" fill="white"> Sort </text>
<text text-anchor="end" x="1150" y="-53.3" font-family="Times,serif" font-size="14.00" fill="white"> GetTable </text>
<text text-anchor="end" x="1150" y="-38.3" font-family="Times,serif" font-size="14.00" fill="white"> Limit </text>
<text text-anchor="end" x="1150" y="-23.3" font-family="Times,serif" font-size="14.00" fill="white"> Alias </text>
<text text-anchor="end" x="1150" y="-8.3" font-family="Times,serif" font-size="14.00" fill="white">total</text>
<polyline fill="none" stroke="white" points="1158,-0.5 1158,-143.5 "/>
<text text-anchor="start" x="1166" y="-128.3" font-family="Times,serif" font-size="14.00" fill="white">3 s 837 ms </text>
<text text-anchor="start" x="1166" y="-113.3" font-family="Times,serif" font-size="14.00" fill="white"> 743 ms 506 µs </text>
<text text-anchor="start" x="1166" y="-98.3" font-family="Times,serif" font-size="14.00" fill="white"> 143 ms 301 µs </text>
<text text-anchor="start" x="1166" y="-83.3" font-family="Times,serif" font-size="14.00" fill="white"> 54 ms 923 µs </text>
<text text-anchor="start" x="1166" y="-68.3" font-family="Times,serif" font-size="14.00" fill="white"> 43 ms 318 µs </text>
<text text-anchor="start" x="1166" y="-53.3" font-family="Times,serif" font-size="14.00" fill="white"> 37 ms 443 µs </text>
<text text-anchor="start" x="1166" y="-38.3" font-family="Times,serif" font-size="14.00" fill="white"> 31 µs 408 ns </text>
<text text-anchor="start" x="1166" y="-23.3" font-family="Times,serif" font-size="14.00" fill="white"> 8 µs 276 ns </text>
<text text-anchor="start" x="1166" y="-8.3" font-family="Times,serif" font-size="14.00" fill="white"> 4 s 859 ms </text>
<polyline fill="none" stroke="white" points="1289,-0.5 1289,-143.5 "/>
<text text-anchor="start" x="1297" y="-128.3" font-family="Times,serif" font-size="14.00" fill="white">79 %</text>
<text text-anchor="start" x="1297" y="-113.3" font-family="Times,serif" font-size="14.00" fill="white">15 %</text>
<text text-anchor="start" x="1297" y="-98.3" font-family="Times,serif" font-size="14.00" fill="white">3 %</text>
<text text-anchor="start" x="1297" y="-83.3" font-family="Times,serif" font-size="14.00" fill="white">1 %</text>
<text text-anchor="start" x="1297" y="-68.3" font-family="Times,serif" font-size="14.00" fill="white">1 %</text>
<text text-anchor="start" x="1297" y="-53.3" font-family="Times,serif" font-size="14.00" fill="white">1 %</text>
<text text-anchor="start" x="1297" y="-38.3" font-family="Times,serif" font-size="14.00" fill="white">0 %</text>
<text text-anchor="start" x="1297" y="-23.3" font-family="Times,serif" font-size="14.00" fill="white">0 %</text>
<text text-anchor="start" x="1297" y="-8.3" font-family="Times,serif" font-size="14.00" fill="white"> </text>
</g>
</g>
</svg>
