<?xml version="1.0" encoding="UTF-8" standalone="no"?>
<!DOCTYPE svg PUBLIC "-//W3C//DTD SVG 1.1//EN"
 "http://www.w3.org/Graphics/SVG/1.1/DTD/svg11.dtd">
<!-- Generated by graphviz version 2.43.0 (0)
 -->
<!-- Title: G Pages: 1 -->
<svg width="742pt" height="1220pt"
 viewBox="0.00 0.00 741.50 1220.00" xmlns="http://www.w3.org/2000/svg" xmlns:xlink="http://www.w3.org/1999/xlink">
<g id="graph0" class="graph" transform="scale(1 1) rotate(0) translate(4 1216)">
<title>G</title>
<polygon fill="black" stroke="transparent" points="-4,4 -4,-1216 737.5,-1216 737.5,4 -4,4"/>
<text text-anchor="middle" x="319.5" y="-1196.8" font-family="Times,serif" font-size="14.00" fill="white">For tooltips with advanced information, hover your mouse over vertices or edge labels.</text>
<!-- 139721915183504 -->
<g id="node1" class="node">
<title>139721915183504</title>
<g id="a_node1"><a xlink:title="Output: 45 rows in 1 chunk filtered: 0, 4 µs 699 ns.">
<polygon fill="none" stroke="white" points="248,-1157 101,-1157 101,-1088 248,-1088 248,-1157"/>
<text text-anchor="middle" x="174.5" y="-1141.8" font-family="Times,serif" font-size="14.00" fill="white">Alias</text>
<text text-anchor="middle" x="174.5" y="-1126.8" font-family="Times,serif" font-size="14.00" fill="white">[c_count, custdist]</text>
<text text-anchor="middle" x="174.5" y="-1095.8" font-family="Times,serif" font-size="14.00" fill="white">4 µs 699 ns</text>
</a>
</g>
</g>
<!-- 139721915183184 -->
<g id="node2" class="node">
<title>139721915183184</title>
<g id="a_node2"><a xlink:title="Output: 45 rows in 1 chunk filtered: 0, 26 µs 830 ns.&#10;Operator step runtimes:&#10; MaterializeSortColumns 10 µs 350 ns&#10; Sort 5 µs 590 ns&#10; TemporaryResultWriting 882 ns&#10; WriteOutput 7 µs 164 ns.">
<polygon fill="none" stroke="white" points="228.5,-1037 120.5,-1037 120.5,-983 228.5,-983 228.5,-1037"/>
<text text-anchor="middle" x="174.5" y="-1021.8" font-family="Times,serif" font-size="14.00" fill="white">Sort</text>
<text text-anchor="middle" x="174.5" y="-990.8" font-family="Times,serif" font-size="14.00" fill="white">26 µs 830 ns</text>
</a>
</g>
</g>
<!-- 139721915183184&#45;&gt;139721915183504 -->
<g id="edge1" class="edge">
<title>139721915183184&#45;&gt;139721915183504</title>
<path fill="none" stroke="white" d="M174.5,-1037.19C174.5,-1049.29 174.5,-1064 174.5,-1077.72"/>
<polygon fill="white" stroke="white" points="171,-1077.95 174.5,-1087.95 178,-1077.96 171,-1077.95"/>
<text text-anchor="middle" x="248" y="-1058.8" font-family="Times,serif" font-size="14.00" fill="white">45 row(s)/1 chunk(s)</text>
</g>
<!-- 139764007390224 -->
<g id="node3" class="node">
<title>139764007390224</title>
<g id="a_node3"><a xlink:title="Output: 45 rows in 1 chunk filtered: 0, 20 ms 809 µs.&#10;Operator step runtimes:&#10; GroupByKeyPartitioning 11 ms 172 µs&#10; Aggregating 9 ms 587 µs&#10; GroupByColumnsWriting 10 µs 89 ns&#10; AggregateColumnsWriting 10 µs 319 ns&#10; OutputWriting 8 µs 6 ns.">
<polygon fill="none" stroke="white" points="297.5,-932 51.5,-932 51.5,-848 297.5,-848 297.5,-932"/>
<text text-anchor="middle" x="174.5" y="-916.8" font-family="Times,serif" font-size="14.00" fill="white">AggregateHash</text>
<text text-anchor="middle" x="174.5" y="-901.8" font-family="Times,serif" font-size="14.00" fill="white">GroupBy {COUNT(o_orderkey)}</text>
<text text-anchor="middle" x="174.5" y="-886.8" font-family="Times,serif" font-size="14.00" fill="white">COUNT(*)</text>
<text text-anchor="middle" x="174.5" y="-855.8" font-family="Times,serif" font-size="14.00" fill="white">20 ms 809 µs</text>
</a>
</g>
</g>
<!-- 139764007390224&#45;&gt;139721915183184 -->
<g id="edge2" class="edge">
<title>139764007390224&#45;&gt;139721915183184</title>
<path fill="none" stroke="white" d="M174.5,-932.27C174.5,-945.36 174.5,-959.72 174.5,-972.45"/>
<polygon fill="white" stroke="white" points="171,-972.69 174.5,-982.69 178,-972.69 171,-972.69"/>
<text text-anchor="middle" x="248" y="-953.8" font-family="Times,serif" font-size="14.00" fill="white">45 row(s)/1 chunk(s)</text>
</g>
<!-- 139721915182864 -->
<g id="node4" class="node">
<title>139721915182864</title>
<g id="a_node4"><a xlink:title="Output: 1500000 rows in 23 chunks filtered: 0, 9 µs 748 ns.">
<polygon fill="none" stroke="white" points="253,-797 96,-797 96,-728 253,-728 253,-797"/>
<text text-anchor="middle" x="174.5" y="-781.8" font-family="Times,serif" font-size="14.00" fill="white">Alias</text>
<text text-anchor="middle" x="174.5" y="-766.8" font-family="Times,serif" font-size="14.00" fill="white">[c_custkey, c_count]</text>
<text text-anchor="middle" x="174.5" y="-735.8" font-family="Times,serif" font-size="14.00" fill="white">9 µs 748 ns</text>
</a>
</g>
</g>
<!-- 139721915182864&#45;&gt;139764007390224 -->
<g id="edge3" class="edge">
<title>139721915182864&#45;&gt;139764007390224</title>
<path fill="none" stroke="white" stroke-width="2.27" d="M174.5,-797.13C174.5,-809.51 174.5,-823.84 174.5,-837.44"/>
<polygon fill="white" stroke="white" stroke-width="2.27" points="171,-837.65 174.5,-847.65 178,-837.65 171,-837.65"/>
<text text-anchor="middle" x="279.5" y="-818.8" font-family="Times,serif" font-size="14.00" fill="white">1,500,000 row(s)/23 chunk(s)</text>
</g>
<!-- 139764007388688 -->
<g id="node5" class="node">
<title>139764007388688</title>
<g id="a_node5"><a xlink:title="Output: 1500000 rows in 23 chunks filtered: 0, 3 s 336 ms.&#10;Operator step runtimes:&#10; GroupByKeyPartitioning 161 ms 238 µs&#10; Aggregating 3 s 170 ms&#10; GroupByColumnsWriting 3 ms 922 µs&#10; AggregateColumnsWriting 923 µs 244 ns&#10; OutputWriting 32 µs 611 ns.">
<polygon fill="none" stroke="white" stroke-width="8" points="260,-677 89,-677 89,-593 260,-593 260,-677"/>
<text text-anchor="middle" x="174.5" y="-661.8" font-family="Times,serif" font-size="14.00" fill="white">AggregateHash</text>
<text text-anchor="middle" x="174.5" y="-646.8" font-family="Times,serif" font-size="14.00" fill="white">GroupBy {c_custkey}</text>
<text text-anchor="middle" x="174.5" y="-631.8" font-family="Times,serif" font-size="14.00" fill="white">COUNT(o_orderkey)</text>
<text text-anchor="middle" x="174.5" y="-600.8" font-family="Times,serif" font-size="14.00" fill="white">3 s 336 ms</text>
</a>
</g>
</g>
<!-- 139764007388688&#45;&gt;139721915182864 -->
<g id="edge4" class="edge">
<title>139764007388688&#45;&gt;139721915182864</title>
<path fill="none" stroke="white" stroke-width="2.27" d="M174.5,-677.09C174.5,-690.07 174.5,-704.45 174.5,-717.61"/>
<polygon fill="white" stroke="white" stroke-width="2.27" points="171,-717.85 174.5,-727.85 178,-717.85 171,-717.85"/>
<text text-anchor="middle" x="279.5" y="-698.8" font-family="Times,serif" font-size="14.00" fill="white">1,500,000 row(s)/23 chunk(s)</text>
</g>
<!-- 139721915182544 -->
<g id="node6" class="node">
<title>139721915182544</title>
<g id="a_node6"><a xlink:title="Output: 15338834 rows in 256 chunks filtered: 0, 80 ms 819 µs.&#10;Operator step runtimes:&#10; LeftSideMaterialize 1 ms 300 µs&#10; RightSideMaterialize 6 ms 947 µs&#10; LeftSideTransform 0 ns&#10; RightSideTransform 0 ns&#10; LeftSidePartition 951 µs 297 ns&#10; RightSidePartition 12 ms 522 µs&#10; LeftSideSortBuckets 2 ms 738 µs&#10; RightSideSortBuckets 6 ms 378 µs&#10; GatherRowIds 3 µs 456 ns&#10; FindJoinPartner 27 ms 863 µs&#10; OutputWriting 20 ms 611 µs.&#10;Radix bits: 8.">
<polygon fill="none" stroke="white" points="275,-542 74,-542 74,-473 275,-473 275,-542"/>
<text text-anchor="middle" x="174.5" y="-526.8" font-family="Times,serif" font-size="14.00" fill="white">JoinSimdSortMerge (Left)</text>
<text text-anchor="middle" x="174.5" y="-511.8" font-family="Times,serif" font-size="14.00" fill="white">c_custkey = o_custkey</text>
<text text-anchor="middle" x="174.5" y="-480.8" font-family="Times,serif" font-size="14.00" fill="white">80 ms 819 µs</text>
</a>
</g>
</g>
<!-- 139721915182544&#45;&gt;139764007388688 -->
<g id="edge5" class="edge">
<title>139721915182544&#45;&gt;139764007388688</title>
<path fill="none" stroke="white" stroke-width="8" d="M174.5,-542.13C174.5,-554.51 174.5,-568.84 174.5,-582.44"/>
<polygon fill="white" stroke="white" stroke-width="8" points="167.5,-582.65 174.5,-592.65 181.5,-582.65 167.5,-582.65"/>
<text text-anchor="middle" x="288.5" y="-563.8" font-family="Times,serif" font-size="14.00" fill="white">15,338,834 row(s)/256 chunk(s)</text>
</g>
<!-- 139764007236368 -->
<g id="node7" class="node">
<title>139764007236368</title>
<g id="a_node7"><a xlink:title="Output: 1500000 rows in 23 chunks filtered: 0, 111 µs 459 ns.">
<polygon fill="none" stroke="white" points="117,-422 0,-422 0,-368 117,-368 117,-422"/>
<text text-anchor="middle" x="58.5" y="-406.8" font-family="Times,serif" font-size="14.00" fill="white">Validate</text>
<text text-anchor="middle" x="58.5" y="-375.8" font-family="Times,serif" font-size="14.00" fill="white">111 µs 459 ns</text>
</a>
</g>
</g>
<!-- 139764007236368&#45;&gt;139721915182544 -->
<g id="edge6" class="edge">
<title>139764007236368&#45;&gt;139721915182544</title>
<path fill="none" stroke="white" stroke-width="2.27" d="M55.2,-422.05C55.12,-433.09 56.9,-445.57 63.5,-455 66.32,-459.03 69.54,-462.75 73.06,-466.19"/>
<polygon fill="white" stroke="white" stroke-width="2.27" points="73.15,-466.27 70.85,-468.91 80.68,-472.85 73.15,-466.27"/>
<text text-anchor="middle" x="168.5" y="-443.8" font-family="Times,serif" font-size="14.00" fill="white">1,500,000 row(s)/23 chunk(s)</text>
</g>
<!-- 139764007580560 -->
<g id="node8" class="node">
<title>139764007580560</title>
<g id="a_node8"><a xlink:title="Output: 1500000 rows in 23 chunks filtered: 0, 85 µs 790 ns.">
<polygon fill="none" stroke="white" points="115,-317 2,-317 2,-203 115,-203 115,-317"/>
<text text-anchor="middle" x="58.5" y="-301.8" font-family="Times,serif" font-size="14.00" fill="white">GetTable</text>
<text text-anchor="middle" x="58.5" y="-286.8" font-family="Times,serif" font-size="14.00" fill="white">(customer)</text>
<text text-anchor="middle" x="58.5" y="-271.8" font-family="Times,serif" font-size="14.00" fill="white">pruned:</text>
<text text-anchor="middle" x="58.5" y="-256.8" font-family="Times,serif" font-size="14.00" fill="white">0/23 chunk(s)</text>
<text text-anchor="middle" x="58.5" y="-241.8" font-family="Times,serif" font-size="14.00" fill="white">7/8 column(s)</text>
<text text-anchor="middle" x="58.5" y="-210.8" font-family="Times,serif" font-size="14.00" fill="white">85 µs 790 ns</text>
</a>
</g>
</g>
<!-- 139764007580560&#45;&gt;139764007236368 -->
<g id="edge7" class="edge">
<title>139764007580560&#45;&gt;139764007236368</title>
<path fill="none" stroke="white" stroke-width="2.27" d="M58.5,-317.02C58.5,-330.77 58.5,-345.14 58.5,-357.69"/>
<polygon fill="white" stroke="white" stroke-width="2.27" points="55,-357.75 58.5,-367.75 62,-357.75 55,-357.75"/>
<text text-anchor="middle" x="163.5" y="-338.8" font-family="Times,serif" font-size="14.00" fill="white">1,500,000 row(s)/23 chunk(s)</text>
</g>
<!-- 139764007237648 -->
<g id="node9" class="node">
<title>139764007237648</title>
<g id="a_node9"><a xlink:title="Output: 14838814 rows in 229 chunks filtered: 0, 482 µs 105 ns.">
<polygon fill="none" stroke="white" points="356,-422 239,-422 239,-368 356,-368 356,-422"/>
<text text-anchor="middle" x="297.5" y="-406.8" font-family="Times,serif" font-size="14.00" fill="white">Validate</text>
<text text-anchor="middle" x="297.5" y="-375.8" font-family="Times,serif" font-size="14.00" fill="white">482 µs 105 ns</text>
</a>
</g>
</g>
<!-- 139764007237648&#45;&gt;139721915182544 -->
<g id="edge8" class="edge">
<title>139764007237648&#45;&gt;139721915182544</title>
<path fill="none" stroke="white" stroke-width="7.92" d="M291.28,-422.01C287.58,-433.18 281.91,-445.76 273.5,-455 269.75,-459.12 265.59,-462.96 261.17,-466.54"/>
<polygon fill="white" stroke="white" stroke-width="7.92" points="252.95,-472.69 265.1,-472.25 260.95,-466.7 252.95,-472.69"/>
<text text-anchor="middle" x="397.5" y="-443.8" font-family="Times,serif" font-size="14.00" fill="white">14,838,814 row(s)/229 chunk(s)</text>
</g>
<!-- 139721915182224 -->
<g id="node10" class="node">
<title>139721915182224</title>
<g id="a_node10"><a xlink:title="Output: 14838814 rows in 229 chunks filtered: 0, 20 ms 183 µs.&#10;Chunks: 0 skipped with no results, &#10;0 skipped with all matching, 0 scanned using binary search.">
<polygon fill="none" stroke="white" points="483.5,-302 133.5,-302 133.5,-218 483.5,-218 483.5,-302"/>
<text text-anchor="middle" x="308.5" y="-286.8" font-family="Times,serif" font-size="14.00" fill="white">TableScan</text>
<text text-anchor="middle" x="308.5" y="-271.8" font-family="Times,serif" font-size="14.00" fill="white">Impl: ColumnLike</text>
<text text-anchor="middle" x="308.5" y="-256.8" font-family="Times,serif" font-size="14.00" fill="white">o_comment NOT LIKE &#39;%pending%packages%&#39;</text>
<text text-anchor="middle" x="308.5" y="-225.8" font-family="Times,serif" font-size="14.00" fill="white">20 ms 183 µs</text>
</a>
</g>
</g>
<!-- 139721915182224&#45;&gt;139764007237648 -->
<g id="edge9" class="edge">
<title>139721915182224&#45;&gt;139764007237648</title>
<path fill="none" stroke="white" stroke-width="7.92" d="M305.08,-302.35C303.62,-320.03 301.92,-340.5 300.51,-357.6"/>
<polygon fill="white" stroke="white" stroke-width="7.92" points="293.59,-357.22 299.67,-367.75 307.4,-358.36 293.59,-357.22"/>
<text text-anchor="middle" x="415.5" y="-338.8" font-family="Times,serif" font-size="14.00" fill="white">14,838,814 row(s)/229 chunk(s)</text>
</g>
<!-- 139764007581008 -->
<g id="node11" class="node">
<title>139764007581008</title>
<g id="a_node11"><a xlink:title="Output: 15000000 rows in 229 chunks filtered: 0, 270 µs 898 ns.">
<polygon fill="none" stroke="white" points="369.5,-133 247.5,-133 247.5,-19 369.5,-19 369.5,-133"/>
<text text-anchor="middle" x="308.5" y="-117.8" font-family="Times,serif" font-size="14.00" fill="white">GetTable</text>
<text text-anchor="middle" x="308.5" y="-102.8" font-family="Times,serif" font-size="14.00" fill="white">(orders)</text>
<text text-anchor="middle" x="308.5" y="-87.8" font-family="Times,serif" font-size="14.00" fill="white">pruned:</text>
<text text-anchor="middle" x="308.5" y="-72.8" font-family="Times,serif" font-size="14.00" fill="white">0/229 chunk(s)</text>
<text text-anchor="middle" x="308.5" y="-57.8" font-family="Times,serif" font-size="14.00" fill="white">6/9 column(s)</text>
<text text-anchor="middle" x="308.5" y="-26.8" font-family="Times,serif" font-size="14.00" fill="white">270 µs 898 ns</text>
</a>
</g>
</g>
<!-- 139764007581008&#45;&gt;139721915182224 -->
<g id="edge10" class="edge">
<title>139764007581008&#45;&gt;139721915182224</title>
<path fill="none" stroke="white" stroke-width="7.94" d="M308.5,-133.09C308.5,-156.93 308.5,-184.53 308.5,-207.81"/>
<polygon fill="white" stroke="white" stroke-width="7.94" points="301.55,-207.83 308.5,-217.83 315.45,-207.83 301.55,-207.83"/>
<text text-anchor="middle" x="422.5" y="-173.8" font-family="Times,serif" font-size="14.00" fill="white">15,000,000 row(s)/229 chunk(s)</text>
</g>
<!-- 0 -->
<g id="node12" class="node">
<title>0</title>
<polygon fill="none" stroke="white" points="387.5,-0.5 387.5,-151.5 733.5,-151.5 733.5,-0.5 387.5,-0.5"/>
<text text-anchor="middle" x="560.5" y="-136.3" font-family="Times,serif" font-size="14.00" fill="white">Total by operator</text>
<polyline fill="none" stroke="white" points="387.5,-128.5 733.5,-128.5 "/>
<text text-anchor="end" x="546.5" y="-113.3" font-family="Times,serif" font-size="14.00" fill="white">AggregateHash </text>
<text text-anchor="end" x="546.5" y="-98.3" font-family="Times,serif" font-size="14.00" fill="white"> JoinSimdSortMerge </text>
<text text-anchor="end" x="546.5" y="-83.3" font-family="Times,serif" font-size="14.00" fill="white"> TableScan </text>
<text text-anchor="end" x="546.5" y="-68.3" font-family="Times,serif" font-size="14.00" fill="white"> Validate </text>
<text text-anchor="end" x="546.5" y="-53.3" font-family="Times,serif" font-size="14.00" fill="white"> GetTable </text>
<text text-anchor="end" x="546.5" y="-38.3" font-family="Times,serif" font-size="14.00" fill="white"> Sort </text>
<text text-anchor="end" x="546.5" y="-23.3" font-family="Times,serif" font-size="14.00" fill="white"> Alias </text>
<text text-anchor="end" x="546.5" y="-8.3" font-family="Times,serif" font-size="14.00" fill="white">total</text>
<polyline fill="none" stroke="white" points="554.5,-0.5 554.5,-128.5 "/>
<text text-anchor="start" x="562.5" y="-113.3" font-family="Times,serif" font-size="14.00" fill="white">3 s 357 ms </text>
<text text-anchor="start" x="562.5" y="-98.3" font-family="Times,serif" font-size="14.00" fill="white"> 80 ms 819 µs </text>
<text text-anchor="start" x="562.5" y="-83.3" font-family="Times,serif" font-size="14.00" fill="white"> 20 ms 183 µs </text>
<text text-anchor="start" x="562.5" y="-68.3" font-family="Times,serif" font-size="14.00" fill="white"> 593 µs 564 ns </text>
<text text-anchor="start" x="562.5" y="-53.3" font-family="Times,serif" font-size="14.00" fill="white"> 356 µs 688 ns </text>
<text text-anchor="start" x="562.5" y="-38.3" font-family="Times,serif" font-size="14.00" fill="white"> 26 µs 830 ns </text>
<text text-anchor="start" x="562.5" y="-23.3" font-family="Times,serif" font-size="14.00" fill="white"> 14 µs 447 ns </text>
<text text-anchor="start" x="562.5" y="-8.3" font-family="Times,serif" font-size="14.00" fill="white"> 3 s 459 ms </text>
<polyline fill="none" stroke="white" points="680.5,-0.5 680.5,-128.5 "/>
<text text-anchor="start" x="688.5" y="-113.3" font-family="Times,serif" font-size="14.00" fill="white">97 %</text>
<text text-anchor="start" x="688.5" y="-98.3" font-family="Times,serif" font-size="14.00" fill="white">2 %</text>
<text text-anchor="start" x="688.5" y="-83.3" font-family="Times,serif" font-size="14.00" fill="white">1 %</text>
<text text-anchor="start" x="688.5" y="-68.3" font-family="Times,serif" font-size="14.00" fill="white">0 %</text>
<text text-anchor="start" x="688.5" y="-53.3" font-family="Times,serif" font-size="14.00" fill="white">0 %</text>
<text text-anchor="start" x="688.5" y="-38.3" font-family="Times,serif" font-size="14.00" fill="white">0 %</text>
<text text-anchor="start" x="688.5" y="-23.3" font-family="Times,serif" font-size="14.00" fill="white">0 %</text>
<text text-anchor="start" x="688.5" y="-8.3" font-family="Times,serif" font-size="14.00" fill="white"> </text>
</g>
</g>
</svg>
