<?xml version="1.0" encoding="UTF-8" standalone="no"?>
<!DOCTYPE svg PUBLIC "-//W3C//DTD SVG 1.1//EN"
 "http://www.w3.org/Graphics/SVG/1.1/DTD/svg11.dtd">
<!-- Generated by graphviz version 2.43.0 (0)
 -->
<!-- Title: G Pages: 1 -->
<svg width="1407pt" height="1910pt"
 viewBox="0.00 0.00 1407.00 1910.00" xmlns="http://www.w3.org/2000/svg" xmlns:xlink="http://www.w3.org/1999/xlink">
<g id="graph0" class="graph" transform="scale(1 1) rotate(0) translate(4 1906)">
<title>G</title>
<polygon fill="black" stroke="transparent" points="-4,4 -4,-1906 1403,-1906 1403,4 -4,4"/>
<text text-anchor="middle" x="319.5" y="-1886.8" font-family="Times,serif" font-size="14.00" fill="white">For tooltips with advanced information, hover your mouse over vertices or edge labels.</text>
<!-- 127132163512592 -->
<g id="node1" class="node">
<title>127132163512592</title>
<g id="a_node1"><a xlink:title="Output: 175 rows in 1 chunk filtered: 0, 8 µs 314 ns.">
<polygon fill="none" stroke="white" points="468.5,-1847 257.5,-1847 257.5,-1778 468.5,-1778 468.5,-1847"/>
<text text-anchor="middle" x="363" y="-1831.8" font-family="Times,serif" font-size="14.00" fill="white">Alias</text>
<text text-anchor="middle" x="363" y="-1816.8" font-family="Times,serif" font-size="14.00" fill="white">[nation, o_year, sum_profit]</text>
<text text-anchor="middle" x="363" y="-1785.8" font-family="Times,serif" font-size="14.00" fill="white">8 µs 314 ns</text>
</a>
</g>
</g>
<!-- 127132163512272 -->
<g id="node2" class="node">
<title>127132163512272</title>
<g id="a_node2"><a xlink:title="Output: 175 rows in 1 chunk filtered: 0, 174 µs 867 ns.&#10;Operator step runtimes:&#10; MaterializeSortColumns 39 µs 682 ns&#10; Sort 101 µs 392 ns&#10; TemporaryResultWriting 3 µs 865 ns&#10; WriteOutput 22 µs 904 ns.">
<polygon fill="none" stroke="white" points="421.5,-1727 304.5,-1727 304.5,-1673 421.5,-1673 421.5,-1727"/>
<text text-anchor="middle" x="363" y="-1711.8" font-family="Times,serif" font-size="14.00" fill="white">Sort</text>
<text text-anchor="middle" x="363" y="-1680.8" font-family="Times,serif" font-size="14.00" fill="white">174 µs 867 ns</text>
</a>
</g>
</g>
<!-- 127132163512272&#45;&gt;127132163512592 -->
<g id="edge1" class="edge">
<title>127132163512272&#45;&gt;127132163512592</title>
<path fill="none" stroke="white" d="M363,-1727.19C363,-1739.29 363,-1754 363,-1767.72"/>
<polygon fill="white" stroke="white" points="359.5,-1767.95 363,-1777.95 366.5,-1767.96 359.5,-1767.95"/>
<text text-anchor="middle" x="441" y="-1748.8" font-family="Times,serif" font-size="14.00" fill="white">175 row(s)/1 chunk(s)</text>
</g>
<!-- 127292668837904 -->
<g id="node3" class="node">
<title>127292668837904</title>
<g id="a_node3"><a xlink:title="Output: 175 rows in 1 chunk filtered: 0, 1 s 89 ms.&#10;Operator step runtimes:&#10; GroupByKeyPartitioning 732 ms 710 µs&#10; Aggregating 356 ms 574 µs&#10; GroupByColumnsWriting 46 µs 284 ns&#10; AggregateColumnsWriting 35 µs 749 ns&#10; OutputWriting 17 µs 597 ns.">
<polygon fill="none" stroke="white" stroke-width="7.8" points="513.5,-1622 212.5,-1622 212.5,-1508 513.5,-1508 513.5,-1622"/>
<text text-anchor="middle" x="363" y="-1606.8" font-family="Times,serif" font-size="14.00" fill="white">AggregateHash</text>
<text text-anchor="middle" x="363" y="-1591.8" font-family="Times,serif" font-size="14.00" fill="white">GroupBy {n_name,</text>
<text text-anchor="middle" x="363" y="-1576.8" font-family="Times,serif" font-size="14.00" fill="white">SUBSTR(o_orderdate,1,4)}</text>
<text text-anchor="middle" x="363" y="-1561.8" font-family="Times,serif" font-size="14.00" fill="white">SUM(l_extendedprice * (1 &#45; l_discount) &#45;</text>
<text text-anchor="middle" x="363" y="-1546.8" font-family="Times,serif" font-size="14.00" fill="white">ps_supplycost * l_quantity)</text>
<text text-anchor="middle" x="363" y="-1515.8" font-family="Times,serif" font-size="14.00" fill="white">1 s 89 ms</text>
</a>
</g>
</g>
<!-- 127292668837904&#45;&gt;127132163512272 -->
<g id="edge2" class="edge">
<title>127292668837904&#45;&gt;127132163512272</title>
<path fill="none" stroke="white" d="M363,-1622.02C363,-1635.77 363,-1650.14 363,-1662.69"/>
<polygon fill="white" stroke="white" points="359.5,-1662.75 363,-1672.75 366.5,-1662.75 359.5,-1662.75"/>
<text text-anchor="middle" x="441" y="-1643.8" font-family="Times,serif" font-size="14.00" fill="white">175 row(s)/1 chunk(s)</text>
</g>
<!-- 127132163511952 -->
<g id="node4" class="node">
<title>127132163511952</title>
<g id="a_node4"><a xlink:title="Output: 16302189 rows in 16 chunks filtered: 0, 55 µs 414 ns.">
<polygon fill="none" stroke="white" points="457.5,-1457 268.5,-1457 268.5,-1388 457.5,-1388 457.5,-1457"/>
<text text-anchor="middle" x="363" y="-1441.8" font-family="Times,serif" font-size="14.00" fill="white">Alias</text>
<text text-anchor="middle" x="363" y="-1426.8" font-family="Times,serif" font-size="14.00" fill="white">[nation, o_year, amount]</text>
<text text-anchor="middle" x="363" y="-1395.8" font-family="Times,serif" font-size="14.00" fill="white">55 µs 414 ns</text>
</a>
</g>
</g>
<!-- 127132163511952&#45;&gt;127292668837904 -->
<g id="edge3" class="edge">
<title>127132163511952&#45;&gt;127292668837904</title>
<path fill="none" stroke="white" d="M363,-1457.15C363,-1469.37 363,-1483.63 363,-1497.69"/>
<polygon fill="white" stroke="white" points="359.5,-1497.85 363,-1507.85 366.5,-1497.85 359.5,-1497.85"/>
<text text-anchor="middle" x="472.5" y="-1478.8" font-family="Times,serif" font-size="14.00" fill="white">16,302,189 row(s)/16 chunk(s)</text>
</g>
<!-- 127132163511632 -->
<g id="node5" class="node">
<title>127132163511632</title>
<g id="a_node5"><a xlink:title="Output: 16302189 rows in 16 chunks filtered: 0, 1 s 138 ms.&#10;Operator step runtimes:&#10; ForwardUnmodifiedColumns 27 µs 613 ns&#10; EvaluateNewColumns 1 s 138 ms&#10; BuildOutput 152 µs 256 ns.">
<polygon fill="none" stroke="white" stroke-width="7.91" points="410.5,-1337 315.5,-1337 315.5,-1283 410.5,-1283 410.5,-1337"/>
<text text-anchor="middle" x="363" y="-1321.8" font-family="Times,serif" font-size="14.00" fill="white">Projection</text>
<text text-anchor="middle" x="363" y="-1290.8" font-family="Times,serif" font-size="14.00" fill="white">1 s 138 ms</text>
</a>
</g>
</g>
<!-- 127132163511632&#45;&gt;127132163511952 -->
<g id="edge4" class="edge">
<title>127132163511632&#45;&gt;127132163511952</title>
<path fill="none" stroke="white" d="M363,-1337.19C363,-1349.29 363,-1364 363,-1377.72"/>
<polygon fill="white" stroke="white" points="359.5,-1377.95 363,-1387.95 366.5,-1377.96 359.5,-1377.95"/>
<text text-anchor="middle" x="472.5" y="-1358.8" font-family="Times,serif" font-size="14.00" fill="white">16,302,189 row(s)/16 chunk(s)</text>
</g>
<!-- 127132163511312 -->
<g id="node6" class="node">
<title>127132163511312</title>
<g id="a_node6"><a xlink:title="Output: 16302189 rows in 16 chunks filtered: 0, 874 ms 183 µs.&#10;Chunks: 0 skipped with no results, &#10;0 skipped with all matching, 0 scanned using binary search.">
<polygon fill="none" stroke="white" stroke-width="7.26" points="458.5,-1232 267.5,-1232 267.5,-1148 458.5,-1148 458.5,-1232"/>
<text text-anchor="middle" x="363" y="-1216.8" font-family="Times,serif" font-size="14.00" fill="white">TableScan</text>
<text text-anchor="middle" x="363" y="-1201.8" font-family="Times,serif" font-size="14.00" fill="white">Impl: ColumnVsColumn</text>
<text text-anchor="middle" x="363" y="-1186.8" font-family="Times,serif" font-size="14.00" fill="white">ps_suppkey = l_suppkey</text>
<text text-anchor="middle" x="363" y="-1155.8" font-family="Times,serif" font-size="14.00" fill="white">874 ms 183 µs</text>
</a>
</g>
</g>
<!-- 127132163511312&#45;&gt;127132163511632 -->
<g id="edge5" class="edge">
<title>127132163511312&#45;&gt;127132163511632</title>
<path fill="none" stroke="white" d="M363,-1232.27C363,-1245.36 363,-1259.72 363,-1272.45"/>
<polygon fill="white" stroke="white" points="359.5,-1272.69 363,-1282.69 366.5,-1272.69 359.5,-1272.69"/>
<text text-anchor="middle" x="472.5" y="-1253.8" font-family="Times,serif" font-size="14.00" fill="white">16,302,189 row(s)/16 chunk(s)</text>
</g>
<!-- 127132163510992 -->
<g id="node7" class="node">
<title>127132163510992</title>
<g id="a_node7"><a xlink:title="Output: 65208756 rows in 16 chunks filtered: 0, 1 s 181 ms.&#10;Operator step runtimes:&#10; BuildSideMaterializing 11 ms 44 µs&#10; ProbeSideMaterializing 530 ms 598 µs&#10; Clustering 21 ms 356 µs&#10; Building 20 ms 929 µs&#10; Probing 191 ms 852 µs&#10; OutputWriting 405 ms 122 µs.&#10;Radix bits: 4.&#10;Build side is left.">
<polygon fill="none" stroke="white" stroke-width="8" points="454,-1097 272,-1097 272,-1028 454,-1028 454,-1097"/>
<text text-anchor="middle" x="363" y="-1081.8" font-family="Times,serif" font-size="14.00" fill="white">JoinHash (Inner)</text>
<text text-anchor="middle" x="363" y="-1066.8" font-family="Times,serif" font-size="14.00" fill="white">ps_partkey = l_partkey</text>
<text text-anchor="middle" x="363" y="-1035.8" font-family="Times,serif" font-size="14.00" fill="white">1 s 181 ms</text>
</a>
</g>
</g>
<!-- 127132163510992&#45;&gt;127132163511312 -->
<g id="edge6" class="edge">
<title>127132163510992&#45;&gt;127132163511312</title>
<path fill="none" stroke="white" stroke-width="4.24" d="M363,-1097.13C363,-1109.51 363,-1123.84 363,-1137.44"/>
<polygon fill="white" stroke="white" stroke-width="4.24" points="359.29,-1137.65 363,-1147.65 366.71,-1137.65 359.29,-1137.65"/>
<text text-anchor="middle" x="472.5" y="-1118.8" font-family="Times,serif" font-size="14.00" fill="white">65,208,756 row(s)/16 chunk(s)</text>
</g>
<!-- 127132163509712 -->
<g id="node8" class="node">
<title>127132163509712</title>
<g id="a_node8"><a xlink:title="Output: 2173924 rows in 128 chunks filtered: 23452388, 252 ms 165 µs.&#10;Operator step runtimes:&#10; BuildSideMaterializing 179 ms 881 µs&#10; ProbeSideMaterializing 13 ms 37 µs&#10; Clustering 29 ms 132 µs&#10; Building 17 ms 371 µs&#10; Probing 10 ms 557 µs&#10; OutputWriting 1 ms 578 µs.&#10;Radix bits: 7.&#10;Build side is right.">
<polygon fill="none" stroke="white" stroke-width="4.19" points="416,-857 208,-857 208,-788 416,-788 416,-857"/>
<text text-anchor="middle" x="312" y="-841.8" font-family="Times,serif" font-size="14.00" fill="white">JoinHash (Semi Reduction)</text>
<text text-anchor="middle" x="312" y="-826.8" font-family="Times,serif" font-size="14.00" fill="white">ps_partkey = l_partkey</text>
<text text-anchor="middle" x="312" y="-795.8" font-family="Times,serif" font-size="14.00" fill="white">252 ms 165 µs</text>
</a>
</g>
</g>
<!-- 127132163509712&#45;&gt;127132163510992 -->
<g id="edge7" class="edge">
<title>127132163509712&#45;&gt;127132163510992</title>
<path fill="none" stroke="white" d="M319.2,-857.09C328.21,-899.15 343.66,-971.27 353.6,-1017.64"/>
<polygon fill="white" stroke="white" points="353.66,-1017.91 350.24,-1018.65 355.76,-1027.69 353.66,-1017.91"/>
<text text-anchor="middle" x="454.5" y="-938.8" font-family="Times,serif" font-size="14.00" fill="white">2,173,924 row(s)/128 chunk(s)</text>
</g>
<!-- 127292668183312 -->
<g id="node9" class="node">
<title>127292668183312</title>
<g id="a_node9"><a xlink:title="Output: 40000000 rows in 611 chunks filtered: 0, 12 ms 580 µs.">
<polygon fill="none" stroke="white" points="117.5,-737 4.5,-737 4.5,-683 117.5,-683 117.5,-737"/>
<text text-anchor="middle" x="61" y="-721.8" font-family="Times,serif" font-size="14.00" fill="white">Validate</text>
<text text-anchor="middle" x="61" y="-690.8" font-family="Times,serif" font-size="14.00" fill="white">12 ms 580 µs</text>
</a>
</g>
</g>
<!-- 127292668183312&#45;&gt;127132163509712 -->
<g id="edge8" class="edge">
<title>127292668183312&#45;&gt;127132163509712</title>
<path fill="none" stroke="white" stroke-width="3.03" d="M61.2,-737.26C62.66,-748.75 66.36,-761.52 75,-770 93.07,-787.73 146.46,-800.17 197.99,-808.37"/>
<polygon fill="white" stroke="white" stroke-width="3.03" points="198.04,-808.38 197.51,-811.84 207.93,-809.9 198.04,-808.38"/>
<text text-anchor="middle" x="189" y="-758.8" font-family="Times,serif" font-size="14.00" fill="white">40,000,000 row(s)/611 chunk(s)</text>
</g>
<!-- 127132163834768 -->
<g id="node10" class="node">
<title>127132163834768</title>
<g id="a_node10"><a xlink:title="Output: 40000000 rows in 611 chunks filtered: 0, 2 ms 723 µs.">
<polygon fill="none" stroke="white" points="122,-632 0,-632 0,-518 122,-518 122,-632"/>
<text text-anchor="middle" x="61" y="-616.8" font-family="Times,serif" font-size="14.00" fill="white">GetTable</text>
<text text-anchor="middle" x="61" y="-601.8" font-family="Times,serif" font-size="14.00" fill="white">(partsupp)</text>
<text text-anchor="middle" x="61" y="-586.8" font-family="Times,serif" font-size="14.00" fill="white">pruned:</text>
<text text-anchor="middle" x="61" y="-571.8" font-family="Times,serif" font-size="14.00" fill="white">0/611 chunk(s)</text>
<text text-anchor="middle" x="61" y="-556.8" font-family="Times,serif" font-size="14.00" fill="white">2/5 column(s)</text>
<text text-anchor="middle" x="61" y="-525.8" font-family="Times,serif" font-size="14.00" fill="white">2 ms 723 µs</text>
</a>
</g>
</g>
<!-- 127132163834768&#45;&gt;127292668183312 -->
<g id="edge9" class="edge">
<title>127132163834768&#45;&gt;127292668183312</title>
<path fill="none" stroke="white" stroke-width="3.03" d="M61,-632.02C61,-645.77 61,-660.14 61,-672.69"/>
<polygon fill="white" stroke="white" stroke-width="3.03" points="57.5,-672.75 61,-682.75 64.5,-672.75 57.5,-672.75"/>
<text text-anchor="middle" x="175" y="-653.8" font-family="Times,serif" font-size="14.00" fill="white">40,000,000 row(s)/611 chunk(s)</text>
</g>
<!-- 127292668183824 -->
<g id="node11" class="node">
<title>127292668183824</title>
<g id="a_node11"><a xlink:title="Output: 16302189 rows in 4 chunks filtered: 0, 12 ms 602 µs.">
<polygon fill="none" stroke="white" points="485.5,-737 372.5,-737 372.5,-683 485.5,-683 485.5,-737"/>
<text text-anchor="middle" x="429" y="-721.8" font-family="Times,serif" font-size="14.00" fill="white">Validate</text>
<text text-anchor="middle" x="429" y="-690.8" font-family="Times,serif" font-size="14.00" fill="white">12 ms 602 µs</text>
</a>
</g>
</g>
<!-- 127292668183824&#45;&gt;127132163509712 -->
<g id="edge10" class="edge">
<title>127292668183824&#45;&gt;127132163509712</title>
<path fill="none" stroke="white" d="M372.42,-718.6C350.15,-724.65 326.67,-735.51 313,-755 308.38,-761.58 306.21,-769.5 305.48,-777.54"/>
<polygon fill="white" stroke="white" points="305.26,-787.7 308.97,-777.78 305.48,-777.71 305.26,-787.7"/>
<text text-anchor="middle" x="418" y="-758.8" font-family="Times,serif" font-size="14.00" fill="white">16,302,189 row(s)/4 chunk(s)</text>
</g>
<!-- 127132163510032 -->
<g id="node18" class="node">
<title>127132163510032</title>
<g id="a_node18"><a xlink:title="Output: 16302189 rows in 32 chunks filtered: 0, 819 ms 130 µs.&#10;Operator step runtimes:&#10; BuildSideMaterializing 341 ms 270 µs&#10; ProbeSideMaterializing 35 ms 171 µs&#10; Clustering 46 ms 260 µs&#10; Building 158 ms 724 µs&#10; Probing 203 ms 81 µs&#10; OutputWriting 34 ms 149 µs.&#10;Radix bits: 7.&#10;Build side is right.">
<polygon fill="none" stroke="white" stroke-width="7.1" points="804.5,-857 613.5,-857 613.5,-788 804.5,-788 804.5,-857"/>
<text text-anchor="middle" x="709" y="-841.8" font-family="Times,serif" font-size="14.00" fill="white">JoinHash (Inner)</text>
<text text-anchor="middle" x="709" y="-826.8" font-family="Times,serif" font-size="14.00" fill="white">o_orderkey = l_orderkey</text>
<text text-anchor="middle" x="709" y="-795.8" font-family="Times,serif" font-size="14.00" fill="white">819 ms 130 µs</text>
</a>
</g>
</g>
<!-- 127292668183824&#45;&gt;127132163510032 -->
<g id="edge11" class="edge">
<title>127292668183824&#45;&gt;127132163510032</title>
<path fill="none" stroke="white" d="M485.78,-735C498.33,-741.01 511.35,-747.81 523,-755 532.16,-760.65 532.48,-765 542,-770 561.22,-780.09 582.73,-788.57 603.77,-795.54"/>
<polygon fill="white" stroke="white" points="613.39,-798.64 604.94,-792.24 603.87,-795.57 613.39,-798.64"/>
<text text-anchor="middle" x="647" y="-758.8" font-family="Times,serif" font-size="14.00" fill="white">16,302,189 row(s)/4 chunk(s)</text>
</g>
<!-- 127132163509392 -->
<g id="node12" class="node">
<title>127132163509392</title>
<g id="a_node12"><a xlink:title="Output: 16302189 rows in 4 chunks filtered: 175896062, 1 s 117 ms.&#10;Operator step runtimes:&#10; BuildSideMaterializing 2 ms 883 µs&#10; ProbeSideMaterializing 138 ms 503 µs&#10; Clustering 148 ms 137 µs&#10; Building 2 ms 308 µs&#10; Probing 822 ms 159 µs&#10; OutputWriting 76 µs 190 ns.&#10;Radix bits: 2.&#10;Build side is right.">
<polygon fill="none" stroke="white" stroke-width="7.86" points="516,-609.5 342,-609.5 342,-540.5 516,-540.5 516,-609.5"/>
<text text-anchor="middle" x="429" y="-594.3" font-family="Times,serif" font-size="14.00" fill="white">JoinHash (Semi)</text>
<text text-anchor="middle" x="429" y="-579.3" font-family="Times,serif" font-size="14.00" fill="white">l_partkey = p_partkey</text>
<text text-anchor="middle" x="429" y="-548.3" font-family="Times,serif" font-size="14.00" fill="white">1 s 117 ms</text>
</a>
</g>
</g>
<!-- 127132163509392&#45;&gt;127292668183824 -->
<g id="edge12" class="edge">
<title>127132163509392&#45;&gt;127292668183824</title>
<path fill="none" stroke="white" d="M429,-609.56C429,-628.74 429,-652.81 429,-672.46"/>
<polygon fill="white" stroke="white" points="425.5,-672.57 429,-682.57 432.5,-672.57 425.5,-672.57"/>
<text text-anchor="middle" x="534" y="-653.8" font-family="Times,serif" font-size="14.00" fill="white">16,302,189 row(s)/4 chunk(s)</text>
</g>
<!-- 127132163835216 -->
<g id="node13" class="node">
<title>127132163835216</title>
<g id="a_node13"><a xlink:title="Output: 300005811 rows in 4578 chunks filtered: 0, 20 ms 385 µs.">
<polygon fill="none" stroke="white" points="358.5,-467 227.5,-467 227.5,-353 358.5,-353 358.5,-467"/>
<text text-anchor="middle" x="293" y="-451.8" font-family="Times,serif" font-size="14.00" fill="white">GetTable</text>
<text text-anchor="middle" x="293" y="-436.8" font-family="Times,serif" font-size="14.00" fill="white">(lineitem)</text>
<text text-anchor="middle" x="293" y="-421.8" font-family="Times,serif" font-size="14.00" fill="white">pruned:</text>
<text text-anchor="middle" x="293" y="-406.8" font-family="Times,serif" font-size="14.00" fill="white">0/4578 chunk(s)</text>
<text text-anchor="middle" x="293" y="-391.8" font-family="Times,serif" font-size="14.00" fill="white">10/16 column(s)</text>
<text text-anchor="middle" x="293" y="-360.8" font-family="Times,serif" font-size="14.00" fill="white">20 ms 385 µs</text>
</a>
</g>
</g>
<!-- 127132163835216&#45;&gt;127132163509392 -->
<g id="edge13" class="edge">
<title>127132163835216&#45;&gt;127132163509392</title>
<path fill="none" stroke="white" stroke-width="8" d="M284.88,-467.12C285.55,-478.62 288.12,-490.19 294,-500 303.45,-515.76 317.57,-528.39 333.16,-538.44"/>
<polygon fill="white" stroke="white" stroke-width="8" points="333.4,-538.59 329.78,-544.58 341.95,-543.76 333.4,-538.59"/>
<text text-anchor="middle" x="419" y="-488.8" font-family="Times,serif" font-size="14.00" fill="white">300,005,811 row(s)/4,578 chunk(s)</text>
</g>
<!-- 127292668183568 -->
<g id="node14" class="node">
<title>127292668183568</title>
<g id="a_node14"><a xlink:title="Output: 543481 rows in 153 chunks filtered: 0, 304 µs 312 ns.">
<polygon fill="none" stroke="white" points="624.5,-437 507.5,-437 507.5,-383 624.5,-383 624.5,-437"/>
<text text-anchor="middle" x="566" y="-421.8" font-family="Times,serif" font-size="14.00" fill="white">Validate</text>
<text text-anchor="middle" x="566" y="-390.8" font-family="Times,serif" font-size="14.00" fill="white">304 µs 312 ns</text>
</a>
</g>
</g>
<!-- 127292668183568&#45;&gt;127132163509392 -->
<g id="edge14" class="edge">
<title>127292668183568&#45;&gt;127132163509392</title>
<path fill="none" stroke="white" d="M564.62,-437.29C562.48,-456.24 557.14,-481.61 544,-500 534.45,-513.35 521.67,-524.89 508.1,-534.62"/>
<polygon fill="white" stroke="white" points="499.57,-540.45 509.8,-537.7 507.83,-534.81 499.57,-540.45"/>
<text text-anchor="middle" x="654.5" y="-488.8" font-family="Times,serif" font-size="14.00" fill="white">543,481 row(s)/153 chunk(s)</text>
</g>
<!-- 127132163509072 -->
<g id="node15" class="node">
<title>127132163509072</title>
<g id="a_node15"><a xlink:title="Output: 543481 rows in 153 chunks filtered: 0, 16 ms 934 µs.&#10;Chunks: 0 skipped with no results, &#10;0 skipped with all matching, 0 scanned using binary search.">
<polygon fill="none" stroke="white" points="666,-302 466,-302 466,-218 666,-218 666,-302"/>
<text text-anchor="middle" x="566" y="-286.8" font-family="Times,serif" font-size="14.00" fill="white">TableScan</text>
<text text-anchor="middle" x="566" y="-271.8" font-family="Times,serif" font-size="14.00" fill="white">Impl: ColumnLike</text>
<text text-anchor="middle" x="566" y="-256.8" font-family="Times,serif" font-size="14.00" fill="white">p_name LIKE &#39;%dodger%&#39;</text>
<text text-anchor="middle" x="566" y="-225.8" font-family="Times,serif" font-size="14.00" fill="white">16 ms 934 µs</text>
</a>
</g>
</g>
<!-- 127132163509072&#45;&gt;127292668183568 -->
<g id="edge15" class="edge">
<title>127132163509072&#45;&gt;127292668183568</title>
<path fill="none" stroke="white" d="M566,-302.23C566,-324.32 566,-351.31 566,-372.62"/>
<polygon fill="white" stroke="white" points="562.5,-372.88 566,-382.88 569.5,-372.88 562.5,-372.88"/>
<text text-anchor="middle" x="668.5" y="-323.8" font-family="Times,serif" font-size="14.00" fill="white">543,481 row(s)/153 chunk(s)</text>
</g>
<!-- 127132163835664 -->
<g id="node16" class="node">
<title>127132163835664</title>
<g id="a_node16"><a xlink:title="Output: 10000000 rows in 153 chunks filtered: 0, 609 µs 250 ns.">
<polygon fill="none" stroke="white" points="627,-140.5 505,-140.5 505,-26.5 627,-26.5 627,-140.5"/>
<text text-anchor="middle" x="566" y="-125.3" font-family="Times,serif" font-size="14.00" fill="white">GetTable</text>
<text text-anchor="middle" x="566" y="-110.3" font-family="Times,serif" font-size="14.00" fill="white">(part)</text>
<text text-anchor="middle" x="566" y="-95.3" font-family="Times,serif" font-size="14.00" fill="white">pruned:</text>
<text text-anchor="middle" x="566" y="-80.3" font-family="Times,serif" font-size="14.00" fill="white">0/153 chunk(s)</text>
<text text-anchor="middle" x="566" y="-65.3" font-family="Times,serif" font-size="14.00" fill="white">7/9 column(s)</text>
<text text-anchor="middle" x="566" y="-34.3" font-family="Times,serif" font-size="14.00" fill="white">609 µs 250 ns</text>
</a>
</g>
</g>
<!-- 127132163835664&#45;&gt;127132163509072 -->
<g id="edge16" class="edge">
<title>127132163835664&#45;&gt;127132163509072</title>
<path fill="none" stroke="white" d="M566,-140.67C566,-162.25 566,-186.74 566,-207.83"/>
<polygon fill="white" stroke="white" points="562.5,-207.87 566,-217.87 569.5,-207.87 562.5,-207.87"/>
<text text-anchor="middle" x="680" y="-188.8" font-family="Times,serif" font-size="14.00" fill="white">10,000,000 row(s)/153 chunk(s)</text>
</g>
<!-- 127132163510672 -->
<g id="node17" class="node">
<title>127132163510672</title>
<g id="a_node17"><a xlink:title="Output: 16302189 rows in 4 chunks filtered: 0, 474 ms 384 µs.&#10;Operator step runtimes:&#10; BuildSideMaterializing 1 ms 45 µs&#10; ProbeSideMaterializing 118 ms 910 µs&#10; Clustering 6 ms 702 µs&#10; Building 9 ms 765 µs&#10; Probing 238 ms 583 µs&#10; OutputWriting 99 ms 285 µs.&#10;Radix bits: 2.&#10;Build side is right.">
<polygon fill="none" stroke="white" stroke-width="5.75" points="800,-977 618,-977 618,-908 800,-908 800,-977"/>
<text text-anchor="middle" x="709" y="-961.8" font-family="Times,serif" font-size="14.00" fill="white">JoinHash (Inner)</text>
<text text-anchor="middle" x="709" y="-946.8" font-family="Times,serif" font-size="14.00" fill="white">l_suppkey = s_suppkey</text>
<text text-anchor="middle" x="709" y="-915.8" font-family="Times,serif" font-size="14.00" fill="white">474 ms 384 µs</text>
</a>
</g>
</g>
<!-- 127132163510672&#45;&gt;127132163510992 -->
<g id="edge17" class="edge">
<title>127132163510672&#45;&gt;127132163510992</title>
<path fill="none" stroke="white" d="M617.64,-974.66C570.34,-990.79 512.47,-1010.52 463.86,-1027.1"/>
<polygon fill="white" stroke="white" points="454.27,-1030.37 464.87,-1030.46 463.74,-1027.14 454.27,-1030.37"/>
<text text-anchor="middle" x="662" y="-998.8" font-family="Times,serif" font-size="14.00" fill="white">16,302,189 row(s)/4 chunk(s)</text>
</g>
<!-- 127132163510032&#45;&gt;127132163510672 -->
<g id="edge18" class="edge">
<title>127132163510032&#45;&gt;127132163510672</title>
<path fill="none" stroke="white" d="M709,-857.31C709,-869.78 709,-884.1 709,-897.34"/>
<polygon fill="white" stroke="white" points="709,-897.68 705.5,-897.68 709,-907.68 709,-897.68"/>
<text text-anchor="middle" x="818.5" y="-878.8" font-family="Times,serif" font-size="14.00" fill="white">16,302,189 row(s)/32 chunk(s)</text>
</g>
<!-- 127292668184080 -->
<g id="node19" class="node">
<title>127292668184080</title>
<g id="a_node19"><a xlink:title="Output: 75000000 rows in 1145 chunks filtered: 0, 12 ms 529 µs.">
<polygon fill="none" stroke="white" points="834.5,-737 721.5,-737 721.5,-683 834.5,-683 834.5,-737"/>
<text text-anchor="middle" x="778" y="-721.8" font-family="Times,serif" font-size="14.00" fill="white">Validate</text>
<text text-anchor="middle" x="778" y="-690.8" font-family="Times,serif" font-size="14.00" fill="white">12 ms 529 µs</text>
</a>
</g>
</g>
<!-- 127292668184080&#45;&gt;127132163510032 -->
<g id="edge19" class="edge">
<title>127292668184080&#45;&gt;127132163510032</title>
<path fill="none" stroke="white" stroke-width="4.58" d="M770.61,-737.26C767.03,-747.85 762.15,-759.92 756,-770 753.96,-773.33 751.69,-776.64 749.28,-779.89"/>
<polygon fill="white" stroke="white" stroke-width="4.58" points="749.25,-779.93 746.11,-777.44 743.05,-787.77 749.25,-779.93"/>
<text text-anchor="middle" x="883.5" y="-758.8" font-family="Times,serif" font-size="14.00" fill="white">75,000,000 row(s)/1,145 chunk(s)</text>
</g>
<!-- 127132163836112 -->
<g id="node20" class="node">
<title>127132163836112</title>
<g id="a_node20"><a xlink:title="Output: 75000000 rows in 1145 chunks filtered: 0, 5 ms 516 µs.">
<polygon fill="none" stroke="white" points="843.5,-632 712.5,-632 712.5,-518 843.5,-518 843.5,-632"/>
<text text-anchor="middle" x="778" y="-616.8" font-family="Times,serif" font-size="14.00" fill="white">GetTable</text>
<text text-anchor="middle" x="778" y="-601.8" font-family="Times,serif" font-size="14.00" fill="white">(orders)</text>
<text text-anchor="middle" x="778" y="-586.8" font-family="Times,serif" font-size="14.00" fill="white">pruned:</text>
<text text-anchor="middle" x="778" y="-571.8" font-family="Times,serif" font-size="14.00" fill="white">0/1145 chunk(s)</text>
<text text-anchor="middle" x="778" y="-556.8" font-family="Times,serif" font-size="14.00" fill="white">7/9 column(s)</text>
<text text-anchor="middle" x="778" y="-525.8" font-family="Times,serif" font-size="14.00" fill="white">5 ms 516 µs</text>
</a>
</g>
</g>
<!-- 127132163836112&#45;&gt;127292668184080 -->
<g id="edge20" class="edge">
<title>127132163836112&#45;&gt;127292668184080</title>
<path fill="none" stroke="white" stroke-width="4.58" d="M778,-632.02C778,-645.77 778,-660.14 778,-672.69"/>
<polygon fill="white" stroke="white" stroke-width="4.58" points="773.99,-672.75 778,-682.75 782.01,-672.75 773.99,-672.75"/>
<text text-anchor="middle" x="898.5" y="-653.8" font-family="Times,serif" font-size="14.00" fill="white">75,000,000 row(s)/1,145 chunk(s)</text>
</g>
<!-- 127132163510352 -->
<g id="node21" class="node">
<title>127132163510352</title>
<g id="a_node21"><a xlink:title="Output: 500000 rows in 8 chunks filtered: 0, 15 ms 837 µs.&#10;Operator step runtimes:&#10; BuildSideMaterializing 69 µs 159 ns&#10; ProbeSideMaterializing 841 µs 216 ns&#10; Clustering 0 ns&#10; Building 33 µs 655 ns&#10; Probing 6 ms 517 µs&#10; OutputWriting 8 ms 275 µs.&#10;Radix bits: 0.&#10;Build side is right.">
<polygon fill="none" stroke="white" points="1145.5,-857 938.5,-857 938.5,-788 1145.5,-788 1145.5,-857"/>
<text text-anchor="middle" x="1042" y="-841.8" font-family="Times,serif" font-size="14.00" fill="white">JoinHash (Inner)</text>
<text text-anchor="middle" x="1042" y="-826.8" font-family="Times,serif" font-size="14.00" fill="white">s_nationkey = n_nationkey</text>
<text text-anchor="middle" x="1042" y="-795.8" font-family="Times,serif" font-size="14.00" fill="white">15 ms 837 µs</text>
</a>
</g>
</g>
<!-- 127132163510352&#45;&gt;127132163510672 -->
<g id="edge21" class="edge">
<title>127132163510352&#45;&gt;127132163510672</title>
<path fill="none" stroke="white" d="M993.92,-857.11C975.27,-868.91 953.3,-881.36 932,-890 893.55,-905.6 849.37,-917.04 810.52,-925.12"/>
<polygon fill="white" stroke="white" points="800.25,-927.2 810.74,-928.65 810.05,-925.22 800.25,-927.2"/>
<text text-anchor="middle" x="1053.5" y="-878.8" font-family="Times,serif" font-size="14.00" fill="white">500,000 row(s)/8 chunk(s)</text>
</g>
<!-- 127292668184336 -->
<g id="node22" class="node">
<title>127292668184336</title>
<g id="a_node22"><a xlink:title="Output: 500000 rows in 8 chunks filtered: 0, 105 µs 124 ns.">
<polygon fill="none" stroke="white" points="1100.5,-737 983.5,-737 983.5,-683 1100.5,-683 1100.5,-737"/>
<text text-anchor="middle" x="1042" y="-721.8" font-family="Times,serif" font-size="14.00" fill="white">Validate</text>
<text text-anchor="middle" x="1042" y="-690.8" font-family="Times,serif" font-size="14.00" fill="white">105 µs 124 ns</text>
</a>
</g>
</g>
<!-- 127292668184336&#45;&gt;127132163510352 -->
<g id="edge22" class="edge">
<title>127292668184336&#45;&gt;127132163510352</title>
<path fill="none" stroke="white" d="M1042,-737.19C1042,-749.29 1042,-764 1042,-777.72"/>
<polygon fill="white" stroke="white" points="1042,-777.95 1038.5,-777.95 1042,-787.95 1042,-777.95"/>
<text text-anchor="middle" x="1135.5" y="-758.8" font-family="Times,serif" font-size="14.00" fill="white">500,000 row(s)/8 chunk(s)</text>
</g>
<!-- 127132163836560 -->
<g id="node23" class="node">
<title>127132163836560</title>
<g id="a_node23"><a xlink:title="Output: 500000 rows in 8 chunks filtered: 0, 74 µs 414 ns.">
<polygon fill="none" stroke="white" points="1098.5,-632 985.5,-632 985.5,-518 1098.5,-518 1098.5,-632"/>
<text text-anchor="middle" x="1042" y="-616.8" font-family="Times,serif" font-size="14.00" fill="white">GetTable</text>
<text text-anchor="middle" x="1042" y="-601.8" font-family="Times,serif" font-size="14.00" fill="white">(supplier)</text>
<text text-anchor="middle" x="1042" y="-586.8" font-family="Times,serif" font-size="14.00" fill="white">pruned:</text>
<text text-anchor="middle" x="1042" y="-571.8" font-family="Times,serif" font-size="14.00" fill="white">0/8 chunk(s)</text>
<text text-anchor="middle" x="1042" y="-556.8" font-family="Times,serif" font-size="14.00" fill="white">5/7 column(s)</text>
<text text-anchor="middle" x="1042" y="-525.8" font-family="Times,serif" font-size="14.00" fill="white">74 µs 414 ns</text>
</a>
</g>
</g>
<!-- 127132163836560&#45;&gt;127292668184336 -->
<g id="edge23" class="edge">
<title>127132163836560&#45;&gt;127292668184336</title>
<path fill="none" stroke="white" d="M1042,-632.02C1042,-645.77 1042,-660.14 1042,-672.69"/>
<polygon fill="white" stroke="white" points="1038.5,-672.75 1042,-682.75 1045.5,-672.75 1038.5,-672.75"/>
<text text-anchor="middle" x="1135.5" y="-653.8" font-family="Times,serif" font-size="14.00" fill="white">500,000 row(s)/8 chunk(s)</text>
</g>
<!-- 127292668184848 -->
<g id="node24" class="node">
<title>127292668184848</title>
<g id="a_node24"><a xlink:title="Output: 25 rows in 1 chunk filtered: 0, 56 µs 344 ns.">
<polygon fill="none" stroke="white" points="1306,-737 1198,-737 1198,-683 1306,-683 1306,-737"/>
<text text-anchor="middle" x="1252" y="-721.8" font-family="Times,serif" font-size="14.00" fill="white">Validate</text>
<text text-anchor="middle" x="1252" y="-690.8" font-family="Times,serif" font-size="14.00" fill="white">56 µs 344 ns</text>
</a>
</g>
</g>
<!-- 127292668184848&#45;&gt;127132163510352 -->
<g id="edge24" class="edge">
<title>127292668184848&#45;&gt;127132163510352</title>
<path fill="none" stroke="white" d="M1247.77,-737.26C1244.66,-748.75 1239.28,-761.52 1230,-770 1209.42,-788.81 1182.62,-800.85 1155.73,-808.52"/>
<polygon fill="white" stroke="white" points="1145.83,-811.16 1156.4,-811.97 1155.49,-808.59 1145.83,-811.16"/>
<text text-anchor="middle" x="1314.5" y="-758.8" font-family="Times,serif" font-size="14.00" fill="white">25 row(s)/1 chunk(s)</text>
</g>
<!-- 127132163837008 -->
<g id="node25" class="node">
<title>127132163837008</title>
<g id="a_node25"><a xlink:title="Output: 25 rows in 1 chunk filtered: 0, 60 µs 357 ns.">
<polygon fill="none" stroke="white" points="1308.5,-632 1195.5,-632 1195.5,-518 1308.5,-518 1308.5,-632"/>
<text text-anchor="middle" x="1252" y="-616.8" font-family="Times,serif" font-size="14.00" fill="white">GetTable</text>
<text text-anchor="middle" x="1252" y="-601.8" font-family="Times,serif" font-size="14.00" fill="white">(nation)</text>
<text text-anchor="middle" x="1252" y="-586.8" font-family="Times,serif" font-size="14.00" fill="white">pruned:</text>
<text text-anchor="middle" x="1252" y="-571.8" font-family="Times,serif" font-size="14.00" fill="white">0/1 chunk(s)</text>
<text text-anchor="middle" x="1252" y="-556.8" font-family="Times,serif" font-size="14.00" fill="white">2/4 column(s)</text>
<text text-anchor="middle" x="1252" y="-525.8" font-family="Times,serif" font-size="14.00" fill="white">60 µs 357 ns</text>
</a>
</g>
</g>
<!-- 127132163837008&#45;&gt;127292668184848 -->
<g id="edge25" class="edge">
<title>127132163837008&#45;&gt;127292668184848</title>
<path fill="none" stroke="white" d="M1252,-632.02C1252,-645.77 1252,-660.14 1252,-672.69"/>
<polygon fill="white" stroke="white" points="1248.5,-672.75 1252,-682.75 1255.5,-672.75 1248.5,-672.75"/>
<text text-anchor="middle" x="1325.5" y="-653.8" font-family="Times,serif" font-size="14.00" fill="white">25 row(s)/1 chunk(s)</text>
</g>
<!-- 0 -->
<g id="node26" class="node">
<title>0</title>
<polygon fill="none" stroke="white" points="645.5,-0.5 645.5,-166.5 966.5,-166.5 966.5,-0.5 645.5,-0.5"/>
<text text-anchor="middle" x="806" y="-151.3" font-family="Times,serif" font-size="14.00" fill="white">Total by operator</text>
<polyline fill="none" stroke="white" points="645.5,-143.5 966.5,-143.5 "/>
<text text-anchor="end" x="774.5" y="-128.3" font-family="Times,serif" font-size="14.00" fill="white">JoinHash </text>
<text text-anchor="end" x="774.5" y="-113.3" font-family="Times,serif" font-size="14.00" fill="white"> Projection </text>
<text text-anchor="end" x="774.5" y="-98.3" font-family="Times,serif" font-size="14.00" fill="white"> AggregateHash </text>
<text text-anchor="end" x="774.5" y="-83.3" font-family="Times,serif" font-size="14.00" fill="white"> TableScan </text>
<text text-anchor="end" x="774.5" y="-68.3" font-family="Times,serif" font-size="14.00" fill="white"> Validate </text>
<text text-anchor="end" x="774.5" y="-53.3" font-family="Times,serif" font-size="14.00" fill="white"> GetTable </text>
<text text-anchor="end" x="774.5" y="-38.3" font-family="Times,serif" font-size="14.00" fill="white"> Sort </text>
<text text-anchor="end" x="774.5" y="-23.3" font-family="Times,serif" font-size="14.00" fill="white"> Alias </text>
<text text-anchor="end" x="774.5" y="-8.3" font-family="Times,serif" font-size="14.00" fill="white">total</text>
<polyline fill="none" stroke="white" points="782.5,-0.5 782.5,-143.5 "/>
<text text-anchor="start" x="790.5" y="-128.3" font-family="Times,serif" font-size="14.00" fill="white">3 s 859 ms </text>
<text text-anchor="start" x="790.5" y="-113.3" font-family="Times,serif" font-size="14.00" fill="white"> 1 s 138 ms </text>
<text text-anchor="start" x="790.5" y="-98.3" font-family="Times,serif" font-size="14.00" fill="white"> 1 s 89 ms </text>
<text text-anchor="start" x="790.5" y="-83.3" font-family="Times,serif" font-size="14.00" fill="white"> 891 ms 118 µs </text>
<text text-anchor="start" x="790.5" y="-68.3" font-family="Times,serif" font-size="14.00" fill="white"> 38 ms 177 µs </text>
<text text-anchor="start" x="790.5" y="-53.3" font-family="Times,serif" font-size="14.00" fill="white"> 29 ms 368 µs </text>
<text text-anchor="start" x="790.5" y="-38.3" font-family="Times,serif" font-size="14.00" fill="white"> 174 µs 867 ns </text>
<text text-anchor="start" x="790.5" y="-23.3" font-family="Times,serif" font-size="14.00" fill="white"> 63 µs 728 ns </text>
<text text-anchor="start" x="790.5" y="-8.3" font-family="Times,serif" font-size="14.00" fill="white"> 7 s 45 ms </text>
<polyline fill="none" stroke="white" points="913.5,-0.5 913.5,-143.5 "/>
<text text-anchor="start" x="921.5" y="-128.3" font-family="Times,serif" font-size="14.00" fill="white">55 %</text>
<text text-anchor="start" x="921.5" y="-113.3" font-family="Times,serif" font-size="14.00" fill="white">16 %</text>
<text text-anchor="start" x="921.5" y="-98.3" font-family="Times,serif" font-size="14.00" fill="white">15 %</text>
<text text-anchor="start" x="921.5" y="-83.3" font-family="Times,serif" font-size="14.00" fill="white">13 %</text>
<text text-anchor="start" x="921.5" y="-68.3" font-family="Times,serif" font-size="14.00" fill="white">1 %</text>
<text text-anchor="start" x="921.5" y="-53.3" font-family="Times,serif" font-size="14.00" fill="white">0 %</text>
<text text-anchor="start" x="921.5" y="-38.3" font-family="Times,serif" font-size="14.00" fill="white">0 %</text>
<text text-anchor="start" x="921.5" y="-23.3" font-family="Times,serif" font-size="14.00" fill="white">0 %</text>
<text text-anchor="start" x="921.5" y="-8.3" font-family="Times,serif" font-size="14.00" fill="white"> </text>
</g>
</g>
</svg>
