<?xml version="1.0" encoding="UTF-8" standalone="no"?>
<!DOCTYPE svg PUBLIC "-//W3C//DTD SVG 1.1//EN"
 "http://www.w3.org/Graphics/SVG/1.1/DTD/svg11.dtd">
<!-- Generated by graphviz version 2.43.0 (0)
 -->
<!-- Title: G Pages: 1 -->
<svg width="1248pt" height="2549pt"
 viewBox="0.00 0.00 1247.50 2549.00" xmlns="http://www.w3.org/2000/svg" xmlns:xlink="http://www.w3.org/1999/xlink">
<g id="graph0" class="graph" transform="scale(1 1) rotate(0) translate(4 2545)">
<title>G</title>
<polygon fill="black" stroke="transparent" points="-4,4 -4,-2545 1243.5,-2545 1243.5,4 -4,4"/>
<text text-anchor="middle" x="319.5" y="-2525.8" font-family="Times,serif" font-size="14.00" fill="white">For tooltips with advanced information, hover your mouse over vertices or edge labels.</text>
<!-- 140287974607632 -->
<g id="node1" class="node">
<title>140287974607632</title>
<g id="a_node1"><a xlink:title="Output: 2 rows in 1 chunk, 5 µs 941 ns.">
<polygon fill="none" stroke="white" points="865,-2486 710,-2486 710,-2417 865,-2417 865,-2486"/>
<text text-anchor="middle" x="787.5" y="-2470.8" font-family="Times,serif" font-size="14.00" fill="white">Alias</text>
<text text-anchor="middle" x="787.5" y="-2455.8" font-family="Times,serif" font-size="14.00" fill="white">[o_year, mkt_share]</text>
<text text-anchor="middle" x="787.5" y="-2424.8" font-family="Times,serif" font-size="14.00" fill="white">5 µs 941 ns</text>
</a>
</g>
</g>
<!-- 140287974607312 -->
<g id="node2" class="node">
<title>140287974607312</title>
<g id="a_node2"><a xlink:title="Output: 2 rows in 1 chunk, 67 µs 378 ns.&#10;Operator step runtimes:&#10; ForwardUnmodifiedColumns 10 µs 967 ns&#10; EvaluateNewColumns 36 µs 293 ns&#10; BuildOutput 14 µs 457 ns.">
<polygon fill="none" stroke="white" points="841.5,-2366 733.5,-2366 733.5,-2312 841.5,-2312 841.5,-2366"/>
<text text-anchor="middle" x="787.5" y="-2350.8" font-family="Times,serif" font-size="14.00" fill="white">Projection</text>
<text text-anchor="middle" x="787.5" y="-2319.8" font-family="Times,serif" font-size="14.00" fill="white">67 µs 378 ns</text>
</a>
</g>
</g>
<!-- 140287974607312&#45;&gt;140287974607632 -->
<g id="edge1" class="edge">
<title>140287974607312&#45;&gt;140287974607632</title>
<path fill="none" stroke="white" d="M787.5,-2366.19C787.5,-2378.29 787.5,-2393 787.5,-2406.72"/>
<polygon fill="white" stroke="white" points="784,-2406.95 787.5,-2416.95 791,-2406.96 784,-2406.95"/>
<text text-anchor="middle" x="856.5" y="-2387.8" font-family="Times,serif" font-size="14.00" fill="white">2 row(s)/1 chunk(s)</text>
</g>
<!-- 140287974606992 -->
<g id="node3" class="node">
<title>140287974606992</title>
<g id="a_node3"><a xlink:title="Output: 2 rows in 1 chunk, 64 µs 914 ns.&#10;Operator step runtimes:&#10; MaterializeSortColumns 17 µs 557 ns&#10; Sort 8 µs 593 ns&#10; TemporaryResultWriting 631 ns&#10; WriteOutput 30 µs 465 ns.">
<polygon fill="none" stroke="white" points="841.5,-2261 733.5,-2261 733.5,-2207 841.5,-2207 841.5,-2261"/>
<text text-anchor="middle" x="787.5" y="-2245.8" font-family="Times,serif" font-size="14.00" fill="white">Sort</text>
<text text-anchor="middle" x="787.5" y="-2214.8" font-family="Times,serif" font-size="14.00" fill="white">64 µs 914 ns</text>
</a>
</g>
</g>
<!-- 140287974606992&#45;&gt;140287974607312 -->
<g id="edge2" class="edge">
<title>140287974606992&#45;&gt;140287974607312</title>
<path fill="none" stroke="white" d="M787.5,-2261.26C787.5,-2273.49 787.5,-2288.24 787.5,-2301.52"/>
<polygon fill="white" stroke="white" points="784,-2301.79 787.5,-2311.79 791,-2301.79 784,-2301.79"/>
<text text-anchor="middle" x="856.5" y="-2282.8" font-family="Times,serif" font-size="14.00" fill="white">2 row(s)/1 chunk(s)</text>
</g>
<!-- 140425472715792 -->
<g id="node4" class="node">
<title>140425472715792</title>
<g id="a_node4"><a xlink:title="Output: 2 rows in 1 chunk, 7 ms 732 µs.&#10;Operator step runtimes:&#10; GroupByKeyPartitioning 2 ms 716 µs&#10; Aggregating 4 ms 929 µs&#10; GroupByColumnsWriting 17 µs 692 ns&#10; AggregateColumnsWriting 31 µs 794 ns&#10; OutputWriting 17 µs 217 ns.">
<polygon fill="none" stroke="white" points="968,-2156 607,-2156 607,-2042 968,-2042 968,-2156"/>
<text text-anchor="middle" x="787.5" y="-2140.8" font-family="Times,serif" font-size="14.00" fill="white">AggregateHash</text>
<text text-anchor="middle" x="787.5" y="-2125.8" font-family="Times,serif" font-size="14.00" fill="white">GroupBy {SUBSTR(o_orderdate,1,4)}</text>
<text text-anchor="middle" x="787.5" y="-2110.8" font-family="Times,serif" font-size="14.00" fill="white">SUM(CASE WHEN n_name = &#39;BRAZIL&#39; THEN</text>
<text text-anchor="middle" x="787.5" y="-2095.8" font-family="Times,serif" font-size="14.00" fill="white">l_extendedprice * (1 &#45; l_discount) ELSE 0 END), </text>
<text text-anchor="middle" x="787.5" y="-2080.8" font-family="Times,serif" font-size="14.00" fill="white">SUM(l_extendedprice * (1 &#45; l_discount))</text>
<text text-anchor="middle" x="787.5" y="-2049.8" font-family="Times,serif" font-size="14.00" fill="white">7 ms 732 µs</text>
</a>
</g>
</g>
<!-- 140425472715792&#45;&gt;140287974606992 -->
<g id="edge3" class="edge">
<title>140425472715792&#45;&gt;140287974606992</title>
<path fill="none" stroke="white" d="M787.5,-2156.02C787.5,-2169.77 787.5,-2184.14 787.5,-2196.69"/>
<polygon fill="white" stroke="white" points="784,-2196.75 787.5,-2206.75 791,-2196.75 784,-2196.75"/>
<text text-anchor="middle" x="856.5" y="-2177.8" font-family="Times,serif" font-size="14.00" fill="white">2 row(s)/1 chunk(s)</text>
</g>
<!-- 140287974606672 -->
<g id="node5" class="node">
<title>140287974606672</title>
<g id="a_node5"><a xlink:title="Output: 243764 rows in 2 chunks, 6 ms 523 µs.&#10;Operator step runtimes:&#10; ForwardUnmodifiedColumns 15 µs 406 ns&#10; EvaluateNewColumns 6 ms 434 µs&#10; BuildOutput 61 µs 773 ns.">
<polygon fill="none" stroke="white" points="839.5,-1991 735.5,-1991 735.5,-1937 839.5,-1937 839.5,-1991"/>
<text text-anchor="middle" x="787.5" y="-1975.8" font-family="Times,serif" font-size="14.00" fill="white">Projection</text>
<text text-anchor="middle" x="787.5" y="-1944.8" font-family="Times,serif" font-size="14.00" fill="white">6 ms 523 µs</text>
</a>
</g>
</g>
<!-- 140287974606672&#45;&gt;140425472715792 -->
<g id="edge4" class="edge">
<title>140287974606672&#45;&gt;140425472715792</title>
<path fill="none" stroke="white" d="M787.5,-1991.28C787.5,-2002.91 787.5,-2017.18 787.5,-2031.45"/>
<polygon fill="white" stroke="white" points="784,-2031.8 787.5,-2041.8 791,-2031.8 784,-2031.8"/>
<text text-anchor="middle" x="881" y="-2012.8" font-family="Times,serif" font-size="14.00" fill="white">243,764 row(s)/2 chunk(s)</text>
</g>
<!-- 140287974606352 -->
<g id="node6" class="node">
<title>140287974606352</title>
<g id="a_node6"><a xlink:title="Output: 243764 rows in 2 chunks, 32 µs 791 ns.">
<polygon fill="none" stroke="white" points="881,-1886 694,-1886 694,-1817 881,-1817 881,-1886"/>
<text text-anchor="middle" x="787.5" y="-1870.8" font-family="Times,serif" font-size="14.00" fill="white">Alias</text>
<text text-anchor="middle" x="787.5" y="-1855.8" font-family="Times,serif" font-size="14.00" fill="white">[o_year, volume, nation]</text>
<text text-anchor="middle" x="787.5" y="-1824.8" font-family="Times,serif" font-size="14.00" fill="white">32 µs 791 ns</text>
</a>
</g>
</g>
<!-- 140287974606352&#45;&gt;140287974606672 -->
<g id="edge5" class="edge">
<title>140287974606352&#45;&gt;140287974606672</title>
<path fill="none" stroke="white" d="M787.5,-1886.25C787.5,-1899.07 787.5,-1913.73 787.5,-1926.77"/>
<polygon fill="white" stroke="white" points="784,-1926.81 787.5,-1936.81 791,-1926.81 784,-1926.81"/>
<text text-anchor="middle" x="881" y="-1907.8" font-family="Times,serif" font-size="14.00" fill="white">243,764 row(s)/2 chunk(s)</text>
</g>
<!-- 140287974606032 -->
<g id="node7" class="node">
<title>140287974606032</title>
<g id="a_node7"><a xlink:title="Output: 243764 rows in 2 chunks, 94 ms 820 µs.&#10;Operator step runtimes:&#10; ForwardUnmodifiedColumns 15 µs 654 ns&#10; EvaluateNewColumns 94 ms 721 µs&#10; BuildOutput 72 µs 992 ns.">
<polygon fill="none" stroke="white" stroke-width="4.74" points="844,-1766 731,-1766 731,-1712 844,-1712 844,-1766"/>
<text text-anchor="middle" x="787.5" y="-1750.8" font-family="Times,serif" font-size="14.00" fill="white">Projection</text>
<text text-anchor="middle" x="787.5" y="-1719.8" font-family="Times,serif" font-size="14.00" fill="white">94 ms 820 µs</text>
</a>
</g>
</g>
<!-- 140287974606032&#45;&gt;140287974606352 -->
<g id="edge6" class="edge">
<title>140287974606032&#45;&gt;140287974606352</title>
<path fill="none" stroke="white" d="M787.5,-1766.19C787.5,-1778.29 787.5,-1793 787.5,-1806.72"/>
<polygon fill="white" stroke="white" points="784,-1806.95 787.5,-1816.95 791,-1806.96 784,-1806.95"/>
<text text-anchor="middle" x="881" y="-1787.8" font-family="Times,serif" font-size="14.00" fill="white">243,764 row(s)/2 chunk(s)</text>
</g>
<!-- 140287974605712 -->
<g id="node8" class="node">
<title>140287974605712</title>
<g id="a_node8"><a xlink:title="Output: 243764 rows in 2 chunks, 6 ms 212 µs.&#10;Operator step runtimes:&#10; BuildSideMaterializing 21 µs 313 ns&#10; ProbeSideMaterializing 1 ms 216 µs&#10; Clustering 0 ns&#10; Building 17 µs 680 ns&#10; Probing 1 ms 716 µs&#10; OutputWriting 3 ms 217 µs.&#10;Radix bits: 0.&#10;Build side is right.">
<polygon fill="none" stroke="white" points="891,-1661 684,-1661 684,-1592 891,-1592 891,-1661"/>
<text text-anchor="middle" x="787.5" y="-1645.8" font-family="Times,serif" font-size="14.00" fill="white">JoinHash (Inner)</text>
<text text-anchor="middle" x="787.5" y="-1630.8" font-family="Times,serif" font-size="14.00" fill="white">s_nationkey = n_nationkey</text>
<text text-anchor="middle" x="787.5" y="-1599.8" font-family="Times,serif" font-size="14.00" fill="white">6 ms 212 µs</text>
</a>
</g>
</g>
<!-- 140287974605712&#45;&gt;140287974606032 -->
<g id="edge7" class="edge">
<title>140287974605712&#45;&gt;140287974606032</title>
<path fill="none" stroke="white" d="M787.5,-1661.25C787.5,-1674.07 787.5,-1688.73 787.5,-1701.77"/>
<polygon fill="white" stroke="white" points="784,-1701.81 787.5,-1711.81 791,-1701.81 784,-1701.81"/>
<text text-anchor="middle" x="881" y="-1682.8" font-family="Times,serif" font-size="14.00" fill="white">243,764 row(s)/2 chunk(s)</text>
</g>
<!-- 140287974605392 -->
<g id="node9" class="node">
<title>140287974605392</title>
<g id="a_node9"><a xlink:title="Output: 243764 rows in 2 chunks, 33 ms 481 µs.&#10;Operator step runtimes:&#10; BuildSideMaterializing 15 ms 199 µs&#10; ProbeSideMaterializing 672 µs 844 ns&#10; Clustering 2 ms 19 µs&#10; Building 7 ms 896 µs&#10; Probing 3 ms 993 µs&#10; OutputWriting 3 ms 633 µs.&#10;Radix bits: 1.&#10;Build side is right.">
<polygon fill="none" stroke="white" stroke-width="2.18" points="675.5,-1541 493.5,-1541 493.5,-1472 675.5,-1472 675.5,-1541"/>
<text text-anchor="middle" x="584.5" y="-1525.8" font-family="Times,serif" font-size="14.00" fill="white">JoinHash (Inner)</text>
<text text-anchor="middle" x="584.5" y="-1510.8" font-family="Times,serif" font-size="14.00" fill="white">s_suppkey = l_suppkey</text>
<text text-anchor="middle" x="584.5" y="-1479.8" font-family="Times,serif" font-size="14.00" fill="white">33 ms 481 µs</text>
</a>
</g>
</g>
<!-- 140287974605392&#45;&gt;140287974605712 -->
<g id="edge8" class="edge">
<title>140287974605392&#45;&gt;140287974605712</title>
<path fill="none" stroke="white" d="M642.4,-1541.16C666.83,-1555.35 695.41,-1571.97 720.72,-1586.68"/>
<polygon fill="white" stroke="white" points="720.88,-1586.77 719.12,-1589.8 729.52,-1591.8 720.88,-1586.77"/>
<text text-anchor="middle" x="791" y="-1562.8" font-family="Times,serif" font-size="14.00" fill="white">243,764 row(s)/2 chunk(s)</text>
</g>
<!-- 140288964459024 -->
<g id="node10" class="node">
<title>140288964459024</title>
<g id="a_node10"><a xlink:title="Output: 1000000 rows in 16 chunks, 185 µs 61 ns.">
<polygon fill="none" stroke="white" points="303.5,-1413.5 195.5,-1413.5 195.5,-1359.5 303.5,-1359.5 303.5,-1413.5"/>
<text text-anchor="middle" x="249.5" y="-1398.3" font-family="Times,serif" font-size="14.00" fill="white">Validate</text>
<text text-anchor="middle" x="249.5" y="-1367.3" font-family="Times,serif" font-size="14.00" fill="white">185 µs 61 ns</text>
</a>
</g>
</g>
<!-- 140288964459024&#45;&gt;140287974605392 -->
<g id="edge9" class="edge">
<title>140288964459024&#45;&gt;140287974605392</title>
<path fill="none" stroke="white" d="M290.45,-1413.59C313.29,-1427.2 342.67,-1443.23 370.5,-1454 406.33,-1467.87 447.03,-1478.79 483.24,-1486.94"/>
<polygon fill="white" stroke="white" points="483.56,-1487.01 482.81,-1490.43 493.33,-1489.16 483.56,-1487.01"/>
<text text-anchor="middle" x="475.5" y="-1442.8" font-family="Times,serif" font-size="14.00" fill="white">1,000,000 row(s)/16 chunk(s)</text>
</g>
<!-- 140287972241872 -->
<g id="node11" class="node">
<title>140287972241872</title>
<g id="a_node11"><a xlink:title="Output: 1000000 rows in 16 chunks, 78 µs 498 ns.">
<polygon fill="none" stroke="white" points="306,-1301 193,-1301 193,-1187 306,-1187 306,-1301"/>
<text text-anchor="middle" x="249.5" y="-1285.8" font-family="Times,serif" font-size="14.00" fill="white">GetTable</text>
<text text-anchor="middle" x="249.5" y="-1270.8" font-family="Times,serif" font-size="14.00" fill="white">(supplier)</text>
<text text-anchor="middle" x="249.5" y="-1255.8" font-family="Times,serif" font-size="14.00" fill="white">pruned:</text>
<text text-anchor="middle" x="249.5" y="-1240.8" font-family="Times,serif" font-size="14.00" fill="white">0/16 chunk(s)</text>
<text text-anchor="middle" x="249.5" y="-1225.8" font-family="Times,serif" font-size="14.00" fill="white">5/7 column(s)</text>
<text text-anchor="middle" x="249.5" y="-1194.8" font-family="Times,serif" font-size="14.00" fill="white">78 µs 498 ns</text>
</a>
</g>
</g>
<!-- 140287972241872&#45;&gt;140288964459024 -->
<g id="edge10" class="edge">
<title>140287972241872&#45;&gt;140288964459024</title>
<path fill="none" stroke="white" d="M249.5,-1301.34C249.5,-1317.43 249.5,-1334.54 249.5,-1349.1"/>
<polygon fill="white" stroke="white" points="246,-1349.2 249.5,-1359.2 253,-1349.2 246,-1349.2"/>
<text text-anchor="middle" x="354.5" y="-1322.8" font-family="Times,serif" font-size="14.00" fill="white">1,000,000 row(s)/16 chunk(s)</text>
</g>
<!-- 140287974605072 -->
<g id="node12" class="node">
<title>140287974605072</title>
<g id="a_node12"><a xlink:title="Output: 243764 rows in 8 chunks, 63 ms 202 µs.&#10;Operator step runtimes:&#10; BuildSideMaterializing 21 ms 391 µs&#10; ProbeSideMaterializing 3 ms 632 µs&#10; Clustering 2 ms 126 µs&#10; Building 17 ms 653 µs&#10; Probing 15 ms 187 µs&#10; OutputWriting 3 ms 97 µs.&#10;Radix bits: 3.&#10;Build side is right.">
<polygon fill="none" stroke="white" stroke-width="3.74" points="672.5,-1421 496.5,-1421 496.5,-1352 672.5,-1352 672.5,-1421"/>
<text text-anchor="middle" x="584.5" y="-1405.8" font-family="Times,serif" font-size="14.00" fill="white">JoinHash (Inner)</text>
<text text-anchor="middle" x="584.5" y="-1390.8" font-family="Times,serif" font-size="14.00" fill="white">c_custkey = o_custkey</text>
<text text-anchor="middle" x="584.5" y="-1359.8" font-family="Times,serif" font-size="14.00" fill="white">63 ms 202 µs</text>
</a>
</g>
</g>
<!-- 140287974605072&#45;&gt;140287974605392 -->
<g id="edge11" class="edge">
<title>140287974605072&#45;&gt;140287974605392</title>
<path fill="none" stroke="white" d="M584.5,-1421.31C584.5,-1433.78 584.5,-1448.1 584.5,-1461.34"/>
<polygon fill="white" stroke="white" points="584.5,-1471.68 588,-1461.68 584.5,-1461.68 584.5,-1471.68"/>
<text text-anchor="middle" x="678" y="-1442.8" font-family="Times,serif" font-size="14.00" fill="white">243,764 row(s)/8 chunk(s)</text>
</g>
<!-- 140288964458256 -->
<g id="node13" class="node">
<title>140288964458256</title>
<g id="a_node13"><a xlink:title="Output: 3001905 rows in 229 chunks, 562 µs 907 ns.">
<polygon fill="none" stroke="white" points="765,-1271 648,-1271 648,-1217 765,-1217 765,-1271"/>
<text text-anchor="middle" x="706.5" y="-1255.8" font-family="Times,serif" font-size="14.00" fill="white">Validate</text>
<text text-anchor="middle" x="706.5" y="-1224.8" font-family="Times,serif" font-size="14.00" fill="white">562 µs 907 ns</text>
</a>
</g>
</g>
<!-- 140288964458256&#45;&gt;140287974605072 -->
<g id="edge12" class="edge">
<title>140288964458256&#45;&gt;140287974605072</title>
<path fill="none" stroke="white" d="M705.67,-1271.28C703.82,-1290.46 698.61,-1316.14 684.5,-1334 681.25,-1338.11 677.59,-1341.92 673.63,-1345.45"/>
<polygon fill="white" stroke="white" points="673.45,-1345.6 671.24,-1342.89 665.69,-1351.91 673.45,-1345.6"/>
<text text-anchor="middle" x="803" y="-1322.8" font-family="Times,serif" font-size="14.00" fill="white">3,001,905 row(s)/229 chunk(s)</text>
</g>
<!-- 140287974603152 -->
<g id="node14" class="node">
<title>140287974603152</title>
<g id="a_node14"><a xlink:title="Output: 3001905 rows in 229 chunks, 7 ms 929 µs.&#10;Operator step runtimes:&#10; BuildSideMaterializing 88 µs 656 ns&#10; ProbeSideMaterializing 3 ms 988 µs&#10; Clustering 0 ns&#10; Building 16 µs 66 ns&#10; Probing 1 ms 498 µs&#10; OutputWriting 1 ms 100 µs.&#10;Radix bits: 0.&#10;Build side is right.">
<polygon fill="none" stroke="white" points="810,-1136 603,-1136 603,-1067 810,-1067 810,-1136"/>
<text text-anchor="middle" x="706.5" y="-1120.8" font-family="Times,serif" font-size="14.00" fill="white">JoinHash (Semi)</text>
<text text-anchor="middle" x="706.5" y="-1105.8" font-family="Times,serif" font-size="14.00" fill="white">c_nationkey = n_nationkey</text>
<text text-anchor="middle" x="706.5" y="-1074.8" font-family="Times,serif" font-size="14.00" fill="white">7 ms 929 µs</text>
</a>
</g>
</g>
<!-- 140287974603152&#45;&gt;140288964458256 -->
<g id="edge13" class="edge">
<title>140287974603152&#45;&gt;140288964458256</title>
<path fill="none" stroke="white" d="M706.5,-1136.15C706.5,-1157.36 706.5,-1184.75 706.5,-1206.48"/>
<polygon fill="white" stroke="white" points="703,-1206.65 706.5,-1216.65 710,-1206.65 703,-1206.65"/>
<text text-anchor="middle" x="816" y="-1157.8" font-family="Times,serif" font-size="14.00" fill="white">3,001,905 row(s)/229 chunk(s)</text>
</g>
<!-- 140287972242768 -->
<g id="node15" class="node">
<title>140287972242768</title>
<g id="a_node15"><a xlink:title="Output: 15000000 rows in 229 chunks, 626 µs 64 ns.">
<polygon fill="none" stroke="white" points="735.5,-1016 613.5,-1016 613.5,-902 735.5,-902 735.5,-1016"/>
<text text-anchor="middle" x="674.5" y="-1000.8" font-family="Times,serif" font-size="14.00" fill="white">GetTable</text>
<text text-anchor="middle" x="674.5" y="-985.8" font-family="Times,serif" font-size="14.00" fill="white">(customer)</text>
<text text-anchor="middle" x="674.5" y="-970.8" font-family="Times,serif" font-size="14.00" fill="white">pruned:</text>
<text text-anchor="middle" x="674.5" y="-955.8" font-family="Times,serif" font-size="14.00" fill="white">0/229 chunk(s)</text>
<text text-anchor="middle" x="674.5" y="-940.8" font-family="Times,serif" font-size="14.00" fill="white">6/8 column(s)</text>
<text text-anchor="middle" x="674.5" y="-909.8" font-family="Times,serif" font-size="14.00" fill="white">626 µs 64 ns</text>
</a>
</g>
</g>
<!-- 140287972242768&#45;&gt;140287974603152 -->
<g id="edge14" class="edge">
<title>140287972242768&#45;&gt;140287974603152</title>
<path fill="none" stroke="white" d="M670.64,-1016.2C671.13,-1027.22 672.55,-1038.59 675.5,-1049 676.3,-1051.82 677.3,-1054.65 678.45,-1057.44"/>
<polygon fill="white" stroke="white" points="678.57,-1057.7 675.4,-1059.19 682.82,-1066.75 678.57,-1057.7"/>
<text text-anchor="middle" x="789.5" y="-1037.8" font-family="Times,serif" font-size="14.00" fill="white">15,000,000 row(s)/229 chunk(s)</text>
</g>
<!-- 140288964460816 -->
<g id="node16" class="node">
<title>140288964460816</title>
<g id="a_node16"><a xlink:title="Output: 5 rows in 1 chunk, 10 µs 307 ns.">
<polygon fill="none" stroke="white" points="962.5,-986 854.5,-986 854.5,-932 962.5,-932 962.5,-986"/>
<text text-anchor="middle" x="908.5" y="-970.8" font-family="Times,serif" font-size="14.00" fill="white">Validate</text>
<text text-anchor="middle" x="908.5" y="-939.8" font-family="Times,serif" font-size="14.00" fill="white">10 µs 307 ns</text>
</a>
</g>
</g>
<!-- 140288964460816&#45;&gt;140287974603152 -->
<g id="edge15" class="edge">
<title>140288964460816&#45;&gt;140287974603152</title>
<path fill="none" stroke="white" d="M914.57,-986.29C917.43,-1005.75 917.61,-1031.75 903.5,-1049 891.87,-1063.22 857.19,-1074.39 820.11,-1082.63"/>
<polygon fill="white" stroke="white" points="810.13,-1084.77 820.64,-1086.1 819.91,-1082.68 810.13,-1084.77"/>
<text text-anchor="middle" x="980.5" y="-1037.8" font-family="Times,serif" font-size="14.00" fill="white">5 row(s)/1 chunk(s)</text>
</g>
<!-- 140287974602832 -->
<g id="node17" class="node">
<title>140287974602832</title>
<g id="a_node17"><a xlink:title="Output: 5 rows in 1 chunk, 151 µs 2 ns.&#10;Operator step runtimes:&#10; BuildSideMaterializing 44 µs 562 ns&#10; ProbeSideMaterializing 29 µs 844 ns&#10; Clustering 0 ns&#10; Building 11 µs 685 ns&#10; Probing 7 µs 353 ns&#10; OutputWriting 28 µs 806 ns.&#10;Radix bits: 0.&#10;Build side is right.">
<polygon fill="none" stroke="white" points="1003.5,-797 795.5,-797 795.5,-728 1003.5,-728 1003.5,-797"/>
<text text-anchor="middle" x="899.5" y="-781.8" font-family="Times,serif" font-size="14.00" fill="white">JoinHash (Semi)</text>
<text text-anchor="middle" x="899.5" y="-766.8" font-family="Times,serif" font-size="14.00" fill="white">n_regionkey = r_regionkey</text>
<text text-anchor="middle" x="899.5" y="-735.8" font-family="Times,serif" font-size="14.00" fill="white">151 µs 2 ns</text>
</a>
</g>
</g>
<!-- 140287974602832&#45;&gt;140288964460816 -->
<g id="edge16" class="edge">
<title>140287974602832&#45;&gt;140288964460816</title>
<path fill="none" stroke="white" d="M897.07,-797.31C896.43,-807.78 895.82,-819.36 895.5,-830 894.78,-853.99 893.42,-860.09 895.5,-884 896.58,-896.36 898.65,-909.76 900.83,-921.71"/>
<polygon fill="white" stroke="white" points="897.44,-922.61 902.75,-931.78 904.31,-921.3 897.44,-922.61"/>
<text text-anchor="middle" x="964.5" y="-853.3" font-family="Times,serif" font-size="14.00" fill="white">5 row(s)/1 chunk(s)</text>
</g>
<!-- 140287972242320 -->
<g id="node18" class="node">
<title>140287972242320</title>
<g id="a_node18"><a xlink:title="Output: 25 rows in 1 chunk, 43 µs 186 ns.">
<polygon fill="none" stroke="white" points="1068,-662 955,-662 955,-548 1068,-548 1068,-662"/>
<text text-anchor="middle" x="1011.5" y="-646.8" font-family="Times,serif" font-size="14.00" fill="white">GetTable</text>
<text text-anchor="middle" x="1011.5" y="-631.8" font-family="Times,serif" font-size="14.00" fill="white">(nation)</text>
<text text-anchor="middle" x="1011.5" y="-616.8" font-family="Times,serif" font-size="14.00" fill="white">pruned:</text>
<text text-anchor="middle" x="1011.5" y="-601.8" font-family="Times,serif" font-size="14.00" fill="white">0/1 chunk(s)</text>
<text text-anchor="middle" x="1011.5" y="-586.8" font-family="Times,serif" font-size="14.00" fill="white">1/4 column(s)</text>
<text text-anchor="middle" x="1011.5" y="-555.8" font-family="Times,serif" font-size="14.00" fill="white">43 µs 186 ns</text>
</a>
</g>
</g>
<!-- 140287972242320&#45;&gt;140287974602832 -->
<g id="edge17" class="edge">
<title>140287972242320&#45;&gt;140287974602832</title>
<path fill="none" stroke="white" d="M954.89,-648.52C944.78,-658.04 935.07,-668.69 927.5,-680 919.81,-691.49 914.02,-705.31 909.76,-718.28"/>
<polygon fill="white" stroke="white" points="909.72,-718.41 906.38,-717.39 906.8,-727.98 909.72,-718.41"/>
<text text-anchor="middle" x="1001" y="-683.8" font-family="Times,serif" font-size="14.00" fill="white">25 row(s)/1 chunk(s)</text>
</g>
<!-- 140288964460048 -->
<g id="node33" class="node">
<title>140288964460048</title>
<g id="a_node33"><a xlink:title="Output: 25 rows in 1 chunk, 23 µs 537 ns.">
<polygon fill="none" stroke="white" points="1150.5,-884 1042.5,-884 1042.5,-830 1150.5,-830 1150.5,-884"/>
<text text-anchor="middle" x="1096.5" y="-868.8" font-family="Times,serif" font-size="14.00" fill="white">Validate</text>
<text text-anchor="middle" x="1096.5" y="-837.8" font-family="Times,serif" font-size="14.00" fill="white">23 µs 537 ns</text>
</a>
</g>
</g>
<!-- 140287972242320&#45;&gt;140288964460048 -->
<g id="edge18" class="edge">
<title>140287972242320&#45;&gt;140288964460048</title>
<path fill="none" stroke="white" d="M1064.84,-662.39C1068.54,-668.07 1071.85,-673.98 1074.5,-680 1094.38,-725.14 1097.99,-782.7 1097.92,-819.46"/>
<polygon fill="white" stroke="white" points="1094.41,-819.67 1097.8,-829.71 1101.41,-819.75 1094.41,-819.67"/>
<text text-anchor="middle" x="1153" y="-683.8" font-family="Times,serif" font-size="14.00" fill="white">25 row(s)/1 chunk(s)</text>
</g>
<!-- 140288964493072 -->
<g id="node19" class="node">
<title>140288964493072</title>
<g id="a_node19"><a xlink:title="Output: 1 row in 1 chunk, 6 µs 449 ns.">
<polygon fill="none" stroke="white" points="815,-632 716,-632 716,-578 815,-578 815,-632"/>
<text text-anchor="middle" x="765.5" y="-616.8" font-family="Times,serif" font-size="14.00" fill="white">Validate</text>
<text text-anchor="middle" x="765.5" y="-585.8" font-family="Times,serif" font-size="14.00" fill="white">6 µs 449 ns</text>
</a>
</g>
</g>
<!-- 140288964493072&#45;&gt;140287974602832 -->
<g id="edge19" class="edge">
<title>140288964493072&#45;&gt;140287974602832</title>
<path fill="none" stroke="white" d="M762.69,-632.37C762.01,-651.36 764.03,-676.74 776.5,-695 783.63,-705.44 792.95,-714.39 803.27,-722.01"/>
<polygon fill="white" stroke="white" points="811.74,-727.85 805.49,-719.29 803.51,-722.17 811.74,-727.85"/>
<text text-anchor="middle" x="845.5" y="-683.8" font-family="Times,serif" font-size="14.00" fill="white">1 row(s)/1 chunk(s)</text>
</g>
<!-- 140287974602512 -->
<g id="node20" class="node">
<title>140287974602512</title>
<g id="a_node20"><a xlink:title="Output: 1 row in 1 chunk, 44 µs 371 ns.&#10;Chunks: 0 skipped with no results, &#10;0 skipped with all matching, 0 scanned using binary search.">
<polygon fill="none" stroke="white" points="850,-482 681,-482 681,-398 850,-398 850,-482"/>
<text text-anchor="middle" x="765.5" y="-466.8" font-family="Times,serif" font-size="14.00" fill="white">TableScan</text>
<text text-anchor="middle" x="765.5" y="-451.8" font-family="Times,serif" font-size="14.00" fill="white">Impl: ColumnVsValue</text>
<text text-anchor="middle" x="765.5" y="-436.8" font-family="Times,serif" font-size="14.00" fill="white">r_name = &#39;AMERICA&#39;</text>
<text text-anchor="middle" x="765.5" y="-405.8" font-family="Times,serif" font-size="14.00" fill="white">44 µs 371 ns</text>
</a>
</g>
</g>
<!-- 140287974602512&#45;&gt;140288964493072 -->
<g id="edge20" class="edge">
<title>140287974602512&#45;&gt;140288964493072</title>
<path fill="none" stroke="white" d="M765.5,-482.13C765.5,-508.37 765.5,-542.09 765.5,-567.4"/>
<polygon fill="white" stroke="white" points="762,-567.69 765.5,-577.69 769,-567.69 762,-567.69"/>
<text text-anchor="middle" x="834.5" y="-518.8" font-family="Times,serif" font-size="14.00" fill="white">1 row(s)/1 chunk(s)</text>
</g>
<!-- 140287972243216 -->
<g id="node21" class="node">
<title>140287972243216</title>
<g id="a_node21"><a xlink:title="Output: 5 rows in 1 chunk, 20 µs 537 ns.">
<polygon fill="none" stroke="white" points="822,-332 709,-332 709,-218 822,-218 822,-332"/>
<text text-anchor="middle" x="765.5" y="-316.8" font-family="Times,serif" font-size="14.00" fill="white">GetTable</text>
<text text-anchor="middle" x="765.5" y="-301.8" font-family="Times,serif" font-size="14.00" fill="white">(region)</text>
<text text-anchor="middle" x="765.5" y="-286.8" font-family="Times,serif" font-size="14.00" fill="white">pruned:</text>
<text text-anchor="middle" x="765.5" y="-271.8" font-family="Times,serif" font-size="14.00" fill="white">0/1 chunk(s)</text>
<text text-anchor="middle" x="765.5" y="-256.8" font-family="Times,serif" font-size="14.00" fill="white">1/3 column(s)</text>
<text text-anchor="middle" x="765.5" y="-225.8" font-family="Times,serif" font-size="14.00" fill="white">20 µs 537 ns</text>
</a>
</g>
</g>
<!-- 140287972243216&#45;&gt;140287974602512 -->
<g id="edge21" class="edge">
<title>140287972243216&#45;&gt;140287974602512</title>
<path fill="none" stroke="white" d="M765.5,-332.1C765.5,-350.19 765.5,-370.13 765.5,-387.85"/>
<polygon fill="white" stroke="white" points="762,-387.99 765.5,-397.99 769,-387.99 762,-387.99"/>
<text text-anchor="middle" x="834.5" y="-353.8" font-family="Times,serif" font-size="14.00" fill="white">5 row(s)/1 chunk(s)</text>
</g>
<!-- 140287974604752 -->
<g id="node22" class="node">
<title>140287974604752</title>
<g id="a_node22"><a xlink:title="Output: 1218027 rows in 8 chunks, 159 ms 733 µs.&#10;Operator step runtimes:&#10; BuildSideMaterializing 37 ms 343 µs&#10; ProbeSideMaterializing 55 ms 419 µs&#10; Clustering 17 ms 208 µs&#10; Building 16 ms 134 µs&#10; Probing 22 ms 6 µs&#10; OutputWriting 11 ms 470 µs.&#10;Radix bits: 3.&#10;Build side is left.">
<polygon fill="none" stroke="white" stroke-width="6.03" points="546,-1278.5 355,-1278.5 355,-1209.5 546,-1209.5 546,-1278.5"/>
<text text-anchor="middle" x="450.5" y="-1263.3" font-family="Times,serif" font-size="14.00" fill="white">JoinHash (Inner)</text>
<text text-anchor="middle" x="450.5" y="-1248.3" font-family="Times,serif" font-size="14.00" fill="white">o_orderkey = l_orderkey</text>
<text text-anchor="middle" x="450.5" y="-1217.3" font-family="Times,serif" font-size="14.00" fill="white">159 ms 733 µs</text>
</a>
</g>
</g>
<!-- 140287974604752&#45;&gt;140287974605072 -->
<g id="edge22" class="edge">
<title>140287974604752&#45;&gt;140287974605072</title>
<path fill="none" stroke="white" d="M454.96,-1278.58C458.84,-1296.74 466.08,-1318.54 479.5,-1334 483.16,-1338.22 487.25,-1342.12 491.62,-1345.73"/>
<polygon fill="white" stroke="white" points="499.79,-1351.92 493.93,-1343.09 491.82,-1345.88 499.79,-1351.92"/>
<text text-anchor="middle" x="580" y="-1322.8" font-family="Times,serif" font-size="14.00" fill="white">1,218,027 row(s)/8 chunk(s)</text>
</g>
<!-- 140288964459280 -->
<g id="node23" class="node">
<title>140288964459280</title>
<g id="a_node23"><a xlink:title="Output: 1201886 rows in 8 chunks, 2 ms 255 µs.">
<polygon fill="none" stroke="white" points="502.5,-1128.5 398.5,-1128.5 398.5,-1074.5 502.5,-1074.5 502.5,-1128.5"/>
<text text-anchor="middle" x="450.5" y="-1113.3" font-family="Times,serif" font-size="14.00" fill="white">Validate</text>
<text text-anchor="middle" x="450.5" y="-1082.3" font-family="Times,serif" font-size="14.00" fill="white">2 ms 255 µs</text>
</a>
</g>
</g>
<!-- 140288964459280&#45;&gt;140287974604752 -->
<g id="edge23" class="edge">
<title>140288964459280&#45;&gt;140287974604752</title>
<path fill="none" stroke="white" d="M450.5,-1128.6C450.5,-1148.35 450.5,-1175.93 450.5,-1199.06"/>
<polygon fill="white" stroke="white" points="450.5,-1199.33 447,-1199.33 450.5,-1209.33 450.5,-1199.33"/>
<text text-anchor="middle" x="551" y="-1157.8" font-family="Times,serif" font-size="14.00" fill="white">1,201,886 row(s)/8 chunk(s)</text>
</g>
<!-- 140287974604432 -->
<g id="node24" class="node">
<title>140287974604432</title>
<g id="a_node24"><a xlink:title="Output: 1201886 rows in 8 chunks, 337 ms 88 µs.&#10;Operator step runtimes:&#10; BuildSideMaterializing 55 ms 245 µs&#10; ProbeSideMaterializing 36 ms 412 µs&#10; Clustering 56 ms 922 µs&#10; Building 33 ms 925 µs&#10; Probing 141 ms 416 µs&#10; OutputWriting 12 ms 969 µs.&#10;Radix bits: 5.&#10;Build side is right.">
<polygon fill="none" stroke="white" stroke-width="7.87" points="554.5,-993.5 346.5,-993.5 346.5,-924.5 554.5,-924.5 554.5,-993.5"/>
<text text-anchor="middle" x="450.5" y="-978.3" font-family="Times,serif" font-size="14.00" fill="white">JoinHash (Semi Reduction)</text>
<text text-anchor="middle" x="450.5" y="-963.3" font-family="Times,serif" font-size="14.00" fill="white">o_orderkey = l_orderkey</text>
<text text-anchor="middle" x="450.5" y="-932.3" font-family="Times,serif" font-size="14.00" fill="white">337 ms 88 µs</text>
</a>
</g>
</g>
<!-- 140287974604432&#45;&gt;140288964459280 -->
<g id="edge24" class="edge">
<title>140287974604432&#45;&gt;140288964459280</title>
<path fill="none" stroke="white" d="M450.5,-993.65C450.5,-1014.86 450.5,-1042.25 450.5,-1063.98"/>
<polygon fill="white" stroke="white" points="447,-1064.15 450.5,-1074.15 454,-1064.15 447,-1064.15"/>
<text text-anchor="middle" x="551" y="-1037.8" font-family="Times,serif" font-size="14.00" fill="white">1,201,886 row(s)/8 chunk(s)</text>
</g>
<!-- 140287974603472 -->
<g id="node25" class="node">
<title>140287974603472</title>
<g id="a_node25"><a xlink:title="Output: 45574624 rows in 2289 chunks, 22 ms 276 µs.&#10;Chunks: 0 skipped with no results, &#10;0 skipped with all matching, 0 scanned using binary search.">
<polygon fill="none" stroke="white" stroke-width="1.17" points="684.5,-812 282.5,-812 282.5,-713 684.5,-713 684.5,-812"/>
<text text-anchor="middle" x="483.5" y="-796.8" font-family="Times,serif" font-size="14.00" fill="white">TableScan</text>
<text text-anchor="middle" x="483.5" y="-781.8" font-family="Times,serif" font-size="14.00" fill="white">Impl: ColumnBetween</text>
<text text-anchor="middle" x="483.5" y="-766.8" font-family="Times,serif" font-size="14.00" fill="white">o_orderdate BETWEEN INCLUSIVE &#39;1995&#45;01&#45;01&#39; AND</text>
<text text-anchor="middle" x="483.5" y="-751.8" font-family="Times,serif" font-size="14.00" fill="white">&#39;1996&#45;12&#45;31&#39;</text>
<text text-anchor="middle" x="483.5" y="-720.8" font-family="Times,serif" font-size="14.00" fill="white">22 ms 276 µs</text>
</a>
</g>
</g>
<!-- 140287974603472&#45;&gt;140287974604432 -->
<g id="edge25" class="edge">
<title>140287974603472&#45;&gt;140287974604432</title>
<path fill="none" stroke="white" stroke-width="1.64" d="M475.26,-812.08C469.92,-843.52 463.04,-884.1 457.88,-914.48"/>
<polygon fill="white" stroke="white" stroke-width="1.64" points="457.88,-914.51 454.43,-913.92 456.21,-924.37 457.88,-914.51"/>
<text text-anchor="middle" x="592" y="-853.3" font-family="Times,serif" font-size="14.00" fill="white">45,574,624 row(s)/2,289 chunk(s)</text>
</g>
<!-- 140287972243664 -->
<g id="node26" class="node">
<title>140287972243664</title>
<g id="a_node26"><a xlink:title="Output: 150000000 rows in 2289 chunks, 9 ms 362 µs.">
<polygon fill="none" stroke="white" points="549,-662 418,-662 418,-548 549,-548 549,-662"/>
<text text-anchor="middle" x="483.5" y="-646.8" font-family="Times,serif" font-size="14.00" fill="white">GetTable</text>
<text text-anchor="middle" x="483.5" y="-631.8" font-family="Times,serif" font-size="14.00" fill="white">(orders)</text>
<text text-anchor="middle" x="483.5" y="-616.8" font-family="Times,serif" font-size="14.00" fill="white">pruned:</text>
<text text-anchor="middle" x="483.5" y="-601.8" font-family="Times,serif" font-size="14.00" fill="white">0/2289 chunk(s)</text>
<text text-anchor="middle" x="483.5" y="-586.8" font-family="Times,serif" font-size="14.00" fill="white">6/9 column(s)</text>
<text text-anchor="middle" x="483.5" y="-555.8" font-family="Times,serif" font-size="14.00" fill="white">9 ms 362 µs</text>
</a>
</g>
</g>
<!-- 140287972243664&#45;&gt;140287974603472 -->
<g id="edge26" class="edge">
<title>140287972243664&#45;&gt;140287974603472</title>
<path fill="none" stroke="white" stroke-width="4.58" d="M483.5,-662.14C483.5,-675.38 483.5,-689.53 483.5,-702.88"/>
<polygon fill="white" stroke="white" stroke-width="4.58" points="479.49,-702.9 483.5,-712.9 487.51,-702.9 479.49,-702.9"/>
<text text-anchor="middle" x="608.5" y="-683.8" font-family="Times,serif" font-size="14.00" fill="white">150,000,000 row(s)/2,289 chunk(s)</text>
</g>
<!-- 140288964458512 -->
<g id="node27" class="node">
<title>140288964458512</title>
<g id="a_node27"><a xlink:title="Output: 4006525 rows in 4583 chunks, 25 ms 173 µs.">
<polygon fill="none" stroke="white" stroke-width="1.47" points="258,-789.5 145,-789.5 145,-735.5 258,-735.5 258,-789.5"/>
<text text-anchor="middle" x="201.5" y="-774.3" font-family="Times,serif" font-size="14.00" fill="white">Validate</text>
<text text-anchor="middle" x="201.5" y="-743.3" font-family="Times,serif" font-size="14.00" fill="white">25 ms 173 µs</text>
</a>
</g>
</g>
<!-- 140288964458512&#45;&gt;140287974604752 -->
<g id="edge28" class="edge">
<title>140288964458512&#45;&gt;140287974604752</title>
<path fill="none" stroke="white" d="M195.99,-789.67C186.32,-842.12 171.19,-962.48 214.5,-1049 249.04,-1117.99 320.53,-1171.22 375.82,-1204.32"/>
<polygon fill="white" stroke="white" points="384.55,-1209.46 377.71,-1201.37 375.93,-1204.38 384.55,-1209.46"/>
<text text-anchor="middle" x="330.5" y="-1037.8" font-family="Times,serif" font-size="14.00" fill="white">4,006,525 row(s)/4,583 chunk(s)</text>
</g>
<!-- 140288964458512&#45;&gt;140287974604432 -->
<g id="edge27" class="edge">
<title>140288964458512&#45;&gt;140287974604432</title>
<path fill="none" stroke="white" d="M203.89,-789.75C207.23,-820.89 214.31,-870.33 226.5,-884 254.64,-915.56 296.51,-933.7 336.46,-944.11"/>
<polygon fill="white" stroke="white" points="346.3,-946.53 337.42,-940.74 336.59,-944.14 346.3,-946.53"/>
<text text-anchor="middle" x="342.5" y="-853.3" font-family="Times,serif" font-size="14.00" fill="white">4,006,525 row(s)/4,583 chunk(s)</text>
</g>
<!-- 140287974604112 -->
<g id="node28" class="node">
<title>140287974604112</title>
<g id="a_node28"><a xlink:title="Output: 4006525 rows in 4583 chunks, 355 ms 135 µs.&#10;Operator step runtimes:&#10; BuildSideMaterializing 12 ms 976 µs&#10; ProbeSideMaterializing 199 ms 866 µs&#10; Clustering 0 ns&#10; Building 2 ms 224 µs&#10; Probing 52 ms 353 µs&#10; OutputWriting 59 ms 606 µs.&#10;Radix bits: 0.&#10;Build side is right.">
<polygon fill="none" stroke="white" stroke-width="8" points="288.5,-639.5 114.5,-639.5 114.5,-570.5 288.5,-570.5 288.5,-639.5"/>
<text text-anchor="middle" x="201.5" y="-624.3" font-family="Times,serif" font-size="14.00" fill="white">JoinHash (Semi)</text>
<text text-anchor="middle" x="201.5" y="-609.3" font-family="Times,serif" font-size="14.00" fill="white">l_partkey = p_partkey</text>
<text text-anchor="middle" x="201.5" y="-578.3" font-family="Times,serif" font-size="14.00" fill="white">355 ms 135 µs</text>
</a>
</g>
</g>
<!-- 140287974604112&#45;&gt;140288964458512 -->
<g id="edge29" class="edge">
<title>140287974604112&#45;&gt;140288964458512</title>
<path fill="none" stroke="white" d="M201.5,-639.74C201.5,-664.86 201.5,-699.13 201.5,-724.91"/>
<polygon fill="white" stroke="white" points="198,-725.03 201.5,-735.03 205,-725.03 198,-725.03"/>
<text text-anchor="middle" x="317.5" y="-683.8" font-family="Times,serif" font-size="14.00" fill="white">4,006,525 row(s)/4,583 chunk(s)</text>
</g>
<!-- 140287972244112 -->
<g id="node29" class="node">
<title>140287972244112</title>
<g id="a_node29"><a xlink:title="Output: 600037902 rows in 9156 chunks, 37 ms 590 µs.">
<polygon fill="none" stroke="white" stroke-width="2.46" points="131,-497 0,-497 0,-383 131,-383 131,-497"/>
<text text-anchor="middle" x="65.5" y="-481.8" font-family="Times,serif" font-size="14.00" fill="white">GetTable</text>
<text text-anchor="middle" x="65.5" y="-466.8" font-family="Times,serif" font-size="14.00" fill="white">(lineitem)</text>
<text text-anchor="middle" x="65.5" y="-451.8" font-family="Times,serif" font-size="14.00" fill="white">pruned:</text>
<text text-anchor="middle" x="65.5" y="-436.8" font-family="Times,serif" font-size="14.00" fill="white">0/9156 chunk(s)</text>
<text text-anchor="middle" x="65.5" y="-421.8" font-family="Times,serif" font-size="14.00" fill="white">11/16 column(s)</text>
<text text-anchor="middle" x="65.5" y="-390.8" font-family="Times,serif" font-size="14.00" fill="white">37 ms 590 µs</text>
</a>
</g>
</g>
<!-- 140287972244112&#45;&gt;140287974604112 -->
<g id="edge30" class="edge">
<title>140287972244112&#45;&gt;140287974604112</title>
<path fill="none" stroke="white" stroke-width="8" d="M57.38,-497.12C58.05,-508.62 60.62,-520.19 66.5,-530 75.95,-545.76 90.07,-558.39 105.66,-568.44"/>
<polygon fill="white" stroke="white" stroke-width="8" points="105.9,-568.59 102.28,-574.58 114.45,-573.76 105.9,-568.59"/>
<text text-anchor="middle" x="191.5" y="-518.8" font-family="Times,serif" font-size="14.00" fill="white">600,037,902 row(s)/9,156 chunk(s)</text>
</g>
<!-- 140287975490320 -->
<g id="node30" class="node">
<title>140287975490320</title>
<g id="a_node30"><a xlink:title="Output: 133580 rows in 306 chunks, 761 µs 978 ns.">
<polygon fill="none" stroke="white" points="397,-467 280,-467 280,-413 397,-413 397,-467"/>
<text text-anchor="middle" x="338.5" y="-451.8" font-family="Times,serif" font-size="14.00" fill="white">Validate</text>
<text text-anchor="middle" x="338.5" y="-420.8" font-family="Times,serif" font-size="14.00" fill="white">761 µs 978 ns</text>
</a>
</g>
</g>
<!-- 140287975490320&#45;&gt;140287974604112 -->
<g id="edge31" class="edge">
<title>140287975490320&#45;&gt;140287974604112</title>
<path fill="none" stroke="white" d="M337.12,-467.29C334.98,-486.24 329.64,-511.61 316.5,-530 306.95,-543.35 294.17,-554.89 280.6,-564.62"/>
<polygon fill="white" stroke="white" points="272.07,-570.45 282.3,-567.7 280.33,-564.81 272.07,-570.45"/>
<text text-anchor="middle" x="427" y="-518.8" font-family="Times,serif" font-size="14.00" fill="white">133,580 row(s)/306 chunk(s)</text>
</g>
<!-- 140287974603792 -->
<g id="node31" class="node">
<title>140287974603792</title>
<g id="a_node31"><a xlink:title="Output: 133580 rows in 306 chunks, 4 ms 187 µs.&#10;Chunks: 0 skipped with no results, &#10;0 skipped with all matching, 0 scanned using binary search.">
<polygon fill="none" stroke="white" points="475,-317 202,-317 202,-233 475,-233 475,-317"/>
<text text-anchor="middle" x="338.5" y="-301.8" font-family="Times,serif" font-size="14.00" fill="white">TableScan</text>
<text text-anchor="middle" x="338.5" y="-286.8" font-family="Times,serif" font-size="14.00" fill="white">Impl: ColumnVsValue</text>
<text text-anchor="middle" x="338.5" y="-271.8" font-family="Times,serif" font-size="14.00" fill="white">p_type = &#39;SMALL BURNISHED TIN&#39;</text>
<text text-anchor="middle" x="338.5" y="-240.8" font-family="Times,serif" font-size="14.00" fill="white">4 ms 187 µs</text>
</a>
</g>
</g>
<!-- 140287974603792&#45;&gt;140287975490320 -->
<g id="edge32" class="edge">
<title>140287974603792&#45;&gt;140287975490320</title>
<path fill="none" stroke="white" d="M338.5,-317.13C338.5,-343.37 338.5,-377.09 338.5,-402.4"/>
<polygon fill="white" stroke="white" points="335,-402.69 338.5,-412.69 342,-402.69 335,-402.69"/>
<text text-anchor="middle" x="441" y="-353.8" font-family="Times,serif" font-size="14.00" fill="white">133,580 row(s)/306 chunk(s)</text>
</g>
<!-- 140287972244560 -->
<g id="node32" class="node">
<title>140287972244560</title>
<g id="a_node32"><a xlink:title="Output: 20000000 rows in 306 chunks, 777 µs 127 ns.">
<polygon fill="none" stroke="white" points="399.5,-140.5 277.5,-140.5 277.5,-26.5 399.5,-26.5 399.5,-140.5"/>
<text text-anchor="middle" x="338.5" y="-125.3" font-family="Times,serif" font-size="14.00" fill="white">GetTable</text>
<text text-anchor="middle" x="338.5" y="-110.3" font-family="Times,serif" font-size="14.00" fill="white">(part)</text>
<text text-anchor="middle" x="338.5" y="-95.3" font-family="Times,serif" font-size="14.00" fill="white">pruned:</text>
<text text-anchor="middle" x="338.5" y="-80.3" font-family="Times,serif" font-size="14.00" fill="white">0/306 chunk(s)</text>
<text text-anchor="middle" x="338.5" y="-65.3" font-family="Times,serif" font-size="14.00" fill="white">7/9 column(s)</text>
<text text-anchor="middle" x="338.5" y="-34.3" font-family="Times,serif" font-size="14.00" fill="white">777 µs 127 ns</text>
</a>
</g>
</g>
<!-- 140287972244560&#45;&gt;140287974603792 -->
<g id="edge33" class="edge">
<title>140287972244560&#45;&gt;140287974603792</title>
<path fill="none" stroke="white" d="M338.5,-140.59C338.5,-166.58 338.5,-197.26 338.5,-222.65"/>
<polygon fill="white" stroke="white" points="335,-222.81 338.5,-232.81 342,-222.81 335,-222.81"/>
<text text-anchor="middle" x="452.5" y="-188.8" font-family="Times,serif" font-size="14.00" fill="white">20,000,000 row(s)/306 chunk(s)</text>
</g>
<!-- 140288964460048&#45;&gt;140287974605712 -->
<g id="edge34" class="edge">
<title>140288964460048&#45;&gt;140287974605712</title>
<path fill="none" stroke="white" d="M1095.56,-884.29C1094.38,-919.75 1092.5,-984.88 1092.5,-1040.5 1092.5,-1040.5 1092.5,-1040.5 1092.5,-1507.5 1092.5,-1550.07 987.83,-1583.26 901.12,-1603.45"/>
<polygon fill="white" stroke="white" points="891.18,-1605.73 901.71,-1606.91 900.93,-1603.49 891.18,-1605.73"/>
<text text-anchor="middle" x="1166" y="-1240.3" font-family="Times,serif" font-size="14.00" fill="white">25 row(s)/1 chunk(s)</text>
</g>
<!-- 0 -->
<g id="node34" class="node">
<title>0</title>
<polygon fill="none" stroke="white" points="418,-0.5 418,-166.5 739,-166.5 739,-0.5 418,-0.5"/>
<text text-anchor="middle" x="578.5" y="-151.3" font-family="Times,serif" font-size="14.00" fill="white">Total by operator</text>
<polyline fill="none" stroke="white" points="418,-143.5 739,-143.5 "/>
<text text-anchor="end" x="547" y="-128.3" font-family="Times,serif" font-size="14.00" fill="white">JoinHash </text>
<text text-anchor="end" x="547" y="-113.3" font-family="Times,serif" font-size="14.00" fill="white"> Projection </text>
<text text-anchor="end" x="547" y="-98.3" font-family="Times,serif" font-size="14.00" fill="white"> GetTable </text>
<text text-anchor="end" x="547" y="-83.3" font-family="Times,serif" font-size="14.00" fill="white"> Validate </text>
<text text-anchor="end" x="547" y="-68.3" font-family="Times,serif" font-size="14.00" fill="white"> TableScan </text>
<text text-anchor="end" x="547" y="-53.3" font-family="Times,serif" font-size="14.00" fill="white"> AggregateHash </text>
<text text-anchor="end" x="547" y="-38.3" font-family="Times,serif" font-size="14.00" fill="white"> Sort </text>
<text text-anchor="end" x="547" y="-23.3" font-family="Times,serif" font-size="14.00" fill="white"> Alias </text>
<text text-anchor="end" x="547" y="-8.3" font-family="Times,serif" font-size="14.00" fill="white">total</text>
<polyline fill="none" stroke="white" points="555,-0.5 555,-143.5 "/>
<text text-anchor="start" x="563" y="-128.3" font-family="Times,serif" font-size="14.00" fill="white">962 ms 931 µs </text>
<text text-anchor="start" x="563" y="-113.3" font-family="Times,serif" font-size="14.00" fill="white"> 101 ms 411 µs </text>
<text text-anchor="start" x="563" y="-98.3" font-family="Times,serif" font-size="14.00" fill="white"> 48 ms 498 µs </text>
<text text-anchor="start" x="563" y="-83.3" font-family="Times,serif" font-size="14.00" fill="white"> 28 ms 978 µs </text>
<text text-anchor="start" x="563" y="-68.3" font-family="Times,serif" font-size="14.00" fill="white"> 26 ms 507 µs </text>
<text text-anchor="start" x="563" y="-53.3" font-family="Times,serif" font-size="14.00" fill="white"> 7 ms 732 µs </text>
<text text-anchor="start" x="563" y="-38.3" font-family="Times,serif" font-size="14.00" fill="white"> 64 µs 914 ns </text>
<text text-anchor="start" x="563" y="-23.3" font-family="Times,serif" font-size="14.00" fill="white"> 38 µs 732 ns </text>
<text text-anchor="start" x="563" y="-8.3" font-family="Times,serif" font-size="14.00" fill="white"> 1 s 176 ms </text>
<polyline fill="none" stroke="white" points="686,-0.5 686,-143.5 "/>
<text text-anchor="start" x="694" y="-128.3" font-family="Times,serif" font-size="14.00" fill="white">82 %</text>
<text text-anchor="start" x="694" y="-113.3" font-family="Times,serif" font-size="14.00" fill="white">9 %</text>
<text text-anchor="start" x="694" y="-98.3" font-family="Times,serif" font-size="14.00" fill="white">4 %</text>
<text text-anchor="start" x="694" y="-83.3" font-family="Times,serif" font-size="14.00" fill="white">2 %</text>
<text text-anchor="start" x="694" y="-68.3" font-family="Times,serif" font-size="14.00" fill="white">2 %</text>
<text text-anchor="start" x="694" y="-53.3" font-family="Times,serif" font-size="14.00" fill="white">1 %</text>
<text text-anchor="start" x="694" y="-38.3" font-family="Times,serif" font-size="14.00" fill="white">0 %</text>
<text text-anchor="start" x="694" y="-23.3" font-family="Times,serif" font-size="14.00" fill="white">0 %</text>
<text text-anchor="start" x="694" y="-8.3" font-family="Times,serif" font-size="14.00" fill="white"> </text>
</g>
</g>
</svg>
