<?xml version="1.0" encoding="UTF-8" standalone="no"?>
<!DOCTYPE svg PUBLIC "-//W3C//DTD SVG 1.1//EN"
 "http://www.w3.org/Graphics/SVG/1.1/DTD/svg11.dtd">
<!-- Generated by graphviz version 2.43.0 (0)
 -->
<!-- Title: G Pages: 1 -->
<svg width="856pt" height="1610pt"
 viewBox="0.00 0.00 855.50 1610.00" xmlns="http://www.w3.org/2000/svg" xmlns:xlink="http://www.w3.org/1999/xlink">
<g id="graph0" class="graph" transform="scale(1 1) rotate(0) translate(4 1606)">
<title>G</title>
<polygon fill="black" stroke="transparent" points="-4,4 -4,-1606 851.5,-1606 851.5,4 -4,4"/>
<text text-anchor="middle" x="319.5" y="-1586.8" font-family="Times,serif" font-size="14.00" fill="white">For tooltips with advanced information, hover your mouse over vertices or edge labels.</text>
<!-- 140288850251408 -->
<g id="node1" class="node">
<title>140288850251408</title>
<g id="a_node1"><a xlink:title="Output: 1 row in 1 chunk, 3 µs 445 ns.">
<polygon fill="none" stroke="white" points="268,-1547 164,-1547 164,-1478 268,-1478 268,-1547"/>
<text text-anchor="middle" x="216" y="-1531.8" font-family="Times,serif" font-size="14.00" fill="white">Alias</text>
<text text-anchor="middle" x="216" y="-1516.8" font-family="Times,serif" font-size="14.00" fill="white">[avg_yearly]</text>
<text text-anchor="middle" x="216" y="-1485.8" font-family="Times,serif" font-size="14.00" fill="white">3 µs 445 ns</text>
</a>
</g>
</g>
<!-- 140288850251088 -->
<g id="node2" class="node">
<title>140288850251088</title>
<g id="a_node2"><a xlink:title="Output: 1 row in 1 chunk, 80 µs 279 ns.&#10;Operator step runtimes:&#10; ForwardUnmodifiedColumns 2 µs 998 ns&#10; EvaluateNewColumns 40 µs 474 ns&#10; BuildOutput 30 µs 961 ns.">
<polygon fill="none" stroke="white" points="270,-1427 162,-1427 162,-1373 270,-1373 270,-1427"/>
<text text-anchor="middle" x="216" y="-1411.8" font-family="Times,serif" font-size="14.00" fill="white">Projection</text>
<text text-anchor="middle" x="216" y="-1380.8" font-family="Times,serif" font-size="14.00" fill="white">80 µs 279 ns</text>
</a>
</g>
</g>
<!-- 140288850251088&#45;&gt;140288850251408 -->
<g id="edge1" class="edge">
<title>140288850251088&#45;&gt;140288850251408</title>
<path fill="none" stroke="white" d="M216,-1427.19C216,-1439.29 216,-1454 216,-1467.72"/>
<polygon fill="white" stroke="white" points="212.5,-1467.95 216,-1477.95 219.5,-1467.96 212.5,-1467.95"/>
<text text-anchor="middle" x="285" y="-1448.8" font-family="Times,serif" font-size="14.00" fill="white">1 row(s)/1 chunk(s)</text>
</g>
<!-- 140424953405968 -->
<g id="node3" class="node">
<title>140424953405968</title>
<g id="a_node3"><a xlink:title="Output: 1 row in 1 chunk, 14 ms 133 µs.&#10;Operator step runtimes:&#10; GroupByKeyPartitioning 31 ns&#10; Aggregating 14 ms 65 µs&#10; GroupByColumnsWriting 1 µs 682 ns&#10; AggregateColumnsWriting 38 µs 223 ns&#10; OutputWriting 12 µs 127 ns.">
<polygon fill="none" stroke="white" points="304,-1322 128,-1322 128,-1238 304,-1238 304,-1322"/>
<text text-anchor="middle" x="216" y="-1306.8" font-family="Times,serif" font-size="14.00" fill="white">AggregateHash</text>
<text text-anchor="middle" x="216" y="-1291.8" font-family="Times,serif" font-size="14.00" fill="white">GroupBy {}</text>
<text text-anchor="middle" x="216" y="-1276.8" font-family="Times,serif" font-size="14.00" fill="white">SUM(l_extendedprice)</text>
<text text-anchor="middle" x="216" y="-1245.8" font-family="Times,serif" font-size="14.00" fill="white">14 ms 133 µs</text>
</a>
</g>
</g>
<!-- 140424953405968&#45;&gt;140288850251088 -->
<g id="edge2" class="edge">
<title>140424953405968&#45;&gt;140288850251088</title>
<path fill="none" stroke="white" d="M216,-1322.27C216,-1335.36 216,-1349.72 216,-1362.45"/>
<polygon fill="white" stroke="white" points="212.5,-1362.69 216,-1372.69 219.5,-1362.69 212.5,-1362.69"/>
<text text-anchor="middle" x="285" y="-1343.8" font-family="Times,serif" font-size="14.00" fill="white">1 row(s)/1 chunk(s)</text>
</g>
<!-- 140288850250768 -->
<g id="node4" class="node">
<title>140288850250768</title>
<g id="a_node4"><a xlink:title="Output: 53193 rows in 102 chunks, 121 ms 781 µs.&#10;Operator step runtimes:&#10; BuildSideMaterializing 3 ms 961 µs&#10; ProbeSideMaterializing 24 ms 184 µs&#10; Clustering 0 ns&#10; Building 899 µs 846 ns&#10; Probing 89 ms 779 µs&#10; OutputWriting 2 ms 476 µs.&#10;Radix bits: 0.&#10;Build side is right.">
<polygon fill="none" stroke="white" stroke-width="6.26" points="364.5,-1187 67.5,-1187 67.5,-1103 364.5,-1103 364.5,-1187"/>
<text text-anchor="middle" x="216" y="-1171.8" font-family="Times,serif" font-size="14.00" fill="white">JoinHash (Semi)</text>
<text text-anchor="middle" x="216" y="-1156.8" font-family="Times,serif" font-size="14.00" fill="white">p_partkey = l_partkey</text>
<text text-anchor="middle" x="216" y="-1141.8" font-family="Times,serif" font-size="14.00" fill="white">AND l_quantity &lt; 0.2 * AVG(l_quantity)</text>
<text text-anchor="middle" x="216" y="-1110.8" font-family="Times,serif" font-size="14.00" fill="white">121 ms 781 µs</text>
</a>
</g>
</g>
<!-- 140288850250768&#45;&gt;140424953405968 -->
<g id="edge3" class="edge">
<title>140288850250768&#45;&gt;140424953405968</title>
<path fill="none" stroke="white" d="M216,-1187.35C216,-1200.11 216,-1214.32 216,-1227.67"/>
<polygon fill="white" stroke="white" points="212.5,-1227.67 216,-1237.67 219.5,-1227.67 212.5,-1227.67"/>
<text text-anchor="middle" x="314" y="-1208.8" font-family="Times,serif" font-size="14.00" fill="white">53,193 row(s)/102 chunk(s)</text>
</g>
<!-- 140288850250128 -->
<g id="node5" class="node">
<title>140288850250128</title>
<g id="a_node5"><a xlink:title="Output: 594801 rows in 1122 chunks, 27 ms 81 µs.&#10;Operator step runtimes:&#10; BuildSideMaterializing 3 ms 334 µs&#10; ProbeSideMaterializing 13 ms 744 µs&#10; Clustering 0 ns&#10; Building 651 µs 971 ns&#10; Probing 2 ms 370 µs&#10; OutputWriting 6 ms 287 µs.&#10;Radix bits: 0.&#10;Build side is right.">
<polygon fill="none" stroke="white" stroke-width="2.55" points="406,-939.5 232,-939.5 232,-870.5 406,-870.5 406,-939.5"/>
<text text-anchor="middle" x="319" y="-924.3" font-family="Times,serif" font-size="14.00" fill="white">JoinHash (Inner)</text>
<text text-anchor="middle" x="319" y="-909.3" font-family="Times,serif" font-size="14.00" fill="white">l_partkey = p_partkey</text>
<text text-anchor="middle" x="319" y="-878.3" font-family="Times,serif" font-size="14.00" fill="white">27 ms 81 µs</text>
</a>
</g>
</g>
<!-- 140288850250128&#45;&gt;140288850250768 -->
<g id="edge4" class="edge">
<title>140288850250128&#45;&gt;140288850250768</title>
<path fill="none" stroke="white" d="M323.03,-939.54C325.93,-977.54 325.49,-1040 299,-1085 296.94,-1088.5 294.58,-1091.85 291.99,-1095.04"/>
<polygon fill="white" stroke="white" points="291.83,-1095.23 289.22,-1092.88 285.13,-1102.66 291.83,-1095.23"/>
<text text-anchor="middle" x="433.5" y="-1021.3" font-family="Times,serif" font-size="14.00" fill="white">594,801 row(s)/1,122 chunk(s)</text>
</g>
<!-- 140424952781840 -->
<g id="node6" class="node">
<title>140424952781840</title>
<g id="a_node6"><a xlink:title="Output: 594801 rows in 1123 chunks, 5 ms 872 µs.">
<polygon fill="none" stroke="white" points="246,-812 142,-812 142,-758 246,-758 246,-812"/>
<text text-anchor="middle" x="194" y="-796.8" font-family="Times,serif" font-size="14.00" fill="white">Validate</text>
<text text-anchor="middle" x="194" y="-765.8" font-family="Times,serif" font-size="14.00" fill="white">5 ms 872 µs</text>
</a>
</g>
</g>
<!-- 140424952781840&#45;&gt;140288850250128 -->
<g id="edge5" class="edge">
<title>140424952781840&#45;&gt;140288850250128</title>
<path fill="none" stroke="white" d="M246.12,-798.34C264.4,-805.01 283.67,-815.05 297,-830 304.58,-838.5 309.55,-849.52 312.81,-860.43"/>
<polygon fill="white" stroke="white" points="312.87,-860.67 309.48,-861.54 315.35,-870.36 312.87,-860.67"/>
<text text-anchor="middle" x="416.5" y="-833.8" font-family="Times,serif" font-size="14.00" fill="white">594,801 row(s)/1,123 chunk(s)</text>
</g>
<!-- 140424953404944 -->
<g id="node14" class="node">
<title>140424953404944</title>
<g id="a_node14"><a xlink:title="Output: 19810 rows in 1 chunk, 141 ms 763 µs.&#10;Operator step runtimes:&#10; GroupByKeyPartitioning 69 ms 163 µs&#10; Aggregating 72 ms 30 µs&#10; GroupByColumnsWriting 290 µs 935 ns&#10; AggregateColumnsWriting 199 µs 409 ns&#10; OutputWriting 14 µs 281 ns.">
<polygon fill="none" stroke="white" stroke-width="6.63" points="168,-947 0,-947 0,-863 168,-863 168,-947"/>
<text text-anchor="middle" x="84" y="-931.8" font-family="Times,serif" font-size="14.00" fill="white">AggregateHash</text>
<text text-anchor="middle" x="84" y="-916.8" font-family="Times,serif" font-size="14.00" fill="white">GroupBy {l_partkey}</text>
<text text-anchor="middle" x="84" y="-901.8" font-family="Times,serif" font-size="14.00" fill="white">AVG(l_quantity)</text>
<text text-anchor="middle" x="84" y="-870.8" font-family="Times,serif" font-size="14.00" fill="white">141 ms 763 µs</text>
</a>
</g>
</g>
<!-- 140424952781840&#45;&gt;140424953404944 -->
<g id="edge6" class="edge">
<title>140424952781840&#45;&gt;140424953404944</title>
<path fill="none" stroke="white" d="M141.8,-792.34C118.21,-798.1 92.44,-809.08 78,-830 73.42,-836.64 71.43,-844.45 71.05,-852.47"/>
<polygon fill="white" stroke="white" points="67.56,-852.77 71.35,-862.67 74.56,-852.57 67.56,-852.77"/>
<text text-anchor="middle" x="187.5" y="-833.8" font-family="Times,serif" font-size="14.00" fill="white">594,801 row(s)/1,123 chunk(s)</text>
</g>
<!-- 140288850249808 -->
<g id="node7" class="node">
<title>140288850249808</title>
<g id="a_node7"><a xlink:title="Output: 594801 rows in 1123 chunks, 246 ms 642 µs.&#10;Operator step runtimes:&#10; BuildSideMaterializing 4 ms 551 µs&#10; ProbeSideMaterializing 174 ms 767 µs&#10; Clustering 0 ns&#10; Building 358 µs 43 ns&#10; Probing 26 ms 617 µs&#10; OutputWriting 15 ms 765 µs.&#10;Radix bits: 0.&#10;Build side is right.">
<polygon fill="none" stroke="white" stroke-width="8" points="298,-707 90,-707 90,-638 298,-638 298,-707"/>
<text text-anchor="middle" x="194" y="-691.8" font-family="Times,serif" font-size="14.00" fill="white">JoinHash (Semi Reduction)</text>
<text text-anchor="middle" x="194" y="-676.8" font-family="Times,serif" font-size="14.00" fill="white">l_partkey = p_partkey</text>
<text text-anchor="middle" x="194" y="-645.8" font-family="Times,serif" font-size="14.00" fill="white">246 ms 642 µs</text>
</a>
</g>
</g>
<!-- 140288850249808&#45;&gt;140424952781840 -->
<g id="edge7" class="edge">
<title>140288850249808&#45;&gt;140424952781840</title>
<path fill="none" stroke="white" d="M194,-707.25C194,-720.07 194,-734.73 194,-747.77"/>
<polygon fill="white" stroke="white" points="190.5,-747.81 194,-757.81 197.5,-747.81 190.5,-747.81"/>
<text text-anchor="middle" x="303.5" y="-728.8" font-family="Times,serif" font-size="14.00" fill="white">594,801 row(s)/1,123 chunk(s)</text>
</g>
<!-- 140284388804304 -->
<g id="node8" class="node">
<title>140284388804304</title>
<g id="a_node8"><a xlink:title="Output: 600037902 rows in 9156 chunks, 16 ms 588 µs.">
<polygon fill="none" stroke="white" stroke-width="1.34" points="134.5,-587 3.5,-587 3.5,-473 134.5,-473 134.5,-587"/>
<text text-anchor="middle" x="69" y="-571.8" font-family="Times,serif" font-size="14.00" fill="white">GetTable</text>
<text text-anchor="middle" x="69" y="-556.8" font-family="Times,serif" font-size="14.00" fill="white">(lineitem)</text>
<text text-anchor="middle" x="69" y="-541.8" font-family="Times,serif" font-size="14.00" fill="white">pruned:</text>
<text text-anchor="middle" x="69" y="-526.8" font-family="Times,serif" font-size="14.00" fill="white">0/9156 chunk(s)</text>
<text text-anchor="middle" x="69" y="-511.8" font-family="Times,serif" font-size="14.00" fill="white">13/16 column(s)</text>
<text text-anchor="middle" x="69" y="-480.8" font-family="Times,serif" font-size="14.00" fill="white">16 ms 588 µs</text>
</a>
</g>
</g>
<!-- 140284388804304&#45;&gt;140288850249808 -->
<g id="edge8" class="edge">
<title>140284388804304&#45;&gt;140288850249808</title>
<path fill="none" stroke="white" stroke-width="8" d="M60.06,-587.16C60.74,-598.78 63.51,-610.4 70,-620 73.43,-625.07 77.46,-629.65 81.93,-633.77"/>
<polygon fill="white" stroke="white" stroke-width="8" points="82.13,-633.94 77.68,-639.34 89.84,-640.3 82.13,-633.94"/>
<text text-anchor="middle" x="195" y="-608.8" font-family="Times,serif" font-size="14.00" fill="white">600,037,902 row(s)/9,156 chunk(s)</text>
</g>
<!-- 140424952780304 -->
<g id="node9" class="node">
<title>140424952780304</title>
<g id="a_node9"><a xlink:title="Output: 19810 rows in 306 chunks, 858 µs 989 ns.">
<polygon fill="none" stroke="white" points="505.5,-557 388.5,-557 388.5,-503 505.5,-503 505.5,-557"/>
<text text-anchor="middle" x="447" y="-541.8" font-family="Times,serif" font-size="14.00" fill="white">Validate</text>
<text text-anchor="middle" x="447" y="-510.8" font-family="Times,serif" font-size="14.00" fill="white">858 µs 989 ns</text>
</a>
</g>
</g>
<!-- 140424952780304&#45;&gt;140288850250128 -->
<g id="edge10" class="edge">
<title>140424952780304&#45;&gt;140288850250128</title>
<path fill="none" stroke="white" d="M495.07,-557.26C512.23,-569.35 529.61,-585.4 539,-605 569.03,-667.7 968.61,-290.31 530,-845 515.18,-863.74 464.12,-878.29 415.94,-888.25"/>
<polygon fill="white" stroke="white" points="406.03,-890.25 416.53,-891.71 415.84,-888.27 406.03,-890.25"/>
<text text-anchor="middle" x="714" y="-728.8" font-family="Times,serif" font-size="14.00" fill="white">19,810 row(s)/306 chunk(s)</text>
</g>
<!-- 140424952780304&#45;&gt;140288850249808 -->
<g id="edge9" class="edge">
<title>140424952780304&#45;&gt;140288850249808</title>
<path fill="none" stroke="white" d="M410.48,-557.21C376.4,-581.57 329.42,-614.86 320,-620 311.29,-624.76 302.04,-629.34 292.67,-633.67"/>
<polygon fill="white" stroke="white" points="283.28,-637.92 293.83,-636.99 292.39,-633.8 283.28,-637.92"/>
<text text-anchor="middle" x="440" y="-608.8" font-family="Times,serif" font-size="14.00" fill="white">19,810 row(s)/306 chunk(s)</text>
</g>
<!-- 140288850248848 -->
<g id="node10" class="node">
<title>140288850248848</title>
<g id="a_node10"><a xlink:title="Output: 19810 rows in 306 chunks, 1 ms 252 µs.&#10;Chunks: 0 skipped with no results, &#10;0 skipped with all matching, 0 scanned using binary search.">
<polygon fill="none" stroke="white" points="535,-422 359,-422 359,-338 535,-338 535,-422"/>
<text text-anchor="middle" x="447" y="-406.8" font-family="Times,serif" font-size="14.00" fill="white">TableScan</text>
<text text-anchor="middle" x="447" y="-391.8" font-family="Times,serif" font-size="14.00" fill="white">Impl: ColumnVsValue</text>
<text text-anchor="middle" x="447" y="-376.8" font-family="Times,serif" font-size="14.00" fill="white">p_brand = &#39;Brand#53&#39;</text>
<text text-anchor="middle" x="447" y="-345.8" font-family="Times,serif" font-size="14.00" fill="white">1 ms 252 µs</text>
</a>
</g>
</g>
<!-- 140288850248848&#45;&gt;140424952780304 -->
<g id="edge11" class="edge">
<title>140288850248848&#45;&gt;140424952780304</title>
<path fill="none" stroke="white" d="M447,-422.23C447,-444.32 447,-471.31 447,-492.62"/>
<polygon fill="white" stroke="white" points="443.5,-492.88 447,-502.88 450.5,-492.88 443.5,-492.88"/>
<text text-anchor="middle" x="545" y="-443.8" font-family="Times,serif" font-size="14.00" fill="white">19,810 row(s)/306 chunk(s)</text>
</g>
<!-- 140288850249168 -->
<g id="node11" class="node">
<title>140288850249168</title>
<g id="a_node11"><a xlink:title="Output: 499920 rows in 306 chunks, 1 ms 540 µs.&#10;Chunks: 0 skipped with no results, &#10;0 skipped with all matching, 0 scanned using binary search.">
<polygon fill="none" stroke="white" points="545.5,-287 348.5,-287 348.5,-203 545.5,-203 545.5,-287"/>
<text text-anchor="middle" x="447" y="-271.8" font-family="Times,serif" font-size="14.00" fill="white">TableScan</text>
<text text-anchor="middle" x="447" y="-256.8" font-family="Times,serif" font-size="14.00" fill="white">Impl: ColumnVsValue</text>
<text text-anchor="middle" x="447" y="-241.8" font-family="Times,serif" font-size="14.00" fill="white">p_container = &#39;SM CASE&#39;</text>
<text text-anchor="middle" x="447" y="-210.8" font-family="Times,serif" font-size="14.00" fill="white">1 ms 540 µs</text>
</a>
</g>
</g>
<!-- 140288850249168&#45;&gt;140288850248848 -->
<g id="edge12" class="edge">
<title>140288850249168&#45;&gt;140288850248848</title>
<path fill="none" stroke="white" d="M447,-287.35C447,-300.11 447,-314.32 447,-327.67"/>
<polygon fill="white" stroke="white" points="443.5,-327.67 447,-337.67 450.5,-327.67 443.5,-327.67"/>
<text text-anchor="middle" x="549.5" y="-308.8" font-family="Times,serif" font-size="14.00" fill="white">499,920 row(s)/306 chunk(s)</text>
</g>
<!-- 140284388803856 -->
<g id="node12" class="node">
<title>140284388803856</title>
<g id="a_node12"><a xlink:title="Output: 20000000 rows in 306 chunks, 649 µs 334 ns.">
<polygon fill="none" stroke="white" points="508,-133 386,-133 386,-19 508,-19 508,-133"/>
<text text-anchor="middle" x="447" y="-117.8" font-family="Times,serif" font-size="14.00" fill="white">GetTable</text>
<text text-anchor="middle" x="447" y="-102.8" font-family="Times,serif" font-size="14.00" fill="white">(part)</text>
<text text-anchor="middle" x="447" y="-87.8" font-family="Times,serif" font-size="14.00" fill="white">pruned:</text>
<text text-anchor="middle" x="447" y="-72.8" font-family="Times,serif" font-size="14.00" fill="white">0/306 chunk(s)</text>
<text text-anchor="middle" x="447" y="-57.8" font-family="Times,serif" font-size="14.00" fill="white">6/9 column(s)</text>
<text text-anchor="middle" x="447" y="-26.8" font-family="Times,serif" font-size="14.00" fill="white">649 µs 334 ns</text>
</a>
</g>
</g>
<!-- 140284388803856&#45;&gt;140288850249168 -->
<g id="edge13" class="edge">
<title>140284388803856&#45;&gt;140288850249168</title>
<path fill="none" stroke="white" d="M447,-133.07C447,-152.34 447,-173.8 447,-192.67"/>
<polygon fill="white" stroke="white" points="443.5,-192.86 447,-202.86 450.5,-192.86 443.5,-192.86"/>
<text text-anchor="middle" x="561" y="-173.8" font-family="Times,serif" font-size="14.00" fill="white">20,000,000 row(s)/306 chunk(s)</text>
</g>
<!-- 140288850250448 -->
<g id="node13" class="node">
<title>140288850250448</title>
<g id="a_node13"><a xlink:title="Output: 19810 rows in 1 chunk, 186 µs 502 ns.&#10;Operator step runtimes:&#10; ForwardUnmodifiedColumns 12 µs 475 ns&#10; EvaluateNewColumns 120 µs 344 ns&#10; BuildOutput 45 µs 718 ns.">
<polygon fill="none" stroke="white" points="178.5,-1052 61.5,-1052 61.5,-998 178.5,-998 178.5,-1052"/>
<text text-anchor="middle" x="120" y="-1036.8" font-family="Times,serif" font-size="14.00" fill="white">Projection</text>
<text text-anchor="middle" x="120" y="-1005.8" font-family="Times,serif" font-size="14.00" fill="white">186 µs 502 ns</text>
</a>
</g>
</g>
<!-- 140288850250448&#45;&gt;140288850250768 -->
<g id="edge14" class="edge">
<title>140288850250448&#45;&gt;140288850250768</title>
<path fill="none" stroke="white" d="M115.18,-1052.12C114.47,-1062.93 115.44,-1075.2 121,-1085 123.04,-1088.6 125.41,-1092.01 128.02,-1095.24"/>
<polygon fill="white" stroke="white" points="135,-1102.89 130.84,-1093.14 128.26,-1095.5 135,-1102.89"/>
<text text-anchor="middle" x="210" y="-1073.8" font-family="Times,serif" font-size="14.00" fill="white">19,810 row(s)/1 chunk(s)</text>
</g>
<!-- 140424953404944&#45;&gt;140288850250448 -->
<g id="edge15" class="edge">
<title>140424953404944&#45;&gt;140288850250448</title>
<path fill="none" stroke="white" d="M96.59,-947.27C100.62,-960.49 105.05,-975.01 108.97,-987.83"/>
<polygon fill="white" stroke="white" points="105.71,-989.15 111.97,-997.69 112.4,-987.11 105.71,-989.15"/>
<text text-anchor="middle" x="196" y="-968.8" font-family="Times,serif" font-size="14.00" fill="white">19,810 row(s)/1 chunk(s)</text>
</g>
<!-- 0 -->
<g id="node15" class="node">
<title>0</title>
<polygon fill="none" stroke="white" points="526.5,-0.5 526.5,-151.5 847.5,-151.5 847.5,-0.5 526.5,-0.5"/>
<text text-anchor="middle" x="687" y="-136.3" font-family="Times,serif" font-size="14.00" fill="white">Total by operator</text>
<polyline fill="none" stroke="white" points="526.5,-128.5 847.5,-128.5 "/>
<text text-anchor="end" x="655.5" y="-113.3" font-family="Times,serif" font-size="14.00" fill="white">JoinHash </text>
<text text-anchor="end" x="655.5" y="-98.3" font-family="Times,serif" font-size="14.00" fill="white"> AggregateHash </text>
<text text-anchor="end" x="655.5" y="-83.3" font-family="Times,serif" font-size="14.00" fill="white"> GetTable </text>
<text text-anchor="end" x="655.5" y="-68.3" font-family="Times,serif" font-size="14.00" fill="white"> Validate </text>
<text text-anchor="end" x="655.5" y="-53.3" font-family="Times,serif" font-size="14.00" fill="white"> TableScan </text>
<text text-anchor="end" x="655.5" y="-38.3" font-family="Times,serif" font-size="14.00" fill="white"> Projection </text>
<text text-anchor="end" x="655.5" y="-23.3" font-family="Times,serif" font-size="14.00" fill="white"> Alias </text>
<text text-anchor="end" x="655.5" y="-8.3" font-family="Times,serif" font-size="14.00" fill="white">total</text>
<polyline fill="none" stroke="white" points="663.5,-0.5 663.5,-128.5 "/>
<text text-anchor="start" x="671.5" y="-113.3" font-family="Times,serif" font-size="14.00" fill="white">395 ms 504 µs </text>
<text text-anchor="start" x="671.5" y="-98.3" font-family="Times,serif" font-size="14.00" fill="white"> 155 ms 896 µs </text>
<text text-anchor="start" x="671.5" y="-83.3" font-family="Times,serif" font-size="14.00" fill="white"> 17 ms 238 µs </text>
<text text-anchor="start" x="671.5" y="-68.3" font-family="Times,serif" font-size="14.00" fill="white"> 6 ms 731 µs </text>
<text text-anchor="start" x="671.5" y="-53.3" font-family="Times,serif" font-size="14.00" fill="white"> 2 ms 792 µs </text>
<text text-anchor="start" x="671.5" y="-38.3" font-family="Times,serif" font-size="14.00" fill="white"> 266 µs 781 ns </text>
<text text-anchor="start" x="671.5" y="-23.3" font-family="Times,serif" font-size="14.00" fill="white"> 3 µs 445 ns </text>
<text text-anchor="start" x="671.5" y="-8.3" font-family="Times,serif" font-size="14.00" fill="white"> 578 ms 432 µs </text>
<polyline fill="none" stroke="white" points="794.5,-0.5 794.5,-128.5 "/>
<text text-anchor="start" x="802.5" y="-113.3" font-family="Times,serif" font-size="14.00" fill="white">68 %</text>
<text text-anchor="start" x="802.5" y="-98.3" font-family="Times,serif" font-size="14.00" fill="white">27 %</text>
<text text-anchor="start" x="802.5" y="-83.3" font-family="Times,serif" font-size="14.00" fill="white">3 %</text>
<text text-anchor="start" x="802.5" y="-68.3" font-family="Times,serif" font-size="14.00" fill="white">1 %</text>
<text text-anchor="start" x="802.5" y="-53.3" font-family="Times,serif" font-size="14.00" fill="white">0 %</text>
<text text-anchor="start" x="802.5" y="-38.3" font-family="Times,serif" font-size="14.00" fill="white">0 %</text>
<text text-anchor="start" x="802.5" y="-23.3" font-family="Times,serif" font-size="14.00" fill="white">0 %</text>
<text text-anchor="start" x="802.5" y="-8.3" font-family="Times,serif" font-size="14.00" fill="white"> </text>
</g>
</g>
</svg>
