<?xml version="1.0" encoding="UTF-8" standalone="no"?>
<!DOCTYPE svg PUBLIC "-//W3C//DTD SVG 1.1//EN"
 "http://www.w3.org/Graphics/SVG/1.1/DTD/svg11.dtd">
<!-- Generated by graphviz version 2.43.0 (0)
 -->
<!-- Title: G Pages: 1 -->
<svg width="877pt" height="1895pt"
 viewBox="0.00 0.00 877.00 1895.00" xmlns="http://www.w3.org/2000/svg" xmlns:xlink="http://www.w3.org/1999/xlink">
<g id="graph0" class="graph" transform="scale(1 1) rotate(0) translate(4 1891)">
<title>G</title>
<polygon fill="black" stroke="transparent" points="-4,4 -4,-1891 873,-1891 873,4 -4,4"/>
<text text-anchor="middle" x="319.5" y="-1871.8" font-family="Times,serif" font-size="14.00" fill="white">For tooltips with advanced information, hover your mouse over vertices or edge labels.</text>
<!-- 139751712643600 -->
<g id="node1" class="node">
<title>139751712643600</title>
<g id="a_node1"><a xlink:title="Output: 2 rows in 1 chunk filtered: 0, 3 µs 636 ns.">
<polygon fill="none" stroke="white" points="655,-1832 314,-1832 314,-1763 655,-1763 655,-1832"/>
<text text-anchor="middle" x="484.5" y="-1816.8" font-family="Times,serif" font-size="14.00" fill="white">Alias</text>
<text text-anchor="middle" x="484.5" y="-1801.8" font-family="Times,serif" font-size="14.00" fill="white">[l_shipmode, high_line_count, low_line_count]</text>
<text text-anchor="middle" x="484.5" y="-1770.8" font-family="Times,serif" font-size="14.00" fill="white">3 µs 636 ns</text>
</a>
</g>
</g>
<!-- 139751712643280 -->
<g id="node2" class="node">
<title>139751712643280</title>
<g id="a_node2"><a xlink:title="Output: 2 rows in 1 chunk filtered: 0, 29 µs 204 ns.&#10;Operator step runtimes:&#10; MaterializeSortColumns 16 µs 525 ns&#10; Sort 2 µs 356 ns&#10; TemporaryResultWriting 315 ns&#10; WriteOutput 8 µs 205 ns.">
<polygon fill="none" stroke="white" points="538.5,-1712 430.5,-1712 430.5,-1658 538.5,-1658 538.5,-1712"/>
<text text-anchor="middle" x="484.5" y="-1696.8" font-family="Times,serif" font-size="14.00" fill="white">Sort</text>
<text text-anchor="middle" x="484.5" y="-1665.8" font-family="Times,serif" font-size="14.00" fill="white">29 µs 204 ns</text>
</a>
</g>
</g>
<!-- 139751712643280&#45;&gt;139751712643600 -->
<g id="edge1" class="edge">
<title>139751712643280&#45;&gt;139751712643600</title>
<path fill="none" stroke="white" d="M484.5,-1712.19C484.5,-1724.29 484.5,-1739 484.5,-1752.72"/>
<polygon fill="white" stroke="white" points="481,-1752.95 484.5,-1762.95 488,-1752.96 481,-1752.95"/>
<text text-anchor="middle" x="553.5" y="-1733.8" font-family="Times,serif" font-size="14.00" fill="white">2 row(s)/1 chunk(s)</text>
</g>
<!-- 139751712561168 -->
<g id="node3" class="node">
<title>139751712561168</title>
<g id="a_node3"><a xlink:title="Output: 2 rows in 1 chunk filtered: 0, 481 ms 295 µs.&#10;Operator step runtimes:&#10; GroupByKeyPartitioning 416 ms 866 µs&#10; Aggregating 64 ms 380 µs&#10; GroupByColumnsWriting 6 µs 798 ns&#10; AggregateColumnsWriting 15 µs 707 ns&#10; OutputWriting 7 µs 649 ns.">
<polygon fill="none" stroke="white" stroke-width="6.79" points="692,-1607 277,-1607 277,-1478 692,-1478 692,-1607"/>
<text text-anchor="middle" x="484.5" y="-1591.8" font-family="Times,serif" font-size="14.00" fill="white">AggregateHash</text>
<text text-anchor="middle" x="484.5" y="-1576.8" font-family="Times,serif" font-size="14.00" fill="white">GroupBy {l_shipmode}</text>
<text text-anchor="middle" x="484.5" y="-1561.8" font-family="Times,serif" font-size="14.00" fill="white">SUM(CASE WHEN o_orderpriority = &#39;1&#45;URGENT&#39; OR</text>
<text text-anchor="middle" x="484.5" y="-1546.8" font-family="Times,serif" font-size="14.00" fill="white">o_orderpriority = &#39;2&#45;HIGH&#39; THEN 1 ELSE 0 END), </text>
<text text-anchor="middle" x="484.5" y="-1531.8" font-family="Times,serif" font-size="14.00" fill="white">SUM(CASE WHEN o_orderpriority != &#39;1&#45;URGENT&#39; AND</text>
<text text-anchor="middle" x="484.5" y="-1516.8" font-family="Times,serif" font-size="14.00" fill="white">o_orderpriority != &#39;2&#45;HIGH&#39; THEN 1 ELSE 0 END)</text>
<text text-anchor="middle" x="484.5" y="-1485.8" font-family="Times,serif" font-size="14.00" fill="white">481 ms 295 µs</text>
</a>
</g>
</g>
<!-- 139751712561168&#45;&gt;139751712643280 -->
<g id="edge2" class="edge">
<title>139751712561168&#45;&gt;139751712643280</title>
<path fill="none" stroke="white" d="M484.5,-1607.17C484.5,-1620.99 484.5,-1635.14 484.5,-1647.48"/>
<polygon fill="white" stroke="white" points="481,-1647.8 484.5,-1657.8 488,-1647.8 481,-1647.8"/>
<text text-anchor="middle" x="553.5" y="-1628.8" font-family="Times,serif" font-size="14.00" fill="white">2 row(s)/1 chunk(s)</text>
</g>
<!-- 139751712642960 -->
<g id="node4" class="node">
<title>139751712642960</title>
<g id="a_node4"><a xlink:title="Output: 3115394 rows in 8 chunks filtered: 0, 134 ms 89 µs.&#10;Operator step runtimes:&#10; ForwardUnmodifiedColumns 18 µs 57 ns&#10; EvaluateNewColumns 133 ms 1000 µs&#10; BuildOutput 63 µs 362 ns.">
<polygon fill="none" stroke="white" stroke-width="3.64" points="541,-1427 428,-1427 428,-1373 541,-1373 541,-1427"/>
<text text-anchor="middle" x="484.5" y="-1411.8" font-family="Times,serif" font-size="14.00" fill="white">Projection</text>
<text text-anchor="middle" x="484.5" y="-1380.8" font-family="Times,serif" font-size="14.00" fill="white">134 ms 89 µs</text>
</a>
</g>
</g>
<!-- 139751712642960&#45;&gt;139751712561168 -->
<g id="edge3" class="edge">
<title>139751712642960&#45;&gt;139751712561168</title>
<path fill="none" stroke="white" d="M484.5,-1427.1C484.5,-1438.77 484.5,-1453.17 484.5,-1467.78"/>
<polygon fill="white" stroke="white" points="481,-1467.89 484.5,-1477.89 488,-1467.89 481,-1467.89"/>
<text text-anchor="middle" x="585" y="-1448.8" font-family="Times,serif" font-size="14.00" fill="white">3,115,394 row(s)/8 chunk(s)</text>
</g>
<!-- 139751712642640 -->
<g id="node5" class="node">
<title>139751712642640</title>
<g id="a_node5"><a xlink:title="Output: 3115394 rows in 8 chunks filtered: 0, 591 ms 517 µs.&#10;Operator step runtimes:&#10; BuildSideMaterializing 133 ms 957 µs&#10; ProbeSideMaterializing 341 ms 10 µs&#10; Clustering 27 ms 49 µs&#10; Building 30 ms 264 µs&#10; Probing 24 ms 987 µs&#10; OutputWriting 34 ms 23 µs.&#10;Radix bits: 5.&#10;Build side is right.">
<polygon fill="none" stroke="white" stroke-width="7.3" points="580,-1322 389,-1322 389,-1253 580,-1253 580,-1322"/>
<text text-anchor="middle" x="484.5" y="-1306.8" font-family="Times,serif" font-size="14.00" fill="white">JoinHash (Inner)</text>
<text text-anchor="middle" x="484.5" y="-1291.8" font-family="Times,serif" font-size="14.00" fill="white">l_orderkey = o_orderkey</text>
<text text-anchor="middle" x="484.5" y="-1260.8" font-family="Times,serif" font-size="14.00" fill="white">591 ms 517 µs</text>
</a>
</g>
</g>
<!-- 139751712642640&#45;&gt;139751712642960 -->
<g id="edge4" class="edge">
<title>139751712642640&#45;&gt;139751712642960</title>
<path fill="none" stroke="white" d="M484.5,-1322.25C484.5,-1335.07 484.5,-1349.73 484.5,-1362.77"/>
<polygon fill="white" stroke="white" points="481,-1362.81 484.5,-1372.81 488,-1362.81 481,-1362.81"/>
<text text-anchor="middle" x="585" y="-1343.8" font-family="Times,serif" font-size="14.00" fill="white">3,115,394 row(s)/8 chunk(s)</text>
</g>
<!-- 139751712642000 -->
<g id="node6" class="node">
<title>139751712642000</title>
<g id="a_node6"><a xlink:title="Output: 3115394 rows in 18312 chunks filtered: 0, 60 ms 5 µs.&#10;Chunks: 0 skipped with no results, &#10;0 skipped with all matching, 0 scanned using binary search.">
<polygon fill="none" stroke="white" stroke-width="1.65" points="569.5,-962 363.5,-962 363.5,-878 569.5,-878 569.5,-962"/>
<text text-anchor="middle" x="466.5" y="-946.8" font-family="Times,serif" font-size="14.00" fill="white">TableScan</text>
<text text-anchor="middle" x="466.5" y="-931.8" font-family="Times,serif" font-size="14.00" fill="white">Impl: ColumnVsColumn</text>
<text text-anchor="middle" x="466.5" y="-916.8" font-family="Times,serif" font-size="14.00" fill="white">l_commitdate &gt; l_shipdate</text>
<text text-anchor="middle" x="466.5" y="-885.8" font-family="Times,serif" font-size="14.00" fill="white">60 ms 5 µs</text>
</a>
</g>
</g>
<!-- 139751712642000&#45;&gt;139751712642640 -->
<g id="edge5" class="edge">
<title>139751712642000&#45;&gt;139751712642640</title>
<path fill="none" stroke="white" d="M551.93,-962.16C563.4,-971.35 573.57,-982.25 580.5,-995 631.41,-1088.74 635.27,-1143.47 580.5,-1235 578.14,-1238.94 575.37,-1242.6 572.28,-1245.99"/>
<polygon fill="white" stroke="white" points="572.23,-1246.04 569.79,-1243.52 565.05,-1252.99 572.23,-1246.04"/>
<text text-anchor="middle" x="741" y="-1118.8" font-family="Times,serif" font-size="14.00" fill="white">3,115,394 row(s)/18,312 chunk(s)</text>
</g>
<!-- 139751712642320 -->
<g id="node15" class="node">
<title>139751712642320</title>
<g id="a_node15"><a xlink:title="Output: 2922872 rows in 8 chunks filtered: 0, 786 ms 983 µs.&#10;Operator step runtimes:&#10; BuildSideMaterializing 334 ms 556 µs&#10; ProbeSideMaterializing 96 ms 433 µs&#10; Clustering 107 ms 930 µs&#10; Building 11 ms 476 µs&#10; Probing 233 ms 250 µs&#10; OutputWriting 64 µs 518 ns.&#10;Radix bits: 5.&#10;Build side is right.">
<polygon fill="none" stroke="white" stroke-width="8" points="442.5,-1097 234.5,-1097 234.5,-1028 442.5,-1028 442.5,-1097"/>
<text text-anchor="middle" x="338.5" y="-1081.8" font-family="Times,serif" font-size="14.00" fill="white">JoinHash (Semi Reduction)</text>
<text text-anchor="middle" x="338.5" y="-1066.8" font-family="Times,serif" font-size="14.00" fill="white">o_orderkey = l_orderkey</text>
<text text-anchor="middle" x="338.5" y="-1035.8" font-family="Times,serif" font-size="14.00" fill="white">786 ms 983 µs</text>
</a>
</g>
</g>
<!-- 139751712642000&#45;&gt;139751712642320 -->
<g id="edge6" class="edge">
<title>139751712642000&#45;&gt;139751712642320</title>
<path fill="none" stroke="white" d="M369.82,-962.16C357.76,-971.25 347.04,-982.11 339.5,-995 335.48,-1001.87 333.56,-1009.86 332.89,-1017.87"/>
<polygon fill="white" stroke="white" points="332.65,-1027.94 336.38,-1018.02 332.88,-1017.94 332.65,-1027.94"/>
<text text-anchor="middle" x="460" y="-998.8" font-family="Times,serif" font-size="14.00" fill="white">3,115,394 row(s)/18,312 chunk(s)</text>
</g>
<!-- 139751712641680 -->
<g id="node7" class="node">
<title>139751712641680</title>
<g id="a_node7"><a xlink:title="Output: 16445272 rows in 18312 chunks filtered: 0, 84 ms 713 µs.&#10;Chunks: 0 skipped with no results, &#10;0 skipped with all matching, 0 scanned using binary search.">
<polygon fill="none" stroke="white" stroke-width="2.5" points="580,-812 353,-812 353,-728 580,-728 580,-812"/>
<text text-anchor="middle" x="466.5" y="-796.8" font-family="Times,serif" font-size="14.00" fill="white">TableScan</text>
<text text-anchor="middle" x="466.5" y="-781.8" font-family="Times,serif" font-size="14.00" fill="white">Impl: ColumnVsColumn</text>
<text text-anchor="middle" x="466.5" y="-766.8" font-family="Times,serif" font-size="14.00" fill="white">l_receiptdate &gt; l_commitdate</text>
<text text-anchor="middle" x="466.5" y="-735.8" font-family="Times,serif" font-size="14.00" fill="white">84 ms 713 µs</text>
</a>
</g>
</g>
<!-- 139751712641680&#45;&gt;139751712642000 -->
<g id="edge7" class="edge">
<title>139751712641680&#45;&gt;139751712642000</title>
<path fill="none" stroke="white" d="M466.5,-812.23C466.5,-829.47 466.5,-849.68 466.5,-867.85"/>
<polygon fill="white" stroke="white" points="463,-867.99 466.5,-877.99 470,-867.99 463,-867.99"/>
<text text-anchor="middle" x="591.5" y="-833.8" font-family="Times,serif" font-size="14.00" fill="white">16,445,272 row(s)/18,312 chunk(s)</text>
</g>
<!-- 139751712550160 -->
<g id="node8" class="node">
<title>139751712550160</title>
<g id="a_node8"><a xlink:title="Output: 26006151 rows in 18312 chunks filtered: 0, 29 ms 656 µs.">
<polygon fill="none" stroke="white" points="523,-677 410,-677 410,-623 523,-623 523,-677"/>
<text text-anchor="middle" x="466.5" y="-661.8" font-family="Times,serif" font-size="14.00" fill="white">Validate</text>
<text text-anchor="middle" x="466.5" y="-630.8" font-family="Times,serif" font-size="14.00" fill="white">29 ms 656 µs</text>
</a>
</g>
</g>
<!-- 139751712550160&#45;&gt;139751712641680 -->
<g id="edge8" class="edge">
<title>139751712550160&#45;&gt;139751712641680</title>
<path fill="none" stroke="white" d="M466.5,-677.19C466.5,-689.1 466.5,-703.63 466.5,-717.58"/>
<polygon fill="white" stroke="white" points="463,-717.59 466.5,-727.59 470,-717.59 463,-717.59"/>
<text text-anchor="middle" x="591.5" y="-698.8" font-family="Times,serif" font-size="14.00" fill="white">26,006,151 row(s)/18,312 chunk(s)</text>
</g>
<!-- 139751712641360 -->
<g id="node9" class="node">
<title>139751712641360</title>
<g id="a_node9"><a xlink:title="Output: 26006151 rows in 18312 chunks filtered: 0, 43 ms 180 µs.&#10;Chunks: 0 skipped with no results, &#10;0 skipped with all matching, 0 scanned using binary search.">
<polygon fill="none" stroke="white" points="682.5,-572 250.5,-572 250.5,-473 682.5,-473 682.5,-572"/>
<text text-anchor="middle" x="466.5" y="-556.8" font-family="Times,serif" font-size="14.00" fill="white">TableScan</text>
<text text-anchor="middle" x="466.5" y="-541.8" font-family="Times,serif" font-size="14.00" fill="white">Impl: ColumnBetween</text>
<text text-anchor="middle" x="466.5" y="-526.8" font-family="Times,serif" font-size="14.00" fill="white">l_receiptdate BETWEEN UPPER EXCLUSIVE &#39;1995&#45;01&#45;01&#39;</text>
<text text-anchor="middle" x="466.5" y="-511.8" font-family="Times,serif" font-size="14.00" fill="white">AND &#39;1996&#45;01&#45;01&#39;</text>
<text text-anchor="middle" x="466.5" y="-480.8" font-family="Times,serif" font-size="14.00" fill="white">43 ms 180 µs</text>
</a>
</g>
</g>
<!-- 139751712641360&#45;&gt;139751712550160 -->
<g id="edge9" class="edge">
<title>139751712641360&#45;&gt;139751712550160</title>
<path fill="none" stroke="white" d="M466.5,-572.02C466.5,-585.49 466.5,-599.89 466.5,-612.54"/>
<polygon fill="white" stroke="white" points="463,-612.7 466.5,-622.7 470,-612.7 463,-612.7"/>
<text text-anchor="middle" x="591.5" y="-593.8" font-family="Times,serif" font-size="14.00" fill="white">26,006,151 row(s)/18,312 chunk(s)</text>
</g>
<!-- 139751712548112 -->
<g id="node10" class="node">
<title>139751712548112</title>
<g id="a_node10"><a xlink:title="Output: 171421620 rows in 18312 chunks filtered: 0, 14 ms 843 µs.">
<polygon fill="none" stroke="white" points="523,-422 410,-422 410,-368 523,-368 523,-422"/>
<text text-anchor="middle" x="466.5" y="-406.8" font-family="Times,serif" font-size="14.00" fill="white">UnionAll</text>
<text text-anchor="middle" x="466.5" y="-375.8" font-family="Times,serif" font-size="14.00" fill="white">14 ms 843 µs</text>
</a>
</g>
</g>
<!-- 139751712548112&#45;&gt;139751712641360 -->
<g id="edge10" class="edge">
<title>139751712548112&#45;&gt;139751712641360</title>
<path fill="none" stroke="white" stroke-width="4.91" d="M466.5,-422C466.5,-433.85 466.5,-448.39 466.5,-462.66"/>
<polygon fill="white" stroke="white" stroke-width="4.91" points="462.2,-462.96 466.5,-472.96 470.8,-462.96 462.2,-462.96"/>
<text text-anchor="middle" x="596" y="-443.8" font-family="Times,serif" font-size="14.00" fill="white">171,421,620 row(s)/18,312 chunk(s)</text>
</g>
<!-- 139772206619728 -->
<g id="node11" class="node">
<title>139772206619728</title>
<g id="a_node11"><a xlink:title="Output: 85711200 rows in 9156 chunks filtered: 0, 61 ms 593 µs.&#10;Chunks: 0 skipped with no results, &#10;0 skipped with all matching, 0 scanned using binary search.">
<polygon fill="none" stroke="white" stroke-width="1.72" points="415,-317 246,-317 246,-233 415,-233 415,-317"/>
<text text-anchor="middle" x="330.5" y="-301.8" font-family="Times,serif" font-size="14.00" fill="white">TableScan</text>
<text text-anchor="middle" x="330.5" y="-286.8" font-family="Times,serif" font-size="14.00" fill="white">Impl: ColumnVsValue</text>
<text text-anchor="middle" x="330.5" y="-271.8" font-family="Times,serif" font-size="14.00" fill="white">l_shipmode = &#39;FOB&#39;</text>
<text text-anchor="middle" x="330.5" y="-240.8" font-family="Times,serif" font-size="14.00" fill="white">61 ms 593 µs</text>
</a>
</g>
</g>
<!-- 139772206619728&#45;&gt;139751712548112 -->
<g id="edge11" class="edge">
<title>139772206619728&#45;&gt;139751712548112</title>
<path fill="none" stroke="white" stroke-width="3.2" d="M323.22,-317.29C323.29,-328.82 325.59,-340.72 332.5,-350 348.32,-371.24 374.69,-382.38 399.87,-388.17"/>
<polygon fill="white" stroke="white" stroke-width="3.2" points="400.01,-388.2 399.31,-391.63 409.8,-390.21 400.01,-388.2"/>
<text text-anchor="middle" x="453" y="-338.8" font-family="Times,serif" font-size="14.00" fill="white">85,711,200 row(s)/9,156 chunk(s)</text>
</g>
<!-- 139751718033104 -->
<g id="node12" class="node">
<title>139751718033104</title>
<g id="a_node12"><a xlink:title="Output: 600037902 rows in 9156 chunks filtered: 0, 18 ms 47 µs.">
<polygon fill="none" stroke="white" points="530,-148 399,-148 399,-34 530,-34 530,-148"/>
<text text-anchor="middle" x="464.5" y="-132.8" font-family="Times,serif" font-size="14.00" fill="white">GetTable</text>
<text text-anchor="middle" x="464.5" y="-117.8" font-family="Times,serif" font-size="14.00" fill="white">(lineitem)</text>
<text text-anchor="middle" x="464.5" y="-102.8" font-family="Times,serif" font-size="14.00" fill="white">pruned:</text>
<text text-anchor="middle" x="464.5" y="-87.8" font-family="Times,serif" font-size="14.00" fill="white">0/9156 chunk(s)</text>
<text text-anchor="middle" x="464.5" y="-72.8" font-family="Times,serif" font-size="14.00" fill="white">11/16 column(s)</text>
<text text-anchor="middle" x="464.5" y="-41.8" font-family="Times,serif" font-size="14.00" fill="white">18 ms 47 µs</text>
</a>
</g>
</g>
<!-- 139751718033104&#45;&gt;139772206619728 -->
<g id="edge12" class="edge">
<title>139751718033104&#45;&gt;139772206619728</title>
<path fill="none" stroke="white" stroke-width="8" d="M398.94,-126.83C372.22,-144.81 344.19,-169.43 329.5,-200 326.17,-206.92 324.45,-214.65 323.77,-222.43"/>
<polygon fill="white" stroke="white" stroke-width="8" points="316.77,-222.39 323.43,-232.62 330.76,-222.86 316.77,-222.39"/>
<text text-anchor="middle" x="454.5" y="-203.8" font-family="Times,serif" font-size="14.00" fill="white">600,037,902 row(s)/9,156 chunk(s)</text>
</g>
<!-- 139751712641040 -->
<g id="node13" class="node">
<title>139751712641040</title>
<g id="a_node13"><a xlink:title="Output: 85710420 rows in 9156 chunks filtered: 0, 69 ms 911 µs.&#10;Chunks: 0 skipped with no results, &#10;0 skipped with all matching, 0 scanned using binary search.">
<polygon fill="none" stroke="white" stroke-width="2.03" points="694.5,-317 506.5,-317 506.5,-233 694.5,-233 694.5,-317"/>
<text text-anchor="middle" x="600.5" y="-301.8" font-family="Times,serif" font-size="14.00" fill="white">TableScan</text>
<text text-anchor="middle" x="600.5" y="-286.8" font-family="Times,serif" font-size="14.00" fill="white">Impl: ColumnVsValue</text>
<text text-anchor="middle" x="600.5" y="-271.8" font-family="Times,serif" font-size="14.00" fill="white">l_shipmode = &#39;REG AIR&#39;</text>
<text text-anchor="middle" x="600.5" y="-240.8" font-family="Times,serif" font-size="14.00" fill="white">69 ms 911 µs</text>
</a>
</g>
</g>
<!-- 139751718033104&#45;&gt;139751712641040 -->
<g id="edge13" class="edge">
<title>139751718033104&#45;&gt;139751712641040</title>
<path fill="none" stroke="white" stroke-width="8" d="M503.83,-148.21C514.14,-160.4 525.92,-172.47 538.5,-182 554.36,-194.01 566.43,-185 579.5,-200 585.3,-206.66 589.51,-214.81 592.55,-223.25"/>
<polygon fill="white" stroke="white" stroke-width="8" points="585.88,-225.35 595.52,-232.82 599.25,-221.2 585.88,-225.35"/>
<text text-anchor="middle" x="714.5" y="-203.8" font-family="Times,serif" font-size="14.00" fill="white">600,037,902 row(s)/9,156 chunk(s)</text>
</g>
<!-- 139751712641040&#45;&gt;139751712548112 -->
<g id="edge14" class="edge">
<title>139751712641040&#45;&gt;139751712548112</title>
<path fill="none" stroke="white" stroke-width="3.2" d="M594.63,-317.02C591.25,-328.81 585.91,-340.92 577.5,-350 565.49,-362.96 549.16,-372.17 532.73,-378.69"/>
<polygon fill="white" stroke="white" stroke-width="3.2" points="523.07,-382.23 533.67,-382.07 532.47,-378.79 523.07,-382.23"/>
<text text-anchor="middle" x="708" y="-338.8" font-family="Times,serif" font-size="14.00" fill="white">85,710,420 row(s)/9,156 chunk(s)</text>
</g>
<!-- 139751712524048 -->
<g id="node14" class="node">
<title>139751712524048</title>
<g id="a_node14"><a xlink:title="Output: 2922872 rows in 8 chunks filtered: 0, 2 ms 122 µs.">
<polygon fill="none" stroke="white" points="424.5,-1202 320.5,-1202 320.5,-1148 424.5,-1148 424.5,-1202"/>
<text text-anchor="middle" x="372.5" y="-1186.8" font-family="Times,serif" font-size="14.00" fill="white">Validate</text>
<text text-anchor="middle" x="372.5" y="-1155.8" font-family="Times,serif" font-size="14.00" fill="white">2 ms 122 µs</text>
</a>
</g>
</g>
<!-- 139751712524048&#45;&gt;139751712642640 -->
<g id="edge15" class="edge">
<title>139751712524048&#45;&gt;139751712642640</title>
<path fill="none" stroke="white" d="M370.31,-1202.05C370.65,-1213.1 372.82,-1225.57 379.5,-1235 382.36,-1239.03 385.62,-1242.76 389.19,-1246.22"/>
<polygon fill="white" stroke="white" points="396.9,-1252.91 391.64,-1243.71 389.35,-1246.36 396.9,-1252.91"/>
<text text-anchor="middle" x="480" y="-1223.8" font-family="Times,serif" font-size="14.00" fill="white">2,922,872 row(s)/8 chunk(s)</text>
</g>
<!-- 139751712642320&#45;&gt;139751712524048 -->
<g id="edge16" class="edge">
<title>139751712642320&#45;&gt;139751712524048</title>
<path fill="none" stroke="white" d="M348.89,-1097.25C352.87,-1110.2 357.43,-1125.02 361.47,-1138.15"/>
<polygon fill="white" stroke="white" points="358.16,-1139.28 364.44,-1147.81 364.85,-1137.23 358.16,-1139.28"/>
<text text-anchor="middle" x="460" y="-1118.8" font-family="Times,serif" font-size="14.00" fill="white">2,922,872 row(s)/8 chunk(s)</text>
</g>
<!-- 139751718030416 -->
<g id="node16" class="node">
<title>139751718030416</title>
<g id="a_node16"><a xlink:title="Output: 150000000 rows in 2289 chunks filtered: 0, 3 ms 789 µs.">
<polygon fill="none" stroke="white" points="131,-977 0,-977 0,-863 131,-863 131,-977"/>
<text text-anchor="middle" x="65.5" y="-961.8" font-family="Times,serif" font-size="14.00" fill="white">GetTable</text>
<text text-anchor="middle" x="65.5" y="-946.8" font-family="Times,serif" font-size="14.00" fill="white">(orders)</text>
<text text-anchor="middle" x="65.5" y="-931.8" font-family="Times,serif" font-size="14.00" fill="white">pruned:</text>
<text text-anchor="middle" x="65.5" y="-916.8" font-family="Times,serif" font-size="14.00" fill="white">0/2289 chunk(s)</text>
<text text-anchor="middle" x="65.5" y="-901.8" font-family="Times,serif" font-size="14.00" fill="white">7/9 column(s)</text>
<text text-anchor="middle" x="65.5" y="-870.8" font-family="Times,serif" font-size="14.00" fill="white">3 ms 789 µs</text>
</a>
</g>
</g>
<!-- 139751718030416&#45;&gt;139751712642320 -->
<g id="edge17" class="edge">
<title>139751718030416&#45;&gt;139751712642320</title>
<path fill="none" stroke="white" stroke-width="4.58" d="M64.73,-977.06C67.15,-989.24 71.88,-1001.12 80.5,-1010 100.8,-1030.92 164.97,-1043.78 224.23,-1051.42"/>
<polygon fill="white" stroke="white" stroke-width="4.58" points="224.54,-1051.45 224.04,-1055.43 234.46,-1052.69 224.54,-1051.45"/>
<text text-anchor="middle" x="205.5" y="-998.8" font-family="Times,serif" font-size="14.00" fill="white">150,000,000 row(s)/2,289 chunk(s)</text>
</g>
<!-- 0 -->
<g id="node17" class="node">
<title>0</title>
<polygon fill="none" stroke="white" points="548,-0.5 548,-181.5 869,-181.5 869,-0.5 548,-0.5"/>
<text text-anchor="middle" x="708.5" y="-166.3" font-family="Times,serif" font-size="14.00" fill="white">Total by operator</text>
<polyline fill="none" stroke="white" points="548,-158.5 869,-158.5 "/>
<text text-anchor="end" x="677" y="-143.3" font-family="Times,serif" font-size="14.00" fill="white">JoinHash </text>
<text text-anchor="end" x="677" y="-128.3" font-family="Times,serif" font-size="14.00" fill="white"> AggregateHash </text>
<text text-anchor="end" x="677" y="-113.3" font-family="Times,serif" font-size="14.00" fill="white"> TableScan </text>
<text text-anchor="end" x="677" y="-98.3" font-family="Times,serif" font-size="14.00" fill="white"> Projection </text>
<text text-anchor="end" x="677" y="-83.3" font-family="Times,serif" font-size="14.00" fill="white"> Validate </text>
<text text-anchor="end" x="677" y="-68.3" font-family="Times,serif" font-size="14.00" fill="white"> GetTable </text>
<text text-anchor="end" x="677" y="-53.3" font-family="Times,serif" font-size="14.00" fill="white"> UnionAll </text>
<text text-anchor="end" x="677" y="-38.3" font-family="Times,serif" font-size="14.00" fill="white"> Sort </text>
<text text-anchor="end" x="677" y="-23.3" font-family="Times,serif" font-size="14.00" fill="white"> Alias </text>
<text text-anchor="end" x="677" y="-8.3" font-family="Times,serif" font-size="14.00" fill="white">total</text>
<polyline fill="none" stroke="white" points="685,-0.5 685,-158.5 "/>
<text text-anchor="start" x="693" y="-143.3" font-family="Times,serif" font-size="14.00" fill="white">1 s 379 ms </text>
<text text-anchor="start" x="693" y="-128.3" font-family="Times,serif" font-size="14.00" fill="white"> 481 ms 295 µs </text>
<text text-anchor="start" x="693" y="-113.3" font-family="Times,serif" font-size="14.00" fill="white"> 319 ms 401 µs </text>
<text text-anchor="start" x="693" y="-98.3" font-family="Times,serif" font-size="14.00" fill="white"> 134 ms 89 µs </text>
<text text-anchor="start" x="693" y="-83.3" font-family="Times,serif" font-size="14.00" fill="white"> 31 ms 777 µs </text>
<text text-anchor="start" x="693" y="-68.3" font-family="Times,serif" font-size="14.00" fill="white"> 21 ms 836 µs </text>
<text text-anchor="start" x="693" y="-53.3" font-family="Times,serif" font-size="14.00" fill="white"> 14 ms 843 µs </text>
<text text-anchor="start" x="693" y="-38.3" font-family="Times,serif" font-size="14.00" fill="white"> 29 µs 204 ns </text>
<text text-anchor="start" x="693" y="-23.3" font-family="Times,serif" font-size="14.00" fill="white"> 3 µs 636 ns </text>
<text text-anchor="start" x="693" y="-8.3" font-family="Times,serif" font-size="14.00" fill="white"> 2 s 382 ms </text>
<polyline fill="none" stroke="white" points="816,-0.5 816,-158.5 "/>
<text text-anchor="start" x="824" y="-143.3" font-family="Times,serif" font-size="14.00" fill="white">58 %</text>
<text text-anchor="start" x="824" y="-128.3" font-family="Times,serif" font-size="14.00" fill="white">20 %</text>
<text text-anchor="start" x="824" y="-113.3" font-family="Times,serif" font-size="14.00" fill="white">13 %</text>
<text text-anchor="start" x="824" y="-98.3" font-family="Times,serif" font-size="14.00" fill="white">6 %</text>
<text text-anchor="start" x="824" y="-83.3" font-family="Times,serif" font-size="14.00" fill="white">1 %</text>
<text text-anchor="start" x="824" y="-68.3" font-family="Times,serif" font-size="14.00" fill="white">1 %</text>
<text text-anchor="start" x="824" y="-53.3" font-family="Times,serif" font-size="14.00" fill="white">1 %</text>
<text text-anchor="start" x="824" y="-38.3" font-family="Times,serif" font-size="14.00" fill="white">0 %</text>
<text text-anchor="start" x="824" y="-23.3" font-family="Times,serif" font-size="14.00" fill="white">0 %</text>
<text text-anchor="start" x="824" y="-8.3" font-family="Times,serif" font-size="14.00" fill="white"> </text>
</g>
</g>
</svg>
