<?xml version="1.0" encoding="UTF-8" standalone="no"?>
<!DOCTYPE svg PUBLIC "-//W3C//DTD SVG 1.1//EN"
 "http://www.w3.org/Graphics/SVG/1.1/DTD/svg11.dtd">
<!-- Generated by graphviz version 2.43.0 (0)
 -->
<!-- Title: G Pages: 1 -->
<svg width="1237pt" height="1970pt"
 viewBox="0.00 0.00 1237.00 1970.00" xmlns="http://www.w3.org/2000/svg" xmlns:xlink="http://www.w3.org/1999/xlink">
<g id="graph0" class="graph" transform="scale(1 1) rotate(0) translate(4 1966)">
<title>G</title>
<polygon fill="black" stroke="transparent" points="-4,4 -4,-1966 1233,-1966 1233,4 -4,4"/>
<text text-anchor="middle" x="319.5" y="-1946.8" font-family="Times,serif" font-size="14.00" fill="white">For tooltips with advanced information, hover your mouse over vertices or edge labels.</text>
<!-- 140615354650064 -->
<g id="node1" class="node">
<title>140615354650064</title>
<g id="a_node1"><a xlink:title="Output: 175 rows in 1 chunk, 5 µs 190 ns.">
<polygon fill="none" stroke="white" points="490.5,-1907 279.5,-1907 279.5,-1838 490.5,-1838 490.5,-1907"/>
<text text-anchor="middle" x="385" y="-1891.8" font-family="Times,serif" font-size="14.00" fill="white">Alias</text>
<text text-anchor="middle" x="385" y="-1876.8" font-family="Times,serif" font-size="14.00" fill="white">[nation, o_year, sum_profit]</text>
<text text-anchor="middle" x="385" y="-1845.8" font-family="Times,serif" font-size="14.00" fill="white">5 µs 190 ns</text>
</a>
</g>
</g>
<!-- 140615354649744 -->
<g id="node2" class="node">
<title>140615354649744</title>
<g id="a_node2"><a xlink:title="Output: 175 rows in 1 chunk, 153 µs 588 ns.&#10;Operator step runtimes:&#10; MaterializeSortColumns 33 µs 873 ns&#10; Sort 96 µs 131 ns&#10; TemporaryResultWriting 1 µs 383 ns&#10; WriteOutput 19 µs 25 ns.">
<polygon fill="none" stroke="white" points="443.5,-1787 326.5,-1787 326.5,-1733 443.5,-1733 443.5,-1787"/>
<text text-anchor="middle" x="385" y="-1771.8" font-family="Times,serif" font-size="14.00" fill="white">Sort</text>
<text text-anchor="middle" x="385" y="-1740.8" font-family="Times,serif" font-size="14.00" fill="white">153 µs 588 ns</text>
</a>
</g>
</g>
<!-- 140615354649744&#45;&gt;140615354650064 -->
<g id="edge1" class="edge">
<title>140615354649744&#45;&gt;140615354650064</title>
<path fill="none" stroke="white" d="M385,-1787.19C385,-1799.29 385,-1814 385,-1827.72"/>
<polygon fill="white" stroke="white" points="381.5,-1827.95 385,-1837.95 388.5,-1827.96 381.5,-1827.95"/>
<text text-anchor="middle" x="463" y="-1808.8" font-family="Times,serif" font-size="14.00" fill="white">175 row(s)/1 chunk(s)</text>
</g>
<!-- 140658335603216 -->
<g id="node3" class="node">
<title>140658335603216</title>
<g id="a_node3"><a xlink:title="Output: 175 rows in 1 chunk, 305 ms 482 µs.&#10;Operator step runtimes:&#10; GroupByKeyPartitioning 248 ms 567 µs&#10; Aggregating 56 ms 515 µs&#10; GroupByColumnsWriting 19 µs 477 ns&#10; AggregateColumnsWriting 23 µs 73 ns&#10; OutputWriting 9 µs 347 ns.">
<polygon fill="none" stroke="white" stroke-width="8" points="535.5,-1682 234.5,-1682 234.5,-1568 535.5,-1568 535.5,-1682"/>
<text text-anchor="middle" x="385" y="-1666.8" font-family="Times,serif" font-size="14.00" fill="white">AggregateHash</text>
<text text-anchor="middle" x="385" y="-1651.8" font-family="Times,serif" font-size="14.00" fill="white">GroupBy {n_name,</text>
<text text-anchor="middle" x="385" y="-1636.8" font-family="Times,serif" font-size="14.00" fill="white">SUBSTR(o_orderdate,1,4)}</text>
<text text-anchor="middle" x="385" y="-1621.8" font-family="Times,serif" font-size="14.00" fill="white">SUM(l_extendedprice * (1 &#45; l_discount) &#45;</text>
<text text-anchor="middle" x="385" y="-1606.8" font-family="Times,serif" font-size="14.00" fill="white">ps_supplycost * l_quantity)</text>
<text text-anchor="middle" x="385" y="-1575.8" font-family="Times,serif" font-size="14.00" fill="white">305 ms 482 µs</text>
</a>
</g>
</g>
<!-- 140658335603216&#45;&gt;140615354649744 -->
<g id="edge2" class="edge">
<title>140658335603216&#45;&gt;140615354649744</title>
<path fill="none" stroke="white" d="M385,-1682.02C385,-1695.77 385,-1710.14 385,-1722.69"/>
<polygon fill="white" stroke="white" points="381.5,-1722.75 385,-1732.75 388.5,-1722.75 381.5,-1722.75"/>
<text text-anchor="middle" x="463" y="-1703.8" font-family="Times,serif" font-size="14.00" fill="white">175 row(s)/1 chunk(s)</text>
</g>
<!-- 140615354649424 -->
<g id="node4" class="node">
<title>140615354649424</title>
<g id="a_node4"><a xlink:title="Output: 3257615 rows in 256 chunks, 103 µs 93 ns.">
<polygon fill="none" stroke="white" points="479.5,-1517 290.5,-1517 290.5,-1448 479.5,-1448 479.5,-1517"/>
<text text-anchor="middle" x="385" y="-1501.8" font-family="Times,serif" font-size="14.00" fill="white">Alias</text>
<text text-anchor="middle" x="385" y="-1486.8" font-family="Times,serif" font-size="14.00" fill="white">[nation, o_year, amount]</text>
<text text-anchor="middle" x="385" y="-1455.8" font-family="Times,serif" font-size="14.00" fill="white">103 µs 93 ns</text>
</a>
</g>
</g>
<!-- 140615354649424&#45;&gt;140658335603216 -->
<g id="edge3" class="edge">
<title>140615354649424&#45;&gt;140658335603216</title>
<path fill="none" stroke="white" d="M385,-1517.15C385,-1529.37 385,-1543.63 385,-1557.69"/>
<polygon fill="white" stroke="white" points="381.5,-1557.85 385,-1567.85 388.5,-1557.85 381.5,-1557.85"/>
<text text-anchor="middle" x="494.5" y="-1538.8" font-family="Times,serif" font-size="14.00" fill="white">3,257,615 row(s)/256 chunk(s)</text>
</g>
<!-- 140615354649104 -->
<g id="node5" class="node">
<title>140615354649104</title>
<g id="a_node5"><a xlink:title="Output: 3257615 rows in 256 chunks, 75 ms 314 µs.&#10;Operator step runtimes:&#10; ForwardUnmodifiedColumns 192 µs 351 ns&#10; EvaluateNewColumns 74 ms 505 µs&#10; BuildOutput 518 µs 343 ns.">
<polygon fill="none" stroke="white" stroke-width="4.55" points="441.5,-1397 328.5,-1397 328.5,-1343 441.5,-1343 441.5,-1397"/>
<text text-anchor="middle" x="385" y="-1381.8" font-family="Times,serif" font-size="14.00" fill="white">Projection</text>
<text text-anchor="middle" x="385" y="-1350.8" font-family="Times,serif" font-size="14.00" fill="white">75 ms 314 µs</text>
</a>
</g>
</g>
<!-- 140615354649104&#45;&gt;140615354649424 -->
<g id="edge4" class="edge">
<title>140615354649104&#45;&gt;140615354649424</title>
<path fill="none" stroke="white" d="M385,-1397.19C385,-1409.29 385,-1424 385,-1437.72"/>
<polygon fill="white" stroke="white" points="381.5,-1437.95 385,-1447.95 388.5,-1437.96 381.5,-1437.95"/>
<text text-anchor="middle" x="494.5" y="-1418.8" font-family="Times,serif" font-size="14.00" fill="white">3,257,615 row(s)/256 chunk(s)</text>
</g>
<!-- 140615354648784 -->
<g id="node6" class="node">
<title>140615354648784</title>
<g id="a_node6"><a xlink:title="Output: 3257615 rows in 256 chunks, 36 ms 612 µs.&#10;Chunks: 0 skipped with no results, &#10;0 skipped with all matching, 0 scanned using binary search.">
<polygon fill="none" stroke="white" stroke-width="2.77" points="480.5,-1292 289.5,-1292 289.5,-1208 480.5,-1208 480.5,-1292"/>
<text text-anchor="middle" x="385" y="-1276.8" font-family="Times,serif" font-size="14.00" fill="white">TableScan</text>
<text text-anchor="middle" x="385" y="-1261.8" font-family="Times,serif" font-size="14.00" fill="white">Impl: ColumnVsColumn</text>
<text text-anchor="middle" x="385" y="-1246.8" font-family="Times,serif" font-size="14.00" fill="white">ps_suppkey = l_suppkey</text>
<text text-anchor="middle" x="385" y="-1215.8" font-family="Times,serif" font-size="14.00" fill="white">36 ms 612 µs</text>
</a>
</g>
</g>
<!-- 140615354648784&#45;&gt;140615354649104 -->
<g id="edge5" class="edge">
<title>140615354648784&#45;&gt;140615354649104</title>
<path fill="none" stroke="white" d="M385,-1292.27C385,-1305.36 385,-1319.72 385,-1332.45"/>
<polygon fill="white" stroke="white" points="381.5,-1332.69 385,-1342.69 388.5,-1332.69 381.5,-1332.69"/>
<text text-anchor="middle" x="494.5" y="-1313.8" font-family="Times,serif" font-size="14.00" fill="white">3,257,615 row(s)/256 chunk(s)</text>
</g>
<!-- 140615354648464 -->
<g id="node7" class="node">
<title>140615354648464</title>
<g id="a_node7"><a xlink:title="Output: 13030460 rows in 256 chunks, 68 ms 940 µs.&#10;Operator step runtimes:&#10; LeftSideMaterialize 5 ms 368 µs&#10; RightSideMaterialize 11 ms 640 µs&#10; LeftSideTransform 0 ns&#10; RightSideTransform 0 ns&#10; LeftSidePartition 4 ms 361 µs&#10; RightSidePartition 2 ms 43 µs&#10; LeftSideSortBuckets 655 µs 892 ns&#10; RightSideSortBuckets 1 ms 539 µs&#10; GatherRowIds 2 µs 134 ns&#10; FindJoinPartner 21 ms 419 µs&#10; OutputWriting 20 ms 606 µs.">
<polygon fill="none" stroke="white" stroke-width="4.33" points="490.5,-1157 279.5,-1157 279.5,-1088 490.5,-1088 490.5,-1157"/>
<text text-anchor="middle" x="385" y="-1141.8" font-family="Times,serif" font-size="14.00" fill="white">JoinSimdSortMerge (Inner)</text>
<text text-anchor="middle" x="385" y="-1126.8" font-family="Times,serif" font-size="14.00" fill="white">ps_partkey = l_partkey</text>
<text text-anchor="middle" x="385" y="-1095.8" font-family="Times,serif" font-size="14.00" fill="white">68 ms 940 µs</text>
</a>
</g>
</g>
<!-- 140615354648464&#45;&gt;140615354648784 -->
<g id="edge6" class="edge">
<title>140615354648464&#45;&gt;140615354648784</title>
<path fill="none" stroke="white" stroke-width="4.23" d="M385,-1157.13C385,-1169.51 385,-1183.84 385,-1197.44"/>
<polygon fill="white" stroke="white" stroke-width="4.23" points="381.3,-1197.65 385,-1207.65 388.71,-1197.65 381.3,-1197.65"/>
<text text-anchor="middle" x="499" y="-1178.8" font-family="Times,serif" font-size="14.00" fill="white">13,030,460 row(s)/256 chunk(s)</text>
</g>
<!-- 140615354647184 -->
<g id="node8" class="node">
<title>140615354647184</title>
<g id="a_node8"><a xlink:title="Output: 433988 rows in 256 chunks, 61 ms 569 µs.&#10;Operator step runtimes:&#10; LeftSideMaterialize 24 ms 87 µs&#10; RightSideMaterialize 23 ms 35 µs&#10; LeftSideTransform 0 ns&#10; RightSideTransform 0 ns&#10; LeftSidePartition 3 ms 529 µs&#10; RightSidePartition 1 ms 912 µs&#10; LeftSideSortBuckets 3 ms 150 µs&#10; RightSideSortBuckets 888 µs 949 ns&#10; GatherRowIds 2 µs 164 ns&#10; FindJoinPartner 1 ms 845 µs&#10; OutputWriting 1 ms 376 µs.">
<polygon fill="none" stroke="white" stroke-width="4.05" points="445.5,-917 160.5,-917 160.5,-848 445.5,-848 445.5,-917"/>
<text text-anchor="middle" x="303" y="-901.8" font-family="Times,serif" font-size="14.00" fill="white">JoinSimdSortMerge (Semi Reduction)</text>
<text text-anchor="middle" x="303" y="-886.8" font-family="Times,serif" font-size="14.00" fill="white">ps_partkey = l_partkey</text>
<text text-anchor="middle" x="303" y="-855.8" font-family="Times,serif" font-size="14.00" fill="white">61 ms 569 µs</text>
</a>
</g>
</g>
<!-- 140615354647184&#45;&gt;140615354648464 -->
<g id="edge7" class="edge">
<title>140615354647184&#45;&gt;140615354648464</title>
<path fill="none" stroke="white" d="M314.57,-917.09C329.12,-959.32 354.12,-1031.88 370.09,-1078.22"/>
<polygon fill="white" stroke="white" points="370.09,-1078.24 366.79,-1079.38 373.35,-1087.69 370.09,-1078.24"/>
<text text-anchor="middle" x="457.5" y="-998.8" font-family="Times,serif" font-size="14.00" fill="white">433,988 row(s)/256 chunk(s)</text>
</g>
<!-- 140658336537872 -->
<g id="node9" class="node">
<title>140658336537872</title>
<g id="a_node9"><a xlink:title="Output: 8000000 rows in 123 chunks, 463 µs 751 ns.">
<polygon fill="none" stroke="white" points="119.5,-767 2.5,-767 2.5,-713 119.5,-713 119.5,-767"/>
<text text-anchor="middle" x="61" y="-751.8" font-family="Times,serif" font-size="14.00" fill="white">Validate</text>
<text text-anchor="middle" x="61" y="-720.8" font-family="Times,serif" font-size="14.00" fill="white">463 µs 751 ns</text>
</a>
</g>
</g>
<!-- 140658336537872&#45;&gt;140615354647184 -->
<g id="edge8" class="edge">
<title>140658336537872&#45;&gt;140615354647184</title>
<path fill="none" stroke="white" stroke-width="3.03" d="M59.88,-767.09C60.49,-786.95 64.71,-813.59 81,-830 92.43,-841.51 119.33,-850.93 150.6,-858.42"/>
<polygon fill="white" stroke="white" stroke-width="3.03" points="150.69,-858.44 149.9,-861.85 160.43,-860.69 150.69,-858.44"/>
<text text-anchor="middle" x="190.5" y="-818.8" font-family="Times,serif" font-size="14.00" fill="white">8,000,000 row(s)/123 chunk(s)</text>
</g>
<!-- 140658337461200 -->
<g id="node10" class="node">
<title>140658337461200</title>
<g id="a_node10"><a xlink:title="Output: 8000000 rows in 123 chunks, 354 µs 486 ns.">
<polygon fill="none" stroke="white" points="122,-632 0,-632 0,-518 122,-518 122,-632"/>
<text text-anchor="middle" x="61" y="-616.8" font-family="Times,serif" font-size="14.00" fill="white">GetTable</text>
<text text-anchor="middle" x="61" y="-601.8" font-family="Times,serif" font-size="14.00" fill="white">(partsupp)</text>
<text text-anchor="middle" x="61" y="-586.8" font-family="Times,serif" font-size="14.00" fill="white">pruned:</text>
<text text-anchor="middle" x="61" y="-571.8" font-family="Times,serif" font-size="14.00" fill="white">0/123 chunk(s)</text>
<text text-anchor="middle" x="61" y="-556.8" font-family="Times,serif" font-size="14.00" fill="white">2/5 column(s)</text>
<text text-anchor="middle" x="61" y="-525.8" font-family="Times,serif" font-size="14.00" fill="white">354 µs 486 ns</text>
</a>
</g>
</g>
<!-- 140658337461200&#45;&gt;140658336537872 -->
<g id="edge9" class="edge">
<title>140658337461200&#45;&gt;140658336537872</title>
<path fill="none" stroke="white" stroke-width="3.03" d="M61,-632.1C61,-655.46 61,-681.93 61,-702.68"/>
<polygon fill="white" stroke="white" stroke-width="3.03" points="57.5,-702.97 61,-712.97 64.5,-702.97 57.5,-702.97"/>
<text text-anchor="middle" x="170.5" y="-653.8" font-family="Times,serif" font-size="14.00" fill="white">8,000,000 row(s)/123 chunk(s)</text>
</g>
<!-- 140658336534800 -->
<g id="node11" class="node">
<title>140658336534800</title>
<g id="a_node11"><a xlink:title="Output: 3257615 rows in 256 chunks, 2 ms 252 µs.">
<polygon fill="none" stroke="white" points="362,-767 258,-767 258,-713 362,-713 362,-767"/>
<text text-anchor="middle" x="310" y="-751.8" font-family="Times,serif" font-size="14.00" fill="white">Validate</text>
<text text-anchor="middle" x="310" y="-720.8" font-family="Times,serif" font-size="14.00" fill="white">2 ms 252 µs</text>
</a>
</g>
</g>
<!-- 140658336534800&#45;&gt;140615354647184 -->
<g id="edge10" class="edge">
<title>140658336534800&#45;&gt;140615354647184</title>
<path fill="none" stroke="white" d="M307.47,-767C306.2,-781.17 304.77,-799.04 304,-815 303.65,-822.37 303.41,-830.21 303.25,-837.82"/>
<polygon fill="white" stroke="white" points="303.07,-848 306.74,-838.06 303.24,-838 303.07,-848"/>
<text text-anchor="middle" x="413.5" y="-818.8" font-family="Times,serif" font-size="14.00" fill="white">3,257,615 row(s)/256 chunk(s)</text>
</g>
<!-- 140615354647824 -->
<g id="node20" class="node">
<title>140615354647824</title>
<g id="a_node20"><a xlink:title="Output: 3257615 rows in 256 chunks, 83 ms 18 µs.&#10;Operator step runtimes:&#10; LeftSideMaterialize 61 ms 944 µs&#10; RightSideMaterialize 265 µs 859 ns&#10; LeftSideTransform 0 ns&#10; RightSideTransform 0 ns&#10; LeftSidePartition 2 ms 456 µs&#10; RightSidePartition 2 ms 744 µs&#10; LeftSideSortBuckets 2 ms 157 µs&#10; RightSideSortBuckets 651 µs 864 ns&#10; GatherRowIds 1 µs 833 ns&#10; FindJoinPartner 7 ms 114 µs&#10; OutputWriting 4 ms 578 µs.">
<polygon fill="none" stroke="white" stroke-width="4.79" points="819.5,-917 608.5,-917 608.5,-848 819.5,-848 819.5,-917"/>
<text text-anchor="middle" x="714" y="-901.8" font-family="Times,serif" font-size="14.00" fill="white">JoinSimdSortMerge (Inner)</text>
<text text-anchor="middle" x="714" y="-886.8" font-family="Times,serif" font-size="14.00" fill="white">l_suppkey = s_suppkey</text>
<text text-anchor="middle" x="714" y="-855.8" font-family="Times,serif" font-size="14.00" fill="white">83 ms 18 µs</text>
</a>
</g>
</g>
<!-- 140658336534800&#45;&gt;140615354647824 -->
<g id="edge11" class="edge">
<title>140658336534800&#45;&gt;140615354647824</title>
<path fill="none" stroke="white" d="M362.38,-753.92C406.8,-766.09 471.33,-786.69 523,-815 532.43,-820.17 532.45,-825.04 542,-830 559.71,-839.21 579.31,-847.03 598.76,-853.59"/>
<polygon fill="white" stroke="white" points="598.79,-853.6 597.7,-856.92 608.29,-856.7 598.79,-853.6"/>
<text text-anchor="middle" x="651.5" y="-818.8" font-family="Times,serif" font-size="14.00" fill="white">3,257,615 row(s)/256 chunk(s)</text>
</g>
<!-- 140615354646864 -->
<g id="node12" class="node">
<title>140615354646864</title>
<g id="a_node12"><a xlink:title="Output: 3257615 rows in 256 chunks, 98 ms 464 µs.&#10;Operator step runtimes:&#10; LeftSideMaterialize 13 ms 648 µs&#10; RightSideMaterialize 259 µs 838 ns&#10; LeftSideTransform 0 ns&#10; RightSideTransform 0 ns&#10; LeftSidePartition 48 ms 530 µs&#10; RightSidePartition 2 ms 656 µs&#10; LeftSideSortBuckets 23 ms 882 µs&#10; RightSideSortBuckets 660 µs 981 ns&#10; GatherRowIds 2 µs 144 ns&#10; FindJoinPartner 5 ms 916 µs&#10; OutputWriting 1 ms 271 µs.">
<polygon fill="none" stroke="white" stroke-width="5.21" points="414.5,-609.5 205.5,-609.5 205.5,-540.5 414.5,-540.5 414.5,-609.5"/>
<text text-anchor="middle" x="310" y="-594.3" font-family="Times,serif" font-size="14.00" fill="white">JoinSimdSortMerge (Semi)</text>
<text text-anchor="middle" x="310" y="-579.3" font-family="Times,serif" font-size="14.00" fill="white">l_partkey = p_partkey</text>
<text text-anchor="middle" x="310" y="-548.3" font-family="Times,serif" font-size="14.00" fill="white">98 ms 464 µs</text>
</a>
</g>
</g>
<!-- 140615354646864&#45;&gt;140658336534800 -->
<g id="edge12" class="edge">
<title>140615354646864&#45;&gt;140658336534800</title>
<path fill="none" stroke="white" d="M310,-609.77C310,-636.89 310,-674.9 310,-702.68"/>
<polygon fill="white" stroke="white" points="306.5,-702.78 310,-712.78 313.5,-702.78 306.5,-702.78"/>
<text text-anchor="middle" x="419.5" y="-653.8" font-family="Times,serif" font-size="14.00" fill="white">3,257,615 row(s)/256 chunk(s)</text>
</g>
<!-- 140658337463440 -->
<g id="node13" class="node">
<title>140658337463440</title>
<g id="a_node13"><a xlink:title="Output: 59986052 rows in 916 chunks, 1 ms 463 µs.">
<polygon fill="none" stroke="white" points="250.5,-467 119.5,-467 119.5,-353 250.5,-353 250.5,-467"/>
<text text-anchor="middle" x="185" y="-451.8" font-family="Times,serif" font-size="14.00" fill="white">GetTable</text>
<text text-anchor="middle" x="185" y="-436.8" font-family="Times,serif" font-size="14.00" fill="white">(lineitem)</text>
<text text-anchor="middle" x="185" y="-421.8" font-family="Times,serif" font-size="14.00" fill="white">pruned:</text>
<text text-anchor="middle" x="185" y="-406.8" font-family="Times,serif" font-size="14.00" fill="white">0/916 chunk(s)</text>
<text text-anchor="middle" x="185" y="-391.8" font-family="Times,serif" font-size="14.00" fill="white">10/16 column(s)</text>
<text text-anchor="middle" x="185" y="-360.8" font-family="Times,serif" font-size="14.00" fill="white">1 ms 463 µs</text>
</a>
</g>
</g>
<!-- 140658337463440&#45;&gt;140615354646864 -->
<g id="edge13" class="edge">
<title>140658337463440&#45;&gt;140615354646864</title>
<path fill="none" stroke="white" stroke-width="8" d="M177.18,-467.43C177.88,-478.78 180.38,-490.22 186,-500 193.84,-513.64 205.29,-525.04 218.11,-534.47"/>
<polygon fill="white" stroke="white" stroke-width="8" points="218.47,-534.72 214.5,-540.48 226.71,-540.39 218.47,-534.72"/>
<text text-anchor="middle" x="300" y="-488.8" font-family="Times,serif" font-size="14.00" fill="white">59,986,052 row(s)/916 chunk(s)</text>
</g>
<!-- 140616067917840 -->
<g id="node14" class="node">
<title>140616067917840</title>
<g id="a_node14"><a xlink:title="Output: 108497 rows in 31 chunks, 86 µs 532 ns.">
<polygon fill="none" stroke="white" points="490,-437 382,-437 382,-383 490,-383 490,-437"/>
<text text-anchor="middle" x="436" y="-421.8" font-family="Times,serif" font-size="14.00" fill="white">Validate</text>
<text text-anchor="middle" x="436" y="-390.8" font-family="Times,serif" font-size="14.00" fill="white">86 µs 532 ns</text>
</a>
</g>
</g>
<!-- 140616067917840&#45;&gt;140615354646864 -->
<g id="edge14" class="edge">
<title>140616067917840&#45;&gt;140615354646864</title>
<path fill="none" stroke="white" d="M434.36,-437.11C432.09,-455.97 426.71,-481.31 414,-500 405.16,-513 393.22,-524.48 380.6,-534.28"/>
<polygon fill="white" stroke="white" points="372.22,-540.48 382.34,-537.34 380.26,-534.53 372.22,-540.48"/>
<text text-anchor="middle" x="520" y="-488.8" font-family="Times,serif" font-size="14.00" fill="white">108,497 row(s)/31 chunk(s)</text>
</g>
<!-- 140615354646544 -->
<g id="node15" class="node">
<title>140615354646544</title>
<g id="a_node15"><a xlink:title="Output: 108497 rows in 31 chunks, 2 ms 392 µs.&#10;Chunks: 0 skipped with no results, &#10;0 skipped with all matching, 0 scanned using binary search.">
<polygon fill="none" stroke="white" points="527.5,-302 344.5,-302 344.5,-218 527.5,-218 527.5,-302"/>
<text text-anchor="middle" x="436" y="-286.8" font-family="Times,serif" font-size="14.00" fill="white">TableScan</text>
<text text-anchor="middle" x="436" y="-271.8" font-family="Times,serif" font-size="14.00" fill="white">Impl: ColumnLike</text>
<text text-anchor="middle" x="436" y="-256.8" font-family="Times,serif" font-size="14.00" fill="white">p_name LIKE &#39;%light%&#39;</text>
<text text-anchor="middle" x="436" y="-225.8" font-family="Times,serif" font-size="14.00" fill="white">2 ms 392 µs</text>
</a>
</g>
</g>
<!-- 140615354646544&#45;&gt;140616067917840 -->
<g id="edge15" class="edge">
<title>140615354646544&#45;&gt;140616067917840</title>
<path fill="none" stroke="white" d="M436,-302.23C436,-324.32 436,-351.31 436,-372.62"/>
<polygon fill="white" stroke="white" points="432.5,-372.88 436,-382.88 439.5,-372.88 432.5,-372.88"/>
<text text-anchor="middle" x="534" y="-323.8" font-family="Times,serif" font-size="14.00" fill="white">108,497 row(s)/31 chunk(s)</text>
</g>
<!-- 140658337463888 -->
<g id="node16" class="node">
<title>140658337463888</title>
<g id="a_node16"><a xlink:title="Output: 2000000 rows in 31 chunks, 65 µs 693 ns.">
<polygon fill="none" stroke="white" points="492.5,-140.5 379.5,-140.5 379.5,-26.5 492.5,-26.5 492.5,-140.5"/>
<text text-anchor="middle" x="436" y="-125.3" font-family="Times,serif" font-size="14.00" fill="white">GetTable</text>
<text text-anchor="middle" x="436" y="-110.3" font-family="Times,serif" font-size="14.00" fill="white">(part)</text>
<text text-anchor="middle" x="436" y="-95.3" font-family="Times,serif" font-size="14.00" fill="white">pruned:</text>
<text text-anchor="middle" x="436" y="-80.3" font-family="Times,serif" font-size="14.00" fill="white">0/31 chunk(s)</text>
<text text-anchor="middle" x="436" y="-65.3" font-family="Times,serif" font-size="14.00" fill="white">7/9 column(s)</text>
<text text-anchor="middle" x="436" y="-34.3" font-family="Times,serif" font-size="14.00" fill="white">65 µs 693 ns</text>
</a>
</g>
</g>
<!-- 140658337463888&#45;&gt;140615354646544 -->
<g id="edge16" class="edge">
<title>140658337463888&#45;&gt;140615354646544</title>
<path fill="none" stroke="white" d="M436,-140.67C436,-162.25 436,-186.74 436,-207.83"/>
<polygon fill="white" stroke="white" points="432.5,-207.87 436,-217.87 439.5,-207.87 432.5,-207.87"/>
<text text-anchor="middle" x="541" y="-188.8" font-family="Times,serif" font-size="14.00" fill="white">2,000,000 row(s)/31 chunk(s)</text>
</g>
<!-- 140615354648144 -->
<g id="node17" class="node">
<title>140615354648144</title>
<g id="a_node17"><a xlink:title="Output: 3257615 rows in 64 chunks, 72 ms 540 µs.&#10;Operator step runtimes:&#10; LeftSideMaterialize 3 ms 161 µs&#10; RightSideMaterialize 22 ms 783 µs&#10; LeftSideTransform 0 ns&#10; RightSideTransform 0 ns&#10; LeftSidePartition 7 ms 931 µs&#10; RightSidePartition 2 ms 21 µs&#10; LeftSideSortBuckets 5 ms 751 µs&#10; RightSideSortBuckets 2 ms 516 µs&#10; GatherRowIds 1 µs 904 ns&#10; FindJoinPartner 16 ms 19 µs&#10; OutputWriting 10 ms 667 µs.">
<polygon fill="none" stroke="white" stroke-width="4.45" points="819.5,-1037 608.5,-1037 608.5,-968 819.5,-968 819.5,-1037"/>
<text text-anchor="middle" x="714" y="-1021.8" font-family="Times,serif" font-size="14.00" fill="white">JoinSimdSortMerge (Inner)</text>
<text text-anchor="middle" x="714" y="-1006.8" font-family="Times,serif" font-size="14.00" fill="white">o_orderkey = l_orderkey</text>
<text text-anchor="middle" x="714" y="-975.8" font-family="Times,serif" font-size="14.00" fill="white">72 ms 540 µs</text>
</a>
</g>
</g>
<!-- 140615354648144&#45;&gt;140615354648464 -->
<g id="edge17" class="edge">
<title>140615354648144&#45;&gt;140615354648464</title>
<path fill="none" stroke="white" d="M620.16,-1037.16C578.93,-1051.94 530.39,-1069.35 488.15,-1084.5"/>
<polygon fill="white" stroke="white" points="478.68,-1087.9 489.27,-1087.82 488.09,-1084.53 478.68,-1087.9"/>
<text text-anchor="middle" x="674" y="-1058.8" font-family="Times,serif" font-size="14.00" fill="white">3,257,615 row(s)/64 chunk(s)</text>
</g>
<!-- 140658336535568 -->
<g id="node18" class="node">
<title>140658336535568</title>
<g id="a_node18"><a xlink:title="Output: 15000000 rows in 229 chunks, 2 ms 739 µs.">
<polygon fill="none" stroke="white" points="1049,-909.5 945,-909.5 945,-855.5 1049,-855.5 1049,-909.5"/>
<text text-anchor="middle" x="997" y="-894.3" font-family="Times,serif" font-size="14.00" fill="white">Validate</text>
<text text-anchor="middle" x="997" y="-863.3" font-family="Times,serif" font-size="14.00" fill="white">2 ms 739 µs</text>
</a>
</g>
</g>
<!-- 140658336535568&#45;&gt;140615354648144 -->
<g id="edge18" class="edge">
<title>140658336535568&#45;&gt;140615354648144</title>
<path fill="none" stroke="white" stroke-width="4.58" d="M979.61,-909.51C968.92,-923.54 954.02,-939.99 937,-950 904.68,-969.02 865.88,-981.01 829.78,-988.58"/>
<polygon fill="white" stroke="white" stroke-width="4.58" points="829.48,-988.64 828.69,-984.71 819.67,-990.6 829.48,-988.64"/>
<text text-anchor="middle" x="1070" y="-938.8" font-family="Times,serif" font-size="14.00" fill="white">15,000,000 row(s)/229 chunk(s)</text>
</g>
<!-- 140658337462992 -->
<g id="node19" class="node">
<title>140658337462992</title>
<g id="a_node19"><a xlink:title="Output: 15000000 rows in 229 chunks, 370 µs 606 ns.">
<polygon fill="none" stroke="white" points="1067,-797 945,-797 945,-683 1067,-683 1067,-797"/>
<text text-anchor="middle" x="1006" y="-781.8" font-family="Times,serif" font-size="14.00" fill="white">GetTable</text>
<text text-anchor="middle" x="1006" y="-766.8" font-family="Times,serif" font-size="14.00" fill="white">(orders)</text>
<text text-anchor="middle" x="1006" y="-751.8" font-family="Times,serif" font-size="14.00" fill="white">pruned:</text>
<text text-anchor="middle" x="1006" y="-736.8" font-family="Times,serif" font-size="14.00" fill="white">0/229 chunk(s)</text>
<text text-anchor="middle" x="1006" y="-721.8" font-family="Times,serif" font-size="14.00" fill="white">7/9 column(s)</text>
<text text-anchor="middle" x="1006" y="-690.8" font-family="Times,serif" font-size="14.00" fill="white">370 µs 606 ns</text>
</a>
</g>
</g>
<!-- 140658337462992&#45;&gt;140658336535568 -->
<g id="edge19" class="edge">
<title>140658337462992&#45;&gt;140658336535568</title>
<path fill="none" stroke="white" stroke-width="4.58" d="M1002.39,-797.34C1001.36,-813.43 1000.26,-830.54 999.33,-845.1"/>
<polygon fill="white" stroke="white" stroke-width="4.58" points="995.32,-844.97 998.68,-855.2 1003.32,-845.48 995.32,-844.97"/>
<text text-anchor="middle" x="1115" y="-818.8" font-family="Times,serif" font-size="14.00" fill="white">15,000,000 row(s)/229 chunk(s)</text>
</g>
<!-- 140615354647824&#45;&gt;140615354648144 -->
<g id="edge20" class="edge">
<title>140615354647824&#45;&gt;140615354648144</title>
<path fill="none" stroke="white" d="M714,-917.31C714,-929.78 714,-944.1 714,-957.34"/>
<polygon fill="white" stroke="white" points="714,-967.68 717.5,-957.68 714,-957.68 714,-967.68"/>
<text text-anchor="middle" x="823.5" y="-938.8" font-family="Times,serif" font-size="14.00" fill="white">3,257,615 row(s)/256 chunk(s)</text>
</g>
<!-- 140615354647504 -->
<g id="node21" class="node">
<title>140615354647504</title>
<g id="a_node21"><a xlink:title="Output: 100000 rows in 25 chunks, 15 ms 935 µs.&#10;Operator step runtimes:&#10; LeftSideMaterialize 314 µs 600 ns&#10; RightSideMaterialize 2 µs 825 ns&#10; LeftSideTransform 0 ns&#10; RightSideTransform 0 ns&#10; LeftSidePartition 814 µs 860 ns&#10; RightSidePartition 99 µs 46 ns&#10; LeftSideSortBuckets 736 µs 763 ns&#10; RightSideSortBuckets 2 ms 276 µs&#10; GatherRowIds 2 µs 885 ns&#10; FindJoinPartner 11 ms 193 µs&#10; OutputWriting 340 µs 910 ns.">
<polygon fill="none" stroke="white" points="892.5,-774.5 681.5,-774.5 681.5,-705.5 892.5,-705.5 892.5,-774.5"/>
<text text-anchor="middle" x="787" y="-759.3" font-family="Times,serif" font-size="14.00" fill="white">JoinSimdSortMerge (Inner)</text>
<text text-anchor="middle" x="787" y="-744.3" font-family="Times,serif" font-size="14.00" fill="white">s_nationkey = n_nationkey</text>
<text text-anchor="middle" x="787" y="-713.3" font-family="Times,serif" font-size="14.00" fill="white">15 ms 935 µs</text>
</a>
</g>
</g>
<!-- 140615354647504&#45;&gt;140615354647824 -->
<g id="edge21" class="edge">
<title>140615354647504&#45;&gt;140615354647824</title>
<path fill="none" stroke="white" d="M783.04,-774.71C779.95,-792.06 774.5,-813.07 765,-830 763.08,-833.42 760.87,-836.77 758.47,-840.02"/>
<polygon fill="white" stroke="white" points="752.18,-847.86 761.17,-842.25 758.44,-840.06 752.18,-847.86"/>
<text text-anchor="middle" x="869" y="-818.8" font-family="Times,serif" font-size="14.00" fill="white">100,000 row(s)/25 chunk(s)</text>
</g>
<!-- 140658336535312 -->
<g id="node22" class="node">
<title>140658336535312</title>
<g id="a_node22"><a xlink:title="Output: 100000 rows in 2 chunks, 17 µs 172 ns.">
<polygon fill="none" stroke="white" points="838,-602 730,-602 730,-548 838,-548 838,-602"/>
<text text-anchor="middle" x="784" y="-586.8" font-family="Times,serif" font-size="14.00" fill="white">Validate</text>
<text text-anchor="middle" x="784" y="-555.8" font-family="Times,serif" font-size="14.00" fill="white">17 µs 172 ns</text>
</a>
</g>
</g>
<!-- 140658336535312&#45;&gt;140615354647504 -->
<g id="edge22" class="edge">
<title>140658336535312&#45;&gt;140615354647504</title>
<path fill="none" stroke="white" d="M784.18,-602.09C784.34,-619.83 784.6,-643.83 785,-665 785.19,-674.82 785.44,-685.38 785.71,-695.35"/>
<polygon fill="white" stroke="white" points="785.71,-695.48 782.21,-695.58 785.98,-705.48 785.71,-695.48"/>
<text text-anchor="middle" x="878.5" y="-653.8" font-family="Times,serif" font-size="14.00" fill="white">100,000 row(s)/2 chunk(s)</text>
</g>
<!-- 140612602348432 -->
<g id="node23" class="node">
<title>140612602348432</title>
<g id="a_node23"><a xlink:title="Output: 100000 rows in 2 chunks, 41 µs 798 ns.">
<polygon fill="none" stroke="white" points="840.5,-467 727.5,-467 727.5,-353 840.5,-353 840.5,-467"/>
<text text-anchor="middle" x="784" y="-451.8" font-family="Times,serif" font-size="14.00" fill="white">GetTable</text>
<text text-anchor="middle" x="784" y="-436.8" font-family="Times,serif" font-size="14.00" fill="white">(supplier)</text>
<text text-anchor="middle" x="784" y="-421.8" font-family="Times,serif" font-size="14.00" fill="white">pruned:</text>
<text text-anchor="middle" x="784" y="-406.8" font-family="Times,serif" font-size="14.00" fill="white">0/2 chunk(s)</text>
<text text-anchor="middle" x="784" y="-391.8" font-family="Times,serif" font-size="14.00" fill="white">5/7 column(s)</text>
<text text-anchor="middle" x="784" y="-360.8" font-family="Times,serif" font-size="14.00" fill="white">41 µs 798 ns</text>
</a>
</g>
</g>
<!-- 140612602348432&#45;&gt;140658336535312 -->
<g id="edge23" class="edge">
<title>140612602348432&#45;&gt;140658336535312</title>
<path fill="none" stroke="white" d="M784,-467.1C784,-490.46 784,-516.93 784,-537.68"/>
<polygon fill="white" stroke="white" points="780.5,-537.97 784,-547.97 787.5,-537.97 780.5,-537.97"/>
<text text-anchor="middle" x="877.5" y="-488.8" font-family="Times,serif" font-size="14.00" fill="white">100,000 row(s)/2 chunk(s)</text>
</g>
<!-- 140658336537104 -->
<g id="node24" class="node">
<title>140658336537104</title>
<g id="a_node24"><a xlink:title="Output: 25 rows in 1 chunk, 13 µs 846 ns.">
<polygon fill="none" stroke="white" points="1048,-602 940,-602 940,-548 1048,-548 1048,-602"/>
<text text-anchor="middle" x="994" y="-586.8" font-family="Times,serif" font-size="14.00" fill="white">Validate</text>
<text text-anchor="middle" x="994" y="-555.8" font-family="Times,serif" font-size="14.00" fill="white">13 µs 846 ns</text>
</a>
</g>
</g>
<!-- 140658336537104&#45;&gt;140615354647504 -->
<g id="edge24" class="edge">
<title>140658336537104&#45;&gt;140615354647504</title>
<path fill="none" stroke="white" d="M993.69,-602.27C992.13,-621.71 987.05,-647.71 972,-665 968.59,-668.91 927.77,-685.4 885.33,-701.83"/>
<polygon fill="white" stroke="white" points="875.98,-705.44 886.57,-705.1 885.31,-701.84 875.98,-705.44"/>
<text text-anchor="middle" x="1054.5" y="-653.8" font-family="Times,serif" font-size="14.00" fill="white">25 row(s)/1 chunk(s)</text>
</g>
<!-- 140612602347536 -->
<g id="node25" class="node">
<title>140612602347536</title>
<g id="a_node25"><a xlink:title="Output: 25 rows in 1 chunk, 46 µs 838 ns.">
<polygon fill="none" stroke="white" points="1050.5,-467 937.5,-467 937.5,-353 1050.5,-353 1050.5,-467"/>
<text text-anchor="middle" x="994" y="-451.8" font-family="Times,serif" font-size="14.00" fill="white">GetTable</text>
<text text-anchor="middle" x="994" y="-436.8" font-family="Times,serif" font-size="14.00" fill="white">(nation)</text>
<text text-anchor="middle" x="994" y="-421.8" font-family="Times,serif" font-size="14.00" fill="white">pruned:</text>
<text text-anchor="middle" x="994" y="-406.8" font-family="Times,serif" font-size="14.00" fill="white">0/1 chunk(s)</text>
<text text-anchor="middle" x="994" y="-391.8" font-family="Times,serif" font-size="14.00" fill="white">2/4 column(s)</text>
<text text-anchor="middle" x="994" y="-360.8" font-family="Times,serif" font-size="14.00" fill="white">46 µs 838 ns</text>
</a>
</g>
</g>
<!-- 140612602347536&#45;&gt;140658336537104 -->
<g id="edge25" class="edge">
<title>140612602347536&#45;&gt;140658336537104</title>
<path fill="none" stroke="white" d="M994,-467.1C994,-490.46 994,-516.93 994,-537.68"/>
<polygon fill="white" stroke="white" points="990.5,-537.97 994,-547.97 997.5,-537.97 990.5,-537.97"/>
<text text-anchor="middle" x="1067.5" y="-488.8" font-family="Times,serif" font-size="14.00" fill="white">25 row(s)/1 chunk(s)</text>
</g>
<!-- 0 -->
<g id="node26" class="node">
<title>0</title>
<polygon fill="none" stroke="white" points="511,-0.5 511,-166.5 857,-166.5 857,-0.5 511,-0.5"/>
<text text-anchor="middle" x="684" y="-151.3" font-family="Times,serif" font-size="14.00" fill="white">Total by operator</text>
<polyline fill="none" stroke="white" points="511,-143.5 857,-143.5 "/>
<text text-anchor="end" x="665" y="-128.3" font-family="Times,serif" font-size="14.00" fill="white">JoinSimdSortMerge </text>
<text text-anchor="end" x="665" y="-113.3" font-family="Times,serif" font-size="14.00" fill="white"> AggregateHash </text>
<text text-anchor="end" x="665" y="-98.3" font-family="Times,serif" font-size="14.00" fill="white"> Projection </text>
<text text-anchor="end" x="665" y="-83.3" font-family="Times,serif" font-size="14.00" fill="white"> TableScan </text>
<text text-anchor="end" x="665" y="-68.3" font-family="Times,serif" font-size="14.00" fill="white"> Validate </text>
<text text-anchor="end" x="665" y="-53.3" font-family="Times,serif" font-size="14.00" fill="white"> GetTable </text>
<text text-anchor="end" x="665" y="-38.3" font-family="Times,serif" font-size="14.00" fill="white"> Sort </text>
<text text-anchor="end" x="665" y="-23.3" font-family="Times,serif" font-size="14.00" fill="white"> Alias </text>
<text text-anchor="end" x="665" y="-8.3" font-family="Times,serif" font-size="14.00" fill="white">total</text>
<polyline fill="none" stroke="white" points="673,-0.5 673,-143.5 "/>
<text text-anchor="start" x="681" y="-128.3" font-family="Times,serif" font-size="14.00" fill="white">400 ms 466 µs </text>
<text text-anchor="start" x="681" y="-113.3" font-family="Times,serif" font-size="14.00" fill="white"> 305 ms 482 µs </text>
<text text-anchor="start" x="681" y="-98.3" font-family="Times,serif" font-size="14.00" fill="white"> 75 ms 314 µs </text>
<text text-anchor="start" x="681" y="-83.3" font-family="Times,serif" font-size="14.00" fill="white"> 39 ms 4 µs </text>
<text text-anchor="start" x="681" y="-68.3" font-family="Times,serif" font-size="14.00" fill="white"> 5 ms 573 µs </text>
<text text-anchor="start" x="681" y="-53.3" font-family="Times,serif" font-size="14.00" fill="white"> 2 ms 343 µs </text>
<text text-anchor="start" x="681" y="-38.3" font-family="Times,serif" font-size="14.00" fill="white"> 153 µs 588 ns </text>
<text text-anchor="start" x="681" y="-23.3" font-family="Times,serif" font-size="14.00" fill="white"> 108 µs 283 ns </text>
<text text-anchor="start" x="681" y="-8.3" font-family="Times,serif" font-size="14.00" fill="white"> 828 ms 442 µs </text>
<polyline fill="none" stroke="white" points="804,-0.5 804,-143.5 "/>
<text text-anchor="start" x="812" y="-128.3" font-family="Times,serif" font-size="14.00" fill="white">48 %</text>
<text text-anchor="start" x="812" y="-113.3" font-family="Times,serif" font-size="14.00" fill="white">37 %</text>
<text text-anchor="start" x="812" y="-98.3" font-family="Times,serif" font-size="14.00" fill="white">9 %</text>
<text text-anchor="start" x="812" y="-83.3" font-family="Times,serif" font-size="14.00" fill="white">5 %</text>
<text text-anchor="start" x="812" y="-68.3" font-family="Times,serif" font-size="14.00" fill="white">1 %</text>
<text text-anchor="start" x="812" y="-53.3" font-family="Times,serif" font-size="14.00" fill="white">0 %</text>
<text text-anchor="start" x="812" y="-38.3" font-family="Times,serif" font-size="14.00" fill="white">0 %</text>
<text text-anchor="start" x="812" y="-23.3" font-family="Times,serif" font-size="14.00" fill="white">0 %</text>
<text text-anchor="start" x="812" y="-8.3" font-family="Times,serif" font-size="14.00" fill="white"> </text>
</g>
</g>
</svg>
