<?xml version="1.0" encoding="UTF-8" standalone="no"?>
<!DOCTYPE svg PUBLIC "-//W3C//DTD SVG 1.1//EN"
 "http://www.w3.org/Graphics/SVG/1.1/DTD/svg11.dtd">
<!-- Generated by graphviz version 2.43.0 (0)
 -->
<!-- Title: G Pages: 1 -->
<svg width="1118pt" height="2303pt"
 viewBox="0.00 0.00 1117.50 2303.00" xmlns="http://www.w3.org/2000/svg" xmlns:xlink="http://www.w3.org/1999/xlink">
<g id="graph0" class="graph" transform="scale(1 1) rotate(0) translate(4 2299)">
<title>G</title>
<polygon fill="black" stroke="transparent" points="-4,4 -4,-2299 1113.5,-2299 1113.5,4 -4,4"/>
<text text-anchor="middle" x="319.5" y="-2279.8" font-family="Times,serif" font-size="14.00" fill="white">For tooltips with advanced information, hover your mouse over vertices or edge labels.</text>
<!-- 140658679830032 -->
<g id="node1" class="node">
<title>140658679830032</title>
<g id="a_node1"><a xlink:title="Output: 100 rows in 1 chunk, 13 µs 254 ns.&#10;Operator step runtimes:&#10; ForwardUnmodifiedColumns 4 µs 909 ns&#10; EvaluateNewColumns 771 ns&#10; BuildOutput 5 µs 541 ns.">
<polygon fill="none" stroke="white" points="510.5,-2240 402.5,-2240 402.5,-2186 510.5,-2186 510.5,-2240"/>
<text text-anchor="middle" x="456.5" y="-2224.8" font-family="Times,serif" font-size="14.00" fill="white">Projection</text>
<text text-anchor="middle" x="456.5" y="-2193.8" font-family="Times,serif" font-size="14.00" fill="white">13 µs 254 ns</text>
</a>
</g>
</g>
<!-- 140658679835664 -->
<g id="node2" class="node">
<title>140658679835664</title>
<g id="a_node2"><a xlink:title="Output: 100 rows in 1 chunk, 14 µs 478 ns.">
<polygon fill="none" stroke="white" points="510.5,-2135 402.5,-2135 402.5,-2081 510.5,-2081 510.5,-2135"/>
<text text-anchor="middle" x="456.5" y="-2119.8" font-family="Times,serif" font-size="14.00" fill="white">Limit</text>
<text text-anchor="middle" x="456.5" y="-2088.8" font-family="Times,serif" font-size="14.00" fill="white">14 µs 478 ns</text>
</a>
</g>
</g>
<!-- 140658679835664&#45;&gt;140658679830032 -->
<g id="edge1" class="edge">
<title>140658679835664&#45;&gt;140658679830032</title>
<path fill="none" stroke="white" d="M456.5,-2135.26C456.5,-2147.49 456.5,-2162.24 456.5,-2175.52"/>
<polygon fill="white" stroke="white" points="453,-2175.79 456.5,-2185.79 460,-2175.79 453,-2175.79"/>
<text text-anchor="middle" x="534.5" y="-2156.8" font-family="Times,serif" font-size="14.00" fill="white">100 row(s)/1 chunk(s)</text>
</g>
<!-- 140658679830352 -->
<g id="node3" class="node">
<title>140658679830352</title>
<g id="a_node3"><a xlink:title="Output: 4727 rows in 1 chunk, 7 ms 67 µs.&#10;Operator step runtimes:&#10; MaterializeSortColumns 2 ms 52 µs&#10; Sort 4 ms 410 µs&#10; TemporaryResultWriting 25 µs 346 ns&#10; WriteOutput 488 µs 427 ns.">
<polygon fill="none" stroke="white" stroke-width="6.06" points="504,-2030 409,-2030 409,-1976 504,-1976 504,-2030"/>
<text text-anchor="middle" x="456.5" y="-2014.8" font-family="Times,serif" font-size="14.00" fill="white">Sort</text>
<text text-anchor="middle" x="456.5" y="-1983.8" font-family="Times,serif" font-size="14.00" fill="white">7 ms 67 µs</text>
</a>
</g>
</g>
<!-- 140658679830352&#45;&gt;140658679835664 -->
<g id="edge2" class="edge">
<title>140658679830352&#45;&gt;140658679835664</title>
<path fill="none" stroke="white" d="M456.5,-2030.26C456.5,-2042.49 456.5,-2057.24 456.5,-2070.52"/>
<polygon fill="white" stroke="white" points="453,-2070.79 456.5,-2080.79 460,-2070.79 453,-2070.79"/>
<text text-anchor="middle" x="541" y="-2051.8" font-family="Times,serif" font-size="14.00" fill="white">4,727 row(s)/1 chunk(s)</text>
</g>
<!-- 140658679829712 -->
<g id="node4" class="node">
<title>140658679829712</title>
<g id="a_node4"><a xlink:title="Output: 4727 rows in 9 chunks, 5 ms 845 µs.&#10;Operator step runtimes:&#10; LeftSideMaterialize 464 µs 642 ns&#10; RightSideMaterialize 53 µs 561 ns&#10; LeftSideTransform 0 ns&#10; RightSideTransform 0 ns&#10; LeftSidePartition 214 µs 693 ns&#10; RightSidePartition 223 µs 589 ns&#10; LeftSideSortBuckets 627 µs 778 ns&#10; RightSideSortBuckets 613 µs 292 ns&#10; GatherRowIds 961 ns&#10; FindJoinPartner 3 ms 347 µs&#10; OutputWriting 241 µs 523 ns.">
<polygon fill="none" stroke="white" stroke-width="5.59" points="596,-1925 317,-1925 317,-1841 596,-1841 596,-1925"/>
<text text-anchor="middle" x="456.5" y="-1909.8" font-family="Times,serif" font-size="14.00" fill="white">JoinSimdSortMerge (Semi)</text>
<text text-anchor="middle" x="456.5" y="-1894.8" font-family="Times,serif" font-size="14.00" fill="white">ps_supplycost = MIN(ps_supplycost)</text>
<text text-anchor="middle" x="456.5" y="-1879.8" font-family="Times,serif" font-size="14.00" fill="white">AND p_partkey = ps_partkey</text>
<text text-anchor="middle" x="456.5" y="-1848.8" font-family="Times,serif" font-size="14.00" fill="white">5 ms 845 µs</text>
</a>
</g>
</g>
<!-- 140658679829712&#45;&gt;140658679830352 -->
<g id="edge3" class="edge">
<title>140658679829712&#45;&gt;140658679830352</title>
<path fill="none" stroke="white" d="M456.5,-1925.27C456.5,-1938.36 456.5,-1952.72 456.5,-1965.45"/>
<polygon fill="white" stroke="white" points="453,-1965.69 456.5,-1975.69 460,-1965.69 453,-1965.69"/>
<text text-anchor="middle" x="541" y="-1946.8" font-family="Times,serif" font-size="14.00" fill="white">4,727 row(s)/9 chunk(s)</text>
</g>
<!-- 140658679828432 -->
<g id="node5" class="node">
<title>140658679828432</title>
<g id="a_node5"><a xlink:title="Output: 6413 rows in 13 chunks, 5 ms 138 µs.&#10;Operator step runtimes:&#10; LeftSideMaterialize 747 µs 924 ns&#10; RightSideMaterialize 413 µs 726 ns&#10; LeftSideTransform 0 ns&#10; RightSideTransform 0 ns&#10; LeftSidePartition 1 ms 61 µs&#10; RightSidePartition 937 µs 931 ns&#10; LeftSideSortBuckets 628 µs 219 ns&#10; RightSideSortBuckets 615 µs 716 ns&#10; GatherRowIds 1 µs 684 ns&#10; FindJoinPartner 374 µs 563 ns&#10; OutputWriting 264 µs 576 ns.">
<polygon fill="none" stroke="white" stroke-width="5.28" points="426,-1790 215,-1790 215,-1721 426,-1721 426,-1790"/>
<text text-anchor="middle" x="320.5" y="-1774.8" font-family="Times,serif" font-size="14.00" fill="white">JoinSimdSortMerge (Inner)</text>
<text text-anchor="middle" x="320.5" y="-1759.8" font-family="Times,serif" font-size="14.00" fill="white">ps_partkey = p_partkey</text>
<text text-anchor="middle" x="320.5" y="-1728.8" font-family="Times,serif" font-size="14.00" fill="white">5 ms 138 µs</text>
</a>
</g>
</g>
<!-- 140658679828432&#45;&gt;140658679829712 -->
<g id="edge4" class="edge">
<title>140658679828432&#45;&gt;140658679829712</title>
<path fill="none" stroke="white" d="M349.58,-1790.32C359.37,-1801.12 370.59,-1812.88 381.5,-1823 385.52,-1826.73 389.76,-1830.48 394.09,-1834.19"/>
<polygon fill="white" stroke="white" points="394.3,-1834.37 392.05,-1837.05 401.96,-1840.8 394.3,-1834.37"/>
<text text-anchor="middle" x="470.5" y="-1811.8" font-family="Times,serif" font-size="14.00" fill="white">6,413 row(s)/13 chunk(s)</text>
</g>
<!-- 140658679828112 -->
<g id="node6" class="node">
<title>140658679828112</title>
<g id="a_node6"><a xlink:title="Output: 6413 rows in 13 chunks, 4 ms 863 µs.&#10;Operator step runtimes:&#10; LeftSideMaterialize 357 µs 250 ns&#10; RightSideMaterialize 226 µs 906 ns&#10; LeftSideTransform 0 ns&#10; RightSideTransform 0 ns&#10; LeftSidePartition 892 µs 94 ns&#10; RightSidePartition 1 ms 304 µs&#10; LeftSideSortBuckets 626 µs 236 ns&#10; RightSideSortBuckets 621 µs 416 ns&#10; GatherRowIds 1 µs 252 ns&#10; FindJoinPartner 511 µs 651 ns&#10; OutputWriting 207 µs 639 ns.">
<polygon fill="none" stroke="white" stroke-width="5.14" points="426,-1601 215,-1601 215,-1532 426,-1532 426,-1601"/>
<text text-anchor="middle" x="320.5" y="-1585.8" font-family="Times,serif" font-size="14.00" fill="white">JoinSimdSortMerge (Inner)</text>
<text text-anchor="middle" x="320.5" y="-1570.8" font-family="Times,serif" font-size="14.00" fill="white">ps_suppkey = s_suppkey</text>
<text text-anchor="middle" x="320.5" y="-1539.8" font-family="Times,serif" font-size="14.00" fill="white">4 ms 863 µs</text>
</a>
</g>
</g>
<!-- 140658679828112&#45;&gt;140658679828432 -->
<g id="edge5" class="edge">
<title>140658679828112&#45;&gt;140658679828432</title>
<path fill="none" stroke="white" d="M320.5,-1601.36C320.5,-1631.95 320.5,-1677.13 320.5,-1710.5"/>
<polygon fill="white" stroke="white" points="320.5,-1710.89 317,-1710.89 320.5,-1720.89 320.5,-1710.89"/>
<text text-anchor="middle" x="409.5" y="-1657.3" font-family="Times,serif" font-size="14.00" fill="white">6,413 row(s)/13 chunk(s)</text>
</g>
<!-- 140658679833360 -->
<g id="node7" class="node">
<title>140658679833360</title>
<g id="a_node7"><a xlink:title="Output: 6413 rows in 13 chunks, 65 µs 944 ns.">
<polygon fill="none" stroke="white" points="529.5,-1481 421.5,-1481 421.5,-1427 529.5,-1427 529.5,-1481"/>
<text text-anchor="middle" x="475.5" y="-1465.8" font-family="Times,serif" font-size="14.00" fill="white">Validate</text>
<text text-anchor="middle" x="475.5" y="-1434.8" font-family="Times,serif" font-size="14.00" fill="white">65 µs 944 ns</text>
</a>
</g>
</g>
<!-- 140658679833360&#45;&gt;140658679828112 -->
<g id="edge6" class="edge">
<title>140658679833360&#45;&gt;140658679828112</title>
<path fill="none" stroke="white" d="M438.77,-1481.19C419.96,-1494.6 396.67,-1511.2 375.75,-1526.12"/>
<polygon fill="white" stroke="white" points="375.7,-1526.15 373.67,-1523.3 367.55,-1531.95 375.7,-1526.15"/>
<text text-anchor="middle" x="500.5" y="-1502.8" font-family="Times,serif" font-size="14.00" fill="white">6,413 row(s)/13 chunk(s)</text>
</g>
<!-- 140658679827792 -->
<g id="node8" class="node">
<title>140658679827792</title>
<g id="a_node8"><a xlink:title="Output: 6413 rows in 13 chunks, 8 ms 342 µs.&#10;Operator step runtimes:&#10; LeftSideMaterialize 1 ms 739 µs&#10; RightSideMaterialize 220 µs 945 ns&#10; LeftSideTransform 0 ns&#10; RightSideTransform 0 ns&#10; LeftSidePartition 1 ms 833 µs&#10; RightSidePartition 1 ms 472 µs&#10; LeftSideSortBuckets 947 µs 529 ns&#10; RightSideSortBuckets 930 µs 947 ns&#10; GatherRowIds 1 µs 12 ns&#10; FindJoinPartner 914 µs 237 ns&#10; OutputWriting 137 µs 859 ns.">
<polygon fill="none" stroke="white" stroke-width="6.47" points="617,-1376 332,-1376 332,-1307 617,-1307 617,-1376"/>
<text text-anchor="middle" x="474.5" y="-1360.8" font-family="Times,serif" font-size="14.00" fill="white">JoinSimdSortMerge (Semi Reduction)</text>
<text text-anchor="middle" x="474.5" y="-1345.8" font-family="Times,serif" font-size="14.00" fill="white">ps_suppkey = s_suppkey</text>
<text text-anchor="middle" x="474.5" y="-1314.8" font-family="Times,serif" font-size="14.00" fill="white">8 ms 342 µs</text>
</a>
</g>
</g>
<!-- 140658679827792&#45;&gt;140658679833360 -->
<g id="edge7" class="edge">
<title>140658679827792&#45;&gt;140658679833360</title>
<path fill="none" stroke="white" d="M474.81,-1376.25C474.92,-1389.07 475.05,-1403.73 475.17,-1416.77"/>
<polygon fill="white" stroke="white" points="471.67,-1416.85 475.26,-1426.81 478.67,-1416.78 471.67,-1416.85"/>
<text text-anchor="middle" x="563.5" y="-1397.8" font-family="Times,serif" font-size="14.00" fill="white">6,413 row(s)/13 chunk(s)</text>
</g>
<!-- 140658679818832 -->
<g id="node9" class="node">
<title>140658679818832</title>
<g id="a_node9"><a xlink:title="Output: 31860 rows in 58 chunks, 15 ms 500 µs.&#10;Operator step runtimes:&#10; LeftSideMaterialize 1 ms 755 µs&#10; RightSideMaterialize 410 µs 691 ns&#10; LeftSideTransform 0 ns&#10; RightSideTransform 0 ns&#10; LeftSidePartition 5 ms 93 µs&#10; RightSidePartition 1 ms 253 µs&#10; LeftSideSortBuckets 3 ms 426 µs&#10; RightSideSortBuckets 975 µs 341 ns&#10; GatherRowIds 5 µs 30 ns&#10; FindJoinPartner 955 µs 593 ns&#10; OutputWriting 661 µs 312 ns.">
<polygon fill="none" stroke="white" stroke-width="8" points="722,-1256 437,-1256 437,-1187 722,-1187 722,-1256"/>
<text text-anchor="middle" x="579.5" y="-1240.8" font-family="Times,serif" font-size="14.00" fill="white">JoinSimdSortMerge (Semi Reduction)</text>
<text text-anchor="middle" x="579.5" y="-1225.8" font-family="Times,serif" font-size="14.00" fill="white">ps_partkey = p_partkey</text>
<text text-anchor="middle" x="579.5" y="-1194.8" font-family="Times,serif" font-size="14.00" fill="white">15 ms 500 µs</text>
</a>
</g>
</g>
<!-- 140658679818832&#45;&gt;140658679827792 -->
<g id="edge8" class="edge">
<title>140658679818832&#45;&gt;140658679827792</title>
<path fill="none" stroke="white" d="M537.48,-1256.03C531.19,-1261.76 524.98,-1267.85 519.5,-1274 512.82,-1281.49 506.34,-1290.03 500.47,-1298.43"/>
<polygon fill="white" stroke="white" points="500.44,-1298.47 497.55,-1296.51 494.82,-1306.75 500.44,-1298.47"/>
<text text-anchor="middle" x="613" y="-1277.8" font-family="Times,serif" font-size="14.00" fill="white">31,860 row(s)/58 chunk(s)</text>
</g>
<!-- 140658679829392 -->
<g id="node27" class="node">
<title>140658679829392</title>
<g id="a_node27"><a xlink:title="Output: 6413 rows in 13 chunks, 8 ms 331 µs.&#10;Operator step runtimes:&#10; LeftSideMaterialize 1 ms 678 µs&#10; RightSideMaterialize 221 µs 235 ns&#10; LeftSideTransform 0 ns&#10; RightSideTransform 0 ns&#10; LeftSidePartition 1 ms 851 µs&#10; RightSidePartition 1 ms 488 µs&#10; LeftSideSortBuckets 922 µs 91 ns&#10; RightSideSortBuckets 926 µs 179 ns&#10; GatherRowIds 1 µs 593 ns&#10; FindJoinPartner 943 µs 381 ns&#10; OutputWriting 138 µs 620 ns.">
<polygon fill="none" stroke="white" stroke-width="6.47" points="844,-1376 635,-1376 635,-1307 844,-1307 844,-1376"/>
<text text-anchor="middle" x="739.5" y="-1360.8" font-family="Times,serif" font-size="14.00" fill="white">JoinSimdSortMerge (Semi)</text>
<text text-anchor="middle" x="739.5" y="-1345.8" font-family="Times,serif" font-size="14.00" fill="white">ps_suppkey = s_suppkey</text>
<text text-anchor="middle" x="739.5" y="-1314.8" font-family="Times,serif" font-size="14.00" fill="white">8 ms 331 µs</text>
</a>
</g>
</g>
<!-- 140658679818832&#45;&gt;140658679829392 -->
<g id="edge9" class="edge">
<title>140658679818832&#45;&gt;140658679829392</title>
<path fill="none" stroke="white" d="M682.01,-1256.05C690.83,-1261.25 699.17,-1267.21 706.5,-1274 713.65,-1280.63 719.46,-1289.16 724.1,-1297.88"/>
<polygon fill="white" stroke="white" points="724.14,-1297.97 720.99,-1299.5 728.51,-1306.96 724.14,-1297.97"/>
<text text-anchor="middle" x="811" y="-1277.8" font-family="Times,serif" font-size="14.00" fill="white">31,860 row(s)/58 chunk(s)</text>
</g>
<!-- 140658680723536 -->
<g id="node10" class="node">
<title>140658680723536</title>
<g id="a_node10"><a xlink:title="Output: 8000000 rows in 123 chunks, 276 µs 188 ns.">
<polygon fill="none" stroke="white" points="640.5,-1097 518.5,-1097 518.5,-983 640.5,-983 640.5,-1097"/>
<text text-anchor="middle" x="579.5" y="-1081.8" font-family="Times,serif" font-size="14.00" fill="white">GetTable</text>
<text text-anchor="middle" x="579.5" y="-1066.8" font-family="Times,serif" font-size="14.00" fill="white">(partsupp)</text>
<text text-anchor="middle" x="579.5" y="-1051.8" font-family="Times,serif" font-size="14.00" fill="white">pruned:</text>
<text text-anchor="middle" x="579.5" y="-1036.8" font-family="Times,serif" font-size="14.00" fill="white">0/123 chunk(s)</text>
<text text-anchor="middle" x="579.5" y="-1021.8" font-family="Times,serif" font-size="14.00" fill="white">2/5 column(s)</text>
<text text-anchor="middle" x="579.5" y="-990.8" font-family="Times,serif" font-size="14.00" fill="white">276 µs 188 ns</text>
</a>
</g>
</g>
<!-- 140658680723536&#45;&gt;140658679818832 -->
<g id="edge10" class="edge">
<title>140658680723536&#45;&gt;140658679818832</title>
<path fill="none" stroke="white" stroke-width="8" d="M579.5,-1097.3C579.5,-1122.92 579.5,-1152.77 579.5,-1176.68"/>
<polygon fill="white" stroke="white" stroke-width="8" points="579.5,-1176.87 572.5,-1176.87 579.5,-1186.87 579.5,-1176.87"/>
<text text-anchor="middle" x="689" y="-1138.3" font-family="Times,serif" font-size="14.00" fill="white">8,000,000 row(s)/123 chunk(s)</text>
</g>
<!-- 140658679835920 -->
<g id="node11" class="node">
<title>140658679835920</title>
<g id="a_node11"><a xlink:title="Output: 7965 rows in 31 chunks, 59 µs 943 ns.">
<polygon fill="none" stroke="white" points="149.5,-1067 41.5,-1067 41.5,-1013 149.5,-1013 149.5,-1067"/>
<text text-anchor="middle" x="95.5" y="-1051.8" font-family="Times,serif" font-size="14.00" fill="white">Validate</text>
<text text-anchor="middle" x="95.5" y="-1020.8" font-family="Times,serif" font-size="14.00" fill="white">59 µs 943 ns</text>
</a>
</g>
</g>
<!-- 140658679835920&#45;&gt;140658679828432 -->
<g id="edge12" class="edge">
<title>140658679835920&#45;&gt;140658679828432</title>
<path fill="none" stroke="white" d="M92.66,-1067.12C89.11,-1102.03 83.5,-1165.84 83.5,-1220.5 83.5,-1220.5 83.5,-1220.5 83.5,-1567.5 83.5,-1638.69 150.21,-1686.97 212.85,-1716.62"/>
<polygon fill="white" stroke="white" points="222.05,-1720.86 214.43,-1713.5 212.97,-1716.68 222.05,-1720.86"/>
<text text-anchor="middle" x="172.5" y="-1397.8" font-family="Times,serif" font-size="14.00" fill="white">7,965 row(s)/31 chunk(s)</text>
</g>
<!-- 140658679835920&#45;&gt;140658679818832 -->
<g id="edge11" class="edge">
<title>140658679835920&#45;&gt;140658679818832</title>
<path fill="none" stroke="white" d="M101.08,-1067.01C109.07,-1097.19 126.89,-1145.77 162.5,-1169 185.61,-1184.08 371.09,-1183.02 426.87,-1187.25"/>
<polygon fill="white" stroke="white" points="436.94,-1188.27 427.35,-1183.78 426.99,-1187.26 436.94,-1188.27"/>
<text text-anchor="middle" x="251.5" y="-1138.3" font-family="Times,serif" font-size="14.00" fill="white">7,965 row(s)/31 chunk(s)</text>
</g>
<!-- 140658679825232 -->
<g id="node12" class="node">
<title>140658679825232</title>
<g id="a_node12"><a xlink:title="Output: 7965 rows in 31 chunks, 201 µs 889 ns.&#10;Chunks: 0 skipped with no results, &#10;0 skipped with all matching, 0 scanned using binary search.">
<polygon fill="none" stroke="white" points="191,-932 0,-932 0,-848 191,-848 191,-932"/>
<text text-anchor="middle" x="95.5" y="-916.8" font-family="Times,serif" font-size="14.00" fill="white">TableScan</text>
<text text-anchor="middle" x="95.5" y="-901.8" font-family="Times,serif" font-size="14.00" fill="white">Impl: ColumnLike</text>
<text text-anchor="middle" x="95.5" y="-886.8" font-family="Times,serif" font-size="14.00" fill="white">p_type LIKE &#39;%COPPER&#39;</text>
<text text-anchor="middle" x="95.5" y="-855.8" font-family="Times,serif" font-size="14.00" fill="white">201 µs 889 ns</text>
</a>
</g>
</g>
<!-- 140658679825232&#45;&gt;140658679835920 -->
<g id="edge13" class="edge">
<title>140658679825232&#45;&gt;140658679835920</title>
<path fill="none" stroke="white" d="M95.5,-932.23C95.5,-954.32 95.5,-981.31 95.5,-1002.62"/>
<polygon fill="white" stroke="white" points="92,-1002.88 95.5,-1012.88 99,-1002.88 92,-1002.88"/>
<text text-anchor="middle" x="184.5" y="-953.8" font-family="Times,serif" font-size="14.00" fill="white">7,965 row(s)/31 chunk(s)</text>
</g>
<!-- 140658679816592 -->
<g id="node13" class="node">
<title>140658679816592</title>
<g id="a_node13"><a xlink:title="Output: 39997 rows in 31 chunks, 194 µs 465 ns.&#10;Chunks: 0 skipped with no results, &#10;0 skipped with all matching, 0 scanned using binary search.">
<polygon fill="none" stroke="white" points="180,-782 11,-782 11,-698 180,-698 180,-782"/>
<text text-anchor="middle" x="95.5" y="-766.8" font-family="Times,serif" font-size="14.00" fill="white">TableScan</text>
<text text-anchor="middle" x="95.5" y="-751.8" font-family="Times,serif" font-size="14.00" fill="white">Impl: ColumnVsValue</text>
<text text-anchor="middle" x="95.5" y="-736.8" font-family="Times,serif" font-size="14.00" fill="white">p_size = 20</text>
<text text-anchor="middle" x="95.5" y="-705.8" font-family="Times,serif" font-size="14.00" fill="white">194 µs 465 ns</text>
</a>
</g>
</g>
<!-- 140658679816592&#45;&gt;140658679825232 -->
<g id="edge14" class="edge">
<title>140658679816592&#45;&gt;140658679825232</title>
<path fill="none" stroke="white" d="M95.5,-782.23C95.5,-799.47 95.5,-819.68 95.5,-837.85"/>
<polygon fill="white" stroke="white" points="92,-837.99 95.5,-847.99 99,-837.99 92,-837.99"/>
<text text-anchor="middle" x="189" y="-818.8" font-family="Times,serif" font-size="14.00" fill="white">39,997 row(s)/31 chunk(s)</text>
</g>
<!-- 140658680723984 -->
<g id="node14" class="node">
<title>140658680723984</title>
<g id="a_node14"><a xlink:title="Output: 2000000 rows in 31 chunks, 63 µs 910 ns.">
<polygon fill="none" stroke="white" points="152,-632 39,-632 39,-518 152,-518 152,-632"/>
<text text-anchor="middle" x="95.5" y="-616.8" font-family="Times,serif" font-size="14.00" fill="white">GetTable</text>
<text text-anchor="middle" x="95.5" y="-601.8" font-family="Times,serif" font-size="14.00" fill="white">(part)</text>
<text text-anchor="middle" x="95.5" y="-586.8" font-family="Times,serif" font-size="14.00" fill="white">pruned:</text>
<text text-anchor="middle" x="95.5" y="-571.8" font-family="Times,serif" font-size="14.00" fill="white">0/31 chunk(s)</text>
<text text-anchor="middle" x="95.5" y="-556.8" font-family="Times,serif" font-size="14.00" fill="white">5/9 column(s)</text>
<text text-anchor="middle" x="95.5" y="-525.8" font-family="Times,serif" font-size="14.00" fill="white">63 µs 910 ns</text>
</a>
</g>
</g>
<!-- 140658680723984&#45;&gt;140658679816592 -->
<g id="edge15" class="edge">
<title>140658680723984&#45;&gt;140658679816592</title>
<path fill="none" stroke="white" stroke-width="4.58" d="M95.5,-632.1C95.5,-650.19 95.5,-670.13 95.5,-687.85"/>
<polygon fill="white" stroke="white" stroke-width="4.58" points="91.49,-687.99 95.5,-697.99 99.51,-687.99 91.49,-687.99"/>
<text text-anchor="middle" x="200.5" y="-653.8" font-family="Times,serif" font-size="14.00" fill="white">2,000,000 row(s)/31 chunk(s)</text>
</g>
<!-- 140658679827472 -->
<g id="node15" class="node">
<title>140658679827472</title>
<g id="a_node15"><a xlink:title="Output: 20042 rows in 5 chunks, 2 ms 797 µs.&#10;Operator step runtimes:&#10; LeftSideMaterialize 83 µs 687 ns&#10; RightSideMaterialize 7 µs 755 ns&#10; LeftSideTransform 0 ns&#10; RightSideTransform 0 ns&#10; LeftSidePartition 268 µs 384 ns&#10; RightSidePartition 22 µs 602 ns&#10; LeftSideSortBuckets 996 µs 421 ns&#10; RightSideSortBuckets 988 µs 476 ns&#10; GatherRowIds 892 ns&#10; FindJoinPartner 214 µs 302 ns&#10; OutputWriting 140 µs 203 ns.">
<polygon fill="none" stroke="white" stroke-width="3.78" points="419,-1256 208,-1256 208,-1187 419,-1187 419,-1256"/>
<text text-anchor="middle" x="313.5" y="-1240.8" font-family="Times,serif" font-size="14.00" fill="white">JoinSimdSortMerge (Inner)</text>
<text text-anchor="middle" x="313.5" y="-1225.8" font-family="Times,serif" font-size="14.00" fill="white">s_nationkey = n_nationkey</text>
<text text-anchor="middle" x="313.5" y="-1194.8" font-family="Times,serif" font-size="14.00" fill="white">2 ms 797 µs</text>
</a>
</g>
</g>
<!-- 140658679827472&#45;&gt;140658679828112 -->
<g id="edge17" class="edge">
<title>140658679827472&#45;&gt;140658679828112</title>
<path fill="none" stroke="white" d="M305.62,-1256.14C297.84,-1293.45 287.75,-1355.45 292.5,-1409 295.91,-1447.41 303.94,-1490.51 310.53,-1521.73"/>
<polygon fill="white" stroke="white" points="312.7,-1531.85 314.02,-1521.33 310.6,-1522.07 312.7,-1531.85"/>
<text text-anchor="middle" x="381.5" y="-1397.8" font-family="Times,serif" font-size="14.00" fill="white">20,042 row(s)/5 chunk(s)</text>
</g>
<!-- 140658679827472&#45;&gt;140658679827792 -->
<g id="edge16" class="edge">
<title>140658679827472&#45;&gt;140658679827792</title>
<path fill="none" stroke="white" d="M312.89,-1256.22C314.3,-1267.75 317.79,-1280 325.5,-1289 329.17,-1293.29 333.22,-1297.22 337.56,-1300.82"/>
<polygon fill="white" stroke="white" points="345.66,-1306.96 339.81,-1298.13 337.69,-1300.92 345.66,-1306.96"/>
<text text-anchor="middle" x="414.5" y="-1277.8" font-family="Times,serif" font-size="14.00" fill="white">20,042 row(s)/5 chunk(s)</text>
</g>
<!-- 140658679835152 -->
<g id="node16" class="node">
<title>140658679835152</title>
<g id="a_node16"><a xlink:title="Output: 20042 rows in 5 chunks, 178 µs 946 ns.">
<polygon fill="none" stroke="white" points="479,-1067 362,-1067 362,-1013 479,-1013 479,-1067"/>
<text text-anchor="middle" x="420.5" y="-1051.8" font-family="Times,serif" font-size="14.00" fill="white">Validate</text>
<text text-anchor="middle" x="420.5" y="-1020.8" font-family="Times,serif" font-size="14.00" fill="white">178 µs 946 ns</text>
</a>
</g>
</g>
<!-- 140658679835152&#45;&gt;140658679827472 -->
<g id="edge18" class="edge">
<title>140658679835152&#45;&gt;140658679827472</title>
<path fill="none" stroke="white" d="M404.94,-1067.1C387.65,-1096.11 359.46,-1143.4 338.95,-1177.81"/>
<polygon fill="white" stroke="white" points="338.77,-1178.12 335.76,-1176.32 333.65,-1186.71 338.77,-1178.12"/>
<text text-anchor="middle" x="461.5" y="-1138.3" font-family="Times,serif" font-size="14.00" fill="white">20,042 row(s)/5 chunk(s)</text>
</g>
<!-- 140658679827152 -->
<g id="node17" class="node">
<title>140658679827152</title>
<g id="a_node17"><a xlink:title="Output: 20042 rows in 5 chunks, 8 ms 834 µs.&#10;Operator step runtimes:&#10; LeftSideMaterialize 317 µs 15 ns&#10; RightSideMaterialize 13 µs 175 ns&#10; LeftSideTransform 0 ns&#10; RightSideTransform 0 ns&#10; LeftSidePartition 4 ms 636 µs&#10; RightSidePartition 51 µs 486 ns&#10; LeftSideSortBuckets 2 ms 652 µs&#10; RightSideSortBuckets 822 µs 635 ns&#10; GatherRowIds 2 µs 775 ns&#10; FindJoinPartner 163 µs 186 ns&#10; OutputWriting 49 µs 563 ns.">
<polygon fill="none" stroke="white" stroke-width="6.61" points="627,-924.5 342,-924.5 342,-855.5 627,-855.5 627,-924.5"/>
<text text-anchor="middle" x="484.5" y="-909.3" font-family="Times,serif" font-size="14.00" fill="white">JoinSimdSortMerge (Semi Reduction)</text>
<text text-anchor="middle" x="484.5" y="-894.3" font-family="Times,serif" font-size="14.00" fill="white">s_nationkey = n_nationkey</text>
<text text-anchor="middle" x="484.5" y="-863.3" font-family="Times,serif" font-size="14.00" fill="white">8 ms 834 µs</text>
</a>
</g>
</g>
<!-- 140658679827152&#45;&gt;140658679835152 -->
<g id="edge19" class="edge">
<title>140658679827152&#45;&gt;140658679835152</title>
<path fill="none" stroke="white" d="M471.84,-924.72C466.93,-937.42 461.13,-951.95 455.5,-965 450.03,-977.66 443.68,-991.36 437.9,-1003.49"/>
<polygon fill="white" stroke="white" points="434.59,-1002.3 433.41,-1012.83 440.9,-1005.33 434.59,-1002.3"/>
<text text-anchor="middle" x="549.5" y="-953.8" font-family="Times,serif" font-size="14.00" fill="white">20,042 row(s)/5 chunk(s)</text>
</g>
<!-- 140658680724432 -->
<g id="node18" class="node">
<title>140658680724432</title>
<g id="a_node18"><a xlink:title="Output: 100000 rows in 2 chunks, 28 µs 543 ns.">
<polygon fill="none" stroke="white" points="762,-797 649,-797 649,-683 762,-683 762,-797"/>
<text text-anchor="middle" x="705.5" y="-781.8" font-family="Times,serif" font-size="14.00" fill="white">GetTable</text>
<text text-anchor="middle" x="705.5" y="-766.8" font-family="Times,serif" font-size="14.00" fill="white">(supplier)</text>
<text text-anchor="middle" x="705.5" y="-751.8" font-family="Times,serif" font-size="14.00" fill="white">pruned:</text>
<text text-anchor="middle" x="705.5" y="-736.8" font-family="Times,serif" font-size="14.00" fill="white">0/2 chunk(s)</text>
<text text-anchor="middle" x="705.5" y="-721.8" font-family="Times,serif" font-size="14.00" fill="white">0/7 column(s)</text>
<text text-anchor="middle" x="705.5" y="-690.8" font-family="Times,serif" font-size="14.00" fill="white">28 µs 543 ns</text>
</a>
</g>
</g>
<!-- 140658680724432&#45;&gt;140658679827152 -->
<g id="edge20" class="edge">
<title>140658680724432&#45;&gt;140658679827152</title>
<path fill="none" stroke="white" d="M648.65,-752.57C609.02,-763.12 557.07,-782.21 521.5,-815 512.26,-823.52 505.01,-834.86 499.48,-846.1"/>
<polygon fill="white" stroke="white" points="499.36,-846.35 496.18,-844.9 495.22,-855.45 499.36,-846.35"/>
<text text-anchor="middle" x="615" y="-818.8" font-family="Times,serif" font-size="14.00" fill="white">100,000 row(s)/2 chunk(s)</text>
</g>
<!-- 140658679829072 -->
<g id="node29" class="node">
<title>140658679829072</title>
<g id="a_node29"><a xlink:title="Output: 20042 rows in 5 chunks, 9 ms 721 µs.&#10;Operator step runtimes:&#10; LeftSideMaterialize 1 ms 252 µs&#10; RightSideMaterialize 11 µs 251 ns&#10; LeftSideTransform 0 ns&#10; RightSideTransform 0 ns&#10; LeftSidePartition 3 ms 711 µs&#10; RightSidePartition 621 µs 406 ns&#10; LeftSideSortBuckets 2 ms 848 µs&#10; RightSideSortBuckets 811 µs 574 ns&#10; GatherRowIds 1 µs 543 ns&#10; FindJoinPartner 241 µs 673 ns&#10; OutputWriting 54 µs 262 ns.">
<polygon fill="none" stroke="white" stroke-width="6.85" points="996,-924.5 787,-924.5 787,-855.5 996,-855.5 996,-924.5"/>
<text text-anchor="middle" x="891.5" y="-909.3" font-family="Times,serif" font-size="14.00" fill="white">JoinSimdSortMerge (Semi)</text>
<text text-anchor="middle" x="891.5" y="-894.3" font-family="Times,serif" font-size="14.00" fill="white">s_nationkey = n_nationkey</text>
<text text-anchor="middle" x="891.5" y="-863.3" font-family="Times,serif" font-size="14.00" fill="white">9 ms 721 µs</text>
</a>
</g>
</g>
<!-- 140658680724432&#45;&gt;140658679829072 -->
<g id="edge21" class="edge">
<title>140658680724432&#45;&gt;140658679829072</title>
<path fill="none" stroke="white" d="M762.19,-753.68C797.67,-764.4 841.76,-783.24 869.5,-815 876.99,-823.58 881.94,-834.62 885.2,-845.54"/>
<polygon fill="white" stroke="white" points="885.26,-845.77 881.87,-846.64 887.74,-855.46 885.26,-845.77"/>
<text text-anchor="middle" x="972" y="-818.8" font-family="Times,serif" font-size="14.00" fill="white">100,000 row(s)/2 chunk(s)</text>
</g>
<!-- 140658679833616 -->
<g id="node19" class="node">
<title>140658679833616</title>
<g id="a_node19"><a xlink:title="Output: 5 rows in 1 chunk, 1 µs 632 ns.">
<polygon fill="none" stroke="white" points="409,-767 310,-767 310,-713 409,-713 409,-767"/>
<text text-anchor="middle" x="359.5" y="-751.8" font-family="Times,serif" font-size="14.00" fill="white">Validate</text>
<text text-anchor="middle" x="359.5" y="-720.8" font-family="Times,serif" font-size="14.00" fill="white">1 µs 632 ns</text>
</a>
</g>
</g>
<!-- 140658679833616&#45;&gt;140658679827472 -->
<g id="edge23" class="edge">
<title>140658679833616&#45;&gt;140658679827472</title>
<path fill="none" stroke="white" d="M352.76,-767.31C347.31,-788.92 339.56,-820.36 333.5,-848 323.6,-893.12 317.97,-904.02 313.5,-950 305.78,-1029.53 308.32,-1122.84 310.89,-1176.48"/>
<polygon fill="white" stroke="white" points="311.41,-1186.66 314.4,-1176.5 310.9,-1176.67 311.41,-1186.66"/>
<text text-anchor="middle" x="382.5" y="-953.8" font-family="Times,serif" font-size="14.00" fill="white">5 row(s)/1 chunk(s)</text>
</g>
<!-- 140658679833616&#45;&gt;140658679827152 -->
<g id="edge22" class="edge">
<title>140658679833616&#45;&gt;140658679827152</title>
<path fill="none" stroke="white" d="M352.89,-767.23C349.66,-786.15 348.68,-811.51 360.5,-830 365.12,-837.22 370.88,-843.57 377.38,-849.16"/>
<polygon fill="white" stroke="white" points="385.32,-855.38 379.6,-846.46 377.44,-849.22 385.32,-855.38"/>
<text text-anchor="middle" x="429.5" y="-818.8" font-family="Times,serif" font-size="14.00" fill="white">5 row(s)/1 chunk(s)</text>
</g>
<!-- 140658679833616&#45;&gt;140658679829072 -->
<g id="edge24" class="edge">
<title>140658679833616&#45;&gt;140658679829072</title>
<path fill="none" stroke="white" d="M409.32,-750.94C502.49,-769.62 694.94,-808.64 708.5,-815 718.24,-819.57 718.09,-824.78 727.5,-830 743.12,-838.67 760.27,-846.49 777.4,-853.37"/>
<polygon fill="white" stroke="white" points="786.91,-857.1 778.88,-850.19 777.6,-853.45 786.91,-857.1"/>
<text text-anchor="middle" x="796.5" y="-818.8" font-family="Times,serif" font-size="14.00" fill="white">5 row(s)/1 chunk(s)</text>
</g>
<!-- 140658679825552 -->
<g id="node20" class="node">
<title>140658679825552</title>
<g id="a_node20"><a xlink:title="Output: 5 rows in 1 chunk, 2 ms 585 µs.&#10;Operator step runtimes:&#10; LeftSideMaterialize 4 µs 899 ns&#10; RightSideMaterialize 3 µs 818 ns&#10; LeftSideTransform 0 ns&#10; RightSideTransform 0 ns&#10; LeftSidePartition 27 µs 783 ns&#10; RightSidePartition 30 µs 537 ns&#10; LeftSideSortBuckets 1 ms 510 µs&#10; RightSideSortBuckets 906 µs 923 ns&#10; GatherRowIds 1 µs 863 ns&#10; FindJoinPartner 5 µs 80 ns&#10; OutputWriting 11 µs 331 ns.">
<polygon fill="none" stroke="white" stroke-width="3.58" points="464,-609.5 255,-609.5 255,-540.5 464,-540.5 464,-609.5"/>
<text text-anchor="middle" x="359.5" y="-594.3" font-family="Times,serif" font-size="14.00" fill="white">JoinSimdSortMerge (Semi)</text>
<text text-anchor="middle" x="359.5" y="-579.3" font-family="Times,serif" font-size="14.00" fill="white">n_regionkey = r_regionkey</text>
<text text-anchor="middle" x="359.5" y="-548.3" font-family="Times,serif" font-size="14.00" fill="white">2 ms 585 µs</text>
</a>
</g>
</g>
<!-- 140658679825552&#45;&gt;140658679833616 -->
<g id="edge25" class="edge">
<title>140658679825552&#45;&gt;140658679833616</title>
<path fill="none" stroke="white" d="M359.5,-609.77C359.5,-636.89 359.5,-674.9 359.5,-702.68"/>
<polygon fill="white" stroke="white" points="356,-702.78 359.5,-712.78 363,-702.78 356,-702.78"/>
<text text-anchor="middle" x="428.5" y="-653.8" font-family="Times,serif" font-size="14.00" fill="white">5 row(s)/1 chunk(s)</text>
</g>
<!-- 140658680724880 -->
<g id="node21" class="node">
<title>140658680724880</title>
<g id="a_node21"><a xlink:title="Output: 25 rows in 1 chunk, 9 µs 788 ns.">
<polygon fill="none" stroke="white" points="331,-467 218,-467 218,-353 331,-353 331,-467"/>
<text text-anchor="middle" x="274.5" y="-451.8" font-family="Times,serif" font-size="14.00" fill="white">GetTable</text>
<text text-anchor="middle" x="274.5" y="-436.8" font-family="Times,serif" font-size="14.00" fill="white">(nation)</text>
<text text-anchor="middle" x="274.5" y="-421.8" font-family="Times,serif" font-size="14.00" fill="white">pruned:</text>
<text text-anchor="middle" x="274.5" y="-406.8" font-family="Times,serif" font-size="14.00" fill="white">0/1 chunk(s)</text>
<text text-anchor="middle" x="274.5" y="-391.8" font-family="Times,serif" font-size="14.00" fill="white">1/4 column(s)</text>
<text text-anchor="middle" x="274.5" y="-360.8" font-family="Times,serif" font-size="14.00" fill="white">9 µs 788 ns</text>
</a>
</g>
</g>
<!-- 140658680724880&#45;&gt;140658679825552 -->
<g id="edge26" class="edge">
<title>140658680724880&#45;&gt;140658679825552</title>
<path fill="none" stroke="white" d="M268.12,-467.17C268.75,-478.42 270.86,-489.89 275.5,-500 281.24,-512.51 290.23,-523.76 300.23,-533.49"/>
<polygon fill="white" stroke="white" points="300.29,-533.55 297.93,-536.13 307.66,-540.31 300.29,-533.55"/>
<text text-anchor="middle" x="349" y="-488.8" font-family="Times,serif" font-size="14.00" fill="white">25 row(s)/1 chunk(s)</text>
</g>
<!-- 140658679834384 -->
<g id="node22" class="node">
<title>140658679834384</title>
<g id="a_node22"><a xlink:title="Output: 1 row in 1 chunk, 6 µs 272 ns.">
<polygon fill="none" stroke="white" points="494,-437 395,-437 395,-383 494,-383 494,-437"/>
<text text-anchor="middle" x="444.5" y="-421.8" font-family="Times,serif" font-size="14.00" fill="white">Validate</text>
<text text-anchor="middle" x="444.5" y="-390.8" font-family="Times,serif" font-size="14.00" fill="white">6 µs 272 ns</text>
</a>
</g>
</g>
<!-- 140658679834384&#45;&gt;140658679825552 -->
<g id="edge27" class="edge">
<title>140658679834384&#45;&gt;140658679825552</title>
<path fill="none" stroke="white" d="M441.31,-437.05C438.29,-455.41 432.67,-480.17 422.5,-500 416.67,-511.37 408.77,-522.49 400.54,-532.52"/>
<polygon fill="white" stroke="white" points="393.91,-540.3 403.06,-534.96 400.39,-532.69 393.91,-540.3"/>
<text text-anchor="middle" x="497.5" y="-488.8" font-family="Times,serif" font-size="14.00" fill="white">1 row(s)/1 chunk(s)</text>
</g>
<!-- 140658679824912 -->
<g id="node23" class="node">
<title>140658679824912</title>
<g id="a_node23"><a xlink:title="Output: 1 row in 1 chunk, 20 µs 989 ns.&#10;Chunks: 0 skipped with no results, &#10;0 skipped with all matching, 0 scanned using binary search.">
<polygon fill="none" stroke="white" points="546,-302 343,-302 343,-218 546,-218 546,-302"/>
<text text-anchor="middle" x="444.5" y="-286.8" font-family="Times,serif" font-size="14.00" fill="white">TableScan</text>
<text text-anchor="middle" x="444.5" y="-271.8" font-family="Times,serif" font-size="14.00" fill="white">Impl: ColumnVsValue</text>
<text text-anchor="middle" x="444.5" y="-256.8" font-family="Times,serif" font-size="14.00" fill="white">r_name = &#39;MIDDLE EAST&#39;</text>
<text text-anchor="middle" x="444.5" y="-225.8" font-family="Times,serif" font-size="14.00" fill="white">20 µs 989 ns</text>
</a>
</g>
</g>
<!-- 140658679824912&#45;&gt;140658679834384 -->
<g id="edge28" class="edge">
<title>140658679824912&#45;&gt;140658679834384</title>
<path fill="none" stroke="white" d="M444.5,-302.23C444.5,-324.32 444.5,-351.31 444.5,-372.62"/>
<polygon fill="white" stroke="white" points="441,-372.88 444.5,-382.88 448,-372.88 441,-372.88"/>
<text text-anchor="middle" x="513.5" y="-323.8" font-family="Times,serif" font-size="14.00" fill="white">1 row(s)/1 chunk(s)</text>
</g>
<!-- 140658680725328 -->
<g id="node24" class="node">
<title>140658680725328</title>
<g id="a_node24"><a xlink:title="Output: 5 rows in 1 chunk, 21 µs 260 ns.">
<polygon fill="none" stroke="white" points="501,-140.5 388,-140.5 388,-26.5 501,-26.5 501,-140.5"/>
<text text-anchor="middle" x="444.5" y="-125.3" font-family="Times,serif" font-size="14.00" fill="white">GetTable</text>
<text text-anchor="middle" x="444.5" y="-110.3" font-family="Times,serif" font-size="14.00" fill="white">(region)</text>
<text text-anchor="middle" x="444.5" y="-95.3" font-family="Times,serif" font-size="14.00" fill="white">pruned:</text>
<text text-anchor="middle" x="444.5" y="-80.3" font-family="Times,serif" font-size="14.00" fill="white">0/1 chunk(s)</text>
<text text-anchor="middle" x="444.5" y="-65.3" font-family="Times,serif" font-size="14.00" fill="white">1/3 column(s)</text>
<text text-anchor="middle" x="444.5" y="-34.3" font-family="Times,serif" font-size="14.00" fill="white">21 µs 260 ns</text>
</a>
</g>
</g>
<!-- 140658680725328&#45;&gt;140658679824912 -->
<g id="edge29" class="edge">
<title>140658680725328&#45;&gt;140658679824912</title>
<path fill="none" stroke="white" d="M444.5,-140.67C444.5,-162.25 444.5,-186.74 444.5,-207.83"/>
<polygon fill="white" stroke="white" points="441,-207.87 444.5,-217.87 448,-207.87 441,-207.87"/>
<text text-anchor="middle" x="513.5" y="-188.8" font-family="Times,serif" font-size="14.00" fill="white">5 row(s)/1 chunk(s)</text>
</g>
<!-- 140658679580176 -->
<g id="node25" class="node">
<title>140658679580176</title>
<g id="a_node25"><a xlink:title="Output: 4727 rows in 1 chunk, 3 ms 831 µs.&#10;Operator step runtimes:&#10; GroupByKeyPartitioning 1 ms 456 µs&#10; Aggregating 2 ms 279 µs&#10; GroupByColumnsWriting 44 µs 494 ns&#10; AggregateColumnsWriting 34 µs 895 ns&#10; OutputWriting 9 µs 678 ns.">
<polygon fill="none" stroke="white" stroke-width="4.55" points="710.5,-1703 530.5,-1703 530.5,-1619 710.5,-1619 710.5,-1703"/>
<text text-anchor="middle" x="620.5" y="-1687.8" font-family="Times,serif" font-size="14.00" fill="white">AggregateHash</text>
<text text-anchor="middle" x="620.5" y="-1672.8" font-family="Times,serif" font-size="14.00" fill="white">GroupBy {ps_partkey}</text>
<text text-anchor="middle" x="620.5" y="-1657.8" font-family="Times,serif" font-size="14.00" fill="white">MIN(ps_supplycost)</text>
<text text-anchor="middle" x="620.5" y="-1626.8" font-family="Times,serif" font-size="14.00" fill="white">3 ms 831 µs</text>
</a>
</g>
</g>
<!-- 140658679580176&#45;&gt;140658679829712 -->
<g id="edge30" class="edge">
<title>140658679580176&#45;&gt;140658679829712</title>
<path fill="none" stroke="white" d="M613.08,-1703.01C604.97,-1738.16 588.99,-1788.44 559.5,-1823 556.12,-1826.96 552.4,-1830.72 548.44,-1834.27"/>
<polygon fill="white" stroke="white" points="540.57,-1840.85 550.48,-1837.13 548.24,-1834.44 540.57,-1840.85"/>
<text text-anchor="middle" x="692" y="-1751.8" font-family="Times,serif" font-size="14.00" fill="white">4,727 row(s)/1 chunk(s)</text>
</g>
<!-- 140658679834896 -->
<g id="node26" class="node">
<title>140658679834896</title>
<g id="a_node26"><a xlink:title="Output: 6413 rows in 13 chunks, 85 µs 120 ns.">
<polygon fill="none" stroke="white" points="701.5,-1481 593.5,-1481 593.5,-1427 701.5,-1427 701.5,-1481"/>
<text text-anchor="middle" x="647.5" y="-1465.8" font-family="Times,serif" font-size="14.00" fill="white">Validate</text>
<text text-anchor="middle" x="647.5" y="-1434.8" font-family="Times,serif" font-size="14.00" fill="white">85 µs 120 ns</text>
</a>
</g>
</g>
<!-- 140658679834896&#45;&gt;140658679580176 -->
<g id="edge31" class="edge">
<title>140658679834896&#45;&gt;140658679580176</title>
<path fill="none" stroke="white" d="M644.03,-1481.38C639.8,-1513.48 632.56,-1568.4 627.23,-1608.89"/>
<polygon fill="white" stroke="white" points="623.76,-1608.48 625.92,-1618.85 630.7,-1609.39 623.76,-1608.48"/>
<text text-anchor="middle" x="730.5" y="-1502.8" font-family="Times,serif" font-size="14.00" fill="white">6,413 row(s)/13 chunk(s)</text>
</g>
<!-- 140658679829392&#45;&gt;140658679834896 -->
<g id="edge32" class="edge">
<title>140658679829392&#45;&gt;140658679834896</title>
<path fill="none" stroke="white" d="M711.4,-1376.25C700.09,-1389.84 687.07,-1405.47 675.75,-1419.07"/>
<polygon fill="white" stroke="white" points="673.01,-1416.89 669.3,-1426.81 678.39,-1421.37 673.01,-1416.89"/>
<text text-anchor="middle" x="784.5" y="-1397.8" font-family="Times,serif" font-size="14.00" fill="white">6,413 row(s)/13 chunk(s)</text>
</g>
<!-- 140658679834640 -->
<g id="node28" class="node">
<title>140658679834640</title>
<g id="a_node28"><a xlink:title="Output: 20042 rows in 5 chunks, 142 µs 196 ns.">
<polygon fill="none" stroke="white" points="983,-1169 866,-1169 866,-1115 983,-1115 983,-1169"/>
<text text-anchor="middle" x="924.5" y="-1153.8" font-family="Times,serif" font-size="14.00" fill="white">Validate</text>
<text text-anchor="middle" x="924.5" y="-1122.8" font-family="Times,serif" font-size="14.00" fill="white">142 µs 196 ns</text>
</a>
</g>
</g>
<!-- 140658679834640&#45;&gt;140658679829392 -->
<g id="edge33" class="edge">
<title>140658679834640&#45;&gt;140658679829392</title>
<path fill="none" stroke="white" d="M929.54,-1169.21C934.1,-1201.25 936.41,-1255.33 908.5,-1289 894.33,-1306.1 874.65,-1317.65 853.72,-1325.41"/>
<polygon fill="white" stroke="white" points="844.03,-1328.72 854.62,-1328.8 853.49,-1325.49 844.03,-1328.72"/>
<text text-anchor="middle" x="1020.5" y="-1217.8" font-family="Times,serif" font-size="14.00" fill="white">20,042 row(s)/5 chunk(s)</text>
</g>
<!-- 140658679829072&#45;&gt;140658679834640 -->
<g id="edge34" class="edge">
<title>140658679829072&#45;&gt;140658679834640</title>
<path fill="none" stroke="white" d="M895.95,-924.72C902.15,-971.65 913.33,-1056.34 919.7,-1104.65"/>
<polygon fill="white" stroke="white" points="916.24,-1105.21 921.02,-1114.66 923.18,-1104.29 916.24,-1105.21"/>
<text text-anchor="middle" x="989.5" y="-953.8" font-family="Times,serif" font-size="14.00" fill="white">20,042 row(s)/5 chunk(s)</text>
</g>
<!-- 0 -->
<g id="node30" class="node">
<title>0</title>
<polygon fill="none" stroke="white" points="519,-0.5 519,-166.5 860,-166.5 860,-0.5 519,-0.5"/>
<text text-anchor="middle" x="689.5" y="-151.3" font-family="Times,serif" font-size="14.00" fill="white">Total by operator</text>
<polyline fill="none" stroke="white" points="519,-143.5 860,-143.5 "/>
<text text-anchor="end" x="673" y="-128.3" font-family="Times,serif" font-size="14.00" fill="white">JoinSimdSortMerge </text>
<text text-anchor="end" x="673" y="-113.3" font-family="Times,serif" font-size="14.00" fill="white"> Sort </text>
<text text-anchor="end" x="673" y="-98.3" font-family="Times,serif" font-size="14.00" fill="white"> AggregateHash </text>
<text text-anchor="end" x="673" y="-83.3" font-family="Times,serif" font-size="14.00" fill="white"> Validate </text>
<text text-anchor="end" x="673" y="-68.3" font-family="Times,serif" font-size="14.00" fill="white"> TableScan </text>
<text text-anchor="end" x="673" y="-53.3" font-family="Times,serif" font-size="14.00" fill="white"> GetTable </text>
<text text-anchor="end" x="673" y="-38.3" font-family="Times,serif" font-size="14.00" fill="white"> Limit </text>
<text text-anchor="end" x="673" y="-23.3" font-family="Times,serif" font-size="14.00" fill="white"> Projection </text>
<text text-anchor="end" x="673" y="-8.3" font-family="Times,serif" font-size="14.00" fill="white">total</text>
<polyline fill="none" stroke="white" points="681,-0.5 681,-143.5 "/>
<text text-anchor="start" x="689" y="-128.3" font-family="Times,serif" font-size="14.00" fill="white">71 ms 956 µs </text>
<text text-anchor="start" x="689" y="-113.3" font-family="Times,serif" font-size="14.00" fill="white"> 7 ms 67 µs </text>
<text text-anchor="start" x="689" y="-98.3" font-family="Times,serif" font-size="14.00" fill="white"> 3 ms 831 µs </text>
<text text-anchor="start" x="689" y="-83.3" font-family="Times,serif" font-size="14.00" fill="white"> 540 µs 53 ns </text>
<text text-anchor="start" x="689" y="-68.3" font-family="Times,serif" font-size="14.00" fill="white"> 417 µs 343 ns </text>
<text text-anchor="start" x="689" y="-53.3" font-family="Times,serif" font-size="14.00" fill="white"> 399 µs 689 ns </text>
<text text-anchor="start" x="689" y="-38.3" font-family="Times,serif" font-size="14.00" fill="white"> 14 µs 478 ns </text>
<text text-anchor="start" x="689" y="-23.3" font-family="Times,serif" font-size="14.00" fill="white"> 13 µs 254 ns </text>
<text text-anchor="start" x="689" y="-8.3" font-family="Times,serif" font-size="14.00" fill="white"> 84 ms 238 µs </text>
<polyline fill="none" stroke="white" points="807,-0.5 807,-143.5 "/>
<text text-anchor="start" x="815" y="-128.3" font-family="Times,serif" font-size="14.00" fill="white">85 %</text>
<text text-anchor="start" x="815" y="-113.3" font-family="Times,serif" font-size="14.00" fill="white">8 %</text>
<text text-anchor="start" x="815" y="-98.3" font-family="Times,serif" font-size="14.00" fill="white">5 %</text>
<text text-anchor="start" x="815" y="-83.3" font-family="Times,serif" font-size="14.00" fill="white">1 %</text>
<text text-anchor="start" x="815" y="-68.3" font-family="Times,serif" font-size="14.00" fill="white">0 %</text>
<text text-anchor="start" x="815" y="-53.3" font-family="Times,serif" font-size="14.00" fill="white">0 %</text>
<text text-anchor="start" x="815" y="-38.3" font-family="Times,serif" font-size="14.00" fill="white">0 %</text>
<text text-anchor="start" x="815" y="-23.3" font-family="Times,serif" font-size="14.00" fill="white">0 %</text>
<text text-anchor="start" x="815" y="-8.3" font-family="Times,serif" font-size="14.00" fill="white"> </text>
</g>
</g>
</svg>
