<?xml version="1.0" encoding="UTF-8" standalone="no"?>
<!DOCTYPE svg PUBLIC "-//W3C//DTD SVG 1.1//EN"
 "http://www.w3.org/Graphics/SVG/1.1/DTD/svg11.dtd">
<!-- Generated by graphviz version 2.43.0 (0)
 -->
<!-- Title: G Pages: 1 -->
<svg width="1021pt" height="1895pt"
 viewBox="0.00 0.00 1020.50 1895.00" xmlns="http://www.w3.org/2000/svg" xmlns:xlink="http://www.w3.org/1999/xlink">
<g id="graph0" class="graph" transform="scale(1 1) rotate(0) translate(4 1891)">
<title>G</title>
<polygon fill="black" stroke="transparent" points="-4,4 -4,-1891 1016.5,-1891 1016.5,4 -4,4"/>
<text text-anchor="middle" x="319.5" y="-1871.8" font-family="Times,serif" font-size="14.00" fill="white">For tooltips with advanced information, hover your mouse over vertices or edge labels.</text>
<!-- 140658483494608 -->
<g id="node1" class="node">
<title>140658483494608</title>
<g id="a_node1"><a xlink:title="Output: 10 rows in 1 chunk, 4 µs 529 ns.">
<polygon fill="none" stroke="white" points="658,-1832 289,-1832 289,-1763 658,-1763 658,-1832"/>
<text text-anchor="middle" x="473.5" y="-1816.8" font-family="Times,serif" font-size="14.00" fill="white">Alias</text>
<text text-anchor="middle" x="473.5" y="-1801.8" font-family="Times,serif" font-size="14.00" fill="white">[l_orderkey, revenue, o_orderdate, o_shippriority]</text>
<text text-anchor="middle" x="473.5" y="-1770.8" font-family="Times,serif" font-size="14.00" fill="white">4 µs 529 ns</text>
</a>
</g>
</g>
<!-- 140658483494288 -->
<g id="node2" class="node">
<title>140658483494288</title>
<g id="a_node2"><a xlink:title="Output: 10 rows in 1 chunk, 14 µs 7 ns.&#10;Operator step runtimes:&#10; ForwardUnmodifiedColumns 4 µs 269 ns&#10; EvaluateNewColumns 1 µs 743 ns&#10; BuildOutput 5 µs 601 ns.">
<polygon fill="none" stroke="white" points="518.5,-1712 428.5,-1712 428.5,-1658 518.5,-1658 518.5,-1712"/>
<text text-anchor="middle" x="473.5" y="-1696.8" font-family="Times,serif" font-size="14.00" fill="white">Projection</text>
<text text-anchor="middle" x="473.5" y="-1665.8" font-family="Times,serif" font-size="14.00" fill="white">14 µs 7 ns</text>
</a>
</g>
</g>
<!-- 140658483494288&#45;&gt;140658483494608 -->
<g id="edge1" class="edge">
<title>140658483494288&#45;&gt;140658483494608</title>
<path fill="none" stroke="white" d="M473.5,-1712.19C473.5,-1724.29 473.5,-1739 473.5,-1752.72"/>
<polygon fill="white" stroke="white" points="470,-1752.95 473.5,-1762.95 477,-1752.96 470,-1752.95"/>
<text text-anchor="middle" x="547" y="-1733.8" font-family="Times,serif" font-size="14.00" fill="white">10 row(s)/1 chunk(s)</text>
</g>
<!-- 140616183833616 -->
<g id="node3" class="node">
<title>140616183833616</title>
<g id="a_node3"><a xlink:title="Output: 10 rows in 1 chunk, 12 µs 644 ns.">
<polygon fill="none" stroke="white" points="527.5,-1607 419.5,-1607 419.5,-1553 527.5,-1553 527.5,-1607"/>
<text text-anchor="middle" x="473.5" y="-1591.8" font-family="Times,serif" font-size="14.00" fill="white">Limit</text>
<text text-anchor="middle" x="473.5" y="-1560.8" font-family="Times,serif" font-size="14.00" fill="white">12 µs 644 ns</text>
</a>
</g>
</g>
<!-- 140616183833616&#45;&gt;140658483494288 -->
<g id="edge2" class="edge">
<title>140616183833616&#45;&gt;140658483494288</title>
<path fill="none" stroke="white" d="M473.5,-1607.26C473.5,-1619.49 473.5,-1634.24 473.5,-1647.52"/>
<polygon fill="white" stroke="white" points="470,-1647.79 473.5,-1657.79 477,-1647.79 470,-1647.79"/>
<text text-anchor="middle" x="547" y="-1628.8" font-family="Times,serif" font-size="14.00" fill="white">10 row(s)/1 chunk(s)</text>
</g>
<!-- 140658483493968 -->
<g id="node4" class="node">
<title>140658483493968</title>
<g id="a_node4"><a xlink:title="Output: 112930 rows in 2 chunks, 88 ms 624 µs.&#10;Operator step runtimes:&#10; MaterializeSortColumns 21 ms 811 µs&#10; Sort 62 ms 394 µs&#10; TemporaryResultWriting 234 µs 551 ns&#10; WriteOutput 4 ms 80 µs.">
<polygon fill="none" stroke="white" stroke-width="8" points="530,-1502 417,-1502 417,-1448 530,-1448 530,-1502"/>
<text text-anchor="middle" x="473.5" y="-1486.8" font-family="Times,serif" font-size="14.00" fill="white">Sort</text>
<text text-anchor="middle" x="473.5" y="-1455.8" font-family="Times,serif" font-size="14.00" fill="white">88 ms 624 µs</text>
</a>
</g>
</g>
<!-- 140658483493968&#45;&gt;140616183833616 -->
<g id="edge3" class="edge">
<title>140658483493968&#45;&gt;140616183833616</title>
<path fill="none" stroke="white" d="M473.5,-1502.26C473.5,-1514.49 473.5,-1529.24 473.5,-1542.52"/>
<polygon fill="white" stroke="white" points="470,-1542.79 473.5,-1552.79 477,-1542.79 470,-1542.79"/>
<text text-anchor="middle" x="567" y="-1523.8" font-family="Times,serif" font-size="14.00" fill="white">112,930 row(s)/2 chunk(s)</text>
</g>
<!-- 140658483108368 -->
<g id="node5" class="node">
<title>140658483108368</title>
<g id="a_node5"><a xlink:title="Output: 112930 rows in 2 chunks, 84 ms 0 µs.&#10;Operator step runtimes:&#10; GroupByKeyPartitioning 52 ms 92 µs&#10; Aggregating 27 ms 353 µs&#10; GroupByColumnsWriting 1 ms 536 µs&#10; AggregateColumnsWriting 863 µs 200 ns&#10; OutputWriting 14 µs 247 ns.">
<polygon fill="none" stroke="white" stroke-width="7.87" points="622,-1397 325,-1397 325,-1283 622,-1283 622,-1397"/>
<text text-anchor="middle" x="473.5" y="-1381.8" font-family="Times,serif" font-size="14.00" fill="white">AggregateHash</text>
<text text-anchor="middle" x="473.5" y="-1366.8" font-family="Times,serif" font-size="14.00" fill="white">GroupBy {l_orderkey,</text>
<text text-anchor="middle" x="473.5" y="-1351.8" font-family="Times,serif" font-size="14.00" fill="white">o_orderdate,</text>
<text text-anchor="middle" x="473.5" y="-1336.8" font-family="Times,serif" font-size="14.00" fill="white">o_shippriority}</text>
<text text-anchor="middle" x="473.5" y="-1321.8" font-family="Times,serif" font-size="14.00" fill="white">SUM(l_extendedprice * (1 &#45; l_discount))</text>
<text text-anchor="middle" x="473.5" y="-1290.8" font-family="Times,serif" font-size="14.00" fill="white">84 ms 0 µs</text>
</a>
</g>
</g>
<!-- 140658483108368&#45;&gt;140658483493968 -->
<g id="edge4" class="edge">
<title>140658483108368&#45;&gt;140658483493968</title>
<path fill="none" stroke="white" d="M473.5,-1397.02C473.5,-1410.77 473.5,-1425.14 473.5,-1437.69"/>
<polygon fill="white" stroke="white" points="470,-1437.75 473.5,-1447.75 477,-1437.75 470,-1437.75"/>
<text text-anchor="middle" x="567" y="-1418.8" font-family="Times,serif" font-size="14.00" fill="white">112,930 row(s)/2 chunk(s)</text>
</g>
<!-- 140658483493648 -->
<g id="node6" class="node">
<title>140658483493648</title>
<g id="a_node6"><a xlink:title="Output: 298293 rows in 64 chunks, 9 ms 302 µs.&#10;Operator step runtimes:&#10; ForwardUnmodifiedColumns 63 µs 399 ns&#10; EvaluateNewColumns 9 ms 91 µs&#10; BuildOutput 130 µs 956 ns.">
<polygon fill="none" stroke="white" stroke-width="2.44" points="525.5,-1232 421.5,-1232 421.5,-1178 525.5,-1178 525.5,-1232"/>
<text text-anchor="middle" x="473.5" y="-1216.8" font-family="Times,serif" font-size="14.00" fill="white">Projection</text>
<text text-anchor="middle" x="473.5" y="-1185.8" font-family="Times,serif" font-size="14.00" fill="white">9 ms 302 µs</text>
</a>
</g>
</g>
<!-- 140658483493648&#45;&gt;140658483108368 -->
<g id="edge5" class="edge">
<title>140658483493648&#45;&gt;140658483108368</title>
<path fill="none" stroke="white" d="M473.5,-1232.28C473.5,-1243.91 473.5,-1258.18 473.5,-1272.45"/>
<polygon fill="white" stroke="white" points="470,-1272.8 473.5,-1282.8 477,-1272.8 470,-1272.8"/>
<text text-anchor="middle" x="571.5" y="-1253.8" font-family="Times,serif" font-size="14.00" fill="white">298,293 row(s)/64 chunk(s)</text>
</g>
<!-- 140658483493328 -->
<g id="node7" class="node">
<title>140658483493328</title>
<g id="a_node7"><a xlink:title="Output: 298293 rows in 64 chunks, 22 ms 617 µs.&#10;Operator step runtimes:&#10; LeftSideMaterialize 5 ms 761 µs&#10; RightSideMaterialize 8 ms 241 µs&#10; LeftSideTransform 0 ns&#10; RightSideTransform 0 ns&#10; LeftSidePartition 2 ms 433 µs&#10; RightSidePartition 1 ms 129 µs&#10; LeftSideSortBuckets 745 µs 730 ns&#10; RightSideSortBuckets 1 ms 160 µs&#10; GatherRowIds 2 µs 335 ns&#10; FindJoinPartner 1 ms 278 µs&#10; OutputWriting 973 µs 47 ns.">
<polygon fill="none" stroke="white" stroke-width="4.63" points="579,-1127 368,-1127 368,-1058 579,-1058 579,-1127"/>
<text text-anchor="middle" x="473.5" y="-1111.8" font-family="Times,serif" font-size="14.00" fill="white">JoinSimdSortMerge (Inner)</text>
<text text-anchor="middle" x="473.5" y="-1096.8" font-family="Times,serif" font-size="14.00" fill="white">l_orderkey = o_orderkey</text>
<text text-anchor="middle" x="473.5" y="-1065.8" font-family="Times,serif" font-size="14.00" fill="white">22 ms 617 µs</text>
</a>
</g>
</g>
<!-- 140658483493328&#45;&gt;140658483493648 -->
<g id="edge6" class="edge">
<title>140658483493328&#45;&gt;140658483493648</title>
<path fill="none" stroke="white" d="M473.5,-1127.25C473.5,-1140.07 473.5,-1154.73 473.5,-1167.77"/>
<polygon fill="white" stroke="white" points="470,-1167.81 473.5,-1177.81 477,-1167.81 470,-1167.81"/>
<text text-anchor="middle" x="571.5" y="-1148.8" font-family="Times,serif" font-size="14.00" fill="white">298,293 row(s)/64 chunk(s)</text>
</g>
<!-- 140616183833104 -->
<g id="node8" class="node">
<title>140616183833104</title>
<g id="a_node8"><a xlink:title="Output: 298293 rows in 64 chunks, 679 µs 626 ns.">
<polygon fill="none" stroke="white" points="421,-1007 304,-1007 304,-953 421,-953 421,-1007"/>
<text text-anchor="middle" x="362.5" y="-991.8" font-family="Times,serif" font-size="14.00" fill="white">Validate</text>
<text text-anchor="middle" x="362.5" y="-960.8" font-family="Times,serif" font-size="14.00" fill="white">679 µs 626 ns</text>
</a>
</g>
</g>
<!-- 140616183833104&#45;&gt;140658483493328 -->
<g id="edge7" class="edge">
<title>140616183833104&#45;&gt;140658483493328</title>
<path fill="none" stroke="white" d="M362.93,-1007.13C364.28,-1018.19 367.45,-1030.65 374.5,-1040 377.48,-1043.95 380.85,-1047.62 384.5,-1051.04"/>
<polygon fill="white" stroke="white" points="384.72,-1051.23 382.46,-1053.9 392.36,-1057.69 384.72,-1051.23"/>
<text text-anchor="middle" x="472.5" y="-1028.8" font-family="Times,serif" font-size="14.00" fill="white">298,293 row(s)/64 chunk(s)</text>
</g>
<!-- 140658483493008 -->
<g id="node9" class="node">
<title>140658483493008</title>
<g id="a_node9"><a xlink:title="Output: 298293 rows in 64 chunks, 63 ms 889 µs.&#10;Operator step runtimes:&#10; LeftSideMaterialize 9 ms 814 µs&#10; RightSideMaterialize 8 ms 125 µs&#10; LeftSideTransform 0 ns&#10; RightSideTransform 0 ns&#10; LeftSidePartition 22 ms 637 µs&#10; RightSidePartition 1 ms 228 µs&#10; LeftSideSortBuckets 13 ms 633 µs&#10; RightSideSortBuckets 1 ms 290 µs&#10; GatherRowIds 1 µs 904 ns&#10; FindJoinPartner 3 ms 794 µs&#10; OutputWriting 1 ms 557 µs.">
<polygon fill="none" stroke="white" stroke-width="7.19" points="493,-902 208,-902 208,-833 493,-833 493,-902"/>
<text text-anchor="middle" x="350.5" y="-886.8" font-family="Times,serif" font-size="14.00" fill="white">JoinSimdSortMerge (Semi Reduction)</text>
<text text-anchor="middle" x="350.5" y="-871.8" font-family="Times,serif" font-size="14.00" fill="white">l_orderkey = o_orderkey</text>
<text text-anchor="middle" x="350.5" y="-840.8" font-family="Times,serif" font-size="14.00" fill="white">63 ms 889 µs</text>
</a>
</g>
</g>
<!-- 140658483493008&#45;&gt;140616183833104 -->
<g id="edge8" class="edge">
<title>140658483493008&#45;&gt;140616183833104</title>
<path fill="none" stroke="white" d="M354.17,-902.25C355.56,-915.07 357.15,-929.73 358.57,-942.77"/>
<polygon fill="white" stroke="white" points="355.1,-943.25 359.66,-952.81 362.06,-942.49 355.1,-943.25"/>
<text text-anchor="middle" x="456.5" y="-923.8" font-family="Times,serif" font-size="14.00" fill="white">298,293 row(s)/64 chunk(s)</text>
</g>
<!-- 140658483491728 -->
<g id="node10" class="node">
<title>140658483491728</title>
<g id="a_node10"><a xlink:title="Output: 32584022 rows in 916 chunks, 10 ms 39 µs.&#10;Chunks: 0 skipped with no results, &#10;0 skipped with all matching, 0 scanned using binary search.">
<polygon fill="none" stroke="white" stroke-width="2.63" points="199,-782 0,-782 0,-698 199,-698 199,-782"/>
<text text-anchor="middle" x="99.5" y="-766.8" font-family="Times,serif" font-size="14.00" fill="white">TableScan</text>
<text text-anchor="middle" x="99.5" y="-751.8" font-family="Times,serif" font-size="14.00" fill="white">Impl: ColumnVsValue</text>
<text text-anchor="middle" x="99.5" y="-736.8" font-family="Times,serif" font-size="14.00" fill="white">l_shipdate &gt; &#39;1995&#45;03&#45;05&#39;</text>
<text text-anchor="middle" x="99.5" y="-705.8" font-family="Times,serif" font-size="14.00" fill="white">10 ms 39 µs</text>
</a>
</g>
</g>
<!-- 140658483491728&#45;&gt;140658483493008 -->
<g id="edge9" class="edge">
<title>140658483491728&#45;&gt;140658483493008</title>
<path fill="none" stroke="white" stroke-width="6.49" d="M99.59,-782.24C101.62,-794.18 105.94,-806.32 114.5,-815 127.71,-828.4 160.65,-838.74 197.87,-846.51"/>
<polygon fill="white" stroke="white" stroke-width="6.49" points="198.14,-846.56 197.02,-852.13 207.94,-848.53 198.14,-846.56"/>
<text text-anchor="middle" x="228.5" y="-803.8" font-family="Times,serif" font-size="14.00" fill="white">32,584,022 row(s)/916 chunk(s)</text>
</g>
<!-- 140616183651856 -->
<g id="node11" class="node">
<title>140616183651856</title>
<g id="a_node11"><a xlink:title="Output: 59986052 rows in 916 chunks, 1 ms 568 µs.">
<polygon fill="none" stroke="white" points="165,-647 34,-647 34,-533 165,-533 165,-647"/>
<text text-anchor="middle" x="99.5" y="-631.8" font-family="Times,serif" font-size="14.00" fill="white">GetTable</text>
<text text-anchor="middle" x="99.5" y="-616.8" font-family="Times,serif" font-size="14.00" fill="white">(lineitem)</text>
<text text-anchor="middle" x="99.5" y="-601.8" font-family="Times,serif" font-size="14.00" fill="white">pruned:</text>
<text text-anchor="middle" x="99.5" y="-586.8" font-family="Times,serif" font-size="14.00" fill="white">0/916 chunk(s)</text>
<text text-anchor="middle" x="99.5" y="-571.8" font-family="Times,serif" font-size="14.00" fill="white">12/16 column(s)</text>
<text text-anchor="middle" x="99.5" y="-540.8" font-family="Times,serif" font-size="14.00" fill="white">1 ms 568 µs</text>
</a>
</g>
</g>
<!-- 140616183651856&#45;&gt;140658483491728 -->
<g id="edge10" class="edge">
<title>140616183651856&#45;&gt;140658483491728</title>
<path fill="none" stroke="white" stroke-width="8" d="M99.5,-647.37C99.5,-660.65 99.5,-674.74 99.5,-687.77"/>
<polygon fill="white" stroke="white" stroke-width="8" points="92.5,-687.97 99.5,-697.97 106.5,-687.97 92.5,-687.97"/>
<text text-anchor="middle" x="213.5" y="-668.8" font-family="Times,serif" font-size="14.00" fill="white">59,986,052 row(s)/916 chunk(s)</text>
</g>
<!-- 140616183832848 -->
<g id="node12" class="node">
<title>140616183832848</title>
<g id="a_node12"><a xlink:title="Output: 1441623 rows in 256 chunks, 1 ms 40 µs.">
<polygon fill="none" stroke="white" points="515,-767 420,-767 420,-713 515,-713 515,-767"/>
<text text-anchor="middle" x="467.5" y="-751.8" font-family="Times,serif" font-size="14.00" fill="white">Validate</text>
<text text-anchor="middle" x="467.5" y="-720.8" font-family="Times,serif" font-size="14.00" fill="white">1 ms 40 µs</text>
</a>
</g>
</g>
<!-- 140616183832848&#45;&gt;140658483493328 -->
<g id="edge12" class="edge">
<title>140616183832848&#45;&gt;140658483493328</title>
<path fill="none" stroke="white" d="M515.2,-755.96C536.05,-765.14 558.46,-779.23 570.5,-800 623.99,-892.29 625.47,-948.59 570.5,-1040 568.23,-1043.77 565.59,-1047.28 562.65,-1050.54"/>
<polygon fill="white" stroke="white" points="555.31,-1057.72 564.91,-1053.23 562.46,-1050.73 555.31,-1057.72"/>
<text text-anchor="middle" x="720" y="-923.8" font-family="Times,serif" font-size="14.00" fill="white">1,441,623 row(s)/256 chunk(s)</text>
</g>
<!-- 140616183832848&#45;&gt;140658483493008 -->
<g id="edge11" class="edge">
<title>140616183832848&#45;&gt;140658483493008</title>
<path fill="none" stroke="white" d="M419.8,-752.5C394.9,-761.17 366.57,-775.84 351.5,-800 347.29,-806.75 345.27,-814.69 344.58,-822.68"/>
<polygon fill="white" stroke="white" points="344.33,-832.75 348.07,-822.83 344.57,-822.75 344.33,-832.75"/>
<text text-anchor="middle" x="461" y="-803.8" font-family="Times,serif" font-size="14.00" fill="white">1,441,623 row(s)/256 chunk(s)</text>
</g>
<!-- 140658483492688 -->
<g id="node13" class="node">
<title>140658483492688</title>
<g id="a_node13"><a xlink:title="Output: 1441623 rows in 256 chunks, 27 ms 744 µs.&#10;Operator step runtimes:&#10; LeftSideMaterialize 4 ms 397 µs&#10; RightSideMaterialize 4 ms 66 µs&#10; LeftSideTransform 0 ns&#10; RightSideTransform 0 ns&#10; LeftSidePartition 5 ms 665 µs&#10; RightSidePartition 2 ms 906 µs&#10; LeftSideSortBuckets 3 ms 521 µs&#10; RightSideSortBuckets 674 µs 236 ns&#10; GatherRowIds 2 µs 64 ns&#10; FindJoinPartner 2 ms 759 µs&#10; OutputWriting 2 ms 660 µs.">
<polygon fill="none" stroke="white" stroke-width="5.14" points="572,-624.5 363,-624.5 363,-555.5 572,-555.5 572,-624.5"/>
<text text-anchor="middle" x="467.5" y="-609.3" font-family="Times,serif" font-size="14.00" fill="white">JoinSimdSortMerge (Semi)</text>
<text text-anchor="middle" x="467.5" y="-594.3" font-family="Times,serif" font-size="14.00" fill="white">o_custkey = c_custkey</text>
<text text-anchor="middle" x="467.5" y="-563.3" font-family="Times,serif" font-size="14.00" fill="white">27 ms 744 µs</text>
</a>
</g>
</g>
<!-- 140658483492688&#45;&gt;140616183832848 -->
<g id="edge13" class="edge">
<title>140658483492688&#45;&gt;140616183832848</title>
<path fill="none" stroke="white" d="M467.5,-624.58C467.5,-647.91 467.5,-678.97 467.5,-702.84"/>
<polygon fill="white" stroke="white" points="464,-702.92 467.5,-712.92 471,-702.92 464,-702.92"/>
<text text-anchor="middle" x="577" y="-668.8" font-family="Times,serif" font-size="14.00" fill="white">1,441,623 row(s)/256 chunk(s)</text>
</g>
<!-- 140658483492048 -->
<g id="node14" class="node">
<title>140658483492048</title>
<g id="a_node14"><a xlink:title="Output: 7226908 rows in 229 chunks, 1 ms 970 µs.&#10;Chunks: 0 skipped with no results, &#10;0 skipped with all matching, 0 scanned using binary search.">
<polygon fill="none" stroke="white" points="450.5,-482 238.5,-482 238.5,-398 450.5,-398 450.5,-482"/>
<text text-anchor="middle" x="344.5" y="-466.8" font-family="Times,serif" font-size="14.00" fill="white">TableScan</text>
<text text-anchor="middle" x="344.5" y="-451.8" font-family="Times,serif" font-size="14.00" fill="white">Impl: ColumnVsValue</text>
<text text-anchor="middle" x="344.5" y="-436.8" font-family="Times,serif" font-size="14.00" fill="white">o_orderdate &lt; &#39;1995&#45;03&#45;05&#39;</text>
<text text-anchor="middle" x="344.5" y="-405.8" font-family="Times,serif" font-size="14.00" fill="white">1 ms 970 µs</text>
</a>
</g>
</g>
<!-- 140658483492048&#45;&gt;140658483492688 -->
<g id="edge14" class="edge">
<title>140658483492048&#45;&gt;140658483492688</title>
<path fill="none" stroke="white" stroke-width="2.78" d="M339.96,-482.19C340.46,-493.47 342.74,-505.26 348.5,-515 356.48,-528.48 367.97,-539.87 380.71,-549.35"/>
<polygon fill="white" stroke="white" stroke-width="2.78" points="381.04,-549.58 379.03,-552.45 389.23,-555.31 381.04,-549.58"/>
<text text-anchor="middle" x="458" y="-503.8" font-family="Times,serif" font-size="14.00" fill="white">7,226,908 row(s)/229 chunk(s)</text>
</g>
<!-- 140616183653648 -->
<g id="node15" class="node">
<title>140616183653648</title>
<g id="a_node15"><a xlink:title="Output: 15000000 rows in 229 chunks, 398 µs 147 ns.">
<polygon fill="none" stroke="white" points="401.5,-347 279.5,-347 279.5,-233 401.5,-233 401.5,-347"/>
<text text-anchor="middle" x="340.5" y="-331.8" font-family="Times,serif" font-size="14.00" fill="white">GetTable</text>
<text text-anchor="middle" x="340.5" y="-316.8" font-family="Times,serif" font-size="14.00" fill="white">(orders)</text>
<text text-anchor="middle" x="340.5" y="-301.8" font-family="Times,serif" font-size="14.00" fill="white">pruned:</text>
<text text-anchor="middle" x="340.5" y="-286.8" font-family="Times,serif" font-size="14.00" fill="white">0/229 chunk(s)</text>
<text text-anchor="middle" x="340.5" y="-271.8" font-family="Times,serif" font-size="14.00" fill="white">5/9 column(s)</text>
<text text-anchor="middle" x="340.5" y="-240.8" font-family="Times,serif" font-size="14.00" fill="white">398 µs 147 ns</text>
</a>
</g>
</g>
<!-- 140616183653648&#45;&gt;140658483492048 -->
<g id="edge15" class="edge">
<title>140616183653648&#45;&gt;140658483492048</title>
<path fill="none" stroke="white" stroke-width="4.58" d="M342.02,-347.37C342.38,-360.65 342.76,-374.74 343.12,-387.77"/>
<polygon fill="white" stroke="white" stroke-width="4.58" points="339.11,-388.08 343.39,-397.97 347.13,-387.86 339.11,-388.08"/>
<text text-anchor="middle" x="457.5" y="-368.8" font-family="Times,serif" font-size="14.00" fill="white">15,000,000 row(s)/229 chunk(s)</text>
</g>
<!-- 140658482364176 -->
<g id="node16" class="node">
<title>140658482364176</title>
<g id="a_node16"><a xlink:title="Output: 299751 rows in 23 chunks, 73 µs 48 ns.">
<polygon fill="none" stroke="white" points="640,-467 541,-467 541,-413 640,-413 640,-467"/>
<text text-anchor="middle" x="590.5" y="-451.8" font-family="Times,serif" font-size="14.00" fill="white">Validate</text>
<text text-anchor="middle" x="590.5" y="-420.8" font-family="Times,serif" font-size="14.00" fill="white">73 µs 48 ns</text>
</a>
</g>
</g>
<!-- 140658482364176&#45;&gt;140658483492688 -->
<g id="edge16" class="edge">
<title>140658482364176&#45;&gt;140658483492688</title>
<path fill="none" stroke="white" d="M586.55,-467.12C583.31,-482.17 577.55,-500.85 567.5,-515 558.42,-527.78 546.45,-539.27 533.96,-549.16"/>
<polygon fill="white" stroke="white" points="525.7,-555.43 535.78,-552.17 533.66,-549.39 525.7,-555.43"/>
<text text-anchor="middle" x="674.5" y="-503.8" font-family="Times,serif" font-size="14.00" fill="white">299,751 row(s)/23 chunk(s)</text>
</g>
<!-- 140658483492368 -->
<g id="node17" class="node">
<title>140658483492368</title>
<g id="a_node17"><a xlink:title="Output: 299751 rows in 23 chunks, 296 µs 96 ns.&#10;Chunks: 0 skipped with no results, &#10;0 skipped with all matching, 0 scanned using binary search.">
<polygon fill="none" stroke="white" points="715.5,-332 467.5,-332 467.5,-248 715.5,-248 715.5,-332"/>
<text text-anchor="middle" x="591.5" y="-316.8" font-family="Times,serif" font-size="14.00" fill="white">TableScan</text>
<text text-anchor="middle" x="591.5" y="-301.8" font-family="Times,serif" font-size="14.00" fill="white">Impl: ColumnVsValue</text>
<text text-anchor="middle" x="591.5" y="-286.8" font-family="Times,serif" font-size="14.00" fill="white">c_mktsegment = &#39;HOUSEHOLD&#39;</text>
<text text-anchor="middle" x="591.5" y="-255.8" font-family="Times,serif" font-size="14.00" fill="white">296 µs 96 ns</text>
</a>
</g>
</g>
<!-- 140658483492368&#45;&gt;140658482364176 -->
<g id="edge17" class="edge">
<title>140658483492368&#45;&gt;140658482364176</title>
<path fill="none" stroke="white" d="M591.22,-332.23C591.07,-354.32 590.89,-381.31 590.75,-402.62"/>
<polygon fill="white" stroke="white" points="587.24,-402.86 590.68,-412.88 594.24,-402.91 587.24,-402.86"/>
<text text-anchor="middle" x="688.5" y="-368.8" font-family="Times,serif" font-size="14.00" fill="white">299,751 row(s)/23 chunk(s)</text>
</g>
<!-- 140616183654096 -->
<g id="node18" class="node">
<title>140616183654096</title>
<g id="a_node18"><a xlink:title="Output: 1500000 rows in 23 chunks, 74 µs 469 ns.">
<polygon fill="none" stroke="white" points="648,-148 535,-148 535,-34 648,-34 648,-148"/>
<text text-anchor="middle" x="591.5" y="-132.8" font-family="Times,serif" font-size="14.00" fill="white">GetTable</text>
<text text-anchor="middle" x="591.5" y="-117.8" font-family="Times,serif" font-size="14.00" fill="white">(customer)</text>
<text text-anchor="middle" x="591.5" y="-102.8" font-family="Times,serif" font-size="14.00" fill="white">pruned:</text>
<text text-anchor="middle" x="591.5" y="-87.8" font-family="Times,serif" font-size="14.00" fill="white">0/23 chunk(s)</text>
<text text-anchor="middle" x="591.5" y="-72.8" font-family="Times,serif" font-size="14.00" fill="white">6/8 column(s)</text>
<text text-anchor="middle" x="591.5" y="-41.8" font-family="Times,serif" font-size="14.00" fill="white">74 µs 469 ns</text>
</a>
</g>
</g>
<!-- 140616183654096&#45;&gt;140658483492368 -->
<g id="edge18" class="edge">
<title>140616183654096&#45;&gt;140658483492368</title>
<path fill="none" stroke="white" d="M591.5,-148.19C591.5,-176.32 591.5,-210.15 591.5,-237.59"/>
<polygon fill="white" stroke="white" points="588,-237.77 591.5,-247.77 595,-237.77 588,-237.77"/>
<text text-anchor="middle" x="696.5" y="-203.8" font-family="Times,serif" font-size="14.00" fill="white">1,500,000 row(s)/23 chunk(s)</text>
</g>
<!-- 0 -->
<g id="node19" class="node">
<title>0</title>
<polygon fill="none" stroke="white" points="666.5,-0.5 666.5,-181.5 1012.5,-181.5 1012.5,-0.5 666.5,-0.5"/>
<text text-anchor="middle" x="839.5" y="-166.3" font-family="Times,serif" font-size="14.00" fill="white">Total by operator</text>
<polyline fill="none" stroke="white" points="666.5,-158.5 1012.5,-158.5 "/>
<text text-anchor="end" x="820.5" y="-143.3" font-family="Times,serif" font-size="14.00" fill="white">JoinSimdSortMerge </text>
<text text-anchor="end" x="820.5" y="-128.3" font-family="Times,serif" font-size="14.00" fill="white"> Sort </text>
<text text-anchor="end" x="820.5" y="-113.3" font-family="Times,serif" font-size="14.00" fill="white"> AggregateHash </text>
<text text-anchor="end" x="820.5" y="-98.3" font-family="Times,serif" font-size="14.00" fill="white"> TableScan </text>
<text text-anchor="end" x="820.5" y="-83.3" font-family="Times,serif" font-size="14.00" fill="white"> Projection </text>
<text text-anchor="end" x="820.5" y="-68.3" font-family="Times,serif" font-size="14.00" fill="white"> GetTable </text>
<text text-anchor="end" x="820.5" y="-53.3" font-family="Times,serif" font-size="14.00" fill="white"> Validate </text>
<text text-anchor="end" x="820.5" y="-38.3" font-family="Times,serif" font-size="14.00" fill="white"> Limit </text>
<text text-anchor="end" x="820.5" y="-23.3" font-family="Times,serif" font-size="14.00" fill="white"> Alias </text>
<text text-anchor="end" x="820.5" y="-8.3" font-family="Times,serif" font-size="14.00" fill="white">total</text>
<polyline fill="none" stroke="white" points="828.5,-0.5 828.5,-158.5 "/>
<text text-anchor="start" x="836.5" y="-143.3" font-family="Times,serif" font-size="14.00" fill="white">114 ms 250 µs </text>
<text text-anchor="start" x="836.5" y="-128.3" font-family="Times,serif" font-size="14.00" fill="white"> 88 ms 624 µs </text>
<text text-anchor="start" x="836.5" y="-113.3" font-family="Times,serif" font-size="14.00" fill="white"> 84 ms 0 µs </text>
<text text-anchor="start" x="836.5" y="-98.3" font-family="Times,serif" font-size="14.00" fill="white"> 12 ms 305 µs </text>
<text text-anchor="start" x="836.5" y="-83.3" font-family="Times,serif" font-size="14.00" fill="white"> 9 ms 316 µs </text>
<text text-anchor="start" x="836.5" y="-68.3" font-family="Times,serif" font-size="14.00" fill="white"> 2 ms 41 µs </text>
<text text-anchor="start" x="836.5" y="-53.3" font-family="Times,serif" font-size="14.00" fill="white"> 1 ms 793 µs </text>
<text text-anchor="start" x="836.5" y="-38.3" font-family="Times,serif" font-size="14.00" fill="white"> 12 µs 644 ns </text>
<text text-anchor="start" x="836.5" y="-23.3" font-family="Times,serif" font-size="14.00" fill="white"> 4 µs 529 ns </text>
<text text-anchor="start" x="836.5" y="-8.3" font-family="Times,serif" font-size="14.00" fill="white"> 312 ms 346 µs </text>
<polyline fill="none" stroke="white" points="959.5,-0.5 959.5,-158.5 "/>
<text text-anchor="start" x="967.5" y="-143.3" font-family="Times,serif" font-size="14.00" fill="white">37 %</text>
<text text-anchor="start" x="967.5" y="-128.3" font-family="Times,serif" font-size="14.00" fill="white">28 %</text>
<text text-anchor="start" x="967.5" y="-113.3" font-family="Times,serif" font-size="14.00" fill="white">27 %</text>
<text text-anchor="start" x="967.5" y="-98.3" font-family="Times,serif" font-size="14.00" fill="white">4 %</text>
<text text-anchor="start" x="967.5" y="-83.3" font-family="Times,serif" font-size="14.00" fill="white">3 %</text>
<text text-anchor="start" x="967.5" y="-68.3" font-family="Times,serif" font-size="14.00" fill="white">1 %</text>
<text text-anchor="start" x="967.5" y="-53.3" font-family="Times,serif" font-size="14.00" fill="white">1 %</text>
<text text-anchor="start" x="967.5" y="-38.3" font-family="Times,serif" font-size="14.00" fill="white">0 %</text>
<text text-anchor="start" x="967.5" y="-23.3" font-family="Times,serif" font-size="14.00" fill="white">0 %</text>
<text text-anchor="start" x="967.5" y="-8.3" font-family="Times,serif" font-size="14.00" fill="white"> </text>
</g>
</g>
</svg>
